<!-- Generated by IcoMoon.io -->
<svg version="1.1" xmlns="http://www.w3.org/2000/svg" width="24" height="24" viewBox="0 0 24 24">
<title>dislike-alt</title>
<path d="M5.75 3.252h-2.5c-0.69 0-1.25 0.559-1.25 1.215v8.715c0 0.69 0.56 1.215 1.25 1.215h2.5c0.69 0 1.25-0.56 1.25-1.215v-8.68c0-0.69-0.559-1.25-1.25-1.25zM20.254 11.383c0.305-0.332 0.496-0.773 0.496-1.262 0-0.917-0.659-1.677-1.529-1.839 0.173-0.282 0.279-0.614 0.279-1.004 0-0.833-0.547-1.53-1.299-1.775 0.029-0.1 0.049-0.237 0.049-0.379 0-1.036-0.84-1.874-1.875-1.874h-2.293c-1.352 0-2.667 0.438-3.749 1.249l-1.334 1c-0.473 0.354-0.75 0.911-0.75 1.466l0.004 6.25c0 0-0.001-0.001 0 0 0.003 0.546 0.239 1.091 0.7 1.459l0.637 0.509c3.199 2.594 1.761 5.567 4.226 5.567 1.209 0 1.932-0.958 1.932-1.879 0-0.592-0.459-2.27-1.348-3.751h5.725c1.036 0 1.875-0.839 1.875-1.874 0-0.992-0.773-1.797-1.746-1.863z"></path>
</svg>
