<!-- Generated by IcoMoon.io -->
<svg version="1.1" xmlns="http://www.w3.org/2000/svg" width="24" height="24" viewBox="0 0 24 24">
<title>info</title>
<path d="M12 4c-4.418 0-8 3.582-8 8s3.582 8 8 8c4.418 0 8-3.582 8-8s-3.582-8-8-8zM2 12c0-5.523 4.477-10 10-10s10 4.477 10 10c0 5.523-4.477 10-10 10s-10-4.477-10-10zM11 8.4c0-0.552 0.448-1 1-1h0.009c0.552 0 1 0.448 1 1s-0.448 1-1 1h-0.009c-0.552 0-1-0.448-1-1zM12 11c0.552 0 1 0.448 1 1v3.6c0 0.552-0.448 1-1 1s-1-0.448-1-1v-3.6c0-0.552 0.448-1 1-1z"></path>
</svg>
