<!-- Generated by IcoMoon.io -->
<svg version="1.1" xmlns="http://www.w3.org/2000/svg" width="24" height="24" viewBox="0 0 24 24">
<title>rotate-right</title>
<path d="M22 3.035v6.898c0 0.573-0.461 1.035-1.035 1.035h-6.897c-0.569 0-1.035-0.461-1.035-1.035s0.463-1.035 1.035-1.035h4.332c-1.28-2.488-3.879-4.139-6.746-4.139-4.22 0-7.586 3.367-7.586 7.588s3.404 7.588 7.586 7.588c1.771 0 3.495-0.624 4.853-1.757 0.438-0.366 1.091-0.309 1.457 0.132 0.366 0.439 0.307 1.091-0.132 1.458-1.731 1.442-3.93 2.232-6.185 2.232-5.321 0-9.649-4.328-9.649-9.653s4.328-9.653 9.651-9.653c3.442 0 6.569 1.874 8.28 4.704v-4.363c0-0.571 0.463-1.035 1.035-1.035s1.035 0.463 1.035 1.035z"></path>
</svg>
