<svg width="620" height="320" viewBox="0 0 620 320" fill="none" xmlns="http://www.w3.org/2000/svg">
<rect width="620" height="320" rx="16" fill="#F8F8F8"/>
<circle cx="235" cy="138" r="9.5" fill="white" stroke="#AAAAAA"/>
<path d="M260.339 132.336H261.745V139.55C261.745 140.351 261.567 141.018 261.21 141.55C260.854 142.082 260.38 142.482 259.79 142.751C259.204 143.015 258.566 143.146 257.878 143.146C257.155 143.146 256.501 143.015 255.915 142.751C255.334 142.482 254.873 142.082 254.531 141.55C254.194 141.018 254.025 140.351 254.025 139.55V132.336H255.424V139.55C255.424 140.107 255.527 140.566 255.732 140.927C255.937 141.289 256.223 141.557 256.589 141.733C256.96 141.909 257.39 141.997 257.878 141.997C258.371 141.997 258.801 141.909 259.167 141.733C259.538 141.557 259.826 141.289 260.031 140.927C260.236 140.566 260.339 140.107 260.339 139.55V132.336ZM265.114 136.767V143H263.759V135.075H265.041L265.114 136.767ZM264.792 138.737L264.228 138.715C264.233 138.173 264.313 137.673 264.47 137.214C264.626 136.75 264.846 136.347 265.129 136.005C265.412 135.664 265.749 135.4 266.14 135.214C266.535 135.024 266.972 134.929 267.451 134.929C267.841 134.929 268.193 134.982 268.505 135.09C268.818 135.192 269.084 135.358 269.304 135.588C269.528 135.817 269.699 136.115 269.816 136.481C269.934 136.843 269.992 137.285 269.992 137.807V143H268.63V137.792C268.63 137.377 268.569 137.045 268.447 136.796C268.325 136.542 268.146 136.359 267.912 136.247C267.678 136.13 267.39 136.071 267.048 136.071C266.711 136.071 266.403 136.142 266.125 136.284C265.852 136.425 265.615 136.621 265.415 136.87C265.219 137.119 265.065 137.404 264.953 137.727C264.846 138.044 264.792 138.381 264.792 138.737ZM276.665 140.898C276.665 140.703 276.621 140.522 276.533 140.356C276.45 140.185 276.276 140.031 276.013 139.895C275.754 139.753 275.363 139.631 274.841 139.528C274.401 139.436 274.003 139.326 273.647 139.199C273.295 139.072 272.995 138.918 272.746 138.737C272.502 138.557 272.314 138.344 272.182 138.1C272.05 137.856 271.984 137.57 271.984 137.243C271.984 136.931 272.053 136.635 272.189 136.357C272.331 136.079 272.529 135.832 272.783 135.617C273.042 135.402 273.352 135.234 273.713 135.112C274.074 134.99 274.477 134.929 274.921 134.929C275.556 134.929 276.098 135.041 276.547 135.266C276.997 135.49 277.341 135.791 277.58 136.167C277.819 136.538 277.939 136.95 277.939 137.404H276.584C276.584 137.185 276.518 136.972 276.386 136.767C276.259 136.557 276.071 136.384 275.822 136.247C275.578 136.11 275.278 136.042 274.921 136.042C274.545 136.042 274.24 136.101 274.006 136.218C273.776 136.33 273.608 136.474 273.5 136.65C273.398 136.826 273.347 137.011 273.347 137.207C273.347 137.353 273.371 137.485 273.42 137.602C273.474 137.714 273.566 137.819 273.698 137.917C273.83 138.01 274.016 138.098 274.255 138.181C274.494 138.264 274.799 138.347 275.17 138.43C275.82 138.576 276.354 138.752 276.774 138.957C277.194 139.162 277.507 139.414 277.712 139.711C277.917 140.009 278.02 140.371 278.02 140.795C278.02 141.142 277.946 141.459 277.8 141.748C277.658 142.036 277.451 142.285 277.177 142.495C276.909 142.7 276.586 142.861 276.21 142.978C275.839 143.09 275.422 143.146 274.958 143.146C274.26 143.146 273.669 143.022 273.186 142.773C272.702 142.524 272.336 142.202 272.087 141.806C271.838 141.411 271.713 140.993 271.713 140.554H273.076C273.095 140.925 273.203 141.22 273.398 141.44C273.593 141.655 273.833 141.809 274.116 141.901C274.399 141.989 274.68 142.033 274.958 142.033C275.329 142.033 275.639 141.984 275.888 141.887C276.142 141.789 276.335 141.655 276.467 141.484C276.599 141.313 276.665 141.118 276.665 140.898ZM283.088 143.146C282.536 143.146 282.036 143.054 281.586 142.868C281.142 142.678 280.759 142.412 280.437 142.07C280.119 141.728 279.875 141.323 279.704 140.854C279.533 140.385 279.448 139.873 279.448 139.316V139.008C279.448 138.364 279.543 137.79 279.733 137.287C279.924 136.779 280.183 136.35 280.51 135.998C280.837 135.646 281.208 135.38 281.623 135.2C282.038 135.019 282.468 134.929 282.912 134.929C283.479 134.929 283.967 135.026 284.377 135.222C284.792 135.417 285.131 135.69 285.395 136.042C285.659 136.389 285.854 136.799 285.981 137.272C286.108 137.741 286.171 138.254 286.171 138.811V139.418H280.253V138.312H284.816V138.21C284.797 137.858 284.724 137.517 284.597 137.185C284.475 136.853 284.279 136.579 284.011 136.364C283.742 136.149 283.376 136.042 282.912 136.042C282.604 136.042 282.321 136.108 282.062 136.24C281.804 136.367 281.582 136.557 281.396 136.811C281.21 137.065 281.066 137.375 280.964 137.741C280.861 138.107 280.81 138.53 280.81 139.008V139.316C280.81 139.692 280.861 140.046 280.964 140.378C281.071 140.705 281.225 140.993 281.425 141.242C281.63 141.491 281.877 141.687 282.165 141.828C282.458 141.97 282.79 142.041 283.161 142.041C283.64 142.041 284.045 141.943 284.377 141.748C284.709 141.552 285 141.291 285.249 140.964L286.069 141.616C285.898 141.875 285.681 142.121 285.417 142.355C285.153 142.59 284.829 142.78 284.443 142.927C284.062 143.073 283.61 143.146 283.088 143.146ZM289.226 131.75V143H287.863V131.75H289.226ZM294.689 143.146C294.138 143.146 293.637 143.054 293.188 142.868C292.744 142.678 292.36 142.412 292.038 142.07C291.721 141.728 291.477 141.323 291.306 140.854C291.135 140.385 291.049 139.873 291.049 139.316V139.008C291.049 138.364 291.145 137.79 291.335 137.287C291.525 136.779 291.784 136.35 292.111 135.998C292.438 135.646 292.81 135.38 293.225 135.2C293.64 135.019 294.069 134.929 294.514 134.929C295.08 134.929 295.568 135.026 295.979 135.222C296.394 135.417 296.733 135.69 296.997 136.042C297.26 136.389 297.456 136.799 297.583 137.272C297.709 137.741 297.773 138.254 297.773 138.811V139.418H291.855V138.312H296.418V138.21C296.398 137.858 296.325 137.517 296.198 137.185C296.076 136.853 295.881 136.579 295.612 136.364C295.344 136.149 294.978 136.042 294.514 136.042C294.206 136.042 293.923 136.108 293.664 136.24C293.405 136.367 293.183 136.557 292.998 136.811C292.812 137.065 292.668 137.375 292.565 137.741C292.463 138.107 292.412 138.53 292.412 139.008V139.316C292.412 139.692 292.463 140.046 292.565 140.378C292.673 140.705 292.827 140.993 293.027 141.242C293.232 141.491 293.479 141.687 293.767 141.828C294.06 141.97 294.392 142.041 294.763 142.041C295.241 142.041 295.646 141.943 295.979 141.748C296.311 141.552 296.601 141.291 296.85 140.964L297.67 141.616C297.5 141.875 297.282 142.121 297.019 142.355C296.755 142.59 296.43 142.78 296.044 142.927C295.664 143.073 295.212 143.146 294.689 143.146ZM302.526 142.033C302.849 142.033 303.146 141.967 303.42 141.835C303.693 141.704 303.918 141.523 304.094 141.293C304.27 141.059 304.37 140.793 304.394 140.495H305.683C305.659 140.964 305.5 141.401 305.207 141.806C304.919 142.207 304.541 142.531 304.072 142.78C303.603 143.024 303.088 143.146 302.526 143.146C301.931 143.146 301.411 143.042 300.966 142.832C300.527 142.622 300.161 142.333 299.868 141.967C299.58 141.601 299.362 141.181 299.216 140.708C299.074 140.229 299.003 139.724 299.003 139.191V138.884C299.003 138.352 299.074 137.849 299.216 137.375C299.362 136.896 299.58 136.474 299.868 136.108C300.161 135.742 300.527 135.454 300.966 135.244C301.411 135.034 301.931 134.929 302.526 134.929C303.146 134.929 303.688 135.056 304.152 135.31C304.616 135.559 304.98 135.9 305.244 136.335C305.512 136.765 305.659 137.253 305.683 137.8H304.394C304.37 137.473 304.277 137.177 304.116 136.914C303.959 136.65 303.745 136.44 303.471 136.284C303.203 136.123 302.888 136.042 302.526 136.042C302.111 136.042 301.762 136.125 301.479 136.291C301.201 136.452 300.979 136.672 300.812 136.95C300.651 137.224 300.534 137.529 300.461 137.866C300.393 138.198 300.358 138.537 300.358 138.884V139.191C300.358 139.538 300.393 139.88 300.461 140.217C300.529 140.554 300.644 140.859 300.805 141.132C300.971 141.406 301.193 141.625 301.472 141.792C301.755 141.953 302.106 142.033 302.526 142.033ZM310.524 135.075V136.115H306.24V135.075H310.524ZM307.69 133.149H309.045V141.037C309.045 141.306 309.086 141.508 309.169 141.645C309.252 141.782 309.36 141.872 309.492 141.916C309.624 141.96 309.765 141.982 309.917 141.982C310.029 141.982 310.146 141.972 310.268 141.953C310.395 141.928 310.49 141.909 310.554 141.894L310.561 143C310.454 143.034 310.312 143.066 310.136 143.095C309.965 143.129 309.758 143.146 309.514 143.146C309.182 143.146 308.876 143.081 308.598 142.949C308.32 142.817 308.098 142.597 307.932 142.29C307.771 141.977 307.69 141.557 307.69 141.03V133.149ZM315.402 143.146C314.851 143.146 314.35 143.054 313.901 142.868C313.457 142.678 313.073 142.412 312.751 142.07C312.434 141.728 312.189 141.323 312.019 140.854C311.848 140.385 311.762 139.873 311.762 139.316V139.008C311.762 138.364 311.857 137.79 312.048 137.287C312.238 136.779 312.497 136.35 312.824 135.998C313.151 135.646 313.522 135.38 313.938 135.2C314.353 135.019 314.782 134.929 315.227 134.929C315.793 134.929 316.281 135.026 316.691 135.222C317.106 135.417 317.446 135.69 317.709 136.042C317.973 136.389 318.168 136.799 318.295 137.272C318.422 137.741 318.486 138.254 318.486 138.811V139.418H312.568V138.312H317.131V138.21C317.111 137.858 317.038 137.517 316.911 137.185C316.789 136.853 316.594 136.579 316.325 136.364C316.057 136.149 315.69 136.042 315.227 136.042C314.919 136.042 314.636 136.108 314.377 136.24C314.118 136.367 313.896 136.557 313.71 136.811C313.525 137.065 313.381 137.375 313.278 137.741C313.176 138.107 313.125 138.53 313.125 139.008V139.316C313.125 139.692 313.176 140.046 313.278 140.378C313.386 140.705 313.54 140.993 313.74 141.242C313.945 141.491 314.191 141.687 314.479 141.828C314.772 141.97 315.104 142.041 315.476 142.041C315.954 142.041 316.359 141.943 316.691 141.748C317.023 141.552 317.314 141.291 317.563 140.964L318.383 141.616C318.212 141.875 317.995 142.121 317.731 142.355C317.468 142.59 317.143 142.78 316.757 142.927C316.376 143.073 315.925 143.146 315.402 143.146ZM325.063 141.462V131.75H326.425V143H325.18L325.063 141.462ZM319.731 139.125V138.972C319.731 138.366 319.804 137.817 319.951 137.324C320.102 136.826 320.314 136.398 320.588 136.042C320.866 135.686 321.196 135.412 321.577 135.222C321.962 135.026 322.392 134.929 322.866 134.929C323.364 134.929 323.798 135.017 324.169 135.192C324.545 135.363 324.863 135.615 325.122 135.947C325.385 136.274 325.593 136.669 325.744 137.133C325.896 137.597 326 138.122 326.059 138.708V139.382C326.005 139.963 325.9 140.485 325.744 140.949C325.593 141.413 325.385 141.809 325.122 142.136C324.863 142.463 324.545 142.714 324.169 142.89C323.793 143.061 323.354 143.146 322.851 143.146C322.387 143.146 321.962 143.046 321.577 142.846C321.196 142.646 320.866 142.365 320.588 142.004C320.314 141.643 320.102 141.218 319.951 140.729C319.804 140.236 319.731 139.702 319.731 139.125ZM321.093 138.972V139.125C321.093 139.521 321.132 139.892 321.21 140.239C321.293 140.585 321.42 140.891 321.591 141.154C321.762 141.418 321.979 141.625 322.243 141.777C322.507 141.923 322.822 141.997 323.188 141.997C323.637 141.997 324.006 141.901 324.294 141.711C324.587 141.521 324.821 141.269 324.997 140.957C325.173 140.644 325.31 140.305 325.407 139.938V138.173C325.349 137.905 325.263 137.646 325.151 137.397C325.043 137.143 324.902 136.918 324.726 136.723C324.555 136.523 324.343 136.364 324.089 136.247C323.84 136.13 323.544 136.071 323.203 136.071C322.832 136.071 322.512 136.149 322.243 136.306C321.979 136.457 321.762 136.667 321.591 136.936C321.42 137.199 321.293 137.507 321.21 137.858C321.132 138.205 321.093 138.576 321.093 138.972ZM333.61 136.32V143H332.255V135.075H333.574L333.61 136.32ZM336.086 135.031L336.079 136.291C335.966 136.267 335.859 136.252 335.756 136.247C335.659 136.237 335.546 136.232 335.419 136.232C335.107 136.232 334.831 136.281 334.592 136.379C334.353 136.477 334.15 136.613 333.984 136.789C333.818 136.965 333.686 137.175 333.588 137.419C333.496 137.658 333.435 137.922 333.405 138.21L333.024 138.43C333.024 137.951 333.071 137.502 333.164 137.082C333.261 136.662 333.41 136.291 333.61 135.969C333.811 135.642 334.064 135.388 334.372 135.207C334.685 135.021 335.056 134.929 335.485 134.929C335.583 134.929 335.695 134.941 335.822 134.965C335.949 134.985 336.037 135.007 336.086 135.031ZM341.718 141.645V137.565C341.718 137.253 341.655 136.982 341.528 136.752C341.406 136.518 341.22 136.337 340.971 136.21C340.722 136.083 340.415 136.02 340.048 136.02C339.707 136.02 339.406 136.079 339.147 136.196C338.894 136.313 338.693 136.467 338.547 136.657C338.405 136.848 338.334 137.053 338.334 137.272H336.979C336.979 136.989 337.053 136.708 337.199 136.43C337.346 136.152 337.556 135.9 337.829 135.676C338.107 135.446 338.439 135.266 338.825 135.134C339.216 134.997 339.65 134.929 340.129 134.929C340.705 134.929 341.213 135.026 341.652 135.222C342.097 135.417 342.443 135.712 342.692 136.108C342.946 136.499 343.073 136.989 343.073 137.58V141.271C343.073 141.535 343.095 141.816 343.139 142.114C343.188 142.412 343.259 142.668 343.352 142.883V143H341.938C341.87 142.844 341.816 142.636 341.777 142.377C341.738 142.114 341.718 141.87 341.718 141.645ZM341.953 138.195L341.967 139.147H340.598C340.212 139.147 339.868 139.179 339.565 139.243C339.262 139.301 339.008 139.392 338.803 139.514C338.598 139.636 338.442 139.79 338.334 139.975C338.227 140.156 338.173 140.368 338.173 140.612C338.173 140.861 338.229 141.088 338.342 141.293C338.454 141.499 338.623 141.662 338.847 141.784C339.077 141.901 339.357 141.96 339.689 141.96C340.104 141.96 340.471 141.872 340.788 141.696C341.105 141.521 341.357 141.306 341.542 141.052C341.733 140.798 341.835 140.551 341.85 140.312L342.429 140.964C342.395 141.169 342.302 141.396 342.15 141.645C341.999 141.894 341.796 142.133 341.542 142.363C341.293 142.587 340.996 142.775 340.649 142.927C340.307 143.073 339.921 143.146 339.492 143.146C338.955 143.146 338.483 143.042 338.078 142.832C337.678 142.622 337.365 142.341 337.141 141.989C336.921 141.633 336.811 141.235 336.811 140.795C336.811 140.371 336.894 139.997 337.06 139.675C337.226 139.348 337.465 139.077 337.778 138.862C338.09 138.642 338.466 138.476 338.906 138.364C339.345 138.251 339.836 138.195 340.378 138.195H341.953ZM350.2 141.462V131.75H351.562V143H350.317L350.2 141.462ZM344.868 139.125V138.972C344.868 138.366 344.941 137.817 345.087 137.324C345.239 136.826 345.451 136.398 345.725 136.042C346.003 135.686 346.333 135.412 346.713 135.222C347.099 135.026 347.529 134.929 348.002 134.929C348.5 134.929 348.935 135.017 349.306 135.192C349.682 135.363 350 135.615 350.258 135.947C350.522 136.274 350.729 136.669 350.881 137.133C351.032 137.597 351.137 138.122 351.196 138.708V139.382C351.142 139.963 351.037 140.485 350.881 140.949C350.729 141.413 350.522 141.809 350.258 142.136C350 142.463 349.682 142.714 349.306 142.89C348.93 143.061 348.491 143.146 347.988 143.146C347.524 143.146 347.099 143.046 346.713 142.846C346.333 142.646 346.003 142.365 345.725 142.004C345.451 141.643 345.239 141.218 345.087 140.729C344.941 140.236 344.868 139.702 344.868 139.125ZM346.23 138.972V139.125C346.23 139.521 346.269 139.892 346.347 140.239C346.43 140.585 346.557 140.891 346.728 141.154C346.899 141.418 347.116 141.625 347.38 141.777C347.644 141.923 347.958 141.997 348.325 141.997C348.774 141.997 349.143 141.901 349.431 141.711C349.724 141.521 349.958 141.269 350.134 140.957C350.31 140.644 350.446 140.305 350.544 139.938V138.173C350.485 137.905 350.4 137.646 350.288 137.397C350.18 137.143 350.039 136.918 349.863 136.723C349.692 136.523 349.479 136.364 349.226 136.247C348.977 136.13 348.681 136.071 348.339 136.071C347.968 136.071 347.648 136.149 347.38 136.306C347.116 136.457 346.899 136.667 346.728 136.936C346.557 137.199 346.43 137.507 346.347 137.858C346.269 138.205 346.23 138.576 346.23 138.972ZM355.144 135.075V143H353.781V135.075H355.144ZM353.679 132.973C353.679 132.753 353.745 132.568 353.876 132.417C354.013 132.265 354.213 132.189 354.477 132.189C354.736 132.189 354.934 132.265 355.07 132.417C355.212 132.568 355.283 132.753 355.283 132.973C355.283 133.183 355.212 133.364 355.07 133.515C354.934 133.662 354.736 133.735 354.477 133.735C354.213 133.735 354.013 133.662 353.876 133.515C353.745 133.364 353.679 133.183 353.679 132.973ZM356.96 139.125V138.957C356.96 138.386 357.043 137.856 357.209 137.368C357.375 136.875 357.614 136.447 357.927 136.086C358.239 135.72 358.618 135.437 359.062 135.236C359.506 135.031 360.004 134.929 360.556 134.929C361.113 134.929 361.613 135.031 362.058 135.236C362.507 135.437 362.888 135.72 363.2 136.086C363.518 136.447 363.759 136.875 363.925 137.368C364.091 137.856 364.174 138.386 364.174 138.957V139.125C364.174 139.697 364.091 140.227 363.925 140.715C363.759 141.203 363.518 141.63 363.2 141.997C362.888 142.358 362.509 142.641 362.065 142.846C361.625 143.046 361.127 143.146 360.571 143.146C360.014 143.146 359.514 143.046 359.069 142.846C358.625 142.641 358.244 142.358 357.927 141.997C357.614 141.63 357.375 141.203 357.209 140.715C357.043 140.227 356.96 139.697 356.96 139.125ZM358.315 138.957V139.125C358.315 139.521 358.361 139.895 358.454 140.246C358.547 140.593 358.686 140.9 358.872 141.169C359.062 141.438 359.299 141.65 359.582 141.806C359.865 141.958 360.195 142.033 360.571 142.033C360.942 142.033 361.267 141.958 361.545 141.806C361.828 141.65 362.062 141.438 362.248 141.169C362.434 140.9 362.573 140.593 362.666 140.246C362.763 139.895 362.812 139.521 362.812 139.125V138.957C362.812 138.566 362.763 138.198 362.666 137.851C362.573 137.5 362.431 137.189 362.241 136.921C362.055 136.647 361.821 136.433 361.538 136.276C361.259 136.12 360.932 136.042 360.556 136.042C360.185 136.042 359.858 136.12 359.575 136.276C359.296 136.433 359.062 136.647 358.872 136.921C358.686 137.189 358.547 137.5 358.454 137.851C358.361 138.198 358.315 138.566 358.315 138.957Z" fill="#505050"/>
<circle cx="235" cy="182" r="7" fill="white" stroke="#0059FF" stroke-width="6"/>
<path d="M259.921 184.305C259.921 184.056 259.882 183.836 259.804 183.646C259.731 183.45 259.599 183.274 259.409 183.118C259.223 182.962 258.964 182.813 258.632 182.671C258.305 182.53 257.89 182.386 257.387 182.239C256.86 182.083 256.384 181.91 255.959 181.719C255.534 181.524 255.17 181.302 254.868 181.053C254.565 180.804 254.333 180.518 254.172 180.196C254.011 179.874 253.93 179.505 253.93 179.09C253.93 178.675 254.016 178.292 254.187 177.94C254.357 177.588 254.602 177.283 254.919 177.024C255.241 176.761 255.625 176.556 256.069 176.409C256.513 176.263 257.009 176.189 257.556 176.189C258.356 176.189 259.035 176.343 259.592 176.651C260.153 176.954 260.581 177.352 260.874 177.845C261.167 178.333 261.313 178.855 261.313 179.412H259.907C259.907 179.012 259.821 178.658 259.65 178.35C259.479 178.038 259.221 177.793 258.874 177.618C258.527 177.437 258.088 177.347 257.556 177.347C257.053 177.347 256.638 177.422 256.311 177.574C255.983 177.725 255.739 177.93 255.578 178.189C255.422 178.448 255.344 178.743 255.344 179.075C255.344 179.3 255.39 179.505 255.483 179.69C255.581 179.871 255.729 180.04 255.93 180.196C256.135 180.352 256.394 180.496 256.706 180.628C257.023 180.76 257.402 180.887 257.841 181.009C258.447 181.18 258.969 181.37 259.409 181.58C259.848 181.79 260.209 182.027 260.493 182.291C260.781 182.549 260.993 182.845 261.13 183.177C261.271 183.504 261.342 183.875 261.342 184.29C261.342 184.725 261.254 185.118 261.079 185.469C260.903 185.821 260.651 186.121 260.324 186.37C259.997 186.619 259.604 186.812 259.145 186.949C258.691 187.081 258.183 187.146 257.622 187.146C257.128 187.146 256.643 187.078 256.164 186.941C255.69 186.805 255.258 186.6 254.868 186.326C254.482 186.053 254.172 185.716 253.938 185.315C253.708 184.91 253.593 184.441 253.593 183.909H255C255 184.275 255.07 184.59 255.212 184.854C255.354 185.113 255.546 185.328 255.791 185.499C256.04 185.669 256.32 185.796 256.633 185.879C256.95 185.958 257.28 185.997 257.622 185.997C258.115 185.997 258.532 185.928 258.874 185.792C259.216 185.655 259.475 185.459 259.65 185.206C259.831 184.952 259.921 184.651 259.921 184.305ZM266.228 187.146C265.676 187.146 265.175 187.054 264.726 186.868C264.282 186.678 263.898 186.412 263.576 186.07C263.259 185.728 263.015 185.323 262.844 184.854C262.673 184.385 262.587 183.873 262.587 183.316V183.008C262.587 182.364 262.683 181.79 262.873 181.287C263.063 180.779 263.322 180.35 263.649 179.998C263.977 179.646 264.348 179.38 264.763 179.2C265.178 179.019 265.607 178.929 266.052 178.929C266.618 178.929 267.106 179.026 267.517 179.222C267.932 179.417 268.271 179.69 268.535 180.042C268.798 180.389 268.994 180.799 269.121 181.272C269.248 181.741 269.311 182.254 269.311 182.811V183.418H263.393V182.312H267.956V182.21C267.937 181.858 267.863 181.517 267.736 181.185C267.614 180.853 267.419 180.579 267.15 180.364C266.882 180.149 266.516 180.042 266.052 180.042C265.744 180.042 265.461 180.108 265.202 180.24C264.943 180.367 264.721 180.557 264.536 180.811C264.35 181.065 264.206 181.375 264.104 181.741C264.001 182.107 263.95 182.53 263.95 183.008V183.316C263.95 183.692 264.001 184.046 264.104 184.378C264.211 184.705 264.365 184.993 264.565 185.242C264.77 185.491 265.017 185.687 265.305 185.828C265.598 185.97 265.93 186.041 266.301 186.041C266.779 186.041 267.185 185.943 267.517 185.748C267.849 185.552 268.139 185.291 268.388 184.964L269.208 185.616C269.038 185.875 268.82 186.121 268.557 186.355C268.293 186.59 267.968 186.78 267.583 186.927C267.202 187.073 266.75 187.146 266.228 187.146ZM272.365 175.75V187H271.003V175.75H272.365ZM277.829 187.146C277.277 187.146 276.777 187.054 276.328 186.868C275.883 186.678 275.5 186.412 275.178 186.07C274.86 185.728 274.616 185.323 274.445 184.854C274.274 184.385 274.189 183.873 274.189 183.316V183.008C274.189 182.364 274.284 181.79 274.475 181.287C274.665 180.779 274.924 180.35 275.251 179.998C275.578 179.646 275.949 179.38 276.364 179.2C276.779 179.019 277.209 178.929 277.653 178.929C278.22 178.929 278.708 179.026 279.118 179.222C279.533 179.417 279.873 179.69 280.136 180.042C280.4 180.389 280.595 180.799 280.722 181.272C280.849 181.741 280.913 182.254 280.913 182.811V183.418H274.995V182.312H279.558V182.21C279.538 181.858 279.465 181.517 279.338 181.185C279.216 180.853 279.021 180.579 278.752 180.364C278.483 180.149 278.117 180.042 277.653 180.042C277.346 180.042 277.062 180.108 276.804 180.24C276.545 180.367 276.323 180.557 276.137 180.811C275.952 181.065 275.808 181.375 275.705 181.741C275.603 182.107 275.551 182.53 275.551 183.008V183.316C275.551 183.692 275.603 184.046 275.705 184.378C275.812 184.705 275.966 184.993 276.167 185.242C276.372 185.491 276.618 185.687 276.906 185.828C277.199 185.97 277.531 186.041 277.902 186.041C278.381 186.041 278.786 185.943 279.118 185.748C279.45 185.552 279.741 185.291 279.99 184.964L280.81 185.616C280.639 185.875 280.422 186.121 280.158 186.355C279.895 186.59 279.57 186.78 279.184 186.927C278.803 187.073 278.352 187.146 277.829 187.146ZM285.666 186.033C285.988 186.033 286.286 185.967 286.56 185.835C286.833 185.704 287.058 185.523 287.233 185.293C287.409 185.059 287.509 184.793 287.534 184.495H288.823C288.798 184.964 288.64 185.401 288.347 185.806C288.059 186.207 287.68 186.531 287.211 186.78C286.743 187.024 286.228 187.146 285.666 187.146C285.07 187.146 284.55 187.042 284.106 186.832C283.667 186.622 283.3 186.333 283.007 185.967C282.719 185.601 282.502 185.181 282.355 184.708C282.214 184.229 282.143 183.724 282.143 183.191V182.884C282.143 182.352 282.214 181.849 282.355 181.375C282.502 180.896 282.719 180.474 283.007 180.108C283.3 179.742 283.667 179.454 284.106 179.244C284.55 179.034 285.07 178.929 285.666 178.929C286.286 178.929 286.828 179.056 287.292 179.31C287.756 179.559 288.12 179.9 288.383 180.335C288.652 180.765 288.798 181.253 288.823 181.8H287.534C287.509 181.473 287.417 181.177 287.255 180.914C287.099 180.65 286.884 180.44 286.611 180.284C286.342 180.123 286.027 180.042 285.666 180.042C285.251 180.042 284.902 180.125 284.619 180.291C284.34 180.452 284.118 180.672 283.952 180.95C283.791 181.224 283.674 181.529 283.601 181.866C283.532 182.198 283.498 182.537 283.498 182.884V183.191C283.498 183.538 283.532 183.88 283.601 184.217C283.669 184.554 283.784 184.859 283.945 185.132C284.111 185.406 284.333 185.625 284.611 185.792C284.895 185.953 285.246 186.033 285.666 186.033ZM293.664 179.075V180.115H289.379V179.075H293.664ZM290.83 177.149H292.185V185.037C292.185 185.306 292.226 185.508 292.309 185.645C292.392 185.782 292.5 185.872 292.631 185.916C292.763 185.96 292.905 185.982 293.056 185.982C293.168 185.982 293.286 185.972 293.408 185.953C293.535 185.928 293.63 185.909 293.693 185.894L293.701 187C293.593 187.034 293.452 187.066 293.276 187.095C293.105 187.129 292.897 187.146 292.653 187.146C292.321 187.146 292.016 187.081 291.738 186.949C291.459 186.817 291.237 186.597 291.071 186.29C290.91 185.977 290.83 185.557 290.83 185.03V177.149ZM298.542 187.146C297.99 187.146 297.49 187.054 297.041 186.868C296.596 186.678 296.213 186.412 295.891 186.07C295.573 185.728 295.329 185.323 295.158 184.854C294.987 184.385 294.902 183.873 294.902 183.316V183.008C294.902 182.364 294.997 181.79 295.188 181.287C295.378 180.779 295.637 180.35 295.964 179.998C296.291 179.646 296.662 179.38 297.077 179.2C297.492 179.019 297.922 178.929 298.366 178.929C298.933 178.929 299.421 179.026 299.831 179.222C300.246 179.417 300.585 179.69 300.849 180.042C301.113 180.389 301.308 180.799 301.435 181.272C301.562 181.741 301.625 182.254 301.625 182.811V183.418H295.708V182.312H300.271V182.21C300.251 181.858 300.178 181.517 300.051 181.185C299.929 180.853 299.733 180.579 299.465 180.364C299.196 180.149 298.83 180.042 298.366 180.042C298.059 180.042 297.775 180.108 297.517 180.24C297.258 180.367 297.036 180.557 296.85 180.811C296.665 181.065 296.521 181.375 296.418 181.741C296.315 182.107 296.264 182.53 296.264 183.008V183.316C296.264 183.692 296.315 184.046 296.418 184.378C296.525 184.705 296.679 184.993 296.879 185.242C297.084 185.491 297.331 185.687 297.619 185.828C297.912 185.97 298.244 186.041 298.615 186.041C299.094 186.041 299.499 185.943 299.831 185.748C300.163 185.552 300.454 185.291 300.703 184.964L301.523 185.616C301.352 185.875 301.135 186.121 300.871 186.355C300.607 186.59 300.283 186.78 299.897 186.927C299.516 187.073 299.064 187.146 298.542 187.146ZM308.203 185.462V175.75H309.565V187H308.32L308.203 185.462ZM302.871 183.125V182.972C302.871 182.366 302.944 181.817 303.09 181.324C303.242 180.826 303.454 180.398 303.728 180.042C304.006 179.686 304.335 179.412 304.716 179.222C305.102 179.026 305.532 178.929 306.005 178.929C306.503 178.929 306.938 179.017 307.309 179.192C307.685 179.363 308.002 179.615 308.261 179.947C308.525 180.274 308.732 180.669 308.884 181.133C309.035 181.597 309.14 182.122 309.199 182.708V183.382C309.145 183.963 309.04 184.485 308.884 184.949C308.732 185.413 308.525 185.809 308.261 186.136C308.002 186.463 307.685 186.714 307.309 186.89C306.933 187.061 306.494 187.146 305.991 187.146C305.527 187.146 305.102 187.046 304.716 186.846C304.335 186.646 304.006 186.365 303.728 186.004C303.454 185.643 303.242 185.218 303.09 184.729C302.944 184.236 302.871 183.702 302.871 183.125ZM304.233 182.972V183.125C304.233 183.521 304.272 183.892 304.35 184.239C304.433 184.585 304.56 184.891 304.731 185.154C304.902 185.418 305.119 185.625 305.383 185.777C305.646 185.923 305.961 185.997 306.328 185.997C306.777 185.997 307.146 185.901 307.434 185.711C307.727 185.521 307.961 185.269 308.137 184.957C308.312 184.644 308.449 184.305 308.547 183.938V182.173C308.488 181.905 308.403 181.646 308.291 181.397C308.183 181.143 308.042 180.918 307.866 180.723C307.695 180.523 307.482 180.364 307.229 180.247C306.979 180.13 306.684 180.071 306.342 180.071C305.971 180.071 305.651 180.149 305.383 180.306C305.119 180.457 304.902 180.667 304.731 180.936C304.56 181.199 304.433 181.507 304.35 181.858C304.272 182.205 304.233 182.576 304.233 182.972ZM316.75 180.32V187H315.395V179.075H316.713L316.75 180.32ZM319.226 179.031L319.218 180.291C319.106 180.267 318.999 180.252 318.896 180.247C318.798 180.237 318.686 180.232 318.559 180.232C318.247 180.232 317.971 180.281 317.731 180.379C317.492 180.477 317.29 180.613 317.124 180.789C316.958 180.965 316.826 181.175 316.728 181.419C316.635 181.658 316.574 181.922 316.545 182.21L316.164 182.43C316.164 181.951 316.21 181.502 316.303 181.082C316.401 180.662 316.55 180.291 316.75 179.969C316.95 179.642 317.204 179.388 317.512 179.207C317.824 179.021 318.195 178.929 318.625 178.929C318.723 178.929 318.835 178.941 318.962 178.965C319.089 178.985 319.177 179.007 319.226 179.031ZM324.858 185.645V181.565C324.858 181.253 324.794 180.982 324.667 180.752C324.545 180.518 324.36 180.337 324.111 180.21C323.862 180.083 323.554 180.02 323.188 180.02C322.846 180.02 322.546 180.079 322.287 180.196C322.033 180.313 321.833 180.467 321.687 180.657C321.545 180.848 321.474 181.053 321.474 181.272H320.119C320.119 180.989 320.192 180.708 320.339 180.43C320.485 180.152 320.695 179.9 320.969 179.676C321.247 179.446 321.579 179.266 321.965 179.134C322.355 178.997 322.79 178.929 323.269 178.929C323.845 178.929 324.353 179.026 324.792 179.222C325.236 179.417 325.583 179.712 325.832 180.108C326.086 180.499 326.213 180.989 326.213 181.58V185.271C326.213 185.535 326.235 185.816 326.279 186.114C326.328 186.412 326.398 186.668 326.491 186.883V187H325.078C325.009 186.844 324.956 186.636 324.917 186.377C324.877 186.114 324.858 185.87 324.858 185.645ZM325.092 182.195L325.107 183.147H323.737C323.352 183.147 323.007 183.179 322.705 183.243C322.402 183.301 322.148 183.392 321.943 183.514C321.738 183.636 321.582 183.79 321.474 183.975C321.367 184.156 321.313 184.368 321.313 184.612C321.313 184.861 321.369 185.088 321.481 185.293C321.594 185.499 321.762 185.662 321.987 185.784C322.216 185.901 322.497 185.96 322.829 185.96C323.244 185.96 323.61 185.872 323.928 185.696C324.245 185.521 324.497 185.306 324.682 185.052C324.873 184.798 324.975 184.551 324.99 184.312L325.568 184.964C325.534 185.169 325.441 185.396 325.29 185.645C325.139 185.894 324.936 186.133 324.682 186.363C324.433 186.587 324.135 186.775 323.789 186.927C323.447 187.073 323.061 187.146 322.631 187.146C322.094 187.146 321.623 187.042 321.218 186.832C320.817 186.622 320.505 186.341 320.28 185.989C320.061 185.633 319.951 185.235 319.951 184.795C319.951 184.371 320.034 183.997 320.2 183.675C320.366 183.348 320.605 183.077 320.917 182.862C321.23 182.642 321.606 182.476 322.045 182.364C322.485 182.251 322.976 182.195 323.518 182.195H325.092ZM333.339 185.462V175.75H334.702V187H333.457L333.339 185.462ZM328.007 183.125V182.972C328.007 182.366 328.081 181.817 328.227 181.324C328.378 180.826 328.591 180.398 328.864 180.042C329.143 179.686 329.472 179.412 329.853 179.222C330.239 179.026 330.668 178.929 331.142 178.929C331.64 178.929 332.075 179.017 332.446 179.192C332.822 179.363 333.139 179.615 333.398 179.947C333.662 180.274 333.869 180.669 334.021 181.133C334.172 181.597 334.277 182.122 334.335 182.708V183.382C334.282 183.963 334.177 184.485 334.021 184.949C333.869 185.413 333.662 185.809 333.398 186.136C333.139 186.463 332.822 186.714 332.446 186.89C332.07 187.061 331.63 187.146 331.127 187.146C330.664 187.146 330.239 187.046 329.853 186.846C329.472 186.646 329.143 186.365 328.864 186.004C328.591 185.643 328.378 185.218 328.227 184.729C328.081 184.236 328.007 183.702 328.007 183.125ZM329.37 182.972V183.125C329.37 183.521 329.409 183.892 329.487 184.239C329.57 184.585 329.697 184.891 329.868 185.154C330.039 185.418 330.256 185.625 330.52 185.777C330.783 185.923 331.098 185.997 331.464 185.997C331.914 185.997 332.282 185.901 332.57 185.711C332.863 185.521 333.098 185.269 333.273 184.957C333.449 184.644 333.586 184.305 333.684 183.938V182.173C333.625 181.905 333.54 181.646 333.427 181.397C333.32 181.143 333.178 180.918 333.002 180.723C332.832 180.523 332.619 180.364 332.365 180.247C332.116 180.13 331.821 180.071 331.479 180.071C331.108 180.071 330.788 180.149 330.52 180.306C330.256 180.457 330.039 180.667 329.868 180.936C329.697 181.199 329.57 181.507 329.487 181.858C329.409 182.205 329.37 182.576 329.37 182.972ZM338.283 179.075V187H336.921V179.075H338.283ZM336.818 176.973C336.818 176.753 336.884 176.568 337.016 176.417C337.153 176.265 337.353 176.189 337.617 176.189C337.875 176.189 338.073 176.265 338.21 176.417C338.352 176.568 338.422 176.753 338.422 176.973C338.422 177.183 338.352 177.364 338.21 177.515C338.073 177.662 337.875 177.735 337.617 177.735C337.353 177.735 337.153 177.662 337.016 177.515C336.884 177.364 336.818 177.183 336.818 176.973ZM340.1 183.125V182.957C340.1 182.386 340.183 181.856 340.349 181.368C340.515 180.875 340.754 180.447 341.066 180.086C341.379 179.72 341.757 179.437 342.202 179.236C342.646 179.031 343.144 178.929 343.696 178.929C344.252 178.929 344.753 179.031 345.197 179.236C345.646 179.437 346.027 179.72 346.34 180.086C346.657 180.447 346.899 180.875 347.065 181.368C347.231 181.856 347.314 182.386 347.314 182.957V183.125C347.314 183.697 347.231 184.227 347.065 184.715C346.899 185.203 346.657 185.63 346.34 185.997C346.027 186.358 345.649 186.641 345.205 186.846C344.765 187.046 344.267 187.146 343.71 187.146C343.154 187.146 342.653 187.046 342.209 186.846C341.765 186.641 341.384 186.358 341.066 185.997C340.754 185.63 340.515 185.203 340.349 184.715C340.183 184.227 340.1 183.697 340.1 183.125ZM341.455 182.957V183.125C341.455 183.521 341.501 183.895 341.594 184.246C341.687 184.593 341.826 184.9 342.011 185.169C342.202 185.438 342.438 185.65 342.722 185.806C343.005 185.958 343.334 186.033 343.71 186.033C344.082 186.033 344.406 185.958 344.685 185.806C344.968 185.65 345.202 185.438 345.388 185.169C345.573 184.9 345.712 184.593 345.805 184.246C345.903 183.895 345.952 183.521 345.952 183.125V182.957C345.952 182.566 345.903 182.198 345.805 181.851C345.712 181.5 345.571 181.189 345.38 180.921C345.195 180.647 344.96 180.433 344.677 180.276C344.399 180.12 344.072 180.042 343.696 180.042C343.325 180.042 342.998 180.12 342.714 180.276C342.436 180.433 342.202 180.647 342.011 180.921C341.826 181.189 341.687 181.5 341.594 181.851C341.501 182.198 341.455 182.566 341.455 182.957Z" fill="#505050"/>
</svg>
