<!-- Generated by IcoMoon.io -->
<svg version="1.1" xmlns="http://www.w3.org/2000/svg" width="24" height="24" viewBox="0 0 24 24">
<title>folder-close</title>
<path d="M19.5 5.75h-6.723l-1.922-1.768c-0.469-0.469-1.102-0.732-1.766-0.732h-4.59c-1.381 0-2.5 1.12-2.5 2.5v12.5c0 1.38 1.119 2.5 2.5 2.5h15c1.381 0 2.5-1.119 2.5-2.5v-10c0-1.379-1.121-2.5-2.5-2.5zM4.5 5.125h4.59c0.167 0 0.324 0.065 0.442 0.183l2.468 2.317h7.5c0.345 0 0.625 0.28 0.625 0.625v1.25h-16.25v-3.75c0-0.345 0.28-0.625 0.625-0.625zM19.5 18.875h-15c-0.345 0-0.625-0.28-0.625-0.625v-6.875h16.25v6.875c0 0.344-0.281 0.625-0.625 0.625z"></path>
</svg>
