<!-- Generated by IcoMoon.io -->
<svg version="1.1" xmlns="http://www.w3.org/2000/svg" width="24" height="24" viewBox="0 0 24 24">
<title>globe</title>
<path d="M12 2c5.523 0 10 4.477 10 10s-4.477 10-10 10c-5.523 0-10-4.477-10-10s4.477-10 10-10zM12 20.125c0.289 0 1.020-0.281 1.859-1.891 0.344-0.691 0.605-1.531 0.859-2.484h-5.438c0.219 0.953 0.516 1.793 0.859 2.484 0.805 1.609 1.57 1.891 1.859 1.891zM8.973 13.875h6.055c0.063-0.598 0.098-1.227 0.098-1.875s-0.035-1.277-0.098-1.875h-6.055c-0.063 0.598-0.098 1.227-0.098 1.875s0.035 1.277 0.098 1.875zM14.719 8.25c-0.254-0.953-0.516-1.793-0.859-2.482-0.84-1.611-1.57-1.893-1.859-1.893s-1.055 0.282-1.859 1.893c-0.344 0.689-0.641 1.529-0.859 2.482h5.438zM16.914 10.125c0.055 0.606 0.086 1.234 0.086 1.875s-0.031 1.269-0.086 1.875h2.992c0.145-0.602 0.219-1.23 0.219-1.875s-0.074-1.273-0.219-1.875h-2.992zM15.363 4.602c0.551 1.002 0.988 2.246 1.273 3.648h2.574c-0.836-1.605-2.195-2.895-3.848-3.648zM8.637 4.602c-1.652 0.753-3.010 2.043-3.846 3.648h2.573c0.285-1.402 0.723-2.646 1.273-3.648zM3.875 12c0 0.645 0.075 1.273 0.218 1.875h2.993c-0.055-0.606-0.086-1.234-0.086-1.875s0.031-1.269 0.086-1.875h-2.993c-0.142 0.602-0.218 1.23-0.218 1.875zM19.211 15.75h-2.574c-0.285 1.402-0.723 2.645-1.273 3.648 1.652-0.754 3.012-2.043 3.848-3.648zM7.363 15.75h-2.573c0.836 1.605 2.194 2.895 3.846 3.648-0.551-1.004-0.988-2.246-1.273-3.648z"></path>
</svg>
