<!-- Generated by IcoMoon.io -->
<svg version="1.1" xmlns="http://www.w3.org/2000/svg" width="24" height="24" viewBox="0 0 24 24">
<title>plugin-smush</title>
<path d="M12 2c-5.5 0-10 4.5-10 10s4.5 10 10 10c5.5 0 10-4.5 10-10s-4.5-10-10-10zM12 20c-1.6 0-3-1.4-3-3s1.4-3 3-3c1.6 0 3 1.4 3 3s-1.4 3-3 3zM17.4 15.6c-0.1 0.4-0.2 0.8-0.4 1.2-0.1-1.3-0.6-2.4-1.5-3.3-0.9-1-2.2-1.5-3.5-1.5-1 0-2 0.3-2.8 0.8s-1.5 1.3-1.8 2.2c-0.2 0.6-0.4 1.2-0.4 1.8-0.3-0.7-0.5-1.5-0.5-2.3 0-1.5 0.6-2.9 1.6-3.9s2.4-1.6 3.9-1.6c1.1 0 2.2 0.3 3.1 0.9s1.6 1.5 2 2.5c0.4 1 0.5 2.1 0.3 3.2zM19.4 14.8c0-0.1 0-0.2 0-0.3 0-2-0.8-3.9-2.2-5.3s-3.2-2.2-5.2-2.2c-1.5 0-2.9 0.4-4.2 1.3-1.2 0.8-2.2 2-2.8 3.4-0.4 1-0.6 2.1-0.6 3.2-0.2-1-0.4-1.9-0.4-2.9 0-2.1 0.8-4.2 2.3-5.7s3.6-2.3 5.7-2.3c1.6 0 3.1 0.5 4.4 1.3 1.3 0.9 2.3 2.1 2.9 3.6 0.7 1.5 0.9 3.1 0.5 4.7-0.1 0.4-0.2 0.8-0.4 1.2z"></path>
</svg>
