<!-- Generated by IcoMoon.io -->
<svg version="1.1" xmlns="http://www.w3.org/2000/svg" width="24" height="24" viewBox="0 0 24 24">
<title>power-off</title>
<path d="M13.267 12.518c0 0.53-0.424 0.956-0.95 0.956s-0.95-0.426-0.95-0.956v-9.562c0-0.528 0.423-0.956 0.95-0.956s0.95 0.428 0.95 0.956v9.562zM4.4 12.438c0 4.223 3.369 7.65 7.6 7.65 4.196 0 7.6-3.426 7.6-7.65 0-2.526-1.215-4.769-3.095-6.163-0.424-0.312-0.515-0.911-0.202-1.336 0.309-0.425 0.906-0.516 1.326-0.202 2.347 1.738 3.871 4.543 3.871 7.702 0 5.283-4.255 9.562-9.5 9.562s-9.5-4.279-9.5-9.562c0-3.159 1.525-5.964 3.871-7.702 0.42-0.313 1.017-0.223 1.326 0.202 0.313 0.425 0.222 1.024-0.202 1.336-1.879 1.394-3.131 3.637-3.131 6.163h0.036z"></path>
</svg>
