<!-- Generated by IcoMoon.io -->
<svg version="1.1" xmlns="http://www.w3.org/2000/svg" width="24" height="24" viewBox="0 0 24 24">
<title>tutorials</title>
<path d="M21.412 2.642c-0.374-0.374-0.856-0.588-1.444-0.588h-1.925c-0.588 0-1.069 0.214-1.444 0.588s-0.588 0.856-0.588 1.016v14.385l2.193 3.476c0.16 0.267 0.481 0.428 0.802 0.428s0.588-0.16 0.802-0.428l2.193-3.476v-14.385c0-0.16-0.214-0.642-0.588-1.016zM17.989 4.192c0-0.053 0-0.053 0.054-0.107s0.054-0.053 0.107-0.053h1.711c0.053 0 0.107 0 0.107 0.053 0.054 0.053 0.054 0.053 0.054 0.107v1.818h-1.979v-1.818h-0.054zM19.968 15.476l-0.267-0.267-0.749 0.802-0.749-0.802-0.267 0.267v-7.433h1.979l0.054 7.433zM19.968 17.936l-0.749 1.123h-0.481l-0.749-1.123v-0.695l0.267-0.267 0.749 0.749 0.749-0.749 0.267 0.267v0.695h-0.054z"></path>
<path d="M13.016 6.064h-6.043c-0.535 0-1.016 0.428-1.016 1.016 0 0.535 0.428 1.016 1.016 1.016h5.989c0.535 0 1.016-0.428 1.016-1.016 0-0.535-0.428-1.016-0.963-1.016z"></path>
<path d="M13.979 11.037c0-0.535-0.428-1.016-1.016-1.016h-5.989c-0.535 0-1.016 0.428-1.016 1.016 0 0.535 0.428 1.016 1.016 1.016h5.989c0.588 0 1.016-0.428 1.016-1.016z"></path>
<path d="M6.973 14.032c-0.535 0-1.016 0.428-1.016 1.016 0 0.535 0.428 1.016 1.016 1.016h2.032c0.535 0 1.016-0.428 1.016-1.016 0-0.535-0.428-1.016-1.016-1.016h-2.032z"></path>
<path d="M15.476 20.021h-11.497v-16.043h10.053c0.535 0 1.016-0.428 1.016-1.016s-0.481-0.963-1.016-0.963h-10.481c-0.856 0-1.551 0.695-1.551 1.551v16.898c0 0.856 0.695 1.551 1.551 1.551h11.925c0.535 0 1.016-0.428 1.016-1.016-0.054-0.535-0.481-0.963-1.016-0.963z"></path>
</svg>
