<svg width="1280" height="712" viewBox="0 0 1280 712" fill="none" xmlns="http://www.w3.org/2000/svg">
<g clip-path="url(#clip0_9421_50570)">
<rect width="1280" height="712" rx="16" fill="#F8F8F8"/>
<g clip-path="url(#clip1_9421_50570)">
<rect width="836" height="76" transform="translate(412 120)" fill="white"/>
<rect x="444" y="152" width="192" height="12" rx="6" fill="#E6E6E6"/>
<rect x="798" y="252" width="64" height="64" rx="32" fill="#E6E6E6"/>
<rect x="819" y="272" width="22" height="24" rx="2" stroke="#505050" stroke-width="2" stroke-linejoin="round"/>
<rect x="823" y="284" width="14" height="4" stroke="#505050" stroke-width="2" stroke-linejoin="round"/>
<path d="M823 292H828" stroke="#505050" stroke-width="2" stroke-linecap="round"/>
<path d="M823 280H837" stroke="#505050" stroke-width="2" stroke-linecap="round"/>
<path d="M823 276H837" stroke="#505050" stroke-width="2" stroke-linecap="round"/>
<path d="M729.131 338.336V349H727.292L722.51 341.361V349H720.671V338.336H722.51L727.307 345.99V338.336H729.131ZM730.808 345.125V344.957C730.808 344.386 730.891 343.856 731.057 343.368C731.223 342.875 731.462 342.447 731.775 342.086C732.092 341.72 732.478 341.437 732.932 341.236C733.391 341.031 733.909 340.929 734.485 340.929C735.066 340.929 735.583 341.031 736.038 341.236C736.497 341.437 736.885 341.72 737.202 342.086C737.52 342.447 737.761 342.875 737.927 343.368C738.093 343.856 738.176 344.386 738.176 344.957V345.125C738.176 345.697 738.093 346.227 737.927 346.715C737.761 347.203 737.52 347.63 737.202 347.997C736.885 348.358 736.499 348.641 736.045 348.846C735.591 349.046 735.076 349.146 734.5 349.146C733.918 349.146 733.398 349.046 732.939 348.846C732.485 348.641 732.1 348.358 731.782 347.997C731.465 347.63 731.223 347.203 731.057 346.715C730.891 346.227 730.808 345.697 730.808 345.125ZM732.573 344.957V345.125C732.573 345.482 732.61 345.819 732.683 346.136C732.756 346.454 732.871 346.732 733.027 346.971C733.184 347.21 733.384 347.398 733.628 347.535C733.872 347.672 734.163 347.74 734.5 347.74C734.827 347.74 735.11 347.672 735.349 347.535C735.593 347.398 735.793 347.21 735.95 346.971C736.106 346.732 736.221 346.454 736.294 346.136C736.372 345.819 736.411 345.482 736.411 345.125V344.957C736.411 344.605 736.372 344.273 736.294 343.961C736.221 343.644 736.104 343.363 735.942 343.119C735.786 342.875 735.586 342.684 735.342 342.547C735.103 342.406 734.817 342.335 734.485 342.335C734.153 342.335 733.865 342.406 733.621 342.547C733.381 342.684 733.184 342.875 733.027 343.119C732.871 343.363 732.756 343.644 732.683 343.961C732.61 344.273 732.573 344.605 732.573 344.957ZM745.779 349H744.014V340.313C744.014 339.723 744.124 339.227 744.343 338.827C744.568 338.421 744.888 338.116 745.303 337.911C745.718 337.701 746.208 337.596 746.775 337.596C746.951 337.596 747.124 337.608 747.295 337.633C747.466 337.652 747.632 337.684 747.793 337.728L747.749 339.09C747.651 339.066 747.544 339.049 747.427 339.039C747.314 339.029 747.192 339.024 747.061 339.024C746.792 339.024 746.56 339.076 746.365 339.178C746.174 339.276 746.028 339.42 745.925 339.61C745.828 339.801 745.779 340.035 745.779 340.313V349ZM747.412 341.075V342.364H742.798V341.075H747.412ZM750.583 341.075V349H748.811V341.075H750.583ZM748.694 338.995C748.694 338.727 748.782 338.504 748.958 338.329C749.138 338.148 749.387 338.058 749.705 338.058C750.017 338.058 750.264 338.148 750.444 338.329C750.625 338.504 750.715 338.727 750.715 338.995C750.715 339.259 750.625 339.479 750.444 339.654C750.264 339.83 750.017 339.918 749.705 339.918C749.387 339.918 749.138 339.83 748.958 339.654C748.782 339.479 748.694 339.259 748.694 338.995ZM756.011 349.146C755.425 349.146 754.895 349.051 754.421 348.861C753.953 348.666 753.552 348.395 753.22 348.048C752.893 347.701 752.642 347.293 752.466 346.825C752.29 346.356 752.202 345.851 752.202 345.309V345.016C752.202 344.396 752.292 343.834 752.473 343.331C752.654 342.828 752.905 342.398 753.228 342.042C753.55 341.681 753.931 341.405 754.37 341.214C754.81 341.024 755.286 340.929 755.798 340.929C756.365 340.929 756.86 341.024 757.285 341.214C757.71 341.405 758.062 341.673 758.34 342.02C758.623 342.362 758.833 342.77 758.97 343.243C759.111 343.717 759.182 344.239 759.182 344.811V345.565H753.059V344.298H757.439V344.159C757.429 343.841 757.366 343.543 757.249 343.265C757.136 342.987 756.963 342.762 756.729 342.591C756.494 342.42 756.182 342.335 755.791 342.335C755.498 342.335 755.237 342.398 755.007 342.525C754.783 342.647 754.595 342.826 754.443 343.06C754.292 343.294 754.175 343.578 754.092 343.91C754.014 344.237 753.975 344.605 753.975 345.016V345.309C753.975 345.655 754.021 345.978 754.114 346.275C754.211 346.568 754.353 346.825 754.539 347.044C754.724 347.264 754.949 347.438 755.212 347.564C755.476 347.687 755.776 347.748 756.113 347.748C756.538 347.748 756.917 347.662 757.249 347.491C757.581 347.32 757.869 347.079 758.113 346.766L759.043 347.667C758.872 347.916 758.65 348.155 758.376 348.385C758.103 348.609 757.769 348.792 757.373 348.934C756.982 349.076 756.528 349.146 756.011 349.146ZM762.449 337.75V349H760.676V337.75H762.449ZM769.216 347.359V337.75H770.989V349H769.385L769.216 347.359ZM764.06 345.125V344.972C764.06 344.371 764.131 343.824 764.272 343.331C764.414 342.833 764.619 342.406 764.888 342.049C765.156 341.688 765.483 341.412 765.869 341.222C766.255 341.026 766.689 340.929 767.173 340.929C767.651 340.929 768.071 341.021 768.433 341.207C768.794 341.393 769.102 341.659 769.355 342.005C769.609 342.347 769.812 342.757 769.963 343.236C770.115 343.709 770.222 344.237 770.286 344.818V345.309C770.222 345.875 770.115 346.393 769.963 346.861C769.812 347.33 769.609 347.735 769.355 348.077C769.102 348.419 768.792 348.683 768.425 348.868C768.064 349.054 767.642 349.146 767.158 349.146C766.68 349.146 766.248 349.046 765.862 348.846C765.481 348.646 765.156 348.365 764.888 348.004C764.619 347.643 764.414 347.218 764.272 346.729C764.131 346.236 764.06 345.702 764.06 345.125ZM765.825 344.972V345.125C765.825 345.487 765.857 345.824 765.92 346.136C765.989 346.449 766.094 346.725 766.235 346.964C766.377 347.198 766.56 347.384 766.785 347.521C767.014 347.652 767.288 347.718 767.605 347.718C768.005 347.718 768.335 347.63 768.594 347.455C768.853 347.279 769.055 347.042 769.202 346.744C769.353 346.441 769.456 346.104 769.509 345.733V344.408C769.48 344.12 769.419 343.851 769.326 343.602C769.238 343.353 769.119 343.136 768.967 342.95C768.816 342.76 768.628 342.613 768.403 342.511C768.184 342.403 767.922 342.35 767.62 342.35C767.297 342.35 767.024 342.418 766.799 342.555C766.575 342.691 766.389 342.879 766.243 343.119C766.101 343.358 765.996 343.636 765.928 343.954C765.859 344.271 765.825 344.61 765.825 344.972ZM777.28 346.854C777.28 346.678 777.236 346.52 777.148 346.378C777.061 346.231 776.892 346.1 776.643 345.982C776.399 345.865 776.038 345.758 775.559 345.66C775.139 345.567 774.753 345.458 774.402 345.331C774.055 345.199 773.757 345.04 773.508 344.854C773.259 344.669 773.066 344.449 772.93 344.195C772.793 343.941 772.725 343.648 772.725 343.316C772.725 342.994 772.795 342.689 772.937 342.401C773.079 342.113 773.281 341.859 773.545 341.639C773.809 341.419 774.128 341.246 774.504 341.119C774.885 340.992 775.31 340.929 775.779 340.929C776.443 340.929 777.012 341.041 777.485 341.266C777.964 341.485 778.33 341.786 778.584 342.167C778.838 342.542 778.965 342.967 778.965 343.441H777.2C777.2 343.231 777.146 343.036 777.039 342.855C776.936 342.669 776.78 342.521 776.57 342.408C776.36 342.291 776.096 342.232 775.779 342.232C775.476 342.232 775.225 342.281 775.024 342.379C774.829 342.472 774.683 342.594 774.585 342.745C774.492 342.896 774.446 343.062 774.446 343.243C774.446 343.375 774.47 343.495 774.519 343.602C774.573 343.705 774.661 343.8 774.783 343.888C774.905 343.971 775.071 344.049 775.281 344.122C775.496 344.195 775.764 344.266 776.086 344.334C776.692 344.461 777.212 344.625 777.646 344.825C778.086 345.021 778.423 345.274 778.657 345.587C778.892 345.895 779.009 346.285 779.009 346.759C779.009 347.11 778.933 347.433 778.782 347.726C778.635 348.014 778.42 348.265 778.137 348.48C777.854 348.69 777.515 348.854 777.119 348.971C776.729 349.088 776.289 349.146 775.801 349.146C775.083 349.146 774.475 349.02 773.977 348.766C773.479 348.507 773.101 348.177 772.842 347.777C772.588 347.372 772.461 346.952 772.461 346.517H774.167C774.187 346.844 774.277 347.105 774.438 347.301C774.604 347.491 774.81 347.63 775.054 347.718C775.303 347.801 775.559 347.843 775.823 347.843C776.14 347.843 776.406 347.801 776.621 347.718C776.836 347.63 777 347.513 777.112 347.367C777.224 347.215 777.28 347.044 777.28 346.854ZM788.757 347.411V343.631C788.757 343.348 788.706 343.104 788.604 342.899C788.501 342.694 788.345 342.535 788.135 342.423C787.93 342.311 787.671 342.254 787.358 342.254C787.07 342.254 786.821 342.303 786.611 342.401C786.401 342.499 786.238 342.63 786.121 342.796C786.003 342.962 785.945 343.15 785.945 343.36H784.187C784.187 343.048 784.263 342.745 784.414 342.452C784.565 342.159 784.785 341.898 785.073 341.668C785.361 341.439 785.706 341.258 786.106 341.126C786.506 340.995 786.956 340.929 787.454 340.929C788.049 340.929 788.577 341.029 789.036 341.229C789.5 341.429 789.863 341.732 790.127 342.137C790.396 342.538 790.53 343.041 790.53 343.646V347.169C790.53 347.53 790.554 347.855 790.603 348.143C790.657 348.426 790.732 348.673 790.83 348.883V349H789.021C788.938 348.81 788.872 348.568 788.823 348.275C788.779 347.977 788.757 347.689 788.757 347.411ZM789.014 344.181L789.028 345.272H787.761C787.434 345.272 787.146 345.304 786.897 345.367C786.648 345.426 786.44 345.514 786.274 345.631C786.108 345.748 785.984 345.89 785.901 346.056C785.818 346.222 785.776 346.41 785.776 346.62C785.776 346.83 785.825 347.022 785.923 347.198C786.021 347.369 786.162 347.503 786.348 347.601C786.538 347.699 786.768 347.748 787.036 347.748C787.397 347.748 787.712 347.674 787.981 347.528C788.254 347.376 788.469 347.193 788.625 346.979C788.782 346.759 788.865 346.551 788.875 346.356L789.446 347.14C789.387 347.34 789.287 347.555 789.146 347.784C789.004 348.014 788.818 348.233 788.589 348.443C788.364 348.648 788.093 348.817 787.776 348.949C787.463 349.081 787.102 349.146 786.692 349.146C786.174 349.146 785.713 349.044 785.308 348.839C784.902 348.629 784.585 348.348 784.355 347.997C784.126 347.64 784.011 347.237 784.011 346.788C784.011 346.368 784.089 345.997 784.246 345.675C784.407 345.348 784.641 345.074 784.949 344.854C785.261 344.635 785.642 344.469 786.091 344.356C786.541 344.239 787.053 344.181 787.629 344.181H789.014ZM797.209 347.359V337.75H798.982V349H797.378L797.209 347.359ZM792.053 345.125V344.972C792.053 344.371 792.124 343.824 792.266 343.331C792.407 342.833 792.612 342.406 792.881 342.049C793.149 341.688 793.477 341.412 793.862 341.222C794.248 341.026 794.683 340.929 795.166 340.929C795.645 340.929 796.064 341.021 796.426 341.207C796.787 341.393 797.095 341.659 797.349 342.005C797.603 342.347 797.805 342.757 797.957 343.236C798.108 343.709 798.215 344.237 798.279 344.818V345.309C798.215 345.875 798.108 346.393 797.957 346.861C797.805 347.33 797.603 347.735 797.349 348.077C797.095 348.419 796.785 348.683 796.418 348.868C796.057 349.054 795.635 349.146 795.151 349.146C794.673 349.146 794.241 349.046 793.855 348.846C793.474 348.646 793.149 348.365 792.881 348.004C792.612 347.643 792.407 347.218 792.266 346.729C792.124 346.236 792.053 345.702 792.053 345.125ZM793.818 344.972V345.125C793.818 345.487 793.85 345.824 793.914 346.136C793.982 346.449 794.087 346.725 794.229 346.964C794.37 347.198 794.553 347.384 794.778 347.521C795.007 347.652 795.281 347.718 795.598 347.718C795.999 347.718 796.328 347.63 796.587 347.455C796.846 347.279 797.048 347.042 797.195 346.744C797.346 346.441 797.449 346.104 797.502 345.733V344.408C797.473 344.12 797.412 343.851 797.319 343.602C797.231 343.353 797.112 343.136 796.96 342.95C796.809 342.76 796.621 342.613 796.396 342.511C796.177 342.403 795.916 342.35 795.613 342.35C795.291 342.35 795.017 342.418 794.792 342.555C794.568 342.691 794.382 342.879 794.236 343.119C794.094 343.358 793.989 343.636 793.921 343.954C793.853 344.271 793.818 344.61 793.818 344.972ZM805.662 347.359V337.75H807.434V349H805.83L805.662 347.359ZM800.505 345.125V344.972C800.505 344.371 800.576 343.824 800.718 343.331C800.859 342.833 801.064 342.406 801.333 342.049C801.602 341.688 801.929 341.412 802.314 341.222C802.7 341.026 803.135 340.929 803.618 340.929C804.097 340.929 804.517 341.021 804.878 341.207C805.239 341.393 805.547 341.659 805.801 342.005C806.055 342.347 806.257 342.757 806.409 343.236C806.56 343.709 806.667 344.237 806.731 344.818V345.309C806.667 345.875 806.56 346.393 806.409 346.861C806.257 347.33 806.055 347.735 805.801 348.077C805.547 348.419 805.237 348.683 804.871 348.868C804.509 349.054 804.087 349.146 803.604 349.146C803.125 349.146 802.693 349.046 802.307 348.846C801.926 348.646 801.602 348.365 801.333 348.004C801.064 347.643 800.859 347.218 800.718 346.729C800.576 346.236 800.505 345.702 800.505 345.125ZM802.271 344.972V345.125C802.271 345.487 802.302 345.824 802.366 346.136C802.434 346.449 802.539 346.725 802.681 346.964C802.822 347.198 803.005 347.384 803.23 347.521C803.459 347.652 803.733 347.718 804.05 347.718C804.451 347.718 804.78 347.63 805.039 347.455C805.298 347.279 805.5 347.042 805.647 346.744C805.798 346.441 805.901 346.104 805.955 345.733V344.408C805.925 344.12 805.864 343.851 805.771 343.602C805.684 343.353 805.564 343.136 805.413 342.95C805.261 342.76 805.073 342.613 804.849 342.511C804.629 342.403 804.368 342.35 804.065 342.35C803.743 342.35 803.469 342.418 803.245 342.555C803.02 342.691 802.834 342.879 802.688 343.119C802.546 343.358 802.441 343.636 802.373 343.954C802.305 344.271 802.271 344.61 802.271 344.972ZM812.773 349.146C812.188 349.146 811.658 349.051 811.184 348.861C810.715 348.666 810.315 348.395 809.983 348.048C809.656 347.701 809.404 347.293 809.229 346.825C809.053 346.356 808.965 345.851 808.965 345.309V345.016C808.965 344.396 809.055 343.834 809.236 343.331C809.417 342.828 809.668 342.398 809.99 342.042C810.312 341.681 810.693 341.405 811.133 341.214C811.572 341.024 812.048 340.929 812.561 340.929C813.127 340.929 813.623 341.024 814.048 341.214C814.473 341.405 814.824 341.673 815.103 342.02C815.386 342.362 815.596 342.77 815.732 343.243C815.874 343.717 815.945 344.239 815.945 344.811V345.565H809.822V344.298H814.202V344.159C814.192 343.841 814.128 343.543 814.011 343.265C813.899 342.987 813.726 342.762 813.491 342.591C813.257 342.42 812.944 342.335 812.554 342.335C812.261 342.335 812 342.398 811.77 342.525C811.545 342.647 811.357 342.826 811.206 343.06C811.055 343.294 810.938 343.578 810.854 343.91C810.776 344.237 810.737 344.605 810.737 345.016V345.309C810.737 345.655 810.784 345.978 810.876 346.275C810.974 346.568 811.116 346.825 811.301 347.044C811.487 347.264 811.711 347.438 811.975 347.564C812.239 347.687 812.539 347.748 812.876 347.748C813.301 347.748 813.679 347.662 814.011 347.491C814.343 347.32 814.631 347.079 814.875 346.766L815.806 347.667C815.635 347.916 815.413 348.155 815.139 348.385C814.866 348.609 814.531 348.792 814.136 348.934C813.745 349.076 813.291 349.146 812.773 349.146ZM822.156 347.359V337.75H823.928V349H822.324L822.156 347.359ZM817 345.125V344.972C817 344.371 817.07 343.824 817.212 343.331C817.354 342.833 817.559 342.406 817.827 342.049C818.096 341.688 818.423 341.412 818.809 341.222C819.194 341.026 819.629 340.929 820.112 340.929C820.591 340.929 821.011 341.021 821.372 341.207C821.733 341.393 822.041 341.659 822.295 342.005C822.549 342.347 822.751 342.757 822.903 343.236C823.054 343.709 823.162 344.237 823.225 344.818V345.309C823.162 345.875 823.054 346.393 822.903 346.861C822.751 347.33 822.549 347.735 822.295 348.077C822.041 348.419 821.731 348.683 821.365 348.868C821.003 349.054 820.581 349.146 820.098 349.146C819.619 349.146 819.187 349.046 818.801 348.846C818.42 348.646 818.096 348.365 817.827 348.004C817.559 347.643 817.354 347.218 817.212 346.729C817.07 346.236 817 345.702 817 345.125ZM818.765 344.972V345.125C818.765 345.487 818.796 345.824 818.86 346.136C818.928 346.449 819.033 346.725 819.175 346.964C819.316 347.198 819.5 347.384 819.724 347.521C819.954 347.652 820.227 347.718 820.544 347.718C820.945 347.718 821.274 347.63 821.533 347.455C821.792 347.279 821.995 347.042 822.141 346.744C822.292 346.441 822.395 346.104 822.449 345.733V344.408C822.419 344.12 822.358 343.851 822.266 343.602C822.178 343.353 822.058 343.136 821.907 342.95C821.755 342.76 821.567 342.613 821.343 342.511C821.123 342.403 820.862 342.35 820.559 342.35C820.237 342.35 819.963 342.418 819.739 342.555C819.514 342.691 819.329 342.879 819.182 343.119C819.041 343.358 818.936 343.636 818.867 343.954C818.799 344.271 818.765 344.61 818.765 344.972ZM825.847 348.121C825.847 347.848 825.94 347.618 826.125 347.433C826.311 347.242 826.562 347.147 826.88 347.147C827.202 347.147 827.454 347.242 827.634 347.433C827.82 347.618 827.913 347.848 827.913 348.121C827.913 348.395 827.82 348.624 827.634 348.81C827.454 348.995 827.202 349.088 826.88 349.088C826.562 349.088 826.311 348.995 826.125 348.81C825.94 348.624 825.847 348.395 825.847 348.121ZM835.823 338.336V349H833.984V338.336H835.823ZM839.683 342.767V349H837.917V341.075H839.58L839.683 342.767ZM839.368 344.745L838.796 344.737C838.801 344.176 838.879 343.661 839.031 343.192C839.187 342.723 839.402 342.32 839.675 341.983C839.954 341.646 840.286 341.388 840.671 341.207C841.057 341.021 841.487 340.929 841.96 340.929C842.341 340.929 842.686 340.982 842.993 341.09C843.306 341.192 843.572 341.361 843.792 341.595C844.016 341.83 844.187 342.135 844.304 342.511C844.421 342.882 844.48 343.338 844.48 343.88V349H842.708V343.873C842.708 343.492 842.651 343.192 842.539 342.972C842.432 342.748 842.273 342.589 842.063 342.496C841.858 342.398 841.602 342.35 841.294 342.35C840.991 342.35 840.72 342.413 840.481 342.54C840.242 342.667 840.039 342.84 839.873 343.06C839.712 343.28 839.587 343.534 839.5 343.822C839.412 344.11 839.368 344.417 839.368 344.745ZM850.728 346.854C850.728 346.678 850.684 346.52 850.596 346.378C850.508 346.231 850.339 346.1 850.09 345.982C849.846 345.865 849.485 345.758 849.006 345.66C848.586 345.567 848.201 345.458 847.849 345.331C847.502 345.199 847.205 345.04 846.956 344.854C846.707 344.669 846.514 344.449 846.377 344.195C846.24 343.941 846.172 343.648 846.172 343.316C846.172 342.994 846.243 342.689 846.384 342.401C846.526 342.113 846.729 341.859 846.992 341.639C847.256 341.419 847.576 341.246 847.952 341.119C848.333 340.992 848.757 340.929 849.226 340.929C849.89 340.929 850.459 341.041 850.933 341.266C851.411 341.485 851.777 341.786 852.031 342.167C852.285 342.542 852.412 342.967 852.412 343.441H850.647C850.647 343.231 850.593 343.036 850.486 342.855C850.383 342.669 850.227 342.521 850.017 342.408C849.807 342.291 849.543 342.232 849.226 342.232C848.923 342.232 848.672 342.281 848.472 342.379C848.276 342.472 848.13 342.594 848.032 342.745C847.939 342.896 847.893 343.062 847.893 343.243C847.893 343.375 847.917 343.495 847.966 343.602C848.02 343.705 848.108 343.8 848.23 343.888C848.352 343.971 848.518 344.049 848.728 344.122C848.943 344.195 849.211 344.266 849.534 344.334C850.139 344.461 850.659 344.625 851.094 344.825C851.533 345.021 851.87 345.274 852.104 345.587C852.339 345.895 852.456 346.285 852.456 346.759C852.456 347.11 852.38 347.433 852.229 347.726C852.083 348.014 851.868 348.265 851.584 348.48C851.301 348.69 850.962 348.854 850.566 348.971C850.176 349.088 849.736 349.146 849.248 349.146C848.53 349.146 847.922 349.02 847.424 348.766C846.926 348.507 846.548 348.177 846.289 347.777C846.035 347.372 845.908 346.952 845.908 346.517H847.615C847.634 346.844 847.725 347.105 847.886 347.301C848.052 347.491 848.257 347.63 848.501 347.718C848.75 347.801 849.006 347.843 849.27 347.843C849.587 347.843 849.854 347.801 850.068 347.718C850.283 347.63 850.447 347.513 850.559 347.367C850.671 347.215 850.728 347.044 850.728 346.854ZM857.495 349.146C856.909 349.146 856.379 349.051 855.906 348.861C855.437 348.666 855.037 348.395 854.705 348.048C854.377 347.701 854.126 347.293 853.95 346.825C853.774 346.356 853.687 345.851 853.687 345.309V345.016C853.687 344.396 853.777 343.834 853.958 343.331C854.138 342.828 854.39 342.398 854.712 342.042C855.034 341.681 855.415 341.405 855.854 341.214C856.294 341.024 856.77 340.929 857.283 340.929C857.849 340.929 858.345 341.024 858.77 341.214C859.194 341.405 859.546 341.673 859.824 342.02C860.107 342.362 860.317 342.77 860.454 343.243C860.596 343.717 860.667 344.239 860.667 344.811V345.565H854.543V344.298H858.923V344.159C858.914 343.841 858.85 343.543 858.733 343.265C858.621 342.987 858.447 342.762 858.213 342.591C857.979 342.42 857.666 342.335 857.275 342.335C856.982 342.335 856.721 342.398 856.492 342.525C856.267 342.647 856.079 342.826 855.928 343.06C855.776 343.294 855.659 343.578 855.576 343.91C855.498 344.237 855.459 344.605 855.459 345.016V345.309C855.459 345.655 855.505 345.978 855.598 346.275C855.696 346.568 855.837 346.825 856.023 347.044C856.208 347.264 856.433 347.438 856.697 347.564C856.96 347.687 857.261 347.748 857.598 347.748C858.022 347.748 858.401 347.662 858.733 347.491C859.065 347.32 859.353 347.079 859.597 346.766L860.527 347.667C860.356 347.916 860.134 348.155 859.861 348.385C859.587 348.609 859.253 348.792 858.857 348.934C858.467 349.076 858.013 349.146 857.495 349.146ZM863.816 342.584V349H862.051V341.075H863.735L863.816 342.584ZM866.24 341.024L866.226 342.665C866.118 342.645 866.001 342.63 865.874 342.621C865.752 342.611 865.63 342.606 865.508 342.606C865.205 342.606 864.939 342.65 864.709 342.738C864.48 342.821 864.287 342.943 864.131 343.104C863.979 343.26 863.862 343.451 863.779 343.675C863.696 343.9 863.647 344.151 863.633 344.43L863.23 344.459C863.23 343.961 863.279 343.5 863.376 343.075C863.474 342.65 863.621 342.276 863.816 341.954C864.016 341.632 864.265 341.38 864.563 341.2C864.866 341.019 865.215 340.929 865.61 340.929C865.718 340.929 865.833 340.938 865.955 340.958C866.082 340.978 866.177 341 866.24 341.024ZM871.345 341.075V342.364H866.877V341.075H871.345ZM868.167 339.134H869.932V346.81C869.932 347.054 869.966 347.242 870.034 347.374C870.107 347.501 870.208 347.586 870.334 347.63C870.461 347.674 870.61 347.696 870.781 347.696C870.903 347.696 871.021 347.689 871.133 347.674C871.245 347.66 871.335 347.645 871.404 347.63L871.411 348.978C871.265 349.022 871.094 349.061 870.898 349.095C870.708 349.129 870.488 349.146 870.239 349.146C869.834 349.146 869.475 349.076 869.163 348.934C868.85 348.788 868.606 348.551 868.43 348.224C868.254 347.896 868.167 347.462 868.167 346.92V339.134ZM878.193 342.767V349H876.428V341.075H878.091L878.193 342.767ZM877.878 344.745L877.307 344.737C877.312 344.176 877.39 343.661 877.542 343.192C877.698 342.723 877.913 342.32 878.186 341.983C878.464 341.646 878.796 341.388 879.182 341.207C879.568 341.021 879.998 340.929 880.471 340.929C880.852 340.929 881.196 340.982 881.504 341.09C881.816 341.192 882.083 341.361 882.302 341.595C882.527 341.83 882.698 342.135 882.815 342.511C882.932 342.882 882.991 343.338 882.991 343.88V349H881.218V343.873C881.218 343.492 881.162 343.192 881.05 342.972C880.942 342.748 880.784 342.589 880.574 342.496C880.369 342.398 880.112 342.35 879.805 342.35C879.502 342.35 879.231 342.413 878.992 342.54C878.752 342.667 878.55 342.84 878.384 343.06C878.223 343.28 878.098 343.534 878.01 343.822C877.922 344.11 877.878 344.417 877.878 344.745ZM888.286 349.146C887.7 349.146 887.17 349.051 886.697 348.861C886.228 348.666 885.828 348.395 885.496 348.048C885.168 347.701 884.917 347.293 884.741 346.825C884.565 346.356 884.478 345.851 884.478 345.309V345.016C884.478 344.396 884.568 343.834 884.749 343.331C884.929 342.828 885.181 342.398 885.503 342.042C885.825 341.681 886.206 341.405 886.646 341.214C887.085 341.024 887.561 340.929 888.074 340.929C888.64 340.929 889.136 341.024 889.561 341.214C889.985 341.405 890.337 341.673 890.615 342.02C890.898 342.362 891.108 342.77 891.245 343.243C891.387 343.717 891.458 344.239 891.458 344.811V345.565H885.334V344.298H889.714V344.159C889.705 343.841 889.641 343.543 889.524 343.265C889.412 342.987 889.238 342.762 889.004 342.591C888.77 342.42 888.457 342.335 888.066 342.335C887.773 342.335 887.512 342.398 887.283 342.525C887.058 342.647 886.87 342.826 886.719 343.06C886.567 343.294 886.45 343.578 886.367 343.91C886.289 344.237 886.25 344.605 886.25 345.016V345.309C886.25 345.655 886.296 345.978 886.389 346.275C886.487 346.568 886.628 346.825 886.814 347.044C887 347.264 887.224 347.438 887.488 347.564C887.751 347.687 888.052 347.748 888.389 347.748C888.813 347.748 889.192 347.662 889.524 347.491C889.856 347.32 890.144 347.079 890.388 346.766L891.318 347.667C891.147 347.916 890.925 348.155 890.652 348.385C890.378 348.609 890.044 348.792 889.648 348.934C889.258 349.076 888.804 349.146 888.286 349.146ZM894.988 347.242L896.819 341.075H897.947L897.639 342.921L895.793 349H894.783L894.988 347.242ZM893.911 341.075L895.339 347.271L895.457 349H894.329L892.183 341.075H893.911ZM899.661 347.198L901.045 341.075H902.766L900.627 349H899.5L899.661 347.198ZM898.137 341.075L899.946 347.169L900.173 349H899.163L897.295 342.914L896.987 341.075H898.137ZM910.09 349H908.325V340.313C908.325 339.723 908.435 339.227 908.655 338.827C908.879 338.421 909.199 338.116 909.614 337.911C910.029 337.701 910.52 337.596 911.086 337.596C911.262 337.596 911.436 337.608 911.606 337.633C911.777 337.652 911.943 337.684 912.104 337.728L912.061 339.09C911.963 339.066 911.855 339.049 911.738 339.039C911.626 339.029 911.504 339.024 911.372 339.024C911.104 339.024 910.872 339.076 910.676 339.178C910.486 339.276 910.339 339.42 910.237 339.61C910.139 339.801 910.09 340.035 910.09 340.313V349ZM911.724 341.075V342.364H907.109V341.075H911.724ZM914.895 341.075V349H913.123V341.075H914.895ZM913.005 338.995C913.005 338.727 913.093 338.504 913.269 338.329C913.45 338.148 913.699 338.058 914.016 338.058C914.329 338.058 914.575 338.148 914.756 338.329C914.937 338.504 915.027 338.727 915.027 338.995C915.027 339.259 914.937 339.479 914.756 339.654C914.575 339.83 914.329 339.918 914.016 339.918C913.699 339.918 913.45 339.83 913.269 339.654C913.093 339.479 913.005 339.259 913.005 338.995ZM920.322 349.146C919.736 349.146 919.207 349.051 918.733 348.861C918.264 348.666 917.864 348.395 917.532 348.048C917.205 347.701 916.953 347.293 916.777 346.825C916.602 346.356 916.514 345.851 916.514 345.309V345.016C916.514 344.396 916.604 343.834 916.785 343.331C916.965 342.828 917.217 342.398 917.539 342.042C917.861 341.681 918.242 341.405 918.682 341.214C919.121 341.024 919.597 340.929 920.11 340.929C920.676 340.929 921.172 341.024 921.597 341.214C922.021 341.405 922.373 341.673 922.651 342.02C922.935 342.362 923.145 342.77 923.281 343.243C923.423 343.717 923.494 344.239 923.494 344.811V345.565H917.371V344.298H921.75V344.159C921.741 343.841 921.677 343.543 921.56 343.265C921.448 342.987 921.274 342.762 921.04 342.591C920.806 342.42 920.493 342.335 920.103 342.335C919.81 342.335 919.548 342.398 919.319 342.525C919.094 342.647 918.906 342.826 918.755 343.06C918.604 343.294 918.486 343.578 918.403 343.91C918.325 344.237 918.286 344.605 918.286 345.016V345.309C918.286 345.655 918.333 345.978 918.425 346.275C918.523 346.568 918.665 346.825 918.85 347.044C919.036 347.264 919.26 347.438 919.524 347.564C919.788 347.687 920.088 347.748 920.425 347.748C920.85 347.748 921.228 347.662 921.56 347.491C921.892 347.32 922.18 347.079 922.424 346.766L923.354 347.667C923.184 347.916 922.961 348.155 922.688 348.385C922.415 348.609 922.08 348.792 921.685 348.934C921.294 349.076 920.84 349.146 920.322 349.146ZM926.76 337.75V349H924.988V337.75H926.76ZM933.528 347.359V337.75H935.3V349H933.696L933.528 347.359ZM928.372 345.125V344.972C928.372 344.371 928.442 343.824 928.584 343.331C928.726 342.833 928.931 342.406 929.199 342.049C929.468 341.688 929.795 341.412 930.181 341.222C930.566 341.026 931.001 340.929 931.484 340.929C931.963 340.929 932.383 341.021 932.744 341.207C933.105 341.393 933.413 341.659 933.667 342.005C933.921 342.347 934.124 342.757 934.275 343.236C934.426 343.709 934.534 344.237 934.597 344.818V345.309C934.534 345.875 934.426 346.393 934.275 346.861C934.124 347.33 933.921 347.735 933.667 348.077C933.413 348.419 933.103 348.683 932.737 348.868C932.375 349.054 931.953 349.146 931.47 349.146C930.991 349.146 930.559 349.046 930.173 348.846C929.792 348.646 929.468 348.365 929.199 348.004C928.931 347.643 928.726 347.218 928.584 346.729C928.442 346.236 928.372 345.702 928.372 345.125ZM930.137 344.972V345.125C930.137 345.487 930.168 345.824 930.232 346.136C930.3 346.449 930.405 346.725 930.547 346.964C930.688 347.198 930.872 347.384 931.096 347.521C931.326 347.652 931.599 347.718 931.917 347.718C932.317 347.718 932.646 347.63 932.905 347.455C933.164 347.279 933.367 347.042 933.513 346.744C933.665 346.441 933.767 346.104 933.821 345.733V344.408C933.792 344.12 933.73 343.851 933.638 343.602C933.55 343.353 933.43 343.136 933.279 342.95C933.127 342.76 932.939 342.613 932.715 342.511C932.495 342.403 932.234 342.35 931.931 342.35C931.609 342.35 931.335 342.418 931.111 342.555C930.886 342.691 930.701 342.879 930.554 343.119C930.413 343.358 930.308 343.636 930.239 343.954C930.171 344.271 930.137 344.61 930.137 344.972ZM937.219 348.121C937.219 347.848 937.312 347.618 937.498 347.433C937.683 347.242 937.935 347.147 938.252 347.147C938.574 347.147 938.826 347.242 939.006 347.433C939.192 347.618 939.285 347.848 939.285 348.121C939.285 348.395 939.192 348.624 939.006 348.81C938.826 348.995 938.574 349.088 938.252 349.088C937.935 349.088 937.683 348.995 937.498 348.81C937.312 348.624 937.219 348.395 937.219 348.121Z" fill="#737373"/>
<rect x="445" y="397" width="770" height="70" rx="7" fill="#1A1A1A" fill-opacity="0.01"/>
<path d="M788 432C788 432.51 787.587 432.923 787.077 432.923H782.923V437.077C782.923 437.588 782.51 438 782 438C781.49 438 781.077 437.588 781.077 437.077V432.923H776.923C776.413 432.923 776 432.51 776 432C776 431.49 776.413 431.077 776.923 431.077H781.077V426.923C781.077 426.413 781.49 426 782 426C782.51 426 782.923 426.413 782.923 426.923V431.077H787.077C787.588 431.077 788 431.489 788 432Z" fill="#505050"/>
<path d="M801.047 426.336V437H799.208V426.336H801.047ZM804.907 430.767V437H803.142V429.075H804.804L804.907 430.767ZM804.592 432.745L804.021 432.737C804.025 432.176 804.104 431.661 804.255 431.192C804.411 430.723 804.626 430.32 804.899 429.983C805.178 429.646 805.51 429.388 805.896 429.207C806.281 429.021 806.711 428.929 807.185 428.929C807.565 428.929 807.91 428.982 808.217 429.09C808.53 429.192 808.796 429.361 809.016 429.595C809.24 429.83 809.411 430.135 809.528 430.511C809.646 430.882 809.704 431.338 809.704 431.88V437H807.932V431.873C807.932 431.492 807.875 431.192 807.763 430.972C807.656 430.748 807.497 430.589 807.287 430.496C807.082 430.398 806.826 430.35 806.518 430.35C806.215 430.35 805.944 430.413 805.705 430.54C805.466 430.667 805.263 430.84 805.097 431.06C804.936 431.28 804.812 431.534 804.724 431.822C804.636 432.11 804.592 432.417 804.592 432.745ZM815.952 434.854C815.952 434.678 815.908 434.52 815.82 434.378C815.732 434.231 815.563 434.1 815.314 433.982C815.07 433.865 814.709 433.758 814.23 433.66C813.811 433.567 813.425 433.458 813.073 433.331C812.727 433.199 812.429 433.04 812.18 432.854C811.931 432.669 811.738 432.449 811.601 432.195C811.464 431.941 811.396 431.648 811.396 431.316C811.396 430.994 811.467 430.689 811.608 430.401C811.75 430.113 811.953 429.859 812.216 429.639C812.48 429.419 812.8 429.246 813.176 429.119C813.557 428.992 813.981 428.929 814.45 428.929C815.114 428.929 815.683 429.041 816.157 429.266C816.635 429.485 817.001 429.786 817.255 430.167C817.509 430.542 817.636 430.967 817.636 431.441H815.871C815.871 431.231 815.817 431.036 815.71 430.855C815.607 430.669 815.451 430.521 815.241 430.408C815.031 430.291 814.768 430.232 814.45 430.232C814.147 430.232 813.896 430.281 813.696 430.379C813.5 430.472 813.354 430.594 813.256 430.745C813.164 430.896 813.117 431.062 813.117 431.243C813.117 431.375 813.142 431.495 813.19 431.602C813.244 431.705 813.332 431.8 813.454 431.888C813.576 431.971 813.742 432.049 813.952 432.122C814.167 432.195 814.436 432.266 814.758 432.334C815.363 432.461 815.883 432.625 816.318 432.825C816.757 433.021 817.094 433.274 817.329 433.587C817.563 433.895 817.68 434.285 817.68 434.759C817.68 435.11 817.604 435.433 817.453 435.726C817.307 436.014 817.092 436.265 816.809 436.48C816.525 436.69 816.186 436.854 815.791 436.971C815.4 437.088 814.96 437.146 814.472 437.146C813.754 437.146 813.146 437.02 812.648 436.766C812.15 436.507 811.772 436.177 811.513 435.777C811.259 435.372 811.132 434.952 811.132 434.517H812.839C812.858 434.844 812.949 435.105 813.11 435.301C813.276 435.491 813.481 435.63 813.725 435.718C813.974 435.801 814.23 435.843 814.494 435.843C814.812 435.843 815.078 435.801 815.292 435.718C815.507 435.63 815.671 435.513 815.783 435.367C815.896 435.215 815.952 435.044 815.952 434.854ZM822.719 437.146C822.133 437.146 821.604 437.051 821.13 436.861C820.661 436.666 820.261 436.395 819.929 436.048C819.602 435.701 819.35 435.293 819.174 434.825C818.999 434.356 818.911 433.851 818.911 433.309V433.016C818.911 432.396 819.001 431.834 819.182 431.331C819.362 430.828 819.614 430.398 819.936 430.042C820.258 429.681 820.639 429.405 821.079 429.214C821.518 429.024 821.994 428.929 822.507 428.929C823.073 428.929 823.569 429.024 823.994 429.214C824.418 429.405 824.77 429.673 825.048 430.02C825.332 430.362 825.542 430.77 825.678 431.243C825.82 431.717 825.891 432.239 825.891 432.811V433.565H819.768V432.298H824.147V432.159C824.138 431.841 824.074 431.543 823.957 431.265C823.845 430.987 823.671 430.762 823.437 430.591C823.203 430.42 822.89 430.335 822.5 430.335C822.207 430.335 821.945 430.398 821.716 430.525C821.491 430.647 821.303 430.826 821.152 431.06C821 431.294 820.883 431.578 820.8 431.91C820.722 432.237 820.683 432.605 820.683 433.016V433.309C820.683 433.655 820.729 433.978 820.822 434.275C820.92 434.568 821.062 434.825 821.247 435.044C821.433 435.264 821.657 435.438 821.921 435.564C822.185 435.687 822.485 435.748 822.822 435.748C823.247 435.748 823.625 435.662 823.957 435.491C824.289 435.32 824.577 435.079 824.821 434.766L825.751 435.667C825.581 435.916 825.358 436.155 825.085 436.385C824.812 436.609 824.477 436.792 824.082 436.934C823.691 437.076 823.237 437.146 822.719 437.146ZM829.04 430.584V437H827.275V429.075H828.959L829.04 430.584ZM831.464 429.024L831.45 430.665C831.342 430.645 831.225 430.63 831.098 430.621C830.976 430.611 830.854 430.606 830.732 430.606C830.429 430.606 830.163 430.65 829.934 430.738C829.704 430.821 829.511 430.943 829.355 431.104C829.204 431.26 829.086 431.451 829.003 431.675C828.92 431.9 828.872 432.151 828.857 432.43L828.454 432.459C828.454 431.961 828.503 431.5 828.601 431.075C828.698 430.65 828.845 430.276 829.04 429.954C829.24 429.632 829.489 429.38 829.787 429.2C830.09 429.019 830.439 428.929 830.834 428.929C830.942 428.929 831.057 428.938 831.179 428.958C831.306 428.978 831.401 429 831.464 429.024ZM836.569 429.075V430.364H832.102V429.075H836.569ZM833.391 427.134H835.156V434.81C835.156 435.054 835.19 435.242 835.258 435.374C835.332 435.501 835.432 435.586 835.559 435.63C835.686 435.674 835.834 435.696 836.005 435.696C836.127 435.696 836.245 435.689 836.357 435.674C836.469 435.66 836.56 435.645 836.628 435.63L836.635 436.978C836.489 437.022 836.318 437.061 836.123 437.095C835.932 437.129 835.712 437.146 835.463 437.146C835.058 437.146 834.699 437.076 834.387 436.934C834.074 436.788 833.83 436.551 833.654 436.224C833.479 435.896 833.391 435.462 833.391 434.92V427.134ZM845.842 432.181H843.125L843.11 430.84H845.483C845.883 430.84 846.223 430.782 846.501 430.665C846.784 430.542 846.999 430.369 847.146 430.145C847.292 429.915 847.365 429.639 847.365 429.317C847.365 428.96 847.297 428.67 847.16 428.445C847.023 428.221 846.813 428.057 846.53 427.955C846.252 427.852 845.896 427.801 845.461 427.801H843.681V437H841.843V426.336H845.461C846.047 426.336 846.569 426.392 847.028 426.504C847.492 426.617 847.885 426.792 848.208 427.032C848.535 427.266 848.781 427.564 848.947 427.925C849.118 428.287 849.204 428.716 849.204 429.214C849.204 429.654 849.099 430.057 848.889 430.423C848.679 430.784 848.369 431.08 847.958 431.309C847.548 431.539 847.038 431.675 846.428 431.719L845.842 432.181ZM845.761 437H842.546L843.374 435.542H845.761C846.176 435.542 846.523 435.474 846.801 435.337C847.08 435.196 847.287 435.003 847.424 434.759C847.565 434.51 847.636 434.219 847.636 433.887C847.636 433.541 847.575 433.24 847.453 432.986C847.331 432.728 847.138 432.53 846.875 432.393C846.611 432.251 846.267 432.181 845.842 432.181H843.776L843.791 430.84H846.479L846.896 431.346C847.482 431.365 847.963 431.495 848.339 431.734C848.72 431.973 849.003 432.283 849.189 432.664C849.375 433.045 849.467 433.455 849.467 433.895C849.467 434.573 849.318 435.142 849.021 435.601C848.728 436.06 848.305 436.409 847.753 436.648C847.202 436.883 846.538 437 845.761 437ZM855.913 435.132V429.075H857.685V437H856.015L855.913 435.132ZM856.162 433.484L856.755 433.47C856.755 434.002 856.696 434.493 856.579 434.942C856.462 435.386 856.281 435.774 856.037 436.106C855.793 436.434 855.48 436.69 855.1 436.875C854.719 437.056 854.262 437.146 853.73 437.146C853.344 437.146 852.99 437.09 852.668 436.978C852.346 436.866 852.067 436.692 851.833 436.458C851.604 436.224 851.425 435.918 851.298 435.542C851.171 435.167 851.108 434.717 851.108 434.195V429.075H852.873V434.209C852.873 434.498 852.907 434.739 852.976 434.935C853.044 435.125 853.137 435.279 853.254 435.396C853.371 435.513 853.508 435.596 853.664 435.645C853.82 435.694 853.986 435.718 854.162 435.718C854.665 435.718 855.061 435.621 855.349 435.425C855.642 435.225 855.849 434.957 855.971 434.62C856.098 434.283 856.162 433.904 856.162 433.484ZM863.127 429.075V430.364H858.659V429.075H863.127ZM859.948 427.134H861.713V434.81C861.713 435.054 861.748 435.242 861.816 435.374C861.889 435.501 861.989 435.586 862.116 435.63C862.243 435.674 862.392 435.696 862.563 435.696C862.685 435.696 862.802 435.689 862.915 435.674C863.027 435.66 863.117 435.645 863.186 435.63L863.193 436.978C863.046 437.022 862.875 437.061 862.68 437.095C862.49 437.129 862.27 437.146 862.021 437.146C861.616 437.146 861.257 437.076 860.944 436.934C860.632 436.788 860.388 436.551 860.212 436.224C860.036 435.896 859.948 435.462 859.948 434.92V427.134ZM868.122 429.075V430.364H863.654V429.075H868.122ZM864.943 427.134H866.708V434.81C866.708 435.054 866.743 435.242 866.811 435.374C866.884 435.501 866.984 435.586 867.111 435.63C867.238 435.674 867.387 435.696 867.558 435.696C867.68 435.696 867.797 435.689 867.91 435.674C868.022 435.66 868.112 435.645 868.181 435.63L868.188 436.978C868.042 437.022 867.871 437.061 867.675 437.095C867.485 437.129 867.265 437.146 867.016 437.146C866.611 437.146 866.252 437.076 865.939 436.934C865.627 436.788 865.383 436.551 865.207 436.224C865.031 435.896 864.943 435.462 864.943 434.92V427.134ZM868.972 433.125V432.957C868.972 432.386 869.055 431.856 869.221 431.368C869.387 430.875 869.626 430.447 869.938 430.086C870.256 429.72 870.642 429.437 871.096 429.236C871.555 429.031 872.072 428.929 872.648 428.929C873.229 428.929 873.747 429.031 874.201 429.236C874.66 429.437 875.048 429.72 875.366 430.086C875.683 430.447 875.925 430.875 876.091 431.368C876.257 431.856 876.34 432.386 876.34 432.957V433.125C876.34 433.697 876.257 434.227 876.091 434.715C875.925 435.203 875.683 435.63 875.366 435.997C875.048 436.358 874.663 436.641 874.208 436.846C873.754 437.046 873.239 437.146 872.663 437.146C872.082 437.146 871.562 437.046 871.103 436.846C870.649 436.641 870.263 436.358 869.946 435.997C869.628 435.63 869.387 435.203 869.221 434.715C869.055 434.227 868.972 433.697 868.972 433.125ZM870.737 432.957V433.125C870.737 433.482 870.773 433.819 870.847 434.136C870.92 434.454 871.035 434.732 871.191 434.971C871.347 435.21 871.547 435.398 871.792 435.535C872.036 435.672 872.326 435.74 872.663 435.74C872.99 435.74 873.273 435.672 873.513 435.535C873.757 435.398 873.957 435.21 874.113 434.971C874.27 434.732 874.384 434.454 874.458 434.136C874.536 433.819 874.575 433.482 874.575 433.125V432.957C874.575 432.605 874.536 432.273 874.458 431.961C874.384 431.644 874.267 431.363 874.106 431.119C873.95 430.875 873.75 430.684 873.505 430.547C873.266 430.406 872.98 430.335 872.648 430.335C872.316 430.335 872.028 430.406 871.784 430.547C871.545 430.684 871.347 430.875 871.191 431.119C871.035 431.363 870.92 431.644 870.847 431.961C870.773 432.273 870.737 432.605 870.737 432.957ZM879.57 430.767V437H877.805V429.075H879.467L879.57 430.767ZM879.255 432.745L878.684 432.737C878.688 432.176 878.767 431.661 878.918 431.192C879.074 430.723 879.289 430.32 879.562 429.983C879.841 429.646 880.173 429.388 880.559 429.207C880.944 429.021 881.374 428.929 881.848 428.929C882.229 428.929 882.573 428.982 882.88 429.09C883.193 429.192 883.459 429.361 883.679 429.595C883.903 429.83 884.074 430.135 884.191 430.511C884.309 430.882 884.367 431.338 884.367 431.88V437H882.595V431.873C882.595 431.492 882.539 431.192 882.426 430.972C882.319 430.748 882.16 430.589 881.95 430.496C881.745 430.398 881.489 430.35 881.181 430.35C880.878 430.35 880.607 430.413 880.368 430.54C880.129 430.667 879.926 430.84 879.76 431.06C879.599 431.28 879.475 431.534 879.387 431.822C879.299 432.11 879.255 432.417 879.255 432.745Z" fill="#505050"/>
<rect x="445" y="397" width="770" height="70" rx="7" stroke="#AAAAAA" stroke-width="2" stroke-dasharray="4 4"/>
<rect width="836" height="76" transform="translate(412 500)" fill="white"/>
<rect x="444" y="532" width="192" height="12" rx="6" fill="#E6E6E6"/>
</g>
<rect x="412.5" y="120.5" width="835" height="455" rx="7.5" stroke="#E6E6E6"/>
<rect width="140" height="712" fill="#24282D"/>
<rect width="1280" height="32" fill="#24282D"/>
<mask id="path-19-inside-1_9421_50570" fill="white">
<path d="M140 88H380V712H140V88Z"/>
</mask>
<path d="M140 88H380V712H140V88Z" fill="white"/>
<path d="M379 88V712H381V88H379Z" fill="#E6E6E6" mask="url(#path-19-inside-1_9421_50570)"/>
<mask id="path-21-inside-2_9421_50570" fill="white">
<path d="M140 32H1280V88H140V32Z"/>
</mask>
<path d="M140 32H1280V88H140V32Z" fill="white"/>
<path d="M1280 87H140V89H1280V87Z" fill="#E6E6E6" mask="url(#path-21-inside-2_9421_50570)"/>
<rect x="164" y="54" width="120" height="12" rx="6" fill="#E6E6E6"/>
<rect x="164" y="112" width="192" height="12" rx="6" fill="#E6E6E6"/>
<rect x="164" y="148" width="192" height="12" rx="6" fill="#E6E6E6"/>
<rect x="164" y="184" width="192" height="12" rx="6" fill="#E6E6E6"/>
<rect x="164" y="220" width="192" height="12" rx="6" fill="#E6E6E6"/>
<rect x="164" y="256" width="192" height="12" rx="6" fill="#E6E6E6"/>
<rect x="1184" y="54" width="72" height="12" rx="6" fill="#E6E6E6"/>
<rect x="1096" y="54" width="72" height="12" rx="6" fill="#E6E6E6"/>
<rect x="1008" y="54" width="72" height="12" rx="6" fill="#E6E6E6"/>
</g>
<rect x="0.5" y="0.5" width="1279" height="711" rx="15.5" stroke="#E6E6E6"/>
<defs>
<clipPath id="clip0_9421_50570">
<rect width="1280" height="712" rx="16" fill="white"/>
</clipPath>
<clipPath id="clip1_9421_50570">
<rect x="412" y="120" width="836" height="456" rx="8" fill="white"/>
</clipPath>
</defs>
</svg>
