<svg width="200" height="200" viewBox="0 0 200 200" fill="none" xmlns="http://www.w3.org/2000/svg">
<rect width="200" height="200" rx="100" fill="#F2F2F2"/>
<g filter="url(#filter0_ddd_8968_484)">
<rect x="40" y="57" width="120" height="86" rx="4" fill="white"/>
</g>
<path d="M40 61C40 58.7909 41.7909 57 44 57H156C158.209 57 160 58.7909 160 61V71H40V61Z" fill="#333333"/>
<circle cx="51" cy="64" r="3" fill="#E6E6E6"/>
<circle cx="61" cy="64" r="3" fill="#E6E6E6"/>
<circle cx="71" cy="64" r="3" fill="#E6E6E6"/>
<rect x="91" y="93" width="18" height="20" rx="4" fill="#F2F2F2" stroke="#AAAAAA" stroke-width="2"/>
<path d="M86 93V92C86 90.3431 87.3431 89 89 89H90" stroke="#AAAAAA" stroke-width="2" stroke-linecap="round"/>
<path d="M114 113L114 114C114 115.657 112.657 117 111 117L110 117" stroke="#AAAAAA" stroke-width="2" stroke-linecap="round"/>
<path d="M110 89L111 89C112.657 89 114 90.3431 114 92L114 93" stroke="#AAAAAA" stroke-width="2" stroke-linecap="round"/>
<path d="M90 117L89 117C87.3431 117 86 115.657 86 114L86 113" stroke="#AAAAAA" stroke-width="2" stroke-linecap="round"/>
<line x1="96" y1="99" x2="104" y2="99" stroke="#AAAAAA" stroke-width="2" stroke-linecap="round"/>
<line x1="96" y1="103" x2="104" y2="103" stroke="#AAAAAA" stroke-width="2" stroke-linecap="round"/>
<path d="M96 107H102" stroke="#AAAAAA" stroke-width="2" stroke-linecap="round"/>
<defs>
<filter id="filter0_ddd_8968_484" x="24" y="42" width="152" height="119" filterUnits="userSpaceOnUse" color-interpolation-filters="sRGB">
<feFlood flood-opacity="0" result="BackgroundImageFix"/>
<feColorMatrix in="SourceAlpha" type="matrix" values="0 0 0 0 0 0 0 0 0 0 0 0 0 0 0 0 0 0 127 0" result="hardAlpha"/>
<feOffset dy="2"/>
<feGaussianBlur stdDeviation="2"/>
<feColorMatrix type="matrix" values="0 0 0 0 0.45098 0 0 0 0 0.45098 0 0 0 0 0.45098 0 0 0 0.1 0"/>
<feBlend mode="normal" in2="BackgroundImageFix" result="effect1_dropShadow_8968_484"/>
<feColorMatrix in="SourceAlpha" type="matrix" values="0 0 0 0 0 0 0 0 0 0 0 0 0 0 0 0 0 0 127 0" result="hardAlpha"/>
<feOffset dy="1"/>
<feGaussianBlur stdDeviation="8"/>
<feColorMatrix type="matrix" values="0 0 0 0 0.45098 0 0 0 0 0.45098 0 0 0 0 0.45098 0 0 0 0.05 0"/>
<feBlend mode="normal" in2="effect1_dropShadow_8968_484" result="effect2_dropShadow_8968_484"/>
<feColorMatrix in="SourceAlpha" type="matrix" values="0 0 0 0 0 0 0 0 0 0 0 0 0 0 0 0 0 0 127 0" result="hardAlpha"/>
<feOffset dy="6"/>
<feGaussianBlur stdDeviation="6"/>
<feColorMatrix type="matrix" values="0 0 0 0 0.45098 0 0 0 0 0.45098 0 0 0 0 0.45098 0 0 0 0.08 0"/>
<feBlend mode="normal" in2="effect2_dropShadow_8968_484" result="effect3_dropShadow_8968_484"/>
<feBlend mode="normal" in="SourceGraphic" in2="effect3_dropShadow_8968_484" result="shape"/>
</filter>
</defs>
</svg>
