<svg width="1280" height="320" viewBox="0 0 1280 320" fill="none" xmlns="http://www.w3.org/2000/svg">
<rect width="1280" height="320" rx="16" fill="#F8F8F8"/>
<g clip-path="url(#clip0_7351_86599)">
<rect x="40" y="72" width="1200" height="192" rx="8" fill="white"/>
<g filter="url(#filter0_dd_7351_86599)">
<rect width="1200" height="64" transform="translate(40 72)" fill="white"/>
<rect x="72" y="94" width="20" height="20" rx="4" fill="url(#paint0_linear_7351_86599)"/>
<rect x="124" y="94" width="48" height="20" rx="4" fill="url(#paint1_linear_7351_86599)"/>
<rect x="204" y="94" width="279" height="20" rx="4" fill="url(#paint2_linear_7351_86599)"/>
<rect x="515" y="94" width="279" height="20" rx="4" fill="url(#paint3_linear_7351_86599)"/>
<rect x="826" y="94" width="168" height="20" rx="4" fill="url(#paint4_linear_7351_86599)"/>
<rect x="1026" y="94" width="78" height="20" rx="4" fill="url(#paint5_linear_7351_86599)"/>
<rect x="1136" y="88" width="32" height="32" rx="4" fill="url(#paint6_linear_7351_86599)"/>
<rect x="1176" y="88" width="32" height="32" rx="4" fill="url(#paint7_linear_7351_86599)"/>
</g>
<g filter="url(#filter1_dd_7351_86599)">
<rect width="1200" height="64" transform="translate(40 136)" fill="white"/>
<g opacity="0.3">
<rect x="72.5" y="158.5" width="19" height="19" rx="3.5" fill="white"/>
<rect x="72.5" y="158.5" width="19" height="19" rx="3.5" stroke="#AAAAAA"/>
</g>
<g opacity="0.3">
<path d="M125.787 173L127.75 162.336H128.951L126.988 173H125.787ZM128.644 173L130.606 162.336H131.808L129.845 173H128.644ZM132.804 166.518H125.187V165.383H132.804V166.518ZM132.254 169.997H124.63V168.862H132.254V169.997ZM138.678 162.299V173H136.913V164.394L134.298 165.28V163.823L138.465 162.299H138.678Z" fill="#1A1A1A"/>
</g>
<path d="M213.543 162.336V173H211.705L206.922 165.361V173H205.084V162.336H206.922L211.72 169.99V162.336H213.543ZM219.051 173.146C218.465 173.146 217.936 173.051 217.462 172.861C216.993 172.666 216.593 172.395 216.261 172.048C215.934 171.701 215.682 171.293 215.506 170.825C215.331 170.356 215.243 169.851 215.243 169.309V169.016C215.243 168.396 215.333 167.834 215.514 167.331C215.694 166.828 215.946 166.398 216.268 166.042C216.59 165.681 216.971 165.405 217.411 165.214C217.85 165.024 218.326 164.929 218.839 164.929C219.405 164.929 219.901 165.024 220.326 165.214C220.75 165.405 221.102 165.673 221.38 166.02C221.664 166.362 221.874 166.77 222.01 167.243C222.152 167.717 222.223 168.239 222.223 168.811V169.565H216.1V168.298H220.479V168.159C220.47 167.841 220.406 167.543 220.289 167.265C220.177 166.987 220.003 166.762 219.769 166.591C219.535 166.42 219.222 166.335 218.832 166.335C218.539 166.335 218.277 166.398 218.048 166.525C217.823 166.647 217.635 166.826 217.484 167.06C217.333 167.294 217.215 167.578 217.132 167.91C217.054 168.237 217.015 168.605 217.015 169.016V169.309C217.015 169.655 217.062 169.978 217.154 170.275C217.252 170.568 217.394 170.825 217.579 171.044C217.765 171.264 217.989 171.438 218.253 171.564C218.517 171.687 218.817 171.748 219.154 171.748C219.579 171.748 219.957 171.662 220.289 171.491C220.621 171.32 220.909 171.079 221.153 170.766L222.083 171.667C221.913 171.916 221.69 172.155 221.417 172.385C221.144 172.609 220.809 172.792 220.414 172.934C220.023 173.076 219.569 173.146 219.051 173.146ZM225.753 171.242L227.584 165.075H228.712L228.404 166.921L226.559 173H225.548L225.753 171.242ZM224.676 165.075L226.104 171.271L226.222 173H225.094L222.948 165.075H224.676ZM230.426 171.198L231.81 165.075H233.531L231.393 173H230.265L230.426 171.198ZM228.902 165.075L230.711 171.169L230.938 173H229.928L228.06 166.914L227.752 165.075H228.902ZM241.705 171.74C241.993 171.74 242.252 171.684 242.481 171.572C242.716 171.455 242.904 171.293 243.045 171.088C243.192 170.883 243.272 170.646 243.287 170.378H244.95C244.94 170.891 244.789 171.357 244.496 171.777C244.203 172.197 243.814 172.531 243.331 172.78C242.848 173.024 242.313 173.146 241.727 173.146C241.122 173.146 240.594 173.044 240.145 172.839C239.696 172.629 239.322 172.341 239.024 171.975C238.727 171.608 238.502 171.186 238.351 170.708C238.204 170.229 238.131 169.716 238.131 169.169V168.913C238.131 168.366 238.204 167.854 238.351 167.375C238.502 166.892 238.727 166.467 239.024 166.101C239.322 165.734 239.696 165.449 240.145 165.244C240.594 165.034 241.119 164.929 241.72 164.929C242.354 164.929 242.911 165.056 243.39 165.31C243.868 165.559 244.244 165.908 244.518 166.357C244.796 166.801 244.94 167.319 244.95 167.91H243.287C243.272 167.617 243.199 167.353 243.067 167.119C242.94 166.879 242.76 166.689 242.525 166.547C242.296 166.406 242.02 166.335 241.698 166.335C241.341 166.335 241.046 166.408 240.812 166.555C240.577 166.696 240.394 166.892 240.262 167.141C240.13 167.385 240.035 167.661 239.977 167.968C239.923 168.271 239.896 168.586 239.896 168.913V169.169C239.896 169.497 239.923 169.814 239.977 170.122C240.03 170.429 240.123 170.705 240.255 170.949C240.392 171.188 240.577 171.381 240.812 171.528C241.046 171.669 241.344 171.74 241.705 171.74ZM245.968 169.125V168.957C245.968 168.386 246.051 167.856 246.217 167.368C246.383 166.875 246.622 166.447 246.935 166.086C247.252 165.72 247.638 165.437 248.092 165.236C248.551 165.031 249.068 164.929 249.645 164.929C250.226 164.929 250.743 165.031 251.197 165.236C251.656 165.437 252.044 165.72 252.362 166.086C252.679 166.447 252.921 166.875 253.087 167.368C253.253 167.856 253.336 168.386 253.336 168.957V169.125C253.336 169.697 253.253 170.227 253.087 170.715C252.921 171.203 252.679 171.63 252.362 171.997C252.044 172.358 251.659 172.641 251.205 172.846C250.75 173.046 250.235 173.146 249.659 173.146C249.078 173.146 248.558 173.046 248.099 172.846C247.645 172.641 247.259 172.358 246.942 171.997C246.625 171.63 246.383 171.203 246.217 170.715C246.051 170.227 245.968 169.697 245.968 169.125ZM247.733 168.957V169.125C247.733 169.482 247.77 169.819 247.843 170.136C247.916 170.454 248.031 170.732 248.187 170.971C248.343 171.21 248.543 171.398 248.788 171.535C249.032 171.672 249.322 171.74 249.659 171.74C249.986 171.74 250.27 171.672 250.509 171.535C250.753 171.398 250.953 171.21 251.109 170.971C251.266 170.732 251.38 170.454 251.454 170.136C251.532 169.819 251.571 169.482 251.571 169.125V168.957C251.571 168.605 251.532 168.273 251.454 167.961C251.38 167.644 251.263 167.363 251.102 167.119C250.946 166.875 250.746 166.684 250.501 166.547C250.262 166.406 249.977 166.335 249.645 166.335C249.312 166.335 249.024 166.406 248.78 166.547C248.541 166.684 248.343 166.875 248.187 167.119C248.031 167.363 247.916 167.644 247.843 167.961C247.77 168.273 247.733 168.605 247.733 168.957ZM256.566 166.767V173H254.801V165.075H256.463L256.566 166.767ZM256.251 168.745L255.68 168.737C255.685 168.176 255.763 167.661 255.914 167.192C256.07 166.723 256.285 166.32 256.559 165.983C256.837 165.646 257.169 165.388 257.555 165.207C257.94 165.021 258.37 164.929 258.844 164.929C259.225 164.929 259.569 164.982 259.876 165.09C260.189 165.192 260.455 165.361 260.675 165.595C260.899 165.83 261.07 166.135 261.188 166.511C261.305 166.882 261.363 167.338 261.363 167.88V173H259.591V167.873C259.591 167.492 259.535 167.192 259.422 166.972C259.315 166.748 259.156 166.589 258.946 166.496C258.741 166.398 258.485 166.35 258.177 166.35C257.875 166.35 257.604 166.413 257.364 166.54C257.125 166.667 256.922 166.84 256.756 167.06C256.595 167.28 256.471 167.534 256.383 167.822C256.295 168.11 256.251 168.417 256.251 168.745ZM266.798 165.075V166.364H262.33V165.075H266.798ZM263.619 163.134H265.384V170.81C265.384 171.054 265.418 171.242 265.487 171.374C265.56 171.501 265.66 171.586 265.787 171.63C265.914 171.674 266.063 171.696 266.234 171.696C266.356 171.696 266.473 171.689 266.585 171.674C266.698 171.66 266.788 171.645 266.856 171.63L266.864 172.978C266.717 173.022 266.546 173.061 266.351 173.095C266.161 173.129 265.941 173.146 265.692 173.146C265.287 173.146 264.928 173.076 264.615 172.934C264.303 172.788 264.059 172.551 263.883 172.224C263.707 171.896 263.619 171.462 263.619 170.92V163.134ZM272.628 171.411V167.631C272.628 167.348 272.577 167.104 272.474 166.899C272.372 166.694 272.215 166.535 272.005 166.423C271.8 166.311 271.542 166.254 271.229 166.254C270.941 166.254 270.692 166.303 270.482 166.401C270.272 166.499 270.108 166.63 269.991 166.796C269.874 166.962 269.815 167.15 269.815 167.36H268.058C268.058 167.048 268.133 166.745 268.285 166.452C268.436 166.159 268.656 165.898 268.944 165.668C269.232 165.439 269.576 165.258 269.977 165.126C270.377 164.995 270.826 164.929 271.324 164.929C271.92 164.929 272.447 165.029 272.906 165.229C273.37 165.429 273.734 165.732 273.998 166.137C274.266 166.538 274.4 167.041 274.4 167.646V171.169C274.4 171.53 274.425 171.855 274.474 172.143C274.527 172.426 274.603 172.673 274.701 172.883V173H272.892C272.809 172.81 272.743 172.568 272.694 172.275C272.65 171.977 272.628 171.689 272.628 171.411ZM272.884 168.181L272.899 169.272H271.632C271.305 169.272 271.017 169.304 270.768 169.367C270.519 169.426 270.311 169.514 270.145 169.631C269.979 169.748 269.854 169.89 269.771 170.056C269.688 170.222 269.647 170.41 269.647 170.62C269.647 170.83 269.696 171.022 269.793 171.198C269.891 171.369 270.033 171.503 270.218 171.601C270.409 171.699 270.638 171.748 270.907 171.748C271.268 171.748 271.583 171.674 271.852 171.528C272.125 171.376 272.34 171.193 272.496 170.979C272.652 170.759 272.735 170.551 272.745 170.356L273.316 171.14C273.258 171.34 273.158 171.555 273.016 171.784C272.875 172.014 272.689 172.233 272.459 172.443C272.235 172.648 271.964 172.817 271.646 172.949C271.334 173.081 270.973 173.146 270.562 173.146C270.045 173.146 269.583 173.044 269.178 172.839C268.773 172.629 268.456 172.348 268.226 171.997C267.997 171.64 267.882 171.237 267.882 170.788C267.882 170.368 267.96 169.997 268.116 169.675C268.277 169.348 268.512 169.074 268.819 168.854C269.132 168.635 269.513 168.469 269.962 168.356C270.411 168.239 270.924 168.181 271.5 168.181H272.884ZM279.483 171.74C279.771 171.74 280.03 171.684 280.26 171.572C280.494 171.455 280.682 171.293 280.824 171.088C280.97 170.883 281.051 170.646 281.065 170.378H282.728C282.718 170.891 282.567 171.357 282.274 171.777C281.981 172.197 281.593 172.531 281.109 172.78C280.626 173.024 280.091 173.146 279.505 173.146C278.9 173.146 278.373 173.044 277.923 172.839C277.474 172.629 277.101 172.341 276.803 171.975C276.505 171.608 276.28 171.186 276.129 170.708C275.982 170.229 275.909 169.716 275.909 169.169V168.913C275.909 168.366 275.982 167.854 276.129 167.375C276.28 166.892 276.505 166.467 276.803 166.101C277.101 165.734 277.474 165.449 277.923 165.244C278.373 165.034 278.897 164.929 279.498 164.929C280.133 164.929 280.689 165.056 281.168 165.31C281.646 165.559 282.022 165.908 282.296 166.357C282.574 166.801 282.718 167.319 282.728 167.91H281.065C281.051 167.617 280.978 167.353 280.846 167.119C280.719 166.879 280.538 166.689 280.304 166.547C280.074 166.406 279.798 166.335 279.476 166.335C279.12 166.335 278.824 166.408 278.59 166.555C278.355 166.696 278.172 166.892 278.041 167.141C277.909 167.385 277.813 167.661 277.755 167.968C277.701 168.271 277.674 168.586 277.674 168.913V169.169C277.674 169.497 277.701 169.814 277.755 170.122C277.809 170.429 277.901 170.705 278.033 170.949C278.17 171.188 278.355 171.381 278.59 171.528C278.824 171.669 279.122 171.74 279.483 171.74ZM287.716 165.075V166.364H283.248V165.075H287.716ZM284.537 163.134H286.302V170.81C286.302 171.054 286.336 171.242 286.405 171.374C286.478 171.501 286.578 171.586 286.705 171.63C286.832 171.674 286.981 171.696 287.152 171.696C287.274 171.696 287.391 171.689 287.503 171.674C287.616 171.66 287.706 171.645 287.774 171.63L287.782 172.978C287.635 173.022 287.464 173.061 287.269 173.095C287.079 173.129 286.859 173.146 286.61 173.146C286.205 173.146 285.846 173.076 285.533 172.934C285.221 172.788 284.977 172.551 284.801 172.224C284.625 171.896 284.537 171.462 284.537 170.92V163.134ZM295.201 173H293.436V164.313C293.436 163.723 293.546 163.227 293.766 162.827C293.99 162.421 294.31 162.116 294.725 161.911C295.14 161.701 295.631 161.596 296.197 161.596C296.373 161.596 296.546 161.608 296.717 161.633C296.888 161.652 297.054 161.684 297.215 161.728L297.171 163.09C297.074 163.066 296.966 163.049 296.849 163.039C296.737 163.029 296.615 163.024 296.483 163.024C296.214 163.024 295.982 163.076 295.787 163.178C295.597 163.276 295.45 163.42 295.348 163.61C295.25 163.801 295.201 164.035 295.201 164.313V173ZM296.834 165.075V166.364H292.22V165.075H296.834ZM297.779 169.125V168.957C297.779 168.386 297.862 167.856 298.028 167.368C298.194 166.875 298.434 166.447 298.746 166.086C299.063 165.72 299.449 165.437 299.903 165.236C300.362 165.031 300.88 164.929 301.456 164.929C302.037 164.929 302.555 165.031 303.009 165.236C303.468 165.437 303.856 165.72 304.173 166.086C304.491 166.447 304.732 166.875 304.898 167.368C305.064 167.856 305.147 168.386 305.147 168.957V169.125C305.147 169.697 305.064 170.227 304.898 170.715C304.732 171.203 304.491 171.63 304.173 171.997C303.856 172.358 303.47 172.641 303.016 172.846C302.562 173.046 302.047 173.146 301.471 173.146C300.89 173.146 300.37 173.046 299.911 172.846C299.457 172.641 299.071 172.358 298.753 171.997C298.436 171.63 298.194 171.203 298.028 170.715C297.862 170.227 297.779 169.697 297.779 169.125ZM299.544 168.957V169.125C299.544 169.482 299.581 169.819 299.654 170.136C299.728 170.454 299.842 170.732 299.999 170.971C300.155 171.21 300.355 171.398 300.599 171.535C300.843 171.672 301.134 171.74 301.471 171.74C301.798 171.74 302.081 171.672 302.32 171.535C302.564 171.398 302.765 171.21 302.921 170.971C303.077 170.732 303.192 170.454 303.265 170.136C303.343 169.819 303.382 169.482 303.382 169.125V168.957C303.382 168.605 303.343 168.273 303.265 167.961C303.192 167.644 303.075 167.363 302.914 167.119C302.757 166.875 302.557 166.684 302.313 166.547C302.074 166.406 301.788 166.335 301.456 166.335C301.124 166.335 300.836 166.406 300.592 166.547C300.353 166.684 300.155 166.875 299.999 167.119C299.842 167.363 299.728 167.644 299.654 167.961C299.581 168.273 299.544 168.605 299.544 168.957ZM308.399 166.584V173H306.634V165.075H308.319L308.399 166.584ZM310.824 165.024L310.809 166.665C310.702 166.645 310.584 166.63 310.458 166.621C310.335 166.611 310.213 166.606 310.091 166.606C309.789 166.606 309.522 166.65 309.293 166.738C309.063 166.821 308.871 166.943 308.714 167.104C308.563 167.26 308.446 167.451 308.363 167.675C308.28 167.9 308.231 168.151 308.216 168.43L307.813 168.459C307.813 167.961 307.862 167.5 307.96 167.075C308.058 166.65 308.204 166.276 308.399 165.954C308.6 165.632 308.849 165.38 309.146 165.2C309.449 165.019 309.798 164.929 310.194 164.929C310.301 164.929 310.416 164.938 310.538 164.958C310.665 164.978 310.76 165 310.824 165.024ZM313.695 166.687V173H311.93V165.075H313.592L313.695 166.687ZM313.409 168.745L312.809 168.737C312.809 168.19 312.877 167.685 313.014 167.221C313.15 166.757 313.351 166.354 313.614 166.013C313.878 165.666 314.205 165.4 314.596 165.214C314.991 165.024 315.448 164.929 315.965 164.929C316.327 164.929 316.656 164.982 316.954 165.09C317.257 165.192 317.518 165.356 317.738 165.581C317.962 165.805 318.133 166.093 318.25 166.445C318.373 166.796 318.434 167.221 318.434 167.719V173H316.668V167.873C316.668 167.487 316.61 167.185 316.493 166.965C316.38 166.745 316.217 166.589 316.002 166.496C315.792 166.398 315.541 166.35 315.248 166.35C314.916 166.35 314.632 166.413 314.398 166.54C314.168 166.667 313.98 166.84 313.834 167.06C313.688 167.28 313.58 167.534 313.512 167.822C313.443 168.11 313.409 168.417 313.409 168.745ZM318.324 168.276L317.496 168.459C317.496 167.98 317.562 167.529 317.694 167.104C317.831 166.674 318.028 166.298 318.287 165.976C318.551 165.649 318.875 165.393 319.261 165.207C319.647 165.021 320.089 164.929 320.587 164.929C320.992 164.929 321.354 164.985 321.671 165.097C321.993 165.205 322.267 165.375 322.491 165.61C322.716 165.844 322.887 166.149 323.004 166.525C323.121 166.896 323.18 167.346 323.18 167.873V173H321.407V167.866C321.407 167.465 321.349 167.155 321.231 166.936C321.119 166.716 320.958 166.564 320.748 166.481C320.538 166.394 320.287 166.35 319.994 166.35C319.72 166.35 319.479 166.401 319.269 166.503C319.063 166.601 318.89 166.74 318.749 166.921C318.607 167.097 318.5 167.299 318.426 167.529C318.358 167.758 318.324 168.007 318.324 168.276Z" fill="#1A1A1A"/>
<g opacity="0.3">
<rect x="616" y="156" width="74" height="24" rx="12" fill="#0059FF"/>
<path d="M628.606 168.553H626.2V167.29H628.606C629.025 167.29 629.363 167.222 629.622 167.087C629.88 166.951 630.068 166.765 630.187 166.528C630.309 166.287 630.371 166.012 630.371 165.703C630.371 165.411 630.309 165.138 630.187 164.884C630.068 164.626 629.88 164.419 629.622 164.262C629.363 164.106 629.025 164.027 628.606 164.027H626.689V172H625.096V162.758H628.606C629.321 162.758 629.928 162.885 630.428 163.139C630.931 163.388 631.314 163.735 631.577 164.18C631.839 164.62 631.97 165.123 631.97 165.69C631.97 166.287 631.839 166.799 631.577 167.227C631.314 167.654 630.931 167.982 630.428 168.21C629.928 168.439 629.321 168.553 628.606 168.553ZM637.378 170.381V165.132H638.915V172H637.467L637.378 170.381ZM637.594 168.953L638.108 168.94C638.108 169.402 638.058 169.827 637.956 170.216C637.854 170.601 637.698 170.938 637.486 171.226C637.275 171.509 637.004 171.731 636.674 171.892C636.344 172.049 635.948 172.127 635.487 172.127C635.153 172.127 634.846 172.078 634.566 171.981C634.287 171.884 634.046 171.733 633.843 171.53C633.644 171.327 633.489 171.063 633.379 170.737C633.269 170.411 633.214 170.022 633.214 169.569V165.132H634.744V169.582C634.744 169.831 634.774 170.041 634.833 170.21C634.892 170.375 634.973 170.508 635.074 170.61C635.176 170.711 635.294 170.783 635.43 170.826C635.565 170.868 635.709 170.889 635.861 170.889C636.297 170.889 636.64 170.805 636.89 170.635C637.144 170.462 637.323 170.229 637.429 169.937C637.539 169.645 637.594 169.317 637.594 168.953ZM640.489 162.25H642.019V170.534L641.873 172H640.489V162.25ZM646.5 168.502V168.636C646.5 169.144 646.443 169.611 646.329 170.039C646.219 170.462 646.049 170.83 645.821 171.143C645.597 171.456 645.317 171.7 644.983 171.873C644.653 172.042 644.27 172.127 643.834 172.127C643.407 172.127 643.034 172.047 642.717 171.886C642.399 171.725 642.133 171.496 641.917 171.2C641.705 170.904 641.534 170.551 641.403 170.14C641.272 169.73 641.179 169.277 641.124 168.782V168.356C641.179 167.857 641.272 167.404 641.403 166.998C641.534 166.588 641.705 166.234 641.917 165.938C642.133 165.638 642.397 165.407 642.71 165.246C643.028 165.085 643.398 165.005 643.821 165.005C644.261 165.005 644.649 165.09 644.983 165.259C645.321 165.428 645.603 165.669 645.827 165.982C646.051 166.291 646.219 166.66 646.329 167.087C646.443 167.514 646.5 167.986 646.5 168.502ZM644.97 168.636V168.502C644.97 168.194 644.945 167.904 644.894 167.633C644.843 167.358 644.759 167.117 644.64 166.909C644.526 166.702 644.369 166.539 644.17 166.42C643.976 166.298 643.732 166.236 643.44 166.236C643.17 166.236 642.937 166.283 642.742 166.376C642.548 166.469 642.385 166.596 642.253 166.757C642.122 166.918 642.019 167.104 641.942 167.315C641.87 167.527 641.822 167.756 641.796 168.001V169.15C641.834 169.467 641.915 169.759 642.038 170.026C642.165 170.288 642.342 170.5 642.571 170.661C642.799 170.817 643.093 170.896 643.453 170.896C643.737 170.896 643.976 170.838 644.17 170.724C644.365 170.61 644.52 170.451 644.634 170.248C644.752 170.041 644.837 169.799 644.888 169.524C644.943 169.249 644.97 168.953 644.97 168.636ZM649.433 162.25V172H647.896V162.25H649.433ZM652.746 165.132V172H651.21V165.132H652.746ZM651.108 163.329C651.108 163.096 651.185 162.904 651.337 162.751C651.493 162.595 651.709 162.517 651.984 162.517C652.255 162.517 652.469 162.595 652.625 162.751C652.782 162.904 652.86 163.096 652.86 163.329C652.86 163.558 652.782 163.748 652.625 163.9C652.469 164.053 652.255 164.129 651.984 164.129C651.709 164.129 651.493 164.053 651.337 163.9C651.185 163.748 651.108 163.558 651.108 163.329ZM658.275 170.14C658.275 169.988 658.237 169.85 658.161 169.728C658.084 169.601 657.938 169.486 657.723 169.385C657.511 169.283 657.198 169.19 656.783 169.105C656.419 169.025 656.085 168.93 655.78 168.82C655.48 168.706 655.222 168.568 655.006 168.407C654.79 168.246 654.623 168.056 654.504 167.836C654.386 167.616 654.327 167.362 654.327 167.074C654.327 166.795 654.388 166.53 654.511 166.281C654.633 166.031 654.809 165.811 655.038 165.621C655.266 165.43 655.543 165.28 655.869 165.17C656.199 165.06 656.567 165.005 656.974 165.005C657.549 165.005 658.042 165.102 658.453 165.297C658.867 165.487 659.185 165.748 659.405 166.078C659.625 166.403 659.735 166.772 659.735 167.182H658.205C658.205 167 658.159 166.831 658.065 166.674C657.977 166.514 657.841 166.384 657.659 166.287C657.477 166.186 657.249 166.135 656.974 166.135C656.711 166.135 656.493 166.177 656.32 166.262C656.151 166.342 656.024 166.448 655.939 166.579C655.859 166.71 655.818 166.854 655.818 167.011C655.818 167.125 655.84 167.229 655.882 167.322C655.928 167.411 656.005 167.493 656.11 167.569C656.216 167.641 656.36 167.709 656.542 167.772C656.728 167.836 656.961 167.897 657.24 167.957C657.765 168.067 658.216 168.208 658.592 168.382C658.973 168.551 659.265 168.771 659.468 169.042C659.671 169.309 659.773 169.647 659.773 170.058C659.773 170.362 659.707 170.642 659.576 170.896C659.449 171.145 659.263 171.363 659.018 171.549C658.772 171.731 658.478 171.873 658.135 171.975C657.797 172.076 657.416 172.127 656.993 172.127C656.371 172.127 655.844 172.017 655.412 171.797C654.98 171.573 654.653 171.287 654.428 170.94C654.208 170.589 654.098 170.225 654.098 169.848H655.577C655.594 170.132 655.672 170.358 655.812 170.527C655.956 170.692 656.134 170.813 656.345 170.889C656.561 170.961 656.783 170.997 657.012 170.997C657.287 170.997 657.517 170.961 657.704 170.889C657.89 170.813 658.032 170.711 658.129 170.584C658.226 170.453 658.275 170.305 658.275 170.14ZM662.623 162.25V172H661.1V162.25H662.623ZM662.356 168.312L661.861 168.306C661.866 167.832 661.931 167.394 662.058 166.992C662.189 166.59 662.371 166.241 662.604 165.944C662.841 165.644 663.125 165.413 663.455 165.252C663.785 165.087 664.151 165.005 664.553 165.005C664.891 165.005 665.196 165.051 665.467 165.145C665.742 165.238 665.979 165.388 666.178 165.595C666.377 165.798 666.527 166.065 666.628 166.395C666.734 166.721 666.787 167.119 666.787 167.588V172H665.251V167.576C665.251 167.246 665.202 166.983 665.105 166.789C665.012 166.594 664.874 166.454 664.692 166.37C664.51 166.281 664.288 166.236 664.026 166.236C663.751 166.236 663.507 166.291 663.296 166.401C663.089 166.511 662.915 166.662 662.775 166.852C662.636 167.042 662.53 167.263 662.458 167.512C662.39 167.762 662.356 168.028 662.356 168.312ZM671.364 172.127C670.856 172.127 670.397 172.044 669.986 171.879C669.58 171.71 669.233 171.475 668.945 171.175C668.662 170.874 668.444 170.521 668.292 170.115C668.139 169.708 668.063 169.271 668.063 168.801V168.547C668.063 168.009 668.141 167.523 668.298 167.087C668.454 166.651 668.672 166.279 668.952 165.97C669.231 165.657 669.561 165.417 669.942 165.252C670.323 165.087 670.735 165.005 671.18 165.005C671.671 165.005 672.1 165.087 672.468 165.252C672.836 165.417 673.141 165.65 673.382 165.951C673.628 166.247 673.81 166.6 673.928 167.011C674.051 167.421 674.112 167.874 674.112 168.369V169.023H668.806V167.925H672.602V167.804C672.593 167.529 672.538 167.271 672.437 167.03C672.339 166.789 672.189 166.594 671.986 166.446C671.783 166.298 671.512 166.224 671.173 166.224C670.919 166.224 670.693 166.279 670.494 166.389C670.299 166.494 670.137 166.649 670.005 166.852C669.874 167.055 669.773 167.301 669.701 167.588C669.633 167.872 669.599 168.191 669.599 168.547V168.801C669.599 169.101 669.639 169.381 669.72 169.639C669.804 169.893 669.927 170.115 670.088 170.305C670.249 170.496 670.443 170.646 670.672 170.756C670.9 170.862 671.161 170.915 671.453 170.915C671.821 170.915 672.149 170.84 672.437 170.692C672.724 170.544 672.974 170.335 673.186 170.064L673.992 170.845C673.844 171.061 673.651 171.268 673.414 171.467C673.177 171.661 672.887 171.82 672.544 171.943C672.206 172.066 671.812 172.127 671.364 172.127ZM679.495 170.578V162.25H681.031V172H679.641L679.495 170.578ZM675.026 168.642V168.509C675.026 167.988 675.088 167.514 675.21 167.087C675.333 166.655 675.511 166.285 675.744 165.976C675.976 165.663 676.26 165.424 676.594 165.259C676.929 165.09 677.305 165.005 677.724 165.005C678.139 165.005 678.503 165.085 678.816 165.246C679.129 165.407 679.396 165.638 679.616 165.938C679.836 166.234 680.011 166.59 680.143 167.004C680.274 167.415 680.367 167.872 680.422 168.375V168.801C680.367 169.292 680.274 169.74 680.143 170.146C680.011 170.553 679.836 170.904 679.616 171.2C679.396 171.496 679.127 171.725 678.81 171.886C678.496 172.047 678.13 172.127 677.711 172.127C677.297 172.127 676.922 172.04 676.588 171.867C676.258 171.693 675.976 171.45 675.744 171.137C675.511 170.824 675.333 170.455 675.21 170.032C675.088 169.605 675.026 169.141 675.026 168.642ZM676.556 168.509V168.642C676.556 168.955 676.584 169.247 676.639 169.518C676.698 169.789 676.789 170.028 676.912 170.235C677.034 170.438 677.193 170.599 677.388 170.718C677.587 170.832 677.824 170.889 678.099 170.889C678.446 170.889 678.731 170.813 678.956 170.661C679.18 170.508 679.355 170.303 679.482 170.045C679.614 169.783 679.702 169.491 679.749 169.169V168.02C679.724 167.77 679.671 167.538 679.59 167.322C679.514 167.106 679.41 166.918 679.279 166.757C679.148 166.592 678.985 166.465 678.791 166.376C678.6 166.283 678.374 166.236 678.111 166.236C677.832 166.236 677.595 166.296 677.4 166.414C677.206 166.533 677.045 166.695 676.918 166.903C676.795 167.11 676.704 167.351 676.645 167.626C676.586 167.902 676.556 168.196 676.556 168.509Z" fill="white"/>
</g>
<g opacity="0.3">
<path d="M861.186 163.281L857.655 173H856.212L860.277 162.336H861.208L861.186 163.281ZM864.145 173L860.607 163.281L860.585 162.336H861.515L865.595 173H864.145ZM863.961 169.052V170.209H857.97V169.052H863.961ZM868.173 166.599V176.047H866.811V165.075H868.056L868.173 166.599ZM873.512 168.972V169.125C873.512 169.702 873.444 170.236 873.307 170.729C873.17 171.218 872.97 171.643 872.707 172.004C872.448 172.365 872.128 172.646 871.747 172.846C871.366 173.046 870.929 173.146 870.436 173.146C869.933 173.146 869.489 173.063 869.103 172.897C868.717 172.731 868.39 172.49 868.122 172.172C867.853 171.855 867.638 171.474 867.477 171.03C867.321 170.585 867.213 170.085 867.155 169.528V168.708C867.213 168.122 867.323 167.597 867.484 167.133C867.646 166.669 867.858 166.274 868.122 165.947C868.39 165.615 868.715 165.363 869.096 165.192C869.477 165.017 869.916 164.929 870.414 164.929C870.912 164.929 871.354 165.026 871.74 165.222C872.125 165.412 872.45 165.686 872.714 166.042C872.978 166.398 873.175 166.826 873.307 167.324C873.444 167.817 873.512 168.366 873.512 168.972ZM872.15 169.125V168.972C872.15 168.576 872.108 168.205 872.025 167.858C871.942 167.507 871.813 167.199 871.637 166.936C871.466 166.667 871.247 166.457 870.978 166.306C870.709 166.149 870.39 166.071 870.019 166.071C869.677 166.071 869.379 166.13 869.125 166.247C868.876 166.364 868.664 166.523 868.488 166.723C868.312 166.918 868.168 167.143 868.056 167.397C867.948 167.646 867.868 167.905 867.814 168.173V170.07C867.912 170.412 868.048 170.734 868.224 171.037C868.4 171.335 868.634 171.577 868.927 171.762C869.22 171.943 869.589 172.033 870.033 172.033C870.399 172.033 870.714 171.958 870.978 171.806C871.247 171.65 871.466 171.438 871.637 171.169C871.813 170.9 871.942 170.593 872.025 170.246C872.108 169.895 872.15 169.521 872.15 169.125ZM876.596 166.32V173H875.241V165.075H876.559L876.596 166.32ZM879.071 165.031L879.064 166.291C878.952 166.267 878.844 166.252 878.742 166.247C878.644 166.237 878.532 166.232 878.405 166.232C878.092 166.232 877.816 166.281 877.577 166.379C877.338 166.477 877.135 166.613 876.969 166.789C876.803 166.965 876.671 167.175 876.574 167.419C876.481 167.658 876.42 167.922 876.391 168.21L876.01 168.43C876.01 167.951 876.056 167.502 876.149 167.082C876.247 166.662 876.396 166.291 876.596 165.969C876.796 165.642 877.05 165.388 877.357 165.207C877.67 165.021 878.041 164.929 878.471 164.929C878.568 164.929 878.681 164.941 878.808 164.965C878.935 164.985 879.022 165.007 879.071 165.031ZM881.796 165.075V173H880.434V165.075H881.796ZM880.331 162.973C880.331 162.753 880.397 162.568 880.529 162.417C880.666 162.265 880.866 162.189 881.129 162.189C881.388 162.189 881.586 162.265 881.723 162.417C881.864 162.568 881.935 162.753 881.935 162.973C881.935 163.183 881.864 163.364 881.723 163.515C881.586 163.662 881.388 163.735 881.129 163.735C880.866 163.735 880.666 163.662 880.529 163.515C880.397 163.364 880.331 163.183 880.331 162.973ZM885.443 161.75V173H884.081V161.75H885.443ZM898.18 171.887V173H891.2V172.026L894.694 168.137C895.124 167.658 895.456 167.253 895.69 166.921C895.929 166.584 896.095 166.284 896.188 166.02C896.286 165.751 896.334 165.478 896.334 165.2C896.334 164.848 896.261 164.531 896.115 164.248C895.973 163.959 895.763 163.73 895.485 163.559C895.207 163.388 894.87 163.303 894.474 163.303C894 163.303 893.605 163.396 893.288 163.581C892.975 163.762 892.741 164.016 892.584 164.343C892.428 164.67 892.35 165.046 892.35 165.471H890.995C890.995 164.87 891.127 164.321 891.391 163.823C891.654 163.325 892.045 162.929 892.562 162.636C893.08 162.338 893.717 162.189 894.474 162.189C895.148 162.189 895.724 162.309 896.203 162.548C896.681 162.783 897.047 163.115 897.301 163.544C897.56 163.969 897.689 164.467 897.689 165.039C897.689 165.351 897.636 165.668 897.528 165.991C897.426 166.308 897.282 166.625 897.096 166.943C896.916 167.26 896.703 167.573 896.459 167.88C896.22 168.188 895.963 168.491 895.69 168.789L892.833 171.887H898.18ZM906.325 166.818V168.444C906.325 169.318 906.247 170.056 906.09 170.656C905.934 171.257 905.709 171.74 905.417 172.106C905.124 172.473 904.77 172.739 904.354 172.905C903.944 173.066 903.48 173.146 902.963 173.146C902.553 173.146 902.174 173.095 901.828 172.993C901.481 172.89 901.168 172.727 900.89 172.502C900.617 172.272 900.382 171.975 900.187 171.608C899.992 171.242 899.843 170.798 899.74 170.275C899.638 169.753 899.586 169.143 899.586 168.444V166.818C899.586 165.944 899.665 165.212 899.821 164.621C899.982 164.03 900.209 163.557 900.502 163.2C900.795 162.839 901.146 162.58 901.557 162.424C901.972 162.268 902.436 162.189 902.948 162.189C903.363 162.189 903.744 162.241 904.091 162.343C904.442 162.441 904.755 162.6 905.028 162.819C905.302 163.034 905.534 163.322 905.724 163.684C905.919 164.04 906.068 164.477 906.171 164.995C906.273 165.512 906.325 166.12 906.325 166.818ZM904.962 168.664V166.591C904.962 166.113 904.933 165.693 904.875 165.332C904.821 164.965 904.74 164.653 904.633 164.394C904.525 164.135 904.389 163.925 904.223 163.764C904.062 163.603 903.874 163.486 903.659 163.413C903.449 163.334 903.212 163.295 902.948 163.295C902.626 163.295 902.34 163.356 902.091 163.479C901.842 163.596 901.632 163.784 901.461 164.042C901.295 164.301 901.168 164.641 901.081 165.061C900.993 165.48 900.949 165.991 900.949 166.591V168.664C900.949 169.143 900.976 169.565 901.029 169.931C901.088 170.297 901.173 170.615 901.286 170.883C901.398 171.147 901.535 171.364 901.696 171.535C901.857 171.706 902.042 171.833 902.252 171.916C902.467 171.994 902.704 172.033 902.963 172.033C903.295 172.033 903.585 171.97 903.834 171.843C904.083 171.716 904.291 171.518 904.457 171.25C904.628 170.976 904.755 170.627 904.838 170.202C904.921 169.772 904.962 169.26 904.962 168.664ZM909.445 171.389V172.48C909.445 172.924 909.333 173.393 909.108 173.886C908.883 174.384 908.568 174.799 908.163 175.131L907.394 174.597C907.55 174.382 907.682 174.162 907.79 173.938C907.897 173.718 907.978 173.488 908.031 173.249C908.09 173.015 908.119 172.766 908.119 172.502V171.389H909.445ZM921.735 171.887V173H914.755V172.026L918.249 168.137C918.678 167.658 919.01 167.253 919.245 166.921C919.484 166.584 919.65 166.284 919.743 166.02C919.84 165.751 919.889 165.478 919.889 165.2C919.889 164.848 919.816 164.531 919.669 164.248C919.528 163.959 919.318 163.73 919.04 163.559C918.761 163.388 918.424 163.303 918.029 163.303C917.555 163.303 917.16 163.396 916.842 163.581C916.53 163.762 916.295 164.016 916.139 164.343C915.983 164.67 915.905 165.046 915.905 165.471H914.55C914.55 164.87 914.682 164.321 914.945 163.823C915.209 163.325 915.6 162.929 916.117 162.636C916.635 162.338 917.272 162.189 918.029 162.189C918.703 162.189 919.279 162.309 919.757 162.548C920.236 162.783 920.602 163.115 920.856 163.544C921.115 163.969 921.244 164.467 921.244 165.039C921.244 165.351 921.19 165.668 921.083 165.991C920.98 166.308 920.836 166.625 920.651 166.943C920.47 167.26 920.258 167.573 920.014 167.88C919.774 168.188 919.518 168.491 919.245 168.789L916.388 171.887H921.735ZM929.879 166.818V168.444C929.879 169.318 929.801 170.056 929.645 170.656C929.489 171.257 929.264 171.74 928.971 172.106C928.678 172.473 928.324 172.739 927.909 172.905C927.499 173.066 927.035 173.146 926.518 173.146C926.107 173.146 925.729 173.095 925.382 172.993C925.036 172.89 924.723 172.727 924.445 172.502C924.171 172.272 923.937 171.975 923.742 171.608C923.546 171.242 923.397 170.798 923.295 170.275C923.192 169.753 923.141 169.143 923.141 168.444V166.818C923.141 165.944 923.219 165.212 923.375 164.621C923.537 164.03 923.764 163.557 924.057 163.2C924.35 162.839 924.701 162.58 925.111 162.424C925.526 162.268 925.99 162.189 926.503 162.189C926.918 162.189 927.299 162.241 927.646 162.343C927.997 162.441 928.31 162.6 928.583 162.819C928.856 163.034 929.088 163.322 929.279 163.684C929.474 164.04 929.623 164.477 929.726 164.995C929.828 165.512 929.879 166.12 929.879 166.818ZM928.517 168.664V166.591C928.517 166.113 928.488 165.693 928.429 165.332C928.375 164.965 928.295 164.653 928.188 164.394C928.08 164.135 927.943 163.925 927.777 163.764C927.616 163.603 927.428 163.486 927.213 163.413C927.003 163.334 926.767 163.295 926.503 163.295C926.181 163.295 925.895 163.356 925.646 163.479C925.397 163.596 925.187 163.784 925.016 164.042C924.85 164.301 924.723 164.641 924.635 165.061C924.547 165.48 924.503 165.991 924.503 166.591V168.664C924.503 169.143 924.53 169.565 924.584 169.931C924.643 170.297 924.728 170.615 924.84 170.883C924.953 171.147 925.089 171.364 925.25 171.535C925.412 171.706 925.597 171.833 925.807 171.916C926.022 171.994 926.259 172.033 926.518 172.033C926.85 172.033 927.14 171.97 927.389 171.843C927.638 171.716 927.846 171.518 928.012 171.25C928.183 170.976 928.31 170.627 928.393 170.202C928.476 169.772 928.517 169.26 928.517 168.664ZM938.61 171.887V173H931.63V172.026L935.124 168.137C935.553 167.658 935.885 167.253 936.12 166.921C936.359 166.584 936.525 166.284 936.618 166.02C936.715 165.751 936.764 165.478 936.764 165.2C936.764 164.848 936.691 164.531 936.544 164.248C936.403 163.959 936.193 163.73 935.915 163.559C935.636 163.388 935.299 163.303 934.904 163.303C934.43 163.303 934.035 163.396 933.717 163.581C933.405 163.762 933.17 164.016 933.014 164.343C932.858 164.67 932.78 165.046 932.78 165.471H931.425C931.425 164.87 931.557 164.321 931.82 163.823C932.084 163.325 932.475 162.929 932.992 162.636C933.51 162.338 934.147 162.189 934.904 162.189C935.578 162.189 936.154 162.309 936.632 162.548C937.111 162.783 937.477 163.115 937.731 163.544C937.99 163.969 938.119 164.467 938.119 165.039C938.119 165.351 938.065 165.668 937.958 165.991C937.855 166.308 937.711 166.625 937.526 166.943C937.345 167.26 937.133 167.573 936.889 167.88C936.649 168.188 936.393 168.491 936.12 168.789L933.263 171.887H938.61ZM947.047 171.887V173H940.067V172.026L943.561 168.137C943.991 167.658 944.323 167.253 944.557 166.921C944.796 166.584 944.962 166.284 945.055 166.02C945.153 165.751 945.202 165.478 945.202 165.2C945.202 164.848 945.128 164.531 944.982 164.248C944.84 163.959 944.63 163.73 944.352 163.559C944.074 163.388 943.737 163.303 943.341 163.303C942.868 163.303 942.472 163.396 942.155 163.581C941.842 163.762 941.608 164.016 941.452 164.343C941.295 164.67 941.217 165.046 941.217 165.471H939.862C939.862 164.87 939.994 164.321 940.258 163.823C940.521 163.325 940.912 162.929 941.43 162.636C941.947 162.338 942.584 162.189 943.341 162.189C944.015 162.189 944.591 162.309 945.07 162.548C945.548 162.783 945.915 163.115 946.168 163.544C946.427 163.969 946.557 164.467 946.557 165.039C946.557 165.351 946.503 165.668 946.396 165.991C946.293 166.308 946.149 166.625 945.963 166.943C945.783 167.26 945.57 167.573 945.326 167.88C945.087 168.188 944.831 168.491 944.557 168.789L941.701 171.887H947.047ZM956.671 162.277V173H955.316V163.969L952.584 164.965V163.742L956.459 162.277H956.671ZM965.109 162.277V173H963.754V163.969L961.022 164.965V163.742L964.896 162.277H965.109ZM969.181 172.282C969.181 172.053 969.252 171.86 969.394 171.704C969.54 171.542 969.75 171.462 970.023 171.462C970.297 171.462 970.504 171.542 970.646 171.704C970.792 171.86 970.866 172.053 970.866 172.282C970.866 172.507 970.792 172.697 970.646 172.854C970.504 173.01 970.297 173.088 970.023 173.088C969.75 173.088 969.54 173.01 969.394 172.854C969.252 172.697 969.181 172.507 969.181 172.282ZM969.188 165.815C969.188 165.585 969.259 165.393 969.401 165.236C969.547 165.075 969.757 164.995 970.031 164.995C970.304 164.995 970.512 165.075 970.653 165.236C970.8 165.393 970.873 165.585 970.873 165.815C970.873 166.04 970.8 166.23 970.653 166.386C970.512 166.542 970.304 166.621 970.031 166.621C969.757 166.621 969.547 166.542 969.401 166.386C969.259 166.23 969.188 166.04 969.188 165.815ZM979.42 166.818V168.444C979.42 169.318 979.342 170.056 979.186 170.656C979.03 171.257 978.805 171.74 978.512 172.106C978.219 172.473 977.865 172.739 977.45 172.905C977.04 173.066 976.576 173.146 976.059 173.146C975.648 173.146 975.27 173.095 974.923 172.993C974.577 172.89 974.264 172.727 973.986 172.502C973.712 172.272 973.478 171.975 973.283 171.608C973.087 171.242 972.938 170.798 972.836 170.275C972.733 169.753 972.682 169.143 972.682 168.444V166.818C972.682 165.944 972.76 165.212 972.917 164.621C973.078 164.03 973.305 163.557 973.598 163.2C973.891 162.839 974.242 162.58 974.652 162.424C975.067 162.268 975.531 162.189 976.044 162.189C976.459 162.189 976.84 162.241 977.187 162.343C977.538 162.441 977.851 162.6 978.124 162.819C978.397 163.034 978.629 163.322 978.82 163.684C979.015 164.04 979.164 164.477 979.267 164.995C979.369 165.512 979.42 166.12 979.42 166.818ZM978.058 168.664V166.591C978.058 166.113 978.029 165.693 977.97 165.332C977.917 164.965 977.836 164.653 977.729 164.394C977.621 164.135 977.484 163.925 977.318 163.764C977.157 163.603 976.969 163.486 976.754 163.413C976.544 163.334 976.308 163.295 976.044 163.295C975.722 163.295 975.436 163.356 975.187 163.479C974.938 163.596 974.728 163.784 974.557 164.042C974.391 164.301 974.264 164.641 974.176 165.061C974.088 165.48 974.044 165.991 974.044 166.591V168.664C974.044 169.143 974.071 169.565 974.125 169.931C974.184 170.297 974.269 170.615 974.381 170.883C974.494 171.147 974.63 171.364 974.792 171.535C974.953 171.706 975.138 171.833 975.348 171.916C975.563 171.994 975.8 172.033 976.059 172.033C976.391 172.033 976.681 171.97 976.93 171.843C977.179 171.716 977.387 171.518 977.553 171.25C977.724 170.976 977.851 170.627 977.934 170.202C978.017 169.772 978.058 169.26 978.058 168.664ZM987.858 166.818V168.444C987.858 169.318 987.78 170.056 987.624 170.656C987.467 171.257 987.243 171.74 986.95 172.106C986.657 172.473 986.303 172.739 985.888 172.905C985.478 173.066 985.014 173.146 984.496 173.146C984.086 173.146 983.708 173.095 983.361 172.993C983.014 172.89 982.702 172.727 982.423 172.502C982.15 172.272 981.916 171.975 981.72 171.608C981.525 171.242 981.376 170.798 981.273 170.275C981.171 169.753 981.12 169.143 981.12 168.444V166.818C981.12 165.944 981.198 165.212 981.354 164.621C981.515 164.03 981.742 163.557 982.035 163.2C982.328 162.839 982.68 162.58 983.09 162.424C983.505 162.268 983.969 162.189 984.481 162.189C984.896 162.189 985.277 162.241 985.624 162.343C985.976 162.441 986.288 162.6 986.562 162.819C986.835 163.034 987.067 163.322 987.257 163.684C987.453 164.04 987.602 164.477 987.704 164.995C987.807 165.512 987.858 166.12 987.858 166.818ZM986.496 168.664V166.591C986.496 166.113 986.466 165.693 986.408 165.332C986.354 164.965 986.273 164.653 986.166 164.394C986.059 164.135 985.922 163.925 985.756 163.764C985.595 163.603 985.407 163.486 985.192 163.413C984.982 163.334 984.745 163.295 984.481 163.295C984.159 163.295 983.874 163.356 983.625 163.479C983.375 163.596 983.166 163.784 982.995 164.042C982.829 164.301 982.702 164.641 982.614 165.061C982.526 165.48 982.482 165.991 982.482 166.591V168.664C982.482 169.143 982.509 169.565 982.562 169.931C982.621 170.297 982.707 170.615 982.819 170.883C982.931 171.147 983.068 171.364 983.229 171.535C983.39 171.706 983.576 171.833 983.786 171.916C984 171.994 984.237 172.033 984.496 172.033C984.828 172.033 985.119 171.97 985.368 171.843C985.617 171.716 985.824 171.518 985.99 171.25C986.161 170.976 986.288 170.627 986.371 170.202C986.454 169.772 986.496 169.26 986.496 168.664ZM998.141 171.645V167.565C998.141 167.253 998.078 166.982 997.951 166.752C997.829 166.518 997.643 166.337 997.394 166.21C997.145 166.083 996.837 166.02 996.471 166.02C996.129 166.02 995.829 166.079 995.57 166.196C995.316 166.313 995.116 166.467 994.97 166.657C994.828 166.848 994.757 167.053 994.757 167.272H993.402C993.402 166.989 993.476 166.708 993.622 166.43C993.769 166.152 993.979 165.9 994.252 165.676C994.53 165.446 994.862 165.266 995.248 165.134C995.639 164.997 996.073 164.929 996.552 164.929C997.128 164.929 997.636 165.026 998.075 165.222C998.52 165.417 998.866 165.712 999.115 166.108C999.369 166.499 999.496 166.989 999.496 167.58V171.271C999.496 171.535 999.518 171.816 999.562 172.114C999.611 172.412 999.682 172.668 999.774 172.883V173H998.361C998.292 172.844 998.239 172.636 998.2 172.377C998.161 172.114 998.141 171.87 998.141 171.645ZM998.375 168.195L998.39 169.147H997.021C996.635 169.147 996.291 169.179 995.988 169.243C995.685 169.301 995.431 169.392 995.226 169.514C995.021 169.636 994.865 169.79 994.757 169.975C994.65 170.156 994.596 170.368 994.596 170.612C994.596 170.861 994.652 171.088 994.765 171.293C994.877 171.499 995.045 171.662 995.27 171.784C995.5 171.901 995.78 171.96 996.112 171.96C996.527 171.96 996.894 171.872 997.211 171.696C997.528 171.521 997.78 171.306 997.965 171.052C998.156 170.798 998.258 170.551 998.273 170.312L998.852 170.964C998.817 171.169 998.725 171.396 998.573 171.645C998.422 171.894 998.219 172.133 997.965 172.363C997.716 172.587 997.418 172.775 997.072 172.927C996.73 173.073 996.344 173.146 995.915 173.146C995.377 173.146 994.906 173.042 994.501 172.832C994.101 172.622 993.788 172.341 993.563 171.989C993.344 171.633 993.234 171.235 993.234 170.795C993.234 170.371 993.317 169.997 993.483 169.675C993.649 169.348 993.888 169.077 994.201 168.862C994.513 168.642 994.889 168.476 995.329 168.364C995.768 168.251 996.259 168.195 996.801 168.195H998.375ZM1002.98 166.65V173H1001.61V165.075H1002.9L1002.98 166.65ZM1002.7 168.737L1002.07 168.715C1002.07 168.173 1002.14 167.673 1002.28 167.214C1002.42 166.75 1002.62 166.347 1002.89 166.005C1003.16 165.664 1003.49 165.4 1003.89 165.214C1004.29 165.024 1004.75 164.929 1005.28 164.929C1005.65 164.929 1006 164.982 1006.31 165.09C1006.62 165.192 1006.89 165.356 1007.12 165.581C1007.35 165.805 1007.53 166.093 1007.66 166.445C1007.78 166.796 1007.85 167.221 1007.85 167.719V173H1006.49V167.785C1006.49 167.37 1006.42 167.038 1006.28 166.789C1006.14 166.54 1005.95 166.359 1005.69 166.247C1005.44 166.13 1005.14 166.071 1004.8 166.071C1004.4 166.071 1004.06 166.142 1003.8 166.284C1003.53 166.425 1003.31 166.621 1003.15 166.87C1002.99 167.119 1002.87 167.404 1002.8 167.727C1002.73 168.044 1002.7 168.381 1002.7 168.737ZM1007.83 167.99L1006.92 168.269C1006.93 167.834 1007 167.417 1007.14 167.016C1007.28 166.616 1007.48 166.259 1007.74 165.947C1008.01 165.634 1008.34 165.388 1008.73 165.207C1009.12 165.021 1009.57 164.929 1010.07 164.929C1010.5 164.929 1010.87 164.985 1011.2 165.097C1011.53 165.209 1011.81 165.383 1012.04 165.617C1012.26 165.847 1012.44 166.142 1012.56 166.503C1012.67 166.865 1012.73 167.294 1012.73 167.792V173H1011.37V167.778C1011.37 167.333 1011.3 166.989 1011.16 166.745C1011.02 166.496 1010.82 166.323 1010.57 166.225C1010.32 166.123 1010.02 166.071 1009.68 166.071C1009.38 166.071 1009.12 166.123 1008.89 166.225C1008.66 166.328 1008.46 166.469 1008.31 166.65C1008.15 166.826 1008.03 167.028 1007.95 167.258C1007.87 167.487 1007.83 167.731 1007.83 167.99Z" fill="#737373"/>
</g>
<path d="M1116.98 163.362C1117.27 163.659 1117.42 164.011 1117.42 164.418C1117.42 164.825 1117.27 165.178 1116.98 165.475L1115.79 166.626L1112.63 163.573L1113.82 162.423C1114.13 162.141 1114.5 162 1114.92 162C1115.34 162 1115.7 162.141 1116.01 162.423L1116.98 163.362ZM1106.44 169.584L1112.1 164.09L1115.26 167.142L1109.6 172.613C1109.34 172.864 1109.03 173.044 1108.67 173.153L1105.76 173.975C1105.53 174.038 1105.34 173.983 1105.17 173.811C1105.01 173.67 1104.96 173.49 1105.03 173.271L1105.88 170.453C1105.99 170.109 1106.18 169.819 1106.44 169.584ZM1118.42 172.871C1118.77 172.903 1118.97 173.091 1119 173.435C1118.97 173.779 1118.77 173.967 1118.42 173.998H1111.03C1110.67 173.967 1110.48 173.779 1110.45 173.435C1110.48 173.091 1110.67 172.903 1111.03 172.871H1118.42Z" fill="#1A1A1A"/>
<path d="M1149.28 168C1149.28 166.526 1150.47 165.375 1152 165.375C1153.5 165.375 1154.72 166.526 1154.72 168C1154.72 169.449 1153.5 170.625 1152 170.625C1150.47 170.625 1149.28 169.449 1149.28 168ZM1152 166.688C1151.25 166.688 1150.64 167.275 1150.64 168C1150.64 168.725 1151.25 169.312 1152 169.312C1152.75 169.312 1153.36 168.725 1153.36 168C1153.36 167.275 1152.75 166.688 1152 166.688ZM1153.05 161C1153.68 161 1154.23 161.415 1154.38 162.005L1154.6 162.892C1154.84 163.006 1155.07 163.135 1155.29 163.277L1156.2 163.019C1156.8 162.847 1157.45 163.096 1157.77 163.621L1158.82 165.378C1159.13 165.903 1159.03 166.567 1158.58 166.986L1157.89 167.593C1157.9 167.743 1157.9 167.871 1157.9 168C1157.9 168.129 1157.9 168.257 1157.89 168.383L1158.58 169.014C1159.03 169.433 1159.13 170.097 1158.82 170.622L1157.77 172.378C1157.45 172.903 1156.8 173.152 1156.2 172.982L1155.29 172.722C1155.07 172.864 1154.84 172.993 1154.6 173.108L1154.38 173.996C1154.23 174.584 1153.68 175 1153.05 175H1150.95C1150.32 175 1149.77 174.584 1149.62 173.996L1149.4 173.108C1149.16 172.993 1148.93 172.864 1148.71 172.722L1147.77 172.982C1147.2 173.152 1146.55 172.903 1146.24 172.378L1145.18 170.622C1144.87 170.097 1144.97 169.433 1145.42 169.014L1146.11 168.383C1146.1 168.257 1146.1 168.129 1146.1 167.975C1146.1 167.871 1146.1 167.743 1146.11 167.593L1145.42 166.986C1144.97 166.567 1144.87 165.903 1145.18 165.378L1146.24 163.621C1146.55 163.096 1147.2 162.847 1147.77 163.019L1148.71 163.277C1148.93 163.135 1149.16 163.006 1149.4 162.892L1149.62 162.005C1149.77 161.415 1150.32 161 1150.95 161L1153.05 161ZM1150.57 163.833L1150.25 163.961C1149.89 164.106 1149.55 164.295 1149.25 164.519L1148.98 164.721L1147.42 164.279L1146.36 166.034L1147.54 167.114L1147.5 167.442C1147.47 167.625 1147.46 167.811 1147.46 168C1147.46 168.189 1147.47 168.375 1147.5 168.558L1147.54 168.886L1146.36 169.966L1147.42 171.721L1148.98 171.279L1149.25 171.481C1149.55 171.705 1149.89 171.894 1150.25 172.039L1150.57 172.167L1150.95 173.688H1153.05L1153.43 172.167L1153.75 172.039C1154.11 171.894 1154.45 171.705 1154.75 171.481L1155.03 171.279L1156.59 171.721L1157.64 169.966L1156.46 168.886L1156.5 168.558C1156.53 168.375 1156.54 168.189 1156.54 168C1156.54 167.811 1156.53 167.625 1156.5 167.442L1156.46 167.114L1157.64 166.034L1156.59 164.279L1155.03 164.721L1154.75 164.519C1154.45 164.295 1154.11 164.106 1153.75 163.961L1153.43 163.833L1153.05 162.312H1150.95L1150.57 163.833Z" fill="#1A1A1A"/>
<path d="M1192 172.4C1191.74 172.4 1191.49 172.297 1191.29 172.092L1185.29 165.792C1184.9 165.382 1184.9 164.718 1185.29 164.308C1185.68 163.897 1186.32 163.897 1186.71 164.308L1192 169.867L1197.29 164.308C1197.68 163.898 1198.32 163.898 1198.71 164.308C1199.1 164.719 1199.1 165.383 1198.71 165.793L1192.71 172.093C1192.51 172.298 1192.26 172.4 1192 172.4Z" fill="#1A1A1A"/>
</g>
<g filter="url(#filter2_dd_7351_86599)">
<rect width="1200" height="64" transform="translate(40 200)" fill="white"/>
<rect x="72" y="222" width="20" height="20" rx="4" fill="url(#paint8_linear_7351_86599)"/>
<rect x="124" y="222" width="48" height="20" rx="4" fill="url(#paint9_linear_7351_86599)"/>
<rect x="204" y="222" width="279" height="20" rx="4" fill="url(#paint10_linear_7351_86599)"/>
<rect x="515" y="222" width="279" height="20" rx="4" fill="url(#paint11_linear_7351_86599)"/>
<rect x="826" y="222" width="168" height="20" rx="4" fill="url(#paint12_linear_7351_86599)"/>
<rect x="1026" y="222" width="78" height="20" rx="4" fill="url(#paint13_linear_7351_86599)"/>
<rect x="1136" y="216" width="32" height="32" rx="4" fill="url(#paint14_linear_7351_86599)"/>
<rect x="1176" y="216" width="32" height="32" rx="4" fill="url(#paint15_linear_7351_86599)"/>
</g>
</g>
<rect x="40.5" y="72.5" width="1199" height="191" rx="7.5" stroke="#E6E6E6"/>
<path d="M193.699 42.4512V51H192.012V44.3965L189.984 45.041V43.7109L193.518 42.4512H193.699ZM200.83 42.3809H201.076V43.7285H200.977C200.531 43.7285 200.135 43.7949 199.787 43.9277C199.439 44.0605 199.145 44.25 198.902 44.4961C198.664 44.7383 198.48 45.0312 198.352 45.375C198.227 45.7188 198.164 46.1035 198.164 46.5293V47.9473C198.164 48.252 198.193 48.5215 198.252 48.7559C198.314 48.9863 198.402 49.1797 198.516 49.3359C198.633 49.4883 198.77 49.6035 198.926 49.6816C199.082 49.7559 199.258 49.793 199.453 49.793C199.637 49.793 199.803 49.7539 199.951 49.6758C200.104 49.5977 200.232 49.4883 200.338 49.3477C200.447 49.2031 200.529 49.0352 200.584 48.8438C200.643 48.6484 200.672 48.4355 200.672 48.2051C200.672 47.9746 200.643 47.7617 200.584 47.5664C200.529 47.3711 200.447 47.2031 200.338 47.0625C200.229 46.918 200.096 46.8066 199.939 46.7285C199.783 46.6504 199.607 46.6113 199.412 46.6113C199.146 46.6113 198.912 46.6738 198.709 46.7988C198.51 46.9199 198.354 47.0762 198.24 47.2676C198.127 47.459 198.066 47.6602 198.059 47.8711L197.549 47.543C197.561 47.2422 197.623 46.957 197.736 46.6875C197.854 46.418 198.014 46.1797 198.217 45.9727C198.424 45.7617 198.672 45.5977 198.961 45.4805C199.25 45.3594 199.576 45.2988 199.939 45.2988C200.338 45.2988 200.688 45.375 200.988 45.5273C201.293 45.6797 201.547 45.8887 201.75 46.1543C201.953 46.4199 202.105 46.7266 202.207 47.0742C202.309 47.4219 202.359 47.793 202.359 48.1875C202.359 48.6016 202.291 48.9863 202.154 49.3418C202.021 49.6973 201.828 50.0078 201.574 50.2734C201.324 50.5391 201.023 50.7461 200.672 50.8945C200.32 51.043 199.926 51.1172 199.488 51.1172C199.035 51.1172 198.623 51.0352 198.252 50.8711C197.885 50.7031 197.568 50.4688 197.303 50.168C197.037 49.8672 196.832 49.5098 196.688 49.0957C196.547 48.6816 196.477 48.2285 196.477 47.7363V47.0801C196.477 46.3926 196.576 45.7637 196.775 45.1934C196.979 44.6191 197.27 44.123 197.648 43.7051C198.027 43.2832 198.484 42.957 199.02 42.7266C199.555 42.4961 200.158 42.3809 200.83 42.3809Z" fill="#18BB4B"/>
<rect x="188" y="56" width="1" height="224" fill="#18BB4B"/>
<rect opacity="0.9" x="189" y="56" width="14" height="224" fill="#18BB4B" fill-opacity="0.2"/>
<rect x="203" y="56" width="1" height="224" fill="#18BB4B"/>
<path d="M518.699 42.4512V51H517.012V44.3965L514.984 45.041V43.7109L518.518 42.4512H518.699ZM525.83 42.3809H526.076V43.7285H525.977C525.531 43.7285 525.135 43.7949 524.787 43.9277C524.439 44.0605 524.145 44.25 523.902 44.4961C523.664 44.7383 523.48 45.0312 523.352 45.375C523.227 45.7188 523.164 46.1035 523.164 46.5293V47.9473C523.164 48.252 523.193 48.5215 523.252 48.7559C523.314 48.9863 523.402 49.1797 523.516 49.3359C523.633 49.4883 523.77 49.6035 523.926 49.6816C524.082 49.7559 524.258 49.793 524.453 49.793C524.637 49.793 524.803 49.7539 524.951 49.6758C525.104 49.5977 525.232 49.4883 525.338 49.3477C525.447 49.2031 525.529 49.0352 525.584 48.8438C525.643 48.6484 525.672 48.4355 525.672 48.2051C525.672 47.9746 525.643 47.7617 525.584 47.5664C525.529 47.3711 525.447 47.2031 525.338 47.0625C525.229 46.918 525.096 46.8066 524.939 46.7285C524.783 46.6504 524.607 46.6113 524.412 46.6113C524.146 46.6113 523.912 46.6738 523.709 46.7988C523.51 46.9199 523.354 47.0762 523.24 47.2676C523.127 47.459 523.066 47.6602 523.059 47.8711L522.549 47.543C522.561 47.2422 522.623 46.957 522.736 46.6875C522.854 46.418 523.014 46.1797 523.217 45.9727C523.424 45.7617 523.672 45.5977 523.961 45.4805C524.25 45.3594 524.576 45.2988 524.939 45.2988C525.338 45.2988 525.688 45.375 525.988 45.5273C526.293 45.6797 526.547 45.8887 526.75 46.1543C526.953 46.4199 527.105 46.7266 527.207 47.0742C527.309 47.4219 527.359 47.793 527.359 48.1875C527.359 48.6016 527.291 48.9863 527.154 49.3418C527.021 49.6973 526.828 50.0078 526.574 50.2734C526.324 50.5391 526.023 50.7461 525.672 50.8945C525.32 51.043 524.926 51.1172 524.488 51.1172C524.035 51.1172 523.623 51.0352 523.252 50.8711C522.885 50.7031 522.568 50.4688 522.303 50.168C522.037 49.8672 521.832 49.5098 521.688 49.0957C521.547 48.6816 521.477 48.2285 521.477 47.7363V47.0801C521.477 46.3926 521.576 45.7637 521.775 45.1934C521.979 44.6191 522.27 44.123 522.648 43.7051C523.027 43.2832 523.484 42.957 524.02 42.7266C524.555 42.4961 525.158 42.3809 525.83 42.3809Z" fill="#18BB4B"/>
<rect x="513" y="56" width="1" height="224" fill="#18BB4B"/>
<rect opacity="0.9" x="514" y="56" width="14" height="224" fill="#18BB4B" fill-opacity="0.2"/>
<rect x="528" y="56" width="1" height="224" fill="#18BB4B"/>
<path d="M160.699 138.451V147H159.012V140.396L156.984 141.041V139.711L160.518 138.451H160.699ZM167.83 138.381H168.076V139.729H167.977C167.531 139.729 167.135 139.795 166.787 139.928C166.439 140.061 166.145 140.25 165.902 140.496C165.664 140.738 165.48 141.031 165.352 141.375C165.227 141.719 165.164 142.104 165.164 142.529V143.947C165.164 144.252 165.193 144.521 165.252 144.756C165.314 144.986 165.402 145.18 165.516 145.336C165.633 145.488 165.77 145.604 165.926 145.682C166.082 145.756 166.258 145.793 166.453 145.793C166.637 145.793 166.803 145.754 166.951 145.676C167.104 145.598 167.232 145.488 167.338 145.348C167.447 145.203 167.529 145.035 167.584 144.844C167.643 144.648 167.672 144.436 167.672 144.205C167.672 143.975 167.643 143.762 167.584 143.566C167.529 143.371 167.447 143.203 167.338 143.062C167.229 142.918 167.096 142.807 166.939 142.729C166.783 142.65 166.607 142.611 166.412 142.611C166.146 142.611 165.912 142.674 165.709 142.799C165.51 142.92 165.354 143.076 165.24 143.268C165.127 143.459 165.066 143.66 165.059 143.871L164.549 143.543C164.561 143.242 164.623 142.957 164.736 142.688C164.854 142.418 165.014 142.18 165.217 141.973C165.424 141.762 165.672 141.598 165.961 141.48C166.25 141.359 166.576 141.299 166.939 141.299C167.338 141.299 167.688 141.375 167.988 141.527C168.293 141.68 168.547 141.889 168.75 142.154C168.953 142.42 169.105 142.727 169.207 143.074C169.309 143.422 169.359 143.793 169.359 144.188C169.359 144.602 169.291 144.986 169.154 145.342C169.021 145.697 168.828 146.008 168.574 146.273C168.324 146.539 168.023 146.746 167.672 146.895C167.32 147.043 166.926 147.117 166.488 147.117C166.035 147.117 165.623 147.035 165.252 146.871C164.885 146.703 164.568 146.469 164.303 146.168C164.037 145.867 163.832 145.51 163.688 145.096C163.547 144.682 163.477 144.229 163.477 143.736V143.08C163.477 142.393 163.576 141.764 163.775 141.193C163.979 140.619 164.27 140.123 164.648 139.705C165.027 139.283 165.484 138.957 166.02 138.727C166.555 138.496 167.158 138.381 167.83 138.381Z" fill="#18BB4B"/>
<rect x="172" y="151" width="1" height="373" transform="rotate(-90 172 151)" fill="#18BB4B"/>
<rect opacity="0.9" x="172" y="150" width="14" height="373" transform="rotate(-90 172 150)" fill="#18BB4B" fill-opacity="0.2"/>
<rect x="172" y="136" width="1" height="373" transform="rotate(-90 172 136)" fill="#18BB4B"/>
<path d="M160.699 187.451V196H159.012V189.396L156.984 190.041V188.711L160.518 187.451H160.699ZM167.83 187.381H168.076V188.729H167.977C167.531 188.729 167.135 188.795 166.787 188.928C166.439 189.061 166.145 189.25 165.902 189.496C165.664 189.738 165.48 190.031 165.352 190.375C165.227 190.719 165.164 191.104 165.164 191.529V192.947C165.164 193.252 165.193 193.521 165.252 193.756C165.314 193.986 165.402 194.18 165.516 194.336C165.633 194.488 165.77 194.604 165.926 194.682C166.082 194.756 166.258 194.793 166.453 194.793C166.637 194.793 166.803 194.754 166.951 194.676C167.104 194.598 167.232 194.488 167.338 194.348C167.447 194.203 167.529 194.035 167.584 193.844C167.643 193.648 167.672 193.436 167.672 193.205C167.672 192.975 167.643 192.762 167.584 192.566C167.529 192.371 167.447 192.203 167.338 192.062C167.229 191.918 167.096 191.807 166.939 191.729C166.783 191.65 166.607 191.611 166.412 191.611C166.146 191.611 165.912 191.674 165.709 191.799C165.51 191.92 165.354 192.076 165.24 192.268C165.127 192.459 165.066 192.66 165.059 192.871L164.549 192.543C164.561 192.242 164.623 191.957 164.736 191.688C164.854 191.418 165.014 191.18 165.217 190.973C165.424 190.762 165.672 190.598 165.961 190.48C166.25 190.359 166.576 190.299 166.939 190.299C167.338 190.299 167.688 190.375 167.988 190.527C168.293 190.68 168.547 190.889 168.75 191.154C168.953 191.42 169.105 191.727 169.207 192.074C169.309 192.422 169.359 192.793 169.359 193.188C169.359 193.602 169.291 193.986 169.154 194.342C169.021 194.697 168.828 195.008 168.574 195.273C168.324 195.539 168.023 195.746 167.672 195.895C167.32 196.043 166.926 196.117 166.488 196.117C166.035 196.117 165.623 196.035 165.252 195.871C164.885 195.703 164.568 195.469 164.303 195.168C164.037 194.867 163.832 194.51 163.688 194.096C163.547 193.682 163.477 193.229 163.477 192.736V192.08C163.477 191.393 163.576 190.764 163.775 190.193C163.979 189.619 164.27 189.123 164.648 188.705C165.027 188.283 165.484 187.957 166.02 187.727C166.555 187.496 167.158 187.381 167.83 187.381Z" fill="#18BB4B"/>
<rect x="172" y="200" width="1" height="373" transform="rotate(-90 172 200)" fill="#18BB4B"/>
<rect opacity="0.9" x="172" y="199" width="14" height="373" transform="rotate(-90 172 199)" fill="#18BB4B" fill-opacity="0.2"/>
<rect x="172" y="185" width="1" height="373" transform="rotate(-90 172 185)" fill="#18BB4B"/>
<line x1="32" y1="151.5" x2="1248" y2="151.5" stroke="#0059FF" stroke-dasharray="2 2"/>
<line x1="32" y1="184.5" x2="1248" y2="184.5" stroke="#0059FF" stroke-dasharray="2 2"/>
<defs>
<filter id="filter0_dd_7351_86599" x="40" y="71" width="1200" height="66" filterUnits="userSpaceOnUse" color-interpolation-filters="sRGB">
<feFlood flood-opacity="0" result="BackgroundImageFix"/>
<feColorMatrix in="SourceAlpha" type="matrix" values="0 0 0 0 0 0 0 0 0 0 0 0 0 0 0 0 0 0 127 0" result="hardAlpha"/>
<feOffset dy="1"/>
<feComposite in2="hardAlpha" operator="out"/>
<feColorMatrix type="matrix" values="0 0 0 0 0.901961 0 0 0 0 0.901961 0 0 0 0 0.901961 0 0 0 1 0"/>
<feBlend mode="normal" in2="BackgroundImageFix" result="effect1_dropShadow_7351_86599"/>
<feColorMatrix in="SourceAlpha" type="matrix" values="0 0 0 0 0 0 0 0 0 0 0 0 0 0 0 0 0 0 127 0" result="hardAlpha"/>
<feOffset dy="-1"/>
<feComposite in2="hardAlpha" operator="out"/>
<feColorMatrix type="matrix" values="0 0 0 0 0.901961 0 0 0 0 0.901961 0 0 0 0 0.901961 0 0 0 1 0"/>
<feBlend mode="normal" in2="effect1_dropShadow_7351_86599" result="effect2_dropShadow_7351_86599"/>
<feBlend mode="normal" in="SourceGraphic" in2="effect2_dropShadow_7351_86599" result="shape"/>
</filter>
<filter id="filter1_dd_7351_86599" x="40" y="135" width="1200" height="66" filterUnits="userSpaceOnUse" color-interpolation-filters="sRGB">
<feFlood flood-opacity="0" result="BackgroundImageFix"/>
<feColorMatrix in="SourceAlpha" type="matrix" values="0 0 0 0 0 0 0 0 0 0 0 0 0 0 0 0 0 0 127 0" result="hardAlpha"/>
<feOffset dy="1"/>
<feComposite in2="hardAlpha" operator="out"/>
<feColorMatrix type="matrix" values="0 0 0 0 0.901961 0 0 0 0 0.901961 0 0 0 0 0.901961 0 0 0 1 0"/>
<feBlend mode="normal" in2="BackgroundImageFix" result="effect1_dropShadow_7351_86599"/>
<feColorMatrix in="SourceAlpha" type="matrix" values="0 0 0 0 0 0 0 0 0 0 0 0 0 0 0 0 0 0 127 0" result="hardAlpha"/>
<feOffset dy="-1"/>
<feComposite in2="hardAlpha" operator="out"/>
<feColorMatrix type="matrix" values="0 0 0 0 0.901961 0 0 0 0 0.901961 0 0 0 0 0.901961 0 0 0 1 0"/>
<feBlend mode="normal" in2="effect1_dropShadow_7351_86599" result="effect2_dropShadow_7351_86599"/>
<feBlend mode="normal" in="SourceGraphic" in2="effect2_dropShadow_7351_86599" result="shape"/>
</filter>
<filter id="filter2_dd_7351_86599" x="40" y="199" width="1200" height="66" filterUnits="userSpaceOnUse" color-interpolation-filters="sRGB">
<feFlood flood-opacity="0" result="BackgroundImageFix"/>
<feColorMatrix in="SourceAlpha" type="matrix" values="0 0 0 0 0 0 0 0 0 0 0 0 0 0 0 0 0 0 127 0" result="hardAlpha"/>
<feOffset dy="1"/>
<feComposite in2="hardAlpha" operator="out"/>
<feColorMatrix type="matrix" values="0 0 0 0 0.901961 0 0 0 0 0.901961 0 0 0 0 0.901961 0 0 0 1 0"/>
<feBlend mode="normal" in2="BackgroundImageFix" result="effect1_dropShadow_7351_86599"/>
<feColorMatrix in="SourceAlpha" type="matrix" values="0 0 0 0 0 0 0 0 0 0 0 0 0 0 0 0 0 0 127 0" result="hardAlpha"/>
<feOffset dy="-1"/>
<feComposite in2="hardAlpha" operator="out"/>
<feColorMatrix type="matrix" values="0 0 0 0 0.901961 0 0 0 0 0.901961 0 0 0 0 0.901961 0 0 0 1 0"/>
<feBlend mode="normal" in2="effect1_dropShadow_7351_86599" result="effect2_dropShadow_7351_86599"/>
<feBlend mode="normal" in="SourceGraphic" in2="effect2_dropShadow_7351_86599" result="shape"/>
</filter>
<linearGradient id="paint0_linear_7351_86599" x1="70.5973" y1="81.9167" x2="95.902" y2="83.5827" gradientUnits="userSpaceOnUse">
<stop stop-color="#E6E6E6"/>
<stop offset="0.0452461" stop-color="#F5F5F5"/>
</linearGradient>
<linearGradient id="paint1_linear_7351_86599" x1="120.633" y1="81.9167" x2="180.142" y2="91.3198" gradientUnits="userSpaceOnUse">
<stop stop-color="#E6E6E6"/>
<stop offset="0.0452461" stop-color="#F5F5F5"/>
</linearGradient>
<linearGradient id="paint2_linear_7351_86599" x1="184.432" y1="81.9167" x2="376.741" y2="258.542" gradientUnits="userSpaceOnUse">
<stop stop-color="#E6E6E6"/>
<stop offset="0.0452461" stop-color="#F5F5F5"/>
</linearGradient>
<linearGradient id="paint3_linear_7351_86599" x1="495.432" y1="81.9167" x2="687.741" y2="258.542" gradientUnits="userSpaceOnUse">
<stop stop-color="#E6E6E6"/>
<stop offset="0.0452461" stop-color="#F5F5F5"/>
</linearGradient>
<linearGradient id="paint4_linear_7351_86599" x1="814.217" y1="81.9167" x2="977.696" y2="172.328" gradientUnits="userSpaceOnUse">
<stop stop-color="#E6E6E6"/>
<stop offset="0.0452461" stop-color="#F5F5F5"/>
</linearGradient>
<linearGradient id="paint5_linear_7351_86599" x1="1020.53" y1="81.9167" x2="1113.51" y2="105.793" gradientUnits="userSpaceOnUse">
<stop stop-color="#E6E6E6"/>
<stop offset="0.0452461" stop-color="#F5F5F5"/>
</linearGradient>
<linearGradient id="paint6_linear_7351_86599" x1="1133.76" y1="68.6666" x2="1174.24" y2="71.3323" gradientUnits="userSpaceOnUse">
<stop stop-color="#E6E6E6"/>
<stop offset="0.0452461" stop-color="#F5F5F5"/>
</linearGradient>
<linearGradient id="paint7_linear_7351_86599" x1="1173.76" y1="68.6666" x2="1214.24" y2="71.3323" gradientUnits="userSpaceOnUse">
<stop stop-color="#E6E6E6"/>
<stop offset="0.0452461" stop-color="#F5F5F5"/>
</linearGradient>
<linearGradient id="paint8_linear_7351_86599" x1="70.5973" y1="209.917" x2="95.902" y2="211.583" gradientUnits="userSpaceOnUse">
<stop stop-color="#E6E6E6"/>
<stop offset="0.0452461" stop-color="#F5F5F5"/>
</linearGradient>
<linearGradient id="paint9_linear_7351_86599" x1="120.633" y1="209.917" x2="180.142" y2="219.32" gradientUnits="userSpaceOnUse">
<stop stop-color="#E6E6E6"/>
<stop offset="0.0452461" stop-color="#F5F5F5"/>
</linearGradient>
<linearGradient id="paint10_linear_7351_86599" x1="184.432" y1="209.917" x2="376.741" y2="386.542" gradientUnits="userSpaceOnUse">
<stop stop-color="#E6E6E6"/>
<stop offset="0.0452461" stop-color="#F5F5F5"/>
</linearGradient>
<linearGradient id="paint11_linear_7351_86599" x1="495.432" y1="209.917" x2="687.741" y2="386.542" gradientUnits="userSpaceOnUse">
<stop stop-color="#E6E6E6"/>
<stop offset="0.0452461" stop-color="#F5F5F5"/>
</linearGradient>
<linearGradient id="paint12_linear_7351_86599" x1="814.217" y1="209.917" x2="977.696" y2="300.328" gradientUnits="userSpaceOnUse">
<stop stop-color="#E6E6E6"/>
<stop offset="0.0452461" stop-color="#F5F5F5"/>
</linearGradient>
<linearGradient id="paint13_linear_7351_86599" x1="1020.53" y1="209.917" x2="1113.51" y2="233.793" gradientUnits="userSpaceOnUse">
<stop stop-color="#E6E6E6"/>
<stop offset="0.0452461" stop-color="#F5F5F5"/>
</linearGradient>
<linearGradient id="paint14_linear_7351_86599" x1="1133.76" y1="196.667" x2="1174.24" y2="199.332" gradientUnits="userSpaceOnUse">
<stop stop-color="#E6E6E6"/>
<stop offset="0.0452461" stop-color="#F5F5F5"/>
</linearGradient>
<linearGradient id="paint15_linear_7351_86599" x1="1173.76" y1="196.667" x2="1214.24" y2="199.332" gradientUnits="userSpaceOnUse">
<stop stop-color="#E6E6E6"/>
<stop offset="0.0452461" stop-color="#F5F5F5"/>
</linearGradient>
<clipPath id="clip0_7351_86599">
<rect x="40" y="72" width="1200" height="192" rx="8" fill="white"/>
</clipPath>
</defs>
</svg>
