<svg width="320" height="320" viewBox="0 0 320 320" fill="none" xmlns="http://www.w3.org/2000/svg">
<rect width="320" height="320" rx="4" fill="#F8F8F8"/>
<rect x="145" y="109" width="95" height="40" rx="4" fill="#1A1A1A"/>
<path d="M161.669 123.758V133H160.463V123.758H161.669ZM164.64 123.758V124.761H157.499V123.758H164.64ZM164.888 129.642V129.496C164.888 129.001 164.96 128.542 165.104 128.119C165.247 127.691 165.455 127.321 165.726 127.008C165.996 126.69 166.324 126.445 166.709 126.271C167.095 126.094 167.526 126.005 168.004 126.005C168.487 126.005 168.921 126.094 169.306 126.271C169.695 126.445 170.025 126.69 170.296 127.008C170.571 127.321 170.78 127.691 170.924 128.119C171.068 128.542 171.14 129.001 171.14 129.496V129.642C171.14 130.137 171.068 130.596 170.924 131.02C170.78 131.443 170.571 131.813 170.296 132.13C170.025 132.444 169.697 132.689 169.312 132.867C168.931 133.04 168.5 133.127 168.017 133.127C167.535 133.127 167.101 133.04 166.716 132.867C166.331 132.689 166.001 132.444 165.726 132.13C165.455 131.813 165.247 131.443 165.104 131.02C164.96 130.596 164.888 130.137 164.888 129.642ZM166.062 129.496V129.642C166.062 129.985 166.102 130.309 166.183 130.613C166.263 130.914 166.384 131.18 166.544 131.413C166.709 131.646 166.915 131.83 167.16 131.965C167.406 132.097 167.691 132.162 168.017 132.162C168.339 132.162 168.62 132.097 168.861 131.965C169.107 131.83 169.31 131.646 169.471 131.413C169.632 131.18 169.752 130.914 169.833 130.613C169.917 130.309 169.959 129.985 169.959 129.642V129.496C169.959 129.158 169.917 128.838 169.833 128.538C169.752 128.233 169.629 127.964 169.464 127.731C169.304 127.494 169.1 127.308 168.855 127.173C168.614 127.037 168.33 126.97 168.004 126.97C167.683 126.97 167.399 127.037 167.154 127.173C166.913 127.308 166.709 127.494 166.544 127.731C166.384 127.964 166.263 128.233 166.183 128.538C166.102 128.838 166.062 129.158 166.062 129.496ZM172.302 129.642V129.496C172.302 129.001 172.374 128.542 172.518 128.119C172.661 127.691 172.869 127.321 173.14 127.008C173.41 126.69 173.738 126.445 174.124 126.271C174.509 126.094 174.94 126.005 175.418 126.005C175.901 126.005 176.335 126.094 176.72 126.271C177.109 126.445 177.439 126.69 177.71 127.008C177.985 127.321 178.194 127.691 178.338 128.119C178.482 128.542 178.554 129.001 178.554 129.496V129.642C178.554 130.137 178.482 130.596 178.338 131.02C178.194 131.443 177.985 131.813 177.71 132.13C177.439 132.444 177.111 132.689 176.726 132.867C176.345 133.04 175.914 133.127 175.431 133.127C174.949 133.127 174.515 133.04 174.13 132.867C173.745 132.689 173.415 132.444 173.14 132.13C172.869 131.813 172.661 131.443 172.518 131.02C172.374 130.596 172.302 130.137 172.302 129.642ZM173.476 129.496V129.642C173.476 129.985 173.516 130.309 173.597 130.613C173.677 130.914 173.798 131.18 173.958 131.413C174.124 131.646 174.329 131.83 174.574 131.965C174.82 132.097 175.105 132.162 175.431 132.162C175.753 132.162 176.034 132.097 176.275 131.965C176.521 131.83 176.724 131.646 176.885 131.413C177.046 131.18 177.166 130.914 177.247 130.613C177.331 130.309 177.374 129.985 177.374 129.642V129.496C177.374 129.158 177.331 128.838 177.247 128.538C177.166 128.233 177.043 127.964 176.878 127.731C176.718 127.494 176.514 127.308 176.269 127.173C176.028 127.037 175.744 126.97 175.418 126.97C175.097 126.97 174.813 127.037 174.568 127.173C174.327 127.308 174.124 127.494 173.958 127.731C173.798 127.964 173.677 128.233 173.597 128.538C173.516 128.838 173.476 129.158 173.476 129.496ZM181.303 123.25V133H180.122V123.25H181.303ZM186.063 126.132V127.033H182.35V126.132H186.063ZM183.607 124.462H184.781V131.299C184.781 131.532 184.817 131.707 184.889 131.826C184.961 131.944 185.054 132.022 185.168 132.061C185.283 132.099 185.405 132.118 185.537 132.118C185.634 132.118 185.736 132.109 185.841 132.092C185.951 132.071 186.034 132.054 186.089 132.042L186.095 133C186.002 133.03 185.879 133.057 185.727 133.083C185.579 133.112 185.399 133.127 185.188 133.127C184.9 133.127 184.635 133.07 184.394 132.956C184.153 132.841 183.96 132.651 183.816 132.384C183.677 132.113 183.607 131.75 183.607 131.292V124.462ZM188.717 126.132V133H187.536V126.132H188.717ZM187.447 124.31C187.447 124.12 187.504 123.959 187.619 123.828C187.737 123.696 187.911 123.631 188.139 123.631C188.363 123.631 188.535 123.696 188.653 123.828C188.776 123.959 188.837 124.12 188.837 124.31C188.837 124.492 188.776 124.649 188.653 124.78C188.535 124.907 188.363 124.97 188.139 124.97C187.911 124.97 187.737 124.907 187.619 124.78C187.504 124.649 187.447 124.492 187.447 124.31ZM191.776 127.452V135.641H190.596V126.132H191.675L191.776 127.452ZM196.404 129.509V129.642C196.404 130.141 196.345 130.605 196.226 131.032C196.108 131.455 195.934 131.824 195.706 132.137C195.481 132.45 195.204 132.693 194.874 132.867C194.544 133.04 194.165 133.127 193.738 133.127C193.302 133.127 192.917 133.055 192.583 132.911C192.248 132.767 191.965 132.558 191.732 132.283C191.499 132.008 191.313 131.678 191.173 131.292C191.038 130.907 190.945 130.474 190.894 129.991V129.28C190.945 128.772 191.04 128.318 191.18 127.916C191.319 127.514 191.503 127.171 191.732 126.887C191.965 126.599 192.246 126.382 192.576 126.233C192.906 126.081 193.287 126.005 193.719 126.005C194.15 126.005 194.533 126.09 194.868 126.259C195.202 126.424 195.483 126.661 195.712 126.97C195.94 127.279 196.112 127.649 196.226 128.081C196.345 128.508 196.404 128.984 196.404 129.509ZM195.223 129.642V129.509C195.223 129.166 195.187 128.844 195.115 128.544C195.043 128.239 194.931 127.973 194.779 127.744C194.631 127.511 194.44 127.329 194.208 127.198C193.975 127.063 193.698 126.995 193.376 126.995C193.08 126.995 192.822 127.046 192.602 127.147C192.386 127.249 192.202 127.387 192.049 127.56C191.897 127.729 191.772 127.924 191.675 128.144C191.582 128.36 191.512 128.584 191.465 128.817V130.461C191.55 130.757 191.668 131.036 191.821 131.299C191.973 131.557 192.176 131.766 192.43 131.927C192.684 132.084 193.004 132.162 193.389 132.162C193.706 132.162 193.979 132.097 194.208 131.965C194.44 131.83 194.631 131.646 194.779 131.413C194.931 131.18 195.043 130.914 195.115 130.613C195.187 130.309 195.223 129.985 195.223 129.642ZM202.402 123.25V133H201.222V123.25H202.402ZM208.337 131.826V128.29C208.337 128.019 208.282 127.784 208.172 127.585C208.067 127.382 207.906 127.226 207.69 127.116C207.474 127.006 207.208 126.951 206.89 126.951C206.594 126.951 206.334 127.001 206.109 127.103C205.889 127.205 205.716 127.338 205.589 127.503C205.466 127.668 205.405 127.846 205.405 128.036H204.23C204.23 127.791 204.294 127.547 204.421 127.306C204.548 127.065 204.73 126.847 204.967 126.652C205.208 126.453 205.496 126.297 205.83 126.183C206.169 126.064 206.545 126.005 206.96 126.005C207.459 126.005 207.899 126.09 208.28 126.259C208.665 126.428 208.966 126.684 209.182 127.027C209.402 127.365 209.512 127.791 209.512 128.303V131.502C209.512 131.73 209.531 131.974 209.569 132.232C209.611 132.49 209.673 132.712 209.753 132.898V133H208.528C208.469 132.865 208.422 132.685 208.388 132.46C208.354 132.232 208.337 132.02 208.337 131.826ZM208.541 128.836L208.553 129.661H207.366C207.032 129.661 206.734 129.689 206.471 129.744C206.209 129.794 205.989 129.873 205.811 129.979C205.633 130.084 205.498 130.218 205.405 130.378C205.312 130.535 205.265 130.719 205.265 130.931C205.265 131.146 205.314 131.343 205.411 131.521C205.508 131.699 205.654 131.84 205.849 131.946C206.048 132.048 206.291 132.099 206.579 132.099C206.939 132.099 207.256 132.022 207.531 131.87C207.806 131.718 208.024 131.532 208.185 131.312C208.35 131.091 208.439 130.878 208.452 130.67L208.953 131.235C208.924 131.413 208.843 131.61 208.712 131.826C208.581 132.042 208.405 132.249 208.185 132.448C207.969 132.642 207.711 132.805 207.411 132.937C207.114 133.063 206.78 133.127 206.408 133.127C205.942 133.127 205.534 133.036 205.183 132.854C204.836 132.672 204.565 132.429 204.37 132.124C204.18 131.815 204.084 131.47 204.084 131.089C204.084 130.721 204.156 130.397 204.3 130.118C204.444 129.835 204.652 129.6 204.922 129.414C205.193 129.223 205.519 129.079 205.9 128.982C206.281 128.885 206.706 128.836 207.176 128.836H208.541ZM211.353 123.25H212.533V131.667L212.432 133H211.353V123.25ZM217.173 129.509V129.642C217.173 130.141 217.114 130.605 216.996 131.032C216.877 131.455 216.704 131.824 216.475 132.137C216.247 132.45 215.967 132.693 215.637 132.867C215.307 133.04 214.928 133.127 214.501 133.127C214.065 133.127 213.682 133.053 213.352 132.905C213.026 132.752 212.751 132.535 212.527 132.251C212.303 131.967 212.123 131.625 211.987 131.223C211.856 130.821 211.765 130.368 211.714 129.864V129.28C211.765 128.772 211.856 128.318 211.987 127.916C212.123 127.514 212.303 127.171 212.527 126.887C212.751 126.599 213.026 126.382 213.352 126.233C213.678 126.081 214.057 126.005 214.488 126.005C214.92 126.005 215.303 126.09 215.637 126.259C215.972 126.424 216.251 126.661 216.475 126.97C216.704 127.279 216.877 127.649 216.996 128.081C217.114 128.508 217.173 128.984 217.173 129.509ZM215.993 129.642V129.509C215.993 129.166 215.961 128.844 215.897 128.544C215.834 128.239 215.732 127.973 215.593 127.744C215.453 127.511 215.269 127.329 215.041 127.198C214.812 127.063 214.531 126.995 214.196 126.995C213.9 126.995 213.642 127.046 213.422 127.147C213.206 127.249 213.022 127.387 212.87 127.56C212.717 127.729 212.592 127.924 212.495 128.144C212.402 128.36 212.332 128.584 212.286 128.817V130.347C212.353 130.643 212.463 130.929 212.616 131.204C212.772 131.474 212.98 131.697 213.238 131.87C213.5 132.044 213.824 132.13 214.209 132.13C214.526 132.13 214.797 132.067 215.021 131.94C215.25 131.809 215.434 131.629 215.574 131.4C215.718 131.172 215.823 130.907 215.891 130.607C215.959 130.306 215.993 129.985 215.993 129.642ZM221.509 133.127C221.031 133.127 220.597 133.047 220.208 132.886C219.822 132.721 219.49 132.49 219.211 132.194C218.936 131.898 218.724 131.546 218.576 131.14C218.428 130.734 218.354 130.29 218.354 129.807V129.541C218.354 128.982 218.437 128.485 218.602 128.049C218.767 127.609 218.991 127.236 219.274 126.932C219.558 126.627 219.88 126.396 220.239 126.24C220.599 126.083 220.971 126.005 221.356 126.005C221.847 126.005 222.271 126.09 222.626 126.259C222.986 126.428 223.28 126.665 223.508 126.97C223.737 127.27 223.906 127.626 224.016 128.036C224.126 128.442 224.181 128.887 224.181 129.369V129.896H219.052V128.938H223.007V128.849C222.99 128.544 222.926 128.248 222.816 127.96C222.711 127.672 222.541 127.435 222.309 127.249C222.076 127.063 221.758 126.97 221.356 126.97C221.09 126.97 220.844 127.027 220.62 127.141C220.396 127.251 220.203 127.416 220.042 127.636C219.882 127.856 219.757 128.125 219.668 128.442C219.579 128.76 219.535 129.126 219.535 129.541V129.807C219.535 130.133 219.579 130.44 219.668 130.728C219.761 131.011 219.894 131.261 220.068 131.477C220.246 131.692 220.459 131.862 220.709 131.984C220.963 132.107 221.251 132.168 221.572 132.168C221.987 132.168 222.338 132.084 222.626 131.915C222.914 131.745 223.166 131.519 223.381 131.235L224.092 131.8C223.944 132.025 223.756 132.238 223.527 132.441C223.299 132.645 223.017 132.81 222.683 132.937C222.353 133.063 221.962 133.127 221.509 133.127ZM226.828 123.25V133H225.647V123.25H226.828Z" fill="white"/>
<path d="M153 149H165L159 155L153 149Z" fill="#1A1A1A"/>
<path d="M159 159V183" stroke="#000714"/>
<rect x="81" y="117" width="24" height="20" rx="4" fill="#000714"/>
<path d="M93.9712 121.707V131H92.7969V123.173L90.4292 124.037V122.977L93.7871 121.707H93.9712Z" fill="white"/>
<line x1="141" y1="129.5" x2="109" y2="129.5" stroke="#0045C4"/>
<rect x="147" y="187" width="24" height="24" rx="4" fill="#000714"/>
<path d="M162.445 202.688V204H155.773V202.872L159.014 199.338C159.369 198.937 159.649 198.59 159.854 198.299C160.06 198.007 160.203 197.745 160.285 197.513C160.372 197.276 160.415 197.046 160.415 196.822C160.415 196.508 160.356 196.232 160.237 195.995C160.123 195.754 159.955 195.564 159.731 195.428C159.508 195.286 159.237 195.216 158.918 195.216C158.549 195.216 158.239 195.296 157.988 195.455C157.738 195.615 157.549 195.836 157.421 196.118C157.293 196.396 157.229 196.715 157.229 197.075H155.582C155.582 196.496 155.714 195.968 155.979 195.489C156.243 195.006 156.626 194.623 157.127 194.341C157.628 194.054 158.232 193.91 158.938 193.91C159.604 193.91 160.169 194.022 160.634 194.245C161.099 194.468 161.452 194.785 161.693 195.195C161.939 195.605 162.062 196.091 162.062 196.651C162.062 196.961 162.012 197.269 161.912 197.574C161.812 197.88 161.668 198.185 161.481 198.49C161.299 198.791 161.083 199.094 160.832 199.399C160.581 199.7 160.306 200.006 160.005 200.315L157.852 202.688H162.445Z" fill="white"/>
</svg>
