<svg width="800" height="200" viewBox="0 0 800 200" fill="none" xmlns="http://www.w3.org/2000/svg">
<rect width="800" height="200" rx="4" fill="#F8F8F8"/>
<path d="M233 60V48L227 54L233 60Z" fill="#1A1A1A"/>
<rect x="233" y="40" width="69" height="40" rx="4" fill="#1A1A1A"/>
<path d="M251.809 63.0034V64H247.188V63.0034H251.809ZM247.429 54.7578V64H246.204V54.7578H247.429ZM255.884 64.127C255.406 64.127 254.972 64.0465 254.583 63.8857C254.197 63.7207 253.865 63.4901 253.586 63.1938C253.311 62.8976 253.099 62.5464 252.951 62.1401C252.803 61.7339 252.729 61.2896 252.729 60.8071V60.5405C252.729 59.9819 252.812 59.4847 252.977 59.0488C253.142 58.6087 253.366 58.2363 253.649 57.9316C253.933 57.627 254.255 57.3963 254.614 57.2397C254.974 57.0832 255.346 57.0049 255.731 57.0049C256.222 57.0049 256.646 57.0895 257.001 57.2588C257.361 57.4281 257.655 57.665 257.883 57.9697C258.112 58.2702 258.281 58.6257 258.391 59.0361C258.501 59.4424 258.556 59.8867 258.556 60.3691V60.896H253.427V59.9375H257.382V59.8486C257.365 59.5439 257.301 59.2477 257.191 58.96C257.086 58.6722 256.916 58.4352 256.684 58.249C256.451 58.0628 256.133 57.9697 255.731 57.9697C255.465 57.9697 255.219 58.0269 254.995 58.1411C254.771 58.2511 254.578 58.4162 254.417 58.6362C254.257 58.8563 254.132 59.125 254.043 59.4424C253.954 59.7598 253.91 60.1258 253.91 60.5405V60.8071C253.91 61.133 253.954 61.4398 254.043 61.7275C254.136 62.0111 254.269 62.2607 254.443 62.4766C254.621 62.6924 254.834 62.8617 255.084 62.9844C255.338 63.1071 255.626 63.1685 255.947 63.1685C256.362 63.1685 256.713 63.0838 257.001 62.9146C257.289 62.7453 257.541 62.5189 257.756 62.2354L258.467 62.8003C258.319 63.0246 258.131 63.2383 257.902 63.4414C257.674 63.6445 257.392 63.8096 257.058 63.9365C256.728 64.0635 256.337 64.127 255.884 64.127ZM262.803 57.1318V58.0332H259.089V57.1318H262.803ZM260.346 55.4624H261.521V62.2988C261.521 62.5316 261.556 62.7072 261.628 62.8257C261.7 62.9442 261.793 63.0225 261.908 63.0605C262.022 63.0986 262.145 63.1177 262.276 63.1177C262.373 63.1177 262.475 63.1092 262.581 63.0923C262.691 63.0711 262.773 63.0542 262.828 63.0415L262.834 64C262.741 64.0296 262.619 64.0571 262.466 64.0825C262.318 64.1121 262.138 64.127 261.927 64.127C261.639 64.127 261.375 64.0698 261.133 63.9556C260.892 63.8413 260.7 63.6509 260.556 63.3843C260.416 63.1134 260.346 62.7495 260.346 62.2925V55.4624ZM265.932 64H264.758V56.4082C264.758 55.9131 264.847 55.4963 265.024 55.1577C265.206 54.8149 265.467 54.5568 265.805 54.3833C266.144 54.2056 266.546 54.1167 267.011 54.1167C267.147 54.1167 267.282 54.1252 267.417 54.1421C267.557 54.159 267.693 54.1844 267.824 54.2183L267.76 55.1768C267.671 55.1556 267.57 55.1408 267.456 55.1323C267.346 55.1239 267.236 55.1196 267.125 55.1196C266.876 55.1196 266.66 55.1704 266.478 55.272C266.3 55.3693 266.165 55.5132 266.072 55.7036C265.979 55.894 265.932 56.1289 265.932 56.4082V64ZM267.392 57.1318V58.0332H263.672V57.1318H267.392ZM274.8 57.1318V58.0332H271.086V57.1318H274.8ZM272.343 55.4624H273.518V62.2988C273.518 62.5316 273.554 62.7072 273.625 62.8257C273.697 62.9442 273.791 63.0225 273.905 63.0605C274.019 63.0986 274.142 63.1177 274.273 63.1177C274.37 63.1177 274.472 63.1092 274.578 63.0923C274.688 63.0711 274.77 63.0542 274.825 63.0415L274.832 64C274.738 64.0296 274.616 64.0571 274.463 64.0825C274.315 64.1121 274.135 64.127 273.924 64.127C273.636 64.127 273.372 64.0698 273.13 63.9556C272.889 63.8413 272.697 63.6509 272.553 63.3843C272.413 63.1134 272.343 62.7495 272.343 62.2925V55.4624ZM275.739 60.6421V60.4961C275.739 60.001 275.811 59.5418 275.955 59.1187C276.099 58.6912 276.306 58.321 276.577 58.0078C276.848 57.6904 277.176 57.445 277.561 57.2715C277.946 57.0938 278.378 57.0049 278.856 57.0049C279.338 57.0049 279.772 57.0938 280.157 57.2715C280.547 57.445 280.877 57.6904 281.147 58.0078C281.423 58.321 281.632 58.6912 281.776 59.1187C281.92 59.5418 281.992 60.001 281.992 60.4961V60.6421C281.992 61.1372 281.92 61.5964 281.776 62.0195C281.632 62.4427 281.423 62.813 281.147 63.1304C280.877 63.4435 280.549 63.689 280.164 63.8667C279.783 64.0402 279.351 64.127 278.869 64.127C278.386 64.127 277.952 64.0402 277.567 63.8667C277.182 63.689 276.852 63.4435 276.577 63.1304C276.306 62.813 276.099 62.4427 275.955 62.0195C275.811 61.5964 275.739 61.1372 275.739 60.6421ZM276.914 60.4961V60.6421C276.914 60.9849 276.954 61.3086 277.034 61.6133C277.115 61.9137 277.235 62.1803 277.396 62.4131C277.561 62.6458 277.766 62.8299 278.012 62.9653C278.257 63.0965 278.543 63.1621 278.869 63.1621C279.19 63.1621 279.472 63.0965 279.713 62.9653C279.958 62.8299 280.161 62.6458 280.322 62.4131C280.483 62.1803 280.604 61.9137 280.684 61.6133C280.769 61.3086 280.811 60.9849 280.811 60.6421V60.4961C280.811 60.1576 280.769 59.8381 280.684 59.5376C280.604 59.2329 280.481 58.9642 280.316 58.7314C280.155 58.4945 279.952 58.3083 279.707 58.1729C279.465 58.0374 279.182 57.9697 278.856 57.9697C278.534 57.9697 278.251 58.0374 278.005 58.1729C277.764 58.3083 277.561 58.4945 277.396 58.7314C277.235 58.9642 277.115 59.2329 277.034 59.5376C276.954 59.8381 276.914 60.1576 276.914 60.4961ZM284.639 58.4521V66.6406H283.458V57.1318H284.537L284.639 58.4521ZM289.266 60.5088V60.6421C289.266 61.1414 289.207 61.6048 289.088 62.0322C288.97 62.4554 288.796 62.8236 288.568 63.1367C288.344 63.4499 288.066 63.6932 287.736 63.8667C287.406 64.0402 287.028 64.127 286.6 64.127C286.164 64.127 285.779 64.055 285.445 63.9111C285.111 63.7673 284.827 63.5578 284.594 63.2827C284.361 63.0076 284.175 62.6776 284.036 62.2925C283.9 61.9074 283.807 61.4736 283.756 60.9912V60.2803C283.807 59.7725 283.902 59.3175 284.042 58.9155C284.182 58.5135 284.366 58.1707 284.594 57.8872C284.827 57.5994 285.108 57.3815 285.438 57.2334C285.769 57.0811 286.149 57.0049 286.581 57.0049C287.013 57.0049 287.396 57.0895 287.73 57.2588C288.064 57.4238 288.346 57.6608 288.574 57.9697C288.803 58.2786 288.974 58.6489 289.088 59.0806C289.207 59.508 289.266 59.984 289.266 60.5088ZM288.085 60.6421V60.5088C288.085 60.166 288.049 59.8444 287.978 59.5439C287.906 59.2393 287.793 58.9727 287.641 58.7441C287.493 58.5114 287.303 58.3294 287.07 58.1982C286.837 58.0628 286.56 57.9951 286.238 57.9951C285.942 57.9951 285.684 58.0459 285.464 58.1475C285.248 58.249 285.064 58.3866 284.912 58.5601C284.759 58.7293 284.634 58.924 284.537 59.144C284.444 59.3599 284.374 59.5841 284.328 59.8169V61.4609C284.412 61.7572 284.531 62.0365 284.683 62.2988C284.835 62.557 285.039 62.7664 285.292 62.9272C285.546 63.0838 285.866 63.1621 286.251 63.1621C286.568 63.1621 286.841 63.0965 287.07 62.9653C287.303 62.8299 287.493 62.6458 287.641 62.4131C287.793 62.1803 287.906 61.9137 287.978 61.6133C288.049 61.3086 288.085 60.9849 288.085 60.6421Z" fill="white"/>
<path d="M348 66V54L342 60L348 66Z" fill="#1A1A1A"/>
<rect x="348" y="40" width="87" height="40" rx="4" fill="#1A1A1A"/>
<path d="M367.011 63.0034V64H362.39V63.0034H367.011ZM362.631 54.7578V64H361.406V54.7578H362.631ZM371.086 64.127C370.608 64.127 370.174 64.0465 369.785 63.8857C369.4 63.7207 369.067 63.4901 368.788 63.1938C368.513 62.8976 368.301 62.5464 368.153 62.1401C368.005 61.7339 367.931 61.2896 367.931 60.8071V60.5405C367.931 59.9819 368.014 59.4847 368.179 59.0488C368.344 58.6087 368.568 58.2363 368.852 57.9316C369.135 57.627 369.457 57.3963 369.816 57.2397C370.176 57.0832 370.549 57.0049 370.934 57.0049C371.424 57.0049 371.848 57.0895 372.203 57.2588C372.563 57.4281 372.857 57.665 373.085 57.9697C373.314 58.2702 373.483 58.6257 373.593 59.0361C373.703 59.4424 373.758 59.8867 373.758 60.3691V60.896H368.629V59.9375H372.584V59.8486C372.567 59.5439 372.504 59.2477 372.394 58.96C372.288 58.6722 372.118 58.4352 371.886 58.249C371.653 58.0628 371.336 57.9697 370.934 57.9697C370.667 57.9697 370.422 58.0269 370.197 58.1411C369.973 58.2511 369.78 58.4162 369.62 58.6362C369.459 58.8563 369.334 59.125 369.245 59.4424C369.156 59.7598 369.112 60.1258 369.112 60.5405V60.8071C369.112 61.133 369.156 61.4398 369.245 61.7275C369.338 62.0111 369.472 62.2607 369.645 62.4766C369.823 62.6924 370.036 62.8617 370.286 62.9844C370.54 63.1071 370.828 63.1685 371.149 63.1685C371.564 63.1685 371.915 63.0838 372.203 62.9146C372.491 62.7453 372.743 62.5189 372.958 62.2354L373.669 62.8003C373.521 63.0246 373.333 63.2383 373.104 63.4414C372.876 63.6445 372.595 63.8096 372.26 63.9365C371.93 64.0635 371.539 64.127 371.086 64.127ZM376.881 64H375.707V56.4082C375.707 55.9131 375.796 55.4963 375.974 55.1577C376.156 54.8149 376.416 54.5568 376.754 54.3833C377.093 54.2056 377.495 54.1167 377.96 54.1167C378.096 54.1167 378.231 54.1252 378.367 54.1421C378.506 54.159 378.642 54.1844 378.773 54.2183L378.709 55.1768C378.621 55.1556 378.519 55.1408 378.405 55.1323C378.295 55.1239 378.185 55.1196 378.075 55.1196C377.825 55.1196 377.609 55.1704 377.427 55.272C377.25 55.3693 377.114 55.5132 377.021 55.7036C376.928 55.894 376.881 56.1289 376.881 56.4082V64ZM378.341 57.1318V58.0332H374.622V57.1318H378.341ZM382.524 57.1318V58.0332H378.811V57.1318H382.524ZM380.068 55.4624H381.242V62.2988C381.242 62.5316 381.278 62.7072 381.35 62.8257C381.422 62.9442 381.515 63.0225 381.629 63.0605C381.744 63.0986 381.866 63.1177 381.998 63.1177C382.095 63.1177 382.196 63.1092 382.302 63.0923C382.412 63.0711 382.495 63.0542 382.55 63.0415L382.556 64C382.463 64.0296 382.34 64.0571 382.188 64.0825C382.04 64.1121 381.86 64.127 381.648 64.127C381.361 64.127 381.096 64.0698 380.855 63.9556C380.614 63.8413 380.421 63.6509 380.277 63.3843C380.138 63.1134 380.068 62.7495 380.068 62.2925V55.4624ZM389.875 63.1621C390.154 63.1621 390.412 63.105 390.649 62.9907C390.886 62.8765 391.081 62.7199 391.233 62.521C391.386 62.3179 391.472 62.0872 391.494 61.8291H392.611C392.59 62.2354 392.452 62.6141 392.198 62.9653C391.949 63.3123 391.621 63.5938 391.214 63.8096C390.808 64.0212 390.362 64.127 389.875 64.127C389.359 64.127 388.908 64.036 388.523 63.854C388.142 63.672 387.825 63.4224 387.571 63.105C387.321 62.7876 387.133 62.4237 387.006 62.0132C386.883 61.5985 386.822 61.1605 386.822 60.6992V60.4326C386.822 59.9714 386.883 59.5355 387.006 59.125C387.133 58.7103 387.321 58.3442 387.571 58.0269C387.825 57.7095 388.142 57.4598 388.523 57.2778C388.908 57.0959 389.359 57.0049 389.875 57.0049C390.412 57.0049 390.882 57.1149 391.284 57.335C391.686 57.5508 392.001 57.847 392.23 58.2236C392.463 58.596 392.59 59.0192 392.611 59.4932H391.494C391.472 59.2096 391.392 58.9536 391.252 58.7251C391.117 58.4966 390.931 58.3146 390.694 58.1792C390.461 58.0396 390.188 57.9697 389.875 57.9697C389.515 57.9697 389.213 58.0417 388.967 58.1855C388.726 58.3252 388.534 58.5156 388.39 58.7568C388.25 58.9938 388.148 59.2583 388.085 59.5503C388.026 59.8381 387.996 60.1322 387.996 60.4326V60.6992C387.996 60.9997 388.026 61.2959 388.085 61.5879C388.144 61.8799 388.244 62.1444 388.383 62.3813C388.527 62.6183 388.72 62.8088 388.961 62.9526C389.206 63.0923 389.511 63.1621 389.875 63.1621ZM396.781 64.127C396.303 64.127 395.869 64.0465 395.48 63.8857C395.095 63.7207 394.763 63.4901 394.483 63.1938C394.208 62.8976 393.997 62.5464 393.849 62.1401C393.701 61.7339 393.626 61.2896 393.626 60.8071V60.5405C393.626 59.9819 393.709 59.4847 393.874 59.0488C394.039 58.6087 394.263 58.2363 394.547 57.9316C394.83 57.627 395.152 57.3963 395.512 57.2397C395.871 57.0832 396.244 57.0049 396.629 57.0049C397.12 57.0049 397.543 57.0895 397.898 57.2588C398.258 57.4281 398.552 57.665 398.781 57.9697C399.009 58.2702 399.179 58.6257 399.289 59.0361C399.399 59.4424 399.454 59.8867 399.454 60.3691V60.896H394.325V59.9375H398.279V59.8486C398.262 59.5439 398.199 59.2477 398.089 58.96C397.983 58.6722 397.814 58.4352 397.581 58.249C397.348 58.0628 397.031 57.9697 396.629 57.9697C396.362 57.9697 396.117 58.0269 395.893 58.1411C395.668 58.2511 395.476 58.4162 395.315 58.6362C395.154 58.8563 395.029 59.125 394.94 59.4424C394.852 59.7598 394.807 60.1258 394.807 60.5405V60.8071C394.807 61.133 394.852 61.4398 394.94 61.7275C395.034 62.0111 395.167 62.2607 395.34 62.4766C395.518 62.6924 395.732 62.8617 395.981 62.9844C396.235 63.1071 396.523 63.1685 396.845 63.1685C397.259 63.1685 397.611 63.0838 397.898 62.9146C398.186 62.7453 398.438 62.5189 398.654 62.2354L399.365 62.8003C399.217 63.0246 399.028 63.2383 398.8 63.4414C398.571 63.6445 398.29 63.8096 397.956 63.9365C397.625 64.0635 397.234 64.127 396.781 64.127ZM401.999 58.5981V64H400.825V57.1318H401.936L401.999 58.5981ZM401.72 60.3057L401.231 60.2866C401.235 59.8169 401.305 59.3831 401.44 58.9854C401.576 58.5833 401.766 58.2342 402.012 57.938C402.257 57.6418 402.549 57.4132 402.888 57.2524C403.23 57.0874 403.609 57.0049 404.024 57.0049C404.362 57.0049 404.667 57.0514 404.938 57.1445C405.209 57.2334 405.439 57.3773 405.63 57.5762C405.825 57.7751 405.973 58.0332 406.074 58.3506C406.176 58.6637 406.227 59.0467 406.227 59.4995V64H405.046V59.4868C405.046 59.1271 404.993 58.8394 404.887 58.6235C404.781 58.4035 404.627 58.2448 404.424 58.1475C404.221 58.0459 403.971 57.9951 403.675 57.9951C403.383 57.9951 403.116 58.0565 402.875 58.1792C402.638 58.3019 402.433 58.4712 402.259 58.687C402.09 58.9028 401.957 59.1504 401.859 59.4297C401.766 59.7048 401.72 59.9967 401.72 60.3057ZM410.886 57.1318V58.0332H407.172V57.1318H410.886ZM408.429 55.4624H409.604V62.2988C409.604 62.5316 409.639 62.7072 409.711 62.8257C409.783 62.9442 409.876 63.0225 409.991 63.0605C410.105 63.0986 410.228 63.1177 410.359 63.1177C410.456 63.1177 410.558 63.1092 410.664 63.0923C410.774 63.0711 410.856 63.0542 410.911 63.0415L410.917 64C410.824 64.0296 410.702 64.0571 410.549 64.0825C410.401 64.1121 410.221 64.127 410.01 64.127C409.722 64.127 409.458 64.0698 409.216 63.9556C408.975 63.8413 408.783 63.6509 408.639 63.3843C408.499 63.1134 408.429 62.7495 408.429 62.2925V55.4624ZM415.113 64.127C414.635 64.127 414.201 64.0465 413.812 63.8857C413.427 63.7207 413.095 63.4901 412.815 63.1938C412.54 62.8976 412.329 62.5464 412.181 62.1401C412.033 61.7339 411.958 61.2896 411.958 60.8071V60.5405C411.958 59.9819 412.041 59.4847 412.206 59.0488C412.371 58.6087 412.595 58.2363 412.879 57.9316C413.162 57.627 413.484 57.3963 413.844 57.2397C414.203 57.0832 414.576 57.0049 414.961 57.0049C415.452 57.0049 415.875 57.0895 416.23 57.2588C416.59 57.4281 416.884 57.665 417.113 57.9697C417.341 58.2702 417.511 58.6257 417.621 59.0361C417.731 59.4424 417.786 59.8867 417.786 60.3691V60.896H412.657V59.9375H416.611V59.8486C416.594 59.5439 416.531 59.2477 416.421 58.96C416.315 58.6722 416.146 58.4352 415.913 58.249C415.68 58.0628 415.363 57.9697 414.961 57.9697C414.694 57.9697 414.449 58.0269 414.225 58.1411C414 58.2511 413.808 58.4162 413.647 58.6362C413.486 58.8563 413.361 59.125 413.272 59.4424C413.184 59.7598 413.139 60.1258 413.139 60.5405V60.8071C413.139 61.133 413.184 61.4398 413.272 61.7275C413.366 62.0111 413.499 62.2607 413.672 62.4766C413.85 62.6924 414.064 62.8617 414.313 62.9844C414.567 63.1071 414.855 63.1685 415.177 63.1685C415.591 63.1685 415.943 63.0838 416.23 62.9146C416.518 62.7453 416.77 62.5189 416.986 62.2354L417.697 62.8003C417.549 63.0246 417.36 63.2383 417.132 63.4414C416.903 63.6445 416.622 63.8096 416.288 63.9365C415.958 64.0635 415.566 64.127 415.113 64.127ZM420.331 58.2109V64H419.157V57.1318H420.299L420.331 58.2109ZM422.477 57.0938L422.47 58.1855C422.373 58.1644 422.28 58.1517 422.191 58.1475C422.106 58.139 422.009 58.1348 421.899 58.1348C421.628 58.1348 421.389 58.1771 421.182 58.2617C420.974 58.3464 420.799 58.4648 420.655 58.6172C420.511 58.7695 420.397 58.9515 420.312 59.1631C420.232 59.3704 420.179 59.599 420.153 59.8486L419.823 60.0391C419.823 59.6243 419.863 59.235 419.944 58.8711C420.028 58.5072 420.158 58.1855 420.331 57.9062C420.505 57.6227 420.725 57.4027 420.991 57.2461C421.262 57.0853 421.584 57.0049 421.956 57.0049C422.041 57.0049 422.138 57.0155 422.248 57.0366C422.358 57.0535 422.434 57.0726 422.477 57.0938Z" fill="white"/>
<path d="M481 72V60L475 66L481 72Z" fill="#1A1A1A"/>
<rect x="481" y="40" width="92" height="40" rx="4" fill="#1A1A1A"/>
<path d="M499.775 63.0034V64H495.154V63.0034H499.775ZM495.395 54.7578V64H494.17V54.7578H495.395ZM503.85 64.127C503.372 64.127 502.938 64.0465 502.549 63.8857C502.164 63.7207 501.832 63.4901 501.552 63.1938C501.277 62.8976 501.066 62.5464 500.917 62.1401C500.769 61.7339 500.695 61.2896 500.695 60.8071V60.5405C500.695 59.9819 500.778 59.4847 500.943 59.0488C501.108 58.6087 501.332 58.2363 501.616 57.9316C501.899 57.627 502.221 57.3963 502.581 57.2397C502.94 57.0832 503.313 57.0049 503.698 57.0049C504.189 57.0049 504.612 57.0895 504.967 57.2588C505.327 57.4281 505.621 57.665 505.85 57.9697C506.078 58.2702 506.247 58.6257 506.357 59.0361C506.467 59.4424 506.522 59.8867 506.522 60.3691V60.896H501.394V59.9375H505.348V59.8486C505.331 59.5439 505.268 59.2477 505.158 58.96C505.052 58.6722 504.883 58.4352 504.65 58.249C504.417 58.0628 504.1 57.9697 503.698 57.9697C503.431 57.9697 503.186 58.0269 502.961 58.1411C502.737 58.2511 502.545 58.4162 502.384 58.6362C502.223 58.8563 502.098 59.125 502.009 59.4424C501.92 59.7598 501.876 60.1258 501.876 60.5405V60.8071C501.876 61.133 501.92 61.4398 502.009 61.7275C502.102 62.0111 502.236 62.2607 502.409 62.4766C502.587 62.6924 502.801 62.8617 503.05 62.9844C503.304 63.1071 503.592 63.1685 503.914 63.1685C504.328 63.1685 504.68 63.0838 504.967 62.9146C505.255 62.7453 505.507 62.5189 505.723 62.2354L506.434 62.8003C506.285 63.0246 506.097 63.2383 505.869 63.4414C505.64 63.6445 505.359 63.8096 505.024 63.9365C504.694 64.0635 504.303 64.127 503.85 64.127ZM509.646 64H508.471V56.4082C508.471 55.9131 508.56 55.4963 508.738 55.1577C508.92 54.8149 509.18 54.5568 509.519 54.3833C509.857 54.2056 510.259 54.1167 510.725 54.1167C510.86 54.1167 510.995 54.1252 511.131 54.1421C511.271 54.159 511.406 54.1844 511.537 54.2183L511.474 55.1768C511.385 55.1556 511.283 55.1408 511.169 55.1323C511.059 55.1239 510.949 55.1196 510.839 55.1196C510.589 55.1196 510.373 55.1704 510.191 55.272C510.014 55.3693 509.878 55.5132 509.785 55.7036C509.692 55.894 509.646 56.1289 509.646 56.4082V64ZM511.105 57.1318V58.0332H507.386V57.1318H511.105ZM515.289 57.1318V58.0332H511.575V57.1318H515.289ZM512.832 55.4624H514.006V62.2988C514.006 62.5316 514.042 62.7072 514.114 62.8257C514.186 62.9442 514.279 63.0225 514.394 63.0605C514.508 63.0986 514.631 63.1177 514.762 63.1177C514.859 63.1177 514.961 63.1092 515.066 63.0923C515.176 63.0711 515.259 63.0542 515.314 63.0415L515.32 64C515.227 64.0296 515.104 64.0571 514.952 64.0825C514.804 64.1121 514.624 64.127 514.413 64.127C514.125 64.127 513.86 64.0698 513.619 63.9556C513.378 63.8413 513.185 63.6509 513.042 63.3843C512.902 63.1134 512.832 62.7495 512.832 62.2925V55.4624ZM519.884 54.25H521.065V62.667L520.963 64H519.884V54.25ZM525.705 60.5088V60.6421C525.705 61.1414 525.646 61.6048 525.527 62.0322C525.409 62.4554 525.235 62.8236 525.007 63.1367C524.778 63.4499 524.499 63.6932 524.169 63.8667C523.839 64.0402 523.46 64.127 523.033 64.127C522.597 64.127 522.214 64.0529 521.884 63.9048C521.558 63.7524 521.283 63.5345 521.059 63.251C520.834 62.9674 520.654 62.6247 520.519 62.2227C520.388 61.8206 520.297 61.3678 520.246 60.8643V60.2803C520.297 59.7725 520.388 59.3175 520.519 58.9155C520.654 58.5135 520.834 58.1707 521.059 57.8872C521.283 57.5994 521.558 57.3815 521.884 57.2334C522.21 57.0811 522.588 57.0049 523.02 57.0049C523.452 57.0049 523.835 57.0895 524.169 57.2588C524.503 57.4238 524.783 57.6608 525.007 57.9697C525.235 58.2786 525.409 58.6489 525.527 59.0806C525.646 59.508 525.705 59.984 525.705 60.5088ZM524.524 60.6421V60.5088C524.524 60.166 524.493 59.8444 524.429 59.5439C524.366 59.2393 524.264 58.9727 524.125 58.7441C523.985 58.5114 523.801 58.3294 523.572 58.1982C523.344 58.0628 523.062 57.9951 522.728 57.9951C522.432 57.9951 522.174 58.0459 521.954 58.1475C521.738 58.249 521.554 58.3866 521.401 58.5601C521.249 58.7293 521.124 58.924 521.027 59.144C520.934 59.3599 520.864 59.5841 520.817 59.8169V61.3467C520.885 61.6429 520.995 61.9285 521.147 62.2036C521.304 62.4744 521.511 62.6966 521.77 62.8701C522.032 63.0436 522.356 63.1304 522.741 63.1304C523.058 63.1304 523.329 63.0669 523.553 62.9399C523.782 62.8088 523.966 62.6289 524.105 62.4004C524.249 62.1719 524.355 61.9074 524.423 61.6069C524.491 61.3065 524.524 60.9849 524.524 60.6421ZM526.879 60.6421V60.4961C526.879 60.001 526.951 59.5418 527.095 59.1187C527.239 58.6912 527.446 58.321 527.717 58.0078C527.988 57.6904 528.316 57.445 528.701 57.2715C529.086 57.0938 529.518 57.0049 529.996 57.0049C530.479 57.0049 530.912 57.0938 531.297 57.2715C531.687 57.445 532.017 57.6904 532.288 58.0078C532.563 58.321 532.772 58.6912 532.916 59.1187C533.06 59.5418 533.132 60.001 533.132 60.4961V60.6421C533.132 61.1372 533.06 61.5964 532.916 62.0195C532.772 62.4427 532.563 62.813 532.288 63.1304C532.017 63.4435 531.689 63.689 531.304 63.8667C530.923 64.0402 530.491 64.127 530.009 64.127C529.526 64.127 529.093 64.0402 528.708 63.8667C528.322 63.689 527.992 63.4435 527.717 63.1304C527.446 62.813 527.239 62.4427 527.095 62.0195C526.951 61.5964 526.879 61.1372 526.879 60.6421ZM528.054 60.4961V60.6421C528.054 60.9849 528.094 61.3086 528.174 61.6133C528.255 61.9137 528.375 62.1803 528.536 62.4131C528.701 62.6458 528.906 62.8299 529.152 62.9653C529.397 63.0965 529.683 63.1621 530.009 63.1621C530.33 63.1621 530.612 63.0965 530.853 62.9653C531.098 62.8299 531.302 62.6458 531.462 62.4131C531.623 62.1803 531.744 61.9137 531.824 61.6133C531.909 61.3086 531.951 60.9849 531.951 60.6421V60.4961C531.951 60.1576 531.909 59.8381 531.824 59.5376C531.744 59.2329 531.621 58.9642 531.456 58.7314C531.295 58.4945 531.092 58.3083 530.847 58.1729C530.605 58.0374 530.322 57.9697 529.996 57.9697C529.674 57.9697 529.391 58.0374 529.146 58.1729C528.904 58.3083 528.701 58.4945 528.536 58.7314C528.375 58.9642 528.255 59.2329 528.174 59.5376C528.094 59.8381 528.054 60.1576 528.054 60.4961ZM537.48 57.1318V58.0332H533.767V57.1318H537.48ZM535.023 55.4624H536.198V62.2988C536.198 62.5316 536.234 62.7072 536.306 62.8257C536.378 62.9442 536.471 63.0225 536.585 63.0605C536.699 63.0986 536.822 63.1177 536.953 63.1177C537.05 63.1177 537.152 63.1092 537.258 63.0923C537.368 63.0711 537.45 63.0542 537.505 63.0415L537.512 64C537.419 64.0296 537.296 64.0571 537.144 64.0825C536.995 64.1121 536.816 64.127 536.604 64.127C536.316 64.127 536.052 64.0698 535.811 63.9556C535.569 63.8413 535.377 63.6509 535.233 63.3843C535.093 63.1134 535.023 62.7495 535.023 62.2925V55.4624ZM541.733 57.1318V58.0332H538.02V57.1318H541.733ZM539.276 55.4624H540.451V62.2988C540.451 62.5316 540.487 62.7072 540.559 62.8257C540.631 62.9442 540.724 63.0225 540.838 63.0605C540.952 63.0986 541.075 63.1177 541.206 63.1177C541.303 63.1177 541.405 63.1092 541.511 63.0923C541.621 63.0711 541.703 63.0542 541.758 63.0415L541.765 64C541.672 64.0296 541.549 64.0571 541.396 64.0825C541.248 64.1121 541.069 64.127 540.857 64.127C540.569 64.127 540.305 64.0698 540.063 63.9556C539.822 63.8413 539.63 63.6509 539.486 63.3843C539.346 63.1134 539.276 62.7495 539.276 62.2925V55.4624ZM542.672 60.6421V60.4961C542.672 60.001 542.744 59.5418 542.888 59.1187C543.032 58.6912 543.239 58.321 543.51 58.0078C543.781 57.6904 544.109 57.445 544.494 57.2715C544.879 57.0938 545.311 57.0049 545.789 57.0049C546.271 57.0049 546.705 57.0938 547.09 57.2715C547.48 57.445 547.81 57.6904 548.081 58.0078C548.356 58.321 548.565 58.6912 548.709 59.1187C548.853 59.5418 548.925 60.001 548.925 60.4961V60.6421C548.925 61.1372 548.853 61.5964 548.709 62.0195C548.565 62.4427 548.356 62.813 548.081 63.1304C547.81 63.4435 547.482 63.689 547.097 63.8667C546.716 64.0402 546.284 64.127 545.802 64.127C545.319 64.127 544.886 64.0402 544.5 63.8667C544.115 63.689 543.785 63.4435 543.51 63.1304C543.239 62.813 543.032 62.4427 542.888 62.0195C542.744 61.5964 542.672 61.1372 542.672 60.6421ZM543.847 60.4961V60.6421C543.847 60.9849 543.887 61.3086 543.967 61.6133C544.048 61.9137 544.168 62.1803 544.329 62.4131C544.494 62.6458 544.699 62.8299 544.945 62.9653C545.19 63.0965 545.476 63.1621 545.802 63.1621C546.123 63.1621 546.405 63.0965 546.646 62.9653C546.891 62.8299 547.095 62.6458 547.255 62.4131C547.416 62.1803 547.537 61.9137 547.617 61.6133C547.702 61.3086 547.744 60.9849 547.744 60.6421V60.4961C547.744 60.1576 547.702 59.8381 547.617 59.5376C547.537 59.2329 547.414 58.9642 547.249 58.7314C547.088 58.4945 546.885 58.3083 546.64 58.1729C546.398 58.0374 546.115 57.9697 545.789 57.9697C545.467 57.9697 545.184 58.0374 544.938 58.1729C544.697 58.3083 544.494 58.4945 544.329 58.7314C544.168 58.9642 544.048 59.2329 543.967 59.5376C543.887 59.8381 543.847 60.1576 543.847 60.4961ZM551.565 58.4966V64H550.385V57.1318H551.502L551.565 58.4966ZM551.324 60.3057L550.778 60.2866C550.783 59.8169 550.844 59.3831 550.962 58.9854C551.081 58.5833 551.257 58.2342 551.489 57.938C551.722 57.6418 552.012 57.4132 552.359 57.2524C552.706 57.0874 553.108 57.0049 553.565 57.0049C553.887 57.0049 554.183 57.0514 554.454 57.1445C554.724 57.2334 554.959 57.3752 555.158 57.5698C555.357 57.7645 555.512 58.0142 555.622 58.3188C555.732 58.6235 555.787 58.9917 555.787 59.4233V64H554.612V59.4805C554.612 59.1208 554.551 58.833 554.428 58.6172C554.31 58.4014 554.14 58.2448 553.92 58.1475C553.7 58.0459 553.442 57.9951 553.146 57.9951C552.799 57.9951 552.509 58.0565 552.276 58.1792C552.044 58.3019 551.857 58.4712 551.718 58.687C551.578 58.9028 551.477 59.1504 551.413 59.4297C551.354 59.7048 551.324 59.9967 551.324 60.3057ZM555.774 59.6582L554.987 59.8994C554.991 59.5228 555.052 59.161 555.171 58.814C555.294 58.467 555.469 58.158 555.698 57.8872C555.931 57.6164 556.216 57.4027 556.555 57.2461C556.893 57.0853 557.28 57.0049 557.716 57.0049C558.084 57.0049 558.41 57.0535 558.694 57.1509C558.982 57.2482 559.223 57.3984 559.417 57.6016C559.616 57.8005 559.767 58.0565 559.868 58.3696C559.97 58.6828 560.021 59.0552 560.021 59.4868V64H558.84V59.4741C558.84 59.089 558.778 58.7907 558.656 58.5791C558.537 58.3633 558.368 58.2131 558.148 58.1284C557.932 58.0396 557.674 57.9951 557.374 57.9951C557.115 57.9951 556.887 58.0396 556.688 58.1284C556.489 58.2173 556.322 58.34 556.187 58.4966C556.051 58.6489 555.947 58.8245 555.875 59.0234C555.808 59.2223 555.774 59.4339 555.774 59.6582Z" fill="white"/>
<rect x="216" y="120" width="76" height="40" rx="4" fill="#1A1A1A"/>
<path d="M229.098 134.758H232.158C232.852 134.758 233.438 134.864 233.916 135.075C234.398 135.287 234.764 135.6 235.014 136.015C235.268 136.425 235.395 136.931 235.395 137.532C235.395 137.955 235.308 138.342 235.135 138.693C234.965 139.04 234.72 139.337 234.398 139.582C234.081 139.823 233.7 140.003 233.256 140.122L232.913 140.255H230.038L230.025 139.258H232.196C232.636 139.258 233.002 139.182 233.294 139.03C233.586 138.873 233.806 138.664 233.954 138.401C234.102 138.139 234.176 137.849 234.176 137.532C234.176 137.176 234.106 136.865 233.967 136.599C233.827 136.332 233.607 136.127 233.307 135.983C233.01 135.835 232.627 135.761 232.158 135.761H230.323V144H229.098V134.758ZM234.5 144L232.253 139.811L233.529 139.804L235.808 143.924V144H234.5ZM238.207 137.132V144H237.026V137.132H238.207ZM236.938 135.31C236.938 135.12 236.995 134.959 237.109 134.828C237.227 134.696 237.401 134.631 237.629 134.631C237.854 134.631 238.025 134.696 238.144 134.828C238.266 134.959 238.328 135.12 238.328 135.31C238.328 135.492 238.266 135.649 238.144 135.78C238.025 135.907 237.854 135.97 237.629 135.97C237.401 135.97 237.227 135.907 237.109 135.78C236.995 135.649 236.938 135.492 236.938 135.31ZM244.542 137.132H245.608V143.854C245.608 144.459 245.486 144.975 245.24 145.403C244.995 145.83 244.652 146.154 244.212 146.374C243.776 146.598 243.272 146.71 242.701 146.71C242.464 146.71 242.185 146.672 241.863 146.596C241.546 146.524 241.233 146.399 240.924 146.222C240.619 146.048 240.363 145.813 240.156 145.517L240.771 144.819C241.059 145.166 241.36 145.407 241.673 145.542C241.99 145.678 242.303 145.746 242.612 145.746C242.985 145.746 243.306 145.676 243.577 145.536C243.848 145.396 244.057 145.189 244.206 144.914C244.358 144.643 244.434 144.309 244.434 143.911V138.643L244.542 137.132ZM239.813 140.642V140.509C239.813 139.984 239.874 139.508 239.997 139.081C240.124 138.649 240.304 138.279 240.537 137.97C240.774 137.661 241.059 137.424 241.394 137.259C241.728 137.09 242.104 137.005 242.523 137.005C242.955 137.005 243.332 137.081 243.653 137.233C243.979 137.382 244.254 137.599 244.479 137.887C244.707 138.171 244.887 138.514 245.018 138.916C245.149 139.318 245.24 139.772 245.291 140.28V140.864C245.244 141.368 245.153 141.821 245.018 142.223C244.887 142.625 244.707 142.967 244.479 143.251C244.254 143.535 243.979 143.752 243.653 143.905C243.327 144.053 242.947 144.127 242.511 144.127C242.1 144.127 241.728 144.04 241.394 143.867C241.063 143.693 240.78 143.45 240.543 143.137C240.306 142.824 240.124 142.455 239.997 142.032C239.874 141.605 239.813 141.141 239.813 140.642ZM240.987 140.509V140.642C240.987 140.985 241.021 141.306 241.089 141.607C241.161 141.907 241.269 142.172 241.413 142.4C241.561 142.629 241.749 142.809 241.978 142.94C242.206 143.067 242.479 143.13 242.796 143.13C243.186 143.13 243.507 143.048 243.761 142.883C244.015 142.718 244.216 142.5 244.364 142.229C244.517 141.958 244.635 141.664 244.72 141.347V139.817C244.673 139.584 244.601 139.36 244.504 139.144C244.411 138.924 244.288 138.729 244.136 138.56C243.988 138.387 243.804 138.249 243.583 138.147C243.363 138.046 243.105 137.995 242.809 137.995C242.487 137.995 242.21 138.063 241.978 138.198C241.749 138.329 241.561 138.511 241.413 138.744C241.269 138.973 241.161 139.239 241.089 139.544C241.021 139.844 240.987 140.166 240.987 140.509ZM248.566 134.25V144H247.392V134.25H248.566ZM248.287 140.306L247.798 140.287C247.803 139.817 247.872 139.383 248.008 138.985C248.143 138.583 248.334 138.234 248.579 137.938C248.825 137.642 249.117 137.413 249.455 137.252C249.798 137.087 250.177 137.005 250.591 137.005C250.93 137.005 251.235 137.051 251.505 137.145C251.776 137.233 252.007 137.377 252.197 137.576C252.392 137.775 252.54 138.033 252.642 138.351C252.743 138.664 252.794 139.047 252.794 139.5V144H251.613V139.487C251.613 139.127 251.56 138.839 251.455 138.624C251.349 138.403 251.194 138.245 250.991 138.147C250.788 138.046 250.538 137.995 250.242 137.995C249.95 137.995 249.684 138.056 249.442 138.179C249.205 138.302 249 138.471 248.827 138.687C248.657 138.903 248.524 139.15 248.427 139.43C248.334 139.705 248.287 139.997 248.287 140.306ZM257.428 137.132V138.033H253.714V137.132H257.428ZM254.971 135.462H256.146V142.299C256.146 142.532 256.181 142.707 256.253 142.826C256.325 142.944 256.418 143.022 256.533 143.061C256.647 143.099 256.77 143.118 256.901 143.118C256.998 143.118 257.1 143.109 257.206 143.092C257.316 143.071 257.398 143.054 257.453 143.042L257.459 144C257.366 144.03 257.244 144.057 257.091 144.083C256.943 144.112 256.763 144.127 256.552 144.127C256.264 144.127 256 144.07 255.758 143.956C255.517 143.841 255.325 143.651 255.181 143.384C255.041 143.113 254.971 142.75 254.971 142.292V135.462ZM264.905 137.132V138.033H261.192V137.132H264.905ZM262.449 135.462H263.623V142.299C263.623 142.532 263.659 142.707 263.731 142.826C263.803 142.944 263.896 143.022 264.01 143.061C264.125 143.099 264.247 143.118 264.378 143.118C264.476 143.118 264.577 143.109 264.683 143.092C264.793 143.071 264.876 143.054 264.931 143.042L264.937 144C264.844 144.03 264.721 144.057 264.569 144.083C264.421 144.112 264.241 144.127 264.029 144.127C263.742 144.127 263.477 144.07 263.236 143.956C262.995 143.841 262.802 143.651 262.658 143.384C262.519 143.113 262.449 142.75 262.449 142.292V135.462ZM265.845 140.642V140.496C265.845 140.001 265.917 139.542 266.061 139.119C266.204 138.691 266.412 138.321 266.683 138.008C266.953 137.69 267.281 137.445 267.667 137.271C268.052 137.094 268.483 137.005 268.961 137.005C269.444 137.005 269.878 137.094 270.263 137.271C270.652 137.445 270.982 137.69 271.253 138.008C271.528 138.321 271.737 138.691 271.881 139.119C272.025 139.542 272.097 140.001 272.097 140.496V140.642C272.097 141.137 272.025 141.596 271.881 142.02C271.737 142.443 271.528 142.813 271.253 143.13C270.982 143.444 270.654 143.689 270.269 143.867C269.888 144.04 269.457 144.127 268.974 144.127C268.492 144.127 268.058 144.04 267.673 143.867C267.288 143.689 266.958 143.444 266.683 143.13C266.412 142.813 266.204 142.443 266.061 142.02C265.917 141.596 265.845 141.137 265.845 140.642ZM267.019 140.496V140.642C267.019 140.985 267.059 141.309 267.14 141.613C267.22 141.914 267.341 142.18 267.501 142.413C267.667 142.646 267.872 142.83 268.117 142.965C268.363 143.097 268.648 143.162 268.974 143.162C269.296 143.162 269.577 143.097 269.818 142.965C270.064 142.83 270.267 142.646 270.428 142.413C270.589 142.18 270.709 141.914 270.79 141.613C270.874 141.309 270.917 140.985 270.917 140.642V140.496C270.917 140.158 270.874 139.838 270.79 139.538C270.709 139.233 270.586 138.964 270.421 138.731C270.261 138.494 270.057 138.308 269.812 138.173C269.571 138.037 269.287 137.97 268.961 137.97C268.64 137.97 268.356 138.037 268.111 138.173C267.87 138.308 267.667 138.494 267.501 138.731C267.341 138.964 267.22 139.233 267.14 139.538C267.059 139.838 267.019 140.158 267.019 140.496ZM274.744 138.452V146.641H273.563V137.132H274.643L274.744 138.452ZM279.372 140.509V140.642C279.372 141.141 279.312 141.605 279.194 142.032C279.075 142.455 278.902 142.824 278.673 143.137C278.449 143.45 278.172 143.693 277.842 143.867C277.512 144.04 277.133 144.127 276.706 144.127C276.27 144.127 275.885 144.055 275.55 143.911C275.216 143.767 274.932 143.558 274.7 143.283C274.467 143.008 274.281 142.678 274.141 142.292C274.006 141.907 273.913 141.474 273.862 140.991V140.28C273.913 139.772 274.008 139.318 274.147 138.916C274.287 138.514 274.471 138.171 274.7 137.887C274.932 137.599 275.214 137.382 275.544 137.233C275.874 137.081 276.255 137.005 276.687 137.005C277.118 137.005 277.501 137.09 277.835 137.259C278.17 137.424 278.451 137.661 278.68 137.97C278.908 138.279 279.08 138.649 279.194 139.081C279.312 139.508 279.372 139.984 279.372 140.509ZM278.191 140.642V140.509C278.191 140.166 278.155 139.844 278.083 139.544C278.011 139.239 277.899 138.973 277.747 138.744C277.598 138.511 277.408 138.329 277.175 138.198C276.943 138.063 276.665 137.995 276.344 137.995C276.048 137.995 275.789 138.046 275.569 138.147C275.354 138.249 275.169 138.387 275.017 138.56C274.865 138.729 274.74 138.924 274.643 139.144C274.549 139.36 274.48 139.584 274.433 139.817V141.461C274.518 141.757 274.636 142.036 274.789 142.299C274.941 142.557 275.144 142.766 275.398 142.927C275.652 143.084 275.971 143.162 276.356 143.162C276.674 143.162 276.947 143.097 277.175 142.965C277.408 142.83 277.598 142.646 277.747 142.413C277.899 142.18 278.011 141.914 278.083 141.613C278.155 141.309 278.191 140.985 278.191 140.642Z" fill="white"/>
<path d="M292 140V128L298 134L292 140Z" fill="#1A1A1A"/>
<rect x="338" y="120" width="94" height="40" rx="4" fill="#1A1A1A"/>
<path d="M351.3 134.758H354.36C355.054 134.758 355.64 134.864 356.118 135.075C356.601 135.287 356.967 135.6 357.216 136.015C357.47 136.425 357.597 136.931 357.597 137.532C357.597 137.955 357.51 138.342 357.337 138.693C357.168 139.04 356.922 139.337 356.601 139.582C356.283 139.823 355.902 140.003 355.458 140.122L355.115 140.255H352.24L352.227 139.258H354.398C354.838 139.258 355.204 139.182 355.496 139.03C355.788 138.873 356.008 138.664 356.156 138.401C356.304 138.139 356.378 137.849 356.378 137.532C356.378 137.176 356.309 136.865 356.169 136.599C356.029 136.332 355.809 136.127 355.509 135.983C355.213 135.835 354.83 135.761 354.36 135.761H352.525V144H351.3V134.758ZM356.702 144L354.455 139.811L355.731 139.804L358.01 143.924V144H356.702ZM360.409 137.132V144H359.229V137.132H360.409ZM359.14 135.31C359.14 135.12 359.197 134.959 359.311 134.828C359.43 134.696 359.603 134.631 359.832 134.631C360.056 134.631 360.227 134.696 360.346 134.828C360.468 134.959 360.53 135.12 360.53 135.31C360.53 135.492 360.468 135.649 360.346 135.78C360.227 135.907 360.056 135.97 359.832 135.97C359.603 135.97 359.43 135.907 359.311 135.78C359.197 135.649 359.14 135.492 359.14 135.31ZM366.744 137.132H367.811V143.854C367.811 144.459 367.688 144.975 367.442 145.403C367.197 145.83 366.854 146.154 366.414 146.374C365.978 146.598 365.475 146.71 364.903 146.71C364.666 146.71 364.387 146.672 364.065 146.596C363.748 146.524 363.435 146.399 363.126 146.222C362.821 146.048 362.565 145.813 362.358 145.517L362.974 144.819C363.261 145.166 363.562 145.407 363.875 145.542C364.192 145.678 364.506 145.746 364.814 145.746C365.187 145.746 365.508 145.676 365.779 145.536C366.05 145.396 366.26 145.189 366.408 144.914C366.56 144.643 366.636 144.309 366.636 143.911V138.643L366.744 137.132ZM362.015 140.642V140.509C362.015 139.984 362.076 139.508 362.199 139.081C362.326 138.649 362.506 138.279 362.739 137.97C362.976 137.661 363.261 137.424 363.596 137.259C363.93 137.09 364.307 137.005 364.726 137.005C365.157 137.005 365.534 137.081 365.855 137.233C366.181 137.382 366.456 137.599 366.681 137.887C366.909 138.171 367.089 138.514 367.22 138.916C367.351 139.318 367.442 139.772 367.493 140.28V140.864C367.447 141.368 367.356 141.821 367.22 142.223C367.089 142.625 366.909 142.967 366.681 143.251C366.456 143.535 366.181 143.752 365.855 143.905C365.53 144.053 365.149 144.127 364.713 144.127C364.302 144.127 363.93 144.04 363.596 143.867C363.266 143.693 362.982 143.45 362.745 143.137C362.508 142.824 362.326 142.455 362.199 142.032C362.076 141.605 362.015 141.141 362.015 140.642ZM363.189 140.509V140.642C363.189 140.985 363.223 141.306 363.291 141.607C363.363 141.907 363.471 142.172 363.615 142.4C363.763 142.629 363.951 142.809 364.18 142.94C364.408 143.067 364.681 143.13 364.999 143.13C365.388 143.13 365.709 143.048 365.963 142.883C366.217 142.718 366.418 142.5 366.566 142.229C366.719 141.958 366.837 141.664 366.922 141.347V139.817C366.875 139.584 366.803 139.36 366.706 139.144C366.613 138.924 366.49 138.729 366.338 138.56C366.19 138.387 366.006 138.249 365.786 138.147C365.566 138.046 365.307 137.995 365.011 137.995C364.69 137.995 364.412 138.063 364.18 138.198C363.951 138.329 363.763 138.511 363.615 138.744C363.471 138.973 363.363 139.239 363.291 139.544C363.223 139.844 363.189 140.166 363.189 140.509ZM370.769 134.25V144H369.594V134.25H370.769ZM370.489 140.306L370 140.287C370.005 139.817 370.075 139.383 370.21 138.985C370.345 138.583 370.536 138.234 370.781 137.938C371.027 137.642 371.319 137.413 371.657 137.252C372 137.087 372.379 137.005 372.793 137.005C373.132 137.005 373.437 137.051 373.708 137.145C373.978 137.233 374.209 137.377 374.399 137.576C374.594 137.775 374.742 138.033 374.844 138.351C374.945 138.664 374.996 139.047 374.996 139.5V144H373.815V139.487C373.815 139.127 373.763 138.839 373.657 138.624C373.551 138.403 373.396 138.245 373.193 138.147C372.99 138.046 372.741 137.995 372.444 137.995C372.152 137.995 371.886 138.056 371.645 138.179C371.408 138.302 371.202 138.471 371.029 138.687C370.86 138.903 370.726 139.15 370.629 139.43C370.536 139.705 370.489 139.997 370.489 140.306ZM379.63 137.132V138.033H375.917V137.132H379.63ZM377.173 135.462H378.348V142.299C378.348 142.532 378.384 142.707 378.456 142.826C378.528 142.944 378.621 143.022 378.735 143.061C378.849 143.099 378.972 143.118 379.103 143.118C379.2 143.118 379.302 143.109 379.408 143.092C379.518 143.071 379.6 143.054 379.655 143.042L379.662 144C379.569 144.03 379.446 144.057 379.293 144.083C379.145 144.112 378.965 144.127 378.754 144.127C378.466 144.127 378.202 144.07 377.96 143.956C377.719 143.841 377.527 143.651 377.383 143.384C377.243 143.113 377.173 142.75 377.173 142.292V135.462ZM386.98 143.162C387.26 143.162 387.518 143.105 387.755 142.991C387.992 142.876 388.187 142.72 388.339 142.521C388.491 142.318 388.578 142.087 388.599 141.829H389.716C389.695 142.235 389.558 142.614 389.304 142.965C389.054 143.312 388.726 143.594 388.32 143.81C387.914 144.021 387.467 144.127 386.98 144.127C386.464 144.127 386.014 144.036 385.628 143.854C385.248 143.672 384.93 143.422 384.676 143.105C384.427 142.788 384.238 142.424 384.111 142.013C383.989 141.598 383.927 141.16 383.927 140.699V140.433C383.927 139.971 383.989 139.535 384.111 139.125C384.238 138.71 384.427 138.344 384.676 138.027C384.93 137.709 385.248 137.46 385.628 137.278C386.014 137.096 386.464 137.005 386.98 137.005C387.518 137.005 387.988 137.115 388.39 137.335C388.792 137.551 389.107 137.847 389.335 138.224C389.568 138.596 389.695 139.019 389.716 139.493H388.599C388.578 139.21 388.498 138.954 388.358 138.725C388.222 138.497 388.036 138.315 387.799 138.179C387.567 138.04 387.294 137.97 386.98 137.97C386.621 137.97 386.318 138.042 386.073 138.186C385.832 138.325 385.639 138.516 385.495 138.757C385.355 138.994 385.254 139.258 385.19 139.55C385.131 139.838 385.102 140.132 385.102 140.433V140.699C385.102 141 385.131 141.296 385.19 141.588C385.25 141.88 385.349 142.144 385.489 142.381C385.633 142.618 385.825 142.809 386.066 142.953C386.312 143.092 386.617 143.162 386.98 143.162ZM393.887 144.127C393.409 144.127 392.975 144.047 392.585 143.886C392.2 143.721 391.868 143.49 391.589 143.194C391.314 142.898 391.102 142.546 390.954 142.14C390.806 141.734 390.732 141.29 390.732 140.807V140.541C390.732 139.982 390.814 139.485 390.979 139.049C391.145 138.609 391.369 138.236 391.652 137.932C391.936 137.627 392.257 137.396 392.617 137.24C392.977 137.083 393.349 137.005 393.734 137.005C394.225 137.005 394.648 137.09 395.004 137.259C395.364 137.428 395.658 137.665 395.886 137.97C396.115 138.27 396.284 138.626 396.394 139.036C396.504 139.442 396.559 139.887 396.559 140.369V140.896H391.43V139.938H395.385V139.849C395.368 139.544 395.304 139.248 395.194 138.96C395.089 138.672 394.919 138.435 394.687 138.249C394.454 138.063 394.136 137.97 393.734 137.97C393.468 137.97 393.222 138.027 392.998 138.141C392.774 138.251 392.581 138.416 392.42 138.636C392.26 138.856 392.135 139.125 392.046 139.442C391.957 139.76 391.913 140.126 391.913 140.541V140.807C391.913 141.133 391.957 141.44 392.046 141.728C392.139 142.011 392.272 142.261 392.446 142.477C392.624 142.692 392.837 142.862 393.087 142.984C393.341 143.107 393.629 143.168 393.95 143.168C394.365 143.168 394.716 143.084 395.004 142.915C395.292 142.745 395.543 142.519 395.759 142.235L396.47 142.8C396.322 143.025 396.134 143.238 395.905 143.441C395.677 143.645 395.395 143.81 395.061 143.937C394.731 144.063 394.34 144.127 393.887 144.127ZM399.104 138.598V144H397.93V137.132H399.041L399.104 138.598ZM398.825 140.306L398.336 140.287C398.341 139.817 398.41 139.383 398.546 138.985C398.681 138.583 398.872 138.234 399.117 137.938C399.363 137.642 399.655 137.413 399.993 137.252C400.336 137.087 400.715 137.005 401.129 137.005C401.468 137.005 401.773 137.051 402.043 137.145C402.314 137.233 402.545 137.377 402.735 137.576C402.93 137.775 403.078 138.033 403.18 138.351C403.281 138.664 403.332 139.047 403.332 139.5V144H402.151V139.487C402.151 139.127 402.098 138.839 401.993 138.624C401.887 138.403 401.732 138.245 401.529 138.147C401.326 138.046 401.076 137.995 400.78 137.995C400.488 137.995 400.222 138.056 399.98 138.179C399.743 138.302 399.538 138.471 399.365 138.687C399.195 138.903 399.062 139.15 398.965 139.43C398.872 139.705 398.825 139.997 398.825 140.306ZM407.991 137.132V138.033H404.278V137.132H407.991ZM405.535 135.462H406.709V142.299C406.709 142.532 406.745 142.707 406.817 142.826C406.889 142.944 406.982 143.022 407.096 143.061C407.21 143.099 407.333 143.118 407.464 143.118C407.562 143.118 407.663 143.109 407.769 143.092C407.879 143.071 407.962 143.054 408.017 143.042L408.023 144C407.93 144.03 407.807 144.057 407.655 144.083C407.507 144.112 407.327 144.127 407.115 144.127C406.827 144.127 406.563 144.07 406.322 143.956C406.081 143.841 405.888 143.651 405.744 143.384C405.604 143.113 405.535 142.75 405.535 142.292V135.462ZM412.219 144.127C411.741 144.127 411.307 144.047 410.917 143.886C410.532 143.721 410.2 143.49 409.921 143.194C409.646 142.898 409.434 142.546 409.286 142.14C409.138 141.734 409.064 141.29 409.064 140.807V140.541C409.064 139.982 409.146 139.485 409.312 139.049C409.477 138.609 409.701 138.236 409.984 137.932C410.268 137.627 410.59 137.396 410.949 137.24C411.309 137.083 411.681 137.005 412.066 137.005C412.557 137.005 412.98 137.09 413.336 137.259C413.696 137.428 413.99 137.665 414.218 137.97C414.447 138.27 414.616 138.626 414.726 139.036C414.836 139.442 414.891 139.887 414.891 140.369V140.896H409.762V139.938H413.717V139.849C413.7 139.544 413.636 139.248 413.526 138.96C413.421 138.672 413.251 138.435 413.019 138.249C412.786 138.063 412.468 137.97 412.066 137.97C411.8 137.97 411.554 138.027 411.33 138.141C411.106 138.251 410.913 138.416 410.752 138.636C410.592 138.856 410.467 139.125 410.378 139.442C410.289 139.76 410.245 140.126 410.245 140.541V140.807C410.245 141.133 410.289 141.44 410.378 141.728C410.471 142.011 410.604 142.261 410.778 142.477C410.956 142.692 411.169 142.862 411.419 142.984C411.673 143.107 411.961 143.168 412.282 143.168C412.697 143.168 413.048 143.084 413.336 142.915C413.624 142.745 413.875 142.519 414.091 142.235L414.802 142.8C414.654 143.025 414.466 143.238 414.237 143.441C414.009 143.645 413.727 143.81 413.393 143.937C413.063 144.063 412.672 144.127 412.219 144.127ZM417.437 138.211V144H416.262V137.132H417.405L417.437 138.211ZM419.582 137.094L419.576 138.186C419.478 138.164 419.385 138.152 419.296 138.147C419.212 138.139 419.114 138.135 419.004 138.135C418.734 138.135 418.494 138.177 418.287 138.262C418.08 138.346 417.904 138.465 417.76 138.617C417.616 138.77 417.502 138.951 417.417 139.163C417.337 139.37 417.284 139.599 417.259 139.849L416.929 140.039C416.929 139.624 416.969 139.235 417.049 138.871C417.134 138.507 417.263 138.186 417.437 137.906C417.61 137.623 417.83 137.403 418.097 137.246C418.368 137.085 418.689 137.005 419.062 137.005C419.146 137.005 419.243 137.015 419.354 137.037C419.464 137.054 419.54 137.073 419.582 137.094Z" fill="white"/>
<path d="M432 146V134L438 140L432 146Z" fill="#1A1A1A"/>
<rect x="478" y="120" width="100" height="40" rx="4" fill="#1A1A1A"/>
<path d="M491.564 134.758H494.624C495.318 134.758 495.904 134.864 496.382 135.075C496.865 135.287 497.231 135.6 497.48 136.015C497.734 136.425 497.861 136.931 497.861 137.532C497.861 137.955 497.775 138.342 497.601 138.693C497.432 139.04 497.186 139.337 496.865 139.582C496.547 139.823 496.167 140.003 495.722 140.122L495.379 140.255H492.504L492.491 139.258H494.662C495.102 139.258 495.468 139.182 495.76 139.03C496.052 138.873 496.272 138.664 496.42 138.401C496.569 138.139 496.643 137.849 496.643 137.532C496.643 137.176 496.573 136.865 496.433 136.599C496.293 136.332 496.073 136.127 495.773 135.983C495.477 135.835 495.094 135.761 494.624 135.761H492.79V144H491.564V134.758ZM496.966 144L494.719 139.811L495.995 139.804L498.274 143.924V144H496.966ZM500.673 137.132V144H499.493V137.132H500.673ZM499.404 135.31C499.404 135.12 499.461 134.959 499.575 134.828C499.694 134.696 499.867 134.631 500.096 134.631C500.32 134.631 500.491 134.696 500.61 134.828C500.733 134.959 500.794 135.12 500.794 135.31C500.794 135.492 500.733 135.649 500.61 135.78C500.491 135.907 500.32 135.97 500.096 135.97C499.867 135.97 499.694 135.907 499.575 135.78C499.461 135.649 499.404 135.492 499.404 135.31ZM507.008 137.132H508.075V143.854C508.075 144.459 507.952 144.975 507.707 145.403C507.461 145.83 507.118 146.154 506.678 146.374C506.242 146.598 505.739 146.71 505.167 146.71C504.931 146.71 504.651 146.672 504.33 146.596C504.012 146.524 503.699 146.399 503.39 146.222C503.085 146.048 502.829 145.813 502.622 145.517L503.238 144.819C503.526 145.166 503.826 145.407 504.139 145.542C504.457 145.678 504.77 145.746 505.079 145.746C505.451 145.746 505.773 145.676 506.043 145.536C506.314 145.396 506.524 145.189 506.672 144.914C506.824 144.643 506.9 144.309 506.9 143.911V138.643L507.008 137.132ZM502.279 140.642V140.509C502.279 139.984 502.341 139.508 502.463 139.081C502.59 138.649 502.77 138.279 503.003 137.97C503.24 137.661 503.526 137.424 503.86 137.259C504.194 137.09 504.571 137.005 504.99 137.005C505.421 137.005 505.798 137.081 506.12 137.233C506.445 137.382 506.721 137.599 506.945 137.887C507.173 138.171 507.353 138.514 507.484 138.916C507.616 139.318 507.707 139.772 507.757 140.28V140.864C507.711 141.368 507.62 141.821 507.484 142.223C507.353 142.625 507.173 142.967 506.945 143.251C506.721 143.535 506.445 143.752 506.12 143.905C505.794 144.053 505.413 144.127 504.977 144.127C504.567 144.127 504.194 144.04 503.86 143.867C503.53 143.693 503.246 143.45 503.009 143.137C502.772 142.824 502.59 142.455 502.463 142.032C502.341 141.605 502.279 141.141 502.279 140.642ZM503.454 140.509V140.642C503.454 140.985 503.487 141.306 503.555 141.607C503.627 141.907 503.735 142.172 503.879 142.4C504.027 142.629 504.215 142.809 504.444 142.94C504.672 143.067 504.945 143.13 505.263 143.13C505.652 143.13 505.974 143.048 506.228 142.883C506.481 142.718 506.682 142.5 506.831 142.229C506.983 141.958 507.101 141.664 507.186 141.347V139.817C507.139 139.584 507.068 139.36 506.97 139.144C506.877 138.924 506.754 138.729 506.602 138.56C506.454 138.387 506.27 138.249 506.05 138.147C505.83 138.046 505.572 137.995 505.275 137.995C504.954 137.995 504.677 138.063 504.444 138.198C504.215 138.329 504.027 138.511 503.879 138.744C503.735 138.973 503.627 139.239 503.555 139.544C503.487 139.844 503.454 140.166 503.454 140.509ZM511.033 134.25V144H509.858V134.25H511.033ZM510.753 140.306L510.265 140.287C510.269 139.817 510.339 139.383 510.474 138.985C510.61 138.583 510.8 138.234 511.045 137.938C511.291 137.642 511.583 137.413 511.921 137.252C512.264 137.087 512.643 137.005 513.058 137.005C513.396 137.005 513.701 137.051 513.972 137.145C514.243 137.233 514.473 137.377 514.664 137.576C514.858 137.775 515.006 138.033 515.108 138.351C515.209 138.664 515.26 139.047 515.26 139.5V144H514.08V139.487C514.08 139.127 514.027 138.839 513.921 138.624C513.815 138.403 513.661 138.245 513.458 138.147C513.254 138.046 513.005 137.995 512.708 137.995C512.417 137.995 512.15 138.056 511.909 138.179C511.672 138.302 511.466 138.471 511.293 138.687C511.124 138.903 510.99 139.15 510.893 139.43C510.8 139.705 510.753 139.997 510.753 140.306ZM519.894 137.132V138.033H516.181V137.132H519.894ZM517.438 135.462H518.612V142.299C518.612 142.532 518.648 142.707 518.72 142.826C518.792 142.944 518.885 143.022 518.999 143.061C519.113 143.099 519.236 143.118 519.367 143.118C519.465 143.118 519.566 143.109 519.672 143.092C519.782 143.071 519.864 143.054 519.919 143.042L519.926 144C519.833 144.03 519.71 144.057 519.558 144.083C519.41 144.112 519.23 144.127 519.018 144.127C518.73 144.127 518.466 144.07 518.225 143.956C517.983 143.841 517.791 143.651 517.647 143.384C517.507 143.113 517.438 142.75 517.438 142.292V135.462ZM524.49 134.25H525.67V142.667L525.569 144H524.49V134.25ZM530.311 140.509V140.642C530.311 141.141 530.251 141.605 530.133 142.032C530.014 142.455 529.841 142.824 529.612 143.137C529.384 143.45 529.104 143.693 528.774 143.867C528.444 144.04 528.066 144.127 527.638 144.127C527.202 144.127 526.819 144.053 526.489 143.905C526.163 143.752 525.888 143.535 525.664 143.251C525.44 142.967 525.26 142.625 525.125 142.223C524.993 141.821 524.902 141.368 524.852 140.864V140.28C524.902 139.772 524.993 139.318 525.125 138.916C525.26 138.514 525.44 138.171 525.664 137.887C525.888 137.599 526.163 137.382 526.489 137.233C526.815 137.081 527.194 137.005 527.625 137.005C528.057 137.005 528.44 137.09 528.774 137.259C529.109 137.424 529.388 137.661 529.612 137.97C529.841 138.279 530.014 138.649 530.133 139.081C530.251 139.508 530.311 139.984 530.311 140.509ZM529.13 140.642V140.509C529.13 140.166 529.098 139.844 529.035 139.544C528.971 139.239 528.87 138.973 528.73 138.744C528.59 138.511 528.406 138.329 528.178 138.198C527.949 138.063 527.668 137.995 527.333 137.995C527.037 137.995 526.779 138.046 526.559 138.147C526.343 138.249 526.159 138.387 526.007 138.56C525.854 138.729 525.73 138.924 525.632 139.144C525.539 139.36 525.469 139.584 525.423 139.817V141.347C525.491 141.643 525.601 141.929 525.753 142.204C525.91 142.474 526.117 142.697 526.375 142.87C526.637 143.044 526.961 143.13 527.346 143.13C527.664 143.13 527.934 143.067 528.159 142.94C528.387 142.809 528.571 142.629 528.711 142.4C528.855 142.172 528.961 141.907 529.028 141.607C529.096 141.306 529.13 140.985 529.13 140.642ZM531.485 140.642V140.496C531.485 140.001 531.557 139.542 531.701 139.119C531.845 138.691 532.052 138.321 532.323 138.008C532.594 137.69 532.922 137.445 533.307 137.271C533.692 137.094 534.123 137.005 534.602 137.005C535.084 137.005 535.518 137.094 535.903 137.271C536.292 137.445 536.622 137.69 536.893 138.008C537.168 138.321 537.378 138.691 537.521 139.119C537.665 139.542 537.737 140.001 537.737 140.496V140.642C537.737 141.137 537.665 141.596 537.521 142.02C537.378 142.443 537.168 142.813 536.893 143.13C536.622 143.444 536.294 143.689 535.909 143.867C535.528 144.04 535.097 144.127 534.614 144.127C534.132 144.127 533.698 144.04 533.313 143.867C532.928 143.689 532.598 143.444 532.323 143.13C532.052 142.813 531.845 142.443 531.701 142.02C531.557 141.596 531.485 141.137 531.485 140.642ZM532.659 140.496V140.642C532.659 140.985 532.699 141.309 532.78 141.613C532.86 141.914 532.981 142.18 533.142 142.413C533.307 142.646 533.512 142.83 533.757 142.965C534.003 143.097 534.288 143.162 534.614 143.162C534.936 143.162 535.217 143.097 535.458 142.965C535.704 142.83 535.907 142.646 536.068 142.413C536.229 142.18 536.349 141.914 536.43 141.613C536.514 141.309 536.557 140.985 536.557 140.642V140.496C536.557 140.158 536.514 139.838 536.43 139.538C536.349 139.233 536.227 138.964 536.062 138.731C535.901 138.494 535.698 138.308 535.452 138.173C535.211 138.037 534.927 137.97 534.602 137.97C534.28 137.97 533.996 138.037 533.751 138.173C533.51 138.308 533.307 138.494 533.142 138.731C532.981 138.964 532.86 139.233 532.78 139.538C532.699 139.838 532.659 140.158 532.659 140.496ZM542.085 137.132V138.033H538.372V137.132H542.085ZM539.629 135.462H540.803V142.299C540.803 142.532 540.839 142.707 540.911 142.826C540.983 142.944 541.076 143.022 541.19 143.061C541.305 143.099 541.427 143.118 541.559 143.118C541.656 143.118 541.757 143.109 541.863 143.092C541.973 143.071 542.056 143.054 542.111 143.042L542.117 144C542.024 144.03 541.901 144.057 541.749 144.083C541.601 144.112 541.421 144.127 541.209 144.127C540.922 144.127 540.657 144.07 540.416 143.956C540.175 143.841 539.982 143.651 539.838 143.384C539.699 143.113 539.629 142.75 539.629 142.292V135.462ZM546.338 137.132V138.033H542.625V137.132H546.338ZM543.882 135.462H545.056V142.299C545.056 142.532 545.092 142.707 545.164 142.826C545.236 142.944 545.329 143.022 545.443 143.061C545.558 143.099 545.68 143.118 545.812 143.118C545.909 143.118 546.01 143.109 546.116 143.092C546.226 143.071 546.309 143.054 546.364 143.042L546.37 144C546.277 144.03 546.154 144.057 546.002 144.083C545.854 144.112 545.674 144.127 545.462 144.127C545.175 144.127 544.91 144.07 544.669 143.956C544.428 143.841 544.235 143.651 544.091 143.384C543.952 143.113 543.882 142.75 543.882 142.292V135.462ZM547.278 140.642V140.496C547.278 140.001 547.35 139.542 547.494 139.119C547.638 138.691 547.845 138.321 548.116 138.008C548.387 137.69 548.715 137.445 549.1 137.271C549.485 137.094 549.916 137.005 550.395 137.005C550.877 137.005 551.311 137.094 551.696 137.271C552.085 137.445 552.415 137.69 552.686 138.008C552.961 138.321 553.171 138.691 553.314 139.119C553.458 139.542 553.53 140.001 553.53 140.496V140.642C553.53 141.137 553.458 141.596 553.314 142.02C553.171 142.443 552.961 142.813 552.686 143.13C552.415 143.444 552.087 143.689 551.702 143.867C551.321 144.04 550.89 144.127 550.407 144.127C549.925 144.127 549.491 144.04 549.106 143.867C548.721 143.689 548.391 143.444 548.116 143.13C547.845 142.813 547.638 142.443 547.494 142.02C547.35 141.596 547.278 141.137 547.278 140.642ZM548.452 140.496V140.642C548.452 140.985 548.492 141.309 548.573 141.613C548.653 141.914 548.774 142.18 548.935 142.413C549.1 142.646 549.305 142.83 549.55 142.965C549.796 143.097 550.081 143.162 550.407 143.162C550.729 143.162 551.01 143.097 551.251 142.965C551.497 142.83 551.7 142.646 551.861 142.413C552.022 142.18 552.142 141.914 552.223 141.613C552.307 141.309 552.35 140.985 552.35 140.642V140.496C552.35 140.158 552.307 139.838 552.223 139.538C552.142 139.233 552.02 138.964 551.854 138.731C551.694 138.494 551.491 138.308 551.245 138.173C551.004 138.037 550.72 137.97 550.395 137.97C550.073 137.97 549.789 138.037 549.544 138.173C549.303 138.308 549.1 138.494 548.935 138.731C548.774 138.964 548.653 139.233 548.573 139.538C548.492 139.838 548.452 140.158 548.452 140.496ZM556.171 138.497V144H554.99V137.132H556.107L556.171 138.497ZM555.93 140.306L555.384 140.287C555.388 139.817 555.449 139.383 555.568 138.985C555.686 138.583 555.862 138.234 556.095 137.938C556.327 137.642 556.617 137.413 556.964 137.252C557.311 137.087 557.713 137.005 558.17 137.005C558.492 137.005 558.788 137.051 559.059 137.145C559.33 137.233 559.565 137.375 559.764 137.57C559.963 137.764 560.117 138.014 560.227 138.319C560.337 138.624 560.392 138.992 560.392 139.423V144H559.218V139.48C559.218 139.121 559.156 138.833 559.034 138.617C558.915 138.401 558.746 138.245 558.526 138.147C558.306 138.046 558.048 137.995 557.751 137.995C557.404 137.995 557.115 138.056 556.882 138.179C556.649 138.302 556.463 138.471 556.323 138.687C556.184 138.903 556.082 139.15 556.019 139.43C555.959 139.705 555.93 139.997 555.93 140.306ZM560.379 139.658L559.592 139.899C559.597 139.523 559.658 139.161 559.776 138.814C559.899 138.467 560.075 138.158 560.303 137.887C560.536 137.616 560.822 137.403 561.16 137.246C561.499 137.085 561.886 137.005 562.322 137.005C562.69 137.005 563.016 137.054 563.299 137.151C563.587 137.248 563.828 137.398 564.023 137.602C564.222 137.8 564.372 138.056 564.474 138.37C564.575 138.683 564.626 139.055 564.626 139.487V144H563.445V139.474C563.445 139.089 563.384 138.791 563.261 138.579C563.143 138.363 562.973 138.213 562.753 138.128C562.538 138.04 562.279 137.995 561.979 137.995C561.721 137.995 561.492 138.04 561.293 138.128C561.095 138.217 560.927 138.34 560.792 138.497C560.657 138.649 560.553 138.825 560.481 139.023C560.413 139.222 560.379 139.434 560.379 139.658Z" fill="white"/>
<path d="M578 152V140L584 146L578 152Z" fill="#1A1A1A"/>
</svg>
