<svg width="800" height="150" viewBox="0 0 800 150" fill="none" xmlns="http://www.w3.org/2000/svg">
<rect width="800" height="150" rx="4" fill="#F8F8F8"/>
<rect x="236" y="40" width="89" height="40" rx="4" fill="#1A1A1A"/>
<path d="M252.539 54.7578V64H251.333V54.7578H252.539ZM255.509 54.7578V55.7607H248.368V54.7578H255.509ZM255.757 60.6421V60.4961C255.757 60.001 255.829 59.5418 255.973 59.1187C256.117 58.6912 256.324 58.321 256.595 58.0078C256.866 57.6904 257.194 57.445 257.579 57.2715C257.964 57.0938 258.395 57.0049 258.874 57.0049C259.356 57.0049 259.79 57.0938 260.175 57.2715C260.564 57.445 260.894 57.6904 261.165 58.0078C261.44 58.321 261.65 58.6912 261.793 59.1187C261.937 59.5418 262.009 60.001 262.009 60.4961V60.6421C262.009 61.1372 261.937 61.5964 261.793 62.0195C261.65 62.4427 261.44 62.813 261.165 63.1304C260.894 63.4435 260.566 63.689 260.181 63.8667C259.8 64.0402 259.369 64.127 258.886 64.127C258.404 64.127 257.97 64.0402 257.585 63.8667C257.2 63.689 256.87 63.4435 256.595 63.1304C256.324 62.813 256.117 62.4427 255.973 62.0195C255.829 61.5964 255.757 61.1372 255.757 60.6421ZM256.931 60.4961V60.6421C256.931 60.9849 256.971 61.3086 257.052 61.6133C257.132 61.9137 257.253 62.1803 257.414 62.4131C257.579 62.6458 257.784 62.8299 258.029 62.9653C258.275 63.0965 258.56 63.1621 258.886 63.1621C259.208 63.1621 259.489 63.0965 259.73 62.9653C259.976 62.8299 260.179 62.6458 260.34 62.4131C260.501 62.1803 260.621 61.9137 260.702 61.6133C260.786 61.3086 260.829 60.9849 260.829 60.6421V60.4961C260.829 60.1576 260.786 59.8381 260.702 59.5376C260.621 59.2329 260.499 58.9642 260.333 58.7314C260.173 58.4945 259.97 58.3083 259.724 58.1729C259.483 58.0374 259.199 57.9697 258.874 57.9697C258.552 57.9697 258.268 58.0374 258.023 58.1729C257.782 58.3083 257.579 58.4945 257.414 58.7314C257.253 58.9642 257.132 59.2329 257.052 59.5376C256.971 59.8381 256.931 60.1576 256.931 60.4961ZM263.171 60.6421V60.4961C263.171 60.001 263.243 59.5418 263.387 59.1187C263.531 58.6912 263.738 58.321 264.009 58.0078C264.28 57.6904 264.608 57.445 264.993 57.2715C265.378 57.0938 265.809 57.0049 266.288 57.0049C266.77 57.0049 267.204 57.0938 267.589 57.2715C267.978 57.445 268.308 57.6904 268.579 58.0078C268.854 58.321 269.064 58.6912 269.208 59.1187C269.351 59.5418 269.423 60.001 269.423 60.4961V60.6421C269.423 61.1372 269.351 61.5964 269.208 62.0195C269.064 62.4427 268.854 62.813 268.579 63.1304C268.308 63.4435 267.98 63.689 267.595 63.8667C267.214 64.0402 266.783 64.127 266.3 64.127C265.818 64.127 265.384 64.0402 264.999 63.8667C264.614 63.689 264.284 63.4435 264.009 63.1304C263.738 62.813 263.531 62.4427 263.387 62.0195C263.243 61.5964 263.171 61.1372 263.171 60.6421ZM264.345 60.4961V60.6421C264.345 60.9849 264.385 61.3086 264.466 61.6133C264.546 61.9137 264.667 62.1803 264.828 62.4131C264.993 62.6458 265.198 62.8299 265.443 62.9653C265.689 63.0965 265.974 63.1621 266.3 63.1621C266.622 63.1621 266.903 63.0965 267.145 62.9653C267.39 62.8299 267.593 62.6458 267.754 62.4131C267.915 62.1803 268.035 61.9137 268.116 61.6133C268.2 61.3086 268.243 60.9849 268.243 60.6421V60.4961C268.243 60.1576 268.2 59.8381 268.116 59.5376C268.035 59.2329 267.913 58.9642 267.748 58.7314C267.587 58.4945 267.384 58.3083 267.138 58.1729C266.897 58.0374 266.613 57.9697 266.288 57.9697C265.966 57.9697 265.682 58.0374 265.437 58.1729C265.196 58.3083 264.993 58.4945 264.828 58.7314C264.667 58.9642 264.546 59.2329 264.466 59.5376C264.385 59.8381 264.345 60.1576 264.345 60.4961ZM272.172 54.25V64H270.991V54.25H272.172ZM276.933 57.1318V58.0332H273.219V57.1318H276.933ZM274.476 55.4624H275.65V62.2988C275.65 62.5316 275.686 62.7072 275.758 62.8257C275.83 62.9442 275.923 63.0225 276.038 63.0605C276.152 63.0986 276.275 63.1177 276.406 63.1177C276.503 63.1177 276.605 63.1092 276.71 63.0923C276.82 63.0711 276.903 63.0542 276.958 63.0415L276.964 64C276.871 64.0296 276.749 64.0571 276.596 64.0825C276.448 64.1121 276.268 64.127 276.057 64.127C275.769 64.127 275.504 64.0698 275.263 63.9556C275.022 63.8413 274.829 63.6509 274.686 63.3843C274.546 63.1134 274.476 62.7495 274.476 62.2925V55.4624ZM279.586 57.1318V64H278.405V57.1318H279.586ZM278.316 55.3101C278.316 55.1196 278.374 54.9588 278.488 54.8276C278.606 54.6965 278.78 54.6309 279.008 54.6309C279.233 54.6309 279.404 54.6965 279.522 54.8276C279.645 54.9588 279.707 55.1196 279.707 55.3101C279.707 55.492 279.645 55.6486 279.522 55.7798C279.404 55.9067 279.233 55.9702 279.008 55.9702C278.78 55.9702 278.606 55.9067 278.488 55.7798C278.374 55.6486 278.316 55.492 278.316 55.3101ZM282.646 58.4521V66.6406H281.465V57.1318H282.544L282.646 58.4521ZM287.273 60.5088V60.6421C287.273 61.1414 287.214 61.6048 287.095 62.0322C286.977 62.4554 286.803 62.8236 286.575 63.1367C286.35 63.4499 286.073 63.6932 285.743 63.8667C285.413 64.0402 285.034 64.127 284.607 64.127C284.171 64.127 283.786 64.055 283.452 63.9111C283.117 63.7673 282.834 63.5578 282.601 63.2827C282.368 63.0076 282.182 62.6776 282.042 62.2925C281.907 61.9074 281.814 61.4736 281.763 60.9912V60.2803C281.814 59.7725 281.909 59.3175 282.049 58.9155C282.188 58.5135 282.373 58.1707 282.601 57.8872C282.834 57.5994 283.115 57.3815 283.445 57.2334C283.775 57.0811 284.156 57.0049 284.588 57.0049C285.02 57.0049 285.403 57.0895 285.737 57.2588C286.071 57.4238 286.353 57.6608 286.581 57.9697C286.81 58.2786 286.981 58.6489 287.095 59.0806C287.214 59.508 287.273 59.984 287.273 60.5088ZM286.092 60.6421V60.5088C286.092 60.166 286.056 59.8444 285.984 59.5439C285.912 59.2393 285.8 58.9727 285.648 58.7441C285.5 58.5114 285.309 58.3294 285.077 58.1982C284.844 58.0628 284.567 57.9951 284.245 57.9951C283.949 57.9951 283.691 58.0459 283.471 58.1475C283.255 58.249 283.071 58.3866 282.918 58.5601C282.766 58.7293 282.641 58.924 282.544 59.144C282.451 59.3599 282.381 59.5841 282.334 59.8169V61.4609C282.419 61.7572 282.538 62.0365 282.69 62.2988C282.842 62.557 283.045 62.7664 283.299 62.9272C283.553 63.0838 283.873 63.1621 284.258 63.1621C284.575 63.1621 284.848 63.0965 285.077 62.9653C285.309 62.8299 285.5 62.6458 285.648 62.4131C285.8 62.1803 285.912 61.9137 285.984 61.6133C286.056 61.3086 286.092 60.9849 286.092 60.6421ZM294.871 57.1318V58.0332H291.158V57.1318H294.871ZM292.415 55.4624H293.589V62.2988C293.589 62.5316 293.625 62.7072 293.697 62.8257C293.769 62.9442 293.862 63.0225 293.976 63.0605C294.09 63.0986 294.213 63.1177 294.344 63.1177C294.442 63.1177 294.543 63.1092 294.649 63.0923C294.759 63.0711 294.841 63.0542 294.896 63.0415L294.903 64C294.81 64.0296 294.687 64.0571 294.535 64.0825C294.387 64.1121 294.207 64.127 293.995 64.127C293.707 64.127 293.443 64.0698 293.202 63.9556C292.96 63.8413 292.768 63.6509 292.624 63.3843C292.484 63.1134 292.415 62.7495 292.415 62.2925V55.4624ZM299.099 64.127C298.62 64.127 298.187 64.0465 297.797 63.8857C297.412 63.7207 297.08 63.4901 296.801 63.1938C296.526 62.8976 296.314 62.5464 296.166 62.1401C296.018 61.7339 295.944 61.2896 295.944 60.8071V60.5405C295.944 59.9819 296.026 59.4847 296.191 59.0488C296.356 58.6087 296.581 58.2363 296.864 57.9316C297.148 57.627 297.469 57.3963 297.829 57.2397C298.189 57.0832 298.561 57.0049 298.946 57.0049C299.437 57.0049 299.86 57.0895 300.216 57.2588C300.576 57.4281 300.87 57.665 301.098 57.9697C301.327 58.2702 301.496 58.6257 301.606 59.0361C301.716 59.4424 301.771 59.8867 301.771 60.3691V60.896H296.642V59.9375H300.597V59.8486C300.58 59.5439 300.516 59.2477 300.406 58.96C300.3 58.6722 300.131 58.4352 299.898 58.249C299.666 58.0628 299.348 57.9697 298.946 57.9697C298.68 57.9697 298.434 58.0269 298.21 58.1411C297.986 58.2511 297.793 58.4162 297.632 58.6362C297.472 58.8563 297.347 59.125 297.258 59.4424C297.169 59.7598 297.125 60.1258 297.125 60.5405V60.8071C297.125 61.133 297.169 61.4398 297.258 61.7275C297.351 62.0111 297.484 62.2607 297.658 62.4766C297.835 62.6924 298.049 62.8617 298.299 62.9844C298.553 63.1071 298.84 63.1685 299.162 63.1685C299.577 63.1685 299.928 63.0838 300.216 62.9146C300.504 62.7453 300.755 62.5189 300.971 62.2354L301.682 62.8003C301.534 63.0246 301.346 63.2383 301.117 63.4414C300.889 63.6445 300.607 63.8096 300.273 63.9365C299.943 64.0635 299.551 64.127 299.099 64.127ZM303.936 57.1318L305.44 59.6328L306.963 57.1318H308.341L306.094 60.5215L308.411 64H307.052L305.465 61.4229L303.878 64H302.514L304.824 60.5215L302.583 57.1318H303.936ZM312.467 57.1318V58.0332H308.753V57.1318H312.467ZM310.01 55.4624H311.185V62.2988C311.185 62.5316 311.221 62.7072 311.292 62.8257C311.364 62.9442 311.458 63.0225 311.572 63.0605C311.686 63.0986 311.809 63.1177 311.94 63.1177C312.037 63.1177 312.139 63.1092 312.245 63.0923C312.355 63.0711 312.437 63.0542 312.492 63.0415L312.499 64C312.405 64.0296 312.283 64.0571 312.13 64.0825C311.982 64.1121 311.802 64.127 311.591 64.127C311.303 64.127 311.039 64.0698 310.797 63.9556C310.556 63.8413 310.364 63.6509 310.22 63.3843C310.08 63.1134 310.01 62.7495 310.01 62.2925V55.4624Z" fill="white"/>
<path d="M274.5 80H286.5L280.5 86L274.5 80Z" fill="#1A1A1A"/>
<rect x="365" y="40" width="200" height="64" rx="4" fill="#1A1A1A"/>
<path d="M390.447 61.207L392.281 54.7578H393.17L392.656 57.2651L390.682 64H389.799L390.447 61.207ZM388.549 54.7578L390.009 61.0801L390.447 64H389.571L387.33 54.7578H388.549ZM395.544 61.0737L396.972 54.7578H398.197L395.963 64H395.087L395.544 61.0737ZM393.303 54.7578L395.087 61.207L395.734 64H394.852L392.948 57.2651L392.427 54.7578H393.303ZM400.552 54.25V64H399.378V54.25H400.552ZM400.273 60.3057L399.784 60.2866C399.788 59.8169 399.858 59.3831 399.994 58.9854C400.129 58.5833 400.319 58.2342 400.565 57.938C400.81 57.6418 401.102 57.4132 401.441 57.2524C401.784 57.0874 402.162 57.0049 402.577 57.0049C402.916 57.0049 403.22 57.0514 403.491 57.1445C403.762 57.2334 403.993 57.3773 404.183 57.5762C404.378 57.7751 404.526 58.0332 404.627 58.3506C404.729 58.6637 404.78 59.0467 404.78 59.4995V64H403.599V59.4868C403.599 59.1271 403.546 58.8394 403.44 58.6235C403.335 58.4035 403.18 58.2448 402.977 58.1475C402.774 58.0459 402.524 57.9951 402.228 57.9951C401.936 57.9951 401.669 58.0565 401.428 58.1792C401.191 58.3019 400.986 58.4712 400.812 58.687C400.643 58.9028 400.51 59.1504 400.413 59.4297C400.319 59.7048 400.273 59.9967 400.273 60.3057ZM409.388 64.127C408.91 64.127 408.476 64.0465 408.087 63.8857C407.702 63.7207 407.37 63.4901 407.09 63.1938C406.815 62.8976 406.604 62.5464 406.456 62.1401C406.307 61.7339 406.233 61.2896 406.233 60.8071V60.5405C406.233 59.9819 406.316 59.4847 406.481 59.0488C406.646 58.6087 406.87 58.2363 407.154 57.9316C407.437 57.627 407.759 57.3963 408.119 57.2397C408.478 57.0832 408.851 57.0049 409.236 57.0049C409.727 57.0049 410.15 57.0895 410.505 57.2588C410.865 57.4281 411.159 57.665 411.388 57.9697C411.616 58.2702 411.785 58.6257 411.896 59.0361C412.006 59.4424 412.061 59.8867 412.061 60.3691V60.896H406.932V59.9375H410.886V59.8486C410.869 59.5439 410.806 59.2477 410.696 58.96C410.59 58.6722 410.421 58.4352 410.188 58.249C409.955 58.0628 409.638 57.9697 409.236 57.9697C408.969 57.9697 408.724 58.0269 408.5 58.1411C408.275 58.2511 408.083 58.4162 407.922 58.6362C407.761 58.8563 407.636 59.125 407.547 59.4424C407.458 59.7598 407.414 60.1258 407.414 60.5405V60.8071C407.414 61.133 407.458 61.4398 407.547 61.7275C407.64 62.0111 407.774 62.2607 407.947 62.4766C408.125 62.6924 408.339 62.8617 408.588 62.9844C408.842 63.1071 409.13 63.1685 409.452 63.1685C409.866 63.1685 410.218 63.0838 410.505 62.9146C410.793 62.7453 411.045 62.5189 411.261 62.2354L411.972 62.8003C411.824 63.0246 411.635 63.2383 411.407 63.4414C411.178 63.6445 410.897 63.8096 410.562 63.9365C410.232 64.0635 409.841 64.127 409.388 64.127ZM414.606 58.5981V64H413.432V57.1318H414.542L414.606 58.5981ZM414.327 60.3057L413.838 60.2866C413.842 59.8169 413.912 59.3831 414.047 58.9854C414.183 58.5833 414.373 58.2342 414.619 57.938C414.864 57.6418 415.156 57.4132 415.495 57.2524C415.837 57.0874 416.216 57.0049 416.631 57.0049C416.969 57.0049 417.274 57.0514 417.545 57.1445C417.816 57.2334 418.046 57.3773 418.237 57.5762C418.431 57.7751 418.58 58.0332 418.681 58.3506C418.783 58.6637 418.833 59.0467 418.833 59.4995V64H417.653V59.4868C417.653 59.1271 417.6 58.8394 417.494 58.6235C417.388 58.4035 417.234 58.2448 417.031 58.1475C416.828 58.0459 416.578 57.9951 416.282 57.9951C415.99 57.9951 415.723 58.0565 415.482 58.1792C415.245 58.3019 415.04 58.4712 414.866 58.687C414.697 58.9028 414.564 59.1504 414.466 59.4297C414.373 59.7048 414.327 59.9967 414.327 60.3057ZM426.717 57.1318V58.0332H423.004V57.1318H426.717ZM424.261 55.4624H425.435V62.2988C425.435 62.5316 425.471 62.7072 425.543 62.8257C425.615 62.9442 425.708 63.0225 425.822 63.0605C425.937 63.0986 426.059 63.1177 426.19 63.1177C426.288 63.1177 426.389 63.1092 426.495 63.0923C426.605 63.0711 426.688 63.0542 426.743 63.0415L426.749 64C426.656 64.0296 426.533 64.0571 426.381 64.0825C426.233 64.1121 426.053 64.127 425.841 64.127C425.554 64.127 425.289 64.0698 425.048 63.9556C424.807 63.8413 424.614 63.6509 424.47 63.3843C424.331 63.1134 424.261 62.7495 424.261 62.2925V55.4624ZM429.269 54.25V64H428.095V54.25H429.269ZM428.99 60.3057L428.501 60.2866C428.505 59.8169 428.575 59.3831 428.71 58.9854C428.846 58.5833 429.036 58.2342 429.282 57.938C429.527 57.6418 429.819 57.4132 430.158 57.2524C430.5 57.0874 430.879 57.0049 431.294 57.0049C431.632 57.0049 431.937 57.0514 432.208 57.1445C432.479 57.2334 432.709 57.3773 432.9 57.5762C433.095 57.7751 433.243 58.0332 433.344 58.3506C433.446 58.6637 433.497 59.0467 433.497 59.4995V64H432.316V59.4868C432.316 59.1271 432.263 58.8394 432.157 58.6235C432.051 58.4035 431.897 58.2448 431.694 58.1475C431.491 58.0459 431.241 57.9951 430.945 57.9951C430.653 57.9951 430.386 58.0565 430.145 58.1792C429.908 58.3019 429.703 58.4712 429.529 58.687C429.36 58.9028 429.227 59.1504 429.129 59.4297C429.036 59.7048 428.99 59.9967 428.99 60.3057ZM438.105 64.127C437.627 64.127 437.193 64.0465 436.804 63.8857C436.419 63.7207 436.086 63.4901 435.807 63.1938C435.532 62.8976 435.32 62.5464 435.172 62.1401C435.024 61.7339 434.95 61.2896 434.95 60.8071V60.5405C434.95 59.9819 435.033 59.4847 435.198 59.0488C435.363 58.6087 435.587 58.2363 435.871 57.9316C436.154 57.627 436.476 57.3963 436.835 57.2397C437.195 57.0832 437.568 57.0049 437.953 57.0049C438.444 57.0049 438.867 57.0895 439.222 57.2588C439.582 57.4281 439.876 57.665 440.104 57.9697C440.333 58.2702 440.502 58.6257 440.612 59.0361C440.722 59.4424 440.777 59.8867 440.777 60.3691V60.896H435.648V59.9375H439.603V59.8486C439.586 59.5439 439.523 59.2477 439.413 58.96C439.307 58.6722 439.138 58.4352 438.905 58.249C438.672 58.0628 438.355 57.9697 437.953 57.9697C437.686 57.9697 437.441 58.0269 437.216 58.1411C436.992 58.2511 436.799 58.4162 436.639 58.6362C436.478 58.8563 436.353 59.125 436.264 59.4424C436.175 59.7598 436.131 60.1258 436.131 60.5405V60.8071C436.131 61.133 436.175 61.4398 436.264 61.7275C436.357 62.0111 436.491 62.2607 436.664 62.4766C436.842 62.6924 437.056 62.8617 437.305 62.9844C437.559 63.1071 437.847 63.1685 438.168 63.1685C438.583 63.1685 438.934 63.0838 439.222 62.9146C439.51 62.7453 439.762 62.5189 439.978 62.2354L440.688 62.8003C440.54 63.0246 440.352 63.2383 440.124 63.4414C439.895 63.6445 439.614 63.8096 439.279 63.9365C438.949 64.0635 438.558 64.127 438.105 64.127ZM448.122 63.1621C448.401 63.1621 448.659 63.105 448.896 62.9907C449.133 62.8765 449.328 62.7199 449.48 62.521C449.632 62.3179 449.719 62.0872 449.74 61.8291H450.857C450.836 62.2354 450.699 62.6141 450.445 62.9653C450.195 63.3123 449.867 63.5938 449.461 63.8096C449.055 64.0212 448.608 64.127 448.122 64.127C447.605 64.127 447.155 64.036 446.77 63.854C446.389 63.672 446.071 63.4224 445.817 63.105C445.568 62.7876 445.379 62.4237 445.252 62.0132C445.13 61.5985 445.068 61.1605 445.068 60.6992V60.4326C445.068 59.9714 445.13 59.5355 445.252 59.125C445.379 58.7103 445.568 58.3442 445.817 58.0269C446.071 57.7095 446.389 57.4598 446.77 57.2778C447.155 57.0959 447.605 57.0049 448.122 57.0049C448.659 57.0049 449.129 57.1149 449.531 57.335C449.933 57.5508 450.248 57.847 450.477 58.2236C450.709 58.596 450.836 59.0192 450.857 59.4932H449.74C449.719 59.2096 449.639 58.9536 449.499 58.7251C449.364 58.4966 449.177 58.3146 448.94 58.1792C448.708 58.0396 448.435 57.9697 448.122 57.9697C447.762 57.9697 447.459 58.0417 447.214 58.1855C446.973 58.3252 446.78 58.5156 446.636 58.7568C446.497 58.9938 446.395 59.2583 446.332 59.5503C446.272 59.8381 446.243 60.1322 446.243 60.4326V60.6992C446.243 60.9997 446.272 61.2959 446.332 61.5879C446.391 61.8799 446.49 62.1444 446.63 62.3813C446.774 62.6183 446.966 62.8088 447.208 62.9526C447.453 63.0923 447.758 63.1621 448.122 63.1621ZM451.867 60.6421V60.4961C451.867 60.001 451.939 59.5418 452.083 59.1187C452.226 58.6912 452.434 58.321 452.705 58.0078C452.975 57.6904 453.303 57.445 453.688 57.2715C454.074 57.0938 454.505 57.0049 454.983 57.0049C455.466 57.0049 455.9 57.0938 456.285 57.2715C456.674 57.445 457.004 57.6904 457.275 58.0078C457.55 58.321 457.759 58.6912 457.903 59.1187C458.047 59.5418 458.119 60.001 458.119 60.4961V60.6421C458.119 61.1372 458.047 61.5964 457.903 62.0195C457.759 62.4427 457.55 62.813 457.275 63.1304C457.004 63.4435 456.676 63.689 456.291 63.8667C455.91 64.0402 455.479 64.127 454.996 64.127C454.514 64.127 454.08 64.0402 453.695 63.8667C453.31 63.689 452.98 63.4435 452.705 63.1304C452.434 62.813 452.226 62.4427 452.083 62.0195C451.939 61.5964 451.867 61.1372 451.867 60.6421ZM453.041 60.4961V60.6421C453.041 60.9849 453.081 61.3086 453.162 61.6133C453.242 61.9137 453.363 62.1803 453.523 62.4131C453.688 62.6458 453.894 62.8299 454.139 62.9653C454.385 63.0965 454.67 63.1621 454.996 63.1621C455.318 63.1621 455.599 63.0965 455.84 62.9653C456.086 62.8299 456.289 62.6458 456.45 62.4131C456.611 62.1803 456.731 61.9137 456.812 61.6133C456.896 61.3086 456.938 60.9849 456.938 60.6421V60.4961C456.938 60.1576 456.896 59.8381 456.812 59.5376C456.731 59.2329 456.608 58.9642 456.443 58.7314C456.283 58.4945 456.079 58.3083 455.834 58.1729C455.593 58.0374 455.309 57.9697 454.983 57.9697C454.662 57.9697 454.378 58.0374 454.133 58.1729C453.892 58.3083 453.688 58.4945 453.523 58.7314C453.363 58.9642 453.242 59.2329 453.162 59.5376C453.081 59.8381 453.041 60.1576 453.041 60.4961ZM460.766 58.5981V64H459.592V57.1318H460.703L460.766 58.5981ZM460.487 60.3057L459.998 60.2866C460.002 59.8169 460.072 59.3831 460.208 58.9854C460.343 58.5833 460.533 58.2342 460.779 57.938C461.024 57.6418 461.316 57.4132 461.655 57.2524C461.998 57.0874 462.376 57.0049 462.791 57.0049C463.13 57.0049 463.434 57.0514 463.705 57.1445C463.976 57.2334 464.207 57.3773 464.397 57.5762C464.592 57.7751 464.74 58.0332 464.841 58.3506C464.943 58.6637 464.994 59.0467 464.994 59.4995V64H463.813V59.4868C463.813 59.1271 463.76 58.8394 463.654 58.6235C463.549 58.4035 463.394 58.2448 463.191 58.1475C462.988 58.0459 462.738 57.9951 462.442 57.9951C462.15 57.9951 461.883 58.0565 461.642 58.1792C461.405 58.3019 461.2 58.4712 461.026 58.687C460.857 58.9028 460.724 59.1504 460.626 59.4297C460.533 59.7048 460.487 59.9967 460.487 60.3057ZM469.653 57.1318V58.0332H465.939V57.1318H469.653ZM467.196 55.4624H468.371V62.2988C468.371 62.5316 468.407 62.7072 468.479 62.8257C468.55 62.9442 468.644 63.0225 468.758 63.0605C468.872 63.0986 468.995 63.1177 469.126 63.1177C469.223 63.1177 469.325 63.1092 469.431 63.0923C469.541 63.0711 469.623 63.0542 469.678 63.0415L469.685 64C469.591 64.0296 469.469 64.0571 469.316 64.0825C469.168 64.1121 468.988 64.127 468.777 64.127C468.489 64.127 468.225 64.0698 467.983 63.9556C467.742 63.8413 467.55 63.6509 467.406 63.3843C467.266 63.1134 467.196 62.7495 467.196 62.2925V55.4624ZM473.88 64.127C473.402 64.127 472.968 64.0465 472.579 63.8857C472.194 63.7207 471.862 63.4901 471.583 63.1938C471.307 62.8976 471.096 62.5464 470.948 62.1401C470.8 61.7339 470.726 61.2896 470.726 60.8071V60.5405C470.726 59.9819 470.808 59.4847 470.973 59.0488C471.138 58.6087 471.362 58.2363 471.646 57.9316C471.93 57.627 472.251 57.3963 472.611 57.2397C472.971 57.0832 473.343 57.0049 473.728 57.0049C474.219 57.0049 474.642 57.0895 474.998 57.2588C475.357 57.4281 475.651 57.665 475.88 57.9697C476.108 58.2702 476.278 58.6257 476.388 59.0361C476.498 59.4424 476.553 59.8867 476.553 60.3691V60.896H471.424V59.9375H475.378V59.8486C475.361 59.5439 475.298 59.2477 475.188 58.96C475.082 58.6722 474.913 58.4352 474.68 58.249C474.447 58.0628 474.13 57.9697 473.728 57.9697C473.461 57.9697 473.216 58.0269 472.992 58.1411C472.767 58.2511 472.575 58.4162 472.414 58.6362C472.253 58.8563 472.128 59.125 472.04 59.4424C471.951 59.7598 471.906 60.1258 471.906 60.5405V60.8071C471.906 61.133 471.951 61.4398 472.04 61.7275C472.133 62.0111 472.266 62.2607 472.439 62.4766C472.617 62.6924 472.831 62.8617 473.081 62.9844C473.334 63.1071 473.622 63.1685 473.944 63.1685C474.359 63.1685 474.71 63.0838 474.998 62.9146C475.285 62.7453 475.537 62.5189 475.753 62.2354L476.464 62.8003C476.316 63.0246 476.127 63.2383 475.899 63.4414C475.67 63.6445 475.389 63.8096 475.055 63.9365C474.725 64.0635 474.333 64.127 473.88 64.127ZM479.098 58.5981V64H477.924V57.1318H479.035L479.098 58.5981ZM478.819 60.3057L478.33 60.2866C478.334 59.8169 478.404 59.3831 478.54 58.9854C478.675 58.5833 478.865 58.2342 479.111 57.938C479.356 57.6418 479.648 57.4132 479.987 57.2524C480.33 57.0874 480.708 57.0049 481.123 57.0049C481.462 57.0049 481.766 57.0514 482.037 57.1445C482.308 57.2334 482.539 57.3773 482.729 57.5762C482.924 57.7751 483.072 58.0332 483.173 58.3506C483.275 58.6637 483.326 59.0467 483.326 59.4995V64H482.145V59.4868C482.145 59.1271 482.092 58.8394 481.986 58.6235C481.881 58.4035 481.726 58.2448 481.523 58.1475C481.32 58.0459 481.07 57.9951 480.774 57.9951C480.482 57.9951 480.215 58.0565 479.974 58.1792C479.737 58.3019 479.532 58.4712 479.358 58.687C479.189 58.9028 479.056 59.1504 478.958 59.4297C478.865 59.7048 478.819 59.9967 478.819 60.3057ZM487.985 57.1318V58.0332H484.271V57.1318H487.985ZM485.528 55.4624H486.703V62.2988C486.703 62.5316 486.739 62.7072 486.811 62.8257C486.882 62.9442 486.976 63.0225 487.09 63.0605C487.204 63.0986 487.327 63.1177 487.458 63.1177C487.555 63.1177 487.657 63.1092 487.763 63.0923C487.873 63.0711 487.955 63.0542 488.01 63.0415L488.017 64C487.924 64.0296 487.801 64.0571 487.648 64.0825C487.5 64.1121 487.32 64.127 487.109 64.127C486.821 64.127 486.557 64.0698 486.315 63.9556C486.074 63.8413 485.882 63.6509 485.738 63.3843C485.598 63.1134 485.528 62.7495 485.528 62.2925V55.4624ZM493.863 57.1318V64H492.682V57.1318H493.863ZM492.593 55.3101C492.593 55.1196 492.65 54.9588 492.765 54.8276C492.883 54.6965 493.057 54.6309 493.285 54.6309C493.509 54.6309 493.681 54.6965 493.799 54.8276C493.922 54.9588 493.983 55.1196 493.983 55.3101C493.983 55.492 493.922 55.6486 493.799 55.7798C493.681 55.9067 493.509 55.9702 493.285 55.9702C493.057 55.9702 492.883 55.9067 492.765 55.7798C492.65 55.6486 492.593 55.492 492.593 55.3101ZM499.747 62.1782C499.747 62.009 499.709 61.8524 499.633 61.7085C499.561 61.5604 499.411 61.4271 499.182 61.3086C498.958 61.1859 498.619 61.0801 498.167 60.9912C497.786 60.9108 497.441 60.8156 497.132 60.7056C496.827 60.5955 496.567 60.4622 496.351 60.3057C496.139 60.1491 495.977 59.965 495.862 59.7534C495.748 59.5418 495.691 59.2943 495.691 59.0107C495.691 58.7399 495.75 58.4839 495.869 58.2427C495.991 58.0015 496.163 57.7878 496.383 57.6016C496.607 57.4154 496.876 57.2694 497.189 57.1636C497.502 57.0578 497.851 57.0049 498.236 57.0049C498.786 57.0049 499.256 57.1022 499.646 57.2969C500.035 57.4915 500.333 57.7518 500.541 58.0776C500.748 58.3993 500.852 58.7568 500.852 59.1504H499.677C499.677 58.96 499.62 58.7759 499.506 58.5981C499.396 58.4162 499.233 58.266 499.017 58.1475C498.806 58.029 498.545 57.9697 498.236 57.9697C497.91 57.9697 497.646 58.0205 497.443 58.1221C497.244 58.2194 497.098 58.3442 497.005 58.4966C496.916 58.6489 496.872 58.8097 496.872 58.979C496.872 59.106 496.893 59.2202 496.935 59.3218C496.982 59.4191 497.062 59.5101 497.176 59.5947C497.291 59.6751 497.451 59.7513 497.659 59.8232C497.866 59.8952 498.131 59.9671 498.452 60.0391C499.015 60.166 499.478 60.3184 499.842 60.4961C500.206 60.6738 500.477 60.8918 500.655 61.1499C500.833 61.408 500.921 61.7212 500.921 62.0894C500.921 62.3898 500.858 62.6649 500.731 62.9146C500.608 63.1642 500.428 63.38 500.191 63.562C499.959 63.7397 499.679 63.8794 499.354 63.981C499.032 64.0783 498.67 64.127 498.268 64.127C497.663 64.127 497.151 64.019 496.732 63.8032C496.313 63.5874 495.996 63.3081 495.78 62.9653C495.564 62.6226 495.456 62.2607 495.456 61.8799H496.637C496.654 62.2015 496.747 62.4575 496.916 62.6479C497.085 62.8341 497.293 62.9674 497.538 63.0479C497.784 63.124 498.027 63.1621 498.268 63.1621C498.59 63.1621 498.858 63.1198 499.074 63.0352C499.294 62.9505 499.461 62.8341 499.576 62.686C499.69 62.5379 499.747 62.3687 499.747 62.1782ZM506.964 54.25V64H505.784V54.25H506.964ZM508.539 60.6421V60.4961C508.539 60.001 508.611 59.5418 508.754 59.1187C508.898 58.6912 509.106 58.321 509.376 58.0078C509.647 57.6904 509.975 57.445 510.36 57.2715C510.745 57.0938 511.177 57.0049 511.655 57.0049C512.138 57.0049 512.571 57.0938 512.957 57.2715C513.346 57.445 513.676 57.6904 513.947 58.0078C514.222 58.321 514.431 58.6912 514.575 59.1187C514.719 59.5418 514.791 60.001 514.791 60.4961V60.6421C514.791 61.1372 514.719 61.5964 514.575 62.0195C514.431 62.4427 514.222 62.813 513.947 63.1304C513.676 63.4435 513.348 63.689 512.963 63.8667C512.582 64.0402 512.15 64.127 511.668 64.127C511.186 64.127 510.752 64.0402 510.367 63.8667C509.982 63.689 509.652 63.4435 509.376 63.1304C509.106 62.813 508.898 62.4427 508.754 62.0195C508.611 61.5964 508.539 61.1372 508.539 60.6421ZM509.713 60.4961V60.6421C509.713 60.9849 509.753 61.3086 509.833 61.6133C509.914 61.9137 510.035 62.1803 510.195 62.4131C510.36 62.6458 510.566 62.8299 510.811 62.9653C511.056 63.0965 511.342 63.1621 511.668 63.1621C511.99 63.1621 512.271 63.0965 512.512 62.9653C512.758 62.8299 512.961 62.6458 513.122 62.4131C513.282 62.1803 513.403 61.9137 513.483 61.6133C513.568 61.3086 513.61 60.9849 513.61 60.6421V60.4961C513.61 60.1576 513.568 59.8381 513.483 59.5376C513.403 59.2329 513.28 58.9642 513.115 58.7314C512.954 58.4945 512.751 58.3083 512.506 58.1729C512.265 58.0374 511.981 57.9697 511.655 57.9697C511.334 57.9697 511.05 58.0374 510.805 58.1729C510.563 58.3083 510.36 58.4945 510.195 58.7314C510.035 58.9642 509.914 59.2329 509.833 59.5376C509.753 59.8381 509.713 60.1576 509.713 60.4961ZM517.438 58.5981V64H516.264V57.1318H517.375L517.438 58.5981ZM517.159 60.3057L516.67 60.2866C516.674 59.8169 516.744 59.3831 516.879 58.9854C517.015 58.5833 517.205 58.2342 517.451 57.938C517.696 57.6418 517.988 57.4132 518.327 57.2524C518.669 57.0874 519.048 57.0049 519.463 57.0049C519.801 57.0049 520.106 57.0514 520.377 57.1445C520.648 57.2334 520.878 57.3773 521.069 57.5762C521.264 57.7751 521.412 58.0332 521.513 58.3506C521.615 58.6637 521.666 59.0467 521.666 59.4995V64H520.485V59.4868C520.485 59.1271 520.432 58.8394 520.326 58.6235C520.22 58.4035 520.066 58.2448 519.863 58.1475C519.66 58.0459 519.41 57.9951 519.114 57.9951C518.822 57.9951 518.555 58.0565 518.314 58.1792C518.077 58.3019 517.872 58.4712 517.698 58.687C517.529 58.9028 517.396 59.1504 517.298 59.4297C517.205 59.7048 517.159 59.9967 517.159 60.3057ZM527.899 57.1318H528.965V63.854C528.965 64.4591 528.843 64.9754 528.597 65.4028C528.352 65.8302 528.009 66.154 527.569 66.374C527.133 66.5983 526.629 66.7104 526.058 66.7104C525.821 66.7104 525.542 66.6724 525.22 66.5962C524.903 66.5243 524.59 66.3994 524.281 66.2217C523.976 66.0482 523.72 65.8133 523.513 65.5171L524.128 64.8188C524.416 65.1659 524.717 65.4071 525.03 65.5425C525.347 65.6779 525.66 65.7456 525.969 65.7456C526.342 65.7456 526.663 65.6758 526.934 65.5361C527.205 65.3965 527.414 65.1891 527.562 64.9141C527.715 64.6432 527.791 64.3089 527.791 63.9111V58.6426L527.899 57.1318ZM523.17 60.6421V60.5088C523.17 59.984 523.231 59.508 523.354 59.0806C523.481 58.6489 523.661 58.2786 523.894 57.9697C524.131 57.6608 524.416 57.4238 524.75 57.2588C525.085 57.0895 525.461 57.0049 525.88 57.0049C526.312 57.0049 526.689 57.0811 527.01 57.2334C527.336 57.3815 527.611 57.5994 527.835 57.8872C528.064 58.1707 528.244 58.5135 528.375 58.9155C528.506 59.3175 528.597 59.7725 528.648 60.2803V60.8643C528.601 61.3678 528.51 61.8206 528.375 62.2227C528.244 62.6247 528.064 62.9674 527.835 63.251C527.611 63.5345 527.336 63.7524 527.01 63.9048C526.684 64.0529 526.304 64.127 525.868 64.127C525.457 64.127 525.085 64.0402 524.75 63.8667C524.42 63.6932 524.137 63.4499 523.9 63.1367C523.663 62.8236 523.481 62.4554 523.354 62.0322C523.231 61.6048 523.17 61.1414 523.17 60.6421ZM524.344 60.5088V60.6421C524.344 60.9849 524.378 61.3065 524.446 61.6069C524.518 61.9074 524.626 62.1719 524.77 62.4004C524.918 62.6289 525.106 62.8088 525.334 62.9399C525.563 63.0669 525.836 63.1304 526.153 63.1304C526.543 63.1304 526.864 63.0479 527.118 62.8828C527.372 62.7178 527.573 62.4998 527.721 62.229C527.874 61.9582 527.992 61.6641 528.077 61.3467V59.8169C528.03 59.5841 527.958 59.3599 527.861 59.144C527.768 58.924 527.645 58.7293 527.493 58.5601C527.345 58.3866 527.16 58.249 526.94 58.1475C526.72 58.0459 526.462 57.9951 526.166 57.9951C525.844 57.9951 525.567 58.0628 525.334 58.1982C525.106 58.3294 524.918 58.5114 524.77 58.7441C524.626 58.9727 524.518 59.2393 524.446 59.5439C524.378 59.8444 524.344 60.166 524.344 60.5088ZM531.815 62.6035V63.5493C531.815 63.9344 531.718 64.3407 531.523 64.7681C531.329 65.1997 531.056 65.5594 530.705 65.8472L530.038 65.3838C530.174 65.1976 530.288 65.0072 530.381 64.8125C530.474 64.6221 530.544 64.4232 530.59 64.2158C530.641 64.0127 530.667 63.7969 530.667 63.5684V62.6035H531.815ZM537.814 57.1318V64H536.633V57.1318H537.814ZM536.544 55.3101C536.544 55.1196 536.602 54.9588 536.716 54.8276C536.834 54.6965 537.008 54.6309 537.236 54.6309C537.461 54.6309 537.632 54.6965 537.75 54.8276C537.873 54.9588 537.935 55.1196 537.935 55.3101C537.935 55.492 537.873 55.6486 537.75 55.7798C537.632 55.9067 537.461 55.9702 537.236 55.9702C537.008 55.9702 536.834 55.9067 536.716 55.7798C536.602 55.6486 536.544 55.492 536.544 55.3101ZM542.575 57.1318V58.0332H538.861V57.1318H542.575ZM540.118 55.4624H541.292V62.2988C541.292 62.5316 541.328 62.7072 541.4 62.8257C541.472 62.9442 541.565 63.0225 541.68 63.0605C541.794 63.0986 541.917 63.1177 542.048 63.1177C542.145 63.1177 542.247 63.1092 542.353 63.0923C542.463 63.0711 542.545 63.0542 542.6 63.0415L542.606 64C542.513 64.0296 542.391 64.0571 542.238 64.0825C542.09 64.1121 541.91 64.127 541.699 64.127C541.411 64.127 541.146 64.0698 540.905 63.9556C540.664 63.8413 540.472 63.6509 540.328 63.3843C540.188 63.1134 540.118 62.7495 540.118 62.2925V55.4624ZM421.055 86.7812L422.82 81.1318H423.594L423.442 82.2554L421.646 88H420.89L421.055 86.7812ZM419.868 81.1318L421.373 86.8447L421.48 88H420.687L418.694 81.1318H419.868ZM425.283 86.8003L426.717 81.1318H427.885L425.892 88H425.105L425.283 86.8003ZM423.766 81.1318L425.492 86.686L425.689 88H424.94L423.093 82.2427L422.94 81.1318H423.766ZM430.367 81.1318V88H429.187V81.1318H430.367ZM429.098 79.3101C429.098 79.1196 429.155 78.9588 429.269 78.8276C429.388 78.6965 429.561 78.6309 429.79 78.6309C430.014 78.6309 430.185 78.6965 430.304 78.8276C430.426 78.9588 430.488 79.1196 430.488 79.3101C430.488 79.492 430.426 79.6486 430.304 79.7798C430.185 79.9067 430.014 79.9702 429.79 79.9702C429.561 79.9702 429.388 79.9067 429.269 79.7798C429.155 79.6486 429.098 79.492 429.098 79.3101ZM433.528 78.25V88H432.348V78.25H433.528ZM436.689 78.25V88H435.509V78.25H436.689ZM441.793 78.25H442.974V86.667L442.872 88H441.793V78.25ZM447.614 84.5088V84.6421C447.614 85.1414 447.555 85.6048 447.436 86.0322C447.318 86.4554 447.144 86.8236 446.916 87.1367C446.687 87.4499 446.408 87.6932 446.078 87.8667C445.748 88.0402 445.369 88.127 444.941 88.127C444.506 88.127 444.123 88.0529 443.792 87.9048C443.467 87.7524 443.192 87.5345 442.967 87.251C442.743 86.9674 442.563 86.6247 442.428 86.2227C442.297 85.8206 442.206 85.3678 442.155 84.8643V84.2803C442.206 83.7725 442.297 83.3175 442.428 82.9155C442.563 82.5135 442.743 82.1707 442.967 81.8872C443.192 81.5994 443.467 81.3815 443.792 81.2334C444.118 81.0811 444.497 81.0049 444.929 81.0049C445.36 81.0049 445.743 81.0895 446.078 81.2588C446.412 81.4238 446.691 81.6608 446.916 81.9697C447.144 82.2786 447.318 82.6489 447.436 83.0806C447.555 83.508 447.614 83.984 447.614 84.5088ZM446.433 84.6421V84.5088C446.433 84.166 446.401 83.8444 446.338 83.5439C446.274 83.2393 446.173 82.9727 446.033 82.7441C445.894 82.5114 445.709 82.3294 445.481 82.1982C445.252 82.0628 444.971 81.9951 444.637 81.9951C444.34 81.9951 444.082 82.0459 443.862 82.1475C443.646 82.249 443.462 82.3866 443.31 82.5601C443.158 82.7293 443.033 82.924 442.936 83.144C442.842 83.3599 442.773 83.5841 442.726 83.8169V85.3467C442.794 85.6429 442.904 85.9285 443.056 86.2036C443.213 86.4744 443.42 86.6966 443.678 86.8701C443.941 87.0436 444.264 87.1304 444.649 87.1304C444.967 87.1304 445.238 87.0669 445.462 86.9399C445.69 86.8088 445.875 86.6289 446.014 86.4004C446.158 86.1719 446.264 85.9074 446.332 85.6069C446.399 85.3065 446.433 84.9849 446.433 84.6421ZM451.949 88.127C451.471 88.127 451.037 88.0465 450.648 87.8857C450.263 87.7207 449.931 87.4901 449.651 87.1938C449.376 86.8976 449.165 86.5464 449.017 86.1401C448.868 85.7339 448.794 85.2896 448.794 84.8071V84.5405C448.794 83.9819 448.877 83.4847 449.042 83.0488C449.207 82.6087 449.431 82.2363 449.715 81.9316C449.998 81.627 450.32 81.3963 450.68 81.2397C451.039 81.0832 451.412 81.0049 451.797 81.0049C452.288 81.0049 452.711 81.0895 453.066 81.2588C453.426 81.4281 453.72 81.665 453.949 81.9697C454.177 82.2702 454.347 82.6257 454.457 83.0361C454.567 83.4424 454.622 83.8867 454.622 84.3691V84.896H449.493V83.9375H453.447V83.8486C453.43 83.5439 453.367 83.2477 453.257 82.96C453.151 82.6722 452.982 82.4352 452.749 82.249C452.516 82.0628 452.199 81.9697 451.797 81.9697C451.53 81.9697 451.285 82.0269 451.061 82.1411C450.836 82.2511 450.644 82.4162 450.483 82.6362C450.322 82.8563 450.197 83.125 450.108 83.4424C450.02 83.7598 449.975 84.1258 449.975 84.5405V84.8071C449.975 85.133 450.02 85.4398 450.108 85.7275C450.201 86.0111 450.335 86.2607 450.508 86.4766C450.686 86.6924 450.9 86.8617 451.149 86.9844C451.403 87.1071 451.691 87.1685 452.013 87.1685C452.427 87.1685 452.779 87.0838 453.066 86.9146C453.354 86.7453 453.606 86.5189 453.822 86.2354L454.533 86.8003C454.385 87.0246 454.196 87.2383 453.968 87.4414C453.739 87.6445 453.458 87.8096 453.124 87.9365C452.793 88.0635 452.402 88.127 451.949 88.127ZM460.957 86.7812L462.721 81.1318H463.496L463.343 82.2554L461.547 88H460.792L460.957 86.7812ZM459.77 81.1318L461.274 86.8447L461.382 88H460.588L458.595 81.1318H459.77ZM465.184 86.8003L466.619 81.1318H467.787L465.793 88H465.006L465.184 86.8003ZM463.667 81.1318L465.394 86.686L465.59 88H464.841L462.994 82.2427L462.842 81.1318H463.667ZM470.167 82.2109V88H468.993V81.1318H470.135L470.167 82.2109ZM472.312 81.0938L472.306 82.1855C472.209 82.1644 472.116 82.1517 472.027 82.1475C471.942 82.139 471.845 82.1348 471.735 82.1348C471.464 82.1348 471.225 82.1771 471.018 82.2617C470.81 82.3464 470.635 82.4648 470.491 82.6172C470.347 82.7695 470.233 82.9515 470.148 83.1631C470.068 83.3704 470.015 83.599 469.989 83.8486L469.659 84.0391C469.659 83.6243 469.699 83.235 469.78 82.8711C469.864 82.5072 469.993 82.1855 470.167 81.9062C470.34 81.6227 470.561 81.4027 470.827 81.2461C471.098 81.0853 471.42 81.0049 471.792 81.0049C471.877 81.0049 471.974 81.0155 472.084 81.0366C472.194 81.0535 472.27 81.0726 472.312 81.0938ZM477.194 86.8257V83.29C477.194 83.0192 477.139 82.7843 477.029 82.5854C476.923 82.3823 476.762 82.2257 476.546 82.1157C476.331 82.0057 476.064 81.9507 475.747 81.9507C475.45 81.9507 475.19 82.0015 474.966 82.103C474.746 82.2046 474.572 82.3379 474.445 82.5029C474.323 82.668 474.261 82.8457 474.261 83.0361H473.087C473.087 82.7907 473.15 82.5474 473.277 82.3062C473.404 82.0649 473.586 81.847 473.823 81.6523C474.064 81.4535 474.352 81.2969 474.687 81.1826C475.025 81.0641 475.402 81.0049 475.816 81.0049C476.316 81.0049 476.756 81.0895 477.137 81.2588C477.522 81.4281 477.822 81.6841 478.038 82.0269C478.258 82.3654 478.368 82.7907 478.368 83.3027V86.502C478.368 86.7305 478.387 86.9738 478.425 87.2319C478.468 87.4901 478.529 87.7122 478.609 87.8984V88H477.384C477.325 87.8646 477.278 87.6847 477.245 87.4604C477.211 87.2319 477.194 87.0203 477.194 86.8257ZM477.397 83.8359L477.41 84.6611H476.223C475.888 84.6611 475.59 84.6886 475.328 84.7437C475.065 84.7944 474.845 84.8727 474.667 84.9785C474.49 85.0843 474.354 85.2176 474.261 85.3784C474.168 85.535 474.122 85.7191 474.122 85.9307C474.122 86.1465 474.17 86.3433 474.268 86.521C474.365 86.6987 474.511 86.8405 474.706 86.9463C474.904 87.0479 475.148 87.0986 475.436 87.0986C475.795 87.0986 476.113 87.0225 476.388 86.8701C476.663 86.7178 476.881 86.5316 477.042 86.3115C477.207 86.0915 477.295 85.8778 477.308 85.6704L477.81 86.2354C477.78 86.4131 477.7 86.6099 477.568 86.8257C477.437 87.0415 477.262 87.2489 477.042 87.4478C476.826 87.6424 476.568 87.8053 476.267 87.9365C475.971 88.0635 475.637 88.127 475.264 88.127C474.799 88.127 474.39 88.036 474.039 87.854C473.692 87.672 473.421 87.4287 473.227 87.124C473.036 86.8151 472.941 86.4702 472.941 86.0894C472.941 85.7212 473.013 85.3975 473.157 85.1182C473.301 84.8346 473.508 84.5998 473.779 84.4136C474.05 84.2231 474.375 84.0793 474.756 83.9819C475.137 83.8846 475.562 83.8359 476.032 83.8359H477.397ZM481.39 82.4521V90.6406H480.209V81.1318H481.288L481.39 82.4521ZM486.017 84.5088V84.6421C486.017 85.1414 485.958 85.6048 485.839 86.0322C485.721 86.4554 485.547 86.8236 485.319 87.1367C485.095 87.4499 484.817 87.6932 484.487 87.8667C484.157 88.0402 483.778 88.127 483.351 88.127C482.915 88.127 482.53 88.055 482.196 87.9111C481.861 87.7673 481.578 87.5578 481.345 87.2827C481.112 87.0076 480.926 86.6776 480.787 86.2925C480.651 85.9074 480.558 85.4736 480.507 84.9912V84.2803C480.558 83.7725 480.653 83.3175 480.793 82.9155C480.933 82.5135 481.117 82.1707 481.345 81.8872C481.578 81.5994 481.859 81.3815 482.189 81.2334C482.52 81.0811 482.9 81.0049 483.332 81.0049C483.764 81.0049 484.147 81.0895 484.481 81.2588C484.815 81.4238 485.097 81.6608 485.325 81.9697C485.554 82.2786 485.725 82.6489 485.839 83.0806C485.958 83.508 486.017 83.984 486.017 84.5088ZM484.836 84.6421V84.5088C484.836 84.166 484.8 83.8444 484.729 83.5439C484.657 83.2393 484.544 82.9727 484.392 82.7441C484.244 82.5114 484.054 82.3294 483.821 82.1982C483.588 82.0628 483.311 81.9951 482.989 81.9951C482.693 81.9951 482.435 82.0459 482.215 82.1475C481.999 82.249 481.815 82.3866 481.663 82.5601C481.51 82.7293 481.385 82.924 481.288 83.144C481.195 83.3599 481.125 83.5841 481.079 83.8169V85.4609C481.163 85.7572 481.282 86.0365 481.434 86.2988C481.586 86.557 481.79 86.7664 482.043 86.9272C482.297 87.0838 482.617 87.1621 483.002 87.1621C483.319 87.1621 483.592 87.0965 483.821 86.9653C484.054 86.8299 484.244 86.6458 484.392 86.4131C484.544 86.1803 484.657 85.9137 484.729 85.6133C484.8 85.3086 484.836 84.9849 484.836 84.6421ZM488.689 82.4521V90.6406H487.509V81.1318H488.588L488.689 82.4521ZM493.317 84.5088V84.6421C493.317 85.1414 493.258 85.6048 493.139 86.0322C493.021 86.4554 492.847 86.8236 492.619 87.1367C492.394 87.4499 492.117 87.6932 491.787 87.8667C491.457 88.0402 491.078 88.127 490.651 88.127C490.215 88.127 489.83 88.055 489.496 87.9111C489.161 87.7673 488.878 87.5578 488.645 87.2827C488.412 87.0076 488.226 86.6776 488.086 86.2925C487.951 85.9074 487.858 85.4736 487.807 84.9912V84.2803C487.858 83.7725 487.953 83.3175 488.093 82.9155C488.232 82.5135 488.417 82.1707 488.645 81.8872C488.878 81.5994 489.159 81.3815 489.489 81.2334C489.819 81.0811 490.2 81.0049 490.632 81.0049C491.063 81.0049 491.446 81.0895 491.781 81.2588C492.115 81.4238 492.396 81.6608 492.625 81.9697C492.854 82.2786 493.025 82.6489 493.139 83.0806C493.258 83.508 493.317 83.984 493.317 84.5088ZM492.136 84.6421V84.5088C492.136 84.166 492.1 83.8444 492.028 83.5439C491.956 83.2393 491.844 82.9727 491.692 82.7441C491.544 82.5114 491.353 82.3294 491.121 82.1982C490.888 82.0628 490.611 81.9951 490.289 81.9951C489.993 81.9951 489.735 82.0459 489.515 82.1475C489.299 82.249 489.115 82.3866 488.962 82.5601C488.81 82.7293 488.685 82.924 488.588 83.144C488.495 83.3599 488.425 83.5841 488.378 83.8169V85.4609C488.463 85.7572 488.582 86.0365 488.734 86.2988C488.886 86.557 489.089 86.7664 489.343 86.9272C489.597 87.0838 489.917 87.1621 490.302 87.1621C490.619 87.1621 490.892 87.0965 491.121 86.9653C491.353 86.8299 491.544 86.6458 491.692 86.4131C491.844 86.1803 491.956 85.9137 492.028 85.6133C492.1 85.3086 492.136 84.9849 492.136 84.6421ZM497.665 88.127C497.187 88.127 496.753 88.0465 496.364 87.8857C495.979 87.7207 495.646 87.4901 495.367 87.1938C495.092 86.8976 494.881 86.5464 494.732 86.1401C494.584 85.7339 494.51 85.2896 494.51 84.8071V84.5405C494.51 83.9819 494.593 83.4847 494.758 83.0488C494.923 82.6087 495.147 82.2363 495.431 81.9316C495.714 81.627 496.036 81.3963 496.396 81.2397C496.755 81.0832 497.128 81.0049 497.513 81.0049C498.004 81.0049 498.427 81.0895 498.782 81.2588C499.142 81.4281 499.436 81.665 499.665 81.9697C499.893 82.2702 500.062 82.6257 500.172 83.0361C500.282 83.4424 500.337 83.8867 500.337 84.3691V84.896H495.208V83.9375H499.163V83.8486C499.146 83.5439 499.083 83.2477 498.973 82.96C498.867 82.6722 498.698 82.4352 498.465 82.249C498.232 82.0628 497.915 81.9697 497.513 81.9697C497.246 81.9697 497.001 82.0269 496.776 82.1411C496.552 82.2511 496.36 82.4162 496.199 82.6362C496.038 82.8563 495.913 83.125 495.824 83.4424C495.735 83.7598 495.691 84.1258 495.691 84.5405V84.8071C495.691 85.133 495.735 85.4398 495.824 85.7275C495.917 86.0111 496.051 86.2607 496.224 86.4766C496.402 86.6924 496.616 86.8617 496.865 86.9844C497.119 87.1071 497.407 87.1685 497.729 87.1685C498.143 87.1685 498.494 87.0838 498.782 86.9146C499.07 86.7453 499.322 86.5189 499.538 86.2354L500.249 86.8003C500.1 87.0246 499.912 87.2383 499.684 87.4414C499.455 87.6445 499.174 87.8096 498.839 87.9365C498.509 88.0635 498.118 88.127 497.665 88.127ZM506.038 86.667V78.25H507.218V88H506.139L506.038 86.667ZM501.417 84.6421V84.5088C501.417 83.984 501.48 83.508 501.607 83.0806C501.738 82.6489 501.922 82.2786 502.159 81.9697C502.4 81.6608 502.686 81.4238 503.016 81.2588C503.35 81.0895 503.723 81.0049 504.133 81.0049C504.565 81.0049 504.942 81.0811 505.263 81.2334C505.589 81.3815 505.864 81.5994 506.088 81.8872C506.317 82.1707 506.497 82.5135 506.628 82.9155C506.759 83.3175 506.85 83.7725 506.901 84.2803V84.8643C506.854 85.3678 506.763 85.8206 506.628 86.2227C506.497 86.6247 506.317 86.9674 506.088 87.251C505.864 87.5345 505.589 87.7524 505.263 87.9048C504.937 88.0529 504.556 88.127 504.121 88.127C503.719 88.127 503.35 88.0402 503.016 87.8667C502.686 87.6932 502.4 87.4499 502.159 87.1367C501.922 86.8236 501.738 86.4554 501.607 86.0322C501.48 85.6048 501.417 85.1414 501.417 84.6421ZM502.597 84.5088V84.6421C502.597 84.9849 502.631 85.3065 502.699 85.6069C502.771 85.9074 502.881 86.1719 503.029 86.4004C503.177 86.6289 503.365 86.8088 503.594 86.9399C503.822 87.0669 504.095 87.1304 504.413 87.1304C504.802 87.1304 505.121 87.0479 505.371 86.8828C505.625 86.7178 505.828 86.4998 505.98 86.229C506.133 85.9582 506.251 85.6641 506.336 85.3467V83.8169C506.285 83.5841 506.211 83.3599 506.114 83.144C506.021 82.924 505.898 82.7293 505.746 82.5601C505.597 82.3866 505.413 82.249 505.193 82.1475C504.978 82.0459 504.722 81.9951 504.425 81.9951C504.104 81.9951 503.826 82.0628 503.594 82.1982C503.365 82.3294 503.177 82.5114 503.029 82.7441C502.881 82.9727 502.771 83.2393 502.699 83.5439C502.631 83.8444 502.597 84.166 502.597 84.5088ZM509.065 87.3779C509.065 87.179 509.127 87.0119 509.25 86.8765C509.376 86.7368 509.558 86.667 509.795 86.667C510.032 86.667 510.212 86.7368 510.335 86.8765C510.462 87.0119 510.525 87.179 510.525 87.3779C510.525 87.5726 510.462 87.7376 510.335 87.873C510.212 88.0085 510.032 88.0762 509.795 88.0762C509.558 88.0762 509.376 88.0085 509.25 87.873C509.127 87.7376 509.065 87.5726 509.065 87.3779Z" fill="white"/>
<path d="M459 104H471L465 110L459 104Z" fill="#1A1A1A"/>
</svg>
