<svg width="640" height="640" viewBox="0 0 640 640" fill="none" xmlns="http://www.w3.org/2000/svg">
<rect width="640" height="640" rx="16" fill="#F7F7F7"/>
<rect x="148.5" y="100.5" width="343" height="439" rx="15.5" fill="white"/>
<rect x="172.5" y="124.5" width="295" height="39" rx="7.5" fill="white"/>
<path d="M189.75 149C189.547 149 189.367 148.933 189.211 148.799C189.07 148.65 189 148.479 189 148.286C189 148.092 189.07 147.921 189.211 147.772L193.195 144L189.211 140.228C189.07 140.079 189 139.908 189 139.714C189 139.521 189.07 139.35 189.211 139.201C189.367 139.067 189.547 139 189.75 139C189.953 139 190.133 139.067 190.289 139.201L194.789 143.487C194.93 143.635 195 143.807 195 144C195 144.193 194.93 144.365 194.789 144.513L190.289 148.799C190.133 148.933 189.953 149 189.75 149Z" fill="#737373"/>
<path d="M217.178 138.336V149H215.787V138.336H217.178ZM220.606 138.336V139.493H212.366V138.336H220.606ZM222.781 142.32V149H221.426V141.075H222.745L222.781 142.32ZM225.257 141.031L225.25 142.291C225.137 142.267 225.03 142.252 224.927 142.247C224.83 142.237 224.717 142.232 224.59 142.232C224.278 142.232 224.002 142.281 223.763 142.379C223.523 142.477 223.321 142.613 223.155 142.789C222.989 142.965 222.857 143.175 222.759 143.419C222.667 143.658 222.605 143.922 222.576 144.21L222.195 144.43C222.195 143.951 222.242 143.502 222.334 143.082C222.432 142.662 222.581 142.291 222.781 141.969C222.981 141.642 223.235 141.388 223.543 141.207C223.855 141.021 224.227 140.929 224.656 140.929C224.754 140.929 224.866 140.941 224.993 140.965C225.12 140.985 225.208 141.007 225.257 141.031ZM229.651 149.146C229.1 149.146 228.599 149.054 228.15 148.868C227.706 148.678 227.322 148.412 227 148.07C226.683 147.728 226.438 147.323 226.268 146.854C226.097 146.385 226.011 145.873 226.011 145.316V145.008C226.011 144.364 226.106 143.79 226.297 143.287C226.487 142.779 226.746 142.35 227.073 141.998C227.4 141.646 227.771 141.38 228.187 141.2C228.602 141.019 229.031 140.929 229.476 140.929C230.042 140.929 230.53 141.026 230.94 141.222C231.355 141.417 231.695 141.69 231.958 142.042C232.222 142.389 232.417 142.799 232.544 143.272C232.671 143.741 232.735 144.254 232.735 144.811V145.418H226.817V144.312H231.38V144.21C231.36 143.858 231.287 143.517 231.16 143.185C231.038 142.853 230.843 142.579 230.574 142.364C230.306 142.149 229.939 142.042 229.476 142.042C229.168 142.042 228.885 142.108 228.626 142.24C228.367 142.367 228.145 142.557 227.959 142.811C227.774 143.065 227.63 143.375 227.527 143.741C227.425 144.107 227.374 144.53 227.374 145.008V145.316C227.374 145.692 227.425 146.046 227.527 146.378C227.635 146.705 227.789 146.993 227.989 147.242C228.194 147.491 228.44 147.687 228.729 147.828C229.021 147.97 229.354 148.041 229.725 148.041C230.203 148.041 230.608 147.943 230.94 147.748C231.272 147.552 231.563 147.291 231.812 146.964L232.632 147.616C232.461 147.875 232.244 148.121 231.98 148.355C231.717 148.59 231.392 148.78 231.006 148.927C230.625 149.073 230.174 149.146 229.651 149.146ZM237.605 149.146C237.054 149.146 236.553 149.054 236.104 148.868C235.66 148.678 235.276 148.412 234.954 148.07C234.637 147.728 234.393 147.323 234.222 146.854C234.051 146.385 233.965 145.873 233.965 145.316V145.008C233.965 144.364 234.061 143.79 234.251 143.287C234.441 142.779 234.7 142.35 235.027 141.998C235.354 141.646 235.726 141.38 236.141 141.2C236.556 141.019 236.985 140.929 237.43 140.929C237.996 140.929 238.484 141.026 238.895 141.222C239.31 141.417 239.649 141.69 239.913 142.042C240.176 142.389 240.372 142.799 240.499 143.272C240.625 143.741 240.689 144.254 240.689 144.811V145.418H234.771V144.312H239.334V144.21C239.314 143.858 239.241 143.517 239.114 143.185C238.992 142.853 238.797 142.579 238.528 142.364C238.26 142.149 237.894 142.042 237.43 142.042C237.122 142.042 236.839 142.108 236.58 142.24C236.321 142.367 236.099 142.557 235.914 142.811C235.728 143.065 235.584 143.375 235.481 143.741C235.379 144.107 235.328 144.53 235.328 145.008V145.316C235.328 145.692 235.379 146.046 235.481 146.378C235.589 146.705 235.743 146.993 235.943 147.242C236.148 147.491 236.395 147.687 236.683 147.828C236.976 147.97 237.308 148.041 237.679 148.041C238.157 148.041 238.562 147.943 238.895 147.748C239.227 147.552 239.517 147.291 239.766 146.964L240.586 147.616C240.416 147.875 240.198 148.121 239.935 148.355C239.671 148.59 239.346 148.78 238.96 148.927C238.58 149.073 238.128 149.146 237.605 149.146ZM247.464 141.075V149H246.102V141.075H247.464ZM245.999 138.973C245.999 138.753 246.065 138.568 246.197 138.417C246.333 138.265 246.534 138.189 246.797 138.189C247.056 138.189 247.254 138.265 247.391 138.417C247.532 138.568 247.603 138.753 247.603 138.973C247.603 139.183 247.532 139.364 247.391 139.515C247.254 139.662 247.056 139.735 246.797 139.735C246.534 139.735 246.333 139.662 246.197 139.515C246.065 139.364 245.999 139.183 245.999 138.973ZM252.957 141.075V142.115H248.672V141.075H252.957ZM250.123 139.149H251.478V147.037C251.478 147.306 251.519 147.508 251.602 147.645C251.685 147.782 251.792 147.872 251.924 147.916C252.056 147.96 252.198 147.982 252.349 147.982C252.461 147.982 252.579 147.972 252.701 147.953C252.828 147.928 252.923 147.909 252.986 147.894L252.994 149C252.886 149.034 252.745 149.066 252.569 149.095C252.398 149.129 252.19 149.146 251.946 149.146C251.614 149.146 251.309 149.081 251.031 148.949C250.752 148.817 250.53 148.597 250.364 148.29C250.203 147.977 250.123 147.557 250.123 147.03V139.149ZM257.835 149.146C257.283 149.146 256.783 149.054 256.333 148.868C255.889 148.678 255.506 148.412 255.184 148.07C254.866 147.728 254.622 147.323 254.451 146.854C254.28 146.385 254.195 145.873 254.195 145.316V145.008C254.195 144.364 254.29 143.79 254.48 143.287C254.671 142.779 254.93 142.35 255.257 141.998C255.584 141.646 255.955 141.38 256.37 141.2C256.785 141.019 257.215 140.929 257.659 140.929C258.226 140.929 258.714 141.026 259.124 141.222C259.539 141.417 259.878 141.69 260.142 142.042C260.406 142.389 260.601 142.799 260.728 143.272C260.855 143.741 260.918 144.254 260.918 144.811V145.418H255V144.312H259.563V144.21C259.544 143.858 259.471 143.517 259.344 143.185C259.222 142.853 259.026 142.579 258.758 142.364C258.489 142.149 258.123 142.042 257.659 142.042C257.352 142.042 257.068 142.108 256.81 142.24C256.551 142.367 256.329 142.557 256.143 142.811C255.958 143.065 255.813 143.375 255.711 143.741C255.608 144.107 255.557 144.53 255.557 145.008V145.316C255.557 145.692 255.608 146.046 255.711 146.378C255.818 146.705 255.972 146.993 256.172 147.242C256.377 147.491 256.624 147.687 256.912 147.828C257.205 147.97 257.537 148.041 257.908 148.041C258.387 148.041 258.792 147.943 259.124 147.748C259.456 147.552 259.747 147.291 259.996 146.964L260.816 147.616C260.645 147.875 260.428 148.121 260.164 148.355C259.9 148.59 259.576 148.78 259.19 148.927C258.809 149.073 258.357 149.146 257.835 149.146ZM263.848 142.65V149H262.486V141.075H263.775L263.848 142.65ZM263.57 144.737L262.94 144.715C262.945 144.173 263.016 143.673 263.152 143.214C263.289 142.75 263.492 142.347 263.76 142.005C264.029 141.664 264.363 141.4 264.764 141.214C265.164 141.024 265.628 140.929 266.155 140.929C266.526 140.929 266.868 140.982 267.181 141.09C267.493 141.192 267.764 141.356 267.994 141.581C268.223 141.805 268.401 142.093 268.528 142.445C268.655 142.796 268.719 143.221 268.719 143.719V149H267.364V143.785C267.364 143.37 267.293 143.038 267.151 142.789C267.015 142.54 266.819 142.359 266.565 142.247C266.312 142.13 266.014 142.071 265.672 142.071C265.271 142.071 264.937 142.142 264.668 142.284C264.4 142.425 264.185 142.621 264.024 142.87C263.863 143.119 263.746 143.404 263.672 143.727C263.604 144.044 263.57 144.381 263.57 144.737ZM268.704 143.99L267.796 144.269C267.801 143.834 267.872 143.417 268.008 143.016C268.15 142.616 268.353 142.259 268.616 141.947C268.885 141.634 269.214 141.388 269.605 141.207C269.996 141.021 270.442 140.929 270.945 140.929C271.37 140.929 271.746 140.985 272.073 141.097C272.405 141.209 272.684 141.383 272.908 141.617C273.138 141.847 273.311 142.142 273.428 142.503C273.545 142.865 273.604 143.294 273.604 143.792V149H272.242V143.778C272.242 143.333 272.171 142.989 272.029 142.745C271.893 142.496 271.697 142.323 271.443 142.225C271.194 142.123 270.896 142.071 270.55 142.071C270.252 142.071 269.988 142.123 269.759 142.225C269.529 142.328 269.336 142.469 269.18 142.65C269.024 142.826 268.904 143.028 268.821 143.258C268.743 143.487 268.704 143.731 268.704 143.99Z" fill="#505050"/>
<rect x="172.5" y="124.5" width="295" height="39" rx="7.5" stroke="#0059FF" stroke-dasharray="2 2"/>
<rect x="172" y="168" width="296" height="40" rx="8" fill="#F2F2F2"/>
<path d="M192 191C191.817 191 191.634 190.927 191.495 190.78L187.209 186.28C186.93 185.987 186.93 185.513 187.209 185.22C187.488 184.927 187.94 184.927 188.219 185.22L192 189.191L195.781 185.22C196.06 184.927 196.512 184.927 196.791 185.22C197.07 185.513 197.07 185.988 196.791 186.281L192.505 190.781C192.366 190.927 192.183 191 192 191Z" fill="#737373"/>
<path d="M217.178 182.336V193H215.787V182.336H217.178ZM220.606 182.336V183.493H212.366V182.336H220.606ZM222.781 186.32V193H221.426V185.075H222.745L222.781 186.32ZM225.257 185.031L225.25 186.291C225.137 186.267 225.03 186.252 224.927 186.247C224.83 186.237 224.717 186.232 224.59 186.232C224.278 186.232 224.002 186.281 223.763 186.379C223.523 186.477 223.321 186.613 223.155 186.789C222.989 186.965 222.857 187.175 222.759 187.419C222.667 187.658 222.605 187.922 222.576 188.21L222.195 188.43C222.195 187.951 222.242 187.502 222.334 187.082C222.432 186.662 222.581 186.291 222.781 185.969C222.981 185.642 223.235 185.388 223.543 185.207C223.855 185.021 224.227 184.929 224.656 184.929C224.754 184.929 224.866 184.941 224.993 184.965C225.12 184.985 225.208 185.007 225.257 185.031ZM229.651 193.146C229.1 193.146 228.599 193.054 228.15 192.868C227.706 192.678 227.322 192.412 227 192.07C226.683 191.728 226.438 191.323 226.268 190.854C226.097 190.385 226.011 189.873 226.011 189.316V189.008C226.011 188.364 226.106 187.79 226.297 187.287C226.487 186.779 226.746 186.35 227.073 185.998C227.4 185.646 227.771 185.38 228.187 185.2C228.602 185.019 229.031 184.929 229.476 184.929C230.042 184.929 230.53 185.026 230.94 185.222C231.355 185.417 231.695 185.69 231.958 186.042C232.222 186.389 232.417 186.799 232.544 187.272C232.671 187.741 232.735 188.254 232.735 188.811V189.418H226.817V188.312H231.38V188.21C231.36 187.858 231.287 187.517 231.16 187.185C231.038 186.853 230.843 186.579 230.574 186.364C230.306 186.149 229.939 186.042 229.476 186.042C229.168 186.042 228.885 186.108 228.626 186.24C228.367 186.367 228.145 186.557 227.959 186.811C227.774 187.065 227.63 187.375 227.527 187.741C227.425 188.107 227.374 188.53 227.374 189.008V189.316C227.374 189.692 227.425 190.046 227.527 190.378C227.635 190.705 227.789 190.993 227.989 191.242C228.194 191.491 228.44 191.687 228.729 191.828C229.021 191.97 229.354 192.041 229.725 192.041C230.203 192.041 230.608 191.943 230.94 191.748C231.272 191.552 231.563 191.291 231.812 190.964L232.632 191.616C232.461 191.875 232.244 192.121 231.98 192.355C231.717 192.59 231.392 192.78 231.006 192.927C230.625 193.073 230.174 193.146 229.651 193.146ZM237.605 193.146C237.054 193.146 236.553 193.054 236.104 192.868C235.66 192.678 235.276 192.412 234.954 192.07C234.637 191.728 234.393 191.323 234.222 190.854C234.051 190.385 233.965 189.873 233.965 189.316V189.008C233.965 188.364 234.061 187.79 234.251 187.287C234.441 186.779 234.7 186.35 235.027 185.998C235.354 185.646 235.726 185.38 236.141 185.2C236.556 185.019 236.985 184.929 237.43 184.929C237.996 184.929 238.484 185.026 238.895 185.222C239.31 185.417 239.649 185.69 239.913 186.042C240.176 186.389 240.372 186.799 240.499 187.272C240.625 187.741 240.689 188.254 240.689 188.811V189.418H234.771V188.312H239.334V188.21C239.314 187.858 239.241 187.517 239.114 187.185C238.992 186.853 238.797 186.579 238.528 186.364C238.26 186.149 237.894 186.042 237.43 186.042C237.122 186.042 236.839 186.108 236.58 186.24C236.321 186.367 236.099 186.557 235.914 186.811C235.728 187.065 235.584 187.375 235.481 187.741C235.379 188.107 235.328 188.53 235.328 189.008V189.316C235.328 189.692 235.379 190.046 235.481 190.378C235.589 190.705 235.743 190.993 235.943 191.242C236.148 191.491 236.395 191.687 236.683 191.828C236.976 191.97 237.308 192.041 237.679 192.041C238.157 192.041 238.562 191.943 238.895 191.748C239.227 191.552 239.517 191.291 239.766 190.964L240.586 191.616C240.416 191.875 240.198 192.121 239.935 192.355C239.671 192.59 239.346 192.78 238.96 192.927C238.58 193.073 238.128 193.146 237.605 193.146ZM247.464 185.075V193H246.102V185.075H247.464ZM245.999 182.973C245.999 182.753 246.065 182.568 246.197 182.417C246.333 182.265 246.534 182.189 246.797 182.189C247.056 182.189 247.254 182.265 247.391 182.417C247.532 182.568 247.603 182.753 247.603 182.973C247.603 183.183 247.532 183.364 247.391 183.515C247.254 183.662 247.056 183.735 246.797 183.735C246.534 183.735 246.333 183.662 246.197 183.515C246.065 183.364 245.999 183.183 245.999 182.973ZM252.957 185.075V186.115H248.672V185.075H252.957ZM250.123 183.149H251.478V191.037C251.478 191.306 251.519 191.508 251.602 191.645C251.685 191.782 251.792 191.872 251.924 191.916C252.056 191.96 252.198 191.982 252.349 191.982C252.461 191.982 252.579 191.972 252.701 191.953C252.828 191.928 252.923 191.909 252.986 191.894L252.994 193C252.886 193.034 252.745 193.066 252.569 193.095C252.398 193.129 252.19 193.146 251.946 193.146C251.614 193.146 251.309 193.081 251.031 192.949C250.752 192.817 250.53 192.597 250.364 192.29C250.203 191.977 250.123 191.557 250.123 191.03V183.149ZM257.835 193.146C257.283 193.146 256.783 193.054 256.333 192.868C255.889 192.678 255.506 192.412 255.184 192.07C254.866 191.728 254.622 191.323 254.451 190.854C254.28 190.385 254.195 189.873 254.195 189.316V189.008C254.195 188.364 254.29 187.79 254.48 187.287C254.671 186.779 254.93 186.35 255.257 185.998C255.584 185.646 255.955 185.38 256.37 185.2C256.785 185.019 257.215 184.929 257.659 184.929C258.226 184.929 258.714 185.026 259.124 185.222C259.539 185.417 259.878 185.69 260.142 186.042C260.406 186.389 260.601 186.799 260.728 187.272C260.855 187.741 260.918 188.254 260.918 188.811V189.418H255V188.312H259.563V188.21C259.544 187.858 259.471 187.517 259.344 187.185C259.222 186.853 259.026 186.579 258.758 186.364C258.489 186.149 258.123 186.042 257.659 186.042C257.352 186.042 257.068 186.108 256.81 186.24C256.551 186.367 256.329 186.557 256.143 186.811C255.958 187.065 255.813 187.375 255.711 187.741C255.608 188.107 255.557 188.53 255.557 189.008V189.316C255.557 189.692 255.608 190.046 255.711 190.378C255.818 190.705 255.972 190.993 256.172 191.242C256.377 191.491 256.624 191.687 256.912 191.828C257.205 191.97 257.537 192.041 257.908 192.041C258.387 192.041 258.792 191.943 259.124 191.748C259.456 191.552 259.747 191.291 259.996 190.964L260.816 191.616C260.645 191.875 260.428 192.121 260.164 192.355C259.9 192.59 259.576 192.78 259.19 192.927C258.809 193.073 258.357 193.146 257.835 193.146ZM263.848 186.65V193H262.486V185.075H263.775L263.848 186.65ZM263.57 188.737L262.94 188.715C262.945 188.173 263.016 187.673 263.152 187.214C263.289 186.75 263.492 186.347 263.76 186.005C264.029 185.664 264.363 185.4 264.764 185.214C265.164 185.024 265.628 184.929 266.155 184.929C266.526 184.929 266.868 184.982 267.181 185.09C267.493 185.192 267.764 185.356 267.994 185.581C268.223 185.805 268.401 186.093 268.528 186.445C268.655 186.796 268.719 187.221 268.719 187.719V193H267.364V187.785C267.364 187.37 267.293 187.038 267.151 186.789C267.015 186.54 266.819 186.359 266.565 186.247C266.312 186.13 266.014 186.071 265.672 186.071C265.271 186.071 264.937 186.142 264.668 186.284C264.4 186.425 264.185 186.621 264.024 186.87C263.863 187.119 263.746 187.404 263.672 187.727C263.604 188.044 263.57 188.381 263.57 188.737ZM268.704 187.99L267.796 188.269C267.801 187.834 267.872 187.417 268.008 187.016C268.15 186.616 268.353 186.259 268.616 185.947C268.885 185.634 269.214 185.388 269.605 185.207C269.996 185.021 270.442 184.929 270.945 184.929C271.37 184.929 271.746 184.985 272.073 185.097C272.405 185.209 272.684 185.383 272.908 185.617C273.138 185.847 273.311 186.142 273.428 186.503C273.545 186.865 273.604 187.294 273.604 187.792V193H272.242V187.778C272.242 187.333 272.171 186.989 272.029 186.745C271.893 186.496 271.697 186.323 271.443 186.225C271.194 186.123 270.896 186.071 270.55 186.071C270.252 186.071 269.988 186.123 269.759 186.225C269.529 186.328 269.336 186.469 269.18 186.65C269.024 186.826 268.904 187.028 268.821 187.258C268.743 187.487 268.704 187.731 268.704 187.99Z" fill="#505050"/>
<rect x="196" y="212" width="272" height="40" rx="8" fill="white"/>
<path d="M213.75 237C213.547 237 213.367 236.933 213.211 236.799C213.07 236.65 213 236.479 213 236.286C213 236.092 213.07 235.921 213.211 235.772L217.195 232L213.211 228.228C213.07 228.079 213 227.908 213 227.714C213 227.521 213.07 227.35 213.211 227.201C213.367 227.067 213.547 227 213.75 227C213.953 227 214.133 227.067 214.289 227.201L218.789 231.487C218.93 231.635 219 231.807 219 232C219 232.193 218.93 232.365 218.789 232.513L214.289 236.799C214.133 236.933 213.953 237 213.75 237Z" fill="#737373"/>
<path d="M241.178 226.336V237H239.787V226.336H241.178ZM244.606 226.336V227.493H236.366V226.336H244.606ZM246.781 230.32V237H245.426V229.075H246.745L246.781 230.32ZM249.257 229.031L249.25 230.291C249.137 230.267 249.03 230.252 248.927 230.247C248.83 230.237 248.717 230.232 248.59 230.232C248.278 230.232 248.002 230.281 247.763 230.379C247.523 230.477 247.321 230.613 247.155 230.789C246.989 230.965 246.857 231.175 246.759 231.419C246.667 231.658 246.605 231.922 246.576 232.21L246.195 232.43C246.195 231.951 246.242 231.502 246.334 231.082C246.432 230.662 246.581 230.291 246.781 229.969C246.981 229.642 247.235 229.388 247.543 229.207C247.855 229.021 248.227 228.929 248.656 228.929C248.754 228.929 248.866 228.941 248.993 228.965C249.12 228.985 249.208 229.007 249.257 229.031ZM253.651 237.146C253.1 237.146 252.599 237.054 252.15 236.868C251.706 236.678 251.322 236.412 251 236.07C250.683 235.728 250.438 235.323 250.268 234.854C250.097 234.385 250.011 233.873 250.011 233.316V233.008C250.011 232.364 250.106 231.79 250.297 231.287C250.487 230.779 250.746 230.35 251.073 229.998C251.4 229.646 251.771 229.38 252.187 229.2C252.602 229.019 253.031 228.929 253.476 228.929C254.042 228.929 254.53 229.026 254.94 229.222C255.355 229.417 255.695 229.69 255.958 230.042C256.222 230.389 256.417 230.799 256.544 231.272C256.671 231.741 256.735 232.254 256.735 232.811V233.418H250.817V232.312H255.38V232.21C255.36 231.858 255.287 231.517 255.16 231.185C255.038 230.853 254.843 230.579 254.574 230.364C254.306 230.149 253.939 230.042 253.476 230.042C253.168 230.042 252.885 230.108 252.626 230.24C252.367 230.367 252.145 230.557 251.959 230.811C251.774 231.065 251.63 231.375 251.527 231.741C251.425 232.107 251.374 232.53 251.374 233.008V233.316C251.374 233.692 251.425 234.046 251.527 234.378C251.635 234.705 251.789 234.993 251.989 235.242C252.194 235.491 252.44 235.687 252.729 235.828C253.021 235.97 253.354 236.041 253.725 236.041C254.203 236.041 254.608 235.943 254.94 235.748C255.272 235.552 255.563 235.291 255.812 234.964L256.632 235.616C256.461 235.875 256.244 236.121 255.98 236.355C255.717 236.59 255.392 236.78 255.006 236.927C254.625 237.073 254.174 237.146 253.651 237.146ZM261.605 237.146C261.054 237.146 260.553 237.054 260.104 236.868C259.66 236.678 259.276 236.412 258.954 236.07C258.637 235.728 258.393 235.323 258.222 234.854C258.051 234.385 257.965 233.873 257.965 233.316V233.008C257.965 232.364 258.061 231.79 258.251 231.287C258.441 230.779 258.7 230.35 259.027 229.998C259.354 229.646 259.726 229.38 260.141 229.2C260.556 229.019 260.985 228.929 261.43 228.929C261.996 228.929 262.484 229.026 262.895 229.222C263.31 229.417 263.649 229.69 263.913 230.042C264.176 230.389 264.372 230.799 264.499 231.272C264.625 231.741 264.689 232.254 264.689 232.811V233.418H258.771V232.312H263.334V232.21C263.314 231.858 263.241 231.517 263.114 231.185C262.992 230.853 262.797 230.579 262.528 230.364C262.26 230.149 261.894 230.042 261.43 230.042C261.122 230.042 260.839 230.108 260.58 230.24C260.321 230.367 260.099 230.557 259.914 230.811C259.728 231.065 259.584 231.375 259.481 231.741C259.379 232.107 259.328 232.53 259.328 233.008V233.316C259.328 233.692 259.379 234.046 259.481 234.378C259.589 234.705 259.743 234.993 259.943 235.242C260.148 235.491 260.395 235.687 260.683 235.828C260.976 235.97 261.308 236.041 261.679 236.041C262.157 236.041 262.562 235.943 262.895 235.748C263.227 235.552 263.517 235.291 263.766 234.964L264.586 235.616C264.416 235.875 264.198 236.121 263.935 236.355C263.671 236.59 263.346 236.78 262.96 236.927C262.58 237.073 262.128 237.146 261.605 237.146ZM271.464 229.075V237H270.102V229.075H271.464ZM269.999 226.973C269.999 226.753 270.065 226.568 270.197 226.417C270.333 226.265 270.534 226.189 270.797 226.189C271.056 226.189 271.254 226.265 271.391 226.417C271.532 226.568 271.603 226.753 271.603 226.973C271.603 227.183 271.532 227.364 271.391 227.515C271.254 227.662 271.056 227.735 270.797 227.735C270.534 227.735 270.333 227.662 270.197 227.515C270.065 227.364 269.999 227.183 269.999 226.973ZM276.957 229.075V230.115H272.672V229.075H276.957ZM274.123 227.149H275.478V235.037C275.478 235.306 275.519 235.508 275.602 235.645C275.685 235.782 275.792 235.872 275.924 235.916C276.056 235.96 276.198 235.982 276.349 235.982C276.461 235.982 276.579 235.972 276.701 235.953C276.828 235.928 276.923 235.909 276.986 235.894L276.994 237C276.886 237.034 276.745 237.066 276.569 237.095C276.398 237.129 276.19 237.146 275.946 237.146C275.614 237.146 275.309 237.081 275.031 236.949C274.752 236.817 274.53 236.597 274.364 236.29C274.203 235.977 274.123 235.557 274.123 235.03V227.149ZM281.835 237.146C281.283 237.146 280.783 237.054 280.333 236.868C279.889 236.678 279.506 236.412 279.184 236.07C278.866 235.728 278.622 235.323 278.451 234.854C278.28 234.385 278.195 233.873 278.195 233.316V233.008C278.195 232.364 278.29 231.79 278.48 231.287C278.671 230.779 278.93 230.35 279.257 229.998C279.584 229.646 279.955 229.38 280.37 229.2C280.785 229.019 281.215 228.929 281.659 228.929C282.226 228.929 282.714 229.026 283.124 229.222C283.539 229.417 283.878 229.69 284.142 230.042C284.406 230.389 284.601 230.799 284.728 231.272C284.855 231.741 284.918 232.254 284.918 232.811V233.418H279V232.312H283.563V232.21C283.544 231.858 283.471 231.517 283.344 231.185C283.222 230.853 283.026 230.579 282.758 230.364C282.489 230.149 282.123 230.042 281.659 230.042C281.352 230.042 281.068 230.108 280.81 230.24C280.551 230.367 280.329 230.557 280.143 230.811C279.958 231.065 279.813 231.375 279.711 231.741C279.608 232.107 279.557 232.53 279.557 233.008V233.316C279.557 233.692 279.608 234.046 279.711 234.378C279.818 234.705 279.972 234.993 280.172 235.242C280.377 235.491 280.624 235.687 280.912 235.828C281.205 235.97 281.537 236.041 281.908 236.041C282.387 236.041 282.792 235.943 283.124 235.748C283.456 235.552 283.747 235.291 283.996 234.964L284.816 235.616C284.645 235.875 284.428 236.121 284.164 236.355C283.9 236.59 283.576 236.78 283.19 236.927C282.809 237.073 282.357 237.146 281.835 237.146ZM287.848 230.65V237H286.486V229.075H287.775L287.848 230.65ZM287.57 232.737L286.94 232.715C286.945 232.173 287.016 231.673 287.152 231.214C287.289 230.75 287.492 230.347 287.76 230.005C288.029 229.664 288.363 229.4 288.764 229.214C289.164 229.024 289.628 228.929 290.155 228.929C290.526 228.929 290.868 228.982 291.181 229.09C291.493 229.192 291.764 229.356 291.994 229.581C292.223 229.805 292.401 230.093 292.528 230.445C292.655 230.796 292.719 231.221 292.719 231.719V237H291.364V231.785C291.364 231.37 291.293 231.038 291.151 230.789C291.015 230.54 290.819 230.359 290.565 230.247C290.312 230.13 290.014 230.071 289.672 230.071C289.271 230.071 288.937 230.142 288.668 230.284C288.4 230.425 288.185 230.621 288.024 230.87C287.863 231.119 287.746 231.404 287.672 231.727C287.604 232.044 287.57 232.381 287.57 232.737ZM292.704 231.99L291.796 232.269C291.801 231.834 291.872 231.417 292.008 231.016C292.15 230.616 292.353 230.259 292.616 229.947C292.885 229.634 293.214 229.388 293.605 229.207C293.996 229.021 294.442 228.929 294.945 228.929C295.37 228.929 295.746 228.985 296.073 229.097C296.405 229.209 296.684 229.383 296.908 229.617C297.138 229.847 297.311 230.142 297.428 230.503C297.545 230.865 297.604 231.294 297.604 231.792V237H296.242V231.778C296.242 231.333 296.171 230.989 296.029 230.745C295.893 230.496 295.697 230.323 295.443 230.225C295.194 230.123 294.896 230.071 294.55 230.071C294.252 230.071 293.988 230.123 293.759 230.225C293.529 230.328 293.336 230.469 293.18 230.65C293.024 230.826 292.904 231.028 292.821 231.258C292.743 231.487 292.704 231.731 292.704 231.99Z" fill="#505050"/>
<rect x="196" y="256" width="272" height="40" rx="8" fill="white"/>
<path d="M213.75 281C213.547 281 213.367 280.933 213.211 280.799C213.07 280.65 213 280.479 213 280.286C213 280.092 213.07 279.921 213.211 279.772L217.195 276L213.211 272.228C213.07 272.079 213 271.908 213 271.714C213 271.521 213.07 271.35 213.211 271.201C213.367 271.067 213.547 271 213.75 271C213.953 271 214.133 271.067 214.289 271.201L218.789 275.487C218.93 275.635 219 275.807 219 276C219 276.193 218.93 276.365 218.789 276.513L214.289 280.799C214.133 280.933 213.953 281 213.75 281Z" fill="#737373"/>
<path d="M241.178 270.336V281H239.787V270.336H241.178ZM244.606 270.336V271.493H236.366V270.336H244.606ZM246.781 274.32V281H245.426V273.075H246.745L246.781 274.32ZM249.257 273.031L249.25 274.291C249.137 274.267 249.03 274.252 248.927 274.247C248.83 274.237 248.717 274.232 248.59 274.232C248.278 274.232 248.002 274.281 247.763 274.379C247.523 274.477 247.321 274.613 247.155 274.789C246.989 274.965 246.857 275.175 246.759 275.419C246.667 275.658 246.605 275.922 246.576 276.21L246.195 276.43C246.195 275.951 246.242 275.502 246.334 275.082C246.432 274.662 246.581 274.291 246.781 273.969C246.981 273.642 247.235 273.388 247.543 273.207C247.855 273.021 248.227 272.929 248.656 272.929C248.754 272.929 248.866 272.941 248.993 272.965C249.12 272.985 249.208 273.007 249.257 273.031ZM253.651 281.146C253.1 281.146 252.599 281.054 252.15 280.868C251.706 280.678 251.322 280.412 251 280.07C250.683 279.728 250.438 279.323 250.268 278.854C250.097 278.385 250.011 277.873 250.011 277.316V277.008C250.011 276.364 250.106 275.79 250.297 275.287C250.487 274.779 250.746 274.35 251.073 273.998C251.4 273.646 251.771 273.38 252.187 273.2C252.602 273.019 253.031 272.929 253.476 272.929C254.042 272.929 254.53 273.026 254.94 273.222C255.355 273.417 255.695 273.69 255.958 274.042C256.222 274.389 256.417 274.799 256.544 275.272C256.671 275.741 256.735 276.254 256.735 276.811V277.418H250.817V276.312H255.38V276.21C255.36 275.858 255.287 275.517 255.16 275.185C255.038 274.853 254.843 274.579 254.574 274.364C254.306 274.149 253.939 274.042 253.476 274.042C253.168 274.042 252.885 274.108 252.626 274.24C252.367 274.367 252.145 274.557 251.959 274.811C251.774 275.065 251.63 275.375 251.527 275.741C251.425 276.107 251.374 276.53 251.374 277.008V277.316C251.374 277.692 251.425 278.046 251.527 278.378C251.635 278.705 251.789 278.993 251.989 279.242C252.194 279.491 252.44 279.687 252.729 279.828C253.021 279.97 253.354 280.041 253.725 280.041C254.203 280.041 254.608 279.943 254.94 279.748C255.272 279.552 255.563 279.291 255.812 278.964L256.632 279.616C256.461 279.875 256.244 280.121 255.98 280.355C255.717 280.59 255.392 280.78 255.006 280.927C254.625 281.073 254.174 281.146 253.651 281.146ZM261.605 281.146C261.054 281.146 260.553 281.054 260.104 280.868C259.66 280.678 259.276 280.412 258.954 280.07C258.637 279.728 258.393 279.323 258.222 278.854C258.051 278.385 257.965 277.873 257.965 277.316V277.008C257.965 276.364 258.061 275.79 258.251 275.287C258.441 274.779 258.7 274.35 259.027 273.998C259.354 273.646 259.726 273.38 260.141 273.2C260.556 273.019 260.985 272.929 261.43 272.929C261.996 272.929 262.484 273.026 262.895 273.222C263.31 273.417 263.649 273.69 263.913 274.042C264.176 274.389 264.372 274.799 264.499 275.272C264.625 275.741 264.689 276.254 264.689 276.811V277.418H258.771V276.312H263.334V276.21C263.314 275.858 263.241 275.517 263.114 275.185C262.992 274.853 262.797 274.579 262.528 274.364C262.26 274.149 261.894 274.042 261.43 274.042C261.122 274.042 260.839 274.108 260.58 274.24C260.321 274.367 260.099 274.557 259.914 274.811C259.728 275.065 259.584 275.375 259.481 275.741C259.379 276.107 259.328 276.53 259.328 277.008V277.316C259.328 277.692 259.379 278.046 259.481 278.378C259.589 278.705 259.743 278.993 259.943 279.242C260.148 279.491 260.395 279.687 260.683 279.828C260.976 279.97 261.308 280.041 261.679 280.041C262.157 280.041 262.562 279.943 262.895 279.748C263.227 279.552 263.517 279.291 263.766 278.964L264.586 279.616C264.416 279.875 264.198 280.121 263.935 280.355C263.671 280.59 263.346 280.78 262.96 280.927C262.58 281.073 262.128 281.146 261.605 281.146ZM271.464 273.075V281H270.102V273.075H271.464ZM269.999 270.973C269.999 270.753 270.065 270.568 270.197 270.417C270.333 270.265 270.534 270.189 270.797 270.189C271.056 270.189 271.254 270.265 271.391 270.417C271.532 270.568 271.603 270.753 271.603 270.973C271.603 271.183 271.532 271.364 271.391 271.515C271.254 271.662 271.056 271.735 270.797 271.735C270.534 271.735 270.333 271.662 270.197 271.515C270.065 271.364 269.999 271.183 269.999 270.973ZM276.957 273.075V274.115H272.672V273.075H276.957ZM274.123 271.149H275.478V279.037C275.478 279.306 275.519 279.508 275.602 279.645C275.685 279.782 275.792 279.872 275.924 279.916C276.056 279.96 276.198 279.982 276.349 279.982C276.461 279.982 276.579 279.972 276.701 279.953C276.828 279.928 276.923 279.909 276.986 279.894L276.994 281C276.886 281.034 276.745 281.066 276.569 281.095C276.398 281.129 276.19 281.146 275.946 281.146C275.614 281.146 275.309 281.081 275.031 280.949C274.752 280.817 274.53 280.597 274.364 280.29C274.203 279.977 274.123 279.557 274.123 279.03V271.149ZM281.835 281.146C281.283 281.146 280.783 281.054 280.333 280.868C279.889 280.678 279.506 280.412 279.184 280.07C278.866 279.728 278.622 279.323 278.451 278.854C278.28 278.385 278.195 277.873 278.195 277.316V277.008C278.195 276.364 278.29 275.79 278.48 275.287C278.671 274.779 278.93 274.35 279.257 273.998C279.584 273.646 279.955 273.38 280.37 273.2C280.785 273.019 281.215 272.929 281.659 272.929C282.226 272.929 282.714 273.026 283.124 273.222C283.539 273.417 283.878 273.69 284.142 274.042C284.406 274.389 284.601 274.799 284.728 275.272C284.855 275.741 284.918 276.254 284.918 276.811V277.418H279V276.312H283.563V276.21C283.544 275.858 283.471 275.517 283.344 275.185C283.222 274.853 283.026 274.579 282.758 274.364C282.489 274.149 282.123 274.042 281.659 274.042C281.352 274.042 281.068 274.108 280.81 274.24C280.551 274.367 280.329 274.557 280.143 274.811C279.958 275.065 279.813 275.375 279.711 275.741C279.608 276.107 279.557 276.53 279.557 277.008V277.316C279.557 277.692 279.608 278.046 279.711 278.378C279.818 278.705 279.972 278.993 280.172 279.242C280.377 279.491 280.624 279.687 280.912 279.828C281.205 279.97 281.537 280.041 281.908 280.041C282.387 280.041 282.792 279.943 283.124 279.748C283.456 279.552 283.747 279.291 283.996 278.964L284.816 279.616C284.645 279.875 284.428 280.121 284.164 280.355C283.9 280.59 283.576 280.78 283.19 280.927C282.809 281.073 282.357 281.146 281.835 281.146ZM287.848 274.65V281H286.486V273.075H287.775L287.848 274.65ZM287.57 276.737L286.94 276.715C286.945 276.173 287.016 275.673 287.152 275.214C287.289 274.75 287.492 274.347 287.76 274.005C288.029 273.664 288.363 273.4 288.764 273.214C289.164 273.024 289.628 272.929 290.155 272.929C290.526 272.929 290.868 272.982 291.181 273.09C291.493 273.192 291.764 273.356 291.994 273.581C292.223 273.805 292.401 274.093 292.528 274.445C292.655 274.796 292.719 275.221 292.719 275.719V281H291.364V275.785C291.364 275.37 291.293 275.038 291.151 274.789C291.015 274.54 290.819 274.359 290.565 274.247C290.312 274.13 290.014 274.071 289.672 274.071C289.271 274.071 288.937 274.142 288.668 274.284C288.4 274.425 288.185 274.621 288.024 274.87C287.863 275.119 287.746 275.404 287.672 275.727C287.604 276.044 287.57 276.381 287.57 276.737ZM292.704 275.99L291.796 276.269C291.801 275.834 291.872 275.417 292.008 275.016C292.15 274.616 292.353 274.259 292.616 273.947C292.885 273.634 293.214 273.388 293.605 273.207C293.996 273.021 294.442 272.929 294.945 272.929C295.37 272.929 295.746 272.985 296.073 273.097C296.405 273.209 296.684 273.383 296.908 273.617C297.138 273.847 297.311 274.142 297.428 274.503C297.545 274.865 297.604 275.294 297.604 275.792V281H296.242V275.778C296.242 275.333 296.171 274.989 296.029 274.745C295.893 274.496 295.697 274.323 295.443 274.225C295.194 274.123 294.896 274.071 294.55 274.071C294.252 274.071 293.988 274.123 293.759 274.225C293.529 274.328 293.336 274.469 293.18 274.65C293.024 274.826 292.904 275.028 292.821 275.258C292.743 275.487 292.704 275.731 292.704 275.99Z" fill="#505050"/>
<rect x="196" y="300" width="272" height="40" rx="8" fill="white"/>
<path d="M213.75 325C213.547 325 213.367 324.933 213.211 324.799C213.07 324.65 213 324.479 213 324.286C213 324.092 213.07 323.921 213.211 323.772L217.195 320L213.211 316.228C213.07 316.079 213 315.908 213 315.714C213 315.521 213.07 315.35 213.211 315.201C213.367 315.067 213.547 315 213.75 315C213.953 315 214.133 315.067 214.289 315.201L218.789 319.487C218.93 319.635 219 319.807 219 320C219 320.193 218.93 320.365 218.789 320.513L214.289 324.799C214.133 324.933 213.953 325 213.75 325Z" fill="#737373"/>
<path d="M241.178 314.336V325H239.787V314.336H241.178ZM244.606 314.336V315.493H236.366V314.336H244.606ZM246.781 318.32V325H245.426V317.075H246.745L246.781 318.32ZM249.257 317.031L249.25 318.291C249.137 318.267 249.03 318.252 248.927 318.247C248.83 318.237 248.717 318.232 248.59 318.232C248.278 318.232 248.002 318.281 247.763 318.379C247.523 318.477 247.321 318.613 247.155 318.789C246.989 318.965 246.857 319.175 246.759 319.419C246.667 319.658 246.605 319.922 246.576 320.21L246.195 320.43C246.195 319.951 246.242 319.502 246.334 319.082C246.432 318.662 246.581 318.291 246.781 317.969C246.981 317.642 247.235 317.388 247.543 317.207C247.855 317.021 248.227 316.929 248.656 316.929C248.754 316.929 248.866 316.941 248.993 316.965C249.12 316.985 249.208 317.007 249.257 317.031ZM253.651 325.146C253.1 325.146 252.599 325.054 252.15 324.868C251.706 324.678 251.322 324.412 251 324.07C250.683 323.728 250.438 323.323 250.268 322.854C250.097 322.385 250.011 321.873 250.011 321.316V321.008C250.011 320.364 250.106 319.79 250.297 319.287C250.487 318.779 250.746 318.35 251.073 317.998C251.4 317.646 251.771 317.38 252.187 317.2C252.602 317.019 253.031 316.929 253.476 316.929C254.042 316.929 254.53 317.026 254.94 317.222C255.355 317.417 255.695 317.69 255.958 318.042C256.222 318.389 256.417 318.799 256.544 319.272C256.671 319.741 256.735 320.254 256.735 320.811V321.418H250.817V320.312H255.38V320.21C255.36 319.858 255.287 319.517 255.16 319.185C255.038 318.853 254.843 318.579 254.574 318.364C254.306 318.149 253.939 318.042 253.476 318.042C253.168 318.042 252.885 318.108 252.626 318.24C252.367 318.367 252.145 318.557 251.959 318.811C251.774 319.065 251.63 319.375 251.527 319.741C251.425 320.107 251.374 320.53 251.374 321.008V321.316C251.374 321.692 251.425 322.046 251.527 322.378C251.635 322.705 251.789 322.993 251.989 323.242C252.194 323.491 252.44 323.687 252.729 323.828C253.021 323.97 253.354 324.041 253.725 324.041C254.203 324.041 254.608 323.943 254.94 323.748C255.272 323.552 255.563 323.291 255.812 322.964L256.632 323.616C256.461 323.875 256.244 324.121 255.98 324.355C255.717 324.59 255.392 324.78 255.006 324.927C254.625 325.073 254.174 325.146 253.651 325.146ZM261.605 325.146C261.054 325.146 260.553 325.054 260.104 324.868C259.66 324.678 259.276 324.412 258.954 324.07C258.637 323.728 258.393 323.323 258.222 322.854C258.051 322.385 257.965 321.873 257.965 321.316V321.008C257.965 320.364 258.061 319.79 258.251 319.287C258.441 318.779 258.7 318.35 259.027 317.998C259.354 317.646 259.726 317.38 260.141 317.2C260.556 317.019 260.985 316.929 261.43 316.929C261.996 316.929 262.484 317.026 262.895 317.222C263.31 317.417 263.649 317.69 263.913 318.042C264.176 318.389 264.372 318.799 264.499 319.272C264.625 319.741 264.689 320.254 264.689 320.811V321.418H258.771V320.312H263.334V320.21C263.314 319.858 263.241 319.517 263.114 319.185C262.992 318.853 262.797 318.579 262.528 318.364C262.26 318.149 261.894 318.042 261.43 318.042C261.122 318.042 260.839 318.108 260.58 318.24C260.321 318.367 260.099 318.557 259.914 318.811C259.728 319.065 259.584 319.375 259.481 319.741C259.379 320.107 259.328 320.53 259.328 321.008V321.316C259.328 321.692 259.379 322.046 259.481 322.378C259.589 322.705 259.743 322.993 259.943 323.242C260.148 323.491 260.395 323.687 260.683 323.828C260.976 323.97 261.308 324.041 261.679 324.041C262.157 324.041 262.562 323.943 262.895 323.748C263.227 323.552 263.517 323.291 263.766 322.964L264.586 323.616C264.416 323.875 264.198 324.121 263.935 324.355C263.671 324.59 263.346 324.78 262.96 324.927C262.58 325.073 262.128 325.146 261.605 325.146ZM271.464 317.075V325H270.102V317.075H271.464ZM269.999 314.973C269.999 314.753 270.065 314.568 270.197 314.417C270.333 314.265 270.534 314.189 270.797 314.189C271.056 314.189 271.254 314.265 271.391 314.417C271.532 314.568 271.603 314.753 271.603 314.973C271.603 315.183 271.532 315.364 271.391 315.515C271.254 315.662 271.056 315.735 270.797 315.735C270.534 315.735 270.333 315.662 270.197 315.515C270.065 315.364 269.999 315.183 269.999 314.973ZM276.957 317.075V318.115H272.672V317.075H276.957ZM274.123 315.149H275.478V323.037C275.478 323.306 275.519 323.508 275.602 323.645C275.685 323.782 275.792 323.872 275.924 323.916C276.056 323.96 276.198 323.982 276.349 323.982C276.461 323.982 276.579 323.972 276.701 323.953C276.828 323.928 276.923 323.909 276.986 323.894L276.994 325C276.886 325.034 276.745 325.066 276.569 325.095C276.398 325.129 276.19 325.146 275.946 325.146C275.614 325.146 275.309 325.081 275.031 324.949C274.752 324.817 274.53 324.597 274.364 324.29C274.203 323.977 274.123 323.557 274.123 323.03V315.149ZM281.835 325.146C281.283 325.146 280.783 325.054 280.333 324.868C279.889 324.678 279.506 324.412 279.184 324.07C278.866 323.728 278.622 323.323 278.451 322.854C278.28 322.385 278.195 321.873 278.195 321.316V321.008C278.195 320.364 278.29 319.79 278.48 319.287C278.671 318.779 278.93 318.35 279.257 317.998C279.584 317.646 279.955 317.38 280.37 317.2C280.785 317.019 281.215 316.929 281.659 316.929C282.226 316.929 282.714 317.026 283.124 317.222C283.539 317.417 283.878 317.69 284.142 318.042C284.406 318.389 284.601 318.799 284.728 319.272C284.855 319.741 284.918 320.254 284.918 320.811V321.418H279V320.312H283.563V320.21C283.544 319.858 283.471 319.517 283.344 319.185C283.222 318.853 283.026 318.579 282.758 318.364C282.489 318.149 282.123 318.042 281.659 318.042C281.352 318.042 281.068 318.108 280.81 318.24C280.551 318.367 280.329 318.557 280.143 318.811C279.958 319.065 279.813 319.375 279.711 319.741C279.608 320.107 279.557 320.53 279.557 321.008V321.316C279.557 321.692 279.608 322.046 279.711 322.378C279.818 322.705 279.972 322.993 280.172 323.242C280.377 323.491 280.624 323.687 280.912 323.828C281.205 323.97 281.537 324.041 281.908 324.041C282.387 324.041 282.792 323.943 283.124 323.748C283.456 323.552 283.747 323.291 283.996 322.964L284.816 323.616C284.645 323.875 284.428 324.121 284.164 324.355C283.9 324.59 283.576 324.78 283.19 324.927C282.809 325.073 282.357 325.146 281.835 325.146ZM287.848 318.65V325H286.486V317.075H287.775L287.848 318.65ZM287.57 320.737L286.94 320.715C286.945 320.173 287.016 319.673 287.152 319.214C287.289 318.75 287.492 318.347 287.76 318.005C288.029 317.664 288.363 317.4 288.764 317.214C289.164 317.024 289.628 316.929 290.155 316.929C290.526 316.929 290.868 316.982 291.181 317.09C291.493 317.192 291.764 317.356 291.994 317.581C292.223 317.805 292.401 318.093 292.528 318.445C292.655 318.796 292.719 319.221 292.719 319.719V325H291.364V319.785C291.364 319.37 291.293 319.038 291.151 318.789C291.015 318.54 290.819 318.359 290.565 318.247C290.312 318.13 290.014 318.071 289.672 318.071C289.271 318.071 288.937 318.142 288.668 318.284C288.4 318.425 288.185 318.621 288.024 318.87C287.863 319.119 287.746 319.404 287.672 319.727C287.604 320.044 287.57 320.381 287.57 320.737ZM292.704 319.99L291.796 320.269C291.801 319.834 291.872 319.417 292.008 319.016C292.15 318.616 292.353 318.259 292.616 317.947C292.885 317.634 293.214 317.388 293.605 317.207C293.996 317.021 294.442 316.929 294.945 316.929C295.37 316.929 295.746 316.985 296.073 317.097C296.405 317.209 296.684 317.383 296.908 317.617C297.138 317.847 297.311 318.142 297.428 318.503C297.545 318.865 297.604 319.294 297.604 319.792V325H296.242V319.778C296.242 319.333 296.171 318.989 296.029 318.745C295.893 318.496 295.697 318.323 295.443 318.225C295.194 318.123 294.896 318.071 294.55 318.071C294.252 318.071 293.988 318.123 293.759 318.225C293.529 318.328 293.336 318.469 293.18 318.65C293.024 318.826 292.904 319.028 292.821 319.258C292.743 319.487 292.704 319.731 292.704 319.99Z" fill="#505050"/>
<rect x="196" y="344" width="272" height="40" rx="8" fill="#F2F2F2"/>
<path d="M216 367C215.817 367 215.634 366.927 215.495 366.78L211.209 362.28C210.93 361.987 210.93 361.513 211.209 361.22C211.488 360.927 211.94 360.927 212.219 361.22L216 365.191L219.781 361.22C220.06 360.927 220.512 360.927 220.791 361.22C221.07 361.513 221.07 361.988 220.791 362.281L216.505 366.781C216.366 366.927 216.183 367 216 367Z" fill="#737373"/>
<path d="M241.178 358.336V369H239.787V358.336H241.178ZM244.606 358.336V359.493H236.366V358.336H244.606ZM246.781 362.32V369H245.426V361.075H246.745L246.781 362.32ZM249.257 361.031L249.25 362.291C249.137 362.267 249.03 362.252 248.927 362.247C248.83 362.237 248.717 362.232 248.59 362.232C248.278 362.232 248.002 362.281 247.763 362.379C247.523 362.477 247.321 362.613 247.155 362.789C246.989 362.965 246.857 363.175 246.759 363.419C246.667 363.658 246.605 363.922 246.576 364.21L246.195 364.43C246.195 363.951 246.242 363.502 246.334 363.082C246.432 362.662 246.581 362.291 246.781 361.969C246.981 361.642 247.235 361.388 247.543 361.207C247.855 361.021 248.227 360.929 248.656 360.929C248.754 360.929 248.866 360.941 248.993 360.965C249.12 360.985 249.208 361.007 249.257 361.031ZM253.651 369.146C253.1 369.146 252.599 369.054 252.15 368.868C251.706 368.678 251.322 368.412 251 368.07C250.683 367.728 250.438 367.323 250.268 366.854C250.097 366.385 250.011 365.873 250.011 365.316V365.008C250.011 364.364 250.106 363.79 250.297 363.287C250.487 362.779 250.746 362.35 251.073 361.998C251.4 361.646 251.771 361.38 252.187 361.2C252.602 361.019 253.031 360.929 253.476 360.929C254.042 360.929 254.53 361.026 254.94 361.222C255.355 361.417 255.695 361.69 255.958 362.042C256.222 362.389 256.417 362.799 256.544 363.272C256.671 363.741 256.735 364.254 256.735 364.811V365.418H250.817V364.312H255.38V364.21C255.36 363.858 255.287 363.517 255.16 363.185C255.038 362.853 254.843 362.579 254.574 362.364C254.306 362.149 253.939 362.042 253.476 362.042C253.168 362.042 252.885 362.108 252.626 362.24C252.367 362.367 252.145 362.557 251.959 362.811C251.774 363.065 251.63 363.375 251.527 363.741C251.425 364.107 251.374 364.53 251.374 365.008V365.316C251.374 365.692 251.425 366.046 251.527 366.378C251.635 366.705 251.789 366.993 251.989 367.242C252.194 367.491 252.44 367.687 252.729 367.828C253.021 367.97 253.354 368.041 253.725 368.041C254.203 368.041 254.608 367.943 254.94 367.748C255.272 367.552 255.563 367.291 255.812 366.964L256.632 367.616C256.461 367.875 256.244 368.121 255.98 368.355C255.717 368.59 255.392 368.78 255.006 368.927C254.625 369.073 254.174 369.146 253.651 369.146ZM261.605 369.146C261.054 369.146 260.553 369.054 260.104 368.868C259.66 368.678 259.276 368.412 258.954 368.07C258.637 367.728 258.393 367.323 258.222 366.854C258.051 366.385 257.965 365.873 257.965 365.316V365.008C257.965 364.364 258.061 363.79 258.251 363.287C258.441 362.779 258.7 362.35 259.027 361.998C259.354 361.646 259.726 361.38 260.141 361.2C260.556 361.019 260.985 360.929 261.43 360.929C261.996 360.929 262.484 361.026 262.895 361.222C263.31 361.417 263.649 361.69 263.913 362.042C264.176 362.389 264.372 362.799 264.499 363.272C264.625 363.741 264.689 364.254 264.689 364.811V365.418H258.771V364.312H263.334V364.21C263.314 363.858 263.241 363.517 263.114 363.185C262.992 362.853 262.797 362.579 262.528 362.364C262.26 362.149 261.894 362.042 261.43 362.042C261.122 362.042 260.839 362.108 260.58 362.24C260.321 362.367 260.099 362.557 259.914 362.811C259.728 363.065 259.584 363.375 259.481 363.741C259.379 364.107 259.328 364.53 259.328 365.008V365.316C259.328 365.692 259.379 366.046 259.481 366.378C259.589 366.705 259.743 366.993 259.943 367.242C260.148 367.491 260.395 367.687 260.683 367.828C260.976 367.97 261.308 368.041 261.679 368.041C262.157 368.041 262.562 367.943 262.895 367.748C263.227 367.552 263.517 367.291 263.766 366.964L264.586 367.616C264.416 367.875 264.198 368.121 263.935 368.355C263.671 368.59 263.346 368.78 262.96 368.927C262.58 369.073 262.128 369.146 261.605 369.146ZM271.464 361.075V369H270.102V361.075H271.464ZM269.999 358.973C269.999 358.753 270.065 358.568 270.197 358.417C270.333 358.265 270.534 358.189 270.797 358.189C271.056 358.189 271.254 358.265 271.391 358.417C271.532 358.568 271.603 358.753 271.603 358.973C271.603 359.183 271.532 359.364 271.391 359.515C271.254 359.662 271.056 359.735 270.797 359.735C270.534 359.735 270.333 359.662 270.197 359.515C270.065 359.364 269.999 359.183 269.999 358.973ZM276.957 361.075V362.115H272.672V361.075H276.957ZM274.123 359.149H275.478V367.037C275.478 367.306 275.519 367.508 275.602 367.645C275.685 367.782 275.792 367.872 275.924 367.916C276.056 367.96 276.198 367.982 276.349 367.982C276.461 367.982 276.579 367.972 276.701 367.953C276.828 367.928 276.923 367.909 276.986 367.894L276.994 369C276.886 369.034 276.745 369.066 276.569 369.095C276.398 369.129 276.19 369.146 275.946 369.146C275.614 369.146 275.309 369.081 275.031 368.949C274.752 368.817 274.53 368.597 274.364 368.29C274.203 367.977 274.123 367.557 274.123 367.03V359.149ZM281.835 369.146C281.283 369.146 280.783 369.054 280.333 368.868C279.889 368.678 279.506 368.412 279.184 368.07C278.866 367.728 278.622 367.323 278.451 366.854C278.28 366.385 278.195 365.873 278.195 365.316V365.008C278.195 364.364 278.29 363.79 278.48 363.287C278.671 362.779 278.93 362.35 279.257 361.998C279.584 361.646 279.955 361.38 280.37 361.2C280.785 361.019 281.215 360.929 281.659 360.929C282.226 360.929 282.714 361.026 283.124 361.222C283.539 361.417 283.878 361.69 284.142 362.042C284.406 362.389 284.601 362.799 284.728 363.272C284.855 363.741 284.918 364.254 284.918 364.811V365.418H279V364.312H283.563V364.21C283.544 363.858 283.471 363.517 283.344 363.185C283.222 362.853 283.026 362.579 282.758 362.364C282.489 362.149 282.123 362.042 281.659 362.042C281.352 362.042 281.068 362.108 280.81 362.24C280.551 362.367 280.329 362.557 280.143 362.811C279.958 363.065 279.813 363.375 279.711 363.741C279.608 364.107 279.557 364.53 279.557 365.008V365.316C279.557 365.692 279.608 366.046 279.711 366.378C279.818 366.705 279.972 366.993 280.172 367.242C280.377 367.491 280.624 367.687 280.912 367.828C281.205 367.97 281.537 368.041 281.908 368.041C282.387 368.041 282.792 367.943 283.124 367.748C283.456 367.552 283.747 367.291 283.996 366.964L284.816 367.616C284.645 367.875 284.428 368.121 284.164 368.355C283.9 368.59 283.576 368.78 283.19 368.927C282.809 369.073 282.357 369.146 281.835 369.146ZM287.848 362.65V369H286.486V361.075H287.775L287.848 362.65ZM287.57 364.737L286.94 364.715C286.945 364.173 287.016 363.673 287.152 363.214C287.289 362.75 287.492 362.347 287.76 362.005C288.029 361.664 288.363 361.4 288.764 361.214C289.164 361.024 289.628 360.929 290.155 360.929C290.526 360.929 290.868 360.982 291.181 361.09C291.493 361.192 291.764 361.356 291.994 361.581C292.223 361.805 292.401 362.093 292.528 362.445C292.655 362.796 292.719 363.221 292.719 363.719V369H291.364V363.785C291.364 363.37 291.293 363.038 291.151 362.789C291.015 362.54 290.819 362.359 290.565 362.247C290.312 362.13 290.014 362.071 289.672 362.071C289.271 362.071 288.937 362.142 288.668 362.284C288.4 362.425 288.185 362.621 288.024 362.87C287.863 363.119 287.746 363.404 287.672 363.727C287.604 364.044 287.57 364.381 287.57 364.737ZM292.704 363.99L291.796 364.269C291.801 363.834 291.872 363.417 292.008 363.016C292.15 362.616 292.353 362.259 292.616 361.947C292.885 361.634 293.214 361.388 293.605 361.207C293.996 361.021 294.442 360.929 294.945 360.929C295.37 360.929 295.746 360.985 296.073 361.097C296.405 361.209 296.684 361.383 296.908 361.617C297.138 361.847 297.311 362.142 297.428 362.503C297.545 362.865 297.604 363.294 297.604 363.792V369H296.242V363.778C296.242 363.333 296.171 362.989 296.029 362.745C295.893 362.496 295.697 362.323 295.443 362.225C295.194 362.123 294.896 362.071 294.55 362.071C294.252 362.071 293.988 362.123 293.759 362.225C293.529 362.328 293.336 362.469 293.18 362.65C293.024 362.826 292.904 363.028 292.821 363.258C292.743 363.487 292.704 363.731 292.704 363.99Z" fill="#505050"/>
<rect x="220" y="388" width="248" height="40" rx="8" fill="white"/>
<path d="M241.178 402.336V413H239.787V402.336H241.178ZM244.606 402.336V403.493H236.366V402.336H244.606ZM246.781 406.32V413H245.426V405.075H246.745L246.781 406.32ZM249.257 405.031L249.25 406.291C249.137 406.267 249.03 406.252 248.927 406.247C248.83 406.237 248.717 406.232 248.59 406.232C248.278 406.232 248.002 406.281 247.763 406.379C247.523 406.477 247.321 406.613 247.155 406.789C246.989 406.965 246.857 407.175 246.759 407.419C246.667 407.658 246.605 407.922 246.576 408.21L246.195 408.43C246.195 407.951 246.242 407.502 246.334 407.082C246.432 406.662 246.581 406.291 246.781 405.969C246.981 405.642 247.235 405.388 247.543 405.207C247.855 405.021 248.227 404.929 248.656 404.929C248.754 404.929 248.866 404.941 248.993 404.965C249.12 404.985 249.208 405.007 249.257 405.031ZM253.651 413.146C253.1 413.146 252.599 413.054 252.15 412.868C251.706 412.678 251.322 412.412 251 412.07C250.683 411.728 250.438 411.323 250.268 410.854C250.097 410.385 250.011 409.873 250.011 409.316V409.008C250.011 408.364 250.106 407.79 250.297 407.287C250.487 406.779 250.746 406.35 251.073 405.998C251.4 405.646 251.771 405.38 252.187 405.2C252.602 405.019 253.031 404.929 253.476 404.929C254.042 404.929 254.53 405.026 254.94 405.222C255.355 405.417 255.695 405.69 255.958 406.042C256.222 406.389 256.417 406.799 256.544 407.272C256.671 407.741 256.735 408.254 256.735 408.811V409.418H250.817V408.312H255.38V408.21C255.36 407.858 255.287 407.517 255.16 407.185C255.038 406.853 254.843 406.579 254.574 406.364C254.306 406.149 253.939 406.042 253.476 406.042C253.168 406.042 252.885 406.108 252.626 406.24C252.367 406.367 252.145 406.557 251.959 406.811C251.774 407.065 251.63 407.375 251.527 407.741C251.425 408.107 251.374 408.53 251.374 409.008V409.316C251.374 409.692 251.425 410.046 251.527 410.378C251.635 410.705 251.789 410.993 251.989 411.242C252.194 411.491 252.44 411.687 252.729 411.828C253.021 411.97 253.354 412.041 253.725 412.041C254.203 412.041 254.608 411.943 254.94 411.748C255.272 411.552 255.563 411.291 255.812 410.964L256.632 411.616C256.461 411.875 256.244 412.121 255.98 412.355C255.717 412.59 255.392 412.78 255.006 412.927C254.625 413.073 254.174 413.146 253.651 413.146ZM261.605 413.146C261.054 413.146 260.553 413.054 260.104 412.868C259.66 412.678 259.276 412.412 258.954 412.07C258.637 411.728 258.393 411.323 258.222 410.854C258.051 410.385 257.965 409.873 257.965 409.316V409.008C257.965 408.364 258.061 407.79 258.251 407.287C258.441 406.779 258.7 406.35 259.027 405.998C259.354 405.646 259.726 405.38 260.141 405.2C260.556 405.019 260.985 404.929 261.43 404.929C261.996 404.929 262.484 405.026 262.895 405.222C263.31 405.417 263.649 405.69 263.913 406.042C264.176 406.389 264.372 406.799 264.499 407.272C264.625 407.741 264.689 408.254 264.689 408.811V409.418H258.771V408.312H263.334V408.21C263.314 407.858 263.241 407.517 263.114 407.185C262.992 406.853 262.797 406.579 262.528 406.364C262.26 406.149 261.894 406.042 261.43 406.042C261.122 406.042 260.839 406.108 260.58 406.24C260.321 406.367 260.099 406.557 259.914 406.811C259.728 407.065 259.584 407.375 259.481 407.741C259.379 408.107 259.328 408.53 259.328 409.008V409.316C259.328 409.692 259.379 410.046 259.481 410.378C259.589 410.705 259.743 410.993 259.943 411.242C260.148 411.491 260.395 411.687 260.683 411.828C260.976 411.97 261.308 412.041 261.679 412.041C262.157 412.041 262.562 411.943 262.895 411.748C263.227 411.552 263.517 411.291 263.766 410.964L264.586 411.616C264.416 411.875 264.198 412.121 263.935 412.355C263.671 412.59 263.346 412.78 262.96 412.927C262.58 413.073 262.128 413.146 261.605 413.146ZM271.464 405.075V413H270.102V405.075H271.464ZM269.999 402.973C269.999 402.753 270.065 402.568 270.197 402.417C270.333 402.265 270.534 402.189 270.797 402.189C271.056 402.189 271.254 402.265 271.391 402.417C271.532 402.568 271.603 402.753 271.603 402.973C271.603 403.183 271.532 403.364 271.391 403.515C271.254 403.662 271.056 403.735 270.797 403.735C270.534 403.735 270.333 403.662 270.197 403.515C270.065 403.364 269.999 403.183 269.999 402.973ZM276.957 405.075V406.115H272.672V405.075H276.957ZM274.123 403.149H275.478V411.037C275.478 411.306 275.519 411.508 275.602 411.645C275.685 411.782 275.792 411.872 275.924 411.916C276.056 411.96 276.198 411.982 276.349 411.982C276.461 411.982 276.579 411.972 276.701 411.953C276.828 411.928 276.923 411.909 276.986 411.894L276.994 413C276.886 413.034 276.745 413.066 276.569 413.095C276.398 413.129 276.19 413.146 275.946 413.146C275.614 413.146 275.309 413.081 275.031 412.949C274.752 412.817 274.53 412.597 274.364 412.29C274.203 411.977 274.123 411.557 274.123 411.03V403.149ZM281.835 413.146C281.283 413.146 280.783 413.054 280.333 412.868C279.889 412.678 279.506 412.412 279.184 412.07C278.866 411.728 278.622 411.323 278.451 410.854C278.28 410.385 278.195 409.873 278.195 409.316V409.008C278.195 408.364 278.29 407.79 278.48 407.287C278.671 406.779 278.93 406.35 279.257 405.998C279.584 405.646 279.955 405.38 280.37 405.2C280.785 405.019 281.215 404.929 281.659 404.929C282.226 404.929 282.714 405.026 283.124 405.222C283.539 405.417 283.878 405.69 284.142 406.042C284.406 406.389 284.601 406.799 284.728 407.272C284.855 407.741 284.918 408.254 284.918 408.811V409.418H279V408.312H283.563V408.21C283.544 407.858 283.471 407.517 283.344 407.185C283.222 406.853 283.026 406.579 282.758 406.364C282.489 406.149 282.123 406.042 281.659 406.042C281.352 406.042 281.068 406.108 280.81 406.24C280.551 406.367 280.329 406.557 280.143 406.811C279.958 407.065 279.813 407.375 279.711 407.741C279.608 408.107 279.557 408.53 279.557 409.008V409.316C279.557 409.692 279.608 410.046 279.711 410.378C279.818 410.705 279.972 410.993 280.172 411.242C280.377 411.491 280.624 411.687 280.912 411.828C281.205 411.97 281.537 412.041 281.908 412.041C282.387 412.041 282.792 411.943 283.124 411.748C283.456 411.552 283.747 411.291 283.996 410.964L284.816 411.616C284.645 411.875 284.428 412.121 284.164 412.355C283.9 412.59 283.576 412.78 283.19 412.927C282.809 413.073 282.357 413.146 281.835 413.146ZM287.848 406.65V413H286.486V405.075H287.775L287.848 406.65ZM287.57 408.737L286.94 408.715C286.945 408.173 287.016 407.673 287.152 407.214C287.289 406.75 287.492 406.347 287.76 406.005C288.029 405.664 288.363 405.4 288.764 405.214C289.164 405.024 289.628 404.929 290.155 404.929C290.526 404.929 290.868 404.982 291.181 405.09C291.493 405.192 291.764 405.356 291.994 405.581C292.223 405.805 292.401 406.093 292.528 406.445C292.655 406.796 292.719 407.221 292.719 407.719V413H291.364V407.785C291.364 407.37 291.293 407.038 291.151 406.789C291.015 406.54 290.819 406.359 290.565 406.247C290.312 406.13 290.014 406.071 289.672 406.071C289.271 406.071 288.937 406.142 288.668 406.284C288.4 406.425 288.185 406.621 288.024 406.87C287.863 407.119 287.746 407.404 287.672 407.727C287.604 408.044 287.57 408.381 287.57 408.737ZM292.704 407.99L291.796 408.269C291.801 407.834 291.872 407.417 292.008 407.016C292.15 406.616 292.353 406.259 292.616 405.947C292.885 405.634 293.214 405.388 293.605 405.207C293.996 405.021 294.442 404.929 294.945 404.929C295.37 404.929 295.746 404.985 296.073 405.097C296.405 405.209 296.684 405.383 296.908 405.617C297.138 405.847 297.311 406.142 297.428 406.503C297.545 406.865 297.604 407.294 297.604 407.792V413H296.242V407.778C296.242 407.333 296.171 406.989 296.029 406.745C295.893 406.496 295.697 406.323 295.443 406.225C295.194 406.123 294.896 406.071 294.55 406.071C294.252 406.071 293.988 406.123 293.759 406.225C293.529 406.328 293.336 406.469 293.18 406.65C293.024 406.826 292.904 407.028 292.821 407.258C292.743 407.487 292.704 407.731 292.704 407.99Z" fill="#505050"/>
<rect x="220.5" y="432.5" width="247" height="39" rx="7.5" fill="white"/>
<path d="M241.178 446.336V457H239.787V446.336H241.178ZM244.606 446.336V447.493H236.366V446.336H244.606ZM246.781 450.32V457H245.426V449.075H246.745L246.781 450.32ZM249.257 449.031L249.25 450.291C249.137 450.267 249.03 450.252 248.927 450.247C248.83 450.237 248.717 450.232 248.59 450.232C248.278 450.232 248.002 450.281 247.763 450.379C247.523 450.477 247.321 450.613 247.155 450.789C246.989 450.965 246.857 451.175 246.759 451.419C246.667 451.658 246.605 451.922 246.576 452.21L246.195 452.43C246.195 451.951 246.242 451.502 246.334 451.082C246.432 450.662 246.581 450.291 246.781 449.969C246.981 449.642 247.235 449.388 247.543 449.207C247.855 449.021 248.227 448.929 248.656 448.929C248.754 448.929 248.866 448.941 248.993 448.965C249.12 448.985 249.208 449.007 249.257 449.031ZM253.651 457.146C253.1 457.146 252.599 457.054 252.15 456.868C251.706 456.678 251.322 456.412 251 456.07C250.683 455.728 250.438 455.323 250.268 454.854C250.097 454.385 250.011 453.873 250.011 453.316V453.008C250.011 452.364 250.106 451.79 250.297 451.287C250.487 450.779 250.746 450.35 251.073 449.998C251.4 449.646 251.771 449.38 252.187 449.2C252.602 449.019 253.031 448.929 253.476 448.929C254.042 448.929 254.53 449.026 254.94 449.222C255.355 449.417 255.695 449.69 255.958 450.042C256.222 450.389 256.417 450.799 256.544 451.272C256.671 451.741 256.735 452.254 256.735 452.811V453.418H250.817V452.312H255.38V452.21C255.36 451.858 255.287 451.517 255.16 451.185C255.038 450.853 254.843 450.579 254.574 450.364C254.306 450.149 253.939 450.042 253.476 450.042C253.168 450.042 252.885 450.108 252.626 450.24C252.367 450.367 252.145 450.557 251.959 450.811C251.774 451.065 251.63 451.375 251.527 451.741C251.425 452.107 251.374 452.53 251.374 453.008V453.316C251.374 453.692 251.425 454.046 251.527 454.378C251.635 454.705 251.789 454.993 251.989 455.242C252.194 455.491 252.44 455.687 252.729 455.828C253.021 455.97 253.354 456.041 253.725 456.041C254.203 456.041 254.608 455.943 254.94 455.748C255.272 455.552 255.563 455.291 255.812 454.964L256.632 455.616C256.461 455.875 256.244 456.121 255.98 456.355C255.717 456.59 255.392 456.78 255.006 456.927C254.625 457.073 254.174 457.146 253.651 457.146ZM261.605 457.146C261.054 457.146 260.553 457.054 260.104 456.868C259.66 456.678 259.276 456.412 258.954 456.07C258.637 455.728 258.393 455.323 258.222 454.854C258.051 454.385 257.965 453.873 257.965 453.316V453.008C257.965 452.364 258.061 451.79 258.251 451.287C258.441 450.779 258.7 450.35 259.027 449.998C259.354 449.646 259.726 449.38 260.141 449.2C260.556 449.019 260.985 448.929 261.43 448.929C261.996 448.929 262.484 449.026 262.895 449.222C263.31 449.417 263.649 449.69 263.913 450.042C264.176 450.389 264.372 450.799 264.499 451.272C264.625 451.741 264.689 452.254 264.689 452.811V453.418H258.771V452.312H263.334V452.21C263.314 451.858 263.241 451.517 263.114 451.185C262.992 450.853 262.797 450.579 262.528 450.364C262.26 450.149 261.894 450.042 261.43 450.042C261.122 450.042 260.839 450.108 260.58 450.24C260.321 450.367 260.099 450.557 259.914 450.811C259.728 451.065 259.584 451.375 259.481 451.741C259.379 452.107 259.328 452.53 259.328 453.008V453.316C259.328 453.692 259.379 454.046 259.481 454.378C259.589 454.705 259.743 454.993 259.943 455.242C260.148 455.491 260.395 455.687 260.683 455.828C260.976 455.97 261.308 456.041 261.679 456.041C262.157 456.041 262.562 455.943 262.895 455.748C263.227 455.552 263.517 455.291 263.766 454.964L264.586 455.616C264.416 455.875 264.198 456.121 263.935 456.355C263.671 456.59 263.346 456.78 262.96 456.927C262.58 457.073 262.128 457.146 261.605 457.146ZM271.464 449.075V457H270.102V449.075H271.464ZM269.999 446.973C269.999 446.753 270.065 446.568 270.197 446.417C270.333 446.265 270.534 446.189 270.797 446.189C271.056 446.189 271.254 446.265 271.391 446.417C271.532 446.568 271.603 446.753 271.603 446.973C271.603 447.183 271.532 447.364 271.391 447.515C271.254 447.662 271.056 447.735 270.797 447.735C270.534 447.735 270.333 447.662 270.197 447.515C270.065 447.364 269.999 447.183 269.999 446.973ZM276.957 449.075V450.115H272.672V449.075H276.957ZM274.123 447.149H275.478V455.037C275.478 455.306 275.519 455.508 275.602 455.645C275.685 455.782 275.792 455.872 275.924 455.916C276.056 455.96 276.198 455.982 276.349 455.982C276.461 455.982 276.579 455.972 276.701 455.953C276.828 455.928 276.923 455.909 276.986 455.894L276.994 457C276.886 457.034 276.745 457.066 276.569 457.095C276.398 457.129 276.19 457.146 275.946 457.146C275.614 457.146 275.309 457.081 275.031 456.949C274.752 456.817 274.53 456.597 274.364 456.29C274.203 455.977 274.123 455.557 274.123 455.03V447.149ZM281.835 457.146C281.283 457.146 280.783 457.054 280.333 456.868C279.889 456.678 279.506 456.412 279.184 456.07C278.866 455.728 278.622 455.323 278.451 454.854C278.28 454.385 278.195 453.873 278.195 453.316V453.008C278.195 452.364 278.29 451.79 278.48 451.287C278.671 450.779 278.93 450.35 279.257 449.998C279.584 449.646 279.955 449.38 280.37 449.2C280.785 449.019 281.215 448.929 281.659 448.929C282.226 448.929 282.714 449.026 283.124 449.222C283.539 449.417 283.878 449.69 284.142 450.042C284.406 450.389 284.601 450.799 284.728 451.272C284.855 451.741 284.918 452.254 284.918 452.811V453.418H279V452.312H283.563V452.21C283.544 451.858 283.471 451.517 283.344 451.185C283.222 450.853 283.026 450.579 282.758 450.364C282.489 450.149 282.123 450.042 281.659 450.042C281.352 450.042 281.068 450.108 280.81 450.24C280.551 450.367 280.329 450.557 280.143 450.811C279.958 451.065 279.813 451.375 279.711 451.741C279.608 452.107 279.557 452.53 279.557 453.008V453.316C279.557 453.692 279.608 454.046 279.711 454.378C279.818 454.705 279.972 454.993 280.172 455.242C280.377 455.491 280.624 455.687 280.912 455.828C281.205 455.97 281.537 456.041 281.908 456.041C282.387 456.041 282.792 455.943 283.124 455.748C283.456 455.552 283.747 455.291 283.996 454.964L284.816 455.616C284.645 455.875 284.428 456.121 284.164 456.355C283.9 456.59 283.576 456.78 283.19 456.927C282.809 457.073 282.357 457.146 281.835 457.146ZM287.848 450.65V457H286.486V449.075H287.775L287.848 450.65ZM287.57 452.737L286.94 452.715C286.945 452.173 287.016 451.673 287.152 451.214C287.289 450.75 287.492 450.347 287.76 450.005C288.029 449.664 288.363 449.4 288.764 449.214C289.164 449.024 289.628 448.929 290.155 448.929C290.526 448.929 290.868 448.982 291.181 449.09C291.493 449.192 291.764 449.356 291.994 449.581C292.223 449.805 292.401 450.093 292.528 450.445C292.655 450.796 292.719 451.221 292.719 451.719V457H291.364V451.785C291.364 451.37 291.293 451.038 291.151 450.789C291.015 450.54 290.819 450.359 290.565 450.247C290.312 450.13 290.014 450.071 289.672 450.071C289.271 450.071 288.937 450.142 288.668 450.284C288.4 450.425 288.185 450.621 288.024 450.87C287.863 451.119 287.746 451.404 287.672 451.727C287.604 452.044 287.57 452.381 287.57 452.737ZM292.704 451.99L291.796 452.269C291.801 451.834 291.872 451.417 292.008 451.016C292.15 450.616 292.353 450.259 292.616 449.947C292.885 449.634 293.214 449.388 293.605 449.207C293.996 449.021 294.442 448.929 294.945 448.929C295.37 448.929 295.746 448.985 296.073 449.097C296.405 449.209 296.684 449.383 296.908 449.617C297.138 449.847 297.311 450.142 297.428 450.503C297.545 450.865 297.604 451.294 297.604 451.792V457H296.242V451.778C296.242 451.333 296.171 450.989 296.029 450.745C295.893 450.496 295.697 450.323 295.443 450.225C295.194 450.123 294.896 450.071 294.55 450.071C294.252 450.071 293.988 450.123 293.759 450.225C293.529 450.328 293.336 450.469 293.18 450.65C293.024 450.826 292.904 451.028 292.821 451.258C292.743 451.487 292.704 451.731 292.704 451.99Z" fill="#505050"/>
<rect x="220.5" y="432.5" width="247" height="39" rx="7.5" stroke="#0059FF" stroke-dasharray="2 2"/>
<rect x="172.5" y="212.5" width="295" height="259" stroke="#0059FF" stroke-dasharray="2 2"/>
<rect x="172" y="476" width="296" height="40" rx="8" fill="white"/>
<path d="M189.75 501C189.547 501 189.367 500.933 189.211 500.799C189.07 500.65 189 500.479 189 500.286C189 500.092 189.07 499.921 189.211 499.772L193.195 496L189.211 492.228C189.07 492.079 189 491.908 189 491.714C189 491.521 189.07 491.35 189.211 491.201C189.367 491.067 189.547 491 189.75 491C189.953 491 190.133 491.067 190.289 491.201L194.789 495.487C194.93 495.635 195 495.807 195 496C195 496.193 194.93 496.365 194.789 496.513L190.289 500.799C190.133 500.933 189.953 501 189.75 501Z" fill="#737373"/>
<path d="M217.178 490.336V501H215.787V490.336H217.178ZM220.606 490.336V491.493H212.366V490.336H220.606ZM222.781 494.32V501H221.426V493.075H222.745L222.781 494.32ZM225.257 493.031L225.25 494.291C225.137 494.267 225.03 494.252 224.927 494.247C224.83 494.237 224.717 494.232 224.59 494.232C224.278 494.232 224.002 494.281 223.763 494.379C223.523 494.477 223.321 494.613 223.155 494.789C222.989 494.965 222.857 495.175 222.759 495.419C222.667 495.658 222.605 495.922 222.576 496.21L222.195 496.43C222.195 495.951 222.242 495.502 222.334 495.082C222.432 494.662 222.581 494.291 222.781 493.969C222.981 493.642 223.235 493.388 223.543 493.207C223.855 493.021 224.227 492.929 224.656 492.929C224.754 492.929 224.866 492.941 224.993 492.965C225.12 492.985 225.208 493.007 225.257 493.031ZM229.651 501.146C229.1 501.146 228.599 501.054 228.15 500.868C227.706 500.678 227.322 500.412 227 500.07C226.683 499.728 226.438 499.323 226.268 498.854C226.097 498.385 226.011 497.873 226.011 497.316V497.008C226.011 496.364 226.106 495.79 226.297 495.287C226.487 494.779 226.746 494.35 227.073 493.998C227.4 493.646 227.771 493.38 228.187 493.2C228.602 493.019 229.031 492.929 229.476 492.929C230.042 492.929 230.53 493.026 230.94 493.222C231.355 493.417 231.695 493.69 231.958 494.042C232.222 494.389 232.417 494.799 232.544 495.272C232.671 495.741 232.735 496.254 232.735 496.811V497.418H226.817V496.312H231.38V496.21C231.36 495.858 231.287 495.517 231.16 495.185C231.038 494.853 230.843 494.579 230.574 494.364C230.306 494.149 229.939 494.042 229.476 494.042C229.168 494.042 228.885 494.108 228.626 494.24C228.367 494.367 228.145 494.557 227.959 494.811C227.774 495.065 227.63 495.375 227.527 495.741C227.425 496.107 227.374 496.53 227.374 497.008V497.316C227.374 497.692 227.425 498.046 227.527 498.378C227.635 498.705 227.789 498.993 227.989 499.242C228.194 499.491 228.44 499.687 228.729 499.828C229.021 499.97 229.354 500.041 229.725 500.041C230.203 500.041 230.608 499.943 230.94 499.748C231.272 499.552 231.563 499.291 231.812 498.964L232.632 499.616C232.461 499.875 232.244 500.121 231.98 500.355C231.717 500.59 231.392 500.78 231.006 500.927C230.625 501.073 230.174 501.146 229.651 501.146ZM237.605 501.146C237.054 501.146 236.553 501.054 236.104 500.868C235.66 500.678 235.276 500.412 234.954 500.07C234.637 499.728 234.393 499.323 234.222 498.854C234.051 498.385 233.965 497.873 233.965 497.316V497.008C233.965 496.364 234.061 495.79 234.251 495.287C234.441 494.779 234.7 494.35 235.027 493.998C235.354 493.646 235.726 493.38 236.141 493.2C236.556 493.019 236.985 492.929 237.43 492.929C237.996 492.929 238.484 493.026 238.895 493.222C239.31 493.417 239.649 493.69 239.913 494.042C240.176 494.389 240.372 494.799 240.499 495.272C240.625 495.741 240.689 496.254 240.689 496.811V497.418H234.771V496.312H239.334V496.21C239.314 495.858 239.241 495.517 239.114 495.185C238.992 494.853 238.797 494.579 238.528 494.364C238.26 494.149 237.894 494.042 237.43 494.042C237.122 494.042 236.839 494.108 236.58 494.24C236.321 494.367 236.099 494.557 235.914 494.811C235.728 495.065 235.584 495.375 235.481 495.741C235.379 496.107 235.328 496.53 235.328 497.008V497.316C235.328 497.692 235.379 498.046 235.481 498.378C235.589 498.705 235.743 498.993 235.943 499.242C236.148 499.491 236.395 499.687 236.683 499.828C236.976 499.97 237.308 500.041 237.679 500.041C238.157 500.041 238.562 499.943 238.895 499.748C239.227 499.552 239.517 499.291 239.766 498.964L240.586 499.616C240.416 499.875 240.198 500.121 239.935 500.355C239.671 500.59 239.346 500.78 238.96 500.927C238.58 501.073 238.128 501.146 237.605 501.146ZM247.464 493.075V501H246.102V493.075H247.464ZM245.999 490.973C245.999 490.753 246.065 490.568 246.197 490.417C246.333 490.265 246.534 490.189 246.797 490.189C247.056 490.189 247.254 490.265 247.391 490.417C247.532 490.568 247.603 490.753 247.603 490.973C247.603 491.183 247.532 491.364 247.391 491.515C247.254 491.662 247.056 491.735 246.797 491.735C246.534 491.735 246.333 491.662 246.197 491.515C246.065 491.364 245.999 491.183 245.999 490.973ZM252.957 493.075V494.115H248.672V493.075H252.957ZM250.123 491.149H251.478V499.037C251.478 499.306 251.519 499.508 251.602 499.645C251.685 499.782 251.792 499.872 251.924 499.916C252.056 499.96 252.198 499.982 252.349 499.982C252.461 499.982 252.579 499.972 252.701 499.953C252.828 499.928 252.923 499.909 252.986 499.894L252.994 501C252.886 501.034 252.745 501.066 252.569 501.095C252.398 501.129 252.19 501.146 251.946 501.146C251.614 501.146 251.309 501.081 251.031 500.949C250.752 500.817 250.53 500.597 250.364 500.29C250.203 499.977 250.123 499.557 250.123 499.03V491.149ZM257.835 501.146C257.283 501.146 256.783 501.054 256.333 500.868C255.889 500.678 255.506 500.412 255.184 500.07C254.866 499.728 254.622 499.323 254.451 498.854C254.28 498.385 254.195 497.873 254.195 497.316V497.008C254.195 496.364 254.29 495.79 254.48 495.287C254.671 494.779 254.93 494.35 255.257 493.998C255.584 493.646 255.955 493.38 256.37 493.2C256.785 493.019 257.215 492.929 257.659 492.929C258.226 492.929 258.714 493.026 259.124 493.222C259.539 493.417 259.878 493.69 260.142 494.042C260.406 494.389 260.601 494.799 260.728 495.272C260.855 495.741 260.918 496.254 260.918 496.811V497.418H255V496.312H259.563V496.21C259.544 495.858 259.471 495.517 259.344 495.185C259.222 494.853 259.026 494.579 258.758 494.364C258.489 494.149 258.123 494.042 257.659 494.042C257.352 494.042 257.068 494.108 256.81 494.24C256.551 494.367 256.329 494.557 256.143 494.811C255.958 495.065 255.813 495.375 255.711 495.741C255.608 496.107 255.557 496.53 255.557 497.008V497.316C255.557 497.692 255.608 498.046 255.711 498.378C255.818 498.705 255.972 498.993 256.172 499.242C256.377 499.491 256.624 499.687 256.912 499.828C257.205 499.97 257.537 500.041 257.908 500.041C258.387 500.041 258.792 499.943 259.124 499.748C259.456 499.552 259.747 499.291 259.996 498.964L260.816 499.616C260.645 499.875 260.428 500.121 260.164 500.355C259.9 500.59 259.576 500.78 259.19 500.927C258.809 501.073 258.357 501.146 257.835 501.146ZM263.848 494.65V501H262.486V493.075H263.775L263.848 494.65ZM263.57 496.737L262.94 496.715C262.945 496.173 263.016 495.673 263.152 495.214C263.289 494.75 263.492 494.347 263.76 494.005C264.029 493.664 264.363 493.4 264.764 493.214C265.164 493.024 265.628 492.929 266.155 492.929C266.526 492.929 266.868 492.982 267.181 493.09C267.493 493.192 267.764 493.356 267.994 493.581C268.223 493.805 268.401 494.093 268.528 494.445C268.655 494.796 268.719 495.221 268.719 495.719V501H267.364V495.785C267.364 495.37 267.293 495.038 267.151 494.789C267.015 494.54 266.819 494.359 266.565 494.247C266.312 494.13 266.014 494.071 265.672 494.071C265.271 494.071 264.937 494.142 264.668 494.284C264.4 494.425 264.185 494.621 264.024 494.87C263.863 495.119 263.746 495.404 263.672 495.727C263.604 496.044 263.57 496.381 263.57 496.737ZM268.704 495.99L267.796 496.269C267.801 495.834 267.872 495.417 268.008 495.016C268.15 494.616 268.353 494.259 268.616 493.947C268.885 493.634 269.214 493.388 269.605 493.207C269.996 493.021 270.442 492.929 270.945 492.929C271.37 492.929 271.746 492.985 272.073 493.097C272.405 493.209 272.684 493.383 272.908 493.617C273.138 493.847 273.311 494.142 273.428 494.503C273.545 494.865 273.604 495.294 273.604 495.792V501H272.242V495.778C272.242 495.333 272.171 494.989 272.029 494.745C271.893 494.496 271.697 494.323 271.443 494.225C271.194 494.123 270.896 494.071 270.55 494.071C270.252 494.071 269.988 494.123 269.759 494.225C269.529 494.328 269.336 494.469 269.18 494.65C269.024 494.826 268.904 495.028 268.821 495.258C268.743 495.487 268.704 495.731 268.704 495.99Z" fill="#505050"/>
<rect x="148.5" y="100.5" width="343" height="439" rx="15.5" stroke="#0059FF" stroke-dasharray="2 2"/>
<rect x="309" y="52" width="24" height="24" rx="12" fill="#286EF1"/>
<path d="M322.181 58.7261V68H320.651V60.5415L318.385 61.3096V60.0464L321.997 58.7261H322.181Z" fill="white"/>
<line x1="321.5" y1="76" x2="321.5" y2="100" stroke="#0059FF"/>
<rect x="109" y="132" width="24" height="24" rx="12" fill="#286EF1"/>
<path d="M124.199 146.781V148H118.004V146.953L121.013 143.671C121.343 143.299 121.603 142.977 121.793 142.706C121.984 142.435 122.117 142.192 122.193 141.976C122.274 141.756 122.314 141.542 122.314 141.335C122.314 141.043 122.259 140.787 122.149 140.567C122.043 140.343 121.887 140.167 121.679 140.04C121.472 139.909 121.22 139.843 120.924 139.843C120.581 139.843 120.293 139.917 120.061 140.065C119.828 140.214 119.652 140.419 119.534 140.681C119.415 140.939 119.356 141.236 119.356 141.57H117.826C117.826 141.032 117.949 140.542 118.194 140.097C118.44 139.649 118.795 139.293 119.261 139.031C119.726 138.764 120.287 138.631 120.943 138.631C121.561 138.631 122.085 138.735 122.517 138.942C122.949 139.149 123.277 139.443 123.501 139.824C123.729 140.205 123.844 140.656 123.844 141.176C123.844 141.464 123.797 141.75 123.704 142.033C123.611 142.317 123.478 142.6 123.304 142.884C123.135 143.163 122.934 143.444 122.701 143.728C122.468 144.007 122.212 144.291 121.933 144.579L119.934 146.781H124.199Z" fill="white"/>
<line x1="133" y1="143.5" x2="173" y2="143.5" stroke="#0059FF"/>
<rect x="109" y="265" width="24" height="24" rx="12" fill="#286EF1"/>
<path d="M119.8 275.687H120.714C121.07 275.687 121.364 275.626 121.597 275.503C121.834 275.38 122.009 275.211 122.124 274.995C122.238 274.779 122.295 274.532 122.295 274.252C122.295 273.96 122.242 273.711 122.136 273.503C122.035 273.292 121.878 273.129 121.667 273.015C121.459 272.9 121.195 272.843 120.873 272.843C120.602 272.843 120.357 272.898 120.137 273.008C119.921 273.114 119.75 273.266 119.623 273.465C119.496 273.66 119.432 273.893 119.432 274.164H117.896C117.896 273.673 118.025 273.237 118.283 272.856C118.541 272.475 118.893 272.177 119.337 271.961C119.785 271.741 120.289 271.631 120.848 271.631C121.444 271.631 121.965 271.73 122.409 271.929C122.858 272.124 123.207 272.416 123.457 272.805C123.706 273.194 123.831 273.677 123.831 274.252C123.831 274.515 123.77 274.781 123.647 275.052C123.524 275.323 123.342 275.571 123.101 275.795C122.86 276.015 122.559 276.195 122.2 276.334C121.84 276.47 121.423 276.538 120.949 276.538H119.8V275.687ZM119.8 276.88V276.042H120.949C121.491 276.042 121.952 276.106 122.333 276.233C122.718 276.36 123.031 276.535 123.272 276.76C123.514 276.98 123.689 277.232 123.799 277.515C123.914 277.799 123.971 278.099 123.971 278.417C123.971 278.848 123.892 279.233 123.736 279.572C123.583 279.906 123.366 280.19 123.082 280.422C122.799 280.655 122.466 280.831 122.085 280.949C121.709 281.068 121.298 281.127 120.854 281.127C120.456 281.127 120.075 281.072 119.711 280.962C119.347 280.852 119.022 280.689 118.734 280.473C118.446 280.253 118.218 279.98 118.048 279.654C117.883 279.324 117.801 278.943 117.801 278.512H119.331C119.331 278.787 119.394 279.03 119.521 279.242C119.652 279.449 119.834 279.612 120.067 279.73C120.304 279.849 120.575 279.908 120.879 279.908C121.201 279.908 121.478 279.851 121.711 279.737C121.944 279.623 122.121 279.453 122.244 279.229C122.371 279.005 122.435 278.734 122.435 278.417C122.435 278.057 122.365 277.765 122.225 277.541C122.085 277.316 121.887 277.151 121.628 277.045C121.37 276.935 121.066 276.88 120.714 276.88H119.8Z" fill="white"/>
<line x1="133" y1="276.5" x2="173" y2="276.5" stroke="#0059FF"/>
<rect x="109" y="440" width="24" height="24" rx="12" fill="#286EF1"/>
<path d="M124.371 452.706V453.924H117.706L117.655 453.004L121.641 446.758H122.866L121.54 449.03L119.248 452.706H124.371ZM123.215 446.758V456H121.686V446.758H123.215Z" fill="white"/>
<line x1="133" y1="451.5" x2="221" y2="451.5" stroke="#0059FF"/>
</svg>
