<svg width="640" height="640" viewBox="0 0 640 640" fill="none" xmlns="http://www.w3.org/2000/svg">
<rect width="640" height="640" rx="16" fill="#F7F7F7"/>
<rect x="162" y="208" width="320" height="40" rx="8" fill="white"/>
<path d="M179.75 233C179.547 233 179.367 232.933 179.211 232.799C179.07 232.65 179 232.479 179 232.286C179 232.092 179.07 231.921 179.211 231.772L183.195 228L179.211 224.228C179.07 224.079 179 223.908 179 223.714C179 223.521 179.07 223.35 179.211 223.201C179.367 223.067 179.547 223 179.75 223C179.953 223 180.133 223.067 180.289 223.201L184.789 227.487C184.93 227.635 185 227.807 185 228C185 228.193 184.93 228.365 184.789 228.513L180.289 232.799C180.133 232.933 179.953 233 179.75 233Z" fill="#737373"/>
<rect x="202.5" y="218.5" width="19" height="19" rx="3.5" fill="white"/>
<rect x="202.5" y="218.5" width="19" height="19" rx="3.5" stroke="#AAAAAA"/>
<path d="M247.25 223.714H242.544L241.199 222.502C240.871 222.181 240.428 222 239.963 222H236.75C235.783 222 235 222.768 235 223.714V232.286C235 233.232 235.783 234 236.75 234H247.25C248.217 234 249 233.232 249 232.286V225.429C249 224.483 248.215 223.714 247.25 223.714ZM236.75 223.286H239.963C240.08 223.286 240.19 223.33 240.272 223.411L242 225H247.25C247.491 225 247.688 225.192 247.688 225.429V226.286H236.312V223.714C236.312 223.478 236.509 223.286 236.75 223.286ZM247.25 232.714H236.75C236.509 232.714 236.312 232.522 236.312 232.286V227.571H247.688V232.286C247.688 232.521 247.491 232.714 247.25 232.714Z" fill="#737373"/>
<path d="M263.178 222.336V233H261.787V222.336H263.178ZM266.606 222.336V223.493H258.366V222.336H266.606ZM268.781 226.32V233H267.426V225.075H268.745L268.781 226.32ZM271.257 225.031L271.25 226.291C271.137 226.267 271.03 226.252 270.927 226.247C270.83 226.237 270.717 226.232 270.59 226.232C270.278 226.232 270.002 226.281 269.763 226.379C269.523 226.477 269.321 226.613 269.155 226.789C268.989 226.965 268.857 227.175 268.759 227.419C268.667 227.658 268.605 227.922 268.576 228.21L268.195 228.43C268.195 227.951 268.242 227.502 268.334 227.082C268.432 226.662 268.581 226.291 268.781 225.969C268.981 225.642 269.235 225.388 269.543 225.207C269.855 225.021 270.227 224.929 270.656 224.929C270.754 224.929 270.866 224.941 270.993 224.965C271.12 224.985 271.208 225.007 271.257 225.031ZM275.651 233.146C275.1 233.146 274.599 233.054 274.15 232.868C273.706 232.678 273.322 232.412 273 232.07C272.683 231.728 272.438 231.323 272.268 230.854C272.097 230.385 272.011 229.873 272.011 229.316V229.008C272.011 228.364 272.106 227.79 272.297 227.287C272.487 226.779 272.746 226.35 273.073 225.998C273.4 225.646 273.771 225.38 274.187 225.2C274.602 225.019 275.031 224.929 275.476 224.929C276.042 224.929 276.53 225.026 276.94 225.222C277.355 225.417 277.695 225.69 277.958 226.042C278.222 226.389 278.417 226.799 278.544 227.272C278.671 227.741 278.735 228.254 278.735 228.811V229.418H272.817V228.312H277.38V228.21C277.36 227.858 277.287 227.517 277.16 227.185C277.038 226.853 276.843 226.579 276.574 226.364C276.306 226.149 275.939 226.042 275.476 226.042C275.168 226.042 274.885 226.108 274.626 226.24C274.367 226.367 274.145 226.557 273.959 226.811C273.774 227.065 273.63 227.375 273.527 227.741C273.425 228.107 273.374 228.53 273.374 229.008V229.316C273.374 229.692 273.425 230.046 273.527 230.378C273.635 230.705 273.789 230.993 273.989 231.242C274.194 231.491 274.44 231.687 274.729 231.828C275.021 231.97 275.354 232.041 275.725 232.041C276.203 232.041 276.608 231.943 276.94 231.748C277.272 231.552 277.563 231.291 277.812 230.964L278.632 231.616C278.461 231.875 278.244 232.121 277.98 232.355C277.717 232.59 277.392 232.78 277.006 232.927C276.625 233.073 276.174 233.146 275.651 233.146ZM283.605 233.146C283.054 233.146 282.553 233.054 282.104 232.868C281.66 232.678 281.276 232.412 280.954 232.07C280.637 231.728 280.393 231.323 280.222 230.854C280.051 230.385 279.965 229.873 279.965 229.316V229.008C279.965 228.364 280.061 227.79 280.251 227.287C280.441 226.779 280.7 226.35 281.027 225.998C281.354 225.646 281.726 225.38 282.141 225.2C282.556 225.019 282.985 224.929 283.43 224.929C283.996 224.929 284.484 225.026 284.895 225.222C285.31 225.417 285.649 225.69 285.913 226.042C286.176 226.389 286.372 226.799 286.499 227.272C286.625 227.741 286.689 228.254 286.689 228.811V229.418H280.771V228.312H285.334V228.21C285.314 227.858 285.241 227.517 285.114 227.185C284.992 226.853 284.797 226.579 284.528 226.364C284.26 226.149 283.894 226.042 283.43 226.042C283.122 226.042 282.839 226.108 282.58 226.24C282.321 226.367 282.099 226.557 281.914 226.811C281.728 227.065 281.584 227.375 281.481 227.741C281.379 228.107 281.328 228.53 281.328 229.008V229.316C281.328 229.692 281.379 230.046 281.481 230.378C281.589 230.705 281.743 230.993 281.943 231.242C282.148 231.491 282.395 231.687 282.683 231.828C282.976 231.97 283.308 232.041 283.679 232.041C284.157 232.041 284.562 231.943 284.895 231.748C285.227 231.552 285.517 231.291 285.766 230.964L286.586 231.616C286.416 231.875 286.198 232.121 285.935 232.355C285.671 232.59 285.346 232.78 284.96 232.927C284.58 233.073 284.128 233.146 283.605 233.146ZM293.464 225.075V233H292.102V225.075H293.464ZM291.999 222.973C291.999 222.753 292.065 222.568 292.197 222.417C292.333 222.265 292.534 222.189 292.797 222.189C293.056 222.189 293.254 222.265 293.391 222.417C293.532 222.568 293.603 222.753 293.603 222.973C293.603 223.183 293.532 223.364 293.391 223.515C293.254 223.662 293.056 223.735 292.797 223.735C292.534 223.735 292.333 223.662 292.197 223.515C292.065 223.364 291.999 223.183 291.999 222.973ZM298.957 225.075V226.115H294.672V225.075H298.957ZM296.123 223.149H297.478V231.037C297.478 231.306 297.519 231.508 297.602 231.645C297.685 231.782 297.792 231.872 297.924 231.916C298.056 231.96 298.198 231.982 298.349 231.982C298.461 231.982 298.579 231.972 298.701 231.953C298.828 231.928 298.923 231.909 298.986 231.894L298.994 233C298.886 233.034 298.745 233.066 298.569 233.095C298.398 233.129 298.19 233.146 297.946 233.146C297.614 233.146 297.309 233.081 297.031 232.949C296.752 232.817 296.53 232.597 296.364 232.29C296.203 231.977 296.123 231.557 296.123 231.03V223.149ZM303.835 233.146C303.283 233.146 302.783 233.054 302.333 232.868C301.889 232.678 301.506 232.412 301.184 232.07C300.866 231.728 300.622 231.323 300.451 230.854C300.28 230.385 300.195 229.873 300.195 229.316V229.008C300.195 228.364 300.29 227.79 300.48 227.287C300.671 226.779 300.93 226.35 301.257 225.998C301.584 225.646 301.955 225.38 302.37 225.2C302.785 225.019 303.215 224.929 303.659 224.929C304.226 224.929 304.714 225.026 305.124 225.222C305.539 225.417 305.878 225.69 306.142 226.042C306.406 226.389 306.601 226.799 306.728 227.272C306.855 227.741 306.918 228.254 306.918 228.811V229.418H301V228.312H305.563V228.21C305.544 227.858 305.471 227.517 305.344 227.185C305.222 226.853 305.026 226.579 304.758 226.364C304.489 226.149 304.123 226.042 303.659 226.042C303.352 226.042 303.068 226.108 302.81 226.24C302.551 226.367 302.329 226.557 302.143 226.811C301.958 227.065 301.813 227.375 301.711 227.741C301.608 228.107 301.557 228.53 301.557 229.008V229.316C301.557 229.692 301.608 230.046 301.711 230.378C301.818 230.705 301.972 230.993 302.172 231.242C302.377 231.491 302.624 231.687 302.912 231.828C303.205 231.97 303.537 232.041 303.908 232.041C304.387 232.041 304.792 231.943 305.124 231.748C305.456 231.552 305.747 231.291 305.996 230.964L306.816 231.616C306.645 231.875 306.428 232.121 306.164 232.355C305.9 232.59 305.576 232.78 305.19 232.927C304.809 233.073 304.357 233.146 303.835 233.146ZM309.848 226.65V233H308.486V225.075H309.775L309.848 226.65ZM309.57 228.737L308.94 228.715C308.945 228.173 309.016 227.673 309.152 227.214C309.289 226.75 309.492 226.347 309.76 226.005C310.029 225.664 310.363 225.4 310.764 225.214C311.164 225.024 311.628 224.929 312.155 224.929C312.526 224.929 312.868 224.982 313.181 225.09C313.493 225.192 313.764 225.356 313.994 225.581C314.223 225.805 314.401 226.093 314.528 226.445C314.655 226.796 314.719 227.221 314.719 227.719V233H313.364V227.785C313.364 227.37 313.293 227.038 313.151 226.789C313.015 226.54 312.819 226.359 312.565 226.247C312.312 226.13 312.014 226.071 311.672 226.071C311.271 226.071 310.937 226.142 310.668 226.284C310.4 226.425 310.185 226.621 310.024 226.87C309.863 227.119 309.746 227.404 309.672 227.727C309.604 228.044 309.57 228.381 309.57 228.737ZM314.704 227.99L313.796 228.269C313.801 227.834 313.872 227.417 314.008 227.016C314.15 226.616 314.353 226.259 314.616 225.947C314.885 225.634 315.214 225.388 315.605 225.207C315.996 225.021 316.442 224.929 316.945 224.929C317.37 224.929 317.746 224.985 318.073 225.097C318.405 225.209 318.684 225.383 318.908 225.617C319.138 225.847 319.311 226.142 319.428 226.503C319.545 226.865 319.604 227.294 319.604 227.792V233H318.242V227.778C318.242 227.333 318.171 226.989 318.029 226.745C317.893 226.496 317.697 226.323 317.443 226.225C317.194 226.123 316.896 226.071 316.55 226.071C316.252 226.071 315.988 226.123 315.759 226.225C315.529 226.328 315.336 226.469 315.18 226.65C315.024 226.826 314.904 227.028 314.821 227.258C314.743 227.487 314.704 227.731 314.704 227.99Z" fill="#505050"/>
<rect x="162" y="358" width="320" height="40" rx="8" fill="white"/>
<path d="M179.75 383C179.547 383 179.367 382.933 179.211 382.799C179.07 382.65 179 382.479 179 382.286C179 382.092 179.07 381.921 179.211 381.772L183.195 378L179.211 374.228C179.07 374.079 179 373.908 179 373.714C179 373.521 179.07 373.35 179.211 373.201C179.367 373.067 179.547 373 179.75 373C179.953 373 180.133 373.067 180.289 373.201L184.789 377.487C184.93 377.635 185 377.807 185 378C185 378.193 184.93 378.365 184.789 378.513L180.289 382.799C180.133 382.933 179.953 383 179.75 383Z" fill="#737373"/>
<rect x="202.5" y="368.5" width="19" height="19" rx="3.5" fill="white"/>
<rect x="202.5" y="368.5" width="19" height="19" rx="3.5" stroke="#AAAAAA"/>
<path d="M247.25 373.714H242.544L241.199 372.502C240.871 372.181 240.428 372 239.963 372H236.75C235.783 372 235 372.768 235 373.714V382.286C235 383.232 235.783 384 236.75 384H247.25C248.217 384 249 383.232 249 382.286V375.429C249 374.483 248.215 373.714 247.25 373.714ZM236.75 373.286H239.963C240.08 373.286 240.19 373.33 240.272 373.411L242 375H247.25C247.491 375 247.688 375.192 247.688 375.429V376.286H236.312V373.714C236.312 373.478 236.509 373.286 236.75 373.286ZM247.25 382.714H236.75C236.509 382.714 236.312 382.522 236.312 382.286V377.571H247.688V382.286C247.688 382.521 247.491 382.714 247.25 382.714Z" fill="#737373"/>
<path d="M263.178 372.336V383H261.787V372.336H263.178ZM266.606 372.336V373.493H258.366V372.336H266.606ZM268.781 376.32V383H267.426V375.075H268.745L268.781 376.32ZM271.257 375.031L271.25 376.291C271.137 376.267 271.03 376.252 270.927 376.247C270.83 376.237 270.717 376.232 270.59 376.232C270.278 376.232 270.002 376.281 269.763 376.379C269.523 376.477 269.321 376.613 269.155 376.789C268.989 376.965 268.857 377.175 268.759 377.419C268.667 377.658 268.605 377.922 268.576 378.21L268.195 378.43C268.195 377.951 268.242 377.502 268.334 377.082C268.432 376.662 268.581 376.291 268.781 375.969C268.981 375.642 269.235 375.388 269.543 375.207C269.855 375.021 270.227 374.929 270.656 374.929C270.754 374.929 270.866 374.941 270.993 374.965C271.12 374.985 271.208 375.007 271.257 375.031ZM275.651 383.146C275.1 383.146 274.599 383.054 274.15 382.868C273.706 382.678 273.322 382.412 273 382.07C272.683 381.728 272.438 381.323 272.268 380.854C272.097 380.385 272.011 379.873 272.011 379.316V379.008C272.011 378.364 272.106 377.79 272.297 377.287C272.487 376.779 272.746 376.35 273.073 375.998C273.4 375.646 273.771 375.38 274.187 375.2C274.602 375.019 275.031 374.929 275.476 374.929C276.042 374.929 276.53 375.026 276.94 375.222C277.355 375.417 277.695 375.69 277.958 376.042C278.222 376.389 278.417 376.799 278.544 377.272C278.671 377.741 278.735 378.254 278.735 378.811V379.418H272.817V378.312H277.38V378.21C277.36 377.858 277.287 377.517 277.16 377.185C277.038 376.853 276.843 376.579 276.574 376.364C276.306 376.149 275.939 376.042 275.476 376.042C275.168 376.042 274.885 376.108 274.626 376.24C274.367 376.367 274.145 376.557 273.959 376.811C273.774 377.065 273.63 377.375 273.527 377.741C273.425 378.107 273.374 378.53 273.374 379.008V379.316C273.374 379.692 273.425 380.046 273.527 380.378C273.635 380.705 273.789 380.993 273.989 381.242C274.194 381.491 274.44 381.687 274.729 381.828C275.021 381.97 275.354 382.041 275.725 382.041C276.203 382.041 276.608 381.943 276.94 381.748C277.272 381.552 277.563 381.291 277.812 380.964L278.632 381.616C278.461 381.875 278.244 382.121 277.98 382.355C277.717 382.59 277.392 382.78 277.006 382.927C276.625 383.073 276.174 383.146 275.651 383.146ZM283.605 383.146C283.054 383.146 282.553 383.054 282.104 382.868C281.66 382.678 281.276 382.412 280.954 382.07C280.637 381.728 280.393 381.323 280.222 380.854C280.051 380.385 279.965 379.873 279.965 379.316V379.008C279.965 378.364 280.061 377.79 280.251 377.287C280.441 376.779 280.7 376.35 281.027 375.998C281.354 375.646 281.726 375.38 282.141 375.2C282.556 375.019 282.985 374.929 283.43 374.929C283.996 374.929 284.484 375.026 284.895 375.222C285.31 375.417 285.649 375.69 285.913 376.042C286.176 376.389 286.372 376.799 286.499 377.272C286.625 377.741 286.689 378.254 286.689 378.811V379.418H280.771V378.312H285.334V378.21C285.314 377.858 285.241 377.517 285.114 377.185C284.992 376.853 284.797 376.579 284.528 376.364C284.26 376.149 283.894 376.042 283.43 376.042C283.122 376.042 282.839 376.108 282.58 376.24C282.321 376.367 282.099 376.557 281.914 376.811C281.728 377.065 281.584 377.375 281.481 377.741C281.379 378.107 281.328 378.53 281.328 379.008V379.316C281.328 379.692 281.379 380.046 281.481 380.378C281.589 380.705 281.743 380.993 281.943 381.242C282.148 381.491 282.395 381.687 282.683 381.828C282.976 381.97 283.308 382.041 283.679 382.041C284.157 382.041 284.562 381.943 284.895 381.748C285.227 381.552 285.517 381.291 285.766 380.964L286.586 381.616C286.416 381.875 286.198 382.121 285.935 382.355C285.671 382.59 285.346 382.78 284.96 382.927C284.58 383.073 284.128 383.146 283.605 383.146ZM293.464 375.075V383H292.102V375.075H293.464ZM291.999 372.973C291.999 372.753 292.065 372.568 292.197 372.417C292.333 372.265 292.534 372.189 292.797 372.189C293.056 372.189 293.254 372.265 293.391 372.417C293.532 372.568 293.603 372.753 293.603 372.973C293.603 373.183 293.532 373.364 293.391 373.515C293.254 373.662 293.056 373.735 292.797 373.735C292.534 373.735 292.333 373.662 292.197 373.515C292.065 373.364 291.999 373.183 291.999 372.973ZM298.957 375.075V376.115H294.672V375.075H298.957ZM296.123 373.149H297.478V381.037C297.478 381.306 297.519 381.508 297.602 381.645C297.685 381.782 297.792 381.872 297.924 381.916C298.056 381.96 298.198 381.982 298.349 381.982C298.461 381.982 298.579 381.972 298.701 381.953C298.828 381.928 298.923 381.909 298.986 381.894L298.994 383C298.886 383.034 298.745 383.066 298.569 383.095C298.398 383.129 298.19 383.146 297.946 383.146C297.614 383.146 297.309 383.081 297.031 382.949C296.752 382.817 296.53 382.597 296.364 382.29C296.203 381.977 296.123 381.557 296.123 381.03V373.149ZM303.835 383.146C303.283 383.146 302.783 383.054 302.333 382.868C301.889 382.678 301.506 382.412 301.184 382.07C300.866 381.728 300.622 381.323 300.451 380.854C300.28 380.385 300.195 379.873 300.195 379.316V379.008C300.195 378.364 300.29 377.79 300.48 377.287C300.671 376.779 300.93 376.35 301.257 375.998C301.584 375.646 301.955 375.38 302.37 375.2C302.785 375.019 303.215 374.929 303.659 374.929C304.226 374.929 304.714 375.026 305.124 375.222C305.539 375.417 305.878 375.69 306.142 376.042C306.406 376.389 306.601 376.799 306.728 377.272C306.855 377.741 306.918 378.254 306.918 378.811V379.418H301V378.312H305.563V378.21C305.544 377.858 305.471 377.517 305.344 377.185C305.222 376.853 305.026 376.579 304.758 376.364C304.489 376.149 304.123 376.042 303.659 376.042C303.352 376.042 303.068 376.108 302.81 376.24C302.551 376.367 302.329 376.557 302.143 376.811C301.958 377.065 301.813 377.375 301.711 377.741C301.608 378.107 301.557 378.53 301.557 379.008V379.316C301.557 379.692 301.608 380.046 301.711 380.378C301.818 380.705 301.972 380.993 302.172 381.242C302.377 381.491 302.624 381.687 302.912 381.828C303.205 381.97 303.537 382.041 303.908 382.041C304.387 382.041 304.792 381.943 305.124 381.748C305.456 381.552 305.747 381.291 305.996 380.964L306.816 381.616C306.645 381.875 306.428 382.121 306.164 382.355C305.9 382.59 305.576 382.78 305.19 382.927C304.809 383.073 304.357 383.146 303.835 383.146ZM309.848 376.65V383H308.486V375.075H309.775L309.848 376.65ZM309.57 378.737L308.94 378.715C308.945 378.173 309.016 377.673 309.152 377.214C309.289 376.75 309.492 376.347 309.76 376.005C310.029 375.664 310.363 375.4 310.764 375.214C311.164 375.024 311.628 374.929 312.155 374.929C312.526 374.929 312.868 374.982 313.181 375.09C313.493 375.192 313.764 375.356 313.994 375.581C314.223 375.805 314.401 376.093 314.528 376.445C314.655 376.796 314.719 377.221 314.719 377.719V383H313.364V377.785C313.364 377.37 313.293 377.038 313.151 376.789C313.015 376.54 312.819 376.359 312.565 376.247C312.312 376.13 312.014 376.071 311.672 376.071C311.271 376.071 310.937 376.142 310.668 376.284C310.4 376.425 310.185 376.621 310.024 376.87C309.863 377.119 309.746 377.404 309.672 377.727C309.604 378.044 309.57 378.381 309.57 378.737ZM314.704 377.99L313.796 378.269C313.801 377.834 313.872 377.417 314.008 377.016C314.15 376.616 314.353 376.259 314.616 375.947C314.885 375.634 315.214 375.388 315.605 375.207C315.996 375.021 316.442 374.929 316.945 374.929C317.37 374.929 317.746 374.985 318.073 375.097C318.405 375.209 318.684 375.383 318.908 375.617C319.138 375.847 319.311 376.142 319.428 376.503C319.545 376.865 319.604 377.294 319.604 377.792V383H318.242V377.778C318.242 377.333 318.171 376.989 318.029 376.745C317.893 376.496 317.697 376.323 317.443 376.225C317.194 376.123 316.896 376.071 316.55 376.071C316.252 376.071 315.988 376.123 315.759 376.225C315.529 376.328 315.336 376.469 315.18 376.65C315.024 376.826 314.904 377.028 314.821 377.258C314.743 377.487 314.704 377.731 314.704 377.99Z" fill="#505050"/>
<rect x="159" y="330" width="104" height="16" rx="8" fill="#286EF1"/>
<path d="M172.014 338.642H173.474C173.445 339.12 173.313 339.545 173.078 339.916C172.847 340.287 172.523 340.577 172.107 340.785C171.693 340.993 171.195 341.098 170.612 341.098C170.157 341.098 169.748 341.02 169.387 340.863C169.026 340.704 168.716 340.476 168.459 340.18C168.205 339.883 168.012 339.525 167.878 339.105C167.745 338.686 167.678 338.215 167.678 337.694V337.201C167.678 336.68 167.746 336.21 167.883 335.79C168.023 335.367 168.222 335.007 168.479 334.711C168.739 334.415 169.05 334.187 169.411 334.027C169.773 333.868 170.176 333.788 170.622 333.788C171.215 333.788 171.714 333.896 172.121 334.11C172.531 334.325 172.849 334.621 173.073 334.999C173.301 335.377 173.438 335.806 173.484 336.288H172.019C172.002 336.002 171.946 335.759 171.848 335.561C171.75 335.359 171.602 335.207 171.404 335.106C171.208 335.002 170.948 334.95 170.622 334.95C170.378 334.95 170.165 334.996 169.983 335.087C169.8 335.178 169.647 335.316 169.524 335.502C169.4 335.688 169.307 335.922 169.245 336.205C169.187 336.485 169.157 336.814 169.157 337.191V337.694C169.157 338.062 169.185 338.386 169.24 338.666C169.296 338.943 169.38 339.177 169.494 339.369C169.612 339.558 169.761 339.701 169.944 339.799C170.129 339.893 170.352 339.94 170.612 339.94C170.918 339.94 171.171 339.892 171.369 339.794C171.568 339.696 171.719 339.551 171.823 339.359C171.931 339.167 171.994 338.928 172.014 338.642ZM175.52 333.5V341H174.114V333.5H175.52ZM175.32 338.173H174.934C174.937 337.805 174.986 337.466 175.08 337.157C175.175 336.845 175.31 336.575 175.486 336.347C175.662 336.116 175.871 335.937 176.116 335.81C176.363 335.683 176.636 335.619 176.936 335.619C177.196 335.619 177.432 335.657 177.644 335.731C177.859 335.803 178.043 335.92 178.196 336.083C178.352 336.243 178.472 336.452 178.557 336.713C178.642 336.973 178.684 337.289 178.684 337.66V341H177.268V337.65C177.268 337.416 177.234 337.232 177.165 337.099C177.1 336.962 177.004 336.866 176.877 336.811C176.754 336.752 176.601 336.723 176.418 336.723C176.217 336.723 176.044 336.76 175.901 336.835C175.761 336.91 175.649 337.014 175.564 337.147C175.479 337.278 175.417 337.431 175.378 337.606C175.339 337.782 175.32 337.971 175.32 338.173ZM181.985 341.098C181.575 341.098 181.207 341.033 180.881 340.902C180.556 340.769 180.279 340.585 180.051 340.351C179.827 340.116 179.654 339.844 179.534 339.535C179.413 339.223 179.353 338.891 179.353 338.539V338.344C179.353 337.943 179.41 337.577 179.524 337.245C179.638 336.913 179.801 336.625 180.012 336.381C180.227 336.137 180.488 335.95 180.794 335.819C181.1 335.686 181.445 335.619 181.829 335.619C182.203 335.619 182.535 335.681 182.825 335.805C183.115 335.928 183.357 336.104 183.552 336.332C183.751 336.56 183.901 336.833 184.002 337.152C184.102 337.468 184.153 337.82 184.153 338.207V338.793H179.954V337.855H182.771V337.748C182.771 337.553 182.735 337.379 182.664 337.226C182.595 337.069 182.491 336.946 182.351 336.854C182.211 336.763 182.032 336.718 181.814 336.718C181.629 336.718 181.469 336.758 181.336 336.84C181.202 336.921 181.093 337.035 181.008 337.182C180.927 337.328 180.865 337.501 180.823 337.699C180.784 337.895 180.764 338.109 180.764 338.344V338.539C180.764 338.751 180.794 338.946 180.852 339.125C180.914 339.304 181 339.459 181.111 339.589C181.225 339.719 181.362 339.82 181.521 339.892C181.684 339.963 181.868 339.999 182.073 339.999C182.327 339.999 182.563 339.95 182.781 339.853C183.002 339.752 183.193 339.6 183.352 339.398L184.036 340.141C183.925 340.3 183.774 340.453 183.582 340.6C183.393 340.746 183.165 340.867 182.898 340.961C182.631 341.052 182.327 341.098 181.985 341.098ZM186.936 339.999C187.109 339.999 187.262 339.966 187.395 339.901C187.529 339.833 187.633 339.739 187.708 339.618C187.786 339.494 187.827 339.35 187.83 339.184H189.153C189.15 339.555 189.051 339.885 188.855 340.175C188.66 340.461 188.398 340.688 188.069 340.854C187.74 341.016 187.373 341.098 186.966 341.098C186.555 341.098 186.197 341.029 185.891 340.893C185.589 340.756 185.336 340.567 185.135 340.326C184.933 340.082 184.781 339.799 184.68 339.477C184.58 339.151 184.529 338.803 184.529 338.432V338.29C184.529 337.916 184.58 337.567 184.68 337.245C184.781 336.92 184.933 336.636 185.135 336.396C185.336 336.151 185.589 335.961 185.891 335.824C186.194 335.688 186.549 335.619 186.956 335.619C187.389 335.619 187.768 335.702 188.094 335.868C188.422 336.034 188.679 336.272 188.865 336.581C189.054 336.887 189.15 337.25 189.153 337.67H187.83C187.827 337.494 187.789 337.335 187.718 337.191C187.649 337.048 187.548 336.934 187.415 336.85C187.285 336.762 187.124 336.718 186.931 336.718C186.726 336.718 186.559 336.762 186.429 336.85C186.298 336.934 186.197 337.051 186.126 337.201C186.054 337.348 186.004 337.515 185.974 337.704C185.948 337.89 185.935 338.085 185.935 338.29V338.432C185.935 338.637 185.948 338.834 185.974 339.022C186 339.211 186.049 339.379 186.121 339.525C186.196 339.672 186.298 339.787 186.429 339.872C186.559 339.957 186.728 339.999 186.936 339.999ZM191.175 333.495V341H189.769V333.495H191.175ZM194.505 335.717L192.21 338.334L190.979 339.579L190.467 338.563L191.443 337.323L192.815 335.717H194.505ZM193.045 341L191.482 338.559L192.454 337.709L194.666 341H193.045ZM194.91 333.5H196.317V339.789L196.175 341H194.91V333.5ZM199.661 338.305V338.407C199.661 338.801 199.619 339.162 199.534 339.491C199.453 339.82 199.326 340.105 199.154 340.346C198.981 340.583 198.766 340.769 198.509 340.902C198.255 341.033 197.956 341.098 197.611 341.098C197.288 341.098 197.008 341.033 196.771 340.902C196.536 340.772 196.339 340.588 196.18 340.351C196.02 340.113 195.892 339.835 195.794 339.516C195.696 339.197 195.623 338.848 195.574 338.471V338.246C195.623 337.868 195.696 337.52 195.794 337.201C195.892 336.882 196.02 336.604 196.18 336.366C196.339 336.129 196.536 335.945 196.771 335.814C197.005 335.684 197.282 335.619 197.601 335.619C197.949 335.619 198.252 335.686 198.509 335.819C198.769 335.95 198.984 336.135 199.154 336.376C199.326 336.614 199.453 336.897 199.534 337.226C199.619 337.551 199.661 337.911 199.661 338.305ZM198.255 338.407V338.305C198.255 338.09 198.239 337.888 198.206 337.699C198.177 337.507 198.125 337.34 198.05 337.196C197.975 337.05 197.873 336.934 197.742 336.85C197.615 336.765 197.451 336.723 197.249 336.723C197.057 336.723 196.894 336.755 196.761 336.82C196.627 336.885 196.517 336.977 196.429 337.094C196.344 337.211 196.281 337.351 196.238 337.514C196.196 337.673 196.17 337.849 196.16 338.041V338.681C196.17 338.938 196.212 339.166 196.287 339.364C196.365 339.56 196.483 339.714 196.639 339.828C196.798 339.939 197.005 339.994 197.259 339.994C197.458 339.994 197.622 339.955 197.752 339.877C197.882 339.799 197.983 339.688 198.055 339.545C198.13 339.402 198.182 339.234 198.211 339.042C198.24 338.847 198.255 338.635 198.255 338.407ZM200.111 338.412V338.31C200.111 337.922 200.166 337.566 200.277 337.24C200.387 336.911 200.549 336.627 200.76 336.386C200.972 336.145 201.232 335.958 201.541 335.824C201.851 335.688 202.205 335.619 202.606 335.619C203.006 335.619 203.363 335.688 203.675 335.824C203.988 335.958 204.25 336.145 204.461 336.386C204.676 336.627 204.839 336.911 204.95 337.24C205.06 337.566 205.116 337.922 205.116 338.31V338.412C205.116 338.796 205.06 339.153 204.95 339.481C204.839 339.807 204.676 340.092 204.461 340.336C204.25 340.577 203.989 340.764 203.68 340.897C203.371 341.031 203.016 341.098 202.616 341.098C202.215 341.098 201.859 341.031 201.546 340.897C201.237 340.764 200.975 340.577 200.76 340.336C200.549 340.092 200.387 339.807 200.277 339.481C200.166 339.153 200.111 338.796 200.111 338.412ZM201.517 338.31V338.412C201.517 338.633 201.537 338.84 201.576 339.032C201.615 339.224 201.676 339.394 201.761 339.54C201.849 339.683 201.963 339.796 202.103 339.877C202.243 339.958 202.414 339.999 202.616 339.999C202.811 339.999 202.979 339.958 203.119 339.877C203.259 339.796 203.371 339.683 203.455 339.54C203.54 339.394 203.602 339.224 203.641 339.032C203.683 338.84 203.704 338.633 203.704 338.412V338.31C203.704 338.095 203.683 337.893 203.641 337.704C203.602 337.512 203.538 337.343 203.451 337.196C203.366 337.047 203.254 336.929 203.114 336.845C202.974 336.76 202.804 336.718 202.606 336.718C202.407 336.718 202.238 336.76 202.098 336.845C201.961 336.929 201.849 337.047 201.761 337.196C201.676 337.343 201.615 337.512 201.576 337.704C201.537 337.893 201.517 338.095 201.517 338.31ZM206.805 335.717L207.679 337.323L208.578 335.717H210.077L208.583 338.3L210.145 341H208.641L207.689 339.301L206.737 341H205.233L206.796 338.3L205.301 335.717H206.805ZM215.624 337.396V338.5H212.865V337.396H215.624ZM224.814 337.279V337.616C224.814 338.157 224.741 338.642 224.594 339.071C224.448 339.501 224.241 339.867 223.974 340.17C223.707 340.469 223.388 340.699 223.017 340.858C222.649 341.018 222.241 341.098 221.791 341.098C221.345 341.098 220.937 341.018 220.566 340.858C220.198 340.699 219.879 340.469 219.609 340.17C219.339 339.867 219.129 339.501 218.979 339.071C218.832 338.642 218.759 338.157 218.759 337.616V337.279C218.759 336.736 218.832 336.251 218.979 335.824C219.125 335.395 219.332 335.028 219.599 334.726C219.869 334.423 220.188 334.192 220.556 334.032C220.927 333.873 221.336 333.793 221.782 333.793C222.231 333.793 222.639 333.873 223.007 334.032C223.378 334.192 223.697 334.423 223.964 334.726C224.234 335.028 224.443 335.395 224.589 335.824C224.739 336.251 224.814 336.736 224.814 337.279ZM223.334 337.616V337.27C223.334 336.892 223.3 336.56 223.232 336.273C223.163 335.987 223.063 335.746 222.929 335.551C222.796 335.355 222.633 335.209 222.441 335.111C222.249 335.01 222.029 334.96 221.782 334.96C221.534 334.96 221.315 335.01 221.122 335.111C220.934 335.209 220.773 335.355 220.639 335.551C220.509 335.746 220.41 335.987 220.341 336.273C220.273 336.56 220.239 336.892 220.239 337.27V337.616C220.239 337.991 220.273 338.323 220.341 338.612C220.41 338.899 220.51 339.141 220.644 339.34C220.777 339.535 220.94 339.683 221.132 339.784C221.324 339.885 221.544 339.936 221.791 339.936C222.039 339.936 222.259 339.885 222.451 339.784C222.643 339.683 222.804 339.535 222.934 339.34C223.064 339.141 223.163 338.899 223.232 338.612C223.3 338.323 223.334 337.991 223.334 337.616ZM226.987 336.732V343.031H225.581V335.717H226.884L226.987 336.732ZM230.332 338.3V338.402C230.332 338.786 230.286 339.143 230.195 339.472C230.107 339.8 229.977 340.087 229.804 340.331C229.632 340.572 229.417 340.761 229.16 340.897C228.906 341.031 228.613 341.098 228.281 341.098C227.959 341.098 227.679 341.033 227.441 340.902C227.203 340.772 227.003 340.59 226.84 340.355C226.681 340.118 226.552 339.843 226.455 339.53C226.357 339.218 226.282 338.882 226.23 338.524V338.256C226.282 337.872 226.357 337.52 226.455 337.201C226.552 336.879 226.681 336.601 226.84 336.366C227.003 336.129 227.202 335.945 227.436 335.814C227.674 335.684 227.952 335.619 228.271 335.619C228.606 335.619 228.901 335.683 229.155 335.81C229.412 335.937 229.627 336.119 229.799 336.356C229.975 336.594 230.107 336.877 230.195 337.206C230.286 337.535 230.332 337.899 230.332 338.3ZM228.921 338.402V338.3C228.921 338.075 228.901 337.868 228.862 337.68C228.826 337.488 228.768 337.32 228.686 337.177C228.608 337.034 228.504 336.923 228.374 336.845C228.247 336.763 228.092 336.723 227.91 336.723C227.718 336.723 227.553 336.754 227.417 336.815C227.283 336.877 227.174 336.967 227.089 337.084C227.005 337.201 226.941 337.341 226.899 337.504C226.857 337.667 226.831 337.851 226.821 338.056V338.734C226.837 338.975 226.883 339.192 226.958 339.384C227.032 339.573 227.148 339.722 227.304 339.833C227.461 339.944 227.666 339.999 227.92 339.999C228.105 339.999 228.261 339.958 228.388 339.877C228.515 339.792 228.618 339.677 228.696 339.53C228.777 339.384 228.834 339.215 228.867 339.022C228.903 338.83 228.921 338.624 228.921 338.402ZM233.594 335.717V336.713H230.517V335.717H233.594ZM231.279 334.413H232.685V339.408C232.685 339.561 232.705 339.678 232.744 339.76C232.786 339.841 232.848 339.898 232.929 339.931C233.011 339.96 233.113 339.975 233.237 339.975C233.325 339.975 233.403 339.971 233.471 339.965C233.543 339.955 233.603 339.945 233.652 339.936L233.657 340.971C233.537 341.01 233.406 341.041 233.266 341.063C233.126 341.086 232.972 341.098 232.803 341.098C232.493 341.098 232.223 341.047 231.992 340.946C231.764 340.842 231.588 340.676 231.465 340.448C231.341 340.22 231.279 339.921 231.279 339.55V334.413ZM235.679 335.717V341H234.268V335.717H235.679ZM234.18 334.34C234.18 334.135 234.251 333.965 234.395 333.832C234.538 333.699 234.73 333.632 234.971 333.632C235.208 333.632 235.399 333.699 235.542 333.832C235.688 333.965 235.762 334.135 235.762 334.34C235.762 334.545 235.688 334.714 235.542 334.848C235.399 334.981 235.208 335.048 234.971 335.048C234.73 335.048 234.538 334.981 234.395 334.848C234.251 334.714 234.18 334.545 234.18 334.34ZM236.416 338.412V338.31C236.416 337.922 236.472 337.566 236.582 337.24C236.693 336.911 236.854 336.627 237.066 336.386C237.277 336.145 237.538 335.958 237.847 335.824C238.156 335.688 238.511 335.619 238.911 335.619C239.312 335.619 239.668 335.688 239.981 335.824C240.293 335.958 240.555 336.145 240.767 336.386C240.982 336.627 241.144 336.911 241.255 337.24C241.366 337.566 241.421 337.922 241.421 338.31V338.412C241.421 338.796 241.366 339.153 241.255 339.481C241.144 339.807 240.982 340.092 240.767 340.336C240.555 340.577 240.295 340.764 239.986 340.897C239.676 341.031 239.321 341.098 238.921 341.098C238.521 341.098 238.164 341.031 237.852 340.897C237.543 340.764 237.28 340.577 237.066 340.336C236.854 340.092 236.693 339.807 236.582 339.481C236.472 339.153 236.416 338.796 236.416 338.412ZM237.822 338.31V338.412C237.822 338.633 237.842 338.84 237.881 339.032C237.92 339.224 237.982 339.394 238.067 339.54C238.154 339.683 238.268 339.796 238.408 339.877C238.548 339.958 238.719 339.999 238.921 339.999C239.116 339.999 239.284 339.958 239.424 339.877C239.564 339.796 239.676 339.683 239.761 339.54C239.846 339.394 239.907 339.224 239.946 339.032C239.989 338.84 240.01 338.633 240.01 338.412V338.31C240.01 338.095 239.989 337.893 239.946 337.704C239.907 337.512 239.844 337.343 239.756 337.196C239.671 337.047 239.559 336.929 239.419 336.845C239.279 336.76 239.11 336.718 238.911 336.718C238.713 336.718 238.543 336.76 238.404 336.845C238.267 336.929 238.154 337.047 238.067 337.196C237.982 337.343 237.92 337.512 237.881 337.704C237.842 337.893 237.822 338.095 237.822 338.31ZM243.462 336.845V341H242.056V335.717H243.374L243.462 336.845ZM243.257 338.173H242.876C242.876 337.782 242.927 337.431 243.028 337.118C243.129 336.802 243.27 336.534 243.453 336.312C243.635 336.088 243.851 335.917 244.102 335.8C244.356 335.679 244.639 335.619 244.952 335.619C245.199 335.619 245.425 335.655 245.63 335.727C245.835 335.798 246.011 335.912 246.158 336.068C246.307 336.225 246.421 336.431 246.499 336.688C246.581 336.946 246.621 337.26 246.621 337.631V341H245.205V337.626C245.205 337.392 245.173 337.209 245.108 337.079C245.043 336.949 244.947 336.858 244.82 336.806C244.696 336.75 244.543 336.723 244.361 336.723C244.172 336.723 244.008 336.76 243.868 336.835C243.731 336.91 243.617 337.014 243.526 337.147C243.438 337.278 243.371 337.431 243.326 337.606C243.28 337.782 243.257 337.971 243.257 338.173ZM250.342 339.809V337.455C250.342 337.286 250.315 337.141 250.259 337.021C250.204 336.897 250.118 336.801 250.001 336.732C249.887 336.664 249.739 336.63 249.556 336.63C249.4 336.63 249.265 336.658 249.151 336.713C249.037 336.765 248.949 336.841 248.887 336.942C248.825 337.04 248.795 337.156 248.795 337.289H247.388C247.388 337.064 247.44 336.851 247.545 336.649C247.649 336.448 247.8 336.27 247.999 336.117C248.197 335.961 248.433 335.839 248.707 335.751C248.983 335.663 249.293 335.619 249.634 335.619C250.045 335.619 250.409 335.688 250.728 335.824C251.047 335.961 251.298 336.166 251.48 336.439C251.666 336.713 251.758 337.055 251.758 337.465V339.726C251.758 340.015 251.776 340.253 251.812 340.438C251.848 340.621 251.9 340.78 251.968 340.917V341H250.547C250.479 340.857 250.427 340.678 250.391 340.463C250.359 340.245 250.342 340.027 250.342 339.809ZM250.528 337.782L250.538 338.578H249.752C249.566 338.578 249.405 338.599 249.268 338.642C249.131 338.684 249.019 338.744 248.931 338.822C248.843 338.897 248.778 338.985 248.736 339.086C248.697 339.187 248.677 339.298 248.677 339.418C248.677 339.538 248.705 339.647 248.76 339.745C248.816 339.84 248.895 339.914 249 339.97C249.104 340.022 249.226 340.048 249.366 340.048C249.577 340.048 249.761 340.006 249.918 339.921C250.074 339.836 250.194 339.732 250.279 339.608C250.367 339.485 250.412 339.368 250.416 339.257L250.787 339.853C250.735 339.986 250.663 340.124 250.572 340.268C250.484 340.411 250.372 340.546 250.235 340.673C250.098 340.797 249.934 340.899 249.742 340.98C249.55 341.059 249.322 341.098 249.058 341.098C248.723 341.098 248.419 341.031 248.145 340.897C247.875 340.761 247.66 340.574 247.501 340.336C247.344 340.095 247.266 339.822 247.266 339.516C247.266 339.239 247.318 338.993 247.422 338.778C247.527 338.563 247.68 338.383 247.881 338.236C248.087 338.087 248.342 337.974 248.648 337.899C248.954 337.821 249.309 337.782 249.712 337.782H250.528ZM254.127 333.5V341H252.716V333.5H254.127Z" fill="white"/>
<path d="M211 363.333C209.527 363.333 208.333 364.527 208.333 366C208.333 367.473 209.527 368.667 211 368.667C212.473 368.667 213.667 367.473 213.667 366C213.667 364.527 212.473 363.333 211 363.333ZM210.5 346V366H211.5V346H210.5Z" fill="#0059FF"/>
<path d="M241 387.333C239.527 387.333 238.333 388.527 238.333 390C238.333 391.473 239.527 392.667 241 392.667C242.473 392.667 243.667 391.473 243.667 390C243.667 388.527 242.473 387.333 241 387.333ZM240.5 390V434H241.5V390H240.5Z" fill="#0059FF"/>
<rect x="201" y="434" width="80" height="16" rx="8" fill="#286EF1"/>
<path d="M211.531 437.891V445H210.071V437.891H211.531ZM214.798 443.999C214.97 443.999 215.123 443.966 215.257 443.901C215.39 443.833 215.494 443.739 215.569 443.618C215.647 443.494 215.688 443.35 215.691 443.184H217.014C217.011 443.555 216.912 443.885 216.717 444.175C216.521 444.461 216.259 444.688 215.93 444.854C215.602 445.016 215.234 445.098 214.827 445.098C214.417 445.098 214.059 445.029 213.753 444.893C213.45 444.756 213.198 444.567 212.996 444.326C212.794 444.082 212.643 443.799 212.542 443.477C212.441 443.151 212.39 442.803 212.39 442.432V442.29C212.39 441.916 212.441 441.567 212.542 441.245C212.643 440.92 212.794 440.636 212.996 440.396C213.198 440.151 213.45 439.961 213.753 439.824C214.055 439.688 214.41 439.619 214.817 439.619C215.25 439.619 215.629 439.702 215.955 439.868C216.284 440.034 216.541 440.272 216.726 440.581C216.915 440.887 217.011 441.25 217.014 441.67H215.691C215.688 441.494 215.651 441.335 215.579 441.191C215.511 441.048 215.41 440.934 215.276 440.85C215.146 440.762 214.985 440.718 214.793 440.718C214.588 440.718 214.42 440.762 214.29 440.85C214.16 440.934 214.059 441.051 213.987 441.201C213.915 441.348 213.865 441.515 213.836 441.704C213.81 441.89 213.797 442.085 213.797 442.29V442.432C213.797 442.637 213.81 442.834 213.836 443.022C213.862 443.211 213.911 443.379 213.982 443.525C214.057 443.672 214.16 443.787 214.29 443.872C214.42 443.957 214.589 443.999 214.798 443.999ZM217.405 442.412V442.31C217.405 441.922 217.461 441.566 217.571 441.24C217.682 440.911 217.843 440.627 218.055 440.386C218.266 440.145 218.527 439.958 218.836 439.824C219.145 439.688 219.5 439.619 219.9 439.619C220.301 439.619 220.657 439.688 220.97 439.824C221.282 439.958 221.544 440.145 221.756 440.386C221.971 440.627 222.133 440.911 222.244 441.24C222.355 441.566 222.41 441.922 222.41 442.31V442.412C222.41 442.796 222.355 443.153 222.244 443.481C222.133 443.807 221.971 444.092 221.756 444.336C221.544 444.577 221.284 444.764 220.975 444.897C220.665 445.031 220.311 445.098 219.91 445.098C219.51 445.098 219.153 445.031 218.841 444.897C218.532 444.764 218.27 444.577 218.055 444.336C217.843 444.092 217.682 443.807 217.571 443.481C217.461 443.153 217.405 442.796 217.405 442.412ZM218.812 442.31V442.412C218.812 442.633 218.831 442.84 218.87 443.032C218.909 443.224 218.971 443.394 219.056 443.54C219.144 443.683 219.257 443.796 219.397 443.877C219.537 443.958 219.708 443.999 219.91 443.999C220.105 443.999 220.273 443.958 220.413 443.877C220.553 443.796 220.665 443.683 220.75 443.54C220.835 443.394 220.896 443.224 220.936 443.032C220.978 442.84 220.999 442.633 220.999 442.412V442.31C220.999 442.095 220.978 441.893 220.936 441.704C220.896 441.512 220.833 441.343 220.745 441.196C220.66 441.047 220.548 440.929 220.408 440.845C220.268 440.76 220.099 440.718 219.9 440.718C219.702 440.718 219.533 440.76 219.393 440.845C219.256 440.929 219.144 441.047 219.056 441.196C218.971 441.343 218.909 441.512 218.87 441.704C218.831 441.893 218.812 442.095 218.812 442.31ZM224.451 440.845V445H223.045V439.717H224.363L224.451 440.845ZM224.246 442.173H223.865C223.865 441.782 223.916 441.431 224.017 441.118C224.118 440.802 224.259 440.534 224.442 440.312C224.624 440.088 224.84 439.917 225.091 439.8C225.345 439.679 225.628 439.619 225.941 439.619C226.188 439.619 226.414 439.655 226.619 439.727C226.824 439.798 227 439.912 227.147 440.068C227.296 440.225 227.41 440.431 227.488 440.688C227.57 440.946 227.611 441.26 227.611 441.631V445H226.195V441.626C226.195 441.392 226.162 441.209 226.097 441.079C226.032 440.949 225.936 440.858 225.809 440.806C225.685 440.75 225.532 440.723 225.35 440.723C225.161 440.723 224.997 440.76 224.857 440.835C224.72 440.91 224.606 441.014 224.515 441.147C224.427 441.278 224.36 441.431 224.315 441.606C224.269 441.782 224.246 441.971 224.246 442.173ZM233.544 441.396V442.5H230.785V441.396H233.544ZM242.733 441.279V441.616C242.733 442.157 242.66 442.642 242.514 443.071C242.367 443.501 242.16 443.867 241.894 444.17C241.627 444.469 241.308 444.699 240.937 444.858C240.569 445.018 240.16 445.098 239.711 445.098C239.265 445.098 238.856 445.018 238.485 444.858C238.118 444.699 237.799 444.469 237.528 444.17C237.258 443.867 237.048 443.501 236.898 443.071C236.752 442.642 236.679 442.157 236.679 441.616V441.279C236.679 440.736 236.752 440.251 236.898 439.824C237.045 439.395 237.252 439.028 237.519 438.726C237.789 438.423 238.108 438.192 238.476 438.032C238.847 437.873 239.255 437.793 239.701 437.793C240.15 437.793 240.559 437.873 240.927 438.032C241.298 438.192 241.617 438.423 241.884 438.726C242.154 439.028 242.362 439.395 242.509 439.824C242.659 440.251 242.733 440.736 242.733 441.279ZM241.254 441.616V441.27C241.254 440.892 241.22 440.56 241.151 440.273C241.083 439.987 240.982 439.746 240.849 439.551C240.715 439.355 240.552 439.209 240.36 439.111C240.168 439.01 239.949 438.96 239.701 438.96C239.454 438.96 239.234 439.01 239.042 439.111C238.853 439.209 238.692 439.355 238.559 439.551C238.428 439.746 238.329 439.987 238.261 440.273C238.192 440.56 238.158 440.892 238.158 441.27V441.616C238.158 441.991 238.192 442.323 238.261 442.612C238.329 442.899 238.43 443.141 238.563 443.34C238.697 443.535 238.86 443.683 239.052 443.784C239.244 443.885 239.464 443.936 239.711 443.936C239.958 443.936 240.178 443.885 240.37 443.784C240.562 443.683 240.723 443.535 240.854 443.34C240.984 443.141 241.083 442.899 241.151 442.612C241.22 442.323 241.254 441.991 241.254 441.616ZM244.906 440.732V447.031H243.5V439.717H244.804L244.906 440.732ZM248.251 442.3V442.402C248.251 442.786 248.206 443.143 248.114 443.472C248.027 443.8 247.896 444.087 247.724 444.331C247.551 444.572 247.336 444.761 247.079 444.897C246.825 445.031 246.532 445.098 246.2 445.098C245.878 445.098 245.598 445.033 245.361 444.902C245.123 444.772 244.923 444.59 244.76 444.355C244.6 444.118 244.472 443.843 244.374 443.53C244.277 443.218 244.202 442.882 244.15 442.524V442.256C244.202 441.872 244.277 441.52 244.374 441.201C244.472 440.879 244.6 440.601 244.76 440.366C244.923 440.129 245.121 439.945 245.356 439.814C245.593 439.684 245.872 439.619 246.191 439.619C246.526 439.619 246.821 439.683 247.074 439.81C247.332 439.937 247.546 440.119 247.719 440.356C247.895 440.594 248.027 440.877 248.114 441.206C248.206 441.535 248.251 441.899 248.251 442.3ZM246.84 442.402V442.3C246.84 442.075 246.821 441.868 246.781 441.68C246.746 441.488 246.687 441.32 246.606 441.177C246.528 441.034 246.423 440.923 246.293 440.845C246.166 440.763 246.012 440.723 245.829 440.723C245.637 440.723 245.473 440.754 245.336 440.815C245.203 440.877 245.094 440.967 245.009 441.084C244.924 441.201 244.861 441.341 244.819 441.504C244.776 441.667 244.75 441.851 244.74 442.056V442.734C244.757 442.975 244.802 443.192 244.877 443.384C244.952 443.573 245.068 443.722 245.224 443.833C245.38 443.944 245.585 443.999 245.839 443.999C246.025 443.999 246.181 443.958 246.308 443.877C246.435 443.792 246.537 443.677 246.615 443.53C246.697 443.384 246.754 443.215 246.786 443.022C246.822 442.83 246.84 442.624 246.84 442.402ZM251.513 439.717V440.713H248.437V439.717H251.513ZM249.199 438.413H250.605V443.408C250.605 443.561 250.624 443.678 250.663 443.76C250.706 443.841 250.768 443.898 250.849 443.931C250.93 443.96 251.033 443.975 251.157 443.975C251.245 443.975 251.323 443.971 251.391 443.965C251.463 443.955 251.523 443.945 251.572 443.936L251.577 444.971C251.456 445.01 251.326 445.041 251.186 445.063C251.046 445.086 250.891 445.098 250.722 445.098C250.413 445.098 250.143 445.047 249.912 444.946C249.684 444.842 249.508 444.676 249.384 444.448C249.26 444.22 249.199 443.921 249.199 443.55V438.413ZM253.598 439.717V445H252.187V439.717H253.598ZM252.099 438.34C252.099 438.135 252.171 437.965 252.314 437.832C252.457 437.699 252.649 437.632 252.89 437.632C253.128 437.632 253.318 437.699 253.462 437.832C253.608 437.965 253.681 438.135 253.681 438.34C253.681 438.545 253.608 438.714 253.462 438.848C253.318 438.981 253.128 439.048 252.89 439.048C252.649 439.048 252.457 438.981 252.314 438.848C252.171 438.714 252.099 438.545 252.099 438.34ZM254.336 442.412V442.31C254.336 441.922 254.391 441.566 254.502 441.24C254.612 440.911 254.774 440.627 254.985 440.386C255.197 440.145 255.457 439.958 255.766 439.824C256.076 439.688 256.43 439.619 256.831 439.619C257.231 439.619 257.588 439.688 257.9 439.824C258.213 439.958 258.475 440.145 258.686 440.386C258.901 440.627 259.064 440.911 259.175 441.24C259.285 441.566 259.341 441.922 259.341 442.31V442.412C259.341 442.796 259.285 443.153 259.175 443.481C259.064 443.807 258.901 444.092 258.686 444.336C258.475 444.577 258.214 444.764 257.905 444.897C257.596 445.031 257.241 445.098 256.841 445.098C256.44 445.098 256.084 445.031 255.771 444.897C255.462 444.764 255.2 444.577 254.985 444.336C254.774 444.092 254.612 443.807 254.502 443.481C254.391 443.153 254.336 442.796 254.336 442.412ZM255.742 442.31V442.412C255.742 442.633 255.762 442.84 255.801 443.032C255.84 443.224 255.901 443.394 255.986 443.54C256.074 443.683 256.188 443.796 256.328 443.877C256.468 443.958 256.639 443.999 256.841 443.999C257.036 443.999 257.204 443.958 257.344 443.877C257.484 443.796 257.596 443.683 257.68 443.54C257.765 443.394 257.827 443.224 257.866 443.032C257.908 442.84 257.929 442.633 257.929 442.412V442.31C257.929 442.095 257.908 441.893 257.866 441.704C257.827 441.512 257.763 441.343 257.676 441.196C257.591 441.047 257.479 440.929 257.339 440.845C257.199 440.76 257.029 440.718 256.831 440.718C256.632 440.718 256.463 440.76 256.323 440.845C256.186 440.929 256.074 441.047 255.986 441.196C255.901 441.343 255.84 441.512 255.801 441.704C255.762 441.893 255.742 442.095 255.742 442.31ZM261.382 440.845V445H259.976V439.717H261.294L261.382 440.845ZM261.177 442.173H260.796C260.796 441.782 260.846 441.431 260.947 441.118C261.048 440.802 261.19 440.534 261.372 440.312C261.554 440.088 261.771 439.917 262.021 439.8C262.275 439.679 262.559 439.619 262.871 439.619C263.118 439.619 263.345 439.655 263.55 439.727C263.755 439.798 263.931 439.912 264.077 440.068C264.227 440.225 264.341 440.431 264.419 440.688C264.5 440.946 264.541 441.26 264.541 441.631V445H263.125V441.626C263.125 441.392 263.092 441.209 263.027 441.079C262.962 440.949 262.866 440.858 262.739 440.806C262.616 440.75 262.463 440.723 262.28 440.723C262.091 440.723 261.927 440.76 261.787 440.835C261.65 440.91 261.536 441.014 261.445 441.147C261.357 441.278 261.291 441.431 261.245 441.606C261.2 441.782 261.177 441.971 261.177 442.173ZM268.262 443.809V441.455C268.262 441.286 268.234 441.141 268.179 441.021C268.124 440.897 268.037 440.801 267.92 440.732C267.806 440.664 267.658 440.63 267.476 440.63C267.32 440.63 267.184 440.658 267.071 440.713C266.957 440.765 266.869 440.841 266.807 440.942C266.745 441.04 266.714 441.156 266.714 441.289H265.308C265.308 441.064 265.36 440.851 265.464 440.649C265.568 440.448 265.72 440.27 265.918 440.117C266.117 439.961 266.353 439.839 266.626 439.751C266.903 439.663 267.212 439.619 267.554 439.619C267.964 439.619 268.329 439.688 268.648 439.824C268.967 439.961 269.217 440.166 269.4 440.439C269.585 440.713 269.678 441.055 269.678 441.465V443.726C269.678 444.015 269.696 444.253 269.732 444.438C269.767 444.621 269.82 444.78 269.888 444.917V445H268.467C268.399 444.857 268.347 444.678 268.311 444.463C268.278 444.245 268.262 444.027 268.262 443.809ZM268.447 441.782L268.457 442.578H267.671C267.486 442.578 267.324 442.599 267.188 442.642C267.051 442.684 266.939 442.744 266.851 442.822C266.763 442.897 266.698 442.985 266.655 443.086C266.616 443.187 266.597 443.298 266.597 443.418C266.597 443.538 266.625 443.647 266.68 443.745C266.735 443.84 266.815 443.914 266.919 443.97C267.023 444.022 267.145 444.048 267.285 444.048C267.497 444.048 267.681 444.006 267.837 443.921C267.993 443.836 268.114 443.732 268.198 443.608C268.286 443.485 268.332 443.368 268.335 443.257L268.706 443.853C268.654 443.986 268.583 444.124 268.491 444.268C268.404 444.411 268.291 444.546 268.154 444.673C268.018 444.797 267.853 444.899 267.661 444.98C267.469 445.059 267.241 445.098 266.978 445.098C266.642 445.098 266.338 445.031 266.065 444.897C265.794 444.761 265.58 444.574 265.42 444.336C265.264 444.095 265.186 443.822 265.186 443.516C265.186 443.239 265.238 442.993 265.342 442.778C265.446 442.563 265.599 442.383 265.801 442.236C266.006 442.087 266.262 441.974 266.568 441.899C266.874 441.821 267.228 441.782 267.632 441.782H268.447ZM272.046 437.5V445H270.635V437.5H272.046Z" fill="white"/>
<path d="M181.5 387.333C180.027 387.333 178.833 388.527 178.833 390C178.833 391.473 180.027 392.667 181.5 392.667C182.973 392.667 184.167 391.473 184.167 390C184.167 388.527 182.973 387.333 181.5 387.333ZM181 390V410H182V390H181Z" fill="#0059FF"/>
<rect x="123" y="410" width="117" height="16" rx="8" fill="#286EF1"/>
<path d="M136.461 419.857V421H132.677V419.857H136.461ZM133.156 413.891V421H131.691V413.891H133.156ZM135.968 416.786V417.899H132.677V416.786H135.968ZM136.456 413.891V415.038H132.677V413.891H136.456ZM138.161 415.717L139.035 417.323L139.933 415.717H141.432L139.938 418.3L141.501 421H139.997L139.045 419.301L138.092 421H136.588L138.151 418.3L136.657 415.717H138.161ZM143.322 416.732V423.031H141.916V415.717H143.22L143.322 416.732ZM146.667 418.3V418.402C146.667 418.786 146.621 419.143 146.53 419.472C146.442 419.8 146.312 420.087 146.139 420.331C145.967 420.572 145.752 420.761 145.495 420.897C145.241 421.031 144.948 421.098 144.616 421.098C144.294 421.098 144.014 421.033 143.776 420.902C143.539 420.772 143.338 420.59 143.176 420.355C143.016 420.118 142.887 419.843 142.79 419.53C142.692 419.218 142.617 418.882 142.565 418.524V418.256C142.617 417.872 142.692 417.52 142.79 417.201C142.887 416.879 143.016 416.601 143.176 416.366C143.338 416.129 143.537 415.945 143.771 415.814C144.009 415.684 144.287 415.619 144.606 415.619C144.942 415.619 145.236 415.683 145.49 415.81C145.747 415.937 145.962 416.119 146.135 416.356C146.31 416.594 146.442 416.877 146.53 417.206C146.621 417.535 146.667 417.899 146.667 418.3ZM145.256 418.402V418.3C145.256 418.075 145.236 417.868 145.197 417.68C145.161 417.488 145.103 417.32 145.021 417.177C144.943 417.034 144.839 416.923 144.709 416.845C144.582 416.763 144.427 416.723 144.245 416.723C144.053 416.723 143.888 416.754 143.752 416.815C143.618 416.877 143.509 416.967 143.425 417.084C143.34 417.201 143.276 417.341 143.234 417.504C143.192 417.667 143.166 417.851 143.156 418.056V418.734C143.172 418.975 143.218 419.192 143.293 419.384C143.368 419.573 143.483 419.722 143.639 419.833C143.796 419.944 144.001 419.999 144.255 419.999C144.44 419.999 144.596 419.958 144.723 419.877C144.85 419.792 144.953 419.677 145.031 419.53C145.112 419.384 145.169 419.215 145.202 419.022C145.238 418.83 145.256 418.624 145.256 418.402ZM150.192 419.809V417.455C150.192 417.286 150.165 417.141 150.109 417.021C150.054 416.897 149.968 416.801 149.851 416.732C149.737 416.664 149.589 416.63 149.406 416.63C149.25 416.63 149.115 416.658 149.001 416.713C148.887 416.765 148.799 416.841 148.737 416.942C148.675 417.04 148.645 417.156 148.645 417.289H147.238C147.238 417.064 147.29 416.851 147.395 416.649C147.499 416.448 147.65 416.27 147.849 416.117C148.047 415.961 148.283 415.839 148.557 415.751C148.833 415.663 149.143 415.619 149.484 415.619C149.895 415.619 150.259 415.688 150.578 415.824C150.897 415.961 151.148 416.166 151.33 416.439C151.516 416.713 151.608 417.055 151.608 417.465V419.726C151.608 420.015 151.626 420.253 151.662 420.438C151.698 420.621 151.75 420.78 151.818 420.917V421H150.397C150.329 420.857 150.277 420.678 150.241 420.463C150.209 420.245 150.192 420.027 150.192 419.809ZM150.378 417.782L150.388 418.578H149.602C149.416 418.578 149.255 418.599 149.118 418.642C148.981 418.684 148.869 418.744 148.781 418.822C148.693 418.897 148.628 418.985 148.586 419.086C148.547 419.187 148.527 419.298 148.527 419.418C148.527 419.538 148.555 419.647 148.61 419.745C148.666 419.84 148.745 419.914 148.85 419.97C148.954 420.022 149.076 420.048 149.216 420.048C149.427 420.048 149.611 420.006 149.768 419.921C149.924 419.836 150.044 419.732 150.129 419.608C150.217 419.485 150.262 419.368 150.266 419.257L150.637 419.853C150.585 419.986 150.513 420.124 150.422 420.268C150.334 420.411 150.222 420.546 150.085 420.673C149.948 420.797 149.784 420.899 149.592 420.98C149.4 421.059 149.172 421.098 148.908 421.098C148.573 421.098 148.269 421.031 147.995 420.897C147.725 420.761 147.51 420.574 147.351 420.336C147.194 420.095 147.116 419.822 147.116 419.516C147.116 419.239 147.168 418.993 147.272 418.778C147.377 418.563 147.53 418.383 147.731 418.236C147.937 418.087 148.192 417.974 148.498 417.899C148.804 417.821 149.159 417.782 149.562 417.782H150.378ZM153.869 416.845V421H152.463V415.717H153.781L153.869 416.845ZM153.664 418.173H153.283C153.283 417.782 153.334 417.431 153.435 417.118C153.536 416.802 153.677 416.534 153.86 416.312C154.042 416.088 154.258 415.917 154.509 415.8C154.763 415.679 155.046 415.619 155.359 415.619C155.606 415.619 155.832 415.655 156.037 415.727C156.242 415.798 156.418 415.912 156.565 416.068C156.714 416.225 156.828 416.431 156.906 416.688C156.988 416.946 157.029 417.26 157.029 417.631V421H155.612V417.626C155.612 417.392 155.58 417.209 155.515 417.079C155.45 416.949 155.354 416.858 155.227 416.806C155.103 416.75 154.95 416.723 154.768 416.723C154.579 416.723 154.415 416.76 154.275 416.835C154.138 416.91 154.024 417.014 153.933 417.147C153.845 417.278 153.778 417.431 153.733 417.606C153.687 417.782 153.664 417.971 153.664 418.173ZM161.018 419.848V413.5H162.434V421H161.16L161.018 419.848ZM157.678 418.422V418.319C157.678 417.916 157.724 417.549 157.815 417.221C157.906 416.889 158.039 416.604 158.215 416.366C158.391 416.129 158.607 415.945 158.865 415.814C159.122 415.684 159.415 415.619 159.744 415.619C160.053 415.619 160.323 415.684 160.554 415.814C160.788 415.945 160.987 416.13 161.15 416.371C161.316 416.609 161.449 416.89 161.55 417.216C161.651 417.538 161.724 417.891 161.77 418.275V418.5C161.724 418.868 161.651 419.21 161.55 419.525C161.449 419.841 161.316 420.118 161.15 420.355C160.987 420.59 160.788 420.772 160.554 420.902C160.32 421.033 160.046 421.098 159.734 421.098C159.405 421.098 159.112 421.031 158.855 420.897C158.601 420.764 158.386 420.577 158.21 420.336C158.038 420.095 157.906 419.812 157.815 419.486C157.724 419.161 157.678 418.806 157.678 418.422ZM159.084 418.319V418.422C159.084 418.64 159.101 418.843 159.133 419.032C159.169 419.221 159.226 419.389 159.304 419.535C159.385 419.678 159.49 419.791 159.617 419.872C159.747 419.95 159.905 419.989 160.09 419.989C160.331 419.989 160.53 419.936 160.686 419.828C160.842 419.717 160.961 419.566 161.042 419.374C161.127 419.182 161.176 418.961 161.189 418.71V418.07C161.179 417.865 161.15 417.681 161.101 417.519C161.055 417.353 160.987 417.211 160.896 417.094C160.808 416.977 160.697 416.885 160.564 416.82C160.434 416.755 160.279 416.723 160.1 416.723C159.918 416.723 159.761 416.765 159.631 416.85C159.501 416.931 159.395 417.043 159.314 417.187C159.236 417.33 159.177 417.499 159.138 417.694C159.102 417.886 159.084 418.095 159.084 418.319ZM166.741 417.196L168.108 416.312C168.31 416.179 168.445 416.05 168.513 415.927C168.582 415.803 168.616 415.665 168.616 415.512C168.616 415.359 168.559 415.217 168.445 415.087C168.331 414.953 168.172 414.887 167.967 414.887C167.82 414.887 167.696 414.921 167.596 414.989C167.495 415.054 167.418 415.142 167.366 415.253C167.317 415.364 167.293 415.487 167.293 415.624C167.293 415.771 167.332 415.92 167.41 416.073C167.488 416.223 167.594 416.382 167.727 416.552C167.861 416.718 168.009 416.898 168.172 417.094L171.526 421H169.929L167.195 417.836C166.964 417.549 166.762 417.287 166.59 417.05C166.417 416.809 166.282 416.575 166.184 416.347C166.087 416.119 166.038 415.884 166.038 415.644C166.038 415.272 166.118 414.949 166.277 414.672C166.437 414.392 166.661 414.175 166.951 414.022C167.241 413.866 167.581 413.788 167.971 413.788C168.339 413.788 168.658 413.865 168.929 414.018C169.199 414.167 169.407 414.366 169.554 414.613C169.703 414.861 169.778 415.132 169.778 415.429C169.778 415.65 169.737 415.855 169.656 416.044C169.575 416.229 169.462 416.402 169.319 416.562C169.176 416.718 169.012 416.863 168.826 416.996L167.268 418.104C167.148 418.215 167.057 418.324 166.995 418.432C166.933 418.539 166.891 418.642 166.868 418.739C166.845 418.834 166.834 418.925 166.834 419.013C166.834 419.201 166.874 419.371 166.956 419.521C167.037 419.67 167.151 419.787 167.298 419.872C167.444 419.957 167.615 419.999 167.81 419.999C168.077 419.999 168.336 419.94 168.587 419.823C168.837 419.706 169.062 419.538 169.261 419.32C169.459 419.099 169.617 418.837 169.734 418.534C169.851 418.231 169.91 417.898 169.91 417.533H171.101C171.101 417.898 171.066 418.244 170.994 418.573C170.922 418.899 170.807 419.201 170.647 419.481C170.488 419.758 170.276 420.004 170.012 420.219C169.993 420.235 169.965 420.259 169.929 420.292C169.897 420.321 169.869 420.344 169.846 420.36C169.534 420.611 169.208 420.798 168.87 420.922C168.531 421.042 168.154 421.103 167.737 421.103C167.262 421.103 166.85 421.016 166.502 420.844C166.157 420.671 165.89 420.434 165.701 420.131C165.515 419.828 165.423 419.481 165.423 419.091C165.423 418.804 165.478 418.555 165.589 418.344C165.703 418.129 165.859 417.93 166.057 417.748C166.256 417.566 166.484 417.382 166.741 417.196ZM178.504 418.642H179.964C179.935 419.12 179.803 419.545 179.569 419.916C179.337 420.287 179.014 420.577 178.597 420.785C178.183 420.993 177.685 421.098 177.103 421.098C176.647 421.098 176.238 421.02 175.877 420.863C175.516 420.704 175.207 420.476 174.949 420.18C174.696 419.883 174.502 419.525 174.368 419.105C174.235 418.686 174.168 418.215 174.168 417.694V417.201C174.168 416.68 174.237 416.21 174.373 415.79C174.513 415.367 174.712 415.007 174.969 414.711C175.229 414.415 175.54 414.187 175.902 414.027C176.263 413.868 176.667 413.788 177.112 413.788C177.705 413.788 178.205 413.896 178.612 414.11C179.022 414.325 179.339 414.621 179.564 414.999C179.792 415.377 179.928 415.806 179.974 416.288H178.509C178.493 416.002 178.436 415.759 178.338 415.561C178.24 415.359 178.092 415.207 177.894 415.106C177.698 415.002 177.438 414.95 177.112 414.95C176.868 414.95 176.655 414.996 176.473 415.087C176.291 415.178 176.138 415.316 176.014 415.502C175.89 415.688 175.797 415.922 175.736 416.205C175.677 416.485 175.648 416.814 175.648 417.191V417.694C175.648 418.062 175.675 418.386 175.731 418.666C175.786 418.943 175.871 419.177 175.985 419.369C176.102 419.558 176.251 419.701 176.434 419.799C176.619 419.893 176.842 419.94 177.103 419.94C177.409 419.94 177.661 419.892 177.86 419.794C178.058 419.696 178.21 419.551 178.314 419.359C178.421 419.167 178.485 418.928 178.504 418.642ZM180.413 418.412V418.31C180.413 417.922 180.469 417.566 180.579 417.24C180.69 416.911 180.851 416.627 181.063 416.386C181.274 416.145 181.535 415.958 181.844 415.824C182.153 415.688 182.508 415.619 182.909 415.619C183.309 415.619 183.665 415.688 183.978 415.824C184.29 415.958 184.552 416.145 184.764 416.386C184.979 416.627 185.142 416.911 185.252 417.24C185.363 417.566 185.418 417.922 185.418 418.31V418.412C185.418 418.796 185.363 419.153 185.252 419.481C185.142 419.807 184.979 420.092 184.764 420.336C184.552 420.577 184.292 420.764 183.983 420.897C183.674 421.031 183.319 421.098 182.918 421.098C182.518 421.098 182.162 421.031 181.849 420.897C181.54 420.764 181.278 420.577 181.063 420.336C180.851 420.092 180.69 419.807 180.579 419.481C180.469 419.153 180.413 418.796 180.413 418.412ZM181.82 418.31V418.412C181.82 418.633 181.839 418.84 181.878 419.032C181.917 419.224 181.979 419.394 182.064 419.54C182.152 419.683 182.266 419.796 182.406 419.877C182.546 419.958 182.717 419.999 182.918 419.999C183.114 419.999 183.281 419.958 183.421 419.877C183.561 419.796 183.674 419.683 183.758 419.54C183.843 419.394 183.905 419.224 183.944 419.032C183.986 418.84 184.007 418.633 184.007 418.412V418.31C184.007 418.095 183.986 417.893 183.944 417.704C183.905 417.512 183.841 417.343 183.753 417.196C183.669 417.047 183.556 416.929 183.416 416.845C183.276 416.76 183.107 416.718 182.909 416.718C182.71 416.718 182.541 416.76 182.401 416.845C182.264 416.929 182.152 417.047 182.064 417.196C181.979 417.343 181.917 417.512 181.878 417.704C181.839 417.893 181.82 418.095 181.82 418.31ZM187.567 413.5V421H186.156V413.5H187.567ZM190.013 413.5V421H188.602V413.5H190.013ZM193.827 419.809V417.455C193.827 417.286 193.799 417.141 193.744 417.021C193.689 416.897 193.603 416.801 193.485 416.732C193.371 416.664 193.223 416.63 193.041 416.63C192.885 416.63 192.75 416.658 192.636 416.713C192.522 416.765 192.434 416.841 192.372 416.942C192.31 417.04 192.279 417.156 192.279 417.289H190.873C190.873 417.064 190.925 416.851 191.029 416.649C191.133 416.448 191.285 416.27 191.483 416.117C191.682 415.961 191.918 415.839 192.191 415.751C192.468 415.663 192.777 415.619 193.119 415.619C193.529 415.619 193.894 415.688 194.213 415.824C194.532 415.961 194.783 416.166 194.965 416.439C195.15 416.713 195.243 417.055 195.243 417.465V419.726C195.243 420.015 195.261 420.253 195.297 420.438C195.333 420.621 195.385 420.78 195.453 420.917V421H194.032C193.964 420.857 193.912 420.678 193.876 420.463C193.843 420.245 193.827 420.027 193.827 419.809ZM194.013 417.782L194.022 418.578H193.236C193.051 418.578 192.89 418.599 192.753 418.642C192.616 418.684 192.504 418.744 192.416 418.822C192.328 418.897 192.263 418.985 192.221 419.086C192.182 419.187 192.162 419.298 192.162 419.418C192.162 419.538 192.19 419.647 192.245 419.745C192.3 419.84 192.38 419.914 192.484 419.97C192.589 420.022 192.711 420.048 192.851 420.048C193.062 420.048 193.246 420.006 193.402 419.921C193.559 419.836 193.679 419.732 193.764 419.608C193.852 419.485 193.897 419.368 193.9 419.257L194.271 419.853C194.219 419.986 194.148 420.124 194.057 420.268C193.969 420.411 193.856 420.546 193.72 420.673C193.583 420.797 193.419 420.899 193.227 420.98C193.035 421.059 192.807 421.098 192.543 421.098C192.208 421.098 191.903 421.031 191.63 420.897C191.36 420.761 191.145 420.574 190.985 420.336C190.829 420.095 190.751 419.822 190.751 419.516C190.751 419.239 190.803 418.993 190.907 418.778C191.011 418.563 191.164 418.383 191.366 418.236C191.571 418.087 191.827 417.974 192.133 417.899C192.439 417.821 192.794 417.782 193.197 417.782H194.013ZM197.533 416.732V423.031H196.127V415.717H197.431L197.533 416.732ZM200.878 418.3V418.402C200.878 418.786 200.833 419.143 200.741 419.472C200.654 419.8 200.523 420.087 200.351 420.331C200.178 420.572 199.963 420.761 199.706 420.897C199.452 421.031 199.159 421.098 198.827 421.098C198.505 421.098 198.225 421.033 197.987 420.902C197.75 420.772 197.55 420.59 197.387 420.355C197.227 420.118 197.099 419.843 197.001 419.53C196.904 419.218 196.829 418.882 196.777 418.524V418.256C196.829 417.872 196.904 417.52 197.001 417.201C197.099 416.879 197.227 416.601 197.387 416.366C197.55 416.129 197.748 415.945 197.983 415.814C198.22 415.684 198.499 415.619 198.818 415.619C199.153 415.619 199.447 415.683 199.701 415.81C199.959 415.937 200.173 416.119 200.346 416.356C200.522 416.594 200.654 416.877 200.741 417.206C200.833 417.535 200.878 417.899 200.878 418.3ZM199.467 418.402V418.3C199.467 418.075 199.447 417.868 199.408 417.68C199.373 417.488 199.314 417.32 199.233 417.177C199.154 417.034 199.05 416.923 198.92 416.845C198.793 416.763 198.639 416.723 198.456 416.723C198.264 416.723 198.1 416.754 197.963 416.815C197.83 416.877 197.721 416.967 197.636 417.084C197.551 417.201 197.488 417.341 197.446 417.504C197.403 417.667 197.377 417.851 197.367 418.056V418.734C197.384 418.975 197.429 419.192 197.504 419.384C197.579 419.573 197.695 419.722 197.851 419.833C198.007 419.944 198.212 419.999 198.466 419.999C198.652 419.999 198.808 419.958 198.935 419.877C199.062 419.792 199.164 419.677 199.242 419.53C199.324 419.384 199.381 419.215 199.413 419.022C199.449 418.83 199.467 418.624 199.467 418.402ZM204.409 419.54C204.409 419.439 204.379 419.348 204.321 419.267C204.262 419.185 204.153 419.11 203.994 419.042C203.837 418.97 203.611 418.905 203.315 418.847C203.048 418.788 202.799 418.715 202.568 418.627C202.34 418.536 202.141 418.427 201.972 418.3C201.806 418.173 201.676 418.023 201.581 417.851C201.487 417.675 201.44 417.475 201.44 417.25C201.44 417.029 201.487 416.82 201.581 416.625C201.679 416.43 201.817 416.257 201.996 416.107C202.179 415.954 202.4 415.836 202.661 415.751C202.924 415.663 203.22 415.619 203.549 415.619C204.008 415.619 204.402 415.692 204.731 415.839C205.063 415.985 205.317 416.187 205.493 416.444C205.672 416.698 205.761 416.988 205.761 417.313H204.355C204.355 417.177 204.326 417.055 204.267 416.947C204.212 416.837 204.124 416.75 204.003 416.688C203.886 416.623 203.733 416.591 203.544 416.591C203.388 416.591 203.253 416.618 203.139 416.674C203.025 416.726 202.937 416.798 202.875 416.889C202.817 416.977 202.787 417.074 202.787 417.182C202.787 417.263 202.804 417.336 202.836 417.401C202.872 417.463 202.929 417.52 203.007 417.572C203.085 417.624 203.186 417.673 203.31 417.719C203.437 417.761 203.593 417.8 203.779 417.836C204.16 417.914 204.5 418.017 204.799 418.144C205.099 418.267 205.336 418.437 205.512 418.651C205.688 418.863 205.776 419.141 205.776 419.486C205.776 419.721 205.724 419.936 205.62 420.131C205.515 420.326 205.366 420.497 205.17 420.644C204.975 420.787 204.741 420.899 204.467 420.98C204.197 421.059 203.893 421.098 203.554 421.098C203.063 421.098 202.646 421.01 202.304 420.834C201.966 420.658 201.708 420.435 201.533 420.165C201.36 419.892 201.274 419.612 201.274 419.325H202.607C202.613 419.517 202.662 419.672 202.753 419.789C202.848 419.906 202.967 419.991 203.11 420.043C203.256 420.095 203.414 420.121 203.583 420.121C203.766 420.121 203.917 420.097 204.037 420.048C204.158 419.996 204.249 419.927 204.311 419.843C204.376 419.755 204.409 419.654 204.409 419.54ZM208.921 421.098C208.51 421.098 208.143 421.033 207.817 420.902C207.491 420.769 207.215 420.585 206.987 420.351C206.762 420.116 206.59 419.844 206.469 419.535C206.349 419.223 206.289 418.891 206.289 418.539V418.344C206.289 417.943 206.346 417.577 206.46 417.245C206.574 416.913 206.736 416.625 206.948 416.381C207.163 416.137 207.423 415.95 207.729 415.819C208.035 415.686 208.38 415.619 208.764 415.619C209.139 415.619 209.471 415.681 209.76 415.805C210.05 415.928 210.293 416.104 210.488 416.332C210.686 416.56 210.836 416.833 210.937 417.152C211.038 417.468 211.088 417.82 211.088 418.207V418.793H206.889V417.855H209.707V417.748C209.707 417.553 209.671 417.379 209.599 417.226C209.531 417.069 209.427 416.946 209.287 416.854C209.147 416.763 208.968 416.718 208.75 416.718C208.564 416.718 208.405 416.758 208.271 416.84C208.138 416.921 208.029 417.035 207.944 417.182C207.863 417.328 207.801 417.501 207.758 417.699C207.719 417.895 207.7 418.109 207.7 418.344V418.539C207.7 418.751 207.729 418.946 207.788 419.125C207.85 419.304 207.936 419.459 208.046 419.589C208.16 419.719 208.297 419.82 208.457 419.892C208.619 419.963 208.803 419.999 209.008 419.999C209.262 419.999 209.498 419.95 209.716 419.853C209.938 419.752 210.128 419.6 210.288 419.398L210.971 420.141C210.861 420.3 210.709 420.453 210.517 420.6C210.328 420.746 210.101 420.867 209.834 420.961C209.567 421.052 209.262 421.098 208.921 421.098ZM215.464 415.717V421H214.053V415.717H215.464ZM213.965 414.34C213.965 414.135 214.036 413.965 214.18 413.832C214.323 413.699 214.515 413.632 214.756 413.632C214.993 413.632 215.184 413.699 215.327 413.832C215.474 413.965 215.547 414.135 215.547 414.34C215.547 414.545 215.474 414.714 215.327 414.848C215.184 414.981 214.993 415.048 214.756 415.048C214.515 415.048 214.323 414.981 214.18 414.848C214.036 414.714 213.965 414.545 213.965 414.34ZM218.609 419.999C218.781 419.999 218.934 419.966 219.068 419.901C219.201 419.833 219.305 419.739 219.38 419.618C219.458 419.494 219.499 419.35 219.502 419.184H220.825C220.822 419.555 220.723 419.885 220.528 420.175C220.332 420.461 220.07 420.688 219.741 420.854C219.413 421.016 219.045 421.098 218.638 421.098C218.228 421.098 217.87 421.029 217.564 420.893C217.261 420.756 217.009 420.567 216.807 420.326C216.605 420.082 216.454 419.799 216.353 419.477C216.252 419.151 216.201 418.803 216.201 418.432V418.29C216.201 417.916 216.252 417.567 216.353 417.245C216.454 416.92 216.605 416.636 216.807 416.396C217.009 416.151 217.261 415.961 217.564 415.824C217.866 415.688 218.221 415.619 218.628 415.619C219.061 415.619 219.44 415.702 219.766 415.868C220.095 416.034 220.352 416.272 220.537 416.581C220.726 416.887 220.822 417.25 220.825 417.67H219.502C219.499 417.494 219.461 417.335 219.39 417.191C219.321 417.048 219.221 416.934 219.087 416.85C218.957 416.762 218.796 416.718 218.604 416.718C218.399 416.718 218.231 416.762 218.101 416.85C217.971 416.934 217.87 417.051 217.798 417.201C217.726 417.348 217.676 417.515 217.647 417.704C217.621 417.89 217.608 418.085 217.608 418.29V418.432C217.608 418.637 217.621 418.834 217.647 419.022C217.673 419.211 217.722 419.379 217.793 419.525C217.868 419.672 217.971 419.787 218.101 419.872C218.231 419.957 218.4 419.999 218.609 419.999ZM221.216 418.412V418.31C221.216 417.922 221.272 417.566 221.382 417.24C221.493 416.911 221.654 416.627 221.866 416.386C222.077 416.145 222.338 415.958 222.647 415.824C222.956 415.688 223.311 415.619 223.711 415.619C224.112 415.619 224.468 415.688 224.781 415.824C225.093 415.958 225.355 416.145 225.567 416.386C225.782 416.627 225.944 416.911 226.055 417.24C226.166 417.566 226.221 417.922 226.221 418.31V418.412C226.221 418.796 226.166 419.153 226.055 419.481C225.944 419.807 225.782 420.092 225.567 420.336C225.355 420.577 225.095 420.764 224.786 420.897C224.476 421.031 224.121 421.098 223.721 421.098C223.321 421.098 222.964 421.031 222.652 420.897C222.343 420.764 222.08 420.577 221.866 420.336C221.654 420.092 221.493 419.807 221.382 419.481C221.272 419.153 221.216 418.796 221.216 418.412ZM222.622 418.31V418.412C222.622 418.633 222.642 418.84 222.681 419.032C222.72 419.224 222.782 419.394 222.867 419.54C222.954 419.683 223.068 419.796 223.208 419.877C223.348 419.958 223.519 419.999 223.721 419.999C223.916 419.999 224.084 419.958 224.224 419.877C224.364 419.796 224.476 419.683 224.561 419.54C224.646 419.394 224.707 419.224 224.746 419.032C224.789 418.84 224.81 418.633 224.81 418.412V418.31C224.81 418.095 224.789 417.893 224.746 417.704C224.707 417.512 224.644 417.343 224.556 417.196C224.471 417.047 224.359 416.929 224.219 416.845C224.079 416.76 223.91 416.718 223.711 416.718C223.513 416.718 223.343 416.76 223.204 416.845C223.067 416.929 222.954 417.047 222.867 417.196C222.782 417.343 222.72 417.512 222.681 417.704C222.642 417.893 222.622 418.095 222.622 418.31ZM228.262 416.845V421H226.856V415.717H228.174L228.262 416.845ZM228.057 418.173H227.676C227.676 417.782 227.727 417.431 227.828 417.118C227.929 416.802 228.07 416.534 228.253 416.312C228.435 416.088 228.651 415.917 228.902 415.8C229.156 415.679 229.439 415.619 229.752 415.619C229.999 415.619 230.225 415.655 230.43 415.727C230.635 415.798 230.811 415.912 230.958 416.068C231.107 416.225 231.221 416.431 231.299 416.688C231.381 416.946 231.421 417.26 231.421 417.631V421H230.005V417.626C230.005 417.392 229.973 417.209 229.908 417.079C229.843 416.949 229.747 416.858 229.62 416.806C229.496 416.75 229.343 416.723 229.161 416.723C228.972 416.723 228.808 416.76 228.668 416.835C228.531 416.91 228.417 417.014 228.326 417.147C228.238 417.278 228.171 417.431 228.126 417.606C228.08 417.782 228.057 417.971 228.057 418.173Z" fill="white"/>
<rect x="148" y="172" width="32" height="16" rx="8" fill="#286EF1"/>
<path d="M161.29 181.052C161.29 181.498 161.186 181.874 160.977 182.18C160.769 182.482 160.483 182.712 160.118 182.868C159.757 183.021 159.346 183.098 158.887 183.098C158.429 183.098 158.017 183.021 157.652 182.868C157.288 182.712 156.999 182.482 156.788 182.18C156.576 181.874 156.471 181.498 156.471 181.052C156.471 180.752 156.531 180.482 156.651 180.241C156.772 179.997 156.939 179.789 157.154 179.616C157.372 179.44 157.628 179.307 157.921 179.216C158.214 179.121 158.533 179.074 158.878 179.074C159.34 179.074 159.753 179.156 160.118 179.318C160.483 179.481 160.769 179.711 160.977 180.007C161.186 180.303 161.29 180.651 161.29 181.052ZM159.874 180.959C159.874 180.741 159.832 180.554 159.747 180.397C159.665 180.238 159.55 180.116 159.4 180.031C159.25 179.947 159.076 179.904 158.878 179.904C158.679 179.904 158.505 179.947 158.355 180.031C158.206 180.116 158.088 180.238 158.004 180.397C157.922 180.554 157.882 180.741 157.882 180.959C157.882 181.174 157.922 181.359 158.004 181.516C158.088 181.672 158.206 181.792 158.355 181.877C158.508 181.958 158.686 181.999 158.887 181.999C159.089 181.999 159.263 181.958 159.41 181.877C159.56 181.792 159.674 181.672 159.752 181.516C159.833 181.359 159.874 181.174 159.874 180.959ZM161.138 177.775C161.138 178.137 161.042 178.457 160.85 178.737C160.658 179.014 160.391 179.23 160.05 179.387C159.711 179.543 159.324 179.621 158.887 179.621C158.448 179.621 158.057 179.543 157.716 179.387C157.374 179.23 157.107 179.014 156.915 178.737C156.723 178.457 156.627 178.137 156.627 177.775C156.627 177.346 156.723 176.984 156.915 176.691C157.11 176.395 157.377 176.171 157.716 176.018C158.057 175.865 158.445 175.788 158.878 175.788C159.317 175.788 159.706 175.865 160.045 176.018C160.387 176.171 160.653 176.395 160.846 176.691C161.041 176.984 161.138 177.346 161.138 177.775ZM159.732 177.839C159.732 177.647 159.698 177.481 159.63 177.341C159.561 177.198 159.464 177.087 159.337 177.009C159.213 176.931 159.06 176.892 158.878 176.892C158.702 176.892 158.551 176.929 158.424 177.004C158.3 177.079 158.204 177.188 158.136 177.331C158.07 177.471 158.038 177.64 158.038 177.839C158.038 178.031 158.07 178.2 158.136 178.347C158.204 178.49 158.302 178.602 158.429 178.684C158.555 178.765 158.708 178.806 158.887 178.806C159.067 178.806 159.218 178.765 159.342 178.684C159.469 178.602 159.565 178.49 159.63 178.347C159.698 178.2 159.732 178.031 159.732 177.839ZM163.507 178.732V185.031H162.101V177.717H163.404L163.507 178.732ZM166.852 180.3V180.402C166.852 180.786 166.806 181.143 166.715 181.472C166.627 181.8 166.497 182.087 166.324 182.331C166.152 182.572 165.937 182.761 165.68 182.897C165.426 183.031 165.133 183.098 164.801 183.098C164.479 183.098 164.199 183.033 163.961 182.902C163.723 182.772 163.523 182.59 163.36 182.355C163.201 182.118 163.072 181.843 162.975 181.53C162.877 181.218 162.802 180.882 162.75 180.524V180.256C162.802 179.872 162.877 179.52 162.975 179.201C163.072 178.879 163.201 178.601 163.36 178.366C163.523 178.129 163.722 177.945 163.956 177.814C164.194 177.684 164.472 177.619 164.791 177.619C165.126 177.619 165.421 177.683 165.675 177.81C165.932 177.937 166.147 178.119 166.319 178.356C166.495 178.594 166.627 178.877 166.715 179.206C166.806 179.535 166.852 179.899 166.852 180.3ZM165.44 180.402V180.3C165.44 180.075 165.421 179.868 165.382 179.68C165.346 179.488 165.287 179.32 165.206 179.177C165.128 179.034 165.024 178.923 164.894 178.845C164.767 178.763 164.612 178.723 164.43 178.723C164.238 178.723 164.073 178.754 163.937 178.815C163.803 178.877 163.694 178.967 163.609 179.084C163.525 179.201 163.461 179.341 163.419 179.504C163.377 179.667 163.351 179.851 163.341 180.056V180.734C163.357 180.975 163.403 181.192 163.478 181.384C163.552 181.573 163.668 181.722 163.824 181.833C163.98 181.944 164.186 181.999 164.439 181.999C164.625 181.999 164.781 181.958 164.908 181.877C165.035 181.792 165.138 181.677 165.216 181.53C165.297 181.384 165.354 181.215 165.387 181.022C165.423 180.83 165.44 180.624 165.44 180.402ZM168.58 177.717L169.454 179.323L170.353 177.717H171.852L170.358 180.3L171.92 183H170.416L169.464 181.301L168.512 183H167.008L168.571 180.3L167.076 177.717H168.58Z" fill="white"/>
<rect x="236" y="172" width="32" height="16" rx="8" fill="#286EF1"/>
<path d="M249.48 180.344V181.447H244.358L244.29 180.593L247.254 175.891H248.372L247.161 177.917L245.686 180.344H249.48ZM248.675 175.891V183H247.268V175.891H248.675ZM251.507 178.732V185.031H250.101V177.717H251.404L251.507 178.732ZM254.852 180.3V180.402C254.852 180.786 254.806 181.143 254.715 181.472C254.627 181.8 254.497 182.087 254.324 182.331C254.152 182.572 253.937 182.761 253.68 182.897C253.426 183.031 253.133 183.098 252.801 183.098C252.479 183.098 252.199 183.033 251.961 182.902C251.723 182.772 251.523 182.59 251.36 182.355C251.201 182.118 251.072 181.843 250.975 181.53C250.877 181.218 250.802 180.882 250.75 180.524V180.256C250.802 179.872 250.877 179.52 250.975 179.201C251.072 178.879 251.201 178.601 251.36 178.366C251.523 178.129 251.722 177.945 251.956 177.814C252.194 177.684 252.472 177.619 252.791 177.619C253.126 177.619 253.421 177.683 253.675 177.81C253.932 177.937 254.147 178.119 254.319 178.356C254.495 178.594 254.627 178.877 254.715 179.206C254.806 179.535 254.852 179.899 254.852 180.3ZM253.44 180.402V180.3C253.44 180.075 253.421 179.868 253.382 179.68C253.346 179.488 253.287 179.32 253.206 179.177C253.128 179.034 253.024 178.923 252.894 178.845C252.767 178.763 252.612 178.723 252.43 178.723C252.238 178.723 252.073 178.754 251.937 178.815C251.803 178.877 251.694 178.967 251.609 179.084C251.525 179.201 251.461 179.341 251.419 179.504C251.377 179.667 251.351 179.851 251.341 180.056V180.734C251.357 180.975 251.403 181.192 251.478 181.384C251.552 181.573 251.668 181.722 251.824 181.833C251.98 181.944 252.186 181.999 252.439 181.999C252.625 181.999 252.781 181.958 252.908 181.877C253.035 181.792 253.138 181.677 253.216 181.53C253.297 181.384 253.354 181.215 253.387 181.022C253.423 180.83 253.44 180.624 253.44 180.402ZM256.58 177.717L257.454 179.323L258.353 177.717H259.852L258.358 180.3L259.92 183H258.416L257.464 181.301L256.512 183H255.008L256.571 180.3L255.076 177.717H256.58Z" fill="white"/>
<path d="M254 196V260M258 260V196" stroke="#0059FF" stroke-dasharray="2 2"/>
<path d="M222 196V260M230 260V196" stroke="#0059FF" stroke-dasharray="2 2"/>
<path d="M194 196V260M202 260V196" stroke="#0059FF" stroke-dasharray="2 2"/>
<path d="M162 196V260M170 260V196" stroke="#0059FF" stroke-dasharray="2 2"/>
<path d="M474 196V260M482 260V196" stroke="#0059FF" stroke-dasharray="2 2"/>
<path d="M492 208L152 208M152 216L492 216" stroke="#0059FF" stroke-dasharray="2 2"/>
<path d="M492 240L152 240M152 248L492 248" stroke="#0059FF" stroke-dasharray="2 2"/>
<rect x="272" y="330" width="40" height="16" rx="8" fill="#286EF1"/>
<path d="M285.388 339.857V341H281.809V339.857H285.388ZM282.283 333.891V341H280.818V333.891H282.283ZM288.792 339.809V337.455C288.792 337.286 288.764 337.141 288.709 337.021C288.653 336.897 288.567 336.801 288.45 336.732C288.336 336.664 288.188 336.63 288.006 336.63C287.849 336.63 287.714 336.658 287.6 336.713C287.486 336.765 287.399 336.841 287.337 336.942C287.275 337.04 287.244 337.156 287.244 337.289H285.838C285.838 337.064 285.89 336.851 285.994 336.649C286.098 336.448 286.249 336.27 286.448 336.117C286.647 335.961 286.883 335.839 287.156 335.751C287.433 335.663 287.742 335.619 288.084 335.619C288.494 335.619 288.859 335.688 289.178 335.824C289.497 335.961 289.747 336.166 289.929 336.439C290.115 336.713 290.208 337.055 290.208 337.465V339.726C290.208 340.015 290.226 340.253 290.262 340.438C290.297 340.621 290.349 340.78 290.418 340.917V341H288.997C288.929 340.857 288.876 340.678 288.841 340.463C288.808 340.245 288.792 340.027 288.792 339.809ZM288.977 337.782L288.987 338.578H288.201C288.015 338.578 287.854 338.599 287.718 338.642C287.581 338.684 287.469 338.744 287.381 338.822C287.293 338.897 287.228 338.985 287.185 339.086C287.146 339.187 287.127 339.298 287.127 339.418C287.127 339.538 287.154 339.647 287.21 339.745C287.265 339.84 287.345 339.914 287.449 339.97C287.553 340.022 287.675 340.048 287.815 340.048C288.027 340.048 288.211 340.006 288.367 339.921C288.523 339.836 288.644 339.732 288.728 339.608C288.816 339.485 288.862 339.368 288.865 339.257L289.236 339.853C289.184 339.986 289.112 340.124 289.021 340.268C288.933 340.411 288.821 340.546 288.684 340.673C288.548 340.797 288.383 340.899 288.191 340.98C287.999 341.059 287.771 341.098 287.508 341.098C287.172 341.098 286.868 341.031 286.595 340.897C286.324 340.761 286.11 340.574 285.95 340.336C285.794 340.095 285.716 339.822 285.716 339.516C285.716 339.239 285.768 338.993 285.872 338.778C285.976 338.563 286.129 338.383 286.331 338.236C286.536 338.087 286.791 337.974 287.097 337.899C287.403 337.821 287.758 337.782 288.162 337.782H288.977ZM291.092 333.5H292.498V339.789L292.356 341H291.092V333.5ZM295.843 338.305V338.407C295.843 338.801 295.8 339.162 295.716 339.491C295.634 339.82 295.507 340.105 295.335 340.346C295.162 340.583 294.948 340.769 294.69 340.902C294.437 341.033 294.137 341.098 293.792 341.098C293.47 341.098 293.19 341.033 292.952 340.902C292.718 340.772 292.521 340.588 292.361 340.351C292.202 340.113 292.073 339.835 291.976 339.516C291.878 339.197 291.805 338.848 291.756 338.471V338.246C291.805 337.868 291.878 337.52 291.976 337.201C292.073 336.882 292.202 336.604 292.361 336.366C292.521 336.129 292.718 335.945 292.952 335.814C293.187 335.684 293.463 335.619 293.782 335.619C294.131 335.619 294.433 335.686 294.69 335.819C294.951 335.95 295.166 336.135 295.335 336.376C295.507 336.614 295.634 336.897 295.716 337.226C295.8 337.551 295.843 337.911 295.843 338.305ZM294.437 338.407V338.305C294.437 338.09 294.42 337.888 294.388 337.699C294.358 337.507 294.306 337.34 294.231 337.196C294.157 337.05 294.054 336.934 293.924 336.85C293.797 336.765 293.632 336.723 293.431 336.723C293.239 336.723 293.076 336.755 292.942 336.82C292.809 336.885 292.698 336.977 292.61 337.094C292.526 337.211 292.462 337.351 292.42 337.514C292.378 337.673 292.352 337.849 292.342 338.041V338.681C292.352 338.938 292.394 339.166 292.469 339.364C292.547 339.56 292.664 339.714 292.82 339.828C292.98 339.939 293.187 339.994 293.44 339.994C293.639 339.994 293.803 339.955 293.934 339.877C294.064 339.799 294.165 339.688 294.236 339.545C294.311 339.402 294.363 339.234 294.393 339.042C294.422 338.847 294.437 338.635 294.437 338.407ZM298.948 341.098C298.538 341.098 298.17 341.033 297.845 340.902C297.519 340.769 297.243 340.585 297.015 340.351C296.79 340.116 296.618 339.844 296.497 339.535C296.377 339.223 296.317 338.891 296.317 338.539V338.344C296.317 337.943 296.374 337.577 296.487 337.245C296.601 336.913 296.764 336.625 296.976 336.381C297.191 336.137 297.451 335.95 297.757 335.819C298.063 335.686 298.408 335.619 298.792 335.619C299.167 335.619 299.499 335.681 299.788 335.805C300.078 335.928 300.321 336.104 300.516 336.332C300.714 336.56 300.864 336.833 300.965 337.152C301.066 337.468 301.116 337.82 301.116 338.207V338.793H296.917V337.855H299.735V337.748C299.735 337.553 299.699 337.379 299.627 337.226C299.559 337.069 299.455 336.946 299.315 336.854C299.175 336.763 298.996 336.718 298.778 336.718C298.592 336.718 298.432 336.758 298.299 336.84C298.166 336.921 298.057 337.035 297.972 337.182C297.89 337.328 297.829 337.501 297.786 337.699C297.747 337.895 297.728 338.109 297.728 338.344V338.539C297.728 338.751 297.757 338.946 297.816 339.125C297.877 339.304 297.964 339.459 298.074 339.589C298.188 339.719 298.325 339.82 298.485 339.892C298.647 339.963 298.831 339.999 299.036 339.999C299.29 339.999 299.526 339.95 299.744 339.853C299.966 339.752 300.156 339.6 300.316 339.398L300.999 340.141C300.889 340.3 300.737 340.453 300.545 340.6C300.356 340.746 300.128 340.867 299.862 340.961C299.595 341.052 299.29 341.098 298.948 341.098ZM303.202 333.5V341H301.79V333.5H303.202Z" fill="white"/>
<path d="M292 363.333C290.527 363.333 289.333 364.527 289.333 366C289.333 367.473 290.527 368.667 292 368.667C293.473 368.667 294.667 367.473 294.667 366C294.667 364.527 293.473 363.333 292 363.333ZM291.5 346V366H292.5V346H291.5Z" fill="#0059FF"/>
<rect x="170.5" y="366.5" width="23" height="23" stroke="#0059FF" stroke-dasharray="2 2"/>
<rect x="200.5" y="366.5" width="23" height="23" stroke="#0059FF" stroke-dasharray="2 2"/>
<rect x="230.5" y="366.5" width="23" height="23" stroke="#0059FF" stroke-dasharray="2 2"/>
<rect x="258.5" y="366.5" width="215" height="23" stroke="#0059FF" stroke-dasharray="2 2"/>
</svg>
