<svg width="640" height="640" viewBox="0 0 640 640" fill="none" xmlns="http://www.w3.org/2000/svg">
<rect width="640" height="640" rx="16" fill="#F7F7F7"/>
<rect x="169" y="146" width="344" height="352" rx="16" fill="white"/>
<rect x="193" y="170" width="296" height="40" rx="8" fill="white"/>
<path d="M210.75 195C210.547 195 210.367 194.933 210.211 194.799C210.07 194.65 210 194.479 210 194.286C210 194.092 210.07 193.921 210.211 193.772L214.195 190L210.211 186.228C210.07 186.079 210 185.908 210 185.714C210 185.521 210.07 185.35 210.211 185.201C210.367 185.067 210.547 185 210.75 185C210.953 185 211.133 185.067 211.289 185.201L215.789 189.487C215.93 189.635 216 189.807 216 190C216 190.193 215.93 190.365 215.789 190.513L211.289 194.799C211.133 194.933 210.953 195 210.75 195Z" fill="#737373"/>
<path d="M238.178 184.336V195H236.787V184.336H238.178ZM241.606 184.336V185.493H233.366V184.336H241.606ZM243.781 188.32V195H242.426V187.075H243.745L243.781 188.32ZM246.257 187.031L246.25 188.291C246.137 188.267 246.03 188.252 245.927 188.247C245.83 188.237 245.717 188.232 245.59 188.232C245.278 188.232 245.002 188.281 244.763 188.379C244.523 188.477 244.321 188.613 244.155 188.789C243.989 188.965 243.857 189.175 243.759 189.419C243.667 189.658 243.605 189.922 243.576 190.21L243.195 190.43C243.195 189.951 243.242 189.502 243.334 189.082C243.432 188.662 243.581 188.291 243.781 187.969C243.981 187.642 244.235 187.388 244.543 187.207C244.855 187.021 245.227 186.929 245.656 186.929C245.754 186.929 245.866 186.941 245.993 186.965C246.12 186.985 246.208 187.007 246.257 187.031ZM250.651 195.146C250.1 195.146 249.599 195.054 249.15 194.868C248.706 194.678 248.322 194.412 248 194.07C247.683 193.728 247.438 193.323 247.268 192.854C247.097 192.385 247.011 191.873 247.011 191.316V191.008C247.011 190.364 247.106 189.79 247.297 189.287C247.487 188.779 247.746 188.35 248.073 187.998C248.4 187.646 248.771 187.38 249.187 187.2C249.602 187.019 250.031 186.929 250.476 186.929C251.042 186.929 251.53 187.026 251.94 187.222C252.355 187.417 252.695 187.69 252.958 188.042C253.222 188.389 253.417 188.799 253.544 189.272C253.671 189.741 253.735 190.254 253.735 190.811V191.418H247.817V190.312H252.38V190.21C252.36 189.858 252.287 189.517 252.16 189.185C252.038 188.853 251.843 188.579 251.574 188.364C251.306 188.149 250.939 188.042 250.476 188.042C250.168 188.042 249.885 188.108 249.626 188.24C249.367 188.367 249.145 188.557 248.959 188.811C248.774 189.065 248.63 189.375 248.527 189.741C248.425 190.107 248.374 190.53 248.374 191.008V191.316C248.374 191.692 248.425 192.046 248.527 192.378C248.635 192.705 248.789 192.993 248.989 193.242C249.194 193.491 249.44 193.687 249.729 193.828C250.021 193.97 250.354 194.041 250.725 194.041C251.203 194.041 251.608 193.943 251.94 193.748C252.272 193.552 252.563 193.291 252.812 192.964L253.632 193.616C253.461 193.875 253.244 194.121 252.98 194.355C252.717 194.59 252.392 194.78 252.006 194.927C251.625 195.073 251.174 195.146 250.651 195.146ZM258.605 195.146C258.054 195.146 257.553 195.054 257.104 194.868C256.66 194.678 256.276 194.412 255.954 194.07C255.637 193.728 255.393 193.323 255.222 192.854C255.051 192.385 254.965 191.873 254.965 191.316V191.008C254.965 190.364 255.061 189.79 255.251 189.287C255.441 188.779 255.7 188.35 256.027 187.998C256.354 187.646 256.726 187.38 257.141 187.2C257.556 187.019 257.985 186.929 258.43 186.929C258.996 186.929 259.484 187.026 259.895 187.222C260.31 187.417 260.649 187.69 260.913 188.042C261.176 188.389 261.372 188.799 261.499 189.272C261.625 189.741 261.689 190.254 261.689 190.811V191.418H255.771V190.312H260.334V190.21C260.314 189.858 260.241 189.517 260.114 189.185C259.992 188.853 259.797 188.579 259.528 188.364C259.26 188.149 258.894 188.042 258.43 188.042C258.122 188.042 257.839 188.108 257.58 188.24C257.321 188.367 257.099 188.557 256.914 188.811C256.728 189.065 256.584 189.375 256.481 189.741C256.379 190.107 256.328 190.53 256.328 191.008V191.316C256.328 191.692 256.379 192.046 256.481 192.378C256.589 192.705 256.743 192.993 256.943 193.242C257.148 193.491 257.395 193.687 257.683 193.828C257.976 193.97 258.308 194.041 258.679 194.041C259.157 194.041 259.562 193.943 259.895 193.748C260.227 193.552 260.517 193.291 260.766 192.964L261.586 193.616C261.416 193.875 261.198 194.121 260.935 194.355C260.671 194.59 260.346 194.78 259.96 194.927C259.58 195.073 259.128 195.146 258.605 195.146ZM268.464 187.075V195H267.102V187.075H268.464ZM266.999 184.973C266.999 184.753 267.065 184.568 267.197 184.417C267.333 184.265 267.534 184.189 267.797 184.189C268.056 184.189 268.254 184.265 268.391 184.417C268.532 184.568 268.603 184.753 268.603 184.973C268.603 185.183 268.532 185.364 268.391 185.515C268.254 185.662 268.056 185.735 267.797 185.735C267.534 185.735 267.333 185.662 267.197 185.515C267.065 185.364 266.999 185.183 266.999 184.973ZM273.957 187.075V188.115H269.672V187.075H273.957ZM271.123 185.149H272.478V193.037C272.478 193.306 272.519 193.508 272.602 193.645C272.685 193.782 272.792 193.872 272.924 193.916C273.056 193.96 273.198 193.982 273.349 193.982C273.461 193.982 273.579 193.972 273.701 193.953C273.828 193.928 273.923 193.909 273.986 193.894L273.994 195C273.886 195.034 273.745 195.066 273.569 195.095C273.398 195.129 273.19 195.146 272.946 195.146C272.614 195.146 272.309 195.081 272.031 194.949C271.752 194.817 271.53 194.597 271.364 194.29C271.203 193.977 271.123 193.557 271.123 193.03V185.149ZM278.835 195.146C278.283 195.146 277.783 195.054 277.333 194.868C276.889 194.678 276.506 194.412 276.184 194.07C275.866 193.728 275.622 193.323 275.451 192.854C275.28 192.385 275.195 191.873 275.195 191.316V191.008C275.195 190.364 275.29 189.79 275.48 189.287C275.671 188.779 275.93 188.35 276.257 187.998C276.584 187.646 276.955 187.38 277.37 187.2C277.785 187.019 278.215 186.929 278.659 186.929C279.226 186.929 279.714 187.026 280.124 187.222C280.539 187.417 280.878 187.69 281.142 188.042C281.406 188.389 281.601 188.799 281.728 189.272C281.855 189.741 281.918 190.254 281.918 190.811V191.418H276V190.312H280.563V190.21C280.544 189.858 280.471 189.517 280.344 189.185C280.222 188.853 280.026 188.579 279.758 188.364C279.489 188.149 279.123 188.042 278.659 188.042C278.352 188.042 278.068 188.108 277.81 188.24C277.551 188.367 277.329 188.557 277.143 188.811C276.958 189.065 276.813 189.375 276.711 189.741C276.608 190.107 276.557 190.53 276.557 191.008V191.316C276.557 191.692 276.608 192.046 276.711 192.378C276.818 192.705 276.972 192.993 277.172 193.242C277.377 193.491 277.624 193.687 277.912 193.828C278.205 193.97 278.537 194.041 278.908 194.041C279.387 194.041 279.792 193.943 280.124 193.748C280.456 193.552 280.747 193.291 280.996 192.964L281.816 193.616C281.645 193.875 281.428 194.121 281.164 194.355C280.9 194.59 280.576 194.78 280.19 194.927C279.809 195.073 279.357 195.146 278.835 195.146ZM284.848 188.65V195H283.486V187.075H284.775L284.848 188.65ZM284.57 190.737L283.94 190.715C283.945 190.173 284.016 189.673 284.152 189.214C284.289 188.75 284.492 188.347 284.76 188.005C285.029 187.664 285.363 187.4 285.764 187.214C286.164 187.024 286.628 186.929 287.155 186.929C287.526 186.929 287.868 186.982 288.181 187.09C288.493 187.192 288.764 187.356 288.994 187.581C289.223 187.805 289.401 188.093 289.528 188.445C289.655 188.796 289.719 189.221 289.719 189.719V195H288.364V189.785C288.364 189.37 288.293 189.038 288.151 188.789C288.015 188.54 287.819 188.359 287.565 188.247C287.312 188.13 287.014 188.071 286.672 188.071C286.271 188.071 285.937 188.142 285.668 188.284C285.4 188.425 285.185 188.621 285.024 188.87C284.863 189.119 284.746 189.404 284.672 189.727C284.604 190.044 284.57 190.381 284.57 190.737ZM289.704 189.99L288.796 190.269C288.801 189.834 288.872 189.417 289.008 189.016C289.15 188.616 289.353 188.259 289.616 187.947C289.885 187.634 290.214 187.388 290.605 187.207C290.996 187.021 291.442 186.929 291.945 186.929C292.37 186.929 292.746 186.985 293.073 187.097C293.405 187.209 293.684 187.383 293.908 187.617C294.138 187.847 294.311 188.142 294.428 188.503C294.545 188.865 294.604 189.294 294.604 189.792V195H293.242V189.778C293.242 189.333 293.171 188.989 293.029 188.745C292.893 188.496 292.697 188.323 292.443 188.225C292.194 188.123 291.896 188.071 291.55 188.071C291.252 188.071 290.988 188.123 290.759 188.225C290.529 188.328 290.336 188.469 290.18 188.65C290.024 188.826 289.904 189.028 289.821 189.258C289.743 189.487 289.704 189.731 289.704 189.99Z" fill="#505050"/>
<rect x="193" y="214" width="296" height="40" rx="8" fill="#F2F2F2"/>
<path d="M213 237C212.817 237 212.634 236.927 212.495 236.78L208.209 232.28C207.93 231.987 207.93 231.513 208.209 231.22C208.488 230.927 208.94 230.927 209.219 231.22L213 235.191L216.781 231.22C217.06 230.927 217.512 230.927 217.791 231.22C218.07 231.513 218.07 231.988 217.791 232.281L213.505 236.781C213.366 236.927 213.183 237 213 237Z" fill="#737373"/>
<path d="M238.178 228.336V239H236.787V228.336H238.178ZM241.606 228.336V229.493H233.366V228.336H241.606ZM243.781 232.32V239H242.426V231.075H243.745L243.781 232.32ZM246.257 231.031L246.25 232.291C246.137 232.267 246.03 232.252 245.927 232.247C245.83 232.237 245.717 232.232 245.59 232.232C245.278 232.232 245.002 232.281 244.763 232.379C244.523 232.477 244.321 232.613 244.155 232.789C243.989 232.965 243.857 233.175 243.759 233.419C243.667 233.658 243.605 233.922 243.576 234.21L243.195 234.43C243.195 233.951 243.242 233.502 243.334 233.082C243.432 232.662 243.581 232.291 243.781 231.969C243.981 231.642 244.235 231.388 244.543 231.207C244.855 231.021 245.227 230.929 245.656 230.929C245.754 230.929 245.866 230.941 245.993 230.965C246.12 230.985 246.208 231.007 246.257 231.031ZM250.651 239.146C250.1 239.146 249.599 239.054 249.15 238.868C248.706 238.678 248.322 238.412 248 238.07C247.683 237.728 247.438 237.323 247.268 236.854C247.097 236.385 247.011 235.873 247.011 235.316V235.008C247.011 234.364 247.106 233.79 247.297 233.287C247.487 232.779 247.746 232.35 248.073 231.998C248.4 231.646 248.771 231.38 249.187 231.2C249.602 231.019 250.031 230.929 250.476 230.929C251.042 230.929 251.53 231.026 251.94 231.222C252.355 231.417 252.695 231.69 252.958 232.042C253.222 232.389 253.417 232.799 253.544 233.272C253.671 233.741 253.735 234.254 253.735 234.811V235.418H247.817V234.312H252.38V234.21C252.36 233.858 252.287 233.517 252.16 233.185C252.038 232.853 251.843 232.579 251.574 232.364C251.306 232.149 250.939 232.042 250.476 232.042C250.168 232.042 249.885 232.108 249.626 232.24C249.367 232.367 249.145 232.557 248.959 232.811C248.774 233.065 248.63 233.375 248.527 233.741C248.425 234.107 248.374 234.53 248.374 235.008V235.316C248.374 235.692 248.425 236.046 248.527 236.378C248.635 236.705 248.789 236.993 248.989 237.242C249.194 237.491 249.44 237.687 249.729 237.828C250.021 237.97 250.354 238.041 250.725 238.041C251.203 238.041 251.608 237.943 251.94 237.748C252.272 237.552 252.563 237.291 252.812 236.964L253.632 237.616C253.461 237.875 253.244 238.121 252.98 238.355C252.717 238.59 252.392 238.78 252.006 238.927C251.625 239.073 251.174 239.146 250.651 239.146ZM258.605 239.146C258.054 239.146 257.553 239.054 257.104 238.868C256.66 238.678 256.276 238.412 255.954 238.07C255.637 237.728 255.393 237.323 255.222 236.854C255.051 236.385 254.965 235.873 254.965 235.316V235.008C254.965 234.364 255.061 233.79 255.251 233.287C255.441 232.779 255.7 232.35 256.027 231.998C256.354 231.646 256.726 231.38 257.141 231.2C257.556 231.019 257.985 230.929 258.43 230.929C258.996 230.929 259.484 231.026 259.895 231.222C260.31 231.417 260.649 231.69 260.913 232.042C261.176 232.389 261.372 232.799 261.499 233.272C261.625 233.741 261.689 234.254 261.689 234.811V235.418H255.771V234.312H260.334V234.21C260.314 233.858 260.241 233.517 260.114 233.185C259.992 232.853 259.797 232.579 259.528 232.364C259.26 232.149 258.894 232.042 258.43 232.042C258.122 232.042 257.839 232.108 257.58 232.24C257.321 232.367 257.099 232.557 256.914 232.811C256.728 233.065 256.584 233.375 256.481 233.741C256.379 234.107 256.328 234.53 256.328 235.008V235.316C256.328 235.692 256.379 236.046 256.481 236.378C256.589 236.705 256.743 236.993 256.943 237.242C257.148 237.491 257.395 237.687 257.683 237.828C257.976 237.97 258.308 238.041 258.679 238.041C259.157 238.041 259.562 237.943 259.895 237.748C260.227 237.552 260.517 237.291 260.766 236.964L261.586 237.616C261.416 237.875 261.198 238.121 260.935 238.355C260.671 238.59 260.346 238.78 259.96 238.927C259.58 239.073 259.128 239.146 258.605 239.146ZM268.464 231.075V239H267.102V231.075H268.464ZM266.999 228.973C266.999 228.753 267.065 228.568 267.197 228.417C267.333 228.265 267.534 228.189 267.797 228.189C268.056 228.189 268.254 228.265 268.391 228.417C268.532 228.568 268.603 228.753 268.603 228.973C268.603 229.183 268.532 229.364 268.391 229.515C268.254 229.662 268.056 229.735 267.797 229.735C267.534 229.735 267.333 229.662 267.197 229.515C267.065 229.364 266.999 229.183 266.999 228.973ZM273.957 231.075V232.115H269.672V231.075H273.957ZM271.123 229.149H272.478V237.037C272.478 237.306 272.519 237.508 272.602 237.645C272.685 237.782 272.792 237.872 272.924 237.916C273.056 237.96 273.198 237.982 273.349 237.982C273.461 237.982 273.579 237.972 273.701 237.953C273.828 237.928 273.923 237.909 273.986 237.894L273.994 239C273.886 239.034 273.745 239.066 273.569 239.095C273.398 239.129 273.19 239.146 272.946 239.146C272.614 239.146 272.309 239.081 272.031 238.949C271.752 238.817 271.53 238.597 271.364 238.29C271.203 237.977 271.123 237.557 271.123 237.03V229.149ZM278.835 239.146C278.283 239.146 277.783 239.054 277.333 238.868C276.889 238.678 276.506 238.412 276.184 238.07C275.866 237.728 275.622 237.323 275.451 236.854C275.28 236.385 275.195 235.873 275.195 235.316V235.008C275.195 234.364 275.29 233.79 275.48 233.287C275.671 232.779 275.93 232.35 276.257 231.998C276.584 231.646 276.955 231.38 277.37 231.2C277.785 231.019 278.215 230.929 278.659 230.929C279.226 230.929 279.714 231.026 280.124 231.222C280.539 231.417 280.878 231.69 281.142 232.042C281.406 232.389 281.601 232.799 281.728 233.272C281.855 233.741 281.918 234.254 281.918 234.811V235.418H276V234.312H280.563V234.21C280.544 233.858 280.471 233.517 280.344 233.185C280.222 232.853 280.026 232.579 279.758 232.364C279.489 232.149 279.123 232.042 278.659 232.042C278.352 232.042 278.068 232.108 277.81 232.24C277.551 232.367 277.329 232.557 277.143 232.811C276.958 233.065 276.813 233.375 276.711 233.741C276.608 234.107 276.557 234.53 276.557 235.008V235.316C276.557 235.692 276.608 236.046 276.711 236.378C276.818 236.705 276.972 236.993 277.172 237.242C277.377 237.491 277.624 237.687 277.912 237.828C278.205 237.97 278.537 238.041 278.908 238.041C279.387 238.041 279.792 237.943 280.124 237.748C280.456 237.552 280.747 237.291 280.996 236.964L281.816 237.616C281.645 237.875 281.428 238.121 281.164 238.355C280.9 238.59 280.576 238.78 280.19 238.927C279.809 239.073 279.357 239.146 278.835 239.146ZM284.848 232.65V239H283.486V231.075H284.775L284.848 232.65ZM284.57 234.737L283.94 234.715C283.945 234.173 284.016 233.673 284.152 233.214C284.289 232.75 284.492 232.347 284.76 232.005C285.029 231.664 285.363 231.4 285.764 231.214C286.164 231.024 286.628 230.929 287.155 230.929C287.526 230.929 287.868 230.982 288.181 231.09C288.493 231.192 288.764 231.356 288.994 231.581C289.223 231.805 289.401 232.093 289.528 232.445C289.655 232.796 289.719 233.221 289.719 233.719V239H288.364V233.785C288.364 233.37 288.293 233.038 288.151 232.789C288.015 232.54 287.819 232.359 287.565 232.247C287.312 232.13 287.014 232.071 286.672 232.071C286.271 232.071 285.937 232.142 285.668 232.284C285.4 232.425 285.185 232.621 285.024 232.87C284.863 233.119 284.746 233.404 284.672 233.727C284.604 234.044 284.57 234.381 284.57 234.737ZM289.704 233.99L288.796 234.269C288.801 233.834 288.872 233.417 289.008 233.016C289.15 232.616 289.353 232.259 289.616 231.947C289.885 231.634 290.214 231.388 290.605 231.207C290.996 231.021 291.442 230.929 291.945 230.929C292.37 230.929 292.746 230.985 293.073 231.097C293.405 231.209 293.684 231.383 293.908 231.617C294.138 231.847 294.311 232.142 294.428 232.503C294.545 232.865 294.604 233.294 294.604 233.792V239H293.242V233.778C293.242 233.333 293.171 232.989 293.029 232.745C292.893 232.496 292.697 232.323 292.443 232.225C292.194 232.123 291.896 232.071 291.55 232.071C291.252 232.071 290.988 232.123 290.759 232.225C290.529 232.328 290.336 232.469 290.18 232.65C290.024 232.826 289.904 233.028 289.821 233.258C289.743 233.487 289.704 233.731 289.704 233.99Z" fill="#505050"/>
<rect x="217" y="258" width="272" height="40" rx="8" fill="white"/>
<path d="M234.75 283C234.547 283 234.367 282.933 234.211 282.799C234.07 282.65 234 282.479 234 282.286C234 282.092 234.07 281.921 234.211 281.772L238.195 278L234.211 274.228C234.07 274.079 234 273.908 234 273.714C234 273.521 234.07 273.35 234.211 273.201C234.367 273.067 234.547 273 234.75 273C234.953 273 235.133 273.067 235.289 273.201L239.789 277.487C239.93 277.635 240 277.807 240 278C240 278.193 239.93 278.365 239.789 278.513L235.289 282.799C235.133 282.933 234.953 283 234.75 283Z" fill="#737373"/>
<path d="M262.178 272.336V283H260.787V272.336H262.178ZM265.606 272.336V273.493H257.366V272.336H265.606ZM267.781 276.32V283H266.426V275.075H267.745L267.781 276.32ZM270.257 275.031L270.25 276.291C270.137 276.267 270.03 276.252 269.927 276.247C269.83 276.237 269.717 276.232 269.59 276.232C269.278 276.232 269.002 276.281 268.763 276.379C268.523 276.477 268.321 276.613 268.155 276.789C267.989 276.965 267.857 277.175 267.759 277.419C267.667 277.658 267.605 277.922 267.576 278.21L267.195 278.43C267.195 277.951 267.242 277.502 267.334 277.082C267.432 276.662 267.581 276.291 267.781 275.969C267.981 275.642 268.235 275.388 268.543 275.207C268.855 275.021 269.227 274.929 269.656 274.929C269.754 274.929 269.866 274.941 269.993 274.965C270.12 274.985 270.208 275.007 270.257 275.031ZM274.651 283.146C274.1 283.146 273.599 283.054 273.15 282.868C272.706 282.678 272.322 282.412 272 282.07C271.683 281.728 271.438 281.323 271.268 280.854C271.097 280.385 271.011 279.873 271.011 279.316V279.008C271.011 278.364 271.106 277.79 271.297 277.287C271.487 276.779 271.746 276.35 272.073 275.998C272.4 275.646 272.771 275.38 273.187 275.2C273.602 275.019 274.031 274.929 274.476 274.929C275.042 274.929 275.53 275.026 275.94 275.222C276.355 275.417 276.695 275.69 276.958 276.042C277.222 276.389 277.417 276.799 277.544 277.272C277.671 277.741 277.735 278.254 277.735 278.811V279.418H271.817V278.312H276.38V278.21C276.36 277.858 276.287 277.517 276.16 277.185C276.038 276.853 275.843 276.579 275.574 276.364C275.306 276.149 274.939 276.042 274.476 276.042C274.168 276.042 273.885 276.108 273.626 276.24C273.367 276.367 273.145 276.557 272.959 276.811C272.774 277.065 272.63 277.375 272.527 277.741C272.425 278.107 272.374 278.53 272.374 279.008V279.316C272.374 279.692 272.425 280.046 272.527 280.378C272.635 280.705 272.789 280.993 272.989 281.242C273.194 281.491 273.44 281.687 273.729 281.828C274.021 281.97 274.354 282.041 274.725 282.041C275.203 282.041 275.608 281.943 275.94 281.748C276.272 281.552 276.563 281.291 276.812 280.964L277.632 281.616C277.461 281.875 277.244 282.121 276.98 282.355C276.717 282.59 276.392 282.78 276.006 282.927C275.625 283.073 275.174 283.146 274.651 283.146ZM282.605 283.146C282.054 283.146 281.553 283.054 281.104 282.868C280.66 282.678 280.276 282.412 279.954 282.07C279.637 281.728 279.393 281.323 279.222 280.854C279.051 280.385 278.965 279.873 278.965 279.316V279.008C278.965 278.364 279.061 277.79 279.251 277.287C279.441 276.779 279.7 276.35 280.027 275.998C280.354 275.646 280.726 275.38 281.141 275.2C281.556 275.019 281.985 274.929 282.43 274.929C282.996 274.929 283.484 275.026 283.895 275.222C284.31 275.417 284.649 275.69 284.913 276.042C285.176 276.389 285.372 276.799 285.499 277.272C285.625 277.741 285.689 278.254 285.689 278.811V279.418H279.771V278.312H284.334V278.21C284.314 277.858 284.241 277.517 284.114 277.185C283.992 276.853 283.797 276.579 283.528 276.364C283.26 276.149 282.894 276.042 282.43 276.042C282.122 276.042 281.839 276.108 281.58 276.24C281.321 276.367 281.099 276.557 280.914 276.811C280.728 277.065 280.584 277.375 280.481 277.741C280.379 278.107 280.328 278.53 280.328 279.008V279.316C280.328 279.692 280.379 280.046 280.481 280.378C280.589 280.705 280.743 280.993 280.943 281.242C281.148 281.491 281.395 281.687 281.683 281.828C281.976 281.97 282.308 282.041 282.679 282.041C283.157 282.041 283.562 281.943 283.895 281.748C284.227 281.552 284.517 281.291 284.766 280.964L285.586 281.616C285.416 281.875 285.198 282.121 284.935 282.355C284.671 282.59 284.346 282.78 283.96 282.927C283.58 283.073 283.128 283.146 282.605 283.146ZM292.464 275.075V283H291.102V275.075H292.464ZM290.999 272.973C290.999 272.753 291.065 272.568 291.197 272.417C291.333 272.265 291.534 272.189 291.797 272.189C292.056 272.189 292.254 272.265 292.391 272.417C292.532 272.568 292.603 272.753 292.603 272.973C292.603 273.183 292.532 273.364 292.391 273.515C292.254 273.662 292.056 273.735 291.797 273.735C291.534 273.735 291.333 273.662 291.197 273.515C291.065 273.364 290.999 273.183 290.999 272.973ZM297.957 275.075V276.115H293.672V275.075H297.957ZM295.123 273.149H296.478V281.037C296.478 281.306 296.519 281.508 296.602 281.645C296.685 281.782 296.792 281.872 296.924 281.916C297.056 281.96 297.198 281.982 297.349 281.982C297.461 281.982 297.579 281.972 297.701 281.953C297.828 281.928 297.923 281.909 297.986 281.894L297.994 283C297.886 283.034 297.745 283.066 297.569 283.095C297.398 283.129 297.19 283.146 296.946 283.146C296.614 283.146 296.309 283.081 296.031 282.949C295.752 282.817 295.53 282.597 295.364 282.29C295.203 281.977 295.123 281.557 295.123 281.03V273.149ZM302.835 283.146C302.283 283.146 301.783 283.054 301.333 282.868C300.889 282.678 300.506 282.412 300.184 282.07C299.866 281.728 299.622 281.323 299.451 280.854C299.28 280.385 299.195 279.873 299.195 279.316V279.008C299.195 278.364 299.29 277.79 299.48 277.287C299.671 276.779 299.93 276.35 300.257 275.998C300.584 275.646 300.955 275.38 301.37 275.2C301.785 275.019 302.215 274.929 302.659 274.929C303.226 274.929 303.714 275.026 304.124 275.222C304.539 275.417 304.878 275.69 305.142 276.042C305.406 276.389 305.601 276.799 305.728 277.272C305.855 277.741 305.918 278.254 305.918 278.811V279.418H300V278.312H304.563V278.21C304.544 277.858 304.471 277.517 304.344 277.185C304.222 276.853 304.026 276.579 303.758 276.364C303.489 276.149 303.123 276.042 302.659 276.042C302.352 276.042 302.068 276.108 301.81 276.24C301.551 276.367 301.329 276.557 301.143 276.811C300.958 277.065 300.813 277.375 300.711 277.741C300.608 278.107 300.557 278.53 300.557 279.008V279.316C300.557 279.692 300.608 280.046 300.711 280.378C300.818 280.705 300.972 280.993 301.172 281.242C301.377 281.491 301.624 281.687 301.912 281.828C302.205 281.97 302.537 282.041 302.908 282.041C303.387 282.041 303.792 281.943 304.124 281.748C304.456 281.552 304.747 281.291 304.996 280.964L305.816 281.616C305.645 281.875 305.428 282.121 305.164 282.355C304.9 282.59 304.576 282.78 304.19 282.927C303.809 283.073 303.357 283.146 302.835 283.146ZM308.848 276.65V283H307.486V275.075H308.775L308.848 276.65ZM308.57 278.737L307.94 278.715C307.945 278.173 308.016 277.673 308.152 277.214C308.289 276.75 308.492 276.347 308.76 276.005C309.029 275.664 309.363 275.4 309.764 275.214C310.164 275.024 310.628 274.929 311.155 274.929C311.526 274.929 311.868 274.982 312.181 275.09C312.493 275.192 312.764 275.356 312.994 275.581C313.223 275.805 313.401 276.093 313.528 276.445C313.655 276.796 313.719 277.221 313.719 277.719V283H312.364V277.785C312.364 277.37 312.293 277.038 312.151 276.789C312.015 276.54 311.819 276.359 311.565 276.247C311.312 276.13 311.014 276.071 310.672 276.071C310.271 276.071 309.937 276.142 309.668 276.284C309.4 276.425 309.185 276.621 309.024 276.87C308.863 277.119 308.746 277.404 308.672 277.727C308.604 278.044 308.57 278.381 308.57 278.737ZM313.704 277.99L312.796 278.269C312.801 277.834 312.872 277.417 313.008 277.016C313.15 276.616 313.353 276.259 313.616 275.947C313.885 275.634 314.214 275.388 314.605 275.207C314.996 275.021 315.442 274.929 315.945 274.929C316.37 274.929 316.746 274.985 317.073 275.097C317.405 275.209 317.684 275.383 317.908 275.617C318.138 275.847 318.311 276.142 318.428 276.503C318.545 276.865 318.604 277.294 318.604 277.792V283H317.242V277.778C317.242 277.333 317.171 276.989 317.029 276.745C316.893 276.496 316.697 276.323 316.443 276.225C316.194 276.123 315.896 276.071 315.55 276.071C315.252 276.071 314.988 276.123 314.759 276.225C314.529 276.328 314.336 276.469 314.18 276.65C314.024 276.826 313.904 277.028 313.821 277.258C313.743 277.487 313.704 277.731 313.704 277.99Z" fill="#505050"/>
<rect x="217" y="302" width="272" height="40" rx="8" fill="#F2F2F2"/>
<path d="M237 325C236.817 325 236.634 324.927 236.495 324.78L232.209 320.28C231.93 319.987 231.93 319.513 232.209 319.22C232.488 318.927 232.94 318.927 233.219 319.22L237 323.191L240.781 319.22C241.06 318.927 241.512 318.927 241.791 319.22C242.07 319.513 242.07 319.988 241.791 320.281L237.505 324.781C237.366 324.927 237.183 325 237 325Z" fill="#737373"/>
<path d="M262.178 316.336V327H260.787V316.336H262.178ZM265.606 316.336V317.493H257.366V316.336H265.606ZM267.781 320.32V327H266.426V319.075H267.745L267.781 320.32ZM270.257 319.031L270.25 320.291C270.137 320.267 270.03 320.252 269.927 320.247C269.83 320.237 269.717 320.232 269.59 320.232C269.278 320.232 269.002 320.281 268.763 320.379C268.523 320.477 268.321 320.613 268.155 320.789C267.989 320.965 267.857 321.175 267.759 321.419C267.667 321.658 267.605 321.922 267.576 322.21L267.195 322.43C267.195 321.951 267.242 321.502 267.334 321.082C267.432 320.662 267.581 320.291 267.781 319.969C267.981 319.642 268.235 319.388 268.543 319.207C268.855 319.021 269.227 318.929 269.656 318.929C269.754 318.929 269.866 318.941 269.993 318.965C270.12 318.985 270.208 319.007 270.257 319.031ZM274.651 327.146C274.1 327.146 273.599 327.054 273.15 326.868C272.706 326.678 272.322 326.412 272 326.07C271.683 325.728 271.438 325.323 271.268 324.854C271.097 324.385 271.011 323.873 271.011 323.316V323.008C271.011 322.364 271.106 321.79 271.297 321.287C271.487 320.779 271.746 320.35 272.073 319.998C272.4 319.646 272.771 319.38 273.187 319.2C273.602 319.019 274.031 318.929 274.476 318.929C275.042 318.929 275.53 319.026 275.94 319.222C276.355 319.417 276.695 319.69 276.958 320.042C277.222 320.389 277.417 320.799 277.544 321.272C277.671 321.741 277.735 322.254 277.735 322.811V323.418H271.817V322.312H276.38V322.21C276.36 321.858 276.287 321.517 276.16 321.185C276.038 320.853 275.843 320.579 275.574 320.364C275.306 320.149 274.939 320.042 274.476 320.042C274.168 320.042 273.885 320.108 273.626 320.24C273.367 320.367 273.145 320.557 272.959 320.811C272.774 321.065 272.63 321.375 272.527 321.741C272.425 322.107 272.374 322.53 272.374 323.008V323.316C272.374 323.692 272.425 324.046 272.527 324.378C272.635 324.705 272.789 324.993 272.989 325.242C273.194 325.491 273.44 325.687 273.729 325.828C274.021 325.97 274.354 326.041 274.725 326.041C275.203 326.041 275.608 325.943 275.94 325.748C276.272 325.552 276.563 325.291 276.812 324.964L277.632 325.616C277.461 325.875 277.244 326.121 276.98 326.355C276.717 326.59 276.392 326.78 276.006 326.927C275.625 327.073 275.174 327.146 274.651 327.146ZM282.605 327.146C282.054 327.146 281.553 327.054 281.104 326.868C280.66 326.678 280.276 326.412 279.954 326.07C279.637 325.728 279.393 325.323 279.222 324.854C279.051 324.385 278.965 323.873 278.965 323.316V323.008C278.965 322.364 279.061 321.79 279.251 321.287C279.441 320.779 279.7 320.35 280.027 319.998C280.354 319.646 280.726 319.38 281.141 319.2C281.556 319.019 281.985 318.929 282.43 318.929C282.996 318.929 283.484 319.026 283.895 319.222C284.31 319.417 284.649 319.69 284.913 320.042C285.176 320.389 285.372 320.799 285.499 321.272C285.625 321.741 285.689 322.254 285.689 322.811V323.418H279.771V322.312H284.334V322.21C284.314 321.858 284.241 321.517 284.114 321.185C283.992 320.853 283.797 320.579 283.528 320.364C283.26 320.149 282.894 320.042 282.43 320.042C282.122 320.042 281.839 320.108 281.58 320.24C281.321 320.367 281.099 320.557 280.914 320.811C280.728 321.065 280.584 321.375 280.481 321.741C280.379 322.107 280.328 322.53 280.328 323.008V323.316C280.328 323.692 280.379 324.046 280.481 324.378C280.589 324.705 280.743 324.993 280.943 325.242C281.148 325.491 281.395 325.687 281.683 325.828C281.976 325.97 282.308 326.041 282.679 326.041C283.157 326.041 283.562 325.943 283.895 325.748C284.227 325.552 284.517 325.291 284.766 324.964L285.586 325.616C285.416 325.875 285.198 326.121 284.935 326.355C284.671 326.59 284.346 326.78 283.96 326.927C283.58 327.073 283.128 327.146 282.605 327.146ZM292.464 319.075V327H291.102V319.075H292.464ZM290.999 316.973C290.999 316.753 291.065 316.568 291.197 316.417C291.333 316.265 291.534 316.189 291.797 316.189C292.056 316.189 292.254 316.265 292.391 316.417C292.532 316.568 292.603 316.753 292.603 316.973C292.603 317.183 292.532 317.364 292.391 317.515C292.254 317.662 292.056 317.735 291.797 317.735C291.534 317.735 291.333 317.662 291.197 317.515C291.065 317.364 290.999 317.183 290.999 316.973ZM297.957 319.075V320.115H293.672V319.075H297.957ZM295.123 317.149H296.478V325.037C296.478 325.306 296.519 325.508 296.602 325.645C296.685 325.782 296.792 325.872 296.924 325.916C297.056 325.96 297.198 325.982 297.349 325.982C297.461 325.982 297.579 325.972 297.701 325.953C297.828 325.928 297.923 325.909 297.986 325.894L297.994 327C297.886 327.034 297.745 327.066 297.569 327.095C297.398 327.129 297.19 327.146 296.946 327.146C296.614 327.146 296.309 327.081 296.031 326.949C295.752 326.817 295.53 326.597 295.364 326.29C295.203 325.977 295.123 325.557 295.123 325.03V317.149ZM302.835 327.146C302.283 327.146 301.783 327.054 301.333 326.868C300.889 326.678 300.506 326.412 300.184 326.07C299.866 325.728 299.622 325.323 299.451 324.854C299.28 324.385 299.195 323.873 299.195 323.316V323.008C299.195 322.364 299.29 321.79 299.48 321.287C299.671 320.779 299.93 320.35 300.257 319.998C300.584 319.646 300.955 319.38 301.37 319.2C301.785 319.019 302.215 318.929 302.659 318.929C303.226 318.929 303.714 319.026 304.124 319.222C304.539 319.417 304.878 319.69 305.142 320.042C305.406 320.389 305.601 320.799 305.728 321.272C305.855 321.741 305.918 322.254 305.918 322.811V323.418H300V322.312H304.563V322.21C304.544 321.858 304.471 321.517 304.344 321.185C304.222 320.853 304.026 320.579 303.758 320.364C303.489 320.149 303.123 320.042 302.659 320.042C302.352 320.042 302.068 320.108 301.81 320.24C301.551 320.367 301.329 320.557 301.143 320.811C300.958 321.065 300.813 321.375 300.711 321.741C300.608 322.107 300.557 322.53 300.557 323.008V323.316C300.557 323.692 300.608 324.046 300.711 324.378C300.818 324.705 300.972 324.993 301.172 325.242C301.377 325.491 301.624 325.687 301.912 325.828C302.205 325.97 302.537 326.041 302.908 326.041C303.387 326.041 303.792 325.943 304.124 325.748C304.456 325.552 304.747 325.291 304.996 324.964L305.816 325.616C305.645 325.875 305.428 326.121 305.164 326.355C304.9 326.59 304.576 326.78 304.19 326.927C303.809 327.073 303.357 327.146 302.835 327.146ZM308.848 320.65V327H307.486V319.075H308.775L308.848 320.65ZM308.57 322.737L307.94 322.715C307.945 322.173 308.016 321.673 308.152 321.214C308.289 320.75 308.492 320.347 308.76 320.005C309.029 319.664 309.363 319.4 309.764 319.214C310.164 319.024 310.628 318.929 311.155 318.929C311.526 318.929 311.868 318.982 312.181 319.09C312.493 319.192 312.764 319.356 312.994 319.581C313.223 319.805 313.401 320.093 313.528 320.445C313.655 320.796 313.719 321.221 313.719 321.719V327H312.364V321.785C312.364 321.37 312.293 321.038 312.151 320.789C312.015 320.54 311.819 320.359 311.565 320.247C311.312 320.13 311.014 320.071 310.672 320.071C310.271 320.071 309.937 320.142 309.668 320.284C309.4 320.425 309.185 320.621 309.024 320.87C308.863 321.119 308.746 321.404 308.672 321.727C308.604 322.044 308.57 322.381 308.57 322.737ZM313.704 321.99L312.796 322.269C312.801 321.834 312.872 321.417 313.008 321.016C313.15 320.616 313.353 320.259 313.616 319.947C313.885 319.634 314.214 319.388 314.605 319.207C314.996 319.021 315.442 318.929 315.945 318.929C316.37 318.929 316.746 318.985 317.073 319.097C317.405 319.209 317.684 319.383 317.908 319.617C318.138 319.847 318.311 320.142 318.428 320.503C318.545 320.865 318.604 321.294 318.604 321.792V327H317.242V321.778C317.242 321.333 317.171 320.989 317.029 320.745C316.893 320.496 316.697 320.323 316.443 320.225C316.194 320.123 315.896 320.071 315.55 320.071C315.252 320.071 314.988 320.123 314.759 320.225C314.529 320.328 314.336 320.469 314.18 320.65C314.024 320.826 313.904 321.028 313.821 321.258C313.743 321.487 313.704 321.731 313.704 321.99Z" fill="#505050"/>
<rect x="241" y="346" width="248" height="40" rx="8" fill="white"/>
<path d="M262.178 360.336V371H260.787V360.336H262.178ZM265.606 360.336V361.493H257.366V360.336H265.606ZM267.781 364.32V371H266.426V363.075H267.745L267.781 364.32ZM270.257 363.031L270.25 364.291C270.137 364.267 270.03 364.252 269.927 364.247C269.83 364.237 269.717 364.232 269.59 364.232C269.278 364.232 269.002 364.281 268.763 364.379C268.523 364.477 268.321 364.613 268.155 364.789C267.989 364.965 267.857 365.175 267.759 365.419C267.667 365.658 267.605 365.922 267.576 366.21L267.195 366.43C267.195 365.951 267.242 365.502 267.334 365.082C267.432 364.662 267.581 364.291 267.781 363.969C267.981 363.642 268.235 363.388 268.543 363.207C268.855 363.021 269.227 362.929 269.656 362.929C269.754 362.929 269.866 362.941 269.993 362.965C270.12 362.985 270.208 363.007 270.257 363.031ZM274.651 371.146C274.1 371.146 273.599 371.054 273.15 370.868C272.706 370.678 272.322 370.412 272 370.07C271.683 369.728 271.438 369.323 271.268 368.854C271.097 368.385 271.011 367.873 271.011 367.316V367.008C271.011 366.364 271.106 365.79 271.297 365.287C271.487 364.779 271.746 364.35 272.073 363.998C272.4 363.646 272.771 363.38 273.187 363.2C273.602 363.019 274.031 362.929 274.476 362.929C275.042 362.929 275.53 363.026 275.94 363.222C276.355 363.417 276.695 363.69 276.958 364.042C277.222 364.389 277.417 364.799 277.544 365.272C277.671 365.741 277.735 366.254 277.735 366.811V367.418H271.817V366.312H276.38V366.21C276.36 365.858 276.287 365.517 276.16 365.185C276.038 364.853 275.843 364.579 275.574 364.364C275.306 364.149 274.939 364.042 274.476 364.042C274.168 364.042 273.885 364.108 273.626 364.24C273.367 364.367 273.145 364.557 272.959 364.811C272.774 365.065 272.63 365.375 272.527 365.741C272.425 366.107 272.374 366.53 272.374 367.008V367.316C272.374 367.692 272.425 368.046 272.527 368.378C272.635 368.705 272.789 368.993 272.989 369.242C273.194 369.491 273.44 369.687 273.729 369.828C274.021 369.97 274.354 370.041 274.725 370.041C275.203 370.041 275.608 369.943 275.94 369.748C276.272 369.552 276.563 369.291 276.812 368.964L277.632 369.616C277.461 369.875 277.244 370.121 276.98 370.355C276.717 370.59 276.392 370.78 276.006 370.927C275.625 371.073 275.174 371.146 274.651 371.146ZM282.605 371.146C282.054 371.146 281.553 371.054 281.104 370.868C280.66 370.678 280.276 370.412 279.954 370.07C279.637 369.728 279.393 369.323 279.222 368.854C279.051 368.385 278.965 367.873 278.965 367.316V367.008C278.965 366.364 279.061 365.79 279.251 365.287C279.441 364.779 279.7 364.35 280.027 363.998C280.354 363.646 280.726 363.38 281.141 363.2C281.556 363.019 281.985 362.929 282.43 362.929C282.996 362.929 283.484 363.026 283.895 363.222C284.31 363.417 284.649 363.69 284.913 364.042C285.176 364.389 285.372 364.799 285.499 365.272C285.625 365.741 285.689 366.254 285.689 366.811V367.418H279.771V366.312H284.334V366.21C284.314 365.858 284.241 365.517 284.114 365.185C283.992 364.853 283.797 364.579 283.528 364.364C283.26 364.149 282.894 364.042 282.43 364.042C282.122 364.042 281.839 364.108 281.58 364.24C281.321 364.367 281.099 364.557 280.914 364.811C280.728 365.065 280.584 365.375 280.481 365.741C280.379 366.107 280.328 366.53 280.328 367.008V367.316C280.328 367.692 280.379 368.046 280.481 368.378C280.589 368.705 280.743 368.993 280.943 369.242C281.148 369.491 281.395 369.687 281.683 369.828C281.976 369.97 282.308 370.041 282.679 370.041C283.157 370.041 283.562 369.943 283.895 369.748C284.227 369.552 284.517 369.291 284.766 368.964L285.586 369.616C285.416 369.875 285.198 370.121 284.935 370.355C284.671 370.59 284.346 370.78 283.96 370.927C283.58 371.073 283.128 371.146 282.605 371.146ZM292.464 363.075V371H291.102V363.075H292.464ZM290.999 360.973C290.999 360.753 291.065 360.568 291.197 360.417C291.333 360.265 291.534 360.189 291.797 360.189C292.056 360.189 292.254 360.265 292.391 360.417C292.532 360.568 292.603 360.753 292.603 360.973C292.603 361.183 292.532 361.364 292.391 361.515C292.254 361.662 292.056 361.735 291.797 361.735C291.534 361.735 291.333 361.662 291.197 361.515C291.065 361.364 290.999 361.183 290.999 360.973ZM297.957 363.075V364.115H293.672V363.075H297.957ZM295.123 361.149H296.478V369.037C296.478 369.306 296.519 369.508 296.602 369.645C296.685 369.782 296.792 369.872 296.924 369.916C297.056 369.96 297.198 369.982 297.349 369.982C297.461 369.982 297.579 369.972 297.701 369.953C297.828 369.928 297.923 369.909 297.986 369.894L297.994 371C297.886 371.034 297.745 371.066 297.569 371.095C297.398 371.129 297.19 371.146 296.946 371.146C296.614 371.146 296.309 371.081 296.031 370.949C295.752 370.817 295.53 370.597 295.364 370.29C295.203 369.977 295.123 369.557 295.123 369.03V361.149ZM302.835 371.146C302.283 371.146 301.783 371.054 301.333 370.868C300.889 370.678 300.506 370.412 300.184 370.07C299.866 369.728 299.622 369.323 299.451 368.854C299.28 368.385 299.195 367.873 299.195 367.316V367.008C299.195 366.364 299.29 365.79 299.48 365.287C299.671 364.779 299.93 364.35 300.257 363.998C300.584 363.646 300.955 363.38 301.37 363.2C301.785 363.019 302.215 362.929 302.659 362.929C303.226 362.929 303.714 363.026 304.124 363.222C304.539 363.417 304.878 363.69 305.142 364.042C305.406 364.389 305.601 364.799 305.728 365.272C305.855 365.741 305.918 366.254 305.918 366.811V367.418H300V366.312H304.563V366.21C304.544 365.858 304.471 365.517 304.344 365.185C304.222 364.853 304.026 364.579 303.758 364.364C303.489 364.149 303.123 364.042 302.659 364.042C302.352 364.042 302.068 364.108 301.81 364.24C301.551 364.367 301.329 364.557 301.143 364.811C300.958 365.065 300.813 365.375 300.711 365.741C300.608 366.107 300.557 366.53 300.557 367.008V367.316C300.557 367.692 300.608 368.046 300.711 368.378C300.818 368.705 300.972 368.993 301.172 369.242C301.377 369.491 301.624 369.687 301.912 369.828C302.205 369.97 302.537 370.041 302.908 370.041C303.387 370.041 303.792 369.943 304.124 369.748C304.456 369.552 304.747 369.291 304.996 368.964L305.816 369.616C305.645 369.875 305.428 370.121 305.164 370.355C304.9 370.59 304.576 370.78 304.19 370.927C303.809 371.073 303.357 371.146 302.835 371.146ZM308.848 364.65V371H307.486V363.075H308.775L308.848 364.65ZM308.57 366.737L307.94 366.715C307.945 366.173 308.016 365.673 308.152 365.214C308.289 364.75 308.492 364.347 308.76 364.005C309.029 363.664 309.363 363.4 309.764 363.214C310.164 363.024 310.628 362.929 311.155 362.929C311.526 362.929 311.868 362.982 312.181 363.09C312.493 363.192 312.764 363.356 312.994 363.581C313.223 363.805 313.401 364.093 313.528 364.445C313.655 364.796 313.719 365.221 313.719 365.719V371H312.364V365.785C312.364 365.37 312.293 365.038 312.151 364.789C312.015 364.54 311.819 364.359 311.565 364.247C311.312 364.13 311.014 364.071 310.672 364.071C310.271 364.071 309.937 364.142 309.668 364.284C309.4 364.425 309.185 364.621 309.024 364.87C308.863 365.119 308.746 365.404 308.672 365.727C308.604 366.044 308.57 366.381 308.57 366.737ZM313.704 365.99L312.796 366.269C312.801 365.834 312.872 365.417 313.008 365.016C313.15 364.616 313.353 364.259 313.616 363.947C313.885 363.634 314.214 363.388 314.605 363.207C314.996 363.021 315.442 362.929 315.945 362.929C316.37 362.929 316.746 362.985 317.073 363.097C317.405 363.209 317.684 363.383 317.908 363.617C318.138 363.847 318.311 364.142 318.428 364.503C318.545 364.865 318.604 365.294 318.604 365.792V371H317.242V365.778C317.242 365.333 317.171 364.989 317.029 364.745C316.893 364.496 316.697 364.323 316.443 364.225C316.194 364.123 315.896 364.071 315.55 364.071C315.252 364.071 314.988 364.123 314.759 364.225C314.529 364.328 314.336 364.469 314.18 364.65C314.024 364.826 313.904 365.028 313.821 365.258C313.743 365.487 313.704 365.731 313.704 365.99Z" fill="#505050"/>
<rect x="241" y="390" width="248" height="40" rx="8" fill="white"/>
<path d="M262.178 404.336V415H260.787V404.336H262.178ZM265.606 404.336V405.493H257.366V404.336H265.606ZM267.781 408.32V415H266.426V407.075H267.745L267.781 408.32ZM270.257 407.031L270.25 408.291C270.137 408.267 270.03 408.252 269.927 408.247C269.83 408.237 269.717 408.232 269.59 408.232C269.278 408.232 269.002 408.281 268.763 408.379C268.523 408.477 268.321 408.613 268.155 408.789C267.989 408.965 267.857 409.175 267.759 409.419C267.667 409.658 267.605 409.922 267.576 410.21L267.195 410.43C267.195 409.951 267.242 409.502 267.334 409.082C267.432 408.662 267.581 408.291 267.781 407.969C267.981 407.642 268.235 407.388 268.543 407.207C268.855 407.021 269.227 406.929 269.656 406.929C269.754 406.929 269.866 406.941 269.993 406.965C270.12 406.985 270.208 407.007 270.257 407.031ZM274.651 415.146C274.1 415.146 273.599 415.054 273.15 414.868C272.706 414.678 272.322 414.412 272 414.07C271.683 413.728 271.438 413.323 271.268 412.854C271.097 412.385 271.011 411.873 271.011 411.316V411.008C271.011 410.364 271.106 409.79 271.297 409.287C271.487 408.779 271.746 408.35 272.073 407.998C272.4 407.646 272.771 407.38 273.187 407.2C273.602 407.019 274.031 406.929 274.476 406.929C275.042 406.929 275.53 407.026 275.94 407.222C276.355 407.417 276.695 407.69 276.958 408.042C277.222 408.389 277.417 408.799 277.544 409.272C277.671 409.741 277.735 410.254 277.735 410.811V411.418H271.817V410.312H276.38V410.21C276.36 409.858 276.287 409.517 276.16 409.185C276.038 408.853 275.843 408.579 275.574 408.364C275.306 408.149 274.939 408.042 274.476 408.042C274.168 408.042 273.885 408.108 273.626 408.24C273.367 408.367 273.145 408.557 272.959 408.811C272.774 409.065 272.63 409.375 272.527 409.741C272.425 410.107 272.374 410.53 272.374 411.008V411.316C272.374 411.692 272.425 412.046 272.527 412.378C272.635 412.705 272.789 412.993 272.989 413.242C273.194 413.491 273.44 413.687 273.729 413.828C274.021 413.97 274.354 414.041 274.725 414.041C275.203 414.041 275.608 413.943 275.94 413.748C276.272 413.552 276.563 413.291 276.812 412.964L277.632 413.616C277.461 413.875 277.244 414.121 276.98 414.355C276.717 414.59 276.392 414.78 276.006 414.927C275.625 415.073 275.174 415.146 274.651 415.146ZM282.605 415.146C282.054 415.146 281.553 415.054 281.104 414.868C280.66 414.678 280.276 414.412 279.954 414.07C279.637 413.728 279.393 413.323 279.222 412.854C279.051 412.385 278.965 411.873 278.965 411.316V411.008C278.965 410.364 279.061 409.79 279.251 409.287C279.441 408.779 279.7 408.35 280.027 407.998C280.354 407.646 280.726 407.38 281.141 407.2C281.556 407.019 281.985 406.929 282.43 406.929C282.996 406.929 283.484 407.026 283.895 407.222C284.31 407.417 284.649 407.69 284.913 408.042C285.176 408.389 285.372 408.799 285.499 409.272C285.625 409.741 285.689 410.254 285.689 410.811V411.418H279.771V410.312H284.334V410.21C284.314 409.858 284.241 409.517 284.114 409.185C283.992 408.853 283.797 408.579 283.528 408.364C283.26 408.149 282.894 408.042 282.43 408.042C282.122 408.042 281.839 408.108 281.58 408.24C281.321 408.367 281.099 408.557 280.914 408.811C280.728 409.065 280.584 409.375 280.481 409.741C280.379 410.107 280.328 410.53 280.328 411.008V411.316C280.328 411.692 280.379 412.046 280.481 412.378C280.589 412.705 280.743 412.993 280.943 413.242C281.148 413.491 281.395 413.687 281.683 413.828C281.976 413.97 282.308 414.041 282.679 414.041C283.157 414.041 283.562 413.943 283.895 413.748C284.227 413.552 284.517 413.291 284.766 412.964L285.586 413.616C285.416 413.875 285.198 414.121 284.935 414.355C284.671 414.59 284.346 414.78 283.96 414.927C283.58 415.073 283.128 415.146 282.605 415.146ZM292.464 407.075V415H291.102V407.075H292.464ZM290.999 404.973C290.999 404.753 291.065 404.568 291.197 404.417C291.333 404.265 291.534 404.189 291.797 404.189C292.056 404.189 292.254 404.265 292.391 404.417C292.532 404.568 292.603 404.753 292.603 404.973C292.603 405.183 292.532 405.364 292.391 405.515C292.254 405.662 292.056 405.735 291.797 405.735C291.534 405.735 291.333 405.662 291.197 405.515C291.065 405.364 290.999 405.183 290.999 404.973ZM297.957 407.075V408.115H293.672V407.075H297.957ZM295.123 405.149H296.478V413.037C296.478 413.306 296.519 413.508 296.602 413.645C296.685 413.782 296.792 413.872 296.924 413.916C297.056 413.96 297.198 413.982 297.349 413.982C297.461 413.982 297.579 413.972 297.701 413.953C297.828 413.928 297.923 413.909 297.986 413.894L297.994 415C297.886 415.034 297.745 415.066 297.569 415.095C297.398 415.129 297.19 415.146 296.946 415.146C296.614 415.146 296.309 415.081 296.031 414.949C295.752 414.817 295.53 414.597 295.364 414.29C295.203 413.977 295.123 413.557 295.123 413.03V405.149ZM302.835 415.146C302.283 415.146 301.783 415.054 301.333 414.868C300.889 414.678 300.506 414.412 300.184 414.07C299.866 413.728 299.622 413.323 299.451 412.854C299.28 412.385 299.195 411.873 299.195 411.316V411.008C299.195 410.364 299.29 409.79 299.48 409.287C299.671 408.779 299.93 408.35 300.257 407.998C300.584 407.646 300.955 407.38 301.37 407.2C301.785 407.019 302.215 406.929 302.659 406.929C303.226 406.929 303.714 407.026 304.124 407.222C304.539 407.417 304.878 407.69 305.142 408.042C305.406 408.389 305.601 408.799 305.728 409.272C305.855 409.741 305.918 410.254 305.918 410.811V411.418H300V410.312H304.563V410.21C304.544 409.858 304.471 409.517 304.344 409.185C304.222 408.853 304.026 408.579 303.758 408.364C303.489 408.149 303.123 408.042 302.659 408.042C302.352 408.042 302.068 408.108 301.81 408.24C301.551 408.367 301.329 408.557 301.143 408.811C300.958 409.065 300.813 409.375 300.711 409.741C300.608 410.107 300.557 410.53 300.557 411.008V411.316C300.557 411.692 300.608 412.046 300.711 412.378C300.818 412.705 300.972 412.993 301.172 413.242C301.377 413.491 301.624 413.687 301.912 413.828C302.205 413.97 302.537 414.041 302.908 414.041C303.387 414.041 303.792 413.943 304.124 413.748C304.456 413.552 304.747 413.291 304.996 412.964L305.816 413.616C305.645 413.875 305.428 414.121 305.164 414.355C304.9 414.59 304.576 414.78 304.19 414.927C303.809 415.073 303.357 415.146 302.835 415.146ZM308.848 408.65V415H307.486V407.075H308.775L308.848 408.65ZM308.57 410.737L307.94 410.715C307.945 410.173 308.016 409.673 308.152 409.214C308.289 408.75 308.492 408.347 308.76 408.005C309.029 407.664 309.363 407.4 309.764 407.214C310.164 407.024 310.628 406.929 311.155 406.929C311.526 406.929 311.868 406.982 312.181 407.09C312.493 407.192 312.764 407.356 312.994 407.581C313.223 407.805 313.401 408.093 313.528 408.445C313.655 408.796 313.719 409.221 313.719 409.719V415H312.364V409.785C312.364 409.37 312.293 409.038 312.151 408.789C312.015 408.54 311.819 408.359 311.565 408.247C311.312 408.13 311.014 408.071 310.672 408.071C310.271 408.071 309.937 408.142 309.668 408.284C309.4 408.425 309.185 408.621 309.024 408.87C308.863 409.119 308.746 409.404 308.672 409.727C308.604 410.044 308.57 410.381 308.57 410.737ZM313.704 409.99L312.796 410.269C312.801 409.834 312.872 409.417 313.008 409.016C313.15 408.616 313.353 408.259 313.616 407.947C313.885 407.634 314.214 407.388 314.605 407.207C314.996 407.021 315.442 406.929 315.945 406.929C316.37 406.929 316.746 406.985 317.073 407.097C317.405 407.209 317.684 407.383 317.908 407.617C318.138 407.847 318.311 408.142 318.428 408.503C318.545 408.865 318.604 409.294 318.604 409.792V415H317.242V409.778C317.242 409.333 317.171 408.989 317.029 408.745C316.893 408.496 316.697 408.323 316.443 408.225C316.194 408.123 315.896 408.071 315.55 408.071C315.252 408.071 314.988 408.123 314.759 408.225C314.529 408.328 314.336 408.469 314.18 408.65C314.024 408.826 313.904 409.028 313.821 409.258C313.743 409.487 313.704 409.731 313.704 409.99Z" fill="#505050"/>
<rect x="193" y="434" width="296" height="40" rx="8" fill="white"/>
<path d="M210.75 459C210.547 459 210.367 458.933 210.211 458.799C210.07 458.65 210 458.479 210 458.286C210 458.092 210.07 457.921 210.211 457.772L214.195 454L210.211 450.228C210.07 450.079 210 449.908 210 449.714C210 449.521 210.07 449.35 210.211 449.201C210.367 449.067 210.547 449 210.75 449C210.953 449 211.133 449.067 211.289 449.201L215.789 453.487C215.93 453.635 216 453.807 216 454C216 454.193 215.93 454.365 215.789 454.513L211.289 458.799C211.133 458.933 210.953 459 210.75 459Z" fill="#737373"/>
<path d="M238.178 448.336V459H236.787V448.336H238.178ZM241.606 448.336V449.493H233.366V448.336H241.606ZM243.781 452.32V459H242.426V451.075H243.745L243.781 452.32ZM246.257 451.031L246.25 452.291C246.137 452.267 246.03 452.252 245.927 452.247C245.83 452.237 245.717 452.232 245.59 452.232C245.278 452.232 245.002 452.281 244.763 452.379C244.523 452.477 244.321 452.613 244.155 452.789C243.989 452.965 243.857 453.175 243.759 453.419C243.667 453.658 243.605 453.922 243.576 454.21L243.195 454.43C243.195 453.951 243.242 453.502 243.334 453.082C243.432 452.662 243.581 452.291 243.781 451.969C243.981 451.642 244.235 451.388 244.543 451.207C244.855 451.021 245.227 450.929 245.656 450.929C245.754 450.929 245.866 450.941 245.993 450.965C246.12 450.985 246.208 451.007 246.257 451.031ZM250.651 459.146C250.1 459.146 249.599 459.054 249.15 458.868C248.706 458.678 248.322 458.412 248 458.07C247.683 457.728 247.438 457.323 247.268 456.854C247.097 456.385 247.011 455.873 247.011 455.316V455.008C247.011 454.364 247.106 453.79 247.297 453.287C247.487 452.779 247.746 452.35 248.073 451.998C248.4 451.646 248.771 451.38 249.187 451.2C249.602 451.019 250.031 450.929 250.476 450.929C251.042 450.929 251.53 451.026 251.94 451.222C252.355 451.417 252.695 451.69 252.958 452.042C253.222 452.389 253.417 452.799 253.544 453.272C253.671 453.741 253.735 454.254 253.735 454.811V455.418H247.817V454.312H252.38V454.21C252.36 453.858 252.287 453.517 252.16 453.185C252.038 452.853 251.843 452.579 251.574 452.364C251.306 452.149 250.939 452.042 250.476 452.042C250.168 452.042 249.885 452.108 249.626 452.24C249.367 452.367 249.145 452.557 248.959 452.811C248.774 453.065 248.63 453.375 248.527 453.741C248.425 454.107 248.374 454.53 248.374 455.008V455.316C248.374 455.692 248.425 456.046 248.527 456.378C248.635 456.705 248.789 456.993 248.989 457.242C249.194 457.491 249.44 457.687 249.729 457.828C250.021 457.97 250.354 458.041 250.725 458.041C251.203 458.041 251.608 457.943 251.94 457.748C252.272 457.552 252.563 457.291 252.812 456.964L253.632 457.616C253.461 457.875 253.244 458.121 252.98 458.355C252.717 458.59 252.392 458.78 252.006 458.927C251.625 459.073 251.174 459.146 250.651 459.146ZM258.605 459.146C258.054 459.146 257.553 459.054 257.104 458.868C256.66 458.678 256.276 458.412 255.954 458.07C255.637 457.728 255.393 457.323 255.222 456.854C255.051 456.385 254.965 455.873 254.965 455.316V455.008C254.965 454.364 255.061 453.79 255.251 453.287C255.441 452.779 255.7 452.35 256.027 451.998C256.354 451.646 256.726 451.38 257.141 451.2C257.556 451.019 257.985 450.929 258.43 450.929C258.996 450.929 259.484 451.026 259.895 451.222C260.31 451.417 260.649 451.69 260.913 452.042C261.176 452.389 261.372 452.799 261.499 453.272C261.625 453.741 261.689 454.254 261.689 454.811V455.418H255.771V454.312H260.334V454.21C260.314 453.858 260.241 453.517 260.114 453.185C259.992 452.853 259.797 452.579 259.528 452.364C259.26 452.149 258.894 452.042 258.43 452.042C258.122 452.042 257.839 452.108 257.58 452.24C257.321 452.367 257.099 452.557 256.914 452.811C256.728 453.065 256.584 453.375 256.481 453.741C256.379 454.107 256.328 454.53 256.328 455.008V455.316C256.328 455.692 256.379 456.046 256.481 456.378C256.589 456.705 256.743 456.993 256.943 457.242C257.148 457.491 257.395 457.687 257.683 457.828C257.976 457.97 258.308 458.041 258.679 458.041C259.157 458.041 259.562 457.943 259.895 457.748C260.227 457.552 260.517 457.291 260.766 456.964L261.586 457.616C261.416 457.875 261.198 458.121 260.935 458.355C260.671 458.59 260.346 458.78 259.96 458.927C259.58 459.073 259.128 459.146 258.605 459.146ZM268.464 451.075V459H267.102V451.075H268.464ZM266.999 448.973C266.999 448.753 267.065 448.568 267.197 448.417C267.333 448.265 267.534 448.189 267.797 448.189C268.056 448.189 268.254 448.265 268.391 448.417C268.532 448.568 268.603 448.753 268.603 448.973C268.603 449.183 268.532 449.364 268.391 449.515C268.254 449.662 268.056 449.735 267.797 449.735C267.534 449.735 267.333 449.662 267.197 449.515C267.065 449.364 266.999 449.183 266.999 448.973ZM273.957 451.075V452.115H269.672V451.075H273.957ZM271.123 449.149H272.478V457.037C272.478 457.306 272.519 457.508 272.602 457.645C272.685 457.782 272.792 457.872 272.924 457.916C273.056 457.96 273.198 457.982 273.349 457.982C273.461 457.982 273.579 457.972 273.701 457.953C273.828 457.928 273.923 457.909 273.986 457.894L273.994 459C273.886 459.034 273.745 459.066 273.569 459.095C273.398 459.129 273.19 459.146 272.946 459.146C272.614 459.146 272.309 459.081 272.031 458.949C271.752 458.817 271.53 458.597 271.364 458.29C271.203 457.977 271.123 457.557 271.123 457.03V449.149ZM278.835 459.146C278.283 459.146 277.783 459.054 277.333 458.868C276.889 458.678 276.506 458.412 276.184 458.07C275.866 457.728 275.622 457.323 275.451 456.854C275.28 456.385 275.195 455.873 275.195 455.316V455.008C275.195 454.364 275.29 453.79 275.48 453.287C275.671 452.779 275.93 452.35 276.257 451.998C276.584 451.646 276.955 451.38 277.37 451.2C277.785 451.019 278.215 450.929 278.659 450.929C279.226 450.929 279.714 451.026 280.124 451.222C280.539 451.417 280.878 451.69 281.142 452.042C281.406 452.389 281.601 452.799 281.728 453.272C281.855 453.741 281.918 454.254 281.918 454.811V455.418H276V454.312H280.563V454.21C280.544 453.858 280.471 453.517 280.344 453.185C280.222 452.853 280.026 452.579 279.758 452.364C279.489 452.149 279.123 452.042 278.659 452.042C278.352 452.042 278.068 452.108 277.81 452.24C277.551 452.367 277.329 452.557 277.143 452.811C276.958 453.065 276.813 453.375 276.711 453.741C276.608 454.107 276.557 454.53 276.557 455.008V455.316C276.557 455.692 276.608 456.046 276.711 456.378C276.818 456.705 276.972 456.993 277.172 457.242C277.377 457.491 277.624 457.687 277.912 457.828C278.205 457.97 278.537 458.041 278.908 458.041C279.387 458.041 279.792 457.943 280.124 457.748C280.456 457.552 280.747 457.291 280.996 456.964L281.816 457.616C281.645 457.875 281.428 458.121 281.164 458.355C280.9 458.59 280.576 458.78 280.19 458.927C279.809 459.073 279.357 459.146 278.835 459.146ZM284.848 452.65V459H283.486V451.075H284.775L284.848 452.65ZM284.57 454.737L283.94 454.715C283.945 454.173 284.016 453.673 284.152 453.214C284.289 452.75 284.492 452.347 284.76 452.005C285.029 451.664 285.363 451.4 285.764 451.214C286.164 451.024 286.628 450.929 287.155 450.929C287.526 450.929 287.868 450.982 288.181 451.09C288.493 451.192 288.764 451.356 288.994 451.581C289.223 451.805 289.401 452.093 289.528 452.445C289.655 452.796 289.719 453.221 289.719 453.719V459H288.364V453.785C288.364 453.37 288.293 453.038 288.151 452.789C288.015 452.54 287.819 452.359 287.565 452.247C287.312 452.13 287.014 452.071 286.672 452.071C286.271 452.071 285.937 452.142 285.668 452.284C285.4 452.425 285.185 452.621 285.024 452.87C284.863 453.119 284.746 453.404 284.672 453.727C284.604 454.044 284.57 454.381 284.57 454.737ZM289.704 453.99L288.796 454.269C288.801 453.834 288.872 453.417 289.008 453.016C289.15 452.616 289.353 452.259 289.616 451.947C289.885 451.634 290.214 451.388 290.605 451.207C290.996 451.021 291.442 450.929 291.945 450.929C292.37 450.929 292.746 450.985 293.073 451.097C293.405 451.209 293.684 451.383 293.908 451.617C294.138 451.847 294.311 452.142 294.428 452.503C294.545 452.865 294.604 453.294 294.604 453.792V459H293.242V453.778C293.242 453.333 293.171 452.989 293.029 452.745C292.893 452.496 292.697 452.323 292.443 452.225C292.194 452.123 291.896 452.071 291.55 452.071C291.252 452.071 290.988 452.123 290.759 452.225C290.529 452.328 290.336 452.469 290.18 452.65C290.024 452.826 289.904 453.028 289.821 453.258C289.743 453.487 289.704 453.731 289.704 453.99Z" fill="#505050"/>
<g clip-path="url(#clip0_6364_77513)">
<mask maskUnits="userSpaceOnUse" x="0" y="0" width="0" height="0" fill="black">
<rect fill="white" width="0" height="0"/>
</mask>
<path d="M122.707 90.2929C122.317 89.9024 121.683 89.9024 121.293 90.2929L114.929 96.6569C114.538 97.0474 114.538 97.6805 114.929 98.0711C115.319 98.4616 115.953 98.4616 116.343 98.0711L122 92.4142L127.657 98.0711C128.047 98.4616 128.681 98.4616 129.071 98.0711C129.462 97.6805 129.462 97.0474 129.071 96.6569L122.707 90.2929ZM121.293 121.707C121.683 122.098 122.317 122.098 122.707 121.707L129.071 115.343C129.462 114.953 129.462 114.319 129.071 113.929C128.681 113.538 128.047 113.538 127.657 113.929L122 119.586L116.343 113.929C115.953 113.538 115.319 113.538 114.929 113.929C114.538 114.319 114.538 114.953 114.929 115.343L121.293 121.707ZM121 91V121H123V91H121Z" fill="#737373" mask="url(#)"/>
</g>
<path fill-rule="evenodd" clip-rule="evenodd" d="M114 90L114 91L114 95.024L114 96.024L114 100.018L114 101.018L114 105.014L114 106.014H115H118.989H119.989H124.011H125.011H129H130V105.014V101.018V100.018V96.024V95.024V91V90H129H125.011H124.011H119.989H119.022H118.989H115H114ZM115 91V95.024H118.989V91H115ZM115 96.024V100.018H118.989V96.024H115ZM115 101.018V105.014H118.989V101.018H115ZM129 101.018V105.014H125.011V101.018H129ZM129 96.024V100.018H125.011V96.031V96.024H129ZM129 91V95.024H125.011V91H129ZM124.011 96.031H119.989V100.018H124.011V96.031ZM124.011 101.018H119.989V105.014H124.011V101.018Z" fill="#737373"/>
<g clip-path="url(#clip1_6364_77513)">
<g clip-path="url(#clip2_6364_77513)">
<mask maskUnits="userSpaceOnUse" x="0" y="0" width="0" height="0" fill="black">
<rect fill="white" width="0" height="0"/>
</mask>
<path d="M123.28 136.22C122.987 135.927 122.513 135.927 122.22 136.22L117.447 140.993C117.154 141.286 117.154 141.76 117.447 142.053C117.74 142.346 118.214 142.346 118.507 142.053L122.75 137.811L126.993 142.053C127.286 142.346 127.76 142.346 128.053 142.053C128.346 141.76 128.346 141.286 128.053 140.993L123.28 136.22ZM122.22 321.28C122.513 321.573 122.987 321.573 123.28 321.28L128.053 316.507C128.346 316.214 128.346 315.74 128.053 315.447C127.76 315.154 127.286 315.154 126.993 315.447L122.75 319.689L118.507 315.447C118.214 315.154 117.74 315.154 117.447 315.447C117.154 315.74 117.154 316.214 117.447 316.507L122.22 321.28ZM122 136.75L122 320.75H123.5L123.5 136.75H122Z" fill="#0059FF" mask="url(#)"/>
<mask maskUnits="userSpaceOnUse" x="0" y="0" width="0" height="0" fill="black">
<rect fill="white" width="0" height="0"/>
</mask>
<path d="M123.28 322.72C122.987 322.427 122.513 322.427 122.22 322.72L117.447 327.493C117.154 327.786 117.154 328.26 117.447 328.553C117.74 328.846 118.214 328.846 118.507 328.553L122.75 324.311L126.993 328.553C127.286 328.846 127.76 328.846 128.053 328.553C128.346 328.26 128.346 327.786 128.053 327.493L123.28 322.72ZM122.22 507.78C122.513 508.073 122.987 508.073 123.28 507.78L128.053 503.007C128.346 502.714 128.346 502.24 128.053 501.947C127.76 501.654 127.286 501.654 126.993 501.947L122.75 506.189L118.507 501.947C118.214 501.654 117.74 501.654 117.447 501.947C117.154 502.24 117.154 502.714 117.447 503.007L122.22 507.78ZM122 323.25L122 507.25H123.5L123.5 323.25H122Z" fill="#0059FF" mask="url(#)"/>
</g>
</g>
<g clip-path="url(#clip3_6364_77513)">
<line x1="169.75" y1="97.75" x2="512.25" y2="97.75" stroke="#0059FF" stroke-width="1.5" stroke-linecap="square"/>
<line x1="169.75" y1="92.75" x2="169.75" y2="103.25" stroke="#0059FF" stroke-width="1.5" stroke-linecap="round"/>
<line x1="512.25" y1="103.25" x2="512.25" y2="92.75" stroke="#0059FF" stroke-width="1.5" stroke-linecap="round"/>
</g>
<rect opacity="0.2" x="169" y="210" width="344" height="4" fill="#F45C59"/>
<line x1="154" y1="210.5" x2="514" y2="210.5" stroke="#F45C59"/>
<line x1="154" y1="213.5" x2="514" y2="213.5" stroke="#F45C59"/>
<path d="M147.562 211.812V213.137H141.416L141.334 212.111L144.891 206.469H146.232L144.779 208.9L143.01 211.812H147.562ZM146.596 206.469V215H144.908V206.469H146.596Z" fill="#F45C59"/>
<g clip-path="url(#clip4_6364_77513)">
<g clip-path="url(#clip5_6364_77513)">
<mask maskUnits="userSpaceOnUse" x="0" y="0" width="0" height="0" fill="black">
<rect fill="white" width="0" height="0"/>
</mask>
<path d="M162.854 158.146C162.658 157.951 162.342 157.951 162.146 158.146L158.964 161.328C158.769 161.524 158.769 161.84 158.964 162.036C159.16 162.231 159.476 162.231 159.672 162.036L162.5 159.207L165.328 162.036C165.524 162.231 165.84 162.231 166.036 162.036C166.231 161.84 166.231 161.524 166.036 161.328L162.854 158.146ZM162.146 188.354C162.342 188.549 162.658 188.549 162.854 188.354L166.036 185.172C166.231 184.976 166.231 184.66 166.036 184.464C165.84 184.269 165.524 184.269 165.328 184.464L162.5 187.293L159.672 184.464C159.476 184.269 159.16 184.269 158.964 184.464C158.769 184.66 158.769 184.976 158.964 185.172L162.146 188.354ZM162 158.5V188H163V158.5H162Z" fill="#0059FF" mask="url(#)"/>
<mask maskUnits="userSpaceOnUse" x="0" y="0" width="0" height="0" fill="black">
<rect fill="white" width="0" height="0"/>
</mask>
<path d="M162.854 189.646C162.658 189.451 162.342 189.451 162.146 189.646L158.964 192.828C158.769 193.024 158.769 193.34 158.964 193.536C159.16 193.731 159.476 193.731 159.672 193.536L162.5 190.707L165.328 193.536C165.524 193.731 165.84 193.731 166.036 193.536C166.231 193.34 166.231 193.024 166.036 192.828L162.854 189.646ZM162.146 219.854C162.342 220.049 162.658 220.049 162.854 219.854L166.036 216.672C166.231 216.476 166.231 216.16 166.036 215.964C165.84 215.769 165.524 215.769 165.328 215.964L162.5 218.793L159.672 215.964C159.476 215.769 159.16 215.769 158.964 215.964C158.769 216.16 158.769 216.476 158.964 216.672L162.146 219.854ZM162 190V219.5H163V190H162Z" fill="#0059FF" mask="url(#)"/>
</g>
</g>
<rect opacity="0.2" x="169" y="254" width="344" height="4" fill="#F45C59"/>
<line x1="154" y1="254.5" x2="514" y2="254.5" stroke="#F45C59"/>
<line x1="154" y1="257.5" x2="514" y2="257.5" stroke="#F45C59"/>
<path d="M147.562 255.812V257.137H141.416L141.334 256.111L144.891 250.469H146.232L144.779 252.9L143.01 255.812H147.562ZM146.596 250.469V259H144.908V250.469H146.596Z" fill="#F45C59"/>
<g clip-path="url(#clip6_6364_77513)">
<g clip-path="url(#clip7_6364_77513)">
<mask maskUnits="userSpaceOnUse" x="0" y="0" width="0" height="0" fill="black">
<rect fill="white" width="0" height="0"/>
</mask>
<path d="M162.854 204.146C162.658 203.951 162.342 203.951 162.146 204.146L158.964 207.328C158.769 207.524 158.769 207.84 158.964 208.036C159.16 208.231 159.476 208.231 159.672 208.036L162.5 205.207L165.328 208.036C165.524 208.231 165.84 208.231 166.036 208.036C166.231 207.84 166.231 207.524 166.036 207.328L162.854 204.146ZM162.146 233.354C162.342 233.549 162.658 233.549 162.854 233.354L166.036 230.172C166.231 229.976 166.231 229.66 166.036 229.464C165.84 229.269 165.524 229.269 165.328 229.464L162.5 232.293L159.672 229.464C159.476 229.269 159.16 229.269 158.964 229.464C158.769 229.66 158.769 229.976 158.964 230.172L162.146 233.354ZM162 204.5V233H163V204.5H162Z" fill="#0059FF" mask="url(#)"/>
<mask maskUnits="userSpaceOnUse" x="0" y="0" width="0" height="0" fill="black">
<rect fill="white" width="0" height="0"/>
</mask>
<path d="M162.854 234.646C162.658 234.451 162.342 234.451 162.146 234.646L158.964 237.828C158.769 238.024 158.769 238.34 158.964 238.536C159.16 238.731 159.476 238.731 159.672 238.536L162.5 235.707L165.328 238.536C165.524 238.731 165.84 238.731 166.036 238.536C166.231 238.34 166.231 238.024 166.036 237.828L162.854 234.646ZM162.146 263.854C162.342 264.049 162.658 264.049 162.854 263.854L166.036 260.672C166.231 260.476 166.231 260.16 166.036 259.964C165.84 259.769 165.524 259.769 165.328 259.964L162.5 262.793L159.672 259.964C159.476 259.769 159.16 259.769 158.964 259.964C158.769 260.16 158.769 260.476 158.964 260.672L162.146 263.854ZM162 235V263.5H163V235H162Z" fill="#0059FF" mask="url(#)"/>
</g>
</g>
<rect opacity="0.2" x="169" y="429" width="344" height="4" fill="#F45C59"/>
<line x1="156.896" y1="429.444" x2="514" y2="429.444" stroke="#F45C59"/>
<line x1="156.896" y1="432.42" x2="514" y2="432.42" stroke="#F45C59"/>
<path d="M150.562 430.812V432.137H144.416L144.334 431.111L147.891 425.469H149.232L147.779 427.9L146.01 430.812H150.562ZM149.596 425.469V434H147.908V425.469H149.596Z" fill="#F45C59"/>
<g clip-path="url(#clip8_6364_77513)">
<g clip-path="url(#clip9_6364_77513)">
<mask maskUnits="userSpaceOnUse" x="0" y="0" width="0" height="0" fill="black">
<rect fill="white" width="0" height="0"/>
</mask>
<path d="M162.854 248.146C162.658 247.951 162.342 247.951 162.146 248.146L158.964 251.328C158.769 251.524 158.769 251.84 158.964 252.036C159.16 252.231 159.476 252.231 159.672 252.036L162.5 249.207L165.328 252.036C165.524 252.231 165.84 252.231 166.036 252.036C166.231 251.84 166.231 251.524 166.036 251.328L162.854 248.146ZM162.146 342.854C162.342 343.049 162.658 343.049 162.854 342.854L166.036 339.672C166.231 339.476 166.231 339.16 166.036 338.964C165.84 338.769 165.524 338.769 165.328 338.964L162.5 341.793L159.672 338.964C159.476 338.769 159.16 338.769 158.964 338.964C158.769 339.16 158.769 339.476 158.964 339.672L162.146 342.854ZM162 248.5V342.5H163V248.5H162Z" fill="#0059FF" mask="url(#)"/>
<mask maskUnits="userSpaceOnUse" x="0" y="0" width="0" height="0" fill="black">
<rect fill="white" width="0" height="0"/>
</mask>
<path d="M162.854 344.146C162.658 343.951 162.342 343.951 162.146 344.146L158.964 347.328C158.769 347.524 158.769 347.84 158.964 348.036C159.16 348.231 159.476 348.231 159.672 348.036L162.5 345.207L165.328 348.036C165.524 348.231 165.84 348.231 166.036 348.036C166.231 347.84 166.231 347.524 166.036 347.328L162.854 344.146ZM162.146 438.854C162.342 439.049 162.658 439.049 162.854 438.854L166.036 435.672C166.231 435.476 166.231 435.16 166.036 434.964C165.84 434.769 165.524 434.769 165.328 434.964L162.5 437.793L159.672 434.964C159.476 434.769 159.16 434.769 158.964 434.964C158.769 435.16 158.769 435.476 158.964 435.672L162.146 438.854ZM162 344.5V438.5H163V344.5H162Z" fill="#0059FF" mask="url(#)"/>
</g>
</g>
<g clip-path="url(#clip10_6364_77513)">
<g clip-path="url(#clip11_6364_77513)">
<mask maskUnits="userSpaceOnUse" x="0" y="0" width="0" height="0" fill="black">
<rect fill="white" width="0" height="0"/>
</mask>
<path d="M162.854 423.146C162.658 422.951 162.342 422.951 162.146 423.146L158.964 426.328C158.769 426.524 158.769 426.84 158.964 427.036C159.16 427.231 159.476 427.231 159.672 427.036L162.5 424.207L165.328 427.036C165.524 427.231 165.84 427.231 166.036 427.036C166.231 426.84 166.231 426.524 166.036 426.328L162.854 423.146ZM162.146 452.854C162.342 453.049 162.658 453.049 162.854 452.854L166.036 449.672C166.231 449.476 166.231 449.16 166.036 448.964C165.84 448.769 165.524 448.769 165.328 448.964L162.5 451.793L159.672 448.964C159.476 448.769 159.16 448.769 158.964 448.964C158.769 449.16 158.769 449.476 158.964 449.672L162.146 452.854ZM162 423.5V452.5H163V423.5H162Z" fill="#0059FF" mask="url(#)"/>
<mask maskUnits="userSpaceOnUse" x="0" y="0" width="0" height="0" fill="black">
<rect fill="white" width="0" height="0"/>
</mask>
<path d="M162.854 454.146C162.658 453.951 162.342 453.951 162.146 454.146L158.964 457.328C158.769 457.524 158.769 457.84 158.964 458.036C159.16 458.231 159.476 458.231 159.672 458.036L162.5 455.207L165.328 458.036C165.524 458.231 165.84 458.231 166.036 458.036C166.231 457.84 166.231 457.524 166.036 457.328L162.854 454.146ZM162.146 483.854C162.342 484.049 162.658 484.049 162.854 483.854L166.036 480.672C166.231 480.476 166.231 480.16 166.036 479.964C165.84 479.769 165.524 479.769 165.328 479.964L162.5 482.793L159.672 479.964C159.476 479.769 159.16 479.769 158.964 479.964C158.769 480.16 158.769 480.476 158.964 480.672L162.146 483.854ZM162 454.5V483.5H163V454.5H162Z" fill="#0059FF" mask="url(#)"/>
</g>
</g>
<path d="M180.422 123.682V125H174.586V123.875L177.346 120.916C177.623 120.607 177.842 120.336 178.002 120.102C178.162 119.863 178.277 119.65 178.348 119.463C178.422 119.271 178.459 119.09 178.459 118.918C178.459 118.66 178.416 118.439 178.33 118.256C178.244 118.068 178.117 117.924 177.949 117.822C177.785 117.721 177.582 117.67 177.34 117.67C177.082 117.67 176.859 117.732 176.672 117.857C176.488 117.982 176.348 118.156 176.25 118.379C176.156 118.602 176.109 118.854 176.109 119.135H174.416C174.416 118.627 174.537 118.162 174.779 117.74C175.021 117.314 175.363 116.977 175.805 116.727C176.246 116.473 176.77 116.346 177.375 116.346C177.973 116.346 178.477 116.443 178.887 116.639C179.301 116.83 179.613 117.107 179.824 117.471C180.039 117.83 180.146 118.26 180.146 118.76C180.146 119.041 180.102 119.316 180.012 119.586C179.922 119.852 179.793 120.117 179.625 120.383C179.461 120.645 179.262 120.91 179.027 121.18C178.793 121.449 178.533 121.729 178.248 122.018L176.766 123.682H180.422ZM187.453 121.812V123.137H181.307L181.225 122.111L184.781 116.469H186.123L184.67 118.9L182.9 121.812H187.453ZM186.486 116.469V125H184.799V116.469H186.486Z" fill="#18BB4B"/>
<rect x="169" y="130" width="1" height="392" fill="#18BB4B"/>
<rect opacity="0.9" x="170" y="130" width="22" height="392" fill="#18BB4B" fill-opacity="0.2"/>
<rect x="192" y="130" width="1" height="392" fill="#18BB4B"/>
<rect x="193" y="258" width="1" height="171" fill="#18BB4B"/>
<rect opacity="0.9" x="194" y="258" width="22" height="171" fill="#18BB4B" fill-opacity="0.2"/>
<rect x="216" y="258" width="1" height="171" fill="#18BB4B"/>
<rect x="217" y="342" width="1" height="87" fill="#18BB4B"/>
<rect opacity="0.9" x="218" y="342" width="22" height="87" fill="#18BB4B" fill-opacity="0.2"/>
<rect x="240" y="342" width="1" height="87" fill="#18BB4B"/>
<path d="M500.422 123.682V125H494.586V123.875L497.346 120.916C497.623 120.607 497.842 120.336 498.002 120.102C498.162 119.863 498.277 119.65 498.348 119.463C498.422 119.271 498.459 119.09 498.459 118.918C498.459 118.66 498.416 118.439 498.33 118.256C498.244 118.068 498.117 117.924 497.949 117.822C497.785 117.721 497.582 117.67 497.34 117.67C497.082 117.67 496.859 117.732 496.672 117.857C496.488 117.982 496.348 118.156 496.25 118.379C496.156 118.602 496.109 118.854 496.109 119.135H494.416C494.416 118.627 494.537 118.162 494.779 117.74C495.021 117.314 495.363 116.977 495.805 116.727C496.246 116.473 496.77 116.346 497.375 116.346C497.973 116.346 498.477 116.443 498.887 116.639C499.301 116.83 499.613 117.107 499.824 117.471C500.039 117.83 500.146 118.26 500.146 118.76C500.146 119.041 500.102 119.316 500.012 119.586C499.922 119.852 499.793 120.117 499.625 120.383C499.461 120.645 499.262 120.91 499.027 121.18C498.793 121.449 498.533 121.729 498.248 122.018L496.766 123.682H500.422ZM507.453 121.812V123.137H501.307L501.225 122.111L504.781 116.469H506.123L504.67 118.9L502.9 121.812H507.453ZM506.486 116.469V125H504.799V116.469H506.486Z" fill="#18BB4B"/>
<rect x="489" y="130" width="1" height="392" fill="#18BB4B"/>
<rect opacity="0.9" x="490" y="130" width="22" height="392" fill="#18BB4B" fill-opacity="0.2"/>
<rect x="512" y="130" width="1" height="392" fill="#18BB4B"/>
<path d="M136.422 159.682V161H130.586V159.875L133.346 156.916C133.623 156.607 133.842 156.336 134.002 156.102C134.162 155.863 134.277 155.65 134.348 155.463C134.422 155.271 134.459 155.09 134.459 154.918C134.459 154.66 134.416 154.439 134.33 154.256C134.244 154.068 134.117 153.924 133.949 153.822C133.785 153.721 133.582 153.67 133.34 153.67C133.082 153.67 132.859 153.732 132.672 153.857C132.488 153.982 132.348 154.156 132.25 154.379C132.156 154.602 132.109 154.854 132.109 155.135H130.416C130.416 154.627 130.537 154.162 130.779 153.74C131.021 153.314 131.363 152.977 131.805 152.727C132.246 152.473 132.77 152.346 133.375 152.346C133.973 152.346 134.477 152.443 134.887 152.639C135.301 152.83 135.613 153.107 135.824 153.471C136.039 153.83 136.146 154.26 136.146 154.76C136.146 155.041 136.102 155.316 136.012 155.586C135.922 155.852 135.793 156.117 135.625 156.383C135.461 156.645 135.262 156.91 135.027 157.18C134.793 157.449 134.533 157.729 134.248 158.018L132.766 159.682H136.422ZM143.453 157.812V159.137H137.307L137.225 158.111L140.781 152.469H142.123L140.67 154.9L138.9 157.812H143.453ZM142.486 152.469V161H140.799V152.469H142.486Z" fill="#18BB4B"/>
<rect x="146" y="169" width="1" height="391" transform="rotate(-90 146 169)" fill="#18BB4B"/>
<rect opacity="0.9" x="146" y="168" width="22" height="391" transform="rotate(-90 146 168)" fill="#18BB4B" fill-opacity="0.2"/>
<rect x="146" y="146" width="1" height="391" transform="rotate(-90 146 146)" fill="#18BB4B"/>
<path d="M136.422 488.682V490H130.586V488.875L133.346 485.916C133.623 485.607 133.842 485.336 134.002 485.102C134.162 484.863 134.277 484.65 134.348 484.463C134.422 484.271 134.459 484.09 134.459 483.918C134.459 483.66 134.416 483.439 134.33 483.256C134.244 483.068 134.117 482.924 133.949 482.822C133.785 482.721 133.582 482.67 133.34 482.67C133.082 482.67 132.859 482.732 132.672 482.857C132.488 482.982 132.348 483.156 132.25 483.379C132.156 483.602 132.109 483.854 132.109 484.135H130.416C130.416 483.627 130.537 483.162 130.779 482.74C131.021 482.314 131.363 481.977 131.805 481.727C132.246 481.473 132.77 481.346 133.375 481.346C133.973 481.346 134.477 481.443 134.887 481.639C135.301 481.83 135.613 482.107 135.824 482.471C136.039 482.83 136.146 483.26 136.146 483.76C136.146 484.041 136.102 484.316 136.012 484.586C135.922 484.852 135.793 485.117 135.625 485.383C135.461 485.645 135.262 485.91 135.027 486.18C134.793 486.449 134.533 486.729 134.248 487.018L132.766 488.682H136.422ZM143.453 486.812V488.137H137.307L137.225 487.111L140.781 481.469H142.123L140.67 483.9L138.9 486.812H143.453ZM142.486 481.469V490H140.799V481.469H142.486Z" fill="#18BB4B"/>
<rect x="146" y="498" width="1" height="391" transform="rotate(-90 146 498)" fill="#18BB4B"/>
<rect opacity="0.9" x="146" y="497" width="22" height="391" transform="rotate(-90 146 497)" fill="#18BB4B" fill-opacity="0.2"/>
<rect x="146" y="475" width="1" height="391" transform="rotate(-90 146 475)" fill="#18BB4B"/>
<defs>
<clipPath id="clip0_6364_77513">
<rect width="16" height="16" fill="white" transform="matrix(0 1 -1 0 130 106)"/>
</clipPath>
<clipPath id="clip1_6364_77513">
<rect width="352" height="16" fill="white" transform="matrix(0 1 -1 0 130 146)"/>
</clipPath>
<clipPath id="clip2_6364_77513">
<rect width="372" height="16" fill="white" transform="matrix(0 1 -1 0 130 136)"/>
</clipPath>
<clipPath id="clip3_6364_77513">
<rect width="344" height="16" fill="white" transform="translate(170 90)"/>
</clipPath>
<clipPath id="clip4_6364_77513">
<rect width="42" height="16" fill="white" transform="matrix(0 1 -1 0 170 168)"/>
</clipPath>
<clipPath id="clip5_6364_77513">
<rect width="62" height="16" fill="white" transform="matrix(0 1 -1 0 170 158)"/>
</clipPath>
<clipPath id="clip6_6364_77513">
<rect width="40" height="16" fill="white" transform="matrix(0 1 -1 0 170 214)"/>
</clipPath>
<clipPath id="clip7_6364_77513">
<rect width="60" height="16" fill="white" transform="matrix(0 1 -1 0 170 204)"/>
</clipPath>
<clipPath id="clip8_6364_77513">
<rect width="171" height="16" fill="white" transform="matrix(0 1 -1 0 170 258)"/>
</clipPath>
<clipPath id="clip9_6364_77513">
<rect width="191" height="16" fill="white" transform="matrix(0 1 -1 0 170 248)"/>
</clipPath>
<clipPath id="clip10_6364_77513">
<rect width="41" height="16" fill="white" transform="matrix(0 1 -1 0 170 433)"/>
</clipPath>
<clipPath id="clip11_6364_77513">
<rect width="61" height="16" fill="white" transform="matrix(0 1 -1 0 170 423)"/>
</clipPath>
</defs>
</svg>
