<svg width="1280" height="264" viewBox="0 0 1280 264" fill="none" xmlns="http://www.w3.org/2000/svg">
<rect width="1280" height="264" rx="16" fill="#F7F7F7"/>
<rect x="20" y="80" width="235.2" height="56" rx="16" fill="white"/>
<rect x="28" y="88" width="219.2" height="40" rx="8" fill="white"/>
<path d="M45.75 113C45.5469 113 45.3672 112.933 45.2109 112.799C45.0703 112.65 45 112.479 45 112.286C45 112.092 45.0703 111.921 45.2109 111.772L49.1953 108L45.2109 104.228C45.0703 104.079 45 103.908 45 103.714C45 103.521 45.0703 103.35 45.2109 103.201C45.3672 103.067 45.5469 103 45.75 103C45.9531 103 46.1328 103.067 46.2891 103.201L50.7891 107.487C50.9297 107.635 51 107.807 51 108C51 108.193 50.9297 108.365 50.7891 108.513L46.2891 112.799C46.1328 112.933 45.9531 113 45.75 113Z" fill="#737373"/>
<path d="M73.1782 102.336V113H71.7866V102.336H73.1782ZM76.606 102.336V103.493H68.3662V102.336H76.606ZM78.7812 106.32V113H77.4263V105.075H78.7446L78.7812 106.32ZM81.2568 105.031L81.2495 106.291C81.1372 106.267 81.0298 106.252 80.9272 106.247C80.8296 106.237 80.7173 106.232 80.5903 106.232C80.2778 106.232 80.002 106.281 79.7627 106.379C79.5234 106.477 79.3208 106.613 79.1548 106.789C78.9888 106.965 78.8569 107.175 78.7593 107.419C78.6665 107.658 78.6055 107.922 78.5762 108.21L78.1953 108.43C78.1953 107.951 78.2417 107.502 78.3345 107.082C78.4321 106.662 78.5811 106.291 78.7812 105.969C78.9814 105.642 79.2354 105.388 79.543 105.207C79.8555 105.021 80.2266 104.929 80.6562 104.929C80.7539 104.929 80.8662 104.941 80.9932 104.965C81.1201 104.985 81.208 105.007 81.2568 105.031ZM85.6514 113.146C85.0996 113.146 84.5991 113.054 84.1499 112.868C83.7056 112.678 83.3223 112.412 83 112.07C82.6826 111.728 82.4385 111.323 82.2676 110.854C82.0967 110.385 82.0112 109.873 82.0112 109.316V109.008C82.0112 108.364 82.1064 107.79 82.2969 107.287C82.4873 106.779 82.7461 106.35 83.0732 105.998C83.4004 105.646 83.7715 105.38 84.1865 105.2C84.6016 105.019 85.0312 104.929 85.4756 104.929C86.042 104.929 86.5303 105.026 86.9404 105.222C87.3555 105.417 87.6948 105.69 87.9585 106.042C88.2222 106.389 88.4175 106.799 88.5444 107.272C88.6714 107.741 88.7349 108.254 88.7349 108.811V109.418H82.8169V108.312H87.3799V108.21C87.3604 107.858 87.2871 107.517 87.1602 107.185C87.0381 106.853 86.8428 106.579 86.5742 106.364C86.3057 106.149 85.9395 106.042 85.4756 106.042C85.168 106.042 84.8848 106.108 84.626 106.24C84.3672 106.367 84.145 106.557 83.9595 106.811C83.7739 107.065 83.6299 107.375 83.5273 107.741C83.4248 108.107 83.3735 108.53 83.3735 109.008V109.316C83.3735 109.692 83.4248 110.046 83.5273 110.378C83.6348 110.705 83.7886 110.993 83.9888 111.242C84.1938 111.491 84.4404 111.687 84.7285 111.828C85.0215 111.97 85.3535 112.041 85.7246 112.041C86.2031 112.041 86.6084 111.943 86.9404 111.748C87.2725 111.552 87.563 111.291 87.812 110.964L88.6323 111.616C88.4614 111.875 88.2441 112.121 87.9805 112.355C87.7168 112.59 87.3921 112.78 87.0063 112.927C86.6255 113.073 86.1738 113.146 85.6514 113.146ZM93.6055 113.146C93.0537 113.146 92.5532 113.054 92.104 112.868C91.6597 112.678 91.2764 112.412 90.9541 112.07C90.6367 111.728 90.3926 111.323 90.2217 110.854C90.0508 110.385 89.9653 109.873 89.9653 109.316V109.008C89.9653 108.364 90.0605 107.79 90.251 107.287C90.4414 106.779 90.7002 106.35 91.0273 105.998C91.3545 105.646 91.7256 105.38 92.1406 105.2C92.5557 105.019 92.9854 104.929 93.4297 104.929C93.9961 104.929 94.4844 105.026 94.8945 105.222C95.3096 105.417 95.6489 105.69 95.9126 106.042C96.1763 106.389 96.3716 106.799 96.4985 107.272C96.6255 107.741 96.689 108.254 96.689 108.811V109.418H90.771V108.312H95.334V108.21C95.3145 107.858 95.2412 107.517 95.1143 107.185C94.9922 106.853 94.7969 106.579 94.5283 106.364C94.2598 106.149 93.8936 106.042 93.4297 106.042C93.1221 106.042 92.8389 106.108 92.5801 106.24C92.3213 106.367 92.0991 106.557 91.9136 106.811C91.728 107.065 91.584 107.375 91.4814 107.741C91.3789 108.107 91.3276 108.53 91.3276 109.008V109.316C91.3276 109.692 91.3789 110.046 91.4814 110.378C91.5889 110.705 91.7427 110.993 91.9429 111.242C92.1479 111.491 92.3945 111.687 92.6826 111.828C92.9756 111.97 93.3076 112.041 93.6787 112.041C94.1572 112.041 94.5625 111.943 94.8945 111.748C95.2266 111.552 95.5171 111.291 95.7661 110.964L96.5864 111.616C96.4155 111.875 96.1982 112.121 95.9346 112.355C95.6709 112.59 95.3462 112.78 94.9604 112.927C94.5796 113.073 94.1279 113.146 93.6055 113.146ZM103.464 105.075V113H102.102V105.075H103.464ZM101.999 102.973C101.999 102.753 102.065 102.568 102.197 102.417C102.333 102.265 102.534 102.189 102.797 102.189C103.056 102.189 103.254 102.265 103.391 102.417C103.532 102.568 103.603 102.753 103.603 102.973C103.603 103.183 103.532 103.364 103.391 103.515C103.254 103.662 103.056 103.735 102.797 103.735C102.534 103.735 102.333 103.662 102.197 103.515C102.065 103.364 101.999 103.183 101.999 102.973ZM108.957 105.075V106.115H104.672V105.075H108.957ZM106.123 103.149H107.478V111.037C107.478 111.306 107.519 111.508 107.602 111.645C107.685 111.782 107.792 111.872 107.924 111.916C108.056 111.96 108.198 111.982 108.349 111.982C108.461 111.982 108.579 111.972 108.701 111.953C108.828 111.928 108.923 111.909 108.986 111.894L108.994 113C108.886 113.034 108.745 113.066 108.569 113.095C108.398 113.129 108.19 113.146 107.946 113.146C107.614 113.146 107.309 113.081 107.031 112.949C106.752 112.817 106.53 112.597 106.364 112.29C106.203 111.977 106.123 111.557 106.123 111.03V103.149ZM113.835 113.146C113.283 113.146 112.783 113.054 112.333 112.868C111.889 112.678 111.506 112.412 111.184 112.07C110.866 111.728 110.622 111.323 110.451 110.854C110.28 110.385 110.195 109.873 110.195 109.316V109.008C110.195 108.364 110.29 107.79 110.48 107.287C110.671 106.779 110.93 106.35 111.257 105.998C111.584 105.646 111.955 105.38 112.37 105.2C112.785 105.019 113.215 104.929 113.659 104.929C114.226 104.929 114.714 105.026 115.124 105.222C115.539 105.417 115.878 105.69 116.142 106.042C116.406 106.389 116.601 106.799 116.728 107.272C116.855 107.741 116.918 108.254 116.918 108.811V109.418H111V108.312H115.563V108.21C115.544 107.858 115.471 107.517 115.344 107.185C115.222 106.853 115.026 106.579 114.758 106.364C114.489 106.149 114.123 106.042 113.659 106.042C113.352 106.042 113.068 106.108 112.81 106.24C112.551 106.367 112.329 106.557 112.143 106.811C111.958 107.065 111.813 107.375 111.711 107.741C111.608 108.107 111.557 108.53 111.557 109.008V109.316C111.557 109.692 111.608 110.046 111.711 110.378C111.818 110.705 111.972 110.993 112.172 111.242C112.377 111.491 112.624 111.687 112.912 111.828C113.205 111.97 113.537 112.041 113.908 112.041C114.387 112.041 114.792 111.943 115.124 111.748C115.456 111.552 115.747 111.291 115.996 110.964L116.816 111.616C116.645 111.875 116.428 112.121 116.164 112.355C115.9 112.59 115.576 112.78 115.19 112.927C114.809 113.073 114.357 113.146 113.835 113.146ZM119.848 106.65V113H118.486V105.075H119.775L119.848 106.65ZM119.57 108.737L118.94 108.715C118.945 108.173 119.016 107.673 119.152 107.214C119.289 106.75 119.492 106.347 119.76 106.005C120.029 105.664 120.363 105.4 120.764 105.214C121.164 105.024 121.628 104.929 122.155 104.929C122.526 104.929 122.868 104.982 123.181 105.09C123.493 105.192 123.764 105.356 123.994 105.581C124.223 105.805 124.401 106.093 124.528 106.445C124.655 106.796 124.719 107.221 124.719 107.719V113H123.364V107.785C123.364 107.37 123.293 107.038 123.151 106.789C123.015 106.54 122.819 106.359 122.565 106.247C122.312 106.13 122.014 106.071 121.672 106.071C121.271 106.071 120.937 106.142 120.668 106.284C120.4 106.425 120.185 106.621 120.024 106.87C119.863 107.119 119.746 107.404 119.672 107.727C119.604 108.044 119.57 108.381 119.57 108.737ZM124.704 107.99L123.796 108.269C123.801 107.834 123.872 107.417 124.008 107.016C124.15 106.616 124.353 106.259 124.616 105.947C124.885 105.634 125.214 105.388 125.605 105.207C125.996 105.021 126.442 104.929 126.945 104.929C127.37 104.929 127.746 104.985 128.073 105.097C128.405 105.209 128.684 105.383 128.908 105.617C129.138 105.847 129.311 106.142 129.428 106.503C129.545 106.865 129.604 107.294 129.604 107.792V113H128.242V107.778C128.242 107.333 128.171 106.989 128.029 106.745C127.893 106.496 127.697 106.323 127.443 106.225C127.194 106.123 126.896 106.071 126.55 106.071C126.252 106.071 125.988 106.123 125.759 106.225C125.529 106.328 125.336 106.469 125.18 106.65C125.024 106.826 124.904 107.028 124.821 107.258C124.743 107.487 124.704 107.731 124.704 107.99Z" fill="#505050"/>
<rect x="271" y="80" width="235.2" height="56" rx="16" fill="white"/>
<rect x="279" y="88" width="219.2" height="40" rx="8" fill="#F8F8F8"/>
<path d="M296.75 113C296.547 113 296.367 112.933 296.211 112.799C296.07 112.65 296 112.479 296 112.286C296 112.092 296.07 111.921 296.211 111.772L300.195 108L296.211 104.228C296.07 104.079 296 103.908 296 103.714C296 103.521 296.07 103.35 296.211 103.201C296.367 103.067 296.547 103 296.75 103C296.953 103 297.133 103.067 297.289 103.201L301.789 107.487C301.93 107.635 302 107.807 302 108C302 108.193 301.93 108.365 301.789 108.513L297.289 112.799C297.133 112.933 296.953 113 296.75 113Z" fill="#737373"/>
<path d="M324.178 102.336V113H322.787V102.336H324.178ZM327.606 102.336V103.493H319.366V102.336H327.606ZM329.781 106.32V113H328.426V105.075H329.745L329.781 106.32ZM332.257 105.031L332.25 106.291C332.137 106.267 332.03 106.252 331.927 106.247C331.83 106.237 331.717 106.232 331.59 106.232C331.278 106.232 331.002 106.281 330.763 106.379C330.523 106.477 330.321 106.613 330.155 106.789C329.989 106.965 329.857 107.175 329.759 107.419C329.667 107.658 329.605 107.922 329.576 108.21L329.195 108.43C329.195 107.951 329.242 107.502 329.334 107.082C329.432 106.662 329.581 106.291 329.781 105.969C329.981 105.642 330.235 105.388 330.543 105.207C330.855 105.021 331.227 104.929 331.656 104.929C331.754 104.929 331.866 104.941 331.993 104.965C332.12 104.985 332.208 105.007 332.257 105.031ZM336.651 113.146C336.1 113.146 335.599 113.054 335.15 112.868C334.706 112.678 334.322 112.412 334 112.07C333.683 111.728 333.438 111.323 333.268 110.854C333.097 110.385 333.011 109.873 333.011 109.316V109.008C333.011 108.364 333.106 107.79 333.297 107.287C333.487 106.779 333.746 106.35 334.073 105.998C334.4 105.646 334.771 105.38 335.187 105.2C335.602 105.019 336.031 104.929 336.476 104.929C337.042 104.929 337.53 105.026 337.94 105.222C338.355 105.417 338.695 105.69 338.958 106.042C339.222 106.389 339.417 106.799 339.544 107.272C339.671 107.741 339.735 108.254 339.735 108.811V109.418H333.817V108.312H338.38V108.21C338.36 107.858 338.287 107.517 338.16 107.185C338.038 106.853 337.843 106.579 337.574 106.364C337.306 106.149 336.939 106.042 336.476 106.042C336.168 106.042 335.885 106.108 335.626 106.24C335.367 106.367 335.145 106.557 334.959 106.811C334.774 107.065 334.63 107.375 334.527 107.741C334.425 108.107 334.374 108.53 334.374 109.008V109.316C334.374 109.692 334.425 110.046 334.527 110.378C334.635 110.705 334.789 110.993 334.989 111.242C335.194 111.491 335.44 111.687 335.729 111.828C336.021 111.97 336.354 112.041 336.725 112.041C337.203 112.041 337.608 111.943 337.94 111.748C338.272 111.552 338.563 111.291 338.812 110.964L339.632 111.616C339.461 111.875 339.244 112.121 338.98 112.355C338.717 112.59 338.392 112.78 338.006 112.927C337.625 113.073 337.174 113.146 336.651 113.146ZM344.605 113.146C344.054 113.146 343.553 113.054 343.104 112.868C342.66 112.678 342.276 112.412 341.954 112.07C341.637 111.728 341.393 111.323 341.222 110.854C341.051 110.385 340.965 109.873 340.965 109.316V109.008C340.965 108.364 341.061 107.79 341.251 107.287C341.441 106.779 341.7 106.35 342.027 105.998C342.354 105.646 342.726 105.38 343.141 105.2C343.556 105.019 343.985 104.929 344.43 104.929C344.996 104.929 345.484 105.026 345.895 105.222C346.31 105.417 346.649 105.69 346.913 106.042C347.176 106.389 347.372 106.799 347.499 107.272C347.625 107.741 347.689 108.254 347.689 108.811V109.418H341.771V108.312H346.334V108.21C346.314 107.858 346.241 107.517 346.114 107.185C345.992 106.853 345.797 106.579 345.528 106.364C345.26 106.149 344.894 106.042 344.43 106.042C344.122 106.042 343.839 106.108 343.58 106.24C343.321 106.367 343.099 106.557 342.914 106.811C342.728 107.065 342.584 107.375 342.481 107.741C342.379 108.107 342.328 108.53 342.328 109.008V109.316C342.328 109.692 342.379 110.046 342.481 110.378C342.589 110.705 342.743 110.993 342.943 111.242C343.148 111.491 343.395 111.687 343.683 111.828C343.976 111.97 344.308 112.041 344.679 112.041C345.157 112.041 345.562 111.943 345.895 111.748C346.227 111.552 346.517 111.291 346.766 110.964L347.586 111.616C347.416 111.875 347.198 112.121 346.935 112.355C346.671 112.59 346.346 112.78 345.96 112.927C345.58 113.073 345.128 113.146 344.605 113.146ZM354.464 105.075V113H353.102V105.075H354.464ZM352.999 102.973C352.999 102.753 353.065 102.568 353.197 102.417C353.333 102.265 353.534 102.189 353.797 102.189C354.056 102.189 354.254 102.265 354.391 102.417C354.532 102.568 354.603 102.753 354.603 102.973C354.603 103.183 354.532 103.364 354.391 103.515C354.254 103.662 354.056 103.735 353.797 103.735C353.534 103.735 353.333 103.662 353.197 103.515C353.065 103.364 352.999 103.183 352.999 102.973ZM359.957 105.075V106.115H355.672V105.075H359.957ZM357.123 103.149H358.478V111.037C358.478 111.306 358.519 111.508 358.602 111.645C358.685 111.782 358.792 111.872 358.924 111.916C359.056 111.96 359.198 111.982 359.349 111.982C359.461 111.982 359.579 111.972 359.701 111.953C359.828 111.928 359.923 111.909 359.986 111.894L359.994 113C359.886 113.034 359.745 113.066 359.569 113.095C359.398 113.129 359.19 113.146 358.946 113.146C358.614 113.146 358.309 113.081 358.031 112.949C357.752 112.817 357.53 112.597 357.364 112.29C357.203 111.977 357.123 111.557 357.123 111.03V103.149ZM364.835 113.146C364.283 113.146 363.783 113.054 363.333 112.868C362.889 112.678 362.506 112.412 362.184 112.07C361.866 111.728 361.622 111.323 361.451 110.854C361.28 110.385 361.195 109.873 361.195 109.316V109.008C361.195 108.364 361.29 107.79 361.48 107.287C361.671 106.779 361.93 106.35 362.257 105.998C362.584 105.646 362.955 105.38 363.37 105.2C363.785 105.019 364.215 104.929 364.659 104.929C365.226 104.929 365.714 105.026 366.124 105.222C366.539 105.417 366.878 105.69 367.142 106.042C367.406 106.389 367.601 106.799 367.728 107.272C367.855 107.741 367.918 108.254 367.918 108.811V109.418H362V108.312H366.563V108.21C366.544 107.858 366.471 107.517 366.344 107.185C366.222 106.853 366.026 106.579 365.758 106.364C365.489 106.149 365.123 106.042 364.659 106.042C364.352 106.042 364.068 106.108 363.81 106.24C363.551 106.367 363.329 106.557 363.143 106.811C362.958 107.065 362.813 107.375 362.711 107.741C362.608 108.107 362.557 108.53 362.557 109.008V109.316C362.557 109.692 362.608 110.046 362.711 110.378C362.818 110.705 362.972 110.993 363.172 111.242C363.377 111.491 363.624 111.687 363.912 111.828C364.205 111.97 364.537 112.041 364.908 112.041C365.387 112.041 365.792 111.943 366.124 111.748C366.456 111.552 366.747 111.291 366.996 110.964L367.816 111.616C367.645 111.875 367.428 112.121 367.164 112.355C366.9 112.59 366.576 112.78 366.19 112.927C365.809 113.073 365.357 113.146 364.835 113.146ZM370.848 106.65V113H369.486V105.075H370.775L370.848 106.65ZM370.57 108.737L369.94 108.715C369.945 108.173 370.016 107.673 370.152 107.214C370.289 106.75 370.492 106.347 370.76 106.005C371.029 105.664 371.363 105.4 371.764 105.214C372.164 105.024 372.628 104.929 373.155 104.929C373.526 104.929 373.868 104.982 374.181 105.09C374.493 105.192 374.764 105.356 374.994 105.581C375.223 105.805 375.401 106.093 375.528 106.445C375.655 106.796 375.719 107.221 375.719 107.719V113H374.364V107.785C374.364 107.37 374.293 107.038 374.151 106.789C374.015 106.54 373.819 106.359 373.565 106.247C373.312 106.13 373.014 106.071 372.672 106.071C372.271 106.071 371.937 106.142 371.668 106.284C371.4 106.425 371.185 106.621 371.024 106.87C370.863 107.119 370.746 107.404 370.672 107.727C370.604 108.044 370.57 108.381 370.57 108.737ZM375.704 107.99L374.796 108.269C374.801 107.834 374.872 107.417 375.008 107.016C375.15 106.616 375.353 106.259 375.616 105.947C375.885 105.634 376.214 105.388 376.605 105.207C376.996 105.021 377.442 104.929 377.945 104.929C378.37 104.929 378.746 104.985 379.073 105.097C379.405 105.209 379.684 105.383 379.908 105.617C380.138 105.847 380.311 106.142 380.428 106.503C380.545 106.865 380.604 107.294 380.604 107.792V113H379.242V107.778C379.242 107.333 379.171 106.989 379.029 106.745C378.893 106.496 378.697 106.323 378.443 106.225C378.194 106.123 377.896 106.071 377.55 106.071C377.252 106.071 376.988 106.123 376.759 106.225C376.529 106.328 376.336 106.469 376.18 106.65C376.024 106.826 375.904 107.028 375.821 107.258C375.743 107.487 375.704 107.731 375.704 107.99Z" fill="#505050"/>
<rect x="522" y="80" width="235.2" height="56" rx="16" fill="white"/>
<g filter="url(#filter0_d_6397_69982)">
<rect x="530" y="88" width="219.2" height="40" rx="8" fill="#F2F2F2"/>
<path d="M547.75 113C547.547 113 547.367 112.933 547.211 112.799C547.07 112.65 547 112.479 547 112.286C547 112.092 547.07 111.921 547.211 111.772L551.195 108L547.211 104.228C547.07 104.079 547 103.908 547 103.714C547 103.521 547.07 103.35 547.211 103.201C547.367 103.067 547.547 103 547.75 103C547.953 103 548.133 103.067 548.289 103.201L552.789 107.487C552.93 107.635 553 107.807 553 108C553 108.193 552.93 108.365 552.789 108.513L548.289 112.799C548.133 112.933 547.953 113 547.75 113Z" fill="#737373"/>
<path d="M575.178 102.336V113H573.787V102.336H575.178ZM578.606 102.336V103.493H570.366V102.336H578.606ZM580.781 106.32V113H579.426V105.075H580.745L580.781 106.32ZM583.257 105.031L583.25 106.291C583.137 106.267 583.03 106.252 582.927 106.247C582.83 106.237 582.717 106.232 582.59 106.232C582.278 106.232 582.002 106.281 581.763 106.379C581.523 106.477 581.321 106.613 581.155 106.789C580.989 106.965 580.857 107.175 580.759 107.419C580.667 107.658 580.605 107.922 580.576 108.21L580.195 108.43C580.195 107.951 580.242 107.502 580.334 107.082C580.432 106.662 580.581 106.291 580.781 105.969C580.981 105.642 581.235 105.388 581.543 105.207C581.855 105.021 582.227 104.929 582.656 104.929C582.754 104.929 582.866 104.941 582.993 104.965C583.12 104.985 583.208 105.007 583.257 105.031ZM587.651 113.146C587.1 113.146 586.599 113.054 586.15 112.868C585.706 112.678 585.322 112.412 585 112.07C584.683 111.728 584.438 111.323 584.268 110.854C584.097 110.385 584.011 109.873 584.011 109.316V109.008C584.011 108.364 584.106 107.79 584.297 107.287C584.487 106.779 584.746 106.35 585.073 105.998C585.4 105.646 585.771 105.38 586.187 105.2C586.602 105.019 587.031 104.929 587.476 104.929C588.042 104.929 588.53 105.026 588.94 105.222C589.355 105.417 589.695 105.69 589.958 106.042C590.222 106.389 590.417 106.799 590.544 107.272C590.671 107.741 590.735 108.254 590.735 108.811V109.418H584.817V108.312H589.38V108.21C589.36 107.858 589.287 107.517 589.16 107.185C589.038 106.853 588.843 106.579 588.574 106.364C588.306 106.149 587.939 106.042 587.476 106.042C587.168 106.042 586.885 106.108 586.626 106.24C586.367 106.367 586.145 106.557 585.959 106.811C585.774 107.065 585.63 107.375 585.527 107.741C585.425 108.107 585.374 108.53 585.374 109.008V109.316C585.374 109.692 585.425 110.046 585.527 110.378C585.635 110.705 585.789 110.993 585.989 111.242C586.194 111.491 586.44 111.687 586.729 111.828C587.021 111.97 587.354 112.041 587.725 112.041C588.203 112.041 588.608 111.943 588.94 111.748C589.272 111.552 589.563 111.291 589.812 110.964L590.632 111.616C590.461 111.875 590.244 112.121 589.98 112.355C589.717 112.59 589.392 112.78 589.006 112.927C588.625 113.073 588.174 113.146 587.651 113.146ZM595.605 113.146C595.054 113.146 594.553 113.054 594.104 112.868C593.66 112.678 593.276 112.412 592.954 112.07C592.637 111.728 592.393 111.323 592.222 110.854C592.051 110.385 591.965 109.873 591.965 109.316V109.008C591.965 108.364 592.061 107.79 592.251 107.287C592.441 106.779 592.7 106.35 593.027 105.998C593.354 105.646 593.726 105.38 594.141 105.2C594.556 105.019 594.985 104.929 595.43 104.929C595.996 104.929 596.484 105.026 596.895 105.222C597.31 105.417 597.649 105.69 597.913 106.042C598.176 106.389 598.372 106.799 598.499 107.272C598.625 107.741 598.689 108.254 598.689 108.811V109.418H592.771V108.312H597.334V108.21C597.314 107.858 597.241 107.517 597.114 107.185C596.992 106.853 596.797 106.579 596.528 106.364C596.26 106.149 595.894 106.042 595.43 106.042C595.122 106.042 594.839 106.108 594.58 106.24C594.321 106.367 594.099 106.557 593.914 106.811C593.728 107.065 593.584 107.375 593.481 107.741C593.379 108.107 593.328 108.53 593.328 109.008V109.316C593.328 109.692 593.379 110.046 593.481 110.378C593.589 110.705 593.743 110.993 593.943 111.242C594.148 111.491 594.395 111.687 594.683 111.828C594.976 111.97 595.308 112.041 595.679 112.041C596.157 112.041 596.562 111.943 596.895 111.748C597.227 111.552 597.517 111.291 597.766 110.964L598.586 111.616C598.416 111.875 598.198 112.121 597.935 112.355C597.671 112.59 597.346 112.78 596.96 112.927C596.58 113.073 596.128 113.146 595.605 113.146ZM605.464 105.075V113H604.102V105.075H605.464ZM603.999 102.973C603.999 102.753 604.065 102.568 604.197 102.417C604.333 102.265 604.534 102.189 604.797 102.189C605.056 102.189 605.254 102.265 605.391 102.417C605.532 102.568 605.603 102.753 605.603 102.973C605.603 103.183 605.532 103.364 605.391 103.515C605.254 103.662 605.056 103.735 604.797 103.735C604.534 103.735 604.333 103.662 604.197 103.515C604.065 103.364 603.999 103.183 603.999 102.973ZM610.957 105.075V106.115H606.672V105.075H610.957ZM608.123 103.149H609.478V111.037C609.478 111.306 609.519 111.508 609.602 111.645C609.685 111.782 609.792 111.872 609.924 111.916C610.056 111.96 610.198 111.982 610.349 111.982C610.461 111.982 610.579 111.972 610.701 111.953C610.828 111.928 610.923 111.909 610.986 111.894L610.994 113C610.886 113.034 610.745 113.066 610.569 113.095C610.398 113.129 610.19 113.146 609.946 113.146C609.614 113.146 609.309 113.081 609.031 112.949C608.752 112.817 608.53 112.597 608.364 112.29C608.203 111.977 608.123 111.557 608.123 111.03V103.149ZM615.835 113.146C615.283 113.146 614.783 113.054 614.333 112.868C613.889 112.678 613.506 112.412 613.184 112.07C612.866 111.728 612.622 111.323 612.451 110.854C612.28 110.385 612.195 109.873 612.195 109.316V109.008C612.195 108.364 612.29 107.79 612.48 107.287C612.671 106.779 612.93 106.35 613.257 105.998C613.584 105.646 613.955 105.38 614.37 105.2C614.785 105.019 615.215 104.929 615.659 104.929C616.226 104.929 616.714 105.026 617.124 105.222C617.539 105.417 617.878 105.69 618.142 106.042C618.406 106.389 618.601 106.799 618.728 107.272C618.855 107.741 618.918 108.254 618.918 108.811V109.418H613V108.312H617.563V108.21C617.544 107.858 617.471 107.517 617.344 107.185C617.222 106.853 617.026 106.579 616.758 106.364C616.489 106.149 616.123 106.042 615.659 106.042C615.352 106.042 615.068 106.108 614.81 106.24C614.551 106.367 614.329 106.557 614.143 106.811C613.958 107.065 613.813 107.375 613.711 107.741C613.608 108.107 613.557 108.53 613.557 109.008V109.316C613.557 109.692 613.608 110.046 613.711 110.378C613.818 110.705 613.972 110.993 614.172 111.242C614.377 111.491 614.624 111.687 614.912 111.828C615.205 111.97 615.537 112.041 615.908 112.041C616.387 112.041 616.792 111.943 617.124 111.748C617.456 111.552 617.747 111.291 617.996 110.964L618.816 111.616C618.645 111.875 618.428 112.121 618.164 112.355C617.9 112.59 617.576 112.78 617.19 112.927C616.809 113.073 616.357 113.146 615.835 113.146ZM621.848 106.65V113H620.486V105.075H621.775L621.848 106.65ZM621.57 108.737L620.94 108.715C620.945 108.173 621.016 107.673 621.152 107.214C621.289 106.75 621.492 106.347 621.76 106.005C622.029 105.664 622.363 105.4 622.764 105.214C623.164 105.024 623.628 104.929 624.155 104.929C624.526 104.929 624.868 104.982 625.181 105.09C625.493 105.192 625.764 105.356 625.994 105.581C626.223 105.805 626.401 106.093 626.528 106.445C626.655 106.796 626.719 107.221 626.719 107.719V113H625.364V107.785C625.364 107.37 625.293 107.038 625.151 106.789C625.015 106.54 624.819 106.359 624.565 106.247C624.312 106.13 624.014 106.071 623.672 106.071C623.271 106.071 622.937 106.142 622.668 106.284C622.4 106.425 622.185 106.621 622.024 106.87C621.863 107.119 621.746 107.404 621.672 107.727C621.604 108.044 621.57 108.381 621.57 108.737ZM626.704 107.99L625.796 108.269C625.801 107.834 625.872 107.417 626.008 107.016C626.15 106.616 626.353 106.259 626.616 105.947C626.885 105.634 627.214 105.388 627.605 105.207C627.996 105.021 628.442 104.929 628.945 104.929C629.37 104.929 629.746 104.985 630.073 105.097C630.405 105.209 630.684 105.383 630.908 105.617C631.138 105.847 631.311 106.142 631.428 106.503C631.545 106.865 631.604 107.294 631.604 107.792V113H630.242V107.778C630.242 107.333 630.171 106.989 630.029 106.745C629.893 106.496 629.697 106.323 629.443 106.225C629.194 106.123 628.896 106.071 628.55 106.071C628.252 106.071 627.988 106.123 627.759 106.225C627.529 106.328 627.336 106.469 627.18 106.65C627.024 106.826 626.904 107.028 626.821 107.258C626.743 107.487 626.704 107.731 626.704 107.99Z" fill="#505050"/>
</g>
<rect x="770" y="80" width="235.2" height="144" rx="16" fill="white"/>
<rect x="778" y="88" width="219.2" height="40" rx="8" fill="#F2F2F2"/>
<path d="M798 111C797.817 111 797.634 110.927 797.495 110.78L793.209 106.28C792.93 105.987 792.93 105.513 793.209 105.22C793.488 104.927 793.94 104.927 794.219 105.22L798 109.191L801.781 105.22C802.06 104.927 802.512 104.927 802.791 105.22C803.07 105.513 803.07 105.988 802.791 106.281L798.505 110.781C798.366 110.927 798.183 111 798 111Z" fill="#737373"/>
<path d="M823.178 102.336V113H821.787V102.336H823.178ZM826.606 102.336V103.493H818.366V102.336H826.606ZM828.781 106.32V113H827.426V105.075H828.745L828.781 106.32ZM831.257 105.031L831.25 106.291C831.137 106.267 831.03 106.252 830.927 106.247C830.83 106.237 830.717 106.232 830.59 106.232C830.278 106.232 830.002 106.281 829.763 106.379C829.523 106.477 829.321 106.613 829.155 106.789C828.989 106.965 828.857 107.175 828.759 107.419C828.667 107.658 828.605 107.922 828.576 108.21L828.195 108.43C828.195 107.951 828.242 107.502 828.334 107.082C828.432 106.662 828.581 106.291 828.781 105.969C828.981 105.642 829.235 105.388 829.543 105.207C829.855 105.021 830.227 104.929 830.656 104.929C830.754 104.929 830.866 104.941 830.993 104.965C831.12 104.985 831.208 105.007 831.257 105.031ZM835.651 113.146C835.1 113.146 834.599 113.054 834.15 112.868C833.706 112.678 833.322 112.412 833 112.07C832.683 111.728 832.438 111.323 832.268 110.854C832.097 110.385 832.011 109.873 832.011 109.316V109.008C832.011 108.364 832.106 107.79 832.297 107.287C832.487 106.779 832.746 106.35 833.073 105.998C833.4 105.646 833.771 105.38 834.187 105.2C834.602 105.019 835.031 104.929 835.476 104.929C836.042 104.929 836.53 105.026 836.94 105.222C837.355 105.417 837.695 105.69 837.958 106.042C838.222 106.389 838.417 106.799 838.544 107.272C838.671 107.741 838.735 108.254 838.735 108.811V109.418H832.817V108.312H837.38V108.21C837.36 107.858 837.287 107.517 837.16 107.185C837.038 106.853 836.843 106.579 836.574 106.364C836.306 106.149 835.939 106.042 835.476 106.042C835.168 106.042 834.885 106.108 834.626 106.24C834.367 106.367 834.145 106.557 833.959 106.811C833.774 107.065 833.63 107.375 833.527 107.741C833.425 108.107 833.374 108.53 833.374 109.008V109.316C833.374 109.692 833.425 110.046 833.527 110.378C833.635 110.705 833.789 110.993 833.989 111.242C834.194 111.491 834.44 111.687 834.729 111.828C835.021 111.97 835.354 112.041 835.725 112.041C836.203 112.041 836.608 111.943 836.94 111.748C837.272 111.552 837.563 111.291 837.812 110.964L838.632 111.616C838.461 111.875 838.244 112.121 837.98 112.355C837.717 112.59 837.392 112.78 837.006 112.927C836.625 113.073 836.174 113.146 835.651 113.146ZM843.605 113.146C843.054 113.146 842.553 113.054 842.104 112.868C841.66 112.678 841.276 112.412 840.954 112.07C840.637 111.728 840.393 111.323 840.222 110.854C840.051 110.385 839.965 109.873 839.965 109.316V109.008C839.965 108.364 840.061 107.79 840.251 107.287C840.441 106.779 840.7 106.35 841.027 105.998C841.354 105.646 841.726 105.38 842.141 105.2C842.556 105.019 842.985 104.929 843.43 104.929C843.996 104.929 844.484 105.026 844.895 105.222C845.31 105.417 845.649 105.69 845.913 106.042C846.176 106.389 846.372 106.799 846.499 107.272C846.625 107.741 846.689 108.254 846.689 108.811V109.418H840.771V108.312H845.334V108.21C845.314 107.858 845.241 107.517 845.114 107.185C844.992 106.853 844.797 106.579 844.528 106.364C844.26 106.149 843.894 106.042 843.43 106.042C843.122 106.042 842.839 106.108 842.58 106.24C842.321 106.367 842.099 106.557 841.914 106.811C841.728 107.065 841.584 107.375 841.481 107.741C841.379 108.107 841.328 108.53 841.328 109.008V109.316C841.328 109.692 841.379 110.046 841.481 110.378C841.589 110.705 841.743 110.993 841.943 111.242C842.148 111.491 842.395 111.687 842.683 111.828C842.976 111.97 843.308 112.041 843.679 112.041C844.157 112.041 844.562 111.943 844.895 111.748C845.227 111.552 845.517 111.291 845.766 110.964L846.586 111.616C846.416 111.875 846.198 112.121 845.935 112.355C845.671 112.59 845.346 112.78 844.96 112.927C844.58 113.073 844.128 113.146 843.605 113.146ZM853.464 105.075V113H852.102V105.075H853.464ZM851.999 102.973C851.999 102.753 852.065 102.568 852.197 102.417C852.333 102.265 852.534 102.189 852.797 102.189C853.056 102.189 853.254 102.265 853.391 102.417C853.532 102.568 853.603 102.753 853.603 102.973C853.603 103.183 853.532 103.364 853.391 103.515C853.254 103.662 853.056 103.735 852.797 103.735C852.534 103.735 852.333 103.662 852.197 103.515C852.065 103.364 851.999 103.183 851.999 102.973ZM858.957 105.075V106.115H854.672V105.075H858.957ZM856.123 103.149H857.478V111.037C857.478 111.306 857.519 111.508 857.602 111.645C857.685 111.782 857.792 111.872 857.924 111.916C858.056 111.96 858.198 111.982 858.349 111.982C858.461 111.982 858.579 111.972 858.701 111.953C858.828 111.928 858.923 111.909 858.986 111.894L858.994 113C858.886 113.034 858.745 113.066 858.569 113.095C858.398 113.129 858.19 113.146 857.946 113.146C857.614 113.146 857.309 113.081 857.031 112.949C856.752 112.817 856.53 112.597 856.364 112.29C856.203 111.977 856.123 111.557 856.123 111.03V103.149ZM863.835 113.146C863.283 113.146 862.783 113.054 862.333 112.868C861.889 112.678 861.506 112.412 861.184 112.07C860.866 111.728 860.622 111.323 860.451 110.854C860.28 110.385 860.195 109.873 860.195 109.316V109.008C860.195 108.364 860.29 107.79 860.48 107.287C860.671 106.779 860.93 106.35 861.257 105.998C861.584 105.646 861.955 105.38 862.37 105.2C862.785 105.019 863.215 104.929 863.659 104.929C864.226 104.929 864.714 105.026 865.124 105.222C865.539 105.417 865.878 105.69 866.142 106.042C866.406 106.389 866.601 106.799 866.728 107.272C866.855 107.741 866.918 108.254 866.918 108.811V109.418H861V108.312H865.563V108.21C865.544 107.858 865.471 107.517 865.344 107.185C865.222 106.853 865.026 106.579 864.758 106.364C864.489 106.149 864.123 106.042 863.659 106.042C863.352 106.042 863.068 106.108 862.81 106.24C862.551 106.367 862.329 106.557 862.143 106.811C861.958 107.065 861.813 107.375 861.711 107.741C861.608 108.107 861.557 108.53 861.557 109.008V109.316C861.557 109.692 861.608 110.046 861.711 110.378C861.818 110.705 861.972 110.993 862.172 111.242C862.377 111.491 862.624 111.687 862.912 111.828C863.205 111.97 863.537 112.041 863.908 112.041C864.387 112.041 864.792 111.943 865.124 111.748C865.456 111.552 865.747 111.291 865.996 110.964L866.816 111.616C866.645 111.875 866.428 112.121 866.164 112.355C865.9 112.59 865.576 112.78 865.19 112.927C864.809 113.073 864.357 113.146 863.835 113.146ZM869.848 106.65V113H868.486V105.075H869.775L869.848 106.65ZM869.57 108.737L868.94 108.715C868.945 108.173 869.016 107.673 869.152 107.214C869.289 106.75 869.492 106.347 869.76 106.005C870.029 105.664 870.363 105.4 870.764 105.214C871.164 105.024 871.628 104.929 872.155 104.929C872.526 104.929 872.868 104.982 873.181 105.09C873.493 105.192 873.764 105.356 873.994 105.581C874.223 105.805 874.401 106.093 874.528 106.445C874.655 106.796 874.719 107.221 874.719 107.719V113H873.364V107.785C873.364 107.37 873.293 107.038 873.151 106.789C873.015 106.54 872.819 106.359 872.565 106.247C872.312 106.13 872.014 106.071 871.672 106.071C871.271 106.071 870.937 106.142 870.668 106.284C870.4 106.425 870.185 106.621 870.024 106.87C869.863 107.119 869.746 107.404 869.672 107.727C869.604 108.044 869.57 108.381 869.57 108.737ZM874.704 107.99L873.796 108.269C873.801 107.834 873.872 107.417 874.008 107.016C874.15 106.616 874.353 106.259 874.616 105.947C874.885 105.634 875.214 105.388 875.605 105.207C875.996 105.021 876.442 104.929 876.945 104.929C877.37 104.929 877.746 104.985 878.073 105.097C878.405 105.209 878.684 105.383 878.908 105.617C879.138 105.847 879.311 106.142 879.428 106.503C879.545 106.865 879.604 107.294 879.604 107.792V113H878.242V107.778C878.242 107.333 878.171 106.989 878.029 106.745C877.893 106.496 877.697 106.323 877.443 106.225C877.194 106.123 876.896 106.071 876.55 106.071C876.252 106.071 875.988 106.123 875.759 106.225C875.529 106.328 875.336 106.469 875.18 106.65C875.024 106.826 874.904 107.028 874.821 107.258C874.743 107.487 874.704 107.731 874.704 107.99Z" fill="#505050"/>
<rect x="802" y="132" width="195.2" height="40" rx="8" fill="white"/>
<path d="M823.178 146.336V157H821.787V146.336H823.178ZM826.606 146.336V147.493H818.366V146.336H826.606ZM828.781 150.32V157H827.426V149.075H828.745L828.781 150.32ZM831.257 149.031L831.25 150.291C831.137 150.267 831.03 150.252 830.927 150.247C830.83 150.237 830.717 150.232 830.59 150.232C830.278 150.232 830.002 150.281 829.763 150.379C829.523 150.477 829.321 150.613 829.155 150.789C828.989 150.965 828.857 151.175 828.759 151.419C828.667 151.658 828.605 151.922 828.576 152.21L828.195 152.43C828.195 151.951 828.242 151.502 828.334 151.082C828.432 150.662 828.581 150.291 828.781 149.969C828.981 149.642 829.235 149.388 829.543 149.207C829.855 149.021 830.227 148.929 830.656 148.929C830.754 148.929 830.866 148.941 830.993 148.965C831.12 148.985 831.208 149.007 831.257 149.031ZM835.651 157.146C835.1 157.146 834.599 157.054 834.15 156.868C833.706 156.678 833.322 156.412 833 156.07C832.683 155.728 832.438 155.323 832.268 154.854C832.097 154.385 832.011 153.873 832.011 153.316V153.008C832.011 152.364 832.106 151.79 832.297 151.287C832.487 150.779 832.746 150.35 833.073 149.998C833.4 149.646 833.771 149.38 834.187 149.2C834.602 149.019 835.031 148.929 835.476 148.929C836.042 148.929 836.53 149.026 836.94 149.222C837.355 149.417 837.695 149.69 837.958 150.042C838.222 150.389 838.417 150.799 838.544 151.272C838.671 151.741 838.735 152.254 838.735 152.811V153.418H832.817V152.312H837.38V152.21C837.36 151.858 837.287 151.517 837.16 151.185C837.038 150.853 836.843 150.579 836.574 150.364C836.306 150.149 835.939 150.042 835.476 150.042C835.168 150.042 834.885 150.108 834.626 150.24C834.367 150.367 834.145 150.557 833.959 150.811C833.774 151.065 833.63 151.375 833.527 151.741C833.425 152.107 833.374 152.53 833.374 153.008V153.316C833.374 153.692 833.425 154.046 833.527 154.378C833.635 154.705 833.789 154.993 833.989 155.242C834.194 155.491 834.44 155.687 834.729 155.828C835.021 155.97 835.354 156.041 835.725 156.041C836.203 156.041 836.608 155.943 836.94 155.748C837.272 155.552 837.563 155.291 837.812 154.964L838.632 155.616C838.461 155.875 838.244 156.121 837.98 156.355C837.717 156.59 837.392 156.78 837.006 156.927C836.625 157.073 836.174 157.146 835.651 157.146ZM843.605 157.146C843.054 157.146 842.553 157.054 842.104 156.868C841.66 156.678 841.276 156.412 840.954 156.07C840.637 155.728 840.393 155.323 840.222 154.854C840.051 154.385 839.965 153.873 839.965 153.316V153.008C839.965 152.364 840.061 151.79 840.251 151.287C840.441 150.779 840.7 150.35 841.027 149.998C841.354 149.646 841.726 149.38 842.141 149.2C842.556 149.019 842.985 148.929 843.43 148.929C843.996 148.929 844.484 149.026 844.895 149.222C845.31 149.417 845.649 149.69 845.913 150.042C846.176 150.389 846.372 150.799 846.499 151.272C846.625 151.741 846.689 152.254 846.689 152.811V153.418H840.771V152.312H845.334V152.21C845.314 151.858 845.241 151.517 845.114 151.185C844.992 150.853 844.797 150.579 844.528 150.364C844.26 150.149 843.894 150.042 843.43 150.042C843.122 150.042 842.839 150.108 842.58 150.24C842.321 150.367 842.099 150.557 841.914 150.811C841.728 151.065 841.584 151.375 841.481 151.741C841.379 152.107 841.328 152.53 841.328 153.008V153.316C841.328 153.692 841.379 154.046 841.481 154.378C841.589 154.705 841.743 154.993 841.943 155.242C842.148 155.491 842.395 155.687 842.683 155.828C842.976 155.97 843.308 156.041 843.679 156.041C844.157 156.041 844.562 155.943 844.895 155.748C845.227 155.552 845.517 155.291 845.766 154.964L846.586 155.616C846.416 155.875 846.198 156.121 845.935 156.355C845.671 156.59 845.346 156.78 844.96 156.927C844.58 157.073 844.128 157.146 843.605 157.146ZM853.464 149.075V157H852.102V149.075H853.464ZM851.999 146.973C851.999 146.753 852.065 146.568 852.197 146.417C852.333 146.265 852.534 146.189 852.797 146.189C853.056 146.189 853.254 146.265 853.391 146.417C853.532 146.568 853.603 146.753 853.603 146.973C853.603 147.183 853.532 147.364 853.391 147.515C853.254 147.662 853.056 147.735 852.797 147.735C852.534 147.735 852.333 147.662 852.197 147.515C852.065 147.364 851.999 147.183 851.999 146.973ZM858.957 149.075V150.115H854.672V149.075H858.957ZM856.123 147.149H857.478V155.037C857.478 155.306 857.519 155.508 857.602 155.645C857.685 155.782 857.792 155.872 857.924 155.916C858.056 155.96 858.198 155.982 858.349 155.982C858.461 155.982 858.579 155.972 858.701 155.953C858.828 155.928 858.923 155.909 858.986 155.894L858.994 157C858.886 157.034 858.745 157.066 858.569 157.095C858.398 157.129 858.19 157.146 857.946 157.146C857.614 157.146 857.309 157.081 857.031 156.949C856.752 156.817 856.53 156.597 856.364 156.29C856.203 155.977 856.123 155.557 856.123 155.03V147.149ZM863.835 157.146C863.283 157.146 862.783 157.054 862.333 156.868C861.889 156.678 861.506 156.412 861.184 156.07C860.866 155.728 860.622 155.323 860.451 154.854C860.28 154.385 860.195 153.873 860.195 153.316V153.008C860.195 152.364 860.29 151.79 860.48 151.287C860.671 150.779 860.93 150.35 861.257 149.998C861.584 149.646 861.955 149.38 862.37 149.2C862.785 149.019 863.215 148.929 863.659 148.929C864.226 148.929 864.714 149.026 865.124 149.222C865.539 149.417 865.878 149.69 866.142 150.042C866.406 150.389 866.601 150.799 866.728 151.272C866.855 151.741 866.918 152.254 866.918 152.811V153.418H861V152.312H865.563V152.21C865.544 151.858 865.471 151.517 865.344 151.185C865.222 150.853 865.026 150.579 864.758 150.364C864.489 150.149 864.123 150.042 863.659 150.042C863.352 150.042 863.068 150.108 862.81 150.24C862.551 150.367 862.329 150.557 862.143 150.811C861.958 151.065 861.813 151.375 861.711 151.741C861.608 152.107 861.557 152.53 861.557 153.008V153.316C861.557 153.692 861.608 154.046 861.711 154.378C861.818 154.705 861.972 154.993 862.172 155.242C862.377 155.491 862.624 155.687 862.912 155.828C863.205 155.97 863.537 156.041 863.908 156.041C864.387 156.041 864.792 155.943 865.124 155.748C865.456 155.552 865.747 155.291 865.996 154.964L866.816 155.616C866.645 155.875 866.428 156.121 866.164 156.355C865.9 156.59 865.576 156.78 865.19 156.927C864.809 157.073 864.357 157.146 863.835 157.146ZM869.848 150.65V157H868.486V149.075H869.775L869.848 150.65ZM869.57 152.737L868.94 152.715C868.945 152.173 869.016 151.673 869.152 151.214C869.289 150.75 869.492 150.347 869.76 150.005C870.029 149.664 870.363 149.4 870.764 149.214C871.164 149.024 871.628 148.929 872.155 148.929C872.526 148.929 872.868 148.982 873.181 149.09C873.493 149.192 873.764 149.356 873.994 149.581C874.223 149.805 874.401 150.093 874.528 150.445C874.655 150.796 874.719 151.221 874.719 151.719V157H873.364V151.785C873.364 151.37 873.293 151.038 873.151 150.789C873.015 150.54 872.819 150.359 872.565 150.247C872.312 150.13 872.014 150.071 871.672 150.071C871.271 150.071 870.937 150.142 870.668 150.284C870.4 150.425 870.185 150.621 870.024 150.87C869.863 151.119 869.746 151.404 869.672 151.727C869.604 152.044 869.57 152.381 869.57 152.737ZM874.704 151.99L873.796 152.269C873.801 151.834 873.872 151.417 874.008 151.016C874.15 150.616 874.353 150.259 874.616 149.947C874.885 149.634 875.214 149.388 875.605 149.207C875.996 149.021 876.442 148.929 876.945 148.929C877.37 148.929 877.746 148.985 878.073 149.097C878.405 149.209 878.684 149.383 878.908 149.617C879.138 149.847 879.311 150.142 879.428 150.503C879.545 150.865 879.604 151.294 879.604 151.792V157H878.242V151.778C878.242 151.333 878.171 150.989 878.029 150.745C877.893 150.496 877.697 150.323 877.443 150.225C877.194 150.123 876.896 150.071 876.55 150.071C876.252 150.071 875.988 150.123 875.759 150.225C875.529 150.328 875.336 150.469 875.18 150.65C875.024 150.826 874.904 151.028 874.821 151.258C874.743 151.487 874.704 151.731 874.704 151.99Z" fill="#505050"/>
<rect x="802" y="176" width="195.2" height="40" rx="8" fill="white"/>
<path d="M823.178 190.336V201H821.787V190.336H823.178ZM826.606 190.336V191.493H818.366V190.336H826.606ZM828.781 194.32V201H827.426V193.075H828.745L828.781 194.32ZM831.257 193.031L831.25 194.291C831.137 194.267 831.03 194.252 830.927 194.247C830.83 194.237 830.717 194.232 830.59 194.232C830.278 194.232 830.002 194.281 829.763 194.379C829.523 194.477 829.321 194.613 829.155 194.789C828.989 194.965 828.857 195.175 828.759 195.419C828.667 195.658 828.605 195.922 828.576 196.21L828.195 196.43C828.195 195.951 828.242 195.502 828.334 195.082C828.432 194.662 828.581 194.291 828.781 193.969C828.981 193.642 829.235 193.388 829.543 193.207C829.855 193.021 830.227 192.929 830.656 192.929C830.754 192.929 830.866 192.941 830.993 192.965C831.12 192.985 831.208 193.007 831.257 193.031ZM835.651 201.146C835.1 201.146 834.599 201.054 834.15 200.868C833.706 200.678 833.322 200.412 833 200.07C832.683 199.728 832.438 199.323 832.268 198.854C832.097 198.385 832.011 197.873 832.011 197.316V197.008C832.011 196.364 832.106 195.79 832.297 195.287C832.487 194.779 832.746 194.35 833.073 193.998C833.4 193.646 833.771 193.38 834.187 193.2C834.602 193.019 835.031 192.929 835.476 192.929C836.042 192.929 836.53 193.026 836.94 193.222C837.355 193.417 837.695 193.69 837.958 194.042C838.222 194.389 838.417 194.799 838.544 195.272C838.671 195.741 838.735 196.254 838.735 196.811V197.418H832.817V196.312H837.38V196.21C837.36 195.858 837.287 195.517 837.16 195.185C837.038 194.853 836.843 194.579 836.574 194.364C836.306 194.149 835.939 194.042 835.476 194.042C835.168 194.042 834.885 194.108 834.626 194.24C834.367 194.367 834.145 194.557 833.959 194.811C833.774 195.065 833.63 195.375 833.527 195.741C833.425 196.107 833.374 196.53 833.374 197.008V197.316C833.374 197.692 833.425 198.046 833.527 198.378C833.635 198.705 833.789 198.993 833.989 199.242C834.194 199.491 834.44 199.687 834.729 199.828C835.021 199.97 835.354 200.041 835.725 200.041C836.203 200.041 836.608 199.943 836.94 199.748C837.272 199.552 837.563 199.291 837.812 198.964L838.632 199.616C838.461 199.875 838.244 200.121 837.98 200.355C837.717 200.59 837.392 200.78 837.006 200.927C836.625 201.073 836.174 201.146 835.651 201.146ZM843.605 201.146C843.054 201.146 842.553 201.054 842.104 200.868C841.66 200.678 841.276 200.412 840.954 200.07C840.637 199.728 840.393 199.323 840.222 198.854C840.051 198.385 839.965 197.873 839.965 197.316V197.008C839.965 196.364 840.061 195.79 840.251 195.287C840.441 194.779 840.7 194.35 841.027 193.998C841.354 193.646 841.726 193.38 842.141 193.2C842.556 193.019 842.985 192.929 843.43 192.929C843.996 192.929 844.484 193.026 844.895 193.222C845.31 193.417 845.649 193.69 845.913 194.042C846.176 194.389 846.372 194.799 846.499 195.272C846.625 195.741 846.689 196.254 846.689 196.811V197.418H840.771V196.312H845.334V196.21C845.314 195.858 845.241 195.517 845.114 195.185C844.992 194.853 844.797 194.579 844.528 194.364C844.26 194.149 843.894 194.042 843.43 194.042C843.122 194.042 842.839 194.108 842.58 194.24C842.321 194.367 842.099 194.557 841.914 194.811C841.728 195.065 841.584 195.375 841.481 195.741C841.379 196.107 841.328 196.53 841.328 197.008V197.316C841.328 197.692 841.379 198.046 841.481 198.378C841.589 198.705 841.743 198.993 841.943 199.242C842.148 199.491 842.395 199.687 842.683 199.828C842.976 199.97 843.308 200.041 843.679 200.041C844.157 200.041 844.562 199.943 844.895 199.748C845.227 199.552 845.517 199.291 845.766 198.964L846.586 199.616C846.416 199.875 846.198 200.121 845.935 200.355C845.671 200.59 845.346 200.78 844.96 200.927C844.58 201.073 844.128 201.146 843.605 201.146ZM853.464 193.075V201H852.102V193.075H853.464ZM851.999 190.973C851.999 190.753 852.065 190.568 852.197 190.417C852.333 190.265 852.534 190.189 852.797 190.189C853.056 190.189 853.254 190.265 853.391 190.417C853.532 190.568 853.603 190.753 853.603 190.973C853.603 191.183 853.532 191.364 853.391 191.515C853.254 191.662 853.056 191.735 852.797 191.735C852.534 191.735 852.333 191.662 852.197 191.515C852.065 191.364 851.999 191.183 851.999 190.973ZM858.957 193.075V194.115H854.672V193.075H858.957ZM856.123 191.149H857.478V199.037C857.478 199.306 857.519 199.508 857.602 199.645C857.685 199.782 857.792 199.872 857.924 199.916C858.056 199.96 858.198 199.982 858.349 199.982C858.461 199.982 858.579 199.972 858.701 199.953C858.828 199.928 858.923 199.909 858.986 199.894L858.994 201C858.886 201.034 858.745 201.066 858.569 201.095C858.398 201.129 858.19 201.146 857.946 201.146C857.614 201.146 857.309 201.081 857.031 200.949C856.752 200.817 856.53 200.597 856.364 200.29C856.203 199.977 856.123 199.557 856.123 199.03V191.149ZM863.835 201.146C863.283 201.146 862.783 201.054 862.333 200.868C861.889 200.678 861.506 200.412 861.184 200.07C860.866 199.728 860.622 199.323 860.451 198.854C860.28 198.385 860.195 197.873 860.195 197.316V197.008C860.195 196.364 860.29 195.79 860.48 195.287C860.671 194.779 860.93 194.35 861.257 193.998C861.584 193.646 861.955 193.38 862.37 193.2C862.785 193.019 863.215 192.929 863.659 192.929C864.226 192.929 864.714 193.026 865.124 193.222C865.539 193.417 865.878 193.69 866.142 194.042C866.406 194.389 866.601 194.799 866.728 195.272C866.855 195.741 866.918 196.254 866.918 196.811V197.418H861V196.312H865.563V196.21C865.544 195.858 865.471 195.517 865.344 195.185C865.222 194.853 865.026 194.579 864.758 194.364C864.489 194.149 864.123 194.042 863.659 194.042C863.352 194.042 863.068 194.108 862.81 194.24C862.551 194.367 862.329 194.557 862.143 194.811C861.958 195.065 861.813 195.375 861.711 195.741C861.608 196.107 861.557 196.53 861.557 197.008V197.316C861.557 197.692 861.608 198.046 861.711 198.378C861.818 198.705 861.972 198.993 862.172 199.242C862.377 199.491 862.624 199.687 862.912 199.828C863.205 199.97 863.537 200.041 863.908 200.041C864.387 200.041 864.792 199.943 865.124 199.748C865.456 199.552 865.747 199.291 865.996 198.964L866.816 199.616C866.645 199.875 866.428 200.121 866.164 200.355C865.9 200.59 865.576 200.78 865.19 200.927C864.809 201.073 864.357 201.146 863.835 201.146ZM869.848 194.65V201H868.486V193.075H869.775L869.848 194.65ZM869.57 196.737L868.94 196.715C868.945 196.173 869.016 195.673 869.152 195.214C869.289 194.75 869.492 194.347 869.76 194.005C870.029 193.664 870.363 193.4 870.764 193.214C871.164 193.024 871.628 192.929 872.155 192.929C872.526 192.929 872.868 192.982 873.181 193.09C873.493 193.192 873.764 193.356 873.994 193.581C874.223 193.805 874.401 194.093 874.528 194.445C874.655 194.796 874.719 195.221 874.719 195.719V201H873.364V195.785C873.364 195.37 873.293 195.038 873.151 194.789C873.015 194.54 872.819 194.359 872.565 194.247C872.312 194.13 872.014 194.071 871.672 194.071C871.271 194.071 870.937 194.142 870.668 194.284C870.4 194.425 870.185 194.621 870.024 194.87C869.863 195.119 869.746 195.404 869.672 195.727C869.604 196.044 869.57 196.381 869.57 196.737ZM874.704 195.99L873.796 196.269C873.801 195.834 873.872 195.417 874.008 195.016C874.15 194.616 874.353 194.259 874.616 193.947C874.885 193.634 875.214 193.388 875.605 193.207C875.996 193.021 876.442 192.929 876.945 192.929C877.37 192.929 877.746 192.985 878.073 193.097C878.405 193.209 878.684 193.383 878.908 193.617C879.138 193.847 879.311 194.142 879.428 194.503C879.545 194.865 879.604 195.294 879.604 195.792V201H878.242V195.778C878.242 195.333 878.171 194.989 878.029 194.745C877.893 194.496 877.697 194.323 877.443 194.225C877.194 194.123 876.896 194.071 876.55 194.071C876.252 194.071 875.988 194.123 875.759 194.225C875.529 194.328 875.336 194.469 875.18 194.65C875.024 194.826 874.904 195.028 874.821 195.258C874.743 195.487 874.704 195.731 874.704 195.99Z" fill="#505050"/>
<rect x="1025" y="80" width="235.2" height="56" rx="16" fill="white"/>
<rect x="1033" y="88" width="219.2" height="40" rx="8" fill="white"/>
<path d="M1050.43 106.75V105.812C1050.43 104.259 1051.58 103 1053 103C1054.42 103 1055.57 104.259 1055.57 105.812V106.75H1055.86C1056.49 106.75 1057 107.311 1057 108V111.75C1057 112.439 1056.49 113 1055.86 113H1050.14C1049.51 113 1049 112.439 1049 111.75V108C1049 107.311 1049.51 106.75 1050.14 106.75H1050.43ZM1051.57 106.75H1054.43V105.812C1054.43 104.95 1053.79 104.25 1053 104.25C1052.21 104.25 1051.57 104.95 1051.57 105.812V106.75Z" fill="#AAAAAA"/>
<path d="M1078.18 102.336V113H1076.79V102.336H1078.18ZM1081.61 102.336V103.493H1073.37V102.336H1081.61ZM1083.78 106.32V113H1082.43V105.075H1083.74L1083.78 106.32ZM1086.26 105.031L1086.25 106.291C1086.14 106.267 1086.03 106.252 1085.93 106.247C1085.83 106.237 1085.72 106.232 1085.59 106.232C1085.28 106.232 1085 106.281 1084.76 106.379C1084.52 106.477 1084.32 106.613 1084.15 106.789C1083.99 106.965 1083.86 107.175 1083.76 107.419C1083.67 107.658 1083.61 107.922 1083.58 108.21L1083.2 108.43C1083.2 107.951 1083.24 107.502 1083.33 107.082C1083.43 106.662 1083.58 106.291 1083.78 105.969C1083.98 105.642 1084.24 105.388 1084.54 105.207C1084.86 105.021 1085.23 104.929 1085.66 104.929C1085.75 104.929 1085.87 104.941 1085.99 104.965C1086.12 104.985 1086.21 105.007 1086.26 105.031ZM1090.65 113.146C1090.1 113.146 1089.6 113.054 1089.15 112.868C1088.71 112.678 1088.32 112.412 1088 112.07C1087.68 111.728 1087.44 111.323 1087.27 110.854C1087.1 110.385 1087.01 109.873 1087.01 109.316V109.008C1087.01 108.364 1087.11 107.79 1087.3 107.287C1087.49 106.779 1087.75 106.35 1088.07 105.998C1088.4 105.646 1088.77 105.38 1089.19 105.2C1089.6 105.019 1090.03 104.929 1090.48 104.929C1091.04 104.929 1091.53 105.026 1091.94 105.222C1092.36 105.417 1092.69 105.69 1092.96 106.042C1093.22 106.389 1093.42 106.799 1093.54 107.272C1093.67 107.741 1093.73 108.254 1093.73 108.811V109.418H1087.82V108.312H1092.38V108.21C1092.36 107.858 1092.29 107.517 1092.16 107.185C1092.04 106.853 1091.84 106.579 1091.57 106.364C1091.31 106.149 1090.94 106.042 1090.48 106.042C1090.17 106.042 1089.88 106.108 1089.63 106.24C1089.37 106.367 1089.15 106.557 1088.96 106.811C1088.77 107.065 1088.63 107.375 1088.53 107.741C1088.42 108.107 1088.37 108.53 1088.37 109.008V109.316C1088.37 109.692 1088.42 110.046 1088.53 110.378C1088.63 110.705 1088.79 110.993 1088.99 111.242C1089.19 111.491 1089.44 111.687 1089.73 111.828C1090.02 111.97 1090.35 112.041 1090.72 112.041C1091.2 112.041 1091.61 111.943 1091.94 111.748C1092.27 111.552 1092.56 111.291 1092.81 110.964L1093.63 111.616C1093.46 111.875 1093.24 112.121 1092.98 112.355C1092.72 112.59 1092.39 112.78 1092.01 112.927C1091.63 113.073 1091.17 113.146 1090.65 113.146ZM1098.61 113.146C1098.05 113.146 1097.55 113.054 1097.1 112.868C1096.66 112.678 1096.28 112.412 1095.95 112.07C1095.64 111.728 1095.39 111.323 1095.22 110.854C1095.05 110.385 1094.97 109.873 1094.97 109.316V109.008C1094.97 108.364 1095.06 107.79 1095.25 107.287C1095.44 106.779 1095.7 106.35 1096.03 105.998C1096.35 105.646 1096.73 105.38 1097.14 105.2C1097.56 105.019 1097.99 104.929 1098.43 104.929C1099 104.929 1099.48 105.026 1099.89 105.222C1100.31 105.417 1100.65 105.69 1100.91 106.042C1101.18 106.389 1101.37 106.799 1101.5 107.272C1101.63 107.741 1101.69 108.254 1101.69 108.811V109.418H1095.77V108.312H1100.33V108.21C1100.31 107.858 1100.24 107.517 1100.11 107.185C1099.99 106.853 1099.8 106.579 1099.53 106.364C1099.26 106.149 1098.89 106.042 1098.43 106.042C1098.12 106.042 1097.84 106.108 1097.58 106.24C1097.32 106.367 1097.1 106.557 1096.91 106.811C1096.73 107.065 1096.58 107.375 1096.48 107.741C1096.38 108.107 1096.33 108.53 1096.33 109.008V109.316C1096.33 109.692 1096.38 110.046 1096.48 110.378C1096.59 110.705 1096.74 110.993 1096.94 111.242C1097.15 111.491 1097.39 111.687 1097.68 111.828C1097.98 111.97 1098.31 112.041 1098.68 112.041C1099.16 112.041 1099.56 111.943 1099.89 111.748C1100.23 111.552 1100.52 111.291 1100.77 110.964L1101.59 111.616C1101.42 111.875 1101.2 112.121 1100.93 112.355C1100.67 112.59 1100.35 112.78 1099.96 112.927C1099.58 113.073 1099.13 113.146 1098.61 113.146ZM1108.46 105.075V113H1107.1V105.075H1108.46ZM1107 102.973C1107 102.753 1107.06 102.568 1107.2 102.417C1107.33 102.265 1107.53 102.189 1107.8 102.189C1108.06 102.189 1108.25 102.265 1108.39 102.417C1108.53 102.568 1108.6 102.753 1108.6 102.973C1108.6 103.183 1108.53 103.364 1108.39 103.515C1108.25 103.662 1108.06 103.735 1107.8 103.735C1107.53 103.735 1107.33 103.662 1107.2 103.515C1107.06 103.364 1107 103.183 1107 102.973ZM1113.96 105.075V106.115H1109.67V105.075H1113.96ZM1111.12 103.149H1112.48V111.037C1112.48 111.306 1112.52 111.508 1112.6 111.645C1112.69 111.782 1112.79 111.872 1112.92 111.916C1113.06 111.96 1113.2 111.982 1113.35 111.982C1113.46 111.982 1113.58 111.972 1113.7 111.953C1113.83 111.928 1113.92 111.909 1113.99 111.894L1113.99 113C1113.89 113.034 1113.74 113.066 1113.57 113.095C1113.4 113.129 1113.19 113.146 1112.95 113.146C1112.61 113.146 1112.31 113.081 1112.03 112.949C1111.75 112.817 1111.53 112.597 1111.36 112.29C1111.2 111.977 1111.12 111.557 1111.12 111.03V103.149ZM1118.83 113.146C1118.28 113.146 1117.78 113.054 1117.33 112.868C1116.89 112.678 1116.51 112.412 1116.18 112.07C1115.87 111.728 1115.62 111.323 1115.45 110.854C1115.28 110.385 1115.19 109.873 1115.19 109.316V109.008C1115.19 108.364 1115.29 107.79 1115.48 107.287C1115.67 106.779 1115.93 106.35 1116.26 105.998C1116.58 105.646 1116.96 105.38 1117.37 105.2C1117.79 105.019 1118.21 104.929 1118.66 104.929C1119.23 104.929 1119.71 105.026 1120.12 105.222C1120.54 105.417 1120.88 105.69 1121.14 106.042C1121.41 106.389 1121.6 106.799 1121.73 107.272C1121.85 107.741 1121.92 108.254 1121.92 108.811V109.418H1116V108.312H1120.56V108.21C1120.54 107.858 1120.47 107.517 1120.34 107.185C1120.22 106.853 1120.03 106.579 1119.76 106.364C1119.49 106.149 1119.12 106.042 1118.66 106.042C1118.35 106.042 1118.07 106.108 1117.81 106.24C1117.55 106.367 1117.33 106.557 1117.14 106.811C1116.96 107.065 1116.81 107.375 1116.71 107.741C1116.61 108.107 1116.56 108.53 1116.56 109.008V109.316C1116.56 109.692 1116.61 110.046 1116.71 110.378C1116.82 110.705 1116.97 110.993 1117.17 111.242C1117.38 111.491 1117.62 111.687 1117.91 111.828C1118.21 111.97 1118.54 112.041 1118.91 112.041C1119.39 112.041 1119.79 111.943 1120.12 111.748C1120.46 111.552 1120.75 111.291 1121 110.964L1121.82 111.616C1121.65 111.875 1121.43 112.121 1121.16 112.355C1120.9 112.59 1120.58 112.78 1120.19 112.927C1119.81 113.073 1119.36 113.146 1118.83 113.146ZM1124.85 106.65V113H1123.49V105.075H1124.77L1124.85 106.65ZM1124.57 108.737L1123.94 108.715C1123.94 108.173 1124.02 107.673 1124.15 107.214C1124.29 106.75 1124.49 106.347 1124.76 106.005C1125.03 105.664 1125.36 105.4 1125.76 105.214C1126.16 105.024 1126.63 104.929 1127.16 104.929C1127.53 104.929 1127.87 104.982 1128.18 105.09C1128.49 105.192 1128.76 105.356 1128.99 105.581C1129.22 105.805 1129.4 106.093 1129.53 106.445C1129.66 106.796 1129.72 107.221 1129.72 107.719V113H1128.36V107.785C1128.36 107.37 1128.29 107.038 1128.15 106.789C1128.01 106.54 1127.82 106.359 1127.57 106.247C1127.31 106.13 1127.01 106.071 1126.67 106.071C1126.27 106.071 1125.94 106.142 1125.67 106.284C1125.4 106.425 1125.19 106.621 1125.02 106.87C1124.86 107.119 1124.75 107.404 1124.67 107.727C1124.6 108.044 1124.57 108.381 1124.57 108.737ZM1129.7 107.99L1128.8 108.269C1128.8 107.834 1128.87 107.417 1129.01 107.016C1129.15 106.616 1129.35 106.259 1129.62 105.947C1129.88 105.634 1130.21 105.388 1130.6 105.207C1131 105.021 1131.44 104.929 1131.95 104.929C1132.37 104.929 1132.75 104.985 1133.07 105.097C1133.41 105.209 1133.68 105.383 1133.91 105.617C1134.14 105.847 1134.31 106.142 1134.43 106.503C1134.55 106.865 1134.6 107.294 1134.6 107.792V113H1133.24V107.778C1133.24 107.333 1133.17 106.989 1133.03 106.745C1132.89 106.496 1132.7 106.323 1132.44 106.225C1132.19 106.123 1131.9 106.071 1131.55 106.071C1131.25 106.071 1130.99 106.123 1130.76 106.225C1130.53 106.328 1130.34 106.469 1130.18 106.65C1130.02 106.826 1129.9 107.028 1129.82 107.258C1129.74 107.487 1129.7 107.731 1129.7 107.99Z" fill="#AAAAAA"/>
<path d="M24.4609 57H22.0312L22.0469 55.4453H24.4609C25.1641 55.4453 25.7526 55.2917 26.2266 54.9844C26.7057 54.6771 27.0651 54.237 27.3047 53.6641C27.5495 53.0911 27.6719 52.4089 27.6719 51.6172V51C27.6719 50.3854 27.6016 49.8411 27.4609 49.3672C27.3255 48.8932 27.1224 48.4948 26.8516 48.1719C26.5859 47.849 26.2578 47.6042 25.8672 47.4375C25.4818 47.2708 25.0365 47.1875 24.5312 47.1875H21.9844V45.625H24.5312C25.2865 45.625 25.9766 45.7526 26.6016 46.0078C27.2266 46.2578 27.7656 46.6198 28.2188 47.0938C28.6771 47.5677 29.0286 48.1354 29.2734 48.7969C29.5182 49.4583 29.6406 50.1979 29.6406 51.0156V51.6172C29.6406 52.4349 29.5182 53.1745 29.2734 53.8359C29.0286 54.4974 28.6771 55.0651 28.2188 55.5391C27.7604 56.0078 27.2135 56.3698 26.5781 56.625C25.9479 56.875 25.2422 57 24.4609 57ZM23.1172 45.625V57H21.1562V45.625H23.1172ZM35.1484 57.1562C34.5234 57.1562 33.9583 57.0547 33.4531 56.8516C32.9531 56.6432 32.526 56.3542 32.1719 55.9844C31.8229 55.6146 31.5547 55.1797 31.3672 54.6797C31.1797 54.1797 31.0859 53.6406 31.0859 53.0625V52.75C31.0859 52.0885 31.1823 51.4896 31.375 50.9531C31.5677 50.4167 31.8359 49.9583 32.1797 49.5781C32.5234 49.1927 32.9297 48.8984 33.3984 48.6953C33.8672 48.4922 34.375 48.3906 34.9219 48.3906C35.526 48.3906 36.0547 48.4922 36.5078 48.6953C36.9609 48.8984 37.3359 49.1849 37.6328 49.5547C37.9349 49.9193 38.1589 50.3542 38.3047 50.8594C38.4557 51.3646 38.5312 51.9219 38.5312 52.5312V53.3359H32V51.9844H36.6719V51.8359C36.6615 51.4974 36.5938 51.1797 36.4688 50.8828C36.349 50.5859 36.1641 50.3464 35.9141 50.1641C35.6641 49.9818 35.3307 49.8906 34.9141 49.8906C34.6016 49.8906 34.3229 49.9583 34.0781 50.0938C33.8385 50.224 33.638 50.4141 33.4766 50.6641C33.3151 50.9141 33.1901 51.2161 33.1016 51.5703C33.0182 51.9193 32.9766 52.3125 32.9766 52.75V53.0625C32.9766 53.4323 33.026 53.776 33.125 54.0938C33.2292 54.4062 33.3802 54.6797 33.5781 54.9141C33.776 55.1484 34.0156 55.3333 34.2969 55.4688C34.5781 55.599 34.8984 55.6641 35.2578 55.6641C35.7109 55.6641 36.1146 55.5729 36.4688 55.3906C36.8229 55.2083 37.1302 54.9505 37.3906 54.6172L38.3828 55.5781C38.2005 55.8438 37.9635 56.099 37.6719 56.3438C37.3802 56.5833 37.0234 56.7786 36.6016 56.9297C36.1849 57.0807 35.7005 57.1562 35.1484 57.1562ZM42.5469 57H40.6641V47.7344C40.6641 47.1042 40.7812 46.5755 41.0156 46.1484C41.2552 45.7161 41.5964 45.3906 42.0391 45.1719C42.4818 44.9479 43.0052 44.8359 43.6094 44.8359C43.7969 44.8359 43.9818 44.849 44.1641 44.875C44.3464 44.8958 44.5234 44.9297 44.6953 44.9766L44.6484 46.4297C44.5443 46.4036 44.4297 46.3854 44.3047 46.375C44.1849 46.3646 44.0547 46.3594 43.9141 46.3594C43.6276 46.3594 43.3802 46.4141 43.1719 46.5234C42.9688 46.6276 42.8125 46.7812 42.7031 46.9844C42.599 47.1875 42.5469 47.4375 42.5469 47.7344V57ZM44.2891 48.5469V49.9219H39.3672V48.5469H44.2891ZM50.4219 55.3047V51.2734C50.4219 50.9714 50.3672 50.7109 50.2578 50.4922C50.1484 50.2734 49.9818 50.1042 49.7578 49.9844C49.5391 49.8646 49.263 49.8047 48.9297 49.8047C48.6224 49.8047 48.3568 49.8568 48.1328 49.9609C47.9089 50.0651 47.7344 50.2057 47.6094 50.3828C47.4844 50.5599 47.4219 50.7604 47.4219 50.9844H45.5469C45.5469 50.651 45.6276 50.3281 45.7891 50.0156C45.9505 49.7031 46.1849 49.4245 46.4922 49.1797C46.7995 48.9349 47.1667 48.7422 47.5938 48.6016C48.0208 48.4609 48.5 48.3906 49.0312 48.3906C49.6667 48.3906 50.2292 48.4974 50.7188 48.7109C51.2135 48.9245 51.6016 49.2474 51.8828 49.6797C52.1693 50.1068 52.3125 50.6432 52.3125 51.2891V55.0469C52.3125 55.4323 52.3385 55.7786 52.3906 56.0859C52.4479 56.388 52.5286 56.651 52.6328 56.875V57H50.7031C50.6146 56.7969 50.5443 56.5391 50.4922 56.2266C50.4453 55.9089 50.4219 55.6016 50.4219 55.3047ZM50.6953 51.8594L50.7109 53.0234H49.3594C49.0104 53.0234 48.7031 53.0573 48.4375 53.125C48.1719 53.1875 47.9505 53.2812 47.7734 53.4062C47.5964 53.5312 47.4635 53.6823 47.375 53.8594C47.2865 54.0365 47.2422 54.237 47.2422 54.4609C47.2422 54.6849 47.2943 54.8906 47.3984 55.0781C47.5026 55.2604 47.6536 55.4036 47.8516 55.5078C48.0547 55.612 48.2995 55.6641 48.5859 55.6641C48.9714 55.6641 49.3073 55.5859 49.5938 55.4297C49.8854 55.2682 50.1146 55.0729 50.2812 54.8438C50.4479 54.6094 50.5365 54.388 50.5469 54.1797L51.1562 55.0156C51.0938 55.2292 50.987 55.4583 50.8359 55.7031C50.6849 55.9479 50.487 56.1823 50.2422 56.4062C50.0026 56.625 49.7135 56.8047 49.375 56.9453C49.0417 57.0859 48.6562 57.1562 48.2188 57.1562C47.6667 57.1562 47.1745 57.0469 46.7422 56.8281C46.3099 56.6042 45.9714 56.3047 45.7266 55.9297C45.4818 55.5495 45.3594 55.1198 45.3594 54.6406C45.3594 54.1927 45.4427 53.7969 45.6094 53.4531C45.7812 53.1042 46.0312 52.8125 46.3594 52.5781C46.6927 52.3438 47.099 52.1667 47.5781 52.0469C48.0573 51.9219 48.6042 51.8594 49.2188 51.8594H50.6953ZM59.3672 55.0078V48.5469H61.2578V57H59.4766L59.3672 55.0078ZM59.6328 53.25L60.2656 53.2344C60.2656 53.8021 60.2031 54.3255 60.0781 54.8047C59.9531 55.2786 59.7604 55.6927 59.5 56.0469C59.2396 56.3958 58.9062 56.6693 58.5 56.8672C58.0938 57.0599 57.6068 57.1562 57.0391 57.1562C56.6276 57.1562 56.25 57.0964 55.9062 56.9766C55.5625 56.8568 55.2656 56.6719 55.0156 56.4219C54.7708 56.1719 54.5807 55.8464 54.4453 55.4453C54.3099 55.0443 54.2422 54.5651 54.2422 54.0078V48.5469H56.125V54.0234C56.125 54.3307 56.1615 54.5885 56.2344 54.7969C56.3073 55 56.4062 55.1641 56.5312 55.2891C56.6562 55.4141 56.8021 55.5026 56.9688 55.5547C57.1354 55.6068 57.3125 55.6328 57.5 55.6328C58.0365 55.6328 58.4583 55.5286 58.7656 55.3203C59.0781 55.1068 59.2995 54.8203 59.4297 54.4609C59.5651 54.1016 59.6328 53.6979 59.6328 53.25ZM65.2031 45V57H63.3125V45H65.2031ZM71.1406 48.5469V49.9219H66.375V48.5469H71.1406ZM67.75 46.4766H69.6328V54.6641C69.6328 54.9245 69.6693 55.125 69.7422 55.2656C69.8203 55.401 69.9271 55.4922 70.0625 55.5391C70.1979 55.5859 70.3568 55.6094 70.5391 55.6094C70.6693 55.6094 70.7943 55.6016 70.9141 55.5859C71.0339 55.5703 71.1302 55.5547 71.2031 55.5391L71.2109 56.9766C71.0547 57.0234 70.8724 57.0651 70.6641 57.1016C70.4609 57.138 70.2266 57.1562 69.9609 57.1562C69.5286 57.1562 69.1458 57.0807 68.8125 56.9297C68.4792 56.7734 68.2188 56.5208 68.0312 56.1719C67.8438 55.8229 67.75 55.3594 67.75 54.7812V46.4766Z" fill="#1A1A1A"/>
<path d="M279.672 50.375V51.9297H273.633V50.375H279.672ZM274.117 45.625V57H272.156V45.625H274.117ZM281.18 45.625V57H279.227V45.625H281.18ZM282.969 52.8672V52.6875C282.969 52.0781 283.057 51.513 283.234 50.9922C283.411 50.4661 283.667 50.0104 284 49.625C284.339 49.2344 284.75 48.9323 285.234 48.7188C285.724 48.5 286.276 48.3906 286.891 48.3906C287.51 48.3906 288.062 48.5 288.547 48.7188C289.036 48.9323 289.451 49.2344 289.789 49.625C290.128 50.0104 290.385 50.4661 290.562 50.9922C290.74 51.513 290.828 52.0781 290.828 52.6875V52.8672C290.828 53.4766 290.74 54.0417 290.562 54.5625C290.385 55.0833 290.128 55.5391 289.789 55.9297C289.451 56.3151 289.039 56.6172 288.555 56.8359C288.07 57.0495 287.521 57.1562 286.906 57.1562C286.286 57.1562 285.732 57.0495 285.242 56.8359C284.758 56.6172 284.346 56.3151 284.008 55.9297C283.669 55.5391 283.411 55.0833 283.234 54.5625C283.057 54.0417 282.969 53.4766 282.969 52.8672ZM284.852 52.6875V52.8672C284.852 53.2474 284.891 53.6068 284.969 53.9453C285.047 54.2839 285.169 54.5807 285.336 54.8359C285.503 55.0911 285.716 55.2917 285.977 55.4375C286.237 55.5833 286.547 55.6562 286.906 55.6562C287.255 55.6562 287.557 55.5833 287.812 55.4375C288.073 55.2917 288.286 55.0911 288.453 54.8359C288.62 54.5807 288.742 54.2839 288.82 53.9453C288.904 53.6068 288.945 53.2474 288.945 52.8672V52.6875C288.945 52.3125 288.904 51.9583 288.82 51.625C288.742 51.2865 288.617 50.987 288.445 50.7266C288.279 50.4661 288.065 50.263 287.805 50.1172C287.549 49.9661 287.245 49.8906 286.891 49.8906C286.536 49.8906 286.229 49.9661 285.969 50.1172C285.714 50.263 285.503 50.4661 285.336 50.7266C285.169 50.987 285.047 51.2865 284.969 51.625C284.891 51.9583 284.852 52.3125 284.852 52.6875ZM295.031 55.5078L297.102 48.5469H299.055L296.117 57H294.898L295.031 55.5078ZM293.445 48.5469L295.555 55.5391L295.656 57H294.438L291.484 48.5469H293.445ZM303.836 57.1562C303.211 57.1562 302.646 57.0547 302.141 56.8516C301.641 56.6432 301.214 56.3542 300.859 55.9844C300.51 55.6146 300.242 55.1797 300.055 54.6797C299.867 54.1797 299.773 53.6406 299.773 53.0625V52.75C299.773 52.0885 299.87 51.4896 300.062 50.9531C300.255 50.4167 300.523 49.9583 300.867 49.5781C301.211 49.1927 301.617 48.8984 302.086 48.6953C302.555 48.4922 303.062 48.3906 303.609 48.3906C304.214 48.3906 304.742 48.4922 305.195 48.6953C305.648 48.8984 306.023 49.1849 306.32 49.5547C306.622 49.9193 306.846 50.3542 306.992 50.8594C307.143 51.3646 307.219 51.9219 307.219 52.5312V53.3359H300.688V51.9844H305.359V51.8359C305.349 51.4974 305.281 51.1797 305.156 50.8828C305.036 50.5859 304.852 50.3464 304.602 50.1641C304.352 49.9818 304.018 49.8906 303.602 49.8906C303.289 49.8906 303.01 49.9583 302.766 50.0938C302.526 50.224 302.326 50.4141 302.164 50.6641C302.003 50.9141 301.878 51.2161 301.789 51.5703C301.706 51.9193 301.664 52.3125 301.664 52.75V53.0625C301.664 53.4323 301.714 53.776 301.812 54.0938C301.917 54.4062 302.068 54.6797 302.266 54.9141C302.464 55.1484 302.703 55.3333 302.984 55.4688C303.266 55.599 303.586 55.6641 303.945 55.6641C304.398 55.6641 304.802 55.5729 305.156 55.3906C305.51 55.2083 305.818 54.9505 306.078 54.6172L307.07 55.5781C306.888 55.8438 306.651 56.099 306.359 56.3438C306.068 56.5833 305.711 56.7786 305.289 56.9297C304.872 57.0807 304.388 57.1562 303.836 57.1562ZM310.578 50.1562V57H308.695V48.5469H310.492L310.578 50.1562ZM313.164 48.4922L313.148 50.2422C313.034 50.2214 312.909 50.2057 312.773 50.1953C312.643 50.1849 312.513 50.1797 312.383 50.1797C312.06 50.1797 311.776 50.2266 311.531 50.3203C311.286 50.4089 311.081 50.5391 310.914 50.7109C310.753 50.8776 310.628 51.0807 310.539 51.3203C310.451 51.5599 310.398 51.8281 310.383 52.125L309.953 52.1562C309.953 51.625 310.005 51.1328 310.109 50.6797C310.214 50.2266 310.37 49.8281 310.578 49.4844C310.792 49.1406 311.057 48.8724 311.375 48.6797C311.698 48.487 312.07 48.3906 312.492 48.3906C312.607 48.3906 312.729 48.401 312.859 48.4219C312.995 48.4427 313.096 48.4661 313.164 48.4922Z" fill="#1A1A1A"/>
<path d="M525.117 45.625V57H523.156V45.625H525.117ZM529.758 50.6016V52.1562H524.617V50.6016H529.758ZM530.406 45.625V47.1875H524.617V45.625H530.406ZM531.25 52.8672V52.6875C531.25 52.0781 531.339 51.513 531.516 50.9922C531.693 50.4661 531.948 50.0104 532.281 49.625C532.62 49.2344 533.031 48.9323 533.516 48.7188C534.005 48.5 534.557 48.3906 535.172 48.3906C535.792 48.3906 536.344 48.5 536.828 48.7188C537.318 48.9323 537.732 49.2344 538.07 49.625C538.409 50.0104 538.667 50.4661 538.844 50.9922C539.021 51.513 539.109 52.0781 539.109 52.6875V52.8672C539.109 53.4766 539.021 54.0417 538.844 54.5625C538.667 55.0833 538.409 55.5391 538.07 55.9297C537.732 56.3151 537.32 56.6172 536.836 56.8359C536.352 57.0495 535.802 57.1562 535.188 57.1562C534.568 57.1562 534.013 57.0495 533.523 56.8359C533.039 56.6172 532.628 56.3151 532.289 55.9297C531.951 55.5391 531.693 55.0833 531.516 54.5625C531.339 54.0417 531.25 53.4766 531.25 52.8672ZM533.133 52.6875V52.8672C533.133 53.2474 533.172 53.6068 533.25 53.9453C533.328 54.2839 533.451 54.5807 533.617 54.8359C533.784 55.0911 533.997 55.2917 534.258 55.4375C534.518 55.5833 534.828 55.6562 535.188 55.6562C535.536 55.6562 535.839 55.5833 536.094 55.4375C536.354 55.2917 536.568 55.0911 536.734 54.8359C536.901 54.5807 537.023 54.2839 537.102 53.9453C537.185 53.6068 537.227 53.2474 537.227 52.8672V52.6875C537.227 52.3125 537.185 51.9583 537.102 51.625C537.023 51.2865 536.898 50.987 536.727 50.7266C536.56 50.4661 536.346 50.263 536.086 50.1172C535.831 49.9661 535.526 49.8906 535.172 49.8906C534.818 49.8906 534.51 49.9661 534.25 50.1172C533.995 50.263 533.784 50.4661 533.617 50.7266C533.451 50.987 533.328 51.2865 533.25 51.625C533.172 51.9583 533.133 52.3125 533.133 52.6875ZM544.141 55.6562C544.448 55.6562 544.724 55.5964 544.969 55.4766C545.219 55.3516 545.419 55.1797 545.57 54.9609C545.727 54.7422 545.812 54.4896 545.828 54.2031H547.602C547.591 54.75 547.43 55.2474 547.117 55.6953C546.805 56.1432 546.391 56.5 545.875 56.7656C545.359 57.026 544.789 57.1562 544.164 57.1562C543.518 57.1562 542.956 57.0469 542.477 56.8281C541.997 56.6042 541.599 56.2969 541.281 55.9062C540.964 55.5156 540.724 55.0651 540.562 54.5547C540.406 54.0443 540.328 53.4974 540.328 52.9141V52.6406C540.328 52.0573 540.406 51.5104 540.562 51C540.724 50.4844 540.964 50.0312 541.281 49.6406C541.599 49.25 541.997 48.9453 542.477 48.7266C542.956 48.5026 543.516 48.3906 544.156 48.3906C544.833 48.3906 545.427 48.526 545.938 48.7969C546.448 49.0625 546.849 49.4349 547.141 49.9141C547.438 50.388 547.591 50.9401 547.602 51.5703H545.828C545.812 51.2578 545.734 50.9766 545.594 50.7266C545.458 50.4714 545.266 50.2682 545.016 50.1172C544.771 49.9661 544.477 49.8906 544.133 49.8906C543.753 49.8906 543.438 49.9688 543.188 50.125C542.938 50.276 542.742 50.4844 542.602 50.75C542.461 51.0104 542.359 51.3047 542.297 51.6328C542.24 51.9557 542.211 52.2917 542.211 52.6406V52.9141C542.211 53.263 542.24 53.6016 542.297 53.9297C542.354 54.2578 542.453 54.5521 542.594 54.8125C542.74 55.0677 542.938 55.2734 543.188 55.4297C543.438 55.5807 543.755 55.6562 544.141 55.6562ZM554.133 55.0078V48.5469H556.023V57H554.242L554.133 55.0078ZM554.398 53.25L555.031 53.2344C555.031 53.8021 554.969 54.3255 554.844 54.8047C554.719 55.2786 554.526 55.6927 554.266 56.0469C554.005 56.3958 553.672 56.6693 553.266 56.8672C552.859 57.0599 552.372 57.1562 551.805 57.1562C551.393 57.1562 551.016 57.0964 550.672 56.9766C550.328 56.8568 550.031 56.6719 549.781 56.4219C549.536 56.1719 549.346 55.8464 549.211 55.4453C549.076 55.0443 549.008 54.5651 549.008 54.0078V48.5469H550.891V54.0234C550.891 54.3307 550.927 54.5885 551 54.7969C551.073 55 551.172 55.1641 551.297 55.2891C551.422 55.4141 551.568 55.5026 551.734 55.5547C551.901 55.6068 552.078 55.6328 552.266 55.6328C552.802 55.6328 553.224 55.5286 553.531 55.3203C553.844 55.1068 554.065 54.8203 554.195 54.4609C554.331 54.1016 554.398 53.6979 554.398 53.25ZM562.695 54.7109C562.695 54.5234 562.648 54.3542 562.555 54.2031C562.461 54.0469 562.281 53.9062 562.016 53.7812C561.755 53.6562 561.37 53.5417 560.859 53.4375C560.411 53.3385 560 53.2214 559.625 53.0859C559.255 52.9453 558.938 52.776 558.672 52.5781C558.406 52.3802 558.201 52.1458 558.055 51.875C557.909 51.6042 557.836 51.2917 557.836 50.9375C557.836 50.5938 557.911 50.2682 558.062 49.9609C558.214 49.6536 558.43 49.3828 558.711 49.1484C558.992 48.9141 559.333 48.7292 559.734 48.5938C560.141 48.4583 560.594 48.3906 561.094 48.3906C561.802 48.3906 562.409 48.5104 562.914 48.75C563.424 48.9844 563.815 49.3047 564.086 49.7109C564.357 50.112 564.492 50.5651 564.492 51.0703H562.609C562.609 50.8464 562.552 50.638 562.438 50.4453C562.328 50.2474 562.161 50.0885 561.938 49.9688C561.714 49.8438 561.432 49.7812 561.094 49.7812C560.771 49.7812 560.503 49.8333 560.289 49.9375C560.081 50.0365 559.924 50.1667 559.82 50.3281C559.721 50.4896 559.672 50.6667 559.672 50.8594C559.672 51 559.698 51.1276 559.75 51.2422C559.807 51.3516 559.901 51.4531 560.031 51.5469C560.161 51.6354 560.339 51.7188 560.562 51.7969C560.792 51.875 561.078 51.9505 561.422 52.0234C562.068 52.1589 562.622 52.3333 563.086 52.5469C563.555 52.7552 563.914 53.026 564.164 53.3594C564.414 53.6875 564.539 54.1042 564.539 54.6094C564.539 54.9844 564.458 55.3281 564.297 55.6406C564.141 55.9479 563.911 56.2161 563.609 56.4453C563.307 56.6693 562.945 56.8438 562.523 56.9688C562.107 57.0938 561.638 57.1562 561.117 57.1562C560.352 57.1562 559.703 57.0208 559.172 56.75C558.641 56.474 558.237 56.1224 557.961 55.6953C557.69 55.263 557.555 54.8151 557.555 54.3516H559.375C559.396 54.7005 559.492 54.9792 559.664 55.1875C559.841 55.3906 560.06 55.5391 560.32 55.6328C560.586 55.7214 560.859 55.7656 561.141 55.7656C561.479 55.7656 561.763 55.7214 561.992 55.6328C562.221 55.5391 562.396 55.4141 562.516 55.2578C562.635 55.0964 562.695 54.9141 562.695 54.7109ZM569.914 57.1562C569.289 57.1562 568.724 57.0547 568.219 56.8516C567.719 56.6432 567.292 56.3542 566.938 55.9844C566.589 55.6146 566.32 55.1797 566.133 54.6797C565.945 54.1797 565.852 53.6406 565.852 53.0625V52.75C565.852 52.0885 565.948 51.4896 566.141 50.9531C566.333 50.4167 566.602 49.9583 566.945 49.5781C567.289 49.1927 567.695 48.8984 568.164 48.6953C568.633 48.4922 569.141 48.3906 569.688 48.3906C570.292 48.3906 570.82 48.4922 571.273 48.6953C571.727 48.8984 572.102 49.1849 572.398 49.5547C572.701 49.9193 572.924 50.3542 573.07 50.8594C573.221 51.3646 573.297 51.9219 573.297 52.5312V53.3359H566.766V51.9844H571.438V51.8359C571.427 51.4974 571.359 51.1797 571.234 50.8828C571.115 50.5859 570.93 50.3464 570.68 50.1641C570.43 49.9818 570.096 49.8906 569.68 49.8906C569.367 49.8906 569.089 49.9583 568.844 50.0938C568.604 50.224 568.404 50.4141 568.242 50.6641C568.081 50.9141 567.956 51.2161 567.867 51.5703C567.784 51.9193 567.742 52.3125 567.742 52.75V53.0625C567.742 53.4323 567.792 53.776 567.891 54.0938C567.995 54.4062 568.146 54.6797 568.344 54.9141C568.542 55.1484 568.781 55.3333 569.062 55.4688C569.344 55.599 569.664 55.6641 570.023 55.6641C570.477 55.6641 570.88 55.5729 571.234 55.3906C571.589 55.2083 571.896 54.9505 572.156 54.6172L573.148 55.5781C572.966 55.8438 572.729 56.099 572.438 56.3438C572.146 56.5833 571.789 56.7786 571.367 56.9297C570.951 57.0807 570.466 57.1562 569.914 57.1562ZM579.922 55.25V45H581.812V57H580.102L579.922 55.25ZM574.422 52.8672V52.7031C574.422 52.0625 574.497 51.4792 574.648 50.9531C574.799 50.4219 575.018 49.9661 575.305 49.5859C575.591 49.2005 575.94 48.9062 576.352 48.7031C576.763 48.4948 577.227 48.3906 577.742 48.3906C578.253 48.3906 578.701 48.4896 579.086 48.6875C579.471 48.8854 579.799 49.1693 580.07 49.5391C580.341 49.9036 580.557 50.3411 580.719 50.8516C580.88 51.3568 580.995 51.9193 581.062 52.5391V53.0625C580.995 53.6667 580.88 54.2188 580.719 54.7188C580.557 55.2188 580.341 55.651 580.07 56.0156C579.799 56.3802 579.469 56.6615 579.078 56.8594C578.693 57.0573 578.242 57.1562 577.727 57.1562C577.216 57.1562 576.755 57.0495 576.344 56.8359C575.938 56.6224 575.591 56.3229 575.305 55.9375C575.018 55.5521 574.799 55.099 574.648 54.5781C574.497 54.0521 574.422 53.4818 574.422 52.8672ZM576.305 52.7031V52.8672C576.305 53.2526 576.339 53.612 576.406 53.9453C576.479 54.2786 576.591 54.5729 576.742 54.8281C576.893 55.0781 577.089 55.276 577.328 55.4219C577.573 55.5625 577.865 55.6328 578.203 55.6328C578.63 55.6328 578.982 55.5391 579.258 55.3516C579.534 55.1641 579.75 54.9115 579.906 54.5938C580.068 54.2708 580.177 53.9115 580.234 53.5156V52.1016C580.203 51.7943 580.138 51.5078 580.039 51.2422C579.945 50.9766 579.818 50.7448 579.656 50.5469C579.495 50.3438 579.294 50.1875 579.055 50.0781C578.82 49.9635 578.542 49.9062 578.219 49.9062C577.875 49.9062 577.583 49.9792 577.344 50.125C577.104 50.2708 576.906 50.4714 576.75 50.7266C576.599 50.9818 576.487 51.2786 576.414 51.6172C576.341 51.9557 576.305 52.3177 576.305 52.7031Z" fill="#1A1A1A"/>
<path d="M775.586 47.1406L772.188 57H770.133L774.414 45.625H775.727L775.586 47.1406ZM778.43 57L775.023 47.1406L774.875 45.625H776.195L780.492 57H778.43ZM778.266 52.7812V54.3359H772.078V52.7812H778.266ZM785.031 55.6562C785.339 55.6562 785.615 55.5964 785.859 55.4766C786.109 55.3516 786.31 55.1797 786.461 54.9609C786.617 54.7422 786.703 54.4896 786.719 54.2031H788.492C788.482 54.75 788.32 55.2474 788.008 55.6953C787.695 56.1432 787.281 56.5 786.766 56.7656C786.25 57.026 785.68 57.1562 785.055 57.1562C784.409 57.1562 783.846 57.0469 783.367 56.8281C782.888 56.6042 782.49 56.2969 782.172 55.9062C781.854 55.5156 781.615 55.0651 781.453 54.5547C781.297 54.0443 781.219 53.4974 781.219 52.9141V52.6406C781.219 52.0573 781.297 51.5104 781.453 51C781.615 50.4844 781.854 50.0312 782.172 49.6406C782.49 49.25 782.888 48.9453 783.367 48.7266C783.846 48.5026 784.406 48.3906 785.047 48.3906C785.724 48.3906 786.318 48.526 786.828 48.7969C787.339 49.0625 787.74 49.4349 788.031 49.9141C788.328 50.388 788.482 50.9401 788.492 51.5703H786.719C786.703 51.2578 786.625 50.9766 786.484 50.7266C786.349 50.4714 786.156 50.2682 785.906 50.1172C785.661 49.9661 785.367 49.8906 785.023 49.8906C784.643 49.8906 784.328 49.9688 784.078 50.125C783.828 50.276 783.633 50.4844 783.492 50.75C783.352 51.0104 783.25 51.3047 783.188 51.6328C783.13 51.9557 783.102 52.2917 783.102 52.6406V52.9141C783.102 53.263 783.13 53.6016 783.188 53.9297C783.245 54.2578 783.344 54.5521 783.484 54.8125C783.63 55.0677 783.828 55.2734 784.078 55.4297C784.328 55.5807 784.646 55.6562 785.031 55.6562ZM793.812 48.5469V49.9219H789.047V48.5469H793.812ZM790.422 46.4766H792.305V54.6641C792.305 54.9245 792.341 55.125 792.414 55.2656C792.492 55.401 792.599 55.4922 792.734 55.5391C792.87 55.5859 793.029 55.6094 793.211 55.6094C793.341 55.6094 793.466 55.6016 793.586 55.5859C793.706 55.5703 793.802 55.5547 793.875 55.5391L793.883 56.9766C793.727 57.0234 793.544 57.0651 793.336 57.1016C793.133 57.138 792.898 57.1562 792.633 57.1562C792.201 57.1562 791.818 57.0807 791.484 56.9297C791.151 56.7734 790.891 56.5208 790.703 56.1719C790.516 55.8229 790.422 55.3594 790.422 54.7812V46.4766ZM797.281 48.5469V57H795.391V48.5469H797.281ZM795.266 46.3281C795.266 46.0417 795.359 45.8047 795.547 45.6172C795.74 45.4245 796.005 45.3281 796.344 45.3281C796.677 45.3281 796.94 45.4245 797.133 45.6172C797.326 45.8047 797.422 46.0417 797.422 46.3281C797.422 46.6094 797.326 46.8438 797.133 47.0312C796.94 47.2188 796.677 47.3125 796.344 47.3125C796.005 47.3125 795.74 47.2188 795.547 47.0312C795.359 46.8438 795.266 46.6094 795.266 46.3281ZM802.094 55.5078L804.164 48.5469H806.117L803.18 57H801.961L802.094 55.5078ZM800.508 48.5469L802.617 55.5391L802.719 57H801.5L798.547 48.5469H800.508ZM810.898 57.1562C810.273 57.1562 809.708 57.0547 809.203 56.8516C808.703 56.6432 808.276 56.3542 807.922 55.9844C807.573 55.6146 807.305 55.1797 807.117 54.6797C806.93 54.1797 806.836 53.6406 806.836 53.0625V52.75C806.836 52.0885 806.932 51.4896 807.125 50.9531C807.318 50.4167 807.586 49.9583 807.93 49.5781C808.273 49.1927 808.68 48.8984 809.148 48.6953C809.617 48.4922 810.125 48.3906 810.672 48.3906C811.276 48.3906 811.805 48.4922 812.258 48.6953C812.711 48.8984 813.086 49.1849 813.383 49.5547C813.685 49.9193 813.909 50.3542 814.055 50.8594C814.206 51.3646 814.281 51.9219 814.281 52.5312V53.3359H807.75V51.9844H812.422V51.8359C812.411 51.4974 812.344 51.1797 812.219 50.8828C812.099 50.5859 811.914 50.3464 811.664 50.1641C811.414 49.9818 811.081 49.8906 810.664 49.8906C810.352 49.8906 810.073 49.9583 809.828 50.0938C809.589 50.224 809.388 50.4141 809.227 50.6641C809.065 50.9141 808.94 51.2161 808.852 51.5703C808.768 51.9193 808.727 52.3125 808.727 52.75V53.0625C808.727 53.4323 808.776 53.776 808.875 54.0938C808.979 54.4062 809.13 54.6797 809.328 54.9141C809.526 55.1484 809.766 55.3333 810.047 55.4688C810.328 55.599 810.648 55.6641 811.008 55.6641C811.461 55.6641 811.865 55.5729 812.219 55.3906C812.573 55.2083 812.88 54.9505 813.141 54.6172L814.133 55.5781C813.951 55.8438 813.714 56.099 813.422 56.3438C813.13 56.5833 812.773 56.7786 812.352 56.9297C811.935 57.0807 811.451 57.1562 810.898 57.1562Z" fill="#1A1A1A"/>
<path d="M1029.46 57H1027.03L1027.05 55.4453H1029.46C1030.16 55.4453 1030.75 55.2917 1031.23 54.9844C1031.71 54.6771 1032.07 54.237 1032.3 53.6641C1032.55 53.0911 1032.67 52.4089 1032.67 51.6172V51C1032.67 50.3854 1032.6 49.8411 1032.46 49.3672C1032.33 48.8932 1032.12 48.4948 1031.85 48.1719C1031.59 47.849 1031.26 47.6042 1030.87 47.4375C1030.48 47.2708 1030.04 47.1875 1029.53 47.1875H1026.98V45.625H1029.53C1030.29 45.625 1030.98 45.7526 1031.6 46.0078C1032.23 46.2578 1032.77 46.6198 1033.22 47.0938C1033.68 47.5677 1034.03 48.1354 1034.27 48.7969C1034.52 49.4583 1034.64 50.1979 1034.64 51.0156V51.6172C1034.64 52.4349 1034.52 53.1745 1034.27 53.8359C1034.03 54.4974 1033.68 55.0651 1033.22 55.5391C1032.76 56.0078 1032.21 56.3698 1031.58 56.625C1030.95 56.875 1030.24 57 1029.46 57ZM1028.12 45.625V57H1026.16V45.625H1028.12ZM1038.44 48.5469V57H1036.55V48.5469H1038.44ZM1036.42 46.3281C1036.42 46.0417 1036.52 45.8047 1036.7 45.6172C1036.9 45.4245 1037.16 45.3281 1037.5 45.3281C1037.83 45.3281 1038.1 45.4245 1038.29 45.6172C1038.48 45.8047 1038.58 46.0417 1038.58 46.3281C1038.58 46.6094 1038.48 46.8438 1038.29 47.0312C1038.1 47.2188 1037.83 47.3125 1037.5 47.3125C1037.16 47.3125 1036.9 47.2188 1036.7 47.0312C1036.52 46.8438 1036.42 46.6094 1036.42 46.3281ZM1045.24 54.7109C1045.24 54.5234 1045.2 54.3542 1045.1 54.2031C1045.01 54.0469 1044.83 53.9062 1044.56 53.7812C1044.3 53.6562 1043.92 53.5417 1043.41 53.4375C1042.96 53.3385 1042.55 53.2214 1042.17 53.0859C1041.8 52.9453 1041.48 52.776 1041.22 52.5781C1040.95 52.3802 1040.75 52.1458 1040.6 51.875C1040.46 51.6042 1040.38 51.2917 1040.38 50.9375C1040.38 50.5938 1040.46 50.2682 1040.61 49.9609C1040.76 49.6536 1040.98 49.3828 1041.26 49.1484C1041.54 48.9141 1041.88 48.7292 1042.28 48.5938C1042.69 48.4583 1043.14 48.3906 1043.64 48.3906C1044.35 48.3906 1044.96 48.5104 1045.46 48.75C1045.97 48.9844 1046.36 49.3047 1046.63 49.7109C1046.9 50.112 1047.04 50.5651 1047.04 51.0703H1045.16C1045.16 50.8464 1045.1 50.638 1044.98 50.4453C1044.88 50.2474 1044.71 50.0885 1044.48 49.9688C1044.26 49.8438 1043.98 49.7812 1043.64 49.7812C1043.32 49.7812 1043.05 49.8333 1042.84 49.9375C1042.63 50.0365 1042.47 50.1667 1042.37 50.3281C1042.27 50.4896 1042.22 50.6667 1042.22 50.8594C1042.22 51 1042.24 51.1276 1042.3 51.2422C1042.35 51.3516 1042.45 51.4531 1042.58 51.5469C1042.71 51.6354 1042.89 51.7188 1043.11 51.7969C1043.34 51.875 1043.62 51.9505 1043.97 52.0234C1044.61 52.1589 1045.17 52.3333 1045.63 52.5469C1046.1 52.7552 1046.46 53.026 1046.71 53.3594C1046.96 53.6875 1047.09 54.1042 1047.09 54.6094C1047.09 54.9844 1047.01 55.3281 1046.84 55.6406C1046.69 55.9479 1046.46 56.2161 1046.16 56.4453C1045.85 56.6693 1045.49 56.8438 1045.07 56.9688C1044.65 57.0938 1044.18 57.1562 1043.66 57.1562C1042.9 57.1562 1042.25 57.0208 1041.72 56.75C1041.19 56.474 1040.78 56.1224 1040.51 55.6953C1040.24 55.263 1040.1 54.8151 1040.1 54.3516H1041.92C1041.94 54.7005 1042.04 54.9792 1042.21 55.1875C1042.39 55.3906 1042.61 55.5391 1042.87 55.6328C1043.13 55.7214 1043.41 55.7656 1043.69 55.7656C1044.03 55.7656 1044.31 55.7214 1044.54 55.6328C1044.77 55.5391 1044.94 55.4141 1045.06 55.2578C1045.18 55.0964 1045.24 54.9141 1045.24 54.7109ZM1053.5 55.3047V51.2734C1053.5 50.9714 1053.45 50.7109 1053.34 50.4922C1053.23 50.2734 1053.06 50.1042 1052.84 49.9844C1052.62 49.8646 1052.34 49.8047 1052.01 49.8047C1051.7 49.8047 1051.43 49.8568 1051.21 49.9609C1050.99 50.0651 1050.81 50.2057 1050.69 50.3828C1050.56 50.5599 1050.5 50.7604 1050.5 50.9844H1048.62C1048.62 50.651 1048.71 50.3281 1048.87 50.0156C1049.03 49.7031 1049.26 49.4245 1049.57 49.1797C1049.88 48.9349 1050.24 48.7422 1050.67 48.6016C1051.1 48.4609 1051.58 48.3906 1052.11 48.3906C1052.74 48.3906 1053.31 48.4974 1053.8 48.7109C1054.29 48.9245 1054.68 49.2474 1054.96 49.6797C1055.25 50.1068 1055.39 50.6432 1055.39 51.2891V55.0469C1055.39 55.4323 1055.42 55.7786 1055.47 56.0859C1055.53 56.388 1055.61 56.651 1055.71 56.875V57H1053.78C1053.69 56.7969 1053.62 56.5391 1053.57 56.2266C1053.52 55.9089 1053.5 55.6016 1053.5 55.3047ZM1053.77 51.8594L1053.79 53.0234H1052.44C1052.09 53.0234 1051.78 53.0573 1051.52 53.125C1051.25 53.1875 1051.03 53.2812 1050.85 53.4062C1050.67 53.5312 1050.54 53.6823 1050.45 53.8594C1050.36 54.0365 1050.32 54.237 1050.32 54.4609C1050.32 54.6849 1050.37 54.8906 1050.48 55.0781C1050.58 55.2604 1050.73 55.4036 1050.93 55.5078C1051.13 55.612 1051.38 55.6641 1051.66 55.6641C1052.05 55.6641 1052.39 55.5859 1052.67 55.4297C1052.96 55.2682 1053.19 55.0729 1053.36 54.8438C1053.53 54.6094 1053.61 54.388 1053.62 54.1797L1054.23 55.0156C1054.17 55.2292 1054.07 55.4583 1053.91 55.7031C1053.76 55.9479 1053.57 56.1823 1053.32 56.4062C1053.08 56.625 1052.79 56.8047 1052.45 56.9453C1052.12 57.0859 1051.73 57.1562 1051.3 57.1562C1050.74 57.1562 1050.25 57.0469 1049.82 56.8281C1049.39 56.6042 1049.05 56.3047 1048.8 55.9297C1048.56 55.5495 1048.44 55.1198 1048.44 54.6406C1048.44 54.1927 1048.52 53.7969 1048.69 53.4531C1048.86 53.1042 1049.11 52.8125 1049.44 52.5781C1049.77 52.3438 1050.18 52.1667 1050.66 52.0469C1051.14 51.9219 1051.68 51.8594 1052.3 51.8594H1053.77ZM1057.37 45H1059.25V55.1953L1059.07 57H1057.37V45ZM1064.77 52.6953V52.8594C1064.77 53.4844 1064.7 54.0599 1064.55 54.5859C1064.42 55.1068 1064.21 55.5599 1063.93 55.9453C1063.65 56.3307 1063.31 56.6302 1062.9 56.8438C1062.49 57.0521 1062.02 57.1562 1061.48 57.1562C1060.96 57.1562 1060.5 57.0573 1060.11 56.8594C1059.72 56.6615 1059.39 56.3802 1059.12 56.0156C1058.86 55.651 1058.65 55.2161 1058.49 54.7109C1058.33 54.2057 1058.22 53.6484 1058.15 53.0391V52.5156C1058.22 51.901 1058.33 51.3438 1058.49 50.8438C1058.65 50.3385 1058.86 49.9036 1059.12 49.5391C1059.39 49.1693 1059.72 48.8854 1060.1 48.6875C1060.49 48.4896 1060.95 48.3906 1061.47 48.3906C1062.01 48.3906 1062.49 48.4948 1062.9 48.7031C1063.32 48.9115 1063.66 49.2083 1063.94 49.5938C1064.21 49.974 1064.42 50.4271 1064.55 50.9531C1064.7 51.4792 1064.77 52.0599 1064.77 52.6953ZM1062.88 52.8594V52.6953C1062.88 52.3151 1062.85 51.9583 1062.79 51.625C1062.73 51.2865 1062.62 50.9896 1062.48 50.7344C1062.34 50.4792 1062.14 50.2786 1061.9 50.1328C1061.66 49.9818 1061.36 49.9062 1061 49.9062C1060.67 49.9062 1060.38 49.9635 1060.14 50.0781C1059.9 50.1927 1059.7 50.349 1059.54 50.5469C1059.38 50.7448 1059.25 50.974 1059.16 51.2344C1059.07 51.4948 1059.01 51.776 1058.98 52.0781V53.4922C1059.02 53.8828 1059.12 54.2422 1059.27 54.5703C1059.43 54.8932 1059.65 55.1536 1059.93 55.3516C1060.21 55.5443 1060.57 55.6406 1061.02 55.6406C1061.36 55.6406 1061.66 55.5703 1061.9 55.4297C1062.14 55.2891 1062.33 55.0938 1062.47 54.8438C1062.61 54.5885 1062.72 54.2917 1062.78 53.9531C1062.85 53.6146 1062.88 53.25 1062.88 52.8594ZM1068.38 45V57H1066.48V45H1068.38ZM1074.16 57.1562C1073.54 57.1562 1072.97 57.0547 1072.47 56.8516C1071.97 56.6432 1071.54 56.3542 1071.19 55.9844C1070.84 55.6146 1070.57 55.1797 1070.38 54.6797C1070.2 54.1797 1070.1 53.6406 1070.1 53.0625V52.75C1070.1 52.0885 1070.2 51.4896 1070.39 50.9531C1070.58 50.4167 1070.85 49.9583 1071.2 49.5781C1071.54 49.1927 1071.95 48.8984 1072.41 48.6953C1072.88 48.4922 1073.39 48.3906 1073.94 48.3906C1074.54 48.3906 1075.07 48.4922 1075.52 48.6953C1075.98 48.8984 1076.35 49.1849 1076.65 49.5547C1076.95 49.9193 1077.17 50.3542 1077.32 50.8594C1077.47 51.3646 1077.55 51.9219 1077.55 52.5312V53.3359H1071.02V51.9844H1075.69V51.8359C1075.68 51.4974 1075.61 51.1797 1075.48 50.8828C1075.36 50.5859 1075.18 50.3464 1074.93 50.1641C1074.68 49.9818 1074.35 49.8906 1073.93 49.8906C1073.62 49.8906 1073.34 49.9583 1073.09 50.0938C1072.85 50.224 1072.65 50.4141 1072.49 50.6641C1072.33 50.9141 1072.21 51.2161 1072.12 51.5703C1072.03 51.9193 1071.99 52.3125 1071.99 52.75V53.0625C1071.99 53.4323 1072.04 53.776 1072.14 54.0938C1072.24 54.4062 1072.4 54.6797 1072.59 54.9141C1072.79 55.1484 1073.03 55.3333 1073.31 55.4688C1073.59 55.599 1073.91 55.6641 1074.27 55.6641C1074.73 55.6641 1075.13 55.5729 1075.48 55.3906C1075.84 55.2083 1076.15 54.9505 1076.41 54.6172L1077.4 55.5781C1077.22 55.8438 1076.98 56.099 1076.69 56.3438C1076.4 56.5833 1076.04 56.7786 1075.62 56.9297C1075.2 57.0807 1074.72 57.1562 1074.16 57.1562ZM1084.17 55.25V45H1086.06V57H1084.35L1084.17 55.25ZM1078.67 52.8672V52.7031C1078.67 52.0625 1078.75 51.4792 1078.9 50.9531C1079.05 50.4219 1079.27 49.9661 1079.55 49.5859C1079.84 49.2005 1080.19 48.9062 1080.6 48.7031C1081.01 48.4948 1081.48 48.3906 1081.99 48.3906C1082.5 48.3906 1082.95 48.4896 1083.34 48.6875C1083.72 48.8854 1084.05 49.1693 1084.32 49.5391C1084.59 49.9036 1084.81 50.3411 1084.97 50.8516C1085.13 51.3568 1085.24 51.9193 1085.31 52.5391V53.0625C1085.24 53.6667 1085.13 54.2188 1084.97 54.7188C1084.81 55.2188 1084.59 55.651 1084.32 56.0156C1084.05 56.3802 1083.72 56.6615 1083.33 56.8594C1082.94 57.0573 1082.49 57.1562 1081.98 57.1562C1081.47 57.1562 1081.01 57.0495 1080.59 56.8359C1080.19 56.6224 1079.84 56.3229 1079.55 55.9375C1079.27 55.5521 1079.05 55.099 1078.9 54.5781C1078.75 54.0521 1078.67 53.4818 1078.67 52.8672ZM1080.55 52.7031V52.8672C1080.55 53.2526 1080.59 53.612 1080.66 53.9453C1080.73 54.2786 1080.84 54.5729 1080.99 54.8281C1081.14 55.0781 1081.34 55.276 1081.58 55.4219C1081.82 55.5625 1082.11 55.6328 1082.45 55.6328C1082.88 55.6328 1083.23 55.5391 1083.51 55.3516C1083.78 55.1641 1084 54.9115 1084.16 54.5938C1084.32 54.2708 1084.43 53.9115 1084.48 53.5156V52.1016C1084.45 51.7943 1084.39 51.5078 1084.29 51.2422C1084.2 50.9766 1084.07 50.7448 1083.91 50.5469C1083.74 50.3438 1083.54 50.1875 1083.3 50.0781C1083.07 49.9635 1082.79 49.9062 1082.47 49.9062C1082.12 49.9062 1081.83 49.9792 1081.59 50.125C1081.35 50.2708 1081.16 50.4714 1081 50.7266C1080.85 50.9818 1080.74 51.2786 1080.66 51.6172C1080.59 51.9557 1080.55 52.3177 1080.55 52.7031Z" fill="#1A1A1A"/>
<defs>
<filter id="filter0_d_6397_69982" x="528" y="86" width="223.2" height="44" filterUnits="userSpaceOnUse" color-interpolation-filters="sRGB">
<feFlood flood-opacity="0" result="BackgroundImageFix"/>
<feColorMatrix in="SourceAlpha" type="matrix" values="0 0 0 0 0 0 0 0 0 0 0 0 0 0 0 0 0 0 127 0" result="hardAlpha"/>
<feMorphology radius="2" operator="dilate" in="SourceAlpha" result="effect1_dropShadow_6397_69982"/>
<feOffset/>
<feComposite in2="hardAlpha" operator="out"/>
<feColorMatrix type="matrix" values="0 0 0 0 0.101961 0 0 0 0 0.101961 0 0 0 0 0.101961 0 0 0 1 0"/>
<feBlend mode="normal" in2="BackgroundImageFix" result="effect1_dropShadow_6397_69982"/>
<feBlend mode="normal" in="SourceGraphic" in2="effect1_dropShadow_6397_69982" result="shape"/>
</filter>
</defs>
</svg>
