<svg width="800" height="114" viewBox="0 0 800 114" fill="none" xmlns="http://www.w3.org/2000/svg">
<g clip-path="url(#clip0_9708_4919)">
<rect width="800" height="114" fill="white"/>
<mask id="path-1-inside-1_9708_4919" fill="white">
<path d="M0 0H800V56H0V0Z"/>
</mask>
<path d="M0 0H800V56H0V0Z" fill="#F8F8F8"/>
<path d="M36.1821 33H33.9043L33.9189 31.5425H36.1821C36.8413 31.5425 37.3931 31.3984 37.8374 31.1104C38.2866 30.8223 38.6235 30.4097 38.8481 29.8726C39.0776 29.3354 39.1924 28.6958 39.1924 27.9536V27.375C39.1924 26.7988 39.1265 26.2886 38.9946 25.8442C38.8677 25.3999 38.6772 25.0264 38.4233 24.7236C38.1743 24.4209 37.8667 24.1914 37.5005 24.0352C37.1392 23.8789 36.7217 23.8008 36.248 23.8008H33.8604V22.3359H36.248C36.9561 22.3359 37.603 22.4556 38.189 22.6948C38.7749 22.9292 39.2803 23.2686 39.7051 23.7129C40.1348 24.1572 40.4644 24.6895 40.6938 25.3096C40.9233 25.9297 41.0381 26.623 41.0381 27.3896V27.9536C41.0381 28.7202 40.9233 29.4136 40.6938 30.0337C40.4644 30.6538 40.1348 31.186 39.7051 31.6304C39.2754 32.0698 38.7627 32.4092 38.167 32.6484C37.5762 32.8828 36.9146 33 36.1821 33ZM34.9224 22.3359V33H33.084V22.3359H34.9224ZM46.2017 33.1465C45.6157 33.1465 45.0859 33.0513 44.6123 32.8608C44.1436 32.6655 43.7432 32.3945 43.4111 32.0479C43.084 31.7012 42.8325 31.2935 42.6567 30.8247C42.481 30.356 42.3931 29.8506 42.3931 29.3086V29.0156C42.3931 28.3955 42.4834 27.834 42.6641 27.3311C42.8447 26.8281 43.0962 26.3984 43.4185 26.042C43.7407 25.6807 44.1216 25.4048 44.561 25.2144C45.0005 25.0239 45.4766 24.9287 45.9893 24.9287C46.5557 24.9287 47.0513 25.0239 47.4761 25.2144C47.9009 25.4048 48.2524 25.6733 48.5308 26.02C48.814 26.3618 49.0239 26.7695 49.1606 27.2432C49.3022 27.7168 49.373 28.2393 49.373 28.8105V29.5649H43.25V28.2979H47.6299V28.1587C47.6201 27.8413 47.5566 27.5435 47.4395 27.2651C47.3271 26.9868 47.1538 26.7622 46.9194 26.5913C46.6851 26.4204 46.3726 26.335 45.9819 26.335C45.689 26.335 45.4277 26.3984 45.1982 26.5254C44.9736 26.6475 44.7856 26.8257 44.6343 27.0601C44.4829 27.2944 44.3657 27.5776 44.2827 27.9097C44.2046 28.2368 44.1655 28.6055 44.1655 29.0156V29.3086C44.1655 29.6553 44.2119 29.9775 44.3047 30.2754C44.4023 30.5684 44.5439 30.8247 44.7295 31.0444C44.915 31.2642 45.1396 31.4375 45.4033 31.5645C45.667 31.6865 45.9673 31.7476 46.3042 31.7476C46.729 31.7476 47.1074 31.6621 47.4395 31.4912C47.7715 31.3203 48.0596 31.0786 48.3037 30.7661L49.2339 31.667C49.063 31.916 48.8408 32.1553 48.5674 32.3848C48.2939 32.6094 47.9595 32.7925 47.564 32.9341C47.1733 33.0757 46.7192 33.1465 46.2017 33.1465ZM53.1377 33H51.3726V24.3135C51.3726 23.7227 51.4824 23.2271 51.7021 22.8267C51.9268 22.4214 52.2466 22.1162 52.6616 21.9111C53.0767 21.7012 53.5674 21.5962 54.1338 21.5962C54.3096 21.5962 54.4829 21.6084 54.6538 21.6328C54.8247 21.6523 54.9907 21.6841 55.1519 21.728L55.1079 23.0903C55.0103 23.0659 54.9028 23.0488 54.7856 23.0391C54.6733 23.0293 54.5513 23.0244 54.4194 23.0244C54.1509 23.0244 53.9189 23.0757 53.7236 23.1782C53.5332 23.2759 53.3867 23.4199 53.2842 23.6104C53.1865 23.8008 53.1377 24.0352 53.1377 24.3135V33ZM54.771 25.0752V26.3643H50.1567V25.0752H54.771ZM60.5205 31.4106V27.6313C60.5205 27.3481 60.4692 27.104 60.3667 26.8989C60.2642 26.6938 60.1079 26.5352 59.8979 26.4229C59.6929 26.3105 59.4341 26.2544 59.1216 26.2544C58.8335 26.2544 58.5845 26.3032 58.3745 26.4009C58.1646 26.4985 58.001 26.6304 57.8838 26.7964C57.7666 26.9624 57.708 27.1504 57.708 27.3604H55.9502C55.9502 27.0479 56.0259 26.7451 56.1772 26.4521C56.3286 26.1592 56.5483 25.8979 56.8364 25.6685C57.1245 25.439 57.4688 25.2583 57.8691 25.1265C58.2695 24.9946 58.7188 24.9287 59.2168 24.9287C59.8125 24.9287 60.3398 25.0288 60.7988 25.229C61.2627 25.4292 61.6265 25.7319 61.8901 26.1372C62.1587 26.5376 62.293 27.0405 62.293 27.646V31.1689C62.293 31.5303 62.3174 31.855 62.3662 32.1431C62.4199 32.4263 62.4956 32.6729 62.5933 32.8828V33H60.7842C60.7012 32.8096 60.6353 32.5679 60.5864 32.2749C60.5425 31.9771 60.5205 31.689 60.5205 31.4106ZM60.7769 28.1807L60.7915 29.272H59.5244C59.1973 29.272 58.9092 29.3037 58.6602 29.3672C58.4111 29.4258 58.2036 29.5137 58.0376 29.6309C57.8716 29.748 57.7471 29.8896 57.6641 30.0557C57.5811 30.2217 57.5396 30.4097 57.5396 30.6196C57.5396 30.8296 57.5884 31.0225 57.686 31.1982C57.7837 31.3691 57.9253 31.5034 58.1108 31.6011C58.3013 31.6987 58.5308 31.7476 58.7993 31.7476C59.1606 31.7476 59.4756 31.6743 59.7441 31.5278C60.0176 31.3765 60.2324 31.1934 60.3887 30.9785C60.5449 30.7588 60.6279 30.5513 60.6377 30.356L61.209 31.1396C61.1504 31.3398 61.0503 31.5547 60.9087 31.7842C60.7671 32.0137 60.5815 32.2334 60.3521 32.4434C60.1274 32.6484 59.8564 32.8169 59.5391 32.9487C59.2266 33.0806 58.8652 33.1465 58.4551 33.1465C57.9375 33.1465 57.4761 33.0439 57.0708 32.8389C56.6655 32.6289 56.3481 32.3481 56.1187 31.9966C55.8892 31.6401 55.7744 31.2373 55.7744 30.7881C55.7744 30.3682 55.8525 29.9971 56.0088 29.6748C56.1699 29.3477 56.4043 29.0742 56.7119 28.8545C57.0244 28.6348 57.4053 28.4688 57.8545 28.3564C58.3037 28.2393 58.8164 28.1807 59.3926 28.1807H60.7769ZM68.9067 31.1323V25.0752H70.6792V33H69.0093L68.9067 31.1323ZM69.1558 29.4844L69.749 29.4697C69.749 30.002 69.6904 30.4927 69.5732 30.9419C69.4561 31.3862 69.2754 31.7744 69.0312 32.1064C68.7871 32.4336 68.4746 32.6899 68.0938 32.8755C67.7129 33.0562 67.2563 33.1465 66.7241 33.1465C66.3384 33.1465 65.9844 33.0903 65.6621 32.978C65.3398 32.8657 65.0615 32.6924 64.8271 32.458C64.5977 32.2236 64.4194 31.9185 64.2925 31.5425C64.1655 31.1665 64.1021 30.7173 64.1021 30.1948V25.0752H65.8672V30.2095C65.8672 30.4976 65.9014 30.7393 65.9697 30.9346C66.0381 31.125 66.1309 31.2788 66.248 31.396C66.3652 31.5132 66.502 31.5962 66.6582 31.645C66.8145 31.6938 66.9805 31.7183 67.1562 31.7183C67.6592 31.7183 68.0547 31.6206 68.3428 31.4253C68.6357 31.2251 68.8433 30.9565 68.9653 30.6196C69.0923 30.2827 69.1558 29.9043 69.1558 29.4844ZM74.3779 21.75V33H72.6055V21.75H74.3779ZM79.9443 25.0752V26.3643H75.4766V25.0752H79.9443ZM76.7656 23.1343H78.5308V30.8101C78.5308 31.0542 78.5649 31.2422 78.6333 31.374C78.7065 31.501 78.8066 31.5864 78.9336 31.6304C79.0605 31.6743 79.2095 31.6963 79.3804 31.6963C79.5024 31.6963 79.6196 31.689 79.7319 31.6743C79.8442 31.6597 79.9346 31.645 80.0029 31.6304L80.0103 32.978C79.8638 33.022 79.6929 33.061 79.4976 33.0952C79.3071 33.1294 79.0874 33.1465 78.8384 33.1465C78.4331 33.1465 78.0742 33.0757 77.7617 32.9341C77.4492 32.7876 77.2051 32.5508 77.0293 32.2236C76.8535 31.8965 76.7656 31.4619 76.7656 30.9199V23.1343Z" fill="#505050"/>
<path d="M296.13 26.7891V28.2466H290.468V26.7891H296.13ZM290.922 22.3359V33H289.084V22.3359H290.922ZM297.543 22.3359V33H295.712V22.3359H297.543ZM299.221 29.1255V28.957C299.221 28.3857 299.304 27.856 299.47 27.3677C299.636 26.8745 299.875 26.4473 300.188 26.0859C300.505 25.7197 300.891 25.4365 301.345 25.2363C301.804 25.0312 302.321 24.9287 302.897 24.9287C303.479 24.9287 303.996 25.0312 304.45 25.2363C304.909 25.4365 305.297 25.7197 305.615 26.0859C305.932 26.4473 306.174 26.8745 306.34 27.3677C306.506 27.856 306.589 28.3857 306.589 28.957V29.1255C306.589 29.6968 306.506 30.2266 306.34 30.7148C306.174 31.2031 305.932 31.6304 305.615 31.9966C305.297 32.3579 304.912 32.6411 304.458 32.8462C304.003 33.0464 303.488 33.1465 302.912 33.1465C302.331 33.1465 301.811 33.0464 301.352 32.8462C300.898 32.6411 300.512 32.3579 300.195 31.9966C299.877 31.6304 299.636 31.2031 299.47 30.7148C299.304 30.2266 299.221 29.6968 299.221 29.1255ZM300.986 28.957V29.1255C300.986 29.4819 301.022 29.8188 301.096 30.1362C301.169 30.4536 301.284 30.7319 301.44 30.9712C301.596 31.2104 301.796 31.3984 302.041 31.5352C302.285 31.6719 302.575 31.7402 302.912 31.7402C303.239 31.7402 303.522 31.6719 303.762 31.5352C304.006 31.3984 304.206 31.2104 304.362 30.9712C304.519 30.7319 304.633 30.4536 304.707 30.1362C304.785 29.8188 304.824 29.4819 304.824 29.1255V28.957C304.824 28.6055 304.785 28.2734 304.707 27.9609C304.633 27.6436 304.516 27.3628 304.355 27.1187C304.199 26.8745 303.999 26.6841 303.754 26.5474C303.515 26.4058 303.229 26.335 302.897 26.335C302.565 26.335 302.277 26.4058 302.033 26.5474C301.794 26.6841 301.596 26.8745 301.44 27.1187C301.284 27.3628 301.169 27.6436 301.096 27.9609C301.022 28.2734 300.986 28.6055 300.986 28.957ZM310.529 31.6011L312.47 25.0752H314.301L311.547 33H310.405L310.529 31.6011ZM309.042 25.0752L311.02 31.6304L311.115 33H309.973L307.204 25.0752H309.042ZM318.784 33.1465C318.198 33.1465 317.668 33.0513 317.194 32.8608C316.726 32.6655 316.325 32.3945 315.993 32.0479C315.666 31.7012 315.415 31.2935 315.239 30.8247C315.063 30.356 314.975 29.8506 314.975 29.3086V29.0156C314.975 28.3955 315.065 27.834 315.246 27.3311C315.427 26.8281 315.678 26.3984 316 26.042C316.323 25.6807 316.704 25.4048 317.143 25.2144C317.583 25.0239 318.059 24.9287 318.571 24.9287C319.138 24.9287 319.633 25.0239 320.058 25.2144C320.483 25.4048 320.834 25.6733 321.113 26.02C321.396 26.3618 321.606 26.7695 321.743 27.2432C321.884 27.7168 321.955 28.2393 321.955 28.8105V29.5649H315.832V28.2979H320.212V28.1587C320.202 27.8413 320.139 27.5435 320.021 27.2651C319.909 26.9868 319.736 26.7622 319.501 26.5913C319.267 26.4204 318.955 26.335 318.564 26.335C318.271 26.335 318.01 26.3984 317.78 26.5254C317.556 26.6475 317.368 26.8257 317.216 27.0601C317.065 27.2944 316.948 27.5776 316.865 27.9097C316.787 28.2368 316.748 28.6055 316.748 29.0156V29.3086C316.748 29.6553 316.794 29.9775 316.887 30.2754C316.984 30.5684 317.126 30.8247 317.312 31.0444C317.497 31.2642 317.722 31.4375 317.985 31.5645C318.249 31.6865 318.549 31.7476 318.886 31.7476C319.311 31.7476 319.689 31.6621 320.021 31.4912C320.354 31.3203 320.642 31.0786 320.886 30.7661L321.816 31.667C321.645 31.916 321.423 32.1553 321.149 32.3848C320.876 32.6094 320.542 32.7925 320.146 32.9341C319.755 33.0757 319.301 33.1465 318.784 33.1465ZM325.104 26.584V33H323.339V25.0752H325.024L325.104 26.584ZM327.529 25.0239L327.514 26.6646C327.407 26.645 327.29 26.6304 327.163 26.6206C327.041 26.6108 326.918 26.606 326.796 26.606C326.494 26.606 326.228 26.6499 325.998 26.7378C325.769 26.8208 325.576 26.9429 325.419 27.104C325.268 27.2603 325.151 27.4507 325.068 27.6753C324.985 27.8999 324.936 28.1514 324.921 28.4297L324.519 28.459C324.519 27.9609 324.567 27.4995 324.665 27.0747C324.763 26.6499 324.909 26.2764 325.104 25.9541C325.305 25.6318 325.554 25.3804 325.852 25.1997C326.154 25.019 326.503 24.9287 326.899 24.9287C327.006 24.9287 327.121 24.9385 327.243 24.958C327.37 24.9775 327.465 24.9995 327.529 25.0239Z" fill="#505050"/>
<path d="M546.922 22.3359V33H545.084V22.3359H546.922ZM551.273 27.0015V28.459H546.454V27.0015H551.273ZM551.881 22.3359V23.8008H546.454V22.3359H551.881ZM552.672 29.1255V28.957C552.672 28.3857 552.755 27.856 552.921 27.3677C553.087 26.8745 553.326 26.4473 553.639 26.0859C553.956 25.7197 554.342 25.4365 554.796 25.2363C555.255 25.0312 555.772 24.9287 556.349 24.9287C556.93 24.9287 557.447 25.0312 557.901 25.2363C558.36 25.4365 558.749 25.7197 559.066 26.0859C559.383 26.4473 559.625 26.8745 559.791 27.3677C559.957 27.856 560.04 28.3857 560.04 28.957V29.1255C560.04 29.6968 559.957 30.2266 559.791 30.7148C559.625 31.2031 559.383 31.6304 559.066 31.9966C558.749 32.3579 558.363 32.6411 557.909 32.8462C557.455 33.0464 556.939 33.1465 556.363 33.1465C555.782 33.1465 555.262 33.0464 554.803 32.8462C554.349 32.6411 553.963 32.3579 553.646 31.9966C553.329 31.6304 553.087 31.2031 552.921 30.7148C552.755 30.2266 552.672 29.6968 552.672 29.1255ZM554.437 28.957V29.1255C554.437 29.4819 554.474 29.8188 554.547 30.1362C554.62 30.4536 554.735 30.7319 554.891 30.9712C555.047 31.2104 555.248 31.3984 555.492 31.5352C555.736 31.6719 556.026 31.7402 556.363 31.7402C556.69 31.7402 556.974 31.6719 557.213 31.5352C557.457 31.3984 557.657 31.2104 557.813 30.9712C557.97 30.7319 558.084 30.4536 558.158 30.1362C558.236 29.8188 558.275 29.4819 558.275 29.1255V28.957C558.275 28.6055 558.236 28.2734 558.158 27.9609C558.084 27.6436 557.967 27.3628 557.806 27.1187C557.65 26.8745 557.45 26.6841 557.206 26.5474C556.966 26.4058 556.681 26.335 556.349 26.335C556.017 26.335 555.729 26.4058 555.484 26.5474C555.245 26.6841 555.047 26.8745 554.891 27.1187C554.735 27.3628 554.62 27.6436 554.547 27.9609C554.474 28.2734 554.437 28.6055 554.437 28.957ZM564.757 31.7402C565.045 31.7402 565.304 31.6841 565.533 31.5718C565.768 31.4546 565.956 31.2935 566.097 31.0884C566.244 30.8833 566.324 30.6465 566.339 30.3779H568.001C567.992 30.8906 567.84 31.3569 567.547 31.7769C567.254 32.1968 566.866 32.5312 566.383 32.7803C565.899 33.0244 565.365 33.1465 564.779 33.1465C564.173 33.1465 563.646 33.0439 563.197 32.8389C562.748 32.6289 562.374 32.3408 562.076 31.9746C561.778 31.6084 561.554 31.186 561.402 30.7075C561.256 30.229 561.183 29.7163 561.183 29.1694V28.9131C561.183 28.3662 561.256 27.8535 561.402 27.375C561.554 26.8916 561.778 26.4668 562.076 26.1006C562.374 25.7344 562.748 25.4487 563.197 25.2437C563.646 25.0337 564.171 24.9287 564.771 24.9287C565.406 24.9287 565.963 25.0557 566.441 25.3096C566.92 25.5586 567.296 25.9077 567.569 26.3569C567.848 26.8013 567.992 27.3188 568.001 27.9097H566.339C566.324 27.6167 566.251 27.353 566.119 27.1187C565.992 26.8794 565.812 26.689 565.577 26.5474C565.348 26.4058 565.072 26.335 564.75 26.335C564.393 26.335 564.098 26.4082 563.863 26.5547C563.629 26.6963 563.446 26.8916 563.314 27.1406C563.182 27.3848 563.087 27.6606 563.028 27.9683C562.975 28.271 562.948 28.5859 562.948 28.9131V29.1694C562.948 29.4966 562.975 29.814 563.028 30.1216C563.082 30.4292 563.175 30.7051 563.307 30.9492C563.443 31.1885 563.629 31.3813 563.863 31.5278C564.098 31.6694 564.396 31.7402 564.757 31.7402ZM574.125 31.1323V25.0752H575.897V33H574.227L574.125 31.1323ZM574.374 29.4844L574.967 29.4697C574.967 30.002 574.908 30.4927 574.791 30.9419C574.674 31.3862 574.493 31.7744 574.249 32.1064C574.005 32.4336 573.692 32.6899 573.312 32.8755C572.931 33.0562 572.474 33.1465 571.942 33.1465C571.556 33.1465 571.202 33.0903 570.88 32.978C570.558 32.8657 570.279 32.6924 570.045 32.458C569.815 32.2236 569.637 31.9185 569.51 31.5425C569.383 31.1665 569.32 30.7173 569.32 30.1948V25.0752H571.085V30.2095C571.085 30.4976 571.119 30.7393 571.188 30.9346C571.256 31.125 571.349 31.2788 571.466 31.396C571.583 31.5132 571.72 31.5962 571.876 31.645C572.032 31.6938 572.198 31.7183 572.374 31.7183C572.877 31.7183 573.272 31.6206 573.561 31.4253C573.854 31.2251 574.061 30.9565 574.183 30.6196C574.31 30.2827 574.374 29.9043 574.374 29.4844ZM582.152 30.854C582.152 30.6782 582.108 30.5195 582.02 30.3779C581.932 30.2314 581.764 30.0996 581.515 29.9824C581.271 29.8652 580.909 29.7578 580.431 29.6602C580.011 29.5674 579.625 29.4575 579.273 29.3306C578.927 29.1987 578.629 29.04 578.38 28.8545C578.131 28.6689 577.938 28.4492 577.801 28.1953C577.665 27.9414 577.596 27.6484 577.596 27.3164C577.596 26.9941 577.667 26.689 577.809 26.4009C577.95 26.1128 578.153 25.8589 578.417 25.6392C578.68 25.4194 579 25.2461 579.376 25.1191C579.757 24.9922 580.182 24.9287 580.65 24.9287C581.314 24.9287 581.883 25.041 582.357 25.2656C582.835 25.4854 583.202 25.7856 583.456 26.1665C583.709 26.5425 583.836 26.9673 583.836 27.4409H582.071C582.071 27.231 582.018 27.0356 581.91 26.855C581.808 26.6694 581.651 26.5205 581.441 26.4082C581.231 26.291 580.968 26.2324 580.65 26.2324C580.348 26.2324 580.096 26.2812 579.896 26.3789C579.701 26.4717 579.554 26.5938 579.457 26.7451C579.364 26.8965 579.317 27.0625 579.317 27.2432C579.317 27.375 579.342 27.4946 579.391 27.6021C579.444 27.7046 579.532 27.7998 579.654 27.8877C579.776 27.9707 579.942 28.0488 580.152 28.1221C580.367 28.1953 580.636 28.2661 580.958 28.3345C581.563 28.4614 582.083 28.625 582.518 28.8252C582.958 29.0205 583.294 29.2744 583.529 29.5869C583.763 29.8945 583.88 30.2852 583.88 30.7588C583.88 31.1104 583.805 31.4326 583.653 31.7256C583.507 32.0137 583.292 32.2651 583.009 32.48C582.726 32.6899 582.386 32.8535 581.991 32.9707C581.6 33.0879 581.161 33.1465 580.672 33.1465C579.955 33.1465 579.347 33.0195 578.849 32.7656C578.351 32.5068 577.972 32.1772 577.713 31.7769C577.459 31.3716 577.333 30.9517 577.333 30.5171H579.039C579.059 30.8442 579.149 31.1055 579.31 31.3008C579.476 31.4912 579.681 31.6304 579.925 31.7183C580.174 31.8013 580.431 31.8428 580.694 31.8428C581.012 31.8428 581.278 31.8013 581.493 31.7183C581.708 31.6304 581.871 31.5132 581.983 31.3667C582.096 31.2153 582.152 31.0444 582.152 30.854Z" fill="#505050"/>
<path d="M800 55H0V57H800V55Z" fill="#E6E6E6" mask="url(#path-1-inside-1_9708_4919)"/>
<path d="M39.7051 87.8501V89H34.373V87.8501H39.7051ZM34.6514 78.3359V89H33.2378V78.3359H34.6514ZM42.5908 81.0752V89H41.2285V81.0752H42.5908ZM41.126 78.9731C41.126 78.7534 41.1919 78.5679 41.3237 78.4165C41.4604 78.2651 41.6606 78.1895 41.9243 78.1895C42.1831 78.1895 42.3809 78.2651 42.5176 78.4165C42.6592 78.5679 42.73 78.7534 42.73 78.9731C42.73 79.1831 42.6592 79.3638 42.5176 79.5151C42.3809 79.6616 42.1831 79.7349 41.9243 79.7349C41.6606 79.7349 41.4604 79.6616 41.3237 79.5151C41.1919 79.3638 41.126 79.1831 41.126 78.9731ZM46.1211 82.7671V89H44.7661V81.0752H46.0479L46.1211 82.7671ZM45.7988 84.7373L45.2349 84.7153C45.2397 84.1733 45.3203 83.6729 45.4766 83.2139C45.6328 82.75 45.8525 82.3472 46.1357 82.0054C46.4189 81.6636 46.7559 81.3999 47.1465 81.2144C47.542 81.0239 47.979 80.9287 48.4575 80.9287C48.8481 80.9287 49.1997 80.9824 49.5122 81.0898C49.8247 81.1924 50.0908 81.3584 50.3105 81.5879C50.5352 81.8174 50.7061 82.1152 50.8232 82.4814C50.9404 82.8428 50.999 83.2847 50.999 83.8071V89H49.6367V83.7925C49.6367 83.3774 49.5757 83.0454 49.4536 82.7964C49.3315 82.5425 49.1533 82.3594 48.9189 82.2471C48.6846 82.1299 48.3965 82.0713 48.0547 82.0713C47.7178 82.0713 47.4102 82.1421 47.1318 82.2837C46.8584 82.4253 46.6216 82.6206 46.4214 82.8696C46.2261 83.1187 46.0723 83.4043 45.96 83.7266C45.8525 84.0439 45.7988 84.3809 45.7988 84.7373ZM54.4194 77.75V89H53.0571V77.75H54.4194ZM59.2607 81.0752L55.8037 84.7739L53.8701 86.7808L53.7603 85.3379L55.1445 83.6826L57.6055 81.0752H59.2607ZM58.0229 89L55.1958 85.2207L55.8989 84.0122L59.6196 89H58.0229ZM69.3755 87.4619V77.75H70.7378V89H69.4927L69.3755 87.4619ZM64.0435 85.1255V84.9717C64.0435 84.3662 64.1167 83.8169 64.2632 83.3237C64.4146 82.8257 64.627 82.3984 64.9004 82.042C65.1787 81.6855 65.5083 81.4121 65.8892 81.2217C66.2749 81.0264 66.7046 80.9287 67.1782 80.9287C67.6763 80.9287 68.1108 81.0166 68.4819 81.1924C68.8579 81.3633 69.1753 81.6147 69.4341 81.9468C69.6978 82.2739 69.9053 82.6694 70.0566 83.1333C70.208 83.5972 70.313 84.1221 70.3716 84.708V85.3818C70.3179 85.9629 70.2129 86.4854 70.0566 86.9492C69.9053 87.4131 69.6978 87.8086 69.4341 88.1357C69.1753 88.4629 68.8579 88.7144 68.4819 88.8901C68.106 89.061 67.6665 89.1465 67.1636 89.1465C66.6997 89.1465 66.2749 89.0464 65.8892 88.8462C65.5083 88.646 65.1787 88.3652 64.9004 88.0039C64.627 87.6426 64.4146 87.2178 64.2632 86.7295C64.1167 86.2363 64.0435 85.7017 64.0435 85.1255ZM65.4058 84.9717V85.1255C65.4058 85.521 65.4448 85.8921 65.5229 86.2388C65.606 86.5854 65.7329 86.8906 65.9038 87.1543C66.0747 87.418 66.292 87.6255 66.5557 87.7769C66.8193 87.9233 67.1343 87.9966 67.5005 87.9966C67.9497 87.9966 68.3184 87.9014 68.6064 87.7109C68.8994 87.5205 69.1338 87.269 69.3096 86.9565C69.4854 86.644 69.6221 86.3047 69.7197 85.9385V84.1733C69.6611 83.9048 69.5757 83.646 69.4634 83.397C69.356 83.1431 69.2144 82.9185 69.0386 82.7231C68.8677 82.5229 68.6553 82.3643 68.4014 82.2471C68.1523 82.1299 67.8569 82.0713 67.5151 82.0713C67.144 82.0713 66.8242 82.1494 66.5557 82.3057C66.292 82.457 66.0747 82.667 65.9038 82.9355C65.7329 83.1992 65.606 83.5068 65.5229 83.8584C65.4448 84.2051 65.4058 84.5762 65.4058 84.9717ZM76.1357 89.1465C75.584 89.1465 75.0835 89.0537 74.6343 88.8682C74.1899 88.6777 73.8066 88.4116 73.4844 88.0698C73.167 87.728 72.9229 87.3228 72.752 86.854C72.5811 86.3853 72.4956 85.8726 72.4956 85.3159V85.0083C72.4956 84.3638 72.5908 83.79 72.7812 83.2871C72.9717 82.7793 73.2305 82.3496 73.5576 81.998C73.8848 81.6465 74.2559 81.3804 74.6709 81.1997C75.0859 81.019 75.5156 80.9287 75.96 80.9287C76.5264 80.9287 77.0146 81.0264 77.4248 81.2217C77.8398 81.417 78.1792 81.6904 78.4429 82.042C78.7065 82.3887 78.9019 82.7988 79.0288 83.2725C79.1558 83.7412 79.2192 84.2539 79.2192 84.8105V85.4185H73.3013V84.3125H77.8643V84.21C77.8447 83.8584 77.7715 83.5166 77.6445 83.1846C77.5225 82.8525 77.3271 82.5791 77.0586 82.3643C76.79 82.1494 76.4238 82.042 75.96 82.042C75.6523 82.042 75.3691 82.1079 75.1104 82.2397C74.8516 82.3667 74.6294 82.5571 74.4438 82.811C74.2583 83.0649 74.1143 83.375 74.0117 83.7412C73.9092 84.1074 73.8579 84.5298 73.8579 85.0083V85.3159C73.8579 85.6919 73.9092 86.0459 74.0117 86.3779C74.1191 86.7051 74.2729 86.9932 74.4731 87.2422C74.6782 87.4912 74.9248 87.6865 75.2129 87.8281C75.5059 87.9697 75.8379 88.0405 76.209 88.0405C76.6875 88.0405 77.0928 87.9429 77.4248 87.7476C77.7568 87.5522 78.0474 87.291 78.2964 86.9639L79.1167 87.6157C78.9458 87.8745 78.7285 88.1211 78.4648 88.3555C78.2012 88.5898 77.8765 88.7803 77.4907 88.9268C77.1099 89.0732 76.6582 89.1465 76.1357 89.1465ZM82.8228 89H81.4678V80.2402C81.4678 79.6689 81.5703 79.188 81.7754 78.7974C81.9854 78.4019 82.2856 78.104 82.6763 77.9038C83.0669 77.6987 83.5308 77.5962 84.0679 77.5962C84.2241 77.5962 84.3804 77.606 84.5366 77.6255C84.6978 77.645 84.854 77.6743 85.0054 77.7134L84.9321 78.8193C84.8296 78.7949 84.7124 78.7778 84.5806 78.7681C84.4536 78.7583 84.3267 78.7534 84.1997 78.7534C83.9116 78.7534 83.6626 78.812 83.4526 78.9292C83.2476 79.0415 83.0913 79.2075 82.9839 79.4272C82.8765 79.647 82.8228 79.918 82.8228 80.2402V89ZM84.5073 81.0752V82.1152H80.2153V81.0752H84.5073ZM90.689 87.645V83.5654C90.689 83.2529 90.6255 82.9819 90.4985 82.7524C90.3765 82.5181 90.1909 82.3374 89.9419 82.2104C89.6929 82.0835 89.3853 82.02 89.019 82.02C88.6772 82.02 88.377 82.0786 88.1182 82.1958C87.8643 82.313 87.6641 82.4668 87.5176 82.6572C87.376 82.8477 87.3052 83.0527 87.3052 83.2725H85.9502C85.9502 82.9893 86.0234 82.7085 86.1699 82.4302C86.3164 82.1519 86.5264 81.9004 86.7998 81.6758C87.0781 81.4463 87.4102 81.2656 87.7959 81.1338C88.1865 80.9971 88.6211 80.9287 89.0996 80.9287C89.6758 80.9287 90.1836 81.0264 90.623 81.2217C91.0674 81.417 91.4141 81.7124 91.6631 82.1079C91.917 82.4985 92.0439 82.9893 92.0439 83.5801V87.2715C92.0439 87.5352 92.0659 87.8159 92.1099 88.1138C92.1587 88.4116 92.2295 88.668 92.3223 88.8828V89H90.9087C90.8403 88.8438 90.7866 88.6362 90.7476 88.3774C90.7085 88.1138 90.689 87.8696 90.689 87.645ZM90.9233 84.1953L90.938 85.1475H89.5684C89.1826 85.1475 88.8384 85.1792 88.5356 85.2427C88.2329 85.3013 87.979 85.3916 87.7739 85.5137C87.5688 85.6357 87.4126 85.7896 87.3052 85.9751C87.1978 86.1558 87.144 86.3682 87.144 86.6123C87.144 86.8613 87.2002 87.0884 87.3125 87.2935C87.4248 87.4985 87.5933 87.6621 87.8179 87.7842C88.0474 87.9014 88.3281 87.96 88.6602 87.96C89.0752 87.96 89.4414 87.8721 89.7588 87.6963C90.0762 87.5205 90.3276 87.3057 90.5132 87.0518C90.7036 86.7979 90.8062 86.5513 90.8208 86.312L91.3994 86.9639C91.3652 87.1689 91.2725 87.396 91.1211 87.645C90.9697 87.894 90.7671 88.1333 90.5132 88.3628C90.2642 88.5874 89.9663 88.7754 89.6196 88.9268C89.2778 89.0732 88.8921 89.1465 88.4624 89.1465C87.9253 89.1465 87.4541 89.0415 87.0488 88.8315C86.6484 88.6216 86.3359 88.3408 86.1113 87.9893C85.8916 87.6328 85.7817 87.2349 85.7817 86.7954C85.7817 86.3706 85.8647 85.9971 86.0308 85.6748C86.1968 85.3477 86.436 85.0767 86.7485 84.8618C87.061 84.6421 87.437 84.4761 87.8765 84.3638C88.3159 84.2515 88.8066 84.1953 89.3486 84.1953H90.9233ZM99.0239 87.1689V81.0752H100.386V89H99.0898L99.0239 87.1689ZM99.2803 85.499L99.8442 85.4844C99.8442 86.0117 99.7881 86.5 99.6758 86.9492C99.5684 87.3936 99.3926 87.7793 99.1484 88.1064C98.9043 88.4336 98.5845 88.6899 98.189 88.8755C97.7935 89.0562 97.3125 89.1465 96.7461 89.1465C96.3604 89.1465 96.0063 89.0903 95.6841 88.978C95.3667 88.8657 95.0933 88.6924 94.8638 88.458C94.6343 88.2236 94.4561 87.9185 94.3291 87.5425C94.207 87.1665 94.146 86.7148 94.146 86.1875V81.0752H95.501V86.2021C95.501 86.5586 95.54 86.854 95.6182 87.0884C95.7012 87.3179 95.811 87.501 95.9478 87.6377C96.0894 87.7695 96.2456 87.8623 96.4165 87.916C96.5923 87.9697 96.7729 87.9966 96.9585 87.9966C97.5347 87.9966 97.9912 87.8867 98.3281 87.667C98.665 87.4424 98.9067 87.1421 99.0532 86.7661C99.2046 86.3853 99.2803 85.9629 99.2803 85.499ZM103.924 77.75V89H102.562V77.75H103.924ZM109.417 81.0752V82.1152H105.132V81.0752H109.417ZM106.583 79.1489H107.938V87.0371C107.938 87.3057 107.979 87.5083 108.062 87.645C108.145 87.7817 108.252 87.8721 108.384 87.916C108.516 87.96 108.658 87.9819 108.809 87.9819C108.921 87.9819 109.039 87.9722 109.161 87.9526C109.288 87.9282 109.383 87.9087 109.446 87.894L109.454 89C109.346 89.0342 109.205 89.0659 109.029 89.0952C108.858 89.1294 108.65 89.1465 108.406 89.1465C108.074 89.1465 107.769 89.0806 107.491 88.9487C107.212 88.8169 106.99 88.5972 106.824 88.2896C106.663 87.9771 106.583 87.5571 106.583 87.0298V79.1489Z" fill="black"/>
<path d="M32 90.4648H109.974V91.1973H32V90.4648Z" fill="black"/>
<path d="M295.705 87.8501V89H290.373V87.8501H295.705ZM290.651 78.3359V89H289.238V78.3359H290.651ZM298.591 81.0752V89H297.229V81.0752H298.591ZM297.126 78.9731C297.126 78.7534 297.192 78.5679 297.324 78.4165C297.46 78.2651 297.661 78.1895 297.924 78.1895C298.183 78.1895 298.381 78.2651 298.518 78.4165C298.659 78.5679 298.73 78.7534 298.73 78.9731C298.73 79.1831 298.659 79.3638 298.518 79.5151C298.381 79.6616 298.183 79.7349 297.924 79.7349C297.661 79.7349 297.46 79.6616 297.324 79.5151C297.192 79.3638 297.126 79.1831 297.126 78.9731ZM302.121 82.7671V89H300.766V81.0752H302.048L302.121 82.7671ZM301.799 84.7373L301.235 84.7153C301.24 84.1733 301.32 83.6729 301.477 83.2139C301.633 82.75 301.853 82.3472 302.136 82.0054C302.419 81.6636 302.756 81.3999 303.146 81.2144C303.542 81.0239 303.979 80.9287 304.458 80.9287C304.848 80.9287 305.2 80.9824 305.512 81.0898C305.825 81.1924 306.091 81.3584 306.311 81.5879C306.535 81.8174 306.706 82.1152 306.823 82.4814C306.94 82.8428 306.999 83.2847 306.999 83.8071V89H305.637V83.7925C305.637 83.3774 305.576 83.0454 305.454 82.7964C305.332 82.5425 305.153 82.3594 304.919 82.2471C304.685 82.1299 304.396 82.0713 304.055 82.0713C303.718 82.0713 303.41 82.1421 303.132 82.2837C302.858 82.4253 302.622 82.6206 302.421 82.8696C302.226 83.1187 302.072 83.4043 301.96 83.7266C301.853 84.0439 301.799 84.3809 301.799 84.7373ZM310.419 77.75V89H309.057V77.75H310.419ZM315.261 81.0752L311.804 84.7739L309.87 86.7808L309.76 85.3379L311.145 83.6826L313.605 81.0752H315.261ZM314.023 89L311.196 85.2207L311.899 84.0122L315.62 89H314.023ZM321.735 77.75V89H320.38V77.75H321.735ZM321.413 84.7373L320.849 84.7153C320.854 84.1733 320.935 83.6729 321.091 83.2139C321.247 82.75 321.467 82.3472 321.75 82.0054C322.033 81.6636 322.37 81.3999 322.761 81.2144C323.156 81.0239 323.593 80.9287 324.072 80.9287C324.462 80.9287 324.814 80.9824 325.126 81.0898C325.439 81.1924 325.705 81.3584 325.925 81.5879C326.149 81.8174 326.32 82.1152 326.438 82.4814C326.555 82.8428 326.613 83.2847 326.613 83.8071V89H325.251V83.7925C325.251 83.3774 325.19 83.0454 325.068 82.7964C324.946 82.5425 324.768 82.3594 324.533 82.2471C324.299 82.1299 324.011 82.0713 323.669 82.0713C323.332 82.0713 323.024 82.1421 322.746 82.2837C322.473 82.4253 322.236 82.6206 322.036 82.8696C321.84 83.1187 321.687 83.4043 321.574 83.7266C321.467 84.0439 321.413 84.3809 321.413 84.7373ZM328.283 85.1255V84.957C328.283 84.3857 328.366 83.856 328.532 83.3677C328.698 82.8745 328.938 82.4473 329.25 82.0859C329.562 81.7197 329.941 81.4365 330.385 81.2363C330.83 81.0312 331.328 80.9287 331.879 80.9287C332.436 80.9287 332.937 81.0312 333.381 81.2363C333.83 81.4365 334.211 81.7197 334.523 82.0859C334.841 82.4473 335.083 82.8745 335.249 83.3677C335.415 83.856 335.498 84.3857 335.498 84.957V85.1255C335.498 85.6968 335.415 86.2266 335.249 86.7148C335.083 87.2031 334.841 87.6304 334.523 87.9966C334.211 88.3579 333.833 88.6411 333.388 88.8462C332.949 89.0464 332.451 89.1465 331.894 89.1465C331.337 89.1465 330.837 89.0464 330.393 88.8462C329.948 88.6411 329.567 88.3579 329.25 87.9966C328.938 87.6304 328.698 87.2031 328.532 86.7148C328.366 86.2266 328.283 85.6968 328.283 85.1255ZM329.638 84.957V85.1255C329.638 85.521 329.685 85.8945 329.777 86.2461C329.87 86.5928 330.009 86.9004 330.195 87.1689C330.385 87.4375 330.622 87.6499 330.905 87.8062C331.188 87.9575 331.518 88.0332 331.894 88.0332C332.265 88.0332 332.59 87.9575 332.868 87.8062C333.151 87.6499 333.386 87.4375 333.571 87.1689C333.757 86.9004 333.896 86.5928 333.989 86.2461C334.086 85.8945 334.135 85.521 334.135 85.1255V84.957C334.135 84.5664 334.086 84.1978 333.989 83.8511C333.896 83.4995 333.754 83.1895 333.564 82.9209C333.378 82.6475 333.144 82.4326 332.861 82.2764C332.583 82.1201 332.255 82.042 331.879 82.042C331.508 82.042 331.181 82.1201 330.898 82.2764C330.62 82.4326 330.385 82.6475 330.195 82.9209C330.009 83.1895 329.87 83.4995 329.777 83.8511C329.685 84.1978 329.638 84.5664 329.638 84.957ZM339.489 87.7769L341.657 81.0752H343.042L340.192 89H339.284L339.489 87.7769ZM337.68 81.0752L339.914 87.8135L340.068 89H339.16L336.289 81.0752H337.68ZM347.531 89.1465C346.979 89.1465 346.479 89.0537 346.03 88.8682C345.585 88.6777 345.202 88.4116 344.88 88.0698C344.562 87.728 344.318 87.3228 344.147 86.854C343.977 86.3853 343.891 85.8726 343.891 85.3159V85.0083C343.891 84.3638 343.986 83.79 344.177 83.2871C344.367 82.7793 344.626 82.3496 344.953 81.998C345.28 81.6465 345.651 81.3804 346.066 81.1997C346.481 81.019 346.911 80.9287 347.355 80.9287C347.922 80.9287 348.41 81.0264 348.82 81.2217C349.235 81.417 349.575 81.6904 349.838 82.042C350.102 82.3887 350.297 82.7988 350.424 83.2725C350.551 83.7412 350.615 84.2539 350.615 84.8105V85.4185H344.697V84.3125H349.26V84.21C349.24 83.8584 349.167 83.5166 349.04 83.1846C348.918 82.8525 348.723 82.5791 348.454 82.3643C348.186 82.1494 347.819 82.042 347.355 82.042C347.048 82.042 346.765 82.1079 346.506 82.2397C346.247 82.3667 346.025 82.5571 345.839 82.811C345.654 83.0649 345.51 83.375 345.407 83.7412C345.305 84.1074 345.253 84.5298 345.253 85.0083V85.3159C345.253 85.6919 345.305 86.0459 345.407 86.3779C345.515 86.7051 345.668 86.9932 345.869 87.2422C346.074 87.4912 346.32 87.6865 346.608 87.8281C346.901 87.9697 347.233 88.0405 347.604 88.0405C348.083 88.0405 348.488 87.9429 348.82 87.7476C349.152 87.5522 349.443 87.291 349.692 86.9639L350.512 87.6157C350.341 87.8745 350.124 88.1211 349.86 88.3555C349.597 88.5898 349.272 88.7803 348.886 88.9268C348.505 89.0732 348.054 89.1465 347.531 89.1465ZM353.552 82.3203V89H352.197V81.0752H353.515L353.552 82.3203ZM356.027 81.0312L356.02 82.291C355.908 82.2666 355.8 82.252 355.698 82.2471C355.6 82.2373 355.488 82.2324 355.361 82.2324C355.048 82.2324 354.772 82.2812 354.533 82.3789C354.294 82.4766 354.091 82.6133 353.925 82.7891C353.759 82.9648 353.627 83.1748 353.53 83.4189C353.437 83.6582 353.376 83.9219 353.347 84.21L352.966 84.4297C352.966 83.9512 353.012 83.502 353.105 83.082C353.203 82.6621 353.352 82.291 353.552 81.9688C353.752 81.6416 354.006 81.3877 354.313 81.207C354.626 81.0215 354.997 80.9287 355.427 80.9287C355.524 80.9287 355.637 80.9409 355.764 80.9653C355.891 80.9849 355.979 81.0068 356.027 81.0312Z" fill="black"/>
<path d="M288 90.4648H356.247V91.1973H288V90.4648Z" fill="black"/>
<g>
<path d="M552.705 88.8501V90H547.373V88.8501H552.705ZM547.651 79.3359V90H546.238V79.3359H547.651ZM555.591 82.0752V90H554.229V82.0752H555.591ZM554.126 79.9731C554.126 79.7534 554.192 79.5679 554.324 79.4165C554.46 79.2651 554.661 79.1895 554.924 79.1895C555.183 79.1895 555.381 79.2651 555.518 79.4165C555.659 79.5679 555.73 79.7534 555.73 79.9731C555.73 80.1831 555.659 80.3638 555.518 80.5151C555.381 80.6616 555.183 80.7349 554.924 80.7349C554.661 80.7349 554.46 80.6616 554.324 80.5151C554.192 80.3638 554.126 80.1831 554.126 79.9731ZM559.121 83.7671V90H557.766V82.0752H559.048L559.121 83.7671ZM558.799 85.7373L558.235 85.7153C558.24 85.1733 558.32 84.6729 558.477 84.2139C558.633 83.75 558.853 83.3472 559.136 83.0054C559.419 82.6636 559.756 82.3999 560.146 82.2144C560.542 82.0239 560.979 81.9287 561.458 81.9287C561.848 81.9287 562.2 81.9824 562.512 82.0898C562.825 82.1924 563.091 82.3584 563.311 82.5879C563.535 82.8174 563.706 83.1152 563.823 83.4814C563.94 83.8428 563.999 84.2847 563.999 84.8071V90H562.637V84.7925C562.637 84.3774 562.576 84.0454 562.454 83.7964C562.332 83.5425 562.153 83.3594 561.919 83.2471C561.685 83.1299 561.396 83.0713 561.055 83.0713C560.718 83.0713 560.41 83.1421 560.132 83.2837C559.858 83.4253 559.622 83.6206 559.421 83.8696C559.226 84.1187 559.072 84.4043 558.96 84.7266C558.853 85.0439 558.799 85.3809 558.799 85.7373ZM567.419 78.75V90H566.057V78.75H567.419ZM572.261 82.0752L568.804 85.7739L566.87 87.7808L566.76 86.3379L568.145 84.6826L570.605 82.0752H572.261ZM571.023 90L568.196 86.2207L568.899 85.0122L572.62 90H571.023ZM579.402 90H578.047V81.2402C578.047 80.6689 578.149 80.188 578.354 79.7974C578.564 79.4019 578.865 79.104 579.255 78.9038C579.646 78.6987 580.11 78.5962 580.647 78.5962C580.803 78.5962 580.959 78.606 581.116 78.6255C581.277 78.645 581.433 78.6743 581.584 78.7134L581.511 79.8193C581.409 79.7949 581.292 79.7778 581.16 79.7681C581.033 79.7583 580.906 79.7534 580.779 79.7534C580.491 79.7534 580.242 79.812 580.032 79.9292C579.827 80.0415 579.67 80.2075 579.563 80.4272C579.456 80.647 579.402 80.918 579.402 81.2402V90ZM581.086 82.0752V83.1152H576.794V82.0752H581.086ZM582.236 86.1255V85.957C582.236 85.3857 582.319 84.856 582.485 84.3677C582.651 83.8745 582.891 83.4473 583.203 83.0859C583.516 82.7197 583.894 82.4365 584.338 82.2363C584.783 82.0312 585.281 81.9287 585.833 81.9287C586.389 81.9287 586.89 82.0312 587.334 82.2363C587.783 82.4365 588.164 82.7197 588.477 83.0859C588.794 83.4473 589.036 83.8745 589.202 84.3677C589.368 84.856 589.451 85.3857 589.451 85.957V86.1255C589.451 86.6968 589.368 87.2266 589.202 87.7148C589.036 88.2031 588.794 88.6304 588.477 88.9966C588.164 89.3579 587.786 89.6411 587.341 89.8462C586.902 90.0464 586.404 90.1465 585.847 90.1465C585.291 90.1465 584.79 90.0464 584.346 89.8462C583.901 89.6411 583.521 89.3579 583.203 88.9966C582.891 88.6304 582.651 88.2031 582.485 87.7148C582.319 87.2266 582.236 86.6968 582.236 86.1255ZM583.591 85.957V86.1255C583.591 86.521 583.638 86.8945 583.73 87.2461C583.823 87.5928 583.962 87.9004 584.148 88.1689C584.338 88.4375 584.575 88.6499 584.858 88.8062C585.142 88.9575 585.471 89.0332 585.847 89.0332C586.218 89.0332 586.543 88.9575 586.821 88.8062C587.104 88.6499 587.339 88.4375 587.524 88.1689C587.71 87.9004 587.849 87.5928 587.942 87.2461C588.04 86.8945 588.088 86.521 588.088 86.1255V85.957C588.088 85.5664 588.04 85.1978 587.942 84.8511C587.849 84.4995 587.708 84.1895 587.517 83.9209C587.332 83.6475 587.097 83.4326 586.814 83.2764C586.536 83.1201 586.208 83.042 585.833 83.042C585.461 83.042 585.134 83.1201 584.851 83.2764C584.573 83.4326 584.338 83.6475 584.148 83.9209C583.962 84.1895 583.823 84.4995 583.73 84.8511C583.638 85.1978 583.591 85.5664 583.591 85.957ZM594.321 89.0332C594.644 89.0332 594.941 88.9673 595.215 88.8354C595.488 88.7036 595.713 88.5229 595.889 88.2935C596.064 88.0591 596.165 87.793 596.189 87.4951H597.478C597.454 87.9639 597.295 88.4009 597.002 88.8062C596.714 89.2065 596.335 89.5312 595.867 89.7803C595.398 90.0244 594.883 90.1465 594.321 90.1465C593.726 90.1465 593.206 90.0415 592.761 89.8315C592.322 89.6216 591.956 89.3335 591.663 88.9673C591.375 88.6011 591.157 88.1812 591.011 87.7075C590.869 87.229 590.798 86.7236 590.798 86.1914V85.8838C590.798 85.3516 590.869 84.8486 591.011 84.375C591.157 83.8965 591.375 83.4741 591.663 83.1079C591.956 82.7417 592.322 82.4536 592.761 82.2437C593.206 82.0337 593.726 81.9287 594.321 81.9287C594.941 81.9287 595.483 82.0557 595.947 82.3096C596.411 82.5586 596.775 82.9004 597.039 83.335C597.307 83.7646 597.454 84.2529 597.478 84.7998H596.189C596.165 84.4727 596.072 84.1772 595.911 83.9136C595.754 83.6499 595.54 83.4399 595.266 83.2837C594.998 83.1226 594.683 83.042 594.321 83.042C593.906 83.042 593.557 83.125 593.274 83.291C592.996 83.4521 592.773 83.6719 592.607 83.9502C592.446 84.2236 592.329 84.5288 592.256 84.8657C592.188 85.1978 592.153 85.5371 592.153 85.8838V86.1914C592.153 86.5381 592.188 86.8799 592.256 87.2168C592.324 87.5537 592.439 87.8589 592.6 88.1323C592.766 88.4058 592.988 88.6255 593.267 88.7915C593.55 88.9526 593.901 89.0332 594.321 89.0332ZM603.85 88.1689V82.0752H605.212V90H603.916L603.85 88.1689ZM604.106 86.499L604.67 86.4844C604.67 87.0117 604.614 87.5 604.502 87.9492C604.395 88.3936 604.219 88.7793 603.975 89.1064C603.73 89.4336 603.411 89.6899 603.015 89.8755C602.62 90.0562 602.139 90.1465 601.572 90.1465C601.187 90.1465 600.833 90.0903 600.51 89.978C600.193 89.8657 599.919 89.6924 599.69 89.458C599.46 89.2236 599.282 88.9185 599.155 88.5425C599.033 88.1665 598.972 87.7148 598.972 87.1875V82.0752H600.327V87.2021C600.327 87.5586 600.366 87.854 600.444 88.0884C600.527 88.3179 600.637 88.501 600.774 88.6377C600.916 88.7695 601.072 88.8623 601.243 88.916C601.418 88.9697 601.599 88.9966 601.785 88.9966C602.361 88.9966 602.817 88.8867 603.154 88.667C603.491 88.4424 603.733 88.1421 603.879 87.7661C604.031 87.3853 604.106 86.9629 604.106 86.499ZM611.892 87.8979C611.892 87.7026 611.848 87.522 611.76 87.356C611.677 87.1851 611.504 87.0312 611.24 86.8945C610.981 86.7529 610.591 86.6309 610.068 86.5283C609.629 86.4355 609.231 86.3257 608.875 86.1987C608.523 86.0718 608.223 85.918 607.974 85.7373C607.729 85.5566 607.542 85.3442 607.41 85.1001C607.278 84.856 607.212 84.5703 607.212 84.2432C607.212 83.9307 607.28 83.6353 607.417 83.3569C607.559 83.0786 607.756 82.832 608.01 82.6172C608.269 82.4023 608.579 82.2339 608.94 82.1118C609.302 81.9897 609.705 81.9287 610.149 81.9287C610.784 81.9287 611.326 82.041 611.775 82.2656C612.224 82.4902 612.568 82.7905 612.808 83.1665C613.047 83.5376 613.167 83.9502 613.167 84.4043H611.812C611.812 84.1846 611.746 83.9722 611.614 83.7671C611.487 83.5571 611.299 83.3838 611.05 83.2471C610.806 83.1104 610.505 83.042 610.149 83.042C609.773 83.042 609.468 83.1006 609.233 83.2178C609.004 83.3301 608.835 83.4741 608.728 83.6499C608.625 83.8257 608.574 84.0112 608.574 84.2065C608.574 84.353 608.599 84.4849 608.647 84.6021C608.701 84.7144 608.794 84.8193 608.926 84.917C609.058 85.0098 609.243 85.0977 609.482 85.1807C609.722 85.2637 610.027 85.3467 610.398 85.4297C611.047 85.5762 611.582 85.752 612.002 85.957C612.422 86.1621 612.734 86.4136 612.939 86.7114C613.145 87.0093 613.247 87.3706 613.247 87.7954C613.247 88.1421 613.174 88.4595 613.027 88.7476C612.886 89.0356 612.678 89.2847 612.405 89.4946C612.136 89.6997 611.814 89.8608 611.438 89.978C611.067 90.0903 610.649 90.1465 610.186 90.1465C609.487 90.1465 608.896 90.022 608.413 89.7729C607.93 89.5239 607.563 89.2017 607.314 88.8062C607.065 88.4106 606.941 87.9932 606.941 87.5537H608.303C608.323 87.9248 608.43 88.2202 608.625 88.4399C608.821 88.6548 609.06 88.8086 609.343 88.9014C609.626 88.9893 609.907 89.0332 610.186 89.0332C610.557 89.0332 610.867 88.9844 611.116 88.8867C611.37 88.7891 611.562 88.6548 611.694 88.4839C611.826 88.313 611.892 88.1177 611.892 87.8979Z" fill="black"/>
<path d="M545 91.4648H613.987V92.1973H545V91.4648Z" fill="black"/>
<rect x="543.5" y="71.5" width="72" height="27" stroke="black"/>
</g>
<path d="M800 113H0V115H800V113Z" fill="#E6E6E6" mask="url(#path-6-inside-2_9708_4919)"/>
</g>
<defs>
<filter id="filter0_d_9708_4919" x="541" y="69" width="77" height="32" filterUnits="userSpaceOnUse" color-interpolation-filters="sRGB">
<feFlood flood-opacity="0" result="BackgroundImageFix"/>
<feColorMatrix in="SourceAlpha" type="matrix" values="0 0 0 0 0 0 0 0 0 0 0 0 0 0 0 0 0 0 127 0" result="hardAlpha"/>
<feMorphology radius="2" operator="dilate" in="SourceAlpha" result="effect1_dropShadow_9708_4919"/>
<feOffset/>
<feColorMatrix type="matrix" values="0 0 0 0 0.156863 0 0 0 0 0.431373 0 0 0 0 0.945098 0 0 0 1 0"/>
<feBlend mode="normal" in2="BackgroundImageFix" result="effect1_dropShadow_9708_4919"/>
<feBlend mode="normal" in="SourceGraphic" in2="effect1_dropShadow_9708_4919" result="shape"/>
</filter>
<clipPath id="clip0_9708_4919">
<rect width="800" height="114" fill="white"/>
</clipPath>
</defs>
</svg>
