<svg width="852" height="288" viewBox="0 0 852 288" fill="none" xmlns="http://www.w3.org/2000/svg">
<rect width="852" height="288" rx="16" fill="#F8F8F8"/>
<path d="M54 112.5H798C802.142 112.5 805.5 115.858 805.5 120V168C805.5 172.142 802.142 175.5 798 175.5H54C49.8579 175.5 46.5 172.142 46.5 168V120C46.5 115.858 49.8579 112.5 54 112.5Z" fill="white"/>
<circle cx="86" cy="144" r="16" fill="#F2F2F2"/>
<path d="M86 138.375C85.0365 138.401 84.2292 138.74 83.5781 139.391C82.9271 140.042 82.5885 140.849 82.5625 141.812C82.5885 142.776 82.9271 143.583 83.5781 144.234C84.2292 144.885 85.0365 145.224 86 145.25C86.9635 145.224 87.7708 144.885 88.4219 144.234C89.0729 143.583 89.4115 142.776 89.4375 141.812C89.4115 140.849 89.0729 140.042 88.4219 139.391C87.7708 138.74 86.9635 138.401 86 138.375ZM86 143.375C85.5573 143.375 85.1927 143.219 84.9062 142.906C84.5938 142.62 84.4375 142.255 84.4375 141.812C84.4375 141.37 84.5938 141.005 84.9062 140.719C85.1927 140.406 85.5573 140.25 86 140.25C86.4427 140.25 86.8073 140.406 87.0938 140.719C87.4062 141.005 87.5625 141.37 87.5625 141.812C87.5625 142.255 87.4062 142.62 87.0938 142.906C86.8073 143.219 86.4427 143.375 86 143.375ZM86 134C84.125 134.026 82.4453 134.482 80.9609 135.367C79.4505 136.253 78.2526 137.451 77.3672 138.961C76.4818 140.445 76.026 142.125 76 144C76.026 145.875 76.4818 147.555 77.3672 149.039C78.2526 150.549 79.4505 151.747 80.9609 152.633C82.4453 153.518 84.125 153.974 86 154C87.875 153.974 89.5547 153.518 91.0391 152.633C92.5495 151.747 93.7474 150.549 94.6328 149.039C95.5182 147.555 95.974 145.875 96 144C95.974 142.125 95.5182 140.445 94.6328 138.961C93.7474 137.451 92.5495 136.253 91.0391 135.367C89.5547 134.482 87.875 134.026 86 134ZM86 152.125C84.151 152.099 82.5365 151.552 81.1562 150.484C81.4948 149.833 81.9635 149.326 82.5625 148.961C83.1615 148.57 83.8385 148.375 84.5938 148.375H87.4062C88.1615 148.375 88.8385 148.57 89.4375 148.961C90.0365 149.326 90.5182 149.833 90.8828 150.484C89.4766 151.552 87.849 152.099 86 152.125ZM92.25 149.195C91.7292 148.362 91.0391 147.698 90.1797 147.203C89.3464 146.734 88.4219 146.5 87.4062 146.5H84.5938C83.5781 146.5 82.6536 146.734 81.8203 147.203C80.987 147.672 80.2969 148.323 79.75 149.156C78.5521 147.724 77.9271 146.005 77.875 144C77.9271 141.708 78.7214 139.794 80.2578 138.258C81.7943 136.721 83.7083 135.927 86 135.875C88.2917 135.927 90.2057 136.721 91.7422 138.258C93.2786 139.794 94.0729 141.708 94.125 144C94.0729 146.005 93.4479 147.737 92.25 149.195Z" fill="#1A1A1A"/>
<path d="M111.084 138.336H114.856C115.667 138.336 116.357 138.458 116.929 138.702C117.5 138.946 117.937 139.308 118.24 139.786C118.547 140.26 118.701 140.846 118.701 141.544C118.701 142.076 118.604 142.545 118.408 142.95C118.213 143.355 117.937 143.697 117.581 143.976C117.224 144.249 116.799 144.461 116.306 144.613L115.75 144.884H112.358L112.344 143.426H114.885C115.325 143.426 115.691 143.348 115.984 143.192C116.277 143.036 116.497 142.823 116.643 142.555C116.794 142.281 116.87 141.974 116.87 141.632C116.87 141.261 116.797 140.938 116.65 140.665C116.509 140.387 116.289 140.174 115.991 140.028C115.693 139.876 115.315 139.801 114.856 139.801H112.922V149H111.084V138.336ZM117.17 149L114.666 144.21L116.592 144.203L119.133 148.905V149H117.17ZM123.85 149.146C123.264 149.146 122.734 149.051 122.261 148.861C121.792 148.666 121.392 148.395 121.06 148.048C120.732 147.701 120.481 147.293 120.305 146.825C120.129 146.356 120.042 145.851 120.042 145.309V145.016C120.042 144.396 120.132 143.834 120.312 143.331C120.493 142.828 120.745 142.398 121.067 142.042C121.389 141.681 121.77 141.405 122.209 141.214C122.649 141.024 123.125 140.929 123.638 140.929C124.204 140.929 124.7 141.024 125.125 141.214C125.549 141.405 125.901 141.673 126.179 142.02C126.462 142.362 126.672 142.77 126.809 143.243C126.951 143.717 127.021 144.239 127.021 144.811V145.565H120.898V144.298H125.278V144.159C125.269 143.841 125.205 143.543 125.088 143.265C124.976 142.987 124.802 142.762 124.568 142.591C124.333 142.42 124.021 142.335 123.63 142.335C123.337 142.335 123.076 142.398 122.847 142.525C122.622 142.647 122.434 142.826 122.283 143.06C122.131 143.294 122.014 143.578 121.931 143.91C121.853 144.237 121.814 144.605 121.814 145.016V145.309C121.814 145.655 121.86 145.978 121.953 146.275C122.051 146.568 122.192 146.825 122.378 147.044C122.563 147.264 122.788 147.438 123.052 147.564C123.315 147.687 123.616 147.748 123.953 147.748C124.377 147.748 124.756 147.662 125.088 147.491C125.42 147.32 125.708 147.079 125.952 146.766L126.882 147.667C126.711 147.916 126.489 148.155 126.216 148.385C125.942 148.609 125.608 148.792 125.212 148.934C124.822 149.076 124.368 149.146 123.85 149.146ZM131.636 147.74C131.924 147.74 132.183 147.684 132.412 147.572C132.646 147.455 132.834 147.293 132.976 147.088C133.123 146.883 133.203 146.646 133.218 146.378H134.88C134.871 146.891 134.719 147.357 134.426 147.777C134.133 148.197 133.745 148.531 133.262 148.78C132.778 149.024 132.244 149.146 131.658 149.146C131.052 149.146 130.525 149.044 130.076 148.839C129.626 148.629 129.253 148.341 128.955 147.975C128.657 147.608 128.433 147.186 128.281 146.708C128.135 146.229 128.062 145.716 128.062 145.169V144.913C128.062 144.366 128.135 143.854 128.281 143.375C128.433 142.892 128.657 142.467 128.955 142.101C129.253 141.734 129.626 141.449 130.076 141.244C130.525 141.034 131.05 140.929 131.65 140.929C132.285 140.929 132.842 141.056 133.32 141.31C133.799 141.559 134.175 141.908 134.448 142.357C134.727 142.801 134.871 143.319 134.88 143.91H133.218C133.203 143.617 133.13 143.353 132.998 143.119C132.871 142.879 132.69 142.689 132.456 142.547C132.227 142.406 131.951 142.335 131.628 142.335C131.272 142.335 130.977 142.408 130.742 142.555C130.508 142.696 130.325 142.892 130.193 143.141C130.061 143.385 129.966 143.661 129.907 143.968C129.854 144.271 129.827 144.586 129.827 144.913V145.169C129.827 145.497 129.854 145.814 129.907 146.122C129.961 146.429 130.054 146.705 130.186 146.949C130.322 147.188 130.508 147.381 130.742 147.528C130.977 147.669 131.274 147.74 131.636 147.74ZM138.125 141.075V149H136.353V141.075H138.125ZM136.235 138.995C136.235 138.727 136.323 138.504 136.499 138.329C136.68 138.148 136.929 138.058 137.246 138.058C137.559 138.058 137.805 138.148 137.986 138.329C138.167 138.504 138.257 138.727 138.257 138.995C138.257 139.259 138.167 139.479 137.986 139.654C137.805 139.83 137.559 139.918 137.246 139.918C136.929 139.918 136.68 139.83 136.499 139.654C136.323 139.479 136.235 139.259 136.235 138.995ZM141.831 142.599V152.047H140.066V141.075H141.692L141.831 142.599ZM146.995 144.964V145.118C146.995 145.694 146.926 146.229 146.79 146.722C146.658 147.21 146.46 147.638 146.196 148.004C145.938 148.365 145.618 148.646 145.237 148.846C144.856 149.046 144.417 149.146 143.918 149.146C143.425 149.146 142.993 149.056 142.622 148.875C142.256 148.69 141.946 148.429 141.692 148.092C141.438 147.755 141.233 147.359 141.077 146.905C140.925 146.446 140.818 145.943 140.754 145.396V144.803C140.818 144.222 140.925 143.695 141.077 143.221C141.233 142.748 141.438 142.34 141.692 141.998C141.946 141.656 142.256 141.393 142.622 141.207C142.988 141.021 143.416 140.929 143.904 140.929C144.402 140.929 144.844 141.026 145.229 141.222C145.615 141.412 145.94 141.686 146.204 142.042C146.467 142.394 146.665 142.818 146.797 143.316C146.929 143.81 146.995 144.359 146.995 144.964ZM145.229 145.118V144.964C145.229 144.598 145.195 144.259 145.127 143.946C145.059 143.629 144.951 143.351 144.805 143.111C144.658 142.872 144.47 142.687 144.241 142.555C144.016 142.418 143.745 142.35 143.428 142.35C143.115 142.35 142.847 142.403 142.622 142.511C142.397 142.613 142.209 142.757 142.058 142.943C141.907 143.128 141.79 143.346 141.707 143.595C141.624 143.839 141.565 144.105 141.531 144.393V145.814C141.589 146.166 141.689 146.488 141.831 146.781C141.973 147.074 142.173 147.308 142.432 147.484C142.695 147.655 143.032 147.74 143.442 147.74C143.76 147.74 144.031 147.672 144.255 147.535C144.48 147.398 144.663 147.21 144.805 146.971C144.951 146.727 145.059 146.446 145.127 146.129C145.195 145.812 145.229 145.475 145.229 145.118ZM150.386 141.075V149H148.613V141.075H150.386ZM148.496 138.995C148.496 138.727 148.584 138.504 148.76 138.329C148.94 138.148 149.189 138.058 149.507 138.058C149.819 138.058 150.066 138.148 150.247 138.329C150.427 138.504 150.518 138.727 150.518 138.995C150.518 139.259 150.427 139.479 150.247 139.654C150.066 139.83 149.819 139.918 149.507 139.918C149.189 139.918 148.94 139.83 148.76 139.654C148.584 139.479 148.496 139.259 148.496 138.995ZM155.813 149.146C155.227 149.146 154.697 149.051 154.224 148.861C153.755 148.666 153.354 148.395 153.022 148.048C152.695 147.701 152.444 147.293 152.268 146.825C152.092 146.356 152.004 145.851 152.004 145.309V145.016C152.004 144.396 152.095 143.834 152.275 143.331C152.456 142.828 152.708 142.398 153.03 142.042C153.352 141.681 153.733 141.405 154.172 141.214C154.612 141.024 155.088 140.929 155.601 140.929C156.167 140.929 156.663 141.024 157.087 141.214C157.512 141.405 157.864 141.673 158.142 142.02C158.425 142.362 158.635 142.77 158.772 143.243C158.914 143.717 158.984 144.239 158.984 144.811V145.565H152.861V144.298H157.241V144.159C157.231 143.841 157.168 143.543 157.051 143.265C156.938 142.987 156.765 142.762 156.531 142.591C156.296 142.42 155.984 142.335 155.593 142.335C155.3 142.335 155.039 142.398 154.81 142.525C154.585 142.647 154.397 142.826 154.246 143.06C154.094 143.294 153.977 143.578 153.894 143.91C153.816 144.237 153.777 144.605 153.777 145.016V145.309C153.777 145.655 153.823 145.978 153.916 146.275C154.014 146.568 154.155 146.825 154.341 147.044C154.526 147.264 154.751 147.438 155.015 147.564C155.278 147.687 155.579 147.748 155.916 147.748C156.34 147.748 156.719 147.662 157.051 147.491C157.383 147.32 157.671 147.079 157.915 146.766L158.845 147.667C158.674 147.916 158.452 148.155 158.179 148.385C157.905 148.609 157.571 148.792 157.175 148.934C156.785 149.076 156.331 149.146 155.813 149.146ZM162.112 142.767V149H160.347V141.075H162.009L162.112 142.767ZM161.797 144.745L161.226 144.737C161.23 144.176 161.309 143.661 161.46 143.192C161.616 142.723 161.831 142.32 162.104 141.983C162.383 141.646 162.715 141.388 163.101 141.207C163.486 141.021 163.916 140.929 164.39 140.929C164.771 140.929 165.115 140.982 165.422 141.09C165.735 141.192 166.001 141.361 166.221 141.595C166.445 141.83 166.616 142.135 166.733 142.511C166.851 142.882 166.909 143.338 166.909 143.88V149H165.137V143.873C165.137 143.492 165.081 143.192 164.968 142.972C164.861 142.748 164.702 142.589 164.492 142.496C164.287 142.398 164.031 142.35 163.723 142.35C163.42 142.35 163.149 142.413 162.91 142.54C162.671 142.667 162.468 142.84 162.302 143.06C162.141 143.28 162.017 143.534 161.929 143.822C161.841 144.11 161.797 144.417 161.797 144.745ZM172.344 141.075V142.364H167.876V141.075H172.344ZM169.165 139.134H170.93V146.81C170.93 147.054 170.964 147.242 171.033 147.374C171.106 147.501 171.206 147.586 171.333 147.63C171.46 147.674 171.609 147.696 171.78 147.696C171.902 147.696 172.019 147.689 172.131 147.674C172.244 147.66 172.334 147.645 172.402 147.63L172.41 148.978C172.263 149.022 172.092 149.061 171.897 149.095C171.707 149.129 171.487 149.146 171.238 149.146C170.833 149.146 170.474 149.076 170.161 148.934C169.849 148.788 169.604 148.551 169.429 148.224C169.253 147.896 169.165 147.462 169.165 146.92V139.134ZM186.077 138.336V149H184.238L179.456 141.361V149H177.617V138.336H179.456L184.253 145.99V138.336H186.077ZM192.559 147.411V143.631C192.559 143.348 192.507 143.104 192.405 142.899C192.302 142.694 192.146 142.535 191.936 142.423C191.731 142.311 191.472 142.254 191.16 142.254C190.872 142.254 190.623 142.303 190.413 142.401C190.203 142.499 190.039 142.63 189.922 142.796C189.805 142.962 189.746 143.15 189.746 143.36H187.988C187.988 143.048 188.064 142.745 188.215 142.452C188.367 142.159 188.586 141.898 188.875 141.668C189.163 141.439 189.507 141.258 189.907 141.126C190.308 140.995 190.757 140.929 191.255 140.929C191.851 140.929 192.378 141.029 192.837 141.229C193.301 141.429 193.665 141.732 193.928 142.137C194.197 142.538 194.331 143.041 194.331 143.646V147.169C194.331 147.53 194.355 147.855 194.404 148.143C194.458 148.426 194.534 148.673 194.631 148.883V149H192.822C192.739 148.81 192.673 148.568 192.625 148.275C192.581 147.977 192.559 147.689 192.559 147.411ZM192.815 144.181L192.83 145.272H191.562C191.235 145.272 190.947 145.304 190.698 145.367C190.449 145.426 190.242 145.514 190.076 145.631C189.91 145.748 189.785 145.89 189.702 146.056C189.619 146.222 189.578 146.41 189.578 146.62C189.578 146.83 189.626 147.022 189.724 147.198C189.822 147.369 189.963 147.503 190.149 147.601C190.339 147.699 190.569 147.748 190.837 147.748C191.199 147.748 191.514 147.674 191.782 147.528C192.056 147.376 192.271 147.193 192.427 146.979C192.583 146.759 192.666 146.551 192.676 146.356L193.247 147.14C193.188 147.34 193.088 147.555 192.947 147.784C192.805 148.014 192.62 148.233 192.39 148.443C192.166 148.648 191.895 148.817 191.577 148.949C191.265 149.081 190.903 149.146 190.493 149.146C189.976 149.146 189.514 149.044 189.109 148.839C188.704 148.629 188.386 148.348 188.157 147.997C187.927 147.64 187.812 147.237 187.812 146.788C187.812 146.368 187.891 145.997 188.047 145.675C188.208 145.348 188.442 145.074 188.75 144.854C189.062 144.635 189.443 144.469 189.893 144.356C190.342 144.239 190.854 144.181 191.431 144.181H192.815ZM197.942 142.687V149H196.177V141.075H197.839L197.942 142.687ZM197.656 144.745L197.056 144.737C197.056 144.19 197.124 143.685 197.261 143.221C197.397 142.757 197.598 142.354 197.861 142.013C198.125 141.666 198.452 141.4 198.843 141.214C199.238 141.024 199.695 140.929 200.212 140.929C200.574 140.929 200.903 140.982 201.201 141.09C201.504 141.192 201.765 141.356 201.985 141.581C202.209 141.805 202.38 142.093 202.498 142.445C202.62 142.796 202.681 143.221 202.681 143.719V149H200.916V143.873C200.916 143.487 200.857 143.185 200.74 142.965C200.627 142.745 200.464 142.589 200.249 142.496C200.039 142.398 199.788 142.35 199.495 142.35C199.163 142.35 198.879 142.413 198.645 142.54C198.416 142.667 198.228 142.84 198.081 143.06C197.935 143.28 197.827 143.534 197.759 143.822C197.69 144.11 197.656 144.417 197.656 144.745ZM202.571 144.276L201.743 144.459C201.743 143.98 201.809 143.529 201.941 143.104C202.078 142.674 202.275 142.298 202.534 141.976C202.798 141.649 203.123 141.393 203.508 141.207C203.894 141.021 204.336 140.929 204.834 140.929C205.239 140.929 205.601 140.985 205.918 141.097C206.24 141.205 206.514 141.375 206.738 141.61C206.963 141.844 207.134 142.149 207.251 142.525C207.368 142.896 207.427 143.346 207.427 143.873V149H205.654V143.866C205.654 143.465 205.596 143.155 205.479 142.936C205.366 142.716 205.205 142.564 204.995 142.481C204.785 142.394 204.534 142.35 204.241 142.35C203.967 142.35 203.726 142.401 203.516 142.503C203.311 142.601 203.137 142.74 202.996 142.921C202.854 143.097 202.747 143.299 202.673 143.529C202.605 143.758 202.571 144.007 202.571 144.276ZM212.737 149.146C212.151 149.146 211.621 149.051 211.147 148.861C210.679 148.666 210.278 148.395 209.946 148.048C209.619 147.701 209.368 147.293 209.192 146.825C209.016 146.356 208.928 145.851 208.928 145.309V145.016C208.928 144.396 209.019 143.834 209.199 143.331C209.38 142.828 209.631 142.398 209.954 142.042C210.276 141.681 210.657 141.405 211.096 141.214C211.536 141.024 212.012 140.929 212.524 140.929C213.091 140.929 213.586 141.024 214.011 141.214C214.436 141.405 214.788 141.673 215.066 142.02C215.349 142.362 215.559 142.77 215.696 143.243C215.837 143.717 215.908 144.239 215.908 144.811V145.565H209.785V144.298H214.165V144.159C214.155 143.841 214.092 143.543 213.975 143.265C213.862 142.987 213.689 142.762 213.455 142.591C213.22 142.42 212.908 142.335 212.517 142.335C212.224 142.335 211.963 142.398 211.733 142.525C211.509 142.647 211.321 142.826 211.169 143.06C211.018 143.294 210.901 143.578 210.818 143.91C210.74 144.237 210.701 144.605 210.701 145.016V145.309C210.701 145.655 210.747 145.978 210.84 146.275C210.938 146.568 211.079 146.825 211.265 147.044C211.45 147.264 211.675 147.438 211.938 147.564C212.202 147.687 212.502 147.748 212.839 147.748C213.264 147.748 213.643 147.662 213.975 147.491C214.307 147.32 214.595 147.079 214.839 146.766L215.769 147.667C215.598 147.916 215.376 148.155 215.103 148.385C214.829 148.609 214.495 148.792 214.099 148.934C213.708 149.076 213.254 149.146 212.737 149.146Z" fill="#1A1A1A"/>
<path d="M322.321 149.146C321.77 149.146 321.269 149.054 320.82 148.868C320.375 148.678 319.992 148.412 319.67 148.07C319.353 147.728 319.108 147.323 318.938 146.854C318.767 146.385 318.681 145.873 318.681 145.316V145.008C318.681 144.364 318.776 143.79 318.967 143.287C319.157 142.779 319.416 142.35 319.743 141.998C320.07 141.646 320.441 141.38 320.856 141.2C321.271 141.019 321.701 140.929 322.146 140.929C322.712 140.929 323.2 141.026 323.61 141.222C324.025 141.417 324.365 141.69 324.628 142.042C324.892 142.389 325.087 142.799 325.214 143.272C325.341 143.741 325.405 144.254 325.405 144.811V145.418H319.487V144.312H324.05V144.21C324.03 143.858 323.957 143.517 323.83 143.185C323.708 142.853 323.513 142.579 323.244 142.364C322.976 142.149 322.609 142.042 322.146 142.042C321.838 142.042 321.555 142.108 321.296 142.24C321.037 142.367 320.815 142.557 320.629 142.811C320.444 143.065 320.3 143.375 320.197 143.741C320.095 144.107 320.043 144.53 320.043 145.008V145.316C320.043 145.692 320.095 146.046 320.197 146.378C320.305 146.705 320.458 146.993 320.659 147.242C320.864 147.491 321.11 147.687 321.398 147.828C321.691 147.97 322.023 148.041 322.395 148.041C322.873 148.041 323.278 147.943 323.61 147.748C323.942 147.552 324.233 147.291 324.482 146.964L325.302 147.616C325.131 147.875 324.914 148.121 324.65 148.355C324.387 148.59 324.062 148.78 323.676 148.927C323.295 149.073 322.844 149.146 322.321 149.146ZM327.902 141.075L329.638 143.961L331.396 141.075H332.985L330.393 144.986L333.066 149H331.499L329.667 146.026L327.836 149H326.262L328.928 144.986L326.342 141.075H327.902ZM339.101 147.645V143.565C339.101 143.253 339.038 142.982 338.911 142.752C338.789 142.518 338.603 142.337 338.354 142.21C338.105 142.083 337.797 142.02 337.431 142.02C337.089 142.02 336.789 142.079 336.53 142.196C336.276 142.313 336.076 142.467 335.93 142.657C335.788 142.848 335.717 143.053 335.717 143.272H334.362C334.362 142.989 334.436 142.708 334.582 142.43C334.729 142.152 334.938 141.9 335.212 141.676C335.49 141.446 335.822 141.266 336.208 141.134C336.599 140.997 337.033 140.929 337.512 140.929C338.088 140.929 338.596 141.026 339.035 141.222C339.479 141.417 339.826 141.712 340.075 142.108C340.329 142.499 340.456 142.989 340.456 143.58V147.271C340.456 147.535 340.478 147.816 340.522 148.114C340.571 148.412 340.642 148.668 340.734 148.883V149H339.321C339.252 148.844 339.199 148.636 339.16 148.377C339.121 148.114 339.101 147.87 339.101 147.645ZM339.335 144.195L339.35 145.147H337.98C337.595 145.147 337.25 145.179 336.948 145.243C336.645 145.301 336.391 145.392 336.186 145.514C335.981 145.636 335.825 145.79 335.717 145.975C335.61 146.156 335.556 146.368 335.556 146.612C335.556 146.861 335.612 147.088 335.725 147.293C335.837 147.499 336.005 147.662 336.23 147.784C336.459 147.901 336.74 147.96 337.072 147.96C337.487 147.96 337.854 147.872 338.171 147.696C338.488 147.521 338.74 147.306 338.925 147.052C339.116 146.798 339.218 146.551 339.233 146.312L339.812 146.964C339.777 147.169 339.685 147.396 339.533 147.645C339.382 147.894 339.179 148.133 338.925 148.363C338.676 148.587 338.378 148.775 338.032 148.927C337.69 149.073 337.304 149.146 336.875 149.146C336.337 149.146 335.866 149.042 335.461 148.832C335.061 148.622 334.748 148.341 334.523 147.989C334.304 147.633 334.194 147.235 334.194 146.795C334.194 146.371 334.277 145.997 334.443 145.675C334.609 145.348 334.848 145.077 335.161 144.862C335.473 144.642 335.849 144.476 336.289 144.364C336.728 144.251 337.219 144.195 337.761 144.195H339.335ZM343.935 142.65V149H342.573V141.075H343.862L343.935 142.65ZM343.657 144.737L343.027 144.715C343.032 144.173 343.103 143.673 343.239 143.214C343.376 142.75 343.579 142.347 343.847 142.005C344.116 141.664 344.45 141.4 344.851 141.214C345.251 141.024 345.715 140.929 346.242 140.929C346.613 140.929 346.955 140.982 347.268 141.09C347.58 141.192 347.851 141.356 348.081 141.581C348.31 141.805 348.488 142.093 348.615 142.445C348.742 142.796 348.806 143.221 348.806 143.719V149H347.451V143.785C347.451 143.37 347.38 143.038 347.238 142.789C347.102 142.54 346.906 142.359 346.652 142.247C346.398 142.13 346.101 142.071 345.759 142.071C345.358 142.071 345.024 142.142 344.755 142.284C344.487 142.425 344.272 142.621 344.111 142.87C343.95 143.119 343.833 143.404 343.759 143.727C343.691 144.044 343.657 144.381 343.657 144.737ZM348.791 143.99L347.883 144.269C347.888 143.834 347.958 143.417 348.095 143.016C348.237 142.616 348.439 142.259 348.703 141.947C348.972 141.634 349.301 141.388 349.692 141.207C350.083 141.021 350.529 140.929 351.032 140.929C351.457 140.929 351.833 140.985 352.16 141.097C352.492 141.209 352.771 141.383 352.995 141.617C353.225 141.847 353.398 142.142 353.515 142.503C353.632 142.865 353.691 143.294 353.691 143.792V149H352.329V143.778C352.329 143.333 352.258 142.989 352.116 142.745C351.979 142.496 351.784 142.323 351.53 142.225C351.281 142.123 350.983 142.071 350.637 142.071C350.339 142.071 350.075 142.123 349.846 142.225C349.616 142.328 349.423 142.469 349.267 142.65C349.111 142.826 348.991 143.028 348.908 143.258C348.83 143.487 348.791 143.731 348.791 143.99ZM357.097 142.599V152.047H355.734V141.075H356.979L357.097 142.599ZM362.436 144.972V145.125C362.436 145.702 362.368 146.236 362.231 146.729C362.094 147.218 361.894 147.643 361.63 148.004C361.372 148.365 361.052 148.646 360.671 148.846C360.29 149.046 359.853 149.146 359.36 149.146C358.857 149.146 358.413 149.063 358.027 148.897C357.641 148.731 357.314 148.49 357.045 148.172C356.777 147.855 356.562 147.474 356.401 147.03C356.245 146.585 356.137 146.085 356.079 145.528V144.708C356.137 144.122 356.247 143.597 356.408 143.133C356.569 142.669 356.782 142.274 357.045 141.947C357.314 141.615 357.639 141.363 358.02 141.192C358.4 141.017 358.84 140.929 359.338 140.929C359.836 140.929 360.278 141.026 360.664 141.222C361.049 141.412 361.374 141.686 361.638 142.042C361.901 142.398 362.099 142.826 362.231 143.324C362.368 143.817 362.436 144.366 362.436 144.972ZM361.074 145.125V144.972C361.074 144.576 361.032 144.205 360.949 143.858C360.866 143.507 360.737 143.199 360.561 142.936C360.39 142.667 360.17 142.457 359.902 142.306C359.633 142.149 359.313 142.071 358.942 142.071C358.601 142.071 358.303 142.13 358.049 142.247C357.8 142.364 357.587 142.523 357.412 142.723C357.236 142.918 357.092 143.143 356.979 143.397C356.872 143.646 356.792 143.905 356.738 144.173V146.07C356.835 146.412 356.972 146.734 357.148 147.037C357.324 147.335 357.558 147.577 357.851 147.762C358.144 147.943 358.513 148.033 358.957 148.033C359.323 148.033 359.638 147.958 359.902 147.806C360.17 147.65 360.39 147.438 360.561 147.169C360.737 146.9 360.866 146.593 360.949 146.246C361.032 145.895 361.074 145.521 361.074 145.125ZM365.637 137.75V149H364.274V137.75H365.637ZM371.101 149.146C370.549 149.146 370.048 149.054 369.599 148.868C369.155 148.678 368.771 148.412 368.449 148.07C368.132 147.728 367.888 147.323 367.717 146.854C367.546 146.385 367.46 145.873 367.46 145.316V145.008C367.46 144.364 367.556 143.79 367.746 143.287C367.937 142.779 368.195 142.35 368.522 141.998C368.85 141.646 369.221 141.38 369.636 141.2C370.051 141.019 370.48 140.929 370.925 140.929C371.491 140.929 371.979 141.026 372.39 141.222C372.805 141.417 373.144 141.69 373.408 142.042C373.671 142.389 373.867 142.799 373.994 143.272C374.121 143.741 374.184 144.254 374.184 144.811V145.418H368.266V144.312H372.829V144.21C372.81 143.858 372.736 143.517 372.609 143.185C372.487 142.853 372.292 142.579 372.023 142.364C371.755 142.149 371.389 142.042 370.925 142.042C370.617 142.042 370.334 142.108 370.075 142.24C369.816 142.367 369.594 142.557 369.409 142.811C369.223 143.065 369.079 143.375 368.977 143.741C368.874 144.107 368.823 144.53 368.823 145.008V145.316C368.823 145.692 368.874 146.046 368.977 146.378C369.084 146.705 369.238 146.993 369.438 147.242C369.643 147.491 369.89 147.687 370.178 147.828C370.471 147.97 370.803 148.041 371.174 148.041C371.652 148.041 372.058 147.943 372.39 147.748C372.722 147.552 373.012 147.291 373.261 146.964L374.082 147.616C373.911 147.875 373.693 148.121 373.43 148.355C373.166 148.59 372.841 148.78 372.456 148.927C372.075 149.073 371.623 149.146 371.101 149.146ZM387.448 145.316C387.429 145.765 387.36 146.217 387.243 146.671C387.126 147.12 386.95 147.533 386.716 147.909C386.481 148.285 386.176 148.587 385.8 148.817C385.429 149.042 384.98 149.154 384.453 149.154C384.116 149.154 383.82 149.095 383.566 148.978C383.317 148.856 383.112 148.683 382.951 148.458C382.795 148.233 382.685 147.962 382.622 147.645C382.563 147.328 382.553 146.974 382.592 146.583L382.966 142.525H384.042L383.669 146.583C383.64 146.939 383.647 147.23 383.691 147.455C383.74 147.679 383.813 147.853 383.911 147.975C384.008 148.092 384.118 148.172 384.24 148.216C384.367 148.26 384.489 148.282 384.606 148.282C384.899 148.282 385.161 148.207 385.39 148.055C385.62 147.899 385.812 147.687 385.969 147.418C386.13 147.145 386.254 146.83 386.342 146.473C386.43 146.112 386.484 145.726 386.503 145.316C386.538 144.588 386.503 143.919 386.401 143.309C386.303 142.699 386.135 142.157 385.896 141.683C385.661 141.209 385.354 140.809 384.973 140.482C384.592 140.155 384.138 139.906 383.61 139.735C383.083 139.564 382.48 139.479 381.801 139.479C381.186 139.479 380.617 139.574 380.095 139.764C379.577 139.95 379.111 140.218 378.696 140.57C378.286 140.921 377.932 141.344 377.634 141.837C377.341 142.33 377.109 142.887 376.938 143.507C376.772 144.122 376.674 144.786 376.645 145.499C376.611 146.231 376.65 146.905 376.762 147.521C376.875 148.131 377.055 148.675 377.304 149.154C377.558 149.637 377.878 150.045 378.264 150.377C378.649 150.714 379.096 150.968 379.604 151.139C380.112 151.314 380.678 151.402 381.303 151.402C381.733 151.402 382.167 151.351 382.607 151.249C383.051 151.146 383.422 151.007 383.72 150.831L383.999 151.666C383.657 151.886 383.229 152.049 382.717 152.157C382.209 152.264 381.728 152.318 381.274 152.318C380.532 152.318 379.853 152.215 379.238 152.01C378.627 151.81 378.085 151.515 377.612 151.124C377.143 150.738 376.752 150.267 376.44 149.71C376.127 149.159 375.898 148.529 375.751 147.821C375.605 147.113 375.549 146.339 375.583 145.499C375.617 144.698 375.737 143.944 375.942 143.236C376.152 142.528 376.438 141.886 376.799 141.31C377.16 140.733 377.59 140.238 378.088 139.823C378.591 139.403 379.155 139.081 379.78 138.856C380.41 138.631 381.093 138.519 381.831 138.519C382.583 138.519 383.264 138.622 383.874 138.827C384.484 139.032 385.019 139.327 385.478 139.713C385.942 140.099 386.325 140.57 386.628 141.126C386.931 141.683 387.15 142.313 387.287 143.016C387.429 143.719 387.482 144.486 387.448 145.316ZM379.926 145.938C379.892 146.28 379.892 146.585 379.926 146.854C379.96 147.123 380.026 147.35 380.124 147.535C380.222 147.721 380.349 147.862 380.505 147.96C380.666 148.053 380.854 148.099 381.069 148.099C381.21 148.099 381.359 148.065 381.516 147.997C381.672 147.923 381.826 147.811 381.977 147.66C382.128 147.508 382.27 147.311 382.402 147.066C382.534 146.822 382.644 146.529 382.731 146.188L383.215 146.715C383.103 147.115 382.956 147.467 382.775 147.77C382.6 148.072 382.402 148.326 382.182 148.531C381.962 148.736 381.728 148.893 381.479 149C381.235 149.103 380.986 149.154 380.732 149.154C380.375 149.154 380.063 149.078 379.794 148.927C379.526 148.771 379.309 148.551 379.143 148.268C378.977 147.984 378.859 147.647 378.791 147.257C378.728 146.861 378.718 146.422 378.762 145.938C378.806 145.426 378.896 144.952 379.033 144.518C379.169 144.083 379.338 143.695 379.538 143.353C379.743 143.011 379.973 142.721 380.227 142.481C380.485 142.242 380.759 142.062 381.047 141.939C381.335 141.812 381.63 141.749 381.933 141.749C382.46 141.749 382.875 141.827 383.178 141.983C383.481 142.135 383.769 142.315 384.042 142.525L383.42 143.25C383.278 143.114 383.093 142.987 382.863 142.87C382.634 142.752 382.363 142.694 382.05 142.694C381.782 142.694 381.53 142.762 381.296 142.899C381.062 143.036 380.849 143.241 380.659 143.514C380.473 143.788 380.317 144.127 380.19 144.532C380.063 144.933 379.975 145.401 379.926 145.938ZM392.531 149.146C391.979 149.146 391.479 149.054 391.03 148.868C390.585 148.678 390.202 148.412 389.88 148.07C389.562 147.728 389.318 147.323 389.147 146.854C388.977 146.385 388.891 145.873 388.891 145.316V145.008C388.891 144.364 388.986 143.79 389.177 143.287C389.367 142.779 389.626 142.35 389.953 141.998C390.28 141.646 390.651 141.38 391.066 141.2C391.481 141.019 391.911 140.929 392.355 140.929C392.922 140.929 393.41 141.026 393.82 141.222C394.235 141.417 394.575 141.69 394.838 142.042C395.102 142.389 395.297 142.799 395.424 143.272C395.551 143.741 395.615 144.254 395.615 144.811V145.418H389.697V144.312H394.26V144.21C394.24 143.858 394.167 143.517 394.04 143.185C393.918 142.853 393.723 142.579 393.454 142.364C393.186 142.149 392.819 142.042 392.355 142.042C392.048 142.042 391.765 142.108 391.506 142.24C391.247 142.367 391.025 142.557 390.839 142.811C390.654 143.065 390.51 143.375 390.407 143.741C390.305 144.107 390.253 144.53 390.253 145.008V145.316C390.253 145.692 390.305 146.046 390.407 146.378C390.515 146.705 390.668 146.993 390.869 147.242C391.074 147.491 391.32 147.687 391.608 147.828C391.901 147.97 392.233 148.041 392.604 148.041C393.083 148.041 393.488 147.943 393.82 147.748C394.152 147.552 394.443 147.291 394.692 146.964L395.512 147.616C395.341 147.875 395.124 148.121 394.86 148.355C394.597 148.59 394.272 148.78 393.886 148.927C393.505 149.073 393.054 149.146 392.531 149.146ZM398.544 142.65V149H397.182V141.075H398.471L398.544 142.65ZM398.266 144.737L397.636 144.715C397.641 144.173 397.712 143.673 397.849 143.214C397.985 142.75 398.188 142.347 398.457 142.005C398.725 141.664 399.06 141.4 399.46 141.214C399.86 141.024 400.324 140.929 400.852 140.929C401.223 140.929 401.564 140.982 401.877 141.09C402.189 141.192 402.46 141.356 402.69 141.581C402.919 141.805 403.098 142.093 403.225 142.445C403.352 142.796 403.415 143.221 403.415 143.719V149H402.06V143.785C402.06 143.37 401.989 143.038 401.848 142.789C401.711 142.54 401.516 142.359 401.262 142.247C401.008 142.13 400.71 142.071 400.368 142.071C399.968 142.071 399.633 142.142 399.365 142.284C399.096 142.425 398.881 142.621 398.72 142.87C398.559 143.119 398.442 143.404 398.369 143.727C398.3 144.044 398.266 144.381 398.266 144.737ZM403.4 143.99L402.492 144.269C402.497 143.834 402.568 143.417 402.705 143.016C402.846 142.616 403.049 142.259 403.312 141.947C403.581 141.634 403.911 141.388 404.301 141.207C404.692 141.021 405.139 140.929 405.642 140.929C406.066 140.929 406.442 140.985 406.77 141.097C407.102 141.209 407.38 141.383 407.604 141.617C407.834 141.847 408.007 142.142 408.125 142.503C408.242 142.865 408.3 143.294 408.3 143.792V149H406.938V143.778C406.938 143.333 406.867 142.989 406.726 142.745C406.589 142.496 406.394 142.323 406.14 142.225C405.891 142.123 405.593 142.071 405.246 142.071C404.948 142.071 404.685 142.123 404.455 142.225C404.226 142.328 404.033 142.469 403.876 142.65C403.72 142.826 403.601 143.028 403.518 143.258C403.439 143.487 403.4 143.731 403.4 143.99ZM415.024 147.645V143.565C415.024 143.253 414.96 142.982 414.833 142.752C414.711 142.518 414.526 142.337 414.277 142.21C414.028 142.083 413.72 142.02 413.354 142.02C413.012 142.02 412.712 142.079 412.453 142.196C412.199 142.313 411.999 142.467 411.853 142.657C411.711 142.848 411.64 143.053 411.64 143.272H410.285C410.285 142.989 410.358 142.708 410.505 142.43C410.651 142.152 410.861 141.9 411.135 141.676C411.413 141.446 411.745 141.266 412.131 141.134C412.521 140.997 412.956 140.929 413.435 140.929C414.011 140.929 414.519 141.026 414.958 141.222C415.402 141.417 415.749 141.712 415.998 142.108C416.252 142.499 416.379 142.989 416.379 143.58V147.271C416.379 147.535 416.401 147.816 416.445 148.114C416.494 148.412 416.564 148.668 416.657 148.883V149H415.244C415.175 148.844 415.122 148.636 415.083 148.377C415.043 148.114 415.024 147.87 415.024 147.645ZM415.258 144.195L415.273 145.147H413.903C413.518 145.147 413.173 145.179 412.871 145.243C412.568 145.301 412.314 145.392 412.109 145.514C411.904 145.636 411.748 145.79 411.64 145.975C411.533 146.156 411.479 146.368 411.479 146.612C411.479 146.861 411.535 147.088 411.647 147.293C411.76 147.499 411.928 147.662 412.153 147.784C412.382 147.901 412.663 147.96 412.995 147.96C413.41 147.96 413.776 147.872 414.094 147.696C414.411 147.521 414.663 147.306 414.848 147.052C415.039 146.798 415.141 146.551 415.156 146.312L415.734 146.964C415.7 147.169 415.607 147.396 415.456 147.645C415.305 147.894 415.102 148.133 414.848 148.363C414.599 148.587 414.301 148.775 413.955 148.927C413.613 149.073 413.227 149.146 412.797 149.146C412.26 149.146 411.789 149.042 411.384 148.832C410.983 148.622 410.671 148.341 410.446 147.989C410.227 147.633 410.117 147.235 410.117 146.795C410.117 146.371 410.2 145.997 410.366 145.675C410.532 145.348 410.771 145.077 411.083 144.862C411.396 144.642 411.772 144.476 412.211 144.364C412.651 144.251 413.142 144.195 413.684 144.195H415.258ZM419.982 141.075V149H418.62V141.075H419.982ZM418.518 138.973C418.518 138.753 418.583 138.568 418.715 138.417C418.852 138.265 419.052 138.189 419.316 138.189C419.575 138.189 419.772 138.265 419.909 138.417C420.051 138.568 420.122 138.753 420.122 138.973C420.122 139.183 420.051 139.364 419.909 139.515C419.772 139.662 419.575 139.735 419.316 139.735C419.052 139.735 418.852 139.662 418.715 139.515C418.583 139.364 418.518 139.183 418.518 138.973ZM423.63 137.75V149H422.268V137.75H423.63ZM425.827 148.282C425.827 148.053 425.898 147.86 426.04 147.704C426.186 147.542 426.396 147.462 426.669 147.462C426.943 147.462 427.15 147.542 427.292 147.704C427.438 147.86 427.512 148.053 427.512 148.282C427.512 148.507 427.438 148.697 427.292 148.854C427.15 149.01 426.943 149.088 426.669 149.088C426.396 149.088 426.186 149.01 426.04 148.854C425.898 148.697 425.827 148.507 425.827 148.282ZM432.932 148.033C433.254 148.033 433.552 147.967 433.825 147.835C434.099 147.704 434.323 147.523 434.499 147.293C434.675 147.059 434.775 146.793 434.799 146.495H436.088C436.064 146.964 435.905 147.401 435.612 147.806C435.324 148.207 434.946 148.531 434.477 148.78C434.008 149.024 433.493 149.146 432.932 149.146C432.336 149.146 431.816 149.042 431.372 148.832C430.932 148.622 430.566 148.333 430.273 147.967C429.985 147.601 429.768 147.181 429.621 146.708C429.479 146.229 429.409 145.724 429.409 145.191V144.884C429.409 144.352 429.479 143.849 429.621 143.375C429.768 142.896 429.985 142.474 430.273 142.108C430.566 141.742 430.932 141.454 431.372 141.244C431.816 141.034 432.336 140.929 432.932 140.929C433.552 140.929 434.094 141.056 434.558 141.31C435.021 141.559 435.385 141.9 435.649 142.335C435.917 142.765 436.064 143.253 436.088 143.8H434.799C434.775 143.473 434.682 143.177 434.521 142.914C434.365 142.65 434.15 142.44 433.876 142.284C433.608 142.123 433.293 142.042 432.932 142.042C432.517 142.042 432.167 142.125 431.884 142.291C431.606 142.452 431.384 142.672 431.218 142.95C431.057 143.224 430.939 143.529 430.866 143.866C430.798 144.198 430.764 144.537 430.764 144.884V145.191C430.764 145.538 430.798 145.88 430.866 146.217C430.935 146.554 431.049 146.859 431.21 147.132C431.376 147.406 431.599 147.625 431.877 147.792C432.16 147.953 432.512 148.033 432.932 148.033ZM437.253 145.125V144.957C437.253 144.386 437.336 143.856 437.502 143.368C437.668 142.875 437.907 142.447 438.22 142.086C438.532 141.72 438.911 141.437 439.355 141.236C439.799 141.031 440.297 140.929 440.849 140.929C441.406 140.929 441.906 141.031 442.351 141.236C442.8 141.437 443.181 141.72 443.493 142.086C443.811 142.447 444.052 142.875 444.218 143.368C444.384 143.856 444.467 144.386 444.467 144.957V145.125C444.467 145.697 444.384 146.227 444.218 146.715C444.052 147.203 443.811 147.63 443.493 147.997C443.181 148.358 442.802 148.641 442.358 148.846C441.918 149.046 441.42 149.146 440.864 149.146C440.307 149.146 439.807 149.046 439.362 148.846C438.918 148.641 438.537 148.358 438.22 147.997C437.907 147.63 437.668 147.203 437.502 146.715C437.336 146.227 437.253 145.697 437.253 145.125ZM438.608 144.957V145.125C438.608 145.521 438.654 145.895 438.747 146.246C438.84 146.593 438.979 146.9 439.165 147.169C439.355 147.438 439.592 147.65 439.875 147.806C440.158 147.958 440.488 148.033 440.864 148.033C441.235 148.033 441.56 147.958 441.838 147.806C442.121 147.65 442.355 147.438 442.541 147.169C442.727 146.9 442.866 146.593 442.958 146.246C443.056 145.895 443.105 145.521 443.105 145.125V144.957C443.105 144.566 443.056 144.198 442.958 143.851C442.866 143.5 442.724 143.189 442.534 142.921C442.348 142.647 442.114 142.433 441.831 142.276C441.552 142.12 441.225 142.042 440.849 142.042C440.478 142.042 440.151 142.12 439.868 142.276C439.589 142.433 439.355 142.647 439.165 142.921C438.979 143.189 438.84 143.5 438.747 143.851C438.654 144.198 438.608 144.566 438.608 144.957ZM447.514 142.65V149H446.152V141.075H447.441L447.514 142.65ZM447.236 144.737L446.606 144.715C446.611 144.173 446.682 143.673 446.818 143.214C446.955 142.75 447.158 142.347 447.426 142.005C447.695 141.664 448.029 141.4 448.43 141.214C448.83 141.024 449.294 140.929 449.821 140.929C450.192 140.929 450.534 140.982 450.847 141.09C451.159 141.192 451.43 141.356 451.66 141.581C451.889 141.805 452.067 142.093 452.194 142.445C452.321 142.796 452.385 143.221 452.385 143.719V149H451.03V143.785C451.03 143.37 450.959 143.038 450.817 142.789C450.681 142.54 450.485 142.359 450.231 142.247C449.978 142.13 449.68 142.071 449.338 142.071C448.938 142.071 448.603 142.142 448.334 142.284C448.066 142.425 447.851 142.621 447.69 142.87C447.529 143.119 447.412 143.404 447.338 143.727C447.27 144.044 447.236 144.381 447.236 144.737ZM452.37 143.99L451.462 144.269C451.467 143.834 451.538 143.417 451.674 143.016C451.816 142.616 452.019 142.259 452.282 141.947C452.551 141.634 452.88 141.388 453.271 141.207C453.662 141.021 454.108 140.929 454.611 140.929C455.036 140.929 455.412 140.985 455.739 141.097C456.071 141.209 456.35 141.383 456.574 141.617C456.804 141.847 456.977 142.142 457.094 142.503C457.211 142.865 457.27 143.294 457.27 143.792V149H455.908V143.778C455.908 143.333 455.837 142.989 455.695 142.745C455.559 142.496 455.363 142.323 455.109 142.225C454.86 142.123 454.562 142.071 454.216 142.071C453.918 142.071 453.654 142.123 453.425 142.225C453.195 142.328 453.002 142.469 452.846 142.65C452.69 142.826 452.57 143.028 452.487 143.258C452.409 143.487 452.37 143.731 452.37 143.99Z" fill="#505050"/>
<path d="M772 144C772 144.51 771.587 144.923 771.077 144.923H766.923V149.077C766.923 149.588 766.51 150 766 150C765.49 150 765.077 149.588 765.077 149.077V144.923H760.923C760.413 144.923 760 144.51 760 144C760 143.49 760.413 143.077 760.923 143.077H765.077V138.923C765.077 138.413 765.49 138 766 138C766.51 138 766.923 138.413 766.923 138.923V143.077H771.077C771.588 143.077 772 143.489 772 144Z" fill="#1A1A1A"/>
<path d="M54 112.5H798C802.142 112.5 805.5 115.858 805.5 120V168C805.5 172.142 802.142 175.5 798 175.5H54C49.8579 175.5 46.5 172.142 46.5 168V120C46.5 115.858 49.8579 112.5 54 112.5Z" stroke="#E6E6E6"/>
<rect x="155" y="68" width="24" height="24" rx="12" fill="#286EF1"/>
<path d="M170.199 82.7812V84H164.004V82.9526L167.013 79.6709C167.343 79.2985 167.603 78.9769 167.793 78.7061C167.984 78.4352 168.117 78.1919 168.193 77.9761C168.274 77.756 168.314 77.5423 168.314 77.335C168.314 77.043 168.259 76.7869 168.149 76.5669C168.043 76.3426 167.887 76.167 167.679 76.04C167.472 75.9089 167.22 75.8433 166.924 75.8433C166.581 75.8433 166.293 75.9173 166.061 76.0654C165.828 76.2135 165.652 76.4188 165.534 76.6812C165.415 76.9393 165.356 77.2355 165.356 77.5698H163.826C163.826 77.0324 163.949 76.5415 164.194 76.0972C164.44 75.6486 164.795 75.2931 165.261 75.0308C165.726 74.7642 166.287 74.6309 166.943 74.6309C167.561 74.6309 168.085 74.7345 168.517 74.9419C168.949 75.1493 169.277 75.4434 169.501 75.8242C169.729 76.2051 169.844 76.6558 169.844 77.1763C169.844 77.464 169.797 77.7497 169.704 78.0332C169.611 78.3167 169.478 78.6003 169.304 78.8838C169.135 79.1631 168.934 79.4445 168.701 79.728C168.468 80.0073 168.212 80.2909 167.933 80.5786L165.934 82.7812H170.199Z" fill="white"/>
<line x1="167.5" y1="92" x2="167.5" y2="126" stroke="#0059FF"/>
<rect x="382" y="68" width="24" height="24" rx="12" fill="#286EF1"/>
<path d="M392.8 78.687H393.714C394.07 78.687 394.364 78.6257 394.597 78.5029C394.834 78.3802 395.009 78.2109 395.124 77.9951C395.238 77.7793 395.295 77.5317 395.295 77.2524C395.295 76.9604 395.242 76.7108 395.136 76.5034C395.035 76.2918 394.878 76.1289 394.667 76.0146C394.459 75.9004 394.195 75.8433 393.873 75.8433C393.602 75.8433 393.357 75.8983 393.137 76.0083C392.921 76.1141 392.75 76.2664 392.623 76.4653C392.496 76.66 392.432 76.8927 392.432 77.1636H390.896C390.896 76.6727 391.025 76.2368 391.283 75.856C391.541 75.4751 391.893 75.1768 392.337 74.9609C392.785 74.7409 393.289 74.6309 393.848 74.6309C394.444 74.6309 394.965 74.7303 395.409 74.9292C395.858 75.1239 396.207 75.4159 396.457 75.8052C396.706 76.1945 396.831 76.6769 396.831 77.2524C396.831 77.5148 396.77 77.7814 396.647 78.0522C396.524 78.3231 396.342 78.5706 396.101 78.7949C395.86 79.015 395.559 79.1948 395.2 79.3345C394.84 79.4699 394.423 79.5376 393.949 79.5376H392.8V78.687ZM392.8 79.8804V79.0425H393.949C394.491 79.0425 394.952 79.106 395.333 79.2329C395.718 79.3599 396.031 79.5355 396.272 79.7598C396.514 79.9798 396.689 80.2316 396.799 80.5151C396.914 80.7987 396.971 81.0991 396.971 81.4165C396.971 81.8481 396.892 82.2332 396.736 82.5718C396.583 82.9061 396.366 83.1896 396.082 83.4224C395.799 83.6551 395.466 83.8307 395.085 83.9492C394.709 84.0677 394.298 84.127 393.854 84.127C393.456 84.127 393.075 84.0719 392.711 83.9619C392.347 83.8519 392.022 83.689 391.734 83.4731C391.446 83.2531 391.218 82.9801 391.048 82.6543C390.883 82.3242 390.801 81.9434 390.801 81.5117H392.331C392.331 81.7868 392.394 82.0301 392.521 82.2417C392.652 82.4491 392.834 82.612 393.067 82.7305C393.304 82.849 393.575 82.9082 393.879 82.9082C394.201 82.9082 394.478 82.8511 394.711 82.7368C394.944 82.6226 395.121 82.4533 395.244 82.229C395.371 82.0047 395.435 81.7339 395.435 81.4165C395.435 81.0568 395.365 80.7648 395.225 80.5405C395.085 80.3162 394.887 80.1512 394.628 80.0454C394.37 79.9354 394.066 79.8804 393.714 79.8804H392.8Z" fill="white"/>
<line x1="394.5" y1="92" x2="394.5" y2="126" stroke="#0059FF"/>
<rect x="754" y="68" width="24" height="24" rx="12" fill="#286EF1"/>
<path d="M769.371 80.7056V81.9243H762.706L762.655 81.0039L766.641 74.7578H767.866L766.54 77.0303L764.248 80.7056H769.371ZM768.215 74.7578V84H766.686V74.7578H768.215Z" fill="white"/>
<line x1="766.5" y1="92" x2="766.5" y2="126" stroke="#0059FF"/>
<rect x="74" y="68" width="24" height="24" rx="12" fill="#286EF1"/>
<path d="M87.1807 74.7261V84H85.6509V76.5415L83.3848 77.3096V76.0464L86.9966 74.7261H87.1807Z" fill="white"/>
<line x1="86.5" y1="92" x2="86.5" y2="126" stroke="#0059FF"/>
</svg>
