<svg width="1240" height="170" viewBox="0 0 1240 170" fill="none" xmlns="http://www.w3.org/2000/svg">
<rect x="0.5" y="0.5" width="1239" height="169" rx="15.5" fill="#F8F8F8"/>
<rect x="645" y="51" width="296" height="80" rx="16" fill="white"/>
<path d="M687.25 96C687.047 96 686.867 95.933 686.711 95.7991L682.211 91.5134C682.07 91.3646 682 91.1935 682 91C682 90.8065 682.07 90.6354 682.211 90.4866L686.711 86.2009C686.867 86.067 687.047 86 687.25 86C687.453 86 687.633 86.067 687.789 86.2009C687.93 86.3497 688 86.5208 688 86.7143C688 86.9077 687.93 87.0789 687.789 87.2277L683.805 91L687.789 94.7723C687.93 94.9211 688 95.0923 688 95.2857C688 95.4792 687.93 95.6503 687.789 95.7991C687.633 95.933 687.453 96 687.25 96Z" fill="#AAAAAA"/>
<rect x="705" y="75" width="32" height="32" rx="4" fill="#F2F2F2"/>
<path d="M722.181 85.7261V95H720.651V87.5415L718.385 88.3096V87.0464L721.997 85.7261H722.181Z" fill="#1A1A1A"/>
<path d="M760.199 93.7812V95H754.004V93.9526L757.013 90.6709C757.343 90.2985 757.603 89.9769 757.793 89.7061C757.984 89.4352 758.117 89.1919 758.193 88.9761C758.274 88.756 758.314 88.5423 758.314 88.335C758.314 88.043 758.259 87.7869 758.149 87.5669C758.043 87.3426 757.887 87.167 757.679 87.04C757.472 86.9089 757.22 86.8433 756.924 86.8433C756.581 86.8433 756.293 86.9173 756.061 87.0654C755.828 87.2135 755.652 87.4188 755.534 87.6812C755.415 87.9393 755.356 88.2355 755.356 88.5698H753.826C753.826 88.0324 753.949 87.5415 754.194 87.0972C754.44 86.6486 754.795 86.2931 755.261 86.0308C755.726 85.7642 756.287 85.6309 756.943 85.6309C757.561 85.6309 758.085 85.7345 758.517 85.9419C758.949 86.1493 759.277 86.4434 759.501 86.8242C759.729 87.2051 759.844 87.6558 759.844 88.1763C759.844 88.464 759.797 88.7497 759.704 89.0332C759.611 89.3167 759.478 89.6003 759.304 89.8838C759.135 90.1631 758.934 90.4445 758.701 90.728C758.468 91.0073 758.212 91.2909 757.933 91.5786L755.934 93.7812H760.199Z" fill="#505050"/>
<path d="M791.8 89.687H792.714C793.07 89.687 793.364 89.6257 793.597 89.5029C793.834 89.3802 794.009 89.2109 794.124 88.9951C794.238 88.7793 794.295 88.5317 794.295 88.2524C794.295 87.9604 794.242 87.7108 794.136 87.5034C794.035 87.2918 793.878 87.1289 793.667 87.0146C793.459 86.9004 793.195 86.8433 792.873 86.8433C792.602 86.8433 792.357 86.8983 792.137 87.0083C791.921 87.1141 791.75 87.2664 791.623 87.4653C791.496 87.66 791.432 87.8927 791.432 88.1636H789.896C789.896 87.6727 790.025 87.2368 790.283 86.856C790.541 86.4751 790.893 86.1768 791.337 85.9609C791.785 85.7409 792.289 85.6309 792.848 85.6309C793.444 85.6309 793.965 85.7303 794.409 85.9292C794.858 86.1239 795.207 86.4159 795.457 86.8052C795.706 87.1945 795.831 87.6769 795.831 88.2524C795.831 88.5148 795.77 88.7814 795.647 89.0522C795.524 89.3231 795.342 89.5706 795.101 89.7949C794.86 90.015 794.559 90.1948 794.2 90.3345C793.84 90.4699 793.423 90.5376 792.949 90.5376H791.8V89.687ZM791.8 90.8804V90.0425H792.949C793.491 90.0425 793.952 90.106 794.333 90.2329C794.718 90.3599 795.031 90.5355 795.272 90.7598C795.514 90.9798 795.689 91.2316 795.799 91.5151C795.914 91.7987 795.971 92.0991 795.971 92.4165C795.971 92.8481 795.892 93.2332 795.736 93.5718C795.583 93.9061 795.366 94.1896 795.082 94.4224C794.799 94.6551 794.466 94.8307 794.085 94.9492C793.709 95.0677 793.298 95.127 792.854 95.127C792.456 95.127 792.075 95.0719 791.711 94.9619C791.347 94.8519 791.022 94.689 790.734 94.4731C790.446 94.2531 790.218 93.9801 790.048 93.6543C789.883 93.3242 789.801 92.9434 789.801 92.5117H791.331C791.331 92.7868 791.394 93.0301 791.521 93.2417C791.652 93.4491 791.834 93.612 792.067 93.7305C792.304 93.849 792.575 93.9082 792.879 93.9082C793.201 93.9082 793.478 93.8511 793.711 93.7368C793.944 93.6226 794.121 93.4533 794.244 93.229C794.371 93.0047 794.435 92.7339 794.435 92.4165C794.435 92.0568 794.365 91.7648 794.225 91.5405C794.085 91.3162 793.887 91.1512 793.628 91.0454C793.37 90.9354 793.066 90.8804 792.714 90.8804H791.8Z" fill="#505050"/>
<path d="M824.423 94.2383C824.423 94.0013 824.504 93.8024 824.665 93.6416C824.825 93.4766 825.043 93.394 825.318 93.394C825.598 93.394 825.816 93.4766 825.972 93.6416C826.133 93.8024 826.213 94.0013 826.213 94.2383C826.213 94.4753 826.133 94.6742 825.972 94.835C825.816 94.9958 825.598 95.0762 825.318 95.0762C825.043 95.0762 824.825 94.9958 824.665 94.835C824.504 94.6742 824.423 94.4753 824.423 94.2383ZM828.042 94.2383C828.042 94.0013 828.122 93.8024 828.283 93.6416C828.444 93.4766 828.661 93.394 828.937 93.394C829.216 93.394 829.434 93.4766 829.59 93.6416C829.751 93.8024 829.832 94.0013 829.832 94.2383C829.832 94.4753 829.751 94.6742 829.59 94.835C829.434 94.9958 829.216 95.0762 828.937 95.0762C828.661 95.0762 828.444 94.9958 828.283 94.835C828.122 94.6742 828.042 94.4753 828.042 94.2383ZM831.66 94.2383C831.66 94.0013 831.74 93.8024 831.901 93.6416C832.062 93.4766 832.28 93.394 832.555 93.394C832.834 93.394 833.052 93.4766 833.208 93.6416C833.369 93.8024 833.45 94.0013 833.45 94.2383C833.45 94.4753 833.369 94.6742 833.208 94.835C833.052 94.9958 832.834 95.0762 832.555 95.0762C832.28 95.0762 832.062 94.9958 831.901 94.835C831.74 94.6742 831.66 94.4753 831.66 94.2383Z" fill="#505050"/>
<path d="M864.505 93.7812V95H858.31V93.9526L861.318 90.6709C861.648 90.2985 861.909 89.9769 862.099 89.7061C862.29 89.4352 862.423 89.1919 862.499 88.9761C862.579 88.756 862.62 88.5423 862.62 88.335C862.62 88.043 862.565 87.7869 862.455 87.5669C862.349 87.3426 862.192 87.167 861.985 87.04C861.778 86.9089 861.526 86.8433 861.229 86.8433C860.887 86.8433 860.599 86.9173 860.366 87.0654C860.133 87.2135 859.958 87.4188 859.839 87.6812C859.721 87.9393 859.662 88.2355 859.662 88.5698H858.132C858.132 88.0324 858.255 87.5415 858.5 87.0972C858.745 86.6486 859.101 86.2931 859.566 86.0308C860.032 85.7642 860.593 85.6309 861.249 85.6309C861.866 85.6309 862.391 85.7345 862.823 85.9419C863.254 86.1493 863.582 86.4434 863.807 86.8242C864.035 87.2051 864.149 87.6558 864.149 88.1763C864.149 88.464 864.103 88.7497 864.01 89.0332C863.917 89.3167 863.783 89.6003 863.61 89.8838C863.441 90.1631 863.24 90.4445 863.007 90.728C862.774 91.0073 862.518 91.2909 862.239 91.5786L860.239 93.7812H864.505ZM869.875 85.7261V95H868.345V87.5415L866.079 88.3096V87.0464L869.691 85.7261H869.875Z" fill="#505050"/>
<path d="M898.75 96C898.547 96 898.367 95.933 898.211 95.7991C898.07 95.6503 898 95.4792 898 95.2857C898 95.0923 898.07 94.9211 898.211 94.7723L902.195 91L898.211 87.2277C898.07 87.0789 898 86.9077 898 86.7143C898 86.5208 898.07 86.3497 898.211 86.2009C898.367 86.067 898.547 86 898.75 86C898.953 86 899.133 86.067 899.289 86.2009L903.789 90.4866C903.93 90.6354 904 90.8065 904 91C904 91.1935 903.93 91.3646 903.789 91.5134L899.289 95.7991C899.133 95.933 898.953 96 898.75 96Z" fill="#505050"/>
<rect x="299" y="51" width="296" height="80" rx="16" fill="white"/>
<g opacity="0.2">
<path d="M341.25 96C341.047 96 340.867 95.933 340.711 95.7991L336.211 91.5134C336.07 91.3646 336 91.1935 336 91C336 90.8065 336.07 90.6354 336.211 90.4866L340.711 86.2009C340.867 86.067 341.047 86 341.25 86C341.453 86 341.633 86.067 341.789 86.2009C341.93 86.3497 342 86.5208 342 86.7143C342 86.9077 341.93 87.0789 341.789 87.2277L337.805 91L341.789 94.7723C341.93 94.9211 342 95.0923 342 95.2857C342 95.4792 341.93 95.6503 341.789 95.7991C341.633 95.933 341.453 96 341.25 96Z" fill="#AAAAAA"/>
</g>
<g opacity="0.2">
<rect x="359" y="75" width="32" height="32" rx="4" fill="#F2F2F2"/>
<path d="M376.181 85.7261V95H374.651V87.5415L372.385 88.3096V87.0464L375.997 85.7261H376.181Z" fill="#1A1A1A"/>
</g>
<path d="M414.199 93.7812V95H408.004V93.9526L411.013 90.6709C411.343 90.2985 411.603 89.9769 411.793 89.7061C411.984 89.4352 412.117 89.1919 412.193 88.9761C412.274 88.756 412.314 88.5423 412.314 88.335C412.314 88.043 412.259 87.7869 412.149 87.5669C412.043 87.3426 411.887 87.167 411.679 87.04C411.472 86.9089 411.22 86.8433 410.924 86.8433C410.581 86.8433 410.293 86.9173 410.061 87.0654C409.828 87.2135 409.652 87.4188 409.534 87.6812C409.415 87.9393 409.356 88.2355 409.356 88.5698H407.826C407.826 88.0324 407.949 87.5415 408.194 87.0972C408.44 86.6486 408.795 86.2931 409.261 86.0308C409.726 85.7642 410.287 85.6309 410.943 85.6309C411.561 85.6309 412.085 85.7345 412.517 85.9419C412.949 86.1493 413.277 86.4434 413.501 86.8242C413.729 87.2051 413.844 87.6558 413.844 88.1763C413.844 88.464 413.797 88.7497 413.704 89.0332C413.611 89.3167 413.478 89.6003 413.304 89.8838C413.135 90.1631 412.934 90.4445 412.701 90.728C412.468 91.0073 412.212 91.2909 411.933 91.5786L409.934 93.7812H414.199Z" fill="#505050"/>
<g opacity="0.2">
<path d="M445.8 89.687H446.714C447.07 89.687 447.364 89.6257 447.597 89.5029C447.834 89.3802 448.009 89.2109 448.124 88.9951C448.238 88.7793 448.295 88.5317 448.295 88.2524C448.295 87.9604 448.242 87.7108 448.136 87.5034C448.035 87.2918 447.878 87.1289 447.667 87.0146C447.459 86.9004 447.195 86.8433 446.873 86.8433C446.602 86.8433 446.357 86.8983 446.137 87.0083C445.921 87.1141 445.75 87.2664 445.623 87.4653C445.496 87.66 445.432 87.8927 445.432 88.1636H443.896C443.896 87.6727 444.025 87.2368 444.283 86.856C444.541 86.4751 444.893 86.1768 445.337 85.9609C445.785 85.7409 446.289 85.6309 446.848 85.6309C447.444 85.6309 447.965 85.7303 448.409 85.9292C448.858 86.1239 449.207 86.4159 449.457 86.8052C449.706 87.1945 449.831 87.6769 449.831 88.2524C449.831 88.5148 449.77 88.7814 449.647 89.0522C449.524 89.3231 449.342 89.5706 449.101 89.7949C448.86 90.015 448.559 90.1948 448.2 90.3345C447.84 90.4699 447.423 90.5376 446.949 90.5376H445.8V89.687ZM445.8 90.8804V90.0425H446.949C447.491 90.0425 447.952 90.106 448.333 90.2329C448.718 90.3599 449.031 90.5355 449.272 90.7598C449.514 90.9798 449.689 91.2316 449.799 91.5151C449.914 91.7987 449.971 92.0991 449.971 92.4165C449.971 92.8481 449.892 93.2332 449.736 93.5718C449.583 93.9061 449.366 94.1896 449.082 94.4224C448.799 94.6551 448.466 94.8307 448.085 94.9492C447.709 95.0677 447.298 95.127 446.854 95.127C446.456 95.127 446.075 95.0719 445.711 94.9619C445.347 94.8519 445.022 94.689 444.734 94.4731C444.446 94.2531 444.218 93.9801 444.048 93.6543C443.883 93.3242 443.801 92.9434 443.801 92.5117H445.331C445.331 92.7868 445.394 93.0301 445.521 93.2417C445.652 93.4491 445.834 93.612 446.067 93.7305C446.304 93.849 446.575 93.9082 446.879 93.9082C447.201 93.9082 447.478 93.8511 447.711 93.7368C447.944 93.6226 448.121 93.4533 448.244 93.229C448.371 93.0047 448.435 92.7339 448.435 92.4165C448.435 92.0568 448.365 91.7648 448.225 91.5405C448.085 91.3162 447.887 91.1512 447.628 91.0454C447.37 90.9354 447.066 90.8804 446.714 90.8804H445.8Z" fill="#505050"/>
</g>
<g opacity="0.2">
<path d="M478.423 94.2383C478.423 94.0013 478.504 93.8024 478.665 93.6416C478.825 93.4766 479.043 93.394 479.318 93.394C479.598 93.394 479.816 93.4766 479.972 93.6416C480.133 93.8024 480.213 94.0013 480.213 94.2383C480.213 94.4753 480.133 94.6742 479.972 94.835C479.816 94.9958 479.598 95.0762 479.318 95.0762C479.043 95.0762 478.825 94.9958 478.665 94.835C478.504 94.6742 478.423 94.4753 478.423 94.2383ZM482.042 94.2383C482.042 94.0013 482.122 93.8024 482.283 93.6416C482.444 93.4766 482.661 93.394 482.937 93.394C483.216 93.394 483.434 93.4766 483.59 93.6416C483.751 93.8024 483.832 94.0013 483.832 94.2383C483.832 94.4753 483.751 94.6742 483.59 94.835C483.434 94.9958 483.216 95.0762 482.937 95.0762C482.661 95.0762 482.444 94.9958 482.283 94.835C482.122 94.6742 482.042 94.4753 482.042 94.2383ZM485.66 94.2383C485.66 94.0013 485.74 93.8024 485.901 93.6416C486.062 93.4766 486.28 93.394 486.555 93.394C486.834 93.394 487.052 93.4766 487.208 93.6416C487.369 93.8024 487.45 94.0013 487.45 94.2383C487.45 94.4753 487.369 94.6742 487.208 94.835C487.052 94.9958 486.834 95.0762 486.555 95.0762C486.28 95.0762 486.062 94.9958 485.901 94.835C485.74 94.6742 485.66 94.4753 485.66 94.2383Z" fill="#505050"/>
</g>
<g opacity="0.2">
<path d="M518.505 93.7812V95H512.31V93.9526L515.318 90.6709C515.648 90.2985 515.909 89.9769 516.099 89.7061C516.29 89.4352 516.423 89.1919 516.499 88.9761C516.579 88.756 516.62 88.5423 516.62 88.335C516.62 88.043 516.565 87.7869 516.455 87.5669C516.349 87.3426 516.192 87.167 515.985 87.04C515.778 86.9089 515.526 86.8433 515.229 86.8433C514.887 86.8433 514.599 86.9173 514.366 87.0654C514.133 87.2135 513.958 87.4188 513.839 87.6812C513.721 87.9393 513.662 88.2355 513.662 88.5698H512.132C512.132 88.0324 512.255 87.5415 512.5 87.0972C512.745 86.6486 513.101 86.2931 513.566 86.0308C514.032 85.7642 514.593 85.6309 515.249 85.6309C515.866 85.6309 516.391 85.7345 516.823 85.9419C517.254 86.1493 517.582 86.4434 517.807 86.8242C518.035 87.2051 518.149 87.6558 518.149 88.1763C518.149 88.464 518.103 88.7497 518.01 89.0332C517.917 89.3167 517.783 89.6003 517.61 89.8838C517.441 90.1631 517.24 90.4445 517.007 90.728C516.774 91.0073 516.518 91.2909 516.239 91.5786L514.239 93.7812H518.505ZM523.875 85.7261V95H522.345V87.5415L520.079 88.3096V87.0464L523.691 85.7261H523.875Z" fill="#505050"/>
</g>
<g opacity="0.2">
<path d="M552.75 96C552.547 96 552.367 95.933 552.211 95.7991C552.07 95.6503 552 95.4792 552 95.2857C552 95.0923 552.07 94.9211 552.211 94.7723L556.195 91L552.211 87.2277C552.07 87.0789 552 86.9077 552 86.7143C552 86.5208 552.07 86.3497 552.211 86.2009C552.367 86.067 552.547 86 552.75 86C552.953 86 553.133 86.067 553.289 86.2009L557.789 90.4866C557.93 90.6354 558 90.8065 558 91C558 91.1935 557.93 91.3646 557.789 91.5134L553.289 95.7991C553.133 95.933 552.953 96 552.75 96Z" fill="#505050"/>
</g>
<rect x="395.5" y="75.5" width="31" height="31" stroke="#0059FF" stroke-dasharray="4 4"/>
<path d="M395.5 51.5V75.5H426.5V51.5" stroke="#0059FF" stroke-width="0.5" stroke-dasharray="4 4"/>
<path d="M371.5 106.5H395.5V75.5H371.5" stroke="#0059FF" stroke-width="0.5" stroke-dasharray="4 4"/>
<path d="M742.062 56.8125V58.1367H735.916L735.834 57.1113L739.391 51.4688H740.732L739.279 53.9004L737.51 56.8125H742.062ZM741.096 51.4688V60H739.408V51.4688H741.096Z" fill="#F45C59"/>
<rect x="737" y="67" width="1" height="40" fill="#F45C59"/>
<g opacity="0.2">
<rect width="2" height="40" transform="translate(738 67)" fill="#F45C59"/>
</g>
<rect x="740" y="67" width="1" height="40" fill="#F45C59"/>
<path d="M706.062 56.8125V58.1367H699.916L699.834 57.1113L703.391 51.4688H704.732L703.279 53.9004L701.51 56.8125H706.062ZM705.096 51.4688V60H703.408V51.4688H705.096Z" fill="#F45C59"/>
<rect x="701" y="67" width="1" height="40" fill="#F45C59"/>
<g opacity="0.2">
<rect width="2" height="40" transform="translate(702 67)" fill="#F45C59"/>
</g>
<rect x="704" y="67" width="1" height="40" fill="#F45C59"/>
<path d="M778.062 56.8125V58.1367H771.916L771.834 57.1113L775.391 51.4688H776.732L775.279 53.9004L773.51 56.8125H778.062ZM777.096 51.4688V60H775.408V51.4688H777.096Z" fill="#F45C59"/>
<rect x="773" y="67" width="1" height="40" fill="#F45C59"/>
<g opacity="0.2">
<rect width="2" height="40" transform="translate(774 67)" fill="#F45C59"/>
</g>
<rect x="776" y="67" width="1" height="40" fill="#F45C59"/>
<path d="M814.062 56.8125V58.1367H807.916L807.834 57.1113L811.391 51.4688H812.732L811.279 53.9004L809.51 56.8125H814.062ZM813.096 51.4688V60H811.408V51.4688H813.096Z" fill="#F45C59"/>
<rect x="809" y="67" width="1" height="40" fill="#F45C59"/>
<g opacity="0.2">
<rect width="2" height="40" transform="translate(810 67)" fill="#F45C59"/>
</g>
<rect x="812" y="67" width="1" height="40" fill="#F45C59"/>
<path d="M850.062 56.8125V58.1367H843.916L843.834 57.1113L847.391 51.4688H848.732L847.279 53.9004L845.51 56.8125H850.062ZM849.096 51.4688V60H847.408V51.4688H849.096Z" fill="#F45C59"/>
<rect x="845" y="67" width="1" height="40" fill="#F45C59"/>
<g opacity="0.2">
<rect width="2" height="40" transform="translate(846 67)" fill="#F45C59"/>
</g>
<rect x="848" y="67" width="1" height="40" fill="#F45C59"/>
<path d="M886.062 56.8125V58.1367H879.916L879.834 57.1113L883.391 51.4688H884.732L883.279 53.9004L881.51 56.8125H886.062ZM885.096 51.4688V60H883.408V51.4688H885.096Z" fill="#F45C59"/>
<rect x="881" y="67" width="1" height="40" fill="#F45C59"/>
<g opacity="0.2">
<rect width="2" height="40" transform="translate(882 67)" fill="#F45C59"/>
</g>
<rect x="884" y="67" width="1" height="40" fill="#F45C59"/>
<path d="M406.314 46.002H407.217C407.506 46.002 407.744 45.9531 407.932 45.8555C408.119 45.7539 408.258 45.6133 408.348 45.4336C408.441 45.25 408.488 45.0371 408.488 44.7949C408.488 44.5762 408.445 44.3828 408.359 44.2148C408.277 44.043 408.15 43.9102 407.979 43.8164C407.807 43.7188 407.59 43.6699 407.328 43.6699C407.121 43.6699 406.93 43.7109 406.754 43.793C406.578 43.875 406.438 43.9902 406.332 44.1387C406.227 44.2871 406.174 44.4668 406.174 44.6777H404.48C404.48 44.209 404.605 43.8008 404.855 43.4531C405.109 43.1055 405.449 42.834 405.875 42.6387C406.301 42.4434 406.77 42.3457 407.281 42.3457C407.859 42.3457 408.365 42.4395 408.799 42.627C409.232 42.8105 409.57 43.082 409.812 43.4414C410.055 43.8008 410.176 44.2461 410.176 44.7773C410.176 45.0469 410.113 45.3086 409.988 45.5625C409.863 45.8125 409.684 46.0391 409.449 46.2422C409.219 46.4414 408.938 46.6016 408.605 46.7227C408.273 46.8398 407.9 46.8984 407.486 46.8984H406.314V46.002ZM406.314 47.2852V46.4121H407.486C407.951 46.4121 408.359 46.4648 408.711 46.5703C409.062 46.6758 409.357 46.8281 409.596 47.0273C409.834 47.2227 410.014 47.4551 410.135 47.7246C410.256 47.9902 410.316 48.2852 410.316 48.6094C410.316 49.0078 410.24 49.3633 410.088 49.6758C409.936 49.9844 409.721 50.2461 409.443 50.4609C409.17 50.6758 408.85 50.8398 408.482 50.9531C408.115 51.0625 407.715 51.1172 407.281 51.1172C406.922 51.1172 406.568 51.0684 406.221 50.9707C405.877 50.8691 405.564 50.7188 405.283 50.5195C405.006 50.3164 404.783 50.0625 404.615 49.7578C404.451 49.4492 404.369 49.084 404.369 48.6621H406.062C406.062 48.8809 406.117 49.0762 406.227 49.248C406.336 49.4199 406.486 49.5547 406.678 49.6523C406.873 49.75 407.09 49.7988 407.328 49.7988C407.598 49.7988 407.828 49.75 408.02 49.6523C408.215 49.5508 408.363 49.4102 408.465 49.2305C408.57 49.0469 408.623 48.834 408.623 48.5918C408.623 48.2793 408.566 48.0293 408.453 47.8418C408.34 47.6504 408.178 47.5098 407.967 47.4199C407.756 47.3301 407.506 47.2852 407.217 47.2852H406.314ZM417.312 49.6816V51H411.477V49.875L414.236 46.916C414.514 46.6074 414.732 46.3359 414.893 46.1016C415.053 45.8633 415.168 45.6504 415.238 45.4629C415.312 45.2715 415.35 45.0898 415.35 44.918C415.35 44.6602 415.307 44.4395 415.221 44.2559C415.135 44.0684 415.008 43.9238 414.84 43.8223C414.676 43.7207 414.473 43.6699 414.23 43.6699C413.973 43.6699 413.75 43.7324 413.562 43.8574C413.379 43.9824 413.238 44.1562 413.141 44.3789C413.047 44.6016 413 44.8535 413 45.1348H411.307C411.307 44.627 411.428 44.1621 411.67 43.7402C411.912 43.3145 412.254 42.9766 412.695 42.7266C413.137 42.4727 413.66 42.3457 414.266 42.3457C414.863 42.3457 415.367 42.4434 415.777 42.6387C416.191 42.8301 416.504 43.1074 416.715 43.4707C416.93 43.8301 417.037 44.2598 417.037 44.7598C417.037 45.041 416.992 45.3164 416.902 45.5859C416.812 45.8516 416.684 46.1172 416.516 46.3828C416.352 46.6445 416.152 46.9102 415.918 47.1797C415.684 47.4492 415.424 47.7285 415.139 48.0176L413.656 49.6816H417.312Z" fill="#0059FF"/>
<path d="M360.314 90.002H361.217C361.506 90.002 361.744 89.9531 361.932 89.8555C362.119 89.7539 362.258 89.6133 362.348 89.4336C362.441 89.25 362.488 89.0371 362.488 88.7949C362.488 88.5762 362.445 88.3828 362.359 88.2148C362.277 88.043 362.15 87.9102 361.979 87.8164C361.807 87.7188 361.59 87.6699 361.328 87.6699C361.121 87.6699 360.93 87.7109 360.754 87.793C360.578 87.875 360.438 87.9902 360.332 88.1387C360.227 88.2871 360.174 88.4668 360.174 88.6777H358.48C358.48 88.209 358.605 87.8008 358.855 87.4531C359.109 87.1055 359.449 86.834 359.875 86.6387C360.301 86.4434 360.77 86.3457 361.281 86.3457C361.859 86.3457 362.365 86.4395 362.799 86.627C363.232 86.8105 363.57 87.082 363.812 87.4414C364.055 87.8008 364.176 88.2461 364.176 88.7773C364.176 89.0469 364.113 89.3086 363.988 89.5625C363.863 89.8125 363.684 90.0391 363.449 90.2422C363.219 90.4414 362.938 90.6016 362.605 90.7227C362.273 90.8398 361.9 90.8984 361.486 90.8984H360.314V90.002ZM360.314 91.2852V90.4121H361.486C361.951 90.4121 362.359 90.4648 362.711 90.5703C363.062 90.6758 363.357 90.8281 363.596 91.0273C363.834 91.2227 364.014 91.4551 364.135 91.7246C364.256 91.9902 364.316 92.2852 364.316 92.6094C364.316 93.0078 364.24 93.3633 364.088 93.6758C363.936 93.9844 363.721 94.2461 363.443 94.4609C363.17 94.6758 362.85 94.8398 362.482 94.9531C362.115 95.0625 361.715 95.1172 361.281 95.1172C360.922 95.1172 360.568 95.0684 360.221 94.9707C359.877 94.8691 359.564 94.7188 359.283 94.5195C359.006 94.3164 358.783 94.0625 358.615 93.7578C358.451 93.4492 358.369 93.084 358.369 92.6621H360.062C360.062 92.8809 360.117 93.0762 360.227 93.248C360.336 93.4199 360.486 93.5547 360.678 93.6523C360.873 93.75 361.09 93.7988 361.328 93.7988C361.598 93.7988 361.828 93.75 362.02 93.6523C362.215 93.5508 362.363 93.4102 362.465 93.2305C362.57 93.0469 362.623 92.834 362.623 92.5918C362.623 92.2793 362.566 92.0293 362.453 91.8418C362.34 91.6504 362.178 91.5098 361.967 91.4199C361.756 91.3301 361.506 91.2852 361.217 91.2852H360.314ZM371.312 93.6816V95H365.477V93.875L368.236 90.916C368.514 90.6074 368.732 90.3359 368.893 90.1016C369.053 89.8633 369.168 89.6504 369.238 89.4629C369.312 89.2715 369.35 89.0898 369.35 88.918C369.35 88.6602 369.307 88.4395 369.221 88.2559C369.135 88.0684 369.008 87.9238 368.84 87.8223C368.676 87.7207 368.473 87.6699 368.23 87.6699C367.973 87.6699 367.75 87.7324 367.562 87.8574C367.379 87.9824 367.238 88.1562 367.141 88.3789C367.047 88.6016 367 88.8535 367 89.1348H365.307C365.307 88.627 365.428 88.1621 365.67 87.7402C365.912 87.3145 366.254 86.9766 366.695 86.7266C367.137 86.4727 367.66 86.3457 368.266 86.3457C368.863 86.3457 369.367 86.4434 369.777 86.6387C370.191 86.8301 370.504 87.1074 370.715 87.4707C370.93 87.8301 371.037 88.2598 371.037 88.7598C371.037 89.041 370.992 89.3164 370.902 89.5859C370.812 89.8516 370.684 90.1172 370.516 90.3828C370.352 90.6445 370.152 90.9102 369.918 91.1797C369.684 91.4492 369.424 91.7285 369.139 92.0176L367.656 93.6816H371.312Z" fill="#0059FF"/>
<rect x="0.5" y="0.5" width="1239" height="169" rx="15.5" stroke="#E6E6E6"/>
</svg>
