<svg width="1200" height="624" viewBox="0 0 1200 624" fill="none" xmlns="http://www.w3.org/2000/svg">
<g filter="url(#filter0_i_15667_4320)">
<g clip-path="url(#clip0_15667_4320)">
<rect width="1200" height="624" rx="16" fill="#F8F8F8"/>
<g clip-path="url(#clip1_15667_4320)">
<mask id="path-2-outside-1_15667_4320" maskUnits="userSpaceOnUse" x="177" y="41" width="407" height="645" fill="black">
<rect fill="white" x="177" y="41" width="407" height="645"/>
<path d="M193 95C193 90.5817 196.582 87 201 87H560C564.418 87 568 90.5817 568 95V662C568 666.418 564.418 670 560 670H201C196.582 670 193 666.418 193 662V95Z"/>
</mask>
<path d="M193 95C193 90.5817 196.582 87 201 87H560C564.418 87 568 90.5817 568 95V662C568 666.418 564.418 670 560 670H201C196.582 670 193 666.418 193 662V95Z" fill="white"/>
<rect width="375" height="48" transform="translate(193 87)" fill="#F8F8F8"/>
<mask id="path-4-inside-2_15667_4320" fill="white">
<path d="M193 87H293V135H193V87Z"/>
</mask>
<path d="M193 87H293V135H193V87Z" fill="white"/>
<path d="M193 89H293V85H193V89Z" fill="#0059FF" mask="url(#path-4-inside-2_15667_4320)"/>
<rect opacity="0.5" x="213" y="107" width="60" height="8" rx="2" fill="#CCCCCC"/>
<rect opacity="0.5" x="313" y="107" width="60" height="8" rx="2" fill="#CCCCCC"/>
<rect opacity="0.5" x="413" y="107" width="60" height="8" rx="2" fill="#CCCCCC"/>
<rect x="209" y="159" width="185" height="16" rx="4" fill="#E6E6E6"/>
<rect x="209" y="191" width="343" height="16" rx="4" fill="#E6E6E6"/>
<rect width="375" height="438" transform="translate(193 232)" fill="#F8F8F8"/>
<rect x="209.5" y="256.5" width="342" height="47" rx="7.5" fill="white"/>
<rect x="209.5" y="256.5" width="342" height="47" rx="7.5" stroke="#E6E6E6"/>
<path d="M234.272 279.551V283.623C234.121 283.823 233.884 284.043 233.562 284.282C233.245 284.517 232.822 284.719 232.295 284.89C231.768 285.061 231.111 285.146 230.325 285.146C229.656 285.146 229.043 285.034 228.486 284.81C227.93 284.58 227.449 284.246 227.043 283.806C226.643 283.367 226.333 282.832 226.113 282.202C225.894 281.567 225.784 280.845 225.784 280.034V279.294C225.784 278.489 225.884 277.771 226.084 277.141C226.289 276.506 226.582 275.969 226.963 275.53C227.344 275.09 227.803 274.758 228.34 274.534C228.882 274.304 229.495 274.189 230.178 274.189C231.052 274.189 231.775 274.336 232.346 274.629C232.922 274.917 233.367 275.317 233.679 275.83C233.992 276.343 234.189 276.929 234.272 277.588H232.471C232.412 277.217 232.297 276.885 232.126 276.592C231.96 276.299 231.721 276.069 231.409 275.903C231.101 275.732 230.701 275.647 230.208 275.647C229.783 275.647 229.409 275.728 229.087 275.889C228.765 276.05 228.496 276.287 228.281 276.599C228.071 276.912 227.913 277.292 227.805 277.742C227.698 278.191 227.644 278.704 227.644 279.28V280.034C227.644 280.62 227.705 281.14 227.827 281.594C227.954 282.048 228.135 282.432 228.369 282.744C228.608 283.057 228.899 283.293 229.241 283.455C229.583 283.611 229.968 283.689 230.398 283.689C230.818 283.689 231.162 283.655 231.431 283.586C231.699 283.513 231.912 283.428 232.068 283.33C232.229 283.228 232.354 283.13 232.441 283.037V280.92H230.222V279.551H234.272ZM239.626 285.146C239.041 285.146 238.511 285.051 238.037 284.861C237.568 284.666 237.168 284.395 236.836 284.048C236.509 283.701 236.257 283.293 236.082 282.825C235.906 282.356 235.818 281.851 235.818 281.309V281.016C235.818 280.396 235.908 279.834 236.089 279.331C236.27 278.828 236.521 278.398 236.843 278.042C237.166 277.681 237.546 277.405 237.986 277.214C238.425 277.024 238.901 276.929 239.414 276.929C239.98 276.929 240.476 277.024 240.901 277.214C241.326 277.405 241.677 277.673 241.956 278.02C242.239 278.362 242.449 278.77 242.585 279.243C242.727 279.717 242.798 280.239 242.798 280.811V281.565H236.675V280.298H241.055V280.159C241.045 279.841 240.981 279.543 240.864 279.265C240.752 278.987 240.579 278.762 240.344 278.591C240.11 278.42 239.797 278.335 239.407 278.335C239.114 278.335 238.853 278.398 238.623 278.525C238.398 278.647 238.21 278.826 238.059 279.06C237.908 279.294 237.791 279.578 237.708 279.91C237.629 280.237 237.59 280.605 237.59 281.016V281.309C237.59 281.655 237.637 281.978 237.729 282.275C237.827 282.568 237.969 282.825 238.154 283.044C238.34 283.264 238.564 283.438 238.828 283.564C239.092 283.687 239.392 283.748 239.729 283.748C240.154 283.748 240.532 283.662 240.864 283.491C241.196 283.32 241.484 283.079 241.729 282.766L242.659 283.667C242.488 283.916 242.266 284.155 241.992 284.385C241.719 284.609 241.384 284.792 240.989 284.934C240.598 285.076 240.144 285.146 239.626 285.146ZM245.925 278.767V285H244.16V277.075H245.823L245.925 278.767ZM245.61 280.745L245.039 280.737C245.044 280.176 245.122 279.661 245.273 279.192C245.43 278.723 245.645 278.32 245.918 277.983C246.196 277.646 246.528 277.388 246.914 277.207C247.3 277.021 247.729 276.929 248.203 276.929C248.584 276.929 248.928 276.982 249.236 277.09C249.548 277.192 249.814 277.361 250.034 277.595C250.259 277.83 250.43 278.135 250.547 278.511C250.664 278.882 250.723 279.338 250.723 279.88V285H248.95V279.873C248.95 279.492 248.894 279.192 248.782 278.972C248.674 278.748 248.516 278.589 248.306 278.496C248.101 278.398 247.844 278.35 247.537 278.35C247.234 278.35 246.963 278.413 246.724 278.54C246.484 278.667 246.282 278.84 246.116 279.06C245.955 279.28 245.83 279.534 245.742 279.822C245.654 280.11 245.61 280.417 245.61 280.745ZM256.018 285.146C255.432 285.146 254.902 285.051 254.429 284.861C253.96 284.666 253.56 284.395 253.228 284.048C252.9 283.701 252.649 283.293 252.473 282.825C252.297 282.356 252.209 281.851 252.209 281.309V281.016C252.209 280.396 252.3 279.834 252.48 279.331C252.661 278.828 252.913 278.398 253.235 278.042C253.557 277.681 253.938 277.405 254.377 277.214C254.817 277.024 255.293 276.929 255.806 276.929C256.372 276.929 256.868 277.024 257.292 277.214C257.717 277.405 258.069 277.673 258.347 278.02C258.63 278.362 258.84 278.77 258.977 279.243C259.119 279.717 259.189 280.239 259.189 280.811V281.565H253.066V280.298H257.446V280.159C257.437 279.841 257.373 279.543 257.256 279.265C257.144 278.987 256.97 278.762 256.736 278.591C256.501 278.42 256.189 278.335 255.798 278.335C255.505 278.335 255.244 278.398 255.015 278.525C254.79 278.647 254.602 278.826 254.451 279.06C254.299 279.294 254.182 279.578 254.099 279.91C254.021 280.237 253.982 280.605 253.982 281.016V281.309C253.982 281.655 254.028 281.978 254.121 282.275C254.219 282.568 254.36 282.825 254.546 283.044C254.731 283.264 254.956 283.438 255.22 283.564C255.483 283.687 255.784 283.748 256.121 283.748C256.545 283.748 256.924 283.662 257.256 283.491C257.588 283.32 257.876 283.079 258.12 282.766L259.05 283.667C258.879 283.916 258.657 284.155 258.384 284.385C258.11 284.609 257.776 284.792 257.38 284.934C256.99 285.076 256.536 285.146 256.018 285.146ZM262.339 278.584V285H260.574V277.075H262.258L262.339 278.584ZM264.763 277.024L264.749 278.665C264.641 278.645 264.524 278.63 264.397 278.621C264.275 278.611 264.153 278.606 264.031 278.606C263.728 278.606 263.462 278.65 263.232 278.738C263.003 278.821 262.81 278.943 262.654 279.104C262.502 279.26 262.385 279.451 262.302 279.675C262.219 279.9 262.17 280.151 262.156 280.43L261.753 280.459C261.753 279.961 261.802 279.5 261.899 279.075C261.997 278.65 262.144 278.276 262.339 277.954C262.539 277.632 262.788 277.38 263.086 277.2C263.389 277.019 263.738 276.929 264.133 276.929C264.241 276.929 264.355 276.938 264.478 276.958C264.604 276.978 264.7 277 264.763 277.024ZM270.073 283.411V279.631C270.073 279.348 270.022 279.104 269.919 278.899C269.817 278.694 269.661 278.535 269.451 278.423C269.246 278.311 268.987 278.254 268.674 278.254C268.386 278.254 268.137 278.303 267.927 278.401C267.717 278.499 267.554 278.63 267.437 278.796C267.319 278.962 267.261 279.15 267.261 279.36H265.503C265.503 279.048 265.579 278.745 265.73 278.452C265.881 278.159 266.101 277.898 266.389 277.668C266.677 277.439 267.021 277.258 267.422 277.126C267.822 276.995 268.271 276.929 268.77 276.929C269.365 276.929 269.893 277.029 270.352 277.229C270.815 277.429 271.179 277.732 271.443 278.137C271.711 278.538 271.846 279.041 271.846 279.646V283.169C271.846 283.53 271.87 283.855 271.919 284.143C271.973 284.426 272.048 284.673 272.146 284.883V285H270.337C270.254 284.81 270.188 284.568 270.139 284.275C270.095 283.977 270.073 283.689 270.073 283.411ZM270.33 280.181L270.344 281.272H269.077C268.75 281.272 268.462 281.304 268.213 281.367C267.964 281.426 267.756 281.514 267.59 281.631C267.424 281.748 267.3 281.89 267.217 282.056C267.134 282.222 267.092 282.41 267.092 282.62C267.092 282.83 267.141 283.022 267.239 283.198C267.336 283.369 267.478 283.503 267.664 283.601C267.854 283.699 268.083 283.748 268.352 283.748C268.713 283.748 269.028 283.674 269.297 283.528C269.57 283.376 269.785 283.193 269.941 282.979C270.098 282.759 270.181 282.551 270.19 282.356L270.762 283.14C270.703 283.34 270.603 283.555 270.461 283.784C270.32 284.014 270.134 284.233 269.905 284.443C269.68 284.648 269.409 284.817 269.092 284.949C268.779 285.081 268.418 285.146 268.008 285.146C267.49 285.146 267.029 285.044 266.624 284.839C266.218 284.629 265.901 284.348 265.671 283.997C265.442 283.64 265.327 283.237 265.327 282.788C265.327 282.368 265.405 281.997 265.562 281.675C265.723 281.348 265.957 281.074 266.265 280.854C266.577 280.635 266.958 280.469 267.407 280.356C267.856 280.239 268.369 280.181 268.945 280.181H270.33ZM275.581 273.75V285H273.809V273.75H275.581Z" fill="#1A1A1A"/>
<path d="M515.25 273.688C515.302 273.115 515.615 272.802 516.188 272.75H531.812C532.385 272.802 532.698 273.115 532.75 273.688C532.698 274.26 532.385 274.573 531.812 274.625H516.188C515.615 274.573 515.302 274.26 515.25 273.688ZM515.25 279.938C515.302 279.365 515.615 279.052 516.188 279H531.812C532.385 279.052 532.698 279.365 532.75 279.938C532.698 280.51 532.385 280.823 531.812 280.875H516.188C515.615 280.823 515.302 280.51 515.25 279.938ZM531.812 287.125H516.188C515.615 287.073 515.302 286.76 515.25 286.188C515.302 285.615 515.615 285.302 516.188 285.25H531.812C532.385 285.302 532.698 285.615 532.75 286.188C532.698 286.76 532.385 287.073 531.812 287.125Z" fill="#1A1A1A"/>
<rect x="209.5" y="320.5" width="342" height="325" rx="7.5" fill="white"/>
<rect x="209.5" y="320.5" width="342" height="325" rx="7.5" stroke="#E6E6E6"/>
<rect x="225" y="344" width="185" height="16" rx="4" fill="#E6E6E6"/>
<rect x="225" y="376" width="311" height="16" rx="4" fill="#E6E6E6"/>
<rect x="225" y="408" width="230" height="16" rx="4" fill="#E6E6E6"/>
</g>
<path d="M177 65C177 51.7452 187.745 41 201 41H560C573.255 41 584 51.7452 584 65L552 133H209L177 65ZM584 662C584 675.255 573.255 686 560 686H201C187.745 686 177 675.255 177 662L209 654H552L584 662ZM201 686C187.745 686 177 675.255 177 662V65C177 51.7452 187.745 41 201 41L209 133V654L201 686ZM560 41C573.255 41 584 51.7452 584 65V662C584 675.255 573.255 686 560 686L552 654V133L560 41Z" fill="#4C4C4C" mask="url(#path-2-outside-1_15667_4320)"/>
<g clip-path="url(#clip2_15667_4320)">
<mask id="path-18-outside-3_15667_4320" maskUnits="userSpaceOnUse" x="616" y="41" width="407" height="645" fill="black">
<rect fill="white" x="616" y="41" width="407" height="645"/>
<path d="M632 95C632 90.5817 635.582 87 640 87H999C1003.42 87 1007 90.5817 1007 95V662C1007 666.418 1003.42 670 999 670H640C635.582 670 632 666.418 632 662V95Z"/>
</mask>
<path d="M632 95C632 90.5817 635.582 87 640 87H999C1003.42 87 1007 90.5817 1007 95V662C1007 666.418 1003.42 670 999 670H640C635.582 670 632 666.418 632 662V95Z" fill="white"/>
<rect width="375" height="48" transform="translate(632 87)" fill="#F8F8F8"/>
<mask id="path-20-inside-4_15667_4320" fill="white">
<path d="M632 87H732V135H632V87Z"/>
</mask>
<path d="M632 87H732V135H632V87Z" fill="white"/>
<path d="M632 89H732V85H632V89Z" fill="#0059FF" mask="url(#path-20-inside-4_15667_4320)"/>
<rect opacity="0.5" x="652" y="107" width="60" height="8" rx="2" fill="#CCCCCC"/>
<rect opacity="0.5" x="752" y="107" width="60" height="8" rx="2" fill="#CCCCCC"/>
<rect opacity="0.5" x="852" y="107" width="60" height="8" rx="2" fill="#CCCCCC"/>
<rect x="648" y="159" width="185" height="16" rx="4" fill="#E6E6E6"/>
<rect x="648" y="191" width="343" height="16" rx="4" fill="#E6E6E6"/>
<rect width="375" height="612" transform="translate(632 232)" fill="#F8F8F8"/>
<rect x="648.5" y="322.5" width="342" height="325" rx="7.5" fill="white"/>
<rect x="648.5" y="322.5" width="342" height="325" rx="7.5" stroke="#E6E6E6"/>
<rect x="664" y="346" width="185" height="16" rx="4" fill="#D9D9D9"/>
<rect x="664" y="378" width="311" height="16" rx="4" fill="#D9D9D9"/>
<rect x="664" y="410" width="230" height="16" rx="4" fill="#D9D9D9"/>
<g filter="url(#filter1_d_15667_4320)">
<rect x="648" y="256" width="343" height="48" rx="8" fill="white"/>
<path d="M673.272 279.551V283.623C673.121 283.823 672.884 284.043 672.562 284.282C672.245 284.517 671.822 284.719 671.295 284.89C670.768 285.061 670.111 285.146 669.325 285.146C668.656 285.146 668.043 285.034 667.486 284.81C666.93 284.58 666.449 284.246 666.043 283.806C665.643 283.367 665.333 282.832 665.113 282.202C664.894 281.567 664.784 280.845 664.784 280.034V279.294C664.784 278.489 664.884 277.771 665.084 277.141C665.289 276.506 665.582 275.969 665.963 275.53C666.344 275.09 666.803 274.758 667.34 274.534C667.882 274.304 668.495 274.189 669.178 274.189C670.052 274.189 670.775 274.336 671.346 274.629C671.922 274.917 672.367 275.317 672.679 275.83C672.992 276.343 673.189 276.929 673.272 277.588H671.471C671.412 277.217 671.297 276.885 671.126 276.592C670.96 276.299 670.721 276.069 670.409 275.903C670.101 275.732 669.701 275.647 669.208 275.647C668.783 275.647 668.409 275.728 668.087 275.889C667.765 276.05 667.496 276.287 667.281 276.599C667.071 276.912 666.913 277.292 666.805 277.742C666.698 278.191 666.644 278.704 666.644 279.28V280.034C666.644 280.62 666.705 281.14 666.827 281.594C666.954 282.048 667.135 282.432 667.369 282.744C667.608 283.057 667.899 283.293 668.241 283.455C668.583 283.611 668.968 283.689 669.398 283.689C669.818 283.689 670.162 283.655 670.431 283.586C670.699 283.513 670.912 283.428 671.068 283.33C671.229 283.228 671.354 283.13 671.441 283.037V280.92H669.222V279.551H673.272ZM678.626 285.146C678.041 285.146 677.511 285.051 677.037 284.861C676.568 284.666 676.168 284.395 675.836 284.048C675.509 283.701 675.257 283.293 675.082 282.825C674.906 282.356 674.818 281.851 674.818 281.309V281.016C674.818 280.396 674.908 279.834 675.089 279.331C675.27 278.828 675.521 278.398 675.843 278.042C676.166 277.681 676.546 277.405 676.986 277.214C677.425 277.024 677.901 276.929 678.414 276.929C678.98 276.929 679.476 277.024 679.901 277.214C680.326 277.405 680.677 277.673 680.956 278.02C681.239 278.362 681.449 278.77 681.585 279.243C681.727 279.717 681.798 280.239 681.798 280.811V281.565H675.675V280.298H680.055V280.159C680.045 279.841 679.981 279.543 679.864 279.265C679.752 278.987 679.579 278.762 679.344 278.591C679.11 278.42 678.797 278.335 678.407 278.335C678.114 278.335 677.853 278.398 677.623 278.525C677.398 278.647 677.21 278.826 677.059 279.06C676.908 279.294 676.791 279.578 676.708 279.91C676.629 280.237 676.59 280.605 676.59 281.016V281.309C676.59 281.655 676.637 281.978 676.729 282.275C676.827 282.568 676.969 282.825 677.154 283.044C677.34 283.264 677.564 283.438 677.828 283.564C678.092 283.687 678.392 283.748 678.729 283.748C679.154 283.748 679.532 283.662 679.864 283.491C680.196 283.32 680.484 283.079 680.729 282.766L681.659 283.667C681.488 283.916 681.266 284.155 680.992 284.385C680.719 284.609 680.384 284.792 679.989 284.934C679.598 285.076 679.144 285.146 678.626 285.146ZM684.925 278.767V285H683.16V277.075H684.823L684.925 278.767ZM684.61 280.745L684.039 280.737C684.044 280.176 684.122 279.661 684.273 279.192C684.43 278.723 684.645 278.32 684.918 277.983C685.196 277.646 685.528 277.388 685.914 277.207C686.3 277.021 686.729 276.929 687.203 276.929C687.584 276.929 687.928 276.982 688.236 277.09C688.548 277.192 688.814 277.361 689.034 277.595C689.259 277.83 689.43 278.135 689.547 278.511C689.664 278.882 689.723 279.338 689.723 279.88V285H687.95V279.873C687.95 279.492 687.894 279.192 687.782 278.972C687.674 278.748 687.516 278.589 687.306 278.496C687.101 278.398 686.844 278.35 686.537 278.35C686.234 278.35 685.963 278.413 685.724 278.54C685.484 278.667 685.282 278.84 685.116 279.06C684.955 279.28 684.83 279.534 684.742 279.822C684.654 280.11 684.61 280.417 684.61 280.745ZM695.018 285.146C694.432 285.146 693.902 285.051 693.429 284.861C692.96 284.666 692.56 284.395 692.228 284.048C691.9 283.701 691.649 283.293 691.473 282.825C691.297 282.356 691.209 281.851 691.209 281.309V281.016C691.209 280.396 691.3 279.834 691.48 279.331C691.661 278.828 691.913 278.398 692.235 278.042C692.557 277.681 692.938 277.405 693.377 277.214C693.817 277.024 694.293 276.929 694.806 276.929C695.372 276.929 695.868 277.024 696.292 277.214C696.717 277.405 697.069 277.673 697.347 278.02C697.63 278.362 697.84 278.77 697.977 279.243C698.119 279.717 698.189 280.239 698.189 280.811V281.565H692.066V280.298H696.446V280.159C696.437 279.841 696.373 279.543 696.256 279.265C696.144 278.987 695.97 278.762 695.736 278.591C695.501 278.42 695.189 278.335 694.798 278.335C694.505 278.335 694.244 278.398 694.015 278.525C693.79 278.647 693.602 278.826 693.451 279.06C693.299 279.294 693.182 279.578 693.099 279.91C693.021 280.237 692.982 280.605 692.982 281.016V281.309C692.982 281.655 693.028 281.978 693.121 282.275C693.219 282.568 693.36 282.825 693.546 283.044C693.731 283.264 693.956 283.438 694.22 283.564C694.483 283.687 694.784 283.748 695.121 283.748C695.545 283.748 695.924 283.662 696.256 283.491C696.588 283.32 696.876 283.079 697.12 282.766L698.05 283.667C697.879 283.916 697.657 284.155 697.384 284.385C697.11 284.609 696.776 284.792 696.38 284.934C695.99 285.076 695.536 285.146 695.018 285.146ZM701.339 278.584V285H699.574V277.075H701.258L701.339 278.584ZM703.763 277.024L703.749 278.665C703.641 278.645 703.524 278.63 703.397 278.621C703.275 278.611 703.153 278.606 703.031 278.606C702.728 278.606 702.462 278.65 702.232 278.738C702.003 278.821 701.81 278.943 701.654 279.104C701.502 279.26 701.385 279.451 701.302 279.675C701.219 279.9 701.17 280.151 701.156 280.43L700.753 280.459C700.753 279.961 700.802 279.5 700.899 279.075C700.997 278.65 701.144 278.276 701.339 277.954C701.539 277.632 701.788 277.38 702.086 277.2C702.389 277.019 702.738 276.929 703.133 276.929C703.241 276.929 703.355 276.938 703.478 276.958C703.604 276.978 703.7 277 703.763 277.024ZM709.073 283.411V279.631C709.073 279.348 709.022 279.104 708.919 278.899C708.817 278.694 708.661 278.535 708.451 278.423C708.246 278.311 707.987 278.254 707.674 278.254C707.386 278.254 707.137 278.303 706.927 278.401C706.717 278.499 706.554 278.63 706.437 278.796C706.319 278.962 706.261 279.15 706.261 279.36H704.503C704.503 279.048 704.579 278.745 704.73 278.452C704.881 278.159 705.101 277.898 705.389 277.668C705.677 277.439 706.021 277.258 706.422 277.126C706.822 276.995 707.271 276.929 707.77 276.929C708.365 276.929 708.893 277.029 709.352 277.229C709.815 277.429 710.179 277.732 710.443 278.137C710.711 278.538 710.846 279.041 710.846 279.646V283.169C710.846 283.53 710.87 283.855 710.919 284.143C710.973 284.426 711.048 284.673 711.146 284.883V285H709.337C709.254 284.81 709.188 284.568 709.139 284.275C709.095 283.977 709.073 283.689 709.073 283.411ZM709.33 280.181L709.344 281.272H708.077C707.75 281.272 707.462 281.304 707.213 281.367C706.964 281.426 706.756 281.514 706.59 281.631C706.424 281.748 706.3 281.89 706.217 282.056C706.134 282.222 706.092 282.41 706.092 282.62C706.092 282.83 706.141 283.022 706.239 283.198C706.336 283.369 706.478 283.503 706.664 283.601C706.854 283.699 707.083 283.748 707.352 283.748C707.713 283.748 708.028 283.674 708.297 283.528C708.57 283.376 708.785 283.193 708.941 282.979C709.098 282.759 709.181 282.551 709.19 282.356L709.762 283.14C709.703 283.34 709.603 283.555 709.461 283.784C709.32 284.014 709.134 284.233 708.905 284.443C708.68 284.648 708.409 284.817 708.092 284.949C707.779 285.081 707.418 285.146 707.008 285.146C706.49 285.146 706.029 285.044 705.624 284.839C705.218 284.629 704.901 284.348 704.671 283.997C704.442 283.64 704.327 283.237 704.327 282.788C704.327 282.368 704.405 281.997 704.562 281.675C704.723 281.348 704.957 281.074 705.265 280.854C705.577 280.635 705.958 280.469 706.407 280.356C706.856 280.239 707.369 280.181 707.945 280.181H709.33ZM714.581 273.75V285H712.809V273.75H714.581Z" fill="#1A1A1A"/>
<path d="M954.25 273.688C954.302 273.115 954.615 272.802 955.188 272.75H970.812C971.385 272.802 971.698 273.115 971.75 273.688C971.698 274.26 971.385 274.573 970.812 274.625H955.188C954.615 274.573 954.302 274.26 954.25 273.688ZM954.25 279.938C954.302 279.365 954.615 279.052 955.188 279H970.812C971.385 279.052 971.698 279.365 971.75 279.938C971.698 280.51 971.385 280.823 970.812 280.875H955.188C954.615 280.823 954.302 280.51 954.25 279.938ZM970.812 287.125H955.188C954.615 287.073 954.302 286.76 954.25 286.188C954.302 285.615 954.615 285.302 955.188 285.25H970.812C971.385 285.302 971.698 285.615 971.75 286.188C971.698 286.76 971.385 287.073 970.812 287.125Z" fill="#1A1A1A"/>
</g>
<g filter="url(#filter2_ddd_15667_4320)">
<rect x="648" y="306" width="343" height="144" rx="8" fill="white"/>
<path d="M672.188 329.087V329.671C672.188 330.365 672.102 330.987 671.928 331.537C671.755 332.087 671.505 332.555 671.179 332.94C670.853 333.325 670.462 333.619 670.005 333.822C669.552 334.025 669.044 334.127 668.481 334.127C667.936 334.127 667.434 334.025 666.977 333.822C666.524 333.619 666.131 333.325 665.796 332.94C665.466 332.555 665.21 332.087 665.028 331.537C664.846 330.987 664.755 330.365 664.755 329.671V329.087C664.755 328.393 664.844 327.773 665.022 327.227C665.204 326.677 665.46 326.209 665.79 325.824C666.12 325.435 666.512 325.139 666.964 324.936C667.421 324.732 667.923 324.631 668.469 324.631C669.032 324.631 669.539 324.732 669.992 324.936C670.449 325.139 670.841 325.435 671.167 325.824C671.497 326.209 671.748 326.677 671.922 327.227C672.1 327.773 672.188 328.393 672.188 329.087ZM670.976 329.671V329.074C670.976 328.524 670.919 328.037 670.805 327.614C670.695 327.191 670.532 326.836 670.316 326.548C670.1 326.26 669.836 326.042 669.522 325.894C669.214 325.746 668.862 325.672 668.469 325.672C668.088 325.672 667.743 325.746 667.434 325.894C667.129 326.042 666.867 326.26 666.647 326.548C666.431 326.836 666.264 327.191 666.146 327.614C666.027 328.037 665.968 328.524 665.968 329.074V329.671C665.968 330.225 666.027 330.716 666.146 331.144C666.264 331.567 666.433 331.924 666.653 332.216C666.878 332.504 667.142 332.722 667.447 332.87C667.756 333.018 668.101 333.092 668.481 333.092C668.879 333.092 669.233 333.018 669.542 332.87C669.85 332.722 670.111 332.504 670.322 332.216C670.538 331.924 670.701 331.567 670.811 331.144C670.921 330.716 670.976 330.225 670.976 329.671ZM675.02 328.452V336.641H673.839V327.132H674.918L675.02 328.452ZM679.647 330.509V330.642C679.647 331.141 679.588 331.605 679.469 332.032C679.351 332.455 679.177 332.824 678.949 333.137C678.724 333.45 678.447 333.693 678.117 333.867C677.787 334.04 677.408 334.127 676.981 334.127C676.545 334.127 676.16 334.055 675.826 333.911C675.491 333.767 675.208 333.558 674.975 333.283C674.742 333.008 674.556 332.678 674.417 332.292C674.281 331.907 674.188 331.474 674.137 330.991V330.28C674.188 329.772 674.283 329.318 674.423 328.916C674.562 328.514 674.747 328.171 674.975 327.887C675.208 327.599 675.489 327.382 675.819 327.233C676.149 327.081 676.53 327.005 676.962 327.005C677.394 327.005 677.777 327.09 678.111 327.259C678.445 327.424 678.727 327.661 678.955 327.97C679.184 328.279 679.355 328.649 679.469 329.081C679.588 329.508 679.647 329.984 679.647 330.509ZM678.466 330.642V330.509C678.466 330.166 678.43 329.844 678.358 329.544C678.286 329.239 678.174 328.973 678.022 328.744C677.874 328.511 677.683 328.329 677.451 328.198C677.218 328.063 676.941 327.995 676.619 327.995C676.323 327.995 676.065 328.046 675.845 328.147C675.629 328.249 675.445 328.387 675.292 328.56C675.14 328.729 675.015 328.924 674.918 329.144C674.825 329.36 674.755 329.584 674.708 329.817V331.461C674.793 331.757 674.912 332.036 675.064 332.299C675.216 332.557 675.419 332.766 675.673 332.927C675.927 333.084 676.247 333.162 676.632 333.162C676.949 333.162 677.222 333.097 677.451 332.965C677.683 332.83 677.874 332.646 678.022 332.413C678.174 332.18 678.286 331.914 678.358 331.613C678.43 331.309 678.466 330.985 678.466 330.642ZM684.021 327.132V328.033H680.307V327.132H684.021ZM681.564 325.462H682.738V332.299C682.738 332.532 682.774 332.707 682.846 332.826C682.918 332.944 683.011 333.022 683.125 333.061C683.24 333.099 683.362 333.118 683.494 333.118C683.591 333.118 683.693 333.109 683.798 333.092C683.908 333.071 683.991 333.054 684.046 333.042L684.052 334C683.959 334.03 683.836 334.057 683.684 334.083C683.536 334.112 683.356 334.127 683.145 334.127C682.857 334.127 682.592 334.07 682.351 333.956C682.11 333.841 681.917 333.651 681.773 333.384C681.634 333.113 681.564 332.75 681.564 332.292V325.462ZM686.674 327.132V334H685.493V327.132H686.674ZM685.404 325.31C685.404 325.12 685.461 324.959 685.576 324.828C685.694 324.696 685.868 324.631 686.096 324.631C686.32 324.631 686.492 324.696 686.61 324.828C686.733 324.959 686.794 325.12 686.794 325.31C686.794 325.492 686.733 325.649 686.61 325.78C686.492 325.907 686.32 325.97 686.096 325.97C685.868 325.97 685.694 325.907 685.576 325.78C685.461 325.649 685.404 325.492 685.404 325.31ZM688.248 330.642V330.496C688.248 330.001 688.32 329.542 688.464 329.119C688.608 328.691 688.815 328.321 689.086 328.008C689.357 327.69 689.685 327.445 690.07 327.271C690.455 327.094 690.887 327.005 691.365 327.005C691.847 327.005 692.281 327.094 692.666 327.271C693.055 327.445 693.385 327.69 693.656 328.008C693.931 328.321 694.141 328.691 694.285 329.119C694.429 329.542 694.5 330.001 694.5 330.496V330.642C694.5 331.137 694.429 331.596 694.285 332.02C694.141 332.443 693.931 332.813 693.656 333.13C693.385 333.444 693.057 333.689 692.672 333.867C692.292 334.04 691.86 334.127 691.377 334.127C690.895 334.127 690.461 334.04 690.076 333.867C689.691 333.689 689.361 333.444 689.086 333.13C688.815 332.813 688.608 332.443 688.464 332.02C688.32 331.596 688.248 331.137 688.248 330.642ZM689.422 330.496V330.642C689.422 330.985 689.463 331.309 689.543 331.613C689.623 331.914 689.744 332.18 689.905 332.413C690.07 332.646 690.275 332.83 690.521 332.965C690.766 333.097 691.052 333.162 691.377 333.162C691.699 333.162 691.98 333.097 692.222 332.965C692.467 332.83 692.67 332.646 692.831 332.413C692.992 332.18 693.112 331.914 693.193 331.613C693.278 331.309 693.32 330.985 693.32 330.642V330.496C693.32 330.158 693.278 329.838 693.193 329.538C693.112 329.233 692.99 328.964 692.825 328.731C692.664 328.494 692.461 328.308 692.215 328.173C691.974 328.037 691.691 327.97 691.365 327.97C691.043 327.97 690.76 328.037 690.514 328.173C690.273 328.308 690.07 328.494 689.905 328.731C689.744 328.964 689.623 329.233 689.543 329.538C689.463 329.838 689.422 330.158 689.422 330.496ZM697.147 328.598V334H695.973V327.132H697.084L697.147 328.598ZM696.868 330.306L696.379 330.287C696.384 329.817 696.453 329.383 696.589 328.985C696.724 328.583 696.915 328.234 697.16 327.938C697.406 327.642 697.698 327.413 698.036 327.252C698.379 327.087 698.758 327.005 699.172 327.005C699.511 327.005 699.816 327.051 700.086 327.145C700.357 327.233 700.588 327.377 700.778 327.576C700.973 327.775 701.121 328.033 701.223 328.351C701.324 328.664 701.375 329.047 701.375 329.5V334H700.194V329.487C700.194 329.127 700.141 328.839 700.036 328.624C699.93 328.403 699.775 328.245 699.572 328.147C699.369 328.046 699.119 327.995 698.823 327.995C698.531 327.995 698.265 328.056 698.023 328.179C697.786 328.302 697.581 328.471 697.408 328.687C697.238 328.903 697.105 329.15 697.008 329.43C696.915 329.705 696.868 329.997 696.868 330.306ZM713.677 329.087V329.671C713.677 330.365 713.59 330.987 713.417 331.537C713.243 332.087 712.993 332.555 712.667 332.94C712.342 333.325 711.95 333.619 711.493 333.822C711.04 334.025 710.533 334.127 709.97 334.127C709.424 334.127 708.922 334.025 708.465 333.822C708.013 333.619 707.619 333.325 707.285 332.94C706.955 332.555 706.699 332.087 706.517 331.537C706.335 330.987 706.244 330.365 706.244 329.671V329.087C706.244 328.393 706.333 327.773 706.51 327.227C706.692 326.677 706.948 326.209 707.278 325.824C707.608 325.435 708 325.139 708.453 324.936C708.91 324.732 709.411 324.631 709.957 324.631C710.52 324.631 711.028 324.732 711.48 324.936C711.938 325.139 712.329 325.435 712.655 325.824C712.985 326.209 713.237 326.677 713.41 327.227C713.588 327.773 713.677 328.393 713.677 329.087ZM712.464 329.671V329.074C712.464 328.524 712.407 328.037 712.293 327.614C712.183 327.191 712.02 326.836 711.804 326.548C711.588 326.26 711.324 326.042 711.011 325.894C710.702 325.746 710.351 325.672 709.957 325.672C709.576 325.672 709.231 325.746 708.922 325.894C708.618 326.042 708.355 326.26 708.135 326.548C707.919 326.836 707.752 327.191 707.634 327.614C707.515 328.037 707.456 328.524 707.456 329.074V329.671C707.456 330.225 707.515 330.716 707.634 331.144C707.752 331.567 707.922 331.924 708.142 332.216C708.366 332.504 708.63 332.722 708.935 332.87C709.244 333.018 709.589 333.092 709.97 333.092C710.368 333.092 710.721 333.018 711.03 332.87C711.339 332.722 711.599 332.504 711.811 332.216C712.026 331.924 712.189 331.567 712.299 331.144C712.409 330.716 712.464 330.225 712.464 329.671ZM716.508 328.598V334H715.333V327.132H716.444L716.508 328.598ZM716.229 330.306L715.74 330.287C715.744 329.817 715.814 329.383 715.949 328.985C716.085 328.583 716.275 328.234 716.521 327.938C716.766 327.642 717.058 327.413 717.396 327.252C717.739 327.087 718.118 327.005 718.533 327.005C718.871 327.005 719.176 327.051 719.447 327.145C719.718 327.233 719.948 327.377 720.139 327.576C720.333 327.775 720.481 328.033 720.583 328.351C720.685 328.664 720.735 329.047 720.735 329.5V334H719.555V329.487C719.555 329.127 719.502 328.839 719.396 328.624C719.29 328.403 719.136 328.245 718.933 328.147C718.729 328.046 718.48 327.995 718.184 327.995C717.892 327.995 717.625 328.056 717.384 328.179C717.147 328.302 716.942 328.471 716.768 328.687C716.599 328.903 716.465 329.15 716.368 329.43C716.275 329.705 716.229 329.997 716.229 330.306ZM725.369 334.127C724.891 334.127 724.457 334.047 724.068 333.886C723.683 333.721 723.351 333.49 723.071 333.194C722.796 332.898 722.585 332.546 722.437 332.14C722.288 331.734 722.214 331.29 722.214 330.807V330.541C722.214 329.982 722.297 329.485 722.462 329.049C722.627 328.609 722.851 328.236 723.135 327.932C723.418 327.627 723.74 327.396 724.1 327.24C724.459 327.083 724.832 327.005 725.217 327.005C725.708 327.005 726.131 327.09 726.486 327.259C726.846 327.428 727.14 327.665 727.369 327.97C727.597 328.27 727.766 328.626 727.876 329.036C727.986 329.442 728.042 329.887 728.042 330.369V330.896H722.913V329.938H726.867V329.849C726.85 329.544 726.787 329.248 726.677 328.96C726.571 328.672 726.402 328.435 726.169 328.249C725.936 328.063 725.619 327.97 725.217 327.97C724.95 327.97 724.705 328.027 724.48 328.141C724.256 328.251 724.064 328.416 723.903 328.636C723.742 328.856 723.617 329.125 723.528 329.442C723.439 329.76 723.395 330.126 723.395 330.541V330.807C723.395 331.133 723.439 331.44 723.528 331.728C723.621 332.011 723.755 332.261 723.928 332.477C724.106 332.692 724.32 332.862 724.569 332.984C724.823 333.107 725.111 333.168 725.433 333.168C725.847 333.168 726.199 333.084 726.486 332.915C726.774 332.745 727.026 332.519 727.242 332.235L727.953 332.8C727.805 333.025 727.616 333.238 727.388 333.441C727.159 333.645 726.878 333.81 726.543 333.937C726.213 334.063 725.822 334.127 725.369 334.127Z" fill="#4C4C4C"/>
<path d="M672.188 361.087V361.671C672.188 362.365 672.102 362.987 671.928 363.537C671.755 364.087 671.505 364.555 671.179 364.94C670.853 365.325 670.462 365.619 670.005 365.822C669.552 366.025 669.044 366.127 668.481 366.127C667.936 366.127 667.434 366.025 666.977 365.822C666.524 365.619 666.131 365.325 665.796 364.94C665.466 364.555 665.21 364.087 665.028 363.537C664.846 362.987 664.755 362.365 664.755 361.671V361.087C664.755 360.393 664.844 359.773 665.022 359.227C665.204 358.677 665.46 358.209 665.79 357.824C666.12 357.435 666.512 357.139 666.964 356.936C667.421 356.732 667.923 356.631 668.469 356.631C669.032 356.631 669.539 356.732 669.992 356.936C670.449 357.139 670.841 357.435 671.167 357.824C671.497 358.209 671.748 358.677 671.922 359.227C672.1 359.773 672.188 360.393 672.188 361.087ZM670.976 361.671V361.074C670.976 360.524 670.919 360.037 670.805 359.614C670.695 359.191 670.532 358.836 670.316 358.548C670.1 358.26 669.836 358.042 669.522 357.894C669.214 357.746 668.862 357.672 668.469 357.672C668.088 357.672 667.743 357.746 667.434 357.894C667.129 358.042 666.867 358.26 666.647 358.548C666.431 358.836 666.264 359.191 666.146 359.614C666.027 360.037 665.968 360.524 665.968 361.074V361.671C665.968 362.225 666.027 362.716 666.146 363.144C666.264 363.567 666.433 363.924 666.653 364.216C666.878 364.504 667.142 364.722 667.447 364.87C667.756 365.018 668.101 365.092 668.481 365.092C668.879 365.092 669.233 365.018 669.542 364.87C669.85 364.722 670.111 364.504 670.322 364.216C670.538 363.924 670.701 363.567 670.811 363.144C670.921 362.716 670.976 362.225 670.976 361.671ZM675.02 360.452V368.641H673.839V359.132H674.918L675.02 360.452ZM679.647 362.509V362.642C679.647 363.141 679.588 363.605 679.469 364.032C679.351 364.455 679.177 364.824 678.949 365.137C678.724 365.45 678.447 365.693 678.117 365.867C677.787 366.04 677.408 366.127 676.981 366.127C676.545 366.127 676.16 366.055 675.826 365.911C675.491 365.767 675.208 365.558 674.975 365.283C674.742 365.008 674.556 364.678 674.417 364.292C674.281 363.907 674.188 363.474 674.137 362.991V362.28C674.188 361.772 674.283 361.318 674.423 360.916C674.562 360.514 674.747 360.171 674.975 359.887C675.208 359.599 675.489 359.382 675.819 359.233C676.149 359.081 676.53 359.005 676.962 359.005C677.394 359.005 677.777 359.09 678.111 359.259C678.445 359.424 678.727 359.661 678.955 359.97C679.184 360.279 679.355 360.649 679.469 361.081C679.588 361.508 679.647 361.984 679.647 362.509ZM678.466 362.642V362.509C678.466 362.166 678.43 361.844 678.358 361.544C678.286 361.239 678.174 360.973 678.022 360.744C677.874 360.511 677.683 360.329 677.451 360.198C677.218 360.063 676.941 359.995 676.619 359.995C676.323 359.995 676.065 360.046 675.845 360.147C675.629 360.249 675.445 360.387 675.292 360.56C675.14 360.729 675.015 360.924 674.918 361.144C674.825 361.36 674.755 361.584 674.708 361.817V363.461C674.793 363.757 674.912 364.036 675.064 364.299C675.216 364.557 675.419 364.766 675.673 364.927C675.927 365.084 676.247 365.162 676.632 365.162C676.949 365.162 677.222 365.097 677.451 364.965C677.683 364.83 677.874 364.646 678.022 364.413C678.174 364.18 678.286 363.914 678.358 363.613C678.43 363.309 678.466 362.985 678.466 362.642ZM684.021 359.132V360.033H680.307V359.132H684.021ZM681.564 357.462H682.738V364.299C682.738 364.532 682.774 364.707 682.846 364.826C682.918 364.944 683.011 365.022 683.125 365.061C683.24 365.099 683.362 365.118 683.494 365.118C683.591 365.118 683.693 365.109 683.798 365.092C683.908 365.071 683.991 365.054 684.046 365.042L684.052 366C683.959 366.03 683.836 366.057 683.684 366.083C683.536 366.112 683.356 366.127 683.145 366.127C682.857 366.127 682.592 366.07 682.351 365.956C682.11 365.841 681.917 365.651 681.773 365.384C681.634 365.113 681.564 364.75 681.564 364.292V357.462ZM686.674 359.132V366H685.493V359.132H686.674ZM685.404 357.31C685.404 357.12 685.461 356.959 685.576 356.828C685.694 356.696 685.868 356.631 686.096 356.631C686.32 356.631 686.492 356.696 686.61 356.828C686.733 356.959 686.794 357.12 686.794 357.31C686.794 357.492 686.733 357.649 686.61 357.78C686.492 357.907 686.32 357.97 686.096 357.97C685.868 357.97 685.694 357.907 685.576 357.78C685.461 357.649 685.404 357.492 685.404 357.31ZM688.248 362.642V362.496C688.248 362.001 688.32 361.542 688.464 361.119C688.608 360.691 688.815 360.321 689.086 360.008C689.357 359.69 689.685 359.445 690.07 359.271C690.455 359.094 690.887 359.005 691.365 359.005C691.847 359.005 692.281 359.094 692.666 359.271C693.055 359.445 693.385 359.69 693.656 360.008C693.931 360.321 694.141 360.691 694.285 361.119C694.429 361.542 694.5 362.001 694.5 362.496V362.642C694.5 363.137 694.429 363.596 694.285 364.02C694.141 364.443 693.931 364.813 693.656 365.13C693.385 365.444 693.057 365.689 692.672 365.867C692.292 366.04 691.86 366.127 691.377 366.127C690.895 366.127 690.461 366.04 690.076 365.867C689.691 365.689 689.361 365.444 689.086 365.13C688.815 364.813 688.608 364.443 688.464 364.02C688.32 363.596 688.248 363.137 688.248 362.642ZM689.422 362.496V362.642C689.422 362.985 689.463 363.309 689.543 363.613C689.623 363.914 689.744 364.18 689.905 364.413C690.07 364.646 690.275 364.83 690.521 364.965C690.766 365.097 691.052 365.162 691.377 365.162C691.699 365.162 691.98 365.097 692.222 364.965C692.467 364.83 692.67 364.646 692.831 364.413C692.992 364.18 693.112 363.914 693.193 363.613C693.278 363.309 693.32 362.985 693.32 362.642V362.496C693.32 362.158 693.278 361.838 693.193 361.538C693.112 361.233 692.99 360.964 692.825 360.731C692.664 360.494 692.461 360.308 692.215 360.173C691.974 360.037 691.691 359.97 691.365 359.97C691.043 359.97 690.76 360.037 690.514 360.173C690.273 360.308 690.07 360.494 689.905 360.731C689.744 360.964 689.623 361.233 689.543 361.538C689.463 361.838 689.422 362.158 689.422 362.496ZM697.147 360.598V366H695.973V359.132H697.084L697.147 360.598ZM696.868 362.306L696.379 362.287C696.384 361.817 696.453 361.383 696.589 360.985C696.724 360.583 696.915 360.234 697.16 359.938C697.406 359.642 697.698 359.413 698.036 359.252C698.379 359.087 698.758 359.005 699.172 359.005C699.511 359.005 699.816 359.051 700.086 359.145C700.357 359.233 700.588 359.377 700.778 359.576C700.973 359.775 701.121 360.033 701.223 360.351C701.324 360.664 701.375 361.047 701.375 361.5V366H700.194V361.487C700.194 361.127 700.141 360.839 700.036 360.624C699.93 360.403 699.775 360.245 699.572 360.147C699.369 360.046 699.119 359.995 698.823 359.995C698.531 359.995 698.265 360.056 698.023 360.179C697.786 360.302 697.581 360.471 697.408 360.687C697.238 360.903 697.105 361.15 697.008 361.43C696.915 361.705 696.868 361.997 696.868 362.306ZM709.722 356.758V366H708.516V356.758H709.722ZM712.693 356.758V357.761H705.552V356.758H712.693ZM715.257 364.781L717.022 359.132H717.796L717.644 360.255L715.848 366H715.092L715.257 364.781ZM714.07 359.132L715.575 364.845L715.683 366H714.889L712.896 359.132H714.07ZM719.485 364.8L720.919 359.132H722.087L720.094 366H719.307L719.485 364.8ZM717.968 359.132L719.694 364.686L719.891 366H719.142L717.295 360.243L717.143 359.132H717.968ZM722.982 362.642V362.496C722.982 362.001 723.054 361.542 723.198 361.119C723.342 360.691 723.549 360.321 723.82 360.008C724.091 359.69 724.419 359.445 724.804 359.271C725.189 359.094 725.621 359.005 726.099 359.005C726.582 359.005 727.015 359.094 727.4 359.271C727.79 359.445 728.12 359.69 728.391 360.008C728.666 360.321 728.875 360.691 729.019 361.119C729.163 361.542 729.235 362.001 729.235 362.496V362.642C729.235 363.137 729.163 363.596 729.019 364.02C728.875 364.443 728.666 364.813 728.391 365.13C728.12 365.444 727.792 365.689 727.407 365.867C727.026 366.04 726.594 366.127 726.112 366.127C725.629 366.127 725.196 366.04 724.811 365.867C724.425 365.689 724.095 365.444 723.82 365.13C723.549 364.813 723.342 364.443 723.198 364.02C723.054 363.596 722.982 363.137 722.982 362.642ZM724.157 362.496V362.642C724.157 362.985 724.197 363.309 724.277 363.613C724.358 363.914 724.478 364.18 724.639 364.413C724.804 364.646 725.009 364.83 725.255 364.965C725.5 365.097 725.786 365.162 726.112 365.162C726.433 365.162 726.715 365.097 726.956 364.965C727.201 364.83 727.405 364.646 727.565 364.413C727.726 364.18 727.847 363.914 727.927 363.613C728.012 363.309 728.054 362.985 728.054 362.642V362.496C728.054 362.158 728.012 361.838 727.927 361.538C727.847 361.233 727.724 360.964 727.559 360.731C727.398 360.494 727.195 360.308 726.95 360.173C726.708 360.037 726.425 359.97 726.099 359.97C725.778 359.97 725.494 360.037 725.249 360.173C725.007 360.308 724.804 360.494 724.639 360.731C724.478 360.964 724.358 361.233 724.277 361.538C724.197 361.838 724.157 362.158 724.157 362.496Z" fill="#4C4C4C"/>
<path d="M672.188 393.087V393.671C672.188 394.365 672.102 394.987 671.928 395.537C671.755 396.087 671.505 396.555 671.179 396.94C670.853 397.325 670.462 397.619 670.005 397.822C669.552 398.025 669.044 398.127 668.481 398.127C667.936 398.127 667.434 398.025 666.977 397.822C666.524 397.619 666.131 397.325 665.796 396.94C665.466 396.555 665.21 396.087 665.028 395.537C664.846 394.987 664.755 394.365 664.755 393.671V393.087C664.755 392.393 664.844 391.773 665.022 391.227C665.204 390.677 665.46 390.209 665.79 389.824C666.12 389.435 666.512 389.139 666.964 388.936C667.421 388.732 667.923 388.631 668.469 388.631C669.032 388.631 669.539 388.732 669.992 388.936C670.449 389.139 670.841 389.435 671.167 389.824C671.497 390.209 671.748 390.677 671.922 391.227C672.1 391.773 672.188 392.393 672.188 393.087ZM670.976 393.671V393.074C670.976 392.524 670.919 392.037 670.805 391.614C670.695 391.191 670.532 390.836 670.316 390.548C670.1 390.26 669.836 390.042 669.522 389.894C669.214 389.746 668.862 389.672 668.469 389.672C668.088 389.672 667.743 389.746 667.434 389.894C667.129 390.042 666.867 390.26 666.647 390.548C666.431 390.836 666.264 391.191 666.146 391.614C666.027 392.037 665.968 392.524 665.968 393.074V393.671C665.968 394.225 666.027 394.716 666.146 395.144C666.264 395.567 666.433 395.924 666.653 396.216C666.878 396.504 667.142 396.722 667.447 396.87C667.756 397.018 668.101 397.092 668.481 397.092C668.879 397.092 669.233 397.018 669.542 396.87C669.85 396.722 670.111 396.504 670.322 396.216C670.538 395.924 670.701 395.567 670.811 395.144C670.921 394.716 670.976 394.225 670.976 393.671ZM675.02 392.452V400.641H673.839V391.132H674.918L675.02 392.452ZM679.647 394.509V394.642C679.647 395.141 679.588 395.605 679.469 396.032C679.351 396.455 679.177 396.824 678.949 397.137C678.724 397.45 678.447 397.693 678.117 397.867C677.787 398.04 677.408 398.127 676.981 398.127C676.545 398.127 676.16 398.055 675.826 397.911C675.491 397.767 675.208 397.558 674.975 397.283C674.742 397.008 674.556 396.678 674.417 396.292C674.281 395.907 674.188 395.474 674.137 394.991V394.28C674.188 393.772 674.283 393.318 674.423 392.916C674.562 392.514 674.747 392.171 674.975 391.887C675.208 391.599 675.489 391.382 675.819 391.233C676.149 391.081 676.53 391.005 676.962 391.005C677.394 391.005 677.777 391.09 678.111 391.259C678.445 391.424 678.727 391.661 678.955 391.97C679.184 392.279 679.355 392.649 679.469 393.081C679.588 393.508 679.647 393.984 679.647 394.509ZM678.466 394.642V394.509C678.466 394.166 678.43 393.844 678.358 393.544C678.286 393.239 678.174 392.973 678.022 392.744C677.874 392.511 677.683 392.329 677.451 392.198C677.218 392.063 676.941 391.995 676.619 391.995C676.323 391.995 676.065 392.046 675.845 392.147C675.629 392.249 675.445 392.387 675.292 392.56C675.14 392.729 675.015 392.924 674.918 393.144C674.825 393.36 674.755 393.584 674.708 393.817V395.461C674.793 395.757 674.912 396.036 675.064 396.299C675.216 396.557 675.419 396.766 675.673 396.927C675.927 397.084 676.247 397.162 676.632 397.162C676.949 397.162 677.222 397.097 677.451 396.965C677.683 396.83 677.874 396.646 678.022 396.413C678.174 396.18 678.286 395.914 678.358 395.613C678.43 395.309 678.466 394.985 678.466 394.642ZM684.021 391.132V392.033H680.307V391.132H684.021ZM681.564 389.462H682.738V396.299C682.738 396.532 682.774 396.707 682.846 396.826C682.918 396.944 683.011 397.022 683.125 397.061C683.24 397.099 683.362 397.118 683.494 397.118C683.591 397.118 683.693 397.109 683.798 397.092C683.908 397.071 683.991 397.054 684.046 397.042L684.052 398C683.959 398.03 683.836 398.057 683.684 398.083C683.536 398.112 683.356 398.127 683.145 398.127C682.857 398.127 682.592 398.07 682.351 397.956C682.11 397.841 681.917 397.651 681.773 397.384C681.634 397.113 681.564 396.75 681.564 396.292V389.462ZM686.674 391.132V398H685.493V391.132H686.674ZM685.404 389.31C685.404 389.12 685.461 388.959 685.576 388.828C685.694 388.696 685.868 388.631 686.096 388.631C686.32 388.631 686.492 388.696 686.61 388.828C686.733 388.959 686.794 389.12 686.794 389.31C686.794 389.492 686.733 389.649 686.61 389.78C686.492 389.907 686.32 389.97 686.096 389.97C685.868 389.97 685.694 389.907 685.576 389.78C685.461 389.649 685.404 389.492 685.404 389.31ZM688.248 394.642V394.496C688.248 394.001 688.32 393.542 688.464 393.119C688.608 392.691 688.815 392.321 689.086 392.008C689.357 391.69 689.685 391.445 690.07 391.271C690.455 391.094 690.887 391.005 691.365 391.005C691.847 391.005 692.281 391.094 692.666 391.271C693.055 391.445 693.385 391.69 693.656 392.008C693.931 392.321 694.141 392.691 694.285 393.119C694.429 393.542 694.5 394.001 694.5 394.496V394.642C694.5 395.137 694.429 395.596 694.285 396.02C694.141 396.443 693.931 396.813 693.656 397.13C693.385 397.444 693.057 397.689 692.672 397.867C692.292 398.04 691.86 398.127 691.377 398.127C690.895 398.127 690.461 398.04 690.076 397.867C689.691 397.689 689.361 397.444 689.086 397.13C688.815 396.813 688.608 396.443 688.464 396.02C688.32 395.596 688.248 395.137 688.248 394.642ZM689.422 394.496V394.642C689.422 394.985 689.463 395.309 689.543 395.613C689.623 395.914 689.744 396.18 689.905 396.413C690.07 396.646 690.275 396.83 690.521 396.965C690.766 397.097 691.052 397.162 691.377 397.162C691.699 397.162 691.98 397.097 692.222 396.965C692.467 396.83 692.67 396.646 692.831 396.413C692.992 396.18 693.112 395.914 693.193 395.613C693.278 395.309 693.32 394.985 693.32 394.642V394.496C693.32 394.158 693.278 393.838 693.193 393.538C693.112 393.233 692.99 392.964 692.825 392.731C692.664 392.494 692.461 392.308 692.215 392.173C691.974 392.037 691.691 391.97 691.365 391.97C691.043 391.97 690.76 392.037 690.514 392.173C690.273 392.308 690.07 392.494 689.905 392.731C689.744 392.964 689.623 393.233 689.543 393.538C689.463 393.838 689.422 394.158 689.422 394.496ZM697.147 392.598V398H695.973V391.132H697.084L697.147 392.598ZM696.868 394.306L696.379 394.287C696.384 393.817 696.453 393.383 696.589 392.985C696.724 392.583 696.915 392.234 697.16 391.938C697.406 391.642 697.698 391.413 698.036 391.252C698.379 391.087 698.758 391.005 699.172 391.005C699.511 391.005 699.816 391.051 700.086 391.145C700.357 391.233 700.588 391.377 700.778 391.576C700.973 391.775 701.121 392.033 701.223 392.351C701.324 392.664 701.375 393.047 701.375 393.5V398H700.194V393.487C700.194 393.127 700.141 392.839 700.036 392.624C699.93 392.403 699.775 392.245 699.572 392.147C699.369 392.046 699.119 391.995 698.823 391.995C698.531 391.995 698.265 392.056 698.023 392.179C697.786 392.302 697.581 392.471 697.408 392.687C697.238 392.903 697.105 393.15 697.008 393.43C696.915 393.705 696.868 393.997 696.868 394.306ZM709.722 388.758V398H708.516V388.758H709.722ZM712.693 388.758V389.761H705.552V388.758H712.693ZM715.061 388.25V398H713.886V388.25H715.061ZM714.781 394.306L714.292 394.287C714.297 393.817 714.367 393.383 714.502 392.985C714.637 392.583 714.828 392.234 715.073 391.938C715.319 391.642 715.611 391.413 715.949 391.252C716.292 391.087 716.671 391.005 717.085 391.005C717.424 391.005 717.729 391.051 718 391.145C718.27 391.233 718.501 391.377 718.691 391.576C718.886 391.775 719.034 392.033 719.136 392.351C719.237 392.664 719.288 393.047 719.288 393.5V398H718.107V393.487C718.107 393.127 718.055 392.839 717.949 392.624C717.843 392.403 717.688 392.245 717.485 392.147C717.282 392.046 717.033 391.995 716.736 391.995C716.444 391.995 716.178 392.056 715.937 392.179C715.7 392.302 715.494 392.471 715.321 392.687C715.152 392.903 715.018 393.15 714.921 393.43C714.828 393.705 714.781 393.997 714.781 394.306ZM722.221 392.211V398H721.046V391.132H722.189L722.221 392.211ZM724.366 391.094L724.36 392.186C724.263 392.164 724.169 392.152 724.081 392.147C723.996 392.139 723.899 392.135 723.789 392.135C723.518 392.135 723.279 392.177 723.071 392.262C722.864 392.346 722.688 392.465 722.544 392.617C722.401 392.77 722.286 392.951 722.202 393.163C722.121 393.37 722.068 393.599 722.043 393.849L721.713 394.039C721.713 393.624 721.753 393.235 721.833 392.871C721.918 392.507 722.047 392.186 722.221 391.906C722.394 391.623 722.614 391.403 722.881 391.246C723.152 391.085 723.473 391.005 723.846 391.005C723.93 391.005 724.028 391.015 724.138 391.037C724.248 391.054 724.324 391.073 724.366 391.094ZM728.175 398.127C727.697 398.127 727.263 398.047 726.874 397.886C726.488 397.721 726.156 397.49 725.877 397.194C725.602 396.898 725.39 396.546 725.242 396.14C725.094 395.734 725.02 395.29 725.02 394.807V394.541C725.02 393.982 725.103 393.485 725.268 393.049C725.433 392.609 725.657 392.236 725.94 391.932C726.224 391.627 726.546 391.396 726.905 391.24C727.265 391.083 727.637 391.005 728.022 391.005C728.513 391.005 728.937 391.09 729.292 391.259C729.652 391.428 729.946 391.665 730.174 391.97C730.403 392.27 730.572 392.626 730.682 393.036C730.792 393.442 730.847 393.887 730.847 394.369V394.896H725.718V393.938H729.673V393.849C729.656 393.544 729.592 393.248 729.482 392.96C729.377 392.672 729.207 392.435 728.975 392.249C728.742 392.063 728.424 391.97 728.022 391.97C727.756 391.97 727.51 392.027 727.286 392.141C727.062 392.251 726.869 392.416 726.708 392.636C726.548 392.856 726.423 393.125 726.334 393.442C726.245 393.76 726.201 394.126 726.201 394.541V394.807C726.201 395.133 726.245 395.44 726.334 395.728C726.427 396.011 726.56 396.261 726.734 396.477C726.912 396.692 727.125 396.862 727.375 396.984C727.629 397.107 727.917 397.168 728.238 397.168C728.653 397.168 729.004 397.084 729.292 396.915C729.58 396.745 729.832 396.519 730.047 396.235L730.758 396.8C730.61 397.025 730.422 397.238 730.193 397.441C729.965 397.645 729.683 397.81 729.349 397.937C729.019 398.063 728.628 398.127 728.175 398.127ZM735.068 398.127C734.59 398.127 734.156 398.047 733.767 397.886C733.382 397.721 733.05 397.49 732.771 397.194C732.495 396.898 732.284 396.546 732.136 396.14C731.988 395.734 731.914 395.29 731.914 394.807V394.541C731.914 393.982 731.996 393.485 732.161 393.049C732.326 392.609 732.55 392.236 732.834 391.932C733.118 391.627 733.439 391.396 733.799 391.24C734.159 391.083 734.531 391.005 734.916 391.005C735.407 391.005 735.83 391.09 736.186 391.259C736.545 391.428 736.839 391.665 737.068 391.97C737.296 392.27 737.466 392.626 737.576 393.036C737.686 393.442 737.741 393.887 737.741 394.369V394.896H732.612V393.938H736.566V393.849C736.549 393.544 736.486 393.248 736.376 392.96C736.27 392.672 736.101 392.435 735.868 392.249C735.635 392.063 735.318 391.97 734.916 391.97C734.649 391.97 734.404 392.027 734.18 392.141C733.955 392.251 733.763 392.416 733.602 392.636C733.441 392.856 733.316 393.125 733.228 393.442C733.139 393.76 733.094 394.126 733.094 394.541V394.807C733.094 395.133 733.139 395.44 733.228 395.728C733.321 396.011 733.454 396.261 733.627 396.477C733.805 396.692 734.019 396.862 734.269 396.984C734.522 397.107 734.81 397.168 735.132 397.168C735.547 397.168 735.898 397.084 736.186 396.915C736.473 396.745 736.725 396.519 736.941 396.235L737.652 396.8C737.504 397.025 737.315 397.238 737.087 397.441C736.858 397.645 736.577 397.81 736.243 397.937C735.913 398.063 735.521 398.127 735.068 398.127Z" fill="#4C4C4C"/>
<path d="M672.188 425.087V425.671C672.188 426.365 672.102 426.987 671.928 427.537C671.755 428.087 671.505 428.555 671.179 428.94C670.853 429.325 670.462 429.619 670.005 429.822C669.552 430.025 669.044 430.127 668.481 430.127C667.936 430.127 667.434 430.025 666.977 429.822C666.524 429.619 666.131 429.325 665.796 428.94C665.466 428.555 665.21 428.087 665.028 427.537C664.846 426.987 664.755 426.365 664.755 425.671V425.087C664.755 424.393 664.844 423.773 665.022 423.227C665.204 422.677 665.46 422.209 665.79 421.824C666.12 421.435 666.512 421.139 666.964 420.936C667.421 420.732 667.923 420.631 668.469 420.631C669.032 420.631 669.539 420.732 669.992 420.936C670.449 421.139 670.841 421.435 671.167 421.824C671.497 422.209 671.748 422.677 671.922 423.227C672.1 423.773 672.188 424.393 672.188 425.087ZM670.976 425.671V425.074C670.976 424.524 670.919 424.037 670.805 423.614C670.695 423.191 670.532 422.836 670.316 422.548C670.1 422.26 669.836 422.042 669.522 421.894C669.214 421.746 668.862 421.672 668.469 421.672C668.088 421.672 667.743 421.746 667.434 421.894C667.129 422.042 666.867 422.26 666.647 422.548C666.431 422.836 666.264 423.191 666.146 423.614C666.027 424.037 665.968 424.524 665.968 425.074V425.671C665.968 426.225 666.027 426.716 666.146 427.144C666.264 427.567 666.433 427.924 666.653 428.216C666.878 428.504 667.142 428.722 667.447 428.87C667.756 429.018 668.101 429.092 668.481 429.092C668.879 429.092 669.233 429.018 669.542 428.87C669.85 428.722 670.111 428.504 670.322 428.216C670.538 427.924 670.701 427.567 670.811 427.144C670.921 426.716 670.976 426.225 670.976 425.671ZM675.02 424.452V432.641H673.839V423.132H674.918L675.02 424.452ZM679.647 426.509V426.642C679.647 427.141 679.588 427.605 679.469 428.032C679.351 428.455 679.177 428.824 678.949 429.137C678.724 429.45 678.447 429.693 678.117 429.867C677.787 430.04 677.408 430.127 676.981 430.127C676.545 430.127 676.16 430.055 675.826 429.911C675.491 429.767 675.208 429.558 674.975 429.283C674.742 429.008 674.556 428.678 674.417 428.292C674.281 427.907 674.188 427.474 674.137 426.991V426.28C674.188 425.772 674.283 425.318 674.423 424.916C674.562 424.514 674.747 424.171 674.975 423.887C675.208 423.599 675.489 423.382 675.819 423.233C676.149 423.081 676.53 423.005 676.962 423.005C677.394 423.005 677.777 423.09 678.111 423.259C678.445 423.424 678.727 423.661 678.955 423.97C679.184 424.279 679.355 424.649 679.469 425.081C679.588 425.508 679.647 425.984 679.647 426.509ZM678.466 426.642V426.509C678.466 426.166 678.43 425.844 678.358 425.544C678.286 425.239 678.174 424.973 678.022 424.744C677.874 424.511 677.683 424.329 677.451 424.198C677.218 424.063 676.941 423.995 676.619 423.995C676.323 423.995 676.065 424.046 675.845 424.147C675.629 424.249 675.445 424.387 675.292 424.56C675.14 424.729 675.015 424.924 674.918 425.144C674.825 425.36 674.755 425.584 674.708 425.817V427.461C674.793 427.757 674.912 428.036 675.064 428.299C675.216 428.557 675.419 428.766 675.673 428.927C675.927 429.084 676.247 429.162 676.632 429.162C676.949 429.162 677.222 429.097 677.451 428.965C677.683 428.83 677.874 428.646 678.022 428.413C678.174 428.18 678.286 427.914 678.358 427.613C678.43 427.309 678.466 426.985 678.466 426.642ZM684.021 423.132V424.033H680.307V423.132H684.021ZM681.564 421.462H682.738V428.299C682.738 428.532 682.774 428.707 682.846 428.826C682.918 428.944 683.011 429.022 683.125 429.061C683.24 429.099 683.362 429.118 683.494 429.118C683.591 429.118 683.693 429.109 683.798 429.092C683.908 429.071 683.991 429.054 684.046 429.042L684.052 430C683.959 430.03 683.836 430.057 683.684 430.083C683.536 430.112 683.356 430.127 683.145 430.127C682.857 430.127 682.592 430.07 682.351 429.956C682.11 429.841 681.917 429.651 681.773 429.384C681.634 429.113 681.564 428.75 681.564 428.292V421.462ZM686.674 423.132V430H685.493V423.132H686.674ZM685.404 421.31C685.404 421.12 685.461 420.959 685.576 420.828C685.694 420.696 685.868 420.631 686.096 420.631C686.32 420.631 686.492 420.696 686.61 420.828C686.733 420.959 686.794 421.12 686.794 421.31C686.794 421.492 686.733 421.649 686.61 421.78C686.492 421.907 686.32 421.97 686.096 421.97C685.868 421.97 685.694 421.907 685.576 421.78C685.461 421.649 685.404 421.492 685.404 421.31ZM688.248 426.642V426.496C688.248 426.001 688.32 425.542 688.464 425.119C688.608 424.691 688.815 424.321 689.086 424.008C689.357 423.69 689.685 423.445 690.07 423.271C690.455 423.094 690.887 423.005 691.365 423.005C691.847 423.005 692.281 423.094 692.666 423.271C693.055 423.445 693.385 423.69 693.656 424.008C693.931 424.321 694.141 424.691 694.285 425.119C694.429 425.542 694.5 426.001 694.5 426.496V426.642C694.5 427.137 694.429 427.596 694.285 428.02C694.141 428.443 693.931 428.813 693.656 429.13C693.385 429.444 693.057 429.689 692.672 429.867C692.292 430.04 691.86 430.127 691.377 430.127C690.895 430.127 690.461 430.04 690.076 429.867C689.691 429.689 689.361 429.444 689.086 429.13C688.815 428.813 688.608 428.443 688.464 428.02C688.32 427.596 688.248 427.137 688.248 426.642ZM689.422 426.496V426.642C689.422 426.985 689.463 427.309 689.543 427.613C689.623 427.914 689.744 428.18 689.905 428.413C690.07 428.646 690.275 428.83 690.521 428.965C690.766 429.097 691.052 429.162 691.377 429.162C691.699 429.162 691.98 429.097 692.222 428.965C692.467 428.83 692.67 428.646 692.831 428.413C692.992 428.18 693.112 427.914 693.193 427.613C693.278 427.309 693.32 426.985 693.32 426.642V426.496C693.32 426.158 693.278 425.838 693.193 425.538C693.112 425.233 692.99 424.964 692.825 424.731C692.664 424.494 692.461 424.308 692.215 424.173C691.974 424.037 691.691 423.97 691.365 423.97C691.043 423.97 690.76 424.037 690.514 424.173C690.273 424.308 690.07 424.494 689.905 424.731C689.744 424.964 689.623 425.233 689.543 425.538C689.463 425.838 689.422 426.158 689.422 426.496ZM697.147 424.598V430H695.973V423.132H697.084L697.147 424.598ZM696.868 426.306L696.379 426.287C696.384 425.817 696.453 425.383 696.589 424.985C696.724 424.583 696.915 424.234 697.16 423.938C697.406 423.642 697.698 423.413 698.036 423.252C698.379 423.087 698.758 423.005 699.172 423.005C699.511 423.005 699.816 423.051 700.086 423.145C700.357 423.233 700.588 423.377 700.778 423.576C700.973 423.775 701.121 424.033 701.223 424.351C701.324 424.664 701.375 425.047 701.375 425.5V430H700.194V425.487C700.194 425.127 700.141 424.839 700.036 424.624C699.93 424.403 699.775 424.245 699.572 424.147C699.369 424.046 699.119 423.995 698.823 423.995C698.531 423.995 698.265 424.056 698.023 424.179C697.786 424.302 697.581 424.471 697.408 424.687C697.238 424.903 697.105 425.15 697.008 425.43C696.915 425.705 696.868 425.997 696.868 426.306ZM707.786 420.758V430H706.561V420.758H707.786ZM711.658 424.916V425.918H707.52V424.916H711.658ZM712.287 420.758V421.761H707.52V420.758H712.287ZM713.118 426.642V426.496C713.118 426.001 713.19 425.542 713.334 425.119C713.478 424.691 713.685 424.321 713.956 424.008C714.227 423.69 714.555 423.445 714.94 423.271C715.325 423.094 715.757 423.005 716.235 423.005C716.717 423.005 717.151 423.094 717.536 423.271C717.925 423.445 718.256 423.69 718.526 424.008C718.801 424.321 719.011 424.691 719.155 425.119C719.299 425.542 719.371 426.001 719.371 426.496V426.642C719.371 427.137 719.299 427.596 719.155 428.02C719.011 428.443 718.801 428.813 718.526 429.13C718.256 429.444 717.928 429.689 717.542 429.867C717.162 430.04 716.73 430.127 716.248 430.127C715.765 430.127 715.331 430.04 714.946 429.867C714.561 429.689 714.231 429.444 713.956 429.13C713.685 428.813 713.478 428.443 713.334 428.02C713.19 427.596 713.118 427.137 713.118 426.642ZM714.292 426.496V426.642C714.292 426.985 714.333 427.309 714.413 427.613C714.493 427.914 714.614 428.18 714.775 428.413C714.94 428.646 715.145 428.83 715.391 428.965C715.636 429.097 715.922 429.162 716.248 429.162C716.569 429.162 716.851 429.097 717.092 428.965C717.337 428.83 717.54 428.646 717.701 428.413C717.862 428.18 717.983 427.914 718.063 427.613C718.148 427.309 718.19 426.985 718.19 426.642V426.496C718.19 426.158 718.148 425.838 718.063 425.538C717.983 425.233 717.86 424.964 717.695 424.731C717.534 424.494 717.331 424.308 717.085 424.173C716.844 424.037 716.561 423.97 716.235 423.97C715.913 423.97 715.63 424.037 715.384 424.173C715.143 424.308 714.94 424.494 714.775 424.731C714.614 424.964 714.493 425.233 714.413 425.538C714.333 425.838 714.292 426.158 714.292 426.496ZM725.045 428.413V423.132H726.226V430H725.103L725.045 428.413ZM725.268 426.966L725.756 426.953C725.756 427.41 725.708 427.833 725.61 428.223C725.517 428.608 725.365 428.942 725.153 429.226C724.942 429.509 724.665 429.731 724.322 429.892C723.979 430.049 723.562 430.127 723.071 430.127C722.737 430.127 722.43 430.078 722.151 429.981C721.876 429.884 721.639 429.733 721.44 429.53C721.241 429.327 721.087 429.063 720.977 428.737C720.871 428.411 720.818 428.02 720.818 427.562V423.132H721.992V427.575C721.992 427.884 722.026 428.14 722.094 428.343C722.166 428.542 722.261 428.701 722.379 428.819C722.502 428.934 722.638 429.014 722.786 429.061C722.938 429.107 723.095 429.13 723.255 429.13C723.755 429.13 724.15 429.035 724.442 428.845C724.734 428.65 724.944 428.39 725.071 428.064C725.202 427.734 725.268 427.368 725.268 426.966ZM729.19 424.211V430H728.016V423.132H729.159L729.19 424.211ZM731.336 423.094L731.33 424.186C731.232 424.164 731.139 424.152 731.05 424.147C730.966 424.139 730.868 424.135 730.758 424.135C730.487 424.135 730.248 424.177 730.041 424.262C729.834 424.346 729.658 424.465 729.514 424.617C729.37 424.77 729.256 424.951 729.171 425.163C729.091 425.37 729.038 425.599 729.013 425.849L728.683 426.039C728.683 425.624 728.723 425.235 728.803 424.871C728.888 424.507 729.017 424.186 729.19 423.906C729.364 423.623 729.584 423.403 729.851 423.246C730.121 423.085 730.443 423.005 730.815 423.005C730.9 423.005 730.997 423.015 731.107 423.037C731.217 423.054 731.294 423.073 731.336 423.094Z" fill="#4C4C4C"/>
</g>
</g>
<path d="M616 65C616 51.7452 626.745 41 640 41H999C1012.25 41 1023 51.7452 1023 65L991 133H648L616 65ZM1023 662C1023 675.255 1012.25 686 999 686H640C626.745 686 616 675.255 616 662L648 654H991L1023 662ZM640 686C626.745 686 616 675.255 616 662V65C616 51.7452 626.745 41 640 41L648 133V654L640 686ZM999 41C1012.25 41 1023 51.7452 1023 65V662C1023 675.255 1012.25 686 999 686L991 654V133L999 41Z" fill="#4C4C4C" mask="url(#path-18-outside-3_15667_4320)"/>
</g>
</g>
<defs>
<filter id="filter0_i_15667_4320" x="0" y="-10" width="1200" height="634" filterUnits="userSpaceOnUse" color-interpolation-filters="sRGB">
<feFlood flood-opacity="0" result="BackgroundImageFix"/>
<feBlend mode="normal" in="SourceGraphic" in2="BackgroundImageFix" result="shape"/>
<feColorMatrix in="SourceAlpha" type="matrix" values="0 0 0 0 0 0 0 0 0 0 0 0 0 0 0 0 0 0 127 0" result="hardAlpha"/>
<feMorphology radius="30" operator="dilate" in="SourceAlpha" result="effect1_innerShadow_15667_4320"/>
<feOffset dy="-36"/>
<feGaussianBlur stdDeviation="20"/>
<feComposite in2="hardAlpha" operator="arithmetic" k2="-1" k3="1"/>
<feColorMatrix type="matrix" values="0 0 0 0 0 0 0 0 0 0 0 0 0 0 0 0 0 0 0.05 0"/>
<feBlend mode="normal" in2="shape" result="effect1_innerShadow_15667_4320"/>
</filter>
<filter id="filter1_d_15667_4320" x="646" y="254" width="347" height="52" filterUnits="userSpaceOnUse" color-interpolation-filters="sRGB">
<feFlood flood-opacity="0" result="BackgroundImageFix"/>
<feColorMatrix in="SourceAlpha" type="matrix" values="0 0 0 0 0 0 0 0 0 0 0 0 0 0 0 0 0 0 127 0" result="hardAlpha"/>
<feMorphology radius="2" operator="dilate" in="SourceAlpha" result="effect1_dropShadow_15667_4320"/>
<feOffset/>
<feColorMatrix type="matrix" values="0 0 0 0 0 0 0 0 0 0.34902 0 0 0 0 1 0 0 0 1 0"/>
<feBlend mode="normal" in2="BackgroundImageFix" result="effect1_dropShadow_15667_4320"/>
<feBlend mode="normal" in="SourceGraphic" in2="effect1_dropShadow_15667_4320" result="shape"/>
</filter>
<filter id="filter2_ddd_15667_4320" x="632" y="291" width="375" height="177" filterUnits="userSpaceOnUse" color-interpolation-filters="sRGB">
<feFlood flood-opacity="0" result="BackgroundImageFix"/>
<feColorMatrix in="SourceAlpha" type="matrix" values="0 0 0 0 0 0 0 0 0 0 0 0 0 0 0 0 0 0 127 0" result="hardAlpha"/>
<feOffset dy="2"/>
<feGaussianBlur stdDeviation="2"/>
<feColorMatrix type="matrix" values="0 0 0 0 0.45098 0 0 0 0 0.45098 0 0 0 0 0.45098 0 0 0 0.1 0"/>
<feBlend mode="normal" in2="BackgroundImageFix" result="effect1_dropShadow_15667_4320"/>
<feColorMatrix in="SourceAlpha" type="matrix" values="0 0 0 0 0 0 0 0 0 0 0 0 0 0 0 0 0 0 127 0" result="hardAlpha"/>
<feOffset dy="1"/>
<feGaussianBlur stdDeviation="8"/>
<feColorMatrix type="matrix" values="0 0 0 0 0.45098 0 0 0 0 0.45098 0 0 0 0 0.45098 0 0 0 0.05 0"/>
<feBlend mode="normal" in2="effect1_dropShadow_15667_4320" result="effect2_dropShadow_15667_4320"/>
<feColorMatrix in="SourceAlpha" type="matrix" values="0 0 0 0 0 0 0 0 0 0 0 0 0 0 0 0 0 0 127 0" result="hardAlpha"/>
<feOffset dy="6"/>
<feGaussianBlur stdDeviation="6"/>
<feColorMatrix type="matrix" values="0 0 0 0 0.45098 0 0 0 0 0.45098 0 0 0 0 0.45098 0 0 0 0.08 0"/>
<feBlend mode="normal" in2="effect2_dropShadow_15667_4320" result="effect3_dropShadow_15667_4320"/>
<feBlend mode="normal" in="SourceGraphic" in2="effect3_dropShadow_15667_4320" result="shape"/>
</filter>
<clipPath id="clip0_15667_4320">
<rect width="1200" height="624" rx="16" fill="white"/>
</clipPath>
<clipPath id="clip1_15667_4320">
<path d="M193 95C193 90.5817 196.582 87 201 87H560C564.418 87 568 90.5817 568 95V662C568 666.418 564.418 670 560 670H201C196.582 670 193 666.418 193 662V95Z" fill="white"/>
</clipPath>
<clipPath id="clip2_15667_4320">
<path d="M632 95C632 90.5817 635.582 87 640 87H999C1003.42 87 1007 90.5817 1007 95V662C1007 666.418 1003.42 670 999 670H640C635.582 670 632 666.418 632 662V95Z" fill="white"/>
</clipPath>
</defs>
</svg>
