<svg width="660" height="589" viewBox="0 0 660 589" fill="none" xmlns="http://www.w3.org/2000/svg">
<rect width="660" height="589" rx="8" fill="#F8F8F8"/>
<rect x="208" y="79" width="260" height="48" rx="4" fill="#EAF1FE"/>
<path d="M233.272 102.551V106.623C233.121 106.823 232.884 107.043 232.562 107.282C232.245 107.517 231.822 107.719 231.295 107.89C230.768 108.061 230.111 108.146 229.325 108.146C228.656 108.146 228.043 108.034 227.486 107.81C226.93 107.58 226.449 107.246 226.043 106.806C225.643 106.367 225.333 105.832 225.113 105.202C224.894 104.567 224.784 103.845 224.784 103.034V102.294C224.784 101.489 224.884 100.771 225.084 100.141C225.289 99.5063 225.582 98.9692 225.963 98.5298C226.344 98.0903 226.803 97.7583 227.34 97.5337C227.882 97.3042 228.495 97.1895 229.178 97.1895C230.052 97.1895 230.775 97.3359 231.346 97.6289C231.922 97.917 232.367 98.3174 232.679 98.8301C232.992 99.3428 233.189 99.9287 233.272 100.588H231.471C231.412 100.217 231.297 99.8848 231.126 99.5918C230.96 99.2988 230.721 99.0693 230.409 98.9033C230.101 98.7324 229.701 98.647 229.208 98.647C228.783 98.647 228.409 98.7275 228.087 98.8887C227.765 99.0498 227.496 99.2866 227.281 99.5991C227.071 99.9116 226.913 100.292 226.805 100.742C226.698 101.191 226.644 101.704 226.644 102.28V103.034C226.644 103.62 226.705 104.14 226.827 104.594C226.954 105.048 227.135 105.432 227.369 105.744C227.608 106.057 227.899 106.293 228.241 106.455C228.583 106.611 228.968 106.689 229.398 106.689C229.818 106.689 230.162 106.655 230.431 106.586C230.699 106.513 230.912 106.428 231.068 106.33C231.229 106.228 231.354 106.13 231.441 106.037V103.92H229.222V102.551H233.272ZM238.626 108.146C238.041 108.146 237.511 108.051 237.037 107.861C236.568 107.666 236.168 107.395 235.836 107.048C235.509 106.701 235.257 106.293 235.082 105.825C234.906 105.356 234.818 104.851 234.818 104.309V104.016C234.818 103.396 234.908 102.834 235.089 102.331C235.27 101.828 235.521 101.398 235.843 101.042C236.166 100.681 236.546 100.405 236.986 100.214C237.425 100.024 237.901 99.9287 238.414 99.9287C238.98 99.9287 239.476 100.024 239.901 100.214C240.326 100.405 240.677 100.673 240.956 101.02C241.239 101.362 241.449 101.77 241.585 102.243C241.727 102.717 241.798 103.239 241.798 103.811V104.565H235.675V103.298H240.055V103.159C240.045 102.841 239.981 102.543 239.864 102.265C239.752 101.987 239.579 101.762 239.344 101.591C239.11 101.42 238.797 101.335 238.407 101.335C238.114 101.335 237.853 101.398 237.623 101.525C237.398 101.647 237.21 101.826 237.059 102.06C236.908 102.294 236.791 102.578 236.708 102.91C236.629 103.237 236.59 103.605 236.59 104.016V104.309C236.59 104.655 236.637 104.978 236.729 105.275C236.827 105.568 236.969 105.825 237.154 106.044C237.34 106.264 237.564 106.438 237.828 106.564C238.092 106.687 238.392 106.748 238.729 106.748C239.154 106.748 239.532 106.662 239.864 106.491C240.196 106.32 240.484 106.079 240.729 105.766L241.659 106.667C241.488 106.916 241.266 107.155 240.992 107.385C240.719 107.609 240.384 107.792 239.989 107.934C239.598 108.076 239.144 108.146 238.626 108.146ZM244.925 101.767V108H243.16V100.075H244.823L244.925 101.767ZM244.61 103.745L244.039 103.737C244.044 103.176 244.122 102.661 244.273 102.192C244.43 101.723 244.645 101.32 244.918 100.983C245.196 100.646 245.528 100.388 245.914 100.207C246.3 100.021 246.729 99.9287 247.203 99.9287C247.584 99.9287 247.928 99.9824 248.236 100.09C248.548 100.192 248.814 100.361 249.034 100.595C249.259 100.83 249.43 101.135 249.547 101.511C249.664 101.882 249.723 102.338 249.723 102.88V108H247.95V102.873C247.95 102.492 247.894 102.192 247.782 101.972C247.674 101.748 247.516 101.589 247.306 101.496C247.101 101.398 246.844 101.35 246.537 101.35C246.234 101.35 245.963 101.413 245.724 101.54C245.484 101.667 245.282 101.84 245.116 102.06C244.955 102.28 244.83 102.534 244.742 102.822C244.654 103.11 244.61 103.417 244.61 103.745ZM255.018 108.146C254.432 108.146 253.902 108.051 253.429 107.861C252.96 107.666 252.56 107.395 252.228 107.048C251.9 106.701 251.649 106.293 251.473 105.825C251.297 105.356 251.209 104.851 251.209 104.309V104.016C251.209 103.396 251.3 102.834 251.48 102.331C251.661 101.828 251.913 101.398 252.235 101.042C252.557 100.681 252.938 100.405 253.377 100.214C253.817 100.024 254.293 99.9287 254.806 99.9287C255.372 99.9287 255.868 100.024 256.292 100.214C256.717 100.405 257.069 100.673 257.347 101.02C257.63 101.362 257.84 101.77 257.977 102.243C258.119 102.717 258.189 103.239 258.189 103.811V104.565H252.066V103.298H256.446V103.159C256.437 102.841 256.373 102.543 256.256 102.265C256.144 101.987 255.97 101.762 255.736 101.591C255.501 101.42 255.189 101.335 254.798 101.335C254.505 101.335 254.244 101.398 254.015 101.525C253.79 101.647 253.602 101.826 253.451 102.06C253.299 102.294 253.182 102.578 253.099 102.91C253.021 103.237 252.982 103.605 252.982 104.016V104.309C252.982 104.655 253.028 104.978 253.121 105.275C253.219 105.568 253.36 105.825 253.546 106.044C253.731 106.264 253.956 106.438 254.22 106.564C254.483 106.687 254.784 106.748 255.121 106.748C255.545 106.748 255.924 106.662 256.256 106.491C256.588 106.32 256.876 106.079 257.12 105.766L258.05 106.667C257.879 106.916 257.657 107.155 257.384 107.385C257.11 107.609 256.776 107.792 256.38 107.934C255.99 108.076 255.536 108.146 255.018 108.146ZM261.339 101.584V108H259.574V100.075H261.258L261.339 101.584ZM263.763 100.024L263.749 101.665C263.641 101.645 263.524 101.63 263.397 101.621C263.275 101.611 263.153 101.606 263.031 101.606C262.728 101.606 262.462 101.65 262.232 101.738C262.003 101.821 261.81 101.943 261.654 102.104C261.502 102.26 261.385 102.451 261.302 102.675C261.219 102.9 261.17 103.151 261.156 103.43L260.753 103.459C260.753 102.961 260.802 102.5 260.899 102.075C260.997 101.65 261.144 101.276 261.339 100.954C261.539 100.632 261.788 100.38 262.086 100.2C262.389 100.019 262.738 99.9287 263.133 99.9287C263.241 99.9287 263.355 99.9385 263.478 99.958C263.604 99.9775 263.7 99.9995 263.763 100.024ZM269.073 106.411V102.631C269.073 102.348 269.022 102.104 268.919 101.899C268.817 101.694 268.661 101.535 268.451 101.423C268.246 101.311 267.987 101.254 267.674 101.254C267.386 101.254 267.137 101.303 266.927 101.401C266.717 101.499 266.554 101.63 266.437 101.796C266.319 101.962 266.261 102.15 266.261 102.36H264.503C264.503 102.048 264.579 101.745 264.73 101.452C264.881 101.159 265.101 100.898 265.389 100.668C265.677 100.439 266.021 100.258 266.422 100.126C266.822 99.9946 267.271 99.9287 267.77 99.9287C268.365 99.9287 268.893 100.029 269.352 100.229C269.815 100.429 270.179 100.732 270.443 101.137C270.711 101.538 270.846 102.041 270.846 102.646V106.169C270.846 106.53 270.87 106.855 270.919 107.143C270.973 107.426 271.048 107.673 271.146 107.883V108H269.337C269.254 107.81 269.188 107.568 269.139 107.275C269.095 106.977 269.073 106.689 269.073 106.411ZM269.33 103.181L269.344 104.272H268.077C267.75 104.272 267.462 104.304 267.213 104.367C266.964 104.426 266.756 104.514 266.59 104.631C266.424 104.748 266.3 104.89 266.217 105.056C266.134 105.222 266.092 105.41 266.092 105.62C266.092 105.83 266.141 106.022 266.239 106.198C266.336 106.369 266.478 106.503 266.664 106.601C266.854 106.699 267.083 106.748 267.352 106.748C267.713 106.748 268.028 106.674 268.297 106.528C268.57 106.376 268.785 106.193 268.941 105.979C269.098 105.759 269.181 105.551 269.19 105.356L269.762 106.14C269.703 106.34 269.603 106.555 269.461 106.784C269.32 107.014 269.134 107.233 268.905 107.443C268.68 107.648 268.409 107.817 268.092 107.949C267.779 108.081 267.418 108.146 267.008 108.146C266.49 108.146 266.029 108.044 265.624 107.839C265.218 107.629 264.901 107.348 264.671 106.997C264.442 106.64 264.327 106.237 264.327 105.788C264.327 105.368 264.405 104.997 264.562 104.675C264.723 104.348 264.957 104.074 265.265 103.854C265.577 103.635 265.958 103.469 266.407 103.356C266.856 103.239 267.369 103.181 267.945 103.181H269.33ZM274.581 96.75V108H272.809V96.75H274.581Z" fill="#286EF1"/>
<path d="M229.237 150.757L226.051 160H224.125L228.138 149.336H229.369L229.237 150.757ZM231.903 160L228.709 150.757L228.57 149.336H229.808L233.836 160H231.903ZM231.749 156.045V157.502H225.948V156.045H231.749ZM238.092 158.74C238.38 158.74 238.639 158.684 238.868 158.572C239.103 158.455 239.291 158.293 239.432 158.088C239.579 157.883 239.659 157.646 239.674 157.378H241.336C241.327 157.891 241.175 158.357 240.882 158.777C240.589 159.197 240.201 159.531 239.718 159.78C239.234 160.024 238.7 160.146 238.114 160.146C237.508 160.146 236.981 160.044 236.532 159.839C236.083 159.629 235.709 159.341 235.411 158.975C235.113 158.608 234.889 158.186 234.737 157.708C234.591 157.229 234.518 156.716 234.518 156.169V155.913C234.518 155.366 234.591 154.854 234.737 154.375C234.889 153.892 235.113 153.467 235.411 153.101C235.709 152.734 236.083 152.449 236.532 152.244C236.981 152.034 237.506 151.929 238.106 151.929C238.741 151.929 239.298 152.056 239.776 152.31C240.255 152.559 240.631 152.908 240.904 153.357C241.183 153.801 241.327 154.319 241.336 154.91H239.674C239.659 154.617 239.586 154.353 239.454 154.119C239.327 153.879 239.146 153.689 238.912 153.547C238.683 153.406 238.407 153.335 238.084 153.335C237.728 153.335 237.433 153.408 237.198 153.555C236.964 153.696 236.781 153.892 236.649 154.141C236.517 154.385 236.422 154.661 236.363 154.968C236.31 155.271 236.283 155.586 236.283 155.913V156.169C236.283 156.497 236.31 156.814 236.363 157.122C236.417 157.429 236.51 157.705 236.642 157.949C236.778 158.188 236.964 158.381 237.198 158.528C237.433 158.669 237.73 158.74 238.092 158.74ZM245.929 158.74C246.217 158.74 246.476 158.684 246.705 158.572C246.939 158.455 247.127 158.293 247.269 158.088C247.416 157.883 247.496 157.646 247.511 157.378H249.173C249.164 157.891 249.012 158.357 248.719 158.777C248.426 159.197 248.038 159.531 247.555 159.78C247.071 160.024 246.537 160.146 245.951 160.146C245.345 160.146 244.818 160.044 244.369 159.839C243.919 159.629 243.546 159.341 243.248 158.975C242.95 158.608 242.726 158.186 242.574 157.708C242.428 157.229 242.354 156.716 242.354 156.169V155.913C242.354 155.366 242.428 154.854 242.574 154.375C242.726 153.892 242.95 153.467 243.248 153.101C243.546 152.734 243.919 152.449 244.369 152.244C244.818 152.034 245.343 151.929 245.943 151.929C246.578 151.929 247.135 152.056 247.613 152.31C248.092 152.559 248.468 152.908 248.741 153.357C249.02 153.801 249.164 154.319 249.173 154.91H247.511C247.496 154.617 247.423 154.353 247.291 154.119C247.164 153.879 246.983 153.689 246.749 153.547C246.52 153.406 246.244 153.335 245.921 153.335C245.565 153.335 245.27 153.408 245.035 153.555C244.801 153.696 244.618 153.892 244.486 154.141C244.354 154.385 244.259 154.661 244.2 154.968C244.146 155.271 244.12 155.586 244.12 155.913V156.169C244.12 156.497 244.146 156.814 244.2 157.122C244.254 157.429 244.347 157.705 244.479 157.949C244.615 158.188 244.801 158.381 245.035 158.528C245.27 158.669 245.567 158.74 245.929 158.74ZM254.022 160.146C253.436 160.146 252.906 160.051 252.433 159.861C251.964 159.666 251.563 159.395 251.231 159.048C250.904 158.701 250.653 158.293 250.477 157.825C250.301 157.356 250.213 156.851 250.213 156.309V156.016C250.213 155.396 250.304 154.834 250.484 154.331C250.665 153.828 250.917 153.398 251.239 153.042C251.561 152.681 251.942 152.405 252.381 152.214C252.821 152.024 253.297 151.929 253.81 151.929C254.376 151.929 254.872 152.024 255.296 152.214C255.721 152.405 256.073 152.673 256.351 153.02C256.634 153.362 256.844 153.77 256.981 154.243C257.123 154.717 257.193 155.239 257.193 155.811V156.565H251.07V155.298H255.45V155.159C255.44 154.841 255.377 154.543 255.26 154.265C255.147 153.987 254.974 153.762 254.74 153.591C254.505 153.42 254.193 153.335 253.802 153.335C253.509 153.335 253.248 153.398 253.019 153.525C252.794 153.647 252.606 153.826 252.455 154.06C252.303 154.294 252.186 154.578 252.103 154.91C252.025 155.237 251.986 155.605 251.986 156.016V156.309C251.986 156.655 252.032 156.978 252.125 157.275C252.223 157.568 252.364 157.825 252.55 158.044C252.735 158.264 252.96 158.438 253.224 158.564C253.487 158.687 253.788 158.748 254.125 158.748C254.549 158.748 254.928 158.662 255.26 158.491C255.592 158.32 255.88 158.079 256.124 157.766L257.054 158.667C256.883 158.916 256.661 159.155 256.388 159.385C256.114 159.609 255.78 159.792 255.384 159.934C254.994 160.076 254.54 160.146 254.022 160.146ZM263.016 157.854C263.016 157.678 262.972 157.52 262.884 157.378C262.796 157.231 262.628 157.1 262.379 156.982C262.135 156.865 261.773 156.758 261.295 156.66C260.875 156.567 260.489 156.458 260.138 156.331C259.791 156.199 259.493 156.04 259.244 155.854C258.995 155.669 258.802 155.449 258.666 155.195C258.529 154.941 258.46 154.648 258.46 154.316C258.46 153.994 258.531 153.689 258.673 153.401C258.814 153.113 259.017 152.859 259.281 152.639C259.544 152.419 259.864 152.246 260.24 152.119C260.621 151.992 261.046 151.929 261.515 151.929C262.179 151.929 262.748 152.041 263.221 152.266C263.7 152.485 264.066 152.786 264.32 153.167C264.574 153.542 264.701 153.967 264.701 154.441H262.936C262.936 154.231 262.882 154.036 262.774 153.855C262.672 153.669 262.516 153.521 262.306 153.408C262.096 153.291 261.832 153.232 261.515 153.232C261.212 153.232 260.96 153.281 260.76 153.379C260.565 153.472 260.418 153.594 260.321 153.745C260.228 153.896 260.182 154.062 260.182 154.243C260.182 154.375 260.206 154.495 260.255 154.602C260.309 154.705 260.396 154.8 260.519 154.888C260.641 154.971 260.807 155.049 261.017 155.122C261.231 155.195 261.5 155.266 261.822 155.334C262.428 155.461 262.948 155.625 263.382 155.825C263.822 156.021 264.159 156.274 264.393 156.587C264.627 156.895 264.745 157.285 264.745 157.759C264.745 158.11 264.669 158.433 264.518 158.726C264.371 159.014 264.156 159.265 263.873 159.48C263.59 159.69 263.25 159.854 262.855 159.971C262.464 160.088 262.025 160.146 261.537 160.146C260.819 160.146 260.211 160.02 259.713 159.766C259.215 159.507 258.836 159.177 258.578 158.777C258.324 158.372 258.197 157.952 258.197 157.517H259.903C259.923 157.844 260.013 158.105 260.174 158.301C260.34 158.491 260.545 158.63 260.79 158.718C261.039 158.801 261.295 158.843 261.559 158.843C261.876 158.843 262.142 158.801 262.357 158.718C262.572 158.63 262.735 158.513 262.848 158.367C262.96 158.215 263.016 158.044 263.016 157.854ZM270.736 157.854C270.736 157.678 270.692 157.52 270.604 157.378C270.516 157.231 270.348 157.1 270.099 156.982C269.854 156.865 269.493 156.758 269.015 156.66C268.595 156.567 268.209 156.458 267.857 156.331C267.511 156.199 267.213 156.04 266.964 155.854C266.715 155.669 266.522 155.449 266.385 155.195C266.249 154.941 266.18 154.648 266.18 154.316C266.18 153.994 266.251 153.689 266.393 153.401C266.534 153.113 266.737 152.859 267 152.639C267.264 152.419 267.584 152.246 267.96 152.119C268.341 151.992 268.766 151.929 269.234 151.929C269.898 151.929 270.467 152.041 270.941 152.266C271.419 152.485 271.786 152.786 272.04 153.167C272.293 153.542 272.42 153.967 272.42 154.441H270.655C270.655 154.231 270.602 154.036 270.494 153.855C270.392 153.669 270.235 153.521 270.025 153.408C269.815 153.291 269.552 153.232 269.234 153.232C268.932 153.232 268.68 153.281 268.48 153.379C268.285 153.472 268.138 153.594 268.041 153.745C267.948 153.896 267.901 154.062 267.901 154.243C267.901 154.375 267.926 154.495 267.975 154.602C268.028 154.705 268.116 154.8 268.238 154.888C268.36 154.971 268.526 155.049 268.736 155.122C268.951 155.195 269.22 155.266 269.542 155.334C270.147 155.461 270.667 155.625 271.102 155.825C271.542 156.021 271.878 156.274 272.113 156.587C272.347 156.895 272.464 157.285 272.464 157.759C272.464 158.11 272.389 158.433 272.237 158.726C272.091 159.014 271.876 159.265 271.593 159.48C271.31 159.69 270.97 159.854 270.575 159.971C270.184 160.088 269.745 160.146 269.256 160.146C268.539 160.146 267.931 160.02 267.433 159.766C266.935 159.507 266.556 159.177 266.297 158.777C266.043 158.372 265.917 157.952 265.917 157.517H267.623C267.643 157.844 267.733 158.105 267.894 158.301C268.06 158.491 268.265 158.63 268.509 158.718C268.758 158.801 269.015 158.843 269.278 158.843C269.596 158.843 269.862 158.801 270.077 158.718C270.292 158.63 270.455 158.513 270.567 158.367C270.68 158.215 270.736 158.044 270.736 157.854ZM275.899 152.075V160H274.127V152.075H275.899ZM274.01 149.995C274.01 149.727 274.098 149.504 274.273 149.329C274.454 149.148 274.703 149.058 275.021 149.058C275.333 149.058 275.58 149.148 275.76 149.329C275.941 149.504 276.031 149.727 276.031 149.995C276.031 150.259 275.941 150.479 275.76 150.654C275.58 150.83 275.333 150.918 275.021 150.918C274.703 150.918 274.454 150.83 274.273 150.654C274.098 150.479 274.01 150.259 274.01 149.995ZM277.84 148.75H279.605V158.308L279.437 160H277.84V148.75ZM284.776 155.964V156.118C284.776 156.704 284.71 157.244 284.579 157.737C284.452 158.225 284.256 158.65 283.993 159.011C283.734 159.373 283.412 159.653 283.026 159.854C282.645 160.049 282.203 160.146 281.7 160.146C281.207 160.146 280.777 160.054 280.411 159.868C280.045 159.683 279.737 159.419 279.488 159.077C279.244 158.735 279.046 158.328 278.895 157.854C278.744 157.38 278.636 156.858 278.573 156.287V155.796C278.636 155.22 278.744 154.697 278.895 154.229C279.046 153.755 279.244 153.347 279.488 153.005C279.737 152.659 280.042 152.393 280.404 152.207C280.77 152.021 281.197 151.929 281.686 151.929C282.193 151.929 282.64 152.026 283.026 152.222C283.417 152.417 283.741 152.695 284 153.057C284.259 153.413 284.452 153.838 284.579 154.331C284.71 154.824 284.776 155.369 284.776 155.964ZM283.011 156.118V155.964C283.011 155.608 282.982 155.273 282.923 154.961C282.865 154.644 282.767 154.365 282.63 154.126C282.499 153.887 282.318 153.699 282.088 153.562C281.864 153.42 281.583 153.35 281.246 153.35C280.934 153.35 280.665 153.403 280.44 153.511C280.216 153.618 280.028 153.765 279.876 153.95C279.725 154.136 279.605 154.351 279.518 154.595C279.435 154.839 279.378 155.103 279.349 155.386V156.711C279.393 157.078 279.486 157.415 279.627 157.722C279.774 158.025 279.979 158.269 280.243 158.455C280.506 158.635 280.846 158.726 281.261 158.726C281.588 158.726 281.864 158.66 282.088 158.528C282.313 158.396 282.491 158.213 282.623 157.979C282.76 157.739 282.857 157.461 282.916 157.144C282.979 156.826 283.011 156.484 283.011 156.118ZM288.16 152.075V160H286.388V152.075H288.16ZM286.271 149.995C286.271 149.727 286.358 149.504 286.534 149.329C286.715 149.148 286.964 149.058 287.281 149.058C287.594 149.058 287.84 149.148 288.021 149.329C288.202 149.504 288.292 149.727 288.292 149.995C288.292 150.259 288.202 150.479 288.021 150.654C287.84 150.83 287.594 150.918 287.281 150.918C286.964 150.918 286.715 150.83 286.534 150.654C286.358 150.479 286.271 150.259 286.271 149.995ZM291.983 148.75V160H290.211V148.75H291.983ZM295.807 152.075V160H294.034V152.075H295.807ZM293.917 149.995C293.917 149.727 294.005 149.504 294.181 149.329C294.361 149.148 294.61 149.058 294.928 149.058C295.24 149.058 295.487 149.148 295.667 149.329C295.848 149.504 295.938 149.727 295.938 149.995C295.938 150.259 295.848 150.479 295.667 150.654C295.487 150.83 295.24 150.918 294.928 150.918C294.61 150.918 294.361 150.83 294.181 150.654C294.005 150.479 293.917 150.259 293.917 149.995ZM301.373 152.075V153.364H296.905V152.075H301.373ZM298.194 150.134H299.959V157.81C299.959 158.054 299.994 158.242 300.062 158.374C300.135 158.501 300.235 158.586 300.362 158.63C300.489 158.674 300.638 158.696 300.809 158.696C300.931 158.696 301.048 158.689 301.161 158.674C301.273 158.66 301.363 158.645 301.432 158.63L301.439 159.978C301.292 160.022 301.122 160.061 300.926 160.095C300.736 160.129 300.516 160.146 300.267 160.146C299.862 160.146 299.503 160.076 299.19 159.934C298.878 159.788 298.634 159.551 298.458 159.224C298.282 158.896 298.194 158.462 298.194 157.92V150.134ZM305.035 159.136L307.188 152.075H309.078L305.899 161.208C305.826 161.404 305.731 161.616 305.614 161.846C305.497 162.075 305.343 162.292 305.152 162.498C304.967 162.708 304.735 162.876 304.457 163.003C304.178 163.135 303.841 163.201 303.446 163.201C303.29 163.201 303.138 163.186 302.992 163.157C302.85 163.132 302.716 163.105 302.589 163.076L302.582 161.729C302.63 161.733 302.689 161.738 302.757 161.743C302.831 161.748 302.889 161.75 302.933 161.75C303.226 161.75 303.47 161.714 303.666 161.641C303.861 161.572 304.02 161.46 304.142 161.304C304.269 161.147 304.376 160.938 304.464 160.674L305.035 159.136ZM303.819 152.075L305.702 158.008L306.017 159.868L304.793 160.183L301.915 152.075H303.819Z" fill="#1A1A1A"/>
<path d="M229.237 202.757L226.051 212H224.125L228.138 201.336H229.369L229.237 202.757ZM231.903 212L228.709 202.757L228.57 201.336H229.808L233.836 212H231.903ZM231.749 208.045V209.502H225.948V208.045H231.749ZM236.495 205.599V215.047H234.73V204.075H236.356L236.495 205.599ZM241.659 207.964V208.118C241.659 208.694 241.59 209.229 241.454 209.722C241.322 210.21 241.124 210.638 240.86 211.004C240.602 211.365 240.282 211.646 239.901 211.846C239.52 212.046 239.081 212.146 238.583 212.146C238.089 212.146 237.657 212.056 237.286 211.875C236.92 211.69 236.61 211.429 236.356 211.092C236.102 210.755 235.897 210.359 235.741 209.905C235.589 209.446 235.482 208.943 235.418 208.396V207.803C235.482 207.222 235.589 206.695 235.741 206.221C235.897 205.748 236.102 205.34 236.356 204.998C236.61 204.656 236.92 204.393 237.286 204.207C237.652 204.021 238.08 203.929 238.568 203.929C239.066 203.929 239.508 204.026 239.894 204.222C240.279 204.412 240.604 204.686 240.868 205.042C241.131 205.394 241.329 205.818 241.461 206.316C241.593 206.81 241.659 207.359 241.659 207.964ZM239.894 208.118V207.964C239.894 207.598 239.859 207.259 239.791 206.946C239.723 206.629 239.615 206.351 239.469 206.111C239.322 205.872 239.134 205.687 238.905 205.555C238.68 205.418 238.409 205.35 238.092 205.35C237.779 205.35 237.511 205.403 237.286 205.511C237.062 205.613 236.874 205.757 236.722 205.943C236.571 206.128 236.454 206.346 236.371 206.595C236.288 206.839 236.229 207.105 236.195 207.393V208.814C236.253 209.166 236.354 209.488 236.495 209.781C236.637 210.074 236.837 210.308 237.096 210.484C237.359 210.655 237.696 210.74 238.106 210.74C238.424 210.74 238.695 210.672 238.919 210.535C239.144 210.398 239.327 210.21 239.469 209.971C239.615 209.727 239.723 209.446 239.791 209.129C239.859 208.812 239.894 208.475 239.894 208.118ZM244.933 205.599V215.047H243.167V204.075H244.793L244.933 205.599ZM250.096 207.964V208.118C250.096 208.694 250.028 209.229 249.891 209.722C249.759 210.21 249.562 210.638 249.298 211.004C249.039 211.365 248.719 211.646 248.338 211.846C247.958 212.046 247.518 212.146 247.02 212.146C246.527 212.146 246.095 212.056 245.724 211.875C245.357 211.69 245.047 211.429 244.793 211.092C244.54 210.755 244.334 210.359 244.178 209.905C244.027 209.446 243.919 208.943 243.856 208.396V207.803C243.919 207.222 244.027 206.695 244.178 206.221C244.334 205.748 244.54 205.34 244.793 204.998C245.047 204.656 245.357 204.393 245.724 204.207C246.09 204.021 246.517 203.929 247.005 203.929C247.503 203.929 247.945 204.026 248.331 204.222C248.717 204.412 249.042 204.686 249.305 205.042C249.569 205.394 249.767 205.818 249.898 206.316C250.03 206.81 250.096 207.359 250.096 207.964ZM248.331 208.118V207.964C248.331 207.598 248.297 207.259 248.229 206.946C248.16 206.629 248.053 206.351 247.906 206.111C247.76 205.872 247.572 205.687 247.342 205.555C247.118 205.418 246.847 205.35 246.529 205.35C246.217 205.35 245.948 205.403 245.724 205.511C245.499 205.613 245.311 205.757 245.16 205.943C245.008 206.128 244.891 206.346 244.808 206.595C244.725 206.839 244.667 207.105 244.632 207.393V208.814C244.691 209.166 244.791 209.488 244.933 209.781C245.074 210.074 245.274 210.308 245.533 210.484C245.797 210.655 246.134 210.74 246.544 210.74C246.861 210.74 247.132 210.672 247.357 210.535C247.582 210.398 247.765 210.21 247.906 209.971C248.053 209.727 248.16 209.446 248.229 209.129C248.297 208.812 248.331 208.475 248.331 208.118ZM255.091 212.146C254.505 212.146 253.976 212.051 253.502 211.861C253.033 211.666 252.633 211.395 252.301 211.048C251.974 210.701 251.722 210.293 251.546 209.825C251.371 209.356 251.283 208.851 251.283 208.309V208.016C251.283 207.396 251.373 206.834 251.554 206.331C251.734 205.828 251.986 205.398 252.308 205.042C252.63 204.681 253.011 204.405 253.451 204.214C253.89 204.024 254.366 203.929 254.879 203.929C255.445 203.929 255.941 204.024 256.366 204.214C256.791 204.405 257.142 204.673 257.42 205.02C257.704 205.362 257.914 205.77 258.05 206.243C258.192 206.717 258.263 207.239 258.263 207.811V208.565H252.14V207.298H256.52V207.159C256.51 206.841 256.446 206.543 256.329 206.265C256.217 205.987 256.043 205.762 255.809 205.591C255.575 205.42 255.262 205.335 254.872 205.335C254.579 205.335 254.317 205.398 254.088 205.525C253.863 205.647 253.675 205.826 253.524 206.06C253.373 206.294 253.255 206.578 253.172 206.91C253.094 207.237 253.055 207.605 253.055 208.016V208.309C253.055 208.655 253.102 208.978 253.194 209.275C253.292 209.568 253.434 209.825 253.619 210.044C253.805 210.264 254.029 210.438 254.293 210.564C254.557 210.687 254.857 210.748 255.194 210.748C255.619 210.748 255.997 210.662 256.329 210.491C256.661 210.32 256.949 210.079 257.193 209.766L258.124 210.667C257.953 210.916 257.73 211.155 257.457 211.385C257.184 211.609 256.849 211.792 256.454 211.934C256.063 212.076 255.609 212.146 255.091 212.146ZM264.107 210.411V206.631C264.107 206.348 264.056 206.104 263.954 205.899C263.851 205.694 263.695 205.535 263.485 205.423C263.28 205.311 263.021 205.254 262.708 205.254C262.42 205.254 262.171 205.303 261.961 205.401C261.751 205.499 261.588 205.63 261.471 205.796C261.354 205.962 261.295 206.15 261.295 206.36H259.537C259.537 206.048 259.613 205.745 259.764 205.452C259.916 205.159 260.135 204.898 260.423 204.668C260.711 204.439 261.056 204.258 261.456 204.126C261.856 203.995 262.306 203.929 262.804 203.929C263.399 203.929 263.927 204.029 264.386 204.229C264.85 204.429 265.213 204.732 265.477 205.137C265.746 205.538 265.88 206.041 265.88 206.646V210.169C265.88 210.53 265.904 210.855 265.953 211.143C266.007 211.426 266.083 211.673 266.18 211.883V212H264.371C264.288 211.81 264.222 211.568 264.173 211.275C264.129 210.977 264.107 210.689 264.107 210.411ZM264.364 207.181L264.378 208.272H263.111C262.784 208.272 262.496 208.304 262.247 208.367C261.998 208.426 261.791 208.514 261.625 208.631C261.458 208.748 261.334 208.89 261.251 209.056C261.168 209.222 261.126 209.41 261.126 209.62C261.126 209.83 261.175 210.022 261.273 210.198C261.371 210.369 261.512 210.503 261.698 210.601C261.888 210.699 262.118 210.748 262.386 210.748C262.748 210.748 263.062 210.674 263.331 210.528C263.604 210.376 263.819 210.193 263.976 209.979C264.132 209.759 264.215 209.551 264.225 209.356L264.796 210.14C264.737 210.34 264.637 210.555 264.496 210.784C264.354 211.014 264.168 211.233 263.939 211.443C263.714 211.648 263.443 211.817 263.126 211.949C262.813 212.081 262.452 212.146 262.042 212.146C261.524 212.146 261.063 212.044 260.658 211.839C260.252 211.629 259.935 211.348 259.706 210.997C259.476 210.64 259.361 210.237 259.361 209.788C259.361 209.368 259.439 208.997 259.596 208.675C259.757 208.348 259.991 208.074 260.299 207.854C260.611 207.635 260.992 207.469 261.441 207.356C261.891 207.239 262.403 207.181 262.979 207.181H264.364ZM269.498 205.584V212H267.733V204.075H269.417L269.498 205.584ZM271.922 204.024L271.908 205.665C271.8 205.645 271.683 205.63 271.556 205.621C271.434 205.611 271.312 205.606 271.19 205.606C270.887 205.606 270.621 205.65 270.392 205.738C270.162 205.821 269.969 205.943 269.813 206.104C269.662 206.26 269.544 206.451 269.461 206.675C269.378 206.9 269.33 207.151 269.315 207.43L268.912 207.459C268.912 206.961 268.961 206.5 269.059 206.075C269.156 205.65 269.303 205.276 269.498 204.954C269.698 204.632 269.947 204.38 270.245 204.2C270.548 204.019 270.897 203.929 271.292 203.929C271.4 203.929 271.515 203.938 271.637 203.958C271.764 203.978 271.859 204 271.922 204.024ZM277.232 210.411V206.631C277.232 206.348 277.181 206.104 277.079 205.899C276.976 205.694 276.82 205.535 276.61 205.423C276.405 205.311 276.146 205.254 275.833 205.254C275.545 205.254 275.296 205.303 275.086 205.401C274.876 205.499 274.713 205.63 274.596 205.796C274.479 205.962 274.42 206.15 274.42 206.36H272.662C272.662 206.048 272.738 205.745 272.889 205.452C273.041 205.159 273.26 204.898 273.548 204.668C273.836 204.439 274.181 204.258 274.581 204.126C274.981 203.995 275.431 203.929 275.929 203.929C276.524 203.929 277.052 204.029 277.511 204.229C277.975 204.429 278.338 204.732 278.602 205.137C278.871 205.538 279.005 206.041 279.005 206.646V210.169C279.005 210.53 279.029 210.855 279.078 211.143C279.132 211.426 279.208 211.673 279.305 211.883V212H277.496C277.413 211.81 277.347 211.568 277.298 211.275C277.254 210.977 277.232 210.689 277.232 210.411ZM277.489 207.181L277.503 208.272H276.236C275.909 208.272 275.621 208.304 275.372 208.367C275.123 208.426 274.916 208.514 274.75 208.631C274.583 208.748 274.459 208.89 274.376 209.056C274.293 209.222 274.251 209.41 274.251 209.62C274.251 209.83 274.3 210.022 274.398 210.198C274.496 210.369 274.637 210.503 274.823 210.601C275.013 210.699 275.243 210.748 275.511 210.748C275.873 210.748 276.188 210.674 276.456 210.528C276.729 210.376 276.944 210.193 277.101 209.979C277.257 209.759 277.34 209.551 277.35 209.356L277.921 210.14C277.862 210.34 277.762 210.555 277.621 210.784C277.479 211.014 277.293 211.233 277.064 211.443C276.839 211.648 276.568 211.817 276.251 211.949C275.938 212.081 275.577 212.146 275.167 212.146C274.649 212.146 274.188 212.044 273.783 211.839C273.377 211.629 273.06 211.348 272.831 210.997C272.601 210.64 272.486 210.237 272.486 209.788C272.486 209.368 272.564 208.997 272.721 208.675C272.882 208.348 273.116 208.074 273.424 207.854C273.736 207.635 274.117 207.469 274.566 207.356C275.016 207.239 275.528 207.181 276.104 207.181H277.489ZM282.601 205.767V212H280.836V204.075H282.499L282.601 205.767ZM282.286 207.745L281.715 207.737C281.72 207.176 281.798 206.661 281.949 206.192C282.105 205.723 282.32 205.32 282.594 204.983C282.872 204.646 283.204 204.388 283.59 204.207C283.976 204.021 284.405 203.929 284.879 203.929C285.26 203.929 285.604 203.982 285.912 204.09C286.224 204.192 286.49 204.361 286.71 204.595C286.935 204.83 287.105 205.135 287.223 205.511C287.34 205.882 287.398 206.338 287.398 206.88V212H285.626V206.873C285.626 206.492 285.57 206.192 285.458 205.972C285.35 205.748 285.191 205.589 284.981 205.496C284.776 205.398 284.52 205.35 284.212 205.35C283.91 205.35 283.639 205.413 283.399 205.54C283.16 205.667 282.958 205.84 282.792 206.06C282.63 206.28 282.506 206.534 282.418 206.822C282.33 207.11 282.286 207.417 282.286 207.745ZM292.438 210.74C292.726 210.74 292.984 210.684 293.214 210.572C293.448 210.455 293.636 210.293 293.778 210.088C293.924 209.883 294.005 209.646 294.02 209.378H295.682C295.672 209.891 295.521 210.357 295.228 210.777C294.935 211.197 294.547 211.531 294.063 211.78C293.58 212.024 293.045 212.146 292.459 212.146C291.854 212.146 291.327 212.044 290.877 211.839C290.428 211.629 290.055 211.341 289.757 210.975C289.459 210.608 289.234 210.186 289.083 209.708C288.937 209.229 288.863 208.716 288.863 208.169V207.913C288.863 207.366 288.937 206.854 289.083 206.375C289.234 205.892 289.459 205.467 289.757 205.101C290.055 204.734 290.428 204.449 290.877 204.244C291.327 204.034 291.852 203.929 292.452 203.929C293.087 203.929 293.644 204.056 294.122 204.31C294.601 204.559 294.977 204.908 295.25 205.357C295.528 205.801 295.672 206.319 295.682 206.91H294.02C294.005 206.617 293.932 206.353 293.8 206.119C293.673 205.879 293.492 205.689 293.258 205.547C293.028 205.406 292.752 205.335 292.43 205.335C292.074 205.335 291.778 205.408 291.544 205.555C291.31 205.696 291.126 205.892 290.995 206.141C290.863 206.385 290.768 206.661 290.709 206.968C290.655 207.271 290.628 207.586 290.628 207.913V208.169C290.628 208.497 290.655 208.814 290.709 209.122C290.763 209.429 290.855 209.705 290.987 209.949C291.124 210.188 291.31 210.381 291.544 210.528C291.778 210.669 292.076 210.74 292.438 210.74ZM300.531 212.146C299.945 212.146 299.415 212.051 298.941 211.861C298.473 211.666 298.072 211.395 297.74 211.048C297.413 210.701 297.162 210.293 296.986 209.825C296.81 209.356 296.722 208.851 296.722 208.309V208.016C296.722 207.396 296.812 206.834 296.993 206.331C297.174 205.828 297.425 205.398 297.748 205.042C298.07 204.681 298.451 204.405 298.89 204.214C299.33 204.024 299.806 203.929 300.318 203.929C300.885 203.929 301.38 204.024 301.805 204.214C302.23 204.405 302.582 204.673 302.86 205.02C303.143 205.362 303.353 205.77 303.49 206.243C303.631 206.717 303.702 207.239 303.702 207.811V208.565H297.579V207.298H301.959V207.159C301.949 206.841 301.886 206.543 301.769 206.265C301.656 205.987 301.483 205.762 301.249 205.591C301.014 205.42 300.702 205.335 300.311 205.335C300.018 205.335 299.757 205.398 299.527 205.525C299.303 205.647 299.115 205.826 298.963 206.06C298.812 206.294 298.695 206.578 298.612 206.91C298.534 207.237 298.495 207.605 298.495 208.016V208.309C298.495 208.655 298.541 208.978 298.634 209.275C298.731 209.568 298.873 209.825 299.059 210.044C299.244 210.264 299.469 210.438 299.732 210.564C299.996 210.687 300.296 210.748 300.633 210.748C301.058 210.748 301.437 210.662 301.769 210.491C302.101 210.32 302.389 210.079 302.633 209.766L303.563 210.667C303.392 210.916 303.17 211.155 302.896 211.385C302.623 211.609 302.289 211.792 301.893 211.934C301.502 212.076 301.048 212.146 300.531 212.146ZM310.587 205.599V215.047H308.822V204.075H310.448L310.587 205.599ZM315.75 207.964V208.118C315.75 208.694 315.682 209.229 315.545 209.722C315.414 210.21 315.216 210.638 314.952 211.004C314.693 211.365 314.374 211.646 313.993 211.846C313.612 212.046 313.172 212.146 312.674 212.146C312.181 212.146 311.749 212.056 311.378 211.875C311.012 211.69 310.702 211.429 310.448 211.092C310.194 210.755 309.989 210.359 309.833 209.905C309.681 209.446 309.574 208.943 309.51 208.396V207.803C309.574 207.222 309.681 206.695 309.833 206.221C309.989 205.748 310.194 205.34 310.448 204.998C310.702 204.656 311.012 204.393 311.378 204.207C311.744 204.021 312.171 203.929 312.66 203.929C313.158 203.929 313.6 204.026 313.985 204.222C314.371 204.412 314.696 204.686 314.959 205.042C315.223 205.394 315.421 205.818 315.553 206.316C315.685 206.81 315.75 207.359 315.75 207.964ZM313.985 208.118V207.964C313.985 207.598 313.951 207.259 313.883 206.946C313.814 206.629 313.707 206.351 313.561 206.111C313.414 205.872 313.226 205.687 312.997 205.555C312.772 205.418 312.501 205.35 312.184 205.35C311.871 205.35 311.603 205.403 311.378 205.511C311.153 205.613 310.965 205.757 310.814 205.943C310.663 206.128 310.545 206.346 310.462 206.595C310.379 206.839 310.321 207.105 310.287 207.393V208.814C310.345 209.166 310.445 209.488 310.587 209.781C310.729 210.074 310.929 210.308 311.188 210.484C311.451 210.655 311.788 210.74 312.198 210.74C312.516 210.74 312.787 210.672 313.011 210.535C313.236 210.398 313.419 210.21 313.561 209.971C313.707 209.727 313.814 209.446 313.883 209.129C313.951 208.812 313.985 208.475 313.985 208.118ZM319.024 205.584V212H317.259V204.075H318.944L319.024 205.584ZM321.449 204.024L321.434 205.665C321.327 205.645 321.209 205.63 321.083 205.621C320.96 205.611 320.838 205.606 320.716 205.606C320.414 205.606 320.147 205.65 319.918 205.738C319.688 205.821 319.496 205.943 319.339 206.104C319.188 206.26 319.071 206.451 318.988 206.675C318.905 206.9 318.856 207.151 318.841 207.43L318.438 207.459C318.438 206.961 318.487 206.5 318.585 206.075C318.683 205.65 318.829 205.276 319.024 204.954C319.225 204.632 319.474 204.38 319.771 204.2C320.074 204.019 320.423 203.929 320.819 203.929C320.926 203.929 321.041 203.938 321.163 203.958C321.29 203.978 321.385 204 321.449 204.024ZM325.902 212.146C325.316 212.146 324.786 212.051 324.312 211.861C323.844 211.666 323.443 211.395 323.111 211.048C322.784 210.701 322.533 210.293 322.357 209.825C322.181 209.356 322.093 208.851 322.093 208.309V208.016C322.093 207.396 322.184 206.834 322.364 206.331C322.545 205.828 322.796 205.398 323.119 205.042C323.441 204.681 323.822 204.405 324.261 204.214C324.701 204.024 325.177 203.929 325.689 203.929C326.256 203.929 326.751 204.024 327.176 204.214C327.601 204.405 327.953 204.673 328.231 205.02C328.514 205.362 328.724 205.77 328.861 206.243C329.002 206.717 329.073 207.239 329.073 207.811V208.565H322.95V207.298H327.33V207.159C327.32 206.841 327.257 206.543 327.14 206.265C327.027 205.987 326.854 205.762 326.62 205.591C326.385 205.42 326.073 205.335 325.682 205.335C325.389 205.335 325.128 205.398 324.898 205.525C324.674 205.647 324.486 205.826 324.334 206.06C324.183 206.294 324.066 206.578 323.983 206.91C323.905 207.237 323.866 207.605 323.866 208.016V208.309C323.866 208.655 323.912 208.978 324.005 209.275C324.103 209.568 324.244 209.825 324.43 210.044C324.615 210.264 324.84 210.438 325.104 210.564C325.367 210.687 325.667 210.748 326.004 210.748C326.429 210.748 326.808 210.662 327.14 210.491C327.472 210.32 327.76 210.079 328.004 209.766L328.934 210.667C328.763 210.916 328.541 211.155 328.268 211.385C327.994 211.609 327.66 211.792 327.264 211.934C326.874 212.076 326.419 212.146 325.902 212.146ZM334.896 209.854C334.896 209.678 334.852 209.52 334.764 209.378C334.676 209.231 334.508 209.1 334.259 208.982C334.015 208.865 333.653 208.758 333.175 208.66C332.755 208.567 332.369 208.458 332.018 208.331C331.671 208.199 331.373 208.04 331.124 207.854C330.875 207.669 330.682 207.449 330.545 207.195C330.409 206.941 330.34 206.648 330.34 206.316C330.34 205.994 330.411 205.689 330.553 205.401C330.694 205.113 330.897 204.859 331.161 204.639C331.424 204.419 331.744 204.246 332.12 204.119C332.501 203.992 332.926 203.929 333.395 203.929C334.059 203.929 334.627 204.041 335.101 204.266C335.58 204.485 335.946 204.786 336.2 205.167C336.454 205.542 336.581 205.967 336.581 206.441H334.815C334.815 206.231 334.762 206.036 334.654 205.855C334.552 205.669 334.396 205.521 334.186 205.408C333.976 205.291 333.712 205.232 333.395 205.232C333.092 205.232 332.84 205.281 332.64 205.379C332.445 205.472 332.298 205.594 332.201 205.745C332.108 205.896 332.062 206.062 332.062 206.243C332.062 206.375 332.086 206.495 332.135 206.602C332.188 206.705 332.276 206.8 332.398 206.888C332.521 206.971 332.687 207.049 332.896 207.122C333.111 207.195 333.38 207.266 333.702 207.334C334.308 207.461 334.828 207.625 335.262 207.825C335.702 208.021 336.039 208.274 336.273 208.587C336.507 208.895 336.625 209.285 336.625 209.759C336.625 210.11 336.549 210.433 336.397 210.726C336.251 211.014 336.036 211.265 335.753 211.48C335.47 211.69 335.13 211.854 334.735 211.971C334.344 212.088 333.905 212.146 333.417 212.146C332.699 212.146 332.091 212.02 331.593 211.766C331.095 211.507 330.716 211.177 330.458 210.777C330.204 210.372 330.077 209.952 330.077 209.517H331.783C331.803 209.844 331.893 210.105 332.054 210.301C332.22 210.491 332.425 210.63 332.669 210.718C332.918 210.801 333.175 210.843 333.438 210.843C333.756 210.843 334.022 210.801 334.237 210.718C334.452 210.63 334.615 210.513 334.728 210.367C334.84 210.215 334.896 210.044 334.896 209.854ZM341.664 212.146C341.078 212.146 340.548 212.051 340.074 211.861C339.605 211.666 339.205 211.395 338.873 211.048C338.546 210.701 338.294 210.293 338.119 209.825C337.943 209.356 337.855 208.851 337.855 208.309V208.016C337.855 207.396 337.945 206.834 338.126 206.331C338.307 205.828 338.558 205.398 338.88 205.042C339.203 204.681 339.583 204.405 340.023 204.214C340.462 204.024 340.938 203.929 341.451 203.929C342.018 203.929 342.513 204.024 342.938 204.214C343.363 204.405 343.714 204.673 343.993 205.02C344.276 205.362 344.486 205.77 344.623 206.243C344.764 206.717 344.835 207.239 344.835 207.811V208.565H338.712V207.298H343.092V207.159C343.082 206.841 343.019 206.543 342.901 206.265C342.789 205.987 342.616 205.762 342.381 205.591C342.147 205.42 341.834 205.335 341.444 205.335C341.151 205.335 340.89 205.398 340.66 205.525C340.436 205.647 340.248 205.826 340.096 206.06C339.945 206.294 339.828 206.578 339.745 206.91C339.667 207.237 339.627 207.605 339.627 208.016V208.309C339.627 208.655 339.674 208.978 339.767 209.275C339.864 209.568 340.006 209.825 340.191 210.044C340.377 210.264 340.602 210.438 340.865 210.564C341.129 210.687 341.429 210.748 341.766 210.748C342.191 210.748 342.569 210.662 342.901 210.491C343.233 210.32 343.521 210.079 343.766 209.766L344.696 210.667C344.525 210.916 344.303 211.155 344.029 211.385C343.756 211.609 343.421 211.792 343.026 211.934C342.635 212.076 342.181 212.146 341.664 212.146ZM349.845 204.075V205.364H345.377V204.075H349.845ZM346.666 202.134H348.431V209.81C348.431 210.054 348.465 210.242 348.534 210.374C348.607 210.501 348.707 210.586 348.834 210.63C348.961 210.674 349.11 210.696 349.281 210.696C349.403 210.696 349.52 210.689 349.632 210.674C349.745 210.66 349.835 210.645 349.903 210.63L349.911 211.978C349.764 212.022 349.593 212.061 349.398 212.095C349.208 212.129 348.988 212.146 348.739 212.146C348.333 212.146 347.975 212.076 347.662 211.934C347.35 211.788 347.105 211.551 346.93 211.224C346.754 210.896 346.666 210.462 346.666 209.92V202.134ZM355.653 209.854C355.653 209.678 355.609 209.52 355.521 209.378C355.433 209.231 355.265 209.1 355.016 208.982C354.771 208.865 354.41 208.758 353.932 208.66C353.512 208.567 353.126 208.458 352.774 208.331C352.428 208.199 352.13 208.04 351.881 207.854C351.632 207.669 351.439 207.449 351.302 207.195C351.166 206.941 351.097 206.648 351.097 206.316C351.097 205.994 351.168 205.689 351.31 205.401C351.451 205.113 351.654 204.859 351.917 204.639C352.181 204.419 352.501 204.246 352.877 204.119C353.258 203.992 353.683 203.929 354.151 203.929C354.815 203.929 355.384 204.041 355.858 204.266C356.336 204.485 356.703 204.786 356.957 205.167C357.21 205.542 357.337 205.967 357.337 206.441H355.572C355.572 206.231 355.519 206.036 355.411 205.855C355.309 205.669 355.152 205.521 354.942 205.408C354.732 205.291 354.469 205.232 354.151 205.232C353.849 205.232 353.597 205.281 353.397 205.379C353.202 205.472 353.055 205.594 352.958 205.745C352.865 205.896 352.818 206.062 352.818 206.243C352.818 206.375 352.843 206.495 352.892 206.602C352.945 206.705 353.033 206.8 353.155 206.888C353.277 206.971 353.443 207.049 353.653 207.122C353.868 207.195 354.137 207.266 354.459 207.334C355.064 207.461 355.584 207.625 356.019 207.825C356.458 208.021 356.795 208.274 357.03 208.587C357.264 208.895 357.381 209.285 357.381 209.759C357.381 210.11 357.306 210.433 357.154 210.726C357.008 211.014 356.793 211.265 356.51 211.48C356.227 211.69 355.887 211.854 355.492 211.971C355.101 212.088 354.662 212.146 354.173 212.146C353.456 212.146 352.848 212.02 352.35 211.766C351.852 211.507 351.473 211.177 351.214 210.777C350.96 210.372 350.833 209.952 350.833 209.517H352.54C352.56 209.844 352.65 210.105 352.811 210.301C352.977 210.491 353.182 210.63 353.426 210.718C353.675 210.801 353.932 210.843 354.195 210.843C354.513 210.843 354.779 210.801 354.994 210.718C355.208 210.63 355.372 210.513 355.484 210.367C355.597 210.215 355.653 210.044 355.653 209.854Z" fill="#1A1A1A"/>
<path d="M228.182 264H225.904L225.919 262.542H228.182C228.841 262.542 229.393 262.398 229.837 262.11C230.287 261.822 230.624 261.41 230.848 260.873C231.078 260.335 231.192 259.696 231.192 258.954V258.375C231.192 257.799 231.126 257.289 230.995 256.844C230.868 256.4 230.677 256.026 230.423 255.724C230.174 255.421 229.867 255.191 229.5 255.035C229.139 254.879 228.722 254.801 228.248 254.801H225.86V253.336H228.248C228.956 253.336 229.603 253.456 230.189 253.695C230.775 253.929 231.28 254.269 231.705 254.713C232.135 255.157 232.464 255.689 232.694 256.31C232.923 256.93 233.038 257.623 233.038 258.39V258.954C233.038 259.72 232.923 260.414 232.694 261.034C232.464 261.654 232.135 262.186 231.705 262.63C231.275 263.07 230.763 263.409 230.167 263.648C229.576 263.883 228.915 264 228.182 264ZM226.922 253.336V264H225.084V253.336H226.922ZM239.176 262.411V258.631C239.176 258.348 239.125 258.104 239.022 257.899C238.919 257.694 238.763 257.535 238.553 257.423C238.348 257.311 238.089 257.254 237.777 257.254C237.489 257.254 237.24 257.303 237.03 257.401C236.82 257.499 236.656 257.63 236.539 257.796C236.422 257.962 236.363 258.15 236.363 258.36H234.605C234.605 258.048 234.681 257.745 234.833 257.452C234.984 257.159 235.204 256.898 235.492 256.668C235.78 256.439 236.124 256.258 236.524 256.126C236.925 255.995 237.374 255.929 237.872 255.929C238.468 255.929 238.995 256.029 239.454 256.229C239.918 256.429 240.282 256.732 240.545 257.137C240.814 257.538 240.948 258.041 240.948 258.646V262.169C240.948 262.53 240.973 262.855 241.021 263.143C241.075 263.426 241.151 263.673 241.249 263.883V264H239.439C239.356 263.81 239.291 263.568 239.242 263.275C239.198 262.977 239.176 262.689 239.176 262.411ZM239.432 259.181L239.447 260.272H238.18C237.853 260.272 237.564 260.304 237.315 260.367C237.066 260.426 236.859 260.514 236.693 260.631C236.527 260.748 236.402 260.89 236.319 261.056C236.236 261.222 236.195 261.41 236.195 261.62C236.195 261.83 236.244 262.022 236.341 262.198C236.439 262.369 236.581 262.503 236.766 262.601C236.957 262.699 237.186 262.748 237.455 262.748C237.816 262.748 238.131 262.674 238.399 262.528C238.673 262.376 238.888 262.193 239.044 261.979C239.2 261.759 239.283 261.551 239.293 261.356L239.864 262.14C239.806 262.34 239.706 262.555 239.564 262.784C239.422 263.014 239.237 263.233 239.007 263.443C238.783 263.648 238.512 263.817 238.194 263.949C237.882 264.081 237.521 264.146 237.11 264.146C236.593 264.146 236.131 264.044 235.726 263.839C235.321 263.629 235.003 263.348 234.774 262.997C234.544 262.64 234.43 262.237 234.43 261.788C234.43 261.368 234.508 260.997 234.664 260.675C234.825 260.348 235.06 260.074 235.367 259.854C235.68 259.635 236.061 259.469 236.51 259.356C236.959 259.239 237.472 259.181 238.048 259.181H239.432ZM246.427 256.075V257.364H241.959V256.075H246.427ZM243.248 254.134H245.013V261.81C245.013 262.054 245.047 262.242 245.116 262.374C245.189 262.501 245.289 262.586 245.416 262.63C245.543 262.674 245.692 262.696 245.863 262.696C245.985 262.696 246.102 262.689 246.214 262.674C246.327 262.66 246.417 262.645 246.485 262.63L246.493 263.978C246.346 264.022 246.175 264.061 245.98 264.095C245.79 264.129 245.57 264.146 245.321 264.146C244.916 264.146 244.557 264.076 244.244 263.934C243.932 263.788 243.688 263.551 243.512 263.224C243.336 262.896 243.248 262.462 243.248 261.92V254.134ZM252.257 262.411V258.631C252.257 258.348 252.206 258.104 252.103 257.899C252 257.694 251.844 257.535 251.634 257.423C251.429 257.311 251.17 257.254 250.858 257.254C250.57 257.254 250.321 257.303 250.111 257.401C249.901 257.499 249.737 257.63 249.62 257.796C249.503 257.962 249.444 258.15 249.444 258.36H247.687C247.687 258.048 247.762 257.745 247.914 257.452C248.065 257.159 248.285 256.898 248.573 256.668C248.861 256.439 249.205 256.258 249.605 256.126C250.006 255.995 250.455 255.929 250.953 255.929C251.549 255.929 252.076 256.029 252.535 256.229C252.999 256.429 253.363 256.732 253.626 257.137C253.895 257.538 254.029 258.041 254.029 258.646V262.169C254.029 262.53 254.054 262.855 254.103 263.143C254.156 263.426 254.232 263.673 254.33 263.883V264H252.521C252.438 263.81 252.372 263.568 252.323 263.275C252.279 262.977 252.257 262.689 252.257 262.411ZM252.513 259.181L252.528 260.272H251.261C250.934 260.272 250.646 260.304 250.396 260.367C250.147 260.426 249.94 260.514 249.774 260.631C249.608 260.748 249.483 260.89 249.4 261.056C249.317 261.222 249.276 261.41 249.276 261.62C249.276 261.83 249.325 262.022 249.422 262.198C249.52 262.369 249.662 262.503 249.847 262.601C250.038 262.699 250.267 262.748 250.536 262.748C250.897 262.748 251.212 262.674 251.48 262.528C251.754 262.376 251.969 262.193 252.125 261.979C252.281 261.759 252.364 261.551 252.374 261.356L252.945 262.14C252.887 262.34 252.787 262.555 252.645 262.784C252.503 263.014 252.318 263.233 252.088 263.443C251.864 263.648 251.593 263.817 251.275 263.949C250.963 264.081 250.602 264.146 250.191 264.146C249.674 264.146 249.212 264.044 248.807 263.839C248.402 263.629 248.084 263.348 247.855 262.997C247.625 262.64 247.511 262.237 247.511 261.788C247.511 261.368 247.589 260.997 247.745 260.675C247.906 260.348 248.141 260.074 248.448 259.854C248.761 259.635 249.142 259.469 249.591 259.356C250.04 259.239 250.553 259.181 251.129 259.181H252.513Z" fill="#1A1A1A"/>
<path d="M231.383 312.528H233.214C233.155 313.227 232.96 313.849 232.628 314.396C232.296 314.938 231.83 315.365 231.229 315.678C230.628 315.99 229.898 316.146 229.039 316.146C228.38 316.146 227.787 316.029 227.259 315.795C226.732 315.556 226.28 315.219 225.904 314.784C225.528 314.345 225.24 313.815 225.04 313.195C224.845 312.575 224.747 311.881 224.747 311.115V310.229C224.747 309.462 224.847 308.769 225.047 308.148C225.252 307.528 225.545 306.999 225.926 306.559C226.307 306.115 226.764 305.775 227.296 305.541C227.833 305.307 228.436 305.189 229.105 305.189C229.955 305.189 230.672 305.346 231.258 305.658C231.844 305.971 232.298 306.403 232.621 306.955C232.948 307.506 233.148 308.139 233.221 308.852H231.39C231.341 308.393 231.234 308 231.068 307.672C230.907 307.345 230.667 307.096 230.35 306.925C230.033 306.75 229.618 306.662 229.105 306.662C228.685 306.662 228.319 306.74 228.006 306.896C227.694 307.052 227.433 307.282 227.223 307.584C227.013 307.887 226.854 308.261 226.747 308.705C226.644 309.145 226.593 309.647 226.593 310.214V311.115C226.593 311.652 226.639 312.14 226.732 312.58C226.83 313.014 226.976 313.388 227.171 313.7C227.372 314.013 227.625 314.254 227.933 314.425C228.241 314.596 228.609 314.682 229.039 314.682C229.562 314.682 229.984 314.599 230.306 314.433C230.633 314.267 230.88 314.025 231.046 313.708C231.217 313.385 231.329 312.992 231.383 312.528ZM239.037 306.757L235.851 316H233.924L237.938 305.336H239.168L239.037 306.757ZM241.703 316L238.509 306.757L238.37 305.336H239.608L243.636 316H241.703ZM241.549 312.045V313.502H235.748V312.045H241.549ZM248.88 312.023H246.104V310.565H248.88C249.364 310.565 249.754 310.487 250.052 310.331C250.35 310.175 250.567 309.96 250.704 309.687C250.846 309.408 250.917 309.091 250.917 308.734C250.917 308.397 250.846 308.083 250.704 307.79C250.567 307.492 250.35 307.252 250.052 307.072C249.754 306.891 249.364 306.801 248.88 306.801H246.668V316H244.83V305.336H248.88C249.706 305.336 250.406 305.482 250.982 305.775C251.563 306.063 252.005 306.464 252.308 306.977C252.611 307.484 252.762 308.065 252.762 308.72C252.762 309.408 252.611 309.999 252.308 310.492C252.005 310.985 251.563 311.364 250.982 311.627C250.406 311.891 249.706 312.023 248.88 312.023ZM258.797 305.336V316H256.974V305.336H258.797ZM262.145 305.336V306.801H253.656V305.336H262.145ZM269.645 312.528H271.476C271.417 313.227 271.222 313.849 270.89 314.396C270.558 314.938 270.091 315.365 269.491 315.678C268.89 315.99 268.16 316.146 267.301 316.146C266.642 316.146 266.048 316.029 265.521 315.795C264.994 315.556 264.542 315.219 264.166 314.784C263.79 314.345 263.502 313.815 263.302 313.195C263.106 312.575 263.009 311.881 263.009 311.115V310.229C263.009 309.462 263.109 308.769 263.309 308.148C263.514 307.528 263.807 306.999 264.188 306.559C264.569 306.115 265.025 305.775 265.558 305.541C266.095 305.307 266.698 305.189 267.367 305.189C268.216 305.189 268.934 305.346 269.52 305.658C270.106 305.971 270.56 306.403 270.882 306.955C271.209 307.506 271.41 308.139 271.483 308.852H269.652C269.603 308.393 269.496 308 269.33 307.672C269.168 307.345 268.929 307.096 268.612 306.925C268.294 306.75 267.879 306.662 267.367 306.662C266.947 306.662 266.581 306.74 266.268 306.896C265.956 307.052 265.694 307.282 265.484 307.584C265.274 307.887 265.116 308.261 265.008 308.705C264.906 309.145 264.854 309.647 264.854 310.214V311.115C264.854 311.652 264.901 312.14 264.994 312.58C265.091 313.014 265.238 313.388 265.433 313.7C265.633 314.013 265.887 314.254 266.195 314.425C266.502 314.596 266.871 314.682 267.301 314.682C267.823 314.682 268.246 314.599 268.568 314.433C268.895 314.267 269.142 314.025 269.308 313.708C269.479 313.385 269.591 312.992 269.645 312.528ZM280.191 309.789V311.247H274.53V309.789H280.191ZM274.984 305.336V316H273.146V305.336H274.984ZM281.605 305.336V316H279.774V305.336H281.605ZM288.08 306.757L284.894 316H282.967L286.981 305.336H288.211L288.08 306.757ZM290.746 316L287.552 306.757L287.413 305.336H288.651L292.679 316H290.746ZM290.592 312.045V313.502H284.791V312.045H290.592Z" fill="#1A1A1A"/>
<path d="M227.047 357.336V368H225.208V357.336H227.047ZM230.921 361.687V368H229.156V360.075H230.819L230.921 361.687ZM230.636 363.745L230.035 363.737C230.035 363.19 230.104 362.685 230.24 362.221C230.377 361.757 230.577 361.354 230.841 361.013C231.104 360.666 231.432 360.4 231.822 360.214C232.218 360.024 232.674 359.929 233.192 359.929C233.553 359.929 233.883 359.982 234.181 360.09C234.483 360.192 234.745 360.356 234.964 360.581C235.189 360.805 235.36 361.093 235.477 361.445C235.599 361.796 235.66 362.221 235.66 362.719V368H233.895V362.873C233.895 362.487 233.836 362.185 233.719 361.965C233.607 361.745 233.443 361.589 233.229 361.496C233.019 361.398 232.767 361.35 232.474 361.35C232.142 361.35 231.859 361.413 231.625 361.54C231.395 361.667 231.207 361.84 231.061 362.06C230.914 362.28 230.807 362.534 230.738 362.822C230.67 363.11 230.636 363.417 230.636 363.745ZM235.55 363.276L234.723 363.459C234.723 362.98 234.789 362.529 234.92 362.104C235.057 361.674 235.255 361.298 235.514 360.976C235.777 360.649 236.102 360.393 236.488 360.207C236.874 360.021 237.315 359.929 237.813 359.929C238.219 359.929 238.58 359.985 238.897 360.097C239.22 360.205 239.493 360.375 239.718 360.61C239.942 360.844 240.113 361.149 240.23 361.525C240.348 361.896 240.406 362.346 240.406 362.873V368H238.634V362.866C238.634 362.465 238.575 362.155 238.458 361.936C238.346 361.716 238.185 361.564 237.975 361.481C237.765 361.394 237.513 361.35 237.22 361.35C236.947 361.35 236.705 361.401 236.495 361.503C236.29 361.601 236.117 361.74 235.975 361.921C235.833 362.097 235.726 362.299 235.653 362.529C235.584 362.758 235.55 363.007 235.55 363.276ZM243.995 361.599V371.047H242.23V360.075H243.856L243.995 361.599ZM249.159 363.964V364.118C249.159 364.694 249.09 365.229 248.954 365.722C248.822 366.21 248.624 366.638 248.36 367.004C248.102 367.365 247.782 367.646 247.401 367.846C247.02 368.046 246.581 368.146 246.083 368.146C245.589 368.146 245.157 368.056 244.786 367.875C244.42 367.69 244.11 367.429 243.856 367.092C243.602 366.755 243.397 366.359 243.241 365.905C243.089 365.446 242.982 364.943 242.918 364.396V363.803C242.982 363.222 243.089 362.695 243.241 362.221C243.397 361.748 243.602 361.34 243.856 360.998C244.11 360.656 244.42 360.393 244.786 360.207C245.152 360.021 245.58 359.929 246.068 359.929C246.566 359.929 247.008 360.026 247.394 360.222C247.779 360.412 248.104 360.686 248.368 361.042C248.631 361.394 248.829 361.818 248.961 362.316C249.093 362.81 249.159 363.359 249.159 363.964ZM247.394 364.118V363.964C247.394 363.598 247.359 363.259 247.291 362.946C247.223 362.629 247.115 362.351 246.969 362.111C246.822 361.872 246.634 361.687 246.405 361.555C246.18 361.418 245.909 361.35 245.592 361.35C245.279 361.35 245.011 361.403 244.786 361.511C244.562 361.613 244.374 361.757 244.222 361.943C244.071 362.128 243.954 362.346 243.871 362.595C243.788 362.839 243.729 363.105 243.695 363.393V364.814C243.753 365.166 243.854 365.488 243.995 365.781C244.137 366.074 244.337 366.308 244.596 366.484C244.859 366.655 245.196 366.74 245.606 366.74C245.924 366.74 246.195 366.672 246.419 366.535C246.644 366.398 246.827 366.21 246.969 365.971C247.115 365.727 247.223 365.446 247.291 365.129C247.359 364.812 247.394 364.475 247.394 364.118ZM250.323 364.125V363.957C250.323 363.386 250.406 362.856 250.572 362.368C250.738 361.875 250.978 361.447 251.29 361.086C251.607 360.72 251.993 360.437 252.447 360.236C252.906 360.031 253.424 359.929 254 359.929C254.581 359.929 255.099 360.031 255.553 360.236C256.012 360.437 256.4 360.72 256.717 361.086C257.035 361.447 257.276 361.875 257.442 362.368C257.608 362.856 257.691 363.386 257.691 363.957V364.125C257.691 364.697 257.608 365.227 257.442 365.715C257.276 366.203 257.035 366.63 256.717 366.997C256.4 367.358 256.014 367.641 255.56 367.846C255.106 368.046 254.591 368.146 254.015 368.146C253.434 368.146 252.914 368.046 252.455 367.846C252 367.641 251.615 367.358 251.297 366.997C250.98 366.63 250.738 366.203 250.572 365.715C250.406 365.227 250.323 364.697 250.323 364.125ZM252.088 363.957V364.125C252.088 364.482 252.125 364.819 252.198 365.136C252.271 365.454 252.386 365.732 252.542 365.971C252.699 366.21 252.899 366.398 253.143 366.535C253.387 366.672 253.678 366.74 254.015 366.74C254.342 366.74 254.625 366.672 254.864 366.535C255.108 366.398 255.309 366.21 255.465 365.971C255.621 365.732 255.736 365.454 255.809 365.136C255.887 364.819 255.926 364.482 255.926 364.125V363.957C255.926 363.605 255.887 363.273 255.809 362.961C255.736 362.644 255.619 362.363 255.458 362.119C255.301 361.875 255.101 361.684 254.857 361.547C254.618 361.406 254.332 361.335 254 361.335C253.668 361.335 253.38 361.406 253.136 361.547C252.896 361.684 252.699 361.875 252.542 362.119C252.386 362.363 252.271 362.644 252.198 362.961C252.125 363.273 252.088 363.605 252.088 363.957ZM260.943 361.584V368H259.178V360.075H260.863L260.943 361.584ZM263.368 360.024L263.353 361.665C263.246 361.645 263.128 361.63 263.001 361.621C262.879 361.611 262.757 361.606 262.635 361.606C262.333 361.606 262.066 361.65 261.837 361.738C261.607 361.821 261.415 361.943 261.258 362.104C261.107 362.26 260.99 362.451 260.907 362.675C260.824 362.9 260.775 363.151 260.76 363.43L260.357 363.459C260.357 362.961 260.406 362.5 260.504 362.075C260.602 361.65 260.748 361.276 260.943 360.954C261.144 360.632 261.393 360.38 261.69 360.2C261.993 360.019 262.342 359.929 262.738 359.929C262.845 359.929 262.96 359.938 263.082 359.958C263.209 359.978 263.304 360 263.368 360.024ZM268.473 360.075V361.364H264.005V360.075H268.473ZM265.294 358.134H267.059V365.81C267.059 366.054 267.093 366.242 267.162 366.374C267.235 366.501 267.335 366.586 267.462 366.63C267.589 366.674 267.738 366.696 267.909 366.696C268.031 366.696 268.148 366.689 268.26 366.674C268.373 366.66 268.463 366.645 268.531 366.63L268.539 367.978C268.392 368.022 268.221 368.061 268.026 368.095C267.835 368.129 267.616 368.146 267.367 368.146C266.961 368.146 266.603 368.076 266.29 367.934C265.978 367.788 265.733 367.551 265.558 367.224C265.382 366.896 265.294 366.462 265.294 365.92V358.134Z" fill="#1A1A1A"/>
<path d="M230.694 417.253C230.694 417.034 230.66 416.838 230.592 416.667C230.528 416.497 230.414 416.34 230.248 416.199C230.082 416.057 229.847 415.92 229.544 415.789C229.247 415.652 228.866 415.513 228.402 415.371C227.894 415.215 227.425 415.042 226.996 414.851C226.571 414.656 226.2 414.431 225.882 414.177C225.565 413.918 225.318 413.623 225.143 413.291C224.967 412.954 224.879 412.566 224.879 412.126C224.879 411.692 224.969 411.296 225.15 410.94C225.335 410.583 225.597 410.276 225.934 410.017C226.275 409.753 226.678 409.551 227.142 409.409C227.606 409.263 228.119 409.189 228.68 409.189C229.471 409.189 230.152 409.336 230.724 409.629C231.3 409.922 231.742 410.315 232.049 410.808C232.362 411.301 232.518 411.846 232.518 412.441H230.694C230.694 412.09 230.619 411.78 230.467 411.511C230.321 411.238 230.096 411.023 229.793 410.867C229.496 410.71 229.117 410.632 228.658 410.632C228.224 410.632 227.862 410.698 227.574 410.83C227.286 410.962 227.071 411.14 226.93 411.365C226.788 411.589 226.717 411.843 226.717 412.126C226.717 412.327 226.764 412.51 226.856 412.676C226.949 412.837 227.091 412.988 227.281 413.13C227.472 413.267 227.711 413.396 227.999 413.518C228.287 413.64 228.626 413.757 229.017 413.87C229.608 414.045 230.123 414.241 230.562 414.456C231.002 414.666 231.368 414.905 231.661 415.173C231.954 415.442 232.174 415.747 232.32 416.089C232.467 416.426 232.54 416.809 232.54 417.239C232.54 417.688 232.45 418.093 232.269 418.455C232.088 418.811 231.83 419.116 231.493 419.37C231.161 419.619 230.76 419.812 230.292 419.949C229.828 420.081 229.31 420.146 228.739 420.146C228.226 420.146 227.721 420.078 227.223 419.941C226.729 419.805 226.28 419.597 225.875 419.319C225.47 419.036 225.147 418.684 224.908 418.264C224.669 417.839 224.549 417.344 224.549 416.777H226.388C226.388 417.124 226.446 417.419 226.563 417.664C226.686 417.908 226.854 418.108 227.069 418.264C227.284 418.416 227.533 418.528 227.816 418.601C228.104 418.674 228.412 418.711 228.739 418.711C229.168 418.711 229.527 418.65 229.815 418.528C230.108 418.406 230.328 418.235 230.475 418.015C230.621 417.795 230.694 417.542 230.694 417.253ZM238.758 418.132V412.075H240.531V420H238.861L238.758 418.132ZM239.007 416.484L239.601 416.47C239.601 417.002 239.542 417.493 239.425 417.942C239.308 418.386 239.127 418.774 238.883 419.106C238.639 419.434 238.326 419.69 237.945 419.875C237.564 420.056 237.108 420.146 236.576 420.146C236.19 420.146 235.836 420.09 235.514 419.978C235.191 419.866 234.913 419.692 234.679 419.458C234.449 419.224 234.271 418.918 234.144 418.542C234.017 418.167 233.954 417.717 233.954 417.195V412.075H235.719V417.209C235.719 417.498 235.753 417.739 235.821 417.935C235.89 418.125 235.982 418.279 236.1 418.396C236.217 418.513 236.354 418.596 236.51 418.645C236.666 418.694 236.832 418.718 237.008 418.718C237.511 418.718 237.906 418.621 238.194 418.425C238.487 418.225 238.695 417.957 238.817 417.62C238.944 417.283 239.007 416.904 239.007 416.484ZM242.347 408.75H244.112V418.308L243.944 420H242.347V408.75ZM249.283 415.964V416.118C249.283 416.704 249.217 417.244 249.085 417.737C248.958 418.225 248.763 418.65 248.5 419.011C248.241 419.373 247.918 419.653 247.533 419.854C247.152 420.049 246.71 420.146 246.207 420.146C245.714 420.146 245.284 420.054 244.918 419.868C244.552 419.683 244.244 419.419 243.995 419.077C243.751 418.735 243.553 418.328 243.402 417.854C243.25 417.38 243.143 416.858 243.08 416.287V415.796C243.143 415.22 243.25 414.697 243.402 414.229C243.553 413.755 243.751 413.347 243.995 413.005C244.244 412.659 244.549 412.393 244.911 412.207C245.277 412.021 245.704 411.929 246.192 411.929C246.7 411.929 247.147 412.026 247.533 412.222C247.923 412.417 248.248 412.695 248.507 413.057C248.766 413.413 248.958 413.838 249.085 414.331C249.217 414.824 249.283 415.369 249.283 415.964ZM247.518 416.118V415.964C247.518 415.608 247.489 415.273 247.43 414.961C247.372 414.644 247.274 414.365 247.137 414.126C247.005 413.887 246.825 413.699 246.595 413.562C246.371 413.42 246.09 413.35 245.753 413.35C245.44 413.35 245.172 413.403 244.947 413.511C244.723 413.618 244.535 413.765 244.383 413.95C244.232 414.136 244.112 414.351 244.024 414.595C243.941 414.839 243.885 415.103 243.856 415.386V416.711C243.9 417.078 243.993 417.415 244.134 417.722C244.281 418.025 244.486 418.269 244.75 418.455C245.013 418.635 245.353 418.726 245.768 418.726C246.095 418.726 246.371 418.66 246.595 418.528C246.82 418.396 246.998 418.213 247.13 417.979C247.267 417.739 247.364 417.461 247.423 417.144C247.486 416.826 247.518 416.484 247.518 416.118ZM252.542 413.687V420H250.777V412.075H252.44L252.542 413.687ZM252.257 415.745L251.656 415.737C251.656 415.19 251.725 414.685 251.861 414.221C251.998 413.757 252.198 413.354 252.462 413.013C252.726 412.666 253.053 412.4 253.443 412.214C253.839 412.024 254.295 411.929 254.813 411.929C255.174 411.929 255.504 411.982 255.802 412.09C256.104 412.192 256.366 412.356 256.585 412.581C256.81 412.805 256.981 413.093 257.098 413.445C257.22 413.796 257.281 414.221 257.281 414.719V420H255.516V414.873C255.516 414.487 255.458 414.185 255.34 413.965C255.228 413.745 255.064 413.589 254.85 413.496C254.64 413.398 254.388 413.35 254.095 413.35C253.763 413.35 253.48 413.413 253.246 413.54C253.016 413.667 252.828 413.84 252.682 414.06C252.535 414.28 252.428 414.534 252.359 414.822C252.291 415.11 252.257 415.417 252.257 415.745ZM257.171 415.276L256.344 415.459C256.344 414.98 256.41 414.529 256.542 414.104C256.678 413.674 256.876 413.298 257.135 412.976C257.398 412.649 257.723 412.393 258.109 412.207C258.495 412.021 258.937 411.929 259.435 411.929C259.84 411.929 260.201 411.985 260.519 412.097C260.841 412.205 261.114 412.375 261.339 412.61C261.563 412.844 261.734 413.149 261.852 413.525C261.969 413.896 262.027 414.346 262.027 414.873V420H260.255V414.866C260.255 414.465 260.196 414.155 260.079 413.936C259.967 413.716 259.806 413.564 259.596 413.481C259.386 413.394 259.134 413.35 258.841 413.35C258.568 413.35 258.326 413.401 258.116 413.503C257.911 413.601 257.738 413.74 257.596 413.921C257.455 414.097 257.347 414.299 257.274 414.529C257.206 414.758 257.171 415.007 257.171 415.276ZM265.733 412.075V420H263.961V412.075H265.733ZM263.844 409.995C263.844 409.727 263.932 409.504 264.107 409.329C264.288 409.148 264.537 409.058 264.854 409.058C265.167 409.058 265.414 409.148 265.594 409.329C265.775 409.504 265.865 409.727 265.865 409.995C265.865 410.259 265.775 410.479 265.594 410.654C265.414 410.83 265.167 410.918 264.854 410.918C264.537 410.918 264.288 410.83 264.107 410.654C263.932 410.479 263.844 410.259 263.844 409.995ZM272.113 417.854C272.113 417.678 272.069 417.52 271.981 417.378C271.893 417.231 271.725 417.1 271.476 416.982C271.231 416.865 270.87 416.758 270.392 416.66C269.972 416.567 269.586 416.458 269.234 416.331C268.888 416.199 268.59 416.04 268.341 415.854C268.092 415.669 267.899 415.449 267.762 415.195C267.625 414.941 267.557 414.648 267.557 414.316C267.557 413.994 267.628 413.689 267.77 413.401C267.911 413.113 268.114 412.859 268.377 412.639C268.641 412.419 268.961 412.246 269.337 412.119C269.718 411.992 270.143 411.929 270.611 411.929C271.275 411.929 271.844 412.041 272.318 412.266C272.796 412.485 273.163 412.786 273.417 413.167C273.67 413.542 273.797 413.967 273.797 414.441H272.032C272.032 414.231 271.979 414.036 271.871 413.855C271.769 413.669 271.612 413.521 271.402 413.408C271.192 413.291 270.929 413.232 270.611 413.232C270.309 413.232 270.057 413.281 269.857 413.379C269.662 413.472 269.515 413.594 269.417 413.745C269.325 413.896 269.278 414.062 269.278 414.243C269.278 414.375 269.303 414.495 269.352 414.602C269.405 414.705 269.493 414.8 269.615 414.888C269.737 414.971 269.903 415.049 270.113 415.122C270.328 415.195 270.597 415.266 270.919 415.334C271.524 415.461 272.044 415.625 272.479 415.825C272.918 416.021 273.255 416.274 273.49 416.587C273.724 416.895 273.841 417.285 273.841 417.759C273.841 418.11 273.766 418.433 273.614 418.726C273.468 419.014 273.253 419.265 272.97 419.48C272.687 419.69 272.347 419.854 271.952 419.971C271.561 420.088 271.122 420.146 270.633 420.146C269.916 420.146 269.308 420.02 268.81 419.766C268.312 419.507 267.933 419.177 267.674 418.777C267.42 418.372 267.293 417.952 267.293 417.517H269C269.02 417.844 269.11 418.105 269.271 418.301C269.437 418.491 269.642 418.63 269.886 418.718C270.135 418.801 270.392 418.843 270.655 418.843C270.973 418.843 271.239 418.801 271.454 418.718C271.668 418.63 271.832 418.513 271.944 418.367C272.057 418.215 272.113 418.044 272.113 417.854ZM279.833 417.854C279.833 417.678 279.789 417.52 279.701 417.378C279.613 417.231 279.444 417.1 279.195 416.982C278.951 416.865 278.59 416.758 278.111 416.66C277.691 416.567 277.306 416.458 276.954 416.331C276.607 416.199 276.31 416.04 276.061 415.854C275.812 415.669 275.619 415.449 275.482 415.195C275.345 414.941 275.277 414.648 275.277 414.316C275.277 413.994 275.348 413.689 275.489 413.401C275.631 413.113 275.833 412.859 276.097 412.639C276.361 412.419 276.681 412.246 277.057 412.119C277.438 411.992 277.862 411.929 278.331 411.929C278.995 411.929 279.564 412.041 280.038 412.266C280.516 412.485 280.882 412.786 281.136 413.167C281.39 413.542 281.517 413.967 281.517 414.441H279.752C279.752 414.231 279.698 414.036 279.591 413.855C279.488 413.669 279.332 413.521 279.122 413.408C278.912 413.291 278.648 413.232 278.331 413.232C278.028 413.232 277.777 413.281 277.577 413.379C277.381 413.472 277.235 413.594 277.137 413.745C277.044 413.896 276.998 414.062 276.998 414.243C276.998 414.375 277.022 414.495 277.071 414.602C277.125 414.705 277.213 414.8 277.335 414.888C277.457 414.971 277.623 415.049 277.833 415.122C278.048 415.195 278.316 415.266 278.639 415.334C279.244 415.461 279.764 415.625 280.199 415.825C280.638 416.021 280.975 416.274 281.209 416.587C281.444 416.895 281.561 417.285 281.561 417.759C281.561 418.11 281.485 418.433 281.334 418.726C281.188 419.014 280.973 419.265 280.689 419.48C280.406 419.69 280.067 419.854 279.671 419.971C279.281 420.088 278.841 420.146 278.353 420.146C277.635 420.146 277.027 420.02 276.529 419.766C276.031 419.507 275.653 419.177 275.394 418.777C275.14 418.372 275.013 417.952 275.013 417.517H276.72C276.739 417.844 276.83 418.105 276.991 418.301C277.157 418.491 277.362 418.63 277.606 418.718C277.855 418.801 278.111 418.843 278.375 418.843C278.692 418.843 278.958 418.801 279.173 418.718C279.388 418.63 279.552 418.513 279.664 418.367C279.776 418.215 279.833 418.044 279.833 417.854ZM284.996 412.075V420H283.224V412.075H284.996ZM283.106 409.995C283.106 409.727 283.194 409.504 283.37 409.329C283.551 409.148 283.8 409.058 284.117 409.058C284.43 409.058 284.676 409.148 284.857 409.329C285.038 409.504 285.128 409.727 285.128 409.995C285.128 410.259 285.038 410.479 284.857 410.654C284.676 410.83 284.43 410.918 284.117 410.918C283.8 410.918 283.551 410.83 283.37 410.654C283.194 410.479 283.106 410.259 283.106 409.995ZM286.593 416.125V415.957C286.593 415.386 286.676 414.856 286.842 414.368C287.008 413.875 287.247 413.447 287.56 413.086C287.877 412.72 288.263 412.437 288.717 412.236C289.176 412.031 289.693 411.929 290.27 411.929C290.851 411.929 291.368 412.031 291.822 412.236C292.281 412.437 292.669 412.72 292.987 413.086C293.304 413.447 293.546 413.875 293.712 414.368C293.878 414.856 293.961 415.386 293.961 415.957V416.125C293.961 416.697 293.878 417.227 293.712 417.715C293.546 418.203 293.304 418.63 292.987 418.997C292.669 419.358 292.284 419.641 291.83 419.846C291.375 420.046 290.86 420.146 290.284 420.146C289.703 420.146 289.183 420.046 288.724 419.846C288.27 419.641 287.884 419.358 287.567 418.997C287.25 418.63 287.008 418.203 286.842 417.715C286.676 417.227 286.593 416.697 286.593 416.125ZM288.358 415.957V416.125C288.358 416.482 288.395 416.819 288.468 417.136C288.541 417.454 288.656 417.732 288.812 417.971C288.968 418.21 289.168 418.398 289.413 418.535C289.657 418.672 289.947 418.74 290.284 418.74C290.611 418.74 290.895 418.672 291.134 418.535C291.378 418.398 291.578 418.21 291.734 417.971C291.891 417.732 292.005 417.454 292.079 417.136C292.157 416.819 292.196 416.482 292.196 416.125V415.957C292.196 415.605 292.157 415.273 292.079 414.961C292.005 414.644 291.888 414.363 291.727 414.119C291.571 413.875 291.371 413.684 291.126 413.547C290.887 413.406 290.602 413.335 290.27 413.335C289.938 413.335 289.649 413.406 289.405 413.547C289.166 413.684 288.968 413.875 288.812 414.119C288.656 414.363 288.541 414.644 288.468 414.961C288.395 415.273 288.358 415.605 288.358 415.957ZM297.191 413.767V420H295.426V412.075H297.088L297.191 413.767ZM296.876 415.745L296.305 415.737C296.31 415.176 296.388 414.661 296.539 414.192C296.695 413.723 296.91 413.32 297.184 412.983C297.462 412.646 297.794 412.388 298.18 412.207C298.565 412.021 298.995 411.929 299.469 411.929C299.85 411.929 300.194 411.982 300.501 412.09C300.814 412.192 301.08 412.361 301.3 412.595C301.524 412.83 301.695 413.135 301.812 413.511C301.93 413.882 301.988 414.338 301.988 414.88V420H300.216V414.873C300.216 414.492 300.16 414.192 300.047 413.972C299.94 413.748 299.781 413.589 299.571 413.496C299.366 413.398 299.11 413.35 298.802 413.35C298.5 413.35 298.229 413.413 297.989 413.54C297.75 413.667 297.547 413.84 297.381 414.06C297.22 414.28 297.096 414.534 297.008 414.822C296.92 415.11 296.876 415.417 296.876 415.745Z" fill="#1A1A1A"/>
<path d="M229.134 468.023H226.358V466.565H229.134C229.618 466.565 230.008 466.487 230.306 466.331C230.604 466.175 230.821 465.96 230.958 465.687C231.1 465.408 231.17 465.091 231.17 464.734C231.17 464.397 231.1 464.083 230.958 463.79C230.821 463.492 230.604 463.252 230.306 463.072C230.008 462.891 229.618 462.801 229.134 462.801H226.922V472H225.084V461.336H229.134C229.959 461.336 230.66 461.482 231.236 461.775C231.817 462.063 232.259 462.464 232.562 462.977C232.865 463.484 233.016 464.065 233.016 464.72C233.016 465.408 232.865 465.999 232.562 466.492C232.259 466.985 231.817 467.364 231.236 467.627C230.66 467.891 229.959 468.023 229.134 468.023ZM238.868 470.411V466.631C238.868 466.348 238.817 466.104 238.714 465.899C238.612 465.694 238.456 465.535 238.246 465.423C238.041 465.311 237.782 465.254 237.469 465.254C237.181 465.254 236.932 465.303 236.722 465.401C236.512 465.499 236.349 465.63 236.231 465.796C236.114 465.962 236.056 466.15 236.056 466.36H234.298C234.298 466.048 234.374 465.745 234.525 465.452C234.676 465.159 234.896 464.898 235.184 464.668C235.472 464.439 235.816 464.258 236.217 464.126C236.617 463.995 237.066 463.929 237.564 463.929C238.16 463.929 238.688 464.029 239.146 464.229C239.61 464.429 239.974 464.732 240.238 465.137C240.506 465.538 240.641 466.041 240.641 466.646V470.169C240.641 470.53 240.665 470.855 240.714 471.143C240.768 471.426 240.843 471.673 240.941 471.883V472H239.132C239.049 471.81 238.983 471.568 238.934 471.275C238.89 470.977 238.868 470.689 238.868 470.411ZM239.125 467.181L239.139 468.272H237.872C237.545 468.272 237.257 468.304 237.008 468.367C236.759 468.426 236.551 468.514 236.385 468.631C236.219 468.748 236.095 468.89 236.012 469.056C235.929 469.222 235.887 469.41 235.887 469.62C235.887 469.83 235.936 470.022 236.034 470.198C236.131 470.369 236.273 470.503 236.458 470.601C236.649 470.699 236.878 470.748 237.147 470.748C237.508 470.748 237.823 470.674 238.092 470.528C238.365 470.376 238.58 470.193 238.736 469.979C238.893 469.759 238.976 469.551 238.985 469.356L239.557 470.14C239.498 470.34 239.398 470.555 239.256 470.784C239.115 471.014 238.929 471.233 238.7 471.443C238.475 471.648 238.204 471.817 237.887 471.949C237.574 472.081 237.213 472.146 236.803 472.146C236.285 472.146 235.824 472.044 235.418 471.839C235.013 471.629 234.696 471.348 234.466 470.997C234.237 470.64 234.122 470.237 234.122 469.788C234.122 469.368 234.2 468.997 234.356 468.675C234.518 468.348 234.752 468.074 235.06 467.854C235.372 467.635 235.753 467.469 236.202 467.356C236.651 467.239 237.164 467.181 237.74 467.181H239.125ZM244.669 471.136L246.822 464.075H248.712L245.533 473.208C245.46 473.404 245.365 473.616 245.248 473.846C245.13 474.075 244.977 474.292 244.786 474.498C244.601 474.708 244.369 474.876 244.09 475.003C243.812 475.135 243.475 475.201 243.08 475.201C242.923 475.201 242.772 475.186 242.625 475.157C242.484 475.132 242.35 475.105 242.223 475.076L242.215 473.729C242.264 473.733 242.323 473.738 242.391 473.743C242.464 473.748 242.523 473.75 242.567 473.75C242.86 473.75 243.104 473.714 243.299 473.641C243.495 473.572 243.653 473.46 243.775 473.304C243.902 473.147 244.01 472.938 244.098 472.674L244.669 471.136ZM243.453 464.075L245.335 470.008L245.65 471.868L244.427 472.183L241.549 464.075H243.453ZM251.488 465.687V472H249.723V464.075H251.385L251.488 465.687ZM251.202 467.745L250.602 467.737C250.602 467.19 250.67 466.685 250.807 466.221C250.943 465.757 251.144 465.354 251.407 465.013C251.671 464.666 251.998 464.4 252.389 464.214C252.784 464.024 253.241 463.929 253.758 463.929C254.12 463.929 254.449 463.982 254.747 464.09C255.05 464.192 255.311 464.356 255.531 464.581C255.755 464.805 255.926 465.093 256.043 465.445C256.166 465.796 256.227 466.221 256.227 466.719V472H254.461V466.873C254.461 466.487 254.403 466.185 254.286 465.965C254.173 465.745 254.01 465.589 253.795 465.496C253.585 465.398 253.333 465.35 253.041 465.35C252.708 465.35 252.425 465.413 252.191 465.54C251.961 465.667 251.773 465.84 251.627 466.06C251.48 466.28 251.373 466.534 251.305 466.822C251.236 467.11 251.202 467.417 251.202 467.745ZM256.117 467.276L255.289 467.459C255.289 466.98 255.355 466.529 255.487 466.104C255.624 465.674 255.821 465.298 256.08 464.976C256.344 464.649 256.668 464.393 257.054 464.207C257.44 464.021 257.882 463.929 258.38 463.929C258.785 463.929 259.146 463.985 259.464 464.097C259.786 464.205 260.06 464.375 260.284 464.61C260.509 464.844 260.68 465.149 260.797 465.525C260.914 465.896 260.973 466.346 260.973 466.873V472H259.2V466.866C259.2 466.465 259.142 466.155 259.024 465.936C258.912 465.716 258.751 465.564 258.541 465.481C258.331 465.394 258.08 465.35 257.787 465.35C257.513 465.35 257.271 465.401 257.062 465.503C256.856 465.601 256.683 465.74 256.542 465.921C256.4 466.097 256.292 466.299 256.219 466.529C256.151 466.758 256.117 467.007 256.117 467.276ZM266.283 472.146C265.697 472.146 265.167 472.051 264.693 471.861C264.225 471.666 263.824 471.395 263.492 471.048C263.165 470.701 262.914 470.293 262.738 469.825C262.562 469.356 262.474 468.851 262.474 468.309V468.016C262.474 467.396 262.564 466.834 262.745 466.331C262.926 465.828 263.177 465.398 263.5 465.042C263.822 464.681 264.203 464.405 264.642 464.214C265.082 464.024 265.558 463.929 266.07 463.929C266.637 463.929 267.132 464.024 267.557 464.214C267.982 464.405 268.333 464.673 268.612 465.02C268.895 465.362 269.105 465.77 269.242 466.243C269.383 466.717 269.454 467.239 269.454 467.811V468.565H263.331V467.298H267.711V467.159C267.701 466.841 267.638 466.543 267.521 466.265C267.408 465.987 267.235 465.762 267 465.591C266.766 465.42 266.454 465.335 266.063 465.335C265.77 465.335 265.509 465.398 265.279 465.525C265.055 465.647 264.867 465.826 264.715 466.06C264.564 466.294 264.447 466.578 264.364 466.91C264.286 467.237 264.247 467.605 264.247 468.016V468.309C264.247 468.655 264.293 468.978 264.386 469.275C264.483 469.568 264.625 469.825 264.811 470.044C264.996 470.264 265.221 470.438 265.484 470.564C265.748 470.687 266.048 470.748 266.385 470.748C266.81 470.748 267.188 470.662 267.521 470.491C267.853 470.32 268.141 470.079 268.385 469.766L269.315 470.667C269.144 470.916 268.922 471.155 268.648 471.385C268.375 471.609 268.041 471.792 267.645 471.934C267.254 472.076 266.8 472.146 266.283 472.146ZM272.582 465.767V472H270.816V464.075H272.479L272.582 465.767ZM272.267 467.745L271.695 467.737C271.7 467.176 271.778 466.661 271.93 466.192C272.086 465.723 272.301 465.32 272.574 464.983C272.853 464.646 273.185 464.388 273.57 464.207C273.956 464.021 274.386 463.929 274.859 463.929C275.24 463.929 275.584 463.982 275.892 464.09C276.205 464.192 276.471 464.361 276.69 464.595C276.915 464.83 277.086 465.135 277.203 465.511C277.32 465.882 277.379 466.338 277.379 466.88V472H275.606V466.873C275.606 466.492 275.55 466.192 275.438 465.972C275.331 465.748 275.172 465.589 274.962 465.496C274.757 465.398 274.5 465.35 274.193 465.35C273.89 465.35 273.619 465.413 273.38 465.54C273.141 465.667 272.938 465.84 272.772 466.06C272.611 466.28 272.486 466.534 272.398 466.822C272.311 467.11 272.267 467.417 272.267 467.745ZM282.813 464.075V465.364H278.346V464.075H282.813ZM279.635 462.134H281.4V469.81C281.4 470.054 281.434 470.242 281.502 470.374C281.576 470.501 281.676 470.586 281.803 470.63C281.93 470.674 282.079 470.696 282.25 470.696C282.372 470.696 282.489 470.689 282.601 470.674C282.713 470.66 282.804 470.645 282.872 470.63L282.879 471.978C282.733 472.022 282.562 472.061 282.367 472.095C282.176 472.129 281.957 472.146 281.708 472.146C281.302 472.146 280.943 472.076 280.631 471.934C280.318 471.788 280.074 471.551 279.898 471.224C279.723 470.896 279.635 470.462 279.635 469.92V462.134ZM288.622 469.854C288.622 469.678 288.578 469.52 288.49 469.378C288.402 469.231 288.233 469.1 287.984 468.982C287.74 468.865 287.379 468.758 286.9 468.66C286.48 468.567 286.095 468.458 285.743 468.331C285.396 468.199 285.099 468.04 284.85 467.854C284.601 467.669 284.408 467.449 284.271 467.195C284.134 466.941 284.066 466.648 284.066 466.316C284.066 465.994 284.137 465.689 284.278 465.401C284.42 465.113 284.623 464.859 284.886 464.639C285.15 464.419 285.47 464.246 285.846 464.119C286.227 463.992 286.651 463.929 287.12 463.929C287.784 463.929 288.353 464.041 288.827 464.266C289.305 464.485 289.671 464.786 289.925 465.167C290.179 465.542 290.306 465.967 290.306 466.441H288.541C288.541 466.231 288.487 466.036 288.38 465.855C288.277 465.669 288.121 465.521 287.911 465.408C287.701 465.291 287.438 465.232 287.12 465.232C286.817 465.232 286.566 465.281 286.366 465.379C286.17 465.472 286.024 465.594 285.926 465.745C285.833 465.896 285.787 466.062 285.787 466.243C285.787 466.375 285.812 466.495 285.86 466.602C285.914 466.705 286.002 466.8 286.124 466.888C286.246 466.971 286.412 467.049 286.622 467.122C286.837 467.195 287.105 467.266 287.428 467.334C288.033 467.461 288.553 467.625 288.988 467.825C289.427 468.021 289.764 468.274 289.999 468.587C290.233 468.895 290.35 469.285 290.35 469.759C290.35 470.11 290.274 470.433 290.123 470.726C289.977 471.014 289.762 471.265 289.479 471.48C289.195 471.69 288.856 471.854 288.46 471.971C288.07 472.088 287.63 472.146 287.142 472.146C286.424 472.146 285.816 472.02 285.318 471.766C284.82 471.507 284.442 471.177 284.183 470.777C283.929 470.372 283.802 469.952 283.802 469.517H285.509C285.528 469.844 285.619 470.105 285.78 470.301C285.946 470.491 286.151 470.63 286.395 470.718C286.644 470.801 286.9 470.843 287.164 470.843C287.481 470.843 287.748 470.801 287.962 470.718C288.177 470.63 288.341 470.513 288.453 470.367C288.565 470.215 288.622 470.044 288.622 469.854Z" fill="#1A1A1A"/>
<path d="M163.562 129.812V131.137H157.416L157.334 130.111L160.891 124.469H162.232L160.779 126.9L159.01 129.812H163.562ZM162.596 124.469V133H160.908V124.469H162.596Z" fill="#F45C59"/>
<rect x="168" y="127" width="339" height="1" fill="#F45C59"/>
<g opacity="0.9">
<rect width="339" height="2" transform="translate(168 128)" fill="#F45C59" fill-opacity="0.2"/>
</g>
<rect x="168" y="130" width="339" height="1" fill="#F45C59"/>
<path d="M163.562 181.812V183.137H157.416L157.334 182.111L160.891 176.469H162.232L160.779 178.9L159.01 181.812H163.562ZM162.596 176.469V185H160.908V176.469H162.596Z" fill="#F45C59"/>
<rect x="168" y="179" width="339" height="1" fill="#F45C59"/>
<g opacity="0.9">
<rect width="339" height="2" transform="translate(168 180)" fill="#F45C59" fill-opacity="0.2"/>
</g>
<rect x="168" y="182" width="339" height="1" fill="#F45C59"/>
<path d="M163.562 233.812V235.137H157.416L157.334 234.111L160.891 228.469H162.232L160.779 230.9L159.01 233.812H163.562ZM162.596 228.469V237H160.908V228.469H162.596Z" fill="#F45C59"/>
<rect x="168" y="231" width="339" height="1" fill="#F45C59"/>
<g opacity="0.9">
<rect width="339" height="2" transform="translate(168 232)" fill="#F45C59" fill-opacity="0.2"/>
</g>
<rect x="168" y="234" width="339" height="1" fill="#F45C59"/>
<path d="M163.562 285.812V287.137H157.416L157.334 286.111L160.891 280.469H162.232L160.779 282.9L159.01 285.812H163.562ZM162.596 280.469V289H160.908V280.469H162.596Z" fill="#F45C59"/>
<rect x="168" y="283" width="339" height="1" fill="#F45C59"/>
<g opacity="0.9">
<rect width="339" height="2" transform="translate(168 284)" fill="#F45C59" fill-opacity="0.2"/>
</g>
<rect x="168" y="286" width="339" height="1" fill="#F45C59"/>
<path d="M163.562 337.812V339.137H157.416L157.334 338.111L160.891 332.469H162.232L160.779 334.9L159.01 337.812H163.562ZM162.596 332.469V341H160.908V332.469H162.596Z" fill="#F45C59"/>
<rect x="168" y="335" width="339" height="1" fill="#F45C59"/>
<g opacity="0.9">
<rect width="339" height="2" transform="translate(168 336)" fill="#F45C59" fill-opacity="0.2"/>
</g>
<rect x="168" y="338" width="339" height="1" fill="#F45C59"/>
<path d="M163.562 389.812V391.137H157.416L157.334 390.111L160.891 384.469H162.232L160.779 386.9L159.01 389.812H163.562ZM162.596 384.469V393H160.908V384.469H162.596Z" fill="#F45C59"/>
<rect x="168" y="387" width="339" height="1" fill="#F45C59"/>
<g opacity="0.9">
<rect width="339" height="2" transform="translate(168 388)" fill="#F45C59" fill-opacity="0.2"/>
</g>
<rect x="168" y="390" width="339" height="1" fill="#F45C59"/>
<path d="M163.562 442.812V444.137H157.416L157.334 443.111L160.891 437.469H162.232L160.779 439.9L159.01 442.812H163.562ZM162.596 437.469V446H160.908V437.469H162.596Z" fill="#F45C59"/>
<rect x="168" y="440" width="339" height="1" fill="#F45C59"/>
<g opacity="0.9">
<rect width="339" height="2" transform="translate(168 441)" fill="#F45C59" fill-opacity="0.2"/>
</g>
<rect x="168" y="443" width="339" height="1" fill="#F45C59"/>
<rect x="176" y="40" width="1" height="491" fill="#18BB4B"/>
<g opacity="0.9">
<rect width="30" height="491" transform="translate(177 40)" fill="#18BB4B" fill-opacity="0.2"/>
</g>
<rect x="207" y="40" width="1" height="491" fill="#18BB4B"/>
<path d="M187.314 541.002H188.217C188.506 541.002 188.744 540.953 188.932 540.855C189.119 540.754 189.258 540.613 189.348 540.434C189.441 540.25 189.488 540.037 189.488 539.795C189.488 539.576 189.445 539.383 189.359 539.215C189.277 539.043 189.15 538.91 188.979 538.816C188.807 538.719 188.59 538.67 188.328 538.67C188.121 538.67 187.93 538.711 187.754 538.793C187.578 538.875 187.438 538.99 187.332 539.139C187.227 539.287 187.174 539.467 187.174 539.678H185.48C185.48 539.209 185.605 538.801 185.855 538.453C186.109 538.105 186.449 537.834 186.875 537.639C187.301 537.443 187.77 537.346 188.281 537.346C188.859 537.346 189.365 537.439 189.799 537.627C190.232 537.811 190.57 538.082 190.812 538.441C191.055 538.801 191.176 539.246 191.176 539.777C191.176 540.047 191.113 540.309 190.988 540.562C190.863 540.812 190.684 541.039 190.449 541.242C190.219 541.441 189.938 541.602 189.605 541.723C189.273 541.84 188.9 541.898 188.486 541.898H187.314V541.002ZM187.314 542.285V541.412H188.486C188.951 541.412 189.359 541.465 189.711 541.57C190.062 541.676 190.357 541.828 190.596 542.027C190.834 542.223 191.014 542.455 191.135 542.725C191.256 542.99 191.316 543.285 191.316 543.609C191.316 544.008 191.24 544.363 191.088 544.676C190.936 544.984 190.721 545.246 190.443 545.461C190.17 545.676 189.85 545.84 189.482 545.953C189.115 546.062 188.715 546.117 188.281 546.117C187.922 546.117 187.568 546.068 187.221 545.971C186.877 545.869 186.564 545.719 186.283 545.52C186.006 545.316 185.783 545.062 185.615 544.758C185.451 544.449 185.369 544.084 185.369 543.662H187.062C187.062 543.881 187.117 544.076 187.227 544.248C187.336 544.42 187.486 544.555 187.678 544.652C187.873 544.75 188.09 544.799 188.328 544.799C188.598 544.799 188.828 544.75 189.02 544.652C189.215 544.551 189.363 544.41 189.465 544.23C189.57 544.047 189.623 543.834 189.623 543.592C189.623 543.279 189.566 543.029 189.453 542.842C189.34 542.65 189.178 542.51 188.967 542.42C188.756 542.33 188.506 542.285 188.217 542.285H187.314ZM198.312 544.682V546H192.477V544.875L195.236 541.916C195.514 541.607 195.732 541.336 195.893 541.102C196.053 540.863 196.168 540.65 196.238 540.463C196.312 540.271 196.35 540.09 196.35 539.918C196.35 539.66 196.307 539.439 196.221 539.256C196.135 539.068 196.008 538.924 195.84 538.822C195.676 538.721 195.473 538.67 195.23 538.67C194.973 538.67 194.75 538.732 194.562 538.857C194.379 538.982 194.238 539.156 194.141 539.379C194.047 539.602 194 539.854 194 540.135H192.307C192.307 539.627 192.428 539.162 192.67 538.74C192.912 538.314 193.254 537.977 193.695 537.727C194.137 537.473 194.66 537.346 195.266 537.346C195.863 537.346 196.367 537.443 196.777 537.639C197.191 537.83 197.504 538.107 197.715 538.471C197.93 538.83 198.037 539.26 198.037 539.76C198.037 540.041 197.992 540.316 197.902 540.586C197.812 540.852 197.684 541.117 197.516 541.383C197.352 541.645 197.152 541.91 196.918 542.18C196.684 542.449 196.424 542.729 196.139 543.018L194.656 544.682H198.312Z" fill="#18BB4B"/>
<rect x="468" y="40" width="1" height="491" fill="#18BB4B"/>
<g opacity="0.9">
<rect width="30" height="491" transform="translate(469 40)" fill="#18BB4B" fill-opacity="0.2"/>
</g>
<rect x="499" y="40" width="1" height="491" fill="#18BB4B"/>
<path d="M479.314 541.002H480.217C480.506 541.002 480.744 540.953 480.932 540.855C481.119 540.754 481.258 540.613 481.348 540.434C481.441 540.25 481.488 540.037 481.488 539.795C481.488 539.576 481.445 539.383 481.359 539.215C481.277 539.043 481.15 538.91 480.979 538.816C480.807 538.719 480.59 538.67 480.328 538.67C480.121 538.67 479.93 538.711 479.754 538.793C479.578 538.875 479.438 538.99 479.332 539.139C479.227 539.287 479.174 539.467 479.174 539.678H477.48C477.48 539.209 477.605 538.801 477.855 538.453C478.109 538.105 478.449 537.834 478.875 537.639C479.301 537.443 479.77 537.346 480.281 537.346C480.859 537.346 481.365 537.439 481.799 537.627C482.232 537.811 482.57 538.082 482.812 538.441C483.055 538.801 483.176 539.246 483.176 539.777C483.176 540.047 483.113 540.309 482.988 540.562C482.863 540.812 482.684 541.039 482.449 541.242C482.219 541.441 481.938 541.602 481.605 541.723C481.273 541.84 480.9 541.898 480.486 541.898H479.314V541.002ZM479.314 542.285V541.412H480.486C480.951 541.412 481.359 541.465 481.711 541.57C482.062 541.676 482.357 541.828 482.596 542.027C482.834 542.223 483.014 542.455 483.135 542.725C483.256 542.99 483.316 543.285 483.316 543.609C483.316 544.008 483.24 544.363 483.088 544.676C482.936 544.984 482.721 545.246 482.443 545.461C482.17 545.676 481.85 545.84 481.482 545.953C481.115 546.062 480.715 546.117 480.281 546.117C479.922 546.117 479.568 546.068 479.221 545.971C478.877 545.869 478.564 545.719 478.283 545.52C478.006 545.316 477.783 545.062 477.615 544.758C477.451 544.449 477.369 544.084 477.369 543.662H479.062C479.062 543.881 479.117 544.076 479.227 544.248C479.336 544.42 479.486 544.555 479.678 544.652C479.873 544.75 480.09 544.799 480.328 544.799C480.598 544.799 480.828 544.75 481.02 544.652C481.215 544.551 481.363 544.41 481.465 544.23C481.57 544.047 481.623 543.834 481.623 543.592C481.623 543.279 481.566 543.029 481.453 542.842C481.34 542.65 481.178 542.51 480.967 542.42C480.756 542.33 480.506 542.285 480.217 542.285H479.314ZM490.312 544.682V546H484.477V544.875L487.236 541.916C487.514 541.607 487.732 541.336 487.893 541.102C488.053 540.863 488.168 540.65 488.238 540.463C488.312 540.271 488.35 540.09 488.35 539.918C488.35 539.66 488.307 539.439 488.221 539.256C488.135 539.068 488.008 538.924 487.84 538.822C487.676 538.721 487.473 538.67 487.23 538.67C486.973 538.67 486.75 538.732 486.562 538.857C486.379 538.982 486.238 539.156 486.141 539.379C486.047 539.602 486 539.854 486 540.135H484.307C484.307 539.627 484.428 539.162 484.67 538.74C484.912 538.314 485.254 537.977 485.695 537.727C486.137 537.473 486.66 537.346 487.266 537.346C487.863 537.346 488.367 537.443 488.777 537.639C489.191 537.83 489.504 538.107 489.715 538.471C489.93 538.83 490.037 539.26 490.037 539.76C490.037 540.041 489.992 540.316 489.902 540.586C489.812 540.852 489.684 541.117 489.516 541.383C489.352 541.645 489.152 541.91 488.918 542.18C488.684 542.449 488.424 542.729 488.139 543.018L486.656 544.682H490.312Z" fill="#18BB4B"/>
<path d="M152.314 62.002H153.217C153.506 62.002 153.744 61.9531 153.932 61.8555C154.119 61.7539 154.258 61.6133 154.348 61.4336C154.441 61.25 154.488 61.0371 154.488 60.7949C154.488 60.5762 154.445 60.3828 154.359 60.2148C154.277 60.043 154.15 59.9102 153.979 59.8164C153.807 59.7188 153.59 59.6699 153.328 59.6699C153.121 59.6699 152.93 59.7109 152.754 59.793C152.578 59.875 152.438 59.9902 152.332 60.1387C152.227 60.2871 152.174 60.4668 152.174 60.6777H150.48C150.48 60.209 150.605 59.8008 150.855 59.4531C151.109 59.1055 151.449 58.834 151.875 58.6387C152.301 58.4434 152.77 58.3457 153.281 58.3457C153.859 58.3457 154.365 58.4395 154.799 58.627C155.232 58.8105 155.57 59.082 155.812 59.4414C156.055 59.8008 156.176 60.2461 156.176 60.7773C156.176 61.0469 156.113 61.3086 155.988 61.5625C155.863 61.8125 155.684 62.0391 155.449 62.2422C155.219 62.4414 154.938 62.6016 154.605 62.7227C154.273 62.8398 153.9 62.8984 153.486 62.8984H152.314V62.002ZM152.314 63.2852V62.4121H153.486C153.951 62.4121 154.359 62.4648 154.711 62.5703C155.062 62.6758 155.357 62.8281 155.596 63.0273C155.834 63.2227 156.014 63.4551 156.135 63.7246C156.256 63.9902 156.316 64.2852 156.316 64.6094C156.316 65.0078 156.24 65.3633 156.088 65.6758C155.936 65.9844 155.721 66.2461 155.443 66.4609C155.17 66.6758 154.85 66.8398 154.482 66.9531C154.115 67.0625 153.715 67.1172 153.281 67.1172C152.922 67.1172 152.568 67.0684 152.221 66.9707C151.877 66.8691 151.564 66.7188 151.283 66.5195C151.006 66.3164 150.783 66.0625 150.615 65.7578C150.451 65.4492 150.369 65.084 150.369 64.6621H152.062C152.062 64.8809 152.117 65.0762 152.227 65.248C152.336 65.4199 152.486 65.5547 152.678 65.6523C152.873 65.75 153.09 65.7988 153.328 65.7988C153.598 65.7988 153.828 65.75 154.02 65.6523C154.215 65.5508 154.363 65.4102 154.465 65.2305C154.57 65.0469 154.623 64.834 154.623 64.5918C154.623 64.2793 154.566 64.0293 154.453 63.8418C154.34 63.6504 154.178 63.5098 153.967 63.4199C153.756 63.3301 153.506 63.2852 153.217 63.2852H152.314ZM163.312 65.6816V67H157.477V65.875L160.236 62.916C160.514 62.6074 160.732 62.3359 160.893 62.1016C161.053 61.8633 161.168 61.6504 161.238 61.4629C161.312 61.2715 161.35 61.0898 161.35 60.918C161.35 60.6602 161.307 60.4395 161.221 60.2559C161.135 60.0684 161.008 59.9238 160.84 59.8223C160.676 59.7207 160.473 59.6699 160.23 59.6699C159.973 59.6699 159.75 59.7324 159.562 59.8574C159.379 59.9824 159.238 60.1562 159.141 60.3789C159.047 60.6016 159 60.8535 159 61.1348H157.307C157.307 60.627 157.428 60.1621 157.67 59.7402C157.912 59.3145 158.254 58.9766 158.695 58.7266C159.137 58.4727 159.66 58.3457 160.266 58.3457C160.863 58.3457 161.367 58.4434 161.777 58.6387C162.191 58.8301 162.504 59.1074 162.715 59.4707C162.93 59.8301 163.037 60.2598 163.037 60.7598C163.037 61.041 162.992 61.3164 162.902 61.5859C162.812 61.8516 162.684 62.1172 162.516 62.3828C162.352 62.6445 162.152 62.9102 161.918 63.1797C161.684 63.4492 161.424 63.7285 161.139 64.0176L159.656 65.6816H163.312Z" fill="#18BB4B"/>
<rect x="168" y="47" width="340" height="1" fill="#18BB4B"/>
<g opacity="0.9">
<rect width="340" height="30" transform="translate(168 48)" fill="#18BB4B" fill-opacity="0.2"/>
</g>
<rect x="168" y="78" width="340" height="1" fill="#18BB4B"/>
<path d="M152.314 506.002H153.217C153.506 506.002 153.744 505.953 153.932 505.855C154.119 505.754 154.258 505.613 154.348 505.434C154.441 505.25 154.488 505.037 154.488 504.795C154.488 504.576 154.445 504.383 154.359 504.215C154.277 504.043 154.15 503.91 153.979 503.816C153.807 503.719 153.59 503.67 153.328 503.67C153.121 503.67 152.93 503.711 152.754 503.793C152.578 503.875 152.438 503.99 152.332 504.139C152.227 504.287 152.174 504.467 152.174 504.678H150.48C150.48 504.209 150.605 503.801 150.855 503.453C151.109 503.105 151.449 502.834 151.875 502.639C152.301 502.443 152.77 502.346 153.281 502.346C153.859 502.346 154.365 502.439 154.799 502.627C155.232 502.811 155.57 503.082 155.812 503.441C156.055 503.801 156.176 504.246 156.176 504.777C156.176 505.047 156.113 505.309 155.988 505.562C155.863 505.812 155.684 506.039 155.449 506.242C155.219 506.441 154.938 506.602 154.605 506.723C154.273 506.84 153.9 506.898 153.486 506.898H152.314V506.002ZM152.314 507.285V506.412H153.486C153.951 506.412 154.359 506.465 154.711 506.57C155.062 506.676 155.357 506.828 155.596 507.027C155.834 507.223 156.014 507.455 156.135 507.725C156.256 507.99 156.316 508.285 156.316 508.609C156.316 509.008 156.24 509.363 156.088 509.676C155.936 509.984 155.721 510.246 155.443 510.461C155.17 510.676 154.85 510.84 154.482 510.953C154.115 511.062 153.715 511.117 153.281 511.117C152.922 511.117 152.568 511.068 152.221 510.971C151.877 510.869 151.564 510.719 151.283 510.52C151.006 510.316 150.783 510.062 150.615 509.758C150.451 509.449 150.369 509.084 150.369 508.662H152.062C152.062 508.881 152.117 509.076 152.227 509.248C152.336 509.42 152.486 509.555 152.678 509.652C152.873 509.75 153.09 509.799 153.328 509.799C153.598 509.799 153.828 509.75 154.02 509.652C154.215 509.551 154.363 509.41 154.465 509.23C154.57 509.047 154.623 508.834 154.623 508.592C154.623 508.279 154.566 508.029 154.453 507.842C154.34 507.65 154.178 507.51 153.967 507.42C153.756 507.33 153.506 507.285 153.217 507.285H152.314ZM163.312 509.682V511H157.477V509.875L160.236 506.916C160.514 506.607 160.732 506.336 160.893 506.102C161.053 505.863 161.168 505.65 161.238 505.463C161.312 505.271 161.35 505.09 161.35 504.918C161.35 504.66 161.307 504.439 161.221 504.256C161.135 504.068 161.008 503.924 160.84 503.822C160.676 503.721 160.473 503.67 160.23 503.67C159.973 503.67 159.75 503.732 159.562 503.857C159.379 503.982 159.238 504.156 159.141 504.379C159.047 504.602 159 504.854 159 505.135H157.307C157.307 504.627 157.428 504.162 157.67 503.74C157.912 503.314 158.254 502.977 158.695 502.727C159.137 502.473 159.66 502.346 160.266 502.346C160.863 502.346 161.367 502.443 161.777 502.639C162.191 502.83 162.504 503.107 162.715 503.471C162.93 503.83 163.037 504.26 163.037 504.76C163.037 505.041 162.992 505.316 162.902 505.586C162.812 505.852 162.684 506.117 162.516 506.383C162.352 506.645 162.152 506.91 161.918 507.18C161.684 507.449 161.424 507.729 161.139 508.018L159.656 509.682H163.312Z" fill="#18BB4B"/>
<rect x="168" y="491" width="340" height="1" fill="#18BB4B"/>
<g opacity="0.9">
<rect width="340" height="30" transform="translate(168 492)" fill="#18BB4B" fill-opacity="0.2"/>
</g>
<rect x="168" y="522" width="340" height="1" fill="#18BB4B"/>
</svg>
