<svg width="660" height="589" viewBox="0 0 660 589" fill="none" xmlns="http://www.w3.org/2000/svg">
<rect width="660" height="589" rx="8" fill="#F8F8F8"/>
<rect x="208" y="79" width="260" height="48" rx="4" fill="black" fill-opacity="0.05"/>
<path d="M229.272 102.551V106.623C229.121 106.823 228.884 107.043 228.562 107.282C228.245 107.517 227.822 107.719 227.295 107.89C226.768 108.061 226.111 108.146 225.325 108.146C224.656 108.146 224.043 108.034 223.486 107.81C222.93 107.58 222.449 107.246 222.043 106.806C221.643 106.367 221.333 105.832 221.113 105.202C220.894 104.567 220.784 103.845 220.784 103.034V102.294C220.784 101.489 220.884 100.771 221.084 100.141C221.289 99.5063 221.582 98.9692 221.963 98.5298C222.344 98.0903 222.803 97.7583 223.34 97.5337C223.882 97.3042 224.495 97.1895 225.178 97.1895C226.052 97.1895 226.775 97.3359 227.346 97.6289C227.922 97.917 228.367 98.3174 228.679 98.8301C228.992 99.3428 229.189 99.9287 229.272 100.588H227.471C227.412 100.217 227.297 99.8848 227.126 99.5918C226.96 99.2988 226.721 99.0693 226.409 98.9033C226.101 98.7324 225.701 98.647 225.208 98.647C224.783 98.647 224.409 98.7275 224.087 98.8887C223.765 99.0498 223.496 99.2866 223.281 99.5991C223.071 99.9116 222.913 100.292 222.805 100.742C222.698 101.191 222.644 101.704 222.644 102.28V103.034C222.644 103.62 222.705 104.14 222.827 104.594C222.954 105.048 223.135 105.432 223.369 105.744C223.608 106.057 223.899 106.293 224.241 106.455C224.583 106.611 224.968 106.689 225.398 106.689C225.818 106.689 226.162 106.655 226.431 106.586C226.699 106.513 226.912 106.428 227.068 106.33C227.229 106.228 227.354 106.13 227.441 106.037V103.92H225.222V102.551H229.272ZM234.626 108.146C234.041 108.146 233.511 108.051 233.037 107.861C232.568 107.666 232.168 107.395 231.836 107.048C231.509 106.701 231.257 106.293 231.082 105.825C230.906 105.356 230.818 104.851 230.818 104.309V104.016C230.818 103.396 230.908 102.834 231.089 102.331C231.27 101.828 231.521 101.398 231.843 101.042C232.166 100.681 232.546 100.405 232.986 100.214C233.425 100.024 233.901 99.9287 234.414 99.9287C234.98 99.9287 235.476 100.024 235.901 100.214C236.326 100.405 236.677 100.673 236.956 101.02C237.239 101.362 237.449 101.77 237.585 102.243C237.727 102.717 237.798 103.239 237.798 103.811V104.565H231.675V103.298H236.055V103.159C236.045 102.841 235.981 102.543 235.864 102.265C235.752 101.987 235.579 101.762 235.344 101.591C235.11 101.42 234.797 101.335 234.407 101.335C234.114 101.335 233.853 101.398 233.623 101.525C233.398 101.647 233.21 101.826 233.059 102.06C232.908 102.294 232.791 102.578 232.708 102.91C232.629 103.237 232.59 103.605 232.59 104.016V104.309C232.59 104.655 232.637 104.978 232.729 105.275C232.827 105.568 232.969 105.825 233.154 106.044C233.34 106.264 233.564 106.438 233.828 106.564C234.092 106.687 234.392 106.748 234.729 106.748C235.154 106.748 235.532 106.662 235.864 106.491C236.196 106.32 236.484 106.079 236.729 105.766L237.659 106.667C237.488 106.916 237.266 107.155 236.992 107.385C236.719 107.609 236.384 107.792 235.989 107.934C235.598 108.076 235.144 108.146 234.626 108.146ZM240.925 101.767V108H239.16V100.075H240.823L240.925 101.767ZM240.61 103.745L240.039 103.737C240.044 103.176 240.122 102.661 240.273 102.192C240.43 101.723 240.645 101.32 240.918 100.983C241.196 100.646 241.528 100.388 241.914 100.207C242.3 100.021 242.729 99.9287 243.203 99.9287C243.584 99.9287 243.928 99.9824 244.236 100.09C244.548 100.192 244.814 100.361 245.034 100.595C245.259 100.83 245.43 101.135 245.547 101.511C245.664 101.882 245.723 102.338 245.723 102.88V108H243.95V102.873C243.95 102.492 243.894 102.192 243.782 101.972C243.674 101.748 243.516 101.589 243.306 101.496C243.101 101.398 242.844 101.35 242.537 101.35C242.234 101.35 241.963 101.413 241.724 101.54C241.484 101.667 241.282 101.84 241.116 102.06C240.955 102.28 240.83 102.534 240.742 102.822C240.654 103.11 240.61 103.417 240.61 103.745ZM251.018 108.146C250.432 108.146 249.902 108.051 249.429 107.861C248.96 107.666 248.56 107.395 248.228 107.048C247.9 106.701 247.649 106.293 247.473 105.825C247.297 105.356 247.209 104.851 247.209 104.309V104.016C247.209 103.396 247.3 102.834 247.48 102.331C247.661 101.828 247.913 101.398 248.235 101.042C248.557 100.681 248.938 100.405 249.377 100.214C249.817 100.024 250.293 99.9287 250.806 99.9287C251.372 99.9287 251.868 100.024 252.292 100.214C252.717 100.405 253.069 100.673 253.347 101.02C253.63 101.362 253.84 101.77 253.977 102.243C254.119 102.717 254.189 103.239 254.189 103.811V104.565H248.066V103.298H252.446V103.159C252.437 102.841 252.373 102.543 252.256 102.265C252.144 101.987 251.97 101.762 251.736 101.591C251.501 101.42 251.189 101.335 250.798 101.335C250.505 101.335 250.244 101.398 250.015 101.525C249.79 101.647 249.602 101.826 249.451 102.06C249.299 102.294 249.182 102.578 249.099 102.91C249.021 103.237 248.982 103.605 248.982 104.016V104.309C248.982 104.655 249.028 104.978 249.121 105.275C249.219 105.568 249.36 105.825 249.546 106.044C249.731 106.264 249.956 106.438 250.22 106.564C250.483 106.687 250.784 106.748 251.121 106.748C251.545 106.748 251.924 106.662 252.256 106.491C252.588 106.32 252.876 106.079 253.12 105.766L254.05 106.667C253.879 106.916 253.657 107.155 253.384 107.385C253.11 107.609 252.776 107.792 252.38 107.934C251.99 108.076 251.536 108.146 251.018 108.146ZM257.339 101.584V108H255.574V100.075H257.258L257.339 101.584ZM259.763 100.024L259.749 101.665C259.641 101.645 259.524 101.63 259.397 101.621C259.275 101.611 259.153 101.606 259.031 101.606C258.728 101.606 258.462 101.65 258.232 101.738C258.003 101.821 257.81 101.943 257.654 102.104C257.502 102.26 257.385 102.451 257.302 102.675C257.219 102.9 257.17 103.151 257.156 103.43L256.753 103.459C256.753 102.961 256.802 102.5 256.899 102.075C256.997 101.65 257.144 101.276 257.339 100.954C257.539 100.632 257.788 100.38 258.086 100.2C258.389 100.019 258.738 99.9287 259.133 99.9287C259.241 99.9287 259.355 99.9385 259.478 99.958C259.604 99.9775 259.7 99.9995 259.763 100.024ZM265.073 106.411V102.631C265.073 102.348 265.022 102.104 264.919 101.899C264.817 101.694 264.661 101.535 264.451 101.423C264.246 101.311 263.987 101.254 263.674 101.254C263.386 101.254 263.137 101.303 262.927 101.401C262.717 101.499 262.554 101.63 262.437 101.796C262.319 101.962 262.261 102.15 262.261 102.36H260.503C260.503 102.048 260.579 101.745 260.73 101.452C260.881 101.159 261.101 100.898 261.389 100.668C261.677 100.439 262.021 100.258 262.422 100.126C262.822 99.9946 263.271 99.9287 263.77 99.9287C264.365 99.9287 264.893 100.029 265.352 100.229C265.815 100.429 266.179 100.732 266.443 101.137C266.711 101.538 266.846 102.041 266.846 102.646V106.169C266.846 106.53 266.87 106.855 266.919 107.143C266.973 107.426 267.048 107.673 267.146 107.883V108H265.337C265.254 107.81 265.188 107.568 265.139 107.275C265.095 106.977 265.073 106.689 265.073 106.411ZM265.33 103.181L265.344 104.272H264.077C263.75 104.272 263.462 104.304 263.213 104.367C262.964 104.426 262.756 104.514 262.59 104.631C262.424 104.748 262.3 104.89 262.217 105.056C262.134 105.222 262.092 105.41 262.092 105.62C262.092 105.83 262.141 106.022 262.239 106.198C262.336 106.369 262.478 106.503 262.664 106.601C262.854 106.699 263.083 106.748 263.352 106.748C263.713 106.748 264.028 106.674 264.297 106.528C264.57 106.376 264.785 106.193 264.941 105.979C265.098 105.759 265.181 105.551 265.19 105.356L265.762 106.14C265.703 106.34 265.603 106.555 265.461 106.784C265.32 107.014 265.134 107.233 264.905 107.443C264.68 107.648 264.409 107.817 264.092 107.949C263.779 108.081 263.418 108.146 263.008 108.146C262.49 108.146 262.029 108.044 261.624 107.839C261.218 107.629 260.901 107.348 260.671 106.997C260.442 106.64 260.327 106.237 260.327 105.788C260.327 105.368 260.405 104.997 260.562 104.675C260.723 104.348 260.957 104.074 261.265 103.854C261.577 103.635 261.958 103.469 262.407 103.356C262.856 103.239 263.369 103.181 263.945 103.181H265.33ZM270.581 96.75V108H268.809V96.75H270.581Z" fill="#1A1A1A"/>
<path d="M225.237 150.757L222.051 160H220.125L224.138 149.336H225.369L225.237 150.757ZM227.903 160L224.709 150.757L224.57 149.336H225.808L229.836 160H227.903ZM227.749 156.045V157.502H221.948V156.045H227.749ZM234.092 158.74C234.38 158.74 234.639 158.684 234.868 158.572C235.103 158.455 235.291 158.293 235.432 158.088C235.579 157.883 235.659 157.646 235.674 157.378H237.336C237.327 157.891 237.175 158.357 236.882 158.777C236.589 159.197 236.201 159.531 235.718 159.78C235.234 160.024 234.7 160.146 234.114 160.146C233.508 160.146 232.981 160.044 232.532 159.839C232.083 159.629 231.709 159.341 231.411 158.975C231.113 158.608 230.889 158.186 230.737 157.708C230.591 157.229 230.518 156.716 230.518 156.169V155.913C230.518 155.366 230.591 154.854 230.737 154.375C230.889 153.892 231.113 153.467 231.411 153.101C231.709 152.734 232.083 152.449 232.532 152.244C232.981 152.034 233.506 151.929 234.106 151.929C234.741 151.929 235.298 152.056 235.776 152.31C236.255 152.559 236.631 152.908 236.904 153.357C237.183 153.801 237.327 154.319 237.336 154.91H235.674C235.659 154.617 235.586 154.353 235.454 154.119C235.327 153.879 235.146 153.689 234.912 153.547C234.683 153.406 234.407 153.335 234.084 153.335C233.728 153.335 233.433 153.408 233.198 153.555C232.964 153.696 232.781 153.892 232.649 154.141C232.517 154.385 232.422 154.661 232.363 154.968C232.31 155.271 232.283 155.586 232.283 155.913V156.169C232.283 156.497 232.31 156.814 232.363 157.122C232.417 157.429 232.51 157.705 232.642 157.949C232.778 158.188 232.964 158.381 233.198 158.528C233.433 158.669 233.73 158.74 234.092 158.74ZM241.929 158.74C242.217 158.74 242.476 158.684 242.705 158.572C242.939 158.455 243.127 158.293 243.269 158.088C243.416 157.883 243.496 157.646 243.511 157.378H245.173C245.164 157.891 245.012 158.357 244.719 158.777C244.426 159.197 244.038 159.531 243.555 159.78C243.071 160.024 242.537 160.146 241.951 160.146C241.345 160.146 240.818 160.044 240.369 159.839C239.919 159.629 239.546 159.341 239.248 158.975C238.95 158.608 238.726 158.186 238.574 157.708C238.428 157.229 238.354 156.716 238.354 156.169V155.913C238.354 155.366 238.428 154.854 238.574 154.375C238.726 153.892 238.95 153.467 239.248 153.101C239.546 152.734 239.919 152.449 240.369 152.244C240.818 152.034 241.343 151.929 241.943 151.929C242.578 151.929 243.135 152.056 243.613 152.31C244.092 152.559 244.468 152.908 244.741 153.357C245.02 153.801 245.164 154.319 245.173 154.91H243.511C243.496 154.617 243.423 154.353 243.291 154.119C243.164 153.879 242.983 153.689 242.749 153.547C242.52 153.406 242.244 153.335 241.921 153.335C241.565 153.335 241.27 153.408 241.035 153.555C240.801 153.696 240.618 153.892 240.486 154.141C240.354 154.385 240.259 154.661 240.2 154.968C240.146 155.271 240.12 155.586 240.12 155.913V156.169C240.12 156.497 240.146 156.814 240.2 157.122C240.254 157.429 240.347 157.705 240.479 157.949C240.615 158.188 240.801 158.381 241.035 158.528C241.27 158.669 241.567 158.74 241.929 158.74ZM250.022 160.146C249.436 160.146 248.906 160.051 248.433 159.861C247.964 159.666 247.563 159.395 247.231 159.048C246.904 158.701 246.653 158.293 246.477 157.825C246.301 157.356 246.213 156.851 246.213 156.309V156.016C246.213 155.396 246.304 154.834 246.484 154.331C246.665 153.828 246.917 153.398 247.239 153.042C247.561 152.681 247.942 152.405 248.381 152.214C248.821 152.024 249.297 151.929 249.81 151.929C250.376 151.929 250.872 152.024 251.296 152.214C251.721 152.405 252.073 152.673 252.351 153.02C252.634 153.362 252.844 153.77 252.981 154.243C253.123 154.717 253.193 155.239 253.193 155.811V156.565H247.07V155.298H251.45V155.159C251.44 154.841 251.377 154.543 251.26 154.265C251.147 153.987 250.974 153.762 250.74 153.591C250.505 153.42 250.193 153.335 249.802 153.335C249.509 153.335 249.248 153.398 249.019 153.525C248.794 153.647 248.606 153.826 248.455 154.06C248.303 154.294 248.186 154.578 248.103 154.91C248.025 155.237 247.986 155.605 247.986 156.016V156.309C247.986 156.655 248.032 156.978 248.125 157.275C248.223 157.568 248.364 157.825 248.55 158.044C248.735 158.264 248.96 158.438 249.224 158.564C249.487 158.687 249.788 158.748 250.125 158.748C250.549 158.748 250.928 158.662 251.26 158.491C251.592 158.32 251.88 158.079 252.124 157.766L253.054 158.667C252.883 158.916 252.661 159.155 252.388 159.385C252.114 159.609 251.78 159.792 251.384 159.934C250.994 160.076 250.54 160.146 250.022 160.146ZM259.016 157.854C259.016 157.678 258.972 157.52 258.884 157.378C258.796 157.231 258.628 157.1 258.379 156.982C258.135 156.865 257.773 156.758 257.295 156.66C256.875 156.567 256.489 156.458 256.138 156.331C255.791 156.199 255.493 156.04 255.244 155.854C254.995 155.669 254.802 155.449 254.666 155.195C254.529 154.941 254.46 154.648 254.46 154.316C254.46 153.994 254.531 153.689 254.673 153.401C254.814 153.113 255.017 152.859 255.281 152.639C255.544 152.419 255.864 152.246 256.24 152.119C256.621 151.992 257.046 151.929 257.515 151.929C258.179 151.929 258.748 152.041 259.221 152.266C259.7 152.485 260.066 152.786 260.32 153.167C260.574 153.542 260.701 153.967 260.701 154.441H258.936C258.936 154.231 258.882 154.036 258.774 153.855C258.672 153.669 258.516 153.521 258.306 153.408C258.096 153.291 257.832 153.232 257.515 153.232C257.212 153.232 256.96 153.281 256.76 153.379C256.565 153.472 256.418 153.594 256.321 153.745C256.228 153.896 256.182 154.062 256.182 154.243C256.182 154.375 256.206 154.495 256.255 154.602C256.309 154.705 256.396 154.8 256.519 154.888C256.641 154.971 256.807 155.049 257.017 155.122C257.231 155.195 257.5 155.266 257.822 155.334C258.428 155.461 258.948 155.625 259.382 155.825C259.822 156.021 260.159 156.274 260.393 156.587C260.627 156.895 260.745 157.285 260.745 157.759C260.745 158.11 260.669 158.433 260.518 158.726C260.371 159.014 260.156 159.265 259.873 159.48C259.59 159.69 259.25 159.854 258.855 159.971C258.464 160.088 258.025 160.146 257.537 160.146C256.819 160.146 256.211 160.02 255.713 159.766C255.215 159.507 254.836 159.177 254.578 158.777C254.324 158.372 254.197 157.952 254.197 157.517H255.903C255.923 157.844 256.013 158.105 256.174 158.301C256.34 158.491 256.545 158.63 256.79 158.718C257.039 158.801 257.295 158.843 257.559 158.843C257.876 158.843 258.142 158.801 258.357 158.718C258.572 158.63 258.735 158.513 258.848 158.367C258.96 158.215 259.016 158.044 259.016 157.854ZM266.736 157.854C266.736 157.678 266.692 157.52 266.604 157.378C266.516 157.231 266.348 157.1 266.099 156.982C265.854 156.865 265.493 156.758 265.015 156.66C264.595 156.567 264.209 156.458 263.857 156.331C263.511 156.199 263.213 156.04 262.964 155.854C262.715 155.669 262.522 155.449 262.385 155.195C262.249 154.941 262.18 154.648 262.18 154.316C262.18 153.994 262.251 153.689 262.393 153.401C262.534 153.113 262.737 152.859 263 152.639C263.264 152.419 263.584 152.246 263.96 152.119C264.341 151.992 264.766 151.929 265.234 151.929C265.898 151.929 266.467 152.041 266.941 152.266C267.419 152.485 267.786 152.786 268.04 153.167C268.293 153.542 268.42 153.967 268.42 154.441H266.655C266.655 154.231 266.602 154.036 266.494 153.855C266.392 153.669 266.235 153.521 266.025 153.408C265.815 153.291 265.552 153.232 265.234 153.232C264.932 153.232 264.68 153.281 264.48 153.379C264.285 153.472 264.138 153.594 264.041 153.745C263.948 153.896 263.901 154.062 263.901 154.243C263.901 154.375 263.926 154.495 263.975 154.602C264.028 154.705 264.116 154.8 264.238 154.888C264.36 154.971 264.526 155.049 264.736 155.122C264.951 155.195 265.22 155.266 265.542 155.334C266.147 155.461 266.667 155.625 267.102 155.825C267.542 156.021 267.878 156.274 268.113 156.587C268.347 156.895 268.464 157.285 268.464 157.759C268.464 158.11 268.389 158.433 268.237 158.726C268.091 159.014 267.876 159.265 267.593 159.48C267.31 159.69 266.97 159.854 266.575 159.971C266.184 160.088 265.745 160.146 265.256 160.146C264.539 160.146 263.931 160.02 263.433 159.766C262.935 159.507 262.556 159.177 262.297 158.777C262.043 158.372 261.917 157.952 261.917 157.517H263.623C263.643 157.844 263.733 158.105 263.894 158.301C264.06 158.491 264.265 158.63 264.509 158.718C264.758 158.801 265.015 158.843 265.278 158.843C265.596 158.843 265.862 158.801 266.077 158.718C266.292 158.63 266.455 158.513 266.567 158.367C266.68 158.215 266.736 158.044 266.736 157.854ZM271.899 152.075V160H270.127V152.075H271.899ZM270.01 149.995C270.01 149.727 270.098 149.504 270.273 149.329C270.454 149.148 270.703 149.058 271.021 149.058C271.333 149.058 271.58 149.148 271.76 149.329C271.941 149.504 272.031 149.727 272.031 149.995C272.031 150.259 271.941 150.479 271.76 150.654C271.58 150.83 271.333 150.918 271.021 150.918C270.703 150.918 270.454 150.83 270.273 150.654C270.098 150.479 270.01 150.259 270.01 149.995ZM273.84 148.75H275.605V158.308L275.437 160H273.84V148.75ZM280.776 155.964V156.118C280.776 156.704 280.71 157.244 280.579 157.737C280.452 158.225 280.256 158.65 279.993 159.011C279.734 159.373 279.412 159.653 279.026 159.854C278.645 160.049 278.203 160.146 277.7 160.146C277.207 160.146 276.777 160.054 276.411 159.868C276.045 159.683 275.737 159.419 275.488 159.077C275.244 158.735 275.046 158.328 274.895 157.854C274.744 157.38 274.636 156.858 274.573 156.287V155.796C274.636 155.22 274.744 154.697 274.895 154.229C275.046 153.755 275.244 153.347 275.488 153.005C275.737 152.659 276.042 152.393 276.404 152.207C276.77 152.021 277.197 151.929 277.686 151.929C278.193 151.929 278.64 152.026 279.026 152.222C279.417 152.417 279.741 152.695 280 153.057C280.259 153.413 280.452 153.838 280.579 154.331C280.71 154.824 280.776 155.369 280.776 155.964ZM279.011 156.118V155.964C279.011 155.608 278.982 155.273 278.923 154.961C278.865 154.644 278.767 154.365 278.63 154.126C278.499 153.887 278.318 153.699 278.088 153.562C277.864 153.42 277.583 153.35 277.246 153.35C276.934 153.35 276.665 153.403 276.44 153.511C276.216 153.618 276.028 153.765 275.876 153.95C275.725 154.136 275.605 154.351 275.518 154.595C275.435 154.839 275.378 155.103 275.349 155.386V156.711C275.393 157.078 275.486 157.415 275.627 157.722C275.774 158.025 275.979 158.269 276.243 158.455C276.506 158.635 276.846 158.726 277.261 158.726C277.588 158.726 277.864 158.66 278.088 158.528C278.313 158.396 278.491 158.213 278.623 157.979C278.76 157.739 278.857 157.461 278.916 157.144C278.979 156.826 279.011 156.484 279.011 156.118ZM284.16 152.075V160H282.388V152.075H284.16ZM282.271 149.995C282.271 149.727 282.358 149.504 282.534 149.329C282.715 149.148 282.964 149.058 283.281 149.058C283.594 149.058 283.84 149.148 284.021 149.329C284.202 149.504 284.292 149.727 284.292 149.995C284.292 150.259 284.202 150.479 284.021 150.654C283.84 150.83 283.594 150.918 283.281 150.918C282.964 150.918 282.715 150.83 282.534 150.654C282.358 150.479 282.271 150.259 282.271 149.995ZM287.983 148.75V160H286.211V148.75H287.983ZM291.807 152.075V160H290.034V152.075H291.807ZM289.917 149.995C289.917 149.727 290.005 149.504 290.181 149.329C290.361 149.148 290.61 149.058 290.928 149.058C291.24 149.058 291.487 149.148 291.667 149.329C291.848 149.504 291.938 149.727 291.938 149.995C291.938 150.259 291.848 150.479 291.667 150.654C291.487 150.83 291.24 150.918 290.928 150.918C290.61 150.918 290.361 150.83 290.181 150.654C290.005 150.479 289.917 150.259 289.917 149.995ZM297.373 152.075V153.364H292.905V152.075H297.373ZM294.194 150.134H295.959V157.81C295.959 158.054 295.994 158.242 296.062 158.374C296.135 158.501 296.235 158.586 296.362 158.63C296.489 158.674 296.638 158.696 296.809 158.696C296.931 158.696 297.048 158.689 297.161 158.674C297.273 158.66 297.363 158.645 297.432 158.63L297.439 159.978C297.292 160.022 297.122 160.061 296.926 160.095C296.736 160.129 296.516 160.146 296.267 160.146C295.862 160.146 295.503 160.076 295.19 159.934C294.878 159.788 294.634 159.551 294.458 159.224C294.282 158.896 294.194 158.462 294.194 157.92V150.134ZM301.035 159.136L303.188 152.075H305.078L301.899 161.208C301.826 161.404 301.731 161.616 301.614 161.846C301.497 162.075 301.343 162.292 301.152 162.498C300.967 162.708 300.735 162.876 300.457 163.003C300.178 163.135 299.841 163.201 299.446 163.201C299.29 163.201 299.138 163.186 298.992 163.157C298.85 163.132 298.716 163.105 298.589 163.076L298.582 161.729C298.63 161.733 298.689 161.738 298.757 161.743C298.831 161.748 298.889 161.75 298.933 161.75C299.226 161.75 299.47 161.714 299.666 161.641C299.861 161.572 300.02 161.46 300.142 161.304C300.269 161.147 300.376 160.938 300.464 160.674L301.035 159.136ZM299.819 152.075L301.702 158.008L302.017 159.868L300.793 160.183L297.915 152.075H299.819Z" fill="#4C4C4C"/>
<path d="M225.237 202.757L222.051 212H220.125L224.138 201.336H225.369L225.237 202.757ZM227.903 212L224.709 202.757L224.57 201.336H225.808L229.836 212H227.903ZM227.749 208.045V209.502H221.948V208.045H227.749ZM232.495 205.599V215.047H230.73V204.075H232.356L232.495 205.599ZM237.659 207.964V208.118C237.659 208.694 237.59 209.229 237.454 209.722C237.322 210.21 237.124 210.638 236.86 211.004C236.602 211.365 236.282 211.646 235.901 211.846C235.52 212.046 235.081 212.146 234.583 212.146C234.089 212.146 233.657 212.056 233.286 211.875C232.92 211.69 232.61 211.429 232.356 211.092C232.102 210.755 231.897 210.359 231.741 209.905C231.589 209.446 231.482 208.943 231.418 208.396V207.803C231.482 207.222 231.589 206.695 231.741 206.221C231.897 205.748 232.102 205.34 232.356 204.998C232.61 204.656 232.92 204.393 233.286 204.207C233.652 204.021 234.08 203.929 234.568 203.929C235.066 203.929 235.508 204.026 235.894 204.222C236.279 204.412 236.604 204.686 236.868 205.042C237.131 205.394 237.329 205.818 237.461 206.316C237.593 206.81 237.659 207.359 237.659 207.964ZM235.894 208.118V207.964C235.894 207.598 235.859 207.259 235.791 206.946C235.723 206.629 235.615 206.351 235.469 206.111C235.322 205.872 235.134 205.687 234.905 205.555C234.68 205.418 234.409 205.35 234.092 205.35C233.779 205.35 233.511 205.403 233.286 205.511C233.062 205.613 232.874 205.757 232.722 205.943C232.571 206.128 232.454 206.346 232.371 206.595C232.288 206.839 232.229 207.105 232.195 207.393V208.814C232.253 209.166 232.354 209.488 232.495 209.781C232.637 210.074 232.837 210.308 233.096 210.484C233.359 210.655 233.696 210.74 234.106 210.74C234.424 210.74 234.695 210.672 234.919 210.535C235.144 210.398 235.327 210.21 235.469 209.971C235.615 209.727 235.723 209.446 235.791 209.129C235.859 208.812 235.894 208.475 235.894 208.118ZM240.933 205.599V215.047H239.167V204.075H240.793L240.933 205.599ZM246.096 207.964V208.118C246.096 208.694 246.028 209.229 245.891 209.722C245.759 210.21 245.562 210.638 245.298 211.004C245.039 211.365 244.719 211.646 244.338 211.846C243.958 212.046 243.518 212.146 243.02 212.146C242.527 212.146 242.095 212.056 241.724 211.875C241.357 211.69 241.047 211.429 240.793 211.092C240.54 210.755 240.334 210.359 240.178 209.905C240.027 209.446 239.919 208.943 239.856 208.396V207.803C239.919 207.222 240.027 206.695 240.178 206.221C240.334 205.748 240.54 205.34 240.793 204.998C241.047 204.656 241.357 204.393 241.724 204.207C242.09 204.021 242.517 203.929 243.005 203.929C243.503 203.929 243.945 204.026 244.331 204.222C244.717 204.412 245.042 204.686 245.305 205.042C245.569 205.394 245.767 205.818 245.898 206.316C246.03 206.81 246.096 207.359 246.096 207.964ZM244.331 208.118V207.964C244.331 207.598 244.297 207.259 244.229 206.946C244.16 206.629 244.053 206.351 243.906 206.111C243.76 205.872 243.572 205.687 243.342 205.555C243.118 205.418 242.847 205.35 242.529 205.35C242.217 205.35 241.948 205.403 241.724 205.511C241.499 205.613 241.311 205.757 241.16 205.943C241.008 206.128 240.891 206.346 240.808 206.595C240.725 206.839 240.667 207.105 240.632 207.393V208.814C240.691 209.166 240.791 209.488 240.933 209.781C241.074 210.074 241.274 210.308 241.533 210.484C241.797 210.655 242.134 210.74 242.544 210.74C242.861 210.74 243.132 210.672 243.357 210.535C243.582 210.398 243.765 210.21 243.906 209.971C244.053 209.727 244.16 209.446 244.229 209.129C244.297 208.812 244.331 208.475 244.331 208.118ZM251.091 212.146C250.505 212.146 249.976 212.051 249.502 211.861C249.033 211.666 248.633 211.395 248.301 211.048C247.974 210.701 247.722 210.293 247.546 209.825C247.371 209.356 247.283 208.851 247.283 208.309V208.016C247.283 207.396 247.373 206.834 247.554 206.331C247.734 205.828 247.986 205.398 248.308 205.042C248.63 204.681 249.011 204.405 249.451 204.214C249.89 204.024 250.366 203.929 250.879 203.929C251.445 203.929 251.941 204.024 252.366 204.214C252.791 204.405 253.142 204.673 253.42 205.02C253.704 205.362 253.914 205.77 254.05 206.243C254.192 206.717 254.263 207.239 254.263 207.811V208.565H248.14V207.298H252.52V207.159C252.51 206.841 252.446 206.543 252.329 206.265C252.217 205.987 252.043 205.762 251.809 205.591C251.575 205.42 251.262 205.335 250.872 205.335C250.579 205.335 250.317 205.398 250.088 205.525C249.863 205.647 249.675 205.826 249.524 206.06C249.373 206.294 249.255 206.578 249.172 206.91C249.094 207.237 249.055 207.605 249.055 208.016V208.309C249.055 208.655 249.102 208.978 249.194 209.275C249.292 209.568 249.434 209.825 249.619 210.044C249.805 210.264 250.029 210.438 250.293 210.564C250.557 210.687 250.857 210.748 251.194 210.748C251.619 210.748 251.997 210.662 252.329 210.491C252.661 210.32 252.949 210.079 253.193 209.766L254.124 210.667C253.953 210.916 253.73 211.155 253.457 211.385C253.184 211.609 252.849 211.792 252.454 211.934C252.063 212.076 251.609 212.146 251.091 212.146ZM260.107 210.411V206.631C260.107 206.348 260.056 206.104 259.954 205.899C259.851 205.694 259.695 205.535 259.485 205.423C259.28 205.311 259.021 205.254 258.708 205.254C258.42 205.254 258.171 205.303 257.961 205.401C257.751 205.499 257.588 205.63 257.471 205.796C257.354 205.962 257.295 206.15 257.295 206.36H255.537C255.537 206.048 255.613 205.745 255.764 205.452C255.916 205.159 256.135 204.898 256.423 204.668C256.711 204.439 257.056 204.258 257.456 204.126C257.856 203.995 258.306 203.929 258.804 203.929C259.399 203.929 259.927 204.029 260.386 204.229C260.85 204.429 261.213 204.732 261.477 205.137C261.746 205.538 261.88 206.041 261.88 206.646V210.169C261.88 210.53 261.904 210.855 261.953 211.143C262.007 211.426 262.083 211.673 262.18 211.883V212H260.371C260.288 211.81 260.222 211.568 260.173 211.275C260.129 210.977 260.107 210.689 260.107 210.411ZM260.364 207.181L260.378 208.272H259.111C258.784 208.272 258.496 208.304 258.247 208.367C257.998 208.426 257.791 208.514 257.625 208.631C257.458 208.748 257.334 208.89 257.251 209.056C257.168 209.222 257.126 209.41 257.126 209.62C257.126 209.83 257.175 210.022 257.273 210.198C257.371 210.369 257.512 210.503 257.698 210.601C257.888 210.699 258.118 210.748 258.386 210.748C258.748 210.748 259.062 210.674 259.331 210.528C259.604 210.376 259.819 210.193 259.976 209.979C260.132 209.759 260.215 209.551 260.225 209.356L260.796 210.14C260.737 210.34 260.637 210.555 260.496 210.784C260.354 211.014 260.168 211.233 259.939 211.443C259.714 211.648 259.443 211.817 259.126 211.949C258.813 212.081 258.452 212.146 258.042 212.146C257.524 212.146 257.063 212.044 256.658 211.839C256.252 211.629 255.935 211.348 255.706 210.997C255.476 210.64 255.361 210.237 255.361 209.788C255.361 209.368 255.439 208.997 255.596 208.675C255.757 208.348 255.991 208.074 256.299 207.854C256.611 207.635 256.992 207.469 257.441 207.356C257.891 207.239 258.403 207.181 258.979 207.181H260.364ZM265.498 205.584V212H263.733V204.075H265.417L265.498 205.584ZM267.922 204.024L267.908 205.665C267.8 205.645 267.683 205.63 267.556 205.621C267.434 205.611 267.312 205.606 267.19 205.606C266.887 205.606 266.621 205.65 266.392 205.738C266.162 205.821 265.969 205.943 265.813 206.104C265.662 206.26 265.544 206.451 265.461 206.675C265.378 206.9 265.33 207.151 265.315 207.43L264.912 207.459C264.912 206.961 264.961 206.5 265.059 206.075C265.156 205.65 265.303 205.276 265.498 204.954C265.698 204.632 265.947 204.38 266.245 204.2C266.548 204.019 266.897 203.929 267.292 203.929C267.4 203.929 267.515 203.938 267.637 203.958C267.764 203.978 267.859 204 267.922 204.024ZM273.232 210.411V206.631C273.232 206.348 273.181 206.104 273.079 205.899C272.976 205.694 272.82 205.535 272.61 205.423C272.405 205.311 272.146 205.254 271.833 205.254C271.545 205.254 271.296 205.303 271.086 205.401C270.876 205.499 270.713 205.63 270.596 205.796C270.479 205.962 270.42 206.15 270.42 206.36H268.662C268.662 206.048 268.738 205.745 268.889 205.452C269.041 205.159 269.26 204.898 269.548 204.668C269.836 204.439 270.181 204.258 270.581 204.126C270.981 203.995 271.431 203.929 271.929 203.929C272.524 203.929 273.052 204.029 273.511 204.229C273.975 204.429 274.338 204.732 274.602 205.137C274.871 205.538 275.005 206.041 275.005 206.646V210.169C275.005 210.53 275.029 210.855 275.078 211.143C275.132 211.426 275.208 211.673 275.305 211.883V212H273.496C273.413 211.81 273.347 211.568 273.298 211.275C273.254 210.977 273.232 210.689 273.232 210.411ZM273.489 207.181L273.503 208.272H272.236C271.909 208.272 271.621 208.304 271.372 208.367C271.123 208.426 270.916 208.514 270.75 208.631C270.583 208.748 270.459 208.89 270.376 209.056C270.293 209.222 270.251 209.41 270.251 209.62C270.251 209.83 270.3 210.022 270.398 210.198C270.496 210.369 270.637 210.503 270.823 210.601C271.013 210.699 271.243 210.748 271.511 210.748C271.873 210.748 272.188 210.674 272.456 210.528C272.729 210.376 272.944 210.193 273.101 209.979C273.257 209.759 273.34 209.551 273.35 209.356L273.921 210.14C273.862 210.34 273.762 210.555 273.621 210.784C273.479 211.014 273.293 211.233 273.064 211.443C272.839 211.648 272.568 211.817 272.251 211.949C271.938 212.081 271.577 212.146 271.167 212.146C270.649 212.146 270.188 212.044 269.783 211.839C269.377 211.629 269.06 211.348 268.831 210.997C268.601 210.64 268.486 210.237 268.486 209.788C268.486 209.368 268.564 208.997 268.721 208.675C268.882 208.348 269.116 208.074 269.424 207.854C269.736 207.635 270.117 207.469 270.566 207.356C271.016 207.239 271.528 207.181 272.104 207.181H273.489ZM278.601 205.767V212H276.836V204.075H278.499L278.601 205.767ZM278.286 207.745L277.715 207.737C277.72 207.176 277.798 206.661 277.949 206.192C278.105 205.723 278.32 205.32 278.594 204.983C278.872 204.646 279.204 204.388 279.59 204.207C279.976 204.021 280.405 203.929 280.879 203.929C281.26 203.929 281.604 203.982 281.912 204.09C282.224 204.192 282.49 204.361 282.71 204.595C282.935 204.83 283.105 205.135 283.223 205.511C283.34 205.882 283.398 206.338 283.398 206.88V212H281.626V206.873C281.626 206.492 281.57 206.192 281.458 205.972C281.35 205.748 281.191 205.589 280.981 205.496C280.776 205.398 280.52 205.35 280.212 205.35C279.91 205.35 279.639 205.413 279.399 205.54C279.16 205.667 278.958 205.84 278.792 206.06C278.63 206.28 278.506 206.534 278.418 206.822C278.33 207.11 278.286 207.417 278.286 207.745ZM288.438 210.74C288.726 210.74 288.984 210.684 289.214 210.572C289.448 210.455 289.636 210.293 289.778 210.088C289.924 209.883 290.005 209.646 290.02 209.378H291.682C291.672 209.891 291.521 210.357 291.228 210.777C290.935 211.197 290.547 211.531 290.063 211.78C289.58 212.024 289.045 212.146 288.459 212.146C287.854 212.146 287.327 212.044 286.877 211.839C286.428 211.629 286.055 211.341 285.757 210.975C285.459 210.608 285.234 210.186 285.083 209.708C284.937 209.229 284.863 208.716 284.863 208.169V207.913C284.863 207.366 284.937 206.854 285.083 206.375C285.234 205.892 285.459 205.467 285.757 205.101C286.055 204.734 286.428 204.449 286.877 204.244C287.327 204.034 287.852 203.929 288.452 203.929C289.087 203.929 289.644 204.056 290.122 204.31C290.601 204.559 290.977 204.908 291.25 205.357C291.528 205.801 291.672 206.319 291.682 206.91H290.02C290.005 206.617 289.932 206.353 289.8 206.119C289.673 205.879 289.492 205.689 289.258 205.547C289.028 205.406 288.752 205.335 288.43 205.335C288.074 205.335 287.778 205.408 287.544 205.555C287.31 205.696 287.126 205.892 286.995 206.141C286.863 206.385 286.768 206.661 286.709 206.968C286.655 207.271 286.628 207.586 286.628 207.913V208.169C286.628 208.497 286.655 208.814 286.709 209.122C286.763 209.429 286.855 209.705 286.987 209.949C287.124 210.188 287.31 210.381 287.544 210.528C287.778 210.669 288.076 210.74 288.438 210.74ZM296.531 212.146C295.945 212.146 295.415 212.051 294.941 211.861C294.473 211.666 294.072 211.395 293.74 211.048C293.413 210.701 293.162 210.293 292.986 209.825C292.81 209.356 292.722 208.851 292.722 208.309V208.016C292.722 207.396 292.812 206.834 292.993 206.331C293.174 205.828 293.425 205.398 293.748 205.042C294.07 204.681 294.451 204.405 294.89 204.214C295.33 204.024 295.806 203.929 296.318 203.929C296.885 203.929 297.38 204.024 297.805 204.214C298.23 204.405 298.582 204.673 298.86 205.02C299.143 205.362 299.353 205.77 299.49 206.243C299.631 206.717 299.702 207.239 299.702 207.811V208.565H293.579V207.298H297.959V207.159C297.949 206.841 297.886 206.543 297.769 206.265C297.656 205.987 297.483 205.762 297.249 205.591C297.014 205.42 296.702 205.335 296.311 205.335C296.018 205.335 295.757 205.398 295.527 205.525C295.303 205.647 295.115 205.826 294.963 206.06C294.812 206.294 294.695 206.578 294.612 206.91C294.534 207.237 294.495 207.605 294.495 208.016V208.309C294.495 208.655 294.541 208.978 294.634 209.275C294.731 209.568 294.873 209.825 295.059 210.044C295.244 210.264 295.469 210.438 295.732 210.564C295.996 210.687 296.296 210.748 296.633 210.748C297.058 210.748 297.437 210.662 297.769 210.491C298.101 210.32 298.389 210.079 298.633 209.766L299.563 210.667C299.392 210.916 299.17 211.155 298.896 211.385C298.623 211.609 298.289 211.792 297.893 211.934C297.502 212.076 297.048 212.146 296.531 212.146ZM306.587 205.599V215.047H304.822V204.075H306.448L306.587 205.599ZM311.75 207.964V208.118C311.75 208.694 311.682 209.229 311.545 209.722C311.414 210.21 311.216 210.638 310.952 211.004C310.693 211.365 310.374 211.646 309.993 211.846C309.612 212.046 309.172 212.146 308.674 212.146C308.181 212.146 307.749 212.056 307.378 211.875C307.012 211.69 306.702 211.429 306.448 211.092C306.194 210.755 305.989 210.359 305.833 209.905C305.681 209.446 305.574 208.943 305.51 208.396V207.803C305.574 207.222 305.681 206.695 305.833 206.221C305.989 205.748 306.194 205.34 306.448 204.998C306.702 204.656 307.012 204.393 307.378 204.207C307.744 204.021 308.171 203.929 308.66 203.929C309.158 203.929 309.6 204.026 309.985 204.222C310.371 204.412 310.696 204.686 310.959 205.042C311.223 205.394 311.421 205.818 311.553 206.316C311.685 206.81 311.75 207.359 311.75 207.964ZM309.985 208.118V207.964C309.985 207.598 309.951 207.259 309.883 206.946C309.814 206.629 309.707 206.351 309.561 206.111C309.414 205.872 309.226 205.687 308.997 205.555C308.772 205.418 308.501 205.35 308.184 205.35C307.871 205.35 307.603 205.403 307.378 205.511C307.153 205.613 306.965 205.757 306.814 205.943C306.663 206.128 306.545 206.346 306.462 206.595C306.379 206.839 306.321 207.105 306.287 207.393V208.814C306.345 209.166 306.445 209.488 306.587 209.781C306.729 210.074 306.929 210.308 307.188 210.484C307.451 210.655 307.788 210.74 308.198 210.74C308.516 210.74 308.787 210.672 309.011 210.535C309.236 210.398 309.419 210.21 309.561 209.971C309.707 209.727 309.814 209.446 309.883 209.129C309.951 208.812 309.985 208.475 309.985 208.118ZM315.024 205.584V212H313.259V204.075H314.944L315.024 205.584ZM317.449 204.024L317.434 205.665C317.327 205.645 317.209 205.63 317.083 205.621C316.96 205.611 316.838 205.606 316.716 205.606C316.414 205.606 316.147 205.65 315.918 205.738C315.688 205.821 315.496 205.943 315.339 206.104C315.188 206.26 315.071 206.451 314.988 206.675C314.905 206.9 314.856 207.151 314.841 207.43L314.438 207.459C314.438 206.961 314.487 206.5 314.585 206.075C314.683 205.65 314.829 205.276 315.024 204.954C315.225 204.632 315.474 204.38 315.771 204.2C316.074 204.019 316.423 203.929 316.819 203.929C316.926 203.929 317.041 203.938 317.163 203.958C317.29 203.978 317.385 204 317.449 204.024ZM321.902 212.146C321.316 212.146 320.786 212.051 320.312 211.861C319.844 211.666 319.443 211.395 319.111 211.048C318.784 210.701 318.533 210.293 318.357 209.825C318.181 209.356 318.093 208.851 318.093 208.309V208.016C318.093 207.396 318.184 206.834 318.364 206.331C318.545 205.828 318.796 205.398 319.119 205.042C319.441 204.681 319.822 204.405 320.261 204.214C320.701 204.024 321.177 203.929 321.689 203.929C322.256 203.929 322.751 204.024 323.176 204.214C323.601 204.405 323.953 204.673 324.231 205.02C324.514 205.362 324.724 205.77 324.861 206.243C325.002 206.717 325.073 207.239 325.073 207.811V208.565H318.95V207.298H323.33V207.159C323.32 206.841 323.257 206.543 323.14 206.265C323.027 205.987 322.854 205.762 322.62 205.591C322.385 205.42 322.073 205.335 321.682 205.335C321.389 205.335 321.128 205.398 320.898 205.525C320.674 205.647 320.486 205.826 320.334 206.06C320.183 206.294 320.066 206.578 319.983 206.91C319.905 207.237 319.866 207.605 319.866 208.016V208.309C319.866 208.655 319.912 208.978 320.005 209.275C320.103 209.568 320.244 209.825 320.43 210.044C320.615 210.264 320.84 210.438 321.104 210.564C321.367 210.687 321.667 210.748 322.004 210.748C322.429 210.748 322.808 210.662 323.14 210.491C323.472 210.32 323.76 210.079 324.004 209.766L324.934 210.667C324.763 210.916 324.541 211.155 324.268 211.385C323.994 211.609 323.66 211.792 323.264 211.934C322.874 212.076 322.419 212.146 321.902 212.146ZM330.896 209.854C330.896 209.678 330.852 209.52 330.764 209.378C330.676 209.231 330.508 209.1 330.259 208.982C330.015 208.865 329.653 208.758 329.175 208.66C328.755 208.567 328.369 208.458 328.018 208.331C327.671 208.199 327.373 208.04 327.124 207.854C326.875 207.669 326.682 207.449 326.545 207.195C326.409 206.941 326.34 206.648 326.34 206.316C326.34 205.994 326.411 205.689 326.553 205.401C326.694 205.113 326.897 204.859 327.161 204.639C327.424 204.419 327.744 204.246 328.12 204.119C328.501 203.992 328.926 203.929 329.395 203.929C330.059 203.929 330.627 204.041 331.101 204.266C331.58 204.485 331.946 204.786 332.2 205.167C332.454 205.542 332.581 205.967 332.581 206.441H330.815C330.815 206.231 330.762 206.036 330.654 205.855C330.552 205.669 330.396 205.521 330.186 205.408C329.976 205.291 329.712 205.232 329.395 205.232C329.092 205.232 328.84 205.281 328.64 205.379C328.445 205.472 328.298 205.594 328.201 205.745C328.108 205.896 328.062 206.062 328.062 206.243C328.062 206.375 328.086 206.495 328.135 206.602C328.188 206.705 328.276 206.8 328.398 206.888C328.521 206.971 328.687 207.049 328.896 207.122C329.111 207.195 329.38 207.266 329.702 207.334C330.308 207.461 330.828 207.625 331.262 207.825C331.702 208.021 332.039 208.274 332.273 208.587C332.507 208.895 332.625 209.285 332.625 209.759C332.625 210.11 332.549 210.433 332.397 210.726C332.251 211.014 332.036 211.265 331.753 211.48C331.47 211.69 331.13 211.854 330.735 211.971C330.344 212.088 329.905 212.146 329.417 212.146C328.699 212.146 328.091 212.02 327.593 211.766C327.095 211.507 326.716 211.177 326.458 210.777C326.204 210.372 326.077 209.952 326.077 209.517H327.783C327.803 209.844 327.893 210.105 328.054 210.301C328.22 210.491 328.425 210.63 328.669 210.718C328.918 210.801 329.175 210.843 329.438 210.843C329.756 210.843 330.022 210.801 330.237 210.718C330.452 210.63 330.615 210.513 330.728 210.367C330.84 210.215 330.896 210.044 330.896 209.854ZM337.664 212.146C337.078 212.146 336.548 212.051 336.074 211.861C335.605 211.666 335.205 211.395 334.873 211.048C334.546 210.701 334.294 210.293 334.119 209.825C333.943 209.356 333.855 208.851 333.855 208.309V208.016C333.855 207.396 333.945 206.834 334.126 206.331C334.307 205.828 334.558 205.398 334.88 205.042C335.203 204.681 335.583 204.405 336.023 204.214C336.462 204.024 336.938 203.929 337.451 203.929C338.018 203.929 338.513 204.024 338.938 204.214C339.363 204.405 339.714 204.673 339.993 205.02C340.276 205.362 340.486 205.77 340.623 206.243C340.764 206.717 340.835 207.239 340.835 207.811V208.565H334.712V207.298H339.092V207.159C339.082 206.841 339.019 206.543 338.901 206.265C338.789 205.987 338.616 205.762 338.381 205.591C338.147 205.42 337.834 205.335 337.444 205.335C337.151 205.335 336.89 205.398 336.66 205.525C336.436 205.647 336.248 205.826 336.096 206.06C335.945 206.294 335.828 206.578 335.745 206.91C335.667 207.237 335.627 207.605 335.627 208.016V208.309C335.627 208.655 335.674 208.978 335.767 209.275C335.864 209.568 336.006 209.825 336.191 210.044C336.377 210.264 336.602 210.438 336.865 210.564C337.129 210.687 337.429 210.748 337.766 210.748C338.191 210.748 338.569 210.662 338.901 210.491C339.233 210.32 339.521 210.079 339.766 209.766L340.696 210.667C340.525 210.916 340.303 211.155 340.029 211.385C339.756 211.609 339.421 211.792 339.026 211.934C338.635 212.076 338.181 212.146 337.664 212.146ZM345.845 204.075V205.364H341.377V204.075H345.845ZM342.666 202.134H344.431V209.81C344.431 210.054 344.465 210.242 344.534 210.374C344.607 210.501 344.707 210.586 344.834 210.63C344.961 210.674 345.11 210.696 345.281 210.696C345.403 210.696 345.52 210.689 345.632 210.674C345.745 210.66 345.835 210.645 345.903 210.63L345.911 211.978C345.764 212.022 345.593 212.061 345.398 212.095C345.208 212.129 344.988 212.146 344.739 212.146C344.333 212.146 343.975 212.076 343.662 211.934C343.35 211.788 343.105 211.551 342.93 211.224C342.754 210.896 342.666 210.462 342.666 209.92V202.134ZM351.653 209.854C351.653 209.678 351.609 209.52 351.521 209.378C351.433 209.231 351.265 209.1 351.016 208.982C350.771 208.865 350.41 208.758 349.932 208.66C349.512 208.567 349.126 208.458 348.774 208.331C348.428 208.199 348.13 208.04 347.881 207.854C347.632 207.669 347.439 207.449 347.302 207.195C347.166 206.941 347.097 206.648 347.097 206.316C347.097 205.994 347.168 205.689 347.31 205.401C347.451 205.113 347.654 204.859 347.917 204.639C348.181 204.419 348.501 204.246 348.877 204.119C349.258 203.992 349.683 203.929 350.151 203.929C350.815 203.929 351.384 204.041 351.858 204.266C352.336 204.485 352.703 204.786 352.957 205.167C353.21 205.542 353.337 205.967 353.337 206.441H351.572C351.572 206.231 351.519 206.036 351.411 205.855C351.309 205.669 351.152 205.521 350.942 205.408C350.732 205.291 350.469 205.232 350.151 205.232C349.849 205.232 349.597 205.281 349.397 205.379C349.202 205.472 349.055 205.594 348.958 205.745C348.865 205.896 348.818 206.062 348.818 206.243C348.818 206.375 348.843 206.495 348.892 206.602C348.945 206.705 349.033 206.8 349.155 206.888C349.277 206.971 349.443 207.049 349.653 207.122C349.868 207.195 350.137 207.266 350.459 207.334C351.064 207.461 351.584 207.625 352.019 207.825C352.458 208.021 352.795 208.274 353.03 208.587C353.264 208.895 353.381 209.285 353.381 209.759C353.381 210.11 353.306 210.433 353.154 210.726C353.008 211.014 352.793 211.265 352.51 211.48C352.227 211.69 351.887 211.854 351.492 211.971C351.101 212.088 350.662 212.146 350.173 212.146C349.456 212.146 348.848 212.02 348.35 211.766C347.852 211.507 347.473 211.177 347.214 210.777C346.96 210.372 346.833 209.952 346.833 209.517H348.54C348.56 209.844 348.65 210.105 348.811 210.301C348.977 210.491 349.182 210.63 349.426 210.718C349.675 210.801 349.932 210.843 350.195 210.843C350.513 210.843 350.779 210.801 350.994 210.718C351.208 210.63 351.372 210.513 351.484 210.367C351.597 210.215 351.653 210.044 351.653 209.854Z" fill="#4C4C4C"/>
<path d="M224.182 264H221.904L221.919 262.542H224.182C224.841 262.542 225.393 262.398 225.837 262.11C226.287 261.822 226.624 261.41 226.848 260.873C227.078 260.335 227.192 259.696 227.192 258.954V258.375C227.192 257.799 227.126 257.289 226.995 256.844C226.868 256.4 226.677 256.026 226.423 255.724C226.174 255.421 225.867 255.191 225.5 255.035C225.139 254.879 224.722 254.801 224.248 254.801H221.86V253.336H224.248C224.956 253.336 225.603 253.456 226.189 253.695C226.775 253.929 227.28 254.269 227.705 254.713C228.135 255.157 228.464 255.689 228.694 256.31C228.923 256.93 229.038 257.623 229.038 258.39V258.954C229.038 259.72 228.923 260.414 228.694 261.034C228.464 261.654 228.135 262.186 227.705 262.63C227.275 263.07 226.763 263.409 226.167 263.648C225.576 263.883 224.915 264 224.182 264ZM222.922 253.336V264H221.084V253.336H222.922ZM235.176 262.411V258.631C235.176 258.348 235.125 258.104 235.022 257.899C234.919 257.694 234.763 257.535 234.553 257.423C234.348 257.311 234.089 257.254 233.777 257.254C233.489 257.254 233.24 257.303 233.03 257.401C232.82 257.499 232.656 257.63 232.539 257.796C232.422 257.962 232.363 258.15 232.363 258.36H230.605C230.605 258.048 230.681 257.745 230.833 257.452C230.984 257.159 231.204 256.898 231.492 256.668C231.78 256.439 232.124 256.258 232.524 256.126C232.925 255.995 233.374 255.929 233.872 255.929C234.468 255.929 234.995 256.029 235.454 256.229C235.918 256.429 236.282 256.732 236.545 257.137C236.814 257.538 236.948 258.041 236.948 258.646V262.169C236.948 262.53 236.973 262.855 237.021 263.143C237.075 263.426 237.151 263.673 237.249 263.883V264H235.439C235.356 263.81 235.291 263.568 235.242 263.275C235.198 262.977 235.176 262.689 235.176 262.411ZM235.432 259.181L235.447 260.272H234.18C233.853 260.272 233.564 260.304 233.315 260.367C233.066 260.426 232.859 260.514 232.693 260.631C232.527 260.748 232.402 260.89 232.319 261.056C232.236 261.222 232.195 261.41 232.195 261.62C232.195 261.83 232.244 262.022 232.341 262.198C232.439 262.369 232.581 262.503 232.766 262.601C232.957 262.699 233.186 262.748 233.455 262.748C233.816 262.748 234.131 262.674 234.399 262.528C234.673 262.376 234.888 262.193 235.044 261.979C235.2 261.759 235.283 261.551 235.293 261.356L235.864 262.14C235.806 262.34 235.706 262.555 235.564 262.784C235.422 263.014 235.237 263.233 235.007 263.443C234.783 263.648 234.512 263.817 234.194 263.949C233.882 264.081 233.521 264.146 233.11 264.146C232.593 264.146 232.131 264.044 231.726 263.839C231.321 263.629 231.003 263.348 230.774 262.997C230.544 262.64 230.43 262.237 230.43 261.788C230.43 261.368 230.508 260.997 230.664 260.675C230.825 260.348 231.06 260.074 231.367 259.854C231.68 259.635 232.061 259.469 232.51 259.356C232.959 259.239 233.472 259.181 234.048 259.181H235.432ZM242.427 256.075V257.364H237.959V256.075H242.427ZM239.248 254.134H241.013V261.81C241.013 262.054 241.047 262.242 241.116 262.374C241.189 262.501 241.289 262.586 241.416 262.63C241.543 262.674 241.692 262.696 241.863 262.696C241.985 262.696 242.102 262.689 242.214 262.674C242.327 262.66 242.417 262.645 242.485 262.63L242.493 263.978C242.346 264.022 242.175 264.061 241.98 264.095C241.79 264.129 241.57 264.146 241.321 264.146C240.916 264.146 240.557 264.076 240.244 263.934C239.932 263.788 239.688 263.551 239.512 263.224C239.336 262.896 239.248 262.462 239.248 261.92V254.134ZM248.257 262.411V258.631C248.257 258.348 248.206 258.104 248.103 257.899C248 257.694 247.844 257.535 247.634 257.423C247.429 257.311 247.17 257.254 246.858 257.254C246.57 257.254 246.321 257.303 246.111 257.401C245.901 257.499 245.737 257.63 245.62 257.796C245.503 257.962 245.444 258.15 245.444 258.36H243.687C243.687 258.048 243.762 257.745 243.914 257.452C244.065 257.159 244.285 256.898 244.573 256.668C244.861 256.439 245.205 256.258 245.605 256.126C246.006 255.995 246.455 255.929 246.953 255.929C247.549 255.929 248.076 256.029 248.535 256.229C248.999 256.429 249.363 256.732 249.626 257.137C249.895 257.538 250.029 258.041 250.029 258.646V262.169C250.029 262.53 250.054 262.855 250.103 263.143C250.156 263.426 250.232 263.673 250.33 263.883V264H248.521C248.438 263.81 248.372 263.568 248.323 263.275C248.279 262.977 248.257 262.689 248.257 262.411ZM248.513 259.181L248.528 260.272H247.261C246.934 260.272 246.646 260.304 246.396 260.367C246.147 260.426 245.94 260.514 245.774 260.631C245.608 260.748 245.483 260.89 245.4 261.056C245.317 261.222 245.276 261.41 245.276 261.62C245.276 261.83 245.325 262.022 245.422 262.198C245.52 262.369 245.662 262.503 245.847 262.601C246.038 262.699 246.267 262.748 246.536 262.748C246.897 262.748 247.212 262.674 247.48 262.528C247.754 262.376 247.969 262.193 248.125 261.979C248.281 261.759 248.364 261.551 248.374 261.356L248.945 262.14C248.887 262.34 248.787 262.555 248.645 262.784C248.503 263.014 248.318 263.233 248.088 263.443C247.864 263.648 247.593 263.817 247.275 263.949C246.963 264.081 246.602 264.146 246.191 264.146C245.674 264.146 245.212 264.044 244.807 263.839C244.402 263.629 244.084 263.348 243.855 262.997C243.625 262.64 243.511 262.237 243.511 261.788C243.511 261.368 243.589 260.997 243.745 260.675C243.906 260.348 244.141 260.074 244.448 259.854C244.761 259.635 245.142 259.469 245.591 259.356C246.04 259.239 246.553 259.181 247.129 259.181H248.513Z" fill="#4C4C4C"/>
<path d="M227.383 312.528H229.214C229.155 313.227 228.96 313.849 228.628 314.396C228.296 314.938 227.83 315.365 227.229 315.678C226.628 315.99 225.898 316.146 225.039 316.146C224.38 316.146 223.787 316.029 223.259 315.795C222.732 315.556 222.28 315.219 221.904 314.784C221.528 314.345 221.24 313.815 221.04 313.195C220.845 312.575 220.747 311.881 220.747 311.115V310.229C220.747 309.462 220.847 308.769 221.047 308.148C221.252 307.528 221.545 306.999 221.926 306.559C222.307 306.115 222.764 305.775 223.296 305.541C223.833 305.307 224.436 305.189 225.105 305.189C225.955 305.189 226.672 305.346 227.258 305.658C227.844 305.971 228.298 306.403 228.621 306.955C228.948 307.506 229.148 308.139 229.221 308.852H227.39C227.341 308.393 227.234 308 227.068 307.672C226.907 307.345 226.667 307.096 226.35 306.925C226.033 306.75 225.618 306.662 225.105 306.662C224.685 306.662 224.319 306.74 224.006 306.896C223.694 307.052 223.433 307.282 223.223 307.584C223.013 307.887 222.854 308.261 222.747 308.705C222.644 309.145 222.593 309.647 222.593 310.214V311.115C222.593 311.652 222.639 312.14 222.732 312.58C222.83 313.014 222.976 313.388 223.171 313.7C223.372 314.013 223.625 314.254 223.933 314.425C224.241 314.596 224.609 314.682 225.039 314.682C225.562 314.682 225.984 314.599 226.306 314.433C226.633 314.267 226.88 314.025 227.046 313.708C227.217 313.385 227.329 312.992 227.383 312.528ZM235.037 306.757L231.851 316H229.924L233.938 305.336H235.168L235.037 306.757ZM237.703 316L234.509 306.757L234.37 305.336H235.608L239.636 316H237.703ZM237.549 312.045V313.502H231.748V312.045H237.549ZM244.88 312.023H242.104V310.565H244.88C245.364 310.565 245.754 310.487 246.052 310.331C246.35 310.175 246.567 309.96 246.704 309.687C246.846 309.408 246.917 309.091 246.917 308.734C246.917 308.397 246.846 308.083 246.704 307.79C246.567 307.492 246.35 307.252 246.052 307.072C245.754 306.891 245.364 306.801 244.88 306.801H242.668V316H240.83V305.336H244.88C245.706 305.336 246.406 305.482 246.982 305.775C247.563 306.063 248.005 306.464 248.308 306.977C248.611 307.484 248.762 308.065 248.762 308.72C248.762 309.408 248.611 309.999 248.308 310.492C248.005 310.985 247.563 311.364 246.982 311.627C246.406 311.891 245.706 312.023 244.88 312.023ZM254.797 305.336V316H252.974V305.336H254.797ZM258.145 305.336V306.801H249.656V305.336H258.145ZM265.645 312.528H267.476C267.417 313.227 267.222 313.849 266.89 314.396C266.558 314.938 266.091 315.365 265.491 315.678C264.89 315.99 264.16 316.146 263.301 316.146C262.642 316.146 262.048 316.029 261.521 315.795C260.994 315.556 260.542 315.219 260.166 314.784C259.79 314.345 259.502 313.815 259.302 313.195C259.106 312.575 259.009 311.881 259.009 311.115V310.229C259.009 309.462 259.109 308.769 259.309 308.148C259.514 307.528 259.807 306.999 260.188 306.559C260.569 306.115 261.025 305.775 261.558 305.541C262.095 305.307 262.698 305.189 263.367 305.189C264.216 305.189 264.934 305.346 265.52 305.658C266.106 305.971 266.56 306.403 266.882 306.955C267.209 307.506 267.41 308.139 267.483 308.852H265.652C265.603 308.393 265.496 308 265.33 307.672C265.168 307.345 264.929 307.096 264.612 306.925C264.294 306.75 263.879 306.662 263.367 306.662C262.947 306.662 262.581 306.74 262.268 306.896C261.956 307.052 261.694 307.282 261.484 307.584C261.274 307.887 261.116 308.261 261.008 308.705C260.906 309.145 260.854 309.647 260.854 310.214V311.115C260.854 311.652 260.901 312.14 260.994 312.58C261.091 313.014 261.238 313.388 261.433 313.7C261.633 314.013 261.887 314.254 262.195 314.425C262.502 314.596 262.871 314.682 263.301 314.682C263.823 314.682 264.246 314.599 264.568 314.433C264.895 314.267 265.142 314.025 265.308 313.708C265.479 313.385 265.591 312.992 265.645 312.528ZM276.191 309.789V311.247H270.53V309.789H276.191ZM270.984 305.336V316H269.146V305.336H270.984ZM277.605 305.336V316H275.774V305.336H277.605ZM284.08 306.757L280.894 316H278.967L282.981 305.336H284.211L284.08 306.757ZM286.746 316L283.552 306.757L283.413 305.336H284.651L288.679 316H286.746ZM286.592 312.045V313.502H280.791V312.045H286.592Z" fill="#4C4C4C"/>
<path d="M223.047 357.336V368H221.208V357.336H223.047ZM226.921 361.687V368H225.156V360.075H226.819L226.921 361.687ZM226.636 363.745L226.035 363.737C226.035 363.19 226.104 362.685 226.24 362.221C226.377 361.757 226.577 361.354 226.841 361.013C227.104 360.666 227.432 360.4 227.822 360.214C228.218 360.024 228.674 359.929 229.192 359.929C229.553 359.929 229.883 359.982 230.181 360.09C230.483 360.192 230.745 360.356 230.964 360.581C231.189 360.805 231.36 361.093 231.477 361.445C231.599 361.796 231.66 362.221 231.66 362.719V368H229.895V362.873C229.895 362.487 229.836 362.185 229.719 361.965C229.607 361.745 229.443 361.589 229.229 361.496C229.019 361.398 228.767 361.35 228.474 361.35C228.142 361.35 227.859 361.413 227.625 361.54C227.395 361.667 227.207 361.84 227.061 362.06C226.914 362.28 226.807 362.534 226.738 362.822C226.67 363.11 226.636 363.417 226.636 363.745ZM231.55 363.276L230.723 363.459C230.723 362.98 230.789 362.529 230.92 362.104C231.057 361.674 231.255 361.298 231.514 360.976C231.777 360.649 232.102 360.393 232.488 360.207C232.874 360.021 233.315 359.929 233.813 359.929C234.219 359.929 234.58 359.985 234.897 360.097C235.22 360.205 235.493 360.375 235.718 360.61C235.942 360.844 236.113 361.149 236.23 361.525C236.348 361.896 236.406 362.346 236.406 362.873V368H234.634V362.866C234.634 362.465 234.575 362.155 234.458 361.936C234.346 361.716 234.185 361.564 233.975 361.481C233.765 361.394 233.513 361.35 233.22 361.35C232.947 361.35 232.705 361.401 232.495 361.503C232.29 361.601 232.117 361.74 231.975 361.921C231.833 362.097 231.726 362.299 231.653 362.529C231.584 362.758 231.55 363.007 231.55 363.276ZM239.995 361.599V371.047H238.23V360.075H239.856L239.995 361.599ZM245.159 363.964V364.118C245.159 364.694 245.09 365.229 244.954 365.722C244.822 366.21 244.624 366.638 244.36 367.004C244.102 367.365 243.782 367.646 243.401 367.846C243.02 368.046 242.581 368.146 242.083 368.146C241.589 368.146 241.157 368.056 240.786 367.875C240.42 367.69 240.11 367.429 239.856 367.092C239.602 366.755 239.397 366.359 239.241 365.905C239.089 365.446 238.982 364.943 238.918 364.396V363.803C238.982 363.222 239.089 362.695 239.241 362.221C239.397 361.748 239.602 361.34 239.856 360.998C240.11 360.656 240.42 360.393 240.786 360.207C241.152 360.021 241.58 359.929 242.068 359.929C242.566 359.929 243.008 360.026 243.394 360.222C243.779 360.412 244.104 360.686 244.368 361.042C244.631 361.394 244.829 361.818 244.961 362.316C245.093 362.81 245.159 363.359 245.159 363.964ZM243.394 364.118V363.964C243.394 363.598 243.359 363.259 243.291 362.946C243.223 362.629 243.115 362.351 242.969 362.111C242.822 361.872 242.634 361.687 242.405 361.555C242.18 361.418 241.909 361.35 241.592 361.35C241.279 361.35 241.011 361.403 240.786 361.511C240.562 361.613 240.374 361.757 240.222 361.943C240.071 362.128 239.954 362.346 239.871 362.595C239.788 362.839 239.729 363.105 239.695 363.393V364.814C239.753 365.166 239.854 365.488 239.995 365.781C240.137 366.074 240.337 366.308 240.596 366.484C240.859 366.655 241.196 366.74 241.606 366.74C241.924 366.74 242.195 366.672 242.419 366.535C242.644 366.398 242.827 366.21 242.969 365.971C243.115 365.727 243.223 365.446 243.291 365.129C243.359 364.812 243.394 364.475 243.394 364.118ZM246.323 364.125V363.957C246.323 363.386 246.406 362.856 246.572 362.368C246.738 361.875 246.978 361.447 247.29 361.086C247.607 360.72 247.993 360.437 248.447 360.236C248.906 360.031 249.424 359.929 250 359.929C250.581 359.929 251.099 360.031 251.553 360.236C252.012 360.437 252.4 360.72 252.717 361.086C253.035 361.447 253.276 361.875 253.442 362.368C253.608 362.856 253.691 363.386 253.691 363.957V364.125C253.691 364.697 253.608 365.227 253.442 365.715C253.276 366.203 253.035 366.63 252.717 366.997C252.4 367.358 252.014 367.641 251.56 367.846C251.106 368.046 250.591 368.146 250.015 368.146C249.434 368.146 248.914 368.046 248.455 367.846C248 367.641 247.615 367.358 247.297 366.997C246.98 366.63 246.738 366.203 246.572 365.715C246.406 365.227 246.323 364.697 246.323 364.125ZM248.088 363.957V364.125C248.088 364.482 248.125 364.819 248.198 365.136C248.271 365.454 248.386 365.732 248.542 365.971C248.699 366.21 248.899 366.398 249.143 366.535C249.387 366.672 249.678 366.74 250.015 366.74C250.342 366.74 250.625 366.672 250.864 366.535C251.108 366.398 251.309 366.21 251.465 365.971C251.621 365.732 251.736 365.454 251.809 365.136C251.887 364.819 251.926 364.482 251.926 364.125V363.957C251.926 363.605 251.887 363.273 251.809 362.961C251.736 362.644 251.619 362.363 251.458 362.119C251.301 361.875 251.101 361.684 250.857 361.547C250.618 361.406 250.332 361.335 250 361.335C249.668 361.335 249.38 361.406 249.136 361.547C248.896 361.684 248.699 361.875 248.542 362.119C248.386 362.363 248.271 362.644 248.198 362.961C248.125 363.273 248.088 363.605 248.088 363.957ZM256.943 361.584V368H255.178V360.075H256.863L256.943 361.584ZM259.368 360.024L259.353 361.665C259.246 361.645 259.128 361.63 259.001 361.621C258.879 361.611 258.757 361.606 258.635 361.606C258.333 361.606 258.066 361.65 257.837 361.738C257.607 361.821 257.415 361.943 257.258 362.104C257.107 362.26 256.99 362.451 256.907 362.675C256.824 362.9 256.775 363.151 256.76 363.43L256.357 363.459C256.357 362.961 256.406 362.5 256.504 362.075C256.602 361.65 256.748 361.276 256.943 360.954C257.144 360.632 257.393 360.38 257.69 360.2C257.993 360.019 258.342 359.929 258.738 359.929C258.845 359.929 258.96 359.938 259.082 359.958C259.209 359.978 259.304 360 259.368 360.024ZM264.473 360.075V361.364H260.005V360.075H264.473ZM261.294 358.134H263.059V365.81C263.059 366.054 263.093 366.242 263.162 366.374C263.235 366.501 263.335 366.586 263.462 366.63C263.589 366.674 263.738 366.696 263.909 366.696C264.031 366.696 264.148 366.689 264.26 366.674C264.373 366.66 264.463 366.645 264.531 366.63L264.539 367.978C264.392 368.022 264.221 368.061 264.026 368.095C263.835 368.129 263.616 368.146 263.367 368.146C262.961 368.146 262.603 368.076 262.29 367.934C261.978 367.788 261.733 367.551 261.558 367.224C261.382 366.896 261.294 366.462 261.294 365.92V358.134Z" fill="#4C4C4C"/>
<path d="M226.694 417.253C226.694 417.034 226.66 416.838 226.592 416.667C226.528 416.497 226.414 416.34 226.248 416.199C226.082 416.057 225.847 415.92 225.544 415.789C225.247 415.652 224.866 415.513 224.402 415.371C223.894 415.215 223.425 415.042 222.996 414.851C222.571 414.656 222.2 414.431 221.882 414.177C221.565 413.918 221.318 413.623 221.143 413.291C220.967 412.954 220.879 412.566 220.879 412.126C220.879 411.692 220.969 411.296 221.15 410.94C221.335 410.583 221.597 410.276 221.934 410.017C222.275 409.753 222.678 409.551 223.142 409.409C223.606 409.263 224.119 409.189 224.68 409.189C225.471 409.189 226.152 409.336 226.724 409.629C227.3 409.922 227.742 410.315 228.049 410.808C228.362 411.301 228.518 411.846 228.518 412.441H226.694C226.694 412.09 226.619 411.78 226.467 411.511C226.321 411.238 226.096 411.023 225.793 410.867C225.496 410.71 225.117 410.632 224.658 410.632C224.224 410.632 223.862 410.698 223.574 410.83C223.286 410.962 223.071 411.14 222.93 411.365C222.788 411.589 222.717 411.843 222.717 412.126C222.717 412.327 222.764 412.51 222.856 412.676C222.949 412.837 223.091 412.988 223.281 413.13C223.472 413.267 223.711 413.396 223.999 413.518C224.287 413.64 224.626 413.757 225.017 413.87C225.608 414.045 226.123 414.241 226.562 414.456C227.002 414.666 227.368 414.905 227.661 415.173C227.954 415.442 228.174 415.747 228.32 416.089C228.467 416.426 228.54 416.809 228.54 417.239C228.54 417.688 228.45 418.093 228.269 418.455C228.088 418.811 227.83 419.116 227.493 419.37C227.161 419.619 226.76 419.812 226.292 419.949C225.828 420.081 225.31 420.146 224.739 420.146C224.226 420.146 223.721 420.078 223.223 419.941C222.729 419.805 222.28 419.597 221.875 419.319C221.47 419.036 221.147 418.684 220.908 418.264C220.669 417.839 220.549 417.344 220.549 416.777H222.388C222.388 417.124 222.446 417.419 222.563 417.664C222.686 417.908 222.854 418.108 223.069 418.264C223.284 418.416 223.533 418.528 223.816 418.601C224.104 418.674 224.412 418.711 224.739 418.711C225.168 418.711 225.527 418.65 225.815 418.528C226.108 418.406 226.328 418.235 226.475 418.015C226.621 417.795 226.694 417.542 226.694 417.253ZM234.758 418.132V412.075H236.531V420H234.861L234.758 418.132ZM235.007 416.484L235.601 416.47C235.601 417.002 235.542 417.493 235.425 417.942C235.308 418.386 235.127 418.774 234.883 419.106C234.639 419.434 234.326 419.69 233.945 419.875C233.564 420.056 233.108 420.146 232.576 420.146C232.19 420.146 231.836 420.09 231.514 419.978C231.191 419.866 230.913 419.692 230.679 419.458C230.449 419.224 230.271 418.918 230.144 418.542C230.017 418.167 229.954 417.717 229.954 417.195V412.075H231.719V417.209C231.719 417.498 231.753 417.739 231.821 417.935C231.89 418.125 231.982 418.279 232.1 418.396C232.217 418.513 232.354 418.596 232.51 418.645C232.666 418.694 232.832 418.718 233.008 418.718C233.511 418.718 233.906 418.621 234.194 418.425C234.487 418.225 234.695 417.957 234.817 417.62C234.944 417.283 235.007 416.904 235.007 416.484ZM238.347 408.75H240.112V418.308L239.944 420H238.347V408.75ZM245.283 415.964V416.118C245.283 416.704 245.217 417.244 245.085 417.737C244.958 418.225 244.763 418.65 244.5 419.011C244.241 419.373 243.918 419.653 243.533 419.854C243.152 420.049 242.71 420.146 242.207 420.146C241.714 420.146 241.284 420.054 240.918 419.868C240.552 419.683 240.244 419.419 239.995 419.077C239.751 418.735 239.553 418.328 239.402 417.854C239.25 417.38 239.143 416.858 239.08 416.287V415.796C239.143 415.22 239.25 414.697 239.402 414.229C239.553 413.755 239.751 413.347 239.995 413.005C240.244 412.659 240.549 412.393 240.911 412.207C241.277 412.021 241.704 411.929 242.192 411.929C242.7 411.929 243.147 412.026 243.533 412.222C243.923 412.417 244.248 412.695 244.507 413.057C244.766 413.413 244.958 413.838 245.085 414.331C245.217 414.824 245.283 415.369 245.283 415.964ZM243.518 416.118V415.964C243.518 415.608 243.489 415.273 243.43 414.961C243.372 414.644 243.274 414.365 243.137 414.126C243.005 413.887 242.825 413.699 242.595 413.562C242.371 413.42 242.09 413.35 241.753 413.35C241.44 413.35 241.172 413.403 240.947 413.511C240.723 413.618 240.535 413.765 240.383 413.95C240.232 414.136 240.112 414.351 240.024 414.595C239.941 414.839 239.885 415.103 239.856 415.386V416.711C239.9 417.078 239.993 417.415 240.134 417.722C240.281 418.025 240.486 418.269 240.75 418.455C241.013 418.635 241.353 418.726 241.768 418.726C242.095 418.726 242.371 418.66 242.595 418.528C242.82 418.396 242.998 418.213 243.13 417.979C243.267 417.739 243.364 417.461 243.423 417.144C243.486 416.826 243.518 416.484 243.518 416.118ZM248.542 413.687V420H246.777V412.075H248.44L248.542 413.687ZM248.257 415.745L247.656 415.737C247.656 415.19 247.725 414.685 247.861 414.221C247.998 413.757 248.198 413.354 248.462 413.013C248.726 412.666 249.053 412.4 249.443 412.214C249.839 412.024 250.295 411.929 250.813 411.929C251.174 411.929 251.504 411.982 251.802 412.09C252.104 412.192 252.366 412.356 252.585 412.581C252.81 412.805 252.981 413.093 253.098 413.445C253.22 413.796 253.281 414.221 253.281 414.719V420H251.516V414.873C251.516 414.487 251.458 414.185 251.34 413.965C251.228 413.745 251.064 413.589 250.85 413.496C250.64 413.398 250.388 413.35 250.095 413.35C249.763 413.35 249.48 413.413 249.246 413.54C249.016 413.667 248.828 413.84 248.682 414.06C248.535 414.28 248.428 414.534 248.359 414.822C248.291 415.11 248.257 415.417 248.257 415.745ZM253.171 415.276L252.344 415.459C252.344 414.98 252.41 414.529 252.542 414.104C252.678 413.674 252.876 413.298 253.135 412.976C253.398 412.649 253.723 412.393 254.109 412.207C254.495 412.021 254.937 411.929 255.435 411.929C255.84 411.929 256.201 411.985 256.519 412.097C256.841 412.205 257.114 412.375 257.339 412.61C257.563 412.844 257.734 413.149 257.852 413.525C257.969 413.896 258.027 414.346 258.027 414.873V420H256.255V414.866C256.255 414.465 256.196 414.155 256.079 413.936C255.967 413.716 255.806 413.564 255.596 413.481C255.386 413.394 255.134 413.35 254.841 413.35C254.568 413.35 254.326 413.401 254.116 413.503C253.911 413.601 253.738 413.74 253.596 413.921C253.455 414.097 253.347 414.299 253.274 414.529C253.206 414.758 253.171 415.007 253.171 415.276ZM261.733 412.075V420H259.961V412.075H261.733ZM259.844 409.995C259.844 409.727 259.932 409.504 260.107 409.329C260.288 409.148 260.537 409.058 260.854 409.058C261.167 409.058 261.414 409.148 261.594 409.329C261.775 409.504 261.865 409.727 261.865 409.995C261.865 410.259 261.775 410.479 261.594 410.654C261.414 410.83 261.167 410.918 260.854 410.918C260.537 410.918 260.288 410.83 260.107 410.654C259.932 410.479 259.844 410.259 259.844 409.995ZM268.113 417.854C268.113 417.678 268.069 417.52 267.981 417.378C267.893 417.231 267.725 417.1 267.476 416.982C267.231 416.865 266.87 416.758 266.392 416.66C265.972 416.567 265.586 416.458 265.234 416.331C264.888 416.199 264.59 416.04 264.341 415.854C264.092 415.669 263.899 415.449 263.762 415.195C263.625 414.941 263.557 414.648 263.557 414.316C263.557 413.994 263.628 413.689 263.77 413.401C263.911 413.113 264.114 412.859 264.377 412.639C264.641 412.419 264.961 412.246 265.337 412.119C265.718 411.992 266.143 411.929 266.611 411.929C267.275 411.929 267.844 412.041 268.318 412.266C268.796 412.485 269.163 412.786 269.417 413.167C269.67 413.542 269.797 413.967 269.797 414.441H268.032C268.032 414.231 267.979 414.036 267.871 413.855C267.769 413.669 267.612 413.521 267.402 413.408C267.192 413.291 266.929 413.232 266.611 413.232C266.309 413.232 266.057 413.281 265.857 413.379C265.662 413.472 265.515 413.594 265.417 413.745C265.325 413.896 265.278 414.062 265.278 414.243C265.278 414.375 265.303 414.495 265.352 414.602C265.405 414.705 265.493 414.8 265.615 414.888C265.737 414.971 265.903 415.049 266.113 415.122C266.328 415.195 266.597 415.266 266.919 415.334C267.524 415.461 268.044 415.625 268.479 415.825C268.918 416.021 269.255 416.274 269.49 416.587C269.724 416.895 269.841 417.285 269.841 417.759C269.841 418.11 269.766 418.433 269.614 418.726C269.468 419.014 269.253 419.265 268.97 419.48C268.687 419.69 268.347 419.854 267.952 419.971C267.561 420.088 267.122 420.146 266.633 420.146C265.916 420.146 265.308 420.02 264.81 419.766C264.312 419.507 263.933 419.177 263.674 418.777C263.42 418.372 263.293 417.952 263.293 417.517H265C265.02 417.844 265.11 418.105 265.271 418.301C265.437 418.491 265.642 418.63 265.886 418.718C266.135 418.801 266.392 418.843 266.655 418.843C266.973 418.843 267.239 418.801 267.454 418.718C267.668 418.63 267.832 418.513 267.944 418.367C268.057 418.215 268.113 418.044 268.113 417.854ZM275.833 417.854C275.833 417.678 275.789 417.52 275.701 417.378C275.613 417.231 275.444 417.1 275.195 416.982C274.951 416.865 274.59 416.758 274.111 416.66C273.691 416.567 273.306 416.458 272.954 416.331C272.607 416.199 272.31 416.04 272.061 415.854C271.812 415.669 271.619 415.449 271.482 415.195C271.345 414.941 271.277 414.648 271.277 414.316C271.277 413.994 271.348 413.689 271.489 413.401C271.631 413.113 271.833 412.859 272.097 412.639C272.361 412.419 272.681 412.246 273.057 412.119C273.438 411.992 273.862 411.929 274.331 411.929C274.995 411.929 275.564 412.041 276.038 412.266C276.516 412.485 276.882 412.786 277.136 413.167C277.39 413.542 277.517 413.967 277.517 414.441H275.752C275.752 414.231 275.698 414.036 275.591 413.855C275.488 413.669 275.332 413.521 275.122 413.408C274.912 413.291 274.648 413.232 274.331 413.232C274.028 413.232 273.777 413.281 273.577 413.379C273.381 413.472 273.235 413.594 273.137 413.745C273.044 413.896 272.998 414.062 272.998 414.243C272.998 414.375 273.022 414.495 273.071 414.602C273.125 414.705 273.213 414.8 273.335 414.888C273.457 414.971 273.623 415.049 273.833 415.122C274.048 415.195 274.316 415.266 274.639 415.334C275.244 415.461 275.764 415.625 276.199 415.825C276.638 416.021 276.975 416.274 277.209 416.587C277.444 416.895 277.561 417.285 277.561 417.759C277.561 418.11 277.485 418.433 277.334 418.726C277.188 419.014 276.973 419.265 276.689 419.48C276.406 419.69 276.067 419.854 275.671 419.971C275.281 420.088 274.841 420.146 274.353 420.146C273.635 420.146 273.027 420.02 272.529 419.766C272.031 419.507 271.653 419.177 271.394 418.777C271.14 418.372 271.013 417.952 271.013 417.517H272.72C272.739 417.844 272.83 418.105 272.991 418.301C273.157 418.491 273.362 418.63 273.606 418.718C273.855 418.801 274.111 418.843 274.375 418.843C274.692 418.843 274.958 418.801 275.173 418.718C275.388 418.63 275.552 418.513 275.664 418.367C275.776 418.215 275.833 418.044 275.833 417.854ZM280.996 412.075V420H279.224V412.075H280.996ZM279.106 409.995C279.106 409.727 279.194 409.504 279.37 409.329C279.551 409.148 279.8 409.058 280.117 409.058C280.43 409.058 280.676 409.148 280.857 409.329C281.038 409.504 281.128 409.727 281.128 409.995C281.128 410.259 281.038 410.479 280.857 410.654C280.676 410.83 280.43 410.918 280.117 410.918C279.8 410.918 279.551 410.83 279.37 410.654C279.194 410.479 279.106 410.259 279.106 409.995ZM282.593 416.125V415.957C282.593 415.386 282.676 414.856 282.842 414.368C283.008 413.875 283.247 413.447 283.56 413.086C283.877 412.72 284.263 412.437 284.717 412.236C285.176 412.031 285.693 411.929 286.27 411.929C286.851 411.929 287.368 412.031 287.822 412.236C288.281 412.437 288.669 412.72 288.987 413.086C289.304 413.447 289.546 413.875 289.712 414.368C289.878 414.856 289.961 415.386 289.961 415.957V416.125C289.961 416.697 289.878 417.227 289.712 417.715C289.546 418.203 289.304 418.63 288.987 418.997C288.669 419.358 288.284 419.641 287.83 419.846C287.375 420.046 286.86 420.146 286.284 420.146C285.703 420.146 285.183 420.046 284.724 419.846C284.27 419.641 283.884 419.358 283.567 418.997C283.25 418.63 283.008 418.203 282.842 417.715C282.676 417.227 282.593 416.697 282.593 416.125ZM284.358 415.957V416.125C284.358 416.482 284.395 416.819 284.468 417.136C284.541 417.454 284.656 417.732 284.812 417.971C284.968 418.21 285.168 418.398 285.413 418.535C285.657 418.672 285.947 418.74 286.284 418.74C286.611 418.74 286.895 418.672 287.134 418.535C287.378 418.398 287.578 418.21 287.734 417.971C287.891 417.732 288.005 417.454 288.079 417.136C288.157 416.819 288.196 416.482 288.196 416.125V415.957C288.196 415.605 288.157 415.273 288.079 414.961C288.005 414.644 287.888 414.363 287.727 414.119C287.571 413.875 287.371 413.684 287.126 413.547C286.887 413.406 286.602 413.335 286.27 413.335C285.938 413.335 285.649 413.406 285.405 413.547C285.166 413.684 284.968 413.875 284.812 414.119C284.656 414.363 284.541 414.644 284.468 414.961C284.395 415.273 284.358 415.605 284.358 415.957ZM293.191 413.767V420H291.426V412.075H293.088L293.191 413.767ZM292.876 415.745L292.305 415.737C292.31 415.176 292.388 414.661 292.539 414.192C292.695 413.723 292.91 413.32 293.184 412.983C293.462 412.646 293.794 412.388 294.18 412.207C294.565 412.021 294.995 411.929 295.469 411.929C295.85 411.929 296.194 411.982 296.501 412.09C296.814 412.192 297.08 412.361 297.3 412.595C297.524 412.83 297.695 413.135 297.812 413.511C297.93 413.882 297.988 414.338 297.988 414.88V420H296.216V414.873C296.216 414.492 296.16 414.192 296.047 413.972C295.94 413.748 295.781 413.589 295.571 413.496C295.366 413.398 295.11 413.35 294.802 413.35C294.5 413.35 294.229 413.413 293.989 413.54C293.75 413.667 293.547 413.84 293.381 414.06C293.22 414.28 293.096 414.534 293.008 414.822C292.92 415.11 292.876 415.417 292.876 415.745Z" fill="#4C4C4C"/>
<path d="M225.134 468.023H222.358V466.565H225.134C225.618 466.565 226.008 466.487 226.306 466.331C226.604 466.175 226.821 465.96 226.958 465.687C227.1 465.408 227.17 465.091 227.17 464.734C227.17 464.397 227.1 464.083 226.958 463.79C226.821 463.492 226.604 463.252 226.306 463.072C226.008 462.891 225.618 462.801 225.134 462.801H222.922V472H221.084V461.336H225.134C225.959 461.336 226.66 461.482 227.236 461.775C227.817 462.063 228.259 462.464 228.562 462.977C228.865 463.484 229.016 464.065 229.016 464.72C229.016 465.408 228.865 465.999 228.562 466.492C228.259 466.985 227.817 467.364 227.236 467.627C226.66 467.891 225.959 468.023 225.134 468.023ZM234.868 470.411V466.631C234.868 466.348 234.817 466.104 234.714 465.899C234.612 465.694 234.456 465.535 234.246 465.423C234.041 465.311 233.782 465.254 233.469 465.254C233.181 465.254 232.932 465.303 232.722 465.401C232.512 465.499 232.349 465.63 232.231 465.796C232.114 465.962 232.056 466.15 232.056 466.36H230.298C230.298 466.048 230.374 465.745 230.525 465.452C230.676 465.159 230.896 464.898 231.184 464.668C231.472 464.439 231.816 464.258 232.217 464.126C232.617 463.995 233.066 463.929 233.564 463.929C234.16 463.929 234.688 464.029 235.146 464.229C235.61 464.429 235.974 464.732 236.238 465.137C236.506 465.538 236.641 466.041 236.641 466.646V470.169C236.641 470.53 236.665 470.855 236.714 471.143C236.768 471.426 236.843 471.673 236.941 471.883V472H235.132C235.049 471.81 234.983 471.568 234.934 471.275C234.89 470.977 234.868 470.689 234.868 470.411ZM235.125 467.181L235.139 468.272H233.872C233.545 468.272 233.257 468.304 233.008 468.367C232.759 468.426 232.551 468.514 232.385 468.631C232.219 468.748 232.095 468.89 232.012 469.056C231.929 469.222 231.887 469.41 231.887 469.62C231.887 469.83 231.936 470.022 232.034 470.198C232.131 470.369 232.273 470.503 232.458 470.601C232.649 470.699 232.878 470.748 233.147 470.748C233.508 470.748 233.823 470.674 234.092 470.528C234.365 470.376 234.58 470.193 234.736 469.979C234.893 469.759 234.976 469.551 234.985 469.356L235.557 470.14C235.498 470.34 235.398 470.555 235.256 470.784C235.115 471.014 234.929 471.233 234.7 471.443C234.475 471.648 234.204 471.817 233.887 471.949C233.574 472.081 233.213 472.146 232.803 472.146C232.285 472.146 231.824 472.044 231.418 471.839C231.013 471.629 230.696 471.348 230.466 470.997C230.237 470.64 230.122 470.237 230.122 469.788C230.122 469.368 230.2 468.997 230.356 468.675C230.518 468.348 230.752 468.074 231.06 467.854C231.372 467.635 231.753 467.469 232.202 467.356C232.651 467.239 233.164 467.181 233.74 467.181H235.125ZM240.669 471.136L242.822 464.075H244.712L241.533 473.208C241.46 473.404 241.365 473.616 241.248 473.846C241.13 474.075 240.977 474.292 240.786 474.498C240.601 474.708 240.369 474.876 240.09 475.003C239.812 475.135 239.475 475.201 239.08 475.201C238.923 475.201 238.772 475.186 238.625 475.157C238.484 475.132 238.35 475.105 238.223 475.076L238.215 473.729C238.264 473.733 238.323 473.738 238.391 473.743C238.464 473.748 238.523 473.75 238.567 473.75C238.86 473.75 239.104 473.714 239.299 473.641C239.495 473.572 239.653 473.46 239.775 473.304C239.902 473.147 240.01 472.938 240.098 472.674L240.669 471.136ZM239.453 464.075L241.335 470.008L241.65 471.868L240.427 472.183L237.549 464.075H239.453ZM247.488 465.687V472H245.723V464.075H247.385L247.488 465.687ZM247.202 467.745L246.602 467.737C246.602 467.19 246.67 466.685 246.807 466.221C246.943 465.757 247.144 465.354 247.407 465.013C247.671 464.666 247.998 464.4 248.389 464.214C248.784 464.024 249.241 463.929 249.758 463.929C250.12 463.929 250.449 463.982 250.747 464.09C251.05 464.192 251.311 464.356 251.531 464.581C251.755 464.805 251.926 465.093 252.043 465.445C252.166 465.796 252.227 466.221 252.227 466.719V472H250.461V466.873C250.461 466.487 250.403 466.185 250.286 465.965C250.173 465.745 250.01 465.589 249.795 465.496C249.585 465.398 249.333 465.35 249.041 465.35C248.708 465.35 248.425 465.413 248.191 465.54C247.961 465.667 247.773 465.84 247.627 466.06C247.48 466.28 247.373 466.534 247.305 466.822C247.236 467.11 247.202 467.417 247.202 467.745ZM252.117 467.276L251.289 467.459C251.289 466.98 251.355 466.529 251.487 466.104C251.624 465.674 251.821 465.298 252.08 464.976C252.344 464.649 252.668 464.393 253.054 464.207C253.44 464.021 253.882 463.929 254.38 463.929C254.785 463.929 255.146 463.985 255.464 464.097C255.786 464.205 256.06 464.375 256.284 464.61C256.509 464.844 256.68 465.149 256.797 465.525C256.914 465.896 256.973 466.346 256.973 466.873V472H255.2V466.866C255.2 466.465 255.142 466.155 255.024 465.936C254.912 465.716 254.751 465.564 254.541 465.481C254.331 465.394 254.08 465.35 253.787 465.35C253.513 465.35 253.271 465.401 253.062 465.503C252.856 465.601 252.683 465.74 252.542 465.921C252.4 466.097 252.292 466.299 252.219 466.529C252.151 466.758 252.117 467.007 252.117 467.276ZM262.283 472.146C261.697 472.146 261.167 472.051 260.693 471.861C260.225 471.666 259.824 471.395 259.492 471.048C259.165 470.701 258.914 470.293 258.738 469.825C258.562 469.356 258.474 468.851 258.474 468.309V468.016C258.474 467.396 258.564 466.834 258.745 466.331C258.926 465.828 259.177 465.398 259.5 465.042C259.822 464.681 260.203 464.405 260.642 464.214C261.082 464.024 261.558 463.929 262.07 463.929C262.637 463.929 263.132 464.024 263.557 464.214C263.982 464.405 264.333 464.673 264.612 465.02C264.895 465.362 265.105 465.77 265.242 466.243C265.383 466.717 265.454 467.239 265.454 467.811V468.565H259.331V467.298H263.711V467.159C263.701 466.841 263.638 466.543 263.521 466.265C263.408 465.987 263.235 465.762 263 465.591C262.766 465.42 262.454 465.335 262.063 465.335C261.77 465.335 261.509 465.398 261.279 465.525C261.055 465.647 260.867 465.826 260.715 466.06C260.564 466.294 260.447 466.578 260.364 466.91C260.286 467.237 260.247 467.605 260.247 468.016V468.309C260.247 468.655 260.293 468.978 260.386 469.275C260.483 469.568 260.625 469.825 260.811 470.044C260.996 470.264 261.221 470.438 261.484 470.564C261.748 470.687 262.048 470.748 262.385 470.748C262.81 470.748 263.188 470.662 263.521 470.491C263.853 470.32 264.141 470.079 264.385 469.766L265.315 470.667C265.144 470.916 264.922 471.155 264.648 471.385C264.375 471.609 264.041 471.792 263.645 471.934C263.254 472.076 262.8 472.146 262.283 472.146ZM268.582 465.767V472H266.816V464.075H268.479L268.582 465.767ZM268.267 467.745L267.695 467.737C267.7 467.176 267.778 466.661 267.93 466.192C268.086 465.723 268.301 465.32 268.574 464.983C268.853 464.646 269.185 464.388 269.57 464.207C269.956 464.021 270.386 463.929 270.859 463.929C271.24 463.929 271.584 463.982 271.892 464.09C272.205 464.192 272.471 464.361 272.69 464.595C272.915 464.83 273.086 465.135 273.203 465.511C273.32 465.882 273.379 466.338 273.379 466.88V472H271.606V466.873C271.606 466.492 271.55 466.192 271.438 465.972C271.331 465.748 271.172 465.589 270.962 465.496C270.757 465.398 270.5 465.35 270.193 465.35C269.89 465.35 269.619 465.413 269.38 465.54C269.141 465.667 268.938 465.84 268.772 466.06C268.611 466.28 268.486 466.534 268.398 466.822C268.311 467.11 268.267 467.417 268.267 467.745ZM278.813 464.075V465.364H274.346V464.075H278.813ZM275.635 462.134H277.4V469.81C277.4 470.054 277.434 470.242 277.502 470.374C277.576 470.501 277.676 470.586 277.803 470.63C277.93 470.674 278.079 470.696 278.25 470.696C278.372 470.696 278.489 470.689 278.601 470.674C278.713 470.66 278.804 470.645 278.872 470.63L278.879 471.978C278.733 472.022 278.562 472.061 278.367 472.095C278.176 472.129 277.957 472.146 277.708 472.146C277.302 472.146 276.943 472.076 276.631 471.934C276.318 471.788 276.074 471.551 275.898 471.224C275.723 470.896 275.635 470.462 275.635 469.92V462.134ZM284.622 469.854C284.622 469.678 284.578 469.52 284.49 469.378C284.402 469.231 284.233 469.1 283.984 468.982C283.74 468.865 283.379 468.758 282.9 468.66C282.48 468.567 282.095 468.458 281.743 468.331C281.396 468.199 281.099 468.04 280.85 467.854C280.601 467.669 280.408 467.449 280.271 467.195C280.134 466.941 280.066 466.648 280.066 466.316C280.066 465.994 280.137 465.689 280.278 465.401C280.42 465.113 280.623 464.859 280.886 464.639C281.15 464.419 281.47 464.246 281.846 464.119C282.227 463.992 282.651 463.929 283.12 463.929C283.784 463.929 284.353 464.041 284.827 464.266C285.305 464.485 285.671 464.786 285.925 465.167C286.179 465.542 286.306 465.967 286.306 466.441H284.541C284.541 466.231 284.487 466.036 284.38 465.855C284.277 465.669 284.121 465.521 283.911 465.408C283.701 465.291 283.438 465.232 283.12 465.232C282.817 465.232 282.566 465.281 282.366 465.379C282.17 465.472 282.024 465.594 281.926 465.745C281.833 465.896 281.787 466.062 281.787 466.243C281.787 466.375 281.812 466.495 281.86 466.602C281.914 466.705 282.002 466.8 282.124 466.888C282.246 466.971 282.412 467.049 282.622 467.122C282.837 467.195 283.105 467.266 283.428 467.334C284.033 467.461 284.553 467.625 284.988 467.825C285.427 468.021 285.764 468.274 285.999 468.587C286.233 468.895 286.35 469.285 286.35 469.759C286.35 470.11 286.274 470.433 286.123 470.726C285.977 471.014 285.762 471.265 285.479 471.48C285.195 471.69 284.856 471.854 284.46 471.971C284.07 472.088 283.63 472.146 283.142 472.146C282.424 472.146 281.816 472.02 281.318 471.766C280.82 471.507 280.442 471.177 280.183 470.777C279.929 470.372 279.802 469.952 279.802 469.517H281.509C281.528 469.844 281.619 470.105 281.78 470.301C281.946 470.491 282.151 470.63 282.395 470.718C282.644 470.801 282.9 470.843 283.164 470.843C283.481 470.843 283.748 470.801 283.962 470.718C284.177 470.63 284.341 470.513 284.453 470.367C284.565 470.215 284.622 470.044 284.622 469.854Z" fill="#4C4C4C"/>
<path d="M163.562 129.812V131.137H157.416L157.334 130.111L160.891 124.469H162.232L160.779 126.9L159.01 129.812H163.562ZM162.596 124.469V133H160.908V124.469H162.596Z" fill="#E52400"/>
<rect x="168" y="127" width="339" height="1" fill="#E52400"/>
<g opacity="0.2">
<rect width="339" height="2" transform="translate(168 128)" fill="#E52400"/>
</g>
<rect x="168" y="130" width="339" height="1" fill="#E52400"/>
<path d="M163.562 181.812V183.137H157.416L157.334 182.111L160.891 176.469H162.232L160.779 178.9L159.01 181.812H163.562ZM162.596 176.469V185H160.908V176.469H162.596Z" fill="#E52400"/>
<rect x="168" y="179" width="339" height="1" fill="#E52400"/>
<g opacity="0.2">
<rect width="339" height="2" transform="translate(168 180)" fill="#E52400"/>
</g>
<rect x="168" y="182" width="339" height="1" fill="#E52400"/>
<path d="M163.562 233.812V235.137H157.416L157.334 234.111L160.891 228.469H162.232L160.779 230.9L159.01 233.812H163.562ZM162.596 228.469V237H160.908V228.469H162.596Z" fill="#E52400"/>
<rect x="168" y="231" width="339" height="1" fill="#E52400"/>
<g opacity="0.2">
<rect width="339" height="2" transform="translate(168 232)" fill="#E52400"/>
</g>
<rect x="168" y="234" width="339" height="1" fill="#E52400"/>
<path d="M163.562 285.812V287.137H157.416L157.334 286.111L160.891 280.469H162.232L160.779 282.9L159.01 285.812H163.562ZM162.596 280.469V289H160.908V280.469H162.596Z" fill="#E52400"/>
<rect x="168" y="283" width="339" height="1" fill="#E52400"/>
<g opacity="0.2">
<rect width="339" height="2" transform="translate(168 284)" fill="#E52400"/>
</g>
<rect x="168" y="286" width="339" height="1" fill="#E52400"/>
<path d="M163.562 337.812V339.137H157.416L157.334 338.111L160.891 332.469H162.232L160.779 334.9L159.01 337.812H163.562ZM162.596 332.469V341H160.908V332.469H162.596Z" fill="#E52400"/>
<rect x="168" y="335" width="339" height="1" fill="#E52400"/>
<g opacity="0.2">
<rect width="339" height="2" transform="translate(168 336)" fill="#E52400"/>
</g>
<rect x="168" y="338" width="339" height="1" fill="#E52400"/>
<path d="M163.562 389.812V391.137H157.416L157.334 390.111L160.891 384.469H162.232L160.779 386.9L159.01 389.812H163.562ZM162.596 384.469V393H160.908V384.469H162.596Z" fill="#E52400"/>
<rect x="168" y="387" width="339" height="1" fill="#E52400"/>
<g opacity="0.2">
<rect width="339" height="2" transform="translate(168 388)" fill="#E52400"/>
</g>
<rect x="168" y="390" width="339" height="1" fill="#E52400"/>
<path d="M163.562 442.812V444.137H157.416L157.334 443.111L160.891 437.469H162.232L160.779 439.9L159.01 442.812H163.562ZM162.596 437.469V446H160.908V437.469H162.596Z" fill="#E52400"/>
<rect x="168" y="440" width="339" height="1" fill="#E52400"/>
<g opacity="0.2">
<rect width="339" height="2" transform="translate(168 441)" fill="#E52400"/>
</g>
<rect x="168" y="443" width="339" height="1" fill="#E52400"/>
<rect x="176" y="40" width="1" height="491" fill="#18A847"/>
<g opacity="0.2">
<rect width="30" height="491" transform="translate(177 40)" fill="#18A847"/>
</g>
<rect x="207" y="40" width="1" height="491" fill="#18A847"/>
<path d="M187.314 541.002H188.217C188.506 541.002 188.744 540.953 188.932 540.855C189.119 540.754 189.258 540.613 189.348 540.434C189.441 540.25 189.488 540.037 189.488 539.795C189.488 539.576 189.445 539.383 189.359 539.215C189.277 539.043 189.15 538.91 188.979 538.816C188.807 538.719 188.59 538.67 188.328 538.67C188.121 538.67 187.93 538.711 187.754 538.793C187.578 538.875 187.438 538.99 187.332 539.139C187.227 539.287 187.174 539.467 187.174 539.678H185.48C185.48 539.209 185.605 538.801 185.855 538.453C186.109 538.105 186.449 537.834 186.875 537.639C187.301 537.443 187.77 537.346 188.281 537.346C188.859 537.346 189.365 537.439 189.799 537.627C190.232 537.811 190.57 538.082 190.812 538.441C191.055 538.801 191.176 539.246 191.176 539.777C191.176 540.047 191.113 540.309 190.988 540.562C190.863 540.812 190.684 541.039 190.449 541.242C190.219 541.441 189.938 541.602 189.605 541.723C189.273 541.84 188.9 541.898 188.486 541.898H187.314V541.002ZM187.314 542.285V541.412H188.486C188.951 541.412 189.359 541.465 189.711 541.57C190.062 541.676 190.357 541.828 190.596 542.027C190.834 542.223 191.014 542.455 191.135 542.725C191.256 542.99 191.316 543.285 191.316 543.609C191.316 544.008 191.24 544.363 191.088 544.676C190.936 544.984 190.721 545.246 190.443 545.461C190.17 545.676 189.85 545.84 189.482 545.953C189.115 546.062 188.715 546.117 188.281 546.117C187.922 546.117 187.568 546.068 187.221 545.971C186.877 545.869 186.564 545.719 186.283 545.52C186.006 545.316 185.783 545.062 185.615 544.758C185.451 544.449 185.369 544.084 185.369 543.662H187.062C187.062 543.881 187.117 544.076 187.227 544.248C187.336 544.42 187.486 544.555 187.678 544.652C187.873 544.75 188.09 544.799 188.328 544.799C188.598 544.799 188.828 544.75 189.02 544.652C189.215 544.551 189.363 544.41 189.465 544.23C189.57 544.047 189.623 543.834 189.623 543.592C189.623 543.279 189.566 543.029 189.453 542.842C189.34 542.65 189.178 542.51 188.967 542.42C188.756 542.33 188.506 542.285 188.217 542.285H187.314ZM198.312 544.682V546H192.477V544.875L195.236 541.916C195.514 541.607 195.732 541.336 195.893 541.102C196.053 540.863 196.168 540.65 196.238 540.463C196.312 540.271 196.35 540.09 196.35 539.918C196.35 539.66 196.307 539.439 196.221 539.256C196.135 539.068 196.008 538.924 195.84 538.822C195.676 538.721 195.473 538.67 195.23 538.67C194.973 538.67 194.75 538.732 194.562 538.857C194.379 538.982 194.238 539.156 194.141 539.379C194.047 539.602 194 539.854 194 540.135H192.307C192.307 539.627 192.428 539.162 192.67 538.74C192.912 538.314 193.254 537.977 193.695 537.727C194.137 537.473 194.66 537.346 195.266 537.346C195.863 537.346 196.367 537.443 196.777 537.639C197.191 537.83 197.504 538.107 197.715 538.471C197.93 538.83 198.037 539.26 198.037 539.76C198.037 540.041 197.992 540.316 197.902 540.586C197.812 540.852 197.684 541.117 197.516 541.383C197.352 541.645 197.152 541.91 196.918 542.18C196.684 542.449 196.424 542.729 196.139 543.018L194.656 544.682H198.312Z" fill="#18A847"/>
<rect x="468" y="40" width="1" height="491" fill="#18A847"/>
<g opacity="0.2">
<rect width="30" height="491" transform="translate(469 40)" fill="#18A847"/>
</g>
<rect x="499" y="40" width="1" height="491" fill="#18A847"/>
<path d="M479.314 541.002H480.217C480.506 541.002 480.744 540.953 480.932 540.855C481.119 540.754 481.258 540.613 481.348 540.434C481.441 540.25 481.488 540.037 481.488 539.795C481.488 539.576 481.445 539.383 481.359 539.215C481.277 539.043 481.15 538.91 480.979 538.816C480.807 538.719 480.59 538.67 480.328 538.67C480.121 538.67 479.93 538.711 479.754 538.793C479.578 538.875 479.438 538.99 479.332 539.139C479.227 539.287 479.174 539.467 479.174 539.678H477.48C477.48 539.209 477.605 538.801 477.855 538.453C478.109 538.105 478.449 537.834 478.875 537.639C479.301 537.443 479.77 537.346 480.281 537.346C480.859 537.346 481.365 537.439 481.799 537.627C482.232 537.811 482.57 538.082 482.812 538.441C483.055 538.801 483.176 539.246 483.176 539.777C483.176 540.047 483.113 540.309 482.988 540.562C482.863 540.812 482.684 541.039 482.449 541.242C482.219 541.441 481.938 541.602 481.605 541.723C481.273 541.84 480.9 541.898 480.486 541.898H479.314V541.002ZM479.314 542.285V541.412H480.486C480.951 541.412 481.359 541.465 481.711 541.57C482.062 541.676 482.357 541.828 482.596 542.027C482.834 542.223 483.014 542.455 483.135 542.725C483.256 542.99 483.316 543.285 483.316 543.609C483.316 544.008 483.24 544.363 483.088 544.676C482.936 544.984 482.721 545.246 482.443 545.461C482.17 545.676 481.85 545.84 481.482 545.953C481.115 546.062 480.715 546.117 480.281 546.117C479.922 546.117 479.568 546.068 479.221 545.971C478.877 545.869 478.564 545.719 478.283 545.52C478.006 545.316 477.783 545.062 477.615 544.758C477.451 544.449 477.369 544.084 477.369 543.662H479.062C479.062 543.881 479.117 544.076 479.227 544.248C479.336 544.42 479.486 544.555 479.678 544.652C479.873 544.75 480.09 544.799 480.328 544.799C480.598 544.799 480.828 544.75 481.02 544.652C481.215 544.551 481.363 544.41 481.465 544.23C481.57 544.047 481.623 543.834 481.623 543.592C481.623 543.279 481.566 543.029 481.453 542.842C481.34 542.65 481.178 542.51 480.967 542.42C480.756 542.33 480.506 542.285 480.217 542.285H479.314ZM490.312 544.682V546H484.477V544.875L487.236 541.916C487.514 541.607 487.732 541.336 487.893 541.102C488.053 540.863 488.168 540.65 488.238 540.463C488.312 540.271 488.35 540.09 488.35 539.918C488.35 539.66 488.307 539.439 488.221 539.256C488.135 539.068 488.008 538.924 487.84 538.822C487.676 538.721 487.473 538.67 487.23 538.67C486.973 538.67 486.75 538.732 486.562 538.857C486.379 538.982 486.238 539.156 486.141 539.379C486.047 539.602 486 539.854 486 540.135H484.307C484.307 539.627 484.428 539.162 484.67 538.74C484.912 538.314 485.254 537.977 485.695 537.727C486.137 537.473 486.66 537.346 487.266 537.346C487.863 537.346 488.367 537.443 488.777 537.639C489.191 537.83 489.504 538.107 489.715 538.471C489.93 538.83 490.037 539.26 490.037 539.76C490.037 540.041 489.992 540.316 489.902 540.586C489.812 540.852 489.684 541.117 489.516 541.383C489.352 541.645 489.152 541.91 488.918 542.18C488.684 542.449 488.424 542.729 488.139 543.018L486.656 544.682H490.312Z" fill="#18A847"/>
<path d="M152.314 62.002H153.217C153.506 62.002 153.744 61.9531 153.932 61.8555C154.119 61.7539 154.258 61.6133 154.348 61.4336C154.441 61.25 154.488 61.0371 154.488 60.7949C154.488 60.5762 154.445 60.3828 154.359 60.2148C154.277 60.043 154.15 59.9102 153.979 59.8164C153.807 59.7188 153.59 59.6699 153.328 59.6699C153.121 59.6699 152.93 59.7109 152.754 59.793C152.578 59.875 152.438 59.9902 152.332 60.1387C152.227 60.2871 152.174 60.4668 152.174 60.6777H150.48C150.48 60.209 150.605 59.8008 150.855 59.4531C151.109 59.1055 151.449 58.834 151.875 58.6387C152.301 58.4434 152.77 58.3457 153.281 58.3457C153.859 58.3457 154.365 58.4395 154.799 58.627C155.232 58.8105 155.57 59.082 155.812 59.4414C156.055 59.8008 156.176 60.2461 156.176 60.7773C156.176 61.0469 156.113 61.3086 155.988 61.5625C155.863 61.8125 155.684 62.0391 155.449 62.2422C155.219 62.4414 154.938 62.6016 154.605 62.7227C154.273 62.8398 153.9 62.8984 153.486 62.8984H152.314V62.002ZM152.314 63.2852V62.4121H153.486C153.951 62.4121 154.359 62.4648 154.711 62.5703C155.062 62.6758 155.357 62.8281 155.596 63.0273C155.834 63.2227 156.014 63.4551 156.135 63.7246C156.256 63.9902 156.316 64.2852 156.316 64.6094C156.316 65.0078 156.24 65.3633 156.088 65.6758C155.936 65.9844 155.721 66.2461 155.443 66.4609C155.17 66.6758 154.85 66.8398 154.482 66.9531C154.115 67.0625 153.715 67.1172 153.281 67.1172C152.922 67.1172 152.568 67.0684 152.221 66.9707C151.877 66.8691 151.564 66.7188 151.283 66.5195C151.006 66.3164 150.783 66.0625 150.615 65.7578C150.451 65.4492 150.369 65.084 150.369 64.6621H152.062C152.062 64.8809 152.117 65.0762 152.227 65.248C152.336 65.4199 152.486 65.5547 152.678 65.6523C152.873 65.75 153.09 65.7988 153.328 65.7988C153.598 65.7988 153.828 65.75 154.02 65.6523C154.215 65.5508 154.363 65.4102 154.465 65.2305C154.57 65.0469 154.623 64.834 154.623 64.5918C154.623 64.2793 154.566 64.0293 154.453 63.8418C154.34 63.6504 154.178 63.5098 153.967 63.4199C153.756 63.3301 153.506 63.2852 153.217 63.2852H152.314ZM163.312 65.6816V67H157.477V65.875L160.236 62.916C160.514 62.6074 160.732 62.3359 160.893 62.1016C161.053 61.8633 161.168 61.6504 161.238 61.4629C161.312 61.2715 161.35 61.0898 161.35 60.918C161.35 60.6602 161.307 60.4395 161.221 60.2559C161.135 60.0684 161.008 59.9238 160.84 59.8223C160.676 59.7207 160.473 59.6699 160.23 59.6699C159.973 59.6699 159.75 59.7324 159.562 59.8574C159.379 59.9824 159.238 60.1562 159.141 60.3789C159.047 60.6016 159 60.8535 159 61.1348H157.307C157.307 60.627 157.428 60.1621 157.67 59.7402C157.912 59.3145 158.254 58.9766 158.695 58.7266C159.137 58.4727 159.66 58.3457 160.266 58.3457C160.863 58.3457 161.367 58.4434 161.777 58.6387C162.191 58.8301 162.504 59.1074 162.715 59.4707C162.93 59.8301 163.037 60.2598 163.037 60.7598C163.037 61.041 162.992 61.3164 162.902 61.5859C162.812 61.8516 162.684 62.1172 162.516 62.3828C162.352 62.6445 162.152 62.9102 161.918 63.1797C161.684 63.4492 161.424 63.7285 161.139 64.0176L159.656 65.6816H163.312Z" fill="#18A847"/>
<rect x="168" y="47" width="340" height="1" fill="#18A847"/>
<g opacity="0.2">
<rect width="340" height="30" transform="translate(168 48)" fill="#18A847"/>
</g>
<rect x="168" y="78" width="340" height="1" fill="#18A847"/>
<path d="M152.314 506.002H153.217C153.506 506.002 153.744 505.953 153.932 505.855C154.119 505.754 154.258 505.613 154.348 505.434C154.441 505.25 154.488 505.037 154.488 504.795C154.488 504.576 154.445 504.383 154.359 504.215C154.277 504.043 154.15 503.91 153.979 503.816C153.807 503.719 153.59 503.67 153.328 503.67C153.121 503.67 152.93 503.711 152.754 503.793C152.578 503.875 152.438 503.99 152.332 504.139C152.227 504.287 152.174 504.467 152.174 504.678H150.48C150.48 504.209 150.605 503.801 150.855 503.453C151.109 503.105 151.449 502.834 151.875 502.639C152.301 502.443 152.77 502.346 153.281 502.346C153.859 502.346 154.365 502.439 154.799 502.627C155.232 502.811 155.57 503.082 155.812 503.441C156.055 503.801 156.176 504.246 156.176 504.777C156.176 505.047 156.113 505.309 155.988 505.562C155.863 505.812 155.684 506.039 155.449 506.242C155.219 506.441 154.938 506.602 154.605 506.723C154.273 506.84 153.9 506.898 153.486 506.898H152.314V506.002ZM152.314 507.285V506.412H153.486C153.951 506.412 154.359 506.465 154.711 506.57C155.062 506.676 155.357 506.828 155.596 507.027C155.834 507.223 156.014 507.455 156.135 507.725C156.256 507.99 156.316 508.285 156.316 508.609C156.316 509.008 156.24 509.363 156.088 509.676C155.936 509.984 155.721 510.246 155.443 510.461C155.17 510.676 154.85 510.84 154.482 510.953C154.115 511.062 153.715 511.117 153.281 511.117C152.922 511.117 152.568 511.068 152.221 510.971C151.877 510.869 151.564 510.719 151.283 510.52C151.006 510.316 150.783 510.062 150.615 509.758C150.451 509.449 150.369 509.084 150.369 508.662H152.062C152.062 508.881 152.117 509.076 152.227 509.248C152.336 509.42 152.486 509.555 152.678 509.652C152.873 509.75 153.09 509.799 153.328 509.799C153.598 509.799 153.828 509.75 154.02 509.652C154.215 509.551 154.363 509.41 154.465 509.23C154.57 509.047 154.623 508.834 154.623 508.592C154.623 508.279 154.566 508.029 154.453 507.842C154.34 507.65 154.178 507.51 153.967 507.42C153.756 507.33 153.506 507.285 153.217 507.285H152.314ZM163.312 509.682V511H157.477V509.875L160.236 506.916C160.514 506.607 160.732 506.336 160.893 506.102C161.053 505.863 161.168 505.65 161.238 505.463C161.312 505.271 161.35 505.09 161.35 504.918C161.35 504.66 161.307 504.439 161.221 504.256C161.135 504.068 161.008 503.924 160.84 503.822C160.676 503.721 160.473 503.67 160.23 503.67C159.973 503.67 159.75 503.732 159.562 503.857C159.379 503.982 159.238 504.156 159.141 504.379C159.047 504.602 159 504.854 159 505.135H157.307C157.307 504.627 157.428 504.162 157.67 503.74C157.912 503.314 158.254 502.977 158.695 502.727C159.137 502.473 159.66 502.346 160.266 502.346C160.863 502.346 161.367 502.443 161.777 502.639C162.191 502.83 162.504 503.107 162.715 503.471C162.93 503.83 163.037 504.26 163.037 504.76C163.037 505.041 162.992 505.316 162.902 505.586C162.812 505.852 162.684 506.117 162.516 506.383C162.352 506.645 162.152 506.91 161.918 507.18C161.684 507.449 161.424 507.729 161.139 508.018L159.656 509.682H163.312Z" fill="#18A847"/>
<rect x="168" y="491" width="340" height="1" fill="#18A847"/>
<g opacity="0.2">
<rect width="340" height="30" transform="translate(168 492)" fill="#18A847"/>
</g>
<rect x="168" y="522" width="340" height="1" fill="#18A847"/>
</svg>
