<svg width="400" height="192" viewBox="0 0 400 192" fill="none" xmlns="http://www.w3.org/2000/svg">
<rect width="400" height="192" rx="16" fill="#F8F8F8"/>
<path d="M160.705 109.85V111H155.373V109.85H160.705ZM155.651 100.336V111H154.238V100.336H155.651ZM163.591 103.075V111H162.229V103.075H163.591ZM162.126 100.973C162.126 100.753 162.192 100.568 162.324 100.417C162.46 100.265 162.661 100.189 162.924 100.189C163.183 100.189 163.381 100.265 163.518 100.417C163.659 100.568 163.73 100.753 163.73 100.973C163.73 101.183 163.659 101.364 163.518 101.515C163.381 101.662 163.183 101.735 162.924 101.735C162.661 101.735 162.46 101.662 162.324 101.515C162.192 101.364 162.126 101.183 162.126 100.973ZM167.121 104.767V111H165.766V103.075H167.048L167.121 104.767ZM166.799 106.737L166.235 106.715C166.24 106.173 166.32 105.673 166.477 105.214C166.633 104.75 166.853 104.347 167.136 104.005C167.419 103.664 167.756 103.4 168.146 103.214C168.542 103.024 168.979 102.929 169.458 102.929C169.848 102.929 170.2 102.982 170.512 103.09C170.825 103.192 171.091 103.358 171.311 103.588C171.535 103.817 171.706 104.115 171.823 104.481C171.94 104.843 171.999 105.285 171.999 105.807V111H170.637V105.792C170.637 105.377 170.576 105.045 170.454 104.796C170.332 104.542 170.153 104.359 169.919 104.247C169.685 104.13 169.396 104.071 169.055 104.071C168.718 104.071 168.41 104.142 168.132 104.284C167.858 104.425 167.622 104.621 167.421 104.87C167.226 105.119 167.072 105.404 166.96 105.727C166.853 106.044 166.799 106.381 166.799 106.737ZM175.419 99.75V111H174.057V99.75H175.419ZM180.261 103.075L176.804 106.774L174.87 108.781L174.76 107.338L176.145 105.683L178.605 103.075H180.261ZM179.023 111L176.196 107.221L176.899 106.012L180.62 111H179.023ZM190.375 109.462V99.75H191.738V111H190.493L190.375 109.462ZM185.043 107.125V106.972C185.043 106.366 185.117 105.817 185.263 105.324C185.415 104.826 185.627 104.398 185.9 104.042C186.179 103.686 186.508 103.412 186.889 103.222C187.275 103.026 187.705 102.929 188.178 102.929C188.676 102.929 189.111 103.017 189.482 103.192C189.858 103.363 190.175 103.615 190.434 103.947C190.698 104.274 190.905 104.669 191.057 105.133C191.208 105.597 191.313 106.122 191.372 106.708V107.382C191.318 107.963 191.213 108.485 191.057 108.949C190.905 109.413 190.698 109.809 190.434 110.136C190.175 110.463 189.858 110.714 189.482 110.89C189.106 111.061 188.667 111.146 188.164 111.146C187.7 111.146 187.275 111.046 186.889 110.846C186.508 110.646 186.179 110.365 185.9 110.004C185.627 109.643 185.415 109.218 185.263 108.729C185.117 108.236 185.043 107.702 185.043 107.125ZM186.406 106.972V107.125C186.406 107.521 186.445 107.892 186.523 108.239C186.606 108.585 186.733 108.891 186.904 109.154C187.075 109.418 187.292 109.625 187.556 109.777C187.819 109.923 188.134 109.997 188.5 109.997C188.95 109.997 189.318 109.901 189.606 109.711C189.899 109.521 190.134 109.269 190.31 108.957C190.485 108.644 190.622 108.305 190.72 107.938V106.173C190.661 105.905 190.576 105.646 190.463 105.397C190.356 105.143 190.214 104.918 190.039 104.723C189.868 104.523 189.655 104.364 189.401 104.247C189.152 104.13 188.857 104.071 188.515 104.071C188.144 104.071 187.824 104.149 187.556 104.306C187.292 104.457 187.075 104.667 186.904 104.936C186.733 105.199 186.606 105.507 186.523 105.858C186.445 106.205 186.406 106.576 186.406 106.972ZM197.136 111.146C196.584 111.146 196.083 111.054 195.634 110.868C195.19 110.678 194.807 110.412 194.484 110.07C194.167 109.728 193.923 109.323 193.752 108.854C193.581 108.385 193.496 107.873 193.496 107.316V107.008C193.496 106.364 193.591 105.79 193.781 105.287C193.972 104.779 194.23 104.35 194.558 103.998C194.885 103.646 195.256 103.38 195.671 103.2C196.086 103.019 196.516 102.929 196.96 102.929C197.526 102.929 198.015 103.026 198.425 103.222C198.84 103.417 199.179 103.69 199.443 104.042C199.707 104.389 199.902 104.799 200.029 105.272C200.156 105.741 200.219 106.254 200.219 106.811V107.418H194.301V106.312H198.864V106.21C198.845 105.858 198.771 105.517 198.645 105.185C198.522 104.853 198.327 104.579 198.059 104.364C197.79 104.149 197.424 104.042 196.96 104.042C196.652 104.042 196.369 104.108 196.11 104.24C195.852 104.367 195.629 104.557 195.444 104.811C195.258 105.065 195.114 105.375 195.012 105.741C194.909 106.107 194.858 106.53 194.858 107.008V107.316C194.858 107.692 194.909 108.046 195.012 108.378C195.119 108.705 195.273 108.993 195.473 109.242C195.678 109.491 195.925 109.687 196.213 109.828C196.506 109.97 196.838 110.041 197.209 110.041C197.688 110.041 198.093 109.943 198.425 109.748C198.757 109.552 199.047 109.291 199.296 108.964L200.117 109.616C199.946 109.875 199.729 110.121 199.465 110.355C199.201 110.59 198.876 110.78 198.491 110.927C198.11 111.073 197.658 111.146 197.136 111.146ZM203.823 111H202.468V102.24C202.468 101.669 202.57 101.188 202.775 100.797C202.985 100.402 203.286 100.104 203.676 99.9038C204.067 99.6987 204.531 99.5962 205.068 99.5962C205.224 99.5962 205.38 99.606 205.537 99.6255C205.698 99.645 205.854 99.6743 206.005 99.7134L205.932 100.819C205.83 100.795 205.712 100.778 205.581 100.768C205.454 100.758 205.327 100.753 205.2 100.753C204.912 100.753 204.663 100.812 204.453 100.929C204.248 101.042 204.091 101.208 203.984 101.427C203.876 101.647 203.823 101.918 203.823 102.24V111ZM205.507 103.075V104.115H201.215V103.075H205.507ZM211.689 109.645V105.565C211.689 105.253 211.625 104.982 211.499 104.752C211.376 104.518 211.191 104.337 210.942 104.21C210.693 104.083 210.385 104.02 210.019 104.02C209.677 104.02 209.377 104.079 209.118 104.196C208.864 104.313 208.664 104.467 208.518 104.657C208.376 104.848 208.305 105.053 208.305 105.272H206.95C206.95 104.989 207.023 104.708 207.17 104.43C207.316 104.152 207.526 103.9 207.8 103.676C208.078 103.446 208.41 103.266 208.796 103.134C209.187 102.997 209.621 102.929 210.1 102.929C210.676 102.929 211.184 103.026 211.623 103.222C212.067 103.417 212.414 103.712 212.663 104.108C212.917 104.499 213.044 104.989 213.044 105.58V109.271C213.044 109.535 213.066 109.816 213.11 110.114C213.159 110.412 213.229 110.668 213.322 110.883V111H211.909C211.84 110.844 211.787 110.636 211.748 110.377C211.708 110.114 211.689 109.87 211.689 109.645ZM211.923 106.195L211.938 107.147H210.568C210.183 107.147 209.838 107.179 209.536 107.243C209.233 107.301 208.979 107.392 208.774 107.514C208.569 107.636 208.413 107.79 208.305 107.975C208.198 108.156 208.144 108.368 208.144 108.612C208.144 108.861 208.2 109.088 208.312 109.293C208.425 109.499 208.593 109.662 208.818 109.784C209.047 109.901 209.328 109.96 209.66 109.96C210.075 109.96 210.441 109.872 210.759 109.696C211.076 109.521 211.328 109.306 211.513 109.052C211.704 108.798 211.806 108.551 211.821 108.312L212.399 108.964C212.365 109.169 212.272 109.396 212.121 109.645C211.97 109.894 211.767 110.133 211.513 110.363C211.264 110.587 210.966 110.775 210.62 110.927C210.278 111.073 209.892 111.146 209.462 111.146C208.925 111.146 208.454 111.042 208.049 110.832C207.648 110.622 207.336 110.341 207.111 109.989C206.892 109.633 206.782 109.235 206.782 108.795C206.782 108.371 206.865 107.997 207.031 107.675C207.197 107.348 207.436 107.077 207.749 106.862C208.061 106.642 208.437 106.476 208.876 106.364C209.316 106.251 209.807 106.195 210.349 106.195H211.923ZM220.024 109.169V103.075H221.386V111H220.09L220.024 109.169ZM220.28 107.499L220.844 107.484C220.844 108.012 220.788 108.5 220.676 108.949C220.568 109.394 220.393 109.779 220.148 110.106C219.904 110.434 219.584 110.69 219.189 110.875C218.793 111.056 218.312 111.146 217.746 111.146C217.36 111.146 217.006 111.09 216.684 110.978C216.367 110.866 216.093 110.692 215.864 110.458C215.634 110.224 215.456 109.918 215.329 109.542C215.207 109.167 215.146 108.715 215.146 108.188V103.075H216.501V108.202C216.501 108.559 216.54 108.854 216.618 109.088C216.701 109.318 216.811 109.501 216.948 109.638C217.089 109.77 217.246 109.862 217.417 109.916C217.592 109.97 217.773 109.997 217.958 109.997C218.535 109.997 218.991 109.887 219.328 109.667C219.665 109.442 219.907 109.142 220.053 108.766C220.205 108.385 220.28 107.963 220.28 107.499ZM224.924 99.75V111H223.562V99.75H224.924ZM230.417 103.075V104.115H226.132V103.075H230.417ZM227.583 101.149H228.938V109.037C228.938 109.306 228.979 109.508 229.062 109.645C229.145 109.782 229.252 109.872 229.384 109.916C229.516 109.96 229.658 109.982 229.809 109.982C229.921 109.982 230.039 109.972 230.161 109.953C230.288 109.928 230.383 109.909 230.446 109.894L230.454 111C230.346 111.034 230.205 111.066 230.029 111.095C229.858 111.129 229.65 111.146 229.406 111.146C229.074 111.146 228.769 111.081 228.491 110.949C228.212 110.817 227.99 110.597 227.824 110.29C227.663 109.977 227.583 109.557 227.583 109.03V101.149Z" fill="#0059FF"/>
<path d="M153 112.465H230.974V113.197H153V112.465Z" fill="#0059FF"/>
<path d="M241.939 101.469C241.939 101.729 242.148 101.938 242.408 101.938H244.402L240.044 106.293C239.86 106.477 239.86 106.773 240.044 106.955C240.227 107.137 240.524 107.139 240.706 106.955L245.062 102.6V104.594C245.062 104.854 245.271 105.062 245.531 105.062C245.791 105.062 246 104.854 246 104.594V101.469C246 101.209 245.791 101 245.531 101H242.408C242.148 101 241.939 101.209 241.939 101.469ZM237.407 101.625C236.629 101.625 236 102.254 236 103.031V109.594C236 110.371 236.629 111 237.407 111H243.97C244.748 111 245.377 110.371 245.377 109.594V107.094C245.377 106.834 245.168 106.625 244.908 106.625C244.648 106.625 244.439 106.834 244.439 107.094V109.594C244.439 109.854 244.23 110.062 243.97 110.062H237.407C237.147 110.062 236.938 109.854 236.938 109.594V103.031C236.938 102.771 237.147 102.562 237.407 102.562H239.907C240.167 102.562 240.376 102.354 240.376 102.094C240.376 101.834 240.167 101.625 239.907 101.625H237.407Z" fill="#0059FF"/>
<rect x="153" y="54" width="24" height="24" rx="12" fill="#286EF1"/>
<path d="M166.181 60.7261V70H164.651V62.5415L162.385 63.3096V62.0464L165.997 60.7261H166.181Z" fill="white"/>
<line x1="165.5" y1="78" x2="165.5" y2="94" stroke="#0059FF"/>
<rect x="229" y="54" width="24" height="24" rx="12" fill="#286EF1"/>
<path d="M244.199 68.7812V70H238.004V68.9526L241.013 65.6709C241.343 65.2985 241.603 64.9769 241.793 64.7061C241.984 64.4352 242.117 64.1919 242.193 63.9761C242.274 63.756 242.314 63.5423 242.314 63.335C242.314 63.043 242.259 62.7869 242.149 62.5669C242.043 62.3426 241.887 62.167 241.679 62.04C241.472 61.9089 241.22 61.8433 240.924 61.8433C240.581 61.8433 240.293 61.9173 240.061 62.0654C239.828 62.2135 239.652 62.4188 239.534 62.6812C239.415 62.9393 239.356 63.2355 239.356 63.5698H237.826C237.826 63.0324 237.949 62.5415 238.194 62.0972C238.44 61.6486 238.795 61.2931 239.261 61.0308C239.726 60.7642 240.287 60.6309 240.943 60.6309C241.561 60.6309 242.085 60.7345 242.517 60.9419C242.949 61.1493 243.277 61.4434 243.501 61.8242C243.729 62.2051 243.844 62.6558 243.844 63.1763C243.844 63.464 243.797 63.7497 243.704 64.0332C243.611 64.3167 243.478 64.6003 243.304 64.8838C243.135 65.1631 242.934 65.4445 242.701 65.728C242.468 66.0073 242.212 66.2909 241.933 66.5786L239.934 68.7812H244.199Z" fill="white"/>
<line x1="241.5" y1="78" x2="241.5" y2="94" stroke="#0059FF"/>
</svg>
