<svg width="800" height="112" viewBox="0 0 800 112" fill="none" xmlns="http://www.w3.org/2000/svg">
<g clip-path="url(#clip0_9296_21164)">
<rect width="800" height="112" fill="white"/>
<mask id="path-1-inside-1_9296_21164" fill="white">
<path d="M0 0H800V56H0V0Z"/>
</mask>
<path d="M0 0H800V56H0V0Z" fill="#F8F8F8"/>
<path d="M36.1821 33H33.9043L33.9189 31.5425H36.1821C36.8413 31.5425 37.3931 31.3984 37.8374 31.1104C38.2866 30.8223 38.6235 30.4097 38.8481 29.8726C39.0776 29.3354 39.1924 28.6958 39.1924 27.9536V27.375C39.1924 26.7988 39.1265 26.2886 38.9946 25.8442C38.8677 25.3999 38.6772 25.0264 38.4233 24.7236C38.1743 24.4209 37.8667 24.1914 37.5005 24.0352C37.1392 23.8789 36.7217 23.8008 36.248 23.8008H33.8604V22.3359H36.248C36.9561 22.3359 37.603 22.4556 38.189 22.6948C38.7749 22.9292 39.2803 23.2686 39.7051 23.7129C40.1348 24.1572 40.4644 24.6895 40.6938 25.3096C40.9233 25.9297 41.0381 26.623 41.0381 27.3896V27.9536C41.0381 28.7202 40.9233 29.4136 40.6938 30.0337C40.4644 30.6538 40.1348 31.186 39.7051 31.6304C39.2754 32.0698 38.7627 32.4092 38.167 32.6484C37.5762 32.8828 36.9146 33 36.1821 33ZM34.9224 22.3359V33H33.084V22.3359H34.9224ZM46.2017 33.1465C45.6157 33.1465 45.0859 33.0513 44.6123 32.8608C44.1436 32.6655 43.7432 32.3945 43.4111 32.0479C43.084 31.7012 42.8325 31.2935 42.6567 30.8247C42.481 30.356 42.3931 29.8506 42.3931 29.3086V29.0156C42.3931 28.3955 42.4834 27.834 42.6641 27.3311C42.8447 26.8281 43.0962 26.3984 43.4185 26.042C43.7407 25.6807 44.1216 25.4048 44.561 25.2144C45.0005 25.0239 45.4766 24.9287 45.9893 24.9287C46.5557 24.9287 47.0513 25.0239 47.4761 25.2144C47.9009 25.4048 48.2524 25.6733 48.5308 26.02C48.814 26.3618 49.0239 26.7695 49.1606 27.2432C49.3022 27.7168 49.373 28.2393 49.373 28.8105V29.5649H43.25V28.2979H47.6299V28.1587C47.6201 27.8413 47.5566 27.5435 47.4395 27.2651C47.3271 26.9868 47.1538 26.7622 46.9194 26.5913C46.6851 26.4204 46.3726 26.335 45.9819 26.335C45.689 26.335 45.4277 26.3984 45.1982 26.5254C44.9736 26.6475 44.7856 26.8257 44.6343 27.0601C44.4829 27.2944 44.3657 27.5776 44.2827 27.9097C44.2046 28.2368 44.1655 28.6055 44.1655 29.0156V29.3086C44.1655 29.6553 44.2119 29.9775 44.3047 30.2754C44.4023 30.5684 44.5439 30.8247 44.7295 31.0444C44.915 31.2642 45.1396 31.4375 45.4033 31.5645C45.667 31.6865 45.9673 31.7476 46.3042 31.7476C46.729 31.7476 47.1074 31.6621 47.4395 31.4912C47.7715 31.3203 48.0596 31.0786 48.3037 30.7661L49.2339 31.667C49.063 31.916 48.8408 32.1553 48.5674 32.3848C48.2939 32.6094 47.9595 32.7925 47.564 32.9341C47.1733 33.0757 46.7192 33.1465 46.2017 33.1465ZM53.1377 33H51.3726V24.3135C51.3726 23.7227 51.4824 23.2271 51.7021 22.8267C51.9268 22.4214 52.2466 22.1162 52.6616 21.9111C53.0767 21.7012 53.5674 21.5962 54.1338 21.5962C54.3096 21.5962 54.4829 21.6084 54.6538 21.6328C54.8247 21.6523 54.9907 21.6841 55.1519 21.728L55.1079 23.0903C55.0103 23.0659 54.9028 23.0488 54.7856 23.0391C54.6733 23.0293 54.5513 23.0244 54.4194 23.0244C54.1509 23.0244 53.9189 23.0757 53.7236 23.1782C53.5332 23.2759 53.3867 23.4199 53.2842 23.6104C53.1865 23.8008 53.1377 24.0352 53.1377 24.3135V33ZM54.771 25.0752V26.3643H50.1567V25.0752H54.771ZM60.5205 31.4106V27.6313C60.5205 27.3481 60.4692 27.104 60.3667 26.8989C60.2642 26.6938 60.1079 26.5352 59.8979 26.4229C59.6929 26.3105 59.4341 26.2544 59.1216 26.2544C58.8335 26.2544 58.5845 26.3032 58.3745 26.4009C58.1646 26.4985 58.001 26.6304 57.8838 26.7964C57.7666 26.9624 57.708 27.1504 57.708 27.3604H55.9502C55.9502 27.0479 56.0259 26.7451 56.1772 26.4521C56.3286 26.1592 56.5483 25.8979 56.8364 25.6685C57.1245 25.439 57.4688 25.2583 57.8691 25.1265C58.2695 24.9946 58.7188 24.9287 59.2168 24.9287C59.8125 24.9287 60.3398 25.0288 60.7988 25.229C61.2627 25.4292 61.6265 25.7319 61.8901 26.1372C62.1587 26.5376 62.293 27.0405 62.293 27.646V31.1689C62.293 31.5303 62.3174 31.855 62.3662 32.1431C62.4199 32.4263 62.4956 32.6729 62.5933 32.8828V33H60.7842C60.7012 32.8096 60.6353 32.5679 60.5864 32.2749C60.5425 31.9771 60.5205 31.689 60.5205 31.4106ZM60.7769 28.1807L60.7915 29.272H59.5244C59.1973 29.272 58.9092 29.3037 58.6602 29.3672C58.4111 29.4258 58.2036 29.5137 58.0376 29.6309C57.8716 29.748 57.7471 29.8896 57.6641 30.0557C57.5811 30.2217 57.5396 30.4097 57.5396 30.6196C57.5396 30.8296 57.5884 31.0225 57.686 31.1982C57.7837 31.3691 57.9253 31.5034 58.1108 31.6011C58.3013 31.6987 58.5308 31.7476 58.7993 31.7476C59.1606 31.7476 59.4756 31.6743 59.7441 31.5278C60.0176 31.3765 60.2324 31.1934 60.3887 30.9785C60.5449 30.7588 60.6279 30.5513 60.6377 30.356L61.209 31.1396C61.1504 31.3398 61.0503 31.5547 60.9087 31.7842C60.7671 32.0137 60.5815 32.2334 60.3521 32.4434C60.1274 32.6484 59.8564 32.8169 59.5391 32.9487C59.2266 33.0806 58.8652 33.1465 58.4551 33.1465C57.9375 33.1465 57.4761 33.0439 57.0708 32.8389C56.6655 32.6289 56.3481 32.3481 56.1187 31.9966C55.8892 31.6401 55.7744 31.2373 55.7744 30.7881C55.7744 30.3682 55.8525 29.9971 56.0088 29.6748C56.1699 29.3477 56.4043 29.0742 56.7119 28.8545C57.0244 28.6348 57.4053 28.4688 57.8545 28.3564C58.3037 28.2393 58.8164 28.1807 59.3926 28.1807H60.7769ZM68.9067 31.1323V25.0752H70.6792V33H69.0093L68.9067 31.1323ZM69.1558 29.4844L69.749 29.4697C69.749 30.002 69.6904 30.4927 69.5732 30.9419C69.4561 31.3862 69.2754 31.7744 69.0312 32.1064C68.7871 32.4336 68.4746 32.6899 68.0938 32.8755C67.7129 33.0562 67.2563 33.1465 66.7241 33.1465C66.3384 33.1465 65.9844 33.0903 65.6621 32.978C65.3398 32.8657 65.0615 32.6924 64.8271 32.458C64.5977 32.2236 64.4194 31.9185 64.2925 31.5425C64.1655 31.1665 64.1021 30.7173 64.1021 30.1948V25.0752H65.8672V30.2095C65.8672 30.4976 65.9014 30.7393 65.9697 30.9346C66.0381 31.125 66.1309 31.2788 66.248 31.396C66.3652 31.5132 66.502 31.5962 66.6582 31.645C66.8145 31.6938 66.9805 31.7183 67.1562 31.7183C67.6592 31.7183 68.0547 31.6206 68.3428 31.4253C68.6357 31.2251 68.8433 30.9565 68.9653 30.6196C69.0923 30.2827 69.1558 29.9043 69.1558 29.4844ZM74.3779 21.75V33H72.6055V21.75H74.3779ZM79.9443 25.0752V26.3643H75.4766V25.0752H79.9443ZM76.7656 23.1343H78.5308V30.8101C78.5308 31.0542 78.5649 31.2422 78.6333 31.374C78.7065 31.501 78.8066 31.5864 78.9336 31.6304C79.0605 31.6743 79.2095 31.6963 79.3804 31.6963C79.5024 31.6963 79.6196 31.689 79.7319 31.6743C79.8442 31.6597 79.9346 31.645 80.0029 31.6304L80.0103 32.978C79.8638 33.022 79.6929 33.061 79.4976 33.0952C79.3071 33.1294 79.0874 33.1465 78.8384 33.1465C78.4331 33.1465 78.0742 33.0757 77.7617 32.9341C77.4492 32.7876 77.2051 32.5508 77.0293 32.2236C76.8535 31.8965 76.7656 31.4619 76.7656 30.9199V23.1343ZM86.9316 21.75V33H85.1592V21.75H86.9316ZM90.7549 25.0752V33H88.9824V25.0752H90.7549ZM88.8652 22.9951C88.8652 22.7266 88.9531 22.5044 89.1289 22.3286C89.3096 22.1479 89.5586 22.0576 89.876 22.0576C90.1885 22.0576 90.4351 22.1479 90.6157 22.3286C90.7964 22.5044 90.8867 22.7266 90.8867 22.9951C90.8867 23.2588 90.7964 23.4785 90.6157 23.6543C90.4351 23.8301 90.1885 23.918 89.876 23.918C89.5586 23.918 89.3096 23.8301 89.1289 23.6543C88.9531 23.4785 88.8652 23.2588 88.8652 22.9951ZM94.439 26.7671V33H92.6738V25.0752H94.3364L94.439 26.7671ZM94.124 28.7446L93.5527 28.7373C93.5576 28.1758 93.6357 27.6606 93.7871 27.1919C93.9434 26.7231 94.1582 26.3203 94.4316 25.9834C94.71 25.6465 95.042 25.3877 95.4277 25.207C95.8135 25.0215 96.2432 24.9287 96.7168 24.9287C97.0977 24.9287 97.4419 24.9824 97.7495 25.0898C98.062 25.1924 98.3281 25.3608 98.5479 25.5952C98.7725 25.8296 98.9434 26.1348 99.0605 26.5107C99.1777 26.8818 99.2363 27.3384 99.2363 27.8804V33H97.4639V27.873C97.4639 27.4922 97.4077 27.1919 97.2954 26.9722C97.188 26.7476 97.0293 26.5889 96.8193 26.4961C96.6143 26.3984 96.3579 26.3496 96.0503 26.3496C95.7476 26.3496 95.4766 26.4131 95.2373 26.54C94.998 26.667 94.7954 26.8403 94.6294 27.0601C94.4683 27.2798 94.3438 27.5337 94.2559 27.8218C94.168 28.1099 94.124 28.4175 94.124 28.7446ZM102.818 21.75V33H101.045V21.75H102.818ZM107.74 25.0752L104.29 28.8984L102.4 30.832L101.939 29.3379L103.367 27.5728L105.608 25.0752H107.74ZM105.989 33L103.418 29.2793L104.532 28.0415L108.033 33H105.989Z" fill="#505050"/>
<path d="M424.064 31.5425V33H418.402V31.5425H424.064ZM418.922 22.3359V33H417.084V22.3359H418.922ZM423.324 26.7891V28.2246H418.402V26.7891H423.324ZM424.027 22.3359V23.8008H418.402V22.3359H424.027ZM426.737 25.0752L428.246 27.7046L429.784 25.0752H431.725L429.323 28.9644L431.82 33H429.879L428.268 30.2607L426.657 33H424.708L427.199 28.9644L424.804 25.0752H426.737ZM436.566 25.0752V26.3643H432.099V25.0752H436.566ZM433.388 23.1343H435.153V30.8101C435.153 31.0542 435.187 31.2422 435.255 31.374C435.329 31.501 435.429 31.5864 435.556 31.6304C435.683 31.6743 435.832 31.6963 436.002 31.6963C436.125 31.6963 436.242 31.689 436.354 31.6743C436.466 31.6597 436.557 31.645 436.625 31.6304L436.632 32.978C436.486 33.022 436.315 33.061 436.12 33.0952C435.929 33.1294 435.709 33.1465 435.46 33.1465C435.055 33.1465 434.696 33.0757 434.384 32.9341C434.071 32.7876 433.827 32.5508 433.651 32.2236C433.476 31.8965 433.388 31.4619 433.388 30.9199V23.1343ZM441.422 33.1465C440.836 33.1465 440.307 33.0513 439.833 32.8608C439.364 32.6655 438.964 32.3945 438.632 32.0479C438.305 31.7012 438.053 31.2935 437.877 30.8247C437.702 30.356 437.614 29.8506 437.614 29.3086V29.0156C437.614 28.3955 437.704 27.834 437.885 27.3311C438.065 26.8281 438.317 26.3984 438.639 26.042C438.961 25.6807 439.342 25.4048 439.782 25.2144C440.221 25.0239 440.697 24.9287 441.21 24.9287C441.776 24.9287 442.272 25.0239 442.697 25.2144C443.122 25.4048 443.473 25.6733 443.751 26.02C444.035 26.3618 444.245 26.7695 444.381 27.2432C444.523 27.7168 444.594 28.2393 444.594 28.8105V29.5649H438.471V28.2979H442.851V28.1587C442.841 27.8413 442.777 27.5435 442.66 27.2651C442.548 26.9868 442.375 26.7622 442.14 26.5913C441.906 26.4204 441.593 26.335 441.203 26.335C440.91 26.335 440.648 26.3984 440.419 26.5254C440.194 26.6475 440.006 26.8257 439.855 27.0601C439.704 27.2944 439.586 27.5776 439.503 27.9097C439.425 28.2368 439.386 28.6055 439.386 29.0156V29.3086C439.386 29.6553 439.433 29.9775 439.525 30.2754C439.623 30.5684 439.765 30.8247 439.95 31.0444C440.136 31.2642 440.36 31.4375 440.624 31.5645C440.888 31.6865 441.188 31.7476 441.525 31.7476C441.95 31.7476 442.328 31.6621 442.66 31.4912C442.992 31.3203 443.28 31.0786 443.524 30.7661L444.455 31.667C444.284 31.916 444.062 32.1553 443.788 32.3848C443.515 32.6094 443.18 32.7925 442.785 32.9341C442.394 33.0757 441.94 33.1465 441.422 33.1465ZM447.743 26.584V33H445.978V25.0752H447.663L447.743 26.584ZM450.167 25.0239L450.153 26.6646C450.045 26.645 449.928 26.6304 449.801 26.6206C449.679 26.6108 449.557 26.606 449.435 26.606C449.132 26.606 448.866 26.6499 448.637 26.7378C448.407 26.8208 448.214 26.9429 448.058 27.104C447.907 27.2603 447.79 27.4507 447.707 27.6753C447.624 27.8999 447.575 28.1514 447.56 28.4297L447.157 28.459C447.157 27.9609 447.206 27.4995 447.304 27.0747C447.401 26.6499 447.548 26.2764 447.743 25.9541C447.943 25.6318 448.192 25.3804 448.49 25.1997C448.793 25.019 449.142 24.9287 449.538 24.9287C449.645 24.9287 449.76 24.9385 449.882 24.958C450.009 24.9775 450.104 24.9995 450.167 25.0239ZM453.024 26.7671V33H451.259V25.0752H452.921L453.024 26.7671ZM452.709 28.7446L452.138 28.7373C452.143 28.1758 452.221 27.6606 452.372 27.1919C452.528 26.7231 452.743 26.3203 453.017 25.9834C453.295 25.6465 453.627 25.3877 454.013 25.207C454.398 25.0215 454.828 24.9287 455.302 24.9287C455.683 24.9287 456.027 24.9824 456.334 25.0898C456.647 25.1924 456.913 25.3608 457.133 25.5952C457.357 25.8296 457.528 26.1348 457.646 26.5107C457.763 26.8818 457.821 27.3384 457.821 27.8804V33H456.049V27.873C456.049 27.4922 455.993 27.1919 455.88 26.9722C455.773 26.7476 455.614 26.5889 455.404 26.4961C455.199 26.3984 454.943 26.3496 454.635 26.3496C454.333 26.3496 454.062 26.4131 453.822 26.54C453.583 26.667 453.38 26.8403 453.214 27.0601C453.053 27.2798 452.929 27.5337 452.841 27.8218C452.753 28.1099 452.709 28.4175 452.709 28.7446ZM464.091 31.4106V27.6313C464.091 27.3481 464.04 27.104 463.937 26.8989C463.834 26.6938 463.678 26.5352 463.468 26.4229C463.263 26.3105 463.004 26.2544 462.692 26.2544C462.404 26.2544 462.155 26.3032 461.945 26.4009C461.735 26.4985 461.571 26.6304 461.454 26.7964C461.337 26.9624 461.278 27.1504 461.278 27.3604H459.521C459.521 27.0479 459.596 26.7451 459.748 26.4521C459.899 26.1592 460.119 25.8979 460.407 25.6685C460.695 25.439 461.039 25.2583 461.439 25.1265C461.84 24.9946 462.289 24.9287 462.787 24.9287C463.383 24.9287 463.91 25.0288 464.369 25.229C464.833 25.4292 465.197 25.7319 465.46 26.1372C465.729 26.5376 465.863 27.0405 465.863 27.646V31.1689C465.863 31.5303 465.888 31.855 465.937 32.1431C465.99 32.4263 466.066 32.6729 466.164 32.8828V33H464.354C464.271 32.8096 464.206 32.5679 464.157 32.2749C464.113 31.9771 464.091 31.689 464.091 31.4106ZM464.347 28.1807L464.362 29.272H463.095C462.768 29.272 462.479 29.3037 462.23 29.3672C461.981 29.4258 461.774 29.5137 461.608 29.6309C461.442 29.748 461.317 29.8896 461.234 30.0557C461.151 30.2217 461.11 30.4097 461.11 30.6196C461.11 30.8296 461.159 31.0225 461.256 31.1982C461.354 31.3691 461.496 31.5034 461.681 31.6011C461.872 31.6987 462.101 31.7476 462.37 31.7476C462.731 31.7476 463.046 31.6743 463.314 31.5278C463.588 31.3765 463.803 31.1934 463.959 30.9785C464.115 30.7588 464.198 30.5513 464.208 30.356L464.779 31.1396C464.721 31.3398 464.621 31.5547 464.479 31.7842C464.337 32.0137 464.152 32.2334 463.922 32.4434C463.698 32.6484 463.427 32.8169 463.109 32.9487C462.797 33.0806 462.436 33.1465 462.025 33.1465C461.508 33.1465 461.046 33.0439 460.641 32.8389C460.236 32.6289 459.918 32.3481 459.689 31.9966C459.459 31.6401 459.345 31.2373 459.345 30.7881C459.345 30.3682 459.423 29.9971 459.579 29.6748C459.74 29.3477 459.975 29.0742 460.282 28.8545C460.595 28.6348 460.976 28.4688 461.425 28.3564C461.874 28.2393 462.387 28.1807 462.963 28.1807H464.347ZM469.599 21.75V33H467.826V21.75H469.599ZM477.157 21.75V33H475.385V21.75H477.157ZM480.98 25.0752V33H479.208V25.0752H480.98ZM479.091 22.9951C479.091 22.7266 479.179 22.5044 479.354 22.3286C479.535 22.1479 479.784 22.0576 480.102 22.0576C480.414 22.0576 480.661 22.1479 480.841 22.3286C481.022 22.5044 481.112 22.7266 481.112 22.9951C481.112 23.2588 481.022 23.4785 480.841 23.6543C480.661 23.8301 480.414 23.918 480.102 23.918C479.784 23.918 479.535 23.8301 479.354 23.6543C479.179 23.4785 479.091 23.2588 479.091 22.9951ZM484.665 26.7671V33H482.899V25.0752H484.562L484.665 26.7671ZM484.35 28.7446L483.778 28.7373C483.783 28.1758 483.861 27.6606 484.013 27.1919C484.169 26.7231 484.384 26.3203 484.657 25.9834C484.936 25.6465 485.268 25.3877 485.653 25.207C486.039 25.0215 486.469 24.9287 486.942 24.9287C487.323 24.9287 487.667 24.9824 487.975 25.0898C488.288 25.1924 488.554 25.3608 488.773 25.5952C488.998 25.8296 489.169 26.1348 489.286 26.5107C489.403 26.8818 489.462 27.3384 489.462 27.8804V33H487.689V27.873C487.689 27.4922 487.633 27.1919 487.521 26.9722C487.414 26.7476 487.255 26.5889 487.045 26.4961C486.84 26.3984 486.583 26.3496 486.276 26.3496C485.973 26.3496 485.702 26.4131 485.463 26.54C485.224 26.667 485.021 26.8403 484.855 27.0601C484.694 27.2798 484.569 27.5337 484.481 27.8218C484.394 28.1099 484.35 28.4175 484.35 28.7446ZM493.043 21.75V33H491.271V21.75H493.043ZM497.965 25.0752L494.516 28.8984L492.626 30.832L492.165 29.3379L493.593 27.5728L495.834 25.0752H497.965ZM496.215 33L493.644 29.2793L494.757 28.0415L498.258 33H496.215Z" fill="#505050"/>
<path d="M800 55H0V57H800V55Z" fill="#E6E6E6" mask="url(#path-1-inside-1_9296_21164)"/>
<path d="M39.7051 87.8501V89H34.373V87.8501H39.7051ZM34.6514 78.3359V89H33.2378V78.3359H34.6514ZM42.5908 81.0752V89H41.2285V81.0752H42.5908ZM41.126 78.9731C41.126 78.7534 41.1919 78.5679 41.3237 78.4165C41.4604 78.2651 41.6606 78.1895 41.9243 78.1895C42.1831 78.1895 42.3809 78.2651 42.5176 78.4165C42.6592 78.5679 42.73 78.7534 42.73 78.9731C42.73 79.1831 42.6592 79.3638 42.5176 79.5151C42.3809 79.6616 42.1831 79.7349 41.9243 79.7349C41.6606 79.7349 41.4604 79.6616 41.3237 79.5151C41.1919 79.3638 41.126 79.1831 41.126 78.9731ZM46.1211 82.7671V89H44.7661V81.0752H46.0479L46.1211 82.7671ZM45.7988 84.7373L45.2349 84.7153C45.2397 84.1733 45.3203 83.6729 45.4766 83.2139C45.6328 82.75 45.8525 82.3472 46.1357 82.0054C46.4189 81.6636 46.7559 81.3999 47.1465 81.2144C47.542 81.0239 47.979 80.9287 48.4575 80.9287C48.8481 80.9287 49.1997 80.9824 49.5122 81.0898C49.8247 81.1924 50.0908 81.3584 50.3105 81.5879C50.5352 81.8174 50.7061 82.1152 50.8232 82.4814C50.9404 82.8428 50.999 83.2847 50.999 83.8071V89H49.6367V83.7925C49.6367 83.3774 49.5757 83.0454 49.4536 82.7964C49.3315 82.5425 49.1533 82.3594 48.9189 82.2471C48.6846 82.1299 48.3965 82.0713 48.0547 82.0713C47.7178 82.0713 47.4102 82.1421 47.1318 82.2837C46.8584 82.4253 46.6216 82.6206 46.4214 82.8696C46.2261 83.1187 46.0723 83.4043 45.96 83.7266C45.8525 84.0439 45.7988 84.3809 45.7988 84.7373ZM54.4194 77.75V89H53.0571V77.75H54.4194ZM59.2607 81.0752L55.8037 84.7739L53.8701 86.7808L53.7603 85.3379L55.1445 83.6826L57.6055 81.0752H59.2607ZM58.0229 89L55.1958 85.2207L55.8989 84.0122L59.6196 89H58.0229ZM65.8525 81.0752V89H64.4902V81.0752H65.8525ZM64.3877 78.9731C64.3877 78.7534 64.4536 78.5679 64.5854 78.4165C64.7222 78.2651 64.9224 78.1895 65.186 78.1895C65.4448 78.1895 65.6426 78.2651 65.7793 78.4165C65.9209 78.5679 65.9917 78.7534 65.9917 78.9731C65.9917 79.1831 65.9209 79.3638 65.7793 79.5151C65.6426 79.6616 65.4448 79.7349 65.186 79.7349C64.9224 79.7349 64.7222 79.6616 64.5854 79.5151C64.4536 79.3638 64.3877 79.1831 64.3877 78.9731ZM69.3828 82.7671V89H68.0278V81.0752H69.3096L69.3828 82.7671ZM69.0605 84.7373L68.4966 84.7153C68.5015 84.1733 68.582 83.6729 68.7383 83.2139C68.8945 82.75 69.1143 82.3472 69.3975 82.0054C69.6807 81.6636 70.0176 81.3999 70.4082 81.2144C70.8037 81.0239 71.2407 80.9287 71.7192 80.9287C72.1099 80.9287 72.4614 80.9824 72.7739 81.0898C73.0864 81.1924 73.3525 81.3584 73.5723 81.5879C73.7969 81.8174 73.9678 82.1152 74.085 82.4814C74.2021 82.8428 74.2607 83.2847 74.2607 83.8071V89H72.8984V83.7925C72.8984 83.3774 72.8374 83.0454 72.7153 82.7964C72.5933 82.5425 72.415 82.3594 72.1807 82.2471C71.9463 82.1299 71.6582 82.0713 71.3164 82.0713C70.9795 82.0713 70.6719 82.1421 70.3936 82.2837C70.1201 82.4253 69.8833 82.6206 69.6831 82.8696C69.4878 83.1187 69.334 83.4043 69.2217 83.7266C69.1143 84.0439 69.0605 84.3809 69.0605 84.7373ZM79.6367 81.0752V82.1152H75.3521V81.0752H79.6367ZM76.8022 79.1489H78.1572V87.0371C78.1572 87.3057 78.1987 87.5083 78.2817 87.645C78.3647 87.7817 78.4722 87.8721 78.604 87.916C78.7358 87.96 78.8774 87.9819 79.0288 87.9819C79.1411 87.9819 79.2583 87.9722 79.3804 87.9526C79.5073 87.9282 79.6025 87.9087 79.666 87.894L79.6733 89C79.5659 89.0342 79.4243 89.0659 79.2485 89.0952C79.0776 89.1294 78.8701 89.1465 78.626 89.1465C78.2939 89.1465 77.9888 89.0806 77.7104 88.9487C77.4321 88.8169 77.21 88.5972 77.0439 88.2896C76.8828 87.9771 76.8022 87.5571 76.8022 87.0298V79.1489ZM84.5146 89.1465C83.9629 89.1465 83.4624 89.0537 83.0132 88.8682C82.5688 88.6777 82.1855 88.4116 81.8633 88.0698C81.5459 87.728 81.3018 87.3228 81.1309 86.854C80.96 86.3853 80.8745 85.8726 80.8745 85.3159V85.0083C80.8745 84.3638 80.9697 83.79 81.1602 83.2871C81.3506 82.7793 81.6094 82.3496 81.9365 81.998C82.2637 81.6465 82.6348 81.3804 83.0498 81.1997C83.4648 81.019 83.8945 80.9287 84.3389 80.9287C84.9053 80.9287 85.3936 81.0264 85.8037 81.2217C86.2188 81.417 86.5581 81.6904 86.8218 82.042C87.0854 82.3887 87.2808 82.7988 87.4077 83.2725C87.5347 83.7412 87.5981 84.2539 87.5981 84.8105V85.4185H81.6802V84.3125H86.2432V84.21C86.2236 83.8584 86.1504 83.5166 86.0234 83.1846C85.9014 82.8525 85.7061 82.5791 85.4375 82.3643C85.1689 82.1494 84.8027 82.042 84.3389 82.042C84.0312 82.042 83.748 82.1079 83.4893 82.2397C83.2305 82.3667 83.0083 82.5571 82.8228 82.811C82.6372 83.0649 82.4932 83.375 82.3906 83.7412C82.2881 84.1074 82.2368 84.5298 82.2368 85.0083V85.3159C82.2368 85.6919 82.2881 86.0459 82.3906 86.3779C82.498 86.7051 82.6519 86.9932 82.8521 87.2422C83.0571 87.4912 83.3037 87.6865 83.5918 87.8281C83.8848 87.9697 84.2168 88.0405 84.5879 88.0405C85.0664 88.0405 85.4717 87.9429 85.8037 87.7476C86.1357 87.5522 86.4263 87.291 86.6753 86.9639L87.4956 87.6157C87.3247 87.8745 87.1074 88.1211 86.8438 88.3555C86.5801 88.5898 86.2554 88.7803 85.8696 88.9268C85.4888 89.0732 85.0371 89.1465 84.5146 89.1465ZM90.5352 82.3203V89H89.1802V81.0752H90.4985L90.5352 82.3203ZM93.0107 81.0312L93.0034 82.291C92.8911 82.2666 92.7837 82.252 92.6812 82.2471C92.5835 82.2373 92.4712 82.2324 92.3442 82.2324C92.0317 82.2324 91.7559 82.2812 91.5166 82.3789C91.2773 82.4766 91.0747 82.6133 90.9087 82.7891C90.7427 82.9648 90.6108 83.1748 90.5132 83.4189C90.4204 83.6582 90.3594 83.9219 90.3301 84.21L89.9492 84.4297C89.9492 83.9512 89.9956 83.502 90.0884 83.082C90.186 82.6621 90.335 82.291 90.5352 81.9688C90.7354 81.6416 90.9893 81.3877 91.2969 81.207C91.6094 81.0215 91.9805 80.9287 92.4102 80.9287C92.5078 80.9287 92.6201 80.9409 92.7471 80.9653C92.874 80.9849 92.9619 81.0068 93.0107 81.0312ZM95.6182 82.7671V89H94.2632V81.0752H95.5449L95.6182 82.7671ZM95.2959 84.7373L94.7319 84.7153C94.7368 84.1733 94.8174 83.6729 94.9736 83.2139C95.1299 82.75 95.3496 82.3472 95.6328 82.0054C95.916 81.6636 96.2529 81.3999 96.6436 81.2144C97.0391 81.0239 97.4761 80.9287 97.9546 80.9287C98.3452 80.9287 98.6968 80.9824 99.0093 81.0898C99.3218 81.1924 99.5879 81.3584 99.8076 81.5879C100.032 81.8174 100.203 82.1152 100.32 82.4814C100.438 82.8428 100.496 83.2847 100.496 83.8071V89H99.1338V83.7925C99.1338 83.3774 99.0728 83.0454 98.9507 82.7964C98.8286 82.5425 98.6504 82.3594 98.416 82.2471C98.1816 82.1299 97.8936 82.0713 97.5518 82.0713C97.2148 82.0713 96.9072 82.1421 96.6289 82.2837C96.3555 82.4253 96.1187 82.6206 95.9185 82.8696C95.7231 83.1187 95.5693 83.4043 95.457 83.7266C95.3496 84.0439 95.2959 84.3809 95.2959 84.7373ZM107.227 87.645V83.5654C107.227 83.2529 107.164 82.9819 107.037 82.7524C106.915 82.5181 106.729 82.3374 106.48 82.2104C106.231 82.0835 105.923 82.02 105.557 82.02C105.215 82.02 104.915 82.0786 104.656 82.1958C104.402 82.313 104.202 82.4668 104.056 82.6572C103.914 82.8477 103.843 83.0527 103.843 83.2725H102.488C102.488 82.9893 102.562 82.7085 102.708 82.4302C102.854 82.1519 103.064 81.9004 103.338 81.6758C103.616 81.4463 103.948 81.2656 104.334 81.1338C104.725 80.9971 105.159 80.9287 105.638 80.9287C106.214 80.9287 106.722 81.0264 107.161 81.2217C107.605 81.417 107.952 81.7124 108.201 82.1079C108.455 82.4985 108.582 82.9893 108.582 83.5801V87.2715C108.582 87.5352 108.604 87.8159 108.648 88.1138C108.697 88.4116 108.768 88.668 108.86 88.8828V89H107.447C107.378 88.8438 107.325 88.6362 107.286 88.3774C107.247 88.1138 107.227 87.8696 107.227 87.645ZM107.461 84.1953L107.476 85.1475H106.106C105.721 85.1475 105.376 85.1792 105.074 85.2427C104.771 85.3013 104.517 85.3916 104.312 85.5137C104.107 85.6357 103.951 85.7896 103.843 85.9751C103.736 86.1558 103.682 86.3682 103.682 86.6123C103.682 86.8613 103.738 87.0884 103.851 87.2935C103.963 87.4985 104.131 87.6621 104.356 87.7842C104.585 87.9014 104.866 87.96 105.198 87.96C105.613 87.96 105.979 87.8721 106.297 87.6963C106.614 87.5205 106.866 87.3057 107.051 87.0518C107.242 86.7979 107.344 86.5513 107.359 86.312L107.938 86.9639C107.903 87.1689 107.811 87.396 107.659 87.645C107.508 87.894 107.305 88.1333 107.051 88.3628C106.802 88.5874 106.504 88.7754 106.158 88.9268C105.816 89.0732 105.43 89.1465 105 89.1465C104.463 89.1465 103.992 89.0415 103.587 88.8315C103.187 88.6216 102.874 88.3408 102.649 87.9893C102.43 87.6328 102.32 87.2349 102.32 86.7954C102.32 86.3706 102.403 85.9971 102.569 85.6748C102.735 85.3477 102.974 85.0767 103.287 84.8618C103.599 84.6421 103.975 84.4761 104.415 84.3638C104.854 84.2515 105.345 84.1953 105.887 84.1953H107.461ZM112.186 77.75V89H110.823V77.75H112.186Z" fill="#0059FF"/>
<path d="M32 90.4648H113.328V91.1973H32V90.4648Z" fill="#0059FF"/>
<path d="M423.705 87.8501V89H418.373V87.8501H423.705ZM418.651 78.3359V89H417.238V78.3359H418.651ZM426.591 81.0752V89H425.229V81.0752H426.591ZM425.126 78.9731C425.126 78.7534 425.192 78.5679 425.324 78.4165C425.46 78.2651 425.661 78.1895 425.924 78.1895C426.183 78.1895 426.381 78.2651 426.518 78.4165C426.659 78.5679 426.73 78.7534 426.73 78.9731C426.73 79.1831 426.659 79.3638 426.518 79.5151C426.381 79.6616 426.183 79.7349 425.924 79.7349C425.661 79.7349 425.46 79.6616 425.324 79.5151C425.192 79.3638 425.126 79.1831 425.126 78.9731ZM430.121 82.7671V89H428.766V81.0752H430.048L430.121 82.7671ZM429.799 84.7373L429.235 84.7153C429.24 84.1733 429.32 83.6729 429.477 83.2139C429.633 82.75 429.853 82.3472 430.136 82.0054C430.419 81.6636 430.756 81.3999 431.146 81.2144C431.542 81.0239 431.979 80.9287 432.458 80.9287C432.848 80.9287 433.2 80.9824 433.512 81.0898C433.825 81.1924 434.091 81.3584 434.311 81.5879C434.535 81.8174 434.706 82.1152 434.823 82.4814C434.94 82.8428 434.999 83.2847 434.999 83.8071V89H433.637V83.7925C433.637 83.3774 433.576 83.0454 433.454 82.7964C433.332 82.5425 433.153 82.3594 432.919 82.2471C432.685 82.1299 432.396 82.0713 432.055 82.0713C431.718 82.0713 431.41 82.1421 431.132 82.2837C430.858 82.4253 430.622 82.6206 430.421 82.8696C430.226 83.1187 430.072 83.4043 429.96 83.7266C429.853 84.0439 429.799 84.3809 429.799 84.7373ZM438.419 77.75V89H437.057V77.75H438.419ZM443.261 81.0752L439.804 84.7739L437.87 86.7808L437.76 85.3379L439.145 83.6826L441.605 81.0752H443.261ZM442.023 89L439.196 85.2207L439.899 84.0122L443.62 89H442.023ZM451.669 89.1465C451.117 89.1465 450.617 89.0537 450.167 88.8682C449.723 88.6777 449.34 88.4116 449.018 88.0698C448.7 87.728 448.456 87.3228 448.285 86.854C448.114 86.3853 448.029 85.8726 448.029 85.3159V85.0083C448.029 84.3638 448.124 83.79 448.314 83.2871C448.505 82.7793 448.764 82.3496 449.091 81.998C449.418 81.6465 449.789 81.3804 450.204 81.1997C450.619 81.019 451.049 80.9287 451.493 80.9287C452.06 80.9287 452.548 81.0264 452.958 81.2217C453.373 81.417 453.712 81.6904 453.976 82.042C454.24 82.3887 454.435 82.7988 454.562 83.2725C454.689 83.7412 454.752 84.2539 454.752 84.8105V85.4185H448.834V84.3125H453.397V84.21C453.378 83.8584 453.305 83.5166 453.178 83.1846C453.056 82.8525 452.86 82.5791 452.592 82.3643C452.323 82.1494 451.957 82.042 451.493 82.042C451.186 82.042 450.902 82.1079 450.644 82.2397C450.385 82.3667 450.163 82.5571 449.977 82.811C449.792 83.0649 449.647 83.375 449.545 83.7412C449.442 84.1074 449.391 84.5298 449.391 85.0083V85.3159C449.391 85.6919 449.442 86.0459 449.545 86.3779C449.652 86.7051 449.806 86.9932 450.006 87.2422C450.211 87.4912 450.458 87.6865 450.746 87.8281C451.039 87.9697 451.371 88.0405 451.742 88.0405C452.221 88.0405 452.626 87.9429 452.958 87.7476C453.29 87.5522 453.581 87.291 453.83 86.9639L454.65 87.6157C454.479 87.8745 454.262 88.1211 453.998 88.3555C453.734 88.5898 453.41 88.7803 453.024 88.9268C452.643 89.0732 452.191 89.1465 451.669 89.1465ZM457.25 81.0752L458.986 83.9609L460.744 81.0752H462.333L459.74 84.9863L462.414 89H460.846L459.015 86.0264L457.184 89H455.609L458.275 84.9863L455.69 81.0752H457.25ZM467.094 81.0752V82.1152H462.809V81.0752H467.094ZM464.259 79.1489H465.614V87.0371C465.614 87.3057 465.656 87.5083 465.739 87.645C465.822 87.7817 465.929 87.8721 466.061 87.916C466.193 87.96 466.334 87.9819 466.486 87.9819C466.598 87.9819 466.715 87.9722 466.837 87.9526C466.964 87.9282 467.06 87.9087 467.123 87.894L467.13 89C467.023 89.0342 466.881 89.0659 466.706 89.0952C466.535 89.1294 466.327 89.1465 466.083 89.1465C465.751 89.1465 465.446 89.0806 465.167 88.9487C464.889 88.8169 464.667 88.5972 464.501 88.2896C464.34 87.9771 464.259 87.5571 464.259 87.0298V79.1489ZM471.972 89.1465C471.42 89.1465 470.919 89.0537 470.47 88.8682C470.026 88.6777 469.643 88.4116 469.32 88.0698C469.003 87.728 468.759 87.3228 468.588 86.854C468.417 86.3853 468.332 85.8726 468.332 85.3159V85.0083C468.332 84.3638 468.427 83.79 468.617 83.2871C468.808 82.7793 469.066 82.3496 469.394 81.998C469.721 81.6465 470.092 81.3804 470.507 81.1997C470.922 81.019 471.352 80.9287 471.796 80.9287C472.362 80.9287 472.851 81.0264 473.261 81.2217C473.676 81.417 474.015 81.6904 474.279 82.042C474.542 82.3887 474.738 82.7988 474.865 83.2725C474.992 83.7412 475.055 84.2539 475.055 84.8105V85.4185H469.137V84.3125H473.7V84.21C473.681 83.8584 473.607 83.5166 473.48 83.1846C473.358 82.8525 473.163 82.5791 472.895 82.3643C472.626 82.1494 472.26 82.042 471.796 82.042C471.488 82.042 471.205 82.1079 470.946 82.2397C470.688 82.3667 470.465 82.5571 470.28 82.811C470.094 83.0649 469.95 83.375 469.848 83.7412C469.745 84.1074 469.694 84.5298 469.694 85.0083V85.3159C469.694 85.6919 469.745 86.0459 469.848 86.3779C469.955 86.7051 470.109 86.9932 470.309 87.2422C470.514 87.4912 470.761 87.6865 471.049 87.8281C471.342 87.9697 471.674 88.0405 472.045 88.0405C472.523 88.0405 472.929 87.9429 473.261 87.7476C473.593 87.5522 473.883 87.291 474.132 86.9639L474.953 87.6157C474.782 87.8745 474.564 88.1211 474.301 88.3555C474.037 88.5898 473.712 88.7803 473.327 88.9268C472.946 89.0732 472.494 89.1465 471.972 89.1465ZM477.992 82.3203V89H476.637V81.0752H477.956L477.992 82.3203ZM480.468 81.0312L480.46 82.291C480.348 82.2666 480.241 82.252 480.138 82.2471C480.041 82.2373 479.928 82.2324 479.801 82.2324C479.489 82.2324 479.213 82.2812 478.974 82.3789C478.734 82.4766 478.532 82.6133 478.366 82.7891C478.2 82.9648 478.068 83.1748 477.97 83.4189C477.877 83.6582 477.816 83.9219 477.787 84.21L477.406 84.4297C477.406 83.9512 477.453 83.502 477.545 83.082C477.643 82.6621 477.792 82.291 477.992 81.9688C478.192 81.6416 478.446 81.3877 478.754 81.207C479.066 81.0215 479.438 80.9287 479.867 80.9287C479.965 80.9287 480.077 80.9409 480.204 80.9653C480.331 80.9849 480.419 81.0068 480.468 81.0312ZM483.075 82.7671V89H481.72V81.0752H483.002L483.075 82.7671ZM482.753 84.7373L482.189 84.7153C482.194 84.1733 482.274 83.6729 482.431 83.2139C482.587 82.75 482.807 82.3472 483.09 82.0054C483.373 81.6636 483.71 81.3999 484.101 81.2144C484.496 81.0239 484.933 80.9287 485.412 80.9287C485.802 80.9287 486.154 80.9824 486.466 81.0898C486.779 81.1924 487.045 81.3584 487.265 81.5879C487.489 81.8174 487.66 82.1152 487.777 82.4814C487.895 82.8428 487.953 83.2847 487.953 83.8071V89H486.591V83.7925C486.591 83.3774 486.53 83.0454 486.408 82.7964C486.286 82.5425 486.107 82.3594 485.873 82.2471C485.639 82.1299 485.351 82.0713 485.009 82.0713C484.672 82.0713 484.364 82.1421 484.086 82.2837C483.812 82.4253 483.576 82.6206 483.375 82.8696C483.18 83.1187 483.026 83.4043 482.914 83.7266C482.807 84.0439 482.753 84.3809 482.753 84.7373ZM494.684 87.645V83.5654C494.684 83.2529 494.621 82.9819 494.494 82.7524C494.372 82.5181 494.186 82.3374 493.937 82.2104C493.688 82.0835 493.38 82.02 493.014 82.02C492.672 82.02 492.372 82.0786 492.113 82.1958C491.859 82.313 491.659 82.4668 491.513 82.6572C491.371 82.8477 491.3 83.0527 491.3 83.2725H489.945C489.945 82.9893 490.019 82.7085 490.165 82.4302C490.312 82.1519 490.521 81.9004 490.795 81.6758C491.073 81.4463 491.405 81.2656 491.791 81.1338C492.182 80.9971 492.616 80.9287 493.095 80.9287C493.671 80.9287 494.179 81.0264 494.618 81.2217C495.062 81.417 495.409 81.7124 495.658 82.1079C495.912 82.4985 496.039 82.9893 496.039 83.5801V87.2715C496.039 87.5352 496.061 87.8159 496.105 88.1138C496.154 88.4116 496.225 88.668 496.317 88.8828V89H494.904C494.835 88.8438 494.782 88.6362 494.743 88.3774C494.704 88.1138 494.684 87.8696 494.684 87.645ZM494.918 84.1953L494.933 85.1475H493.563C493.178 85.1475 492.833 85.1792 492.531 85.2427C492.228 85.3013 491.974 85.3916 491.769 85.5137C491.564 85.6357 491.408 85.7896 491.3 85.9751C491.193 86.1558 491.139 86.3682 491.139 86.6123C491.139 86.8613 491.195 87.0884 491.308 87.2935C491.42 87.4985 491.588 87.6621 491.813 87.7842C492.042 87.9014 492.323 87.96 492.655 87.96C493.07 87.96 493.437 87.8721 493.754 87.6963C494.071 87.5205 494.323 87.3057 494.508 87.0518C494.699 86.7979 494.801 86.5513 494.816 86.312L495.395 86.9639C495.36 87.1689 495.268 87.396 495.116 87.645C494.965 87.894 494.762 88.1333 494.508 88.3628C494.259 88.5874 493.961 88.7754 493.615 88.9268C493.273 89.0732 492.887 89.1465 492.458 89.1465C491.92 89.1465 491.449 89.0415 491.044 88.8315C490.644 88.6216 490.331 88.3408 490.106 87.9893C489.887 87.6328 489.777 87.2349 489.777 86.7954C489.777 86.3706 489.86 85.9971 490.026 85.6748C490.192 85.3477 490.431 85.0767 490.744 84.8618C491.056 84.6421 491.432 84.4761 491.872 84.3638C492.311 84.2515 492.802 84.1953 493.344 84.1953H494.918ZM499.643 77.75V89H498.28V77.75H499.643Z" fill="#0059FF"/>
<path d="M416 90.4648H500.785V91.1973H416V90.4648Z" fill="#0059FF"/>
<path d="M511.939 79.4688C511.939 79.7285 512.148 79.9375 512.408 79.9375H514.402L510.044 84.293C509.86 84.4766 509.86 84.7734 510.044 84.9551C510.227 85.1367 510.524 85.1387 510.706 84.9551L515.062 80.5996V82.5938C515.062 82.8535 515.271 83.0625 515.531 83.0625C515.791 83.0625 516 82.8535 516 82.5938V79.4688C516 79.209 515.791 79 515.531 79H512.408C512.148 79 511.939 79.209 511.939 79.4688ZM507.407 79.625C506.629 79.625 506 80.2539 506 81.0312V87.5938C506 88.3711 506.629 89 507.407 89H513.97C514.748 89 515.377 88.3711 515.377 87.5938V85.0938C515.377 84.834 515.168 84.625 514.908 84.625C514.648 84.625 514.439 84.834 514.439 85.0938V87.5938C514.439 87.8535 514.23 88.0625 513.97 88.0625H507.407C507.147 88.0625 506.938 87.8535 506.938 87.5938V81.0312C506.938 80.7715 507.147 80.5625 507.407 80.5625H509.907C510.167 80.5625 510.376 80.3535 510.376 80.0938C510.376 79.834 510.167 79.625 509.907 79.625H507.407Z" fill="#0059FF"/>
<path d="M800 111H0V113H800V111Z" fill="#E6E6E6" mask="url(#path-5-inside-2_9296_21164)"/>
</g>
<defs>
<clipPath id="clip0_9296_21164">
<rect width="800" height="112" fill="white"/>
</clipPath>
</defs>
</svg>
