<!-- Generated by IcoMoon.io -->
<svg version="1.1" xmlns="http://www.w3.org/2000/svg" width="24" height="24" viewBox="0 0 24 24">
<title>align-horizontal</title>
<path d="M4.5 5.125C4.52604 4.60417 4.70833 4.16146 5.04688 3.79688C5.41146 3.45833 5.85417 3.27604 6.375 3.25H8.875C9.39583 3.27604 9.83854 3.45833 10.2031 3.79688C10.5417 4.16146 10.724 4.60417 10.75 5.125V11.0625H13.25V7.625C13.276 7.10417 13.4583 6.66146 13.7969 6.29688C14.1615 5.95833 14.6042 5.77604 15.125 5.75H17.625C18.1458 5.77604 18.5885 5.95833 18.9531 6.29688C19.2917 6.66146 19.474 7.10417 19.5 7.625V11.0625H21.0625C21.6354 11.1146 21.9479 11.4271 22 12C21.9479 12.5729 21.6354 12.8854 21.0625 12.9375H19.5V16.375C19.474 16.8958 19.2917 17.3385 18.9531 17.7031C18.5885 18.0417 18.1458 18.224 17.625 18.25H15.125C14.6042 18.224 14.1615 18.0417 13.7969 17.7031C13.4583 17.3385 13.276 16.8958 13.25 16.375V12.9375H10.75V18.875C10.724 19.3958 10.5417 19.8385 10.2031 20.2031C9.83854 20.5417 9.39583 20.724 8.875 20.75H6.375C5.85417 20.724 5.41146 20.5417 5.04688 20.2031C4.70833 19.8385 4.52604 19.3958 4.5 18.875V12.9375H2.9375C2.36458 12.8854 2.05208 12.5729 2 12C2.05208 11.4271 2.36458 11.1146 2.9375 11.0625H4.5V5.125Z"></path>
</svg>
