<!-- Generated by IcoMoon.io -->
<svg version="1.1" xmlns="http://www.w3.org/2000/svg" width="24" height="24" viewBox="0 0 24 24">
<title>align-center-alt</title>
<path d="M15.75 5.74982H8.25C7.88542 5.74982 7.58594 5.63263 7.35156 5.39825C7.11719 5.16388 7 4.8644 7 4.49982C7 4.13523 7.11719 3.83575 7.35156 3.60138C7.58594 3.367 7.88542 3.24982 8.25 3.24982H15.75C16.1146 3.24982 16.4141 3.367 16.6484 3.60138C16.8828 3.83575 17 4.13523 17 4.49982C17 4.8644 16.8828 5.16388 16.6484 5.39825C16.4141 5.63263 16.1146 5.74982 15.75 5.74982ZM19.5 10.7498H4.5C4.13542 10.7498 3.83594 10.6326 3.60156 10.3983C3.36719 10.1639 3.25 9.8644 3.25 9.49982C3.25 9.13523 3.36719 8.83575 3.60156 8.60138C3.83594 8.367 4.13542 8.24982 4.5 8.24982H19.5C19.8646 8.24982 20.1641 8.367 20.3984 8.60138C20.6328 8.83575 20.75 9.13523 20.75 9.49982C20.75 9.8644 20.6328 10.1639 20.3984 10.3983C20.1641 10.6326 19.8646 10.7498 19.5 10.7498ZM3.25 19.4998C3.25 19.1352 3.36719 18.8358 3.60156 18.6014C3.83594 18.367 4.13542 18.2498 4.5 18.2498H19.5C19.8646 18.2498 20.1641 18.367 20.3984 18.6014C20.6328 18.8358 20.75 19.1352 20.75 19.4998C20.75 19.8644 20.6328 20.1639 20.3984 20.3983C20.1641 20.6326 19.8646 20.7498 19.5 20.7498H4.5C4.13542 20.7498 3.83594 20.6326 3.60156 20.3983C3.36719 20.1639 3.25 19.8644 3.25 19.4998ZM15.75 15.7498H8.25C7.88542 15.7498 7.58594 15.6326 7.35156 15.3983C7.11719 15.1639 7 14.8644 7 14.4998C7 14.1352 7.11719 13.8358 7.35156 13.6014C7.58594 13.367 7.88542 13.2498 8.25 13.2498H15.75C16.1146 13.2498 16.4141 13.367 16.6484 13.6014C16.8828 13.8358 17 14.1352 17 14.4998C17 14.8644 16.8828 15.1639 16.6484 15.3983C16.4141 15.6326 16.1146 15.7498 15.75 15.7498Z"></path>
</svg>
