<!-- Generated by IcoMoon.io -->
<svg version="1.1" xmlns="http://www.w3.org/2000/svg" width="24" height="24" viewBox="0 0 24 24">
<title>align-bottom</title>
<path d="M2.9375 22C2.36458 21.9479 2.05208 21.6354 2 21.0625C2.05208 20.4896 2.36458 20.1771 2.9375 20.125H21.0625C21.6354 20.1771 21.9479 20.4896 22 21.0625C21.9479 21.6354 21.6354 21.9479 21.0625 22H2.9375ZM4.5 3.875C4.52604 3.35417 4.70833 2.91146 5.04688 2.54688C5.41146 2.20833 5.85417 2.02604 6.375 2H8.875C9.39583 2.02604 9.83854 2.20833 10.2031 2.54688C10.5417 2.91146 10.724 3.35417 10.75 3.875V15.125C10.724 15.6458 10.5417 16.0885 10.2031 16.4531C9.83854 16.7917 9.39583 16.974 8.875 17H6.375C5.85417 16.974 5.41146 16.7917 5.04688 16.4531C4.70833 16.0885 4.52604 15.6458 4.5 15.125V3.875ZM13.25 8.875C13.276 8.35417 13.4583 7.91146 13.7969 7.54688C14.1615 7.20833 14.6042 7.02604 15.125 7H17.625C18.1458 7.02604 18.5885 7.20833 18.9531 7.54688C19.2917 7.91146 19.474 8.35417 19.5 8.875V15.125C19.474 15.6458 19.2917 16.0885 18.9531 16.4531C18.5885 16.7917 18.1458 16.974 17.625 17H15.125C14.6042 16.974 14.1615 16.7917 13.7969 16.4531C13.4583 16.0885 13.276 15.6458 13.25 15.125V8.875Z"></path>
</svg>
