<!-- Generated by IcoMoon.io -->
<svg version="1.1" xmlns="http://www.w3.org/2000/svg" width="24" height="24" viewBox="0 0 24 24">
<title>align-left</title>
<path d="M3 3.84375V20.1562C3 20.6238 3.37617 21 3.84375 21C4.31133 21 4.6875 20.6238 4.6875 20.1562V3.84375C4.6875 3.37617 4.31133 3 3.84375 3C3.37617 3 3 3.37617 3 3.84375ZM9.1875 5.25C8.25586 5.25 7.5 6.00586 7.5 6.9375V9.1875C7.5 10.1191 8.25586 10.875 9.1875 10.875H19.3125C20.2441 10.875 21 10.1191 21 9.1875V6.9375C21 6.00586 20.2441 5.25 19.3125 5.25H9.1875ZM9.1875 13.125C8.25586 13.125 7.5 13.8809 7.5 14.8125V17.0625C7.5 17.9941 8.25586 18.75 9.1875 18.75H14.8125C15.7441 18.75 16.5 17.9941 16.5 17.0625V14.8125C16.5 13.8809 15.7441 13.125 14.8125 13.125H9.1875Z"></path>
</svg>
