<!-- Generated by IcoMoon.io -->
<svg version="1.1" xmlns="http://www.w3.org/2000/svg" width="24" height="24" viewBox="0 0 24 24">
<title>align-top</title>
<path d="M21.0625 2C21.6354 2.05208 21.9479 2.36458 22 2.9375C21.9479 3.51042 21.6354 3.82292 21.0625 3.875H2.9375C2.36458 3.82292 2.05208 3.51042 2 2.9375C2.05208 2.36458 2.36458 2.05208 2.9375 2H21.0625ZM4.5 8.875C4.52604 8.35417 4.70833 7.91146 5.04688 7.54688C5.41146 7.20833 5.85417 7.02604 6.375 7H8.875C9.39583 7.02604 9.83854 7.20833 10.2031 7.54688C10.5417 7.91146 10.724 8.35417 10.75 8.875V20.125C10.724 20.6458 10.5417 21.0885 10.2031 21.4531C9.83854 21.7917 9.39583 21.974 8.875 22H6.375C5.85417 21.974 5.41146 21.7917 5.04688 21.4531C4.70833 21.0885 4.52604 20.6458 4.5 20.125V8.875ZM13.25 8.875C13.276 8.35417 13.4583 7.91146 13.7969 7.54688C14.1615 7.20833 14.6042 7.02604 15.125 7H17.625C18.1458 7.02604 18.5885 7.20833 18.9531 7.54688C19.2917 7.91146 19.474 8.35417 19.5 8.875V15.125C19.474 15.6458 19.2917 16.0885 18.9531 16.4531C18.5885 16.7917 18.1458 16.974 17.625 17H15.125C14.6042 16.974 14.1615 16.7917 13.7969 16.4531C13.4583 16.0885 13.276 15.6458 13.25 15.125V8.875Z"></path>
</svg>
