<!-- Generated by IcoMoon.io -->
<svg version="1.1" xmlns="http://www.w3.org/2000/svg" width="24" height="24" viewBox="0 0 24 24">
<title>align-right-alt</title>
<path d="M19.5 5.74982H10.75C10.3854 5.74982 10.0859 5.63263 9.85156 5.39825C9.61719 5.16388 9.5 4.8644 9.5 4.49982C9.5 4.13523 9.61719 3.83575 9.85156 3.60138C10.0859 3.367 10.3854 3.24982 10.75 3.24982H19.5C19.8646 3.24982 20.1641 3.367 20.3984 3.60138C20.6328 3.83575 20.75 4.13523 20.75 4.49982C20.75 4.8644 20.6328 5.16388 20.3984 5.39825C20.1641 5.63263 19.8646 5.74982 19.5 5.74982ZM19.5 15.7498H10.75C10.3854 15.7498 10.0859 15.6326 9.85156 15.3983C9.61719 15.1639 9.5 14.8644 9.5 14.4998C9.5 14.1352 9.61719 13.8358 9.85156 13.6014C10.0859 13.367 10.3854 13.2498 10.75 13.2498H19.5C19.8646 13.2498 20.1641 13.367 20.3984 13.6014C20.6328 13.8358 20.75 14.1352 20.75 14.4998C20.75 14.8644 20.6328 15.1639 20.3984 15.3983C20.1641 15.6326 19.8646 15.7498 19.5 15.7498ZM3.25 9.49982C3.25 9.13523 3.36719 8.83575 3.60156 8.60138C3.83594 8.367 4.13542 8.24982 4.5 8.24982H19.5C19.8646 8.24982 20.1641 8.367 20.3984 8.60138C20.6328 8.83575 20.75 9.13523 20.75 9.49982C20.75 9.8644 20.6328 10.1639 20.3984 10.3983C20.1641 10.6326 19.8646 10.7498 19.5 10.7498H4.5C4.13542 10.7498 3.83594 10.6326 3.60156 10.3983C3.36719 10.1639 3.25 9.8644 3.25 9.49982ZM19.5 20.7498H4.5C4.13542 20.7498 3.83594 20.6326 3.60156 20.3983C3.36719 20.1639 3.25 19.8644 3.25 19.4998C3.25 19.1352 3.36719 18.8358 3.60156 18.6014C3.83594 18.367 4.13542 18.2498 4.5 18.2498H19.5C19.8646 18.2498 20.1641 18.367 20.3984 18.6014C20.6328 18.8358 20.75 19.1352 20.75 19.4998C20.75 19.8644 20.6328 20.1639 20.3984 20.3983C20.1641 20.6326 19.8646 20.7498 19.5 20.7498Z"></path>
</svg>
