<!-- Generated by IcoMoon.io -->
<svg version="1.1" xmlns="http://www.w3.org/2000/svg" width="24" height="24" viewBox="0 0 24 24">
<title>align-center</title>
<path d="M12 2.60071C11.4656 2.60071 11.0357 2.99357 11.0357 3.48189V4.95053H4.92857C3.86384 4.95053 3 5.73992 3 6.7129V9.06272C3 10.0357 3.86384 10.8251 4.92857 10.8251H11.0357V13.1749H7.5C6.43527 13.1749 5.57143 13.9643 5.57143 14.9373V17.2871C5.57143 18.2601 6.43527 19.0495 7.5 19.0495H11.0357V20.5181C11.0357 21.0064 11.4656 21.3993 12 21.3993C12.5344 21.3993 12.9643 21.0064 12.9643 20.5181V19.0495H16.5C17.5647 19.0495 18.4286 18.2601 18.4286 17.2871V14.9373C18.4286 13.9643 17.5647 13.1749 16.5 13.1749H12.9643V10.8251H19.0714C20.1362 10.8251 21 10.0357 21 9.06272V6.7129C21 5.73992 20.1362 4.95053 19.0714 4.95053H12.9643V3.48189C12.9643 2.99357 12.5344 2.60071 12 2.60071Z"></path>
</svg>
