<!-- Generated by IcoMoon.io -->
<svg version="1.1" xmlns="http://www.w3.org/2000/svg" width="24" height="24" viewBox="0 0 24 24">
<title>align-left-alt</title>
<path d="M13.25 5.74982H4.5C4.13542 5.74982 3.83594 5.63263 3.60156 5.39825C3.36719 5.16388 3.25 4.8644 3.25 4.49982C3.25 4.13523 3.36719 3.83575 3.60156 3.60138C3.83594 3.367 4.13542 3.24982 4.5 3.24982H13.25C13.6146 3.24982 13.9141 3.367 14.1484 3.60138C14.3828 3.83575 14.5 4.13523 14.5 4.49982C14.5 4.8644 14.3828 5.16388 14.1484 5.39825C13.9141 5.63263 13.6146 5.74982 13.25 5.74982ZM13.25 15.7498H4.5C4.13542 15.7498 3.83594 15.6326 3.60156 15.3983C3.36719 15.1639 3.25 14.8644 3.25 14.4998C3.25 14.1352 3.36719 13.8358 3.60156 13.6014C3.83594 13.367 4.13542 13.2498 4.5 13.2498H13.25C13.6146 13.2498 13.9141 13.367 14.1484 13.6014C14.3828 13.8358 14.5 14.1352 14.5 14.4998C14.5 14.8644 14.3828 15.1639 14.1484 15.3983C13.9141 15.6326 13.6146 15.7498 13.25 15.7498ZM3.25 9.49982C3.25 9.13523 3.36719 8.83575 3.60156 8.60138C3.83594 8.367 4.13542 8.24982 4.5 8.24982H19.5C19.8646 8.24982 20.1641 8.367 20.3984 8.60138C20.6328 8.83575 20.75 9.13523 20.75 9.49982C20.75 9.8644 20.6328 10.1639 20.3984 10.3983C20.1641 10.6326 19.8646 10.7498 19.5 10.7498H4.5C4.13542 10.7498 3.83594 10.6326 3.60156 10.3983C3.36719 10.1639 3.25 9.8644 3.25 9.49982ZM19.5 20.7498H4.5C4.13542 20.7498 3.83594 20.6326 3.60156 20.3983C3.36719 20.1639 3.25 19.8644 3.25 19.4998C3.25 19.1352 3.36719 18.8358 3.60156 18.6014C3.83594 18.367 4.13542 18.2498 4.5 18.2498H19.5C19.8646 18.2498 20.1641 18.367 20.3984 18.6014C20.6328 18.8358 20.75 19.1352 20.75 19.4998C20.75 19.8644 20.6328 20.1639 20.3984 20.3983C20.1641 20.6326 19.8646 20.7498 19.5 20.7498Z"></path>
</svg>
