<!-- Generated by IcoMoon.io -->
<svg version="1.1" xmlns="http://www.w3.org/2000/svg" width="24" height="24" viewBox="0 0 24 24">
<title>arrow-down</title>
<path d="M12 2c0.587 0 1.063 0.481 1.063 1.074v15.173l5.605-5.936c0.405-0.431 1.081-0.446 1.503-0.036 0.425 0.41 0.44 1.089 0.036 1.518l-7.438 7.873c-0.198 0.214-0.477 0.334-0.769 0.334s-0.567-0.12-0.77-0.333l-7.438-7.873c-0.402-0.427-0.387-1.107 0.038-1.519 0.421-0.41 1.096-0.394 1.503 0.036l5.605 5.936v-15.214c0-0.591 0.479-1.034 1.063-1.034z"></path>
</svg>
