<!-- Generated by IcoMoon.io -->
<svg version="1.1" xmlns="http://www.w3.org/2000/svg" width="24" height="24" viewBox="0 0 24 24">
<title>arrow-left</title>
<path d="M22 12c0 0.587-0.481 1.063-1.074 1.063h-15.173l5.936 5.605c0.431 0.405 0.446 1.081 0.036 1.503-0.41 0.425-1.089 0.44-1.518 0.036l-7.873-7.438c-0.214-0.198-0.334-0.477-0.334-0.769s0.12-0.567 0.333-0.77l7.873-7.438c0.427-0.402 1.107-0.387 1.519 0.038 0.41 0.421 0.394 1.096-0.036 1.503l-5.936 5.605h15.214c0.591 0 1.034 0.479 1.034 1.063z"></path>
</svg>
