<!-- Generated by IcoMoon.io -->
<svg version="1.1" xmlns="http://www.w3.org/2000/svg" width="24" height="24" viewBox="0 0 24 24">
<title>async</title>
<path d="M10.2795 8.77852C10.1701 9.03334 9.92187 9.19809 9.6734 9.19809L7.37537 9.19751V18.7383C7.37537 19.1239 7.06658 19.4367 6.68597 19.4367C6.30536 19.4367 5.99656 19.1239 5.99656 18.7383V9.19751H3.67268C3.39844 9.19751 3.15017 9.03288 3.04072 8.77793C2.95713 8.52246 3.00683 8.22568 3.19325 8.02491L6.18069 4.76316C6.45358 4.4655 6.91864 4.4655 7.19153 4.76316L10.179 8.02491C10.3657 8.22568 10.4145 8.52246 10.2795 8.77852Z" />
<path d="M11.422 5.07277C11.422 4.77849 11.6606 4.53992 11.9549 4.53992H14.0863C14.3806 4.53992 14.6192 4.77849 14.6192 5.07277V6.13849C14.6192 6.43278 14.3806 6.67135 14.0863 6.67135H11.9549C11.6606 6.67135 11.422 6.43278 11.422 6.13849V5.07277Z" />
<path d="M11.422 9.33563C11.422 9.04134 11.6606 8.80277 11.9549 8.80277H16.1961C16.4904 8.80277 16.729 9.04134 16.729 9.33563V10.4013C16.729 10.6956 16.4904 10.9342 16.1961 10.9342H11.9549C11.6606 10.9342 11.422 10.6956 11.422 10.4013V9.33563Z" />
<path d="M11.422 13.5985C11.422 13.3042 11.6606 13.0656 11.9549 13.0656H18.3425C18.6368 13.0656 18.8754 13.3042 18.8754 13.5985V14.6642C18.8754 14.9585 18.6368 15.1971 18.3425 15.1971H11.9549C11.6606 15.1971 11.422 14.9585 11.422 14.6642V13.5985Z" />
<path d="M11.422 17.8613C11.422 17.5671 11.6606 17.3285 11.9549 17.3285H20.4656C20.7599 17.3285 20.9985 17.5671 20.9985 17.8613V18.9271C20.9985 19.2213 20.7599 19.4599 20.4656 19.4599H11.9549C11.6606 19.4599 11.422 19.2213 11.422 18.9271V17.8613Z" />
</svg>
