<!-- Generated by IcoMoon.io -->
<svg version="1.1" xmlns="http://www.w3.org/2000/svg" width="24" height="24" viewBox="0 0 24 24">
<title>bell</title>
<path d="M13.286 3.25v0.698c2.913 0.45 5.143 2.903 5.143 5.864v1.305c0 1.773 0.623 3.496 1.76 4.883l0.599 0.727c0.233 0.281 0.277 0.668 0.117 0.992s-0.498 0.531-0.868 0.531h-16.072c-0.371 0-0.709-0.207-0.869-0.531s-0.115-0.711 0.116-0.992l0.599-0.727c1.14-1.387 1.761-3.109 1.761-4.883v-1.305c0-2.961 2.23-5.414 5.143-5.864v-0.698c0-0.69 0.575-1.25 1.286-1.25s1.286 0.56 1.286 1.25zM11.679 5.75c-2.306 0-4.179 1.82-4.179 4.062v1.305c0 1.871-0.558 3.695-1.595 5.258h12.19c-1.037-1.563-1.595-3.387-1.595-5.258v-1.305c0-2.242-1.872-4.062-4.179-4.062h-0.643zM14.572 19.5c0 0.629-0.269 1.301-0.751 1.77s-1.173 0.73-1.82 0.73c-0.683 0-1.338-0.262-1.82-0.73s-0.751-1.141-0.751-1.77h5.143z"></path>
</svg>
