<!-- Generated by IcoMoon.io -->
<svg version="1.1" xmlns="http://www.w3.org/2000/svg" width="24" height="24" viewBox="0 0 24 24">
<title>broom</title>
<path d="M21.7246 3.59842C22.0918 3.23117 22.0918 2.63732 21.7246 2.27397C21.3575 1.91063 20.7638 1.90672 20.4005 2.27397L15.0847 7.58348L14.5808 7.07948C13.7918 6.29029 12.5732 6.11838 11.6006 6.66144L2.64056 11.6428C2.24607 11.8616 2 12.2796 2 12.7328C2 13.0649 2.1328 13.3813 2.36325 13.6158L10.3859 21.6367C10.6203 21.8711 10.9366 22 11.2686 22C11.7217 22 12.1396 21.7539 12.3584 21.3593L17.3344 12.3968C17.8774 11.4201 17.7055 10.205 16.9165 9.41582L16.4127 8.91183L21.7246 3.59842ZM14.6394 13.3892L11.1241 19.7223L7.35104 15.9482L8.0541 13.8424C8.13612 13.5962 7.90177 13.3657 7.6596 13.4478L5.55043 14.1471L4.28103 12.8773L10.6124 9.36112L14.6394 13.3892Z"></path>
</svg>
