<!-- Generated by IcoMoon.io -->
<svg version="1.1" xmlns="http://www.w3.org/2000/svg" width="24" height="24" viewBox="0 0 24 24">
<title>brush</title>
<path d="M6.375 13.25V4.5C6.375 4.15625 6.65625 3.875 7 3.875H8.25V7.625C8.25 7.96875 8.53125 8.25 8.875 8.25C9.21875 8.25 9.5 7.96875 9.5 7.625V3.875H12V6.375C12 6.71875 12.2812 7 12.625 7C12.9688 7 13.25 6.71875 13.25 6.375V3.875H17C17.3438 3.875 17.625 4.15625 17.625 4.5V13.25H6.375ZM4.5 14.5C4.5 15.8789 5.62109 17 7 17H9.5V19.5C9.5 20.8789 10.6211 22 12 22C13.3789 22 14.5 20.8789 14.5 19.5V17H17C18.3789 17 19.5 15.8789 19.5 14.5V4.5C19.5 3.12109 18.3789 2 17 2H7C5.62109 2 4.5 3.12109 4.5 4.5V14.5ZM12 18.875C12.1658 18.875 12.3247 18.9408 12.4419 19.0581C12.5592 19.1753 12.625 19.3342 12.625 19.5C12.625 19.6658 12.5592 19.8247 12.4419 19.9419C12.3247 20.0592 12.1658 20.125 12 20.125C11.8342 20.125 11.6753 20.0592 11.5581 19.9419C11.4408 19.8247 11.375 19.6658 11.375 19.5C11.375 19.3342 11.4408 19.1753 11.5581 19.0581C11.6753 18.9408 11.8342 18.875 12 18.875Z"></path>
</svg>
