<!-- Generated by IcoMoon.io -->
<svg version="1.1" xmlns="http://www.w3.org/2000/svg" width="24" height="24" viewBox="0 0 24 24">
<title>bug</title>
<path d="M12 2C14.0703 2 15.75 3.67952 15.75 5.74963V5.89024C15.75 6.50347 15.2539 6.99951 14.6406 6.99951H9.35938C8.74609 6.99951 8.25 6.50347 8.25 5.89024V5.74963C8.25 3.67952 9.92969 2 12 2ZM3.52344 6.02304C3.89062 5.65589 4.48438 5.65589 4.84766 6.02304L7.67578 8.85089C8.30078 8.47202 9.03125 8.24939 9.8125 8.24939H14.1875C14.9688 8.24939 15.6992 8.47202 16.3203 8.8548L19.1484 6.02304C19.5156 5.65589 20.1094 5.65589 20.4727 6.02304C20.8359 6.3902 20.8398 6.98389 20.4727 7.34713L17.6445 10.175C18.0273 10.7999 18.25 11.5303 18.25 12.3115H21.0625C21.582 12.3115 22 12.7294 22 13.2489C22 13.7684 21.582 14.1863 21.0625 14.1863H18.25V14.4988C18.25 15.5612 17.9844 16.5611 17.5156 17.4399L20.4766 20.3966C20.8438 20.7638 20.8438 21.3575 20.4766 21.7207C20.1094 22.084 19.5156 22.0879 19.1523 21.7207L16.3828 18.9515C15.2539 20.0646 13.707 20.7482 12 20.7482C10.293 20.7482 8.74609 20.0646 7.61719 18.9554L4.85156 21.7246C4.48438 22.0918 3.89062 22.0918 3.52734 21.7246C3.16406 21.3575 3.16016 20.7638 3.52734 20.4005L6.48828 17.4399C6.01562 16.5611 5.75 15.5612 5.75 14.4988V14.1863H2.9375C2.41797 14.1863 2 13.7684 2 13.2489C2 12.7294 2.41797 12.3115 2.9375 12.3115H5.75C5.75 11.5303 5.97266 10.7999 6.35547 10.1789L3.52344 7.35104C3.15625 6.98389 3.15625 6.3902 3.52344 6.02695V6.02304ZM7.625 12.3115V14.4988C7.625 16.5923 9.09766 18.3422 11.0625 18.7718V12.9364C11.0625 12.417 11.4805 11.999 12 11.999C12.5195 11.999 12.9375 12.417 12.9375 12.9364V18.7718C14.9023 18.3422 16.375 16.5923 16.375 14.4988V12.3115C16.375 11.1046 15.3945 10.1242 14.1875 10.1242H9.8125C8.60547 10.1242 7.625 11.1046 7.625 12.3115Z"></path>
</svg>
