<!-- Generated by IcoMoon.io -->
<svg version="1.1" xmlns="http://www.w3.org/2000/svg" width="24" height="24" viewBox="0 0 24 24">
<title>calculator-alt</title>
<path d="M12 2C12.5195 2 12.9375 2.41797 12.9375 2.9375V11.0625H21.0625C21.582 11.0625 22 11.4805 22 12C22 12.5195 21.582 12.9375 21.0625 12.9375H12.9375V21.0625C12.9375 21.582 12.5195 22 12 22C11.4805 22 11.0625 21.582 11.0625 21.0625V12.9375H2.9375C2.41797 12.9375 2 12.5195 2 12C2 11.4805 2.41797 11.0625 2.9375 11.0625H11.0625V2.9375C11.0625 2.41797 11.4805 2 12 2ZM17.625 3.25C18.1445 3.25 18.5625 3.66797 18.5625 4.1875V5.4375H19.8125C20.332 5.4375 20.75 5.85547 20.75 6.375C20.75 6.89453 20.332 7.3125 19.8125 7.3125H18.5625V8.5625C18.5625 9.08203 18.1445 9.5 17.625 9.5C17.1055 9.5 16.6875 9.08203 16.6875 8.5625V7.3125H15.4375C14.918 7.3125 14.5 6.89453 14.5 6.375C14.5 5.85547 14.918 5.4375 15.4375 5.4375H16.6875V4.1875C16.6875 3.66797 17.1055 3.25 17.625 3.25ZM4.16406 15.4141C4.53125 15.0469 5.125 15.0469 5.48828 15.4141L6.375 16.3008L7.25781 15.418C7.625 15.0508 8.21875 15.0508 8.58203 15.418C8.94531 15.7852 8.94922 16.3789 8.58203 16.7422L7.69922 17.625L8.58203 18.5078C8.94922 18.875 8.94922 19.4688 8.58203 19.832C8.21484 20.1953 7.62109 20.1992 7.25781 19.832L6.375 18.9492L5.49219 19.8359C5.125 20.2031 4.53125 20.2031 4.16797 19.8359C3.80469 19.4688 3.80078 18.875 4.16797 18.5117L5.05078 17.625L4.16406 16.7422C3.79688 16.375 3.79688 15.7812 4.16406 15.418V15.4141ZM4.5 5.4375H8.25C8.76953 5.4375 9.1875 5.85547 9.1875 6.375C9.1875 6.89453 8.76953 7.3125 8.25 7.3125H4.5C3.98047 7.3125 3.5625 6.89453 3.5625 6.375C3.5625 5.85547 3.98047 5.4375 4.5 5.4375ZM15.75 15.125H19.5C20.0195 15.125 20.4375 15.543 20.4375 16.0625C20.4375 16.582 20.0195 17 19.5 17H15.75C15.2305 17 14.8125 16.582 14.8125 16.0625C14.8125 15.543 15.2305 15.125 15.75 15.125ZM15.75 18.25H19.5C20.0195 18.25 20.4375 18.668 20.4375 19.1875C20.4375 19.707 20.0195 20.125 19.5 20.125H15.75C15.2305 20.125 14.8125 19.707 14.8125 19.1875C14.8125 18.668 15.2305 18.25 15.75 18.25Z"></path>
</svg>
