<!-- Generated by IcoMoon.io -->
<svg version="1.1" xmlns="http://www.w3.org/2000/svg" width="24" height="24" viewBox="0 0 24 24">
<title>calculator</title>
<path d="M17.125 8.875V19.5C17.125 19.8438 16.8438 20.125 16.5 20.125H6.5C6.15625 20.125 5.875 19.8438 5.875 19.5V8.875H17.125ZM17.125 7H5.875V4.5C5.875 4.15625 6.15625 3.875 6.5 3.875H16.5C16.8438 3.875 17.125 4.15625 17.125 4.5V7ZM19 7V4.5C19 3.12109 17.8789 2 16.5 2H6.5C5.12109 2 4 3.12109 4 4.5V7V7.9375V8.875V19.5C4 20.8789 5.12109 22 6.5 22H16.5C17.8789 22 19 20.8789 19 19.5V8.875V7.9375V7ZM7.125 11.0625C7.125 11.3111 7.22377 11.5496 7.39959 11.7254C7.5754 11.9012 7.81386 12 8.0625 12C8.31114 12 8.5496 11.9012 8.72541 11.7254C8.90123 11.5496 9 11.3111 9 11.0625C9 10.8139 8.90123 10.5754 8.72541 10.3996C8.5496 10.2238 8.31114 10.125 8.0625 10.125C7.81386 10.125 7.5754 10.2238 7.39959 10.3996C7.22377 10.5754 7.125 10.8139 7.125 11.0625ZM8.0625 13.5625C7.81386 13.5625 7.5754 13.6613 7.39959 13.8371C7.22377 14.0129 7.125 14.2514 7.125 14.5C7.125 14.7486 7.22377 14.9871 7.39959 15.1629C7.5754 15.3387 7.81386 15.4375 8.0625 15.4375C8.31114 15.4375 8.5496 15.3387 8.72541 15.1629C8.90123 14.9871 9 14.7486 9 14.5C9 14.2514 8.90123 14.0129 8.72541 13.8371C8.5496 13.6613 8.31114 13.5625 8.0625 13.5625ZM7.125 17.9375C7.125 18.457 7.54297 18.875 8.0625 18.875H11.5C12.0195 18.875 12.4375 18.457 12.4375 17.9375C12.4375 17.418 12.0195 17 11.5 17H8.0625C7.54297 17 7.125 17.418 7.125 17.9375ZM11.5 10.125C11.2514 10.125 11.0129 10.2238 10.8371 10.3996C10.6613 10.5754 10.5625 10.8139 10.5625 11.0625C10.5625 11.3111 10.6613 11.5496 10.8371 11.7254C11.0129 11.9012 11.2514 12 11.5 12C11.7486 12 11.9871 11.9012 12.1629 11.7254C12.3387 11.5496 12.4375 11.3111 12.4375 11.0625C12.4375 10.8139 12.3387 10.5754 12.1629 10.3996C11.9871 10.2238 11.7486 10.125 11.5 10.125ZM10.5625 14.5C10.5625 14.7486 10.6613 14.9871 10.8371 15.1629C11.0129 15.3387 11.2514 15.4375 11.5 15.4375C11.7486 15.4375 11.9871 15.3387 12.1629 15.1629C12.3387 14.9871 12.4375 14.7486 12.4375 14.5C12.4375 14.2514 12.3387 14.0129 12.1629 13.8371C11.9871 13.6613 11.7486 13.5625 11.5 13.5625C11.2514 13.5625 11.0129 13.6613 10.8371 13.8371C10.6613 14.0129 10.5625 14.2514 10.5625 14.5ZM14.9375 10.125C14.6889 10.125 14.4504 10.2238 14.2746 10.3996C14.0988 10.5754 14 10.8139 14 11.0625C14 11.3111 14.0988 11.5496 14.2746 11.7254C14.4504 11.9012 14.6889 12 14.9375 12C15.1861 12 15.4246 11.9012 15.6004 11.7254C15.7762 11.5496 15.875 11.3111 15.875 11.0625C15.875 10.8139 15.7762 10.5754 15.6004 10.3996C15.4246 10.2238 15.1861 10.125 14.9375 10.125ZM14 14.5C14 14.7486 14.0988 14.9871 14.2746 15.1629C14.4504 15.3387 14.6889 15.4375 14.9375 15.4375C15.1861 15.4375 15.4246 15.3387 15.6004 15.1629C15.7762 14.9871 15.875 14.7486 15.875 14.5C15.875 14.2514 15.7762 14.0129 15.6004 13.8371C15.4246 13.6613 15.1861 13.5625 14.9375 13.5625C14.6889 13.5625 14.4504 13.6613 14.2746 13.8371C14.0988 14.0129 14 14.2514 14 14.5ZM14.9375 17C14.6889 17 14.4504 17.0988 14.2746 17.2746C14.0988 17.4504 14 17.6889 14 17.9375C14 18.1861 14.0988 18.4246 14.2746 18.6004C14.4504 18.7762 14.6889 18.875 14.9375 18.875C15.1861 18.875 15.4246 18.7762 15.6004 18.6004C15.7762 18.4246 15.875 18.1861 15.875 17.9375C15.875 17.6889 15.7762 17.4504 15.6004 17.2746C15.4246 17.0988 15.1861 17 14.9375 17Z"></path>
</svg>
