<!-- Generated by IcoMoon.io -->
<svg version="1.1" xmlns="http://www.w3.org/2000/svg" width="24" height="24" viewBox="0 0 24 24">
<title>captcha</title>
<path d="M6.21099 2.67643C6.57818 3.04787 6.88287 3.36067 6.88287 3.37631C6.88287 3.38804 6.73052 3.50534 6.53912 3.63437C5.23834 4.52584 4.16802 5.64019 3.44537 6.85619C2.67193 8.15821 2.17974 9.66355 2.05474 11.0985L2.0274 11.423H6.49224L6.50787 11.3331C6.5177 11.2937 6.54405 11.1497 6.57305 10.9911L6.5899 10.8991C6.80474 9.75348 7.51568 8.53748 8.41021 7.8024C8.92584 7.38013 9.29302 7.15726 9.94927 6.87183L10.2618 6.73498L10.8399 7.30975L11.4141 7.88451V2H5.53521L6.21099 2.67643Z" />
<path d="M12.5859 6.49647L12.6758 6.51211C12.7151 6.52196 12.859 6.54833 13.0174 6.57735L13.1094 6.59422C14.2539 6.80927 15.4688 7.52088 16.2031 8.41627C16.625 8.93239 16.8477 9.29992 17.1328 9.9568L17.2695 10.2696L16.6953 10.8444L16.1211 11.423H22V5.53853L21.3164 6.22277C20.9023 6.63723 20.6211 6.89138 20.6016 6.86792C20.582 6.84446 20.4219 6.62159 20.2422 6.36744C19.1719 4.85037 17.9063 3.76731 16.3164 3.00095C15.2695 2.49266 14.0273 2.15249 12.8906 2.05474L12.5859 2.02737V6.49647Z" />
<path d="M2 18.4806V12.5961H7.87891L7.30469 13.1708L6.73047 13.7495L6.86719 14.0623C7.37109 15.2236 8.00391 15.9978 8.96875 16.6312C9.88281 17.2333 10.8867 17.5305 12 17.5305C13.3594 17.5305 14.6055 17.0652 15.6328 16.1776C15.7734 16.0564 15.8945 15.9587 15.9063 15.9587C15.918 15.9587 16.6289 16.6624 17.4883 17.5266L19.0508 19.0905L18.7578 19.3642C18.418 19.6849 17.8398 20.1345 17.4492 20.3847C13.543 22.9067 8.47656 22.4375 5.11328 19.243C4.62109 18.7738 4.21484 18.2968 3.75781 17.6517C3.57812 17.3975 3.41797 17.1747 3.39844 17.1512C3.37891 17.1277 3.09766 17.3819 2.68359 17.7963L2 18.4806Z" />
</svg>
