<!-- Generated by IcoMoon.io -->
<svg version="1.1" xmlns="http://www.w3.org/2000/svg" width="24" height="24" viewBox="0 0 24 24">
<title>caret-down-alt</title>
<path d="M19.1429 19.8571C19.5357 19.8571 19.8571 19.5357 19.8571 19.1429V4.85714C19.8571 4.46429 19.5357 4.14286 19.1429 4.14286H4.85714C4.46429 4.14286 4.14286 4.46429 4.14286 4.85714V19.1429C4.14286 19.5357 4.46429 19.8571 4.85714 19.8571H19.1429ZM22 19.1429C22 20.7188 20.7188 22 19.1429 22H4.85714C3.28125 22 2 20.7188 2 19.1429V4.85714C2 3.28125 3.28125 2 4.85714 2H19.1429C20.7188 2 22 3.28125 22 4.85714V19.1429ZM12 16.2857C11.7009 16.2857 11.4196 16.1607 11.2143 15.942L6.57143 10.942C6.28125 10.6295 6.20536 10.1741 6.375 9.78571C6.54464 9.39732 6.93304 9.14286 7.35714 9.14286H16.6429C17.067 9.14286 17.4554 9.39732 17.625 9.78571C17.7946 10.1741 17.7188 10.6295 17.4286 10.942L12.7857 15.942C12.5848 16.1607 12.2991 16.2857 12 16.2857Z"></path>
</svg>
