<!-- Generated by IcoMoon.io -->
<svg version="1.1" xmlns="http://www.w3.org/2000/svg" width="24" height="24" viewBox="0 0 24 24">
<title>caret-up-alt</title>
<path d="M19.1429 4.14286C19.5357 4.14286 19.8571 4.46428 19.8571 4.85714V19.1429C19.8571 19.5357 19.5357 19.8571 19.1429 19.8571H4.85714C4.46429 19.8571 4.14286 19.5357 4.14286 19.1429V4.85714C4.14286 4.46428 4.46429 4.14286 4.85714 4.14286H19.1429ZM22 4.85714C22 3.28125 20.7188 2 19.1429 2H4.85714C3.28125 2 2 3.28125 2 4.85714V19.1429C2 20.7187 3.28125 22 4.85714 22H19.1429C20.7188 22 22 20.7187 22 19.1429V4.85714ZM12 7.71428C11.7009 7.71428 11.4196 7.83929 11.2143 8.05804L6.57143 13.058C6.28125 13.3705 6.20536 13.8259 6.375 14.2143C6.54464 14.6027 6.93304 14.8571 7.35714 14.8571H16.6429C17.067 14.8571 17.4554 14.6027 17.625 14.2143C17.7946 13.8259 17.7188 13.3705 17.4286 13.058L12.7857 8.05804C12.5848 7.83929 12.2991 7.71428 12 7.71428Z"></path>
</svg>
