<!-- Generated by IcoMoon.io -->
<svg version="1.1" xmlns="http://www.w3.org/2000/svg" width="24" height="24" viewBox="0 0 24 24">
<title>caret-right-alt</title>
<path d="M19.8571 4.85714C19.8571 4.46428 19.5357 4.14286 19.1429 4.14286H4.85714C4.46429 4.14286 4.14286 4.46428 4.14286 4.85714L4.14286 19.1429C4.14286 19.5357 4.46429 19.8571 4.85714 19.8571H19.1429C19.5357 19.8571 19.8571 19.5357 19.8571 19.1429V4.85714ZM19.1429 2C20.7188 2 22 3.28125 22 4.85714V19.1429C22 20.7187 20.7188 22 19.1429 22H4.85714C3.28125 22 2 20.7187 2 19.1429L2 4.85714C2 3.28125 3.28125 2 4.85714 2H19.1429ZM16.2857 12C16.2857 12.2991 16.1607 12.5804 15.942 12.7857L10.942 17.4286C10.6295 17.7188 10.1741 17.7946 9.78571 17.625C9.39732 17.4554 9.14286 17.067 9.14286 16.6429V7.35714C9.14286 6.93303 9.39732 6.54464 9.78571 6.375C10.1741 6.20536 10.6295 6.28125 10.942 6.57143L15.942 11.2143C16.1607 11.4152 16.2857 11.7009 16.2857 12Z"></path>
</svg>
