<!-- Generated by IcoMoon.io -->
<svg version="1.1" xmlns="http://www.w3.org/2000/svg" width="24" height="24" viewBox="0 0 24 24">
<title>cart</title>
<path d="M5.346 3c0.401 0 0.746 0.288 0.823 0.686l0.052 0.439h14.665c0.708 0 1.272 0.712 1.074 1.429l-1.882 6.751c-0.136 0.485-0.575 0.819-1.074 0.819h-11.054l0.321 1.688h10.74c0.464 0 0.837 0.376 0.837 0.844s-0.373 0.844-0.837 0.844h-11.465c-0.369 0-0.715-0.288-0.791-0.686l-2.101-11.127h-1.818c-0.462 0-0.837-0.378-0.837-0.844s0.375-0.844 0.837-0.844h2.51zM18.579 11.438l1.569-5.625h-13.577l1.063 5.625h10.945zM6.462 19.313c0-0.932 0.749-1.688 1.673-1.688s1.673 0.756 1.673 1.688c0 0.932-0.749 1.688-1.673 1.688s-1.673-0.756-1.673-1.688zM19.847 19.313c0 0.932-0.749 1.688-1.673 1.688s-1.673-0.756-1.673-1.688 0.749-1.688 1.673-1.688c0.924 0 1.673 0.756 1.673 1.688z"></path>
</svg>
