<!-- Generated by IcoMoon.io -->
<svg version="1.1" xmlns="http://www.w3.org/2000/svg" width="25" height="24" viewBox="0 0 25 24">
<title>chart-alt</title>
<path d="M15.752 9.534c-0.41 0.409-1.040 0.421-1.497 0.061l-4.229-3.319-5.495 4.567c-0.539 0.487-1.326 0.397-1.758-0.205-0.431-0.528-0.344-1.35 0.195-1.805l6.253-5.238c0.446-0.373 1.075-0.383 1.532-0.025l4.229 3.319 5.495-4.603c0.539-0.452 1.325-0.36 1.723 0.205 0.465 0.565 0.379 1.389-0.195 1.841l-6.253 5.202zM8.454 12.833c0-0.724 0.559-1.309 1.251-1.309s1.251 0.585 1.251 1.309v7.857c0 0.724-0.559 1.309-1.251 1.309s-1.251-0.585-1.251-1.309v-7.857zM3.451 16.762c0-0.724 0.56-1.309 1.251-1.309s1.251 0.585 1.251 1.309v3.929c0 0.724-0.56 1.309-1.251 1.309s-1.251-0.585-1.251-1.309v-3.929zM15.957 15.452v5.238c0 0.724-0.559 1.309-1.251 1.309s-1.251-0.585-1.251-1.309v-5.238c0-0.724 0.559-1.309 1.251-1.309s1.251 0.585 1.251 1.309zM18.458 12.833c0-0.724 0.559-1.309 1.251-1.309s1.251 0.585 1.251 1.309v7.857c0 0.724-0.559 1.309-1.251 1.309s-1.251-0.585-1.251-1.309v-7.857z"></path>
</svg>
