<!-- Generated by IcoMoon.io -->
<svg version="1.1" xmlns="http://www.w3.org/2000/svg" width="24" height="24" viewBox="0 0 24 24">
<title>checkbox-checked</title>
<path d="M4.85714 4.14286C4.46429 4.14286 4.14286 4.46429 4.14286 4.85714V19.1429C4.14286 19.5357 4.46429 19.8571 4.85714 19.8571H19.1429C19.5357 19.8571 19.8571 19.5357 19.8571 19.1429V4.85714C19.8571 4.46429 19.5357 4.14286 19.1429 4.14286H4.85714ZM2 4.85714C2 3.28125 3.28125 2 4.85714 2H19.1429C20.7188 2 22 3.28125 22 4.85714V19.1429C22 20.7188 20.7188 22 19.1429 22H4.85714C3.28125 22 2 20.7188 2 19.1429V4.85714ZM17.0446 9.90179L11.3304 15.6161C10.9107 16.0357 10.2321 16.0357 9.81696 15.6161L6.95982 12.7589C6.54018 12.3393 6.54018 11.6607 6.95982 11.2455C7.37946 10.8304 8.05804 10.8259 8.47321 11.2455L10.5714 13.3438L15.5268 8.38393C15.9464 7.96429 16.625 7.96429 17.0402 8.38393C17.4554 8.80357 17.4598 9.48214 17.0402 9.89732L17.0446 9.90179Z"></path>
</svg>
