<!-- Generated by IcoMoon.io -->
<svg version="1.1" xmlns="http://www.w3.org/2000/svg" width="24" height="24" viewBox="0 0 24 24">
<title>checkbox-checked-alt</title>
<path d="M6 2C3.79086 2 2 3.79086 2 6V18C2 20.2091 3.79086 22 6 22H18C20.2091 22 22 20.2091 22 18V6C22 3.79086 20.2091 2 18 2H6ZM6.33784 12.1659L10.2378 16.0883C10.4721 16.324 10.852 16.324 11.0864 16.0883L17.6621 9.6185C17.8964 9.38283 17.8964 9.00074 17.6621 8.76509L16.8136 7.91168C16.5793 7.67603 16.1994 7.67603 15.9651 7.91168L10.6621 13.1014L8.03488 10.4591C7.80057 10.2234 7.42065 10.2234 7.18635 10.4591L6.33784 11.3125C6.10353 11.5481 6.10353 11.9302 6.33784 12.1659Z"></path>
</svg>
