<!-- Generated by IcoMoon.io -->
<svg version="1.1" xmlns="http://www.w3.org/2000/svg" width="24" height="24" viewBox="0 0 24 24">
<title>chevron-right</title>
<path d="M7.875 22c-0.372 0-0.702-0.134-0.988-0.402-0.258-0.298-0.387-0.64-0.387-1.027s0.129-0.729 0.387-1.027l7.305-7.545-7.305-7.545c-0.258-0.298-0.387-0.64-0.387-1.027s0.129-0.729 0.387-1.027c0.286-0.268 0.616-0.402 0.988-0.402s0.702 0.134 0.988 0.402l8.25 8.571c0.258 0.298 0.387 0.64 0.387 1.027s-0.129 0.729-0.387 1.027l-8.25 8.571c-0.286 0.268-0.616 0.402-0.988 0.402z"></path>
</svg>
