<!-- Generated by IcoMoon.io -->
<svg version="1.1" xmlns="http://www.w3.org/2000/svg" width="24" height="24" viewBox="0 0 24 24">
<title>clock</title>
<path d="M11.156 7.219c0-0.468 0.376-0.844 0.844-0.844s0.844 0.376 0.844 0.844v4.331l2.999 1.997c0.387 0.26 0.492 0.784 0.204 1.171-0.228 0.387-0.752 0.492-1.139 0.204l-3.375-2.25c-0.236-0.127-0.376-0.39-0.376-0.703v-4.75zM12 3c4.971 0 9 4.029 9 9s-4.029 9-9 9c-4.971 0-9-4.029-9-9s4.029-9 9-9zM4.688 12c0 4.040 3.273 7.313 7.313 7.313s7.313-3.273 7.313-7.313c0-4.039-3.273-7.313-7.313-7.313s-7.313 3.273-7.313 7.313z"></path>
</svg>
