<!-- Generated by IcoMoon.io -->
<svg version="1.1" xmlns="http://www.w3.org/2000/svg" width="24" height="24" viewBox="0 0 24 24">
<title>clock-alt</title>
<path d="M12 2C14.6522 2 17.1957 3.05357 19.0711 4.92893C20.9464 6.8043 22 9.34784 22 12C22 14.6522 20.9464 17.1957 19.0711 19.0711C17.1957 20.9464 14.6522 22 12 22C9.34784 22 6.8043 20.9464 4.92893 19.0711C3.05357 17.1957 2 14.6522 2 12C2 9.34784 3.05357 6.8043 4.92893 4.92893C6.8043 3.05357 9.34784 2 12 2ZM11.0625 6.6875V12C11.0625 12.3125 11.2188 12.6055 11.4805 12.7812L15.2305 15.2812C15.6602 15.5703 16.2422 15.4531 16.5312 15.0195C16.8203 14.5859 16.7031 14.0078 16.2695 13.7188L12.9375 11.5V6.6875C12.9375 6.16797 12.5195 5.75 12 5.75C11.4805 5.75 11.0625 6.16797 11.0625 6.6875Z"></path>
</svg>
