<!-- Generated by IcoMoon.io -->
<svg version="1.1" xmlns="http://www.w3.org/2000/svg" width="24" height="24" viewBox="0 0 24 24">
<title>cloud-alt</title>
<path d="M2.5 14.5C2.5 16.9844 4.51562 19 7 19H18.5C20.7094 19 22.5 17.2094 22.5 15C22.5 13.0656 21.125 11.45 19.3 11.0813C19.4281 10.7469 19.5 10.3812 19.5 10C19.5 8.34375 18.1562 7 16.5 7C15.8844 7 15.3094 7.1875 14.8344 7.50625C13.9688 6.00625 12.3531 5 10.5 5C7.7375 5 5.5 7.2375 5.5 10C5.5 10.0844 5.50312 10.1688 5.50625 10.2531C3.75625 10.8688 2.5 12.5375 2.5 14.5Z" fill="#1A1A1A"/>
</svg>
