<!-- Generated by IcoMoon.io -->
<svg version="1.1" xmlns="http://www.w3.org/2000/svg" width="24" height="24" viewBox="0 0 24 24">
<title>code</title>
<path d="M14.966 4.972l-4.5 14.5c-0.15 0.397-0.544 0.616-0.937 0.494-0.397-0.15-0.619-0.544-0.494-0.938l4.5-14.501c0.122-0.396 0.544-0.617 0.938-0.494 0.397 0.123 0.619 0.543 0.494 0.939zM17.763 7.703l4 3.75c0.153 0.141 0.237 0.341 0.237 0.519 0 0.234-0.084 0.406-0.237 0.575l-4 3.75c-0.303 0.284-0.775 0.269-1.059-0.034s-0.269-0.775 0.034-1.059l3.416-3.231-3.416-3.175c-0.303-0.284-0.319-0.756-0.034-1.059s0.756-0.319 1.059-0.034zM7.263 8.797l-3.416 3.175 3.416 3.231c0.303 0.284 0.319 0.756 0.034 1.059s-0.756 0.319-1.059 0.034l-4-3.75c-0.151-0.169-0.237-0.341-0.237-0.575 0-0.178 0.086-0.378 0.237-0.519l4-3.75c0.303-0.284 0.775-0.269 1.059 0.034s0.269 0.775-0.034 1.059z"></path>
</svg>
