<!-- Generated by IcoMoon.io -->
<svg version="1.1" xmlns="http://www.w3.org/2000/svg" width="24" height="24" viewBox="0 0 24 24">
<title>copy</title>
<path d="M21.648 4.773l-2.422-2.422c-0.234-0.234-0.521-0.352-0.859-0.352h-6.406c-0.703 0.026-1.289 0.273-1.758 0.742s-0.716 1.055-0.742 1.758v10c0.026 0.703 0.286 1.289 0.781 1.758 0.469 0.469 1.055 0.716 1.758 0.742h7.5c0.703-0.026 1.289-0.273 1.758-0.742s0.716-1.055 0.742-1.758v-8.867c0-0.339-0.117-0.625-0.352-0.859zM20.125 14.5c-0.026 0.391-0.234 0.599-0.625 0.625h-7.539c-0.391-0.026-0.599-0.234-0.625-0.625v-10c0.026-0.365 0.234-0.573 0.625-0.625h5l0.039 1.875c0 0.365 0.117 0.664 0.352 0.898s0.534 0.352 0.898 0.352h1.836v7.5h0.039zM12.625 19.5c-0.026 0.391-0.234 0.599-0.625 0.625h-7.539c-0.391-0.026-0.599-0.234-0.625-0.625l0.039-10c0.026-0.391 0.234-0.599 0.625-0.625h3.75v-1.875h-3.75c-0.703 0.026-1.289 0.273-1.758 0.742s-0.716 1.055-0.742 1.758v10c0.026 0.703 0.273 1.289 0.742 1.758s1.055 0.716 1.758 0.742h7.5c0.703-0.026 1.289-0.273 1.758-0.742s0.716-1.055 0.742-1.758v-1.25h-1.836l-0.039 1.25z"></path>
</svg>
