<!-- Generated by IcoMoon.io -->
<svg version="1.1" xmlns="http://www.w3.org/2000/svg" width="24" height="24" viewBox="0 0 24 24">
<title>currency</title>
<path d="M20.125 12C20.125 9.84512 19.269 7.77849 17.7452 6.25476C16.2215 4.73102 14.1549 3.875 12 3.875C9.84512 3.875 7.77849 4.73102 6.25476 6.25476C4.73102 7.77849 3.875 9.84512 3.875 12C3.875 14.1549 4.73102 16.2215 6.25476 17.7452C7.77849 19.269 9.84512 20.125 12 20.125C14.1549 20.125 16.2215 19.269 17.7452 17.7452C19.269 16.2215 20.125 14.1549 20.125 12ZM2 12C2 9.34784 3.05357 6.8043 4.92893 4.92893C6.8043 3.05357 9.34784 2 12 2C14.6522 2 17.1957 3.05357 19.0711 4.92893C20.9464 6.8043 22 9.34784 22 12C22 14.6522 20.9464 17.1957 19.0711 19.0711C17.1957 20.9464 14.6522 22 12 22C9.34784 22 6.8043 20.9464 4.92893 19.0711C3.05357 17.1957 2 14.6522 2 12ZM12.8125 7.21875V7.77344C13.1914 7.82031 13.5703 7.92578 13.9453 8.03125C14.0195 8.05078 14.0898 8.07031 14.1641 8.09375C14.6133 8.21875 14.8789 8.68359 14.7539 9.13281C14.6289 9.58203 14.1641 9.84375 13.7148 9.72266C13.6523 9.70703 13.5938 9.6875 13.5312 9.67188C13.2578 9.59375 12.9844 9.51953 12.707 9.46484C12.1914 9.36719 11.5938 9.41406 11.1133 9.62109C10.6836 9.80859 10.3281 10.2617 10.8164 10.5742C11.1992 10.8203 11.668 10.9453 12.1133 11.0664C12.207 11.0898 12.2969 11.1172 12.3867 11.1406C12.9961 11.3125 13.7734 11.5352 14.3555 11.9336C15.1133 12.4531 15.4688 13.2969 15.3008 14.2031C15.1406 15.0781 14.5312 15.6523 13.8008 15.9492C13.4961 16.0742 13.1641 16.1523 12.8164 16.1914V16.7852C12.8164 17.25 12.4375 17.6289 11.9727 17.6289C11.5078 17.6289 11.1289 17.25 11.1289 16.7852V16.1055C10.5625 15.9766 10.0078 15.7969 9.45703 15.6172C9.01562 15.4727 8.77344 14.9922 8.92188 14.5508C9.07031 14.1094 9.54688 13.8672 9.98828 14.0156C10.0859 14.0469 10.1836 14.082 10.2812 14.1133C10.7227 14.2617 11.1758 14.4141 11.6289 14.4883C12.293 14.5859 12.8242 14.5273 13.1719 14.3867C13.6406 14.1992 13.8633 13.6406 13.4023 13.3281C13.0078 13.0586 12.5195 12.9258 12.0547 12.8008C11.9648 12.7773 11.8789 12.7539 11.7891 12.7266C11.1992 12.5586 10.4609 12.3516 9.90625 11.9961C9.14453 11.5078 8.75781 10.6953 8.92188 9.79297C9.07812 8.94141 9.74219 8.375 10.4453 8.07031C10.6602 7.97656 10.8906 7.90234 11.1289 7.84766V7.21875C11.1289 6.75391 11.5078 6.375 11.9727 6.375C12.4375 6.375 12.8164 6.75391 12.8164 7.21875H12.8125Z"></path>
</svg>
