<!-- Generated by IcoMoon.io -->
<svg version="1.1" xmlns="http://www.w3.org/2000/svg" width="24" height="24" viewBox="0 0 24 24">
<title>dislike</title>
<path d="M7 13.25v-8.749c0-0.69-0.56-1.215-1.25-1.215h-2.5c-0.69 0-1.25 0.56-1.25 1.215v8.715c0 0.69 0.56 1.215 1.25 1.215h2.5c0.691 0.069 1.25-0.489 1.25-1.181zM20.809 10.949c0.048-0.199 0.073-0.403 0.073-0.611 0-0.887-0.447-1.685-1.144-2.159 0.017-0.118 0.025-0.237 0.025-0.356 0-0.872-0.432-1.664-1.126-2.142-0.095-1.356-1.229-2.43-2.609-2.43h-2.052c-1.404 0-2.795 0.464-3.918 1.305l-1.433 1.074c-0.246 0.184-0.375 0.463-0.375 0.747 0 0.498 0.402 0.939 0.939 0.939 0.196 0 0.393-0.061 0.562-0.188l1.432-1.075c0.8-0.599 1.792-0.93 2.793-0.93h2.052c0.408 0 0.741 0.332 0.741 0.74 0 0.137-0.043 0.193-0.043 0.369 0 1.054 1.163 0.7 1.163 1.587 0 0.361-0.25 0.428-0.25 0.869 0 0.546 0.424 0.857 0.765 0.921 0.35 0.065 0.603 0.37 0.603 0.725 0 0.509-0.445 0.522-0.445 1.129 0 0.49 0.379 0.902 0.873 0.935 0.385-0.006 0.69 0.349 0.69 0.697 0 0.407-0.333 0.739-0.741 0.739h-5.376c-0.486 0-0.938 0.391-0.938 0.902 0 0.158 0.040 0.315 0.12 0.458 0.7 1.322 0.997 2.576 0.997 2.865 0 0.314-0.234 0.812-0.862 0.812-0.489 0-0.557-0.035-0.974-1.096-0.967-2.457-2.412-3.902-3.163-3.902-0.539 0-0.938 0.44-0.938 0.937 0 0.275 0.12 0.548 0.352 0.733 2.699 2.157 1.656 5.204 4.722 5.204 1.715 0 2.738-1.367 2.738-2.688 0-0.496-0.208-1.375-0.579-2.318h3.901c1.409 0.001 2.616-1.171 2.616-2.647 0-0.871-0.473-1.684-1.191-2.148z"></path>
</svg>
