<!-- Generated by IcoMoon.io -->
<svg version="1.1" xmlns="http://www.w3.org/2000/svg" width="24" height="24" viewBox="0 0 24 24">
<title>download</title>
<path d="M19.5 13.875h-2.070l-1.875 1.875h3.945c0.391 0.026 0.599 0.234 0.625 0.625v3.125c-0.026 0.391-0.234 0.599-0.625 0.625h-15c-0.391-0.026-0.599-0.234-0.625-0.625v-3.125c0.026-0.391 0.234-0.599 0.625-0.625h3.984l-1.875-1.875h-2.109c-0.703 0.026-1.289 0.273-1.758 0.742s-0.716 1.055-0.742 1.758v3.125c0.026 0.703 0.273 1.289 0.742 1.758s1.055 0.716 1.758 0.742h15c0.703-0.026 1.289-0.273 1.758-0.742s0.716-1.055 0.742-1.758v-3.125c-0.026-0.703-0.273-1.289-0.742-1.758s-1.055-0.716-1.758-0.742zM18.875 17.937c-0.052-0.573-0.365-0.885-0.938-0.938-0.573 0.052-0.885 0.365-0.938 0.938 0.052 0.573 0.365 0.885 0.938 0.938 0.573-0.052 0.885-0.365 0.938-0.938zM11.336 16.375c0.182 0.208 0.404 0.312 0.664 0.312s0.482-0.091 0.664-0.273l5.313-5.313c0.364-0.443 0.364-0.885 0-1.328-0.443-0.365-0.885-0.365-1.328 0l-3.711 3.711v-10.547c-0.052-0.573-0.365-0.885-0.938-0.938-0.573 0.052-0.885 0.365-0.938 0.938v10.547l-3.75-3.711c-0.443-0.365-0.885-0.365-1.328 0-0.365 0.443-0.365 0.885 0 1.328l5.352 5.273z"></path>
</svg>
