<!-- Generated by IcoMoon.io -->
<svg version="1.1" xmlns="http://www.w3.org/2000/svg" width="24" height="24" viewBox="0 0 24 24">
<title>expand</title>
<path d="M7.313 18h-3.438v-3.667c0-0.554-0.42-1-0.938-1s-0.938 0.446-0.938 1v4.667c0 0.554 0.42 1 0.938 1h4.375c0.52 0 0.938-0.446 0.938-1s-0.418-1-0.938-1zM7.313 4h-4.375c-0.518 0-0.938 0.448-0.938 1v4.667c0 0.554 0.42 1 0.938 1s0.938-0.446 0.938-1v-3.667h3.438c0.52 0 0.938-0.446 0.938-1s-0.418-1-0.938-1zM21.063 4h-4.375c-0.519 0-0.938 0.448-0.938 1s0.42 1 0.938 1h3.438v3.667c0 0.554 0.418 1 0.938 1s0.938-0.446 0.938-1v-4.667c0-0.552-0.418-1-0.938-1zM21.063 13.333c-0.518 0-0.938 0.448-0.938 1v3.667h-3.438c-0.518 0-0.938 0.448-0.938 1s0.418 1 0.938 1h4.375c0.518 0 0.938-0.448 0.938-1v-4.667c0-0.554-0.418-1-0.938-1z"></path>
</svg>
