<!-- Generated by IcoMoon.io -->
<svg version="1.1" xmlns="http://www.w3.org/2000/svg" width="24" height="24" viewBox="0 0 24 24">
<title>export</title>
<path d="M13.6667 18.75C13.6667 19.0594 13.4167 19.3125 13.1111 19.3125H4.22222C3.91667 19.3125 3.66667 19.0594 3.66667 18.75V5.25C3.66667 4.94062 3.91667 4.6875 4.22222 4.6875H9.77778V7.5C9.77778 8.12227 10.2743 8.625 10.8889 8.625H13.6667V12H15.3333V8.43164C15.3333 7.83398 15.1007 7.26094 14.684 6.83906L11.5382 3.65742C11.1215 3.23555 10.559 3 9.96875 3H4.22222C2.99653 3 2 4.00898 2 5.25V18.75C2 19.991 2.99653 21 4.22222 21H13.1111C14.3368 21 15.3333 19.991 15.3333 18.75V15.9375H13.6667V18.75ZM18.9792 10.5586C18.6528 10.2281 18.125 10.2281 17.8021 10.5586C17.4792 10.8891 17.4757 11.4234 17.8021 11.7504L19.1563 13.1215H9.5C9.03819 13.1215 8.66667 13.4977 8.66667 13.9652C8.66667 14.4328 9.03819 14.809 9.5 14.809H19.1563L17.8021 16.1801C17.4757 16.5105 17.4757 17.0449 17.8021 17.3719C18.1285 17.6988 18.6562 17.7023 18.9792 17.3719L21.7569 14.5594C22.0833 14.2289 22.0833 13.6945 21.7569 13.3676L18.9792 10.5551V10.5586Z" fill="#1A1A1A"/>
</svg>
