<!-- Generated by IcoMoon.io -->
<svg version="1.1" xmlns="http://www.w3.org/2000/svg" width="24" height="24" viewBox="0 0 24 24">
<title>file-check</title>
<path d="M18.258 5.633l-2.891-2.891c-0.495-0.495-1.094-0.742-1.797-0.742h-7.070c-0.703 0.026-1.289 0.273-1.758 0.742s-0.716 1.055-0.742 1.758v15c0.026 0.703 0.273 1.289 0.742 1.758s1.055 0.716 1.758 0.742h10c0.703-0.026 1.289-0.273 1.758-0.742s0.716-1.055 0.742-1.758v-12.070c0-0.703-0.247-1.302-0.742-1.797zM17.125 19.5c-0.026 0.391-0.234 0.599-0.625 0.625h-10c-0.391-0.026-0.599-0.234-0.625-0.625v-15c0.026-0.365 0.234-0.573 0.625-0.625h6.25v3.125c0 0.365 0.117 0.664 0.352 0.898s0.534 0.352 0.898 0.352h3.086v11.25h0.039zM10.523 14.695l-1.211-1.172c-0.443-0.364-0.885-0.364-1.328 0-0.365 0.443-0.365 0.885 0 1.328l1.875 1.875c0.208 0.182 0.443 0.273 0.703 0.273 0 0 0.013 0 0.039 0 0.26-0.026 0.482-0.13 0.664-0.312l3.75-4.375c0.339-0.469 0.312-0.912-0.078-1.328-0.469-0.339-0.912-0.312-1.328 0.078l-3.086 3.633z"></path>
</svg>
