<!-- Generated by IcoMoon.io -->
<svg version="1.1" xmlns="http://www.w3.org/2000/svg" width="24" height="24" viewBox="0 0 24 24">
<title>footer</title>
<path d="M3 4.28571C3 3.57563 3.57563 3 4.28571 3H19.7143C20.4244 3 21 3.57563 21 4.28571C21 4.99579 20.4244 5.57143 19.7143 5.57143H4.28571C3.57563 5.57143 3 4.99579 3 4.28571Z"/>
<path d="M3 9.42857C3 8.71849 3.57563 8.14286 4.28571 8.14286H19.7143C20.4244 8.14286 21 8.71849 21 9.42857C21 10.1387 20.4244 10.7143 19.7143 10.7143H4.28571C3.57563 10.7143 3 10.1387 3 9.42857Z"/>
<path d="M3 14.5714C3 13.8613 3.57563 13.2857 4.28571 13.2857H19.7143C20.4244 13.2857 21 13.8613 21 14.5714V19.7143C21 20.4244 20.4244 21 19.7143 21H4.28571C3.57563 21 3 20.4244 3 19.7143V14.5714Z"/>
</svg>
