<!-- Generated by IcoMoon.io -->
<svg version="1.1" xmlns="http://www.w3.org/2000/svg" width="24" height="24" viewBox="0 0 24 24">
<title>gift</title>
<path d="M12 5.33828L12.9414 3.73633C13.5742 2.66055 14.7305 2 15.9766 2H16.0625C17.9609 2 19.5 3.53906 19.5 5.4375C19.5 6 19.3633 6.49609 19.125 7H20.125C21.1602 7 22 7.83984 22 8.875V11.375C22 12.1914 21.4766 12.8867 20.75 13.1445V19.5C20.75 20.8789 19.6289 22 18.25 22H5.75C4.36914 22 3.25 20.8789 3.25 19.5V13.1445C2.52188 12.8867 2 12.1914 2 11.375V8.875C2 7.83984 2.83945 7 3.875 7H4.875C4.63516 6.49609 4.5 6 4.5 5.4375C4.5 3.53906 6.03906 2 7.9375 2H8.02344C9.26953 2 10.4258 2.66055 11.0586 3.73633L12 5.33828ZM13.25 8.875V11.375H20.125V8.875H13.25ZM10.75 8.875H3.875V11.375H10.75V8.875ZM10.75 13.25H5.125V19.5C5.125 19.8438 5.40469 20.125 5.75 20.125H10.75V13.25ZM13.25 20.125H18.25C18.5938 20.125 18.875 19.8438 18.875 19.5V13.25H13.25V20.125ZM16.0625 7C16.9258 7 17.625 6.30078 17.625 5.4375C17.625 4.57461 16.9258 3.875 16.0625 3.875H15.9766C15.3945 3.875 14.8555 4.18398 14.5586 4.68672L13.1992 7H16.0625ZM10.8008 7L9.44141 4.68672C9.14453 4.18398 8.60547 3.875 8.02344 3.875H7.9375C7.07422 3.875 6.375 4.57461 6.375 5.4375C6.375 6.30078 7.07422 7 7.9375 7H10.8008Z"></path>
</svg>
