<!-- Generated by IcoMoon.io -->
<svg version="1.1" xmlns="http://www.w3.org/2000/svg" width="24" height="24" viewBox="0 0 24 24">
<title>google-tag-manager</title>
<path d="M21.0835 10.2625L13.7335 2.9125C13.2738 2.4528 12.6503 2.19453 12.0001 2.19453C11.35 2.19453 10.7265 2.4528 10.2668 2.9125L10.2668 2.91253L10.2668 2.91251L2.91675 10.2625C2.68897 10.49 2.50827 10.7602 2.38499 11.0577C2.2617 11.3551 2.19824 11.6739 2.19824 11.9958C2.19824 12.3178 2.2617 12.6366 2.38499 12.934C2.50827 13.2314 2.68897 13.5016 2.91675 13.7292L10.0617 20.8742C10.1211 20.9496 10.1856 21.0224 10.2552 21.0919C11.2038 22.0406 12.7419 22.0406 13.6905 21.0919C13.7446 21.0378 13.7956 20.9818 13.8436 20.9241L20.995 13.8171C21.0265 13.7887 21.0574 13.7594 21.0876 13.7292C21.5473 13.2695 21.8056 12.646 21.8056 11.9958C21.8056 11.3457 21.5473 10.7222 21.0876 10.2625H21.0835ZM8.11259 12L12.0006 8.11199L15.8939 12.0031L11.987 15.95L8.11259 12Z"></path>
</svg>
