<!-- Generated by IcoMoon.io -->
<svg version="1.1" xmlns="http://www.w3.org/2000/svg" width="24" height="24" viewBox="0 0 24 24">
<title>graduation</title>
<path d="M12.0003 5.71395C12.0862 5.71395 12.1721 5.72823 12.2546 5.76037L19.7482 8.57053L12.2546 11.3807C12.1721 11.4128 12.0862 11.4271 12.0003 11.4271C11.9143 11.4271 11.8284 11.4128 11.7459 11.3807L7.35631 9.73459L12.1962 7.84925C12.4815 7.73855 12.6259 7.41005 12.5193 7.11368C12.4128 6.8173 12.0965 6.66733 11.8112 6.77803L6.32509 8.91332C6.14634 8.98474 5.97104 9.06329 5.79916 9.14899L4.25576 8.57053L11.7493 5.76037C11.8318 5.72823 11.9178 5.71395 12.0037 5.71395H12.0003ZM1.54364 9.37752L4.2042 10.3738C3.26922 11.3986 2.70205 12.7554 2.65393 14.2194C2.65049 14.2409 2.65049 14.2623 2.65049 14.2837C2.65049 15.2978 2.27925 16.3476 1.88395 17.1688C1.66051 17.633 1.40614 18.0901 1.11053 18.5114C1.00053 18.665 0.969592 18.8649 1.03147 19.0471C1.09334 19.2292 1.23771 19.3648 1.41646 19.4113L3.6164 19.9826C3.76078 20.0219 3.91546 19.9933 4.04264 19.9112C4.16983 19.829 4.2592 19.6934 4.2867 19.5398C4.58232 18.0115 4.43451 16.6404 4.21451 15.6584C4.10452 15.1585 3.95671 14.6479 3.7539 14.1766C3.81921 12.8554 4.41388 11.6449 5.35917 10.813L11.1856 12.9982C11.4468 13.0946 11.7218 13.1446 12.0003 13.1446C12.2787 13.1446 12.5537 13.0946 12.8149 12.9982L22.4569 9.37752C22.7834 9.25611 23 8.93118 23 8.57053C23 8.20989 22.7834 7.88852 22.4569 7.76355L12.8149 4.1464C12.5537 4.04999 12.2787 4 12.0003 4C11.7218 4 11.4468 4.04999 11.1856 4.1464L1.54364 7.76355C1.21709 7.88852 1.00053 8.20989 1.00053 8.57053C1.00053 8.93118 1.21709 9.25254 1.54364 9.37752ZM18.0707 12.2341L16.4723 12.834L16.9089 17.1367C16.7439 17.2617 16.4689 17.4224 16.0633 17.5866C15.0939 17.983 13.6502 18.2829 12.0003 18.2829C10.3503 18.2829 8.90659 17.983 7.9338 17.5902C7.52818 17.4259 7.25319 17.2617 7.0882 17.1403L7.52475 12.8376L5.92635 12.2377L5.40042 17.4259C5.40042 18.6864 8.3566 19.9969 12.0003 19.9969C15.6439 19.9969 18.6001 18.6864 18.6001 17.4259L18.0742 12.2341H18.0707ZM17.067 16.9975C17.0691 16.9946 17.0706 16.9914 17.0713 16.9879C17.0721 16.9845 17.0722 16.9809 17.0715 16.9774C17.0708 16.974 17.0695 16.9707 17.0675 16.9678C17.0655 16.9649 17.063 16.9625 17.06 16.9607C17.0571 16.9589 17.0538 16.9578 17.0504 16.9574C17.047 16.9571 17.0436 16.9574 17.0403 16.9586C17.0371 16.9597 17.0341 16.9615 17.0316 16.9639C17.0291 16.9663 17.0271 16.9692 17.0258 16.9725C17.0237 16.9753 17.0222 16.9785 17.0215 16.982C17.0207 16.9854 17.0206 16.989 17.0213 16.9925C17.0219 16.996 17.0233 16.9992 17.0253 17.0021C17.0273 17.005 17.0298 17.0074 17.0328 17.0092C17.0357 17.011 17.039 17.0121 17.0424 17.0125C17.0458 17.0129 17.0492 17.0125 17.0524 17.0114C17.0557 17.0102 17.0587 17.0084 17.0612 17.006C17.0637 17.0036 17.0657 17.0007 17.067 16.9975ZM6.93351 16.9975C6.93416 17.0013 6.93566 17.0049 6.9379 17.008C6.94013 17.0112 6.94304 17.0137 6.94639 17.0155C6.94973 17.0172 6.95343 17.0181 6.95717 17.0181C6.96092 17.0181 6.96462 17.0172 6.96797 17.0155C6.97132 17.0137 6.97424 17.0112 6.97648 17.0081C6.97873 17.005 6.98024 17.0014 6.9809 16.9975C6.98156 16.9937 6.98135 16.9898 6.98028 16.986C6.97921 16.9823 6.97732 16.9789 6.97476 16.976C6.97411 16.9722 6.97261 16.9686 6.97038 16.9654C6.96814 16.9623 6.96523 16.9598 6.96189 16.958C6.95854 16.9563 6.95484 16.9554 6.9511 16.9554C6.94735 16.9554 6.94365 16.9563 6.9403 16.958C6.93695 16.9597 6.93403 16.9623 6.93179 16.9654C6.92955 16.9685 6.92803 16.9721 6.92737 16.976C6.92672 16.9798 6.92693 16.9837 6.92799 16.9875C6.92906 16.9912 6.93095 16.9946 6.93351 16.9975Z"></path>
</svg>
