<!-- Generated by IcoMoon.io -->
<svg version="1.1" xmlns="http://www.w3.org/2000/svg" width="24" height="24" viewBox="0 0 24 24">
<title>group</title>
<path d="M5.75 8.25C5.75 7.88542 5.86719 7.58594 6.10156 7.35156C6.33594 7.11719 6.63542 7 7 7H12C12.3646 7 12.6641 7.11719 12.8984 7.35156C13.1328 7.58594 13.25 7.88542 13.25 8.25V12C13.25 12.3646 13.1328 12.6641 12.8984 12.8984C12.6641 13.1328 12.3646 13.25 12 13.25H7C6.63542 13.25 6.33594 13.1328 6.10156 12.8984C5.86719 12.6641 5.75 12.3646 5.75 12V8.25ZM12 14.5C12.7031 14.474 13.2891 14.2266 13.7578 13.7578C14.2266 13.2891 14.474 12.7031 14.5 12V10.75H17C17.3646 10.75 17.6641 10.8672 17.8984 11.1016C18.1328 11.3359 18.25 11.6354 18.25 12V15.75C18.25 16.1146 18.1328 16.4141 17.8984 16.6484C17.6641 16.8828 17.3646 17 17 17H12C11.6354 17 11.3359 16.8828 11.1016 16.6484C10.8672 16.4141 10.75 16.1146 10.75 15.75V14.5H12ZM2.625 6.53125C2.23438 6.14062 2.02604 5.67188 2 5.125C2.02604 4.60417 2.20833 4.16146 2.54688 3.79688C2.91146 3.45833 3.35417 3.27604 3.875 3.25C4.42188 3.27604 4.89062 3.48438 5.28125 3.875H18.7188C19.0833 3.48438 19.5521 3.27604 20.125 3.25C20.6458 3.27604 21.0885 3.45833 21.4531 3.79688C21.7917 4.16146 21.974 4.60417 22 5.125C21.974 5.67188 21.7656 6.14062 21.375 6.53125V17.4688C21.7656 17.8333 21.974 18.3021 22 18.875C21.974 19.3958 21.7917 19.8385 21.4531 20.2031C21.0885 20.5417 20.6458 20.724 20.125 20.75C19.5521 20.724 19.0833 20.5156 18.7188 20.125H5.28125C4.89062 20.5156 4.42188 20.724 3.875 20.75C3.35417 20.724 2.91146 20.5417 2.54688 20.2031C2.20833 19.8385 2.02604 19.3958 2 18.875C2.02604 18.3021 2.23438 17.8333 2.625 17.4688V6.53125ZM4.5 6.88281V17.1172C5.04688 17.3255 5.42448 17.7031 5.63281 18.25H18.3672C18.5755 17.7031 18.9531 17.3255 19.5 17.1172V6.88281C18.9531 6.67448 18.5755 6.29688 18.3672 5.75H5.63281C5.42448 6.29688 5.04688 6.67448 4.5 6.88281Z"></path>
</svg>
