<!-- Generated by IcoMoon.io -->
<svg version="1.1" xmlns="http://www.w3.org/2000/svg" width="24" height="24" viewBox="0 0 24 24">
<title>hub</title>
<path d="M3 5.889c0-2.148 1.659-3.889 3.706-3.889s3.706 1.741 3.706 3.889v2.222c0 0.614-0.474 1.111-1.059 1.111s-1.059-0.497-1.059-1.111v-2.222c0-0.92-0.711-1.667-1.588-1.667s-1.588 0.746-1.588 1.667v12.222c0 0.921 0.711 1.667 1.588 1.667s1.588-0.746 1.588-1.667v-1.667c0-0.614 0.474-1.111 1.059-1.111s1.059 0.498 1.059 1.111v1.667c0 2.148-1.659 3.889-3.706 3.889s-3.706-1.741-3.706-3.889v-12.222z"></path>
<path d="M21 5.889c0-2.148-1.659-3.889-3.706-3.889s-3.706 1.741-3.706 3.889v2.222c0 0.614 0.474 1.111 1.059 1.111s1.059-0.497 1.059-1.111v-2.222c0-0.92 0.711-1.667 1.588-1.667s1.588 0.746 1.588 1.667v12.222c0 0.921-0.711 1.667-1.588 1.667s-1.588-0.746-1.588-1.667v-1.667c0-3.068-2.37-5.556-5.294-5.556h-2.118c-0.585 0-1.059 0.497-1.059 1.111s0.474 1.111 1.059 1.111h2.118c1.754 0 3.176 1.492 3.176 3.333v1.667c0 2.148 1.659 3.889 3.706 3.889s3.706-1.741 3.706-3.889v-12.222z"></path>
</svg>
