<!-- Generated by IcoMoon.io -->
<svg version="1.1" xmlns="http://www.w3.org/2000/svg" width="24" height="24" viewBox="0 0 24 24">
<title>image</title>
<path d="M7.948 6.536c-1.037 0-1.878 0.863-1.878 1.929s0.841 1.929 1.878 1.929c1.037 0 1.878-0.863 1.878-1.929s-0.841-1.929-1.878-1.929zM19.496 3h-15.026c-1.348 0-2.47 1.151-2.47 2.571v12.857c0 1.42 1.121 2.571 2.469 2.571h15.026c1.383 0 2.504-1.151 2.504-2.571v-12.857c0-1.42-1.087-2.571-2.504-2.571zM20.122 18.159l-5.353-7.469c-0.098-0.185-0.321-0.297-0.56-0.297s-0.462 0.111-0.595 0.296l-4.171 5.79-1.451-1.852c-0.135-0.172-0.35-0.273-0.578-0.273s-0.443 0.102-0.578 0.273l-2.955 3.769c0-0.001 0 0.001 0 0l-0.002-12.825c0-0.354 0.281-0.643 0.626-0.643h15.026c0.345 0 0.626 0.288 0.626 0.643v12.588h-0.035z"></path>
</svg>
