<!-- Generated by IcoMoon.io -->
<svg version="1.1" xmlns="http://www.w3.org/2000/svg" width="24" height="24" viewBox="0 0 24 24">
<title>info</title>
<path d="M12 2C13.875 2.02604 15.5547 2.48177 17.0391 3.36719C18.5495 4.2526 19.7474 5.45052 20.6328 6.96094C21.5182 8.44531 21.974 10.125 22 12C21.974 13.875 21.5182 15.5547 20.6328 17.0391C19.7474 18.5495 18.5495 19.7474 17.0391 20.6328C15.5547 21.5182 13.875 21.974 12 22C10.125 21.974 8.44531 21.5182 6.96094 20.6328C5.45052 19.7474 4.2526 18.5495 3.36719 17.0391C2.48177 15.5547 2.02604 13.875 2 12C2.02604 10.125 2.48177 8.44531 3.36719 6.96094C4.2526 5.45052 5.45052 4.2526 6.96094 3.36719C8.44531 2.48177 10.125 2.02604 12 2ZM12 20.125C14.2917 20.0729 16.2057 19.2786 17.7422 17.7422C19.2786 16.2057 20.0729 14.2917 20.125 12C20.0729 9.70833 19.2786 7.79427 17.7422 6.25781C16.2057 4.72135 14.2917 3.92708 12 3.875C9.70833 3.92708 7.79427 4.72135 6.25781 6.25781C4.72135 7.79427 3.92708 9.70833 3.875 12C3.92708 14.2917 4.72135 16.2057 6.25781 17.7422C7.79427 19.2786 9.70833 20.0729 12 20.125ZM13.5625 15.125C14.1354 15.1771 14.4479 15.4896 14.5 16.0625C14.4479 16.6354 14.1354 16.9479 13.5625 17H10.4375C9.86458 16.9479 9.55208 16.6354 9.5 16.0625C9.55208 15.4896 9.86458 15.1771 10.4375 15.125H11.0625V12.625H10.75C10.1771 12.5729 9.86458 12.2604 9.8125 11.6875C9.86458 11.1146 10.1771 10.8021 10.75 10.75H12C12.5729 10.8021 12.8854 11.1146 12.9375 11.6875V15.125H13.5625ZM12 9.5C11.6354 9.5 11.3359 9.38281 11.1016 9.14844C10.8672 8.91406 10.75 8.61458 10.75 8.25C10.75 7.88542 10.8672 7.58594 11.1016 7.35156C11.3359 7.11719 11.6354 7 12 7C12.3646 7 12.6641 7.11719 12.8984 7.35156C13.1328 7.58594 13.25 7.88542 13.25 8.25C13.25 8.61458 13.1328 8.91406 12.8984 9.14844C12.6641 9.38281 12.3646 9.5 12 9.5Z"></path>
</svg>
