<!-- Generated by IcoMoon.io -->
<svg version="1.1" xmlns="http://www.w3.org/2000/svg" width="24" height="24" viewBox="0 0 24 24">
<title>info-alt</title>
<path d="M12 2c-5.523 0-10 4.477-10 10s4.477 10 10 10c5.523 0 10-4.477 10-10s-4.477-10-10-10zM12 7c0.69 0 1.25 0.56 1.25 1.25s-0.56 1.25-1.25 1.25c-0.69 0-1.25-0.559-1.25-1.25s0.559-1.25 1.25-1.25zM13.563 17h-3.125c-0.516 0-0.938-0.418-0.938-0.938s0.42-0.938 0.938-0.938h0.625v-2.5h-0.312c-0.518 0-0.938-0.42-0.938-0.938s0.422-0.938 0.938-0.938h1.25c0.518 0 0.938 0.42 0.938 0.938v3.438h0.625c0.518 0 0.938 0.42 0.938 0.938s-0.418 0.938-0.938 0.938z"></path>
</svg>
