<!-- Generated by IcoMoon.io -->
<svg version="1.1" xmlns="http://www.w3.org/2000/svg" width="24" height="24" viewBox="0 0 24 24">
<title>inline</title>
<path d="M3 4.28607C3 3.57579 3.57563 3 4.28571 3H19.7143C20.4244 3 21 3.57579 21 4.28607C21 4.99635 20.4244 5.57215 19.7143 5.57215H4.28571C3.57563 5.57215 3 4.99635 3 4.28607Z"/>
<path d="M3 9.43037C3 8.72009 3.57563 8.14429 4.28571 8.14429H19.7143C20.4244 8.14429 21 8.72009 21 9.43037V14.5696C21 15.2799 20.4244 15.8557 19.7143 15.8557H4.28571C3.57563 15.8557 3 15.2799 3 14.5696V9.43037Z"/>
<path d="M3 19.7139C3 19.0036 3.57563 18.4279 4.28571 18.4279H19.7143C20.4244 18.4279 21 19.0036 21 19.7139C21 20.4242 20.4244 21 19.7143 21H4.28571C3.57563 21 3 20.4242 3 19.7139Z"/>
</svg>
