<!-- Generated by IcoMoon.io -->
<svg version="1.1" xmlns="http://www.w3.org/2000/svg" width="24" height="24" viewBox="0 0 24 24">
<title>input-text</title>
<path d="M2.4 6.75C2.07 6.75 1.8 7.0125 1.8 7.33333V16.6667C1.8 16.9875 2.07 17.25 2.4 17.25H21.6C21.93 17.25 22.2 16.9875 22.2 16.6667V7.33333C22.2 7.0125 21.93 6.75 21.6 6.75H2.4ZM0 7.33333C0 6.04635 1.07625 5 2.4 5H21.6C22.9238 5 24 6.04635 24 7.33333V16.6667C24 17.9536 22.9238 19 21.6 19H2.4C1.07625 19 0 17.9536 0 16.6667V7.33333ZM6.9 8.5C7.25625 8.5 7.57875 8.70417 7.72125 9.02135L10.1213 14.2714C10.3238 14.7125 10.1175 15.2302 9.66375 15.4271C9.21 15.624 8.6775 15.4234 8.475 14.9823L8.31375 14.6286H5.48625L5.325 14.9823C5.1225 15.4234 4.59 15.624 4.13625 15.4271C3.6825 15.2302 3.47625 14.7125 3.67875 14.2714L6.07875 9.02135C6.225 8.70417 6.54375 8.5 6.9 8.5ZM6.9 11.5297L6.285 12.875H7.515L6.9 11.5297ZM11.4 9.375C11.4 8.8901 11.8013 8.5 12.3 8.5H14.25C15.4913 8.5 16.5 9.48073 16.5 10.6875C16.5 11.0229 16.4213 11.3401 16.2825 11.6245C16.7813 12.0255 17.1 12.6307 17.1 13.3125C17.1 14.5193 16.0913 15.5 14.85 15.5H12.3C11.8013 15.5 11.4 15.1099 11.4 14.625V14.3333V12V9.66667V9.375ZM13.2 10.25V11.125H14.25C14.4975 11.125 14.7 10.9281 14.7 10.6875C14.7 10.4469 14.4975 10.25 14.25 10.25H13.2ZM13.2 13.75H14.85C15.0975 13.75 15.3 13.5531 15.3 13.3125C15.3 13.0719 15.0975 12.875 14.85 12.875H14.25H13.2V13.75Z"></path>
</svg>
