<!-- Generated by IcoMoon.io -->
<svg version="1.1" xmlns="http://www.w3.org/2000/svg" width="24" height="24" viewBox="0 0 24 24">
<title>instagram</title>
<path d="M12 7.50781C14.4609 7.50781 16.4922 9.53906 16.4922 12C16.4922 14.5 14.4609 16.4922 12 16.4922C9.5 16.4922 7.50781 14.5 7.50781 12C7.50781 9.53906 9.5 7.50781 12 7.50781ZM12 14.9297C13.6016 14.9297 14.8906 13.6406 14.8906 12C14.8906 10.3984 13.6016 9.10938 12 9.10938C10.3594 9.10938 9.07031 10.3984 9.07031 12C9.07031 13.6406 10.3984 14.9297 12 14.9297ZM17.7031 7.35156C17.7031 7.9375 17.2344 8.40625 16.6484 8.40625C16.0625 8.40625 15.5938 7.9375 15.5938 7.35156C15.5938 6.76562 16.0625 6.29688 16.6484 6.29688C17.2344 6.29688 17.7031 6.76562 17.7031 7.35156ZM20.6719 8.40625C20.75 9.85156 20.75 14.1875 20.6719 15.6328C20.5938 17.0391 20.2812 18.25 19.2656 19.3047C18.25 20.3203 17 20.6328 15.5938 20.7109C14.1484 20.7891 9.8125 20.7891 8.36719 20.7109C6.96094 20.6328 5.75 20.3203 4.69531 19.3047C3.67969 18.25 3.36719 17.0391 3.28906 15.6328C3.21094 14.1875 3.21094 9.85156 3.28906 8.40625C3.36719 7 3.67969 5.75 4.69531 4.73438C5.75 3.71875 6.96094 3.40625 8.36719 3.32812C9.8125 3.25 14.1484 3.25 15.5938 3.32812C17 3.40625 18.25 3.71875 19.2656 4.73438C20.2812 5.75 20.5938 7 20.6719 8.40625ZM18.7969 17.1562C19.2656 16.0234 19.1484 13.2891 19.1484 12C19.1484 10.75 19.2656 8.01562 18.7969 6.84375C18.4844 6.10156 17.8984 5.47656 17.1562 5.20312C15.9844 4.73438 13.25 4.85156 12 4.85156C10.7109 4.85156 7.97656 4.73438 6.84375 5.20312C6.0625 5.51562 5.47656 6.10156 5.16406 6.84375C4.69531 8.01562 4.8125 10.75 4.8125 12C4.8125 13.2891 4.69531 16.0234 5.16406 17.1562C5.47656 17.9375 6.0625 18.5234 6.84375 18.8359C7.97656 19.3047 10.7109 19.1875 12 19.1875C13.25 19.1875 15.9844 19.3047 17.1562 18.8359C17.8984 18.5234 18.5234 17.9375 18.7969 17.1562Z"></path>
</svg>
