<!-- Generated by IcoMoon.io -->
<svg version="1.1" xmlns="http://www.w3.org/2000/svg" width="24" height="24" viewBox="0 0 24 24">
<title>invoice</title>
<path d="M7.5 20.125H17.5C17.8438 20.125 18.125 19.8438 18.125 19.5V8.25H15C14.3086 8.25 13.75 7.69141 13.75 7V3.875H7.5C7.15625 3.875 6.875 4.15625 6.875 4.5V19.5C6.875 19.8438 7.15625 20.125 7.5 20.125ZM5 4.5C5 3.12109 6.12109 2 7.5 2H13.9648C14.6289 2 15.2656 2.26172 15.7344 2.73047L19.2695 6.26562C19.7383 6.73438 20 7.37109 20 8.03516V19.5C20 20.8789 18.8789 22 17.5 22H7.5C6.12109 22 5 20.8789 5 19.5V4.5ZM8.125 6.375C8.125 6.03125 8.40625 5.75 8.75 5.75H11.875C12.2188 5.75 12.5 6.03125 12.5 6.375C12.5 6.71875 12.2188 7 11.875 7H8.75C8.40625 7 8.125 6.71875 8.125 6.375ZM8.125 8.875C8.125 8.53125 8.40625 8.25 8.75 8.25H11.875C12.2188 8.25 12.5 8.53125 12.5 8.875C12.5 9.21875 12.2188 9.5 11.875 9.5H8.75C8.40625 9.5 8.125 9.21875 8.125 8.875ZM12.5 17.625C12.5 17.2812 12.7812 17 13.125 17H16.25C16.5938 17 16.875 17.2812 16.875 17.625C16.875 17.9688 16.5938 18.25 16.25 18.25H13.125C12.7812 18.25 12.5 17.9688 12.5 17.625ZM9.375 10.75H15.625C16.3164 10.75 16.875 11.3086 16.875 12V14.5C16.875 15.1914 16.3164 15.75 15.625 15.75H9.375C8.68359 15.75 8.125 15.1914 8.125 14.5V12C8.125 11.3086 8.68359 10.75 9.375 10.75Z"></path>
</svg>
