<!-- Generated by IcoMoon.io -->
<svg version="1.1" xmlns="http://www.w3.org/2000/svg" width="24" height="24" viewBox="0 0 24 24">
<title>js</title>
<path d="M20.3253 2.10547H4.611C3.42796 2.10547 2.46814 3.06529 2.46814 4.24833V19.9626C2.46814 21.1456 3.42796 22.1055 4.611 22.1055H20.3253C21.5083 22.1055 22.4681 21.1456 22.4681 19.9626V4.24833C22.4681 3.06529 21.5083 2.10547 20.3253 2.10547ZM13.3521 17.7037C13.3521 19.6501 12.2092 20.5385 10.544 20.5385C9.03957 20.5385 8.16903 19.7617 7.7226 18.8198L9.25385 17.8956C9.5485 18.418 9.81635 18.8599 10.4637 18.8599C11.0797 18.8599 11.4726 18.6189 11.4726 17.6769V11.2885H13.3521V17.7037ZM17.7985 20.5385C16.053 20.5385 14.9235 19.7081 14.3744 18.6189L15.9056 17.7349C16.3074 18.3912 16.8342 18.8778 17.7583 18.8778C18.5351 18.8778 19.0351 18.4894 19.0351 17.9492C19.0351 17.3064 18.5262 17.0787 17.6646 16.6992L17.1958 16.4983C15.8387 15.9224 14.9414 15.1948 14.9414 13.6635C14.9414 12.2528 16.0172 11.1814 17.6914 11.1814C18.8878 11.1814 19.7449 11.5965 20.361 12.6858L18.8967 13.6233C18.5753 13.0474 18.2271 12.8198 17.6869 12.8198C17.1378 12.8198 16.7896 13.168 16.7896 13.6233C16.7896 14.1858 17.1378 14.4135 17.9458 14.7662L18.4146 14.9671C20.0128 15.6501 20.9101 16.351 20.9101 17.9224C20.9101 19.6099 19.5797 20.5385 17.7985 20.5385Z"></path>
</svg>
