<!-- Generated by IcoMoon.io -->
<svg version="1.1" xmlns="http://www.w3.org/2000/svg" width="24" height="24" viewBox="0 0 24 24">
<title>like-alt</title>
<path d="M6.998 19.468v-8.754c0-0.69-0.56-1.215-1.251-1.215h-2.501c-0.691 0-1.251 0.56-1.251 1.215v8.718c0 0.691 0.56 1.215 1.251 1.215h2.501c0.692 0.070 1.251-0.457 1.251-1.18zM22.004 10.753c0-1.036-0.839-1.875-1.876-1.875h-5.725c0.89-1.481 1.349-3.161 1.349-3.752-0.001-0.921-0.724-1.88-1.935-1.88-2.467 0-1.030 2.976-4.228 5.534l-0.637 0.508c-0.461 0.371-0.696 0.914-0.7 1.461-0.001 0.001 0 0 0 0l-0.004 6.253c0 0.59 0.278 1.146 0.75 1.5l1.334 1c1.081 0.814 2.398 1.251 3.75 1.251h2.294c1.036 0 1.876-0.839 1.876-1.875 0-0.142-0.019-0.279-0.049-0.412 0.752-0.245 1.299-0.941 1.299-1.777 0-0.357-0.105-0.688-0.279-0.972 0.869-0.161 1.53-0.923 1.53-1.837 0-0.489-0.191-0.929-0.497-1.263 0.974-0.066 1.748-0.871 1.748-1.863z"></path>
</svg>
