<!-- Generated by IcoMoon.io -->
<svg version="1.1" xmlns="http://www.w3.org/2000/svg" width="24" height="24" viewBox="0 0 24 24">
<title>link</title>
<path d="M7.118 8.016c1.84-1.773 4.898-1.773 6.738 0 1.655 1.595 1.9 4.137 0.539 5.971l-0.036 0.051c-0.341 0.456-1.003 0.565-1.476 0.236-0.477-0.328-0.589-0.966-0.248-1.423l0.036-0.051c0.758-1.024 0.639-2.424-0.285-3.314-1.039-1.002-2.73-1.002-3.773 0l-3.713 3.582c-1.043 0.976-1.043 2.632 0 3.636 0.92 0.89 2.376 1.005 3.435 0.274l0.053-0.064c0.477-0.3 1.138-0.195 1.476 0.265 0.341 0.459 0.232 1.097-0.245 1.426l-0.053 0.035c-1.933 1.311-4.511 1.101-6.165-0.491-1.869-1.802-1.869-4.724 0-6.523l3.716-3.611zM16.881 15.955c-1.87 1.802-4.898 1.802-6.768 0-1.655-1.595-1.87-4.109-0.51-5.943l0.036-0.051c0.311-0.456 0.973-0.565 1.476-0.236 0.477 0.3 0.589 0.938 0.248 1.423l-0.036 0.051c-0.758 0.995-0.639 2.424 0.285 3.314 1.039 1.002 2.73 1.002 3.773 0l3.713-3.582c1.043-1.005 1.043-2.66 0-3.636-0.92-0.889-2.376-1.005-3.435-0.274l-0.053 0.035c-0.477 0.329-1.138 0.195-1.476-0.237-0.341-0.459-0.232-1.096 0.245-1.424l0.053-0.036c1.903-1.311 4.511-1.103 6.166 0.492 1.87 1.801 1.87 4.723 0 6.522l-3.717 3.582z"></path>
</svg>
