<!-- Generated by IcoMoon.io -->
<svg version="1.1" xmlns="http://www.w3.org/2000/svg" width="24" height="24" viewBox="0 0 24 24">
<title>menu</title>
<path d="M4 5.429c0-0.789 0.64-1.429 1.429-1.429h1.714c0.789 0 1.429 0.64 1.429 1.429v1.714c0 0.789-0.639 1.429-1.429 1.429h-1.714c-0.789 0-1.429-0.639-1.429-1.429v-1.714zM4 11.143c0-0.789 0.64-1.429 1.429-1.429h1.714c0.789 0 1.429 0.639 1.429 1.429v1.714c0 0.789-0.639 1.429-1.429 1.429h-1.714c-0.789 0-1.429-0.639-1.429-1.429v-1.714zM8.571 18.571c0 0.789-0.639 1.429-1.429 1.429h-1.714c-0.789 0-1.429-0.639-1.429-1.429v-1.714c0-0.789 0.64-1.428 1.429-1.428h1.714c0.789 0 1.429 0.639 1.429 1.428v1.714zM9.714 5.429c0-0.789 0.639-1.429 1.429-1.429h1.714c0.789 0 1.429 0.64 1.429 1.429v1.714c0 0.789-0.639 1.429-1.429 1.429h-1.714c-0.789 0-1.429-0.639-1.429-1.429v-1.714zM14.286 12.857c0 0.789-0.639 1.429-1.429 1.429h-1.714c-0.789 0-1.429-0.639-1.429-1.429v-1.714c0-0.789 0.639-1.429 1.429-1.429h1.714c0.789 0 1.429 0.639 1.429 1.429v1.714zM9.714 16.857c0-0.789 0.639-1.428 1.429-1.428h1.714c0.789 0 1.429 0.639 1.429 1.428v1.714c0 0.789-0.639 1.429-1.429 1.429h-1.714c-0.789 0-1.429-0.639-1.429-1.429v-1.714zM20 7.143c0 0.789-0.639 1.429-1.429 1.429h-1.714c-0.789 0-1.428-0.639-1.428-1.429v-1.714c0-0.789 0.639-1.429 1.428-1.429h1.714c0.789 0 1.429 0.64 1.429 1.429v1.714zM15.429 11.143c0-0.789 0.639-1.429 1.428-1.429h1.714c0.789 0 1.429 0.639 1.429 1.429v1.714c0 0.789-0.639 1.429-1.429 1.429h-1.714c-0.789 0-1.428-0.639-1.428-1.429v-1.714zM20 18.571c0 0.789-0.639 1.429-1.429 1.429h-1.714c-0.789 0-1.428-0.639-1.428-1.429v-1.714c0-0.789 0.639-1.428 1.428-1.428h1.714c0.789 0 1.429 0.639 1.429 1.428v1.714z"></path>
</svg>
