<!-- Generated by IcoMoon.io -->
<svg version="1.1" xmlns="http://www.w3.org/2000/svg" width="24" height="24" viewBox="0 0 24 24">
<title>merge</title>
<path d="M2 5.4343C2 4.91646 2.42013 4.49634 2.93796 4.49634H7.63556C8.31558 4.49634 8.96043 4.81524 9.37469 5.35848L13.6268 10.937C13.6502 11.0151 13.7792 11.062 13.873 11.062H18.809L17.2809 9.50269C16.9174 9.1705 16.9174 8.57646 17.2809 8.20909C17.6483 7.84563 18.2423 7.84563 18.5745 8.20909L21.701 11.3356C22.0997 11.703 22.0997 12.297 21.701 12.6292L18.5745 15.7557C18.2423 16.1544 17.6483 16.1544 17.2809 15.7557C16.9174 15.4235 16.9174 14.8295 17.2809 14.4621L18.809 12.938H13.873C13.7792 12.938 13.6502 12.9849 13.6268 13.063L9.37469 18.64C8.96043 19.1832 8.31558 19.5037 7.63556 19.5037H2.93796C2.42013 19.5037 2 19.0855 2 18.5657C2 18.0459 2.42013 17.6277 2.93796 17.6277H7.63556C7.72936 17.6277 7.82316 17.5809 7.88178 17.5027L12.0752 12L7.88178 6.49731C7.82316 6.41915 7.72936 6.37225 7.63556 6.37225H2.93796C2.42013 6.37225 2 5.95408 2 5.4343Z"></path>
</svg>
