<!-- Generated by IcoMoon.io -->
<svg version="1.1" xmlns="http://www.w3.org/2000/svg" width="24" height="24" viewBox="0 0 24 24">
<title>mobile</title>
<path d="M16.455 2h-8.909c-1.406 0-2.545 1.119-2.545 2.5v15c0 1.381 1.139 2.5 2.545 2.5h8.909c1.406 0 2.546-1.119 2.546-2.5v-15c0-1.381-1.141-2.5-2.546-2.5zM17.091 19.5c0 0.345-0.285 0.625-0.636 0.625h-8.909c-0.351 0-0.636-0.281-0.636-0.625v-15c0-0.345 0.285-0.625 0.636-0.625h8.909c0.35 0 0.636 0.28 0.636 0.625v15zM12 17.313c-0.527 0-0.954 0.42-0.954 0.938s0.428 0.938 0.954 0.938 0.954-0.42 0.954-0.938c0-0.519-0.426-0.938-0.954-0.938z"></path>
</svg>
