<!-- Generated by IcoMoon.io -->
<svg version="1.1" xmlns="http://www.w3.org/2000/svg" width="24" height="24" viewBox="0 0 24 24">
<title>newspaper</title>
<path d="M8.5625 4.92857C8.04297 4.92857 7.625 5.35848 7.625 5.89286V18.1071C7.625 18.4446 7.57031 18.7701 7.46484 19.0714H19.1875C19.707 19.0714 20.125 18.6415 20.125 18.1071V5.89286C20.125 5.35848 19.707 4.92857 19.1875 4.92857H8.5625ZM4.8125 21C3.25781 21 2 19.7062 2 18.1071V6.21429C2 5.67991 2.41797 5.25 2.9375 5.25C3.45703 5.25 3.875 5.67991 3.875 6.21429V18.1071C3.875 18.6415 4.29297 19.0714 4.8125 19.0714C5.33203 19.0714 5.75 18.6415 5.75 18.1071V5.89286C5.75 4.29375 7.00781 3 8.5625 3H19.1875C20.7422 3 22 4.29375 22 5.89286V18.1071C22 19.7062 20.7422 21 19.1875 21H4.8125ZM8.875 7.17857C8.875 6.6442 9.29297 6.21429 9.8125 6.21429H13.5625C14.082 6.21429 14.5 6.6442 14.5 7.17857V10.3929C14.5 10.9272 14.082 11.3571 13.5625 11.3571H9.8125C9.29297 11.3571 8.875 10.9272 8.875 10.3929V7.17857ZM16.6875 6.21429H17.9375C18.457 6.21429 18.875 6.6442 18.875 7.17857C18.875 7.71295 18.457 8.14286 17.9375 8.14286H16.6875C16.168 8.14286 15.75 7.71295 15.75 7.17857C15.75 6.6442 16.168 6.21429 16.6875 6.21429ZM16.6875 9.42857H17.9375C18.457 9.42857 18.875 9.85848 18.875 10.3929C18.875 10.9272 18.457 11.3571 17.9375 11.3571H16.6875C16.168 11.3571 15.75 10.9272 15.75 10.3929C15.75 9.85848 16.168 9.42857 16.6875 9.42857ZM9.8125 12.6429H17.9375C18.457 12.6429 18.875 13.0728 18.875 13.6071C18.875 14.1415 18.457 14.5714 17.9375 14.5714H9.8125C9.29297 14.5714 8.875 14.1415 8.875 13.6071C8.875 13.0728 9.29297 12.6429 9.8125 12.6429ZM9.8125 15.8571H17.9375C18.457 15.8571 18.875 16.2871 18.875 16.8214C18.875 17.3558 18.457 17.7857 17.9375 17.7857H9.8125C9.29297 17.7857 8.875 17.3558 8.875 16.8214C8.875 16.2871 9.29297 15.8571 9.8125 15.8571Z"></path>
</svg>
