<!-- Generated by IcoMoon.io -->
<svg version="1.1" xmlns="http://www.w3.org/2000/svg" width="24" height="24" viewBox="0 0 24 24">
<title>optimization</title>
<path d="M16.5797 0C17.475 0 18.1219 0.85591 17.8781 1.71607L15.3656 10.5H19.3641C20.2688 10.5 21 11.2312 21 12.1359C21 12.6187 20.7891 13.0734 20.4234 13.3875L8.29219 23.6812C8.04844 23.8875 7.73906 24 7.41891 24C6.52406 24 5.87812 23.1422 6.12375 22.2844L8.63437 13.5H4.58156C3.70781 13.5 3 12.7922 3 11.9203C3 11.4562 3.20227 11.0156 3.55359 10.7156L15.7078 0.323082C15.9516 0.114581 16.2609 0 16.5797 0ZM14.8875 3.98388L6.39188 11.25H10.125C10.4766 11.25 10.8094 11.414 11.025 11.6953C11.2359 11.9812 11.3016 12.3469 11.2078 12.6844L9.10781 20.0391L17.6953 12.75H13.875C13.5234 12.75 13.1906 12.5859 12.975 12.3047C12.7641 12.0187 12.6984 11.6531 12.7922 11.3156L14.8875 3.98388Z" />
</svg>
