<!-- Generated by IcoMoon.io -->
<svg version="1.1" xmlns="http://www.w3.org/2000/svg" width="24" height="24" viewBox="0 0 24 24">
<title>palette</title>
<path d="M20.125 12.0859C20.125 12.1914 20.0859 12.2891 19.9609 12.3984C19.8125 12.5195 19.5664 12.625 19.2656 12.625H15.4375C13.3672 12.625 11.6875 14.3047 11.6875 16.375C11.6875 16.6406 11.7148 16.8984 11.7695 17.1484C11.8984 17.7617 12.168 18.3633 12.332 18.7344C12.3594 18.7969 12.3867 18.8516 12.4062 18.9023C12.6016 19.3516 12.625 19.5039 12.625 19.5703C12.625 19.7773 12.5508 19.9414 12.4766 20.0312C12.4414 20.0742 12.4141 20.0938 12.3984 20.1016C12.3867 20.1094 12.3672 20.1133 12.3359 20.1172C12.2227 20.1211 12.1133 20.125 12 20.125C7.51172 20.125 3.875 16.4883 3.875 12C3.875 7.51172 7.51172 3.875 12 3.875C16.4883 3.875 20.125 7.51172 20.125 12C20.125 12.0273 20.125 12.0547 20.125 12.0859ZM22 12.1055C22 12.0703 22 12.0352 22 12C22 6.47656 17.5234 2 12 2C6.47656 2 2 6.47656 2 12C2 17.5234 6.47656 22 12 22C12.1367 22 12.2773 21.9961 12.4141 21.9922C13.6562 21.9414 14.5 20.8164 14.5 19.5703C14.5 19.0039 14.2617 18.4648 14.0273 17.9297C13.8594 17.5469 13.6875 17.1602 13.6055 16.7617C13.5781 16.6367 13.5664 16.5078 13.5664 16.375C13.5664 15.3398 14.4062 14.5 15.4414 14.5H19.2656C20.6914 14.5 21.9883 13.5312 22.0039 12.1055H22ZM8.25 12C8.25 11.6685 8.1183 11.3505 7.88388 11.1161C7.64946 10.8817 7.33152 10.75 7 10.75C6.66848 10.75 6.35054 10.8817 6.11612 11.1161C5.8817 11.3505 5.75 11.6685 5.75 12C5.75 12.3315 5.8817 12.6495 6.11612 12.8839C6.35054 13.1183 6.66848 13.25 7 13.25C7.33152 13.25 7.64946 13.1183 7.88388 12.8839C8.1183 12.6495 8.25 12.3315 8.25 12ZM8.25 9.5C8.58152 9.5 8.89946 9.3683 9.13388 9.13388C9.3683 8.89946 9.5 8.58152 9.5 8.25C9.5 7.91848 9.3683 7.60054 9.13388 7.36612C8.89946 7.1317 8.58152 7 8.25 7C7.91848 7 7.60054 7.1317 7.36612 7.36612C7.1317 7.60054 7 7.91848 7 8.25C7 8.58152 7.1317 8.89946 7.36612 9.13388C7.60054 9.3683 7.91848 9.5 8.25 9.5ZM13.25 7C13.25 6.66848 13.1183 6.35054 12.8839 6.11612C12.6495 5.8817 12.3315 5.75 12 5.75C11.6685 5.75 11.3505 5.8817 11.1161 6.11612C10.8817 6.35054 10.75 6.66848 10.75 7C10.75 7.33152 10.8817 7.64946 11.1161 7.88388C11.3505 8.1183 11.6685 8.25 12 8.25C12.3315 8.25 12.6495 8.1183 12.8839 7.88388C13.1183 7.64946 13.25 7.33152 13.25 7ZM15.75 9.5C16.0815 9.5 16.3995 9.3683 16.6339 9.13388C16.8683 8.89946 17 8.58152 17 8.25C17 7.91848 16.8683 7.60054 16.6339 7.36612C16.3995 7.1317 16.0815 7 15.75 7C15.4185 7 15.1005 7.1317 14.8661 7.36612C14.6317 7.60054 14.5 7.91848 14.5 8.25C14.5 8.58152 14.6317 8.89946 14.8661 9.13388C15.1005 9.3683 15.4185 9.5 15.75 9.5Z"></path>
</svg>
