<!-- Generated by IcoMoon.io -->
<svg version="1.1" xmlns="http://www.w3.org/2000/svg" width="24" height="24" viewBox="0 0 24 24">
<title>paypal</title>
<path d="M8.42924 13.7574C8.27426 14.6042 7.65875 18.5513 7.4772 19.667C7.46392 19.7464 7.43292 19.7773 7.34436 19.7773H4.041C3.70447 19.7773 3.46092 19.4862 3.5052 19.1643L6.10006 2.76296C6.16649 2.33959 6.5473 2.01765 6.98568 2.01765C13.7297 2.01765 14.2965 1.85448 16.019 2.52041C18.6803 3.54797 18.9238 6.02647 17.9674 8.70783C17.0153 11.4686 14.757 12.6549 11.7636 12.6902C9.8418 12.7211 8.68607 12.3815 8.42924 13.7574ZM19.3091 7.41125C19.2294 7.35392 19.1984 7.33187 19.1762 7.46859C19.0877 7.97134 18.9504 8.46087 18.7866 8.95039C17.0197 13.9691 12.1223 13.5325 9.7311 13.5325C9.46099 13.5325 9.28386 13.6781 9.24844 13.9471C8.24769 20.1389 8.04843 21.4311 8.04843 21.4311C8.00415 21.7442 8.20341 22 8.5178 22H11.3296C11.7105 22 12.0249 21.7222 12.1001 21.3429C12.1311 21.1047 12.0514 21.6119 12.7378 17.3164C12.9415 16.3462 13.371 16.4476 14.0352 16.4476C17.1792 16.4476 19.6323 15.1775 20.363 11.495C20.6508 9.96032 20.5667 8.3462 19.3091 7.41125Z"></path>
</svg>
