<!-- Generated by IcoMoon.io -->
<svg version="1.1" xmlns="http://www.w3.org/2000/svg" width="24" height="24" viewBox="0 0 24 24">
<title>performance</title>
<path d="M12 5.125c0.691 0 1.25 0.56 1.25 1.25 0 0.691-0.559 1.25-1.25 1.25s-1.25-0.559-1.25-1.25c0-0.69 0.559-1.25 1.25-1.25zM12 17.937c-1.207 0-2.187-0.981-2.187-2.187s0.981-2.187 2.187-2.187c0.402 0 0.777 0.109 1.102 0.297l4.305-2.945c0.43-0.293 1.012-0.184 1.305 0.242 0.293 0.43 0.184 1.012-0.242 1.305l-4.309 2.945c0.019 0.113 0.027 0.227 0.027 0.344 0 1.207-0.981 2.187-2.187 2.187zM15.75 7c0.691 0 1.25 0.559 1.25 1.25s-0.559 1.25-1.25 1.25c-0.691 0-1.25-0.559-1.25-1.25s0.559-1.25 1.25-1.25zM6.375 13.25c-0.69 0-1.25-0.559-1.25-1.25s0.56-1.25 1.25-1.25c0.691 0 1.25 0.559 1.25 1.25s-0.559 1.25-1.25 1.25zM8.25 7c0.691 0 1.25 0.559 1.25 1.25s-0.559 1.25-1.25 1.25c-0.691 0-1.25-0.559-1.25-1.25s0.559-1.25 1.25-1.25zM12 22c-5.523 0-10-4.477-10-10s4.477-10 10-10c5.523 0 10 4.477 10 10s-4.477 10-10 10zM20.125 12c0-4.488-3.637-8.125-8.125-8.125s-8.125 3.637-8.125 8.125c0 4.488 3.637 8.125 8.125 8.125s8.125-3.637 8.125-8.125z"></path>
</svg>
