<!-- Generated by IcoMoon.io -->
<svg version="1.1" xmlns="http://www.w3.org/2000/svg" width="24" height="24" viewBox="0 0 24 24">
<title>pinterest</title>
<path d="M12.9688 2.27344C16.6406 2.27344 20 4.8125 20 8.67969C20 12.3125 18.125 16.375 13.9844 16.375C12.9688 16.375 11.7578 15.8672 11.25 14.9688C10.3906 18.4844 10.4297 19.0312 8.47656 21.7266C8.28125 21.8047 8.32031 21.8047 8.20312 21.6484C8.125 20.9062 8.04688 20.2031 8.04688 19.4609C8.04688 17.0781 9.14062 13.6016 9.6875 11.2969C9.375 10.6719 9.29688 9.96875 9.29688 9.30469C9.29688 6.17969 12.9688 5.71094 12.9688 8.28906C12.9688 9.8125 11.9141 11.2578 11.9141 12.7422C11.9141 13.7188 12.7734 14.4219 13.75 14.4219C16.4453 14.4219 17.2656 10.5547 17.2656 8.48438C17.2656 5.71094 15.3125 4.1875 12.6172 4.1875C9.53125 4.1875 7.14844 6.41406 7.14844 9.53906C7.14844 11.0625 8.08594 11.8438 8.08594 12.1953C8.08594 12.5078 7.85156 13.5625 7.46094 13.5625C6.52344 13.5625 5 12 5 9.26562C5 4.92969 8.94531 2.27344 12.9688 2.27344Z"></path>
</svg>
