<!-- Generated by IcoMoon.io -->
<svg version="1.1" xmlns="http://www.w3.org/2000/svg" width="24" height="24" viewBox="0 0 24 24">
<title>plugin-branda</title>
<path d="M19.23 10.060l-6.060-6.060h-9.17v9.1l6.86 6.1 8.37-9.14zM2 2h12l8 8-11 12-9-8v-12zM5.667 5.253c0.247-0.165 0.537-0.253 0.833-0.253 0.398 0 0.779 0.158 1.061 0.439s0.439 0.663 0.439 1.061c0 0.297-0.088 0.587-0.253 0.833s-0.399 0.439-0.673 0.552c-0.274 0.114-0.576 0.143-0.867 0.085s-0.558-0.201-0.768-0.411c-0.21-0.21-0.353-0.477-0.411-0.768s-0.028-0.593 0.085-0.867c0.114-0.274 0.306-0.508 0.552-0.673z"></path>
</svg>
