<!-- Generated by IcoMoon.io -->
<svg version="1.1" xmlns="http://www.w3.org/2000/svg" width="24" height="24" viewBox="0 0 24 24">
<title>plugin-forminator</title>
<path d="M14.663 3.799h3.948c0.501 0 0.981 0.192 1.336 0.533s0.553 0.804 0.553 1.287v14.561c0 0.483-0.199 0.946-0.553 1.287s-0.835 0.533-1.336 0.533h-13.222c-0.501 0-0.981-0.192-1.336-0.533s-0.553-0.804-0.553-1.287v-14.561c0-0.483 0.199-0.946 0.553-1.287s0.835-0.533 1.336-0.533h3.948c0.199-0.527 0.561-0.982 1.037-1.304s1.044-0.494 1.626-0.494c0.582 0 1.15 0.173 1.626 0.494s0.839 0.777 1.037 1.304zM12.525 3.952c-0.155-0.1-0.338-0.153-0.525-0.153-0.25 0-0.491 0.096-0.668 0.267s-0.277 0.402-0.277 0.643c0 0.18 0.055 0.356 0.159 0.506s0.251 0.266 0.424 0.335c0.173 0.069 0.363 0.087 0.546 0.052s0.351-0.122 0.484-0.249c0.132-0.127 0.222-0.289 0.258-0.466s0.018-0.36-0.054-0.526c-0.071-0.166-0.192-0.308-0.348-0.408zM5.389 5.619v14.561h13.222v-14.561h-2.833v1.82h-7.556v-1.82h-2.833zM8.222 12.899h7.556c0.251 0 0.491 0.096 0.668 0.267s0.277 0.402 0.277 0.643c0 0.241-0.099 0.473-0.277 0.643s-0.417 0.267-0.668 0.267h-7.556c-0.25 0-0.491-0.096-0.668-0.267s-0.277-0.402-0.277-0.643c0-0.241 0.1-0.473 0.277-0.643s0.417-0.267 0.668-0.267zM15.778 10.168h-7.556c-0.25 0-0.491 0.096-0.668 0.267s-0.277 0.402-0.277 0.644c0 0.241 0.1 0.473 0.277 0.643s0.417 0.267 0.668 0.267h7.556c0.251 0 0.491-0.096 0.668-0.267s0.277-0.402 0.277-0.643c0-0.241-0.099-0.473-0.277-0.644s-0.417-0.267-0.668-0.267zM12 15.629h3.778c0.251 0 0.491 0.096 0.668 0.267s0.277 0.402 0.277 0.644c0 0.241-0.099 0.473-0.277 0.643s-0.417 0.267-0.668 0.267h-3.778c-0.25 0-0.491-0.096-0.668-0.267s-0.277-0.402-0.277-0.643c0-0.241 0.099-0.473 0.277-0.644s0.417-0.267 0.668-0.267z"></path>
</svg>
