<!-- Generated by IcoMoon.io -->
<svg version="1.1" xmlns="http://www.w3.org/2000/svg" width="24" height="24" viewBox="0 0 24 24">
<title>plugin-dashboard</title>
<path d="M21.514 19.307c0.322-0.562 0.49-1.205 0.486-1.86v-14.401h-2.589v14.404c0 0.112-0.021 0.223-0.064 0.326s-0.105 0.195-0.183 0.272c-0.182 0.165-0.415 0.256-0.656 0.256s-0.474-0.091-0.656-0.256c-0.078-0.077-0.14-0.17-0.182-0.273s-0.064-0.214-0.063-0.326v-10.844c0.012-0.47-0.068-0.938-0.236-1.374s-0.42-0.832-0.74-1.162c-0.477-0.508-1.088-0.855-1.755-0.997s-1.359-0.072-1.988 0.201c-0.629 0.273-1.165 0.736-1.54 1.329s-0.572 1.291-0.565 2.003v10.844c0.002 0.111-0.018 0.221-0.058 0.324s-0.1 0.196-0.175 0.274c-0.087 0.087-0.19 0.154-0.303 0.198s-0.233 0.064-0.353 0.058c-0.12 0.007-0.241-0.013-0.354-0.057s-0.216-0.112-0.302-0.2c-0.078-0.076-0.141-0.169-0.183-0.272s-0.064-0.214-0.064-0.326v-10.844c0.012-0.47-0.068-0.937-0.236-1.374s-0.419-0.832-0.738-1.163c-0.32-0.336-0.702-0.6-1.123-0.776s-0.872-0.26-1.325-0.247c-0.932-0.011-1.831 0.355-2.51 1.023-0.341 0.318-0.612 0.709-0.795 1.147s-0.272 0.912-0.263 1.39v14.392h2.591v-14.392c-0.002-0.111 0.018-0.221 0.058-0.324s0.1-0.196 0.175-0.274c0.182-0.165 0.415-0.256 0.656-0.256s0.474 0.091 0.656 0.256c0.078 0.077 0.14 0.17 0.183 0.272s0.065 0.214 0.065 0.326v10.844c-0.012 0.47 0.069 0.937 0.236 1.374s0.418 0.832 0.737 1.163c0.32 0.333 0.7 0.594 1.119 0.768s0.867 0.258 1.318 0.245c0.933 0.015 1.836-0.348 2.519-1.013 0.341-0.318 0.612-0.71 0.795-1.147s0.273-0.912 0.265-1.389v-10.844c0.022-0.211 0.117-0.406 0.268-0.548s0.346-0.22 0.549-0.22c0.203 0 0.398 0.078 0.549 0.22s0.246 0.337 0.268 0.548v10.844c-0.005 0.655 0.164 1.299 0.488 1.86 0.306 0.545 0.757 0.985 1.298 1.267 0.53 0.278 1.114 0.422 1.707 0.422s1.177-0.145 1.706-0.422c0.545-0.28 1-0.722 1.307-1.269z"></path>
</svg>
