<!-- Generated by IcoMoon.io -->
<svg version="1.1" xmlns="http://www.w3.org/2000/svg" width="24" height="24" viewBox="0 0 24 24">
<title>plugin-disconnected</title>
<path d="M4.66667 2C5.17465 2 5.58333 2.41992 5.58333 2.9375V6.375H3.75V2.9375C3.75 2.41992 4.16059 2 4.66667 2ZM12 2C12.508 2 12.9167 2.41992 12.9167 2.9375V6.375H11.0833V2.9375C11.0833 2.41992 11.492 2 12 2ZM14.75 7.625C15.258 7.625 15.6667 8.04297 15.6667 8.5625C15.6667 9.08203 15.258 9.5 14.75 9.5H14.4444V10.25C13.7226 10.6094 13.1382 11.0859 12.6111 11.6562V9.5H4.05556V12C4.05556 14.418 5.9691 16.375 8.33333 16.375C9.26146 16.375 10.1247 16.0703 10.8236 15.5586C10.7931 15.8242 10.7778 16.0977 10.7778 16.375C10.7778 16.8203 10.8198 17.2539 10.8962 17.6758C10.3844 17.918 9.83055 18.0898 9.25 18.1797V22H7.41667V18.1797C4.47646 17.7266 2.22222 15.1328 2.22222 11.9648V9.46484H1.91667C1.41059 9.46484 1 9.08203 1 8.52734C1 8.04297 1.41059 7.58984 1.91667 7.58984L14.75 7.625ZM12 16.375C12 13.2695 14.4635 10.75 17.5 10.75C20.5365 10.75 23 13.2695 23 16.375C23 19.4805 20.5365 22 17.5 22C14.4635 22 12 19.4805 12 16.375ZM17.5 20.125C18.008 20.125 18.4167 19.707 18.4167 19.1875C18.4167 18.668 18.008 18.25 17.5 18.25C16.992 18.25 16.5833 18.668 16.5833 19.1875C16.5833 19.707 16.992 20.125 17.5 20.125ZM16.8545 13.25V16.375C16.8545 16.7187 17.1639 17 17.4656 17C17.8361 17 18.0767 16.7187 18.0767 16.375V13.25C18.0767 12.9062 17.8361 12.625 17.4656 12.625C17.1639 12.625 16.8545 12.9062 16.8545 13.25Z"></path>
</svg>
