<!-- Generated by IcoMoon.io -->
<svg version="1.1" xmlns="http://www.w3.org/2000/svg" width="24" height="24" viewBox="0 0 24 24">
<title>plugin-shipper</title>
<path d="M9.002 2h5.999v2.727h3c1.1 0 2 0.818 2 1.818v4.2l1.28 0.382c0.26 0.073 0.48 0.236 0.6 0.454s0.14 0.473 0.060 0.709l-1.89 6.073h-0.050c-1.6 0-3.020-0.8-3.999-1.818-0.98 1.018-2.4 1.818-3.999 1.818s-3.020-0.8-4-1.818c-0.98 1.018-2.4 1.818-4 1.818h-0.050l-1.9-6.073c-0.090-0.236-0.060-0.491 0.060-0.709s0.34-0.382 0.6-0.454l1.29-0.382v-4.2c0-1 0.9-1.818 2-1.818h3v-2.727zM13.001 3.818h-2v0.909h2v-0.909zM12.001 10.282l-5.379 1.591-2.4 0.718 1.13 3.6c0.54-0.273 0.94-0.636 1.14-0.845l1.51-1.564 1.51 1.564c0.34 0.364 1.28 1.2 2.49 1.2s2.15-0.836 2.49-1.2l1.51-1.564 1.51 1.573c0.2 0.209 0.6 0.582 1.14 0.855l1.12-3.609-2.39-0.709-5.379-1.609zM6.002 10.155l5.999-1.791 5.999 1.791v-3.609h-11.999v3.609zM12.001 20.145c1.39 0 2.78-0.391 3.999-1.164 1.22 0.773 2.61 1.2 3.999 1.2h2v1.818h-2c-1.38 0-2.74-0.309-3.999-0.9-1.26 0.591-2.63 0.882-3.999 0.882s-2.74-0.3-4-0.882c-1.26 0.582-2.62 0.9-4 0.9h-2v-1.818h2c1.39 0 2.78-0.427 4-1.2 1.22 0.773 2.61 1.164 4 1.164z"></path>
</svg>
