<!-- Generated by IcoMoon.io -->
<svg version="1.1" xmlns="http://www.w3.org/2000/svg" width="24" height="24" viewBox="0 0 24 24">
<title>plugin-snapshot</title>
<path d="M7.553 20.867c-1.185-0.58-2.243-1.394-3.111-2.392s-1.528-2.162-1.942-3.422-0.573-2.59-0.468-3.913c0.105-1.323 0.473-2.61 1.081-3.788s1.444-2.22 2.459-3.067c1.015-0.847 2.188-1.48 3.45-1.863s2.588-0.507 3.898-0.366c1.311 0.141 2.58 0.545 3.733 1.188l-0.908 1.758c-1.765-0.92-3.81-1.137-5.726-0.606s-3.564 1.769-4.613 3.468-1.423 3.734-1.046 5.699c0.376 1.965 1.475 3.714 3.077 4.899s3.588 1.718 5.563 1.493c1.975-0.225 3.793-1.191 5.091-2.706s1.981-3.467 1.912-5.466c-0.065-1.871-0.783-3.655-2.023-5.041v1.778h-1v-4h4v1h-1.426c1.41 1.62 2.263 3.662 2.42 5.821 0.172 2.363-0.501 4.71-1.897 6.617s-3.423 3.25-5.716 3.785c-2.293 0.535-4.7 0.228-6.788-0.866l-0.020-0.010z"></path>
<path d="M16.080 8.78l-1.052 1.507-2.768-4.367-1.69 1.080 0.967 1.52h-4.547v2h1.77l-2.51 3.59 1.64 1.14 3.31-4.73h1.61l0.98 1.54-1.020 1.46h-1.61l-0.98-1.54-1.24 1.77 2.77 4.37 1.69-1.080-0.967-1.52h4.547v-2h-1.77l2.51-3.59-1.64-1.15z"></path>
</svg>
