<!-- Generated by IcoMoon.io -->
<svg version="1.1" xmlns="http://www.w3.org/2000/svg" width="24" height="24" viewBox="0 0 24 24">
<title>plugin-smartcrawl</title>
<path d="M16.445 5.348c-1.316-0.879-2.862-1.348-4.445-1.348-2.122 0-4.157 0.843-5.657 2.343s-2.343 3.535-2.343 5.657c0 1.050 0.207 2.085 0.603 3.046l8.046-8.046h-1.649v-1h4v4h-1v-1.664l-8.427 8.427c0.613 0.827 1.379 1.527 2.253 2.061l4.824-4.824h-1.65v-1h4v4h-1v-1.663l-4.319 4.32c1.254 0.38 2.587 0.447 3.88 0.19 1.552-0.309 2.977-1.071 4.096-2.189s1.881-2.544 2.189-4.096c0.309-1.552 0.15-3.16-0.455-4.622s-1.631-2.711-2.946-3.59zM6.444 3.685c1.644-1.099 3.578-1.685 5.556-1.685 2.652 0 5.196 1.054 7.071 2.929s2.929 4.419 2.929 7.071c0 1.978-0.587 3.911-1.685 5.556s-2.661 2.926-4.488 3.683c-1.827 0.757-3.838 0.955-5.778 0.569s-3.722-1.338-5.12-2.737c-1.399-1.398-2.351-3.18-2.737-5.12s-0.188-3.951 0.569-5.778c0.757-1.827 2.039-3.389 3.683-4.488z"></path>
</svg>
