<!-- Generated by IcoMoon.io -->
<svg version="1.1" xmlns="http://www.w3.org/2000/svg" width="24" height="24" viewBox="0 0 24 24">
<title>plugin-blc</title>
<path d="M16.024 22c-0.514 0-1.027-0.070-1.541-0.21l-0.958-0.265c-0.528-0.14-0.847-0.684-0.708-1.229 0.139-0.531 0.68-0.852 1.222-0.712l0.958 0.265c2.11 0.573 4.304-0.698 4.873-2.849 0.278-1.034 0.139-2.123-0.389-3.045s-1.388-1.592-2.416-1.872l-2.36-0.587c-0.528-0.14-0.861-0.67-0.722-1.215 0.139-0.531 0.666-0.866 1.208-0.726l2.374 0.601c1.555 0.419 2.846 1.411 3.638 2.807s1 3.017 0.597 4.567c-0.722 2.696-3.138 4.469-5.776 4.469z"></path>
<path d="M7.985 22c-2.638 0-5.054-1.774-5.776-4.469-0.417-1.55-0.208-3.17 0.597-4.567 0.791-1.397 2.083-2.388 3.624-2.807l2.36-0.698c0.528-0.154 1.083 0.14 1.236 0.67s-0.139 1.089-0.666 1.243l-2.388 0.712c-1.055 0.279-1.902 0.95-2.444 1.872-0.528 0.922-0.666 2.011-0.389 3.045 0.569 2.137 2.763 3.422 4.873 2.849l0.958-0.265c0.528-0.14 1.069 0.168 1.222 0.712 0.139 0.531-0.167 1.075-0.708 1.229l-0.958 0.265c-0.528 0.14-1.041 0.21-1.541 0.21z"></path>
<path d="M6.069 16.497c-0.139-0.531 0.167-1.075 0.708-1.229l2.666-0.726c0.528-0.14 1.069 0.168 1.222 0.712 0.139 0.531-0.167 1.075-0.708 1.229l-2.666 0.726c-0.541 0.14-1.083-0.182-1.222-0.712z"></path>
<path d="M16.718 17.196l-2.666-0.726c-0.528-0.14-0.847-0.684-0.708-1.229 0.139-0.531 0.68-0.852 1.222-0.712l2.666 0.726c0.528 0.14 0.847 0.684 0.708 1.229s-0.694 0.866-1.222 0.712z"></path>
<path d="M11.998 6.777c-0.555 0-1-0.447-1-1.006v-2.765c0-0.559 0.444-1.006 1-1.006s1 0.447 1 1.006v2.779c0 0.545-0.444 0.992-1 0.992z"></path>
<path d="M15.649 7.81c-0.472-0.279-0.639-0.894-0.361-1.369l1.388-2.402c0.278-0.475 0.889-0.642 1.361-0.363s0.639 0.894 0.361 1.369l-1.402 2.402c-0.264 0.475-0.875 0.642-1.347 0.363z"></path>
<path d="M7.055 7.447l-1.388-2.402c-0.278-0.475-0.111-1.089 0.361-1.369s1.083-0.112 1.361 0.363l1.388 2.402c0.278 0.475 0.111 1.089-0.361 1.369s-1.083 0.112-1.361-0.363z"></path>
</svg>
