<!-- Generated by IcoMoon.io -->
<svg version="1.1" xmlns="http://www.w3.org/2000/svg" width="24" height="24" viewBox="0 0 24 24">
<title>plugin-hummingbird</title>
<path d="M14.875 5.2l1.192 0.85-0.675 6.18-2.45 3.332-0.075 0.383-0.433 2.193-1.933-0.85 2.233-2.847 0.075-0.434 1.467-8.806h0.6zM12.892 3.5l-1.667 10.2-3.333 4.25 5.833 2.55 0.833-4.25 2.5-3.4 0.833-7.65-2.442-1.7h-2.558z"></path>
<path d="M8.275 8.83l3.721 0.285 0.275-1.688-9.88-0.756 8.931 6.436 0.306-1.867-3.353-2.41z"></path>
<path d="M22 5.2h-4.11l-0.159 1.472 4.27-0.622v-0.85z"></path>
<path d="M11.167 3.5h-2.5v0.85h2.5v-0.85z"></path>
<path d="M7.833 3.5h-0.833v0.85h0.833v-0.85z"></path>
<path d="M7.833 11.15h-4.167v0.85h4.167v-0.85z"></path>
<path d="M2.833 11.15h-0.833v0.85h0.833v-0.85z"></path>
<path d="M8.667 15.4h-1.667v0.85h1.667v-0.85z"></path>
<path d="M6.167 15.4h-0.833v0.85h0.833v-0.85z"></path>
</svg>
