<!-- Generated by IcoMoon.io -->
<svg version="1.1" xmlns="http://www.w3.org/2000/svg" width="24" height="24" viewBox="0 0 24 24">
<title>poll</title>
<path d="M12.3125 9.1875H7.9375C7.36458 9.13542 7.05208 8.82292 7 8.25C7.05208 7.67708 7.36458 7.36458 7.9375 7.3125H12.3125C12.8854 7.36458 13.1979 7.67708 13.25 8.25C13.1979 8.82292 12.8854 9.13542 12.3125 9.1875ZM16.0625 11.0625C16.6354 11.1146 16.9479 11.4271 17 12C16.9479 12.5729 16.6354 12.8854 16.0625 12.9375H7.9375C7.36458 12.8854 7.05208 12.5729 7 12C7.05208 11.4271 7.36458 11.1146 7.9375 11.0625H16.0625ZM9.8125 16.6875H7.9375C7.36458 16.6354 7.05208 16.3229 7 15.75C7.05208 15.1771 7.36458 14.8646 7.9375 14.8125H9.8125C10.3854 14.8646 10.6979 15.1771 10.75 15.75C10.6979 16.3229 10.3854 16.6354 9.8125 16.6875ZM18.25 3.25C18.9531 3.27604 19.5391 3.52344 20.0078 3.99219C20.4766 4.46094 20.724 5.04688 20.75 5.75V18.25C20.724 18.9531 20.4766 19.5391 20.0078 20.0078C19.5391 20.4766 18.9531 20.724 18.25 20.75H5.75C5.04688 20.724 4.46094 20.4766 3.99219 20.0078C3.52344 19.5391 3.27604 18.9531 3.25 18.25V5.75C3.27604 5.04688 3.52344 4.46094 3.99219 3.99219C4.46094 3.52344 5.04688 3.27604 5.75 3.25H18.25ZM18.25 5.125H5.75C5.35938 5.15104 5.15104 5.35938 5.125 5.75V18.25C5.15104 18.6406 5.35938 18.849 5.75 18.875H18.25C18.6406 18.849 18.849 18.6406 18.875 18.25V5.75C18.849 5.35938 18.6406 5.15104 18.25 5.125Z"></path>
</svg>
