<!-- Generated by IcoMoon.io -->
<svg version="1.1" xmlns="http://www.w3.org/2000/svg" width="24" height="24" viewBox="0 0 24 24">
<title>question</title>
<path d="M12 2c-5.523 0-10 4.477-10 10s4.477 10 10 10c5.523 0 10-4.477 10-10s-4.477-10-10-10zM12 20.125c-4.48 0-8.125-3.645-8.125-8.125s3.645-8.125 8.125-8.125c4.48 0 8.125 3.645 8.125 8.125s-3.645 8.125-8.125 8.125zM12 15.125c-0.703 0-1.25 0.547-1.25 1.25s0.512 1.25 1.25 1.25c0.668 0 1.25-0.547 1.25-1.25s-0.582-1.25-1.25-1.25zM13.293 7h-1.996c-1.523 0-2.734 1.211-2.734 2.734 0 0.508 0.43 0.938 0.938 0.938s0.938-0.43 0.938-0.938c0-0.469 0.356-0.859 0.824-0.859h1.996c0.504 0 0.93 0.391 0.93 0.859 0 0.313-0.156 0.551-0.43 0.707l-2.227 1.363c-0.312 0.195-0.469 0.508-0.469 0.82v0.625c0 0.508 0.43 0.938 0.938 0.938s0.938-0.43 0.938-0.938v-0.078l1.762-1.094c0.82-0.508 1.328-1.406 1.328-2.344 0.035-1.523-1.176-2.734-2.734-2.734z"></path>
</svg>
