<!-- Generated by IcoMoon.io -->
<svg version="1.1" xmlns="http://www.w3.org/2000/svg" width="24" height="24" viewBox="0 0 24 24">
<title>radio-selected</title>
<path d="M20.125 12C20.125 9.84512 19.269 7.77849 17.7452 6.25476C16.2215 4.73102 14.1549 3.875 12 3.875C9.84512 3.875 7.77849 4.73102 6.25476 6.25476C4.73102 7.77849 3.875 9.84512 3.875 12C3.875 14.1549 4.73102 16.2215 6.25476 17.7452C7.77849 19.269 9.84512 20.125 12 20.125C14.1549 20.125 16.2215 19.269 17.7452 17.7452C19.269 16.2215 20.125 14.1549 20.125 12ZM2 12C2 9.34784 3.05357 6.8043 4.92893 4.92893C6.8043 3.05357 9.34784 2 12 2C14.6522 2 17.1957 3.05357 19.0711 4.92893C20.9464 6.8043 22 9.34784 22 12C22 14.6522 20.9464 17.1957 19.0711 19.0711C17.1957 20.9464 14.6522 22 12 22C9.34784 22 6.8043 20.9464 4.92893 19.0711C3.05357 17.1957 2 14.6522 2 12ZM12 8.25C12.9946 8.25 13.9484 8.64509 14.6517 9.34835C15.3549 10.0516 15.75 11.0054 15.75 12C15.75 12.9946 15.3549 13.9484 14.6517 14.6517C13.9484 15.3549 12.9946 15.75 12 15.75C11.0054 15.75 10.0516 15.3549 9.34835 14.6517C8.64509 13.9484 8.25 12.9946 8.25 12C8.25 11.0054 8.64509 10.0516 9.34835 9.34835C10.0516 8.64509 11.0054 8.25 12 8.25Z"></path>
</svg>
