<!-- Generated by IcoMoon.io -->
<svg version="1.1" xmlns="http://www.w3.org/2000/svg" width="24" height="24" viewBox="0 0 24 24">
<title>reports</title>
<path d="M21.3359 11.375H12.625V2.66406C12.651 2.27344 12.8594 2.05208 13.25 2C14.8906 2.02604 16.362 2.42969 17.6641 3.21094C18.9922 3.96615 20.0339 5.00781 20.7891 6.33594C21.5703 7.63802 21.974 9.10938 22 10.75C21.9479 11.1406 21.7266 11.349 21.3359 11.375ZM10.75 13.25H19.3828C19.7734 13.25 20.0729 13.3802 20.2812 13.6406C20.5156 13.901 20.6068 14.2135 20.5547 14.5781C20.0599 16.7396 18.9792 18.5104 17.3125 19.8906C15.6458 21.2448 13.6667 21.9479 11.375 22C9.63021 21.974 8.05469 21.5443 6.64844 20.7109C5.24219 19.8776 4.1224 18.7578 3.28906 17.3516C2.45573 15.9453 2.02604 14.3698 2 12.625C2.05208 10.3333 2.75521 8.35417 4.10938 6.6875C5.48958 5.02083 7.26042 3.9401 9.42188 3.44531C9.78646 3.39323 10.099 3.48438 10.3594 3.71875C10.6198 3.92708 10.75 4.22656 10.75 4.61719V13.25ZM8.875 5.55469C7.39062 6.10156 6.19271 7 5.28125 8.25C4.36979 9.5 3.90104 10.9583 3.875 12.625C3.92708 14.7604 4.65625 16.5312 6.0625 17.9375C7.46875 19.3438 9.23958 20.0729 11.375 20.125C13.0417 20.099 14.5 19.6302 15.75 18.7188C17 17.8073 17.8984 16.6094 18.4453 15.125H8.875V5.55469Z"></path>
</svg>
