<!-- Generated by IcoMoon.io -->
<svg version="1.1" xmlns="http://www.w3.org/2000/svg" width="24" height="24" viewBox="0 0 24 24">
<title>roadmap</title>
<path d="M15.333 8.895c0 1.818-1.492 3.29-3.333 3.29s-3.333-1.472-3.333-3.29c0-1.818 1.492-3.29 3.333-3.29s3.333 1.472 3.333 3.29zM12 7.58c-0.738 0-1.333 0.588-1.333 1.316s0.596 1.316 1.333 1.316c0.738 0 1.333-0.588 1.333-1.316s-0.596-1.316-1.333-1.316zM20 8.895c0 3.594-4.875 9.993-7.012 12.633-0.513 0.629-1.463 0.629-1.975 0-2.175-2.64-7.013-9.039-7.013-12.633 0-4.361 3.582-7.895 8-7.895 4.417 0 8 3.535 8 7.895zM12 2.974c-3.312 0-6 2.652-6 5.922 0 0.51 0.187 1.299 0.637 2.352 0.437 1.020 1.057 2.147 1.771 3.286 1.183 1.9 2.558 3.701 3.592 5.042 1.033-1.341 2.408-3.142 3.592-5.042 0.713-1.139 1.333-2.266 1.771-3.286 0.45-1.053 0.638-1.842 0.638-2.352 0-3.269-2.688-5.922-6-5.922z"></path>
</svg>
