<!-- Generated by IcoMoon.io -->
<svg version="1.1" xmlns="http://www.w3.org/2000/svg" width="24" height="24" viewBox="0 0 24 24">
<title>rss</title>
<path d="M7.862 6.214c-0.526-0.032-0.981 0.394-1.004 0.924-0.022 0.534 0.393 0.98 0.923 0.968 4.275 0.18 7.899 3.803 8.076 8.076 0.024 0.555 0.45 0.96 0.928 0.96 0.014 0 0.027 0 0.041-0.001 0.532-0.021 0.945-0.471 0.923-1.003-0.185-5.251-4.636-9.703-9.888-9.924zM7.886 10.075c-0.527-0.018-0.991 0.367-1.025 0.899-0.035 0.531 0.369 0.991 0.9 1.025 2.197 0.143 4.102 2.047 4.243 4.243 0.033 0.511 0.455 0.901 0.925 0.901 0.021 0 0.043-0.001 0.064-0.003 0.531-0.034 0.934-0.493 0.9-1.024-0.168-3.127-2.88-5.839-6.006-6.040zM8.143 14.571c-0.329 0-0.658 0.125-0.909 0.376-0.502 0.502-0.502 1.316 0 1.818 0.25 0.252 0.58 0.377 0.909 0.377s0.658-0.125 0.909-0.377c0.502-0.502 0.502-1.316 0-1.818-0.25-0.252-0.58-0.376-0.909-0.376zM18.429 3h-12.857c-1.42 0-2.571 1.152-2.571 2.571v12.857c0 1.42 1.151 2.571 2.571 2.571h12.857c1.42 0 2.571-1.152 2.571-2.571v-12.857c0-1.42-1.153-2.571-2.571-2.571zM19.071 18.429c0 0.354-0.288 0.643-0.643 0.643h-12.857c-0.354 0-0.643-0.288-0.643-0.643v-12.857c0-0.354 0.288-0.643 0.643-0.643h12.857c0.354 0 0.643 0.288 0.643 0.643v12.857z"></path>
</svg>
