<!-- Generated by IcoMoon.io -->
<svg version="1.1" xmlns="http://www.w3.org/2000/svg" width="24" height="24" viewBox="0 0 24 24">
<title>search</title>
<path d="M21.697 20.398l-5.236-5.234c1.133-1.387 1.758-3.133 1.758-5.039 0-4.488-3.639-8.125-8.127-8.125s-8.092 3.638-8.092 8.125c0 4.487 3.638 8.125 8.092 8.125 1.906 0 3.655-0.66 5.040-1.759l5.236 5.234c0.219 0.185 0.461 0.275 0.699 0.275s0.48-0.092 0.663-0.275c0.364-0.366 0.364-0.96-0.034-1.327zM3.876 10.125c0-3.446 2.805-6.25 6.252-6.25s6.252 2.804 6.252 6.25-2.805 6.25-6.252 6.25c-3.447 0-6.252-2.805-6.252-6.25z"></path>
</svg>
