<!-- Generated by IcoMoon.io -->
<svg version="1.1" xmlns="http://www.w3.org/2000/svg" width="24" height="24" viewBox="0 0 24 24">
<title>shield-check</title>
<path d="M20.223 5.27l-7.5-3.125c-0.23-0.098-0.475-0.145-0.72-0.145s-0.491 0.047-0.721 0.144l-7.5 3.125c-0.698 0.288-1.157 0.972-1.157 1.695 0 10.090 7.398 15.035 9.371 15.035 1.926 0 9.379-4.871 9.379-15.035 0-0.723-0.457-1.407-1.152-1.695zM12 20.125c-3.809-1.586-7.5-6.512-7.5-13.125l7.5-3.125 7.5 3.125c0 6.789-3.844 11.602-7.5 13.125zM9.816 11.648c-0.148-0.184-0.391-0.309-0.629-0.309-0.536 0-0.938 0.438-0.938 0.938 0 0.273 0.090 0.516 0.273 0.664l1.875 1.875c0.176 0.211 0.418 0.273 0.664 0.273 0.101 0 0.448-0.019 0.712-0.327l3.75-4.375c0.152-0.177 0.226-0.394 0.226-0.61 0-0.289-0.226-0.937-0.937-0.937-0.264 0-0.527 0.111-0.712 0.327l-3.089 3.642-1.195-1.16z"></path>
</svg>
