<!-- Generated by IcoMoon.io -->
<svg version="1.1" xmlns="http://www.w3.org/2000/svg" width="24" height="24" viewBox="0 0 24 24">
<title>shield</title>
<path d="M12.558 1.62l7.846 3.295c0.917 0.385 1.604 1.279 1.596 2.323-0.021 4.129-1.717 11.615-8.9 15.018-0.692 0.326-1.504 0.326-2.2 0-7.18-3.403-8.88-10.889-8.9-15.018-0.005-1.044 0.68-1.938 1.596-2.323l7.85-3.295c0.171-0.079 0.363-0.12 0.554-0.12 0.196 0 0.383 0.042 0.558 0.12zM12 3.538l-7.623 3.164c-0.247 0.14-0.378 0.355-0.377 0.561 0.019 3.774 1.6 10.283 7.767 13.207 0.146 0.070 0.321 0.070 0.471 0 6.167-2.924 7.746-9.433 7.762-13.207 0.004-0.206-0.129-0.421-0.413-0.561l-7.587-3.164z"></path>
</svg>
