<!-- Generated by IcoMoon.io -->
<svg version="1.1" xmlns="http://www.w3.org/2000/svg" width="24" height="24" viewBox="0 0 24 24">
<title>show</title>
<path d="M7.556 12c0-2.209 1.99-4 4.445-4s4.445 1.791 4.445 4c0 2.209-1.99 4-4.445 4s-4.445-1.791-4.445-4zM12 14.5c1.535 0 2.778-1.119 2.778-2.5s-1.243-2.5-2.778-2.5c-0.024 0-0.045 0-0.101 0 0.076 0.159 0.101 0.328 0.101 0.5 0 1.103-0.996 2-2.222 2-0.191 0-0.378-0.022-0.556-0.091 0 0.050 0 0.069 0 0.063 0 1.409 1.243 2.528 2.778 2.528zM5.313 7.519c1.635-1.368 3.881-2.519 6.687-2.519s5.052 1.151 6.688 2.519c1.625 1.356 2.712 2.953 3.226 4.097 0.114 0.247 0.114 0.522 0 0.769-0.514 1.116-1.601 2.712-3.226 4.097-1.635 1.369-3.882 2.519-6.688 2.519s-5.052-1.15-6.687-2.519c-1.625-1.384-2.711-2.981-3.228-4.097-0.114-0.247-0.114-0.522 0-0.769 0.517-1.144 1.603-2.741 3.228-4.097zM12 6.5c-2.264 0-4.125 0.925-5.552 2.116-1.337 1.119-2.26 2.419-2.731 3.384 0.472 0.938 1.395 2.266 2.731 3.384 1.427 1.191 3.288 2.116 5.552 2.116s4.125-0.925 5.552-2.116c1.337-1.119 2.229-2.447 2.733-3.384-0.504-0.966-1.396-2.266-2.733-3.384-1.427-1.191-3.288-2.116-5.552-2.116z"></path>
</svg>
