<!-- Generated by IcoMoon.io -->
<svg version="1.1" xmlns="http://www.w3.org/2000/svg" width="24" height="24" viewBox="0 0 24 24">
<title>signature</title>
<path d="M7.05 7.71429C7.05 6.82701 7.78906 6.10714 8.7 6.10714C9.61094 6.10714 10.35 6.82701 10.35 7.71429V7.97879C10.35 8.89955 10.2709 9.82031 10.1094 10.7277L6.43125 11.8359C5.16281 12.2176 4.3 13.3594 4.3 14.6518V17.1562C4.3 18.4487 5.37594 19.5 6.70625 19.5C7.55188 19.5 8.33563 19.0681 8.76875 18.3616L9.31531 17.4777C10.3328 15.8237 11.0719 14.019 11.5016 12.1373L11.5359 11.9799L15.3447 10.8315L14.5231 13.0681C14.4338 13.3158 14.4716 13.5871 14.6263 13.8013C14.7809 14.0156 15.0319 14.1429 15.3 14.1429H19.975C20.4322 14.1429 20.8 13.7846 20.8 13.3393C20.8 12.894 20.4322 12.5357 19.975 12.5357H16.4722L17.4519 9.86049C17.5584 9.57254 17.4862 9.25446 17.2697 9.03348C17.0531 8.8125 16.73 8.73214 16.4309 8.82254L11.8591 10.202C11.9519 9.4654 12 8.7221 12 7.97879V7.71429C12 5.93973 10.5219 4.5 8.7 4.5C6.87813 4.5 5.4 5.93973 5.4 7.71429V9.05357C5.4 9.49888 5.76781 9.85714 6.225 9.85714C6.68219 9.85714 7.05 9.49888 7.05 9.05357V7.71429ZM6.91937 13.3728L9.70031 12.5357C9.29813 13.9821 8.68969 15.365 7.89906 16.654L7.3525 17.5379C7.215 17.7589 6.97094 17.8962 6.70625 17.8962C6.29031 17.8962 5.95 17.5681 5.95 17.1596V14.6518C5.95 14.0658 6.34188 13.5469 6.91937 13.3728ZM3.2 15.75H1.825C1.36781 15.75 1 16.1083 1 16.5536C1 16.9989 1.36781 17.3571 1.825 17.3571H3.20687C3.20344 17.2902 3.2 17.2232 3.2 17.1562V15.75ZM10.6525 17.3571H22.175C22.6322 17.3571 23 16.9989 23 16.5536C23 16.1083 22.6322 15.75 22.175 15.75H11.4534C11.2128 16.2958 10.9447 16.8348 10.6525 17.3571Z"></path>
</svg>
