<!-- Generated by IcoMoon.io -->
<svg version="1.1" xmlns="http://www.w3.org/2000/svg" width="24" height="24" viewBox="0 0 24 24">
<title>square-code</title>
<path d="M14.5 8.83594L17 11.3359C17.3906 11.7786 17.3906 12.2083 17 12.625L14.5 15.125C14.0833 15.5156 13.6536 15.5156 13.2109 15.125C12.8464 14.7083 12.8464 14.2786 13.2109 13.8359L15.0469 12L13.2109 10.125C12.8464 9.70833 12.8464 9.27865 13.2109 8.83594C13.6536 8.47135 14.0833 8.47135 14.5 8.83594ZM8.95312 12L10.75 13.8359C11.1406 14.2786 11.1406 14.7083 10.75 15.125C10.3333 15.5156 9.90365 15.5156 9.46094 15.125L6.96094 12.625C6.59635 12.2083 6.59635 11.7786 6.96094 11.3359L9.46094 8.83594C9.90365 8.47135 10.3333 8.47135 10.75 8.83594C11.1406 9.27865 11.1406 9.70833 10.75 10.125L8.95312 12ZM18.25 3.25C18.9531 3.27604 19.5391 3.52344 20.0078 3.99219C20.4766 4.46094 20.724 5.04688 20.75 5.75V18.25C20.724 18.9531 20.4766 19.5391 20.0078 20.0078C19.5391 20.4766 18.9531 20.724 18.25 20.75H5.75C5.04688 20.724 4.46094 20.4766 3.99219 20.0078C3.52344 19.5391 3.27604 18.9531 3.25 18.25V5.75C3.27604 5.04688 3.52344 4.46094 3.99219 3.99219C4.46094 3.52344 5.04688 3.27604 5.75 3.25H18.25ZM18.25 5.125H5.75C5.35938 5.15104 5.15104 5.35938 5.125 5.75V18.25C5.15104 18.6406 5.35938 18.849 5.75 18.875H18.25C18.6406 18.849 18.849 18.6406 18.875 18.25V5.75C18.849 5.35938 18.6406 5.15104 18.25 5.125Z"></path>
</svg>
