<!-- Generated by IcoMoon.io -->
<svg version="1.1" xmlns="http://www.w3.org/2000/svg" width="24" height="24" viewBox="0 0 24 24">
<title>tag</title>
<path d="M6.625 7.875C6.625 7.51042 6.74219 7.21094 6.97656 6.97656C7.21094 6.74219 7.51042 6.625 7.875 6.625C8.23958 6.625 8.53906 6.74219 8.77344 6.97656C9.00781 7.21094 9.125 7.51042 9.125 7.875C9.125 8.23958 9.00781 8.53906 8.77344 8.77344C8.53906 9.00781 8.23958 9.125 7.875 9.125C7.51042 9.125 7.21094 9.00781 6.97656 8.77344C6.74219 8.53906 6.625 8.23958 6.625 7.875ZM11.2344 3.5C11.9115 3.5 12.4974 3.7474 12.9922 4.24219L19.8672 11.1172C20.3359 11.612 20.5703 12.1979 20.5703 12.875C20.5703 13.5521 20.3359 14.138 19.8672 14.6328L14.6328 19.8672C14.138 20.3359 13.5521 20.5703 12.875 20.5703C12.1979 20.5703 11.612 20.3359 11.1172 19.8672L4.24219 12.9922C3.7474 12.4974 3.5 11.9115 3.5 11.2344V5.375C3.52604 4.85417 3.70833 4.41146 4.04688 4.04688C4.41146 3.70833 4.85417 3.52604 5.375 3.5H11.2344ZM5.57031 11.6641L12.4453 18.5391C12.7318 18.7734 13.0182 18.7734 13.3047 18.5391L18.5391 13.3047C18.7734 13.0182 18.7734 12.7318 18.5391 12.4453L11.6641 5.57031C11.5339 5.4401 11.3906 5.375 11.2344 5.375H5.375V11.2344C5.375 11.3906 5.4401 11.5339 5.57031 11.6641Z"></path>
</svg>
