<!-- Generated by IcoMoon.io -->
<svg version="1.1" xmlns="http://www.w3.org/2000/svg" width="24" height="24" viewBox="0 0 24 24">
<title>tiktok</title>
<path d="M20.75 10.2031H20.7109C18.9141 10.2031 17.2734 9.65625 15.9453 8.67969V15.6719C15.9453 19.1875 13.0938 22 9.57812 22C6.0625 22 3.25 19.1875 3.25 15.6719C3.25 12.1562 6.0625 9.30469 9.57812 9.30469C9.89062 9.30469 10.1641 9.34375 10.4766 9.38281V12.8984C10.1641 12.7812 9.89062 12.7422 9.57812 12.7422C7.97656 12.7422 6.64844 14.0703 6.64844 15.6719C6.64844 17.2734 7.97656 18.6016 9.57812 18.6016C11.1797 18.6016 12.5078 17.2734 12.5078 15.6719V2H15.9453C15.9453 2.03906 15.9453 2.03906 15.9453 2.07812C15.9453 2.35156 15.9453 2.625 16.0234 2.89844C16.2578 4.1875 17.0391 5.32031 18.1328 6.02344C18.875 6.53125 19.7734 6.80469 20.7109 6.80469C20.7109 6.80469 20.7109 6.80469 20.75 6.80469V10.2031Z"></path>
</svg>
