<!-- Generated by IcoMoon.io -->
<svg version="1.1" xmlns="http://www.w3.org/2000/svg" width="24" height="24" viewBox="0 0 24 24">
<title>tools</title>
<path d="M10.845 6.385l0 1.717 1.076 1.048c-0.242-1.228 0.123-2.479 1.002-3.36 0.712-0.713 1.656-1.097 2.636-1.097h0.040l-2.046 2.011 0.532 3.192 3.186 0.532 2.012-2.017c0.009 0.995-0.373 1.955-1.098 2.677-0.325 0.33-0.707 0.581-1.116 0.762 0.062 0.057 0.136 0.102 0.198 0.164l1.077 1.082c0.369-0.225 0.721-0.493 1.037-0.81 1.335-1.307 1.885-3.32 1.428-5.161-0.105-0.432-0.435-0.77-0.857-0.889-0.431-0.119-0.888 0.005-1.164 0.317l-2.065 2.065-1.138-0.189-0.189-1.145 2.061-2.061c0.312-0.285 0.431-0.743 0.312-1.166-0.114-0.427-0.457-0.757-0.888-0.863-1.867-0.466-3.793 0.071-5.15 1.427-0.36 0.361-0.65 0.766-0.892 1.166l0.040 0.026-0.031 0.569zM6.728 18.989c-0.448 0.449-1.239 0.449-1.692 0-0.224-0.225-0.352-0.497-0.352-0.814-0-0.321 0.123-0.621 0.351-0.814l4.726-4.794-1.192-1.194-4.725 4.727c-0.545 0.546-0.812 1.272-0.843 2.011s0.299 1.497 0.844 2.043c0.545 0.546 1.27 0.845 2.007 0.845 0.769-0 1.494-0.3 2.039-0.845l3.547-3.554c-0.338-0.559-0.532-1.193-0.549-1.836l-4.161 4.225zM20.618 16.936l-4.117-4.122c-0.813-0.814-2.027-0.974-3.002-0.49l-3.779-3.759v-2.184l-4.468-3.381-2.25 2.223 3.375 4.477 2.181 0 3.751 3.755c-0.479 0.978-0.324 2.193 0.489 3.008l4.113 4.125c0.51 0.515 1.343 0.515 1.853-0l1.854-1.858c0.509-0.453 0.509-1.284-0-1.795z"></path>
</svg>
