<!-- Generated by IcoMoon.io -->
<svg version="1.1" xmlns="http://www.w3.org/2000/svg" width="24" height="24" viewBox="0 0 24 24">
<title>user-add</title>
<path d="M5.95 7.5C5.95 6.75408 6.23973 6.03871 6.75546 5.51126C7.27118 4.98382 7.97065 4.6875 8.7 4.6875C9.42935 4.6875 10.1288 4.98382 10.6445 5.51126C11.1603 6.03871 11.45 6.75408 11.45 7.5C11.45 8.24592 11.1603 8.96129 10.6445 9.48874C10.1288 10.0162 9.42935 10.3125 8.7 10.3125C7.97065 10.3125 7.27118 10.0162 6.75546 9.48874C6.23973 8.96129 5.95 8.24592 5.95 7.5ZM13.1 7.5C13.1 6.30653 12.6364 5.16193 11.8113 4.31802C10.9861 3.47411 9.86695 3 8.7 3C7.53305 3 6.41389 3.47411 5.58873 4.31802C4.76357 5.16193 4.3 6.30653 4.3 7.5C4.3 8.69347 4.76357 9.83807 5.58873 10.682C6.41389 11.5259 7.53305 12 8.7 12C9.86695 12 10.9861 11.5259 11.8113 10.682C12.6364 9.83807 13.1 8.69347 13.1 7.5ZM10.2709 15.375C12.5294 15.375 14.3994 17.0871 14.7053 19.3125H2.69469C3.00062 17.0871 4.87063 15.375 7.12906 15.375H10.2709ZM7.12906 13.6875C3.74313 13.6875 1 16.493 1 19.9559C1 20.5324 1.45719 21 2.02094 21H15.3791C15.9428 21 16.4 20.5324 16.4 19.9559C16.4 16.493 13.6569 13.6875 10.2709 13.6875H8.7H7.12906ZM18.325 13.9688C18.325 14.4363 18.6928 14.8125 19.15 14.8125C19.6072 14.8125 19.975 14.4363 19.975 13.9688V11.7188H22.175C22.6322 11.7188 23 11.3426 23 10.875C23 10.4074 22.6322 10.0312 22.175 10.0312H19.975V7.78125C19.975 7.31367 19.6072 6.9375 19.15 6.9375C18.6928 6.9375 18.325 7.31367 18.325 7.78125V10.0312H16.125C15.6678 10.0312 15.3 10.4074 15.3 10.875C15.3 11.3426 15.6678 11.7188 16.125 11.7188H18.325V13.9688Z"></path>
</svg>
