<!-- Generated by IcoMoon.io -->
<svg version="1.1" xmlns="http://www.w3.org/2000/svg" width="24" height="24" viewBox="0 0 24 24">
<title>woocommerce</title>
<path d="M13.873,8.507C13.853,8.502,13.831,8.5,13.809,8.5c-0.094,0-0.199,0.039-0.315,0.116c-0.419,0.278-0.781,0.937-0.925,1.678c-0.236,1.222,0.173,2.119,0.559,2.199c0.106,0.024,0.235-0.014,0.38-0.109c0.419-0.278,0.781-0.937,0.925-1.678C14.668,9.484,14.259,8.587,13.873,8.507z"/>
<path d="M19.873,8.507C19.853,8.502,19.831,8.5,19.809,8.5c-0.094,0-0.199,0.039-0.315,0.116c-0.419,0.278-0.781,0.937-0.925,1.678c-0.236,1.222,0.173,2.119,0.559,2.199c0.106,0.024,0.235-0.014,0.38-0.109c0.419-0.278,0.781-0.937,0.925-1.678C20.668,9.484,20.259,8.587,19.873,8.507z"/>
<path d="M21,4H3C1.346,4,0,5.346,0,7v7c0,1.654,1.346,3,3,3h7.285l6.688,3L16,17h5c1.654,0,3-1.346,3-3V7C24,5.346,22.654,4,21,4z M10.942,7.038C10.309,8.561,10,10.92,10,14.25c0,0.319-0.203,0.604-0.505,0.709C9.415,14.986,9.332,15,9.25,15c-0.226,0-0.444-0.103-0.59-0.286c-0.94-1.197-1.685-3.141-2.163-4.644l-1.802,4.461c-0.121,0.298-0.425,0.486-0.739,0.468c-0.321-0.02-0.595-0.24-0.68-0.551c-0.046-0.168-1.129-4.16-1.275-7.667c-0.018-0.414,0.304-0.764,0.718-0.78c0.413-0.041,0.763,0.304,0.78,0.718c0.072,1.728,0.396,3.624,0.692,5.056L5.93,7.469c0.122-0.304,0.43-0.482,0.754-0.467c0.326,0.025,0.598,0.26,0.672,0.579c0.007,0.029,0.474,2.016,1.23,3.873C8.729,9.327,9.05,7.681,9.558,6.462c0.159-0.384,0.601-0.563,0.98-0.404C10.921,6.217,11.102,6.656,10.942,7.038z M15.904,10.991c-0.222,1.149-0.808,2.137-1.567,2.642C13.972,13.876,13.583,14,13.194,14c-0.125,0-0.25-0.013-0.374-0.038c-1.341-0.28-2.099-2.017-1.725-3.953c0.222-1.149,0.808-2.137,1.567-2.642c0.482-0.321,1.008-0.432,1.517-0.329C15.521,7.318,16.278,9.055,15.904,10.991z M21.904,10.991c-0.222,1.149-0.808,2.137-1.567,2.642C19.972,13.876,19.583,14,19.194,14c-0.125,0-0.25-0.013-0.374-0.038c-1.341-0.28-2.099-2.017-1.725-3.953c0.222-1.149,0.808-2.137,1.567-2.642c0.483-0.321,1.007-0.432,1.517-0.329C21.521,7.318,22.278,9.055,21.904,10.991z"/>
</svg>
