<!-- Generated by IcoMoon.io -->
<svg version="1.1" xmlns="http://www.w3.org/2000/svg" width="24" height="24" viewBox="0 0 24 24">
<title>wordpress</title>
<path d="M4.94879 8.85726L8.63226 18.946C6.05565 17.6976 4.28105 15.0556 4.28105 12C4.28105 10.8786 4.52056 9.81895 4.94879 8.85726ZM17.2113 11.6117C17.2113 10.6573 16.8702 9.99677 16.5762 9.48145C16.1843 8.84637 15.8177 8.30565 15.8177 7.67056C15.8177 6.95927 16.3548 6.29879 17.1133 6.29879C17.146 6.29879 17.1786 6.30242 17.2149 6.30605C15.8395 5.04677 14.0105 4.27742 12 4.27742C9.30363 4.27742 6.93024 5.66008 5.54758 7.75766C5.72903 7.76492 5.8996 7.76855 6.04476 7.76855C6.8504 7.76855 8.10242 7.67056 8.10242 7.67056C8.51976 7.64516 8.56694 8.25847 8.15323 8.30565C8.15323 8.30565 7.73589 8.35282 7.27137 8.37823L10.0839 16.7395L11.775 11.6734L10.5738 8.37823C10.1565 8.35282 9.76452 8.30565 9.76452 8.30565C9.34718 8.28024 9.39798 7.64516 9.81169 7.67056C9.81169 7.67056 11.0855 7.76855 11.844 7.76855C12.6496 7.76855 13.9016 7.67056 13.9016 7.67056C14.319 7.64516 14.3661 8.25847 13.9524 8.30565C13.9524 8.30565 13.5351 8.35282 13.0706 8.37823L15.8613 16.6778L16.6306 14.1048C16.9573 13.0379 17.2113 12.2722 17.2113 11.6117ZM12.1343 12.675L9.81895 19.4069C10.5121 19.6101 11.2415 19.7226 12 19.7226C12.9 19.7226 13.7601 19.5665 14.5621 19.2835C14.5403 19.2508 14.5222 19.2145 14.5077 19.1782L12.1343 12.675ZM18.7754 8.29476C18.8081 8.54153 18.8262 8.80282 18.8262 9.08952C18.8262 9.87339 18.681 10.7516 18.2383 11.8548L15.8794 18.6738C18.1766 17.3347 19.719 14.8488 19.719 12C19.719 10.6573 19.3778 9.39435 18.7754 8.29476ZM21 12C21 16.9645 16.9609 21 12 21C7.03548 21 3 16.9609 3 12C3 7.03548 7.03548 3 12 3C16.9609 3 21 7.03548 21 12ZM20.5863 12C20.5863 7.26411 16.7323 3.41371 12 3.41371C7.26411 3.41371 3.41371 7.26411 3.41371 12C3.41371 16.7359 7.26774 20.5863 12 20.5863C16.7359 20.5863 20.5863 16.7359 20.5863 12Z"></path>
</svg>
