<!-- Generated by IcoMoon.io -->
<svg version="1.1" xmlns="http://www.w3.org/2000/svg" width="24" height="24" viewBox="0 0 24 24">
<title>zip</title>
<path d="M19.2208 5.64766L16.1113 2.73204C15.6083 2.26336 14.9292 2 14.225 2L6.66667 2C5.19375 2 4 3.11914 4 4.5L4.00027 19.5C4.00027 20.8805 5.19402 22 6.66694 22H17.3333C18.8 22 20 20.875 20 19.5V7.41407C20 6.75391 19.7208 6.11719 19.2208 5.64766ZM18 19.5C18 19.8452 17.7015 20.125 17.3333 20.125H6.6675C6.29925 20.125 6.00083 19.8452 6.00083 19.5L6 4.50508C6 4.15993 6.2985 3.88008 6.66667 3.88008H8.66667V4.5H11.3333V3.88008H13.3337L13.3333 7C13.3333 7.69024 13.9304 8.25 14.6667 8.25H17.9625V19.5H18ZM11.3333 5.75H8.66667V7H11.3333V5.75ZM11.3333 8.25H8.66667V9.5H11.3333V8.25ZM11.3333 10.75H8.66667L7.39333 15.3008C7.06292 16.8242 8.32083 18.25 10.0125 18.25C11.69 18.25 12.9479 16.832 12.6242 15.3145L11.3333 10.75ZM10.6667 16.375H9.33333C8.96517 16.375 8.66667 16.0952 8.66667 15.75C8.66667 15.4048 8.96517 15.125 9.33333 15.125H10.6667C11.0348 15.125 11.3333 15.4048 11.3333 15.75C11.3333 16.0952 11.0333 16.375 10.6667 16.375Z"></path>
</svg>
