<svg width="1489" height="402" viewBox="0 0 1489 402" fill="none" xmlns="http://www.w3.org/2000/svg">
<rect width="1489" height="402" rx="4" fill="#F8F8F8"/>
<rect width="1376" height="163" transform="translate(53 110)" fill="white"/>
<path d="M660.023 146.758H661.21L664.238 154.292L667.259 146.758H668.453L664.695 156H663.768L660.023 146.758ZM659.636 146.758H660.683L660.854 152.395V156H659.636V146.758ZM667.786 146.758H668.833V156H667.615V152.395L667.786 146.758ZM674.857 154.826V151.29C674.857 151.019 674.802 150.784 674.692 150.585C674.587 150.382 674.426 150.226 674.21 150.116C673.994 150.006 673.728 149.951 673.41 149.951C673.114 149.951 672.854 150.001 672.629 150.103C672.409 150.205 672.236 150.338 672.109 150.503C671.986 150.668 671.925 150.846 671.925 151.036H670.75C670.75 150.791 670.814 150.547 670.941 150.306C671.068 150.065 671.25 149.847 671.487 149.652C671.728 149.453 672.016 149.297 672.35 149.183C672.689 149.064 673.065 149.005 673.48 149.005C673.979 149.005 674.419 149.09 674.8 149.259C675.185 149.428 675.486 149.684 675.702 150.027C675.922 150.365 676.032 150.791 676.032 151.303V154.502C676.032 154.73 676.051 154.974 676.089 155.232C676.131 155.49 676.193 155.712 676.273 155.898V156H675.048C674.989 155.865 674.942 155.685 674.908 155.46C674.874 155.232 674.857 155.02 674.857 154.826ZM675.061 151.836L675.073 152.661H673.886C673.552 152.661 673.254 152.689 672.991 152.744C672.729 152.794 672.509 152.873 672.331 152.979C672.153 153.084 672.018 153.218 671.925 153.378C671.832 153.535 671.785 153.719 671.785 153.931C671.785 154.146 671.834 154.343 671.931 154.521C672.028 154.699 672.174 154.84 672.369 154.946C672.568 155.048 672.811 155.099 673.099 155.099C673.459 155.099 673.776 155.022 674.051 154.87C674.326 154.718 674.544 154.532 674.705 154.312C674.87 154.091 674.959 153.878 674.972 153.67L675.473 154.235C675.444 154.413 675.363 154.61 675.232 154.826C675.101 155.042 674.925 155.249 674.705 155.448C674.489 155.642 674.231 155.805 673.931 155.937C673.634 156.063 673.3 156.127 672.928 156.127C672.462 156.127 672.054 156.036 671.703 155.854C671.356 155.672 671.085 155.429 670.89 155.124C670.7 154.815 670.604 154.47 670.604 154.089C670.604 153.721 670.676 153.397 670.82 153.118C670.964 152.835 671.172 152.6 671.442 152.414C671.713 152.223 672.039 152.079 672.42 151.982C672.801 151.885 673.226 151.836 673.696 151.836H675.061ZM682.208 154.667V146.25H683.389V156H682.31L682.208 154.667ZM677.587 152.642V152.509C677.587 151.984 677.65 151.508 677.777 151.081C677.909 150.649 678.093 150.279 678.33 149.97C678.571 149.661 678.856 149.424 679.187 149.259C679.521 149.09 679.893 149.005 680.304 149.005C680.735 149.005 681.112 149.081 681.434 149.233C681.759 149.382 682.035 149.599 682.259 149.887C682.487 150.171 682.667 150.514 682.798 150.916C682.93 151.318 683.021 151.772 683.071 152.28V152.864C683.025 153.368 682.934 153.821 682.798 154.223C682.667 154.625 682.487 154.967 682.259 155.251C682.035 155.535 681.759 155.752 681.434 155.905C681.108 156.053 680.727 156.127 680.291 156.127C679.889 156.127 679.521 156.04 679.187 155.867C678.856 155.693 678.571 155.45 678.33 155.137C678.093 154.824 677.909 154.455 677.777 154.032C677.65 153.605 677.587 153.141 677.587 152.642ZM678.768 152.509V152.642C678.768 152.985 678.801 153.306 678.869 153.607C678.941 153.907 679.051 154.172 679.199 154.4C679.347 154.629 679.536 154.809 679.764 154.94C679.993 155.067 680.266 155.13 680.583 155.13C680.972 155.13 681.292 155.048 681.542 154.883C681.795 154.718 681.999 154.5 682.151 154.229C682.303 153.958 682.422 153.664 682.506 153.347V151.817C682.456 151.584 682.382 151.36 682.284 151.144C682.191 150.924 682.068 150.729 681.916 150.56C681.768 150.387 681.584 150.249 681.364 150.147C681.148 150.046 680.892 149.995 680.596 149.995C680.274 149.995 679.997 150.063 679.764 150.198C679.536 150.329 679.347 150.511 679.199 150.744C679.051 150.973 678.941 151.239 678.869 151.544C678.801 151.844 678.768 152.166 678.768 152.509ZM688.067 156.127C687.589 156.127 687.155 156.047 686.766 155.886C686.381 155.721 686.048 155.49 685.769 155.194C685.494 154.898 685.282 154.546 685.134 154.14C684.986 153.734 684.912 153.29 684.912 152.807V152.541C684.912 151.982 684.995 151.485 685.16 151.049C685.325 150.609 685.549 150.236 685.833 149.932C686.116 149.627 686.438 149.396 686.797 149.24C687.157 149.083 687.529 149.005 687.915 149.005C688.405 149.005 688.829 149.09 689.184 149.259C689.544 149.428 689.838 149.665 690.066 149.97C690.295 150.27 690.464 150.626 690.574 151.036C690.684 151.442 690.739 151.887 690.739 152.369V152.896H685.61V151.938H689.565V151.849C689.548 151.544 689.485 151.248 689.375 150.96C689.269 150.672 689.099 150.435 688.867 150.249C688.634 150.063 688.317 149.97 687.915 149.97C687.648 149.97 687.403 150.027 687.178 150.141C686.954 150.251 686.761 150.416 686.601 150.636C686.44 150.856 686.315 151.125 686.226 151.442C686.137 151.76 686.093 152.126 686.093 152.541V152.807C686.093 153.133 686.137 153.44 686.226 153.728C686.319 154.011 686.452 154.261 686.626 154.477C686.804 154.692 687.017 154.862 687.267 154.984C687.521 155.107 687.809 155.168 688.13 155.168C688.545 155.168 688.896 155.084 689.184 154.915C689.472 154.745 689.724 154.519 689.939 154.235L690.65 154.8C690.502 155.025 690.314 155.238 690.085 155.441C689.857 155.645 689.576 155.81 689.241 155.937C688.911 156.063 688.52 156.127 688.067 156.127ZM697.074 154.781L698.839 149.132H699.613L699.461 150.255L697.665 156H696.909L697.074 154.781ZM695.887 149.132L697.392 154.845L697.5 156H696.706L694.713 149.132H695.887ZM701.302 154.8L702.736 149.132H703.904L701.911 156H701.124L701.302 154.8ZM699.785 149.132L701.511 154.686L701.708 156H700.959L699.112 150.243L698.959 149.132H699.785ZM706.386 149.132V156H705.206V149.132H706.386ZM705.117 147.31C705.117 147.12 705.174 146.959 705.288 146.828C705.407 146.696 705.58 146.631 705.809 146.631C706.033 146.631 706.204 146.696 706.323 146.828C706.445 146.959 706.507 147.12 706.507 147.31C706.507 147.492 706.445 147.649 706.323 147.78C706.204 147.907 706.033 147.97 705.809 147.97C705.58 147.97 705.407 147.907 705.288 147.78C705.174 147.649 705.117 147.492 705.117 147.31ZM711.147 149.132V150.033H707.434V149.132H711.147ZM708.69 147.462H709.865V154.299C709.865 154.532 709.901 154.707 709.973 154.826C710.045 154.944 710.138 155.022 710.252 155.061C710.366 155.099 710.489 155.118 710.62 155.118C710.717 155.118 710.819 155.109 710.925 155.092C711.035 155.071 711.117 155.054 711.172 155.042L711.179 156C711.086 156.03 710.963 156.057 710.811 156.083C710.662 156.112 710.483 156.127 710.271 156.127C709.983 156.127 709.719 156.07 709.478 155.956C709.236 155.841 709.044 155.651 708.9 155.384C708.76 155.113 708.69 154.75 708.69 154.292V147.462ZM713.699 146.25V156H712.524V146.25H713.699ZM713.419 152.306L712.931 152.287C712.935 151.817 713.005 151.383 713.14 150.985C713.276 150.583 713.466 150.234 713.711 149.938C713.957 149.642 714.249 149.413 714.587 149.252C714.93 149.087 715.309 149.005 715.724 149.005C716.062 149.005 716.367 149.051 716.638 149.145C716.909 149.233 717.139 149.377 717.33 149.576C717.524 149.775 717.672 150.033 717.774 150.351C717.875 150.664 717.926 151.047 717.926 151.5V156H716.746V151.487C716.746 151.127 716.693 150.839 716.587 150.624C716.481 150.403 716.327 150.245 716.124 150.147C715.92 150.046 715.671 149.995 715.375 149.995C715.083 149.995 714.816 150.056 714.575 150.179C714.338 150.302 714.132 150.471 713.959 150.687C713.79 150.903 713.656 151.15 713.559 151.43C713.466 151.705 713.419 151.997 713.419 152.306ZM723.665 149.475V149.348C723.665 147.57 724.934 146.047 726.686 145.768C727.829 145.564 729.022 145.945 729.86 146.783L730.165 147.062L730.444 146.783C731.282 145.945 732.475 145.564 733.618 145.768C735.37 146.047 736.665 147.57 736.665 149.348V149.475C736.665 150.541 736.208 151.557 735.446 152.268L730.85 156.559C730.672 156.736 730.418 156.812 730.165 156.812C729.885 156.812 729.631 156.736 729.454 156.559L724.858 152.268C724.096 151.557 723.665 150.541 723.665 149.475ZM740.778 146.25H741.958V154.667L741.857 156H740.778V146.25ZM746.599 152.509V152.642C746.599 153.141 746.539 153.605 746.421 154.032C746.302 154.455 746.129 154.824 745.9 155.137C745.672 155.45 745.393 155.693 745.062 155.867C744.732 156.04 744.354 156.127 743.926 156.127C743.49 156.127 743.107 156.053 742.777 155.905C742.451 155.752 742.176 155.535 741.952 155.251C741.728 154.967 741.548 154.625 741.413 154.223C741.281 153.821 741.19 153.368 741.14 152.864V152.28C741.19 151.772 741.281 151.318 741.413 150.916C741.548 150.514 741.728 150.171 741.952 149.887C742.176 149.599 742.451 149.382 742.777 149.233C743.103 149.081 743.482 149.005 743.914 149.005C744.345 149.005 744.728 149.09 745.062 149.259C745.397 149.424 745.676 149.661 745.9 149.97C746.129 150.279 746.302 150.649 746.421 151.081C746.539 151.508 746.599 151.984 746.599 152.509ZM745.418 152.642V152.509C745.418 152.166 745.386 151.844 745.323 151.544C745.259 151.239 745.158 150.973 745.018 150.744C744.878 150.511 744.694 150.329 744.466 150.198C744.237 150.063 743.956 149.995 743.622 149.995C743.325 149.995 743.067 150.046 742.847 150.147C742.631 150.249 742.447 150.387 742.295 150.56C742.143 150.729 742.018 150.924 741.92 151.144C741.827 151.36 741.757 151.584 741.711 151.817V153.347C741.779 153.643 741.889 153.929 742.041 154.204C742.198 154.474 742.405 154.697 742.663 154.87C742.925 155.044 743.249 155.13 743.634 155.13C743.952 155.13 744.222 155.067 744.447 154.94C744.675 154.809 744.859 154.629 744.999 154.4C745.143 154.172 745.249 153.907 745.316 153.607C745.384 153.306 745.418 152.985 745.418 152.642ZM749.938 155.289L751.848 149.132H753.105L750.35 157.06C750.287 157.229 750.202 157.411 750.096 157.606C749.995 157.805 749.863 157.993 749.703 158.171C749.542 158.349 749.347 158.493 749.119 158.603C748.894 158.717 748.626 158.774 748.312 158.774C748.219 158.774 748.101 158.761 747.957 158.736C747.813 158.71 747.712 158.689 747.652 158.672L747.646 157.72C747.68 157.724 747.733 157.729 747.805 157.733C747.881 157.741 747.934 157.746 747.963 157.746C748.23 157.746 748.456 157.71 748.643 157.638C748.829 157.57 748.985 157.454 749.112 157.289C749.243 157.128 749.356 156.906 749.449 156.622L749.938 155.289ZM748.535 149.132L750.318 154.464L750.623 155.702L749.779 156.133L747.252 149.132H748.535ZM759.999 153.207L761.833 146.758H762.722L762.208 149.265L760.233 156H759.351L759.999 153.207ZM758.101 146.758L759.561 153.08L759.999 156H759.123L756.882 146.758H758.101ZM765.096 153.074L766.524 146.758H767.749L765.515 156H764.639L765.096 153.074ZM762.855 146.758L764.639 153.207L765.286 156H764.404L762.5 149.265L761.979 146.758H762.855ZM772.516 152.375H770.047V151.379H772.516C772.994 151.379 773.382 151.303 773.678 151.15C773.974 150.998 774.19 150.786 774.325 150.516C774.465 150.245 774.535 149.936 774.535 149.589C774.535 149.271 774.465 148.973 774.325 148.694C774.19 148.415 773.974 148.19 773.678 148.021C773.382 147.847 772.994 147.761 772.516 147.761H770.333V156H769.107V146.758H772.516C773.214 146.758 773.805 146.878 774.287 147.12C774.77 147.361 775.136 147.695 775.385 148.123C775.635 148.546 775.76 149.03 775.76 149.576C775.76 150.169 775.635 150.674 775.385 151.093C775.136 151.512 774.77 151.832 774.287 152.052C773.805 152.268 773.214 152.375 772.516 152.375ZM777.696 146.758H778.883L781.911 154.292L784.932 146.758H786.125L782.368 156H781.441L777.696 146.758ZM777.309 146.758H778.356L778.527 152.395V156H777.309V146.758ZM785.459 146.758H786.506V156H785.288V152.395L785.459 146.758ZM793.946 146.758H795.165V153.01C795.165 153.704 795.01 154.282 794.701 154.743C794.392 155.204 793.982 155.551 793.47 155.784C792.962 156.013 792.41 156.127 791.813 156.127C791.187 156.127 790.62 156.013 790.112 155.784C789.608 155.551 789.208 155.204 788.912 154.743C788.62 154.282 788.474 153.704 788.474 153.01V146.758H789.687V153.01C789.687 153.493 789.775 153.89 789.953 154.204C790.131 154.517 790.378 154.75 790.696 154.902C791.017 155.054 791.39 155.13 791.813 155.13C792.24 155.13 792.613 155.054 792.93 154.902C793.252 154.75 793.501 154.517 793.679 154.204C793.857 153.89 793.946 153.493 793.946 153.01V146.758ZM802.813 156H800.884L800.896 155.003H802.813C803.474 155.003 804.024 154.866 804.464 154.591C804.904 154.312 805.234 153.922 805.454 153.423C805.678 152.919 805.791 152.331 805.791 151.658V151.093C805.791 150.564 805.727 150.095 805.6 149.684C805.473 149.269 805.287 148.92 805.042 148.637C804.796 148.349 804.496 148.131 804.14 147.983C803.789 147.835 803.385 147.761 802.928 147.761H800.846V146.758H802.928C803.533 146.758 804.085 146.859 804.584 147.062C805.084 147.261 805.513 147.551 805.873 147.932C806.237 148.309 806.516 148.766 806.711 149.303C806.906 149.836 807.003 150.437 807.003 151.106V151.658C807.003 152.327 806.906 152.93 806.711 153.467C806.516 154 806.235 154.455 805.867 154.832C805.503 155.209 805.063 155.499 804.546 155.702C804.034 155.901 803.457 156 802.813 156ZM801.538 146.758V156H800.312V146.758H801.538ZM814.715 155.003V156H809.821V155.003H814.715ZM810.069 146.758V156H808.844V146.758H810.069ZM814.068 150.731V151.728H809.821V150.731H814.068ZM814.652 146.758V147.761H809.821V146.758H814.652ZM819.216 154.597L821.939 146.758H823.266L819.844 156H818.898L819.216 154.597ZM816.67 146.758L819.368 154.597L819.705 156H818.759L815.344 146.758H816.67Z" fill="#737373"/>
<line x1="85" y1="185.5" x2="1397" y2="185.5" stroke="#E6E6E6"/>
<path d="M103.13 229.206C102.879 229.206 102.632 229.147 102.408 229.033C102.18 228.918 101.99 228.739 101.862 228.516C101.725 228.288 101.654 228.025 101.657 227.758V223.242C101.657 223.191 101.647 223.141 101.627 223.095C101.607 223.048 101.578 223.006 101.542 222.971C101.488 222.918 101.42 222.882 101.346 222.868C101.273 222.853 101.197 222.861 101.127 222.89C101.058 222.918 100.998 222.967 100.956 223.03C100.913 223.092 100.89 223.166 100.889 223.242V227.758C100.892 227.952 100.854 228.145 100.777 228.324C100.701 228.502 100.587 228.662 100.443 228.791C100.154 229.063 99.7733 229.211 99.3792 229.204C99.1895 229.21 99.0008 229.176 98.8244 229.105C98.648 229.034 98.4877 228.928 98.3531 228.793C98.2186 228.658 98.1126 228.496 98.0416 228.318C97.9706 228.14 97.9362 227.95 97.9402 227.758V223.242C97.9406 223.192 97.9306 223.141 97.9109 223.095C97.8912 223.048 97.8622 223.006 97.8258 222.971C97.7853 222.932 97.7372 222.901 97.6844 222.881C97.6317 222.861 97.5754 222.853 97.5192 222.856C97.4629 222.852 97.4065 222.861 97.3537 222.881C97.3009 222.901 97.2528 222.932 97.2126 222.971C97.176 223.006 97.1469 223.048 97.127 223.095C97.1072 223.141 97.097 223.191 97.0971 223.242V229.206H96.0506V223.242C96.0464 223.048 96.0841 222.854 96.161 222.676C96.238 222.498 96.3523 222.338 96.4962 222.209C96.7845 221.937 97.1659 221.789 97.5601 221.795C97.7497 221.79 97.9383 221.824 98.1145 221.895C98.2908 221.966 98.451 222.072 98.5854 222.207C98.7199 222.343 98.8258 222.504 98.8967 222.682C98.9676 222.86 99.0021 223.05 98.998 223.242V227.758C98.9976 227.809 99.0077 227.859 99.0276 227.905C99.0474 227.952 99.0767 227.994 99.1135 228.029C99.1976 228.103 99.3056 228.144 99.4175 228.144C99.5294 228.144 99.6375 228.103 99.7216 228.029C99.7581 227.994 99.7873 227.952 99.8071 227.905C99.827 227.859 99.8372 227.809 99.837 227.758V223.242C99.8319 223.051 99.8655 222.86 99.9358 222.683C100.006 222.505 100.112 222.344 100.246 222.209C100.524 221.943 100.892 221.795 101.274 221.795C101.656 221.795 102.024 221.943 102.302 222.209C102.436 222.344 102.542 222.505 102.612 222.683C102.682 222.86 102.716 223.051 102.711 223.242V227.758C102.711 227.808 102.72 227.859 102.74 227.905C102.76 227.952 102.789 227.994 102.825 228.029C102.909 228.103 103.017 228.144 103.129 228.144C103.241 228.144 103.349 228.103 103.433 228.029C103.47 227.994 103.499 227.952 103.519 227.905C103.539 227.859 103.549 227.809 103.549 227.758V221.794H104.604V227.758C104.606 228.025 104.535 228.287 104.399 228.516C104.271 228.739 104.081 228.918 103.852 229.033C103.628 229.147 103.381 229.206 103.13 229.206Z" fill="#1A1A1A"/>
<path d="M100.33 232.733C104.281 232.733 107.483 229.495 107.483 225.5C107.483 221.505 104.281 218.267 100.33 218.267C96.3787 218.267 93.1758 221.505 93.1758 225.5C93.1758 229.495 96.3787 232.733 100.33 232.733Z" stroke="#1A1A1A"/>
<path d="M119.419 227.43L119.368 227.779L119.321 227.562L117.752 221.784H116.647L115.053 227.544L114.996 227.792L114.948 227.441L113.668 221.784H112.43L114.349 229.379H115.505L117.202 223.511L118.85 229.379H120.012L121.936 221.784H120.693L119.419 227.43Z" fill="#1A1A1A"/>
<path d="M134.284 227.626L131.802 221.785H130.214V229.378H131.455L131.336 223.498L133.821 229.378H134.734L137.226 223.473L137.107 229.378H138.348V221.785H136.754L134.284 227.626Z" fill="#1A1A1A"/>
<path d="M128.282 222.426C127.763 221.995 127.056 221.776 126.183 221.776H123.162V229.369H124.409V226.534H126.17C127.09 226.534 127.805 226.327 128.309 225.914C128.813 225.5 129.069 224.914 129.069 224.175C129.069 223.437 128.804 222.859 128.282 222.426ZM127.816 224.193C127.816 224.606 127.673 224.936 127.392 225.157C127.111 225.378 126.702 225.493 126.183 225.493H124.409V222.828H126.215C126.712 222.828 127.108 222.961 127.391 223.211C127.53 223.333 127.64 223.484 127.713 223.654C127.787 223.823 127.822 224.008 127.816 224.193Z" fill="#1A1A1A"/>
<path d="M144.481 227.057C144.481 227.574 144.329 227.973 144.033 228.24C143.737 228.506 143.306 228.643 142.758 228.643C142.209 228.643 141.767 228.504 141.47 228.229C141.173 227.954 141.022 227.563 141.022 227.053V221.783H139.789V227.107C139.801 227.896 140.076 228.53 140.606 228.989C141.137 229.448 141.859 229.678 142.759 229.678C143.658 229.678 144.381 229.437 144.917 228.963C145.454 228.489 145.728 227.845 145.728 227.054V221.784H144.481V227.057Z" fill="#1A1A1A"/>
<path d="M153.908 222.22C153.335 221.924 152.698 221.775 152.054 221.786H149.712V229.379H151.939C153.063 229.379 153.973 229.053 154.639 228.407C155.305 227.761 155.644 226.883 155.644 225.793V225.294C155.642 224.65 155.48 224.018 155.173 223.455C154.878 222.929 154.439 222.5 153.908 222.22ZM150.958 222.84H152.052C152.821 222.84 153.411 223.059 153.806 223.492C154.202 223.925 154.403 224.557 154.403 225.373V225.786C154.403 226.602 154.193 227.238 153.778 227.677C153.363 228.117 152.756 228.34 151.976 228.34H150.954L150.958 222.84Z" fill="#1A1A1A"/>
<path d="M156.87 229.378H162.04V228.34H158.116V225.979H161.522V224.934H158.116V222.837H162.04V221.785H156.87V229.378Z" fill="#1A1A1A"/>
<path d="M168.674 221.785L166.482 227.974L164.301 221.785H162.96L165.909 229.378H167.059L170.009 221.785H168.674Z" fill="#1A1A1A"/>
<path d="M472.094 220.258V229.5H470.888V220.258H472.094ZM475.064 220.258V221.261H467.923V220.258H475.064ZM477.432 219.75V229.5H476.258V219.75H477.432ZM477.153 225.806L476.664 225.787C476.668 225.317 476.738 224.883 476.874 224.485C477.009 224.083 477.199 223.734 477.445 223.438C477.69 223.142 477.982 222.913 478.321 222.752C478.664 222.587 479.042 222.505 479.457 222.505C479.796 222.505 480.1 222.551 480.371 222.645C480.642 222.733 480.873 222.877 481.063 223.076C481.258 223.275 481.406 223.533 481.507 223.851C481.609 224.164 481.66 224.547 481.66 225V229.5H480.479V224.987C480.479 224.627 480.426 224.339 480.32 224.124C480.215 223.903 480.06 223.745 479.857 223.647C479.654 223.546 479.404 223.495 479.108 223.495C478.816 223.495 478.549 223.556 478.308 223.679C478.071 223.802 477.866 223.971 477.692 224.187C477.523 224.403 477.39 224.65 477.292 224.93C477.199 225.205 477.153 225.497 477.153 225.806ZM486.268 229.627C485.79 229.627 485.356 229.547 484.967 229.386C484.582 229.221 484.25 228.99 483.97 228.694C483.695 228.398 483.484 228.046 483.335 227.64C483.187 227.234 483.113 226.79 483.113 226.307V226.041C483.113 225.482 483.196 224.985 483.361 224.549C483.526 224.109 483.75 223.736 484.034 223.432C484.317 223.127 484.639 222.896 484.999 222.74C485.358 222.583 485.731 222.505 486.116 222.505C486.607 222.505 487.03 222.59 487.385 222.759C487.745 222.928 488.039 223.165 488.268 223.47C488.496 223.77 488.665 224.126 488.775 224.536C488.885 224.942 488.94 225.387 488.94 225.869V226.396H483.812V225.438H487.766V225.349C487.749 225.044 487.686 224.748 487.576 224.46C487.47 224.172 487.301 223.935 487.068 223.749C486.835 223.563 486.518 223.47 486.116 223.47C485.849 223.47 485.604 223.527 485.379 223.641C485.155 223.751 484.963 223.916 484.802 224.136C484.641 224.356 484.516 224.625 484.427 224.942C484.338 225.26 484.294 225.626 484.294 226.041V226.307C484.294 226.633 484.338 226.94 484.427 227.228C484.52 227.511 484.654 227.761 484.827 227.977C485.005 228.192 485.219 228.362 485.468 228.484C485.722 228.607 486.01 228.668 486.332 228.668C486.746 228.668 487.097 228.584 487.385 228.415C487.673 228.245 487.925 228.019 488.141 227.735L488.852 228.3C488.703 228.525 488.515 228.738 488.287 228.941C488.058 229.145 487.777 229.31 487.442 229.437C487.112 229.563 486.721 229.627 486.268 229.627ZM499.75 224.231V225.228H494.749V224.231H499.75ZM494.939 220.258V229.5H493.714V220.258H494.939ZM500.817 220.258V229.5H499.598V220.258H500.817ZM507.019 227.913V222.632H508.199V229.5H507.076L507.019 227.913ZM507.241 226.466L507.729 226.453C507.729 226.91 507.681 227.333 507.583 227.723C507.49 228.108 507.338 228.442 507.126 228.726C506.915 229.009 506.638 229.231 506.295 229.392C505.952 229.549 505.535 229.627 505.044 229.627C504.71 229.627 504.403 229.578 504.124 229.481C503.849 229.384 503.612 229.233 503.413 229.03C503.214 228.827 503.06 228.563 502.95 228.237C502.844 227.911 502.791 227.52 502.791 227.062V222.632H503.965V227.075C503.965 227.384 503.999 227.64 504.067 227.843C504.139 228.042 504.234 228.201 504.353 228.319C504.475 228.434 504.611 228.514 504.759 228.561C504.911 228.607 505.068 228.63 505.229 228.63C505.728 228.63 506.124 228.535 506.416 228.345C506.708 228.15 506.917 227.89 507.044 227.564C507.175 227.234 507.241 226.868 507.241 226.466ZM509.983 219.75H511.164V228.167L511.062 229.5H509.983V219.75ZM515.804 226.009V226.142C515.804 226.641 515.744 227.105 515.626 227.532C515.507 227.955 515.334 228.324 515.105 228.637C514.877 228.95 514.598 229.193 514.268 229.367C513.938 229.54 513.559 229.627 513.131 229.627C512.695 229.627 512.312 229.553 511.982 229.405C511.657 229.252 511.382 229.035 511.157 228.751C510.933 228.467 510.753 228.125 510.618 227.723C510.486 227.321 510.396 226.868 510.345 226.364V225.78C510.396 225.272 510.486 224.818 510.618 224.416C510.753 224.014 510.933 223.671 511.157 223.387C511.382 223.099 511.657 222.882 511.982 222.733C512.308 222.581 512.687 222.505 513.119 222.505C513.55 222.505 513.933 222.59 514.268 222.759C514.602 222.924 514.881 223.161 515.105 223.47C515.334 223.779 515.507 224.149 515.626 224.581C515.744 225.008 515.804 225.484 515.804 226.009ZM514.623 226.142V226.009C514.623 225.666 514.591 225.344 514.528 225.044C514.464 224.739 514.363 224.473 514.223 224.244C514.083 224.011 513.899 223.829 513.671 223.698C513.442 223.563 513.161 223.495 512.827 223.495C512.53 223.495 512.272 223.546 512.052 223.647C511.836 223.749 511.652 223.887 511.5 224.06C511.348 224.229 511.223 224.424 511.125 224.644C511.032 224.86 510.963 225.084 510.916 225.317V226.847C510.984 227.143 511.094 227.429 511.246 227.704C511.403 227.974 511.61 228.197 511.868 228.37C512.131 228.544 512.454 228.63 512.839 228.63C513.157 228.63 513.428 228.567 513.652 228.44C513.88 228.309 514.064 228.129 514.204 227.9C514.348 227.672 514.454 227.407 514.521 227.107C514.589 226.806 514.623 226.485 514.623 226.142Z" fill="#737373"/>
<path d="M526.976 220.258V231.214H526.03V220.258H526.976Z" fill="#737373"/>
<path d="M541.033 225.875H538.563V224.879H541.033C541.511 224.879 541.898 224.803 542.194 224.65C542.491 224.498 542.706 224.286 542.842 224.016C542.981 223.745 543.051 223.436 543.051 223.089C543.051 222.771 542.981 222.473 542.842 222.194C542.706 221.915 542.491 221.69 542.194 221.521C541.898 221.347 541.511 221.261 541.033 221.261H538.849V229.5H537.624V220.258H541.033C541.731 220.258 542.321 220.378 542.804 220.62C543.286 220.861 543.652 221.195 543.902 221.623C544.152 222.046 544.276 222.53 544.276 223.076C544.276 223.669 544.152 224.174 543.902 224.593C543.652 225.012 543.286 225.332 542.804 225.552C542.321 225.768 541.731 225.875 541.033 225.875ZM546.923 219.75V229.5H545.743V219.75H546.923ZM553.011 227.913V222.632H554.191V229.5H553.068L553.011 227.913ZM553.233 226.466L553.722 226.453C553.722 226.91 553.673 227.333 553.576 227.723C553.483 228.108 553.33 228.442 553.119 228.726C552.907 229.009 552.63 229.231 552.287 229.392C551.944 229.549 551.528 229.627 551.037 229.627C550.702 229.627 550.396 229.578 550.116 229.481C549.841 229.384 549.604 229.233 549.405 229.03C549.206 228.827 549.052 228.563 548.942 228.237C548.836 227.911 548.783 227.52 548.783 227.062V222.632H549.958V227.075C549.958 227.384 549.991 227.64 550.059 227.843C550.131 228.042 550.226 228.201 550.345 228.319C550.467 228.434 550.603 228.514 550.751 228.561C550.903 228.607 551.06 228.63 551.221 228.63C551.72 228.63 552.116 228.535 552.408 228.345C552.7 228.15 552.909 227.89 553.036 227.564C553.167 227.234 553.233 226.868 553.233 226.466ZM560.431 222.632H561.498V229.354C561.498 229.959 561.375 230.475 561.129 230.903C560.884 231.33 560.541 231.654 560.101 231.874C559.665 232.098 559.162 232.21 558.59 232.21C558.353 232.21 558.074 232.172 557.752 232.096C557.435 232.024 557.122 231.899 556.813 231.722C556.508 231.548 556.252 231.313 556.045 231.017L556.661 230.319C556.948 230.666 557.249 230.907 557.562 231.042C557.879 231.178 558.193 231.246 558.501 231.246C558.874 231.246 559.195 231.176 559.466 231.036C559.737 230.896 559.947 230.689 560.095 230.414C560.247 230.143 560.323 229.809 560.323 229.411V224.143L560.431 222.632ZM555.702 226.142V226.009C555.702 225.484 555.764 225.008 555.886 224.581C556.013 224.149 556.193 223.779 556.426 223.47C556.663 223.161 556.948 222.924 557.283 222.759C557.617 222.59 557.994 222.505 558.413 222.505C558.844 222.505 559.221 222.581 559.542 222.733C559.868 222.882 560.143 223.099 560.368 223.387C560.596 223.671 560.776 224.014 560.907 224.416C561.038 224.818 561.129 225.272 561.18 225.78V226.364C561.134 226.868 561.043 227.321 560.907 227.723C560.776 228.125 560.596 228.467 560.368 228.751C560.143 229.035 559.868 229.252 559.542 229.405C559.217 229.553 558.836 229.627 558.4 229.627C557.989 229.627 557.617 229.54 557.283 229.367C556.953 229.193 556.669 228.95 556.432 228.637C556.195 228.324 556.013 227.955 555.886 227.532C555.764 227.105 555.702 226.641 555.702 226.142ZM556.876 226.009V226.142C556.876 226.485 556.91 226.806 556.978 227.107C557.05 227.407 557.158 227.672 557.302 227.9C557.45 228.129 557.638 228.309 557.867 228.44C558.095 228.567 558.368 228.63 558.686 228.63C559.075 228.63 559.396 228.548 559.65 228.383C559.904 228.218 560.105 228 560.253 227.729C560.406 227.458 560.524 227.164 560.609 226.847V225.317C560.562 225.084 560.49 224.86 560.393 224.644C560.3 224.424 560.177 224.229 560.025 224.06C559.877 223.887 559.693 223.749 559.473 223.647C559.253 223.546 558.994 223.495 558.698 223.495C558.377 223.495 558.099 223.563 557.867 223.698C557.638 223.829 557.45 224.011 557.302 224.244C557.158 224.473 557.05 224.739 556.978 225.044C556.91 225.344 556.876 225.666 556.876 226.009ZM564.557 222.632V229.5H563.376V222.632H564.557ZM563.288 220.81C563.288 220.62 563.345 220.459 563.459 220.328C563.577 220.196 563.751 220.131 563.979 220.131C564.204 220.131 564.375 220.196 564.494 220.328C564.616 220.459 564.678 220.62 564.678 220.81C564.678 220.992 564.616 221.149 564.494 221.28C564.375 221.407 564.204 221.47 563.979 221.47C563.751 221.47 563.577 221.407 563.459 221.28C563.345 221.149 563.288 220.992 563.288 220.81ZM567.617 224.098V229.5H566.442V222.632H567.553L567.617 224.098ZM567.337 225.806L566.849 225.787C566.853 225.317 566.923 224.883 567.058 224.485C567.194 224.083 567.384 223.734 567.629 223.438C567.875 223.142 568.167 222.913 568.505 222.752C568.848 222.587 569.227 222.505 569.642 222.505C569.98 222.505 570.285 222.551 570.556 222.645C570.826 222.733 571.057 222.877 571.248 223.076C571.442 223.275 571.59 223.533 571.692 223.851C571.793 224.164 571.844 224.547 571.844 225V229.5H570.664V224.987C570.664 224.627 570.611 224.339 570.505 224.124C570.399 223.903 570.245 223.745 570.042 223.647C569.838 223.546 569.589 223.495 569.292 223.495C569 223.495 568.734 223.556 568.493 223.679C568.256 223.802 568.05 223.971 567.877 224.187C567.708 224.403 567.574 224.65 567.477 224.93C567.384 225.205 567.337 225.497 567.337 225.806ZM577.627 227.678C577.627 227.509 577.589 227.352 577.513 227.208C577.441 227.06 577.291 226.927 577.062 226.809C576.838 226.686 576.499 226.58 576.046 226.491C575.666 226.411 575.321 226.316 575.012 226.206C574.707 226.096 574.447 225.962 574.231 225.806C574.019 225.649 573.856 225.465 573.742 225.253C573.628 225.042 573.571 224.794 573.571 224.511C573.571 224.24 573.63 223.984 573.749 223.743C573.871 223.501 574.043 223.288 574.263 223.102C574.487 222.915 574.756 222.769 575.069 222.664C575.382 222.558 575.731 222.505 576.116 222.505C576.666 222.505 577.136 222.602 577.525 222.797C577.915 222.992 578.213 223.252 578.42 223.578C578.628 223.899 578.731 224.257 578.731 224.65H577.557C577.557 224.46 577.5 224.276 577.386 224.098C577.276 223.916 577.113 223.766 576.897 223.647C576.685 223.529 576.425 223.47 576.116 223.47C575.79 223.47 575.526 223.521 575.323 223.622C575.124 223.719 574.978 223.844 574.885 223.997C574.796 224.149 574.751 224.31 574.751 224.479C574.751 224.606 574.773 224.72 574.815 224.822C574.861 224.919 574.942 225.01 575.056 225.095C575.17 225.175 575.331 225.251 575.539 225.323C575.746 225.395 576.01 225.467 576.332 225.539C576.895 225.666 577.358 225.818 577.722 225.996C578.086 226.174 578.357 226.392 578.535 226.65C578.712 226.908 578.801 227.221 578.801 227.589C578.801 227.89 578.738 228.165 578.611 228.415C578.488 228.664 578.308 228.88 578.071 229.062C577.839 229.24 577.559 229.379 577.233 229.481C576.912 229.578 576.55 229.627 576.148 229.627C575.543 229.627 575.031 229.519 574.612 229.303C574.193 229.087 573.875 228.808 573.66 228.465C573.444 228.123 573.336 227.761 573.336 227.38H574.517C574.534 227.701 574.627 227.958 574.796 228.148C574.965 228.334 575.173 228.467 575.418 228.548C575.663 228.624 575.907 228.662 576.148 228.662C576.47 228.662 576.738 228.62 576.954 228.535C577.174 228.451 577.341 228.334 577.456 228.186C577.57 228.038 577.627 227.869 577.627 227.678Z" fill="#737373"/>
<path d="M589.976 220.258V231.214H589.03V220.258H589.976Z" fill="#737373"/>
<path d="M600.77 220.258H603.83C604.524 220.258 605.11 220.364 605.588 220.575C606.07 220.787 606.436 221.1 606.686 221.515C606.94 221.925 607.067 222.431 607.067 223.032C607.067 223.455 606.98 223.842 606.807 224.193C606.637 224.54 606.392 224.837 606.07 225.082C605.753 225.323 605.372 225.503 604.928 225.622L604.585 225.755H601.709L601.697 224.758H603.868C604.308 224.758 604.674 224.682 604.966 224.53C605.258 224.373 605.478 224.164 605.626 223.901C605.774 223.639 605.848 223.349 605.848 223.032C605.848 222.676 605.778 222.365 605.639 222.099C605.499 221.832 605.279 221.627 604.979 221.483C604.682 221.335 604.299 221.261 603.83 221.261H601.995V229.5H600.77V220.258ZM606.172 229.5L603.925 225.311L605.201 225.304L607.479 229.424V229.5H606.172ZM608.292 226.142V225.996C608.292 225.501 608.364 225.042 608.508 224.619C608.652 224.191 608.859 223.821 609.13 223.508C609.401 223.19 609.729 222.945 610.114 222.771C610.499 222.594 610.931 222.505 611.409 222.505C611.891 222.505 612.325 222.594 612.71 222.771C613.099 222.945 613.429 223.19 613.7 223.508C613.975 223.821 614.185 224.191 614.329 224.619C614.472 225.042 614.544 225.501 614.544 225.996V226.142C614.544 226.637 614.472 227.096 614.329 227.52C614.185 227.943 613.975 228.313 613.7 228.63C613.429 228.944 613.101 229.189 612.716 229.367C612.335 229.54 611.904 229.627 611.421 229.627C610.939 229.627 610.505 229.54 610.12 229.367C609.735 229.189 609.405 228.944 609.13 228.63C608.859 228.313 608.652 227.943 608.508 227.52C608.364 227.096 608.292 226.637 608.292 226.142ZM609.466 225.996V226.142C609.466 226.485 609.507 226.809 609.587 227.113C609.667 227.414 609.788 227.68 609.949 227.913C610.114 228.146 610.319 228.33 610.564 228.465C610.81 228.597 611.096 228.662 611.421 228.662C611.743 228.662 612.024 228.597 612.266 228.465C612.511 228.33 612.714 228.146 612.875 227.913C613.036 227.68 613.156 227.414 613.237 227.113C613.321 226.809 613.364 226.485 613.364 226.142V225.996C613.364 225.658 613.321 225.338 613.237 225.038C613.156 224.733 613.034 224.464 612.869 224.231C612.708 223.994 612.505 223.808 612.259 223.673C612.018 223.537 611.735 223.47 611.409 223.47C611.087 223.47 610.804 223.537 610.558 223.673C610.317 223.808 610.114 223.994 609.949 224.231C609.788 224.464 609.667 224.733 609.587 225.038C609.507 225.338 609.466 225.658 609.466 225.996ZM620.067 228.326V224.79C620.067 224.519 620.012 224.284 619.902 224.085C619.796 223.882 619.635 223.726 619.419 223.616C619.204 223.506 618.937 223.451 618.62 223.451C618.323 223.451 618.063 223.501 617.839 223.603C617.619 223.705 617.445 223.838 617.318 224.003C617.196 224.168 617.134 224.346 617.134 224.536H615.96C615.96 224.291 616.023 224.047 616.15 223.806C616.277 223.565 616.459 223.347 616.696 223.152C616.938 222.953 617.225 222.797 617.56 222.683C617.898 222.564 618.275 222.505 618.689 222.505C619.189 222.505 619.629 222.59 620.01 222.759C620.395 222.928 620.695 223.184 620.911 223.527C621.131 223.865 621.241 224.291 621.241 224.803V228.002C621.241 228.23 621.26 228.474 621.298 228.732C621.341 228.99 621.402 229.212 621.482 229.398V229.5H620.257C620.198 229.365 620.152 229.185 620.118 228.96C620.084 228.732 620.067 228.52 620.067 228.326ZM620.27 225.336L620.283 226.161H619.096C618.761 226.161 618.463 226.189 618.201 226.244C617.938 226.294 617.718 226.373 617.541 226.479C617.363 226.584 617.227 226.718 617.134 226.878C617.041 227.035 616.995 227.219 616.995 227.431C616.995 227.646 617.043 227.843 617.141 228.021C617.238 228.199 617.384 228.34 617.579 228.446C617.778 228.548 618.021 228.599 618.309 228.599C618.668 228.599 618.986 228.522 619.261 228.37C619.536 228.218 619.754 228.032 619.915 227.812C620.08 227.591 620.168 227.378 620.181 227.17L620.683 227.735C620.653 227.913 620.573 228.11 620.441 228.326C620.31 228.542 620.135 228.749 619.915 228.948C619.699 229.142 619.441 229.305 619.14 229.437C618.844 229.563 618.51 229.627 618.137 229.627C617.672 229.627 617.263 229.536 616.912 229.354C616.565 229.172 616.294 228.929 616.1 228.624C615.909 228.315 615.814 227.97 615.814 227.589C615.814 227.221 615.886 226.897 616.03 226.618C616.174 226.335 616.381 226.1 616.652 225.914C616.923 225.723 617.249 225.579 617.629 225.482C618.01 225.385 618.436 225.336 618.905 225.336H620.27ZM627.417 228.167V219.75H628.598V229.5H627.519L627.417 228.167ZM622.796 226.142V226.009C622.796 225.484 622.86 225.008 622.987 224.581C623.118 224.149 623.302 223.779 623.539 223.47C623.78 223.161 624.066 222.924 624.396 222.759C624.73 222.59 625.103 222.505 625.513 222.505C625.945 222.505 626.321 222.581 626.643 222.733C626.969 222.882 627.244 223.099 627.468 223.387C627.697 223.671 627.877 224.014 628.008 224.416C628.139 224.818 628.23 225.272 628.281 225.78V226.364C628.234 226.868 628.143 227.321 628.008 227.723C627.877 228.125 627.697 228.467 627.468 228.751C627.244 229.035 626.969 229.252 626.643 229.405C626.317 229.553 625.936 229.627 625.5 229.627C625.098 229.627 624.73 229.54 624.396 229.367C624.066 229.193 623.78 228.95 623.539 228.637C623.302 228.324 623.118 227.955 622.987 227.532C622.86 227.105 622.796 226.641 622.796 226.142ZM623.977 226.009V226.142C623.977 226.485 624.011 226.806 624.079 227.107C624.151 227.407 624.261 227.672 624.409 227.9C624.557 228.129 624.745 228.309 624.974 228.44C625.202 228.567 625.475 228.63 625.792 228.63C626.182 228.63 626.501 228.548 626.751 228.383C627.005 228.218 627.208 228 627.36 227.729C627.513 227.458 627.631 227.164 627.716 226.847V225.317C627.665 225.084 627.591 224.86 627.494 224.644C627.401 224.424 627.278 224.229 627.125 224.06C626.977 223.887 626.793 223.749 626.573 223.647C626.357 223.546 626.101 223.495 625.805 223.495C625.484 223.495 625.206 223.563 624.974 223.698C624.745 223.829 624.557 224.011 624.409 224.244C624.261 224.473 624.151 224.739 624.079 225.044C624.011 225.344 623.977 225.666 623.977 226.009ZM631.594 223.997V229.5H630.414V222.632H631.531L631.594 223.997ZM631.353 225.806L630.807 225.787C630.811 225.317 630.873 224.883 630.991 224.485C631.11 224.083 631.285 223.734 631.518 223.438C631.751 223.142 632.041 222.913 632.388 222.752C632.735 222.587 633.137 222.505 633.594 222.505C633.915 222.505 634.212 222.551 634.482 222.645C634.753 222.733 634.988 222.875 635.187 223.07C635.386 223.264 635.54 223.514 635.65 223.819C635.76 224.124 635.815 224.492 635.815 224.923V229.5H634.641V224.98C634.641 224.621 634.58 224.333 634.457 224.117C634.339 223.901 634.169 223.745 633.949 223.647C633.729 223.546 633.471 223.495 633.175 223.495C632.828 223.495 632.538 223.556 632.305 223.679C632.072 223.802 631.886 223.971 631.747 224.187C631.607 224.403 631.505 224.65 631.442 224.93C631.383 225.205 631.353 225.497 631.353 225.806ZM635.803 225.158L635.016 225.399C635.02 225.023 635.081 224.661 635.2 224.314C635.322 223.967 635.498 223.658 635.727 223.387C635.959 223.116 636.245 222.903 636.583 222.746C636.922 222.585 637.309 222.505 637.745 222.505C638.113 222.505 638.439 222.554 638.723 222.651C639.01 222.748 639.252 222.898 639.446 223.102C639.645 223.3 639.795 223.556 639.897 223.87C639.999 224.183 640.049 224.555 640.049 224.987V229.5H638.869V224.974C638.869 224.589 638.807 224.291 638.685 224.079C638.566 223.863 638.397 223.713 638.177 223.628C637.961 223.54 637.703 223.495 637.402 223.495C637.144 223.495 636.916 223.54 636.717 223.628C636.518 223.717 636.351 223.84 636.215 223.997C636.08 224.149 635.976 224.325 635.904 224.523C635.837 224.722 635.803 224.934 635.803 225.158ZM645.876 228.326V224.79C645.876 224.519 645.821 224.284 645.711 224.085C645.606 223.882 645.445 223.726 645.229 223.616C645.013 223.506 644.747 223.451 644.429 223.451C644.133 223.451 643.873 223.501 643.648 223.603C643.428 223.705 643.255 223.838 643.128 224.003C643.005 224.168 642.944 224.346 642.944 224.536H641.77C641.77 224.291 641.833 224.047 641.96 223.806C642.087 223.565 642.269 223.347 642.506 223.152C642.747 222.953 643.035 222.797 643.369 222.683C643.708 222.564 644.084 222.505 644.499 222.505C644.998 222.505 645.438 222.59 645.819 222.759C646.204 222.928 646.505 223.184 646.721 223.527C646.941 223.865 647.051 224.291 647.051 224.803V228.002C647.051 228.23 647.07 228.474 647.108 228.732C647.15 228.99 647.212 229.212 647.292 229.398V229.5H646.067C646.008 229.365 645.961 229.185 645.927 228.96C645.893 228.732 645.876 228.52 645.876 228.326ZM646.08 225.336L646.092 226.161H644.905C644.571 226.161 644.273 226.189 644.01 226.244C643.748 226.294 643.528 226.373 643.35 226.479C643.172 226.584 643.037 226.718 642.944 226.878C642.851 227.035 642.804 227.219 642.804 227.431C642.804 227.646 642.853 227.843 642.95 228.021C643.048 228.199 643.194 228.34 643.388 228.446C643.587 228.548 643.83 228.599 644.118 228.599C644.478 228.599 644.795 228.522 645.07 228.37C645.345 228.218 645.563 228.032 645.724 227.812C645.889 227.591 645.978 227.378 645.991 227.17L646.492 227.735C646.463 227.913 646.382 228.11 646.251 228.326C646.12 228.542 645.944 228.749 645.724 228.948C645.508 229.142 645.25 229.305 644.95 229.437C644.653 229.563 644.319 229.627 643.947 229.627C643.481 229.627 643.073 229.536 642.722 229.354C642.375 229.172 642.104 228.929 641.909 228.624C641.719 228.315 641.624 227.97 641.624 227.589C641.624 227.221 641.695 226.897 641.839 226.618C641.983 226.335 642.191 226.1 642.461 225.914C642.732 225.723 643.058 225.579 643.439 225.482C643.82 225.385 644.245 225.336 644.715 225.336H646.08ZM650.072 223.952V232.141H648.892V222.632H649.971L650.072 223.952ZM654.7 226.009V226.142C654.7 226.641 654.64 227.105 654.522 227.532C654.403 227.955 654.23 228.324 654.001 228.637C653.777 228.95 653.5 229.193 653.17 229.367C652.84 229.54 652.461 229.627 652.034 229.627C651.598 229.627 651.213 229.555 650.878 229.411C650.544 229.267 650.261 229.058 650.028 228.783C649.795 228.508 649.609 228.178 649.469 227.792C649.334 227.407 649.241 226.974 649.19 226.491V225.78C649.241 225.272 649.336 224.818 649.476 224.416C649.615 224.014 649.799 223.671 650.028 223.387C650.261 223.099 650.542 222.882 650.872 222.733C651.202 222.581 651.583 222.505 652.015 222.505C652.446 222.505 652.829 222.59 653.164 222.759C653.498 222.924 653.779 223.161 654.008 223.47C654.236 223.779 654.408 224.149 654.522 224.581C654.64 225.008 654.7 225.484 654.7 226.009ZM653.519 226.142V226.009C653.519 225.666 653.483 225.344 653.411 225.044C653.339 224.739 653.227 224.473 653.075 224.244C652.927 224.011 652.736 223.829 652.503 223.698C652.271 223.563 651.993 223.495 651.672 223.495C651.376 223.495 651.118 223.546 650.897 223.647C650.682 223.749 650.498 223.887 650.345 224.06C650.193 224.229 650.068 224.424 649.971 224.644C649.878 224.86 649.808 225.084 649.761 225.317V226.961C649.846 227.257 649.964 227.536 650.117 227.799C650.269 228.057 650.472 228.266 650.726 228.427C650.98 228.584 651.299 228.662 651.685 228.662C652.002 228.662 652.275 228.597 652.503 228.465C652.736 228.33 652.927 228.146 653.075 227.913C653.227 227.68 653.339 227.414 653.411 227.113C653.483 226.809 653.519 226.485 653.519 226.142Z" fill="#737373"/>
<path d="M665.976 220.258V231.214H665.03V220.258H665.976Z" fill="#737373"/>
<path d="M681.558 227.164C681.558 226.948 681.524 226.758 681.457 226.593C681.393 226.424 681.279 226.271 681.114 226.136C680.953 226 680.729 225.871 680.441 225.749C680.157 225.626 679.798 225.501 679.362 225.374C678.905 225.239 678.492 225.088 678.124 224.923C677.756 224.754 677.441 224.562 677.178 224.346C676.916 224.13 676.715 223.882 676.575 223.603C676.436 223.324 676.366 223.004 676.366 222.645C676.366 222.285 676.44 221.953 676.588 221.648C676.736 221.343 676.948 221.079 677.223 220.854C677.502 220.626 677.834 220.448 678.219 220.321C678.604 220.194 679.034 220.131 679.508 220.131C680.202 220.131 680.79 220.264 681.272 220.531C681.759 220.793 682.129 221.138 682.383 221.565C682.637 221.989 682.764 222.441 682.764 222.924H681.545C681.545 222.577 681.471 222.27 681.323 222.003C681.175 221.733 680.951 221.521 680.65 221.369C680.35 221.212 679.969 221.134 679.508 221.134C679.072 221.134 678.712 221.199 678.429 221.331C678.145 221.462 677.934 221.639 677.794 221.864C677.659 222.088 677.591 222.344 677.591 222.632C677.591 222.826 677.631 223.004 677.711 223.165C677.796 223.322 677.925 223.468 678.099 223.603C678.276 223.738 678.501 223.863 678.771 223.978C679.047 224.092 679.375 224.202 679.755 224.308C680.28 224.456 680.733 224.621 681.114 224.803C681.495 224.985 681.808 225.19 682.053 225.418C682.303 225.643 682.487 225.899 682.605 226.187C682.728 226.47 682.79 226.792 682.79 227.151C682.79 227.528 682.713 227.869 682.561 228.173C682.409 228.478 682.191 228.738 681.907 228.954C681.624 229.17 681.283 229.337 680.885 229.456C680.492 229.57 680.052 229.627 679.565 229.627C679.138 229.627 678.716 229.568 678.302 229.449C677.891 229.331 677.517 229.153 677.178 228.916C676.844 228.679 676.575 228.387 676.372 228.04C676.173 227.689 676.074 227.283 676.074 226.821H677.292C677.292 227.139 677.354 227.412 677.477 227.64C677.599 227.864 677.766 228.051 677.978 228.199C678.194 228.347 678.437 228.457 678.708 228.529C678.983 228.597 679.269 228.63 679.565 228.63C679.992 228.63 680.354 228.571 680.65 228.453C680.947 228.334 681.171 228.165 681.323 227.945C681.48 227.725 681.558 227.465 681.558 227.164ZM688.375 227.913V222.632H689.556V229.5H688.433L688.375 227.913ZM688.598 226.466L689.086 226.453C689.086 226.91 689.038 227.333 688.94 227.723C688.847 228.108 688.695 228.442 688.483 228.726C688.272 229.009 687.995 229.231 687.652 229.392C687.309 229.549 686.892 229.627 686.401 229.627C686.067 229.627 685.76 229.578 685.481 229.481C685.206 229.384 684.969 229.233 684.77 229.03C684.571 228.827 684.417 228.563 684.307 228.237C684.201 227.911 684.148 227.52 684.148 227.062V222.632H685.322V227.075C685.322 227.384 685.356 227.64 685.424 227.843C685.496 228.042 685.591 228.201 685.709 228.319C685.832 228.434 685.968 228.514 686.116 228.561C686.268 228.607 686.425 228.63 686.585 228.63C687.085 228.63 687.48 228.535 687.772 228.345C688.064 228.15 688.274 227.89 688.401 227.564C688.532 227.234 688.598 226.868 688.598 226.466ZM692.521 223.952V232.141H691.34V222.632H692.419L692.521 223.952ZM697.148 226.009V226.142C697.148 226.641 697.089 227.105 696.97 227.532C696.852 227.955 696.678 228.324 696.45 228.637C696.225 228.95 695.948 229.193 695.618 229.367C695.288 229.54 694.909 229.627 694.482 229.627C694.046 229.627 693.661 229.555 693.327 229.411C692.992 229.267 692.709 229.058 692.476 228.783C692.243 228.508 692.057 228.178 691.917 227.792C691.782 227.407 691.689 226.974 691.638 226.491V225.78C691.689 225.272 691.784 224.818 691.924 224.416C692.063 224.014 692.248 223.671 692.476 223.387C692.709 223.099 692.99 222.882 693.32 222.733C693.65 222.581 694.031 222.505 694.463 222.505C694.895 222.505 695.278 222.59 695.612 222.759C695.946 222.924 696.228 223.161 696.456 223.47C696.685 223.779 696.856 224.149 696.97 224.581C697.089 225.008 697.148 225.484 697.148 226.009ZM695.967 226.142V226.009C695.967 225.666 695.931 225.344 695.859 225.044C695.787 224.739 695.675 224.473 695.523 224.244C695.375 224.011 695.184 223.829 694.952 223.698C694.719 223.563 694.442 223.495 694.12 223.495C693.824 223.495 693.566 223.546 693.346 223.647C693.13 223.749 692.946 223.887 692.793 224.06C692.641 224.229 692.516 224.424 692.419 224.644C692.326 224.86 692.256 225.084 692.209 225.317V226.961C692.294 227.257 692.413 227.536 692.565 227.799C692.717 228.057 692.92 228.266 693.174 228.427C693.428 228.584 693.748 228.662 694.133 228.662C694.45 228.662 694.723 228.597 694.952 228.465C695.184 228.33 695.375 228.146 695.523 227.913C695.675 227.68 695.787 227.414 695.859 227.113C695.931 226.809 695.967 226.485 695.967 226.142ZM699.82 223.952V232.141H698.64V222.632H699.719L699.82 223.952ZM704.448 226.009V226.142C704.448 226.641 704.389 227.105 704.27 227.532C704.152 227.955 703.978 228.324 703.75 228.637C703.525 228.95 703.248 229.193 702.918 229.367C702.588 229.54 702.209 229.627 701.782 229.627C701.346 229.627 700.961 229.555 700.626 229.411C700.292 229.267 700.009 229.058 699.776 228.783C699.543 228.508 699.357 228.178 699.217 227.792C699.082 227.407 698.989 226.974 698.938 226.491V225.78C698.989 225.272 699.084 224.818 699.224 224.416C699.363 224.014 699.547 223.671 699.776 223.387C700.009 223.099 700.29 222.882 700.62 222.733C700.95 222.581 701.331 222.505 701.763 222.505C702.194 222.505 702.577 222.59 702.912 222.759C703.246 222.924 703.527 223.161 703.756 223.47C703.984 223.779 704.156 224.149 704.27 224.581C704.389 225.008 704.448 225.484 704.448 226.009ZM703.267 226.142V226.009C703.267 225.666 703.231 225.344 703.159 225.044C703.087 224.739 702.975 224.473 702.823 224.244C702.675 224.011 702.484 223.829 702.251 223.698C702.019 223.563 701.742 223.495 701.42 223.495C701.124 223.495 700.866 223.546 700.646 223.647C700.43 223.749 700.246 223.887 700.093 224.06C699.941 224.229 699.816 224.424 699.719 224.644C699.626 224.86 699.556 225.084 699.509 225.317V226.961C699.594 227.257 699.712 227.536 699.865 227.799C700.017 228.057 700.22 228.266 700.474 228.427C700.728 228.584 701.048 228.662 701.433 228.662C701.75 228.662 702.023 228.597 702.251 228.465C702.484 228.33 702.675 228.146 702.823 227.913C702.975 227.68 703.087 227.414 703.159 227.113C703.231 226.809 703.267 226.485 703.267 226.142ZM705.635 226.142V225.996C705.635 225.501 705.707 225.042 705.851 224.619C705.994 224.191 706.202 223.821 706.473 223.508C706.743 223.19 707.071 222.945 707.457 222.771C707.842 222.594 708.273 222.505 708.751 222.505C709.234 222.505 709.668 222.594 710.053 222.771C710.442 222.945 710.772 223.19 711.043 223.508C711.318 223.821 711.528 224.191 711.671 224.619C711.815 225.042 711.887 225.501 711.887 225.996V226.142C711.887 226.637 711.815 227.096 711.671 227.52C711.528 227.943 711.318 228.313 711.043 228.63C710.772 228.944 710.444 229.189 710.059 229.367C709.678 229.54 709.247 229.627 708.764 229.627C708.282 229.627 707.848 229.54 707.463 229.367C707.078 229.189 706.748 228.944 706.473 228.63C706.202 228.313 705.994 227.943 705.851 227.52C705.707 227.096 705.635 226.637 705.635 226.142ZM706.809 225.996V226.142C706.809 226.485 706.849 226.809 706.93 227.113C707.01 227.414 707.131 227.68 707.292 227.913C707.457 228.146 707.662 228.33 707.907 228.465C708.153 228.597 708.438 228.662 708.764 228.662C709.086 228.662 709.367 228.597 709.608 228.465C709.854 228.33 710.057 228.146 710.218 227.913C710.379 227.68 710.499 227.414 710.58 227.113C710.664 226.809 710.707 226.485 710.707 226.142V225.996C710.707 225.658 710.664 225.338 710.58 225.038C710.499 224.733 710.376 224.464 710.211 224.231C710.051 223.994 709.847 223.808 709.602 223.673C709.361 223.537 709.077 223.47 708.751 223.47C708.43 223.47 708.146 223.537 707.901 223.673C707.66 223.808 707.457 223.994 707.292 224.231C707.131 224.464 707.01 224.733 706.93 225.038C706.849 225.338 706.809 225.658 706.809 225.996ZM714.534 223.711V229.5H713.36V222.632H714.502L714.534 223.711ZM716.68 222.594L716.673 223.686C716.576 223.664 716.483 223.652 716.394 223.647C716.309 223.639 716.212 223.635 716.102 223.635C715.831 223.635 715.592 223.677 715.385 223.762C715.177 223.846 715.002 223.965 714.858 224.117C714.714 224.27 714.6 224.451 714.515 224.663C714.435 224.87 714.382 225.099 714.356 225.349L714.026 225.539C714.026 225.124 714.067 224.735 714.147 224.371C714.232 224.007 714.361 223.686 714.534 223.406C714.708 223.123 714.928 222.903 715.194 222.746C715.465 222.585 715.787 222.505 716.159 222.505C716.244 222.505 716.341 222.515 716.451 222.537C716.561 222.554 716.637 222.573 716.68 222.594ZM720.958 222.632V223.533H717.245V222.632H720.958ZM718.501 220.962H719.676V227.799C719.676 228.032 719.712 228.207 719.784 228.326C719.856 228.444 719.949 228.522 720.063 228.561C720.177 228.599 720.3 228.618 720.431 228.618C720.528 228.618 720.63 228.609 720.736 228.592C720.846 228.571 720.928 228.554 720.983 228.542L720.99 229.5C720.897 229.53 720.774 229.557 720.622 229.583C720.473 229.612 720.294 229.627 720.082 229.627C719.794 229.627 719.53 229.57 719.289 229.456C719.047 229.341 718.855 229.151 718.711 228.884C718.571 228.613 718.501 228.25 718.501 227.792V220.962Z" fill="#737373"/>
<path d="M731.976 220.258V231.214H731.03V220.258H731.976Z" fill="#737373"/>
<path d="M748.346 226.561H749.565C749.501 227.145 749.334 227.668 749.063 228.129C748.793 228.59 748.41 228.956 747.915 229.227C747.419 229.494 746.802 229.627 746.061 229.627C745.519 229.627 745.026 229.525 744.582 229.322C744.142 229.119 743.763 228.831 743.446 228.459C743.128 228.082 742.883 227.632 742.709 227.107C742.54 226.578 742.456 225.99 742.456 225.342V224.422C742.456 223.774 742.54 223.188 742.709 222.664C742.883 222.135 743.131 221.682 743.452 221.305C743.778 220.929 744.169 220.639 744.626 220.436C745.083 220.232 745.598 220.131 746.169 220.131C746.867 220.131 747.458 220.262 747.94 220.524C748.422 220.787 748.797 221.151 749.063 221.616C749.334 222.077 749.501 222.613 749.565 223.222H748.346C748.287 222.791 748.177 222.42 748.016 222.111C747.855 221.798 747.627 221.557 747.331 221.388C747.034 221.218 746.647 221.134 746.169 221.134C745.758 221.134 745.397 221.212 745.083 221.369C744.775 221.525 744.514 221.747 744.303 222.035C744.095 222.323 743.939 222.668 743.833 223.07C743.727 223.472 743.674 223.918 743.674 224.409V225.342C743.674 225.795 743.721 226.22 743.814 226.618C743.911 227.016 744.057 227.365 744.252 227.666C744.447 227.966 744.694 228.203 744.995 228.376C745.295 228.546 745.651 228.63 746.061 228.63C746.582 228.63 746.996 228.548 747.305 228.383C747.614 228.218 747.847 227.981 748.003 227.672C748.164 227.363 748.278 226.993 748.346 226.561ZM750.746 226.142V225.996C750.746 225.501 750.818 225.042 750.961 224.619C751.105 224.191 751.313 223.821 751.583 223.508C751.854 223.19 752.182 222.945 752.567 222.771C752.952 222.594 753.384 222.505 753.862 222.505C754.345 222.505 754.778 222.594 755.164 222.771C755.553 222.945 755.883 223.19 756.154 223.508C756.429 223.821 756.638 224.191 756.782 224.619C756.926 225.042 756.998 225.501 756.998 225.996V226.142C756.998 226.637 756.926 227.096 756.782 227.52C756.638 227.943 756.429 228.313 756.154 228.63C755.883 228.944 755.555 229.189 755.17 229.367C754.789 229.54 754.357 229.627 753.875 229.627C753.393 229.627 752.959 229.54 752.574 229.367C752.189 229.189 751.859 228.944 751.583 228.63C751.313 228.313 751.105 227.943 750.961 227.52C750.818 227.096 750.746 226.637 750.746 226.142ZM751.92 225.996V226.142C751.92 226.485 751.96 226.809 752.041 227.113C752.121 227.414 752.242 227.68 752.402 227.913C752.567 228.146 752.773 228.33 753.018 228.465C753.264 228.597 753.549 228.662 753.875 228.662C754.197 228.662 754.478 228.597 754.719 228.465C754.965 228.33 755.168 228.146 755.329 227.913C755.489 227.68 755.61 227.414 755.69 227.113C755.775 226.809 755.817 226.485 755.817 226.142V225.996C755.817 225.658 755.775 225.338 755.69 225.038C755.61 224.733 755.487 224.464 755.322 224.231C755.161 223.994 754.958 223.808 754.713 223.673C754.472 223.537 754.188 223.47 753.862 223.47C753.541 223.47 753.257 223.537 753.012 223.673C752.771 223.808 752.567 223.994 752.402 224.231C752.242 224.464 752.121 224.733 752.041 225.038C751.96 225.338 751.92 225.658 751.92 225.996ZM759.639 223.997V229.5H758.458V222.632H759.575L759.639 223.997ZM759.397 225.806L758.852 225.787C758.856 225.317 758.917 224.883 759.036 224.485C759.154 224.083 759.33 223.734 759.562 223.438C759.795 223.142 760.085 222.913 760.432 222.752C760.779 222.587 761.181 222.505 761.638 222.505C761.96 222.505 762.256 222.551 762.527 222.645C762.798 222.733 763.033 222.875 763.231 223.07C763.43 223.264 763.585 223.514 763.695 223.819C763.805 224.124 763.86 224.492 763.86 224.923V229.5H762.686V224.98C762.686 224.621 762.624 224.333 762.501 224.117C762.383 223.901 762.214 223.745 761.994 223.647C761.774 223.546 761.515 223.495 761.219 223.495C760.872 223.495 760.582 223.556 760.35 223.679C760.117 223.802 759.931 223.971 759.791 224.187C759.651 224.403 759.55 224.65 759.486 224.93C759.427 225.205 759.397 225.497 759.397 225.806ZM763.847 225.158L763.06 225.399C763.064 225.023 763.126 224.661 763.244 224.314C763.367 223.967 763.542 223.658 763.771 223.387C764.004 223.116 764.289 222.903 764.628 222.746C764.966 222.585 765.354 222.505 765.79 222.505C766.158 222.505 766.484 222.554 766.767 222.651C767.055 222.748 767.296 222.898 767.491 223.102C767.69 223.3 767.84 223.556 767.941 223.87C768.043 224.183 768.094 224.555 768.094 224.987V229.5H766.913V224.974C766.913 224.589 766.852 224.291 766.729 224.079C766.611 223.863 766.441 223.713 766.221 223.628C766.005 223.54 765.747 223.495 765.447 223.495C765.189 223.495 764.96 223.54 764.761 223.628C764.562 223.717 764.395 223.84 764.26 223.997C764.124 224.149 764.021 224.325 763.949 224.523C763.881 224.722 763.847 224.934 763.847 225.158ZM771.039 223.997V229.5H769.858V222.632H770.976L771.039 223.997ZM770.798 225.806L770.252 225.787C770.256 225.317 770.318 224.883 770.436 224.485C770.555 224.083 770.73 223.734 770.963 223.438C771.196 223.142 771.486 222.913 771.833 222.752C772.18 222.587 772.582 222.505 773.039 222.505C773.36 222.505 773.656 222.551 773.927 222.645C774.198 222.733 774.433 222.875 774.632 223.07C774.831 223.264 774.985 223.514 775.095 223.819C775.205 224.124 775.26 224.492 775.26 224.923V229.5H774.086V224.98C774.086 224.621 774.025 224.333 773.902 224.117C773.783 223.901 773.614 223.745 773.394 223.647C773.174 223.546 772.916 223.495 772.62 223.495C772.273 223.495 771.983 223.556 771.75 223.679C771.517 223.802 771.331 223.971 771.191 224.187C771.052 224.403 770.95 224.65 770.887 224.93C770.827 225.205 770.798 225.497 770.798 225.806ZM775.248 225.158L774.46 225.399C774.465 225.023 774.526 224.661 774.645 224.314C774.767 223.967 774.943 223.658 775.171 223.387C775.404 223.116 775.69 222.903 776.028 222.746C776.367 222.585 776.754 222.505 777.19 222.505C777.558 222.505 777.884 222.554 778.167 222.651C778.455 222.748 778.696 222.898 778.891 223.102C779.09 223.3 779.24 223.556 779.342 223.87C779.443 224.183 779.494 224.555 779.494 224.987V229.5H778.313V224.974C778.313 224.589 778.252 224.291 778.129 224.079C778.011 223.863 777.842 223.713 777.622 223.628C777.406 223.54 777.148 223.495 776.847 223.495C776.589 223.495 776.361 223.54 776.162 223.628C775.963 223.717 775.796 223.84 775.66 223.997C775.525 224.149 775.421 224.325 775.349 224.523C775.281 224.722 775.248 224.934 775.248 225.158ZM785.474 227.913V222.632H786.654V229.5H785.531L785.474 227.913ZM785.696 226.466L786.185 226.453C786.185 226.91 786.136 227.333 786.039 227.723C785.945 228.108 785.793 228.442 785.582 228.726C785.37 229.009 785.093 229.231 784.75 229.392C784.407 229.549 783.99 229.627 783.5 229.627C783.165 229.627 782.858 229.578 782.579 229.481C782.304 229.384 782.067 229.233 781.868 229.03C781.669 228.827 781.515 228.563 781.405 228.237C781.299 227.911 781.246 227.52 781.246 227.062V222.632H782.42V227.075C782.42 227.384 782.454 227.64 782.522 227.843C782.594 228.042 782.689 228.201 782.808 228.319C782.93 228.434 783.066 228.514 783.214 228.561C783.366 228.607 783.523 228.63 783.684 228.63C784.183 228.63 784.579 228.535 784.871 228.345C785.163 228.15 785.372 227.89 785.499 227.564C785.63 227.234 785.696 226.868 785.696 226.466ZM789.619 224.098V229.5H788.444V222.632H789.555L789.619 224.098ZM789.339 225.806L788.851 225.787C788.855 225.317 788.925 224.883 789.06 224.485C789.195 224.083 789.386 223.734 789.631 223.438C789.877 223.142 790.169 222.913 790.507 222.752C790.85 222.587 791.229 222.505 791.644 222.505C791.982 222.505 792.287 222.551 792.558 222.645C792.828 222.733 793.059 222.877 793.25 223.076C793.444 223.275 793.592 223.533 793.694 223.851C793.795 224.164 793.846 224.547 793.846 225V229.5H792.666V224.987C792.666 224.627 792.613 224.339 792.507 224.124C792.401 223.903 792.247 223.745 792.043 223.647C791.84 223.546 791.591 223.495 791.294 223.495C791.002 223.495 790.736 223.556 790.495 223.679C790.258 223.802 790.052 223.971 789.879 224.187C789.71 224.403 789.576 224.65 789.479 224.93C789.386 225.205 789.339 225.497 789.339 225.806ZM796.906 222.632V229.5H795.725V222.632H796.906ZM795.636 220.81C795.636 220.62 795.693 220.459 795.808 220.328C795.926 220.196 796.1 220.131 796.328 220.131C796.552 220.131 796.724 220.196 796.842 220.328C796.965 220.459 797.026 220.62 797.026 220.81C797.026 220.992 796.965 221.149 796.842 221.28C796.724 221.407 796.552 221.47 796.328 221.47C796.1 221.47 795.926 221.407 795.808 221.28C795.693 221.149 795.636 220.992 795.636 220.81ZM801.667 222.632V223.533H797.953V222.632H801.667ZM799.21 220.962H800.384V227.799C800.384 228.032 800.42 228.207 800.492 228.326C800.564 228.444 800.657 228.522 800.771 228.561C800.886 228.599 801.008 228.618 801.14 228.618C801.237 228.618 801.339 228.609 801.444 228.592C801.554 228.571 801.637 228.554 801.692 228.542L801.698 229.5C801.605 229.53 801.482 229.557 801.33 229.583C801.182 229.612 801.002 229.627 800.791 229.627C800.503 229.627 800.238 229.57 799.997 229.456C799.756 229.341 799.563 229.151 799.419 228.884C799.28 228.613 799.21 228.25 799.21 227.792V220.962ZM804.974 228.789L806.884 222.632H808.141L805.386 230.56C805.323 230.729 805.238 230.911 805.132 231.106C805.031 231.305 804.9 231.493 804.739 231.671C804.578 231.849 804.383 231.993 804.155 232.103C803.931 232.217 803.662 232.274 803.349 232.274C803.256 232.274 803.137 232.261 802.993 232.236C802.849 232.21 802.748 232.189 802.688 232.172L802.682 231.22C802.716 231.224 802.769 231.229 802.841 231.233C802.917 231.241 802.97 231.246 803 231.246C803.266 231.246 803.493 231.21 803.679 231.138C803.865 231.07 804.021 230.954 804.148 230.789C804.28 230.628 804.392 230.406 804.485 230.122L804.974 228.789ZM803.571 222.632L805.354 227.964L805.659 229.202L804.815 229.633L802.289 222.632H803.571Z" fill="#737373"/>
<path d="M818.976 220.258V231.214H818.03V220.258H818.976Z" fill="#737373"/>
<path d="M833.384 220.258V229.5H832.178V220.258H833.384ZM836.354 220.258V221.261H829.213V220.258H836.354ZM839.763 229.627C839.285 229.627 838.851 229.547 838.462 229.386C838.077 229.221 837.745 228.99 837.465 228.694C837.19 228.398 836.979 228.046 836.831 227.64C836.682 227.234 836.608 226.79 836.608 226.307V226.041C836.608 225.482 836.691 224.985 836.856 224.549C837.021 224.109 837.245 223.736 837.529 223.432C837.812 223.127 838.134 222.896 838.494 222.74C838.853 222.583 839.226 222.505 839.611 222.505C840.102 222.505 840.525 222.59 840.88 222.759C841.24 222.928 841.534 223.165 841.763 223.47C841.991 223.77 842.16 224.126 842.271 224.536C842.381 224.942 842.436 225.387 842.436 225.869V226.396H837.307V225.438H841.261V225.349C841.244 225.044 841.181 224.748 841.071 224.46C840.965 224.172 840.796 223.935 840.563 223.749C840.33 223.563 840.013 223.47 839.611 223.47C839.344 223.47 839.099 223.527 838.875 223.641C838.65 223.751 838.458 223.916 838.297 224.136C838.136 224.356 838.011 224.625 837.922 224.942C837.833 225.26 837.789 225.626 837.789 226.041V226.307C837.789 226.633 837.833 226.94 837.922 227.228C838.015 227.511 838.149 227.761 838.322 227.977C838.5 228.192 838.714 228.362 838.963 228.484C839.217 228.607 839.505 228.668 839.827 228.668C840.241 228.668 840.593 228.584 840.88 228.415C841.168 228.245 841.42 228.019 841.636 227.735L842.347 228.3C842.199 228.525 842.01 228.738 841.782 228.941C841.553 229.145 841.272 229.31 840.938 229.437C840.607 229.563 840.216 229.627 839.763 229.627ZM844.981 223.711V229.5H843.807V222.632H844.949L844.981 223.711ZM847.126 222.594L847.12 223.686C847.023 223.664 846.93 223.652 846.841 223.647C846.756 223.639 846.659 223.635 846.549 223.635C846.278 223.635 846.039 223.677 845.832 223.762C845.624 223.846 845.449 223.965 845.305 224.117C845.161 224.27 845.047 224.451 844.962 224.663C844.882 224.87 844.829 225.099 844.803 225.349L844.473 225.539C844.473 225.124 844.513 224.735 844.594 224.371C844.678 224.007 844.807 223.686 844.981 223.406C845.154 223.123 845.375 222.903 845.641 222.746C845.912 222.585 846.234 222.505 846.606 222.505C846.691 222.505 846.788 222.515 846.898 222.537C847.008 222.554 847.084 222.573 847.126 222.594ZM849.38 223.997V229.5H848.199V222.632H849.316L849.38 223.997ZM849.139 225.806L848.593 225.787C848.597 225.317 848.658 224.883 848.777 224.485C848.895 224.083 849.071 223.734 849.304 223.438C849.536 223.142 849.826 222.913 850.173 222.752C850.52 222.587 850.922 222.505 851.379 222.505C851.701 222.505 851.997 222.551 852.268 222.645C852.539 222.733 852.774 222.875 852.973 223.07C853.172 223.264 853.326 223.514 853.436 223.819C853.546 224.124 853.601 224.492 853.601 224.923V229.5H852.427V224.98C852.427 224.621 852.365 224.333 852.243 224.117C852.124 223.901 851.955 223.745 851.735 223.647C851.515 223.546 851.257 223.495 850.96 223.495C850.613 223.495 850.324 223.556 850.091 223.679C849.858 223.802 849.672 223.971 849.532 224.187C849.393 224.403 849.291 224.65 849.228 224.93C849.168 225.205 849.139 225.497 849.139 225.806ZM853.588 225.158L852.801 225.399C852.806 225.023 852.867 224.661 852.985 224.314C853.108 223.967 853.284 223.658 853.512 223.387C853.745 223.116 854.031 222.903 854.369 222.746C854.708 222.585 855.095 222.505 855.531 222.505C855.899 222.505 856.225 222.554 856.508 222.651C856.796 222.748 857.037 222.898 857.232 223.102C857.431 223.3 857.581 223.556 857.683 223.87C857.784 224.183 857.835 224.555 857.835 224.987V229.5H856.654V224.974C856.654 224.589 856.593 224.291 856.47 224.079C856.352 223.863 856.182 223.713 855.962 223.628C855.747 223.54 855.488 223.495 855.188 223.495C854.93 223.495 854.701 223.54 854.502 223.628C854.304 223.717 854.136 223.84 854.001 223.997C853.866 224.149 853.762 224.325 853.69 224.523C853.622 224.722 853.588 224.934 853.588 225.158ZM863.611 227.678C863.611 227.509 863.573 227.352 863.497 227.208C863.425 227.06 863.275 226.927 863.046 226.809C862.822 226.686 862.484 226.58 862.031 226.491C861.65 226.411 861.305 226.316 860.996 226.206C860.691 226.096 860.431 225.962 860.215 225.806C860.004 225.649 859.841 225.465 859.727 225.253C859.612 225.042 859.555 224.794 859.555 224.511C859.555 224.24 859.614 223.984 859.733 223.743C859.856 223.501 860.027 223.288 860.247 223.102C860.471 222.915 860.74 222.769 861.053 222.664C861.366 222.558 861.715 222.505 862.101 222.505C862.651 222.505 863.12 222.602 863.51 222.797C863.899 222.992 864.197 223.252 864.405 223.578C864.612 223.899 864.716 224.257 864.716 224.65H863.542C863.542 224.46 863.484 224.276 863.37 224.098C863.26 223.916 863.097 223.766 862.881 223.647C862.67 223.529 862.41 223.47 862.101 223.47C861.775 223.47 861.51 223.521 861.307 223.622C861.108 223.719 860.962 223.844 860.869 223.997C860.78 224.149 860.736 224.31 860.736 224.479C860.736 224.606 860.757 224.72 860.799 224.822C860.846 224.919 860.926 225.01 861.041 225.095C861.155 225.175 861.316 225.251 861.523 225.323C861.73 225.395 861.995 225.467 862.316 225.539C862.879 225.666 863.343 225.818 863.707 225.996C864.07 226.174 864.341 226.392 864.519 226.65C864.697 226.908 864.786 227.221 864.786 227.589C864.786 227.89 864.722 228.165 864.595 228.415C864.472 228.664 864.293 228.88 864.056 229.062C863.823 229.24 863.544 229.379 863.218 229.481C862.896 229.578 862.534 229.627 862.132 229.627C861.527 229.627 861.015 229.519 860.596 229.303C860.177 229.087 859.86 228.808 859.644 228.465C859.428 228.123 859.32 227.761 859.32 227.38H860.501C860.518 227.701 860.611 227.958 860.78 228.148C860.95 228.334 861.157 228.467 861.402 228.548C861.648 228.624 861.891 228.662 862.132 228.662C862.454 228.662 862.723 228.62 862.938 228.535C863.159 228.451 863.326 228.334 863.44 228.186C863.554 228.038 863.611 227.869 863.611 227.678ZM869.242 226.142V225.996C869.242 225.501 869.314 225.042 869.458 224.619C869.601 224.191 869.809 223.821 870.08 223.508C870.35 223.19 870.678 222.945 871.063 222.771C871.449 222.594 871.88 222.505 872.358 222.505C872.841 222.505 873.275 222.594 873.66 222.771C874.049 222.945 874.379 223.19 874.65 223.508C874.925 223.821 875.134 224.191 875.278 224.619C875.422 225.042 875.494 225.501 875.494 225.996V226.142C875.494 226.637 875.422 227.096 875.278 227.52C875.134 227.943 874.925 228.313 874.65 228.63C874.379 228.944 874.051 229.189 873.666 229.367C873.285 229.54 872.854 229.627 872.371 229.627C871.889 229.627 871.455 229.54 871.07 229.367C870.685 229.189 870.355 228.944 870.08 228.63C869.809 228.313 869.601 227.943 869.458 227.52C869.314 227.096 869.242 226.637 869.242 226.142ZM870.416 225.996V226.142C870.416 226.485 870.456 226.809 870.537 227.113C870.617 227.414 870.738 227.68 870.898 227.913C871.063 228.146 871.269 228.33 871.514 228.465C871.76 228.597 872.045 228.662 872.371 228.662C872.693 228.662 872.974 228.597 873.215 228.465C873.461 228.33 873.664 228.146 873.825 227.913C873.986 227.68 874.106 227.414 874.187 227.113C874.271 226.809 874.313 226.485 874.313 226.142V225.996C874.313 225.658 874.271 225.338 874.187 225.038C874.106 224.733 873.983 224.464 873.818 224.231C873.658 223.994 873.454 223.808 873.209 223.673C872.968 223.537 872.684 223.47 872.358 223.47C872.037 223.47 871.753 223.537 871.508 223.673C871.267 223.808 871.063 223.994 870.898 224.231C870.738 224.464 870.617 224.733 870.537 225.038C870.456 225.338 870.416 225.658 870.416 225.996ZM878.719 229.5H877.544V221.908C877.544 221.413 877.633 220.996 877.811 220.658C877.993 220.315 878.253 220.057 878.592 219.883C878.93 219.706 879.332 219.617 879.798 219.617C879.933 219.617 880.069 219.625 880.204 219.642C880.344 219.659 880.479 219.684 880.61 219.718L880.547 220.677C880.458 220.656 880.356 220.641 880.242 220.632C880.132 220.624 880.022 220.62 879.912 220.62C879.662 220.62 879.447 220.67 879.265 220.772C879.087 220.869 878.951 221.013 878.858 221.204C878.765 221.394 878.719 221.629 878.719 221.908V229.5ZM880.179 222.632V223.533H876.459V222.632H880.179ZM889.814 227.164C889.814 226.948 889.781 226.758 889.713 226.593C889.649 226.424 889.535 226.271 889.37 226.136C889.209 226 888.985 225.871 888.697 225.749C888.414 225.626 888.054 225.501 887.618 225.374C887.161 225.239 886.749 225.088 886.38 224.923C886.012 224.754 885.697 224.562 885.435 224.346C885.172 224.13 884.971 223.882 884.832 223.603C884.692 223.324 884.622 223.004 884.622 222.645C884.622 222.285 884.696 221.953 884.844 221.648C884.992 221.343 885.204 221.079 885.479 220.854C885.758 220.626 886.09 220.448 886.476 220.321C886.861 220.194 887.29 220.131 887.764 220.131C888.458 220.131 889.046 220.264 889.529 220.531C890.015 220.793 890.386 221.138 890.64 221.565C890.894 221.989 891.021 222.441 891.021 222.924H889.802C889.802 222.577 889.728 222.27 889.58 222.003C889.431 221.733 889.207 221.521 888.907 221.369C888.606 221.212 888.225 221.134 887.764 221.134C887.328 221.134 886.969 221.199 886.685 221.331C886.402 221.462 886.19 221.639 886.05 221.864C885.915 222.088 885.847 222.344 885.847 222.632C885.847 222.826 885.887 223.004 885.968 223.165C886.052 223.322 886.181 223.468 886.355 223.603C886.533 223.738 886.757 223.863 887.028 223.978C887.303 224.092 887.631 224.202 888.012 224.308C888.536 224.456 888.989 224.621 889.37 224.803C889.751 224.985 890.064 225.19 890.31 225.418C890.559 225.643 890.743 225.899 890.862 226.187C890.985 226.47 891.046 226.792 891.046 227.151C891.046 227.528 890.97 227.869 890.817 228.173C890.665 228.478 890.447 228.738 890.164 228.954C889.88 229.17 889.539 229.337 889.142 229.456C888.748 229.57 888.308 229.627 887.821 229.627C887.394 229.627 886.973 229.568 886.558 229.449C886.148 229.331 885.773 229.153 885.435 228.916C885.1 228.679 884.832 228.387 884.628 228.04C884.43 227.689 884.33 227.283 884.33 226.821H885.549C885.549 227.139 885.61 227.412 885.733 227.64C885.856 227.864 886.023 228.051 886.234 228.199C886.45 228.347 886.694 228.457 886.964 228.529C887.239 228.597 887.525 228.63 887.821 228.63C888.249 228.63 888.611 228.571 888.907 228.453C889.203 228.334 889.427 228.165 889.58 227.945C889.736 227.725 889.814 227.465 889.814 227.164ZM895.28 229.627C894.802 229.627 894.368 229.547 893.979 229.386C893.593 229.221 893.261 228.99 892.982 228.694C892.707 228.398 892.495 228.046 892.347 227.64C892.199 227.234 892.125 226.79 892.125 226.307V226.041C892.125 225.482 892.208 224.985 892.373 224.549C892.538 224.109 892.762 223.736 893.045 223.432C893.329 223.127 893.651 222.896 894.01 222.74C894.37 222.583 894.742 222.505 895.127 222.505C895.618 222.505 896.042 222.59 896.397 222.759C896.757 222.928 897.051 223.165 897.279 223.47C897.508 223.77 897.677 224.126 897.787 224.536C897.897 224.942 897.952 225.387 897.952 225.869V226.396H892.823V225.438H896.778V225.349C896.761 225.044 896.697 224.748 896.587 224.46C896.482 224.172 896.312 223.935 896.08 223.749C895.847 223.563 895.529 223.47 895.127 223.47C894.861 223.47 894.615 223.527 894.391 223.641C894.167 223.751 893.974 223.916 893.813 224.136C893.653 224.356 893.528 224.625 893.439 224.942C893.35 225.26 893.306 225.626 893.306 226.041V226.307C893.306 226.633 893.35 226.94 893.439 227.228C893.532 227.511 893.665 227.761 893.839 227.977C894.017 228.192 894.23 228.362 894.48 228.484C894.734 228.607 895.022 228.668 895.343 228.668C895.758 228.668 896.109 228.584 896.397 228.415C896.685 228.245 896.937 228.019 897.152 227.735L897.863 228.3C897.715 228.525 897.527 228.738 897.298 228.941C897.07 229.145 896.788 229.31 896.454 229.437C896.124 229.563 895.733 229.627 895.28 229.627ZM900.498 223.711V229.5H899.323V222.632H900.466L900.498 223.711ZM902.643 222.594L902.637 223.686C902.539 223.664 902.446 223.652 902.357 223.647C902.273 223.639 902.175 223.635 902.065 223.635C901.795 223.635 901.556 223.677 901.348 223.762C901.141 223.846 900.965 223.965 900.821 224.117C900.677 224.27 900.563 224.451 900.479 224.663C900.398 224.87 900.345 225.099 900.32 225.349L899.99 225.539C899.99 225.124 900.03 224.735 900.11 224.371C900.195 224.007 900.324 223.686 900.498 223.406C900.671 223.123 900.891 222.903 901.158 222.746C901.429 222.585 901.75 222.505 902.123 222.505C902.207 222.505 902.305 222.515 902.415 222.537C902.525 222.554 902.601 222.573 902.643 222.594ZM905.931 228.44L907.81 222.632H909.01L906.541 229.5H905.753L905.931 228.44ZM904.363 222.632L906.299 228.472L906.433 229.5H905.646L903.157 222.632H904.363ZM911.416 222.632V229.5H910.235V222.632H911.416ZM910.146 220.81C910.146 220.62 910.203 220.459 910.317 220.328C910.436 220.196 910.609 220.131 910.838 220.131C911.062 220.131 911.234 220.196 911.352 220.328C911.475 220.459 911.536 220.62 911.536 220.81C911.536 220.992 911.475 221.149 911.352 221.28C911.234 221.407 911.062 221.47 910.838 221.47C910.609 221.47 910.436 221.407 910.317 221.28C910.203 221.149 910.146 220.992 910.146 220.81ZM916.049 228.662C916.329 228.662 916.587 228.605 916.824 228.491C917.061 228.376 917.255 228.22 917.408 228.021C917.56 227.818 917.647 227.587 917.668 227.329H918.785C918.764 227.735 918.626 228.114 918.373 228.465C918.123 228.812 917.795 229.094 917.389 229.31C916.982 229.521 916.536 229.627 916.049 229.627C915.533 229.627 915.082 229.536 914.697 229.354C914.316 229.172 913.999 228.922 913.745 228.605C913.495 228.288 913.307 227.924 913.18 227.513C913.057 227.098 912.996 226.66 912.996 226.199V225.933C912.996 225.471 913.057 225.035 913.18 224.625C913.307 224.21 913.495 223.844 913.745 223.527C913.999 223.209 914.316 222.96 914.697 222.778C915.082 222.596 915.533 222.505 916.049 222.505C916.587 222.505 917.056 222.615 917.458 222.835C917.861 223.051 918.176 223.347 918.404 223.724C918.637 224.096 918.764 224.519 918.785 224.993H917.668C917.647 224.71 917.566 224.454 917.427 224.225C917.291 223.997 917.105 223.815 916.868 223.679C916.635 223.54 916.362 223.47 916.049 223.47C915.69 223.47 915.387 223.542 915.142 223.686C914.9 223.825 914.708 224.016 914.564 224.257C914.424 224.494 914.323 224.758 914.259 225.05C914.2 225.338 914.17 225.632 914.17 225.933V226.199C914.17 226.5 914.2 226.796 914.259 227.088C914.319 227.38 914.418 227.644 914.558 227.881C914.701 228.118 914.894 228.309 915.135 228.453C915.381 228.592 915.685 228.662 916.049 228.662ZM922.956 229.627C922.477 229.627 922.044 229.547 921.654 229.386C921.269 229.221 920.937 228.99 920.658 228.694C920.383 228.398 920.171 228.046 920.023 227.64C919.875 227.234 919.801 226.79 919.801 226.307V226.041C919.801 225.482 919.883 224.985 920.048 224.549C920.213 224.109 920.438 223.736 920.721 223.432C921.005 223.127 921.326 222.896 921.686 222.74C922.046 222.583 922.418 222.505 922.803 222.505C923.294 222.505 923.717 222.59 924.073 222.759C924.432 222.928 924.727 223.165 924.955 223.47C925.184 223.77 925.353 224.126 925.463 224.536C925.573 224.942 925.628 225.387 925.628 225.869V226.396H920.499V225.438H924.454V225.349C924.437 225.044 924.373 224.748 924.263 224.46C924.157 224.172 923.988 223.935 923.755 223.749C923.523 223.563 923.205 223.47 922.803 223.47C922.537 223.47 922.291 223.527 922.067 223.641C921.843 223.751 921.65 223.916 921.489 224.136C921.328 224.356 921.204 224.625 921.115 224.942C921.026 225.26 920.981 225.626 920.981 226.041V226.307C920.981 226.633 921.026 226.94 921.115 227.228C921.208 227.511 921.341 227.761 921.515 227.977C921.692 228.192 921.906 228.362 922.156 228.484C922.41 228.607 922.697 228.668 923.019 228.668C923.434 228.668 923.785 228.584 924.073 228.415C924.361 228.245 924.612 228.019 924.828 227.735L925.539 228.3C925.391 228.525 925.203 228.738 924.974 228.941C924.746 229.145 924.464 229.31 924.13 229.437C923.8 229.563 923.408 229.627 922.956 229.627Z" fill="#737373"/>
<path d="M936.976 220.258V231.214H936.03V220.258H936.976Z" fill="#737373"/>
<path d="M951.466 225.875H948.997V224.879H951.466C951.944 224.879 952.331 224.803 952.627 224.65C952.924 224.498 953.139 224.286 953.275 224.016C953.415 223.745 953.484 223.436 953.484 223.089C953.484 222.771 953.415 222.473 953.275 222.194C953.139 221.915 952.924 221.69 952.627 221.521C952.331 221.347 951.944 221.261 951.466 221.261H949.282V229.5H948.057V220.258H951.466C952.164 220.258 952.754 220.378 953.237 220.62C953.719 220.861 954.085 221.195 954.335 221.623C954.585 222.046 954.709 222.53 954.709 223.076C954.709 223.669 954.585 224.174 954.335 224.593C954.085 225.012 953.719 225.332 953.237 225.552C952.754 225.768 952.164 225.875 951.466 225.875ZM957.255 223.711V229.5H956.081V222.632H957.223L957.255 223.711ZM959.4 222.594L959.394 223.686C959.297 223.664 959.204 223.652 959.115 223.647C959.03 223.639 958.933 223.635 958.823 223.635C958.552 223.635 958.313 223.677 958.105 223.762C957.898 223.846 957.722 223.965 957.579 224.117C957.435 224.27 957.32 224.451 957.236 224.663C957.155 224.87 957.103 225.099 957.077 225.349L956.747 225.539C956.747 225.124 956.787 224.735 956.868 224.371C956.952 224.007 957.081 223.686 957.255 223.406C957.428 223.123 957.648 222.903 957.915 222.746C958.186 222.585 958.507 222.505 958.88 222.505C958.965 222.505 959.062 222.515 959.172 222.537C959.282 222.554 959.358 222.573 959.4 222.594ZM961.762 222.632V229.5H960.581V222.632H961.762ZM960.492 220.81C960.492 220.62 960.549 220.459 960.664 220.328C960.782 220.196 960.956 220.131 961.184 220.131C961.408 220.131 961.58 220.196 961.698 220.328C961.821 220.459 961.882 220.62 961.882 220.81C961.882 220.992 961.821 221.149 961.698 221.28C961.58 221.407 961.408 221.47 961.184 221.47C960.956 221.47 960.782 221.407 960.664 221.28C960.549 221.149 960.492 220.992 960.492 220.81ZM965.735 228.44L967.614 222.632H968.814L966.345 229.5H965.558L965.735 228.44ZM964.167 222.632L966.104 228.472L966.237 229.5H965.45L962.961 222.632H964.167ZM973.892 228.326V224.79C973.892 224.519 973.837 224.284 973.727 224.085C973.621 223.882 973.46 223.726 973.245 223.616C973.029 223.506 972.762 223.451 972.445 223.451C972.149 223.451 971.888 223.501 971.664 223.603C971.444 223.705 971.271 223.838 971.144 224.003C971.021 224.168 970.959 224.346 970.959 224.536H969.785C969.785 224.291 969.849 224.047 969.976 223.806C970.103 223.565 970.285 223.347 970.521 223.152C970.763 222.953 971.05 222.797 971.385 222.683C971.723 222.564 972.1 222.505 972.515 222.505C973.014 222.505 973.454 222.59 973.835 222.759C974.22 222.928 974.521 223.184 974.736 223.527C974.956 223.865 975.066 224.291 975.066 224.803V228.002C975.066 228.23 975.085 228.474 975.124 228.732C975.166 228.99 975.227 229.212 975.308 229.398V229.5H974.083C974.023 229.365 973.977 229.185 973.943 228.96C973.909 228.732 973.892 228.52 973.892 228.326ZM974.095 225.336L974.108 226.161H972.921C972.587 226.161 972.288 226.189 972.026 226.244C971.764 226.294 971.543 226.373 971.366 226.479C971.188 226.584 971.053 226.718 970.959 226.878C970.866 227.035 970.82 227.219 970.82 227.431C970.82 227.646 970.868 227.843 970.966 228.021C971.063 228.199 971.209 228.34 971.404 228.446C971.603 228.548 971.846 228.599 972.134 228.599C972.493 228.599 972.811 228.522 973.086 228.37C973.361 228.218 973.579 228.032 973.74 227.812C973.905 227.591 973.994 227.378 974.006 227.17L974.508 227.735C974.478 227.913 974.398 228.11 974.267 228.326C974.135 228.542 973.96 228.749 973.74 228.948C973.524 229.142 973.266 229.305 972.965 229.437C972.669 229.563 972.335 229.627 971.962 229.627C971.497 229.627 971.089 229.536 970.737 229.354C970.39 229.172 970.119 228.929 969.925 228.624C969.734 228.315 969.639 227.97 969.639 227.589C969.639 227.221 969.711 226.897 969.855 226.618C969.999 226.335 970.206 226.1 970.477 225.914C970.748 225.723 971.074 225.579 971.455 225.482C971.835 225.385 972.261 225.336 972.73 225.336H974.095ZM979.662 228.662C979.941 228.662 980.2 228.605 980.437 228.491C980.674 228.376 980.868 228.22 981.021 228.021C981.173 227.818 981.26 227.587 981.281 227.329H982.398C982.377 227.735 982.239 228.114 981.985 228.465C981.736 228.812 981.408 229.094 981.001 229.31C980.595 229.521 980.149 229.627 979.662 229.627C979.146 229.627 978.695 229.536 978.31 229.354C977.929 229.172 977.612 228.922 977.358 228.605C977.108 228.288 976.92 227.924 976.793 227.513C976.67 227.098 976.609 226.66 976.609 226.199V225.933C976.609 225.471 976.67 225.035 976.793 224.625C976.92 224.21 977.108 223.844 977.358 223.527C977.612 223.209 977.929 222.96 978.31 222.778C978.695 222.596 979.146 222.505 979.662 222.505C980.2 222.505 980.669 222.615 981.071 222.835C981.473 223.051 981.789 223.347 982.017 223.724C982.25 224.096 982.377 224.519 982.398 224.993H981.281C981.26 224.71 981.179 224.454 981.04 224.225C980.904 223.997 980.718 223.815 980.481 223.679C980.248 223.54 979.975 223.47 979.662 223.47C979.302 223.47 979 223.542 978.754 223.686C978.513 223.825 978.321 224.016 978.177 224.257C978.037 224.494 977.936 224.758 977.872 225.05C977.813 225.338 977.783 225.632 977.783 225.933V226.199C977.783 226.5 977.813 226.796 977.872 227.088C977.931 227.38 978.031 227.644 978.17 227.881C978.314 228.118 978.507 228.309 978.748 228.453C978.993 228.592 979.298 228.662 979.662 228.662ZM985.648 228.789L987.559 222.632H988.815L986.061 230.56C985.997 230.729 985.912 230.911 985.807 231.106C985.705 231.305 985.574 231.493 985.413 231.671C985.252 231.849 985.058 231.993 984.829 232.103C984.605 232.217 984.336 232.274 984.023 232.274C983.93 232.274 983.811 232.261 983.667 232.236C983.524 232.21 983.422 232.189 983.363 232.172L983.356 231.22C983.39 231.224 983.443 231.229 983.515 231.233C983.591 231.241 983.644 231.246 983.674 231.246C983.94 231.246 984.167 231.21 984.353 231.138C984.539 231.07 984.696 230.954 984.823 230.789C984.954 230.628 985.066 230.406 985.159 230.122L985.648 228.789ZM984.245 222.632L986.029 227.964L986.333 229.202L985.489 229.633L982.963 222.632H984.245ZM996.687 225.875H994.217V224.879H996.687C997.165 224.879 997.552 224.803 997.848 224.65C998.144 224.498 998.36 224.286 998.496 224.016C998.635 223.745 998.705 223.436 998.705 223.089C998.705 222.771 998.635 222.473 998.496 222.194C998.36 221.915 998.144 221.69 997.848 221.521C997.552 221.347 997.165 221.261 996.687 221.261H994.503V229.5H993.278V220.258H996.687C997.385 220.258 997.975 220.378 998.458 220.62C998.94 220.861 999.306 221.195 999.556 221.623C999.805 222.046 999.93 222.53 999.93 223.076C999.93 223.669 999.805 224.174 999.556 224.593C999.306 225.012 998.94 225.332 998.458 225.552C997.975 225.768 997.385 225.875 996.687 225.875ZM1000.9 226.142V225.996C1000.9 225.501 1000.97 225.042 1001.12 224.619C1001.26 224.191 1001.47 223.821 1001.74 223.508C1002.01 223.19 1002.34 222.945 1002.72 222.771C1003.11 222.594 1003.54 222.505 1004.02 222.505C1004.5 222.505 1004.93 222.594 1005.32 222.771C1005.71 222.945 1006.04 223.19 1006.31 223.508C1006.58 223.821 1006.79 224.191 1006.94 224.619C1007.08 225.042 1007.15 225.501 1007.15 225.996V226.142C1007.15 226.637 1007.08 227.096 1006.94 227.52C1006.79 227.943 1006.58 228.313 1006.31 228.63C1006.04 228.944 1005.71 229.189 1005.33 229.367C1004.94 229.54 1004.51 229.627 1004.03 229.627C1003.55 229.627 1003.11 229.54 1002.73 229.367C1002.34 229.189 1002.01 228.944 1001.74 228.63C1001.47 228.313 1001.26 227.943 1001.12 227.52C1000.97 227.096 1000.9 226.637 1000.9 226.142ZM1002.08 225.996V226.142C1002.08 226.485 1002.12 226.809 1002.2 227.113C1002.28 227.414 1002.4 227.68 1002.56 227.913C1002.72 228.146 1002.93 228.33 1003.17 228.465C1003.42 228.597 1003.7 228.662 1004.03 228.662C1004.35 228.662 1004.63 228.597 1004.88 228.465C1005.12 228.33 1005.32 228.146 1005.48 227.913C1005.65 227.68 1005.77 227.414 1005.85 227.113C1005.93 226.809 1005.97 226.485 1005.97 226.142V225.996C1005.97 225.658 1005.93 225.338 1005.85 225.038C1005.77 224.733 1005.64 224.464 1005.48 224.231C1005.32 223.994 1005.11 223.808 1004.87 223.673C1004.63 223.537 1004.34 223.47 1004.02 223.47C1003.7 223.47 1003.41 223.537 1003.17 223.673C1002.93 223.808 1002.72 223.994 1002.56 224.231C1002.4 224.464 1002.28 224.733 1002.2 225.038C1002.12 225.338 1002.08 225.658 1002.08 225.996ZM1009.9 219.75V229.5H1008.72V219.75H1009.9ZM1013.06 222.632V229.5H1011.88V222.632H1013.06ZM1011.79 220.81C1011.79 220.62 1011.85 220.459 1011.97 220.328C1012.08 220.196 1012.26 220.131 1012.49 220.131C1012.71 220.131 1012.88 220.196 1013 220.328C1013.12 220.459 1013.18 220.62 1013.18 220.81C1013.18 220.992 1013.12 221.149 1013 221.28C1012.88 221.407 1012.71 221.47 1012.49 221.47C1012.26 221.47 1012.08 221.407 1011.97 221.28C1011.85 221.149 1011.79 220.992 1011.79 220.81ZM1017.7 228.662C1017.98 228.662 1018.23 228.605 1018.47 228.491C1018.71 228.376 1018.9 228.22 1019.06 228.021C1019.21 227.818 1019.29 227.587 1019.32 227.329H1020.43C1020.41 227.735 1020.27 228.114 1020.02 228.465C1019.77 228.812 1019.44 229.094 1019.04 229.31C1018.63 229.521 1018.18 229.627 1017.7 229.627C1017.18 229.627 1016.73 229.536 1016.35 229.354C1015.96 229.172 1015.65 228.922 1015.39 228.605C1015.14 228.288 1014.96 227.924 1014.83 227.513C1014.71 227.098 1014.64 226.66 1014.64 226.199V225.933C1014.64 225.471 1014.71 225.035 1014.83 224.625C1014.96 224.21 1015.14 223.844 1015.39 223.527C1015.65 223.209 1015.96 222.96 1016.35 222.778C1016.73 222.596 1017.18 222.505 1017.7 222.505C1018.23 222.505 1018.7 222.615 1019.11 222.835C1019.51 223.051 1019.82 223.347 1020.05 223.724C1020.28 224.096 1020.41 224.519 1020.43 224.993H1019.32C1019.29 224.71 1019.21 224.454 1019.07 224.225C1018.94 223.997 1018.75 223.815 1018.52 223.679C1018.28 223.54 1018.01 223.47 1017.7 223.47C1017.34 223.47 1017.03 223.542 1016.79 223.686C1016.55 223.825 1016.36 224.016 1016.21 224.257C1016.07 224.494 1015.97 224.758 1015.91 225.05C1015.85 225.338 1015.82 225.632 1015.82 225.933V226.199C1015.82 226.5 1015.85 226.796 1015.91 227.088C1015.97 227.38 1016.07 227.644 1016.21 227.881C1016.35 228.118 1016.54 228.309 1016.78 228.453C1017.03 228.592 1017.33 228.662 1017.7 228.662ZM1023.68 228.789L1025.59 222.632H1026.85L1024.1 230.56C1024.03 230.729 1023.95 230.911 1023.84 231.106C1023.74 231.305 1023.61 231.493 1023.45 231.671C1023.29 231.849 1023.09 231.993 1022.86 232.103C1022.64 232.217 1022.37 232.274 1022.06 232.274C1021.97 232.274 1021.85 232.261 1021.7 232.236C1021.56 232.21 1021.46 232.189 1021.4 232.172L1021.39 231.22C1021.43 231.224 1021.48 231.229 1021.55 231.233C1021.63 231.241 1021.68 231.246 1021.71 231.246C1021.98 231.246 1022.2 231.21 1022.39 231.138C1022.57 231.07 1022.73 230.954 1022.86 230.789C1022.99 230.628 1023.1 230.406 1023.19 230.122L1023.68 228.789ZM1022.28 222.632L1024.06 227.964L1024.37 229.202L1023.52 229.633L1021 222.632H1022.28Z" fill="#737373"/>
<path d="M1328.04 226.375L1328.4 223.841H1326.13V222.197C1326.13 221.504 1326.45 220.828 1327.47 220.828H1328.5V218.671C1328.5 218.671 1327.56 218.5 1326.67 218.5C1324.8 218.5 1323.58 219.714 1323.58 221.91V223.841H1321.5V226.375H1323.58V232.5H1326.13V226.375H1328.04Z" fill="#505050"/>
<path d="M1360.5 218.5H1353.5C1351.57 218.5 1350 220.067 1350 222V229C1350 230.933 1351.57 232.5 1353.5 232.5H1360.5C1362.43 232.5 1364 230.933 1364 229V222C1364 220.067 1362.43 218.5 1360.5 218.5Z" fill="#505050"/>
<path d="M1359.8 225.059C1359.89 225.642 1359.79 226.236 1359.52 226.759C1359.24 227.282 1358.82 227.706 1358.29 227.971C1357.76 228.235 1357.17 228.328 1356.59 228.234C1356 228.141 1355.47 227.866 1355.05 227.45C1354.63 227.033 1354.36 226.496 1354.27 225.914C1354.17 225.333 1354.26 224.737 1354.53 224.211C1354.79 223.685 1355.22 223.256 1355.74 222.984C1356.26 222.713 1356.86 222.614 1357.44 222.7C1358.04 222.788 1358.59 223.065 1359.01 223.49C1359.43 223.915 1359.71 224.465 1359.8 225.059Z" stroke="white" stroke-width="1.5" stroke-linecap="round" stroke-linejoin="round"/>
<path d="M1360.85 221.65H1360.86" stroke="white" stroke-width="1.5" stroke-linecap="round" stroke-linejoin="round"/>
<path d="M1394.56 222.491C1394.57 222.622 1394.57 222.753 1394.57 222.884C1394.57 226.887 1391.68 231.5 1386.41 231.5C1384.78 231.5 1383.27 231.003 1382 230.141C1382.23 230.169 1382.45 230.178 1382.69 230.178C1384.03 230.178 1385.27 229.7 1386.26 228.884C1384.99 228.856 1383.94 227.984 1383.57 226.784C1383.75 226.812 1383.93 226.831 1384.11 226.831C1384.37 226.831 1384.63 226.794 1384.87 226.728C1383.55 226.447 1382.57 225.228 1382.57 223.756V223.719C1382.95 223.944 1383.39 224.084 1383.87 224.103C1383.09 223.559 1382.59 222.631 1382.59 221.581C1382.59 221.019 1382.73 220.503 1382.98 220.053C1384.39 221.891 1386.51 223.091 1388.89 223.222C1388.85 222.997 1388.82 222.763 1388.82 222.528C1388.82 220.859 1390.1 219.5 1391.69 219.5C1392.52 219.5 1393.26 219.866 1393.79 220.456C1394.44 220.325 1395.06 220.072 1395.61 219.725C1395.4 220.428 1394.94 221.019 1394.35 221.394C1394.93 221.328 1395.48 221.159 1396 220.925C1395.61 221.525 1395.12 222.059 1394.56 222.491Z" fill="#505050"/>
<rect x="718.686" y="48.6314" width="26" height="26" rx="4" fill="#333333"/>
<path d="M732.936 56.6441V66.6314H731.288V58.5992L728.848 59.4264V58.066L732.737 56.6441H732.936Z" fill="white"/>
<path d="M731.686 123.631L734.572 118.631L728.799 118.631L731.686 123.631ZM732.186 119.131L732.186 78.6314L731.186 78.6314L731.186 119.131L732.186 119.131Z" fill="#737373"/>
<path d="M122 261L119.113 266L124.887 266L122 261ZM121.5 265.5L121.5 332L122.5 332L122.5 265.5L121.5 265.5Z" fill="#737373"/>
<rect x="109" y="332" width="26" height="26" rx="4" fill="#333333"/>
<path d="M125.424 348.688V350H118.752V348.872L121.992 345.338C122.348 344.937 122.628 344.59 122.833 344.299C123.038 344.007 123.182 343.745 123.264 343.513C123.35 343.276 123.394 343.046 123.394 342.822C123.394 342.508 123.334 342.232 123.216 341.995C123.102 341.754 122.933 341.564 122.71 341.428C122.487 341.286 122.215 341.216 121.896 341.216C121.527 341.216 121.217 341.296 120.967 341.455C120.716 341.615 120.527 341.836 120.399 342.118C120.272 342.396 120.208 342.715 120.208 343.075H118.561C118.561 342.496 118.693 341.968 118.957 341.489C119.221 341.006 119.604 340.623 120.105 340.341C120.607 340.054 121.211 339.91 121.917 339.91C122.582 339.91 123.147 340.022 123.612 340.245C124.077 340.468 124.43 340.785 124.672 341.195C124.918 341.605 125.041 342.091 125.041 342.651C125.041 342.961 124.991 343.269 124.891 343.574C124.79 343.88 124.647 344.185 124.46 344.49C124.278 344.791 124.061 345.094 123.811 345.399C123.56 345.7 123.284 346.006 122.983 346.315L120.83 348.688H125.424Z" fill="white"/>
<path d="M741 261L738.113 266L743.887 266L741 261ZM740.5 265.5L740.5 332L741.5 332L741.5 265.5L740.5 265.5Z" fill="#737373"/>
<rect x="728" y="332" width="26" height="26" rx="4" fill="#333333"/>
<path d="M739.687 344.278H740.671C741.054 344.278 741.37 344.212 741.621 344.08C741.876 343.948 742.065 343.766 742.188 343.533C742.312 343.301 742.373 343.034 742.373 342.733C742.373 342.419 742.316 342.15 742.202 341.927C742.093 341.699 741.924 341.523 741.696 341.4C741.473 341.277 741.188 341.216 740.842 341.216C740.55 341.216 740.286 341.275 740.049 341.394C739.816 341.507 739.632 341.672 739.495 341.886C739.358 342.095 739.29 342.346 739.29 342.638H737.636C737.636 342.109 737.775 341.64 738.053 341.229C738.331 340.819 738.709 340.498 739.188 340.266C739.671 340.029 740.213 339.91 740.814 339.91C741.457 339.91 742.018 340.017 742.496 340.231C742.979 340.441 743.355 340.756 743.624 341.175C743.893 341.594 744.027 342.114 744.027 342.733C744.027 343.016 743.961 343.303 743.829 343.595C743.697 343.886 743.501 344.153 743.241 344.395C742.981 344.632 742.658 344.825 742.271 344.976C741.883 345.121 741.434 345.194 740.924 345.194H739.687V344.278ZM739.687 345.563V344.661H740.924C741.507 344.661 742.004 344.729 742.414 344.866C742.829 345.003 743.166 345.192 743.426 345.434C743.686 345.671 743.875 345.942 743.993 346.247C744.116 346.552 744.178 346.876 744.178 347.218C744.178 347.683 744.093 348.097 743.925 348.462C743.761 348.822 743.526 349.127 743.221 349.378C742.915 349.629 742.558 349.818 742.147 349.945C741.742 350.073 741.3 350.137 740.821 350.137C740.393 350.137 739.983 350.077 739.591 349.959C739.199 349.84 738.848 349.665 738.538 349.433C738.228 349.196 737.982 348.902 737.8 348.551C737.622 348.195 737.533 347.785 737.533 347.32H739.181C739.181 347.617 739.249 347.879 739.386 348.106C739.527 348.33 739.723 348.505 739.974 348.633C740.229 348.76 740.521 348.824 740.849 348.824C741.195 348.824 741.493 348.763 741.744 348.64C741.995 348.517 742.186 348.334 742.318 348.093C742.455 347.851 742.523 347.56 742.523 347.218C742.523 346.83 742.448 346.516 742.298 346.274C742.147 346.033 741.933 345.855 741.655 345.741C741.377 345.623 741.049 345.563 740.671 345.563H739.687Z" fill="white"/>
<path d="M1361 261L1358.11 266L1363.89 266L1361 261ZM1360.5 265.5L1360.5 332L1361.5 332L1361.5 265.5L1360.5 265.5Z" fill="#737373"/>
<rect x="1348" y="332" width="26" height="26" rx="4" fill="#333333"/>
<path d="M1364.61 346.452V347.765H1357.43L1357.38 346.773L1361.67 340.047H1362.99L1361.56 342.494L1359.09 346.452H1364.61ZM1363.36 340.047V350H1361.72V340.047H1363.36Z" fill="white"/>
</svg>
