<svg width="832" height="488" viewBox="0 0 832 488" fill="none" xmlns="http://www.w3.org/2000/svg">
<rect x="0.5" y="0.5" width="831" height="487" rx="15.5" fill="white"/>
<rect x="153" y="146" width="24" height="24" rx="12" fill="#0059FF"/>
<path d="M166.181 152.726V162H164.651V154.542L162.385 155.31V154.046L165.997 152.726H166.181Z" fill="white"/>
<line x1="177" y1="157.5" x2="217" y2="157.5" stroke="#0059FF"/>
<rect x="153" y="244" width="24" height="24" rx="12" fill="#0059FF"/>
<path d="M168.199 258.781V260H162.004V258.953L165.013 255.671C165.343 255.299 165.603 254.977 165.793 254.706C165.984 254.435 166.117 254.192 166.193 253.976C166.274 253.756 166.314 253.542 166.314 253.335C166.314 253.043 166.259 252.787 166.149 252.567C166.043 252.343 165.887 252.167 165.679 252.04C165.472 251.909 165.22 251.843 164.924 251.843C164.581 251.843 164.293 251.917 164.061 252.065C163.828 252.214 163.652 252.419 163.534 252.681C163.415 252.939 163.356 253.236 163.356 253.57H161.826C161.826 253.032 161.949 252.542 162.194 252.097C162.44 251.649 162.795 251.293 163.261 251.031C163.726 250.764 164.287 250.631 164.943 250.631C165.561 250.631 166.085 250.735 166.517 250.942C166.949 251.149 167.277 251.443 167.501 251.824C167.729 252.205 167.844 252.656 167.844 253.176C167.844 253.464 167.797 253.75 167.704 254.033C167.611 254.317 167.478 254.6 167.304 254.884C167.135 255.163 166.934 255.444 166.701 255.728C166.468 256.007 166.212 256.291 165.933 256.579L163.934 258.781H168.199Z" fill="white"/>
<line x1="177" y1="255.5" x2="217" y2="255.5" stroke="#0059FF"/>
<line x1="616" y1="255.5" x2="656" y2="255.5" stroke="#0059FF"/>
<rect x="656" y="244" width="24" height="24" rx="12" fill="#0059FF"/>
<path d="M666.8 254.687H667.714C668.07 254.687 668.364 254.626 668.597 254.503C668.834 254.38 669.009 254.211 669.124 253.995C669.238 253.779 669.295 253.532 669.295 253.252C669.295 252.96 669.242 252.711 669.136 252.503C669.035 252.292 668.878 252.129 668.667 252.015C668.459 251.9 668.195 251.843 667.873 251.843C667.602 251.843 667.357 251.898 667.137 252.008C666.921 252.114 666.75 252.266 666.623 252.465C666.496 252.66 666.432 252.893 666.432 253.164H664.896C664.896 252.673 665.025 252.237 665.283 251.856C665.541 251.475 665.893 251.177 666.337 250.961C666.785 250.741 667.289 250.631 667.848 250.631C668.444 250.631 668.965 250.73 669.409 250.929C669.858 251.124 670.207 251.416 670.457 251.805C670.706 252.194 670.831 252.677 670.831 253.252C670.831 253.515 670.77 253.781 670.647 254.052C670.524 254.323 670.342 254.571 670.101 254.795C669.86 255.015 669.559 255.195 669.2 255.334C668.84 255.47 668.423 255.538 667.949 255.538H666.8V254.687ZM666.8 255.88V255.042H667.949C668.491 255.042 668.952 255.106 669.333 255.233C669.718 255.36 670.031 255.535 670.272 255.76C670.514 255.98 670.689 256.232 670.799 256.515C670.914 256.799 670.971 257.099 670.971 257.417C670.971 257.848 670.892 258.233 670.736 258.572C670.583 258.906 670.366 259.19 670.082 259.422C669.799 259.655 669.466 259.831 669.085 259.949C668.709 260.068 668.298 260.127 667.854 260.127C667.456 260.127 667.075 260.072 666.711 259.962C666.347 259.852 666.022 259.689 665.734 259.473C665.446 259.253 665.218 258.98 665.048 258.654C664.883 258.324 664.801 257.943 664.801 257.512H666.331C666.331 257.787 666.394 258.03 666.521 258.242C666.652 258.449 666.834 258.612 667.067 258.73C667.304 258.849 667.575 258.908 667.879 258.908C668.201 258.908 668.478 258.851 668.711 258.737C668.944 258.623 669.121 258.453 669.244 258.229C669.371 258.005 669.435 257.734 669.435 257.417C669.435 257.057 669.365 256.765 669.225 256.541C669.085 256.316 668.887 256.151 668.628 256.045C668.37 255.935 668.066 255.88 667.714 255.88H666.8Z" fill="white"/>
<g clip-path="url(#clip0_7296_85331)">
<mask id="path-12-inside-1_7296_85331" fill="white">
<path d="M216 148C216 143.582 219.582 140 224 140H608C612.418 140 616 143.582 616 148V176H216V148Z"/>
</mask>
<path d="M216 148C216 143.582 219.582 140 224 140H608C612.418 140 616 143.582 616 148V176H216V148Z" fill="#F2F2F2"/>
<path d="M234.856 162H233.327V154.472C233.327 153.96 233.422 153.53 233.612 153.183C233.807 152.832 234.084 152.567 234.444 152.39C234.804 152.208 235.229 152.117 235.72 152.117C235.872 152.117 236.022 152.127 236.17 152.148C236.319 152.165 236.462 152.193 236.602 152.231L236.564 153.412C236.479 153.39 236.386 153.376 236.285 153.367C236.187 153.359 236.082 153.354 235.967 153.354C235.735 153.354 235.534 153.399 235.364 153.488C235.199 153.572 235.072 153.697 234.983 153.862C234.899 154.027 234.856 154.23 234.856 154.472V162ZM236.272 155.132V156.249H232.273V155.132H236.272ZM239.021 155.132V162H237.484V155.132H239.021ZM237.383 153.329C237.383 153.096 237.459 152.904 237.611 152.751C237.768 152.595 237.984 152.517 238.259 152.517C238.53 152.517 238.743 152.595 238.9 152.751C239.056 152.904 239.135 153.096 239.135 153.329C239.135 153.558 239.056 153.748 238.9 153.9C238.743 154.053 238.53 154.129 238.259 154.129C237.984 154.129 237.768 154.053 237.611 153.9C237.459 153.748 237.383 153.558 237.383 153.329ZM242.334 152.25V162H240.798V152.25H242.334ZM247.038 162.127C246.53 162.127 246.071 162.044 245.66 161.879C245.254 161.71 244.907 161.475 244.619 161.175C244.336 160.874 244.118 160.521 243.965 160.115C243.813 159.708 243.737 159.271 243.737 158.801V158.547C243.737 158.009 243.815 157.523 243.972 157.087C244.128 156.651 244.346 156.279 244.625 155.97C244.905 155.657 245.235 155.417 245.616 155.252C245.997 155.087 246.409 155.005 246.854 155.005C247.344 155.005 247.774 155.087 248.142 155.252C248.51 155.417 248.815 155.65 249.056 155.951C249.302 156.247 249.484 156.6 249.602 157.011C249.725 157.421 249.786 157.874 249.786 158.369V159.023H244.479V157.925H248.275V157.804C248.267 157.529 248.212 157.271 248.11 157.03C248.013 156.789 247.863 156.594 247.66 156.446C247.457 156.298 247.186 156.224 246.847 156.224C246.593 156.224 246.367 156.279 246.168 156.389C245.973 156.494 245.81 156.649 245.679 156.852C245.548 157.055 245.446 157.301 245.375 157.588C245.307 157.872 245.273 158.191 245.273 158.547V158.801C245.273 159.101 245.313 159.381 245.394 159.639C245.478 159.893 245.601 160.115 245.762 160.305C245.923 160.496 246.117 160.646 246.346 160.756C246.574 160.862 246.834 160.915 247.126 160.915C247.495 160.915 247.823 160.84 248.11 160.692C248.398 160.544 248.648 160.335 248.859 160.064L249.666 160.845C249.517 161.061 249.325 161.268 249.088 161.467C248.851 161.661 248.561 161.82 248.218 161.943C247.88 162.066 247.486 162.127 247.038 162.127ZM252.497 156.598V162H250.967V155.132H252.408L252.497 156.598ZM252.224 158.312L251.729 158.306C251.733 157.819 251.8 157.373 251.932 156.966C252.067 156.56 252.253 156.211 252.49 155.919C252.731 155.627 253.019 155.403 253.354 155.246C253.688 155.085 254.06 155.005 254.471 155.005C254.801 155.005 255.099 155.051 255.366 155.145C255.637 155.233 255.867 155.379 256.058 155.583C256.252 155.786 256.4 156.05 256.502 156.376C256.604 156.698 256.654 157.093 256.654 157.563V162H255.118V157.557C255.118 157.227 255.069 156.966 254.972 156.776C254.879 156.581 254.742 156.444 254.56 156.363C254.382 156.279 254.16 156.236 253.893 156.236C253.631 156.236 253.396 156.291 253.188 156.401C252.981 156.511 252.806 156.662 252.662 156.852C252.522 157.042 252.414 157.263 252.338 157.512C252.262 157.762 252.224 158.028 252.224 158.312ZM262.088 160.623V157.347C262.088 157.102 262.043 156.89 261.955 156.712C261.866 156.535 261.73 156.397 261.548 156.3C261.371 156.202 261.146 156.154 260.875 156.154C260.626 156.154 260.41 156.196 260.228 156.281C260.046 156.365 259.904 156.48 259.803 156.624C259.701 156.767 259.65 156.93 259.65 157.112H258.127C258.127 156.841 258.193 156.579 258.324 156.325C258.455 156.071 258.645 155.845 258.895 155.646C259.145 155.447 259.443 155.291 259.79 155.176C260.137 155.062 260.526 155.005 260.958 155.005C261.474 155.005 261.931 155.092 262.329 155.265C262.731 155.439 263.046 155.701 263.275 156.052C263.508 156.399 263.624 156.835 263.624 157.36V160.413C263.624 160.726 263.645 161.008 263.688 161.257C263.734 161.503 263.8 161.716 263.884 161.898V162H262.316C262.244 161.835 262.187 161.625 262.145 161.372C262.107 161.113 262.088 160.864 262.088 160.623ZM262.31 157.823L262.323 158.769H261.225C260.941 158.769 260.691 158.797 260.476 158.852C260.26 158.902 260.08 158.979 259.936 159.08C259.792 159.182 259.684 159.304 259.612 159.448C259.54 159.592 259.504 159.755 259.504 159.937C259.504 160.119 259.547 160.286 259.631 160.438C259.716 160.587 259.839 160.703 260 160.788C260.165 160.872 260.363 160.915 260.596 160.915C260.909 160.915 261.182 160.851 261.415 160.724C261.652 160.593 261.838 160.434 261.974 160.248C262.109 160.058 262.181 159.878 262.189 159.708L262.685 160.388C262.634 160.561 262.547 160.747 262.424 160.946C262.302 161.145 262.141 161.336 261.942 161.518C261.747 161.695 261.512 161.841 261.237 161.956C260.966 162.07 260.653 162.127 260.298 162.127C259.849 162.127 259.449 162.038 259.098 161.86C258.747 161.678 258.472 161.435 258.273 161.13C258.074 160.821 257.975 160.472 257.975 160.083C257.975 159.719 258.042 159.397 258.178 159.118C258.317 158.835 258.521 158.598 258.787 158.407C259.058 158.217 259.388 158.073 259.777 157.976C260.167 157.874 260.611 157.823 261.11 157.823H262.31ZM266.753 156.528V162H265.224V155.132H266.665L266.753 156.528ZM266.506 158.312L265.985 158.306C265.985 157.832 266.045 157.394 266.163 156.992C266.282 156.59 266.455 156.241 266.684 155.944C266.912 155.644 267.196 155.413 267.534 155.252C267.877 155.087 268.273 155.005 268.721 155.005C269.034 155.005 269.32 155.051 269.578 155.145C269.84 155.233 270.067 155.375 270.257 155.57C270.452 155.764 270.6 156.014 270.702 156.319C270.807 156.624 270.86 156.992 270.86 157.423V162H269.331V157.557C269.331 157.222 269.28 156.96 269.178 156.77C269.081 156.579 268.939 156.444 268.753 156.363C268.571 156.279 268.353 156.236 268.099 156.236C267.811 156.236 267.566 156.291 267.363 156.401C267.164 156.511 267.001 156.662 266.874 156.852C266.747 157.042 266.654 157.263 266.595 157.512C266.535 157.762 266.506 158.028 266.506 158.312ZM270.765 157.906L270.048 158.064C270.048 157.65 270.105 157.258 270.219 156.89C270.338 156.518 270.509 156.192 270.733 155.913C270.962 155.629 271.243 155.407 271.578 155.246C271.912 155.085 272.295 155.005 272.727 155.005C273.078 155.005 273.391 155.054 273.666 155.151C273.945 155.244 274.182 155.392 274.377 155.595C274.572 155.798 274.72 156.063 274.821 156.389C274.923 156.71 274.974 157.1 274.974 157.557V162H273.438V157.55C273.438 157.203 273.387 156.935 273.285 156.744C273.188 156.554 273.048 156.423 272.866 156.351C272.684 156.274 272.466 156.236 272.212 156.236C271.975 156.236 271.766 156.281 271.584 156.37C271.406 156.454 271.256 156.575 271.133 156.731C271.011 156.884 270.917 157.059 270.854 157.258C270.795 157.457 270.765 157.673 270.765 157.906ZM279.576 162.127C279.068 162.127 278.609 162.044 278.198 161.879C277.792 161.71 277.445 161.475 277.157 161.175C276.874 160.874 276.656 160.521 276.503 160.115C276.351 159.708 276.275 159.271 276.275 158.801V158.547C276.275 158.009 276.353 157.523 276.51 157.087C276.666 156.651 276.884 156.279 277.164 155.97C277.443 155.657 277.773 155.417 278.154 155.252C278.535 155.087 278.947 155.005 279.392 155.005C279.882 155.005 280.312 155.087 280.68 155.252C281.048 155.417 281.353 155.65 281.594 155.951C281.84 156.247 282.022 156.6 282.14 157.011C282.263 157.421 282.324 157.874 282.324 158.369V159.023H277.018V157.925H280.813V157.804C280.805 157.529 280.75 157.271 280.648 157.03C280.551 156.789 280.401 156.594 280.198 156.446C279.995 156.298 279.724 156.224 279.385 156.224C279.131 156.224 278.905 156.279 278.706 156.389C278.511 156.494 278.348 156.649 278.217 156.852C278.086 157.055 277.985 157.301 277.913 157.588C277.845 157.872 277.811 158.191 277.811 158.547V158.801C277.811 159.101 277.851 159.381 277.932 159.639C278.016 159.893 278.139 160.115 278.3 160.305C278.461 160.496 278.655 160.646 278.884 160.756C279.112 160.862 279.373 160.915 279.665 160.915C280.033 160.915 280.361 160.84 280.648 160.692C280.936 160.544 281.186 160.335 281.397 160.064L282.204 160.845C282.056 161.061 281.863 161.268 281.626 161.467C281.389 161.661 281.099 161.82 280.756 161.943C280.418 162.066 280.024 162.127 279.576 162.127ZM283.581 161.238C283.581 161.001 283.661 160.802 283.822 160.642C283.983 160.477 284.201 160.394 284.476 160.394C284.755 160.394 284.973 160.477 285.13 160.642C285.291 160.802 285.371 161.001 285.371 161.238C285.371 161.475 285.291 161.674 285.13 161.835C284.973 161.996 284.755 162.076 284.476 162.076C284.201 162.076 283.983 161.996 283.822 161.835C283.661 161.674 283.581 161.475 283.581 161.238ZM288.672 156.452V164.641H287.142V155.132H288.551L288.672 156.452ZM293.147 158.502V158.636C293.147 159.135 293.088 159.598 292.969 160.026C292.855 160.449 292.684 160.819 292.455 161.137C292.231 161.45 291.954 161.693 291.624 161.867C291.293 162.04 290.913 162.127 290.481 162.127C290.054 162.127 289.679 162.049 289.357 161.892C289.04 161.731 288.771 161.505 288.551 161.213C288.331 160.921 288.153 160.578 288.018 160.185C287.887 159.787 287.794 159.351 287.739 158.877V158.363C287.794 157.859 287.887 157.402 288.018 156.992C288.153 156.581 288.331 156.228 288.551 155.932C288.771 155.635 289.04 155.407 289.357 155.246C289.675 155.085 290.045 155.005 290.468 155.005C290.9 155.005 291.283 155.09 291.617 155.259C291.951 155.424 292.233 155.661 292.461 155.97C292.69 156.274 292.861 156.643 292.976 157.074C293.09 157.502 293.147 157.978 293.147 158.502ZM291.617 158.636V158.502C291.617 158.185 291.588 157.891 291.528 157.62C291.469 157.345 291.376 157.104 291.249 156.896C291.122 156.689 290.959 156.528 290.76 156.414C290.566 156.296 290.331 156.236 290.056 156.236C289.785 156.236 289.552 156.283 289.357 156.376C289.163 156.465 289 156.59 288.869 156.75C288.737 156.911 288.636 157.1 288.564 157.315C288.492 157.527 288.441 157.758 288.412 158.007V159.239C288.462 159.543 288.549 159.823 288.672 160.077C288.795 160.331 288.968 160.534 289.192 160.686C289.421 160.834 289.713 160.908 290.068 160.908C290.343 160.908 290.578 160.849 290.773 160.73C290.968 160.612 291.126 160.449 291.249 160.242C291.376 160.03 291.469 159.787 291.528 159.512C291.588 159.237 291.617 158.945 291.617 158.636ZM295.959 152.25V162H294.436V152.25H295.959ZM295.692 158.312L295.197 158.306C295.201 157.832 295.267 157.394 295.394 156.992C295.525 156.59 295.707 156.241 295.94 155.944C296.177 155.644 296.46 155.413 296.791 155.252C297.121 155.087 297.487 155.005 297.889 155.005C298.227 155.005 298.532 155.051 298.803 155.145C299.078 155.238 299.315 155.388 299.514 155.595C299.713 155.798 299.863 156.065 299.964 156.395C300.07 156.721 300.123 157.119 300.123 157.588V162H298.587V157.576C298.587 157.246 298.538 156.983 298.441 156.789C298.348 156.594 298.21 156.454 298.028 156.37C297.846 156.281 297.624 156.236 297.362 156.236C297.087 156.236 296.843 156.291 296.632 156.401C296.424 156.511 296.251 156.662 296.111 156.852C295.972 157.042 295.866 157.263 295.794 157.512C295.726 157.762 295.692 158.028 295.692 158.312ZM303.208 156.452V164.641H301.678V155.132H303.087L303.208 156.452ZM307.683 158.502V158.636C307.683 159.135 307.624 159.598 307.505 160.026C307.391 160.449 307.22 160.819 306.991 161.137C306.767 161.45 306.49 161.693 306.16 161.867C305.83 162.04 305.449 162.127 305.017 162.127C304.59 162.127 304.215 162.049 303.894 161.892C303.576 161.731 303.307 161.505 303.087 161.213C302.867 160.921 302.69 160.578 302.554 160.185C302.423 159.787 302.33 159.351 302.275 158.877V158.363C302.33 157.859 302.423 157.402 302.554 156.992C302.69 156.581 302.867 156.228 303.087 155.932C303.307 155.635 303.576 155.407 303.894 155.246C304.211 155.085 304.581 155.005 305.004 155.005C305.436 155.005 305.819 155.09 306.153 155.259C306.488 155.424 306.769 155.661 306.998 155.97C307.226 156.274 307.397 156.643 307.512 157.074C307.626 157.502 307.683 157.978 307.683 158.502ZM306.153 158.636V158.502C306.153 158.185 306.124 157.891 306.064 157.62C306.005 157.345 305.912 157.104 305.785 156.896C305.658 156.689 305.495 156.528 305.296 156.414C305.102 156.296 304.867 156.236 304.592 156.236C304.321 156.236 304.088 156.283 303.894 156.376C303.699 156.465 303.536 156.59 303.405 156.75C303.274 156.911 303.172 157.1 303.1 157.315C303.028 157.527 302.977 157.758 302.948 158.007V159.239C302.999 159.543 303.085 159.823 303.208 160.077C303.331 160.331 303.504 160.534 303.729 160.686C303.957 160.834 304.249 160.908 304.604 160.908C304.88 160.908 305.114 160.849 305.309 160.73C305.504 160.612 305.662 160.449 305.785 160.242C305.912 160.03 306.005 159.787 306.064 159.512C306.124 159.237 306.153 158.945 306.153 158.636Z" fill="#1A1A1A"/>
<path d="M215 148C215 143.029 219.029 139 224 139H608C612.971 139 617 143.029 617 148H615C615 144.134 611.866 141 608 141H224C220.134 141 217 144.134 217 148H215ZM617 177H215L217 175H615L617 177ZM215 177V148C215 143.029 219.029 139 224 139V141C220.134 141 217 144.134 217 148V175L215 177ZM608 139C612.971 139 617 143.029 617 148V177L615 175V148C615 144.134 611.866 141 608 141V139Z" fill="#E6E6E6" mask="url(#path-12-inside-1_7296_85331)"/>
<rect width="40" height="172" transform="translate(216 176)" fill="#737373"/>
<path d="M236.913 207H235.739V199.256L233.32 200.176V199.104L236.818 197.758H236.913V207ZM238.773 227H232.717V226.156L235.745 222.792C236.016 222.491 236.242 222.224 236.424 221.992C236.606 221.759 236.752 221.543 236.862 221.344C236.972 221.15 237.051 220.965 237.097 220.792C237.144 220.614 237.167 220.432 237.167 220.246C237.167 220.018 237.129 219.804 237.053 219.605C236.981 219.402 236.875 219.226 236.735 219.078C236.591 218.93 236.418 218.814 236.215 218.729C236.016 218.64 235.79 218.596 235.536 218.596C235.227 218.596 234.958 218.64 234.729 218.729C234.505 218.818 234.319 218.943 234.171 219.104C234.019 219.269 233.904 219.467 233.828 219.7C233.756 219.933 233.72 220.193 233.72 220.481H232.54C232.54 220.092 232.607 219.726 232.743 219.383C232.878 219.036 233.075 218.733 233.333 218.475C233.587 218.217 233.898 218.012 234.266 217.859C234.639 217.707 235.062 217.631 235.536 217.631C235.972 217.631 236.363 217.696 236.71 217.828C237.061 217.955 237.357 218.132 237.599 218.361C237.84 218.589 238.024 218.86 238.151 219.173C238.282 219.486 238.348 219.827 238.348 220.195C238.348 220.47 238.301 220.743 238.208 221.014C238.115 221.281 237.99 221.545 237.833 221.808C237.673 222.07 237.486 222.33 237.275 222.588C237.068 222.842 236.847 223.096 236.615 223.35L234.133 226.042H238.773V227ZM234.476 241.814H235.313C235.61 241.814 235.87 241.774 236.094 241.693C236.323 241.613 236.515 241.503 236.672 241.363C236.824 241.224 236.941 241.056 237.021 240.862C237.101 240.667 237.142 240.453 237.142 240.221C237.142 239.946 237.106 239.707 237.034 239.503C236.962 239.296 236.856 239.125 236.716 238.989C236.581 238.858 236.412 238.761 236.208 238.697C236.01 238.63 235.781 238.596 235.523 238.596C235.273 238.596 235.045 238.634 234.837 238.71C234.634 238.782 234.461 238.888 234.317 239.027C234.169 239.167 234.055 239.334 233.974 239.529C233.894 239.723 233.854 239.941 233.854 240.183H232.673C232.673 239.831 232.741 239.501 232.876 239.192C233.016 238.879 233.21 238.606 233.46 238.374C233.71 238.145 234.008 237.965 234.355 237.834C234.706 237.699 235.096 237.631 235.523 237.631C235.938 237.631 236.316 237.688 236.659 237.802C237.002 237.912 237.296 238.077 237.542 238.297C237.787 238.517 237.977 238.79 238.113 239.116C238.248 239.442 238.316 239.819 238.316 240.246C238.316 240.424 238.288 240.608 238.233 240.798C238.178 240.989 238.094 241.173 237.979 241.351C237.865 241.533 237.717 241.704 237.535 241.865C237.357 242.021 237.144 242.153 236.894 242.258C237.194 242.356 237.444 242.483 237.643 242.639C237.846 242.796 238.009 242.971 238.132 243.166C238.25 243.361 238.333 243.566 238.379 243.782C238.43 243.998 238.456 244.211 238.456 244.423C238.456 244.854 238.382 245.237 238.233 245.572C238.085 245.906 237.88 246.188 237.618 246.416C237.355 246.649 237.044 246.826 236.685 246.949C236.329 247.068 235.944 247.127 235.529 247.127C235.123 247.127 234.74 247.07 234.38 246.956C234.025 246.841 233.716 246.674 233.454 246.454C233.191 246.234 232.982 245.965 232.825 245.648C232.673 245.331 232.597 244.969 232.597 244.562H233.771C233.771 244.804 233.811 245.024 233.892 245.223C233.976 245.422 234.095 245.591 234.247 245.73C234.399 245.87 234.583 245.978 234.799 246.054C235.019 246.13 235.263 246.168 235.529 246.168C235.796 246.168 236.037 246.135 236.253 246.067C236.469 245.995 236.653 245.887 236.805 245.743C236.958 245.599 237.074 245.422 237.154 245.21C237.239 244.994 237.281 244.74 237.281 244.448C237.281 244.16 237.233 243.913 237.135 243.706C237.042 243.494 236.911 243.318 236.742 243.179C236.568 243.039 236.359 242.935 236.113 242.868C235.872 242.8 235.605 242.766 235.313 242.766H234.476V241.814ZM237.865 263.896H239.154V264.854H237.865V267H236.691V264.854H232.476V264.163L236.615 257.758H237.865V263.896ZM233.777 263.896H236.691V259.319L236.5 259.675L233.777 263.896ZM233.523 282.366L233.987 277.758H238.729V278.9H234.977L234.717 281.363C234.899 281.257 235.117 281.164 235.371 281.084C235.625 281.004 235.919 280.963 236.253 280.963C236.68 280.963 237.063 281.037 237.402 281.186C237.74 281.334 238.028 281.541 238.265 281.808C238.502 282.078 238.684 282.404 238.811 282.785C238.938 283.166 239.001 283.589 239.001 284.055C239.001 284.495 238.942 284.903 238.824 285.28C238.705 285.656 238.528 285.98 238.291 286.251C238.049 286.526 237.747 286.742 237.383 286.898C237.019 287.051 236.591 287.127 236.101 287.127C235.724 287.127 235.368 287.074 235.034 286.968C234.7 286.862 234.404 286.704 234.146 286.492C233.883 286.281 233.667 286.014 233.498 285.692C233.333 285.371 233.229 284.996 233.187 284.569H234.304C234.376 285.094 234.569 285.491 234.882 285.762C235.199 286.033 235.605 286.168 236.101 286.168C236.38 286.168 236.627 286.12 236.843 286.022C237.059 285.921 237.241 285.777 237.389 285.591C237.533 285.409 237.641 285.189 237.713 284.931C237.789 284.673 237.827 284.385 237.827 284.067C237.827 283.78 237.785 283.511 237.7 283.261C237.62 283.012 237.501 282.794 237.345 282.607C237.188 282.425 236.996 282.282 236.767 282.176C236.539 282.07 236.276 282.017 235.98 282.017C235.785 282.017 235.616 282.032 235.472 282.062C235.333 282.087 235.206 282.125 235.091 282.176C234.977 282.227 234.869 282.288 234.768 282.36C234.67 282.432 234.569 282.514 234.463 282.607L233.523 282.366ZM237.434 297.751V298.805H237.332C236.773 298.805 236.299 298.886 235.91 299.046C235.521 299.203 235.199 299.415 234.945 299.681C234.679 299.96 234.476 300.293 234.336 300.678C234.201 301.063 234.12 301.458 234.095 301.865C234.205 301.734 234.332 301.613 234.476 301.503C234.619 301.389 234.776 301.289 234.945 301.205C235.11 301.124 235.288 301.061 235.479 301.014C235.673 300.963 235.876 300.938 236.088 300.938C236.549 300.938 236.947 301.027 237.281 301.205C237.616 301.378 237.891 301.609 238.106 301.896C238.322 302.184 238.481 302.51 238.583 302.874C238.684 303.238 238.735 303.608 238.735 303.985C238.735 304.417 238.674 304.823 238.551 305.204C238.432 305.584 238.252 305.917 238.011 306.2C237.77 306.488 237.47 306.714 237.11 306.879C236.754 307.044 236.342 307.127 235.872 307.127C235.398 307.127 234.981 307.032 234.622 306.841C234.262 306.651 233.959 306.403 233.714 306.099C233.439 305.764 233.234 305.375 233.098 304.931C232.963 304.482 232.895 304.034 232.895 303.585V303.033C232.895 302.263 232.986 301.505 233.168 300.76C233.35 300.015 233.705 299.379 234.234 298.85C234.598 298.486 235.041 298.213 235.561 298.031C236.082 297.845 236.672 297.751 237.332 297.751H237.434ZM235.897 301.916C235.699 301.916 235.506 301.947 235.32 302.011C235.134 302.074 234.96 302.163 234.799 302.277C234.639 302.392 234.497 302.529 234.374 302.69C234.251 302.851 234.154 303.028 234.082 303.223V303.617C234.082 304.023 234.131 304.385 234.228 304.702C234.325 305.015 234.457 305.28 234.622 305.496C234.787 305.711 234.977 305.876 235.193 305.991C235.409 306.101 235.635 306.156 235.872 306.156C236.147 306.156 236.39 306.103 236.602 305.997C236.814 305.891 236.993 305.745 237.142 305.559C237.285 305.373 237.393 305.151 237.465 304.893C237.542 304.63 237.58 304.347 237.58 304.042C237.58 303.771 237.546 303.509 237.478 303.255C237.41 302.997 237.307 302.768 237.167 302.569C237.027 302.37 236.852 302.212 236.64 302.093C236.429 301.975 236.181 301.916 235.897 301.916ZM238.957 318.418L235.129 327H233.898L237.713 318.786H232.711V317.758H238.957V318.418Z" fill="white"/>
<mask id="path-16-inside-2_7296_85331" fill="white">
<path d="M256 176H616V340C616 344.418 612.418 348 608 348H256V176Z"/>
</mask>
<path d="M256 176H616V340C616 344.418 612.418 348 608 348H256V176Z" fill="#F8F8F8"/>
<path d="M274.279 201.154C274.372 201.014 274.476 200.887 274.59 200.773C274.704 200.654 274.825 200.551 274.952 200.462C275.155 200.314 275.377 200.202 275.618 200.125C275.864 200.049 276.124 200.009 276.399 200.005C276.759 200.005 277.084 200.058 277.376 200.164C277.673 200.265 277.924 200.426 278.132 200.646C278.339 200.866 278.498 201.145 278.608 201.484C278.722 201.818 278.779 202.216 278.779 202.677V207H277.605V202.665C277.605 202.394 277.573 202.157 277.51 201.954C277.446 201.746 277.353 201.575 277.23 201.439C277.099 201.291 276.934 201.181 276.735 201.109C276.536 201.033 276.308 200.997 276.05 201.001C275.838 201.001 275.637 201.031 275.447 201.09C275.256 201.15 275.081 201.234 274.92 201.344C274.793 201.429 274.674 201.528 274.564 201.643C274.459 201.753 274.363 201.875 274.279 202.011V207H273.104V197.25H274.279V201.154ZM283.946 207.127C283.464 207.127 283.02 207.044 282.613 206.879C282.211 206.714 281.866 206.484 281.579 206.188C281.291 205.891 281.067 205.54 280.906 205.134C280.745 204.728 280.665 204.285 280.665 203.807V203.541C280.665 202.986 280.753 202.491 280.931 202.055C281.109 201.615 281.346 201.243 281.642 200.938C281.934 200.638 282.266 200.407 282.639 200.246C283.015 200.085 283.4 200.005 283.794 200.005C284.289 200.005 284.721 200.092 285.089 200.265C285.461 200.434 285.77 200.669 286.016 200.97C286.261 201.274 286.443 201.632 286.562 202.042C286.684 202.453 286.746 202.897 286.746 203.375V203.902H281.839V203.947C281.868 204.281 281.934 204.575 282.036 204.829C282.141 205.083 282.285 205.307 282.467 205.502C282.653 205.709 282.878 205.872 283.14 205.991C283.403 206.109 283.692 206.168 284.01 206.168C284.429 206.168 284.801 206.084 285.127 205.915C285.453 205.745 285.724 205.521 285.939 205.242L286.657 205.8C286.428 206.147 286.085 206.456 285.628 206.727C285.176 206.994 284.615 207.127 283.946 207.127ZM283.794 200.97C283.557 200.97 283.333 201.014 283.121 201.103C282.91 201.188 282.719 201.312 282.55 201.478C282.381 201.647 282.237 201.854 282.118 202.1C282.004 202.341 281.924 202.62 281.877 202.938H285.571V202.88C285.571 202.669 285.531 202.442 285.451 202.201C285.37 201.956 285.258 201.744 285.114 201.566C284.97 201.389 284.788 201.245 284.568 201.135C284.353 201.025 284.094 200.97 283.794 200.97ZM293.233 207C293.186 206.911 293.148 206.801 293.119 206.67C293.093 206.535 293.074 206.395 293.062 206.251C292.943 206.369 292.81 206.482 292.662 206.587C292.518 206.693 292.359 206.786 292.186 206.867C292.008 206.947 291.819 207.011 291.621 207.057C291.422 207.104 291.21 207.127 290.986 207.127C290.622 207.127 290.292 207.074 289.996 206.968C289.704 206.862 289.456 206.719 289.253 206.537C289.046 206.359 288.885 206.147 288.771 205.902C288.66 205.652 288.605 205.383 288.605 205.096C288.605 204.719 288.68 204.389 288.828 204.105C288.98 203.822 289.194 203.585 289.469 203.395C289.744 203.208 290.074 203.069 290.459 202.976C290.848 202.882 291.282 202.836 291.76 202.836H293.042V202.296C293.042 202.089 293.004 201.903 292.928 201.738C292.852 201.573 292.744 201.431 292.604 201.312C292.465 201.198 292.293 201.109 292.09 201.046C291.891 200.982 291.667 200.951 291.417 200.951C291.185 200.951 290.975 200.98 290.789 201.04C290.607 201.099 290.453 201.177 290.326 201.274C290.199 201.372 290.099 201.488 290.027 201.624C289.96 201.755 289.926 201.892 289.926 202.036H288.745C288.749 201.786 288.813 201.541 288.936 201.3C289.062 201.059 289.244 200.841 289.481 200.646C289.714 200.456 289.998 200.301 290.332 200.183C290.671 200.064 291.054 200.005 291.481 200.005C291.87 200.005 292.232 200.054 292.566 200.151C292.901 200.244 293.191 200.386 293.436 200.576C293.677 200.771 293.868 201.012 294.007 201.3C294.147 201.588 294.217 201.924 294.217 202.309V205.502C294.217 205.73 294.238 205.974 294.28 206.232C294.323 206.486 294.382 206.708 294.458 206.898V207H293.233ZM291.157 206.105C291.386 206.105 291.599 206.075 291.798 206.016C291.997 205.957 292.179 205.879 292.344 205.781C292.505 205.684 292.645 205.574 292.763 205.451C292.882 205.324 292.975 205.193 293.042 205.058V203.667H291.951C291.544 203.667 291.189 203.703 290.884 203.775C290.584 203.843 290.345 203.949 290.167 204.093C290.04 204.194 289.943 204.315 289.875 204.455C289.812 204.594 289.78 204.753 289.78 204.931C289.78 205.1 289.807 205.257 289.862 205.4C289.922 205.544 290.008 205.667 290.123 205.769C290.237 205.874 290.381 205.957 290.554 206.016C290.728 206.075 290.929 206.105 291.157 206.105ZM296.305 203.509C296.305 202.997 296.369 202.527 296.496 202.1C296.627 201.668 296.813 201.298 297.054 200.989C297.291 200.68 297.579 200.439 297.917 200.265C298.256 200.092 298.635 200.005 299.054 200.005C299.464 200.005 299.822 200.075 300.126 200.214C300.435 200.35 300.702 200.549 300.926 200.811V197.25H302.101V207H301.021L300.971 206.276C300.742 206.556 300.469 206.767 300.152 206.911C299.834 207.055 299.464 207.127 299.041 207.127C298.626 207.127 298.25 207.038 297.911 206.86C297.577 206.683 297.291 206.437 297.054 206.124C296.817 205.811 296.633 205.443 296.502 205.02C296.371 204.592 296.305 204.133 296.305 203.642V203.509ZM297.479 203.642C297.479 203.976 297.515 204.294 297.587 204.594C297.659 204.895 297.771 205.159 297.924 205.388C298.072 205.616 298.262 205.798 298.495 205.934C298.728 206.065 299.007 206.13 299.333 206.13C299.727 206.13 300.052 206.042 300.311 205.864C300.569 205.686 300.774 205.447 300.926 205.146V201.96C300.774 201.681 300.569 201.452 300.311 201.274C300.052 201.092 299.731 201.001 299.346 201.001C299.016 201.001 298.732 201.069 298.495 201.205C298.262 201.34 298.072 201.522 297.924 201.75C297.771 201.983 297.659 202.252 297.587 202.557C297.515 202.857 297.479 203.174 297.479 203.509V203.642ZM307.369 207.127C306.887 207.127 306.442 207.044 306.036 206.879C305.634 206.714 305.289 206.484 305.001 206.188C304.714 205.891 304.489 205.54 304.329 205.134C304.168 204.728 304.087 204.285 304.087 203.807V203.541C304.087 202.986 304.176 202.491 304.354 202.055C304.532 201.615 304.769 201.243 305.065 200.938C305.357 200.638 305.689 200.407 306.062 200.246C306.438 200.085 306.823 200.005 307.217 200.005C307.712 200.005 308.144 200.092 308.512 200.265C308.884 200.434 309.193 200.669 309.438 200.97C309.684 201.274 309.866 201.632 309.984 202.042C310.107 202.453 310.168 202.897 310.168 203.375V203.902H305.262V203.947C305.291 204.281 305.357 204.575 305.458 204.829C305.564 205.083 305.708 205.307 305.89 205.502C306.076 205.709 306.301 205.872 306.563 205.991C306.825 206.109 307.115 206.168 307.433 206.168C307.852 206.168 308.224 206.084 308.55 205.915C308.876 205.745 309.146 205.521 309.362 205.242L310.08 205.8C309.851 206.147 309.508 206.456 309.051 206.727C308.598 206.994 308.038 207.127 307.369 207.127ZM307.217 200.97C306.98 200.97 306.756 201.014 306.544 201.103C306.332 201.188 306.142 201.312 305.973 201.478C305.803 201.647 305.66 201.854 305.541 202.1C305.427 202.341 305.346 202.62 305.3 202.938H308.994V202.88C308.994 202.669 308.954 202.442 308.874 202.201C308.793 201.956 308.681 201.744 308.537 201.566C308.393 201.389 308.211 201.245 307.991 201.135C307.775 201.025 307.517 200.97 307.217 200.97ZM316.643 200.005C316.859 200.005 317.083 200.02 317.316 200.049C317.553 200.079 317.731 200.119 317.849 200.17L317.69 201.319C317.462 201.268 317.244 201.232 317.037 201.211C316.833 201.186 316.62 201.173 316.396 201.173C316.108 201.173 315.847 201.209 315.615 201.281C315.382 201.348 315.179 201.45 315.005 201.585C314.849 201.704 314.711 201.85 314.593 202.023C314.479 202.193 314.383 202.383 314.307 202.595V207H313.126V200.132H314.244L314.294 201.052L314.301 201.224C314.58 200.847 314.914 200.551 315.304 200.335C315.697 200.115 316.144 200.005 316.643 200.005ZM332.861 209.323C332.451 209.311 332.095 209.215 331.795 209.038C331.494 208.86 331.245 208.625 331.046 208.333C330.855 208.054 330.712 207.741 330.614 207.394C330.517 207.051 330.468 206.71 330.468 206.372V205.299C330.468 204.689 330.322 204.247 330.03 203.972C329.743 203.697 329.3 203.557 328.704 203.553V202.633C329.3 202.633 329.743 202.497 330.03 202.227C330.322 201.951 330.468 201.507 330.468 200.894V199.814C330.468 199.472 330.513 199.123 330.602 198.767C330.695 198.407 330.841 198.086 331.04 197.802C331.226 197.531 331.469 197.311 331.77 197.142C332.07 196.969 332.434 196.875 332.861 196.863L332.995 197.593C332.69 197.601 332.447 197.673 332.265 197.809C332.087 197.944 331.954 198.115 331.865 198.323C331.772 198.534 331.712 198.771 331.687 199.034C331.662 199.296 331.649 199.556 331.649 199.814V200.894C331.649 201.401 331.53 201.848 331.293 202.233C331.061 202.614 330.699 202.904 330.208 203.103C330.699 203.297 331.061 203.587 331.293 203.972C331.526 204.353 331.645 204.795 331.649 205.299V206.372C331.649 206.634 331.67 206.894 331.712 207.152C331.755 207.415 331.829 207.65 331.935 207.857C332.036 208.069 332.172 208.242 332.341 208.377C332.514 208.513 332.732 208.585 332.995 208.593L332.861 209.323ZM310.156 223.642C310.156 223.943 310.132 224.232 310.086 224.512C310.044 224.787 309.98 225.045 309.896 225.286C309.781 225.604 309.631 225.889 309.445 226.143C309.263 226.393 309.043 226.6 308.785 226.765C308.598 226.879 308.393 226.968 308.169 227.032C307.949 227.095 307.71 227.127 307.452 227.127C307.155 227.127 306.885 227.091 306.639 227.019C306.398 226.947 306.18 226.843 305.985 226.708C305.892 226.64 305.803 226.566 305.719 226.486C305.634 226.405 305.554 226.317 305.478 226.219L305.42 227H304.341V217.25H305.516V220.868C305.613 220.745 305.721 220.635 305.839 220.538C305.958 220.437 306.085 220.35 306.22 220.278C306.389 220.189 306.576 220.121 306.779 220.075C306.982 220.028 307.202 220.005 307.439 220.005C307.735 220.005 308.008 220.045 308.258 220.125C308.507 220.206 308.734 220.318 308.937 220.462C309.119 220.597 309.282 220.762 309.426 220.957C309.57 221.147 309.697 221.361 309.807 221.598C309.921 221.865 310.008 222.161 310.067 222.487C310.126 222.808 310.156 223.149 310.156 223.509V223.642ZM308.981 223.509C308.981 223.293 308.967 223.083 308.937 222.88C308.912 222.673 308.871 222.478 308.816 222.296C308.74 222.072 308.641 221.867 308.518 221.681C308.395 221.494 308.245 221.348 308.067 221.243C307.945 221.167 307.807 221.107 307.655 221.065C307.502 221.023 307.333 221.001 307.147 221.001C306.944 221.001 306.758 221.029 306.588 221.084C306.419 221.135 306.269 221.207 306.138 221.3C306.002 221.397 305.882 221.511 305.776 221.643C305.674 221.77 305.588 221.909 305.516 222.062V225.064C305.592 225.216 305.681 225.358 305.782 225.489C305.888 225.616 306.009 225.728 306.144 225.826C306.279 225.923 306.432 225.999 306.601 226.054C306.77 226.105 306.957 226.13 307.16 226.13C307.354 226.13 307.532 226.107 307.693 226.061C307.854 226.01 307.998 225.938 308.125 225.845C308.294 225.726 308.436 225.576 308.55 225.394C308.664 225.212 308.755 225.009 308.823 224.785C308.878 224.615 308.918 224.433 308.943 224.239C308.969 224.044 308.981 223.845 308.981 223.642V223.509ZM311.812 223.502C311.812 223.007 311.884 222.548 312.028 222.125C312.172 221.698 312.38 221.327 312.65 221.014C312.917 220.701 313.243 220.456 313.628 220.278C314.013 220.096 314.447 220.005 314.929 220.005C315.416 220.005 315.852 220.096 316.237 220.278C316.626 220.456 316.956 220.701 317.227 221.014C317.494 221.327 317.699 221.698 317.843 222.125C317.987 222.548 318.059 223.007 318.059 223.502V223.642C318.059 224.137 317.987 224.596 317.843 225.02C317.699 225.443 317.494 225.811 317.227 226.124C316.956 226.437 316.628 226.683 316.243 226.86C315.858 227.038 315.424 227.127 314.942 227.127C314.455 227.127 314.017 227.038 313.628 226.86C313.243 226.683 312.917 226.437 312.65 226.124C312.38 225.811 312.172 225.443 312.028 225.02C311.884 224.596 311.812 224.137 311.812 223.642V223.502ZM312.987 223.642C312.987 223.981 313.027 224.304 313.107 224.613C313.188 224.918 313.311 225.187 313.476 225.419C313.636 225.652 313.84 225.836 314.085 225.972C314.33 226.107 314.616 226.175 314.942 226.175C315.264 226.175 315.545 226.107 315.786 225.972C316.032 225.836 316.237 225.652 316.402 225.419C316.563 225.187 316.683 224.918 316.764 224.613C316.844 224.304 316.884 223.981 316.884 223.642V223.502C316.884 223.168 316.842 222.849 316.757 222.544C316.677 222.235 316.556 221.964 316.396 221.731C316.23 221.499 316.025 221.315 315.78 221.179C315.539 221.04 315.255 220.97 314.929 220.97C314.603 220.97 314.32 221.04 314.079 221.179C313.837 221.315 313.636 221.499 313.476 221.731C313.311 221.964 313.188 222.235 313.107 222.544C313.027 222.849 312.987 223.168 312.987 223.502V223.642ZM319.728 223.509C319.728 222.997 319.792 222.527 319.918 222.1C320.05 221.668 320.236 221.298 320.477 220.989C320.714 220.68 321.002 220.439 321.34 220.265C321.679 220.092 322.058 220.005 322.477 220.005C322.887 220.005 323.245 220.075 323.549 220.214C323.858 220.35 324.125 220.549 324.349 220.811V217.25H325.523V227H324.444L324.394 226.276C324.165 226.556 323.892 226.767 323.575 226.911C323.257 227.055 322.887 227.127 322.464 227.127C322.049 227.127 321.673 227.038 321.334 226.86C321 226.683 320.714 226.437 320.477 226.124C320.24 225.811 320.056 225.443 319.925 225.02C319.794 224.592 319.728 224.133 319.728 223.642V223.509ZM320.902 223.642C320.902 223.976 320.938 224.294 321.01 224.594C321.082 224.895 321.194 225.159 321.347 225.388C321.495 225.616 321.685 225.798 321.918 225.934C322.151 226.065 322.43 226.13 322.756 226.13C323.149 226.13 323.475 226.042 323.733 225.864C323.992 225.686 324.197 225.447 324.349 225.146V221.96C324.197 221.681 323.992 221.452 323.733 221.274C323.475 221.092 323.154 221.001 322.769 221.001C322.438 221.001 322.155 221.069 321.918 221.205C321.685 221.34 321.495 221.522 321.347 221.75C321.194 221.983 321.082 222.252 321.01 222.557C320.938 222.857 320.902 223.174 320.902 223.509V223.642ZM328.31 229.774C328.2 229.774 328.071 229.761 327.923 229.736C327.775 229.71 327.663 229.689 327.586 229.672L327.777 228.714C327.883 228.722 327.986 228.729 328.088 228.733C328.194 228.741 328.276 228.746 328.335 228.746C328.496 228.746 328.642 228.701 328.773 228.612C328.909 228.523 329.029 228.418 329.135 228.295C329.237 228.172 329.324 228.045 329.396 227.914C329.472 227.783 329.531 227.675 329.573 227.59L330.043 226.676L327.085 220.132H328.399L330.284 224.562L330.589 225.394L330.913 224.588L332.684 220.132H333.998L330.513 228.06C330.432 228.238 330.329 228.426 330.202 228.625C330.079 228.824 329.929 229.008 329.751 229.177C329.573 229.347 329.366 229.488 329.129 229.603C328.892 229.717 328.619 229.774 328.31 229.774ZM348.477 229.323C348.066 229.311 347.711 229.215 347.41 229.038C347.11 228.86 346.86 228.625 346.661 228.333C346.471 228.054 346.327 227.741 346.229 227.394C346.132 227.051 346.083 226.71 346.083 226.372V225.299C346.083 224.689 345.938 224.247 345.646 223.972C345.358 223.697 344.916 223.557 344.319 223.553V222.633C344.916 222.633 345.358 222.497 345.646 222.227C345.938 221.951 346.083 221.507 346.083 220.894V219.814C346.083 219.472 346.128 219.123 346.217 218.767C346.31 218.407 346.456 218.086 346.655 217.802C346.841 217.531 347.084 217.311 347.385 217.142C347.685 216.969 348.049 216.875 348.477 216.863L348.61 217.593C348.305 217.601 348.062 217.673 347.88 217.809C347.702 217.944 347.569 218.115 347.48 218.323C347.387 218.534 347.328 218.771 347.302 219.034C347.277 219.296 347.264 219.556 347.264 219.814V220.894C347.264 221.401 347.146 221.848 346.909 222.233C346.676 222.614 346.314 222.904 345.823 223.103C346.314 223.297 346.676 223.587 346.909 223.972C347.141 224.353 347.26 224.795 347.264 225.299V226.372C347.264 226.634 347.285 226.894 347.328 227.152C347.37 227.415 347.444 227.65 347.55 227.857C347.651 228.069 347.787 228.242 347.956 228.377C348.13 228.513 348.347 228.585 348.61 228.593L348.477 229.323ZM337.609 246.238C337.609 245.989 337.686 245.775 337.838 245.597C337.99 245.419 338.221 245.331 338.53 245.331C338.834 245.331 339.065 245.419 339.222 245.597C339.382 245.771 339.463 245.984 339.463 246.238C339.463 246.488 339.382 246.697 339.222 246.867C339.061 247.036 338.83 247.121 338.53 247.121C338.225 247.121 337.994 247.036 337.838 246.867C337.686 246.693 337.609 246.484 337.609 246.238ZM347.937 245.178C347.937 245.039 347.91 244.914 347.854 244.804C347.799 244.689 347.706 244.586 347.575 244.493C347.444 244.4 347.271 244.315 347.055 244.239C346.839 244.158 346.57 244.086 346.249 244.023C345.855 243.943 345.495 243.845 345.169 243.731C344.848 243.617 344.573 243.479 344.344 243.318C344.111 243.162 343.932 242.978 343.805 242.766C343.678 242.55 343.614 242.301 343.614 242.017C343.614 241.738 343.68 241.478 343.811 241.236C343.942 240.991 344.126 240.777 344.363 240.595C344.6 240.413 344.882 240.269 345.208 240.164C345.538 240.058 345.899 240.005 346.293 240.005C346.716 240.005 347.097 240.06 347.436 240.17C347.774 240.28 348.062 240.432 348.299 240.627C348.536 240.822 348.718 241.05 348.845 241.312C348.976 241.571 349.042 241.85 349.042 242.15H347.867C347.867 242.002 347.829 241.858 347.753 241.719C347.677 241.575 347.571 241.448 347.436 241.338C347.3 241.228 347.135 241.139 346.94 241.071C346.75 241.004 346.534 240.97 346.293 240.97C346.043 240.97 345.823 240.997 345.633 241.052C345.447 241.107 345.292 241.181 345.169 241.274C345.042 241.368 344.947 241.475 344.884 241.598C344.82 241.721 344.789 241.848 344.789 241.979C344.789 242.114 344.814 242.235 344.865 242.341C344.916 242.447 345.004 242.542 345.131 242.626C345.254 242.711 345.419 242.787 345.626 242.855C345.838 242.923 346.105 242.988 346.426 243.052C346.849 243.141 347.228 243.244 347.562 243.363C347.897 243.477 348.178 243.615 348.407 243.775C348.635 243.94 348.809 244.131 348.927 244.347C349.05 244.562 349.111 244.812 349.111 245.096C349.111 245.4 349.042 245.678 348.902 245.927C348.766 246.177 348.576 246.391 348.331 246.568C348.085 246.746 347.791 246.884 347.448 246.981C347.105 247.078 346.731 247.127 346.325 247.127C345.859 247.127 345.444 247.066 345.081 246.943C344.717 246.816 344.41 246.649 344.16 246.441C343.906 246.238 343.712 246.001 343.576 245.73C343.445 245.46 343.379 245.178 343.379 244.886H344.554C344.571 245.127 344.634 245.331 344.744 245.496C344.858 245.661 345 245.794 345.169 245.896C345.334 245.997 345.519 246.069 345.722 246.111C345.925 246.154 346.126 246.175 346.325 246.175C346.638 246.175 346.911 246.139 347.144 246.067C347.376 245.991 347.558 245.887 347.689 245.756C347.77 245.675 347.831 245.587 347.874 245.489C347.916 245.392 347.937 245.288 347.937 245.178ZM355.694 247C355.647 246.911 355.609 246.801 355.58 246.67C355.554 246.535 355.535 246.395 355.522 246.251C355.404 246.369 355.271 246.482 355.123 246.587C354.979 246.693 354.82 246.786 354.646 246.867C354.469 246.947 354.28 247.011 354.082 247.057C353.883 247.104 353.671 247.127 353.447 247.127C353.083 247.127 352.753 247.074 352.457 246.968C352.165 246.862 351.917 246.719 351.714 246.537C351.507 246.359 351.346 246.147 351.231 245.902C351.121 245.652 351.066 245.383 351.066 245.096C351.066 244.719 351.14 244.389 351.289 244.105C351.441 243.822 351.655 243.585 351.93 243.395C352.205 243.208 352.535 243.069 352.92 242.976C353.309 242.882 353.743 242.836 354.221 242.836H355.503V242.296C355.503 242.089 355.465 241.903 355.389 241.738C355.313 241.573 355.205 241.431 355.065 241.312C354.926 241.198 354.754 241.109 354.551 241.046C354.352 240.982 354.128 240.951 353.878 240.951C353.646 240.951 353.436 240.98 353.25 241.04C353.068 241.099 352.914 241.177 352.787 241.274C352.66 241.372 352.56 241.488 352.488 241.624C352.421 241.755 352.387 241.892 352.387 242.036H351.206C351.21 241.786 351.274 241.541 351.396 241.3C351.523 241.059 351.705 240.841 351.942 240.646C352.175 240.456 352.459 240.301 352.793 240.183C353.132 240.064 353.514 240.005 353.942 240.005C354.331 240.005 354.693 240.054 355.027 240.151C355.362 240.244 355.652 240.386 355.897 240.576C356.138 240.771 356.329 241.012 356.468 241.3C356.608 241.588 356.678 241.924 356.678 242.309V245.502C356.678 245.73 356.699 245.974 356.741 246.232C356.784 246.486 356.843 246.708 356.919 246.898V247H355.694ZM353.618 246.105C353.847 246.105 354.06 246.075 354.259 246.016C354.458 245.957 354.64 245.879 354.805 245.781C354.966 245.684 355.106 245.574 355.224 245.451C355.343 245.324 355.436 245.193 355.503 245.058V243.667H354.412C354.005 243.667 353.65 243.703 353.345 243.775C353.045 243.843 352.806 243.949 352.628 244.093C352.501 244.194 352.404 244.315 352.336 244.455C352.272 244.594 352.241 244.753 352.241 244.931C352.241 245.1 352.268 245.257 352.323 245.4C352.382 245.544 352.469 245.667 352.583 245.769C352.698 245.874 352.842 245.957 353.015 246.016C353.189 246.075 353.39 246.105 353.618 246.105ZM359.528 240.132L359.56 240.779C359.699 240.538 359.881 240.35 360.105 240.214C360.334 240.079 360.609 240.009 360.931 240.005C361.113 240.005 361.276 240.026 361.419 240.068C361.568 240.106 361.697 240.164 361.807 240.24C361.887 240.299 361.959 240.371 362.022 240.456C362.09 240.54 362.147 240.635 362.194 240.741C362.253 240.644 362.323 240.553 362.403 240.468C362.484 240.384 362.57 240.31 362.664 240.246C362.782 240.174 362.913 240.117 363.057 240.075C363.205 240.032 363.366 240.009 363.54 240.005C363.777 240.005 363.99 240.041 364.181 240.113C364.371 240.181 364.532 240.282 364.663 240.417C364.807 240.57 364.917 240.769 364.993 241.014C365.069 241.255 365.107 241.541 365.107 241.871V247H363.99V241.858C363.99 241.715 363.973 241.588 363.939 241.478C363.906 241.368 363.857 241.277 363.793 241.205C363.726 241.137 363.641 241.086 363.54 241.052C363.442 241.018 363.328 241.001 363.197 241.001C363.057 241.001 362.937 241.021 362.835 241.059C362.733 241.097 362.649 241.147 362.581 241.211C362.513 241.279 362.46 241.357 362.422 241.446C362.384 241.53 362.359 241.626 362.346 241.731C362.346 241.753 362.346 241.774 362.346 241.795C362.346 241.812 362.346 241.833 362.346 241.858V247H361.229V241.852C361.229 241.708 361.212 241.581 361.178 241.471C361.149 241.361 361.1 241.27 361.032 241.198C360.969 241.131 360.888 241.082 360.791 241.052C360.698 241.018 360.588 241.001 360.461 241.001C360.321 241.001 360.199 241.018 360.093 241.052C359.991 241.082 359.904 241.126 359.833 241.186C359.778 241.232 359.729 241.285 359.687 241.344C359.648 241.403 359.617 241.467 359.591 241.535V247H358.474V240.132H359.528ZM366.79 249.641V240.132H367.862L367.919 240.881C368.013 240.762 368.114 240.657 368.224 240.563C368.334 240.466 368.453 240.384 368.58 240.316C368.757 240.214 368.954 240.138 369.17 240.087C369.39 240.032 369.625 240.005 369.875 240.005C370.315 240.005 370.704 240.092 371.042 240.265C371.381 240.439 371.665 240.68 371.893 240.989C372.122 241.298 372.295 241.668 372.414 242.1C372.532 242.527 372.591 242.997 372.591 243.509V243.642C372.591 244.133 372.532 244.592 372.414 245.02C372.295 245.443 372.122 245.811 371.893 246.124C371.665 246.437 371.381 246.683 371.042 246.86C370.708 247.038 370.325 247.127 369.894 247.127C369.631 247.127 369.386 247.099 369.157 247.044C368.933 246.989 368.73 246.911 368.548 246.81C368.438 246.746 368.334 246.676 368.237 246.6C368.139 246.52 368.049 246.433 367.964 246.34V249.641H366.79ZM371.417 243.509C371.417 243.174 371.379 242.857 371.303 242.557C371.231 242.252 371.119 241.983 370.966 241.75C370.81 241.522 370.613 241.34 370.376 241.205C370.139 241.069 369.855 241.001 369.525 241.001C369.343 241.001 369.174 241.023 369.018 241.065C368.865 241.107 368.728 241.169 368.605 241.249C368.47 241.329 368.349 241.429 368.243 241.547C368.137 241.666 368.044 241.797 367.964 241.941V245.248C368.036 245.375 368.118 245.493 368.211 245.604C368.305 245.714 368.41 245.807 368.529 245.883C368.664 245.972 368.814 246.042 368.979 246.092C369.149 246.143 369.335 246.168 369.538 246.168C369.864 246.168 370.145 246.101 370.382 245.965C370.619 245.826 370.814 245.639 370.966 245.407C371.119 245.174 371.231 244.905 371.303 244.601C371.379 244.296 371.417 243.976 371.417 243.642V243.509ZM374.788 237.25H378.298V245.984H380.539V247H374.788V245.984H377.124V238.272H374.788V237.25ZM385.445 247.127C384.963 247.127 384.519 247.044 384.112 246.879C383.71 246.714 383.365 246.484 383.078 246.188C382.79 245.891 382.566 245.54 382.405 245.134C382.244 244.728 382.164 244.285 382.164 243.807V243.541C382.164 242.986 382.252 242.491 382.43 242.055C382.608 241.615 382.845 241.243 383.141 240.938C383.433 240.638 383.765 240.407 384.138 240.246C384.514 240.085 384.899 240.005 385.293 240.005C385.788 240.005 386.22 240.092 386.588 240.265C386.96 240.434 387.269 240.669 387.515 240.97C387.76 241.274 387.942 241.632 388.061 242.042C388.183 242.453 388.245 242.897 388.245 243.375V243.902H383.338V243.947C383.368 244.281 383.433 244.575 383.535 244.829C383.64 245.083 383.784 245.307 383.966 245.502C384.153 245.709 384.377 245.872 384.639 245.991C384.902 246.109 385.191 246.168 385.509 246.168C385.928 246.168 386.3 246.084 386.626 245.915C386.952 245.745 387.223 245.521 387.438 245.242L388.156 245.8C387.927 246.147 387.584 246.456 387.127 246.727C386.675 246.994 386.114 247.127 385.445 247.127ZM385.293 240.97C385.056 240.97 384.832 241.014 384.62 241.103C384.409 241.188 384.218 241.312 384.049 241.478C383.88 241.647 383.736 241.854 383.617 242.1C383.503 242.341 383.423 242.62 383.376 242.938H387.07V242.88C387.07 242.669 387.03 242.442 386.95 242.201C386.869 241.956 386.757 241.744 386.613 241.566C386.469 241.389 386.287 241.245 386.067 241.135C385.852 241.025 385.593 240.97 385.293 240.97ZM395.354 243.439H390.498V242.474H395.354V243.439ZM401.835 247H400.661V239.256L398.242 240.176V239.104L401.74 237.758H401.835V247ZM418.745 249.323C418.335 249.311 417.979 249.215 417.679 249.038C417.378 248.86 417.129 248.625 416.93 248.333C416.739 248.054 416.595 247.741 416.498 247.394C416.401 247.051 416.352 246.71 416.352 246.372V245.299C416.352 244.689 416.206 244.247 415.914 243.972C415.626 243.697 415.184 243.557 414.587 243.553V242.633C415.184 242.633 415.626 242.497 415.914 242.227C416.206 241.951 416.352 241.507 416.352 240.894V239.814C416.352 239.472 416.396 239.123 416.485 238.767C416.578 238.407 416.724 238.086 416.923 237.802C417.11 237.531 417.353 237.311 417.653 237.142C417.954 236.969 418.318 236.875 418.745 236.863L418.878 237.593C418.574 237.601 418.33 237.673 418.148 237.809C417.971 237.944 417.837 238.115 417.749 238.323C417.655 238.534 417.596 238.771 417.571 239.034C417.545 239.296 417.533 239.556 417.533 239.814V240.894C417.533 241.401 417.414 241.848 417.177 242.233C416.944 242.614 416.583 242.904 416.092 243.103C416.583 243.297 416.944 243.587 417.177 243.972C417.41 244.353 417.528 244.795 417.533 245.299V246.372C417.533 246.634 417.554 246.894 417.596 247.152C417.639 247.415 417.713 247.65 417.818 247.857C417.92 248.069 418.055 248.242 418.225 248.377C418.398 248.513 418.616 248.585 418.878 248.593L418.745 249.323ZM338.492 266.175C338.703 266.175 338.909 266.141 339.107 266.073C339.311 266.006 339.49 265.91 339.647 265.788C339.804 265.669 339.928 265.529 340.021 265.369C340.119 265.204 340.17 265.026 340.174 264.835H341.285C341.28 265.14 341.2 265.432 341.043 265.711C340.891 265.986 340.686 266.228 340.428 266.435C340.17 266.647 339.873 266.816 339.539 266.943C339.205 267.066 338.856 267.127 338.492 267.127C337.971 267.127 337.516 267.034 337.127 266.848C336.738 266.661 336.414 266.41 336.156 266.092C335.893 265.779 335.697 265.417 335.565 265.007C335.434 264.592 335.369 264.156 335.369 263.699V263.433C335.369 262.98 335.434 262.546 335.565 262.131C335.697 261.717 335.893 261.351 336.156 261.033C336.414 260.72 336.738 260.47 337.127 260.284C337.516 260.098 337.971 260.005 338.492 260.005C338.898 260.005 339.27 260.07 339.609 260.202C339.952 260.329 340.248 260.502 340.498 260.722C340.743 260.946 340.936 261.211 341.075 261.516C341.215 261.82 341.285 262.146 341.285 262.493H340.174C340.17 262.286 340.123 262.091 340.034 261.909C339.95 261.723 339.833 261.56 339.685 261.42C339.537 261.281 339.359 261.171 339.152 261.09C338.949 261.01 338.729 260.97 338.492 260.97C338.128 260.97 337.821 261.044 337.571 261.192C337.326 261.336 337.127 261.524 336.975 261.757C336.822 261.994 336.712 262.258 336.645 262.55C336.581 262.842 336.549 263.136 336.549 263.433V263.699C336.549 264 336.581 264.298 336.645 264.594C336.712 264.886 336.822 265.149 336.975 265.381C337.123 265.618 337.319 265.811 337.565 265.959C337.815 266.103 338.124 266.175 338.492 266.175ZM343.043 263.502C343.043 263.007 343.115 262.548 343.259 262.125C343.403 261.698 343.61 261.327 343.881 261.014C344.147 260.701 344.473 260.456 344.858 260.278C345.243 260.096 345.677 260.005 346.16 260.005C346.646 260.005 347.082 260.096 347.467 260.278C347.857 260.456 348.187 260.701 348.458 261.014C348.724 261.327 348.929 261.698 349.073 262.125C349.217 262.548 349.289 263.007 349.289 263.502V263.642C349.289 264.137 349.217 264.596 349.073 265.02C348.929 265.443 348.724 265.811 348.458 266.124C348.187 266.437 347.859 266.683 347.474 266.86C347.089 267.038 346.655 267.127 346.172 267.127C345.686 267.127 345.248 267.038 344.858 266.86C344.473 266.683 344.147 266.437 343.881 266.124C343.61 265.811 343.403 265.443 343.259 265.02C343.115 264.596 343.043 264.137 343.043 263.642V263.502ZM344.217 263.642C344.217 263.981 344.257 264.304 344.338 264.613C344.418 264.918 344.541 265.187 344.706 265.419C344.867 265.652 345.07 265.836 345.315 265.972C345.561 266.107 345.847 266.175 346.172 266.175C346.494 266.175 346.775 266.107 347.017 265.972C347.262 265.836 347.467 265.652 347.632 265.419C347.793 265.187 347.914 264.918 347.994 264.613C348.075 264.304 348.115 263.981 348.115 263.642V263.502C348.115 263.168 348.072 262.849 347.988 262.544C347.907 262.235 347.787 261.964 347.626 261.731C347.461 261.499 347.256 261.315 347.01 261.179C346.769 261.04 346.486 260.97 346.16 260.97C345.834 260.97 345.55 261.04 345.309 261.179C345.068 261.315 344.867 261.499 344.706 261.731C344.541 261.964 344.418 262.235 344.338 262.544C344.257 262.849 344.217 263.168 344.217 263.502V263.642ZM351.365 257.25H354.875V265.984H357.116V267H351.365V265.984H353.701V258.272H351.365V257.25ZM358.658 263.502C358.658 263.007 358.73 262.548 358.874 262.125C359.018 261.698 359.225 261.327 359.496 261.014C359.763 260.701 360.089 260.456 360.474 260.278C360.859 260.096 361.292 260.005 361.775 260.005C362.262 260.005 362.697 260.096 363.083 260.278C363.472 260.456 363.802 260.701 364.073 261.014C364.339 261.327 364.545 261.698 364.688 262.125C364.832 262.548 364.904 263.007 364.904 263.502V263.642C364.904 264.137 364.832 264.596 364.688 265.02C364.545 265.443 364.339 265.811 364.073 266.124C363.802 266.437 363.474 266.683 363.089 266.86C362.704 267.038 362.27 267.127 361.788 267.127C361.301 267.127 360.863 267.038 360.474 266.86C360.089 266.683 359.763 266.437 359.496 266.124C359.225 265.811 359.018 265.443 358.874 265.02C358.73 264.596 358.658 264.137 358.658 263.642V263.502ZM359.833 263.642C359.833 263.981 359.873 264.304 359.953 264.613C360.034 264.918 360.156 265.187 360.321 265.419C360.482 265.652 360.685 265.836 360.931 265.972C361.176 266.107 361.462 266.175 361.788 266.175C362.109 266.175 362.391 266.107 362.632 265.972C362.877 265.836 363.083 265.652 363.248 265.419C363.408 265.187 363.529 264.918 363.609 264.613C363.69 264.304 363.73 263.981 363.73 263.642V263.502C363.73 263.168 363.688 262.849 363.603 262.544C363.523 262.235 363.402 261.964 363.241 261.731C363.076 261.499 362.871 261.315 362.625 261.179C362.384 261.04 362.101 260.97 361.775 260.97C361.449 260.97 361.166 261.04 360.924 261.179C360.683 261.315 360.482 261.499 360.321 261.731C360.156 261.964 360.034 262.235 359.953 262.544C359.873 262.849 359.833 263.168 359.833 263.502V263.642ZM371.296 260.005C371.512 260.005 371.736 260.02 371.969 260.049C372.206 260.079 372.384 260.119 372.502 260.17L372.344 261.319C372.115 261.268 371.897 261.232 371.69 261.211C371.487 261.186 371.273 261.173 371.049 261.173C370.761 261.173 370.501 261.209 370.268 261.281C370.035 261.348 369.832 261.45 369.659 261.585C369.502 261.704 369.365 261.85 369.246 262.023C369.132 262.193 369.037 262.383 368.96 262.595V267H367.78V260.132H368.897L368.948 261.052L368.954 261.224C369.233 260.847 369.568 260.551 369.957 260.335C370.351 260.115 370.797 260.005 371.296 260.005ZM376.965 266.238C376.965 265.989 377.041 265.775 377.193 265.597C377.346 265.419 377.576 265.331 377.885 265.331C378.19 265.331 378.421 265.419 378.577 265.597C378.738 265.771 378.818 265.984 378.818 266.238C378.818 266.488 378.738 266.697 378.577 266.867C378.416 267.036 378.186 267.121 377.885 267.121C377.581 267.121 377.35 267.036 377.193 266.867C377.041 266.693 376.965 266.484 376.965 266.238ZM376.965 260.678C376.965 260.428 377.041 260.214 377.193 260.037C377.346 259.859 377.576 259.77 377.885 259.77C378.19 259.77 378.421 259.859 378.577 260.037C378.738 260.21 378.818 260.424 378.818 260.678C378.818 260.927 378.738 261.137 378.577 261.306C378.416 261.475 378.186 261.56 377.885 261.56C377.581 261.56 377.35 261.475 377.193 261.306C377.041 261.133 376.965 260.923 376.965 260.678ZM447.176 260.678C447.176 260.428 447.252 260.214 447.405 260.037C447.557 259.859 447.788 259.77 448.097 259.77C448.401 259.77 448.632 259.859 448.789 260.037C448.949 260.21 449.03 260.424 449.03 260.678C449.03 260.927 448.949 261.137 448.789 261.306C448.628 261.475 448.397 261.56 448.097 261.56C447.792 261.56 447.561 261.475 447.405 261.306C447.252 261.133 447.176 260.923 447.176 260.678ZM448.687 266.727C448.687 267.15 448.588 267.582 448.389 268.022C448.19 268.462 447.921 268.832 447.583 269.133L446.853 268.733C447.056 268.437 447.2 268.121 447.284 267.787C447.369 267.453 447.411 267.106 447.411 266.746V265.61H448.687V266.727ZM274.05 288.593C274.308 288.585 274.524 288.513 274.698 288.377C274.871 288.242 275.011 288.069 275.117 287.857C275.218 287.65 275.29 287.415 275.333 287.152C275.379 286.894 275.402 286.634 275.402 286.372V285.299C275.402 284.965 275.451 284.656 275.548 284.372C275.65 284.089 275.804 283.843 276.012 283.636C276.122 283.526 276.244 283.426 276.38 283.337C276.52 283.249 276.672 283.17 276.837 283.103C276.668 283.035 276.511 282.954 276.367 282.861C276.228 282.768 276.105 282.665 275.999 282.55C275.796 282.339 275.646 282.093 275.548 281.814C275.451 281.53 275.402 281.224 275.402 280.894V279.814C275.402 279.556 275.388 279.296 275.358 279.034C275.333 278.771 275.275 278.534 275.187 278.323C275.093 278.115 274.958 277.944 274.78 277.809C274.603 277.673 274.361 277.601 274.057 277.593L274.184 276.863C274.594 276.875 274.945 276.962 275.237 277.123C275.534 277.284 275.777 277.493 275.967 277.751C276.183 278.043 276.338 278.371 276.431 278.735C276.528 279.099 276.577 279.459 276.577 279.814V280.894C276.577 281.147 276.6 281.372 276.646 281.566C276.697 281.757 276.771 281.922 276.869 282.062C277.008 282.26 277.201 282.406 277.446 282.5C277.696 282.588 277.994 282.633 278.341 282.633V283.553C278.037 283.557 277.77 283.596 277.542 283.667C277.317 283.735 277.133 283.843 276.989 283.991C276.85 284.135 276.746 284.315 276.678 284.531C276.611 284.747 276.577 285.003 276.577 285.299V286.372C276.577 286.71 276.53 287.051 276.437 287.394C276.344 287.741 276.2 288.056 276.005 288.339C275.806 288.623 275.557 288.856 275.256 289.038C274.956 289.22 274.598 289.315 274.184 289.323L274.05 288.593ZM274.05 308.593C274.308 308.585 274.524 308.513 274.698 308.377C274.871 308.242 275.011 308.069 275.117 307.857C275.218 307.65 275.29 307.415 275.333 307.152C275.379 306.894 275.402 306.634 275.402 306.372V305.299C275.402 304.965 275.451 304.656 275.548 304.372C275.65 304.089 275.804 303.843 276.012 303.636C276.122 303.526 276.244 303.426 276.38 303.337C276.52 303.249 276.672 303.17 276.837 303.103C276.668 303.035 276.511 302.954 276.367 302.861C276.228 302.768 276.105 302.665 275.999 302.55C275.796 302.339 275.646 302.093 275.548 301.814C275.451 301.53 275.402 301.224 275.402 300.894V299.814C275.402 299.556 275.388 299.296 275.358 299.034C275.333 298.771 275.275 298.534 275.187 298.323C275.093 298.115 274.958 297.944 274.78 297.809C274.603 297.673 274.361 297.601 274.057 297.593L274.184 296.863C274.594 296.875 274.945 296.962 275.237 297.123C275.534 297.284 275.777 297.493 275.967 297.751C276.183 298.043 276.338 298.371 276.431 298.735C276.528 299.099 276.577 299.459 276.577 299.814V300.894C276.577 301.147 276.6 301.372 276.646 301.566C276.697 301.757 276.771 301.922 276.869 302.062C277.008 302.26 277.201 302.406 277.446 302.5C277.696 302.588 277.994 302.633 278.341 302.633V303.553C278.037 303.557 277.77 303.596 277.542 303.667C277.317 303.735 277.133 303.843 276.989 303.991C276.85 304.135 276.746 304.315 276.678 304.531C276.611 304.747 276.577 305.003 276.577 305.299V306.372C276.577 306.71 276.53 307.051 276.437 307.394C276.344 307.741 276.2 308.056 276.005 308.339C275.806 308.623 275.557 308.856 275.256 309.038C274.956 309.22 274.598 309.315 274.184 309.323L274.05 308.593ZM274.05 328.593C274.308 328.585 274.524 328.513 274.698 328.377C274.871 328.242 275.011 328.069 275.117 327.857C275.218 327.65 275.29 327.415 275.333 327.152C275.379 326.894 275.402 326.634 275.402 326.372V325.299C275.402 324.965 275.451 324.656 275.548 324.372C275.65 324.089 275.804 323.843 276.012 323.636C276.122 323.526 276.244 323.426 276.38 323.337C276.52 323.249 276.672 323.17 276.837 323.103C276.668 323.035 276.511 322.954 276.367 322.861C276.228 322.768 276.105 322.665 275.999 322.55C275.796 322.339 275.646 322.093 275.548 321.814C275.451 321.53 275.402 321.224 275.402 320.894V319.814C275.402 319.556 275.388 319.296 275.358 319.034C275.333 318.771 275.275 318.534 275.187 318.323C275.093 318.115 274.958 317.944 274.78 317.809C274.603 317.673 274.361 317.601 274.057 317.593L274.184 316.863C274.594 316.875 274.945 316.962 275.237 317.123C275.534 317.284 275.777 317.493 275.967 317.751C276.183 318.043 276.338 318.371 276.431 318.735C276.528 319.099 276.577 319.459 276.577 319.814V320.894C276.577 321.147 276.6 321.372 276.646 321.566C276.697 321.757 276.771 321.922 276.869 322.062C277.008 322.26 277.201 322.406 277.446 322.5C277.696 322.588 277.994 322.633 278.341 322.633V323.553C278.037 323.557 277.77 323.596 277.542 323.667C277.317 323.735 277.133 323.843 276.989 323.991C276.85 324.135 276.746 324.315 276.678 324.531C276.611 324.747 276.577 325.003 276.577 325.299V326.372C276.577 326.71 276.53 327.051 276.437 327.394C276.344 327.741 276.2 328.056 276.005 328.339C275.806 328.623 275.557 328.856 275.256 329.038C274.956 329.22 274.598 329.315 274.184 329.323L274.05 328.593Z" fill="#333333"/>
<path d="M393.602 264.397H391.926L391.418 267H390.511L391.019 264.397H389.501V263.528H391.184L391.622 261.281H389.984V260.398H391.793L392.313 257.758H393.221L392.701 260.398H394.376L394.897 257.758H395.805L395.284 260.398H396.585V261.281H395.113L394.675 263.528H396.109V264.397H394.51L394.002 267H393.094L393.602 264.397ZM392.091 263.528H393.767L394.205 261.281H392.529L392.091 263.528ZM403.168 262.918H399.321V267H398.134V257.758H403.809V258.761H399.321V261.922H403.168V262.918ZM410.976 262.918H407.129V267H405.942V257.758H411.617V258.761H407.129V261.922H410.976V262.918ZM417.971 257.751V258.805H417.869C417.311 258.805 416.837 258.886 416.447 259.046C416.058 259.203 415.736 259.415 415.482 259.681C415.216 259.96 415.013 260.293 414.873 260.678C414.738 261.063 414.657 261.458 414.632 261.865C414.742 261.734 414.869 261.613 415.013 261.503C415.157 261.389 415.313 261.289 415.482 261.205C415.647 261.124 415.825 261.061 416.016 261.014C416.21 260.963 416.413 260.938 416.625 260.938C417.086 260.938 417.484 261.027 417.818 261.205C418.153 261.378 418.428 261.609 418.644 261.896C418.859 262.184 419.018 262.51 419.12 262.874C419.221 263.238 419.272 263.608 419.272 263.985C419.272 264.417 419.211 264.823 419.088 265.204C418.969 265.584 418.79 265.917 418.548 266.2C418.307 266.488 418.007 266.714 417.647 266.879C417.292 267.044 416.879 267.127 416.409 267.127C415.935 267.127 415.518 267.032 415.159 266.841C414.799 266.651 414.496 266.403 414.251 266.099C413.976 265.764 413.771 265.375 413.635 264.931C413.5 264.482 413.432 264.034 413.432 263.585V263.033C413.432 262.263 413.523 261.505 413.705 260.76C413.887 260.015 414.243 259.379 414.771 258.85C415.135 258.486 415.578 258.213 416.098 258.031C416.619 257.845 417.209 257.751 417.869 257.751H417.971ZM416.435 261.916C416.236 261.916 416.043 261.947 415.857 262.011C415.671 262.074 415.497 262.163 415.336 262.277C415.176 262.392 415.034 262.529 414.911 262.69C414.788 262.851 414.691 263.028 414.619 263.223V263.617C414.619 264.023 414.668 264.385 414.765 264.702C414.862 265.015 414.994 265.28 415.159 265.496C415.324 265.711 415.514 265.876 415.73 265.991C415.946 266.101 416.172 266.156 416.409 266.156C416.684 266.156 416.928 266.103 417.139 265.997C417.351 265.891 417.531 265.745 417.679 265.559C417.823 265.373 417.931 265.151 418.002 264.893C418.079 264.63 418.117 264.347 418.117 264.042C418.117 263.771 418.083 263.509 418.015 263.255C417.947 262.997 417.844 262.768 417.704 262.569C417.564 262.37 417.389 262.212 417.177 262.093C416.966 261.975 416.718 261.916 416.435 261.916ZM421.329 267V257.758H423.468C423.827 257.762 424.166 257.8 424.483 257.872C424.805 257.94 425.101 258.037 425.372 258.164C425.749 258.338 426.081 258.566 426.369 258.85C426.661 259.129 426.893 259.453 427.067 259.821C427.223 260.134 427.342 260.477 427.422 260.849C427.507 261.222 427.551 261.619 427.556 262.042V262.722C427.556 263.128 427.515 263.513 427.435 263.877C427.359 264.241 427.247 264.575 427.099 264.88C426.946 265.197 426.754 265.485 426.521 265.743C426.288 266.001 426.028 266.221 425.74 266.403C425.436 266.594 425.091 266.74 424.706 266.841C424.325 266.943 423.912 266.996 423.468 267H421.329ZM422.522 258.723V266.042H423.468C423.806 266.037 424.113 265.995 424.388 265.915C424.667 265.834 424.915 265.72 425.131 265.572C425.359 265.419 425.556 265.233 425.721 265.013C425.89 264.789 426.024 264.539 426.121 264.264C426.206 264.04 426.269 263.799 426.312 263.541C426.354 263.278 426.377 263.005 426.381 262.722V262.03C426.377 261.742 426.352 261.467 426.305 261.205C426.263 260.938 426.197 260.69 426.108 260.462C425.994 260.166 425.84 259.899 425.645 259.662C425.455 259.421 425.22 259.226 424.94 259.078C424.742 258.968 424.519 258.883 424.274 258.824C424.028 258.761 423.76 258.727 423.468 258.723H422.522ZM433.586 257.751V258.805H433.484C432.926 258.805 432.452 258.886 432.062 259.046C431.673 259.203 431.352 259.415 431.098 259.681C430.831 259.96 430.628 260.293 430.488 260.678C430.353 261.063 430.272 261.458 430.247 261.865C430.357 261.734 430.484 261.613 430.628 261.503C430.772 261.389 430.928 261.289 431.098 261.205C431.263 261.124 431.44 261.061 431.631 261.014C431.826 260.963 432.029 260.938 432.24 260.938C432.701 260.938 433.099 261.027 433.434 261.205C433.768 261.378 434.043 261.609 434.259 261.896C434.475 262.184 434.633 262.51 434.735 262.874C434.836 263.238 434.887 263.608 434.887 263.985C434.887 264.417 434.826 264.823 434.703 265.204C434.585 265.584 434.405 265.917 434.164 266.2C433.922 266.488 433.622 266.714 433.262 266.879C432.907 267.044 432.494 267.127 432.024 267.127C431.55 267.127 431.134 267.032 430.774 266.841C430.414 266.651 430.112 266.403 429.866 266.099C429.591 265.764 429.386 265.375 429.25 264.931C429.115 264.482 429.047 264.034 429.047 263.585V263.033C429.047 262.263 429.138 261.505 429.32 260.76C429.502 260.015 429.858 259.379 430.387 258.85C430.751 258.486 431.193 258.213 431.713 258.031C432.234 257.845 432.824 257.751 433.484 257.751H433.586ZM432.05 261.916C431.851 261.916 431.658 261.947 431.472 262.011C431.286 262.074 431.112 262.163 430.952 262.277C430.791 262.392 430.649 262.529 430.526 262.69C430.404 262.851 430.306 263.028 430.234 263.223V263.617C430.234 264.023 430.283 264.385 430.38 264.702C430.478 265.015 430.609 265.28 430.774 265.496C430.939 265.711 431.129 265.876 431.345 265.991C431.561 266.101 431.787 266.156 432.024 266.156C432.299 266.156 432.543 266.103 432.754 265.997C432.966 265.891 433.146 265.745 433.294 265.559C433.438 265.373 433.546 265.151 433.618 264.893C433.694 264.63 433.732 264.347 433.732 264.042C433.732 263.771 433.698 263.509 433.63 263.255C433.563 262.997 433.459 262.768 433.319 262.569C433.18 262.37 433.004 262.212 432.792 262.093C432.581 261.975 432.333 261.916 432.05 261.916ZM436.944 267V257.758H439.083C439.443 257.762 439.781 257.8 440.099 257.872C440.42 257.94 440.716 258.037 440.987 258.164C441.364 258.338 441.696 258.566 441.984 258.85C442.276 259.129 442.509 259.453 442.682 259.821C442.839 260.134 442.957 260.477 443.038 260.849C443.122 261.222 443.167 261.619 443.171 262.042V262.722C443.171 263.128 443.131 263.513 443.05 263.877C442.974 264.241 442.862 264.575 442.714 264.88C442.562 265.197 442.369 265.485 442.136 265.743C441.903 266.001 441.643 266.221 441.355 266.403C441.051 266.594 440.706 266.74 440.321 266.841C439.94 266.943 439.527 266.996 439.083 267H436.944ZM438.137 258.723V266.042H439.083C439.422 266.037 439.728 265.995 440.003 265.915C440.283 265.834 440.53 265.72 440.746 265.572C440.975 265.419 441.171 265.233 441.336 265.013C441.506 264.789 441.639 264.539 441.736 264.264C441.821 264.04 441.884 263.799 441.927 263.541C441.969 263.278 441.992 263.005 441.997 262.722V262.03C441.992 261.742 441.967 261.467 441.92 261.205C441.878 260.938 441.812 260.69 441.724 260.462C441.609 260.166 441.455 259.899 441.26 259.662C441.07 259.421 440.835 259.226 440.556 259.078C440.357 258.968 440.135 258.883 439.889 258.824C439.644 258.761 439.375 258.727 439.083 258.723H438.137Z" fill="#F45C59"/>
<path d="M256 176H616H256ZM617 340C617 344.971 612.971 349 608 349H256V347H608C611.866 347 615 343.866 615 340H617ZM256 348V176V348ZM617 176V340C617 344.971 612.971 349 608 349V347C611.866 347 615 343.866 615 340V176H617Z" fill="#E6E6E6" mask="url(#path-16-inside-2_7296_85331)"/>
</g>
<rect x="0.5" y="0.5" width="831" height="487" rx="15.5" stroke="#E6E6E6"/>
<defs>
<clipPath id="clip0_7296_85331">
<path d="M216 148C216 143.582 219.582 140 224 140H608C612.418 140 616 143.582 616 148V340C616 344.418 612.418 348 608 348H224C219.582 348 216 344.418 216 340V148Z" fill="white"/>
</clipPath>
</defs>
</svg>
