<svg width="800" height="348" viewBox="0 0 800 348" fill="none" xmlns="http://www.w3.org/2000/svg">
<rect x="0.5" y="0.5" width="799" height="347" rx="7.5" fill="white"/>
<path d="M265.764 55.5425V57H260.41V55.5425H265.764ZM260.922 46.3359V57H259.084V46.3359H260.922ZM266.672 53.1255V52.957C266.672 52.3857 266.755 51.856 266.921 51.3677C267.087 50.8745 267.326 50.4473 267.639 50.0859C267.956 49.7197 268.342 49.4365 268.796 49.2363C269.255 49.0312 269.772 48.9287 270.349 48.9287C270.93 48.9287 271.447 49.0312 271.901 49.2363C272.36 49.4365 272.749 49.7197 273.066 50.0859C273.383 50.4473 273.625 50.8745 273.791 51.3677C273.957 51.856 274.04 52.3857 274.04 52.957V53.1255C274.04 53.6968 273.957 54.2266 273.791 54.7148C273.625 55.2031 273.383 55.6304 273.066 55.9966C272.749 56.3579 272.363 56.6411 271.909 56.8462C271.455 57.0464 270.939 57.1465 270.363 57.1465C269.782 57.1465 269.262 57.0464 268.803 56.8462C268.349 56.6411 267.963 56.3579 267.646 55.9966C267.329 55.6304 267.087 55.2031 266.921 54.7148C266.755 54.2266 266.672 53.6968 266.672 53.1255ZM268.437 52.957V53.1255C268.437 53.4819 268.474 53.8188 268.547 54.1362C268.62 54.4536 268.735 54.7319 268.891 54.9712C269.047 55.2104 269.248 55.3984 269.492 55.5352C269.736 55.6719 270.026 55.7402 270.363 55.7402C270.69 55.7402 270.974 55.6719 271.213 55.5352C271.457 55.3984 271.657 55.2104 271.813 54.9712C271.97 54.7319 272.084 54.4536 272.158 54.1362C272.236 53.8188 272.275 53.4819 272.275 53.1255V52.957C272.275 52.6055 272.236 52.2734 272.158 51.9609C272.084 51.6436 271.967 51.3628 271.806 51.1187C271.65 50.8745 271.45 50.6841 271.206 50.5474C270.966 50.4058 270.681 50.335 270.349 50.335C270.017 50.335 269.729 50.4058 269.484 50.5474C269.245 50.6841 269.047 50.8745 268.891 51.1187C268.735 51.3628 268.62 51.6436 268.547 51.9609C268.474 52.2734 268.437 52.6055 268.437 52.957ZM279.987 55.4106V51.6313C279.987 51.3481 279.936 51.104 279.833 50.8989C279.731 50.6938 279.575 50.5352 279.365 50.4229C279.16 50.3105 278.901 50.2544 278.588 50.2544C278.3 50.2544 278.051 50.3032 277.841 50.4009C277.631 50.4985 277.468 50.6304 277.351 50.7964C277.233 50.9624 277.175 51.1504 277.175 51.3604H275.417C275.417 51.0479 275.493 50.7451 275.644 50.4521C275.795 50.1592 276.015 49.8979 276.303 49.6685C276.591 49.439 276.936 49.2583 277.336 49.1265C277.736 48.9946 278.186 48.9287 278.684 48.9287C279.279 48.9287 279.807 49.0288 280.266 49.229C280.729 49.4292 281.093 49.7319 281.357 50.1372C281.625 50.5376 281.76 51.0405 281.76 51.646V55.1689C281.76 55.5303 281.784 55.855 281.833 56.1431C281.887 56.4263 281.962 56.6729 282.06 56.8828V57H280.251C280.168 56.8096 280.102 56.5679 280.053 56.2749C280.009 55.9771 279.987 55.689 279.987 55.4106ZM280.244 52.1807L280.258 53.272H278.991C278.664 53.272 278.376 53.3037 278.127 53.3672C277.878 53.4258 277.67 53.5137 277.504 53.6309C277.338 53.748 277.214 53.8896 277.131 54.0557C277.048 54.2217 277.006 54.4097 277.006 54.6196C277.006 54.8296 277.055 55.0225 277.153 55.1982C277.25 55.3691 277.392 55.5034 277.578 55.6011C277.768 55.6987 277.998 55.7476 278.266 55.7476C278.627 55.7476 278.942 55.6743 279.211 55.5278C279.484 55.3765 279.699 55.1934 279.855 54.9785C280.012 54.7588 280.095 54.5513 280.104 54.356L280.676 55.1396C280.617 55.3398 280.517 55.5547 280.375 55.7842C280.234 56.0137 280.048 56.2334 279.819 56.4434C279.594 56.6484 279.323 56.8169 279.006 56.9487C278.693 57.0806 278.332 57.1465 277.922 57.1465C277.404 57.1465 276.943 57.0439 276.538 56.8389C276.132 56.6289 275.815 56.3481 275.585 55.9966C275.356 55.6401 275.241 55.2373 275.241 54.7881C275.241 54.3682 275.319 53.9971 275.476 53.6748C275.637 53.3477 275.871 53.0742 276.179 52.8545C276.491 52.6348 276.872 52.4688 277.321 52.3564C277.771 52.2393 278.283 52.1807 278.859 52.1807H280.244ZM288.439 55.3594V45.75H290.212V57H288.608L288.439 55.3594ZM283.283 53.1255V52.9717C283.283 52.3711 283.354 51.8242 283.496 51.3311C283.637 50.833 283.842 50.4058 284.111 50.0493C284.379 49.688 284.707 49.4121 285.092 49.2217C285.478 49.0264 285.913 48.9287 286.396 48.9287C286.875 48.9287 287.294 49.0215 287.656 49.207C288.017 49.3926 288.325 49.6587 288.579 50.0054C288.833 50.3472 289.035 50.7573 289.187 51.2358C289.338 51.7095 289.445 52.2368 289.509 52.8179V53.3086C289.445 53.875 289.338 54.3926 289.187 54.8613C289.035 55.3301 288.833 55.7354 288.579 56.0771C288.325 56.4189 288.015 56.6826 287.648 56.8682C287.287 57.0537 286.865 57.1465 286.381 57.1465C285.903 57.1465 285.471 57.0464 285.085 56.8462C284.704 56.646 284.379 56.3652 284.111 56.0039C283.842 55.6426 283.637 55.2178 283.496 54.7295C283.354 54.2363 283.283 53.7017 283.283 53.1255ZM285.048 52.9717V53.1255C285.048 53.4868 285.08 53.8237 285.144 54.1362C285.212 54.4487 285.317 54.7246 285.458 54.9639C285.6 55.1982 285.783 55.3838 286.008 55.5205C286.237 55.6523 286.511 55.7183 286.828 55.7183C287.229 55.7183 287.558 55.6304 287.817 55.4546C288.076 55.2788 288.278 55.042 288.425 54.7441C288.576 54.4414 288.679 54.1045 288.732 53.7334V52.4077C288.703 52.1196 288.642 51.8511 288.549 51.6021C288.461 51.353 288.342 51.1357 288.19 50.9502C288.039 50.7598 287.851 50.6133 287.626 50.5107C287.407 50.4033 287.146 50.3496 286.843 50.3496C286.521 50.3496 286.247 50.418 286.022 50.5547C285.798 50.6914 285.612 50.8794 285.466 51.1187C285.324 51.3579 285.219 51.6362 285.151 51.9536C285.083 52.271 285.048 52.6104 285.048 52.9717ZM293.947 49.0752V57H292.175V49.0752H293.947ZM292.058 46.9951C292.058 46.7266 292.146 46.5044 292.321 46.3286C292.502 46.1479 292.751 46.0576 293.068 46.0576C293.381 46.0576 293.627 46.1479 293.808 46.3286C293.989 46.5044 294.079 46.7266 294.079 46.9951C294.079 47.2588 293.989 47.4785 293.808 47.6543C293.627 47.8301 293.381 47.918 293.068 47.918C292.751 47.918 292.502 47.8301 292.321 47.6543C292.146 47.4785 292.058 47.2588 292.058 46.9951ZM297.631 50.7671V57H295.866V49.0752H297.529L297.631 50.7671ZM297.316 52.7446L296.745 52.7373C296.75 52.1758 296.828 51.6606 296.979 51.1919C297.136 50.7231 297.351 50.3203 297.624 49.9834C297.902 49.6465 298.234 49.3877 298.62 49.207C299.006 49.0215 299.436 48.9287 299.909 48.9287C300.29 48.9287 300.634 48.9824 300.942 49.0898C301.254 49.1924 301.521 49.3608 301.74 49.5952C301.965 49.8296 302.136 50.1348 302.253 50.5107C302.37 50.8818 302.429 51.3384 302.429 51.8804V57H300.656V51.873C300.656 51.4922 300.6 51.1919 300.488 50.9722C300.38 50.7476 300.222 50.5889 300.012 50.4961C299.807 50.3984 299.55 50.3496 299.243 50.3496C298.94 50.3496 298.669 50.4131 298.43 50.54C298.19 50.667 297.988 50.8403 297.822 51.0601C297.661 51.2798 297.536 51.5337 297.448 51.8218C297.36 52.1099 297.316 52.4175 297.316 52.7446ZM309.306 49.0752H310.91V56.7803C310.91 57.4932 310.759 58.0986 310.456 58.5967C310.153 59.0947 309.731 59.4731 309.189 59.7319C308.647 59.9956 308.02 60.1274 307.307 60.1274C307.004 60.1274 306.667 60.0835 306.296 59.9956C305.93 59.9077 305.573 59.7661 305.227 59.5708C304.885 59.3804 304.599 59.1289 304.37 58.8164L305.197 57.7764C305.48 58.1133 305.793 58.3599 306.135 58.5161C306.477 58.6724 306.835 58.7505 307.211 58.7505C307.617 58.7505 307.961 58.6748 308.244 58.5234C308.532 58.377 308.754 58.1597 308.911 57.8716C309.067 57.5835 309.145 57.2319 309.145 56.8169V50.8696L309.306 49.0752ZM303.923 53.1255V52.9717C303.923 52.3711 303.996 51.8242 304.143 51.3311C304.289 50.833 304.499 50.4058 304.772 50.0493C305.046 49.688 305.378 49.4121 305.769 49.2217C306.159 49.0264 306.601 48.9287 307.094 48.9287C307.607 48.9287 308.044 49.0215 308.405 49.207C308.771 49.3926 309.077 49.6587 309.321 50.0054C309.565 50.3472 309.755 50.7573 309.892 51.2358C310.034 51.7095 310.139 52.2368 310.207 52.8179V53.3086C310.144 53.875 310.036 54.3926 309.885 54.8613C309.733 55.3301 309.533 55.7354 309.284 56.0771C309.035 56.4189 308.728 56.6826 308.361 56.8682C308 57.0537 307.573 57.1465 307.08 57.1465C306.596 57.1465 306.159 57.0464 305.769 56.8462C305.383 56.646 305.051 56.3652 304.772 56.0039C304.499 55.6426 304.289 55.2178 304.143 54.7295C303.996 54.2363 303.923 53.7017 303.923 53.1255ZM305.688 52.9717V53.1255C305.688 53.4868 305.722 53.8237 305.791 54.1362C305.864 54.4487 305.974 54.7246 306.12 54.9639C306.271 55.1982 306.462 55.3838 306.691 55.5205C306.926 55.6523 307.202 55.7183 307.519 55.7183C307.934 55.7183 308.273 55.6304 308.537 55.4546C308.806 55.2788 309.011 55.042 309.152 54.7441C309.299 54.4414 309.401 54.1045 309.46 53.7334V52.4077C309.431 52.1196 309.37 51.8511 309.277 51.6021C309.189 51.353 309.069 51.1357 308.918 50.9502C308.767 50.7598 308.576 50.6133 308.347 50.5107C308.117 50.4033 307.846 50.3496 307.534 50.3496C307.216 50.3496 306.94 50.418 306.706 50.5547C306.472 50.6914 306.279 50.8794 306.127 51.1187C305.981 51.3579 305.871 51.6362 305.798 51.9536C305.725 52.271 305.688 52.6104 305.688 52.9717ZM319.75 57H317.473L317.487 55.5425H319.75C320.41 55.5425 320.961 55.3984 321.406 55.1104C321.855 54.8223 322.192 54.4097 322.417 53.8726C322.646 53.3354 322.761 52.6958 322.761 51.9536V51.375C322.761 50.7988 322.695 50.2886 322.563 49.8442C322.436 49.3999 322.246 49.0264 321.992 48.7236C321.743 48.4209 321.435 48.1914 321.069 48.0352C320.708 47.8789 320.29 47.8008 319.816 47.8008H317.429V46.3359H319.816C320.524 46.3359 321.171 46.4556 321.757 46.6948C322.343 46.9292 322.849 47.2686 323.273 47.7129C323.703 48.1572 324.033 48.6895 324.262 49.3096C324.492 49.9297 324.606 50.623 324.606 51.3896V51.9536C324.606 52.7202 324.492 53.4136 324.262 54.0337C324.033 54.6538 323.703 55.186 323.273 55.6304C322.844 56.0698 322.331 56.4092 321.735 56.6484C321.145 56.8828 320.483 57 319.75 57ZM318.491 46.3359V57H316.652V46.3359H318.491ZM330.744 55.4106V51.6313C330.744 51.3481 330.693 51.104 330.59 50.8989C330.488 50.6938 330.332 50.5352 330.122 50.4229C329.917 50.3105 329.658 50.2544 329.345 50.2544C329.057 50.2544 328.808 50.3032 328.598 50.4009C328.388 50.4985 328.225 50.6304 328.107 50.7964C327.99 50.9624 327.932 51.1504 327.932 51.3604H326.174C326.174 51.0479 326.25 50.7451 326.401 50.4521C326.552 50.1592 326.772 49.8979 327.06 49.6685C327.348 49.439 327.692 49.2583 328.093 49.1265C328.493 48.9946 328.942 48.9287 329.44 48.9287C330.036 48.9287 330.563 49.0288 331.022 49.229C331.486 49.4292 331.85 49.7319 332.114 50.1372C332.382 50.5376 332.517 51.0405 332.517 51.646V55.1689C332.517 55.5303 332.541 55.855 332.59 56.1431C332.644 56.4263 332.719 56.6729 332.817 56.8828V57H331.008C330.925 56.8096 330.859 56.5679 330.81 56.2749C330.766 55.9771 330.744 55.689 330.744 55.4106ZM331 52.1807L331.015 53.272H329.748C329.421 53.272 329.133 53.3037 328.884 53.3672C328.635 53.4258 328.427 53.5137 328.261 53.6309C328.095 53.748 327.971 53.8896 327.888 54.0557C327.805 54.2217 327.763 54.4097 327.763 54.6196C327.763 54.8296 327.812 55.0225 327.91 55.1982C328.007 55.3691 328.149 55.5034 328.334 55.6011C328.525 55.6987 328.754 55.7476 329.023 55.7476C329.384 55.7476 329.699 55.6743 329.968 55.5278C330.241 55.3765 330.456 55.1934 330.612 54.9785C330.769 54.7588 330.852 54.5513 330.861 54.356L331.433 55.1396C331.374 55.3398 331.274 55.5547 331.132 55.7842C330.991 56.0137 330.805 56.2334 330.576 56.4434C330.351 56.6484 330.08 56.8169 329.763 56.9487C329.45 57.0806 329.089 57.1465 328.679 57.1465C328.161 57.1465 327.7 57.0439 327.294 56.8389C326.889 56.6289 326.572 56.3481 326.342 55.9966C326.113 55.6401 325.998 55.2373 325.998 54.7881C325.998 54.3682 326.076 53.9971 326.232 53.6748C326.394 53.3477 326.628 53.0742 326.936 52.8545C327.248 52.6348 327.629 52.4688 328.078 52.3564C328.527 52.2393 329.04 52.1807 329.616 52.1807H331ZM337.995 49.0752V50.3643H333.527V49.0752H337.995ZM334.816 47.1343H336.582V54.8101C336.582 55.0542 336.616 55.2422 336.684 55.374C336.757 55.501 336.857 55.5864 336.984 55.6304C337.111 55.6743 337.26 55.6963 337.431 55.6963C337.553 55.6963 337.67 55.689 337.783 55.6743C337.895 55.6597 337.985 55.645 338.054 55.6304L338.061 56.978C337.915 57.022 337.744 57.061 337.548 57.0952C337.358 57.1294 337.138 57.1465 336.889 57.1465C336.484 57.1465 336.125 57.0757 335.812 56.9341C335.5 56.7876 335.256 56.5508 335.08 56.2236C334.904 55.8965 334.816 55.4619 334.816 54.9199V47.1343ZM343.825 55.4106V51.6313C343.825 51.3481 343.774 51.104 343.671 50.8989C343.569 50.6938 343.413 50.5352 343.203 50.4229C342.998 50.3105 342.739 50.2544 342.426 50.2544C342.138 50.2544 341.889 50.3032 341.679 50.4009C341.469 50.4985 341.306 50.6304 341.188 50.7964C341.071 50.9624 341.013 51.1504 341.013 51.3604H339.255C339.255 51.0479 339.331 50.7451 339.482 50.4521C339.633 50.1592 339.853 49.8979 340.141 49.6685C340.429 49.439 340.773 49.2583 341.174 49.1265C341.574 48.9946 342.023 48.9287 342.521 48.9287C343.117 48.9287 343.645 49.0288 344.104 49.229C344.567 49.4292 344.931 49.7319 345.195 50.1372C345.463 50.5376 345.598 51.0405 345.598 51.646V55.1689C345.598 55.5303 345.622 55.855 345.671 56.1431C345.725 56.4263 345.8 56.6729 345.898 56.8828V57H344.089C344.006 56.8096 343.94 56.5679 343.891 56.2749C343.847 55.9771 343.825 55.689 343.825 55.4106ZM344.082 52.1807L344.096 53.272H342.829C342.502 53.272 342.214 53.3037 341.965 53.3672C341.716 53.4258 341.508 53.5137 341.342 53.6309C341.176 53.748 341.052 53.8896 340.969 54.0557C340.886 54.2217 340.844 54.4097 340.844 54.6196C340.844 54.8296 340.893 55.0225 340.991 55.1982C341.088 55.3691 341.23 55.5034 341.416 55.6011C341.606 55.6987 341.835 55.7476 342.104 55.7476C342.465 55.7476 342.78 55.6743 343.049 55.5278C343.322 55.3765 343.537 55.1934 343.693 54.9785C343.85 54.7588 343.933 54.5513 343.942 54.356L344.514 55.1396C344.455 55.3398 344.355 55.5547 344.213 55.7842C344.072 56.0137 343.886 56.2334 343.657 56.4434C343.432 56.6484 343.161 56.8169 342.844 56.9487C342.531 57.0806 342.17 57.1465 341.76 57.1465C341.242 57.1465 340.781 57.0439 340.375 56.8389C339.97 56.6289 339.653 56.3481 339.423 55.9966C339.194 55.6401 339.079 55.2373 339.079 54.7881C339.079 54.3682 339.157 53.9971 339.313 53.6748C339.475 53.3477 339.709 53.0742 340.017 52.8545C340.329 52.6348 340.71 52.4688 341.159 52.3564C341.608 52.2393 342.121 52.1807 342.697 52.1807H344.082ZM347.517 56.1211C347.517 55.8477 347.609 55.6182 347.795 55.4326C347.98 55.2422 348.232 55.147 348.549 55.147C348.872 55.147 349.123 55.2422 349.304 55.4326C349.489 55.6182 349.582 55.8477 349.582 56.1211C349.582 56.3945 349.489 56.624 349.304 56.8096C349.123 56.9951 348.872 57.0879 348.549 57.0879C348.232 57.0879 347.98 56.9951 347.795 56.8096C347.609 56.624 347.517 56.3945 347.517 56.1211ZM351.691 56.1211C351.691 55.8477 351.784 55.6182 351.97 55.4326C352.155 55.2422 352.407 55.147 352.724 55.147C353.046 55.147 353.298 55.2422 353.479 55.4326C353.664 55.6182 353.757 55.8477 353.757 56.1211C353.757 56.3945 353.664 56.624 353.479 56.8096C353.298 56.9951 353.046 57.0879 352.724 57.0879C352.407 57.0879 352.155 56.9951 351.97 56.8096C351.784 56.624 351.691 56.3945 351.691 56.1211ZM355.866 56.1211C355.866 55.8477 355.959 55.6182 356.145 55.4326C356.33 55.2422 356.582 55.147 356.899 55.147C357.221 55.147 357.473 55.2422 357.653 55.4326C357.839 55.6182 357.932 55.8477 357.932 56.1211C357.932 56.3945 357.839 56.624 357.653 56.8096C357.473 56.9951 357.221 57.0879 356.899 57.0879C356.582 57.0879 356.33 56.9951 356.145 56.8096C355.959 56.624 355.866 56.3945 355.866 56.1211Z" fill="#1A1A1A"/>
<path d="M629.018 51.9243L627.934 51.646L628.469 46.3359H633.94V47.5884H629.619L629.296 50.4888C629.492 50.3765 629.738 50.2715 630.036 50.1738C630.339 50.0762 630.686 50.0273 631.076 50.0273C631.569 50.0273 632.011 50.1128 632.402 50.2837C632.792 50.4497 633.125 50.689 633.398 51.0015C633.676 51.314 633.889 51.6899 634.035 52.1294C634.182 52.5688 634.255 53.0596 634.255 53.6016C634.255 54.1143 634.184 54.5854 634.042 55.0151C633.906 55.4448 633.698 55.8208 633.42 56.1431C633.142 56.4604 632.79 56.707 632.365 56.8828C631.945 57.0586 631.45 57.1465 630.878 57.1465C630.449 57.1465 630.041 57.0879 629.655 56.9707C629.274 56.8486 628.933 56.6655 628.63 56.4214C628.332 56.1724 628.088 55.8647 627.897 55.4985C627.712 55.1274 627.595 54.6929 627.546 54.1948H628.835C628.894 54.5952 629.011 54.9321 629.187 55.2056C629.362 55.479 629.592 55.6865 629.875 55.8281C630.163 55.9648 630.498 56.0332 630.878 56.0332C631.201 56.0332 631.486 55.9771 631.735 55.8647C631.984 55.7524 632.194 55.5913 632.365 55.3813C632.536 55.1714 632.666 54.9175 632.753 54.6196C632.846 54.3218 632.893 53.9873 632.893 53.6162C632.893 53.2793 632.846 52.9668 632.753 52.6787C632.661 52.3906 632.521 52.1392 632.336 51.9243C632.155 51.7095 631.933 51.5435 631.669 51.4263C631.406 51.3042 631.103 51.2432 630.761 51.2432C630.307 51.2432 629.963 51.3042 629.729 51.4263C629.499 51.5483 629.262 51.7144 629.018 51.9243ZM642.436 50.8184V52.4443C642.436 53.3184 642.358 54.0557 642.202 54.6562C642.045 55.2568 641.821 55.7402 641.528 56.1064C641.235 56.4727 640.881 56.7388 640.466 56.9048C640.056 57.0659 639.592 57.1465 639.074 57.1465C638.664 57.1465 638.286 57.0952 637.939 56.9927C637.592 56.8901 637.28 56.7266 637.001 56.502C636.728 56.2725 636.494 55.9746 636.298 55.6084C636.103 55.2422 635.954 54.7979 635.852 54.2754C635.749 53.7529 635.698 53.1426 635.698 52.4443V50.8184C635.698 49.9443 635.776 49.2119 635.932 48.6211C636.093 48.0303 636.32 47.5566 636.613 47.2002C636.906 46.8389 637.258 46.5801 637.668 46.4238C638.083 46.2676 638.547 46.1895 639.06 46.1895C639.475 46.1895 639.855 46.2407 640.202 46.3433C640.554 46.4409 640.866 46.5996 641.14 46.8193C641.413 47.0342 641.645 47.3223 641.835 47.6836C642.031 48.04 642.18 48.4771 642.282 48.9946C642.385 49.5122 642.436 50.1201 642.436 50.8184ZM641.074 52.6641V50.5913C641.074 50.1128 641.044 49.6929 640.986 49.3315C640.932 48.9653 640.852 48.6528 640.744 48.394C640.637 48.1353 640.5 47.9253 640.334 47.7642C640.173 47.603 639.985 47.4858 639.77 47.4126C639.56 47.3345 639.323 47.2954 639.06 47.2954C638.737 47.2954 638.452 47.3564 638.203 47.4785C637.954 47.5957 637.744 47.7837 637.573 48.0425C637.407 48.3013 637.28 48.6406 637.192 49.0605C637.104 49.4805 637.06 49.9907 637.06 50.5913V52.6641C637.06 53.1426 637.087 53.5649 637.141 53.9312C637.199 54.2974 637.285 54.6147 637.397 54.8833C637.509 55.147 637.646 55.3643 637.807 55.5352C637.968 55.7061 638.154 55.833 638.364 55.916C638.579 55.9941 638.815 56.0332 639.074 56.0332C639.406 56.0332 639.697 55.9697 639.946 55.8428C640.195 55.7158 640.402 55.5181 640.568 55.2495C640.739 54.9761 640.866 54.627 640.949 54.2021C641.032 53.7725 641.074 53.2598 641.074 52.6641ZM647.783 48.9507V48.3867C647.783 47.9814 647.871 47.6128 648.046 47.2808C648.222 46.9487 648.474 46.6826 648.801 46.4824C649.128 46.2822 649.516 46.1821 649.965 46.1821C650.424 46.1821 650.815 46.2822 651.137 46.4824C651.464 46.6826 651.716 46.9487 651.892 47.2808C652.067 47.6128 652.155 47.9814 652.155 48.3867V48.9507C652.155 49.3462 652.067 49.71 651.892 50.042C651.721 50.374 651.472 50.6401 651.145 50.8403C650.822 51.0405 650.434 51.1406 649.98 51.1406C649.526 51.1406 649.133 51.0405 648.801 50.8403C648.474 50.6401 648.222 50.374 648.046 50.042C647.871 49.71 647.783 49.3462 647.783 48.9507ZM648.801 48.3867V48.9507C648.801 49.1753 648.842 49.3877 648.925 49.5879C649.013 49.7881 649.145 49.9517 649.321 50.0786C649.497 50.2007 649.716 50.2617 649.98 50.2617C650.244 50.2617 650.461 50.2007 650.632 50.0786C650.803 49.9517 650.93 49.7881 651.013 49.5879C651.096 49.3877 651.137 49.1753 651.137 48.9507V48.3867C651.137 48.1572 651.093 47.9424 651.005 47.7422C650.922 47.5371 650.793 47.3735 650.617 47.2515C650.446 47.1245 650.229 47.061 649.965 47.061C649.707 47.061 649.489 47.1245 649.313 47.2515C649.143 47.3735 649.013 47.5371 648.925 47.7422C648.842 47.9424 648.801 48.1572 648.801 48.3867ZM652.976 54.9565V54.3853C652.976 53.9849 653.063 53.6187 653.239 53.2866C653.415 52.9546 653.667 52.6885 653.994 52.4883C654.321 52.2881 654.709 52.188 655.158 52.188C655.617 52.188 656.008 52.2881 656.33 52.4883C656.657 52.6885 656.909 52.9546 657.084 53.2866C657.26 53.6187 657.348 53.9849 657.348 54.3853V54.9565C657.348 55.3569 657.26 55.7231 657.084 56.0552C656.914 56.3872 656.665 56.6533 656.337 56.8535C656.015 57.0537 655.627 57.1538 655.173 57.1538C654.719 57.1538 654.328 57.0537 654.001 56.8535C653.674 56.6533 653.42 56.3872 653.239 56.0552C653.063 55.7231 652.976 55.3569 652.976 54.9565ZM653.994 54.3853V54.9565C653.994 55.1812 654.035 55.396 654.118 55.6011C654.206 55.8013 654.338 55.9648 654.514 56.0918C654.689 56.2139 654.909 56.2749 655.173 56.2749C655.437 56.2749 655.654 56.2139 655.825 56.0918C656 55.9648 656.13 55.8013 656.213 55.6011C656.296 55.4009 656.337 55.186 656.337 54.9565V54.3853C656.337 54.1558 656.293 53.9409 656.206 53.7407C656.123 53.5405 655.993 53.3794 655.817 53.2573C655.646 53.1304 655.427 53.0669 655.158 53.0669C654.899 53.0669 654.682 53.1304 654.506 53.2573C654.335 53.3794 654.206 53.5405 654.118 53.7407C654.035 53.9409 653.994 54.1558 653.994 54.3853ZM655.495 47.8521L650.288 56.187L649.526 55.7036L654.733 47.3687L655.495 47.8521Z" fill="#505050"/>
<rect x="258" y="72" width="400" height="4" rx="2" fill="#F2F2F2"/>
<rect x="258" y="72" width="220" height="4" fill="#286EF1"/>
<path d="M442.383 105.528H444.214C444.155 106.227 443.96 106.849 443.628 107.396C443.296 107.938 442.83 108.365 442.229 108.678C441.628 108.99 440.898 109.146 440.039 109.146C439.38 109.146 438.787 109.029 438.259 108.795C437.732 108.556 437.28 108.219 436.904 107.784C436.528 107.345 436.24 106.815 436.04 106.195C435.845 105.575 435.747 104.881 435.747 104.115V103.229C435.747 102.462 435.847 101.769 436.047 101.148C436.252 100.528 436.545 99.9985 436.926 99.5591C437.307 99.1147 437.764 98.7754 438.296 98.541C438.833 98.3066 439.436 98.1895 440.105 98.1895C440.955 98.1895 441.672 98.3457 442.258 98.6582C442.844 98.9707 443.298 99.4028 443.621 99.9546C443.948 100.506 444.148 101.139 444.221 101.852H442.39C442.341 101.393 442.234 101 442.068 100.672C441.907 100.345 441.667 100.096 441.35 99.9253C441.033 99.7495 440.618 99.6616 440.105 99.6616C439.685 99.6616 439.319 99.7397 439.006 99.896C438.694 100.052 438.433 100.282 438.223 100.584C438.013 100.887 437.854 101.261 437.747 101.705C437.644 102.145 437.593 102.647 437.593 103.214V104.115C437.593 104.652 437.639 105.14 437.732 105.58C437.83 106.014 437.976 106.388 438.171 106.7C438.372 107.013 438.625 107.254 438.933 107.425C439.241 107.596 439.609 107.682 440.039 107.682C440.562 107.682 440.984 107.599 441.306 107.433C441.633 107.267 441.88 107.025 442.046 106.708C442.217 106.385 442.329 105.992 442.383 105.528ZM450.176 107.411V103.631C450.176 103.348 450.125 103.104 450.022 102.899C449.919 102.694 449.763 102.535 449.553 102.423C449.348 102.311 449.089 102.254 448.777 102.254C448.489 102.254 448.24 102.303 448.03 102.401C447.82 102.499 447.656 102.63 447.539 102.796C447.422 102.962 447.363 103.15 447.363 103.36H445.605C445.605 103.048 445.681 102.745 445.833 102.452C445.984 102.159 446.204 101.898 446.492 101.668C446.78 101.439 447.124 101.258 447.524 101.126C447.925 100.995 448.374 100.929 448.872 100.929C449.468 100.929 449.995 101.029 450.454 101.229C450.918 101.429 451.282 101.732 451.545 102.137C451.814 102.538 451.948 103.041 451.948 103.646V107.169C451.948 107.53 451.973 107.855 452.021 108.143C452.075 108.426 452.151 108.673 452.249 108.883V109H450.439C450.356 108.81 450.291 108.568 450.242 108.275C450.198 107.977 450.176 107.689 450.176 107.411ZM450.432 104.181L450.447 105.272H449.18C448.853 105.272 448.564 105.304 448.315 105.367C448.066 105.426 447.859 105.514 447.693 105.631C447.527 105.748 447.402 105.89 447.319 106.056C447.236 106.222 447.195 106.41 447.195 106.62C447.195 106.83 447.244 107.022 447.341 107.198C447.439 107.369 447.581 107.503 447.766 107.601C447.957 107.699 448.186 107.748 448.455 107.748C448.816 107.748 449.131 107.674 449.399 107.528C449.673 107.376 449.888 107.193 450.044 106.979C450.2 106.759 450.283 106.551 450.293 106.356L450.864 107.14C450.806 107.34 450.706 107.555 450.564 107.784C450.422 108.014 450.237 108.233 450.007 108.443C449.783 108.648 449.512 108.817 449.194 108.949C448.882 109.081 448.521 109.146 448.11 109.146C447.593 109.146 447.131 109.044 446.726 108.839C446.321 108.629 446.003 108.348 445.774 107.997C445.544 107.64 445.43 107.237 445.43 106.788C445.43 106.368 445.508 105.997 445.664 105.675C445.825 105.348 446.06 105.074 446.367 104.854C446.68 104.635 447.061 104.469 447.51 104.356C447.959 104.239 448.472 104.181 449.048 104.181H450.432ZM455.544 102.767V109H453.779V101.075H455.442L455.544 102.767ZM455.229 104.745L454.658 104.737C454.663 104.176 454.741 103.661 454.893 103.192C455.049 102.723 455.264 102.32 455.537 101.983C455.815 101.646 456.147 101.388 456.533 101.207C456.919 101.021 457.349 100.929 457.822 100.929C458.203 100.929 458.547 100.982 458.855 101.09C459.167 101.192 459.434 101.361 459.653 101.595C459.878 101.83 460.049 102.135 460.166 102.511C460.283 102.882 460.342 103.338 460.342 103.88V109H458.569V103.873C458.569 103.492 458.513 103.192 458.401 102.972C458.293 102.748 458.135 102.589 457.925 102.496C457.72 102.398 457.463 102.35 457.156 102.35C456.853 102.35 456.582 102.413 456.343 102.54C456.104 102.667 455.901 102.84 455.735 103.06C455.574 103.28 455.449 103.534 455.361 103.822C455.273 104.11 455.229 104.417 455.229 104.745ZM465.381 107.74C465.669 107.74 465.928 107.684 466.157 107.572C466.392 107.455 466.58 107.293 466.721 107.088C466.868 106.883 466.948 106.646 466.963 106.378H468.625C468.616 106.891 468.464 107.357 468.171 107.777C467.878 108.197 467.49 108.531 467.007 108.78C466.523 109.024 465.989 109.146 465.403 109.146C464.797 109.146 464.27 109.044 463.821 108.839C463.372 108.629 462.998 108.341 462.7 107.975C462.402 107.608 462.178 107.186 462.026 106.708C461.88 106.229 461.807 105.716 461.807 105.169V104.913C461.807 104.366 461.88 103.854 462.026 103.375C462.178 102.892 462.402 102.467 462.7 102.101C462.998 101.734 463.372 101.449 463.821 101.244C464.27 101.034 464.795 100.929 465.396 100.929C466.03 100.929 466.587 101.056 467.065 101.31C467.544 101.559 467.92 101.908 468.193 102.357C468.472 102.801 468.616 103.319 468.625 103.91H466.963C466.948 103.617 466.875 103.353 466.743 103.119C466.616 102.879 466.436 102.689 466.201 102.547C465.972 102.406 465.696 102.335 465.374 102.335C465.017 102.335 464.722 102.408 464.487 102.555C464.253 102.696 464.07 102.892 463.938 103.141C463.806 103.385 463.711 103.661 463.652 103.968C463.599 104.271 463.572 104.586 463.572 104.913V105.169C463.572 105.497 463.599 105.814 463.652 106.122C463.706 106.429 463.799 106.705 463.931 106.949C464.067 107.188 464.253 107.381 464.487 107.528C464.722 107.669 465.02 107.74 465.381 107.74ZM473.474 109.146C472.888 109.146 472.358 109.051 471.885 108.861C471.416 108.666 471.016 108.395 470.684 108.048C470.356 107.701 470.105 107.293 469.929 106.825C469.753 106.356 469.666 105.851 469.666 105.309V105.016C469.666 104.396 469.756 103.834 469.937 103.331C470.117 102.828 470.369 102.398 470.691 102.042C471.013 101.681 471.394 101.405 471.833 101.214C472.273 101.024 472.749 100.929 473.262 100.929C473.828 100.929 474.324 101.024 474.749 101.214C475.173 101.405 475.525 101.673 475.803 102.02C476.086 102.362 476.296 102.77 476.433 103.243C476.575 103.717 476.646 104.239 476.646 104.811V105.565H470.522V104.298H474.902V104.159C474.893 103.841 474.829 103.543 474.712 103.265C474.6 102.987 474.426 102.762 474.192 102.591C473.958 102.42 473.645 102.335 473.254 102.335C472.961 102.335 472.7 102.398 472.471 102.525C472.246 102.647 472.058 102.826 471.907 103.06C471.755 103.294 471.638 103.578 471.555 103.91C471.477 104.237 471.438 104.605 471.438 105.016V105.309C471.438 105.655 471.484 105.978 471.577 106.275C471.675 106.568 471.816 106.825 472.002 107.044C472.188 107.264 472.412 107.438 472.676 107.564C472.939 107.687 473.24 107.748 473.577 107.748C474.001 107.748 474.38 107.662 474.712 107.491C475.044 107.32 475.332 107.079 475.576 106.766L476.506 107.667C476.335 107.916 476.113 108.155 475.84 108.385C475.566 108.609 475.232 108.792 474.836 108.934C474.446 109.076 473.992 109.146 473.474 109.146ZM479.912 97.75V109H478.14V97.75H479.912Z" fill="#0059FF"/>
<path d="M265.764 175.542V177H260.41V175.542H265.764ZM260.922 166.336V177H259.084V166.336H260.922ZM266.672 173.125V172.957C266.672 172.386 266.755 171.856 266.921 171.368C267.087 170.875 267.326 170.447 267.639 170.086C267.956 169.72 268.342 169.437 268.796 169.236C269.255 169.031 269.772 168.929 270.349 168.929C270.93 168.929 271.447 169.031 271.901 169.236C272.36 169.437 272.749 169.72 273.066 170.086C273.383 170.447 273.625 170.875 273.791 171.368C273.957 171.856 274.04 172.386 274.04 172.957V173.125C274.04 173.697 273.957 174.227 273.791 174.715C273.625 175.203 273.383 175.63 273.066 175.997C272.749 176.358 272.363 176.641 271.909 176.846C271.455 177.046 270.939 177.146 270.363 177.146C269.782 177.146 269.262 177.046 268.803 176.846C268.349 176.641 267.963 176.358 267.646 175.997C267.329 175.63 267.087 175.203 266.921 174.715C266.755 174.227 266.672 173.697 266.672 173.125ZM268.437 172.957V173.125C268.437 173.482 268.474 173.819 268.547 174.136C268.62 174.454 268.735 174.732 268.891 174.971C269.047 175.21 269.248 175.398 269.492 175.535C269.736 175.672 270.026 175.74 270.363 175.74C270.69 175.74 270.974 175.672 271.213 175.535C271.457 175.398 271.657 175.21 271.813 174.971C271.97 174.732 272.084 174.454 272.158 174.136C272.236 173.819 272.275 173.482 272.275 173.125V172.957C272.275 172.605 272.236 172.273 272.158 171.961C272.084 171.644 271.967 171.363 271.806 171.119C271.65 170.875 271.45 170.684 271.206 170.547C270.966 170.406 270.681 170.335 270.349 170.335C270.017 170.335 269.729 170.406 269.484 170.547C269.245 170.684 269.047 170.875 268.891 171.119C268.735 171.363 268.62 171.644 268.547 171.961C268.474 172.273 268.437 172.605 268.437 172.957ZM279.987 175.411V171.631C279.987 171.348 279.936 171.104 279.833 170.899C279.731 170.694 279.575 170.535 279.365 170.423C279.16 170.311 278.901 170.254 278.588 170.254C278.3 170.254 278.051 170.303 277.841 170.401C277.631 170.499 277.468 170.63 277.351 170.796C277.233 170.962 277.175 171.15 277.175 171.36H275.417C275.417 171.048 275.493 170.745 275.644 170.452C275.795 170.159 276.015 169.898 276.303 169.668C276.591 169.439 276.936 169.258 277.336 169.126C277.736 168.995 278.186 168.929 278.684 168.929C279.279 168.929 279.807 169.029 280.266 169.229C280.729 169.429 281.093 169.732 281.357 170.137C281.625 170.538 281.76 171.041 281.76 171.646V175.169C281.76 175.53 281.784 175.855 281.833 176.143C281.887 176.426 281.962 176.673 282.06 176.883V177H280.251C280.168 176.81 280.102 176.568 280.053 176.275C280.009 175.977 279.987 175.689 279.987 175.411ZM280.244 172.181L280.258 173.272H278.991C278.664 173.272 278.376 173.304 278.127 173.367C277.878 173.426 277.67 173.514 277.504 173.631C277.338 173.748 277.214 173.89 277.131 174.056C277.048 174.222 277.006 174.41 277.006 174.62C277.006 174.83 277.055 175.022 277.153 175.198C277.25 175.369 277.392 175.503 277.578 175.601C277.768 175.699 277.998 175.748 278.266 175.748C278.627 175.748 278.942 175.674 279.211 175.528C279.484 175.376 279.699 175.193 279.855 174.979C280.012 174.759 280.095 174.551 280.104 174.356L280.676 175.14C280.617 175.34 280.517 175.555 280.375 175.784C280.234 176.014 280.048 176.233 279.819 176.443C279.594 176.648 279.323 176.817 279.006 176.949C278.693 177.081 278.332 177.146 277.922 177.146C277.404 177.146 276.943 177.044 276.538 176.839C276.132 176.629 275.815 176.348 275.585 175.997C275.356 175.64 275.241 175.237 275.241 174.788C275.241 174.368 275.319 173.997 275.476 173.675C275.637 173.348 275.871 173.074 276.179 172.854C276.491 172.635 276.872 172.469 277.321 172.356C277.771 172.239 278.283 172.181 278.859 172.181H280.244ZM288.439 175.359V165.75H290.212V177H288.608L288.439 175.359ZM283.283 173.125V172.972C283.283 172.371 283.354 171.824 283.496 171.331C283.637 170.833 283.842 170.406 284.111 170.049C284.379 169.688 284.707 169.412 285.092 169.222C285.478 169.026 285.913 168.929 286.396 168.929C286.875 168.929 287.294 169.021 287.656 169.207C288.017 169.393 288.325 169.659 288.579 170.005C288.833 170.347 289.035 170.757 289.187 171.236C289.338 171.709 289.445 172.237 289.509 172.818V173.309C289.445 173.875 289.338 174.393 289.187 174.861C289.035 175.33 288.833 175.735 288.579 176.077C288.325 176.419 288.015 176.683 287.648 176.868C287.287 177.054 286.865 177.146 286.381 177.146C285.903 177.146 285.471 177.046 285.085 176.846C284.704 176.646 284.379 176.365 284.111 176.004C283.842 175.643 283.637 175.218 283.496 174.729C283.354 174.236 283.283 173.702 283.283 173.125ZM285.048 172.972V173.125C285.048 173.487 285.08 173.824 285.144 174.136C285.212 174.449 285.317 174.725 285.458 174.964C285.6 175.198 285.783 175.384 286.008 175.521C286.237 175.652 286.511 175.718 286.828 175.718C287.229 175.718 287.558 175.63 287.817 175.455C288.076 175.279 288.278 175.042 288.425 174.744C288.576 174.441 288.679 174.104 288.732 173.733V172.408C288.703 172.12 288.642 171.851 288.549 171.602C288.461 171.353 288.342 171.136 288.19 170.95C288.039 170.76 287.851 170.613 287.626 170.511C287.407 170.403 287.146 170.35 286.843 170.35C286.521 170.35 286.247 170.418 286.022 170.555C285.798 170.691 285.612 170.879 285.466 171.119C285.324 171.358 285.219 171.636 285.151 171.954C285.083 172.271 285.048 172.61 285.048 172.972ZM293.947 169.075V177H292.175V169.075H293.947ZM292.058 166.995C292.058 166.727 292.146 166.504 292.321 166.329C292.502 166.148 292.751 166.058 293.068 166.058C293.381 166.058 293.627 166.148 293.808 166.329C293.989 166.504 294.079 166.727 294.079 166.995C294.079 167.259 293.989 167.479 293.808 167.654C293.627 167.83 293.381 167.918 293.068 167.918C292.751 167.918 292.502 167.83 292.321 167.654C292.146 167.479 292.058 167.259 292.058 166.995ZM297.631 170.767V177H295.866V169.075H297.529L297.631 170.767ZM297.316 172.745L296.745 172.737C296.75 172.176 296.828 171.661 296.979 171.192C297.136 170.723 297.351 170.32 297.624 169.983C297.902 169.646 298.234 169.388 298.62 169.207C299.006 169.021 299.436 168.929 299.909 168.929C300.29 168.929 300.634 168.982 300.942 169.09C301.254 169.192 301.521 169.361 301.74 169.595C301.965 169.83 302.136 170.135 302.253 170.511C302.37 170.882 302.429 171.338 302.429 171.88V177H300.656V171.873C300.656 171.492 300.6 171.192 300.488 170.972C300.38 170.748 300.222 170.589 300.012 170.496C299.807 170.398 299.55 170.35 299.243 170.35C298.94 170.35 298.669 170.413 298.43 170.54C298.19 170.667 297.988 170.84 297.822 171.06C297.661 171.28 297.536 171.534 297.448 171.822C297.36 172.11 297.316 172.417 297.316 172.745ZM309.306 169.075H310.91V176.78C310.91 177.493 310.759 178.099 310.456 178.597C310.153 179.095 309.731 179.473 309.189 179.732C308.647 179.996 308.02 180.127 307.307 180.127C307.004 180.127 306.667 180.083 306.296 179.996C305.93 179.908 305.573 179.766 305.227 179.571C304.885 179.38 304.599 179.129 304.37 178.816L305.197 177.776C305.48 178.113 305.793 178.36 306.135 178.516C306.477 178.672 306.835 178.75 307.211 178.75C307.617 178.75 307.961 178.675 308.244 178.523C308.532 178.377 308.754 178.16 308.911 177.872C309.067 177.583 309.145 177.232 309.145 176.817V170.87L309.306 169.075ZM303.923 173.125V172.972C303.923 172.371 303.996 171.824 304.143 171.331C304.289 170.833 304.499 170.406 304.772 170.049C305.046 169.688 305.378 169.412 305.769 169.222C306.159 169.026 306.601 168.929 307.094 168.929C307.607 168.929 308.044 169.021 308.405 169.207C308.771 169.393 309.077 169.659 309.321 170.005C309.565 170.347 309.755 170.757 309.892 171.236C310.034 171.709 310.139 172.237 310.207 172.818V173.309C310.144 173.875 310.036 174.393 309.885 174.861C309.733 175.33 309.533 175.735 309.284 176.077C309.035 176.419 308.728 176.683 308.361 176.868C308 177.054 307.573 177.146 307.08 177.146C306.596 177.146 306.159 177.046 305.769 176.846C305.383 176.646 305.051 176.365 304.772 176.004C304.499 175.643 304.289 175.218 304.143 174.729C303.996 174.236 303.923 173.702 303.923 173.125ZM305.688 172.972V173.125C305.688 173.487 305.722 173.824 305.791 174.136C305.864 174.449 305.974 174.725 306.12 174.964C306.271 175.198 306.462 175.384 306.691 175.521C306.926 175.652 307.202 175.718 307.519 175.718C307.934 175.718 308.273 175.63 308.537 175.455C308.806 175.279 309.011 175.042 309.152 174.744C309.299 174.441 309.401 174.104 309.46 173.733V172.408C309.431 172.12 309.37 171.851 309.277 171.602C309.189 171.353 309.069 171.136 308.918 170.95C308.767 170.76 308.576 170.613 308.347 170.511C308.117 170.403 307.846 170.35 307.534 170.35C307.216 170.35 306.94 170.418 306.706 170.555C306.472 170.691 306.279 170.879 306.127 171.119C305.981 171.358 305.871 171.636 305.798 171.954C305.725 172.271 305.688 172.61 305.688 172.972ZM319.75 177H317.473L317.487 175.542H319.75C320.41 175.542 320.961 175.398 321.406 175.11C321.855 174.822 322.192 174.41 322.417 173.873C322.646 173.335 322.761 172.696 322.761 171.954V171.375C322.761 170.799 322.695 170.289 322.563 169.844C322.436 169.4 322.246 169.026 321.992 168.724C321.743 168.421 321.435 168.191 321.069 168.035C320.708 167.879 320.29 167.801 319.816 167.801H317.429V166.336H319.816C320.524 166.336 321.171 166.456 321.757 166.695C322.343 166.929 322.849 167.269 323.273 167.713C323.703 168.157 324.033 168.689 324.262 169.31C324.492 169.93 324.606 170.623 324.606 171.39V171.954C324.606 172.72 324.492 173.414 324.262 174.034C324.033 174.654 323.703 175.186 323.273 175.63C322.844 176.07 322.331 176.409 321.735 176.648C321.145 176.883 320.483 177 319.75 177ZM318.491 166.336V177H316.652V166.336H318.491ZM330.744 175.411V171.631C330.744 171.348 330.693 171.104 330.59 170.899C330.488 170.694 330.332 170.535 330.122 170.423C329.917 170.311 329.658 170.254 329.345 170.254C329.057 170.254 328.808 170.303 328.598 170.401C328.388 170.499 328.225 170.63 328.107 170.796C327.99 170.962 327.932 171.15 327.932 171.36H326.174C326.174 171.048 326.25 170.745 326.401 170.452C326.552 170.159 326.772 169.898 327.06 169.668C327.348 169.439 327.692 169.258 328.093 169.126C328.493 168.995 328.942 168.929 329.44 168.929C330.036 168.929 330.563 169.029 331.022 169.229C331.486 169.429 331.85 169.732 332.114 170.137C332.382 170.538 332.517 171.041 332.517 171.646V175.169C332.517 175.53 332.541 175.855 332.59 176.143C332.644 176.426 332.719 176.673 332.817 176.883V177H331.008C330.925 176.81 330.859 176.568 330.81 176.275C330.766 175.977 330.744 175.689 330.744 175.411ZM331 172.181L331.015 173.272H329.748C329.421 173.272 329.133 173.304 328.884 173.367C328.635 173.426 328.427 173.514 328.261 173.631C328.095 173.748 327.971 173.89 327.888 174.056C327.805 174.222 327.763 174.41 327.763 174.62C327.763 174.83 327.812 175.022 327.91 175.198C328.007 175.369 328.149 175.503 328.334 175.601C328.525 175.699 328.754 175.748 329.023 175.748C329.384 175.748 329.699 175.674 329.968 175.528C330.241 175.376 330.456 175.193 330.612 174.979C330.769 174.759 330.852 174.551 330.861 174.356L331.433 175.14C331.374 175.34 331.274 175.555 331.132 175.784C330.991 176.014 330.805 176.233 330.576 176.443C330.351 176.648 330.08 176.817 329.763 176.949C329.45 177.081 329.089 177.146 328.679 177.146C328.161 177.146 327.7 177.044 327.294 176.839C326.889 176.629 326.572 176.348 326.342 175.997C326.113 175.64 325.998 175.237 325.998 174.788C325.998 174.368 326.076 173.997 326.232 173.675C326.394 173.348 326.628 173.074 326.936 172.854C327.248 172.635 327.629 172.469 328.078 172.356C328.527 172.239 329.04 172.181 329.616 172.181H331ZM337.995 169.075V170.364H333.527V169.075H337.995ZM334.816 167.134H336.582V174.81C336.582 175.054 336.616 175.242 336.684 175.374C336.757 175.501 336.857 175.586 336.984 175.63C337.111 175.674 337.26 175.696 337.431 175.696C337.553 175.696 337.67 175.689 337.783 175.674C337.895 175.66 337.985 175.645 338.054 175.63L338.061 176.978C337.915 177.022 337.744 177.061 337.548 177.095C337.358 177.129 337.138 177.146 336.889 177.146C336.484 177.146 336.125 177.076 335.812 176.934C335.5 176.788 335.256 176.551 335.08 176.224C334.904 175.896 334.816 175.462 334.816 174.92V167.134ZM343.825 175.411V171.631C343.825 171.348 343.774 171.104 343.671 170.899C343.569 170.694 343.413 170.535 343.203 170.423C342.998 170.311 342.739 170.254 342.426 170.254C342.138 170.254 341.889 170.303 341.679 170.401C341.469 170.499 341.306 170.63 341.188 170.796C341.071 170.962 341.013 171.15 341.013 171.36H339.255C339.255 171.048 339.331 170.745 339.482 170.452C339.633 170.159 339.853 169.898 340.141 169.668C340.429 169.439 340.773 169.258 341.174 169.126C341.574 168.995 342.023 168.929 342.521 168.929C343.117 168.929 343.645 169.029 344.104 169.229C344.567 169.429 344.931 169.732 345.195 170.137C345.463 170.538 345.598 171.041 345.598 171.646V175.169C345.598 175.53 345.622 175.855 345.671 176.143C345.725 176.426 345.8 176.673 345.898 176.883V177H344.089C344.006 176.81 343.94 176.568 343.891 176.275C343.847 175.977 343.825 175.689 343.825 175.411ZM344.082 172.181L344.096 173.272H342.829C342.502 173.272 342.214 173.304 341.965 173.367C341.716 173.426 341.508 173.514 341.342 173.631C341.176 173.748 341.052 173.89 340.969 174.056C340.886 174.222 340.844 174.41 340.844 174.62C340.844 174.83 340.893 175.022 340.991 175.198C341.088 175.369 341.23 175.503 341.416 175.601C341.606 175.699 341.835 175.748 342.104 175.748C342.465 175.748 342.78 175.674 343.049 175.528C343.322 175.376 343.537 175.193 343.693 174.979C343.85 174.759 343.933 174.551 343.942 174.356L344.514 175.14C344.455 175.34 344.355 175.555 344.213 175.784C344.072 176.014 343.886 176.233 343.657 176.443C343.432 176.648 343.161 176.817 342.844 176.949C342.531 177.081 342.17 177.146 341.76 177.146C341.242 177.146 340.781 177.044 340.375 176.839C339.97 176.629 339.653 176.348 339.423 175.997C339.194 175.64 339.079 175.237 339.079 174.788C339.079 174.368 339.157 173.997 339.313 173.675C339.475 173.348 339.709 173.074 340.017 172.854C340.329 172.635 340.71 172.469 341.159 172.356C341.608 172.239 342.121 172.181 342.697 172.181H344.082ZM347.517 176.121C347.517 175.848 347.609 175.618 347.795 175.433C347.98 175.242 348.232 175.147 348.549 175.147C348.872 175.147 349.123 175.242 349.304 175.433C349.489 175.618 349.582 175.848 349.582 176.121C349.582 176.395 349.489 176.624 349.304 176.81C349.123 176.995 348.872 177.088 348.549 177.088C348.232 177.088 347.98 176.995 347.795 176.81C347.609 176.624 347.517 176.395 347.517 176.121ZM351.691 176.121C351.691 175.848 351.784 175.618 351.97 175.433C352.155 175.242 352.407 175.147 352.724 175.147C353.046 175.147 353.298 175.242 353.479 175.433C353.664 175.618 353.757 175.848 353.757 176.121C353.757 176.395 353.664 176.624 353.479 176.81C353.298 176.995 353.046 177.088 352.724 177.088C352.407 177.088 352.155 176.995 351.97 176.81C351.784 176.624 351.691 176.395 351.691 176.121ZM355.866 176.121C355.866 175.848 355.959 175.618 356.145 175.433C356.33 175.242 356.582 175.147 356.899 175.147C357.221 175.147 357.473 175.242 357.653 175.433C357.839 175.618 357.932 175.848 357.932 176.121C357.932 176.395 357.839 176.624 357.653 176.81C357.473 176.995 357.221 177.088 356.899 177.088C356.582 177.088 356.33 176.995 356.145 176.81C355.959 176.624 355.866 176.395 355.866 176.121Z" fill="#1A1A1A"/>
<path d="M629.018 171.924L627.934 171.646L628.469 166.336H633.94V167.588H629.619L629.296 170.489C629.492 170.376 629.738 170.271 630.036 170.174C630.339 170.076 630.686 170.027 631.076 170.027C631.569 170.027 632.011 170.113 632.402 170.284C632.792 170.45 633.125 170.689 633.398 171.001C633.676 171.314 633.889 171.69 634.035 172.129C634.182 172.569 634.255 173.06 634.255 173.602C634.255 174.114 634.184 174.585 634.042 175.015C633.906 175.445 633.698 175.821 633.42 176.143C633.142 176.46 632.79 176.707 632.365 176.883C631.945 177.059 631.45 177.146 630.878 177.146C630.449 177.146 630.041 177.088 629.655 176.971C629.274 176.849 628.933 176.666 628.63 176.421C628.332 176.172 628.088 175.865 627.897 175.499C627.712 175.127 627.595 174.693 627.546 174.195H628.835C628.894 174.595 629.011 174.932 629.187 175.206C629.362 175.479 629.592 175.687 629.875 175.828C630.163 175.965 630.498 176.033 630.878 176.033C631.201 176.033 631.486 175.977 631.735 175.865C631.984 175.752 632.194 175.591 632.365 175.381C632.536 175.171 632.666 174.917 632.753 174.62C632.846 174.322 632.893 173.987 632.893 173.616C632.893 173.279 632.846 172.967 632.753 172.679C632.661 172.391 632.521 172.139 632.336 171.924C632.155 171.709 631.933 171.543 631.669 171.426C631.406 171.304 631.103 171.243 630.761 171.243C630.307 171.243 629.963 171.304 629.729 171.426C629.499 171.548 629.262 171.714 629.018 171.924ZM642.436 170.818V172.444C642.436 173.318 642.358 174.056 642.202 174.656C642.045 175.257 641.821 175.74 641.528 176.106C641.235 176.473 640.881 176.739 640.466 176.905C640.056 177.066 639.592 177.146 639.074 177.146C638.664 177.146 638.286 177.095 637.939 176.993C637.592 176.89 637.28 176.727 637.001 176.502C636.728 176.272 636.494 175.975 636.298 175.608C636.103 175.242 635.954 174.798 635.852 174.275C635.749 173.753 635.698 173.143 635.698 172.444V170.818C635.698 169.944 635.776 169.212 635.932 168.621C636.093 168.03 636.32 167.557 636.613 167.2C636.906 166.839 637.258 166.58 637.668 166.424C638.083 166.268 638.547 166.189 639.06 166.189C639.475 166.189 639.855 166.241 640.202 166.343C640.554 166.441 640.866 166.6 641.14 166.819C641.413 167.034 641.645 167.322 641.835 167.684C642.031 168.04 642.18 168.477 642.282 168.995C642.385 169.512 642.436 170.12 642.436 170.818ZM641.074 172.664V170.591C641.074 170.113 641.044 169.693 640.986 169.332C640.932 168.965 640.852 168.653 640.744 168.394C640.637 168.135 640.5 167.925 640.334 167.764C640.173 167.603 639.985 167.486 639.77 167.413C639.56 167.334 639.323 167.295 639.06 167.295C638.737 167.295 638.452 167.356 638.203 167.479C637.954 167.596 637.744 167.784 637.573 168.042C637.407 168.301 637.28 168.641 637.192 169.061C637.104 169.48 637.06 169.991 637.06 170.591V172.664C637.06 173.143 637.087 173.565 637.141 173.931C637.199 174.297 637.285 174.615 637.397 174.883C637.509 175.147 637.646 175.364 637.807 175.535C637.968 175.706 638.154 175.833 638.364 175.916C638.579 175.994 638.815 176.033 639.074 176.033C639.406 176.033 639.697 175.97 639.946 175.843C640.195 175.716 640.402 175.518 640.568 175.25C640.739 174.976 640.866 174.627 640.949 174.202C641.032 173.772 641.074 173.26 641.074 172.664ZM647.783 168.951V168.387C647.783 167.981 647.871 167.613 648.046 167.281C648.222 166.949 648.474 166.683 648.801 166.482C649.128 166.282 649.516 166.182 649.965 166.182C650.424 166.182 650.815 166.282 651.137 166.482C651.464 166.683 651.716 166.949 651.892 167.281C652.067 167.613 652.155 167.981 652.155 168.387V168.951C652.155 169.346 652.067 169.71 651.892 170.042C651.721 170.374 651.472 170.64 651.145 170.84C650.822 171.041 650.434 171.141 649.98 171.141C649.526 171.141 649.133 171.041 648.801 170.84C648.474 170.64 648.222 170.374 648.046 170.042C647.871 169.71 647.783 169.346 647.783 168.951ZM648.801 168.387V168.951C648.801 169.175 648.842 169.388 648.925 169.588C649.013 169.788 649.145 169.952 649.321 170.079C649.497 170.201 649.716 170.262 649.98 170.262C650.244 170.262 650.461 170.201 650.632 170.079C650.803 169.952 650.93 169.788 651.013 169.588C651.096 169.388 651.137 169.175 651.137 168.951V168.387C651.137 168.157 651.093 167.942 651.005 167.742C650.922 167.537 650.793 167.374 650.617 167.251C650.446 167.125 650.229 167.061 649.965 167.061C649.707 167.061 649.489 167.125 649.313 167.251C649.143 167.374 649.013 167.537 648.925 167.742C648.842 167.942 648.801 168.157 648.801 168.387ZM652.976 174.957V174.385C652.976 173.985 653.063 173.619 653.239 173.287C653.415 172.955 653.667 172.688 653.994 172.488C654.321 172.288 654.709 172.188 655.158 172.188C655.617 172.188 656.008 172.288 656.33 172.488C656.657 172.688 656.909 172.955 657.084 173.287C657.26 173.619 657.348 173.985 657.348 174.385V174.957C657.348 175.357 657.26 175.723 657.084 176.055C656.914 176.387 656.665 176.653 656.337 176.854C656.015 177.054 655.627 177.154 655.173 177.154C654.719 177.154 654.328 177.054 654.001 176.854C653.674 176.653 653.42 176.387 653.239 176.055C653.063 175.723 652.976 175.357 652.976 174.957ZM653.994 174.385V174.957C653.994 175.181 654.035 175.396 654.118 175.601C654.206 175.801 654.338 175.965 654.514 176.092C654.689 176.214 654.909 176.275 655.173 176.275C655.437 176.275 655.654 176.214 655.825 176.092C656 175.965 656.13 175.801 656.213 175.601C656.296 175.401 656.337 175.186 656.337 174.957V174.385C656.337 174.156 656.293 173.941 656.206 173.741C656.123 173.541 655.993 173.379 655.817 173.257C655.646 173.13 655.427 173.067 655.158 173.067C654.899 173.067 654.682 173.13 654.506 173.257C654.335 173.379 654.206 173.541 654.118 173.741C654.035 173.941 653.994 174.156 653.994 174.385ZM655.495 167.852L650.288 176.187L649.526 175.704L654.733 167.369L655.495 167.852Z" fill="#505050"/>
<rect x="258" y="192" width="400" height="4" rx="2" fill="#F2F2F2"/>
<rect x="258" y="192" width="220" height="4" fill="#286EF1"/>
<path d="M442.383 225.528H444.214C444.155 226.227 443.96 226.849 443.628 227.396C443.296 227.938 442.83 228.365 442.229 228.678C441.628 228.99 440.898 229.146 440.039 229.146C439.38 229.146 438.787 229.029 438.259 228.795C437.732 228.556 437.28 228.219 436.904 227.784C436.528 227.345 436.24 226.815 436.04 226.195C435.845 225.575 435.747 224.881 435.747 224.115V223.229C435.747 222.462 435.847 221.769 436.047 221.148C436.252 220.528 436.545 219.999 436.926 219.559C437.307 219.115 437.764 218.775 438.296 218.541C438.833 218.307 439.436 218.189 440.105 218.189C440.955 218.189 441.672 218.346 442.258 218.658C442.844 218.971 443.298 219.403 443.621 219.955C443.948 220.506 444.148 221.139 444.221 221.852H442.39C442.341 221.393 442.234 221 442.068 220.672C441.907 220.345 441.667 220.096 441.35 219.925C441.033 219.75 440.618 219.662 440.105 219.662C439.685 219.662 439.319 219.74 439.006 219.896C438.694 220.052 438.433 220.282 438.223 220.584C438.013 220.887 437.854 221.261 437.747 221.705C437.644 222.145 437.593 222.647 437.593 223.214V224.115C437.593 224.652 437.639 225.14 437.732 225.58C437.83 226.014 437.976 226.388 438.171 226.7C438.372 227.013 438.625 227.254 438.933 227.425C439.241 227.596 439.609 227.682 440.039 227.682C440.562 227.682 440.984 227.599 441.306 227.433C441.633 227.267 441.88 227.025 442.046 226.708C442.217 226.385 442.329 225.992 442.383 225.528ZM450.176 227.411V223.631C450.176 223.348 450.125 223.104 450.022 222.899C449.919 222.694 449.763 222.535 449.553 222.423C449.348 222.311 449.089 222.254 448.777 222.254C448.489 222.254 448.24 222.303 448.03 222.401C447.82 222.499 447.656 222.63 447.539 222.796C447.422 222.962 447.363 223.15 447.363 223.36H445.605C445.605 223.048 445.681 222.745 445.833 222.452C445.984 222.159 446.204 221.898 446.492 221.668C446.78 221.439 447.124 221.258 447.524 221.126C447.925 220.995 448.374 220.929 448.872 220.929C449.468 220.929 449.995 221.029 450.454 221.229C450.918 221.429 451.282 221.732 451.545 222.137C451.814 222.538 451.948 223.041 451.948 223.646V227.169C451.948 227.53 451.973 227.855 452.021 228.143C452.075 228.426 452.151 228.673 452.249 228.883V229H450.439C450.356 228.81 450.291 228.568 450.242 228.275C450.198 227.977 450.176 227.689 450.176 227.411ZM450.432 224.181L450.447 225.272H449.18C448.853 225.272 448.564 225.304 448.315 225.367C448.066 225.426 447.859 225.514 447.693 225.631C447.527 225.748 447.402 225.89 447.319 226.056C447.236 226.222 447.195 226.41 447.195 226.62C447.195 226.83 447.244 227.022 447.341 227.198C447.439 227.369 447.581 227.503 447.766 227.601C447.957 227.699 448.186 227.748 448.455 227.748C448.816 227.748 449.131 227.674 449.399 227.528C449.673 227.376 449.888 227.193 450.044 226.979C450.2 226.759 450.283 226.551 450.293 226.356L450.864 227.14C450.806 227.34 450.706 227.555 450.564 227.784C450.422 228.014 450.237 228.233 450.007 228.443C449.783 228.648 449.512 228.817 449.194 228.949C448.882 229.081 448.521 229.146 448.11 229.146C447.593 229.146 447.131 229.044 446.726 228.839C446.321 228.629 446.003 228.348 445.774 227.997C445.544 227.64 445.43 227.237 445.43 226.788C445.43 226.368 445.508 225.997 445.664 225.675C445.825 225.348 446.06 225.074 446.367 224.854C446.68 224.635 447.061 224.469 447.51 224.356C447.959 224.239 448.472 224.181 449.048 224.181H450.432ZM455.544 222.767V229H453.779V221.075H455.442L455.544 222.767ZM455.229 224.745L454.658 224.737C454.663 224.176 454.741 223.661 454.893 223.192C455.049 222.723 455.264 222.32 455.537 221.983C455.815 221.646 456.147 221.388 456.533 221.207C456.919 221.021 457.349 220.929 457.822 220.929C458.203 220.929 458.547 220.982 458.855 221.09C459.167 221.192 459.434 221.361 459.653 221.595C459.878 221.83 460.049 222.135 460.166 222.511C460.283 222.882 460.342 223.338 460.342 223.88V229H458.569V223.873C458.569 223.492 458.513 223.192 458.401 222.972C458.293 222.748 458.135 222.589 457.925 222.496C457.72 222.398 457.463 222.35 457.156 222.35C456.853 222.35 456.582 222.413 456.343 222.54C456.104 222.667 455.901 222.84 455.735 223.06C455.574 223.28 455.449 223.534 455.361 223.822C455.273 224.11 455.229 224.417 455.229 224.745ZM465.381 227.74C465.669 227.74 465.928 227.684 466.157 227.572C466.392 227.455 466.58 227.293 466.721 227.088C466.868 226.883 466.948 226.646 466.963 226.378H468.625C468.616 226.891 468.464 227.357 468.171 227.777C467.878 228.197 467.49 228.531 467.007 228.78C466.523 229.024 465.989 229.146 465.403 229.146C464.797 229.146 464.27 229.044 463.821 228.839C463.372 228.629 462.998 228.341 462.7 227.975C462.402 227.608 462.178 227.186 462.026 226.708C461.88 226.229 461.807 225.716 461.807 225.169V224.913C461.807 224.366 461.88 223.854 462.026 223.375C462.178 222.892 462.402 222.467 462.7 222.101C462.998 221.734 463.372 221.449 463.821 221.244C464.27 221.034 464.795 220.929 465.396 220.929C466.03 220.929 466.587 221.056 467.065 221.31C467.544 221.559 467.92 221.908 468.193 222.357C468.472 222.801 468.616 223.319 468.625 223.91H466.963C466.948 223.617 466.875 223.353 466.743 223.119C466.616 222.879 466.436 222.689 466.201 222.547C465.972 222.406 465.696 222.335 465.374 222.335C465.017 222.335 464.722 222.408 464.487 222.555C464.253 222.696 464.07 222.892 463.938 223.141C463.806 223.385 463.711 223.661 463.652 223.968C463.599 224.271 463.572 224.586 463.572 224.913V225.169C463.572 225.497 463.599 225.814 463.652 226.122C463.706 226.429 463.799 226.705 463.931 226.949C464.067 227.188 464.253 227.381 464.487 227.528C464.722 227.669 465.02 227.74 465.381 227.74ZM473.474 229.146C472.888 229.146 472.358 229.051 471.885 228.861C471.416 228.666 471.016 228.395 470.684 228.048C470.356 227.701 470.105 227.293 469.929 226.825C469.753 226.356 469.666 225.851 469.666 225.309V225.016C469.666 224.396 469.756 223.834 469.937 223.331C470.117 222.828 470.369 222.398 470.691 222.042C471.013 221.681 471.394 221.405 471.833 221.214C472.273 221.024 472.749 220.929 473.262 220.929C473.828 220.929 474.324 221.024 474.749 221.214C475.173 221.405 475.525 221.673 475.803 222.02C476.086 222.362 476.296 222.77 476.433 223.243C476.575 223.717 476.646 224.239 476.646 224.811V225.565H470.522V224.298H474.902V224.159C474.893 223.841 474.829 223.543 474.712 223.265C474.6 222.987 474.426 222.762 474.192 222.591C473.958 222.42 473.645 222.335 473.254 222.335C472.961 222.335 472.7 222.398 472.471 222.525C472.246 222.647 472.058 222.826 471.907 223.06C471.755 223.294 471.638 223.578 471.555 223.91C471.477 224.237 471.438 224.605 471.438 225.016V225.309C471.438 225.655 471.484 225.978 471.577 226.275C471.675 226.568 471.816 226.825 472.002 227.044C472.188 227.264 472.412 227.438 472.676 227.564C472.939 227.687 473.24 227.748 473.577 227.748C474.001 227.748 474.38 227.662 474.712 227.491C475.044 227.32 475.332 227.079 475.576 226.766L476.506 227.667C476.335 227.916 476.113 228.155 475.84 228.385C475.566 228.609 475.232 228.792 474.836 228.934C474.446 229.076 473.992 229.146 473.474 229.146ZM479.912 217.75V229H478.14V217.75H479.912Z" fill="#0059FF"/>
<path d="M265.764 287.542V289H260.41V287.542H265.764ZM260.922 278.336V289H259.084V278.336H260.922ZM266.672 285.125V284.957C266.672 284.386 266.755 283.856 266.921 283.368C267.087 282.875 267.326 282.447 267.639 282.086C267.956 281.72 268.342 281.437 268.796 281.236C269.255 281.031 269.772 280.929 270.349 280.929C270.93 280.929 271.447 281.031 271.901 281.236C272.36 281.437 272.749 281.72 273.066 282.086C273.383 282.447 273.625 282.875 273.791 283.368C273.957 283.856 274.04 284.386 274.04 284.957V285.125C274.04 285.697 273.957 286.227 273.791 286.715C273.625 287.203 273.383 287.63 273.066 287.997C272.749 288.358 272.363 288.641 271.909 288.846C271.455 289.046 270.939 289.146 270.363 289.146C269.782 289.146 269.262 289.046 268.803 288.846C268.349 288.641 267.963 288.358 267.646 287.997C267.329 287.63 267.087 287.203 266.921 286.715C266.755 286.227 266.672 285.697 266.672 285.125ZM268.437 284.957V285.125C268.437 285.482 268.474 285.819 268.547 286.136C268.62 286.454 268.735 286.732 268.891 286.971C269.047 287.21 269.248 287.398 269.492 287.535C269.736 287.672 270.026 287.74 270.363 287.74C270.69 287.74 270.974 287.672 271.213 287.535C271.457 287.398 271.657 287.21 271.813 286.971C271.97 286.732 272.084 286.454 272.158 286.136C272.236 285.819 272.275 285.482 272.275 285.125V284.957C272.275 284.605 272.236 284.273 272.158 283.961C272.084 283.644 271.967 283.363 271.806 283.119C271.65 282.875 271.45 282.684 271.206 282.547C270.966 282.406 270.681 282.335 270.349 282.335C270.017 282.335 269.729 282.406 269.484 282.547C269.245 282.684 269.047 282.875 268.891 283.119C268.735 283.363 268.62 283.644 268.547 283.961C268.474 284.273 268.437 284.605 268.437 284.957ZM279.987 287.411V283.631C279.987 283.348 279.936 283.104 279.833 282.899C279.731 282.694 279.575 282.535 279.365 282.423C279.16 282.311 278.901 282.254 278.588 282.254C278.3 282.254 278.051 282.303 277.841 282.401C277.631 282.499 277.468 282.63 277.351 282.796C277.233 282.962 277.175 283.15 277.175 283.36H275.417C275.417 283.048 275.493 282.745 275.644 282.452C275.795 282.159 276.015 281.898 276.303 281.668C276.591 281.439 276.936 281.258 277.336 281.126C277.736 280.995 278.186 280.929 278.684 280.929C279.279 280.929 279.807 281.029 280.266 281.229C280.729 281.429 281.093 281.732 281.357 282.137C281.625 282.538 281.76 283.041 281.76 283.646V287.169C281.76 287.53 281.784 287.855 281.833 288.143C281.887 288.426 281.962 288.673 282.06 288.883V289H280.251C280.168 288.81 280.102 288.568 280.053 288.275C280.009 287.977 279.987 287.689 279.987 287.411ZM280.244 284.181L280.258 285.272H278.991C278.664 285.272 278.376 285.304 278.127 285.367C277.878 285.426 277.67 285.514 277.504 285.631C277.338 285.748 277.214 285.89 277.131 286.056C277.048 286.222 277.006 286.41 277.006 286.62C277.006 286.83 277.055 287.022 277.153 287.198C277.25 287.369 277.392 287.503 277.578 287.601C277.768 287.699 277.998 287.748 278.266 287.748C278.627 287.748 278.942 287.674 279.211 287.528C279.484 287.376 279.699 287.193 279.855 286.979C280.012 286.759 280.095 286.551 280.104 286.356L280.676 287.14C280.617 287.34 280.517 287.555 280.375 287.784C280.234 288.014 280.048 288.233 279.819 288.443C279.594 288.648 279.323 288.817 279.006 288.949C278.693 289.081 278.332 289.146 277.922 289.146C277.404 289.146 276.943 289.044 276.538 288.839C276.132 288.629 275.815 288.348 275.585 287.997C275.356 287.64 275.241 287.237 275.241 286.788C275.241 286.368 275.319 285.997 275.476 285.675C275.637 285.348 275.871 285.074 276.179 284.854C276.491 284.635 276.872 284.469 277.321 284.356C277.771 284.239 278.283 284.181 278.859 284.181H280.244ZM288.439 287.359V277.75H290.212V289H288.608L288.439 287.359ZM283.283 285.125V284.972C283.283 284.371 283.354 283.824 283.496 283.331C283.637 282.833 283.842 282.406 284.111 282.049C284.379 281.688 284.707 281.412 285.092 281.222C285.478 281.026 285.913 280.929 286.396 280.929C286.875 280.929 287.294 281.021 287.656 281.207C288.017 281.393 288.325 281.659 288.579 282.005C288.833 282.347 289.035 282.757 289.187 283.236C289.338 283.709 289.445 284.237 289.509 284.818V285.309C289.445 285.875 289.338 286.393 289.187 286.861C289.035 287.33 288.833 287.735 288.579 288.077C288.325 288.419 288.015 288.683 287.648 288.868C287.287 289.054 286.865 289.146 286.381 289.146C285.903 289.146 285.471 289.046 285.085 288.846C284.704 288.646 284.379 288.365 284.111 288.004C283.842 287.643 283.637 287.218 283.496 286.729C283.354 286.236 283.283 285.702 283.283 285.125ZM285.048 284.972V285.125C285.048 285.487 285.08 285.824 285.144 286.136C285.212 286.449 285.317 286.725 285.458 286.964C285.6 287.198 285.783 287.384 286.008 287.521C286.237 287.652 286.511 287.718 286.828 287.718C287.229 287.718 287.558 287.63 287.817 287.455C288.076 287.279 288.278 287.042 288.425 286.744C288.576 286.441 288.679 286.104 288.732 285.733V284.408C288.703 284.12 288.642 283.851 288.549 283.602C288.461 283.353 288.342 283.136 288.19 282.95C288.039 282.76 287.851 282.613 287.626 282.511C287.407 282.403 287.146 282.35 286.843 282.35C286.521 282.35 286.247 282.418 286.022 282.555C285.798 282.691 285.612 282.879 285.466 283.119C285.324 283.358 285.219 283.636 285.151 283.954C285.083 284.271 285.048 284.61 285.048 284.972ZM293.947 281.075V289H292.175V281.075H293.947ZM292.058 278.995C292.058 278.727 292.146 278.504 292.321 278.329C292.502 278.148 292.751 278.058 293.068 278.058C293.381 278.058 293.627 278.148 293.808 278.329C293.989 278.504 294.079 278.727 294.079 278.995C294.079 279.259 293.989 279.479 293.808 279.654C293.627 279.83 293.381 279.918 293.068 279.918C292.751 279.918 292.502 279.83 292.321 279.654C292.146 279.479 292.058 279.259 292.058 278.995ZM297.631 282.767V289H295.866V281.075H297.529L297.631 282.767ZM297.316 284.745L296.745 284.737C296.75 284.176 296.828 283.661 296.979 283.192C297.136 282.723 297.351 282.32 297.624 281.983C297.902 281.646 298.234 281.388 298.62 281.207C299.006 281.021 299.436 280.929 299.909 280.929C300.29 280.929 300.634 280.982 300.942 281.09C301.254 281.192 301.521 281.361 301.74 281.595C301.965 281.83 302.136 282.135 302.253 282.511C302.37 282.882 302.429 283.338 302.429 283.88V289H300.656V283.873C300.656 283.492 300.6 283.192 300.488 282.972C300.38 282.748 300.222 282.589 300.012 282.496C299.807 282.398 299.55 282.35 299.243 282.35C298.94 282.35 298.669 282.413 298.43 282.54C298.19 282.667 297.988 282.84 297.822 283.06C297.661 283.28 297.536 283.534 297.448 283.822C297.36 284.11 297.316 284.417 297.316 284.745ZM309.306 281.075H310.91V288.78C310.91 289.493 310.759 290.099 310.456 290.597C310.153 291.095 309.731 291.473 309.189 291.732C308.647 291.996 308.02 292.127 307.307 292.127C307.004 292.127 306.667 292.083 306.296 291.996C305.93 291.908 305.573 291.766 305.227 291.571C304.885 291.38 304.599 291.129 304.37 290.816L305.197 289.776C305.48 290.113 305.793 290.36 306.135 290.516C306.477 290.672 306.835 290.75 307.211 290.75C307.617 290.75 307.961 290.675 308.244 290.523C308.532 290.377 308.754 290.16 308.911 289.872C309.067 289.583 309.145 289.232 309.145 288.817V282.87L309.306 281.075ZM303.923 285.125V284.972C303.923 284.371 303.996 283.824 304.143 283.331C304.289 282.833 304.499 282.406 304.772 282.049C305.046 281.688 305.378 281.412 305.769 281.222C306.159 281.026 306.601 280.929 307.094 280.929C307.607 280.929 308.044 281.021 308.405 281.207C308.771 281.393 309.077 281.659 309.321 282.005C309.565 282.347 309.755 282.757 309.892 283.236C310.034 283.709 310.139 284.237 310.207 284.818V285.309C310.144 285.875 310.036 286.393 309.885 286.861C309.733 287.33 309.533 287.735 309.284 288.077C309.035 288.419 308.728 288.683 308.361 288.868C308 289.054 307.573 289.146 307.08 289.146C306.596 289.146 306.159 289.046 305.769 288.846C305.383 288.646 305.051 288.365 304.772 288.004C304.499 287.643 304.289 287.218 304.143 286.729C303.996 286.236 303.923 285.702 303.923 285.125ZM305.688 284.972V285.125C305.688 285.487 305.722 285.824 305.791 286.136C305.864 286.449 305.974 286.725 306.12 286.964C306.271 287.198 306.462 287.384 306.691 287.521C306.926 287.652 307.202 287.718 307.519 287.718C307.934 287.718 308.273 287.63 308.537 287.455C308.806 287.279 309.011 287.042 309.152 286.744C309.299 286.441 309.401 286.104 309.46 285.733V284.408C309.431 284.12 309.37 283.851 309.277 283.602C309.189 283.353 309.069 283.136 308.918 282.95C308.767 282.76 308.576 282.613 308.347 282.511C308.117 282.403 307.846 282.35 307.534 282.35C307.216 282.35 306.94 282.418 306.706 282.555C306.472 282.691 306.279 282.879 306.127 283.119C305.981 283.358 305.871 283.636 305.798 283.954C305.725 284.271 305.688 284.61 305.688 284.972ZM319.75 289H317.473L317.487 287.542H319.75C320.41 287.542 320.961 287.398 321.406 287.11C321.855 286.822 322.192 286.41 322.417 285.873C322.646 285.335 322.761 284.696 322.761 283.954V283.375C322.761 282.799 322.695 282.289 322.563 281.844C322.436 281.4 322.246 281.026 321.992 280.724C321.743 280.421 321.435 280.191 321.069 280.035C320.708 279.879 320.29 279.801 319.816 279.801H317.429V278.336H319.816C320.524 278.336 321.171 278.456 321.757 278.695C322.343 278.929 322.849 279.269 323.273 279.713C323.703 280.157 324.033 280.689 324.262 281.31C324.492 281.93 324.606 282.623 324.606 283.39V283.954C324.606 284.72 324.492 285.414 324.262 286.034C324.033 286.654 323.703 287.186 323.273 287.63C322.844 288.07 322.331 288.409 321.735 288.648C321.145 288.883 320.483 289 319.75 289ZM318.491 278.336V289H316.652V278.336H318.491ZM330.744 287.411V283.631C330.744 283.348 330.693 283.104 330.59 282.899C330.488 282.694 330.332 282.535 330.122 282.423C329.917 282.311 329.658 282.254 329.345 282.254C329.057 282.254 328.808 282.303 328.598 282.401C328.388 282.499 328.225 282.63 328.107 282.796C327.99 282.962 327.932 283.15 327.932 283.36H326.174C326.174 283.048 326.25 282.745 326.401 282.452C326.552 282.159 326.772 281.898 327.06 281.668C327.348 281.439 327.692 281.258 328.093 281.126C328.493 280.995 328.942 280.929 329.44 280.929C330.036 280.929 330.563 281.029 331.022 281.229C331.486 281.429 331.85 281.732 332.114 282.137C332.382 282.538 332.517 283.041 332.517 283.646V287.169C332.517 287.53 332.541 287.855 332.59 288.143C332.644 288.426 332.719 288.673 332.817 288.883V289H331.008C330.925 288.81 330.859 288.568 330.81 288.275C330.766 287.977 330.744 287.689 330.744 287.411ZM331 284.181L331.015 285.272H329.748C329.421 285.272 329.133 285.304 328.884 285.367C328.635 285.426 328.427 285.514 328.261 285.631C328.095 285.748 327.971 285.89 327.888 286.056C327.805 286.222 327.763 286.41 327.763 286.62C327.763 286.83 327.812 287.022 327.91 287.198C328.007 287.369 328.149 287.503 328.334 287.601C328.525 287.699 328.754 287.748 329.023 287.748C329.384 287.748 329.699 287.674 329.968 287.528C330.241 287.376 330.456 287.193 330.612 286.979C330.769 286.759 330.852 286.551 330.861 286.356L331.433 287.14C331.374 287.34 331.274 287.555 331.132 287.784C330.991 288.014 330.805 288.233 330.576 288.443C330.351 288.648 330.08 288.817 329.763 288.949C329.45 289.081 329.089 289.146 328.679 289.146C328.161 289.146 327.7 289.044 327.294 288.839C326.889 288.629 326.572 288.348 326.342 287.997C326.113 287.64 325.998 287.237 325.998 286.788C325.998 286.368 326.076 285.997 326.232 285.675C326.394 285.348 326.628 285.074 326.936 284.854C327.248 284.635 327.629 284.469 328.078 284.356C328.527 284.239 329.04 284.181 329.616 284.181H331ZM337.995 281.075V282.364H333.527V281.075H337.995ZM334.816 279.134H336.582V286.81C336.582 287.054 336.616 287.242 336.684 287.374C336.757 287.501 336.857 287.586 336.984 287.63C337.111 287.674 337.26 287.696 337.431 287.696C337.553 287.696 337.67 287.689 337.783 287.674C337.895 287.66 337.985 287.645 338.054 287.63L338.061 288.978C337.915 289.022 337.744 289.061 337.548 289.095C337.358 289.129 337.138 289.146 336.889 289.146C336.484 289.146 336.125 289.076 335.812 288.934C335.5 288.788 335.256 288.551 335.08 288.224C334.904 287.896 334.816 287.462 334.816 286.92V279.134ZM343.825 287.411V283.631C343.825 283.348 343.774 283.104 343.671 282.899C343.569 282.694 343.413 282.535 343.203 282.423C342.998 282.311 342.739 282.254 342.426 282.254C342.138 282.254 341.889 282.303 341.679 282.401C341.469 282.499 341.306 282.63 341.188 282.796C341.071 282.962 341.013 283.15 341.013 283.36H339.255C339.255 283.048 339.331 282.745 339.482 282.452C339.633 282.159 339.853 281.898 340.141 281.668C340.429 281.439 340.773 281.258 341.174 281.126C341.574 280.995 342.023 280.929 342.521 280.929C343.117 280.929 343.645 281.029 344.104 281.229C344.567 281.429 344.931 281.732 345.195 282.137C345.463 282.538 345.598 283.041 345.598 283.646V287.169C345.598 287.53 345.622 287.855 345.671 288.143C345.725 288.426 345.8 288.673 345.898 288.883V289H344.089C344.006 288.81 343.94 288.568 343.891 288.275C343.847 287.977 343.825 287.689 343.825 287.411ZM344.082 284.181L344.096 285.272H342.829C342.502 285.272 342.214 285.304 341.965 285.367C341.716 285.426 341.508 285.514 341.342 285.631C341.176 285.748 341.052 285.89 340.969 286.056C340.886 286.222 340.844 286.41 340.844 286.62C340.844 286.83 340.893 287.022 340.991 287.198C341.088 287.369 341.23 287.503 341.416 287.601C341.606 287.699 341.835 287.748 342.104 287.748C342.465 287.748 342.78 287.674 343.049 287.528C343.322 287.376 343.537 287.193 343.693 286.979C343.85 286.759 343.933 286.551 343.942 286.356L344.514 287.14C344.455 287.34 344.355 287.555 344.213 287.784C344.072 288.014 343.886 288.233 343.657 288.443C343.432 288.648 343.161 288.817 342.844 288.949C342.531 289.081 342.17 289.146 341.76 289.146C341.242 289.146 340.781 289.044 340.375 288.839C339.97 288.629 339.653 288.348 339.423 287.997C339.194 287.64 339.079 287.237 339.079 286.788C339.079 286.368 339.157 285.997 339.313 285.675C339.475 285.348 339.709 285.074 340.017 284.854C340.329 284.635 340.71 284.469 341.159 284.356C341.608 284.239 342.121 284.181 342.697 284.181H344.082ZM347.517 288.121C347.517 287.848 347.609 287.618 347.795 287.433C347.98 287.242 348.232 287.147 348.549 287.147C348.872 287.147 349.123 287.242 349.304 287.433C349.489 287.618 349.582 287.848 349.582 288.121C349.582 288.395 349.489 288.624 349.304 288.81C349.123 288.995 348.872 289.088 348.549 289.088C348.232 289.088 347.98 288.995 347.795 288.81C347.609 288.624 347.517 288.395 347.517 288.121ZM351.691 288.121C351.691 287.848 351.784 287.618 351.97 287.433C352.155 287.242 352.407 287.147 352.724 287.147C353.046 287.147 353.298 287.242 353.479 287.433C353.664 287.618 353.757 287.848 353.757 288.121C353.757 288.395 353.664 288.624 353.479 288.81C353.298 288.995 353.046 289.088 352.724 289.088C352.407 289.088 352.155 288.995 351.97 288.81C351.784 288.624 351.691 288.395 351.691 288.121ZM355.866 288.121C355.866 287.848 355.959 287.618 356.145 287.433C356.33 287.242 356.582 287.147 356.899 287.147C357.221 287.147 357.473 287.242 357.653 287.433C357.839 287.618 357.932 287.848 357.932 288.121C357.932 288.395 357.839 288.624 357.653 288.81C357.473 288.995 357.221 289.088 356.899 289.088C356.582 289.088 356.33 288.995 356.145 288.81C355.959 288.624 355.866 288.395 355.866 288.121Z" fill="#1A1A1A"/>
<rect x="258" y="304" width="400" height="4" rx="2" fill="#F2F2F2"/>
<rect x="258" y="304" width="220" height="4" fill="#0059FF"/>
<rect x="0.5" y="0.5" width="799" height="347" rx="7.5" stroke="#F2F2F2"/>
</svg>
