<svg width="800" height="200" viewBox="0 0 800 200" fill="none" xmlns="http://www.w3.org/2000/svg">
<rect x="0.5" y="0.5" width="799" height="199" rx="7.5" fill="white"/>
<path d="M47.7637 91.5425V93H42.4097V91.5425H47.7637ZM42.9224 82.3359V93H41.084V82.3359H42.9224ZM48.6719 89.1255V88.957C48.6719 88.3857 48.7549 87.856 48.9209 87.3677C49.0869 86.8745 49.3262 86.4473 49.6387 86.0859C49.9561 85.7197 50.3418 85.4365 50.7959 85.2363C51.2549 85.0312 51.7725 84.9287 52.3486 84.9287C52.9297 84.9287 53.4473 85.0312 53.9014 85.2363C54.3604 85.4365 54.7485 85.7197 55.0659 86.0859C55.3833 86.4473 55.625 86.8745 55.791 87.3677C55.957 87.856 56.04 88.3857 56.04 88.957V89.1255C56.04 89.6968 55.957 90.2266 55.791 90.7148C55.625 91.2031 55.3833 91.6304 55.0659 91.9966C54.7485 92.3579 54.3628 92.6411 53.9087 92.8462C53.4546 93.0464 52.9395 93.1465 52.3633 93.1465C51.7822 93.1465 51.2622 93.0464 50.8032 92.8462C50.3491 92.6411 49.9634 92.3579 49.646 91.9966C49.3286 91.6304 49.0869 91.2031 48.9209 90.7148C48.7549 90.2266 48.6719 89.6968 48.6719 89.1255ZM50.437 88.957V89.1255C50.437 89.4819 50.4736 89.8188 50.5469 90.1362C50.6201 90.4536 50.7349 90.7319 50.8911 90.9712C51.0474 91.2104 51.2476 91.3984 51.4917 91.5352C51.7358 91.6719 52.0264 91.7402 52.3633 91.7402C52.6904 91.7402 52.9736 91.6719 53.2129 91.5352C53.457 91.3984 53.6572 91.2104 53.8135 90.9712C53.9697 90.7319 54.0845 90.4536 54.1577 90.1362C54.2358 89.8188 54.2749 89.4819 54.2749 89.1255V88.957C54.2749 88.6055 54.2358 88.2734 54.1577 87.9609C54.0845 87.6436 53.9673 87.3628 53.8062 87.1187C53.6499 86.8745 53.4497 86.6841 53.2056 86.5474C52.9663 86.4058 52.6807 86.335 52.3486 86.335C52.0166 86.335 51.7285 86.4058 51.4844 86.5474C51.2451 86.6841 51.0474 86.8745 50.8911 87.1187C50.7349 87.3628 50.6201 87.6436 50.5469 87.9609C50.4736 88.2734 50.437 88.6055 50.437 88.957ZM61.9873 91.4106V87.6313C61.9873 87.3481 61.936 87.104 61.8335 86.8989C61.731 86.6938 61.5747 86.5352 61.3647 86.4229C61.1597 86.3105 60.9009 86.2544 60.5884 86.2544C60.3003 86.2544 60.0513 86.3032 59.8413 86.4009C59.6313 86.4985 59.4678 86.6304 59.3506 86.7964C59.2334 86.9624 59.1748 87.1504 59.1748 87.3604H57.417C57.417 87.0479 57.4927 86.7451 57.644 86.4521C57.7954 86.1592 58.0151 85.8979 58.3032 85.6685C58.5913 85.439 58.9355 85.2583 59.3359 85.1265C59.7363 84.9946 60.1855 84.9287 60.6836 84.9287C61.2793 84.9287 61.8066 85.0288 62.2656 85.229C62.7295 85.4292 63.0933 85.7319 63.3569 86.1372C63.6255 86.5376 63.7598 87.0405 63.7598 87.646V91.1689C63.7598 91.5303 63.7842 91.855 63.833 92.1431C63.8867 92.4263 63.9624 92.6729 64.0601 92.8828V93H62.251C62.168 92.8096 62.1021 92.5679 62.0532 92.2749C62.0093 91.9771 61.9873 91.689 61.9873 91.4106ZM62.2437 88.1807L62.2583 89.272H60.9912C60.6641 89.272 60.376 89.3037 60.127 89.3672C59.8779 89.4258 59.6704 89.5137 59.5044 89.6309C59.3384 89.748 59.2139 89.8896 59.1309 90.0557C59.0479 90.2217 59.0063 90.4097 59.0063 90.6196C59.0063 90.8296 59.0552 91.0225 59.1528 91.1982C59.2505 91.3691 59.3921 91.5034 59.5776 91.6011C59.7681 91.6987 59.9976 91.7476 60.2661 91.7476C60.6274 91.7476 60.9424 91.6743 61.2109 91.5278C61.4844 91.3765 61.6992 91.1934 61.8555 90.9785C62.0117 90.7588 62.0947 90.5513 62.1045 90.356L62.6758 91.1396C62.6172 91.3398 62.5171 91.5547 62.3755 91.7842C62.2339 92.0137 62.0483 92.2334 61.8188 92.4434C61.5942 92.6484 61.3232 92.8169 61.0059 92.9487C60.6934 93.0806 60.332 93.1465 59.9219 93.1465C59.4043 93.1465 58.9429 93.0439 58.5376 92.8389C58.1323 92.6289 57.8149 92.3481 57.5854 91.9966C57.356 91.6401 57.2412 91.2373 57.2412 90.7881C57.2412 90.3682 57.3193 89.9971 57.4756 89.6748C57.6367 89.3477 57.8711 89.0742 58.1787 88.8545C58.4912 88.6348 58.8721 88.4688 59.3213 88.3564C59.7705 88.2393 60.2832 88.1807 60.8594 88.1807H62.2437ZM70.4395 91.3594V81.75H72.2119V93H70.6079L70.4395 91.3594ZM65.2832 89.1255V88.9717C65.2832 88.3711 65.354 87.8242 65.4956 87.3311C65.6372 86.833 65.8423 86.4058 66.1108 86.0493C66.3794 85.688 66.7065 85.4121 67.0923 85.2217C67.478 85.0264 67.9126 84.9287 68.396 84.9287C68.8745 84.9287 69.2944 85.0215 69.6558 85.207C70.0171 85.3926 70.3247 85.6587 70.5786 86.0054C70.8325 86.3472 71.0352 86.7573 71.1865 87.2358C71.3379 87.7095 71.4453 88.2368 71.5088 88.8179V89.3086C71.4453 89.875 71.3379 90.3926 71.1865 90.8613C71.0352 91.3301 70.8325 91.7354 70.5786 92.0771C70.3247 92.4189 70.0146 92.6826 69.6484 92.8682C69.2871 93.0537 68.8647 93.1465 68.3813 93.1465C67.9028 93.1465 67.4707 93.0464 67.085 92.8462C66.7041 92.646 66.3794 92.3652 66.1108 92.0039C65.8423 91.6426 65.6372 91.2178 65.4956 90.7295C65.354 90.2363 65.2832 89.7017 65.2832 89.1255ZM67.0483 88.9717V89.1255C67.0483 89.4868 67.0801 89.8237 67.1436 90.1362C67.2119 90.4487 67.3169 90.7246 67.4585 90.9639C67.6001 91.1982 67.7832 91.3838 68.0078 91.5205C68.2373 91.6523 68.5107 91.7183 68.8281 91.7183C69.2285 91.7183 69.5581 91.6304 69.8169 91.4546C70.0757 91.2788 70.2783 91.042 70.4248 90.7441C70.5762 90.4414 70.6787 90.1045 70.7324 89.7334V88.4077C70.7031 88.1196 70.6421 87.8511 70.5493 87.6021C70.4614 87.353 70.3418 87.1357 70.1904 86.9502C70.0391 86.7598 69.8511 86.6133 69.6265 86.5107C69.4067 86.4033 69.1455 86.3496 68.8428 86.3496C68.5205 86.3496 68.2471 86.418 68.0225 86.5547C67.7979 86.6914 67.6123 86.8794 67.4658 87.1187C67.3242 87.3579 67.2192 87.6362 67.1509 87.9536C67.0825 88.271 67.0483 88.6104 67.0483 88.9717ZM75.9473 85.0752V93H74.1748V85.0752H75.9473ZM74.0576 82.9951C74.0576 82.7266 74.1455 82.5044 74.3213 82.3286C74.502 82.1479 74.751 82.0576 75.0684 82.0576C75.3809 82.0576 75.6274 82.1479 75.8081 82.3286C75.9888 82.5044 76.0791 82.7266 76.0791 82.9951C76.0791 83.2588 75.9888 83.4785 75.8081 83.6543C75.6274 83.8301 75.3809 83.918 75.0684 83.918C74.751 83.918 74.502 83.8301 74.3213 83.6543C74.1455 83.4785 74.0576 83.2588 74.0576 82.9951ZM79.6313 86.7671V93H77.8662V85.0752H79.5288L79.6313 86.7671ZM79.3164 88.7446L78.7451 88.7373C78.75 88.1758 78.8281 87.6606 78.9795 87.1919C79.1357 86.7231 79.3506 86.3203 79.624 85.9834C79.9023 85.6465 80.2344 85.3877 80.6201 85.207C81.0059 85.0215 81.4355 84.9287 81.9092 84.9287C82.29 84.9287 82.6343 84.9824 82.9419 85.0898C83.2544 85.1924 83.5205 85.3608 83.7402 85.5952C83.9648 85.8296 84.1357 86.1348 84.2529 86.5107C84.3701 86.8818 84.4287 87.3384 84.4287 87.8804V93H82.6562V87.873C82.6562 87.4922 82.6001 87.1919 82.4878 86.9722C82.3804 86.7476 82.2217 86.5889 82.0117 86.4961C81.8066 86.3984 81.5503 86.3496 81.2427 86.3496C80.9399 86.3496 80.6689 86.4131 80.4297 86.54C80.1904 86.667 79.9878 86.8403 79.8218 87.0601C79.6606 87.2798 79.5361 87.5337 79.4482 87.8218C79.3604 88.1099 79.3164 88.4175 79.3164 88.7446ZM91.3062 85.0752H92.9102V92.7803C92.9102 93.4932 92.7588 94.0986 92.4561 94.5967C92.1533 95.0947 91.731 95.4731 91.189 95.7319C90.647 95.9956 90.0195 96.1274 89.3066 96.1274C89.0039 96.1274 88.667 96.0835 88.2959 95.9956C87.9297 95.9077 87.5732 95.7661 87.2266 95.5708C86.8848 95.3804 86.5991 95.1289 86.3696 94.8164L87.1973 93.7764C87.4805 94.1133 87.793 94.3599 88.1348 94.5161C88.4766 94.6724 88.8354 94.7505 89.2114 94.7505C89.6167 94.7505 89.9609 94.6748 90.2441 94.5234C90.5322 94.377 90.7544 94.1597 90.9106 93.8716C91.0669 93.5835 91.145 93.2319 91.145 92.8169V86.8696L91.3062 85.0752ZM85.9229 89.1255V88.9717C85.9229 88.3711 85.9961 87.8242 86.1426 87.3311C86.2891 86.833 86.499 86.4058 86.7725 86.0493C87.0459 85.688 87.3779 85.4121 87.7686 85.2217C88.1592 85.0264 88.6011 84.9287 89.0942 84.9287C89.6069 84.9287 90.0439 85.0215 90.4053 85.207C90.7715 85.3926 91.0767 85.6587 91.3208 86.0054C91.5649 86.3472 91.7554 86.7573 91.8921 87.2358C92.0337 87.7095 92.1387 88.2368 92.207 88.8179V89.3086C92.1436 89.875 92.0361 90.3926 91.8848 90.8613C91.7334 91.3301 91.5332 91.7354 91.2842 92.0771C91.0352 92.4189 90.7275 92.6826 90.3613 92.8682C90 93.0537 89.5728 93.1465 89.0796 93.1465C88.5962 93.1465 88.1592 93.0464 87.7686 92.8462C87.3828 92.646 87.0508 92.3652 86.7725 92.0039C86.499 91.6426 86.2891 91.2178 86.1426 90.7295C85.9961 90.2363 85.9229 89.7017 85.9229 89.1255ZM87.688 88.9717V89.1255C87.688 89.4868 87.7222 89.8237 87.7905 90.1362C87.8638 90.4487 87.9736 90.7246 88.1201 90.9639C88.2715 91.1982 88.4619 91.3838 88.6914 91.5205C88.9258 91.6523 89.2017 91.7183 89.519 91.7183C89.9341 91.7183 90.2734 91.6304 90.5371 91.4546C90.8057 91.2788 91.0107 91.042 91.1523 90.7441C91.2988 90.4414 91.4014 90.1045 91.46 89.7334V88.4077C91.4307 88.1196 91.3696 87.8511 91.2769 87.6021C91.189 87.353 91.0693 87.1357 90.918 86.9502C90.7666 86.7598 90.5762 86.6133 90.3467 86.5107C90.1172 86.4033 89.8462 86.3496 89.5337 86.3496C89.2163 86.3496 88.9404 86.418 88.7061 86.5547C88.4717 86.6914 88.2788 86.8794 88.1274 87.1187C87.981 87.3579 87.8711 87.6362 87.7979 87.9536C87.7246 88.271 87.688 88.6104 87.688 88.9717ZM101.75 93H99.4727L99.4873 91.5425H101.75C102.41 91.5425 102.961 91.3984 103.406 91.1104C103.855 90.8223 104.192 90.4097 104.417 89.8726C104.646 89.3354 104.761 88.6958 104.761 87.9536V87.375C104.761 86.7988 104.695 86.2886 104.563 85.8442C104.436 85.3999 104.246 85.0264 103.992 84.7236C103.743 84.4209 103.435 84.1914 103.069 84.0352C102.708 83.8789 102.29 83.8008 101.816 83.8008H99.4287V82.3359H101.816C102.524 82.3359 103.171 82.4556 103.757 82.6948C104.343 82.9292 104.849 83.2686 105.273 83.7129C105.703 84.1572 106.033 84.6895 106.262 85.3096C106.492 85.9297 106.606 86.623 106.606 87.3896V87.9536C106.606 88.7202 106.492 89.4136 106.262 90.0337C106.033 90.6538 105.703 91.186 105.273 91.6304C104.844 92.0698 104.331 92.4092 103.735 92.6484C103.145 92.8828 102.483 93 101.75 93ZM100.491 82.3359V93H98.6523V82.3359H100.491ZM112.744 91.4106V87.6313C112.744 87.3481 112.693 87.104 112.59 86.8989C112.488 86.6938 112.332 86.5352 112.122 86.4229C111.917 86.3105 111.658 86.2544 111.345 86.2544C111.057 86.2544 110.808 86.3032 110.598 86.4009C110.388 86.4985 110.225 86.6304 110.107 86.7964C109.99 86.9624 109.932 87.1504 109.932 87.3604H108.174C108.174 87.0479 108.25 86.7451 108.401 86.4521C108.552 86.1592 108.772 85.8979 109.06 85.6685C109.348 85.439 109.692 85.2583 110.093 85.1265C110.493 84.9946 110.942 84.9287 111.44 84.9287C112.036 84.9287 112.563 85.0288 113.022 85.229C113.486 85.4292 113.85 85.7319 114.114 86.1372C114.382 86.5376 114.517 87.0405 114.517 87.646V91.1689C114.517 91.5303 114.541 91.855 114.59 92.1431C114.644 92.4263 114.719 92.6729 114.817 92.8828V93H113.008C112.925 92.8096 112.859 92.5679 112.81 92.2749C112.766 91.9771 112.744 91.689 112.744 91.4106ZM113 88.1807L113.015 89.272H111.748C111.421 89.272 111.133 89.3037 110.884 89.3672C110.635 89.4258 110.427 89.5137 110.261 89.6309C110.095 89.748 109.971 89.8896 109.888 90.0557C109.805 90.2217 109.763 90.4097 109.763 90.6196C109.763 90.8296 109.812 91.0225 109.91 91.1982C110.007 91.3691 110.149 91.5034 110.334 91.6011C110.525 91.6987 110.754 91.7476 111.023 91.7476C111.384 91.7476 111.699 91.6743 111.968 91.5278C112.241 91.3765 112.456 91.1934 112.612 90.9785C112.769 90.7588 112.852 90.5513 112.861 90.356L113.433 91.1396C113.374 91.3398 113.274 91.5547 113.132 91.7842C112.991 92.0137 112.805 92.2334 112.576 92.4434C112.351 92.6484 112.08 92.8169 111.763 92.9487C111.45 93.0806 111.089 93.1465 110.679 93.1465C110.161 93.1465 109.7 93.0439 109.294 92.8389C108.889 92.6289 108.572 92.3481 108.342 91.9966C108.113 91.6401 107.998 91.2373 107.998 90.7881C107.998 90.3682 108.076 89.9971 108.232 89.6748C108.394 89.3477 108.628 89.0742 108.936 88.8545C109.248 88.6348 109.629 88.4688 110.078 88.3564C110.527 88.2393 111.04 88.1807 111.616 88.1807H113ZM119.995 85.0752V86.3643H115.527V85.0752H119.995ZM116.816 83.1343H118.582V90.8101C118.582 91.0542 118.616 91.2422 118.684 91.374C118.757 91.501 118.857 91.5864 118.984 91.6304C119.111 91.6743 119.26 91.6963 119.431 91.6963C119.553 91.6963 119.67 91.689 119.783 91.6743C119.895 91.6597 119.985 91.645 120.054 91.6304L120.061 92.978C119.915 93.022 119.744 93.061 119.548 93.0952C119.358 93.1294 119.138 93.1465 118.889 93.1465C118.484 93.1465 118.125 93.0757 117.812 92.9341C117.5 92.7876 117.256 92.5508 117.08 92.2236C116.904 91.8965 116.816 91.4619 116.816 90.9199V83.1343ZM125.825 91.4106V87.6313C125.825 87.3481 125.774 87.104 125.671 86.8989C125.569 86.6938 125.413 86.5352 125.203 86.4229C124.998 86.3105 124.739 86.2544 124.426 86.2544C124.138 86.2544 123.889 86.3032 123.679 86.4009C123.469 86.4985 123.306 86.6304 123.188 86.7964C123.071 86.9624 123.013 87.1504 123.013 87.3604H121.255C121.255 87.0479 121.331 86.7451 121.482 86.4521C121.633 86.1592 121.853 85.8979 122.141 85.6685C122.429 85.439 122.773 85.2583 123.174 85.1265C123.574 84.9946 124.023 84.9287 124.521 84.9287C125.117 84.9287 125.645 85.0288 126.104 85.229C126.567 85.4292 126.931 85.7319 127.195 86.1372C127.463 86.5376 127.598 87.0405 127.598 87.646V91.1689C127.598 91.5303 127.622 91.855 127.671 92.1431C127.725 92.4263 127.8 92.6729 127.898 92.8828V93H126.089C126.006 92.8096 125.94 92.5679 125.891 92.2749C125.847 91.9771 125.825 91.689 125.825 91.4106ZM126.082 88.1807L126.096 89.272H124.829C124.502 89.272 124.214 89.3037 123.965 89.3672C123.716 89.4258 123.508 89.5137 123.342 89.6309C123.176 89.748 123.052 89.8896 122.969 90.0557C122.886 90.2217 122.844 90.4097 122.844 90.6196C122.844 90.8296 122.893 91.0225 122.991 91.1982C123.088 91.3691 123.23 91.5034 123.416 91.6011C123.606 91.6987 123.835 91.7476 124.104 91.7476C124.465 91.7476 124.78 91.6743 125.049 91.5278C125.322 91.3765 125.537 91.1934 125.693 90.9785C125.85 90.7588 125.933 90.5513 125.942 90.356L126.514 91.1396C126.455 91.3398 126.355 91.5547 126.213 91.7842C126.072 92.0137 125.886 92.2334 125.657 92.4434C125.432 92.6484 125.161 92.8169 124.844 92.9487C124.531 93.0806 124.17 93.1465 123.76 93.1465C123.242 93.1465 122.781 93.0439 122.375 92.8389C121.97 92.6289 121.653 92.3481 121.423 91.9966C121.194 91.6401 121.079 91.2373 121.079 90.7881C121.079 90.3682 121.157 89.9971 121.313 89.6748C121.475 89.3477 121.709 89.0742 122.017 88.8545C122.329 88.6348 122.71 88.4688 123.159 88.3564C123.608 88.2393 124.121 88.1807 124.697 88.1807H126.082ZM129.517 92.1211C129.517 91.8477 129.609 91.6182 129.795 91.4326C129.98 91.2422 130.232 91.147 130.549 91.147C130.872 91.147 131.123 91.2422 131.304 91.4326C131.489 91.6182 131.582 91.8477 131.582 92.1211C131.582 92.3945 131.489 92.624 131.304 92.8096C131.123 92.9951 130.872 93.0879 130.549 93.0879C130.232 93.0879 129.98 92.9951 129.795 92.8096C129.609 92.624 129.517 92.3945 129.517 92.1211ZM133.691 92.1211C133.691 91.8477 133.784 91.6182 133.97 91.4326C134.155 91.2422 134.407 91.147 134.724 91.147C135.046 91.147 135.298 91.2422 135.479 91.4326C135.664 91.6182 135.757 91.8477 135.757 92.1211C135.757 92.3945 135.664 92.624 135.479 92.8096C135.298 92.9951 135.046 93.0879 134.724 93.0879C134.407 93.0879 134.155 92.9951 133.97 92.8096C133.784 92.624 133.691 92.3945 133.691 92.1211ZM137.866 92.1211C137.866 91.8477 137.959 91.6182 138.145 91.4326C138.33 91.2422 138.582 91.147 138.899 91.147C139.221 91.147 139.473 91.2422 139.653 91.4326C139.839 91.6182 139.932 91.8477 139.932 92.1211C139.932 92.3945 139.839 92.624 139.653 92.8096C139.473 92.9951 139.221 93.0879 138.899 93.0879C138.582 93.0879 138.33 92.9951 138.145 92.8096C137.959 92.624 137.866 92.3945 137.866 92.1211Z" fill="#1A1A1A"/>
<path d="M351.018 87.9243L349.934 87.646L350.469 82.3359H355.94V83.5884H351.619L351.296 86.4888C351.492 86.3765 351.738 86.2715 352.036 86.1738C352.339 86.0762 352.686 86.0273 353.076 86.0273C353.569 86.0273 354.011 86.1128 354.402 86.2837C354.792 86.4497 355.125 86.689 355.398 87.0015C355.676 87.314 355.889 87.6899 356.035 88.1294C356.182 88.5688 356.255 89.0596 356.255 89.6016C356.255 90.1143 356.184 90.5854 356.042 91.0151C355.906 91.4448 355.698 91.8208 355.42 92.1431C355.142 92.4604 354.79 92.707 354.365 92.8828C353.945 93.0586 353.45 93.1465 352.878 93.1465C352.449 93.1465 352.041 93.0879 351.655 92.9707C351.274 92.8486 350.933 92.6655 350.63 92.4214C350.332 92.1724 350.088 91.8647 349.897 91.4985C349.712 91.1274 349.595 90.6929 349.546 90.1948H350.835C350.894 90.5952 351.011 90.9321 351.187 91.2056C351.362 91.479 351.592 91.6865 351.875 91.8281C352.163 91.9648 352.498 92.0332 352.878 92.0332C353.201 92.0332 353.486 91.9771 353.735 91.8647C353.984 91.7524 354.194 91.5913 354.365 91.3813C354.536 91.1714 354.666 90.9175 354.753 90.6196C354.846 90.3218 354.893 89.9873 354.893 89.6162C354.893 89.2793 354.846 88.9668 354.753 88.6787C354.661 88.3906 354.521 88.1392 354.336 87.9243C354.155 87.7095 353.933 87.5435 353.669 87.4263C353.406 87.3042 353.103 87.2432 352.761 87.2432C352.307 87.2432 351.963 87.3042 351.729 87.4263C351.499 87.5483 351.262 87.7144 351.018 87.9243ZM364.436 86.8184V88.4443C364.436 89.3184 364.358 90.0557 364.202 90.6562C364.045 91.2568 363.821 91.7402 363.528 92.1064C363.235 92.4727 362.881 92.7388 362.466 92.9048C362.056 93.0659 361.592 93.1465 361.074 93.1465C360.664 93.1465 360.286 93.0952 359.939 92.9927C359.592 92.8901 359.28 92.7266 359.001 92.502C358.728 92.2725 358.494 91.9746 358.298 91.6084C358.103 91.2422 357.954 90.7979 357.852 90.2754C357.749 89.7529 357.698 89.1426 357.698 88.4443V86.8184C357.698 85.9443 357.776 85.2119 357.932 84.6211C358.093 84.0303 358.32 83.5566 358.613 83.2002C358.906 82.8389 359.258 82.5801 359.668 82.4238C360.083 82.2676 360.547 82.1895 361.06 82.1895C361.475 82.1895 361.855 82.2407 362.202 82.3433C362.554 82.4409 362.866 82.5996 363.14 82.8193C363.413 83.0342 363.645 83.3223 363.835 83.6836C364.031 84.04 364.18 84.4771 364.282 84.9946C364.385 85.5122 364.436 86.1201 364.436 86.8184ZM363.074 88.6641V86.5913C363.074 86.1128 363.044 85.6929 362.986 85.3315C362.932 84.9653 362.852 84.6528 362.744 84.394C362.637 84.1353 362.5 83.9253 362.334 83.7642C362.173 83.603 361.985 83.4858 361.77 83.4126C361.56 83.3345 361.323 83.2954 361.06 83.2954C360.737 83.2954 360.452 83.3564 360.203 83.4785C359.954 83.5957 359.744 83.7837 359.573 84.0425C359.407 84.3013 359.28 84.6406 359.192 85.0605C359.104 85.4805 359.06 85.9907 359.06 86.5913V88.6641C359.06 89.1426 359.087 89.5649 359.141 89.9312C359.199 90.2974 359.285 90.6147 359.397 90.8833C359.509 91.147 359.646 91.3643 359.807 91.5352C359.968 91.7061 360.154 91.833 360.364 91.916C360.579 91.9941 360.815 92.0332 361.074 92.0332C361.406 92.0332 361.697 91.9697 361.946 91.8428C362.195 91.7158 362.402 91.5181 362.568 91.2495C362.739 90.9761 362.866 90.627 362.949 90.2021C363.032 89.7725 363.074 89.2598 363.074 88.6641ZM369.783 84.9507V84.3867C369.783 83.9814 369.871 83.6128 370.046 83.2808C370.222 82.9487 370.474 82.6826 370.801 82.4824C371.128 82.2822 371.516 82.1821 371.965 82.1821C372.424 82.1821 372.815 82.2822 373.137 82.4824C373.464 82.6826 373.716 82.9487 373.892 83.2808C374.067 83.6128 374.155 83.9814 374.155 84.3867V84.9507C374.155 85.3462 374.067 85.71 373.892 86.042C373.721 86.374 373.472 86.6401 373.145 86.8403C372.822 87.0405 372.434 87.1406 371.98 87.1406C371.526 87.1406 371.133 87.0405 370.801 86.8403C370.474 86.6401 370.222 86.374 370.046 86.042C369.871 85.71 369.783 85.3462 369.783 84.9507ZM370.801 84.3867V84.9507C370.801 85.1753 370.842 85.3877 370.925 85.5879C371.013 85.7881 371.145 85.9517 371.321 86.0786C371.497 86.2007 371.716 86.2617 371.98 86.2617C372.244 86.2617 372.461 86.2007 372.632 86.0786C372.803 85.9517 372.93 85.7881 373.013 85.5879C373.096 85.3877 373.137 85.1753 373.137 84.9507V84.3867C373.137 84.1572 373.093 83.9424 373.005 83.7422C372.922 83.5371 372.793 83.3735 372.617 83.2515C372.446 83.1245 372.229 83.061 371.965 83.061C371.707 83.061 371.489 83.1245 371.313 83.2515C371.143 83.3735 371.013 83.5371 370.925 83.7422C370.842 83.9424 370.801 84.1572 370.801 84.3867ZM374.976 90.9565V90.3853C374.976 89.9849 375.063 89.6187 375.239 89.2866C375.415 88.9546 375.667 88.6885 375.994 88.4883C376.321 88.2881 376.709 88.188 377.158 88.188C377.617 88.188 378.008 88.2881 378.33 88.4883C378.657 88.6885 378.909 88.9546 379.084 89.2866C379.26 89.6187 379.348 89.9849 379.348 90.3853V90.9565C379.348 91.3569 379.26 91.7231 379.084 92.0552C378.914 92.3872 378.665 92.6533 378.337 92.8535C378.015 93.0537 377.627 93.1538 377.173 93.1538C376.719 93.1538 376.328 93.0537 376.001 92.8535C375.674 92.6533 375.42 92.3872 375.239 92.0552C375.063 91.7231 374.976 91.3569 374.976 90.9565ZM375.994 90.3853V90.9565C375.994 91.1812 376.035 91.396 376.118 91.6011C376.206 91.8013 376.338 91.9648 376.514 92.0918C376.689 92.2139 376.909 92.2749 377.173 92.2749C377.437 92.2749 377.654 92.2139 377.825 92.0918C378 91.9648 378.13 91.8013 378.213 91.6011C378.296 91.4009 378.337 91.186 378.337 90.9565V90.3853C378.337 90.1558 378.293 89.9409 378.206 89.7407C378.123 89.5405 377.993 89.3794 377.817 89.2573C377.646 89.1304 377.427 89.0669 377.158 89.0669C376.899 89.0669 376.682 89.1304 376.506 89.2573C376.335 89.3794 376.206 89.5405 376.118 89.7407C376.035 89.9409 375.994 90.1558 375.994 90.3853ZM377.495 83.8521L372.288 92.187L371.526 91.7036L376.733 83.3687L377.495 83.8521Z" fill="#505050"/>
<rect x="40" y="108" width="340" height="4" rx="2" fill="#F2F2F2"/>
<rect x="40" y="108" width="160" height="4" fill="#286EF1"/>
<path d="M194.383 141.528H196.214C196.155 142.227 195.96 142.849 195.628 143.396C195.296 143.938 194.83 144.365 194.229 144.678C193.628 144.99 192.898 145.146 192.039 145.146C191.38 145.146 190.787 145.029 190.259 144.795C189.732 144.556 189.28 144.219 188.904 143.784C188.528 143.345 188.24 142.815 188.04 142.195C187.845 141.575 187.747 140.881 187.747 140.115V139.229C187.747 138.462 187.847 137.769 188.047 137.148C188.252 136.528 188.545 135.999 188.926 135.559C189.307 135.115 189.764 134.775 190.296 134.541C190.833 134.307 191.436 134.189 192.105 134.189C192.955 134.189 193.672 134.346 194.258 134.658C194.844 134.971 195.298 135.403 195.621 135.955C195.948 136.506 196.148 137.139 196.221 137.852H194.39C194.341 137.393 194.234 137 194.068 136.672C193.907 136.345 193.667 136.096 193.35 135.925C193.033 135.75 192.618 135.662 192.105 135.662C191.685 135.662 191.319 135.74 191.006 135.896C190.694 136.052 190.433 136.282 190.223 136.584C190.013 136.887 189.854 137.261 189.747 137.705C189.644 138.145 189.593 138.647 189.593 139.214V140.115C189.593 140.652 189.639 141.14 189.732 141.58C189.83 142.014 189.976 142.388 190.171 142.7C190.372 143.013 190.625 143.254 190.933 143.425C191.241 143.596 191.609 143.682 192.039 143.682C192.562 143.682 192.984 143.599 193.306 143.433C193.633 143.267 193.88 143.025 194.046 142.708C194.217 142.385 194.329 141.992 194.383 141.528ZM202.176 143.411V139.631C202.176 139.348 202.125 139.104 202.022 138.899C201.919 138.694 201.763 138.535 201.553 138.423C201.348 138.311 201.089 138.254 200.777 138.254C200.489 138.254 200.24 138.303 200.03 138.401C199.82 138.499 199.656 138.63 199.539 138.796C199.422 138.962 199.363 139.15 199.363 139.36H197.605C197.605 139.048 197.681 138.745 197.833 138.452C197.984 138.159 198.204 137.898 198.492 137.668C198.78 137.439 199.124 137.258 199.524 137.126C199.925 136.995 200.374 136.929 200.872 136.929C201.468 136.929 201.995 137.029 202.454 137.229C202.918 137.429 203.282 137.732 203.545 138.137C203.814 138.538 203.948 139.041 203.948 139.646V143.169C203.948 143.53 203.973 143.855 204.021 144.143C204.075 144.426 204.151 144.673 204.249 144.883V145H202.439C202.356 144.81 202.291 144.568 202.242 144.275C202.198 143.977 202.176 143.689 202.176 143.411ZM202.432 140.181L202.447 141.272H201.18C200.853 141.272 200.564 141.304 200.315 141.367C200.066 141.426 199.859 141.514 199.693 141.631C199.527 141.748 199.402 141.89 199.319 142.056C199.236 142.222 199.195 142.41 199.195 142.62C199.195 142.83 199.244 143.022 199.341 143.198C199.439 143.369 199.581 143.503 199.766 143.601C199.957 143.699 200.186 143.748 200.455 143.748C200.816 143.748 201.131 143.674 201.399 143.528C201.673 143.376 201.888 143.193 202.044 142.979C202.2 142.759 202.283 142.551 202.293 142.356L202.864 143.14C202.806 143.34 202.706 143.555 202.564 143.784C202.422 144.014 202.237 144.233 202.007 144.443C201.783 144.648 201.512 144.817 201.194 144.949C200.882 145.081 200.521 145.146 200.11 145.146C199.593 145.146 199.131 145.044 198.726 144.839C198.321 144.629 198.003 144.348 197.774 143.997C197.544 143.64 197.43 143.237 197.43 142.788C197.43 142.368 197.508 141.997 197.664 141.675C197.825 141.348 198.06 141.074 198.367 140.854C198.68 140.635 199.061 140.469 199.51 140.356C199.959 140.239 200.472 140.181 201.048 140.181H202.432ZM207.544 138.767V145H205.779V137.075H207.442L207.544 138.767ZM207.229 140.745L206.658 140.737C206.663 140.176 206.741 139.661 206.893 139.192C207.049 138.723 207.264 138.32 207.537 137.983C207.815 137.646 208.147 137.388 208.533 137.207C208.919 137.021 209.349 136.929 209.822 136.929C210.203 136.929 210.547 136.982 210.855 137.09C211.167 137.192 211.434 137.361 211.653 137.595C211.878 137.83 212.049 138.135 212.166 138.511C212.283 138.882 212.342 139.338 212.342 139.88V145H210.569V139.873C210.569 139.492 210.513 139.192 210.401 138.972C210.293 138.748 210.135 138.589 209.925 138.496C209.72 138.398 209.463 138.35 209.156 138.35C208.853 138.35 208.582 138.413 208.343 138.54C208.104 138.667 207.901 138.84 207.735 139.06C207.574 139.28 207.449 139.534 207.361 139.822C207.273 140.11 207.229 140.417 207.229 140.745ZM217.381 143.74C217.669 143.74 217.928 143.684 218.157 143.572C218.392 143.455 218.58 143.293 218.721 143.088C218.868 142.883 218.948 142.646 218.963 142.378H220.625C220.616 142.891 220.464 143.357 220.171 143.777C219.878 144.197 219.49 144.531 219.007 144.78C218.523 145.024 217.989 145.146 217.403 145.146C216.797 145.146 216.27 145.044 215.821 144.839C215.372 144.629 214.998 144.341 214.7 143.975C214.402 143.608 214.178 143.186 214.026 142.708C213.88 142.229 213.807 141.716 213.807 141.169V140.913C213.807 140.366 213.88 139.854 214.026 139.375C214.178 138.892 214.402 138.467 214.7 138.101C214.998 137.734 215.372 137.449 215.821 137.244C216.27 137.034 216.795 136.929 217.396 136.929C218.03 136.929 218.587 137.056 219.065 137.31C219.544 137.559 219.92 137.908 220.193 138.357C220.472 138.801 220.616 139.319 220.625 139.91H218.963C218.948 139.617 218.875 139.353 218.743 139.119C218.616 138.879 218.436 138.689 218.201 138.547C217.972 138.406 217.696 138.335 217.374 138.335C217.017 138.335 216.722 138.408 216.487 138.555C216.253 138.696 216.07 138.892 215.938 139.141C215.806 139.385 215.711 139.661 215.652 139.968C215.599 140.271 215.572 140.586 215.572 140.913V141.169C215.572 141.497 215.599 141.814 215.652 142.122C215.706 142.429 215.799 142.705 215.931 142.949C216.067 143.188 216.253 143.381 216.487 143.528C216.722 143.669 217.02 143.74 217.381 143.74ZM225.474 145.146C224.888 145.146 224.358 145.051 223.885 144.861C223.416 144.666 223.016 144.395 222.684 144.048C222.356 143.701 222.105 143.293 221.929 142.825C221.753 142.356 221.666 141.851 221.666 141.309V141.016C221.666 140.396 221.756 139.834 221.937 139.331C222.117 138.828 222.369 138.398 222.691 138.042C223.013 137.681 223.394 137.405 223.833 137.214C224.273 137.024 224.749 136.929 225.262 136.929C225.828 136.929 226.324 137.024 226.749 137.214C227.173 137.405 227.525 137.673 227.803 138.02C228.086 138.362 228.296 138.77 228.433 139.243C228.575 139.717 228.646 140.239 228.646 140.811V141.565H222.522V140.298H226.902V140.159C226.893 139.841 226.829 139.543 226.712 139.265C226.6 138.987 226.426 138.762 226.192 138.591C225.958 138.42 225.645 138.335 225.254 138.335C224.961 138.335 224.7 138.398 224.471 138.525C224.246 138.647 224.058 138.826 223.907 139.06C223.755 139.294 223.638 139.578 223.555 139.91C223.477 140.237 223.438 140.605 223.438 141.016V141.309C223.438 141.655 223.484 141.978 223.577 142.275C223.675 142.568 223.816 142.825 224.002 143.044C224.188 143.264 224.412 143.438 224.676 143.564C224.939 143.687 225.24 143.748 225.577 143.748C226.001 143.748 226.38 143.662 226.712 143.491C227.044 143.32 227.332 143.079 227.576 142.766L228.506 143.667C228.335 143.916 228.113 144.155 227.84 144.385C227.566 144.609 227.232 144.792 226.836 144.934C226.446 145.076 225.992 145.146 225.474 145.146ZM231.912 133.75V145H230.14V133.75H231.912Z" fill="#0059FF"/>
<path d="M427.764 91.5425V93H422.41V91.5425H427.764ZM422.922 82.3359V93H421.084V82.3359H422.922ZM428.672 89.1255V88.957C428.672 88.3857 428.755 87.856 428.921 87.3677C429.087 86.8745 429.326 86.4473 429.639 86.0859C429.956 85.7197 430.342 85.4365 430.796 85.2363C431.255 85.0312 431.772 84.9287 432.349 84.9287C432.93 84.9287 433.447 85.0312 433.901 85.2363C434.36 85.4365 434.749 85.7197 435.066 86.0859C435.383 86.4473 435.625 86.8745 435.791 87.3677C435.957 87.856 436.04 88.3857 436.04 88.957V89.1255C436.04 89.6968 435.957 90.2266 435.791 90.7148C435.625 91.2031 435.383 91.6304 435.066 91.9966C434.749 92.3579 434.363 92.6411 433.909 92.8462C433.455 93.0464 432.939 93.1465 432.363 93.1465C431.782 93.1465 431.262 93.0464 430.803 92.8462C430.349 92.6411 429.963 92.3579 429.646 91.9966C429.329 91.6304 429.087 91.2031 428.921 90.7148C428.755 90.2266 428.672 89.6968 428.672 89.1255ZM430.437 88.957V89.1255C430.437 89.4819 430.474 89.8188 430.547 90.1362C430.62 90.4536 430.735 90.7319 430.891 90.9712C431.047 91.2104 431.248 91.3984 431.492 91.5352C431.736 91.6719 432.026 91.7402 432.363 91.7402C432.69 91.7402 432.974 91.6719 433.213 91.5352C433.457 91.3984 433.657 91.2104 433.813 90.9712C433.97 90.7319 434.084 90.4536 434.158 90.1362C434.236 89.8188 434.275 89.4819 434.275 89.1255V88.957C434.275 88.6055 434.236 88.2734 434.158 87.9609C434.084 87.6436 433.967 87.3628 433.806 87.1187C433.65 86.8745 433.45 86.6841 433.206 86.5474C432.966 86.4058 432.681 86.335 432.349 86.335C432.017 86.335 431.729 86.4058 431.484 86.5474C431.245 86.6841 431.047 86.8745 430.891 87.1187C430.735 87.3628 430.62 87.6436 430.547 87.9609C430.474 88.2734 430.437 88.6055 430.437 88.957ZM441.987 91.4106V87.6313C441.987 87.3481 441.936 87.104 441.833 86.8989C441.731 86.6938 441.575 86.5352 441.365 86.4229C441.16 86.3105 440.901 86.2544 440.588 86.2544C440.3 86.2544 440.051 86.3032 439.841 86.4009C439.631 86.4985 439.468 86.6304 439.351 86.7964C439.233 86.9624 439.175 87.1504 439.175 87.3604H437.417C437.417 87.0479 437.493 86.7451 437.644 86.4521C437.795 86.1592 438.015 85.8979 438.303 85.6685C438.591 85.439 438.936 85.2583 439.336 85.1265C439.736 84.9946 440.186 84.9287 440.684 84.9287C441.279 84.9287 441.807 85.0288 442.266 85.229C442.729 85.4292 443.093 85.7319 443.357 86.1372C443.625 86.5376 443.76 87.0405 443.76 87.646V91.1689C443.76 91.5303 443.784 91.855 443.833 92.1431C443.887 92.4263 443.962 92.6729 444.06 92.8828V93H442.251C442.168 92.8096 442.102 92.5679 442.053 92.2749C442.009 91.9771 441.987 91.689 441.987 91.4106ZM442.244 88.1807L442.258 89.272H440.991C440.664 89.272 440.376 89.3037 440.127 89.3672C439.878 89.4258 439.67 89.5137 439.504 89.6309C439.338 89.748 439.214 89.8896 439.131 90.0557C439.048 90.2217 439.006 90.4097 439.006 90.6196C439.006 90.8296 439.055 91.0225 439.153 91.1982C439.25 91.3691 439.392 91.5034 439.578 91.6011C439.768 91.6987 439.998 91.7476 440.266 91.7476C440.627 91.7476 440.942 91.6743 441.211 91.5278C441.484 91.3765 441.699 91.1934 441.855 90.9785C442.012 90.7588 442.095 90.5513 442.104 90.356L442.676 91.1396C442.617 91.3398 442.517 91.5547 442.375 91.7842C442.234 92.0137 442.048 92.2334 441.819 92.4434C441.594 92.6484 441.323 92.8169 441.006 92.9487C440.693 93.0806 440.332 93.1465 439.922 93.1465C439.404 93.1465 438.943 93.0439 438.538 92.8389C438.132 92.6289 437.815 92.3481 437.585 91.9966C437.356 91.6401 437.241 91.2373 437.241 90.7881C437.241 90.3682 437.319 89.9971 437.476 89.6748C437.637 89.3477 437.871 89.0742 438.179 88.8545C438.491 88.6348 438.872 88.4688 439.321 88.3564C439.771 88.2393 440.283 88.1807 440.859 88.1807H442.244ZM450.439 91.3594V81.75H452.212V93H450.608L450.439 91.3594ZM445.283 89.1255V88.9717C445.283 88.3711 445.354 87.8242 445.496 87.3311C445.637 86.833 445.842 86.4058 446.111 86.0493C446.379 85.688 446.707 85.4121 447.092 85.2217C447.478 85.0264 447.913 84.9287 448.396 84.9287C448.875 84.9287 449.294 85.0215 449.656 85.207C450.017 85.3926 450.325 85.6587 450.579 86.0054C450.833 86.3472 451.035 86.7573 451.187 87.2358C451.338 87.7095 451.445 88.2368 451.509 88.8179V89.3086C451.445 89.875 451.338 90.3926 451.187 90.8613C451.035 91.3301 450.833 91.7354 450.579 92.0771C450.325 92.4189 450.015 92.6826 449.648 92.8682C449.287 93.0537 448.865 93.1465 448.381 93.1465C447.903 93.1465 447.471 93.0464 447.085 92.8462C446.704 92.646 446.379 92.3652 446.111 92.0039C445.842 91.6426 445.637 91.2178 445.496 90.7295C445.354 90.2363 445.283 89.7017 445.283 89.1255ZM447.048 88.9717V89.1255C447.048 89.4868 447.08 89.8237 447.144 90.1362C447.212 90.4487 447.317 90.7246 447.458 90.9639C447.6 91.1982 447.783 91.3838 448.008 91.5205C448.237 91.6523 448.511 91.7183 448.828 91.7183C449.229 91.7183 449.558 91.6304 449.817 91.4546C450.076 91.2788 450.278 91.042 450.425 90.7441C450.576 90.4414 450.679 90.1045 450.732 89.7334V88.4077C450.703 88.1196 450.642 87.8511 450.549 87.6021C450.461 87.353 450.342 87.1357 450.19 86.9502C450.039 86.7598 449.851 86.6133 449.626 86.5107C449.407 86.4033 449.146 86.3496 448.843 86.3496C448.521 86.3496 448.247 86.418 448.022 86.5547C447.798 86.6914 447.612 86.8794 447.466 87.1187C447.324 87.3579 447.219 87.6362 447.151 87.9536C447.083 88.271 447.048 88.6104 447.048 88.9717ZM455.947 85.0752V93H454.175V85.0752H455.947ZM454.058 82.9951C454.058 82.7266 454.146 82.5044 454.321 82.3286C454.502 82.1479 454.751 82.0576 455.068 82.0576C455.381 82.0576 455.627 82.1479 455.808 82.3286C455.989 82.5044 456.079 82.7266 456.079 82.9951C456.079 83.2588 455.989 83.4785 455.808 83.6543C455.627 83.8301 455.381 83.918 455.068 83.918C454.751 83.918 454.502 83.8301 454.321 83.6543C454.146 83.4785 454.058 83.2588 454.058 82.9951ZM459.631 86.7671V93H457.866V85.0752H459.529L459.631 86.7671ZM459.316 88.7446L458.745 88.7373C458.75 88.1758 458.828 87.6606 458.979 87.1919C459.136 86.7231 459.351 86.3203 459.624 85.9834C459.902 85.6465 460.234 85.3877 460.62 85.207C461.006 85.0215 461.436 84.9287 461.909 84.9287C462.29 84.9287 462.634 84.9824 462.942 85.0898C463.254 85.1924 463.521 85.3608 463.74 85.5952C463.965 85.8296 464.136 86.1348 464.253 86.5107C464.37 86.8818 464.429 87.3384 464.429 87.8804V93H462.656V87.873C462.656 87.4922 462.6 87.1919 462.488 86.9722C462.38 86.7476 462.222 86.5889 462.012 86.4961C461.807 86.3984 461.55 86.3496 461.243 86.3496C460.94 86.3496 460.669 86.4131 460.43 86.54C460.19 86.667 459.988 86.8403 459.822 87.0601C459.661 87.2798 459.536 87.5337 459.448 87.8218C459.36 88.1099 459.316 88.4175 459.316 88.7446ZM471.306 85.0752H472.91V92.7803C472.91 93.4932 472.759 94.0986 472.456 94.5967C472.153 95.0947 471.731 95.4731 471.189 95.7319C470.647 95.9956 470.02 96.1274 469.307 96.1274C469.004 96.1274 468.667 96.0835 468.296 95.9956C467.93 95.9077 467.573 95.7661 467.227 95.5708C466.885 95.3804 466.599 95.1289 466.37 94.8164L467.197 93.7764C467.48 94.1133 467.793 94.3599 468.135 94.5161C468.477 94.6724 468.835 94.7505 469.211 94.7505C469.617 94.7505 469.961 94.6748 470.244 94.5234C470.532 94.377 470.754 94.1597 470.911 93.8716C471.067 93.5835 471.145 93.2319 471.145 92.8169V86.8696L471.306 85.0752ZM465.923 89.1255V88.9717C465.923 88.3711 465.996 87.8242 466.143 87.3311C466.289 86.833 466.499 86.4058 466.772 86.0493C467.046 85.688 467.378 85.4121 467.769 85.2217C468.159 85.0264 468.601 84.9287 469.094 84.9287C469.607 84.9287 470.044 85.0215 470.405 85.207C470.771 85.3926 471.077 85.6587 471.321 86.0054C471.565 86.3472 471.755 86.7573 471.892 87.2358C472.034 87.7095 472.139 88.2368 472.207 88.8179V89.3086C472.144 89.875 472.036 90.3926 471.885 90.8613C471.733 91.3301 471.533 91.7354 471.284 92.0771C471.035 92.4189 470.728 92.6826 470.361 92.8682C470 93.0537 469.573 93.1465 469.08 93.1465C468.596 93.1465 468.159 93.0464 467.769 92.8462C467.383 92.646 467.051 92.3652 466.772 92.0039C466.499 91.6426 466.289 91.2178 466.143 90.7295C465.996 90.2363 465.923 89.7017 465.923 89.1255ZM467.688 88.9717V89.1255C467.688 89.4868 467.722 89.8237 467.791 90.1362C467.864 90.4487 467.974 90.7246 468.12 90.9639C468.271 91.1982 468.462 91.3838 468.691 91.5205C468.926 91.6523 469.202 91.7183 469.519 91.7183C469.934 91.7183 470.273 91.6304 470.537 91.4546C470.806 91.2788 471.011 91.042 471.152 90.7441C471.299 90.4414 471.401 90.1045 471.46 89.7334V88.4077C471.431 88.1196 471.37 87.8511 471.277 87.6021C471.189 87.353 471.069 87.1357 470.918 86.9502C470.767 86.7598 470.576 86.6133 470.347 86.5107C470.117 86.4033 469.846 86.3496 469.534 86.3496C469.216 86.3496 468.94 86.418 468.706 86.5547C468.472 86.6914 468.279 86.8794 468.127 87.1187C467.981 87.3579 467.871 87.6362 467.798 87.9536C467.725 88.271 467.688 88.6104 467.688 88.9717ZM481.75 93H479.473L479.487 91.5425H481.75C482.41 91.5425 482.961 91.3984 483.406 91.1104C483.855 90.8223 484.192 90.4097 484.417 89.8726C484.646 89.3354 484.761 88.6958 484.761 87.9536V87.375C484.761 86.7988 484.695 86.2886 484.563 85.8442C484.436 85.3999 484.246 85.0264 483.992 84.7236C483.743 84.4209 483.435 84.1914 483.069 84.0352C482.708 83.8789 482.29 83.8008 481.816 83.8008H479.429V82.3359H481.816C482.524 82.3359 483.171 82.4556 483.757 82.6948C484.343 82.9292 484.849 83.2686 485.273 83.7129C485.703 84.1572 486.033 84.6895 486.262 85.3096C486.492 85.9297 486.606 86.623 486.606 87.3896V87.9536C486.606 88.7202 486.492 89.4136 486.262 90.0337C486.033 90.6538 485.703 91.186 485.273 91.6304C484.844 92.0698 484.331 92.4092 483.735 92.6484C483.145 92.8828 482.483 93 481.75 93ZM480.491 82.3359V93H478.652V82.3359H480.491ZM492.744 91.4106V87.6313C492.744 87.3481 492.693 87.104 492.59 86.8989C492.488 86.6938 492.332 86.5352 492.122 86.4229C491.917 86.3105 491.658 86.2544 491.345 86.2544C491.057 86.2544 490.808 86.3032 490.598 86.4009C490.388 86.4985 490.225 86.6304 490.107 86.7964C489.99 86.9624 489.932 87.1504 489.932 87.3604H488.174C488.174 87.0479 488.25 86.7451 488.401 86.4521C488.552 86.1592 488.772 85.8979 489.06 85.6685C489.348 85.439 489.692 85.2583 490.093 85.1265C490.493 84.9946 490.942 84.9287 491.44 84.9287C492.036 84.9287 492.563 85.0288 493.022 85.229C493.486 85.4292 493.85 85.7319 494.114 86.1372C494.382 86.5376 494.517 87.0405 494.517 87.646V91.1689C494.517 91.5303 494.541 91.855 494.59 92.1431C494.644 92.4263 494.719 92.6729 494.817 92.8828V93H493.008C492.925 92.8096 492.859 92.5679 492.81 92.2749C492.766 91.9771 492.744 91.689 492.744 91.4106ZM493 88.1807L493.015 89.272H491.748C491.421 89.272 491.133 89.3037 490.884 89.3672C490.635 89.4258 490.427 89.5137 490.261 89.6309C490.095 89.748 489.971 89.8896 489.888 90.0557C489.805 90.2217 489.763 90.4097 489.763 90.6196C489.763 90.8296 489.812 91.0225 489.91 91.1982C490.007 91.3691 490.149 91.5034 490.334 91.6011C490.525 91.6987 490.754 91.7476 491.023 91.7476C491.384 91.7476 491.699 91.6743 491.968 91.5278C492.241 91.3765 492.456 91.1934 492.612 90.9785C492.769 90.7588 492.852 90.5513 492.861 90.356L493.433 91.1396C493.374 91.3398 493.274 91.5547 493.132 91.7842C492.991 92.0137 492.805 92.2334 492.576 92.4434C492.351 92.6484 492.08 92.8169 491.763 92.9487C491.45 93.0806 491.089 93.1465 490.679 93.1465C490.161 93.1465 489.7 93.0439 489.294 92.8389C488.889 92.6289 488.572 92.3481 488.342 91.9966C488.113 91.6401 487.998 91.2373 487.998 90.7881C487.998 90.3682 488.076 89.9971 488.232 89.6748C488.394 89.3477 488.628 89.0742 488.936 88.8545C489.248 88.6348 489.629 88.4688 490.078 88.3564C490.527 88.2393 491.04 88.1807 491.616 88.1807H493ZM499.995 85.0752V86.3643H495.527V85.0752H499.995ZM496.816 83.1343H498.582V90.8101C498.582 91.0542 498.616 91.2422 498.684 91.374C498.757 91.501 498.857 91.5864 498.984 91.6304C499.111 91.6743 499.26 91.6963 499.431 91.6963C499.553 91.6963 499.67 91.689 499.783 91.6743C499.895 91.6597 499.985 91.645 500.054 91.6304L500.061 92.978C499.915 93.022 499.744 93.061 499.548 93.0952C499.358 93.1294 499.138 93.1465 498.889 93.1465C498.484 93.1465 498.125 93.0757 497.812 92.9341C497.5 92.7876 497.256 92.5508 497.08 92.2236C496.904 91.8965 496.816 91.4619 496.816 90.9199V83.1343ZM505.825 91.4106V87.6313C505.825 87.3481 505.774 87.104 505.671 86.8989C505.569 86.6938 505.413 86.5352 505.203 86.4229C504.998 86.3105 504.739 86.2544 504.426 86.2544C504.138 86.2544 503.889 86.3032 503.679 86.4009C503.469 86.4985 503.306 86.6304 503.188 86.7964C503.071 86.9624 503.013 87.1504 503.013 87.3604H501.255C501.255 87.0479 501.331 86.7451 501.482 86.4521C501.633 86.1592 501.853 85.8979 502.141 85.6685C502.429 85.439 502.773 85.2583 503.174 85.1265C503.574 84.9946 504.023 84.9287 504.521 84.9287C505.117 84.9287 505.645 85.0288 506.104 85.229C506.567 85.4292 506.931 85.7319 507.195 86.1372C507.463 86.5376 507.598 87.0405 507.598 87.646V91.1689C507.598 91.5303 507.622 91.855 507.671 92.1431C507.725 92.4263 507.8 92.6729 507.898 92.8828V93H506.089C506.006 92.8096 505.94 92.5679 505.891 92.2749C505.847 91.9771 505.825 91.689 505.825 91.4106ZM506.082 88.1807L506.096 89.272H504.829C504.502 89.272 504.214 89.3037 503.965 89.3672C503.716 89.4258 503.508 89.5137 503.342 89.6309C503.176 89.748 503.052 89.8896 502.969 90.0557C502.886 90.2217 502.844 90.4097 502.844 90.6196C502.844 90.8296 502.893 91.0225 502.991 91.1982C503.088 91.3691 503.23 91.5034 503.416 91.6011C503.606 91.6987 503.835 91.7476 504.104 91.7476C504.465 91.7476 504.78 91.6743 505.049 91.5278C505.322 91.3765 505.537 91.1934 505.693 90.9785C505.85 90.7588 505.933 90.5513 505.942 90.356L506.514 91.1396C506.455 91.3398 506.355 91.5547 506.213 91.7842C506.072 92.0137 505.886 92.2334 505.657 92.4434C505.432 92.6484 505.161 92.8169 504.844 92.9487C504.531 93.0806 504.17 93.1465 503.76 93.1465C503.242 93.1465 502.781 93.0439 502.375 92.8389C501.97 92.6289 501.653 92.3481 501.423 91.9966C501.194 91.6401 501.079 91.2373 501.079 90.7881C501.079 90.3682 501.157 89.9971 501.313 89.6748C501.475 89.3477 501.709 89.0742 502.017 88.8545C502.329 88.6348 502.71 88.4688 503.159 88.3564C503.608 88.2393 504.121 88.1807 504.697 88.1807H506.082ZM509.517 92.1211C509.517 91.8477 509.609 91.6182 509.795 91.4326C509.98 91.2422 510.232 91.147 510.549 91.147C510.872 91.147 511.123 91.2422 511.304 91.4326C511.489 91.6182 511.582 91.8477 511.582 92.1211C511.582 92.3945 511.489 92.624 511.304 92.8096C511.123 92.9951 510.872 93.0879 510.549 93.0879C510.232 93.0879 509.98 92.9951 509.795 92.8096C509.609 92.624 509.517 92.3945 509.517 92.1211ZM513.691 92.1211C513.691 91.8477 513.784 91.6182 513.97 91.4326C514.155 91.2422 514.407 91.147 514.724 91.147C515.046 91.147 515.298 91.2422 515.479 91.4326C515.664 91.6182 515.757 91.8477 515.757 92.1211C515.757 92.3945 515.664 92.624 515.479 92.8096C515.298 92.9951 515.046 93.0879 514.724 93.0879C514.407 93.0879 514.155 92.9951 513.97 92.8096C513.784 92.624 513.691 92.3945 513.691 92.1211ZM517.866 92.1211C517.866 91.8477 517.959 91.6182 518.145 91.4326C518.33 91.2422 518.582 91.147 518.899 91.147C519.221 91.147 519.473 91.2422 519.653 91.4326C519.839 91.6182 519.932 91.8477 519.932 92.1211C519.932 92.3945 519.839 92.624 519.653 92.8096C519.473 92.9951 519.221 93.0879 518.899 93.0879C518.582 93.0879 518.33 92.9951 518.145 92.8096C517.959 92.624 517.866 92.3945 517.866 92.1211Z" fill="#1A1A1A"/>
<rect x="420" y="108" width="340" height="16" rx="8" fill="#F2F2F2"/>
<path d="M520 108H660V124H520V108Z" fill="#286EF1"/>
<path d="M574.383 153.528H576.214C576.155 154.227 575.96 154.849 575.628 155.396C575.296 155.938 574.83 156.365 574.229 156.678C573.628 156.99 572.898 157.146 572.039 157.146C571.38 157.146 570.787 157.029 570.259 156.795C569.732 156.556 569.28 156.219 568.904 155.784C568.528 155.345 568.24 154.815 568.04 154.195C567.845 153.575 567.747 152.881 567.747 152.115V151.229C567.747 150.462 567.847 149.769 568.047 149.148C568.252 148.528 568.545 147.999 568.926 147.559C569.307 147.115 569.764 146.775 570.296 146.541C570.833 146.307 571.436 146.189 572.105 146.189C572.955 146.189 573.672 146.346 574.258 146.658C574.844 146.971 575.298 147.403 575.621 147.955C575.948 148.506 576.148 149.139 576.221 149.852H574.39C574.341 149.393 574.234 149 574.068 148.672C573.907 148.345 573.667 148.096 573.35 147.925C573.033 147.75 572.618 147.662 572.105 147.662C571.685 147.662 571.319 147.74 571.006 147.896C570.694 148.052 570.433 148.282 570.223 148.584C570.013 148.887 569.854 149.261 569.747 149.705C569.644 150.145 569.593 150.647 569.593 151.214V152.115C569.593 152.652 569.639 153.14 569.732 153.58C569.83 154.014 569.976 154.388 570.171 154.7C570.372 155.013 570.625 155.254 570.933 155.425C571.241 155.596 571.609 155.682 572.039 155.682C572.562 155.682 572.984 155.599 573.306 155.433C573.633 155.267 573.88 155.025 574.046 154.708C574.217 154.385 574.329 153.992 574.383 153.528ZM582.176 155.411V151.631C582.176 151.348 582.125 151.104 582.022 150.899C581.919 150.694 581.763 150.535 581.553 150.423C581.348 150.311 581.089 150.254 580.777 150.254C580.489 150.254 580.24 150.303 580.03 150.401C579.82 150.499 579.656 150.63 579.539 150.796C579.422 150.962 579.363 151.15 579.363 151.36H577.605C577.605 151.048 577.681 150.745 577.833 150.452C577.984 150.159 578.204 149.898 578.492 149.668C578.78 149.439 579.124 149.258 579.524 149.126C579.925 148.995 580.374 148.929 580.872 148.929C581.468 148.929 581.995 149.029 582.454 149.229C582.918 149.429 583.282 149.732 583.545 150.137C583.814 150.538 583.948 151.041 583.948 151.646V155.169C583.948 155.53 583.973 155.855 584.021 156.143C584.075 156.426 584.151 156.673 584.249 156.883V157H582.439C582.356 156.81 582.291 156.568 582.242 156.275C582.198 155.977 582.176 155.689 582.176 155.411ZM582.432 152.181L582.447 153.272H581.18C580.853 153.272 580.564 153.304 580.315 153.367C580.066 153.426 579.859 153.514 579.693 153.631C579.527 153.748 579.402 153.89 579.319 154.056C579.236 154.222 579.195 154.41 579.195 154.62C579.195 154.83 579.244 155.022 579.341 155.198C579.439 155.369 579.581 155.503 579.766 155.601C579.957 155.699 580.186 155.748 580.455 155.748C580.816 155.748 581.131 155.674 581.399 155.528C581.673 155.376 581.888 155.193 582.044 154.979C582.2 154.759 582.283 154.551 582.293 154.356L582.864 155.14C582.806 155.34 582.706 155.555 582.564 155.784C582.422 156.014 582.237 156.233 582.007 156.443C581.783 156.648 581.512 156.817 581.194 156.949C580.882 157.081 580.521 157.146 580.11 157.146C579.593 157.146 579.131 157.044 578.726 156.839C578.321 156.629 578.003 156.348 577.774 155.997C577.544 155.64 577.43 155.237 577.43 154.788C577.43 154.368 577.508 153.997 577.664 153.675C577.825 153.348 578.06 153.074 578.367 152.854C578.68 152.635 579.061 152.469 579.51 152.356C579.959 152.239 580.472 152.181 581.048 152.181H582.432ZM587.544 150.767V157H585.779V149.075H587.442L587.544 150.767ZM587.229 152.745L586.658 152.737C586.663 152.176 586.741 151.661 586.893 151.192C587.049 150.723 587.264 150.32 587.537 149.983C587.815 149.646 588.147 149.388 588.533 149.207C588.919 149.021 589.349 148.929 589.822 148.929C590.203 148.929 590.547 148.982 590.855 149.09C591.167 149.192 591.434 149.361 591.653 149.595C591.878 149.83 592.049 150.135 592.166 150.511C592.283 150.882 592.342 151.338 592.342 151.88V157H590.569V151.873C590.569 151.492 590.513 151.192 590.401 150.972C590.293 150.748 590.135 150.589 589.925 150.496C589.72 150.398 589.463 150.35 589.156 150.35C588.853 150.35 588.582 150.413 588.343 150.54C588.104 150.667 587.901 150.84 587.735 151.06C587.574 151.28 587.449 151.534 587.361 151.822C587.273 152.11 587.229 152.417 587.229 152.745ZM597.381 155.74C597.669 155.74 597.928 155.684 598.157 155.572C598.392 155.455 598.58 155.293 598.721 155.088C598.868 154.883 598.948 154.646 598.963 154.378H600.625C600.616 154.891 600.464 155.357 600.171 155.777C599.878 156.197 599.49 156.531 599.007 156.78C598.523 157.024 597.989 157.146 597.403 157.146C596.797 157.146 596.27 157.044 595.821 156.839C595.372 156.629 594.998 156.341 594.7 155.975C594.402 155.608 594.178 155.186 594.026 154.708C593.88 154.229 593.807 153.716 593.807 153.169V152.913C593.807 152.366 593.88 151.854 594.026 151.375C594.178 150.892 594.402 150.467 594.7 150.101C594.998 149.734 595.372 149.449 595.821 149.244C596.27 149.034 596.795 148.929 597.396 148.929C598.03 148.929 598.587 149.056 599.065 149.31C599.544 149.559 599.92 149.908 600.193 150.357C600.472 150.801 600.616 151.319 600.625 151.91H598.963C598.948 151.617 598.875 151.353 598.743 151.119C598.616 150.879 598.436 150.689 598.201 150.547C597.972 150.406 597.696 150.335 597.374 150.335C597.017 150.335 596.722 150.408 596.487 150.555C596.253 150.696 596.07 150.892 595.938 151.141C595.806 151.385 595.711 151.661 595.652 151.968C595.599 152.271 595.572 152.586 595.572 152.913V153.169C595.572 153.497 595.599 153.814 595.652 154.122C595.706 154.429 595.799 154.705 595.931 154.949C596.067 155.188 596.253 155.381 596.487 155.528C596.722 155.669 597.02 155.74 597.381 155.74ZM605.474 157.146C604.888 157.146 604.358 157.051 603.885 156.861C603.416 156.666 603.016 156.395 602.684 156.048C602.356 155.701 602.105 155.293 601.929 154.825C601.753 154.356 601.666 153.851 601.666 153.309V153.016C601.666 152.396 601.756 151.834 601.937 151.331C602.117 150.828 602.369 150.398 602.691 150.042C603.013 149.681 603.394 149.405 603.833 149.214C604.273 149.024 604.749 148.929 605.262 148.929C605.828 148.929 606.324 149.024 606.749 149.214C607.173 149.405 607.525 149.673 607.803 150.02C608.086 150.362 608.296 150.77 608.433 151.243C608.575 151.717 608.646 152.239 608.646 152.811V153.565H602.522V152.298H606.902V152.159C606.893 151.841 606.829 151.543 606.712 151.265C606.6 150.987 606.426 150.762 606.192 150.591C605.958 150.42 605.645 150.335 605.254 150.335C604.961 150.335 604.7 150.398 604.471 150.525C604.246 150.647 604.058 150.826 603.907 151.06C603.755 151.294 603.638 151.578 603.555 151.91C603.477 152.237 603.438 152.605 603.438 153.016V153.309C603.438 153.655 603.484 153.978 603.577 154.275C603.675 154.568 603.816 154.825 604.002 155.044C604.188 155.264 604.412 155.438 604.676 155.564C604.939 155.687 605.24 155.748 605.577 155.748C606.001 155.748 606.38 155.662 606.712 155.491C607.044 155.32 607.332 155.079 607.576 154.766L608.506 155.667C608.335 155.916 608.113 156.155 607.84 156.385C607.566 156.609 607.232 156.792 606.836 156.934C606.446 157.076 605.992 157.146 605.474 157.146ZM611.912 145.75V157H610.14V145.75H611.912Z" fill="#0059FF"/>
<path d="M44.125 44.1528V52H42.8306V45.689L40.9131 46.3389V45.27L43.9692 44.1528H44.125ZM47.1717 51.3555C47.1717 51.1549 47.2397 50.9867 47.3758 50.8506C47.5118 50.7109 47.6963 50.6411 47.929 50.6411C48.1653 50.6411 48.3497 50.7109 48.4822 50.8506C48.6183 50.9867 48.6863 51.1549 48.6863 51.3555C48.6863 51.556 48.6183 51.7243 48.4822 51.8604C48.3497 51.9964 48.1653 52.0645 47.929 52.0645C47.6963 52.0645 47.5118 51.9964 47.3758 51.8604C47.2397 51.7243 47.1717 51.556 47.1717 51.3555ZM55.7196 52H54.0492L54.06 50.9312H55.7196C56.203 50.9312 56.6077 50.8255 56.9335 50.6143C57.2629 50.403 57.51 50.1004 57.6747 49.7065C57.843 49.3127 57.9271 48.8436 57.9271 48.2993V47.875C57.9271 47.4525 57.8788 47.0783 57.7821 46.7524C57.689 46.4266 57.5494 46.1527 57.3632 45.9307C57.1806 45.7087 56.955 45.5404 56.6864 45.4258C56.4215 45.3112 56.1153 45.2539 55.768 45.2539H54.017V44.1797H55.768C56.2872 44.1797 56.7616 44.2674 57.1913 44.4429C57.621 44.6147 57.9916 44.8636 58.3031 45.1895C58.6182 45.5153 58.8599 45.9056 59.0282 46.3604C59.1965 46.8151 59.2807 47.3236 59.2807 47.8857V48.2993C59.2807 48.8615 59.1965 49.37 59.0282 49.8247C58.8599 50.2795 58.6182 50.6698 58.3031 50.9956C57.988 51.3179 57.612 51.5667 57.1752 51.7422C56.7419 51.9141 56.2567 52 55.7196 52ZM54.7958 44.1797V52H53.4477V44.1797H54.7958ZM65.9528 50.9312V52H61.801V50.9312H65.9528ZM62.1823 44.1797V52H60.8342V44.1797H62.1823ZM65.4104 47.4453V48.498H61.801V47.4453H65.4104ZM65.926 44.1797V45.2539H61.801V44.1797H65.926ZM70.5786 44.1797V52H69.2412V44.1797H70.5786ZM73.0332 44.1797V45.2539H66.8081V44.1797H73.0332ZM79.3831 50.9312V52H75.2313V50.9312H79.3831ZM75.6126 44.1797V52H74.2645V44.1797H75.6126ZM78.8406 47.4453V48.498H75.2313V47.4453H78.8406ZM79.3563 44.1797V45.2539H75.2313V44.1797H79.3563ZM80.6842 44.1797H83.4503C84.0447 44.1797 84.5514 44.2692 84.9703 44.4482C85.3893 44.6273 85.7097 44.8923 85.9317 45.2432C86.1573 45.5905 86.2701 46.0202 86.2701 46.5322C86.2701 46.9225 86.1985 47.2663 86.0553 47.5635C85.912 47.8607 85.7097 48.1113 85.4483 48.3154C85.1869 48.516 84.8754 48.6717 84.5138 48.7827L84.1056 48.9814H81.6188L81.608 47.9126H83.4718C83.794 47.9126 84.0626 47.8553 84.2774 47.7407C84.4923 47.6261 84.6534 47.4704 84.7608 47.2734C84.8718 47.0729 84.9273 46.8473 84.9273 46.5967C84.9273 46.3245 84.8736 46.0882 84.7662 45.8877C84.6624 45.6836 84.5012 45.5278 84.2828 45.4204C84.0644 45.3094 83.7869 45.2539 83.4503 45.2539H82.0323V52H80.6842V44.1797ZM85.1476 52L83.3106 48.4873L84.7232 48.4819L86.587 51.9302V52H85.1476ZM88.3607 44.1797H89.5639L91.8251 50.2114L94.081 44.1797H95.2841L92.2978 52H91.3417L88.3607 44.1797ZM87.8129 44.1797H88.9569L89.1557 49.4004V52H87.8129V44.1797ZM94.6879 44.1797H95.8373V52H94.4892V49.4004L94.6879 44.1797ZM99.0773 44.1797V52H97.7292V44.1797H99.0773ZM107.157 44.1797V52H105.809L102.301 46.3979V52H100.953V44.1797H102.301L105.819 49.7925V44.1797H107.157ZM112.105 45.2217L109.768 52H108.356L111.299 44.1797H112.201L112.105 45.2217ZM114.06 52L111.718 45.2217L111.616 44.1797H112.524L115.478 52H114.06ZM113.947 49.0996V50.1685H109.693V49.0996H113.947ZM119.094 44.1797V52H117.756V44.1797H119.094ZM121.548 44.1797V45.2539H115.323V44.1797H121.548ZM127.898 50.9312V52H123.746V50.9312H127.898ZM124.128 44.1797V52H122.78V44.1797H124.128ZM127.356 47.4453V48.498H123.746V47.4453H127.356ZM127.871 44.1797V45.2539H123.746V44.1797H127.871Z" fill="#AAAAAA"/>
<path d="M425.833 50.9688V52H420.591V51.1138L423.137 48.3369C423.416 48.0218 423.636 47.7497 423.797 47.5205C423.958 47.2913 424.071 47.0854 424.136 46.9028C424.204 46.7166 424.238 46.5358 424.238 46.3604C424.238 46.1133 424.191 45.8966 424.098 45.7104C424.009 45.5207 423.876 45.3721 423.701 45.2646C423.525 45.1536 423.312 45.0981 423.062 45.0981C422.771 45.0981 422.528 45.1608 422.331 45.2861C422.134 45.4115 421.986 45.5851 421.885 45.8071C421.785 46.0256 421.735 46.2762 421.735 46.5591H420.44C420.44 46.1043 420.544 45.689 420.752 45.313C420.96 44.9334 421.26 44.6326 421.654 44.4106C422.048 44.1851 422.523 44.0723 423.078 44.0723C423.6 44.0723 424.044 44.16 424.41 44.3354C424.775 44.5109 425.052 44.7598 425.242 45.082C425.436 45.4043 425.532 45.7856 425.532 46.2261C425.532 46.4696 425.493 46.7113 425.414 46.9512C425.335 47.1911 425.222 47.431 425.076 47.6709C424.932 47.9072 424.762 48.1453 424.565 48.3853C424.368 48.6216 424.152 48.8615 423.916 49.105L422.224 50.9688H425.833ZM427.172 51.3555C427.172 51.1549 427.24 50.9867 427.376 50.8506C427.512 50.7109 427.696 50.6411 427.929 50.6411C428.165 50.6411 428.35 50.7109 428.482 50.8506C428.618 50.9867 428.686 51.1549 428.686 51.3555C428.686 51.556 428.618 51.7243 428.482 51.8604C428.35 51.9964 428.165 52.0645 427.929 52.0645C427.696 52.0645 427.512 51.9964 427.376 51.8604C427.24 51.7243 427.172 51.556 427.172 51.3555ZM434.887 44.1797V52H433.539V44.1797H434.887ZM442.967 44.1797V52H441.618L438.111 46.3979V52H436.763V44.1797H438.111L441.629 49.7925V44.1797H442.967ZM447.044 52H445.374L445.385 50.9312H447.044C447.528 50.9312 447.932 50.8255 448.258 50.6143C448.588 50.403 448.835 50.1004 449 49.7065C449.168 49.3127 449.252 48.8436 449.252 48.2993V47.875C449.252 47.4525 449.204 47.0783 449.107 46.7524C449.014 46.4266 448.874 46.1527 448.688 45.9307C448.505 45.7087 448.28 45.5404 448.011 45.4258C447.746 45.3112 447.44 45.2539 447.093 45.2539H445.342V44.1797H447.093C447.612 44.1797 448.086 44.2674 448.516 44.4429C448.946 44.6147 449.316 44.8636 449.628 45.1895C449.943 45.5153 450.185 45.9056 450.353 46.3604C450.521 46.8151 450.605 47.3236 450.605 47.8857V48.2993C450.605 48.8615 450.521 49.37 450.353 49.8247C450.185 50.2795 449.943 50.6698 449.628 50.9956C449.313 51.3179 448.937 51.5667 448.5 51.7422C448.067 51.9141 447.582 52 447.044 52ZM446.121 44.1797V52H444.772V44.1797H446.121ZM457.278 50.9312V52H453.126V50.9312H457.278ZM453.507 44.1797V52H452.159V44.1797H453.507ZM456.735 47.4453V48.498H453.126V47.4453H456.735ZM457.251 44.1797V45.2539H453.126V44.1797H457.251ZM461.903 44.1797V52H460.566V44.1797H461.903ZM464.358 44.1797V45.2539H458.133V44.1797H464.358ZM470.708 50.9312V52H466.556V50.9312H470.708ZM466.937 44.1797V52H465.589V44.1797H466.937ZM470.165 47.4453V48.498H466.556V47.4453H470.165ZM470.681 44.1797V45.2539H466.556V44.1797H470.681ZM472.009 44.1797H474.775C475.369 44.1797 475.876 44.2692 476.295 44.4482C476.714 44.6273 477.035 44.8923 477.257 45.2432C477.482 45.5905 477.595 46.0202 477.595 46.5322C477.595 46.9225 477.523 47.2663 477.38 47.5635C477.237 47.8607 477.035 48.1113 476.773 48.3154C476.512 48.516 476.2 48.6717 475.839 48.7827L475.43 48.9814H472.944L472.933 47.9126H474.797C475.119 47.9126 475.387 47.8553 475.602 47.7407C475.817 47.6261 475.978 47.4704 476.086 47.2734C476.197 47.0729 476.252 46.8473 476.252 46.5967C476.252 46.3245 476.198 46.0882 476.091 45.8877C475.987 45.6836 475.826 45.5278 475.608 45.4204C475.389 45.3094 475.112 45.2539 474.775 45.2539H473.357V52H472.009V44.1797ZM476.472 52L474.635 48.4873L476.048 48.4819L477.912 51.9302V52H476.472ZM479.686 44.1797H480.889L483.15 50.2114L485.406 44.1797H486.609L483.623 52H482.667L479.686 44.1797ZM479.138 44.1797H480.282L480.48 49.4004V52H479.138V44.1797ZM486.013 44.1797H487.162V52H485.814V49.4004L486.013 44.1797ZM490.402 44.1797V52H489.054V44.1797H490.402ZM498.482 44.1797V52H497.133L493.626 46.3979V52H492.278V44.1797H493.626L497.144 49.7925V44.1797H498.482ZM503.43 45.2217L501.093 52H499.681L502.624 44.1797H503.526L503.43 45.2217ZM505.385 52L503.043 45.2217L502.941 44.1797H503.849L506.803 52H505.385ZM505.272 49.0996V50.1685H501.018V49.0996H505.272ZM510.419 44.1797V52H509.081V44.1797H510.419ZM512.873 44.1797V45.2539H506.648V44.1797H512.873ZM519.223 50.9312V52H515.071V50.9312H519.223ZM515.453 44.1797V52H514.104V44.1797H515.453ZM518.681 47.4453V48.498H515.071V47.4453H518.681ZM519.196 44.1797V45.2539H515.071V44.1797H519.196Z" fill="#AAAAAA"/>
<rect x="0.5" y="0.5" width="799" height="199" rx="7.5" stroke="#F2F2F2"/>
</svg>
