<svg width="1280" height="292" viewBox="0 0 1280 292" fill="none" xmlns="http://www.w3.org/2000/svg">
<rect x="0.5" y="0.5" width="1279" height="291" rx="15.5" fill="white"/>
<g clip-path="url(#clip0_7295_82312)">
<mask id="path-3-inside-1_7295_82312" fill="white">
<path d="M440 48C440 43.5817 443.582 40 448 40H832C836.418 40 840 43.5817 840 48V76H440V48Z"/>
</mask>
<path d="M440 48C440 43.5817 443.582 40 448 40H832C836.418 40 840 43.5817 840 48V76H440V48Z" fill="#F2F2F2"/>
<path d="M458.856 62H457.327V54.4717C457.327 53.9596 457.422 53.5301 457.612 53.1831C457.807 52.8319 458.084 52.5674 458.444 52.3896C458.804 52.2077 459.229 52.1167 459.72 52.1167C459.872 52.1167 460.022 52.1273 460.17 52.1484C460.319 52.1654 460.462 52.1929 460.602 52.231L460.564 53.4116C460.479 53.3905 460.386 53.3757 460.285 53.3672C460.187 53.3587 460.082 53.3545 459.967 53.3545C459.735 53.3545 459.534 53.3989 459.364 53.4878C459.199 53.5724 459.072 53.6973 458.983 53.8623C458.899 54.0273 458.856 54.2305 458.856 54.4717V62ZM460.272 55.1318V56.249H456.273V55.1318H460.272ZM463.021 55.1318V62H461.484V55.1318H463.021ZM461.383 53.3291C461.383 53.0964 461.459 52.9038 461.611 52.7515C461.768 52.5949 461.984 52.5166 462.259 52.5166C462.53 52.5166 462.743 52.5949 462.9 52.7515C463.056 52.9038 463.135 53.0964 463.135 53.3291C463.135 53.5576 463.056 53.748 462.9 53.9004C462.743 54.0527 462.53 54.1289 462.259 54.1289C461.984 54.1289 461.768 54.0527 461.611 53.9004C461.459 53.748 461.383 53.5576 461.383 53.3291ZM466.334 52.25V62H464.798V52.25H466.334ZM471.038 62.127C470.53 62.127 470.071 62.0444 469.66 61.8794C469.254 61.7101 468.907 61.4753 468.619 61.1748C468.336 60.8743 468.118 60.521 467.965 60.1147C467.813 59.7085 467.737 59.2705 467.737 58.8008V58.5469C467.737 58.0094 467.815 57.5228 467.972 57.0869C468.128 56.651 468.346 56.2786 468.625 55.9697C468.905 55.6566 469.235 55.4175 469.616 55.2524C469.997 55.0874 470.409 55.0049 470.854 55.0049C471.344 55.0049 471.774 55.0874 472.142 55.2524C472.51 55.4175 472.815 55.6502 473.056 55.9507C473.302 56.2469 473.484 56.6003 473.602 57.0107C473.725 57.4212 473.786 57.874 473.786 58.3691V59.0229H468.479V57.9248H472.275V57.8042C472.267 57.5291 472.212 57.271 472.11 57.0298C472.013 56.7886 471.863 56.5939 471.66 56.4458C471.457 56.2977 471.186 56.2236 470.847 56.2236C470.593 56.2236 470.367 56.2786 470.168 56.3887C469.973 56.4945 469.81 56.6489 469.679 56.8521C469.548 57.0552 469.446 57.3006 469.375 57.5884C469.307 57.8719 469.273 58.1914 469.273 58.5469V58.8008C469.273 59.1012 469.313 59.3805 469.394 59.6387C469.478 59.8926 469.601 60.1147 469.762 60.3052C469.923 60.4956 470.117 60.6458 470.346 60.7559C470.574 60.8617 470.834 60.9146 471.126 60.9146C471.495 60.9146 471.823 60.8405 472.11 60.6924C472.398 60.5443 472.648 60.3348 472.859 60.064L473.666 60.8447C473.517 61.0605 473.325 61.2679 473.088 61.4668C472.851 61.6615 472.561 61.8201 472.218 61.9429C471.88 62.0656 471.486 62.127 471.038 62.127ZM476.497 56.5981V62H474.967V55.1318H476.408L476.497 56.5981ZM476.224 58.312L475.729 58.3057C475.733 57.819 475.8 57.3726 475.932 56.9663C476.067 56.5601 476.253 56.2109 476.49 55.9189C476.731 55.627 477.019 55.4027 477.354 55.2461C477.688 55.0853 478.06 55.0049 478.471 55.0049C478.801 55.0049 479.099 55.0514 479.366 55.1445C479.637 55.2334 479.867 55.3794 480.058 55.5825C480.252 55.7856 480.4 56.0501 480.502 56.376C480.604 56.6976 480.654 57.0933 480.654 57.563V62H479.118V57.5566C479.118 57.2266 479.069 56.9663 478.972 56.7759C478.879 56.5812 478.742 56.4437 478.56 56.3633C478.382 56.2786 478.16 56.2363 477.893 56.2363C477.631 56.2363 477.396 56.2913 477.188 56.4014C476.981 56.5114 476.806 56.6616 476.662 56.8521C476.522 57.0425 476.414 57.2625 476.338 57.5122C476.262 57.7619 476.224 58.0285 476.224 58.312ZM486.088 60.6226V57.3472C486.088 57.1017 486.043 56.8901 485.955 56.7124C485.866 56.5347 485.73 56.3971 485.548 56.2998C485.371 56.2025 485.146 56.1538 484.875 56.1538C484.626 56.1538 484.41 56.1961 484.228 56.2808C484.046 56.3654 483.904 56.4797 483.803 56.6235C483.701 56.7674 483.65 56.9303 483.65 57.1123H482.127C482.127 56.8415 482.193 56.5791 482.324 56.3252C482.455 56.0713 482.645 55.8449 482.895 55.646C483.145 55.4471 483.443 55.2905 483.79 55.1763C484.137 55.062 484.526 55.0049 484.958 55.0049C485.474 55.0049 485.931 55.0916 486.329 55.2651C486.731 55.4386 487.046 55.701 487.275 56.0522C487.508 56.3993 487.624 56.8351 487.624 57.3599V60.4131C487.624 60.7262 487.645 61.0076 487.688 61.2573C487.734 61.5028 487.8 61.7165 487.884 61.8984V62H486.316C486.244 61.835 486.187 61.6255 486.145 61.3716C486.107 61.1134 486.088 60.8638 486.088 60.6226ZM486.31 57.8232L486.323 58.769H485.225C484.941 58.769 484.691 58.7965 484.476 58.8516C484.26 58.9023 484.08 58.9785 483.936 59.0801C483.792 59.1816 483.684 59.3044 483.612 59.4482C483.54 59.5921 483.504 59.755 483.504 59.937C483.504 60.119 483.547 60.2861 483.631 60.4385C483.716 60.5866 483.839 60.703 484 60.7876C484.165 60.8722 484.363 60.9146 484.596 60.9146C484.909 60.9146 485.182 60.8511 485.415 60.7241C485.652 60.5929 485.838 60.4342 485.974 60.248C486.109 60.0576 486.181 59.8778 486.189 59.7085L486.685 60.3877C486.634 60.5612 486.547 60.7474 486.424 60.9463C486.302 61.1452 486.141 61.3356 485.942 61.5176C485.747 61.6953 485.512 61.8413 485.237 61.9556C484.966 62.0698 484.653 62.127 484.298 62.127C483.849 62.127 483.449 62.0381 483.098 61.8604C482.747 61.6784 482.472 61.4351 482.273 61.1304C482.074 60.8215 481.975 60.4723 481.975 60.083C481.975 59.7191 482.042 59.3975 482.178 59.1182C482.317 58.8346 482.521 58.5977 482.787 58.4072C483.058 58.2168 483.388 58.0729 483.777 57.9756C484.167 57.874 484.611 57.8232 485.11 57.8232H486.31ZM490.753 56.5283V62H489.224V55.1318H490.665L490.753 56.5283ZM490.506 58.312L489.985 58.3057C489.985 57.8317 490.045 57.3937 490.163 56.9917C490.282 56.5897 490.455 56.2406 490.684 55.9443C490.912 55.6439 491.196 55.4132 491.534 55.2524C491.877 55.0874 492.273 55.0049 492.721 55.0049C493.034 55.0049 493.32 55.0514 493.578 55.1445C493.84 55.2334 494.067 55.3752 494.257 55.5698C494.452 55.7645 494.6 56.0142 494.702 56.3188C494.807 56.6235 494.86 56.9917 494.86 57.4233V62H493.331V57.5566C493.331 57.2223 493.28 56.96 493.178 56.7695C493.081 56.5791 492.939 56.4437 492.753 56.3633C492.571 56.2786 492.353 56.2363 492.099 56.2363C491.811 56.2363 491.566 56.2913 491.363 56.4014C491.164 56.5114 491.001 56.6616 490.874 56.8521C490.747 57.0425 490.654 57.2625 490.595 57.5122C490.535 57.7619 490.506 58.0285 490.506 58.312ZM494.765 57.9058L494.048 58.0645C494.048 57.6497 494.105 57.2583 494.219 56.8901C494.338 56.5177 494.509 56.1919 494.733 55.9126C494.962 55.6291 495.243 55.4069 495.578 55.2461C495.912 55.0853 496.295 55.0049 496.727 55.0049C497.078 55.0049 497.391 55.0535 497.666 55.1509C497.945 55.244 498.182 55.3921 498.377 55.5952C498.572 55.7983 498.72 56.0628 498.821 56.3887C498.923 56.7103 498.974 57.0996 498.974 57.5566V62H497.438V57.5503C497.438 57.2033 497.387 56.9346 497.285 56.7441C497.188 56.5537 497.048 56.4225 496.866 56.3506C496.684 56.2744 496.466 56.2363 496.212 56.2363C495.975 56.2363 495.766 56.2808 495.584 56.3696C495.406 56.4543 495.256 56.5749 495.133 56.7314C495.011 56.8838 494.917 57.0594 494.854 57.2583C494.795 57.4572 494.765 57.673 494.765 57.9058ZM503.576 62.127C503.068 62.127 502.609 62.0444 502.198 61.8794C501.792 61.7101 501.445 61.4753 501.157 61.1748C500.874 60.8743 500.656 60.521 500.503 60.1147C500.351 59.7085 500.275 59.2705 500.275 58.8008V58.5469C500.275 58.0094 500.353 57.5228 500.51 57.0869C500.666 56.651 500.884 56.2786 501.164 55.9697C501.443 55.6566 501.773 55.4175 502.154 55.2524C502.535 55.0874 502.947 55.0049 503.392 55.0049C503.882 55.0049 504.312 55.0874 504.68 55.2524C505.048 55.4175 505.353 55.6502 505.594 55.9507C505.84 56.2469 506.022 56.6003 506.14 57.0107C506.263 57.4212 506.324 57.874 506.324 58.3691V59.0229H501.018V57.9248H504.813V57.8042C504.805 57.5291 504.75 57.271 504.648 57.0298C504.551 56.7886 504.401 56.5939 504.198 56.4458C503.995 56.2977 503.724 56.2236 503.385 56.2236C503.131 56.2236 502.905 56.2786 502.706 56.3887C502.511 56.4945 502.348 56.6489 502.217 56.8521C502.086 57.0552 501.985 57.3006 501.913 57.5884C501.845 57.8719 501.811 58.1914 501.811 58.5469V58.8008C501.811 59.1012 501.851 59.3805 501.932 59.6387C502.016 59.8926 502.139 60.1147 502.3 60.3052C502.461 60.4956 502.655 60.6458 502.884 60.7559C503.112 60.8617 503.373 60.9146 503.665 60.9146C504.033 60.9146 504.361 60.8405 504.648 60.6924C504.936 60.5443 505.186 60.3348 505.397 60.064L506.204 60.8447C506.056 61.0605 505.863 61.2679 505.626 61.4668C505.389 61.6615 505.099 61.8201 504.756 61.9429C504.418 62.0656 504.024 62.127 503.576 62.127ZM507.581 61.2383C507.581 61.0013 507.661 60.8024 507.822 60.6416C507.983 60.4766 508.201 60.394 508.476 60.394C508.755 60.394 508.973 60.4766 509.13 60.6416C509.291 60.8024 509.371 61.0013 509.371 61.2383C509.371 61.4753 509.291 61.6742 509.13 61.835C508.973 61.9958 508.755 62.0762 508.476 62.0762C508.201 62.0762 507.983 61.9958 507.822 61.835C507.661 61.6742 507.581 61.4753 507.581 61.2383ZM512.672 56.4521V64.6406H511.142V55.1318H512.551L512.672 56.4521ZM517.147 58.5024V58.6357C517.147 59.1351 517.088 59.5985 516.969 60.0259C516.855 60.4491 516.684 60.8193 516.455 61.1367C516.231 61.4499 515.954 61.6932 515.624 61.8667C515.293 62.0402 514.913 62.127 514.481 62.127C514.054 62.127 513.679 62.0487 513.357 61.8921C513.04 61.7313 512.771 61.5049 512.551 61.2129C512.331 60.9209 512.153 60.5781 512.018 60.1846C511.887 59.7868 511.794 59.3509 511.739 58.877V58.3628C511.794 57.8592 511.887 57.4022 512.018 56.9917C512.153 56.5812 512.331 56.2279 512.551 55.9316C512.771 55.6354 513.04 55.4069 513.357 55.2461C513.675 55.0853 514.045 55.0049 514.468 55.0049C514.9 55.0049 515.283 55.0895 515.617 55.2588C515.951 55.4238 516.233 55.6608 516.461 55.9697C516.69 56.2744 516.861 56.6426 516.976 57.0742C517.09 57.5016 517.147 57.9777 517.147 58.5024ZM515.617 58.6357V58.5024C515.617 58.1851 515.588 57.891 515.528 57.6201C515.469 57.3451 515.376 57.1038 515.249 56.8965C515.122 56.6891 514.959 56.5283 514.76 56.4141C514.566 56.2956 514.331 56.2363 514.056 56.2363C513.785 56.2363 513.552 56.2829 513.357 56.376C513.163 56.4648 513 56.5897 512.869 56.7505C512.737 56.9113 512.636 57.0996 512.564 57.3154C512.492 57.527 512.441 57.7576 512.412 58.0073V59.2388C512.462 59.5435 512.549 59.8228 512.672 60.0767C512.795 60.3306 512.968 60.5337 513.192 60.686C513.421 60.8341 513.713 60.9082 514.068 60.9082C514.343 60.9082 514.578 60.849 514.773 60.7305C514.968 60.612 515.126 60.4491 515.249 60.2417C515.376 60.0301 515.469 59.7868 515.528 59.5117C515.588 59.2367 515.617 58.9447 515.617 58.6357ZM519.959 52.25V62H518.436V52.25H519.959ZM519.692 58.312L519.197 58.3057C519.201 57.8317 519.267 57.3937 519.394 56.9917C519.525 56.5897 519.707 56.2406 519.94 55.9443C520.177 55.6439 520.46 55.4132 520.791 55.2524C521.121 55.0874 521.487 55.0049 521.889 55.0049C522.227 55.0049 522.532 55.0514 522.803 55.1445C523.078 55.2376 523.315 55.3879 523.514 55.5952C523.713 55.7983 523.863 56.0649 523.964 56.395C524.07 56.7209 524.123 57.1187 524.123 57.5884V62H522.587V57.5757C522.587 57.2456 522.538 56.9832 522.441 56.7886C522.348 56.5939 522.21 56.4543 522.028 56.3696C521.846 56.2808 521.624 56.2363 521.362 56.2363C521.087 56.2363 520.843 56.2913 520.632 56.4014C520.424 56.5114 520.251 56.6616 520.111 56.8521C519.972 57.0425 519.866 57.2625 519.794 57.5122C519.726 57.7619 519.692 58.0285 519.692 58.312ZM527.208 56.4521V64.6406H525.678V55.1318H527.087L527.208 56.4521ZM531.683 58.5024V58.6357C531.683 59.1351 531.624 59.5985 531.505 60.0259C531.391 60.4491 531.22 60.8193 530.991 61.1367C530.767 61.4499 530.49 61.6932 530.16 61.8667C529.83 62.0402 529.449 62.127 529.017 62.127C528.59 62.127 528.215 62.0487 527.894 61.8921C527.576 61.7313 527.307 61.5049 527.087 61.2129C526.867 60.9209 526.69 60.5781 526.554 60.1846C526.423 59.7868 526.33 59.3509 526.275 58.877V58.3628C526.33 57.8592 526.423 57.4022 526.554 56.9917C526.69 56.5812 526.867 56.2279 527.087 55.9316C527.307 55.6354 527.576 55.4069 527.894 55.2461C528.211 55.0853 528.581 55.0049 529.004 55.0049C529.436 55.0049 529.819 55.0895 530.153 55.2588C530.488 55.4238 530.769 55.6608 530.998 55.9697C531.226 56.2744 531.397 56.6426 531.512 57.0742C531.626 57.5016 531.683 57.9777 531.683 58.5024ZM530.153 58.6357V58.5024C530.153 58.1851 530.124 57.891 530.064 57.6201C530.005 57.3451 529.912 57.1038 529.785 56.8965C529.658 56.6891 529.495 56.5283 529.296 56.4141C529.102 56.2956 528.867 56.2363 528.592 56.2363C528.321 56.2363 528.088 56.2829 527.894 56.376C527.699 56.4648 527.536 56.5897 527.405 56.7505C527.274 56.9113 527.172 57.0996 527.1 57.3154C527.028 57.527 526.977 57.7576 526.948 58.0073V59.2388C526.999 59.5435 527.085 59.8228 527.208 60.0767C527.331 60.3306 527.504 60.5337 527.729 60.686C527.957 60.8341 528.249 60.9082 528.604 60.9082C528.88 60.9082 529.114 60.849 529.309 60.7305C529.504 60.612 529.662 60.4491 529.785 60.2417C529.912 60.0301 530.005 59.7868 530.064 59.5117C530.124 59.2367 530.153 58.9447 530.153 58.6357Z" fill="#1A1A1A"/>
<path d="M439 48C439 43.0294 443.029 39 448 39H832C836.971 39 841 43.0294 841 48H839C839 44.134 835.866 41 832 41H448C444.134 41 441 44.134 441 48H439ZM841 77H439L441 75H839L841 77ZM439 77V48C439 43.0294 443.029 39 448 39V41C444.134 41 441 44.134 441 48V75L439 77ZM832 39C836.971 39 841 43.0294 841 48V77L839 75V48C839 44.134 835.866 41 832 41V39Z" fill="#E6E6E6" mask="url(#path-3-inside-1_7295_82312)"/>
<rect width="40" height="172" transform="translate(440 76)" fill="#737373"/>
<path d="M460.913 107H459.739V99.2559L457.32 100.176V99.1035L460.818 97.7578H460.913V107ZM462.773 127H456.717V126.156L459.745 122.792C460.016 122.491 460.242 122.224 460.424 121.992C460.606 121.759 460.752 121.543 460.862 121.344C460.972 121.15 461.051 120.965 461.097 120.792C461.144 120.614 461.167 120.432 461.167 120.246C461.167 120.018 461.129 119.804 461.053 119.605C460.981 119.402 460.875 119.226 460.735 119.078C460.591 118.93 460.418 118.814 460.215 118.729C460.016 118.64 459.79 118.596 459.536 118.596C459.227 118.596 458.958 118.64 458.729 118.729C458.505 118.818 458.319 118.943 458.171 119.104C458.019 119.269 457.904 119.467 457.828 119.7C457.756 119.933 457.72 120.193 457.72 120.481H456.54C456.54 120.092 456.607 119.726 456.743 119.383C456.878 119.036 457.075 118.733 457.333 118.475C457.587 118.217 457.898 118.012 458.266 117.859C458.639 117.707 459.062 117.631 459.536 117.631C459.972 117.631 460.363 117.696 460.71 117.828C461.061 117.955 461.357 118.132 461.599 118.361C461.84 118.589 462.024 118.86 462.151 119.173C462.282 119.486 462.348 119.827 462.348 120.195C462.348 120.47 462.301 120.743 462.208 121.014C462.115 121.281 461.99 121.545 461.833 121.808C461.673 122.07 461.486 122.33 461.275 122.588C461.068 122.842 460.847 123.096 460.615 123.35L458.133 126.042H462.773V127ZM458.476 141.814H459.313C459.61 141.814 459.87 141.774 460.094 141.693C460.323 141.613 460.515 141.503 460.672 141.363C460.824 141.224 460.941 141.056 461.021 140.862C461.101 140.667 461.142 140.453 461.142 140.221C461.142 139.946 461.106 139.707 461.034 139.503C460.962 139.296 460.856 139.125 460.716 138.989C460.581 138.858 460.412 138.761 460.208 138.697C460.01 138.63 459.781 138.596 459.523 138.596C459.273 138.596 459.045 138.634 458.837 138.71C458.634 138.782 458.461 138.888 458.317 139.027C458.169 139.167 458.055 139.334 457.974 139.529C457.894 139.723 457.854 139.941 457.854 140.183H456.673C456.673 139.831 456.741 139.501 456.876 139.192C457.016 138.879 457.21 138.606 457.46 138.374C457.71 138.145 458.008 137.965 458.355 137.834C458.706 137.699 459.096 137.631 459.523 137.631C459.938 137.631 460.316 137.688 460.659 137.802C461.002 137.912 461.296 138.077 461.542 138.297C461.787 138.517 461.977 138.79 462.113 139.116C462.248 139.442 462.316 139.819 462.316 140.246C462.316 140.424 462.288 140.608 462.233 140.798C462.178 140.989 462.094 141.173 461.979 141.351C461.865 141.533 461.717 141.704 461.535 141.865C461.357 142.021 461.144 142.153 460.894 142.258C461.194 142.356 461.444 142.483 461.643 142.639C461.846 142.796 462.009 142.971 462.132 143.166C462.25 143.361 462.333 143.566 462.379 143.782C462.43 143.998 462.456 144.211 462.456 144.423C462.456 144.854 462.382 145.237 462.233 145.572C462.085 145.906 461.88 146.188 461.618 146.416C461.355 146.649 461.044 146.826 460.685 146.949C460.329 147.068 459.944 147.127 459.529 147.127C459.123 147.127 458.74 147.07 458.38 146.956C458.025 146.841 457.716 146.674 457.454 146.454C457.191 146.234 456.982 145.965 456.825 145.648C456.673 145.331 456.597 144.969 456.597 144.562H457.771C457.771 144.804 457.811 145.024 457.892 145.223C457.976 145.422 458.095 145.591 458.247 145.73C458.399 145.87 458.583 145.978 458.799 146.054C459.019 146.13 459.263 146.168 459.529 146.168C459.796 146.168 460.037 146.135 460.253 146.067C460.469 145.995 460.653 145.887 460.805 145.743C460.958 145.599 461.074 145.422 461.154 145.21C461.239 144.994 461.281 144.74 461.281 144.448C461.281 144.16 461.233 143.913 461.135 143.706C461.042 143.494 460.911 143.318 460.742 143.179C460.568 143.039 460.359 142.935 460.113 142.868C459.872 142.8 459.605 142.766 459.313 142.766H458.476V141.814ZM461.865 163.896H463.154V164.854H461.865V167H460.691V164.854H456.476V164.163L460.615 157.758H461.865V163.896ZM457.777 163.896H460.691V159.319L460.5 159.675L457.777 163.896ZM457.523 182.366L457.987 177.758H462.729V178.9H458.977L458.717 181.363C458.899 181.257 459.117 181.164 459.371 181.084C459.625 181.004 459.919 180.963 460.253 180.963C460.68 180.963 461.063 181.037 461.402 181.186C461.74 181.334 462.028 181.541 462.265 181.808C462.502 182.078 462.684 182.404 462.811 182.785C462.938 183.166 463.001 183.589 463.001 184.055C463.001 184.495 462.942 184.903 462.824 185.28C462.705 185.656 462.528 185.98 462.291 186.251C462.049 186.526 461.747 186.742 461.383 186.898C461.019 187.051 460.591 187.127 460.101 187.127C459.724 187.127 459.368 187.074 459.034 186.968C458.7 186.862 458.404 186.704 458.146 186.492C457.883 186.281 457.667 186.014 457.498 185.692C457.333 185.371 457.229 184.996 457.187 184.569H458.304C458.376 185.094 458.569 185.491 458.882 185.762C459.199 186.033 459.605 186.168 460.101 186.168C460.38 186.168 460.627 186.12 460.843 186.022C461.059 185.921 461.241 185.777 461.389 185.591C461.533 185.409 461.641 185.189 461.713 184.931C461.789 184.673 461.827 184.385 461.827 184.067C461.827 183.78 461.785 183.511 461.7 183.261C461.62 183.012 461.501 182.794 461.345 182.607C461.188 182.425 460.996 182.282 460.767 182.176C460.539 182.07 460.276 182.017 459.98 182.017C459.785 182.017 459.616 182.032 459.472 182.062C459.333 182.087 459.206 182.125 459.091 182.176C458.977 182.227 458.869 182.288 458.768 182.36C458.67 182.432 458.569 182.514 458.463 182.607L457.523 182.366ZM461.434 197.751V198.805H461.332C460.773 198.805 460.299 198.886 459.91 199.046C459.521 199.203 459.199 199.415 458.945 199.681C458.679 199.96 458.476 200.293 458.336 200.678C458.201 201.063 458.12 201.458 458.095 201.865C458.205 201.734 458.332 201.613 458.476 201.503C458.619 201.389 458.776 201.289 458.945 201.205C459.11 201.124 459.288 201.061 459.479 201.014C459.673 200.963 459.876 200.938 460.088 200.938C460.549 200.938 460.947 201.027 461.281 201.205C461.616 201.378 461.891 201.609 462.106 201.896C462.322 202.184 462.481 202.51 462.583 202.874C462.684 203.238 462.735 203.608 462.735 203.985C462.735 204.417 462.674 204.823 462.551 205.204C462.432 205.584 462.252 205.917 462.011 206.2C461.77 206.488 461.47 206.714 461.11 206.879C460.754 207.044 460.342 207.127 459.872 207.127C459.398 207.127 458.981 207.032 458.622 206.841C458.262 206.651 457.959 206.403 457.714 206.099C457.439 205.764 457.234 205.375 457.098 204.931C456.963 204.482 456.895 204.034 456.895 203.585V203.033C456.895 202.263 456.986 201.505 457.168 200.76C457.35 200.015 457.705 199.379 458.234 198.85C458.598 198.486 459.041 198.213 459.561 198.031C460.082 197.845 460.672 197.751 461.332 197.751H461.434ZM459.897 201.916C459.699 201.916 459.506 201.947 459.32 202.011C459.134 202.074 458.96 202.163 458.799 202.277C458.639 202.392 458.497 202.529 458.374 202.69C458.251 202.851 458.154 203.028 458.082 203.223V203.617C458.082 204.023 458.131 204.385 458.228 204.702C458.325 205.015 458.457 205.28 458.622 205.496C458.787 205.711 458.977 205.876 459.193 205.991C459.409 206.101 459.635 206.156 459.872 206.156C460.147 206.156 460.39 206.103 460.602 205.997C460.814 205.891 460.993 205.745 461.142 205.559C461.285 205.373 461.393 205.151 461.465 204.893C461.542 204.63 461.58 204.347 461.58 204.042C461.58 203.771 461.546 203.509 461.478 203.255C461.41 202.997 461.307 202.768 461.167 202.569C461.027 202.37 460.852 202.212 460.64 202.093C460.429 201.975 460.181 201.916 459.897 201.916ZM462.957 218.418L459.129 227H457.898L461.713 218.786H456.711V217.758H462.957V218.418Z" fill="white"/>
<mask id="path-7-inside-2_7295_82312" fill="white">
<path d="M480 76H840V240C840 244.418 836.418 248 832 248H480V76Z"/>
</mask>
<path d="M480 76H840V240C840 244.418 836.418 248 832 248H480V76Z" fill="#F8F8F8"/>
<path d="M498.279 101.154C498.372 101.014 498.476 100.887 498.59 100.773C498.704 100.654 498.825 100.551 498.952 100.462C499.155 100.314 499.377 100.202 499.618 100.125C499.864 100.049 500.124 100.009 500.399 100.005C500.759 100.005 501.084 100.058 501.376 100.164C501.673 100.265 501.924 100.426 502.132 100.646C502.339 100.866 502.498 101.145 502.608 101.484C502.722 101.818 502.779 102.216 502.779 102.677V107H501.605V102.665C501.605 102.394 501.573 102.157 501.51 101.954C501.446 101.746 501.353 101.575 501.23 101.439C501.099 101.291 500.934 101.181 500.735 101.109C500.536 101.033 500.308 100.997 500.05 101.001C499.838 101.001 499.637 101.031 499.447 101.09C499.256 101.15 499.081 101.234 498.92 101.344C498.793 101.429 498.674 101.528 498.564 101.643C498.459 101.753 498.363 101.875 498.279 102.011V107H497.104V97.25H498.279V101.154ZM507.946 107.127C507.464 107.127 507.02 107.044 506.613 106.879C506.211 106.714 505.866 106.484 505.579 106.188C505.291 105.891 505.067 105.54 504.906 105.134C504.745 104.728 504.665 104.285 504.665 103.807V103.541C504.665 102.986 504.753 102.491 504.931 102.055C505.109 101.615 505.346 101.243 505.642 100.938C505.934 100.638 506.266 100.407 506.639 100.246C507.015 100.085 507.4 100.005 507.794 100.005C508.289 100.005 508.721 100.092 509.089 100.265C509.461 100.434 509.77 100.669 510.016 100.97C510.261 101.274 510.443 101.632 510.562 102.042C510.684 102.453 510.746 102.897 510.746 103.375V103.902H505.839V103.947C505.868 104.281 505.934 104.575 506.036 104.829C506.141 105.083 506.285 105.307 506.467 105.502C506.653 105.709 506.878 105.872 507.14 105.991C507.403 106.109 507.692 106.168 508.01 106.168C508.429 106.168 508.801 106.084 509.127 105.915C509.453 105.745 509.724 105.521 509.939 105.242L510.657 105.8C510.428 106.147 510.085 106.456 509.628 106.727C509.176 106.994 508.615 107.127 507.946 107.127ZM507.794 100.97C507.557 100.97 507.333 101.014 507.121 101.103C506.91 101.188 506.719 101.312 506.55 101.478C506.381 101.647 506.237 101.854 506.118 102.1C506.004 102.341 505.924 102.62 505.877 102.938H509.571V102.88C509.571 102.669 509.531 102.442 509.451 102.201C509.37 101.956 509.258 101.744 509.114 101.566C508.97 101.389 508.788 101.245 508.568 101.135C508.353 101.025 508.094 100.97 507.794 100.97ZM517.233 107C517.186 106.911 517.148 106.801 517.119 106.67C517.093 106.535 517.074 106.395 517.062 106.251C516.943 106.369 516.81 106.482 516.662 106.587C516.518 106.693 516.359 106.786 516.186 106.867C516.008 106.947 515.819 107.011 515.621 107.057C515.422 107.104 515.21 107.127 514.986 107.127C514.622 107.127 514.292 107.074 513.996 106.968C513.704 106.862 513.456 106.719 513.253 106.537C513.046 106.359 512.885 106.147 512.771 105.902C512.66 105.652 512.605 105.383 512.605 105.096C512.605 104.719 512.68 104.389 512.828 104.105C512.98 103.822 513.194 103.585 513.469 103.395C513.744 103.208 514.074 103.069 514.459 102.976C514.848 102.882 515.282 102.836 515.76 102.836H517.042V102.296C517.042 102.089 517.004 101.903 516.928 101.738C516.852 101.573 516.744 101.431 516.604 101.312C516.465 101.198 516.293 101.109 516.09 101.046C515.891 100.982 515.667 100.951 515.417 100.951C515.185 100.951 514.975 100.98 514.789 101.04C514.607 101.099 514.453 101.177 514.326 101.274C514.199 101.372 514.099 101.488 514.027 101.624C513.96 101.755 513.926 101.892 513.926 102.036H512.745C512.749 101.786 512.813 101.541 512.936 101.3C513.062 101.059 513.244 100.841 513.481 100.646C513.714 100.456 513.998 100.301 514.332 100.183C514.671 100.064 515.054 100.005 515.481 100.005C515.87 100.005 516.232 100.054 516.566 100.151C516.901 100.244 517.191 100.386 517.436 100.576C517.677 100.771 517.868 101.012 518.007 101.3C518.147 101.588 518.217 101.924 518.217 102.309V105.502C518.217 105.73 518.238 105.974 518.28 106.232C518.323 106.486 518.382 106.708 518.458 106.898V107H517.233ZM515.157 106.105C515.386 106.105 515.599 106.075 515.798 106.016C515.997 105.957 516.179 105.879 516.344 105.781C516.505 105.684 516.645 105.574 516.763 105.451C516.882 105.324 516.975 105.193 517.042 105.058V103.667H515.951C515.544 103.667 515.189 103.703 514.884 103.775C514.584 103.843 514.345 103.949 514.167 104.093C514.04 104.194 513.943 104.315 513.875 104.455C513.812 104.594 513.78 104.753 513.78 104.931C513.78 105.1 513.807 105.257 513.862 105.4C513.922 105.544 514.008 105.667 514.123 105.769C514.237 105.874 514.381 105.957 514.554 106.016C514.728 106.075 514.929 106.105 515.157 106.105ZM520.305 103.509C520.305 102.997 520.369 102.527 520.496 102.1C520.627 101.668 520.813 101.298 521.054 100.989C521.291 100.68 521.579 100.439 521.917 100.265C522.256 100.092 522.635 100.005 523.054 100.005C523.464 100.005 523.822 100.075 524.126 100.214C524.435 100.35 524.702 100.549 524.926 100.811V97.25H526.101V107H525.021L524.971 106.276C524.742 106.556 524.469 106.767 524.152 106.911C523.834 107.055 523.464 107.127 523.041 107.127C522.626 107.127 522.25 107.038 521.911 106.86C521.577 106.683 521.291 106.437 521.054 106.124C520.817 105.811 520.633 105.443 520.502 105.02C520.371 104.592 520.305 104.133 520.305 103.642V103.509ZM521.479 103.642C521.479 103.976 521.515 104.294 521.587 104.594C521.659 104.895 521.771 105.159 521.924 105.388C522.072 105.616 522.262 105.798 522.495 105.934C522.728 106.065 523.007 106.13 523.333 106.13C523.727 106.13 524.052 106.042 524.311 105.864C524.569 105.686 524.774 105.447 524.926 105.146V101.96C524.774 101.681 524.569 101.452 524.311 101.274C524.052 101.092 523.731 101.001 523.346 101.001C523.016 101.001 522.732 101.069 522.495 101.205C522.262 101.34 522.072 101.522 521.924 101.75C521.771 101.983 521.659 102.252 521.587 102.557C521.515 102.857 521.479 103.174 521.479 103.509V103.642ZM531.369 107.127C530.887 107.127 530.442 107.044 530.036 106.879C529.634 106.714 529.289 106.484 529.001 106.188C528.714 105.891 528.489 105.54 528.329 105.134C528.168 104.728 528.087 104.285 528.087 103.807V103.541C528.087 102.986 528.176 102.491 528.354 102.055C528.532 101.615 528.769 101.243 529.065 100.938C529.357 100.638 529.689 100.407 530.062 100.246C530.438 100.085 530.823 100.005 531.217 100.005C531.712 100.005 532.144 100.092 532.512 100.265C532.884 100.434 533.193 100.669 533.438 100.97C533.684 101.274 533.866 101.632 533.984 102.042C534.107 102.453 534.168 102.897 534.168 103.375V103.902H529.262V103.947C529.291 104.281 529.357 104.575 529.458 104.829C529.564 105.083 529.708 105.307 529.89 105.502C530.076 105.709 530.301 105.872 530.563 105.991C530.825 106.109 531.115 106.168 531.433 106.168C531.852 106.168 532.224 106.084 532.55 105.915C532.876 105.745 533.146 105.521 533.362 105.242L534.08 105.8C533.851 106.147 533.508 106.456 533.051 106.727C532.598 106.994 532.038 107.127 531.369 107.127ZM531.217 100.97C530.98 100.97 530.756 101.014 530.544 101.103C530.332 101.188 530.142 101.312 529.973 101.478C529.803 101.647 529.66 101.854 529.541 102.1C529.427 102.341 529.346 102.62 529.3 102.938H532.994V102.88C532.994 102.669 532.954 102.442 532.874 102.201C532.793 101.956 532.681 101.744 532.537 101.566C532.393 101.389 532.211 101.245 531.991 101.135C531.775 101.025 531.517 100.97 531.217 100.97ZM540.643 100.005C540.859 100.005 541.083 100.02 541.316 100.049C541.553 100.079 541.731 100.119 541.849 100.17L541.69 101.319C541.462 101.268 541.244 101.232 541.037 101.211C540.833 101.186 540.62 101.173 540.396 101.173C540.108 101.173 539.847 101.209 539.615 101.281C539.382 101.348 539.179 101.45 539.005 101.585C538.849 101.704 538.711 101.85 538.593 102.023C538.479 102.193 538.383 102.383 538.307 102.595V107H537.126V100.132H538.244L538.294 101.052L538.301 101.224C538.58 100.847 538.914 100.551 539.304 100.335C539.697 100.115 540.144 100.005 540.643 100.005ZM556.861 109.323C556.451 109.311 556.095 109.215 555.795 109.038C555.494 108.86 555.245 108.625 555.046 108.333C554.855 108.054 554.712 107.741 554.614 107.394C554.517 107.051 554.468 106.71 554.468 106.372V105.299C554.468 104.689 554.322 104.247 554.03 103.972C553.743 103.697 553.3 103.557 552.704 103.553V102.633C553.3 102.633 553.743 102.497 554.03 102.227C554.322 101.951 554.468 101.507 554.468 100.894V99.8145C554.468 99.4717 554.513 99.1226 554.602 98.7671C554.695 98.4074 554.841 98.0858 555.04 97.8022C555.226 97.5314 555.469 97.3114 555.77 97.1421C556.07 96.9686 556.434 96.8755 556.861 96.8628L556.995 97.5928C556.69 97.6012 556.447 97.6732 556.265 97.8086C556.087 97.944 555.954 98.1154 555.865 98.3228C555.772 98.5343 555.712 98.7713 555.687 99.0337C555.662 99.2961 555.649 99.5563 555.649 99.8145V100.894C555.649 101.401 555.53 101.848 555.293 102.233C555.061 102.614 554.699 102.904 554.208 103.103C554.699 103.297 555.061 103.587 555.293 103.972C555.526 104.353 555.645 104.795 555.649 105.299V106.372C555.649 106.634 555.67 106.894 555.712 107.152C555.755 107.415 555.829 107.65 555.935 107.857C556.036 108.069 556.172 108.242 556.341 108.377C556.514 108.513 556.732 108.585 556.995 108.593L556.861 109.323ZM534.156 123.642C534.156 123.943 534.132 124.232 534.086 124.512C534.044 124.787 533.98 125.045 533.896 125.286C533.781 125.604 533.631 125.889 533.445 126.143C533.263 126.393 533.043 126.6 532.785 126.765C532.598 126.879 532.393 126.968 532.169 127.032C531.949 127.095 531.71 127.127 531.452 127.127C531.155 127.127 530.885 127.091 530.639 127.019C530.398 126.947 530.18 126.843 529.985 126.708C529.892 126.64 529.803 126.566 529.719 126.486C529.634 126.405 529.554 126.317 529.478 126.219L529.42 127H528.341V117.25H529.516V120.868C529.613 120.745 529.721 120.635 529.839 120.538C529.958 120.437 530.085 120.35 530.22 120.278C530.389 120.189 530.576 120.121 530.779 120.075C530.982 120.028 531.202 120.005 531.439 120.005C531.735 120.005 532.008 120.045 532.258 120.125C532.507 120.206 532.734 120.318 532.937 120.462C533.119 120.597 533.282 120.762 533.426 120.957C533.57 121.147 533.697 121.361 533.807 121.598C533.921 121.865 534.008 122.161 534.067 122.487C534.126 122.808 534.156 123.149 534.156 123.509V123.642ZM532.981 123.509C532.981 123.293 532.967 123.083 532.937 122.88C532.912 122.673 532.871 122.478 532.816 122.296C532.74 122.072 532.641 121.867 532.518 121.681C532.395 121.494 532.245 121.348 532.067 121.243C531.945 121.167 531.807 121.107 531.655 121.065C531.502 121.023 531.333 121.001 531.147 121.001C530.944 121.001 530.758 121.029 530.588 121.084C530.419 121.135 530.269 121.207 530.138 121.3C530.002 121.397 529.882 121.511 529.776 121.643C529.674 121.77 529.588 121.909 529.516 122.062V125.064C529.592 125.216 529.681 125.358 529.782 125.489C529.888 125.616 530.009 125.728 530.144 125.826C530.279 125.923 530.432 125.999 530.601 126.054C530.77 126.105 530.957 126.13 531.16 126.13C531.354 126.13 531.532 126.107 531.693 126.061C531.854 126.01 531.998 125.938 532.125 125.845C532.294 125.726 532.436 125.576 532.55 125.394C532.664 125.212 532.755 125.009 532.823 124.785C532.878 124.615 532.918 124.433 532.943 124.239C532.969 124.044 532.981 123.845 532.981 123.642V123.509ZM535.812 123.502C535.812 123.007 535.884 122.548 536.028 122.125C536.172 121.698 536.38 121.327 536.65 121.014C536.917 120.701 537.243 120.456 537.628 120.278C538.013 120.096 538.447 120.005 538.929 120.005C539.416 120.005 539.852 120.096 540.237 120.278C540.626 120.456 540.956 120.701 541.227 121.014C541.494 121.327 541.699 121.698 541.843 122.125C541.987 122.548 542.059 123.007 542.059 123.502V123.642C542.059 124.137 541.987 124.596 541.843 125.02C541.699 125.443 541.494 125.811 541.227 126.124C540.956 126.437 540.628 126.683 540.243 126.86C539.858 127.038 539.424 127.127 538.942 127.127C538.455 127.127 538.017 127.038 537.628 126.86C537.243 126.683 536.917 126.437 536.65 126.124C536.38 125.811 536.172 125.443 536.028 125.02C535.884 124.596 535.812 124.137 535.812 123.642V123.502ZM536.987 123.642C536.987 123.981 537.027 124.304 537.107 124.613C537.188 124.918 537.311 125.187 537.476 125.419C537.636 125.652 537.84 125.836 538.085 125.972C538.33 126.107 538.616 126.175 538.942 126.175C539.264 126.175 539.545 126.107 539.786 125.972C540.032 125.836 540.237 125.652 540.402 125.419C540.563 125.187 540.683 124.918 540.764 124.613C540.844 124.304 540.884 123.981 540.884 123.642V123.502C540.884 123.168 540.842 122.849 540.757 122.544C540.677 122.235 540.556 121.964 540.396 121.731C540.23 121.499 540.025 121.315 539.78 121.179C539.539 121.04 539.255 120.97 538.929 120.97C538.603 120.97 538.32 121.04 538.079 121.179C537.837 121.315 537.636 121.499 537.476 121.731C537.311 121.964 537.188 122.235 537.107 122.544C537.027 122.849 536.987 123.168 536.987 123.502V123.642ZM543.728 123.509C543.728 122.997 543.792 122.527 543.918 122.1C544.05 121.668 544.236 121.298 544.477 120.989C544.714 120.68 545.002 120.439 545.34 120.265C545.679 120.092 546.058 120.005 546.477 120.005C546.887 120.005 547.245 120.075 547.549 120.214C547.858 120.35 548.125 120.549 548.349 120.811V117.25H549.523V127H548.444L548.394 126.276C548.165 126.556 547.892 126.767 547.575 126.911C547.257 127.055 546.887 127.127 546.464 127.127C546.049 127.127 545.673 127.038 545.334 126.86C545 126.683 544.714 126.437 544.477 126.124C544.24 125.811 544.056 125.443 543.925 125.02C543.794 124.592 543.728 124.133 543.728 123.642V123.509ZM544.902 123.642C544.902 123.976 544.938 124.294 545.01 124.594C545.082 124.895 545.194 125.159 545.347 125.388C545.495 125.616 545.685 125.798 545.918 125.934C546.151 126.065 546.43 126.13 546.756 126.13C547.149 126.13 547.475 126.042 547.733 125.864C547.992 125.686 548.197 125.447 548.349 125.146V121.96C548.197 121.681 547.992 121.452 547.733 121.274C547.475 121.092 547.154 121.001 546.769 121.001C546.438 121.001 546.155 121.069 545.918 121.205C545.685 121.34 545.495 121.522 545.347 121.75C545.194 121.983 545.082 122.252 545.01 122.557C544.938 122.857 544.902 123.174 544.902 123.509V123.642ZM552.31 129.774C552.2 129.774 552.071 129.761 551.923 129.736C551.775 129.71 551.663 129.689 551.586 129.672L551.777 128.714C551.883 128.722 551.986 128.729 552.088 128.733C552.194 128.741 552.276 128.746 552.335 128.746C552.496 128.746 552.642 128.701 552.773 128.612C552.909 128.523 553.029 128.418 553.135 128.295C553.237 128.172 553.324 128.045 553.396 127.914C553.472 127.783 553.531 127.675 553.573 127.59L554.043 126.676L551.085 120.132H552.399L554.284 124.562L554.589 125.394L554.913 124.588L556.684 120.132H557.998L554.513 128.06C554.432 128.238 554.329 128.426 554.202 128.625C554.079 128.824 553.929 129.008 553.751 129.177C553.573 129.347 553.366 129.488 553.129 129.603C552.892 129.717 552.619 129.774 552.31 129.774ZM572.477 129.323C572.066 129.311 571.711 129.215 571.41 129.038C571.11 128.86 570.86 128.625 570.661 128.333C570.471 128.054 570.327 127.741 570.229 127.394C570.132 127.051 570.083 126.71 570.083 126.372V125.299C570.083 124.689 569.938 124.247 569.646 123.972C569.358 123.697 568.916 123.557 568.319 123.553V122.633C568.916 122.633 569.358 122.497 569.646 122.227C569.938 121.951 570.083 121.507 570.083 120.894V119.814C570.083 119.472 570.128 119.123 570.217 118.767C570.31 118.407 570.456 118.086 570.655 117.802C570.841 117.531 571.084 117.311 571.385 117.142C571.685 116.969 572.049 116.875 572.477 116.863L572.61 117.593C572.305 117.601 572.062 117.673 571.88 117.809C571.702 117.944 571.569 118.115 571.48 118.323C571.387 118.534 571.328 118.771 571.302 119.034C571.277 119.296 571.264 119.556 571.264 119.814V120.894C571.264 121.401 571.146 121.848 570.909 122.233C570.676 122.614 570.314 122.904 569.823 123.103C570.314 123.297 570.676 123.587 570.909 123.972C571.141 124.353 571.26 124.795 571.264 125.299V126.372C571.264 126.634 571.285 126.894 571.328 127.152C571.37 127.415 571.444 127.65 571.55 127.857C571.651 128.069 571.787 128.242 571.956 128.377C572.13 128.513 572.347 128.585 572.61 128.593L572.477 129.323ZM561.609 146.238C561.609 145.989 561.686 145.775 561.838 145.597C561.99 145.419 562.221 145.331 562.53 145.331C562.834 145.331 563.065 145.419 563.222 145.597C563.382 145.771 563.463 145.984 563.463 146.238C563.463 146.488 563.382 146.697 563.222 146.867C563.061 147.036 562.83 147.121 562.53 147.121C562.225 147.121 561.994 147.036 561.838 146.867C561.686 146.693 561.609 146.484 561.609 146.238ZM571.937 145.178C571.937 145.039 571.91 144.914 571.854 144.804C571.799 144.689 571.706 144.586 571.575 144.493C571.444 144.4 571.271 144.315 571.055 144.239C570.839 144.158 570.57 144.086 570.249 144.023C569.855 143.943 569.495 143.845 569.169 143.731C568.848 143.617 568.573 143.479 568.344 143.318C568.111 143.162 567.932 142.978 567.805 142.766C567.678 142.55 567.614 142.301 567.614 142.017C567.614 141.738 567.68 141.478 567.811 141.236C567.942 140.991 568.126 140.777 568.363 140.595C568.6 140.413 568.882 140.269 569.208 140.164C569.538 140.058 569.899 140.005 570.293 140.005C570.716 140.005 571.097 140.06 571.436 140.17C571.774 140.28 572.062 140.432 572.299 140.627C572.536 140.822 572.718 141.05 572.845 141.312C572.976 141.571 573.042 141.85 573.042 142.15H571.867C571.867 142.002 571.829 141.858 571.753 141.719C571.677 141.575 571.571 141.448 571.436 141.338C571.3 141.228 571.135 141.139 570.94 141.071C570.75 141.004 570.534 140.97 570.293 140.97C570.043 140.97 569.823 140.997 569.633 141.052C569.447 141.107 569.292 141.181 569.169 141.274C569.042 141.368 568.947 141.475 568.884 141.598C568.82 141.721 568.789 141.848 568.789 141.979C568.789 142.114 568.814 142.235 568.865 142.341C568.916 142.447 569.004 142.542 569.131 142.626C569.254 142.711 569.419 142.787 569.626 142.855C569.838 142.923 570.105 142.988 570.426 143.052C570.849 143.141 571.228 143.244 571.562 143.363C571.897 143.477 572.178 143.615 572.407 143.775C572.635 143.94 572.809 144.131 572.927 144.347C573.05 144.562 573.111 144.812 573.111 145.096C573.111 145.4 573.042 145.678 572.902 145.927C572.766 146.177 572.576 146.391 572.331 146.568C572.085 146.746 571.791 146.884 571.448 146.981C571.105 147.078 570.731 147.127 570.325 147.127C569.859 147.127 569.444 147.066 569.081 146.943C568.717 146.816 568.41 146.649 568.16 146.441C567.906 146.238 567.712 146.001 567.576 145.73C567.445 145.46 567.379 145.178 567.379 144.886H568.554C568.571 145.127 568.634 145.331 568.744 145.496C568.858 145.661 569 145.794 569.169 145.896C569.334 145.997 569.519 146.069 569.722 146.111C569.925 146.154 570.126 146.175 570.325 146.175C570.638 146.175 570.911 146.139 571.144 146.067C571.376 145.991 571.558 145.887 571.689 145.756C571.77 145.675 571.831 145.587 571.874 145.489C571.916 145.392 571.937 145.288 571.937 145.178ZM579.694 147C579.647 146.911 579.609 146.801 579.58 146.67C579.554 146.535 579.535 146.395 579.522 146.251C579.404 146.369 579.271 146.482 579.123 146.587C578.979 146.693 578.82 146.786 578.646 146.867C578.469 146.947 578.28 147.011 578.082 147.057C577.883 147.104 577.671 147.127 577.447 147.127C577.083 147.127 576.753 147.074 576.457 146.968C576.165 146.862 575.917 146.719 575.714 146.537C575.507 146.359 575.346 146.147 575.231 145.902C575.121 145.652 575.066 145.383 575.066 145.096C575.066 144.719 575.14 144.389 575.289 144.105C575.441 143.822 575.655 143.585 575.93 143.395C576.205 143.208 576.535 143.069 576.92 142.976C577.309 142.882 577.743 142.836 578.221 142.836H579.503V142.296C579.503 142.089 579.465 141.903 579.389 141.738C579.313 141.573 579.205 141.431 579.065 141.312C578.926 141.198 578.754 141.109 578.551 141.046C578.352 140.982 578.128 140.951 577.878 140.951C577.646 140.951 577.436 140.98 577.25 141.04C577.068 141.099 576.914 141.177 576.787 141.274C576.66 141.372 576.56 141.488 576.488 141.624C576.421 141.755 576.387 141.892 576.387 142.036H575.206C575.21 141.786 575.274 141.541 575.396 141.3C575.523 141.059 575.705 140.841 575.942 140.646C576.175 140.456 576.459 140.301 576.793 140.183C577.132 140.064 577.514 140.005 577.942 140.005C578.331 140.005 578.693 140.054 579.027 140.151C579.362 140.244 579.652 140.386 579.897 140.576C580.138 140.771 580.329 141.012 580.468 141.3C580.608 141.588 580.678 141.924 580.678 142.309V145.502C580.678 145.73 580.699 145.974 580.741 146.232C580.784 146.486 580.843 146.708 580.919 146.898V147H579.694ZM577.618 146.105C577.847 146.105 578.06 146.075 578.259 146.016C578.458 145.957 578.64 145.879 578.805 145.781C578.966 145.684 579.106 145.574 579.224 145.451C579.343 145.324 579.436 145.193 579.503 145.058V143.667H578.412C578.005 143.667 577.65 143.703 577.345 143.775C577.045 143.843 576.806 143.949 576.628 144.093C576.501 144.194 576.404 144.315 576.336 144.455C576.272 144.594 576.241 144.753 576.241 144.931C576.241 145.1 576.268 145.257 576.323 145.4C576.382 145.544 576.469 145.667 576.583 145.769C576.698 145.874 576.842 145.957 577.015 146.016C577.189 146.075 577.39 146.105 577.618 146.105ZM583.528 140.132L583.56 140.779C583.699 140.538 583.881 140.35 584.105 140.214C584.334 140.079 584.609 140.009 584.931 140.005C585.113 140.005 585.276 140.026 585.419 140.068C585.568 140.106 585.697 140.164 585.807 140.24C585.887 140.299 585.959 140.371 586.022 140.456C586.09 140.54 586.147 140.635 586.194 140.741C586.253 140.644 586.323 140.553 586.403 140.468C586.484 140.384 586.57 140.31 586.664 140.246C586.782 140.174 586.913 140.117 587.057 140.075C587.205 140.032 587.366 140.009 587.54 140.005C587.777 140.005 587.99 140.041 588.181 140.113C588.371 140.181 588.532 140.282 588.663 140.417C588.807 140.57 588.917 140.769 588.993 141.014C589.069 141.255 589.107 141.541 589.107 141.871V147H587.99V141.858C587.99 141.715 587.973 141.588 587.939 141.478C587.906 141.368 587.857 141.277 587.793 141.205C587.726 141.137 587.641 141.086 587.54 141.052C587.442 141.018 587.328 141.001 587.197 141.001C587.057 141.001 586.937 141.021 586.835 141.059C586.733 141.097 586.649 141.147 586.581 141.211C586.513 141.279 586.46 141.357 586.422 141.446C586.384 141.53 586.359 141.626 586.346 141.731C586.346 141.753 586.346 141.774 586.346 141.795C586.346 141.812 586.346 141.833 586.346 141.858V147H585.229V141.852C585.229 141.708 585.212 141.581 585.178 141.471C585.149 141.361 585.1 141.27 585.032 141.198C584.969 141.131 584.888 141.082 584.791 141.052C584.698 141.018 584.588 141.001 584.461 141.001C584.321 141.001 584.199 141.018 584.093 141.052C583.991 141.082 583.904 141.126 583.833 141.186C583.778 141.232 583.729 141.285 583.687 141.344C583.648 141.403 583.617 141.467 583.591 141.535V147H582.474V140.132H583.528ZM590.79 149.641V140.132H591.862L591.919 140.881C592.013 140.762 592.114 140.657 592.224 140.563C592.334 140.466 592.453 140.384 592.58 140.316C592.757 140.214 592.954 140.138 593.17 140.087C593.39 140.032 593.625 140.005 593.875 140.005C594.315 140.005 594.704 140.092 595.042 140.265C595.381 140.439 595.665 140.68 595.893 140.989C596.122 141.298 596.295 141.668 596.414 142.1C596.532 142.527 596.591 142.997 596.591 143.509V143.642C596.591 144.133 596.532 144.592 596.414 145.02C596.295 145.443 596.122 145.811 595.893 146.124C595.665 146.437 595.381 146.683 595.042 146.86C594.708 147.038 594.325 147.127 593.894 147.127C593.631 147.127 593.386 147.099 593.157 147.044C592.933 146.989 592.73 146.911 592.548 146.81C592.438 146.746 592.334 146.676 592.237 146.6C592.139 146.52 592.049 146.433 591.964 146.34V149.641H590.79ZM595.417 143.509C595.417 143.174 595.379 142.857 595.303 142.557C595.231 142.252 595.119 141.983 594.966 141.75C594.81 141.522 594.613 141.34 594.376 141.205C594.139 141.069 593.855 141.001 593.525 141.001C593.343 141.001 593.174 141.023 593.018 141.065C592.865 141.107 592.728 141.169 592.605 141.249C592.47 141.329 592.349 141.429 592.243 141.547C592.137 141.666 592.044 141.797 591.964 141.941V145.248C592.036 145.375 592.118 145.493 592.211 145.604C592.305 145.714 592.41 145.807 592.529 145.883C592.664 145.972 592.814 146.042 592.979 146.092C593.149 146.143 593.335 146.168 593.538 146.168C593.864 146.168 594.145 146.101 594.382 145.965C594.619 145.826 594.814 145.639 594.966 145.407C595.119 145.174 595.231 144.905 595.303 144.601C595.379 144.296 595.417 143.976 595.417 143.642V143.509ZM598.788 137.25H602.298V145.984H604.539V147H598.788V145.984H601.124V138.272H598.788V137.25ZM609.445 147.127C608.963 147.127 608.519 147.044 608.112 146.879C607.71 146.714 607.365 146.484 607.078 146.188C606.79 145.891 606.566 145.54 606.405 145.134C606.244 144.728 606.164 144.285 606.164 143.807V143.541C606.164 142.986 606.252 142.491 606.43 142.055C606.608 141.615 606.845 141.243 607.141 140.938C607.433 140.638 607.765 140.407 608.138 140.246C608.514 140.085 608.899 140.005 609.293 140.005C609.788 140.005 610.22 140.092 610.588 140.265C610.96 140.434 611.269 140.669 611.515 140.97C611.76 141.274 611.942 141.632 612.061 142.042C612.183 142.453 612.245 142.897 612.245 143.375V143.902H607.338V143.947C607.368 144.281 607.433 144.575 607.535 144.829C607.64 145.083 607.784 145.307 607.966 145.502C608.153 145.709 608.377 145.872 608.639 145.991C608.902 146.109 609.191 146.168 609.509 146.168C609.928 146.168 610.3 146.084 610.626 145.915C610.952 145.745 611.223 145.521 611.438 145.242L612.156 145.8C611.927 146.147 611.584 146.456 611.127 146.727C610.675 146.994 610.114 147.127 609.445 147.127ZM609.293 140.97C609.056 140.97 608.832 141.014 608.62 141.103C608.409 141.188 608.218 141.312 608.049 141.478C607.88 141.647 607.736 141.854 607.617 142.1C607.503 142.341 607.423 142.62 607.376 142.938H611.07V142.88C611.07 142.669 611.03 142.442 610.95 142.201C610.869 141.956 610.757 141.744 610.613 141.566C610.469 141.389 610.287 141.245 610.067 141.135C609.852 141.025 609.593 140.97 609.293 140.97ZM619.354 143.439H614.498V142.474H619.354V143.439ZM625.835 147H624.661V139.256L622.242 140.176V139.104L625.74 137.758H625.835V147ZM642.745 149.323C642.335 149.311 641.979 149.215 641.679 149.038C641.378 148.86 641.129 148.625 640.93 148.333C640.739 148.054 640.595 147.741 640.498 147.394C640.401 147.051 640.352 146.71 640.352 146.372V145.299C640.352 144.689 640.206 144.247 639.914 143.972C639.626 143.697 639.184 143.557 638.587 143.553V142.633C639.184 142.633 639.626 142.497 639.914 142.227C640.206 141.951 640.352 141.507 640.352 140.894V139.814C640.352 139.472 640.396 139.123 640.485 138.767C640.578 138.407 640.724 138.086 640.923 137.802C641.11 137.531 641.353 137.311 641.653 137.142C641.954 136.969 642.318 136.875 642.745 136.863L642.878 137.593C642.574 137.601 642.33 137.673 642.148 137.809C641.971 137.944 641.837 138.115 641.749 138.323C641.655 138.534 641.596 138.771 641.571 139.034C641.545 139.296 641.533 139.556 641.533 139.814V140.894C641.533 141.401 641.414 141.848 641.177 142.233C640.944 142.614 640.583 142.904 640.092 143.103C640.583 143.297 640.944 143.587 641.177 143.972C641.41 144.353 641.528 144.795 641.533 145.299V146.372C641.533 146.634 641.554 146.894 641.596 147.152C641.639 147.415 641.713 147.65 641.818 147.857C641.92 148.069 642.055 148.242 642.225 148.377C642.398 148.513 642.616 148.585 642.878 148.593L642.745 149.323ZM562.492 166.175C562.703 166.175 562.909 166.141 563.107 166.073C563.311 166.006 563.49 165.91 563.647 165.788C563.804 165.669 563.928 165.529 564.021 165.369C564.119 165.204 564.17 165.026 564.174 164.835H565.285C565.28 165.14 565.2 165.432 565.043 165.711C564.891 165.986 564.686 166.228 564.428 166.435C564.17 166.647 563.873 166.816 563.539 166.943C563.205 167.066 562.856 167.127 562.492 167.127C561.971 167.127 561.516 167.034 561.127 166.848C560.738 166.661 560.414 166.41 560.156 166.092C559.893 165.779 559.697 165.417 559.565 165.007C559.434 164.592 559.369 164.156 559.369 163.699V163.433C559.369 162.98 559.434 162.546 559.565 162.131C559.697 161.717 559.893 161.351 560.156 161.033C560.414 160.72 560.738 160.47 561.127 160.284C561.516 160.098 561.971 160.005 562.492 160.005C562.898 160.005 563.27 160.07 563.609 160.202C563.952 160.329 564.248 160.502 564.498 160.722C564.743 160.946 564.936 161.211 565.075 161.516C565.215 161.82 565.285 162.146 565.285 162.493H564.174C564.17 162.286 564.123 162.091 564.034 161.909C563.95 161.723 563.833 161.56 563.685 161.42C563.537 161.281 563.359 161.171 563.152 161.09C562.949 161.01 562.729 160.97 562.492 160.97C562.128 160.97 561.821 161.044 561.571 161.192C561.326 161.336 561.127 161.524 560.975 161.757C560.822 161.994 560.712 162.258 560.645 162.55C560.581 162.842 560.549 163.136 560.549 163.433V163.699C560.549 164 560.581 164.298 560.645 164.594C560.712 164.886 560.822 165.149 560.975 165.381C561.123 165.618 561.319 165.811 561.565 165.959C561.815 166.103 562.124 166.175 562.492 166.175ZM567.043 163.502C567.043 163.007 567.115 162.548 567.259 162.125C567.403 161.698 567.61 161.327 567.881 161.014C568.147 160.701 568.473 160.456 568.858 160.278C569.243 160.096 569.677 160.005 570.16 160.005C570.646 160.005 571.082 160.096 571.467 160.278C571.857 160.456 572.187 160.701 572.458 161.014C572.724 161.327 572.929 161.698 573.073 162.125C573.217 162.548 573.289 163.007 573.289 163.502V163.642C573.289 164.137 573.217 164.596 573.073 165.02C572.929 165.443 572.724 165.811 572.458 166.124C572.187 166.437 571.859 166.683 571.474 166.86C571.089 167.038 570.655 167.127 570.172 167.127C569.686 167.127 569.248 167.038 568.858 166.86C568.473 166.683 568.147 166.437 567.881 166.124C567.61 165.811 567.403 165.443 567.259 165.02C567.115 164.596 567.043 164.137 567.043 163.642V163.502ZM568.217 163.642C568.217 163.981 568.257 164.304 568.338 164.613C568.418 164.918 568.541 165.187 568.706 165.419C568.867 165.652 569.07 165.836 569.315 165.972C569.561 166.107 569.847 166.175 570.172 166.175C570.494 166.175 570.775 166.107 571.017 165.972C571.262 165.836 571.467 165.652 571.632 165.419C571.793 165.187 571.914 164.918 571.994 164.613C572.075 164.304 572.115 163.981 572.115 163.642V163.502C572.115 163.168 572.072 162.849 571.988 162.544C571.907 162.235 571.787 161.964 571.626 161.731C571.461 161.499 571.256 161.315 571.01 161.179C570.769 161.04 570.486 160.97 570.16 160.97C569.834 160.97 569.55 161.04 569.309 161.179C569.068 161.315 568.867 161.499 568.706 161.731C568.541 161.964 568.418 162.235 568.338 162.544C568.257 162.849 568.217 163.168 568.217 163.502V163.642ZM575.365 157.25H578.875V165.984H581.116V167H575.365V165.984H577.701V158.272H575.365V157.25ZM582.658 163.502C582.658 163.007 582.73 162.548 582.874 162.125C583.018 161.698 583.225 161.327 583.496 161.014C583.763 160.701 584.089 160.456 584.474 160.278C584.859 160.096 585.292 160.005 585.775 160.005C586.262 160.005 586.697 160.096 587.083 160.278C587.472 160.456 587.802 160.701 588.073 161.014C588.339 161.327 588.545 161.698 588.688 162.125C588.832 162.548 588.904 163.007 588.904 163.502V163.642C588.904 164.137 588.832 164.596 588.688 165.02C588.545 165.443 588.339 165.811 588.073 166.124C587.802 166.437 587.474 166.683 587.089 166.86C586.704 167.038 586.27 167.127 585.788 167.127C585.301 167.127 584.863 167.038 584.474 166.86C584.089 166.683 583.763 166.437 583.496 166.124C583.225 165.811 583.018 165.443 582.874 165.02C582.73 164.596 582.658 164.137 582.658 163.642V163.502ZM583.833 163.642C583.833 163.981 583.873 164.304 583.953 164.613C584.034 164.918 584.156 165.187 584.321 165.419C584.482 165.652 584.685 165.836 584.931 165.972C585.176 166.107 585.462 166.175 585.788 166.175C586.109 166.175 586.391 166.107 586.632 165.972C586.877 165.836 587.083 165.652 587.248 165.419C587.408 165.187 587.529 164.918 587.609 164.613C587.69 164.304 587.73 163.981 587.73 163.642V163.502C587.73 163.168 587.688 162.849 587.603 162.544C587.523 162.235 587.402 161.964 587.241 161.731C587.076 161.499 586.871 161.315 586.625 161.179C586.384 161.04 586.101 160.97 585.775 160.97C585.449 160.97 585.166 161.04 584.924 161.179C584.683 161.315 584.482 161.499 584.321 161.731C584.156 161.964 584.034 162.235 583.953 162.544C583.873 162.849 583.833 163.168 583.833 163.502V163.642ZM595.296 160.005C595.512 160.005 595.736 160.02 595.969 160.049C596.206 160.079 596.384 160.119 596.502 160.17L596.344 161.319C596.115 161.268 595.897 161.232 595.69 161.211C595.487 161.186 595.273 161.173 595.049 161.173C594.761 161.173 594.501 161.209 594.268 161.281C594.035 161.348 593.832 161.45 593.659 161.585C593.502 161.704 593.365 161.85 593.246 162.023C593.132 162.193 593.037 162.383 592.96 162.595V167H591.78V160.132H592.897L592.948 161.052L592.954 161.224C593.233 160.847 593.568 160.551 593.957 160.335C594.351 160.115 594.797 160.005 595.296 160.005ZM600.965 166.238C600.965 165.989 601.041 165.775 601.193 165.597C601.346 165.419 601.576 165.331 601.885 165.331C602.19 165.331 602.421 165.419 602.577 165.597C602.738 165.771 602.818 165.984 602.818 166.238C602.818 166.488 602.738 166.697 602.577 166.867C602.416 167.036 602.186 167.121 601.885 167.121C601.581 167.121 601.35 167.036 601.193 166.867C601.041 166.693 600.965 166.484 600.965 166.238ZM600.965 160.678C600.965 160.428 601.041 160.214 601.193 160.037C601.346 159.859 601.576 159.77 601.885 159.77C602.19 159.77 602.421 159.859 602.577 160.037C602.738 160.21 602.818 160.424 602.818 160.678C602.818 160.927 602.738 161.137 602.577 161.306C602.416 161.475 602.186 161.56 601.885 161.56C601.581 161.56 601.35 161.475 601.193 161.306C601.041 161.133 600.965 160.923 600.965 160.678ZM671.176 160.678C671.176 160.428 671.252 160.214 671.405 160.037C671.557 159.859 671.788 159.77 672.097 159.77C672.401 159.77 672.632 159.859 672.789 160.037C672.949 160.21 673.03 160.424 673.03 160.678C673.03 160.927 672.949 161.137 672.789 161.306C672.628 161.475 672.397 161.56 672.097 161.56C671.792 161.56 671.561 161.475 671.405 161.306C671.252 161.133 671.176 160.923 671.176 160.678ZM672.687 166.727C672.687 167.15 672.588 167.582 672.389 168.022C672.19 168.462 671.921 168.832 671.583 169.133L670.853 168.733C671.056 168.437 671.2 168.121 671.284 167.787C671.369 167.453 671.411 167.106 671.411 166.746V165.61H672.687V166.727ZM498.05 188.593C498.308 188.585 498.524 188.513 498.698 188.377C498.871 188.242 499.011 188.069 499.117 187.857C499.218 187.65 499.29 187.415 499.333 187.152C499.379 186.894 499.402 186.634 499.402 186.372V185.299C499.402 184.965 499.451 184.656 499.548 184.372C499.65 184.089 499.804 183.843 500.012 183.636C500.122 183.526 500.244 183.426 500.38 183.337C500.52 183.249 500.672 183.17 500.837 183.103C500.668 183.035 500.511 182.954 500.367 182.861C500.228 182.768 500.105 182.665 499.999 182.55C499.796 182.339 499.646 182.093 499.548 181.814C499.451 181.53 499.402 181.224 499.402 180.894V179.814C499.402 179.556 499.388 179.296 499.358 179.034C499.333 178.771 499.275 178.534 499.187 178.323C499.093 178.115 498.958 177.944 498.78 177.809C498.603 177.673 498.361 177.601 498.057 177.593L498.184 176.863C498.594 176.875 498.945 176.962 499.237 177.123C499.534 177.284 499.777 177.493 499.967 177.751C500.183 178.043 500.338 178.371 500.431 178.735C500.528 179.099 500.577 179.459 500.577 179.814V180.894C500.577 181.147 500.6 181.372 500.646 181.566C500.697 181.757 500.771 181.922 500.869 182.062C501.008 182.26 501.201 182.406 501.446 182.5C501.696 182.588 501.994 182.633 502.341 182.633V183.553C502.037 183.557 501.77 183.596 501.542 183.667C501.317 183.735 501.133 183.843 500.989 183.991C500.85 184.135 500.746 184.315 500.678 184.531C500.611 184.747 500.577 185.003 500.577 185.299V186.372C500.577 186.71 500.53 187.051 500.437 187.394C500.344 187.741 500.2 188.056 500.005 188.339C499.806 188.623 499.557 188.856 499.256 189.038C498.956 189.22 498.598 189.315 498.184 189.323L498.05 188.593ZM498.05 208.593C498.308 208.585 498.524 208.513 498.698 208.377C498.871 208.242 499.011 208.069 499.117 207.857C499.218 207.65 499.29 207.415 499.333 207.152C499.379 206.894 499.402 206.634 499.402 206.372V205.299C499.402 204.965 499.451 204.656 499.548 204.372C499.65 204.089 499.804 203.843 500.012 203.636C500.122 203.526 500.244 203.426 500.38 203.337C500.52 203.249 500.672 203.17 500.837 203.103C500.668 203.035 500.511 202.954 500.367 202.861C500.228 202.768 500.105 202.665 499.999 202.55C499.796 202.339 499.646 202.093 499.548 201.814C499.451 201.53 499.402 201.224 499.402 200.894V199.814C499.402 199.556 499.388 199.296 499.358 199.034C499.333 198.771 499.275 198.534 499.187 198.323C499.093 198.115 498.958 197.944 498.78 197.809C498.603 197.673 498.361 197.601 498.057 197.593L498.184 196.863C498.594 196.875 498.945 196.962 499.237 197.123C499.534 197.284 499.777 197.493 499.967 197.751C500.183 198.043 500.338 198.371 500.431 198.735C500.528 199.099 500.577 199.459 500.577 199.814V200.894C500.577 201.147 500.6 201.372 500.646 201.566C500.697 201.757 500.771 201.922 500.869 202.062C501.008 202.26 501.201 202.406 501.446 202.5C501.696 202.588 501.994 202.633 502.341 202.633V203.553C502.037 203.557 501.77 203.596 501.542 203.667C501.317 203.735 501.133 203.843 500.989 203.991C500.85 204.135 500.746 204.315 500.678 204.531C500.611 204.747 500.577 205.003 500.577 205.299V206.372C500.577 206.71 500.53 207.051 500.437 207.394C500.344 207.741 500.2 208.056 500.005 208.339C499.806 208.623 499.557 208.856 499.256 209.038C498.956 209.22 498.598 209.315 498.184 209.323L498.05 208.593ZM498.05 228.593C498.308 228.585 498.524 228.513 498.698 228.377C498.871 228.242 499.011 228.069 499.117 227.857C499.218 227.65 499.29 227.415 499.333 227.152C499.379 226.894 499.402 226.634 499.402 226.372V225.299C499.402 224.965 499.451 224.656 499.548 224.372C499.65 224.089 499.804 223.843 500.012 223.636C500.122 223.526 500.244 223.426 500.38 223.337C500.52 223.249 500.672 223.17 500.837 223.103C500.668 223.035 500.511 222.954 500.367 222.861C500.228 222.768 500.105 222.665 499.999 222.55C499.796 222.339 499.646 222.093 499.548 221.814C499.451 221.53 499.402 221.224 499.402 220.894V219.814C499.402 219.556 499.388 219.296 499.358 219.034C499.333 218.771 499.275 218.534 499.187 218.323C499.093 218.115 498.958 217.944 498.78 217.809C498.603 217.673 498.361 217.601 498.057 217.593L498.184 216.863C498.594 216.875 498.945 216.962 499.237 217.123C499.534 217.284 499.777 217.493 499.967 217.751C500.183 218.043 500.338 218.371 500.431 218.735C500.528 219.099 500.577 219.459 500.577 219.814V220.894C500.577 221.147 500.6 221.372 500.646 221.566C500.697 221.757 500.771 221.922 500.869 222.062C501.008 222.26 501.201 222.406 501.446 222.5C501.696 222.588 501.994 222.633 502.341 222.633V223.553C502.037 223.557 501.77 223.596 501.542 223.667C501.317 223.735 501.133 223.843 500.989 223.991C500.85 224.135 500.746 224.315 500.678 224.531C500.611 224.747 500.577 225.003 500.577 225.299V226.372C500.577 226.71 500.53 227.051 500.437 227.394C500.344 227.741 500.2 228.056 500.005 228.339C499.806 228.623 499.557 228.856 499.256 229.038C498.956 229.22 498.598 229.315 498.184 229.323L498.05 228.593Z" fill="#333333"/>
<path d="M617.602 164.397H615.926L615.418 167H614.511L615.019 164.397H613.501V163.528H615.184L615.622 161.281H613.984V160.398H615.793L616.313 157.758H617.221L616.701 160.398H618.376L618.897 157.758H619.805L619.284 160.398H620.585V161.281H619.113L618.675 163.528H620.109V164.397H618.51L618.002 167H617.094L617.602 164.397ZM616.091 163.528H617.767L618.205 161.281H616.529L616.091 163.528ZM627.168 162.918H623.321V167H622.134V157.758H627.809V158.761H623.321V161.922H627.168V162.918ZM634.976 162.918H631.129V167H629.942V157.758H635.617V158.761H631.129V161.922H634.976V162.918ZM641.971 157.751V158.805H641.869C641.311 158.805 640.837 158.886 640.447 159.046C640.058 159.203 639.736 159.415 639.482 159.681C639.216 159.96 639.013 160.293 638.873 160.678C638.738 161.063 638.657 161.458 638.632 161.865C638.742 161.734 638.869 161.613 639.013 161.503C639.157 161.389 639.313 161.289 639.482 161.205C639.647 161.124 639.825 161.061 640.016 161.014C640.21 160.963 640.413 160.938 640.625 160.938C641.086 160.938 641.484 161.027 641.818 161.205C642.153 161.378 642.428 161.609 642.644 161.896C642.859 162.184 643.018 162.51 643.12 162.874C643.221 163.238 643.272 163.608 643.272 163.985C643.272 164.417 643.211 164.823 643.088 165.204C642.969 165.584 642.79 165.917 642.548 166.2C642.307 166.488 642.007 166.714 641.647 166.879C641.292 167.044 640.879 167.127 640.409 167.127C639.935 167.127 639.518 167.032 639.159 166.841C638.799 166.651 638.496 166.403 638.251 166.099C637.976 165.764 637.771 165.375 637.635 164.931C637.5 164.482 637.432 164.034 637.432 163.585V163.033C637.432 162.263 637.523 161.505 637.705 160.76C637.887 160.015 638.243 159.379 638.771 158.85C639.135 158.486 639.578 158.213 640.098 158.031C640.619 157.845 641.209 157.751 641.869 157.751H641.971ZM640.435 161.916C640.236 161.916 640.043 161.947 639.857 162.011C639.671 162.074 639.497 162.163 639.336 162.277C639.176 162.392 639.034 162.529 638.911 162.69C638.788 162.851 638.691 163.028 638.619 163.223V163.617C638.619 164.023 638.668 164.385 638.765 164.702C638.862 165.015 638.994 165.28 639.159 165.496C639.324 165.711 639.514 165.876 639.73 165.991C639.946 166.101 640.172 166.156 640.409 166.156C640.684 166.156 640.928 166.103 641.139 165.997C641.351 165.891 641.531 165.745 641.679 165.559C641.823 165.373 641.931 165.151 642.002 164.893C642.079 164.63 642.117 164.347 642.117 164.042C642.117 163.771 642.083 163.509 642.015 163.255C641.947 162.997 641.844 162.768 641.704 162.569C641.564 162.37 641.389 162.212 641.177 162.093C640.966 161.975 640.718 161.916 640.435 161.916ZM645.329 167V157.758H647.468C647.827 157.762 648.166 157.8 648.483 157.872C648.805 157.94 649.101 158.037 649.372 158.164C649.749 158.338 650.081 158.566 650.369 158.85C650.661 159.129 650.893 159.453 651.067 159.821C651.223 160.134 651.342 160.477 651.422 160.849C651.507 161.222 651.551 161.619 651.556 162.042V162.722C651.556 163.128 651.515 163.513 651.435 163.877C651.359 164.241 651.247 164.575 651.099 164.88C650.946 165.197 650.754 165.485 650.521 165.743C650.288 166.001 650.028 166.221 649.74 166.403C649.436 166.594 649.091 166.74 648.706 166.841C648.325 166.943 647.912 166.996 647.468 167H645.329ZM646.522 158.723V166.042H647.468C647.806 166.037 648.113 165.995 648.388 165.915C648.667 165.834 648.915 165.72 649.131 165.572C649.359 165.419 649.556 165.233 649.721 165.013C649.89 164.789 650.024 164.539 650.121 164.264C650.206 164.04 650.269 163.799 650.312 163.541C650.354 163.278 650.377 163.005 650.381 162.722V162.03C650.377 161.742 650.352 161.467 650.305 161.205C650.263 160.938 650.197 160.69 650.108 160.462C649.994 160.166 649.84 159.899 649.645 159.662C649.455 159.421 649.22 159.226 648.94 159.078C648.742 158.968 648.519 158.883 648.274 158.824C648.028 158.761 647.76 158.727 647.468 158.723H646.522ZM657.586 157.751V158.805H657.484C656.926 158.805 656.452 158.886 656.062 159.046C655.673 159.203 655.352 159.415 655.098 159.681C654.831 159.96 654.628 160.293 654.488 160.678C654.353 161.063 654.272 161.458 654.247 161.865C654.357 161.734 654.484 161.613 654.628 161.503C654.772 161.389 654.928 161.289 655.098 161.205C655.263 161.124 655.44 161.061 655.631 161.014C655.826 160.963 656.029 160.938 656.24 160.938C656.701 160.938 657.099 161.027 657.434 161.205C657.768 161.378 658.043 161.609 658.259 161.896C658.475 162.184 658.633 162.51 658.735 162.874C658.836 163.238 658.887 163.608 658.887 163.985C658.887 164.417 658.826 164.823 658.703 165.204C658.585 165.584 658.405 165.917 658.164 166.2C657.922 166.488 657.622 166.714 657.262 166.879C656.907 167.044 656.494 167.127 656.024 167.127C655.55 167.127 655.134 167.032 654.774 166.841C654.414 166.651 654.112 166.403 653.866 166.099C653.591 165.764 653.386 165.375 653.25 164.931C653.115 164.482 653.047 164.034 653.047 163.585V163.033C653.047 162.263 653.138 161.505 653.32 160.76C653.502 160.015 653.858 159.379 654.387 158.85C654.751 158.486 655.193 158.213 655.713 158.031C656.234 157.845 656.824 157.751 657.484 157.751H657.586ZM656.05 161.916C655.851 161.916 655.658 161.947 655.472 162.011C655.286 162.074 655.112 162.163 654.952 162.277C654.791 162.392 654.649 162.529 654.526 162.69C654.404 162.851 654.306 163.028 654.234 163.223V163.617C654.234 164.023 654.283 164.385 654.38 164.702C654.478 165.015 654.609 165.28 654.774 165.496C654.939 165.711 655.129 165.876 655.345 165.991C655.561 166.101 655.787 166.156 656.024 166.156C656.299 166.156 656.543 166.103 656.754 165.997C656.966 165.891 657.146 165.745 657.294 165.559C657.438 165.373 657.546 165.151 657.618 164.893C657.694 164.63 657.732 164.347 657.732 164.042C657.732 163.771 657.698 163.509 657.63 163.255C657.563 162.997 657.459 162.768 657.319 162.569C657.18 162.37 657.004 162.212 656.792 162.093C656.581 161.975 656.333 161.916 656.05 161.916ZM660.944 167V157.758H663.083C663.443 157.762 663.781 157.8 664.099 157.872C664.42 157.94 664.716 158.037 664.987 158.164C665.364 158.338 665.696 158.566 665.984 158.85C666.276 159.129 666.509 159.453 666.682 159.821C666.839 160.134 666.957 160.477 667.038 160.849C667.122 161.222 667.167 161.619 667.171 162.042V162.722C667.171 163.128 667.131 163.513 667.05 163.877C666.974 164.241 666.862 164.575 666.714 164.88C666.562 165.197 666.369 165.485 666.136 165.743C665.903 166.001 665.643 166.221 665.355 166.403C665.051 166.594 664.706 166.74 664.321 166.841C663.94 166.943 663.527 166.996 663.083 167H660.944ZM662.137 158.723V166.042H663.083C663.422 166.037 663.728 165.995 664.003 165.915C664.283 165.834 664.53 165.72 664.746 165.572C664.975 165.419 665.171 165.233 665.336 165.013C665.506 164.789 665.639 164.539 665.736 164.264C665.821 164.04 665.884 163.799 665.927 163.541C665.969 163.278 665.992 163.005 665.997 162.722V162.03C665.992 161.742 665.967 161.467 665.92 161.205C665.878 160.938 665.812 160.69 665.724 160.462C665.609 160.166 665.455 159.899 665.26 159.662C665.07 159.421 664.835 159.226 664.556 159.078C664.357 158.968 664.135 158.883 663.889 158.824C663.644 158.761 663.375 158.727 663.083 158.723H662.137Z" fill="#F45C59"/>
<path d="M480 76H840H480ZM841 240C841 244.971 836.971 249 832 249H480V247H832C835.866 247 839 243.866 839 240H841ZM480 248V76V248ZM841 76V240C841 244.971 836.971 249 832 249V247C835.866 247 839 243.866 839 240V76H841Z" fill="#E6E6E6" mask="url(#path-7-inside-2_7295_82312)"/>
</g>
<rect x="0.5" y="0.5" width="1279" height="291" rx="15.5" stroke="#E6E6E6"/>
<defs>
<clipPath id="clip0_7295_82312">
<path d="M440 48C440 43.5817 443.582 40 448 40H832C836.418 40 840 43.5817 840 48V240C840 244.418 836.418 248 832 248H448C443.582 248 440 244.418 440 240V48Z" fill="white"/>
</clipPath>
</defs>
</svg>
