<svg width="1280" height="456" viewBox="0 0 1280 456" fill="none" xmlns="http://www.w3.org/2000/svg">
<g clip-path="url(#clip0_10509_60176)">
<rect width="1280" height="456" rx="16" fill="#F2F2F2"/>
<rect width="140" height="716" fill="#1D2327"/>
<rect x="100" width="1180" height="32" fill="#1D2327"/>
<path d="M172 72C172 67.5817 175.582 64 180 64H1240C1244.42 64 1248 67.5817 1248 72V576C1248 580.418 1244.42 584 1240 584H180C175.582 584 172 580.418 172 576V72Z" fill="white"/>
<rect opacity="0.5" x="196" y="96" width="60" height="8" rx="2" fill="#AAAAAA"/>
<path d="M280 134H172V138H280V134Z" fill="#0059FF" mask="url(#path-7-inside-2_10509_60176)"/>
<rect opacity="0.5" x="320" y="96" width="60" height="8" rx="2" fill="#AAAAAA"/>
<rect opacity="0.5" x="420" y="96" width="60" height="8" rx="2" fill="#AAAAAA"/>
<rect opacity="0.5" x="520" y="96" width="60" height="8" rx="2" fill="#AAAAAA"/>
<path d="M1248 135H172V137H1248V135Z" fill="#E6E6E6" mask="url(#path-5-inside-1_10509_60176)"/>
<mask id="path-13-inside-3_10509_60176" fill="white">
<path d="M172 136H1248V208H172V136Z"/>
</mask>
<path d="M172 136H1248V208H172V136Z" fill="#F8F8F8"/>
<g clip-path="url(#clip1_10509_60176)">
<rect x="204.5" y="152.5" width="239" height="39" rx="3.5" fill="white"/>
<path d="M225.039 172.012H222.336L222.322 170.877H224.775C225.181 170.877 225.535 170.809 225.837 170.672C226.14 170.535 226.375 170.34 226.541 170.086C226.711 169.827 226.797 169.52 226.797 169.163C226.797 168.772 226.721 168.455 226.57 168.211C226.423 167.962 226.196 167.781 225.889 167.669C225.586 167.552 225.2 167.493 224.731 167.493H222.651V177H221.238V166.336H224.731C225.278 166.336 225.767 166.392 226.196 166.504C226.626 166.612 226.99 166.783 227.288 167.017C227.59 167.247 227.82 167.54 227.976 167.896C228.132 168.252 228.21 168.68 228.21 169.178C228.21 169.617 228.098 170.015 227.874 170.372C227.649 170.723 227.336 171.011 226.936 171.236C226.541 171.46 226.077 171.604 225.544 171.668L225.039 172.012ZM224.973 177H221.78L222.578 175.85H224.973C225.422 175.85 225.803 175.772 226.116 175.616C226.433 175.459 226.675 175.24 226.841 174.957C227.007 174.668 227.09 174.329 227.09 173.938C227.09 173.543 227.019 173.201 226.877 172.913C226.736 172.625 226.514 172.403 226.211 172.247C225.908 172.09 225.518 172.012 225.039 172.012H223.025L223.04 170.877H225.793L226.094 171.287C226.606 171.331 227.041 171.478 227.397 171.727C227.754 171.971 228.025 172.283 228.21 172.664C228.401 173.045 228.496 173.465 228.496 173.924C228.496 174.588 228.35 175.149 228.057 175.608C227.769 176.062 227.361 176.409 226.833 176.648C226.306 176.883 225.686 177 224.973 177ZM235.227 175.169V169.075H236.589V177H235.293L235.227 175.169ZM235.483 173.499L236.047 173.484C236.047 174.012 235.991 174.5 235.879 174.949C235.771 175.394 235.596 175.779 235.352 176.106C235.107 176.434 234.788 176.69 234.392 176.875C233.997 177.056 233.516 177.146 232.949 177.146C232.563 177.146 232.209 177.09 231.887 176.978C231.57 176.866 231.296 176.692 231.067 176.458C230.837 176.224 230.659 175.918 230.532 175.542C230.41 175.167 230.349 174.715 230.349 174.188V169.075H231.704V174.202C231.704 174.559 231.743 174.854 231.821 175.088C231.904 175.318 232.014 175.501 232.151 175.638C232.292 175.77 232.449 175.862 232.62 175.916C232.795 175.97 232.976 175.997 233.162 175.997C233.738 175.997 234.194 175.887 234.531 175.667C234.868 175.442 235.11 175.142 235.256 174.766C235.408 174.385 235.483 173.963 235.483 173.499ZM240.127 165.75V177H238.765V165.75H240.127ZM243.665 165.75V177H242.302V165.75H243.665ZM248.506 169.075L245.049 172.774L243.115 174.781L243.005 173.338L244.39 171.683L246.851 169.075H248.506ZM247.268 177L244.441 173.221L245.144 172.012L248.865 177H247.268ZM258.298 175.645V171.565C258.298 171.253 258.235 170.982 258.108 170.752C257.986 170.518 257.8 170.337 257.551 170.21C257.302 170.083 256.995 170.02 256.628 170.02C256.287 170.02 255.986 170.079 255.728 170.196C255.474 170.313 255.273 170.467 255.127 170.657C254.985 170.848 254.915 171.053 254.915 171.272H253.56C253.56 170.989 253.633 170.708 253.779 170.43C253.926 170.152 254.136 169.9 254.409 169.676C254.688 169.446 255.02 169.266 255.405 169.134C255.796 168.997 256.23 168.929 256.709 168.929C257.285 168.929 257.793 169.026 258.232 169.222C258.677 169.417 259.023 169.712 259.272 170.108C259.526 170.499 259.653 170.989 259.653 171.58V175.271C259.653 175.535 259.675 175.816 259.719 176.114C259.768 176.412 259.839 176.668 259.932 176.883V177H258.518C258.45 176.844 258.396 176.636 258.357 176.377C258.318 176.114 258.298 175.87 258.298 175.645ZM258.533 172.195L258.547 173.147H257.178C256.792 173.147 256.448 173.179 256.145 173.243C255.842 173.301 255.588 173.392 255.383 173.514C255.178 173.636 255.022 173.79 254.915 173.975C254.807 174.156 254.753 174.368 254.753 174.612C254.753 174.861 254.81 175.088 254.922 175.293C255.034 175.499 255.203 175.662 255.427 175.784C255.657 175.901 255.938 175.96 256.27 175.96C256.685 175.96 257.051 175.872 257.368 175.696C257.686 175.521 257.937 175.306 258.123 175.052C258.313 174.798 258.416 174.551 258.43 174.312L259.009 174.964C258.975 175.169 258.882 175.396 258.73 175.645C258.579 175.894 258.376 176.133 258.123 176.363C257.874 176.587 257.576 176.775 257.229 176.927C256.887 177.073 256.501 177.146 256.072 177.146C255.535 177.146 255.063 177.042 254.658 176.832C254.258 176.622 253.945 176.341 253.721 175.989C253.501 175.633 253.391 175.235 253.391 174.795C253.391 174.371 253.474 173.997 253.64 173.675C253.806 173.348 254.045 173.077 254.358 172.862C254.67 172.642 255.046 172.476 255.486 172.364C255.925 172.251 256.416 172.195 256.958 172.195H258.533ZM264.956 176.033C265.278 176.033 265.576 175.967 265.85 175.835C266.123 175.704 266.348 175.523 266.523 175.293C266.699 175.059 266.799 174.793 266.824 174.495H268.113C268.088 174.964 267.93 175.401 267.637 175.806C267.349 176.207 266.97 176.531 266.501 176.78C266.033 177.024 265.518 177.146 264.956 177.146C264.36 177.146 263.84 177.042 263.396 176.832C262.957 176.622 262.59 176.333 262.297 175.967C262.009 175.601 261.792 175.181 261.646 174.708C261.504 174.229 261.433 173.724 261.433 173.191V172.884C261.433 172.352 261.504 171.849 261.646 171.375C261.792 170.896 262.009 170.474 262.297 170.108C262.59 169.742 262.957 169.454 263.396 169.244C263.84 169.034 264.36 168.929 264.956 168.929C265.576 168.929 266.118 169.056 266.582 169.31C267.046 169.559 267.41 169.9 267.673 170.335C267.942 170.765 268.088 171.253 268.113 171.8H266.824C266.799 171.473 266.707 171.177 266.545 170.914C266.389 170.65 266.174 170.44 265.901 170.284C265.632 170.123 265.317 170.042 264.956 170.042C264.541 170.042 264.192 170.125 263.909 170.291C263.63 170.452 263.408 170.672 263.242 170.95C263.081 171.224 262.964 171.529 262.891 171.866C262.822 172.198 262.788 172.537 262.788 172.884V173.191C262.788 173.538 262.822 173.88 262.891 174.217C262.959 174.554 263.074 174.859 263.235 175.132C263.401 175.406 263.623 175.625 263.901 175.792C264.185 175.953 264.536 176.033 264.956 176.033ZM272.954 169.075V170.115H268.669V169.075H272.954ZM270.12 167.149H271.475V175.037C271.475 175.306 271.516 175.508 271.599 175.645C271.682 175.782 271.79 175.872 271.921 175.916C272.053 175.96 272.195 175.982 272.346 175.982C272.458 175.982 272.576 175.972 272.698 175.953C272.825 175.928 272.92 175.909 272.983 175.894L272.991 177C272.883 177.034 272.742 177.066 272.566 177.095C272.395 177.129 272.188 177.146 271.943 177.146C271.611 177.146 271.306 177.081 271.028 176.949C270.75 176.817 270.527 176.597 270.361 176.29C270.2 175.977 270.12 175.557 270.12 175.03V167.149ZM276.016 169.075V177H274.653V169.075H276.016ZM274.551 166.973C274.551 166.753 274.617 166.568 274.749 166.417C274.885 166.265 275.085 166.189 275.349 166.189C275.608 166.189 275.806 166.265 275.942 166.417C276.084 166.568 276.155 166.753 276.155 166.973C276.155 167.183 276.084 167.364 275.942 167.515C275.806 167.662 275.608 167.735 275.349 167.735C275.085 167.735 274.885 167.662 274.749 167.515C274.617 167.364 274.551 167.183 274.551 166.973ZM277.832 173.125V172.957C277.832 172.386 277.915 171.856 278.081 171.368C278.247 170.875 278.486 170.447 278.799 170.086C279.111 169.72 279.49 169.437 279.934 169.236C280.378 169.031 280.876 168.929 281.428 168.929C281.985 168.929 282.485 169.031 282.93 169.236C283.379 169.437 283.76 169.72 284.072 170.086C284.39 170.447 284.631 170.875 284.797 171.368C284.963 171.856 285.046 172.386 285.046 172.957V173.125C285.046 173.697 284.963 174.227 284.797 174.715C284.631 175.203 284.39 175.63 284.072 175.997C283.76 176.358 283.381 176.641 282.937 176.846C282.498 177.046 282 177.146 281.443 177.146C280.886 177.146 280.386 177.046 279.941 176.846C279.497 176.641 279.116 176.358 278.799 175.997C278.486 175.63 278.247 175.203 278.081 174.715C277.915 174.227 277.832 173.697 277.832 173.125ZM279.187 172.957V173.125C279.187 173.521 279.233 173.895 279.326 174.246C279.419 174.593 279.558 174.9 279.744 175.169C279.934 175.438 280.171 175.65 280.454 175.806C280.737 175.958 281.067 176.033 281.443 176.033C281.814 176.033 282.139 175.958 282.417 175.806C282.7 175.65 282.935 175.438 283.12 175.169C283.306 174.9 283.445 174.593 283.538 174.246C283.635 173.895 283.684 173.521 283.684 173.125V172.957C283.684 172.566 283.635 172.198 283.538 171.851C283.445 171.5 283.303 171.189 283.113 170.921C282.927 170.647 282.693 170.433 282.41 170.276C282.131 170.12 281.804 170.042 281.428 170.042C281.057 170.042 280.73 170.12 280.447 170.276C280.168 170.433 279.934 170.647 279.744 170.921C279.558 171.189 279.419 171.5 279.326 171.851C279.233 172.198 279.187 172.566 279.187 172.957ZM288.101 170.767V177H286.746V169.075H288.027L288.101 170.767ZM287.778 172.737L287.214 172.715C287.219 172.173 287.3 171.673 287.456 171.214C287.612 170.75 287.832 170.347 288.115 170.005C288.398 169.664 288.735 169.4 289.126 169.214C289.521 169.024 289.958 168.929 290.437 168.929C290.828 168.929 291.179 168.982 291.492 169.09C291.804 169.192 292.07 169.358 292.29 169.588C292.515 169.817 292.686 170.115 292.803 170.481C292.92 170.843 292.979 171.285 292.979 171.807V177H291.616V171.792C291.616 171.377 291.555 171.045 291.433 170.796C291.311 170.542 291.133 170.359 290.898 170.247C290.664 170.13 290.376 170.071 290.034 170.071C289.697 170.071 289.39 170.142 289.111 170.284C288.838 170.425 288.601 170.621 288.401 170.87C288.206 171.119 288.052 171.404 287.939 171.727C287.832 172.044 287.778 172.381 287.778 172.737Z" fill="#1A1A1A"/>
<path d="M424 176.4C423.744 176.4 423.488 176.297 423.293 176.092L417.293 169.792C416.902 169.382 416.902 168.718 417.293 168.308C417.684 167.897 418.316 167.897 418.707 168.308L424 173.867L429.293 168.308C429.684 167.898 430.316 167.898 430.707 168.308C431.098 168.719 431.098 169.383 430.707 169.793L424.707 176.093C424.512 176.298 424.256 176.4 424 176.4Z" fill="#737373"/>
<rect x="204.5" y="152.5" width="239" height="39" rx="3.5" stroke="#AAAAAA"/>
</g>
<rect x="452" y="152" width="70" height="40" rx="4" fill="#E6E6E6"/>
<path d="M473.237 167.757L470.051 177H468.125L472.138 166.336H473.369L473.237 167.757ZM475.903 177L472.709 167.757L472.57 166.336H473.808L477.836 177H475.903ZM475.749 173.045V174.502H469.948V173.045H475.749ZM480.495 170.599V180.047H478.73V169.075H480.356L480.495 170.599ZM485.659 172.964V173.118C485.659 173.694 485.59 174.229 485.454 174.722C485.322 175.21 485.124 175.638 484.86 176.004C484.602 176.365 484.282 176.646 483.901 176.846C483.52 177.046 483.081 177.146 482.583 177.146C482.089 177.146 481.657 177.056 481.286 176.875C480.92 176.69 480.61 176.429 480.356 176.092C480.102 175.755 479.897 175.359 479.741 174.905C479.589 174.446 479.482 173.943 479.418 173.396V172.803C479.482 172.222 479.589 171.695 479.741 171.221C479.897 170.748 480.102 170.34 480.356 169.998C480.61 169.656 480.92 169.393 481.286 169.207C481.652 169.021 482.08 168.929 482.568 168.929C483.066 168.929 483.508 169.026 483.894 169.222C484.279 169.412 484.604 169.686 484.868 170.042C485.131 170.394 485.329 170.818 485.461 171.316C485.593 171.81 485.659 172.359 485.659 172.964ZM483.894 173.118V172.964C483.894 172.598 483.859 172.259 483.791 171.946C483.723 171.629 483.615 171.351 483.469 171.111C483.322 170.872 483.134 170.687 482.905 170.555C482.68 170.418 482.409 170.35 482.092 170.35C481.779 170.35 481.511 170.403 481.286 170.511C481.062 170.613 480.874 170.757 480.722 170.943C480.571 171.128 480.454 171.346 480.371 171.595C480.288 171.839 480.229 172.105 480.195 172.393V173.814C480.253 174.166 480.354 174.488 480.495 174.781C480.637 175.074 480.837 175.308 481.096 175.484C481.359 175.655 481.696 175.74 482.106 175.74C482.424 175.74 482.695 175.672 482.919 175.535C483.144 175.398 483.327 175.21 483.469 174.971C483.615 174.727 483.723 174.446 483.791 174.129C483.859 173.812 483.894 173.475 483.894 173.118ZM488.933 170.599V180.047H487.167V169.075H488.793L488.933 170.599ZM494.096 172.964V173.118C494.096 173.694 494.028 174.229 493.891 174.722C493.759 175.21 493.562 175.638 493.298 176.004C493.039 176.365 492.719 176.646 492.338 176.846C491.958 177.046 491.518 177.146 491.02 177.146C490.527 177.146 490.095 177.056 489.724 176.875C489.357 176.69 489.047 176.429 488.793 176.092C488.54 175.755 488.334 175.359 488.178 174.905C488.027 174.446 487.919 173.943 487.856 173.396V172.803C487.919 172.222 488.027 171.695 488.178 171.221C488.334 170.748 488.54 170.34 488.793 169.998C489.047 169.656 489.357 169.393 489.724 169.207C490.09 169.021 490.517 168.929 491.005 168.929C491.503 168.929 491.945 169.026 492.331 169.222C492.717 169.412 493.042 169.686 493.305 170.042C493.569 170.394 493.767 170.818 493.898 171.316C494.03 171.81 494.096 172.359 494.096 172.964ZM492.331 173.118V172.964C492.331 172.598 492.297 172.259 492.229 171.946C492.16 171.629 492.053 171.351 491.906 171.111C491.76 170.872 491.572 170.687 491.342 170.555C491.118 170.418 490.847 170.35 490.529 170.35C490.217 170.35 489.948 170.403 489.724 170.511C489.499 170.613 489.311 170.757 489.16 170.943C489.008 171.128 488.891 171.346 488.808 171.595C488.725 171.839 488.667 172.105 488.632 172.393V173.814C488.691 174.166 488.791 174.488 488.933 174.781C489.074 175.074 489.274 175.308 489.533 175.484C489.797 175.655 490.134 175.74 490.544 175.74C490.861 175.74 491.132 175.672 491.357 175.535C491.582 175.398 491.765 175.21 491.906 174.971C492.053 174.727 492.16 174.446 492.229 174.129C492.297 173.812 492.331 173.475 492.331 173.118ZM497.487 165.75V177H495.715V165.75H497.487ZM501.721 176.136L503.874 169.075H505.764L502.585 178.208C502.512 178.404 502.417 178.616 502.299 178.846C502.182 179.075 502.028 179.292 501.838 179.498C501.652 179.708 501.42 179.876 501.142 180.003C500.864 180.135 500.527 180.201 500.131 180.201C499.975 180.201 499.824 180.186 499.677 180.157C499.536 180.132 499.401 180.105 499.274 180.076L499.267 178.729C499.316 178.733 499.375 178.738 499.443 178.743C499.516 178.748 499.575 178.75 499.619 178.75C499.912 178.75 500.156 178.714 500.351 178.641C500.546 178.572 500.705 178.46 500.827 178.304C500.954 178.147 501.062 177.938 501.149 177.674L501.721 176.136ZM500.505 169.075L502.387 175.008L502.702 176.868L501.479 177.183L498.601 169.075H500.505Z" fill="#AAAAAA"/>
<rect x="913.5" y="152.5" width="219" height="39" rx="3.5" fill="white"/>
<path d="M946.697 180.398L941.461 175.164C942.594 173.777 943.219 172.031 943.219 170.125C943.219 165.637 939.58 162 935.092 162C930.604 162 927 165.638 927 170.125C927 174.612 930.638 178.25 935.092 178.25C936.998 178.25 938.747 177.589 940.132 176.491L945.368 181.725C945.587 181.91 945.829 182 946.068 182C946.306 182 946.547 181.908 946.731 181.725C947.095 181.359 947.095 180.766 946.697 180.398ZM928.876 170.125C928.876 166.679 931.68 163.875 935.127 163.875C938.574 163.875 941.379 166.679 941.379 170.125C941.379 173.571 938.574 176.375 935.127 176.375C931.68 176.375 928.876 173.57 928.876 170.125Z" fill="#737373"/>
<path d="M963.921 174.305C963.921 174.056 963.882 173.836 963.804 173.646C963.731 173.45 963.599 173.274 963.409 173.118C963.223 172.962 962.964 172.813 962.632 172.671C962.305 172.53 961.89 172.386 961.387 172.239C960.86 172.083 960.384 171.91 959.959 171.719C959.534 171.524 959.17 171.302 958.868 171.053C958.565 170.804 958.333 170.518 958.172 170.196C958.011 169.874 957.93 169.505 957.93 169.09C957.93 168.675 958.016 168.292 958.187 167.94C958.357 167.588 958.602 167.283 958.919 167.024C959.241 166.761 959.625 166.556 960.069 166.409C960.513 166.263 961.009 166.189 961.556 166.189C962.356 166.189 963.035 166.343 963.592 166.651C964.153 166.954 964.581 167.352 964.874 167.845C965.167 168.333 965.313 168.855 965.313 169.412H963.907C963.907 169.012 963.821 168.658 963.65 168.35C963.479 168.038 963.221 167.793 962.874 167.618C962.527 167.437 962.088 167.347 961.556 167.347C961.053 167.347 960.638 167.422 960.311 167.574C959.983 167.725 959.739 167.93 959.578 168.189C959.422 168.448 959.344 168.743 959.344 169.075C959.344 169.3 959.39 169.505 959.483 169.69C959.581 169.871 959.729 170.04 959.93 170.196C960.135 170.352 960.394 170.496 960.706 170.628C961.023 170.76 961.402 170.887 961.841 171.009C962.447 171.18 962.969 171.37 963.409 171.58C963.848 171.79 964.209 172.027 964.493 172.291C964.781 172.549 964.993 172.845 965.13 173.177C965.271 173.504 965.342 173.875 965.342 174.29C965.342 174.725 965.254 175.118 965.079 175.469C964.903 175.821 964.651 176.121 964.324 176.37C963.997 176.619 963.604 176.812 963.145 176.949C962.691 177.081 962.183 177.146 961.622 177.146C961.128 177.146 960.643 177.078 960.164 176.941C959.69 176.805 959.258 176.6 958.868 176.326C958.482 176.053 958.172 175.716 957.938 175.315C957.708 174.91 957.593 174.441 957.593 173.909H959C959 174.275 959.07 174.59 959.212 174.854C959.354 175.113 959.546 175.328 959.791 175.499C960.04 175.669 960.32 175.796 960.633 175.879C960.95 175.958 961.28 175.997 961.622 175.997C962.115 175.997 962.532 175.928 962.874 175.792C963.216 175.655 963.475 175.459 963.65 175.206C963.831 174.952 963.921 174.651 963.921 174.305ZM970.228 177.146C969.676 177.146 969.175 177.054 968.726 176.868C968.282 176.678 967.898 176.412 967.576 176.07C967.259 175.728 967.015 175.323 966.844 174.854C966.673 174.385 966.587 173.873 966.587 173.316V173.008C966.587 172.364 966.683 171.79 966.873 171.287C967.063 170.779 967.322 170.35 967.649 169.998C967.977 169.646 968.348 169.38 968.763 169.2C969.178 169.019 969.607 168.929 970.052 168.929C970.618 168.929 971.106 169.026 971.517 169.222C971.932 169.417 972.271 169.69 972.535 170.042C972.798 170.389 972.994 170.799 973.121 171.272C973.248 171.741 973.311 172.254 973.311 172.811V173.418H967.393V172.312H971.956V172.21C971.937 171.858 971.863 171.517 971.736 171.185C971.614 170.853 971.419 170.579 971.15 170.364C970.882 170.149 970.516 170.042 970.052 170.042C969.744 170.042 969.461 170.108 969.202 170.24C968.943 170.367 968.721 170.557 968.536 170.811C968.35 171.065 968.206 171.375 968.104 171.741C968.001 172.107 967.95 172.53 967.95 173.008V173.316C967.95 173.692 968.001 174.046 968.104 174.378C968.211 174.705 968.365 174.993 968.565 175.242C968.77 175.491 969.017 175.687 969.305 175.828C969.598 175.97 969.93 176.041 970.301 176.041C970.779 176.041 971.185 175.943 971.517 175.748C971.849 175.552 972.139 175.291 972.388 174.964L973.208 175.616C973.038 175.875 972.82 176.121 972.557 176.355C972.293 176.59 971.968 176.78 971.583 176.927C971.202 177.073 970.75 177.146 970.228 177.146ZM979.566 175.645V171.565C979.566 171.253 979.502 170.982 979.375 170.752C979.253 170.518 979.068 170.337 978.819 170.21C978.57 170.083 978.262 170.02 977.896 170.02C977.554 170.02 977.254 170.079 976.995 170.196C976.741 170.313 976.541 170.467 976.395 170.657C976.253 170.848 976.182 171.053 976.182 171.272H974.827C974.827 170.989 974.9 170.708 975.047 170.43C975.193 170.152 975.403 169.9 975.677 169.676C975.955 169.446 976.287 169.266 976.673 169.134C977.063 168.997 977.498 168.929 977.977 168.929C978.553 168.929 979.061 169.026 979.5 169.222C979.944 169.417 980.291 169.712 980.54 170.108C980.794 170.499 980.921 170.989 980.921 171.58V175.271C980.921 175.535 980.943 175.816 980.987 176.114C981.036 176.412 981.106 176.668 981.199 176.883V177H979.786C979.717 176.844 979.664 176.636 979.625 176.377C979.585 176.114 979.566 175.87 979.566 175.645ZM979.8 172.195L979.815 173.147H978.445C978.06 173.147 977.715 173.179 977.413 173.243C977.11 173.301 976.856 173.392 976.651 173.514C976.446 173.636 976.29 173.79 976.182 173.975C976.075 174.156 976.021 174.368 976.021 174.612C976.021 174.861 976.077 175.088 976.189 175.293C976.302 175.499 976.47 175.662 976.695 175.784C976.924 175.901 977.205 175.96 977.537 175.96C977.952 175.96 978.318 175.872 978.636 175.696C978.953 175.521 979.205 175.306 979.39 175.052C979.581 174.798 979.683 174.551 979.698 174.312L980.276 174.964C980.242 175.169 980.149 175.396 979.998 175.645C979.847 175.894 979.644 176.133 979.39 176.363C979.141 176.587 978.843 176.775 978.497 176.927C978.155 177.073 977.769 177.146 977.339 177.146C976.802 177.146 976.331 177.042 975.926 176.832C975.525 176.622 975.213 176.341 974.988 175.989C974.769 175.633 974.659 175.235 974.659 174.795C974.659 174.371 974.742 173.997 974.908 173.675C975.074 173.348 975.313 173.077 975.625 172.862C975.938 172.642 976.314 172.476 976.753 172.364C977.193 172.251 977.684 172.195 978.226 172.195H979.8ZM984.407 170.32V177H983.052V169.075H984.371L984.407 170.32ZM986.883 169.031L986.875 170.291C986.763 170.267 986.656 170.252 986.553 170.247C986.456 170.237 986.343 170.232 986.216 170.232C985.904 170.232 985.628 170.281 985.389 170.379C985.149 170.477 984.947 170.613 984.781 170.789C984.615 170.965 984.483 171.175 984.385 171.419C984.292 171.658 984.231 171.922 984.202 172.21L983.821 172.43C983.821 171.951 983.868 171.502 983.96 171.082C984.058 170.662 984.207 170.291 984.407 169.969C984.607 169.642 984.861 169.388 985.169 169.207C985.481 169.021 985.853 168.929 986.282 168.929C986.38 168.929 986.492 168.941 986.619 168.965C986.746 168.985 986.834 169.007 986.883 169.031ZM991.16 176.033C991.482 176.033 991.78 175.967 992.054 175.835C992.327 175.704 992.552 175.523 992.728 175.293C992.903 175.059 993.003 174.793 993.028 174.495H994.317C994.292 174.964 994.134 175.401 993.841 175.806C993.553 176.207 993.174 176.531 992.706 176.78C992.237 177.024 991.722 177.146 991.16 177.146C990.564 177.146 990.044 177.042 989.6 176.832C989.161 176.622 988.794 176.333 988.501 175.967C988.213 175.601 987.996 175.181 987.85 174.708C987.708 174.229 987.637 173.724 987.637 173.191V172.884C987.637 172.352 987.708 171.849 987.85 171.375C987.996 170.896 988.213 170.474 988.501 170.108C988.794 169.742 989.161 169.454 989.6 169.244C990.044 169.034 990.564 168.929 991.16 168.929C991.78 168.929 992.322 169.056 992.786 169.31C993.25 169.559 993.614 169.9 993.877 170.335C994.146 170.765 994.292 171.253 994.317 171.8H993.028C993.003 171.473 992.911 171.177 992.75 170.914C992.593 170.65 992.378 170.44 992.105 170.284C991.836 170.123 991.521 170.042 991.16 170.042C990.745 170.042 990.396 170.125 990.113 170.291C989.834 170.452 989.612 170.672 989.446 170.95C989.285 171.224 989.168 171.529 989.095 171.866C989.026 172.198 988.992 172.537 988.992 172.884V173.191C988.992 173.538 989.026 173.88 989.095 174.217C989.163 174.554 989.278 174.859 989.439 175.132C989.605 175.406 989.827 175.625 990.105 175.792C990.389 175.953 990.74 176.033 991.16 176.033ZM997.195 165.75V177H995.84V165.75H997.195ZM996.873 172.737L996.309 172.715C996.314 172.173 996.395 171.673 996.551 171.214C996.707 170.75 996.927 170.347 997.21 170.005C997.493 169.664 997.83 169.4 998.221 169.214C998.616 169.024 999.053 168.929 999.532 168.929C999.922 168.929 1000.27 168.982 1000.59 169.09C1000.9 169.192 1001.17 169.358 1001.38 169.588C1001.61 169.817 1001.78 170.115 1001.9 170.481C1002.01 170.843 1002.07 171.285 1002.07 171.807V177H1000.71V171.792C1000.71 171.377 1000.65 171.045 1000.53 170.796C1000.41 170.542 1000.23 170.359 999.993 170.247C999.759 170.13 999.471 170.071 999.129 170.071C998.792 170.071 998.484 170.142 998.206 170.284C997.933 170.425 997.696 170.621 997.496 170.87C997.3 171.119 997.146 171.404 997.034 171.727C996.927 172.044 996.873 172.381 996.873 172.737ZM1009.84 177H1008.49V168.24C1008.49 167.669 1008.59 167.188 1008.8 166.797C1009.01 166.402 1009.31 166.104 1009.7 165.904C1010.09 165.699 1010.55 165.596 1011.09 165.596C1011.25 165.596 1011.4 165.606 1011.56 165.625C1011.72 165.645 1011.88 165.674 1012.03 165.713L1011.95 166.819C1011.85 166.795 1011.73 166.778 1011.6 166.768C1011.48 166.758 1011.35 166.753 1011.22 166.753C1010.93 166.753 1010.68 166.812 1010.47 166.929C1010.27 167.042 1010.11 167.208 1010.01 167.427C1009.9 167.647 1009.84 167.918 1009.84 168.24V177ZM1011.53 169.075V170.115H1007.24V169.075H1011.53ZM1012.68 173.125V172.957C1012.68 172.386 1012.76 171.856 1012.93 171.368C1013.09 170.875 1013.33 170.447 1013.65 170.086C1013.96 169.72 1014.34 169.437 1014.78 169.236C1015.23 169.031 1015.72 168.929 1016.27 168.929C1016.83 168.929 1017.33 169.031 1017.78 169.236C1018.23 169.437 1018.61 169.72 1018.92 170.086C1019.24 170.447 1019.48 170.875 1019.64 171.368C1019.81 171.856 1019.89 172.386 1019.89 172.957V173.125C1019.89 173.697 1019.81 174.227 1019.64 174.715C1019.48 175.203 1019.24 175.63 1018.92 175.997C1018.61 176.358 1018.23 176.641 1017.78 176.846C1017.34 177.046 1016.85 177.146 1016.29 177.146C1015.73 177.146 1015.23 177.046 1014.79 176.846C1014.34 176.641 1013.96 176.358 1013.65 175.997C1013.33 175.63 1013.09 175.203 1012.93 174.715C1012.76 174.227 1012.68 173.697 1012.68 173.125ZM1014.03 172.957V173.125C1014.03 173.521 1014.08 173.895 1014.17 174.246C1014.27 174.593 1014.4 174.9 1014.59 175.169C1014.78 175.438 1015.02 175.65 1015.3 175.806C1015.58 175.958 1015.91 176.033 1016.29 176.033C1016.66 176.033 1016.99 175.958 1017.26 175.806C1017.55 175.65 1017.78 175.438 1017.97 175.169C1018.15 174.9 1018.29 174.593 1018.38 174.246C1018.48 173.895 1018.53 173.521 1018.53 173.125V172.957C1018.53 172.566 1018.48 172.198 1018.38 171.851C1018.29 171.5 1018.15 171.189 1017.96 170.921C1017.77 170.647 1017.54 170.433 1017.26 170.276C1016.98 170.12 1016.65 170.042 1016.27 170.042C1015.9 170.042 1015.58 170.12 1015.29 170.276C1015.02 170.433 1014.78 170.647 1014.59 170.921C1014.4 171.189 1014.27 171.5 1014.17 171.851C1014.08 172.198 1014.03 172.566 1014.03 172.957ZM1022.95 170.32V177H1021.59V169.075H1022.91L1022.95 170.32ZM1025.42 169.031L1025.42 170.291C1025.3 170.267 1025.2 170.252 1025.09 170.247C1025 170.237 1024.88 170.232 1024.76 170.232C1024.44 170.232 1024.17 170.281 1023.93 170.379C1023.69 170.477 1023.49 170.613 1023.32 170.789C1023.15 170.965 1023.02 171.175 1022.93 171.419C1022.83 171.658 1022.77 171.922 1022.74 172.21L1022.36 172.43C1022.36 171.951 1022.41 171.502 1022.5 171.082C1022.6 170.662 1022.75 170.291 1022.95 169.969C1023.15 169.642 1023.4 169.388 1023.71 169.207C1024.02 169.021 1024.39 168.929 1024.82 168.929C1024.92 168.929 1025.03 168.941 1025.16 168.965C1025.29 168.985 1025.37 169.007 1025.42 169.031ZM1028.02 170.65V177H1026.66V169.075H1027.95L1028.02 170.65ZM1027.74 172.737L1027.11 172.715C1027.12 172.173 1027.19 171.673 1027.33 171.214C1027.46 170.75 1027.67 170.347 1027.94 170.005C1028.2 169.664 1028.54 169.4 1028.94 169.214C1029.34 169.024 1029.8 168.929 1030.33 168.929C1030.7 168.929 1031.04 168.982 1031.36 169.09C1031.67 169.192 1031.94 169.356 1032.17 169.581C1032.4 169.805 1032.58 170.093 1032.7 170.445C1032.83 170.796 1032.89 171.221 1032.89 171.719V177H1031.54V171.785C1031.54 171.37 1031.47 171.038 1031.33 170.789C1031.19 170.54 1030.99 170.359 1030.74 170.247C1030.49 170.13 1030.19 170.071 1029.85 170.071C1029.45 170.071 1029.11 170.142 1028.84 170.284C1028.57 170.425 1028.36 170.621 1028.2 170.87C1028.04 171.119 1027.92 171.404 1027.85 171.727C1027.78 172.044 1027.74 172.381 1027.74 172.737ZM1032.88 171.99L1031.97 172.269C1031.98 171.834 1032.05 171.417 1032.18 171.016C1032.32 170.616 1032.53 170.259 1032.79 169.947C1033.06 169.634 1033.39 169.388 1033.78 169.207C1034.17 169.021 1034.62 168.929 1035.12 168.929C1035.54 168.929 1035.92 168.985 1036.25 169.097C1036.58 169.209 1036.86 169.383 1037.08 169.617C1037.31 169.847 1037.49 170.142 1037.6 170.503C1037.72 170.865 1037.78 171.294 1037.78 171.792V177H1036.42V171.778C1036.42 171.333 1036.35 170.989 1036.2 170.745C1036.07 170.496 1035.87 170.323 1035.62 170.225C1035.37 170.123 1035.07 170.071 1034.72 170.071C1034.43 170.071 1034.16 170.123 1033.93 170.225C1033.7 170.328 1033.51 170.469 1033.35 170.65C1033.2 170.826 1033.08 171.028 1033 171.258C1032.92 171.487 1032.88 171.731 1032.88 171.99Z" fill="#737373"/>
<rect x="913.5" y="152.5" width="219" height="39" rx="3.5" stroke="#AAAAAA"/>
<path d="M1167.92 166.336V177H1166.08V166.336H1167.92ZM1172.27 171.001V172.459H1167.45V171.001H1172.27ZM1172.88 166.336V167.801H1167.45V166.336H1172.88ZM1176.06 169.075V177H1174.29V169.075H1176.06ZM1174.17 166.995C1174.17 166.727 1174.26 166.504 1174.43 166.329C1174.61 166.148 1174.86 166.058 1175.18 166.058C1175.49 166.058 1175.74 166.148 1175.92 166.329C1176.1 166.504 1176.19 166.727 1176.19 166.995C1176.19 167.259 1176.1 167.479 1175.92 167.654C1175.74 167.83 1175.49 167.918 1175.18 167.918C1174.86 167.918 1174.61 167.83 1174.43 167.654C1174.26 167.479 1174.17 167.259 1174.17 166.995ZM1179.88 165.75V177H1178.11V165.75H1179.88ZM1185.45 169.075V170.364H1180.98V169.075H1185.45ZM1182.27 167.134H1184.04V174.81C1184.04 175.054 1184.07 175.242 1184.14 175.374C1184.21 175.501 1184.31 175.586 1184.44 175.63C1184.57 175.674 1184.71 175.696 1184.89 175.696C1185.01 175.696 1185.12 175.689 1185.24 175.674C1185.35 175.66 1185.44 175.645 1185.51 175.63L1185.52 176.978C1185.37 177.022 1185.2 177.061 1185 177.095C1184.81 177.129 1184.59 177.146 1184.34 177.146C1183.94 177.146 1183.58 177.076 1183.27 176.934C1182.95 176.788 1182.71 176.551 1182.53 176.224C1182.36 175.896 1182.27 175.462 1182.27 174.92V167.134ZM1190.31 177.146C1189.72 177.146 1189.19 177.051 1188.72 176.861C1188.25 176.666 1187.85 176.395 1187.51 176.048C1187.19 175.701 1186.94 175.293 1186.76 174.825C1186.58 174.356 1186.5 173.851 1186.5 173.309V173.016C1186.5 172.396 1186.59 171.834 1186.77 171.331C1186.95 170.828 1187.2 170.398 1187.52 170.042C1187.84 169.681 1188.23 169.405 1188.66 169.214C1189.1 169.024 1189.58 168.929 1190.09 168.929C1190.66 168.929 1191.15 169.024 1191.58 169.214C1192 169.405 1192.36 169.673 1192.63 170.02C1192.92 170.362 1193.13 170.77 1193.26 171.243C1193.41 171.717 1193.48 172.239 1193.48 172.811V173.565H1187.35V172.298H1191.73V172.159C1191.72 171.841 1191.66 171.543 1191.54 171.265C1191.43 170.987 1191.26 170.762 1191.02 170.591C1190.79 170.42 1190.48 170.335 1190.09 170.335C1189.79 170.335 1189.53 170.398 1189.3 170.525C1189.08 170.647 1188.89 170.826 1188.74 171.06C1188.59 171.294 1188.47 171.578 1188.39 171.91C1188.31 172.237 1188.27 172.605 1188.27 173.016V173.309C1188.27 173.655 1188.32 173.978 1188.41 174.275C1188.51 174.568 1188.65 174.825 1188.83 175.044C1189.02 175.264 1189.24 175.438 1189.51 175.564C1189.77 175.687 1190.07 175.748 1190.41 175.748C1190.83 175.748 1191.21 175.662 1191.54 175.491C1191.88 175.32 1192.16 175.079 1192.41 174.766L1193.34 175.667C1193.17 175.916 1192.94 176.155 1192.67 176.385C1192.4 176.609 1192.06 176.792 1191.67 176.934C1191.28 177.076 1190.82 177.146 1190.31 177.146ZM1196.63 170.584V177H1194.86V169.075H1196.55L1196.63 170.584ZM1199.05 169.024L1199.04 170.665C1198.93 170.645 1198.81 170.63 1198.68 170.621C1198.56 170.611 1198.44 170.606 1198.32 170.606C1198.02 170.606 1197.75 170.65 1197.52 170.738C1197.29 170.821 1197.1 170.943 1196.94 171.104C1196.79 171.26 1196.67 171.451 1196.59 171.675C1196.51 171.9 1196.46 172.151 1196.44 172.43L1196.04 172.459C1196.04 171.961 1196.09 171.5 1196.19 171.075C1196.28 170.65 1196.43 170.276 1196.63 169.954C1196.83 169.632 1197.08 169.38 1197.37 169.2C1197.68 169.019 1198.02 168.929 1198.42 168.929C1198.53 168.929 1198.64 168.938 1198.76 168.958C1198.89 168.978 1198.99 169 1199.05 169.024Z" fill="#1A1A1A"/>
<rect x="1149.5" y="152.5" width="66" height="39" rx="3.5" stroke="#1A1A1A"/>
<path d="M1248 207H172V209H1248V207Z" fill="#E6E6E6" mask="url(#path-13-inside-3_10509_60176)"/>
<g filter="url(#filter0_dd_10509_60176)">
<rect width="1076" height="56" transform="translate(172 208)" fill="white"/>
<rect x="204.5" y="226.5" width="19" height="19" rx="3.5" fill="white"/>
<rect x="204.5" y="226.5" width="19" height="19" rx="3.5" stroke="#AAAAAA"/>
<path d="M259.289 230.336V241H257.099V230.336H259.289ZM264.621 241H262.299L262.313 239.286H264.621C265.197 239.286 265.683 239.157 266.078 238.898C266.474 238.634 266.771 238.251 266.972 237.748C267.177 237.245 267.279 236.637 267.279 235.924V235.404C267.279 234.857 267.221 234.376 267.104 233.961C266.991 233.546 266.823 233.197 266.598 232.914C266.374 232.631 266.098 232.418 265.771 232.277C265.443 232.13 265.067 232.057 264.643 232.057H262.255V230.336H264.643C265.355 230.336 266.007 230.458 266.598 230.702C267.194 230.941 267.709 231.286 268.144 231.735C268.578 232.184 268.913 232.721 269.147 233.346C269.386 233.966 269.506 234.657 269.506 235.419V235.924C269.506 236.681 269.386 237.372 269.147 237.997C268.913 238.622 268.578 239.159 268.144 239.608C267.714 240.053 267.199 240.397 266.598 240.641C266.002 240.88 265.343 241 264.621 241ZM263.544 230.336V241H261.347V230.336H263.544Z" fill="#1A1A1A"/>
<path d="M339.149 230.336V241H336.952V230.336H339.149ZM343.397 234.892V236.605H338.549V234.892H343.397ZM343.91 230.336V232.057H338.549V230.336H343.91ZM344.555 237.118V236.964C344.555 236.383 344.638 235.849 344.804 235.36C344.97 234.867 345.211 234.44 345.529 234.079C345.846 233.717 346.237 233.437 346.701 233.236C347.165 233.031 347.697 232.929 348.297 232.929C348.898 232.929 349.433 233.031 349.901 233.236C350.37 233.437 350.763 233.717 351.081 234.079C351.403 234.44 351.647 234.867 351.813 235.36C351.979 235.849 352.062 236.383 352.062 236.964V237.118C352.062 237.694 351.979 238.229 351.813 238.722C351.647 239.21 351.403 239.638 351.081 240.004C350.763 240.365 350.373 240.646 349.909 240.846C349.445 241.046 348.913 241.146 348.312 241.146C347.711 241.146 347.177 241.046 346.708 240.846C346.244 240.646 345.851 240.365 345.529 240.004C345.211 239.638 344.97 239.21 344.804 238.722C344.638 238.229 344.555 237.694 344.555 237.118ZM346.664 236.964V237.118C346.664 237.45 346.693 237.76 346.752 238.048C346.811 238.336 346.903 238.59 347.03 238.81C347.162 239.025 347.333 239.193 347.543 239.315C347.753 239.438 348.009 239.499 348.312 239.499C348.605 239.499 348.856 239.438 349.066 239.315C349.276 239.193 349.445 239.025 349.572 238.81C349.699 238.59 349.792 238.336 349.85 238.048C349.914 237.76 349.945 237.45 349.945 237.118V236.964C349.945 236.642 349.914 236.339 349.85 236.056C349.792 235.768 349.696 235.514 349.564 235.294C349.438 235.07 349.269 234.894 349.059 234.767C348.849 234.64 348.595 234.577 348.297 234.577C348 234.577 347.746 234.64 347.536 234.767C347.331 234.894 347.162 235.07 347.03 235.294C346.903 235.514 346.811 235.768 346.752 236.056C346.693 236.339 346.664 236.642 346.664 236.964ZM355.468 234.804V241H353.358V233.075H355.343L355.468 234.804ZM357.855 233.024L357.819 234.979C357.716 234.965 357.592 234.953 357.445 234.943C357.304 234.928 357.174 234.921 357.057 234.921C356.759 234.921 356.5 234.96 356.281 235.038C356.066 235.111 355.885 235.221 355.739 235.368C355.597 235.514 355.49 235.692 355.417 235.902C355.348 236.112 355.309 236.352 355.299 236.62L354.875 236.488C354.875 235.976 354.926 235.504 355.028 235.075C355.131 234.64 355.28 234.262 355.475 233.939C355.675 233.617 355.919 233.368 356.208 233.192C356.496 233.017 356.825 232.929 357.196 232.929C357.313 232.929 357.433 232.938 357.555 232.958C357.677 232.973 357.777 232.995 357.855 233.024ZM360.961 234.716V241H358.844V233.075H360.829L360.961 234.716ZM360.668 236.759H360.082C360.082 236.208 360.148 235.7 360.28 235.236C360.417 234.767 360.614 234.362 360.873 234.02C361.137 233.673 361.461 233.405 361.847 233.214C362.233 233.024 362.68 232.929 363.188 232.929C363.539 232.929 363.861 232.982 364.154 233.09C364.447 233.192 364.699 233.356 364.909 233.581C365.124 233.8 365.29 234.088 365.407 234.445C365.524 234.796 365.583 235.219 365.583 235.712V241H363.473V235.946C363.473 235.585 363.424 235.307 363.327 235.111C363.229 234.916 363.09 234.779 362.909 234.701C362.733 234.623 362.521 234.584 362.272 234.584C361.999 234.584 361.759 234.64 361.554 234.752C361.354 234.865 361.188 235.021 361.056 235.221C360.924 235.417 360.827 235.646 360.763 235.91C360.7 236.173 360.668 236.457 360.668 236.759ZM365.385 236.518L364.63 236.613C364.63 236.095 364.694 235.614 364.821 235.17C364.953 234.726 365.146 234.335 365.399 233.998C365.658 233.661 365.978 233.4 366.359 233.214C366.74 233.024 367.179 232.929 367.677 232.929C368.058 232.929 368.405 232.985 368.717 233.097C369.03 233.205 369.296 233.378 369.516 233.617C369.74 233.852 369.911 234.159 370.028 234.54C370.15 234.921 370.211 235.387 370.211 235.939V241H368.095V235.939C368.095 235.573 368.046 235.294 367.948 235.104C367.855 234.909 367.719 234.774 367.538 234.701C367.362 234.623 367.152 234.584 366.908 234.584C366.654 234.584 366.432 234.635 366.242 234.738C366.051 234.835 365.893 234.972 365.766 235.148C365.639 235.324 365.543 235.529 365.48 235.763C365.417 235.993 365.385 236.244 365.385 236.518ZM377.646 234.767V241H375.536V233.075H377.514L377.646 234.767ZM377.338 236.759H376.767C376.767 236.173 376.842 235.646 376.994 235.177C377.145 234.704 377.357 234.301 377.631 233.969C377.904 233.632 378.229 233.375 378.605 233.2C378.986 233.019 379.411 232.929 379.879 232.929C380.25 232.929 380.59 232.982 380.897 233.09C381.205 233.197 381.469 233.368 381.688 233.603C381.913 233.837 382.084 234.147 382.201 234.533C382.323 234.918 382.384 235.39 382.384 235.946V241H380.26V235.939C380.26 235.587 380.211 235.314 380.114 235.119C380.016 234.923 379.872 234.787 379.682 234.708C379.496 234.625 379.267 234.584 378.993 234.584C378.71 234.584 378.463 234.64 378.253 234.752C378.048 234.865 377.877 235.021 377.741 235.221C377.609 235.417 377.509 235.646 377.44 235.91C377.372 236.173 377.338 236.457 377.338 236.759ZM388.266 239.213V235.683C388.266 235.429 388.224 235.211 388.141 235.031C388.058 234.845 387.929 234.701 387.753 234.599C387.582 234.496 387.36 234.445 387.086 234.445C386.852 234.445 386.649 234.486 386.479 234.569C386.308 234.647 386.176 234.762 386.083 234.914C385.99 235.06 385.944 235.233 385.944 235.434H383.834C383.834 235.097 383.913 234.777 384.069 234.474C384.225 234.171 384.452 233.905 384.75 233.676C385.048 233.441 385.402 233.258 385.812 233.126C386.227 232.995 386.691 232.929 387.204 232.929C387.819 232.929 388.366 233.031 388.844 233.236C389.323 233.441 389.699 233.749 389.972 234.159C390.25 234.569 390.39 235.082 390.39 235.697V239.088C390.39 239.523 390.417 239.879 390.47 240.158C390.524 240.431 390.602 240.67 390.705 240.875V241H388.573C388.471 240.785 388.393 240.517 388.339 240.194C388.29 239.867 388.266 239.54 388.266 239.213ZM388.544 236.173L388.559 237.367H387.379C387.101 237.367 386.859 237.399 386.654 237.462C386.449 237.526 386.281 237.616 386.149 237.733C386.017 237.846 385.919 237.978 385.856 238.129C385.797 238.28 385.768 238.446 385.768 238.627C385.768 238.808 385.81 238.971 385.893 239.118C385.976 239.259 386.095 239.372 386.251 239.455C386.408 239.533 386.591 239.572 386.801 239.572C387.118 239.572 387.394 239.508 387.628 239.381C387.863 239.254 388.043 239.098 388.17 238.913C388.302 238.727 388.371 238.551 388.375 238.385L388.932 239.279C388.854 239.479 388.747 239.687 388.61 239.901C388.478 240.116 388.31 240.319 388.104 240.509C387.899 240.695 387.653 240.849 387.365 240.971C387.077 241.088 386.735 241.146 386.339 241.146C385.836 241.146 385.38 241.046 384.97 240.846C384.564 240.641 384.242 240.36 384.003 240.004C383.769 239.643 383.651 239.232 383.651 238.773C383.651 238.358 383.729 237.99 383.886 237.667C384.042 237.345 384.271 237.074 384.574 236.854C384.882 236.63 385.265 236.461 385.724 236.349C386.183 236.232 386.715 236.173 387.321 236.173H388.544ZM394.125 234.716V241H392.008V233.075H393.993L394.125 234.716ZM393.832 236.759H393.246C393.246 236.208 393.312 235.7 393.444 235.236C393.581 234.767 393.778 234.362 394.037 234.02C394.301 233.673 394.625 233.405 395.011 233.214C395.397 233.024 395.844 232.929 396.352 232.929C396.703 232.929 397.025 232.982 397.318 233.09C397.611 233.192 397.863 233.356 398.073 233.581C398.288 233.8 398.454 234.088 398.571 234.445C398.688 234.796 398.747 235.219 398.747 235.712V241H396.637V235.946C396.637 235.585 396.588 235.307 396.491 235.111C396.393 234.916 396.254 234.779 396.073 234.701C395.897 234.623 395.685 234.584 395.436 234.584C395.163 234.584 394.923 234.64 394.718 234.752C394.518 234.865 394.352 235.021 394.22 235.221C394.088 235.417 393.991 235.646 393.927 235.91C393.864 236.173 393.832 236.457 393.832 236.759ZM398.549 236.518L397.794 236.613C397.794 236.095 397.858 235.614 397.985 235.17C398.117 234.726 398.31 234.335 398.563 233.998C398.822 233.661 399.142 233.4 399.523 233.214C399.904 233.024 400.343 232.929 400.841 232.929C401.222 232.929 401.569 232.985 401.881 233.097C402.194 233.205 402.46 233.378 402.68 233.617C402.904 233.852 403.075 234.159 403.192 234.54C403.314 234.921 403.375 235.387 403.375 235.939V241H401.259V235.939C401.259 235.573 401.21 235.294 401.112 235.104C401.02 234.909 400.883 234.774 400.702 234.701C400.526 234.623 400.316 234.584 400.072 234.584C399.818 234.584 399.596 234.635 399.406 234.738C399.215 234.835 399.057 234.972 398.93 235.148C398.803 235.324 398.708 235.529 398.644 235.763C398.581 235.993 398.549 236.244 398.549 236.518ZM408.656 241.146C408.041 241.146 407.489 241.049 407.001 240.854C406.513 240.653 406.098 240.377 405.756 240.026C405.419 239.674 405.16 239.267 404.979 238.803C404.799 238.334 404.708 237.836 404.708 237.309V237.016C404.708 236.415 404.794 235.866 404.965 235.368C405.136 234.87 405.38 234.438 405.697 234.071C406.02 233.705 406.41 233.424 406.869 233.229C407.328 233.029 407.846 232.929 408.422 232.929C408.983 232.929 409.481 233.021 409.916 233.207C410.351 233.393 410.714 233.656 411.007 233.998C411.305 234.34 411.53 234.75 411.681 235.229C411.833 235.702 411.908 236.229 411.908 236.811V237.689H405.609V236.283H409.835V236.122C409.835 235.829 409.782 235.568 409.674 235.338C409.572 235.104 409.416 234.918 409.206 234.782C408.996 234.645 408.727 234.577 408.4 234.577C408.122 234.577 407.882 234.638 407.682 234.76C407.482 234.882 407.318 235.053 407.191 235.272C407.069 235.492 406.977 235.751 406.913 236.049C406.854 236.342 406.825 236.664 406.825 237.016V237.309C406.825 237.626 406.869 237.919 406.957 238.188C407.05 238.456 407.179 238.688 407.345 238.883C407.516 239.079 407.721 239.23 407.96 239.337C408.205 239.445 408.48 239.499 408.788 239.499C409.169 239.499 409.523 239.425 409.85 239.279C410.182 239.127 410.468 238.9 410.707 238.598L411.732 239.711C411.566 239.95 411.339 240.18 411.051 240.399C410.768 240.619 410.426 240.8 410.026 240.941C409.625 241.078 409.169 241.146 408.656 241.146Z" fill="#1A1A1A"/>
<path d="M590.504 238.209C590.504 238.019 590.475 237.848 590.416 237.697C590.362 237.541 590.26 237.399 590.108 237.272C589.957 237.14 589.745 237.011 589.471 236.884C589.198 236.757 588.844 236.625 588.409 236.488C587.926 236.332 587.467 236.156 587.032 235.961C586.603 235.766 586.222 235.539 585.89 235.28C585.562 235.016 585.304 234.711 585.113 234.364C584.928 234.018 584.835 233.615 584.835 233.156C584.835 232.711 584.933 232.309 585.128 231.947C585.323 231.581 585.597 231.269 585.948 231.01C586.3 230.746 586.715 230.543 587.193 230.402C587.677 230.26 588.207 230.189 588.783 230.189C589.569 230.189 590.255 230.331 590.841 230.614C591.427 230.897 591.881 231.286 592.203 231.779C592.53 232.272 592.694 232.836 592.694 233.471H590.511C590.511 233.158 590.445 232.885 590.313 232.65C590.187 232.411 589.991 232.223 589.728 232.086C589.469 231.95 589.142 231.881 588.746 231.881C588.365 231.881 588.048 231.94 587.794 232.057C587.54 232.169 587.35 232.323 587.223 232.519C587.096 232.709 587.032 232.924 587.032 233.163C587.032 233.344 587.076 233.507 587.164 233.654C587.257 233.8 587.394 233.937 587.574 234.064C587.755 234.191 587.977 234.311 588.241 234.423C588.504 234.535 588.81 234.645 589.156 234.752C589.737 234.928 590.248 235.126 590.687 235.346C591.131 235.565 591.502 235.812 591.8 236.085C592.098 236.359 592.323 236.669 592.474 237.016C592.625 237.362 592.701 237.755 592.701 238.195C592.701 238.659 592.611 239.074 592.43 239.44C592.25 239.806 591.988 240.116 591.646 240.37C591.305 240.624 590.897 240.817 590.423 240.949C589.95 241.081 589.42 241.146 588.834 241.146C588.307 241.146 587.787 241.078 587.274 240.941C586.761 240.8 586.295 240.587 585.875 240.304C585.46 240.021 585.128 239.66 584.879 239.22C584.63 238.781 584.505 238.261 584.505 237.66H586.71C586.71 237.992 586.761 238.273 586.864 238.502C586.966 238.732 587.11 238.917 587.296 239.059C587.486 239.201 587.711 239.303 587.97 239.367C588.233 239.43 588.521 239.462 588.834 239.462C589.215 239.462 589.527 239.408 589.771 239.301C590.021 239.193 590.204 239.044 590.321 238.854C590.443 238.664 590.504 238.449 590.504 238.209ZM597.945 233.075V234.569H593.331V233.075H597.945ZM594.474 231.12H596.583V238.612C596.583 238.842 596.612 239.018 596.671 239.14C596.734 239.262 596.827 239.347 596.949 239.396C597.071 239.44 597.225 239.462 597.411 239.462C597.542 239.462 597.66 239.457 597.762 239.447C597.87 239.433 597.96 239.418 598.033 239.403L598.041 240.956C597.86 241.015 597.665 241.061 597.455 241.095C597.245 241.129 597.013 241.146 596.759 241.146C596.295 241.146 595.89 241.071 595.543 240.919C595.201 240.763 594.938 240.514 594.752 240.172C594.566 239.831 594.474 239.381 594.474 238.825V231.12ZM603.424 239.213V235.683C603.424 235.429 603.382 235.211 603.299 235.031C603.216 234.845 603.087 234.701 602.911 234.599C602.74 234.496 602.518 234.445 602.245 234.445C602.01 234.445 601.808 234.486 601.637 234.569C601.466 234.647 601.334 234.762 601.241 234.914C601.148 235.06 601.102 235.233 601.102 235.434H598.993C598.993 235.097 599.071 234.777 599.227 234.474C599.383 234.171 599.61 233.905 599.908 233.676C600.206 233.441 600.56 233.258 600.97 233.126C601.385 232.995 601.849 232.929 602.362 232.929C602.977 232.929 603.524 233.031 604.002 233.236C604.481 233.441 604.857 233.749 605.13 234.159C605.409 234.569 605.548 235.082 605.548 235.697V239.088C605.548 239.523 605.575 239.879 605.628 240.158C605.682 240.431 605.76 240.67 605.863 240.875V241H603.731C603.629 240.785 603.551 240.517 603.497 240.194C603.448 239.867 603.424 239.54 603.424 239.213ZM603.702 236.173L603.717 237.367H602.538C602.259 237.367 602.018 237.399 601.812 237.462C601.607 237.526 601.439 237.616 601.307 237.733C601.175 237.846 601.078 237.978 601.014 238.129C600.956 238.28 600.926 238.446 600.926 238.627C600.926 238.808 600.968 238.971 601.051 239.118C601.134 239.259 601.253 239.372 601.41 239.455C601.566 239.533 601.749 239.572 601.959 239.572C602.276 239.572 602.552 239.508 602.787 239.381C603.021 239.254 603.202 239.098 603.329 238.913C603.46 238.727 603.529 238.551 603.534 238.385L604.09 239.279C604.012 239.479 603.905 239.687 603.768 239.901C603.636 240.116 603.468 240.319 603.263 240.509C603.058 240.695 602.811 240.849 602.523 240.971C602.235 241.088 601.893 241.146 601.498 241.146C600.995 241.146 600.538 241.046 600.128 240.846C599.723 240.641 599.4 240.36 599.161 240.004C598.927 239.643 598.81 239.232 598.81 238.773C598.81 238.358 598.888 237.99 599.044 237.667C599.2 237.345 599.43 237.074 599.732 236.854C600.04 236.63 600.423 236.461 600.882 236.349C601.341 236.232 601.874 236.173 602.479 236.173H603.702ZM611.056 233.075V234.569H606.441V233.075H611.056ZM607.584 231.12H609.693V238.612C609.693 238.842 609.723 239.018 609.781 239.14C609.845 239.262 609.938 239.347 610.06 239.396C610.182 239.44 610.335 239.462 610.521 239.462C610.653 239.462 610.77 239.457 610.873 239.447C610.98 239.433 611.07 239.418 611.144 239.403L611.151 240.956C610.97 241.015 610.775 241.061 610.565 241.095C610.355 241.129 610.123 241.146 609.869 241.146C609.405 241.146 609 241.071 608.653 240.919C608.312 240.763 608.048 240.514 607.862 240.172C607.677 239.831 607.584 239.381 607.584 238.825V231.12ZM616.944 239.103V233.075H619.054V241H617.069L616.944 239.103ZM617.179 237.477L617.801 237.462C617.801 237.99 617.74 238.48 617.618 238.935C617.496 239.384 617.313 239.774 617.069 240.106C616.825 240.434 616.517 240.69 616.146 240.875C615.775 241.056 615.338 241.146 614.835 241.146C614.449 241.146 614.093 241.093 613.766 240.985C613.443 240.873 613.165 240.7 612.931 240.465C612.701 240.226 612.521 239.921 612.389 239.55C612.262 239.174 612.198 238.722 612.198 238.195V233.075H614.308V238.209C614.308 238.444 614.334 238.642 614.388 238.803C614.447 238.964 614.527 239.096 614.63 239.198C614.732 239.301 614.852 239.374 614.989 239.418C615.13 239.462 615.287 239.484 615.458 239.484C615.892 239.484 616.234 239.396 616.483 239.22C616.737 239.044 616.915 238.805 617.018 238.502C617.125 238.195 617.179 237.853 617.179 237.477ZM624.95 238.81C624.95 238.659 624.906 238.522 624.818 238.4C624.73 238.278 624.566 238.166 624.327 238.063C624.093 237.956 623.753 237.858 623.309 237.77C622.909 237.682 622.535 237.572 622.188 237.44C621.847 237.304 621.549 237.14 621.295 236.95C621.046 236.759 620.851 236.535 620.709 236.276C620.567 236.012 620.497 235.712 620.497 235.375C620.497 235.043 620.567 234.73 620.709 234.438C620.855 234.145 621.063 233.886 621.332 233.661C621.605 233.432 621.937 233.253 622.328 233.126C622.723 232.995 623.167 232.929 623.661 232.929C624.349 232.929 624.94 233.039 625.433 233.258C625.931 233.478 626.312 233.781 626.576 234.167C626.844 234.547 626.979 234.982 626.979 235.47H624.869C624.869 235.265 624.825 235.082 624.737 234.921C624.654 234.755 624.522 234.625 624.342 234.533C624.166 234.435 623.937 234.386 623.653 234.386C623.419 234.386 623.216 234.428 623.045 234.511C622.875 234.589 622.743 234.696 622.65 234.833C622.562 234.965 622.518 235.111 622.518 235.272C622.518 235.395 622.542 235.504 622.591 235.602C622.645 235.695 622.73 235.78 622.848 235.858C622.965 235.937 623.116 236.01 623.302 236.078C623.492 236.142 623.727 236.2 624.005 236.254C624.576 236.371 625.086 236.525 625.536 236.715C625.985 236.901 626.341 237.155 626.605 237.477C626.869 237.794 627 238.212 627 238.729C627 239.081 626.922 239.403 626.766 239.696C626.61 239.989 626.385 240.246 626.092 240.465C625.799 240.68 625.448 240.849 625.038 240.971C624.632 241.088 624.176 241.146 623.668 241.146C622.931 241.146 622.306 241.015 621.793 240.751C621.285 240.487 620.899 240.153 620.636 239.748C620.377 239.337 620.248 238.917 620.248 238.488H622.247C622.257 238.776 622.33 239.008 622.467 239.184C622.608 239.359 622.787 239.486 623.001 239.564C623.221 239.643 623.458 239.682 623.712 239.682C623.985 239.682 624.212 239.645 624.393 239.572C624.574 239.494 624.71 239.391 624.803 239.264C624.901 239.132 624.95 238.981 624.95 238.81Z" fill="#1A1A1A"/>
<path d="M788.226 241H785.904L785.919 239.286H788.226C788.802 239.286 789.288 239.157 789.684 238.898C790.079 238.634 790.377 238.251 790.577 237.748C790.782 237.245 790.885 236.637 790.885 235.924V235.404C790.885 234.857 790.826 234.376 790.709 233.961C790.597 233.546 790.428 233.197 790.204 232.914C789.979 232.631 789.703 232.418 789.376 232.277C789.049 232.13 788.673 232.057 788.248 232.057H785.86V230.336H788.248C788.961 230.336 789.613 230.458 790.204 230.702C790.799 230.941 791.314 231.286 791.749 231.735C792.184 232.184 792.518 232.721 792.752 233.346C792.992 233.966 793.111 234.657 793.111 235.419V235.924C793.111 236.681 792.992 237.372 792.752 237.997C792.518 238.622 792.184 239.159 791.749 239.608C791.319 240.053 790.804 240.397 790.204 240.641C789.608 240.88 788.949 241 788.226 241ZM787.149 230.336V241H784.952V230.336H787.149ZM798.854 239.213V235.683C798.854 235.429 798.812 235.211 798.729 235.031C798.646 234.845 798.517 234.701 798.341 234.599C798.17 234.496 797.948 234.445 797.674 234.445C797.44 234.445 797.237 234.486 797.066 234.569C796.896 234.647 796.764 234.762 796.671 234.914C796.578 235.06 796.532 235.233 796.532 235.434H794.422C794.422 235.097 794.5 234.777 794.657 234.474C794.813 234.171 795.04 233.905 795.338 233.676C795.636 233.441 795.99 233.258 796.4 233.126C796.815 232.995 797.279 232.929 797.792 232.929C798.407 232.929 798.954 233.031 799.432 233.236C799.911 233.441 800.287 233.749 800.56 234.159C800.838 234.569 800.978 235.082 800.978 235.697V239.088C800.978 239.523 801.004 239.879 801.058 240.158C801.112 240.431 801.19 240.67 801.292 240.875V241H799.161C799.059 240.785 798.98 240.517 798.927 240.194C798.878 239.867 798.854 239.54 798.854 239.213ZM799.132 236.173L799.146 237.367H797.967C797.689 237.367 797.447 237.399 797.242 237.462C797.037 237.526 796.869 237.616 796.737 237.733C796.605 237.846 796.507 237.978 796.444 238.129C796.385 238.28 796.356 238.446 796.356 238.627C796.356 238.808 796.397 238.971 796.48 239.118C796.563 239.259 796.683 239.372 796.839 239.455C796.996 239.533 797.179 239.572 797.389 239.572C797.706 239.572 797.982 239.508 798.216 239.381C798.451 239.254 798.631 239.098 798.758 238.913C798.89 238.727 798.958 238.551 798.963 238.385L799.52 239.279C799.442 239.479 799.334 239.687 799.198 239.901C799.066 240.116 798.897 240.319 798.692 240.509C798.487 240.695 798.241 240.849 797.953 240.971C797.665 241.088 797.323 241.146 796.927 241.146C796.424 241.146 795.968 241.046 795.558 240.846C795.152 240.641 794.83 240.36 794.591 240.004C794.356 239.643 794.239 239.232 794.239 238.773C794.239 238.358 794.317 237.99 794.474 237.667C794.63 237.345 794.859 237.074 795.162 236.854C795.47 236.63 795.853 236.461 796.312 236.349C796.771 236.232 797.303 236.173 797.909 236.173H799.132ZM806.485 233.075V234.569H801.871V233.075H806.485ZM803.014 231.12H805.123V238.612C805.123 238.842 805.152 239.018 805.211 239.14C805.274 239.262 805.367 239.347 805.489 239.396C805.611 239.44 805.765 239.462 805.951 239.462C806.083 239.462 806.2 239.457 806.302 239.447C806.41 239.433 806.5 239.418 806.573 239.403L806.581 240.956C806.4 241.015 806.205 241.061 805.995 241.095C805.785 241.129 805.553 241.146 805.299 241.146C804.835 241.146 804.43 241.071 804.083 240.919C803.741 240.763 803.478 240.514 803.292 240.172C803.106 239.831 803.014 239.381 803.014 238.825V231.12ZM811.334 241.146C810.719 241.146 810.167 241.049 809.679 240.854C809.19 240.653 808.775 240.377 808.434 240.026C808.097 239.674 807.838 239.267 807.657 238.803C807.477 238.334 807.386 237.836 807.386 237.309V237.016C807.386 236.415 807.472 235.866 807.643 235.368C807.813 234.87 808.058 234.438 808.375 234.071C808.697 233.705 809.088 233.424 809.547 233.229C810.006 233.029 810.523 232.929 811.1 232.929C811.661 232.929 812.159 233.021 812.594 233.207C813.028 233.393 813.392 233.656 813.685 233.998C813.983 234.34 814.208 234.75 814.359 235.229C814.51 235.702 814.586 236.229 814.586 236.811V237.689H808.287V236.283H812.513V236.122C812.513 235.829 812.459 235.568 812.352 235.338C812.25 235.104 812.093 234.918 811.883 234.782C811.673 234.645 811.405 234.577 811.078 234.577C810.799 234.577 810.56 234.638 810.36 234.76C810.16 234.882 809.996 235.053 809.869 235.272C809.747 235.492 809.654 235.751 809.591 236.049C809.532 236.342 809.503 236.664 809.503 237.016V237.309C809.503 237.626 809.547 237.919 809.635 238.188C809.728 238.456 809.857 238.688 810.023 238.883C810.194 239.079 810.399 239.23 810.638 239.337C810.882 239.445 811.158 239.499 811.466 239.499C811.847 239.499 812.201 239.425 812.528 239.279C812.86 239.127 813.146 238.9 813.385 238.598L814.41 239.711C814.244 239.95 814.017 240.18 813.729 240.399C813.446 240.619 813.104 240.8 812.704 240.941C812.303 241.078 811.847 241.146 811.334 241.146ZM825.836 237.462H828.026C827.982 238.18 827.784 238.817 827.433 239.374C827.086 239.931 826.6 240.365 825.975 240.678C825.355 240.99 824.608 241.146 823.734 241.146C823.05 241.146 822.438 241.029 821.896 240.795C821.354 240.556 820.89 240.214 820.504 239.77C820.123 239.325 819.833 238.788 819.632 238.158C819.432 237.528 819.332 236.823 819.332 236.042V235.302C819.332 234.521 819.435 233.815 819.64 233.185C819.85 232.55 820.147 232.011 820.533 231.566C820.924 231.122 821.39 230.78 821.932 230.541C822.474 230.302 823.08 230.182 823.749 230.182C824.637 230.182 825.387 230.343 825.997 230.666C826.612 230.988 827.088 231.432 827.425 231.999C827.767 232.565 827.972 233.209 828.041 233.932H825.843C825.819 233.502 825.733 233.139 825.587 232.841C825.44 232.538 825.218 232.311 824.92 232.16C824.627 232.003 824.237 231.925 823.749 231.925C823.382 231.925 823.062 231.994 822.789 232.13C822.516 232.267 822.286 232.475 822.101 232.753C821.915 233.031 821.776 233.383 821.683 233.808C821.595 234.228 821.551 234.721 821.551 235.287V236.042C821.551 236.593 821.593 237.079 821.676 237.499C821.759 237.914 821.886 238.266 822.057 238.554C822.232 238.837 822.457 239.052 822.73 239.198C823.009 239.34 823.343 239.411 823.734 239.411C824.193 239.411 824.571 239.337 824.869 239.191C825.167 239.044 825.394 238.827 825.55 238.539C825.711 238.251 825.807 237.892 825.836 237.462ZM831.446 234.804V241H829.337V233.075H831.322L831.446 234.804ZM833.834 233.024L833.797 234.979C833.695 234.965 833.57 234.953 833.424 234.943C833.282 234.928 833.153 234.921 833.036 234.921C832.738 234.921 832.479 234.96 832.259 235.038C832.044 235.111 831.864 235.221 831.717 235.368C831.576 235.514 831.468 235.692 831.395 235.902C831.327 236.112 831.288 236.352 831.278 236.62L830.853 236.488C830.853 235.976 830.904 235.504 831.007 235.075C831.109 234.64 831.258 234.262 831.454 233.939C831.654 233.617 831.898 233.368 832.186 233.192C832.474 233.017 832.804 232.929 833.175 232.929C833.292 232.929 833.412 232.938 833.534 232.958C833.656 232.973 833.756 232.995 833.834 233.024ZM838.331 241.146C837.716 241.146 837.164 241.049 836.676 240.854C836.188 240.653 835.772 240.377 835.431 240.026C835.094 239.674 834.835 239.267 834.654 238.803C834.474 238.334 834.383 237.836 834.383 237.309V237.016C834.383 236.415 834.469 235.866 834.64 235.368C834.811 234.87 835.055 234.438 835.372 234.071C835.694 233.705 836.085 233.424 836.544 233.229C837.003 233.029 837.521 232.929 838.097 232.929C838.658 232.929 839.156 233.021 839.591 233.207C840.025 233.393 840.389 233.656 840.682 233.998C840.98 234.34 841.205 234.75 841.356 235.229C841.507 235.702 841.583 236.229 841.583 236.811V237.689H835.284V236.283H839.51V236.122C839.51 235.829 839.457 235.568 839.349 235.338C839.247 235.104 839.09 234.918 838.88 234.782C838.67 234.645 838.402 234.577 838.075 234.577C837.796 234.577 837.557 234.638 837.357 234.76C837.157 234.882 836.993 235.053 836.866 235.272C836.744 235.492 836.651 235.751 836.588 236.049C836.529 236.342 836.5 236.664 836.5 237.016V237.309C836.5 237.626 836.544 237.919 836.632 238.188C836.725 238.456 836.854 238.688 837.02 238.883C837.191 239.079 837.396 239.23 837.635 239.337C837.879 239.445 838.155 239.499 838.463 239.499C838.844 239.499 839.198 239.425 839.525 239.279C839.857 239.127 840.143 238.9 840.382 238.598L841.407 239.711C841.241 239.95 841.014 240.18 840.726 240.399C840.443 240.619 840.101 240.8 839.701 240.941C839.3 241.078 838.844 241.146 838.331 241.146ZM847.062 239.213V235.683C847.062 235.429 847.02 235.211 846.937 235.031C846.854 234.845 846.725 234.701 846.549 234.599C846.378 234.496 846.156 234.445 845.882 234.445C845.648 234.445 845.445 234.486 845.274 234.569C845.104 234.647 844.972 234.762 844.879 234.914C844.786 235.06 844.74 235.233 844.74 235.434H842.63C842.63 235.097 842.708 234.777 842.865 234.474C843.021 234.171 843.248 233.905 843.546 233.676C843.844 233.441 844.198 233.258 844.608 233.126C845.023 232.995 845.487 232.929 846 232.929C846.615 232.929 847.162 233.031 847.64 233.236C848.119 233.441 848.495 233.749 848.768 234.159C849.046 234.569 849.186 235.082 849.186 235.697V239.088C849.186 239.523 849.212 239.879 849.266 240.158C849.32 240.431 849.398 240.67 849.5 240.875V241H847.369C847.267 240.785 847.188 240.517 847.135 240.194C847.086 239.867 847.062 239.54 847.062 239.213ZM847.34 236.173L847.354 237.367H846.175C845.897 237.367 845.655 237.399 845.45 237.462C845.245 237.526 845.077 237.616 844.945 237.733C844.813 237.846 844.715 237.978 844.652 238.129C844.593 238.28 844.564 238.446 844.564 238.627C844.564 238.808 844.605 238.971 844.688 239.118C844.771 239.259 844.891 239.372 845.047 239.455C845.204 239.533 845.387 239.572 845.597 239.572C845.914 239.572 846.19 239.508 846.424 239.381C846.659 239.254 846.839 239.098 846.966 238.913C847.098 238.727 847.167 238.551 847.171 238.385L847.728 239.279C847.65 239.479 847.542 239.687 847.406 239.901C847.274 240.116 847.105 240.319 846.9 240.509C846.695 240.695 846.449 240.849 846.161 240.971C845.873 241.088 845.531 241.146 845.135 241.146C844.632 241.146 844.176 241.046 843.766 240.846C843.36 240.641 843.038 240.36 842.799 240.004C842.564 239.643 842.447 239.232 842.447 238.773C842.447 238.358 842.525 237.99 842.682 237.667C842.838 237.345 843.067 237.074 843.37 236.854C843.678 236.63 844.061 236.461 844.52 236.349C844.979 236.232 845.511 236.173 846.117 236.173H847.34ZM854.693 233.075V234.569H850.079V233.075H854.693ZM851.222 231.12H853.331V238.612C853.331 238.842 853.36 239.018 853.419 239.14C853.482 239.262 853.575 239.347 853.697 239.396C853.819 239.44 853.973 239.462 854.159 239.462C854.291 239.462 854.408 239.457 854.51 239.447C854.618 239.433 854.708 239.418 854.781 239.403L854.789 240.956C854.608 241.015 854.413 241.061 854.203 241.095C853.993 241.129 853.761 241.146 853.507 241.146C853.043 241.146 852.638 241.071 852.291 240.919C851.949 240.763 851.686 240.514 851.5 240.172C851.314 239.831 851.222 239.381 851.222 238.825V231.12ZM859.542 241.146C858.927 241.146 858.375 241.049 857.887 240.854C857.398 240.653 856.983 240.377 856.642 240.026C856.305 239.674 856.046 239.267 855.865 238.803C855.685 238.334 855.594 237.836 855.594 237.309V237.016C855.594 236.415 855.68 235.866 855.851 235.368C856.021 234.87 856.266 234.438 856.583 234.071C856.905 233.705 857.296 233.424 857.755 233.229C858.214 233.029 858.731 232.929 859.308 232.929C859.869 232.929 860.367 233.021 860.802 233.207C861.236 233.393 861.6 233.656 861.893 233.998C862.191 234.34 862.416 234.75 862.567 235.229C862.718 235.702 862.794 236.229 862.794 236.811V237.689H856.495V236.283H860.721V236.122C860.721 235.829 860.667 235.568 860.56 235.338C860.458 235.104 860.301 234.918 860.091 234.782C859.881 234.645 859.613 234.577 859.286 234.577C859.007 234.577 858.768 234.638 858.568 234.76C858.368 234.882 858.204 235.053 858.077 235.272C857.955 235.492 857.862 235.751 857.799 236.049C857.74 236.342 857.711 236.664 857.711 237.016V237.309C857.711 237.626 857.755 237.919 857.843 238.188C857.936 238.456 858.065 238.688 858.231 238.883C858.402 239.079 858.607 239.23 858.846 239.337C859.09 239.445 859.366 239.499 859.674 239.499C860.055 239.499 860.409 239.425 860.736 239.279C861.068 239.127 861.354 238.9 861.593 238.598L862.618 239.711C862.452 239.95 862.225 240.18 861.937 240.399C861.654 240.619 861.312 240.8 860.912 240.941C860.511 241.078 860.055 241.146 859.542 241.146ZM868.675 239.271V229.75H870.799V241H868.888L868.675 239.271ZM863.666 237.133V236.979C863.666 236.374 863.734 235.824 863.871 235.331C864.007 234.833 864.208 234.406 864.471 234.049C864.735 233.693 865.06 233.417 865.445 233.222C865.831 233.026 866.271 232.929 866.764 232.929C867.228 232.929 867.633 233.026 867.979 233.222C868.331 233.417 868.629 233.695 868.873 234.057C869.122 234.413 869.322 234.835 869.474 235.324C869.625 235.807 869.735 236.337 869.803 236.913V237.25C869.735 237.802 869.625 238.314 869.474 238.788C869.322 239.262 869.122 239.677 868.873 240.033C868.629 240.385 868.331 240.658 867.979 240.854C867.628 241.049 867.218 241.146 866.749 241.146C866.256 241.146 865.816 241.046 865.431 240.846C865.05 240.646 864.728 240.365 864.464 240.004C864.205 239.643 864.007 239.218 863.871 238.729C863.734 238.241 863.666 237.709 863.666 237.133ZM865.775 236.979V237.133C865.775 237.46 865.799 237.765 865.848 238.048C865.902 238.332 865.987 238.583 866.104 238.803C866.227 239.018 866.383 239.186 866.573 239.308C866.769 239.425 867.005 239.484 867.284 239.484C867.645 239.484 867.943 239.403 868.177 239.242C868.412 239.076 868.59 238.849 868.712 238.561C868.839 238.273 868.912 237.941 868.932 237.565V236.605C868.917 236.298 868.873 236.022 868.8 235.778C868.731 235.529 868.629 235.316 868.492 235.141C868.36 234.965 868.194 234.828 867.994 234.73C867.799 234.633 867.567 234.584 867.298 234.584C867.025 234.584 866.791 234.647 866.595 234.774C866.4 234.896 866.241 235.065 866.119 235.28C866.002 235.495 865.914 235.749 865.855 236.042C865.802 236.33 865.775 236.642 865.775 236.979Z" fill="#1A1A1A"/>
</g>
<g filter="url(#filter1_dd_10509_60176)">
<rect width="1076" height="64" transform="translate(172 264)" fill="white"/>
<rect x="204" y="286" width="20" height="20" rx="4" fill="url(#paint0_linear_10509_60176)"/>
<rect x="256" y="286" width="48" height="20" rx="4" fill="url(#paint1_linear_10509_60176)"/>
<rect x="336" y="286" width="217" height="20" rx="4" fill="url(#paint2_linear_10509_60176)"/>
<rect x="585" y="286" width="168" height="20" rx="4" fill="url(#paint3_linear_10509_60176)"/>
<rect x="785" y="286" width="217" height="20" rx="4" fill="url(#paint4_linear_10509_60176)"/>
<rect x="1034" y="286" width="78" height="20" rx="4" fill="url(#paint5_linear_10509_60176)"/>
<rect x="1144" y="280" width="32" height="32" rx="4" fill="url(#paint6_linear_10509_60176)"/>
<rect x="1184" y="280" width="32" height="32" rx="4" fill="url(#paint7_linear_10509_60176)"/>
</g>
<g filter="url(#filter2_dd_10509_60176)">
<rect width="1076" height="64" transform="translate(172 328)" fill="white"/>
<rect x="204" y="350" width="20" height="20" rx="4" fill="url(#paint8_linear_10509_60176)"/>
<rect x="256" y="350" width="48" height="20" rx="4" fill="url(#paint9_linear_10509_60176)"/>
<rect x="336" y="350" width="217" height="20" rx="4" fill="url(#paint10_linear_10509_60176)"/>
<rect x="585" y="350" width="168" height="20" rx="4" fill="url(#paint11_linear_10509_60176)"/>
<rect x="785" y="350" width="217" height="20" rx="4" fill="url(#paint12_linear_10509_60176)"/>
<rect x="1034" y="350" width="78" height="20" rx="4" fill="url(#paint13_linear_10509_60176)"/>
<rect x="1144" y="344" width="32" height="32" rx="4" fill="url(#paint14_linear_10509_60176)"/>
<rect x="1184" y="344" width="32" height="32" rx="4" fill="url(#paint15_linear_10509_60176)"/>
</g>
<g filter="url(#filter3_dd_10509_60176)">
<rect width="1076" height="64" transform="translate(172 392)" fill="white"/>
<rect x="204" y="414" width="20" height="20" rx="4" fill="url(#paint16_linear_10509_60176)"/>
<rect x="256" y="414" width="48" height="20" rx="4" fill="url(#paint17_linear_10509_60176)"/>
<rect x="336" y="414" width="217" height="20" rx="4" fill="url(#paint18_linear_10509_60176)"/>
<rect x="585" y="414" width="168" height="20" rx="4" fill="url(#paint19_linear_10509_60176)"/>
<rect x="785" y="414" width="217" height="20" rx="4" fill="url(#paint20_linear_10509_60176)"/>
<rect x="1034" y="414" width="78" height="20" rx="4" fill="url(#paint21_linear_10509_60176)"/>
<rect x="1144" y="408" width="32" height="32" rx="4" fill="url(#paint22_linear_10509_60176)"/>
<rect x="1184" y="408" width="32" height="32" rx="4" fill="url(#paint23_linear_10509_60176)"/>
</g>
<g filter="url(#filter4_d_10509_60176)">
<rect width="1076" height="64" transform="translate(172 456)" fill="white"/>
</g>
</g>
<defs>
<filter id="filter0_dd_10509_60176" x="172" y="207" width="1076" height="58" filterUnits="userSpaceOnUse" color-interpolation-filters="sRGB">
<feFlood flood-opacity="0" result="BackgroundImageFix"/>
<feColorMatrix in="SourceAlpha" type="matrix" values="0 0 0 0 0 0 0 0 0 0 0 0 0 0 0 0 0 0 127 0" result="hardAlpha"/>
<feOffset dy="1"/>
<feComposite in2="hardAlpha" operator="out"/>
<feColorMatrix type="matrix" values="0 0 0 0 0.901961 0 0 0 0 0.901961 0 0 0 0 0.901961 0 0 0 1 0"/>
<feBlend mode="normal" in2="BackgroundImageFix" result="effect1_dropShadow_10509_60176"/>
<feColorMatrix in="SourceAlpha" type="matrix" values="0 0 0 0 0 0 0 0 0 0 0 0 0 0 0 0 0 0 127 0" result="hardAlpha"/>
<feOffset dy="-1"/>
<feComposite in2="hardAlpha" operator="out"/>
<feColorMatrix type="matrix" values="0 0 0 0 0.901961 0 0 0 0 0.901961 0 0 0 0 0.901961 0 0 0 1 0"/>
<feBlend mode="normal" in2="effect1_dropShadow_10509_60176" result="effect2_dropShadow_10509_60176"/>
<feBlend mode="normal" in="SourceGraphic" in2="effect2_dropShadow_10509_60176" result="shape"/>
</filter>
<filter id="filter1_dd_10509_60176" x="172" y="263" width="1076" height="66" filterUnits="userSpaceOnUse" color-interpolation-filters="sRGB">
<feFlood flood-opacity="0" result="BackgroundImageFix"/>
<feColorMatrix in="SourceAlpha" type="matrix" values="0 0 0 0 0 0 0 0 0 0 0 0 0 0 0 0 0 0 127 0" result="hardAlpha"/>
<feOffset dy="1"/>
<feComposite in2="hardAlpha" operator="out"/>
<feColorMatrix type="matrix" values="0 0 0 0 0.901961 0 0 0 0 0.901961 0 0 0 0 0.901961 0 0 0 1 0"/>
<feBlend mode="normal" in2="BackgroundImageFix" result="effect1_dropShadow_10509_60176"/>
<feColorMatrix in="SourceAlpha" type="matrix" values="0 0 0 0 0 0 0 0 0 0 0 0 0 0 0 0 0 0 127 0" result="hardAlpha"/>
<feOffset dy="-1"/>
<feComposite in2="hardAlpha" operator="out"/>
<feColorMatrix type="matrix" values="0 0 0 0 0.901961 0 0 0 0 0.901961 0 0 0 0 0.901961 0 0 0 1 0"/>
<feBlend mode="normal" in2="effect1_dropShadow_10509_60176" result="effect2_dropShadow_10509_60176"/>
<feBlend mode="normal" in="SourceGraphic" in2="effect2_dropShadow_10509_60176" result="shape"/>
</filter>
<filter id="filter2_dd_10509_60176" x="172" y="327" width="1076" height="66" filterUnits="userSpaceOnUse" color-interpolation-filters="sRGB">
<feFlood flood-opacity="0" result="BackgroundImageFix"/>
<feColorMatrix in="SourceAlpha" type="matrix" values="0 0 0 0 0 0 0 0 0 0 0 0 0 0 0 0 0 0 127 0" result="hardAlpha"/>
<feOffset dy="1"/>
<feComposite in2="hardAlpha" operator="out"/>
<feColorMatrix type="matrix" values="0 0 0 0 0.901961 0 0 0 0 0.901961 0 0 0 0 0.901961 0 0 0 1 0"/>
<feBlend mode="normal" in2="BackgroundImageFix" result="effect1_dropShadow_10509_60176"/>
<feColorMatrix in="SourceAlpha" type="matrix" values="0 0 0 0 0 0 0 0 0 0 0 0 0 0 0 0 0 0 127 0" result="hardAlpha"/>
<feOffset dy="-1"/>
<feComposite in2="hardAlpha" operator="out"/>
<feColorMatrix type="matrix" values="0 0 0 0 0.901961 0 0 0 0 0.901961 0 0 0 0 0.901961 0 0 0 1 0"/>
<feBlend mode="normal" in2="effect1_dropShadow_10509_60176" result="effect2_dropShadow_10509_60176"/>
<feBlend mode="normal" in="SourceGraphic" in2="effect2_dropShadow_10509_60176" result="shape"/>
</filter>
<filter id="filter3_dd_10509_60176" x="172" y="391" width="1076" height="66" filterUnits="userSpaceOnUse" color-interpolation-filters="sRGB">
<feFlood flood-opacity="0" result="BackgroundImageFix"/>
<feColorMatrix in="SourceAlpha" type="matrix" values="0 0 0 0 0 0 0 0 0 0 0 0 0 0 0 0 0 0 127 0" result="hardAlpha"/>
<feOffset dy="1"/>
<feComposite in2="hardAlpha" operator="out"/>
<feColorMatrix type="matrix" values="0 0 0 0 0.901961 0 0 0 0 0.901961 0 0 0 0 0.901961 0 0 0 1 0"/>
<feBlend mode="normal" in2="BackgroundImageFix" result="effect1_dropShadow_10509_60176"/>
<feColorMatrix in="SourceAlpha" type="matrix" values="0 0 0 0 0 0 0 0 0 0 0 0 0 0 0 0 0 0 127 0" result="hardAlpha"/>
<feOffset dy="-1"/>
<feComposite in2="hardAlpha" operator="out"/>
<feColorMatrix type="matrix" values="0 0 0 0 0.901961 0 0 0 0 0.901961 0 0 0 0 0.901961 0 0 0 1 0"/>
<feBlend mode="normal" in2="effect1_dropShadow_10509_60176" result="effect2_dropShadow_10509_60176"/>
<feBlend mode="normal" in="SourceGraphic" in2="effect2_dropShadow_10509_60176" result="shape"/>
</filter>
<filter id="filter4_d_10509_60176" x="172" y="455" width="1076" height="65" filterUnits="userSpaceOnUse" color-interpolation-filters="sRGB">
<feFlood flood-opacity="0" result="BackgroundImageFix"/>
<feColorMatrix in="SourceAlpha" type="matrix" values="0 0 0 0 0 0 0 0 0 0 0 0 0 0 0 0 0 0 127 0" result="hardAlpha"/>
<feOffset dy="-1"/>
<feComposite in2="hardAlpha" operator="out"/>
<feColorMatrix type="matrix" values="0 0 0 0 0.901961 0 0 0 0 0.901961 0 0 0 0 0.901961 0 0 0 1 0"/>
<feBlend mode="normal" in2="BackgroundImageFix" result="effect1_dropShadow_10509_60176"/>
<feBlend mode="normal" in="SourceGraphic" in2="effect1_dropShadow_10509_60176" result="shape"/>
</filter>
<linearGradient id="paint0_linear_10509_60176" x1="202.597" y1="273.917" x2="227.902" y2="275.583" gradientUnits="userSpaceOnUse">
<stop stop-color="#E6E6E6"/>
<stop offset="0.0452461" stop-color="#F5F5F5"/>
</linearGradient>
<linearGradient id="paint1_linear_10509_60176" x1="252.633" y1="273.917" x2="312.142" y2="283.32" gradientUnits="userSpaceOnUse">
<stop stop-color="#E6E6E6"/>
<stop offset="0.0452461" stop-color="#F5F5F5"/>
</linearGradient>
<linearGradient id="paint2_linear_10509_60176" x1="320.781" y1="273.917" x2="503.358" y2="404.341" gradientUnits="userSpaceOnUse">
<stop stop-color="#E6E6E6"/>
<stop offset="0.0452461" stop-color="#F5F5F5"/>
</linearGradient>
<linearGradient id="paint3_linear_10509_60176" x1="573.217" y1="273.917" x2="736.696" y2="364.328" gradientUnits="userSpaceOnUse">
<stop stop-color="#E6E6E6"/>
<stop offset="0.0452461" stop-color="#F5F5F5"/>
</linearGradient>
<linearGradient id="paint4_linear_10509_60176" x1="769.781" y1="273.917" x2="952.358" y2="404.341" gradientUnits="userSpaceOnUse">
<stop stop-color="#E6E6E6"/>
<stop offset="0.0452461" stop-color="#F5F5F5"/>
</linearGradient>
<linearGradient id="paint5_linear_10509_60176" x1="1028.53" y1="273.917" x2="1121.51" y2="297.793" gradientUnits="userSpaceOnUse">
<stop stop-color="#E6E6E6"/>
<stop offset="0.0452461" stop-color="#F5F5F5"/>
</linearGradient>
<linearGradient id="paint6_linear_10509_60176" x1="1141.76" y1="260.667" x2="1182.24" y2="263.332" gradientUnits="userSpaceOnUse">
<stop stop-color="#E6E6E6"/>
<stop offset="0.0452461" stop-color="#F5F5F5"/>
</linearGradient>
<linearGradient id="paint7_linear_10509_60176" x1="1181.76" y1="260.667" x2="1222.24" y2="263.332" gradientUnits="userSpaceOnUse">
<stop stop-color="#E6E6E6"/>
<stop offset="0.0452461" stop-color="#F5F5F5"/>
</linearGradient>
<linearGradient id="paint8_linear_10509_60176" x1="202.597" y1="337.917" x2="227.902" y2="339.583" gradientUnits="userSpaceOnUse">
<stop stop-color="#E6E6E6"/>
<stop offset="0.0452461" stop-color="#F5F5F5"/>
</linearGradient>
<linearGradient id="paint9_linear_10509_60176" x1="252.633" y1="337.917" x2="312.142" y2="347.32" gradientUnits="userSpaceOnUse">
<stop stop-color="#E6E6E6"/>
<stop offset="0.0452461" stop-color="#F5F5F5"/>
</linearGradient>
<linearGradient id="paint10_linear_10509_60176" x1="320.781" y1="337.917" x2="503.358" y2="468.341" gradientUnits="userSpaceOnUse">
<stop stop-color="#E6E6E6"/>
<stop offset="0.0452461" stop-color="#F5F5F5"/>
</linearGradient>
<linearGradient id="paint11_linear_10509_60176" x1="573.217" y1="337.917" x2="736.696" y2="428.328" gradientUnits="userSpaceOnUse">
<stop stop-color="#E6E6E6"/>
<stop offset="0.0452461" stop-color="#F5F5F5"/>
</linearGradient>
<linearGradient id="paint12_linear_10509_60176" x1="769.781" y1="337.917" x2="952.358" y2="468.341" gradientUnits="userSpaceOnUse">
<stop stop-color="#E6E6E6"/>
<stop offset="0.0452461" stop-color="#F5F5F5"/>
</linearGradient>
<linearGradient id="paint13_linear_10509_60176" x1="1028.53" y1="337.917" x2="1121.51" y2="361.793" gradientUnits="userSpaceOnUse">
<stop stop-color="#E6E6E6"/>
<stop offset="0.0452461" stop-color="#F5F5F5"/>
</linearGradient>
<linearGradient id="paint14_linear_10509_60176" x1="1141.76" y1="324.667" x2="1182.24" y2="327.332" gradientUnits="userSpaceOnUse">
<stop stop-color="#E6E6E6"/>
<stop offset="0.0452461" stop-color="#F5F5F5"/>
</linearGradient>
<linearGradient id="paint15_linear_10509_60176" x1="1181.76" y1="324.667" x2="1222.24" y2="327.332" gradientUnits="userSpaceOnUse">
<stop stop-color="#E6E6E6"/>
<stop offset="0.0452461" stop-color="#F5F5F5"/>
</linearGradient>
<linearGradient id="paint16_linear_10509_60176" x1="202.597" y1="401.917" x2="227.902" y2="403.583" gradientUnits="userSpaceOnUse">
<stop stop-color="#E6E6E6"/>
<stop offset="0.0452461" stop-color="#F5F5F5"/>
</linearGradient>
<linearGradient id="paint17_linear_10509_60176" x1="252.633" y1="401.917" x2="312.142" y2="411.32" gradientUnits="userSpaceOnUse">
<stop stop-color="#E6E6E6"/>
<stop offset="0.0452461" stop-color="#F5F5F5"/>
</linearGradient>
<linearGradient id="paint18_linear_10509_60176" x1="320.781" y1="401.917" x2="503.358" y2="532.341" gradientUnits="userSpaceOnUse">
<stop stop-color="#E6E6E6"/>
<stop offset="0.0452461" stop-color="#F5F5F5"/>
</linearGradient>
<linearGradient id="paint19_linear_10509_60176" x1="573.217" y1="401.917" x2="736.696" y2="492.328" gradientUnits="userSpaceOnUse">
<stop stop-color="#E6E6E6"/>
<stop offset="0.0452461" stop-color="#F5F5F5"/>
</linearGradient>
<linearGradient id="paint20_linear_10509_60176" x1="769.781" y1="401.917" x2="952.358" y2="532.341" gradientUnits="userSpaceOnUse">
<stop stop-color="#E6E6E6"/>
<stop offset="0.0452461" stop-color="#F5F5F5"/>
</linearGradient>
<linearGradient id="paint21_linear_10509_60176" x1="1028.53" y1="401.917" x2="1121.51" y2="425.793" gradientUnits="userSpaceOnUse">
<stop stop-color="#E6E6E6"/>
<stop offset="0.0452461" stop-color="#F5F5F5"/>
</linearGradient>
<linearGradient id="paint22_linear_10509_60176" x1="1141.76" y1="388.667" x2="1182.24" y2="391.332" gradientUnits="userSpaceOnUse">
<stop stop-color="#E6E6E6"/>
<stop offset="0.0452461" stop-color="#F5F5F5"/>
</linearGradient>
<linearGradient id="paint23_linear_10509_60176" x1="1181.76" y1="388.667" x2="1222.24" y2="391.332" gradientUnits="userSpaceOnUse">
<stop stop-color="#E6E6E6"/>
<stop offset="0.0452461" stop-color="#F5F5F5"/>
</linearGradient>
<clipPath id="clip0_10509_60176">
<rect width="1280" height="456" rx="16" fill="white"/>
</clipPath>
<clipPath id="clip1_10509_60176">
<rect width="240" height="40" fill="white" transform="translate(204 152)"/>
</clipPath>
</defs>
</svg>
