<svg width="1280" height="220" viewBox="0 0 1280 220" fill="none" xmlns="http://www.w3.org/2000/svg">
<rect width="1280" height="220" rx="16" fill="#F8F8F8"/>
<rect x="63.5" y="48.5" width="359" height="39" rx="3.5" fill="white"/>
<path d="M96.6967 76.3984L91.4609 71.1641C92.594 69.7773 93.2192 68.0312 93.2192 66.125C93.2192 61.6367 89.5803 58 85.092 58C80.6037 58 77 61.6379 77 66.125C77 70.6121 80.6385 74.25 85.092 74.25C86.9984 74.25 88.7473 73.5895 90.1324 72.4906L95.3682 77.725C95.587 77.9102 95.8293 78 96.0676 78C96.306 78 96.5474 77.9084 96.7307 77.7254C97.0952 77.3594 97.0952 76.7656 96.6967 76.3984ZM78.8755 66.125C78.8755 62.6789 81.6802 59.875 85.1272 59.875C88.5742 59.875 91.3789 62.6789 91.3789 66.125C91.3789 69.5711 88.5742 72.375 85.1272 72.375C81.6802 72.375 78.8755 69.5703 78.8755 66.125Z" fill="#737373"/>
<path d="M113.921 70.3047C113.921 70.0557 113.882 69.8359 113.804 69.6455C113.731 69.4502 113.599 69.2744 113.409 69.1182C113.223 68.9619 112.964 68.813 112.632 68.6714C112.305 68.5298 111.89 68.3857 111.387 68.2393C110.86 68.083 110.384 67.9097 109.959 67.7192C109.534 67.5239 109.17 67.3018 108.868 67.0527C108.565 66.8037 108.333 66.5181 108.172 66.1958C108.011 65.8735 107.93 65.5049 107.93 65.0898C107.93 64.6748 108.016 64.2915 108.187 63.9399C108.357 63.5884 108.602 63.2832 108.919 63.0244C109.241 62.7607 109.625 62.5557 110.069 62.4092C110.513 62.2627 111.009 62.1895 111.556 62.1895C112.356 62.1895 113.035 62.3433 113.592 62.6509C114.153 62.9536 114.581 63.3516 114.874 63.8447C115.167 64.333 115.313 64.8555 115.313 65.4121H113.907C113.907 65.0117 113.821 64.6577 113.65 64.3501C113.479 64.0376 113.221 63.7935 112.874 63.6177C112.527 63.437 112.088 63.3467 111.556 63.3467C111.053 63.3467 110.638 63.4224 110.311 63.5737C109.983 63.7251 109.739 63.9302 109.578 64.189C109.422 64.4478 109.344 64.7432 109.344 65.0752C109.344 65.2998 109.39 65.5049 109.483 65.6904C109.581 65.8711 109.729 66.0396 109.93 66.1958C110.135 66.3521 110.394 66.4961 110.706 66.6279C111.023 66.7598 111.402 66.8867 111.841 67.0088C112.447 67.1797 112.969 67.3701 113.409 67.5801C113.848 67.79 114.209 68.0269 114.493 68.2905C114.781 68.5493 114.993 68.8447 115.13 69.1768C115.271 69.5039 115.342 69.875 115.342 70.29C115.342 70.7246 115.254 71.1177 115.079 71.4692C114.903 71.8208 114.651 72.1211 114.324 72.3701C113.997 72.6191 113.604 72.812 113.145 72.9487C112.691 73.0806 112.183 73.1465 111.622 73.1465C111.128 73.1465 110.643 73.0781 110.164 72.9414C109.69 72.8047 109.258 72.5996 108.868 72.3262C108.482 72.0527 108.172 71.7158 107.938 71.3154C107.708 70.9102 107.593 70.4414 107.593 69.9092H109C109 70.2754 109.07 70.5903 109.212 70.854C109.354 71.1128 109.546 71.3276 109.791 71.4985C110.04 71.6694 110.32 71.7964 110.633 71.8794C110.95 71.9575 111.28 71.9966 111.622 71.9966C112.115 71.9966 112.532 71.9282 112.874 71.7915C113.216 71.6548 113.475 71.4595 113.65 71.2056C113.831 70.9517 113.921 70.6514 113.921 70.3047ZM120.228 73.1465C119.676 73.1465 119.175 73.0537 118.726 72.8682C118.282 72.6777 117.898 72.4116 117.576 72.0698C117.259 71.728 117.015 71.3228 116.844 70.854C116.673 70.3853 116.587 69.8726 116.587 69.3159V69.0083C116.587 68.3638 116.683 67.79 116.873 67.2871C117.063 66.7793 117.322 66.3496 117.649 65.998C117.977 65.6465 118.348 65.3804 118.763 65.1997C119.178 65.019 119.607 64.9287 120.052 64.9287C120.618 64.9287 121.106 65.0264 121.517 65.2217C121.932 65.417 122.271 65.6904 122.535 66.042C122.798 66.3887 122.994 66.7988 123.121 67.2725C123.248 67.7412 123.311 68.2539 123.311 68.8105V69.4185H117.393V68.3125H121.956V68.21C121.937 67.8584 121.863 67.5166 121.736 67.1846C121.614 66.8525 121.419 66.5791 121.15 66.3643C120.882 66.1494 120.516 66.042 120.052 66.042C119.744 66.042 119.461 66.1079 119.202 66.2397C118.943 66.3667 118.721 66.5571 118.536 66.811C118.35 67.0649 118.206 67.375 118.104 67.7412C118.001 68.1074 117.95 68.5298 117.95 69.0083V69.3159C117.95 69.6919 118.001 70.0459 118.104 70.3779C118.211 70.7051 118.365 70.9932 118.565 71.2422C118.77 71.4912 119.017 71.6865 119.305 71.8281C119.598 71.9697 119.93 72.0405 120.301 72.0405C120.779 72.0405 121.185 71.9429 121.517 71.7476C121.849 71.5522 122.139 71.291 122.388 70.9639L123.208 71.6157C123.038 71.8745 122.82 72.1211 122.557 72.3555C122.293 72.5898 121.968 72.7803 121.583 72.9268C121.202 73.0732 120.75 73.1465 120.228 73.1465ZM129.566 71.645V67.5654C129.566 67.2529 129.502 66.9819 129.375 66.7524C129.253 66.5181 129.068 66.3374 128.819 66.2104C128.57 66.0835 128.262 66.02 127.896 66.02C127.554 66.02 127.254 66.0786 126.995 66.1958C126.741 66.313 126.541 66.4668 126.395 66.6572C126.253 66.8477 126.182 67.0527 126.182 67.2725H124.827C124.827 66.9893 124.9 66.7085 125.047 66.4302C125.193 66.1519 125.403 65.9004 125.677 65.6758C125.955 65.4463 126.287 65.2656 126.673 65.1338C127.063 64.9971 127.498 64.9287 127.977 64.9287C128.553 64.9287 129.061 65.0264 129.5 65.2217C129.944 65.417 130.291 65.7124 130.54 66.1079C130.794 66.4985 130.921 66.9893 130.921 67.5801V71.2715C130.921 71.5352 130.943 71.8159 130.987 72.1138C131.036 72.4116 131.106 72.668 131.199 72.8828V73H129.786C129.717 72.8438 129.664 72.6362 129.625 72.3774C129.585 72.1138 129.566 71.8696 129.566 71.645ZM129.8 68.1953L129.815 69.1475H128.445C128.06 69.1475 127.715 69.1792 127.413 69.2427C127.11 69.3013 126.856 69.3916 126.651 69.5137C126.446 69.6357 126.29 69.7896 126.182 69.9751C126.075 70.1558 126.021 70.3682 126.021 70.6123C126.021 70.8613 126.077 71.0884 126.189 71.2935C126.302 71.4985 126.47 71.6621 126.695 71.7842C126.924 71.9014 127.205 71.96 127.537 71.96C127.952 71.96 128.318 71.8721 128.636 71.6963C128.953 71.5205 129.205 71.3057 129.39 71.0518C129.581 70.7979 129.683 70.5513 129.698 70.312L130.276 70.9639C130.242 71.1689 130.149 71.396 129.998 71.645C129.847 71.894 129.644 72.1333 129.39 72.3628C129.141 72.5874 128.843 72.7754 128.497 72.9268C128.155 73.0732 127.769 73.1465 127.339 73.1465C126.802 73.1465 126.331 73.0415 125.926 72.8315C125.525 72.6216 125.213 72.3408 124.988 71.9893C124.769 71.6328 124.659 71.2349 124.659 70.7954C124.659 70.3706 124.742 69.9971 124.908 69.6748C125.074 69.3477 125.313 69.0767 125.625 68.8618C125.938 68.6421 126.314 68.4761 126.753 68.3638C127.193 68.2515 127.684 68.1953 128.226 68.1953H129.8ZM134.407 66.3203V73H133.052V65.0752H134.371L134.407 66.3203ZM136.883 65.0312L136.875 66.291C136.763 66.2666 136.656 66.252 136.553 66.2471C136.456 66.2373 136.343 66.2324 136.216 66.2324C135.904 66.2324 135.628 66.2812 135.389 66.3789C135.149 66.4766 134.947 66.6133 134.781 66.7891C134.615 66.9648 134.483 67.1748 134.385 67.4189C134.292 67.6582 134.231 67.9219 134.202 68.21L133.821 68.4297C133.821 67.9512 133.868 67.502 133.96 67.082C134.058 66.6621 134.207 66.291 134.407 65.9688C134.607 65.6416 134.861 65.3877 135.169 65.207C135.481 65.0215 135.853 64.9287 136.282 64.9287C136.38 64.9287 136.492 64.9409 136.619 64.9653C136.746 64.9849 136.834 65.0068 136.883 65.0312ZM141.16 72.0332C141.482 72.0332 141.78 71.9673 142.054 71.8354C142.327 71.7036 142.552 71.5229 142.728 71.2935C142.903 71.0591 143.003 70.793 143.028 70.4951H144.317C144.292 70.9639 144.134 71.4009 143.841 71.8062C143.553 72.2065 143.174 72.5312 142.706 72.7803C142.237 73.0244 141.722 73.1465 141.16 73.1465C140.564 73.1465 140.044 73.0415 139.6 72.8315C139.161 72.6216 138.794 72.3335 138.501 71.9673C138.213 71.6011 137.996 71.1812 137.85 70.7075C137.708 70.229 137.637 69.7236 137.637 69.1914V68.8838C137.637 68.3516 137.708 67.8486 137.85 67.375C137.996 66.8965 138.213 66.4741 138.501 66.1079C138.794 65.7417 139.161 65.4536 139.6 65.2437C140.044 65.0337 140.564 64.9287 141.16 64.9287C141.78 64.9287 142.322 65.0557 142.786 65.3096C143.25 65.5586 143.614 65.9004 143.877 66.335C144.146 66.7646 144.292 67.2529 144.317 67.7998H143.028C143.003 67.4727 142.911 67.1772 142.75 66.9136C142.593 66.6499 142.378 66.4399 142.105 66.2837C141.836 66.1226 141.521 66.042 141.16 66.042C140.745 66.042 140.396 66.125 140.113 66.291C139.834 66.4521 139.612 66.6719 139.446 66.9502C139.285 67.2236 139.168 67.5288 139.095 67.8657C139.026 68.1978 138.992 68.5371 138.992 68.8838V69.1914C138.992 69.5381 139.026 69.8799 139.095 70.2168C139.163 70.5537 139.278 70.8589 139.439 71.1323C139.605 71.4058 139.827 71.6255 140.105 71.7915C140.389 71.9526 140.74 72.0332 141.16 72.0332ZM147.195 61.75V73H145.84V61.75H147.195ZM146.873 68.7373L146.309 68.7153C146.314 68.1733 146.395 67.6729 146.551 67.2139C146.707 66.75 146.927 66.3472 147.21 66.0054C147.493 65.6636 147.83 65.3999 148.221 65.2144C148.616 65.0239 149.053 64.9287 149.532 64.9287C149.922 64.9287 150.274 64.9824 150.586 65.0898C150.899 65.1924 151.165 65.3584 151.385 65.5879C151.609 65.8174 151.78 66.1152 151.897 66.4814C152.015 66.8428 152.073 67.2847 152.073 67.8071V73H150.711V67.7925C150.711 67.3774 150.65 67.0454 150.528 66.7964C150.406 66.5425 150.228 66.3594 149.993 66.2471C149.759 66.1299 149.471 66.0713 149.129 66.0713C148.792 66.0713 148.484 66.1421 148.206 66.2837C147.933 66.4253 147.696 66.6206 147.496 66.8696C147.3 67.1187 147.146 67.4043 147.034 67.7266C146.927 68.0439 146.873 68.3809 146.873 68.7373Z" fill="#737373"/>
<rect x="63.5" y="48.5" width="359" height="39" rx="3.5" stroke="#AAAAAA"/>
<rect x="463.5" y="48.5" width="359" height="39" rx="3.5" fill="white"/>
<path d="M496.697 76.3984L491.461 71.1641C492.594 69.7773 493.219 68.0312 493.219 66.125C493.219 61.6367 489.58 58 485.092 58C480.604 58 477 61.6379 477 66.125C477 70.6121 480.638 74.25 485.092 74.25C486.998 74.25 488.747 73.5895 490.132 72.4906L495.368 77.725C495.587 77.9102 495.829 78 496.068 78C496.306 78 496.547 77.9084 496.731 77.7254C497.095 77.3594 497.095 76.7656 496.697 76.3984ZM478.876 66.125C478.876 62.6789 481.68 59.875 485.127 59.875C488.574 59.875 491.379 62.6789 491.379 66.125C491.379 69.5711 488.574 72.375 485.127 72.375C481.68 72.375 478.876 69.5703 478.876 66.125Z" fill="#737373"/>
<path d="M508.685 62.3359H510.054L513.548 71.0298L517.034 62.3359H518.411L514.075 73H513.006L508.685 62.3359ZM508.238 62.3359H509.446L509.644 68.8398V73H508.238V62.3359ZM517.642 62.3359H518.851V73H517.444V68.8398L517.642 62.3359ZM525.801 71.645V67.5654C525.801 67.2529 525.738 66.9819 525.611 66.7524C525.489 66.5181 525.303 66.3374 525.054 66.2104C524.805 66.0835 524.498 66.02 524.131 66.02C523.79 66.02 523.489 66.0786 523.23 66.1958C522.977 66.313 522.776 66.4668 522.63 66.6572C522.488 66.8477 522.417 67.0527 522.417 67.2725H521.062C521.062 66.9893 521.136 66.7085 521.282 66.4302C521.429 66.1519 521.639 65.9004 521.912 65.6758C522.19 65.4463 522.522 65.2656 522.908 65.1338C523.299 64.9971 523.733 64.9287 524.212 64.9287C524.788 64.9287 525.296 65.0264 525.735 65.2217C526.18 65.417 526.526 65.7124 526.775 66.1079C527.029 66.4985 527.156 66.9893 527.156 67.5801V71.2715C527.156 71.5352 527.178 71.8159 527.222 72.1138C527.271 72.4116 527.342 72.668 527.435 72.8828V73H526.021C525.953 72.8438 525.899 72.6362 525.86 72.3774C525.821 72.1138 525.801 71.8696 525.801 71.645ZM526.036 68.1953L526.05 69.1475H524.681C524.295 69.1475 523.951 69.1792 523.648 69.2427C523.345 69.3013 523.091 69.3916 522.886 69.5137C522.681 69.6357 522.525 69.7896 522.417 69.9751C522.31 70.1558 522.256 70.3682 522.256 70.6123C522.256 70.8613 522.312 71.0884 522.425 71.2935C522.537 71.4985 522.706 71.6621 522.93 71.7842C523.16 71.9014 523.44 71.96 523.772 71.96C524.188 71.96 524.554 71.8721 524.871 71.6963C525.188 71.5205 525.44 71.3057 525.625 71.0518C525.816 70.7979 525.918 70.5513 525.933 70.312L526.512 70.9639C526.478 71.1689 526.385 71.396 526.233 71.645C526.082 71.894 525.879 72.1333 525.625 72.3628C525.376 72.5874 525.079 72.7754 524.732 72.9268C524.39 73.0732 524.004 73.1465 523.575 73.1465C523.038 73.1465 522.566 73.0415 522.161 72.8315C521.761 72.6216 521.448 72.3408 521.224 71.9893C521.004 71.6328 520.894 71.2349 520.894 70.7954C520.894 70.3706 520.977 69.9971 521.143 69.6748C521.309 69.3477 521.548 69.0767 521.861 68.8618C522.173 68.6421 522.549 68.4761 522.989 68.3638C523.428 68.2515 523.919 68.1953 524.461 68.1953H526.036ZM530.76 61.75V73H529.397V61.75H530.76ZM537.608 71.645V67.5654C537.608 67.2529 537.544 66.9819 537.417 66.7524C537.295 66.5181 537.11 66.3374 536.861 66.2104C536.612 66.0835 536.304 66.02 535.938 66.02C535.596 66.02 535.296 66.0786 535.037 66.1958C534.783 66.313 534.583 66.4668 534.437 66.6572C534.295 66.8477 534.224 67.0527 534.224 67.2725H532.869C532.869 66.9893 532.942 66.7085 533.089 66.4302C533.235 66.1519 533.445 65.9004 533.719 65.6758C533.997 65.4463 534.329 65.2656 534.715 65.1338C535.105 64.9971 535.54 64.9287 536.019 64.9287C536.595 64.9287 537.103 65.0264 537.542 65.2217C537.986 65.417 538.333 65.7124 538.582 66.1079C538.836 66.4985 538.963 66.9893 538.963 67.5801V71.2715C538.963 71.5352 538.985 71.8159 539.029 72.1138C539.078 72.4116 539.148 72.668 539.241 72.8828V73H537.828C537.759 72.8438 537.706 72.6362 537.667 72.3774C537.627 72.1138 537.608 71.8696 537.608 71.645ZM537.842 68.1953L537.857 69.1475H536.487C536.102 69.1475 535.757 69.1792 535.455 69.2427C535.152 69.3013 534.898 69.3916 534.693 69.5137C534.488 69.6357 534.332 69.7896 534.224 69.9751C534.117 70.1558 534.063 70.3682 534.063 70.6123C534.063 70.8613 534.119 71.0884 534.231 71.2935C534.344 71.4985 534.512 71.6621 534.737 71.7842C534.966 71.9014 535.247 71.96 535.579 71.96C535.994 71.96 536.36 71.8721 536.678 71.6963C536.995 71.5205 537.247 71.3057 537.432 71.0518C537.623 70.7979 537.725 70.5513 537.74 70.312L538.318 70.9639C538.284 71.1689 538.191 71.396 538.04 71.645C537.889 71.894 537.686 72.1333 537.432 72.3628C537.183 72.5874 536.885 72.7754 536.539 72.9268C536.197 73.0732 535.811 73.1465 535.381 73.1465C534.844 73.1465 534.373 73.0415 533.968 72.8315C533.567 72.6216 533.255 72.3408 533.03 71.9893C532.811 71.6328 532.701 71.2349 532.701 70.7954C532.701 70.3706 532.784 69.9971 532.95 69.6748C533.116 69.3477 533.355 69.0767 533.667 68.8618C533.98 68.6421 534.356 68.4761 534.795 68.3638C535.235 68.2515 535.726 68.1953 536.268 68.1953H537.842ZM543.204 72.1797L545.408 65.0752H546.858L543.68 74.2231C543.606 74.4185 543.509 74.6284 543.387 74.853C543.27 75.0825 543.118 75.2998 542.933 75.5049C542.747 75.71 542.522 75.876 542.259 76.0029C542 76.1348 541.69 76.2007 541.329 76.2007C541.221 76.2007 541.084 76.186 540.918 76.1567C540.752 76.1274 540.635 76.103 540.567 76.0835L540.56 74.9849C540.599 74.9897 540.66 74.9946 540.743 74.9995C540.831 75.0093 540.892 75.0142 540.926 75.0142C541.233 75.0142 541.495 74.9727 541.709 74.8896C541.924 74.8115 542.105 74.6772 542.251 74.4868C542.403 74.3013 542.532 74.0449 542.64 73.7178L543.204 72.1797ZM541.585 65.0752L543.643 71.2275L543.995 72.6558L543.021 73.1538L540.105 65.0752H541.585ZM552.696 70.8979C552.696 70.7026 552.652 70.522 552.564 70.356C552.481 70.1851 552.308 70.0312 552.044 69.8945C551.785 69.7529 551.395 69.6309 550.872 69.5283C550.433 69.4355 550.035 69.3257 549.678 69.1987C549.327 69.0718 549.026 68.918 548.777 68.7373C548.533 68.5566 548.345 68.3442 548.213 68.1001C548.082 67.856 548.016 67.5703 548.016 67.2432C548.016 66.9307 548.084 66.6353 548.221 66.3569C548.362 66.0786 548.56 65.832 548.814 65.6172C549.073 65.4023 549.383 65.2339 549.744 65.1118C550.105 64.9897 550.508 64.9287 550.953 64.9287C551.587 64.9287 552.129 65.041 552.579 65.2656C553.028 65.4902 553.372 65.7905 553.611 66.1665C553.851 66.5376 553.97 66.9502 553.97 67.4043H552.615C552.615 67.1846 552.549 66.9722 552.417 66.7671C552.291 66.5571 552.103 66.3838 551.854 66.2471C551.609 66.1104 551.309 66.042 550.953 66.042C550.577 66.042 550.271 66.1006 550.037 66.2178C549.808 66.3301 549.639 66.4741 549.532 66.6499C549.429 66.8257 549.378 67.0112 549.378 67.2065C549.378 67.353 549.402 67.4849 549.451 67.6021C549.505 67.7144 549.598 67.8193 549.729 67.917C549.861 68.0098 550.047 68.0977 550.286 68.1807C550.525 68.2637 550.831 68.3467 551.202 68.4297C551.851 68.5762 552.386 68.752 552.806 68.957C553.226 69.1621 553.538 69.4136 553.743 69.7114C553.948 70.0093 554.051 70.3706 554.051 70.7954C554.051 71.1421 553.978 71.4595 553.831 71.7476C553.689 72.0356 553.482 72.2847 553.208 72.4946C552.94 72.6997 552.618 72.8608 552.242 72.978C551.871 73.0903 551.453 73.1465 550.989 73.1465C550.291 73.1465 549.7 73.022 549.217 72.7729C548.733 72.5239 548.367 72.2017 548.118 71.8062C547.869 71.4106 547.745 70.9932 547.745 70.5537H549.107C549.126 70.9248 549.234 71.2202 549.429 71.4399C549.625 71.6548 549.864 71.8086 550.147 71.9014C550.43 71.9893 550.711 72.0332 550.989 72.0332C551.36 72.0332 551.67 71.9844 551.919 71.8867C552.173 71.7891 552.366 71.6548 552.498 71.4839C552.63 71.313 552.696 71.1177 552.696 70.8979ZM557.303 65.0752V73H555.94V65.0752H557.303ZM555.838 62.9731C555.838 62.7534 555.904 62.5679 556.036 62.4165C556.172 62.2651 556.373 62.1895 556.636 62.1895C556.895 62.1895 557.093 62.2651 557.229 62.4165C557.371 62.5679 557.442 62.7534 557.442 62.9731C557.442 63.1831 557.371 63.3638 557.229 63.5151C557.093 63.6616 556.895 63.7349 556.636 63.7349C556.373 63.7349 556.172 63.6616 556.036 63.5151C555.904 63.3638 555.838 63.1831 555.838 62.9731ZM564.151 71.645V67.5654C564.151 67.2529 564.087 66.9819 563.96 66.7524C563.838 66.5181 563.653 66.3374 563.404 66.2104C563.155 66.0835 562.847 66.02 562.481 66.02C562.139 66.02 561.839 66.0786 561.58 66.1958C561.326 66.313 561.126 66.4668 560.979 66.6572C560.838 66.8477 560.767 67.0527 560.767 67.2725H559.412C559.412 66.9893 559.485 66.7085 559.632 66.4302C559.778 66.1519 559.988 65.9004 560.262 65.6758C560.54 65.4463 560.872 65.2656 561.258 65.1338C561.648 64.9971 562.083 64.9287 562.562 64.9287C563.138 64.9287 563.646 65.0264 564.085 65.2217C564.529 65.417 564.876 65.7124 565.125 66.1079C565.379 66.4985 565.506 66.9893 565.506 67.5801V71.2715C565.506 71.5352 565.528 71.8159 565.572 72.1138C565.621 72.4116 565.691 72.668 565.784 72.8828V73H564.371C564.302 72.8438 564.249 72.6362 564.209 72.3774C564.17 72.1138 564.151 71.8696 564.151 71.645ZM564.385 68.1953L564.4 69.1475H563.03C562.645 69.1475 562.3 69.1792 561.998 69.2427C561.695 69.3013 561.441 69.3916 561.236 69.5137C561.031 69.6357 560.875 69.7896 560.767 69.9751C560.66 70.1558 560.606 70.3682 560.606 70.6123C560.606 70.8613 560.662 71.0884 560.774 71.2935C560.887 71.4985 561.055 71.6621 561.28 71.7842C561.509 71.9014 561.79 71.96 562.122 71.96C562.537 71.96 562.903 71.8721 563.221 71.6963C563.538 71.5205 563.79 71.3057 563.975 71.0518C564.166 70.7979 564.268 70.5513 564.283 70.312L564.861 70.9639C564.827 71.1689 564.734 71.396 564.583 71.645C564.432 71.894 564.229 72.1333 563.975 72.3628C563.726 72.5874 563.428 72.7754 563.082 72.9268C562.74 73.0732 562.354 73.1465 561.924 73.1465C561.387 73.1465 560.916 73.0415 560.511 72.8315C560.11 72.6216 559.798 72.3408 559.573 71.9893C559.354 71.6328 559.244 71.2349 559.244 70.7954C559.244 70.3706 559.327 69.9971 559.493 69.6748C559.659 69.3477 559.898 69.0767 560.21 68.8618C560.523 68.6421 560.899 68.4761 561.338 68.3638C561.778 68.2515 562.269 68.1953 562.811 68.1953H564.385Z" fill="#1A1A1A"/>
<path fill-rule="evenodd" clip-rule="evenodd" d="M809 68C809 73.5228 804.523 78 799 78C793.477 78 789 73.5228 789 68C789 62.4772 793.477 58 799 58C804.523 58 809 62.4772 809 68ZM795.913 63.5871C795.547 63.221 794.953 63.221 794.587 63.5871C794.221 63.9532 794.221 64.5468 794.587 64.9129L797.674 68L794.587 71.0871C794.221 71.4532 794.221 72.0468 794.587 72.4129C794.953 72.779 795.547 72.779 795.913 72.4129L799 69.3258L802.087 72.4129C802.453 72.779 803.047 72.779 803.413 72.4129C803.779 72.0468 803.779 71.4532 803.413 71.0871L800.326 68L803.413 64.9129C803.779 64.5468 803.779 63.9532 803.413 63.5871C803.047 63.221 802.453 63.221 802.087 63.5871L799 66.6742L795.913 63.5871Z" fill="#AAAAAA"/>
<rect x="463.5" y="48.5" width="359" height="39" rx="3.5" stroke="#AAAAAA"/>
<rect x="63" y="40" width="1" height="56" fill="#18BB4B"/>
<g opacity="0.9">
<rect width="10" height="56" transform="translate(64 40)" fill="#18BB4B" fill-opacity="0.2"/>
</g>
<rect x="74" y="40" width="1" height="56" fill="#18BB4B"/>
<path d="M66.6992 102.451V111H65.0117V104.396L62.9844 105.041V103.711L66.5176 102.451H66.6992ZM75.3125 109.682V111H69.4766V109.875L72.2363 106.916C72.5137 106.607 72.7324 106.336 72.8926 106.102C73.0527 105.863 73.168 105.65 73.2383 105.463C73.3125 105.271 73.3496 105.09 73.3496 104.918C73.3496 104.66 73.3066 104.439 73.2207 104.256C73.1348 104.068 73.0078 103.924 72.8398 103.822C72.6758 103.721 72.4727 103.67 72.2305 103.67C71.9727 103.67 71.75 103.732 71.5625 103.857C71.3789 103.982 71.2383 104.156 71.1406 104.379C71.0469 104.602 71 104.854 71 105.135H69.3066C69.3066 104.627 69.4277 104.162 69.6699 103.74C69.9121 103.314 70.2539 102.977 70.6953 102.727C71.1367 102.473 71.6602 102.346 72.2656 102.346C72.8633 102.346 73.3672 102.443 73.7773 102.639C74.1914 102.83 74.5039 103.107 74.7148 103.471C74.9297 103.83 75.0371 104.26 75.0371 104.76C75.0371 105.041 74.9922 105.316 74.9023 105.586C74.8125 105.852 74.6836 106.117 74.5156 106.383C74.3516 106.645 74.1523 106.91 73.918 107.18C73.6836 107.449 73.4238 107.729 73.1387 108.018L71.6562 109.682H75.3125Z" fill="#18BB4B"/>
<rect x="411" y="40" width="1" height="56" fill="#18BB4B"/>
<g opacity="0.9">
<rect width="10" height="56" transform="translate(412 40)" fill="#18BB4B" fill-opacity="0.2"/>
</g>
<rect x="422" y="40" width="1" height="56" fill="#18BB4B"/>
<path d="M414.699 102.451V111H413.012V104.396L410.984 105.041V103.711L414.518 102.451H414.699ZM423.312 109.682V111H417.477V109.875L420.236 106.916C420.514 106.607 420.732 106.336 420.893 106.102C421.053 105.863 421.168 105.65 421.238 105.463C421.312 105.271 421.35 105.09 421.35 104.918C421.35 104.66 421.307 104.439 421.221 104.256C421.135 104.068 421.008 103.924 420.84 103.822C420.676 103.721 420.473 103.67 420.23 103.67C419.973 103.67 419.75 103.732 419.562 103.857C419.379 103.982 419.238 104.156 419.141 104.379C419.047 104.602 419 104.854 419 105.135H417.307C417.307 104.627 417.428 104.162 417.67 103.74C417.912 103.314 418.254 102.977 418.695 102.727C419.137 102.473 419.66 102.346 420.266 102.346C420.863 102.346 421.367 102.443 421.777 102.639C422.191 102.83 422.504 103.107 422.715 103.471C422.93 103.83 423.037 104.26 423.037 104.76C423.037 105.041 422.992 105.316 422.902 105.586C422.812 105.852 422.684 106.117 422.516 106.383C422.352 106.645 422.152 106.91 421.918 107.18C421.684 107.449 421.424 107.729 421.139 108.018L419.656 109.682H423.312Z" fill="#18BB4B"/>
<path d="M50.334 53.6621C50.334 54.1973 50.209 54.6484 49.959 55.0156C49.709 55.3789 49.3652 55.6543 48.9277 55.8418C48.4941 56.0254 48.002 56.1172 47.4512 56.1172C46.9004 56.1172 46.4062 56.0254 45.9688 55.8418C45.5312 55.6543 45.1855 55.3789 44.9316 55.0156C44.6777 54.6484 44.5508 54.1973 44.5508 53.6621C44.5508 53.3027 44.623 52.9785 44.7676 52.6895C44.9121 52.3965 45.1133 52.1465 45.3711 51.9395C45.6328 51.7285 45.9395 51.5684 46.291 51.459C46.6426 51.3457 47.0254 51.2891 47.4395 51.2891C47.9941 51.2891 48.4902 51.3867 48.9277 51.582C49.3652 51.7773 49.709 52.0527 49.959 52.4082C50.209 52.7637 50.334 53.1816 50.334 53.6621ZM48.6348 53.5508C48.6348 53.2891 48.584 53.0645 48.4824 52.877C48.3848 52.6855 48.2461 52.5391 48.0664 52.4375C47.8867 52.3359 47.6777 52.2852 47.4395 52.2852C47.2012 52.2852 46.9922 52.3359 46.8125 52.4375C46.6328 52.5391 46.4922 52.6855 46.3906 52.877C46.293 53.0645 46.2441 53.2891 46.2441 53.5508C46.2441 53.8086 46.293 54.0312 46.3906 54.2188C46.4922 54.4062 46.6328 54.5508 46.8125 54.6523C46.9961 54.75 47.209 54.7988 47.4512 54.7988C47.6934 54.7988 47.9023 54.75 48.0781 54.6523C48.2578 54.5508 48.3945 54.4062 48.4883 54.2188C48.5859 54.0312 48.6348 53.8086 48.6348 53.5508ZM50.1523 49.7305C50.1523 50.1641 50.0371 50.5488 49.8066 50.8848C49.5762 51.2168 49.2559 51.4766 48.8457 51.6641C48.4395 51.8516 47.9746 51.9453 47.4512 51.9453C46.9238 51.9453 46.4551 51.8516 46.0449 51.6641C45.6348 51.4766 45.3145 51.2168 45.084 50.8848C44.8535 50.5488 44.7383 50.1641 44.7383 49.7305C44.7383 49.2148 44.8535 48.7812 45.084 48.4297C45.3184 48.0742 45.6387 47.8047 46.0449 47.6211C46.4551 47.4375 46.9199 47.3457 47.4395 47.3457C47.9668 47.3457 48.4336 47.4375 48.8398 47.6211C49.25 47.8047 49.5703 48.0742 49.8008 48.4297C50.0352 48.7812 50.1523 49.2148 50.1523 49.7305ZM48.4648 49.8066C48.4648 49.5762 48.4238 49.377 48.3418 49.209C48.2598 49.0371 48.1426 48.9043 47.9902 48.8105C47.8418 48.7168 47.6582 48.6699 47.4395 48.6699C47.2285 48.6699 47.0469 48.7148 46.8945 48.8047C46.7461 48.8945 46.6309 49.0254 46.5488 49.1973C46.4707 49.3652 46.4316 49.5684 46.4316 49.8066C46.4316 50.0371 46.4707 50.2402 46.5488 50.416C46.6309 50.5879 46.748 50.7227 46.9004 50.8203C47.0527 50.918 47.2363 50.9668 47.4512 50.9668C47.666 50.9668 47.8477 50.918 47.9961 50.8203C48.1484 50.7227 48.2637 50.5879 48.3418 50.416C48.4238 50.2402 48.4648 50.0371 48.4648 49.8066Z" fill="#18BB4B"/>
<rect x="55" y="48" width="376" height="1" fill="#18BB4B"/>
<g opacity="0.9">
<rect width="376" height="6" transform="translate(55 49)" fill="#18BB4B" fill-opacity="0.2"/>
</g>
<rect x="55" y="55" width="376" height="1" fill="#18BB4B"/>
<path d="M50.334 85.6621C50.334 86.1973 50.209 86.6484 49.959 87.0156C49.709 87.3789 49.3652 87.6543 48.9277 87.8418C48.4941 88.0254 48.002 88.1172 47.4512 88.1172C46.9004 88.1172 46.4062 88.0254 45.9688 87.8418C45.5312 87.6543 45.1855 87.3789 44.9316 87.0156C44.6777 86.6484 44.5508 86.1973 44.5508 85.6621C44.5508 85.3027 44.623 84.9785 44.7676 84.6895C44.9121 84.3965 45.1133 84.1465 45.3711 83.9395C45.6328 83.7285 45.9395 83.5684 46.291 83.459C46.6426 83.3457 47.0254 83.2891 47.4395 83.2891C47.9941 83.2891 48.4902 83.3867 48.9277 83.582C49.3652 83.7773 49.709 84.0527 49.959 84.4082C50.209 84.7637 50.334 85.1816 50.334 85.6621ZM48.6348 85.5508C48.6348 85.2891 48.584 85.0645 48.4824 84.877C48.3848 84.6855 48.2461 84.5391 48.0664 84.4375C47.8867 84.3359 47.6777 84.2852 47.4395 84.2852C47.2012 84.2852 46.9922 84.3359 46.8125 84.4375C46.6328 84.5391 46.4922 84.6855 46.3906 84.877C46.293 85.0645 46.2441 85.2891 46.2441 85.5508C46.2441 85.8086 46.293 86.0312 46.3906 86.2188C46.4922 86.4062 46.6328 86.5508 46.8125 86.6523C46.9961 86.75 47.209 86.7988 47.4512 86.7988C47.6934 86.7988 47.9023 86.75 48.0781 86.6523C48.2578 86.5508 48.3945 86.4062 48.4883 86.2188C48.5859 86.0312 48.6348 85.8086 48.6348 85.5508ZM50.1523 81.7305C50.1523 82.1641 50.0371 82.5488 49.8066 82.8848C49.5762 83.2168 49.2559 83.4766 48.8457 83.6641C48.4395 83.8516 47.9746 83.9453 47.4512 83.9453C46.9238 83.9453 46.4551 83.8516 46.0449 83.6641C45.6348 83.4766 45.3145 83.2168 45.084 82.8848C44.8535 82.5488 44.7383 82.1641 44.7383 81.7305C44.7383 81.2148 44.8535 80.7812 45.084 80.4297C45.3184 80.0742 45.6387 79.8047 46.0449 79.6211C46.4551 79.4375 46.9199 79.3457 47.4395 79.3457C47.9668 79.3457 48.4336 79.4375 48.8398 79.6211C49.25 79.8047 49.5703 80.0742 49.8008 80.4297C50.0352 80.7812 50.1523 81.2148 50.1523 81.7305ZM48.4648 81.8066C48.4648 81.5762 48.4238 81.377 48.3418 81.209C48.2598 81.0371 48.1426 80.9043 47.9902 80.8105C47.8418 80.7168 47.6582 80.6699 47.4395 80.6699C47.2285 80.6699 47.0469 80.7148 46.8945 80.8047C46.7461 80.8945 46.6309 81.0254 46.5488 81.1973C46.4707 81.3652 46.4316 81.5684 46.4316 81.8066C46.4316 82.0371 46.4707 82.2402 46.5488 82.416C46.6309 82.5879 46.748 82.7227 46.9004 82.8203C47.0527 82.918 47.2363 82.9668 47.4512 82.9668C47.666 82.9668 47.8477 82.918 47.9961 82.8203C48.1484 82.7227 48.2637 82.5879 48.3418 82.416C48.4238 82.2402 48.4648 82.0371 48.4648 81.8066Z" fill="#18BB4B"/>
<rect x="55" y="80" width="376" height="1" fill="#18BB4B"/>
<g opacity="0.9">
<rect width="376" height="6" transform="translate(55 81)" fill="#18BB4B" fill-opacity="0.2"/>
</g>
<rect x="55" y="87" width="376" height="1" fill="#18BB4B"/>
<rect x="99" y="40" width="1" height="56" fill="#F45C59"/>
<g opacity="0.2">
<rect width="6" height="56" transform="translate(100 40)" fill="#F45C59"/>
</g>
<rect x="106" y="40" width="1" height="56" fill="#F45C59"/>
<path d="M105.834 108.662C105.834 109.197 105.709 109.648 105.459 110.016C105.209 110.379 104.865 110.654 104.428 110.842C103.994 111.025 103.502 111.117 102.951 111.117C102.4 111.117 101.906 111.025 101.469 110.842C101.031 110.654 100.686 110.379 100.432 110.016C100.178 109.648 100.051 109.197 100.051 108.662C100.051 108.303 100.123 107.979 100.268 107.689C100.412 107.396 100.613 107.146 100.871 106.939C101.133 106.729 101.439 106.568 101.791 106.459C102.143 106.346 102.525 106.289 102.939 106.289C103.494 106.289 103.99 106.387 104.428 106.582C104.865 106.777 105.209 107.053 105.459 107.408C105.709 107.764 105.834 108.182 105.834 108.662ZM104.135 108.551C104.135 108.289 104.084 108.064 103.982 107.877C103.885 107.686 103.746 107.539 103.566 107.438C103.387 107.336 103.178 107.285 102.939 107.285C102.701 107.285 102.492 107.336 102.312 107.438C102.133 107.539 101.992 107.686 101.891 107.877C101.793 108.064 101.744 108.289 101.744 108.551C101.744 108.809 101.793 109.031 101.891 109.219C101.992 109.406 102.133 109.551 102.312 109.652C102.496 109.75 102.709 109.799 102.951 109.799C103.193 109.799 103.402 109.75 103.578 109.652C103.758 109.551 103.895 109.406 103.988 109.219C104.086 109.031 104.135 108.809 104.135 108.551ZM105.652 104.73C105.652 105.164 105.537 105.549 105.307 105.885C105.076 106.217 104.756 106.477 104.346 106.664C103.939 106.852 103.475 106.945 102.951 106.945C102.424 106.945 101.955 106.852 101.545 106.664C101.135 106.477 100.814 106.217 100.584 105.885C100.354 105.549 100.238 105.164 100.238 104.73C100.238 104.215 100.354 103.781 100.584 103.43C100.818 103.074 101.139 102.805 101.545 102.621C101.955 102.438 102.42 102.346 102.939 102.346C103.467 102.346 103.934 102.438 104.34 102.621C104.75 102.805 105.07 103.074 105.301 103.43C105.535 103.781 105.652 104.215 105.652 104.73ZM103.965 104.807C103.965 104.576 103.924 104.377 103.842 104.209C103.76 104.037 103.643 103.904 103.49 103.811C103.342 103.717 103.158 103.67 102.939 103.67C102.729 103.67 102.547 103.715 102.395 103.805C102.246 103.895 102.131 104.025 102.049 104.197C101.971 104.365 101.932 104.568 101.932 104.807C101.932 105.037 101.971 105.24 102.049 105.416C102.131 105.588 102.248 105.723 102.4 105.82C102.553 105.918 102.736 105.967 102.951 105.967C103.166 105.967 103.348 105.918 103.496 105.82C103.648 105.723 103.764 105.588 103.842 105.416C103.924 105.24 103.965 105.037 103.965 104.807Z" fill="#F45C59"/>
<rect x="499" y="40" width="1" height="56" fill="#F45C59"/>
<g opacity="0.2">
<rect width="6" height="56" transform="translate(500 40)" fill="#F45C59"/>
</g>
<rect x="506" y="40" width="1" height="56" fill="#F45C59"/>
<path d="M505.834 108.662C505.834 109.197 505.709 109.648 505.459 110.016C505.209 110.379 504.865 110.654 504.428 110.842C503.994 111.025 503.502 111.117 502.951 111.117C502.4 111.117 501.906 111.025 501.469 110.842C501.031 110.654 500.686 110.379 500.432 110.016C500.178 109.648 500.051 109.197 500.051 108.662C500.051 108.303 500.123 107.979 500.268 107.689C500.412 107.396 500.613 107.146 500.871 106.939C501.133 106.729 501.439 106.568 501.791 106.459C502.143 106.346 502.525 106.289 502.939 106.289C503.494 106.289 503.99 106.387 504.428 106.582C504.865 106.777 505.209 107.053 505.459 107.408C505.709 107.764 505.834 108.182 505.834 108.662ZM504.135 108.551C504.135 108.289 504.084 108.064 503.982 107.877C503.885 107.686 503.746 107.539 503.566 107.438C503.387 107.336 503.178 107.285 502.939 107.285C502.701 107.285 502.492 107.336 502.312 107.438C502.133 107.539 501.992 107.686 501.891 107.877C501.793 108.064 501.744 108.289 501.744 108.551C501.744 108.809 501.793 109.031 501.891 109.219C501.992 109.406 502.133 109.551 502.312 109.652C502.496 109.75 502.709 109.799 502.951 109.799C503.193 109.799 503.402 109.75 503.578 109.652C503.758 109.551 503.895 109.406 503.988 109.219C504.086 109.031 504.135 108.809 504.135 108.551ZM505.652 104.73C505.652 105.164 505.537 105.549 505.307 105.885C505.076 106.217 504.756 106.477 504.346 106.664C503.939 106.852 503.475 106.945 502.951 106.945C502.424 106.945 501.955 106.852 501.545 106.664C501.135 106.477 500.814 106.217 500.584 105.885C500.354 105.549 500.238 105.164 500.238 104.73C500.238 104.215 500.354 103.781 500.584 103.43C500.818 103.074 501.139 102.805 501.545 102.621C501.955 102.438 502.42 102.346 502.939 102.346C503.467 102.346 503.934 102.438 504.34 102.621C504.75 102.805 505.07 103.074 505.301 103.43C505.535 103.781 505.652 104.215 505.652 104.73ZM503.965 104.807C503.965 104.576 503.924 104.377 503.842 104.209C503.76 104.037 503.643 103.904 503.49 103.811C503.342 103.717 503.158 103.67 502.939 103.67C502.729 103.67 502.547 103.715 502.395 103.805C502.246 103.895 502.131 104.025 502.049 104.197C501.971 104.365 501.932 104.568 501.932 104.807C501.932 105.037 501.971 105.24 502.049 105.416C502.131 105.588 502.248 105.723 502.4 105.82C502.553 105.918 502.736 105.967 502.951 105.967C503.166 105.967 503.348 105.918 503.496 105.82C503.648 105.723 503.764 105.588 503.842 105.416C503.924 105.24 503.965 105.037 503.965 104.807Z" fill="#F45C59"/>
<rect x="779" y="40" width="1" height="56" fill="#F45C59"/>
<g opacity="0.2">
<rect width="6" height="56" transform="translate(780 40)" fill="#F45C59"/>
</g>
<rect x="786" y="40" width="1" height="56" fill="#F45C59"/>
<path d="M785.834 108.662C785.834 109.197 785.709 109.648 785.459 110.016C785.209 110.379 784.865 110.654 784.428 110.842C783.994 111.025 783.502 111.117 782.951 111.117C782.4 111.117 781.906 111.025 781.469 110.842C781.031 110.654 780.686 110.379 780.432 110.016C780.178 109.648 780.051 109.197 780.051 108.662C780.051 108.303 780.123 107.979 780.268 107.689C780.412 107.396 780.613 107.146 780.871 106.939C781.133 106.729 781.439 106.568 781.791 106.459C782.143 106.346 782.525 106.289 782.939 106.289C783.494 106.289 783.99 106.387 784.428 106.582C784.865 106.777 785.209 107.053 785.459 107.408C785.709 107.764 785.834 108.182 785.834 108.662ZM784.135 108.551C784.135 108.289 784.084 108.064 783.982 107.877C783.885 107.686 783.746 107.539 783.566 107.438C783.387 107.336 783.178 107.285 782.939 107.285C782.701 107.285 782.492 107.336 782.312 107.438C782.133 107.539 781.992 107.686 781.891 107.877C781.793 108.064 781.744 108.289 781.744 108.551C781.744 108.809 781.793 109.031 781.891 109.219C781.992 109.406 782.133 109.551 782.312 109.652C782.496 109.75 782.709 109.799 782.951 109.799C783.193 109.799 783.402 109.75 783.578 109.652C783.758 109.551 783.895 109.406 783.988 109.219C784.086 109.031 784.135 108.809 784.135 108.551ZM785.652 104.73C785.652 105.164 785.537 105.549 785.307 105.885C785.076 106.217 784.756 106.477 784.346 106.664C783.939 106.852 783.475 106.945 782.951 106.945C782.424 106.945 781.955 106.852 781.545 106.664C781.135 106.477 780.814 106.217 780.584 105.885C780.354 105.549 780.238 105.164 780.238 104.73C780.238 104.215 780.354 103.781 780.584 103.43C780.818 103.074 781.139 102.805 781.545 102.621C781.955 102.438 782.42 102.346 782.939 102.346C783.467 102.346 783.934 102.438 784.34 102.621C784.75 102.805 785.07 103.074 785.301 103.43C785.535 103.781 785.652 104.215 785.652 104.73ZM783.965 104.807C783.965 104.576 783.924 104.377 783.842 104.209C783.76 104.037 783.643 103.904 783.49 103.811C783.342 103.717 783.158 103.67 782.939 103.67C782.729 103.67 782.547 103.715 782.395 103.805C782.246 103.895 782.131 104.025 782.049 104.197C781.971 104.365 781.932 104.568 781.932 104.807C781.932 105.037 781.971 105.24 782.049 105.416C782.131 105.588 782.248 105.723 782.4 105.82C782.553 105.918 782.736 105.967 782.951 105.967C783.166 105.967 783.348 105.918 783.496 105.82C783.648 105.723 783.764 105.588 783.842 105.416C783.924 105.24 783.965 105.037 783.965 104.807Z" fill="#F45C59"/>
<rect x="855" y="48" width="380" height="40" rx="3" fill="white"/>
<mask id="path-31-inside-1_10509_60316" fill="white">
<path d="M855 52C855 49.7909 856.791 48 859 48H1231C1233.21 48 1235 49.7909 1235 52V88H855V52Z"/>
</mask>
<path d="M855 52C855 49.7909 856.791 48 859 48H1231C1233.21 48 1235 49.7909 1235 52V88H855V52Z" fill="white"/>
<path d="M892.697 76.3984L887.461 71.1641C888.594 69.7773 889.219 68.0312 889.219 66.125C889.219 61.6367 885.58 58 881.092 58C876.604 58 873 61.6379 873 66.125C873 70.6121 876.638 74.25 881.092 74.25C882.998 74.25 884.747 73.5895 886.132 72.4906L891.368 77.725C891.587 77.9102 891.829 78 892.068 78C892.306 78 892.547 77.9084 892.731 77.7254C893.095 77.3594 893.095 76.7656 892.697 76.3984ZM874.876 66.125C874.876 62.6789 877.68 59.875 881.127 59.875C884.574 59.875 887.379 62.6789 887.379 66.125C887.379 69.5711 884.574 72.375 881.127 72.375C877.68 72.375 874.876 69.5703 874.876 66.125Z" fill="#737373"/>
<path d="M904.685 62.3359H906.054L909.548 71.0298L913.034 62.3359H914.411L910.075 73H909.006L904.685 62.3359ZM904.238 62.3359H905.446L905.644 68.8398V73H904.238V62.3359ZM913.642 62.3359H914.851V73H913.444V68.8398L913.642 62.3359ZM921.801 71.645V67.5654C921.801 67.2529 921.738 66.9819 921.611 66.7524C921.489 66.5181 921.303 66.3374 921.054 66.2104C920.805 66.0835 920.498 66.02 920.131 66.02C919.79 66.02 919.489 66.0786 919.23 66.1958C918.977 66.313 918.776 66.4668 918.63 66.6572C918.488 66.8477 918.417 67.0527 918.417 67.2725H917.062C917.062 66.9893 917.136 66.7085 917.282 66.4302C917.429 66.1519 917.639 65.9004 917.912 65.6758C918.19 65.4463 918.522 65.2656 918.908 65.1338C919.299 64.9971 919.733 64.9287 920.212 64.9287C920.788 64.9287 921.296 65.0264 921.735 65.2217C922.18 65.417 922.526 65.7124 922.775 66.1079C923.029 66.4985 923.156 66.9893 923.156 67.5801V71.2715C923.156 71.5352 923.178 71.8159 923.222 72.1138C923.271 72.4116 923.342 72.668 923.435 72.8828V73H922.021C921.953 72.8438 921.899 72.6362 921.86 72.3774C921.821 72.1138 921.801 71.8696 921.801 71.645ZM922.036 68.1953L922.05 69.1475H920.681C920.295 69.1475 919.951 69.1792 919.648 69.2427C919.345 69.3013 919.091 69.3916 918.886 69.5137C918.681 69.6357 918.525 69.7896 918.417 69.9751C918.31 70.1558 918.256 70.3682 918.256 70.6123C918.256 70.8613 918.312 71.0884 918.425 71.2935C918.537 71.4985 918.706 71.6621 918.93 71.7842C919.16 71.9014 919.44 71.96 919.772 71.96C920.188 71.96 920.554 71.8721 920.871 71.6963C921.188 71.5205 921.44 71.3057 921.625 71.0518C921.816 70.7979 921.918 70.5513 921.933 70.312L922.512 70.9639C922.478 71.1689 922.385 71.396 922.233 71.645C922.082 71.894 921.879 72.1333 921.625 72.3628C921.376 72.5874 921.079 72.7754 920.732 72.9268C920.39 73.0732 920.004 73.1465 919.575 73.1465C919.038 73.1465 918.566 73.0415 918.161 72.8315C917.761 72.6216 917.448 72.3408 917.224 71.9893C917.004 71.6328 916.894 71.2349 916.894 70.7954C916.894 70.3706 916.977 69.9971 917.143 69.6748C917.309 69.3477 917.548 69.0767 917.861 68.8618C918.173 68.6421 918.549 68.4761 918.989 68.3638C919.428 68.2515 919.919 68.1953 920.461 68.1953H922.036ZM926.643 66.3203V73H925.288V65.0752H926.606L926.643 66.3203ZM929.118 65.0312L929.111 66.291C928.999 66.2666 928.891 66.252 928.789 66.2471C928.691 66.2373 928.579 66.2324 928.452 66.2324C928.139 66.2324 927.863 66.2812 927.624 66.3789C927.385 66.4766 927.182 66.6133 927.016 66.7891C926.85 66.9648 926.718 67.1748 926.621 67.4189C926.528 67.6582 926.467 67.9219 926.438 68.21L926.057 68.4297C926.057 67.9512 926.103 67.502 926.196 67.082C926.293 66.6621 926.442 66.291 926.643 65.9688C926.843 65.6416 927.097 65.3877 927.404 65.207C927.717 65.0215 928.088 64.9287 928.518 64.9287C928.615 64.9287 928.728 64.9409 928.854 64.9653C928.981 64.9849 929.069 65.0068 929.118 65.0312ZM935.219 71.4619V61.75H936.582V73H935.336L935.219 71.4619ZM929.887 69.1255V68.9717C929.887 68.3662 929.96 67.8169 930.107 67.3237C930.258 66.8257 930.471 66.3984 930.744 66.042C931.022 65.6855 931.352 65.4121 931.733 65.2217C932.119 65.0264 932.548 64.9287 933.022 64.9287C933.52 64.9287 933.955 65.0166 934.326 65.1924C934.702 65.3633 935.019 65.6147 935.278 65.9468C935.542 66.2739 935.749 66.6694 935.9 67.1333C936.052 67.5972 936.157 68.1221 936.215 68.708V69.3818C936.162 69.9629 936.057 70.4854 935.9 70.9492C935.749 71.4131 935.542 71.8086 935.278 72.1357C935.019 72.4629 934.702 72.7144 934.326 72.8901C933.95 73.061 933.51 73.1465 933.007 73.1465C932.543 73.1465 932.119 73.0464 931.733 72.8462C931.352 72.646 931.022 72.3652 930.744 72.0039C930.471 71.6426 930.258 71.2178 930.107 70.7295C929.96 70.2363 929.887 69.7017 929.887 69.1255ZM931.25 68.9717V69.1255C931.25 69.521 931.289 69.8921 931.367 70.2388C931.45 70.5854 931.577 70.8906 931.748 71.1543C931.918 71.418 932.136 71.6255 932.399 71.7769C932.663 71.9233 932.978 71.9966 933.344 71.9966C933.793 71.9966 934.162 71.9014 934.45 71.7109C934.743 71.5205 934.978 71.269 935.153 70.9565C935.329 70.644 935.466 70.3047 935.563 69.9385V68.1733C935.505 67.9048 935.419 67.646 935.307 67.397C935.2 67.1431 935.058 66.9185 934.882 66.7231C934.711 66.5229 934.499 66.3643 934.245 66.2471C933.996 66.1299 933.701 66.0713 933.359 66.0713C932.988 66.0713 932.668 66.1494 932.399 66.3057C932.136 66.457 931.918 66.667 931.748 66.9355C931.577 67.1992 931.45 67.5068 931.367 67.8584C931.289 68.2051 931.25 68.5762 931.25 68.9717ZM940.163 65.0752V73H938.801V65.0752H940.163ZM938.698 62.9731C938.698 62.7534 938.764 62.5679 938.896 62.4165C939.033 62.2651 939.233 62.1895 939.497 62.1895C939.755 62.1895 939.953 62.2651 940.09 62.4165C940.231 62.5679 940.302 62.7534 940.302 62.9731C940.302 63.1831 940.231 63.3638 940.09 63.5151C939.953 63.6616 939.755 63.7349 939.497 63.7349C939.233 63.7349 939.033 63.6616 938.896 63.5151C938.764 63.3638 938.698 63.1831 938.698 62.9731ZM943.686 62.3359V74.9775H942.595V62.3359H943.686Z" fill="#1A1A1A"/>
<path fill-rule="evenodd" clip-rule="evenodd" d="M1221 68C1221 73.5228 1216.52 78 1211 78C1205.48 78 1201 73.5228 1201 68C1201 62.4772 1205.48 58 1211 58C1216.52 58 1221 62.4772 1221 68ZM1207.91 63.5871C1207.55 63.221 1206.95 63.221 1206.59 63.5871C1206.22 63.9532 1206.22 64.5468 1206.59 64.9129L1209.67 68L1206.59 71.0871C1206.22 71.4532 1206.22 72.0468 1206.59 72.4129C1206.95 72.779 1207.55 72.779 1207.91 72.4129L1211 69.3258L1214.09 72.4129C1214.45 72.779 1215.05 72.779 1215.41 72.4129C1215.78 72.0468 1215.78 71.4532 1215.41 71.0871L1212.33 68L1215.41 64.9129C1215.78 64.5468 1215.78 63.9532 1215.41 63.5871C1215.05 63.221 1214.45 63.221 1214.09 63.5871L1211 66.6742L1207.91 63.5871Z" fill="#AAAAAA"/>
<path d="M853 52C853 48.6863 855.686 46 859 46H1231C1234.31 46 1237 48.6863 1237 52H1233C1233 50.8954 1232.1 50 1231 50H859C857.895 50 857 50.8954 857 52H853ZM1235 88H855H1235ZM853 88V52C853 48.6863 855.686 46 859 46V50C857.895 50 857 50.8954 857 52V88H853ZM1231 46C1234.31 46 1237 48.6863 1237 52V88H1233V52C1233 50.8954 1232.1 50 1231 50V46Z" fill="#0059FF" mask="url(#path-31-inside-1_10509_60316)"/>
<rect x="863" y="95" width="364" height="52" rx="4" fill="#EBF2FF"/>
<path d="M887.182 115.758V125H885.951L881.298 117.872V125H880.073V115.758H881.298L885.97 122.905V115.758H887.182ZM888.864 121.642V121.496C888.864 121.001 888.936 120.542 889.08 120.119C889.224 119.691 889.431 119.321 889.702 119.008C889.973 118.69 890.301 118.445 890.686 118.271C891.071 118.094 891.503 118.005 891.981 118.005C892.463 118.005 892.897 118.094 893.282 118.271C893.672 118.445 894.002 118.69 894.272 119.008C894.548 119.321 894.757 119.691 894.901 120.119C895.045 120.542 895.117 121.001 895.117 121.496V121.642C895.117 122.137 895.045 122.596 894.901 123.02C894.757 123.443 894.548 123.813 894.272 124.13C894.002 124.444 893.674 124.689 893.289 124.867C892.908 125.04 892.476 125.127 891.994 125.127C891.511 125.127 891.077 125.04 890.692 124.867C890.307 124.689 889.977 124.444 889.702 124.13C889.431 123.813 889.224 123.443 889.08 123.02C888.936 122.596 888.864 122.137 888.864 121.642ZM890.039 121.496V121.642C890.039 121.985 890.079 122.309 890.159 122.613C890.24 122.914 890.36 123.18 890.521 123.413C890.686 123.646 890.891 123.83 891.137 123.965C891.382 124.097 891.668 124.162 891.994 124.162C892.315 124.162 892.597 124.097 892.838 123.965C893.083 123.83 893.286 123.646 893.447 123.413C893.608 123.18 893.729 122.914 893.809 122.613C893.894 122.309 893.936 121.985 893.936 121.642V121.496C893.936 121.158 893.894 120.838 893.809 120.538C893.729 120.233 893.606 119.964 893.441 119.731C893.28 119.494 893.077 119.308 892.832 119.173C892.59 119.037 892.307 118.97 891.981 118.97C891.659 118.97 891.376 119.037 891.13 119.173C890.889 119.308 890.686 119.494 890.521 119.731C890.36 119.964 890.24 120.233 890.159 120.538C890.079 120.838 890.039 121.158 890.039 121.496ZM900.988 119.211V125H899.814V118.132H900.957L900.988 119.211ZM903.134 118.094L903.127 119.186C903.03 119.164 902.937 119.152 902.848 119.147C902.764 119.139 902.666 119.135 902.556 119.135C902.285 119.135 902.046 119.177 901.839 119.262C901.632 119.346 901.456 119.465 901.312 119.617C901.168 119.77 901.054 119.951 900.969 120.163C900.889 120.37 900.836 120.599 900.811 120.849L900.48 121.039C900.48 120.624 900.521 120.235 900.601 119.871C900.686 119.507 900.815 119.186 900.988 118.906C901.162 118.623 901.382 118.403 901.648 118.246C901.919 118.085 902.241 118.005 902.613 118.005C902.698 118.005 902.795 118.015 902.905 118.037C903.015 118.054 903.091 118.073 903.134 118.094ZM906.942 125.127C906.464 125.127 906.03 125.047 905.641 124.886C905.256 124.721 904.924 124.49 904.645 124.194C904.369 123.898 904.158 123.546 904.01 123.14C903.862 122.734 903.788 122.29 903.788 121.807V121.541C903.788 120.982 903.87 120.485 904.035 120.049C904.2 119.609 904.424 119.236 904.708 118.932C904.992 118.627 905.313 118.396 905.673 118.24C906.033 118.083 906.405 118.005 906.79 118.005C907.281 118.005 907.704 118.09 908.06 118.259C908.419 118.428 908.713 118.665 908.942 118.97C909.17 119.27 909.34 119.626 909.45 120.036C909.56 120.442 909.615 120.887 909.615 121.369V121.896H904.486V120.938H908.44V120.849C908.424 120.544 908.36 120.248 908.25 119.96C908.144 119.672 907.975 119.435 907.742 119.249C907.509 119.063 907.192 118.97 906.79 118.97C906.523 118.97 906.278 119.027 906.054 119.141C905.829 119.251 905.637 119.416 905.476 119.636C905.315 119.856 905.19 120.125 905.102 120.442C905.013 120.76 904.968 121.126 904.968 121.541V121.807C904.968 122.133 905.013 122.44 905.102 122.728C905.195 123.011 905.328 123.261 905.501 123.477C905.679 123.692 905.893 123.862 906.143 123.984C906.396 124.107 906.684 124.168 907.006 124.168C907.421 124.168 907.772 124.084 908.06 123.915C908.347 123.745 908.599 123.519 908.815 123.235L909.526 123.8C909.378 124.025 909.189 124.238 908.961 124.441C908.732 124.645 908.451 124.81 908.117 124.937C907.787 125.063 907.395 125.127 906.942 125.127ZM914.985 123.178C914.985 123.009 914.947 122.852 914.871 122.708C914.799 122.56 914.648 122.427 914.42 122.309C914.196 122.186 913.857 122.08 913.404 121.991C913.023 121.911 912.679 121.816 912.37 121.706C912.065 121.596 911.805 121.462 911.589 121.306C911.377 121.149 911.214 120.965 911.1 120.753C910.986 120.542 910.929 120.294 910.929 120.011C910.929 119.74 910.988 119.484 911.106 119.243C911.229 119.001 911.401 118.788 911.621 118.602C911.845 118.415 912.114 118.269 912.427 118.164C912.74 118.058 913.089 118.005 913.474 118.005C914.024 118.005 914.494 118.102 914.883 118.297C915.273 118.492 915.571 118.752 915.778 119.078C915.986 119.399 916.089 119.757 916.089 120.15H914.915C914.915 119.96 914.858 119.776 914.744 119.598C914.634 119.416 914.471 119.266 914.255 119.147C914.043 119.029 913.783 118.97 913.474 118.97C913.148 118.97 912.884 119.021 912.681 119.122C912.482 119.219 912.336 119.344 912.243 119.497C912.154 119.649 912.109 119.81 912.109 119.979C912.109 120.106 912.131 120.22 912.173 120.322C912.219 120.419 912.3 120.51 912.414 120.595C912.528 120.675 912.689 120.751 912.896 120.823C913.104 120.895 913.368 120.967 913.69 121.039C914.253 121.166 914.716 121.318 915.08 121.496C915.444 121.674 915.715 121.892 915.893 122.15C916.07 122.408 916.159 122.721 916.159 123.089C916.159 123.39 916.096 123.665 915.969 123.915C915.846 124.164 915.666 124.38 915.429 124.562C915.196 124.74 914.917 124.879 914.591 124.981C914.27 125.078 913.908 125.127 913.506 125.127C912.901 125.127 912.389 125.019 911.97 124.803C911.551 124.587 911.233 124.308 911.018 123.965C910.802 123.623 910.694 123.261 910.694 122.88H911.875C911.891 123.201 911.985 123.458 912.154 123.648C912.323 123.834 912.53 123.967 912.776 124.048C913.021 124.124 913.265 124.162 913.506 124.162C913.827 124.162 914.096 124.12 914.312 124.035C914.532 123.951 914.699 123.834 914.813 123.686C914.928 123.538 914.985 123.369 914.985 123.178ZM921.904 123.413V118.132H923.084V125H921.961L921.904 123.413ZM922.126 121.966L922.615 121.953C922.615 122.41 922.566 122.833 922.469 123.223C922.376 123.608 922.223 123.942 922.012 124.226C921.8 124.509 921.523 124.731 921.18 124.892C920.837 125.049 920.421 125.127 919.93 125.127C919.595 125.127 919.289 125.078 919.009 124.981C918.734 124.884 918.497 124.733 918.298 124.53C918.099 124.327 917.945 124.063 917.835 123.737C917.729 123.411 917.676 123.02 917.676 122.562V118.132H918.851V122.575C918.851 122.884 918.884 123.14 918.952 123.343C919.024 123.542 919.119 123.701 919.238 123.819C919.361 123.934 919.496 124.014 919.644 124.061C919.796 124.107 919.953 124.13 920.114 124.13C920.613 124.13 921.009 124.035 921.301 123.845C921.593 123.65 921.802 123.39 921.929 123.064C922.06 122.734 922.126 122.368 922.126 121.966ZM926.15 115.25V125H924.97V115.25H926.15ZM930.911 118.132V119.033H927.198V118.132H930.911ZM928.455 116.462H929.629V123.299C929.629 123.532 929.665 123.707 929.737 123.826C929.809 123.944 929.902 124.022 930.016 124.061C930.13 124.099 930.253 124.118 930.384 124.118C930.482 124.118 930.583 124.109 930.689 124.092C930.799 124.071 930.882 124.054 930.937 124.042L930.943 125C930.85 125.03 930.727 125.057 930.575 125.083C930.427 125.112 930.247 125.127 930.035 125.127C929.747 125.127 929.483 125.07 929.242 124.956C929 124.841 928.808 124.651 928.664 124.384C928.524 124.113 928.455 123.75 928.455 123.292V116.462ZM937.252 123.781L939.017 118.132H939.792L939.639 119.255L937.843 125H937.087L937.252 123.781ZM936.065 118.132L937.57 123.845L937.678 125H936.884L934.891 118.132H936.065ZM941.48 123.8L942.915 118.132H944.083L942.089 125H941.302L941.48 123.8ZM939.963 118.132L941.689 123.686L941.886 125H941.137L939.29 119.243L939.138 118.132H939.963ZM949.338 123.826V120.29C949.338 120.019 949.283 119.784 949.173 119.585C949.068 119.382 948.907 119.226 948.691 119.116C948.475 119.006 948.208 118.951 947.891 118.951C947.595 118.951 947.335 119.001 947.11 119.103C946.89 119.205 946.717 119.338 946.59 119.503C946.467 119.668 946.406 119.846 946.406 120.036H945.231C945.231 119.791 945.295 119.547 945.422 119.306C945.549 119.065 945.731 118.847 945.968 118.652C946.209 118.453 946.497 118.297 946.831 118.183C947.17 118.064 947.546 118.005 947.961 118.005C948.46 118.005 948.9 118.09 949.281 118.259C949.666 118.428 949.967 118.684 950.183 119.027C950.403 119.365 950.513 119.791 950.513 120.303V123.502C950.513 123.73 950.532 123.974 950.57 124.232C950.612 124.49 950.674 124.712 950.754 124.898V125H949.529C949.47 124.865 949.423 124.685 949.389 124.46C949.355 124.232 949.338 124.02 949.338 123.826ZM949.542 120.836L949.554 121.661H948.367C948.033 121.661 947.735 121.689 947.472 121.744C947.21 121.794 946.99 121.873 946.812 121.979C946.634 122.084 946.499 122.218 946.406 122.378C946.313 122.535 946.266 122.719 946.266 122.931C946.266 123.146 946.315 123.343 946.412 123.521C946.509 123.699 946.655 123.84 946.85 123.946C947.049 124.048 947.292 124.099 947.58 124.099C947.94 124.099 948.257 124.022 948.532 123.87C948.807 123.718 949.025 123.532 949.186 123.312C949.351 123.091 949.44 122.878 949.453 122.67L949.954 123.235C949.924 123.413 949.844 123.61 949.713 123.826C949.582 124.042 949.406 124.249 949.186 124.448C948.97 124.642 948.712 124.805 948.412 124.937C948.115 125.063 947.781 125.127 947.409 125.127C946.943 125.127 946.535 125.036 946.184 124.854C945.837 124.672 945.566 124.429 945.371 124.124C945.181 123.815 945.085 123.47 945.085 123.089C945.085 122.721 945.157 122.397 945.301 122.118C945.445 121.835 945.653 121.6 945.923 121.414C946.194 121.223 946.52 121.079 946.901 120.982C947.282 120.885 947.707 120.836 948.177 120.836H949.542ZM956.359 123.178C956.359 123.009 956.321 122.852 956.245 122.708C956.173 122.56 956.022 122.427 955.794 122.309C955.57 122.186 955.231 122.08 954.778 121.991C954.397 121.911 954.053 121.816 953.744 121.706C953.439 121.596 953.179 121.462 952.963 121.306C952.751 121.149 952.588 120.965 952.474 120.753C952.36 120.542 952.303 120.294 952.303 120.011C952.303 119.74 952.362 119.484 952.48 119.243C952.603 119.001 952.775 118.788 952.995 118.602C953.219 118.415 953.488 118.269 953.801 118.164C954.114 118.058 954.463 118.005 954.848 118.005C955.398 118.005 955.868 118.102 956.257 118.297C956.647 118.492 956.945 118.752 957.152 119.078C957.36 119.399 957.463 119.757 957.463 120.15H956.289C956.289 119.96 956.232 119.776 956.118 119.598C956.008 119.416 955.845 119.266 955.629 119.147C955.417 119.029 955.157 118.97 954.848 118.97C954.522 118.97 954.258 119.021 954.055 119.122C953.856 119.219 953.71 119.344 953.617 119.497C953.528 119.649 953.483 119.81 953.483 119.979C953.483 120.106 953.505 120.22 953.547 120.322C953.593 120.419 953.674 120.51 953.788 120.595C953.902 120.675 954.063 120.751 954.271 120.823C954.478 120.895 954.742 120.967 955.064 121.039C955.627 121.166 956.09 121.318 956.454 121.496C956.818 121.674 957.089 121.892 957.267 122.15C957.444 122.408 957.533 122.721 957.533 123.089C957.533 123.39 957.47 123.665 957.343 123.915C957.22 124.164 957.04 124.38 956.803 124.562C956.57 124.74 956.291 124.879 955.965 124.981C955.644 125.078 955.282 125.127 954.88 125.127C954.275 125.127 953.763 125.019 953.344 124.803C952.925 124.587 952.607 124.308 952.392 123.965C952.176 123.623 952.068 123.261 952.068 122.88H953.249C953.265 123.201 953.359 123.458 953.528 123.648C953.697 123.834 953.904 123.967 954.15 124.048C954.395 124.124 954.639 124.162 954.88 124.162C955.201 124.162 955.47 124.12 955.686 124.035C955.906 123.951 956.073 123.834 956.188 123.686C956.302 123.538 956.359 123.369 956.359 123.178ZM964.052 125H962.878V117.408C962.878 116.913 962.967 116.496 963.145 116.158C963.326 115.815 963.587 115.557 963.925 115.383C964.264 115.206 964.666 115.117 965.131 115.117C965.267 115.117 965.402 115.125 965.538 115.142C965.677 115.159 965.813 115.184 965.944 115.218L965.88 116.177C965.792 116.156 965.69 116.141 965.576 116.132C965.466 116.124 965.356 116.12 965.246 116.12C964.996 116.12 964.78 116.17 964.598 116.272C964.42 116.369 964.285 116.513 964.192 116.704C964.099 116.894 964.052 117.129 964.052 117.408V125ZM965.512 118.132V119.033H961.792V118.132H965.512ZM966.509 121.642V121.496C966.509 121.001 966.581 120.542 966.725 120.119C966.868 119.691 967.076 119.321 967.347 119.008C967.618 118.69 967.945 118.445 968.331 118.271C968.716 118.094 969.147 118.005 969.625 118.005C970.108 118.005 970.542 118.094 970.927 118.271C971.316 118.445 971.646 118.69 971.917 119.008C972.192 119.321 972.402 119.691 972.545 120.119C972.689 120.542 972.761 121.001 972.761 121.496V121.642C972.761 122.137 972.689 122.596 972.545 123.02C972.402 123.443 972.192 123.813 971.917 124.13C971.646 124.444 971.318 124.689 970.933 124.867C970.552 125.04 970.121 125.127 969.638 125.127C969.156 125.127 968.722 125.04 968.337 124.867C967.952 124.689 967.622 124.444 967.347 124.13C967.076 123.813 966.868 123.443 966.725 123.02C966.581 122.596 966.509 122.137 966.509 121.642ZM967.683 121.496V121.642C967.683 121.985 967.723 122.309 967.804 122.613C967.884 122.914 968.005 123.18 968.166 123.413C968.331 123.646 968.536 123.83 968.781 123.965C969.027 124.097 969.312 124.162 969.638 124.162C969.96 124.162 970.241 124.097 970.482 123.965C970.728 123.83 970.931 123.646 971.092 123.413C971.253 123.18 971.373 122.914 971.454 122.613C971.538 122.309 971.581 121.985 971.581 121.642V121.496C971.581 121.158 971.538 120.838 971.454 120.538C971.373 120.233 971.25 119.964 971.085 119.731C970.925 119.494 970.722 119.308 970.476 119.173C970.235 119.037 969.951 118.97 969.625 118.97C969.304 118.97 969.02 119.037 968.775 119.173C968.534 119.308 968.331 119.494 968.166 119.731C968.005 119.964 967.884 120.233 967.804 120.538C967.723 120.838 967.683 121.158 967.683 121.496ZM978.436 123.413V118.132H979.617V125H978.493L978.436 123.413ZM978.658 121.966L979.147 121.953C979.147 122.41 979.098 122.833 979.001 123.223C978.908 123.608 978.756 123.942 978.544 124.226C978.332 124.509 978.055 124.731 977.712 124.892C977.37 125.049 976.953 125.127 976.462 125.127C976.128 125.127 975.821 125.078 975.542 124.981C975.266 124.884 975.029 124.733 974.831 124.53C974.632 124.327 974.477 124.063 974.367 123.737C974.261 123.411 974.208 123.02 974.208 122.562V118.132H975.383V122.575C975.383 122.884 975.417 123.14 975.484 123.343C975.556 123.542 975.652 123.701 975.77 123.819C975.893 123.934 976.028 124.014 976.176 124.061C976.329 124.107 976.485 124.13 976.646 124.13C977.145 124.13 977.541 124.035 977.833 123.845C978.125 123.65 978.334 123.39 978.461 123.064C978.593 122.734 978.658 122.368 978.658 121.966ZM982.581 119.598V125H981.407V118.132H982.518L982.581 119.598ZM982.302 121.306L981.813 121.287C981.817 120.817 981.887 120.383 982.022 119.985C982.158 119.583 982.348 119.234 982.594 118.938C982.839 118.642 983.131 118.413 983.47 118.252C983.812 118.087 984.191 118.005 984.606 118.005C984.944 118.005 985.249 118.051 985.52 118.145C985.791 118.233 986.021 118.377 986.212 118.576C986.407 118.775 986.555 119.033 986.656 119.351C986.758 119.664 986.809 120.047 986.809 120.5V125H985.628V120.487C985.628 120.127 985.575 119.839 985.469 119.624C985.363 119.403 985.209 119.245 985.006 119.147C984.803 119.046 984.553 118.995 984.257 118.995C983.965 118.995 983.698 119.056 983.457 119.179C983.22 119.302 983.015 119.471 982.841 119.687C982.672 119.903 982.539 120.15 982.441 120.43C982.348 120.705 982.302 120.997 982.302 121.306ZM992.921 123.667V115.25H994.102V125H993.023L992.921 123.667ZM988.3 121.642V121.509C988.3 120.984 988.364 120.508 988.491 120.081C988.622 119.649 988.806 119.279 989.043 118.97C989.284 118.661 989.57 118.424 989.9 118.259C990.234 118.09 990.607 118.005 991.017 118.005C991.449 118.005 991.825 118.081 992.147 118.233C992.473 118.382 992.748 118.599 992.972 118.887C993.201 119.171 993.381 119.514 993.512 119.916C993.643 120.318 993.734 120.772 993.785 121.28V121.864C993.738 122.368 993.647 122.821 993.512 123.223C993.381 123.625 993.201 123.967 992.972 124.251C992.748 124.535 992.473 124.752 992.147 124.905C991.821 125.053 991.44 125.127 991.004 125.127C990.602 125.127 990.234 125.04 989.9 124.867C989.57 124.693 989.284 124.45 989.043 124.137C988.806 123.824 988.622 123.455 988.491 123.032C988.364 122.605 988.3 122.141 988.3 121.642ZM989.481 121.509V121.642C989.481 121.985 989.515 122.306 989.583 122.607C989.654 122.907 989.764 123.172 989.913 123.4C990.061 123.629 990.249 123.809 990.478 123.94C990.706 124.067 990.979 124.13 991.296 124.13C991.686 124.13 992.005 124.048 992.255 123.883C992.509 123.718 992.712 123.5 992.864 123.229C993.017 122.958 993.135 122.664 993.22 122.347V120.817C993.169 120.584 993.095 120.36 992.998 120.144C992.904 119.924 992.782 119.729 992.629 119.56C992.481 119.387 992.297 119.249 992.077 119.147C991.861 119.046 991.605 118.995 991.309 118.995C990.987 118.995 990.71 119.063 990.478 119.198C990.249 119.329 990.061 119.511 989.913 119.744C989.764 119.973 989.654 120.239 989.583 120.544C989.515 120.844 989.481 121.166 989.481 121.509ZM995.949 124.378C995.949 124.179 996.011 124.012 996.133 123.876C996.26 123.737 996.442 123.667 996.679 123.667C996.916 123.667 997.096 123.737 997.219 123.876C997.346 124.012 997.409 124.179 997.409 124.378C997.409 124.573 997.346 124.738 997.219 124.873C997.096 125.008 996.916 125.076 996.679 125.076C996.442 125.076 996.26 125.008 996.133 124.873C996.011 124.738 995.949 124.573 995.949 124.378Z" fill="#505050"/>
<path d="M855 87H1235H855ZM1237 151C1237 154.314 1234.31 157 1231 157H859C855.686 157 853 154.314 853 151H857C857 152.105 857.895 153 859 153H1231C1232.1 153 1233 152.105 1233 151H1237ZM859 157C855.686 157 853 154.314 853 151V87H857V151C857 152.105 857.895 153 859 153V157ZM1237 87V151C1237 154.314 1234.31 157 1231 157V153C1232.1 153 1233 152.105 1233 151V87H1237Z" fill="#0059FF" mask="url(#path-36-inside-2_10509_60316)"/>
<path d="M842.334 93.6621C842.334 94.1973 842.209 94.6484 841.959 95.0156C841.709 95.3789 841.365 95.6543 840.928 95.8418C840.494 96.0254 840.002 96.1172 839.451 96.1172C838.9 96.1172 838.406 96.0254 837.969 95.8418C837.531 95.6543 837.186 95.3789 836.932 95.0156C836.678 94.6484 836.551 94.1973 836.551 93.6621C836.551 93.3027 836.623 92.9785 836.768 92.6895C836.912 92.3965 837.113 92.1465 837.371 91.9395C837.633 91.7285 837.939 91.5684 838.291 91.459C838.643 91.3457 839.025 91.2891 839.439 91.2891C839.994 91.2891 840.49 91.3867 840.928 91.582C841.365 91.7773 841.709 92.0527 841.959 92.4082C842.209 92.7637 842.334 93.1816 842.334 93.6621ZM840.635 93.5508C840.635 93.2891 840.584 93.0645 840.482 92.877C840.385 92.6855 840.246 92.5391 840.066 92.4375C839.887 92.3359 839.678 92.2852 839.439 92.2852C839.201 92.2852 838.992 92.3359 838.812 92.4375C838.633 92.5391 838.492 92.6855 838.391 92.877C838.293 93.0645 838.244 93.2891 838.244 93.5508C838.244 93.8086 838.293 94.0312 838.391 94.2188C838.492 94.4062 838.633 94.5508 838.812 94.6523C838.996 94.75 839.209 94.7988 839.451 94.7988C839.693 94.7988 839.902 94.75 840.078 94.6523C840.258 94.5508 840.395 94.4062 840.488 94.2188C840.586 94.0312 840.635 93.8086 840.635 93.5508ZM842.152 89.7305C842.152 90.1641 842.037 90.5488 841.807 90.8848C841.576 91.2168 841.256 91.4766 840.846 91.6641C840.439 91.8516 839.975 91.9453 839.451 91.9453C838.924 91.9453 838.455 91.8516 838.045 91.6641C837.635 91.4766 837.314 91.2168 837.084 90.8848C836.854 90.5488 836.738 90.1641 836.738 89.7305C836.738 89.2148 836.854 88.7812 837.084 88.4297C837.318 88.0742 837.639 87.8047 838.045 87.6211C838.455 87.4375 838.92 87.3457 839.439 87.3457C839.967 87.3457 840.434 87.4375 840.84 87.6211C841.25 87.8047 841.57 88.0742 841.801 88.4297C842.035 88.7812 842.152 89.2148 842.152 89.7305ZM840.465 89.8066C840.465 89.5762 840.424 89.377 840.342 89.209C840.26 89.0371 840.143 88.9043 839.99 88.8105C839.842 88.7168 839.658 88.6699 839.439 88.6699C839.229 88.6699 839.047 88.7148 838.895 88.8047C838.746 88.8945 838.631 89.0254 838.549 89.1973C838.471 89.3652 838.432 89.5684 838.432 89.8066C838.432 90.0371 838.471 90.2402 838.549 90.416C838.631 90.5879 838.748 90.7227 838.9 90.8203C839.053 90.918 839.236 90.9668 839.451 90.9668C839.666 90.9668 839.848 90.918 839.996 90.8203C840.148 90.7227 840.264 90.5879 840.342 90.416C840.424 90.2402 840.465 90.0371 840.465 89.8066Z" fill="#F45C59"/>
<rect x="847" y="88" width="396" height="1" fill="#F45C59"/>
<g opacity="0.2">
<rect width="396" height="6" transform="translate(847 89)" fill="#F45C59"/>
</g>
<rect x="847" y="95" width="396" height="1" fill="#F45C59"/>
<path d="M833.699 99.4512V108H832.012V101.396L829.984 102.041V100.711L833.518 99.4512H833.699ZM840.83 99.3809H841.076V100.729H840.977C840.531 100.729 840.135 100.795 839.787 100.928C839.439 101.061 839.145 101.25 838.902 101.496C838.664 101.738 838.48 102.031 838.352 102.375C838.227 102.719 838.164 103.104 838.164 103.529V104.947C838.164 105.252 838.193 105.521 838.252 105.756C838.314 105.986 838.402 106.18 838.516 106.336C838.633 106.488 838.77 106.604 838.926 106.682C839.082 106.756 839.258 106.793 839.453 106.793C839.637 106.793 839.803 106.754 839.951 106.676C840.104 106.598 840.232 106.488 840.338 106.348C840.447 106.203 840.529 106.035 840.584 105.844C840.643 105.648 840.672 105.436 840.672 105.205C840.672 104.975 840.643 104.762 840.584 104.566C840.529 104.371 840.447 104.203 840.338 104.062C840.229 103.918 840.096 103.807 839.939 103.729C839.783 103.65 839.607 103.611 839.412 103.611C839.146 103.611 838.912 103.674 838.709 103.799C838.51 103.92 838.354 104.076 838.24 104.268C838.127 104.459 838.066 104.66 838.059 104.871L837.549 104.543C837.561 104.242 837.623 103.957 837.736 103.688C837.854 103.418 838.014 103.18 838.217 102.973C838.424 102.762 838.672 102.598 838.961 102.48C839.25 102.359 839.576 102.299 839.939 102.299C840.338 102.299 840.688 102.375 840.988 102.527C841.293 102.68 841.547 102.889 841.75 103.154C841.953 103.42 842.105 103.727 842.207 104.074C842.309 104.422 842.359 104.793 842.359 105.188C842.359 105.602 842.291 105.986 842.154 106.342C842.021 106.697 841.828 107.008 841.574 107.273C841.324 107.539 841.023 107.746 840.672 107.895C840.32 108.043 839.926 108.117 839.488 108.117C839.035 108.117 838.623 108.035 838.252 107.871C837.885 107.703 837.568 107.469 837.303 107.168C837.037 106.867 836.832 106.51 836.688 106.096C836.547 105.682 836.477 105.229 836.477 104.736V104.08C836.477 103.393 836.576 102.764 836.775 102.193C836.979 101.619 837.27 101.123 837.648 100.705C838.027 100.283 838.484 99.957 839.02 99.7266C839.555 99.4961 840.158 99.3809 840.83 99.3809Z" fill="#18BB4B"/>
<rect x="847" y="96" width="396" height="1" fill="#18BB4B"/>
<g opacity="0.9">
<rect width="396" height="14" transform="translate(847 97)" fill="#18BB4B" fill-opacity="0.2"/>
</g>
<rect x="847" y="111" width="396" height="1" fill="#18BB4B"/>
<path d="M833.699 134.451V143H832.012V136.396L829.984 137.041V135.711L833.518 134.451H833.699ZM840.83 134.381H841.076V135.729H840.977C840.531 135.729 840.135 135.795 839.787 135.928C839.439 136.061 839.145 136.25 838.902 136.496C838.664 136.738 838.48 137.031 838.352 137.375C838.227 137.719 838.164 138.104 838.164 138.529V139.947C838.164 140.252 838.193 140.521 838.252 140.756C838.314 140.986 838.402 141.18 838.516 141.336C838.633 141.488 838.77 141.604 838.926 141.682C839.082 141.756 839.258 141.793 839.453 141.793C839.637 141.793 839.803 141.754 839.951 141.676C840.104 141.598 840.232 141.488 840.338 141.348C840.447 141.203 840.529 141.035 840.584 140.844C840.643 140.648 840.672 140.436 840.672 140.205C840.672 139.975 840.643 139.762 840.584 139.566C840.529 139.371 840.447 139.203 840.338 139.062C840.229 138.918 840.096 138.807 839.939 138.729C839.783 138.65 839.607 138.611 839.412 138.611C839.146 138.611 838.912 138.674 838.709 138.799C838.51 138.92 838.354 139.076 838.24 139.268C838.127 139.459 838.066 139.66 838.059 139.871L837.549 139.543C837.561 139.242 837.623 138.957 837.736 138.688C837.854 138.418 838.014 138.18 838.217 137.973C838.424 137.762 838.672 137.598 838.961 137.48C839.25 137.359 839.576 137.299 839.939 137.299C840.338 137.299 840.688 137.375 840.988 137.527C841.293 137.68 841.547 137.889 841.75 138.154C841.953 138.42 842.105 138.727 842.207 139.074C842.309 139.422 842.359 139.793 842.359 140.188C842.359 140.602 842.291 140.986 842.154 141.342C842.021 141.697 841.828 142.008 841.574 142.273C841.324 142.539 841.023 142.746 840.672 142.895C840.32 143.043 839.926 143.117 839.488 143.117C839.035 143.117 838.623 143.035 838.252 142.871C837.885 142.703 837.568 142.469 837.303 142.168C837.037 141.867 836.832 141.51 836.688 141.096C836.547 140.682 836.477 140.229 836.477 139.736V139.08C836.477 138.393 836.576 137.764 836.775 137.193C836.979 136.619 837.27 136.123 837.648 135.705C838.027 135.283 838.484 134.957 839.02 134.727C839.555 134.496 840.158 134.381 840.83 134.381Z" fill="#18BB4B"/>
<rect x="847" y="131" width="396" height="1" fill="#18BB4B"/>
<g opacity="0.9">
<rect width="396" height="14" transform="translate(847 132)" fill="#18BB4B" fill-opacity="0.2"/>
</g>
<rect x="847" y="146" width="396" height="1" fill="#18BB4B"/>
<path d="M842.334 152.662C842.334 153.197 842.209 153.648 841.959 154.016C841.709 154.379 841.365 154.654 840.928 154.842C840.494 155.025 840.002 155.117 839.451 155.117C838.9 155.117 838.406 155.025 837.969 154.842C837.531 154.654 837.186 154.379 836.932 154.016C836.678 153.648 836.551 153.197 836.551 152.662C836.551 152.303 836.623 151.979 836.768 151.689C836.912 151.396 837.113 151.146 837.371 150.939C837.633 150.729 837.939 150.568 838.291 150.459C838.643 150.346 839.025 150.289 839.439 150.289C839.994 150.289 840.49 150.387 840.928 150.582C841.365 150.777 841.709 151.053 841.959 151.408C842.209 151.764 842.334 152.182 842.334 152.662ZM840.635 152.551C840.635 152.289 840.584 152.064 840.482 151.877C840.385 151.686 840.246 151.539 840.066 151.438C839.887 151.336 839.678 151.285 839.439 151.285C839.201 151.285 838.992 151.336 838.812 151.438C838.633 151.539 838.492 151.686 838.391 151.877C838.293 152.064 838.244 152.289 838.244 152.551C838.244 152.809 838.293 153.031 838.391 153.219C838.492 153.406 838.633 153.551 838.812 153.652C838.996 153.75 839.209 153.799 839.451 153.799C839.693 153.799 839.902 153.75 840.078 153.652C840.258 153.551 840.395 153.406 840.488 153.219C840.586 153.031 840.635 152.809 840.635 152.551ZM842.152 148.73C842.152 149.164 842.037 149.549 841.807 149.885C841.576 150.217 841.256 150.477 840.846 150.664C840.439 150.852 839.975 150.945 839.451 150.945C838.924 150.945 838.455 150.852 838.045 150.664C837.635 150.477 837.314 150.217 837.084 149.885C836.854 149.549 836.738 149.164 836.738 148.73C836.738 148.215 836.854 147.781 837.084 147.43C837.318 147.074 837.639 146.805 838.045 146.621C838.455 146.438 838.92 146.346 839.439 146.346C839.967 146.346 840.434 146.438 840.84 146.621C841.25 146.805 841.57 147.074 841.801 147.43C842.035 147.781 842.152 148.215 842.152 148.73ZM840.465 148.807C840.465 148.576 840.424 148.377 840.342 148.209C840.26 148.037 840.143 147.904 839.99 147.811C839.842 147.717 839.658 147.67 839.439 147.67C839.229 147.67 839.047 147.715 838.895 147.805C838.746 147.895 838.631 148.025 838.549 148.197C838.471 148.365 838.432 148.568 838.432 148.807C838.432 149.037 838.471 149.24 838.549 149.416C838.631 149.588 838.748 149.723 838.9 149.82C839.053 149.918 839.236 149.967 839.451 149.967C839.666 149.967 839.848 149.918 839.996 149.82C840.148 149.723 840.264 149.588 840.342 149.416C840.424 149.24 840.465 149.037 840.465 148.807Z" fill="#F45C59"/>
<rect x="847" y="147" width="396" height="1" fill="#F45C59"/>
<g opacity="0.2">
<rect width="396" height="6" transform="translate(847 148)" fill="#F45C59"/>
</g>
<rect x="847" y="154" width="396" height="1" fill="#F45C59"/>
<rect x="856" y="80" width="1" height="83" fill="#F45C59"/>
<g opacity="0.2">
<rect width="6" height="83" transform="translate(857 80)" fill="#F45C59"/>
</g>
<rect x="863" y="80" width="1" height="83" fill="#F45C59"/>
<path d="M862.834 175.662C862.834 176.197 862.709 176.648 862.459 177.016C862.209 177.379 861.865 177.654 861.428 177.842C860.994 178.025 860.502 178.117 859.951 178.117C859.4 178.117 858.906 178.025 858.469 177.842C858.031 177.654 857.686 177.379 857.432 177.016C857.178 176.648 857.051 176.197 857.051 175.662C857.051 175.303 857.123 174.979 857.268 174.689C857.412 174.396 857.613 174.146 857.871 173.939C858.133 173.729 858.439 173.568 858.791 173.459C859.143 173.346 859.525 173.289 859.939 173.289C860.494 173.289 860.99 173.387 861.428 173.582C861.865 173.777 862.209 174.053 862.459 174.408C862.709 174.764 862.834 175.182 862.834 175.662ZM861.135 175.551C861.135 175.289 861.084 175.064 860.982 174.877C860.885 174.686 860.746 174.539 860.566 174.438C860.387 174.336 860.178 174.285 859.939 174.285C859.701 174.285 859.492 174.336 859.312 174.438C859.133 174.539 858.992 174.686 858.891 174.877C858.793 175.064 858.744 175.289 858.744 175.551C858.744 175.809 858.793 176.031 858.891 176.219C858.992 176.406 859.133 176.551 859.312 176.652C859.496 176.75 859.709 176.799 859.951 176.799C860.193 176.799 860.402 176.75 860.578 176.652C860.758 176.551 860.895 176.406 860.988 176.219C861.086 176.031 861.135 175.809 861.135 175.551ZM862.652 171.73C862.652 172.164 862.537 172.549 862.307 172.885C862.076 173.217 861.756 173.477 861.346 173.664C860.939 173.852 860.475 173.945 859.951 173.945C859.424 173.945 858.955 173.852 858.545 173.664C858.135 173.477 857.814 173.217 857.584 172.885C857.354 172.549 857.238 172.164 857.238 171.73C857.238 171.215 857.354 170.781 857.584 170.43C857.818 170.074 858.139 169.805 858.545 169.621C858.955 169.438 859.42 169.346 859.939 169.346C860.467 169.346 860.934 169.438 861.34 169.621C861.75 169.805 862.07 170.074 862.301 170.43C862.535 170.781 862.652 171.215 862.652 171.73ZM860.965 171.807C860.965 171.576 860.924 171.377 860.842 171.209C860.76 171.037 860.643 170.904 860.49 170.811C860.342 170.717 860.158 170.67 859.939 170.67C859.729 170.67 859.547 170.715 859.395 170.805C859.246 170.895 859.131 171.025 859.049 171.197C858.971 171.365 858.932 171.568 858.932 171.807C858.932 172.037 858.971 172.24 859.049 172.416C859.131 172.588 859.248 172.723 859.4 172.82C859.553 172.918 859.736 172.967 859.951 172.967C860.166 172.967 860.348 172.918 860.496 172.82C860.648 172.723 860.764 172.588 860.842 172.416C860.924 172.24 860.965 172.037 860.965 171.807Z" fill="#F45C59"/>
<rect x="864" y="80" width="1" height="83" fill="#18BB4B"/>
<g opacity="0.2">
<rect width="14" height="83" transform="translate(865 80)" fill="#18BB4B"/>
</g>
<rect x="879" y="80" width="1" height="83" fill="#18BB4B"/>
<path d="M869.699 169.451V178H868.012V171.396L865.984 172.041V170.711L869.518 169.451H869.699ZM876.83 169.381H877.076V170.729H876.977C876.531 170.729 876.135 170.795 875.787 170.928C875.439 171.061 875.145 171.25 874.902 171.496C874.664 171.738 874.48 172.031 874.352 172.375C874.227 172.719 874.164 173.104 874.164 173.529V174.947C874.164 175.252 874.193 175.521 874.252 175.756C874.314 175.986 874.402 176.18 874.516 176.336C874.633 176.488 874.77 176.604 874.926 176.682C875.082 176.756 875.258 176.793 875.453 176.793C875.637 176.793 875.803 176.754 875.951 176.676C876.104 176.598 876.232 176.488 876.338 176.348C876.447 176.203 876.529 176.035 876.584 175.844C876.643 175.648 876.672 175.436 876.672 175.205C876.672 174.975 876.643 174.762 876.584 174.566C876.529 174.371 876.447 174.203 876.338 174.062C876.229 173.918 876.096 173.807 875.939 173.729C875.783 173.65 875.607 173.611 875.412 173.611C875.146 173.611 874.912 173.674 874.709 173.799C874.51 173.92 874.354 174.076 874.24 174.268C874.127 174.459 874.066 174.66 874.059 174.871L873.549 174.543C873.561 174.242 873.623 173.957 873.736 173.688C873.854 173.418 874.014 173.18 874.217 172.973C874.424 172.762 874.672 172.598 874.961 172.48C875.25 172.359 875.576 172.299 875.939 172.299C876.338 172.299 876.688 172.375 876.988 172.527C877.293 172.68 877.547 172.889 877.75 173.154C877.953 173.42 878.105 173.727 878.207 174.074C878.309 174.422 878.359 174.793 878.359 175.188C878.359 175.602 878.291 175.986 878.154 176.342C878.021 176.697 877.828 177.008 877.574 177.273C877.324 177.539 877.023 177.746 876.672 177.895C876.32 178.043 875.926 178.117 875.488 178.117C875.035 178.117 874.623 178.035 874.252 177.871C873.885 177.703 873.568 177.469 873.303 177.168C873.037 176.867 872.832 176.51 872.688 176.096C872.547 175.682 872.477 175.229 872.477 174.736V174.08C872.477 173.393 872.576 172.764 872.775 172.193C872.979 171.619 873.27 171.123 873.648 170.705C874.027 170.283 874.484 169.957 875.02 169.727C875.555 169.496 876.158 169.381 876.83 169.381Z" fill="#18BB4B"/>
<rect x="1210" y="80" width="1" height="83" fill="#18BB4B"/>
<g opacity="0.2">
<rect width="14" height="83" transform="translate(1211 80)" fill="#18BB4B"/>
</g>
<rect x="1225" y="80" width="1" height="83" fill="#18BB4B"/>
<path d="M1215.7 169.451V178H1214.01V171.396L1211.98 172.041V170.711L1215.52 169.451H1215.7ZM1222.83 169.381H1223.08V170.729H1222.98C1222.53 170.729 1222.13 170.795 1221.79 170.928C1221.44 171.061 1221.14 171.25 1220.9 171.496C1220.66 171.738 1220.48 172.031 1220.35 172.375C1220.23 172.719 1220.16 173.104 1220.16 173.529V174.947C1220.16 175.252 1220.19 175.521 1220.25 175.756C1220.31 175.986 1220.4 176.18 1220.52 176.336C1220.63 176.488 1220.77 176.604 1220.93 176.682C1221.08 176.756 1221.26 176.793 1221.45 176.793C1221.64 176.793 1221.8 176.754 1221.95 176.676C1222.1 176.598 1222.23 176.488 1222.34 176.348C1222.45 176.203 1222.53 176.035 1222.58 175.844C1222.64 175.648 1222.67 175.436 1222.67 175.205C1222.67 174.975 1222.64 174.762 1222.58 174.566C1222.53 174.371 1222.45 174.203 1222.34 174.062C1222.23 173.918 1222.1 173.807 1221.94 173.729C1221.78 173.65 1221.61 173.611 1221.41 173.611C1221.15 173.611 1220.91 173.674 1220.71 173.799C1220.51 173.92 1220.35 174.076 1220.24 174.268C1220.13 174.459 1220.07 174.66 1220.06 174.871L1219.55 174.543C1219.56 174.242 1219.62 173.957 1219.74 173.688C1219.85 173.418 1220.01 173.18 1220.22 172.973C1220.42 172.762 1220.67 172.598 1220.96 172.48C1221.25 172.359 1221.58 172.299 1221.94 172.299C1222.34 172.299 1222.69 172.375 1222.99 172.527C1223.29 172.68 1223.55 172.889 1223.75 173.154C1223.95 173.42 1224.11 173.727 1224.21 174.074C1224.31 174.422 1224.36 174.793 1224.36 175.188C1224.36 175.602 1224.29 175.986 1224.15 176.342C1224.02 176.697 1223.83 177.008 1223.57 177.273C1223.32 177.539 1223.02 177.746 1222.67 177.895C1222.32 178.043 1221.93 178.117 1221.49 178.117C1221.04 178.117 1220.62 178.035 1220.25 177.871C1219.88 177.703 1219.57 177.469 1219.3 177.168C1219.04 176.867 1218.83 176.51 1218.69 176.096C1218.55 175.682 1218.48 175.229 1218.48 174.736V174.08C1218.48 173.393 1218.58 172.764 1218.78 172.193C1218.98 171.619 1219.27 171.123 1219.65 170.705C1220.03 170.283 1220.48 169.957 1221.02 169.727C1221.55 169.496 1222.16 169.381 1222.83 169.381Z" fill="#18BB4B"/>
<rect x="1226" y="80" width="1" height="83" fill="#F45C59"/>
<g opacity="0.2">
<rect width="6" height="83" transform="translate(1227 80)" fill="#F45C59"/>
</g>
<rect x="1233" y="80" width="1" height="83" fill="#F45C59"/>
<path d="M1232.83 175.662C1232.83 176.197 1232.71 176.648 1232.46 177.016C1232.21 177.379 1231.87 177.654 1231.43 177.842C1230.99 178.025 1230.5 178.117 1229.95 178.117C1229.4 178.117 1228.91 178.025 1228.47 177.842C1228.03 177.654 1227.69 177.379 1227.43 177.016C1227.18 176.648 1227.05 176.197 1227.05 175.662C1227.05 175.303 1227.12 174.979 1227.27 174.689C1227.41 174.396 1227.61 174.146 1227.87 173.939C1228.13 173.729 1228.44 173.568 1228.79 173.459C1229.14 173.346 1229.53 173.289 1229.94 173.289C1230.49 173.289 1230.99 173.387 1231.43 173.582C1231.87 173.777 1232.21 174.053 1232.46 174.408C1232.71 174.764 1232.83 175.182 1232.83 175.662ZM1231.13 175.551C1231.13 175.289 1231.08 175.064 1230.98 174.877C1230.88 174.686 1230.75 174.539 1230.57 174.438C1230.39 174.336 1230.18 174.285 1229.94 174.285C1229.7 174.285 1229.49 174.336 1229.31 174.438C1229.13 174.539 1228.99 174.686 1228.89 174.877C1228.79 175.064 1228.74 175.289 1228.74 175.551C1228.74 175.809 1228.79 176.031 1228.89 176.219C1228.99 176.406 1229.13 176.551 1229.31 176.652C1229.5 176.75 1229.71 176.799 1229.95 176.799C1230.19 176.799 1230.4 176.75 1230.58 176.652C1230.76 176.551 1230.89 176.406 1230.99 176.219C1231.09 176.031 1231.13 175.809 1231.13 175.551ZM1232.65 171.73C1232.65 172.164 1232.54 172.549 1232.31 172.885C1232.08 173.217 1231.76 173.477 1231.35 173.664C1230.94 173.852 1230.47 173.945 1229.95 173.945C1229.42 173.945 1228.96 173.852 1228.54 173.664C1228.13 173.477 1227.81 173.217 1227.58 172.885C1227.35 172.549 1227.24 172.164 1227.24 171.73C1227.24 171.215 1227.35 170.781 1227.58 170.43C1227.82 170.074 1228.14 169.805 1228.54 169.621C1228.96 169.438 1229.42 169.346 1229.94 169.346C1230.47 169.346 1230.93 169.438 1231.34 169.621C1231.75 169.805 1232.07 170.074 1232.3 170.43C1232.54 170.781 1232.65 171.215 1232.65 171.73ZM1230.96 171.807C1230.96 171.576 1230.92 171.377 1230.84 171.209C1230.76 171.037 1230.64 170.904 1230.49 170.811C1230.34 170.717 1230.16 170.67 1229.94 170.67C1229.73 170.67 1229.55 170.715 1229.39 170.805C1229.25 170.895 1229.13 171.025 1229.05 171.197C1228.97 171.365 1228.93 171.568 1228.93 171.807C1228.93 172.037 1228.97 172.24 1229.05 172.416C1229.13 172.588 1229.25 172.723 1229.4 172.82C1229.55 172.918 1229.74 172.967 1229.95 172.967C1230.17 172.967 1230.35 172.918 1230.5 172.82C1230.65 172.723 1230.76 172.588 1230.84 172.416C1230.92 172.24 1230.96 172.037 1230.96 171.807Z" fill="#F45C59"/>
</svg>
