<svg width="1280" height="148" viewBox="0 0 1280 148" fill="none" xmlns="http://www.w3.org/2000/svg">
<rect x="0.5" y="0.5" width="1279" height="147" rx="15.5" fill="white"/>
<rect x="40.5" y="68.5" width="219" height="39" rx="3.5" fill="white"/>
<path d="M73.6967 96.3984L68.4609 91.1641C69.594 89.7773 70.2192 88.0312 70.2192 86.125C70.2192 81.6367 66.5803 78 62.092 78C57.6037 78 54 81.6379 54 86.125C54 90.6121 57.6385 94.25 62.092 94.25C63.9984 94.25 65.7473 93.5895 67.1324 92.4906L72.3682 97.725C72.587 97.9102 72.8293 98 73.0676 98C73.306 98 73.5474 97.9084 73.7307 97.7254C74.0952 97.3594 74.0952 96.7656 73.6967 96.3984ZM55.8755 86.125C55.8755 82.6789 58.6802 79.875 62.1272 79.875C65.5742 79.875 68.3789 82.6789 68.3789 86.125C68.3789 89.5711 65.5742 92.375 62.1272 92.375C58.6802 92.375 55.8755 89.5703 55.8755 86.125Z" fill="#737373"/>
<path d="M90.9214 90.3047C90.9214 90.0557 90.8823 89.8359 90.8042 89.6455C90.731 89.4502 90.5991 89.2744 90.4087 89.1182C90.2231 88.9619 89.9644 88.813 89.6323 88.6714C89.3052 88.5298 88.8901 88.3857 88.3872 88.2393C87.8599 88.083 87.3838 87.9097 86.959 87.7192C86.5342 87.5239 86.1704 87.3018 85.8677 87.0527C85.5649 86.8037 85.333 86.5181 85.1719 86.1958C85.0107 85.8735 84.9302 85.5049 84.9302 85.0898C84.9302 84.6748 85.0156 84.2915 85.1865 83.9399C85.3574 83.5884 85.6016 83.2832 85.9189 83.0244C86.2412 82.7607 86.6245 82.5557 87.0688 82.4092C87.5132 82.2627 88.0088 82.1895 88.5557 82.1895C89.3564 82.1895 90.0352 82.3433 90.5918 82.6509C91.1533 82.9536 91.5806 83.3516 91.8735 83.8447C92.1665 84.333 92.313 84.8555 92.313 85.4121H90.9067C90.9067 85.0117 90.8213 84.6577 90.6504 84.3501C90.4795 84.0376 90.2207 83.7935 89.874 83.6177C89.5273 83.437 89.0879 83.3467 88.5557 83.3467C88.0527 83.3467 87.6377 83.4224 87.3105 83.5737C86.9834 83.7251 86.7393 83.9302 86.5781 84.189C86.4219 84.4478 86.3438 84.7432 86.3438 85.0752C86.3438 85.2998 86.3901 85.5049 86.4829 85.6904C86.5806 85.8711 86.7295 86.0396 86.9297 86.1958C87.1348 86.3521 87.3936 86.4961 87.7061 86.6279C88.0234 86.7598 88.4019 86.8867 88.8413 87.0088C89.4468 87.1797 89.9692 87.3701 90.4087 87.5801C90.8481 87.79 91.2095 88.0269 91.4927 88.2905C91.7808 88.5493 91.9932 88.8447 92.1299 89.1768C92.2715 89.5039 92.3423 89.875 92.3423 90.29C92.3423 90.7246 92.2544 91.1177 92.0786 91.4692C91.9028 91.8208 91.6514 92.1211 91.3242 92.3701C90.9971 92.6191 90.604 92.812 90.145 92.9487C89.6909 93.0806 89.1831 93.1465 88.6216 93.1465C88.1284 93.1465 87.6426 93.0781 87.1641 92.9414C86.6904 92.8047 86.2583 92.5996 85.8677 92.3262C85.4819 92.0527 85.1719 91.7158 84.9375 91.3154C84.708 90.9102 84.5933 90.4414 84.5933 89.9092H85.9995C85.9995 90.2754 86.0703 90.5903 86.2119 90.854C86.3535 91.1128 86.5464 91.3276 86.7905 91.4985C87.0396 91.6694 87.3203 91.7964 87.6328 91.8794C87.9502 91.9575 88.2798 91.9966 88.6216 91.9966C89.1147 91.9966 89.5322 91.9282 89.874 91.7915C90.2158 91.6548 90.4746 91.4595 90.6504 91.2056C90.8311 90.9517 90.9214 90.6514 90.9214 90.3047ZM97.2275 93.1465C96.6758 93.1465 96.1753 93.0537 95.7261 92.8682C95.2817 92.6777 94.8984 92.4116 94.5762 92.0698C94.2588 91.728 94.0146 91.3228 93.8438 90.854C93.6729 90.3853 93.5874 89.8726 93.5874 89.3159V89.0083C93.5874 88.3638 93.6826 87.79 93.873 87.2871C94.0635 86.7793 94.3223 86.3496 94.6494 85.998C94.9766 85.6465 95.3477 85.3804 95.7627 85.1997C96.1777 85.019 96.6074 84.9287 97.0518 84.9287C97.6182 84.9287 98.1064 85.0264 98.5166 85.2217C98.9316 85.417 99.271 85.6904 99.5347 86.042C99.7983 86.3887 99.9937 86.7988 100.121 87.2725C100.248 87.7412 100.311 88.2539 100.311 88.8105V89.4185H94.3931V88.3125H98.9561V88.21C98.9365 87.8584 98.8633 87.5166 98.7363 87.1846C98.6143 86.8525 98.4189 86.5791 98.1504 86.3643C97.8818 86.1494 97.5156 86.042 97.0518 86.042C96.7441 86.042 96.4609 86.1079 96.2021 86.2397C95.9434 86.3667 95.7212 86.5571 95.5356 86.811C95.3501 87.0649 95.2061 87.375 95.1035 87.7412C95.001 88.1074 94.9497 88.5298 94.9497 89.0083V89.3159C94.9497 89.6919 95.001 90.0459 95.1035 90.3779C95.2109 90.7051 95.3647 90.9932 95.5649 91.2422C95.77 91.4912 96.0166 91.6865 96.3047 91.8281C96.5977 91.9697 96.9297 92.0405 97.3008 92.0405C97.7793 92.0405 98.1846 91.9429 98.5166 91.7476C98.8486 91.5522 99.1392 91.291 99.3882 90.9639L100.208 91.6157C100.038 91.8745 99.8203 92.1211 99.5566 92.3555C99.293 92.5898 98.9683 92.7803 98.5825 92.9268C98.2017 93.0732 97.75 93.1465 97.2275 93.1465ZM106.566 91.645V87.5654C106.566 87.2529 106.502 86.9819 106.375 86.7524C106.253 86.5181 106.068 86.3374 105.819 86.2104C105.57 86.0835 105.262 86.02 104.896 86.02C104.554 86.02 104.254 86.0786 103.995 86.1958C103.741 86.313 103.541 86.4668 103.395 86.6572C103.253 86.8477 103.182 87.0527 103.182 87.2725H101.827C101.827 86.9893 101.9 86.7085 102.047 86.4302C102.193 86.1519 102.403 85.9004 102.677 85.6758C102.955 85.4463 103.287 85.2656 103.673 85.1338C104.063 84.9971 104.498 84.9287 104.977 84.9287C105.553 84.9287 106.061 85.0264 106.5 85.2217C106.944 85.417 107.291 85.7124 107.54 86.1079C107.794 86.4985 107.921 86.9893 107.921 87.5801V91.2715C107.921 91.5352 107.943 91.8159 107.987 92.1138C108.036 92.4116 108.106 92.668 108.199 92.8828V93H106.786C106.717 92.8438 106.664 92.6362 106.625 92.3774C106.585 92.1138 106.566 91.8696 106.566 91.645ZM106.8 88.1953L106.815 89.1475H105.445C105.06 89.1475 104.715 89.1792 104.413 89.2427C104.11 89.3013 103.856 89.3916 103.651 89.5137C103.446 89.6357 103.29 89.7896 103.182 89.9751C103.075 90.1558 103.021 90.3682 103.021 90.6123C103.021 90.8613 103.077 91.0884 103.189 91.2935C103.302 91.4985 103.47 91.6621 103.695 91.7842C103.924 91.9014 104.205 91.96 104.537 91.96C104.952 91.96 105.318 91.8721 105.636 91.6963C105.953 91.5205 106.205 91.3057 106.39 91.0518C106.581 90.7979 106.683 90.5513 106.698 90.312L107.276 90.9639C107.242 91.1689 107.149 91.396 106.998 91.645C106.847 91.894 106.644 92.1333 106.39 92.3628C106.141 92.5874 105.843 92.7754 105.497 92.9268C105.155 93.0732 104.769 93.1465 104.339 93.1465C103.802 93.1465 103.331 93.0415 102.926 92.8315C102.525 92.6216 102.213 92.3408 101.988 91.9893C101.769 91.6328 101.659 91.2349 101.659 90.7954C101.659 90.3706 101.742 89.9971 101.908 89.6748C102.074 89.3477 102.313 89.0767 102.625 88.8618C102.938 88.6421 103.314 88.4761 103.753 88.3638C104.193 88.2515 104.684 88.1953 105.226 88.1953H106.8ZM111.407 86.3203V93H110.052V85.0752H111.371L111.407 86.3203ZM113.883 85.0312L113.875 86.291C113.763 86.2666 113.656 86.252 113.553 86.2471C113.456 86.2373 113.343 86.2324 113.216 86.2324C112.904 86.2324 112.628 86.2812 112.389 86.3789C112.149 86.4766 111.947 86.6133 111.781 86.7891C111.615 86.9648 111.483 87.1748 111.385 87.4189C111.292 87.6582 111.231 87.9219 111.202 88.21L110.821 88.4297C110.821 87.9512 110.868 87.502 110.96 87.082C111.058 86.6621 111.207 86.291 111.407 85.9688C111.607 85.6416 111.861 85.3877 112.169 85.207C112.481 85.0215 112.853 84.9287 113.282 84.9287C113.38 84.9287 113.492 84.9409 113.619 84.9653C113.746 84.9849 113.834 85.0068 113.883 85.0312ZM118.16 92.0332C118.482 92.0332 118.78 91.9673 119.054 91.8354C119.327 91.7036 119.552 91.5229 119.728 91.2935C119.903 91.0591 120.003 90.793 120.028 90.4951H121.317C121.292 90.9639 121.134 91.4009 120.841 91.8062C120.553 92.2065 120.174 92.5312 119.706 92.7803C119.237 93.0244 118.722 93.1465 118.16 93.1465C117.564 93.1465 117.044 93.0415 116.6 92.8315C116.161 92.6216 115.794 92.3335 115.501 91.9673C115.213 91.6011 114.996 91.1812 114.85 90.7075C114.708 90.229 114.637 89.7236 114.637 89.1914V88.8838C114.637 88.3516 114.708 87.8486 114.85 87.375C114.996 86.8965 115.213 86.4741 115.501 86.1079C115.794 85.7417 116.161 85.4536 116.6 85.2437C117.044 85.0337 117.564 84.9287 118.16 84.9287C118.78 84.9287 119.322 85.0557 119.786 85.3096C120.25 85.5586 120.614 85.9004 120.877 86.335C121.146 86.7646 121.292 87.2529 121.317 87.7998H120.028C120.003 87.4727 119.911 87.1772 119.75 86.9136C119.593 86.6499 119.378 86.4399 119.105 86.2837C118.836 86.1226 118.521 86.042 118.16 86.042C117.745 86.042 117.396 86.125 117.113 86.291C116.834 86.4521 116.612 86.6719 116.446 86.9502C116.285 87.2236 116.168 87.5288 116.095 87.8657C116.026 88.1978 115.992 88.5371 115.992 88.8838V89.1914C115.992 89.5381 116.026 89.8799 116.095 90.2168C116.163 90.5537 116.278 90.8589 116.439 91.1323C116.605 91.4058 116.827 91.6255 117.105 91.7915C117.389 91.9526 117.74 92.0332 118.16 92.0332ZM124.195 81.75V93H122.84V81.75H124.195ZM123.873 88.7373L123.309 88.7153C123.314 88.1733 123.395 87.6729 123.551 87.2139C123.707 86.75 123.927 86.3472 124.21 86.0054C124.493 85.6636 124.83 85.3999 125.221 85.2144C125.616 85.0239 126.053 84.9287 126.532 84.9287C126.922 84.9287 127.274 84.9824 127.586 85.0898C127.899 85.1924 128.165 85.3584 128.385 85.5879C128.609 85.8174 128.78 86.1152 128.897 86.4814C129.015 86.8428 129.073 87.2847 129.073 87.8071V93H127.711V87.7925C127.711 87.3774 127.65 87.0454 127.528 86.7964C127.406 86.5425 127.228 86.3594 126.993 86.2471C126.759 86.1299 126.471 86.0713 126.129 86.0713C125.792 86.0713 125.484 86.1421 125.206 86.2837C124.933 86.4253 124.696 86.6206 124.496 86.8696C124.3 87.1187 124.146 87.4043 124.034 87.7266C123.927 88.0439 123.873 88.3809 123.873 88.7373Z" fill="#737373"/>
<rect x="40.5" y="68.5" width="219" height="39" rx="3.5" stroke="#AAAAAA"/>
<rect x="1020" y="68" width="220" height="40" rx="4" fill="#F2F2F2"/>
<path d="M1053.7 96.3984L1048.46 91.1641C1049.59 89.7773 1050.22 88.0312 1050.22 86.125C1050.22 81.6367 1046.58 78 1042.09 78C1037.6 78 1034 81.6379 1034 86.125C1034 90.6121 1037.64 94.25 1042.09 94.25C1044 94.25 1045.75 93.5895 1047.13 92.4906L1052.37 97.725C1052.59 97.9102 1052.83 98 1053.07 98C1053.31 98 1053.55 97.9084 1053.73 97.7254C1054.1 97.3594 1054.1 96.7656 1053.7 96.3984ZM1035.88 86.125C1035.88 82.6789 1038.68 79.875 1042.13 79.875C1045.57 79.875 1048.38 82.6789 1048.38 86.125C1048.38 89.5711 1045.57 92.375 1042.13 92.375C1038.68 92.375 1035.88 89.5703 1035.88 86.125Z" fill="#AAAAAA"/>
<path d="M1070.92 90.3047C1070.92 90.0557 1070.88 89.8359 1070.8 89.6455C1070.73 89.4502 1070.6 89.2744 1070.41 89.1182C1070.22 88.9619 1069.96 88.813 1069.63 88.6714C1069.31 88.5298 1068.89 88.3857 1068.39 88.2393C1067.86 88.083 1067.38 87.9097 1066.96 87.7192C1066.53 87.5239 1066.17 87.3018 1065.87 87.0527C1065.56 86.8037 1065.33 86.5181 1065.17 86.1958C1065.01 85.8735 1064.93 85.5049 1064.93 85.0898C1064.93 84.6748 1065.02 84.2915 1065.19 83.9399C1065.36 83.5884 1065.6 83.2832 1065.92 83.0244C1066.24 82.7607 1066.62 82.5557 1067.07 82.4092C1067.51 82.2627 1068.01 82.1895 1068.56 82.1895C1069.36 82.1895 1070.04 82.3433 1070.59 82.6509C1071.15 82.9536 1071.58 83.3516 1071.87 83.8447C1072.17 84.333 1072.31 84.8555 1072.31 85.4121H1070.91C1070.91 85.0117 1070.82 84.6577 1070.65 84.3501C1070.48 84.0376 1070.22 83.7935 1069.87 83.6177C1069.53 83.437 1069.09 83.3467 1068.56 83.3467C1068.05 83.3467 1067.64 83.4224 1067.31 83.5737C1066.98 83.7251 1066.74 83.9302 1066.58 84.189C1066.42 84.4478 1066.34 84.7432 1066.34 85.0752C1066.34 85.2998 1066.39 85.5049 1066.48 85.6904C1066.58 85.8711 1066.73 86.0396 1066.93 86.1958C1067.13 86.3521 1067.39 86.4961 1067.71 86.6279C1068.02 86.7598 1068.4 86.8867 1068.84 87.0088C1069.45 87.1797 1069.97 87.3701 1070.41 87.5801C1070.85 87.79 1071.21 88.0269 1071.49 88.2905C1071.78 88.5493 1071.99 88.8447 1072.13 89.1768C1072.27 89.5039 1072.34 89.875 1072.34 90.29C1072.34 90.7246 1072.25 91.1177 1072.08 91.4692C1071.9 91.8208 1071.65 92.1211 1071.32 92.3701C1071 92.6191 1070.6 92.812 1070.15 92.9487C1069.69 93.0806 1069.18 93.1465 1068.62 93.1465C1068.13 93.1465 1067.64 93.0781 1067.16 92.9414C1066.69 92.8047 1066.26 92.5996 1065.87 92.3262C1065.48 92.0527 1065.17 91.7158 1064.94 91.3154C1064.71 90.9102 1064.59 90.4414 1064.59 89.9092H1066C1066 90.2754 1066.07 90.5903 1066.21 90.854C1066.35 91.1128 1066.55 91.3276 1066.79 91.4985C1067.04 91.6694 1067.32 91.7964 1067.63 91.8794C1067.95 91.9575 1068.28 91.9966 1068.62 91.9966C1069.11 91.9966 1069.53 91.9282 1069.87 91.7915C1070.22 91.6548 1070.47 91.4595 1070.65 91.2056C1070.83 90.9517 1070.92 90.6514 1070.92 90.3047ZM1077.23 93.1465C1076.68 93.1465 1076.18 93.0537 1075.73 92.8682C1075.28 92.6777 1074.9 92.4116 1074.58 92.0698C1074.26 91.728 1074.01 91.3228 1073.84 90.854C1073.67 90.3853 1073.59 89.8726 1073.59 89.3159V89.0083C1073.59 88.3638 1073.68 87.79 1073.87 87.2871C1074.06 86.7793 1074.32 86.3496 1074.65 85.998C1074.98 85.6465 1075.35 85.3804 1075.76 85.1997C1076.18 85.019 1076.61 84.9287 1077.05 84.9287C1077.62 84.9287 1078.11 85.0264 1078.52 85.2217C1078.93 85.417 1079.27 85.6904 1079.53 86.042C1079.8 86.3887 1079.99 86.7988 1080.12 87.2725C1080.25 87.7412 1080.31 88.2539 1080.31 88.8105V89.4185H1074.39V88.3125H1078.96V88.21C1078.94 87.8584 1078.86 87.5166 1078.74 87.1846C1078.61 86.8525 1078.42 86.5791 1078.15 86.3643C1077.88 86.1494 1077.52 86.042 1077.05 86.042C1076.74 86.042 1076.46 86.1079 1076.2 86.2397C1075.94 86.3667 1075.72 86.5571 1075.54 86.811C1075.35 87.0649 1075.21 87.375 1075.1 87.7412C1075 88.1074 1074.95 88.5298 1074.95 89.0083V89.3159C1074.95 89.6919 1075 90.0459 1075.1 90.3779C1075.21 90.7051 1075.36 90.9932 1075.56 91.2422C1075.77 91.4912 1076.02 91.6865 1076.3 91.8281C1076.6 91.9697 1076.93 92.0405 1077.3 92.0405C1077.78 92.0405 1078.18 91.9429 1078.52 91.7476C1078.85 91.5522 1079.14 91.291 1079.39 90.9639L1080.21 91.6157C1080.04 91.8745 1079.82 92.1211 1079.56 92.3555C1079.29 92.5898 1078.97 92.7803 1078.58 92.9268C1078.2 93.0732 1077.75 93.1465 1077.23 93.1465ZM1086.57 91.645V87.5654C1086.57 87.2529 1086.5 86.9819 1086.38 86.7524C1086.25 86.5181 1086.07 86.3374 1085.82 86.2104C1085.57 86.0835 1085.26 86.02 1084.9 86.02C1084.55 86.02 1084.25 86.0786 1084 86.1958C1083.74 86.313 1083.54 86.4668 1083.39 86.6572C1083.25 86.8477 1083.18 87.0527 1083.18 87.2725H1081.83C1081.83 86.9893 1081.9 86.7085 1082.05 86.4302C1082.19 86.1519 1082.4 85.9004 1082.68 85.6758C1082.96 85.4463 1083.29 85.2656 1083.67 85.1338C1084.06 84.9971 1084.5 84.9287 1084.98 84.9287C1085.55 84.9287 1086.06 85.0264 1086.5 85.2217C1086.94 85.417 1087.29 85.7124 1087.54 86.1079C1087.79 86.4985 1087.92 86.9893 1087.92 87.5801V91.2715C1087.92 91.5352 1087.94 91.8159 1087.99 92.1138C1088.04 92.4116 1088.11 92.668 1088.2 92.8828V93H1086.79C1086.72 92.8438 1086.66 92.6362 1086.62 92.3774C1086.59 92.1138 1086.57 91.8696 1086.57 91.645ZM1086.8 88.1953L1086.81 89.1475H1085.45C1085.06 89.1475 1084.72 89.1792 1084.41 89.2427C1084.11 89.3013 1083.86 89.3916 1083.65 89.5137C1083.45 89.6357 1083.29 89.7896 1083.18 89.9751C1083.07 90.1558 1083.02 90.3682 1083.02 90.6123C1083.02 90.8613 1083.08 91.0884 1083.19 91.2935C1083.3 91.4985 1083.47 91.6621 1083.69 91.7842C1083.92 91.9014 1084.21 91.96 1084.54 91.96C1084.95 91.96 1085.32 91.8721 1085.64 91.6963C1085.95 91.5205 1086.2 91.3057 1086.39 91.0518C1086.58 90.7979 1086.68 90.5513 1086.7 90.312L1087.28 90.9639C1087.24 91.1689 1087.15 91.396 1087 91.645C1086.85 91.894 1086.64 92.1333 1086.39 92.3628C1086.14 92.5874 1085.84 92.7754 1085.5 92.9268C1085.15 93.0732 1084.77 93.1465 1084.34 93.1465C1083.8 93.1465 1083.33 93.0415 1082.93 92.8315C1082.53 92.6216 1082.21 92.3408 1081.99 91.9893C1081.77 91.6328 1081.66 91.2349 1081.66 90.7954C1081.66 90.3706 1081.74 89.9971 1081.91 89.6748C1082.07 89.3477 1082.31 89.0767 1082.63 88.8618C1082.94 88.6421 1083.31 88.4761 1083.75 88.3638C1084.19 88.2515 1084.68 88.1953 1085.23 88.1953H1086.8ZM1091.41 86.3203V93H1090.05V85.0752H1091.37L1091.41 86.3203ZM1093.88 85.0312L1093.88 86.291C1093.76 86.2666 1093.66 86.252 1093.55 86.2471C1093.46 86.2373 1093.34 86.2324 1093.22 86.2324C1092.9 86.2324 1092.63 86.2812 1092.39 86.3789C1092.15 86.4766 1091.95 86.6133 1091.78 86.7891C1091.61 86.9648 1091.48 87.1748 1091.39 87.4189C1091.29 87.6582 1091.23 87.9219 1091.2 88.21L1090.82 88.4297C1090.82 87.9512 1090.87 87.502 1090.96 87.082C1091.06 86.6621 1091.21 86.291 1091.41 85.9688C1091.61 85.6416 1091.86 85.3877 1092.17 85.207C1092.48 85.0215 1092.85 84.9287 1093.28 84.9287C1093.38 84.9287 1093.49 84.9409 1093.62 84.9653C1093.75 84.9849 1093.83 85.0068 1093.88 85.0312ZM1098.16 92.0332C1098.48 92.0332 1098.78 91.9673 1099.05 91.8354C1099.33 91.7036 1099.55 91.5229 1099.73 91.2935C1099.9 91.0591 1100 90.793 1100.03 90.4951H1101.32C1101.29 90.9639 1101.13 91.4009 1100.84 91.8062C1100.55 92.2065 1100.17 92.5312 1099.71 92.7803C1099.24 93.0244 1098.72 93.1465 1098.16 93.1465C1097.56 93.1465 1097.04 93.0415 1096.6 92.8315C1096.16 92.6216 1095.79 92.3335 1095.5 91.9673C1095.21 91.6011 1095 91.1812 1094.85 90.7075C1094.71 90.229 1094.64 89.7236 1094.64 89.1914V88.8838C1094.64 88.3516 1094.71 87.8486 1094.85 87.375C1095 86.8965 1095.21 86.4741 1095.5 86.1079C1095.79 85.7417 1096.16 85.4536 1096.6 85.2437C1097.04 85.0337 1097.56 84.9287 1098.16 84.9287C1098.78 84.9287 1099.32 85.0557 1099.79 85.3096C1100.25 85.5586 1100.61 85.9004 1100.88 86.335C1101.15 86.7646 1101.29 87.2529 1101.32 87.7998H1100.03C1100 87.4727 1099.91 87.1772 1099.75 86.9136C1099.59 86.6499 1099.38 86.4399 1099.1 86.2837C1098.84 86.1226 1098.52 86.042 1098.16 86.042C1097.75 86.042 1097.4 86.125 1097.11 86.291C1096.83 86.4521 1096.61 86.6719 1096.45 86.9502C1096.29 87.2236 1096.17 87.5288 1096.09 87.8657C1096.03 88.1978 1095.99 88.5371 1095.99 88.8838V89.1914C1095.99 89.5381 1096.03 89.8799 1096.09 90.2168C1096.16 90.5537 1096.28 90.8589 1096.44 91.1323C1096.6 91.4058 1096.83 91.6255 1097.11 91.7915C1097.39 91.9526 1097.74 92.0332 1098.16 92.0332ZM1104.2 81.75V93H1102.84V81.75H1104.2ZM1103.87 88.7373L1103.31 88.7153C1103.31 88.1733 1103.39 87.6729 1103.55 87.2139C1103.71 86.75 1103.93 86.3472 1104.21 86.0054C1104.49 85.6636 1104.83 85.3999 1105.22 85.2144C1105.62 85.0239 1106.05 84.9287 1106.53 84.9287C1106.92 84.9287 1107.27 84.9824 1107.59 85.0898C1107.9 85.1924 1108.17 85.3584 1108.38 85.5879C1108.61 85.8174 1108.78 86.1152 1108.9 86.4814C1109.01 86.8428 1109.07 87.2847 1109.07 87.8071V93H1107.71V87.7925C1107.71 87.3774 1107.65 87.0454 1107.53 86.7964C1107.41 86.5425 1107.23 86.3594 1106.99 86.2471C1106.76 86.1299 1106.47 86.0713 1106.13 86.0713C1105.79 86.0713 1105.48 86.1421 1105.21 86.2837C1104.93 86.4253 1104.7 86.6206 1104.5 86.8696C1104.3 87.1187 1104.15 87.4043 1104.03 87.7266C1103.93 88.0439 1103.87 88.3809 1103.87 88.7373Z" fill="#AAAAAA"/>
<rect x="285.5" y="68.5" width="219" height="39" rx="3.5" fill="white"/>
<path d="M318.697 96.3984L313.461 91.1641C314.594 89.7773 315.219 88.0312 315.219 86.125C315.219 81.6367 311.58 78 307.092 78C302.604 78 299 81.6379 299 86.125C299 90.6121 302.638 94.25 307.092 94.25C308.998 94.25 310.747 93.5895 312.132 92.4906L317.368 97.725C317.587 97.9102 317.829 98 318.068 98C318.306 98 318.547 97.9084 318.731 97.7254C319.095 97.3594 319.095 96.7656 318.697 96.3984ZM300.876 86.125C300.876 82.6789 303.68 79.875 307.127 79.875C310.574 79.875 313.379 82.6789 313.379 86.125C313.379 89.5711 310.574 92.375 307.127 92.375C303.68 92.375 300.876 89.5703 300.876 86.125Z" fill="#737373"/>
<path d="M335.921 90.3047C335.921 90.0557 335.882 89.8359 335.804 89.6455C335.731 89.4502 335.599 89.2744 335.409 89.1182C335.223 88.9619 334.964 88.813 334.632 88.6714C334.305 88.5298 333.89 88.3857 333.387 88.2393C332.86 88.083 332.384 87.9097 331.959 87.7192C331.534 87.5239 331.17 87.3018 330.868 87.0527C330.565 86.8037 330.333 86.5181 330.172 86.1958C330.011 85.8735 329.93 85.5049 329.93 85.0898C329.93 84.6748 330.016 84.2915 330.187 83.9399C330.357 83.5884 330.602 83.2832 330.919 83.0244C331.241 82.7607 331.625 82.5557 332.069 82.4092C332.513 82.2627 333.009 82.1895 333.556 82.1895C334.356 82.1895 335.035 82.3433 335.592 82.6509C336.153 82.9536 336.581 83.3516 336.874 83.8447C337.167 84.333 337.313 84.8555 337.313 85.4121H335.907C335.907 85.0117 335.821 84.6577 335.65 84.3501C335.479 84.0376 335.221 83.7935 334.874 83.6177C334.527 83.437 334.088 83.3467 333.556 83.3467C333.053 83.3467 332.638 83.4224 332.311 83.5737C331.983 83.7251 331.739 83.9302 331.578 84.189C331.422 84.4478 331.344 84.7432 331.344 85.0752C331.344 85.2998 331.39 85.5049 331.483 85.6904C331.581 85.8711 331.729 86.0396 331.93 86.1958C332.135 86.3521 332.394 86.4961 332.706 86.6279C333.023 86.7598 333.402 86.8867 333.841 87.0088C334.447 87.1797 334.969 87.3701 335.409 87.5801C335.848 87.79 336.209 88.0269 336.493 88.2905C336.781 88.5493 336.993 88.8447 337.13 89.1768C337.271 89.5039 337.342 89.875 337.342 90.29C337.342 90.7246 337.254 91.1177 337.079 91.4692C336.903 91.8208 336.651 92.1211 336.324 92.3701C335.997 92.6191 335.604 92.812 335.145 92.9487C334.691 93.0806 334.183 93.1465 333.622 93.1465C333.128 93.1465 332.643 93.0781 332.164 92.9414C331.69 92.8047 331.258 92.5996 330.868 92.3262C330.482 92.0527 330.172 91.7158 329.938 91.3154C329.708 90.9102 329.593 90.4414 329.593 89.9092H331C331 90.2754 331.07 90.5903 331.212 90.854C331.354 91.1128 331.546 91.3276 331.791 91.4985C332.04 91.6694 332.32 91.7964 332.633 91.8794C332.95 91.9575 333.28 91.9966 333.622 91.9966C334.115 91.9966 334.532 91.9282 334.874 91.7915C335.216 91.6548 335.475 91.4595 335.65 91.2056C335.831 90.9517 335.921 90.6514 335.921 90.3047ZM342.228 93.1465C341.676 93.1465 341.175 93.0537 340.726 92.8682C340.282 92.6777 339.898 92.4116 339.576 92.0698C339.259 91.728 339.015 91.3228 338.844 90.854C338.673 90.3853 338.587 89.8726 338.587 89.3159V89.0083C338.587 88.3638 338.683 87.79 338.873 87.2871C339.063 86.7793 339.322 86.3496 339.649 85.998C339.977 85.6465 340.348 85.3804 340.763 85.1997C341.178 85.019 341.607 84.9287 342.052 84.9287C342.618 84.9287 343.106 85.0264 343.517 85.2217C343.932 85.417 344.271 85.6904 344.535 86.042C344.798 86.3887 344.994 86.7988 345.121 87.2725C345.248 87.7412 345.311 88.2539 345.311 88.8105V89.4185H339.393V88.3125H343.956V88.21C343.937 87.8584 343.863 87.5166 343.736 87.1846C343.614 86.8525 343.419 86.5791 343.15 86.3643C342.882 86.1494 342.516 86.042 342.052 86.042C341.744 86.042 341.461 86.1079 341.202 86.2397C340.943 86.3667 340.721 86.5571 340.536 86.811C340.35 87.0649 340.206 87.375 340.104 87.7412C340.001 88.1074 339.95 88.5298 339.95 89.0083V89.3159C339.95 89.6919 340.001 90.0459 340.104 90.3779C340.211 90.7051 340.365 90.9932 340.565 91.2422C340.77 91.4912 341.017 91.6865 341.305 91.8281C341.598 91.9697 341.93 92.0405 342.301 92.0405C342.779 92.0405 343.185 91.9429 343.517 91.7476C343.849 91.5522 344.139 91.291 344.388 90.9639L345.208 91.6157C345.038 91.8745 344.82 92.1211 344.557 92.3555C344.293 92.5898 343.968 92.7803 343.583 92.9268C343.202 93.0732 342.75 93.1465 342.228 93.1465ZM351.566 91.645V87.5654C351.566 87.2529 351.502 86.9819 351.375 86.7524C351.253 86.5181 351.068 86.3374 350.819 86.2104C350.57 86.0835 350.262 86.02 349.896 86.02C349.554 86.02 349.254 86.0786 348.995 86.1958C348.741 86.313 348.541 86.4668 348.395 86.6572C348.253 86.8477 348.182 87.0527 348.182 87.2725H346.827C346.827 86.9893 346.9 86.7085 347.047 86.4302C347.193 86.1519 347.403 85.9004 347.677 85.6758C347.955 85.4463 348.287 85.2656 348.673 85.1338C349.063 84.9971 349.498 84.9287 349.977 84.9287C350.553 84.9287 351.061 85.0264 351.5 85.2217C351.944 85.417 352.291 85.7124 352.54 86.1079C352.794 86.4985 352.921 86.9893 352.921 87.5801V91.2715C352.921 91.5352 352.943 91.8159 352.987 92.1138C353.036 92.4116 353.106 92.668 353.199 92.8828V93H351.786C351.717 92.8438 351.664 92.6362 351.625 92.3774C351.585 92.1138 351.566 91.8696 351.566 91.645ZM351.8 88.1953L351.815 89.1475H350.445C350.06 89.1475 349.715 89.1792 349.413 89.2427C349.11 89.3013 348.856 89.3916 348.651 89.5137C348.446 89.6357 348.29 89.7896 348.182 89.9751C348.075 90.1558 348.021 90.3682 348.021 90.6123C348.021 90.8613 348.077 91.0884 348.189 91.2935C348.302 91.4985 348.47 91.6621 348.695 91.7842C348.924 91.9014 349.205 91.96 349.537 91.96C349.952 91.96 350.318 91.8721 350.636 91.6963C350.953 91.5205 351.205 91.3057 351.39 91.0518C351.581 90.7979 351.683 90.5513 351.698 90.312L352.276 90.9639C352.242 91.1689 352.149 91.396 351.998 91.645C351.847 91.894 351.644 92.1333 351.39 92.3628C351.141 92.5874 350.843 92.7754 350.497 92.9268C350.155 93.0732 349.769 93.1465 349.339 93.1465C348.802 93.1465 348.331 93.0415 347.926 92.8315C347.525 92.6216 347.213 92.3408 346.988 91.9893C346.769 91.6328 346.659 91.2349 346.659 90.7954C346.659 90.3706 346.742 89.9971 346.908 89.6748C347.074 89.3477 347.313 89.0767 347.625 88.8618C347.938 88.6421 348.314 88.4761 348.753 88.3638C349.193 88.2515 349.684 88.1953 350.226 88.1953H351.8ZM356.407 86.3203V93H355.052V85.0752H356.371L356.407 86.3203ZM358.883 85.0312L358.875 86.291C358.763 86.2666 358.656 86.252 358.553 86.2471C358.456 86.2373 358.343 86.2324 358.216 86.2324C357.904 86.2324 357.628 86.2812 357.389 86.3789C357.149 86.4766 356.947 86.6133 356.781 86.7891C356.615 86.9648 356.483 87.1748 356.385 87.4189C356.292 87.6582 356.231 87.9219 356.202 88.21L355.821 88.4297C355.821 87.9512 355.868 87.502 355.96 87.082C356.058 86.6621 356.207 86.291 356.407 85.9688C356.607 85.6416 356.861 85.3877 357.169 85.207C357.481 85.0215 357.853 84.9287 358.282 84.9287C358.38 84.9287 358.492 84.9409 358.619 84.9653C358.746 84.9849 358.834 85.0068 358.883 85.0312ZM363.16 92.0332C363.482 92.0332 363.78 91.9673 364.054 91.8354C364.327 91.7036 364.552 91.5229 364.728 91.2935C364.903 91.0591 365.003 90.793 365.028 90.4951H366.317C366.292 90.9639 366.134 91.4009 365.841 91.8062C365.553 92.2065 365.174 92.5312 364.706 92.7803C364.237 93.0244 363.722 93.1465 363.16 93.1465C362.564 93.1465 362.044 93.0415 361.6 92.8315C361.161 92.6216 360.794 92.3335 360.501 91.9673C360.213 91.6011 359.996 91.1812 359.85 90.7075C359.708 90.229 359.637 89.7236 359.637 89.1914V88.8838C359.637 88.3516 359.708 87.8486 359.85 87.375C359.996 86.8965 360.213 86.4741 360.501 86.1079C360.794 85.7417 361.161 85.4536 361.6 85.2437C362.044 85.0337 362.564 84.9287 363.16 84.9287C363.78 84.9287 364.322 85.0557 364.786 85.3096C365.25 85.5586 365.614 85.9004 365.877 86.335C366.146 86.7646 366.292 87.2529 366.317 87.7998H365.028C365.003 87.4727 364.911 87.1772 364.75 86.9136C364.593 86.6499 364.378 86.4399 364.105 86.2837C363.836 86.1226 363.521 86.042 363.16 86.042C362.745 86.042 362.396 86.125 362.113 86.291C361.834 86.4521 361.612 86.6719 361.446 86.9502C361.285 87.2236 361.168 87.5288 361.095 87.8657C361.026 88.1978 360.992 88.5371 360.992 88.8838V89.1914C360.992 89.5381 361.026 89.8799 361.095 90.2168C361.163 90.5537 361.278 90.8589 361.439 91.1323C361.605 91.4058 361.827 91.6255 362.105 91.7915C362.389 91.9526 362.74 92.0332 363.16 92.0332ZM369.195 81.75V93H367.84V81.75H369.195ZM368.873 88.7373L368.309 88.7153C368.314 88.1733 368.395 87.6729 368.551 87.2139C368.707 86.75 368.927 86.3472 369.21 86.0054C369.493 85.6636 369.83 85.3999 370.221 85.2144C370.616 85.0239 371.053 84.9287 371.532 84.9287C371.922 84.9287 372.274 84.9824 372.586 85.0898C372.899 85.1924 373.165 85.3584 373.385 85.5879C373.609 85.8174 373.78 86.1152 373.897 86.4814C374.015 86.8428 374.073 87.2847 374.073 87.8071V93H372.711V87.7925C372.711 87.3774 372.65 87.0454 372.528 86.7964C372.406 86.5425 372.228 86.3594 371.993 86.2471C371.759 86.1299 371.471 86.0713 371.129 86.0713C370.792 86.0713 370.484 86.1421 370.206 86.2837C369.933 86.4253 369.696 86.6206 369.496 86.8696C369.3 87.1187 369.146 87.4043 369.034 87.7266C368.927 88.0439 368.873 88.3809 368.873 88.7373Z" fill="#737373"/>
<rect x="285.5" y="68.5" width="219" height="39" rx="3.5" stroke="#0059FF"/>
<rect x="531" y="69" width="218" height="38" rx="3" fill="white"/>
<path d="M563.697 96.3984L558.461 91.1641C559.594 89.7773 560.219 88.0312 560.219 86.125C560.219 81.6367 556.58 78 552.092 78C547.604 78 544 81.6379 544 86.125C544 90.6121 547.638 94.25 552.092 94.25C553.998 94.25 555.747 93.5895 557.132 92.4906L562.368 97.725C562.587 97.9102 562.829 98 563.068 98C563.306 98 563.547 97.9084 563.731 97.7254C564.095 97.3594 564.095 96.7656 563.697 96.3984ZM545.876 86.125C545.876 82.6789 548.68 79.875 552.127 79.875C555.574 79.875 558.379 82.6789 558.379 86.125C558.379 89.5711 555.574 92.375 552.127 92.375C548.68 92.375 545.876 89.5703 545.876 86.125Z" fill="#737373"/>
<path d="M581.676 89.6089H583.082C583.009 90.2827 582.816 90.8857 582.503 91.418C582.191 91.9502 581.749 92.3726 581.178 92.6851C580.606 92.9927 579.894 93.1465 579.039 93.1465C578.414 93.1465 577.845 93.0293 577.333 92.7949C576.825 92.5605 576.388 92.2285 576.021 91.7988C575.655 91.3643 575.372 90.8442 575.172 90.2388C574.977 89.6284 574.879 88.9497 574.879 88.2026V87.1406C574.879 86.3936 574.977 85.7173 575.172 85.1118C575.372 84.5015 575.658 83.979 576.029 83.5444C576.405 83.1099 576.856 82.7754 577.384 82.541C577.911 82.3066 578.504 82.1895 579.164 82.1895C579.969 82.1895 580.65 82.3408 581.207 82.6436C581.764 82.9463 582.196 83.3662 582.503 83.9033C582.816 84.4355 583.009 85.0532 583.082 85.7563H581.676C581.607 85.2583 581.48 84.8311 581.295 84.4746C581.109 84.1133 580.846 83.835 580.504 83.6396C580.162 83.4443 579.715 83.3467 579.164 83.3467C578.69 83.3467 578.272 83.437 577.911 83.6177C577.555 83.7983 577.254 84.0547 577.01 84.3867C576.771 84.7188 576.59 85.1167 576.468 85.5806C576.346 86.0444 576.285 86.5596 576.285 87.126V88.2026C576.285 88.7251 576.339 89.2158 576.446 89.6748C576.559 90.1338 576.727 90.5366 576.952 90.8833C577.176 91.23 577.462 91.5034 577.809 91.7036C578.155 91.8989 578.565 91.9966 579.039 91.9966C579.64 91.9966 580.118 91.9014 580.475 91.7109C580.831 91.5205 581.1 91.2471 581.28 90.8906C581.466 90.5342 581.598 90.1069 581.676 89.6089ZM584.444 89.1255V88.957C584.444 88.3857 584.527 87.856 584.693 87.3677C584.859 86.8745 585.099 86.4473 585.411 86.0859C585.724 85.7197 586.102 85.4365 586.546 85.2363C586.991 85.0312 587.489 84.9287 588.041 84.9287C588.597 84.9287 589.098 85.0312 589.542 85.2363C589.991 85.4365 590.372 85.7197 590.685 86.0859C591.002 86.4473 591.244 86.8745 591.41 87.3677C591.576 87.856 591.659 88.3857 591.659 88.957V89.1255C591.659 89.6968 591.576 90.2266 591.41 90.7148C591.244 91.2031 591.002 91.6304 590.685 91.9966C590.372 92.3579 589.994 92.6411 589.549 92.8462C589.11 93.0464 588.612 93.1465 588.055 93.1465C587.499 93.1465 586.998 93.0464 586.554 92.8462C586.109 92.6411 585.729 92.3579 585.411 91.9966C585.099 91.6304 584.859 91.2031 584.693 90.7148C584.527 90.2266 584.444 89.6968 584.444 89.1255ZM585.799 88.957V89.1255C585.799 89.521 585.846 89.8945 585.938 90.2461C586.031 90.5928 586.17 90.9004 586.356 91.1689C586.546 91.4375 586.783 91.6499 587.066 91.8062C587.35 91.9575 587.679 92.0332 588.055 92.0332C588.426 92.0332 588.751 91.9575 589.029 91.8062C589.312 91.6499 589.547 91.4375 589.732 91.1689C589.918 90.9004 590.057 90.5928 590.15 90.2461C590.248 89.8945 590.296 89.521 590.296 89.1255V88.957C590.296 88.5664 590.248 88.1978 590.15 87.8511C590.057 87.4995 589.916 87.1895 589.725 86.9209C589.54 86.6475 589.305 86.4326 589.022 86.2764C588.744 86.1201 588.417 86.042 588.041 86.042C587.669 86.042 587.342 86.1201 587.059 86.2764C586.781 86.4326 586.546 86.6475 586.356 86.9209C586.17 87.1895 586.031 87.4995 585.938 87.8511C585.846 88.1978 585.799 88.5664 585.799 88.957ZM594.706 86.6499V93H593.343V85.0752H594.632L594.706 86.6499ZM594.427 88.7373L593.797 88.7153C593.802 88.1733 593.873 87.6729 594.01 87.2139C594.146 86.75 594.349 86.3472 594.618 86.0054C594.886 85.6636 595.221 85.3999 595.621 85.2144C596.021 85.0239 596.485 84.9287 597.013 84.9287C597.384 84.9287 597.726 84.9824 598.038 85.0898C598.351 85.1924 598.622 85.356 598.851 85.5806C599.081 85.8052 599.259 86.0933 599.386 86.4448C599.513 86.7964 599.576 87.2212 599.576 87.7192V93H598.221V87.7852C598.221 87.3701 598.15 87.0381 598.009 86.7891C597.872 86.54 597.677 86.3594 597.423 86.2471C597.169 86.1299 596.871 86.0713 596.529 86.0713C596.129 86.0713 595.794 86.1421 595.526 86.2837C595.257 86.4253 595.042 86.6206 594.881 86.8696C594.72 87.1187 594.603 87.4043 594.53 87.7266C594.461 88.0439 594.427 88.3809 594.427 88.7373ZM599.562 87.9902L598.653 88.2686C598.658 87.834 598.729 87.4165 598.866 87.0161C599.007 86.6157 599.21 86.2593 599.474 85.9468C599.742 85.6343 600.072 85.3877 600.462 85.207C600.853 85.0215 601.3 84.9287 601.803 84.9287C602.228 84.9287 602.604 84.9849 602.931 85.0972C603.263 85.2095 603.541 85.3828 603.766 85.6172C603.995 85.8467 604.168 86.1421 604.286 86.5034C604.403 86.8647 604.461 87.2944 604.461 87.7925V93H603.099V87.7778C603.099 87.3335 603.028 86.9893 602.887 86.7451C602.75 86.4961 602.555 86.3228 602.301 86.2251C602.052 86.1226 601.754 86.0713 601.407 86.0713C601.109 86.0713 600.846 86.1226 600.616 86.2251C600.387 86.3276 600.194 86.4692 600.038 86.6499C599.881 86.8257 599.762 87.0283 599.679 87.2578C599.601 87.4873 599.562 87.7314 599.562 87.9902ZM607.86 82.3359V94.9775H606.769V82.3359H607.86Z" fill="#1A1A1A"/>
<path fill-rule="evenodd" clip-rule="evenodd" d="M736 88C736 93.5228 731.523 98 726 98C720.477 98 716 93.5228 716 88C716 82.4772 720.477 78 726 78C731.523 78 736 82.4772 736 88ZM722.913 83.5871C722.547 83.221 721.953 83.221 721.587 83.5871C721.221 83.9532 721.221 84.5468 721.587 84.9129L724.674 88L721.587 91.0871C721.221 91.4532 721.221 92.0468 721.587 92.4129C721.953 92.779 722.547 92.779 722.913 92.4129L726 89.3258L729.087 92.4129C729.453 92.779 730.047 92.779 730.413 92.4129C730.779 92.0468 730.779 91.4532 730.413 91.0871L727.326 88L730.413 84.9129C730.779 84.5468 730.779 83.9532 730.413 83.5871C730.047 83.221 729.453 83.221 729.087 83.5871L726 86.6742L722.913 83.5871Z" fill="#AAAAAA"/>
<rect x="531" y="69" width="218" height="38" rx="3" stroke="#0059FF" stroke-width="2"/>
<path d="M43.6245 54H41.6504L41.6631 52.7368H43.6245C44.1958 52.7368 44.674 52.612 45.0591 52.3623C45.4484 52.1126 45.7404 51.755 45.9351 51.2896C46.134 50.8241 46.2334 50.2697 46.2334 49.6265V49.125C46.2334 48.6257 46.1763 48.1834 46.062 47.7983C45.952 47.4132 45.7869 47.0895 45.5669 46.8271C45.3511 46.5648 45.0845 46.3659 44.7671 46.2305C44.4539 46.0951 44.0921 46.0273 43.6816 46.0273H41.6123V44.7578H43.6816C44.2952 44.7578 44.856 44.8615 45.3638 45.0688C45.8716 45.272 46.3096 45.5661 46.6777 45.9512C47.0501 46.3363 47.3358 46.7975 47.5347 47.335C47.7336 47.8724 47.833 48.4733 47.833 49.1377V49.6265C47.833 50.2909 47.7336 50.8918 47.5347 51.4292C47.3358 51.9666 47.0501 52.4279 46.6777 52.813C46.3053 53.1938 45.861 53.488 45.3447 53.6953C44.8327 53.8984 44.2593 54 43.6245 54ZM42.5327 44.7578V54H40.9395V44.7578H42.5327ZM56.4819 52.7368V54H51.5752V52.7368H56.4819ZM52.0259 44.7578V54H50.4326V44.7578H52.0259ZM55.8408 48.6172V49.8613H51.5752V48.6172H55.8408ZM56.4502 44.7578V46.0273H51.5752V44.7578H56.4502ZM60.3765 44.7578V54H58.7832V44.7578H60.3765ZM64.147 48.8013V50.0645H59.9702V48.8013H64.147ZM64.6738 44.7578V46.0273H59.9702V44.7578H64.6738ZM69.4126 45.9893L66.6514 54H64.9819L68.4604 44.7578H69.5269L69.4126 45.9893ZM71.7231 54L68.9556 45.9893L68.835 44.7578H69.9077L73.3989 54H71.7231ZM71.5898 50.5723V51.8354H66.5625V50.5723H71.5898ZM80.5054 44.7578H82.0923V50.9341C82.0923 51.6366 81.9399 52.2248 81.6353 52.6987C81.3306 53.1727 80.9159 53.5303 80.3911 53.7715C79.8706 54.0085 79.2887 54.127 78.6455 54.127C77.9811 54.127 77.3887 54.0085 76.8682 53.7715C76.3477 53.5303 75.9372 53.1727 75.6367 52.6987C75.3405 52.2248 75.1924 51.6366 75.1924 50.9341V44.7578H76.7793V50.9341C76.7793 51.3784 76.8555 51.7445 77.0078 52.0322C77.1602 52.3158 77.376 52.5252 77.6553 52.6606C77.9346 52.7961 78.2646 52.8638 78.6455 52.8638C79.0264 52.8638 79.3543 52.7961 79.6294 52.6606C79.9087 52.5252 80.1245 52.3158 80.2769 52.0322C80.4292 51.7445 80.5054 51.3784 80.5054 50.9341V44.7578ZM90.6143 52.7368V54H85.9741V52.7368H90.6143ZM86.4185 44.7578V54H84.8252V44.7578H86.4185ZM95.061 44.7578V54H93.4805V44.7578H95.061ZM97.9619 44.7578V46.0273H90.605V44.7578H97.9619Z" fill="#737373"/>
<path d="M1023.62 54H1021.65L1021.66 52.7368H1023.62C1024.2 52.7368 1024.67 52.612 1025.06 52.3623C1025.45 52.1126 1025.74 51.755 1025.94 51.2896C1026.13 50.8241 1026.23 50.2697 1026.23 49.6265V49.125C1026.23 48.6257 1026.18 48.1834 1026.06 47.7983C1025.95 47.4132 1025.79 47.0895 1025.57 46.8271C1025.35 46.5648 1025.08 46.3659 1024.77 46.2305C1024.45 46.0951 1024.09 46.0273 1023.68 46.0273H1021.61V44.7578H1023.68C1024.3 44.7578 1024.86 44.8615 1025.36 45.0688C1025.87 45.272 1026.31 45.5661 1026.68 45.9512C1027.05 46.3363 1027.34 46.7975 1027.53 47.335C1027.73 47.8724 1027.83 48.4733 1027.83 49.1377V49.6265C1027.83 50.2909 1027.73 50.8918 1027.53 51.4292C1027.34 51.9666 1027.05 52.4279 1026.68 52.813C1026.31 53.1938 1025.86 53.488 1025.34 53.6953C1024.83 53.8984 1024.26 54 1023.62 54ZM1022.53 44.7578V54H1020.94V44.7578H1022.53ZM1032.13 44.7578V54H1030.54V44.7578H1032.13ZM1039.98 51.6196C1039.98 51.4292 1039.95 51.2599 1039.89 51.1118C1039.83 50.9637 1039.73 50.8283 1039.59 50.7056C1039.45 50.5828 1039.24 50.4644 1038.98 50.3501C1038.72 50.2316 1038.39 50.111 1037.99 49.9883C1037.55 49.8529 1037.14 49.7026 1036.77 49.5376C1036.4 49.3683 1036.08 49.1737 1035.81 48.9536C1035.53 48.7293 1035.32 48.4733 1035.17 48.1855C1035.01 47.8936 1034.94 47.5571 1034.94 47.1763C1034.94 46.7996 1035.01 46.4569 1035.17 46.1479C1035.33 45.839 1035.56 45.5724 1035.85 45.3481C1036.15 45.1196 1036.5 44.944 1036.9 44.8213C1037.3 44.6943 1037.74 44.6309 1038.23 44.6309C1038.92 44.6309 1039.51 44.7578 1040 45.0117C1040.5 45.2656 1040.88 45.6063 1041.15 46.0337C1041.42 46.4611 1041.56 46.9329 1041.56 47.4492H1039.98C1039.98 47.1445 1039.91 46.8758 1039.78 46.6431C1039.65 46.4061 1039.46 46.2199 1039.2 46.0845C1038.94 45.9491 1038.61 45.8813 1038.21 45.8813C1037.84 45.8813 1037.52 45.9385 1037.27 46.0527C1037.02 46.167 1036.84 46.3215 1036.71 46.5161C1036.59 46.7108 1036.53 46.9308 1036.53 47.1763C1036.53 47.3498 1036.57 47.5085 1036.65 47.6523C1036.73 47.792 1036.85 47.9232 1037.02 48.0459C1037.18 48.1644 1037.39 48.2765 1037.64 48.3823C1037.89 48.4881 1038.18 48.5897 1038.52 48.687C1039.03 48.8394 1039.48 49.0086 1039.86 49.1948C1040.24 49.3768 1040.56 49.5841 1040.81 49.8169C1041.07 50.0496 1041.26 50.3141 1041.39 50.6104C1041.51 50.9023 1041.58 51.2345 1041.58 51.6069C1041.58 51.9963 1041.5 52.3475 1041.34 52.6606C1041.18 52.9696 1040.96 53.234 1040.67 53.4541C1040.38 53.6699 1040.03 53.8371 1039.63 53.9556C1039.23 54.0698 1038.78 54.127 1038.28 54.127C1037.84 54.127 1037.4 54.0677 1036.97 53.9492C1036.54 53.8307 1036.15 53.6509 1035.8 53.4097C1035.45 53.1642 1035.17 52.8595 1034.96 52.4956C1034.75 52.1274 1034.65 51.6979 1034.65 51.207H1036.24C1036.24 51.5075 1036.29 51.7635 1036.4 51.9751C1036.5 52.1867 1036.65 52.3602 1036.83 52.4956C1037.02 52.6268 1037.24 52.7241 1037.48 52.7876C1037.73 52.8511 1038 52.8828 1038.28 52.8828C1038.65 52.8828 1038.97 52.8299 1039.21 52.7241C1039.47 52.6183 1039.66 52.4702 1039.79 52.2798C1039.91 52.0894 1039.98 51.8693 1039.98 51.6196ZM1047.58 45.9893L1044.82 54H1043.15L1046.63 44.7578H1047.7L1047.58 45.9893ZM1049.9 54L1047.13 45.9893L1047.01 44.7578H1048.08L1051.57 54H1049.9ZM1049.76 50.5723V51.8354H1044.73V50.5723H1049.76ZM1057.07 49.8232H1054.72L1054.7 48.6616H1056.76C1057.11 48.6616 1057.4 48.6108 1057.64 48.5093C1057.89 48.4035 1058.07 48.2533 1058.2 48.0586C1058.33 47.8597 1058.39 47.6206 1058.39 47.3413C1058.39 47.0324 1058.33 46.7806 1058.21 46.5859C1058.1 46.3913 1057.91 46.2495 1057.67 46.1606C1057.43 46.0718 1057.12 46.0273 1056.74 46.0273H1055.2V54H1053.61V44.7578H1056.74C1057.25 44.7578 1057.7 44.8065 1058.1 44.9038C1058.5 45.0011 1058.84 45.1535 1059.12 45.3608C1059.41 45.564 1059.62 45.8221 1059.76 46.1353C1059.91 46.4484 1059.98 46.8208 1059.98 47.2524C1059.98 47.6333 1059.89 47.9824 1059.71 48.2998C1059.53 48.613 1059.26 48.869 1058.91 49.0679C1058.55 49.2668 1058.11 49.3853 1057.58 49.4233L1057.07 49.8232ZM1057 54H1054.21L1054.93 52.7368H1057C1057.36 52.7368 1057.66 52.6776 1057.9 52.5591C1058.14 52.4364 1058.32 52.2692 1058.44 52.0576C1058.57 51.8418 1058.63 51.59 1058.63 51.3022C1058.63 51.0018 1058.57 50.7415 1058.47 50.5215C1058.36 50.2972 1058.19 50.1258 1057.97 50.0073C1057.74 49.8846 1057.44 49.8232 1057.07 49.8232H1055.28L1055.29 48.6616H1057.62L1057.99 49.0996C1058.49 49.1165 1058.91 49.2287 1059.24 49.436C1059.57 49.6434 1059.81 49.9121 1059.97 50.2422C1060.13 50.5723 1060.21 50.9277 1060.21 51.3086C1060.21 51.8968 1060.08 52.3898 1059.83 52.7876C1059.57 53.1854 1059.21 53.488 1058.73 53.6953C1058.25 53.8984 1057.67 54 1057 54ZM1068.61 52.7368V54H1063.97V52.7368H1068.61ZM1064.41 44.7578V54H1062.82V44.7578H1064.41ZM1076.89 52.7368V54H1071.98V52.7368H1076.89ZM1072.43 44.7578V54H1070.84V44.7578H1072.43ZM1076.25 48.6172V49.8613H1071.98V48.6172H1076.25ZM1076.86 44.7578V46.0273H1071.98V44.7578H1076.86ZM1081.88 54H1079.9L1079.91 52.7368H1081.88C1082.45 52.7368 1082.92 52.612 1083.31 52.3623C1083.7 52.1126 1083.99 51.755 1084.19 51.2896C1084.38 50.8241 1084.48 50.2697 1084.48 49.6265V49.125C1084.48 48.6257 1084.43 48.1834 1084.31 47.7983C1084.2 47.4132 1084.04 47.0895 1083.82 46.8271C1083.6 46.5648 1083.34 46.3659 1083.02 46.2305C1082.7 46.0951 1082.34 46.0273 1081.93 46.0273H1079.86V44.7578H1081.93C1082.55 44.7578 1083.11 44.8615 1083.61 45.0688C1084.12 45.272 1084.56 45.5661 1084.93 45.9512C1085.3 46.3363 1085.59 46.7975 1085.79 47.335C1085.98 47.8724 1086.08 48.4733 1086.08 49.1377V49.6265C1086.08 50.2909 1085.98 50.8918 1085.79 51.4292C1085.59 51.9666 1085.3 52.4279 1084.93 52.813C1084.56 53.1938 1084.11 53.488 1083.6 53.6953C1083.08 53.8984 1082.51 54 1081.88 54ZM1080.78 44.7578V54H1079.19V44.7578H1080.78Z" fill="#737373"/>
<path d="M292.046 48.6172V49.8804H287.139V48.6172H292.046ZM287.533 44.7578V54H285.939V44.7578H287.533ZM293.271 44.7578V54H291.684V44.7578H293.271ZM303.539 49.125V49.6328C303.539 50.3311 303.448 50.9574 303.266 51.5117C303.084 52.0661 302.823 52.5379 302.485 52.9272C302.151 53.3166 301.749 53.6149 301.279 53.8223C300.809 54.0254 300.289 54.127 299.717 54.127C299.15 54.127 298.632 54.0254 298.162 53.8223C297.697 53.6149 297.292 53.3166 296.95 52.9272C296.607 52.5379 296.34 52.0661 296.15 51.5117C295.964 50.9574 295.871 50.3311 295.871 49.6328V49.125C295.871 48.4268 295.964 47.8026 296.15 47.2524C296.336 46.6981 296.598 46.2262 296.937 45.8369C297.28 45.4434 297.684 45.145 298.149 44.9419C298.619 44.7345 299.138 44.6309 299.705 44.6309C300.276 44.6309 300.796 44.7345 301.266 44.9419C301.736 45.145 302.14 45.4434 302.479 45.8369C302.817 46.2262 303.077 46.6981 303.259 47.2524C303.445 47.8026 303.539 48.4268 303.539 49.125ZM301.945 49.6328V49.1123C301.945 48.596 301.895 48.1411 301.793 47.7476C301.696 47.3498 301.55 47.0176 301.355 46.751C301.165 46.4801 300.93 46.277 300.65 46.1416C300.371 46.002 300.056 45.9321 299.705 45.9321C299.353 45.9321 299.04 46.002 298.765 46.1416C298.49 46.277 298.255 46.4801 298.061 46.751C297.87 47.0176 297.724 47.3498 297.623 47.7476C297.521 48.1411 297.47 48.596 297.47 49.1123V49.6328C297.47 50.1491 297.521 50.6061 297.623 51.0039C297.724 51.4017 297.872 51.7381 298.067 52.0132C298.266 52.284 298.503 52.4893 298.778 52.6289C299.053 52.7643 299.366 52.832 299.717 52.832C300.073 52.832 300.388 52.7643 300.663 52.6289C300.938 52.4893 301.171 52.284 301.361 52.0132C301.552 51.7381 301.696 51.4017 301.793 51.0039C301.895 50.6061 301.945 50.1491 301.945 49.6328ZM309.16 52.3115L311.591 44.7578H313.349L310.036 54H308.849L309.16 52.3115ZM306.913 44.7578L309.325 52.3115L309.655 54H308.461L305.161 44.7578H306.913ZM321.433 52.7368V54H316.526V52.7368H321.433ZM316.977 44.7578V54H315.384V44.7578H316.977ZM320.792 48.6172V49.8613H316.526V48.6172H320.792ZM321.401 44.7578V46.0273H316.526V44.7578H321.401ZM323.734 44.7578H327.003C327.706 44.7578 328.305 44.8636 328.8 45.0752C329.295 45.2868 329.674 45.5999 329.936 46.0146C330.203 46.4251 330.336 46.9329 330.336 47.5381C330.336 47.9993 330.251 48.4056 330.082 48.7568C329.913 49.1081 329.674 49.4043 329.365 49.6455C329.056 49.8825 328.688 50.0666 328.26 50.1978L327.778 50.4326H324.839L324.826 49.1694H327.029C327.41 49.1694 327.727 49.1017 327.981 48.9663C328.235 48.8309 328.425 48.6468 328.552 48.4141C328.683 48.1771 328.749 47.9105 328.749 47.6143C328.749 47.2926 328.686 47.0133 328.559 46.7764C328.436 46.5352 328.245 46.3511 327.987 46.2241C327.729 46.0929 327.401 46.0273 327.003 46.0273H325.328V54H323.734V44.7578ZM329.009 54L326.838 49.8486L328.508 49.8423L330.71 53.9175V54H329.009Z" fill="#737373"/>
<path d="M532.533 44.7578V54H530.939V44.7578H532.533ZM536.303 48.8013V50.0645H532.126V48.8013H536.303ZM536.83 44.7578V46.0273H532.126V44.7578H536.83ZM546.469 49.125V49.6328C546.469 50.3311 546.378 50.9574 546.196 51.5117C546.014 52.0661 545.754 52.5379 545.416 52.9272C545.081 53.3166 544.679 53.6149 544.209 53.8223C543.74 54.0254 543.219 54.127 542.648 54.127C542.081 54.127 541.562 54.0254 541.093 53.8223C540.627 53.6149 540.223 53.3166 539.88 52.9272C539.538 52.5379 539.271 52.0661 539.081 51.5117C538.894 50.9574 538.801 50.3311 538.801 49.6328V49.125C538.801 48.4268 538.894 47.8026 539.081 47.2524C539.267 46.6981 539.529 46.2262 539.868 45.8369C540.21 45.4434 540.615 45.145 541.08 44.9419C541.55 44.7345 542.068 44.6309 542.635 44.6309C543.207 44.6309 543.727 44.7345 544.197 44.9419C544.667 45.145 545.071 45.4434 545.409 45.8369C545.748 46.2262 546.008 46.6981 546.19 47.2524C546.376 47.8026 546.469 48.4268 546.469 49.125ZM544.876 49.6328V49.1123C544.876 48.596 544.825 48.1411 544.724 47.7476C544.626 47.3498 544.48 47.0176 544.286 46.751C544.095 46.4801 543.86 46.277 543.581 46.1416C543.302 46.002 542.986 45.9321 542.635 45.9321C542.284 45.9321 541.971 46.002 541.696 46.1416C541.421 46.277 541.186 46.4801 540.991 46.751C540.801 47.0176 540.655 47.3498 540.553 47.7476C540.452 48.1411 540.401 48.596 540.401 49.1123V49.6328C540.401 50.1491 540.452 50.6061 540.553 51.0039C540.655 51.4017 540.803 51.7381 540.998 52.0132C541.196 52.284 541.433 52.4893 541.708 52.6289C541.984 52.7643 542.297 52.832 542.648 52.832C543.003 52.832 543.319 52.7643 543.594 52.6289C543.869 52.4893 544.102 52.284 544.292 52.0132C544.482 51.7381 544.626 51.4017 544.724 51.0039C544.825 50.6061 544.876 50.1491 544.876 49.6328ZM554.521 50.9912H556.108C556.058 51.5964 555.888 52.1359 555.601 52.6099C555.313 53.0796 554.909 53.4499 554.388 53.7207C553.868 53.9915 553.235 54.127 552.49 54.127C551.919 54.127 551.405 54.0254 550.948 53.8223C550.491 53.6149 550.099 53.3229 549.773 52.9463C549.448 52.5654 549.198 52.1063 549.024 51.5688C548.855 51.0314 548.771 50.4305 548.771 49.7661V48.998C548.771 48.3337 548.857 47.7327 549.031 47.1953C549.208 46.6579 549.462 46.1987 549.792 45.8179C550.123 45.4328 550.518 45.1387 550.979 44.9355C551.445 44.7324 551.968 44.6309 552.547 44.6309C553.284 44.6309 553.906 44.7663 554.414 45.0371C554.921 45.3079 555.315 45.6825 555.594 46.1606C555.878 46.6388 556.051 47.1868 556.115 47.8047H554.528C554.486 47.4069 554.392 47.0662 554.249 46.7827C554.109 46.4992 553.902 46.2834 553.626 46.1353C553.351 45.9829 552.992 45.9067 552.547 45.9067C552.183 45.9067 551.866 45.9744 551.595 46.1099C551.324 46.2453 551.098 46.4442 550.916 46.7065C550.734 46.9689 550.597 47.2926 550.503 47.6777C550.415 48.0586 550.37 48.4945 550.37 48.9854V49.7661C550.37 50.2316 550.41 50.6548 550.491 51.0356C550.575 51.4123 550.702 51.736 550.872 52.0068C551.045 52.2777 551.265 52.4871 551.532 52.6353C551.798 52.7834 552.118 52.8574 552.49 52.8574C552.943 52.8574 553.309 52.7855 553.588 52.6416C553.872 52.4977 554.086 52.2882 554.229 52.0132C554.378 51.7339 554.475 51.3932 554.521 50.9912ZM563.742 44.7578H565.329V50.9341C565.329 51.6366 565.176 52.2248 564.872 52.6987C564.567 53.1727 564.152 53.5303 563.627 53.7715C563.107 54.0085 562.525 54.127 561.882 54.127C561.217 54.127 560.625 54.0085 560.104 53.7715C559.584 53.5303 559.174 53.1727 558.873 52.6987C558.577 52.2248 558.429 51.6366 558.429 50.9341V44.7578H560.016V50.9341C560.016 51.3784 560.092 51.7445 560.244 52.0322C560.396 52.3158 560.612 52.5252 560.892 52.6606C561.171 52.7961 561.501 52.8638 561.882 52.8638C562.263 52.8638 562.591 52.7961 562.866 52.6606C563.145 52.5252 563.361 52.3158 563.513 52.0322C563.666 51.7445 563.742 51.3784 563.742 50.9341V44.7578ZM572.924 51.6196C572.924 51.4292 572.894 51.2599 572.835 51.1118C572.78 50.9637 572.681 50.8283 572.537 50.7056C572.393 50.5828 572.19 50.4644 571.927 50.3501C571.669 50.2316 571.339 50.111 570.937 49.9883C570.497 49.8529 570.091 49.7026 569.718 49.5376C569.35 49.3683 569.028 49.1737 568.753 48.9536C568.478 48.7293 568.265 48.4733 568.112 48.1855C567.96 47.8936 567.884 47.5571 567.884 47.1763C567.884 46.7996 567.962 46.4569 568.119 46.1479C568.279 45.839 568.506 45.5724 568.798 45.3481C569.094 45.1196 569.443 44.944 569.845 44.8213C570.247 44.6943 570.692 44.6309 571.178 44.6309C571.864 44.6309 572.454 44.7578 572.949 45.0117C573.449 45.2656 573.832 45.6063 574.098 46.0337C574.369 46.4611 574.504 46.9329 574.504 47.4492H572.924C572.924 47.1445 572.858 46.8758 572.727 46.6431C572.6 46.4061 572.405 46.2199 572.143 46.0845C571.885 45.9491 571.557 45.8813 571.159 45.8813C570.783 45.8813 570.469 45.9385 570.22 46.0527C569.97 46.167 569.784 46.3215 569.661 46.5161C569.538 46.7108 569.477 46.9308 569.477 47.1763C569.477 47.3498 569.517 47.5085 569.598 47.6523C569.678 47.792 569.801 47.9232 569.966 48.0459C570.131 48.1644 570.338 48.2765 570.588 48.3823C570.838 48.4881 571.132 48.5897 571.47 48.687C571.982 48.8394 572.429 49.0086 572.81 49.1948C573.19 49.3768 573.508 49.5841 573.762 49.8169C574.016 50.0496 574.206 50.3141 574.333 50.6104C574.46 50.9023 574.523 51.2345 574.523 51.6069C574.523 51.9963 574.445 52.3475 574.289 52.6606C574.132 52.9696 573.908 53.234 573.616 53.4541C573.328 53.6699 572.981 53.8371 572.575 53.9556C572.173 54.0698 571.724 54.127 571.229 54.127C570.785 54.127 570.347 54.0677 569.915 53.9492C569.488 53.8307 569.098 53.6509 568.747 53.4097C568.396 53.1642 568.117 52.8595 567.909 52.4956C567.702 52.1274 567.598 51.6979 567.598 51.207H569.191C569.191 51.5075 569.242 51.7635 569.344 51.9751C569.45 52.1867 569.596 52.3602 569.782 52.4956C569.968 52.6268 570.184 52.7241 570.429 52.7876C570.679 52.8511 570.945 52.8828 571.229 52.8828C571.601 52.8828 571.912 52.8299 572.162 52.7241C572.416 52.6183 572.606 52.4702 572.733 52.2798C572.86 52.0894 572.924 51.8693 572.924 51.6196Z" fill="#737373"/>
<rect x="775.5" y="68.5" width="219" height="39" rx="3.5" fill="white"/>
<path d="M808.697 96.3984L803.461 91.1641C804.594 89.7773 805.219 88.0312 805.219 86.125C805.219 81.6367 801.58 78 797.092 78C792.604 78 789 81.6379 789 86.125C789 90.6121 792.638 94.25 797.092 94.25C798.998 94.25 800.747 93.5895 802.132 92.4906L807.368 97.725C807.587 97.9102 807.829 98 808.068 98C808.306 98 808.547 97.9084 808.731 97.7254C809.095 97.3594 809.095 96.7656 808.697 96.3984ZM790.876 86.125C790.876 82.6789 793.68 79.875 797.127 79.875C800.574 79.875 803.379 82.6789 803.379 86.125C803.379 89.5711 800.574 92.375 797.127 92.375C793.68 92.375 790.876 89.5703 790.876 86.125Z" fill="#737373"/>
<path d="M826.676 89.6089H828.082C828.009 90.2827 827.816 90.8857 827.503 91.418C827.191 91.9502 826.749 92.3726 826.178 92.6851C825.606 92.9927 824.894 93.1465 824.039 93.1465C823.414 93.1465 822.845 93.0293 822.333 92.7949C821.825 92.5605 821.388 92.2285 821.021 91.7988C820.655 91.3643 820.372 90.8442 820.172 90.2388C819.977 89.6284 819.879 88.9497 819.879 88.2026V87.1406C819.879 86.3936 819.977 85.7173 820.172 85.1118C820.372 84.5015 820.658 83.979 821.029 83.5444C821.405 83.1099 821.856 82.7754 822.384 82.541C822.911 82.3066 823.504 82.1895 824.164 82.1895C824.969 82.1895 825.65 82.3408 826.207 82.6436C826.764 82.9463 827.196 83.3662 827.503 83.9033C827.816 84.4355 828.009 85.0532 828.082 85.7563H826.676C826.607 85.2583 826.48 84.8311 826.295 84.4746C826.109 84.1133 825.846 83.835 825.504 83.6396C825.162 83.4443 824.715 83.3467 824.164 83.3467C823.69 83.3467 823.272 83.437 822.911 83.6177C822.555 83.7983 822.254 84.0547 822.01 84.3867C821.771 84.7188 821.59 85.1167 821.468 85.5806C821.346 86.0444 821.285 86.5596 821.285 87.126V88.2026C821.285 88.7251 821.339 89.2158 821.446 89.6748C821.559 90.1338 821.727 90.5366 821.952 90.8833C822.176 91.23 822.462 91.5034 822.809 91.7036C823.155 91.8989 823.565 91.9966 824.039 91.9966C824.64 91.9966 825.118 91.9014 825.475 91.7109C825.831 91.5205 826.1 91.2471 826.28 90.8906C826.466 90.5342 826.598 90.1069 826.676 89.6089ZM829.444 89.1255V88.957C829.444 88.3857 829.527 87.856 829.693 87.3677C829.859 86.8745 830.099 86.4473 830.411 86.0859C830.724 85.7197 831.102 85.4365 831.546 85.2363C831.991 85.0312 832.489 84.9287 833.041 84.9287C833.597 84.9287 834.098 85.0312 834.542 85.2363C834.991 85.4365 835.372 85.7197 835.685 86.0859C836.002 86.4473 836.244 86.8745 836.41 87.3677C836.576 87.856 836.659 88.3857 836.659 88.957V89.1255C836.659 89.6968 836.576 90.2266 836.41 90.7148C836.244 91.2031 836.002 91.6304 835.685 91.9966C835.372 92.3579 834.994 92.6411 834.549 92.8462C834.11 93.0464 833.612 93.1465 833.055 93.1465C832.499 93.1465 831.998 93.0464 831.554 92.8462C831.109 92.6411 830.729 92.3579 830.411 91.9966C830.099 91.6304 829.859 91.2031 829.693 90.7148C829.527 90.2266 829.444 89.6968 829.444 89.1255ZM830.799 88.957V89.1255C830.799 89.521 830.846 89.8945 830.938 90.2461C831.031 90.5928 831.17 90.9004 831.356 91.1689C831.546 91.4375 831.783 91.6499 832.066 91.8062C832.35 91.9575 832.679 92.0332 833.055 92.0332C833.426 92.0332 833.751 91.9575 834.029 91.8062C834.312 91.6499 834.547 91.4375 834.732 91.1689C834.918 90.9004 835.057 90.5928 835.15 90.2461C835.248 89.8945 835.296 89.521 835.296 89.1255V88.957C835.296 88.5664 835.248 88.1978 835.15 87.8511C835.057 87.4995 834.916 87.1895 834.725 86.9209C834.54 86.6475 834.305 86.4326 834.022 86.2764C833.744 86.1201 833.417 86.042 833.041 86.042C832.669 86.042 832.342 86.1201 832.059 86.2764C831.781 86.4326 831.546 86.6475 831.356 86.9209C831.17 87.1895 831.031 87.4995 830.938 87.8511C830.846 88.1978 830.799 88.5664 830.799 88.957ZM839.706 86.6499V93H838.343V85.0752H839.632L839.706 86.6499ZM839.427 88.7373L838.797 88.7153C838.802 88.1733 838.873 87.6729 839.01 87.2139C839.146 86.75 839.349 86.3472 839.618 86.0054C839.886 85.6636 840.221 85.3999 840.621 85.2144C841.021 85.0239 841.485 84.9287 842.013 84.9287C842.384 84.9287 842.726 84.9824 843.038 85.0898C843.351 85.1924 843.622 85.356 843.851 85.5806C844.081 85.8052 844.259 86.0933 844.386 86.4448C844.513 86.7964 844.576 87.2212 844.576 87.7192V93H843.221V87.7852C843.221 87.3701 843.15 87.0381 843.009 86.7891C842.872 86.54 842.677 86.3594 842.423 86.2471C842.169 86.1299 841.871 86.0713 841.529 86.0713C841.129 86.0713 840.794 86.1421 840.526 86.2837C840.257 86.4253 840.042 86.6206 839.881 86.8696C839.72 87.1187 839.603 87.4043 839.53 87.7266C839.461 88.0439 839.427 88.3809 839.427 88.7373ZM844.562 87.9902L843.653 88.2686C843.658 87.834 843.729 87.4165 843.866 87.0161C844.007 86.6157 844.21 86.2593 844.474 85.9468C844.742 85.6343 845.072 85.3877 845.462 85.207C845.853 85.0215 846.3 84.9287 846.803 84.9287C847.228 84.9287 847.604 84.9849 847.931 85.0972C848.263 85.2095 848.541 85.3828 848.766 85.6172C848.995 85.8467 849.168 86.1421 849.286 86.5034C849.403 86.8647 849.461 87.2944 849.461 87.7925V93H848.099V87.7778C848.099 87.3335 848.028 86.9893 847.887 86.7451C847.75 86.4961 847.555 86.3228 847.301 86.2251C847.052 86.1226 846.754 86.0713 846.407 86.0713C846.109 86.0713 845.846 86.1226 845.616 86.2251C845.387 86.3276 845.194 86.4692 845.038 86.6499C844.881 86.8257 844.762 87.0283 844.679 87.2578C844.601 87.4873 844.562 87.7314 844.562 87.9902ZM852.867 86.5986V96.0469H851.505V85.0752H852.75L852.867 86.5986ZM858.207 88.9717V89.1255C858.207 89.7017 858.138 90.2363 858.001 90.7295C857.865 91.2178 857.665 91.6426 857.401 92.0039C857.142 92.3652 856.822 92.646 856.441 92.8462C856.061 93.0464 855.624 93.1465 855.13 93.1465C854.627 93.1465 854.183 93.0635 853.797 92.8975C853.412 92.7314 853.084 92.4897 852.816 92.1724C852.547 91.855 852.333 91.4741 852.171 91.0298C852.015 90.5854 851.908 90.085 851.849 89.5283V88.708C851.908 88.1221 852.018 87.5972 852.179 87.1333C852.34 86.6694 852.552 86.2739 852.816 85.9468C853.084 85.6147 853.409 85.3633 853.79 85.1924C854.171 85.0166 854.61 84.9287 855.108 84.9287C855.606 84.9287 856.048 85.0264 856.434 85.2217C856.82 85.4121 857.145 85.6855 857.408 86.042C857.672 86.3984 857.87 86.8257 858.001 87.3237C858.138 87.8169 858.207 88.3662 858.207 88.9717ZM856.844 89.1255V88.9717C856.844 88.5762 856.803 88.2051 856.72 87.8584C856.637 87.5068 856.507 87.1992 856.332 86.9355C856.161 86.667 855.941 86.457 855.672 86.3057C855.404 86.1494 855.084 86.0713 854.713 86.0713C854.371 86.0713 854.073 86.1299 853.819 86.2471C853.57 86.3643 853.358 86.5229 853.182 86.7231C853.006 86.9185 852.862 87.1431 852.75 87.397C852.643 87.646 852.562 87.9048 852.508 88.1733V90.0703C852.606 90.4121 852.743 90.7344 852.918 91.0371C853.094 91.335 853.329 91.5767 853.622 91.7622C853.915 91.9429 854.283 92.0332 854.728 92.0332C855.094 92.0332 855.409 91.9575 855.672 91.8062C855.941 91.6499 856.161 91.4375 856.332 91.1689C856.507 90.9004 856.637 90.5928 856.72 90.2461C856.803 89.8945 856.844 89.521 856.844 89.1255ZM859.576 89.1255V88.957C859.576 88.3857 859.659 87.856 859.825 87.3677C859.991 86.8745 860.23 86.4473 860.543 86.0859C860.855 85.7197 861.234 85.4365 861.678 85.2363C862.123 85.0312 862.621 84.9287 863.172 84.9287C863.729 84.9287 864.229 85.0312 864.674 85.2363C865.123 85.4365 865.504 85.7197 865.816 86.0859C866.134 86.4473 866.375 86.8745 866.542 87.3677C866.708 87.856 866.791 88.3857 866.791 88.957V89.1255C866.791 89.6968 866.708 90.2266 866.542 90.7148C866.375 91.2031 866.134 91.6304 865.816 91.9966C865.504 92.3579 865.125 92.6411 864.681 92.8462C864.242 93.0464 863.744 93.1465 863.187 93.1465C862.63 93.1465 862.13 93.0464 861.686 92.8462C861.241 92.6411 860.86 92.3579 860.543 91.9966C860.23 91.6304 859.991 91.2031 859.825 90.7148C859.659 90.2266 859.576 89.6968 859.576 89.1255ZM860.931 88.957V89.1255C860.931 89.521 860.978 89.8945 861.07 90.2461C861.163 90.5928 861.302 90.9004 861.488 91.1689C861.678 91.4375 861.915 91.6499 862.198 91.8062C862.481 91.9575 862.811 92.0332 863.187 92.0332C863.558 92.0332 863.883 91.9575 864.161 91.8062C864.444 91.6499 864.679 91.4375 864.864 91.1689C865.05 90.9004 865.189 90.5928 865.282 90.2461C865.379 89.8945 865.428 89.521 865.428 89.1255V88.957C865.428 88.5664 865.379 88.1978 865.282 87.8511C865.189 87.4995 865.047 87.1895 864.857 86.9209C864.671 86.6475 864.437 86.4326 864.154 86.2764C863.875 86.1201 863.548 86.042 863.172 86.042C862.801 86.042 862.474 86.1201 862.191 86.2764C861.913 86.4326 861.678 86.6475 861.488 86.9209C861.302 87.1895 861.163 87.4995 861.07 87.8511C860.978 88.1978 860.931 88.5664 860.931 88.957ZM869.845 86.7671V93H868.49V85.0752H869.771L869.845 86.7671ZM869.522 88.7373L868.958 88.7153C868.963 88.1733 869.044 87.6729 869.2 87.2139C869.356 86.75 869.576 86.3472 869.859 86.0054C870.143 85.6636 870.479 85.3999 870.87 85.2144C871.266 85.0239 871.703 84.9287 872.181 84.9287C872.572 84.9287 872.923 84.9824 873.236 85.0898C873.548 85.1924 873.814 85.3584 874.034 85.5879C874.259 85.8174 874.43 86.1152 874.547 86.4814C874.664 86.8428 874.723 87.2847 874.723 87.8071V93H873.36V87.7925C873.36 87.3774 873.299 87.0454 873.177 86.7964C873.055 86.5425 872.877 86.3594 872.643 86.2471C872.408 86.1299 872.12 86.0713 871.778 86.0713C871.441 86.0713 871.134 86.1421 870.855 86.2837C870.582 86.4253 870.345 86.6206 870.145 86.8696C869.95 87.1187 869.796 87.4043 869.684 87.7266C869.576 88.0439 869.522 88.3809 869.522 88.7373ZM880.069 93.1465C879.518 93.1465 879.017 93.0537 878.568 92.8682C878.124 92.6777 877.74 92.4116 877.418 92.0698C877.101 91.728 876.856 91.3228 876.686 90.854C876.515 90.3853 876.429 89.8726 876.429 89.3159V89.0083C876.429 88.3638 876.524 87.79 876.715 87.2871C876.905 86.7793 877.164 86.3496 877.491 85.998C877.818 85.6465 878.189 85.3804 878.604 85.1997C879.02 85.019 879.449 84.9287 879.894 84.9287C880.46 84.9287 880.948 85.0264 881.358 85.2217C881.773 85.417 882.113 85.6904 882.376 86.042C882.64 86.3887 882.835 86.7988 882.962 87.2725C883.089 87.7412 883.153 88.2539 883.153 88.8105V89.4185H877.235V88.3125H881.798V88.21C881.778 87.8584 881.705 87.5166 881.578 87.1846C881.456 86.8525 881.261 86.5791 880.992 86.3643C880.724 86.1494 880.357 86.042 879.894 86.042C879.586 86.042 879.303 86.1079 879.044 86.2397C878.785 86.3667 878.563 86.5571 878.377 86.811C878.192 87.0649 878.048 87.375 877.945 87.7412C877.843 88.1074 877.792 88.5298 877.792 89.0083V89.3159C877.792 89.6919 877.843 90.0459 877.945 90.3779C878.053 90.7051 878.207 90.9932 878.407 91.2422C878.612 91.4912 878.858 91.6865 879.146 91.8281C879.439 91.9697 879.771 92.0405 880.143 92.0405C880.621 92.0405 881.026 91.9429 881.358 91.7476C881.69 91.5522 881.981 91.291 882.23 90.9639L883.05 91.6157C882.879 91.8745 882.662 92.1211 882.398 92.3555C882.135 92.5898 881.81 92.7803 881.424 92.9268C881.043 93.0732 880.592 93.1465 880.069 93.1465ZM886.09 86.7671V93H884.735V85.0752H886.017L886.09 86.7671ZM885.768 88.7373L885.204 88.7153C885.208 88.1733 885.289 87.6729 885.445 87.2139C885.602 86.75 885.821 86.3472 886.104 86.0054C886.388 85.6636 886.725 85.3999 887.115 85.2144C887.511 85.0239 887.948 84.9287 888.426 84.9287C888.817 84.9287 889.168 84.9824 889.481 85.0898C889.793 85.1924 890.06 85.3584 890.279 85.5879C890.504 85.8174 890.675 86.1152 890.792 86.4814C890.909 86.8428 890.968 87.2847 890.968 87.8071V93H889.605V87.7925C889.605 87.3774 889.544 87.0454 889.422 86.7964C889.3 86.5425 889.122 86.3594 888.888 86.2471C888.653 86.1299 888.365 86.0713 888.023 86.0713C887.687 86.0713 887.379 86.1421 887.101 86.2837C886.827 86.4253 886.59 86.6206 886.39 86.8696C886.195 87.1187 886.041 87.4043 885.929 87.7266C885.821 88.0439 885.768 88.3809 885.768 88.7373ZM896.344 85.0752V86.1152H892.059V85.0752H896.344ZM893.509 83.1489H894.864V91.0371C894.864 91.3057 894.906 91.5083 894.989 91.645C895.072 91.7817 895.179 91.8721 895.311 91.916C895.443 91.96 895.584 91.9819 895.736 91.9819C895.848 91.9819 895.965 91.9722 896.087 91.9526C896.214 91.9282 896.31 91.9087 896.373 91.894L896.38 93C896.273 93.0342 896.131 93.0659 895.956 93.0952C895.785 93.1294 895.577 93.1465 895.333 93.1465C895.001 93.1465 894.696 93.0806 894.417 92.9487C894.139 92.8169 893.917 92.5972 893.751 92.2896C893.59 91.9771 893.509 91.5571 893.509 91.0298V83.1489Z" fill="#1A1A1A"/>
<path fill-rule="evenodd" clip-rule="evenodd" d="M981 88C981 93.5228 976.523 98 971 98C965.477 98 961 93.5228 961 88C961 82.4772 965.477 78 971 78C976.523 78 981 82.4772 981 88ZM967.913 83.5871C967.547 83.221 966.953 83.221 966.587 83.5871C966.221 83.9532 966.221 84.5468 966.587 84.9129L969.674 88L966.587 91.0871C966.221 91.4532 966.221 92.0468 966.587 92.4129C966.953 92.779 967.547 92.779 967.913 92.4129L971 89.3258L974.087 92.4129C974.453 92.779 975.047 92.779 975.413 92.4129C975.779 92.0468 975.779 91.4532 975.413 91.0871L972.326 88L975.413 84.9129C975.779 84.5468 975.779 83.9532 975.413 83.5871C975.047 83.221 974.453 83.221 974.087 83.5871L971 86.6742L967.913 83.5871Z" fill="#AAAAAA"/>
<rect x="775.5" y="68.5" width="219" height="39" rx="3.5" stroke="#AAAAAA"/>
<path d="M778.625 54H776.65L776.663 52.7368H778.625C779.196 52.7368 779.674 52.612 780.059 52.3623C780.448 52.1126 780.74 51.755 780.935 51.2896C781.134 50.8241 781.233 50.2697 781.233 49.6265V49.125C781.233 48.6257 781.176 48.1834 781.062 47.7983C780.952 47.4132 780.787 47.0895 780.567 46.8271C780.351 46.5648 780.084 46.3659 779.767 46.2305C779.454 46.0951 779.092 46.0273 778.682 46.0273H776.612V44.7578H778.682C779.295 44.7578 779.856 44.8615 780.364 45.0688C780.872 45.272 781.31 45.5661 781.678 45.9512C782.05 46.3363 782.336 46.7975 782.535 47.335C782.734 47.8724 782.833 48.4733 782.833 49.1377V49.6265C782.833 50.2909 782.734 50.8918 782.535 51.4292C782.336 51.9666 782.05 52.4279 781.678 52.813C781.305 53.1938 780.861 53.488 780.345 53.6953C779.833 53.8984 779.259 54 778.625 54ZM777.533 44.7578V54H775.939V44.7578H777.533ZM788.892 45.9893L786.131 54H784.461L787.94 44.7578H789.006L788.892 45.9893ZM791.203 54L788.435 45.9893L788.314 44.7578H789.387L792.878 54H791.203ZM791.069 50.5723V51.8354H786.042V50.5723H791.069ZM797.916 44.7578V54H796.335V44.7578H797.916ZM800.816 44.7578V46.0273H793.459V44.7578H800.816ZM806.025 45.9893L803.264 54H801.594L805.073 44.7578H806.139L806.025 45.9893ZM808.335 54L805.568 45.9893L805.447 44.7578H806.52L810.011 54H808.335ZM808.202 50.5723V51.8354H803.175V50.5723H808.202ZM817.876 44.7578V54H816.283V44.7578H817.876ZM821.647 48.8013V50.0645H817.47V48.8013H821.647ZM822.174 44.7578V46.0273H817.47V44.7578H822.174ZM826.145 44.7578V54H824.551V44.7578H826.145ZM834.914 52.7368V54H830.274V52.7368H834.914ZM830.718 44.7578V54H829.125V44.7578H830.718ZM842.935 52.7368V54H838.294V52.7368H842.935ZM838.739 44.7578V54H837.146V44.7578H838.739ZM851.215 52.7368V54H846.309V52.7368H851.215ZM846.759 44.7578V54H845.166V44.7578H846.759ZM850.574 48.6172V49.8613H846.309V48.6172H850.574ZM851.184 44.7578V46.0273H846.309V44.7578H851.184ZM856.202 54H854.228L854.24 52.7368H856.202C856.773 52.7368 857.251 52.612 857.636 52.3623C858.026 52.1126 858.318 51.755 858.512 51.2896C858.711 50.8241 858.811 50.2697 858.811 49.6265V49.125C858.811 48.6257 858.753 48.1834 858.639 47.7983C858.529 47.4132 858.364 47.0895 858.144 46.8271C857.928 46.5648 857.662 46.3659 857.344 46.2305C857.031 46.0951 856.669 46.0273 856.259 46.0273H854.189V44.7578H856.259C856.872 44.7578 857.433 44.8615 857.941 45.0688C858.449 45.272 858.887 45.5661 859.255 45.9512C859.627 46.3363 859.913 46.7975 860.112 47.335C860.311 47.8724 860.41 48.4733 860.41 49.1377V49.6265C860.41 50.2909 860.311 50.8918 860.112 51.4292C859.913 51.9666 859.627 52.4279 859.255 52.813C858.882 53.1938 858.438 53.488 857.922 53.6953C857.41 53.8984 856.836 54 856.202 54ZM855.11 44.7578V54H853.517V44.7578H855.11Z" fill="#737373"/>
<rect x="0.5" y="0.5" width="1279" height="147" rx="15.5" stroke="#E6E6E6"/>
</svg>
