<svg width="640" height="281" viewBox="0 0 640 281" fill="none" xmlns="http://www.w3.org/2000/svg">
<rect width="640" height="281" rx="16" fill="#F8F8F8"/>
<mask id="path-4-outside-1_9212_96571" maskUnits="userSpaceOnUse" x="40" y="40" width="560" height="73" fill="black">
<rect fill="white" x="40" y="40" width="560" height="73"/>
<path d="M40 48C40 43.5817 43.5817 40 48 40H592C596.418 40 600 43.5817 600 48V112H40V48Z"/>
</mask>
<path d="M40 48C40 43.5817 43.5817 40 48 40H592C596.418 40 600 43.5817 600 48V112H40V48Z" fill="white"/>
<path d="M74 69.5C74 70.3284 73.3284 71 72.5 71C71.6716 71 71 70.3284 71 69.5C71 68.6716 71.6716 68 72.5 68C73.3284 68 74 68.6716 74 69.5Z" fill="#737373"/>
<path d="M80 69.5C80 70.3284 79.3284 71 78.5 71C77.6716 71 77 70.3284 77 69.5C77 68.6716 77.6716 68 78.5 68C79.3284 68 80 68.6716 80 69.5Z" fill="#737373"/>
<path d="M80 76C80 76.8284 79.3284 77.5 78.5 77.5C77.6716 77.5 77 76.8284 77 76C77 75.1716 77.6716 74.5 78.5 74.5C79.3284 74.5 80 75.1716 80 76Z" fill="#737373"/>
<path d="M74 76C74 76.8284 73.3284 77.5 72.5 77.5C71.6716 77.5 71 76.8284 71 76C71 75.1716 71.6716 74.5 72.5 74.5C73.3284 74.5 74 75.1716 74 76Z" fill="#737373"/>
<path d="M74 82.5C74 83.3284 73.3284 84 72.5 84C71.6716 84 71 83.3284 71 82.5C71 81.6716 71.6716 81 72.5 81C73.3284 81 74 81.6716 74 82.5Z" fill="#737373"/>
<path d="M80 82.5C80 83.3284 79.3284 84 78.5 84C77.6716 84 77 83.3284 77 82.5C77 81.6716 77.6716 81 78.5 81C79.3284 81 80 81.6716 80 82.5Z" fill="#737373"/>
<path d="M101 72.3333C101 71.3207 101.783 70.5 102.75 70.5H113.25C114.215 70.5 115 71.3207 115 72.3333V79.6667C115 80.6779 114.215 81.5 113.25 81.5H102.75C101.783 81.5 101 80.6779 101 79.6667V72.3333ZM102.312 72.3333V72.9664L107.029 77.0227C107.593 77.5096 108.407 77.5096 108.971 77.0227L113.688 72.9664V72.3076C113.688 72.0812 113.491 71.8492 113.25 71.8492H102.75C102.508 71.8492 102.312 72.0812 102.312 72.3076V72.3333ZM102.312 74.7453V79.6667C102.312 79.9188 102.508 80.125 102.75 80.125H113.25C113.491 80.125 113.688 79.9188 113.688 79.6667V74.7453L109.805 78.0854C108.755 78.9878 107.245 78.9878 106.171 78.0854L102.312 74.7453Z" fill="#1A1A1A"/>
<path d="M130.922 70.3359V81H129.084V70.3359H130.922ZM135.273 75.0015V76.459H130.454V75.0015H135.273ZM135.881 70.3359V71.8008H130.454V70.3359H135.881ZM139.06 73.0752V81H137.287V73.0752H139.06ZM137.17 70.9951C137.17 70.7266 137.258 70.5044 137.434 70.3286C137.614 70.1479 137.863 70.0576 138.181 70.0576C138.493 70.0576 138.74 70.1479 138.92 70.3286C139.101 70.5044 139.191 70.7266 139.191 70.9951C139.191 71.2588 139.101 71.4785 138.92 71.6543C138.74 71.8301 138.493 71.918 138.181 71.918C137.863 71.918 137.614 71.8301 137.434 71.6543C137.258 71.4785 137.17 71.2588 137.17 70.9951ZM144.487 81.1465C143.901 81.1465 143.371 81.0513 142.897 80.8608C142.429 80.6655 142.028 80.3945 141.696 80.0479C141.369 79.7012 141.118 79.2935 140.942 78.8247C140.766 78.356 140.678 77.8506 140.678 77.3086V77.0156C140.678 76.3955 140.769 75.834 140.949 75.3311C141.13 74.8281 141.381 74.3984 141.704 74.042C142.026 73.6807 142.407 73.4048 142.846 73.2144C143.286 73.0239 143.762 72.9287 144.274 72.9287C144.841 72.9287 145.336 73.0239 145.761 73.2144C146.186 73.4048 146.538 73.6733 146.816 74.02C147.099 74.3618 147.309 74.7695 147.446 75.2432C147.587 75.7168 147.658 76.2393 147.658 76.8105V77.5649H141.535V76.2979H145.915V76.1587C145.905 75.8413 145.842 75.5435 145.725 75.2651C145.612 74.9868 145.439 74.7622 145.205 74.5913C144.97 74.4204 144.658 74.335 144.267 74.335C143.974 74.335 143.713 74.3984 143.483 74.5254C143.259 74.6475 143.071 74.8257 142.919 75.0601C142.768 75.2944 142.651 75.5776 142.568 75.9097C142.49 76.2368 142.451 76.6055 142.451 77.0156V77.3086C142.451 77.6553 142.497 77.9775 142.59 78.2754C142.688 78.5684 142.829 78.8247 143.015 79.0444C143.2 79.2642 143.425 79.4375 143.688 79.5645C143.952 79.6865 144.252 79.7476 144.589 79.7476C145.014 79.7476 145.393 79.6621 145.725 79.4912C146.057 79.3203 146.345 79.0786 146.589 78.7661L147.519 79.667C147.348 79.916 147.126 80.1553 146.853 80.3848C146.579 80.6094 146.245 80.7925 145.849 80.9341C145.458 81.0757 145.004 81.1465 144.487 81.1465ZM150.925 69.75V81H149.152V69.75H150.925ZM157.692 79.3594V69.75H159.465V81H157.861L157.692 79.3594ZM152.536 77.1255V76.9717C152.536 76.3711 152.607 75.8242 152.749 75.3311C152.89 74.833 153.095 74.4058 153.364 74.0493C153.632 73.688 153.959 73.4121 154.345 73.2217C154.731 73.0264 155.166 72.9287 155.649 72.9287C156.127 72.9287 156.547 73.0215 156.909 73.207C157.27 73.3926 157.578 73.6587 157.832 74.0054C158.085 74.3472 158.288 74.7573 158.439 75.2358C158.591 75.7095 158.698 76.2368 158.762 76.8179V77.3086C158.698 77.875 158.591 78.3926 158.439 78.8613C158.288 79.3301 158.085 79.7354 157.832 80.0771C157.578 80.4189 157.268 80.6826 156.901 80.8682C156.54 81.0537 156.118 81.1465 155.634 81.1465C155.156 81.1465 154.724 81.0464 154.338 80.8462C153.957 80.646 153.632 80.3652 153.364 80.0039C153.095 79.6426 152.89 79.2178 152.749 78.7295C152.607 78.2363 152.536 77.7017 152.536 77.1255ZM154.301 76.9717V77.1255C154.301 77.4868 154.333 77.8237 154.396 78.1362C154.465 78.4487 154.57 78.7246 154.711 78.9639C154.853 79.1982 155.036 79.3838 155.261 79.5205C155.49 79.6523 155.764 79.7183 156.081 79.7183C156.481 79.7183 156.811 79.6304 157.07 79.4546C157.329 79.2788 157.531 79.042 157.678 78.7441C157.829 78.4414 157.932 78.1045 157.985 77.7334V76.4077C157.956 76.1196 157.895 75.8511 157.802 75.6021C157.714 75.353 157.595 75.1357 157.443 74.9502C157.292 74.7598 157.104 74.6133 156.879 74.5107C156.66 74.4033 156.398 74.3496 156.096 74.3496C155.773 74.3496 155.5 74.418 155.275 74.5547C155.051 74.6914 154.865 74.8794 154.719 75.1187C154.577 75.3579 154.472 75.6362 154.404 75.9536C154.335 76.271 154.301 76.6104 154.301 76.9717ZM165.053 69.75H166.818V79.3081L166.65 81H165.053V69.75ZM171.989 76.9644V77.1182C171.989 77.7041 171.923 78.2437 171.792 78.7368C171.665 79.2251 171.469 79.6499 171.206 80.0112C170.947 80.3726 170.625 80.6533 170.239 80.8535C169.858 81.0488 169.416 81.1465 168.913 81.1465C168.42 81.1465 167.99 81.0537 167.624 80.8682C167.258 80.6826 166.95 80.4189 166.701 80.0771C166.457 79.7354 166.259 79.3276 166.108 78.854C165.957 78.3804 165.849 77.8579 165.786 77.2866V76.7959C165.849 76.2197 165.957 75.6973 166.108 75.2285C166.259 74.7549 166.457 74.3472 166.701 74.0054C166.95 73.6587 167.255 73.3926 167.617 73.207C167.983 73.0215 168.41 72.9287 168.898 72.9287C169.406 72.9287 169.853 73.0264 170.239 73.2217C170.629 73.417 170.954 73.6953 171.213 74.0566C171.472 74.4131 171.665 74.8379 171.792 75.3311C171.923 75.8242 171.989 76.3687 171.989 76.9644ZM170.224 77.1182V76.9644C170.224 76.6079 170.195 76.2734 170.136 75.9609C170.078 75.6436 169.98 75.3652 169.843 75.126C169.711 74.8867 169.531 74.6987 169.301 74.562C169.077 74.4204 168.796 74.3496 168.459 74.3496C168.146 74.3496 167.878 74.4033 167.653 74.5107C167.429 74.6182 167.241 74.7646 167.089 74.9502C166.938 75.1357 166.818 75.3506 166.73 75.5947C166.647 75.8389 166.591 76.1025 166.562 76.3857V77.7114C166.606 78.0776 166.699 78.4146 166.84 78.7222C166.987 79.0249 167.192 79.269 167.456 79.4546C167.719 79.6353 168.059 79.7256 168.474 79.7256C168.801 79.7256 169.077 79.6597 169.301 79.5278C169.526 79.396 169.704 79.2129 169.836 78.9785C169.973 78.7393 170.07 78.4609 170.129 78.1436C170.192 77.8262 170.224 77.4844 170.224 77.1182ZM175.373 69.75V81H173.601V69.75H175.373ZM176.97 77.1255V76.957C176.97 76.3857 177.053 75.856 177.219 75.3677C177.385 74.8745 177.624 74.4473 177.937 74.0859C178.254 73.7197 178.64 73.4365 179.094 73.2363C179.553 73.0312 180.07 72.9287 180.646 72.9287C181.228 72.9287 181.745 73.0312 182.199 73.2363C182.658 73.4365 183.046 73.7197 183.364 74.0859C183.681 74.4473 183.923 74.8745 184.089 75.3677C184.255 75.856 184.338 76.3857 184.338 76.957V77.1255C184.338 77.6968 184.255 78.2266 184.089 78.7148C183.923 79.2031 183.681 79.6304 183.364 79.9966C183.046 80.3579 182.661 80.6411 182.207 80.8462C181.752 81.0464 181.237 81.1465 180.661 81.1465C180.08 81.1465 179.56 81.0464 179.101 80.8462C178.647 80.6411 178.261 80.3579 177.944 79.9966C177.626 79.6304 177.385 79.2031 177.219 78.7148C177.053 78.2266 176.97 77.6968 176.97 77.1255ZM178.735 76.957V77.1255C178.735 77.4819 178.771 77.8188 178.845 78.1362C178.918 78.4536 179.033 78.7319 179.189 78.9712C179.345 79.2104 179.545 79.3984 179.79 79.5352C180.034 79.6719 180.324 79.7402 180.661 79.7402C180.988 79.7402 181.271 79.6719 181.511 79.5352C181.755 79.3984 181.955 79.2104 182.111 78.9712C182.268 78.7319 182.382 78.4536 182.456 78.1362C182.534 77.8188 182.573 77.4819 182.573 77.1255V76.957C182.573 76.6055 182.534 76.2734 182.456 75.9609C182.382 75.6436 182.265 75.3628 182.104 75.1187C181.948 74.8745 181.748 74.6841 181.503 74.5474C181.264 74.4058 180.979 74.335 180.646 74.335C180.314 74.335 180.026 74.4058 179.782 74.5474C179.543 74.6841 179.345 74.8745 179.189 75.1187C179.033 75.3628 178.918 75.6436 178.845 75.9609C178.771 76.2734 178.735 76.6055 178.735 76.957ZM189.055 79.7402C189.343 79.7402 189.602 79.6841 189.831 79.5718C190.065 79.4546 190.253 79.2935 190.395 79.0884C190.542 78.8833 190.622 78.6465 190.637 78.3779H192.299C192.29 78.8906 192.138 79.3569 191.845 79.7769C191.552 80.1968 191.164 80.5312 190.681 80.7803C190.197 81.0244 189.663 81.1465 189.077 81.1465C188.471 81.1465 187.944 81.0439 187.495 80.8389C187.045 80.6289 186.672 80.3408 186.374 79.9746C186.076 79.6084 185.852 79.186 185.7 78.7075C185.554 78.229 185.48 77.7163 185.48 77.1694V76.9131C185.48 76.3662 185.554 75.8535 185.7 75.375C185.852 74.8916 186.076 74.4668 186.374 74.1006C186.672 73.7344 187.045 73.4487 187.495 73.2437C187.944 73.0337 188.469 72.9287 189.069 72.9287C189.704 72.9287 190.261 73.0557 190.739 73.3096C191.218 73.5586 191.594 73.9077 191.867 74.3569C192.146 74.8013 192.29 75.3188 192.299 75.9097H190.637C190.622 75.6167 190.549 75.353 190.417 75.1187C190.29 74.8794 190.109 74.689 189.875 74.5474C189.646 74.4058 189.37 74.335 189.047 74.335C188.691 74.335 188.396 74.4082 188.161 74.5547C187.927 74.6963 187.744 74.8916 187.612 75.1406C187.48 75.3848 187.385 75.6606 187.326 75.9683C187.272 76.271 187.246 76.5859 187.246 76.9131V77.1694C187.246 77.4966 187.272 77.814 187.326 78.1216C187.38 78.4292 187.473 78.7051 187.604 78.9492C187.741 79.1885 187.927 79.3813 188.161 79.5278C188.396 79.6694 188.693 79.7402 189.055 79.7402ZM195.434 69.75V81H193.662V69.75H195.434ZM200.356 73.0752L196.906 76.8984L195.017 78.832L194.555 77.3379L195.983 75.5728L198.225 73.0752H200.356ZM198.605 81L196.035 77.2793L197.148 76.0415L200.649 81H198.605ZM207.102 69.75V81H205.329V69.75H207.102ZM213.503 79.4106V75.6313C213.503 75.3481 213.452 75.104 213.349 74.8989C213.247 74.6938 213.09 74.5352 212.88 74.4229C212.675 74.3105 212.417 74.2544 212.104 74.2544C211.816 74.2544 211.567 74.3032 211.357 74.4009C211.147 74.4985 210.983 74.6304 210.866 74.7964C210.749 74.9624 210.69 75.1504 210.69 75.3604H208.933C208.933 75.0479 209.008 74.7451 209.16 74.4521C209.311 74.1592 209.531 73.8979 209.819 73.6685C210.107 73.439 210.451 73.2583 210.852 73.1265C211.252 72.9946 211.701 72.9287 212.199 72.9287C212.795 72.9287 213.322 73.0288 213.781 73.229C214.245 73.4292 214.609 73.7319 214.873 74.1372C215.141 74.5376 215.275 75.0405 215.275 75.646V79.1689C215.275 79.5303 215.3 79.855 215.349 80.1431C215.402 80.4263 215.478 80.6729 215.576 80.8828V81H213.767C213.684 80.8096 213.618 80.5679 213.569 80.2749C213.525 79.9771 213.503 79.689 213.503 79.4106ZM213.759 76.1807L213.774 77.272H212.507C212.18 77.272 211.892 77.3037 211.643 77.3672C211.394 77.4258 211.186 77.5137 211.02 77.6309C210.854 77.748 210.729 77.8896 210.646 78.0557C210.563 78.2217 210.522 78.4097 210.522 78.6196C210.522 78.8296 210.571 79.0225 210.668 79.1982C210.766 79.3691 210.908 79.5034 211.093 79.6011C211.284 79.6987 211.513 79.7476 211.782 79.7476C212.143 79.7476 212.458 79.6743 212.727 79.5278C213 79.3765 213.215 79.1934 213.371 78.9785C213.527 78.7588 213.61 78.5513 213.62 78.356L214.191 79.1396C214.133 79.3398 214.033 79.5547 213.891 79.7842C213.75 80.0137 213.564 80.2334 213.334 80.4434C213.11 80.6484 212.839 80.8169 212.521 80.9487C212.209 81.0806 211.848 81.1465 211.438 81.1465C210.92 81.1465 210.458 81.0439 210.053 80.8389C209.648 80.6289 209.331 80.3481 209.101 79.9966C208.872 79.6401 208.757 79.2373 208.757 78.7881C208.757 78.3682 208.835 77.9971 208.991 77.6748C209.152 77.3477 209.387 77.0742 209.694 76.8545C210.007 76.6348 210.388 76.4688 210.837 76.3564C211.286 76.2393 211.799 76.1807 212.375 76.1807H213.759ZM217.128 69.75H218.894V79.3081L218.725 81H217.128V69.75ZM224.064 76.9644V77.1182C224.064 77.7041 223.999 78.2437 223.867 78.7368C223.74 79.2251 223.544 79.6499 223.281 80.0112C223.022 80.3726 222.7 80.6533 222.314 80.8535C221.933 81.0488 221.491 81.1465 220.988 81.1465C220.495 81.1465 220.065 81.0537 219.699 80.8682C219.333 80.6826 219.025 80.4189 218.776 80.0771C218.532 79.7354 218.334 79.3276 218.183 78.854C218.032 78.3804 217.924 77.8579 217.861 77.2866V76.7959C217.924 76.2197 218.032 75.6973 218.183 75.2285C218.334 74.7549 218.532 74.3472 218.776 74.0054C219.025 73.6587 219.331 73.3926 219.692 73.207C220.058 73.0215 220.485 72.9287 220.974 72.9287C221.481 72.9287 221.928 73.0264 222.314 73.2217C222.705 73.417 223.029 73.6953 223.288 74.0566C223.547 74.4131 223.74 74.8379 223.867 75.3311C223.999 75.8242 224.064 76.3687 224.064 76.9644ZM222.299 77.1182V76.9644C222.299 76.6079 222.27 76.2734 222.211 75.9609C222.153 75.6436 222.055 75.3652 221.918 75.126C221.787 74.8867 221.606 74.6987 221.376 74.562C221.152 74.4204 220.871 74.3496 220.534 74.3496C220.222 74.3496 219.953 74.4033 219.729 74.5107C219.504 74.6182 219.316 74.7646 219.165 74.9502C219.013 75.1357 218.894 75.3506 218.806 75.5947C218.723 75.8389 218.667 76.1025 218.637 76.3857V77.7114C218.681 78.0776 218.774 78.4146 218.916 78.7222C219.062 79.0249 219.267 79.269 219.531 79.4546C219.794 79.6353 220.134 79.7256 220.549 79.7256C220.876 79.7256 221.152 79.6597 221.376 79.5278C221.601 79.396 221.779 79.2129 221.911 78.9785C222.048 78.7393 222.146 78.4609 222.204 78.1436C222.268 77.8262 222.299 77.4844 222.299 77.1182ZM229.052 81.1465C228.466 81.1465 227.937 81.0513 227.463 80.8608C226.994 80.6655 226.594 80.3945 226.262 80.0479C225.935 79.7012 225.683 79.2935 225.507 78.8247C225.332 78.356 225.244 77.8506 225.244 77.3086V77.0156C225.244 76.3955 225.334 75.834 225.515 75.3311C225.695 74.8281 225.947 74.3984 226.269 74.042C226.591 73.6807 226.972 73.4048 227.412 73.2144C227.851 73.0239 228.327 72.9287 228.84 72.9287C229.406 72.9287 229.902 73.0239 230.327 73.2144C230.751 73.4048 231.103 73.6733 231.381 74.02C231.665 74.3618 231.875 74.7695 232.011 75.2432C232.153 75.7168 232.224 76.2393 232.224 76.8105V77.5649H226.101V76.2979H230.48V76.1587C230.471 75.8413 230.407 75.5435 230.29 75.2651C230.178 74.9868 230.004 74.7622 229.77 74.5913C229.536 74.4204 229.223 74.335 228.833 74.335C228.54 74.335 228.278 74.3984 228.049 74.5254C227.824 74.6475 227.636 74.8257 227.485 75.0601C227.333 75.2944 227.216 75.5776 227.133 75.9097C227.055 76.2368 227.016 76.6055 227.016 77.0156V77.3086C227.016 77.6553 227.062 77.9775 227.155 78.2754C227.253 78.5684 227.395 78.8247 227.58 79.0444C227.766 79.2642 227.99 79.4375 228.254 79.5645C228.518 79.6865 228.818 79.7476 229.155 79.7476C229.58 79.7476 229.958 79.6621 230.29 79.4912C230.622 79.3203 230.91 79.0786 231.154 78.7661L232.084 79.667C231.914 79.916 231.691 80.1553 231.418 80.3848C231.145 80.6094 230.81 80.7925 230.415 80.9341C230.024 81.0757 229.57 81.1465 229.052 81.1465ZM235.49 69.75V81H233.718V69.75H235.49Z" fill="#1A1A1A"/>
<path d="M496.621 69.4837C496.766 69.1873 497.063 69 497.388 69H500.613C500.937 69 501.234 69.1873 501.379 69.4837L501.571 69.875H504.143C504.617 69.875 505 70.2668 505 70.75C505 71.2332 504.617 71.625 504.143 71.625H493.857C493.384 71.625 493 71.2332 493 70.75C493 70.2668 493.384 69.875 493.857 69.875H496.429L496.621 69.4837ZM493.833 72.5H504.143V81.25C504.143 82.2152 503.374 83 502.429 83H495.547C494.625 83 493.833 82.2152 493.833 81.25V72.5ZM495.976 74.6875V80.8125C495.976 81.0531 496.193 81.25 496.404 81.25C496.664 81.25 496.833 81.0531 496.833 80.8125V74.6875C496.833 74.4469 496.664 74.25 496.404 74.25C496.193 74.25 495.976 74.4469 495.976 74.6875ZM498.547 74.6875V80.8125C498.547 81.0531 498.764 81.25 498.976 81.25C499.236 81.25 499.429 81.0531 499.429 80.8125V74.6875C499.429 74.4469 499.236 74.25 498.976 74.25C498.764 74.25 498.547 74.4469 498.547 74.6875ZM501.143 74.6875V80.8125C501.143 81.0531 501.336 81.25 501.571 81.25C501.807 81.25 502 81.0531 502 80.8125V74.6875C502 74.4469 501.807 74.25 501.571 74.25C501.336 74.25 501.143 74.4469 501.143 74.6875Z" fill="#F45C59"/>
<rect x="527" y="56" width="1" height="40" fill="#E6E6E6"/>
<path d="M562.001 80.3975C561.745 80.3975 561.489 80.295 561.294 80.0899L556.001 74.5339L550.707 80.0924C550.316 80.5025 549.684 80.5025 549.293 80.0924C548.902 79.6822 548.902 79.0178 549.293 78.6076L555.293 72.3076C555.684 71.8975 556.316 71.8975 556.707 72.3076L562.707 78.6076C563.098 79.0178 563.098 79.6822 562.707 80.0924C562.513 80.2958 562.257 80.3975 562.001 80.3975Z" fill="#1A1A1A"/>
<path d="M40 40H600H40ZM600 113H40V111H600V113ZM40 112V40V112ZM600 40V112V40Z" fill="#E6E6E6" mask="url(#path-4-outside-1_9212_96571)"/>
<path d="M40 113H600V233C600 237.418 596.418 241 592 241H48C43.5817 241 40 237.418 40 233V113Z" fill="white"/>
<rect x="64" y="137" width="512" height="80" rx="4" fill="#EBF2FF"/>
<path d="M320.005 172.115L312.445 164.57L320.005 157.01L327.55 164.57L320.005 172.115ZM320.005 170.75L326.185 164.57L320.005 158.375L313.825 164.57L320.005 170.75Z" fill="#0059FF"/>
<path d="M296.123 191.305C296.123 191.056 296.084 190.836 296.006 190.646C295.933 190.45 295.801 190.274 295.61 190.118C295.425 189.962 295.166 189.813 294.834 189.671C294.507 189.53 294.092 189.386 293.589 189.239C293.062 189.083 292.585 188.91 292.161 188.719C291.736 188.524 291.372 188.302 291.069 188.053C290.767 187.804 290.535 187.518 290.374 187.196C290.212 186.874 290.132 186.505 290.132 186.09C290.132 185.675 290.217 185.292 290.388 184.94C290.559 184.588 290.803 184.283 291.121 184.024C291.443 183.761 291.826 183.556 292.271 183.409C292.715 183.263 293.21 183.189 293.757 183.189C294.558 183.189 295.237 183.343 295.793 183.651C296.355 183.954 296.782 184.352 297.075 184.845C297.368 185.333 297.515 185.855 297.515 186.412H296.108C296.108 186.012 296.023 185.658 295.852 185.35C295.681 185.038 295.422 184.793 295.076 184.618C294.729 184.437 294.29 184.347 293.757 184.347C293.254 184.347 292.839 184.422 292.512 184.574C292.185 184.725 291.941 184.93 291.78 185.189C291.624 185.448 291.545 185.743 291.545 186.075C291.545 186.3 291.592 186.505 291.685 186.69C291.782 186.871 291.931 187.04 292.131 187.196C292.336 187.352 292.595 187.496 292.908 187.628C293.225 187.76 293.604 187.887 294.043 188.009C294.648 188.18 295.171 188.37 295.61 188.58C296.05 188.79 296.411 189.027 296.694 189.291C296.982 189.549 297.195 189.845 297.332 190.177C297.473 190.504 297.544 190.875 297.544 191.29C297.544 191.725 297.456 192.118 297.28 192.469C297.104 192.821 296.853 193.121 296.526 193.37C296.199 193.619 295.806 193.812 295.347 193.949C294.893 194.081 294.385 194.146 293.823 194.146C293.33 194.146 292.844 194.078 292.366 193.941C291.892 193.805 291.46 193.6 291.069 193.326C290.684 193.053 290.374 192.716 290.139 192.315C289.91 191.91 289.795 191.441 289.795 190.909H291.201C291.201 191.275 291.272 191.59 291.414 191.854C291.555 192.113 291.748 192.328 291.992 192.499C292.241 192.669 292.522 192.796 292.834 192.879C293.152 192.958 293.481 192.997 293.823 192.997C294.316 192.997 294.734 192.928 295.076 192.792C295.417 192.655 295.676 192.459 295.852 192.206C296.033 191.952 296.123 191.651 296.123 191.305ZM301.147 192.594L303.184 186.075H304.077L303.901 187.372L301.829 194H300.957L301.147 192.594ZM299.778 186.075L301.514 192.667L301.638 194H300.723L298.423 186.075H299.778ZM306.025 192.616L307.681 186.075H309.028L306.729 194H305.82L306.025 192.616ZM304.275 186.075L306.267 192.484L306.494 194H305.63L303.499 187.357L303.323 186.075H304.275ZM315.093 192.645V188.565C315.093 188.253 315.029 187.982 314.902 187.752C314.78 187.518 314.595 187.337 314.346 187.21C314.097 187.083 313.789 187.02 313.423 187.02C313.081 187.02 312.781 187.079 312.522 187.196C312.268 187.313 312.068 187.467 311.921 187.657C311.78 187.848 311.709 188.053 311.709 188.272H310.354C310.354 187.989 310.427 187.708 310.574 187.43C310.72 187.152 310.93 186.9 311.204 186.676C311.482 186.446 311.814 186.266 312.2 186.134C312.59 185.997 313.025 185.929 313.503 185.929C314.08 185.929 314.587 186.026 315.027 186.222C315.471 186.417 315.818 186.712 316.067 187.108C316.321 187.499 316.448 187.989 316.448 188.58V192.271C316.448 192.535 316.47 192.816 316.514 193.114C316.562 193.412 316.633 193.668 316.726 193.883V194H315.312C315.244 193.844 315.19 193.636 315.151 193.377C315.112 193.114 315.093 192.87 315.093 192.645ZM315.327 189.195L315.342 190.147H313.972C313.586 190.147 313.242 190.179 312.939 190.243C312.637 190.301 312.383 190.392 312.178 190.514C311.973 190.636 311.816 190.79 311.709 190.975C311.602 191.156 311.548 191.368 311.548 191.612C311.548 191.861 311.604 192.088 311.716 192.293C311.829 192.499 311.997 192.662 312.222 192.784C312.451 192.901 312.732 192.96 313.064 192.96C313.479 192.96 313.845 192.872 314.163 192.696C314.48 192.521 314.731 192.306 314.917 192.052C315.107 191.798 315.21 191.551 315.225 191.312L315.803 191.964C315.769 192.169 315.676 192.396 315.525 192.645C315.374 192.894 315.171 193.133 314.917 193.363C314.668 193.587 314.37 193.775 314.023 193.927C313.682 194.073 313.296 194.146 312.866 194.146C312.329 194.146 311.858 194.042 311.453 193.832C311.052 193.622 310.74 193.341 310.515 192.989C310.295 192.633 310.186 192.235 310.186 191.795C310.186 191.371 310.269 190.997 310.435 190.675C310.601 190.348 310.84 190.077 311.152 189.862C311.465 189.642 311.841 189.476 312.28 189.364C312.72 189.251 313.21 189.195 313.752 189.195H315.327ZM319.934 187.599V197.047H318.572V186.075H319.817L319.934 187.599ZM325.273 189.972V190.125C325.273 190.702 325.205 191.236 325.068 191.729C324.932 192.218 324.731 192.643 324.468 193.004C324.209 193.365 323.889 193.646 323.508 193.846C323.127 194.046 322.69 194.146 322.197 194.146C321.694 194.146 321.25 194.063 320.864 193.897C320.479 193.731 320.151 193.49 319.883 193.172C319.614 192.855 319.399 192.474 319.238 192.03C319.082 191.585 318.975 191.085 318.916 190.528V189.708C318.975 189.122 319.084 188.597 319.246 188.133C319.407 187.669 319.619 187.274 319.883 186.947C320.151 186.615 320.476 186.363 320.857 186.192C321.238 186.017 321.677 185.929 322.175 185.929C322.673 185.929 323.115 186.026 323.501 186.222C323.887 186.412 324.211 186.686 324.475 187.042C324.739 187.398 324.937 187.826 325.068 188.324C325.205 188.817 325.273 189.366 325.273 189.972ZM323.911 190.125V189.972C323.911 189.576 323.87 189.205 323.787 188.858C323.704 188.507 323.574 188.199 323.398 187.936C323.228 187.667 323.008 187.457 322.739 187.306C322.471 187.149 322.151 187.071 321.78 187.071C321.438 187.071 321.14 187.13 320.886 187.247C320.637 187.364 320.425 187.523 320.249 187.723C320.073 187.918 319.929 188.143 319.817 188.397C319.709 188.646 319.629 188.905 319.575 189.173V191.07C319.673 191.412 319.81 191.734 319.985 192.037C320.161 192.335 320.396 192.577 320.688 192.762C320.981 192.943 321.35 193.033 321.794 193.033C322.161 193.033 322.476 192.958 322.739 192.806C323.008 192.65 323.228 192.438 323.398 192.169C323.574 191.9 323.704 191.593 323.787 191.246C323.87 190.895 323.911 190.521 323.911 190.125ZM332.07 187.65V194H330.708V186.075H331.997L332.07 187.65ZM331.792 189.737L331.162 189.715C331.167 189.173 331.238 188.673 331.375 188.214C331.511 187.75 331.714 187.347 331.982 187.005C332.251 186.664 332.585 186.4 332.986 186.214C333.386 186.024 333.85 185.929 334.377 185.929C334.749 185.929 335.09 185.982 335.403 186.09C335.715 186.192 335.986 186.356 336.216 186.581C336.445 186.805 336.624 187.093 336.75 187.445C336.877 187.796 336.941 188.221 336.941 188.719V194H335.586V188.785C335.586 188.37 335.515 188.038 335.374 187.789C335.237 187.54 335.042 187.359 334.788 187.247C334.534 187.13 334.236 187.071 333.894 187.071C333.494 187.071 333.159 187.142 332.891 187.284C332.622 187.425 332.407 187.621 332.246 187.87C332.085 188.119 331.968 188.404 331.895 188.727C331.826 189.044 331.792 189.381 331.792 189.737ZM336.926 188.99L336.018 189.269C336.023 188.834 336.094 188.417 336.23 188.016C336.372 187.616 336.575 187.259 336.838 186.947C337.107 186.634 337.437 186.388 337.827 186.207C338.218 186.021 338.665 185.929 339.167 185.929C339.592 185.929 339.968 185.985 340.295 186.097C340.627 186.209 340.906 186.383 341.13 186.617C341.36 186.847 341.533 187.142 341.65 187.503C341.768 187.865 341.826 188.294 341.826 188.792V194H340.464V188.778C340.464 188.333 340.393 187.989 340.251 187.745C340.115 187.496 339.919 187.323 339.666 187.225C339.417 187.123 339.119 187.071 338.772 187.071C338.474 187.071 338.21 187.123 337.981 187.225C337.751 187.328 337.559 187.469 337.402 187.65C337.246 187.826 337.126 188.028 337.043 188.258C336.965 188.487 336.926 188.731 336.926 188.99ZM347.166 194.146C346.614 194.146 346.113 194.054 345.664 193.868C345.22 193.678 344.836 193.412 344.514 193.07C344.197 192.728 343.953 192.323 343.782 191.854C343.611 191.385 343.525 190.873 343.525 190.316V190.008C343.525 189.364 343.621 188.79 343.811 188.287C344.001 187.779 344.26 187.35 344.587 186.998C344.915 186.646 345.286 186.38 345.701 186.2C346.116 186.019 346.545 185.929 346.99 185.929C347.556 185.929 348.044 186.026 348.455 186.222C348.87 186.417 349.209 186.69 349.473 187.042C349.736 187.389 349.932 187.799 350.059 188.272C350.186 188.741 350.249 189.254 350.249 189.811V190.418H344.331V189.312H348.894V189.21C348.875 188.858 348.801 188.517 348.674 188.185C348.552 187.853 348.357 187.579 348.088 187.364C347.82 187.149 347.454 187.042 346.99 187.042C346.682 187.042 346.399 187.108 346.14 187.24C345.881 187.367 345.659 187.557 345.474 187.811C345.288 188.065 345.144 188.375 345.042 188.741C344.939 189.107 344.888 189.53 344.888 190.008V190.316C344.888 190.692 344.939 191.046 345.042 191.378C345.149 191.705 345.303 191.993 345.503 192.242C345.708 192.491 345.955 192.687 346.243 192.828C346.536 192.97 346.868 193.041 347.239 193.041C347.717 193.041 348.123 192.943 348.455 192.748C348.787 192.552 349.077 192.291 349.326 191.964L350.146 192.616C349.976 192.875 349.758 193.121 349.495 193.355C349.231 193.59 348.906 193.78 348.521 193.927C348.14 194.073 347.688 194.146 347.166 194.146Z" fill="#0059FF"/>
<rect x="64" y="137" width="512" height="80" rx="4" stroke="#0059FF" stroke-dasharray="2 2"/>
<rect x="38" y="38" width="564" height="205" rx="10" stroke="#1A1A1A" stroke-opacity="0.1" stroke-width="4"/>
</svg>
