<svg width="640" height="310" viewBox="0 0 640 310" fill="none" xmlns="http://www.w3.org/2000/svg">
<rect width="640" height="310" rx="16" fill="#F8F8F8"/>
<g filter="url(#filter0_d_7688_86962)">
<rect x="32" y="119" width="576" height="72" rx="4" fill="white" shape-rendering="crispEdges"/>
<path d="M66 148.5C66 149.328 65.3284 150 64.5 150C63.6716 150 63 149.328 63 148.5C63 147.672 63.6716 147 64.5 147C65.3284 147 66 147.672 66 148.5Z" fill="#AAAAAA"/>
<path d="M72 148.5C72 149.328 71.3284 150 70.5 150C69.6716 150 69 149.328 69 148.5C69 147.672 69.6716 147 70.5 147C71.3284 147 72 147.672 72 148.5Z" fill="#AAAAAA"/>
<path d="M72 155C72 155.828 71.3284 156.5 70.5 156.5C69.6716 156.5 69 155.828 69 155C69 154.172 69.6716 153.5 70.5 153.5C71.3284 153.5 72 154.172 72 155Z" fill="#AAAAAA"/>
<path d="M66 155C66 155.828 65.3284 156.5 64.5 156.5C63.6716 156.5 63 155.828 63 155C63 154.172 63.6716 153.5 64.5 153.5C65.3284 153.5 66 154.172 66 155Z" fill="#AAAAAA"/>
<path d="M66 161.5C66 162.328 65.3284 163 64.5 163C63.6716 163 63 162.328 63 161.5C63 160.672 63.6716 160 64.5 160C65.3284 160 66 160.672 66 161.5Z" fill="#AAAAAA"/>
<path d="M72 161.5C72 162.328 71.3284 163 70.5 163C69.6716 163 69 162.328 69 161.5C69 160.672 69.6716 160 70.5 160C71.3284 160 72 160.672 72 161.5Z" fill="#AAAAAA"/>
<path d="M93 151.333C93 150.321 93.7834 149.5 94.75 149.5H105.25C106.215 149.5 107 150.321 107 151.333V158.667C107 159.678 106.215 160.5 105.25 160.5H94.75C93.7834 160.5 93 159.678 93 158.667V151.333ZM94.3125 151.333V151.966L99.0293 156.023C99.5926 156.51 100.407 156.51 100.971 156.023L105.688 151.966V151.308C105.688 151.081 105.491 150.849 105.25 150.849H94.75C94.5083 150.849 94.3125 151.081 94.3125 151.308V151.333ZM94.3125 153.745V158.667C94.3125 158.919 94.5083 159.125 94.75 159.125H105.25C105.491 159.125 105.688 158.919 105.688 158.667V153.745L101.805 157.085C100.755 157.988 99.2453 157.988 98.1707 157.085L94.3125 153.745Z" fill="#1A1A1A"/>
<path d="M122.922 149.336V160H121.084V149.336H122.922ZM127.273 154.001V155.459H122.454V154.001H127.273ZM127.881 149.336V150.801H122.454V149.336H127.881ZM131.06 152.075V160H129.287V152.075H131.06ZM129.17 149.995C129.17 149.727 129.258 149.504 129.434 149.329C129.614 149.148 129.863 149.058 130.181 149.058C130.493 149.058 130.74 149.148 130.92 149.329C131.101 149.504 131.191 149.727 131.191 149.995C131.191 150.259 131.101 150.479 130.92 150.654C130.74 150.83 130.493 150.918 130.181 150.918C129.863 150.918 129.614 150.83 129.434 150.654C129.258 150.479 129.17 150.259 129.17 149.995ZM136.487 160.146C135.901 160.146 135.371 160.051 134.897 159.861C134.429 159.666 134.028 159.395 133.696 159.048C133.369 158.701 133.118 158.293 132.942 157.825C132.766 157.356 132.678 156.851 132.678 156.309V156.016C132.678 155.396 132.769 154.834 132.949 154.331C133.13 153.828 133.381 153.398 133.704 153.042C134.026 152.681 134.407 152.405 134.846 152.214C135.286 152.024 135.762 151.929 136.274 151.929C136.841 151.929 137.336 152.024 137.761 152.214C138.186 152.405 138.538 152.673 138.816 153.02C139.099 153.362 139.309 153.77 139.446 154.243C139.587 154.717 139.658 155.239 139.658 155.811V156.565H133.535V155.298H137.915V155.159C137.905 154.841 137.842 154.543 137.725 154.265C137.612 153.987 137.439 153.762 137.205 153.591C136.97 153.42 136.658 153.335 136.267 153.335C135.974 153.335 135.713 153.398 135.483 153.525C135.259 153.647 135.071 153.826 134.919 154.06C134.768 154.294 134.651 154.578 134.568 154.91C134.49 155.237 134.451 155.605 134.451 156.016V156.309C134.451 156.655 134.497 156.978 134.59 157.275C134.688 157.568 134.829 157.825 135.015 158.044C135.2 158.264 135.425 158.438 135.688 158.564C135.952 158.687 136.252 158.748 136.589 158.748C137.014 158.748 137.393 158.662 137.725 158.491C138.057 158.32 138.345 158.079 138.589 157.766L139.519 158.667C139.348 158.916 139.126 159.155 138.853 159.385C138.579 159.609 138.245 159.792 137.849 159.934C137.458 160.076 137.004 160.146 136.487 160.146ZM142.925 148.75V160H141.152V148.75H142.925ZM149.692 158.359V148.75H151.465V160H149.861L149.692 158.359ZM144.536 156.125V155.972C144.536 155.371 144.607 154.824 144.749 154.331C144.89 153.833 145.095 153.406 145.364 153.049C145.632 152.688 145.959 152.412 146.345 152.222C146.731 152.026 147.166 151.929 147.649 151.929C148.127 151.929 148.547 152.021 148.909 152.207C149.27 152.393 149.578 152.659 149.832 153.005C150.085 153.347 150.288 153.757 150.439 154.236C150.591 154.709 150.698 155.237 150.762 155.818V156.309C150.698 156.875 150.591 157.393 150.439 157.861C150.288 158.33 150.085 158.735 149.832 159.077C149.578 159.419 149.268 159.683 148.901 159.868C148.54 160.054 148.118 160.146 147.634 160.146C147.156 160.146 146.724 160.046 146.338 159.846C145.957 159.646 145.632 159.365 145.364 159.004C145.095 158.643 144.89 158.218 144.749 157.729C144.607 157.236 144.536 156.702 144.536 156.125ZM146.301 155.972V156.125C146.301 156.487 146.333 156.824 146.396 157.136C146.465 157.449 146.57 157.725 146.711 157.964C146.853 158.198 147.036 158.384 147.261 158.521C147.49 158.652 147.764 158.718 148.081 158.718C148.481 158.718 148.811 158.63 149.07 158.455C149.329 158.279 149.531 158.042 149.678 157.744C149.829 157.441 149.932 157.104 149.985 156.733V155.408C149.956 155.12 149.895 154.851 149.802 154.602C149.714 154.353 149.595 154.136 149.443 153.95C149.292 153.76 149.104 153.613 148.879 153.511C148.66 153.403 148.398 153.35 148.096 153.35C147.773 153.35 147.5 153.418 147.275 153.555C147.051 153.691 146.865 153.879 146.719 154.119C146.577 154.358 146.472 154.636 146.404 154.954C146.335 155.271 146.301 155.61 146.301 155.972ZM157.053 148.75H158.818V158.308L158.65 160H157.053V148.75ZM163.989 155.964V156.118C163.989 156.704 163.923 157.244 163.792 157.737C163.665 158.225 163.469 158.65 163.206 159.011C162.947 159.373 162.625 159.653 162.239 159.854C161.858 160.049 161.416 160.146 160.913 160.146C160.42 160.146 159.99 160.054 159.624 159.868C159.258 159.683 158.95 159.419 158.701 159.077C158.457 158.735 158.259 158.328 158.108 157.854C157.957 157.38 157.849 156.858 157.786 156.287V155.796C157.849 155.22 157.957 154.697 158.108 154.229C158.259 153.755 158.457 153.347 158.701 153.005C158.95 152.659 159.255 152.393 159.617 152.207C159.983 152.021 160.41 151.929 160.898 151.929C161.406 151.929 161.853 152.026 162.239 152.222C162.629 152.417 162.954 152.695 163.213 153.057C163.472 153.413 163.665 153.838 163.792 154.331C163.923 154.824 163.989 155.369 163.989 155.964ZM162.224 156.118V155.964C162.224 155.608 162.195 155.273 162.136 154.961C162.078 154.644 161.98 154.365 161.843 154.126C161.711 153.887 161.531 153.699 161.301 153.562C161.077 153.42 160.796 153.35 160.459 153.35C160.146 153.35 159.878 153.403 159.653 153.511C159.429 153.618 159.241 153.765 159.089 153.95C158.938 154.136 158.818 154.351 158.73 154.595C158.647 154.839 158.591 155.103 158.562 155.386V156.711C158.606 157.078 158.699 157.415 158.84 157.722C158.987 158.025 159.192 158.269 159.456 158.455C159.719 158.635 160.059 158.726 160.474 158.726C160.801 158.726 161.077 158.66 161.301 158.528C161.526 158.396 161.704 158.213 161.836 157.979C161.973 157.739 162.07 157.461 162.129 157.144C162.192 156.826 162.224 156.484 162.224 156.118ZM167.373 148.75V160H165.601V148.75H167.373ZM168.97 156.125V155.957C168.97 155.386 169.053 154.856 169.219 154.368C169.385 153.875 169.624 153.447 169.937 153.086C170.254 152.72 170.64 152.437 171.094 152.236C171.553 152.031 172.07 151.929 172.646 151.929C173.228 151.929 173.745 152.031 174.199 152.236C174.658 152.437 175.046 152.72 175.364 153.086C175.681 153.447 175.923 153.875 176.089 154.368C176.255 154.856 176.338 155.386 176.338 155.957V156.125C176.338 156.697 176.255 157.227 176.089 157.715C175.923 158.203 175.681 158.63 175.364 158.997C175.046 159.358 174.661 159.641 174.207 159.846C173.752 160.046 173.237 160.146 172.661 160.146C172.08 160.146 171.56 160.046 171.101 159.846C170.647 159.641 170.261 159.358 169.944 158.997C169.626 158.63 169.385 158.203 169.219 157.715C169.053 157.227 168.97 156.697 168.97 156.125ZM170.735 155.957V156.125C170.735 156.482 170.771 156.819 170.845 157.136C170.918 157.454 171.033 157.732 171.189 157.971C171.345 158.21 171.545 158.398 171.79 158.535C172.034 158.672 172.324 158.74 172.661 158.74C172.988 158.74 173.271 158.672 173.511 158.535C173.755 158.398 173.955 158.21 174.111 157.971C174.268 157.732 174.382 157.454 174.456 157.136C174.534 156.819 174.573 156.482 174.573 156.125V155.957C174.573 155.605 174.534 155.273 174.456 154.961C174.382 154.644 174.265 154.363 174.104 154.119C173.948 153.875 173.748 153.684 173.503 153.547C173.264 153.406 172.979 153.335 172.646 153.335C172.314 153.335 172.026 153.406 171.782 153.547C171.543 153.684 171.345 153.875 171.189 154.119C171.033 154.363 170.918 154.644 170.845 154.961C170.771 155.273 170.735 155.605 170.735 155.957ZM181.055 158.74C181.343 158.74 181.602 158.684 181.831 158.572C182.065 158.455 182.253 158.293 182.395 158.088C182.542 157.883 182.622 157.646 182.637 157.378H184.299C184.29 157.891 184.138 158.357 183.845 158.777C183.552 159.197 183.164 159.531 182.681 159.78C182.197 160.024 181.663 160.146 181.077 160.146C180.471 160.146 179.944 160.044 179.495 159.839C179.045 159.629 178.672 159.341 178.374 158.975C178.076 158.608 177.852 158.186 177.7 157.708C177.554 157.229 177.48 156.716 177.48 156.169V155.913C177.48 155.366 177.554 154.854 177.7 154.375C177.852 153.892 178.076 153.467 178.374 153.101C178.672 152.734 179.045 152.449 179.495 152.244C179.944 152.034 180.469 151.929 181.069 151.929C181.704 151.929 182.261 152.056 182.739 152.31C183.218 152.559 183.594 152.908 183.867 153.357C184.146 153.801 184.29 154.319 184.299 154.91H182.637C182.622 154.617 182.549 154.353 182.417 154.119C182.29 153.879 182.109 153.689 181.875 153.547C181.646 153.406 181.37 153.335 181.047 153.335C180.691 153.335 180.396 153.408 180.161 153.555C179.927 153.696 179.744 153.892 179.612 154.141C179.48 154.385 179.385 154.661 179.326 154.968C179.272 155.271 179.246 155.586 179.246 155.913V156.169C179.246 156.497 179.272 156.814 179.326 157.122C179.38 157.429 179.473 157.705 179.604 157.949C179.741 158.188 179.927 158.381 180.161 158.528C180.396 158.669 180.693 158.74 181.055 158.74ZM187.434 148.75V160H185.662V148.75H187.434ZM192.356 152.075L188.906 155.898L187.017 157.832L186.555 156.338L187.983 154.573L190.225 152.075H192.356ZM190.605 160L188.035 156.279L189.148 155.042L192.649 160H190.605ZM199.102 148.75V160H197.329V148.75H199.102ZM205.503 158.411V154.631C205.503 154.348 205.452 154.104 205.349 153.899C205.247 153.694 205.09 153.535 204.88 153.423C204.675 153.311 204.417 153.254 204.104 153.254C203.816 153.254 203.567 153.303 203.357 153.401C203.147 153.499 202.983 153.63 202.866 153.796C202.749 153.962 202.69 154.15 202.69 154.36H200.933C200.933 154.048 201.008 153.745 201.16 153.452C201.311 153.159 201.531 152.898 201.819 152.668C202.107 152.439 202.451 152.258 202.852 152.126C203.252 151.995 203.701 151.929 204.199 151.929C204.795 151.929 205.322 152.029 205.781 152.229C206.245 152.429 206.609 152.732 206.873 153.137C207.141 153.538 207.275 154.041 207.275 154.646V158.169C207.275 158.53 207.3 158.855 207.349 159.143C207.402 159.426 207.478 159.673 207.576 159.883V160H205.767C205.684 159.81 205.618 159.568 205.569 159.275C205.525 158.977 205.503 158.689 205.503 158.411ZM205.759 155.181L205.774 156.272H204.507C204.18 156.272 203.892 156.304 203.643 156.367C203.394 156.426 203.186 156.514 203.02 156.631C202.854 156.748 202.729 156.89 202.646 157.056C202.563 157.222 202.522 157.41 202.522 157.62C202.522 157.83 202.571 158.022 202.668 158.198C202.766 158.369 202.908 158.503 203.093 158.601C203.284 158.699 203.513 158.748 203.782 158.748C204.143 158.748 204.458 158.674 204.727 158.528C205 158.376 205.215 158.193 205.371 157.979C205.527 157.759 205.61 157.551 205.62 157.356L206.191 158.14C206.133 158.34 206.033 158.555 205.891 158.784C205.75 159.014 205.564 159.233 205.334 159.443C205.11 159.648 204.839 159.817 204.521 159.949C204.209 160.081 203.848 160.146 203.438 160.146C202.92 160.146 202.458 160.044 202.053 159.839C201.648 159.629 201.331 159.348 201.101 158.997C200.872 158.64 200.757 158.237 200.757 157.788C200.757 157.368 200.835 156.997 200.991 156.675C201.152 156.348 201.387 156.074 201.694 155.854C202.007 155.635 202.388 155.469 202.837 155.356C203.286 155.239 203.799 155.181 204.375 155.181H205.759ZM209.128 148.75H210.894V158.308L210.725 160H209.128V148.75ZM216.064 155.964V156.118C216.064 156.704 215.999 157.244 215.867 157.737C215.74 158.225 215.544 158.65 215.281 159.011C215.022 159.373 214.7 159.653 214.314 159.854C213.933 160.049 213.491 160.146 212.988 160.146C212.495 160.146 212.065 160.054 211.699 159.868C211.333 159.683 211.025 159.419 210.776 159.077C210.532 158.735 210.334 158.328 210.183 157.854C210.032 157.38 209.924 156.858 209.861 156.287V155.796C209.924 155.22 210.032 154.697 210.183 154.229C210.334 153.755 210.532 153.347 210.776 153.005C211.025 152.659 211.331 152.393 211.692 152.207C212.058 152.021 212.485 151.929 212.974 151.929C213.481 151.929 213.928 152.026 214.314 152.222C214.705 152.417 215.029 152.695 215.288 153.057C215.547 153.413 215.74 153.838 215.867 154.331C215.999 154.824 216.064 155.369 216.064 155.964ZM214.299 156.118V155.964C214.299 155.608 214.27 155.273 214.211 154.961C214.153 154.644 214.055 154.365 213.918 154.126C213.787 153.887 213.606 153.699 213.376 153.562C213.152 153.42 212.871 153.35 212.534 153.35C212.222 153.35 211.953 153.403 211.729 153.511C211.504 153.618 211.316 153.765 211.165 153.95C211.013 154.136 210.894 154.351 210.806 154.595C210.723 154.839 210.667 155.103 210.637 155.386V156.711C210.681 157.078 210.774 157.415 210.916 157.722C211.062 158.025 211.267 158.269 211.531 158.455C211.794 158.635 212.134 158.726 212.549 158.726C212.876 158.726 213.152 158.66 213.376 158.528C213.601 158.396 213.779 158.213 213.911 157.979C214.048 157.739 214.146 157.461 214.204 157.144C214.268 156.826 214.299 156.484 214.299 156.118ZM221.052 160.146C220.466 160.146 219.937 160.051 219.463 159.861C218.994 159.666 218.594 159.395 218.262 159.048C217.935 158.701 217.683 158.293 217.507 157.825C217.332 157.356 217.244 156.851 217.244 156.309V156.016C217.244 155.396 217.334 154.834 217.515 154.331C217.695 153.828 217.947 153.398 218.269 153.042C218.591 152.681 218.972 152.405 219.412 152.214C219.851 152.024 220.327 151.929 220.84 151.929C221.406 151.929 221.902 152.024 222.327 152.214C222.751 152.405 223.103 152.673 223.381 153.02C223.665 153.362 223.875 153.77 224.011 154.243C224.153 154.717 224.224 155.239 224.224 155.811V156.565H218.101V155.298H222.48V155.159C222.471 154.841 222.407 154.543 222.29 154.265C222.178 153.987 222.004 153.762 221.77 153.591C221.536 153.42 221.223 153.335 220.833 153.335C220.54 153.335 220.278 153.398 220.049 153.525C219.824 153.647 219.636 153.826 219.485 154.06C219.333 154.294 219.216 154.578 219.133 154.91C219.055 155.237 219.016 155.605 219.016 156.016V156.309C219.016 156.655 219.062 156.978 219.155 157.275C219.253 157.568 219.395 157.825 219.58 158.044C219.766 158.264 219.99 158.438 220.254 158.564C220.518 158.687 220.818 158.748 221.155 158.748C221.58 158.748 221.958 158.662 222.29 158.491C222.622 158.32 222.91 158.079 223.154 157.766L224.084 158.667C223.914 158.916 223.691 159.155 223.418 159.385C223.145 159.609 222.81 159.792 222.415 159.934C222.024 160.076 221.57 160.146 221.052 160.146ZM227.49 148.75V160H225.718V148.75H227.49Z" fill="#1A1A1A"/>
<path d="M332.856 149.758V159H331.631V149.758H332.856ZM336.728 153.916V154.918H332.589V153.916H336.728ZM337.356 149.758V150.761H332.589V149.758H337.356ZM339.915 152.132V159H338.734V152.132H339.915ZM338.645 150.31C338.645 150.12 338.702 149.959 338.816 149.828C338.935 149.696 339.108 149.631 339.337 149.631C339.561 149.631 339.733 149.696 339.851 149.828C339.974 149.959 340.035 150.12 340.035 150.31C340.035 150.492 339.974 150.649 339.851 150.78C339.733 150.907 339.561 150.97 339.337 150.97C339.108 150.97 338.935 150.907 338.816 150.78C338.702 150.649 338.645 150.492 338.645 150.31ZM344.65 159.127C344.172 159.127 343.738 159.047 343.349 158.886C342.964 158.721 342.631 158.49 342.352 158.194C342.077 157.898 341.865 157.546 341.717 157.14C341.569 156.734 341.495 156.29 341.495 155.807V155.541C341.495 154.982 341.578 154.485 341.743 154.049C341.908 153.609 342.132 153.236 342.416 152.932C342.699 152.627 343.021 152.396 343.38 152.24C343.74 152.083 344.112 152.005 344.498 152.005C344.988 152.005 345.412 152.09 345.767 152.259C346.127 152.428 346.421 152.665 346.649 152.97C346.878 153.27 347.047 153.626 347.157 154.036C347.267 154.442 347.322 154.887 347.322 155.369V155.896H342.193V154.938H346.148V154.849C346.131 154.544 346.068 154.248 345.958 153.96C345.852 153.672 345.682 153.435 345.45 153.249C345.217 153.063 344.9 152.97 344.498 152.97C344.231 152.97 343.986 153.027 343.761 153.141C343.537 153.251 343.344 153.416 343.184 153.636C343.023 153.856 342.898 154.125 342.809 154.442C342.72 154.76 342.676 155.126 342.676 155.541V155.807C342.676 156.133 342.72 156.44 342.809 156.728C342.902 157.011 343.035 157.261 343.209 157.477C343.387 157.692 343.6 157.862 343.85 157.984C344.104 158.107 344.392 158.168 344.713 158.168C345.128 158.168 345.479 158.084 345.767 157.915C346.055 157.745 346.307 157.519 346.522 157.235L347.233 157.8C347.085 158.025 346.897 158.238 346.668 158.441C346.44 158.645 346.159 158.81 345.824 158.937C345.494 159.063 345.103 159.127 344.65 159.127ZM349.969 149.25V159H348.789V149.25H349.969ZM356.184 157.667V149.25H357.364V159H356.285L356.184 157.667ZM351.562 155.642V155.509C351.562 154.984 351.626 154.508 351.753 154.081C351.884 153.649 352.068 153.279 352.305 152.97C352.546 152.661 352.832 152.424 353.162 152.259C353.496 152.09 353.869 152.005 354.279 152.005C354.711 152.005 355.088 152.081 355.409 152.233C355.735 152.382 356.01 152.599 356.234 152.887C356.463 153.171 356.643 153.514 356.774 153.916C356.905 154.318 356.996 154.772 357.047 155.28V155.864C357 156.368 356.909 156.821 356.774 157.223C356.643 157.625 356.463 157.967 356.234 158.251C356.01 158.535 355.735 158.752 355.409 158.905C355.083 159.053 354.702 159.127 354.267 159.127C353.865 159.127 353.496 159.04 353.162 158.867C352.832 158.693 352.546 158.45 352.305 158.137C352.068 157.824 351.884 157.455 351.753 157.032C351.626 156.605 351.562 156.141 351.562 155.642ZM352.743 155.509V155.642C352.743 155.985 352.777 156.306 352.845 156.607C352.917 156.907 353.027 157.172 353.175 157.4C353.323 157.629 353.511 157.809 353.74 157.94C353.968 158.067 354.241 158.13 354.559 158.13C354.948 158.13 355.267 158.048 355.517 157.883C355.771 157.718 355.974 157.5 356.126 157.229C356.279 156.958 356.397 156.664 356.482 156.347V154.817C356.431 154.584 356.357 154.36 356.26 154.144C356.167 153.924 356.044 153.729 355.892 153.56C355.743 153.387 355.559 153.249 355.339 153.147C355.124 153.046 354.868 152.995 354.571 152.995C354.25 152.995 353.972 153.063 353.74 153.198C353.511 153.329 353.323 153.511 353.175 153.744C353.027 153.973 352.917 154.239 352.845 154.544C352.777 154.844 352.743 155.166 352.743 155.509ZM362.411 149.25H363.591V157.667L363.49 159H362.411V149.25ZM368.231 155.509V155.642C368.231 156.141 368.172 156.605 368.054 157.032C367.935 157.455 367.762 157.824 367.533 158.137C367.305 158.45 367.025 158.693 366.695 158.867C366.365 159.04 365.986 159.127 365.559 159.127C365.123 159.127 364.74 159.053 364.41 158.905C364.084 158.752 363.809 158.535 363.585 158.251C363.361 157.967 363.181 157.625 363.045 157.223C362.914 156.821 362.823 156.368 362.772 155.864V155.28C362.823 154.772 362.914 154.318 363.045 153.916C363.181 153.514 363.361 153.171 363.585 152.887C363.809 152.599 364.084 152.382 364.41 152.233C364.736 152.081 365.115 152.005 365.546 152.005C365.978 152.005 366.361 152.09 366.695 152.259C367.03 152.424 367.309 152.661 367.533 152.97C367.762 153.279 367.935 153.649 368.054 154.081C368.172 154.508 368.231 154.984 368.231 155.509ZM367.051 155.642V155.509C367.051 155.166 367.019 154.844 366.956 154.544C366.892 154.239 366.791 153.973 366.651 153.744C366.511 153.511 366.327 153.329 366.099 153.198C365.87 153.063 365.589 152.995 365.254 152.995C364.958 152.995 364.7 153.046 364.48 153.147C364.264 153.249 364.08 153.387 363.928 153.56C363.775 153.729 363.651 153.924 363.553 154.144C363.46 154.36 363.39 154.584 363.344 154.817V156.347C363.411 156.643 363.521 156.929 363.674 157.204C363.83 157.474 364.038 157.697 364.296 157.87C364.558 158.044 364.882 158.13 365.267 158.13C365.584 158.13 365.855 158.067 366.08 157.94C366.308 157.809 366.492 157.629 366.632 157.4C366.776 157.172 366.882 156.907 366.949 156.607C367.017 156.306 367.051 155.985 367.051 155.642ZM370.993 149.25V159H369.812V149.25H370.993ZM372.567 155.642V155.496C372.567 155.001 372.639 154.542 372.783 154.119C372.927 153.691 373.134 153.321 373.405 153.008C373.676 152.69 374.004 152.445 374.389 152.271C374.774 152.094 375.205 152.005 375.684 152.005C376.166 152.005 376.6 152.094 376.985 152.271C377.374 152.445 377.704 152.69 377.975 153.008C378.25 153.321 378.46 153.691 378.604 154.119C378.747 154.542 378.819 155.001 378.819 155.496V155.642C378.819 156.137 378.747 156.596 378.604 157.02C378.46 157.443 378.25 157.813 377.975 158.13C377.704 158.444 377.376 158.689 376.991 158.867C376.61 159.04 376.179 159.127 375.696 159.127C375.214 159.127 374.78 159.04 374.395 158.867C374.01 158.689 373.68 158.444 373.405 158.13C373.134 157.813 372.927 157.443 372.783 157.02C372.639 156.596 372.567 156.137 372.567 155.642ZM373.741 155.496V155.642C373.741 155.985 373.781 156.309 373.862 156.613C373.942 156.914 374.063 157.18 374.224 157.413C374.389 157.646 374.594 157.83 374.839 157.965C375.085 158.097 375.37 158.162 375.696 158.162C376.018 158.162 376.299 158.097 376.541 157.965C376.786 157.83 376.989 157.646 377.15 157.413C377.311 157.18 377.431 156.914 377.512 156.613C377.596 156.309 377.639 155.985 377.639 155.642V155.496C377.639 155.158 377.596 154.838 377.512 154.538C377.431 154.233 377.309 153.964 377.144 153.731C376.983 153.494 376.78 153.308 376.534 153.173C376.293 153.037 376.009 152.97 375.684 152.97C375.362 152.97 375.078 153.037 374.833 153.173C374.592 153.308 374.389 153.494 374.224 153.731C374.063 153.964 373.942 154.233 373.862 154.538C373.781 154.838 373.741 155.158 373.741 155.496ZM383.041 158.162C383.32 158.162 383.578 158.105 383.815 157.991C384.052 157.876 384.247 157.72 384.399 157.521C384.551 157.318 384.638 157.087 384.659 156.829H385.776C385.755 157.235 385.618 157.614 385.364 157.965C385.114 158.312 384.786 158.594 384.38 158.81C383.974 159.021 383.527 159.127 383.041 159.127C382.524 159.127 382.074 159.036 381.688 158.854C381.308 158.672 380.99 158.422 380.736 158.105C380.487 157.788 380.298 157.424 380.171 157.013C380.049 156.598 379.987 156.16 379.987 155.699V155.433C379.987 154.971 380.049 154.535 380.171 154.125C380.298 153.71 380.487 153.344 380.736 153.027C380.99 152.709 381.308 152.46 381.688 152.278C382.074 152.096 382.524 152.005 383.041 152.005C383.578 152.005 384.048 152.115 384.45 152.335C384.852 152.551 385.167 152.847 385.396 153.224C385.628 153.596 385.755 154.019 385.776 154.493H384.659C384.638 154.21 384.558 153.954 384.418 153.725C384.283 153.497 384.096 153.315 383.859 153.179C383.627 153.04 383.354 152.97 383.041 152.97C382.681 152.97 382.378 153.042 382.133 153.186C381.892 153.325 381.699 153.516 381.555 153.757C381.416 153.994 381.314 154.258 381.25 154.55C381.191 154.838 381.162 155.132 381.162 155.433V155.699C381.162 156 381.191 156.296 381.25 156.588C381.31 156.88 381.409 157.144 381.549 157.381C381.693 157.618 381.885 157.809 382.126 157.953C382.372 158.092 382.677 158.162 383.041 158.162ZM388.277 149.25V159H387.097V149.25H388.277ZM392.473 152.132L389.477 155.337L387.801 157.077L387.706 155.826L388.906 154.392L391.039 152.132H392.473ZM391.4 159L388.95 155.725L389.56 154.677L392.784 159H391.4ZM398.084 149.25V159H396.91V149.25H398.084ZM397.805 155.306L397.316 155.287C397.321 154.817 397.39 154.383 397.526 153.985C397.661 153.583 397.852 153.234 398.097 152.938C398.343 152.642 398.635 152.413 398.973 152.252C399.316 152.087 399.695 152.005 400.109 152.005C400.448 152.005 400.753 152.051 401.023 152.145C401.294 152.233 401.525 152.377 401.715 152.576C401.91 152.775 402.058 153.033 402.16 153.351C402.261 153.664 402.312 154.047 402.312 154.5V159H401.131V154.487C401.131 154.127 401.078 153.839 400.973 153.624C400.867 153.403 400.712 153.245 400.509 153.147C400.306 153.046 400.056 152.995 399.76 152.995C399.468 152.995 399.202 153.056 398.96 153.179C398.723 153.302 398.518 153.471 398.345 153.687C398.175 153.903 398.042 154.15 397.945 154.43C397.852 154.705 397.805 154.997 397.805 155.306ZM406.92 159.127C406.442 159.127 406.008 159.047 405.619 158.886C405.234 158.721 404.902 158.49 404.623 158.194C404.347 157.898 404.136 157.546 403.988 157.14C403.84 156.734 403.766 156.29 403.766 155.807V155.541C403.766 154.982 403.848 154.485 404.013 154.049C404.178 153.609 404.403 153.236 404.686 152.932C404.97 152.627 405.291 152.396 405.651 152.24C406.011 152.083 406.383 152.005 406.768 152.005C407.259 152.005 407.682 152.09 408.038 152.259C408.397 152.428 408.691 152.665 408.92 152.97C409.148 153.27 409.318 153.626 409.428 154.036C409.538 154.442 409.593 154.887 409.593 155.369V155.896H404.464V154.938H408.418V154.849C408.402 154.544 408.338 154.248 408.228 153.96C408.122 153.672 407.953 153.435 407.72 153.249C407.487 153.063 407.17 152.97 406.768 152.97C406.501 152.97 406.256 153.027 406.032 153.141C405.807 153.251 405.615 153.416 405.454 153.636C405.293 153.856 405.168 154.125 405.08 154.442C404.991 154.76 404.946 155.126 404.946 155.541V155.807C404.946 156.133 404.991 156.44 405.08 156.728C405.173 157.011 405.306 157.261 405.479 157.477C405.657 157.692 405.871 157.862 406.121 157.984C406.375 158.107 406.662 158.168 406.984 158.168C407.399 158.168 407.75 158.084 408.038 157.915C408.325 157.745 408.577 157.519 408.793 157.235L409.504 157.8C409.356 158.025 409.167 158.238 408.939 158.441C408.71 158.645 408.429 158.81 408.095 158.937C407.765 159.063 407.373 159.127 406.92 159.127ZM412.138 153.452V161.641H410.958V152.132H412.037L412.138 153.452ZM416.766 155.509V155.642C416.766 156.141 416.706 156.605 416.588 157.032C416.469 157.455 416.296 157.824 416.067 158.137C415.843 158.45 415.566 158.693 415.236 158.867C414.906 159.04 414.527 159.127 414.1 159.127C413.664 159.127 413.279 159.055 412.944 158.911C412.61 158.767 412.326 158.558 412.094 158.283C411.861 158.008 411.675 157.678 411.535 157.292C411.4 156.907 411.307 156.474 411.256 155.991V155.28C411.307 154.772 411.402 154.318 411.542 153.916C411.681 153.514 411.865 153.171 412.094 152.887C412.326 152.599 412.608 152.382 412.938 152.233C413.268 152.081 413.649 152.005 414.081 152.005C414.512 152.005 414.895 152.09 415.229 152.259C415.564 152.424 415.845 152.661 416.074 152.97C416.302 153.279 416.474 153.649 416.588 154.081C416.706 154.508 416.766 154.984 416.766 155.509ZM415.585 155.642V155.509C415.585 155.166 415.549 154.844 415.477 154.544C415.405 154.239 415.293 153.973 415.141 153.744C414.993 153.511 414.802 153.329 414.569 153.198C414.337 153.063 414.059 152.995 413.738 152.995C413.442 152.995 413.183 153.046 412.963 153.147C412.748 153.249 412.563 153.387 412.411 153.56C412.259 153.729 412.134 153.924 412.037 154.144C411.944 154.36 411.874 154.584 411.827 154.817V156.461C411.912 156.757 412.03 157.036 412.183 157.299C412.335 157.557 412.538 157.766 412.792 157.927C413.046 158.084 413.365 158.162 413.75 158.162C414.068 158.162 414.341 158.097 414.569 157.965C414.802 157.83 414.993 157.646 415.141 157.413C415.293 157.18 415.405 156.914 415.477 156.613C415.549 156.309 415.585 155.985 415.585 155.642ZM424.364 152.132V153.033H420.65V152.132H424.364ZM421.907 150.462H423.082V157.299C423.082 157.532 423.118 157.707 423.189 157.826C423.261 157.944 423.354 158.022 423.469 158.061C423.583 158.099 423.706 158.118 423.837 158.118C423.934 158.118 424.036 158.109 424.142 158.092C424.252 158.071 424.334 158.054 424.389 158.042L424.396 159C424.302 159.03 424.18 159.057 424.027 159.083C423.879 159.112 423.699 159.127 423.488 159.127C423.2 159.127 422.936 159.07 422.694 158.956C422.453 158.841 422.261 158.651 422.117 158.384C421.977 158.113 421.907 157.75 421.907 157.292V150.462ZM428.591 159.127C428.113 159.127 427.679 159.047 427.29 158.886C426.905 158.721 426.573 158.49 426.293 158.194C426.018 157.898 425.807 157.546 425.659 157.14C425.511 156.734 425.437 156.29 425.437 155.807V155.541C425.437 154.982 425.519 154.485 425.684 154.049C425.849 153.609 426.073 153.236 426.357 152.932C426.64 152.627 426.962 152.396 427.322 152.24C427.681 152.083 428.054 152.005 428.439 152.005C428.93 152.005 429.353 152.09 429.708 152.259C430.068 152.428 430.362 152.665 430.591 152.97C430.819 153.27 430.989 153.626 431.099 154.036C431.209 154.442 431.264 154.887 431.264 155.369V155.896H426.135V154.938H430.089V154.849C430.072 154.544 430.009 154.248 429.899 153.96C429.793 153.672 429.624 153.435 429.391 153.249C429.158 153.063 428.841 152.97 428.439 152.97C428.172 152.97 427.927 153.027 427.703 153.141C427.478 153.251 427.286 153.416 427.125 153.636C426.964 153.856 426.839 154.125 426.75 154.442C426.662 154.76 426.617 155.126 426.617 155.541V155.807C426.617 156.133 426.662 156.44 426.75 156.728C426.844 157.011 426.977 157.261 427.15 157.477C427.328 157.692 427.542 157.862 427.792 157.984C428.045 158.107 428.333 158.168 428.655 158.168C429.069 158.168 429.421 158.084 429.708 157.915C429.996 157.745 430.248 157.519 430.464 157.235L431.175 157.8C431.027 158.025 430.838 158.238 430.61 158.441C430.381 158.645 430.1 158.81 429.766 158.937C429.436 159.063 429.044 159.127 428.591 159.127ZM433.428 152.132L434.933 154.633L436.456 152.132H437.833L435.586 155.521L437.903 159H436.545L434.958 156.423L433.371 159H432.006L434.317 155.521L432.076 152.132H433.428ZM441.959 152.132V153.033H438.246V152.132H441.959ZM439.503 150.462H440.677V157.299C440.677 157.532 440.713 157.707 440.785 157.826C440.857 157.944 440.95 158.022 441.064 158.061C441.179 158.099 441.301 158.118 441.433 158.118C441.53 158.118 441.632 158.109 441.737 158.092C441.847 158.071 441.93 158.054 441.985 158.042L441.991 159C441.898 159.03 441.775 159.057 441.623 159.083C441.475 159.112 441.295 159.127 441.083 159.127C440.796 159.127 440.531 159.07 440.29 158.956C440.049 158.841 439.856 158.651 439.712 158.384C439.573 158.113 439.503 157.75 439.503 157.292V150.462Z" fill="#737373"/>
<path d="M561.276 155C561.276 153.526 562.471 152.375 564 152.375C565.504 152.375 566.724 153.526 566.724 155C566.724 156.449 565.504 157.625 564 157.625C562.471 157.625 561.276 156.449 561.276 155ZM564 153.688C563.248 153.688 562.638 154.275 562.638 155C562.638 155.725 563.248 156.312 564 156.312C564.752 156.312 565.362 155.725 565.362 155C565.362 154.275 564.752 153.688 564 153.688ZM565.053 148C565.683 148 566.231 148.415 566.378 149.005L566.6 149.892C566.841 150.006 567.071 150.135 567.289 150.277L568.2 150.019C568.804 149.847 569.451 150.096 569.766 150.621L570.819 152.378C571.131 152.903 571.032 153.567 570.578 153.986L569.888 154.593C569.897 154.743 569.903 154.871 569.903 155C569.903 155.129 569.897 155.257 569.888 155.383L570.578 156.014C571.032 156.433 571.131 157.097 570.819 157.622L569.766 159.378C569.451 159.903 568.804 160.152 568.2 159.982L567.289 159.722C567.071 159.864 566.841 159.993 566.6 160.108L566.378 160.996C566.231 161.584 565.683 162 565.053 162H562.947C562.317 162 561.77 161.584 561.622 160.996L561.401 160.108C561.16 159.993 560.93 159.864 560.711 159.722L559.775 159.982C559.197 160.152 558.55 159.903 558.235 159.378L557.183 157.622C556.868 157.097 556.967 156.433 557.423 156.014L558.111 155.383C558.102 155.257 558.098 155.129 558.098 154.975C558.098 154.871 558.102 154.743 558.111 154.593L557.423 153.986C556.967 153.567 556.868 152.903 557.183 152.378L558.235 150.621C558.55 150.096 559.197 149.847 559.775 150.019L560.711 150.277C560.93 150.135 561.16 150.006 561.401 149.892L561.622 149.005C561.77 148.415 562.317 148 562.947 148L565.053 148ZM562.567 150.833L562.249 150.961C561.889 151.106 561.554 151.295 561.25 151.519L560.975 151.721L559.415 151.279L558.362 153.034L559.54 154.114L559.496 154.442C559.472 154.625 559.46 154.811 559.46 155C559.46 155.189 559.472 155.375 559.496 155.558L559.54 155.886L558.362 156.966L559.415 158.721L560.975 158.279L561.25 158.481C561.554 158.705 561.889 158.894 562.249 159.039L562.567 159.167L562.947 160.688H565.053L565.433 159.167L565.751 159.039C566.111 158.894 566.446 158.705 566.75 158.481L567.025 158.279L568.586 158.721L569.639 156.966L568.461 155.886L568.504 155.558C568.529 155.375 568.541 155.189 568.541 155C568.541 154.811 568.529 154.625 568.504 154.442L568.461 154.114L569.639 153.034L568.586 151.279L567.025 151.721L566.75 151.519C566.446 151.295 566.111 151.106 565.751 150.961L565.433 150.833L565.053 149.312H562.947L562.567 150.833Z" fill="#1A1A1A"/>
</g>
<rect x="56" y="91" width="24" height="24" rx="12" fill="#286EF1"/>
<path d="M69.1807 97.7261V107H67.6509V99.5415L65.3848 100.31V99.0464L68.9966 97.7261H69.1807Z" fill="white"/>
<line x1="68.5" y1="115" x2="68.5" y2="139" stroke="#0059FF"/>
<rect x="151" y="91" width="24" height="24" rx="12" fill="#286EF1"/>
<path d="M166.199 105.781V107H160.004V105.953L163.013 102.671C163.343 102.299 163.603 101.977 163.793 101.706C163.984 101.435 164.117 101.192 164.193 100.976C164.274 100.756 164.314 100.542 164.314 100.335C164.314 100.043 164.259 99.7869 164.149 99.5669C164.043 99.3426 163.887 99.167 163.679 99.04C163.472 98.9089 163.22 98.8433 162.924 98.8433C162.581 98.8433 162.293 98.9173 162.061 99.0654C161.828 99.2135 161.652 99.4188 161.534 99.6812C161.415 99.9393 161.356 100.236 161.356 100.57H159.826C159.826 100.032 159.949 99.5415 160.194 99.0972C160.44 98.6486 160.795 98.2931 161.261 98.0308C161.726 97.7642 162.287 97.6309 162.943 97.6309C163.561 97.6309 164.085 97.7345 164.517 97.9419C164.949 98.1493 165.277 98.4434 165.501 98.8242C165.729 99.2051 165.844 99.6558 165.844 100.176C165.844 100.464 165.797 100.75 165.704 101.033C165.611 101.317 165.478 101.6 165.304 101.884C165.135 102.163 164.934 102.444 164.701 102.728C164.468 103.007 164.212 103.291 163.933 103.579L161.934 105.781H166.199Z" fill="white"/>
<line x1="163.5" y1="115" x2="163.5" y2="139" stroke="#0059FF"/>
<rect x="375" y="91" width="24" height="24" rx="12" fill="#286EF1"/>
<path d="M385.8 101.687H386.714C387.07 101.687 387.364 101.626 387.597 101.503C387.834 101.38 388.009 101.211 388.124 100.995C388.238 100.779 388.295 100.532 388.295 100.252C388.295 99.9604 388.242 99.7108 388.136 99.5034C388.035 99.2918 387.878 99.1289 387.667 99.0146C387.459 98.9004 387.195 98.8433 386.873 98.8433C386.602 98.8433 386.357 98.8983 386.137 99.0083C385.921 99.1141 385.75 99.2664 385.623 99.4653C385.496 99.66 385.432 99.8927 385.432 100.164H383.896C383.896 99.6727 384.025 99.2368 384.283 98.856C384.541 98.4751 384.893 98.1768 385.337 97.9609C385.785 97.7409 386.289 97.6309 386.848 97.6309C387.444 97.6309 387.965 97.7303 388.409 97.9292C388.858 98.1239 389.207 98.4159 389.457 98.8052C389.706 99.1945 389.831 99.6769 389.831 100.252C389.831 100.515 389.77 100.781 389.647 101.052C389.524 101.323 389.342 101.571 389.101 101.795C388.86 102.015 388.559 102.195 388.2 102.334C387.84 102.47 387.423 102.538 386.949 102.538H385.8V101.687ZM385.8 102.88V102.042H386.949C387.491 102.042 387.952 102.106 388.333 102.233C388.718 102.36 389.031 102.535 389.272 102.76C389.514 102.98 389.689 103.232 389.799 103.515C389.914 103.799 389.971 104.099 389.971 104.417C389.971 104.848 389.892 105.233 389.736 105.572C389.583 105.906 389.366 106.19 389.082 106.422C388.799 106.655 388.466 106.831 388.085 106.949C387.709 107.068 387.298 107.127 386.854 107.127C386.456 107.127 386.075 107.072 385.711 106.962C385.347 106.852 385.022 106.689 384.734 106.473C384.446 106.253 384.218 105.98 384.048 105.654C383.883 105.324 383.801 104.943 383.801 104.512H385.331C385.331 104.787 385.394 105.03 385.521 105.242C385.652 105.449 385.834 105.612 386.067 105.73C386.304 105.849 386.575 105.908 386.879 105.908C387.201 105.908 387.478 105.851 387.711 105.737C387.944 105.623 388.121 105.453 388.244 105.229C388.371 105.005 388.435 104.734 388.435 104.417C388.435 104.057 388.365 103.765 388.225 103.541C388.085 103.316 387.887 103.151 387.628 103.045C387.37 102.935 387.066 102.88 386.714 102.88H385.8Z" fill="white"/>
<line x1="387.5" y1="115" x2="387.5" y2="139" stroke="#0059FF"/>
<rect x="552" y="91" width="24" height="24" rx="12" fill="#286EF1"/>
<path d="M567.371 103.706V104.924H560.706L560.655 104.004L564.641 97.7578H565.866L564.54 100.03L562.248 103.706H567.371ZM566.215 97.7578V107H564.686V97.7578H566.215Z" fill="white"/>
<line x1="564.5" y1="115" x2="564.5" y2="139" stroke="#0059FF"/>
<defs>
<filter id="filter0_d_7688_86962" x="28" y="117" width="584" height="80" filterUnits="userSpaceOnUse" color-interpolation-filters="sRGB">
<feFlood flood-opacity="0" result="BackgroundImageFix"/>
<feColorMatrix in="SourceAlpha" type="matrix" values="0 0 0 0 0 0 0 0 0 0 0 0 0 0 0 0 0 0 127 0" result="hardAlpha"/>
<feOffset dy="2"/>
<feGaussianBlur stdDeviation="2"/>
<feComposite in2="hardAlpha" operator="out"/>
<feColorMatrix type="matrix" values="0 0 0 0 0.101961 0 0 0 0 0.101961 0 0 0 0 0.101961 0 0 0 0.05 0"/>
<feBlend mode="normal" in2="BackgroundImageFix" result="effect1_dropShadow_7688_86962"/>
<feBlend mode="normal" in="SourceGraphic" in2="effect1_dropShadow_7688_86962" result="shape"/>
</filter>
</defs>
</svg>
