<svg width="800" height="126" viewBox="0 0 800 126" fill="none" xmlns="http://www.w3.org/2000/svg">
<rect width="800" height="126" rx="4" fill="#F8F8F8"/>
<path d="M235 46H247L241 40L235 46Z" fill="#1A1A1A"/>
<rect x="227" y="46" width="46" height="40" rx="4" fill="#1A1A1A"/>
<path d="M243.57 60.7578V70H242.364V60.7578H243.57ZM246.541 60.7578V61.7607H239.399V60.7578H246.541ZM246.788 66.6421V66.4961C246.788 66.001 246.86 65.5418 247.004 65.1187C247.148 64.6912 247.355 64.321 247.626 64.0078C247.897 63.6904 248.225 63.445 248.61 63.2715C248.995 63.0938 249.427 63.0049 249.905 63.0049C250.387 63.0049 250.821 63.0938 251.206 63.2715C251.595 63.445 251.925 63.6904 252.196 64.0078C252.471 64.321 252.681 64.6912 252.825 65.1187C252.969 65.5418 253.041 66.001 253.041 66.4961V66.6421C253.041 67.1372 252.969 67.5964 252.825 68.0195C252.681 68.4427 252.471 68.813 252.196 69.1304C251.925 69.4435 251.597 69.689 251.212 69.8667C250.832 70.0402 250.4 70.127 249.917 70.127C249.435 70.127 249.001 70.0402 248.616 69.8667C248.231 69.689 247.901 69.4435 247.626 69.1304C247.355 68.813 247.148 68.4427 247.004 68.0195C246.86 67.5964 246.788 67.1372 246.788 66.6421ZM247.962 66.4961V66.6421C247.962 66.9849 248.003 67.3086 248.083 67.6133C248.163 67.9137 248.284 68.1803 248.445 68.4131C248.61 68.6458 248.815 68.8299 249.061 68.9653C249.306 69.0965 249.592 69.1621 249.917 69.1621C250.239 69.1621 250.521 69.0965 250.762 68.9653C251.007 68.8299 251.21 68.6458 251.371 68.4131C251.532 68.1803 251.653 67.9137 251.733 67.6133C251.818 67.3086 251.86 66.9849 251.86 66.6421V66.4961C251.86 66.1576 251.818 65.8381 251.733 65.5376C251.653 65.2329 251.53 64.9642 251.365 64.7314C251.204 64.4945 251.001 64.3083 250.755 64.1729C250.514 64.0374 250.231 63.9697 249.905 63.9697C249.583 63.9697 249.3 64.0374 249.054 64.1729C248.813 64.3083 248.61 64.4945 248.445 64.7314C248.284 64.9642 248.163 65.2329 248.083 65.5376C248.003 65.8381 247.962 66.1576 247.962 66.4961ZM255.688 64.4521V72.6406H254.507V63.1318H255.586L255.688 64.4521ZM260.315 66.5088V66.6421C260.315 67.1414 260.256 67.6048 260.137 68.0322C260.019 68.4554 259.845 68.8236 259.617 69.1367C259.392 69.4499 259.115 69.6932 258.785 69.8667C258.455 70.0402 258.076 70.127 257.649 70.127C257.213 70.127 256.828 70.055 256.494 69.9111C256.159 69.7673 255.876 69.5578 255.643 69.2827C255.41 69.0076 255.224 68.6776 255.084 68.2925C254.949 67.9074 254.856 67.4736 254.805 66.9912V66.2803C254.856 65.7725 254.951 65.3175 255.091 64.9155C255.23 64.5135 255.415 64.1707 255.643 63.8872C255.876 63.5994 256.157 63.3815 256.487 63.2334C256.817 63.0811 257.198 63.0049 257.63 63.0049C258.062 63.0049 258.444 63.0895 258.779 63.2588C259.113 63.4238 259.395 63.6608 259.623 63.9697C259.852 64.2786 260.023 64.6489 260.137 65.0806C260.256 65.508 260.315 65.984 260.315 66.5088ZM259.134 66.6421V66.5088C259.134 66.166 259.098 65.8444 259.026 65.5439C258.954 65.2393 258.842 64.9727 258.69 64.7441C258.542 64.5114 258.351 64.3294 258.119 64.1982C257.886 64.0628 257.609 63.9951 257.287 63.9951C256.991 63.9951 256.733 64.0459 256.513 64.1475C256.297 64.249 256.113 64.3866 255.96 64.5601C255.808 64.7293 255.683 64.924 255.586 65.144C255.493 65.3599 255.423 65.5841 255.376 65.8169V67.4609C255.461 67.7572 255.58 68.0365 255.732 68.2988C255.884 68.557 256.087 68.7664 256.341 68.9272C256.595 69.0838 256.915 69.1621 257.3 69.1621C257.617 69.1621 257.89 69.0965 258.119 68.9653C258.351 68.8299 258.542 68.6458 258.69 68.4131C258.842 68.1803 258.954 67.9137 259.026 67.6133C259.098 67.3086 259.134 66.9849 259.134 66.6421Z" fill="white"/>
<rect x="313" y="40" width="67" height="40" rx="4" fill="#1A1A1A"/>
<path d="M329.514 59.6772H327.171L327.159 58.6934H329.285C329.636 58.6934 329.943 58.6341 330.206 58.5156C330.468 58.3971 330.671 58.2279 330.815 58.0078C330.963 57.7835 331.037 57.5169 331.037 57.208C331.037 56.8695 330.972 56.5944 330.84 56.3828C330.713 56.167 330.517 56.0104 330.25 55.9131C329.988 55.8115 329.653 55.7607 329.247 55.7607H327.444V64H326.219V54.7578H329.247C329.721 54.7578 330.144 54.8065 330.517 54.9038C330.889 54.9969 331.204 55.145 331.462 55.3481C331.725 55.547 331.924 55.8009 332.059 56.1099C332.194 56.4188 332.262 56.7891 332.262 57.2207C332.262 57.6016 332.165 57.9465 331.97 58.2554C331.776 58.5601 331.505 58.8097 331.158 59.0044C330.815 59.1991 330.413 59.3239 329.952 59.3789L329.514 59.6772ZM329.457 64H326.689L327.381 63.0034H329.457C329.846 63.0034 330.176 62.9357 330.447 62.8003C330.722 62.6649 330.931 62.4744 331.075 62.229C331.219 61.9793 331.291 61.6852 331.291 61.3467C331.291 61.0039 331.23 60.7077 331.107 60.458C330.984 60.2083 330.792 60.0158 330.529 59.8804C330.267 59.745 329.928 59.6772 329.514 59.6772H327.768L327.781 58.6934H330.167L330.428 59.0488C330.872 59.0869 331.249 59.2139 331.558 59.4297C331.867 59.6413 332.101 59.9121 332.262 60.2422C332.427 60.5723 332.51 60.9362 332.51 61.334C332.51 61.9095 332.383 62.3962 332.129 62.7939C331.879 63.1875 331.526 63.488 331.069 63.6953C330.612 63.8984 330.074 64 329.457 64ZM333.83 60.6421V60.4961C333.83 60.001 333.902 59.5418 334.046 59.1187C334.19 58.6912 334.397 58.321 334.668 58.0078C334.939 57.6904 335.267 57.445 335.652 57.2715C336.037 57.0938 336.469 57.0049 336.947 57.0049C337.429 57.0049 337.863 57.0938 338.248 57.2715C338.637 57.445 338.967 57.6904 339.238 58.0078C339.513 58.321 339.723 58.6912 339.867 59.1187C340.011 59.5418 340.083 60.001 340.083 60.4961V60.6421C340.083 61.1372 340.011 61.5964 339.867 62.0195C339.723 62.4427 339.513 62.813 339.238 63.1304C338.967 63.4435 338.639 63.689 338.254 63.8667C337.874 64.0402 337.442 64.127 336.959 64.127C336.477 64.127 336.043 64.0402 335.658 63.8667C335.273 63.689 334.943 63.4435 334.668 63.1304C334.397 62.813 334.19 62.4427 334.046 62.0195C333.902 61.5964 333.83 61.1372 333.83 60.6421ZM335.004 60.4961V60.6421C335.004 60.9849 335.045 61.3086 335.125 61.6133C335.205 61.9137 335.326 62.1803 335.487 62.4131C335.652 62.6458 335.857 62.8299 336.103 62.9653C336.348 63.0965 336.634 63.1621 336.959 63.1621C337.281 63.1621 337.562 63.0965 337.804 62.9653C338.049 62.8299 338.252 62.6458 338.413 62.4131C338.574 62.1803 338.694 61.9137 338.775 61.6133C338.86 61.3086 338.902 60.9849 338.902 60.6421V60.4961C338.902 60.1576 338.86 59.8381 338.775 59.5376C338.694 59.2329 338.572 58.9642 338.407 58.7314C338.246 58.4945 338.043 58.3083 337.797 58.1729C337.556 58.0374 337.273 57.9697 336.947 57.9697C336.625 57.9697 336.342 58.0374 336.096 58.1729C335.855 58.3083 335.652 58.4945 335.487 58.7314C335.326 58.9642 335.205 59.2329 335.125 59.5376C335.045 59.8381 335.004 60.1576 335.004 60.4961ZM344.431 57.1318V58.0332H340.717V57.1318H344.431ZM341.974 55.4624H343.148V62.2988C343.148 62.5316 343.184 62.7072 343.256 62.8257C343.328 62.9442 343.421 63.0225 343.536 63.0605C343.65 63.0986 343.773 63.1177 343.904 63.1177C344.001 63.1177 344.103 63.1092 344.208 63.0923C344.319 63.0711 344.401 63.0542 344.456 63.0415L344.462 64C344.369 64.0296 344.247 64.0571 344.094 64.0825C343.946 64.1121 343.766 64.127 343.555 64.127C343.267 64.127 343.002 64.0698 342.761 63.9556C342.52 63.8413 342.327 63.6509 342.184 63.3843C342.044 63.1134 341.974 62.7495 341.974 62.2925V55.4624ZM348.684 57.1318V58.0332H344.97V57.1318H348.684ZM346.227 55.4624H347.401V62.2988C347.401 62.5316 347.437 62.7072 347.509 62.8257C347.581 62.9442 347.674 63.0225 347.789 63.0605C347.903 63.0986 348.026 63.1177 348.157 63.1177C348.254 63.1177 348.356 63.1092 348.461 63.0923C348.571 63.0711 348.654 63.0542 348.709 63.0415L348.715 64C348.622 64.0296 348.5 64.0571 348.347 64.0825C348.199 64.1121 348.019 64.127 347.808 64.127C347.52 64.127 347.255 64.0698 347.014 63.9556C346.773 63.8413 346.58 63.6509 346.437 63.3843C346.297 63.1134 346.227 62.7495 346.227 62.2925V55.4624ZM349.623 60.6421V60.4961C349.623 60.001 349.695 59.5418 349.839 59.1187C349.983 58.6912 350.19 58.321 350.461 58.0078C350.732 57.6904 351.06 57.445 351.445 57.2715C351.83 57.0938 352.262 57.0049 352.74 57.0049C353.222 57.0049 353.656 57.0938 354.041 57.2715C354.43 57.445 354.76 57.6904 355.031 58.0078C355.306 58.321 355.516 58.6912 355.66 59.1187C355.804 59.5418 355.875 60.001 355.875 60.4961V60.6421C355.875 61.1372 355.804 61.5964 355.66 62.0195C355.516 62.4427 355.306 62.813 355.031 63.1304C354.76 63.4435 354.432 63.689 354.047 63.8667C353.667 64.0402 353.235 64.127 352.752 64.127C352.27 64.127 351.836 64.0402 351.451 63.8667C351.066 63.689 350.736 63.4435 350.461 63.1304C350.19 62.813 349.983 62.4427 349.839 62.0195C349.695 61.5964 349.623 61.1372 349.623 60.6421ZM350.797 60.4961V60.6421C350.797 60.9849 350.838 61.3086 350.918 61.6133C350.998 61.9137 351.119 62.1803 351.28 62.4131C351.445 62.6458 351.65 62.8299 351.896 62.9653C352.141 63.0965 352.427 63.1621 352.752 63.1621C353.074 63.1621 353.355 63.0965 353.597 62.9653C353.842 62.8299 354.045 62.6458 354.206 62.4131C354.367 62.1803 354.487 61.9137 354.568 61.6133C354.653 61.3086 354.695 60.9849 354.695 60.6421V60.4961C354.695 60.1576 354.653 59.8381 354.568 59.5376C354.487 59.2329 354.365 58.9642 354.2 58.7314C354.039 58.4945 353.836 58.3083 353.59 58.1729C353.349 58.0374 353.066 57.9697 352.74 57.9697C352.418 57.9697 352.135 58.0374 351.889 58.1729C351.648 58.3083 351.445 58.4945 351.28 58.7314C351.119 58.9642 350.998 59.2329 350.918 59.5376C350.838 59.8381 350.797 60.1576 350.797 60.4961ZM358.516 58.4966V64H357.335V57.1318H358.453L358.516 58.4966ZM358.275 60.3057L357.729 60.2866C357.733 59.8169 357.795 59.3831 357.913 58.9854C358.032 58.5833 358.207 58.2342 358.44 57.938C358.673 57.6418 358.963 57.4132 359.31 57.2524C359.657 57.0874 360.059 57.0049 360.516 57.0049C360.837 57.0049 361.133 57.0514 361.404 57.1445C361.675 57.2334 361.91 57.3752 362.109 57.5698C362.308 57.7645 362.462 58.0142 362.572 58.3188C362.682 58.6235 362.737 58.9917 362.737 59.4233V64H361.563V59.4805C361.563 59.1208 361.502 58.833 361.379 58.6172C361.26 58.4014 361.091 58.2448 360.871 58.1475C360.651 58.0459 360.393 57.9951 360.097 57.9951C359.75 57.9951 359.46 58.0565 359.227 58.1792C358.994 58.3019 358.808 58.4712 358.668 58.687C358.529 58.9028 358.427 59.1504 358.364 59.4297C358.305 59.7048 358.275 59.9967 358.275 60.3057ZM362.725 59.6582L361.938 59.8994C361.942 59.5228 362.003 59.161 362.122 58.814C362.244 58.467 362.42 58.158 362.648 57.8872C362.881 57.6164 363.167 57.4027 363.505 57.2461C363.844 57.0853 364.231 57.0049 364.667 57.0049C365.035 57.0049 365.361 57.0535 365.645 57.1509C365.932 57.2482 366.174 57.3984 366.368 57.6016C366.567 57.8005 366.717 58.0565 366.819 58.3696C366.92 58.6828 366.971 59.0552 366.971 59.4868V64H365.791V59.4741C365.791 59.089 365.729 58.7907 365.606 58.5791C365.488 58.3633 365.319 58.2131 365.099 58.1284C364.883 58.0396 364.625 57.9951 364.324 57.9951C364.066 57.9951 363.838 58.0396 363.639 58.1284C363.44 58.2173 363.273 58.34 363.137 58.4966C363.002 58.6489 362.898 58.8245 362.826 59.0234C362.758 59.2223 362.725 59.4339 362.725 59.6582Z" fill="white"/>
<path d="M321 80H333L327 86L321 80Z" fill="#1A1A1A"/>
<path d="M426 63V51L420 57L426 63Z" fill="#1A1A1A"/>
<rect x="426" y="43" width="47" height="40" rx="4" fill="#1A1A1A"/>
<path d="M444.841 66.0034V67H440.22V66.0034H444.841ZM440.461 57.7578V67H439.236V57.7578H440.461ZM448.916 67.127C448.438 67.127 448.004 67.0465 447.615 66.8857C447.23 66.7207 446.897 66.4901 446.618 66.1938C446.343 65.8976 446.132 65.5464 445.983 65.1401C445.835 64.7339 445.761 64.2896 445.761 63.8071V63.5405C445.761 62.9819 445.844 62.4847 446.009 62.0488C446.174 61.6087 446.398 61.2363 446.682 60.9316C446.965 60.627 447.287 60.3963 447.646 60.2397C448.006 60.0832 448.379 60.0049 448.764 60.0049C449.255 60.0049 449.678 60.0895 450.033 60.2588C450.393 60.4281 450.687 60.665 450.916 60.9697C451.144 61.2702 451.313 61.6257 451.423 62.0361C451.533 62.4424 451.588 62.8867 451.588 63.3691V63.896H446.459V62.9375H450.414V62.8486C450.397 62.5439 450.334 62.2477 450.224 61.96C450.118 61.6722 449.949 61.4352 449.716 61.249C449.483 61.0628 449.166 60.9697 448.764 60.9697C448.497 60.9697 448.252 61.0269 448.027 61.1411C447.803 61.2511 447.611 61.4162 447.45 61.6362C447.289 61.8563 447.164 62.125 447.075 62.4424C446.986 62.7598 446.942 63.1258 446.942 63.5405V63.8071C446.942 64.133 446.986 64.4398 447.075 64.7275C447.168 65.0111 447.302 65.2607 447.475 65.4766C447.653 65.6924 447.867 65.8617 448.116 65.9844C448.37 66.1071 448.658 66.1685 448.979 66.1685C449.394 66.1685 449.745 66.0838 450.033 65.9146C450.321 65.7453 450.573 65.5189 450.789 65.2354L451.5 65.8003C451.351 66.0246 451.163 66.2383 450.935 66.4414C450.706 66.6445 450.425 66.8096 450.09 66.9365C449.76 67.0635 449.369 67.127 448.916 67.127ZM454.711 67H453.537V59.4082C453.537 58.9131 453.626 58.4963 453.804 58.1577C453.986 57.8149 454.246 57.5568 454.584 57.3833C454.923 57.2056 455.325 57.1167 455.791 57.1167C455.926 57.1167 456.061 57.1252 456.197 57.1421C456.336 57.159 456.472 57.1844 456.603 57.2183L456.54 58.1768C456.451 58.1556 456.349 58.1408 456.235 58.1323C456.125 58.1239 456.015 58.1196 455.905 58.1196C455.655 58.1196 455.439 58.1704 455.257 58.272C455.08 58.3693 454.944 58.5132 454.851 58.7036C454.758 58.894 454.711 59.1289 454.711 59.4082V67ZM456.171 60.1318V61.0332H452.452V60.1318H456.171ZM460.354 60.1318V61.0332H456.641V60.1318H460.354ZM457.898 58.4624H459.072V65.2988C459.072 65.5316 459.108 65.7072 459.18 65.8257C459.252 65.9442 459.345 66.0225 459.459 66.0605C459.574 66.0986 459.696 66.1177 459.828 66.1177C459.925 66.1177 460.027 66.1092 460.132 66.0923C460.242 66.0711 460.325 66.0542 460.38 66.0415L460.386 67C460.293 67.0296 460.17 67.0571 460.018 67.0825C459.87 67.1121 459.69 67.127 459.479 67.127C459.191 67.127 458.926 67.0698 458.685 66.9556C458.444 66.8413 458.251 66.6509 458.107 66.3843C457.968 66.1134 457.898 65.7495 457.898 65.2925V58.4624Z" fill="white"/>
<rect x="513" y="43" width="54" height="40" rx="4" fill="#1A1A1A"/>
<path d="M526.13 57.7578H529.19C529.884 57.7578 530.47 57.8636 530.948 58.0752C531.431 58.2868 531.797 58.5999 532.046 59.0146C532.3 59.4251 532.427 59.9308 532.427 60.5317C532.427 60.9549 532.34 61.3421 532.167 61.6934C531.998 62.0404 531.752 62.3366 531.431 62.582C531.113 62.8232 530.732 63.0031 530.288 63.1216L529.945 63.2549H527.07L527.057 62.2583H529.228C529.668 62.2583 530.034 62.1821 530.326 62.0298C530.618 61.8732 530.838 61.6637 530.986 61.4014C531.134 61.139 531.208 60.8491 531.208 60.5317C531.208 60.1763 531.139 59.8652 530.999 59.5986C530.859 59.332 530.639 59.1268 530.339 58.9829C530.043 58.8348 529.66 58.7607 529.19 58.7607H527.355V67H526.13V57.7578ZM531.532 67L529.285 62.8105L530.561 62.8042L532.84 66.9238V67H531.532ZM535.239 60.1318V67H534.059V60.1318H535.239ZM533.97 58.3101C533.97 58.1196 534.027 57.9588 534.141 57.8276C534.26 57.6965 534.433 57.6309 534.662 57.6309C534.886 57.6309 535.057 57.6965 535.176 57.8276C535.299 57.9588 535.36 58.1196 535.36 58.3101C535.36 58.492 535.299 58.6486 535.176 58.7798C535.057 58.9067 534.886 58.9702 534.662 58.9702C534.433 58.9702 534.26 58.9067 534.141 58.7798C534.027 58.6486 533.97 58.492 533.97 58.3101ZM541.574 60.1318H542.641V66.854C542.641 67.4591 542.518 67.9754 542.272 68.4028C542.027 68.8302 541.684 69.154 541.244 69.374C540.808 69.5983 540.305 69.7104 539.733 69.7104C539.496 69.7104 539.217 69.6724 538.896 69.5962C538.578 69.5243 538.265 69.3994 537.956 69.2217C537.651 69.0482 537.395 68.8133 537.188 68.5171L537.804 67.8188C538.091 68.1659 538.392 68.4071 538.705 68.5425C539.022 68.6779 539.336 68.7456 539.645 68.7456C540.017 68.7456 540.339 68.6758 540.609 68.5361C540.88 68.3965 541.09 68.1891 541.238 67.9141C541.39 67.6432 541.466 67.3089 541.466 66.9111V61.6426L541.574 60.1318ZM536.845 63.6421V63.5088C536.845 62.984 536.907 62.508 537.029 62.0806C537.156 61.6489 537.336 61.2786 537.569 60.9697C537.806 60.6608 538.091 60.4238 538.426 60.2588C538.76 60.0895 539.137 60.0049 539.556 60.0049C539.987 60.0049 540.364 60.0811 540.686 60.2334C541.011 60.3815 541.286 60.5994 541.511 60.8872C541.739 61.1707 541.919 61.5135 542.05 61.9155C542.181 62.3175 542.272 62.7725 542.323 63.2803V63.8643C542.277 64.3678 542.186 64.8206 542.05 65.2227C541.919 65.6247 541.739 65.9674 541.511 66.251C541.286 66.5345 541.011 66.7524 540.686 66.9048C540.36 67.0529 539.979 67.127 539.543 67.127C539.132 67.127 538.76 67.0402 538.426 66.8667C538.096 66.6932 537.812 66.4499 537.575 66.1367C537.338 65.8236 537.156 65.4554 537.029 65.0322C536.907 64.6048 536.845 64.1414 536.845 63.6421ZM538.02 63.5088V63.6421C538.02 63.9849 538.053 64.3065 538.121 64.6069C538.193 64.9074 538.301 65.1719 538.445 65.4004C538.593 65.6289 538.781 65.8088 539.01 65.9399C539.238 66.0669 539.511 66.1304 539.829 66.1304C540.218 66.1304 540.54 66.0479 540.793 65.8828C541.047 65.7178 541.248 65.4998 541.396 65.229C541.549 64.9582 541.667 64.6641 541.752 64.3467V62.8169C541.705 62.5841 541.633 62.3599 541.536 62.144C541.443 61.924 541.32 61.7293 541.168 61.5601C541.02 61.3866 540.836 61.249 540.616 61.1475C540.396 61.0459 540.138 60.9951 539.841 60.9951C539.52 60.9951 539.243 61.0628 539.01 61.1982C538.781 61.3294 538.593 61.5114 538.445 61.7441C538.301 61.9727 538.193 62.2393 538.121 62.5439C538.053 62.8444 538.02 63.166 538.02 63.5088ZM545.599 57.25V67H544.424V57.25H545.599ZM545.319 63.3057L544.831 63.2866C544.835 62.8169 544.905 62.3831 545.04 61.9854C545.175 61.5833 545.366 61.2342 545.611 60.938C545.857 60.6418 546.149 60.4132 546.487 60.2524C546.83 60.0874 547.209 60.0049 547.624 60.0049C547.962 60.0049 548.267 60.0514 548.538 60.1445C548.808 60.2334 549.039 60.3773 549.229 60.5762C549.424 60.7751 549.572 61.0332 549.674 61.3506C549.775 61.6637 549.826 62.0467 549.826 62.4995V67H548.646V62.4868C548.646 62.1271 548.593 61.8394 548.487 61.6235C548.381 61.4035 548.227 61.2448 548.023 61.1475C547.82 61.0459 547.571 60.9951 547.274 60.9951C546.982 60.9951 546.716 61.0565 546.475 61.1792C546.238 61.3019 546.032 61.4712 545.859 61.687C545.69 61.9028 545.556 62.1504 545.459 62.4297C545.366 62.7048 545.319 62.9967 545.319 63.3057ZM554.46 60.1318V61.0332H550.747V60.1318H554.46ZM552.003 58.4624H553.178V65.2988C553.178 65.5316 553.214 65.7072 553.286 65.8257C553.358 65.9442 553.451 66.0225 553.565 66.0605C553.679 66.0986 553.802 66.1177 553.933 66.1177C554.03 66.1177 554.132 66.1092 554.238 66.0923C554.348 66.0711 554.43 66.0542 554.485 66.0415L554.492 67C554.399 67.0296 554.276 67.0571 554.124 67.0825C553.975 67.1121 553.796 67.127 553.584 67.127C553.296 67.127 553.032 67.0698 552.791 66.9556C552.549 66.8413 552.357 66.6509 552.213 66.3843C552.073 66.1134 552.003 65.7495 552.003 65.2925V58.4624Z" fill="white"/>
<path d="M567 63V51L573 57L567 63Z" fill="#1A1A1A"/>
</svg>
