<svg width="640" height="310" viewBox="0 0 640 310" fill="none" xmlns="http://www.w3.org/2000/svg">
<rect width="640" height="310" rx="16" fill="#F8F8F8"/>
<g filter="url(#filter0_dd_8876_92467)">
<path d="M208 102C208 97.5817 211.582 94 216 94H424C428.418 94 432 97.5817 432 102V207C432 211.418 428.418 215 424 215H216C211.582 215 208 211.418 208 207V102Z" fill="white"/>
<path fill-rule="evenodd" clip-rule="evenodd" d="M232 112.4C228.907 112.4 226.4 114.907 226.4 118C226.4 121.093 228.907 123.6 232 123.6C235.093 123.6 237.6 121.093 237.6 118C237.6 114.907 235.093 112.4 232 112.4ZM225 118C225 114.134 228.134 111 232 111C235.866 111 239 114.134 239 118C239 121.866 235.866 125 232 125C228.134 125 225 121.866 225 118ZM231.3 115.48C231.3 115.093 231.613 114.78 232 114.78H232.006C232.393 114.78 232.706 115.093 232.706 115.48C232.706 115.867 232.393 116.18 232.006 116.18H232C231.613 116.18 231.3 115.867 231.3 115.48ZM232 117.3C232.387 117.3 232.7 117.613 232.7 118V120.52C232.7 120.907 232.387 121.22 232 121.22C231.613 121.22 231.3 120.907 231.3 120.52V118C231.3 117.613 231.613 117.3 232 117.3Z" fill="#505050"/>
<path d="M257.587 117.375V117.961C257.587 118.767 257.482 119.489 257.272 120.129C257.062 120.769 256.762 121.313 256.372 121.762C255.986 122.211 255.522 122.556 254.98 122.795C254.438 123.029 253.837 123.146 253.178 123.146C252.524 123.146 251.926 123.029 251.384 122.795C250.847 122.556 250.38 122.211 249.985 121.762C249.589 121.313 249.282 120.769 249.062 120.129C248.847 119.489 248.74 118.767 248.74 117.961V117.375C248.74 116.569 248.847 115.849 249.062 115.214C249.277 114.575 249.58 114.03 249.97 113.581C250.366 113.127 250.832 112.783 251.369 112.548C251.911 112.309 252.509 112.189 253.164 112.189C253.823 112.189 254.423 112.309 254.965 112.548C255.507 112.783 255.974 113.127 256.364 113.581C256.755 114.03 257.055 114.575 257.265 115.214C257.48 115.849 257.587 116.569 257.587 117.375ZM255.749 117.961V117.36C255.749 116.765 255.69 116.24 255.573 115.786C255.461 115.327 255.292 114.943 255.068 114.636C254.848 114.323 254.577 114.089 254.255 113.933C253.933 113.771 253.569 113.691 253.164 113.691C252.758 113.691 252.397 113.771 252.08 113.933C251.762 114.089 251.491 114.323 251.267 114.636C251.047 114.943 250.878 115.327 250.761 115.786C250.644 116.24 250.585 116.765 250.585 117.36V117.961C250.585 118.557 250.644 119.084 250.761 119.543C250.878 120.002 251.049 120.39 251.274 120.708C251.503 121.02 251.777 121.257 252.094 121.418C252.412 121.574 252.773 121.652 253.178 121.652C253.588 121.652 253.952 121.574 254.27 121.418C254.587 121.257 254.855 121.02 255.075 120.708C255.295 120.39 255.461 120.002 255.573 119.543C255.69 119.084 255.749 118.557 255.749 117.961ZM261.022 116.599V126.047H259.257V115.075H260.883L261.022 116.599ZM266.186 118.964V119.118C266.186 119.694 266.118 120.229 265.981 120.722C265.849 121.21 265.651 121.638 265.388 122.004C265.129 122.365 264.809 122.646 264.428 122.846C264.047 123.046 263.608 123.146 263.11 123.146C262.617 123.146 262.185 123.056 261.813 122.875C261.447 122.69 261.137 122.429 260.883 122.092C260.629 121.755 260.424 121.359 260.268 120.905C260.117 120.446 260.009 119.943 259.946 119.396V118.803C260.009 118.222 260.117 117.695 260.268 117.221C260.424 116.748 260.629 116.34 260.883 115.998C261.137 115.656 261.447 115.393 261.813 115.207C262.18 115.021 262.607 114.929 263.095 114.929C263.593 114.929 264.035 115.026 264.421 115.222C264.807 115.412 265.131 115.686 265.395 116.042C265.659 116.394 265.856 116.818 265.988 117.316C266.12 117.81 266.186 118.359 266.186 118.964ZM264.421 119.118V118.964C264.421 118.598 264.387 118.259 264.318 117.946C264.25 117.629 264.143 117.351 263.996 117.111C263.85 116.872 263.662 116.687 263.432 116.555C263.208 116.418 262.937 116.35 262.619 116.35C262.307 116.35 262.038 116.403 261.813 116.511C261.589 116.613 261.401 116.757 261.25 116.943C261.098 117.128 260.981 117.346 260.898 117.595C260.815 117.839 260.756 118.105 260.722 118.393V119.814C260.781 120.166 260.881 120.488 261.022 120.781C261.164 121.074 261.364 121.308 261.623 121.484C261.887 121.655 262.224 121.74 262.634 121.74C262.951 121.74 263.222 121.672 263.447 121.535C263.671 121.398 263.854 121.21 263.996 120.971C264.143 120.727 264.25 120.446 264.318 120.129C264.387 119.812 264.421 119.475 264.421 119.118ZM271.32 115.075V116.364H266.853V115.075H271.32ZM268.142 113.134H269.907V120.81C269.907 121.054 269.941 121.242 270.009 121.374C270.083 121.501 270.183 121.586 270.31 121.63C270.437 121.674 270.585 121.696 270.756 121.696C270.878 121.696 270.996 121.689 271.108 121.674C271.22 121.66 271.311 121.645 271.379 121.63L271.386 122.978C271.24 123.022 271.069 123.061 270.874 123.095C270.683 123.129 270.463 123.146 270.214 123.146C269.809 123.146 269.45 123.076 269.138 122.934C268.825 122.788 268.581 122.551 268.405 122.224C268.229 121.896 268.142 121.462 268.142 120.92V113.134ZM274.572 115.075V123H272.8V115.075H274.572ZM272.683 112.995C272.683 112.727 272.771 112.504 272.946 112.329C273.127 112.148 273.376 112.058 273.693 112.058C274.006 112.058 274.252 112.148 274.433 112.329C274.614 112.504 274.704 112.727 274.704 112.995C274.704 113.259 274.614 113.479 274.433 113.654C274.252 113.83 274.006 113.918 273.693 113.918C273.376 113.918 273.127 113.83 272.946 113.654C272.771 113.479 272.683 113.259 272.683 112.995ZM276.169 119.125V118.957C276.169 118.386 276.252 117.856 276.418 117.368C276.584 116.875 276.823 116.447 277.136 116.086C277.453 115.72 277.839 115.437 278.293 115.236C278.752 115.031 279.27 114.929 279.846 114.929C280.427 114.929 280.944 115.031 281.398 115.236C281.857 115.437 282.246 115.72 282.563 116.086C282.88 116.447 283.122 116.875 283.288 117.368C283.454 117.856 283.537 118.386 283.537 118.957V119.125C283.537 119.697 283.454 120.227 283.288 120.715C283.122 121.203 282.88 121.63 282.563 121.997C282.246 122.358 281.86 122.641 281.406 122.846C280.952 123.046 280.437 123.146 279.86 123.146C279.279 123.146 278.759 123.046 278.3 122.846C277.846 122.641 277.46 122.358 277.143 121.997C276.826 121.63 276.584 121.203 276.418 120.715C276.252 120.227 276.169 119.697 276.169 119.125ZM277.934 118.957V119.125C277.934 119.482 277.971 119.819 278.044 120.136C278.117 120.454 278.232 120.732 278.388 120.971C278.544 121.21 278.745 121.398 278.989 121.535C279.233 121.672 279.523 121.74 279.86 121.74C280.188 121.74 280.471 121.672 280.71 121.535C280.954 121.398 281.154 121.21 281.311 120.971C281.467 120.732 281.582 120.454 281.655 120.136C281.733 119.819 281.772 119.482 281.772 119.125V118.957C281.772 118.605 281.733 118.273 281.655 117.961C281.582 117.644 281.464 117.363 281.303 117.119C281.147 116.875 280.947 116.684 280.703 116.547C280.463 116.406 280.178 116.335 279.846 116.335C279.514 116.335 279.226 116.406 278.981 116.547C278.742 116.684 278.544 116.875 278.388 117.119C278.232 117.363 278.117 117.644 278.044 117.961C277.971 118.273 277.934 118.605 277.934 118.957ZM286.767 116.767V123H285.002V115.075H286.665L286.767 116.767ZM286.452 118.745L285.881 118.737C285.886 118.176 285.964 117.661 286.115 117.192C286.271 116.723 286.486 116.32 286.76 115.983C287.038 115.646 287.37 115.388 287.756 115.207C288.142 115.021 288.571 114.929 289.045 114.929C289.426 114.929 289.77 114.982 290.078 115.09C290.39 115.192 290.656 115.361 290.876 115.595C291.101 115.83 291.271 116.135 291.389 116.511C291.506 116.882 291.564 117.338 291.564 117.88V123H289.792V117.873C289.792 117.492 289.736 117.192 289.624 116.972C289.516 116.748 289.357 116.589 289.147 116.496C288.942 116.398 288.686 116.35 288.378 116.35C288.076 116.35 287.805 116.413 287.565 116.54C287.326 116.667 287.124 116.84 286.958 117.06C286.796 117.28 286.672 117.534 286.584 117.822C286.496 118.11 286.452 118.417 286.452 118.745ZM305.737 112.336V123H303.898L299.116 115.361V123H297.277V112.336H299.116L303.913 119.99V112.336H305.737ZM312.219 121.411V117.631C312.219 117.348 312.167 117.104 312.065 116.899C311.962 116.694 311.806 116.535 311.596 116.423C311.391 116.311 311.132 116.254 310.82 116.254C310.532 116.254 310.283 116.303 310.073 116.401C309.863 116.499 309.699 116.63 309.582 116.796C309.465 116.962 309.406 117.15 309.406 117.36H307.648C307.648 117.048 307.724 116.745 307.875 116.452C308.027 116.159 308.247 115.898 308.535 115.668C308.823 115.439 309.167 115.258 309.567 115.126C309.968 114.995 310.417 114.929 310.915 114.929C311.511 114.929 312.038 115.029 312.497 115.229C312.961 115.429 313.325 115.732 313.588 116.137C313.857 116.538 313.991 117.041 313.991 117.646V121.169C313.991 121.53 314.016 121.855 314.064 122.143C314.118 122.426 314.194 122.673 314.292 122.883V123H312.482C312.399 122.81 312.333 122.568 312.285 122.275C312.241 121.977 312.219 121.689 312.219 121.411ZM312.475 118.181L312.49 119.272H311.223C310.896 119.272 310.607 119.304 310.358 119.367C310.109 119.426 309.902 119.514 309.736 119.631C309.57 119.748 309.445 119.89 309.362 120.056C309.279 120.222 309.238 120.41 309.238 120.62C309.238 120.83 309.287 121.022 309.384 121.198C309.482 121.369 309.624 121.503 309.809 121.601C310 121.699 310.229 121.748 310.498 121.748C310.859 121.748 311.174 121.674 311.442 121.528C311.716 121.376 311.931 121.193 312.087 120.979C312.243 120.759 312.326 120.551 312.336 120.356L312.907 121.14C312.849 121.34 312.749 121.555 312.607 121.784C312.465 122.014 312.28 122.233 312.05 122.443C311.826 122.648 311.555 122.817 311.237 122.949C310.925 123.081 310.563 123.146 310.153 123.146C309.636 123.146 309.174 123.044 308.769 122.839C308.364 122.629 308.046 122.348 307.817 121.997C307.587 121.64 307.473 121.237 307.473 120.788C307.473 120.368 307.551 119.997 307.707 119.675C307.868 119.348 308.103 119.074 308.41 118.854C308.723 118.635 309.104 118.469 309.553 118.356C310.002 118.239 310.515 118.181 311.091 118.181H312.475ZM317.602 116.687V123H315.837V115.075H317.5L317.602 116.687ZM317.316 118.745L316.716 118.737C316.716 118.19 316.784 117.685 316.921 117.221C317.058 116.757 317.258 116.354 317.521 116.013C317.785 115.666 318.112 115.4 318.503 115.214C318.898 115.024 319.355 114.929 319.873 114.929C320.234 114.929 320.563 114.982 320.861 115.09C321.164 115.192 321.425 115.356 321.645 115.581C321.87 115.805 322.041 116.093 322.158 116.445C322.28 116.796 322.341 117.221 322.341 117.719V123H320.576V117.873C320.576 117.487 320.517 117.185 320.4 116.965C320.288 116.745 320.124 116.589 319.909 116.496C319.699 116.398 319.448 116.35 319.155 116.35C318.823 116.35 318.54 116.413 318.305 116.54C318.076 116.667 317.888 116.84 317.741 117.06C317.595 117.28 317.487 117.534 317.419 117.822C317.351 118.11 317.316 118.417 317.316 118.745ZM322.231 118.276L321.403 118.459C321.403 117.98 321.469 117.529 321.601 117.104C321.738 116.674 321.936 116.298 322.194 115.976C322.458 115.649 322.783 115.393 323.168 115.207C323.554 115.021 323.996 114.929 324.494 114.929C324.899 114.929 325.261 114.985 325.578 115.097C325.9 115.205 326.174 115.375 326.398 115.61C326.623 115.844 326.794 116.149 326.911 116.525C327.028 116.896 327.087 117.346 327.087 117.873V123H325.314V117.866C325.314 117.465 325.256 117.155 325.139 116.936C325.026 116.716 324.865 116.564 324.655 116.481C324.445 116.394 324.194 116.35 323.901 116.35C323.627 116.35 323.386 116.401 323.176 116.503C322.971 116.601 322.797 116.74 322.656 116.921C322.514 117.097 322.407 117.299 322.333 117.529C322.265 117.758 322.231 118.007 322.231 118.276ZM332.397 123.146C331.811 123.146 331.281 123.051 330.808 122.861C330.339 122.666 329.938 122.395 329.606 122.048C329.279 121.701 329.028 121.293 328.852 120.825C328.676 120.356 328.588 119.851 328.588 119.309V119.016C328.588 118.396 328.679 117.834 328.859 117.331C329.04 116.828 329.292 116.398 329.614 116.042C329.936 115.681 330.317 115.405 330.756 115.214C331.196 115.024 331.672 114.929 332.185 114.929C332.751 114.929 333.247 115.024 333.671 115.214C334.096 115.405 334.448 115.673 334.726 116.02C335.009 116.362 335.219 116.77 335.356 117.243C335.498 117.717 335.568 118.239 335.568 118.811V119.565H329.445V118.298H333.825V118.159C333.815 117.841 333.752 117.543 333.635 117.265C333.522 116.987 333.349 116.762 333.115 116.591C332.88 116.42 332.568 116.335 332.177 116.335C331.884 116.335 331.623 116.398 331.394 116.525C331.169 116.647 330.981 116.826 330.83 117.06C330.678 117.294 330.561 117.578 330.478 117.91C330.4 118.237 330.361 118.605 330.361 119.016V119.309C330.361 119.655 330.407 119.978 330.5 120.275C330.598 120.568 330.739 120.825 330.925 121.044C331.11 121.264 331.335 121.438 331.599 121.564C331.862 121.687 332.163 121.748 332.5 121.748C332.924 121.748 333.303 121.662 333.635 121.491C333.967 121.32 334.255 121.079 334.499 120.766L335.429 121.667C335.258 121.916 335.036 122.155 334.763 122.385C334.489 122.609 334.155 122.792 333.759 122.934C333.369 123.076 332.915 123.146 332.397 123.146Z" fill="#505050"/>
<rect x="378" y="110" width="38" height="16" rx="8" fill="#18BB4B"/>
<path d="M392.903 113.891V121H391.438L388.582 116.234V121H387.117V113.891H388.582L391.443 118.661V113.891H392.903ZM398.748 119.857V121H394.964V119.857H398.748ZM395.442 113.891V121H393.978V113.891H395.442ZM398.255 116.786V117.899H394.964V116.786H398.255ZM398.743 113.891V115.038H394.964V113.891H398.743ZM401.116 119.872L402.532 113.891H403.323L403.504 114.887L401.995 121H401.146L401.116 119.872ZM400.389 113.891L401.561 119.872L401.463 121H400.516L398.939 113.891H400.389ZM404.749 119.848L405.906 113.891H407.357L405.784 121H404.837L404.749 119.848ZM403.768 113.891L405.194 119.896L405.154 121H404.305L402.786 114.882L402.982 113.891H403.768Z" fill="white"/>
<rect x="208" y="142" width="224" height="1" fill="#E6E6E6"/>
<path d="M228.494 164.577L225.435 173H224.184L227.707 163.758H228.513L228.494 164.577ZM231.059 173L227.993 164.577L227.974 163.758H228.78L232.315 173H231.059ZM230.9 169.579V170.582H225.708V169.579H230.9ZM236.226 173.127C235.747 173.127 235.314 173.047 234.924 172.886C234.539 172.721 234.207 172.49 233.928 172.194C233.653 171.898 233.441 171.546 233.293 171.14C233.145 170.734 233.071 170.29 233.071 169.807V169.541C233.071 168.982 233.153 168.485 233.318 168.049C233.483 167.609 233.708 167.236 233.991 166.932C234.275 166.627 234.596 166.396 234.956 166.24C235.316 166.083 235.688 166.005 236.073 166.005C236.564 166.005 236.987 166.09 237.343 166.259C237.702 166.428 237.997 166.665 238.225 166.97C238.454 167.27 238.623 167.626 238.733 168.036C238.843 168.442 238.898 168.887 238.898 169.369V169.896H233.769V168.938H237.724V168.849C237.707 168.544 237.643 168.248 237.533 167.96C237.427 167.672 237.258 167.435 237.025 167.249C236.793 167.063 236.475 166.97 236.073 166.97C235.807 166.97 235.561 167.027 235.337 167.141C235.113 167.251 234.92 167.416 234.759 167.636C234.598 167.856 234.474 168.125 234.385 168.442C234.296 168.76 234.251 169.126 234.251 169.541V169.807C234.251 170.133 234.296 170.44 234.385 170.728C234.478 171.011 234.611 171.261 234.785 171.477C234.962 171.692 235.176 171.862 235.426 171.984C235.68 172.107 235.967 172.168 236.289 172.168C236.704 172.168 237.055 172.084 237.343 171.915C237.631 171.745 237.882 171.519 238.098 171.235L238.809 171.8C238.661 172.025 238.473 172.238 238.244 172.441C238.016 172.645 237.734 172.81 237.4 172.937C237.07 173.063 236.678 173.127 236.226 173.127ZM241.443 167.598V173H240.269V166.132H241.38L241.443 167.598ZM241.164 169.306L240.675 169.287C240.68 168.817 240.749 168.383 240.885 167.985C241.02 167.583 241.211 167.234 241.456 166.938C241.701 166.642 241.993 166.413 242.332 166.252C242.675 166.087 243.054 166.005 243.468 166.005C243.807 166.005 244.111 166.051 244.382 166.145C244.653 166.233 244.884 166.377 245.074 166.576C245.269 166.775 245.417 167.033 245.519 167.351C245.62 167.664 245.671 168.047 245.671 168.5V173H244.49V168.487C244.49 168.127 244.437 167.839 244.332 167.624C244.226 167.403 244.071 167.245 243.868 167.147C243.665 167.046 243.415 166.995 243.119 166.995C242.827 166.995 242.561 167.056 242.319 167.179C242.082 167.302 241.877 167.471 241.704 167.687C241.534 167.903 241.401 168.15 241.304 168.43C241.211 168.705 241.164 168.997 241.164 169.306ZM250.305 173.127C249.826 173.127 249.393 173.047 249.003 172.886C248.618 172.721 248.286 172.49 248.007 172.194C247.732 171.898 247.52 171.546 247.372 171.14C247.224 170.734 247.15 170.29 247.15 169.807V169.541C247.15 168.982 247.232 168.485 247.397 168.049C247.562 167.609 247.787 167.236 248.07 166.932C248.354 166.627 248.675 166.396 249.035 166.24C249.395 166.083 249.767 166.005 250.152 166.005C250.643 166.005 251.066 166.09 251.422 166.259C251.782 166.428 252.076 166.665 252.304 166.97C252.533 167.27 252.702 167.626 252.812 168.036C252.922 168.442 252.977 168.887 252.977 169.369V169.896H247.848V168.938H251.803V168.849C251.786 168.544 251.722 168.248 251.612 167.96C251.507 167.672 251.337 167.435 251.104 167.249C250.872 167.063 250.554 166.97 250.152 166.97C249.886 166.97 249.64 167.027 249.416 167.141C249.192 167.251 248.999 167.416 248.838 167.636C248.678 167.856 248.553 168.125 248.464 168.442C248.375 168.76 248.331 169.126 248.331 169.541V169.807C248.331 170.133 248.375 170.44 248.464 170.728C248.557 171.011 248.69 171.261 248.864 171.477C249.042 171.692 249.255 171.862 249.505 171.984C249.759 172.107 250.047 172.168 250.368 172.168C250.783 172.168 251.134 172.084 251.422 171.915C251.71 171.745 251.961 171.519 252.177 171.235L252.888 171.8C252.74 172.025 252.552 172.238 252.323 172.441C252.095 172.645 251.813 172.81 251.479 172.937C251.149 173.063 250.757 173.127 250.305 173.127ZM258.398 171.826V168.29C258.398 168.019 258.343 167.784 258.233 167.585C258.127 167.382 257.966 167.226 257.75 167.116C257.535 167.006 257.268 166.951 256.951 166.951C256.654 166.951 256.394 167.001 256.17 167.103C255.95 167.205 255.776 167.338 255.649 167.503C255.527 167.668 255.465 167.846 255.465 168.036H254.291C254.291 167.791 254.354 167.547 254.481 167.306C254.608 167.065 254.79 166.847 255.027 166.652C255.269 166.453 255.556 166.297 255.891 166.183C256.229 166.064 256.606 166.005 257.021 166.005C257.52 166.005 257.96 166.09 258.341 166.259C258.726 166.428 259.026 166.684 259.242 167.027C259.462 167.365 259.572 167.791 259.572 168.303V171.502C259.572 171.73 259.591 171.974 259.629 172.232C259.672 172.49 259.733 172.712 259.813 172.898V173H258.588C258.529 172.865 258.483 172.685 258.449 172.46C258.415 172.232 258.398 172.02 258.398 171.826ZM258.601 168.836L258.614 169.661H257.427C257.092 169.661 256.794 169.689 256.532 169.744C256.269 169.794 256.049 169.873 255.872 169.979C255.694 170.084 255.558 170.218 255.465 170.378C255.372 170.535 255.326 170.719 255.326 170.931C255.326 171.146 255.374 171.343 255.472 171.521C255.569 171.699 255.715 171.84 255.91 171.946C256.109 172.048 256.352 172.099 256.64 172.099C256.999 172.099 257.317 172.022 257.592 171.87C257.867 171.718 258.085 171.532 258.246 171.312C258.411 171.091 258.5 170.878 258.512 170.67L259.014 171.235C258.984 171.413 258.904 171.61 258.772 171.826C258.641 172.042 258.466 172.249 258.246 172.448C258.03 172.642 257.772 172.805 257.471 172.937C257.175 173.063 256.841 173.127 256.468 173.127C256.003 173.127 255.594 173.036 255.243 172.854C254.896 172.672 254.625 172.429 254.431 172.124C254.24 171.815 254.145 171.47 254.145 171.089C254.145 170.721 254.217 170.397 254.361 170.118C254.505 169.835 254.712 169.6 254.983 169.414C255.254 169.223 255.58 169.079 255.96 168.982C256.341 168.885 256.767 168.836 257.236 168.836H258.601ZM262.594 167.598V173H261.419V166.132H262.53L262.594 167.598ZM262.314 169.306L261.826 169.287C261.83 168.817 261.9 168.383 262.035 167.985C262.171 167.583 262.361 167.234 262.606 166.938C262.852 166.642 263.144 166.413 263.482 166.252C263.825 166.087 264.204 166.005 264.619 166.005C264.957 166.005 265.262 166.051 265.533 166.145C265.804 166.233 266.034 166.377 266.225 166.576C266.419 166.775 266.567 167.033 266.669 167.351C266.771 167.664 266.821 168.047 266.821 168.5V173H265.641V168.487C265.641 168.127 265.588 167.839 265.482 167.624C265.376 167.403 265.222 167.245 265.019 167.147C264.815 167.046 264.566 166.995 264.27 166.995C263.978 166.995 263.711 167.056 263.47 167.179C263.233 167.302 263.028 167.471 262.854 167.687C262.685 167.903 262.551 168.15 262.454 168.43C262.361 168.705 262.314 168.997 262.314 169.306ZM273.105 163.25V173H271.925V163.25H273.105ZM279.041 171.826V168.29C279.041 168.019 278.986 167.784 278.875 167.585C278.77 167.382 278.609 167.226 278.393 167.116C278.177 167.006 277.911 166.951 277.593 166.951C277.297 166.951 277.037 167.001 276.812 167.103C276.592 167.205 276.419 167.338 276.292 167.503C276.169 167.668 276.108 167.846 276.108 168.036H274.934C274.934 167.791 274.997 167.547 275.124 167.306C275.251 167.065 275.433 166.847 275.67 166.652C275.911 166.453 276.199 166.297 276.533 166.183C276.872 166.064 277.248 166.005 277.663 166.005C278.162 166.005 278.603 166.09 278.983 166.259C279.368 166.428 279.669 166.684 279.885 167.027C280.105 167.365 280.215 167.791 280.215 168.303V171.502C280.215 171.73 280.234 171.974 280.272 172.232C280.314 172.49 280.376 172.712 280.456 172.898V173H279.231C279.172 172.865 279.125 172.685 279.091 172.46C279.057 172.232 279.041 172.02 279.041 171.826ZM279.244 168.836L279.256 169.661H278.069C277.735 169.661 277.437 169.689 277.174 169.744C276.912 169.794 276.692 169.873 276.514 169.979C276.336 170.084 276.201 170.218 276.108 170.378C276.015 170.535 275.968 170.719 275.968 170.931C275.968 171.146 276.017 171.343 276.114 171.521C276.212 171.699 276.358 171.84 276.552 171.946C276.751 172.048 276.994 172.099 277.282 172.099C277.642 172.099 277.959 172.022 278.234 171.87C278.509 171.718 278.727 171.532 278.888 171.312C279.053 171.091 279.142 170.878 279.155 170.67L279.656 171.235C279.627 171.413 279.546 171.61 279.415 171.826C279.284 172.042 279.108 172.249 278.888 172.448C278.672 172.642 278.414 172.805 278.114 172.937C277.818 173.063 277.483 173.127 277.111 173.127C276.645 173.127 276.237 173.036 275.886 172.854C275.539 172.672 275.268 172.429 275.073 172.124C274.883 171.815 274.788 171.47 274.788 171.089C274.788 170.721 274.86 170.397 275.003 170.118C275.147 169.835 275.355 169.6 275.625 169.414C275.896 169.223 276.222 169.079 276.603 168.982C276.984 168.885 277.409 168.836 277.879 168.836H279.244ZM284.811 172.162C285.09 172.162 285.348 172.105 285.585 171.991C285.822 171.876 286.017 171.72 286.169 171.521C286.321 171.318 286.408 171.087 286.429 170.829H287.546C287.525 171.235 287.388 171.614 287.134 171.965C286.884 172.312 286.556 172.594 286.15 172.81C285.744 173.021 285.297 173.127 284.811 173.127C284.294 173.127 283.844 173.036 283.458 172.854C283.078 172.672 282.76 172.422 282.506 172.105C282.257 171.788 282.068 171.424 281.941 171.013C281.819 170.598 281.757 170.16 281.757 169.699V169.433C281.757 168.971 281.819 168.535 281.941 168.125C282.068 167.71 282.257 167.344 282.506 167.027C282.76 166.709 283.078 166.46 283.458 166.278C283.844 166.096 284.294 166.005 284.811 166.005C285.348 166.005 285.818 166.115 286.22 166.335C286.622 166.551 286.937 166.847 287.166 167.224C287.398 167.596 287.525 168.019 287.546 168.493H286.429C286.408 168.21 286.328 167.954 286.188 167.725C286.053 167.497 285.866 167.315 285.629 167.179C285.397 167.04 285.124 166.97 284.811 166.97C284.451 166.97 284.148 167.042 283.903 167.186C283.662 167.325 283.469 167.516 283.325 167.757C283.186 167.994 283.084 168.258 283.021 168.55C282.961 168.838 282.932 169.132 282.932 169.433V169.699C282.932 170 282.961 170.296 283.021 170.588C283.08 170.88 283.179 171.144 283.319 171.381C283.463 171.618 283.655 171.809 283.896 171.953C284.142 172.092 284.447 172.162 284.811 172.162ZM290.143 166.132V173H288.962V166.132H290.143ZM288.873 164.31C288.873 164.12 288.93 163.959 289.044 163.828C289.163 163.696 289.336 163.631 289.565 163.631C289.789 163.631 289.961 163.696 290.079 163.828C290.202 163.959 290.263 164.12 290.263 164.31C290.263 164.492 290.202 164.649 290.079 164.78C289.961 164.907 289.789 164.97 289.565 164.97C289.336 164.97 289.163 164.907 289.044 164.78C288.93 164.649 288.873 164.492 288.873 164.31ZM293.202 167.598V173H292.028V166.132H293.139L293.202 167.598ZM292.923 169.306L292.434 169.287C292.438 168.817 292.508 168.383 292.644 167.985C292.779 167.583 292.969 167.234 293.215 166.938C293.46 166.642 293.752 166.413 294.091 166.252C294.434 166.087 294.812 166.005 295.227 166.005C295.566 166.005 295.87 166.051 296.141 166.145C296.412 166.233 296.643 166.377 296.833 166.576C297.028 166.775 297.176 167.033 297.277 167.351C297.379 167.664 297.43 168.047 297.43 168.5V173H296.249V168.487C296.249 168.127 296.196 167.839 296.09 167.624C295.985 167.403 295.83 167.245 295.627 167.147C295.424 167.046 295.174 166.995 294.878 166.995C294.586 166.995 294.319 167.056 294.078 167.179C293.841 167.302 293.636 167.471 293.462 167.687C293.293 167.903 293.16 168.15 293.062 168.43C292.969 168.705 292.923 168.997 292.923 169.306ZM300.489 166.132V173H299.309V166.132H300.489ZM299.22 164.31C299.22 164.12 299.277 163.959 299.391 163.828C299.51 163.696 299.683 163.631 299.912 163.631C300.136 163.631 300.307 163.696 300.426 163.828C300.549 163.959 300.61 164.12 300.61 164.31C300.61 164.492 300.549 164.649 300.426 164.78C300.307 164.907 300.136 164.97 299.912 164.97C299.683 164.97 299.51 164.907 299.391 164.78C299.277 164.649 299.22 164.492 299.22 164.31ZM306.424 171.826V168.29C306.424 168.019 306.369 167.784 306.259 167.585C306.153 167.382 305.993 167.226 305.777 167.116C305.561 167.006 305.294 166.951 304.977 166.951C304.681 166.951 304.421 167.001 304.196 167.103C303.976 167.205 303.803 167.338 303.676 167.503C303.553 167.668 303.492 167.846 303.492 168.036H302.317C302.317 167.791 302.381 167.547 302.508 167.306C302.635 167.065 302.817 166.847 303.054 166.652C303.295 166.453 303.583 166.297 303.917 166.183C304.256 166.064 304.632 166.005 305.047 166.005C305.546 166.005 305.986 166.09 306.367 166.259C306.752 166.428 307.053 166.684 307.269 167.027C307.489 167.365 307.599 167.791 307.599 168.303V171.502C307.599 171.73 307.618 171.974 307.656 172.232C307.698 172.49 307.759 172.712 307.84 172.898V173H306.615C306.556 172.865 306.509 172.685 306.475 172.46C306.441 172.232 306.424 172.02 306.424 171.826ZM306.627 168.836L306.64 169.661H305.453C305.119 169.661 304.82 169.689 304.558 169.744C304.296 169.794 304.076 169.873 303.898 169.979C303.72 170.084 303.585 170.218 303.492 170.378C303.399 170.535 303.352 170.719 303.352 170.931C303.352 171.146 303.401 171.343 303.498 171.521C303.595 171.699 303.741 171.84 303.936 171.946C304.135 172.048 304.378 172.099 304.666 172.099C305.026 172.099 305.343 172.022 305.618 171.87C305.893 171.718 306.111 171.532 306.272 171.312C306.437 171.091 306.526 170.878 306.539 170.67L307.04 171.235C307.01 171.413 306.93 171.61 306.799 171.826C306.668 172.042 306.492 172.249 306.272 172.448C306.056 172.642 305.798 172.805 305.498 172.937C305.201 173.063 304.867 173.127 304.495 173.127C304.029 173.127 303.621 173.036 303.27 172.854C302.923 172.672 302.652 172.429 302.457 172.124C302.267 171.815 302.171 171.47 302.171 171.089C302.171 170.721 302.243 170.397 302.387 170.118C302.531 169.835 302.738 169.6 303.009 169.414C303.28 169.223 303.606 169.079 303.987 168.982C304.368 168.885 304.793 168.836 305.263 168.836H306.627ZM312.664 163.25H313.845V171.667L313.743 173H312.664V163.25ZM318.485 169.509V169.642C318.485 170.141 318.426 170.605 318.307 171.032C318.189 171.455 318.015 171.824 317.787 172.137C317.558 172.45 317.279 172.693 316.949 172.867C316.619 173.04 316.24 173.127 315.812 173.127C315.377 173.127 314.994 173.053 314.664 172.905C314.338 172.752 314.063 172.535 313.838 172.251C313.614 171.967 313.434 171.625 313.299 171.223C313.168 170.821 313.077 170.368 313.026 169.864V169.28C313.077 168.772 313.168 168.318 313.299 167.916C313.434 167.514 313.614 167.171 313.838 166.887C314.063 166.599 314.338 166.382 314.664 166.233C314.989 166.081 315.368 166.005 315.8 166.005C316.231 166.005 316.614 166.09 316.949 166.259C317.283 166.424 317.562 166.661 317.787 166.97C318.015 167.279 318.189 167.649 318.307 168.081C318.426 168.508 318.485 168.984 318.485 169.509ZM317.304 169.642V169.509C317.304 169.166 317.272 168.844 317.209 168.544C317.146 168.239 317.044 167.973 316.904 167.744C316.765 167.511 316.581 167.329 316.352 167.198C316.124 167.063 315.842 166.995 315.508 166.995C315.212 166.995 314.953 167.046 314.733 167.147C314.518 167.249 314.333 167.387 314.181 167.56C314.029 167.729 313.904 167.924 313.807 168.144C313.714 168.36 313.644 168.584 313.597 168.817V170.347C313.665 170.643 313.775 170.929 313.927 171.204C314.084 171.474 314.291 171.697 314.549 171.87C314.812 172.044 315.135 172.13 315.521 172.13C315.838 172.13 316.109 172.067 316.333 171.94C316.562 171.809 316.746 171.629 316.885 171.4C317.029 171.172 317.135 170.907 317.203 170.607C317.27 170.306 317.304 169.985 317.304 169.642ZM321.246 166.132V173H320.065V166.132H321.246ZM319.977 164.31C319.977 164.12 320.034 163.959 320.148 163.828C320.266 163.696 320.44 163.631 320.668 163.631C320.893 163.631 321.064 163.696 321.183 163.828C321.305 163.959 321.367 164.12 321.367 164.31C321.367 164.492 321.305 164.649 321.183 164.78C321.064 164.907 320.893 164.97 320.668 164.97C320.44 164.97 320.266 164.907 320.148 164.78C320.034 164.649 319.977 164.492 319.977 164.31ZM323.125 163.25H324.306V171.667L324.204 173H323.125V163.25ZM328.946 169.509V169.642C328.946 170.141 328.887 170.605 328.768 171.032C328.65 171.455 328.476 171.824 328.248 172.137C328.019 172.45 327.74 172.693 327.41 172.867C327.08 173.04 326.701 173.127 326.273 173.127C325.838 173.127 325.455 173.053 325.125 172.905C324.799 172.752 324.524 172.535 324.299 172.251C324.075 171.967 323.895 171.625 323.76 171.223C323.629 170.821 323.538 170.368 323.487 169.864V169.28C323.538 168.772 323.629 168.318 323.76 167.916C323.895 167.514 324.075 167.171 324.299 166.887C324.524 166.599 324.799 166.382 325.125 166.233C325.45 166.081 325.829 166.005 326.261 166.005C326.692 166.005 327.075 166.09 327.41 166.259C327.744 166.424 328.023 166.661 328.248 166.97C328.476 167.279 328.65 167.649 328.768 168.081C328.887 168.508 328.946 168.984 328.946 169.509ZM327.765 169.642V169.509C327.765 169.166 327.733 168.844 327.67 168.544C327.606 168.239 327.505 167.973 327.365 167.744C327.226 167.511 327.042 167.329 326.813 167.198C326.584 167.063 326.303 166.995 325.969 166.995C325.673 166.995 325.414 167.046 325.194 167.147C324.979 167.249 324.794 167.387 324.642 167.56C324.49 167.729 324.365 167.924 324.268 168.144C324.174 168.36 324.105 168.584 324.058 168.817V170.347C324.126 170.643 324.236 170.929 324.388 171.204C324.545 171.474 324.752 171.697 325.01 171.87C325.273 172.044 325.596 172.13 325.981 172.13C326.299 172.13 326.57 172.067 326.794 171.94C327.022 171.809 327.207 171.629 327.346 171.4C327.49 171.172 327.596 170.907 327.664 170.607C327.731 170.306 327.765 169.985 327.765 169.642ZM333.281 173.127C332.803 173.127 332.369 173.047 331.98 172.886C331.595 172.721 331.263 172.49 330.983 172.194C330.708 171.898 330.497 171.546 330.349 171.14C330.201 170.734 330.126 170.29 330.126 169.807V169.541C330.126 168.982 330.209 168.485 330.374 168.049C330.539 167.609 330.763 167.236 331.047 166.932C331.33 166.627 331.652 166.396 332.012 166.24C332.371 166.083 332.744 166.005 333.129 166.005C333.62 166.005 334.043 166.09 334.398 166.259C334.758 166.428 335.052 166.665 335.281 166.97C335.509 167.27 335.679 167.626 335.789 168.036C335.899 168.442 335.954 168.887 335.954 169.369V169.896H330.825V168.938H334.779V168.849C334.762 168.544 334.699 168.248 334.589 167.96C334.483 167.672 334.314 167.435 334.081 167.249C333.848 167.063 333.531 166.97 333.129 166.97C332.862 166.97 332.617 167.027 332.393 167.141C332.168 167.251 331.976 167.416 331.815 167.636C331.654 167.856 331.529 168.125 331.44 168.442C331.352 168.76 331.307 169.126 331.307 169.541V169.807C331.307 170.133 331.352 170.44 331.44 170.728C331.534 171.011 331.667 171.261 331.84 171.477C332.018 171.692 332.232 171.862 332.481 171.984C332.735 172.107 333.023 172.168 333.345 172.168C333.759 172.168 334.111 172.084 334.398 171.915C334.686 171.745 334.938 171.519 335.154 171.235L335.865 171.8C335.717 172.025 335.528 172.238 335.3 172.441C335.071 172.645 334.79 172.81 334.456 172.937C334.125 173.063 333.734 173.127 333.281 173.127ZM338.499 167.598V173H337.325V166.132H338.436L338.499 167.598ZM338.22 169.306L337.731 169.287C337.735 168.817 337.805 168.383 337.94 167.985C338.076 167.583 338.266 167.234 338.512 166.938C338.757 166.642 339.049 166.413 339.388 166.252C339.73 166.087 340.109 166.005 340.524 166.005C340.862 166.005 341.167 166.051 341.438 166.145C341.709 166.233 341.939 166.377 342.13 166.576C342.325 166.775 342.473 167.033 342.574 167.351C342.676 167.664 342.727 168.047 342.727 168.5V173H341.546V168.487C341.546 168.127 341.493 167.839 341.387 167.624C341.281 167.403 341.127 167.245 340.924 167.147C340.721 167.046 340.471 166.995 340.175 166.995C339.883 166.995 339.616 167.056 339.375 167.179C339.138 167.302 338.933 167.471 338.759 167.687C338.59 167.903 338.457 168.15 338.359 168.43C338.266 168.705 338.22 168.997 338.22 169.306ZM348.839 171.667V163.25H350.02V173H348.941L348.839 171.667ZM344.218 169.642V169.509C344.218 168.984 344.282 168.508 344.409 168.081C344.54 167.649 344.724 167.279 344.961 166.97C345.202 166.661 345.488 166.424 345.818 166.259C346.152 166.09 346.525 166.005 346.935 166.005C347.367 166.005 347.743 166.081 348.065 166.233C348.391 166.382 348.666 166.599 348.89 166.887C349.119 167.171 349.299 167.514 349.43 167.916C349.561 168.318 349.652 168.772 349.703 169.28V169.864C349.656 170.368 349.565 170.821 349.43 171.223C349.299 171.625 349.119 171.967 348.89 172.251C348.666 172.535 348.391 172.752 348.065 172.905C347.739 173.053 347.358 173.127 346.922 173.127C346.52 173.127 346.152 173.04 345.818 172.867C345.488 172.693 345.202 172.45 344.961 172.137C344.724 171.824 344.54 171.455 344.409 171.032C344.282 170.605 344.218 170.141 344.218 169.642ZM345.399 169.509V169.642C345.399 169.985 345.433 170.306 345.5 170.607C345.572 170.907 345.682 171.172 345.831 171.4C345.979 171.629 346.167 171.809 346.396 171.94C346.624 172.067 346.897 172.13 347.214 172.13C347.604 172.13 347.923 172.048 348.173 171.883C348.427 171.718 348.63 171.5 348.782 171.229C348.935 170.958 349.053 170.664 349.138 170.347V168.817C349.087 168.584 349.013 168.36 348.916 168.144C348.822 167.924 348.7 167.729 348.547 167.56C348.399 167.387 348.215 167.249 347.995 167.147C347.779 167.046 347.523 166.995 347.227 166.995C346.905 166.995 346.628 167.063 346.396 167.198C346.167 167.329 345.979 167.511 345.831 167.744C345.682 167.973 345.572 168.239 345.5 168.544C345.433 168.844 345.399 169.166 345.399 169.509ZM356.05 171.413V166.132H357.231V173H356.107L356.05 171.413ZM356.272 169.966L356.761 169.953C356.761 170.41 356.713 170.833 356.615 171.223C356.522 171.608 356.37 171.942 356.158 172.226C355.947 172.509 355.669 172.731 355.327 172.892C354.984 173.049 354.567 173.127 354.076 173.127C353.742 173.127 353.435 173.078 353.156 172.981C352.881 172.884 352.644 172.733 352.445 172.53C352.246 172.327 352.091 172.063 351.981 171.737C351.876 171.411 351.823 171.02 351.823 170.562V166.132H352.997V170.575C352.997 170.884 353.031 171.14 353.099 171.343C353.171 171.542 353.266 171.701 353.384 171.819C353.507 171.934 353.642 172.014 353.791 172.061C353.943 172.107 354.099 172.13 354.26 172.13C354.76 172.13 355.155 172.035 355.447 171.845C355.739 171.65 355.949 171.39 356.076 171.064C356.207 170.734 356.272 170.368 356.272 169.966ZM360.189 167.497V173H359.008V166.132H360.125L360.189 167.497ZM359.948 169.306L359.402 169.287C359.406 168.817 359.467 168.383 359.586 167.985C359.704 167.583 359.88 167.234 360.113 166.938C360.346 166.642 360.635 166.413 360.982 166.252C361.329 166.087 361.731 166.005 362.188 166.005C362.51 166.005 362.806 166.051 363.077 166.145C363.348 166.233 363.583 166.375 363.782 166.57C363.981 166.764 364.135 167.014 364.245 167.319C364.355 167.624 364.41 167.992 364.41 168.423V173H363.236V168.48C363.236 168.121 363.174 167.833 363.052 167.617C362.933 167.401 362.764 167.245 362.544 167.147C362.324 167.046 362.066 166.995 361.77 166.995C361.423 166.995 361.133 167.056 360.9 167.179C360.667 167.302 360.481 167.471 360.341 167.687C360.202 167.903 360.1 168.15 360.037 168.43C359.977 168.705 359.948 168.997 359.948 169.306ZM364.397 168.658L363.61 168.899C363.615 168.523 363.676 168.161 363.794 167.814C363.917 167.467 364.093 167.158 364.321 166.887C364.554 166.616 364.84 166.403 365.178 166.246C365.517 166.085 365.904 166.005 366.34 166.005C366.708 166.005 367.034 166.054 367.317 166.151C367.605 166.248 367.846 166.398 368.041 166.602C368.24 166.8 368.39 167.056 368.492 167.37C368.593 167.683 368.644 168.055 368.644 168.487V173H367.463V168.474C367.463 168.089 367.402 167.791 367.279 167.579C367.161 167.363 366.992 167.213 366.771 167.128C366.556 167.04 366.298 166.995 365.997 166.995C365.739 166.995 365.51 167.04 365.312 167.128C365.113 167.217 364.945 167.34 364.81 167.497C364.675 167.649 364.571 167.825 364.499 168.023C364.431 168.222 364.397 168.434 364.397 168.658ZM374.82 167.598V173H373.646V166.132H374.757L374.82 167.598ZM374.541 169.306L374.052 169.287C374.056 168.817 374.126 168.383 374.262 167.985C374.397 167.583 374.588 167.234 374.833 166.938C375.078 166.642 375.37 166.413 375.709 166.252C376.052 166.087 376.431 166.005 376.845 166.005C377.184 166.005 377.488 166.051 377.759 166.145C378.03 166.233 378.261 166.377 378.451 166.576C378.646 166.775 378.794 167.033 378.896 167.351C378.997 167.664 379.048 168.047 379.048 168.5V173H377.867V168.487C377.867 168.127 377.814 167.839 377.708 167.624C377.603 167.403 377.448 167.245 377.245 167.147C377.042 167.046 376.792 166.995 376.496 166.995C376.204 166.995 375.938 167.056 375.696 167.179C375.459 167.302 375.254 167.471 375.081 167.687C374.911 167.903 374.778 168.15 374.681 168.43C374.588 168.705 374.541 168.997 374.541 169.306ZM385.034 171.413V166.132H386.214V173H385.091L385.034 171.413ZM385.256 169.966L385.745 169.953C385.745 170.41 385.696 170.833 385.599 171.223C385.506 171.608 385.353 171.942 385.142 172.226C384.93 172.509 384.653 172.731 384.31 172.892C383.967 173.049 383.55 173.127 383.06 173.127C382.725 173.127 382.418 173.078 382.139 172.981C381.864 172.884 381.627 172.733 381.428 172.53C381.229 172.327 381.075 172.063 380.965 171.737C380.859 171.411 380.806 171.02 380.806 170.562V166.132H381.98V170.575C381.98 170.884 382.014 171.14 382.082 171.343C382.154 171.542 382.249 171.701 382.368 171.819C382.49 171.934 382.626 172.014 382.774 172.061C382.926 172.107 383.083 172.13 383.244 172.13C383.743 172.13 384.139 172.035 384.431 171.845C384.723 171.65 384.932 171.39 385.059 171.064C385.19 170.734 385.256 170.368 385.256 169.966ZM389.28 163.25V173H388.1V163.25H389.28ZM392.441 163.25V173H391.261V163.25H392.441ZM398.376 171.826V168.29C398.376 168.019 398.321 167.784 398.211 167.585C398.106 167.382 397.945 167.226 397.729 167.116C397.513 167.006 397.247 166.951 396.929 166.951C396.633 166.951 396.373 167.001 396.148 167.103C395.928 167.205 395.755 167.338 395.628 167.503C395.505 167.668 395.444 167.846 395.444 168.036H394.27C394.27 167.791 394.333 167.547 394.46 167.306C394.587 167.065 394.769 166.847 395.006 166.652C395.247 166.453 395.535 166.297 395.869 166.183C396.208 166.064 396.584 166.005 396.999 166.005C397.498 166.005 397.938 166.09 398.319 166.259C398.704 166.428 399.005 166.684 399.221 167.027C399.441 167.365 399.551 167.791 399.551 168.303V171.502C399.551 171.73 399.57 171.974 399.608 172.232C399.65 172.49 399.712 172.712 399.792 172.898V173H398.567C398.508 172.865 398.461 172.685 398.427 172.46C398.393 172.232 398.376 172.02 398.376 171.826ZM398.58 168.836L398.592 169.661H397.405C397.071 169.661 396.773 169.689 396.51 169.744C396.248 169.794 396.028 169.873 395.85 169.979C395.672 170.084 395.537 170.218 395.444 170.378C395.351 170.535 395.304 170.719 395.304 170.931C395.304 171.146 395.353 171.343 395.45 171.521C395.548 171.699 395.694 171.84 395.888 171.946C396.087 172.048 396.33 172.099 396.618 172.099C396.978 172.099 397.295 172.022 397.57 171.87C397.845 171.718 398.063 171.532 398.224 171.312C398.389 171.091 398.478 170.878 398.491 170.67L398.992 171.235C398.963 171.413 398.882 171.61 398.751 171.826C398.62 172.042 398.444 172.249 398.224 172.448C398.008 172.642 397.75 172.805 397.45 172.937C397.153 173.063 396.819 173.127 396.447 173.127C395.981 173.127 395.573 173.036 395.222 172.854C394.875 172.672 394.604 172.429 394.409 172.124C394.219 171.815 394.124 171.47 394.124 171.089C394.124 170.721 394.195 170.397 394.339 170.118C394.483 169.835 394.691 169.6 394.961 169.414C395.232 169.223 395.558 169.079 395.939 168.982C396.32 168.885 396.745 168.836 397.215 168.836H398.58ZM228.894 191.178C228.894 191.009 228.856 190.852 228.78 190.708C228.708 190.56 228.558 190.427 228.329 190.309C228.105 190.186 227.766 190.08 227.313 189.991C226.933 189.911 226.588 189.816 226.279 189.706C225.974 189.596 225.714 189.462 225.498 189.306C225.286 189.149 225.124 188.965 225.009 188.753C224.895 188.542 224.838 188.294 224.838 188.011C224.838 187.74 224.897 187.484 225.016 187.243C225.138 187.001 225.31 186.788 225.53 186.602C225.754 186.415 226.023 186.269 226.336 186.164C226.649 186.058 226.998 186.005 227.383 186.005C227.933 186.005 228.403 186.102 228.792 186.297C229.182 186.492 229.48 186.752 229.688 187.078C229.895 187.399 229.999 187.757 229.999 188.15H228.824C228.824 187.96 228.767 187.776 228.653 187.598C228.543 187.416 228.38 187.266 228.164 187.147C227.952 187.029 227.692 186.97 227.383 186.97C227.057 186.97 226.793 187.021 226.59 187.122C226.391 187.219 226.245 187.344 226.152 187.497C226.063 187.649 226.019 187.81 226.019 187.979C226.019 188.106 226.04 188.22 226.082 188.322C226.129 188.419 226.209 188.51 226.323 188.595C226.438 188.675 226.598 188.751 226.806 188.823C227.013 188.895 227.278 188.967 227.599 189.039C228.162 189.166 228.625 189.318 228.989 189.496C229.353 189.674 229.624 189.892 229.802 190.15C229.979 190.408 230.068 190.721 230.068 191.089C230.068 191.39 230.005 191.665 229.878 191.915C229.755 192.164 229.575 192.38 229.338 192.562C229.106 192.74 228.826 192.879 228.5 192.981C228.179 193.078 227.817 193.127 227.415 193.127C226.81 193.127 226.298 193.019 225.879 192.803C225.46 192.587 225.143 192.308 224.927 191.965C224.711 191.623 224.603 191.261 224.603 190.88H225.784C225.801 191.201 225.894 191.458 226.063 191.648C226.232 191.834 226.44 191.967 226.685 192.048C226.931 192.124 227.174 192.162 227.415 192.162C227.737 192.162 228.005 192.12 228.221 192.035C228.441 191.951 228.608 191.834 228.723 191.686C228.837 191.538 228.894 191.369 228.894 191.178ZM234.461 193.127C233.983 193.127 233.549 193.047 233.16 192.886C232.775 192.721 232.442 192.49 232.163 192.194C231.888 191.898 231.676 191.546 231.528 191.14C231.38 190.734 231.306 190.29 231.306 189.807V189.541C231.306 188.982 231.389 188.485 231.554 188.049C231.719 187.609 231.943 187.236 232.227 186.932C232.51 186.627 232.832 186.396 233.191 186.24C233.551 186.083 233.924 186.005 234.309 186.005C234.799 186.005 235.223 186.09 235.578 186.259C235.938 186.428 236.232 186.665 236.46 186.97C236.689 187.27 236.858 187.626 236.968 188.036C237.078 188.442 237.133 188.887 237.133 189.369V189.896H232.004V188.938H235.959V188.849C235.942 188.544 235.879 188.248 235.769 187.96C235.663 187.672 235.493 187.435 235.261 187.249C235.028 187.063 234.711 186.97 234.309 186.97C234.042 186.97 233.797 187.027 233.572 187.141C233.348 187.251 233.155 187.416 232.995 187.636C232.834 187.856 232.709 188.125 232.62 188.442C232.531 188.76 232.487 189.126 232.487 189.541V189.807C232.487 190.133 232.531 190.44 232.62 190.728C232.713 191.011 232.847 191.261 233.02 191.477C233.198 191.692 233.411 191.862 233.661 191.984C233.915 192.107 234.203 192.168 234.524 192.168C234.939 192.168 235.29 192.084 235.578 191.915C235.866 191.745 236.118 191.519 236.333 191.235L237.044 191.8C236.896 192.025 236.708 192.238 236.479 192.441C236.251 192.645 235.97 192.81 235.635 192.937C235.305 193.063 234.914 193.127 234.461 193.127ZM242.833 191.667V183.25H244.014V193H242.935L242.833 191.667ZM238.212 189.642V189.509C238.212 188.984 238.276 188.508 238.403 188.081C238.534 187.649 238.718 187.279 238.955 186.97C239.196 186.661 239.482 186.424 239.812 186.259C240.146 186.09 240.519 186.005 240.929 186.005C241.361 186.005 241.737 186.081 242.059 186.233C242.385 186.382 242.66 186.599 242.884 186.887C243.113 187.171 243.293 187.514 243.424 187.916C243.555 188.318 243.646 188.772 243.697 189.28V189.864C243.65 190.368 243.559 190.821 243.424 191.223C243.293 191.625 243.113 191.967 242.884 192.251C242.66 192.535 242.385 192.752 242.059 192.905C241.733 193.053 241.352 193.127 240.917 193.127C240.514 193.127 240.146 193.04 239.812 192.867C239.482 192.693 239.196 192.45 238.955 192.137C238.718 191.824 238.534 191.455 238.403 191.032C238.276 190.605 238.212 190.141 238.212 189.642ZM239.393 189.509V189.642C239.393 189.985 239.427 190.306 239.495 190.607C239.567 190.907 239.677 191.172 239.825 191.4C239.973 191.629 240.161 191.809 240.39 191.94C240.618 192.067 240.891 192.13 241.208 192.13C241.598 192.13 241.917 192.048 242.167 191.883C242.421 191.718 242.624 191.5 242.776 191.229C242.929 190.958 243.047 190.664 243.132 190.347V188.817C243.081 188.584 243.007 188.36 242.91 188.144C242.817 187.924 242.694 187.729 242.542 187.56C242.393 187.387 242.209 187.249 241.989 187.147C241.773 187.046 241.517 186.995 241.221 186.995C240.9 186.995 240.622 187.063 240.39 187.198C240.161 187.329 239.973 187.511 239.825 187.744C239.677 187.973 239.567 188.239 239.495 188.544C239.427 188.844 239.393 189.166 239.393 189.509ZM251.815 192.162C252.095 192.162 252.353 192.105 252.59 191.991C252.827 191.876 253.021 191.72 253.174 191.521C253.326 191.318 253.413 191.087 253.434 190.829H254.551C254.53 191.235 254.393 191.614 254.139 191.965C253.889 192.312 253.561 192.594 253.155 192.81C252.749 193.021 252.302 193.127 251.815 193.127C251.299 193.127 250.848 193.036 250.463 192.854C250.083 192.672 249.765 192.422 249.511 192.105C249.262 191.788 249.073 191.424 248.946 191.013C248.824 190.598 248.762 190.16 248.762 189.699V189.433C248.762 188.971 248.824 188.535 248.946 188.125C249.073 187.71 249.262 187.344 249.511 187.027C249.765 186.709 250.083 186.46 250.463 186.278C250.848 186.096 251.299 186.005 251.815 186.005C252.353 186.005 252.823 186.115 253.225 186.335C253.627 186.551 253.942 186.847 254.17 187.224C254.403 187.596 254.53 188.019 254.551 188.493H253.434C253.413 188.21 253.333 187.954 253.193 187.725C253.057 187.497 252.871 187.315 252.634 187.179C252.402 187.04 252.129 186.97 251.815 186.97C251.456 186.97 251.153 187.042 250.908 187.186C250.667 187.325 250.474 187.516 250.33 187.757C250.19 187.994 250.089 188.258 250.025 188.55C249.966 188.838 249.937 189.132 249.937 189.433V189.699C249.937 190 249.966 190.296 250.025 190.588C250.085 190.88 250.184 191.144 250.324 191.381C250.468 191.618 250.66 191.809 250.901 191.953C251.147 192.092 251.451 192.162 251.815 192.162ZM255.561 189.642V189.496C255.561 189.001 255.632 188.542 255.776 188.119C255.92 187.691 256.128 187.321 256.398 187.008C256.669 186.69 256.997 186.445 257.382 186.271C257.767 186.094 258.199 186.005 258.677 186.005C259.16 186.005 259.593 186.094 259.979 186.271C260.368 186.445 260.698 186.69 260.969 187.008C261.244 187.321 261.453 187.691 261.597 188.119C261.741 188.542 261.813 189.001 261.813 189.496V189.642C261.813 190.137 261.741 190.596 261.597 191.02C261.453 191.443 261.244 191.813 260.969 192.13C260.698 192.444 260.37 192.689 259.985 192.867C259.604 193.04 259.172 193.127 258.69 193.127C258.208 193.127 257.774 193.04 257.389 192.867C257.004 192.689 256.674 192.444 256.398 192.13C256.128 191.813 255.92 191.443 255.776 191.02C255.632 190.596 255.561 190.137 255.561 189.642ZM256.735 189.496V189.642C256.735 189.985 256.775 190.309 256.855 190.613C256.936 190.914 257.056 191.18 257.217 191.413C257.382 191.646 257.588 191.83 257.833 191.965C258.078 192.097 258.364 192.162 258.69 192.162C259.012 192.162 259.293 192.097 259.534 191.965C259.78 191.83 259.983 191.646 260.144 191.413C260.304 191.18 260.425 190.914 260.505 190.613C260.59 190.309 260.632 189.985 260.632 189.642V189.496C260.632 189.158 260.59 188.838 260.505 188.538C260.425 188.233 260.302 187.964 260.137 187.731C259.976 187.494 259.773 187.308 259.528 187.173C259.287 187.037 259.003 186.97 258.677 186.97C258.356 186.97 258.072 187.037 257.827 187.173C257.585 187.308 257.382 187.494 257.217 187.731C257.056 187.964 256.936 188.233 256.855 188.538C256.775 188.838 256.735 189.158 256.735 189.496ZM264.46 187.598V193H263.286V186.132H264.396L264.46 187.598ZM264.181 189.306L263.692 189.287C263.696 188.817 263.766 188.383 263.901 187.985C264.037 187.583 264.227 187.234 264.473 186.938C264.718 186.642 265.01 186.413 265.349 186.252C265.691 186.087 266.07 186.005 266.485 186.005C266.823 186.005 267.128 186.051 267.399 186.145C267.67 186.233 267.9 186.377 268.091 186.576C268.285 186.775 268.434 187.033 268.535 187.351C268.637 187.664 268.688 188.047 268.688 188.5V193H267.507V188.487C267.507 188.127 267.454 187.839 267.348 187.624C267.242 187.403 267.088 187.245 266.885 187.147C266.682 187.046 266.432 186.995 266.136 186.995C265.844 186.995 265.577 187.056 265.336 187.179C265.099 187.302 264.894 187.471 264.72 187.687C264.551 187.903 264.418 188.15 264.32 188.43C264.227 188.705 264.181 188.997 264.181 189.306ZM274.47 191.178C274.47 191.009 274.432 190.852 274.356 190.708C274.284 190.56 274.134 190.427 273.905 190.309C273.681 190.186 273.342 190.08 272.89 189.991C272.509 189.911 272.164 189.816 271.855 189.706C271.55 189.596 271.29 189.462 271.074 189.306C270.863 189.149 270.7 188.965 270.585 188.753C270.471 188.542 270.414 188.294 270.414 188.011C270.414 187.74 270.473 187.484 270.592 187.243C270.715 187.001 270.886 186.788 271.106 186.602C271.33 186.415 271.599 186.269 271.912 186.164C272.225 186.058 272.574 186.005 272.959 186.005C273.51 186.005 273.979 186.102 274.369 186.297C274.758 186.492 275.056 186.752 275.264 187.078C275.471 187.399 275.575 187.757 275.575 188.15H274.4C274.4 187.96 274.343 187.776 274.229 187.598C274.119 187.416 273.956 187.266 273.74 187.147C273.529 187.029 273.268 186.97 272.959 186.97C272.634 186.97 272.369 187.021 272.166 187.122C271.967 187.219 271.821 187.344 271.728 187.497C271.639 187.649 271.595 187.81 271.595 187.979C271.595 188.106 271.616 188.22 271.658 188.322C271.705 188.419 271.785 188.51 271.899 188.595C272.014 188.675 272.174 188.751 272.382 188.823C272.589 188.895 272.854 188.967 273.175 189.039C273.738 189.166 274.201 189.318 274.565 189.496C274.929 189.674 275.2 189.892 275.378 190.15C275.556 190.408 275.645 190.721 275.645 191.089C275.645 191.39 275.581 191.665 275.454 191.915C275.331 192.164 275.152 192.38 274.915 192.562C274.682 192.74 274.403 192.879 274.077 192.981C273.755 193.078 273.393 193.127 272.991 193.127C272.386 193.127 271.874 193.019 271.455 192.803C271.036 192.587 270.719 192.308 270.503 191.965C270.287 191.623 270.179 191.261 270.179 190.88H271.36C271.377 191.201 271.47 191.458 271.639 191.648C271.808 191.834 272.016 191.967 272.261 192.048C272.507 192.124 272.75 192.162 272.991 192.162C273.313 192.162 273.582 192.12 273.797 192.035C274.017 191.951 274.185 191.834 274.299 191.686C274.413 191.538 274.47 191.369 274.47 191.178ZM280.037 193.127C279.559 193.127 279.125 193.047 278.736 192.886C278.351 192.721 278.019 192.49 277.739 192.194C277.464 191.898 277.253 191.546 277.104 191.14C276.956 190.734 276.882 190.29 276.882 189.807V189.541C276.882 188.982 276.965 188.485 277.13 188.049C277.295 187.609 277.519 187.236 277.803 186.932C278.086 186.627 278.408 186.396 278.768 186.24C279.127 186.083 279.5 186.005 279.885 186.005C280.376 186.005 280.799 186.09 281.154 186.259C281.514 186.428 281.808 186.665 282.037 186.97C282.265 187.27 282.434 187.626 282.544 188.036C282.654 188.442 282.709 188.887 282.709 189.369V189.896H277.581V188.938H281.535V188.849C281.518 188.544 281.455 188.248 281.345 187.96C281.239 187.672 281.07 187.435 280.837 187.249C280.604 187.063 280.287 186.97 279.885 186.97C279.618 186.97 279.373 187.027 279.148 187.141C278.924 187.251 278.732 187.416 278.571 187.636C278.41 187.856 278.285 188.125 278.196 188.442C278.107 188.76 278.063 189.126 278.063 189.541V189.807C278.063 190.133 278.107 190.44 278.196 190.728C278.289 191.011 278.423 191.261 278.596 191.477C278.774 191.692 278.988 191.862 279.237 191.984C279.491 192.107 279.779 192.168 280.101 192.168C280.515 192.168 280.867 192.084 281.154 191.915C281.442 191.745 281.694 191.519 281.91 191.235L282.621 191.8C282.472 192.025 282.284 192.238 282.056 192.441C281.827 192.645 281.546 192.81 281.211 192.937C280.881 193.063 280.49 193.127 280.037 193.127ZM286.829 192.162C287.108 192.162 287.367 192.105 287.604 191.991C287.84 191.876 288.035 191.72 288.188 191.521C288.34 191.318 288.427 191.087 288.448 190.829H289.565C289.544 191.235 289.406 191.614 289.152 191.965C288.903 192.312 288.575 192.594 288.168 192.81C287.762 193.021 287.316 193.127 286.829 193.127C286.313 193.127 285.862 193.036 285.477 192.854C285.096 192.672 284.779 192.422 284.525 192.105C284.275 191.788 284.087 191.424 283.96 191.013C283.837 190.598 283.776 190.16 283.776 189.699V189.433C283.776 188.971 283.837 188.535 283.96 188.125C284.087 187.71 284.275 187.344 284.525 187.027C284.779 186.709 285.096 186.46 285.477 186.278C285.862 186.096 286.313 186.005 286.829 186.005C287.367 186.005 287.836 186.115 288.238 186.335C288.64 186.551 288.956 186.847 289.184 187.224C289.417 187.596 289.544 188.019 289.565 188.493H288.448C288.427 188.21 288.346 187.954 288.207 187.725C288.071 187.497 287.885 187.315 287.648 187.179C287.415 187.04 287.142 186.97 286.829 186.97C286.469 186.97 286.167 187.042 285.921 187.186C285.68 187.325 285.488 187.516 285.344 187.757C285.204 187.994 285.103 188.258 285.039 188.55C284.98 188.838 284.95 189.132 284.95 189.433V189.699C284.95 190 284.98 190.296 285.039 190.588C285.098 190.88 285.198 191.144 285.337 191.381C285.481 191.618 285.674 191.809 285.915 191.953C286.16 192.092 286.465 192.162 286.829 192.162ZM293.761 186.132V187.033H290.047V186.132H293.761ZM291.304 184.462H292.479V191.299C292.479 191.532 292.514 191.707 292.586 191.826C292.658 191.944 292.751 192.022 292.866 192.061C292.98 192.099 293.103 192.118 293.234 192.118C293.331 192.118 293.433 192.109 293.539 192.092C293.649 192.071 293.731 192.054 293.786 192.042L293.792 193C293.699 193.03 293.577 193.057 293.424 193.083C293.276 193.112 293.096 193.127 292.885 193.127C292.597 193.127 292.333 193.07 292.091 192.956C291.85 192.841 291.658 192.651 291.514 192.384C291.374 192.113 291.304 191.75 291.304 191.292V184.462ZM297.988 193.127C297.51 193.127 297.076 193.047 296.687 192.886C296.302 192.721 295.97 192.49 295.69 192.194C295.415 191.898 295.204 191.546 295.056 191.14C294.908 190.734 294.833 190.29 294.833 189.807V189.541C294.833 188.982 294.916 188.485 295.081 188.049C295.246 187.609 295.47 187.236 295.754 186.932C296.037 186.627 296.359 186.396 296.719 186.24C297.078 186.083 297.451 186.005 297.836 186.005C298.327 186.005 298.75 186.09 299.105 186.259C299.465 186.428 299.759 186.665 299.988 186.97C300.216 187.27 300.386 187.626 300.496 188.036C300.606 188.442 300.661 188.887 300.661 189.369V189.896H295.532V188.938H299.486V188.849C299.469 188.544 299.406 188.248 299.296 187.96C299.19 187.672 299.021 187.435 298.788 187.249C298.555 187.063 298.238 186.97 297.836 186.97C297.569 186.97 297.324 187.027 297.1 187.141C296.875 187.251 296.683 187.416 296.522 187.636C296.361 187.856 296.236 188.125 296.147 188.442C296.059 188.76 296.014 189.126 296.014 189.541V189.807C296.014 190.133 296.059 190.44 296.147 190.728C296.241 191.011 296.374 191.261 296.547 191.477C296.725 191.692 296.939 191.862 297.188 191.984C297.442 192.107 297.73 192.168 298.052 192.168C298.466 192.168 298.818 192.084 299.105 191.915C299.393 191.745 299.645 191.519 299.861 191.235L300.572 191.8C300.424 192.025 300.235 192.238 300.007 192.441C299.778 192.645 299.497 192.81 299.163 192.937C298.833 193.063 298.441 193.127 297.988 193.127ZM304.907 186.132V187.033H301.194V186.132H304.907ZM302.451 184.462H303.625V191.299C303.625 191.532 303.661 191.707 303.733 191.826C303.805 191.944 303.898 192.022 304.012 192.061C304.126 192.099 304.249 192.118 304.38 192.118C304.478 192.118 304.579 192.109 304.685 192.092C304.795 192.071 304.878 192.054 304.933 192.042L304.939 193C304.846 193.03 304.723 193.057 304.571 193.083C304.423 193.112 304.243 193.127 304.031 193.127C303.743 193.127 303.479 193.07 303.238 192.956C302.997 192.841 302.804 192.651 302.66 192.384C302.521 192.113 302.451 191.75 302.451 191.292V184.462ZM310.487 191.413V186.132H311.667V193H310.544L310.487 191.413ZM310.709 189.966L311.198 189.953C311.198 190.41 311.149 190.833 311.052 191.223C310.959 191.608 310.806 191.942 310.595 192.226C310.383 192.509 310.106 192.731 309.763 192.892C309.42 193.049 309.004 193.127 308.513 193.127C308.178 193.127 307.872 193.078 307.592 192.981C307.317 192.884 307.08 192.733 306.881 192.53C306.682 192.327 306.528 192.063 306.418 191.737C306.312 191.411 306.259 191.02 306.259 190.562V186.132H307.434V190.575C307.434 190.884 307.467 191.14 307.535 191.343C307.607 191.542 307.702 191.701 307.821 191.819C307.944 191.934 308.079 192.014 308.227 192.061C308.379 192.107 308.536 192.13 308.697 192.13C309.196 192.13 309.592 192.035 309.884 191.845C310.176 191.65 310.385 191.39 310.512 191.064C310.643 190.734 310.709 190.368 310.709 189.966ZM314.632 187.211V193H313.458V186.132H314.6L314.632 187.211ZM316.777 186.094L316.771 187.186C316.674 187.164 316.581 187.152 316.492 187.147C316.407 187.139 316.31 187.135 316.2 187.135C315.929 187.135 315.69 187.177 315.482 187.262C315.275 187.346 315.099 187.465 314.956 187.617C314.812 187.77 314.697 187.951 314.613 188.163C314.532 188.37 314.479 188.599 314.454 188.849L314.124 189.039C314.124 188.624 314.164 188.235 314.245 187.871C314.329 187.507 314.458 187.186 314.632 186.906C314.805 186.623 315.025 186.403 315.292 186.246C315.563 186.085 315.884 186.005 316.257 186.005C316.341 186.005 316.439 186.015 316.549 186.037C316.659 186.054 316.735 186.073 316.777 186.094ZM317.095 192.378C317.095 192.179 317.156 192.012 317.279 191.876C317.406 191.737 317.588 191.667 317.825 191.667C318.062 191.667 318.242 191.737 318.364 191.876C318.491 192.012 318.555 192.179 318.555 192.378C318.555 192.573 318.491 192.738 318.364 192.873C318.242 193.008 318.062 193.076 317.825 193.076C317.588 193.076 317.406 193.008 317.279 192.873C317.156 192.738 317.095 192.573 317.095 192.378Z" fill="#505050"/>
</g>
<rect x="281" y="54" width="24" height="24" rx="12" fill="#0059FF"/>
<path d="M294.181 60.7261V70H292.651V62.5415L290.385 63.3096V62.0464L293.997 60.7261H294.181Z" fill="white"/>
<line x1="293.5" y1="78" x2="293.5" y2="102" stroke="#0059FF"/>
<rect x="155" y="161" width="24" height="24" rx="12" fill="#0059FF"/>
<path d="M170.199 175.781V177H164.004V175.953L167.013 172.671C167.343 172.299 167.603 171.977 167.793 171.706C167.984 171.435 168.117 171.192 168.193 170.976C168.274 170.756 168.314 170.542 168.314 170.335C168.314 170.043 168.259 169.787 168.149 169.567C168.043 169.343 167.887 169.167 167.679 169.04C167.472 168.909 167.22 168.843 166.924 168.843C166.581 168.843 166.293 168.917 166.061 169.065C165.828 169.214 165.652 169.419 165.534 169.681C165.415 169.939 165.356 170.236 165.356 170.57H163.826C163.826 170.032 163.949 169.542 164.194 169.097C164.44 168.649 164.795 168.293 165.261 168.031C165.726 167.764 166.287 167.631 166.943 167.631C167.561 167.631 168.085 167.735 168.517 167.942C168.949 168.149 169.277 168.443 169.501 168.824C169.729 169.205 169.844 169.656 169.844 170.176C169.844 170.464 169.797 170.75 169.704 171.033C169.611 171.317 169.478 171.6 169.304 171.884C169.135 172.163 168.934 172.444 168.701 172.728C168.468 173.007 168.212 173.291 167.933 173.579L165.934 175.781H170.199Z" fill="white"/>
<line x1="179" y1="172.5" x2="215" y2="172.5" stroke="#0059FF"/>
<defs>
<filter id="filter0_dd_8876_92467" x="206" y="93" width="228" height="125" filterUnits="userSpaceOnUse" color-interpolation-filters="sRGB">
<feFlood flood-opacity="0" result="BackgroundImageFix"/>
<feColorMatrix in="SourceAlpha" type="matrix" values="0 0 0 0 0 0 0 0 0 0 0 0 0 0 0 0 0 0 127 0" result="hardAlpha"/>
<feOffset dy="2"/>
<feGaussianBlur stdDeviation="0.5"/>
<feColorMatrix type="matrix" values="0 0 0 0 0.45098 0 0 0 0 0.45098 0 0 0 0 0.45098 0 0 0 0.05 0"/>
<feBlend mode="normal" in2="BackgroundImageFix" result="effect1_dropShadow_8876_92467"/>
<feColorMatrix in="SourceAlpha" type="matrix" values="0 0 0 0 0 0 0 0 0 0 0 0 0 0 0 0 0 0 127 0" result="hardAlpha"/>
<feOffset dy="1"/>
<feGaussianBlur stdDeviation="1"/>
<feColorMatrix type="matrix" values="0 0 0 0 0.45098 0 0 0 0 0.45098 0 0 0 0 0.45098 0 0 0 0.05 0"/>
<feBlend mode="normal" in2="effect1_dropShadow_8876_92467" result="effect2_dropShadow_8876_92467"/>
<feBlend mode="normal" in="SourceGraphic" in2="effect2_dropShadow_8876_92467" result="shape"/>
</filter>
</defs>
</svg>
