<svg width="680" height="240" viewBox="0 0 680 240" fill="none" xmlns="http://www.w3.org/2000/svg">
<rect width="680" height="240" rx="16" fill="#F8F8F8"/>
<path d="M167 80.3333C167 79.3207 167.783 78.5 168.75 78.5H179.25C180.215 78.5 181 79.3207 181 80.3333V87.6667C181 88.6779 180.215 89.5 179.25 89.5H168.75C167.783 89.5 167 88.6779 167 87.6667V80.3333ZM168.312 80.3333V80.9664L173.029 85.0227C173.593 85.5096 174.407 85.5096 174.971 85.0227L179.688 80.9664V80.3076C179.688 80.0812 179.491 79.8492 179.25 79.8492H168.75C168.508 79.8492 168.312 80.0812 168.312 80.3076V80.3333ZM168.312 82.7453V87.6667C168.312 87.9188 168.508 88.125 168.75 88.125H179.25C179.491 88.125 179.688 87.9188 179.688 87.6667V82.7453L175.805 86.0854C174.755 86.9878 173.245 86.9878 172.171 86.0854L168.312 82.7453Z" fill="#505050"/>
<path d="M163.424 115.542V117H157.762V115.542H163.424ZM158.282 106.336V117H156.444V106.336H158.282ZM162.684 110.789V112.225H157.762V110.789H162.684ZM163.387 106.336V107.801H157.762V106.336H163.387ZM166.515 110.687V117H164.75V109.075H166.412L166.515 110.687ZM166.229 112.745L165.628 112.737C165.628 112.19 165.697 111.685 165.833 111.221C165.97 110.757 166.17 110.354 166.434 110.013C166.698 109.666 167.025 109.4 167.416 109.214C167.811 109.024 168.268 108.929 168.785 108.929C169.146 108.929 169.476 108.982 169.774 109.09C170.077 109.192 170.338 109.356 170.558 109.581C170.782 109.805 170.953 110.093 171.07 110.445C171.192 110.796 171.253 111.221 171.253 111.719V117H169.488V111.873C169.488 111.487 169.43 111.185 169.312 110.965C169.2 110.745 169.037 110.589 168.822 110.496C168.612 110.398 168.36 110.35 168.067 110.35C167.735 110.35 167.452 110.413 167.218 110.54C166.988 110.667 166.8 110.84 166.654 111.06C166.507 111.28 166.4 111.534 166.332 111.822C166.263 112.11 166.229 112.417 166.229 112.745ZM171.144 112.276L170.316 112.459C170.316 111.98 170.382 111.529 170.514 111.104C170.65 110.674 170.848 110.298 171.107 109.976C171.371 109.649 171.695 109.393 172.081 109.207C172.467 109.021 172.909 108.929 173.407 108.929C173.812 108.929 174.173 108.985 174.491 109.097C174.813 109.205 175.086 109.375 175.311 109.61C175.536 109.844 175.707 110.149 175.824 110.525C175.941 110.896 176 111.346 176 111.873V117H174.227V111.866C174.227 111.465 174.168 111.155 174.051 110.936C173.939 110.716 173.778 110.564 173.568 110.481C173.358 110.394 173.106 110.35 172.813 110.35C172.54 110.35 172.298 110.401 172.088 110.503C171.883 110.601 171.71 110.74 171.568 110.921C171.427 111.097 171.319 111.299 171.246 111.529C171.178 111.758 171.144 112.007 171.144 112.276ZM182.284 115.411V111.631C182.284 111.348 182.232 111.104 182.13 110.899C182.027 110.694 181.871 110.535 181.661 110.423C181.456 110.311 181.197 110.254 180.885 110.254C180.597 110.254 180.348 110.303 180.138 110.401C179.928 110.499 179.764 110.63 179.647 110.796C179.53 110.962 179.471 111.15 179.471 111.36H177.713C177.713 111.048 177.789 110.745 177.94 110.452C178.092 110.159 178.312 109.898 178.6 109.668C178.888 109.439 179.232 109.258 179.632 109.126C180.033 108.995 180.482 108.929 180.98 108.929C181.576 108.929 182.103 109.029 182.562 109.229C183.026 109.429 183.39 109.732 183.653 110.137C183.922 110.538 184.056 111.041 184.056 111.646V115.169C184.056 115.53 184.081 115.855 184.129 116.143C184.183 116.426 184.259 116.673 184.356 116.883V117H182.547C182.464 116.81 182.398 116.568 182.35 116.275C182.306 115.977 182.284 115.689 182.284 115.411ZM182.54 112.181L182.555 113.272H181.288C180.96 113.272 180.672 113.304 180.423 113.367C180.174 113.426 179.967 113.514 179.801 113.631C179.635 113.748 179.51 113.89 179.427 114.056C179.344 114.222 179.303 114.41 179.303 114.62C179.303 114.83 179.352 115.022 179.449 115.198C179.547 115.369 179.688 115.503 179.874 115.601C180.064 115.699 180.294 115.748 180.562 115.748C180.924 115.748 181.239 115.674 181.507 115.528C181.781 115.376 181.996 115.193 182.152 114.979C182.308 114.759 182.391 114.551 182.401 114.356L182.972 115.14C182.914 115.34 182.813 115.555 182.672 115.784C182.53 116.014 182.345 116.233 182.115 116.443C181.891 116.648 181.62 116.817 181.302 116.949C180.99 117.081 180.628 117.146 180.218 117.146C179.701 117.146 179.239 117.044 178.834 116.839C178.429 116.629 178.111 116.348 177.882 115.997C177.652 115.64 177.538 115.237 177.538 114.788C177.538 114.368 177.616 113.997 177.772 113.675C177.933 113.348 178.167 113.074 178.475 112.854C178.788 112.635 179.168 112.469 179.618 112.356C180.067 112.239 180.58 112.181 181.156 112.181H182.54ZM187.792 109.075V117H186.019V109.075H187.792ZM185.902 106.995C185.902 106.727 185.99 106.504 186.166 106.329C186.346 106.148 186.595 106.058 186.913 106.058C187.225 106.058 187.472 106.148 187.652 106.329C187.833 106.504 187.923 106.727 187.923 106.995C187.923 107.259 187.833 107.479 187.652 107.654C187.472 107.83 187.225 107.918 186.913 107.918C186.595 107.918 186.346 107.83 186.166 107.654C185.99 107.479 185.902 107.259 185.902 106.995ZM191.615 105.75V117H189.842V105.75H191.615Z" fill="#505050"/>
<rect x="109" y="60" width="130" height="80" rx="8" stroke="#737373"/>
<path d="M210.73 72.4658H208.919V71.3232H210.73C211.01 71.3232 211.238 71.2777 211.414 71.1865C211.59 71.0921 211.718 70.9619 211.8 70.7959C211.881 70.6299 211.922 70.4427 211.922 70.2344C211.922 70.0228 211.881 69.8258 211.8 69.6436C211.718 69.4613 211.59 69.3148 211.414 69.2041C211.238 69.0934 211.01 69.0381 210.73 69.0381H209.427V75H207.962V67.8906H210.73C211.287 67.8906 211.764 67.9915 212.161 68.1934C212.561 68.3919 212.867 68.667 213.079 69.0186C213.29 69.3701 213.396 69.7721 213.396 70.2246C213.396 70.6836 213.29 71.0807 213.079 71.416C212.867 71.7513 212.561 72.0101 212.161 72.1924C211.764 72.3747 211.287 72.4658 210.73 72.4658ZM214.207 67.8906H216.858C217.402 67.8906 217.869 67.972 218.26 68.1348C218.654 68.2975 218.956 68.5384 219.168 68.8574C219.38 69.1764 219.485 69.5687 219.485 70.0342C219.485 70.415 219.42 70.7422 219.29 71.0156C219.163 71.2858 218.982 71.512 218.748 71.6943C218.517 71.8734 218.245 72.0166 217.933 72.124L217.469 72.3682H215.164L215.154 71.2256H216.868C217.125 71.2256 217.339 71.18 217.508 71.0889C217.677 70.9977 217.804 70.8708 217.889 70.708C217.977 70.5452 218.021 70.3564 218.021 70.1416C218.021 69.9137 217.978 69.7168 217.894 69.5508C217.809 69.3848 217.68 69.2578 217.508 69.1699C217.335 69.082 217.119 69.0381 216.858 69.0381H215.672V75H214.207V67.8906ZM218.182 75L216.561 71.8311L218.108 71.8213L219.749 74.9316V75H218.182ZM226.253 71.2793V71.6162C226.253 72.1566 226.18 72.6416 226.033 73.0713C225.887 73.501 225.68 73.8672 225.413 74.1699C225.146 74.4694 224.827 74.6989 224.456 74.8584C224.088 75.0179 223.68 75.0977 223.231 75.0977C222.785 75.0977 222.376 75.0179 222.005 74.8584C221.637 74.6989 221.318 74.4694 221.048 74.1699C220.778 73.8672 220.568 73.501 220.418 73.0713C220.272 72.6416 220.198 72.1566 220.198 71.6162V71.2793C220.198 70.7357 220.272 70.2507 220.418 69.8242C220.565 69.3945 220.771 69.0283 221.038 68.7256C221.308 68.4229 221.627 68.1917 221.995 68.0322C222.366 67.8727 222.775 67.793 223.221 67.793C223.67 67.793 224.079 67.8727 224.446 68.0322C224.818 68.1917 225.137 68.4229 225.404 68.7256C225.674 69.0283 225.882 69.3945 226.029 69.8242C226.178 70.2507 226.253 70.7357 226.253 71.2793ZM224.774 71.6162V71.2695C224.774 70.8919 224.739 70.5599 224.671 70.2734C224.603 69.987 224.502 69.7461 224.368 69.5508C224.235 69.3555 224.072 69.209 223.88 69.1113C223.688 69.0104 223.468 68.96 223.221 68.96C222.974 68.96 222.754 69.0104 222.562 69.1113C222.373 69.209 222.212 69.3555 222.078 69.5508C221.948 69.7461 221.849 69.987 221.78 70.2734C221.712 70.5599 221.678 70.8919 221.678 71.2695V71.6162C221.678 71.9906 221.712 72.3226 221.78 72.6123C221.849 72.8988 221.95 73.1413 222.083 73.3398C222.217 73.5352 222.379 73.6833 222.571 73.7842C222.764 73.8851 222.983 73.9355 223.231 73.9355C223.478 73.9355 223.698 73.8851 223.89 73.7842C224.082 73.6833 224.243 73.5352 224.373 73.3398C224.503 73.1413 224.603 72.8988 224.671 72.6123C224.739 72.3226 224.774 71.9906 224.774 71.6162Z" fill="#1A1A1A"/>
<rect x="199.5" y="64.5" width="35" height="15" rx="7.5" stroke="#1A1A1A"/>
<g clip-path="url(#clip0_8951_93366)">
<path fill-rule="evenodd" clip-rule="evenodd" d="M343 78.4C339.907 78.4 337.4 80.9072 337.4 84C337.4 87.0928 339.907 89.6 343 89.6C346.093 89.6 348.6 87.0928 348.6 84C348.6 80.9072 346.093 78.4 343 78.4ZM336 84C336 80.134 339.134 77 343 77C346.866 77 350 80.134 350 84C350 87.866 346.866 91 343 91C339.134 91 336 87.866 336 84ZM342.3 81.48C342.3 81.0934 342.613 80.78 343 80.78H343.006C343.393 80.78 343.706 81.0934 343.706 81.48C343.706 81.8666 343.393 82.18 343.006 82.18H343C342.613 82.18 342.3 81.8666 342.3 81.48ZM343 83.3C343.387 83.3 343.7 83.6134 343.7 84V86.52C343.7 86.9066 343.387 87.22 343 87.22C342.613 87.22 342.3 86.9066 342.3 86.52V84C342.3 83.6134 342.613 83.3 343 83.3Z" fill="#505050"/>
<path d="M368.587 83.375V83.9609C368.587 84.7666 368.482 85.4893 368.272 86.1289C368.062 86.7686 367.762 87.313 367.372 87.7622C366.986 88.2114 366.522 88.5557 365.98 88.7949C365.438 89.0293 364.837 89.1465 364.178 89.1465C363.524 89.1465 362.926 89.0293 362.384 88.7949C361.847 88.5557 361.38 88.2114 360.985 87.7622C360.589 87.313 360.282 86.7686 360.062 86.1289C359.847 85.4893 359.74 84.7666 359.74 83.9609V83.375C359.74 82.5693 359.847 81.8491 360.062 81.2144C360.277 80.5747 360.58 80.0303 360.97 79.5811C361.366 79.127 361.832 78.7827 362.369 78.5483C362.911 78.3091 363.509 78.1895 364.164 78.1895C364.823 78.1895 365.423 78.3091 365.965 78.5483C366.507 78.7827 366.974 79.127 367.364 79.5811C367.755 80.0303 368.055 80.5747 368.265 81.2144C368.48 81.8491 368.587 82.5693 368.587 83.375ZM366.749 83.9609V83.3604C366.749 82.7646 366.69 82.2397 366.573 81.7856C366.461 81.3267 366.292 80.9434 366.068 80.6357C365.848 80.3232 365.577 80.0889 365.255 79.9326C364.933 79.7715 364.569 79.6909 364.164 79.6909C363.758 79.6909 363.397 79.7715 363.08 79.9326C362.762 80.0889 362.491 80.3232 362.267 80.6357C362.047 80.9434 361.878 81.3267 361.761 81.7856C361.644 82.2397 361.585 82.7646 361.585 83.3604V83.9609C361.585 84.5566 361.644 85.084 361.761 85.543C361.878 86.002 362.049 86.3901 362.274 86.7075C362.503 87.02 362.777 87.2568 363.094 87.418C363.412 87.5742 363.773 87.6523 364.178 87.6523C364.588 87.6523 364.952 87.5742 365.27 87.418C365.587 87.2568 365.855 87.02 366.075 86.7075C366.295 86.3901 366.461 86.002 366.573 85.543C366.69 85.084 366.749 84.5566 366.749 83.9609ZM372.022 82.5986V92.0469H370.257V81.0752H371.883L372.022 82.5986ZM377.186 84.9644V85.1182C377.186 85.6943 377.118 86.229 376.981 86.7222C376.849 87.2104 376.651 87.6377 376.388 88.0039C376.129 88.3652 375.809 88.646 375.428 88.8462C375.047 89.0464 374.608 89.1465 374.11 89.1465C373.617 89.1465 373.185 89.0562 372.813 88.8755C372.447 88.6899 372.137 88.4287 371.883 88.0918C371.629 87.7549 371.424 87.3594 371.268 86.9053C371.117 86.4463 371.009 85.9434 370.946 85.3965V84.8032C371.009 84.2222 371.117 83.6948 371.268 83.2212C371.424 82.7476 371.629 82.3398 371.883 81.998C372.137 81.6562 372.447 81.3926 372.813 81.207C373.18 81.0215 373.607 80.9287 374.095 80.9287C374.593 80.9287 375.035 81.0264 375.421 81.2217C375.807 81.4121 376.131 81.6855 376.395 82.042C376.659 82.3936 376.856 82.8184 376.988 83.3164C377.12 83.8096 377.186 84.3589 377.186 84.9644ZM375.421 85.1182V84.9644C375.421 84.5981 375.387 84.2588 375.318 83.9463C375.25 83.6289 375.143 83.3506 374.996 83.1113C374.85 82.8721 374.662 82.6865 374.432 82.5547C374.208 82.418 373.937 82.3496 373.619 82.3496C373.307 82.3496 373.038 82.4033 372.813 82.5107C372.589 82.6133 372.401 82.7573 372.25 82.9429C372.098 83.1284 371.981 83.3457 371.898 83.5947C371.815 83.8389 371.756 84.105 371.722 84.3931V85.814C371.781 86.1655 371.881 86.4878 372.022 86.7808C372.164 87.0737 372.364 87.3081 372.623 87.4839C372.887 87.6548 373.224 87.7402 373.634 87.7402C373.951 87.7402 374.222 87.6719 374.447 87.5352C374.671 87.3984 374.854 87.2104 374.996 86.9712C375.143 86.7271 375.25 86.4463 375.318 86.1289C375.387 85.8115 375.421 85.4746 375.421 85.1182ZM382.32 81.0752V82.3643H377.853V81.0752H382.32ZM379.142 79.1343H380.907V86.8101C380.907 87.0542 380.941 87.2422 381.009 87.374C381.083 87.501 381.183 87.5864 381.31 87.6304C381.437 87.6743 381.585 87.6963 381.756 87.6963C381.878 87.6963 381.996 87.689 382.108 87.6743C382.22 87.6597 382.311 87.645 382.379 87.6304L382.386 88.978C382.24 89.022 382.069 89.061 381.874 89.0952C381.683 89.1294 381.463 89.1465 381.214 89.1465C380.809 89.1465 380.45 89.0757 380.138 88.9341C379.825 88.7876 379.581 88.5508 379.405 88.2236C379.229 87.8965 379.142 87.4619 379.142 86.9199V79.1343ZM385.572 81.0752V89H383.8V81.0752H385.572ZM383.683 78.9951C383.683 78.7266 383.771 78.5044 383.946 78.3286C384.127 78.1479 384.376 78.0576 384.693 78.0576C385.006 78.0576 385.252 78.1479 385.433 78.3286C385.614 78.5044 385.704 78.7266 385.704 78.9951C385.704 79.2588 385.614 79.4785 385.433 79.6543C385.252 79.8301 385.006 79.918 384.693 79.918C384.376 79.918 384.127 79.8301 383.946 79.6543C383.771 79.4785 383.683 79.2588 383.683 78.9951ZM387.169 85.1255V84.957C387.169 84.3857 387.252 83.856 387.418 83.3677C387.584 82.8745 387.823 82.4473 388.136 82.0859C388.453 81.7197 388.839 81.4365 389.293 81.2363C389.752 81.0312 390.27 80.9287 390.846 80.9287C391.427 80.9287 391.944 81.0312 392.398 81.2363C392.857 81.4365 393.246 81.7197 393.563 82.0859C393.88 82.4473 394.122 82.8745 394.288 83.3677C394.454 83.856 394.537 84.3857 394.537 84.957V85.1255C394.537 85.6968 394.454 86.2266 394.288 86.7148C394.122 87.2031 393.88 87.6304 393.563 87.9966C393.246 88.3579 392.86 88.6411 392.406 88.8462C391.952 89.0464 391.437 89.1465 390.86 89.1465C390.279 89.1465 389.759 89.0464 389.3 88.8462C388.846 88.6411 388.46 88.3579 388.143 87.9966C387.826 87.6304 387.584 87.2031 387.418 86.7148C387.252 86.2266 387.169 85.6968 387.169 85.1255ZM388.934 84.957V85.1255C388.934 85.4819 388.971 85.8188 389.044 86.1362C389.117 86.4536 389.232 86.7319 389.388 86.9712C389.544 87.2104 389.745 87.3984 389.989 87.5352C390.233 87.6719 390.523 87.7402 390.86 87.7402C391.188 87.7402 391.471 87.6719 391.71 87.5352C391.954 87.3984 392.154 87.2104 392.311 86.9712C392.467 86.7319 392.582 86.4536 392.655 86.1362C392.733 85.8188 392.772 85.4819 392.772 85.1255V84.957C392.772 84.6055 392.733 84.2734 392.655 83.9609C392.582 83.6436 392.464 83.3628 392.303 83.1187C392.147 82.8745 391.947 82.6841 391.703 82.5474C391.463 82.4058 391.178 82.335 390.846 82.335C390.514 82.335 390.226 82.4058 389.981 82.5474C389.742 82.6841 389.544 82.8745 389.388 83.1187C389.232 83.3628 389.117 83.6436 389.044 83.9609C388.971 84.2734 388.934 84.6055 388.934 84.957ZM397.767 82.7671V89H396.002V81.0752H397.665L397.767 82.7671ZM397.452 84.7446L396.881 84.7373C396.886 84.1758 396.964 83.6606 397.115 83.1919C397.271 82.7231 397.486 82.3203 397.76 81.9834C398.038 81.6465 398.37 81.3877 398.756 81.207C399.142 81.0215 399.571 80.9287 400.045 80.9287C400.426 80.9287 400.77 80.9824 401.078 81.0898C401.39 81.1924 401.656 81.3608 401.876 81.5952C402.101 81.8296 402.271 82.1348 402.389 82.5107C402.506 82.8818 402.564 83.3384 402.564 83.8804V89H400.792V83.873C400.792 83.4922 400.736 83.1919 400.624 82.9722C400.516 82.7476 400.357 82.5889 400.147 82.4961C399.942 82.3984 399.686 82.3496 399.378 82.3496C399.076 82.3496 398.805 82.4131 398.565 82.54C398.326 82.667 398.124 82.8403 397.958 83.0601C397.796 83.2798 397.672 83.5337 397.584 83.8218C397.496 84.1099 397.452 84.4175 397.452 84.7446ZM416.737 78.3359V89H414.898L410.116 81.3608V89H408.277V78.3359H410.116L414.913 85.9897V78.3359H416.737ZM423.219 87.4106V83.6313C423.219 83.3481 423.167 83.104 423.065 82.8989C422.962 82.6938 422.806 82.5352 422.596 82.4229C422.391 82.3105 422.132 82.2544 421.82 82.2544C421.532 82.2544 421.283 82.3032 421.073 82.4009C420.863 82.4985 420.699 82.6304 420.582 82.7964C420.465 82.9624 420.406 83.1504 420.406 83.3604H418.648C418.648 83.0479 418.724 82.7451 418.875 82.4521C419.027 82.1592 419.247 81.8979 419.535 81.6685C419.823 81.439 420.167 81.2583 420.567 81.1265C420.968 80.9946 421.417 80.9287 421.915 80.9287C422.511 80.9287 423.038 81.0288 423.497 81.229C423.961 81.4292 424.325 81.7319 424.588 82.1372C424.857 82.5376 424.991 83.0405 424.991 83.646V87.1689C424.991 87.5303 425.016 87.855 425.064 88.1431C425.118 88.4263 425.194 88.6729 425.292 88.8828V89H423.482C423.399 88.8096 423.333 88.5679 423.285 88.2749C423.241 87.9771 423.219 87.689 423.219 87.4106ZM423.475 84.1807L423.49 85.272H422.223C421.896 85.272 421.607 85.3037 421.358 85.3672C421.109 85.4258 420.902 85.5137 420.736 85.6309C420.57 85.748 420.445 85.8896 420.362 86.0557C420.279 86.2217 420.238 86.4097 420.238 86.6196C420.238 86.8296 420.287 87.0225 420.384 87.1982C420.482 87.3691 420.624 87.5034 420.809 87.6011C421 87.6987 421.229 87.7476 421.498 87.7476C421.859 87.7476 422.174 87.6743 422.442 87.5278C422.716 87.3765 422.931 87.1934 423.087 86.9785C423.243 86.7588 423.326 86.5513 423.336 86.356L423.907 87.1396C423.849 87.3398 423.749 87.5547 423.607 87.7842C423.465 88.0137 423.28 88.2334 423.05 88.4434C422.826 88.6484 422.555 88.8169 422.237 88.9487C421.925 89.0806 421.563 89.1465 421.153 89.1465C420.636 89.1465 420.174 89.0439 419.769 88.8389C419.364 88.6289 419.046 88.3481 418.817 87.9966C418.587 87.6401 418.473 87.2373 418.473 86.7881C418.473 86.3682 418.551 85.9971 418.707 85.6748C418.868 85.3477 419.103 85.0742 419.41 84.8545C419.723 84.6348 420.104 84.4688 420.553 84.3564C421.002 84.2393 421.515 84.1807 422.091 84.1807H423.475ZM428.602 82.6865V89H426.837V81.0752H428.5L428.602 82.6865ZM428.316 84.7446L427.716 84.7373C427.716 84.1904 427.784 83.6851 427.921 83.2212C428.058 82.7573 428.258 82.3545 428.521 82.0127C428.785 81.666 429.112 81.3999 429.503 81.2144C429.898 81.0239 430.355 80.9287 430.873 80.9287C431.234 80.9287 431.563 80.9824 431.861 81.0898C432.164 81.1924 432.425 81.356 432.645 81.5806C432.87 81.8052 433.041 82.0933 433.158 82.4448C433.28 82.7964 433.341 83.2212 433.341 83.7192V89H431.576V83.873C431.576 83.4873 431.517 83.1846 431.4 82.9648C431.288 82.7451 431.124 82.5889 430.909 82.4961C430.699 82.3984 430.448 82.3496 430.155 82.3496C429.823 82.3496 429.54 82.4131 429.305 82.54C429.076 82.667 428.888 82.8403 428.741 83.0601C428.595 83.2798 428.487 83.5337 428.419 83.8218C428.351 84.1099 428.316 84.4175 428.316 84.7446ZM433.231 84.2759L432.403 84.459C432.403 83.9805 432.469 83.5288 432.601 83.104C432.738 82.6743 432.936 82.2983 433.194 81.9761C433.458 81.6489 433.783 81.3926 434.168 81.207C434.554 81.0215 434.996 80.9287 435.494 80.9287C435.899 80.9287 436.261 80.9849 436.578 81.0972C436.9 81.2046 437.174 81.3755 437.398 81.6099C437.623 81.8442 437.794 82.1494 437.911 82.5254C438.028 82.8965 438.087 83.3457 438.087 83.873V89H436.314V83.8657C436.314 83.4653 436.256 83.1553 436.139 82.9355C436.026 82.7158 435.865 82.5645 435.655 82.4814C435.445 82.3936 435.194 82.3496 434.901 82.3496C434.627 82.3496 434.386 82.4009 434.176 82.5034C433.971 82.6011 433.797 82.7402 433.656 82.9209C433.514 83.0967 433.407 83.2993 433.333 83.5288C433.265 83.7583 433.231 84.0073 433.231 84.2759ZM443.397 89.1465C442.811 89.1465 442.281 89.0513 441.808 88.8608C441.339 88.6655 440.938 88.3945 440.606 88.0479C440.279 87.7012 440.028 87.2935 439.852 86.8247C439.676 86.356 439.588 85.8506 439.588 85.3086V85.0156C439.588 84.3955 439.679 83.834 439.859 83.3311C440.04 82.8281 440.292 82.3984 440.614 82.042C440.936 81.6807 441.317 81.4048 441.756 81.2144C442.196 81.0239 442.672 80.9287 443.185 80.9287C443.751 80.9287 444.247 81.0239 444.671 81.2144C445.096 81.4048 445.448 81.6733 445.726 82.02C446.009 82.3618 446.219 82.7695 446.356 83.2432C446.498 83.7168 446.568 84.2393 446.568 84.8105V85.5649H440.445V84.2979H444.825V84.1587C444.815 83.8413 444.752 83.5435 444.635 83.2651C444.522 82.9868 444.349 82.7622 444.115 82.5913C443.88 82.4204 443.568 82.335 443.177 82.335C442.884 82.335 442.623 82.3984 442.394 82.5254C442.169 82.6475 441.981 82.8257 441.83 83.0601C441.678 83.2944 441.561 83.5776 441.478 83.9097C441.4 84.2368 441.361 84.6055 441.361 85.0156V85.3086C441.361 85.6553 441.407 85.9775 441.5 86.2754C441.598 86.5684 441.739 86.8247 441.925 87.0444C442.11 87.2642 442.335 87.4375 442.599 87.5645C442.862 87.6865 443.163 87.7476 443.5 87.7476C443.924 87.7476 444.303 87.6621 444.635 87.4912C444.967 87.3203 445.255 87.0786 445.499 86.7661L446.429 87.667C446.258 87.916 446.036 88.1553 445.763 88.3848C445.489 88.6094 445.155 88.7925 444.759 88.9341C444.369 89.0757 443.915 89.1465 443.397 89.1465Z" fill="#505050"/>
<path d="M486.73 84.4658H484.919V83.3232H486.73C487.01 83.3232 487.238 83.2777 487.414 83.1865C487.59 83.0921 487.718 82.9619 487.8 82.7959C487.881 82.6299 487.922 82.4427 487.922 82.2344C487.922 82.0228 487.881 81.8258 487.8 81.6436C487.718 81.4613 487.59 81.3148 487.414 81.2041C487.238 81.0934 487.01 81.0381 486.73 81.0381H485.427V87H483.962V79.8906H486.73C487.287 79.8906 487.764 79.9915 488.161 80.1934C488.561 80.3919 488.867 80.667 489.079 81.0186C489.29 81.3701 489.396 81.7721 489.396 82.2246C489.396 82.6836 489.29 83.0807 489.079 83.416C488.867 83.7513 488.561 84.0101 488.161 84.1924C487.764 84.3747 487.287 84.4658 486.73 84.4658ZM490.207 79.8906H492.858C493.402 79.8906 493.869 79.972 494.26 80.1348C494.654 80.2975 494.956 80.5384 495.168 80.8574C495.38 81.1764 495.485 81.5687 495.485 82.0342C495.485 82.415 495.42 82.7422 495.29 83.0156C495.163 83.2858 494.982 83.512 494.748 83.6943C494.517 83.8734 494.245 84.0166 493.933 84.124L493.469 84.3682H491.164L491.154 83.2256H492.868C493.125 83.2256 493.339 83.18 493.508 83.0889C493.677 82.9977 493.804 82.8708 493.889 82.708C493.977 82.5452 494.021 82.3564 494.021 82.1416C494.021 81.9137 493.978 81.7168 493.894 81.5508C493.809 81.3848 493.68 81.2578 493.508 81.1699C493.335 81.082 493.119 81.0381 492.858 81.0381H491.672V87H490.207V79.8906ZM494.182 87L492.561 83.8311L494.108 83.8213L495.749 86.9316V87H494.182ZM502.253 83.2793V83.6162C502.253 84.1566 502.18 84.6416 502.033 85.0713C501.887 85.501 501.68 85.8672 501.413 86.1699C501.146 86.4694 500.827 86.6989 500.456 86.8584C500.088 87.0179 499.68 87.0977 499.231 87.0977C498.785 87.0977 498.376 87.0179 498.005 86.8584C497.637 86.6989 497.318 86.4694 497.048 86.1699C496.778 85.8672 496.568 85.501 496.418 85.0713C496.272 84.6416 496.198 84.1566 496.198 83.6162V83.2793C496.198 82.7357 496.272 82.2507 496.418 81.8242C496.565 81.3945 496.771 81.0283 497.038 80.7256C497.308 80.4229 497.627 80.1917 497.995 80.0322C498.366 79.8727 498.775 79.793 499.221 79.793C499.67 79.793 500.079 79.8727 500.446 80.0322C500.818 80.1917 501.137 80.4229 501.404 80.7256C501.674 81.0283 501.882 81.3945 502.029 81.8242C502.178 82.2507 502.253 82.7357 502.253 83.2793ZM500.774 83.6162V83.2695C500.774 82.8919 500.739 82.5599 500.671 82.2734C500.603 81.987 500.502 81.7461 500.368 81.5508C500.235 81.3555 500.072 81.209 499.88 81.1113C499.688 81.0104 499.468 80.96 499.221 80.96C498.974 80.96 498.754 81.0104 498.562 81.1113C498.373 81.209 498.212 81.3555 498.078 81.5508C497.948 81.7461 497.849 81.987 497.78 82.2734C497.712 82.5599 497.678 82.8919 497.678 83.2695V83.6162C497.678 83.9906 497.712 84.3226 497.78 84.6123C497.849 84.8988 497.95 85.1413 498.083 85.3398C498.217 85.5352 498.379 85.6833 498.571 85.7842C498.764 85.8851 498.983 85.9355 499.231 85.9355C499.478 85.9355 499.698 85.8851 499.89 85.7842C500.082 85.6833 500.243 85.5352 500.373 85.3398C500.503 85.1413 500.603 84.8988 500.671 84.6123C500.739 84.3226 500.774 83.9906 500.774 83.6162Z" fill="#1A1A1A"/>
<rect x="475.5" y="76.5" width="35" height="15" rx="7.5" stroke="#1A1A1A"/>
<rect x="319" y="108" width="208" height="1" fill="#AAAAAA"/>
<path d="M339.494 130.577L336.435 139H335.184L338.707 129.758H339.513L339.494 130.577ZM342.059 139L338.993 130.577L338.974 129.758H339.78L343.315 139H342.059ZM341.9 135.579V136.582H336.708V135.579H341.9ZM347.226 139.127C346.747 139.127 346.314 139.047 345.924 138.886C345.539 138.721 345.207 138.49 344.928 138.194C344.653 137.898 344.441 137.546 344.293 137.14C344.145 136.734 344.071 136.29 344.071 135.807V135.541C344.071 134.982 344.153 134.485 344.318 134.049C344.483 133.609 344.708 133.236 344.991 132.932C345.275 132.627 345.596 132.396 345.956 132.24C346.316 132.083 346.688 132.005 347.073 132.005C347.564 132.005 347.987 132.09 348.343 132.259C348.702 132.428 348.997 132.665 349.225 132.97C349.454 133.27 349.623 133.626 349.733 134.036C349.843 134.442 349.898 134.887 349.898 135.369V135.896H344.769V134.938H348.724V134.849C348.707 134.544 348.643 134.248 348.533 133.96C348.427 133.672 348.258 133.435 348.025 133.249C347.793 133.063 347.475 132.97 347.073 132.97C346.807 132.97 346.561 133.027 346.337 133.141C346.113 133.251 345.92 133.416 345.759 133.636C345.598 133.856 345.474 134.125 345.385 134.442C345.296 134.76 345.251 135.126 345.251 135.541V135.807C345.251 136.133 345.296 136.44 345.385 136.728C345.478 137.011 345.611 137.261 345.785 137.477C345.962 137.692 346.176 137.862 346.426 137.984C346.68 138.107 346.967 138.168 347.289 138.168C347.704 138.168 348.055 138.084 348.343 137.915C348.631 137.745 348.882 137.519 349.098 137.235L349.809 137.8C349.661 138.025 349.473 138.238 349.244 138.441C349.016 138.645 348.734 138.81 348.4 138.937C348.07 139.063 347.678 139.127 347.226 139.127ZM352.443 133.598V139H351.269V132.132H352.38L352.443 133.598ZM352.164 135.306L351.675 135.287C351.68 134.817 351.749 134.383 351.885 133.985C352.02 133.583 352.211 133.234 352.456 132.938C352.701 132.642 352.993 132.413 353.332 132.252C353.675 132.087 354.054 132.005 354.468 132.005C354.807 132.005 355.111 132.051 355.382 132.145C355.653 132.233 355.884 132.377 356.074 132.576C356.269 132.775 356.417 133.033 356.519 133.351C356.62 133.664 356.671 134.047 356.671 134.5V139H355.49V134.487C355.49 134.127 355.437 133.839 355.332 133.624C355.226 133.403 355.071 133.245 354.868 133.147C354.665 133.046 354.415 132.995 354.119 132.995C353.827 132.995 353.561 133.056 353.319 133.179C353.082 133.302 352.877 133.471 352.704 133.687C352.534 133.903 352.401 134.15 352.304 134.43C352.211 134.705 352.164 134.997 352.164 135.306ZM361.305 139.127C360.826 139.127 360.393 139.047 360.003 138.886C359.618 138.721 359.286 138.49 359.007 138.194C358.732 137.898 358.52 137.546 358.372 137.14C358.224 136.734 358.15 136.29 358.15 135.807V135.541C358.15 134.982 358.232 134.485 358.397 134.049C358.562 133.609 358.787 133.236 359.07 132.932C359.354 132.627 359.675 132.396 360.035 132.24C360.395 132.083 360.767 132.005 361.152 132.005C361.643 132.005 362.066 132.09 362.422 132.259C362.782 132.428 363.076 132.665 363.304 132.97C363.533 133.27 363.702 133.626 363.812 134.036C363.922 134.442 363.977 134.887 363.977 135.369V135.896H358.848V134.938H362.803V134.849C362.786 134.544 362.722 134.248 362.612 133.96C362.507 133.672 362.337 133.435 362.104 133.249C361.872 133.063 361.554 132.97 361.152 132.97C360.886 132.97 360.64 133.027 360.416 133.141C360.192 133.251 359.999 133.416 359.838 133.636C359.678 133.856 359.553 134.125 359.464 134.442C359.375 134.76 359.331 135.126 359.331 135.541V135.807C359.331 136.133 359.375 136.44 359.464 136.728C359.557 137.011 359.69 137.261 359.864 137.477C360.042 137.692 360.255 137.862 360.505 137.984C360.759 138.107 361.047 138.168 361.368 138.168C361.783 138.168 362.134 138.084 362.422 137.915C362.71 137.745 362.961 137.519 363.177 137.235L363.888 137.8C363.74 138.025 363.552 138.238 363.323 138.441C363.095 138.645 362.813 138.81 362.479 138.937C362.149 139.063 361.757 139.127 361.305 139.127ZM369.398 137.826V134.29C369.398 134.019 369.343 133.784 369.233 133.585C369.127 133.382 368.966 133.226 368.75 133.116C368.535 133.006 368.268 132.951 367.951 132.951C367.654 132.951 367.394 133.001 367.17 133.103C366.95 133.205 366.776 133.338 366.649 133.503C366.527 133.668 366.465 133.846 366.465 134.036H365.291C365.291 133.791 365.354 133.547 365.481 133.306C365.608 133.065 365.79 132.847 366.027 132.652C366.269 132.453 366.556 132.297 366.891 132.183C367.229 132.064 367.606 132.005 368.021 132.005C368.52 132.005 368.96 132.09 369.341 132.259C369.726 132.428 370.026 132.684 370.242 133.027C370.462 133.365 370.572 133.791 370.572 134.303V137.502C370.572 137.73 370.591 137.974 370.629 138.232C370.672 138.49 370.733 138.712 370.813 138.898V139H369.588C369.529 138.865 369.483 138.685 369.449 138.46C369.415 138.232 369.398 138.02 369.398 137.826ZM369.601 134.836L369.614 135.661H368.427C368.092 135.661 367.794 135.689 367.532 135.744C367.269 135.794 367.049 135.873 366.872 135.979C366.694 136.084 366.558 136.218 366.465 136.378C366.372 136.535 366.326 136.719 366.326 136.931C366.326 137.146 366.374 137.343 366.472 137.521C366.569 137.699 366.715 137.84 366.91 137.946C367.109 138.048 367.352 138.099 367.64 138.099C367.999 138.099 368.317 138.022 368.592 137.87C368.867 137.718 369.085 137.532 369.246 137.312C369.411 137.091 369.5 136.878 369.512 136.67L370.014 137.235C369.984 137.413 369.904 137.61 369.772 137.826C369.641 138.042 369.466 138.249 369.246 138.448C369.03 138.642 368.772 138.805 368.471 138.937C368.175 139.063 367.841 139.127 367.468 139.127C367.003 139.127 366.594 139.036 366.243 138.854C365.896 138.672 365.625 138.429 365.431 138.124C365.24 137.815 365.145 137.47 365.145 137.089C365.145 136.721 365.217 136.397 365.361 136.118C365.505 135.835 365.712 135.6 365.983 135.414C366.254 135.223 366.58 135.079 366.96 134.982C367.341 134.885 367.767 134.836 368.236 134.836H369.601ZM373.594 133.598V139H372.419V132.132H373.53L373.594 133.598ZM373.314 135.306L372.826 135.287C372.83 134.817 372.9 134.383 373.035 133.985C373.171 133.583 373.361 133.234 373.606 132.938C373.852 132.642 374.144 132.413 374.482 132.252C374.825 132.087 375.204 132.005 375.619 132.005C375.957 132.005 376.262 132.051 376.533 132.145C376.804 132.233 377.034 132.377 377.225 132.576C377.419 132.775 377.567 133.033 377.669 133.351C377.771 133.664 377.821 134.047 377.821 134.5V139H376.641V134.487C376.641 134.127 376.588 133.839 376.482 133.624C376.376 133.403 376.222 133.245 376.019 133.147C375.815 133.046 375.566 132.995 375.27 132.995C374.978 132.995 374.711 133.056 374.47 133.179C374.233 133.302 374.028 133.471 373.854 133.687C373.685 133.903 373.551 134.15 373.454 134.43C373.361 134.705 373.314 134.997 373.314 135.306ZM384.105 129.25V139H382.925V129.25H384.105ZM390.041 137.826V134.29C390.041 134.019 389.986 133.784 389.875 133.585C389.77 133.382 389.609 133.226 389.393 133.116C389.177 133.006 388.911 132.951 388.593 132.951C388.297 132.951 388.037 133.001 387.812 133.103C387.592 133.205 387.419 133.338 387.292 133.503C387.169 133.668 387.108 133.846 387.108 134.036H385.934C385.934 133.791 385.997 133.547 386.124 133.306C386.251 133.065 386.433 132.847 386.67 132.652C386.911 132.453 387.199 132.297 387.533 132.183C387.872 132.064 388.248 132.005 388.663 132.005C389.162 132.005 389.603 132.09 389.983 132.259C390.368 132.428 390.669 132.684 390.885 133.027C391.105 133.365 391.215 133.791 391.215 134.303V137.502C391.215 137.73 391.234 137.974 391.272 138.232C391.314 138.49 391.376 138.712 391.456 138.898V139H390.231C390.172 138.865 390.125 138.685 390.091 138.46C390.057 138.232 390.041 138.02 390.041 137.826ZM390.244 134.836L390.256 135.661H389.069C388.735 135.661 388.437 135.689 388.174 135.744C387.912 135.794 387.692 135.873 387.514 135.979C387.336 136.084 387.201 136.218 387.108 136.378C387.015 136.535 386.968 136.719 386.968 136.931C386.968 137.146 387.017 137.343 387.114 137.521C387.212 137.699 387.358 137.84 387.552 137.946C387.751 138.048 387.994 138.099 388.282 138.099C388.642 138.099 388.959 138.022 389.234 137.87C389.509 137.718 389.727 137.532 389.888 137.312C390.053 137.091 390.142 136.878 390.155 136.67L390.656 137.235C390.627 137.413 390.546 137.61 390.415 137.826C390.284 138.042 390.108 138.249 389.888 138.448C389.672 138.642 389.414 138.805 389.114 138.937C388.818 139.063 388.483 139.127 388.111 139.127C387.645 139.127 387.237 139.036 386.886 138.854C386.539 138.672 386.268 138.429 386.073 138.124C385.883 137.815 385.788 137.47 385.788 137.089C385.788 136.721 385.86 136.397 386.003 136.118C386.147 135.835 386.355 135.6 386.625 135.414C386.896 135.223 387.222 135.079 387.603 134.982C387.984 134.885 388.409 134.836 388.879 134.836H390.244ZM395.811 138.162C396.09 138.162 396.348 138.105 396.585 137.991C396.822 137.876 397.017 137.72 397.169 137.521C397.321 137.318 397.408 137.087 397.429 136.829H398.546C398.525 137.235 398.388 137.614 398.134 137.965C397.884 138.312 397.556 138.594 397.15 138.81C396.744 139.021 396.297 139.127 395.811 139.127C395.294 139.127 394.844 139.036 394.458 138.854C394.078 138.672 393.76 138.422 393.506 138.105C393.257 137.788 393.068 137.424 392.941 137.013C392.819 136.598 392.757 136.16 392.757 135.699V135.433C392.757 134.971 392.819 134.535 392.941 134.125C393.068 133.71 393.257 133.344 393.506 133.027C393.76 132.709 394.078 132.46 394.458 132.278C394.844 132.096 395.294 132.005 395.811 132.005C396.348 132.005 396.818 132.115 397.22 132.335C397.622 132.551 397.937 132.847 398.166 133.224C398.398 133.596 398.525 134.019 398.546 134.493H397.429C397.408 134.21 397.328 133.954 397.188 133.725C397.053 133.497 396.866 133.315 396.629 133.179C396.397 133.04 396.124 132.97 395.811 132.97C395.451 132.97 395.148 133.042 394.903 133.186C394.662 133.325 394.469 133.516 394.325 133.757C394.186 133.994 394.084 134.258 394.021 134.55C393.961 134.838 393.932 135.132 393.932 135.433V135.699C393.932 136 393.961 136.296 394.021 136.588C394.08 136.88 394.179 137.144 394.319 137.381C394.463 137.618 394.655 137.809 394.896 137.953C395.142 138.092 395.447 138.162 395.811 138.162ZM401.143 132.132V139H399.962V132.132H401.143ZM399.873 130.31C399.873 130.12 399.93 129.959 400.044 129.828C400.163 129.696 400.336 129.631 400.565 129.631C400.789 129.631 400.961 129.696 401.079 129.828C401.202 129.959 401.263 130.12 401.263 130.31C401.263 130.492 401.202 130.649 401.079 130.78C400.961 130.907 400.789 130.97 400.565 130.97C400.336 130.97 400.163 130.907 400.044 130.78C399.93 130.649 399.873 130.492 399.873 130.31ZM404.202 133.598V139H403.028V132.132H404.139L404.202 133.598ZM403.923 135.306L403.434 135.287C403.438 134.817 403.508 134.383 403.644 133.985C403.779 133.583 403.969 133.234 404.215 132.938C404.46 132.642 404.752 132.413 405.091 132.252C405.434 132.087 405.812 132.005 406.227 132.005C406.566 132.005 406.87 132.051 407.141 132.145C407.412 132.233 407.643 132.377 407.833 132.576C408.028 132.775 408.176 133.033 408.277 133.351C408.379 133.664 408.43 134.047 408.43 134.5V139H407.249V134.487C407.249 134.127 407.196 133.839 407.09 133.624C406.985 133.403 406.83 133.245 406.627 133.147C406.424 133.046 406.174 132.995 405.878 132.995C405.586 132.995 405.319 133.056 405.078 133.179C404.841 133.302 404.636 133.471 404.462 133.687C404.293 133.903 404.16 134.15 404.062 134.43C403.969 134.705 403.923 134.997 403.923 135.306ZM411.489 132.132V139H410.309V132.132H411.489ZM410.22 130.31C410.22 130.12 410.277 129.959 410.391 129.828C410.51 129.696 410.683 129.631 410.912 129.631C411.136 129.631 411.307 129.696 411.426 129.828C411.549 129.959 411.61 130.12 411.61 130.31C411.61 130.492 411.549 130.649 411.426 130.78C411.307 130.907 411.136 130.97 410.912 130.97C410.683 130.97 410.51 130.907 410.391 130.78C410.277 130.649 410.22 130.492 410.22 130.31ZM417.424 137.826V134.29C417.424 134.019 417.369 133.784 417.259 133.585C417.153 133.382 416.993 133.226 416.777 133.116C416.561 133.006 416.294 132.951 415.977 132.951C415.681 132.951 415.421 133.001 415.196 133.103C414.976 133.205 414.803 133.338 414.676 133.503C414.553 133.668 414.492 133.846 414.492 134.036H413.317C413.317 133.791 413.381 133.547 413.508 133.306C413.635 133.065 413.817 132.847 414.054 132.652C414.295 132.453 414.583 132.297 414.917 132.183C415.256 132.064 415.632 132.005 416.047 132.005C416.546 132.005 416.986 132.09 417.367 132.259C417.752 132.428 418.053 132.684 418.269 133.027C418.489 133.365 418.599 133.791 418.599 134.303V137.502C418.599 137.73 418.618 137.974 418.656 138.232C418.698 138.49 418.759 138.712 418.84 138.898V139H417.615C417.556 138.865 417.509 138.685 417.475 138.46C417.441 138.232 417.424 138.02 417.424 137.826ZM417.627 134.836L417.64 135.661H416.453C416.119 135.661 415.82 135.689 415.558 135.744C415.296 135.794 415.076 135.873 414.898 135.979C414.72 136.084 414.585 136.218 414.492 136.378C414.399 136.535 414.352 136.719 414.352 136.931C414.352 137.146 414.401 137.343 414.498 137.521C414.595 137.699 414.741 137.84 414.936 137.946C415.135 138.048 415.378 138.099 415.666 138.099C416.026 138.099 416.343 138.022 416.618 137.87C416.893 137.718 417.111 137.532 417.272 137.312C417.437 137.091 417.526 136.878 417.539 136.67L418.04 137.235C418.01 137.413 417.93 137.61 417.799 137.826C417.668 138.042 417.492 138.249 417.272 138.448C417.056 138.642 416.798 138.805 416.498 138.937C416.201 139.063 415.867 139.127 415.495 139.127C415.029 139.127 414.621 139.036 414.27 138.854C413.923 138.672 413.652 138.429 413.457 138.124C413.267 137.815 413.171 137.47 413.171 137.089C413.171 136.721 413.243 136.397 413.387 136.118C413.531 135.835 413.738 135.6 414.009 135.414C414.28 135.223 414.606 135.079 414.987 134.982C415.368 134.885 415.793 134.836 416.263 134.836H417.627ZM423.664 129.25H424.845V137.667L424.743 139H423.664V129.25ZM429.485 135.509V135.642C429.485 136.141 429.426 136.605 429.307 137.032C429.189 137.455 429.015 137.824 428.787 138.137C428.558 138.45 428.279 138.693 427.949 138.867C427.619 139.04 427.24 139.127 426.812 139.127C426.377 139.127 425.994 139.053 425.664 138.905C425.338 138.752 425.063 138.535 424.838 138.251C424.614 137.967 424.434 137.625 424.299 137.223C424.168 136.821 424.077 136.368 424.026 135.864V135.28C424.077 134.772 424.168 134.318 424.299 133.916C424.434 133.514 424.614 133.171 424.838 132.887C425.063 132.599 425.338 132.382 425.664 132.233C425.989 132.081 426.368 132.005 426.8 132.005C427.231 132.005 427.614 132.09 427.949 132.259C428.283 132.424 428.562 132.661 428.787 132.97C429.015 133.279 429.189 133.649 429.307 134.081C429.426 134.508 429.485 134.984 429.485 135.509ZM428.304 135.642V135.509C428.304 135.166 428.272 134.844 428.209 134.544C428.146 134.239 428.044 133.973 427.904 133.744C427.765 133.511 427.581 133.329 427.352 133.198C427.124 133.063 426.842 132.995 426.508 132.995C426.212 132.995 425.953 133.046 425.733 133.147C425.518 133.249 425.333 133.387 425.181 133.56C425.029 133.729 424.904 133.924 424.807 134.144C424.714 134.36 424.644 134.584 424.597 134.817V136.347C424.665 136.643 424.775 136.929 424.927 137.204C425.084 137.474 425.291 137.697 425.549 137.87C425.812 138.044 426.135 138.13 426.521 138.13C426.838 138.13 427.109 138.067 427.333 137.94C427.562 137.809 427.746 137.629 427.885 137.4C428.029 137.172 428.135 136.907 428.203 136.607C428.27 136.306 428.304 135.985 428.304 135.642ZM432.246 132.132V139H431.065V132.132H432.246ZM430.977 130.31C430.977 130.12 431.034 129.959 431.148 129.828C431.266 129.696 431.44 129.631 431.668 129.631C431.893 129.631 432.064 129.696 432.183 129.828C432.305 129.959 432.367 130.12 432.367 130.31C432.367 130.492 432.305 130.649 432.183 130.78C432.064 130.907 431.893 130.97 431.668 130.97C431.44 130.97 431.266 130.907 431.148 130.78C431.034 130.649 430.977 130.492 430.977 130.31ZM434.125 129.25H435.306V137.667L435.204 139H434.125V129.25ZM439.946 135.509V135.642C439.946 136.141 439.887 136.605 439.768 137.032C439.65 137.455 439.476 137.824 439.248 138.137C439.019 138.45 438.74 138.693 438.41 138.867C438.08 139.04 437.701 139.127 437.273 139.127C436.838 139.127 436.455 139.053 436.125 138.905C435.799 138.752 435.524 138.535 435.299 138.251C435.075 137.967 434.895 137.625 434.76 137.223C434.629 136.821 434.538 136.368 434.487 135.864V135.28C434.538 134.772 434.629 134.318 434.76 133.916C434.895 133.514 435.075 133.171 435.299 132.887C435.524 132.599 435.799 132.382 436.125 132.233C436.45 132.081 436.829 132.005 437.261 132.005C437.692 132.005 438.075 132.09 438.41 132.259C438.744 132.424 439.023 132.661 439.248 132.97C439.476 133.279 439.65 133.649 439.768 134.081C439.887 134.508 439.946 134.984 439.946 135.509ZM438.765 135.642V135.509C438.765 135.166 438.733 134.844 438.67 134.544C438.606 134.239 438.505 133.973 438.365 133.744C438.226 133.511 438.042 133.329 437.813 133.198C437.584 133.063 437.303 132.995 436.969 132.995C436.673 132.995 436.414 133.046 436.194 133.147C435.979 133.249 435.794 133.387 435.642 133.56C435.49 133.729 435.365 133.924 435.268 134.144C435.174 134.36 435.105 134.584 435.058 134.817V136.347C435.126 136.643 435.236 136.929 435.388 137.204C435.545 137.474 435.752 137.697 436.01 137.87C436.273 138.044 436.596 138.13 436.981 138.13C437.299 138.13 437.57 138.067 437.794 137.94C438.022 137.809 438.207 137.629 438.346 137.4C438.49 137.172 438.596 136.907 438.664 136.607C438.731 136.306 438.765 135.985 438.765 135.642ZM444.281 139.127C443.803 139.127 443.369 139.047 442.98 138.886C442.595 138.721 442.263 138.49 441.983 138.194C441.708 137.898 441.497 137.546 441.349 137.14C441.201 136.734 441.126 136.29 441.126 135.807V135.541C441.126 134.982 441.209 134.485 441.374 134.049C441.539 133.609 441.763 133.236 442.047 132.932C442.33 132.627 442.652 132.396 443.012 132.24C443.371 132.083 443.744 132.005 444.129 132.005C444.62 132.005 445.043 132.09 445.398 132.259C445.758 132.428 446.052 132.665 446.281 132.97C446.509 133.27 446.679 133.626 446.789 134.036C446.899 134.442 446.954 134.887 446.954 135.369V135.896H441.825V134.938H445.779V134.849C445.762 134.544 445.699 134.248 445.589 133.96C445.483 133.672 445.314 133.435 445.081 133.249C444.848 133.063 444.531 132.97 444.129 132.97C443.862 132.97 443.617 133.027 443.393 133.141C443.168 133.251 442.976 133.416 442.815 133.636C442.654 133.856 442.529 134.125 442.44 134.442C442.352 134.76 442.307 135.126 442.307 135.541V135.807C442.307 136.133 442.352 136.44 442.44 136.728C442.534 137.011 442.667 137.261 442.84 137.477C443.018 137.692 443.232 137.862 443.481 137.984C443.735 138.107 444.023 138.168 444.345 138.168C444.759 138.168 445.111 138.084 445.398 137.915C445.686 137.745 445.938 137.519 446.154 137.235L446.865 137.8C446.717 138.025 446.528 138.238 446.3 138.441C446.071 138.645 445.79 138.81 445.456 138.937C445.125 139.063 444.734 139.127 444.281 139.127ZM449.499 133.598V139H448.325V132.132H449.436L449.499 133.598ZM449.22 135.306L448.731 135.287C448.735 134.817 448.805 134.383 448.94 133.985C449.076 133.583 449.266 133.234 449.512 132.938C449.757 132.642 450.049 132.413 450.388 132.252C450.73 132.087 451.109 132.005 451.524 132.005C451.862 132.005 452.167 132.051 452.438 132.145C452.709 132.233 452.939 132.377 453.13 132.576C453.325 132.775 453.473 133.033 453.574 133.351C453.676 133.664 453.727 134.047 453.727 134.5V139H452.546V134.487C452.546 134.127 452.493 133.839 452.387 133.624C452.281 133.403 452.127 133.245 451.924 133.147C451.721 133.046 451.471 132.995 451.175 132.995C450.883 132.995 450.616 133.056 450.375 133.179C450.138 133.302 449.933 133.471 449.759 133.687C449.59 133.903 449.457 134.15 449.359 134.43C449.266 134.705 449.22 134.997 449.22 135.306ZM459.839 137.667V129.25H461.02V139H459.941L459.839 137.667ZM455.218 135.642V135.509C455.218 134.984 455.282 134.508 455.409 134.081C455.54 133.649 455.724 133.279 455.961 132.97C456.202 132.661 456.488 132.424 456.818 132.259C457.152 132.09 457.525 132.005 457.935 132.005C458.367 132.005 458.743 132.081 459.065 132.233C459.391 132.382 459.666 132.599 459.89 132.887C460.119 133.171 460.299 133.514 460.43 133.916C460.561 134.318 460.652 134.772 460.703 135.28V135.864C460.656 136.368 460.565 136.821 460.43 137.223C460.299 137.625 460.119 137.967 459.89 138.251C459.666 138.535 459.391 138.752 459.065 138.905C458.739 139.053 458.358 139.127 457.922 139.127C457.52 139.127 457.152 139.04 456.818 138.867C456.488 138.693 456.202 138.45 455.961 138.137C455.724 137.824 455.54 137.455 455.409 137.032C455.282 136.605 455.218 136.141 455.218 135.642ZM456.399 135.509V135.642C456.399 135.985 456.433 136.306 456.5 136.607C456.572 136.907 456.682 137.172 456.831 137.4C456.979 137.629 457.167 137.809 457.396 137.94C457.624 138.067 457.897 138.13 458.214 138.13C458.604 138.13 458.923 138.048 459.173 137.883C459.427 137.718 459.63 137.5 459.782 137.229C459.935 136.958 460.053 136.664 460.138 136.347V134.817C460.087 134.584 460.013 134.36 459.916 134.144C459.822 133.924 459.7 133.729 459.547 133.56C459.399 133.387 459.215 133.249 458.995 133.147C458.779 133.046 458.523 132.995 458.227 132.995C457.905 132.995 457.628 133.063 457.396 133.198C457.167 133.329 456.979 133.511 456.831 133.744C456.682 133.973 456.572 134.239 456.5 134.544C456.433 134.844 456.399 135.166 456.399 135.509ZM467.05 137.413V132.132H468.231V139H467.107L467.05 137.413ZM467.272 135.966L467.761 135.953C467.761 136.41 467.713 136.833 467.615 137.223C467.522 137.608 467.37 137.942 467.158 138.226C466.947 138.509 466.669 138.731 466.327 138.892C465.984 139.049 465.567 139.127 465.076 139.127C464.742 139.127 464.435 139.078 464.156 138.981C463.881 138.884 463.644 138.733 463.445 138.53C463.246 138.327 463.091 138.063 462.981 137.737C462.876 137.411 462.823 137.02 462.823 136.562V132.132H463.997V136.575C463.997 136.884 464.031 137.14 464.099 137.343C464.171 137.542 464.266 137.701 464.384 137.819C464.507 137.934 464.642 138.014 464.791 138.061C464.943 138.107 465.099 138.13 465.26 138.13C465.76 138.13 466.155 138.035 466.447 137.845C466.739 137.65 466.949 137.39 467.076 137.064C467.207 136.734 467.272 136.368 467.272 135.966ZM471.189 133.497V139H470.008V132.132H471.125L471.189 133.497ZM470.948 135.306L470.402 135.287C470.406 134.817 470.467 134.383 470.586 133.985C470.704 133.583 470.88 133.234 471.113 132.938C471.346 132.642 471.635 132.413 471.982 132.252C472.329 132.087 472.731 132.005 473.188 132.005C473.51 132.005 473.806 132.051 474.077 132.145C474.348 132.233 474.583 132.375 474.782 132.57C474.981 132.764 475.135 133.014 475.245 133.319C475.355 133.624 475.41 133.992 475.41 134.423V139H474.236V134.48C474.236 134.121 474.174 133.833 474.052 133.617C473.933 133.401 473.764 133.245 473.544 133.147C473.324 133.046 473.066 132.995 472.77 132.995C472.423 132.995 472.133 133.056 471.9 133.179C471.667 133.302 471.481 133.471 471.341 133.687C471.202 133.903 471.1 134.15 471.037 134.43C470.977 134.705 470.948 134.997 470.948 135.306ZM475.397 134.658L474.61 134.899C474.615 134.523 474.676 134.161 474.794 133.814C474.917 133.467 475.093 133.158 475.321 132.887C475.554 132.616 475.84 132.403 476.178 132.246C476.517 132.085 476.904 132.005 477.34 132.005C477.708 132.005 478.034 132.054 478.317 132.151C478.605 132.248 478.846 132.398 479.041 132.602C479.24 132.8 479.39 133.056 479.492 133.37C479.593 133.683 479.644 134.055 479.644 134.487V139H478.463V134.474C478.463 134.089 478.402 133.791 478.279 133.579C478.161 133.363 477.992 133.213 477.771 133.128C477.556 133.04 477.298 132.995 476.997 132.995C476.739 132.995 476.51 133.04 476.312 133.128C476.113 133.217 475.945 133.34 475.81 133.497C475.675 133.649 475.571 133.825 475.499 134.023C475.431 134.222 475.397 134.434 475.397 134.658ZM337.069 153.598V159H335.895V152.132H337.006L337.069 153.598ZM336.79 155.306L336.301 155.287C336.306 154.817 336.375 154.383 336.511 153.985C336.646 153.583 336.837 153.234 337.082 152.938C337.327 152.642 337.619 152.413 337.958 152.252C338.301 152.087 338.68 152.005 339.094 152.005C339.433 152.005 339.737 152.051 340.008 152.145C340.279 152.233 340.51 152.377 340.7 152.576C340.895 152.775 341.043 153.033 341.145 153.351C341.246 153.664 341.297 154.047 341.297 154.5V159H340.116V154.487C340.116 154.127 340.063 153.839 339.958 153.624C339.852 153.403 339.697 153.245 339.494 153.147C339.291 153.046 339.041 152.995 338.745 152.995C338.453 152.995 338.187 153.056 337.945 153.179C337.708 153.302 337.503 153.471 337.33 153.687C337.16 153.903 337.027 154.15 336.93 154.43C336.837 154.705 336.79 154.997 336.79 155.306ZM347.283 157.413V152.132H348.463V159H347.34L347.283 157.413ZM347.505 155.966L347.994 155.953C347.994 156.41 347.945 156.833 347.848 157.223C347.755 157.608 347.602 157.942 347.391 158.226C347.179 158.509 346.902 158.731 346.559 158.892C346.216 159.049 345.799 159.127 345.309 159.127C344.974 159.127 344.667 159.078 344.388 158.981C344.113 158.884 343.876 158.733 343.677 158.53C343.478 158.327 343.324 158.063 343.214 157.737C343.108 157.411 343.055 157.02 343.055 156.562V152.132H344.229V156.575C344.229 156.884 344.263 157.14 344.331 157.343C344.403 157.542 344.498 157.701 344.617 157.819C344.739 157.934 344.875 158.014 345.023 158.061C345.175 158.107 345.332 158.13 345.493 158.13C345.992 158.13 346.388 158.035 346.68 157.845C346.972 157.65 347.181 157.39 347.308 157.064C347.439 156.734 347.505 156.368 347.505 155.966ZM351.529 149.25V159H350.349V149.25H351.529ZM354.69 149.25V159H353.51V149.25H354.69ZM360.625 157.826V154.29C360.625 154.019 360.57 153.784 360.46 153.585C360.355 153.382 360.194 153.226 359.978 153.116C359.762 153.006 359.496 152.951 359.178 152.951C358.882 152.951 358.622 153.001 358.397 153.103C358.177 153.205 358.004 153.338 357.877 153.503C357.754 153.668 357.693 153.846 357.693 154.036H356.519C356.519 153.791 356.582 153.547 356.709 153.306C356.836 153.065 357.018 152.847 357.255 152.652C357.496 152.453 357.784 152.297 358.118 152.183C358.457 152.064 358.833 152.005 359.248 152.005C359.747 152.005 360.188 152.09 360.568 152.259C360.953 152.428 361.254 152.684 361.47 153.027C361.69 153.365 361.8 153.791 361.8 154.303V157.502C361.8 157.73 361.819 157.974 361.857 158.232C361.899 158.49 361.961 158.712 362.041 158.898V159H360.816C360.757 158.865 360.71 158.685 360.676 158.46C360.642 158.232 360.625 158.02 360.625 157.826ZM360.829 154.836L360.841 155.661H359.654C359.32 155.661 359.022 155.689 358.759 155.744C358.497 155.794 358.277 155.873 358.099 155.979C357.921 156.084 357.786 156.218 357.693 156.378C357.6 156.535 357.553 156.719 357.553 156.931C357.553 157.146 357.602 157.343 357.699 157.521C357.797 157.699 357.943 157.84 358.137 157.946C358.336 158.048 358.579 158.099 358.867 158.099C359.227 158.099 359.544 158.022 359.819 157.87C360.094 157.718 360.312 157.532 360.473 157.312C360.638 157.091 360.727 156.878 360.74 156.67L361.241 157.235C361.212 157.413 361.131 157.61 361 157.826C360.869 158.042 360.693 158.249 360.473 158.448C360.257 158.642 359.999 158.805 359.699 158.937C359.403 159.063 359.068 159.127 358.696 159.127C358.23 159.127 357.822 159.036 357.471 158.854C357.124 158.672 356.853 158.429 356.658 158.124C356.468 157.815 356.373 157.47 356.373 157.089C356.373 156.721 356.444 156.397 356.588 156.118C356.732 155.835 356.94 155.6 357.21 155.414C357.481 155.223 357.807 155.079 358.188 154.982C358.569 154.885 358.994 154.836 359.464 154.836H360.829ZM370.871 157.178C370.871 157.009 370.833 156.852 370.756 156.708C370.684 156.56 370.534 156.427 370.306 156.309C370.081 156.186 369.743 156.08 369.29 155.991C368.909 155.911 368.564 155.816 368.255 155.706C367.951 155.596 367.69 155.462 367.475 155.306C367.263 155.149 367.1 154.965 366.986 154.753C366.872 154.542 366.814 154.294 366.814 154.011C366.814 153.74 366.874 153.484 366.992 153.243C367.115 153.001 367.286 152.788 367.506 152.602C367.731 152.415 367.999 152.269 368.312 152.164C368.626 152.058 368.975 152.005 369.36 152.005C369.91 152.005 370.38 152.102 370.769 152.297C371.158 152.492 371.457 152.752 371.664 153.078C371.871 153.399 371.975 153.757 371.975 154.15H370.801C370.801 153.96 370.744 153.776 370.629 153.598C370.519 153.416 370.356 153.266 370.141 153.147C369.929 153.029 369.669 152.97 369.36 152.97C369.034 152.97 368.77 153.021 368.566 153.122C368.368 153.219 368.222 153.344 368.128 153.497C368.04 153.649 367.995 153.81 367.995 153.979C367.995 154.106 368.016 154.22 368.059 154.322C368.105 154.419 368.186 154.51 368.3 154.595C368.414 154.675 368.575 154.751 368.782 154.823C368.99 154.895 369.254 154.967 369.576 155.039C370.139 155.166 370.602 155.318 370.966 155.496C371.33 155.674 371.601 155.892 371.778 156.15C371.956 156.408 372.045 156.721 372.045 157.089C372.045 157.39 371.981 157.665 371.854 157.915C371.732 158.164 371.552 158.38 371.315 158.562C371.082 158.74 370.803 158.879 370.477 158.981C370.155 159.078 369.794 159.127 369.392 159.127C368.786 159.127 368.274 159.019 367.855 158.803C367.437 158.587 367.119 158.308 366.903 157.965C366.688 157.623 366.58 157.261 366.58 156.88H367.76C367.777 157.201 367.87 157.458 368.04 157.648C368.209 157.834 368.416 157.967 368.662 158.048C368.907 158.124 369.15 158.162 369.392 158.162C369.713 158.162 369.982 158.12 370.198 158.035C370.418 157.951 370.585 157.834 370.699 157.686C370.813 157.538 370.871 157.369 370.871 157.178ZM376.438 159.127C375.959 159.127 375.526 159.047 375.136 158.886C374.751 158.721 374.419 158.49 374.14 158.194C373.865 157.898 373.653 157.546 373.505 157.14C373.357 156.734 373.283 156.29 373.283 155.807V155.541C373.283 154.982 373.365 154.485 373.53 154.049C373.695 153.609 373.92 153.236 374.203 152.932C374.487 152.627 374.808 152.396 375.168 152.24C375.528 152.083 375.9 152.005 376.285 152.005C376.776 152.005 377.199 152.09 377.555 152.259C377.914 152.428 378.208 152.665 378.437 152.97C378.666 153.27 378.835 153.626 378.945 154.036C379.055 154.442 379.11 154.887 379.11 155.369V155.896H373.981V154.938H377.936V154.849C377.919 154.544 377.855 154.248 377.745 153.96C377.639 153.672 377.47 153.435 377.237 153.249C377.005 153.063 376.687 152.97 376.285 152.97C376.019 152.97 375.773 153.027 375.549 153.141C375.325 153.251 375.132 153.416 374.971 153.636C374.81 153.856 374.686 154.125 374.597 154.442C374.508 154.76 374.463 155.126 374.463 155.541V155.807C374.463 156.133 374.508 156.44 374.597 156.728C374.69 157.011 374.823 157.261 374.997 157.477C375.174 157.692 375.388 157.862 375.638 157.984C375.892 158.107 376.179 158.168 376.501 158.168C376.916 158.168 377.267 158.084 377.555 157.915C377.842 157.745 378.094 157.519 378.31 157.235L379.021 157.8C378.873 158.025 378.685 158.238 378.456 158.441C378.228 158.645 377.946 158.81 377.612 158.937C377.282 159.063 376.89 159.127 376.438 159.127ZM384.81 157.667V149.25H385.991V159H384.912L384.81 157.667ZM380.189 155.642V155.509C380.189 154.984 380.252 154.508 380.379 154.081C380.511 153.649 380.695 153.279 380.932 152.97C381.173 152.661 381.458 152.424 381.789 152.259C382.123 152.09 382.495 152.005 382.906 152.005C383.337 152.005 383.714 152.081 384.036 152.233C384.361 152.382 384.637 152.599 384.861 152.887C385.089 153.171 385.269 153.514 385.4 153.916C385.532 154.318 385.623 154.772 385.673 155.28V155.864C385.627 156.368 385.536 156.821 385.4 157.223C385.269 157.625 385.089 157.967 384.861 158.251C384.637 158.535 384.361 158.752 384.036 158.905C383.71 159.053 383.329 159.127 382.893 159.127C382.491 159.127 382.123 159.04 381.789 158.867C381.458 158.693 381.173 158.45 380.932 158.137C380.695 157.824 380.511 157.455 380.379 157.032C380.252 156.605 380.189 156.141 380.189 155.642ZM381.37 155.509V155.642C381.37 155.985 381.403 156.306 381.471 156.607C381.543 156.907 381.653 157.172 381.801 157.4C381.949 157.629 382.138 157.809 382.366 157.94C382.595 158.067 382.868 158.13 383.185 158.13C383.574 158.13 383.894 158.048 384.144 157.883C384.397 157.718 384.601 157.5 384.753 157.229C384.905 156.958 385.024 156.664 385.108 156.347V154.817C385.058 154.584 384.984 154.36 384.886 154.144C384.793 153.924 384.67 153.729 384.518 153.56C384.37 153.387 384.186 153.249 383.966 153.147C383.75 153.046 383.494 152.995 383.198 152.995C382.876 152.995 382.599 153.063 382.366 153.198C382.138 153.329 381.949 153.511 381.801 153.744C381.653 153.973 381.543 154.239 381.471 154.544C381.403 154.844 381.37 155.166 381.37 155.509ZM393.792 158.162C394.071 158.162 394.329 158.105 394.566 157.991C394.803 157.876 394.998 157.72 395.15 157.521C395.303 157.318 395.389 157.087 395.411 156.829H396.528C396.507 157.235 396.369 157.614 396.115 157.965C395.866 158.312 395.538 158.594 395.131 158.81C394.725 159.021 394.279 159.127 393.792 159.127C393.276 159.127 392.825 159.036 392.44 158.854C392.059 158.672 391.742 158.422 391.488 158.105C391.238 157.788 391.05 157.424 390.923 157.013C390.8 156.598 390.739 156.16 390.739 155.699V155.433C390.739 154.971 390.8 154.535 390.923 154.125C391.05 153.71 391.238 153.344 391.488 153.027C391.742 152.709 392.059 152.46 392.44 152.278C392.825 152.096 393.276 152.005 393.792 152.005C394.329 152.005 394.799 152.115 395.201 152.335C395.603 152.551 395.918 152.847 396.147 153.224C396.38 153.596 396.507 154.019 396.528 154.493H395.411C395.389 154.21 395.309 153.954 395.169 153.725C395.034 153.497 394.848 153.315 394.611 153.179C394.378 153.04 394.105 152.97 393.792 152.97C393.432 152.97 393.13 153.042 392.884 153.186C392.643 153.325 392.451 153.516 392.307 153.757C392.167 153.994 392.065 154.258 392.002 154.55C391.943 154.838 391.913 155.132 391.913 155.433V155.699C391.913 156 391.943 156.296 392.002 156.588C392.061 156.88 392.161 157.144 392.3 157.381C392.444 157.618 392.637 157.809 392.878 157.953C393.123 158.092 393.428 158.162 393.792 158.162ZM397.537 155.642V155.496C397.537 155.001 397.609 154.542 397.753 154.119C397.897 153.691 398.104 153.321 398.375 153.008C398.646 152.69 398.974 152.445 399.359 152.271C399.744 152.094 400.176 152.005 400.654 152.005C401.136 152.005 401.57 152.094 401.955 152.271C402.344 152.445 402.674 152.69 402.945 153.008C403.22 153.321 403.43 153.691 403.574 154.119C403.718 154.542 403.79 155.001 403.79 155.496V155.642C403.79 156.137 403.718 156.596 403.574 157.02C403.43 157.443 403.22 157.813 402.945 158.13C402.674 158.444 402.347 158.689 401.961 158.867C401.581 159.04 401.149 159.127 400.667 159.127C400.184 159.127 399.75 159.04 399.365 158.867C398.98 158.689 398.65 158.444 398.375 158.13C398.104 157.813 397.897 157.443 397.753 157.02C397.609 156.596 397.537 156.137 397.537 155.642ZM398.711 155.496V155.642C398.711 155.985 398.752 156.309 398.832 156.613C398.912 156.914 399.033 157.18 399.194 157.413C399.359 157.646 399.564 157.83 399.81 157.965C400.055 158.097 400.341 158.162 400.667 158.162C400.988 158.162 401.27 158.097 401.511 157.965C401.756 157.83 401.959 157.646 402.12 157.413C402.281 157.18 402.402 156.914 402.482 156.613C402.567 156.309 402.609 155.985 402.609 155.642V155.496C402.609 155.158 402.567 154.838 402.482 154.538C402.402 154.233 402.279 153.964 402.114 153.731C401.953 153.494 401.75 153.308 401.504 153.173C401.263 153.037 400.98 152.97 400.654 152.97C400.332 152.97 400.049 153.037 399.803 153.173C399.562 153.308 399.359 153.494 399.194 153.731C399.033 153.964 398.912 154.233 398.832 154.538C398.752 154.838 398.711 155.158 398.711 155.496ZM406.437 153.598V159H405.262V152.132H406.373L406.437 153.598ZM406.157 155.306L405.668 155.287C405.673 154.817 405.743 154.383 405.878 153.985C406.013 153.583 406.204 153.234 406.449 152.938C406.695 152.642 406.987 152.413 407.325 152.252C407.668 152.087 408.047 152.005 408.461 152.005C408.8 152.005 409.105 152.051 409.375 152.145C409.646 152.233 409.877 152.377 410.067 152.576C410.262 152.775 410.41 153.033 410.512 153.351C410.613 153.664 410.664 154.047 410.664 154.5V159H409.483V154.487C409.483 154.127 409.431 153.839 409.325 153.624C409.219 153.403 409.064 153.245 408.861 153.147C408.658 153.046 408.409 152.995 408.112 152.995C407.82 152.995 407.554 153.056 407.312 153.179C407.076 153.302 406.87 153.471 406.697 153.687C406.528 153.903 406.394 154.15 406.297 154.43C406.204 154.705 406.157 154.997 406.157 155.306ZM416.447 157.178C416.447 157.009 416.409 156.852 416.333 156.708C416.261 156.56 416.11 156.427 415.882 156.309C415.658 156.186 415.319 156.08 414.866 155.991C414.485 155.911 414.14 155.816 413.832 155.706C413.527 155.596 413.267 155.462 413.051 155.306C412.839 155.149 412.676 154.965 412.562 154.753C412.448 154.542 412.391 154.294 412.391 154.011C412.391 153.74 412.45 153.484 412.568 153.243C412.691 153.001 412.862 152.788 413.083 152.602C413.307 152.415 413.576 152.269 413.889 152.164C414.202 152.058 414.551 152.005 414.936 152.005C415.486 152.005 415.956 152.102 416.345 152.297C416.735 152.492 417.033 152.752 417.24 153.078C417.448 153.399 417.551 153.757 417.551 154.15H416.377C416.377 153.96 416.32 153.776 416.206 153.598C416.096 153.416 415.933 153.266 415.717 153.147C415.505 153.029 415.245 152.97 414.936 152.97C414.61 152.97 414.346 153.021 414.143 153.122C413.944 153.219 413.798 153.344 413.705 153.497C413.616 153.649 413.571 153.81 413.571 153.979C413.571 154.106 413.592 154.22 413.635 154.322C413.681 154.419 413.762 154.51 413.876 154.595C413.99 154.675 414.151 154.751 414.358 154.823C414.566 154.895 414.83 154.967 415.152 155.039C415.715 155.166 416.178 155.318 416.542 155.496C416.906 155.674 417.177 155.892 417.354 156.15C417.532 156.408 417.621 156.721 417.621 157.089C417.621 157.39 417.558 157.665 417.431 157.915C417.308 158.164 417.128 158.38 416.891 158.562C416.658 158.74 416.379 158.879 416.053 158.981C415.732 159.078 415.37 159.127 414.968 159.127C414.363 159.127 413.851 159.019 413.432 158.803C413.013 158.587 412.695 158.308 412.479 157.965C412.264 157.623 412.156 157.261 412.156 156.88H413.336C413.353 157.201 413.446 157.458 413.616 157.648C413.785 157.834 413.992 157.967 414.238 158.048C414.483 158.124 414.727 158.162 414.968 158.162C415.289 158.162 415.558 158.12 415.774 158.035C415.994 157.951 416.161 157.834 416.275 157.686C416.39 157.538 416.447 157.369 416.447 157.178ZM422.014 159.127C421.535 159.127 421.102 159.047 420.712 158.886C420.327 158.721 419.995 158.49 419.716 158.194C419.441 157.898 419.229 157.546 419.081 157.14C418.933 156.734 418.859 156.29 418.859 155.807V155.541C418.859 154.982 418.941 154.485 419.106 154.049C419.271 153.609 419.496 153.236 419.779 152.932C420.063 152.627 420.384 152.396 420.744 152.24C421.104 152.083 421.476 152.005 421.861 152.005C422.352 152.005 422.775 152.09 423.131 152.259C423.491 152.428 423.785 152.665 424.013 152.97C424.242 153.27 424.411 153.626 424.521 154.036C424.631 154.442 424.686 154.887 424.686 155.369V155.896H419.557V154.938H423.512V154.849C423.495 154.544 423.431 154.248 423.321 153.96C423.215 153.672 423.046 153.435 422.813 153.249C422.581 153.063 422.263 152.97 421.861 152.97C421.595 152.97 421.349 153.027 421.125 153.141C420.901 153.251 420.708 153.416 420.547 153.636C420.387 153.856 420.262 154.125 420.173 154.442C420.084 154.76 420.04 155.126 420.04 155.541V155.807C420.04 156.133 420.084 156.44 420.173 156.728C420.266 157.011 420.399 157.261 420.573 157.477C420.75 157.692 420.964 157.862 421.214 157.984C421.468 158.107 421.756 158.168 422.077 158.168C422.492 158.168 422.843 158.084 423.131 157.915C423.419 157.745 423.67 157.519 423.886 157.235L424.597 157.8C424.449 158.025 424.261 158.238 424.032 158.441C423.804 158.645 423.522 158.81 423.188 158.937C422.858 159.063 422.466 159.127 422.014 159.127ZM428.806 158.162C429.085 158.162 429.343 158.105 429.58 157.991C429.817 157.876 430.012 157.72 430.164 157.521C430.316 157.318 430.403 157.087 430.424 156.829H431.542C431.52 157.235 431.383 157.614 431.129 157.965C430.879 158.312 430.551 158.594 430.145 158.81C429.739 159.021 429.292 159.127 428.806 159.127C428.289 159.127 427.839 159.036 427.454 158.854C427.073 158.672 426.755 158.422 426.501 158.105C426.252 157.788 426.063 157.424 425.937 157.013C425.814 156.598 425.752 156.16 425.752 155.699V155.433C425.752 154.971 425.814 154.535 425.937 154.125C426.063 153.71 426.252 153.344 426.501 153.027C426.755 152.709 427.073 152.46 427.454 152.278C427.839 152.096 428.289 152.005 428.806 152.005C429.343 152.005 429.813 152.115 430.215 152.335C430.617 152.551 430.932 152.847 431.161 153.224C431.393 153.596 431.52 154.019 431.542 154.493H430.424C430.403 154.21 430.323 153.954 430.183 153.725C430.048 153.497 429.861 153.315 429.625 153.179C429.392 153.04 429.119 152.97 428.806 152.97C428.446 152.97 428.143 153.042 427.898 153.186C427.657 153.325 427.464 153.516 427.32 153.757C427.181 153.994 427.079 154.258 427.016 154.55C426.956 154.838 426.927 155.132 426.927 155.433V155.699C426.927 156 426.956 156.296 427.016 156.588C427.075 156.88 427.174 157.144 427.314 157.381C427.458 157.618 427.65 157.809 427.892 157.953C428.137 158.092 428.442 158.162 428.806 158.162ZM435.737 152.132V153.033H432.024V152.132H435.737ZM433.281 150.462H434.455V157.299C434.455 157.532 434.491 157.707 434.563 157.826C434.635 157.944 434.728 158.022 434.842 158.061C434.957 158.099 435.079 158.118 435.21 158.118C435.308 158.118 435.409 158.109 435.515 158.092C435.625 158.071 435.708 158.054 435.763 158.042L435.769 159C435.676 159.03 435.553 159.057 435.401 159.083C435.253 159.112 435.073 159.127 434.861 159.127C434.574 159.127 434.309 159.07 434.068 158.956C433.827 158.841 433.634 158.651 433.49 158.384C433.351 158.113 433.281 157.75 433.281 157.292V150.462ZM439.965 159.127C439.487 159.127 439.053 159.047 438.664 158.886C438.278 158.721 437.946 158.49 437.667 158.194C437.392 157.898 437.18 157.546 437.032 157.14C436.884 156.734 436.81 156.29 436.81 155.807V155.541C436.81 154.982 436.893 154.485 437.058 154.049C437.223 153.609 437.447 153.236 437.73 152.932C438.014 152.627 438.336 152.396 438.695 152.24C439.055 152.083 439.427 152.005 439.812 152.005C440.303 152.005 440.727 152.09 441.082 152.259C441.442 152.428 441.736 152.665 441.964 152.97C442.193 153.27 442.362 153.626 442.472 154.036C442.582 154.442 442.637 154.887 442.637 155.369V155.896H437.508V154.938H441.463V154.849C441.446 154.544 441.382 154.248 441.272 153.96C441.167 153.672 440.997 153.435 440.765 153.249C440.532 153.063 440.215 152.97 439.812 152.97C439.546 152.97 439.3 153.027 439.076 153.141C438.852 153.251 438.659 153.416 438.499 153.636C438.338 153.856 438.213 154.125 438.124 154.442C438.035 154.76 437.991 155.126 437.991 155.541V155.807C437.991 156.133 438.035 156.44 438.124 156.728C438.217 157.011 438.35 157.261 438.524 157.477C438.702 157.692 438.915 157.862 439.165 157.984C439.419 158.107 439.707 158.168 440.028 158.168C440.443 158.168 440.794 158.084 441.082 157.915C441.37 157.745 441.622 157.519 441.837 157.235L442.548 157.8C442.4 158.025 442.212 158.238 441.983 158.441C441.755 158.645 441.473 158.81 441.139 158.937C440.809 159.063 440.418 159.127 439.965 159.127ZM446.884 152.132V153.033H443.17V152.132H446.884ZM444.427 150.462H445.602V157.299C445.602 157.532 445.638 157.707 445.709 157.826C445.781 157.944 445.875 158.022 445.989 158.061C446.103 158.099 446.226 158.118 446.357 158.118C446.454 158.118 446.556 158.109 446.662 158.092C446.772 158.071 446.854 158.054 446.909 158.042L446.916 159C446.822 159.03 446.7 159.057 446.547 159.083C446.399 159.112 446.219 159.127 446.008 159.127C445.72 159.127 445.456 159.07 445.214 158.956C444.973 158.841 444.781 158.651 444.637 158.384C444.497 158.113 444.427 157.75 444.427 157.292V150.462ZM452.463 157.413V152.132H453.644V159H452.521L452.463 157.413ZM452.686 155.966L453.174 155.953C453.174 156.41 453.126 156.833 453.028 157.223C452.935 157.608 452.783 157.942 452.571 158.226C452.36 158.509 452.083 158.731 451.74 158.892C451.397 159.049 450.98 159.127 450.489 159.127C450.155 159.127 449.848 159.078 449.569 158.981C449.294 158.884 449.057 158.733 448.858 158.53C448.659 158.327 448.505 158.063 448.395 157.737C448.289 157.411 448.236 157.02 448.236 156.562V152.132H449.41V156.575C449.41 156.884 449.444 157.14 449.512 157.343C449.584 157.542 449.679 157.701 449.797 157.819C449.92 157.934 450.056 158.014 450.204 158.061C450.356 158.107 450.513 158.13 450.673 158.13C451.173 158.13 451.568 158.035 451.86 157.845C452.152 157.65 452.362 157.39 452.489 157.064C452.62 156.734 452.686 156.368 452.686 155.966ZM456.608 153.211V159H455.434V152.132H456.577L456.608 153.211ZM458.754 152.094L458.748 153.186C458.65 153.164 458.557 153.152 458.468 153.147C458.384 153.139 458.286 153.135 458.176 153.135C457.905 153.135 457.666 153.177 457.459 153.262C457.252 153.346 457.076 153.465 456.932 153.617C456.788 153.77 456.674 153.951 456.589 154.163C456.509 154.37 456.456 154.599 456.431 154.849L456.101 155.039C456.101 154.624 456.141 154.235 456.221 153.871C456.306 153.507 456.435 153.186 456.608 152.906C456.782 152.623 457.002 152.403 457.269 152.246C457.539 152.085 457.861 152.005 458.233 152.005C458.318 152.005 458.415 152.015 458.525 152.037C458.635 152.054 458.712 152.073 458.754 152.094ZM459.071 158.378C459.071 158.179 459.133 158.012 459.255 157.876C459.382 157.737 459.564 157.667 459.801 157.667C460.038 157.667 460.218 157.737 460.341 157.876C460.468 158.012 460.531 158.179 460.531 158.378C460.531 158.573 460.468 158.738 460.341 158.873C460.218 159.008 460.038 159.076 459.801 159.076C459.564 159.076 459.382 159.008 459.255 158.873C459.133 158.738 459.071 158.573 459.071 158.378Z" fill="#505050"/>
</g>
<rect x="319" y="60" width="208" height="121" rx="8" stroke="#737373"/>
<defs>
<clipPath id="clip0_8951_93366">
<rect x="319" y="60" width="208" height="121" rx="8" fill="white"/>
</clipPath>
</defs>
</svg>
