<!-- Generated by IcoMoon.io -->
<svg version="1.1" xmlns="http://www.w3.org/2000/svg" width="24" height="24" viewBox="0 0 24 24">
<title>calendar</title>
<path d="M9.107 4.5h5.786v-1.563c0-0.518 0.43-0.938 0.964-0.938s0.964 0.42 0.964 0.938v1.563h1.607c1.418 0 2.571 1.119 2.571 2.5v12.5c0 1.379-1.153 2.5-2.571 2.5h-12.857c-1.42 0-2.571-1.121-2.571-2.5v-12.5c0-1.381 1.151-2.5 2.571-2.5h1.607v-1.563c0-0.518 0.43-0.938 0.964-0.938s0.964 0.42 0.964 0.938v1.563zM4.929 19.5c0 0.344 0.288 0.625 0.643 0.625h12.857c0.354 0 0.643-0.281 0.643-0.625v-10h-14.143v10z"></path>
</svg>
