<!-- Generated by IcoMoon.io -->
<svg version="1.1" xmlns="http://www.w3.org/2000/svg" width="24" height="24" viewBox="0 0 24 24">
<title>chart</title>
<path d="M3.875 17.768c0 0.505 0.42 0.911 0.938 0.911h16.25c0.519 0 0.938 0.406 0.938 0.911s-0.418 0.911-0.938 0.911h-16.25c-1.553 0-2.813-1.222-2.813-2.732v-13.357c0-0.503 0.42-0.911 0.938-0.911s0.938 0.408 0.938 0.911v13.357zM15.129 13.825c-0.332 0.387-0.926 0.387-1.293 0l-3.121-2.967-3.086 2.967c-0.332 0.387-0.926 0.387-1.293 0-0.363-0.322-0.363-0.899 0-1.256l3.75-3.643c0.176-0.171 0.414-0.266 0.629-0.266 0.285 0 0.524 0.095 0.664 0.266l3.121 3.002 4.648-4.519c0.367-0.353 0.961-0.353 1.293 0 0.398 0.357 0.398 0.933 0 1.256l-5.313 5.161z"></path>
</svg>
