<!-- Generated by IcoMoon.io -->
<svg version="1.1" xmlns="http://www.w3.org/2000/svg" width="24" height="24" viewBox="0 0 24 24">
<title>close</title>
<path d="M19.607 17.957c0.468 0.467 0.468 1.225 0 1.693s-1.229 0.467-1.697 0l-5.909-5.937-5.951 5.935c-0.468 0.467-1.229 0.467-1.697 0s-0.468-1.225 0-1.693l5.953-5.933-5.954-5.979c-0.468-0.467-0.468-1.225 0-1.693s1.229-0.467 1.697 0l5.952 5.981 5.951-5.934c0.468-0.467 1.229-0.467 1.697 0s0.468 1.225 0 1.693l-5.953 5.933 5.911 5.935z"></path>
</svg>
