<!-- Generated by IcoMoon.io -->
<svg version="1.1" xmlns="http://www.w3.org/2000/svg" width="24" height="24" viewBox="0 0 24 24">
<title>emoji</title>
<path d="M4.012 3.621c1.033-0.868 2.491-0.773 3.456-0.042 1.027-0.735 2.471-0.819 3.523 0.034l0.011 0.010c1.266 1.066 1.329 2.964 0.183 4.11l-2.763 2.77c-0.496 0.482-1.329 0.517-1.846-0.014l-2.761-2.756c-1.146-1.178-1.084-3.047 0.199-4.112zM5.092 4.918c-0.513 0.425-0.535 1.172-0.084 1.623l2.499 2.493 2.482-2.493c0.454-0.45 0.429-1.197-0.067-1.622-0.429-0.341-1.104-0.303-1.543 0.119l-0.858 0.918-0.896-0.911c-0.446-0.437-1.137-0.46-1.527-0.131l-0.005 0.004zM21 9.156c0 0.963-1.009 1.688-2.25 1.688s-2.25-0.724-2.25-1.688c0-0.9 1.009-1.687 2.25-1.687 0.193 0 0.383 0.049 0.563 0.084v-2.68l-3.937 0.787v4.62c0 0.963-1.009 1.687-2.25 1.687s-2.25-0.724-2.25-1.687c0-0.9 1.009-1.687 2.25-1.687 0.193 0 0.383 0.049 0.563 0.084v-3.741c0-0.371 0.285-0.717 0.678-0.796l5.625-1.125c0.246-0.050 0.506 0.015 0.7 0.175 0.197 0.16 0.309 0.4 0.309 0.621v5.344zM9.75 16.781c0 0.932-0.756 1.687-1.687 1.687s-1.687-0.756-1.687-1.687c0-0.932 0.756-1.688 1.687-1.688s1.687 0.756 1.687 1.688zM13.125 15.375v3.375c0 1.241-1.009 2.25-2.25 2.25h-5.625c-1.243 0-2.25-1.009-2.25-2.25v-3.375c0-1.241 1.007-2.25 2.218-2.25l0.283-0.503c0.191-0.383 0.58-0.654 1.006-0.654h3.108c0.425 0 0.816 0.271 1.005 0.654l0.253 0.503c1.241 0 2.25 1.009 2.25 2.25zM6.293 14.813h-1.074c-0.279 0-0.531 0.253-0.531 0.563v3.375c0 0.309 0.252 0.562 0.562 0.562h5.625c0.309 0 0.563-0.253 0.563-0.562v-3.375c0-0.309-0.253-0.563-0.563-0.563h-1.044l-0.562-1.157h-2.412l-0.564 1.157zM19.643 12.109c0.211 0.151 0.292 0.432 0.186 0.675l-1.35 3.153h1.958c0.235 0 0.443 0.144 0.496 0.366 0.112 0.218 0.053 0.468-0.127 0.619l-4.5 3.937c-0.197 0.144-0.489 0.186-0.699 0.032-0.211-0.151-0.288-0.432-0.186-0.675l1.35-3.153h-1.958c-0.236 0-0.443-0.144-0.527-0.366-0.081-0.218-0.021-0.468 0.158-0.65l4.5-3.937c0.197-0.144 0.489-0.155 0.7 0z"></path>
</svg>
