<!-- Generated by IcoMoon.io -->
<svg version="1.1" xmlns="http://www.w3.org/2000/svg" width="24" height="24" viewBox="0 0 24 24">
<title>external-link</title>
<path d="M13.69 3.844c0 0.468 0.376 0.844 0.844 0.844h3.59l-7.845 7.84c-0.331 0.33-0.331 0.865 0 1.192s0.865 0.33 1.192 0l7.841-7.84v3.589c0 0.468 0.376 0.844 0.844 0.844s0.844-0.376 0.844-0.844v-5.625c0-0.468-0.376-0.844-0.844-0.844h-5.623c-0.468 0-0.844 0.376-0.844 0.844zM5.532 4.125c-1.4 0-2.532 1.132-2.532 2.531v11.813c0 1.399 1.132 2.531 2.532 2.531h11.815c1.399 0 2.532-1.132 2.532-2.531v-4.5c0-0.468-0.376-0.844-0.844-0.844s-0.844 0.376-0.844 0.844v4.5c0 0.468-0.376 0.844-0.844 0.844h-11.815c-0.468 0-0.844-0.376-0.844-0.844v-11.813c0-0.468 0.376-0.844 0.844-0.844h4.501c0.468 0 0.844-0.376 0.844-0.844s-0.376-0.844-0.844-0.844h-4.501z"></path>
</svg>
