<!-- Generated by IcoMoon.io -->
<svg version="1.1" xmlns="http://www.w3.org/2000/svg" width="24" height="24" viewBox="0 0 24 24">
<title>filter</title>
<path d="M2 4.688c0-0.482 0.156-0.884 0.469-1.205s0.703-0.482 1.172-0.482h16.719c0.469 0 0.859 0.161 1.172 0.482s0.469 0.723 0.469 1.205c0 0.402-0.117 0.75-0.352 1.045l-6.523 8.237v5.745c0 0.348-0.117 0.656-0.352 0.924-0.26 0.241-0.56 0.362-0.898 0.362-0.312 0-0.573-0.107-0.781-0.321l-3.633-2.893c-0.391-0.348-0.586-0.777-0.586-1.286v-2.531l-6.523-8.237c-0.234-0.295-0.352-0.643-0.352-1.045zM4.148 4.929l6.406 8.076c0.13 0.188 0.195 0.388 0.195 0.603v2.732l2.5 2.049v-4.781c0-0.214 0.065-0.415 0.195-0.603l6.406-8.076h-15.703z"></path>
</svg>
