<!-- Generated by IcoMoon.io -->
<svg version="1.1" xmlns="http://www.w3.org/2000/svg" width="24" height="24" viewBox="0 0 24 24">
<title>folder-open</title>
<path d="M21.882 12.511l-3.333 6.857c-0.188 0.389-0.573 0.632-1.024 0.632h-13.302c-1.227 0-2.222-1.024-2.222-2.286v-11.429c0-1.262 0.995-2.286 2.222-2.286h4.080c0.589 0 1.155 0.241 1.572 0.67l1.706 1.616h4.865c1.227 0 2.222 1.024 2.222 2.286v1.143h-1.667v-1.143c0-0.315-0.249-0.571-0.556-0.571h-5.556l-2.194-2.118c-0.104-0.108-0.243-0.168-0.392-0.168h-4.080c-0.306 0-0.556 0.256-0.556 0.571v10.286l2.471-5.082c0.189-0.389 0.574-0.632 0.994-0.632h13.757c0.823 0 1.361 0.893 0.993 1.654z"></path>
</svg>
