<!-- Generated by IcoMoon.io -->
<svg version="1.1" xmlns="http://www.w3.org/2000/svg" width="24" height="24" viewBox="0 0 24 24">
<title>hide</title>
<path d="M6.71 7.218c1.384-1.011 3.159-1.78 5.291-1.78 2.525 0 4.547 1.079 6.019 2.361 1.462 1.271 2.441 2.769 2.903 3.841 0.103 0.231 0.103 0.489 0 0.721-0.419 0.946-1.259 2.279-2.497 3.469l3.288 2.414c0.325 0.24 0.384 0.683 0.128 0.987s-0.728 0.36-1.053 0.12l-18.5-13.594c-0.326-0.24-0.383-0.681-0.128-0.987s0.727-0.359 1.053-0.12l3.497 2.568zM7.931 8.118l1.437 1.055c0.703-0.574 1.625-0.923 2.631-0.923 2.209 0 4 1.679 4 3.75 0 0.621-0.159 1.204-0.444 1.72l1.681 1.236c1.047-0.999 1.822-2.162 2.219-2.956-0.453-0.905-1.256-2.124-2.459-3.173-1.284-1.116-2.959-2.010-4.997-2.010-1.578 0-2.966 0.546-4.069 1.301zM14.341 12.826c0.103-0.258 0.159-0.536 0.159-0.853 0-1.269-1.119-2.344-2.5-2.344-0.022 0-0.041 0.026-0.091 0.026 0.069 0.149 0.091 0.308 0.091 0.442 0 0.325-0.075 0.606-0.206 0.855l2.547 1.872zM14.635 16.644l1.309 0.967c-1.134 0.574-2.45 0.952-3.944 0.952-2.525 0-4.547-1.078-6.019-2.361-1.462-1.298-2.439-2.795-2.904-3.841-0.102-0.231-0.102-0.489 0-0.721 0.298-0.671 0.807-1.538 1.52-2.408l1.178 0.87c-0.584 0.683-0.97 1.359-1.23 1.872 0.424 0.905 1.255 2.15 2.458 3.199 1.284 1.116 2.959 1.983 4.997 1.983 0.959 0 1.837-0.193 2.634-0.513zM8 11.974c0-0.059 0.003-0.141 0.009-0.223l1.753 1.295c0.328 0.618 0.941 1.081 1.675 1.213l1.756 1.321c-0.378 0.085-0.778 0.17-1.222 0.17-2.181 0-4-1.679-4-3.776h0.028z"></path>
</svg>
