<!-- Generated by IcoMoon.io -->
<svg version="1.1" xmlns="http://www.w3.org/2000/svg" width="24" height="24" viewBox="0 0 24 24">
<title>lock</title>
<path d="M7.429 9.75v-2.25c0-2.485 2.046-4.5 4.571-4.5s4.571 2.015 4.571 4.5v2.25h1.143c1.261 0 2.286 1.009 2.286 2.25v6.75c0 1.241-1.025 2.25-2.286 2.25h-11.429c-1.263 0-2.286-1.009-2.286-2.25v-6.75c0-1.241 1.023-2.25 2.286-2.25h1.143zM9.143 9.75h5.714v-2.25c0-1.553-1.278-2.813-2.857-2.813s-2.857 1.259-2.857 2.813v2.25zM5.714 18.75c0 0.309 0.256 0.563 0.571 0.563h11.429c0.314 0 0.571-0.253 0.571-0.563v-6.75c0-0.309-0.257-0.563-0.571-0.563h-11.429c-0.316 0-0.571 0.253-0.571 0.563v6.75z"></path>
</svg>
