<!-- Generated by IcoMoon.io -->
<svg version="1.1" xmlns="http://www.w3.org/2000/svg" width="24" height="24" viewBox="0 0 24 24">
<title>package-check</title>
<path d="M3.667 17.1c0 0.312 0.249 0.567 0.556 0.567h7.052c0.267 0.62 0.601 1.194 1.010 1.7h-8.062c-1.227 0-2.222-1.017-2.222-2.267v-8.018c0-0.319 0.065-0.63 0.192-0.921l1.444-3.315c0.357-0.819 1.152-1.346 2.031-1.346h8.222c0.879 0 1.674 0.528 2.031 1.346l1.444 3.315c0.125 0.29 0.191 0.602 0.191 0.921v0.11c-0.184-0.018-0.368-0.025-0.556-0.025-0.91 0-1.774 0.202-2.549 0.567h-10.785v7.367zM13.889 5.2h-3.278v2.833h4.875l-1.090-2.497c-0.087-0.205-0.288-0.336-0.507-0.336zM4.071 8.033h4.874v-2.833h-3.278c-0.22 0-0.419 0.132-0.508 0.336l-1.088 2.497zM22 15.4c0 2.816-2.24 5.1-5 5.1s-5-2.284-5-5.1c0-2.816 2.24-5.1 5-5.1s5 2.284 5 5.1zM18.552 13.866l-2.108 2.15-0.996-1.016c-0.215-0.223-0.569-0.223-0.785 0-0.219 0.22-0.219 0.581 0 0.8l1.389 1.417c0.215 0.223 0.569 0.223 0.785 0l2.5-2.55c0.219-0.22 0.219-0.581 0-0.8-0.215-0.223-0.569-0.223-0.785 0z"></path>
</svg>
