<!-- Generated by IcoMoon.io -->
<svg version="1.1" xmlns="http://www.w3.org/2000/svg" width="24" height="24" viewBox="0 0 24 24">
<title>plugin-hustle</title>
<path d="M10.575 12.291l3.429-2.289v1.71l3.998-1.71-5.138 3.999v-1.71l-2.289 1.71v-1.71z"></path>
<path d="M19.99 2.048c0.485 0.097 0.931 0.336 1.281 0.686 0.232 0.233 0.416 0.509 0.541 0.812s0.189 0.629 0.189 0.957v14.976c0 0.663-0.263 1.299-0.732 1.767s-1.104 0.732-1.767 0.732c-0.663 0-1.298-0.263-1.767-0.732s-0.732-1.104-0.732-1.767c0-1.939-2.659-2.389-5.997-2.479v2c0.012 0.397-0.057 0.793-0.203 1.162s-0.367 0.705-0.648 0.986c-0.281 0.281-0.617 0.501-0.986 0.648s-0.765 0.215-1.162 0.203c-0.397 0.012-0.793-0.057-1.162-0.203s-0.705-0.367-0.986-0.648c-0.281-0.281-0.501-0.617-0.648-0.986s-0.215-0.765-0.203-1.162v-2.229c-0.566-0.217-1.057-0.595-1.412-1.087s-0.559-1.077-0.587-1.683v-0.59c-0.294-0.101-0.549-0.29-0.73-0.543s-0.278-0.556-0.278-0.867c0-0.311 0.097-0.614 0.278-0.867s0.436-0.443 0.73-0.543v-0.59c0.039-0.783 0.367-1.523 0.921-2.078s1.295-0.883 2.077-0.921h2.999c4.378 0 7.997-0.19 7.997-2.499-0.001-0.495 0.145-0.979 0.42-1.391s0.665-0.733 1.122-0.922c0.457-0.19 0.96-0.239 1.446-0.142zM8.197 20.007c0.197-0.039 0.377-0.135 0.518-0.277v-0.020c0.093-0.093 0.166-0.204 0.216-0.326s0.075-0.252 0.074-0.384v-1.999h-1.999v1.999c-0.005 0.2 0.050 0.397 0.158 0.566s0.265 0.301 0.449 0.38c0.184 0.079 0.388 0.1 0.584 0.062zM19.854 19.853c0.094-0.094 0.146-0.221 0.146-0.354v-14.996c0-0.133-0.053-0.26-0.146-0.353s-0.221-0.146-0.353-0.146c-0.132 0-0.26 0.053-0.353 0.146s-0.146 0.221-0.146 0.353c0 4.499-5.997 4.499-9.996 4.499h-2.999c-0.253 0.035-0.487 0.151-0.668 0.332s-0.297 0.415-0.332 0.668v3.999c0.035 0.253 0.151 0.487 0.332 0.668s0.415 0.297 0.668 0.332h2.999c3.998 0 9.996 0 9.996 4.499 0 0.133 0.053 0.26 0.146 0.354s0.221 0.146 0.353 0.146c0.133 0 0.26-0.053 0.353-0.146z"></path>
</svg>
