<!-- Generated by IcoMoon.io -->
<svg version="1.1" xmlns="http://www.w3.org/2000/svg" width="24" height="24" viewBox="0 0 24 24">
<title>rotate-left</title>
<path d="M3.034 2c0.571 0 1.034 0.463 1.034 1.035v4.402c1.711-2.868 4.841-4.742 8.28-4.742 5.323 0 9.651 4.328 9.651 9.653s-4.328 9.653-9.651 9.653c-2.255 0-4.453-0.79-6.185-2.232-0.439-0.366-0.498-1.018-0.132-1.458 0.366-0.441 1.020-0.498 1.457-0.132 1.36 1.131 3.084 1.756 4.856 1.756 4.182 0 7.586-3.405 7.586-7.588s-3.405-7.588-7.586-7.588c-2.868 0-5.465 1.65-6.746 4.139h4.332c0.573 0 1.034 0.466 1.034 1.035s-0.461 1.035-1.034 1.035h-6.897c-0.571 0-1.034-0.461-1.034-1.035v-6.898c0-0.571 0.463-1.035 1.034-1.035z"></path>
</svg>
