<!-- Generated by IcoMoon.io -->
<svg version="1.1" xmlns="http://www.w3.org/2000/svg" width="24" height="24" viewBox="0 0 24 24">
<title>save</title>
<path d="M12 12c-1.571 0-2.857 1.286-2.857 2.857s1.286 2.857 2.857 2.857 2.857-1.286 2.857-2.857c0-1.571-1.286-2.857-2.857-2.857zM21.335 6.335l-3.745-3.746c-0.362-0.363-0.911-0.589-1.478-0.589h-11.254c-1.578 0-2.857 1.279-2.857 2.857v14.286c0 1.578 1.279 2.857 2.857 2.857h14.286c1.578 0 2.857-1.279 2.857-2.857v-11.255c0-0.567-0.228-1.116-0.665-1.554zM7.714 4.143h6.429v3.571h-6.429v-3.571zM19.857 19.143c0 0.394-0.32 0.714-0.714 0.714h-14.286c-0.394 0-0.714-0.32-0.714-0.714v-14.286c0-0.395 0.32-0.714 0.714-0.714h0.714v4.643c0 0.592 0.48 1.071 1.071 1.071h8.571c0.594 0 1.071-0.478 1.071-1.071v-4.47l3.493 3.493c0.051 0.048 0.078 0.119 0.078 0.186v11.147z"></path>
</svg>
