<!-- Generated by IcoMoon.io -->
<svg version="1.1" xmlns="http://www.w3.org/2000/svg" width="24" height="24" viewBox="0 0 24 24">
<title>settings</title>
<path d="M8.109 12c0-2.105 1.707-3.75 3.892-3.75 2.148 0 3.892 1.645 3.892 3.75 0 2.070-1.743 3.75-3.892 3.75-2.185 0-3.892-1.68-3.892-3.75zM12 10.125c-1.074 0-1.946 0.84-1.946 1.875s0.872 1.875 1.946 1.875c1.074 0 1.946-0.84 1.946-1.875s-0.872-1.875-1.946-1.875zM13.504 2c0.9 0 1.682 0.593 1.893 1.435l0.316 1.268c0.345 0.162 0.673 0.346 0.985 0.55l1.301-0.369c0.863-0.245 1.788 0.111 2.238 0.861l1.504 2.509c0.446 0.75 0.304 1.699-0.345 2.297l-0.985 0.867c0.012 0.215 0.020 0.398 0.020 0.582s-0.008 0.367-0.020 0.547l0.985 0.902c0.649 0.598 0.79 1.547 0.345 2.297l-1.504 2.508c-0.45 0.75-1.374 1.105-2.238 0.863l-1.301-0.371c-0.312 0.203-0.64 0.387-0.985 0.551l-0.316 1.269c-0.211 0.84-0.993 1.434-1.893 1.434h-3.008c-0.9 0-1.682-0.594-1.893-1.434l-0.316-1.269c-0.345-0.164-0.673-0.348-0.985-0.551l-1.338 0.371c-0.826 0.242-1.75-0.113-2.199-0.863l-1.504-2.508c-0.45-0.75-0.307-1.699 0.344-2.297l0.983-0.902c-0.013-0.18-0.019-0.363-0.019-0.582 0-0.148 0.006-0.332 0.019-0.547l-0.983-0.867c-0.651-0.598-0.793-1.547-0.344-2.297l1.504-2.509c0.45-0.75 1.373-1.106 2.199-0.861l1.338 0.369c0.312-0.204 0.64-0.387 0.985-0.55l0.316-1.268c0.211-0.842 0.993-1.435 1.893-1.435h3.008zM9.953 6.047l-0.454 0.184c-0.515 0.207-0.993 0.477-1.427 0.797l-0.393 0.289-2.229-0.633-1.504 2.508 1.682 1.543-0.062 0.469c-0.034 0.262-0.052 0.527-0.052 0.797s0.018 0.535 0.052 0.797l0.062 0.469-1.682 1.543 1.504 2.508 2.229-0.633 0.393 0.289c0.434 0.32 0.912 0.59 1.427 0.797l0.454 0.184 0.543 2.172h3.008l0.543-2.172 0.454-0.184c0.515-0.207 0.993-0.477 1.427-0.797l0.393-0.289 2.23 0.633 1.504-2.508-1.682-1.543 0.061-0.469c0.036-0.262 0.053-0.527 0.053-0.797s-0.016-0.535-0.053-0.797l-0.061-0.469 1.682-1.543-1.504-2.508-2.23 0.633-0.393-0.289c-0.434-0.32-0.912-0.59-1.427-0.797l-0.454-0.184-0.543-2.172h-3.008l-0.543 2.172z"></path>
</svg>
