<!-- Generated by IcoMoon.io -->
<svg version="1.1" xmlns="http://www.w3.org/2000/svg" width="24" height="24" viewBox="0 0 24 24">
<title>submit</title>
<path d="M21.625 2.167c-0.339-0.208-0.678-0.221-1.016-0.039l-18.139 10.307c-0.313 0.208-0.469 0.495-0.469 0.859 0.026 0.39 0.222 0.664 0.586 0.82l5.981 2.499v4.451c0 0.364 0.169 0.638 0.508 0.82 0.13 0.078 0.261 0.117 0.391 0.117 0.182 0 0.352-0.052 0.508-0.156l4.339-2.772 3.87 1.601c0.104 0.052 0.222 0.078 0.352 0.078 0.156 0 0.313-0.039 0.469-0.117 0.261-0.156 0.417-0.377 0.469-0.664l2.502-16.866c0.078-0.39-0.039-0.703-0.352-0.937zM16.425 6.656l-7.31 8.16-4.066-1.679 11.376-6.481zM10.405 19.345v-1.913l1.837 0.742-1.837 1.171zM17.833 18.486l-6.919-2.889 8.796-9.761-1.876 12.65z"></path>
</svg>
