<!-- Generated by IcoMoon.io -->
<svg version="1.1" xmlns="http://www.w3.org/2000/svg" width="24" height="24" viewBox="0 0 24 24">
<title>user-alt</title>
<path d="M12 6.375c-0.963 0.026-1.771 0.365-2.422 1.016s-0.99 1.458-1.016 2.422c0.026 0.963 0.365 1.771 1.016 2.422s1.458 0.99 2.422 1.016c0.963-0.026 1.771-0.365 2.422-1.016s0.99-1.458 1.016-2.422c-0.026-0.964-0.365-1.771-1.016-2.422s-1.458-0.99-2.422-1.016zM12 11.375c-0.443 0-0.807-0.156-1.094-0.469-0.312-0.286-0.469-0.651-0.469-1.094s0.156-0.807 0.469-1.094c0.287-0.312 0.651-0.469 1.094-0.469s0.807 0.156 1.094 0.469c0.312 0.286 0.469 0.651 0.469 1.094s-0.156 0.807-0.469 1.094c-0.287 0.313-0.651 0.469-1.094 0.469zM12 2c-1.875 0.026-3.555 0.482-5.039 1.367-1.51 0.885-2.708 2.083-3.594 3.594-0.885 1.484-1.341 3.164-1.367 5.039 0.026 1.875 0.482 3.555 1.367 5.039 0.885 1.51 2.083 2.708 3.594 3.594 1.484 0.885 3.164 1.341 5.039 1.367 1.875-0.026 3.555-0.482 5.039-1.367 1.51-0.885 2.708-2.083 3.594-3.594 0.885-1.484 1.341-3.164 1.367-5.039-0.026-1.875-0.482-3.555-1.367-5.039-0.885-1.51-2.083-2.708-3.594-3.594-1.484-0.885-3.164-1.341-5.039-1.367zM12 20.125c-1.849-0.026-3.464-0.573-4.844-1.641 0.339-0.651 0.807-1.159 1.406-1.524 0.599-0.391 1.276-0.586 2.031-0.586h2.812c0.755 0 1.432 0.195 2.031 0.586 0.599 0.365 1.081 0.872 1.445 1.524-1.406 1.068-3.034 1.615-4.883 1.641zM18.25 17.195c-0.521-0.833-1.211-1.497-2.070-1.992-0.833-0.469-1.758-0.703-2.774-0.703h-2.812c-1.016 0-1.94 0.234-2.774 0.703s-1.523 1.12-2.070 1.953c-1.198-1.432-1.823-3.151-1.875-5.156 0.052-2.292 0.846-4.206 2.383-5.742s3.451-2.331 5.742-2.383c2.292 0.052 4.206 0.846 5.742 2.383s2.331 3.451 2.383 5.742c-0.052 2.005-0.677 3.737-1.875 5.195z"></path>
</svg>
