<!-- Generated by IcoMoon.io -->
<svg version="1.1" xmlns="http://www.w3.org/2000/svg" width="24" height="24" viewBox="0 0 24 24">
<title>video</title>
<path d="M23.265 5.996c-0.46-0.289-1.033-0.328-1.529-0.105l-4.126 1.851v-0.742c0-1.381-1.144-2.5-2.556-2.5h-11.5c-1.412 0-2.556 1.119-2.556 2.5v10c0 1.381 1.144 2.5 2.556 2.5h11.5c1.412 0 2.556-1.119 2.556-2.5v-0.743l4.125 1.85c0.213 0.096 0.441 0.144 0.666 0.144 0.301 0 0.6-0.084 0.862-0.248 0.46-0.287 0.735-0.779 0.735-1.35v-9.34c0-0.535-0.276-1.023-0.735-1.316zM15.694 17c0 0.345-0.287 0.625-0.639 0.625h-11.5c-0.352 0-0.639-0.28-0.639-0.625v-10c0-0.345 0.287-0.625 0.639-0.625h11.5c0.352 0 0.639 0.28 0.639 0.625v10zM22.083 16.199l-4.472-2.004v-4.391l4.472-2.005v8.4zM12.5 11.063h-2.272v-2.223c0-0.484-0.391-0.902-0.922-0.902s-0.958 0.418-0.958 0.902v2.223h-2.272c-0.495 0-0.922 0.418-0.922 0.938 0 0.518 0.428 0.902 0.922 0.902h2.272v2.187c0 0.555 0.427 0.973 0.958 0.973 0.529 0 0.922-0.42 0.922-0.902v-2.258h2.236c0.567 0 0.994-0.383 0.994-0.902s-0.427-0.938-0.958-0.938z"></path>
</svg>
