<svg width="800" height="128" viewBox="0 0 800 128" fill="none" xmlns="http://www.w3.org/2000/svg">
<rect width="800" height="128" rx="4" fill="#F8F8F8"/>
<path d="M269.917 78.7368V80H265.276V78.7368H269.917ZM265.721 70.7578V80H264.127V70.7578H265.721ZM274.868 78.6226V75.3472C274.868 75.1017 274.823 74.8901 274.734 74.7124C274.646 74.5347 274.51 74.3971 274.328 74.2998C274.15 74.2025 273.926 74.1538 273.655 74.1538C273.406 74.1538 273.19 74.1961 273.008 74.2808C272.826 74.3654 272.684 74.4797 272.583 74.6235C272.481 74.7674 272.43 74.9303 272.43 75.1123H270.907C270.907 74.8415 270.972 74.5791 271.104 74.3252C271.235 74.0713 271.425 73.8449 271.675 73.646C271.924 73.4471 272.223 73.2905 272.57 73.1763C272.917 73.062 273.306 73.0049 273.738 73.0049C274.254 73.0049 274.711 73.0916 275.109 73.2651C275.511 73.4386 275.826 73.701 276.055 74.0522C276.287 74.3993 276.404 74.8351 276.404 75.3599V78.4131C276.404 78.7262 276.425 79.0076 276.467 79.2573C276.514 79.5028 276.579 79.7165 276.664 79.8984V80H275.096C275.024 79.835 274.967 79.6255 274.925 79.3716C274.887 79.1134 274.868 78.8638 274.868 78.6226ZM275.09 75.8232L275.103 76.769H274.004C273.721 76.769 273.471 76.7965 273.255 76.8516C273.04 76.9023 272.86 76.9785 272.716 77.0801C272.572 77.1816 272.464 77.3044 272.392 77.4482C272.32 77.5921 272.284 77.755 272.284 77.937C272.284 78.119 272.326 78.2861 272.411 78.4385C272.496 78.5866 272.618 78.703 272.779 78.7876C272.944 78.8722 273.143 78.9146 273.376 78.9146C273.689 78.9146 273.962 78.8511 274.195 78.7241C274.432 78.5929 274.618 78.4342 274.753 78.248C274.889 78.0576 274.961 77.8778 274.969 77.7085L275.464 78.3877C275.414 78.5612 275.327 78.7474 275.204 78.9463C275.081 79.1452 274.921 79.3356 274.722 79.5176C274.527 79.6953 274.292 79.8413 274.017 79.9556C273.746 80.0698 273.433 80.127 273.078 80.127C272.629 80.127 272.229 80.0381 271.878 79.8604C271.527 79.6784 271.252 79.4351 271.053 79.1304C270.854 78.8215 270.754 78.4723 270.754 78.083C270.754 77.7191 270.822 77.3975 270.958 77.1182C271.097 76.8346 271.3 76.5977 271.567 76.4072C271.838 76.2168 272.168 76.0729 272.557 75.9756C272.946 75.874 273.391 75.8232 273.89 75.8232H275.09ZM278.01 70.25H279.54V78.5337L279.394 80H278.01V70.25ZM284.021 76.5024V76.6357C284.021 77.1436 283.964 77.6112 283.85 78.0386C283.74 78.4618 283.57 78.8299 283.342 79.1431C283.118 79.4562 282.838 79.6995 282.504 79.873C282.174 80.0423 281.791 80.127 281.355 80.127C280.928 80.127 280.555 80.0465 280.238 79.8857C279.92 79.7249 279.654 79.4964 279.438 79.2002C279.226 78.904 279.055 78.5506 278.924 78.1401C278.793 77.7297 278.7 77.2769 278.645 76.7817V76.3564C278.7 75.8571 278.793 75.4043 278.924 74.998C279.055 74.5876 279.226 74.2342 279.438 73.938C279.654 73.6375 279.918 73.4069 280.231 73.2461C280.549 73.0853 280.919 73.0049 281.342 73.0049C281.782 73.0049 282.17 73.0895 282.504 73.2588C282.842 73.4281 283.124 73.6693 283.348 73.9824C283.572 74.2913 283.74 74.6595 283.85 75.0869C283.964 75.5143 284.021 75.9862 284.021 76.5024ZM282.491 76.6357V76.5024C282.491 76.1935 282.466 75.9036 282.415 75.6328C282.364 75.3577 282.28 75.1165 282.161 74.9092C282.047 74.7018 281.89 74.5389 281.691 74.4204C281.497 74.2977 281.253 74.2363 280.961 74.2363C280.691 74.2363 280.458 74.2829 280.263 74.376C280.069 74.4691 279.906 74.596 279.774 74.7568C279.643 74.9176 279.54 75.1038 279.463 75.3154C279.391 75.527 279.343 75.7555 279.317 76.001V77.1499C279.355 77.4673 279.436 77.7593 279.559 78.0259C279.686 78.2882 279.863 78.4998 280.092 78.6606C280.32 78.8172 280.614 78.8955 280.974 78.8955C281.258 78.8955 281.497 78.8384 281.691 78.7241C281.886 78.6099 282.041 78.4512 282.155 78.248C282.273 78.0407 282.358 77.7995 282.409 77.5244C282.464 77.2493 282.491 76.9531 282.491 76.6357ZM288.344 80.127C287.836 80.127 287.377 80.0444 286.966 79.8794C286.56 79.7101 286.213 79.4753 285.925 79.1748C285.642 78.8743 285.424 78.521 285.271 78.1147C285.119 77.7085 285.043 77.2705 285.043 76.8008V76.5469C285.043 76.0094 285.121 75.5228 285.278 75.0869C285.434 74.651 285.652 74.2786 285.932 73.9697C286.211 73.6566 286.541 73.4175 286.922 73.2524C287.303 73.0874 287.715 73.0049 288.16 73.0049C288.651 73.0049 289.08 73.0874 289.448 73.2524C289.816 73.4175 290.121 73.6502 290.362 73.9507C290.608 74.2469 290.79 74.6003 290.908 75.0107C291.031 75.4212 291.092 75.874 291.092 76.3691V77.0229H285.786V75.9248H289.582V75.8042C289.573 75.5291 289.518 75.271 289.417 75.0298C289.319 74.7886 289.169 74.5939 288.966 74.4458C288.763 74.2977 288.492 74.2236 288.153 74.2236C287.899 74.2236 287.673 74.2786 287.474 74.3887C287.279 74.4945 287.117 74.6489 286.985 74.8521C286.854 75.0552 286.753 75.3006 286.681 75.5884C286.613 75.8719 286.579 76.1914 286.579 76.5469V76.8008C286.579 77.1012 286.619 77.3805 286.7 77.6387C286.784 77.8926 286.907 78.1147 287.068 78.3052C287.229 78.4956 287.423 78.6458 287.652 78.7559C287.88 78.8617 288.141 78.9146 288.433 78.9146C288.801 78.9146 289.129 78.8405 289.417 78.6924C289.704 78.5443 289.954 78.3348 290.166 78.064L290.972 78.8447C290.824 79.0605 290.631 79.2679 290.394 79.4668C290.157 79.6615 289.867 79.8201 289.524 79.9429C289.186 80.0656 288.792 80.127 288.344 80.127ZM293.923 70.25V80H292.387V70.25H293.923Z" fill="#1A1A1A"/>
<rect x="255.5" y="64.5" width="47" height="23" rx="11.5" stroke="#1A1A1A"/>
<path d="M458.917 78.7368V80H454.276V78.7368H458.917ZM454.721 70.7578V80H453.127V70.7578H454.721ZM463.868 78.6226V75.3472C463.868 75.1017 463.823 74.8901 463.734 74.7124C463.646 74.5347 463.51 74.3971 463.328 74.2998C463.15 74.2025 462.926 74.1538 462.655 74.1538C462.406 74.1538 462.19 74.1961 462.008 74.2808C461.826 74.3654 461.684 74.4797 461.583 74.6235C461.481 74.7674 461.43 74.9303 461.43 75.1123H459.907C459.907 74.8415 459.972 74.5791 460.104 74.3252C460.235 74.0713 460.425 73.8449 460.675 73.646C460.924 73.4471 461.223 73.2905 461.57 73.1763C461.917 73.062 462.306 73.0049 462.738 73.0049C463.254 73.0049 463.711 73.0916 464.109 73.2651C464.511 73.4386 464.826 73.701 465.055 74.0522C465.287 74.3993 465.404 74.8351 465.404 75.3599V78.4131C465.404 78.7262 465.425 79.0076 465.467 79.2573C465.514 79.5028 465.579 79.7165 465.664 79.8984V80H464.096C464.024 79.835 463.967 79.6255 463.925 79.3716C463.887 79.1134 463.868 78.8638 463.868 78.6226ZM464.09 75.8232L464.103 76.769H463.004C462.721 76.769 462.471 76.7965 462.255 76.8516C462.04 76.9023 461.86 76.9785 461.716 77.0801C461.572 77.1816 461.464 77.3044 461.392 77.4482C461.32 77.5921 461.284 77.755 461.284 77.937C461.284 78.119 461.326 78.2861 461.411 78.4385C461.496 78.5866 461.618 78.703 461.779 78.7876C461.944 78.8722 462.143 78.9146 462.376 78.9146C462.689 78.9146 462.962 78.8511 463.195 78.7241C463.432 78.5929 463.618 78.4342 463.753 78.248C463.889 78.0576 463.961 77.8778 463.969 77.7085L464.464 78.3877C464.414 78.5612 464.327 78.7474 464.204 78.9463C464.081 79.1452 463.921 79.3356 463.722 79.5176C463.527 79.6953 463.292 79.8413 463.017 79.9556C462.746 80.0698 462.433 80.127 462.078 80.127C461.629 80.127 461.229 80.0381 460.878 79.8604C460.527 79.6784 460.252 79.4351 460.053 79.1304C459.854 78.8215 459.754 78.4723 459.754 78.083C459.754 77.7191 459.822 77.3975 459.958 77.1182C460.097 76.8346 460.3 76.5977 460.567 76.4072C460.838 76.2168 461.168 76.0729 461.557 75.9756C461.946 75.874 462.391 75.8232 462.89 75.8232H464.09ZM467.01 70.25H468.54V78.5337L468.394 80H467.01V70.25ZM473.021 76.5024V76.6357C473.021 77.1436 472.964 77.6112 472.85 78.0386C472.74 78.4618 472.57 78.8299 472.342 79.1431C472.118 79.4562 471.838 79.6995 471.504 79.873C471.174 80.0423 470.791 80.127 470.355 80.127C469.928 80.127 469.555 80.0465 469.238 79.8857C468.92 79.7249 468.654 79.4964 468.438 79.2002C468.226 78.904 468.055 78.5506 467.924 78.1401C467.793 77.7297 467.7 77.2769 467.645 76.7817V76.3564C467.7 75.8571 467.793 75.4043 467.924 74.998C468.055 74.5876 468.226 74.2342 468.438 73.938C468.654 73.6375 468.918 73.4069 469.231 73.2461C469.549 73.0853 469.919 73.0049 470.342 73.0049C470.782 73.0049 471.17 73.0895 471.504 73.2588C471.842 73.4281 472.124 73.6693 472.348 73.9824C472.572 74.2913 472.74 74.6595 472.85 75.0869C472.964 75.5143 473.021 75.9862 473.021 76.5024ZM471.491 76.6357V76.5024C471.491 76.1935 471.466 75.9036 471.415 75.6328C471.364 75.3577 471.28 75.1165 471.161 74.9092C471.047 74.7018 470.89 74.5389 470.691 74.4204C470.497 74.2977 470.253 74.2363 469.961 74.2363C469.691 74.2363 469.458 74.2829 469.263 74.376C469.069 74.4691 468.906 74.596 468.774 74.7568C468.643 74.9176 468.54 75.1038 468.463 75.3154C468.391 75.527 468.343 75.7555 468.317 76.001V77.1499C468.355 77.4673 468.436 77.7593 468.559 78.0259C468.686 78.2882 468.863 78.4998 469.092 78.6606C469.32 78.8172 469.614 78.8955 469.974 78.8955C470.258 78.8955 470.497 78.8384 470.691 78.7241C470.886 78.6099 471.041 78.4512 471.155 78.248C471.273 78.0407 471.358 77.7995 471.409 77.5244C471.464 77.2493 471.491 76.9531 471.491 76.6357ZM477.344 80.127C476.836 80.127 476.377 80.0444 475.966 79.8794C475.56 79.7101 475.213 79.4753 474.925 79.1748C474.642 78.8743 474.424 78.521 474.271 78.1147C474.119 77.7085 474.043 77.2705 474.043 76.8008V76.5469C474.043 76.0094 474.121 75.5228 474.278 75.0869C474.434 74.651 474.652 74.2786 474.932 73.9697C475.211 73.6566 475.541 73.4175 475.922 73.2524C476.303 73.0874 476.715 73.0049 477.16 73.0049C477.651 73.0049 478.08 73.0874 478.448 73.2524C478.816 73.4175 479.121 73.6502 479.362 73.9507C479.608 74.2469 479.79 74.6003 479.908 75.0107C480.031 75.4212 480.092 75.874 480.092 76.3691V77.0229H474.786V75.9248H478.582V75.8042C478.573 75.5291 478.518 75.271 478.417 75.0298C478.319 74.7886 478.169 74.5939 477.966 74.4458C477.763 74.2977 477.492 74.2236 477.153 74.2236C476.899 74.2236 476.673 74.2786 476.474 74.3887C476.279 74.4945 476.117 74.6489 475.985 74.8521C475.854 75.0552 475.753 75.3006 475.681 75.5884C475.613 75.8719 475.579 76.1914 475.579 76.5469V76.8008C475.579 77.1012 475.619 77.3805 475.7 77.6387C475.784 77.8926 475.907 78.1147 476.068 78.3052C476.229 78.4956 476.423 78.6458 476.652 78.7559C476.88 78.8617 477.141 78.9146 477.433 78.9146C477.801 78.9146 478.129 78.8405 478.417 78.6924C478.704 78.5443 478.954 78.3348 479.166 78.064L479.972 78.8447C479.824 79.0605 479.631 79.2679 479.394 79.4668C479.157 79.6615 478.867 79.8201 478.524 79.9429C478.186 80.0656 477.792 80.127 477.344 80.127ZM482.923 70.25V80H481.387V70.25H482.923Z" fill="#184291"/>
<rect x="444.5" y="64.5" width="47" height="23" rx="11.5" stroke="#184291"/>
<path d="M259.909 49.9858C259.909 49.8247 259.884 49.6815 259.834 49.5562C259.787 49.4308 259.703 49.3162 259.582 49.2124C259.46 49.1086 259.288 49.0083 259.066 48.9116C258.847 48.8114 258.568 48.7093 258.228 48.6055C257.856 48.4909 257.512 48.3638 257.197 48.2241C256.885 48.0809 256.613 47.9162 256.38 47.73C256.148 47.5402 255.967 47.3236 255.838 47.0801C255.709 46.833 255.645 46.5483 255.645 46.2261C255.645 45.9074 255.711 45.6174 255.843 45.356C255.979 45.0946 256.171 44.869 256.418 44.6792C256.669 44.4858 256.964 44.3372 257.304 44.2334C257.644 44.126 258.02 44.0723 258.432 44.0723C259.012 44.0723 259.512 44.1797 259.931 44.3945C260.353 44.6094 260.677 44.8976 260.903 45.2593C261.132 45.6209 261.247 46.0202 261.247 46.457H259.909C259.909 46.1992 259.854 45.9718 259.743 45.7749C259.635 45.5744 259.471 45.4168 259.249 45.3022C259.03 45.1877 258.753 45.1304 258.416 45.1304C258.097 45.1304 257.832 45.1787 257.621 45.2754C257.41 45.3721 257.252 45.5028 257.148 45.6675C257.045 45.8322 256.993 46.0184 256.993 46.2261C256.993 46.3729 257.027 46.5072 257.095 46.6289C257.163 46.7471 257.267 46.8581 257.406 46.9619C257.546 47.0622 257.721 47.1571 257.933 47.2466C258.144 47.3361 258.393 47.422 258.679 47.5044C259.112 47.6333 259.49 47.7765 259.812 47.9341C260.135 48.0881 260.403 48.2635 260.618 48.4604C260.833 48.6574 260.994 48.8812 261.102 49.1318C261.209 49.3789 261.263 49.66 261.263 49.9751C261.263 50.3045 261.196 50.6017 261.064 50.8667C260.931 51.1281 260.742 51.3519 260.495 51.5381C260.251 51.7207 259.958 51.8621 259.614 51.9624C259.274 52.0591 258.894 52.1074 258.475 52.1074C258.099 52.1074 257.729 52.0573 257.363 51.957C257.002 51.8568 256.672 51.7046 256.375 51.5005C256.078 51.2928 255.841 51.035 255.666 50.7271C255.491 50.4155 255.403 50.0521 255.403 49.6367H256.751C256.751 49.891 256.794 50.1076 256.88 50.2866C256.969 50.4657 257.093 50.6125 257.25 50.7271C257.408 50.8381 257.591 50.9204 257.798 50.9741C258.01 51.0278 258.235 51.0547 258.475 51.0547C258.79 51.0547 259.053 51.0099 259.265 50.9204C259.479 50.8309 259.641 50.7056 259.748 50.5444C259.855 50.3833 259.909 50.1971 259.909 49.9858ZM265.872 44.1797V52H264.535V44.1797H265.872ZM268.327 44.1797V45.2539H262.102V44.1797H268.327ZM269.558 44.1797H272.324C272.919 44.1797 273.425 44.2692 273.844 44.4482C274.263 44.6273 274.584 44.8923 274.806 45.2432C275.031 45.5905 275.144 46.0202 275.144 46.5322C275.144 46.9225 275.073 47.2663 274.929 47.5635C274.786 47.8607 274.584 48.1113 274.322 48.3154C274.061 48.516 273.749 48.6717 273.388 48.7827L272.98 48.9814H270.493L270.482 47.9126H272.346C272.668 47.9126 272.937 47.8553 273.151 47.7407C273.366 47.6261 273.527 47.4704 273.635 47.2734C273.746 47.0729 273.801 46.8473 273.801 46.5967C273.801 46.3245 273.748 46.0882 273.64 45.8877C273.536 45.6836 273.375 45.5278 273.157 45.4204C272.938 45.3094 272.661 45.2539 272.324 45.2539H270.906V52H269.558V44.1797ZM274.022 52L272.185 48.4873L273.597 48.4819L275.461 51.9302V52H274.022ZM281.075 44.1797H282.418V49.4058C282.418 50.0002 282.289 50.4979 282.031 50.8989C281.773 51.3 281.422 51.6025 280.978 51.8066C280.538 52.0072 280.046 52.1074 279.501 52.1074C278.939 52.1074 278.438 52.0072 277.997 51.8066C277.557 51.6025 277.21 51.3 276.955 50.8989C276.705 50.4979 276.579 50.0002 276.579 49.4058V44.1797H277.922V49.4058C277.922 49.7817 277.987 50.0915 278.116 50.335C278.245 50.5749 278.427 50.7521 278.663 50.8667C278.9 50.9813 279.179 51.0386 279.501 51.0386C279.824 51.0386 280.101 50.9813 280.334 50.8667C280.57 50.7521 280.753 50.5749 280.882 50.335C281.011 50.0915 281.075 49.7817 281.075 49.4058V44.1797ZM288.703 49.4541H290.046C290.003 49.9661 289.86 50.4227 289.616 50.8237C289.373 51.2212 289.031 51.5345 288.591 51.7637C288.15 51.9928 287.615 52.1074 286.985 52.1074C286.501 52.1074 286.066 52.0215 285.679 51.8496C285.293 51.6742 284.961 51.4271 284.686 51.1084C284.41 50.7861 284.199 50.3976 284.052 49.9429C283.909 49.4881 283.837 48.9797 283.837 48.4175V47.7676C283.837 47.2054 283.911 46.6969 284.057 46.2422C284.208 45.7874 284.423 45.3989 284.702 45.0767C284.981 44.7508 285.316 44.502 285.706 44.3301C286.1 44.1582 286.542 44.0723 287.033 44.0723C287.656 44.0723 288.182 44.1868 288.612 44.416C289.042 44.6452 289.375 44.9621 289.611 45.3667C289.851 45.7713 289.998 46.235 290.051 46.7578H288.709C288.673 46.4212 288.594 46.133 288.472 45.8931C288.354 45.6532 288.179 45.4705 287.946 45.3452C287.713 45.2163 287.409 45.1519 287.033 45.1519C286.725 45.1519 286.456 45.2091 286.227 45.3237C285.998 45.4383 285.807 45.6066 285.653 45.8286C285.499 46.0506 285.382 46.3245 285.303 46.6504C285.228 46.9727 285.191 47.3415 285.191 47.7568V48.4175C285.191 48.8114 285.225 49.1694 285.293 49.4917C285.364 49.8104 285.472 50.0843 285.615 50.3135C285.762 50.5426 285.948 50.7199 286.174 50.8452C286.399 50.9705 286.669 51.0332 286.985 51.0332C287.368 51.0332 287.677 50.9723 287.914 50.8506C288.154 50.7288 288.335 50.5516 288.456 50.3188C288.582 50.0825 288.664 49.7943 288.703 49.4541ZM294.527 44.1797V52H293.189V44.1797H294.527ZM296.981 44.1797V45.2539H290.756V44.1797H296.981ZM302.601 44.1797H303.944V49.4058C303.944 50.0002 303.815 50.4979 303.557 50.8989C303.299 51.3 302.948 51.6025 302.504 51.8066C302.064 52.0072 301.571 52.1074 301.027 52.1074C300.465 52.1074 299.964 52.0072 299.523 51.8066C299.083 51.6025 298.735 51.3 298.481 50.8989C298.231 50.4979 298.105 50.0002 298.105 49.4058V44.1797H299.448V49.4058C299.448 49.7817 299.513 50.0915 299.641 50.335C299.77 50.5749 299.953 50.7521 300.189 50.8667C300.426 50.9813 300.705 51.0386 301.027 51.0386C301.349 51.0386 301.627 50.9813 301.86 50.8667C302.096 50.7521 302.279 50.5749 302.408 50.335C302.536 50.0915 302.601 49.7817 302.601 49.4058V44.1797ZM305.61 44.1797H308.376C308.97 44.1797 309.477 44.2692 309.896 44.4482C310.315 44.6273 310.636 44.8923 310.858 45.2432C311.083 45.5905 311.196 46.0202 311.196 46.5322C311.196 46.9225 311.124 47.2663 310.981 47.5635C310.838 47.8607 310.636 48.1113 310.374 48.3154C310.113 48.516 309.801 48.6717 309.44 48.7827L309.031 48.9814H306.545L306.534 47.9126H308.398C308.72 47.9126 308.988 47.8553 309.203 47.7407C309.418 47.6261 309.579 47.4704 309.687 47.2734C309.798 47.0729 309.853 46.8473 309.853 46.5967C309.853 46.3245 309.799 46.0882 309.692 45.8877C309.588 45.6836 309.427 45.5278 309.209 45.4204C308.99 45.3094 308.713 45.2539 308.376 45.2539H306.958V52H305.61V44.1797ZM310.073 52L308.236 48.4873L309.649 48.4819L311.513 51.9302V52H310.073ZM317.857 50.9312V52H313.705V50.9312H317.857ZM314.087 44.1797V52H312.739V44.1797H314.087ZM317.315 47.4453V48.498H313.705V47.4453H317.315ZM317.83 44.1797V45.2539H313.705V44.1797H317.83ZM321.43 52H319.76L319.771 50.9312H321.43C321.914 50.9312 322.318 50.8255 322.644 50.6143C322.974 50.403 323.221 50.1004 323.385 49.7065C323.554 49.3127 323.638 48.8436 323.638 48.2993V47.875C323.638 47.4525 323.59 47.0783 323.493 46.7524C323.4 46.4266 323.26 46.1527 323.074 45.9307C322.891 45.7087 322.666 45.5404 322.397 45.4258C322.132 45.3112 321.826 45.2539 321.479 45.2539H319.728V44.1797H321.479C321.998 44.1797 322.472 44.2674 322.902 44.4429C323.332 44.6147 323.702 44.8636 324.014 45.1895C324.329 45.5153 324.571 45.9056 324.739 46.3604C324.907 46.8151 324.991 47.3236 324.991 47.8857V48.2993C324.991 48.8615 324.907 49.37 324.739 49.8247C324.571 50.2795 324.329 50.6698 324.014 50.9956C323.699 51.3179 323.323 51.5667 322.886 51.7422C322.453 51.9141 321.967 52 321.43 52ZM320.507 44.1797V52H319.158V44.1797H320.507ZM332.417 48.4658H330.424L330.413 47.4829H332.154C332.447 47.4829 332.696 47.4399 332.9 47.354C333.108 47.2645 333.265 47.1374 333.373 46.9727C333.48 46.8044 333.534 46.6021 333.534 46.3657C333.534 46.1043 333.484 45.8913 333.384 45.7266C333.283 45.5618 333.129 45.4419 332.922 45.3667C332.718 45.2915 332.456 45.2539 332.137 45.2539H330.832V52H329.484V44.1797H332.137C332.567 44.1797 332.95 44.2209 333.287 44.3032C333.627 44.3856 333.915 44.5145 334.152 44.6899C334.392 44.8618 334.572 45.0802 334.694 45.3452C334.819 45.6102 334.882 45.9253 334.882 46.2905C334.882 46.6128 334.805 46.9082 334.651 47.1768C334.497 47.4417 334.27 47.6584 333.969 47.8267C333.668 47.995 333.294 48.0952 332.846 48.1274L332.417 48.4658ZM332.358 52H330L330.607 50.9312H332.358C332.662 50.9312 332.916 50.881 333.12 50.7808C333.325 50.6769 333.477 50.5355 333.577 50.3564C333.681 50.1738 333.733 49.9608 333.733 49.7173C333.733 49.4631 333.688 49.2428 333.598 49.0566C333.509 48.8669 333.367 48.7218 333.174 48.6216C332.981 48.5177 332.728 48.4658 332.417 48.4658H330.902L330.913 47.4829H332.884L333.19 47.8535C333.62 47.8678 333.973 47.9627 334.248 48.1382C334.528 48.3136 334.735 48.541 334.871 48.8203C335.007 49.0996 335.075 49.4004 335.075 49.7227C335.075 50.2204 334.966 50.6375 334.748 50.9741C334.533 51.3107 334.223 51.5667 333.819 51.7422C333.414 51.9141 332.927 52 332.358 52ZM341.533 50.9312V52H337.607V50.9312H341.533ZM337.983 44.1797V52H336.634V44.1797H337.983ZM345.928 45.2217L343.591 52H342.179L345.122 44.1797H346.024L345.928 45.2217ZM347.883 52L345.541 45.2217L345.439 44.1797H346.347L349.301 52H347.883ZM347.77 49.0996V50.1685H343.516V49.0996H347.77ZM354.909 49.4541H356.252C356.209 49.9661 356.066 50.4227 355.822 50.8237C355.579 51.2212 355.237 51.5345 354.797 51.7637C354.356 51.9928 353.821 52.1074 353.191 52.1074C352.707 52.1074 352.272 52.0215 351.885 51.8496C351.499 51.6742 351.168 51.4271 350.892 51.1084C350.616 50.7861 350.405 50.3976 350.258 49.9429C350.115 49.4881 350.043 48.9797 350.043 48.4175V47.7676C350.043 47.2054 350.117 46.6969 350.263 46.2422C350.414 45.7874 350.629 45.3989 350.908 45.0767C351.187 44.7508 351.522 44.502 351.912 44.3301C352.306 44.1582 352.748 44.0723 353.239 44.0723C353.862 44.0723 354.388 44.1868 354.818 44.416C355.248 44.6452 355.581 44.9621 355.817 45.3667C356.057 45.7713 356.204 46.235 356.258 46.7578H354.915C354.879 46.4212 354.8 46.133 354.678 45.8931C354.56 45.6532 354.385 45.4705 354.152 45.3452C353.919 45.2163 353.615 45.1519 353.239 45.1519C352.931 45.1519 352.662 45.2091 352.433 45.3237C352.204 45.4383 352.013 45.6066 351.859 45.8286C351.705 46.0506 351.588 46.3245 351.509 46.6504C351.434 46.9727 351.397 47.3415 351.397 47.7568V48.4175C351.397 48.8114 351.431 49.1694 351.499 49.4917C351.57 49.8104 351.678 50.0843 351.821 50.3135C351.968 50.5426 352.154 50.7199 352.38 50.8452C352.605 50.9705 352.876 51.0332 353.191 51.0332C353.574 51.0332 353.883 50.9723 354.12 50.8506C354.36 50.7288 354.541 50.5516 354.662 50.3188C354.788 50.0825 354.87 49.7943 354.909 49.4541ZM359.025 44.1797V52H357.677V44.1797H359.025ZM363.725 44.1797L360.556 47.9448L358.751 49.8569L358.515 48.5195L359.804 46.9297L362.081 44.1797H363.725ZM362.274 52L359.702 48.2939L360.631 47.3755L363.875 52H362.274Z" fill="#AAAAAA"/>
<path d="M448.909 49.9858C448.909 49.8247 448.884 49.6815 448.834 49.5562C448.787 49.4308 448.703 49.3162 448.582 49.2124C448.46 49.1086 448.288 49.0083 448.066 48.9116C447.847 48.8114 447.568 48.7093 447.228 48.6055C446.856 48.4909 446.512 48.3638 446.197 48.2241C445.885 48.0809 445.613 47.9162 445.38 47.73C445.148 47.5402 444.967 47.3236 444.838 47.0801C444.709 46.833 444.645 46.5483 444.645 46.2261C444.645 45.9074 444.711 45.6174 444.843 45.356C444.979 45.0946 445.171 44.869 445.418 44.6792C445.669 44.4858 445.964 44.3372 446.304 44.2334C446.644 44.126 447.02 44.0723 447.432 44.0723C448.012 44.0723 448.512 44.1797 448.931 44.3945C449.353 44.6094 449.677 44.8976 449.903 45.2593C450.132 45.6209 450.247 46.0202 450.247 46.457H448.909C448.909 46.1992 448.854 45.9718 448.743 45.7749C448.635 45.5744 448.471 45.4168 448.249 45.3022C448.03 45.1877 447.753 45.1304 447.416 45.1304C447.097 45.1304 446.832 45.1787 446.621 45.2754C446.41 45.3721 446.252 45.5028 446.148 45.6675C446.045 45.8322 445.993 46.0184 445.993 46.2261C445.993 46.3729 446.027 46.5072 446.095 46.6289C446.163 46.7471 446.267 46.8581 446.406 46.9619C446.546 47.0622 446.721 47.1571 446.933 47.2466C447.144 47.3361 447.393 47.422 447.679 47.5044C448.112 47.6333 448.49 47.7765 448.812 47.9341C449.135 48.0881 449.403 48.2635 449.618 48.4604C449.833 48.6574 449.994 48.8812 450.102 49.1318C450.209 49.3789 450.263 49.66 450.263 49.9751C450.263 50.3045 450.196 50.6017 450.064 50.8667C449.931 51.1281 449.742 51.3519 449.495 51.5381C449.251 51.7207 448.958 51.8621 448.614 51.9624C448.274 52.0591 447.894 52.1074 447.475 52.1074C447.099 52.1074 446.729 52.0573 446.363 51.957C446.002 51.8568 445.672 51.7046 445.375 51.5005C445.078 51.2928 444.841 51.035 444.666 50.7271C444.491 50.4155 444.403 50.0521 444.403 49.6367H445.751C445.751 49.891 445.794 50.1076 445.88 50.2866C445.969 50.4657 446.093 50.6125 446.25 50.7271C446.408 50.8381 446.591 50.9204 446.798 50.9741C447.01 51.0278 447.235 51.0547 447.475 51.0547C447.79 51.0547 448.053 51.0099 448.265 50.9204C448.479 50.8309 448.641 50.7056 448.748 50.5444C448.855 50.3833 448.909 50.1971 448.909 49.9858ZM454.872 44.1797V52H453.535V44.1797H454.872ZM457.327 44.1797V45.2539H451.102V44.1797H457.327ZM458.558 44.1797H461.324C461.919 44.1797 462.425 44.2692 462.844 44.4482C463.263 44.6273 463.584 44.8923 463.806 45.2432C464.031 45.5905 464.144 46.0202 464.144 46.5322C464.144 46.9225 464.073 47.2663 463.929 47.5635C463.786 47.8607 463.584 48.1113 463.322 48.3154C463.061 48.516 462.749 48.6717 462.388 48.7827L461.98 48.9814H459.493L459.482 47.9126H461.346C461.668 47.9126 461.937 47.8553 462.151 47.7407C462.366 47.6261 462.527 47.4704 462.635 47.2734C462.746 47.0729 462.801 46.8473 462.801 46.5967C462.801 46.3245 462.748 46.0882 462.64 45.8877C462.536 45.6836 462.375 45.5278 462.157 45.4204C461.938 45.3094 461.661 45.2539 461.324 45.2539H459.906V52H458.558V44.1797ZM463.022 52L461.185 48.4873L462.597 48.4819L464.461 51.9302V52H463.022ZM470.075 44.1797H471.418V49.4058C471.418 50.0002 471.289 50.4979 471.031 50.8989C470.773 51.3 470.422 51.6025 469.978 51.8066C469.538 52.0072 469.046 52.1074 468.501 52.1074C467.939 52.1074 467.438 52.0072 466.997 51.8066C466.557 51.6025 466.21 51.3 465.955 50.8989C465.705 50.4979 465.579 50.0002 465.579 49.4058V44.1797H466.922V49.4058C466.922 49.7817 466.987 50.0915 467.116 50.335C467.245 50.5749 467.427 50.7521 467.663 50.8667C467.9 50.9813 468.179 51.0386 468.501 51.0386C468.824 51.0386 469.101 50.9813 469.334 50.8667C469.57 50.7521 469.753 50.5749 469.882 50.335C470.011 50.0915 470.075 49.7817 470.075 49.4058V44.1797ZM477.703 49.4541H479.046C479.003 49.9661 478.86 50.4227 478.616 50.8237C478.373 51.2212 478.031 51.5345 477.591 51.7637C477.15 51.9928 476.615 52.1074 475.985 52.1074C475.501 52.1074 475.066 52.0215 474.679 51.8496C474.293 51.6742 473.961 51.4271 473.686 51.1084C473.41 50.7861 473.199 50.3976 473.052 49.9429C472.909 49.4881 472.837 48.9797 472.837 48.4175V47.7676C472.837 47.2054 472.911 46.6969 473.057 46.2422C473.208 45.7874 473.423 45.3989 473.702 45.0767C473.981 44.7508 474.316 44.502 474.706 44.3301C475.1 44.1582 475.542 44.0723 476.033 44.0723C476.656 44.0723 477.182 44.1868 477.612 44.416C478.042 44.6452 478.375 44.9621 478.611 45.3667C478.851 45.7713 478.998 46.235 479.051 46.7578H477.709C477.673 46.4212 477.594 46.133 477.472 45.8931C477.354 45.6532 477.179 45.4705 476.946 45.3452C476.713 45.2163 476.409 45.1519 476.033 45.1519C475.725 45.1519 475.456 45.2091 475.227 45.3237C474.998 45.4383 474.807 45.6066 474.653 45.8286C474.499 46.0506 474.382 46.3245 474.303 46.6504C474.228 46.9727 474.191 47.3415 474.191 47.7568V48.4175C474.191 48.8114 474.225 49.1694 474.293 49.4917C474.364 49.8104 474.472 50.0843 474.615 50.3135C474.762 50.5426 474.948 50.7199 475.174 50.8452C475.399 50.9705 475.669 51.0332 475.985 51.0332C476.368 51.0332 476.677 50.9723 476.914 50.8506C477.154 50.7288 477.335 50.5516 477.456 50.3188C477.582 50.0825 477.664 49.7943 477.703 49.4541ZM483.527 44.1797V52H482.189V44.1797H483.527ZM485.981 44.1797V45.2539H479.756V44.1797H485.981ZM491.601 44.1797H492.944V49.4058C492.944 50.0002 492.815 50.4979 492.557 50.8989C492.299 51.3 491.948 51.6025 491.504 51.8066C491.064 52.0072 490.571 52.1074 490.027 52.1074C489.465 52.1074 488.964 52.0072 488.523 51.8066C488.083 51.6025 487.735 51.3 487.481 50.8989C487.231 50.4979 487.105 50.0002 487.105 49.4058V44.1797H488.448V49.4058C488.448 49.7817 488.513 50.0915 488.641 50.335C488.77 50.5749 488.953 50.7521 489.189 50.8667C489.426 50.9813 489.705 51.0386 490.027 51.0386C490.349 51.0386 490.627 50.9813 490.86 50.8667C491.096 50.7521 491.279 50.5749 491.408 50.335C491.536 50.0915 491.601 49.7817 491.601 49.4058V44.1797ZM494.61 44.1797H497.376C497.97 44.1797 498.477 44.2692 498.896 44.4482C499.315 44.6273 499.636 44.8923 499.858 45.2432C500.083 45.5905 500.196 46.0202 500.196 46.5322C500.196 46.9225 500.124 47.2663 499.981 47.5635C499.838 47.8607 499.636 48.1113 499.374 48.3154C499.113 48.516 498.801 48.6717 498.44 48.7827L498.031 48.9814H495.545L495.534 47.9126H497.398C497.72 47.9126 497.988 47.8553 498.203 47.7407C498.418 47.6261 498.579 47.4704 498.687 47.2734C498.798 47.0729 498.853 46.8473 498.853 46.5967C498.853 46.3245 498.799 46.0882 498.692 45.8877C498.588 45.6836 498.427 45.5278 498.209 45.4204C497.99 45.3094 497.713 45.2539 497.376 45.2539H495.958V52H494.61V44.1797ZM499.073 52L497.236 48.4873L498.649 48.4819L500.513 51.9302V52H499.073ZM506.857 50.9312V52H502.705V50.9312H506.857ZM503.087 44.1797V52H501.739V44.1797H503.087ZM506.315 47.4453V48.498H502.705V47.4453H506.315ZM506.83 44.1797V45.2539H502.705V44.1797H506.83ZM510.43 52H508.76L508.771 50.9312H510.43C510.914 50.9312 511.318 50.8255 511.644 50.6143C511.974 50.403 512.221 50.1004 512.385 49.7065C512.554 49.3127 512.638 48.8436 512.638 48.2993V47.875C512.638 47.4525 512.59 47.0783 512.493 46.7524C512.4 46.4266 512.26 46.1527 512.074 45.9307C511.891 45.7087 511.666 45.5404 511.397 45.4258C511.132 45.3112 510.826 45.2539 510.479 45.2539H508.728V44.1797H510.479C510.998 44.1797 511.472 44.2674 511.902 44.4429C512.332 44.6147 512.702 44.8636 513.014 45.1895C513.329 45.5153 513.571 45.9056 513.739 46.3604C513.907 46.8151 513.991 47.3236 513.991 47.8857V48.2993C513.991 48.8615 513.907 49.37 513.739 49.8247C513.571 50.2795 513.329 50.6698 513.014 50.9956C512.699 51.3179 512.323 51.5667 511.886 51.7422C511.453 51.9141 510.967 52 510.43 52ZM509.507 44.1797V52H508.158V44.1797H509.507ZM521.417 48.4658H519.424L519.413 47.4829H521.154C521.447 47.4829 521.696 47.4399 521.9 47.354C522.108 47.2645 522.265 47.1374 522.373 46.9727C522.48 46.8044 522.534 46.6021 522.534 46.3657C522.534 46.1043 522.484 45.8913 522.384 45.7266C522.283 45.5618 522.129 45.4419 521.922 45.3667C521.718 45.2915 521.456 45.2539 521.137 45.2539H519.832V52H518.484V44.1797H521.137C521.567 44.1797 521.95 44.2209 522.287 44.3032C522.627 44.3856 522.915 44.5145 523.152 44.6899C523.392 44.8618 523.572 45.0802 523.694 45.3452C523.819 45.6102 523.882 45.9253 523.882 46.2905C523.882 46.6128 523.805 46.9082 523.651 47.1768C523.497 47.4417 523.27 47.6584 522.969 47.8267C522.668 47.995 522.294 48.0952 521.846 48.1274L521.417 48.4658ZM521.358 52H519L519.607 50.9312H521.358C521.662 50.9312 521.916 50.881 522.12 50.7808C522.325 50.6769 522.477 50.5355 522.577 50.3564C522.681 50.1738 522.733 49.9608 522.733 49.7173C522.733 49.4631 522.688 49.2428 522.598 49.0566C522.509 48.8669 522.367 48.7218 522.174 48.6216C521.981 48.5177 521.728 48.4658 521.417 48.4658H519.902L519.913 47.4829H521.884L522.19 47.8535C522.62 47.8678 522.973 47.9627 523.248 48.1382C523.528 48.3136 523.735 48.541 523.871 48.8203C524.007 49.0996 524.075 49.4004 524.075 49.7227C524.075 50.2204 523.966 50.6375 523.748 50.9741C523.533 51.3107 523.223 51.5667 522.819 51.7422C522.414 51.9141 521.927 52 521.358 52ZM530.533 50.9312V52H526.607V50.9312H530.533ZM526.983 44.1797V52H525.634V44.1797H526.983ZM535.937 44.1797H537.28V49.4058C537.28 50.0002 537.151 50.4979 536.893 50.8989C536.636 51.3 536.285 51.6025 535.841 51.8066C535.4 52.0072 534.908 52.1074 534.364 52.1074C533.801 52.1074 533.3 52.0072 532.86 51.8066C532.419 51.6025 532.072 51.3 531.818 50.8989C531.567 50.4979 531.442 50.0002 531.442 49.4058V44.1797H532.785V49.4058C532.785 49.7817 532.849 50.0915 532.978 50.335C533.107 50.5749 533.289 50.7521 533.526 50.8667C533.762 50.9813 534.041 51.0386 534.364 51.0386C534.686 51.0386 534.963 50.9813 535.196 50.8667C535.433 50.7521 535.615 50.5749 535.744 50.335C535.873 50.0915 535.937 49.7817 535.937 49.4058V44.1797ZM544.065 50.9312V52H539.913V50.9312H544.065ZM540.295 44.1797V52H538.946V44.1797H540.295ZM543.523 47.4453V48.498H539.913V47.4453H543.523ZM544.038 44.1797V45.2539H539.913V44.1797H544.038Z" fill="#AAAAAA"/>
</svg>
