<svg width="800" height="128" viewBox="0 0 800 128" fill="none" xmlns="http://www.w3.org/2000/svg">
<rect width="800" height="128" rx="4" fill="#333333"/>
<rect x="373" y="52" width="48" height="24" rx="12" fill="white"/>
<path d="M387.917 66.7368V68H383.276V66.7368H387.917ZM383.721 58.7578V68H382.127V58.7578H383.721ZM392.868 66.6226V63.3472C392.868 63.1017 392.823 62.8901 392.734 62.7124C392.646 62.5347 392.51 62.3971 392.328 62.2998C392.15 62.2025 391.926 62.1538 391.655 62.1538C391.406 62.1538 391.19 62.1961 391.008 62.2808C390.826 62.3654 390.684 62.4797 390.583 62.6235C390.481 62.7674 390.43 62.9303 390.43 63.1123H388.907C388.907 62.8415 388.972 62.5791 389.104 62.3252C389.235 62.0713 389.425 61.8449 389.675 61.646C389.924 61.4471 390.223 61.2905 390.57 61.1763C390.917 61.062 391.306 61.0049 391.738 61.0049C392.254 61.0049 392.711 61.0916 393.109 61.2651C393.511 61.4386 393.826 61.701 394.055 62.0522C394.287 62.3993 394.404 62.8351 394.404 63.3599V66.4131C394.404 66.7262 394.425 67.0076 394.467 67.2573C394.514 67.5028 394.579 67.7165 394.664 67.8984V68H393.096C393.024 67.835 392.967 67.6255 392.925 67.3716C392.887 67.1134 392.868 66.8638 392.868 66.6226ZM393.09 63.8232L393.103 64.769H392.004C391.721 64.769 391.471 64.7965 391.255 64.8516C391.04 64.9023 390.86 64.9785 390.716 65.0801C390.572 65.1816 390.464 65.3044 390.392 65.4482C390.32 65.5921 390.284 65.755 390.284 65.937C390.284 66.119 390.326 66.2861 390.411 66.4385C390.496 66.5866 390.618 66.703 390.779 66.7876C390.944 66.8722 391.143 66.9146 391.376 66.9146C391.689 66.9146 391.962 66.8511 392.195 66.7241C392.432 66.5929 392.618 66.4342 392.753 66.248C392.889 66.0576 392.961 65.8778 392.969 65.7085L393.464 66.3877C393.414 66.5612 393.327 66.7474 393.204 66.9463C393.081 67.1452 392.921 67.3356 392.722 67.5176C392.527 67.6953 392.292 67.8413 392.017 67.9556C391.746 68.0698 391.433 68.127 391.078 68.127C390.629 68.127 390.229 68.0381 389.878 67.8604C389.527 67.6784 389.252 67.4351 389.053 67.1304C388.854 66.8215 388.754 66.4723 388.754 66.083C388.754 65.7191 388.822 65.3975 388.958 65.1182C389.097 64.8346 389.3 64.5977 389.567 64.4072C389.838 64.2168 390.168 64.0729 390.557 63.9756C390.946 63.874 391.391 63.8232 391.89 63.8232H393.09ZM396.01 58.25H397.54V66.5337L397.394 68H396.01V58.25ZM402.021 64.5024V64.6357C402.021 65.1436 401.964 65.6112 401.85 66.0386C401.74 66.4618 401.57 66.8299 401.342 67.1431C401.118 67.4562 400.838 67.6995 400.504 67.873C400.174 68.0423 399.791 68.127 399.355 68.127C398.928 68.127 398.555 68.0465 398.238 67.8857C397.92 67.7249 397.654 67.4964 397.438 67.2002C397.226 66.904 397.055 66.5506 396.924 66.1401C396.793 65.7297 396.7 65.2769 396.645 64.7817V64.3564C396.7 63.8571 396.793 63.4043 396.924 62.998C397.055 62.5876 397.226 62.2342 397.438 61.938C397.654 61.6375 397.918 61.4069 398.231 61.2461C398.549 61.0853 398.919 61.0049 399.342 61.0049C399.782 61.0049 400.17 61.0895 400.504 61.2588C400.842 61.4281 401.124 61.6693 401.348 61.9824C401.572 62.2913 401.74 62.6595 401.85 63.0869C401.964 63.5143 402.021 63.9862 402.021 64.5024ZM400.491 64.6357V64.5024C400.491 64.1935 400.466 63.9036 400.415 63.6328C400.364 63.3577 400.28 63.1165 400.161 62.9092C400.047 62.7018 399.89 62.5389 399.691 62.4204C399.497 62.2977 399.253 62.2363 398.961 62.2363C398.691 62.2363 398.458 62.2829 398.263 62.376C398.069 62.4691 397.906 62.596 397.774 62.7568C397.643 62.9176 397.54 63.1038 397.463 63.3154C397.391 63.527 397.343 63.7555 397.317 64.001V65.1499C397.355 65.4673 397.436 65.7593 397.559 66.0259C397.686 66.2882 397.863 66.4998 398.092 66.6606C398.32 66.8172 398.614 66.8955 398.974 66.8955C399.258 66.8955 399.497 66.8384 399.691 66.7241C399.886 66.6099 400.041 66.4512 400.155 66.248C400.273 66.0407 400.358 65.7995 400.409 65.5244C400.464 65.2493 400.491 64.9531 400.491 64.6357ZM406.344 68.127C405.836 68.127 405.377 68.0444 404.966 67.8794C404.56 67.7101 404.213 67.4753 403.925 67.1748C403.642 66.8743 403.424 66.521 403.271 66.1147C403.119 65.7085 403.043 65.2705 403.043 64.8008V64.5469C403.043 64.0094 403.121 63.5228 403.278 63.0869C403.434 62.651 403.652 62.2786 403.932 61.9697C404.211 61.6566 404.541 61.4175 404.922 61.2524C405.303 61.0874 405.715 61.0049 406.16 61.0049C406.651 61.0049 407.08 61.0874 407.448 61.2524C407.816 61.4175 408.121 61.6502 408.362 61.9507C408.608 62.2469 408.79 62.6003 408.908 63.0107C409.031 63.4212 409.092 63.874 409.092 64.3691V65.0229H403.786V63.9248H407.582V63.8042C407.573 63.5291 407.518 63.271 407.417 63.0298C407.319 62.7886 407.169 62.5939 406.966 62.4458C406.763 62.2977 406.492 62.2236 406.153 62.2236C405.899 62.2236 405.673 62.2786 405.474 62.3887C405.279 62.4945 405.117 62.6489 404.985 62.8521C404.854 63.0552 404.753 63.3006 404.681 63.5884C404.613 63.8719 404.579 64.1914 404.579 64.5469V64.8008C404.579 65.1012 404.619 65.3805 404.7 65.6387C404.784 65.8926 404.907 66.1147 405.068 66.3052C405.229 66.4956 405.423 66.6458 405.652 66.7559C405.88 66.8617 406.141 66.9146 406.433 66.9146C406.801 66.9146 407.129 66.8405 407.417 66.6924C407.704 66.5443 407.954 66.3348 408.166 66.064L408.972 66.8447C408.824 67.0605 408.631 67.2679 408.394 67.4668C408.157 67.6615 407.867 67.8201 407.524 67.9429C407.186 68.0656 406.792 68.127 406.344 68.127ZM411.923 58.25V68H410.387V58.25H411.923Z" fill="#1A1A1A"/>
</svg>
