<svg width="620" height="275" viewBox="0 0 620 275" fill="none" xmlns="http://www.w3.org/2000/svg">
<rect x="0.5" y="0.5" width="619" height="274" rx="15.5" fill="#F8F8F8"/>
<rect x="232" y="103" width="162" height="56" rx="8" transform="rotate(5 232 103)" fill="white"/>
<path d="M263.997 127.381C263.925 128.207 263.197 128.817 262.372 128.745C261.546 128.673 260.936 127.945 261.008 127.12C261.08 126.295 261.808 125.684 262.633 125.756C263.458 125.828 264.069 126.556 263.997 127.381Z" fill="#AAAAAA"/>
<path d="M269.974 127.904C269.902 128.729 269.174 129.34 268.349 129.268C267.524 129.196 266.913 128.468 266.985 127.643C267.058 126.817 267.785 126.207 268.61 126.279C269.436 126.351 270.046 127.079 269.974 127.904Z" fill="#AAAAAA"/>
<path d="M269.407 134.379C269.335 135.205 268.608 135.815 267.782 135.743C266.957 135.671 266.347 134.943 266.419 134.118C266.491 133.293 267.219 132.682 268.044 132.754C268.869 132.827 269.48 133.554 269.407 134.379Z" fill="#AAAAAA"/>
<path d="M263.43 133.857C263.358 134.682 262.631 135.292 261.805 135.22C260.98 135.148 260.369 134.42 260.442 133.595C260.514 132.77 261.241 132.159 262.067 132.231C262.892 132.304 263.502 133.031 263.43 133.857Z" fill="#AAAAAA"/>
<path d="M262.864 140.332C262.792 141.157 262.064 141.768 261.239 141.695C260.413 141.623 259.803 140.896 259.875 140.07C259.947 139.245 260.675 138.635 261.5 138.707C262.325 138.779 262.936 139.507 262.864 140.332Z" fill="#AAAAAA"/>
<path d="M268.841 140.855C268.769 141.68 268.041 142.29 267.216 142.218C266.391 142.146 265.78 141.419 265.852 140.593C265.925 139.768 266.652 139.157 267.477 139.23C268.303 139.302 268.913 140.029 268.841 140.855Z" fill="#AAAAAA"/>
<path d="M290.647 132.557C290.735 131.549 291.587 130.799 292.55 130.883L303.01 131.799C303.972 131.883 304.682 132.769 304.594 133.777L303.955 141.083C303.867 142.09 303.013 142.841 302.052 142.757L291.592 141.842C290.629 141.757 289.92 140.87 290.008 139.863L290.647 132.557ZM291.955 132.672L291.899 133.302L296.245 137.754C296.763 138.289 297.575 138.36 298.179 137.923L303.231 134.294L303.289 133.637C303.308 133.412 303.132 133.164 302.893 133.143L292.433 132.228C292.192 132.206 291.977 132.421 291.957 132.646L291.955 132.672ZM291.744 135.075L291.315 139.977C291.294 140.228 291.471 140.451 291.711 140.472L302.171 141.387C302.411 141.408 302.625 141.22 302.647 140.969L303.076 136.066L298.917 139.055C297.792 139.862 296.289 139.731 295.297 138.738L291.744 135.075Z" fill="#1A1A1A"/>
<path d="M322.273 139.186L319.566 138.949L319.668 137.613L322.032 137.82C322.431 137.855 322.774 137.826 323.062 137.733C323.354 137.636 323.583 137.482 323.749 137.271C323.915 137.056 324.012 136.787 324.04 136.466C324.071 136.111 324.028 135.816 323.912 135.58C323.795 135.344 323.6 135.163 323.327 135.036C323.059 134.91 322.708 134.828 322.275 134.79L320.502 134.635L319.7 143.799L317.869 143.639L318.798 133.015L322.403 133.331C322.986 133.382 323.502 133.483 323.949 133.635C324.402 133.787 324.778 133.997 325.078 134.263C325.384 134.525 325.603 134.843 325.737 135.218C325.876 135.593 325.924 136.028 325.88 136.524C325.842 136.962 325.702 137.354 325.461 137.701C325.221 138.042 324.886 138.31 324.457 138.502C324.029 138.695 323.508 138.787 322.897 138.778L322.273 139.186ZM321.772 143.98L318.569 143.7L319.521 142.32L321.899 142.528C322.313 142.564 322.664 142.527 322.953 142.415C323.243 142.298 323.467 142.124 323.624 141.892C323.787 141.657 323.883 141.373 323.912 141.043C323.942 140.697 323.907 140.393 323.808 140.129C323.709 139.861 323.534 139.647 323.283 139.488C323.033 139.324 322.696 139.223 322.273 139.186L320.215 139.006L320.347 137.672L323.024 137.907L323.396 138.446C323.978 138.517 324.446 138.688 324.8 138.959C325.158 139.23 325.413 139.564 325.565 139.959C325.717 140.355 325.773 140.772 325.735 141.21C325.676 141.886 325.478 142.439 325.141 142.871C324.809 143.302 324.358 143.613 323.788 143.804C323.218 143.989 322.546 144.048 321.772 143.98ZM329.998 133.407L329.018 144.614L327.252 144.46L328.232 133.252L329.998 133.407ZM330.946 140.893L330.961 140.726C331.01 140.157 331.139 139.636 331.347 139.164C331.556 138.687 331.831 138.282 332.174 137.95C332.522 137.613 332.931 137.364 333.401 137.204C333.876 137.04 334.401 136.983 334.975 137.033C335.553 137.084 336.06 137.231 336.495 137.475C336.934 137.714 337.296 138.03 337.581 138.423C337.865 138.81 338.069 139.257 338.191 139.763C338.314 140.264 338.351 140.799 338.301 141.368L338.286 141.536C338.236 142.105 338.107 142.625 337.9 143.097C337.692 143.569 337.414 143.974 337.065 144.311C336.718 144.643 336.309 144.892 335.839 145.056C335.369 145.216 334.847 145.271 334.273 145.221C333.694 145.17 333.185 145.025 332.745 144.786C332.31 144.542 331.951 144.226 331.666 143.839C331.382 143.446 331.178 142.999 331.056 142.498C330.933 141.998 330.896 141.463 330.946 140.893ZM332.719 140.879L332.704 141.047C332.673 141.402 332.68 141.741 332.726 142.064C332.771 142.386 332.861 142.674 332.996 142.926C333.131 143.178 333.314 143.382 333.545 143.54C333.776 143.697 334.06 143.791 334.395 143.82C334.721 143.848 335.009 143.805 335.26 143.69C335.515 143.575 335.731 143.405 335.907 143.18C336.084 142.956 336.222 142.688 336.323 142.378C336.428 142.069 336.497 141.737 336.528 141.382L336.542 141.214C336.573 140.864 336.563 140.53 336.512 140.211C336.467 139.889 336.375 139.599 336.236 139.342C336.101 139.085 335.918 138.878 335.687 138.72C335.461 138.558 335.183 138.463 334.852 138.434C334.521 138.405 334.228 138.45 333.972 138.57C333.722 138.686 333.509 138.858 333.332 139.088C333.155 139.317 333.016 139.587 332.915 139.897C332.815 140.202 332.75 140.529 332.719 140.879ZM342.757 144.552C343.044 144.577 343.307 144.543 343.545 144.451C343.789 144.355 343.99 144.211 344.149 144.019C344.313 143.827 344.414 143.599 344.452 143.332L346.108 143.477C346.054 143.987 345.862 144.438 345.534 144.831C345.205 145.224 344.789 145.523 344.286 145.729C343.783 145.93 343.24 146.005 342.656 145.954C342.053 145.902 341.537 145.753 341.107 145.51C340.678 145.262 340.331 144.942 340.066 144.551C339.801 144.161 339.614 143.72 339.505 143.23C339.401 142.741 339.373 142.224 339.421 141.679L339.443 141.424C339.491 140.879 339.608 140.374 339.796 139.911C339.989 139.442 340.249 139.039 340.578 138.7C340.907 138.361 341.304 138.109 341.769 137.944C342.235 137.774 342.767 137.715 343.365 137.767C343.998 137.823 344.541 137.998 344.996 138.292C345.451 138.582 345.795 138.962 346.028 139.434C346.267 139.901 346.365 140.429 346.323 141.018L344.667 140.873C344.678 140.58 344.628 140.311 344.517 140.066C344.411 139.817 344.248 139.611 344.027 139.45C343.811 139.289 343.542 139.194 343.221 139.166C342.866 139.135 342.565 139.182 342.319 139.308C342.073 139.428 341.874 139.607 341.721 139.844C341.568 140.075 341.449 140.342 341.364 140.643C341.284 140.94 341.23 141.252 341.201 141.577L341.179 141.833C341.15 142.159 341.15 142.477 341.176 142.788C341.203 143.1 341.271 143.382 341.381 143.637C341.497 143.887 341.665 144.096 341.885 144.262C342.107 144.424 342.397 144.52 342.757 144.552ZM349.983 135.155L349.002 146.363L347.237 146.208L348.217 135.001L349.983 135.155ZM354.596 138.897L350.826 142.405L348.775 144.166L348.446 142.638L350.023 141.004L352.473 138.711L354.596 138.897ZM352.162 146.639L349.925 142.708L351.142 141.572L354.197 146.817L352.162 146.639ZM360.919 142.428L359.548 141.962L360.592 136.672L366.319 137.173L366.189 138.661L361.921 138.288L361.401 140.867C361.575 140.784 361.812 140.709 362.112 140.642C362.412 140.571 362.75 140.551 363.124 140.584C363.625 140.628 364.066 140.75 364.445 140.95C364.83 141.145 365.147 141.41 365.397 141.746C365.648 142.077 365.827 142.47 365.934 142.925C366.041 143.376 366.071 143.876 366.023 144.425C365.98 144.917 365.867 145.37 365.684 145.785C365.505 146.201 365.258 146.559 364.943 146.86C364.627 147.161 364.242 147.385 363.788 147.531C363.34 147.673 362.819 147.718 362.225 147.666C361.783 147.628 361.362 147.527 360.965 147.365C360.573 147.198 360.227 146.974 359.928 146.693C359.63 146.408 359.4 146.069 359.238 145.677C359.076 145.281 359.003 144.836 359.016 144.342L360.738 144.493C360.752 144.842 360.821 145.144 360.946 145.4C361.076 145.652 361.259 145.852 361.496 146C361.733 146.148 362.015 146.236 362.34 146.265C362.637 146.291 362.897 146.262 363.12 146.179C363.343 146.09 363.534 145.955 363.692 145.773C363.856 145.586 363.983 145.362 364.075 145.101C364.171 144.839 364.233 144.546 364.262 144.22C364.289 143.909 364.273 143.62 364.212 143.355C364.157 143.091 364.058 142.857 363.914 142.653C363.775 142.45 363.59 142.286 363.361 142.163C363.132 142.036 362.862 141.958 362.551 141.931C362.132 141.894 361.806 141.927 361.571 142.029C361.342 142.131 361.124 142.264 360.919 142.428Z" fill="#1A1A1A"/>
<rect x="230.182" y="100.833" width="166" height="60" rx="10" transform="rotate(5 230.182 100.833)" stroke="#1A1A1A" stroke-opacity="0.1" stroke-width="4"/>
<line x1="183" y1="172.5" x2="470" y2="172.5" stroke="#0059FF" stroke-dasharray="2 2"/>
<path d="M306 165.5L183 154.559" stroke="#0059FF" stroke-dasharray="2 2"/>
<path d="M326.659 186.042L325.252 185.697L325.831 180.336H331.581V181.83H327.296L327.003 184.445C327.169 184.347 327.398 184.252 327.691 184.159C327.984 184.062 328.319 184.013 328.695 184.013C329.198 184.013 329.647 184.096 330.042 184.262C330.443 184.423 330.782 184.66 331.061 184.972C331.339 185.28 331.551 185.656 331.698 186.1C331.844 186.54 331.917 187.035 331.917 187.587C331.917 188.08 331.844 188.542 331.698 188.971C331.556 189.401 331.341 189.779 331.053 190.106C330.765 190.434 330.401 190.69 329.962 190.875C329.527 191.056 329.012 191.146 328.417 191.146C327.972 191.146 327.545 191.083 327.135 190.956C326.729 190.824 326.366 190.631 326.043 190.377C325.721 190.119 325.462 189.801 325.267 189.425C325.072 189.044 324.959 188.607 324.93 188.114H326.659C326.703 188.461 326.798 188.756 326.944 189C327.096 189.24 327.296 189.423 327.545 189.55C327.794 189.677 328.082 189.74 328.409 189.74C328.707 189.74 328.963 189.689 329.178 189.586C329.393 189.479 329.571 189.328 329.713 189.132C329.859 188.932 329.967 188.698 330.035 188.429C330.108 188.161 330.145 187.863 330.145 187.536C330.145 187.223 330.104 186.938 330.021 186.679C329.942 186.42 329.823 186.195 329.662 186.005C329.505 185.814 329.308 185.668 329.068 185.565C328.829 185.458 328.553 185.404 328.241 185.404C327.821 185.404 327.499 185.465 327.274 185.587C327.054 185.709 326.849 185.861 326.659 186.042ZM333.47 182.145C333.47 181.789 333.558 181.461 333.734 181.164C333.91 180.866 334.144 180.629 334.437 180.453C334.735 180.272 335.057 180.182 335.404 180.182C335.755 180.182 336.075 180.272 336.363 180.453C336.651 180.629 336.881 180.866 337.052 181.164C337.228 181.461 337.315 181.789 337.315 182.145C337.315 182.501 337.228 182.829 337.052 183.126C336.881 183.419 336.651 183.651 336.363 183.822C336.075 183.993 335.755 184.079 335.404 184.079C335.057 184.079 334.735 183.993 334.437 183.822C334.144 183.651 333.91 183.419 333.734 183.126C333.558 182.829 333.47 182.501 333.47 182.145ZM334.459 182.145C334.459 182.409 334.552 182.631 334.737 182.812C334.923 182.987 335.145 183.075 335.404 183.075C335.663 183.075 335.88 182.987 336.056 182.812C336.231 182.636 336.319 182.414 336.319 182.145C336.319 181.872 336.231 181.645 336.056 181.464C335.88 181.283 335.663 181.193 335.404 181.193C335.145 181.193 334.923 181.283 334.737 181.464C334.552 181.645 334.459 181.872 334.459 182.145Z" fill="black"/>
<path d="M292.991 169.201C292.966 170.324 293.034 171.428 293.188 172.504L387 172.504L293.653 164.512C293.256 166.012 293.028 167.582 292.991 169.201Z" fill="#F45C59" fill-opacity="0.2" stroke="#0059FF" stroke-dasharray="2 2"/>
<rect x="0.5" y="0.5" width="619" height="274" rx="15.5" stroke="#E6E6E6"/>
</svg>
