<svg width="1524" height="680" viewBox="0 0 1524 680" fill="none" xmlns="http://www.w3.org/2000/svg">
<rect width="1524" height="680" rx="16" fill="#F2F2F2"/>
<path d="M292 56C292 47.1634 299.163 40 308 40H1276C1284.84 40 1292 47.1634 1292 56V80H292V56Z" fill="white"/>
<g filter="url(#filter0_d_7268_77959)">
<path d="M292 80H1292V624C1292 632.837 1284.84 640 1276 640H308C299.163 640 292 632.837 292 624V80Z" fill="#1A1A1A" fill-opacity="0.9" shape-rendering="crispEdges"/>
</g>
<g filter="url(#filter1_ddd_7268_77959)">
<rect x="552" y="236" width="480" height="248" rx="16" fill="white"/>
<path d="M596 274C590.477 274 586 278.477 586 284C586 289.523 590.477 294 596 294C601.523 294 606 289.523 606 284C606 278.477 601.523 274 596 274ZM596 279C596.69 279 597.25 279.56 597.25 280.25C597.25 280.94 596.69 281.5 596 281.5C595.31 281.5 594.75 280.941 594.75 280.25C594.75 279.559 595.309 279 596 279ZM597.562 289H594.438C593.922 289 593.5 288.582 593.5 288.062C593.5 287.543 593.92 287.125 594.438 287.125H595.062V284.625H594.75C594.232 284.625 593.812 284.205 593.812 283.688C593.812 283.17 594.234 282.75 594.75 282.75H596C596.518 282.75 596.938 283.17 596.938 283.688V287.125H597.562C598.08 287.125 598.5 287.545 598.5 288.062C598.5 288.58 598.082 289 597.562 289Z" fill="#286EF1"/>
<path d="M629.071 290H626.285L626.303 287.943H629.071C629.763 287.943 630.346 287.788 630.82 287.478C631.295 287.161 631.652 286.701 631.893 286.098C632.139 285.494 632.262 284.765 632.262 283.909V283.285C632.262 282.629 632.191 282.052 632.051 281.554C631.916 281.056 631.714 280.637 631.444 280.297C631.175 279.957 630.844 279.702 630.451 279.532C630.059 279.356 629.607 279.269 629.098 279.269H626.232V277.203H629.098C629.953 277.203 630.735 277.35 631.444 277.643C632.159 277.93 632.777 278.343 633.299 278.882C633.82 279.421 634.222 280.065 634.503 280.815C634.79 281.56 634.934 282.389 634.934 283.303V283.909C634.934 284.817 634.79 285.646 634.503 286.396C634.222 287.146 633.82 287.791 633.299 288.33C632.783 288.863 632.165 289.276 631.444 289.569C630.729 289.856 629.938 290 629.071 290ZM627.779 277.203V290H625.143V277.203H627.779ZM639.363 280.49V290H636.823V280.49H639.363ZM636.665 278.012C636.665 277.643 636.794 277.338 637.052 277.098C637.31 276.857 637.655 276.737 638.089 276.737C638.517 276.737 638.859 276.857 639.117 277.098C639.381 277.338 639.513 277.643 639.513 278.012C639.513 278.381 639.381 278.686 639.117 278.926C638.859 279.166 638.517 279.286 638.089 279.286C637.655 279.286 637.31 279.166 637.052 278.926C636.794 278.686 636.665 278.381 636.665 278.012ZM646.588 287.855V283.619C646.588 283.314 646.538 283.054 646.438 282.837C646.339 282.614 646.184 282.441 645.973 282.318C645.768 282.195 645.501 282.134 645.173 282.134C644.892 282.134 644.648 282.184 644.443 282.283C644.238 282.377 644.08 282.515 643.969 282.696C643.857 282.872 643.802 283.08 643.802 283.32H641.271C641.271 282.916 641.364 282.532 641.552 282.169C641.739 281.806 642.012 281.486 642.369 281.211C642.727 280.93 643.151 280.71 643.644 280.552C644.142 280.394 644.698 280.314 645.313 280.314C646.052 280.314 646.708 280.438 647.282 280.684C647.856 280.93 648.308 281.299 648.636 281.791C648.97 282.283 649.137 282.898 649.137 283.637V287.706C649.137 288.228 649.169 288.655 649.233 288.989C649.298 289.317 649.392 289.604 649.515 289.851V290H646.957C646.834 289.742 646.74 289.42 646.676 289.033C646.617 288.641 646.588 288.248 646.588 287.855ZM646.922 284.208L646.939 285.641H645.524C645.19 285.641 644.9 285.679 644.654 285.755C644.408 285.831 644.206 285.939 644.048 286.08C643.89 286.215 643.772 286.373 643.696 286.555C643.626 286.736 643.591 286.936 643.591 287.152C643.591 287.369 643.641 287.565 643.74 287.741C643.84 287.911 643.983 288.046 644.171 288.146C644.358 288.239 644.578 288.286 644.83 288.286C645.211 288.286 645.542 288.21 645.823 288.058C646.104 287.905 646.321 287.718 646.474 287.495C646.632 287.272 646.714 287.062 646.72 286.862L647.388 287.935C647.294 288.175 647.165 288.424 647.001 288.682C646.843 288.939 646.641 289.183 646.395 289.411C646.148 289.634 645.853 289.818 645.507 289.965C645.161 290.105 644.751 290.176 644.276 290.176C643.673 290.176 643.125 290.056 642.633 289.815C642.146 289.569 641.76 289.232 641.473 288.805C641.191 288.371 641.051 287.879 641.051 287.328C641.051 286.83 641.145 286.388 641.332 286.001C641.52 285.614 641.795 285.289 642.158 285.025C642.527 284.756 642.987 284.554 643.538 284.419C644.089 284.278 644.728 284.208 645.454 284.208H646.922ZM653.76 276.5V290H651.22V276.5H653.76ZM655.447 285.342V285.157C655.447 284.46 655.547 283.818 655.746 283.232C655.945 282.641 656.235 282.128 656.616 281.694C656.997 281.261 657.466 280.924 658.022 280.684C658.579 280.438 659.218 280.314 659.938 280.314C660.659 280.314 661.301 280.438 661.863 280.684C662.426 280.924 662.897 281.261 663.278 281.694C663.665 282.128 663.958 282.641 664.157 283.232C664.356 283.818 664.456 284.46 664.456 285.157V285.342C664.456 286.033 664.356 286.675 664.157 287.267C663.958 287.853 663.665 288.365 663.278 288.805C662.897 289.238 662.429 289.575 661.872 289.815C661.315 290.056 660.677 290.176 659.956 290.176C659.235 290.176 658.594 290.056 658.031 289.815C657.475 289.575 657.003 289.238 656.616 288.805C656.235 288.365 655.945 287.853 655.746 287.267C655.547 286.675 655.447 286.033 655.447 285.342ZM657.979 285.157V285.342C657.979 285.74 658.014 286.112 658.084 286.458C658.154 286.804 658.266 287.108 658.418 287.372C658.576 287.63 658.781 287.832 659.033 287.979C659.285 288.125 659.593 288.198 659.956 288.198C660.308 288.198 660.609 288.125 660.861 287.979C661.113 287.832 661.315 287.63 661.468 287.372C661.62 287.108 661.731 286.804 661.802 286.458C661.878 286.112 661.916 285.74 661.916 285.342V285.157C661.916 284.771 661.878 284.407 661.802 284.067C661.731 283.722 661.617 283.417 661.459 283.153C661.307 282.884 661.104 282.673 660.853 282.521C660.601 282.368 660.296 282.292 659.938 282.292C659.581 282.292 659.276 282.368 659.024 282.521C658.778 282.673 658.576 282.884 658.418 283.153C658.266 283.417 658.154 283.722 658.084 284.067C658.014 284.407 657.979 284.771 657.979 285.157ZM672.032 280.49H674.326V289.684C674.326 290.551 674.133 291.286 673.746 291.89C673.365 292.499 672.832 292.959 672.146 293.27C671.461 293.586 670.664 293.744 669.756 293.744C669.357 293.744 668.936 293.691 668.49 293.586C668.051 293.48 667.629 293.316 667.225 293.094C666.826 292.871 666.492 292.59 666.223 292.25L667.339 290.756C667.632 291.096 667.972 291.359 668.358 291.547C668.745 291.74 669.173 291.837 669.642 291.837C670.099 291.837 670.485 291.752 670.802 291.582C671.118 291.418 671.361 291.175 671.531 290.853C671.701 290.536 671.786 290.152 671.786 289.701V282.688L672.032 280.49ZM665.634 285.359V285.175C665.634 284.448 665.722 283.789 665.897 283.197C666.079 282.6 666.334 282.087 666.662 281.659C666.996 281.231 667.4 280.9 667.875 280.666C668.35 280.432 668.886 280.314 669.483 280.314C670.116 280.314 670.646 280.432 671.074 280.666C671.502 280.9 671.854 281.234 672.129 281.668C672.404 282.096 672.618 282.603 672.771 283.188C672.929 283.769 673.052 284.404 673.14 285.096V285.5C673.052 286.162 672.92 286.777 672.744 287.346C672.568 287.914 672.337 288.412 672.05 288.84C671.763 289.262 671.405 289.59 670.978 289.824C670.556 290.059 670.052 290.176 669.466 290.176C668.88 290.176 668.35 290.056 667.875 289.815C667.406 289.575 667.005 289.238 666.671 288.805C666.337 288.371 666.079 287.861 665.897 287.275C665.722 286.689 665.634 286.051 665.634 285.359ZM668.165 285.175V285.359C668.165 285.752 668.203 286.118 668.279 286.458C668.355 286.798 668.473 287.1 668.631 287.363C668.795 287.621 668.997 287.823 669.237 287.97C669.483 288.11 669.773 288.181 670.107 288.181C670.57 288.181 670.948 288.084 671.241 287.891C671.534 287.691 671.754 287.419 671.9 287.073C672.047 286.728 672.132 286.329 672.155 285.878V284.727C672.144 284.357 672.094 284.026 672.006 283.733C671.918 283.435 671.795 283.18 671.637 282.969C671.479 282.758 671.273 282.594 671.021 282.477C670.77 282.359 670.471 282.301 670.125 282.301C669.791 282.301 669.501 282.377 669.255 282.529C669.015 282.676 668.812 282.878 668.648 283.136C668.49 283.394 668.37 283.698 668.288 284.05C668.206 284.396 668.165 284.771 668.165 285.175ZM689.47 282.415V284.472H682.79V282.415H689.47ZM683.572 277.203V290H680.936V277.203H683.572ZM691.351 277.203V290H688.723V277.203H691.351ZM697.863 290.176C697.125 290.176 696.463 290.059 695.877 289.824C695.291 289.584 694.793 289.253 694.383 288.831C693.979 288.409 693.668 287.92 693.451 287.363C693.234 286.801 693.126 286.203 693.126 285.57V285.219C693.126 284.498 693.229 283.839 693.434 283.241C693.639 282.644 693.932 282.125 694.312 281.686C694.699 281.246 695.168 280.909 695.719 280.675C696.27 280.435 696.891 280.314 697.582 280.314C698.256 280.314 698.854 280.426 699.375 280.648C699.896 280.871 700.333 281.188 700.685 281.598C701.042 282.008 701.312 282.5 701.493 283.074C701.675 283.643 701.766 284.275 701.766 284.973V286.027H694.207V284.34H699.278V284.146C699.278 283.795 699.214 283.481 699.085 283.206C698.962 282.925 698.774 282.702 698.522 282.538C698.271 282.374 697.948 282.292 697.556 282.292C697.222 282.292 696.935 282.365 696.694 282.512C696.454 282.658 696.258 282.863 696.105 283.127C695.959 283.391 695.848 283.701 695.771 284.059C695.701 284.41 695.666 284.797 695.666 285.219V285.57C695.666 285.951 695.719 286.303 695.824 286.625C695.936 286.947 696.091 287.226 696.29 287.46C696.495 287.694 696.741 287.876 697.028 288.005C697.321 288.134 697.652 288.198 698.021 288.198C698.479 288.198 698.903 288.11 699.296 287.935C699.694 287.753 700.037 287.48 700.324 287.117L701.555 288.453C701.355 288.74 701.083 289.016 700.737 289.279C700.397 289.543 699.987 289.76 699.507 289.93C699.026 290.094 698.479 290.176 697.863 290.176ZM708.34 287.855V283.619C708.34 283.314 708.29 283.054 708.19 282.837C708.091 282.614 707.936 282.441 707.725 282.318C707.52 282.195 707.253 282.134 706.925 282.134C706.644 282.134 706.4 282.184 706.195 282.283C705.99 282.377 705.832 282.515 705.721 282.696C705.609 282.872 705.554 283.08 705.554 283.32H703.022C703.022 282.916 703.116 282.532 703.304 282.169C703.491 281.806 703.764 281.486 704.121 281.211C704.479 280.93 704.903 280.71 705.396 280.552C705.894 280.394 706.45 280.314 707.065 280.314C707.804 280.314 708.46 280.438 709.034 280.684C709.608 280.93 710.06 281.299 710.388 281.791C710.722 282.283 710.889 282.898 710.889 283.637V287.706C710.889 288.228 710.921 288.655 710.985 288.989C711.05 289.317 711.144 289.604 711.267 289.851V290H708.709C708.586 289.742 708.492 289.42 708.428 289.033C708.369 288.641 708.34 288.248 708.34 287.855ZM708.674 284.208L708.691 285.641H707.276C706.942 285.641 706.652 285.679 706.406 285.755C706.16 285.831 705.958 285.939 705.8 286.08C705.642 286.215 705.524 286.373 705.448 286.555C705.378 286.736 705.343 286.936 705.343 287.152C705.343 287.369 705.393 287.565 705.492 287.741C705.592 287.911 705.735 288.046 705.923 288.146C706.11 288.239 706.33 288.286 706.582 288.286C706.963 288.286 707.294 288.21 707.575 288.058C707.856 287.905 708.073 287.718 708.226 287.495C708.384 287.272 708.466 287.062 708.472 286.862L709.14 287.935C709.046 288.175 708.917 288.424 708.753 288.682C708.595 288.939 708.393 289.183 708.146 289.411C707.9 289.634 707.604 289.818 707.259 289.965C706.913 290.105 706.503 290.176 706.028 290.176C705.425 290.176 704.877 290.056 704.385 289.815C703.898 289.569 703.512 289.232 703.225 288.805C702.943 288.371 702.803 287.879 702.803 287.328C702.803 286.83 702.896 286.388 703.084 286.001C703.271 285.614 703.547 285.289 703.91 285.025C704.279 284.756 704.739 284.554 705.29 284.419C705.841 284.278 706.479 284.208 707.206 284.208H708.674ZM718.456 287.926V276.5H721.005V290H718.711L718.456 287.926ZM712.444 285.359V285.175C712.444 284.448 712.526 283.789 712.69 283.197C712.854 282.6 713.095 282.087 713.411 281.659C713.728 281.231 714.117 280.9 714.58 280.666C715.043 280.432 715.57 280.314 716.162 280.314C716.719 280.314 717.205 280.432 717.621 280.666C718.043 280.9 718.4 281.234 718.693 281.668C718.992 282.096 719.232 282.603 719.414 283.188C719.596 283.769 719.728 284.404 719.81 285.096V285.5C719.728 286.162 719.596 286.777 719.414 287.346C719.232 287.914 718.992 288.412 718.693 288.84C718.4 289.262 718.043 289.59 717.621 289.824C717.199 290.059 716.707 290.176 716.145 290.176C715.553 290.176 715.025 290.056 714.562 289.815C714.105 289.575 713.719 289.238 713.402 288.805C713.092 288.371 712.854 287.861 712.69 287.275C712.526 286.689 712.444 286.051 712.444 285.359ZM714.976 285.175V285.359C714.976 285.752 715.005 286.118 715.063 286.458C715.128 286.798 715.23 287.1 715.371 287.363C715.518 287.621 715.705 287.823 715.934 287.97C716.168 288.11 716.452 288.181 716.786 288.181C717.22 288.181 717.577 288.084 717.858 287.891C718.14 287.691 718.354 287.419 718.5 287.073C718.652 286.728 718.74 286.329 718.764 285.878V284.727C718.746 284.357 718.693 284.026 718.605 283.733C718.523 283.435 718.4 283.18 718.236 282.969C718.078 282.758 717.879 282.594 717.639 282.477C717.404 282.359 717.126 282.301 716.804 282.301C716.476 282.301 716.194 282.377 715.96 282.529C715.726 282.676 715.535 282.878 715.389 283.136C715.248 283.394 715.143 283.698 715.072 284.05C715.008 284.396 714.976 284.771 714.976 285.175ZM725.654 280.49V290H723.114V280.49H725.654ZM722.956 278.012C722.956 277.643 723.085 277.338 723.343 277.098C723.601 276.857 723.946 276.737 724.38 276.737C724.808 276.737 725.15 276.857 725.408 277.098C725.672 277.338 725.804 277.643 725.804 278.012C725.804 278.381 725.672 278.686 725.408 278.926C725.15 279.166 724.808 279.286 724.38 279.286C723.946 279.286 723.601 279.166 723.343 278.926C723.085 278.686 722.956 278.381 722.956 278.012ZM730.225 282.521V290H727.693V280.49H730.066L730.225 282.521ZM729.855 284.911H729.17C729.17 284.208 729.261 283.575 729.442 283.013C729.624 282.444 729.879 281.961 730.207 281.562C730.535 281.158 730.925 280.851 731.376 280.64C731.833 280.423 732.343 280.314 732.905 280.314C733.351 280.314 733.758 280.379 734.127 280.508C734.496 280.637 734.812 280.842 735.076 281.123C735.346 281.404 735.551 281.776 735.691 282.239C735.838 282.702 735.911 283.268 735.911 283.936V290H733.362V283.927C733.362 283.505 733.304 283.177 733.187 282.942C733.069 282.708 732.896 282.544 732.668 282.45C732.445 282.351 732.17 282.301 731.842 282.301C731.502 282.301 731.206 282.368 730.954 282.503C730.708 282.638 730.503 282.825 730.339 283.065C730.181 283.3 730.061 283.575 729.979 283.892C729.896 284.208 729.855 284.548 729.855 284.911ZM743.856 280.49H746.15V289.684C746.15 290.551 745.957 291.286 745.57 291.89C745.189 292.499 744.656 292.959 743.971 293.27C743.285 293.586 742.488 293.744 741.58 293.744C741.182 293.744 740.76 293.691 740.314 293.586C739.875 293.48 739.453 293.316 739.049 293.094C738.65 292.871 738.316 292.59 738.047 292.25L739.163 290.756C739.456 291.096 739.796 291.359 740.183 291.547C740.569 291.74 740.997 291.837 741.466 291.837C741.923 291.837 742.31 291.752 742.626 291.582C742.942 291.418 743.186 291.175 743.355 290.853C743.525 290.536 743.61 290.152 743.61 289.701V282.688L743.856 280.49ZM737.458 285.359V285.175C737.458 284.448 737.546 283.789 737.722 283.197C737.903 282.6 738.158 282.087 738.486 281.659C738.82 281.231 739.225 280.9 739.699 280.666C740.174 280.432 740.71 280.314 741.308 280.314C741.94 280.314 742.471 280.432 742.898 280.666C743.326 280.9 743.678 281.234 743.953 281.668C744.229 282.096 744.442 282.603 744.595 283.188C744.753 283.769 744.876 284.404 744.964 285.096V285.5C744.876 286.162 744.744 286.777 744.568 287.346C744.393 287.914 744.161 288.412 743.874 288.84C743.587 289.262 743.229 289.59 742.802 289.824C742.38 290.059 741.876 290.176 741.29 290.176C740.704 290.176 740.174 290.056 739.699 289.815C739.23 289.575 738.829 289.238 738.495 288.805C738.161 288.371 737.903 287.861 737.722 287.275C737.546 286.689 737.458 286.051 737.458 285.359ZM739.989 285.175V285.359C739.989 285.752 740.027 286.118 740.104 286.458C740.18 286.798 740.297 287.1 740.455 287.363C740.619 287.621 740.821 287.823 741.062 287.97C741.308 288.11 741.598 288.181 741.932 288.181C742.395 288.181 742.772 288.084 743.065 287.891C743.358 287.691 743.578 287.419 743.725 287.073C743.871 286.728 743.956 286.329 743.979 285.878V284.727C743.968 284.357 743.918 284.026 743.83 283.733C743.742 283.435 743.619 283.18 743.461 282.969C743.303 282.758 743.098 282.594 742.846 282.477C742.594 282.359 742.295 282.301 741.949 282.301C741.615 282.301 741.325 282.377 741.079 282.529C740.839 282.676 740.637 282.878 740.473 283.136C740.314 283.394 740.194 283.698 740.112 284.05C740.03 284.396 739.989 284.771 739.989 285.175Z" fill="#1A1A1A"/>
<path d="M989.705 288.468C990.056 288.818 990.056 289.387 989.705 289.737C989.354 290.088 988.783 290.088 988.432 289.737L984.001 285.285L979.538 289.736C979.186 290.086 978.616 290.086 978.265 289.736C977.913 289.385 977.913 288.817 978.265 288.466L982.729 284.017L978.264 279.532C977.912 279.182 977.912 278.613 978.264 278.263C978.615 277.912 979.185 277.912 979.536 278.263L984.001 282.749L988.464 278.298C988.815 277.948 989.385 277.948 989.736 278.298C990.088 278.648 990.088 279.217 989.736 279.567L985.272 284.017L989.705 288.468Z" fill="#1A1A1A"/>
<path d="M592.203 342.921V344.071H586.432V342.921H592.203ZM586.651 338.336V349H585.238V338.336H586.651ZM593.434 338.336V349H592.027V338.336H593.434ZM597.213 341.075V349H595.851V341.075H597.213ZM595.748 338.973C595.748 338.753 595.814 338.568 595.946 338.417C596.083 338.265 596.283 338.189 596.546 338.189C596.805 338.189 597.003 338.265 597.14 338.417C597.281 338.568 597.352 338.753 597.352 338.973C597.352 339.183 597.281 339.364 597.14 339.515C597.003 339.662 596.805 339.735 596.546 339.735C596.283 339.735 596.083 339.662 595.946 339.515C595.814 339.364 595.748 339.183 595.748 338.973ZM600.619 347.389V348.48C600.619 348.924 600.506 349.393 600.282 349.886C600.057 350.384 599.742 350.799 599.337 351.131L598.568 350.597C598.724 350.382 598.856 350.162 598.963 349.938C599.071 349.718 599.151 349.488 599.205 349.249C599.264 349.015 599.293 348.766 599.293 348.502V347.389H600.619ZM607.789 338.336V349H606.375V338.336H607.789ZM618.548 347.645V343.565C618.548 343.253 618.485 342.982 618.358 342.752C618.236 342.518 618.05 342.337 617.801 342.21C617.552 342.083 617.245 342.02 616.878 342.02C616.537 342.02 616.236 342.079 615.978 342.196C615.724 342.313 615.523 342.467 615.377 342.657C615.235 342.848 615.165 343.053 615.165 343.272H613.81C613.81 342.989 613.883 342.708 614.029 342.43C614.176 342.152 614.386 341.9 614.659 341.676C614.938 341.446 615.27 341.266 615.655 341.134C616.046 340.997 616.48 340.929 616.959 340.929C617.535 340.929 618.043 341.026 618.482 341.222C618.927 341.417 619.273 341.712 619.522 342.108C619.776 342.499 619.903 342.989 619.903 343.58V347.271C619.903 347.535 619.925 347.816 619.969 348.114C620.018 348.412 620.089 348.668 620.182 348.883V349H618.768C618.7 348.844 618.646 348.636 618.607 348.377C618.568 348.114 618.548 347.87 618.548 347.645ZM618.783 344.195L618.797 345.147H617.428C617.042 345.147 616.698 345.179 616.395 345.243C616.092 345.301 615.838 345.392 615.633 345.514C615.428 345.636 615.272 345.79 615.165 345.975C615.057 346.156 615.003 346.368 615.003 346.612C615.003 346.861 615.06 347.088 615.172 347.293C615.284 347.499 615.453 347.662 615.677 347.784C615.907 347.901 616.188 347.96 616.52 347.96C616.935 347.96 617.301 347.872 617.618 347.696C617.936 347.521 618.187 347.306 618.373 347.052C618.563 346.798 618.666 346.551 618.68 346.312L619.259 346.964C619.225 347.169 619.132 347.396 618.98 347.645C618.829 347.894 618.626 348.133 618.373 348.363C618.124 348.587 617.826 348.775 617.479 348.927C617.137 349.073 616.751 349.146 616.322 349.146C615.785 349.146 615.313 349.042 614.908 348.832C614.508 348.622 614.195 348.341 613.971 347.989C613.751 347.633 613.641 347.235 613.641 346.795C613.641 346.371 613.724 345.997 613.89 345.675C614.056 345.348 614.295 345.077 614.608 344.862C614.92 344.642 615.296 344.476 615.736 344.364C616.175 344.251 616.666 344.195 617.208 344.195H618.783ZM623.382 342.65V349H622.02V341.075H623.309L623.382 342.65ZM623.104 344.737L622.474 344.715C622.479 344.173 622.55 343.673 622.687 343.214C622.823 342.75 623.026 342.347 623.294 342.005C623.563 341.664 623.897 341.4 624.298 341.214C624.698 341.024 625.162 340.929 625.689 340.929C626.061 340.929 626.402 340.982 626.715 341.09C627.027 341.192 627.298 341.356 627.528 341.581C627.757 341.805 627.936 342.093 628.062 342.445C628.189 342.796 628.253 343.221 628.253 343.719V349H626.898V343.785C626.898 343.37 626.827 343.038 626.686 342.789C626.549 342.54 626.354 342.359 626.1 342.247C625.846 342.13 625.548 342.071 625.206 342.071C624.806 342.071 624.471 342.142 624.203 342.284C623.934 342.425 623.719 342.621 623.558 342.87C623.397 343.119 623.28 343.404 623.207 343.727C623.138 344.044 623.104 344.381 623.104 344.737ZM628.238 343.99L627.33 344.269C627.335 343.834 627.406 343.417 627.542 343.016C627.684 342.616 627.887 342.259 628.15 341.947C628.419 341.634 628.749 341.388 629.139 341.207C629.53 341.021 629.977 340.929 630.479 340.929C630.904 340.929 631.28 340.985 631.607 341.097C631.939 341.209 632.218 341.383 632.442 341.617C632.672 341.847 632.845 342.142 632.962 342.503C633.08 342.865 633.138 343.294 633.138 343.792V349H631.776V343.778C631.776 343.333 631.705 342.989 631.563 342.745C631.427 342.496 631.231 342.323 630.978 342.225C630.729 342.123 630.431 342.071 630.084 342.071C629.786 342.071 629.522 342.123 629.293 342.225C629.063 342.328 628.871 342.469 628.714 342.65C628.558 342.826 628.438 343.028 628.355 343.258C628.277 343.487 628.238 343.731 628.238 343.99ZM639.562 338.336H640.931L644.425 347.03L647.911 338.336H649.288L644.952 349H643.883L639.562 338.336ZM639.115 338.336H640.323L640.521 344.84V349H639.115V338.336ZM648.519 338.336H649.728V349H648.321V344.84L648.519 338.336ZM651.646 345.125V344.957C651.646 344.386 651.729 343.856 651.896 343.368C652.062 342.875 652.301 342.447 652.613 342.086C652.926 341.72 653.304 341.437 653.749 341.236C654.193 341.031 654.691 340.929 655.243 340.929C655.799 340.929 656.3 341.031 656.744 341.236C657.193 341.437 657.574 341.72 657.887 342.086C658.204 342.447 658.446 342.875 658.612 343.368C658.778 343.856 658.861 344.386 658.861 344.957V345.125C658.861 345.697 658.778 346.227 658.612 346.715C658.446 347.203 658.204 347.63 657.887 347.997C657.574 348.358 657.196 348.641 656.751 348.846C656.312 349.046 655.814 349.146 655.257 349.146C654.701 349.146 654.2 349.046 653.756 348.846C653.312 348.641 652.931 348.358 652.613 347.997C652.301 347.63 652.062 347.203 651.896 346.715C651.729 346.227 651.646 345.697 651.646 345.125ZM653.001 344.957V345.125C653.001 345.521 653.048 345.895 653.141 346.246C653.233 346.593 653.373 346.9 653.558 347.169C653.749 347.438 653.985 347.65 654.269 347.806C654.552 347.958 654.881 348.033 655.257 348.033C655.628 348.033 655.953 347.958 656.231 347.806C656.515 347.65 656.749 347.438 656.935 347.169C657.12 346.9 657.259 346.593 657.352 346.246C657.45 345.895 657.499 345.521 657.499 345.125V344.957C657.499 344.566 657.45 344.198 657.352 343.851C657.259 343.5 657.118 343.189 656.927 342.921C656.742 342.647 656.507 342.433 656.224 342.276C655.946 342.12 655.619 342.042 655.243 342.042C654.872 342.042 654.544 342.12 654.261 342.276C653.983 342.433 653.749 342.647 653.558 342.921C653.373 343.189 653.233 343.5 653.141 343.851C653.048 344.198 653.001 344.566 653.001 344.957ZM665.555 347.462V337.75H666.917V349H665.672L665.555 347.462ZM660.223 345.125V344.972C660.223 344.366 660.296 343.817 660.443 343.324C660.594 342.826 660.807 342.398 661.08 342.042C661.358 341.686 661.688 341.412 662.069 341.222C662.455 341.026 662.884 340.929 663.358 340.929C663.856 340.929 664.291 341.017 664.662 341.192C665.038 341.363 665.355 341.615 665.614 341.947C665.877 342.274 666.085 342.669 666.236 343.133C666.388 343.597 666.493 344.122 666.551 344.708V345.382C666.498 345.963 666.393 346.485 666.236 346.949C666.085 347.413 665.877 347.809 665.614 348.136C665.355 348.463 665.038 348.714 664.662 348.89C664.286 349.061 663.846 349.146 663.343 349.146C662.879 349.146 662.455 349.046 662.069 348.846C661.688 348.646 661.358 348.365 661.08 348.004C660.807 347.643 660.594 347.218 660.443 346.729C660.296 346.236 660.223 345.702 660.223 345.125ZM661.585 344.972V345.125C661.585 345.521 661.625 345.892 661.703 346.239C661.786 346.585 661.913 346.891 662.083 347.154C662.254 347.418 662.472 347.625 662.735 347.777C662.999 347.923 663.314 347.997 663.68 347.997C664.129 347.997 664.498 347.901 664.786 347.711C665.079 347.521 665.313 347.269 665.489 346.957C665.665 346.644 665.802 346.305 665.899 345.938V344.173C665.841 343.905 665.755 343.646 665.643 343.397C665.536 343.143 665.394 342.918 665.218 342.723C665.047 342.523 664.835 342.364 664.581 342.247C664.332 342.13 664.037 342.071 663.695 342.071C663.324 342.071 663.004 342.149 662.735 342.306C662.472 342.457 662.254 342.667 662.083 342.936C661.913 343.199 661.786 343.507 661.703 343.858C661.625 344.205 661.585 344.576 661.585 344.972ZM673.7 347.645V343.565C673.7 343.253 673.636 342.982 673.509 342.752C673.387 342.518 673.202 342.337 672.953 342.21C672.704 342.083 672.396 342.02 672.03 342.02C671.688 342.02 671.388 342.079 671.129 342.196C670.875 342.313 670.675 342.467 670.528 342.657C670.387 342.848 670.316 343.053 670.316 343.272H668.961C668.961 342.989 669.034 342.708 669.181 342.43C669.327 342.152 669.537 341.9 669.811 341.676C670.089 341.446 670.421 341.266 670.807 341.134C671.197 340.997 671.632 340.929 672.11 340.929C672.687 340.929 673.194 341.026 673.634 341.222C674.078 341.417 674.425 341.712 674.674 342.108C674.928 342.499 675.055 342.989 675.055 343.58V347.271C675.055 347.535 675.077 347.816 675.121 348.114C675.169 348.412 675.24 348.668 675.333 348.883V349H673.919C673.851 348.844 673.797 348.636 673.758 348.377C673.719 348.114 673.7 347.87 673.7 347.645ZM673.934 344.195L673.949 345.147H672.579C672.193 345.147 671.849 345.179 671.546 345.243C671.244 345.301 670.99 345.392 670.785 345.514C670.58 345.636 670.423 345.79 670.316 345.975C670.208 346.156 670.155 346.368 670.155 346.612C670.155 346.861 670.211 347.088 670.323 347.293C670.436 347.499 670.604 347.662 670.829 347.784C671.058 347.901 671.339 347.96 671.671 347.96C672.086 347.96 672.452 347.872 672.77 347.696C673.087 347.521 673.338 347.306 673.524 347.052C673.714 346.798 673.817 346.551 673.832 346.312L674.41 346.964C674.376 347.169 674.283 347.396 674.132 347.645C673.98 347.894 673.778 348.133 673.524 348.363C673.275 348.587 672.977 348.775 672.63 348.927C672.289 349.073 671.903 349.146 671.473 349.146C670.936 349.146 670.465 349.042 670.06 348.832C669.659 348.622 669.347 348.341 669.122 347.989C668.902 347.633 668.792 347.235 668.792 346.795C668.792 346.371 668.875 345.997 669.042 345.675C669.208 345.348 669.447 345.077 669.759 344.862C670.072 344.642 670.448 344.476 670.887 344.364C671.327 344.251 671.817 344.195 672.359 344.195H673.934ZM678.658 337.75V349H677.296V337.75H678.658ZM684.547 337.75H685.909V347.462L685.792 349H684.547V337.75ZM691.263 344.972V345.125C691.263 345.702 691.195 346.236 691.058 346.729C690.921 347.218 690.721 347.643 690.458 348.004C690.194 348.365 689.872 348.646 689.491 348.846C689.11 349.046 688.673 349.146 688.18 349.146C687.677 349.146 687.235 349.061 686.854 348.89C686.478 348.714 686.161 348.463 685.902 348.136C685.643 347.809 685.436 347.413 685.279 346.949C685.128 346.485 685.023 345.963 684.964 345.382V344.708C685.023 344.122 685.128 343.597 685.279 343.133C685.436 342.669 685.643 342.274 685.902 341.947C686.161 341.615 686.478 341.363 686.854 341.192C687.23 341.017 687.667 340.929 688.165 340.929C688.663 340.929 689.105 341.026 689.491 341.222C689.876 341.412 690.199 341.686 690.458 342.042C690.721 342.398 690.921 342.826 691.058 343.324C691.195 343.817 691.263 344.366 691.263 344.972ZM689.901 345.125V344.972C689.901 344.576 689.864 344.205 689.791 343.858C689.718 343.507 689.601 343.199 689.439 342.936C689.278 342.667 689.066 342.457 688.802 342.306C688.539 342.149 688.214 342.071 687.828 342.071C687.486 342.071 687.188 342.13 686.935 342.247C686.686 342.364 686.473 342.523 686.297 342.723C686.122 342.918 685.978 343.143 685.865 343.397C685.758 343.646 685.677 343.905 685.624 344.173V345.938C685.702 346.28 685.829 346.61 686.004 346.927C686.185 347.24 686.424 347.496 686.722 347.696C687.025 347.896 687.398 347.997 687.843 347.997C688.209 347.997 688.521 347.923 688.78 347.777C689.044 347.625 689.256 347.418 689.417 347.154C689.583 346.891 689.706 346.585 689.784 346.239C689.862 345.892 689.901 345.521 689.901 345.125ZM692.618 345.125V344.957C692.618 344.386 692.701 343.856 692.867 343.368C693.033 342.875 693.272 342.447 693.585 342.086C693.897 341.72 694.276 341.437 694.72 341.236C695.165 341.031 695.663 340.929 696.214 340.929C696.771 340.929 697.271 341.031 697.716 341.236C698.165 341.437 698.546 341.72 698.858 342.086C699.176 342.447 699.417 342.875 699.583 343.368C699.75 343.856 699.833 344.386 699.833 344.957V345.125C699.833 345.697 699.75 346.227 699.583 346.715C699.417 347.203 699.176 347.63 698.858 347.997C698.546 348.358 698.167 348.641 697.723 348.846C697.284 349.046 696.786 349.146 696.229 349.146C695.672 349.146 695.172 349.046 694.728 348.846C694.283 348.641 693.902 348.358 693.585 347.997C693.272 347.63 693.033 347.203 692.867 346.715C692.701 346.227 692.618 345.697 692.618 345.125ZM693.973 344.957V345.125C693.973 345.521 694.02 345.895 694.112 346.246C694.205 346.593 694.344 346.9 694.53 347.169C694.72 347.438 694.957 347.65 695.24 347.806C695.523 347.958 695.853 348.033 696.229 348.033C696.6 348.033 696.925 347.958 697.203 347.806C697.486 347.65 697.721 347.438 697.906 347.169C698.092 346.9 698.231 346.593 698.324 346.246C698.421 345.895 698.47 345.521 698.47 345.125V344.957C698.47 344.566 698.421 344.198 698.324 343.851C698.231 343.5 698.089 343.189 697.899 342.921C697.713 342.647 697.479 342.433 697.196 342.276C696.917 342.12 696.59 342.042 696.214 342.042C695.843 342.042 695.516 342.12 695.233 342.276C694.955 342.433 694.72 342.647 694.53 342.921C694.344 343.189 694.205 343.5 694.112 343.851C694.02 344.198 693.973 344.566 693.973 344.957ZM706.527 347.462V337.75H707.889V349H706.644L706.527 347.462ZM701.195 345.125V344.972C701.195 344.366 701.268 343.817 701.415 343.324C701.566 342.826 701.778 342.398 702.052 342.042C702.33 341.686 702.66 341.412 703.041 341.222C703.426 341.026 703.856 340.929 704.33 340.929C704.828 340.929 705.262 341.017 705.633 341.192C706.009 341.363 706.327 341.615 706.585 341.947C706.849 342.274 707.057 342.669 707.208 343.133C707.359 343.597 707.464 344.122 707.523 344.708V345.382C707.469 345.963 707.364 346.485 707.208 346.949C707.057 347.413 706.849 347.809 706.585 348.136C706.327 348.463 706.009 348.714 705.633 348.89C705.257 349.061 704.818 349.146 704.315 349.146C703.851 349.146 703.426 349.046 703.041 348.846C702.66 348.646 702.33 348.365 702.052 348.004C701.778 347.643 701.566 347.218 701.415 346.729C701.268 346.236 701.195 345.702 701.195 345.125ZM702.557 344.972V345.125C702.557 345.521 702.596 345.892 702.674 346.239C702.757 346.585 702.884 346.891 703.055 347.154C703.226 347.418 703.443 347.625 703.707 347.777C703.971 347.923 704.286 347.997 704.652 347.997C705.101 347.997 705.47 347.901 705.758 347.711C706.051 347.521 706.285 347.269 706.461 346.957C706.637 346.644 706.773 346.305 706.871 345.938V344.173C706.812 343.905 706.727 343.646 706.615 343.397C706.507 343.143 706.366 342.918 706.19 342.723C706.019 342.523 705.807 342.364 705.553 342.247C705.304 342.13 705.008 342.071 704.667 342.071C704.295 342.071 703.976 342.149 703.707 342.306C703.443 342.457 703.226 342.667 703.055 342.936C702.884 343.199 702.757 343.507 702.674 343.858C702.596 344.205 702.557 344.576 702.557 344.972ZM712.225 348.18L714.43 341.075H715.88L712.701 350.223C712.628 350.418 712.53 350.628 712.408 350.853C712.291 351.083 712.14 351.3 711.954 351.505C711.769 351.71 711.544 351.876 711.28 352.003C711.021 352.135 710.711 352.201 710.35 352.201C710.243 352.201 710.106 352.186 709.94 352.157C709.774 352.127 709.657 352.103 709.588 352.083L709.581 350.985C709.62 350.99 709.681 350.995 709.764 351C709.852 351.009 709.913 351.014 709.947 351.014C710.255 351.014 710.516 350.973 710.731 350.89C710.946 350.812 711.126 350.677 711.273 350.487C711.424 350.301 711.554 350.045 711.661 349.718L712.225 348.18ZM710.606 341.075L712.665 347.228L713.016 348.656L712.042 349.154L709.127 341.075H710.606ZM716.334 348.282C716.334 348.053 716.405 347.86 716.546 347.704C716.693 347.542 716.903 347.462 717.176 347.462C717.45 347.462 717.657 347.542 717.799 347.704C717.945 347.86 718.019 348.053 718.019 348.282C718.019 348.507 717.945 348.697 717.799 348.854C717.657 349.01 717.45 349.088 717.176 349.088C716.903 349.088 716.693 349.01 716.546 348.854C716.405 348.697 716.334 348.507 716.334 348.282ZM724.684 338.336L727.452 343.69L730.228 338.336H731.832L728.155 345.016V349H726.742V345.016L723.065 338.336H724.684ZM732.154 345.125V344.957C732.154 344.386 732.237 343.856 732.403 343.368C732.569 342.875 732.809 342.447 733.121 342.086C733.434 341.72 733.812 341.437 734.256 341.236C734.701 341.031 735.199 340.929 735.75 340.929C736.307 340.929 736.808 341.031 737.252 341.236C737.701 341.437 738.082 341.72 738.395 342.086C738.712 342.447 738.954 342.875 739.12 343.368C739.286 343.856 739.369 344.386 739.369 344.957V345.125C739.369 345.697 739.286 346.227 739.12 346.715C738.954 347.203 738.712 347.63 738.395 347.997C738.082 348.358 737.704 348.641 737.259 348.846C736.82 349.046 736.322 349.146 735.765 349.146C735.208 349.146 734.708 349.046 734.264 348.846C733.819 348.641 733.438 348.358 733.121 347.997C732.809 347.63 732.569 347.203 732.403 346.715C732.237 346.227 732.154 345.697 732.154 345.125ZM733.509 344.957V345.125C733.509 345.521 733.556 345.895 733.648 346.246C733.741 346.593 733.88 346.9 734.066 347.169C734.256 347.438 734.493 347.65 734.776 347.806C735.06 347.958 735.389 348.033 735.765 348.033C736.136 348.033 736.461 347.958 736.739 347.806C737.022 347.65 737.257 347.438 737.442 347.169C737.628 346.9 737.767 346.593 737.86 346.246C737.958 345.895 738.006 345.521 738.006 345.125V344.957C738.006 344.566 737.958 344.198 737.86 343.851C737.767 343.5 737.625 343.189 737.435 342.921C737.25 342.647 737.015 342.433 736.732 342.276C736.454 342.12 736.126 342.042 735.75 342.042C735.379 342.042 735.052 342.12 734.769 342.276C734.491 342.433 734.256 342.647 734.066 342.921C733.88 343.189 733.741 343.5 733.648 343.851C733.556 344.198 733.509 344.566 733.509 344.957ZM745.917 347.169V341.075H747.279V349H745.982L745.917 347.169ZM746.173 345.499L746.737 345.484C746.737 346.012 746.681 346.5 746.568 346.949C746.461 347.394 746.285 347.779 746.041 348.106C745.797 348.434 745.477 348.69 745.082 348.875C744.686 349.056 744.205 349.146 743.639 349.146C743.253 349.146 742.899 349.09 742.577 348.978C742.259 348.866 741.986 348.692 741.756 348.458C741.527 348.224 741.349 347.918 741.222 347.542C741.1 347.167 741.039 346.715 741.039 346.188V341.075H742.394V346.202C742.394 346.559 742.433 346.854 742.511 347.088C742.594 347.318 742.704 347.501 742.84 347.638C742.982 347.77 743.138 347.862 743.309 347.916C743.485 347.97 743.666 347.997 743.851 347.997C744.427 347.997 744.884 347.887 745.221 347.667C745.558 347.442 745.799 347.142 745.946 346.766C746.097 346.385 746.173 345.963 746.173 345.499ZM756.236 348.033C756.559 348.033 756.856 347.967 757.13 347.835C757.403 347.704 757.628 347.523 757.804 347.293C757.979 347.059 758.08 346.793 758.104 346.495H759.393C759.369 346.964 759.21 347.401 758.917 347.806C758.629 348.207 758.25 348.531 757.782 348.78C757.313 349.024 756.798 349.146 756.236 349.146C755.641 349.146 755.121 349.042 754.676 348.832C754.237 348.622 753.871 348.333 753.578 347.967C753.29 347.601 753.072 347.181 752.926 346.708C752.784 346.229 752.713 345.724 752.713 345.191V344.884C752.713 344.352 752.784 343.849 752.926 343.375C753.072 342.896 753.29 342.474 753.578 342.108C753.871 341.742 754.237 341.454 754.676 341.244C755.121 341.034 755.641 340.929 756.236 340.929C756.856 340.929 757.398 341.056 757.862 341.31C758.326 341.559 758.69 341.9 758.954 342.335C759.222 342.765 759.369 343.253 759.393 343.8H758.104C758.08 343.473 757.987 343.177 757.826 342.914C757.669 342.65 757.455 342.44 757.181 342.284C756.913 342.123 756.598 342.042 756.236 342.042C755.821 342.042 755.472 342.125 755.189 342.291C754.911 342.452 754.688 342.672 754.522 342.95C754.361 343.224 754.244 343.529 754.171 343.866C754.103 344.198 754.068 344.537 754.068 344.884V345.191C754.068 345.538 754.103 345.88 754.171 346.217C754.239 346.554 754.354 346.859 754.515 347.132C754.681 347.406 754.903 347.625 755.182 347.792C755.465 347.953 755.816 348.033 756.236 348.033ZM765.589 347.645V343.565C765.589 343.253 765.526 342.982 765.399 342.752C765.277 342.518 765.091 342.337 764.842 342.21C764.593 342.083 764.286 342.02 763.919 342.02C763.578 342.02 763.277 342.079 763.019 342.196C762.765 342.313 762.564 342.467 762.418 342.657C762.276 342.848 762.206 343.053 762.206 343.272H760.851C760.851 342.989 760.924 342.708 761.07 342.43C761.217 342.152 761.427 341.9 761.7 341.676C761.979 341.446 762.311 341.266 762.696 341.134C763.087 340.997 763.521 340.929 764 340.929C764.576 340.929 765.084 341.026 765.523 341.222C765.968 341.417 766.314 341.712 766.563 342.108C766.817 342.499 766.944 342.989 766.944 343.58V347.271C766.944 347.535 766.966 347.816 767.01 348.114C767.059 348.412 767.13 348.668 767.223 348.883V349H765.809C765.741 348.844 765.687 348.636 765.648 348.377C765.609 348.114 765.589 347.87 765.589 347.645ZM765.824 344.195L765.838 345.147H764.469C764.083 345.147 763.739 345.179 763.436 345.243C763.133 345.301 762.879 345.392 762.674 345.514C762.469 345.636 762.313 345.79 762.206 345.975C762.098 346.156 762.044 346.368 762.044 346.612C762.044 346.861 762.101 347.088 762.213 347.293C762.325 347.499 762.494 347.662 762.718 347.784C762.948 347.901 763.229 347.96 763.561 347.96C763.976 347.96 764.342 347.872 764.659 347.696C764.977 347.521 765.228 347.306 765.414 347.052C765.604 346.798 765.707 346.551 765.721 346.312L766.3 346.964C766.266 347.169 766.173 347.396 766.021 347.645C765.87 347.894 765.667 348.133 765.414 348.363C765.165 348.587 764.867 348.775 764.52 348.927C764.178 349.073 763.792 349.146 763.363 349.146C762.826 349.146 762.354 349.042 761.949 348.832C761.549 348.622 761.236 348.341 761.012 347.989C760.792 347.633 760.682 347.235 760.682 346.795C760.682 346.371 760.765 345.997 760.931 345.675C761.097 345.348 761.336 345.077 761.649 344.862C761.961 344.642 762.337 344.476 762.777 344.364C763.216 344.251 763.707 344.195 764.249 344.195H765.824ZM770.431 342.767V349H769.076V341.075H770.357L770.431 342.767ZM770.108 344.737L769.544 344.715C769.549 344.173 769.63 343.673 769.786 343.214C769.942 342.75 770.162 342.347 770.445 342.005C770.729 341.664 771.065 341.4 771.456 341.214C771.852 341.024 772.289 340.929 772.767 340.929C773.158 340.929 773.509 340.982 773.822 341.09C774.134 341.192 774.4 341.358 774.62 341.588C774.845 341.817 775.016 342.115 775.133 342.481C775.25 342.843 775.309 343.285 775.309 343.807V349H773.946V343.792C773.946 343.377 773.885 343.045 773.763 342.796C773.641 342.542 773.463 342.359 773.229 342.247C772.994 342.13 772.706 342.071 772.364 342.071C772.027 342.071 771.72 342.142 771.441 342.284C771.168 342.425 770.931 342.621 770.731 342.87C770.536 343.119 770.382 343.404 770.27 343.727C770.162 344.044 770.108 344.381 770.108 344.737ZM785.702 346.898C785.702 346.703 785.658 346.522 785.57 346.356C785.487 346.185 785.313 346.031 785.05 345.895C784.791 345.753 784.4 345.631 783.878 345.528C783.438 345.436 783.041 345.326 782.684 345.199C782.333 345.072 782.032 344.918 781.783 344.737C781.539 344.557 781.351 344.344 781.219 344.1C781.087 343.856 781.021 343.57 781.021 343.243C781.021 342.931 781.09 342.635 781.227 342.357C781.368 342.079 781.566 341.832 781.82 341.617C782.079 341.402 782.389 341.234 782.75 341.112C783.111 340.99 783.514 340.929 783.958 340.929C784.593 340.929 785.135 341.041 785.584 341.266C786.034 341.49 786.378 341.791 786.617 342.167C786.856 342.538 786.976 342.95 786.976 343.404H785.621C785.621 343.185 785.555 342.972 785.423 342.767C785.296 342.557 785.108 342.384 784.859 342.247C784.615 342.11 784.315 342.042 783.958 342.042C783.583 342.042 783.277 342.101 783.043 342.218C782.813 342.33 782.645 342.474 782.538 342.65C782.435 342.826 782.384 343.011 782.384 343.207C782.384 343.353 782.408 343.485 782.457 343.602C782.511 343.714 782.604 343.819 782.735 343.917C782.867 344.01 783.053 344.098 783.292 344.181C783.531 344.264 783.836 344.347 784.208 344.43C784.857 344.576 785.392 344.752 785.812 344.957C786.231 345.162 786.544 345.414 786.749 345.711C786.954 346.009 787.057 346.371 787.057 346.795C787.057 347.142 786.983 347.459 786.837 347.748C786.695 348.036 786.488 348.285 786.214 348.495C785.946 348.7 785.624 348.861 785.248 348.978C784.876 349.09 784.459 349.146 783.995 349.146C783.297 349.146 782.706 349.022 782.223 348.773C781.739 348.524 781.373 348.202 781.124 347.806C780.875 347.411 780.75 346.993 780.75 346.554H782.113C782.132 346.925 782.24 347.22 782.435 347.44C782.63 347.655 782.87 347.809 783.153 347.901C783.436 347.989 783.717 348.033 783.995 348.033C784.366 348.033 784.676 347.984 784.925 347.887C785.179 347.789 785.372 347.655 785.504 347.484C785.636 347.313 785.702 347.118 785.702 346.898ZM790.843 347.594L792.879 341.075H793.773L793.597 342.372L791.524 349H790.653L790.843 347.594ZM789.474 341.075L791.209 347.667L791.334 349H790.418L788.119 341.075H789.474ZM795.721 347.616L797.376 341.075H798.724L796.424 349H795.516L795.721 347.616ZM793.971 341.075L795.963 347.484L796.19 349H795.326L793.194 342.357L793.019 341.075H793.971ZM804.789 347.645V343.565C804.789 343.253 804.725 342.982 804.598 342.752C804.476 342.518 804.291 342.337 804.042 342.21C803.792 342.083 803.485 342.02 803.119 342.02C802.777 342.02 802.477 342.079 802.218 342.196C801.964 342.313 801.764 342.467 801.617 342.657C801.476 342.848 801.405 343.053 801.405 343.272H800.05C800.05 342.989 800.123 342.708 800.27 342.43C800.416 342.152 800.626 341.9 800.899 341.676C801.178 341.446 801.51 341.266 801.896 341.134C802.286 340.997 802.721 340.929 803.199 340.929C803.775 340.929 804.283 341.026 804.723 341.222C805.167 341.417 805.514 341.712 805.763 342.108C806.017 342.499 806.144 342.989 806.144 343.58V347.271C806.144 347.535 806.166 347.816 806.209 348.114C806.258 348.412 806.329 348.668 806.422 348.883V349H805.008C804.94 348.844 804.886 348.636 804.847 348.377C804.808 348.114 804.789 347.87 804.789 347.645ZM805.023 344.195L805.038 345.147H803.668C803.282 345.147 802.938 345.179 802.635 345.243C802.333 345.301 802.079 345.392 801.874 345.514C801.668 345.636 801.512 345.79 801.405 345.975C801.297 346.156 801.244 346.368 801.244 346.612C801.244 346.861 801.3 347.088 801.412 347.293C801.524 347.499 801.693 347.662 801.917 347.784C802.147 347.901 802.428 347.96 802.76 347.96C803.175 347.96 803.541 347.872 803.858 347.696C804.176 347.521 804.427 347.306 804.613 347.052C804.803 346.798 804.906 346.551 804.92 346.312L805.499 346.964C805.465 347.169 805.372 347.396 805.221 347.645C805.069 347.894 804.867 348.133 804.613 348.363C804.364 348.587 804.066 348.775 803.719 348.927C803.377 349.073 802.992 349.146 802.562 349.146C802.025 349.146 801.554 349.042 801.148 348.832C800.748 348.622 800.436 348.341 800.211 347.989C799.991 347.633 799.881 347.235 799.881 346.795C799.881 346.371 799.964 345.997 800.13 345.675C800.296 345.348 800.536 345.077 800.848 344.862C801.161 344.642 801.537 344.476 801.976 344.364C802.416 344.251 802.906 344.195 803.448 344.195H805.023ZM809.63 342.599V352.047H808.268V341.075H809.513L809.63 342.599ZM814.969 344.972V345.125C814.969 345.702 814.901 346.236 814.764 346.729C814.627 347.218 814.427 347.643 814.164 348.004C813.905 348.365 813.585 348.646 813.204 348.846C812.823 349.046 812.386 349.146 811.893 349.146C811.39 349.146 810.946 349.063 810.56 348.897C810.174 348.731 809.847 348.49 809.579 348.172C809.31 347.855 809.095 347.474 808.934 347.03C808.778 346.585 808.67 346.085 808.612 345.528V344.708C808.67 344.122 808.78 343.597 808.941 343.133C809.103 342.669 809.315 342.274 809.579 341.947C809.847 341.615 810.172 341.363 810.553 341.192C810.934 341.017 811.373 340.929 811.871 340.929C812.369 340.929 812.811 341.026 813.197 341.222C813.583 341.412 813.907 341.686 814.171 342.042C814.435 342.398 814.632 342.826 814.764 343.324C814.901 343.817 814.969 344.366 814.969 344.972ZM813.607 345.125V344.972C813.607 344.576 813.565 344.205 813.482 343.858C813.399 343.507 813.27 343.199 813.094 342.936C812.923 342.667 812.704 342.457 812.435 342.306C812.167 342.149 811.847 342.071 811.476 342.071C811.134 342.071 810.836 342.13 810.582 342.247C810.333 342.364 810.121 342.523 809.945 342.723C809.769 342.918 809.625 343.143 809.513 343.397C809.405 343.646 809.325 343.905 809.271 344.173V346.07C809.369 346.412 809.505 346.734 809.681 347.037C809.857 347.335 810.091 347.577 810.384 347.762C810.677 347.943 811.046 348.033 811.49 348.033C811.856 348.033 812.171 347.958 812.435 347.806C812.704 347.65 812.923 347.438 813.094 347.169C813.27 346.9 813.399 346.593 813.482 346.246C813.565 345.895 813.607 345.521 813.607 345.125ZM821.766 342.65V349H820.404V341.075H821.693L821.766 342.65ZM821.488 344.737L820.858 344.715C820.863 344.173 820.934 343.673 821.07 343.214C821.207 342.75 821.41 342.347 821.678 342.005C821.947 341.664 822.281 341.4 822.682 341.214C823.082 341.024 823.546 340.929 824.073 340.929C824.444 340.929 824.786 340.982 825.099 341.09C825.411 341.192 825.682 341.356 825.912 341.581C826.141 341.805 826.319 342.093 826.446 342.445C826.573 342.796 826.637 343.221 826.637 343.719V349H825.282V343.785C825.282 343.37 825.211 343.038 825.069 342.789C824.933 342.54 824.737 342.359 824.483 342.247C824.229 342.13 823.932 342.071 823.59 342.071C823.189 342.071 822.855 342.142 822.586 342.284C822.318 342.425 822.103 342.621 821.942 342.87C821.781 343.119 821.664 343.404 821.59 343.727C821.522 344.044 821.488 344.381 821.488 344.737ZM826.622 343.99L825.714 344.269C825.719 343.834 825.79 343.417 825.926 343.016C826.068 342.616 826.271 342.259 826.534 341.947C826.803 341.634 827.132 341.388 827.523 341.207C827.914 341.021 828.36 340.929 828.863 340.929C829.288 340.929 829.664 340.985 829.991 341.097C830.323 341.209 830.602 341.383 830.826 341.617C831.056 341.847 831.229 342.142 831.346 342.503C831.463 342.865 831.522 343.294 831.522 343.792V349H830.16V343.778C830.16 343.333 830.089 342.989 829.947 342.745C829.811 342.496 829.615 342.323 829.361 342.225C829.112 342.123 828.814 342.071 828.468 342.071C828.17 342.071 827.906 342.123 827.677 342.225C827.447 342.328 827.254 342.469 827.098 342.65C826.942 342.826 826.822 343.028 826.739 343.258C826.661 343.487 826.622 343.731 826.622 343.99ZM836.861 349.146C836.31 349.146 835.809 349.054 835.36 348.868C834.916 348.678 834.532 348.412 834.21 348.07C833.893 347.728 833.648 347.323 833.478 346.854C833.307 346.385 833.221 345.873 833.221 345.316V345.008C833.221 344.364 833.316 343.79 833.507 343.287C833.697 342.779 833.956 342.35 834.283 341.998C834.61 341.646 834.981 341.38 835.396 341.2C835.812 341.019 836.241 340.929 836.686 340.929C837.252 340.929 837.74 341.026 838.15 341.222C838.565 341.417 838.905 341.69 839.168 342.042C839.432 342.389 839.627 342.799 839.754 343.272C839.881 343.741 839.945 344.254 839.945 344.811V345.418H834.027V344.312H838.59V344.21C838.57 343.858 838.497 343.517 838.37 343.185C838.248 342.853 838.053 342.579 837.784 342.364C837.516 342.149 837.149 342.042 836.686 342.042C836.378 342.042 836.095 342.108 835.836 342.24C835.577 342.367 835.355 342.557 835.169 342.811C834.984 343.065 834.84 343.375 834.737 343.741C834.635 344.107 834.583 344.53 834.583 345.008V345.316C834.583 345.692 834.635 346.046 834.737 346.378C834.845 346.705 834.999 346.993 835.199 347.242C835.404 347.491 835.65 347.687 835.938 347.828C836.231 347.97 836.563 348.041 836.935 348.041C837.413 348.041 837.818 347.943 838.15 347.748C838.482 347.552 838.773 347.291 839.022 346.964L839.842 347.616C839.671 347.875 839.454 348.121 839.19 348.355C838.927 348.59 838.602 348.78 838.216 348.927C837.835 349.073 837.384 349.146 836.861 349.146ZM847.254 347.594L849.291 341.075H850.184L850.008 342.372L847.936 349H847.064L847.254 347.594ZM845.885 341.075L847.621 347.667L847.745 349H846.83L844.53 341.075H845.885ZM852.132 347.616L853.788 341.075H855.135L852.835 349H851.927L852.132 347.616ZM850.382 341.075L852.374 347.484L852.601 349H851.737L849.605 342.357L849.43 341.075H850.382ZM857.999 341.075V349H856.637V341.075H857.999ZM856.534 338.973C856.534 338.753 856.6 338.568 856.732 338.417C856.869 338.265 857.069 338.189 857.333 338.189C857.591 338.189 857.789 338.265 857.926 338.417C858.067 338.568 858.138 338.753 858.138 338.973C858.138 339.183 858.067 339.364 857.926 339.515C857.789 339.662 857.591 339.735 857.333 339.735C857.069 339.735 856.869 339.662 856.732 339.515C856.6 339.364 856.534 339.183 856.534 338.973ZM863.492 341.075V342.115H859.208V341.075H863.492ZM860.658 339.149H862.013V347.037C862.013 347.306 862.054 347.508 862.137 347.645C862.22 347.782 862.328 347.872 862.459 347.916C862.591 347.96 862.733 347.982 862.884 347.982C862.997 347.982 863.114 347.972 863.236 347.953C863.363 347.928 863.458 347.909 863.521 347.894L863.529 349C863.421 349.034 863.28 349.066 863.104 349.095C862.933 349.129 862.726 349.146 862.481 349.146C862.149 349.146 861.844 349.081 861.566 348.949C861.288 348.817 861.065 348.597 860.899 348.29C860.738 347.977 860.658 347.557 860.658 347.03V339.149ZM866.437 337.75V349H865.082V337.75H866.437ZM866.114 344.737L865.55 344.715C865.555 344.173 865.636 343.673 865.792 343.214C865.948 342.75 866.168 342.347 866.451 342.005C866.734 341.664 867.071 341.4 867.462 341.214C867.857 341.024 868.294 340.929 868.773 340.929C869.164 340.929 869.515 340.982 869.828 341.09C870.14 341.192 870.406 341.358 870.626 341.588C870.851 341.817 871.021 342.115 871.139 342.481C871.256 342.843 871.314 343.285 871.314 343.807V349H869.952V343.792C869.952 343.377 869.891 343.045 869.769 342.796C869.647 342.542 869.469 342.359 869.234 342.247C869 342.13 868.712 342.071 868.37 342.071C868.033 342.071 867.726 342.142 867.447 342.284C867.174 342.425 866.937 342.621 866.737 342.87C866.542 343.119 866.388 343.404 866.275 343.727C866.168 344.044 866.114 344.381 866.114 344.737ZM879.291 348.18L881.495 341.075H882.945L879.767 350.223C879.693 350.418 879.596 350.628 879.474 350.853C879.356 351.083 879.205 351.3 879.02 351.505C878.834 351.71 878.609 351.876 878.346 352.003C878.087 352.135 877.777 352.201 877.416 352.201C877.308 352.201 877.171 352.186 877.005 352.157C876.839 352.127 876.722 352.103 876.654 352.083L876.646 350.985C876.686 350.99 876.747 350.995 876.83 351C876.917 351.009 876.979 351.014 877.013 351.014C877.32 351.014 877.582 350.973 877.796 350.89C878.011 350.812 878.192 350.677 878.338 350.487C878.49 350.301 878.619 350.045 878.727 349.718L879.291 348.18ZM877.672 341.075L879.73 347.228L880.082 348.656L879.107 349.154L876.192 341.075H877.672ZM883.692 345.125V344.957C883.692 344.386 883.775 343.856 883.941 343.368C884.107 342.875 884.347 342.447 884.659 342.086C884.972 341.72 885.35 341.437 885.794 341.236C886.239 341.031 886.737 340.929 887.289 340.929C887.845 340.929 888.346 341.031 888.79 341.236C889.239 341.437 889.62 341.72 889.933 342.086C890.25 342.447 890.492 342.875 890.658 343.368C890.824 343.856 890.907 344.386 890.907 344.957V345.125C890.907 345.697 890.824 346.227 890.658 346.715C890.492 347.203 890.25 347.63 889.933 347.997C889.62 348.358 889.242 348.641 888.797 348.846C888.358 349.046 887.86 349.146 887.303 349.146C886.747 349.146 886.246 349.046 885.802 348.846C885.357 348.641 884.977 348.358 884.659 347.997C884.347 347.63 884.107 347.203 883.941 346.715C883.775 346.227 883.692 345.697 883.692 345.125ZM885.047 344.957V345.125C885.047 345.521 885.094 345.895 885.187 346.246C885.279 346.593 885.418 346.9 885.604 347.169C885.794 347.438 886.031 347.65 886.314 347.806C886.598 347.958 886.927 348.033 887.303 348.033C887.674 348.033 887.999 347.958 888.277 347.806C888.561 347.65 888.795 347.438 888.98 347.169C889.166 346.9 889.305 346.593 889.398 346.246C889.496 345.895 889.544 345.521 889.544 345.125V344.957C889.544 344.566 889.496 344.198 889.398 343.851C889.305 343.5 889.164 343.189 888.973 342.921C888.788 342.647 888.553 342.433 888.27 342.276C887.992 342.12 887.665 342.042 887.289 342.042C886.917 342.042 886.59 342.12 886.307 342.276C886.029 342.433 885.794 342.647 885.604 342.921C885.418 343.189 885.279 343.5 885.187 343.851C885.094 344.198 885.047 344.566 885.047 344.957ZM897.455 347.169V341.075H898.817V349H897.521L897.455 347.169ZM897.711 345.499L898.275 345.484C898.275 346.012 898.219 346.5 898.106 346.949C897.999 347.394 897.823 347.779 897.579 348.106C897.335 348.434 897.015 348.69 896.62 348.875C896.224 349.056 895.743 349.146 895.177 349.146C894.791 349.146 894.437 349.09 894.115 348.978C893.797 348.866 893.524 348.692 893.294 348.458C893.065 348.224 892.887 347.918 892.76 347.542C892.638 347.167 892.577 346.715 892.577 346.188V341.075H893.932V346.202C893.932 346.559 893.971 346.854 894.049 347.088C894.132 347.318 894.242 347.501 894.378 347.638C894.52 347.77 894.676 347.862 894.847 347.916C895.023 347.97 895.204 347.997 895.389 347.997C895.965 347.997 896.422 347.887 896.759 347.667C897.096 347.442 897.337 347.142 897.484 346.766C897.635 346.385 897.711 345.963 897.711 345.499ZM902.237 342.32V349H900.882V341.075H902.201L902.237 342.32ZM904.713 341.031L904.706 342.291C904.593 342.267 904.486 342.252 904.383 342.247C904.286 342.237 904.173 342.232 904.046 342.232C903.734 342.232 903.458 342.281 903.219 342.379C902.979 342.477 902.777 342.613 902.611 342.789C902.445 342.965 902.313 343.175 902.215 343.419C902.123 343.658 902.062 343.922 902.032 344.21L901.651 344.43C901.651 343.951 901.698 343.502 901.791 343.082C901.888 342.662 902.037 342.291 902.237 341.969C902.438 341.642 902.691 341.388 902.999 341.207C903.312 341.021 903.683 340.929 904.112 340.929C904.21 340.929 904.322 340.941 904.449 340.965C904.576 340.985 904.664 341.007 904.713 341.031ZM911.158 337.75V349H909.796V337.75H911.158ZM912.975 345.125V344.957C912.975 344.386 913.058 343.856 913.224 343.368C913.39 342.875 913.629 342.447 913.941 342.086C914.254 341.72 914.632 341.437 915.077 341.236C915.521 341.031 916.019 340.929 916.571 340.929C917.127 340.929 917.628 341.031 918.072 341.236C918.521 341.437 918.902 341.72 919.215 342.086C919.532 342.447 919.774 342.875 919.94 343.368C920.106 343.856 920.189 344.386 920.189 344.957V345.125C920.189 345.697 920.106 346.227 919.94 346.715C919.774 347.203 919.532 347.63 919.215 347.997C918.902 348.358 918.524 348.641 918.08 348.846C917.64 349.046 917.142 349.146 916.585 349.146C916.029 349.146 915.528 349.046 915.084 348.846C914.64 348.641 914.259 348.358 913.941 347.997C913.629 347.63 913.39 347.203 913.224 346.715C913.058 346.227 912.975 345.697 912.975 345.125ZM914.33 344.957V345.125C914.33 345.521 914.376 345.895 914.469 346.246C914.562 346.593 914.701 346.9 914.886 347.169C915.077 347.438 915.313 347.65 915.597 347.806C915.88 347.958 916.209 348.033 916.585 348.033C916.957 348.033 917.281 347.958 917.56 347.806C917.843 347.65 918.077 347.438 918.263 347.169C918.448 346.9 918.587 346.593 918.68 346.246C918.778 345.895 918.827 345.521 918.827 345.125V344.957C918.827 344.566 918.778 344.198 918.68 343.851C918.587 343.5 918.446 343.189 918.255 342.921C918.07 342.647 917.835 342.433 917.552 342.276C917.274 342.12 916.947 342.042 916.571 342.042C916.2 342.042 915.873 342.12 915.589 342.276C915.311 342.433 915.077 342.647 914.886 342.921C914.701 343.189 914.562 343.5 914.469 343.851C914.376 344.198 914.33 344.566 914.33 344.957ZM925.06 348.033C925.382 348.033 925.68 347.967 925.953 347.835C926.227 347.704 926.451 347.523 926.627 347.293C926.803 347.059 926.903 346.793 926.927 346.495H928.216C928.192 346.964 928.033 347.401 927.74 347.806C927.452 348.207 927.074 348.531 926.605 348.78C926.136 349.024 925.621 349.146 925.06 349.146C924.464 349.146 923.944 349.042 923.5 348.832C923.06 348.622 922.694 348.333 922.401 347.967C922.113 347.601 921.896 347.181 921.749 346.708C921.607 346.229 921.537 345.724 921.537 345.191V344.884C921.537 344.352 921.607 343.849 921.749 343.375C921.896 342.896 922.113 342.474 922.401 342.108C922.694 341.742 923.06 341.454 923.5 341.244C923.944 341.034 924.464 340.929 925.06 340.929C925.68 340.929 926.222 341.056 926.686 341.31C927.149 341.559 927.513 341.9 927.777 342.335C928.045 342.765 928.192 343.253 928.216 343.8H926.927C926.903 343.473 926.81 343.177 926.649 342.914C926.493 342.65 926.278 342.44 926.004 342.284C925.736 342.123 925.421 342.042 925.06 342.042C924.645 342.042 924.295 342.125 924.012 342.291C923.734 342.452 923.512 342.672 923.346 342.95C923.185 343.224 923.067 343.529 922.994 343.866C922.926 344.198 922.892 344.537 922.892 344.884V345.191C922.892 345.538 922.926 345.88 922.994 346.217C923.062 346.554 923.177 346.859 923.338 347.132C923.504 347.406 923.727 347.625 924.005 347.792C924.288 347.953 924.64 348.033 925.06 348.033ZM934.413 347.645V343.565C934.413 343.253 934.349 342.982 934.222 342.752C934.1 342.518 933.915 342.337 933.666 342.21C933.417 342.083 933.109 342.02 932.743 342.02C932.401 342.02 932.101 342.079 931.842 342.196C931.588 342.313 931.388 342.467 931.241 342.657C931.1 342.848 931.029 343.053 931.029 343.272H929.674C929.674 342.989 929.747 342.708 929.894 342.43C930.04 342.152 930.25 341.9 930.523 341.676C930.802 341.446 931.134 341.266 931.52 341.134C931.91 340.997 932.345 340.929 932.823 340.929C933.399 340.929 933.907 341.026 934.347 341.222C934.791 341.417 935.138 341.712 935.387 342.108C935.641 342.499 935.768 342.989 935.768 343.58V347.271C935.768 347.535 935.79 347.816 935.833 348.114C935.882 348.412 935.953 348.668 936.046 348.883V349H934.632C934.564 348.844 934.51 348.636 934.471 348.377C934.432 348.114 934.413 347.87 934.413 347.645ZM934.647 344.195L934.662 345.147H933.292C932.906 345.147 932.562 345.179 932.259 345.243C931.957 345.301 931.703 345.392 931.498 345.514C931.292 345.636 931.136 345.79 931.029 345.975C930.921 346.156 930.868 346.368 930.868 346.612C930.868 346.861 930.924 347.088 931.036 347.293C931.148 347.499 931.317 347.662 931.542 347.784C931.771 347.901 932.052 347.96 932.384 347.96C932.799 347.96 933.165 347.872 933.482 347.696C933.8 347.521 934.051 347.306 934.237 347.052C934.427 346.798 934.53 346.551 934.544 346.312L935.123 346.964C935.089 347.169 934.996 347.396 934.845 347.645C934.693 347.894 934.491 348.133 934.237 348.363C933.988 348.587 933.69 348.775 933.343 348.927C933.001 349.073 932.616 349.146 932.186 349.146C931.649 349.146 931.178 349.042 930.772 348.832C930.372 348.622 930.06 348.341 929.835 347.989C929.615 347.633 929.505 347.235 929.505 346.795C929.505 346.371 929.588 345.997 929.754 345.675C929.92 345.348 930.16 345.077 930.472 344.862C930.785 344.642 931.161 344.476 931.6 344.364C932.04 344.251 932.53 344.195 933.072 344.195H934.647ZM939.371 337.75V349H938.009V337.75H939.371ZM588.204 372.033C588.526 372.033 588.824 371.967 589.098 371.835C589.371 371.704 589.596 371.523 589.771 371.293C589.947 371.059 590.047 370.793 590.072 370.495H591.361C591.336 370.964 591.178 371.401 590.885 371.806C590.597 372.207 590.218 372.531 589.75 372.78C589.281 373.024 588.766 373.146 588.204 373.146C587.608 373.146 587.088 373.042 586.644 372.832C586.205 372.622 585.838 372.333 585.545 371.967C585.257 371.601 585.04 371.181 584.894 370.708C584.752 370.229 584.681 369.724 584.681 369.191V368.884C584.681 368.352 584.752 367.849 584.894 367.375C585.04 366.896 585.257 366.474 585.545 366.108C585.838 365.742 586.205 365.454 586.644 365.244C587.088 365.034 587.608 364.929 588.204 364.929C588.824 364.929 589.366 365.056 589.83 365.31C590.294 365.559 590.658 365.9 590.921 366.335C591.19 366.765 591.336 367.253 591.361 367.8H590.072C590.047 367.473 589.955 367.177 589.793 366.914C589.637 366.65 589.422 366.44 589.149 366.284C588.88 366.123 588.565 366.042 588.204 366.042C587.789 366.042 587.44 366.125 587.157 366.291C586.878 366.452 586.656 366.672 586.49 366.95C586.329 367.224 586.212 367.529 586.139 367.866C586.07 368.198 586.036 368.537 586.036 368.884V369.191C586.036 369.538 586.07 369.88 586.139 370.217C586.207 370.554 586.322 370.859 586.483 371.132C586.649 371.406 586.871 371.625 587.149 371.792C587.433 371.953 587.784 372.033 588.204 372.033ZM592.525 369.125V368.957C592.525 368.386 592.608 367.856 592.774 367.368C592.94 366.875 593.18 366.447 593.492 366.086C593.805 365.72 594.183 365.437 594.627 365.236C595.072 365.031 595.57 364.929 596.122 364.929C596.678 364.929 597.179 365.031 597.623 365.236C598.072 365.437 598.453 365.72 598.766 366.086C599.083 366.447 599.325 366.875 599.491 367.368C599.657 367.856 599.74 368.386 599.74 368.957V369.125C599.74 369.697 599.657 370.227 599.491 370.715C599.325 371.203 599.083 371.63 598.766 371.997C598.453 372.358 598.075 372.641 597.63 372.846C597.191 373.046 596.693 373.146 596.136 373.146C595.58 373.146 595.079 373.046 594.635 372.846C594.19 372.641 593.81 372.358 593.492 371.997C593.18 371.63 592.94 371.203 592.774 370.715C592.608 370.227 592.525 369.697 592.525 369.125ZM593.88 368.957V369.125C593.88 369.521 593.927 369.895 594.02 370.246C594.112 370.593 594.251 370.9 594.437 371.169C594.627 371.438 594.864 371.65 595.147 371.806C595.431 371.958 595.76 372.033 596.136 372.033C596.507 372.033 596.832 371.958 597.11 371.806C597.394 371.65 597.628 371.438 597.813 371.169C597.999 370.9 598.138 370.593 598.231 370.246C598.329 369.895 598.377 369.521 598.377 369.125V368.957C598.377 368.566 598.329 368.198 598.231 367.851C598.138 367.5 597.997 367.189 597.806 366.921C597.621 366.647 597.386 366.433 597.103 366.276C596.825 366.12 596.498 366.042 596.122 366.042C595.75 366.042 595.423 366.12 595.14 366.276C594.862 366.433 594.627 366.647 594.437 366.921C594.251 367.189 594.112 367.5 594.02 367.851C593.927 368.198 593.88 368.566 593.88 368.957ZM602.787 366.65V373H601.424V365.075H602.713L602.787 366.65ZM602.508 368.737L601.878 368.715C601.883 368.173 601.954 367.673 602.091 367.214C602.228 366.75 602.43 366.347 602.699 366.005C602.967 365.664 603.302 365.4 603.702 365.214C604.103 365.024 604.566 364.929 605.094 364.929C605.465 364.929 605.807 364.982 606.119 365.09C606.432 365.192 606.703 365.356 606.932 365.581C607.162 365.805 607.34 366.093 607.467 366.445C607.594 366.796 607.657 367.221 607.657 367.719V373H606.302V367.785C606.302 367.37 606.231 367.038 606.09 366.789C605.953 366.54 605.758 366.359 605.504 366.247C605.25 366.13 604.952 366.071 604.61 366.071C604.21 366.071 603.875 366.142 603.607 366.284C603.338 366.425 603.124 366.621 602.962 366.87C602.801 367.119 602.684 367.404 602.611 367.727C602.542 368.044 602.508 368.381 602.508 368.737ZM607.643 367.99L606.734 368.269C606.739 367.834 606.81 367.417 606.947 367.016C607.088 366.616 607.291 366.259 607.555 365.947C607.823 365.634 608.153 365.388 608.543 365.207C608.934 365.021 609.381 364.929 609.884 364.929C610.309 364.929 610.685 364.985 611.012 365.097C611.344 365.209 611.622 365.383 611.847 365.617C612.076 365.847 612.25 366.142 612.367 366.503C612.484 366.865 612.542 367.294 612.542 367.792V373H611.18V367.778C611.18 367.333 611.109 366.989 610.968 366.745C610.831 366.496 610.636 366.323 610.382 366.225C610.133 366.123 609.835 366.071 609.488 366.071C609.19 366.071 608.927 366.123 608.697 366.225C608.468 366.328 608.275 366.469 608.119 366.65C607.962 366.826 607.843 367.028 607.76 367.258C607.682 367.487 607.643 367.731 607.643 367.99ZM615.948 366.599V376.047H614.586V365.075H615.831L615.948 366.599ZM621.288 368.972V369.125C621.288 369.702 621.219 370.236 621.083 370.729C620.946 371.218 620.746 371.643 620.482 372.004C620.223 372.365 619.903 372.646 619.522 372.846C619.142 373.046 618.705 373.146 618.211 373.146C617.708 373.146 617.264 373.063 616.878 372.897C616.493 372.731 616.166 372.49 615.897 372.172C615.628 371.855 615.414 371.474 615.252 371.03C615.096 370.585 614.989 370.085 614.93 369.528V368.708C614.989 368.122 615.099 367.597 615.26 367.133C615.421 366.669 615.633 366.274 615.897 365.947C616.166 365.615 616.49 365.363 616.871 365.192C617.252 365.017 617.691 364.929 618.189 364.929C618.688 364.929 619.129 365.026 619.515 365.222C619.901 365.412 620.226 365.686 620.489 366.042C620.753 366.398 620.951 366.826 621.083 367.324C621.219 367.817 621.288 368.366 621.288 368.972ZM619.925 369.125V368.972C619.925 368.576 619.884 368.205 619.801 367.858C619.718 367.507 619.588 367.199 619.413 366.936C619.242 366.667 619.022 366.457 618.753 366.306C618.485 366.149 618.165 366.071 617.794 366.071C617.452 366.071 617.154 366.13 616.9 366.247C616.651 366.364 616.439 366.523 616.263 366.723C616.087 366.918 615.943 367.143 615.831 367.397C615.724 367.646 615.643 367.905 615.589 368.173V370.07C615.687 370.412 615.824 370.734 616 371.037C616.175 371.335 616.41 371.577 616.703 371.762C616.996 371.943 617.364 372.033 617.809 372.033C618.175 372.033 618.49 371.958 618.753 371.806C619.022 371.65 619.242 371.438 619.413 371.169C619.588 370.9 619.718 370.593 619.801 370.246C619.884 369.895 619.925 369.521 619.925 369.125ZM622.657 369.125V368.957C622.657 368.386 622.74 367.856 622.906 367.368C623.072 366.875 623.312 366.447 623.624 366.086C623.937 365.72 624.315 365.437 624.759 365.236C625.204 365.031 625.702 364.929 626.253 364.929C626.81 364.929 627.311 365.031 627.755 365.236C628.204 365.437 628.585 365.72 628.897 366.086C629.215 366.447 629.457 366.875 629.623 367.368C629.789 367.856 629.872 368.386 629.872 368.957V369.125C629.872 369.697 629.789 370.227 629.623 370.715C629.457 371.203 629.215 371.63 628.897 371.997C628.585 372.358 628.207 372.641 627.762 372.846C627.323 373.046 626.825 373.146 626.268 373.146C625.711 373.146 625.211 373.046 624.767 372.846C624.322 372.641 623.941 372.358 623.624 371.997C623.312 371.63 623.072 371.203 622.906 370.715C622.74 370.227 622.657 369.697 622.657 369.125ZM624.012 368.957V369.125C624.012 369.521 624.059 369.895 624.151 370.246C624.244 370.593 624.383 370.9 624.569 371.169C624.759 371.438 624.996 371.65 625.279 371.806C625.562 371.958 625.892 372.033 626.268 372.033C626.639 372.033 626.964 371.958 627.242 371.806C627.525 371.65 627.76 371.438 627.945 371.169C628.131 370.9 628.27 370.593 628.363 370.246C628.46 369.895 628.509 369.521 628.509 369.125V368.957C628.509 368.566 628.46 368.198 628.363 367.851C628.27 367.5 628.128 367.189 627.938 366.921C627.752 366.647 627.518 366.433 627.235 366.276C626.957 366.12 626.629 366.042 626.253 366.042C625.882 366.042 625.555 366.12 625.272 366.276C624.994 366.433 624.759 366.647 624.569 366.921C624.383 367.189 624.244 367.5 624.151 367.851C624.059 368.198 624.012 368.566 624.012 368.957ZM632.926 366.767V373H631.571V365.075H632.853L632.926 366.767ZM632.604 368.737L632.04 368.715C632.044 368.173 632.125 367.673 632.281 367.214C632.438 366.75 632.657 366.347 632.94 366.005C633.224 365.664 633.561 365.4 633.951 365.214C634.347 365.024 634.784 364.929 635.262 364.929C635.653 364.929 636.004 364.982 636.317 365.09C636.629 365.192 636.896 365.358 637.115 365.588C637.34 365.817 637.511 366.115 637.628 366.481C637.745 366.843 637.804 367.285 637.804 367.807V373H636.441V367.792C636.441 367.377 636.38 367.045 636.258 366.796C636.136 366.542 635.958 366.359 635.724 366.247C635.489 366.13 635.201 366.071 634.859 366.071C634.522 366.071 634.215 366.142 633.937 366.284C633.663 366.425 633.426 366.621 633.226 366.87C633.031 367.119 632.877 367.404 632.765 367.727C632.657 368.044 632.604 368.381 632.604 368.737ZM643.15 373.146C642.599 373.146 642.098 373.054 641.649 372.868C641.205 372.678 640.821 372.412 640.499 372.07C640.182 371.728 639.938 371.323 639.767 370.854C639.596 370.385 639.51 369.873 639.51 369.316V369.008C639.51 368.364 639.605 367.79 639.796 367.287C639.986 366.779 640.245 366.35 640.572 365.998C640.899 365.646 641.271 365.38 641.686 365.2C642.101 365.019 642.53 364.929 642.975 364.929C643.541 364.929 644.029 365.026 644.439 365.222C644.854 365.417 645.194 365.69 645.458 366.042C645.721 366.389 645.917 366.799 646.043 367.272C646.17 367.741 646.234 368.254 646.234 368.811V369.418H640.316V368.312H644.879V368.21C644.859 367.858 644.786 367.517 644.659 367.185C644.537 366.853 644.342 366.579 644.073 366.364C643.805 366.149 643.438 366.042 642.975 366.042C642.667 366.042 642.384 366.108 642.125 366.24C641.866 366.367 641.644 366.557 641.458 366.811C641.273 367.065 641.129 367.375 641.026 367.741C640.924 368.107 640.873 368.53 640.873 369.008V369.316C640.873 369.692 640.924 370.046 641.026 370.378C641.134 370.705 641.288 370.993 641.488 371.242C641.693 371.491 641.939 371.687 642.228 371.828C642.521 371.97 642.853 372.041 643.224 372.041C643.702 372.041 644.107 371.943 644.439 371.748C644.771 371.552 645.062 371.291 645.311 370.964L646.131 371.616C645.96 371.875 645.743 372.121 645.479 372.355C645.216 372.59 644.891 372.78 644.505 372.927C644.125 373.073 643.673 373.146 643.15 373.146ZM649.171 366.767V373H647.816V365.075H649.098L649.171 366.767ZM648.849 368.737L648.285 368.715C648.29 368.173 648.37 367.673 648.526 367.214C648.683 366.75 648.902 366.347 649.186 366.005C649.469 365.664 649.806 365.4 650.196 365.214C650.592 365.024 651.029 364.929 651.507 364.929C651.898 364.929 652.25 364.982 652.562 365.09C652.875 365.192 653.141 365.358 653.36 365.588C653.585 365.817 653.756 366.115 653.873 366.481C653.99 366.843 654.049 367.285 654.049 367.807V373H652.687V367.792C652.687 367.377 652.625 367.045 652.503 366.796C652.381 366.542 652.203 366.359 651.969 366.247C651.734 366.13 651.446 366.071 651.104 366.071C650.768 366.071 650.46 366.142 650.182 366.284C649.908 366.425 649.671 366.621 649.471 366.87C649.276 367.119 649.122 367.404 649.01 367.727C648.902 368.044 648.849 368.381 648.849 368.737ZM659.425 365.075V366.115H655.14V365.075H659.425ZM656.59 363.149H657.945V371.037C657.945 371.306 657.987 371.508 658.07 371.645C658.153 371.782 658.26 371.872 658.392 371.916C658.524 371.96 658.666 371.982 658.817 371.982C658.929 371.982 659.046 371.972 659.168 371.953C659.295 371.928 659.391 371.909 659.454 371.894L659.461 373C659.354 373.034 659.212 373.066 659.037 373.095C658.866 373.129 658.658 373.146 658.414 373.146C658.082 373.146 657.777 373.081 657.499 372.949C657.22 372.817 656.998 372.597 656.832 372.29C656.671 371.977 656.59 371.557 656.59 371.03V363.149ZM661.036 372.282C661.036 372.053 661.107 371.86 661.249 371.704C661.395 371.542 661.605 371.462 661.878 371.462C662.152 371.462 662.359 371.542 662.501 371.704C662.647 371.86 662.721 372.053 662.721 372.282C662.721 372.507 662.647 372.697 662.501 372.854C662.359 373.01 662.152 373.088 661.878 373.088C661.605 373.088 661.395 373.01 661.249 372.854C661.107 372.697 661.036 372.507 661.036 372.282Z" fill="#505050"/>
<path d="M716.471 426.336V437H714.647V426.336H716.471ZM719.818 426.336V427.801H711.33V426.336H719.818ZM723.839 437.146C723.253 437.146 722.724 437.051 722.25 436.861C721.781 436.666 721.381 436.395 721.049 436.048C720.722 435.701 720.47 435.293 720.294 434.825C720.119 434.356 720.031 433.851 720.031 433.309V433.016C720.031 432.396 720.121 431.834 720.302 431.331C720.482 430.828 720.734 430.398 721.056 430.042C721.378 429.681 721.759 429.405 722.199 429.214C722.638 429.024 723.114 428.929 723.627 428.929C724.193 428.929 724.689 429.024 725.114 429.214C725.539 429.405 725.89 429.673 726.168 430.02C726.452 430.362 726.662 430.77 726.798 431.243C726.94 431.717 727.011 432.239 727.011 432.811V433.565H720.888V432.298H725.268V432.159C725.258 431.841 725.194 431.543 725.077 431.265C724.965 430.987 724.792 430.762 724.557 430.591C724.323 430.42 724.01 430.335 723.62 430.335C723.327 430.335 723.065 430.398 722.836 430.525C722.611 430.647 722.423 430.826 722.272 431.06C722.121 431.294 722.003 431.578 721.92 431.91C721.842 432.237 721.803 432.605 721.803 433.016V433.309C721.803 433.655 721.85 433.978 721.942 434.275C722.04 434.568 722.182 434.825 722.367 435.044C722.553 435.264 722.777 435.438 723.041 435.564C723.305 435.687 723.605 435.748 723.942 435.748C724.367 435.748 724.745 435.662 725.077 435.491C725.409 435.32 725.697 435.079 725.941 434.766L726.872 435.667C726.701 435.916 726.479 436.155 726.205 436.385C725.932 436.609 725.597 436.792 725.202 436.934C724.811 437.076 724.357 437.146 723.839 437.146ZM730.16 430.584V437H728.395V429.075H730.08L730.16 430.584ZM732.584 429.024L732.57 430.665C732.462 430.645 732.345 430.63 732.218 430.621C732.096 430.611 731.974 430.606 731.852 430.606C731.549 430.606 731.283 430.65 731.054 430.738C730.824 430.821 730.631 430.943 730.475 431.104C730.324 431.26 730.207 431.451 730.124 431.675C730.041 431.9 729.992 432.151 729.977 432.43L729.574 432.459C729.574 431.961 729.623 431.5 729.721 431.075C729.818 430.65 729.965 430.276 730.16 429.954C730.36 429.632 730.609 429.38 730.907 429.2C731.21 429.019 731.559 428.929 731.955 428.929C732.062 428.929 732.177 428.938 732.299 428.958C732.426 428.978 732.521 429 732.584 429.024ZM737.689 429.075V430.364H733.222V429.075H737.689ZM734.511 427.134H736.276V434.81C736.276 435.054 736.31 435.242 736.378 435.374C736.452 435.501 736.552 435.586 736.679 435.63C736.806 435.674 736.955 435.696 737.125 435.696C737.248 435.696 737.365 435.689 737.477 435.674C737.589 435.66 737.68 435.645 737.748 435.63L737.755 436.978C737.609 437.022 737.438 437.061 737.243 437.095C737.052 437.129 736.833 437.146 736.583 437.146C736.178 437.146 735.819 437.076 735.507 436.934C735.194 436.788 734.95 436.551 734.774 436.224C734.599 435.896 734.511 435.462 734.511 434.92V427.134ZM740.941 429.075V437H739.169V429.075H740.941ZM739.052 426.995C739.052 426.727 739.14 426.504 739.315 426.329C739.496 426.148 739.745 426.058 740.062 426.058C740.375 426.058 740.622 426.148 740.802 426.329C740.983 426.504 741.073 426.727 741.073 426.995C741.073 427.259 740.983 427.479 740.802 427.654C740.622 427.83 740.375 427.918 740.062 427.918C739.745 427.918 739.496 427.83 739.315 427.654C739.14 427.479 739.052 427.259 739.052 426.995ZM744.647 430.584V437H742.882V429.075H744.567L744.647 430.584ZM747.072 429.024L747.057 430.665C746.95 430.645 746.833 430.63 746.706 430.621C746.583 430.611 746.461 430.606 746.339 430.606C746.037 430.606 745.771 430.65 745.541 430.738C745.312 430.821 745.119 430.943 744.962 431.104C744.811 431.26 744.694 431.451 744.611 431.675C744.528 431.9 744.479 432.151 744.464 432.43L744.062 432.459C744.062 431.961 744.11 431.5 744.208 431.075C744.306 430.65 744.452 430.276 744.647 429.954C744.848 429.632 745.097 429.38 745.395 429.2C745.697 429.019 746.046 428.929 746.442 428.929C746.549 428.929 746.664 428.938 746.786 428.958C746.913 428.978 747.008 429 747.072 429.024ZM752.382 435.411V431.631C752.382 431.348 752.331 431.104 752.228 430.899C752.125 430.694 751.969 430.535 751.759 430.423C751.554 430.311 751.295 430.254 750.983 430.254C750.695 430.254 750.446 430.303 750.236 430.401C750.026 430.499 749.862 430.63 749.745 430.796C749.628 430.962 749.569 431.15 749.569 431.36H747.812C747.812 431.048 747.887 430.745 748.039 430.452C748.19 430.159 748.41 429.898 748.698 429.668C748.986 429.439 749.33 429.258 749.73 429.126C750.131 428.995 750.58 428.929 751.078 428.929C751.674 428.929 752.201 429.029 752.66 429.229C753.124 429.429 753.488 429.732 753.751 430.137C754.02 430.538 754.154 431.041 754.154 431.646V435.169C754.154 435.53 754.179 435.855 754.228 436.143C754.281 436.426 754.357 436.673 754.455 436.883V437H752.646C752.562 436.81 752.497 436.568 752.448 436.275C752.404 435.977 752.382 435.689 752.382 435.411ZM752.638 432.181L752.653 433.272H751.386C751.059 433.272 750.771 433.304 750.521 433.367C750.272 433.426 750.065 433.514 749.899 433.631C749.733 433.748 749.608 433.89 749.525 434.056C749.442 434.222 749.401 434.41 749.401 434.62C749.401 434.83 749.45 435.022 749.547 435.198C749.645 435.369 749.787 435.503 749.972 435.601C750.163 435.699 750.392 435.748 750.661 435.748C751.022 435.748 751.337 435.674 751.605 435.528C751.879 435.376 752.094 435.193 752.25 434.979C752.406 434.759 752.489 434.551 752.499 434.356L753.07 435.14C753.012 435.34 752.912 435.555 752.77 435.784C752.628 436.014 752.443 436.233 752.213 436.443C751.989 436.648 751.718 436.817 751.4 436.949C751.088 437.081 750.727 437.146 750.316 437.146C749.799 437.146 749.337 437.044 748.932 436.839C748.527 436.629 748.209 436.348 747.98 435.997C747.75 435.64 747.636 435.237 747.636 434.788C747.636 434.368 747.714 433.997 747.87 433.675C748.031 433.348 748.266 433.074 748.573 432.854C748.886 432.635 749.267 432.469 749.716 432.356C750.165 432.239 750.678 432.181 751.254 432.181H752.638ZM758.183 436.136L760.336 429.075H762.226L759.047 438.208C758.974 438.404 758.878 438.616 758.761 438.846C758.644 439.075 758.49 439.292 758.3 439.498C758.114 439.708 757.882 439.876 757.604 440.003C757.326 440.135 756.989 440.201 756.593 440.201C756.437 440.201 756.286 440.186 756.139 440.157C755.998 440.132 755.863 440.105 755.736 440.076L755.729 438.729C755.778 438.733 755.836 438.738 755.905 438.743C755.978 438.748 756.037 438.75 756.081 438.75C756.374 438.75 756.618 438.714 756.813 438.641C757.008 438.572 757.167 438.46 757.289 438.304C757.416 438.147 757.523 437.938 757.611 437.674L758.183 436.136ZM756.967 429.075L758.849 435.008L759.164 436.868L757.941 437.183L755.062 429.075H756.967Z" fill="#1A1A1A"/>
<path d="M817.694 434.253C817.694 434.034 817.66 433.838 817.592 433.667C817.528 433.497 817.414 433.34 817.248 433.199C817.082 433.057 816.847 432.92 816.544 432.789C816.247 432.652 815.866 432.513 815.402 432.371C814.894 432.215 814.425 432.042 813.996 431.851C813.571 431.656 813.2 431.431 812.882 431.177C812.565 430.918 812.318 430.623 812.143 430.291C811.967 429.954 811.879 429.566 811.879 429.126C811.879 428.692 811.969 428.296 812.15 427.94C812.335 427.583 812.597 427.276 812.934 427.017C813.275 426.753 813.678 426.551 814.142 426.409C814.606 426.263 815.119 426.189 815.68 426.189C816.471 426.189 817.152 426.336 817.724 426.629C818.3 426.922 818.742 427.315 819.049 427.808C819.362 428.301 819.518 428.846 819.518 429.441H817.694C817.694 429.09 817.619 428.78 817.467 428.511C817.321 428.238 817.096 428.023 816.793 427.867C816.496 427.71 816.117 427.632 815.658 427.632C815.224 427.632 814.862 427.698 814.574 427.83C814.286 427.962 814.071 428.14 813.93 428.365C813.788 428.589 813.717 428.843 813.717 429.126C813.717 429.327 813.764 429.51 813.856 429.676C813.949 429.837 814.091 429.988 814.281 430.13C814.472 430.267 814.711 430.396 814.999 430.518C815.287 430.64 815.626 430.757 816.017 430.87C816.608 431.045 817.123 431.241 817.562 431.456C818.002 431.666 818.368 431.905 818.661 432.173C818.954 432.442 819.174 432.747 819.32 433.089C819.467 433.426 819.54 433.809 819.54 434.239C819.54 434.688 819.45 435.093 819.269 435.455C819.088 435.811 818.83 436.116 818.493 436.37C818.161 436.619 817.76 436.812 817.292 436.949C816.828 437.081 816.31 437.146 815.739 437.146C815.226 437.146 814.721 437.078 814.223 436.941C813.729 436.805 813.28 436.597 812.875 436.319C812.47 436.036 812.147 435.684 811.908 435.264C811.669 434.839 811.549 434.344 811.549 433.777H813.388C813.388 434.124 813.446 434.419 813.563 434.664C813.686 434.908 813.854 435.108 814.069 435.264C814.284 435.416 814.533 435.528 814.816 435.601C815.104 435.674 815.412 435.711 815.739 435.711C816.168 435.711 816.527 435.65 816.815 435.528C817.108 435.406 817.328 435.235 817.475 435.015C817.621 434.795 817.694 434.542 817.694 434.253ZM824.484 437.146C823.898 437.146 823.368 437.051 822.895 436.861C822.426 436.666 822.025 436.395 821.693 436.048C821.366 435.701 821.115 435.293 820.939 434.825C820.763 434.356 820.675 433.851 820.675 433.309V433.016C820.675 432.396 820.766 431.834 820.946 431.331C821.127 430.828 821.378 430.398 821.701 430.042C822.023 429.681 822.404 429.405 822.843 429.214C823.283 429.024 823.759 428.929 824.271 428.929C824.838 428.929 825.333 429.024 825.758 429.214C826.183 429.405 826.535 429.673 826.813 430.02C827.096 430.362 827.306 430.77 827.443 431.243C827.584 431.717 827.655 432.239 827.655 432.811V433.565H821.532V432.298H825.912V432.159C825.902 431.841 825.839 431.543 825.722 431.265C825.609 430.987 825.436 430.762 825.202 430.591C824.967 430.42 824.655 430.335 824.264 430.335C823.971 430.335 823.71 430.398 823.48 430.525C823.256 430.647 823.068 430.826 822.917 431.06C822.765 431.294 822.648 431.578 822.565 431.91C822.487 432.237 822.448 432.605 822.448 433.016V433.309C822.448 433.655 822.494 433.978 822.587 434.275C822.685 434.568 822.826 434.825 823.012 435.044C823.197 435.264 823.422 435.438 823.686 435.564C823.949 435.687 824.25 435.748 824.586 435.748C825.011 435.748 825.39 435.662 825.722 435.491C826.054 435.32 826.342 435.079 826.586 434.766L827.516 435.667C827.345 435.916 827.123 436.155 826.85 436.385C826.576 436.609 826.242 436.792 825.846 436.934C825.456 437.076 825.001 437.146 824.484 437.146ZM832.27 435.74C832.558 435.74 832.816 435.684 833.046 435.572C833.28 435.455 833.468 435.293 833.61 435.088C833.756 434.883 833.837 434.646 833.852 434.378H835.514C835.504 434.891 835.353 435.357 835.06 435.777C834.767 436.197 834.379 436.531 833.896 436.78C833.412 437.024 832.877 437.146 832.292 437.146C831.686 437.146 831.159 437.044 830.709 436.839C830.26 436.629 829.887 436.341 829.589 435.975C829.291 435.608 829.066 435.186 828.915 434.708C828.769 434.229 828.695 433.716 828.695 433.169V432.913C828.695 432.366 828.769 431.854 828.915 431.375C829.066 430.892 829.291 430.467 829.589 430.101C829.887 429.734 830.26 429.449 830.709 429.244C831.159 429.034 831.684 428.929 832.284 428.929C832.919 428.929 833.476 429.056 833.954 429.31C834.433 429.559 834.809 429.908 835.082 430.357C835.36 430.801 835.504 431.319 835.514 431.91H833.852C833.837 431.617 833.764 431.353 833.632 431.119C833.505 430.879 833.324 430.689 833.09 430.547C832.86 430.406 832.584 430.335 832.262 430.335C831.906 430.335 831.61 430.408 831.376 430.555C831.142 430.696 830.958 430.892 830.827 431.141C830.695 431.385 830.6 431.661 830.541 431.968C830.487 432.271 830.46 432.586 830.46 432.913V433.169C830.46 433.497 830.487 433.814 830.541 434.122C830.595 434.429 830.688 434.705 830.819 434.949C830.956 435.188 831.142 435.381 831.376 435.528C831.61 435.669 831.908 435.74 832.27 435.74ZM836.532 433.125V432.957C836.532 432.386 836.615 431.856 836.781 431.368C836.947 430.875 837.187 430.447 837.499 430.086C837.816 429.72 838.202 429.437 838.656 429.236C839.115 429.031 839.633 428.929 840.209 428.929C840.79 428.929 841.308 429.031 841.762 429.236C842.221 429.437 842.609 429.72 842.926 430.086C843.244 430.447 843.485 430.875 843.651 431.368C843.817 431.856 843.9 432.386 843.9 432.957V433.125C843.9 433.697 843.817 434.227 843.651 434.715C843.485 435.203 843.244 435.63 842.926 435.997C842.609 436.358 842.223 436.641 841.769 436.846C841.315 437.046 840.8 437.146 840.224 437.146C839.643 437.146 839.123 437.046 838.664 436.846C838.209 436.641 837.824 436.358 837.506 435.997C837.189 435.63 836.947 435.203 836.781 434.715C836.615 434.227 836.532 433.697 836.532 433.125ZM838.297 432.957V433.125C838.297 433.482 838.334 433.819 838.407 434.136C838.48 434.454 838.595 434.732 838.751 434.971C838.908 435.21 839.108 435.398 839.352 435.535C839.596 435.672 839.887 435.74 840.224 435.74C840.551 435.74 840.834 435.672 841.073 435.535C841.317 435.398 841.518 435.21 841.674 434.971C841.83 434.732 841.945 434.454 842.018 434.136C842.096 433.819 842.135 433.482 842.135 433.125V432.957C842.135 432.605 842.096 432.273 842.018 431.961C841.945 431.644 841.828 431.363 841.667 431.119C841.51 430.875 841.31 430.684 841.066 430.547C840.827 430.406 840.541 430.335 840.209 430.335C839.877 430.335 839.589 430.406 839.345 430.547C839.105 430.684 838.908 430.875 838.751 431.119C838.595 431.363 838.48 431.644 838.407 431.961C838.334 432.273 838.297 432.605 838.297 432.957ZM847.13 430.767V437H845.365V429.075H847.028L847.13 430.767ZM846.815 432.745L846.244 432.737C846.249 432.176 846.327 431.661 846.479 431.192C846.635 430.723 846.85 430.32 847.123 429.983C847.401 429.646 847.733 429.388 848.119 429.207C848.505 429.021 848.935 428.929 849.408 428.929C849.789 428.929 850.133 428.982 850.441 429.09C850.753 429.192 851.02 429.361 851.239 429.595C851.464 429.83 851.635 430.135 851.752 430.511C851.869 430.882 851.928 431.338 851.928 431.88V437H850.155V431.873C850.155 431.492 850.099 431.192 849.987 430.972C849.879 430.748 849.721 430.589 849.511 430.496C849.306 430.398 849.049 430.35 848.742 430.35C848.439 430.35 848.168 430.413 847.929 430.54C847.689 430.667 847.487 430.84 847.321 431.06C847.16 431.28 847.035 431.534 846.947 431.822C846.859 432.11 846.815 432.417 846.815 432.745ZM858.563 435.359V425.75H860.336V437H858.732L858.563 435.359ZM853.407 433.125V432.972C853.407 432.371 853.478 431.824 853.62 431.331C853.761 430.833 853.966 430.406 854.235 430.049C854.503 429.688 854.831 429.412 855.216 429.222C855.602 429.026 856.037 428.929 856.52 428.929C856.999 428.929 857.418 429.021 857.78 429.207C858.141 429.393 858.449 429.659 858.703 430.005C858.957 430.347 859.159 430.757 859.311 431.236C859.462 431.709 859.569 432.237 859.633 432.818V433.309C859.569 433.875 859.462 434.393 859.311 434.861C859.159 435.33 858.957 435.735 858.703 436.077C858.449 436.419 858.139 436.683 857.772 436.868C857.411 437.054 856.989 437.146 856.505 437.146C856.027 437.146 855.595 437.046 855.209 436.846C854.828 436.646 854.503 436.365 854.235 436.004C853.966 435.643 853.761 435.218 853.62 434.729C853.478 434.236 853.407 433.702 853.407 433.125ZM855.172 432.972V433.125C855.172 433.487 855.204 433.824 855.268 434.136C855.336 434.449 855.441 434.725 855.583 434.964C855.724 435.198 855.907 435.384 856.132 435.521C856.361 435.652 856.635 435.718 856.952 435.718C857.353 435.718 857.682 435.63 857.941 435.455C858.2 435.279 858.402 435.042 858.549 434.744C858.7 434.441 858.803 434.104 858.856 433.733V432.408C858.827 432.12 858.766 431.851 858.673 431.602C858.585 431.353 858.466 431.136 858.314 430.95C858.163 430.76 857.975 430.613 857.75 430.511C857.531 430.403 857.27 430.35 856.967 430.35C856.645 430.35 856.371 430.418 856.146 430.555C855.922 430.691 855.736 430.879 855.59 431.119C855.448 431.358 855.343 431.636 855.275 431.954C855.207 432.271 855.172 432.61 855.172 432.972ZM866.649 435.411V431.631C866.649 431.348 866.598 431.104 866.496 430.899C866.393 430.694 866.237 430.535 866.027 430.423C865.822 430.311 865.563 430.254 865.25 430.254C864.962 430.254 864.713 430.303 864.503 430.401C864.293 430.499 864.13 430.63 864.013 430.796C863.896 430.962 863.837 431.15 863.837 431.36H862.079C862.079 431.048 862.155 430.745 862.306 430.452C862.458 430.159 862.677 429.898 862.965 429.668C863.253 429.439 863.598 429.258 863.998 429.126C864.398 428.995 864.848 428.929 865.346 428.929C865.941 428.929 866.469 429.029 866.928 429.229C867.392 429.429 867.755 429.732 868.019 430.137C868.288 430.538 868.422 431.041 868.422 431.646V435.169C868.422 435.53 868.446 435.855 868.495 436.143C868.549 436.426 868.625 436.673 868.722 436.883V437H866.913C866.83 436.81 866.764 436.568 866.715 436.275C866.671 435.977 866.649 435.689 866.649 435.411ZM866.906 432.181L866.92 433.272H865.653C865.326 433.272 865.038 433.304 864.789 433.367C864.54 433.426 864.333 433.514 864.167 433.631C864 433.748 863.876 433.89 863.793 434.056C863.71 434.222 863.668 434.41 863.668 434.62C863.668 434.83 863.717 435.022 863.815 435.198C863.913 435.369 864.054 435.503 864.24 435.601C864.43 435.699 864.66 435.748 864.928 435.748C865.29 435.748 865.604 435.674 865.873 435.528C866.146 435.376 866.361 435.193 866.518 434.979C866.674 434.759 866.757 434.551 866.767 434.356L867.338 435.14C867.279 435.34 867.179 435.555 867.038 435.784C866.896 436.014 866.71 436.233 866.481 436.443C866.256 436.648 865.985 436.817 865.668 436.949C865.355 437.081 864.994 437.146 864.584 437.146C864.066 437.146 863.605 437.044 863.2 436.839C862.794 436.629 862.477 436.348 862.248 435.997C862.018 435.64 861.903 435.237 861.903 434.788C861.903 434.368 861.981 433.997 862.138 433.675C862.299 433.348 862.533 433.074 862.841 432.854C863.153 432.635 863.534 432.469 863.983 432.356C864.433 432.239 864.945 432.181 865.521 432.181H866.906ZM872.04 430.584V437H870.275V429.075H871.959L872.04 430.584ZM874.464 429.024L874.45 430.665C874.342 430.645 874.225 430.63 874.098 430.621C873.976 430.611 873.854 430.606 873.732 430.606C873.429 430.606 873.163 430.65 872.934 430.738C872.704 430.821 872.511 430.943 872.355 431.104C872.204 431.26 872.086 431.451 872.003 431.675C871.92 431.9 871.872 432.151 871.857 432.43L871.454 432.459C871.454 431.961 871.503 431.5 871.601 431.075C871.698 430.65 871.845 430.276 872.04 429.954C872.24 429.632 872.489 429.38 872.787 429.2C873.09 429.019 873.439 428.929 873.834 428.929C873.942 428.929 874.057 428.938 874.179 428.958C874.306 428.978 874.401 429 874.464 429.024ZM878.002 436.136L880.155 429.075H882.045L878.866 438.208C878.793 438.404 878.698 438.616 878.581 438.846C878.463 439.075 878.31 439.292 878.119 439.498C877.934 439.708 877.702 439.876 877.423 440.003C877.145 440.135 876.808 440.201 876.413 440.201C876.256 440.201 876.105 440.186 875.958 440.157C875.817 440.132 875.683 440.105 875.556 440.076L875.548 438.729C875.597 438.733 875.656 438.738 875.724 438.743C875.797 438.748 875.856 438.75 875.9 438.75C876.193 438.75 876.437 438.714 876.632 438.641C876.828 438.572 876.986 438.46 877.108 438.304C877.235 438.147 877.343 437.938 877.431 437.674L878.002 436.136ZM876.786 429.075L878.668 435.008L878.983 436.868L877.76 437.183L874.882 429.075H876.786Z" fill="#1A1A1A"/>
<rect x="795.5" y="412.5" width="103" height="39" rx="3.5" stroke="#1A1A1A"/>
<rect x="915" y="412" width="85" height="40" rx="4" fill="#286EF1"/>
<path d="M936.134 433.023H933.358V431.565H936.134C936.618 431.565 937.008 431.487 937.306 431.331C937.604 431.175 937.821 430.96 937.958 430.687C938.1 430.408 938.17 430.091 938.17 429.734C938.17 429.397 938.1 429.083 937.958 428.79C937.821 428.492 937.604 428.252 937.306 428.072C937.008 427.891 936.618 427.801 936.134 427.801H933.922V437H932.084V426.336H936.134C936.959 426.336 937.66 426.482 938.236 426.775C938.817 427.063 939.259 427.464 939.562 427.977C939.865 428.484 940.016 429.065 940.016 429.72C940.016 430.408 939.865 430.999 939.562 431.492C939.259 431.985 938.817 432.364 938.236 432.627C937.66 432.891 936.959 433.023 936.134 433.023ZM943.261 430.584V437H941.496V429.075H943.18L943.261 430.584ZM945.685 429.024L945.67 430.665C945.563 430.645 945.446 430.63 945.319 430.621C945.197 430.611 945.075 430.606 944.953 430.606C944.65 430.606 944.384 430.65 944.154 430.738C943.925 430.821 943.732 430.943 943.576 431.104C943.424 431.26 943.307 431.451 943.224 431.675C943.141 431.9 943.092 432.151 943.078 432.43L942.675 432.459C942.675 431.961 942.724 431.5 942.821 431.075C942.919 430.65 943.065 430.276 943.261 429.954C943.461 429.632 943.71 429.38 944.008 429.2C944.311 429.019 944.66 428.929 945.055 428.929C945.163 428.929 945.277 428.938 945.399 428.958C945.526 428.978 945.622 429 945.685 429.024ZM948.681 429.075V437H946.908V429.075H948.681ZM946.791 426.995C946.791 426.727 946.879 426.504 947.055 426.329C947.235 426.148 947.484 426.058 947.802 426.058C948.114 426.058 948.361 426.148 948.542 426.329C948.722 426.504 948.812 426.727 948.812 426.995C948.812 427.259 948.722 427.479 948.542 427.654C948.361 427.83 948.114 427.918 947.802 427.918C947.484 427.918 947.235 427.83 947.055 427.654C946.879 427.479 946.791 427.259 946.791 426.995ZM952.379 430.687V437H950.614V429.075H952.277L952.379 430.687ZM952.094 432.745L951.493 432.737C951.493 432.19 951.562 431.685 951.698 431.221C951.835 430.757 952.035 430.354 952.299 430.013C952.562 429.666 952.89 429.4 953.28 429.214C953.676 429.024 954.132 428.929 954.65 428.929C955.011 428.929 955.341 428.982 955.639 429.09C955.941 429.192 956.203 429.356 956.422 429.581C956.647 429.805 956.818 430.093 956.935 430.445C957.057 430.796 957.118 431.221 957.118 431.719V437H955.353V431.873C955.353 431.487 955.294 431.185 955.177 430.965C955.065 430.745 954.901 430.589 954.687 430.496C954.477 430.398 954.225 430.35 953.932 430.35C953.6 430.35 953.317 430.413 953.083 430.54C952.853 430.667 952.665 430.84 952.519 431.06C952.372 431.28 952.265 431.534 952.196 431.822C952.128 432.11 952.094 432.417 952.094 432.745ZM957.008 432.276L956.181 432.459C956.181 431.98 956.247 431.529 956.378 431.104C956.515 430.674 956.713 430.298 956.972 429.976C957.235 429.649 957.56 429.393 957.946 429.207C958.332 429.021 958.773 428.929 959.271 428.929C959.677 428.929 960.038 428.985 960.355 429.097C960.678 429.205 960.951 429.375 961.176 429.61C961.4 429.844 961.571 430.149 961.688 430.525C961.806 430.896 961.864 431.346 961.864 431.873V437H960.092V431.866C960.092 431.465 960.033 431.155 959.916 430.936C959.804 430.716 959.643 430.564 959.433 430.481C959.223 430.394 958.971 430.35 958.678 430.35C958.405 430.35 958.163 430.401 957.953 430.503C957.748 430.601 957.575 430.74 957.433 430.921C957.292 431.097 957.184 431.299 957.111 431.529C957.042 431.758 957.008 432.007 957.008 432.276ZM968.148 435.411V431.631C968.148 431.348 968.097 431.104 967.995 430.899C967.892 430.694 967.736 430.535 967.526 430.423C967.321 430.311 967.062 430.254 966.75 430.254C966.461 430.254 966.212 430.303 966.002 430.401C965.792 430.499 965.629 430.63 965.512 430.796C965.395 430.962 965.336 431.15 965.336 431.36H963.578C963.578 431.048 963.654 430.745 963.805 430.452C963.957 430.159 964.176 429.898 964.464 429.668C964.752 429.439 965.097 429.258 965.497 429.126C965.897 428.995 966.347 428.929 966.845 428.929C967.44 428.929 967.968 429.029 968.427 429.229C968.891 429.429 969.254 429.732 969.518 430.137C969.787 430.538 969.921 431.041 969.921 431.646V435.169C969.921 435.53 969.945 435.855 969.994 436.143C970.048 436.426 970.124 436.673 970.221 436.883V437H968.412C968.329 436.81 968.263 436.568 968.214 436.275C968.17 435.977 968.148 435.689 968.148 435.411ZM968.405 432.181L968.419 433.272H967.152C966.825 433.272 966.537 433.304 966.288 433.367C966.039 433.426 965.832 433.514 965.666 433.631C965.5 433.748 965.375 433.89 965.292 434.056C965.209 434.222 965.167 434.41 965.167 434.62C965.167 434.83 965.216 435.022 965.314 435.198C965.412 435.369 965.553 435.503 965.739 435.601C965.929 435.699 966.159 435.748 966.427 435.748C966.789 435.748 967.104 435.674 967.372 435.528C967.646 435.376 967.86 435.193 968.017 434.979C968.173 434.759 968.256 434.551 968.266 434.356L968.837 435.14C968.778 435.34 968.678 435.555 968.537 435.784C968.395 436.014 968.209 436.233 967.98 436.443C967.755 436.648 967.484 436.817 967.167 436.949C966.854 437.081 966.493 437.146 966.083 437.146C965.565 437.146 965.104 437.044 964.699 436.839C964.293 436.629 963.976 436.348 963.747 435.997C963.517 435.64 963.402 435.237 963.402 434.788C963.402 434.368 963.48 433.997 963.637 433.675C963.798 433.348 964.032 433.074 964.34 432.854C964.652 432.635 965.033 432.469 965.482 432.356C965.932 432.239 966.444 432.181 967.021 432.181H968.405ZM973.539 430.584V437H971.774V429.075H973.458L973.539 430.584ZM975.963 429.024L975.949 430.665C975.841 430.645 975.724 430.63 975.597 430.621C975.475 430.611 975.353 430.606 975.231 430.606C974.928 430.606 974.662 430.65 974.433 430.738C974.203 430.821 974.01 430.943 973.854 431.104C973.703 431.26 973.585 431.451 973.502 431.675C973.419 431.9 973.371 432.151 973.356 432.43L972.953 432.459C972.953 431.961 973.002 431.5 973.1 431.075C973.197 430.65 973.344 430.276 973.539 429.954C973.739 429.632 973.988 429.38 974.286 429.2C974.589 429.019 974.938 428.929 975.333 428.929C975.441 428.929 975.556 428.938 975.678 428.958C975.805 428.978 975.9 429 975.963 429.024ZM979.501 436.136L981.654 429.075H983.544L980.365 438.208C980.292 438.404 980.197 438.616 980.08 438.846C979.962 439.075 979.809 439.292 979.618 439.498C979.433 439.708 979.201 439.876 978.922 440.003C978.644 440.135 978.307 440.201 977.912 440.201C977.755 440.201 977.604 440.186 977.458 440.157C977.316 440.132 977.182 440.105 977.055 440.076L977.047 438.729C977.096 438.733 977.155 438.738 977.223 438.743C977.296 438.748 977.355 438.75 977.399 438.75C977.692 438.75 977.936 438.714 978.131 438.641C978.327 438.572 978.485 438.46 978.607 438.304C978.734 438.147 978.842 437.938 978.93 437.674L979.501 436.136ZM978.285 429.075L980.167 435.008L980.482 436.868L979.259 437.183L976.381 429.075H978.285Z" fill="white"/>
</g>
<circle cx="318" cy="60" r="6" fill="#E6E6E6"/>
<circle cx="338" cy="60" r="6" fill="#E6E6E6"/>
<circle cx="358" cy="60" r="6" fill="#E6E6E6"/>
<defs>
<filter id="filter0_d_7268_77959" x="284" y="76" width="1016" height="576" filterUnits="userSpaceOnUse" color-interpolation-filters="sRGB">
<feFlood flood-opacity="0" result="BackgroundImageFix"/>
<feColorMatrix in="SourceAlpha" type="matrix" values="0 0 0 0 0 0 0 0 0 0 0 0 0 0 0 0 0 0 127 0" result="hardAlpha"/>
<feOffset dy="4"/>
<feGaussianBlur stdDeviation="4"/>
<feComposite in2="hardAlpha" operator="out"/>
<feColorMatrix type="matrix" values="0 0 0 0 0.101961 0 0 0 0 0.101961 0 0 0 0 0.101961 0 0 0 0.05 0"/>
<feBlend mode="normal" in2="BackgroundImageFix" result="effect1_dropShadow_7268_77959"/>
<feBlend mode="normal" in="SourceGraphic" in2="effect1_dropShadow_7268_77959" result="shape"/>
</filter>
<filter id="filter1_ddd_7268_77959" x="532" y="220" width="520" height="292" filterUnits="userSpaceOnUse" color-interpolation-filters="sRGB">
<feFlood flood-opacity="0" result="BackgroundImageFix"/>
<feColorMatrix in="SourceAlpha" type="matrix" values="0 0 0 0 0 0 0 0 0 0 0 0 0 0 0 0 0 0 127 0" result="hardAlpha"/>
<feOffset dy="4"/>
<feGaussianBlur stdDeviation="4"/>
<feColorMatrix type="matrix" values="0 0 0 0 0.45098 0 0 0 0 0.45098 0 0 0 0 0.45098 0 0 0 0.05 0"/>
<feBlend mode="normal" in2="BackgroundImageFix" result="effect1_dropShadow_7268_77959"/>
<feColorMatrix in="SourceAlpha" type="matrix" values="0 0 0 0 0 0 0 0 0 0 0 0 0 0 0 0 0 0 127 0" result="hardAlpha"/>
<feOffset dy="4"/>
<feGaussianBlur stdDeviation="10"/>
<feColorMatrix type="matrix" values="0 0 0 0 0.45098 0 0 0 0 0.45098 0 0 0 0 0.45098 0 0 0 0.1 0"/>
<feBlend mode="normal" in2="effect1_dropShadow_7268_77959" result="effect2_dropShadow_7268_77959"/>
<feColorMatrix in="SourceAlpha" type="matrix" values="0 0 0 0 0 0 0 0 0 0 0 0 0 0 0 0 0 0 127 0" result="hardAlpha"/>
<feOffset dy="12"/>
<feGaussianBlur stdDeviation="8"/>
<feColorMatrix type="matrix" values="0 0 0 0 0.45098 0 0 0 0 0.45098 0 0 0 0 0.45098 0 0 0 0.08 0"/>
<feBlend mode="normal" in2="effect2_dropShadow_7268_77959" result="effect3_dropShadow_7268_77959"/>
<feBlend mode="normal" in="SourceGraphic" in2="effect3_dropShadow_7268_77959" result="shape"/>
</filter>
</defs>
</svg>
