<svg width="800" height="132" viewBox="0 0 800 132" fill="none" xmlns="http://www.w3.org/2000/svg">
<path d="M0 4C0 1.79086 1.79086 0 4 0H796C798.209 0 800 1.79086 800 4V128C800 130.209 798.209 132 796 132H4C1.79086 132 0 130.209 0 128V4Z" fill="#0045C4"/>
<path d="M20.7188 42.5H18.3125V39.75C18.3125 39.3344 18.0186 39 17.6562 39C17.2939 39 17 39.3344 17 39.75V43.25C17 43.6656 17.2939 44 17.6562 44H20.7188C21.0824 44 21.375 43.6656 21.375 43.25C21.375 42.8344 21.0824 42.5 20.7188 42.5ZM20.7188 32H17.6562C17.2939 32 17 32.3359 17 32.75V36.25C17 36.6656 17.2939 37 17.6562 37C18.0188 37 18.3125 36.6656 18.3125 36.25V33.5H20.7188C21.0824 33.5 21.375 33.1656 21.375 32.75C21.375 32.3344 21.0824 32 20.7188 32ZM30.3438 32H27.2812C26.9176 32 26.625 32.3359 26.625 32.75C26.625 33.1644 26.9189 33.5 27.2812 33.5H29.6875V36.25C29.6875 36.6656 29.9801 37 30.3438 37C30.7074 37 31 36.6656 31 36.25V32.75C31 32.3359 30.7074 32 30.3438 32ZM30.3438 39C29.9812 39 29.6875 39.3359 29.6875 39.75V42.5H27.2812C26.9187 42.5 26.625 42.8359 26.625 43.25C26.625 43.6641 26.9176 44 27.2812 44H30.3438C30.7061 44 31 43.6641 31 43.25V39.75C31 39.3344 30.7074 39 30.3438 39Z" fill="white"/>
<path d="M46.9888 40.7368V42H42.082V40.7368H46.9888ZM42.5327 32.7578V42H40.9395V32.7578H42.5327ZM46.3477 36.6172V37.8613H42.082V36.6172H46.3477ZM46.957 32.7578V34.0273H42.082V32.7578H46.957ZM49.3057 35.1318L50.6133 37.4106L51.9463 35.1318H53.6284L51.5464 38.5024L53.7109 42H52.0288L50.6323 39.626L49.2358 42H47.5474L49.7056 38.5024L47.6299 35.1318H49.3057ZM56.2119 36.4521V44.6406H54.6821V35.1318H56.0913L56.2119 36.4521ZM60.687 38.5024V38.6357C60.687 39.1351 60.6278 39.5985 60.5093 40.0259C60.395 40.4491 60.2236 40.8193 59.9951 41.1367C59.7708 41.4499 59.4937 41.6932 59.1636 41.8667C58.8335 42.0402 58.4526 42.127 58.021 42.127C57.5936 42.127 57.2191 42.0487 56.8975 41.8921C56.5801 41.7313 56.3114 41.5049 56.0913 41.2129C55.8713 40.9209 55.6935 40.5781 55.5581 40.1846C55.4269 39.7868 55.3338 39.3509 55.2788 38.877V38.3628C55.3338 37.8592 55.4269 37.4022 55.5581 36.9917C55.6935 36.5812 55.8713 36.2279 56.0913 35.9316C56.3114 35.6354 56.5801 35.4069 56.8975 35.2461C57.2148 35.0853 57.5851 35.0049 58.0083 35.0049C58.4399 35.0049 58.8229 35.0895 59.1572 35.2588C59.4915 35.4238 59.7729 35.6608 60.0015 35.9697C60.23 36.2744 60.4014 36.6426 60.5156 37.0742C60.6299 37.5016 60.687 37.9777 60.687 38.5024ZM59.1572 38.6357V38.5024C59.1572 38.1851 59.1276 37.891 59.0684 37.6201C59.0091 37.3451 58.916 37.1038 58.7891 36.8965C58.6621 36.6891 58.4992 36.5283 58.3003 36.4141C58.1056 36.2956 57.8708 36.2363 57.5957 36.2363C57.3249 36.2363 57.0921 36.2829 56.8975 36.376C56.7028 36.4648 56.5399 36.5897 56.4087 36.7505C56.2775 36.9113 56.1759 37.0996 56.104 37.3154C56.0321 37.527 55.9813 37.7576 55.9517 38.0073V39.2388C56.0024 39.5435 56.0892 39.8228 56.2119 40.0767C56.3346 40.3306 56.5081 40.5337 56.7324 40.686C56.9609 40.8341 57.2529 40.9082 57.6084 40.9082C57.8835 40.9082 58.1183 40.849 58.313 40.7305C58.5076 40.612 58.6663 40.4491 58.7891 40.2417C58.916 40.0301 59.0091 39.7868 59.0684 39.5117C59.1276 39.2367 59.1572 38.9447 59.1572 38.6357ZM65.8604 40.6226V37.3472C65.8604 37.1017 65.8159 36.8901 65.7271 36.7124C65.6382 36.5347 65.5028 36.3971 65.3208 36.2998C65.1431 36.2025 64.9188 36.1538 64.6479 36.1538C64.3983 36.1538 64.1825 36.1961 64.0005 36.2808C63.8185 36.3654 63.6768 36.4797 63.5752 36.6235C63.4736 36.7674 63.4229 36.9303 63.4229 37.1123H61.8994C61.8994 36.8415 61.965 36.5791 62.0962 36.3252C62.2274 36.0713 62.4178 35.8449 62.6675 35.646C62.9172 35.4471 63.2155 35.2905 63.5625 35.1763C63.9095 35.062 64.2988 35.0049 64.7305 35.0049C65.2467 35.0049 65.7038 35.0916 66.1016 35.2651C66.5036 35.4386 66.8188 35.701 67.0474 36.0522C67.2801 36.3993 67.3965 36.8351 67.3965 37.3599V40.4131C67.3965 40.7262 67.4176 41.0076 67.46 41.2573C67.5065 41.5028 67.5721 41.7165 67.6567 41.8984V42H66.0889C66.0169 41.835 65.9598 41.6255 65.9175 41.3716C65.8794 41.1134 65.8604 40.8638 65.8604 40.6226ZM66.0825 37.8232L66.0952 38.769H64.9971C64.7135 38.769 64.4639 38.7965 64.248 38.8516C64.0322 38.9023 63.8524 38.9785 63.7085 39.0801C63.5646 39.1816 63.4567 39.3044 63.3848 39.4482C63.3128 39.5921 63.2769 39.755 63.2769 39.937C63.2769 40.119 63.3192 40.2861 63.4038 40.4385C63.4884 40.5866 63.6112 40.703 63.772 40.7876C63.937 40.8722 64.1359 40.9146 64.3687 40.9146C64.6818 40.9146 64.9548 40.8511 65.1875 40.7241C65.4245 40.5929 65.6107 40.4342 65.7461 40.248C65.8815 40.0576 65.9535 39.8778 65.9619 39.7085L66.457 40.3877C66.4062 40.5612 66.3195 40.7474 66.1968 40.9463C66.0741 41.1452 65.9132 41.3356 65.7144 41.5176C65.5197 41.6953 65.2848 41.8413 65.0098 41.9556C64.7389 42.0698 64.4258 42.127 64.0703 42.127C63.6217 42.127 63.2218 42.0381 62.8706 41.8604C62.5194 41.6784 62.2443 41.4351 62.0454 41.1304C61.8465 40.8215 61.7471 40.4723 61.7471 40.083C61.7471 39.7191 61.8148 39.3975 61.9502 39.1182C62.0898 38.8346 62.293 38.5977 62.5596 38.4072C62.8304 38.2168 63.1605 38.0729 63.5498 37.9756C63.9391 37.874 64.3835 37.8232 64.8828 37.8232H66.0825ZM70.5132 36.5981V42H68.9834V35.1318H70.4243L70.5132 36.5981ZM70.2402 38.312L69.7451 38.3057C69.7493 37.819 69.8171 37.3726 69.9482 36.9663C70.0837 36.5601 70.2699 36.2109 70.5068 35.9189C70.748 35.627 71.0358 35.4027 71.3701 35.2461C71.7044 35.0853 72.0768 35.0049 72.4873 35.0049C72.8174 35.0049 73.1157 35.0514 73.3823 35.1445C73.6532 35.2334 73.8838 35.3794 74.0742 35.5825C74.2689 35.7856 74.417 36.0501 74.5186 36.376C74.6201 36.6976 74.6709 37.0933 74.6709 37.563V42H73.1348V37.5566C73.1348 37.2266 73.0861 36.9663 72.9888 36.7759C72.8957 36.5812 72.7581 36.4437 72.5762 36.3633C72.3984 36.2786 72.1763 36.2363 71.9097 36.2363C71.6473 36.2363 71.4124 36.2913 71.2051 36.4014C70.9977 36.5114 70.8221 36.6616 70.6782 36.8521C70.5386 37.0425 70.4307 37.2625 70.3545 37.5122C70.2783 37.7619 70.2402 38.0285 70.2402 38.312ZM80.4219 40.5781V32.25H81.958V42H80.5679L80.4219 40.5781ZM75.9531 38.6421V38.5088C75.9531 37.9883 76.0145 37.5143 76.1372 37.0869C76.2599 36.6553 76.4377 36.285 76.6704 35.9761C76.9032 35.6629 77.1867 35.4238 77.521 35.2588C77.8553 35.0895 78.2319 35.0049 78.6509 35.0049C79.0656 35.0049 79.4295 35.0853 79.7427 35.2461C80.0558 35.4069 80.3224 35.6375 80.5425 35.938C80.7625 36.2342 80.9382 36.5897 81.0693 37.0044C81.2005 37.4149 81.2936 37.8719 81.3486 38.3755V38.8008C81.2936 39.2917 81.2005 39.7402 81.0693 40.1465C80.9382 40.5527 80.7625 40.904 80.5425 41.2002C80.3224 41.4964 80.0537 41.7249 79.7363 41.8857C79.4232 42.0465 79.0571 42.127 78.6382 42.127C78.2235 42.127 77.849 42.0402 77.5146 41.8667C77.1846 41.6932 76.9032 41.4499 76.6704 41.1367C76.4377 40.8236 76.2599 40.4554 76.1372 40.0322C76.0145 39.6048 75.9531 39.1414 75.9531 38.6421ZM77.4829 38.5088V38.6421C77.4829 38.9552 77.5104 39.2472 77.5654 39.5181C77.6247 39.7889 77.7157 40.028 77.8384 40.2354C77.9611 40.4385 78.1198 40.5993 78.3145 40.7178C78.5133 40.832 78.7503 40.8892 79.0254 40.8892C79.3724 40.8892 79.658 40.813 79.8823 40.6606C80.1066 40.5083 80.2822 40.3031 80.4092 40.0449C80.5404 39.7826 80.6292 39.4906 80.6758 39.1689V38.02C80.6504 37.7703 80.5975 37.5376 80.5171 37.3218C80.4409 37.106 80.3372 36.9176 80.2061 36.7568C80.0749 36.5918 79.9119 36.4648 79.7173 36.376C79.5269 36.2829 79.3005 36.2363 79.0381 36.2363C78.7588 36.2363 78.5218 36.2956 78.3271 36.4141C78.1325 36.5326 77.9717 36.6955 77.8447 36.9028C77.722 37.1102 77.631 37.3514 77.5718 37.6265C77.5125 37.9015 77.4829 38.1956 77.4829 38.5088Z" fill="white"/>
<g clip-path="url(#clip0_3689_51804)">
<path d="M375.5 28C369.977 28 365.5 32.4766 365.5 38C365.5 43.5234 369.977 48 375.5 48C381.023 48 385.5 43.5234 385.5 38C385.5 32.4766 381.023 28 375.5 28ZM375.5 46.125C371.02 46.125 367.375 42.4801 367.375 38C367.375 33.5199 371.02 29.875 375.5 29.875C379.98 29.875 383.625 33.5199 383.625 38C383.625 42.4801 379.98 46.125 375.5 46.125ZM375.5 41.125C374.797 41.125 374.25 41.6719 374.25 42.375C374.25 43.0781 374.762 43.625 375.5 43.625C376.168 43.625 376.75 43.0781 376.75 42.375C376.75 41.6719 376.168 41.125 375.5 41.125ZM376.793 33H374.797C373.273 33 372.062 34.2109 372.062 35.7344C372.062 36.2422 372.492 36.6719 373 36.6719C373.508 36.6719 373.938 36.2422 373.938 35.7344C373.938 35.2656 374.293 34.875 374.762 34.875H376.758C377.262 34.875 377.688 35.2656 377.688 35.7344C377.688 36.0469 377.531 36.2852 377.258 36.4414L375.031 37.8047C374.719 38 374.562 38.3125 374.562 38.625V39.25C374.562 39.7578 374.992 40.1875 375.5 40.1875C376.008 40.1875 376.438 39.7578 376.438 39.25V39.1719L378.199 38.0781C379.02 37.5703 379.527 36.6719 379.527 35.7344C379.562 34.2109 378.352 33 376.793 33Z" fill="white"/>
<path d="M405.177 36.415V38.4717H398.497V36.415H405.177ZM399.279 31.2031V44H396.643V31.2031H399.279ZM407.058 31.2031V44H404.43V31.2031H407.058ZM413.57 44.1758C412.832 44.1758 412.17 44.0586 411.584 43.8242C410.998 43.584 410.5 43.2529 410.09 42.8311C409.686 42.4092 409.375 41.9199 409.158 41.3633C408.941 40.8008 408.833 40.2031 408.833 39.5703V39.2188C408.833 38.498 408.936 37.8389 409.141 37.2412C409.346 36.6436 409.639 36.125 410.02 35.6855C410.406 35.2461 410.875 34.9092 411.426 34.6748C411.977 34.4346 412.598 34.3145 413.289 34.3145C413.963 34.3145 414.561 34.4258 415.082 34.6484C415.604 34.8711 416.04 35.1875 416.392 35.5977C416.749 36.0078 417.019 36.5 417.2 37.0742C417.382 37.6426 417.473 38.2754 417.473 38.9727V40.0273H409.914V38.3398H414.985V38.1465C414.985 37.7949 414.921 37.4814 414.792 37.2061C414.669 36.9248 414.481 36.7021 414.229 36.5381C413.978 36.374 413.655 36.292 413.263 36.292C412.929 36.292 412.642 36.3652 412.401 36.5117C412.161 36.6582 411.965 36.8633 411.812 37.127C411.666 37.3906 411.555 37.7012 411.479 38.0586C411.408 38.4102 411.373 38.7969 411.373 39.2188V39.5703C411.373 39.9512 411.426 40.3027 411.531 40.625C411.643 40.9473 411.798 41.2256 411.997 41.46C412.202 41.6943 412.448 41.876 412.735 42.0049C413.028 42.1338 413.359 42.1982 413.729 42.1982C414.186 42.1982 414.61 42.1104 415.003 41.9346C415.401 41.7529 415.744 41.4805 416.031 41.1172L417.262 42.4531C417.062 42.7402 416.79 43.0156 416.444 43.2793C416.104 43.543 415.694 43.7598 415.214 43.9297C414.733 44.0938 414.186 44.1758 413.57 44.1758ZM421.586 30.5V44H419.046V30.5H421.586ZM426.209 36.3184V47.6562H423.678V34.4902H426.024L426.209 36.3184ZM432.229 39.1396V39.3242C432.229 40.0156 432.147 40.6572 431.983 41.249C431.825 41.8408 431.591 42.3564 431.28 42.7959C430.97 43.2295 430.583 43.5693 430.12 43.8154C429.663 44.0557 429.136 44.1758 428.538 44.1758C427.958 44.1758 427.454 44.0586 427.026 43.8242C426.599 43.5898 426.238 43.2617 425.945 42.8398C425.658 42.4121 425.427 41.917 425.251 41.3545C425.075 40.792 424.94 40.1885 424.847 39.5439V39.0605C424.94 38.3691 425.075 37.7363 425.251 37.1621C425.427 36.582 425.658 36.0811 425.945 35.6592C426.238 35.2314 426.596 34.9004 427.018 34.666C427.445 34.4316 427.946 34.3145 428.521 34.3145C429.124 34.3145 429.654 34.4287 430.111 34.6572C430.574 34.8857 430.961 35.2139 431.271 35.6416C431.588 36.0693 431.825 36.5791 431.983 37.1709C432.147 37.7627 432.229 38.4189 432.229 39.1396ZM429.689 39.3242V39.1396C429.689 38.7354 429.654 38.3633 429.584 38.0234C429.52 37.6777 429.414 37.376 429.268 37.1182C429.127 36.8604 428.939 36.6611 428.705 36.5205C428.477 36.374 428.198 36.3008 427.87 36.3008C427.524 36.3008 427.229 36.3564 426.982 36.4678C426.742 36.5791 426.546 36.7402 426.394 36.9512C426.241 37.1621 426.127 37.4141 426.051 37.707C425.975 38 425.928 38.3311 425.91 38.7002V39.9219C425.939 40.3555 426.021 40.7451 426.156 41.0908C426.291 41.4307 426.499 41.7002 426.78 41.8994C427.062 42.0986 427.431 42.1982 427.888 42.1982C428.222 42.1982 428.503 42.125 428.731 41.9785C428.96 41.8262 429.145 41.6182 429.285 41.3545C429.432 41.0908 429.534 40.7861 429.593 40.4404C429.657 40.0947 429.689 39.7227 429.689 39.3242Z" fill="white"/>
</g>
<path d="M781.705 42.4677C782.056 42.8182 782.056 43.3867 781.705 43.7372C781.354 44.0876 780.783 44.0876 780.432 43.7372L776.001 39.2848L771.538 43.7357C771.186 44.0861 770.616 44.0861 770.265 43.7357C769.913 43.3852 769.913 42.8167 770.265 42.4662L774.729 38.0168L770.264 33.5323C769.912 33.1818 769.912 32.6133 770.264 32.2628C770.615 31.9124 771.185 31.9124 771.536 32.2628L776.001 36.7489L780.464 32.298C780.815 31.9476 781.385 31.9476 781.736 32.298C782.088 32.6484 782.088 33.217 781.736 33.5674L777.272 38.0168L781.705 42.4677Z" fill="white"/>
<path d="M16.5 80C16.5 78.067 18.067 76.5 20 76.5H400V115.5H20C18.067 115.5 16.5 113.933 16.5 112V80Z" fill="#EAF1FE"/>
<path d="M186.992 90.7578V100H185.411V90.7578H186.992ZM189.893 90.7578V92.0273H182.536V90.7578H189.893ZM194.558 98.3813V93.1318H196.094V100H194.647L194.558 98.3813ZM194.774 96.9531L195.288 96.9404C195.288 97.4017 195.237 97.827 195.136 98.2163C195.034 98.6014 194.878 98.9378 194.666 99.2256C194.454 99.5091 194.184 99.7313 193.854 99.8921C193.523 100.049 193.128 100.127 192.667 100.127C192.332 100.127 192.025 100.078 191.746 99.981C191.467 99.8836 191.226 99.7334 191.022 99.5303C190.824 99.3271 190.669 99.0627 190.559 98.7368C190.449 98.411 190.394 98.0216 190.394 97.5688V93.1318H191.924V97.5815C191.924 97.8312 191.953 98.0407 192.013 98.21C192.072 98.375 192.152 98.5083 192.254 98.6099C192.355 98.7114 192.474 98.7834 192.609 98.8257C192.745 98.868 192.889 98.8892 193.041 98.8892C193.477 98.8892 193.82 98.8045 194.069 98.6353C194.323 98.4618 194.503 98.229 194.609 97.937C194.719 97.645 194.774 97.3171 194.774 96.9531ZM200.811 93.1318V94.249H196.938V93.1318H200.811ZM198.056 91.4497H199.585V98.1021C199.585 98.3136 199.615 98.4766 199.674 98.5908C199.738 98.7008 199.825 98.7749 199.935 98.813C200.045 98.8511 200.174 98.8701 200.322 98.8701C200.428 98.8701 200.529 98.8638 200.626 98.8511C200.724 98.8384 200.802 98.8257 200.861 98.813L200.868 99.981C200.741 100.019 200.593 100.053 200.423 100.083C200.258 100.112 200.068 100.127 199.852 100.127C199.501 100.127 199.19 100.066 198.919 99.9429C198.648 99.8159 198.437 99.6107 198.284 99.3271C198.132 99.0436 198.056 98.667 198.056 98.1973V91.4497ZM201.547 96.6421V96.4961C201.547 96.001 201.619 95.5418 201.763 95.1187C201.907 94.6912 202.114 94.321 202.385 94.0078C202.66 93.6904 202.994 93.445 203.388 93.2715C203.785 93.0938 204.234 93.0049 204.733 93.0049C205.237 93.0049 205.686 93.0938 206.079 93.2715C206.477 93.445 206.813 93.6904 207.088 94.0078C207.363 94.321 207.573 94.6912 207.717 95.1187C207.861 95.5418 207.933 96.001 207.933 96.4961V96.6421C207.933 97.1372 207.861 97.5964 207.717 98.0195C207.573 98.4427 207.363 98.813 207.088 99.1304C206.813 99.4435 206.479 99.689 206.085 99.8667C205.692 100.04 205.245 100.127 204.746 100.127C204.243 100.127 203.792 100.04 203.394 99.8667C203 99.689 202.666 99.4435 202.391 99.1304C202.116 98.813 201.907 98.4427 201.763 98.0195C201.619 97.5964 201.547 97.1372 201.547 96.6421ZM203.077 96.4961V96.6421C203.077 96.951 203.108 97.243 203.172 97.5181C203.235 97.7931 203.335 98.0343 203.47 98.2417C203.606 98.4491 203.779 98.612 203.991 98.7305C204.202 98.849 204.454 98.9082 204.746 98.9082C205.03 98.9082 205.275 98.849 205.482 98.7305C205.694 98.612 205.868 98.4491 206.003 98.2417C206.138 98.0343 206.238 97.7931 206.301 97.5181C206.369 97.243 206.403 96.951 206.403 96.6421V96.4961C206.403 96.1914 206.369 95.9036 206.301 95.6328C206.238 95.3577 206.136 95.1144 205.997 94.9028C205.861 94.6912 205.688 94.5262 205.476 94.4077C205.269 94.285 205.021 94.2236 204.733 94.2236C204.446 94.2236 204.196 94.285 203.984 94.4077C203.777 94.5262 203.606 94.6912 203.47 94.9028C203.335 95.1144 203.235 95.3577 203.172 95.6328C203.108 95.9036 203.077 96.1914 203.077 96.4961ZM210.751 94.4395V100H209.221V93.1318H210.681L210.751 94.4395ZM212.852 93.0874L212.839 94.5093C212.746 94.4924 212.645 94.4797 212.535 94.4712C212.429 94.4627 212.323 94.4585 212.217 94.4585C211.955 94.4585 211.724 94.4966 211.525 94.5728C211.326 94.6447 211.159 94.7505 211.024 94.8901C210.893 95.0256 210.791 95.1906 210.719 95.3853C210.647 95.5799 210.605 95.7979 210.592 96.0391L210.243 96.0645C210.243 95.6328 210.285 95.2329 210.37 94.8647C210.455 94.4966 210.582 94.1729 210.751 93.8936C210.924 93.6143 211.14 93.3963 211.398 93.2397C211.661 93.0832 211.963 93.0049 212.306 93.0049C212.399 93.0049 212.499 93.0133 212.604 93.0303C212.715 93.0472 212.797 93.0662 212.852 93.0874ZM215.448 93.1318V100H213.912V93.1318H215.448ZM213.811 91.3291C213.811 91.0964 213.887 90.9038 214.039 90.7515C214.196 90.5949 214.411 90.5166 214.687 90.5166C214.957 90.5166 215.171 90.5949 215.328 90.7515C215.484 90.9038 215.562 91.0964 215.562 91.3291C215.562 91.5576 215.484 91.748 215.328 91.9004C215.171 92.0527 214.957 92.1289 214.687 92.1289C214.411 92.1289 214.196 92.0527 214.039 91.9004C213.887 91.748 213.811 91.5576 213.811 91.3291ZM220.996 98.6226V95.3472C220.996 95.1017 220.952 94.8901 220.863 94.7124C220.774 94.5347 220.639 94.3971 220.457 94.2998C220.279 94.2025 220.055 94.1538 219.784 94.1538C219.534 94.1538 219.318 94.1961 219.136 94.2808C218.954 94.3654 218.812 94.4797 218.711 94.6235C218.609 94.7674 218.559 94.9303 218.559 95.1123H217.035C217.035 94.8415 217.101 94.5791 217.232 94.3252C217.363 94.0713 217.554 93.8449 217.803 93.646C218.053 93.4471 218.351 93.2905 218.698 93.1763C219.045 93.062 219.435 93.0049 219.866 93.0049C220.382 93.0049 220.84 93.0916 221.237 93.2651C221.639 93.4386 221.955 93.701 222.183 94.0522C222.416 94.3993 222.532 94.8351 222.532 95.3599V98.4131C222.532 98.7262 222.553 99.0076 222.596 99.2573C222.642 99.5028 222.708 99.7165 222.792 99.8984V100H221.225C221.153 99.835 221.096 99.6255 221.053 99.3716C221.015 99.1134 220.996 98.8638 220.996 98.6226ZM221.218 95.8232L221.231 96.769H220.133C219.849 96.769 219.6 96.7965 219.384 96.8516C219.168 96.9023 218.988 96.9785 218.844 97.0801C218.7 97.1816 218.592 97.3044 218.521 97.4482C218.449 97.5921 218.413 97.755 218.413 97.937C218.413 98.119 218.455 98.2861 218.54 98.4385C218.624 98.5866 218.747 98.703 218.908 98.7876C219.073 98.8722 219.272 98.9146 219.504 98.9146C219.818 98.9146 220.09 98.8511 220.323 98.7241C220.56 98.5929 220.746 98.4342 220.882 98.248C221.017 98.0576 221.089 97.8778 221.098 97.7085L221.593 98.3877C221.542 98.5612 221.455 98.7474 221.333 98.9463C221.21 99.1452 221.049 99.3356 220.85 99.5176C220.655 99.6953 220.421 99.8413 220.146 99.9556C219.875 100.07 219.562 100.127 219.206 100.127C218.757 100.127 218.358 100.038 218.006 99.8604C217.655 99.6784 217.38 99.4351 217.181 99.1304C216.982 98.8215 216.883 98.4723 216.883 98.083C216.883 97.7191 216.951 97.3975 217.086 97.1182C217.226 96.8346 217.429 96.5977 217.695 96.4072C217.966 96.2168 218.296 96.0729 218.686 95.9756C219.075 95.874 219.519 95.8232 220.019 95.8232H221.218ZM225.77 90.25V100H224.233V90.25H225.77ZM231.298 98.1401C231.298 97.9878 231.26 97.8503 231.184 97.7275C231.108 97.6006 230.962 97.4863 230.746 97.3848C230.535 97.2832 230.221 97.1901 229.807 97.1055C229.443 97.0251 229.108 96.9299 228.804 96.8198C228.503 96.7056 228.245 96.568 228.029 96.4072C227.813 96.2464 227.646 96.056 227.528 95.8359C227.409 95.6159 227.35 95.362 227.35 95.0742C227.35 94.7949 227.411 94.5304 227.534 94.2808C227.657 94.0311 227.833 93.811 228.061 93.6206C228.29 93.4302 228.567 93.2799 228.893 93.1699C229.223 93.0599 229.591 93.0049 229.997 93.0049C230.573 93.0049 231.066 93.1022 231.476 93.2969C231.891 93.4873 232.208 93.7476 232.428 94.0776C232.648 94.4035 232.758 94.7716 232.758 95.1821H231.229C231.229 95.0002 231.182 94.8309 231.089 94.6743C231 94.5135 230.865 94.3844 230.683 94.2871C230.501 94.1855 230.272 94.1348 229.997 94.1348C229.735 94.1348 229.517 94.1771 229.343 94.2617C229.174 94.3421 229.047 94.4479 228.962 94.5791C228.882 94.7103 228.842 94.8542 228.842 95.0107C228.842 95.125 228.863 95.2287 228.905 95.3218C228.952 95.4106 229.028 95.4932 229.134 95.5693C229.24 95.6413 229.383 95.709 229.565 95.7725C229.752 95.8359 229.984 95.8973 230.264 95.9565C230.788 96.0666 231.239 96.2083 231.616 96.3818C231.997 96.5511 232.289 96.7712 232.492 97.042C232.695 97.3086 232.796 97.6471 232.796 98.0576C232.796 98.3623 232.731 98.6416 232.6 98.8955C232.473 99.1452 232.286 99.3631 232.041 99.5493C231.796 99.7313 231.501 99.873 231.159 99.9746C230.82 100.076 230.439 100.127 230.016 100.127C229.394 100.127 228.867 100.017 228.436 99.7969C228.004 99.5726 227.676 99.2869 227.452 98.9399C227.232 98.5887 227.122 98.2248 227.122 97.8481H228.601C228.618 98.1317 228.696 98.3581 228.835 98.5273C228.979 98.6924 229.157 98.813 229.369 98.8892C229.584 98.9611 229.807 98.9971 230.035 98.9971C230.31 98.9971 230.541 98.9611 230.727 98.8892C230.913 98.813 231.055 98.7114 231.152 98.5845C231.25 98.4533 231.298 98.3052 231.298 98.1401Z" fill="#0045C4"/>
<path d="M16.5 80C16.5 78.067 18.067 76.5 20 76.5H400V115.5H20C18.067 115.5 16.5 113.933 16.5 112V80Z" stroke="#D5E3FD"/>
<path d="M400 76.5H780C781.933 76.5 783.5 78.067 783.5 80V112C783.5 113.933 781.933 115.5 780 115.5H400V76.5Z" fill="#17356D"/>
<path d="M545.296 94.6172V95.8804H540.389V94.6172H545.296ZM540.783 90.7578V100H539.189V90.7578H540.783ZM546.521 90.7578V100H544.934V90.7578H546.521ZM547.975 96.6421V96.4961C547.975 96.001 548.047 95.5418 548.19 95.1187C548.334 94.6912 548.542 94.321 548.812 94.0078C549.088 93.6904 549.422 93.445 549.815 93.2715C550.213 93.0938 550.662 93.0049 551.161 93.0049C551.665 93.0049 552.113 93.0938 552.507 93.2715C552.905 93.445 553.241 93.6904 553.516 94.0078C553.791 94.321 554.001 94.6912 554.145 95.1187C554.288 95.5418 554.36 96.001 554.36 96.4961V96.6421C554.36 97.1372 554.288 97.5964 554.145 98.0195C554.001 98.4427 553.791 98.813 553.516 99.1304C553.241 99.4435 552.907 99.689 552.513 99.8667C552.12 100.04 551.673 100.127 551.174 100.127C550.67 100.127 550.22 100.04 549.822 99.8667C549.428 99.689 549.094 99.4435 548.819 99.1304C548.544 98.813 548.334 98.4427 548.19 98.0195C548.047 97.5964 547.975 97.1372 547.975 96.6421ZM549.504 96.4961V96.6421C549.504 96.951 549.536 97.243 549.6 97.5181C549.663 97.7931 549.763 98.0343 549.898 98.2417C550.033 98.4491 550.207 98.612 550.418 98.7305C550.63 98.849 550.882 98.9082 551.174 98.9082C551.457 98.9082 551.703 98.849 551.91 98.7305C552.122 98.612 552.295 98.4491 552.431 98.2417C552.566 98.0343 552.666 97.7931 552.729 97.5181C552.797 97.243 552.831 96.951 552.831 96.6421V96.4961C552.831 96.1914 552.797 95.9036 552.729 95.6328C552.666 95.3577 552.564 95.1144 552.424 94.9028C552.289 94.6912 552.115 94.5262 551.904 94.4077C551.696 94.285 551.449 94.2236 551.161 94.2236C550.873 94.2236 550.624 94.285 550.412 94.4077C550.205 94.5262 550.033 94.6912 549.898 94.9028C549.763 95.1144 549.663 95.3577 549.6 95.6328C549.536 95.9036 549.504 96.1914 549.504 96.4961ZM557.509 98.4766L559.096 93.1318H560.073L559.807 94.7314L558.207 100H557.331L557.509 98.4766ZM556.576 93.1318L557.813 98.502L557.915 100H556.938L555.078 93.1318H556.576ZM561.559 98.4385L562.758 93.1318H564.25L562.396 100H561.419L561.559 98.4385ZM560.238 93.1318L561.806 98.4131L562.003 100H561.127L559.508 94.7251L559.242 93.1318H560.238ZM572.718 98.5781V90.25H574.254V100H572.864L572.718 98.5781ZM568.249 96.6421V96.5088C568.249 95.9883 568.31 95.5143 568.433 95.0869C568.556 94.6553 568.734 94.285 568.966 93.9761C569.199 93.6629 569.483 93.4238 569.817 93.2588C570.151 93.0895 570.528 93.0049 570.947 93.0049C571.361 93.0049 571.725 93.0853 572.039 93.2461C572.352 93.4069 572.618 93.6375 572.838 93.938C573.058 94.2342 573.234 94.5897 573.365 95.0044C573.496 95.4149 573.59 95.8719 573.645 96.3755V96.8008C573.59 97.2917 573.496 97.7402 573.365 98.1465C573.234 98.5527 573.058 98.904 572.838 99.2002C572.618 99.4964 572.35 99.7249 572.032 99.8857C571.719 100.047 571.353 100.127 570.934 100.127C570.519 100.127 570.145 100.04 569.811 99.8667C569.48 99.6932 569.199 99.4499 568.966 99.1367C568.734 98.8236 568.556 98.4554 568.433 98.0322C568.31 97.6048 568.249 97.1414 568.249 96.6421ZM569.779 96.5088V96.6421C569.779 96.9552 569.806 97.2472 569.861 97.5181C569.921 97.7889 570.012 98.028 570.134 98.2354C570.257 98.4385 570.416 98.5993 570.61 98.7178C570.809 98.832 571.046 98.8892 571.321 98.8892C571.668 98.8892 571.954 98.813 572.178 98.6606C572.403 98.5083 572.578 98.3031 572.705 98.0449C572.836 97.7826 572.925 97.4906 572.972 97.1689V96.02C572.946 95.7703 572.893 95.5376 572.813 95.3218C572.737 95.106 572.633 94.9176 572.502 94.7568C572.371 94.5918 572.208 94.4648 572.013 94.376C571.823 94.2829 571.596 94.2363 571.334 94.2363C571.055 94.2363 570.818 94.2956 570.623 94.4141C570.428 94.5326 570.268 94.6955 570.141 94.9028C570.018 95.1102 569.927 95.3514 569.868 95.6265C569.808 95.9015 569.779 96.1956 569.779 96.5088ZM575.562 96.6421V96.4961C575.562 96.001 575.633 95.5418 575.777 95.1187C575.921 94.6912 576.129 94.321 576.399 94.0078C576.674 93.6904 577.009 93.445 577.402 93.2715C577.8 93.0938 578.249 93.0049 578.748 93.0049C579.252 93.0049 579.7 93.0938 580.094 93.2715C580.492 93.445 580.828 93.6904 581.103 94.0078C581.378 94.321 581.588 94.6912 581.731 95.1187C581.875 95.5418 581.947 96.001 581.947 96.4961V96.6421C581.947 97.1372 581.875 97.5964 581.731 98.0195C581.588 98.4427 581.378 98.813 581.103 99.1304C580.828 99.4435 580.494 99.689 580.1 99.8667C579.707 100.04 579.26 100.127 578.761 100.127C578.257 100.127 577.806 100.04 577.409 99.8667C577.015 99.689 576.681 99.4435 576.406 99.1304C576.131 98.813 575.921 98.4427 575.777 98.0195C575.633 97.5964 575.562 97.1372 575.562 96.6421ZM577.091 96.4961V96.6421C577.091 96.951 577.123 97.243 577.187 97.5181C577.25 97.7931 577.349 98.0343 577.485 98.2417C577.62 98.4491 577.794 98.612 578.005 98.7305C578.217 98.849 578.469 98.9082 578.761 98.9082C579.044 98.9082 579.29 98.849 579.497 98.7305C579.709 98.612 579.882 98.4491 580.018 98.2417C580.153 98.0343 580.252 97.7931 580.316 97.5181C580.384 97.243 580.417 96.951 580.417 96.6421V96.4961C580.417 96.1914 580.384 95.9036 580.316 95.6328C580.252 95.3577 580.151 95.1144 580.011 94.9028C579.876 94.6912 579.702 94.5262 579.491 94.4077C579.283 94.285 579.036 94.2236 578.748 94.2236C578.46 94.2236 578.211 94.285 577.999 94.4077C577.792 94.5262 577.62 94.6912 577.485 94.9028C577.349 95.1144 577.25 95.3577 577.187 95.6328C577.123 95.9036 577.091 96.1914 577.091 96.4961ZM586.257 100.127C585.75 100.127 585.29 100.044 584.88 99.8794C584.474 99.7101 584.127 99.4753 583.839 99.1748C583.555 98.8743 583.337 98.521 583.185 98.1147C583.033 97.7085 582.957 97.2705 582.957 96.8008V96.5469C582.957 96.0094 583.035 95.5228 583.191 95.0869C583.348 94.651 583.566 94.2786 583.845 93.9697C584.125 93.6566 584.455 93.4175 584.835 93.2524C585.216 93.0874 585.629 93.0049 586.073 93.0049C586.564 93.0049 586.994 93.0874 587.362 93.2524C587.73 93.4175 588.035 93.6502 588.276 93.9507C588.521 94.2469 588.703 94.6003 588.822 95.0107C588.944 95.4212 589.006 95.874 589.006 96.3691V97.0229H583.699V95.9248H587.495V95.8042C587.487 95.5291 587.432 95.271 587.33 95.0298C587.233 94.7886 587.083 94.5939 586.879 94.4458C586.676 94.2977 586.405 94.2236 586.067 94.2236C585.813 94.2236 585.587 94.2786 585.388 94.3887C585.193 94.4945 585.03 94.6489 584.899 94.8521C584.768 95.0552 584.666 95.3006 584.594 95.5884C584.527 95.8719 584.493 96.1914 584.493 96.5469V96.8008C584.493 97.1012 584.533 97.3805 584.613 97.6387C584.698 97.8926 584.821 98.1147 584.981 98.3052C585.142 98.4956 585.337 98.6458 585.565 98.7559C585.794 98.8617 586.054 98.9146 586.346 98.9146C586.714 98.9146 587.042 98.8405 587.33 98.6924C587.618 98.5443 587.868 98.3348 588.079 98.064L588.885 98.8447C588.737 99.0605 588.545 99.2679 588.308 99.4668C588.071 99.6615 587.781 99.8201 587.438 99.9429C587.099 100.066 586.706 100.127 586.257 100.127ZM594.052 98.1401C594.052 97.9878 594.014 97.8503 593.938 97.7275C593.862 97.6006 593.716 97.4863 593.5 97.3848C593.288 97.2832 592.975 97.1901 592.561 97.1055C592.197 97.0251 591.862 96.9299 591.558 96.8198C591.257 96.7056 590.999 96.568 590.783 96.4072C590.567 96.2464 590.4 96.056 590.282 95.8359C590.163 95.6159 590.104 95.362 590.104 95.0742C590.104 94.7949 590.165 94.5304 590.288 94.2808C590.411 94.0311 590.586 93.811 590.815 93.6206C591.043 93.4302 591.321 93.2799 591.646 93.1699C591.977 93.0599 592.345 93.0049 592.751 93.0049C593.326 93.0049 593.819 93.1022 594.23 93.2969C594.645 93.4873 594.962 93.7476 595.182 94.0776C595.402 94.4035 595.512 94.7716 595.512 95.1821H593.982C593.982 95.0002 593.936 94.8309 593.843 94.6743C593.754 94.5135 593.618 94.3844 593.437 94.2871C593.255 94.1855 593.026 94.1348 592.751 94.1348C592.489 94.1348 592.271 94.1771 592.097 94.2617C591.928 94.3421 591.801 94.4479 591.716 94.5791C591.636 94.7103 591.596 94.8542 591.596 95.0107C591.596 95.125 591.617 95.2287 591.659 95.3218C591.706 95.4106 591.782 95.4932 591.888 95.5693C591.993 95.6413 592.137 95.709 592.319 95.7725C592.506 95.8359 592.738 95.8973 593.018 95.9565C593.542 96.0666 593.993 96.2083 594.37 96.3818C594.75 96.5511 595.042 96.7712 595.246 97.042C595.449 97.3086 595.55 97.6471 595.55 98.0576C595.55 98.3623 595.485 98.6416 595.354 98.8955C595.227 99.1452 595.04 99.3631 594.795 99.5493C594.549 99.7313 594.255 99.873 593.913 99.9746C593.574 100.076 593.193 100.127 592.77 100.127C592.148 100.127 591.621 100.017 591.189 99.7969C590.758 99.5726 590.43 99.2869 590.206 98.9399C589.986 98.5887 589.875 98.2248 589.875 97.8481H591.354C591.371 98.1317 591.45 98.3581 591.589 98.5273C591.733 98.6924 591.911 98.813 592.123 98.8892C592.338 98.9611 592.561 98.9971 592.789 98.9971C593.064 98.9971 593.295 98.9611 593.481 98.8892C593.667 98.813 593.809 98.7114 593.906 98.5845C594.004 98.4533 594.052 98.3052 594.052 98.1401ZM601.765 93.1318V100H600.229V93.1318H601.765ZM600.127 91.3291C600.127 91.0964 600.203 90.9038 600.355 90.7515C600.512 90.5949 600.728 90.5166 601.003 90.5166C601.274 90.5166 601.487 90.5949 601.644 90.7515C601.801 90.9038 601.879 91.0964 601.879 91.3291C601.879 91.5576 601.801 91.748 601.644 91.9004C601.487 92.0527 601.274 92.1289 601.003 92.1289C600.728 92.1289 600.512 92.0527 600.355 91.9004C600.203 91.748 600.127 91.5576 600.127 91.3291ZM606.589 93.1318V94.249H602.717V93.1318H606.589ZM603.834 91.4497H605.364V98.1021C605.364 98.3136 605.393 98.4766 605.453 98.5908C605.516 98.7008 605.603 98.7749 605.713 98.813C605.823 98.8511 605.952 98.8701 606.1 98.8701C606.206 98.8701 606.307 98.8638 606.405 98.8511C606.502 98.8384 606.58 98.8257 606.64 98.813L606.646 99.981C606.519 100.019 606.371 100.053 606.202 100.083C606.037 100.112 605.846 100.127 605.63 100.127C605.279 100.127 604.968 100.066 604.697 99.9429C604.426 99.8159 604.215 99.6107 604.062 99.3271C603.91 99.0436 603.834 98.667 603.834 98.1973V91.4497ZM612.873 98.4766L614.46 93.1318H615.438L615.171 94.7314L613.571 100H612.695L612.873 98.4766ZM611.94 93.1318L613.178 98.502L613.279 100H612.302L610.442 93.1318H611.94ZM616.923 98.4385L618.123 93.1318H619.614L617.761 100H616.783L616.923 98.4385ZM615.603 93.1318L617.17 98.4131L617.367 100H616.491L614.873 94.7251L614.606 93.1318H615.603ZM620.363 96.6421V96.4961C620.363 96.001 620.435 95.5418 620.579 95.1187C620.723 94.6912 620.93 94.321 621.201 94.0078C621.476 93.6904 621.811 93.445 622.204 93.2715C622.602 93.0938 623.05 93.0049 623.55 93.0049C624.053 93.0049 624.502 93.0938 624.896 93.2715C625.293 93.445 625.63 93.6904 625.905 94.0078C626.18 94.321 626.389 94.6912 626.533 95.1187C626.677 95.5418 626.749 96.001 626.749 96.4961V96.6421C626.749 97.1372 626.677 97.5964 626.533 98.0195C626.389 98.4427 626.18 98.813 625.905 99.1304C625.63 99.4435 625.295 99.689 624.902 99.8667C624.508 100.04 624.062 100.127 623.562 100.127C623.059 100.127 622.608 100.04 622.21 99.8667C621.817 99.689 621.483 99.4435 621.208 99.1304C620.932 98.813 620.723 98.4427 620.579 98.0195C620.435 97.5964 620.363 97.1372 620.363 96.6421ZM621.893 96.4961V96.6421C621.893 96.951 621.925 97.243 621.988 97.5181C622.052 97.7931 622.151 98.0343 622.287 98.2417C622.422 98.4491 622.596 98.612 622.807 98.7305C623.019 98.849 623.271 98.9082 623.562 98.9082C623.846 98.9082 624.091 98.849 624.299 98.7305C624.51 98.612 624.684 98.4491 624.819 98.2417C624.955 98.0343 625.054 97.7931 625.118 97.5181C625.185 97.243 625.219 96.951 625.219 96.6421V96.4961C625.219 96.1914 625.185 95.9036 625.118 95.6328C625.054 95.3577 624.953 95.1144 624.813 94.9028C624.678 94.6912 624.504 94.5262 624.292 94.4077C624.085 94.285 623.838 94.2236 623.55 94.2236C623.262 94.2236 623.012 94.285 622.801 94.4077C622.593 94.5262 622.422 94.6912 622.287 94.9028C622.151 95.1144 622.052 95.3577 621.988 95.6328C621.925 95.9036 621.893 96.1914 621.893 96.4961ZM629.567 94.4395V100H628.038V93.1318H629.498L629.567 94.4395ZM631.668 93.0874L631.656 94.5093C631.563 94.4924 631.461 94.4797 631.351 94.4712C631.245 94.4627 631.139 94.4585 631.034 94.4585C630.771 94.4585 630.541 94.4966 630.342 94.5728C630.143 94.6447 629.976 94.7505 629.84 94.8901C629.709 95.0256 629.608 95.1906 629.536 95.3853C629.464 95.5799 629.421 95.7979 629.409 96.0391L629.06 96.0645C629.06 95.6328 629.102 95.2329 629.187 94.8647C629.271 94.4966 629.398 94.1729 629.567 93.8936C629.741 93.6143 629.957 93.3963 630.215 93.2397C630.477 93.0832 630.78 93.0049 631.123 93.0049C631.216 93.0049 631.315 93.0133 631.421 93.0303C631.531 93.0472 631.613 93.0662 631.668 93.0874ZM634.169 90.25V100H632.633V90.25H634.169ZM638.435 93.1318L635.445 96.4453L633.808 98.1211L633.408 96.8262L634.646 95.2964L636.588 93.1318H638.435ZM636.918 100L634.69 96.7754L635.655 95.7026L638.689 100H636.918ZM642.269 97.2769H640.854C640.858 96.8833 640.892 96.5532 640.955 96.2866C641.019 96.0158 641.124 95.7703 641.272 95.5503C641.425 95.3302 641.626 95.0975 641.875 94.8521C642.07 94.6659 642.246 94.4902 642.402 94.3252C642.559 94.1559 642.684 93.9782 642.777 93.792C642.87 93.6016 642.917 93.3836 642.917 93.1382C642.917 92.8716 642.872 92.6452 642.783 92.459C642.694 92.2728 642.563 92.131 642.39 92.0337C642.22 91.9364 642.009 91.8877 641.755 91.8877C641.543 91.8877 641.344 91.93 641.158 92.0146C640.972 92.0951 640.822 92.222 640.708 92.3955C640.593 92.5648 640.532 92.7891 640.523 93.0684H638.994C639.002 92.5352 639.129 92.0866 639.375 91.7227C639.62 91.3587 639.95 91.0858 640.365 90.9038C640.779 90.7218 641.243 90.6309 641.755 90.6309C642.322 90.6309 642.806 90.7282 643.208 90.9229C643.611 91.1133 643.917 91.3926 644.129 91.7607C644.345 92.1247 644.453 92.5648 644.453 93.0811C644.453 93.4535 644.379 93.792 644.23 94.0967C644.082 94.3971 643.89 94.6785 643.653 94.9409C643.416 95.1991 643.16 95.4572 642.885 95.7153C642.648 95.9312 642.487 96.166 642.402 96.4199C642.318 96.6696 642.273 96.9552 642.269 97.2769ZM640.727 99.2573C640.727 99.0288 640.805 98.8363 640.961 98.6797C641.118 98.5189 641.332 98.4385 641.603 98.4385C641.873 98.4385 642.087 98.5189 642.244 98.6797C642.4 98.8363 642.479 99.0288 642.479 99.2573C642.479 99.4858 642.4 99.6805 642.244 99.8413C642.087 99.9979 641.873 100.076 641.603 100.076C641.332 100.076 641.118 99.9979 640.961 99.8413C640.805 99.6805 640.727 99.4858 640.727 99.2573Z" fill="white"/>
<path d="M400 76.5H780C781.933 76.5 783.5 78.067 783.5 80V112C783.5 113.933 781.933 115.5 780 115.5H400V76.5Z" stroke="#17356D"/>
<defs>
<clipPath id="clip0_3689_51804">
<rect x="363.5" y="16" width="70" height="44" rx="4" fill="white"/>
</clipPath>
</defs>
</svg>
