<svg width="800" height="143" viewBox="0 0 800 143" fill="none" xmlns="http://www.w3.org/2000/svg">
<mask id="path-1-inside-1_3686_53788" fill="white">
<rect width="800" height="143" rx="4"/>
</mask>
<rect width="800" height="143" rx="4" fill="white"/>
<path d="M101.5 56C101.5 54.067 103.067 52.5 105 52.5H204.5V91.5H105C103.067 91.5 101.5 89.933 101.5 88V56Z" fill="#EAF1FE"/>
<path d="M130.444 66H119.556C118.696 66 118 66.7274 118 67.625V74.9375C118 75.8351 118.696 76.5625 119.556 76.5625H123.16L122.927 77.7812H121.694C121.374 77.7812 121.111 78.0555 121.111 78.3906C121.111 78.7258 121.374 79 121.694 79H128.306C128.628 79 128.889 78.7271 128.889 78.3906C128.889 78.0542 128.628 77.7812 128.306 77.7812H127.073L126.84 76.5625H130.444C131.304 76.5625 132 75.8351 132 74.9375V67.625C132 66.7274 131.302 66 130.444 66ZM125.882 77.7812H124.118L124.351 76.5625H125.65L125.882 77.7812ZM130.833 74.9375C130.833 75.1615 130.659 75.3438 130.444 75.3438H119.556C119.341 75.3438 119.167 75.1615 119.167 74.9375V67.625C119.167 67.401 119.341 67.2188 119.556 67.2188H130.444C130.659 67.2188 130.833 67.401 130.833 67.625V74.9375Z" fill="#286EF1"/>
<path d="M144.625 76H142.65L142.663 74.7368H144.625C145.196 74.7368 145.674 74.612 146.059 74.3623C146.448 74.1126 146.74 73.755 146.935 73.2896C147.134 72.8241 147.233 72.2697 147.233 71.6265V71.125C147.233 70.6257 147.176 70.1834 147.062 69.7983C146.952 69.4132 146.787 69.0895 146.567 68.8271C146.351 68.5648 146.084 68.3659 145.767 68.2305C145.454 68.0951 145.092 68.0273 144.682 68.0273H142.612V66.7578H144.682C145.295 66.7578 145.856 66.8615 146.364 67.0688C146.872 67.272 147.31 67.5661 147.678 67.9512C148.05 68.3363 148.336 68.7975 148.535 69.335C148.734 69.8724 148.833 70.4733 148.833 71.1377V71.6265C148.833 72.2909 148.734 72.8918 148.535 73.4292C148.336 73.9666 148.05 74.4279 147.678 74.813C147.305 75.1938 146.861 75.488 146.345 75.6953C145.833 75.8984 145.259 76 144.625 76ZM143.533 66.7578V76H141.939V66.7578H143.533ZM153.308 76.127C152.8 76.127 152.341 76.0444 151.931 75.8794C151.524 75.7101 151.177 75.4753 150.89 75.1748C150.606 74.8743 150.388 74.521 150.236 74.1147C150.083 73.7085 150.007 73.2705 150.007 72.8008V72.5469C150.007 72.0094 150.086 71.5228 150.242 71.0869C150.399 70.651 150.617 70.2786 150.896 69.9697C151.175 69.6566 151.505 69.4175 151.886 69.2524C152.267 69.0874 152.68 69.0049 153.124 69.0049C153.615 69.0049 154.044 69.0874 154.413 69.2524C154.781 69.4175 155.085 69.6502 155.327 69.9507C155.572 70.2469 155.754 70.6003 155.873 71.0107C155.995 71.4212 156.057 71.874 156.057 72.3691V73.0229H150.75V71.9248H154.546V71.8042C154.537 71.5291 154.482 71.271 154.381 71.0298C154.284 70.7886 154.133 70.5939 153.93 70.4458C153.727 70.2977 153.456 70.2236 153.118 70.2236C152.864 70.2236 152.637 70.2786 152.438 70.3887C152.244 70.4945 152.081 70.6489 151.95 70.8521C151.819 71.0552 151.717 71.3006 151.645 71.5884C151.577 71.8719 151.543 72.1914 151.543 72.5469V72.8008C151.543 73.1012 151.584 73.3805 151.664 73.6387C151.749 73.8926 151.871 74.1147 152.032 74.3052C152.193 74.4956 152.388 74.6458 152.616 74.7559C152.845 74.8617 153.105 74.9146 153.397 74.9146C153.765 74.9146 154.093 74.8405 154.381 74.6924C154.669 74.5443 154.918 74.3348 155.13 74.064L155.936 74.8447C155.788 75.0605 155.595 75.2679 155.358 75.4668C155.121 75.6615 154.832 75.8201 154.489 75.9429C154.15 76.0656 153.757 76.127 153.308 76.127ZM161.103 74.1401C161.103 73.9878 161.065 73.8503 160.989 73.7275C160.913 73.6006 160.767 73.4863 160.551 73.3848C160.339 73.2832 160.026 73.1901 159.611 73.1055C159.247 73.0251 158.913 72.9299 158.608 72.8198C158.308 72.7056 158.05 72.568 157.834 72.4072C157.618 72.2464 157.451 72.056 157.333 71.8359C157.214 71.6159 157.155 71.362 157.155 71.0742C157.155 70.7949 157.216 70.5304 157.339 70.2808C157.462 70.0311 157.637 69.811 157.866 69.6206C158.094 69.4302 158.371 69.2799 158.697 69.1699C159.027 69.0599 159.396 69.0049 159.802 69.0049C160.377 69.0049 160.87 69.1022 161.281 69.2969C161.695 69.4873 162.013 69.7476 162.233 70.0776C162.453 70.4035 162.563 70.7716 162.563 71.1821H161.033C161.033 71.0002 160.987 70.8309 160.894 70.6743C160.805 70.5135 160.669 70.3844 160.487 70.2871C160.305 70.1855 160.077 70.1348 159.802 70.1348C159.539 70.1348 159.321 70.1771 159.148 70.2617C158.979 70.3421 158.852 70.4479 158.767 70.5791C158.687 70.7103 158.646 70.8542 158.646 71.0107C158.646 71.125 158.668 71.2287 158.71 71.3218C158.757 71.4106 158.833 71.4932 158.938 71.5693C159.044 71.6413 159.188 71.709 159.37 71.7725C159.556 71.8359 159.789 71.8973 160.068 71.9565C160.593 72.0666 161.044 72.2083 161.42 72.3818C161.801 72.5511 162.093 72.7712 162.296 73.042C162.5 73.3086 162.601 73.6471 162.601 74.0576C162.601 74.3623 162.535 74.6416 162.404 74.8955C162.277 75.1452 162.091 75.3631 161.846 75.5493C161.6 75.7313 161.306 75.873 160.963 75.9746C160.625 76.0762 160.244 76.127 159.821 76.127C159.199 76.127 158.672 76.0169 158.24 75.7969C157.809 75.5726 157.481 75.2869 157.256 74.9399C157.036 74.5887 156.926 74.2248 156.926 73.8481H158.405C158.422 74.1317 158.5 74.3581 158.64 74.5273C158.784 74.6924 158.962 74.813 159.173 74.8892C159.389 74.9611 159.611 74.9971 159.84 74.9971C160.115 74.9971 160.346 74.9611 160.532 74.8892C160.718 74.813 160.86 74.7114 160.957 74.5845C161.054 74.4533 161.103 74.3052 161.103 74.1401ZM165.483 66.25V76H163.947V66.25H165.483ZM169.749 69.1318L166.759 72.4453L165.121 74.1211L164.721 72.8262L165.959 71.2964L167.901 69.1318H169.749ZM168.231 76L166.003 72.7754L166.968 71.7026L170.002 76H168.231ZM173.868 69.1318V70.249H169.996V69.1318H173.868ZM171.113 67.4497H172.643V74.1021C172.643 74.3136 172.673 74.4766 172.732 74.5908C172.795 74.7008 172.882 74.7749 172.992 74.813C173.102 74.8511 173.231 74.8701 173.379 74.8701C173.485 74.8701 173.587 74.8638 173.684 74.8511C173.781 74.8384 173.86 74.8257 173.919 74.813L173.925 75.981C173.798 76.019 173.65 76.0529 173.481 76.0825C173.316 76.1121 173.125 76.127 172.91 76.127C172.558 76.127 172.247 76.0656 171.977 75.9429C171.706 75.8159 171.494 75.6107 171.342 75.3271C171.189 75.0436 171.113 74.667 171.113 74.1973V67.4497ZM174.604 72.6421V72.4961C174.604 72.001 174.676 71.5418 174.82 71.1187C174.964 70.6912 175.172 70.321 175.442 70.0078C175.717 69.6904 176.052 69.445 176.445 69.2715C176.843 69.0938 177.292 69.0049 177.791 69.0049C178.295 69.0049 178.743 69.0938 179.137 69.2715C179.535 69.445 179.871 69.6904 180.146 70.0078C180.421 70.321 180.631 70.6912 180.774 71.1187C180.918 71.5418 180.99 72.001 180.99 72.4961V72.6421C180.99 73.1372 180.918 73.5964 180.774 74.0195C180.631 74.4427 180.421 74.813 180.146 75.1304C179.871 75.4435 179.537 75.689 179.143 75.8667C178.75 76.0402 178.303 76.127 177.804 76.127C177.3 76.127 176.849 76.0402 176.452 75.8667C176.058 75.689 175.724 75.4435 175.449 75.1304C175.174 74.813 174.964 74.4427 174.82 74.0195C174.676 73.5964 174.604 73.1372 174.604 72.6421ZM176.134 72.4961V72.6421C176.134 72.951 176.166 73.243 176.229 73.5181C176.293 73.7931 176.392 74.0343 176.528 74.2417C176.663 74.4491 176.837 74.612 177.048 74.7305C177.26 74.849 177.512 74.9082 177.804 74.9082C178.087 74.9082 178.333 74.849 178.54 74.7305C178.752 74.612 178.925 74.4491 179.061 74.2417C179.196 74.0343 179.295 73.7931 179.359 73.5181C179.427 73.243 179.46 72.951 179.46 72.6421V72.4961C179.46 72.1914 179.427 71.9036 179.359 71.6328C179.295 71.3577 179.194 71.1144 179.054 70.9028C178.919 70.6912 178.745 70.5262 178.534 70.4077C178.326 70.285 178.079 70.2236 177.791 70.2236C177.503 70.2236 177.254 70.285 177.042 70.4077C176.835 70.5262 176.663 70.6912 176.528 70.9028C176.392 71.1144 176.293 71.3577 176.229 71.6328C176.166 71.9036 176.134 72.1914 176.134 72.4961ZM183.809 70.4521V78.6406H182.279V69.1318H183.688L183.809 70.4521ZM188.284 72.5024V72.6357C188.284 73.1351 188.224 73.5985 188.106 74.0259C187.992 74.4491 187.82 74.8193 187.592 75.1367C187.368 75.4499 187.09 75.6932 186.76 75.8667C186.43 76.0402 186.049 76.127 185.618 76.127C185.19 76.127 184.816 76.0487 184.494 75.8921C184.177 75.7313 183.908 75.5049 183.688 75.2129C183.468 74.9209 183.29 74.5781 183.155 74.1846C183.024 73.7868 182.931 73.3509 182.875 72.877V72.3628C182.931 71.8592 183.024 71.4022 183.155 70.9917C183.29 70.5812 183.468 70.2279 183.688 69.9316C183.908 69.6354 184.177 69.4069 184.494 69.2461C184.812 69.0853 185.182 69.0049 185.605 69.0049C186.037 69.0049 186.42 69.0895 186.754 69.2588C187.088 69.4238 187.37 69.6608 187.598 69.9697C187.827 70.2744 187.998 70.6426 188.112 71.0742C188.227 71.5016 188.284 71.9777 188.284 72.5024ZM186.754 72.6357V72.5024C186.754 72.1851 186.724 71.891 186.665 71.6201C186.606 71.3451 186.513 71.1038 186.386 70.8965C186.259 70.6891 186.096 70.5283 185.897 70.4141C185.702 70.2956 185.467 70.2363 185.192 70.2363C184.922 70.2363 184.689 70.2829 184.494 70.376C184.299 70.4648 184.137 70.5897 184.005 70.7505C183.874 70.9113 183.773 71.0996 183.701 71.3154C183.629 71.527 183.578 71.7576 183.548 72.0073V73.2388C183.599 73.5435 183.686 73.8228 183.809 74.0767C183.931 74.3306 184.105 74.5337 184.329 74.686C184.558 74.8341 184.85 74.9082 185.205 74.9082C185.48 74.9082 185.715 74.849 185.91 74.7305C186.104 74.612 186.263 74.4491 186.386 74.2417C186.513 74.0301 186.606 73.7868 186.665 73.5117C186.724 73.2367 186.754 72.9447 186.754 72.6357Z" fill="#286EF1"/>
<path d="M101.5 56C101.5 54.067 103.067 52.5 105 52.5H204.5V91.5H105C103.067 91.5 101.5 89.933 101.5 88V56Z" stroke="#D5E3FD"/>
<path d="M204.5 52.5H296C297.933 52.5 299.5 54.067 299.5 56V88C299.5 89.933 297.933 91.5 296 91.5H204.5V52.5Z" fill="white"/>
<path d="M231.182 65H224.818C223.814 65 223 65.7834 223 66.75V77.25C223 78.2166 223.814 79 224.818 79H231.182C232.186 79 233 78.2166 233 77.25V66.75C233 65.7834 232.185 65 231.182 65ZM231.636 77.25C231.636 77.4912 231.432 77.6875 231.182 77.6875H224.818C224.568 77.6875 224.364 77.4906 224.364 77.25V66.75C224.364 66.5088 224.568 66.3125 224.818 66.3125H231.182C231.432 66.3125 231.636 66.5088 231.636 66.75V77.25ZM228 75.7188C227.624 75.7188 227.318 76.0124 227.318 76.375C227.318 76.7373 227.624 77.0312 228 77.0312C228.376 77.0312 228.682 76.7373 228.682 76.375C228.682 76.0113 228.378 75.7188 228 75.7188Z" fill="#505050"/>
<path d="M245.587 66.7578H247.009L249.681 73.8862L252.347 66.7578H253.769L250.24 76H249.11L245.587 66.7578ZM244.939 66.7578H246.292L246.526 72.9277V76H244.939V66.7578ZM253.064 66.7578H254.423V76H252.83V72.9277L253.064 66.7578ZM255.87 72.6421V72.4961C255.87 72.001 255.942 71.5418 256.086 71.1187C256.23 70.6912 256.437 70.321 256.708 70.0078C256.983 69.6904 257.317 69.445 257.711 69.2715C258.109 69.0938 258.557 69.0049 259.057 69.0049C259.56 69.0049 260.009 69.0938 260.402 69.2715C260.8 69.445 261.137 69.6904 261.412 70.0078C261.687 70.321 261.896 70.6912 262.04 71.1187C262.184 71.5418 262.256 72.001 262.256 72.4961V72.6421C262.256 73.1372 262.184 73.5964 262.04 74.0195C261.896 74.4427 261.687 74.813 261.412 75.1304C261.137 75.4435 260.802 75.689 260.409 75.8667C260.015 76.0402 259.569 76.127 259.069 76.127C258.566 76.127 258.115 76.0402 257.717 75.8667C257.324 75.689 256.989 75.4435 256.714 75.1304C256.439 74.813 256.23 74.4427 256.086 74.0195C255.942 73.5964 255.87 73.1372 255.87 72.6421ZM257.4 72.4961V72.6421C257.4 72.951 257.432 73.243 257.495 73.5181C257.559 73.7931 257.658 74.0343 257.793 74.2417C257.929 74.4491 258.102 74.612 258.314 74.7305C258.526 74.849 258.777 74.9082 259.069 74.9082C259.353 74.9082 259.598 74.849 259.806 74.7305C260.017 74.612 260.191 74.4491 260.326 74.2417C260.462 74.0343 260.561 73.7931 260.625 73.5181C260.692 73.243 260.726 72.951 260.726 72.6421V72.4961C260.726 72.1914 260.692 71.9036 260.625 71.6328C260.561 71.3577 260.459 71.1144 260.32 70.9028C260.184 70.6912 260.011 70.5262 259.799 70.4077C259.592 70.285 259.344 70.2236 259.057 70.2236C258.769 70.2236 258.519 70.285 258.308 70.4077C258.1 70.5262 257.929 70.6912 257.793 70.9028C257.658 71.1144 257.559 71.3577 257.495 71.6328C257.432 71.9036 257.4 72.1914 257.4 72.4961ZM263.544 66.25H265.074V74.5337L264.928 76H263.544V66.25ZM269.556 72.5024V72.6357C269.556 73.1436 269.499 73.6112 269.384 74.0386C269.274 74.4618 269.105 74.8299 268.876 75.1431C268.652 75.4562 268.373 75.6995 268.039 75.873C267.708 76.0423 267.326 76.127 266.89 76.127C266.462 76.127 266.09 76.0465 265.772 75.8857C265.455 75.7249 265.188 75.4964 264.973 75.2002C264.761 74.904 264.59 74.5506 264.458 74.1401C264.327 73.7297 264.234 73.2769 264.179 72.7817V72.3564C264.234 71.8571 264.327 71.4043 264.458 70.998C264.59 70.5876 264.761 70.2342 264.973 69.938C265.188 69.6375 265.453 69.4069 265.766 69.2461C266.083 69.0853 266.454 69.0049 266.877 69.0049C267.317 69.0049 267.704 69.0895 268.039 69.2588C268.377 69.4281 268.659 69.6693 268.883 69.9824C269.107 70.2913 269.274 70.6595 269.384 71.0869C269.499 71.5143 269.556 71.9862 269.556 72.5024ZM268.026 72.6357V72.5024C268.026 72.1935 268 71.9036 267.95 71.6328C267.899 71.3577 267.814 71.1165 267.696 70.9092C267.582 70.7018 267.425 70.5389 267.226 70.4204C267.031 70.2977 266.788 70.2363 266.496 70.2363C266.225 70.2363 265.993 70.2829 265.798 70.376C265.603 70.4691 265.44 70.596 265.309 70.7568C265.178 70.9176 265.074 71.1038 264.998 71.3154C264.926 71.527 264.877 71.7555 264.852 72.001V73.1499C264.89 73.4673 264.971 73.7593 265.093 74.0259C265.22 74.2882 265.398 74.4998 265.626 74.6606C265.855 74.8172 266.149 74.8955 266.509 74.8955C266.792 74.8955 267.031 74.8384 267.226 74.7241C267.421 74.6099 267.575 74.4512 267.689 74.248C267.808 74.0407 267.893 73.7995 267.943 73.5244C267.998 73.2493 268.026 72.9531 268.026 72.6357ZM272.488 69.1318V76H270.952V69.1318H272.488ZM270.851 67.3291C270.851 67.0964 270.927 66.9038 271.079 66.7515C271.236 66.5949 271.451 66.5166 271.727 66.5166C271.997 66.5166 272.211 66.5949 272.368 66.7515C272.524 66.9038 272.603 67.0964 272.603 67.3291C272.603 67.5576 272.524 67.748 272.368 67.9004C272.211 68.0527 271.997 68.1289 271.727 68.1289C271.451 68.1289 271.236 68.0527 271.079 67.9004C270.927 67.748 270.851 67.5576 270.851 67.3291ZM275.802 66.25V76H274.266V66.25H275.802ZM280.505 76.127C279.998 76.127 279.538 76.0444 279.128 75.8794C278.722 75.7101 278.375 75.4753 278.087 75.1748C277.803 74.8743 277.585 74.521 277.433 74.1147C277.281 73.7085 277.205 73.2705 277.205 72.8008V72.5469C277.205 72.0094 277.283 71.5228 277.439 71.0869C277.596 70.651 277.814 70.2786 278.093 69.9697C278.373 69.6566 278.703 69.4175 279.083 69.2524C279.464 69.0874 279.877 69.0049 280.321 69.0049C280.812 69.0049 281.242 69.0874 281.61 69.2524C281.978 69.4175 282.283 69.6502 282.524 69.9507C282.769 70.2469 282.951 70.6003 283.07 71.0107C283.193 71.4212 283.254 71.874 283.254 72.3691V73.0229H277.947V71.9248H281.743V71.8042C281.735 71.5291 281.68 71.271 281.578 71.0298C281.481 70.7886 281.331 70.5939 281.127 70.4458C280.924 70.2977 280.653 70.2236 280.315 70.2236C280.061 70.2236 279.835 70.2786 279.636 70.3887C279.441 70.4945 279.278 70.6489 279.147 70.8521C279.016 71.0552 278.914 71.3006 278.842 71.5884C278.775 71.8719 278.741 72.1914 278.741 72.5469V72.8008C278.741 73.1012 278.781 73.3805 278.861 73.6387C278.946 73.8926 279.069 74.1147 279.229 74.3052C279.39 74.4956 279.585 74.6458 279.813 74.7559C280.042 74.8617 280.302 74.9146 280.594 74.9146C280.962 74.9146 281.29 74.8405 281.578 74.6924C281.866 74.5443 282.116 74.3348 282.327 74.064L283.133 74.8447C282.985 75.0605 282.793 75.2679 282.556 75.4668C282.319 75.6615 282.029 75.8201 281.686 75.9429C281.347 76.0656 280.954 76.127 280.505 76.127Z" fill="#505050"/>
<path d="M204.5 52.5H296C297.933 52.5 299.5 54.067 299.5 56V88C299.5 89.933 297.933 91.5 296 91.5H204.5V52.5Z" stroke="#E6E6E6"/>
<path d="M539.5 60C539.5 58.067 541.067 56.5 543 56.5H586.5V95.5H543C541.067 95.5 539.5 93.933 539.5 92V60Z" fill="#EAF1FE"/>
<path d="M568.444 70H557.556C556.696 70 556 70.7274 556 71.625V78.9375C556 79.8351 556.696 80.5625 557.556 80.5625H561.16L560.927 81.7812H559.694C559.374 81.7812 559.111 82.0555 559.111 82.3906C559.111 82.7258 559.374 83 559.694 83H566.306C566.628 83 566.889 82.7271 566.889 82.3906C566.889 82.0542 566.628 81.7812 566.306 81.7812H565.073L564.84 80.5625H568.444C569.304 80.5625 570 79.8351 570 78.9375V71.625C570 70.7274 569.302 70 568.444 70ZM563.882 81.7812H562.118L562.351 80.5625H563.65L563.882 81.7812ZM568.833 78.9375C568.833 79.1615 568.659 79.3438 568.444 79.3438H557.556C557.341 79.3438 557.167 79.1615 557.167 78.9375V71.625C557.167 71.401 557.341 71.2188 557.556 71.2188H568.444C568.659 71.2188 568.833 71.401 568.833 71.625V78.9375Z" fill="#286EF1"/>
<path d="M539.5 60C539.5 58.067 541.067 56.5 543 56.5H586.5V95.5H543C541.067 95.5 539.5 93.933 539.5 92V60Z" stroke="#D5E3FD"/>
<path d="M586.5 56.5H630C631.933 56.5 633.5 58.067 633.5 60V92C633.5 93.933 631.933 95.5 630 95.5H586.5V56.5Z" fill="white"/>
<path d="M613.182 69H606.818C605.814 69 605 69.7834 605 70.75V81.25C605 82.2166 605.814 83 606.818 83H613.182C614.186 83 615 82.2166 615 81.25V70.75C615 69.7834 614.185 69 613.182 69ZM613.636 81.25C613.636 81.4912 613.432 81.6875 613.182 81.6875H606.818C606.568 81.6875 606.364 81.4906 606.364 81.25V70.75C606.364 70.5088 606.568 70.3125 606.818 70.3125H613.182C613.432 70.3125 613.636 70.5088 613.636 70.75V81.25ZM610 79.7188C609.624 79.7188 609.318 80.0124 609.318 80.375C609.318 80.7373 609.624 81.0312 610 81.0312C610.376 81.0312 610.682 80.7373 610.682 80.375C610.682 80.0113 610.378 79.7188 610 79.7188Z" fill="#505050"/>
<path d="M586.5 56.5H630C631.933 56.5 633.5 58.067 633.5 60V92C633.5 93.933 631.933 95.5 630 95.5H586.5V56.5Z" stroke="#E6E6E6"/>
<line x1="400.5" y1="16" x2="400.5" y2="127" stroke="#EDEDED"/>
<rect width="800" height="143" rx="4" stroke="#F8F8F8" stroke-width="32" mask="url(#path-1-inside-1_3686_53788)"/>
</svg>
