<svg width="800" height="143" viewBox="0 0 800 143" fill="none" xmlns="http://www.w3.org/2000/svg">
<mask id="path-1-inside-1_3686_53780" fill="white">
<rect width="800" height="143" rx="4"/>
</mask>
<rect width="800" height="143" rx="4" fill="white"/>
<path d="M215.5 56C215.5 54.067 217.067 52.5 219 52.5H288.5V91.5H219C217.067 91.5 215.5 89.933 215.5 88V56Z" fill="white"/>
<path d="M234.625 76H232.65L232.663 74.7368H234.625C235.196 74.7368 235.674 74.612 236.059 74.3623C236.448 74.1126 236.74 73.755 236.935 73.2896C237.134 72.8241 237.233 72.2697 237.233 71.6265V71.125C237.233 70.6257 237.176 70.1834 237.062 69.7983C236.952 69.4132 236.787 69.0895 236.567 68.8271C236.351 68.5648 236.084 68.3659 235.767 68.2305C235.454 68.0951 235.092 68.0273 234.682 68.0273H232.612V66.7578H234.682C235.295 66.7578 235.856 66.8615 236.364 67.0688C236.872 67.272 237.31 67.5661 237.678 67.9512C238.05 68.3363 238.336 68.7975 238.535 69.335C238.734 69.8724 238.833 70.4733 238.833 71.1377V71.6265C238.833 72.2909 238.734 72.8918 238.535 73.4292C238.336 73.9666 238.05 74.4279 237.678 74.813C237.305 75.1938 236.861 75.488 236.345 75.6953C235.833 75.8984 235.259 76 234.625 76ZM233.533 66.7578V76H231.939V66.7578H233.533ZM243.308 76.127C242.8 76.127 242.341 76.0444 241.931 75.8794C241.524 75.7101 241.177 75.4753 240.89 75.1748C240.606 74.8743 240.388 74.521 240.236 74.1147C240.083 73.7085 240.007 73.2705 240.007 72.8008V72.5469C240.007 72.0094 240.086 71.5228 240.242 71.0869C240.399 70.651 240.617 70.2786 240.896 69.9697C241.175 69.6566 241.505 69.4175 241.886 69.2524C242.267 69.0874 242.68 69.0049 243.124 69.0049C243.615 69.0049 244.044 69.0874 244.413 69.2524C244.781 69.4175 245.085 69.6502 245.327 69.9507C245.572 70.2469 245.754 70.6003 245.873 71.0107C245.995 71.4212 246.057 71.874 246.057 72.3691V73.0229H240.75V71.9248H244.546V71.8042C244.537 71.5291 244.482 71.271 244.381 71.0298C244.284 70.7886 244.133 70.5939 243.93 70.4458C243.727 70.2977 243.456 70.2236 243.118 70.2236C242.864 70.2236 242.637 70.2786 242.438 70.3887C242.244 70.4945 242.081 70.6489 241.95 70.8521C241.819 71.0552 241.717 71.3006 241.645 71.5884C241.577 71.8719 241.543 72.1914 241.543 72.5469V72.8008C241.543 73.1012 241.584 73.3805 241.664 73.6387C241.749 73.8926 241.871 74.1147 242.032 74.3052C242.193 74.4956 242.388 74.6458 242.616 74.7559C242.845 74.8617 243.105 74.9146 243.397 74.9146C243.765 74.9146 244.093 74.8405 244.381 74.6924C244.669 74.5443 244.918 74.3348 245.13 74.064L245.936 74.8447C245.788 75.0605 245.595 75.2679 245.358 75.4668C245.121 75.6615 244.832 75.8201 244.489 75.9429C244.15 76.0656 243.757 76.127 243.308 76.127ZM249.319 76H247.79V68.4717C247.79 67.9596 247.885 67.5301 248.075 67.1831C248.27 66.8319 248.547 66.5674 248.907 66.3896C249.266 66.2077 249.692 66.1167 250.183 66.1167C250.335 66.1167 250.485 66.1273 250.633 66.1484C250.781 66.1654 250.925 66.1929 251.065 66.231L251.027 67.4116C250.942 67.3905 250.849 67.3757 250.748 67.3672C250.65 67.3587 250.544 67.3545 250.43 67.3545C250.197 67.3545 249.996 67.3989 249.827 67.4878C249.662 67.5724 249.535 67.6973 249.446 67.8623C249.362 68.0273 249.319 68.2305 249.319 68.4717V76ZM250.735 69.1318V70.249H246.736V69.1318H250.735ZM255.718 74.6226V71.3472C255.718 71.1017 255.673 70.8901 255.584 70.7124C255.496 70.5347 255.36 70.3971 255.178 70.2998C255 70.2025 254.776 70.1538 254.505 70.1538C254.256 70.1538 254.04 70.1961 253.858 70.2808C253.676 70.3654 253.534 70.4797 253.433 70.6235C253.331 70.7674 253.28 70.9303 253.28 71.1123H251.757C251.757 70.8415 251.822 70.5791 251.954 70.3252C252.085 70.0713 252.275 69.8449 252.525 69.646C252.775 69.4471 253.073 69.2905 253.42 69.1763C253.767 69.062 254.156 69.0049 254.588 69.0049C255.104 69.0049 255.561 69.0916 255.959 69.2651C256.361 69.4386 256.676 69.701 256.905 70.0522C257.138 70.3993 257.254 70.8351 257.254 71.3599V74.4131C257.254 74.7262 257.275 75.0076 257.317 75.2573C257.364 75.5028 257.43 75.7165 257.514 75.8984V76H255.946C255.874 75.835 255.817 75.6255 255.775 75.3716C255.737 75.1134 255.718 74.8638 255.718 74.6226ZM255.94 71.8232L255.953 72.769H254.854C254.571 72.769 254.321 72.7965 254.105 72.8516C253.89 72.9023 253.71 72.9785 253.566 73.0801C253.422 73.1816 253.314 73.3044 253.242 73.4482C253.17 73.5921 253.134 73.755 253.134 73.937C253.134 74.119 253.177 74.2861 253.261 74.4385C253.346 74.5866 253.469 74.703 253.629 74.7876C253.794 74.8722 253.993 74.9146 254.226 74.9146C254.539 74.9146 254.812 74.8511 255.045 74.7241C255.282 74.5929 255.468 74.4342 255.604 74.248C255.739 74.0576 255.811 73.8778 255.819 73.7085L256.314 74.3877C256.264 74.5612 256.177 74.7474 256.054 74.9463C255.931 75.1452 255.771 75.3356 255.572 75.5176C255.377 75.6953 255.142 75.8413 254.867 75.9556C254.596 76.0698 254.283 76.127 253.928 76.127C253.479 76.127 253.079 76.0381 252.728 75.8604C252.377 75.6784 252.102 75.4351 251.903 75.1304C251.704 74.8215 251.604 74.4723 251.604 74.083C251.604 73.7191 251.672 73.3975 251.808 73.1182C251.947 72.8346 252.15 72.5977 252.417 72.4072C252.688 72.2168 253.018 72.0729 253.407 71.9756C253.797 71.874 254.241 71.8232 254.74 71.8232H255.94ZM262.986 74.3813V69.1318H264.522V76H263.075L262.986 74.3813ZM263.202 72.9531L263.716 72.9404C263.716 73.4017 263.665 73.827 263.563 74.2163C263.462 74.6014 263.305 74.9378 263.094 75.2256C262.882 75.5091 262.611 75.7313 262.281 75.8921C261.951 76.0487 261.556 76.127 261.094 76.127C260.76 76.127 260.453 76.0783 260.174 75.981C259.895 75.8836 259.653 75.7334 259.45 75.5303C259.251 75.3271 259.097 75.0627 258.987 74.7368C258.877 74.411 258.822 74.0216 258.822 73.5688V69.1318H260.352V73.5815C260.352 73.8312 260.381 74.0407 260.44 74.21C260.5 74.375 260.58 74.5083 260.682 74.6099C260.783 74.7114 260.902 74.7834 261.037 74.8257C261.173 74.868 261.316 74.8892 261.469 74.8892C261.905 74.8892 262.247 74.8045 262.497 74.6353C262.751 74.4618 262.931 74.229 263.037 73.937C263.147 73.645 263.202 73.3171 263.202 72.9531ZM267.728 66.25V76H266.191V66.25H267.728ZM272.552 69.1318V70.249H268.68V69.1318H272.552ZM269.797 67.4497H271.327V74.1021C271.327 74.3136 271.356 74.4766 271.416 74.5908C271.479 74.7008 271.566 74.7749 271.676 74.813C271.786 74.8511 271.915 74.8701 272.063 74.8701C272.169 74.8701 272.27 74.8638 272.368 74.8511C272.465 74.8384 272.543 74.8257 272.603 74.813L272.609 75.981C272.482 76.019 272.334 76.0529 272.165 76.0825C272 76.1121 271.809 76.127 271.593 76.127C271.242 76.127 270.931 76.0656 270.66 75.9429C270.389 75.8159 270.178 75.6107 270.025 75.3271C269.873 75.0436 269.797 74.667 269.797 74.1973V67.4497Z" fill="#505050"/>
<path d="M215.5 56C215.5 54.067 217.067 52.5 219 52.5H288.5V91.5H219C217.067 91.5 215.5 89.933 215.5 88V56Z" stroke="#E6E6E6"/>
<path d="M288.5 52.5H354.5V91.5H288.5V52.5Z" fill="#F2F2F2"/>
<path d="M311.046 70.6172V71.8804H306.139V70.6172H311.046ZM306.533 66.7578V76H304.939V66.7578H306.533ZM312.271 66.7578V76H310.684V66.7578H312.271ZM313.725 72.6421V72.4961C313.725 72.001 313.797 71.5418 313.94 71.1187C314.084 70.6912 314.292 70.321 314.562 70.0078C314.838 69.6904 315.172 69.445 315.565 69.2715C315.963 69.0938 316.412 69.0049 316.911 69.0049C317.415 69.0049 317.863 69.0938 318.257 69.2715C318.655 69.445 318.991 69.6904 319.266 70.0078C319.541 70.321 319.751 70.6912 319.895 71.1187C320.038 71.5418 320.11 72.001 320.11 72.4961V72.6421C320.11 73.1372 320.038 73.5964 319.895 74.0195C319.751 74.4427 319.541 74.813 319.266 75.1304C318.991 75.4435 318.657 75.689 318.263 75.8667C317.87 76.0402 317.423 76.127 316.924 76.127C316.42 76.127 315.97 76.0402 315.572 75.8667C315.178 75.689 314.844 75.4435 314.569 75.1304C314.294 74.813 314.084 74.4427 313.94 74.0195C313.797 73.5964 313.725 73.1372 313.725 72.6421ZM315.254 72.4961V72.6421C315.254 72.951 315.286 73.243 315.35 73.5181C315.413 73.7931 315.513 74.0343 315.648 74.2417C315.783 74.4491 315.957 74.612 316.168 74.7305C316.38 74.849 316.632 74.9082 316.924 74.9082C317.207 74.9082 317.453 74.849 317.66 74.7305C317.872 74.612 318.045 74.4491 318.181 74.2417C318.316 74.0343 318.416 73.7931 318.479 73.5181C318.547 73.243 318.581 72.951 318.581 72.6421V72.4961C318.581 72.1914 318.547 71.9036 318.479 71.6328C318.416 71.3577 318.314 71.1144 318.174 70.9028C318.039 70.6912 317.865 70.5262 317.654 70.4077C317.446 70.285 317.199 70.2236 316.911 70.2236C316.623 70.2236 316.374 70.285 316.162 70.4077C315.955 70.5262 315.783 70.6912 315.648 70.9028C315.513 71.1144 315.413 71.3577 315.35 71.6328C315.286 71.9036 315.254 72.1914 315.254 72.4961ZM323.525 74.7876L325.208 69.1318H326.794L324.408 76H323.417L323.525 74.7876ZM322.237 69.1318L323.951 74.813L324.033 76H323.043L320.644 69.1318H322.237ZM330.679 76.127C330.171 76.127 329.712 76.0444 329.302 75.8794C328.896 75.7101 328.549 75.4753 328.261 75.1748C327.977 74.8743 327.759 74.521 327.607 74.1147C327.455 73.7085 327.378 73.2705 327.378 72.8008V72.5469C327.378 72.0094 327.457 71.5228 327.613 71.0869C327.77 70.651 327.988 70.2786 328.267 69.9697C328.546 69.6566 328.876 69.4175 329.257 69.2524C329.638 69.0874 330.051 69.0049 330.495 69.0049C330.986 69.0049 331.416 69.0874 331.784 69.2524C332.152 69.4175 332.457 69.6502 332.698 69.9507C332.943 70.2469 333.125 70.6003 333.244 71.0107C333.366 71.4212 333.428 71.874 333.428 72.3691V73.0229H328.121V71.9248H331.917V71.8042C331.909 71.5291 331.854 71.271 331.752 71.0298C331.655 70.7886 331.504 70.5939 331.301 70.4458C331.098 70.2977 330.827 70.2236 330.489 70.2236C330.235 70.2236 330.008 70.2786 329.81 70.3887C329.615 70.4945 329.452 70.6489 329.321 70.8521C329.19 71.0552 329.088 71.3006 329.016 71.5884C328.948 71.8719 328.915 72.1914 328.915 72.5469V72.8008C328.915 73.1012 328.955 73.3805 329.035 73.6387C329.12 73.8926 329.243 74.1147 329.403 74.3052C329.564 74.4956 329.759 74.6458 329.987 74.7559C330.216 74.8617 330.476 74.9146 330.768 74.9146C331.136 74.9146 331.464 74.8405 331.752 74.6924C332.04 74.5443 332.289 74.3348 332.501 74.064L333.307 74.8447C333.159 75.0605 332.966 75.2679 332.729 75.4668C332.493 75.6615 332.203 75.8201 331.86 75.9429C331.521 76.0656 331.128 76.127 330.679 76.127ZM336.157 70.4395V76H334.627V69.1318H336.087L336.157 70.4395ZM338.258 69.0874L338.246 70.5093C338.153 70.4924 338.051 70.4797 337.941 70.4712C337.835 70.4627 337.729 70.4585 337.624 70.4585C337.361 70.4585 337.131 70.4966 336.932 70.5728C336.733 70.6447 336.566 70.7505 336.43 70.8901C336.299 71.0256 336.197 71.1906 336.125 71.3853C336.054 71.5799 336.011 71.7979 335.999 72.0391L335.649 72.0645C335.649 71.6328 335.692 71.2329 335.776 70.8647C335.861 70.4966 335.988 70.1729 336.157 69.8936C336.331 69.6143 336.547 69.3963 336.805 69.2397C337.067 69.0832 337.37 69.0049 337.712 69.0049C337.806 69.0049 337.905 69.0133 338.011 69.0303C338.121 69.0472 338.203 69.0662 338.258 69.0874Z" fill="#1A1A1A"/>
<path d="M288.5 52.5H354.5V91.5H288.5V52.5Z" stroke="#E6E6E6"/>
<path d="M355 53H435V91H355V53Z" fill="#F8F8F8"/>
<path d="M372.533 66.7578V76H370.939V66.7578H372.533ZM376.303 70.8013V72.0645H372.126V70.8013H376.303ZM376.83 66.7578V68.0273H372.126V66.7578H376.83ZM377.516 72.6421V72.4961C377.516 72.001 377.588 71.5418 377.731 71.1187C377.875 70.6912 378.083 70.321 378.354 70.0078C378.629 69.6904 378.963 69.445 379.356 69.2715C379.754 69.0938 380.203 69.0049 380.702 69.0049C381.206 69.0049 381.654 69.0938 382.048 69.2715C382.446 69.445 382.782 69.6904 383.057 70.0078C383.332 70.321 383.542 70.6912 383.686 71.1187C383.829 71.5418 383.901 72.001 383.901 72.4961V72.6421C383.901 73.1372 383.829 73.5964 383.686 74.0195C383.542 74.4427 383.332 74.813 383.057 75.1304C382.782 75.4435 382.448 75.689 382.054 75.8667C381.661 76.0402 381.214 76.127 380.715 76.127C380.211 76.127 379.761 76.0402 379.363 75.8667C378.969 75.689 378.635 75.4435 378.36 75.1304C378.085 74.813 377.875 74.4427 377.731 74.0195C377.588 73.5964 377.516 73.1372 377.516 72.6421ZM379.045 72.4961V72.6421C379.045 72.951 379.077 73.243 379.141 73.5181C379.204 73.7931 379.304 74.0343 379.439 74.2417C379.574 74.4491 379.748 74.612 379.959 74.7305C380.171 74.849 380.423 74.9082 380.715 74.9082C380.998 74.9082 381.244 74.849 381.451 74.7305C381.663 74.612 381.836 74.4491 381.972 74.2417C382.107 74.0343 382.207 73.7931 382.27 73.5181C382.338 73.243 382.372 72.951 382.372 72.6421V72.4961C382.372 72.1914 382.338 71.9036 382.27 71.6328C382.207 71.3577 382.105 71.1144 381.965 70.9028C381.83 70.6912 381.656 70.5262 381.445 70.4077C381.237 70.285 380.99 70.2236 380.702 70.2236C380.414 70.2236 380.165 70.285 379.953 70.4077C379.746 70.5262 379.574 70.6912 379.439 70.9028C379.304 71.1144 379.204 71.3577 379.141 71.6328C379.077 71.9036 379.045 72.1914 379.045 72.4961ZM387.989 74.9082C388.239 74.9082 388.463 74.8595 388.662 74.7622C388.865 74.6606 389.028 74.521 389.151 74.3433C389.278 74.1655 389.348 73.9603 389.36 73.7275H390.801C390.793 74.1719 390.662 74.576 390.408 74.9399C390.154 75.3039 389.817 75.5938 389.398 75.8096C388.979 76.0212 388.516 76.127 388.008 76.127C387.484 76.127 387.027 76.0381 386.637 75.8604C386.248 75.6784 385.924 75.4287 385.666 75.1113C385.408 74.7939 385.213 74.4279 385.082 74.0132C384.955 73.5985 384.892 73.1541 384.892 72.6802V72.458C384.892 71.984 384.955 71.5397 385.082 71.125C385.213 70.7061 385.408 70.3379 385.666 70.0205C385.924 69.7031 386.248 69.4556 386.637 69.2778C387.027 69.0959 387.481 69.0049 388.002 69.0049C388.552 69.0049 389.035 69.1149 389.449 69.335C389.864 69.5508 390.19 69.8534 390.427 70.2427C390.668 70.6278 390.793 71.0763 390.801 71.5884H389.36C389.348 71.3345 389.284 71.106 389.17 70.9028C389.06 70.6955 388.903 70.5304 388.7 70.4077C388.501 70.285 388.262 70.2236 387.983 70.2236C387.674 70.2236 387.418 70.2871 387.215 70.4141C387.012 70.5368 386.853 70.7061 386.739 70.9219C386.625 71.1335 386.542 71.3726 386.491 71.6392C386.445 71.9015 386.421 72.1745 386.421 72.458V72.6802C386.421 72.9637 386.445 73.2388 386.491 73.5054C386.538 73.772 386.618 74.0111 386.732 74.2227C386.851 74.43 387.012 74.5972 387.215 74.7241C387.418 74.8468 387.676 74.9082 387.989 74.9082ZM396.108 74.3813V69.1318H397.644V76H396.197L396.108 74.3813ZM396.324 72.9531L396.838 72.9404C396.838 73.4017 396.787 73.827 396.686 74.2163C396.584 74.6014 396.427 74.9378 396.216 75.2256C396.004 75.5091 395.733 75.7313 395.403 75.8921C395.073 76.0487 394.678 76.127 394.216 76.127C393.882 76.127 393.575 76.0783 393.296 75.981C393.017 75.8836 392.775 75.7334 392.572 75.5303C392.373 75.3271 392.219 75.0627 392.109 74.7368C391.999 74.411 391.944 74.0216 391.944 73.5688V69.1318H393.474V73.5815C393.474 73.8312 393.503 74.0407 393.562 74.21C393.622 74.375 393.702 74.5083 393.804 74.6099C393.905 74.7114 394.024 74.7834 394.159 74.8257C394.295 74.868 394.438 74.8892 394.591 74.8892C395.027 74.8892 395.369 74.8045 395.619 74.6353C395.873 74.4618 396.053 74.229 396.159 73.937C396.269 73.645 396.324 73.3171 396.324 72.9531ZM403.065 74.1401C403.065 73.9878 403.027 73.8503 402.951 73.7275C402.875 73.6006 402.729 73.4863 402.513 73.3848C402.301 73.2832 401.988 73.1901 401.573 73.1055C401.209 73.0251 400.875 72.9299 400.57 72.8198C400.27 72.7056 400.012 72.568 399.796 72.4072C399.58 72.2464 399.413 72.056 399.294 71.8359C399.176 71.6159 399.117 71.362 399.117 71.0742C399.117 70.7949 399.178 70.5304 399.301 70.2808C399.424 70.0311 399.599 69.811 399.828 69.6206C400.056 69.4302 400.333 69.2799 400.659 69.1699C400.989 69.0599 401.357 69.0049 401.764 69.0049C402.339 69.0049 402.832 69.1022 403.243 69.2969C403.657 69.4873 403.975 69.7476 404.195 70.0776C404.415 70.4035 404.525 70.7716 404.525 71.1821H402.995C402.995 71.0002 402.949 70.8309 402.855 70.6743C402.767 70.5135 402.631 70.3844 402.449 70.2871C402.267 70.1855 402.039 70.1348 401.764 70.1348C401.501 70.1348 401.283 70.1771 401.11 70.2617C400.941 70.3421 400.814 70.4479 400.729 70.5791C400.649 70.7103 400.608 70.8542 400.608 71.0107C400.608 71.125 400.63 71.2287 400.672 71.3218C400.718 71.4106 400.795 71.4932 400.9 71.5693C401.006 71.6413 401.15 71.709 401.332 71.7725C401.518 71.8359 401.751 71.8973 402.03 71.9565C402.555 72.0666 403.006 72.2083 403.382 72.3818C403.763 72.5511 404.055 72.7712 404.258 73.042C404.461 73.3086 404.563 73.6471 404.563 74.0576C404.563 74.3623 404.497 74.6416 404.366 74.8955C404.239 75.1452 404.053 75.3631 403.808 75.5493C403.562 75.7313 403.268 75.873 402.925 75.9746C402.587 76.0762 402.206 76.127 401.783 76.127C401.161 76.127 400.634 76.0169 400.202 75.7969C399.771 75.5726 399.443 75.2869 399.218 74.9399C398.998 74.5887 398.888 74.2248 398.888 73.8481H400.367C400.384 74.1317 400.462 74.3581 400.602 74.5273C400.746 74.6924 400.924 74.813 401.135 74.8892C401.351 74.9611 401.573 74.9971 401.802 74.9971C402.077 74.9971 402.307 74.9611 402.494 74.8892C402.68 74.813 402.822 74.7114 402.919 74.5845C403.016 74.4533 403.065 74.3052 403.065 74.1401ZM408.93 76.127C408.422 76.127 407.963 76.0444 407.553 75.8794C407.146 75.7101 406.799 75.4753 406.512 75.1748C406.228 74.8743 406.01 74.521 405.858 74.1147C405.706 73.7085 405.629 73.2705 405.629 72.8008V72.5469C405.629 72.0094 405.708 71.5228 405.864 71.0869C406.021 70.651 406.239 70.2786 406.518 69.9697C406.797 69.6566 407.127 69.4175 407.508 69.2524C407.889 69.0874 408.302 69.0049 408.746 69.0049C409.237 69.0049 409.667 69.0874 410.035 69.2524C410.403 69.4175 410.708 69.6502 410.949 69.9507C411.194 70.2469 411.376 70.6003 411.495 71.0107C411.617 71.4212 411.679 71.874 411.679 72.3691V73.0229H406.372V71.9248H410.168V71.8042C410.16 71.5291 410.104 71.271 410.003 71.0298C409.906 70.7886 409.755 70.5939 409.552 70.4458C409.349 70.2977 409.078 70.2236 408.74 70.2236C408.486 70.2236 408.259 70.2786 408.061 70.3887C407.866 70.4945 407.703 70.6489 407.572 70.8521C407.441 71.0552 407.339 71.3006 407.267 71.5884C407.199 71.8719 407.166 72.1914 407.166 72.5469V72.8008C407.166 73.1012 407.206 73.3805 407.286 73.6387C407.371 73.8926 407.493 74.1147 407.654 74.3052C407.815 74.4956 408.01 74.6458 408.238 74.7559C408.467 74.8617 408.727 74.9146 409.019 74.9146C409.387 74.9146 409.715 74.8405 410.003 74.6924C410.291 74.5443 410.54 74.3348 410.752 74.064L411.558 74.8447C411.41 75.0605 411.217 75.2679 410.98 75.4668C410.743 75.6615 410.454 75.8201 410.111 75.9429C409.772 76.0656 409.379 76.127 408.93 76.127ZM417.062 74.5781V66.25H418.598V76H417.208L417.062 74.5781ZM412.593 72.6421V72.5088C412.593 71.9883 412.654 71.5143 412.777 71.0869C412.9 70.6553 413.077 70.285 413.31 69.9761C413.543 69.6629 413.826 69.4238 414.161 69.2588C414.495 69.0895 414.872 69.0049 415.291 69.0049C415.705 69.0049 416.069 69.0853 416.382 69.2461C416.695 69.4069 416.962 69.6375 417.182 69.938C417.402 70.2342 417.578 70.5897 417.709 71.0044C417.84 71.4149 417.933 71.8719 417.988 72.3755V72.8008C417.933 73.2917 417.84 73.7402 417.709 74.1465C417.578 74.5527 417.402 74.904 417.182 75.2002C416.962 75.4964 416.693 75.7249 416.376 75.8857C416.063 76.0465 415.697 76.127 415.278 76.127C414.863 76.127 414.489 76.0402 414.154 75.8667C413.824 75.6932 413.543 75.4499 413.31 75.1367C413.077 74.8236 412.9 74.4554 412.777 74.0322C412.654 73.6048 412.593 73.1414 412.593 72.6421ZM414.123 72.5088V72.6421C414.123 72.9552 414.15 73.2472 414.205 73.5181C414.264 73.7889 414.355 74.028 414.478 74.2354C414.601 74.4385 414.759 74.5993 414.954 74.7178C415.153 74.832 415.39 74.8892 415.665 74.8892C416.012 74.8892 416.298 74.813 416.522 74.6606C416.746 74.5083 416.922 74.3031 417.049 74.0449C417.18 73.7826 417.269 73.4906 417.315 73.1689V72.02C417.29 71.7703 417.237 71.5376 417.157 71.3218C417.081 71.106 416.977 70.9176 416.846 70.7568C416.715 70.5918 416.552 70.4648 416.357 70.376C416.167 70.2829 415.94 70.2363 415.678 70.2363C415.398 70.2363 415.161 70.2956 414.967 70.4141C414.772 70.5326 414.611 70.6955 414.484 70.9028C414.362 71.1102 414.271 71.3514 414.211 71.6265C414.152 71.9015 414.123 72.1956 414.123 72.5088Z" fill="#505050"/>
<path d="M355 53H435V91H355V53Z" stroke="#505050" stroke-width="2"/>
<path d="M435.5 52.5H503.5V91.5H435.5V52.5Z" fill="#EAF1FE"/>
<path d="M455.539 67.9893L452.777 76H451.108L454.586 66.7578H455.653L455.539 67.9893ZM457.849 76L455.082 67.9893L454.961 66.7578H456.034L459.525 76H457.849ZM457.716 72.5723V73.8354H452.688V72.5723H457.716ZM463.213 74.9082C463.463 74.9082 463.687 74.8595 463.886 74.7622C464.089 74.6606 464.252 74.521 464.375 74.3433C464.501 74.1655 464.571 73.9603 464.584 73.7275H466.025C466.016 74.1719 465.885 74.576 465.631 74.9399C465.377 75.3039 465.041 75.5938 464.622 75.8096C464.203 76.0212 463.74 76.127 463.232 76.127C462.707 76.127 462.25 76.0381 461.861 75.8604C461.472 75.6784 461.148 75.4287 460.89 75.1113C460.632 74.7939 460.437 74.4279 460.306 74.0132C460.179 73.5985 460.115 73.1541 460.115 72.6802V72.458C460.115 71.984 460.179 71.5397 460.306 71.125C460.437 70.7061 460.632 70.3379 460.89 70.0205C461.148 69.7031 461.472 69.4556 461.861 69.2778C462.25 69.0959 462.705 69.0049 463.226 69.0049C463.776 69.0049 464.258 69.1149 464.673 69.335C465.088 69.5508 465.413 69.8534 465.65 70.2427C465.892 70.6278 466.016 71.0763 466.025 71.5884H464.584C464.571 71.3345 464.508 71.106 464.394 70.9028C464.284 70.6955 464.127 70.5304 463.924 70.4077C463.725 70.285 463.486 70.2236 463.207 70.2236C462.898 70.2236 462.642 70.2871 462.438 70.4141C462.235 70.5368 462.077 70.7061 461.962 70.9219C461.848 71.1335 461.766 71.3726 461.715 71.6392C461.668 71.9015 461.645 72.1745 461.645 72.458V72.6802C461.645 72.9637 461.668 73.2388 461.715 73.5054C461.761 73.772 461.842 74.0111 461.956 74.2227C462.075 74.43 462.235 74.5972 462.438 74.7241C462.642 74.8468 462.9 74.9082 463.213 74.9082ZM470.348 69.1318V70.249H466.476V69.1318H470.348ZM467.593 67.4497H469.123V74.1021C469.123 74.3136 469.152 74.4766 469.211 74.5908C469.275 74.7008 469.362 74.7749 469.472 74.813C469.582 74.8511 469.711 74.8701 469.859 74.8701C469.965 74.8701 470.066 74.8638 470.164 74.8511C470.261 74.8384 470.339 74.8257 470.398 74.813L470.405 75.981C470.278 76.019 470.13 76.0529 469.96 76.0825C469.795 76.1121 469.605 76.127 469.389 76.127C469.038 76.127 468.727 76.0656 468.456 75.9429C468.185 75.8159 467.974 75.6107 467.821 75.3271C467.669 75.0436 467.593 74.667 467.593 74.1973V67.4497ZM473.166 69.1318V76H471.63V69.1318H473.166ZM471.528 67.3291C471.528 67.0964 471.604 66.9038 471.757 66.7515C471.913 66.5949 472.129 66.5166 472.404 66.5166C472.675 66.5166 472.889 66.5949 473.045 66.7515C473.202 66.9038 473.28 67.0964 473.28 67.3291C473.28 67.5576 473.202 67.748 473.045 67.9004C472.889 68.0527 472.675 68.1289 472.404 68.1289C472.129 68.1289 471.913 68.0527 471.757 67.9004C471.604 67.748 471.528 67.5576 471.528 67.3291ZM477.076 74.7876L478.758 69.1318H480.345L477.958 76H476.968L477.076 74.7876ZM475.788 69.1318L477.501 74.813L477.584 76H476.594L474.194 69.1318H475.788ZM484.23 76.127C483.722 76.127 483.263 76.0444 482.853 75.8794C482.446 75.7101 482.099 75.4753 481.812 75.1748C481.528 74.8743 481.31 74.521 481.158 74.1147C481.005 73.7085 480.929 73.2705 480.929 72.8008V72.5469C480.929 72.0094 481.007 71.5228 481.164 71.0869C481.321 70.651 481.539 70.2786 481.818 69.9697C482.097 69.6566 482.427 69.4175 482.808 69.2524C483.189 69.0874 483.602 69.0049 484.046 69.0049C484.537 69.0049 484.966 69.0874 485.334 69.2524C485.703 69.4175 486.007 69.6502 486.249 69.9507C486.494 70.2469 486.676 70.6003 486.794 71.0107C486.917 71.4212 486.979 71.874 486.979 72.3691V73.0229H481.672V71.9248H485.468V71.8042C485.459 71.5291 485.404 71.271 485.303 71.0298C485.205 70.7886 485.055 70.5939 484.852 70.4458C484.649 70.2977 484.378 70.2236 484.04 70.2236C483.786 70.2236 483.559 70.2786 483.36 70.3887C483.166 70.4945 483.003 70.6489 482.872 70.8521C482.74 71.0552 482.639 71.3006 482.567 71.5884C482.499 71.8719 482.465 72.1914 482.465 72.5469V72.8008C482.465 73.1012 482.506 73.3805 482.586 73.6387C482.671 73.8926 482.793 74.1147 482.954 74.3052C483.115 74.4956 483.31 74.6458 483.538 74.7559C483.767 74.8617 484.027 74.9146 484.319 74.9146C484.687 74.9146 485.015 74.8405 485.303 74.6924C485.59 74.5443 485.84 74.3348 486.052 74.064L486.858 74.8447C486.71 75.0605 486.517 75.2679 486.28 75.4668C486.043 75.6615 485.753 75.8201 485.411 75.9429C485.072 76.0656 484.679 76.127 484.23 76.127Z" fill="#286EF1"/>
<path d="M435.5 52.5H503.5V91.5H435.5V52.5Z" stroke="#D5E3FD"/>
<path d="M503.5 52.5H582C583.933 52.5 585.5 54.067 585.5 56V88C585.5 89.933 583.933 91.5 582 91.5H503.5V52.5Z" fill="#F2F2F2"/>
<path d="M522.625 76H520.65L520.663 74.7368H522.625C523.196 74.7368 523.674 74.612 524.059 74.3623C524.448 74.1126 524.74 73.755 524.935 73.2896C525.134 72.8241 525.233 72.2697 525.233 71.6265V71.125C525.233 70.6257 525.176 70.1834 525.062 69.7983C524.952 69.4132 524.787 69.0895 524.567 68.8271C524.351 68.5648 524.084 68.3659 523.767 68.2305C523.454 68.0951 523.092 68.0273 522.682 68.0273H520.612V66.7578H522.682C523.295 66.7578 523.856 66.8615 524.364 67.0688C524.872 67.272 525.31 67.5661 525.678 67.9512C526.05 68.3363 526.336 68.7975 526.535 69.335C526.734 69.8724 526.833 70.4733 526.833 71.1377V71.6265C526.833 72.2909 526.734 72.8918 526.535 73.4292C526.336 73.9666 526.05 74.4279 525.678 74.813C525.305 75.1938 524.861 75.488 524.345 75.6953C523.833 75.8984 523.259 76 522.625 76ZM521.533 66.7578V76H519.939V66.7578H521.533ZM529.918 69.1318V76H528.382V69.1318H529.918ZM528.28 67.3291C528.28 67.0964 528.356 66.9038 528.509 66.7515C528.665 66.5949 528.881 66.5166 529.156 66.5166C529.427 66.5166 529.641 66.5949 529.797 66.7515C529.954 66.9038 530.032 67.0964 530.032 67.3291C530.032 67.5576 529.954 67.748 529.797 67.9004C529.641 68.0527 529.427 68.1289 529.156 68.1289C528.881 68.1289 528.665 68.0527 528.509 67.9004C528.356 67.748 528.28 67.5576 528.28 67.3291ZM535.447 74.1401C535.447 73.9878 535.409 73.8503 535.333 73.7275C535.256 73.6006 535.11 73.4863 534.895 73.3848C534.683 73.2832 534.37 73.1901 533.955 73.1055C533.591 73.0251 533.257 72.9299 532.952 72.8198C532.652 72.7056 532.394 72.568 532.178 72.4072C531.962 72.2464 531.795 72.056 531.676 71.8359C531.558 71.6159 531.499 71.362 531.499 71.0742C531.499 70.7949 531.56 70.5304 531.683 70.2808C531.805 70.0311 531.981 69.811 532.209 69.6206C532.438 69.4302 532.715 69.2799 533.041 69.1699C533.371 69.0599 533.739 69.0049 534.146 69.0049C534.721 69.0049 535.214 69.1022 535.625 69.2969C536.039 69.4873 536.357 69.7476 536.577 70.0776C536.797 70.4035 536.907 70.7716 536.907 71.1821H535.377C535.377 71.0002 535.33 70.8309 535.237 70.6743C535.148 70.5135 535.013 70.3844 534.831 70.2871C534.649 70.1855 534.421 70.1348 534.146 70.1348C533.883 70.1348 533.665 70.1771 533.492 70.2617C533.322 70.3421 533.195 70.4479 533.111 70.5791C533.03 70.7103 532.99 70.8542 532.99 71.0107C532.99 71.125 533.011 71.2287 533.054 71.3218C533.1 71.4106 533.176 71.4932 533.282 71.5693C533.388 71.6413 533.532 71.709 533.714 71.7725C533.9 71.8359 534.133 71.8973 534.412 71.9565C534.937 72.0666 535.388 72.2083 535.764 72.3818C536.145 72.5511 536.437 72.7712 536.64 73.042C536.843 73.3086 536.945 73.6471 536.945 74.0576C536.945 74.3623 536.879 74.6416 536.748 74.8955C536.621 75.1452 536.435 75.3631 536.189 75.5493C535.944 75.7313 535.65 75.873 535.307 75.9746C534.969 76.0762 534.588 76.127 534.165 76.127C533.542 76.127 533.016 76.0169 532.584 75.7969C532.152 75.5726 531.824 75.2869 531.6 74.9399C531.38 74.5887 531.27 74.2248 531.27 73.8481H532.749C532.766 74.1317 532.844 74.3581 532.984 74.5273C533.128 74.6924 533.306 74.813 533.517 74.8892C533.733 74.9611 533.955 74.9971 534.184 74.9971C534.459 74.9971 534.689 74.9611 534.875 74.8892C535.062 74.813 535.203 74.7114 535.301 74.5845C535.398 74.4533 535.447 74.3052 535.447 74.1401ZM542.156 74.6226V71.3472C542.156 71.1017 542.112 70.8901 542.023 70.7124C541.934 70.5347 541.799 70.3971 541.617 70.2998C541.439 70.2025 541.215 70.1538 540.944 70.1538C540.694 70.1538 540.478 70.1961 540.296 70.2808C540.114 70.3654 539.973 70.4797 539.871 70.6235C539.77 70.7674 539.719 70.9303 539.719 71.1123H538.195C538.195 70.8415 538.261 70.5791 538.392 70.3252C538.523 70.0713 538.714 69.8449 538.963 69.646C539.213 69.4471 539.511 69.2905 539.858 69.1763C540.205 69.062 540.595 69.0049 541.026 69.0049C541.543 69.0049 542 69.0916 542.397 69.2651C542.799 69.4386 543.115 69.701 543.343 70.0522C543.576 70.3993 543.692 70.8351 543.692 71.3599V74.4131C543.692 74.7262 543.714 75.0076 543.756 75.2573C543.802 75.5028 543.868 75.7165 543.953 75.8984V76H542.385C542.313 75.835 542.256 75.6255 542.213 75.3716C542.175 75.1134 542.156 74.8638 542.156 74.6226ZM542.378 71.8232L542.391 72.769H541.293C541.009 72.769 540.76 72.7965 540.544 72.8516C540.328 72.9023 540.148 72.9785 540.004 73.0801C539.861 73.1816 539.753 73.3044 539.681 73.4482C539.609 73.5921 539.573 73.755 539.573 73.937C539.573 74.119 539.615 74.2861 539.7 74.4385C539.784 74.5866 539.907 74.703 540.068 74.7876C540.233 74.8722 540.432 74.9146 540.665 74.9146C540.978 74.9146 541.251 74.8511 541.483 74.7241C541.72 74.5929 541.907 74.4342 542.042 74.248C542.177 74.0576 542.249 73.8778 542.258 73.7085L542.753 74.3877C542.702 74.5612 542.615 74.7474 542.493 74.9463C542.37 75.1452 542.209 75.3356 542.01 75.5176C541.816 75.6953 541.581 75.8413 541.306 75.9556C541.035 76.0698 540.722 76.127 540.366 76.127C539.918 76.127 539.518 76.0381 539.167 75.8604C538.815 75.6784 538.54 75.4351 538.341 75.1304C538.142 74.8215 538.043 74.4723 538.043 74.083C538.043 73.7191 538.111 73.3975 538.246 73.1182C538.386 72.8346 538.589 72.5977 538.855 72.4072C539.126 72.2168 539.456 72.0729 539.846 71.9756C540.235 71.874 540.679 71.8232 541.179 71.8232H542.378ZM545.298 66.25H546.828V74.5337L546.682 76H545.298V66.25ZM551.31 72.5024V72.6357C551.31 73.1436 551.252 73.6112 551.138 74.0386C551.028 74.4618 550.859 74.8299 550.63 75.1431C550.406 75.4562 550.127 75.6995 549.792 75.873C549.462 76.0423 549.079 76.127 548.644 76.127C548.216 76.127 547.844 76.0465 547.526 75.8857C547.209 75.7249 546.942 75.4964 546.727 75.2002C546.515 74.904 546.344 74.5506 546.212 74.1401C546.081 73.7297 545.988 73.2769 545.933 72.7817V72.3564C545.988 71.8571 546.081 71.4043 546.212 70.998C546.344 70.5876 546.515 70.2342 546.727 69.938C546.942 69.6375 547.207 69.4069 547.52 69.2461C547.837 69.0853 548.208 69.0049 548.631 69.0049C549.071 69.0049 549.458 69.0895 549.792 69.2588C550.131 69.4281 550.412 69.6693 550.637 69.9824C550.861 70.2913 551.028 70.6595 551.138 71.0869C551.252 71.5143 551.31 71.9862 551.31 72.5024ZM549.78 72.6357V72.5024C549.78 72.1935 549.754 71.9036 549.704 71.6328C549.653 71.3577 549.568 71.1165 549.45 70.9092C549.335 70.7018 549.179 70.5389 548.98 70.4204C548.785 70.2977 548.542 70.2363 548.25 70.2363C547.979 70.2363 547.746 70.2829 547.552 70.376C547.357 70.4691 547.194 70.596 547.063 70.7568C546.932 70.9176 546.828 71.1038 546.752 71.3154C546.68 71.527 546.631 71.7555 546.606 72.001V73.1499C546.644 73.4673 546.724 73.7593 546.847 74.0259C546.974 74.2882 547.152 74.4998 547.38 74.6606C547.609 74.8172 547.903 74.8955 548.263 74.8955C548.546 74.8955 548.785 74.8384 548.98 74.7241C549.175 74.6099 549.329 74.4512 549.443 74.248C549.562 74.0407 549.646 73.7995 549.697 73.5244C549.752 73.2493 549.78 72.9531 549.78 72.6357ZM554.242 66.25V76H552.706V66.25H554.242ZM558.946 76.127C558.438 76.127 557.979 76.0444 557.568 75.8794C557.162 75.7101 556.815 75.4753 556.527 75.1748C556.244 74.8743 556.026 74.521 555.874 74.1147C555.721 73.7085 555.645 73.2705 555.645 72.8008V72.5469C555.645 72.0094 555.723 71.5228 555.88 71.0869C556.036 70.651 556.254 70.2786 556.534 69.9697C556.813 69.6566 557.143 69.4175 557.524 69.2524C557.905 69.0874 558.317 69.0049 558.762 69.0049C559.253 69.0049 559.682 69.0874 560.05 69.2524C560.418 69.4175 560.723 69.6502 560.964 69.9507C561.21 70.2469 561.392 70.6003 561.51 71.0107C561.633 71.4212 561.694 71.874 561.694 72.3691V73.0229H556.388V71.9248H560.184V71.8042C560.175 71.5291 560.12 71.271 560.019 71.0298C559.921 70.7886 559.771 70.5939 559.568 70.4458C559.365 70.2977 559.094 70.2236 558.755 70.2236C558.501 70.2236 558.275 70.2786 558.076 70.3887C557.882 70.4945 557.719 70.6489 557.587 70.8521C557.456 71.0552 557.355 71.3006 557.283 71.5884C557.215 71.8719 557.181 72.1914 557.181 72.5469V72.8008C557.181 73.1012 557.221 73.3805 557.302 73.6387C557.386 73.8926 557.509 74.1147 557.67 74.3052C557.831 74.4956 558.025 74.6458 558.254 74.7559C558.482 74.8617 558.743 74.9146 559.035 74.9146C559.403 74.9146 559.731 74.8405 560.019 74.6924C560.306 74.5443 560.556 74.3348 560.768 74.064L561.574 74.8447C561.426 75.0605 561.233 75.2679 560.996 75.4668C560.759 75.6615 560.469 75.8201 560.126 75.9429C559.788 76.0656 559.394 76.127 558.946 76.127ZM567.077 74.5781V66.25H568.613V76H567.223L567.077 74.5781ZM562.608 72.6421V72.5088C562.608 71.9883 562.67 71.5143 562.792 71.0869C562.915 70.6553 563.093 70.285 563.326 69.9761C563.558 69.6629 563.842 69.4238 564.176 69.2588C564.511 69.0895 564.887 69.0049 565.306 69.0049C565.721 69.0049 566.085 69.0853 566.398 69.2461C566.711 69.4069 566.978 69.6375 567.198 69.938C567.418 70.2342 567.593 70.5897 567.725 71.0044C567.856 71.4149 567.949 71.8719 568.004 72.3755V72.8008C567.949 73.2917 567.856 73.7402 567.725 74.1465C567.593 74.5527 567.418 74.904 567.198 75.2002C566.978 75.4964 566.709 75.7249 566.392 75.8857C566.078 76.0465 565.712 76.127 565.293 76.127C564.879 76.127 564.504 76.0402 564.17 75.8667C563.84 75.6932 563.558 75.4499 563.326 75.1367C563.093 74.8236 562.915 74.4554 562.792 74.0322C562.67 73.6048 562.608 73.1414 562.608 72.6421ZM564.138 72.5088V72.6421C564.138 72.9552 564.166 73.2472 564.221 73.5181C564.28 73.7889 564.371 74.028 564.494 74.2354C564.616 74.4385 564.775 74.5993 564.97 74.7178C565.169 74.832 565.406 74.8892 565.681 74.8892C566.028 74.8892 566.313 74.813 566.538 74.6606C566.762 74.5083 566.938 74.3031 567.064 74.0449C567.196 73.7826 567.285 73.4906 567.331 73.1689V72.02C567.306 71.7703 567.253 71.5376 567.172 71.3218C567.096 71.106 566.993 70.9176 566.861 70.7568C566.73 70.5918 566.567 70.4648 566.373 70.376C566.182 70.2829 565.956 70.2363 565.693 70.2363C565.414 70.2363 565.177 70.2956 564.982 70.4141C564.788 70.5326 564.627 70.6955 564.5 70.9028C564.377 71.1102 564.286 71.3514 564.227 71.6265C564.168 71.9015 564.138 72.1956 564.138 72.5088Z" fill="#AAAAAA"/>
<path d="M503.5 52.5H582C583.933 52.5 585.5 54.067 585.5 56V88C585.5 89.933 583.933 91.5 582 91.5H503.5V52.5Z" stroke="#E6E6E6"/>
<rect width="800" height="143" rx="4" stroke="#F8F8F8" stroke-width="32" mask="url(#path-1-inside-1_3686_53780)"/>
</svg>
