<svg width="800" height="312" viewBox="0 0 800 312" fill="none" xmlns="http://www.w3.org/2000/svg">
<mask id="path-1-inside-1_3755_53129" fill="white">
<rect width="800" height="312" rx="4"/>
</mask>
<rect width="800" height="312" rx="4" fill="white"/>
<path d="M56.5 220C56.5 218.067 58.067 216.5 60 216.5H228.25V255.5H60C58.067 255.5 56.5 253.933 56.5 252V220Z" fill="#EAF1FE"/>
<path d="M113.151 236C113.151 234.526 114.346 233.375 115.875 233.375C117.379 233.375 118.599 234.526 118.599 236C118.599 237.449 117.379 238.625 115.875 238.625C114.346 238.625 113.151 237.449 113.151 236ZM115.875 234.688C115.123 234.688 114.513 235.275 114.513 236C114.513 236.725 115.123 237.312 115.875 237.312C116.627 237.312 117.237 236.725 117.237 236C117.237 235.275 116.627 234.688 115.875 234.688ZM116.928 229C117.558 229 118.106 229.415 118.253 230.005L118.475 230.892C118.716 231.006 118.946 231.135 119.164 231.277L120.075 231.019C120.679 230.847 121.326 231.096 121.641 231.621L122.694 233.378C123.006 233.903 122.907 234.567 122.453 234.986L121.763 235.593C121.772 235.743 121.778 235.871 121.778 236C121.778 236.129 121.772 236.257 121.763 236.383L122.453 237.014C122.907 237.433 123.006 238.097 122.694 238.622L121.641 240.378C121.326 240.903 120.679 241.152 120.075 240.982L119.164 240.722C118.946 240.864 118.716 240.993 118.475 241.108L118.253 241.996C118.106 242.584 117.558 243 116.928 243H114.822C114.192 243 113.645 242.584 113.497 241.996L113.276 241.108C113.035 240.993 112.805 240.864 112.586 240.722L111.65 240.982C111.072 241.152 110.425 240.903 110.11 240.378L109.058 238.622C108.743 238.097 108.842 237.433 109.298 237.014L109.986 236.383C109.977 236.257 109.973 236.129 109.973 235.975C109.973 235.871 109.977 235.743 109.986 235.593L109.298 234.986C108.842 234.567 108.743 233.903 109.058 233.378L110.11 231.621C110.425 231.096 111.072 230.847 111.65 231.019L112.586 231.277C112.805 231.135 113.035 231.006 113.276 230.892L113.497 230.005C113.645 229.415 114.192 229 114.822 229L116.928 229ZM114.442 231.833L114.124 231.961C113.764 232.106 113.429 232.295 113.125 232.519L112.85 232.721L111.29 232.279L110.237 234.034L111.415 235.114L111.371 235.442C111.347 235.625 111.335 235.811 111.335 236C111.335 236.189 111.347 236.375 111.371 236.558L111.415 236.886L110.237 237.966L111.29 239.721L112.85 239.279L113.125 239.481C113.429 239.705 113.764 239.894 114.124 240.039L114.442 240.167L114.822 241.688H116.928L117.308 240.167L117.626 240.039C117.986 239.894 118.321 239.705 118.625 239.481L118.9 239.279L120.461 239.721L121.514 237.966L120.336 236.886L120.379 236.558C120.404 236.375 120.416 236.189 120.416 236C120.416 235.811 120.404 235.625 120.379 235.442L120.336 235.114L121.514 234.034L120.461 232.279L118.9 232.721L118.625 232.519C118.321 232.295 117.986 232.106 117.626 231.961L117.308 231.833L116.928 230.312H114.822L114.442 231.833Z" fill="#0059FF"/>
<path d="M139.911 235.277V238.807C139.78 238.98 139.575 239.171 139.295 239.378C139.02 239.581 138.654 239.757 138.197 239.905C137.74 240.053 137.171 240.127 136.49 240.127C135.91 240.127 135.379 240.03 134.896 239.835C134.414 239.636 133.997 239.346 133.646 238.965C133.299 238.584 133.03 238.121 132.84 237.575C132.649 237.025 132.554 236.399 132.554 235.696V235.055C132.554 234.357 132.641 233.735 132.814 233.189C132.992 232.639 133.246 232.173 133.576 231.792C133.906 231.412 134.304 231.124 134.77 230.929C135.239 230.73 135.77 230.631 136.363 230.631C137.12 230.631 137.747 230.758 138.242 231.012C138.741 231.261 139.126 231.608 139.397 232.053C139.668 232.497 139.839 233.005 139.911 233.576H138.35C138.299 233.255 138.199 232.967 138.051 232.713C137.907 232.459 137.7 232.26 137.429 232.116C137.163 231.968 136.816 231.894 136.388 231.894C136.02 231.894 135.696 231.964 135.417 232.104C135.138 232.243 134.905 232.448 134.719 232.719C134.537 232.99 134.399 233.32 134.306 233.709C134.213 234.099 134.167 234.543 134.167 235.042V235.696C134.167 236.204 134.219 236.655 134.325 237.048C134.435 237.442 134.592 237.774 134.795 238.045C135.002 238.316 135.254 238.521 135.55 238.661C135.847 238.796 136.181 238.864 136.553 238.864C136.917 238.864 137.215 238.834 137.448 238.775C137.681 238.711 137.865 238.637 138 238.553C138.14 238.464 138.248 238.379 138.324 238.299V236.464H136.401V235.277H139.911ZM144.551 240.127C144.043 240.127 143.584 240.044 143.174 239.879C142.768 239.71 142.421 239.475 142.133 239.175C141.849 238.874 141.631 238.521 141.479 238.115C141.327 237.708 141.25 237.271 141.25 236.801V236.547C141.25 236.009 141.329 235.523 141.485 235.087C141.642 234.651 141.86 234.279 142.139 233.97C142.418 233.657 142.749 233.417 143.129 233.252C143.51 233.087 143.923 233.005 144.367 233.005C144.858 233.005 145.288 233.087 145.656 233.252C146.024 233.417 146.329 233.65 146.57 233.951C146.815 234.247 146.997 234.6 147.116 235.011C147.238 235.421 147.3 235.874 147.3 236.369V237.023H141.993V235.925H145.789V235.804C145.781 235.529 145.726 235.271 145.624 235.03C145.527 234.789 145.376 234.594 145.173 234.446C144.97 234.298 144.699 234.224 144.361 234.224C144.107 234.224 143.881 234.279 143.682 234.389C143.487 234.494 143.324 234.649 143.193 234.852C143.062 235.055 142.96 235.301 142.888 235.588C142.82 235.872 142.787 236.191 142.787 236.547V236.801C142.787 237.101 142.827 237.381 142.907 237.639C142.992 237.893 143.115 238.115 143.275 238.305C143.436 238.496 143.631 238.646 143.859 238.756C144.088 238.862 144.348 238.915 144.64 238.915C145.008 238.915 145.336 238.84 145.624 238.692C145.912 238.544 146.161 238.335 146.373 238.064L147.179 238.845C147.031 239.061 146.839 239.268 146.602 239.467C146.365 239.661 146.075 239.82 145.732 239.943C145.393 240.066 145 240.127 144.551 240.127ZM150.01 234.598V240H148.48V233.132H149.921L150.01 234.598ZM149.737 236.312L149.242 236.306C149.246 235.819 149.314 235.373 149.445 234.966C149.581 234.56 149.767 234.211 150.004 233.919C150.245 233.627 150.533 233.403 150.867 233.246C151.201 233.085 151.574 233.005 151.984 233.005C152.314 233.005 152.613 233.051 152.879 233.145C153.15 233.233 153.381 233.379 153.571 233.583C153.766 233.786 153.914 234.05 154.016 234.376C154.117 234.698 154.168 235.093 154.168 235.563V240H152.632V235.557C152.632 235.227 152.583 234.966 152.486 234.776C152.393 234.581 152.255 234.444 152.073 234.363C151.896 234.279 151.673 234.236 151.407 234.236C151.144 234.236 150.91 234.291 150.702 234.401C150.495 234.511 150.319 234.662 150.175 234.852C150.036 235.042 149.928 235.263 149.852 235.512C149.775 235.762 149.737 236.028 149.737 236.312ZM158.757 240.127C158.25 240.127 157.79 240.044 157.38 239.879C156.974 239.71 156.627 239.475 156.339 239.175C156.055 238.874 155.837 238.521 155.685 238.115C155.533 237.708 155.457 237.271 155.457 236.801V236.547C155.457 236.009 155.535 235.523 155.691 235.087C155.848 234.651 156.066 234.279 156.345 233.97C156.625 233.657 156.955 233.417 157.335 233.252C157.716 233.087 158.129 233.005 158.573 233.005C159.064 233.005 159.494 233.087 159.862 233.252C160.23 233.417 160.535 233.65 160.776 233.951C161.021 234.247 161.203 234.6 161.322 235.011C161.444 235.421 161.506 235.874 161.506 236.369V237.023H156.199V235.925H159.995V235.804C159.987 235.529 159.932 235.271 159.83 235.03C159.733 234.789 159.583 234.594 159.379 234.446C159.176 234.298 158.905 234.224 158.567 234.224C158.313 234.224 158.087 234.279 157.888 234.389C157.693 234.494 157.53 234.649 157.399 234.852C157.268 235.055 157.166 235.301 157.094 235.588C157.027 235.872 156.993 236.191 156.993 236.547V236.801C156.993 237.101 157.033 237.381 157.113 237.639C157.198 237.893 157.321 238.115 157.481 238.305C157.642 238.496 157.837 238.646 158.065 238.756C158.294 238.862 158.554 238.915 158.846 238.915C159.214 238.915 159.542 238.84 159.83 238.692C160.118 238.544 160.368 238.335 160.579 238.064L161.385 238.845C161.237 239.061 161.045 239.268 160.808 239.467C160.571 239.661 160.281 239.82 159.938 239.943C159.599 240.066 159.206 240.127 158.757 240.127ZM164.235 234.439V240H162.706V233.132H164.166L164.235 234.439ZM166.336 233.087L166.324 234.509C166.231 234.492 166.129 234.48 166.019 234.471C165.913 234.463 165.807 234.458 165.702 234.458C165.439 234.458 165.209 234.497 165.01 234.573C164.811 234.645 164.644 234.75 164.508 234.89C164.377 235.026 164.276 235.191 164.204 235.385C164.132 235.58 164.089 235.798 164.077 236.039L163.728 236.064C163.728 235.633 163.77 235.233 163.854 234.865C163.939 234.497 164.066 234.173 164.235 233.894C164.409 233.614 164.625 233.396 164.883 233.24C165.145 233.083 165.448 233.005 165.791 233.005C165.884 233.005 165.983 233.013 166.089 233.03C166.199 233.047 166.281 233.066 166.336 233.087ZM170.938 238.623V235.347C170.938 235.102 170.894 234.89 170.805 234.712C170.716 234.535 170.581 234.397 170.399 234.3C170.221 234.202 169.997 234.154 169.726 234.154C169.476 234.154 169.261 234.196 169.079 234.281C168.897 234.365 168.755 234.48 168.653 234.624C168.552 234.767 168.501 234.93 168.501 235.112H166.978C166.978 234.841 167.043 234.579 167.174 234.325C167.306 234.071 167.496 233.845 167.746 233.646C167.995 233.447 168.294 233.291 168.641 233.176C168.988 233.062 169.377 233.005 169.809 233.005C170.325 233.005 170.782 233.092 171.18 233.265C171.582 233.439 171.897 233.701 172.125 234.052C172.358 234.399 172.475 234.835 172.475 235.36V238.413C172.475 238.726 172.496 239.008 172.538 239.257C172.585 239.503 172.65 239.716 172.735 239.898V240H171.167C171.095 239.835 171.038 239.625 170.996 239.372C170.958 239.113 170.938 238.864 170.938 238.623ZM171.161 235.823L171.173 236.769H170.075C169.792 236.769 169.542 236.797 169.326 236.852C169.11 236.902 168.931 236.979 168.787 237.08C168.643 237.182 168.535 237.304 168.463 237.448C168.391 237.592 168.355 237.755 168.355 237.937C168.355 238.119 168.397 238.286 168.482 238.438C168.567 238.587 168.689 238.703 168.85 238.788C169.015 238.872 169.214 238.915 169.447 238.915C169.76 238.915 170.033 238.851 170.266 238.724C170.503 238.593 170.689 238.434 170.824 238.248C170.96 238.058 171.032 237.878 171.04 237.708L171.535 238.388C171.484 238.561 171.398 238.747 171.275 238.946C171.152 239.145 170.991 239.336 170.792 239.518C170.598 239.695 170.363 239.841 170.088 239.956C169.817 240.07 169.504 240.127 169.148 240.127C168.7 240.127 168.3 240.038 167.949 239.86C167.597 239.678 167.322 239.435 167.124 239.13C166.925 238.821 166.825 238.472 166.825 238.083C166.825 237.719 166.893 237.397 167.028 237.118C167.168 236.835 167.371 236.598 167.638 236.407C167.909 236.217 168.239 236.073 168.628 235.976C169.017 235.874 169.462 235.823 169.961 235.823H171.161ZM175.712 230.25V240H174.176V230.25H175.712Z" fill="#286EF1"/>
<path d="M56.5 220C56.5 218.067 58.067 216.5 60 216.5H228.25V255.5H60C58.067 255.5 56.5 253.933 56.5 252V220Z" stroke="#D5E3FD"/>
<path d="M228.25 216.5H400V255.5H228.25V216.5Z" fill="white"/>
<path d="M274.708 233.344C275.996 232.162 278.136 232.162 279.424 233.344C280.583 234.407 280.754 236.102 279.802 237.325L279.776 237.359C279.538 237.663 279.074 237.735 278.743 237.516C278.41 237.297 278.331 236.872 278.569 236.568L278.595 236.534C279.125 235.851 279.042 234.918 278.396 234.324C277.668 233.656 276.484 233.656 275.755 234.324L273.155 236.712C272.425 237.363 272.425 238.467 273.155 239.137C273.799 239.73 274.819 239.807 275.56 239.32L275.597 239.277C275.931 239.077 276.394 239.147 276.63 239.454C276.869 239.76 276.793 240.185 276.459 240.404L276.422 240.427C275.069 241.301 273.264 241.161 272.106 240.1C270.798 238.898 270.798 236.951 272.106 235.751L274.708 233.344ZM281.542 238.637C280.233 239.838 278.113 239.838 276.804 238.637C275.646 237.574 275.495 235.898 276.447 234.675L276.473 234.641C276.691 234.337 277.154 234.265 277.506 234.484C277.84 234.684 277.918 235.109 277.68 235.432L277.654 235.466C277.124 236.13 277.207 237.082 277.854 237.676C278.581 238.343 279.765 238.343 280.495 237.676L283.094 235.288C283.824 234.618 283.824 233.514 283.094 232.863C282.45 232.271 281.43 232.193 280.689 232.68L280.652 232.704C280.318 232.923 279.855 232.834 279.619 232.546C279.38 232.24 279.457 231.815 279.79 231.597L279.827 231.573C281.159 230.699 282.985 230.838 284.143 231.901C285.452 233.101 285.452 235.049 284.143 236.249L281.542 238.637Z" fill="#505050"/>
<path d="M296.766 230.758V240H295.172V230.758H296.766ZM300.111 234.598V240H298.581V233.132H300.022L300.111 234.598ZM299.838 236.312L299.343 236.306C299.347 235.819 299.415 235.373 299.546 234.966C299.681 234.56 299.868 234.211 300.104 233.919C300.346 233.627 300.633 233.403 300.968 233.246C301.302 233.085 301.674 233.005 302.085 233.005C302.415 233.005 302.713 233.051 302.98 233.145C303.251 233.233 303.481 233.379 303.672 233.583C303.867 233.786 304.015 234.05 304.116 234.376C304.218 234.698 304.269 235.093 304.269 235.563V240H302.732V235.557C302.732 235.227 302.684 234.966 302.586 234.776C302.493 234.581 302.356 234.444 302.174 234.363C301.996 234.279 301.774 234.236 301.507 234.236C301.245 234.236 301.01 234.291 300.803 234.401C300.595 234.511 300.42 234.662 300.276 234.852C300.136 235.042 300.028 235.263 299.952 235.512C299.876 235.762 299.838 236.028 299.838 236.312ZM308.979 233.132V234.249H305.106V233.132H308.979ZM306.224 231.45H307.753V238.102C307.753 238.314 307.783 238.477 307.842 238.591C307.906 238.701 307.993 238.775 308.103 238.813C308.213 238.851 308.342 238.87 308.49 238.87C308.596 238.87 308.697 238.864 308.794 238.851C308.892 238.838 308.97 238.826 309.029 238.813L309.036 239.981C308.909 240.019 308.761 240.053 308.591 240.083C308.426 240.112 308.236 240.127 308.02 240.127C307.669 240.127 307.358 240.066 307.087 239.943C306.816 239.816 306.604 239.611 306.452 239.327C306.3 239.044 306.224 238.667 306.224 238.197V231.45ZM313.187 240.127C312.679 240.127 312.22 240.044 311.81 239.879C311.403 239.71 311.056 239.475 310.769 239.175C310.485 238.874 310.267 238.521 310.115 238.115C309.962 237.708 309.886 237.271 309.886 236.801V236.547C309.886 236.009 309.965 235.523 310.121 235.087C310.278 234.651 310.496 234.279 310.775 233.97C311.054 233.657 311.384 233.417 311.765 233.252C312.146 233.087 312.559 233.005 313.003 233.005C313.494 233.005 313.923 233.087 314.292 233.252C314.66 233.417 314.964 233.65 315.206 233.951C315.451 234.247 315.633 234.6 315.751 235.011C315.874 235.421 315.936 235.874 315.936 236.369V237.023H310.629V235.925H314.425V235.804C314.416 235.529 314.361 235.271 314.26 235.03C314.162 234.789 314.012 234.594 313.809 234.446C313.606 234.298 313.335 234.224 312.997 234.224C312.743 234.224 312.516 234.279 312.317 234.389C312.123 234.494 311.96 234.649 311.829 234.852C311.697 235.055 311.596 235.301 311.524 235.588C311.456 235.872 311.422 236.191 311.422 236.547V236.801C311.422 237.101 311.463 237.381 311.543 237.639C311.628 237.893 311.75 238.115 311.911 238.305C312.072 238.496 312.267 238.646 312.495 238.756C312.724 238.862 312.984 238.915 313.276 238.915C313.644 238.915 313.972 238.84 314.26 238.692C314.548 238.544 314.797 238.335 315.009 238.064L315.815 238.845C315.667 239.061 315.474 239.268 315.237 239.467C315 239.661 314.71 239.82 314.368 239.943C314.029 240.066 313.636 240.127 313.187 240.127ZM321.528 233.132H322.918V239.81C322.918 240.427 322.787 240.952 322.524 241.384C322.262 241.815 321.896 242.143 321.426 242.368C320.957 242.596 320.413 242.71 319.795 242.71C319.533 242.71 319.241 242.672 318.919 242.596C318.602 242.52 318.293 242.397 317.992 242.228C317.696 242.063 317.448 241.845 317.25 241.574L317.967 240.673C318.212 240.965 318.483 241.179 318.779 241.314C319.076 241.449 319.387 241.517 319.712 241.517C320.064 241.517 320.362 241.451 320.607 241.32C320.857 241.193 321.05 241.005 321.185 240.755C321.32 240.506 321.388 240.201 321.388 239.841V234.687L321.528 233.132ZM316.862 236.642V236.509C316.862 235.988 316.926 235.514 317.053 235.087C317.18 234.655 317.362 234.285 317.599 233.976C317.836 233.663 318.123 233.424 318.462 233.259C318.8 233.09 319.183 233.005 319.611 233.005C320.055 233.005 320.434 233.085 320.747 233.246C321.064 233.407 321.329 233.638 321.541 233.938C321.752 234.234 321.917 234.59 322.036 235.004C322.158 235.415 322.249 235.872 322.309 236.375V236.801C322.254 237.292 322.16 237.74 322.029 238.146C321.898 238.553 321.725 238.904 321.509 239.2C321.293 239.496 321.026 239.725 320.709 239.886C320.396 240.047 320.026 240.127 319.598 240.127C319.179 240.127 318.8 240.04 318.462 239.867C318.128 239.693 317.84 239.45 317.599 239.137C317.362 238.824 317.18 238.455 317.053 238.032C316.926 237.605 316.862 237.141 316.862 236.642ZM318.392 236.509V236.642C318.392 236.955 318.422 237.247 318.481 237.518C318.544 237.789 318.64 238.028 318.767 238.235C318.898 238.438 319.063 238.599 319.262 238.718C319.465 238.832 319.704 238.889 319.979 238.889C320.339 238.889 320.633 238.813 320.861 238.661C321.094 238.508 321.272 238.303 321.395 238.045C321.521 237.783 321.61 237.491 321.661 237.169V236.02C321.636 235.77 321.583 235.538 321.502 235.322C321.426 235.106 321.323 234.918 321.191 234.757C321.06 234.592 320.895 234.465 320.696 234.376C320.497 234.283 320.263 234.236 319.992 234.236C319.717 234.236 319.478 234.296 319.274 234.414C319.071 234.533 318.904 234.695 318.773 234.903C318.646 235.11 318.551 235.351 318.487 235.626C318.424 235.902 318.392 236.196 318.392 236.509ZM326.041 234.439V240H324.511V233.132H325.971L326.041 234.439ZM328.142 233.087L328.129 234.509C328.036 234.492 327.935 234.48 327.825 234.471C327.719 234.463 327.613 234.458 327.507 234.458C327.245 234.458 327.014 234.497 326.815 234.573C326.617 234.645 326.449 234.75 326.314 234.89C326.183 235.026 326.081 235.191 326.009 235.385C325.937 235.58 325.895 235.798 325.882 236.039L325.533 236.064C325.533 235.633 325.576 235.233 325.66 234.865C325.745 234.497 325.872 234.173 326.041 233.894C326.215 233.614 326.43 233.396 326.688 233.24C326.951 233.083 327.253 233.005 327.596 233.005C327.689 233.005 327.789 233.013 327.895 233.03C328.005 233.047 328.087 233.066 328.142 233.087ZM332.744 238.623V235.347C332.744 235.102 332.7 234.89 332.611 234.712C332.522 234.535 332.387 234.397 332.205 234.3C332.027 234.202 331.803 234.154 331.532 234.154C331.282 234.154 331.066 234.196 330.884 234.281C330.702 234.365 330.561 234.48 330.459 234.624C330.357 234.767 330.307 234.93 330.307 235.112H328.783C328.783 234.841 328.849 234.579 328.98 234.325C329.111 234.071 329.302 233.845 329.551 233.646C329.801 233.447 330.099 233.291 330.446 233.176C330.793 233.062 331.183 233.005 331.614 233.005C332.131 233.005 332.588 233.092 332.985 233.265C333.387 233.439 333.703 233.701 333.931 234.052C334.164 234.399 334.28 234.835 334.28 235.36V238.413C334.28 238.726 334.301 239.008 334.344 239.257C334.39 239.503 334.456 239.716 334.541 239.898V240H332.973C332.901 239.835 332.844 239.625 332.801 239.372C332.763 239.113 332.744 238.864 332.744 238.623ZM332.966 235.823L332.979 236.769H331.881C331.597 236.769 331.348 236.797 331.132 236.852C330.916 236.902 330.736 236.979 330.592 237.08C330.448 237.182 330.34 237.304 330.269 237.448C330.197 237.592 330.161 237.755 330.161 237.937C330.161 238.119 330.203 238.286 330.288 238.438C330.372 238.587 330.495 238.703 330.656 238.788C330.821 238.872 331.02 238.915 331.252 238.915C331.566 238.915 331.839 238.851 332.071 238.724C332.308 238.593 332.494 238.434 332.63 238.248C332.765 238.058 332.837 237.878 332.846 237.708L333.341 238.388C333.29 238.561 333.203 238.747 333.081 238.946C332.958 239.145 332.797 239.336 332.598 239.518C332.403 239.695 332.169 239.841 331.894 239.956C331.623 240.07 331.31 240.127 330.954 240.127C330.506 240.127 330.106 240.038 329.754 239.86C329.403 239.678 329.128 239.435 328.929 239.13C328.73 238.821 328.631 238.472 328.631 238.083C328.631 237.719 328.699 237.397 328.834 237.118C328.974 236.835 329.177 236.598 329.443 236.407C329.714 236.217 330.044 236.073 330.434 235.976C330.823 235.874 331.267 235.823 331.767 235.823H332.966ZM339.028 233.132V234.249H335.156V233.132H339.028ZM336.273 231.45H337.803V238.102C337.803 238.314 337.833 238.477 337.892 238.591C337.956 238.701 338.042 238.775 338.152 238.813C338.262 238.851 338.391 238.87 338.54 238.87C338.645 238.87 338.747 238.864 338.844 238.851C338.942 238.838 339.02 238.826 339.079 238.813L339.085 239.981C338.958 240.019 338.81 240.053 338.641 240.083C338.476 240.112 338.286 240.127 338.07 240.127C337.719 240.127 337.408 240.066 337.137 239.943C336.866 239.816 336.654 239.611 336.502 239.327C336.35 239.044 336.273 238.667 336.273 238.197V231.45ZM341.847 233.132V240H340.311V233.132H341.847ZM340.209 231.329C340.209 231.096 340.285 230.904 340.438 230.751C340.594 230.595 340.81 230.517 341.085 230.517C341.356 230.517 341.569 230.595 341.726 230.751C341.883 230.904 341.961 231.096 341.961 231.329C341.961 231.558 341.883 231.748 341.726 231.9C341.569 232.053 341.356 232.129 341.085 232.129C340.81 232.129 340.594 232.053 340.438 231.9C340.285 231.748 340.209 231.558 340.209 231.329ZM343.23 236.642V236.496C343.23 236.001 343.302 235.542 343.446 235.119C343.59 234.691 343.798 234.321 344.068 234.008C344.343 233.69 344.678 233.445 345.071 233.271C345.469 233.094 345.918 233.005 346.417 233.005C346.921 233.005 347.369 233.094 347.763 233.271C348.16 233.445 348.497 233.69 348.772 234.008C349.047 234.321 349.257 234.691 349.4 235.119C349.544 235.542 349.616 236.001 349.616 236.496V236.642C349.616 237.137 349.544 237.596 349.4 238.02C349.257 238.443 349.047 238.813 348.772 239.13C348.497 239.444 348.163 239.689 347.769 239.867C347.375 240.04 346.929 240.127 346.43 240.127C345.926 240.127 345.475 240.04 345.078 239.867C344.684 239.689 344.35 239.444 344.075 239.13C343.8 238.813 343.59 238.443 343.446 238.02C343.302 237.596 343.23 237.137 343.23 236.642ZM344.76 236.496V236.642C344.76 236.951 344.792 237.243 344.855 237.518C344.919 237.793 345.018 238.034 345.154 238.242C345.289 238.449 345.463 238.612 345.674 238.73C345.886 238.849 346.138 238.908 346.43 238.908C346.713 238.908 346.959 238.849 347.166 238.73C347.378 238.612 347.551 238.449 347.687 238.242C347.822 238.034 347.921 237.793 347.985 237.518C348.053 237.243 348.086 236.951 348.086 236.642V236.496C348.086 236.191 348.053 235.904 347.985 235.633C347.921 235.358 347.82 235.114 347.68 234.903C347.545 234.691 347.371 234.526 347.16 234.408C346.952 234.285 346.705 234.224 346.417 234.224C346.129 234.224 345.88 234.285 345.668 234.408C345.461 234.526 345.289 234.691 345.154 234.903C345.018 235.114 344.919 235.358 344.855 235.633C344.792 235.904 344.76 236.191 344.76 236.496ZM352.416 234.598V240H350.886V233.132H352.327L352.416 234.598ZM352.143 236.312L351.647 236.306C351.652 235.819 351.719 235.373 351.851 234.966C351.986 234.56 352.172 234.211 352.409 233.919C352.65 233.627 352.938 233.403 353.272 233.246C353.607 233.085 353.979 233.005 354.39 233.005C354.72 233.005 355.018 233.051 355.285 233.145C355.556 233.233 355.786 233.379 355.977 233.583C356.171 233.786 356.319 234.05 356.421 234.376C356.522 234.698 356.573 235.093 356.573 235.563V240H355.037V235.557C355.037 235.227 354.988 234.966 354.891 234.776C354.798 234.581 354.66 234.444 354.479 234.363C354.301 234.279 354.079 234.236 353.812 234.236C353.55 234.236 353.315 234.291 353.107 234.401C352.9 234.511 352.724 234.662 352.581 234.852C352.441 235.042 352.333 235.263 352.257 235.512C352.181 235.762 352.143 236.028 352.143 236.312Z" fill="#505050"/>
<path d="M228.25 216.5H400V255.5H228.25V216.5Z" stroke="#E6E6E6"/>
<path d="M400 216.5H571.75V255.5H400V216.5Z" fill="white"/>
<path d="M455.625 232.75H456.625V232.25C456.625 231.834 456.959 231.5 457.375 231.5C457.791 231.5 458.125 231.834 458.125 232.25V232.75H462.125C462.541 232.75 462.875 233.084 462.875 233.5C462.875 233.916 462.541 234.25 462.125 234.25H458.125V234.75C458.125 235.166 457.791 235.5 457.375 235.5C456.959 235.5 456.625 235.166 456.625 234.75V234.25H455.625C455.209 234.25 454.875 233.916 454.875 233.5C454.875 233.084 455.209 232.75 455.625 232.75ZM455.625 239.25C455.209 239.25 454.875 238.916 454.875 238.5C454.875 238.084 455.209 237.75 455.625 237.75H459.625V237.25C459.625 236.834 459.959 236.5 460.375 236.5C460.791 236.5 461.125 236.834 461.125 237.25V237.75H462.125C462.541 237.75 462.875 238.084 462.875 238.5C462.875 238.916 462.541 239.25 462.125 239.25H461.125V239.75C461.125 240.166 460.791 240.5 460.375 240.5C459.959 240.5 459.625 240.166 459.625 239.75V239.25H455.625ZM451.875 231C451.875 229.895 452.77 229 453.875 229H463.875C464.978 229 465.875 229.895 465.875 231V241C465.875 242.103 464.978 243 463.875 243H453.875C452.77 243 451.875 242.103 451.875 241V231ZM453.875 241.5H463.875C464.15 241.5 464.375 241.275 464.375 241V231C464.375 230.724 464.15 230.5 463.875 230.5H453.875C453.599 230.5 453.375 230.724 453.375 231V241C453.375 241.275 453.599 241.5 453.875 241.5Z" fill="#505050"/>
<path d="M481.273 236.991H482.86C482.81 237.596 482.64 238.136 482.353 238.61C482.065 239.08 481.661 239.45 481.14 239.721C480.62 239.992 479.987 240.127 479.242 240.127C478.671 240.127 478.157 240.025 477.7 239.822C477.243 239.615 476.851 239.323 476.525 238.946C476.2 238.565 475.95 238.106 475.776 237.569C475.607 237.031 475.522 236.431 475.522 235.766V234.998C475.522 234.334 475.609 233.733 475.783 233.195C475.96 232.658 476.214 232.199 476.544 231.818C476.875 231.433 477.27 231.139 477.731 230.936C478.197 230.732 478.72 230.631 479.299 230.631C480.036 230.631 480.658 230.766 481.166 231.037C481.673 231.308 482.067 231.682 482.346 232.161C482.63 232.639 482.803 233.187 482.867 233.805H481.28C481.237 233.407 481.144 233.066 481 232.783C480.861 232.499 480.653 232.283 480.378 232.135C480.103 231.983 479.744 231.907 479.299 231.907C478.935 231.907 478.618 231.974 478.347 232.11C478.076 232.245 477.85 232.444 477.668 232.707C477.486 232.969 477.348 233.293 477.255 233.678C477.167 234.059 477.122 234.494 477.122 234.985V235.766C477.122 236.232 477.162 236.655 477.243 237.036C477.327 237.412 477.454 237.736 477.624 238.007C477.797 238.278 478.017 238.487 478.284 238.635C478.55 238.783 478.87 238.857 479.242 238.857C479.695 238.857 480.061 238.785 480.34 238.642C480.624 238.498 480.838 238.288 480.981 238.013C481.13 237.734 481.227 237.393 481.273 236.991ZM483.863 236.642V236.496C483.863 236.001 483.935 235.542 484.079 235.119C484.223 234.691 484.43 234.321 484.701 234.008C484.976 233.69 485.311 233.445 485.704 233.271C486.102 233.094 486.55 233.005 487.05 233.005C487.553 233.005 488.002 233.094 488.396 233.271C488.793 233.445 489.13 233.69 489.405 234.008C489.68 234.321 489.889 234.691 490.033 235.119C490.177 235.542 490.249 236.001 490.249 236.496V236.642C490.249 237.137 490.177 237.596 490.033 238.02C489.889 238.443 489.68 238.813 489.405 239.13C489.13 239.444 488.795 239.689 488.402 239.867C488.008 240.04 487.562 240.127 487.062 240.127C486.559 240.127 486.108 240.04 485.71 239.867C485.317 239.689 484.983 239.444 484.708 239.13C484.432 238.813 484.223 238.443 484.079 238.02C483.935 237.596 483.863 237.137 483.863 236.642ZM485.393 236.496V236.642C485.393 236.951 485.425 237.243 485.488 237.518C485.552 237.793 485.651 238.034 485.787 238.242C485.922 238.449 486.096 238.612 486.307 238.73C486.519 238.849 486.771 238.908 487.062 238.908C487.346 238.908 487.591 238.849 487.799 238.73C488.01 238.612 488.184 238.449 488.319 238.242C488.455 238.034 488.554 237.793 488.618 237.518C488.685 237.243 488.719 236.951 488.719 236.642V236.496C488.719 236.191 488.685 235.904 488.618 235.633C488.554 235.358 488.453 235.114 488.313 234.903C488.178 234.691 488.004 234.526 487.792 234.408C487.585 234.285 487.338 234.224 487.05 234.224C486.762 234.224 486.512 234.285 486.301 234.408C486.093 234.526 485.922 234.691 485.787 234.903C485.651 235.114 485.552 235.358 485.488 235.633C485.425 235.904 485.393 236.191 485.393 236.496ZM493.048 234.598V240H491.519V233.132H492.959L493.048 234.598ZM492.775 236.312L492.28 236.306C492.285 235.819 492.352 235.373 492.483 234.966C492.619 234.56 492.805 234.211 493.042 233.919C493.283 233.627 493.571 233.403 493.905 233.246C494.24 233.085 494.612 233.005 495.022 233.005C495.353 233.005 495.651 233.051 495.917 233.145C496.188 233.233 496.419 233.379 496.609 233.583C496.804 233.786 496.952 234.05 497.054 234.376C497.155 234.698 497.206 235.093 497.206 235.563V240H495.67V235.557C495.67 235.227 495.621 234.966 495.524 234.776C495.431 234.581 495.293 234.444 495.111 234.363C494.934 234.279 494.711 234.236 494.445 234.236C494.182 234.236 493.948 234.291 493.74 234.401C493.533 234.511 493.357 234.662 493.213 234.852C493.074 235.042 492.966 235.263 492.89 235.512C492.813 235.762 492.775 236.028 492.775 236.312ZM500.837 240H499.307V232.472C499.307 231.96 499.402 231.53 499.593 231.183C499.787 230.832 500.065 230.567 500.424 230.39C500.784 230.208 501.209 230.117 501.7 230.117C501.853 230.117 502.003 230.127 502.151 230.148C502.299 230.165 502.443 230.193 502.583 230.231L502.544 231.412C502.46 231.39 502.367 231.376 502.265 231.367C502.168 231.359 502.062 231.354 501.948 231.354C501.715 231.354 501.514 231.399 501.345 231.488C501.18 231.572 501.053 231.697 500.964 231.862C500.879 232.027 500.837 232.23 500.837 232.472V240ZM502.252 233.132V234.249H498.253V233.132H502.252ZM505.001 233.132V240H503.465V233.132H505.001ZM503.363 231.329C503.363 231.096 503.439 230.904 503.592 230.751C503.748 230.595 503.964 230.517 504.239 230.517C504.51 230.517 504.724 230.595 504.88 230.751C505.037 230.904 505.115 231.096 505.115 231.329C505.115 231.558 505.037 231.748 504.88 231.9C504.724 232.053 504.51 232.129 504.239 232.129C503.964 232.129 503.748 232.053 503.592 231.9C503.439 231.748 503.363 231.558 503.363 231.329ZM511.076 233.132H512.466V239.81C512.466 240.427 512.335 240.952 512.072 241.384C511.81 241.815 511.444 242.143 510.974 242.368C510.504 242.596 509.961 242.71 509.343 242.71C509.08 242.71 508.788 242.672 508.467 242.596C508.149 242.52 507.84 242.397 507.54 242.228C507.244 242.063 506.996 241.845 506.797 241.574L507.515 240.673C507.76 240.965 508.031 241.179 508.327 241.314C508.623 241.449 508.934 241.517 509.26 241.517C509.611 241.517 509.91 241.451 510.155 241.32C510.405 241.193 510.597 241.005 510.733 240.755C510.868 240.506 510.936 240.201 510.936 239.841V234.687L511.076 233.132ZM506.41 236.642V236.509C506.41 235.988 506.474 235.514 506.601 235.087C506.728 234.655 506.91 234.285 507.146 233.976C507.383 233.663 507.671 233.424 508.01 233.259C508.348 233.09 508.731 233.005 509.159 233.005C509.603 233.005 509.982 233.085 510.295 233.246C510.612 233.407 510.877 233.638 511.088 233.938C511.3 234.234 511.465 234.59 511.583 235.004C511.706 235.415 511.797 235.872 511.856 236.375V236.801C511.801 237.292 511.708 237.74 511.577 238.146C511.446 238.553 511.272 238.904 511.057 239.2C510.841 239.496 510.574 239.725 510.257 239.886C509.944 240.047 509.573 240.127 509.146 240.127C508.727 240.127 508.348 240.04 508.01 239.867C507.675 239.693 507.388 239.45 507.146 239.137C506.91 238.824 506.728 238.455 506.601 238.032C506.474 237.605 506.41 237.141 506.41 236.642ZM507.94 236.509V236.642C507.94 236.955 507.97 237.247 508.029 237.518C508.092 237.789 508.188 238.028 508.314 238.235C508.446 238.438 508.611 238.599 508.81 238.718C509.013 238.832 509.252 238.889 509.527 238.889C509.887 238.889 510.181 238.813 510.409 238.661C510.642 238.508 510.82 238.303 510.942 238.045C511.069 237.783 511.158 237.491 511.209 237.169V236.02C511.184 235.77 511.131 235.538 511.05 235.322C510.974 235.106 510.87 234.918 510.739 234.757C510.608 234.592 510.443 234.465 510.244 234.376C510.045 234.283 509.81 234.236 509.54 234.236C509.264 234.236 509.025 234.296 508.822 234.414C508.619 234.533 508.452 234.695 508.321 234.903C508.194 235.11 508.099 235.351 508.035 235.626C507.972 235.902 507.94 236.196 507.94 236.509ZM517.906 238.14C517.906 237.988 517.868 237.85 517.792 237.728C517.715 237.601 517.569 237.486 517.354 237.385C517.142 237.283 516.829 237.19 516.414 237.105C516.05 237.025 515.716 236.93 515.411 236.82C515.111 236.706 514.853 236.568 514.637 236.407C514.421 236.246 514.254 236.056 514.135 235.836C514.017 235.616 513.958 235.362 513.958 235.074C513.958 234.795 514.019 234.53 514.142 234.281C514.264 234.031 514.44 233.811 514.668 233.621C514.897 233.43 515.174 233.28 515.5 233.17C515.83 233.06 516.198 233.005 516.604 233.005C517.18 233.005 517.673 233.102 518.083 233.297C518.498 233.487 518.816 233.748 519.036 234.078C519.256 234.403 519.366 234.772 519.366 235.182H517.836C517.836 235 517.789 234.831 517.696 234.674C517.607 234.514 517.472 234.384 517.29 234.287C517.108 234.186 516.88 234.135 516.604 234.135C516.342 234.135 516.124 234.177 515.951 234.262C515.781 234.342 515.654 234.448 515.57 234.579C515.489 234.71 515.449 234.854 515.449 235.011C515.449 235.125 515.47 235.229 515.513 235.322C515.559 235.411 515.635 235.493 515.741 235.569C515.847 235.641 515.991 235.709 516.173 235.772C516.359 235.836 516.592 235.897 516.871 235.957C517.396 236.067 517.847 236.208 518.223 236.382C518.604 236.551 518.896 236.771 519.099 237.042C519.302 237.309 519.404 237.647 519.404 238.058C519.404 238.362 519.338 238.642 519.207 238.896C519.08 239.145 518.894 239.363 518.648 239.549C518.403 239.731 518.109 239.873 517.766 239.975C517.428 240.076 517.047 240.127 516.624 240.127C516.001 240.127 515.475 240.017 515.043 239.797C514.611 239.573 514.283 239.287 514.059 238.94C513.839 238.589 513.729 238.225 513.729 237.848H515.208C515.225 238.132 515.303 238.358 515.443 238.527C515.587 238.692 515.764 238.813 515.976 238.889C516.192 238.961 516.414 238.997 516.643 238.997C516.918 238.997 517.148 238.961 517.334 238.889C517.521 238.813 517.662 238.711 517.76 238.584C517.857 238.453 517.906 238.305 517.906 238.14Z" fill="#505050"/>
<path d="M400 216.5H571.75V255.5H400V216.5Z" stroke="#E6E6E6"/>
<path d="M571.75 216.5H740C741.933 216.5 743.5 218.067 743.5 220V252C743.5 253.933 741.933 255.5 740 255.5H571.75V216.5Z" fill="white"/>
<path d="M645.921 236.936C645.548 236.827 645.161 237.041 645.053 237.412C644.422 239.614 642.395 241.133 640.1 241.133C638.16 241.133 636.403 240.017 635.537 238.333H638.464C638.851 238.333 639.164 238.02 639.164 237.633C639.164 237.247 638.878 236.933 638.491 236.933H633.825C633.438 236.933 633.125 237.247 633.125 237.633V242.3C633.125 242.686 633.438 243 633.825 243C634.211 243 634.525 242.686 634.525 242.3V239.322C635.685 241.262 637.797 242.533 640.1 242.533C642.987 242.533 645.565 240.599 646.373 237.829C646.507 237.432 646.291 237.07 645.921 236.936ZM646.425 229C646.04 229 645.725 229.314 645.725 229.7V232.678C644.568 230.737 642.453 229.467 640.126 229.467C637.24 229.467 634.66 231.401 633.854 234.171C633.746 234.542 633.959 234.93 634.33 235.037C634.704 235.148 635.091 234.932 635.197 234.562C635.831 232.386 637.858 230.867 640.126 230.867C642.067 230.867 643.824 231.983 644.69 233.667H641.759C641.375 233.667 641.06 233.982 641.06 234.367C641.06 234.752 641.375 235.067 641.759 235.067H646.425C646.812 235.067 647.125 234.753 647.125 234.367V229.7C647.125 229.314 646.813 229 646.425 229Z" fill="#505050"/>
<path d="M659.75 240H657.775L657.788 238.737H659.75C660.321 238.737 660.799 238.612 661.184 238.362C661.573 238.113 661.865 237.755 662.06 237.29C662.259 236.824 662.358 236.27 662.358 235.626V235.125C662.358 234.626 662.301 234.183 662.187 233.798C662.077 233.413 661.912 233.09 661.692 232.827C661.476 232.565 661.209 232.366 660.892 232.23C660.579 232.095 660.217 232.027 659.807 232.027H657.737V230.758H659.807C660.42 230.758 660.981 230.861 661.489 231.069C661.997 231.272 662.435 231.566 662.803 231.951C663.175 232.336 663.461 232.798 663.66 233.335C663.859 233.872 663.958 234.473 663.958 235.138V235.626C663.958 236.291 663.859 236.892 663.66 237.429C663.461 237.967 663.175 238.428 662.803 238.813C662.43 239.194 661.986 239.488 661.47 239.695C660.958 239.898 660.384 240 659.75 240ZM658.658 230.758V240H657.064V230.758H658.658ZM669.277 238.623V235.347C669.277 235.102 669.233 234.89 669.144 234.712C669.055 234.535 668.92 234.397 668.738 234.3C668.56 234.202 668.336 234.154 668.065 234.154C667.815 234.154 667.599 234.196 667.417 234.281C667.236 234.365 667.094 234.48 666.992 234.624C666.891 234.767 666.84 234.93 666.84 235.112H665.316C665.316 234.841 665.382 234.579 665.513 234.325C665.644 234.071 665.835 233.845 666.084 233.646C666.334 233.447 666.632 233.291 666.979 233.176C667.326 233.062 667.716 233.005 668.147 233.005C668.664 233.005 669.121 233.092 669.519 233.265C669.921 233.439 670.236 233.701 670.464 234.052C670.697 234.399 670.813 234.835 670.813 235.36V238.413C670.813 238.726 670.835 239.008 670.877 239.257C670.924 239.503 670.989 239.716 671.074 239.898V240H669.506C669.434 239.835 669.377 239.625 669.334 239.372C669.296 239.113 669.277 238.864 669.277 238.623ZM669.5 235.823L669.512 236.769H668.414C668.131 236.769 667.881 236.797 667.665 236.852C667.449 236.902 667.269 236.979 667.125 237.08C666.982 237.182 666.874 237.304 666.802 237.448C666.73 237.592 666.694 237.755 666.694 237.937C666.694 238.119 666.736 238.286 666.821 238.438C666.905 238.587 667.028 238.703 667.189 238.788C667.354 238.872 667.553 238.915 667.786 238.915C668.099 238.915 668.372 238.851 668.604 238.724C668.841 238.593 669.028 238.434 669.163 238.248C669.299 238.058 669.37 237.878 669.379 237.708L669.874 238.388C669.823 238.561 669.736 238.747 669.614 238.946C669.491 239.145 669.33 239.336 669.131 239.518C668.937 239.695 668.702 239.841 668.427 239.956C668.156 240.07 667.843 240.127 667.487 240.127C667.039 240.127 666.639 240.038 666.288 239.86C665.936 239.678 665.661 239.435 665.462 239.13C665.264 238.821 665.164 238.472 665.164 238.083C665.164 237.719 665.232 237.397 665.367 237.118C665.507 236.835 665.71 236.598 665.977 236.407C666.247 236.217 666.577 236.073 666.967 235.976C667.356 235.874 667.8 235.823 668.3 235.823H669.5ZM675.562 233.132V234.249H671.689V233.132H675.562ZM672.807 231.45H674.336V238.102C674.336 238.314 674.366 238.477 674.425 238.591C674.489 238.701 674.576 238.775 674.686 238.813C674.796 238.851 674.925 238.87 675.073 238.87C675.179 238.87 675.28 238.864 675.377 238.851C675.475 238.838 675.553 238.826 675.612 238.813L675.619 239.981C675.492 240.019 675.344 240.053 675.174 240.083C675.009 240.112 674.819 240.127 674.603 240.127C674.252 240.127 673.941 240.066 673.67 239.943C673.399 239.816 673.188 239.611 673.035 239.327C672.883 239.044 672.807 238.667 672.807 238.197V231.45ZM680.614 238.623V235.347C680.614 235.102 680.57 234.89 680.481 234.712C680.392 234.535 680.257 234.397 680.075 234.3C679.897 234.202 679.673 234.154 679.402 234.154C679.152 234.154 678.936 234.196 678.754 234.281C678.572 234.365 678.431 234.48 678.329 234.624C678.228 234.767 678.177 234.93 678.177 235.112H676.653C676.653 234.841 676.719 234.579 676.85 234.325C676.981 234.071 677.172 233.845 677.421 233.646C677.671 233.447 677.969 233.291 678.316 233.176C678.663 233.062 679.053 233.005 679.484 233.005C680.001 233.005 680.458 233.092 680.855 233.265C681.257 233.439 681.573 233.701 681.801 234.052C682.034 234.399 682.15 234.835 682.15 235.36V238.413C682.15 238.726 682.172 239.008 682.214 239.257C682.26 239.503 682.326 239.716 682.411 239.898V240H680.843C680.771 239.835 680.714 239.625 680.671 239.372C680.633 239.113 680.614 238.864 680.614 238.623ZM680.836 235.823L680.849 236.769H679.751C679.467 236.769 679.218 236.797 679.002 236.852C678.786 236.902 678.606 236.979 678.462 237.08C678.319 237.182 678.211 237.304 678.139 237.448C678.067 237.592 678.031 237.755 678.031 237.937C678.031 238.119 678.073 238.286 678.158 238.438C678.242 238.587 678.365 238.703 678.526 238.788C678.691 238.872 678.89 238.915 679.123 238.915C679.436 238.915 679.709 238.851 679.941 238.724C680.178 238.593 680.365 238.434 680.5 238.248C680.635 238.058 680.707 237.878 680.716 237.708L681.211 238.388C681.16 238.561 681.073 238.747 680.951 238.946C680.828 239.145 680.667 239.336 680.468 239.518C680.274 239.695 680.039 239.841 679.764 239.956C679.493 240.07 679.18 240.127 678.824 240.127C678.376 240.127 677.976 240.038 677.625 239.86C677.273 239.678 676.998 239.435 676.799 239.13C676.6 238.821 676.501 238.472 676.501 238.083C676.501 237.719 676.569 237.397 676.704 237.118C676.844 236.835 677.047 236.598 677.313 236.407C677.584 236.217 677.914 236.073 678.304 235.976C678.693 235.874 679.137 235.823 679.637 235.823H680.836Z" fill="#505050"/>
<path d="M571.75 216.5H740C741.933 216.5 743.5 218.067 743.5 220V252C743.5 253.933 741.933 255.5 740 255.5H571.75V216.5Z" stroke="#E6E6E6"/>
<path d="M56.5 92C56.5 90.067 58.067 88.5 60 88.5H132.5V127.5H60C58.067 127.5 56.5 125.933 56.5 124V92Z" fill="#EAF1FE"/>
<path d="M72.9395 102.758H76.2085C76.911 102.758 77.5098 102.864 78.0049 103.075C78.5 103.287 78.8787 103.6 79.1411 104.015C79.4077 104.425 79.541 104.933 79.541 105.538C79.541 105.999 79.4564 106.406 79.2871 106.757C79.1178 107.108 78.8787 107.404 78.5698 107.646C78.2609 107.882 77.8927 108.067 77.4653 108.198L76.9829 108.433H74.0439L74.0312 107.169H76.2339C76.6147 107.169 76.9321 107.102 77.186 106.966C77.4399 106.831 77.6304 106.647 77.7573 106.414C77.8885 106.177 77.9541 105.91 77.9541 105.614C77.9541 105.293 77.8906 105.013 77.7637 104.776C77.641 104.535 77.4505 104.351 77.1924 104.224C76.9342 104.093 76.6063 104.027 76.2085 104.027H74.5327V112H72.9395V102.758ZM78.2144 112L76.0435 107.849L77.7129 107.842L79.9155 111.917V112H78.2144ZM84.0034 112.127C83.4956 112.127 83.0365 112.044 82.626 111.879C82.2197 111.71 81.8727 111.475 81.585 111.175C81.3014 110.874 81.0835 110.521 80.9312 110.115C80.7788 109.708 80.7026 109.271 80.7026 108.801V108.547C80.7026 108.009 80.7809 107.523 80.9375 107.087C81.0941 106.651 81.312 106.279 81.5913 105.97C81.8706 105.657 82.2007 105.417 82.5815 105.252C82.9624 105.087 83.375 105.005 83.8193 105.005C84.3102 105.005 84.7397 105.087 85.1079 105.252C85.4761 105.417 85.7808 105.65 86.022 105.951C86.2674 106.247 86.4494 106.6 86.5679 107.011C86.6906 107.421 86.752 107.874 86.752 108.369V109.023H81.4453V107.925H85.2412V107.804C85.2327 107.529 85.1777 107.271 85.0762 107.03C84.9788 106.789 84.8286 106.594 84.6255 106.446C84.4224 106.298 84.1515 106.224 83.813 106.224C83.5591 106.224 83.3327 106.279 83.1338 106.389C82.9391 106.494 82.7762 106.649 82.645 106.852C82.5138 107.055 82.4123 107.301 82.3403 107.588C82.2726 107.872 82.2388 108.191 82.2388 108.547V108.801C82.2388 109.101 82.279 109.381 82.3594 109.639C82.444 109.893 82.5667 110.115 82.7275 110.305C82.8883 110.496 83.083 110.646 83.3115 110.756C83.54 110.862 83.8003 110.915 84.0923 110.915C84.4604 110.915 84.7884 110.84 85.0762 110.692C85.3639 110.544 85.6136 110.335 85.8252 110.064L86.6313 110.845C86.4832 111.061 86.2907 111.268 86.0537 111.467C85.8167 111.661 85.5269 111.82 85.1841 111.943C84.8455 112.066 84.452 112.127 84.0034 112.127ZM92.3442 105.132H93.7344V111.81C93.7344 112.427 93.6032 112.952 93.3408 113.384C93.0785 113.815 92.7124 114.143 92.2427 114.368C91.7729 114.596 91.2292 114.71 90.6113 114.71C90.349 114.71 90.057 114.672 89.7354 114.596C89.418 114.52 89.109 114.397 88.8086 114.228C88.5124 114.063 88.2648 113.845 88.0659 113.574L88.7832 112.673C89.0286 112.965 89.2995 113.179 89.5957 113.314C89.8919 113.449 90.203 113.517 90.5288 113.517C90.88 113.517 91.1784 113.451 91.4238 113.32C91.6735 113.193 91.866 113.005 92.0015 112.755C92.1369 112.506 92.2046 112.201 92.2046 111.841V106.687L92.3442 105.132ZM87.6787 108.642V108.509C87.6787 107.988 87.7422 107.514 87.8691 107.087C87.9961 106.655 88.1781 106.285 88.415 105.976C88.652 105.663 88.9398 105.424 89.2783 105.259C89.6169 105.09 89.9998 105.005 90.4272 105.005C90.8716 105.005 91.2503 105.085 91.5635 105.246C91.8809 105.407 92.1453 105.638 92.3569 105.938C92.5685 106.234 92.7336 106.59 92.8521 107.004C92.9748 107.415 93.0658 107.872 93.125 108.375V108.801C93.07 109.292 92.9769 109.74 92.8457 110.146C92.7145 110.553 92.541 110.904 92.3252 111.2C92.1094 111.496 91.8428 111.725 91.5254 111.886C91.2122 112.047 90.842 112.127 90.4146 112.127C89.9956 112.127 89.6169 112.04 89.2783 111.867C88.944 111.693 88.6562 111.45 88.415 111.137C88.1781 110.824 87.9961 110.455 87.8691 110.032C87.7422 109.605 87.6787 109.141 87.6787 108.642ZM89.2085 108.509V108.642C89.2085 108.955 89.2381 109.247 89.2974 109.518C89.3608 109.789 89.4561 110.028 89.583 110.235C89.7142 110.438 89.8792 110.599 90.0781 110.718C90.2812 110.832 90.5203 110.889 90.7954 110.889C91.1551 110.889 91.4492 110.813 91.6777 110.661C91.9105 110.508 92.0882 110.303 92.2109 110.045C92.3379 109.783 92.4268 109.491 92.4775 109.169V108.02C92.4521 107.77 92.3993 107.538 92.3188 107.322C92.2427 107.106 92.139 106.918 92.0078 106.757C91.8766 106.592 91.7116 106.465 91.5127 106.376C91.3138 106.283 91.0789 106.236 90.8081 106.236C90.533 106.236 90.2939 106.296 90.0908 106.414C89.8877 106.533 89.7205 106.695 89.5894 106.903C89.4624 107.11 89.3672 107.351 89.3037 107.626C89.2402 107.902 89.2085 108.196 89.2085 108.509ZM99.4536 110.381V105.132H100.99V112H99.5425L99.4536 110.381ZM99.6694 108.953L100.184 108.94C100.184 109.402 100.133 109.827 100.031 110.216C99.9297 110.601 99.7731 110.938 99.5615 111.226C99.3499 111.509 99.0791 111.731 98.749 111.892C98.4189 112.049 98.0233 112.127 97.562 112.127C97.2277 112.127 96.9209 112.078 96.6416 111.981C96.3623 111.884 96.1211 111.733 95.918 111.53C95.7191 111.327 95.5646 111.063 95.4546 110.737C95.3446 110.411 95.2896 110.022 95.2896 109.569V105.132H96.8193V109.582C96.8193 109.831 96.849 110.041 96.9082 110.21C96.9674 110.375 97.0479 110.508 97.1494 110.61C97.251 110.711 97.3695 110.783 97.5049 110.826C97.6403 110.868 97.7842 110.889 97.9365 110.889C98.3724 110.889 98.7152 110.805 98.9648 110.635C99.2188 110.462 99.3986 110.229 99.5044 109.937C99.6144 109.645 99.6694 109.317 99.6694 108.953ZM104.195 102.25V112H102.659V102.25H104.195ZM109.743 110.623V107.347C109.743 107.102 109.699 106.89 109.61 106.712C109.521 106.535 109.386 106.397 109.204 106.3C109.026 106.202 108.802 106.154 108.531 106.154C108.281 106.154 108.065 106.196 107.883 106.281C107.701 106.365 107.56 106.48 107.458 106.624C107.356 106.767 107.306 106.93 107.306 107.112H105.782C105.782 106.841 105.848 106.579 105.979 106.325C106.11 106.071 106.301 105.845 106.55 105.646C106.8 105.447 107.098 105.291 107.445 105.176C107.792 105.062 108.182 105.005 108.613 105.005C109.13 105.005 109.587 105.092 109.984 105.265C110.386 105.439 110.702 105.701 110.93 106.052C111.163 106.399 111.279 106.835 111.279 107.36V110.413C111.279 110.726 111.3 111.008 111.343 111.257C111.389 111.503 111.455 111.716 111.54 111.898V112H109.972C109.9 111.835 109.843 111.625 109.8 111.372C109.762 111.113 109.743 110.864 109.743 110.623ZM109.965 107.823L109.978 108.769H108.88C108.596 108.769 108.347 108.797 108.131 108.852C107.915 108.902 107.735 108.979 107.591 109.08C107.447 109.182 107.34 109.304 107.268 109.448C107.196 109.592 107.16 109.755 107.16 109.937C107.16 110.119 107.202 110.286 107.287 110.438C107.371 110.587 107.494 110.703 107.655 110.788C107.82 110.872 108.019 110.915 108.251 110.915C108.565 110.915 108.838 110.851 109.07 110.724C109.307 110.593 109.493 110.434 109.629 110.248C109.764 110.058 109.836 109.878 109.845 109.708L110.34 110.388C110.289 110.561 110.202 110.747 110.08 110.946C109.957 111.145 109.796 111.336 109.597 111.518C109.403 111.695 109.168 111.841 108.893 111.956C108.622 112.07 108.309 112.127 107.953 112.127C107.505 112.127 107.105 112.038 106.753 111.86C106.402 111.678 106.127 111.435 105.928 111.13C105.729 110.821 105.63 110.472 105.63 110.083C105.63 109.719 105.698 109.397 105.833 109.118C105.973 108.835 106.176 108.598 106.442 108.407C106.713 108.217 107.043 108.073 107.433 107.976C107.822 107.874 108.266 107.823 108.766 107.823H109.965ZM114.415 106.439V112H112.885V105.132H114.345L114.415 106.439ZM116.516 105.087L116.503 106.509C116.41 106.492 116.309 106.48 116.199 106.471C116.093 106.463 115.987 106.458 115.881 106.458C115.619 106.458 115.388 106.497 115.189 106.573C114.991 106.645 114.823 106.75 114.688 106.89C114.557 107.026 114.455 107.191 114.383 107.385C114.311 107.58 114.269 107.798 114.256 108.039L113.907 108.064C113.907 107.633 113.95 107.233 114.034 106.865C114.119 106.497 114.246 106.173 114.415 105.894C114.589 105.614 114.804 105.396 115.062 105.24C115.325 105.083 115.627 105.005 115.97 105.005C116.063 105.005 116.163 105.013 116.269 105.03C116.379 105.047 116.461 105.066 116.516 105.087Z" fill="#286EF1"/>
<path d="M56.5 92C56.5 90.067 58.067 88.5 60 88.5H132.5V127.5H60C58.067 127.5 56.5 125.933 56.5 124V92Z" stroke="#D5E3FD"/>
<path d="M132.5 88.5H211.5V127.5H132.5V88.5Z" fill="white"/>
<path d="M149.587 102.758H151.009L153.681 109.886L156.347 102.758H157.769L154.24 112H153.11L149.587 102.758ZM148.939 102.758H150.292L150.526 108.928V112H148.939V102.758ZM157.064 102.758H158.423V112H156.83V108.928L157.064 102.758ZM163.19 112.127C162.682 112.127 162.223 112.044 161.812 111.879C161.406 111.71 161.059 111.475 160.771 111.175C160.488 110.874 160.27 110.521 160.118 110.115C159.965 109.708 159.889 109.271 159.889 108.801V108.547C159.889 108.009 159.967 107.523 160.124 107.087C160.281 106.651 160.499 106.279 160.778 105.97C161.057 105.657 161.387 105.417 161.768 105.252C162.149 105.087 162.562 105.005 163.006 105.005C163.497 105.005 163.926 105.087 164.294 105.252C164.663 105.417 164.967 105.65 165.208 105.951C165.454 106.247 165.636 106.6 165.754 107.011C165.877 107.421 165.938 107.874 165.938 108.369V109.023H160.632V107.925H164.428V107.804C164.419 107.529 164.364 107.271 164.263 107.03C164.165 106.789 164.015 106.594 163.812 106.446C163.609 106.298 163.338 106.224 163 106.224C162.746 106.224 162.519 106.279 162.32 106.389C162.126 106.494 161.963 106.649 161.832 106.852C161.7 107.055 161.599 107.301 161.527 107.588C161.459 107.872 161.425 108.191 161.425 108.547V108.801C161.425 109.101 161.465 109.381 161.546 109.639C161.631 109.893 161.753 110.115 161.914 110.305C162.075 110.496 162.27 110.646 162.498 110.756C162.727 110.862 162.987 110.915 163.279 110.915C163.647 110.915 163.975 110.84 164.263 110.692C164.55 110.544 164.8 110.335 165.012 110.064L165.818 110.845C165.67 111.061 165.477 111.268 165.24 111.467C165.003 111.661 164.713 111.82 164.371 111.943C164.032 112.066 163.639 112.127 163.19 112.127ZM171.321 110.578V102.25H172.857V112H171.467L171.321 110.578ZM166.853 108.642V108.509C166.853 107.988 166.914 107.514 167.037 107.087C167.159 106.655 167.337 106.285 167.57 105.976C167.803 105.663 168.086 105.424 168.42 105.259C168.755 105.09 169.131 105.005 169.55 105.005C169.965 105.005 170.329 105.085 170.642 105.246C170.955 105.407 171.222 105.638 171.442 105.938C171.662 106.234 171.838 106.59 171.969 107.004C172.1 107.415 172.193 107.872 172.248 108.375V108.801C172.193 109.292 172.1 109.74 171.969 110.146C171.838 110.553 171.662 110.904 171.442 111.2C171.222 111.496 170.953 111.725 170.636 111.886C170.323 112.047 169.957 112.127 169.538 112.127C169.123 112.127 168.748 112.04 168.414 111.867C168.084 111.693 167.803 111.45 167.57 111.137C167.337 110.824 167.159 110.455 167.037 110.032C166.914 109.605 166.853 109.141 166.853 108.642ZM168.382 108.509V108.642C168.382 108.955 168.41 109.247 168.465 109.518C168.524 109.789 168.615 110.028 168.738 110.235C168.861 110.438 169.019 110.599 169.214 110.718C169.413 110.832 169.65 110.889 169.925 110.889C170.272 110.889 170.557 110.813 170.782 110.661C171.006 110.508 171.182 110.303 171.309 110.045C171.44 109.783 171.529 109.491 171.575 109.169V108.02C171.55 107.77 171.497 107.538 171.417 107.322C171.34 107.106 171.237 106.918 171.105 106.757C170.974 106.592 170.811 106.465 170.617 106.376C170.426 106.283 170.2 106.236 169.938 106.236C169.658 106.236 169.421 106.296 169.227 106.414C169.032 106.533 168.871 106.695 168.744 106.903C168.621 107.11 168.53 107.351 168.471 107.626C168.412 107.902 168.382 108.196 168.382 108.509ZM176.095 105.132V112H174.559V105.132H176.095ZM174.457 103.329C174.457 103.096 174.533 102.904 174.686 102.751C174.842 102.595 175.058 102.517 175.333 102.517C175.604 102.517 175.818 102.595 175.974 102.751C176.131 102.904 176.209 103.096 176.209 103.329C176.209 103.558 176.131 103.748 175.974 103.9C175.818 104.053 175.604 104.129 175.333 104.129C175.058 104.129 174.842 104.053 174.686 103.9C174.533 103.748 174.457 103.558 174.457 103.329ZM181.903 110.381V105.132H183.439V112H181.992L181.903 110.381ZM182.119 108.953L182.633 108.94C182.633 109.402 182.582 109.827 182.48 110.216C182.379 110.601 182.222 110.938 182.011 111.226C181.799 111.509 181.528 111.731 181.198 111.892C180.868 112.049 180.472 112.127 180.011 112.127C179.677 112.127 179.37 112.078 179.091 111.981C178.812 111.884 178.57 111.733 178.367 111.53C178.168 111.327 178.014 111.063 177.904 110.737C177.794 110.411 177.739 110.022 177.739 109.569V105.132H179.269V109.582C179.269 109.831 179.298 110.041 179.357 110.21C179.417 110.375 179.497 110.508 179.599 110.61C179.7 110.711 179.819 110.783 179.954 110.826C180.09 110.868 180.233 110.889 180.386 110.889C180.822 110.889 181.164 110.805 181.414 110.635C181.668 110.462 181.848 110.229 181.954 109.937C182.064 109.645 182.119 109.317 182.119 108.953ZM186.537 106.528V112H185.007V105.132H186.448L186.537 106.528ZM186.289 108.312L185.769 108.306C185.769 107.832 185.828 107.394 185.946 106.992C186.065 106.59 186.238 106.241 186.467 105.944C186.695 105.644 186.979 105.413 187.317 105.252C187.66 105.087 188.056 105.005 188.504 105.005C188.818 105.005 189.103 105.051 189.361 105.145C189.624 105.233 189.85 105.375 190.041 105.57C190.235 105.764 190.383 106.014 190.485 106.319C190.591 106.624 190.644 106.992 190.644 107.423V112H189.114V107.557C189.114 107.222 189.063 106.96 188.961 106.77C188.864 106.579 188.722 106.444 188.536 106.363C188.354 106.279 188.136 106.236 187.882 106.236C187.595 106.236 187.349 106.291 187.146 106.401C186.947 106.511 186.784 106.662 186.657 106.852C186.53 107.042 186.437 107.263 186.378 107.512C186.319 107.762 186.289 108.028 186.289 108.312ZM190.548 107.906L189.831 108.064C189.831 107.65 189.888 107.258 190.002 106.89C190.121 106.518 190.292 106.192 190.517 105.913C190.745 105.629 191.027 105.407 191.361 105.246C191.695 105.085 192.078 105.005 192.51 105.005C192.861 105.005 193.174 105.054 193.449 105.151C193.729 105.244 193.965 105.392 194.16 105.595C194.355 105.798 194.503 106.063 194.604 106.389C194.706 106.71 194.757 107.1 194.757 107.557V112H193.221V107.55C193.221 107.203 193.17 106.935 193.068 106.744C192.971 106.554 192.831 106.423 192.649 106.351C192.467 106.274 192.25 106.236 191.996 106.236C191.759 106.236 191.549 106.281 191.367 106.37C191.189 106.454 191.039 106.575 190.917 106.731C190.794 106.884 190.701 107.059 190.637 107.258C190.578 107.457 190.548 107.673 190.548 107.906Z" fill="#505050"/>
<path d="M132.5 88.5H211.5V127.5H132.5V88.5Z" stroke="#E6E6E6"/>
<path d="M211.5 88.5H266C267.933 88.5 269.5 90.067 269.5 92V124C269.5 125.933 267.933 127.5 266 127.5H211.5V88.5Z" fill="white"/>
<path d="M231.405 107.823H229.05L229.038 106.662H231.094C231.441 106.662 231.735 106.611 231.977 106.509C232.222 106.403 232.408 106.253 232.535 106.059C232.662 105.86 232.726 105.621 232.726 105.341C232.726 105.032 232.666 104.781 232.548 104.586C232.429 104.391 232.247 104.25 232.002 104.161C231.761 104.072 231.452 104.027 231.075 104.027H229.533V112H227.939V102.758H231.075C231.583 102.758 232.036 102.806 232.434 102.904C232.836 103.001 233.176 103.153 233.456 103.361C233.739 103.564 233.953 103.822 234.097 104.135C234.245 104.448 234.319 104.821 234.319 105.252C234.319 105.633 234.228 105.982 234.046 106.3C233.864 106.613 233.595 106.869 233.24 107.068C232.884 107.267 232.442 107.385 231.913 107.423L231.405 107.823ZM231.335 112H228.549L229.266 110.737H231.335C231.695 110.737 231.996 110.678 232.237 110.559C232.478 110.436 232.658 110.269 232.776 110.058C232.899 109.842 232.96 109.59 232.96 109.302C232.96 109.002 232.908 108.742 232.802 108.521C232.696 108.297 232.529 108.126 232.3 108.007C232.072 107.885 231.773 107.823 231.405 107.823H229.615L229.628 106.662H231.958L232.319 107.1C232.827 107.117 233.244 107.229 233.57 107.436C233.9 107.643 234.145 107.912 234.306 108.242C234.467 108.572 234.547 108.928 234.547 109.309C234.547 109.897 234.418 110.39 234.16 110.788C233.906 111.185 233.54 111.488 233.062 111.695C232.584 111.898 232.008 112 231.335 112ZM235.709 108.642V108.496C235.709 108.001 235.781 107.542 235.925 107.119C236.069 106.691 236.276 106.321 236.547 106.008C236.822 105.69 237.156 105.445 237.55 105.271C237.948 105.094 238.396 105.005 238.896 105.005C239.399 105.005 239.848 105.094 240.241 105.271C240.639 105.445 240.975 105.69 241.25 106.008C241.526 106.321 241.735 106.691 241.879 107.119C242.023 107.542 242.095 108.001 242.095 108.496V108.642C242.095 109.137 242.023 109.596 241.879 110.02C241.735 110.443 241.526 110.813 241.25 111.13C240.975 111.444 240.641 111.689 240.248 111.867C239.854 112.04 239.408 112.127 238.908 112.127C238.405 112.127 237.954 112.04 237.556 111.867C237.163 111.689 236.828 111.444 236.553 111.13C236.278 110.813 236.069 110.443 235.925 110.02C235.781 109.596 235.709 109.137 235.709 108.642ZM237.239 108.496V108.642C237.239 108.951 237.271 109.243 237.334 109.518C237.397 109.793 237.497 110.034 237.632 110.242C237.768 110.449 237.941 110.612 238.153 110.73C238.364 110.849 238.616 110.908 238.908 110.908C239.192 110.908 239.437 110.849 239.645 110.73C239.856 110.612 240.03 110.449 240.165 110.242C240.3 110.034 240.4 109.793 240.463 109.518C240.531 109.243 240.565 108.951 240.565 108.642V108.496C240.565 108.191 240.531 107.904 240.463 107.633C240.4 107.358 240.298 107.114 240.159 106.903C240.023 106.691 239.85 106.526 239.638 106.408C239.431 106.285 239.183 106.224 238.896 106.224C238.608 106.224 238.358 106.285 238.146 106.408C237.939 106.526 237.768 106.691 237.632 106.903C237.497 107.114 237.397 107.358 237.334 107.633C237.271 107.904 237.239 108.191 237.239 108.496ZM245.015 102.25V112H243.479V102.25H245.015ZM250.88 110.578V102.25H252.416V112H251.026L250.88 110.578ZM246.411 108.642V108.509C246.411 107.988 246.472 107.514 246.595 107.087C246.718 106.655 246.896 106.285 247.128 105.976C247.361 105.663 247.645 105.424 247.979 105.259C248.313 105.09 248.69 105.005 249.109 105.005C249.524 105.005 249.888 105.085 250.201 105.246C250.514 105.407 250.78 105.638 251 105.938C251.221 106.234 251.396 106.59 251.527 107.004C251.659 107.415 251.752 107.872 251.807 108.375V108.801C251.752 109.292 251.659 109.74 251.527 110.146C251.396 110.553 251.221 110.904 251 111.2C250.78 111.496 250.512 111.725 250.194 111.886C249.881 112.047 249.515 112.127 249.096 112.127C248.681 112.127 248.307 112.04 247.973 111.867C247.643 111.693 247.361 111.45 247.128 111.137C246.896 110.824 246.718 110.455 246.595 110.032C246.472 109.605 246.411 109.141 246.411 108.642ZM247.941 108.509V108.642C247.941 108.955 247.968 109.247 248.023 109.518C248.083 109.789 248.174 110.028 248.296 110.235C248.419 110.438 248.578 110.599 248.772 110.718C248.971 110.832 249.208 110.889 249.483 110.889C249.83 110.889 250.116 110.813 250.34 110.661C250.565 110.508 250.74 110.303 250.867 110.045C250.998 109.783 251.087 109.491 251.134 109.169V108.02C251.108 107.77 251.056 107.538 250.975 107.322C250.899 107.106 250.795 106.918 250.664 106.757C250.533 106.592 250.37 106.465 250.175 106.376C249.985 106.283 249.758 106.236 249.496 106.236C249.217 106.236 248.98 106.296 248.785 106.414C248.59 106.533 248.43 106.695 248.303 106.903C248.18 107.11 248.089 107.351 248.03 107.626C247.971 107.902 247.941 108.196 247.941 108.509Z" fill="#505050"/>
<path d="M211.5 88.5H266C267.933 88.5 269.5 90.067 269.5 92V124C269.5 125.933 267.933 127.5 266 127.5H211.5V88.5Z" stroke="#E6E6E6"/>
<line x1="16" y1="167.5" x2="781" y2="167.5" stroke="#EDEDED"/>
<path d="M59.0669 68H57.3965L57.4072 66.9312H59.0669C59.5503 66.9312 59.9549 66.8255 60.2808 66.6143C60.6102 66.403 60.8573 66.1004 61.022 65.7065C61.1903 65.3127 61.2744 64.8436 61.2744 64.2993V63.875C61.2744 63.4525 61.2261 63.0783 61.1294 62.7524C61.0363 62.4266 60.8966 62.1527 60.7104 61.9307C60.5278 61.7087 60.3022 61.5404 60.0337 61.4258C59.7687 61.3112 59.4626 61.2539 59.1152 61.2539H57.3643V60.1797H59.1152C59.6344 60.1797 60.1089 60.2674 60.5386 60.4429C60.9683 60.6147 61.3389 60.8636 61.6504 61.1895C61.9655 61.5153 62.2072 61.9056 62.3755 62.3604C62.5438 62.8151 62.6279 63.3236 62.6279 63.8857V64.2993C62.6279 64.8615 62.5438 65.37 62.3755 65.8247C62.2072 66.2795 61.9655 66.6698 61.6504 66.9956C61.3353 67.3179 60.9593 67.5667 60.5225 67.7422C60.0892 67.9141 59.604 68 59.0669 68ZM58.1431 60.1797V68H56.7949V60.1797H58.1431ZM69.3001 66.9312V68H65.1482V66.9312H69.3001ZM65.5296 60.1797V68H64.1814V60.1797H65.5296ZM68.7576 63.4453V64.498H65.1482V63.4453H68.7576ZM69.2732 60.1797V61.2539H65.1482V60.1797H69.2732ZM71.9493 60.1797V68H70.6012V60.1797H71.9493ZM75.1397 63.6011V64.6699H71.6056V63.6011H75.1397ZM75.5855 60.1797V61.2539H71.6056V60.1797H75.5855ZM78.9491 61.2217L76.6127 68H75.2001L78.1435 60.1797H79.0458L78.9491 61.2217ZM80.9042 68L78.5624 61.2217L78.4604 60.1797H79.3681L82.3222 68H80.9042ZM80.7914 65.0996V66.1685H76.5375V65.0996H80.7914ZM87.6892 60.1797H89.0319V65.4058C89.0319 66.0002 88.903 66.4979 88.6452 66.8989C88.3874 67.3 88.0365 67.6025 87.5925 67.8066C87.1521 68.0072 86.6597 68.1074 86.1154 68.1074C85.5533 68.1074 85.052 68.0072 84.6115 67.8066C84.1711 67.6025 83.8238 67.3 83.5695 66.8989C83.3189 66.4979 83.1936 66.0002 83.1936 65.4058V60.1797H84.5363V65.4058C84.5363 65.7817 84.6008 66.0915 84.7297 66.335C84.8586 66.5749 85.0412 66.7521 85.2775 66.8667C85.5139 66.9813 85.7932 67.0386 86.1154 67.0386C86.4377 67.0386 86.7152 66.9813 86.9479 66.8667C87.1843 66.7521 87.3669 66.5749 87.4958 66.335C87.6247 66.0915 87.6892 65.7817 87.6892 65.4058V60.1797ZM95.5967 66.9312V68H91.6704V66.9312H95.5967ZM92.0464 60.1797V68H90.6982V60.1797H92.0464ZM98.7132 60.1797V68H97.3758V60.1797H98.7132ZM101.168 60.1797V61.2539H94.9427V60.1797H101.168ZM107.041 66.2437L108.599 60.1797H109.415L109.324 61.7427L107.659 68H106.81L107.041 66.2437ZM105.875 60.1797L107.138 66.1953L107.25 68H106.348L104.538 60.1797H105.875ZM111.182 66.1792L112.428 60.1797H113.771L111.961 68H111.058L111.182 66.1792ZM109.732 60.1797L111.273 66.2598L111.499 68H110.65L109.012 61.7427L108.926 60.1797H109.732ZM116.409 60.1797V68H115.061V60.1797H116.409ZM120.557 68H118.887L118.897 66.9312H120.557C121.041 66.9312 121.445 66.8255 121.771 66.6143C122.1 66.403 122.347 66.1004 122.512 65.7065C122.681 65.3127 122.765 64.8436 122.765 64.2993V63.875C122.765 63.4525 122.716 63.0783 122.62 62.7524C122.527 62.4266 122.387 62.1527 122.201 61.9307C122.018 61.7087 121.792 61.5404 121.524 61.4258C121.259 61.3112 120.953 61.2539 120.605 61.2539H118.854V60.1797H120.605C121.125 60.1797 121.599 60.2674 122.029 60.4429C122.458 60.6147 122.829 60.8636 123.141 61.1895C123.456 61.5153 123.697 61.9056 123.866 62.3604C124.034 62.8151 124.118 63.3236 124.118 63.8857V64.2993C124.118 64.8615 124.034 65.37 123.866 65.8247C123.697 66.2795 123.456 66.6698 123.141 66.9956C122.826 67.3179 122.45 67.5667 122.013 67.7422C121.579 67.9141 121.094 68 120.557 68ZM119.633 60.1797V68H118.285V60.1797H119.633ZM128.62 60.1797V68H127.283V60.1797H128.62ZM131.075 60.1797V61.2539H124.85V60.1797H131.075ZM137.473 63.4453V64.5142H133.321V63.4453H137.473ZM133.654 60.1797V68H132.306V60.1797H133.654ZM138.51 60.1797V68H137.167V60.1797H138.51Z" fill="#AAAAAA"/>
<path d="M58.1431 188.18V196H56.7949V188.18H58.1431ZM61.3335 191.601V192.67H57.7993V191.601H61.3335ZM61.7793 188.18V189.254H57.7993V188.18H61.7793ZM67.4417 188.18H68.7845V193.406C68.7845 194 68.6556 194.498 68.3978 194.899C68.1399 195.3 67.789 195.603 67.345 195.807C66.9046 196.007 66.4122 196.107 65.868 196.107C65.3058 196.107 64.8045 196.007 64.3641 195.807C63.9236 195.603 63.5763 195.3 63.3221 194.899C63.0714 194.498 62.9461 194 62.9461 193.406V188.18H64.2889V193.406C64.2889 193.782 64.3533 194.091 64.4822 194.335C64.6111 194.575 64.7937 194.752 65.0301 194.867C65.2664 194.981 65.5457 195.039 65.868 195.039C66.1902 195.039 66.4677 194.981 66.7005 194.867C66.9368 194.752 67.1194 194.575 67.2483 194.335C67.3772 194.091 67.4417 193.782 67.4417 193.406V188.18ZM75.3492 194.931V196H71.4229V194.931H75.3492ZM71.7989 188.18V196H70.4508V188.18H71.7989ZM81.4896 194.931V196H77.5634V194.931H81.4896ZM77.9394 188.18V196H76.5912V188.18H77.9394ZM87.6313 194.244L89.189 188.18H90.0054L89.9141 189.743L88.249 196H87.4004L87.6313 194.244ZM86.4658 188.18L87.728 194.195L87.8408 196H86.9385L85.1284 188.18H86.4658ZM91.7725 194.179L93.0186 188.18H94.3613L92.5513 196H91.6489L91.7725 194.179ZM90.3223 188.18L91.8638 194.26L92.0894 196H91.2407L89.6025 189.743L89.5166 188.18H90.3223ZM96.9998 188.18V196H95.6517V188.18H96.9998ZM101.148 196H99.4771L99.4879 194.931H101.148C101.631 194.931 102.036 194.826 102.361 194.614C102.691 194.403 102.938 194.1 103.103 193.707C103.271 193.313 103.355 192.844 103.355 192.299V191.875C103.355 191.452 103.307 191.078 103.21 190.752C103.117 190.427 102.977 190.153 102.791 189.931C102.608 189.709 102.383 189.54 102.114 189.426C101.849 189.311 101.543 189.254 101.196 189.254H99.4449V188.18H101.196C101.715 188.18 102.19 188.267 102.619 188.443C103.049 188.615 103.42 188.864 103.731 189.189C104.046 189.515 104.288 189.906 104.456 190.36C104.624 190.815 104.709 191.324 104.709 191.886V192.299C104.709 192.861 104.624 193.37 104.456 193.825C104.288 194.279 104.046 194.67 103.731 194.996C103.416 195.318 103.04 195.567 102.603 195.742C102.17 195.914 101.685 196 101.148 196ZM100.224 188.18V196H98.8756V188.18H100.224ZM109.211 188.18V196H107.873V188.18H109.211ZM111.665 188.18V189.254H105.44V188.18H111.665ZM118.064 191.445V192.514H113.912V191.445H118.064ZM114.245 188.18V196H112.897V188.18H114.245ZM119.1 188.18V196H117.758V188.18H119.1Z" fill="#AAAAAA"/>
<rect width="800" height="312" rx="4" stroke="#F8F8F8" stroke-width="32" mask="url(#path-1-inside-1_3755_53129)"/>
</svg>
