<svg width="18" height="20" viewBox="0 0 18 20" fill="none" xmlns="http://www.w3.org/2000/svg">
<path d="M0 3.88889C0 1.74111 1.65918 0 3.70588 0C5.75258 0 7.41176 1.74111 7.41176 3.88889V6.11111C7.41176 6.72476 6.93771 7.22222 6.35294 7.22222C5.76817 7.22222 5.29412 6.72476 5.29412 6.11111V3.88889C5.29412 2.96841 4.58304 2.22222 3.70588 2.22222C2.82872 2.22222 2.11765 2.96841 2.11765 3.88889V16.1111C2.11765 17.0316 2.82872 17.7778 3.70588 17.7778C4.58304 17.7778 5.29412 17.0316 5.29412 16.1111V14.4444C5.29412 13.8308 5.76817 13.3333 6.35294 13.3333C6.93771 13.3333 7.41176 13.8308 7.41176 14.4444V16.1111C7.41176 18.2589 5.75258 20 3.70588 20C1.65918 20 0 18.2589 0 16.1111V3.88889Z" fill="#1A1A1A"/>
<path d="M18 3.88889C18 1.74111 16.3408 0 14.2941 0C12.2474 0 10.5882 1.74111 10.5882 3.88889V6.11111C10.5882 6.72476 11.0623 7.22222 11.6471 7.22222C12.2318 7.22222 12.7059 6.72476 12.7059 6.11111V3.88889C12.7059 2.96841 13.417 2.22222 14.2941 2.22222C15.1713 2.22222 15.8824 2.96841 15.8824 3.88889V16.1111C15.8824 17.0316 15.1713 17.7778 14.2941 17.7778C13.417 17.7778 12.7059 17.0316 12.7059 16.1111V14.4444C12.7059 11.3762 10.3356 8.88889 7.41176 8.88889H5.29412C4.70935 8.88889 4.23529 9.38635 4.23529 10C4.23529 10.6137 4.70935 11.1111 5.29412 11.1111H7.41176C9.16608 11.1111 10.5882 12.6035 10.5882 14.4444V16.1111C10.5882 18.2589 12.2474 20 14.2941 20C16.3408 20 18 18.2589 18 16.1111V3.88889Z" fill="#1A1A1A"/>
</svg>
