<svg width="20" height="20" viewBox="0 0 20 20" fill="none" xmlns="http://www.w3.org/2000/svg">
<path d="M7.00151 0H13.0008V2.72727H16.0005C17.1003 2.72727 18.0002 3.54545 18.0002 4.54545V8.74545L19.2801 9.12727C19.5401 9.2 19.76 9.36364 19.88 9.58182C20 9.8 20.02 10.0545 19.94 10.2909L18.0502 16.3636H18.0002C16.4004 16.3636 14.9806 15.5636 14.0007 14.5455C13.0208 15.5636 11.601 16.3636 10.0012 16.3636C8.40135 16.3636 6.98152 15.5636 6.00163 14.5455C5.02174 15.5636 3.60191 16.3636 2.0021 16.3636H1.9521L0.0523239 10.2909C-0.0376656 10.0545 -0.00766911 9.8 0.112317 9.58182C0.232303 9.36364 0.452277 9.2 0.712247 9.12727L2.0021 8.74545V4.54545C2.0021 3.54545 2.90199 2.72727 4.00186 2.72727H7.00151V0ZM11.001 1.81818H9.00128V2.72727H11.001V1.81818ZM10.0012 8.28182L4.62179 9.87273L2.22207 10.5909L3.35194 14.1909C3.89188 13.9182 4.29183 13.5545 4.49181 13.3455L6.00163 11.7818L7.51146 13.3455C7.85142 13.7091 8.79131 14.5455 10.0012 14.5455C11.211 14.5455 12.1509 13.7091 12.4909 13.3455L14.0007 11.7818L15.5105 13.3545C15.7105 13.5636 16.1105 13.9364 16.6504 14.2091L17.7703 10.6L15.3805 9.89091L10.0012 8.28182ZM4.00186 8.15455L10.0012 6.36364L16.0005 8.15455V4.54545H4.00186V8.15455ZM10.0012 18.1455C11.391 18.1455 12.7808 17.7545 14.0007 16.9818C15.2206 17.7545 16.6104 18.1818 18.0002 18.1818H20V20H18.0002C16.6204 20 15.2606 19.6909 14.0007 19.1C12.7408 19.6909 11.371 19.9818 10.0012 19.9818C8.63132 19.9818 7.26148 19.6818 6.00163 19.1C4.74178 19.6818 3.38194 20 2.0021 20H0.00233051V18.1818H2.0021C3.39194 18.1818 4.78177 17.7545 6.00163 16.9818C7.22149 17.7545 8.61133 18.1455 10.0012 18.1455Z" fill="#1A1A1A"/>
</svg>
