<svg width="20" height="18" viewBox="0 0 20 18" fill="none" xmlns="http://www.w3.org/2000/svg">
<path d="M19.5143 16.307C19.8367 15.7454 20.0047 15.1017 19.9999 14.4467V0.0453531H17.411V14.4491C17.4113 14.5613 17.3895 14.6723 17.3469 14.7752C17.3043 14.8781 17.2419 14.9707 17.1635 15.0472C16.9814 15.2123 16.7485 15.3032 16.5076 15.3032C16.2666 15.3032 16.0337 15.2123 15.8516 15.0472C15.7739 14.9703 15.712 14.8776 15.6699 14.7747C15.6277 14.6718 15.6061 14.561 15.6065 14.4491V3.60479C15.6185 3.13466 15.5381 2.66694 15.3703 2.23062C15.2024 1.7943 14.9507 1.39868 14.6307 1.06827C14.1538 0.560502 13.5427 0.213415 12.8758 0.0715894C12.2089 -0.0702365 11.5167 -0.000324991 10.8881 0.272342C10.2595 0.545008 9.72315 1.00798 9.34803 1.60179C8.9729 2.1956 8.77609 2.89313 8.78287 3.60479V14.4491C8.7847 14.5602 8.76495 14.6704 8.72482 14.7732C8.6847 14.876 8.62503 14.9693 8.54943 15.0472C8.46228 15.1341 8.35924 15.2015 8.24651 15.2456C8.13377 15.2896 8.01367 15.3094 7.89345 15.3036C7.77314 15.3102 7.65281 15.2909 7.53995 15.2468C7.4271 15.2027 7.32413 15.1348 7.23747 15.0472C7.15911 14.9707 7.0967 14.8781 7.05412 14.7752C7.01154 14.6723 6.98972 14.5613 6.99002 14.4491V3.60479C7.00197 3.13489 6.92176 2.6674 6.75434 2.23116C6.58691 1.79491 6.33582 1.39915 6.01655 1.06827C5.69659 0.732217 5.31431 0.468126 4.89319 0.292219C4.47207 0.116313 4.02101 0.0323041 3.56771 0.0453531C2.63615 0.0338686 1.7366 0.400533 1.05818 1.06827C0.717123 1.38604 0.445978 1.77735 0.263417 2.21524C0.0808566 2.65313 -0.008782 3.1272 0.000677961 3.60479V17.9964H2.59192V3.60479C2.59009 3.49376 2.60984 3.3835 2.64997 3.28069C2.69009 3.17787 2.74976 3.08465 2.82536 3.00667C3.00745 2.8416 3.24036 2.75072 3.48134 2.75072C3.72233 2.75072 3.95523 2.8416 4.13732 3.00667C4.21535 3.08349 4.27754 3.17617 4.32009 3.27902C4.36264 3.38187 4.38465 3.49273 4.38477 3.60479V14.4491C4.3731 14.919 4.45343 15.3864 4.62084 15.8226C4.78824 16.2588 5.03919 16.6546 5.35824 16.9857C5.67779 17.3182 6.05855 17.5795 6.47747 17.7536C6.89639 17.9278 7.34475 18.0112 7.7954 17.9988C8.72862 18.0139 9.63126 17.6509 10.3143 16.9857C10.655 16.6675 10.9261 16.2762 11.109 15.8384C11.2919 15.4007 11.3823 14.9268 11.3741 14.4491V3.60479C11.3957 3.39392 11.4911 3.19885 11.6419 3.0571C11.7927 2.91535 11.9884 2.83692 12.1912 2.83692C12.394 2.83692 12.5896 2.91535 12.7404 3.0571C12.8913 3.19885 12.9866 3.39392 13.0082 3.60479V14.4491C13.0028 15.1045 13.1717 15.7486 13.4961 16.3094C13.802 16.8545 14.253 17.2948 14.7941 17.5765C15.3237 17.8542 15.9081 17.9988 16.5006 17.9988C17.0931 17.9988 17.6774 17.8542 18.207 17.5765C18.7521 17.296 19.2066 16.8547 19.5143 16.307Z" fill="#1A1A1A"/>
</svg>
