<svg width="20" height="20" viewBox="0 0 20 20" fill="none" xmlns="http://www.w3.org/2000/svg">
<path d="M20 10C20 11.8069 19.5327 13.4891 18.5981 15.0467C17.7259 16.5421 16.5109 17.757 14.9533 18.6916C13.4579 19.5639 11.8069 20 10 20C8.19315 20 6.5109 19.5639 4.95327 18.6916C3.45794 17.757 2.24299 16.5421 1.30841 15.0467C0.436137 13.4891 0 11.8069 0 10C0 8.19315 0.436137 6.54206 1.30841 5.04673C2.24299 3.4891 3.45794 2.27414 4.95327 1.40187C6.5109 0.46729 8.19315 0 10 0C11.8069 0 13.4579 0.46729 14.9533 1.40187C16.5109 2.27414 17.7259 3.4891 18.5981 5.04673C19.5327 6.54206 20 8.19315 20 10ZM17.9439 10C17.9439 8.50467 17.5389 7.13396 16.729 5.88785C15.9813 4.57944 14.9221 3.58255 13.5514 2.8972C12.243 2.21184 10.8411 1.93146 9.34579 2.05607C7.85047 2.18069 6.47975 2.67913 5.23364 3.5514L17.9439 10.9346V10ZM10 17.9439C11.6199 17.9439 13.1153 17.5078 14.486 16.6355C15.8567 15.7009 16.8536 14.4548 17.4766 12.8972L14.6729 11.3084L5.51402 16.5421C6.82243 17.4766 8.31776 17.9439 10 17.9439ZM3.92523 15.1402L7.00935 13.3645V6.91589L3.73832 5.04673C2.61682 6.47975 2.05607 8.13084 2.05607 10C2.05607 10.9346 2.21184 11.8692 2.52336 12.8037C2.83489 13.676 3.30218 14.4548 3.92523 15.1402ZM8.97196 12.243L12.7103 10.1869L8.97196 8.03738V12.243Z" fill="#1A1A1A"/>
</svg>
