<svg width="20" height="20" viewBox="0 0 20 20" fill="none" xmlns="http://www.w3.org/2000/svg">
<path d="M14.0241 20C13.5104 20 12.9967 19.9302 12.483 19.7905L11.525 19.5251C10.9974 19.3855 10.678 18.8408 10.8169 18.2961C10.9557 17.7654 11.4972 17.4441 12.0387 17.5838L12.9967 17.8492C15.1071 18.4218 17.3008 17.1508 17.8701 15C18.1477 13.9665 18.0089 12.8771 17.4813 11.9553C16.9537 11.0335 16.0929 10.3631 15.0654 10.0838L12.7051 9.49721C12.1775 9.35754 11.8443 8.82682 11.9831 8.28212C12.122 7.7514 12.6496 7.4162 13.1911 7.55587L15.5653 8.15643C17.1203 8.57542 18.4115 9.56704 19.2029 10.9637C19.9943 12.3603 20.2026 13.9804 19.8 15.5307C19.078 18.2263 16.6621 20 14.0241 20Z" fill="#1A1A1A"/>
<path d="M5.98515 20C3.34714 20 0.931284 18.2263 0.209304 15.5307C-0.207224 13.9804 0.0010401 12.3603 0.806326 10.9637C1.59773 9.56704 2.88896 8.57542 4.43011 8.15642L6.79043 7.4581C7.31803 7.30447 7.8734 7.59776 8.02613 8.12849C8.17886 8.65922 7.88729 9.21788 7.35969 9.37151L4.9716 10.0838C3.9164 10.3631 3.06946 11.0335 2.52797 11.9553C2.00037 12.8771 1.86153 13.9665 2.13921 15C2.70847 17.1369 4.90218 18.4218 7.01258 17.8492L7.97059 17.5838C8.49819 17.4441 9.03968 17.7514 9.19241 18.2961C9.33125 18.8268 9.0258 19.3715 8.48431 19.5251L7.5263 19.7905C6.9987 19.9302 6.48498 20 5.98515 20Z" fill="#1A1A1A"/>
<path d="M4.06912 14.4972C3.93028 13.9665 4.23573 13.4218 4.77722 13.2682L7.44299 12.5419C7.97059 12.4022 8.51208 12.7095 8.6648 13.2542C8.80364 13.7849 8.49819 14.3296 7.95671 14.4832L5.29093 15.2095C4.74945 15.3492 4.20796 15.0279 4.06912 14.4972Z" fill="#1A1A1A"/>
<path d="M14.7183 15.1955L12.0526 14.4693C11.525 14.3296 11.2056 13.7849 11.3445 13.2402C11.4833 12.7095 12.0248 12.3883 12.5663 12.5279L15.2321 13.2542C15.7597 13.3938 16.079 13.9385 15.9402 14.4832C15.8013 15.0279 15.2459 15.3492 14.7183 15.1955Z" fill="#1A1A1A"/>
<path d="M9.9977 4.77654C9.44234 4.77654 8.99804 4.32961 8.99804 3.77095V1.00559C8.99804 0.446927 9.44234 0 9.9977 0C10.5531 0 10.9974 0.446927 10.9974 1.00559V3.78492C10.9974 4.32961 10.5531 4.77654 9.9977 4.77654Z" fill="#1A1A1A"/>
<path d="M13.6493 5.81006C13.1772 5.53073 13.0106 4.9162 13.2883 4.44134L14.6767 2.03911C14.9544 1.56425 15.5653 1.39665 16.0374 1.67598C16.5094 1.95531 16.676 2.56983 16.3983 3.04469L14.996 5.44693C14.7322 5.92179 14.1213 6.08939 13.6493 5.81006Z" fill="#1A1A1A"/>
<path d="M5.0549 5.44693L3.66647 3.04469C3.38879 2.56983 3.5554 1.95531 4.02746 1.67598C4.49953 1.39665 5.11043 1.56425 5.38812 2.03911L6.77654 4.44134C7.05423 4.9162 6.88762 5.53073 6.41555 5.81006C5.94349 6.08939 5.33258 5.92179 5.0549 5.44693Z" fill="#1A1A1A"/>
</svg>
