<svg width="20" height="20" viewBox="0 0 20 20" fill="none" xmlns="http://www.w3.org/2000/svg">
<path d="M5.55296 18.8672C4.36752 18.2869 3.30955 17.4735 2.44157 16.4749C1.57358 15.4764 0.913135 14.3129 0.499206 13.0532C0.0852777 11.7935 -0.0737487 10.4631 0.0315219 9.14053C0.136792 7.81796 0.504221 6.53001 1.11212 5.35271C1.72003 4.17541 2.5561 3.13259 3.57096 2.28586C4.58582 1.43912 5.7589 0.805635 7.02101 0.422714C8.28311 0.0397928 9.60863 -0.084783 10.9193 0.0563791C12.23 0.197541 13.4994 0.601543 14.6524 1.24457L13.7445 3.00288C11.9797 2.08244 9.93487 1.86586 8.01836 2.39639C6.10185 2.92692 4.45466 4.1655 3.40567 5.86486C2.35667 7.56423 1.98302 9.59932 2.3594 11.5638C2.73578 13.5283 3.83444 15.2776 5.43603 16.4624C7.03763 17.6473 9.02432 18.1805 10.9994 17.9557C12.9745 17.7308 14.7926 16.7644 16.0908 15.2494C17.389 13.7345 18.0718 11.7823 18.0027 9.78286C17.9381 7.91144 17.2193 6.12743 15.98 4.74182V6.52002H14.98V2.52002H18.98V3.52002H17.554C18.964 5.1398 19.8166 7.18206 19.9736 9.34086C20.1455 11.7036 19.4727 14.0504 18.0768 15.9579C16.6808 17.8653 14.6535 19.2078 12.3606 19.7431C10.0678 20.2784 7.66033 19.9713 5.57265 18.8771L5.55296 18.8672Z" fill="#1A1A1A"/>
<path d="M14.08 6.78003L13.0279 8.2867L10.26 3.92004L8.57001 5.00004L9.53726 6.52002H4.98999V8.52002H6.76L4.25 12.11L5.89 13.25L9.2 8.52002H10.81L11.7898 10.0597L10.77 11.52H9.15997L8.18 9.98004L6.94 11.75L9.71 16.12L11.4 15.04L10.4327 13.52H14.98V11.52H13.21L15.72 7.93003L14.08 6.78003Z" fill="#1A1A1A"/>
</svg>
