<svg width="20" height="20" viewBox="0 0 20 20" fill="none" xmlns="http://www.w3.org/2000/svg">
<path fill-rule="evenodd" clip-rule="evenodd" d="M10 2C11.5823 2 13.129 2.46921 14.4446 3.34826C15.7601 4.22731 16.7855 5.47672 17.391 6.93853C17.9965 8.40034 18.155 10.0089 17.8463 11.5607C17.762 11.9845 17.6439 12.3988 17.494 12.8C17.498 12.7002 17.5 12.6002 17.5 12.5C17.5 10.5109 16.7098 8.60324 15.3033 7.19672C13.8968 5.7902 11.9891 5.00001 10 5.00001C8.51664 5.00001 7.06659 5.43987 5.83323 6.26398C4.59986 7.08809 3.63856 8.25944 3.0709 9.62989C2.65354 10.6375 2.46275 11.7195 2.506 12.8C2.1731 11.909 2.00001 10.961 2.00001 9.99999C2.00001 7.87826 2.84286 5.84343 4.34315 4.34314C5.84344 2.84285 7.87827 2 10 2ZM13.8268 19.2388C12.6157 19.7405 11.3239 19.9966 10.0256 20H10.0152C10.005 20 9.99483 20 9.98464 20H9.97449C9.33106 19.9983 8.68626 19.9346 8.04911 19.8078C6.1093 19.422 4.32746 18.4696 2.92893 17.0711C1.53041 15.6726 0.578002 13.8907 0.192151 11.9509C-0.193701 10.0111 0.00433517 8.00041 0.761211 6.17315C1.51809 4.34589 2.79982 2.78411 4.44431 1.6853C6.0888 0.586488 8.02219 0 10 0C12.6522 0 15.1957 1.05359 17.0711 2.92895C18.9464 4.80432 20 7.34783 20 9.99999C20 11.9778 19.4135 13.9112 18.3147 15.5557C17.2159 17.2002 15.6541 18.4819 13.8268 19.2388ZM10.0139 18H9.98611C9.59872 17.9982 9.21338 17.9214 8.85196 17.7717C8.30378 17.5446 7.83523 17.1601 7.50559 16.6667C7.17594 16.1734 7 15.5933 7 15C7 14.2043 7.31606 13.4413 7.87866 12.8787C8.44127 12.3161 9.20435 12 10 12C10.5933 12 11.1734 12.176 11.6667 12.5056C12.1601 12.8353 12.5446 13.3038 12.7716 13.852C12.9987 14.4002 13.0581 15.0033 12.9424 15.5853C12.8266 16.1672 12.5409 16.7018 12.1213 17.1213C11.7017 17.5409 11.1672 17.8266 10.5853 17.9424C10.3962 17.98 10.2049 17.9991 10.0139 18ZM14.996 14.8C14.9459 13.5466 14.426 12.3549 13.5355 11.4645C12.5978 10.5268 11.3261 10 10 10C9.01109 10 8.04439 10.2932 7.22214 10.8427C6.3999 11.3921 5.75903 12.173 5.38059 13.0866C5.15387 13.6339 5.02745 14.2142 5.004 14.8C4.67336 14.0818 4.50001 13.2975 4.50001 12.5C4.50265 11.0421 5.08296 9.64471 6.11384 8.61383C7.14471 7.58296 8.54212 7.00265 10 7.00001C11.0878 7.00001 12.1512 7.3226 13.0556 7.92695C13.9601 8.53129 14.665 9.39027 15.0813 10.3953C15.4976 11.4003 15.6065 12.5061 15.3943 13.573C15.3097 13.9984 15.1755 14.41 14.996 14.8Z" fill="#1A1A1A"/>
</svg>
