<svg width="18" height="20" viewBox="0 0 18 20" fill="none" xmlns="http://www.w3.org/2000/svg">
<path fill-rule="evenodd" clip-rule="evenodd" d="M11.6634 1.79874H15.6111C16.1121 1.79874 16.5925 1.99053 16.9468 2.33187C17.301 2.67321 17.5 3.13614 17.5 3.61887V18.1799C17.5 18.6626 17.301 19.1255 16.9468 19.4669C16.5925 19.8082 16.1121 20 15.6111 20H2.38889C1.88792 20 1.4075 19.8082 1.05327 19.4669C0.699038 19.1255 0.5 18.6626 0.5 18.1799V3.61887C0.5 3.13614 0.699038 2.67321 1.05327 2.33187C1.4075 1.99053 1.88792 1.79874 2.38889 1.79874H6.33666C6.53518 1.27168 6.89729 0.816284 7.3738 0.494469C7.8503 0.172654 8.41811 0 9 0C9.58193 0 10.1497 0.172654 10.6262 0.494469C11.1027 0.816284 11.4648 1.27168 11.6634 1.79874ZM9.52466 1.9521C9.36932 1.8521 9.18679 1.79874 9 1.79874C8.74952 1.79874 8.50931 1.89464 8.33219 2.0653C8.15507 2.23597 8.05555 2.46744 8.05555 2.7088C8.05555 2.8888 8.11093 3.06472 8.21471 3.21438C8.31849 3.36404 8.466 3.48072 8.63857 3.5496C8.81114 3.61848 9.00106 3.63648 9.18424 3.60137C9.36741 3.56625 9.53571 3.47958 9.66778 3.3523C9.79985 3.22503 9.88984 3.06286 9.92629 2.88633C9.96273 2.70979 9.94403 2.52682 9.87253 2.36053C9.80113 2.19424 9.68 2.0521 9.52466 1.9521ZM2.38889 3.61887V18.1799H15.6111V3.61887H12.7778V5.43899H5.22222V3.61887H2.38889ZM5.2222 10.8987H12.7777C13.0283 10.8987 13.2685 10.9946 13.4456 11.1653C13.6227 11.3359 13.7222 11.5674 13.7222 11.8087C13.7222 12.0501 13.6227 12.2816 13.4456 12.4522C13.2685 12.6229 13.0283 12.7188 12.7777 12.7188H5.2222C4.97171 12.7188 4.7315 12.6229 4.55439 12.4522C4.37727 12.2816 4.27775 12.0501 4.27775 11.8087C4.27775 11.5674 4.37727 11.3359 4.55439 11.1653C4.7315 10.9946 4.97171 10.8987 5.2222 10.8987ZM12.7777 8.16849H5.2222C4.97171 8.16849 4.7315 8.26438 4.55439 8.43505C4.37727 8.60572 4.27775 8.83719 4.27775 9.07855C4.27775 9.31992 4.37727 9.55138 4.55439 9.72205C4.7315 9.89272 4.97171 9.98862 5.2222 9.98862H12.7777C13.0283 9.98862 13.2685 9.89272 13.4456 9.72205C13.6227 9.55138 13.7222 9.31992 13.7222 9.07855C13.7222 8.83719 13.6227 8.60572 13.4456 8.43505C13.2685 8.26438 13.0283 8.16849 12.7777 8.16849ZM9 13.6289H12.7778C13.0283 13.6289 13.2685 13.7248 13.4456 13.8954C13.6227 14.0661 13.7222 14.2976 13.7222 14.5389C13.7222 14.7803 13.6227 15.0118 13.4456 15.1824C13.2685 15.3531 13.0283 15.449 12.7778 15.449H9C8.74952 15.449 8.50931 15.3531 8.3322 15.1824C8.15508 15.0118 8.05555 14.7803 8.05555 14.5389C8.05555 14.2976 8.15508 14.0661 8.3322 13.8954C8.50931 13.7248 8.74952 13.6289 9 13.6289Z" fill="#1A1A1A"/>
</svg>
