<svg width="20" height="20" viewBox="0 0 20 20" fill="none" xmlns="http://www.w3.org/2000/svg">
<path fill-rule="evenodd" clip-rule="evenodd" d="M14.4446 3.34827C13.129 2.46922 11.5823 2 10 2C7.87827 2 5.84343 2.84285 4.34314 4.34314C2.84285 5.84343 2 7.87827 2 10C2 11.0501 2.20668 12.0846 2.60267 13.0462L10.6489 5H8.99999V4H12H13V8H12V6.3359L3.57263 14.7633C4.1858 15.5907 4.9514 16.2898 5.82541 16.8244L10.6499 12H8.99997V11H12H13V15H12V13.3369L7.68051 17.6564C8.9348 18.0364 10.2675 18.1035 11.5607 17.8463C13.1126 17.5376 14.538 16.7757 15.6569 15.6569C16.7757 14.538 17.5376 13.1126 17.8463 11.5607C18.1549 10.0089 17.9966 8.40035 17.3911 6.93854C16.7856 5.47673 15.7602 4.22732 14.4446 3.34827ZM4.44428 1.6853C6.08877 0.586489 8.02219 0 10 0C12.6522 0 15.1957 1.05359 17.071 2.92895C18.9464 4.80432 20 7.34783 20 10C20 11.9778 19.4135 13.9112 18.3147 15.5557C17.2159 17.2002 15.6541 18.4819 13.8268 19.2388C11.9996 19.9956 9.98888 20.1937 8.04908 19.8079C6.10927 19.422 4.32748 18.4696 2.92896 17.071C1.53043 15.6725 0.577995 13.8907 0.192143 11.9509C-0.193709 10.0111 0.00435805 8.00042 0.761235 6.17316C1.51811 4.3459 2.79979 2.78412 4.44428 1.6853Z" fill="#1A1A1A"/>
</svg>
