<svg width="832" height="400" viewBox="0 0 832 400" fill="none" xmlns="http://www.w3.org/2000/svg">
<rect x="0.5" y="0.5" width="831" height="399" rx="15.5" fill="white"/>
<rect x="153" y="204" width="24" height="24" rx="12" fill="#0059FF"/>
<path d="M166.181 210.726V220H164.651V212.542L162.385 213.31V212.046L165.997 210.726H166.181Z" fill="white"/>
<line x1="177" y1="215.5" x2="217" y2="215.5" stroke="#0059FF"/>
<rect x="216.5" y="144.5" width="399" height="111" rx="7.5" fill="#F8F8F8"/>
<path d="M234.653 175.793H233.6L237.459 165.758H238.506L234.653 175.793ZM242.461 175.793H241.407L245.267 165.758H246.314L242.461 175.793ZM262.513 172.22C262.458 172.647 262.348 173.041 262.183 173.4C262.018 173.756 261.804 174.061 261.542 174.314C261.275 174.573 260.96 174.774 260.596 174.917C260.236 175.057 259.834 175.127 259.39 175.127C259.009 175.127 258.662 175.074 258.349 174.968C258.04 174.858 257.765 174.708 257.524 174.518C257.278 174.327 257.067 174.103 256.889 173.845C256.716 173.587 256.572 173.305 256.458 173C256.339 172.696 256.25 172.376 256.191 172.042C256.136 171.708 256.106 171.369 256.102 171.026V169.738C256.106 169.395 256.136 169.056 256.191 168.722C256.25 168.388 256.339 168.068 256.458 167.764C256.572 167.459 256.716 167.178 256.889 166.919C257.067 166.657 257.278 166.431 257.524 166.24C257.765 166.05 258.04 165.902 258.349 165.796C258.658 165.686 259.005 165.631 259.39 165.631C259.851 165.631 260.264 165.703 260.628 165.847C260.992 165.986 261.305 166.185 261.567 166.443C261.83 166.706 262.039 167.019 262.196 167.383C262.357 167.747 262.462 168.149 262.513 168.589H261.339C261.301 168.31 261.235 168.049 261.142 167.808C261.049 167.567 260.924 167.355 260.768 167.173C260.611 166.991 260.418 166.85 260.19 166.748C259.966 166.642 259.699 166.589 259.39 166.589C259.111 166.589 258.863 166.636 258.647 166.729C258.436 166.818 258.254 166.941 258.102 167.097C257.945 167.254 257.814 167.436 257.708 167.643C257.606 167.85 257.524 168.07 257.46 168.303C257.397 168.536 257.35 168.775 257.321 169.021C257.295 169.262 257.283 169.497 257.283 169.725V171.026C257.283 171.255 257.295 171.492 257.321 171.737C257.35 171.979 257.397 172.215 257.46 172.448C257.524 172.685 257.606 172.907 257.708 173.115C257.81 173.322 257.939 173.504 258.095 173.661C258.252 173.821 258.436 173.948 258.647 174.042C258.859 174.13 259.107 174.175 259.39 174.175C259.699 174.175 259.966 174.126 260.19 174.029C260.418 173.931 260.611 173.794 260.768 173.616C260.924 173.443 261.049 173.237 261.142 173C261.235 172.759 261.301 172.499 261.339 172.22H262.513ZM264.005 171.502C264.005 171.007 264.077 170.548 264.221 170.125C264.365 169.698 264.572 169.327 264.843 169.014C265.109 168.701 265.435 168.456 265.82 168.278C266.205 168.096 266.639 168.005 267.122 168.005C267.608 168.005 268.044 168.096 268.429 168.278C268.819 168.456 269.149 168.701 269.419 169.014C269.686 169.327 269.891 169.698 270.035 170.125C270.179 170.548 270.251 171.007 270.251 171.502V171.642C270.251 172.137 270.179 172.596 270.035 173.02C269.891 173.443 269.686 173.811 269.419 174.124C269.149 174.437 268.821 174.683 268.436 174.86C268.05 175.038 267.617 175.127 267.134 175.127C266.648 175.127 266.21 175.038 265.82 174.86C265.435 174.683 265.109 174.437 264.843 174.124C264.572 173.811 264.365 173.443 264.221 173.02C264.077 172.596 264.005 172.137 264.005 171.642V171.502ZM265.179 171.642C265.179 171.981 265.219 172.304 265.3 172.613C265.38 172.918 265.503 173.187 265.668 173.419C265.829 173.652 266.032 173.836 266.277 173.972C266.523 174.107 266.808 174.175 267.134 174.175C267.456 174.175 267.737 174.107 267.979 173.972C268.224 173.836 268.429 173.652 268.594 173.419C268.755 173.187 268.876 172.918 268.956 172.613C269.036 172.304 269.077 171.981 269.077 171.642V171.502C269.077 171.168 269.034 170.849 268.95 170.544C268.869 170.235 268.749 169.964 268.588 169.731C268.423 169.499 268.218 169.315 267.972 169.179C267.731 169.04 267.447 168.97 267.122 168.97C266.796 168.97 266.512 169.04 266.271 169.179C266.03 169.315 265.829 169.499 265.668 169.731C265.503 169.964 265.38 170.235 265.3 170.544C265.219 170.849 265.179 171.168 265.179 171.502V171.642ZM271.92 171.509C271.92 170.997 271.984 170.527 272.111 170.1C272.242 169.668 272.428 169.298 272.669 168.989C272.906 168.68 273.194 168.439 273.533 168.265C273.871 168.092 274.25 168.005 274.669 168.005C275.079 168.005 275.437 168.075 275.742 168.214C276.051 168.35 276.317 168.549 276.542 168.811V165.25H277.716V175H276.637L276.586 174.276C276.357 174.556 276.084 174.767 275.767 174.911C275.45 175.055 275.079 175.127 274.656 175.127C274.242 175.127 273.865 175.038 273.526 174.86C273.192 174.683 272.906 174.437 272.669 174.124C272.432 173.811 272.248 173.443 272.117 173.02C271.986 172.592 271.92 172.133 271.92 171.642V171.509ZM273.095 171.642C273.095 171.976 273.131 172.294 273.203 172.594C273.275 172.895 273.387 173.159 273.539 173.388C273.687 173.616 273.878 173.798 274.11 173.934C274.343 174.065 274.622 174.13 274.948 174.13C275.342 174.13 275.668 174.042 275.926 173.864C276.184 173.686 276.389 173.447 276.542 173.146V169.96C276.389 169.681 276.184 169.452 275.926 169.274C275.668 169.092 275.346 169.001 274.961 169.001C274.631 169.001 274.347 169.069 274.11 169.205C273.878 169.34 273.687 169.522 273.539 169.75C273.387 169.983 273.275 170.252 273.203 170.557C273.131 170.857 273.095 171.174 273.095 171.509V171.642ZM282.984 175.127C282.502 175.127 282.058 175.044 281.651 174.879C281.249 174.714 280.904 174.484 280.617 174.188C280.329 173.891 280.105 173.54 279.944 173.134C279.783 172.728 279.703 172.285 279.703 171.807V171.541C279.703 170.986 279.792 170.491 279.969 170.055C280.147 169.615 280.384 169.243 280.68 168.938C280.972 168.638 281.304 168.407 281.677 168.246C282.053 168.085 282.438 168.005 282.832 168.005C283.327 168.005 283.759 168.092 284.127 168.265C284.499 168.434 284.808 168.669 285.054 168.97C285.299 169.274 285.481 169.632 285.6 170.042C285.722 170.453 285.784 170.897 285.784 171.375V171.902H280.877V171.947C280.907 172.281 280.972 172.575 281.074 172.829C281.18 173.083 281.323 173.307 281.505 173.502C281.692 173.709 281.916 173.872 282.178 173.991C282.441 174.109 282.73 174.168 283.048 174.168C283.467 174.168 283.839 174.084 284.165 173.915C284.491 173.745 284.762 173.521 284.978 173.242L285.695 173.8C285.466 174.147 285.124 174.456 284.667 174.727C284.214 174.994 283.653 175.127 282.984 175.127ZM282.832 168.97C282.595 168.97 282.371 169.014 282.159 169.103C281.948 169.188 281.757 169.312 281.588 169.478C281.419 169.647 281.275 169.854 281.156 170.1C281.042 170.341 280.962 170.62 280.915 170.938H284.609V170.88C284.609 170.669 284.569 170.442 284.489 170.201C284.408 169.956 284.296 169.744 284.152 169.566C284.008 169.389 283.826 169.245 283.606 169.135C283.391 169.025 283.132 168.97 282.832 168.97ZM300.402 172.664C300.402 172.381 300.337 172.141 300.206 171.947C300.079 171.752 299.914 171.587 299.71 171.452C299.507 171.32 299.283 171.21 299.038 171.122C298.796 171.033 298.564 170.952 298.339 170.88C298.014 170.775 297.681 170.648 297.343 170.5C297.008 170.347 296.704 170.165 296.429 169.954C296.149 169.738 295.921 169.484 295.743 169.192C295.57 168.896 295.483 168.549 295.483 168.151C295.483 167.753 295.57 167.398 295.743 167.084C295.921 166.771 296.152 166.507 296.435 166.291C296.719 166.075 297.04 165.912 297.4 165.802C297.76 165.688 298.121 165.631 298.485 165.631C298.887 165.631 299.275 165.699 299.647 165.834C300.019 165.965 300.349 166.151 300.637 166.393C300.925 166.634 301.156 166.926 301.329 167.269C301.503 167.611 301.594 167.994 301.602 168.417H300.396C300.362 168.151 300.297 167.91 300.199 167.694C300.102 167.474 299.973 167.285 299.812 167.129C299.651 166.972 299.459 166.852 299.234 166.767C299.014 166.678 298.765 166.634 298.485 166.634C298.261 166.634 298.041 166.666 297.825 166.729C297.614 166.792 297.425 166.888 297.26 167.015C297.091 167.142 296.956 167.298 296.854 167.484C296.757 167.671 296.708 167.886 296.708 168.132C296.712 168.398 296.78 168.625 296.911 168.811C297.042 168.993 297.209 169.147 297.413 169.274C297.611 169.401 297.827 169.507 298.06 169.592C298.297 169.676 298.519 169.75 298.727 169.814C299.069 169.92 299.412 170.049 299.755 170.201C300.098 170.349 300.411 170.54 300.694 170.772C300.974 170.988 301.198 171.253 301.367 171.566C301.541 171.879 301.627 172.241 301.627 172.651C301.627 173.066 301.534 173.428 301.348 173.737C301.166 174.046 300.929 174.302 300.637 174.505C300.345 174.712 300.015 174.869 299.647 174.975C299.279 175.076 298.911 175.127 298.542 175.127C298.102 175.127 297.669 175.053 297.241 174.905C296.818 174.757 296.45 174.543 296.137 174.264C295.857 174.022 295.635 173.741 295.47 173.419C295.309 173.094 295.223 172.732 295.21 172.334H296.41C296.448 172.622 296.526 172.878 296.645 173.102C296.763 173.322 296.915 173.508 297.102 173.661C297.288 173.817 297.501 173.936 297.743 174.016C297.988 174.092 298.255 174.13 298.542 174.13C298.771 174.13 298.995 174.103 299.215 174.048C299.44 173.989 299.639 173.898 299.812 173.775C299.986 173.656 300.127 173.506 300.237 173.324C300.347 173.138 300.402 172.918 300.402 172.664ZM306.153 166.469V168.132H308.769V169.04H306.153V172.772C306.153 173.039 306.187 173.259 306.255 173.432C306.323 173.606 306.416 173.743 306.534 173.845C306.653 173.951 306.788 174.025 306.94 174.067C307.097 174.109 307.262 174.13 307.436 174.13C307.562 174.13 307.694 174.124 307.829 174.111C307.965 174.094 308.098 174.075 308.229 174.054C308.356 174.033 308.474 174.012 308.584 173.991C308.699 173.965 308.792 173.944 308.864 173.927L309.029 174.759C308.931 174.818 308.813 174.871 308.673 174.917C308.534 174.96 308.381 174.996 308.216 175.025C308.051 175.059 307.876 175.085 307.689 175.102C307.507 175.118 307.326 175.127 307.144 175.127C306.839 175.127 306.553 175.085 306.287 175C306.024 174.911 305.796 174.771 305.601 174.581C305.406 174.395 305.252 174.154 305.138 173.857C305.028 173.557 304.973 173.195 304.973 172.772V169.04H303.17V168.132H304.973V166.469H306.153ZM315.694 175C315.647 174.911 315.609 174.801 315.58 174.67C315.554 174.535 315.535 174.395 315.522 174.251C315.404 174.369 315.271 174.482 315.123 174.587C314.979 174.693 314.82 174.786 314.646 174.867C314.469 174.947 314.28 175.011 314.082 175.057C313.883 175.104 313.671 175.127 313.447 175.127C313.083 175.127 312.753 175.074 312.457 174.968C312.165 174.862 311.917 174.719 311.714 174.537C311.507 174.359 311.346 174.147 311.231 173.902C311.121 173.652 311.066 173.383 311.066 173.096C311.066 172.719 311.14 172.389 311.289 172.105C311.441 171.822 311.655 171.585 311.93 171.395C312.205 171.208 312.535 171.069 312.92 170.976C313.309 170.882 313.743 170.836 314.221 170.836H315.503V170.296C315.503 170.089 315.465 169.903 315.389 169.738C315.313 169.573 315.205 169.431 315.065 169.312C314.926 169.198 314.754 169.109 314.551 169.046C314.352 168.982 314.128 168.951 313.878 168.951C313.646 168.951 313.436 168.98 313.25 169.04C313.068 169.099 312.914 169.177 312.787 169.274C312.66 169.372 312.56 169.488 312.488 169.624C312.421 169.755 312.387 169.892 312.387 170.036H311.206C311.21 169.786 311.274 169.541 311.396 169.3C311.523 169.059 311.705 168.841 311.942 168.646C312.175 168.456 312.459 168.301 312.793 168.183C313.132 168.064 313.514 168.005 313.942 168.005C314.331 168.005 314.693 168.054 315.027 168.151C315.362 168.244 315.652 168.386 315.897 168.576C316.138 168.771 316.329 169.012 316.468 169.3C316.608 169.588 316.678 169.924 316.678 170.309V173.502C316.678 173.73 316.699 173.974 316.741 174.232C316.784 174.486 316.843 174.708 316.919 174.898V175H315.694ZM313.618 174.105C313.847 174.105 314.06 174.075 314.259 174.016C314.458 173.957 314.64 173.879 314.805 173.781C314.966 173.684 315.106 173.574 315.224 173.451C315.343 173.324 315.436 173.193 315.503 173.058V171.667H314.412C314.005 171.667 313.65 171.703 313.345 171.775C313.045 171.843 312.806 171.949 312.628 172.093C312.501 172.194 312.404 172.315 312.336 172.455C312.272 172.594 312.241 172.753 312.241 172.931C312.241 173.1 312.268 173.257 312.323 173.4C312.382 173.544 312.469 173.667 312.583 173.769C312.698 173.874 312.842 173.957 313.015 174.016C313.189 174.075 313.39 174.105 313.618 174.105ZM323.489 168.005C323.705 168.005 323.929 168.02 324.162 168.049C324.399 168.079 324.576 168.119 324.695 168.17L324.536 169.319C324.308 169.268 324.09 169.232 323.882 169.211C323.679 169.186 323.465 169.173 323.241 169.173C322.953 169.173 322.693 169.209 322.46 169.281C322.228 169.348 322.025 169.45 321.851 169.585C321.694 169.704 321.557 169.85 321.438 170.023C321.324 170.193 321.229 170.383 321.153 170.595V175H319.972V168.132H321.089L321.14 169.052L321.146 169.224C321.426 168.847 321.76 168.551 322.149 168.335C322.543 168.115 322.989 168.005 323.489 168.005ZM329.576 166.469V168.132H332.191V169.04H329.576V172.772C329.576 173.039 329.61 173.259 329.678 173.432C329.745 173.606 329.839 173.743 329.957 173.845C330.076 173.951 330.211 174.025 330.363 174.067C330.52 174.109 330.685 174.13 330.858 174.13C330.985 174.13 331.117 174.124 331.252 174.111C331.387 174.094 331.521 174.075 331.652 174.054C331.779 174.033 331.897 174.012 332.007 173.991C332.122 173.965 332.215 173.944 332.287 173.927L332.452 174.759C332.354 174.818 332.236 174.871 332.096 174.917C331.957 174.96 331.804 174.996 331.639 175.025C331.474 175.059 331.299 175.085 331.112 175.102C330.93 175.118 330.748 175.127 330.566 175.127C330.262 175.127 329.976 175.085 329.709 175C329.447 174.911 329.219 174.771 329.024 174.581C328.829 174.395 328.675 174.154 328.561 173.857C328.451 173.557 328.396 173.195 328.396 172.772V169.04H326.593V168.132H328.396V166.469H329.576ZM339.167 173.178C339.167 173.039 339.14 172.914 339.085 172.804C339.03 172.689 338.937 172.586 338.806 172.493C338.674 172.4 338.501 172.315 338.285 172.239C338.069 172.158 337.801 172.086 337.479 172.023C337.085 171.943 336.726 171.845 336.4 171.731C336.078 171.617 335.803 171.479 335.575 171.318C335.342 171.162 335.162 170.978 335.035 170.766C334.908 170.55 334.845 170.301 334.845 170.017C334.845 169.738 334.91 169.478 335.042 169.236C335.173 168.991 335.357 168.777 335.594 168.595C335.831 168.413 336.112 168.269 336.438 168.164C336.768 168.058 337.13 168.005 337.523 168.005C337.947 168.005 338.327 168.06 338.666 168.17C339.005 168.28 339.292 168.432 339.529 168.627C339.766 168.822 339.948 169.05 340.075 169.312C340.206 169.571 340.272 169.85 340.272 170.15H339.098C339.098 170.002 339.06 169.858 338.983 169.719C338.907 169.575 338.801 169.448 338.666 169.338C338.531 169.228 338.366 169.139 338.171 169.071C337.98 169.004 337.765 168.97 337.523 168.97C337.274 168.97 337.054 168.997 336.863 169.052C336.677 169.107 336.523 169.181 336.4 169.274C336.273 169.368 336.178 169.475 336.114 169.598C336.051 169.721 336.019 169.848 336.019 169.979C336.019 170.114 336.044 170.235 336.095 170.341C336.146 170.447 336.235 170.542 336.362 170.626C336.485 170.711 336.65 170.787 336.857 170.855C337.069 170.923 337.335 170.988 337.657 171.052C338.08 171.141 338.459 171.244 338.793 171.363C339.127 171.477 339.409 171.615 339.637 171.775C339.866 171.94 340.039 172.131 340.158 172.347C340.28 172.562 340.342 172.812 340.342 173.096C340.342 173.4 340.272 173.678 340.132 173.927C339.997 174.177 339.806 174.391 339.561 174.568C339.316 174.746 339.021 174.884 338.679 174.981C338.336 175.078 337.961 175.127 337.555 175.127C337.09 175.127 336.675 175.066 336.311 174.943C335.947 174.816 335.64 174.649 335.391 174.441C335.137 174.238 334.942 174.001 334.807 173.73C334.675 173.46 334.61 173.178 334.61 172.886H335.784C335.801 173.127 335.865 173.331 335.975 173.496C336.089 173.661 336.231 173.794 336.4 173.896C336.565 173.997 336.749 174.069 336.952 174.111C337.155 174.154 337.356 174.175 337.555 174.175C337.868 174.175 338.141 174.139 338.374 174.067C338.607 173.991 338.789 173.887 338.92 173.756C339 173.675 339.062 173.587 339.104 173.489C339.146 173.392 339.167 173.288 339.167 173.178Z" fill="#AAAAAA"/>
<path d="M238.462 193.756L233.079 191.35V190.423L238.462 188.024V189.268L234.577 190.792L234.241 190.899L234.577 191.014L238.462 192.512V193.756ZM404.897 193.75V192.531L409.004 190.982L409.385 190.874L409.004 190.753L404.897 189.23V188.018L410.502 190.417V191.344L404.897 193.75ZM269.692 213.756L264.31 211.35V210.423L269.692 208.024V209.268L265.808 210.792L265.471 210.899L265.808 211.014L269.692 212.512V213.756ZM350.244 213.75V212.531L354.351 210.982L354.732 210.874L354.351 210.753L350.244 209.23V208.018L355.849 210.417V211.344L350.244 213.75ZM367.161 214.003H371.68V215H365.986V205.758H367.161V214.003ZM373.826 208.132H377.336V213.984H379.577V215H373.826V213.984H376.162V209.154H373.826V208.132ZM376.009 206.329C376.009 206.228 376.024 206.132 376.054 206.043C376.088 205.955 376.138 205.878 376.206 205.815C376.261 205.76 376.331 205.718 376.416 205.688C376.504 205.654 376.604 205.637 376.714 205.637C376.824 205.637 376.921 205.654 377.006 205.688C377.09 205.718 377.16 205.76 377.215 205.815C377.283 205.874 377.334 205.948 377.368 206.037C377.402 206.126 377.418 206.223 377.418 206.329C377.418 206.52 377.359 206.678 377.241 206.805C377.122 206.932 376.947 206.996 376.714 206.996C376.477 206.996 376.299 206.932 376.181 206.805C376.066 206.678 376.009 206.52 376.009 206.329ZM381.449 215V208.132H382.503L382.585 209.147C382.687 209.004 382.797 208.872 382.916 208.754C383.038 208.631 383.167 208.525 383.303 208.437C383.506 208.301 383.726 208.197 383.963 208.125C384.204 208.049 384.458 208.009 384.725 208.005C385.084 208.005 385.41 208.056 385.702 208.157C385.998 208.259 386.25 208.417 386.458 208.633C386.665 208.849 386.824 209.124 386.934 209.458C387.048 209.789 387.105 210.182 387.105 210.639V215H385.931V210.665C385.931 210.36 385.897 210.102 385.829 209.89C385.761 209.679 385.662 209.507 385.531 209.376C385.395 209.245 385.23 209.15 385.036 209.09C384.845 209.031 384.625 209.001 384.375 209.001C384.16 209.001 383.959 209.033 383.772 209.097C383.586 209.156 383.415 209.238 383.258 209.344C383.131 209.437 383.013 209.545 382.903 209.668C382.797 209.791 382.704 209.926 382.624 210.074V215H381.449ZM391.313 211.794L390.45 212.626V215H389.27V205.25H390.45V211.217L391.218 210.392L393.472 208.132H394.9L392.12 210.995L395.325 215H393.833L391.313 211.794ZM410.229 213.756L404.847 211.35V210.423L410.229 208.024V209.268L406.345 210.792L406.008 210.899L406.345 211.014L410.229 212.512V213.756ZM414.229 215.793H413.175L417.034 205.758H418.082L414.229 215.793ZM428.32 213.75V212.531L432.427 210.982L432.808 210.874L432.427 210.753L428.32 209.23V208.018L433.925 210.417V211.344L428.32 213.75ZM238.462 233.756L233.079 231.35V230.423L238.462 228.024V229.268L234.577 230.792L234.241 230.899L234.577 231.014L238.462 232.512V233.756ZM242.461 235.793H241.407L245.267 225.758H246.314L242.461 235.793ZM272.168 233.75V232.531L276.275 230.982L276.656 230.874L276.275 230.753L272.168 229.23V228.018L277.773 230.417V231.344L272.168 233.75Z" fill="#333333"/>
<path d="M240.69 191.509C240.69 190.997 240.753 190.527 240.88 190.1C241.012 189.668 241.198 189.298 241.439 188.989C241.676 188.68 241.964 188.439 242.302 188.265C242.641 188.092 243.02 188.005 243.438 188.005C243.849 188.005 244.207 188.075 244.511 188.214C244.82 188.35 245.087 188.549 245.311 188.811V185.25H246.485V195H245.406L245.355 194.276C245.127 194.556 244.854 194.767 244.537 194.911C244.219 195.055 243.849 195.127 243.426 195.127C243.011 195.127 242.634 195.038 242.296 194.86C241.962 194.683 241.676 194.437 241.439 194.124C241.202 193.811 241.018 193.443 240.887 193.02C240.756 192.592 240.69 192.133 240.69 191.642V191.509ZM241.864 191.642C241.864 191.976 241.9 192.294 241.972 192.594C242.044 192.895 242.156 193.159 242.309 193.388C242.457 193.616 242.647 193.798 242.88 193.934C243.113 194.065 243.392 194.13 243.718 194.13C244.111 194.13 244.437 194.042 244.695 193.864C244.953 193.686 245.159 193.447 245.311 193.146V189.96C245.159 189.681 244.953 189.452 244.695 189.274C244.437 189.092 244.116 189.001 243.73 189.001C243.4 189.001 243.117 189.069 242.88 189.205C242.647 189.34 242.457 189.522 242.309 189.75C242.156 189.983 242.044 190.252 241.972 190.557C241.9 190.857 241.864 191.174 241.864 191.509V191.642ZM248.904 188.132H252.414V193.984H254.655V195H248.904V193.984H251.24V189.154H248.904V188.132ZM251.087 186.329C251.087 186.228 251.102 186.132 251.132 186.043C251.166 185.955 251.216 185.878 251.284 185.815C251.339 185.76 251.409 185.718 251.494 185.688C251.583 185.654 251.682 185.637 251.792 185.637C251.902 185.637 251.999 185.654 252.084 185.688C252.169 185.718 252.238 185.76 252.293 185.815C252.361 185.874 252.412 185.948 252.446 186.037C252.48 186.126 252.497 186.223 252.497 186.329C252.497 186.52 252.437 186.678 252.319 186.805C252.2 186.932 252.025 186.996 251.792 186.996C251.555 186.996 251.377 186.932 251.259 186.805C251.145 186.678 251.087 186.52 251.087 186.329ZM258.87 195L256.045 188.132H257.251L259.219 193.312L259.327 193.737L259.441 193.312L261.364 188.132H262.564L259.765 195H258.87ZM276.656 215C276.609 214.911 276.571 214.801 276.542 214.67C276.516 214.535 276.497 214.395 276.484 214.251C276.366 214.369 276.233 214.482 276.084 214.587C275.941 214.693 275.782 214.786 275.608 214.867C275.431 214.947 275.242 215.011 275.043 215.057C274.845 215.104 274.633 215.127 274.409 215.127C274.045 215.127 273.715 215.074 273.418 214.968C273.126 214.862 272.879 214.719 272.676 214.537C272.468 214.359 272.308 214.147 272.193 213.902C272.083 213.652 272.028 213.383 272.028 213.096C272.028 212.719 272.102 212.389 272.25 212.105C272.403 211.822 272.617 211.585 272.892 211.395C273.167 211.208 273.497 211.069 273.882 210.976C274.271 210.882 274.705 210.836 275.183 210.836H276.465V210.296C276.465 210.089 276.427 209.903 276.351 209.738C276.275 209.573 276.167 209.431 276.027 209.312C275.888 209.198 275.716 209.109 275.513 209.046C275.314 208.982 275.09 208.951 274.84 208.951C274.608 208.951 274.398 208.98 274.212 209.04C274.03 209.099 273.875 209.177 273.749 209.274C273.622 209.372 273.522 209.488 273.45 209.624C273.382 209.755 273.349 209.892 273.349 210.036H272.168C272.172 209.786 272.236 209.541 272.358 209.3C272.485 209.059 272.667 208.841 272.904 208.646C273.137 208.456 273.421 208.301 273.755 208.183C274.093 208.064 274.476 208.005 274.904 208.005C275.293 208.005 275.655 208.054 275.989 208.151C276.324 208.244 276.613 208.386 276.859 208.576C277.1 208.771 277.291 209.012 277.43 209.3C277.57 209.588 277.64 209.924 277.64 210.309V213.502C277.64 213.73 277.661 213.974 277.703 214.232C277.745 214.486 277.805 214.708 277.881 214.898V215H276.656ZM274.58 214.105C274.809 214.105 275.022 214.075 275.221 214.016C275.42 213.957 275.602 213.879 275.767 213.781C275.928 213.684 276.068 213.574 276.186 213.451C276.305 213.324 276.398 213.193 276.465 213.058V211.667H275.374C274.967 211.667 274.612 211.703 274.307 211.775C274.007 211.843 273.768 211.949 273.59 212.093C273.463 212.194 273.366 212.315 273.298 212.455C273.234 212.594 273.203 212.753 273.203 212.931C273.203 213.1 273.23 213.257 273.285 213.4C273.344 213.544 273.431 213.667 273.545 213.769C273.66 213.874 273.804 213.957 273.977 214.016C274.151 214.075 274.352 214.105 274.58 214.105ZM425 215C424.954 214.911 424.916 214.801 424.886 214.67C424.861 214.535 424.842 214.395 424.829 214.251C424.711 214.369 424.577 214.482 424.429 214.587C424.285 214.693 424.127 214.786 423.953 214.867C423.775 214.947 423.587 215.011 423.388 215.057C423.189 215.104 422.978 215.127 422.753 215.127C422.389 215.127 422.059 215.074 421.763 214.968C421.471 214.862 421.224 214.719 421.021 214.537C420.813 214.359 420.652 214.147 420.538 213.902C420.428 213.652 420.373 213.383 420.373 213.096C420.373 212.719 420.447 212.389 420.595 212.105C420.748 211.822 420.961 211.585 421.236 211.395C421.511 211.208 421.841 211.069 422.227 210.976C422.616 210.882 423.05 210.836 423.528 210.836H424.81V210.296C424.81 210.089 424.772 209.903 424.696 209.738C424.62 209.573 424.512 209.431 424.372 209.312C424.232 209.198 424.061 209.109 423.858 209.046C423.659 208.982 423.435 208.951 423.185 208.951C422.952 208.951 422.743 208.98 422.557 209.04C422.375 209.099 422.22 209.177 422.093 209.274C421.966 209.372 421.867 209.488 421.795 209.624C421.727 209.755 421.693 209.892 421.693 210.036H420.513C420.517 209.786 420.58 209.541 420.703 209.3C420.83 209.059 421.012 208.841 421.249 208.646C421.482 208.456 421.765 208.301 422.1 208.183C422.438 208.064 422.821 208.005 423.249 208.005C423.638 208.005 424 208.054 424.334 208.151C424.668 208.244 424.958 208.386 425.204 208.576C425.445 208.771 425.635 209.012 425.775 209.3C425.915 209.588 425.984 209.924 425.984 210.309V213.502C425.984 213.73 426.006 213.974 426.048 214.232C426.09 214.486 426.149 214.708 426.226 214.898V215H425ZM422.925 214.105C423.153 214.105 423.367 214.075 423.566 214.016C423.765 213.957 423.947 213.879 424.112 213.781C424.273 213.684 424.412 213.574 424.531 213.451C424.649 213.324 424.742 213.193 424.81 213.058V211.667H423.718C423.312 211.667 422.957 211.703 422.652 211.775C422.351 211.843 422.112 211.949 421.935 212.093C421.808 212.194 421.71 212.315 421.643 212.455C421.579 212.594 421.547 212.753 421.547 212.931C421.547 213.1 421.575 213.257 421.63 213.4C421.689 213.544 421.776 213.667 421.89 213.769C422.004 213.874 422.148 213.957 422.322 214.016C422.495 214.075 422.696 214.105 422.925 214.105ZM248.498 231.509C248.498 230.997 248.561 230.527 248.688 230.1C248.819 229.668 249.005 229.298 249.247 228.989C249.484 228.68 249.771 228.439 250.11 228.265C250.448 228.092 250.827 228.005 251.246 228.005C251.657 228.005 252.014 228.075 252.319 228.214C252.628 228.35 252.894 228.549 253.119 228.811V225.25H254.293V235H253.214L253.163 234.276C252.935 234.556 252.662 234.767 252.344 234.911C252.027 235.055 251.657 235.127 251.233 235.127C250.819 235.127 250.442 235.038 250.104 234.86C249.769 234.683 249.484 234.437 249.247 234.124C249.01 233.811 248.826 233.443 248.694 233.02C248.563 232.592 248.498 232.133 248.498 231.642V231.509ZM249.672 231.642C249.672 231.976 249.708 232.294 249.78 232.594C249.852 232.895 249.964 233.159 250.116 233.388C250.264 233.616 250.455 233.798 250.688 233.934C250.92 234.065 251.2 234.13 251.525 234.13C251.919 234.13 252.245 234.042 252.503 233.864C252.761 233.686 252.966 233.447 253.119 233.146V229.96C252.966 229.681 252.761 229.452 252.503 229.274C252.245 229.092 251.923 229.001 251.538 229.001C251.208 229.001 250.924 229.069 250.688 229.205C250.455 229.34 250.264 229.522 250.116 229.75C249.964 229.983 249.852 230.252 249.78 230.557C249.708 230.857 249.672 231.174 249.672 231.509V231.642ZM256.711 228.132H260.222V233.984H262.462V235H256.711V233.984H259.047V229.154H256.711V228.132ZM258.895 226.329C258.895 226.228 258.91 226.132 258.939 226.043C258.973 225.955 259.024 225.878 259.092 225.815C259.147 225.76 259.217 225.718 259.301 225.688C259.39 225.654 259.49 225.637 259.6 225.637C259.71 225.637 259.807 225.654 259.892 225.688C259.976 225.718 260.046 225.76 260.101 225.815C260.169 225.874 260.22 225.948 260.253 226.037C260.287 226.126 260.304 226.223 260.304 226.329C260.304 226.52 260.245 226.678 260.126 226.805C260.008 226.932 259.832 226.996 259.6 226.996C259.363 226.996 259.185 226.932 259.066 226.805C258.952 226.678 258.895 226.52 258.895 226.329ZM266.677 235L263.853 228.132H265.059L267.026 233.312L267.134 233.737L267.249 233.312L269.172 228.132H270.372L267.572 235H266.677Z" fill="#184291"/>
<path d="M275.069 194.175C275.28 194.175 275.486 194.141 275.685 194.073C275.888 194.006 276.068 193.91 276.224 193.788C276.381 193.669 276.506 193.529 276.599 193.369C276.696 193.204 276.747 193.026 276.751 192.835H277.862C277.858 193.14 277.777 193.432 277.621 193.711C277.468 193.986 277.263 194.228 277.005 194.435C276.747 194.647 276.451 194.816 276.116 194.943C275.782 195.066 275.433 195.127 275.069 195.127C274.548 195.127 274.093 195.034 273.704 194.848C273.315 194.661 272.991 194.41 272.733 194.092C272.471 193.779 272.274 193.417 272.143 193.007C272.011 192.592 271.946 192.156 271.946 191.699V191.433C271.946 190.98 272.011 190.546 272.143 190.131C272.274 189.717 272.471 189.351 272.733 189.033C272.991 188.72 273.315 188.47 273.704 188.284C274.093 188.098 274.548 188.005 275.069 188.005C275.475 188.005 275.847 188.07 276.186 188.202C276.529 188.329 276.825 188.502 277.075 188.722C277.32 188.946 277.513 189.211 277.652 189.516C277.792 189.82 277.862 190.146 277.862 190.493H276.751C276.747 190.286 276.7 190.091 276.611 189.909C276.527 189.723 276.41 189.56 276.262 189.42C276.114 189.281 275.936 189.171 275.729 189.09C275.526 189.01 275.306 188.97 275.069 188.97C274.705 188.97 274.398 189.044 274.148 189.192C273.903 189.336 273.704 189.524 273.552 189.757C273.399 189.994 273.289 190.258 273.222 190.55C273.158 190.842 273.126 191.136 273.126 191.433V191.699C273.126 192 273.158 192.298 273.222 192.594C273.289 192.886 273.399 193.149 273.552 193.381C273.7 193.618 273.897 193.811 274.142 193.959C274.392 194.103 274.701 194.175 275.069 194.175ZM280.134 185.25H283.645V193.984H285.885V195H280.134V193.984H282.47V186.272H280.134V185.25ZM292.271 195C292.224 194.911 292.186 194.801 292.157 194.67C292.131 194.535 292.112 194.395 292.1 194.251C291.981 194.369 291.848 194.482 291.7 194.587C291.556 194.693 291.397 194.786 291.224 194.867C291.046 194.947 290.858 195.011 290.659 195.057C290.46 195.104 290.248 195.127 290.024 195.127C289.66 195.127 289.33 195.074 289.034 194.968C288.742 194.862 288.494 194.719 288.291 194.537C288.084 194.359 287.923 194.147 287.809 193.902C287.699 193.652 287.644 193.383 287.644 193.096C287.644 192.719 287.718 192.389 287.866 192.105C288.018 191.822 288.232 191.585 288.507 191.395C288.782 191.208 289.112 191.069 289.497 190.976C289.886 190.882 290.32 190.836 290.798 190.836H292.081V190.296C292.081 190.089 292.042 189.903 291.966 189.738C291.89 189.573 291.782 189.431 291.643 189.312C291.503 189.198 291.332 189.109 291.128 189.046C290.93 188.982 290.705 188.951 290.456 188.951C290.223 188.951 290.013 188.98 289.827 189.04C289.645 189.099 289.491 189.177 289.364 189.274C289.237 189.372 289.137 189.488 289.065 189.624C288.998 189.755 288.964 189.892 288.964 190.036H287.783C287.787 189.786 287.851 189.541 287.974 189.3C288.101 189.059 288.283 188.841 288.52 188.646C288.752 188.456 289.036 188.301 289.37 188.183C289.709 188.064 290.092 188.005 290.519 188.005C290.908 188.005 291.27 188.054 291.604 188.151C291.939 188.244 292.229 188.386 292.474 188.576C292.715 188.771 292.906 189.012 293.045 189.3C293.185 189.588 293.255 189.924 293.255 190.309V193.502C293.255 193.73 293.276 193.974 293.318 194.232C293.361 194.486 293.42 194.708 293.496 194.898V195H292.271ZM290.195 194.105C290.424 194.105 290.638 194.075 290.836 194.016C291.035 193.957 291.217 193.879 291.382 193.781C291.543 193.684 291.683 193.574 291.801 193.451C291.92 193.324 292.013 193.193 292.081 193.058V191.667H290.989C290.583 191.667 290.227 191.703 289.922 191.775C289.622 191.843 289.383 191.949 289.205 192.093C289.078 192.194 288.981 192.315 288.913 192.455C288.85 192.594 288.818 192.753 288.818 192.931C288.818 193.1 288.845 193.257 288.9 193.4C288.96 193.544 289.046 193.667 289.161 193.769C289.275 193.874 289.419 193.957 289.592 194.016C289.766 194.075 289.967 194.105 290.195 194.105ZM300.129 193.178C300.129 193.039 300.102 192.914 300.047 192.804C299.992 192.689 299.899 192.586 299.768 192.493C299.636 192.4 299.463 192.315 299.247 192.239C299.031 192.158 298.763 192.086 298.441 192.023C298.047 191.943 297.688 191.845 297.362 191.731C297.04 191.617 296.765 191.479 296.537 191.318C296.304 191.162 296.124 190.978 295.997 190.766C295.87 190.55 295.807 190.301 295.807 190.017C295.807 189.738 295.872 189.478 296.003 189.236C296.135 188.991 296.319 188.777 296.556 188.595C296.793 188.413 297.074 188.269 297.4 188.164C297.73 188.058 298.092 188.005 298.485 188.005C298.909 188.005 299.289 188.06 299.628 188.17C299.966 188.28 300.254 188.432 300.491 188.627C300.728 188.822 300.91 189.05 301.037 189.312C301.168 189.571 301.234 189.85 301.234 190.15H300.06C300.06 190.002 300.021 189.858 299.945 189.719C299.869 189.575 299.763 189.448 299.628 189.338C299.493 189.228 299.327 189.139 299.133 189.071C298.942 189.004 298.727 188.97 298.485 188.97C298.236 188.97 298.016 188.997 297.825 189.052C297.639 189.107 297.485 189.181 297.362 189.274C297.235 189.368 297.14 189.475 297.076 189.598C297.013 189.721 296.981 189.848 296.981 189.979C296.981 190.114 297.006 190.235 297.057 190.341C297.108 190.447 297.197 190.542 297.324 190.626C297.446 190.711 297.611 190.787 297.819 190.855C298.03 190.923 298.297 190.988 298.619 191.052C299.042 191.141 299.421 191.244 299.755 191.363C300.089 191.477 300.371 191.615 300.599 191.775C300.828 191.94 301.001 192.131 301.12 192.347C301.242 192.562 301.304 192.812 301.304 193.096C301.304 193.4 301.234 193.678 301.094 193.927C300.959 194.177 300.768 194.391 300.523 194.568C300.278 194.746 299.983 194.884 299.641 194.981C299.298 195.078 298.923 195.127 298.517 195.127C298.052 195.127 297.637 195.066 297.273 194.943C296.909 194.816 296.602 194.649 296.353 194.441C296.099 194.238 295.904 194.001 295.769 193.73C295.637 193.46 295.572 193.178 295.572 192.886H296.746C296.763 193.127 296.826 193.331 296.937 193.496C297.051 193.661 297.193 193.794 297.362 193.896C297.527 193.997 297.711 194.069 297.914 194.111C298.117 194.154 298.318 194.175 298.517 194.175C298.83 194.175 299.103 194.139 299.336 194.067C299.569 193.991 299.751 193.887 299.882 193.756C299.962 193.675 300.024 193.587 300.066 193.489C300.108 193.392 300.129 193.288 300.129 193.178ZM307.937 193.178C307.937 193.039 307.91 192.914 307.854 192.804C307.799 192.689 307.706 192.586 307.575 192.493C307.444 192.4 307.271 192.315 307.055 192.239C306.839 192.158 306.57 192.086 306.249 192.023C305.855 191.943 305.495 191.845 305.169 191.731C304.848 191.617 304.573 191.479 304.344 191.318C304.111 191.162 303.932 190.978 303.805 190.766C303.678 190.55 303.614 190.301 303.614 190.017C303.614 189.738 303.68 189.478 303.811 189.236C303.942 188.991 304.126 188.777 304.363 188.595C304.6 188.413 304.882 188.269 305.208 188.164C305.538 188.058 305.899 188.005 306.293 188.005C306.716 188.005 307.097 188.06 307.436 188.17C307.774 188.28 308.062 188.432 308.299 188.627C308.536 188.822 308.718 189.05 308.845 189.312C308.976 189.571 309.042 189.85 309.042 190.15H307.867C307.867 190.002 307.829 189.858 307.753 189.719C307.677 189.575 307.571 189.448 307.436 189.338C307.3 189.228 307.135 189.139 306.94 189.071C306.75 189.004 306.534 188.97 306.293 188.97C306.043 188.97 305.823 188.997 305.633 189.052C305.447 189.107 305.292 189.181 305.169 189.274C305.042 189.368 304.947 189.475 304.884 189.598C304.82 189.721 304.789 189.848 304.789 189.979C304.789 190.114 304.814 190.235 304.865 190.341C304.916 190.447 305.004 190.542 305.131 190.626C305.254 190.711 305.419 190.787 305.626 190.855C305.838 190.923 306.105 190.988 306.426 191.052C306.849 191.141 307.228 191.244 307.562 191.363C307.897 191.477 308.178 191.615 308.407 191.775C308.635 191.94 308.809 192.131 308.927 192.347C309.05 192.562 309.111 192.812 309.111 193.096C309.111 193.4 309.042 193.678 308.902 193.927C308.766 194.177 308.576 194.391 308.331 194.568C308.085 194.746 307.791 194.884 307.448 194.981C307.105 195.078 306.731 195.127 306.325 195.127C305.859 195.127 305.444 195.066 305.081 194.943C304.717 194.816 304.41 194.649 304.16 194.441C303.906 194.238 303.712 194.001 303.576 193.73C303.445 193.46 303.379 193.178 303.379 192.886H304.554C304.571 193.127 304.634 193.331 304.744 193.496C304.858 193.661 305 193.794 305.169 193.896C305.334 193.997 305.519 194.069 305.722 194.111C305.925 194.154 306.126 194.175 306.325 194.175C306.638 194.175 306.911 194.139 307.144 194.067C307.376 193.991 307.558 193.887 307.689 193.756C307.77 193.675 307.831 193.587 307.874 193.489C307.916 193.392 307.937 193.288 307.937 193.178ZM316.843 190.049H311.174V189.027H316.843V190.049ZM316.843 192.683H311.174V191.667H316.843V192.683ZM288.932 209.154C289.025 209.014 289.129 208.887 289.243 208.773C289.357 208.654 289.478 208.551 289.605 208.462C289.808 208.314 290.03 208.202 290.271 208.125C290.517 208.049 290.777 208.009 291.052 208.005C291.412 208.005 291.738 208.058 292.03 208.164C292.326 208.265 292.578 208.426 292.785 208.646C292.993 208.866 293.151 209.145 293.261 209.484C293.375 209.818 293.433 210.216 293.433 210.677V215H292.258V210.665C292.258 210.394 292.227 210.157 292.163 209.954C292.1 209.746 292.007 209.575 291.884 209.439C291.753 209.291 291.588 209.181 291.389 209.109C291.19 209.033 290.961 208.997 290.703 209.001C290.492 209.001 290.291 209.031 290.1 209.09C289.91 209.15 289.734 209.234 289.573 209.344C289.446 209.429 289.328 209.528 289.218 209.643C289.112 209.753 289.017 209.875 288.932 210.011V215H287.758V205.25H288.932V209.154ZM300.066 208.005C300.282 208.005 300.506 208.02 300.739 208.049C300.976 208.079 301.153 208.119 301.272 208.17L301.113 209.319C300.885 209.268 300.667 209.232 300.459 209.211C300.256 209.186 300.043 209.173 299.818 209.173C299.531 209.173 299.27 209.209 299.038 209.281C298.805 209.348 298.602 209.45 298.428 209.585C298.272 209.704 298.134 209.85 298.016 210.023C297.901 210.193 297.806 210.383 297.73 210.595V215H296.549V208.132H297.667L297.717 209.052L297.724 209.224C298.003 208.847 298.337 208.551 298.727 208.335C299.12 208.115 299.567 208.005 300.066 208.005ZM306.407 215.127C305.925 215.127 305.48 215.044 305.074 214.879C304.672 214.714 304.327 214.484 304.04 214.188C303.752 213.891 303.528 213.54 303.367 213.134C303.206 212.728 303.125 212.285 303.125 211.807V211.541C303.125 210.986 303.214 210.491 303.392 210.055C303.57 209.615 303.807 209.243 304.103 208.938C304.395 208.638 304.727 208.407 305.1 208.246C305.476 208.085 305.861 208.005 306.255 208.005C306.75 208.005 307.182 208.092 307.55 208.265C307.922 208.434 308.231 208.669 308.477 208.97C308.722 209.274 308.904 209.632 309.022 210.042C309.145 210.453 309.207 210.897 309.207 211.375V211.902H304.3V211.947C304.329 212.281 304.395 212.575 304.497 212.829C304.602 213.083 304.746 213.307 304.928 213.502C305.114 213.709 305.339 213.872 305.601 213.991C305.863 214.109 306.153 214.168 306.471 214.168C306.89 214.168 307.262 214.084 307.588 213.915C307.914 213.745 308.185 213.521 308.4 213.242L309.118 213.8C308.889 214.147 308.546 214.456 308.089 214.727C307.637 214.994 307.076 215.127 306.407 215.127ZM306.255 208.97C306.018 208.97 305.794 209.014 305.582 209.103C305.37 209.188 305.18 209.312 305.011 209.478C304.841 209.647 304.698 209.854 304.579 210.1C304.465 210.341 304.384 210.62 304.338 210.938H308.032V210.88C308.032 210.669 307.992 210.442 307.912 210.201C307.831 209.956 307.719 209.744 307.575 209.566C307.431 209.389 307.249 209.245 307.029 209.135C306.813 209.025 306.555 208.97 306.255 208.97ZM312.933 215V209.04H311.041V208.132H312.933V207.649C312.933 207.209 312.996 206.824 313.123 206.494C313.254 206.16 313.438 205.881 313.675 205.656C313.908 205.432 314.189 205.263 314.52 205.148C314.85 205.034 315.218 204.977 315.624 204.977C315.793 204.977 315.96 204.988 316.125 205.009C316.291 205.026 316.453 205.049 316.614 205.079C316.72 205.1 316.826 205.123 316.932 205.148C317.037 205.17 317.145 205.195 317.255 205.225L317.116 206.196C316.942 206.137 316.739 206.086 316.506 206.043C316.278 205.997 316.032 205.974 315.77 205.974C315.503 205.974 315.266 206.007 315.059 206.075C314.856 206.139 314.687 206.236 314.551 206.367C314.407 206.503 314.297 206.678 314.221 206.894C314.149 207.11 314.113 207.362 314.113 207.649V208.132H316.76V209.04H314.113V215H312.933ZM324.65 210.049H318.982V209.027H324.65V210.049ZM324.65 212.683H318.982V211.667H324.65V212.683Z" fill="#F45C59"/>
<path d="M321.54 186.043C321.54 186.242 321.515 186.452 321.464 186.672C321.417 186.892 321.347 187.108 321.254 187.319C321.157 187.535 321.041 187.74 320.905 187.935C320.77 188.13 320.613 188.303 320.436 188.456L319.794 187.999C319.993 187.698 320.141 187.391 320.239 187.078C320.34 186.765 320.391 186.426 320.391 186.062V185.11H321.54V186.043ZM323.647 186.043C323.647 186.242 323.622 186.452 323.571 186.672C323.525 186.892 323.455 187.108 323.362 187.319C323.264 187.535 323.148 187.74 323.013 187.935C322.877 188.13 322.721 188.303 322.543 188.456L321.902 187.999C322.101 187.698 322.249 187.391 322.346 187.078C322.448 186.765 322.499 186.426 322.499 186.062V185.11H323.647V186.043ZM329.722 194.175C329.934 194.175 330.139 194.141 330.338 194.073C330.541 194.006 330.721 193.91 330.877 193.788C331.034 193.669 331.159 193.529 331.252 193.369C331.349 193.204 331.4 193.026 331.404 192.835H332.515C332.511 193.14 332.431 193.432 332.274 193.711C332.122 193.986 331.916 194.228 331.658 194.435C331.4 194.647 331.104 194.816 330.77 194.943C330.435 195.066 330.086 195.127 329.722 195.127C329.202 195.127 328.747 195.034 328.357 194.848C327.968 194.661 327.644 194.41 327.386 194.092C327.124 193.779 326.927 193.417 326.796 193.007C326.665 192.592 326.599 192.156 326.599 191.699V191.433C326.599 190.98 326.665 190.546 326.796 190.131C326.927 189.717 327.124 189.351 327.386 189.033C327.644 188.72 327.968 188.47 328.357 188.284C328.747 188.098 329.202 188.005 329.722 188.005C330.128 188.005 330.501 188.07 330.839 188.202C331.182 188.329 331.478 188.502 331.728 188.722C331.973 188.946 332.166 189.211 332.306 189.516C332.445 189.82 332.515 190.146 332.515 190.493H331.404C331.4 190.286 331.354 190.091 331.265 189.909C331.18 189.723 331.064 189.56 330.916 189.42C330.767 189.281 330.59 189.171 330.382 189.09C330.179 189.01 329.959 188.97 329.722 188.97C329.358 188.97 329.051 189.044 328.802 189.192C328.556 189.336 328.357 189.524 328.205 189.757C328.053 189.994 327.943 190.258 327.875 190.55C327.812 190.842 327.78 191.136 327.78 191.433V191.699C327.78 192 327.812 192.298 327.875 192.594C327.943 192.886 328.053 193.149 328.205 193.381C328.353 193.618 328.55 193.811 328.795 193.959C329.045 194.103 329.354 194.175 329.722 194.175ZM334.788 185.25H338.298V193.984H340.539V195H334.788V193.984H337.124V186.272H334.788V185.25ZM346.924 195C346.878 194.911 346.84 194.801 346.81 194.67C346.785 194.535 346.766 194.395 346.753 194.251C346.634 194.369 346.501 194.482 346.353 194.587C346.209 194.693 346.05 194.786 345.877 194.867C345.699 194.947 345.511 195.011 345.312 195.057C345.113 195.104 344.902 195.127 344.677 195.127C344.313 195.127 343.983 195.074 343.687 194.968C343.395 194.862 343.147 194.719 342.944 194.537C342.737 194.359 342.576 194.147 342.462 193.902C342.352 193.652 342.297 193.383 342.297 193.096C342.297 192.719 342.371 192.389 342.519 192.105C342.671 191.822 342.885 191.585 343.16 191.395C343.435 191.208 343.765 191.069 344.15 190.976C344.54 190.882 344.973 190.836 345.452 190.836H346.734V190.296C346.734 190.089 346.696 189.903 346.62 189.738C346.543 189.573 346.436 189.431 346.296 189.312C346.156 189.198 345.985 189.109 345.782 189.046C345.583 188.982 345.359 188.951 345.109 188.951C344.876 188.951 344.667 188.98 344.48 189.04C344.299 189.099 344.144 189.177 344.017 189.274C343.89 189.372 343.791 189.488 343.719 189.624C343.651 189.755 343.617 189.892 343.617 190.036H342.437C342.441 189.786 342.504 189.541 342.627 189.3C342.754 189.059 342.936 188.841 343.173 188.646C343.406 188.456 343.689 188.301 344.023 188.183C344.362 188.064 344.745 188.005 345.172 188.005C345.562 188.005 345.924 188.054 346.258 188.151C346.592 188.244 346.882 188.386 347.127 188.576C347.369 188.771 347.559 189.012 347.699 189.3C347.838 189.588 347.908 189.924 347.908 190.309V193.502C347.908 193.73 347.929 193.974 347.972 194.232C348.014 194.486 348.073 194.708 348.149 194.898V195H346.924ZM344.849 194.105C345.077 194.105 345.291 194.075 345.49 194.016C345.689 193.957 345.871 193.879 346.036 193.781C346.196 193.684 346.336 193.574 346.455 193.451C346.573 193.324 346.666 193.193 346.734 193.058V191.667H345.642C345.236 191.667 344.88 191.703 344.576 191.775C344.275 191.843 344.036 191.949 343.858 192.093C343.731 192.194 343.634 192.315 343.566 192.455C343.503 192.594 343.471 192.753 343.471 192.931C343.471 193.1 343.499 193.257 343.554 193.4C343.613 193.544 343.7 193.667 343.814 193.769C343.928 193.874 344.072 193.957 344.246 194.016C344.419 194.075 344.62 194.105 344.849 194.105ZM354.783 193.178C354.783 193.039 354.755 192.914 354.7 192.804C354.645 192.689 354.552 192.586 354.421 192.493C354.29 192.4 354.116 192.315 353.9 192.239C353.685 192.158 353.416 192.086 353.094 192.023C352.701 191.943 352.341 191.845 352.015 191.731C351.694 191.617 351.418 191.479 351.19 191.318C350.957 191.162 350.777 190.978 350.65 190.766C350.523 190.55 350.46 190.301 350.46 190.017C350.46 189.738 350.526 189.478 350.657 189.236C350.788 188.991 350.972 188.777 351.209 188.595C351.446 188.413 351.727 188.269 352.053 188.164C352.383 188.058 352.745 188.005 353.139 188.005C353.562 188.005 353.943 188.06 354.281 188.17C354.62 188.28 354.908 188.432 355.145 188.627C355.382 188.822 355.563 189.05 355.69 189.312C355.822 189.571 355.887 189.85 355.887 190.15H354.713C354.713 190.002 354.675 189.858 354.599 189.719C354.522 189.575 354.417 189.448 354.281 189.338C354.146 189.228 353.981 189.139 353.786 189.071C353.596 189.004 353.38 188.97 353.139 188.97C352.889 188.97 352.669 188.997 352.479 189.052C352.292 189.107 352.138 189.181 352.015 189.274C351.888 189.368 351.793 189.475 351.729 189.598C351.666 189.721 351.634 189.848 351.634 189.979C351.634 190.114 351.66 190.235 351.71 190.341C351.761 190.447 351.85 190.542 351.977 190.626C352.1 190.711 352.265 190.787 352.472 190.855C352.684 190.923 352.95 190.988 353.272 191.052C353.695 191.141 354.074 191.244 354.408 191.363C354.743 191.477 355.024 191.615 355.252 191.775C355.481 191.94 355.654 192.131 355.773 192.347C355.896 192.562 355.957 192.812 355.957 193.096C355.957 193.4 355.887 193.678 355.748 193.927C355.612 194.177 355.422 194.391 355.176 194.568C354.931 194.746 354.637 194.884 354.294 194.981C353.951 195.078 353.577 195.127 353.17 195.127C352.705 195.127 352.29 195.066 351.926 194.943C351.562 194.816 351.256 194.649 351.006 194.441C350.752 194.238 350.557 194.001 350.422 193.73C350.291 193.46 350.225 193.178 350.225 192.886H351.399C351.416 193.127 351.48 193.331 351.59 193.496C351.704 193.661 351.846 193.794 352.015 193.896C352.18 193.997 352.364 194.069 352.567 194.111C352.771 194.154 352.972 194.175 353.17 194.175C353.484 194.175 353.757 194.139 353.989 194.067C354.222 193.991 354.404 193.887 354.535 193.756C354.616 193.675 354.677 193.587 354.719 193.489C354.762 193.392 354.783 193.288 354.783 193.178ZM362.59 193.178C362.59 193.039 362.563 192.914 362.508 192.804C362.453 192.689 362.36 192.586 362.229 192.493C362.097 192.4 361.924 192.315 361.708 192.239C361.492 192.158 361.223 192.086 360.902 192.023C360.508 191.943 360.149 191.845 359.823 191.731C359.501 191.617 359.226 191.479 358.998 191.318C358.765 191.162 358.585 190.978 358.458 190.766C358.331 190.55 358.268 190.301 358.268 190.017C358.268 189.738 358.333 189.478 358.464 189.236C358.596 188.991 358.78 188.777 359.017 188.595C359.254 188.413 359.535 188.269 359.861 188.164C360.191 188.058 360.553 188.005 360.946 188.005C361.369 188.005 361.75 188.06 362.089 188.17C362.427 188.28 362.715 188.432 362.952 188.627C363.189 188.822 363.371 189.05 363.498 189.312C363.629 189.571 363.695 189.85 363.695 190.15H362.521C362.521 190.002 362.482 189.858 362.406 189.719C362.33 189.575 362.224 189.448 362.089 189.338C361.953 189.228 361.788 189.139 361.594 189.071C361.403 189.004 361.188 188.97 360.946 188.97C360.697 188.97 360.477 188.997 360.286 189.052C360.1 189.107 359.945 189.181 359.823 189.274C359.696 189.368 359.601 189.475 359.537 189.598C359.474 189.721 359.442 189.848 359.442 189.979C359.442 190.114 359.467 190.235 359.518 190.341C359.569 190.447 359.658 190.542 359.785 190.626C359.907 190.711 360.072 190.787 360.28 190.855C360.491 190.923 360.758 190.988 361.08 191.052C361.503 191.141 361.882 191.244 362.216 191.363C362.55 191.477 362.832 191.615 363.06 191.775C363.289 191.94 363.462 192.131 363.581 192.347C363.703 192.562 363.765 192.812 363.765 193.096C363.765 193.4 363.695 193.678 363.555 193.927C363.42 194.177 363.229 194.391 362.984 194.568C362.738 194.746 362.444 194.884 362.102 194.981C361.759 195.078 361.384 195.127 360.978 195.127C360.513 195.127 360.098 195.066 359.734 194.943C359.37 194.816 359.063 194.649 358.813 194.441C358.56 194.238 358.365 194.001 358.229 193.73C358.098 193.46 358.033 193.178 358.033 192.886H359.207C359.224 193.127 359.287 193.331 359.397 193.496C359.512 193.661 359.653 193.794 359.823 193.896C359.988 193.997 360.172 194.069 360.375 194.111C360.578 194.154 360.779 194.175 360.978 194.175C361.291 194.175 361.564 194.139 361.797 194.067C362.03 193.991 362.212 193.887 362.343 193.756C362.423 193.675 362.485 193.587 362.527 193.489C362.569 193.392 362.59 193.288 362.59 193.178ZM371.623 195H370.43L366.843 188.094L366.824 195H365.637V185.758H366.831L370.417 192.651L370.436 185.758H371.623V195ZM378.155 195C378.108 194.911 378.07 194.801 378.041 194.67C378.015 194.535 377.996 194.395 377.983 194.251C377.865 194.369 377.732 194.482 377.583 194.587C377.44 194.693 377.281 194.786 377.107 194.867C376.93 194.947 376.741 195.011 376.542 195.057C376.344 195.104 376.132 195.127 375.908 195.127C375.544 195.127 375.214 195.074 374.917 194.968C374.625 194.862 374.378 194.719 374.175 194.537C373.967 194.359 373.807 194.147 373.692 193.902C373.582 193.652 373.527 193.383 373.527 193.096C373.527 192.719 373.601 192.389 373.75 192.105C373.902 191.822 374.116 191.585 374.391 191.395C374.666 191.208 374.996 191.069 375.381 190.976C375.77 190.882 376.204 190.836 376.682 190.836H377.964V190.296C377.964 190.089 377.926 189.903 377.85 189.738C377.774 189.573 377.666 189.431 377.526 189.312C377.387 189.198 377.215 189.109 377.012 189.046C376.813 188.982 376.589 188.951 376.339 188.951C376.107 188.951 375.897 188.98 375.711 189.04C375.529 189.099 375.375 189.177 375.248 189.274C375.121 189.372 375.021 189.488 374.949 189.624C374.882 189.755 374.848 189.892 374.848 190.036H373.667C373.671 189.786 373.735 189.541 373.857 189.3C373.984 189.059 374.166 188.841 374.403 188.646C374.636 188.456 374.92 188.301 375.254 188.183C375.592 188.064 375.975 188.005 376.403 188.005C376.792 188.005 377.154 188.054 377.488 188.151C377.823 188.244 378.112 188.386 378.358 188.576C378.599 188.771 378.79 189.012 378.929 189.3C379.069 189.588 379.139 189.924 379.139 190.309V193.502C379.139 193.73 379.16 193.974 379.202 194.232C379.244 194.486 379.304 194.708 379.38 194.898V195H378.155ZM376.079 194.105C376.308 194.105 376.521 194.075 376.72 194.016C376.919 193.957 377.101 193.879 377.266 193.781C377.427 193.684 377.567 193.574 377.685 193.451C377.804 193.324 377.897 193.193 377.964 193.058V191.667H376.873C376.466 191.667 376.111 191.703 375.806 191.775C375.506 191.843 375.267 191.949 375.089 192.093C374.962 192.194 374.865 192.315 374.797 192.455C374.733 192.594 374.702 192.753 374.702 192.931C374.702 193.1 374.729 193.257 374.784 193.4C374.843 193.544 374.93 193.667 375.044 193.769C375.159 193.874 375.303 193.957 375.476 194.016C375.65 194.075 375.851 194.105 376.079 194.105ZM381.989 188.132L382.021 188.779C382.16 188.538 382.342 188.35 382.566 188.214C382.795 188.079 383.07 188.009 383.392 188.005C383.574 188.005 383.736 188.026 383.88 188.068C384.028 188.106 384.158 188.164 384.268 188.24C384.348 188.299 384.42 188.371 384.483 188.456C384.551 188.54 384.608 188.635 384.655 188.741C384.714 188.644 384.784 188.553 384.864 188.468C384.945 188.384 385.031 188.31 385.125 188.246C385.243 188.174 385.374 188.117 385.518 188.075C385.666 188.032 385.827 188.009 386 188.005C386.237 188.005 386.451 188.041 386.642 188.113C386.832 188.181 386.993 188.282 387.124 188.417C387.268 188.57 387.378 188.769 387.454 189.014C387.53 189.255 387.568 189.541 387.568 189.871V195H386.451V189.858C386.451 189.715 386.434 189.588 386.4 189.478C386.367 189.368 386.318 189.277 386.254 189.205C386.187 189.137 386.102 189.086 386 189.052C385.903 189.018 385.789 189.001 385.658 189.001C385.518 189.001 385.397 189.021 385.296 189.059C385.194 189.097 385.11 189.147 385.042 189.211C384.974 189.279 384.921 189.357 384.883 189.446C384.845 189.53 384.82 189.626 384.807 189.731C384.807 189.753 384.807 189.774 384.807 189.795C384.807 189.812 384.807 189.833 384.807 189.858V195H383.69V189.852C383.69 189.708 383.673 189.581 383.639 189.471C383.61 189.361 383.561 189.27 383.493 189.198C383.43 189.131 383.349 189.082 383.252 189.052C383.159 189.018 383.049 189.001 382.922 189.001C382.782 189.001 382.66 189.018 382.554 189.052C382.452 189.082 382.365 189.126 382.293 189.186C382.238 189.232 382.19 189.285 382.147 189.344C382.109 189.403 382.078 189.467 382.052 189.535V195H380.935V188.132H381.989ZM392.291 195.127C391.809 195.127 391.364 195.044 390.958 194.879C390.556 194.714 390.211 194.484 389.923 194.188C389.636 193.891 389.411 193.54 389.25 193.134C389.09 192.728 389.009 192.285 389.009 191.807V191.541C389.009 190.986 389.098 190.491 389.276 190.055C389.454 189.615 389.691 189.243 389.987 188.938C390.279 188.638 390.611 188.407 390.983 188.246C391.36 188.085 391.745 188.005 392.139 188.005C392.634 188.005 393.065 188.092 393.434 188.265C393.806 188.434 394.115 188.669 394.36 188.97C394.606 189.274 394.788 189.632 394.906 190.042C395.029 190.453 395.09 190.897 395.09 191.375V191.902H390.184V191.947C390.213 192.281 390.279 192.575 390.38 192.829C390.486 193.083 390.63 193.307 390.812 193.502C390.998 193.709 391.222 193.872 391.485 193.991C391.747 194.109 392.037 194.168 392.354 194.168C392.773 194.168 393.146 194.084 393.472 193.915C393.798 193.745 394.068 193.521 394.284 193.242L395.001 193.8C394.773 194.147 394.43 194.456 393.973 194.727C393.52 194.994 392.96 195.127 392.291 195.127ZM392.139 188.97C391.902 188.97 391.677 189.014 391.466 189.103C391.254 189.188 391.064 189.312 390.895 189.478C390.725 189.647 390.581 189.854 390.463 190.1C390.349 190.341 390.268 190.62 390.222 190.938H393.916V190.88C393.916 190.669 393.876 190.442 393.795 190.201C393.715 189.956 393.603 189.744 393.459 189.566C393.315 189.389 393.133 189.245 392.913 189.135C392.697 189.025 392.439 188.97 392.139 188.97ZM399.616 186.043C399.616 186.242 399.591 186.452 399.54 186.672C399.493 186.892 399.424 187.108 399.331 187.319C399.233 187.535 399.117 187.74 398.981 187.935C398.846 188.13 398.689 188.303 398.512 188.456L397.871 187.999C398.069 187.698 398.218 187.391 398.315 187.078C398.417 186.765 398.467 186.426 398.467 186.062V185.11H399.616V186.043ZM401.724 186.043C401.724 186.242 401.698 186.452 401.647 186.672C401.601 186.892 401.531 187.108 401.438 187.319C401.341 187.535 401.224 187.74 401.089 187.935C400.953 188.13 400.797 188.303 400.619 188.456L399.978 187.999C400.177 187.698 400.325 187.391 400.422 187.078C400.524 186.765 400.575 186.426 400.575 186.062V185.11H401.724V186.043ZM329.348 206.043C329.348 206.242 329.322 206.452 329.271 206.672C329.225 206.892 329.155 207.108 329.062 207.319C328.965 207.535 328.848 207.74 328.713 207.935C328.577 208.13 328.421 208.303 328.243 208.456L327.602 207.999C327.801 207.698 327.949 207.391 328.046 207.078C328.148 206.765 328.199 206.426 328.199 206.062V205.11H329.348V206.043ZM331.455 206.043C331.455 206.242 331.43 206.452 331.379 206.672C331.332 206.892 331.263 207.108 331.169 207.319C331.072 207.535 330.956 207.74 330.82 207.935C330.685 208.13 330.528 208.303 330.351 208.456L329.709 207.999C329.908 207.698 330.056 207.391 330.154 207.078C330.255 206.765 330.306 206.426 330.306 206.062V205.11H331.455V206.043ZM337.987 212.397H336.311L335.803 215H334.896L335.403 212.397H333.886V211.528H335.568L336.006 209.281H334.369V208.398H336.178L336.698 205.758H337.606L337.085 208.398H338.761L339.282 205.758H340.189L339.669 208.398H340.97V209.281H339.498L339.06 211.528H340.494V212.397H338.895L338.387 215H337.479L337.987 212.397ZM336.476 211.528H338.152L338.59 209.281H336.914L336.476 211.528ZM344.963 206.043C344.963 206.242 344.938 206.452 344.887 206.672C344.84 206.892 344.77 207.108 344.677 207.319C344.58 207.535 344.464 207.74 344.328 207.935C344.193 208.13 344.036 208.303 343.858 208.456L343.217 207.999C343.416 207.698 343.564 207.391 343.662 207.078C343.763 206.765 343.814 206.426 343.814 206.062V205.11H344.963V206.043ZM347.07 206.043C347.07 206.242 347.045 206.452 346.994 206.672C346.948 206.892 346.878 207.108 346.785 207.319C346.687 207.535 346.571 207.74 346.436 207.935C346.3 208.13 346.144 208.303 345.966 208.456L345.325 207.999C345.524 207.698 345.672 207.391 345.769 207.078C345.871 206.765 345.921 206.426 345.921 206.062V205.11H347.07V206.043Z" fill="#286EF1"/>
<path d="M560.398 176.991H561.985C561.935 177.596 561.765 178.136 561.478 178.61C561.19 179.08 560.786 179.45 560.265 179.721C559.745 179.992 559.112 180.127 558.367 180.127C557.796 180.127 557.282 180.025 556.825 179.822C556.368 179.615 555.976 179.323 555.65 178.946C555.325 178.565 555.075 178.106 554.901 177.569C554.732 177.031 554.647 176.431 554.647 175.766V174.998C554.647 174.334 554.734 173.733 554.908 173.195C555.085 172.658 555.339 172.199 555.669 171.818C556 171.433 556.395 171.139 556.856 170.936C557.322 170.732 557.845 170.631 558.424 170.631C559.161 170.631 559.783 170.766 560.291 171.037C560.798 171.308 561.192 171.682 561.471 172.161C561.755 172.639 561.928 173.187 561.992 173.805H560.405C560.362 173.407 560.269 173.066 560.125 172.783C559.986 172.499 559.778 172.283 559.503 172.135C559.228 171.983 558.869 171.907 558.424 171.907C558.06 171.907 557.743 171.974 557.472 172.11C557.201 172.245 556.975 172.444 556.793 172.707C556.611 172.969 556.473 173.293 556.38 173.678C556.292 174.059 556.247 174.494 556.247 174.985V175.766C556.247 176.232 556.287 176.655 556.368 177.036C556.452 177.412 556.579 177.736 556.749 178.007C556.922 178.278 557.142 178.487 557.409 178.635C557.675 178.783 557.995 178.857 558.367 178.857C558.82 178.857 559.186 178.785 559.465 178.642C559.749 178.498 559.963 178.288 560.106 178.013C560.255 177.734 560.352 177.393 560.398 176.991ZM562.988 176.642V176.496C562.988 176.001 563.06 175.542 563.204 175.119C563.348 174.691 563.555 174.321 563.826 174.008C564.101 173.69 564.436 173.445 564.829 173.271C565.227 173.094 565.675 173.005 566.175 173.005C566.678 173.005 567.127 173.094 567.521 173.271C567.918 173.445 568.255 173.69 568.53 174.008C568.805 174.321 569.014 174.691 569.158 175.119C569.302 175.542 569.374 176.001 569.374 176.496V176.642C569.374 177.137 569.302 177.596 569.158 178.02C569.014 178.443 568.805 178.813 568.53 179.13C568.255 179.444 567.92 179.689 567.527 179.867C567.133 180.04 566.687 180.127 566.188 180.127C565.684 180.127 565.233 180.04 564.835 179.867C564.442 179.689 564.108 179.444 563.833 179.13C563.557 178.813 563.348 178.443 563.204 178.02C563.06 177.596 562.988 177.137 562.988 176.642ZM564.518 176.496V176.642C564.518 176.951 564.55 177.243 564.613 177.518C564.677 177.793 564.776 178.034 564.912 178.242C565.047 178.449 565.221 178.612 565.432 178.73C565.644 178.849 565.896 178.908 566.188 178.908C566.471 178.908 566.716 178.849 566.924 178.73C567.135 178.612 567.309 178.449 567.444 178.242C567.58 178.034 567.679 177.793 567.743 177.518C567.81 177.243 567.844 176.951 567.844 176.642V176.496C567.844 176.191 567.81 175.904 567.743 175.633C567.679 175.358 567.578 175.114 567.438 174.903C567.303 174.691 567.129 174.526 566.917 174.408C566.71 174.285 566.463 174.224 566.175 174.224C565.887 174.224 565.637 174.285 565.426 174.408C565.218 174.526 565.047 174.691 564.912 174.903C564.776 175.114 564.677 175.358 564.613 175.633C564.55 175.904 564.518 176.191 564.518 176.496ZM572.192 174.452V182.641H570.663V173.132H572.072L572.192 174.452ZM576.667 176.502V176.636C576.667 177.135 576.608 177.598 576.49 178.026C576.375 178.449 576.204 178.819 575.976 179.137C575.751 179.45 575.474 179.693 575.144 179.867C574.814 180.04 574.433 180.127 574.001 180.127C573.574 180.127 573.2 180.049 572.878 179.892C572.561 179.731 572.292 179.505 572.072 179.213C571.852 178.921 571.674 178.578 571.539 178.185C571.407 177.787 571.314 177.351 571.259 176.877V176.363C571.314 175.859 571.407 175.402 571.539 174.992C571.674 174.581 571.852 174.228 572.072 173.932C572.292 173.635 572.561 173.407 572.878 173.246C573.195 173.085 573.566 173.005 573.989 173.005C574.42 173.005 574.803 173.09 575.138 173.259C575.472 173.424 575.753 173.661 575.982 173.97C576.21 174.274 576.382 174.643 576.496 175.074C576.61 175.502 576.667 175.978 576.667 176.502ZM575.138 176.636V176.502C575.138 176.185 575.108 175.891 575.049 175.62C574.99 175.345 574.896 175.104 574.77 174.896C574.643 174.689 574.48 174.528 574.281 174.414C574.086 174.296 573.851 174.236 573.576 174.236C573.305 174.236 573.073 174.283 572.878 174.376C572.683 174.465 572.52 174.59 572.389 174.75C572.258 174.911 572.156 175.1 572.084 175.315C572.013 175.527 571.962 175.758 571.932 176.007V177.239C571.983 177.543 572.07 177.823 572.192 178.077C572.315 178.331 572.489 178.534 572.713 178.686C572.941 178.834 573.233 178.908 573.589 178.908C573.864 178.908 574.099 178.849 574.293 178.73C574.488 178.612 574.647 178.449 574.77 178.242C574.896 178.03 574.99 177.787 575.049 177.512C575.108 177.237 575.138 176.945 575.138 176.636ZM579.886 179.251L581.752 173.132H583.39L580.635 181.047C580.571 181.217 580.489 181.401 580.387 181.6C580.286 181.799 580.152 181.987 579.987 182.165C579.826 182.347 579.625 182.493 579.384 182.603C579.143 182.717 578.851 182.774 578.508 182.774C578.373 182.774 578.242 182.761 578.115 182.736C577.992 182.715 577.876 182.691 577.766 182.666L577.759 181.498C577.802 181.502 577.852 181.507 577.912 181.511C577.975 181.515 578.026 181.517 578.064 181.517C578.318 181.517 578.529 181.485 578.699 181.422C578.868 181.363 579.006 181.265 579.111 181.13C579.221 180.994 579.314 180.812 579.391 180.584L579.886 179.251ZM578.832 173.132L580.463 178.273L580.736 179.886L579.676 180.159L577.182 173.132H578.832Z" fill="#1A1A1A"/>
<rect x="538.5" y="160.5" width="61" height="31" rx="3.5" stroke="#1A1A1A"/>
<rect x="216.5" y="144.5" width="399" height="111" rx="7.5" stroke="#E6E6E6"/>
<line x1="600" y1="179.5" x2="640" y2="179.5" stroke="#0059FF"/>
<rect x="640" y="168" width="24" height="24" rx="12" fill="#0059FF"/>
<path d="M655.199 182.781V184H649.004V182.953L652.013 179.671C652.343 179.299 652.603 178.977 652.793 178.706C652.984 178.435 653.117 178.192 653.193 177.976C653.274 177.756 653.314 177.542 653.314 177.335C653.314 177.043 653.259 176.787 653.149 176.567C653.043 176.343 652.887 176.167 652.679 176.04C652.472 175.909 652.22 175.843 651.924 175.843C651.581 175.843 651.293 175.917 651.061 176.065C650.828 176.214 650.652 176.419 650.534 176.681C650.415 176.939 650.356 177.236 650.356 177.57H648.826C648.826 177.032 648.949 176.542 649.194 176.097C649.44 175.649 649.795 175.293 650.261 175.031C650.726 174.764 651.287 174.631 651.943 174.631C652.561 174.631 653.085 174.735 653.517 174.942C653.949 175.149 654.277 175.443 654.501 175.824C654.729 176.205 654.844 176.656 654.844 177.176C654.844 177.464 654.797 177.75 654.704 178.033C654.611 178.317 654.478 178.6 654.304 178.884C654.135 179.163 653.934 179.444 653.701 179.728C653.468 180.007 653.212 180.291 652.933 180.579L650.934 182.781H655.199Z" fill="white"/>
<rect x="0.5" y="0.5" width="831" height="399" rx="15.5" stroke="#E6E6E6"/>
</svg>
