<svg width="832" height="242" viewBox="0 0 832 242" fill="none" xmlns="http://www.w3.org/2000/svg">
<rect x="0.5" y="0.5" width="831" height="241" rx="15.5" fill="white"/>
<rect x="220.5" y="50.5" width="399" height="111" rx="7.5" fill="#F8F8F8"/>
<path d="M238.653 81.7935H237.6L241.459 71.7578H242.506L238.653 81.7935ZM246.461 81.7935H245.407L249.267 71.7578H250.314L246.461 81.7935ZM266.513 78.2197C266.458 78.6471 266.348 79.0407 266.183 79.4004C266.018 79.7559 265.804 80.0605 265.542 80.3145C265.275 80.5726 264.96 80.7736 264.596 80.9175C264.236 81.0571 263.834 81.127 263.39 81.127C263.009 81.127 262.662 81.0741 262.349 80.9683C262.04 80.8582 261.765 80.708 261.524 80.5176C261.278 80.3271 261.067 80.1029 260.889 79.8447C260.716 79.5866 260.572 79.3052 260.458 79.0005C260.339 78.6958 260.25 78.3763 260.191 78.042C260.136 77.7077 260.106 77.3691 260.102 77.0264V75.7378C260.106 75.395 260.136 75.0565 260.191 74.7222C260.25 74.3879 260.339 74.0684 260.458 73.7637C260.572 73.459 260.716 73.1776 260.889 72.9194C261.067 72.6571 261.278 72.4307 261.524 72.2402C261.765 72.0498 262.04 71.9017 262.349 71.7959C262.658 71.6859 263.005 71.6309 263.39 71.6309C263.851 71.6309 264.264 71.7028 264.628 71.8467C264.992 71.9863 265.305 72.1852 265.567 72.4434C265.83 72.7057 266.039 73.0189 266.196 73.3828C266.357 73.7467 266.462 74.1488 266.513 74.5889H265.339C265.301 74.3096 265.235 74.0493 265.142 73.8081C265.049 73.5669 264.924 73.3553 264.768 73.1733C264.611 72.9914 264.418 72.8496 264.19 72.748C263.966 72.6423 263.699 72.5894 263.39 72.5894C263.111 72.5894 262.863 72.6359 262.647 72.729C262.436 72.8179 262.254 72.9406 262.102 73.0972C261.945 73.2537 261.814 73.4357 261.708 73.6431C261.606 73.8504 261.524 74.0705 261.46 74.3032C261.397 74.536 261.35 74.7751 261.321 75.0205C261.295 75.2617 261.283 75.4966 261.283 75.7251V77.0264C261.283 77.2549 261.295 77.4919 261.321 77.7373C261.35 77.9785 261.397 78.2155 261.46 78.4482C261.524 78.6852 261.606 78.9074 261.708 79.1147C261.81 79.3221 261.939 79.5041 262.095 79.6606C262.252 79.8215 262.436 79.9484 262.647 80.0415C262.859 80.1304 263.107 80.1748 263.39 80.1748C263.699 80.1748 263.966 80.1261 264.19 80.0288C264.418 79.9315 264.611 79.7939 264.768 79.6162C264.924 79.4427 265.049 79.2375 265.142 79.0005C265.235 78.7593 265.301 78.499 265.339 78.2197H266.513ZM268.005 77.5024C268.005 77.0073 268.077 76.5482 268.221 76.125C268.365 75.6976 268.572 75.3273 268.843 75.0142C269.109 74.701 269.435 74.4556 269.82 74.2778C270.205 74.0959 270.639 74.0049 271.122 74.0049C271.608 74.0049 272.044 74.0959 272.429 74.2778C272.819 74.4556 273.149 74.701 273.419 75.0142C273.686 75.3273 273.891 75.6976 274.035 76.125C274.179 76.5482 274.251 77.0073 274.251 77.5024V77.6421C274.251 78.1372 274.179 78.5964 274.035 79.0195C273.891 79.4427 273.686 79.8109 273.419 80.124C273.149 80.4372 272.821 80.6826 272.436 80.8604C272.05 81.0381 271.617 81.127 271.134 81.127C270.648 81.127 270.21 81.0381 269.82 80.8604C269.435 80.6826 269.109 80.4372 268.843 80.124C268.572 79.8109 268.365 79.4427 268.221 79.0195C268.077 78.5964 268.005 78.1372 268.005 77.6421V77.5024ZM269.179 77.6421C269.179 77.9806 269.219 78.3044 269.3 78.6133C269.38 78.918 269.503 79.1867 269.668 79.4194C269.829 79.6522 270.032 79.8363 270.277 79.9717C270.523 80.1071 270.808 80.1748 271.134 80.1748C271.456 80.1748 271.737 80.1071 271.979 79.9717C272.224 79.8363 272.429 79.6522 272.594 79.4194C272.755 79.1867 272.876 78.918 272.956 78.6133C273.036 78.3044 273.077 77.9806 273.077 77.6421V77.5024C273.077 77.1681 273.034 76.8486 272.95 76.5439C272.869 76.235 272.749 75.9642 272.588 75.7314C272.423 75.4987 272.218 75.3146 271.972 75.1792C271.731 75.0396 271.447 74.9697 271.122 74.9697C270.796 74.9697 270.512 75.0396 270.271 75.1792C270.03 75.3146 269.829 75.4987 269.668 75.7314C269.503 75.9642 269.38 76.235 269.3 76.5439C269.219 76.8486 269.179 77.1681 269.179 77.5024V77.6421ZM275.92 77.5088C275.92 76.9967 275.984 76.527 276.111 76.0996C276.242 75.668 276.428 75.2977 276.669 74.9888C276.906 74.6799 277.194 74.4386 277.533 74.2651C277.871 74.0916 278.25 74.0049 278.669 74.0049C279.079 74.0049 279.437 74.0747 279.742 74.2144C280.051 74.3498 280.317 74.5487 280.542 74.811V71.25H281.716V81H280.637L280.586 80.2764C280.357 80.5557 280.084 80.7673 279.767 80.9111C279.45 81.055 279.079 81.127 278.656 81.127C278.242 81.127 277.865 81.0381 277.526 80.8604C277.192 80.6826 276.906 80.4372 276.669 80.124C276.432 79.8109 276.248 79.4427 276.117 79.0195C275.986 78.5921 275.92 78.133 275.92 77.6421V77.5088ZM277.095 77.6421C277.095 77.9764 277.131 78.2938 277.203 78.5942C277.275 78.8947 277.387 79.1592 277.539 79.3877C277.687 79.6162 277.878 79.7982 278.11 79.9336C278.343 80.0648 278.622 80.1304 278.948 80.1304C279.342 80.1304 279.668 80.0415 279.926 79.8638C280.184 79.686 280.389 79.4469 280.542 79.1465V75.96C280.389 75.6807 280.184 75.4521 279.926 75.2744C279.668 75.0924 279.346 75.0015 278.961 75.0015C278.631 75.0015 278.347 75.0692 278.11 75.2046C277.878 75.34 277.687 75.522 277.539 75.7505C277.387 75.9832 277.275 76.252 277.203 76.5566C277.131 76.8571 277.095 77.1745 277.095 77.5088V77.6421ZM286.984 81.127C286.502 81.127 286.058 81.0444 285.651 80.8794C285.249 80.7144 284.904 80.4837 284.617 80.1875C284.329 79.8913 284.105 79.54 283.944 79.1338C283.783 78.7275 283.703 78.2853 283.703 77.8071V77.5405C283.703 76.9862 283.792 76.491 283.969 76.0552C284.147 75.6151 284.384 75.2427 284.68 74.938C284.972 74.6375 285.304 74.4069 285.677 74.2461C286.053 74.0853 286.438 74.0049 286.832 74.0049C287.327 74.0049 287.759 74.0916 288.127 74.2651C288.499 74.4344 288.808 74.6693 289.054 74.9697C289.299 75.2744 289.481 75.632 289.6 76.0425C289.722 76.453 289.784 76.8973 289.784 77.3755V77.9023H284.877V77.9468C284.907 78.2811 284.972 78.5752 285.074 78.8291C285.18 79.083 285.323 79.3073 285.505 79.502C285.692 79.7093 285.916 79.8722 286.178 79.9907C286.441 80.1092 286.73 80.1685 287.048 80.1685C287.467 80.1685 287.839 80.0838 288.165 79.9146C288.491 79.7453 288.762 79.521 288.978 79.2417L289.695 79.8003C289.466 80.1473 289.124 80.4562 288.667 80.7271C288.214 80.9937 287.653 81.127 286.984 81.127ZM286.832 74.9697C286.595 74.9697 286.371 75.0142 286.159 75.103C285.948 75.1877 285.757 75.3125 285.588 75.4775C285.419 75.6468 285.275 75.8542 285.156 76.0996C285.042 76.3408 284.962 76.6201 284.915 76.9375H288.609V76.8804C288.609 76.6688 288.569 76.4424 288.489 76.2012C288.408 75.9557 288.296 75.7441 288.152 75.5664C288.008 75.3887 287.826 75.2448 287.606 75.1348C287.391 75.0247 287.132 74.9697 286.832 74.9697ZM304.402 78.6641C304.402 78.3805 304.337 78.1414 304.206 77.9468C304.079 77.7521 303.914 77.5871 303.71 77.4517C303.507 77.3205 303.283 77.2104 303.038 77.1216C302.796 77.0327 302.564 76.9523 302.339 76.8804C302.014 76.7746 301.681 76.6476 301.343 76.4995C301.008 76.3472 300.704 76.1652 300.429 75.9536C300.149 75.7378 299.921 75.4839 299.743 75.1919C299.57 74.8957 299.483 74.5487 299.483 74.1509C299.483 73.7531 299.57 73.3976 299.743 73.0845C299.921 72.7713 300.152 72.5068 300.435 72.291C300.719 72.0752 301.04 71.9123 301.4 71.8022C301.76 71.688 302.121 71.6309 302.485 71.6309C302.887 71.6309 303.275 71.6986 303.647 71.834C304.019 71.9652 304.349 72.1514 304.637 72.3926C304.925 72.6338 305.156 72.9258 305.329 73.2686C305.503 73.6113 305.594 73.9943 305.602 74.4175H304.396C304.362 74.1509 304.297 73.9097 304.199 73.6938C304.102 73.4738 303.973 73.2855 303.812 73.1289C303.651 72.9723 303.459 72.8517 303.234 72.7671C303.014 72.6782 302.765 72.6338 302.485 72.6338C302.261 72.6338 302.041 72.6655 301.825 72.729C301.614 72.7925 301.425 72.8877 301.26 73.0146C301.091 73.1416 300.956 73.2982 300.854 73.4844C300.757 73.6706 300.708 73.8864 300.708 74.1318C300.712 74.3984 300.78 74.6248 300.911 74.811C301.042 74.993 301.209 75.1475 301.413 75.2744C301.611 75.4014 301.827 75.5072 302.06 75.5918C302.297 75.6764 302.519 75.7505 302.727 75.814C303.069 75.9198 303.412 76.0488 303.755 76.2012C304.098 76.3493 304.411 76.5397 304.694 76.7725C304.974 76.9883 305.198 77.2528 305.367 77.5659C305.541 77.8791 305.627 78.2409 305.627 78.6514C305.627 79.0661 305.534 79.4279 305.348 79.7368C305.166 80.0457 304.929 80.3018 304.637 80.5049C304.345 80.7122 304.015 80.8688 303.647 80.9746C303.279 81.0762 302.911 81.127 302.542 81.127C302.102 81.127 301.669 81.0529 301.241 80.9048C300.818 80.7567 300.45 80.543 300.137 80.2637C299.857 80.0225 299.635 79.741 299.47 79.4194C299.309 79.0936 299.223 78.7318 299.21 78.334H300.41C300.448 78.6217 300.526 78.8778 300.645 79.1021C300.763 79.3221 300.915 79.5083 301.102 79.6606C301.288 79.8172 301.501 79.9357 301.743 80.0161C301.988 80.0923 302.255 80.1304 302.542 80.1304C302.771 80.1304 302.995 80.1029 303.215 80.0479C303.44 79.9886 303.639 79.8976 303.812 79.7749C303.986 79.6564 304.127 79.5062 304.237 79.3242C304.347 79.138 304.402 78.918 304.402 78.6641ZM310.153 72.4688V74.1318H312.769V75.0396H310.153V78.772C310.153 79.0386 310.187 79.2586 310.255 79.4321C310.323 79.6056 310.416 79.7432 310.534 79.8447C310.653 79.9505 310.788 80.0246 310.94 80.0669C311.097 80.1092 311.262 80.1304 311.436 80.1304C311.562 80.1304 311.694 80.124 311.829 80.1113C311.965 80.0944 312.098 80.0754 312.229 80.0542C312.356 80.033 312.474 80.0119 312.584 79.9907C312.699 79.9653 312.792 79.9442 312.864 79.9272L313.029 80.7588C312.931 80.818 312.813 80.8709 312.673 80.9175C312.534 80.9598 312.381 80.9958 312.216 81.0254C312.051 81.0592 311.876 81.0846 311.689 81.1016C311.507 81.1185 311.326 81.127 311.144 81.127C310.839 81.127 310.553 81.0846 310.287 81C310.024 80.9111 309.796 80.7715 309.601 80.5811C309.406 80.3949 309.252 80.1536 309.138 79.8574C309.028 79.557 308.973 79.1951 308.973 78.772V75.0396H307.17V74.1318H308.973V72.4688H310.153ZM319.694 81C319.647 80.9111 319.609 80.8011 319.58 80.6699C319.554 80.5345 319.535 80.3949 319.522 80.251C319.404 80.3695 319.271 80.4816 319.123 80.5874C318.979 80.6932 318.82 80.7863 318.646 80.8667C318.469 80.9471 318.28 81.0106 318.082 81.0571C317.883 81.1037 317.671 81.127 317.447 81.127C317.083 81.127 316.753 81.0741 316.457 80.9683C316.165 80.8625 315.917 80.7186 315.714 80.5366C315.507 80.3589 315.346 80.1473 315.231 79.9019C315.121 79.6522 315.066 79.3835 315.066 79.0957C315.066 78.7191 315.14 78.389 315.289 78.1055C315.441 77.8219 315.655 77.585 315.93 77.3945C316.205 77.2083 316.535 77.0687 316.92 76.9756C317.309 76.8825 317.743 76.8359 318.221 76.8359H319.503V76.2964C319.503 76.089 319.465 75.9028 319.389 75.7378C319.313 75.5728 319.205 75.431 319.065 75.3125C318.926 75.1982 318.754 75.1094 318.551 75.0459C318.352 74.9824 318.128 74.9507 317.878 74.9507C317.646 74.9507 317.436 74.9803 317.25 75.0396C317.068 75.0988 316.914 75.1771 316.787 75.2744C316.66 75.3717 316.56 75.4881 316.488 75.6235C316.421 75.7547 316.387 75.8923 316.387 76.0361H315.206C315.21 75.7865 315.274 75.541 315.396 75.2998C315.523 75.0586 315.705 74.8407 315.942 74.646C316.175 74.4556 316.459 74.3011 316.793 74.1826C317.132 74.0641 317.514 74.0049 317.942 74.0049C318.331 74.0049 318.693 74.0535 319.027 74.1509C319.362 74.244 319.652 74.3857 319.897 74.5762C320.138 74.7708 320.329 75.012 320.468 75.2998C320.608 75.5876 320.678 75.924 320.678 76.3091V79.502C320.678 79.7305 320.699 79.9738 320.741 80.2319C320.784 80.4858 320.843 80.708 320.919 80.8984V81H319.694ZM317.618 80.105C317.847 80.105 318.06 80.0754 318.259 80.0161C318.458 79.9569 318.64 79.8786 318.805 79.7812C318.966 79.6839 319.106 79.5739 319.224 79.4512C319.343 79.3242 319.436 79.193 319.503 79.0576V77.6675H318.412C318.005 77.6675 317.65 77.7035 317.345 77.7754C317.045 77.8431 316.806 77.9489 316.628 78.0928C316.501 78.1943 316.404 78.3149 316.336 78.4546C316.272 78.5942 316.241 78.7529 316.241 78.9307C316.241 79.0999 316.268 79.2565 316.323 79.4004C316.382 79.5443 316.469 79.667 316.583 79.7686C316.698 79.8743 316.842 79.9569 317.015 80.0161C317.189 80.0754 317.39 80.105 317.618 80.105ZM327.489 74.0049C327.705 74.0049 327.929 74.0197 328.162 74.0493C328.399 74.0789 328.576 74.1191 328.695 74.1699L328.536 75.3188C328.308 75.2681 328.09 75.2321 327.882 75.2109C327.679 75.1855 327.465 75.1729 327.241 75.1729C326.953 75.1729 326.693 75.2088 326.46 75.2808C326.228 75.3485 326.025 75.45 325.851 75.5854C325.694 75.7039 325.557 75.8499 325.438 76.0234C325.324 76.1927 325.229 76.3831 325.153 76.5947V81H323.972V74.1318H325.089L325.14 75.0522L325.146 75.2236C325.426 74.847 325.76 74.5508 326.149 74.335C326.543 74.1149 326.989 74.0049 327.489 74.0049ZM333.576 72.4688V74.1318H336.191V75.0396H333.576V78.772C333.576 79.0386 333.61 79.2586 333.678 79.4321C333.745 79.6056 333.839 79.7432 333.957 79.8447C334.076 79.9505 334.211 80.0246 334.363 80.0669C334.52 80.1092 334.685 80.1304 334.858 80.1304C334.985 80.1304 335.117 80.124 335.252 80.1113C335.387 80.0944 335.521 80.0754 335.652 80.0542C335.779 80.033 335.897 80.0119 336.007 79.9907C336.122 79.9653 336.215 79.9442 336.287 79.9272L336.452 80.7588C336.354 80.818 336.236 80.8709 336.096 80.9175C335.957 80.9598 335.804 80.9958 335.639 81.0254C335.474 81.0592 335.299 81.0846 335.112 81.1016C334.93 81.1185 334.748 81.127 334.566 81.127C334.262 81.127 333.976 81.0846 333.709 81C333.447 80.9111 333.219 80.7715 333.024 80.5811C332.829 80.3949 332.675 80.1536 332.561 79.8574C332.451 79.557 332.396 79.1951 332.396 78.772V75.0396H330.593V74.1318H332.396V72.4688H333.576ZM343.167 79.1782C343.167 79.0386 343.14 78.9137 343.085 78.8037C343.03 78.6895 342.937 78.5858 342.806 78.4927C342.674 78.3996 342.501 78.3149 342.285 78.2388C342.069 78.1584 341.801 78.0864 341.479 78.0229C341.085 77.9425 340.726 77.8452 340.4 77.731C340.078 77.6167 339.803 77.4792 339.575 77.3184C339.342 77.1618 339.162 76.9777 339.035 76.7661C338.908 76.5503 338.845 76.3006 338.845 76.0171C338.845 75.7378 338.91 75.4775 339.042 75.2363C339.173 74.9909 339.357 74.7772 339.594 74.5952C339.831 74.4132 340.112 74.2694 340.438 74.1636C340.768 74.0578 341.13 74.0049 341.523 74.0049C341.947 74.0049 342.327 74.0599 342.666 74.1699C343.005 74.2799 343.292 74.4323 343.529 74.627C343.766 74.8216 343.948 75.0501 344.075 75.3125C344.206 75.5706 344.272 75.8499 344.272 76.1504H343.098C343.098 76.0023 343.06 75.8584 342.983 75.7188C342.907 75.5749 342.801 75.4479 342.666 75.3379C342.531 75.2279 342.366 75.139 342.171 75.0713C341.98 75.0036 341.765 74.9697 341.523 74.9697C341.274 74.9697 341.054 74.9972 340.863 75.0522C340.677 75.1073 340.523 75.1813 340.4 75.2744C340.273 75.3675 340.178 75.4754 340.114 75.5981C340.051 75.7209 340.019 75.8478 340.019 75.979C340.019 76.1144 340.044 76.235 340.095 76.3408C340.146 76.4466 340.235 76.5418 340.362 76.6265C340.485 76.7111 340.65 76.7873 340.857 76.855C341.069 76.9227 341.335 76.9883 341.657 77.0518C342.08 77.1406 342.459 77.2443 342.793 77.3628C343.127 77.4771 343.409 77.6146 343.637 77.7754C343.866 77.9404 344.039 78.1309 344.158 78.3467C344.28 78.5625 344.342 78.8122 344.342 79.0957C344.342 79.4004 344.272 79.6776 344.132 79.9272C343.997 80.1769 343.806 80.3906 343.561 80.5684C343.316 80.7461 343.021 80.8836 342.679 80.981C342.336 81.0783 341.961 81.127 341.555 81.127C341.09 81.127 340.675 81.0656 340.311 80.9429C339.947 80.8159 339.64 80.6488 339.391 80.4414C339.137 80.2383 338.942 80.0013 338.807 79.7305C338.675 79.4596 338.61 79.1782 338.61 78.8862H339.784C339.801 79.1274 339.865 79.3306 339.975 79.4956C340.089 79.6606 340.231 79.7939 340.4 79.8955C340.565 79.9971 340.749 80.069 340.952 80.1113C341.155 80.1536 341.356 80.1748 341.555 80.1748C341.868 80.1748 342.141 80.1388 342.374 80.0669C342.607 79.9907 342.789 79.887 342.92 79.7559C343 79.6755 343.062 79.5866 343.104 79.4893C343.146 79.3919 343.167 79.2882 343.167 79.1782Z" fill="#AAAAAA"/>
<path d="M242.462 99.7559L237.079 97.3501V96.4233L242.462 94.0239V95.2681L238.577 96.7915L238.241 96.8994L238.577 97.0137L242.462 98.5117V99.7559ZM408.897 99.7495V98.5308L413.004 96.9819L413.385 96.874L413.004 96.7534L408.897 95.23V94.0176L414.502 96.417V97.3438L408.897 99.7495ZM273.692 119.756L268.31 117.35V116.423L273.692 114.024V115.268L269.808 116.792L269.471 116.899L269.808 117.014L273.692 118.512V119.756ZM354.244 119.75V118.531L358.351 116.982L358.732 116.874L358.351 116.753L354.244 115.23V114.018L359.849 116.417V117.344L354.244 119.75ZM371.161 120.003H375.68V121H369.986V111.758H371.161V120.003ZM377.826 114.132H381.336V119.984H383.577V121H377.826V119.984H380.162V115.154H377.826V114.132ZM380.009 112.329C380.009 112.228 380.024 112.132 380.054 112.043C380.088 111.955 380.138 111.878 380.206 111.815C380.261 111.76 380.331 111.718 380.416 111.688C380.504 111.654 380.604 111.637 380.714 111.637C380.824 111.637 380.921 111.654 381.006 111.688C381.09 111.718 381.16 111.76 381.215 111.815C381.283 111.874 381.334 111.948 381.368 112.037C381.402 112.126 381.418 112.223 381.418 112.329C381.418 112.52 381.359 112.678 381.241 112.805C381.122 112.932 380.947 112.996 380.714 112.996C380.477 112.996 380.299 112.932 380.181 112.805C380.066 112.678 380.009 112.52 380.009 112.329ZM385.449 121V114.132H386.503L386.585 115.147C386.687 115.004 386.797 114.872 386.916 114.754C387.038 114.631 387.167 114.525 387.303 114.437C387.506 114.301 387.726 114.197 387.963 114.125C388.204 114.049 388.458 114.009 388.725 114.005C389.084 114.005 389.41 114.056 389.702 114.157C389.998 114.259 390.25 114.417 390.458 114.633C390.665 114.849 390.824 115.124 390.934 115.458C391.048 115.789 391.105 116.182 391.105 116.639V121H389.931V116.665C389.931 116.36 389.897 116.102 389.829 115.89C389.761 115.679 389.662 115.507 389.531 115.376C389.395 115.245 389.23 115.15 389.036 115.09C388.845 115.031 388.625 115.001 388.375 115.001C388.16 115.001 387.959 115.033 387.772 115.097C387.586 115.156 387.415 115.238 387.258 115.344C387.131 115.437 387.013 115.545 386.903 115.668C386.797 115.791 386.704 115.926 386.624 116.074V121H385.449ZM395.313 117.794L394.45 118.626V121H393.27V111.25H394.45V117.217L395.218 116.392L397.472 114.132H398.9L396.12 116.995L399.325 121H397.833L395.313 117.794ZM414.229 119.756L408.847 117.35V116.423L414.229 114.024V115.268L410.345 116.792L410.008 116.899L410.345 117.014L414.229 118.512V119.756ZM418.229 121.793H417.175L421.034 111.758H422.082L418.229 121.793ZM432.32 119.75V118.531L436.427 116.982L436.808 116.874L436.427 116.753L432.32 115.23V114.018L437.925 116.417V117.344L432.32 119.75ZM242.462 139.756L237.079 137.35V136.423L242.462 134.024V135.268L238.577 136.792L238.241 136.899L238.577 137.014L242.462 138.512V139.756ZM246.461 141.793H245.407L249.267 131.758H250.314L246.461 141.793ZM276.168 139.75V138.531L280.275 136.982L280.656 136.874L280.275 136.753L276.168 135.23V134.018L281.773 136.417V137.344L276.168 139.75Z" fill="#333333"/>
<path d="M244.69 97.5088C244.69 96.9967 244.753 96.527 244.88 96.0996C245.012 95.668 245.198 95.2977 245.439 94.9888C245.676 94.6799 245.964 94.4386 246.302 94.2651C246.641 94.0916 247.02 94.0049 247.438 94.0049C247.849 94.0049 248.207 94.0747 248.511 94.2144C248.82 94.3498 249.087 94.5487 249.311 94.811V91.25H250.485V101H249.406L249.355 100.276C249.127 100.556 248.854 100.767 248.537 100.911C248.219 101.055 247.849 101.127 247.426 101.127C247.011 101.127 246.634 101.038 246.296 100.86C245.962 100.683 245.676 100.437 245.439 100.124C245.202 99.8109 245.018 99.4427 244.887 99.0195C244.756 98.5921 244.69 98.133 244.69 97.6421V97.5088ZM245.864 97.6421C245.864 97.9764 245.9 98.2938 245.972 98.5942C246.044 98.8947 246.156 99.1592 246.309 99.3877C246.457 99.6162 246.647 99.7982 246.88 99.9336C247.113 100.065 247.392 100.13 247.718 100.13C248.111 100.13 248.437 100.042 248.695 99.8638C248.953 99.686 249.159 99.4469 249.311 99.1465V95.96C249.159 95.6807 248.953 95.4521 248.695 95.2744C248.437 95.0924 248.116 95.0015 247.73 95.0015C247.4 95.0015 247.117 95.0692 246.88 95.2046C246.647 95.34 246.457 95.522 246.309 95.7505C246.156 95.9832 246.044 96.252 245.972 96.5566C245.9 96.8571 245.864 97.1745 245.864 97.5088V97.6421ZM252.904 94.1318H256.414V99.9844H258.655V101H252.904V99.9844H255.24V95.1538H252.904V94.1318ZM255.087 92.3291C255.087 92.2275 255.102 92.1323 255.132 92.0435C255.166 91.9546 255.216 91.8784 255.284 91.8149C255.339 91.7599 255.409 91.7176 255.494 91.688C255.583 91.6541 255.682 91.6372 255.792 91.6372C255.902 91.6372 255.999 91.6541 256.084 91.688C256.169 91.7176 256.238 91.7599 256.293 91.8149C256.361 91.8742 256.412 91.9482 256.446 92.0371C256.48 92.126 256.497 92.2233 256.497 92.3291C256.497 92.5195 256.437 92.6782 256.319 92.8052C256.2 92.9321 256.025 92.9956 255.792 92.9956C255.555 92.9956 255.377 92.9321 255.259 92.8052C255.145 92.6782 255.087 92.5195 255.087 92.3291ZM262.87 101L260.045 94.1318H261.251L263.219 99.3115L263.327 99.7368L263.441 99.3115L265.364 94.1318H266.564L263.765 101H262.87ZM280.656 121C280.609 120.911 280.571 120.801 280.542 120.67C280.516 120.535 280.497 120.395 280.484 120.251C280.366 120.369 280.233 120.482 280.084 120.587C279.941 120.693 279.782 120.786 279.608 120.867C279.431 120.947 279.242 121.011 279.043 121.057C278.845 121.104 278.633 121.127 278.409 121.127C278.045 121.127 277.715 121.074 277.418 120.968C277.126 120.862 276.879 120.719 276.676 120.537C276.468 120.359 276.308 120.147 276.193 119.902C276.083 119.652 276.028 119.383 276.028 119.096C276.028 118.719 276.102 118.389 276.25 118.105C276.403 117.822 276.617 117.585 276.892 117.395C277.167 117.208 277.497 117.069 277.882 116.976C278.271 116.882 278.705 116.836 279.183 116.836H280.465V116.296C280.465 116.089 280.427 115.903 280.351 115.738C280.275 115.573 280.167 115.431 280.027 115.312C279.888 115.198 279.716 115.109 279.513 115.046C279.314 114.982 279.09 114.951 278.84 114.951C278.608 114.951 278.398 114.98 278.212 115.04C278.03 115.099 277.875 115.177 277.749 115.274C277.622 115.372 277.522 115.488 277.45 115.624C277.382 115.755 277.349 115.892 277.349 116.036H276.168C276.172 115.786 276.236 115.541 276.358 115.3C276.485 115.059 276.667 114.841 276.904 114.646C277.137 114.456 277.421 114.301 277.755 114.183C278.093 114.064 278.476 114.005 278.904 114.005C279.293 114.005 279.655 114.054 279.989 114.151C280.324 114.244 280.613 114.386 280.859 114.576C281.1 114.771 281.291 115.012 281.43 115.3C281.57 115.588 281.64 115.924 281.64 116.309V119.502C281.64 119.73 281.661 119.974 281.703 120.232C281.745 120.486 281.805 120.708 281.881 120.898V121H280.656ZM278.58 120.105C278.809 120.105 279.022 120.075 279.221 120.016C279.42 119.957 279.602 119.879 279.767 119.781C279.928 119.684 280.068 119.574 280.186 119.451C280.305 119.324 280.398 119.193 280.465 119.058V117.667H279.374C278.967 117.667 278.612 117.703 278.307 117.775C278.007 117.843 277.768 117.949 277.59 118.093C277.463 118.194 277.366 118.315 277.298 118.455C277.234 118.594 277.203 118.753 277.203 118.931C277.203 119.1 277.23 119.257 277.285 119.4C277.344 119.544 277.431 119.667 277.545 119.769C277.66 119.874 277.804 119.957 277.977 120.016C278.151 120.075 278.352 120.105 278.58 120.105ZM429 121C428.954 120.911 428.916 120.801 428.886 120.67C428.861 120.535 428.842 120.395 428.829 120.251C428.711 120.369 428.577 120.482 428.429 120.587C428.285 120.693 428.127 120.786 427.953 120.867C427.775 120.947 427.587 121.011 427.388 121.057C427.189 121.104 426.978 121.127 426.753 121.127C426.389 121.127 426.059 121.074 425.763 120.968C425.471 120.862 425.224 120.719 425.021 120.537C424.813 120.359 424.652 120.147 424.538 119.902C424.428 119.652 424.373 119.383 424.373 119.096C424.373 118.719 424.447 118.389 424.595 118.105C424.748 117.822 424.961 117.585 425.236 117.395C425.511 117.208 425.841 117.069 426.227 116.976C426.616 116.882 427.05 116.836 427.528 116.836H428.81V116.296C428.81 116.089 428.772 115.903 428.696 115.738C428.62 115.573 428.512 115.431 428.372 115.312C428.232 115.198 428.061 115.109 427.858 115.046C427.659 114.982 427.435 114.951 427.185 114.951C426.952 114.951 426.743 114.98 426.557 115.04C426.375 115.099 426.22 115.177 426.093 115.274C425.966 115.372 425.867 115.488 425.795 115.624C425.727 115.755 425.693 115.892 425.693 116.036H424.513C424.517 115.786 424.58 115.541 424.703 115.3C424.83 115.059 425.012 114.841 425.249 114.646C425.482 114.456 425.765 114.301 426.1 114.183C426.438 114.064 426.821 114.005 427.249 114.005C427.638 114.005 428 114.054 428.334 114.151C428.668 114.244 428.958 114.386 429.204 114.576C429.445 114.771 429.635 115.012 429.775 115.3C429.915 115.588 429.984 115.924 429.984 116.309V119.502C429.984 119.73 430.006 119.974 430.048 120.232C430.09 120.486 430.149 120.708 430.226 120.898V121H429ZM426.925 120.105C427.153 120.105 427.367 120.075 427.566 120.016C427.765 119.957 427.947 119.879 428.112 119.781C428.273 119.684 428.412 119.574 428.531 119.451C428.649 119.324 428.742 119.193 428.81 119.058V117.667H427.718C427.312 117.667 426.957 117.703 426.652 117.775C426.351 117.843 426.112 117.949 425.935 118.093C425.808 118.194 425.71 118.315 425.643 118.455C425.579 118.594 425.547 118.753 425.547 118.931C425.547 119.1 425.575 119.257 425.63 119.4C425.689 119.544 425.776 119.667 425.89 119.769C426.004 119.874 426.148 119.957 426.322 120.016C426.495 120.075 426.696 120.105 426.925 120.105ZM252.498 137.509C252.498 136.997 252.561 136.527 252.688 136.1C252.819 135.668 253.005 135.298 253.247 134.989C253.484 134.68 253.771 134.439 254.11 134.265C254.448 134.092 254.827 134.005 255.246 134.005C255.657 134.005 256.014 134.075 256.319 134.214C256.628 134.35 256.894 134.549 257.119 134.811V131.25H258.293V141H257.214L257.163 140.276C256.935 140.556 256.662 140.767 256.344 140.911C256.027 141.055 255.657 141.127 255.233 141.127C254.819 141.127 254.442 141.038 254.104 140.86C253.769 140.683 253.484 140.437 253.247 140.124C253.01 139.811 252.826 139.443 252.694 139.02C252.563 138.592 252.498 138.133 252.498 137.642V137.509ZM253.672 137.642C253.672 137.976 253.708 138.294 253.78 138.594C253.852 138.895 253.964 139.159 254.116 139.388C254.264 139.616 254.455 139.798 254.688 139.934C254.92 140.065 255.2 140.13 255.525 140.13C255.919 140.13 256.245 140.042 256.503 139.864C256.761 139.686 256.966 139.447 257.119 139.146V135.96C256.966 135.681 256.761 135.452 256.503 135.274C256.245 135.092 255.923 135.001 255.538 135.001C255.208 135.001 254.924 135.069 254.688 135.205C254.455 135.34 254.264 135.522 254.116 135.75C253.964 135.983 253.852 136.252 253.78 136.557C253.708 136.857 253.672 137.174 253.672 137.509V137.642ZM260.711 134.132H264.222V139.984H266.462V141H260.711V139.984H263.047V135.154H260.711V134.132ZM262.895 132.329C262.895 132.228 262.91 132.132 262.939 132.043C262.973 131.955 263.024 131.878 263.092 131.815C263.147 131.76 263.217 131.718 263.301 131.688C263.39 131.654 263.49 131.637 263.6 131.637C263.71 131.637 263.807 131.654 263.892 131.688C263.976 131.718 264.046 131.76 264.101 131.815C264.169 131.874 264.22 131.948 264.253 132.037C264.287 132.126 264.304 132.223 264.304 132.329C264.304 132.52 264.245 132.678 264.126 132.805C264.008 132.932 263.832 132.996 263.6 132.996C263.363 132.996 263.185 132.932 263.066 132.805C262.952 132.678 262.895 132.52 262.895 132.329ZM270.677 141L267.853 134.132H269.059L271.026 139.312L271.134 139.737L271.249 139.312L273.172 134.132H274.372L271.572 141H270.677Z" fill="#184291"/>
<path d="M279.069 100.175C279.28 100.175 279.486 100.141 279.685 100.073C279.888 100.006 280.068 99.9103 280.224 99.7876C280.381 99.6691 280.506 99.5295 280.599 99.3687C280.696 99.2036 280.747 99.0259 280.751 98.8354H281.862C281.858 99.1401 281.777 99.4321 281.621 99.7114C281.468 99.9865 281.263 100.228 281.005 100.435C280.747 100.647 280.451 100.816 280.116 100.943C279.782 101.066 279.433 101.127 279.069 101.127C278.548 101.127 278.093 101.034 277.704 100.848C277.315 100.661 276.991 100.41 276.733 100.092C276.471 99.7791 276.274 99.4173 276.143 99.0068C276.011 98.5921 275.946 98.1562 275.946 97.6992V97.4326C275.946 96.9798 276.011 96.5461 276.143 96.1313C276.274 95.7166 276.471 95.3506 276.733 95.0332C276.991 94.7201 277.315 94.4704 277.704 94.2842C278.093 94.098 278.548 94.0049 279.069 94.0049C279.475 94.0049 279.847 94.0705 280.186 94.2017C280.529 94.3286 280.825 94.5021 281.075 94.7222C281.32 94.9465 281.513 95.2109 281.652 95.5156C281.792 95.8203 281.862 96.1462 281.862 96.4932H280.751C280.747 96.2858 280.7 96.0911 280.611 95.9092C280.527 95.723 280.41 95.5601 280.262 95.4204C280.114 95.2808 279.936 95.1707 279.729 95.0903C279.526 95.0099 279.306 94.9697 279.069 94.9697C278.705 94.9697 278.398 95.0438 278.148 95.1919C277.903 95.3358 277.704 95.5241 277.552 95.7568C277.399 95.9938 277.289 96.2583 277.222 96.5503C277.158 96.8423 277.126 97.1364 277.126 97.4326V97.6992C277.126 97.9997 277.158 98.298 277.222 98.5942C277.289 98.8862 277.399 99.1486 277.552 99.3813C277.7 99.6183 277.897 99.8109 278.142 99.959C278.392 100.103 278.701 100.175 279.069 100.175ZM284.134 91.25H287.645V99.9844H289.885V101H284.134V99.9844H286.47V92.272H284.134V91.25ZM296.271 101C296.224 100.911 296.186 100.801 296.157 100.67C296.131 100.535 296.112 100.395 296.1 100.251C295.981 100.369 295.848 100.482 295.7 100.587C295.556 100.693 295.397 100.786 295.224 100.867C295.046 100.947 294.858 101.011 294.659 101.057C294.46 101.104 294.248 101.127 294.024 101.127C293.66 101.127 293.33 101.074 293.034 100.968C292.742 100.862 292.494 100.719 292.291 100.537C292.084 100.359 291.923 100.147 291.809 99.9019C291.699 99.6522 291.644 99.3835 291.644 99.0957C291.644 98.7191 291.718 98.389 291.866 98.1055C292.018 97.8219 292.232 97.585 292.507 97.3945C292.782 97.2083 293.112 97.0687 293.497 96.9756C293.886 96.8825 294.32 96.8359 294.798 96.8359H296.081V96.2964C296.081 96.089 296.042 95.9028 295.966 95.7378C295.89 95.5728 295.782 95.431 295.643 95.3125C295.503 95.1982 295.332 95.1094 295.128 95.0459C294.93 94.9824 294.705 94.9507 294.456 94.9507C294.223 94.9507 294.013 94.9803 293.827 95.0396C293.645 95.0988 293.491 95.1771 293.364 95.2744C293.237 95.3717 293.137 95.4881 293.065 95.6235C292.998 95.7547 292.964 95.8923 292.964 96.0361H291.783C291.787 95.7865 291.851 95.541 291.974 95.2998C292.101 95.0586 292.283 94.8407 292.52 94.646C292.752 94.4556 293.036 94.3011 293.37 94.1826C293.709 94.0641 294.092 94.0049 294.519 94.0049C294.908 94.0049 295.27 94.0535 295.604 94.1509C295.939 94.244 296.229 94.3857 296.474 94.5762C296.715 94.7708 296.906 95.012 297.045 95.2998C297.185 95.5876 297.255 95.924 297.255 96.3091V99.502C297.255 99.7305 297.276 99.9738 297.318 100.232C297.361 100.486 297.42 100.708 297.496 100.898V101H296.271ZM294.195 100.105C294.424 100.105 294.638 100.075 294.836 100.016C295.035 99.9569 295.217 99.8786 295.382 99.7812C295.543 99.6839 295.683 99.5739 295.801 99.4512C295.92 99.3242 296.013 99.193 296.081 99.0576V97.6675H294.989C294.583 97.6675 294.227 97.7035 293.922 97.7754C293.622 97.8431 293.383 97.9489 293.205 98.0928C293.078 98.1943 292.981 98.3149 292.913 98.4546C292.85 98.5942 292.818 98.7529 292.818 98.9307C292.818 99.0999 292.845 99.2565 292.9 99.4004C292.96 99.5443 293.046 99.667 293.161 99.7686C293.275 99.8743 293.419 99.9569 293.592 100.016C293.766 100.075 293.967 100.105 294.195 100.105ZM304.129 99.1782C304.129 99.0386 304.102 98.9137 304.047 98.8037C303.992 98.6895 303.899 98.5858 303.768 98.4927C303.636 98.3996 303.463 98.3149 303.247 98.2388C303.031 98.1584 302.763 98.0864 302.441 98.0229C302.047 97.9425 301.688 97.8452 301.362 97.731C301.04 97.6167 300.765 97.4792 300.537 97.3184C300.304 97.1618 300.124 96.9777 299.997 96.7661C299.87 96.5503 299.807 96.3006 299.807 96.0171C299.807 95.7378 299.872 95.4775 300.003 95.2363C300.135 94.9909 300.319 94.7772 300.556 94.5952C300.793 94.4132 301.074 94.2694 301.4 94.1636C301.73 94.0578 302.092 94.0049 302.485 94.0049C302.909 94.0049 303.289 94.0599 303.628 94.1699C303.966 94.2799 304.254 94.4323 304.491 94.627C304.728 94.8216 304.91 95.0501 305.037 95.3125C305.168 95.5706 305.234 95.8499 305.234 96.1504H304.06C304.06 96.0023 304.021 95.8584 303.945 95.7188C303.869 95.5749 303.763 95.4479 303.628 95.3379C303.493 95.2279 303.327 95.139 303.133 95.0713C302.942 95.0036 302.727 94.9697 302.485 94.9697C302.236 94.9697 302.016 94.9972 301.825 95.0522C301.639 95.1073 301.485 95.1813 301.362 95.2744C301.235 95.3675 301.14 95.4754 301.076 95.5981C301.013 95.7209 300.981 95.8478 300.981 95.979C300.981 96.1144 301.006 96.235 301.057 96.3408C301.108 96.4466 301.197 96.5418 301.324 96.6265C301.446 96.7111 301.611 96.7873 301.819 96.855C302.03 96.9227 302.297 96.9883 302.619 97.0518C303.042 97.1406 303.421 97.2443 303.755 97.3628C304.089 97.4771 304.371 97.6146 304.599 97.7754C304.828 97.9404 305.001 98.1309 305.12 98.3467C305.242 98.5625 305.304 98.8122 305.304 99.0957C305.304 99.4004 305.234 99.6776 305.094 99.9272C304.959 100.177 304.768 100.391 304.523 100.568C304.278 100.746 303.983 100.884 303.641 100.981C303.298 101.078 302.923 101.127 302.517 101.127C302.052 101.127 301.637 101.066 301.273 100.943C300.909 100.816 300.602 100.649 300.353 100.441C300.099 100.238 299.904 100.001 299.769 99.7305C299.637 99.4596 299.572 99.1782 299.572 98.8862H300.746C300.763 99.1274 300.826 99.3306 300.937 99.4956C301.051 99.6606 301.193 99.7939 301.362 99.8955C301.527 99.9971 301.711 100.069 301.914 100.111C302.117 100.154 302.318 100.175 302.517 100.175C302.83 100.175 303.103 100.139 303.336 100.067C303.569 99.9907 303.751 99.887 303.882 99.7559C303.962 99.6755 304.024 99.5866 304.066 99.4893C304.108 99.3919 304.129 99.2882 304.129 99.1782ZM311.937 99.1782C311.937 99.0386 311.91 98.9137 311.854 98.8037C311.799 98.6895 311.706 98.5858 311.575 98.4927C311.444 98.3996 311.271 98.3149 311.055 98.2388C310.839 98.1584 310.57 98.0864 310.249 98.0229C309.855 97.9425 309.495 97.8452 309.169 97.731C308.848 97.6167 308.573 97.4792 308.344 97.3184C308.111 97.1618 307.932 96.9777 307.805 96.7661C307.678 96.5503 307.614 96.3006 307.614 96.0171C307.614 95.7378 307.68 95.4775 307.811 95.2363C307.942 94.9909 308.126 94.7772 308.363 94.5952C308.6 94.4132 308.882 94.2694 309.208 94.1636C309.538 94.0578 309.899 94.0049 310.293 94.0049C310.716 94.0049 311.097 94.0599 311.436 94.1699C311.774 94.2799 312.062 94.4323 312.299 94.627C312.536 94.8216 312.718 95.0501 312.845 95.3125C312.976 95.5706 313.042 95.8499 313.042 96.1504H311.867C311.867 96.0023 311.829 95.8584 311.753 95.7188C311.677 95.5749 311.571 95.4479 311.436 95.3379C311.3 95.2279 311.135 95.139 310.94 95.0713C310.75 95.0036 310.534 94.9697 310.293 94.9697C310.043 94.9697 309.823 94.9972 309.633 95.0522C309.447 95.1073 309.292 95.1813 309.169 95.2744C309.042 95.3675 308.947 95.4754 308.884 95.5981C308.82 95.7209 308.789 95.8478 308.789 95.979C308.789 96.1144 308.814 96.235 308.865 96.3408C308.916 96.4466 309.004 96.5418 309.131 96.6265C309.254 96.7111 309.419 96.7873 309.626 96.855C309.838 96.9227 310.105 96.9883 310.426 97.0518C310.849 97.1406 311.228 97.2443 311.562 97.3628C311.897 97.4771 312.178 97.6146 312.407 97.7754C312.635 97.9404 312.809 98.1309 312.927 98.3467C313.05 98.5625 313.111 98.8122 313.111 99.0957C313.111 99.4004 313.042 99.6776 312.902 99.9272C312.766 100.177 312.576 100.391 312.331 100.568C312.085 100.746 311.791 100.884 311.448 100.981C311.105 101.078 310.731 101.127 310.325 101.127C309.859 101.127 309.444 101.066 309.081 100.943C308.717 100.816 308.41 100.649 308.16 100.441C307.906 100.238 307.712 100.001 307.576 99.7305C307.445 99.4596 307.379 99.1782 307.379 98.8862H308.554C308.571 99.1274 308.634 99.3306 308.744 99.4956C308.858 99.6606 309 99.7939 309.169 99.8955C309.334 99.9971 309.519 100.069 309.722 100.111C309.925 100.154 310.126 100.175 310.325 100.175C310.638 100.175 310.911 100.139 311.144 100.067C311.376 99.9907 311.558 99.887 311.689 99.7559C311.77 99.6755 311.831 99.5866 311.874 99.4893C311.916 99.3919 311.937 99.2882 311.937 99.1782ZM320.843 96.0488H315.174V95.0269H320.843V96.0488ZM320.843 98.6831H315.174V97.6675H320.843V98.6831ZM292.932 115.154C293.025 115.014 293.129 114.887 293.243 114.773C293.357 114.654 293.478 114.551 293.605 114.462C293.808 114.314 294.03 114.202 294.271 114.125C294.517 114.049 294.777 114.009 295.052 114.005C295.412 114.005 295.738 114.058 296.03 114.164C296.326 114.265 296.578 114.426 296.785 114.646C296.993 114.866 297.151 115.145 297.261 115.484C297.375 115.818 297.433 116.216 297.433 116.677V121H296.258V116.665C296.258 116.394 296.227 116.157 296.163 115.954C296.1 115.746 296.007 115.575 295.884 115.439C295.753 115.291 295.588 115.181 295.389 115.109C295.19 115.033 294.961 114.997 294.703 115.001C294.492 115.001 294.291 115.031 294.1 115.09C293.91 115.15 293.734 115.234 293.573 115.344C293.446 115.429 293.328 115.528 293.218 115.643C293.112 115.753 293.017 115.875 292.932 116.011V121H291.758V111.25H292.932V115.154ZM304.066 114.005C304.282 114.005 304.506 114.02 304.739 114.049C304.976 114.079 305.153 114.119 305.272 114.17L305.113 115.319C304.885 115.268 304.667 115.232 304.459 115.211C304.256 115.186 304.043 115.173 303.818 115.173C303.531 115.173 303.27 115.209 303.038 115.281C302.805 115.348 302.602 115.45 302.428 115.585C302.272 115.704 302.134 115.85 302.016 116.023C301.901 116.193 301.806 116.383 301.73 116.595V121H300.549V114.132H301.667L301.717 115.052L301.724 115.224C302.003 114.847 302.337 114.551 302.727 114.335C303.12 114.115 303.567 114.005 304.066 114.005ZM310.407 121.127C309.925 121.127 309.48 121.044 309.074 120.879C308.672 120.714 308.327 120.484 308.04 120.188C307.752 119.891 307.528 119.54 307.367 119.134C307.206 118.728 307.125 118.285 307.125 117.807V117.541C307.125 116.986 307.214 116.491 307.392 116.055C307.57 115.615 307.807 115.243 308.103 114.938C308.395 114.638 308.727 114.407 309.1 114.246C309.476 114.085 309.861 114.005 310.255 114.005C310.75 114.005 311.182 114.092 311.55 114.265C311.922 114.434 312.231 114.669 312.477 114.97C312.722 115.274 312.904 115.632 313.022 116.042C313.145 116.453 313.207 116.897 313.207 117.375V117.902H308.3V117.947C308.329 118.281 308.395 118.575 308.497 118.829C308.602 119.083 308.746 119.307 308.928 119.502C309.114 119.709 309.339 119.872 309.601 119.991C309.863 120.109 310.153 120.168 310.471 120.168C310.89 120.168 311.262 120.084 311.588 119.915C311.914 119.745 312.185 119.521 312.4 119.242L313.118 119.8C312.889 120.147 312.546 120.456 312.089 120.727C311.637 120.994 311.076 121.127 310.407 121.127ZM310.255 114.97C310.018 114.97 309.794 115.014 309.582 115.103C309.37 115.188 309.18 115.312 309.011 115.478C308.841 115.647 308.698 115.854 308.579 116.1C308.465 116.341 308.384 116.62 308.338 116.938H312.032V116.88C312.032 116.669 311.992 116.442 311.912 116.201C311.831 115.956 311.719 115.744 311.575 115.566C311.431 115.389 311.249 115.245 311.029 115.135C310.813 115.025 310.555 114.97 310.255 114.97ZM316.933 121V115.04H315.041V114.132H316.933V113.649C316.933 113.209 316.996 112.824 317.123 112.494C317.254 112.16 317.438 111.881 317.675 111.656C317.908 111.432 318.189 111.263 318.52 111.148C318.85 111.034 319.218 110.977 319.624 110.977C319.793 110.977 319.96 110.988 320.125 111.009C320.291 111.026 320.453 111.049 320.614 111.079C320.72 111.1 320.826 111.123 320.932 111.148C321.037 111.17 321.145 111.195 321.255 111.225L321.116 112.196C320.942 112.137 320.739 112.086 320.506 112.043C320.278 111.997 320.032 111.974 319.77 111.974C319.503 111.974 319.266 112.007 319.059 112.075C318.856 112.139 318.687 112.236 318.551 112.367C318.407 112.503 318.297 112.678 318.221 112.894C318.149 113.11 318.113 113.362 318.113 113.649V114.132H320.76V115.04H318.113V121H316.933ZM328.65 116.049H322.982V115.027H328.65V116.049ZM328.65 118.683H322.982V117.667H328.65V118.683Z" fill="#F45C59"/>
<path d="M325.54 92.0435C325.54 92.2424 325.515 92.4518 325.464 92.6719C325.417 92.8919 325.347 93.1077 325.254 93.3193C325.157 93.5352 325.041 93.7404 324.905 93.9351C324.77 94.1297 324.613 94.3032 324.436 94.4556L323.794 93.9985C323.993 93.6981 324.141 93.3913 324.239 93.0781C324.34 92.765 324.391 92.4264 324.391 92.0625V91.1104H325.54V92.0435ZM327.647 92.0435C327.647 92.2424 327.622 92.4518 327.571 92.6719C327.525 92.8919 327.455 93.1077 327.362 93.3193C327.264 93.5352 327.148 93.7404 327.013 93.9351C326.877 94.1297 326.721 94.3032 326.543 94.4556L325.902 93.9985C326.101 93.6981 326.249 93.3913 326.346 93.0781C326.448 92.765 326.499 92.4264 326.499 92.0625V91.1104H327.647V92.0435ZM333.722 100.175C333.934 100.175 334.139 100.141 334.338 100.073C334.541 100.006 334.721 99.9103 334.877 99.7876C335.034 99.6691 335.159 99.5295 335.252 99.3687C335.349 99.2036 335.4 99.0259 335.404 98.8354H336.515C336.511 99.1401 336.431 99.4321 336.274 99.7114C336.122 99.9865 335.916 100.228 335.658 100.435C335.4 100.647 335.104 100.816 334.77 100.943C334.435 101.066 334.086 101.127 333.722 101.127C333.202 101.127 332.747 101.034 332.357 100.848C331.968 100.661 331.644 100.41 331.386 100.092C331.124 99.7791 330.927 99.4173 330.796 99.0068C330.665 98.5921 330.599 98.1562 330.599 97.6992V97.4326C330.599 96.9798 330.665 96.5461 330.796 96.1313C330.927 95.7166 331.124 95.3506 331.386 95.0332C331.644 94.7201 331.968 94.4704 332.357 94.2842C332.747 94.098 333.202 94.0049 333.722 94.0049C334.128 94.0049 334.501 94.0705 334.839 94.2017C335.182 94.3286 335.478 94.5021 335.728 94.7222C335.973 94.9465 336.166 95.2109 336.306 95.5156C336.445 95.8203 336.515 96.1462 336.515 96.4932H335.404C335.4 96.2858 335.354 96.0911 335.265 95.9092C335.18 95.723 335.064 95.5601 334.916 95.4204C334.767 95.2808 334.59 95.1707 334.382 95.0903C334.179 95.0099 333.959 94.9697 333.722 94.9697C333.358 94.9697 333.051 95.0438 332.802 95.1919C332.556 95.3358 332.357 95.5241 332.205 95.7568C332.053 95.9938 331.943 96.2583 331.875 96.5503C331.812 96.8423 331.78 97.1364 331.78 97.4326V97.6992C331.78 97.9997 331.812 98.298 331.875 98.5942C331.943 98.8862 332.053 99.1486 332.205 99.3813C332.353 99.6183 332.55 99.8109 332.795 99.959C333.045 100.103 333.354 100.175 333.722 100.175ZM338.788 91.25H342.298V99.9844H344.539V101H338.788V99.9844H341.124V92.272H338.788V91.25ZM350.924 101C350.878 100.911 350.84 100.801 350.81 100.67C350.785 100.535 350.766 100.395 350.753 100.251C350.634 100.369 350.501 100.482 350.353 100.587C350.209 100.693 350.05 100.786 349.877 100.867C349.699 100.947 349.511 101.011 349.312 101.057C349.113 101.104 348.902 101.127 348.677 101.127C348.313 101.127 347.983 101.074 347.687 100.968C347.395 100.862 347.147 100.719 346.944 100.537C346.737 100.359 346.576 100.147 346.462 99.9019C346.352 99.6522 346.297 99.3835 346.297 99.0957C346.297 98.7191 346.371 98.389 346.519 98.1055C346.671 97.8219 346.885 97.585 347.16 97.3945C347.435 97.2083 347.765 97.0687 348.15 96.9756C348.54 96.8825 348.973 96.8359 349.452 96.8359H350.734V96.2964C350.734 96.089 350.696 95.9028 350.62 95.7378C350.543 95.5728 350.436 95.431 350.296 95.3125C350.156 95.1982 349.985 95.1094 349.782 95.0459C349.583 94.9824 349.359 94.9507 349.109 94.9507C348.876 94.9507 348.667 94.9803 348.48 95.0396C348.299 95.0988 348.144 95.1771 348.017 95.2744C347.89 95.3717 347.791 95.4881 347.719 95.6235C347.651 95.7547 347.617 95.8923 347.617 96.0361H346.437C346.441 95.7865 346.504 95.541 346.627 95.2998C346.754 95.0586 346.936 94.8407 347.173 94.646C347.406 94.4556 347.689 94.3011 348.023 94.1826C348.362 94.0641 348.745 94.0049 349.172 94.0049C349.562 94.0049 349.924 94.0535 350.258 94.1509C350.592 94.244 350.882 94.3857 351.127 94.5762C351.369 94.7708 351.559 95.012 351.699 95.2998C351.838 95.5876 351.908 95.924 351.908 96.3091V99.502C351.908 99.7305 351.929 99.9738 351.972 100.232C352.014 100.486 352.073 100.708 352.149 100.898V101H350.924ZM348.849 100.105C349.077 100.105 349.291 100.075 349.49 100.016C349.689 99.9569 349.871 99.8786 350.036 99.7812C350.196 99.6839 350.336 99.5739 350.455 99.4512C350.573 99.3242 350.666 99.193 350.734 99.0576V97.6675H349.642C349.236 97.6675 348.88 97.7035 348.576 97.7754C348.275 97.8431 348.036 97.9489 347.858 98.0928C347.731 98.1943 347.634 98.3149 347.566 98.4546C347.503 98.5942 347.471 98.7529 347.471 98.9307C347.471 99.0999 347.499 99.2565 347.554 99.4004C347.613 99.5443 347.7 99.667 347.814 99.7686C347.928 99.8743 348.072 99.9569 348.246 100.016C348.419 100.075 348.62 100.105 348.849 100.105ZM358.783 99.1782C358.783 99.0386 358.755 98.9137 358.7 98.8037C358.645 98.6895 358.552 98.5858 358.421 98.4927C358.29 98.3996 358.116 98.3149 357.9 98.2388C357.685 98.1584 357.416 98.0864 357.094 98.0229C356.701 97.9425 356.341 97.8452 356.015 97.731C355.694 97.6167 355.418 97.4792 355.19 97.3184C354.957 97.1618 354.777 96.9777 354.65 96.7661C354.523 96.5503 354.46 96.3006 354.46 96.0171C354.46 95.7378 354.526 95.4775 354.657 95.2363C354.788 94.9909 354.972 94.7772 355.209 94.5952C355.446 94.4132 355.727 94.2694 356.053 94.1636C356.383 94.0578 356.745 94.0049 357.139 94.0049C357.562 94.0049 357.943 94.0599 358.281 94.1699C358.62 94.2799 358.908 94.4323 359.145 94.627C359.382 94.8216 359.563 95.0501 359.69 95.3125C359.822 95.5706 359.887 95.8499 359.887 96.1504H358.713C358.713 96.0023 358.675 95.8584 358.599 95.7188C358.522 95.5749 358.417 95.4479 358.281 95.3379C358.146 95.2279 357.981 95.139 357.786 95.0713C357.596 95.0036 357.38 94.9697 357.139 94.9697C356.889 94.9697 356.669 94.9972 356.479 95.0522C356.292 95.1073 356.138 95.1813 356.015 95.2744C355.888 95.3675 355.793 95.4754 355.729 95.5981C355.666 95.7209 355.634 95.8478 355.634 95.979C355.634 96.1144 355.66 96.235 355.71 96.3408C355.761 96.4466 355.85 96.5418 355.977 96.6265C356.1 96.7111 356.265 96.7873 356.472 96.855C356.684 96.9227 356.95 96.9883 357.272 97.0518C357.695 97.1406 358.074 97.2443 358.408 97.3628C358.743 97.4771 359.024 97.6146 359.252 97.7754C359.481 97.9404 359.654 98.1309 359.773 98.3467C359.896 98.5625 359.957 98.8122 359.957 99.0957C359.957 99.4004 359.887 99.6776 359.748 99.9272C359.612 100.177 359.422 100.391 359.176 100.568C358.931 100.746 358.637 100.884 358.294 100.981C357.951 101.078 357.577 101.127 357.17 101.127C356.705 101.127 356.29 101.066 355.926 100.943C355.562 100.816 355.256 100.649 355.006 100.441C354.752 100.238 354.557 100.001 354.422 99.7305C354.291 99.4596 354.225 99.1782 354.225 98.8862H355.399C355.416 99.1274 355.48 99.3306 355.59 99.4956C355.704 99.6606 355.846 99.7939 356.015 99.8955C356.18 99.9971 356.364 100.069 356.567 100.111C356.771 100.154 356.972 100.175 357.17 100.175C357.484 100.175 357.757 100.139 357.989 100.067C358.222 99.9907 358.404 99.887 358.535 99.7559C358.616 99.6755 358.677 99.5866 358.719 99.4893C358.762 99.3919 358.783 99.2882 358.783 99.1782ZM366.59 99.1782C366.59 99.0386 366.563 98.9137 366.508 98.8037C366.453 98.6895 366.36 98.5858 366.229 98.4927C366.097 98.3996 365.924 98.3149 365.708 98.2388C365.492 98.1584 365.223 98.0864 364.902 98.0229C364.508 97.9425 364.149 97.8452 363.823 97.731C363.501 97.6167 363.226 97.4792 362.998 97.3184C362.765 97.1618 362.585 96.9777 362.458 96.7661C362.331 96.5503 362.268 96.3006 362.268 96.0171C362.268 95.7378 362.333 95.4775 362.464 95.2363C362.596 94.9909 362.78 94.7772 363.017 94.5952C363.254 94.4132 363.535 94.2694 363.861 94.1636C364.191 94.0578 364.553 94.0049 364.946 94.0049C365.369 94.0049 365.75 94.0599 366.089 94.1699C366.427 94.2799 366.715 94.4323 366.952 94.627C367.189 94.8216 367.371 95.0501 367.498 95.3125C367.629 95.5706 367.695 95.8499 367.695 96.1504H366.521C366.521 96.0023 366.482 95.8584 366.406 95.7188C366.33 95.5749 366.224 95.4479 366.089 95.3379C365.953 95.2279 365.788 95.139 365.594 95.0713C365.403 95.0036 365.188 94.9697 364.946 94.9697C364.697 94.9697 364.477 94.9972 364.286 95.0522C364.1 95.1073 363.945 95.1813 363.823 95.2744C363.696 95.3675 363.601 95.4754 363.537 95.5981C363.474 95.7209 363.442 95.8478 363.442 95.979C363.442 96.1144 363.467 96.235 363.518 96.3408C363.569 96.4466 363.658 96.5418 363.785 96.6265C363.907 96.7111 364.072 96.7873 364.28 96.855C364.491 96.9227 364.758 96.9883 365.08 97.0518C365.503 97.1406 365.882 97.2443 366.216 97.3628C366.55 97.4771 366.832 97.6146 367.06 97.7754C367.289 97.9404 367.462 98.1309 367.581 98.3467C367.703 98.5625 367.765 98.8122 367.765 99.0957C367.765 99.4004 367.695 99.6776 367.555 99.9272C367.42 100.177 367.229 100.391 366.984 100.568C366.738 100.746 366.444 100.884 366.102 100.981C365.759 101.078 365.384 101.127 364.978 101.127C364.513 101.127 364.098 101.066 363.734 100.943C363.37 100.816 363.063 100.649 362.813 100.441C362.56 100.238 362.365 100.001 362.229 99.7305C362.098 99.4596 362.033 99.1782 362.033 98.8862H363.207C363.224 99.1274 363.287 99.3306 363.397 99.4956C363.512 99.6606 363.653 99.7939 363.823 99.8955C363.988 99.9971 364.172 100.069 364.375 100.111C364.578 100.154 364.779 100.175 364.978 100.175C365.291 100.175 365.564 100.139 365.797 100.067C366.03 99.9907 366.212 99.887 366.343 99.7559C366.423 99.6755 366.485 99.5866 366.527 99.4893C366.569 99.3919 366.59 99.2882 366.59 99.1782ZM375.623 101H374.43L370.843 94.0938L370.824 101H369.637V91.7578H370.831L374.417 98.6514L374.436 91.7578H375.623V101ZM382.155 101C382.108 100.911 382.07 100.801 382.041 100.67C382.015 100.535 381.996 100.395 381.983 100.251C381.865 100.369 381.732 100.482 381.583 100.587C381.44 100.693 381.281 100.786 381.107 100.867C380.93 100.947 380.741 101.011 380.542 101.057C380.344 101.104 380.132 101.127 379.908 101.127C379.544 101.127 379.214 101.074 378.917 100.968C378.625 100.862 378.378 100.719 378.175 100.537C377.967 100.359 377.807 100.147 377.692 99.9019C377.582 99.6522 377.527 99.3835 377.527 99.0957C377.527 98.7191 377.601 98.389 377.75 98.1055C377.902 97.8219 378.116 97.585 378.391 97.3945C378.666 97.2083 378.996 97.0687 379.381 96.9756C379.77 96.8825 380.204 96.8359 380.682 96.8359H381.964V96.2964C381.964 96.089 381.926 95.9028 381.85 95.7378C381.774 95.5728 381.666 95.431 381.526 95.3125C381.387 95.1982 381.215 95.1094 381.012 95.0459C380.813 94.9824 380.589 94.9507 380.339 94.9507C380.107 94.9507 379.897 94.9803 379.711 95.0396C379.529 95.0988 379.375 95.1771 379.248 95.2744C379.121 95.3717 379.021 95.4881 378.949 95.6235C378.882 95.7547 378.848 95.8923 378.848 96.0361H377.667C377.671 95.7865 377.735 95.541 377.857 95.2998C377.984 95.0586 378.166 94.8407 378.403 94.646C378.636 94.4556 378.92 94.3011 379.254 94.1826C379.592 94.0641 379.975 94.0049 380.403 94.0049C380.792 94.0049 381.154 94.0535 381.488 94.1509C381.823 94.244 382.112 94.3857 382.358 94.5762C382.599 94.7708 382.79 95.012 382.929 95.2998C383.069 95.5876 383.139 95.924 383.139 96.3091V99.502C383.139 99.7305 383.16 99.9738 383.202 100.232C383.244 100.486 383.304 100.708 383.38 100.898V101H382.155ZM380.079 100.105C380.308 100.105 380.521 100.075 380.72 100.016C380.919 99.9569 381.101 99.8786 381.266 99.7812C381.427 99.6839 381.567 99.5739 381.685 99.4512C381.804 99.3242 381.897 99.193 381.964 99.0576V97.6675H380.873C380.466 97.6675 380.111 97.7035 379.806 97.7754C379.506 97.8431 379.267 97.9489 379.089 98.0928C378.962 98.1943 378.865 98.3149 378.797 98.4546C378.733 98.5942 378.702 98.7529 378.702 98.9307C378.702 99.0999 378.729 99.2565 378.784 99.4004C378.843 99.5443 378.93 99.667 379.044 99.7686C379.159 99.8743 379.303 99.9569 379.476 100.016C379.65 100.075 379.851 100.105 380.079 100.105ZM385.989 94.1318L386.021 94.7793C386.16 94.5381 386.342 94.3498 386.566 94.2144C386.795 94.0789 387.07 94.0091 387.392 94.0049C387.574 94.0049 387.736 94.026 387.88 94.0684C388.028 94.1064 388.158 94.1636 388.268 94.2397C388.348 94.299 388.42 94.3709 388.483 94.4556C388.551 94.5402 388.608 94.6354 388.655 94.7412C388.714 94.6439 388.784 94.5529 388.864 94.4683C388.945 94.3836 389.031 94.3096 389.125 94.2461C389.243 94.1742 389.374 94.117 389.518 94.0747C389.666 94.0324 389.827 94.0091 390 94.0049C390.237 94.0049 390.451 94.0409 390.642 94.1128C390.832 94.1805 390.993 94.2821 391.124 94.4175C391.268 94.5698 391.378 94.7687 391.454 95.0142C391.53 95.2554 391.568 95.541 391.568 95.8711V101H390.451V95.8584C390.451 95.7145 390.434 95.5876 390.4 95.4775C390.367 95.3675 390.318 95.2765 390.254 95.2046C390.187 95.1369 390.102 95.0861 390 95.0522C389.903 95.0184 389.789 95.0015 389.658 95.0015C389.518 95.0015 389.397 95.0205 389.296 95.0586C389.194 95.0967 389.11 95.1475 389.042 95.2109C388.974 95.2786 388.921 95.3569 388.883 95.4458C388.845 95.5304 388.82 95.6257 388.807 95.7314C388.807 95.7526 388.807 95.7738 388.807 95.7949C388.807 95.8118 388.807 95.833 388.807 95.8584V101H387.69V95.8521C387.69 95.7082 387.673 95.5812 387.639 95.4712C387.61 95.3612 387.561 95.2702 387.493 95.1982C387.43 95.1305 387.349 95.0819 387.252 95.0522C387.159 95.0184 387.049 95.0015 386.922 95.0015C386.782 95.0015 386.66 95.0184 386.554 95.0522C386.452 95.0819 386.365 95.1263 386.293 95.1855C386.238 95.2321 386.19 95.285 386.147 95.3442C386.109 95.4035 386.078 95.467 386.052 95.5347V101H384.935V94.1318H385.989ZM396.291 101.127C395.809 101.127 395.364 101.044 394.958 100.879C394.556 100.714 394.211 100.484 393.923 100.188C393.636 99.8913 393.411 99.54 393.25 99.1338C393.09 98.7275 393.009 98.2853 393.009 97.8071V97.5405C393.009 96.9862 393.098 96.491 393.276 96.0552C393.454 95.6151 393.691 95.2427 393.987 94.938C394.279 94.6375 394.611 94.4069 394.983 94.2461C395.36 94.0853 395.745 94.0049 396.139 94.0049C396.634 94.0049 397.065 94.0916 397.434 94.2651C397.806 94.4344 398.115 94.6693 398.36 94.9697C398.606 95.2744 398.788 95.632 398.906 96.0425C399.029 96.453 399.09 96.8973 399.09 97.3755V97.9023H394.184V97.9468C394.213 98.2811 394.279 98.5752 394.38 98.8291C394.486 99.083 394.63 99.3073 394.812 99.502C394.998 99.7093 395.222 99.8722 395.485 99.9907C395.747 100.109 396.037 100.168 396.354 100.168C396.773 100.168 397.146 100.084 397.472 99.9146C397.798 99.7453 398.068 99.521 398.284 99.2417L399.001 99.8003C398.773 100.147 398.43 100.456 397.973 100.727C397.52 100.994 396.96 101.127 396.291 101.127ZM396.139 94.9697C395.902 94.9697 395.677 95.0142 395.466 95.103C395.254 95.1877 395.064 95.3125 394.895 95.4775C394.725 95.6468 394.581 95.8542 394.463 96.0996C394.349 96.3408 394.268 96.6201 394.222 96.9375H397.916V96.8804C397.916 96.6688 397.876 96.4424 397.795 96.2012C397.715 95.9557 397.603 95.7441 397.459 95.5664C397.315 95.3887 397.133 95.2448 396.913 95.1348C396.697 95.0247 396.439 94.9697 396.139 94.9697ZM403.616 92.0435C403.616 92.2424 403.591 92.4518 403.54 92.6719C403.493 92.8919 403.424 93.1077 403.331 93.3193C403.233 93.5352 403.117 93.7404 402.981 93.9351C402.846 94.1297 402.689 94.3032 402.512 94.4556L401.871 93.9985C402.069 93.6981 402.218 93.3913 402.315 93.0781C402.417 92.765 402.467 92.4264 402.467 92.0625V91.1104H403.616V92.0435ZM405.724 92.0435C405.724 92.2424 405.698 92.4518 405.647 92.6719C405.601 92.8919 405.531 93.1077 405.438 93.3193C405.341 93.5352 405.224 93.7404 405.089 93.9351C404.953 94.1297 404.797 94.3032 404.619 94.4556L403.978 93.9985C404.177 93.6981 404.325 93.3913 404.422 93.0781C404.524 92.765 404.575 92.4264 404.575 92.0625V91.1104H405.724V92.0435ZM333.348 112.043C333.348 112.242 333.322 112.452 333.271 112.672C333.225 112.892 333.155 113.108 333.062 113.319C332.965 113.535 332.848 113.74 332.713 113.935C332.577 114.13 332.421 114.303 332.243 114.456L331.602 113.999C331.801 113.698 331.949 113.391 332.046 113.078C332.148 112.765 332.199 112.426 332.199 112.062V111.11H333.348V112.043ZM335.455 112.043C335.455 112.242 335.43 112.452 335.379 112.672C335.332 112.892 335.263 113.108 335.169 113.319C335.072 113.535 334.956 113.74 334.82 113.935C334.685 114.13 334.528 114.303 334.351 114.456L333.709 113.999C333.908 113.698 334.056 113.391 334.154 113.078C334.255 112.765 334.306 112.426 334.306 112.062V111.11H335.455V112.043ZM341.987 118.397H340.311L339.803 121H338.896L339.403 118.397H337.886V117.528H339.568L340.006 115.281H338.369V114.398H340.178L340.698 111.758H341.606L341.085 114.398H342.761L343.282 111.758H344.189L343.669 114.398H344.97V115.281H343.498L343.06 117.528H344.494V118.397H342.895L342.387 121H341.479L341.987 118.397ZM340.476 117.528H342.152L342.59 115.281H340.914L340.476 117.528ZM348.963 112.043C348.963 112.242 348.938 112.452 348.887 112.672C348.84 112.892 348.77 113.108 348.677 113.319C348.58 113.535 348.464 113.74 348.328 113.935C348.193 114.13 348.036 114.303 347.858 114.456L347.217 113.999C347.416 113.698 347.564 113.391 347.662 113.078C347.763 112.765 347.814 112.426 347.814 112.062V111.11H348.963V112.043ZM351.07 112.043C351.07 112.242 351.045 112.452 350.994 112.672C350.948 112.892 350.878 113.108 350.785 113.319C350.687 113.535 350.571 113.74 350.436 113.935C350.3 114.13 350.144 114.303 349.966 114.456L349.325 113.999C349.524 113.698 349.672 113.391 349.769 113.078C349.871 112.765 349.921 112.426 349.921 112.062V111.11H351.07V112.043Z" fill="#286EF1"/>
<rect x="542" y="66" width="62" height="32" rx="4" fill="#F2F2F2"/>
<path d="M564.398 82.9912H565.985C565.935 83.5964 565.765 84.1359 565.478 84.6099C565.19 85.0796 564.786 85.4499 564.265 85.7207C563.745 85.9915 563.112 86.127 562.367 86.127C561.796 86.127 561.282 86.0254 560.825 85.8223C560.368 85.6149 559.976 85.3229 559.65 84.9463C559.325 84.5654 559.075 84.1063 558.901 83.5688C558.732 83.0314 558.647 82.4305 558.647 81.7661V80.998C558.647 80.3337 558.734 79.7327 558.908 79.1953C559.085 78.6579 559.339 78.1987 559.669 77.8179C560 77.4328 560.395 77.1387 560.856 76.9355C561.322 76.7324 561.845 76.6309 562.424 76.6309C563.161 76.6309 563.783 76.7663 564.291 77.0371C564.798 77.3079 565.192 77.6825 565.471 78.1606C565.755 78.6388 565.928 79.1868 565.992 79.8047H564.405C564.362 79.4069 564.269 79.0662 564.125 78.7827C563.986 78.4992 563.778 78.2834 563.503 78.1353C563.228 77.9829 562.869 77.9067 562.424 77.9067C562.06 77.9067 561.743 77.9744 561.472 78.1099C561.201 78.2453 560.975 78.4442 560.793 78.7065C560.611 78.9689 560.473 79.2926 560.38 79.6777C560.292 80.0586 560.247 80.4945 560.247 80.9854V81.7661C560.247 82.2316 560.287 82.6548 560.368 83.0356C560.452 83.4123 560.579 83.736 560.749 84.0068C560.922 84.2777 561.142 84.4871 561.409 84.6353C561.675 84.7834 561.995 84.8574 562.367 84.8574C562.82 84.8574 563.186 84.7855 563.465 84.6416C563.749 84.4977 563.963 84.2882 564.106 84.0132C564.255 83.7339 564.352 83.3932 564.398 82.9912ZM566.988 82.6421V82.4961C566.988 82.001 567.06 81.5418 567.204 81.1187C567.348 80.6912 567.555 80.321 567.826 80.0078C568.101 79.6904 568.436 79.445 568.829 79.2715C569.227 79.0938 569.675 79.0049 570.175 79.0049C570.678 79.0049 571.127 79.0938 571.521 79.2715C571.918 79.445 572.255 79.6904 572.53 80.0078C572.805 80.321 573.014 80.6912 573.158 81.1187C573.302 81.5418 573.374 82.001 573.374 82.4961V82.6421C573.374 83.1372 573.302 83.5964 573.158 84.0195C573.014 84.4427 572.805 84.813 572.53 85.1304C572.255 85.4435 571.92 85.689 571.527 85.8667C571.133 86.0402 570.687 86.127 570.188 86.127C569.684 86.127 569.233 86.0402 568.835 85.8667C568.442 85.689 568.108 85.4435 567.833 85.1304C567.557 84.813 567.348 84.4427 567.204 84.0195C567.06 83.5964 566.988 83.1372 566.988 82.6421ZM568.518 82.4961V82.6421C568.518 82.951 568.55 83.243 568.613 83.5181C568.677 83.7931 568.776 84.0343 568.912 84.2417C569.047 84.4491 569.221 84.612 569.432 84.7305C569.644 84.849 569.896 84.9082 570.188 84.9082C570.471 84.9082 570.716 84.849 570.924 84.7305C571.135 84.612 571.309 84.4491 571.444 84.2417C571.58 84.0343 571.679 83.7931 571.743 83.5181C571.81 83.243 571.844 82.951 571.844 82.6421V82.4961C571.844 82.1914 571.81 81.9036 571.743 81.6328C571.679 81.3577 571.578 81.1144 571.438 80.9028C571.303 80.6912 571.129 80.5262 570.917 80.4077C570.71 80.285 570.463 80.2236 570.175 80.2236C569.887 80.2236 569.637 80.285 569.426 80.4077C569.218 80.5262 569.047 80.6912 568.912 80.9028C568.776 81.1144 568.677 81.3577 568.613 81.6328C568.55 81.9036 568.518 82.1914 568.518 82.4961ZM576.192 80.4521V88.6406H574.663V79.1318H576.072L576.192 80.4521ZM580.667 82.5024V82.6357C580.667 83.1351 580.608 83.5985 580.49 84.0259C580.375 84.4491 580.204 84.8193 579.976 85.1367C579.751 85.4499 579.474 85.6932 579.144 85.8667C578.814 86.0402 578.433 86.127 578.001 86.127C577.574 86.127 577.2 86.0487 576.878 85.8921C576.561 85.7313 576.292 85.5049 576.072 85.2129C575.852 84.9209 575.674 84.5781 575.539 84.1846C575.407 83.7868 575.314 83.3509 575.259 82.877V82.3628C575.314 81.8592 575.407 81.4022 575.539 80.9917C575.674 80.5812 575.852 80.2279 576.072 79.9316C576.292 79.6354 576.561 79.4069 576.878 79.2461C577.195 79.0853 577.566 79.0049 577.989 79.0049C578.42 79.0049 578.803 79.0895 579.138 79.2588C579.472 79.4238 579.753 79.6608 579.982 79.9697C580.21 80.2744 580.382 80.6426 580.496 81.0742C580.61 81.5016 580.667 81.9777 580.667 82.5024ZM579.138 82.6357V82.5024C579.138 82.1851 579.108 81.891 579.049 81.6201C578.99 81.3451 578.896 81.1038 578.77 80.8965C578.643 80.6891 578.48 80.5283 578.281 80.4141C578.086 80.2956 577.851 80.2363 577.576 80.2363C577.305 80.2363 577.073 80.2829 576.878 80.376C576.683 80.4648 576.52 80.5897 576.389 80.7505C576.258 80.9113 576.156 81.0996 576.084 81.3154C576.013 81.527 575.962 81.7576 575.932 82.0073V83.2388C575.983 83.5435 576.07 83.8228 576.192 84.0767C576.315 84.3306 576.489 84.5337 576.713 84.686C576.941 84.8341 577.233 84.9082 577.589 84.9082C577.864 84.9082 578.099 84.849 578.293 84.7305C578.488 84.612 578.647 84.4491 578.77 84.2417C578.896 84.0301 578.99 83.7868 579.049 83.5117C579.108 83.2367 579.138 82.9447 579.138 82.6357ZM583.886 85.251L585.752 79.1318H587.39L584.635 87.0474C584.571 87.2166 584.489 87.4007 584.387 87.5996C584.286 87.7985 584.152 87.9868 583.987 88.1646C583.826 88.3465 583.625 88.4925 583.384 88.6025C583.143 88.7168 582.851 88.7739 582.508 88.7739C582.373 88.7739 582.242 88.7612 582.115 88.7358C581.992 88.7147 581.876 88.6914 581.766 88.666L581.759 87.498C581.802 87.5023 581.852 87.5065 581.912 87.5107C581.975 87.515 582.026 87.5171 582.064 87.5171C582.318 87.5171 582.529 87.4854 582.699 87.4219C582.868 87.3626 583.006 87.2653 583.111 87.1299C583.221 86.9945 583.314 86.8125 583.391 86.584L583.886 85.251ZM582.832 79.1318L584.463 84.2734L584.736 85.8857L583.676 86.1587L581.182 79.1318H582.832Z" fill="#1A1A1A"/>
<rect x="542" y="66" width="62" height="32" rx="4" stroke="#1A1A1A" stroke-width="2"/>
<rect x="220.5" y="50.5" width="399" height="111" rx="7.5" stroke="#E6E6E6"/>
<rect x="539" y="20" width="65" height="36" rx="4" fill="#1A1A1A"/>
<path d="M557.865 39.061H559.084C559.021 39.645 558.853 40.1676 558.583 40.6289C558.312 41.0902 557.929 41.4562 557.434 41.7271C556.938 41.9937 556.321 42.127 555.58 42.127C555.038 42.127 554.545 42.0254 554.101 41.8223C553.661 41.6191 553.282 41.3314 552.965 40.959C552.647 40.5824 552.402 40.1317 552.229 39.6069C552.059 39.078 551.975 38.4897 551.975 37.8423V36.9219C551.975 36.2744 552.059 35.6883 552.229 35.1636C552.402 34.6346 552.65 34.1818 552.971 33.8052C553.297 33.4285 553.688 33.1387 554.146 32.9355C554.603 32.7324 555.117 32.6309 555.688 32.6309C556.386 32.6309 556.977 32.762 557.459 33.0244C557.941 33.2868 558.316 33.6507 558.583 34.1162C558.853 34.5775 559.021 35.1128 559.084 35.7222H557.865C557.806 35.2905 557.696 34.9202 557.535 34.6113C557.374 34.2982 557.146 34.057 556.85 33.8877C556.553 33.7184 556.166 33.6338 555.688 33.6338C555.278 33.6338 554.916 33.7121 554.603 33.8687C554.294 34.0252 554.033 34.2474 553.822 34.5352C553.614 34.8229 553.458 35.1678 553.352 35.5698C553.246 35.9718 553.193 36.4183 553.193 36.9092V37.8423C553.193 38.2951 553.24 38.7204 553.333 39.1182C553.43 39.516 553.576 39.8651 553.771 40.1655C553.966 40.466 554.213 40.703 554.514 40.8765C554.814 41.0457 555.17 41.1304 555.58 41.1304C556.101 41.1304 556.515 41.0479 556.824 40.8828C557.133 40.7178 557.366 40.4808 557.522 40.1719C557.683 39.863 557.798 39.4927 557.865 39.061ZM560.265 38.6421V38.4961C560.265 38.001 560.337 37.5418 560.48 37.1187C560.624 36.6912 560.832 36.321 561.103 36.0078C561.373 35.6904 561.701 35.445 562.086 35.2715C562.472 35.0938 562.903 35.0049 563.381 35.0049C563.864 35.0049 564.298 35.0938 564.683 35.2715C565.072 35.445 565.402 35.6904 565.673 36.0078C565.948 36.321 566.157 36.6912 566.301 37.1187C566.445 37.5418 566.517 38.001 566.517 38.4961V38.6421C566.517 39.1372 566.445 39.5964 566.301 40.0195C566.157 40.4427 565.948 40.813 565.673 41.1304C565.402 41.4435 565.074 41.689 564.689 41.8667C564.308 42.0402 563.876 42.127 563.394 42.127C562.912 42.127 562.478 42.0402 562.093 41.8667C561.708 41.689 561.378 41.4435 561.103 41.1304C560.832 40.813 560.624 40.4427 560.48 40.0195C560.337 39.5964 560.265 39.1372 560.265 38.6421ZM561.439 38.4961V38.6421C561.439 38.9849 561.479 39.3086 561.56 39.6133C561.64 39.9137 561.761 40.1803 561.921 40.4131C562.086 40.6458 562.292 40.8299 562.537 40.9653C562.783 41.0965 563.068 41.1621 563.394 41.1621C563.716 41.1621 563.997 41.0965 564.238 40.9653C564.484 40.8299 564.687 40.6458 564.848 40.4131C565.008 40.1803 565.129 39.9137 565.209 39.6133C565.294 39.3086 565.336 38.9849 565.336 38.6421V38.4961C565.336 38.1576 565.294 37.8381 565.209 37.5376C565.129 37.2329 565.006 36.9642 564.841 36.7314C564.681 36.4945 564.477 36.3083 564.232 36.1729C563.991 36.0374 563.707 35.9697 563.381 35.9697C563.06 35.9697 562.776 36.0374 562.531 36.1729C562.29 36.3083 562.086 36.4945 561.921 36.7314C561.761 36.9642 561.64 37.2329 561.56 37.5376C561.479 37.8381 561.439 38.1576 561.439 38.4961ZM569.164 36.4521V44.6406H567.983V35.1318H569.062L569.164 36.4521ZM573.792 38.5088V38.6421C573.792 39.1414 573.732 39.6048 573.614 40.0322C573.495 40.4554 573.322 40.8236 573.093 41.1367C572.869 41.4499 572.592 41.6932 572.262 41.8667C571.932 42.0402 571.553 42.127 571.125 42.127C570.69 42.127 570.305 42.055 569.97 41.9111C569.636 41.7673 569.352 41.5578 569.12 41.2827C568.887 41.0076 568.701 40.6776 568.561 40.2925C568.426 39.9074 568.333 39.4736 568.282 38.9912V38.2803C568.333 37.7725 568.428 37.3175 568.567 36.9155C568.707 36.5135 568.891 36.1707 569.12 35.8872C569.352 35.5994 569.634 35.3815 569.964 35.2334C570.294 35.0811 570.675 35.0049 571.106 35.0049C571.538 35.0049 571.921 35.0895 572.255 35.2588C572.59 35.4238 572.871 35.6608 573.1 35.9697C573.328 36.2786 573.5 36.6489 573.614 37.0806C573.732 37.508 573.792 37.984 573.792 38.5088ZM572.611 38.6421V38.5088C572.611 38.166 572.575 37.8444 572.503 37.5439C572.431 37.2393 572.319 36.9727 572.167 36.7441C572.018 36.5114 571.828 36.3294 571.595 36.1982C571.362 36.0628 571.085 35.9951 570.764 35.9951C570.467 35.9951 570.209 36.0459 569.989 36.1475C569.773 36.249 569.589 36.3866 569.437 36.5601C569.285 36.7293 569.16 36.924 569.062 37.144C568.969 37.3599 568.9 37.5841 568.853 37.8169V39.4609C568.938 39.7572 569.056 40.0365 569.208 40.2988C569.361 40.557 569.564 40.7664 569.818 40.9272C570.072 41.0838 570.391 41.1621 570.776 41.1621C571.094 41.1621 571.367 41.0965 571.595 40.9653C571.828 40.8299 572.018 40.6458 572.167 40.4131C572.319 40.1803 572.431 39.9137 572.503 39.6133C572.575 39.3086 572.611 38.9849 572.611 38.6421ZM576.565 35.1318V42H575.385V35.1318H576.565ZM575.296 33.3101C575.296 33.1196 575.353 32.9588 575.467 32.8276C575.586 32.6965 575.759 32.6309 575.988 32.6309C576.212 32.6309 576.383 32.6965 576.502 32.8276C576.625 32.9588 576.686 33.1196 576.686 33.3101C576.686 33.492 576.625 33.6486 576.502 33.7798C576.383 33.9067 576.212 33.9702 575.988 33.9702C575.759 33.9702 575.586 33.9067 575.467 33.7798C575.353 33.6486 575.296 33.492 575.296 33.3101ZM581.301 42.127C580.823 42.127 580.389 42.0465 580 41.8857C579.614 41.7207 579.282 41.4901 579.003 41.1938C578.728 40.8976 578.516 40.5464 578.368 40.1401C578.22 39.7339 578.146 39.2896 578.146 38.8071V38.5405C578.146 37.9819 578.229 37.4847 578.394 37.0488C578.559 36.6087 578.783 36.2363 579.066 35.9316C579.35 35.627 579.672 35.3963 580.031 35.2397C580.391 35.0832 580.763 35.0049 581.148 35.0049C581.639 35.0049 582.062 35.0895 582.418 35.2588C582.778 35.4281 583.072 35.665 583.3 35.9697C583.529 36.2702 583.698 36.6257 583.808 37.0361C583.918 37.4424 583.973 37.8867 583.973 38.3691V38.896H578.844V37.9375H582.799V37.8486C582.782 37.5439 582.718 37.2477 582.608 36.96C582.503 36.6722 582.333 36.4352 582.101 36.249C581.868 36.0628 581.55 35.9697 581.148 35.9697C580.882 35.9697 580.636 36.0269 580.412 36.1411C580.188 36.2511 579.995 36.4162 579.834 36.6362C579.674 36.8563 579.549 37.125 579.46 37.4424C579.371 37.7598 579.327 38.1258 579.327 38.5405V38.8071C579.327 39.133 579.371 39.4398 579.46 39.7275C579.553 40.0111 579.686 40.2607 579.86 40.4766C580.038 40.6924 580.251 40.8617 580.501 40.9844C580.755 41.1071 581.043 41.1685 581.364 41.1685C581.779 41.1685 582.13 41.0838 582.418 40.9146C582.706 40.7453 582.958 40.5189 583.173 40.2354L583.884 40.8003C583.736 41.0246 583.548 41.2383 583.319 41.4414C583.091 41.6445 582.809 41.8096 582.475 41.9365C582.145 42.0635 581.754 42.127 581.301 42.127ZM589.673 40.667V32.25H590.854V42H589.775L589.673 40.667ZM585.052 38.6421V38.5088C585.052 37.984 585.116 37.508 585.243 37.0806C585.374 36.6489 585.558 36.2786 585.795 35.9697C586.036 35.6608 586.322 35.4238 586.652 35.2588C586.986 35.0895 587.359 35.0049 587.769 35.0049C588.201 35.0049 588.577 35.0811 588.899 35.2334C589.225 35.3815 589.5 35.5994 589.724 35.8872C589.953 36.1707 590.132 36.5135 590.264 36.9155C590.395 37.3175 590.486 37.7725 590.537 38.2803V38.8643C590.49 39.3678 590.399 39.8206 590.264 40.2227C590.132 40.6247 589.953 40.9674 589.724 41.251C589.5 41.5345 589.225 41.7524 588.899 41.9048C588.573 42.0529 588.192 42.127 587.756 42.127C587.354 42.127 586.986 42.0402 586.652 41.8667C586.322 41.6932 586.036 41.4499 585.795 41.1367C585.558 40.8236 585.374 40.4554 585.243 40.0322C585.116 39.6048 585.052 39.1414 585.052 38.6421ZM586.233 38.5088V38.6421C586.233 38.9849 586.267 39.3065 586.334 39.6069C586.406 39.9074 586.516 40.1719 586.665 40.4004C586.813 40.6289 587.001 40.8088 587.229 40.9399C587.458 41.0669 587.731 41.1304 588.048 41.1304C588.438 41.1304 588.757 41.0479 589.007 40.8828C589.261 40.7178 589.464 40.4998 589.616 40.229C589.769 39.9582 589.887 39.6641 589.972 39.3467V37.8169C589.921 37.5841 589.847 37.3599 589.75 37.144C589.656 36.924 589.534 36.7293 589.381 36.5601C589.233 36.3866 589.049 36.249 588.829 36.1475C588.613 36.0459 588.357 35.9951 588.061 35.9951C587.739 35.9951 587.462 36.0628 587.229 36.1982C587.001 36.3294 586.813 36.5114 586.665 36.7441C586.516 36.9727 586.406 37.2393 586.334 37.5439C586.267 37.8444 586.233 38.166 586.233 38.5088Z" fill="white"/>
<path d="M565.5 56H577.5L571.5 62L565.5 56Z" fill="#1A1A1A"/>
<rect x="0.5" y="0.5" width="831" height="241" rx="15.5" stroke="#E6E6E6"/>
</svg>
