<svg width="1280" height="260" viewBox="0 0 1280 260" fill="none" xmlns="http://www.w3.org/2000/svg">
<rect x="0.5" y="0.5" width="1279" height="259" rx="15.5" fill="white"/>
<rect x="446.5" y="74.5" width="399" height="111" rx="7.5" fill="#F8F8F8"/>
<path d="M464.653 105.793H463.6L467.459 95.7578H468.506L464.653 105.793ZM472.461 105.793H471.407L475.267 95.7578H476.314L472.461 105.793ZM492.513 102.22C492.458 102.647 492.348 103.041 492.183 103.4C492.018 103.756 491.804 104.061 491.542 104.314C491.275 104.573 490.96 104.774 490.596 104.917C490.236 105.057 489.834 105.127 489.39 105.127C489.009 105.127 488.662 105.074 488.349 104.968C488.04 104.858 487.765 104.708 487.524 104.518C487.278 104.327 487.067 104.103 486.889 103.845C486.716 103.587 486.572 103.305 486.458 103C486.339 102.696 486.25 102.376 486.191 102.042C486.136 101.708 486.106 101.369 486.102 101.026V99.7378C486.106 99.395 486.136 99.0565 486.191 98.7222C486.25 98.3879 486.339 98.0684 486.458 97.7637C486.572 97.459 486.716 97.1776 486.889 96.9194C487.067 96.6571 487.278 96.4307 487.524 96.2402C487.765 96.0498 488.04 95.9017 488.349 95.7959C488.658 95.6859 489.005 95.6309 489.39 95.6309C489.851 95.6309 490.264 95.7028 490.628 95.8467C490.992 95.9863 491.305 96.1852 491.567 96.4434C491.83 96.7057 492.039 97.0189 492.196 97.3828C492.357 97.7467 492.462 98.1488 492.513 98.5889H491.339C491.301 98.3096 491.235 98.0493 491.142 97.8081C491.049 97.5669 490.924 97.3553 490.768 97.1733C490.611 96.9914 490.418 96.8496 490.19 96.748C489.966 96.6423 489.699 96.5894 489.39 96.5894C489.111 96.5894 488.863 96.6359 488.647 96.729C488.436 96.8179 488.254 96.9406 488.102 97.0972C487.945 97.2537 487.814 97.4357 487.708 97.6431C487.606 97.8504 487.524 98.0705 487.46 98.3032C487.397 98.536 487.35 98.7751 487.321 99.0205C487.295 99.2617 487.283 99.4966 487.283 99.7251V101.026C487.283 101.255 487.295 101.492 487.321 101.737C487.35 101.979 487.397 102.215 487.46 102.448C487.524 102.685 487.606 102.907 487.708 103.115C487.81 103.322 487.939 103.504 488.095 103.661C488.252 103.821 488.436 103.948 488.647 104.042C488.859 104.13 489.107 104.175 489.39 104.175C489.699 104.175 489.966 104.126 490.19 104.029C490.418 103.931 490.611 103.794 490.768 103.616C490.924 103.443 491.049 103.237 491.142 103C491.235 102.759 491.301 102.499 491.339 102.22H492.513ZM494.005 101.502C494.005 101.007 494.077 100.548 494.221 100.125C494.365 99.6976 494.572 99.3273 494.843 99.0142C495.109 98.701 495.435 98.4556 495.82 98.2778C496.205 98.0959 496.639 98.0049 497.122 98.0049C497.608 98.0049 498.044 98.0959 498.429 98.2778C498.819 98.4556 499.149 98.701 499.419 99.0142C499.686 99.3273 499.891 99.6976 500.035 100.125C500.179 100.548 500.251 101.007 500.251 101.502V101.642C500.251 102.137 500.179 102.596 500.035 103.02C499.891 103.443 499.686 103.811 499.419 104.124C499.149 104.437 498.821 104.683 498.436 104.86C498.05 105.038 497.617 105.127 497.134 105.127C496.648 105.127 496.21 105.038 495.82 104.86C495.435 104.683 495.109 104.437 494.843 104.124C494.572 103.811 494.365 103.443 494.221 103.02C494.077 102.596 494.005 102.137 494.005 101.642V101.502ZM495.179 101.642C495.179 101.981 495.219 102.304 495.3 102.613C495.38 102.918 495.503 103.187 495.668 103.419C495.829 103.652 496.032 103.836 496.277 103.972C496.523 104.107 496.808 104.175 497.134 104.175C497.456 104.175 497.737 104.107 497.979 103.972C498.224 103.836 498.429 103.652 498.594 103.419C498.755 103.187 498.876 102.918 498.956 102.613C499.036 102.304 499.077 101.981 499.077 101.642V101.502C499.077 101.168 499.034 100.849 498.95 100.544C498.869 100.235 498.749 99.9642 498.588 99.7314C498.423 99.4987 498.218 99.3146 497.972 99.1792C497.731 99.0396 497.447 98.9697 497.122 98.9697C496.796 98.9697 496.512 99.0396 496.271 99.1792C496.03 99.3146 495.829 99.4987 495.668 99.7314C495.503 99.9642 495.38 100.235 495.3 100.544C495.219 100.849 495.179 101.168 495.179 101.502V101.642ZM501.92 101.509C501.92 100.997 501.984 100.527 502.111 100.1C502.242 99.668 502.428 99.2977 502.669 98.9888C502.906 98.6799 503.194 98.4386 503.533 98.2651C503.871 98.0916 504.25 98.0049 504.669 98.0049C505.079 98.0049 505.437 98.0747 505.742 98.2144C506.051 98.3498 506.317 98.5487 506.542 98.811V95.25H507.716V105H506.637L506.586 104.276C506.357 104.556 506.084 104.767 505.767 104.911C505.45 105.055 505.079 105.127 504.656 105.127C504.242 105.127 503.865 105.038 503.526 104.86C503.192 104.683 502.906 104.437 502.669 104.124C502.432 103.811 502.248 103.443 502.117 103.02C501.986 102.592 501.92 102.133 501.92 101.642V101.509ZM503.095 101.642C503.095 101.976 503.131 102.294 503.203 102.594C503.275 102.895 503.387 103.159 503.539 103.388C503.687 103.616 503.878 103.798 504.11 103.934C504.343 104.065 504.622 104.13 504.948 104.13C505.342 104.13 505.668 104.042 505.926 103.864C506.184 103.686 506.389 103.447 506.542 103.146V99.96C506.389 99.6807 506.184 99.4521 505.926 99.2744C505.668 99.0924 505.346 99.0015 504.961 99.0015C504.631 99.0015 504.347 99.0692 504.11 99.2046C503.878 99.34 503.687 99.522 503.539 99.7505C503.387 99.9832 503.275 100.252 503.203 100.557C503.131 100.857 503.095 101.174 503.095 101.509V101.642ZM512.984 105.127C512.502 105.127 512.058 105.044 511.651 104.879C511.249 104.714 510.904 104.484 510.617 104.188C510.329 103.891 510.105 103.54 509.944 103.134C509.783 102.728 509.703 102.285 509.703 101.807V101.541C509.703 100.986 509.792 100.491 509.969 100.055C510.147 99.6151 510.384 99.2427 510.68 98.938C510.972 98.6375 511.304 98.4069 511.677 98.2461C512.053 98.0853 512.438 98.0049 512.832 98.0049C513.327 98.0049 513.759 98.0916 514.127 98.2651C514.499 98.4344 514.808 98.6693 515.054 98.9697C515.299 99.2744 515.481 99.632 515.6 100.042C515.722 100.453 515.784 100.897 515.784 101.375V101.902H510.877V101.947C510.907 102.281 510.972 102.575 511.074 102.829C511.18 103.083 511.323 103.307 511.505 103.502C511.692 103.709 511.916 103.872 512.178 103.991C512.441 104.109 512.73 104.168 513.048 104.168C513.467 104.168 513.839 104.084 514.165 103.915C514.491 103.745 514.762 103.521 514.978 103.242L515.695 103.8C515.466 104.147 515.124 104.456 514.667 104.727C514.214 104.994 513.653 105.127 512.984 105.127ZM512.832 98.9697C512.595 98.9697 512.371 99.0142 512.159 99.103C511.948 99.1877 511.757 99.3125 511.588 99.4775C511.419 99.6468 511.275 99.8542 511.156 100.1C511.042 100.341 510.962 100.62 510.915 100.938H514.609V100.88C514.609 100.669 514.569 100.442 514.489 100.201C514.408 99.9557 514.296 99.7441 514.152 99.5664C514.008 99.3887 513.826 99.2448 513.606 99.1348C513.391 99.0247 513.132 98.9697 512.832 98.9697ZM530.402 102.664C530.402 102.381 530.337 102.141 530.206 101.947C530.079 101.752 529.914 101.587 529.71 101.452C529.507 101.32 529.283 101.21 529.038 101.122C528.796 101.033 528.564 100.952 528.339 100.88C528.014 100.775 527.681 100.648 527.343 100.5C527.008 100.347 526.704 100.165 526.429 99.9536C526.149 99.7378 525.921 99.4839 525.743 99.1919C525.57 98.8957 525.483 98.5487 525.483 98.1509C525.483 97.7531 525.57 97.3976 525.743 97.0845C525.921 96.7713 526.152 96.5068 526.435 96.291C526.719 96.0752 527.04 95.9123 527.4 95.8022C527.76 95.688 528.121 95.6309 528.485 95.6309C528.887 95.6309 529.275 95.6986 529.647 95.834C530.019 95.9652 530.349 96.1514 530.637 96.3926C530.925 96.6338 531.156 96.9258 531.329 97.2686C531.503 97.6113 531.594 97.9943 531.602 98.4175H530.396C530.362 98.1509 530.297 97.9097 530.199 97.6938C530.102 97.4738 529.973 97.2855 529.812 97.1289C529.651 96.9723 529.459 96.8517 529.234 96.7671C529.014 96.6782 528.765 96.6338 528.485 96.6338C528.261 96.6338 528.041 96.6655 527.825 96.729C527.614 96.7925 527.425 96.8877 527.26 97.0146C527.091 97.1416 526.956 97.2982 526.854 97.4844C526.757 97.6706 526.708 97.8864 526.708 98.1318C526.712 98.3984 526.78 98.6248 526.911 98.811C527.042 98.993 527.209 99.1475 527.413 99.2744C527.611 99.4014 527.827 99.5072 528.06 99.5918C528.297 99.6764 528.519 99.7505 528.727 99.814C529.069 99.9198 529.412 100.049 529.755 100.201C530.098 100.349 530.411 100.54 530.694 100.772C530.974 100.988 531.198 101.253 531.367 101.566C531.541 101.879 531.627 102.241 531.627 102.651C531.627 103.066 531.534 103.428 531.348 103.737C531.166 104.046 530.929 104.302 530.637 104.505C530.345 104.712 530.015 104.869 529.647 104.975C529.279 105.076 528.911 105.127 528.542 105.127C528.102 105.127 527.669 105.053 527.241 104.905C526.818 104.757 526.45 104.543 526.137 104.264C525.857 104.022 525.635 103.741 525.47 103.419C525.309 103.094 525.223 102.732 525.21 102.334H526.41C526.448 102.622 526.526 102.878 526.645 103.102C526.763 103.322 526.915 103.508 527.102 103.661C527.288 103.817 527.501 103.936 527.743 104.016C527.988 104.092 528.255 104.13 528.542 104.13C528.771 104.13 528.995 104.103 529.215 104.048C529.44 103.989 529.639 103.898 529.812 103.775C529.986 103.656 530.127 103.506 530.237 103.324C530.347 103.138 530.402 102.918 530.402 102.664ZM536.153 96.4688V98.1318H538.769V99.0396H536.153V102.772C536.153 103.039 536.187 103.259 536.255 103.432C536.323 103.606 536.416 103.743 536.534 103.845C536.653 103.951 536.788 104.025 536.94 104.067C537.097 104.109 537.262 104.13 537.436 104.13C537.562 104.13 537.694 104.124 537.829 104.111C537.965 104.094 538.098 104.075 538.229 104.054C538.356 104.033 538.474 104.012 538.584 103.991C538.699 103.965 538.792 103.944 538.864 103.927L539.029 104.759C538.931 104.818 538.813 104.871 538.673 104.917C538.534 104.96 538.381 104.996 538.216 105.025C538.051 105.059 537.876 105.085 537.689 105.102C537.507 105.118 537.326 105.127 537.144 105.127C536.839 105.127 536.553 105.085 536.287 105C536.024 104.911 535.796 104.771 535.601 104.581C535.406 104.395 535.252 104.154 535.138 103.857C535.028 103.557 534.973 103.195 534.973 102.772V99.0396H533.17V98.1318H534.973V96.4688H536.153ZM545.694 105C545.647 104.911 545.609 104.801 545.58 104.67C545.554 104.535 545.535 104.395 545.522 104.251C545.404 104.369 545.271 104.482 545.123 104.587C544.979 104.693 544.82 104.786 544.646 104.867C544.469 104.947 544.28 105.011 544.082 105.057C543.883 105.104 543.671 105.127 543.447 105.127C543.083 105.127 542.753 105.074 542.457 104.968C542.165 104.862 541.917 104.719 541.714 104.537C541.507 104.359 541.346 104.147 541.231 103.902C541.121 103.652 541.066 103.383 541.066 103.096C541.066 102.719 541.14 102.389 541.289 102.105C541.441 101.822 541.655 101.585 541.93 101.395C542.205 101.208 542.535 101.069 542.92 100.976C543.309 100.882 543.743 100.836 544.221 100.836H545.503V100.296C545.503 100.089 545.465 99.9028 545.389 99.7378C545.313 99.5728 545.205 99.431 545.065 99.3125C544.926 99.1982 544.754 99.1094 544.551 99.0459C544.352 98.9824 544.128 98.9507 543.878 98.9507C543.646 98.9507 543.436 98.9803 543.25 99.0396C543.068 99.0988 542.914 99.1771 542.787 99.2744C542.66 99.3717 542.56 99.4881 542.488 99.6235C542.421 99.7547 542.387 99.8923 542.387 100.036H541.206C541.21 99.7865 541.274 99.541 541.396 99.2998C541.523 99.0586 541.705 98.8407 541.942 98.646C542.175 98.4556 542.459 98.3011 542.793 98.1826C543.132 98.0641 543.514 98.0049 543.942 98.0049C544.331 98.0049 544.693 98.0535 545.027 98.1509C545.362 98.244 545.652 98.3857 545.897 98.5762C546.138 98.7708 546.329 99.012 546.468 99.2998C546.608 99.5876 546.678 99.924 546.678 100.309V103.502C546.678 103.73 546.699 103.974 546.741 104.232C546.784 104.486 546.843 104.708 546.919 104.898V105H545.694ZM543.618 104.105C543.847 104.105 544.06 104.075 544.259 104.016C544.458 103.957 544.64 103.879 544.805 103.781C544.966 103.684 545.106 103.574 545.224 103.451C545.343 103.324 545.436 103.193 545.503 103.058V101.667H544.412C544.005 101.667 543.65 101.703 543.345 101.775C543.045 101.843 542.806 101.949 542.628 102.093C542.501 102.194 542.404 102.315 542.336 102.455C542.272 102.594 542.241 102.753 542.241 102.931C542.241 103.1 542.268 103.257 542.323 103.4C542.382 103.544 542.469 103.667 542.583 103.769C542.698 103.874 542.842 103.957 543.015 104.016C543.189 104.075 543.39 104.105 543.618 104.105ZM553.489 98.0049C553.705 98.0049 553.929 98.0197 554.162 98.0493C554.399 98.0789 554.576 98.1191 554.695 98.1699L554.536 99.3188C554.308 99.2681 554.09 99.2321 553.882 99.2109C553.679 99.1855 553.465 99.1729 553.241 99.1729C552.953 99.1729 552.693 99.2088 552.46 99.2808C552.228 99.3485 552.025 99.45 551.851 99.5854C551.694 99.7039 551.557 99.8499 551.438 100.023C551.324 100.193 551.229 100.383 551.153 100.595V105H549.972V98.1318H551.089L551.14 99.0522L551.146 99.2236C551.426 98.847 551.76 98.5508 552.149 98.335C552.543 98.1149 552.989 98.0049 553.489 98.0049ZM559.576 96.4688V98.1318H562.191V99.0396H559.576V102.772C559.576 103.039 559.61 103.259 559.678 103.432C559.745 103.606 559.839 103.743 559.957 103.845C560.076 103.951 560.211 104.025 560.363 104.067C560.52 104.109 560.685 104.13 560.858 104.13C560.985 104.13 561.117 104.124 561.252 104.111C561.387 104.094 561.521 104.075 561.652 104.054C561.779 104.033 561.897 104.012 562.007 103.991C562.122 103.965 562.215 103.944 562.287 103.927L562.452 104.759C562.354 104.818 562.236 104.871 562.096 104.917C561.957 104.96 561.804 104.996 561.639 105.025C561.474 105.059 561.299 105.085 561.112 105.102C560.93 105.118 560.748 105.127 560.566 105.127C560.262 105.127 559.976 105.085 559.709 105C559.447 104.911 559.219 104.771 559.024 104.581C558.829 104.395 558.675 104.154 558.561 103.857C558.451 103.557 558.396 103.195 558.396 102.772V99.0396H556.593V98.1318H558.396V96.4688H559.576ZM569.167 103.178C569.167 103.039 569.14 102.914 569.085 102.804C569.03 102.689 568.937 102.586 568.806 102.493C568.674 102.4 568.501 102.315 568.285 102.239C568.069 102.158 567.801 102.086 567.479 102.023C567.085 101.943 566.726 101.845 566.4 101.731C566.078 101.617 565.803 101.479 565.575 101.318C565.342 101.162 565.162 100.978 565.035 100.766C564.908 100.55 564.845 100.301 564.845 100.017C564.845 99.7378 564.91 99.4775 565.042 99.2363C565.173 98.9909 565.357 98.7772 565.594 98.5952C565.831 98.4132 566.112 98.2694 566.438 98.1636C566.768 98.0578 567.13 98.0049 567.523 98.0049C567.947 98.0049 568.327 98.0599 568.666 98.1699C569.005 98.2799 569.292 98.4323 569.529 98.627C569.766 98.8216 569.948 99.0501 570.075 99.3125C570.206 99.5706 570.272 99.8499 570.272 100.15H569.098C569.098 100.002 569.06 99.8584 568.983 99.7188C568.907 99.5749 568.801 99.4479 568.666 99.3379C568.531 99.2279 568.366 99.139 568.171 99.0713C567.98 99.0036 567.765 98.9697 567.523 98.9697C567.274 98.9697 567.054 98.9972 566.863 99.0522C566.677 99.1073 566.523 99.1813 566.4 99.2744C566.273 99.3675 566.178 99.4754 566.114 99.5981C566.051 99.7209 566.019 99.8478 566.019 99.979C566.019 100.114 566.044 100.235 566.095 100.341C566.146 100.447 566.235 100.542 566.362 100.626C566.485 100.711 566.65 100.787 566.857 100.855C567.069 100.923 567.335 100.988 567.657 101.052C568.08 101.141 568.459 101.244 568.793 101.363C569.127 101.477 569.409 101.615 569.637 101.775C569.866 101.94 570.039 102.131 570.158 102.347C570.28 102.562 570.342 102.812 570.342 103.096C570.342 103.4 570.272 103.678 570.132 103.927C569.997 104.177 569.806 104.391 569.561 104.568C569.316 104.746 569.021 104.884 568.679 104.981C568.336 105.078 567.961 105.127 567.555 105.127C567.09 105.127 566.675 105.066 566.311 104.943C565.947 104.816 565.64 104.649 565.391 104.441C565.137 104.238 564.942 104.001 564.807 103.73C564.675 103.46 564.61 103.178 564.61 102.886H565.784C565.801 103.127 565.865 103.331 565.975 103.496C566.089 103.661 566.231 103.794 566.4 103.896C566.565 103.997 566.749 104.069 566.952 104.111C567.155 104.154 567.356 104.175 567.555 104.175C567.868 104.175 568.141 104.139 568.374 104.067C568.607 103.991 568.789 103.887 568.92 103.756C569 103.675 569.062 103.587 569.104 103.489C569.146 103.392 569.167 103.288 569.167 103.178Z" fill="#AAAAAA"/>
<path d="M468.462 123.756L463.079 121.35V120.423L468.462 118.024V119.268L464.577 120.792L464.241 120.899L464.577 121.014L468.462 122.512V123.756ZM634.897 123.75V122.531L639.004 120.982L639.385 120.874L639.004 120.753L634.897 119.23V118.018L640.502 120.417V121.344L634.897 123.75ZM499.692 143.756L494.31 141.35V140.423L499.692 138.024V139.268L495.808 140.792L495.471 140.899L495.808 141.014L499.692 142.512V143.756ZM580.244 143.75V142.531L584.351 140.982L584.732 140.874L584.351 140.753L580.244 139.23V138.018L585.849 140.417V141.344L580.244 143.75ZM597.161 144.003H601.68V145H595.986V135.758H597.161V144.003ZM603.826 138.132H607.336V143.984H609.577V145H603.826V143.984H606.162V139.154H603.826V138.132ZM606.009 136.329C606.009 136.228 606.024 136.132 606.054 136.043C606.088 135.955 606.138 135.878 606.206 135.815C606.261 135.76 606.331 135.718 606.416 135.688C606.504 135.654 606.604 135.637 606.714 135.637C606.824 135.637 606.921 135.654 607.006 135.688C607.09 135.718 607.16 135.76 607.215 135.815C607.283 135.874 607.334 135.948 607.368 136.037C607.402 136.126 607.418 136.223 607.418 136.329C607.418 136.52 607.359 136.678 607.241 136.805C607.122 136.932 606.947 136.996 606.714 136.996C606.477 136.996 606.299 136.932 606.181 136.805C606.066 136.678 606.009 136.52 606.009 136.329ZM611.449 145V138.132H612.503L612.585 139.147C612.687 139.004 612.797 138.872 612.916 138.754C613.038 138.631 613.167 138.525 613.303 138.437C613.506 138.301 613.726 138.197 613.963 138.125C614.204 138.049 614.458 138.009 614.725 138.005C615.084 138.005 615.41 138.056 615.702 138.157C615.998 138.259 616.25 138.417 616.458 138.633C616.665 138.849 616.824 139.124 616.934 139.458C617.048 139.789 617.105 140.182 617.105 140.639V145H615.931V140.665C615.931 140.36 615.897 140.102 615.829 139.89C615.761 139.679 615.662 139.507 615.531 139.376C615.395 139.245 615.23 139.15 615.036 139.09C614.845 139.031 614.625 139.001 614.375 139.001C614.16 139.001 613.959 139.033 613.772 139.097C613.586 139.156 613.415 139.238 613.258 139.344C613.131 139.437 613.013 139.545 612.903 139.668C612.797 139.791 612.704 139.926 612.624 140.074V145H611.449ZM621.313 141.794L620.45 142.626V145H619.27V135.25H620.45V141.217L621.218 140.392L623.472 138.132H624.9L622.12 140.995L625.325 145H623.833L621.313 141.794ZM640.229 143.756L634.847 141.35V140.423L640.229 138.024V139.268L636.345 140.792L636.008 140.899L636.345 141.014L640.229 142.512V143.756ZM644.229 145.793H643.175L647.034 135.758H648.082L644.229 145.793ZM658.32 143.75V142.531L662.427 140.982L662.808 140.874L662.427 140.753L658.32 139.23V138.018L663.925 140.417V141.344L658.32 143.75ZM468.462 163.756L463.079 161.35V160.423L468.462 158.024V159.268L464.577 160.792L464.241 160.899L464.577 161.014L468.462 162.512V163.756ZM472.461 165.793H471.407L475.267 155.758H476.314L472.461 165.793ZM502.168 163.75V162.531L506.275 160.982L506.656 160.874L506.275 160.753L502.168 159.23V158.018L507.773 160.417V161.344L502.168 163.75Z" fill="#333333"/>
<path d="M470.69 121.509C470.69 120.997 470.753 120.527 470.88 120.1C471.012 119.668 471.198 119.298 471.439 118.989C471.676 118.68 471.964 118.439 472.302 118.265C472.641 118.092 473.02 118.005 473.438 118.005C473.849 118.005 474.207 118.075 474.511 118.214C474.82 118.35 475.087 118.549 475.311 118.811V115.25H476.485V125H475.406L475.355 124.276C475.127 124.556 474.854 124.767 474.537 124.911C474.219 125.055 473.849 125.127 473.426 125.127C473.011 125.127 472.634 125.038 472.296 124.86C471.962 124.683 471.676 124.437 471.439 124.124C471.202 123.811 471.018 123.443 470.887 123.02C470.756 122.592 470.69 122.133 470.69 121.642V121.509ZM471.864 121.642C471.864 121.976 471.9 122.294 471.972 122.594C472.044 122.895 472.156 123.159 472.309 123.388C472.457 123.616 472.647 123.798 472.88 123.934C473.113 124.065 473.392 124.13 473.718 124.13C474.111 124.13 474.437 124.042 474.695 123.864C474.953 123.686 475.159 123.447 475.311 123.146V119.96C475.159 119.681 474.953 119.452 474.695 119.274C474.437 119.092 474.116 119.001 473.73 119.001C473.4 119.001 473.117 119.069 472.88 119.205C472.647 119.34 472.457 119.522 472.309 119.75C472.156 119.983 472.044 120.252 471.972 120.557C471.9 120.857 471.864 121.174 471.864 121.509V121.642ZM478.904 118.132H482.414V123.984H484.655V125H478.904V123.984H481.24V119.154H478.904V118.132ZM481.087 116.329C481.087 116.228 481.102 116.132 481.132 116.043C481.166 115.955 481.216 115.878 481.284 115.815C481.339 115.76 481.409 115.718 481.494 115.688C481.583 115.654 481.682 115.637 481.792 115.637C481.902 115.637 481.999 115.654 482.084 115.688C482.169 115.718 482.238 115.76 482.293 115.815C482.361 115.874 482.412 115.948 482.446 116.037C482.48 116.126 482.497 116.223 482.497 116.329C482.497 116.52 482.437 116.678 482.319 116.805C482.2 116.932 482.025 116.996 481.792 116.996C481.555 116.996 481.377 116.932 481.259 116.805C481.145 116.678 481.087 116.52 481.087 116.329ZM488.87 125L486.045 118.132H487.251L489.219 123.312L489.327 123.737L489.441 123.312L491.364 118.132H492.564L489.765 125H488.87ZM506.656 145C506.609 144.911 506.571 144.801 506.542 144.67C506.516 144.535 506.497 144.395 506.484 144.251C506.366 144.369 506.233 144.482 506.084 144.587C505.941 144.693 505.782 144.786 505.608 144.867C505.431 144.947 505.242 145.011 505.043 145.057C504.845 145.104 504.633 145.127 504.409 145.127C504.045 145.127 503.715 145.074 503.418 144.968C503.126 144.862 502.879 144.719 502.676 144.537C502.468 144.359 502.308 144.147 502.193 143.902C502.083 143.652 502.028 143.383 502.028 143.096C502.028 142.719 502.102 142.389 502.25 142.105C502.403 141.822 502.617 141.585 502.892 141.395C503.167 141.208 503.497 141.069 503.882 140.976C504.271 140.882 504.705 140.836 505.183 140.836H506.465V140.296C506.465 140.089 506.427 139.903 506.351 139.738C506.275 139.573 506.167 139.431 506.027 139.312C505.888 139.198 505.716 139.109 505.513 139.046C505.314 138.982 505.09 138.951 504.84 138.951C504.608 138.951 504.398 138.98 504.212 139.04C504.03 139.099 503.875 139.177 503.749 139.274C503.622 139.372 503.522 139.488 503.45 139.624C503.382 139.755 503.349 139.892 503.349 140.036H502.168C502.172 139.786 502.236 139.541 502.358 139.3C502.485 139.059 502.667 138.841 502.904 138.646C503.137 138.456 503.421 138.301 503.755 138.183C504.093 138.064 504.476 138.005 504.904 138.005C505.293 138.005 505.655 138.054 505.989 138.151C506.324 138.244 506.613 138.386 506.859 138.576C507.1 138.771 507.291 139.012 507.43 139.3C507.57 139.588 507.64 139.924 507.64 140.309V143.502C507.64 143.73 507.661 143.974 507.703 144.232C507.745 144.486 507.805 144.708 507.881 144.898V145H506.656ZM504.58 144.105C504.809 144.105 505.022 144.075 505.221 144.016C505.42 143.957 505.602 143.879 505.767 143.781C505.928 143.684 506.068 143.574 506.186 143.451C506.305 143.324 506.398 143.193 506.465 143.058V141.667H505.374C504.967 141.667 504.612 141.703 504.307 141.775C504.007 141.843 503.768 141.949 503.59 142.093C503.463 142.194 503.366 142.315 503.298 142.455C503.234 142.594 503.203 142.753 503.203 142.931C503.203 143.1 503.23 143.257 503.285 143.4C503.344 143.544 503.431 143.667 503.545 143.769C503.66 143.874 503.804 143.957 503.977 144.016C504.151 144.075 504.352 144.105 504.58 144.105ZM655 145C654.954 144.911 654.916 144.801 654.886 144.67C654.861 144.535 654.842 144.395 654.829 144.251C654.711 144.369 654.577 144.482 654.429 144.587C654.285 144.693 654.127 144.786 653.953 144.867C653.775 144.947 653.587 145.011 653.388 145.057C653.189 145.104 652.978 145.127 652.753 145.127C652.389 145.127 652.059 145.074 651.763 144.968C651.471 144.862 651.224 144.719 651.021 144.537C650.813 144.359 650.652 144.147 650.538 143.902C650.428 143.652 650.373 143.383 650.373 143.096C650.373 142.719 650.447 142.389 650.595 142.105C650.748 141.822 650.961 141.585 651.236 141.395C651.511 141.208 651.841 141.069 652.227 140.976C652.616 140.882 653.05 140.836 653.528 140.836H654.81V140.296C654.81 140.089 654.772 139.903 654.696 139.738C654.62 139.573 654.512 139.431 654.372 139.312C654.232 139.198 654.061 139.109 653.858 139.046C653.659 138.982 653.435 138.951 653.185 138.951C652.952 138.951 652.743 138.98 652.557 139.04C652.375 139.099 652.22 139.177 652.093 139.274C651.966 139.372 651.867 139.488 651.795 139.624C651.727 139.755 651.693 139.892 651.693 140.036H650.513C650.517 139.786 650.58 139.541 650.703 139.3C650.83 139.059 651.012 138.841 651.249 138.646C651.482 138.456 651.765 138.301 652.1 138.183C652.438 138.064 652.821 138.005 653.249 138.005C653.638 138.005 654 138.054 654.334 138.151C654.668 138.244 654.958 138.386 655.204 138.576C655.445 138.771 655.635 139.012 655.775 139.3C655.915 139.588 655.984 139.924 655.984 140.309V143.502C655.984 143.73 656.006 143.974 656.048 144.232C656.09 144.486 656.149 144.708 656.226 144.898V145H655ZM652.925 144.105C653.153 144.105 653.367 144.075 653.566 144.016C653.765 143.957 653.947 143.879 654.112 143.781C654.273 143.684 654.412 143.574 654.531 143.451C654.649 143.324 654.742 143.193 654.81 143.058V141.667H653.718C653.312 141.667 652.957 141.703 652.652 141.775C652.351 141.843 652.112 141.949 651.935 142.093C651.808 142.194 651.71 142.315 651.643 142.455C651.579 142.594 651.547 142.753 651.547 142.931C651.547 143.1 651.575 143.257 651.63 143.4C651.689 143.544 651.776 143.667 651.89 143.769C652.004 143.874 652.148 143.957 652.322 144.016C652.495 144.075 652.696 144.105 652.925 144.105ZM478.498 161.509C478.498 160.997 478.561 160.527 478.688 160.1C478.819 159.668 479.005 159.298 479.247 158.989C479.484 158.68 479.771 158.439 480.11 158.265C480.448 158.092 480.827 158.005 481.246 158.005C481.657 158.005 482.014 158.075 482.319 158.214C482.628 158.35 482.894 158.549 483.119 158.811V155.25H484.293V165H483.214L483.163 164.276C482.935 164.556 482.662 164.767 482.344 164.911C482.027 165.055 481.657 165.127 481.233 165.127C480.819 165.127 480.442 165.038 480.104 164.86C479.769 164.683 479.484 164.437 479.247 164.124C479.01 163.811 478.826 163.443 478.694 163.02C478.563 162.592 478.498 162.133 478.498 161.642V161.509ZM479.672 161.642C479.672 161.976 479.708 162.294 479.78 162.594C479.852 162.895 479.964 163.159 480.116 163.388C480.264 163.616 480.455 163.798 480.688 163.934C480.92 164.065 481.2 164.13 481.525 164.13C481.919 164.13 482.245 164.042 482.503 163.864C482.761 163.686 482.966 163.447 483.119 163.146V159.96C482.966 159.681 482.761 159.452 482.503 159.274C482.245 159.092 481.923 159.001 481.538 159.001C481.208 159.001 480.924 159.069 480.688 159.205C480.455 159.34 480.264 159.522 480.116 159.75C479.964 159.983 479.852 160.252 479.78 160.557C479.708 160.857 479.672 161.174 479.672 161.509V161.642ZM486.711 158.132H490.222V163.984H492.462V165H486.711V163.984H489.047V159.154H486.711V158.132ZM488.895 156.329C488.895 156.228 488.91 156.132 488.939 156.043C488.973 155.955 489.024 155.878 489.092 155.815C489.147 155.76 489.217 155.718 489.301 155.688C489.39 155.654 489.49 155.637 489.6 155.637C489.71 155.637 489.807 155.654 489.892 155.688C489.976 155.718 490.046 155.76 490.101 155.815C490.169 155.874 490.22 155.948 490.253 156.037C490.287 156.126 490.304 156.223 490.304 156.329C490.304 156.52 490.245 156.678 490.126 156.805C490.008 156.932 489.832 156.996 489.6 156.996C489.363 156.996 489.185 156.932 489.066 156.805C488.952 156.678 488.895 156.52 488.895 156.329ZM496.677 165L493.853 158.132H495.059L497.026 163.312L497.134 163.737L497.249 163.312L499.172 158.132H500.372L497.572 165H496.677Z" fill="#184291"/>
<path d="M505.069 124.175C505.28 124.175 505.486 124.141 505.685 124.073C505.888 124.006 506.068 123.91 506.224 123.788C506.381 123.669 506.506 123.529 506.599 123.369C506.696 123.204 506.747 123.026 506.751 122.835H507.862C507.858 123.14 507.777 123.432 507.621 123.711C507.468 123.986 507.263 124.228 507.005 124.435C506.747 124.647 506.451 124.816 506.116 124.943C505.782 125.066 505.433 125.127 505.069 125.127C504.548 125.127 504.093 125.034 503.704 124.848C503.315 124.661 502.991 124.41 502.733 124.092C502.471 123.779 502.274 123.417 502.143 123.007C502.011 122.592 501.946 122.156 501.946 121.699V121.433C501.946 120.98 502.011 120.546 502.143 120.131C502.274 119.717 502.471 119.351 502.733 119.033C502.991 118.72 503.315 118.47 503.704 118.284C504.093 118.098 504.548 118.005 505.069 118.005C505.475 118.005 505.847 118.07 506.186 118.202C506.529 118.329 506.825 118.502 507.075 118.722C507.32 118.946 507.513 119.211 507.652 119.516C507.792 119.82 507.862 120.146 507.862 120.493H506.751C506.747 120.286 506.7 120.091 506.611 119.909C506.527 119.723 506.41 119.56 506.262 119.42C506.114 119.281 505.936 119.171 505.729 119.09C505.526 119.01 505.306 118.97 505.069 118.97C504.705 118.97 504.398 119.044 504.148 119.192C503.903 119.336 503.704 119.524 503.552 119.757C503.399 119.994 503.289 120.258 503.222 120.55C503.158 120.842 503.126 121.136 503.126 121.433V121.699C503.126 122 503.158 122.298 503.222 122.594C503.289 122.886 503.399 123.149 503.552 123.381C503.7 123.618 503.897 123.811 504.142 123.959C504.392 124.103 504.701 124.175 505.069 124.175ZM510.134 115.25H513.645V123.984H515.885V125H510.134V123.984H512.47V116.272H510.134V115.25ZM522.271 125C522.224 124.911 522.186 124.801 522.157 124.67C522.131 124.535 522.112 124.395 522.1 124.251C521.981 124.369 521.848 124.482 521.7 124.587C521.556 124.693 521.397 124.786 521.224 124.867C521.046 124.947 520.858 125.011 520.659 125.057C520.46 125.104 520.248 125.127 520.024 125.127C519.66 125.127 519.33 125.074 519.034 124.968C518.742 124.862 518.494 124.719 518.291 124.537C518.084 124.359 517.923 124.147 517.809 123.902C517.699 123.652 517.644 123.383 517.644 123.096C517.644 122.719 517.718 122.389 517.866 122.105C518.018 121.822 518.232 121.585 518.507 121.395C518.782 121.208 519.112 121.069 519.497 120.976C519.886 120.882 520.32 120.836 520.798 120.836H522.081V120.296C522.081 120.089 522.042 119.903 521.966 119.738C521.89 119.573 521.782 119.431 521.643 119.312C521.503 119.198 521.332 119.109 521.128 119.046C520.93 118.982 520.705 118.951 520.456 118.951C520.223 118.951 520.013 118.98 519.827 119.04C519.645 119.099 519.491 119.177 519.364 119.274C519.237 119.372 519.137 119.488 519.065 119.624C518.998 119.755 518.964 119.892 518.964 120.036H517.783C517.787 119.786 517.851 119.541 517.974 119.3C518.101 119.059 518.283 118.841 518.52 118.646C518.752 118.456 519.036 118.301 519.37 118.183C519.709 118.064 520.092 118.005 520.519 118.005C520.908 118.005 521.27 118.054 521.604 118.151C521.939 118.244 522.229 118.386 522.474 118.576C522.715 118.771 522.906 119.012 523.045 119.3C523.185 119.588 523.255 119.924 523.255 120.309V123.502C523.255 123.73 523.276 123.974 523.318 124.232C523.361 124.486 523.42 124.708 523.496 124.898V125H522.271ZM520.195 124.105C520.424 124.105 520.638 124.075 520.836 124.016C521.035 123.957 521.217 123.879 521.382 123.781C521.543 123.684 521.683 123.574 521.801 123.451C521.92 123.324 522.013 123.193 522.081 123.058V121.667H520.989C520.583 121.667 520.227 121.703 519.922 121.775C519.622 121.843 519.383 121.949 519.205 122.093C519.078 122.194 518.981 122.315 518.913 122.455C518.85 122.594 518.818 122.753 518.818 122.931C518.818 123.1 518.845 123.257 518.9 123.4C518.96 123.544 519.046 123.667 519.161 123.769C519.275 123.874 519.419 123.957 519.592 124.016C519.766 124.075 519.967 124.105 520.195 124.105ZM530.129 123.178C530.129 123.039 530.102 122.914 530.047 122.804C529.992 122.689 529.899 122.586 529.768 122.493C529.636 122.4 529.463 122.315 529.247 122.239C529.031 122.158 528.763 122.086 528.441 122.023C528.047 121.943 527.688 121.845 527.362 121.731C527.04 121.617 526.765 121.479 526.537 121.318C526.304 121.162 526.124 120.978 525.997 120.766C525.87 120.55 525.807 120.301 525.807 120.017C525.807 119.738 525.872 119.478 526.003 119.236C526.135 118.991 526.319 118.777 526.556 118.595C526.793 118.413 527.074 118.269 527.4 118.164C527.73 118.058 528.092 118.005 528.485 118.005C528.909 118.005 529.289 118.06 529.628 118.17C529.966 118.28 530.254 118.432 530.491 118.627C530.728 118.822 530.91 119.05 531.037 119.312C531.168 119.571 531.234 119.85 531.234 120.15H530.06C530.06 120.002 530.021 119.858 529.945 119.719C529.869 119.575 529.763 119.448 529.628 119.338C529.493 119.228 529.327 119.139 529.133 119.071C528.942 119.004 528.727 118.97 528.485 118.97C528.236 118.97 528.016 118.997 527.825 119.052C527.639 119.107 527.485 119.181 527.362 119.274C527.235 119.368 527.14 119.475 527.076 119.598C527.013 119.721 526.981 119.848 526.981 119.979C526.981 120.114 527.006 120.235 527.057 120.341C527.108 120.447 527.197 120.542 527.324 120.626C527.446 120.711 527.611 120.787 527.819 120.855C528.03 120.923 528.297 120.988 528.619 121.052C529.042 121.141 529.421 121.244 529.755 121.363C530.089 121.477 530.371 121.615 530.599 121.775C530.828 121.94 531.001 122.131 531.12 122.347C531.242 122.562 531.304 122.812 531.304 123.096C531.304 123.4 531.234 123.678 531.094 123.927C530.959 124.177 530.768 124.391 530.523 124.568C530.278 124.746 529.983 124.884 529.641 124.981C529.298 125.078 528.923 125.127 528.517 125.127C528.052 125.127 527.637 125.066 527.273 124.943C526.909 124.816 526.602 124.649 526.353 124.441C526.099 124.238 525.904 124.001 525.769 123.73C525.637 123.46 525.572 123.178 525.572 122.886H526.746C526.763 123.127 526.826 123.331 526.937 123.496C527.051 123.661 527.193 123.794 527.362 123.896C527.527 123.997 527.711 124.069 527.914 124.111C528.117 124.154 528.318 124.175 528.517 124.175C528.83 124.175 529.103 124.139 529.336 124.067C529.569 123.991 529.751 123.887 529.882 123.756C529.962 123.675 530.024 123.587 530.066 123.489C530.108 123.392 530.129 123.288 530.129 123.178ZM537.937 123.178C537.937 123.039 537.91 122.914 537.854 122.804C537.799 122.689 537.706 122.586 537.575 122.493C537.444 122.4 537.271 122.315 537.055 122.239C536.839 122.158 536.57 122.086 536.249 122.023C535.855 121.943 535.495 121.845 535.169 121.731C534.848 121.617 534.573 121.479 534.344 121.318C534.111 121.162 533.932 120.978 533.805 120.766C533.678 120.55 533.614 120.301 533.614 120.017C533.614 119.738 533.68 119.478 533.811 119.236C533.942 118.991 534.126 118.777 534.363 118.595C534.6 118.413 534.882 118.269 535.208 118.164C535.538 118.058 535.899 118.005 536.293 118.005C536.716 118.005 537.097 118.06 537.436 118.17C537.774 118.28 538.062 118.432 538.299 118.627C538.536 118.822 538.718 119.05 538.845 119.312C538.976 119.571 539.042 119.85 539.042 120.15H537.867C537.867 120.002 537.829 119.858 537.753 119.719C537.677 119.575 537.571 119.448 537.436 119.338C537.3 119.228 537.135 119.139 536.94 119.071C536.75 119.004 536.534 118.97 536.293 118.97C536.043 118.97 535.823 118.997 535.633 119.052C535.447 119.107 535.292 119.181 535.169 119.274C535.042 119.368 534.947 119.475 534.884 119.598C534.82 119.721 534.789 119.848 534.789 119.979C534.789 120.114 534.814 120.235 534.865 120.341C534.916 120.447 535.004 120.542 535.131 120.626C535.254 120.711 535.419 120.787 535.626 120.855C535.838 120.923 536.105 120.988 536.426 121.052C536.849 121.141 537.228 121.244 537.562 121.363C537.897 121.477 538.178 121.615 538.407 121.775C538.635 121.94 538.809 122.131 538.927 122.347C539.05 122.562 539.111 122.812 539.111 123.096C539.111 123.4 539.042 123.678 538.902 123.927C538.766 124.177 538.576 124.391 538.331 124.568C538.085 124.746 537.791 124.884 537.448 124.981C537.105 125.078 536.731 125.127 536.325 125.127C535.859 125.127 535.444 125.066 535.081 124.943C534.717 124.816 534.41 124.649 534.16 124.441C533.906 124.238 533.712 124.001 533.576 123.73C533.445 123.46 533.379 123.178 533.379 122.886H534.554C534.571 123.127 534.634 123.331 534.744 123.496C534.858 123.661 535 123.794 535.169 123.896C535.334 123.997 535.519 124.069 535.722 124.111C535.925 124.154 536.126 124.175 536.325 124.175C536.638 124.175 536.911 124.139 537.144 124.067C537.376 123.991 537.558 123.887 537.689 123.756C537.77 123.675 537.831 123.587 537.874 123.489C537.916 123.392 537.937 123.288 537.937 123.178ZM546.843 120.049H541.174V119.027H546.843V120.049ZM546.843 122.683H541.174V121.667H546.843V122.683ZM518.932 139.154C519.025 139.014 519.129 138.887 519.243 138.773C519.357 138.654 519.478 138.551 519.605 138.462C519.808 138.314 520.03 138.202 520.271 138.125C520.517 138.049 520.777 138.009 521.052 138.005C521.412 138.005 521.738 138.058 522.03 138.164C522.326 138.265 522.578 138.426 522.785 138.646C522.993 138.866 523.151 139.145 523.261 139.484C523.375 139.818 523.433 140.216 523.433 140.677V145H522.258V140.665C522.258 140.394 522.227 140.157 522.163 139.954C522.1 139.746 522.007 139.575 521.884 139.439C521.753 139.291 521.588 139.181 521.389 139.109C521.19 139.033 520.961 138.997 520.703 139.001C520.492 139.001 520.291 139.031 520.1 139.09C519.91 139.15 519.734 139.234 519.573 139.344C519.446 139.429 519.328 139.528 519.218 139.643C519.112 139.753 519.017 139.875 518.932 140.011V145H517.758V135.25H518.932V139.154ZM530.066 138.005C530.282 138.005 530.506 138.02 530.739 138.049C530.976 138.079 531.153 138.119 531.272 138.17L531.113 139.319C530.885 139.268 530.667 139.232 530.459 139.211C530.256 139.186 530.043 139.173 529.818 139.173C529.531 139.173 529.27 139.209 529.038 139.281C528.805 139.348 528.602 139.45 528.428 139.585C528.272 139.704 528.134 139.85 528.016 140.023C527.901 140.193 527.806 140.383 527.73 140.595V145H526.549V138.132H527.667L527.717 139.052L527.724 139.224C528.003 138.847 528.337 138.551 528.727 138.335C529.12 138.115 529.567 138.005 530.066 138.005ZM536.407 145.127C535.925 145.127 535.48 145.044 535.074 144.879C534.672 144.714 534.327 144.484 534.04 144.188C533.752 143.891 533.528 143.54 533.367 143.134C533.206 142.728 533.125 142.285 533.125 141.807V141.541C533.125 140.986 533.214 140.491 533.392 140.055C533.57 139.615 533.807 139.243 534.103 138.938C534.395 138.638 534.727 138.407 535.1 138.246C535.476 138.085 535.861 138.005 536.255 138.005C536.75 138.005 537.182 138.092 537.55 138.265C537.922 138.434 538.231 138.669 538.477 138.97C538.722 139.274 538.904 139.632 539.022 140.042C539.145 140.453 539.207 140.897 539.207 141.375V141.902H534.3V141.947C534.329 142.281 534.395 142.575 534.497 142.829C534.602 143.083 534.746 143.307 534.928 143.502C535.114 143.709 535.339 143.872 535.601 143.991C535.863 144.109 536.153 144.168 536.471 144.168C536.89 144.168 537.262 144.084 537.588 143.915C537.914 143.745 538.185 143.521 538.4 143.242L539.118 143.8C538.889 144.147 538.546 144.456 538.089 144.727C537.637 144.994 537.076 145.127 536.407 145.127ZM536.255 138.97C536.018 138.97 535.794 139.014 535.582 139.103C535.37 139.188 535.18 139.312 535.011 139.478C534.841 139.647 534.698 139.854 534.579 140.1C534.465 140.341 534.384 140.62 534.338 140.938H538.032V140.88C538.032 140.669 537.992 140.442 537.912 140.201C537.831 139.956 537.719 139.744 537.575 139.566C537.431 139.389 537.249 139.245 537.029 139.135C536.813 139.025 536.555 138.97 536.255 138.97ZM542.933 145V139.04H541.041V138.132H542.933V137.649C542.933 137.209 542.996 136.824 543.123 136.494C543.254 136.16 543.438 135.881 543.675 135.656C543.908 135.432 544.189 135.263 544.52 135.148C544.85 135.034 545.218 134.977 545.624 134.977C545.793 134.977 545.96 134.988 546.125 135.009C546.291 135.026 546.453 135.049 546.614 135.079C546.72 135.1 546.826 135.123 546.932 135.148C547.037 135.17 547.145 135.195 547.255 135.225L547.116 136.196C546.942 136.137 546.739 136.086 546.506 136.043C546.278 135.997 546.032 135.974 545.77 135.974C545.503 135.974 545.266 136.007 545.059 136.075C544.856 136.139 544.687 136.236 544.551 136.367C544.407 136.503 544.297 136.678 544.221 136.894C544.149 137.11 544.113 137.362 544.113 137.649V138.132H546.76V139.04H544.113V145H542.933ZM554.65 140.049H548.982V139.027H554.65V140.049ZM554.65 142.683H548.982V141.667H554.65V142.683Z" fill="#F45C59"/>
<path d="M551.54 116.043C551.54 116.242 551.515 116.452 551.464 116.672C551.417 116.892 551.347 117.108 551.254 117.319C551.157 117.535 551.041 117.74 550.905 117.935C550.77 118.13 550.613 118.303 550.436 118.456L549.794 117.999C549.993 117.698 550.141 117.391 550.239 117.078C550.34 116.765 550.391 116.426 550.391 116.062V115.11H551.54V116.043ZM553.647 116.043C553.647 116.242 553.622 116.452 553.571 116.672C553.525 116.892 553.455 117.108 553.362 117.319C553.264 117.535 553.148 117.74 553.013 117.935C552.877 118.13 552.721 118.303 552.543 118.456L551.902 117.999C552.101 117.698 552.249 117.391 552.346 117.078C552.448 116.765 552.499 116.426 552.499 116.062V115.11H553.647V116.043ZM559.722 124.175C559.934 124.175 560.139 124.141 560.338 124.073C560.541 124.006 560.721 123.91 560.877 123.788C561.034 123.669 561.159 123.529 561.252 123.369C561.349 123.204 561.4 123.026 561.404 122.835H562.515C562.511 123.14 562.431 123.432 562.274 123.711C562.122 123.986 561.916 124.228 561.658 124.435C561.4 124.647 561.104 124.816 560.77 124.943C560.435 125.066 560.086 125.127 559.722 125.127C559.202 125.127 558.747 125.034 558.357 124.848C557.968 124.661 557.644 124.41 557.386 124.092C557.124 123.779 556.927 123.417 556.796 123.007C556.665 122.592 556.599 122.156 556.599 121.699V121.433C556.599 120.98 556.665 120.546 556.796 120.131C556.927 119.717 557.124 119.351 557.386 119.033C557.644 118.72 557.968 118.47 558.357 118.284C558.747 118.098 559.202 118.005 559.722 118.005C560.128 118.005 560.501 118.07 560.839 118.202C561.182 118.329 561.478 118.502 561.728 118.722C561.973 118.946 562.166 119.211 562.306 119.516C562.445 119.82 562.515 120.146 562.515 120.493H561.404C561.4 120.286 561.354 120.091 561.265 119.909C561.18 119.723 561.064 119.56 560.916 119.42C560.767 119.281 560.59 119.171 560.382 119.09C560.179 119.01 559.959 118.97 559.722 118.97C559.358 118.97 559.051 119.044 558.802 119.192C558.556 119.336 558.357 119.524 558.205 119.757C558.053 119.994 557.943 120.258 557.875 120.55C557.812 120.842 557.78 121.136 557.78 121.433V121.699C557.78 122 557.812 122.298 557.875 122.594C557.943 122.886 558.053 123.149 558.205 123.381C558.353 123.618 558.55 123.811 558.795 123.959C559.045 124.103 559.354 124.175 559.722 124.175ZM564.788 115.25H568.298V123.984H570.539V125H564.788V123.984H567.124V116.272H564.788V115.25ZM576.924 125C576.878 124.911 576.84 124.801 576.81 124.67C576.785 124.535 576.766 124.395 576.753 124.251C576.634 124.369 576.501 124.482 576.353 124.587C576.209 124.693 576.05 124.786 575.877 124.867C575.699 124.947 575.511 125.011 575.312 125.057C575.113 125.104 574.902 125.127 574.677 125.127C574.313 125.127 573.983 125.074 573.687 124.968C573.395 124.862 573.147 124.719 572.944 124.537C572.737 124.359 572.576 124.147 572.462 123.902C572.352 123.652 572.297 123.383 572.297 123.096C572.297 122.719 572.371 122.389 572.519 122.105C572.671 121.822 572.885 121.585 573.16 121.395C573.435 121.208 573.765 121.069 574.15 120.976C574.54 120.882 574.973 120.836 575.452 120.836H576.734V120.296C576.734 120.089 576.696 119.903 576.62 119.738C576.543 119.573 576.436 119.431 576.296 119.312C576.156 119.198 575.985 119.109 575.782 119.046C575.583 118.982 575.359 118.951 575.109 118.951C574.876 118.951 574.667 118.98 574.48 119.04C574.299 119.099 574.144 119.177 574.017 119.274C573.89 119.372 573.791 119.488 573.719 119.624C573.651 119.755 573.617 119.892 573.617 120.036H572.437C572.441 119.786 572.504 119.541 572.627 119.3C572.754 119.059 572.936 118.841 573.173 118.646C573.406 118.456 573.689 118.301 574.023 118.183C574.362 118.064 574.745 118.005 575.172 118.005C575.562 118.005 575.924 118.054 576.258 118.151C576.592 118.244 576.882 118.386 577.127 118.576C577.369 118.771 577.559 119.012 577.699 119.3C577.838 119.588 577.908 119.924 577.908 120.309V123.502C577.908 123.73 577.929 123.974 577.972 124.232C578.014 124.486 578.073 124.708 578.149 124.898V125H576.924ZM574.849 124.105C575.077 124.105 575.291 124.075 575.49 124.016C575.689 123.957 575.871 123.879 576.036 123.781C576.196 123.684 576.336 123.574 576.455 123.451C576.573 123.324 576.666 123.193 576.734 123.058V121.667H575.642C575.236 121.667 574.88 121.703 574.576 121.775C574.275 121.843 574.036 121.949 573.858 122.093C573.731 122.194 573.634 122.315 573.566 122.455C573.503 122.594 573.471 122.753 573.471 122.931C573.471 123.1 573.499 123.257 573.554 123.4C573.613 123.544 573.7 123.667 573.814 123.769C573.928 123.874 574.072 123.957 574.246 124.016C574.419 124.075 574.62 124.105 574.849 124.105ZM584.783 123.178C584.783 123.039 584.755 122.914 584.7 122.804C584.645 122.689 584.552 122.586 584.421 122.493C584.29 122.4 584.116 122.315 583.9 122.239C583.685 122.158 583.416 122.086 583.094 122.023C582.701 121.943 582.341 121.845 582.015 121.731C581.694 121.617 581.418 121.479 581.19 121.318C580.957 121.162 580.777 120.978 580.65 120.766C580.523 120.55 580.46 120.301 580.46 120.017C580.46 119.738 580.526 119.478 580.657 119.236C580.788 118.991 580.972 118.777 581.209 118.595C581.446 118.413 581.727 118.269 582.053 118.164C582.383 118.058 582.745 118.005 583.139 118.005C583.562 118.005 583.943 118.06 584.281 118.17C584.62 118.28 584.908 118.432 585.145 118.627C585.382 118.822 585.563 119.05 585.69 119.312C585.822 119.571 585.887 119.85 585.887 120.15H584.713C584.713 120.002 584.675 119.858 584.599 119.719C584.522 119.575 584.417 119.448 584.281 119.338C584.146 119.228 583.981 119.139 583.786 119.071C583.596 119.004 583.38 118.97 583.139 118.97C582.889 118.97 582.669 118.997 582.479 119.052C582.292 119.107 582.138 119.181 582.015 119.274C581.888 119.368 581.793 119.475 581.729 119.598C581.666 119.721 581.634 119.848 581.634 119.979C581.634 120.114 581.66 120.235 581.71 120.341C581.761 120.447 581.85 120.542 581.977 120.626C582.1 120.711 582.265 120.787 582.472 120.855C582.684 120.923 582.95 120.988 583.272 121.052C583.695 121.141 584.074 121.244 584.408 121.363C584.743 121.477 585.024 121.615 585.252 121.775C585.481 121.94 585.654 122.131 585.773 122.347C585.896 122.562 585.957 122.812 585.957 123.096C585.957 123.4 585.887 123.678 585.748 123.927C585.612 124.177 585.422 124.391 585.176 124.568C584.931 124.746 584.637 124.884 584.294 124.981C583.951 125.078 583.577 125.127 583.17 125.127C582.705 125.127 582.29 125.066 581.926 124.943C581.562 124.816 581.256 124.649 581.006 124.441C580.752 124.238 580.557 124.001 580.422 123.73C580.291 123.46 580.225 123.178 580.225 122.886H581.399C581.416 123.127 581.48 123.331 581.59 123.496C581.704 123.661 581.846 123.794 582.015 123.896C582.18 123.997 582.364 124.069 582.567 124.111C582.771 124.154 582.972 124.175 583.17 124.175C583.484 124.175 583.757 124.139 583.989 124.067C584.222 123.991 584.404 123.887 584.535 123.756C584.616 123.675 584.677 123.587 584.719 123.489C584.762 123.392 584.783 123.288 584.783 123.178ZM592.59 123.178C592.59 123.039 592.563 122.914 592.508 122.804C592.453 122.689 592.36 122.586 592.229 122.493C592.097 122.4 591.924 122.315 591.708 122.239C591.492 122.158 591.223 122.086 590.902 122.023C590.508 121.943 590.149 121.845 589.823 121.731C589.501 121.617 589.226 121.479 588.998 121.318C588.765 121.162 588.585 120.978 588.458 120.766C588.331 120.55 588.268 120.301 588.268 120.017C588.268 119.738 588.333 119.478 588.464 119.236C588.596 118.991 588.78 118.777 589.017 118.595C589.254 118.413 589.535 118.269 589.861 118.164C590.191 118.058 590.553 118.005 590.946 118.005C591.369 118.005 591.75 118.06 592.089 118.17C592.427 118.28 592.715 118.432 592.952 118.627C593.189 118.822 593.371 119.05 593.498 119.312C593.629 119.571 593.695 119.85 593.695 120.15H592.521C592.521 120.002 592.482 119.858 592.406 119.719C592.33 119.575 592.224 119.448 592.089 119.338C591.953 119.228 591.788 119.139 591.594 119.071C591.403 119.004 591.188 118.97 590.946 118.97C590.697 118.97 590.477 118.997 590.286 119.052C590.1 119.107 589.945 119.181 589.823 119.274C589.696 119.368 589.601 119.475 589.537 119.598C589.474 119.721 589.442 119.848 589.442 119.979C589.442 120.114 589.467 120.235 589.518 120.341C589.569 120.447 589.658 120.542 589.785 120.626C589.907 120.711 590.072 120.787 590.28 120.855C590.491 120.923 590.758 120.988 591.08 121.052C591.503 121.141 591.882 121.244 592.216 121.363C592.55 121.477 592.832 121.615 593.06 121.775C593.289 121.94 593.462 122.131 593.581 122.347C593.703 122.562 593.765 122.812 593.765 123.096C593.765 123.4 593.695 123.678 593.555 123.927C593.42 124.177 593.229 124.391 592.984 124.568C592.738 124.746 592.444 124.884 592.102 124.981C591.759 125.078 591.384 125.127 590.978 125.127C590.513 125.127 590.098 125.066 589.734 124.943C589.37 124.816 589.063 124.649 588.813 124.441C588.56 124.238 588.365 124.001 588.229 123.73C588.098 123.46 588.033 123.178 588.033 122.886H589.207C589.224 123.127 589.287 123.331 589.397 123.496C589.512 123.661 589.653 123.794 589.823 123.896C589.988 123.997 590.172 124.069 590.375 124.111C590.578 124.154 590.779 124.175 590.978 124.175C591.291 124.175 591.564 124.139 591.797 124.067C592.03 123.991 592.212 123.887 592.343 123.756C592.423 123.675 592.485 123.587 592.527 123.489C592.569 123.392 592.59 123.288 592.59 123.178ZM601.623 125H600.43L596.843 118.094L596.824 125H595.637V115.758H596.831L600.417 122.651L600.436 115.758H601.623V125ZM608.155 125C608.108 124.911 608.07 124.801 608.041 124.67C608.015 124.535 607.996 124.395 607.983 124.251C607.865 124.369 607.732 124.482 607.583 124.587C607.44 124.693 607.281 124.786 607.107 124.867C606.93 124.947 606.741 125.011 606.542 125.057C606.344 125.104 606.132 125.127 605.908 125.127C605.544 125.127 605.214 125.074 604.917 124.968C604.625 124.862 604.378 124.719 604.175 124.537C603.967 124.359 603.807 124.147 603.692 123.902C603.582 123.652 603.527 123.383 603.527 123.096C603.527 122.719 603.601 122.389 603.75 122.105C603.902 121.822 604.116 121.585 604.391 121.395C604.666 121.208 604.996 121.069 605.381 120.976C605.77 120.882 606.204 120.836 606.682 120.836H607.964V120.296C607.964 120.089 607.926 119.903 607.85 119.738C607.774 119.573 607.666 119.431 607.526 119.312C607.387 119.198 607.215 119.109 607.012 119.046C606.813 118.982 606.589 118.951 606.339 118.951C606.107 118.951 605.897 118.98 605.711 119.04C605.529 119.099 605.375 119.177 605.248 119.274C605.121 119.372 605.021 119.488 604.949 119.624C604.882 119.755 604.848 119.892 604.848 120.036H603.667C603.671 119.786 603.735 119.541 603.857 119.3C603.984 119.059 604.166 118.841 604.403 118.646C604.636 118.456 604.92 118.301 605.254 118.183C605.592 118.064 605.975 118.005 606.403 118.005C606.792 118.005 607.154 118.054 607.488 118.151C607.823 118.244 608.112 118.386 608.358 118.576C608.599 118.771 608.79 119.012 608.929 119.3C609.069 119.588 609.139 119.924 609.139 120.309V123.502C609.139 123.73 609.16 123.974 609.202 124.232C609.244 124.486 609.304 124.708 609.38 124.898V125H608.155ZM606.079 124.105C606.308 124.105 606.521 124.075 606.72 124.016C606.919 123.957 607.101 123.879 607.266 123.781C607.427 123.684 607.567 123.574 607.685 123.451C607.804 123.324 607.897 123.193 607.964 123.058V121.667H606.873C606.466 121.667 606.111 121.703 605.806 121.775C605.506 121.843 605.267 121.949 605.089 122.093C604.962 122.194 604.865 122.315 604.797 122.455C604.733 122.594 604.702 122.753 604.702 122.931C604.702 123.1 604.729 123.257 604.784 123.4C604.843 123.544 604.93 123.667 605.044 123.769C605.159 123.874 605.303 123.957 605.476 124.016C605.65 124.075 605.851 124.105 606.079 124.105ZM611.989 118.132L612.021 118.779C612.16 118.538 612.342 118.35 612.566 118.214C612.795 118.079 613.07 118.009 613.392 118.005C613.574 118.005 613.736 118.026 613.88 118.068C614.028 118.106 614.158 118.164 614.268 118.24C614.348 118.299 614.42 118.371 614.483 118.456C614.551 118.54 614.608 118.635 614.655 118.741C614.714 118.644 614.784 118.553 614.864 118.468C614.945 118.384 615.031 118.31 615.125 118.246C615.243 118.174 615.374 118.117 615.518 118.075C615.666 118.032 615.827 118.009 616 118.005C616.237 118.005 616.451 118.041 616.642 118.113C616.832 118.181 616.993 118.282 617.124 118.417C617.268 118.57 617.378 118.769 617.454 119.014C617.53 119.255 617.568 119.541 617.568 119.871V125H616.451V119.858C616.451 119.715 616.434 119.588 616.4 119.478C616.367 119.368 616.318 119.277 616.254 119.205C616.187 119.137 616.102 119.086 616 119.052C615.903 119.018 615.789 119.001 615.658 119.001C615.518 119.001 615.397 119.021 615.296 119.059C615.194 119.097 615.11 119.147 615.042 119.211C614.974 119.279 614.921 119.357 614.883 119.446C614.845 119.53 614.82 119.626 614.807 119.731C614.807 119.753 614.807 119.774 614.807 119.795C614.807 119.812 614.807 119.833 614.807 119.858V125H613.69V119.852C613.69 119.708 613.673 119.581 613.639 119.471C613.61 119.361 613.561 119.27 613.493 119.198C613.43 119.131 613.349 119.082 613.252 119.052C613.159 119.018 613.049 119.001 612.922 119.001C612.782 119.001 612.66 119.018 612.554 119.052C612.452 119.082 612.365 119.126 612.293 119.186C612.238 119.232 612.19 119.285 612.147 119.344C612.109 119.403 612.078 119.467 612.052 119.535V125H610.935V118.132H611.989ZM622.291 125.127C621.809 125.127 621.364 125.044 620.958 124.879C620.556 124.714 620.211 124.484 619.923 124.188C619.636 123.891 619.411 123.54 619.25 123.134C619.09 122.728 619.009 122.285 619.009 121.807V121.541C619.009 120.986 619.098 120.491 619.276 120.055C619.454 119.615 619.691 119.243 619.987 118.938C620.279 118.638 620.611 118.407 620.983 118.246C621.36 118.085 621.745 118.005 622.139 118.005C622.634 118.005 623.065 118.092 623.434 118.265C623.806 118.434 624.115 118.669 624.36 118.97C624.606 119.274 624.788 119.632 624.906 120.042C625.029 120.453 625.09 120.897 625.09 121.375V121.902H620.184V121.947C620.213 122.281 620.279 122.575 620.38 122.829C620.486 123.083 620.63 123.307 620.812 123.502C620.998 123.709 621.222 123.872 621.485 123.991C621.747 124.109 622.037 124.168 622.354 124.168C622.773 124.168 623.146 124.084 623.472 123.915C623.798 123.745 624.068 123.521 624.284 123.242L625.001 123.8C624.773 124.147 624.43 124.456 623.973 124.727C623.52 124.994 622.96 125.127 622.291 125.127ZM622.139 118.97C621.902 118.97 621.677 119.014 621.466 119.103C621.254 119.188 621.064 119.312 620.895 119.478C620.725 119.647 620.581 119.854 620.463 120.1C620.349 120.341 620.268 120.62 620.222 120.938H623.916V120.88C623.916 120.669 623.876 120.442 623.795 120.201C623.715 119.956 623.603 119.744 623.459 119.566C623.315 119.389 623.133 119.245 622.913 119.135C622.697 119.025 622.439 118.97 622.139 118.97ZM629.616 116.043C629.616 116.242 629.591 116.452 629.54 116.672C629.493 116.892 629.424 117.108 629.331 117.319C629.233 117.535 629.117 117.74 628.981 117.935C628.846 118.13 628.689 118.303 628.512 118.456L627.871 117.999C628.069 117.698 628.218 117.391 628.315 117.078C628.417 116.765 628.467 116.426 628.467 116.062V115.11H629.616V116.043ZM631.724 116.043C631.724 116.242 631.698 116.452 631.647 116.672C631.601 116.892 631.531 117.108 631.438 117.319C631.341 117.535 631.224 117.74 631.089 117.935C630.953 118.13 630.797 118.303 630.619 118.456L629.978 117.999C630.177 117.698 630.325 117.391 630.422 117.078C630.524 116.765 630.575 116.426 630.575 116.062V115.11H631.724V116.043ZM559.348 136.043C559.348 136.242 559.322 136.452 559.271 136.672C559.225 136.892 559.155 137.108 559.062 137.319C558.965 137.535 558.848 137.74 558.713 137.935C558.577 138.13 558.421 138.303 558.243 138.456L557.602 137.999C557.801 137.698 557.949 137.391 558.046 137.078C558.148 136.765 558.199 136.426 558.199 136.062V135.11H559.348V136.043ZM561.455 136.043C561.455 136.242 561.43 136.452 561.379 136.672C561.332 136.892 561.263 137.108 561.169 137.319C561.072 137.535 560.956 137.74 560.82 137.935C560.685 138.13 560.528 138.303 560.351 138.456L559.709 137.999C559.908 137.698 560.056 137.391 560.154 137.078C560.255 136.765 560.306 136.426 560.306 136.062V135.11H561.455V136.043ZM567.987 142.397H566.311L565.803 145H564.896L565.403 142.397H563.886V141.528H565.568L566.006 139.281H564.369V138.398H566.178L566.698 135.758H567.606L567.085 138.398H568.761L569.282 135.758H570.189L569.669 138.398H570.97V139.281H569.498L569.06 141.528H570.494V142.397H568.895L568.387 145H567.479L567.987 142.397ZM566.476 141.528H568.152L568.59 139.281H566.914L566.476 141.528ZM574.963 136.043C574.963 136.242 574.938 136.452 574.887 136.672C574.84 136.892 574.77 137.108 574.677 137.319C574.58 137.535 574.464 137.74 574.328 137.935C574.193 138.13 574.036 138.303 573.858 138.456L573.217 137.999C573.416 137.698 573.564 137.391 573.662 137.078C573.763 136.765 573.814 136.426 573.814 136.062V135.11H574.963V136.043ZM577.07 136.043C577.07 136.242 577.045 136.452 576.994 136.672C576.948 136.892 576.878 137.108 576.785 137.319C576.687 137.535 576.571 137.74 576.436 137.935C576.3 138.13 576.144 138.303 575.966 138.456L575.325 137.999C575.524 137.698 575.672 137.391 575.769 137.078C575.871 136.765 575.921 136.426 575.921 136.062V135.11H577.07V136.043Z" fill="#286EF1"/>
<path d="M790.398 106.991H791.985C791.935 107.596 791.765 108.136 791.478 108.61C791.19 109.08 790.786 109.45 790.265 109.721C789.745 109.992 789.112 110.127 788.367 110.127C787.796 110.127 787.282 110.025 786.825 109.822C786.368 109.615 785.976 109.323 785.65 108.946C785.325 108.565 785.075 108.106 784.901 107.569C784.732 107.031 784.647 106.431 784.647 105.766V104.998C784.647 104.334 784.734 103.733 784.908 103.195C785.085 102.658 785.339 102.199 785.669 101.818C786 101.433 786.395 101.139 786.856 100.936C787.322 100.732 787.845 100.631 788.424 100.631C789.161 100.631 789.783 100.766 790.291 101.037C790.798 101.308 791.192 101.682 791.471 102.161C791.755 102.639 791.928 103.187 791.992 103.805H790.405C790.362 103.407 790.269 103.066 790.125 102.783C789.986 102.499 789.778 102.283 789.503 102.135C789.228 101.983 788.869 101.907 788.424 101.907C788.06 101.907 787.743 101.974 787.472 102.11C787.201 102.245 786.975 102.444 786.793 102.707C786.611 102.969 786.473 103.293 786.38 103.678C786.292 104.059 786.247 104.494 786.247 104.985V105.766C786.247 106.232 786.287 106.655 786.368 107.036C786.452 107.412 786.579 107.736 786.749 108.007C786.922 108.278 787.142 108.487 787.409 108.635C787.675 108.783 787.995 108.857 788.367 108.857C788.82 108.857 789.186 108.785 789.465 108.642C789.749 108.498 789.963 108.288 790.106 108.013C790.255 107.734 790.352 107.393 790.398 106.991ZM792.988 106.642V106.496C792.988 106.001 793.06 105.542 793.204 105.119C793.348 104.691 793.555 104.321 793.826 104.008C794.101 103.69 794.436 103.445 794.829 103.271C795.227 103.094 795.675 103.005 796.175 103.005C796.678 103.005 797.127 103.094 797.521 103.271C797.918 103.445 798.255 103.69 798.53 104.008C798.805 104.321 799.014 104.691 799.158 105.119C799.302 105.542 799.374 106.001 799.374 106.496V106.642C799.374 107.137 799.302 107.596 799.158 108.02C799.014 108.443 798.805 108.813 798.53 109.13C798.255 109.444 797.92 109.689 797.527 109.867C797.133 110.04 796.687 110.127 796.188 110.127C795.684 110.127 795.233 110.04 794.835 109.867C794.442 109.689 794.108 109.444 793.833 109.13C793.557 108.813 793.348 108.443 793.204 108.02C793.06 107.596 792.988 107.137 792.988 106.642ZM794.518 106.496V106.642C794.518 106.951 794.55 107.243 794.613 107.518C794.677 107.793 794.776 108.034 794.912 108.242C795.047 108.449 795.221 108.612 795.432 108.73C795.644 108.849 795.896 108.908 796.188 108.908C796.471 108.908 796.716 108.849 796.924 108.73C797.135 108.612 797.309 108.449 797.444 108.242C797.58 108.034 797.679 107.793 797.743 107.518C797.81 107.243 797.844 106.951 797.844 106.642V106.496C797.844 106.191 797.81 105.904 797.743 105.633C797.679 105.358 797.578 105.114 797.438 104.903C797.303 104.691 797.129 104.526 796.917 104.408C796.71 104.285 796.463 104.224 796.175 104.224C795.887 104.224 795.637 104.285 795.426 104.408C795.218 104.526 795.047 104.691 794.912 104.903C794.776 105.114 794.677 105.358 794.613 105.633C794.55 105.904 794.518 106.191 794.518 106.496ZM802.192 104.452V112.641H800.663V103.132H802.072L802.192 104.452ZM806.667 106.502V106.636C806.667 107.135 806.608 107.598 806.49 108.026C806.375 108.449 806.204 108.819 805.976 109.137C805.751 109.45 805.474 109.693 805.144 109.867C804.814 110.04 804.433 110.127 804.001 110.127C803.574 110.127 803.2 110.049 802.878 109.892C802.561 109.731 802.292 109.505 802.072 109.213C801.852 108.921 801.674 108.578 801.539 108.185C801.407 107.787 801.314 107.351 801.259 106.877V106.363C801.314 105.859 801.407 105.402 801.539 104.992C801.674 104.581 801.852 104.228 802.072 103.932C802.292 103.635 802.561 103.407 802.878 103.246C803.195 103.085 803.566 103.005 803.989 103.005C804.42 103.005 804.803 103.09 805.138 103.259C805.472 103.424 805.753 103.661 805.982 103.97C806.21 104.274 806.382 104.643 806.496 105.074C806.61 105.502 806.667 105.978 806.667 106.502ZM805.138 106.636V106.502C805.138 106.185 805.108 105.891 805.049 105.62C804.99 105.345 804.896 105.104 804.77 104.896C804.643 104.689 804.48 104.528 804.281 104.414C804.086 104.296 803.851 104.236 803.576 104.236C803.305 104.236 803.073 104.283 802.878 104.376C802.683 104.465 802.52 104.59 802.389 104.75C802.258 104.911 802.156 105.1 802.084 105.315C802.013 105.527 801.962 105.758 801.932 106.007V107.239C801.983 107.543 802.07 107.823 802.192 108.077C802.315 108.331 802.489 108.534 802.713 108.686C802.941 108.834 803.233 108.908 803.589 108.908C803.864 108.908 804.099 108.849 804.293 108.73C804.488 108.612 804.647 108.449 804.77 108.242C804.896 108.03 804.99 107.787 805.049 107.512C805.108 107.237 805.138 106.945 805.138 106.636ZM809.886 109.251L811.752 103.132H813.39L810.635 111.047C810.571 111.217 810.489 111.401 810.387 111.6C810.286 111.799 810.152 111.987 809.987 112.165C809.826 112.347 809.625 112.493 809.384 112.603C809.143 112.717 808.851 112.774 808.508 112.774C808.373 112.774 808.242 112.761 808.115 112.736C807.992 112.715 807.876 112.691 807.766 112.666L807.759 111.498C807.802 111.502 807.852 111.507 807.912 111.511C807.975 111.515 808.026 111.517 808.064 111.517C808.318 111.517 808.529 111.485 808.699 111.422C808.868 111.363 809.006 111.265 809.111 111.13C809.221 110.994 809.314 110.812 809.391 110.584L809.886 109.251ZM808.832 103.132L810.463 108.273L810.736 109.886L809.676 110.159L807.182 103.132H808.832Z" fill="#1A1A1A"/>
<rect x="768.5" y="90.5" width="61" height="31" rx="3.5" stroke="#1A1A1A"/>
<rect x="446.5" y="74.5" width="399" height="111" rx="7.5" stroke="#E6E6E6"/>
<path d="M451.699 42.4512V51H450.012V44.3965L447.984 45.041V43.7109L451.518 42.4512H451.699ZM458.83 42.3809H459.076V43.7285H458.977C458.531 43.7285 458.135 43.7949 457.787 43.9277C457.439 44.0605 457.145 44.25 456.902 44.4961C456.664 44.7383 456.48 45.0312 456.352 45.375C456.227 45.7188 456.164 46.1035 456.164 46.5293V47.9473C456.164 48.252 456.193 48.5215 456.252 48.7559C456.314 48.9863 456.402 49.1797 456.516 49.3359C456.633 49.4883 456.77 49.6035 456.926 49.6816C457.082 49.7559 457.258 49.793 457.453 49.793C457.637 49.793 457.803 49.7539 457.951 49.6758C458.104 49.5977 458.232 49.4883 458.338 49.3477C458.447 49.2031 458.529 49.0352 458.584 48.8438C458.643 48.6484 458.672 48.4355 458.672 48.2051C458.672 47.9746 458.643 47.7617 458.584 47.5664C458.529 47.3711 458.447 47.2031 458.338 47.0625C458.229 46.918 458.096 46.8066 457.939 46.7285C457.783 46.6504 457.607 46.6113 457.412 46.6113C457.146 46.6113 456.912 46.6738 456.709 46.7988C456.51 46.9199 456.354 47.0762 456.24 47.2676C456.127 47.459 456.066 47.6602 456.059 47.8711L455.549 47.543C455.561 47.2422 455.623 46.957 455.736 46.6875C455.854 46.418 456.014 46.1797 456.217 45.9727C456.424 45.7617 456.672 45.5977 456.961 45.4805C457.25 45.3594 457.576 45.2988 457.939 45.2988C458.338 45.2988 458.688 45.375 458.988 45.5273C459.293 45.6797 459.547 45.8887 459.75 46.1543C459.953 46.4199 460.105 46.7266 460.207 47.0742C460.309 47.4219 460.359 47.793 460.359 48.1875C460.359 48.6016 460.291 48.9863 460.154 49.3418C460.021 49.6973 459.828 50.0078 459.574 50.2734C459.324 50.5391 459.023 50.7461 458.672 50.8945C458.32 51.043 457.926 51.1172 457.488 51.1172C457.035 51.1172 456.623 51.0352 456.252 50.8711C455.885 50.7031 455.568 50.4688 455.303 50.168C455.037 49.8672 454.832 49.5098 454.688 49.0957C454.547 48.6816 454.477 48.2285 454.477 47.7363V47.0801C454.477 46.3926 454.576 45.7637 454.775 45.1934C454.979 44.6191 455.27 44.123 455.648 43.7051C456.027 43.2832 456.484 42.957 457.02 42.7266C457.555 42.4961 458.158 42.3809 458.83 42.3809Z" fill="#18BB4B"/>
<rect x="446" y="58" width="1" height="144" fill="#18BB4B"/>
<g opacity="0.9">
<rect width="14" height="144" transform="translate(447 58)" fill="#18BB4B" fill-opacity="0.2"/>
</g>
<rect x="461" y="58" width="1" height="144" fill="#18BB4B"/>
<path d="M835.699 42.4512V51H834.012V44.3965L831.984 45.041V43.7109L835.518 42.4512H835.699ZM842.83 42.3809H843.076V43.7285H842.977C842.531 43.7285 842.135 43.7949 841.787 43.9277C841.439 44.0605 841.145 44.25 840.902 44.4961C840.664 44.7383 840.48 45.0312 840.352 45.375C840.227 45.7188 840.164 46.1035 840.164 46.5293V47.9473C840.164 48.252 840.193 48.5215 840.252 48.7559C840.314 48.9863 840.402 49.1797 840.516 49.3359C840.633 49.4883 840.77 49.6035 840.926 49.6816C841.082 49.7559 841.258 49.793 841.453 49.793C841.637 49.793 841.803 49.7539 841.951 49.6758C842.104 49.5977 842.232 49.4883 842.338 49.3477C842.447 49.2031 842.529 49.0352 842.584 48.8438C842.643 48.6484 842.672 48.4355 842.672 48.2051C842.672 47.9746 842.643 47.7617 842.584 47.5664C842.529 47.3711 842.447 47.2031 842.338 47.0625C842.229 46.918 842.096 46.8066 841.939 46.7285C841.783 46.6504 841.607 46.6113 841.412 46.6113C841.146 46.6113 840.912 46.6738 840.709 46.7988C840.51 46.9199 840.354 47.0762 840.24 47.2676C840.127 47.459 840.066 47.6602 840.059 47.8711L839.549 47.543C839.561 47.2422 839.623 46.957 839.736 46.6875C839.854 46.418 840.014 46.1797 840.217 45.9727C840.424 45.7617 840.672 45.5977 840.961 45.4805C841.25 45.3594 841.576 45.2988 841.939 45.2988C842.338 45.2988 842.688 45.375 842.988 45.5273C843.293 45.6797 843.547 45.8887 843.75 46.1543C843.953 46.4199 844.105 46.7266 844.207 47.0742C844.309 47.4219 844.359 47.793 844.359 48.1875C844.359 48.6016 844.291 48.9863 844.154 49.3418C844.021 49.6973 843.828 50.0078 843.574 50.2734C843.324 50.5391 843.023 50.7461 842.672 50.8945C842.32 51.043 841.926 51.1172 841.488 51.1172C841.035 51.1172 840.623 51.0352 840.252 50.8711C839.885 50.7031 839.568 50.4688 839.303 50.168C839.037 49.8672 838.832 49.5098 838.688 49.0957C838.547 48.6816 838.477 48.2285 838.477 47.7363V47.0801C838.477 46.3926 838.576 45.7637 838.775 45.1934C838.979 44.6191 839.27 44.123 839.648 43.7051C840.027 43.2832 840.484 42.957 841.02 42.7266C841.555 42.4961 842.158 42.3809 842.83 42.3809Z" fill="#18BB4B"/>
<rect x="830" y="58" width="1" height="144" fill="#18BB4B"/>
<g opacity="0.9">
<rect width="14" height="144" transform="translate(831 58)" fill="#18BB4B" fill-opacity="0.2"/>
</g>
<rect x="845" y="58" width="1" height="144" fill="#18BB4B"/>
<path d="M423.699 77.4512V86H422.012V79.3965L419.984 80.041V78.7109L423.518 77.4512H423.699ZM430.83 77.3809H431.076V78.7285H430.977C430.531 78.7285 430.135 78.7949 429.787 78.9277C429.439 79.0605 429.145 79.25 428.902 79.4961C428.664 79.7383 428.48 80.0312 428.352 80.375C428.227 80.7188 428.164 81.1035 428.164 81.5293V82.9473C428.164 83.252 428.193 83.5215 428.252 83.7559C428.314 83.9863 428.402 84.1797 428.516 84.3359C428.633 84.4883 428.77 84.6035 428.926 84.6816C429.082 84.7559 429.258 84.793 429.453 84.793C429.637 84.793 429.803 84.7539 429.951 84.6758C430.104 84.5977 430.232 84.4883 430.338 84.3477C430.447 84.2031 430.529 84.0352 430.584 83.8438C430.643 83.6484 430.672 83.4355 430.672 83.2051C430.672 82.9746 430.643 82.7617 430.584 82.5664C430.529 82.3711 430.447 82.2031 430.338 82.0625C430.229 81.918 430.096 81.8066 429.939 81.7285C429.783 81.6504 429.607 81.6113 429.412 81.6113C429.146 81.6113 428.912 81.6738 428.709 81.7988C428.51 81.9199 428.354 82.0762 428.24 82.2676C428.127 82.459 428.066 82.6602 428.059 82.8711L427.549 82.543C427.561 82.2422 427.623 81.957 427.736 81.6875C427.854 81.418 428.014 81.1797 428.217 80.9727C428.424 80.7617 428.672 80.5977 428.961 80.4805C429.25 80.3594 429.576 80.2988 429.939 80.2988C430.338 80.2988 430.688 80.375 430.988 80.5273C431.293 80.6797 431.547 80.8887 431.75 81.1543C431.953 81.4199 432.105 81.7266 432.207 82.0742C432.309 82.4219 432.359 82.793 432.359 83.1875C432.359 83.6016 432.291 83.9863 432.154 84.3418C432.021 84.6973 431.828 85.0078 431.574 85.2734C431.324 85.5391 431.023 85.7461 430.672 85.8945C430.32 86.043 429.926 86.1172 429.488 86.1172C429.035 86.1172 428.623 86.0352 428.252 85.8711C427.885 85.7031 427.568 85.4688 427.303 85.168C427.037 84.8672 426.832 84.5098 426.688 84.0957C426.547 83.6816 426.477 83.2285 426.477 82.7363V82.0801C426.477 81.3926 426.576 80.7637 426.775 80.1934C426.979 79.6191 427.27 79.123 427.648 78.7051C428.027 78.2832 428.484 77.957 429.02 77.7266C429.555 77.4961 430.158 77.3809 430.83 77.3809Z" fill="#18BB4B"/>
<rect x="437" y="74" width="425" height="1" fill="#18BB4B"/>
<g opacity="0.3">
<rect width="425" height="14" transform="translate(437 75)" fill="#18BB4B"/>
</g>
<rect x="437" y="89" width="425" height="1" fill="#18BB4B"/>
<path d="M423.699 173.451V182H422.012V175.396L419.984 176.041V174.711L423.518 173.451H423.699ZM430.83 173.381H431.076V174.729H430.977C430.531 174.729 430.135 174.795 429.787 174.928C429.439 175.061 429.145 175.25 428.902 175.496C428.664 175.738 428.48 176.031 428.352 176.375C428.227 176.719 428.164 177.104 428.164 177.529V178.947C428.164 179.252 428.193 179.521 428.252 179.756C428.314 179.986 428.402 180.18 428.516 180.336C428.633 180.488 428.77 180.604 428.926 180.682C429.082 180.756 429.258 180.793 429.453 180.793C429.637 180.793 429.803 180.754 429.951 180.676C430.104 180.598 430.232 180.488 430.338 180.348C430.447 180.203 430.529 180.035 430.584 179.844C430.643 179.648 430.672 179.436 430.672 179.205C430.672 178.975 430.643 178.762 430.584 178.566C430.529 178.371 430.447 178.203 430.338 178.062C430.229 177.918 430.096 177.807 429.939 177.729C429.783 177.65 429.607 177.611 429.412 177.611C429.146 177.611 428.912 177.674 428.709 177.799C428.51 177.92 428.354 178.076 428.24 178.268C428.127 178.459 428.066 178.66 428.059 178.871L427.549 178.543C427.561 178.242 427.623 177.957 427.736 177.688C427.854 177.418 428.014 177.18 428.217 176.973C428.424 176.762 428.672 176.598 428.961 176.48C429.25 176.359 429.576 176.299 429.939 176.299C430.338 176.299 430.688 176.375 430.988 176.527C431.293 176.68 431.547 176.889 431.75 177.154C431.953 177.42 432.105 177.727 432.207 178.074C432.309 178.422 432.359 178.793 432.359 179.188C432.359 179.602 432.291 179.986 432.154 180.342C432.021 180.697 431.828 181.008 431.574 181.273C431.324 181.539 431.023 181.746 430.672 181.895C430.32 182.043 429.926 182.117 429.488 182.117C429.035 182.117 428.623 182.035 428.252 181.871C427.885 181.703 427.568 181.469 427.303 181.168C427.037 180.867 426.832 180.51 426.688 180.096C426.547 179.682 426.477 179.229 426.477 178.736V178.08C426.477 177.393 426.576 176.764 426.775 176.193C426.979 175.619 427.27 175.123 427.648 174.705C428.027 174.283 428.484 173.957 429.02 173.727C429.555 173.496 430.158 173.381 430.83 173.381Z" fill="#18BB4B"/>
<rect x="437" y="170" width="425" height="1" fill="#18BB4B"/>
<g opacity="0.3">
<rect width="425" height="14" transform="translate(437 171)" fill="#18BB4B"/>
</g>
<rect x="437" y="185" width="425" height="1" fill="#18BB4B"/>
<rect x="0.5" y="0.5" width="1279" height="259" rx="15.5" stroke="#E6E6E6"/>
</svg>
