<svg width="800" height="258" viewBox="0 0 800 258" fill="none" xmlns="http://www.w3.org/2000/svg">
<rect width="800" height="258" rx="4" fill="#F8F8F8"/>
<path d="M225.134 77.0229H222.358V75.5654H225.134C225.618 75.5654 226.008 75.4873 226.306 75.3311C226.604 75.1748 226.821 74.96 226.958 74.6865C227.1 74.4082 227.17 74.0908 227.17 73.7344C227.17 73.3975 227.1 73.0825 226.958 72.7896C226.821 72.4917 226.604 72.2524 226.306 72.0718C226.008 71.8911 225.618 71.8008 225.134 71.8008H222.922V81H221.084V70.3359H225.134C225.959 70.3359 226.66 70.4824 227.236 70.7754C227.817 71.0635 228.259 71.4639 228.562 71.9766C228.865 72.4844 229.016 73.0654 229.016 73.7197C229.016 74.4082 228.865 74.999 228.562 75.4922C228.259 75.9854 227.817 76.3638 227.236 76.6274C226.66 76.8911 225.959 77.0229 225.134 77.0229ZM234.868 79.4106V75.6313C234.868 75.3481 234.817 75.104 234.714 74.8989C234.612 74.6938 234.456 74.5352 234.246 74.4229C234.041 74.3105 233.782 74.2544 233.469 74.2544C233.181 74.2544 232.932 74.3032 232.722 74.4009C232.512 74.4985 232.349 74.6304 232.231 74.7964C232.114 74.9624 232.056 75.1504 232.056 75.3604H230.298C230.298 75.0479 230.374 74.7451 230.525 74.4521C230.676 74.1592 230.896 73.8979 231.184 73.6685C231.472 73.439 231.816 73.2583 232.217 73.1265C232.617 72.9946 233.066 72.9287 233.564 72.9287C234.16 72.9287 234.688 73.0288 235.146 73.229C235.61 73.4292 235.974 73.7319 236.238 74.1372C236.506 74.5376 236.641 75.0405 236.641 75.646V79.1689C236.641 79.5303 236.665 79.855 236.714 80.1431C236.768 80.4263 236.843 80.6729 236.941 80.8828V81H235.132C235.049 80.8096 234.983 80.5679 234.934 80.2749C234.89 79.9771 234.868 79.689 234.868 79.4106ZM235.125 76.1807L235.139 77.272H233.872C233.545 77.272 233.257 77.3037 233.008 77.3672C232.759 77.4258 232.551 77.5137 232.385 77.6309C232.219 77.748 232.095 77.8896 232.012 78.0557C231.929 78.2217 231.887 78.4097 231.887 78.6196C231.887 78.8296 231.936 79.0225 232.034 79.1982C232.131 79.3691 232.273 79.5034 232.458 79.6011C232.649 79.6987 232.878 79.7476 233.147 79.7476C233.508 79.7476 233.823 79.6743 234.092 79.5278C234.365 79.3765 234.58 79.1934 234.736 78.9785C234.893 78.7588 234.976 78.5513 234.985 78.356L235.557 79.1396C235.498 79.3398 235.398 79.5547 235.256 79.7842C235.115 80.0137 234.929 80.2334 234.7 80.4434C234.475 80.6484 234.204 80.8169 233.887 80.9487C233.574 81.0806 233.213 81.1465 232.803 81.1465C232.285 81.1465 231.824 81.0439 231.418 80.8389C231.013 80.6289 230.696 80.3481 230.466 79.9966C230.237 79.6401 230.122 79.2373 230.122 78.7881C230.122 78.3682 230.2 77.9971 230.356 77.6748C230.518 77.3477 230.752 77.0742 231.06 76.8545C231.372 76.6348 231.753 76.4688 232.202 76.3564C232.651 76.2393 233.164 76.1807 233.74 76.1807H235.125ZM242.932 78.854C242.932 78.6782 242.888 78.5195 242.8 78.3779C242.712 78.2314 242.544 78.0996 242.295 77.9824C242.051 77.8652 241.689 77.7578 241.211 77.6602C240.791 77.5674 240.405 77.4575 240.054 77.3306C239.707 77.1987 239.409 77.04 239.16 76.8545C238.911 76.6689 238.718 76.4492 238.582 76.1953C238.445 75.9414 238.376 75.6484 238.376 75.3164C238.376 74.9941 238.447 74.689 238.589 74.4009C238.73 74.1128 238.933 73.8589 239.197 73.6392C239.46 73.4194 239.78 73.2461 240.156 73.1191C240.537 72.9922 240.962 72.9287 241.431 72.9287C242.095 72.9287 242.664 73.041 243.137 73.2656C243.616 73.4854 243.982 73.7856 244.236 74.1665C244.49 74.5425 244.617 74.9673 244.617 75.4409H242.852C242.852 75.231 242.798 75.0356 242.69 74.855C242.588 74.6694 242.432 74.5205 242.222 74.4082C242.012 74.291 241.748 74.2324 241.431 74.2324C241.128 74.2324 240.876 74.2812 240.676 74.3789C240.481 74.4717 240.334 74.5938 240.237 74.7451C240.144 74.8965 240.098 75.0625 240.098 75.2432C240.098 75.375 240.122 75.4946 240.171 75.6021C240.225 75.7046 240.312 75.7998 240.435 75.8877C240.557 75.9707 240.723 76.0488 240.933 76.1221C241.147 76.1953 241.416 76.2661 241.738 76.3345C242.344 76.4614 242.864 76.625 243.298 76.8252C243.738 77.0205 244.075 77.2744 244.309 77.5869C244.543 77.8945 244.661 78.2852 244.661 78.7588C244.661 79.1104 244.585 79.4326 244.434 79.7256C244.287 80.0137 244.072 80.2651 243.789 80.48C243.506 80.6899 243.167 80.8535 242.771 80.9707C242.38 81.0879 241.941 81.1465 241.453 81.1465C240.735 81.1465 240.127 81.0195 239.629 80.7656C239.131 80.5068 238.752 80.1772 238.494 79.7769C238.24 79.3716 238.113 78.9517 238.113 78.5171H239.819C239.839 78.8442 239.929 79.1055 240.09 79.3008C240.256 79.4912 240.461 79.6304 240.706 79.7183C240.955 79.8013 241.211 79.8428 241.475 79.8428C241.792 79.8428 242.058 79.8013 242.273 79.7183C242.488 79.6304 242.651 79.5132 242.764 79.3667C242.876 79.2153 242.932 79.0444 242.932 78.854ZM250.652 78.854C250.652 78.6782 250.608 78.5195 250.52 78.3779C250.432 78.2314 250.264 78.0996 250.015 77.9824C249.771 77.8652 249.409 77.7578 248.931 77.6602C248.511 77.5674 248.125 77.4575 247.773 77.3306C247.427 77.1987 247.129 77.04 246.88 76.8545C246.631 76.6689 246.438 76.4492 246.301 76.1953C246.165 75.9414 246.096 75.6484 246.096 75.3164C246.096 74.9941 246.167 74.689 246.309 74.4009C246.45 74.1128 246.653 73.8589 246.917 73.6392C247.18 73.4194 247.5 73.2461 247.876 73.1191C248.257 72.9922 248.682 72.9287 249.15 72.9287C249.814 72.9287 250.383 73.041 250.857 73.2656C251.335 73.4854 251.702 73.7856 251.956 74.1665C252.209 74.5425 252.336 74.9673 252.336 75.4409H250.571C250.571 75.231 250.518 75.0356 250.41 74.855C250.308 74.6694 250.151 74.5205 249.941 74.4082C249.731 74.291 249.468 74.2324 249.15 74.2324C248.848 74.2324 248.596 74.2812 248.396 74.3789C248.201 74.4717 248.054 74.5938 247.957 74.7451C247.864 74.8965 247.817 75.0625 247.817 75.2432C247.817 75.375 247.842 75.4946 247.891 75.6021C247.944 75.7046 248.032 75.7998 248.154 75.8877C248.276 75.9707 248.442 76.0488 248.652 76.1221C248.867 76.1953 249.136 76.2661 249.458 76.3345C250.063 76.4614 250.583 76.625 251.018 76.8252C251.458 77.0205 251.794 77.2744 252.029 77.5869C252.263 77.8945 252.38 78.2852 252.38 78.7588C252.38 79.1104 252.305 79.4326 252.153 79.7256C252.007 80.0137 251.792 80.2651 251.509 80.48C251.226 80.6899 250.886 80.8535 250.491 80.9707C250.1 81.0879 249.661 81.1465 249.172 81.1465C248.455 81.1465 247.847 81.0195 247.349 80.7656C246.851 80.5068 246.472 80.1772 246.213 79.7769C245.959 79.3716 245.833 78.9517 245.833 78.5171H247.539C247.559 78.8442 247.649 79.1055 247.81 79.3008C247.976 79.4912 248.181 79.6304 248.425 79.7183C248.674 79.8013 248.931 79.8428 249.194 79.8428C249.512 79.8428 249.778 79.8013 249.993 79.7183C250.208 79.6304 250.371 79.5132 250.483 79.3667C250.596 79.2153 250.652 79.0444 250.652 78.854ZM256.079 79.2422L257.91 73.0752H259.038L258.73 74.9209L256.885 81H255.874L256.079 79.2422ZM255.002 73.0752L256.431 79.2715L256.548 81H255.42L253.274 73.0752H255.002ZM260.752 79.1982L262.136 73.0752H263.857L261.719 81H260.591L260.752 79.1982ZM259.229 73.0752L261.038 79.1689L261.265 81H260.254L258.386 74.9136L258.079 73.0752H259.229ZM264.722 77.1255V76.957C264.722 76.3857 264.805 75.856 264.971 75.3677C265.137 74.8745 265.376 74.4473 265.688 74.0859C266.006 73.7197 266.392 73.4365 266.846 73.2363C267.305 73.0312 267.822 72.9287 268.398 72.9287C268.979 72.9287 269.497 73.0312 269.951 73.2363C270.41 73.4365 270.798 73.7197 271.116 74.0859C271.433 74.4473 271.675 74.8745 271.841 75.3677C272.007 75.856 272.09 76.3857 272.09 76.957V77.1255C272.09 77.6968 272.007 78.2266 271.841 78.7148C271.675 79.2031 271.433 79.6304 271.116 79.9966C270.798 80.3579 270.413 80.6411 269.958 80.8462C269.504 81.0464 268.989 81.1465 268.413 81.1465C267.832 81.1465 267.312 81.0464 266.853 80.8462C266.399 80.6411 266.013 80.3579 265.696 79.9966C265.378 79.6304 265.137 79.2031 264.971 78.7148C264.805 78.2266 264.722 77.6968 264.722 77.1255ZM266.487 76.957V77.1255C266.487 77.4819 266.523 77.8188 266.597 78.1362C266.67 78.4536 266.785 78.7319 266.941 78.9712C267.097 79.2104 267.297 79.3984 267.542 79.5352C267.786 79.6719 268.076 79.7402 268.413 79.7402C268.74 79.7402 269.023 79.6719 269.263 79.5352C269.507 79.3984 269.707 79.2104 269.863 78.9712C270.02 78.7319 270.134 78.4536 270.208 78.1362C270.286 77.8188 270.325 77.4819 270.325 77.1255V76.957C270.325 76.6055 270.286 76.2734 270.208 75.9609C270.134 75.6436 270.017 75.3628 269.856 75.1187C269.7 74.8745 269.5 74.6841 269.255 74.5474C269.016 74.4058 268.73 74.335 268.398 74.335C268.066 74.335 267.778 74.4058 267.534 74.5474C267.295 74.6841 267.097 74.8745 266.941 75.1187C266.785 75.3628 266.67 75.6436 266.597 75.9609C266.523 76.2734 266.487 76.6055 266.487 76.957ZM275.342 74.584V81H273.577V73.0752H275.261L275.342 74.584ZM277.766 73.0239L277.751 74.6646C277.644 74.645 277.527 74.6304 277.4 74.6206C277.278 74.6108 277.156 74.606 277.034 74.606C276.731 74.606 276.465 74.6499 276.235 74.7378C276.006 74.8208 275.813 74.9429 275.657 75.104C275.505 75.2603 275.388 75.4507 275.305 75.6753C275.222 75.8999 275.173 76.1514 275.159 76.4297L274.756 76.459C274.756 75.9609 274.805 75.4995 274.902 75.0747C275 74.6499 275.146 74.2764 275.342 73.9541C275.542 73.6318 275.791 73.3804 276.089 73.1997C276.392 73.019 276.741 72.9287 277.136 72.9287C277.244 72.9287 277.358 72.9385 277.48 72.958C277.607 72.9775 277.703 72.9995 277.766 73.0239ZM283.56 79.3594V69.75H285.332V81H283.728L283.56 79.3594ZM278.403 77.1255V76.9717C278.403 76.3711 278.474 75.8242 278.616 75.3311C278.757 74.833 278.962 74.4058 279.231 74.0493C279.5 73.688 279.827 73.4121 280.212 73.2217C280.598 73.0264 281.033 72.9287 281.516 72.9287C281.995 72.9287 282.415 73.0215 282.776 73.207C283.137 73.3926 283.445 73.6587 283.699 74.0054C283.953 74.3472 284.155 74.7573 284.307 75.2358C284.458 75.7095 284.565 76.2368 284.629 76.8179V77.3086C284.565 77.875 284.458 78.3926 284.307 78.8613C284.155 79.3301 283.953 79.7354 283.699 80.0771C283.445 80.4189 283.135 80.6826 282.769 80.8682C282.407 81.0537 281.985 81.1465 281.501 81.1465C281.023 81.1465 280.591 81.0464 280.205 80.8462C279.824 80.646 279.5 80.3652 279.231 80.0039C278.962 79.6426 278.757 79.2178 278.616 78.7295C278.474 78.2363 278.403 77.7017 278.403 77.1255ZM280.168 76.9717V77.1255C280.168 77.4868 280.2 77.8237 280.264 78.1362C280.332 78.4487 280.437 78.7246 280.579 78.9639C280.72 79.1982 280.903 79.3838 281.128 79.5205C281.357 79.6523 281.631 79.7183 281.948 79.7183C282.349 79.7183 282.678 79.6304 282.937 79.4546C283.196 79.2788 283.398 79.042 283.545 78.7441C283.696 78.4414 283.799 78.1045 283.853 77.7334V76.4077C283.823 76.1196 283.762 75.8511 283.669 75.6021C283.582 75.353 283.462 75.1357 283.311 74.9502C283.159 74.7598 282.971 74.6133 282.747 74.5107C282.527 74.4033 282.266 74.3496 281.963 74.3496C281.641 74.3496 281.367 74.418 281.143 74.5547C280.918 74.6914 280.732 74.8794 280.586 75.1187C280.444 75.3579 280.339 75.6362 280.271 75.9536C280.203 76.271 280.168 76.6104 280.168 76.9717Z" fill="#505050"/>
<rect x="220.5" y="92.5" width="278" height="39" rx="3.5" fill="white"/>
<path d="M237.018 111.639V111.338C237.018 110.918 237.15 110.572 237.414 110.298C237.682 110.025 238.046 109.888 238.505 109.888C238.969 109.888 239.335 110.025 239.604 110.298C239.872 110.572 240.006 110.918 240.006 111.338V111.639C240.006 112.054 239.872 112.398 239.604 112.671C239.34 112.94 238.976 113.074 238.512 113.074C238.053 113.074 237.689 112.94 237.421 112.671C237.152 112.398 237.018 112.054 237.018 111.639ZM242.086 111.639V111.338C242.086 110.918 242.218 110.572 242.482 110.298C242.75 110.025 243.114 109.888 243.573 109.888C244.037 109.888 244.403 110.025 244.672 110.298C244.94 110.572 245.075 110.918 245.075 111.338V111.639C245.075 112.054 244.94 112.398 244.672 112.671C244.408 112.94 244.044 113.074 243.581 113.074C243.122 113.074 242.758 112.94 242.489 112.671C242.221 112.398 242.086 112.054 242.086 111.639ZM247.155 111.639V111.338C247.155 110.918 247.287 110.572 247.55 110.298C247.819 110.025 248.183 109.888 248.642 109.888C249.105 109.888 249.472 110.025 249.74 110.298C250.009 110.572 250.143 110.918 250.143 111.338V111.639C250.143 112.054 250.009 112.398 249.74 112.671C249.477 112.94 249.113 113.074 248.649 113.074C248.19 113.074 247.826 112.94 247.558 112.671C247.289 112.398 247.155 112.054 247.155 111.639ZM252.223 111.639V111.338C252.223 110.918 252.355 110.572 252.619 110.298C252.887 110.025 253.251 109.888 253.71 109.888C254.174 109.888 254.54 110.025 254.809 110.298C255.077 110.572 255.211 110.918 255.211 111.338V111.639C255.211 112.054 255.077 112.398 254.809 112.671C254.545 112.94 254.181 113.074 253.717 113.074C253.258 113.074 252.895 112.94 252.626 112.671C252.357 112.398 252.223 112.054 252.223 111.639ZM257.292 111.639V111.338C257.292 110.918 257.423 110.572 257.687 110.298C257.956 110.025 258.319 109.888 258.778 109.888C259.242 109.888 259.608 110.025 259.877 110.298C260.146 110.572 260.28 110.918 260.28 111.338V111.639C260.28 112.054 260.146 112.398 259.877 112.671C259.613 112.94 259.25 113.074 258.786 113.074C258.327 113.074 257.963 112.94 257.694 112.671C257.426 112.398 257.292 112.054 257.292 111.639ZM262.36 111.639V111.338C262.36 110.918 262.492 110.572 262.755 110.298C263.024 110.025 263.388 109.888 263.847 109.888C264.311 109.888 264.677 110.025 264.945 110.298C265.214 110.572 265.348 110.918 265.348 111.338V111.639C265.348 112.054 265.214 112.398 264.945 112.671C264.682 112.94 264.318 113.074 263.854 113.074C263.395 113.074 263.031 112.94 262.763 112.671C262.494 112.398 262.36 112.054 262.36 111.639ZM267.428 111.639V111.338C267.428 110.918 267.56 110.572 267.824 110.298C268.092 110.025 268.456 109.888 268.915 109.888C269.379 109.888 269.745 110.025 270.014 110.298C270.282 110.572 270.417 110.918 270.417 111.338V111.639C270.417 112.054 270.282 112.398 270.014 112.671C269.75 112.94 269.386 113.074 268.922 113.074C268.463 113.074 268.1 112.94 267.831 112.671C267.562 112.398 267.428 112.054 267.428 111.639ZM272.497 111.639V111.338C272.497 110.918 272.628 110.572 272.892 110.298C273.161 110.025 273.524 109.888 273.983 109.888C274.447 109.888 274.813 110.025 275.082 110.298C275.351 110.572 275.485 110.918 275.485 111.338V111.639C275.485 112.054 275.351 112.398 275.082 112.671C274.818 112.94 274.455 113.074 273.991 113.074C273.532 113.074 273.168 112.94 272.899 112.671C272.631 112.398 272.497 112.054 272.497 111.639ZM277.565 111.639V111.338C277.565 110.918 277.697 110.572 277.96 110.298C278.229 110.025 278.593 109.888 279.052 109.888C279.516 109.888 279.882 110.025 280.15 110.298C280.419 110.572 280.553 110.918 280.553 111.338V111.639C280.553 112.054 280.419 112.398 280.15 112.671C279.887 112.94 279.523 113.074 279.059 113.074C278.6 113.074 278.236 112.94 277.968 112.671C277.699 112.398 277.565 112.054 277.565 111.639ZM282.633 111.639V111.338C282.633 110.918 282.765 110.572 283.029 110.298C283.297 110.025 283.661 109.888 284.12 109.888C284.584 109.888 284.95 110.025 285.219 110.298C285.487 110.572 285.622 110.918 285.622 111.338V111.639C285.622 112.054 285.487 112.398 285.219 112.671C284.955 112.94 284.591 113.074 284.127 113.074C283.668 113.074 283.305 112.94 283.036 112.671C282.768 112.398 282.633 112.054 282.633 111.639Z" fill="#1A1A1A"/>
<path d="M474.556 112C474.556 109.791 476.545 108 479 108C481.455 108 483.445 109.791 483.445 112C483.445 114.209 481.455 116 479 116C476.545 116 474.556 114.209 474.556 112ZM479 114.5C480.535 114.5 481.778 113.381 481.778 112C481.778 110.619 480.535 109.5 479 109.5C478.976 109.5 478.955 109.5 478.9 109.5C478.976 109.659 479 109.828 479 110C479 111.103 478.004 112 476.778 112C476.587 112 476.4 111.978 476.223 111.909C476.223 111.959 476.223 111.978 476.223 111.972C476.223 113.381 477.466 114.5 479 114.5ZM472.313 107.519C473.948 106.151 476.195 105 479 105C481.806 105 484.053 106.151 485.688 107.519C487.313 108.875 488.4 110.472 488.914 111.616C489.029 111.862 489.029 112.137 488.914 112.384C488.4 113.5 487.313 115.097 485.688 116.481C484.053 117.85 481.806 119 479 119C476.195 119 473.948 117.85 472.313 116.481C470.688 115.097 469.602 113.5 469.085 112.384C468.972 112.137 468.972 111.862 469.085 111.616C469.602 110.472 470.688 108.875 472.313 107.519ZM479 106.5C476.736 106.5 474.875 107.425 473.448 108.616C472.111 109.734 471.188 111.034 470.717 112C471.188 112.938 472.111 114.266 473.448 115.384C474.875 116.575 476.736 117.5 479 117.5C481.264 117.5 483.126 116.575 484.553 115.384C485.89 114.266 486.782 112.938 487.286 112C486.782 111.034 485.89 109.734 484.553 108.616C483.126 107.425 481.264 106.5 479 106.5Z" fill="#1A1A1A"/>
<rect x="220.5" y="92.5" width="278" height="39" rx="3.5" stroke="#AAAAAA"/>
<path d="M227.109 144.731V145.728H222.107V144.731H227.109ZM222.298 140.758V150H221.073V140.758H222.298ZM228.176 140.758V150H226.957V140.758H228.176ZM233.025 150.127C232.547 150.127 232.113 150.047 231.724 149.886C231.339 149.721 231.007 149.49 230.728 149.194C230.452 148.898 230.241 148.546 230.093 148.14C229.945 147.734 229.871 147.29 229.871 146.807V146.541C229.871 145.982 229.953 145.485 230.118 145.049C230.283 144.609 230.507 144.236 230.791 143.932C231.075 143.627 231.396 143.396 231.756 143.24C232.116 143.083 232.488 143.005 232.873 143.005C233.364 143.005 233.787 143.09 234.143 143.259C234.502 143.428 234.796 143.665 235.025 143.97C235.253 144.27 235.423 144.626 235.533 145.036C235.643 145.442 235.698 145.887 235.698 146.369V146.896H230.569V145.938H234.523V145.849C234.507 145.544 234.443 145.248 234.333 144.96C234.227 144.672 234.058 144.435 233.825 144.249C233.592 144.063 233.275 143.97 232.873 143.97C232.606 143.97 232.361 144.027 232.137 144.141C231.912 144.251 231.72 144.416 231.559 144.636C231.398 144.856 231.273 145.125 231.185 145.442C231.096 145.76 231.051 146.126 231.051 146.541V146.807C231.051 147.133 231.096 147.44 231.185 147.728C231.278 148.011 231.411 148.261 231.584 148.477C231.762 148.692 231.976 148.862 232.226 148.984C232.479 149.107 232.767 149.168 233.089 149.168C233.504 149.168 233.855 149.084 234.143 148.915C234.43 148.745 234.682 148.519 234.898 148.235L235.609 148.8C235.461 149.025 235.272 149.238 235.044 149.441C234.815 149.645 234.534 149.81 234.2 149.937C233.87 150.063 233.478 150.127 233.025 150.127ZM238.345 140.25V150H237.164V140.25H238.345ZM241.404 144.452V152.641H240.224V143.132H241.303L241.404 144.452ZM246.032 146.509V146.642C246.032 147.141 245.972 147.605 245.854 148.032C245.736 148.455 245.562 148.824 245.333 149.137C245.109 149.45 244.832 149.693 244.502 149.867C244.172 150.04 243.793 150.127 243.366 150.127C242.93 150.127 242.545 150.055 242.21 149.911C241.876 149.767 241.593 149.558 241.36 149.283C241.127 149.008 240.941 148.678 240.801 148.292C240.666 147.907 240.573 147.474 240.522 146.991V146.28C240.573 145.772 240.668 145.318 240.808 144.916C240.947 144.514 241.131 144.171 241.36 143.887C241.593 143.599 241.874 143.382 242.204 143.233C242.534 143.081 242.915 143.005 243.347 143.005C243.778 143.005 244.161 143.09 244.496 143.259C244.83 143.424 245.111 143.661 245.34 143.97C245.568 144.279 245.74 144.649 245.854 145.081C245.972 145.508 246.032 145.984 246.032 146.509ZM244.851 146.642V146.509C244.851 146.166 244.815 145.844 244.743 145.544C244.671 145.239 244.559 144.973 244.407 144.744C244.259 144.511 244.068 144.329 243.835 144.198C243.603 144.063 243.326 143.995 243.004 143.995C242.708 143.995 242.45 144.046 242.229 144.147C242.014 144.249 241.83 144.387 241.677 144.56C241.525 144.729 241.4 144.924 241.303 145.144C241.21 145.36 241.14 145.584 241.093 145.817V147.461C241.178 147.757 241.296 148.036 241.449 148.299C241.601 148.557 241.804 148.766 242.058 148.927C242.312 149.084 242.632 149.162 243.017 149.162C243.334 149.162 243.607 149.097 243.835 148.965C244.068 148.83 244.259 148.646 244.407 148.413C244.559 148.18 244.671 147.914 244.743 147.613C244.815 147.309 244.851 146.985 244.851 146.642ZM253.63 143.132V144.033H249.917V143.132H253.63ZM251.173 141.462H252.348V148.299C252.348 148.532 252.384 148.707 252.456 148.826C252.528 148.944 252.621 149.022 252.735 149.061C252.849 149.099 252.972 149.118 253.103 149.118C253.2 149.118 253.302 149.109 253.408 149.092C253.518 149.071 253.6 149.054 253.655 149.042L253.662 150C253.569 150.03 253.446 150.057 253.293 150.083C253.145 150.112 252.965 150.127 252.754 150.127C252.466 150.127 252.202 150.07 251.96 149.956C251.719 149.841 251.527 149.651 251.383 149.384C251.243 149.113 251.173 148.75 251.173 148.292V141.462ZM257.857 150.127C257.379 150.127 256.945 150.047 256.556 149.886C256.171 149.721 255.839 149.49 255.56 149.194C255.285 148.898 255.073 148.546 254.925 148.14C254.777 147.734 254.703 147.29 254.703 146.807V146.541C254.703 145.982 254.785 145.485 254.95 145.049C255.115 144.609 255.34 144.236 255.623 143.932C255.907 143.627 256.228 143.396 256.588 143.24C256.948 143.083 257.32 143.005 257.705 143.005C258.196 143.005 258.619 143.09 258.975 143.259C259.334 143.428 259.628 143.665 259.857 143.97C260.085 144.27 260.255 144.626 260.365 145.036C260.475 145.442 260.53 145.887 260.53 146.369V146.896H255.401V145.938H259.355V145.849C259.339 145.544 259.275 145.248 259.165 144.96C259.059 144.672 258.89 144.435 258.657 144.249C258.424 144.063 258.107 143.97 257.705 143.97C257.438 143.97 257.193 144.027 256.969 144.141C256.744 144.251 256.552 144.416 256.391 144.636C256.23 144.856 256.105 145.125 256.017 145.442C255.928 145.76 255.883 146.126 255.883 146.541V146.807C255.883 147.133 255.928 147.44 256.017 147.728C256.11 148.011 256.243 148.261 256.417 148.477C256.594 148.692 256.808 148.862 257.058 148.984C257.312 149.107 257.599 149.168 257.921 149.168C258.336 149.168 258.687 149.084 258.975 148.915C259.262 148.745 259.514 148.519 259.73 148.235L260.441 148.8C260.293 149.025 260.104 149.238 259.876 149.441C259.647 149.645 259.366 149.81 259.032 149.937C258.702 150.063 258.31 150.127 257.857 150.127ZM262.694 143.132L264.199 145.633L265.722 143.132H267.1L264.853 146.521L267.169 150H265.811L264.224 147.423L262.637 150H261.272L263.583 146.521L261.342 143.132H262.694ZM271.226 143.132V144.033H267.512V143.132H271.226ZM268.769 141.462H269.943V148.299C269.943 148.532 269.979 148.707 270.051 148.826C270.123 148.944 270.216 149.022 270.331 149.061C270.445 149.099 270.568 149.118 270.699 149.118C270.796 149.118 270.898 149.109 271.003 149.092C271.113 149.071 271.196 149.054 271.251 149.042L271.257 150C271.164 150.03 271.042 150.057 270.889 150.083C270.741 150.112 270.561 150.127 270.35 150.127C270.062 150.127 269.797 150.07 269.556 149.956C269.315 149.841 269.122 149.651 268.979 149.384C268.839 149.113 268.769 148.75 268.769 148.292V141.462Z" fill="#505050"/>
<rect x="156" y="64" width="24" height="20" rx="4" fill="#000714"/>
<path d="M168.971 68.707V78H167.797V70.1733L165.429 71.0366V69.9766L168.787 68.707H168.971Z" fill="white"/>
<line x1="216" y1="76.5" x2="184" y2="76.5" stroke="#0045C4"/>
<rect x="360" y="40" width="24" height="20" rx="4" fill="#000714"/>
<path d="M375.167 53.0352V54H369.118V53.1558L372.146 49.7852C372.518 49.3704 372.806 49.0192 373.009 48.7314C373.217 48.4395 373.361 48.1792 373.441 47.9507C373.526 47.7179 373.568 47.481 373.568 47.2397C373.568 46.9351 373.504 46.66 373.377 46.4146C373.255 46.1649 373.073 45.966 372.832 45.8179C372.59 45.6698 372.298 45.5957 371.956 45.5957C371.545 45.5957 371.202 45.6761 370.927 45.8369C370.656 45.9935 370.453 46.2135 370.318 46.4971C370.182 46.7806 370.115 47.1064 370.115 47.4746H368.94C368.94 46.9541 369.055 46.478 369.283 46.0464C369.512 45.6147 369.85 45.272 370.299 45.0181C370.747 44.7599 371.3 44.6309 371.956 44.6309C372.54 44.6309 373.039 44.7345 373.454 44.9419C373.868 45.145 374.186 45.4328 374.406 45.8052C374.63 46.1733 374.742 46.605 374.742 47.1001C374.742 47.3709 374.696 47.646 374.603 47.9253C374.514 48.2004 374.389 48.4754 374.228 48.7505C374.071 49.0256 373.887 49.2964 373.676 49.563C373.468 49.8296 373.246 50.092 373.009 50.3501L370.534 53.0352H375.167Z" fill="white"/>
<rect x="467" y="40" width="24" height="20" rx="4" fill="#000714"/>
<path d="M482.358 50.8896V51.8545H475.68V51.1626L479.819 44.7578H480.777L479.749 46.6113L477.013 50.8896H482.358ZM481.069 44.7578V54H479.895V44.7578H481.069Z" fill="white"/>
<rect x="156" y="100" width="24" height="20" rx="4" fill="#000714"/>
<path d="M166.826 108.801H167.664C168.074 108.801 168.413 108.734 168.679 108.598C168.95 108.458 169.151 108.27 169.282 108.033C169.418 107.792 169.485 107.521 169.485 107.221C169.485 106.865 169.426 106.567 169.308 106.326C169.189 106.084 169.011 105.903 168.774 105.78C168.537 105.657 168.237 105.596 167.873 105.596C167.543 105.596 167.251 105.661 166.997 105.792C166.747 105.919 166.551 106.101 166.407 106.338C166.267 106.575 166.197 106.855 166.197 107.176H165.023C165.023 106.707 165.141 106.279 165.378 105.894C165.615 105.509 165.948 105.202 166.375 104.974C166.807 104.745 167.306 104.631 167.873 104.631C168.432 104.631 168.92 104.73 169.339 104.929C169.758 105.124 170.084 105.416 170.317 105.805C170.55 106.19 170.666 106.671 170.666 107.246C170.666 107.479 170.611 107.729 170.501 107.995C170.395 108.257 170.228 108.503 170 108.731C169.775 108.96 169.483 109.148 169.124 109.296C168.764 109.44 168.332 109.512 167.829 109.512H166.826V108.801ZM166.826 109.766V109.062H167.829C168.417 109.062 168.903 109.131 169.289 109.271C169.674 109.411 169.976 109.597 170.196 109.83C170.421 110.062 170.577 110.318 170.666 110.598C170.759 110.873 170.806 111.148 170.806 111.423C170.806 111.854 170.732 112.237 170.583 112.572C170.44 112.906 170.234 113.19 169.968 113.422C169.705 113.655 169.396 113.831 169.041 113.949C168.686 114.068 168.298 114.127 167.879 114.127C167.477 114.127 167.099 114.07 166.743 113.956C166.392 113.841 166.081 113.676 165.81 113.46C165.539 113.24 165.328 112.972 165.175 112.654C165.023 112.333 164.947 111.967 164.947 111.556H166.121C166.121 111.878 166.191 112.159 166.331 112.4C166.474 112.642 166.678 112.83 166.94 112.965C167.207 113.097 167.52 113.162 167.879 113.162C168.239 113.162 168.548 113.101 168.806 112.978C169.069 112.851 169.27 112.661 169.409 112.407C169.553 112.153 169.625 111.833 169.625 111.448C169.625 111.063 169.545 110.748 169.384 110.502C169.223 110.253 168.994 110.069 168.698 109.95C168.406 109.827 168.061 109.766 167.664 109.766H166.826Z" fill="white"/>
<rect x="261" y="194" width="24" height="20" rx="4" fill="#000714"/>
<path d="M271.597 203.601L270.658 203.36L271.121 198.758H275.863V199.843H272.118L271.838 202.357C272.008 202.26 272.221 202.169 272.479 202.084C272.742 201.999 273.042 201.957 273.381 201.957C273.808 201.957 274.191 202.031 274.53 202.179C274.868 202.323 275.156 202.53 275.393 202.801C275.634 203.072 275.818 203.398 275.945 203.779C276.072 204.16 276.136 204.585 276.136 205.055C276.136 205.499 276.074 205.907 275.952 206.28C275.833 206.652 275.653 206.978 275.412 207.257C275.171 207.532 274.866 207.746 274.498 207.898C274.134 208.051 273.705 208.127 273.209 208.127C272.837 208.127 272.484 208.076 272.149 207.975C271.819 207.869 271.523 207.71 271.261 207.499C271.003 207.283 270.791 207.016 270.626 206.699C270.465 206.377 270.364 206 270.321 205.569H271.438C271.489 205.916 271.591 206.208 271.743 206.445C271.896 206.682 272.094 206.862 272.34 206.984C272.59 207.103 272.879 207.162 273.209 207.162C273.489 207.162 273.736 207.113 273.952 207.016C274.168 206.919 274.35 206.779 274.498 206.597C274.646 206.415 274.758 206.195 274.834 205.937C274.915 205.679 274.955 205.389 274.955 205.067C274.955 204.775 274.915 204.505 274.834 204.255C274.754 204.005 274.633 203.787 274.473 203.601C274.316 203.415 274.124 203.271 273.895 203.169C273.667 203.064 273.404 203.011 273.108 203.011C272.714 203.011 272.416 203.064 272.213 203.169C272.014 203.275 271.809 203.419 271.597 203.601Z" fill="white"/>
<line x1="371.5" y1="100" x2="371.5" y2="68" stroke="#0045C4"/>
<line x1="478.5" y1="100" x2="478.5" y2="68" stroke="#0045C4"/>
<line x1="232" y1="112.5" x2="184" y2="112.5" stroke="#0045C4"/>
<line x1="272.5" y1="190" x2="272.5" y2="158" stroke="#0045C4"/>
</svg>
