<svg width="828" height="257" viewBox="0 0 828 257" fill="none" xmlns="http://www.w3.org/2000/svg">
<g clip-path="url(#clip0_3378_49379)">
<rect width="828" height="257" fill="#F8F8F8"/>
<g filter="url(#filter0_ddd_3378_49379)">
<rect x="50" y="40" width="730" height="177" rx="4" fill="white"/>
<rect x="50.5" y="40.5" width="729" height="176" rx="3.5" stroke="#E6E6E6"/>
</g>
<g clip-path="url(#clip1_3378_49379)">
<mask id="path-3-inside-1_3378_49379" fill="white">
<path d="M51 45C51 42.7909 52.7909 41 55 41H775C777.209 41 779 42.7909 779 45V121H51V45Z"/>
</mask>
<path d="M51 45C51 42.7909 52.7909 41 55 41H775C777.209 41 779 42.7909 779 45V121H51V45Z" fill="white"/>
<rect width="187" height="80" transform="translate(35 41)" fill="white" fill-opacity="0.01"/>
<path d="M56.1638 77.3571C55.4377 77.3571 54.849 77.9328 54.849 78.6429C54.849 79.3529 55.4377 79.9286 56.1638 79.9286C56.89 79.9286 57.4786 79.3529 57.4786 78.6429C57.4786 77.9328 56.8897 77.3571 56.1638 77.3571ZM64.2472 75H53.7287C52.785 75 52 75.7674 52 76.7143V85.2857C52 86.2326 52.7848 87 53.7284 87H64.2469C65.2152 87 66 86.2326 66 85.2857V76.7143C66.0002 75.7674 65.2388 75 64.2472 75ZM64.6854 85.1062L60.9382 80.1268C60.8697 80.0036 60.7136 79.9286 60.5465 79.9286C60.3791 79.9286 60.2227 80.0027 60.1299 80.1262L57.2099 83.986L56.1939 82.7512C56.0997 82.6366 55.9492 82.5688 55.7894 82.5688C55.6293 82.5688 55.479 82.6366 55.3845 82.7512L53.3159 85.264C53.3159 85.2632 53.3159 85.2648 53.3159 85.264L53.3148 76.7143C53.3148 76.478 53.5114 76.2857 53.7531 76.2857H64.2715C64.5132 76.2857 64.7098 76.478 64.7098 76.7143V85.1062H64.6854Z" fill="#505050"/>
<path d="M74.0469 75.3359V86H72.2085V75.3359H74.0469ZM77.9214 79.6865V86H76.1562V78.0752H77.8188L77.9214 79.6865ZM77.6357 81.7446L77.0352 81.7373C77.0352 81.1904 77.1035 80.6851 77.2402 80.2212C77.377 79.7573 77.5771 79.3545 77.8408 79.0127C78.1045 78.666 78.4316 78.3999 78.8223 78.2144C79.2178 78.0239 79.6743 77.9287 80.1919 77.9287C80.5532 77.9287 80.8828 77.9824 81.1807 78.0898C81.4834 78.1924 81.7446 78.356 81.9644 78.5806C82.189 78.8052 82.3599 79.0933 82.4771 79.4448C82.5991 79.7964 82.6602 80.2212 82.6602 80.7192V86H80.895V80.873C80.895 80.4873 80.8364 80.1846 80.7192 79.9648C80.6069 79.7451 80.4434 79.5889 80.2285 79.4961C80.0186 79.3984 79.7671 79.3496 79.4741 79.3496C79.1421 79.3496 78.8589 79.4131 78.6245 79.54C78.395 79.667 78.207 79.8403 78.0605 80.0601C77.9141 80.2798 77.8066 80.5337 77.7383 80.8218C77.6699 81.1099 77.6357 81.4175 77.6357 81.7446ZM82.5503 81.2759L81.7227 81.459C81.7227 80.9805 81.7886 80.5288 81.9204 80.104C82.0571 79.6743 82.2549 79.2983 82.5137 78.9761C82.7773 78.6489 83.1021 78.3926 83.4878 78.207C83.8735 78.0215 84.3154 77.9287 84.8135 77.9287C85.2188 77.9287 85.5801 77.9849 85.8975 78.0972C86.2197 78.2046 86.4932 78.3755 86.7178 78.6099C86.9424 78.8442 87.1133 79.1494 87.2305 79.5254C87.3477 79.8965 87.4062 80.3457 87.4062 80.873V86H85.6338V80.8657C85.6338 80.4653 85.5752 80.1553 85.458 79.9355C85.3457 79.7158 85.1846 79.5645 84.9746 79.4814C84.7646 79.3936 84.5132 79.3496 84.2202 79.3496C83.9468 79.3496 83.7051 79.4009 83.4951 79.5034C83.29 79.6011 83.1167 79.7402 82.9751 79.9209C82.8335 80.0967 82.7261 80.2993 82.6528 80.5288C82.5845 80.7583 82.5503 81.0073 82.5503 81.2759ZM93.6904 84.4106V80.6313C93.6904 80.3481 93.6392 80.104 93.5366 79.8989C93.4341 79.6938 93.2778 79.5352 93.0679 79.4229C92.8628 79.3105 92.604 79.2544 92.2915 79.2544C92.0034 79.2544 91.7544 79.3032 91.5444 79.4009C91.3345 79.4985 91.1709 79.6304 91.0537 79.7964C90.9365 79.9624 90.8779 80.1504 90.8779 80.3604H89.1201C89.1201 80.0479 89.1958 79.7451 89.3472 79.4521C89.4985 79.1592 89.7183 78.8979 90.0063 78.6685C90.2944 78.439 90.6387 78.2583 91.0391 78.1265C91.4395 77.9946 91.8887 77.9287 92.3867 77.9287C92.9824 77.9287 93.5098 78.0288 93.9688 78.229C94.4326 78.4292 94.7964 78.7319 95.0601 79.1372C95.3286 79.5376 95.4629 80.0405 95.4629 80.646V84.1689C95.4629 84.5303 95.4873 84.855 95.5361 85.1431C95.5898 85.4263 95.6655 85.6729 95.7632 85.8828V86H93.9541C93.8711 85.8096 93.8052 85.5679 93.7563 85.2749C93.7124 84.9771 93.6904 84.689 93.6904 84.4106ZM93.9468 81.1807L93.9614 82.272H92.6943C92.3672 82.272 92.0791 82.3037 91.8301 82.3672C91.5811 82.4258 91.3735 82.5137 91.2075 82.6309C91.0415 82.748 90.917 82.8896 90.834 83.0557C90.751 83.2217 90.7095 83.4097 90.7095 83.6196C90.7095 83.8296 90.7583 84.0225 90.856 84.1982C90.9536 84.3691 91.0952 84.5034 91.2808 84.6011C91.4712 84.6987 91.7007 84.7476 91.9692 84.7476C92.3306 84.7476 92.6455 84.6743 92.9141 84.5278C93.1875 84.3765 93.4023 84.1934 93.5586 83.9785C93.7148 83.7588 93.7979 83.5513 93.8076 83.356L94.3789 84.1396C94.3203 84.3398 94.2202 84.5547 94.0786 84.7842C93.937 85.0137 93.7515 85.2334 93.522 85.4434C93.2974 85.6484 93.0264 85.8169 92.709 85.9487C92.3965 86.0806 92.0352 86.1465 91.625 86.1465C91.1074 86.1465 90.646 86.0439 90.2407 85.8389C89.8354 85.6289 89.5181 85.3481 89.2886 84.9966C89.0591 84.6401 88.9443 84.2373 88.9443 83.7881C88.9443 83.3682 89.0225 82.9971 89.1787 82.6748C89.3398 82.3477 89.5742 82.0742 89.8818 81.8545C90.1943 81.6348 90.5752 81.4688 91.0244 81.3564C91.4736 81.2393 91.9863 81.1807 92.5625 81.1807H93.9468ZM102.384 78.0752H103.988V85.7803C103.988 86.4932 103.837 87.0986 103.534 87.5967C103.231 88.0947 102.809 88.4731 102.267 88.7319C101.725 88.9956 101.098 89.1274 100.385 89.1274C100.082 89.1274 99.7451 89.0835 99.374 88.9956C99.0078 88.9077 98.6514 88.7661 98.3047 88.5708C97.9629 88.3804 97.6772 88.1289 97.4478 87.8164L98.2754 86.7764C98.5586 87.1133 98.8711 87.3599 99.2129 87.5161C99.5547 87.6724 99.9136 87.7505 100.29 87.7505C100.695 87.7505 101.039 87.6748 101.322 87.5234C101.61 87.377 101.833 87.1597 101.989 86.8716C102.145 86.5835 102.223 86.2319 102.223 85.8169V79.8696L102.384 78.0752ZM97.001 82.1255V81.9717C97.001 81.3711 97.0742 80.8242 97.2207 80.3311C97.3672 79.833 97.5771 79.4058 97.8506 79.0493C98.124 78.688 98.4561 78.4121 98.8467 78.2217C99.2373 78.0264 99.6792 77.9287 100.172 77.9287C100.685 77.9287 101.122 78.0215 101.483 78.207C101.85 78.3926 102.155 78.6587 102.399 79.0054C102.643 79.3472 102.833 79.7573 102.97 80.2358C103.112 80.7095 103.217 81.2368 103.285 81.8179V82.3086C103.222 82.875 103.114 83.3926 102.963 83.8613C102.812 84.3301 102.611 84.7354 102.362 85.0771C102.113 85.4189 101.806 85.6826 101.439 85.8682C101.078 86.0537 100.651 86.1465 100.158 86.1465C99.6743 86.1465 99.2373 86.0464 98.8467 85.8462C98.4609 85.646 98.1289 85.3652 97.8506 85.0039C97.5771 84.6426 97.3672 84.2178 97.2207 83.7295C97.0742 83.2363 97.001 82.7017 97.001 82.1255ZM98.7661 81.9717V82.1255C98.7661 82.4868 98.8003 82.8237 98.8687 83.1362C98.9419 83.4487 99.0518 83.7246 99.1982 83.9639C99.3496 84.1982 99.54 84.3838 99.7695 84.5205C100.004 84.6523 100.28 84.7183 100.597 84.7183C101.012 84.7183 101.352 84.6304 101.615 84.4546C101.884 84.2788 102.089 84.042 102.23 83.7441C102.377 83.4414 102.479 83.1045 102.538 82.7334V81.4077C102.509 81.1196 102.448 80.8511 102.355 80.6021C102.267 80.353 102.147 80.1357 101.996 79.9502C101.845 79.7598 101.654 79.6133 101.425 79.5107C101.195 79.4033 100.924 79.3496 100.612 79.3496C100.294 79.3496 100.019 79.418 99.7842 79.5547C99.5498 79.6914 99.3569 79.8794 99.2056 80.1187C99.0591 80.3579 98.9492 80.6362 98.876 80.9536C98.8027 81.271 98.7661 81.6104 98.7661 81.9717ZM109.313 86.1465C108.727 86.1465 108.197 86.0513 107.724 85.8608C107.255 85.6655 106.854 85.3945 106.522 85.0479C106.195 84.7012 105.944 84.2935 105.768 83.8247C105.592 83.356 105.504 82.8506 105.504 82.3086V82.0156C105.504 81.3955 105.595 80.834 105.775 80.3311C105.956 79.8281 106.208 79.3984 106.53 79.042C106.852 78.6807 107.233 78.4048 107.672 78.2144C108.112 78.0239 108.588 77.9287 109.101 77.9287C109.667 77.9287 110.163 78.0239 110.587 78.2144C111.012 78.4048 111.364 78.6733 111.642 79.02C111.925 79.3618 112.135 79.7695 112.272 80.2432C112.414 80.7168 112.484 81.2393 112.484 81.8105V82.5649H106.361V81.2979H110.741V81.1587C110.731 80.8413 110.668 80.5435 110.551 80.2651C110.438 79.9868 110.265 79.7622 110.031 79.5913C109.796 79.4204 109.484 79.335 109.093 79.335C108.8 79.335 108.539 79.3984 108.31 79.5254C108.085 79.6475 107.897 79.8257 107.746 80.0601C107.594 80.2944 107.477 80.5776 107.394 80.9097C107.316 81.2368 107.277 81.6055 107.277 82.0156V82.3086C107.277 82.6553 107.323 82.9775 107.416 83.2754C107.514 83.5684 107.655 83.8247 107.841 84.0444C108.026 84.2642 108.251 84.4375 108.515 84.5645C108.778 84.6865 109.079 84.7476 109.416 84.7476C109.84 84.7476 110.219 84.6621 110.551 84.4912C110.883 84.3203 111.171 84.0786 111.415 83.7661L112.345 84.667C112.174 84.916 111.952 85.1553 111.679 85.3848C111.405 85.6094 111.071 85.7925 110.675 85.9341C110.285 86.0757 109.831 86.1465 109.313 86.1465ZM124.071 82.5283H125.902C125.844 83.2266 125.648 83.8491 125.316 84.396C124.984 84.938 124.518 85.3652 123.917 85.6777C123.317 85.9902 122.587 86.1465 121.728 86.1465C121.068 86.1465 120.475 86.0293 119.948 85.7949C119.42 85.5557 118.969 85.2188 118.593 84.7842C118.217 84.3447 117.929 83.8149 117.729 83.1948C117.533 82.5747 117.436 81.8813 117.436 81.1147V80.2285C117.436 79.4619 117.536 78.7686 117.736 78.1484C117.941 77.5283 118.234 76.9985 118.615 76.5591C118.996 76.1147 119.452 75.7754 119.984 75.541C120.521 75.3066 121.125 75.1895 121.793 75.1895C122.643 75.1895 123.361 75.3457 123.947 75.6582C124.533 75.9707 124.987 76.4028 125.309 76.9546C125.636 77.5063 125.836 78.1387 125.91 78.8516H124.079C124.03 78.3926 123.922 77.9995 123.756 77.6724C123.595 77.3452 123.356 77.0962 123.039 76.9253C122.721 76.7495 122.306 76.6616 121.793 76.6616C121.374 76.6616 121.007 76.7397 120.695 76.896C120.382 77.0522 120.121 77.2817 119.911 77.5845C119.701 77.8872 119.542 78.2607 119.435 78.7051C119.333 79.1445 119.281 79.6475 119.281 80.2139V81.1147C119.281 81.6519 119.328 82.1401 119.42 82.5796C119.518 83.0142 119.665 83.3877 119.86 83.7002C120.06 84.0127 120.314 84.2544 120.622 84.4253C120.929 84.5962 121.298 84.6816 121.728 84.6816C122.25 84.6816 122.672 84.5986 122.995 84.4326C123.322 84.2666 123.568 84.0249 123.734 83.7075C123.905 83.3853 124.018 82.9922 124.071 82.5283ZM127.06 82.1255V81.957C127.06 81.3857 127.143 80.856 127.309 80.3677C127.475 79.8745 127.714 79.4473 128.026 79.0859C128.344 78.7197 128.729 78.4365 129.184 78.2363C129.643 78.0312 130.16 77.9287 130.736 77.9287C131.317 77.9287 131.835 78.0312 132.289 78.2363C132.748 78.4365 133.136 78.7197 133.454 79.0859C133.771 79.4473 134.013 79.8745 134.179 80.3677C134.345 80.856 134.428 81.3857 134.428 81.957V82.1255C134.428 82.6968 134.345 83.2266 134.179 83.7148C134.013 84.2031 133.771 84.6304 133.454 84.9966C133.136 85.3579 132.75 85.6411 132.296 85.8462C131.842 86.0464 131.327 86.1465 130.751 86.1465C130.17 86.1465 129.65 86.0464 129.191 85.8462C128.737 85.6411 128.351 85.3579 128.034 84.9966C127.716 84.6304 127.475 84.2031 127.309 83.7148C127.143 83.2266 127.06 82.6968 127.06 82.1255ZM128.825 81.957V82.1255C128.825 82.4819 128.861 82.8188 128.935 83.1362C129.008 83.4536 129.123 83.7319 129.279 83.9712C129.435 84.2104 129.635 84.3984 129.879 84.5352C130.124 84.6719 130.414 84.7402 130.751 84.7402C131.078 84.7402 131.361 84.6719 131.601 84.5352C131.845 84.3984 132.045 84.2104 132.201 83.9712C132.357 83.7319 132.472 83.4536 132.545 83.1362C132.624 82.8188 132.663 82.4819 132.663 82.1255V81.957C132.663 81.6055 132.624 81.2734 132.545 80.9609C132.472 80.6436 132.355 80.3628 132.194 80.1187C132.038 79.8745 131.837 79.6841 131.593 79.5474C131.354 79.4058 131.068 79.335 130.736 79.335C130.404 79.335 130.116 79.4058 129.872 79.5474C129.633 79.6841 129.435 79.8745 129.279 80.1187C129.123 80.3628 129.008 80.6436 128.935 80.9609C128.861 81.2734 128.825 81.6055 128.825 81.957ZM137.672 79.6865V86H135.907V78.0752H137.57L137.672 79.6865ZM137.387 81.7446L136.786 81.7373C136.786 81.1904 136.854 80.6851 136.991 80.2212C137.128 79.7573 137.328 79.3545 137.592 79.0127C137.855 78.666 138.183 78.3999 138.573 78.2144C138.969 78.0239 139.425 77.9287 139.943 77.9287C140.304 77.9287 140.634 77.9824 140.932 78.0898C141.234 78.1924 141.496 78.356 141.715 78.5806C141.94 78.8052 142.111 79.0933 142.228 79.4448C142.35 79.7964 142.411 80.2212 142.411 80.7192V86H140.646V80.873C140.646 80.4873 140.587 80.1846 140.47 79.9648C140.358 79.7451 140.194 79.5889 139.979 79.4961C139.77 79.3984 139.518 79.3496 139.225 79.3496C138.893 79.3496 138.61 79.4131 138.375 79.54C138.146 79.667 137.958 79.8403 137.812 80.0601C137.665 80.2798 137.558 80.5337 137.489 80.8218C137.421 81.1099 137.387 81.4175 137.387 81.7446ZM142.301 81.2759L141.474 81.459C141.474 80.9805 141.54 80.5288 141.671 80.104C141.808 79.6743 142.006 79.2983 142.265 78.9761C142.528 78.6489 142.853 78.3926 143.239 78.207C143.625 78.0215 144.066 77.9287 144.564 77.9287C144.97 77.9287 145.331 77.9849 145.648 78.0972C145.971 78.2046 146.244 78.3755 146.469 78.6099C146.693 78.8442 146.864 79.1494 146.981 79.5254C147.099 79.8965 147.157 80.3457 147.157 80.873V86H145.385V80.8657C145.385 80.4653 145.326 80.1553 145.209 79.9355C145.097 79.7158 144.936 79.5645 144.726 79.4814C144.516 79.3936 144.264 79.3496 143.971 79.3496C143.698 79.3496 143.456 79.4009 143.246 79.5034C143.041 79.6011 142.868 79.7402 142.726 79.9209C142.584 80.0967 142.477 80.2993 142.404 80.5288C142.335 80.7583 142.301 81.0073 142.301 81.2759ZM150.746 79.5986V89.0469H148.981V78.0752H150.607L150.746 79.5986ZM155.91 81.9644V82.1182C155.91 82.6943 155.841 83.229 155.705 83.7222C155.573 84.2104 155.375 84.6377 155.111 85.0039C154.853 85.3652 154.533 85.646 154.152 85.8462C153.771 86.0464 153.332 86.1465 152.833 86.1465C152.34 86.1465 151.908 86.0562 151.537 85.8755C151.171 85.6899 150.861 85.4287 150.607 85.0918C150.353 84.7549 150.148 84.3594 149.992 83.9053C149.84 83.4463 149.733 82.9434 149.669 82.3965V81.8032C149.733 81.2222 149.84 80.6948 149.992 80.2212C150.148 79.7476 150.353 79.3398 150.607 78.998C150.861 78.6562 151.171 78.3926 151.537 78.207C151.903 78.0215 152.331 77.9287 152.819 77.9287C153.317 77.9287 153.759 78.0264 154.145 78.2217C154.53 78.4121 154.855 78.6855 155.119 79.042C155.382 79.3936 155.58 79.8184 155.712 80.3164C155.844 80.8096 155.91 81.3589 155.91 81.9644ZM154.145 82.1182V81.9644C154.145 81.5981 154.11 81.2588 154.042 80.9463C153.974 80.6289 153.866 80.3506 153.72 80.1113C153.573 79.8721 153.385 79.6865 153.156 79.5547C152.931 79.418 152.66 79.3496 152.343 79.3496C152.03 79.3496 151.762 79.4033 151.537 79.5107C151.312 79.6133 151.125 79.7573 150.973 79.9429C150.822 80.1284 150.705 80.3457 150.622 80.5947C150.539 80.8389 150.48 81.105 150.446 81.3931V82.814C150.504 83.1655 150.604 83.4878 150.746 83.7808C150.888 84.0737 151.088 84.3081 151.347 84.4839C151.61 84.6548 151.947 84.7402 152.357 84.7402C152.675 84.7402 152.946 84.6719 153.17 84.5352C153.395 84.3984 153.578 84.2104 153.72 83.9712C153.866 83.7271 153.974 83.4463 154.042 83.1289C154.11 82.8115 154.145 82.4746 154.145 82.1182ZM159.184 79.584V86H157.418V78.0752H159.103L159.184 79.584ZM161.608 78.0239L161.593 79.6646C161.486 79.645 161.369 79.6304 161.242 79.6206C161.12 79.6108 160.998 79.606 160.875 79.606C160.573 79.606 160.307 79.6499 160.077 79.7378C159.848 79.8208 159.655 79.9429 159.499 80.104C159.347 80.2603 159.23 80.4507 159.147 80.6753C159.064 80.8999 159.015 81.1514 159 81.4297L158.598 81.459C158.598 80.9609 158.646 80.4995 158.744 80.0747C158.842 79.6499 158.988 79.2764 159.184 78.9541C159.384 78.6318 159.633 78.3804 159.931 78.1997C160.233 78.019 160.583 77.9287 160.978 77.9287C161.085 77.9287 161.2 77.9385 161.322 77.958C161.449 77.9775 161.544 77.9995 161.608 78.0239ZM166.061 86.1465C165.475 86.1465 164.945 86.0513 164.472 85.8608C164.003 85.6655 163.603 85.3945 163.271 85.0479C162.943 84.7012 162.692 84.2935 162.516 83.8247C162.34 83.356 162.252 82.8506 162.252 82.3086V82.0156C162.252 81.3955 162.343 80.834 162.523 80.3311C162.704 79.8281 162.956 79.3984 163.278 79.042C163.6 78.6807 163.981 78.4048 164.42 78.2144C164.86 78.0239 165.336 77.9287 165.849 77.9287C166.415 77.9287 166.911 78.0239 167.335 78.2144C167.76 78.4048 168.112 78.6733 168.39 79.02C168.673 79.3618 168.883 79.7695 169.02 80.2432C169.162 80.7168 169.232 81.2393 169.232 81.8105V82.5649H163.109V81.2979H167.489V81.1587C167.479 80.8413 167.416 80.5435 167.299 80.2651C167.187 79.9868 167.013 79.7622 166.779 79.5913C166.544 79.4204 166.232 79.335 165.841 79.335C165.548 79.335 165.287 79.3984 165.058 79.5254C164.833 79.6475 164.645 79.8257 164.494 80.0601C164.342 80.2944 164.225 80.5776 164.142 80.9097C164.064 81.2368 164.025 81.6055 164.025 82.0156V82.3086C164.025 82.6553 164.071 82.9775 164.164 83.2754C164.262 83.5684 164.403 83.8247 164.589 84.0444C164.774 84.2642 164.999 84.4375 165.263 84.5645C165.526 84.6865 165.827 84.7476 166.164 84.7476C166.588 84.7476 166.967 84.6621 167.299 84.4912C167.631 84.3203 167.919 84.0786 168.163 83.7661L169.093 84.667C168.922 84.916 168.7 85.1553 168.427 85.3848C168.153 85.6094 167.819 85.7925 167.423 85.9341C167.033 86.0757 166.579 86.1465 166.061 86.1465ZM175.055 83.854C175.055 83.6782 175.011 83.5195 174.923 83.3779C174.835 83.2314 174.667 83.0996 174.418 82.9824C174.174 82.8652 173.812 82.7578 173.334 82.6602C172.914 82.5674 172.528 82.4575 172.177 82.3306C171.83 82.1987 171.532 82.04 171.283 81.8545C171.034 81.6689 170.841 81.4492 170.705 81.1953C170.568 80.9414 170.5 80.6484 170.5 80.3164C170.5 79.9941 170.57 79.689 170.712 79.4009C170.854 79.1128 171.056 78.8589 171.32 78.6392C171.583 78.4194 171.903 78.2461 172.279 78.1191C172.66 77.9922 173.085 77.9287 173.554 77.9287C174.218 77.9287 174.787 78.041 175.26 78.2656C175.739 78.4854 176.105 78.7856 176.359 79.1665C176.613 79.5425 176.74 79.9673 176.74 80.4409H174.975C174.975 80.231 174.921 80.0356 174.813 79.855C174.711 79.6694 174.555 79.5205 174.345 79.4082C174.135 79.291 173.871 79.2324 173.554 79.2324C173.251 79.2324 173 79.2812 172.799 79.3789C172.604 79.4717 172.458 79.5938 172.36 79.7451C172.267 79.8965 172.221 80.0625 172.221 80.2432C172.221 80.375 172.245 80.4946 172.294 80.6021C172.348 80.7046 172.436 80.7998 172.558 80.8877C172.68 80.9707 172.846 81.0488 173.056 81.1221C173.271 81.1953 173.539 81.2661 173.861 81.3345C174.467 81.4614 174.987 81.625 175.421 81.8252C175.861 82.0205 176.198 82.2744 176.432 82.5869C176.667 82.8945 176.784 83.2852 176.784 83.7588C176.784 84.1104 176.708 84.4326 176.557 84.7256C176.41 85.0137 176.195 85.2651 175.912 85.48C175.629 85.6899 175.29 85.8535 174.894 85.9707C174.503 86.0879 174.064 86.1465 173.576 86.1465C172.858 86.1465 172.25 86.0195 171.752 85.7656C171.254 85.5068 170.875 85.1772 170.617 84.7769C170.363 84.3716 170.236 83.9517 170.236 83.5171H171.942C171.962 83.8442 172.052 84.1055 172.213 84.3008C172.379 84.4912 172.584 84.6304 172.829 84.7183C173.078 84.8013 173.334 84.8428 173.598 84.8428C173.915 84.8428 174.181 84.8013 174.396 84.7183C174.611 84.6304 174.774 84.5132 174.887 84.3667C174.999 84.2153 175.055 84.0444 175.055 83.854ZM182.775 83.854C182.775 83.6782 182.731 83.5195 182.643 83.3779C182.555 83.2314 182.387 83.0996 182.138 82.9824C181.894 82.8652 181.532 82.7578 181.054 82.6602C180.634 82.5674 180.248 82.4575 179.896 82.3306C179.55 82.1987 179.252 82.04 179.003 81.8545C178.754 81.6689 178.561 81.4492 178.424 81.1953C178.288 80.9414 178.219 80.6484 178.219 80.3164C178.219 79.9941 178.29 79.689 178.432 79.4009C178.573 79.1128 178.776 78.8589 179.04 78.6392C179.303 78.4194 179.623 78.2461 179.999 78.1191C180.38 77.9922 180.805 77.9287 181.273 77.9287C181.938 77.9287 182.506 78.041 182.98 78.2656C183.458 78.4854 183.825 78.7856 184.079 79.1665C184.333 79.5425 184.459 79.9673 184.459 80.4409H182.694C182.694 80.231 182.641 80.0356 182.533 79.855C182.431 79.6694 182.274 79.5205 182.064 79.4082C181.854 79.291 181.591 79.2324 181.273 79.2324C180.971 79.2324 180.719 79.2812 180.519 79.3789C180.324 79.4717 180.177 79.5938 180.08 79.7451C179.987 79.8965 179.94 80.0625 179.94 80.2432C179.94 80.375 179.965 80.4946 180.014 80.6021C180.067 80.7046 180.155 80.7998 180.277 80.8877C180.399 80.9707 180.565 81.0488 180.775 81.1221C180.99 81.1953 181.259 81.2661 181.581 81.3345C182.187 81.4614 182.707 81.625 183.141 81.8252C183.581 82.0205 183.917 82.2744 184.152 82.5869C184.386 82.8945 184.503 83.2852 184.503 83.7588C184.503 84.1104 184.428 84.4326 184.276 84.7256C184.13 85.0137 183.915 85.2651 183.632 85.48C183.349 85.6899 183.009 85.8535 182.614 85.9707C182.223 86.0879 181.784 86.1465 181.295 86.1465C180.578 86.1465 179.97 86.0195 179.472 85.7656C178.974 85.5068 178.595 85.1772 178.336 84.7769C178.083 84.3716 177.956 83.9517 177.956 83.5171H179.662C179.682 83.8442 179.772 84.1055 179.933 84.3008C180.099 84.4912 180.304 84.6304 180.548 84.7183C180.797 84.8013 181.054 84.8428 181.317 84.8428C181.635 84.8428 181.901 84.8013 182.116 84.7183C182.331 84.6304 182.494 84.5132 182.606 84.3667C182.719 84.2153 182.775 84.0444 182.775 83.854ZM187.938 78.0752V86H186.166V78.0752H187.938ZM186.049 75.9951C186.049 75.7266 186.137 75.5044 186.312 75.3286C186.493 75.1479 186.742 75.0576 187.06 75.0576C187.372 75.0576 187.619 75.1479 187.799 75.3286C187.98 75.5044 188.07 75.7266 188.07 75.9951C188.07 76.2588 187.98 76.4785 187.799 76.6543C187.619 76.8301 187.372 76.918 187.06 76.918C186.742 76.918 186.493 76.8301 186.312 76.6543C186.137 76.4785 186.049 76.2588 186.049 75.9951ZM189.535 82.1255V81.957C189.535 81.3857 189.618 80.856 189.784 80.3677C189.95 79.8745 190.189 79.4473 190.502 79.0859C190.819 78.7197 191.205 78.4365 191.659 78.2363C192.118 78.0312 192.636 77.9287 193.212 77.9287C193.793 77.9287 194.311 78.0312 194.765 78.2363C195.224 78.4365 195.612 78.7197 195.929 79.0859C196.247 79.4473 196.488 79.8745 196.654 80.3677C196.82 80.856 196.903 81.3857 196.903 81.957V82.1255C196.903 82.6968 196.82 83.2266 196.654 83.7148C196.488 84.2031 196.247 84.6304 195.929 84.9966C195.612 85.3579 195.226 85.6411 194.772 85.8462C194.318 86.0464 193.803 86.1465 193.227 86.1465C192.646 86.1465 192.125 86.0464 191.667 85.8462C191.212 85.6411 190.827 85.3579 190.509 84.9966C190.192 84.6304 189.95 84.2031 189.784 83.7148C189.618 83.2266 189.535 82.6968 189.535 82.1255ZM191.3 81.957V82.1255C191.3 82.4819 191.337 82.8188 191.41 83.1362C191.483 83.4536 191.598 83.7319 191.754 83.9712C191.911 84.2104 192.111 84.3984 192.355 84.5352C192.599 84.6719 192.89 84.7402 193.227 84.7402C193.554 84.7402 193.837 84.6719 194.076 84.5352C194.32 84.3984 194.521 84.2104 194.677 83.9712C194.833 83.7319 194.948 83.4536 195.021 83.1362C195.099 82.8188 195.138 82.4819 195.138 82.1255V81.957C195.138 81.6055 195.099 81.2734 195.021 80.9609C194.948 80.6436 194.831 80.3628 194.669 80.1187C194.513 79.8745 194.313 79.6841 194.069 79.5474C193.83 79.4058 193.544 79.335 193.212 79.335C192.88 79.335 192.592 79.4058 192.348 79.5474C192.108 79.6841 191.911 79.8745 191.754 80.1187C191.598 80.3628 191.483 80.6436 191.41 80.9609C191.337 81.2734 191.3 81.6055 191.3 81.957ZM200.133 79.7671V86H198.368V78.0752H200.031L200.133 79.7671ZM199.818 81.7446L199.247 81.7373C199.252 81.1758 199.33 80.6606 199.481 80.1919C199.638 79.7231 199.853 79.3203 200.126 78.9834C200.404 78.6465 200.736 78.3877 201.122 78.207C201.508 78.0215 201.938 77.9287 202.411 77.9287C202.792 77.9287 203.136 77.9824 203.444 78.0898C203.756 78.1924 204.022 78.3608 204.242 78.5952C204.467 78.8296 204.638 79.1348 204.755 79.5107C204.872 79.8818 204.931 80.3384 204.931 80.8804V86H203.158V80.873C203.158 80.4922 203.102 80.1919 202.99 79.9722C202.882 79.7476 202.724 79.5889 202.514 79.4961C202.309 79.3984 202.052 79.3496 201.745 79.3496C201.442 79.3496 201.171 79.4131 200.932 79.54C200.692 79.667 200.49 79.8403 200.324 80.0601C200.163 80.2798 200.038 80.5337 199.95 80.8218C199.862 81.1099 199.818 81.4175 199.818 81.7446Z" fill="#505050"/>
<mask id="path-7-inside-2_3378_49379" fill="white">
<path d="M222 41H384V121H222V41Z"/>
</mask>
<path d="M222 41H384V121H222V41Z" fill="white"/>
<path d="M243.276 81C243.276 79.5262 244.471 78.375 246 78.375C247.504 78.375 248.724 79.5262 248.724 81C248.724 82.4492 247.504 83.625 246 83.625C244.471 83.625 243.276 82.4492 243.276 81ZM246 79.6875C245.248 79.6875 244.638 80.2754 244.638 81C244.638 81.7246 245.248 82.3125 246 82.3125C246.752 82.3125 247.362 81.7246 247.362 81C247.362 80.2754 246.752 79.6875 246 79.6875ZM247.053 74C247.683 74 248.231 74.4154 248.378 75.0046L248.6 75.8925C248.841 76.0059 249.071 76.1347 249.289 76.2772L250.2 76.0188C250.804 75.8473 251.451 76.0964 251.766 76.6214L252.819 78.3777C253.131 78.9027 253.032 79.5672 252.578 79.9855L251.888 80.5926C251.897 80.743 251.903 80.8715 251.903 81C251.903 81.1285 251.897 81.257 251.888 81.3828L252.578 82.0145C253.032 82.4328 253.131 83.0973 252.819 83.6223L251.766 85.3777C251.451 85.9027 250.804 86.1516 250.2 85.982L249.289 85.7223C249.071 85.8645 248.841 85.993 248.6 86.1078L248.378 86.9965C248.231 87.5844 247.683 88 247.053 88H244.947C244.317 88 243.77 87.5844 243.622 86.9965L243.401 86.1078C243.16 85.993 242.93 85.8645 242.711 85.7223L241.775 85.982C241.197 86.1516 240.55 85.9027 240.235 85.3777L239.183 83.6223C238.868 83.0973 238.967 82.4328 239.423 82.0145L240.111 81.3828C240.102 81.257 240.098 81.1285 240.098 80.9754C240.098 80.8715 240.102 80.743 240.111 80.5926L239.423 79.9855C238.967 79.5672 238.868 78.9027 239.183 78.3777L240.235 76.6214C240.55 76.0964 241.197 75.8473 241.775 76.0188L242.711 76.2772C242.93 76.1347 243.16 76.0059 243.401 75.8925L243.622 75.0046C243.77 74.4151 244.317 74 244.947 74L247.053 74ZM244.567 76.8328L244.249 76.9613C243.889 77.1063 243.554 77.2949 243.25 77.5191L242.975 77.7215L241.415 77.2785L240.362 79.034L241.54 80.1141L241.496 80.4422C241.472 80.6254 241.46 80.8113 241.46 81C241.46 81.1887 241.472 81.3746 241.496 81.5578L241.54 81.8859L240.362 82.966L241.415 84.7215L242.975 84.2785L243.25 84.4809C243.554 84.7051 243.889 84.8938 244.249 85.0387L244.567 85.1672L244.947 86.6875H247.053L247.433 85.1672L247.751 85.0387C248.111 84.8938 248.446 84.7051 248.75 84.4809L249.025 84.2785L250.586 84.7215L251.639 82.966L250.461 81.8859L250.504 81.5578C250.529 81.3746 250.541 81.1887 250.541 81C250.541 80.8113 250.529 80.6254 250.504 80.4422L250.461 80.1141L251.639 79.034L250.586 77.2785L249.025 77.7215L248.75 77.5191C248.446 77.2949 248.111 77.1063 247.751 76.9613L247.433 76.8328L247.053 75.3125H244.947L244.567 76.8328Z" fill="#286EF1"/>
<path d="M263.471 75.3359V86H261.647V75.3359H263.471ZM266.818 75.3359V76.8008H258.33V75.3359H266.818ZM266.687 82.1255V81.957C266.687 81.3857 266.77 80.856 266.936 80.3677C267.102 79.8745 267.341 79.4473 267.653 79.0859C267.971 78.7197 268.356 78.4365 268.811 78.2363C269.27 78.0312 269.787 77.9287 270.363 77.9287C270.944 77.9287 271.462 78.0312 271.916 78.2363C272.375 78.4365 272.763 78.7197 273.081 79.0859C273.398 79.4473 273.64 79.8745 273.806 80.3677C273.972 80.856 274.055 81.3857 274.055 81.957V82.1255C274.055 82.6968 273.972 83.2266 273.806 83.7148C273.64 84.2031 273.398 84.6304 273.081 84.9966C272.763 85.3579 272.377 85.6411 271.923 85.8462C271.469 86.0464 270.954 86.1465 270.378 86.1465C269.797 86.1465 269.277 86.0464 268.818 85.8462C268.364 85.6411 267.978 85.3579 267.661 84.9966C267.343 84.6304 267.102 84.2031 266.936 83.7148C266.77 83.2266 266.687 82.6968 266.687 82.1255ZM268.452 81.957V82.1255C268.452 82.4819 268.488 82.8188 268.562 83.1362C268.635 83.4536 268.75 83.7319 268.906 83.9712C269.062 84.2104 269.262 84.3984 269.506 84.5352C269.75 84.6719 270.041 84.7402 270.378 84.7402C270.705 84.7402 270.988 84.6719 271.228 84.5352C271.472 84.3984 271.672 84.2104 271.828 83.9712C271.984 83.7319 272.099 83.4536 272.172 83.1362C272.25 82.8188 272.29 82.4819 272.29 82.1255V81.957C272.29 81.6055 272.25 81.2734 272.172 80.9609C272.099 80.6436 271.982 80.3628 271.821 80.1187C271.665 79.8745 271.464 79.6841 271.22 79.5474C270.981 79.4058 270.695 79.335 270.363 79.335C270.031 79.335 269.743 79.4058 269.499 79.5474C269.26 79.6841 269.062 79.8745 268.906 80.1187C268.75 80.3628 268.635 80.6436 268.562 80.9609C268.488 81.2734 268.452 81.6055 268.452 81.957ZM275.197 82.1255V81.957C275.197 81.3857 275.28 80.856 275.446 80.3677C275.612 79.8745 275.852 79.4473 276.164 79.0859C276.481 78.7197 276.867 78.4365 277.321 78.2363C277.78 78.0312 278.298 77.9287 278.874 77.9287C279.455 77.9287 279.973 78.0312 280.427 78.2363C280.886 78.4365 281.274 78.7197 281.591 79.0859C281.909 79.4473 282.15 79.8745 282.316 80.3677C282.482 80.856 282.565 81.3857 282.565 81.957V82.1255C282.565 82.6968 282.482 83.2266 282.316 83.7148C282.15 84.2031 281.909 84.6304 281.591 84.9966C281.274 85.3579 280.888 85.6411 280.434 85.8462C279.98 86.0464 279.465 86.1465 278.889 86.1465C278.308 86.1465 277.788 86.0464 277.329 85.8462C276.875 85.6411 276.489 85.3579 276.171 84.9966C275.854 84.6304 275.612 84.2031 275.446 83.7148C275.28 83.2266 275.197 82.6968 275.197 82.1255ZM276.962 81.957V82.1255C276.962 82.4819 276.999 82.8188 277.072 83.1362C277.146 83.4536 277.26 83.7319 277.417 83.9712C277.573 84.2104 277.773 84.3984 278.017 84.5352C278.261 84.6719 278.552 84.7402 278.889 84.7402C279.216 84.7402 279.499 84.6719 279.738 84.5352C279.982 84.3984 280.183 84.2104 280.339 83.9712C280.495 83.7319 280.61 83.4536 280.683 83.1362C280.761 82.8188 280.8 82.4819 280.8 82.1255V81.957C280.8 81.6055 280.761 81.2734 280.683 80.9609C280.61 80.6436 280.493 80.3628 280.332 80.1187C280.175 79.8745 279.975 79.6841 279.731 79.5474C279.492 79.4058 279.206 79.335 278.874 79.335C278.542 79.335 278.254 79.4058 278.01 79.5474C277.771 79.6841 277.573 79.8745 277.417 80.1187C277.26 80.3628 277.146 80.6436 277.072 80.9609C276.999 81.2734 276.962 81.6055 276.962 81.957ZM285.935 74.75V86H284.162V74.75H285.935ZM292.314 83.854C292.314 83.6782 292.27 83.5195 292.182 83.3779C292.094 83.2314 291.926 83.0996 291.677 82.9824C291.433 82.8652 291.071 82.7578 290.593 82.6602C290.173 82.5674 289.787 82.4575 289.436 82.3306C289.089 82.1987 288.791 82.04 288.542 81.8545C288.293 81.6689 288.1 81.4492 287.963 81.1953C287.827 80.9414 287.758 80.6484 287.758 80.3164C287.758 79.9941 287.829 79.689 287.971 79.4009C288.112 79.1128 288.315 78.8589 288.579 78.6392C288.842 78.4194 289.162 78.2461 289.538 78.1191C289.919 77.9922 290.344 77.9287 290.812 77.9287C291.477 77.9287 292.045 78.041 292.519 78.2656C292.998 78.4854 293.364 78.7856 293.618 79.1665C293.872 79.5425 293.999 79.9673 293.999 80.4409H292.233C292.233 80.231 292.18 80.0356 292.072 79.855C291.97 79.6694 291.813 79.5205 291.604 79.4082C291.394 79.291 291.13 79.2324 290.812 79.2324C290.51 79.2324 290.258 79.2812 290.058 79.3789C289.863 79.4717 289.716 79.5938 289.619 79.7451C289.526 79.8965 289.479 80.0625 289.479 80.2432C289.479 80.375 289.504 80.4946 289.553 80.6021C289.606 80.7046 289.694 80.7998 289.816 80.8877C289.938 80.9707 290.104 81.0488 290.314 81.1221C290.529 81.1953 290.798 81.2661 291.12 81.3345C291.726 81.4614 292.246 81.625 292.68 81.8252C293.12 82.0205 293.457 82.2744 293.691 82.5869C293.925 82.8945 294.042 83.2852 294.042 83.7588C294.042 84.1104 293.967 84.4326 293.815 84.7256C293.669 85.0137 293.454 85.2651 293.171 85.48C292.888 85.6899 292.548 85.8535 292.153 85.9707C291.762 86.0879 291.323 86.1465 290.834 86.1465C290.117 86.1465 289.509 86.0195 289.011 85.7656C288.513 85.5068 288.134 85.1772 287.875 84.7769C287.622 84.3716 287.495 83.9517 287.495 83.5171H289.201C289.221 83.8442 289.311 84.1055 289.472 84.3008C289.638 84.4912 289.843 84.6304 290.087 84.7183C290.336 84.8013 290.593 84.8428 290.856 84.8428C291.174 84.8428 291.44 84.8013 291.655 84.7183C291.87 84.6304 292.033 84.5132 292.146 84.3667C292.258 84.2153 292.314 84.0444 292.314 83.854ZM301.147 80.1992L302.985 78.9614C303.293 78.7563 303.513 78.5562 303.645 78.3608C303.776 78.1606 303.842 77.9116 303.842 77.6138C303.842 77.3599 303.745 77.1255 303.549 76.9106C303.354 76.6958 303.078 76.5884 302.722 76.5884C302.473 76.5884 302.263 76.647 302.092 76.7642C301.921 76.8765 301.792 77.0278 301.704 77.2183C301.621 77.4038 301.579 77.6113 301.579 77.8408C301.579 78.0605 301.635 78.2876 301.748 78.522C301.86 78.7515 302.014 78.9932 302.209 79.2471C302.404 79.4961 302.624 79.7646 302.868 80.0527L307.907 86H305.864L301.748 81.1587C301.391 80.729 301.076 80.3359 300.803 79.9795C300.529 79.6182 300.317 79.269 300.166 78.9321C300.014 78.5903 299.938 78.2388 299.938 77.8774C299.938 77.3208 300.053 76.8423 300.283 76.4419C300.512 76.0415 300.837 75.7339 301.257 75.519C301.677 75.2993 302.167 75.1895 302.729 75.1895C303.271 75.1895 303.737 75.2993 304.128 75.519C304.523 75.7339 304.826 76.0195 305.036 76.376C305.251 76.7324 305.358 77.123 305.358 77.5479C305.358 77.8848 305.297 78.1924 305.175 78.4707C305.053 78.749 304.885 79.0029 304.67 79.2324C304.455 79.4619 304.206 79.6792 303.923 79.8843L301.689 81.5103C301.43 81.7202 301.237 81.9229 301.11 82.1182C300.988 82.3086 300.908 82.4844 300.869 82.6455C300.83 82.8066 300.81 82.9482 300.81 83.0703C300.81 83.3828 300.876 83.666 301.008 83.9199C301.145 84.1738 301.342 84.3765 301.601 84.5278C301.865 84.6743 302.185 84.7476 302.561 84.7476C302.966 84.7476 303.359 84.6572 303.74 84.4766C304.121 84.291 304.462 84.0298 304.765 83.6929C305.068 83.356 305.307 82.9531 305.483 82.4844C305.664 82.0156 305.754 81.4956 305.754 80.9243H307.277C307.277 81.4419 307.226 81.9326 307.124 82.3965C307.026 82.8604 306.867 83.29 306.647 83.6855C306.433 84.0811 306.149 84.4351 305.798 84.7476C305.764 84.7817 305.725 84.8257 305.681 84.8794C305.642 84.9282 305.603 84.9697 305.563 85.0039C305.144 85.3896 304.672 85.6777 304.15 85.8682C303.632 86.0537 303.081 86.1465 302.495 86.1465C301.787 86.1465 301.174 86.0171 300.656 85.7583C300.139 85.4995 299.738 85.1431 299.455 84.689C299.177 84.2349 299.038 83.7148 299.038 83.1289C299.038 82.6943 299.128 82.3135 299.309 81.9863C299.489 81.6543 299.736 81.3467 300.048 81.0635C300.366 80.7754 300.732 80.4873 301.147 80.1992ZM318.469 83.2534C318.469 83.0337 318.435 82.8384 318.366 82.6675C318.303 82.4966 318.188 82.3403 318.022 82.1987C317.856 82.0571 317.622 81.9204 317.319 81.7886C317.021 81.6519 316.64 81.5127 316.176 81.3711C315.668 81.2148 315.2 81.0415 314.77 80.8511C314.345 80.6558 313.974 80.4312 313.657 80.1772C313.339 79.9185 313.093 79.623 312.917 79.291C312.741 78.9541 312.653 78.5659 312.653 78.1265C312.653 77.6919 312.744 77.2964 312.924 76.9399C313.11 76.5835 313.371 76.2759 313.708 76.0171C314.05 75.7534 314.453 75.5508 314.917 75.4092C315.38 75.2627 315.893 75.1895 316.455 75.1895C317.246 75.1895 317.927 75.3359 318.498 75.6289C319.074 75.9219 319.516 76.3149 319.824 76.8081C320.136 77.3013 320.292 77.8457 320.292 78.4414H318.469C318.469 78.0898 318.393 77.7798 318.242 77.5112C318.095 77.2378 317.871 77.0229 317.568 76.8667C317.27 76.7104 316.892 76.6323 316.433 76.6323C315.998 76.6323 315.637 76.6982 315.349 76.8301C315.061 76.9619 314.846 77.1401 314.704 77.3647C314.562 77.5894 314.492 77.8433 314.492 78.1265C314.492 78.3267 314.538 78.5098 314.631 78.6758C314.724 78.8369 314.865 78.9883 315.056 79.1299C315.246 79.2666 315.485 79.396 315.773 79.5181C316.062 79.6401 316.401 79.7573 316.792 79.8696C317.382 80.0454 317.897 80.2407 318.337 80.4556C318.776 80.6655 319.143 80.9048 319.436 81.1733C319.729 81.4419 319.948 81.7471 320.095 82.0889C320.241 82.4258 320.314 82.8091 320.314 83.2388C320.314 83.688 320.224 84.0933 320.043 84.4546C319.863 84.811 319.604 85.1162 319.267 85.3701C318.935 85.6191 318.535 85.812 318.066 85.9487C317.602 86.0806 317.084 86.1465 316.513 86.1465C316 86.1465 315.495 86.0781 314.997 85.9414C314.504 85.8047 314.055 85.5972 313.649 85.3188C313.244 85.0356 312.922 84.6841 312.683 84.2642C312.443 83.8394 312.324 83.3438 312.324 82.7773H314.162C314.162 83.124 314.221 83.4194 314.338 83.6636C314.46 83.9077 314.628 84.1079 314.843 84.2642C315.058 84.4155 315.307 84.5278 315.59 84.6011C315.878 84.6743 316.186 84.7109 316.513 84.7109C316.943 84.7109 317.302 84.6499 317.59 84.5278C317.883 84.4058 318.103 84.2349 318.249 84.0151C318.396 83.7954 318.469 83.5415 318.469 83.2534ZM325.258 86.1465C324.672 86.1465 324.143 86.0513 323.669 85.8608C323.2 85.6655 322.8 85.3945 322.468 85.0479C322.141 84.7012 321.889 84.2935 321.713 83.8247C321.538 83.356 321.45 82.8506 321.45 82.3086V82.0156C321.45 81.3955 321.54 80.834 321.721 80.3311C321.901 79.8281 322.153 79.3984 322.475 79.042C322.797 78.6807 323.178 78.4048 323.618 78.2144C324.057 78.0239 324.533 77.9287 325.046 77.9287C325.612 77.9287 326.108 78.0239 326.533 78.2144C326.958 78.4048 327.309 78.6733 327.587 79.02C327.871 79.3618 328.081 79.7695 328.217 80.2432C328.359 80.7168 328.43 81.2393 328.43 81.8105V82.5649H322.307V81.2979H326.687V81.1587C326.677 80.8413 326.613 80.5435 326.496 80.2651C326.384 79.9868 326.21 79.7622 325.976 79.5913C325.742 79.4204 325.429 79.335 325.039 79.335C324.746 79.335 324.484 79.3984 324.255 79.5254C324.03 79.6475 323.842 79.8257 323.691 80.0601C323.54 80.2944 323.422 80.5776 323.339 80.9097C323.261 81.2368 323.222 81.6055 323.222 82.0156V82.3086C323.222 82.6553 323.269 82.9775 323.361 83.2754C323.459 83.5684 323.601 83.8247 323.786 84.0444C323.972 84.2642 324.196 84.4375 324.46 84.5645C324.724 84.6865 325.024 84.7476 325.361 84.7476C325.786 84.7476 326.164 84.6621 326.496 84.4912C326.828 84.3203 327.116 84.0786 327.36 83.7661L328.291 84.667C328.12 84.916 327.897 85.1553 327.624 85.3848C327.351 85.6094 327.016 85.7925 326.621 85.9341C326.23 86.0757 325.776 86.1465 325.258 86.1465ZM333.439 78.0752V79.3643H328.972V78.0752H333.439ZM330.261 76.1343H332.026V83.8101C332.026 84.0542 332.06 84.2422 332.128 84.374C332.202 84.501 332.302 84.5864 332.429 84.6304C332.556 84.6743 332.705 84.6963 332.875 84.6963C332.998 84.6963 333.115 84.689 333.227 84.6743C333.339 84.6597 333.43 84.645 333.498 84.6304L333.505 85.978C333.359 86.022 333.188 86.061 332.993 86.0952C332.802 86.1294 332.583 86.1465 332.333 86.1465C331.928 86.1465 331.569 86.0757 331.257 85.9341C330.944 85.7876 330.7 85.5508 330.524 85.2236C330.349 84.8965 330.261 84.4619 330.261 83.9199V76.1343ZM338.435 78.0752V79.3643H333.967V78.0752H338.435ZM335.256 76.1343H337.021V83.8101C337.021 84.0542 337.055 84.2422 337.124 84.374C337.197 84.501 337.297 84.5864 337.424 84.6304C337.551 84.6743 337.7 84.6963 337.871 84.6963C337.993 84.6963 338.11 84.689 338.222 84.6743C338.334 84.6597 338.425 84.645 338.493 84.6304L338.5 85.978C338.354 86.022 338.183 86.061 337.988 86.0952C337.797 86.1294 337.578 86.1465 337.329 86.1465C336.923 86.1465 336.564 86.0757 336.252 85.9341C335.939 85.7876 335.695 85.5508 335.52 85.2236C335.344 84.8965 335.256 84.4619 335.256 83.9199V76.1343ZM341.687 78.0752V86H339.914V78.0752H341.687ZM339.797 75.9951C339.797 75.7266 339.885 75.5044 340.061 75.3286C340.241 75.1479 340.49 75.0576 340.808 75.0576C341.12 75.0576 341.367 75.1479 341.547 75.3286C341.728 75.5044 341.818 75.7266 341.818 75.9951C341.818 76.2588 341.728 76.4785 341.547 76.6543C341.367 76.8301 341.12 76.918 340.808 76.918C340.49 76.918 340.241 76.8301 340.061 76.6543C339.885 76.4785 339.797 76.2588 339.797 75.9951ZM345.371 79.7671V86H343.605V78.0752H345.268L345.371 79.7671ZM345.056 81.7446L344.484 81.7373C344.489 81.1758 344.567 80.6606 344.719 80.1919C344.875 79.7231 345.09 79.3203 345.363 78.9834C345.642 78.6465 345.974 78.3877 346.359 78.207C346.745 78.0215 347.175 77.9287 347.648 77.9287C348.029 77.9287 348.374 77.9824 348.681 78.0898C348.994 78.1924 349.26 78.3608 349.479 78.5952C349.704 78.8296 349.875 79.1348 349.992 79.5107C350.109 79.8818 350.168 80.3384 350.168 80.8804V86H348.396V80.873C348.396 80.4922 348.339 80.1919 348.227 79.9722C348.12 79.7476 347.961 79.5889 347.751 79.4961C347.546 79.3984 347.29 79.3496 346.982 79.3496C346.679 79.3496 346.408 79.4131 346.169 79.54C345.93 79.667 345.727 79.8403 345.561 80.0601C345.4 80.2798 345.275 80.5337 345.188 80.8218C345.1 81.1099 345.056 81.4175 345.056 81.7446ZM357.045 78.0752H358.649V85.7803C358.649 86.4932 358.498 87.0986 358.195 87.5967C357.893 88.0947 357.47 88.4731 356.928 88.7319C356.386 88.9956 355.759 89.1274 355.046 89.1274C354.743 89.1274 354.406 89.0835 354.035 88.9956C353.669 88.9077 353.312 88.7661 352.966 88.5708C352.624 88.3804 352.338 88.1289 352.109 87.8164L352.937 86.7764C353.22 87.1133 353.532 87.3599 353.874 87.5161C354.216 87.6724 354.575 87.7505 354.951 87.7505C355.356 87.7505 355.7 87.6748 355.983 87.5234C356.271 87.377 356.494 87.1597 356.65 86.8716C356.806 86.5835 356.884 86.2319 356.884 85.8169V79.8696L357.045 78.0752ZM351.662 82.1255V81.9717C351.662 81.3711 351.735 80.8242 351.882 80.3311C352.028 79.833 352.238 79.4058 352.512 79.0493C352.785 78.688 353.117 78.4121 353.508 78.2217C353.898 78.0264 354.34 77.9287 354.833 77.9287C355.346 77.9287 355.783 78.0215 356.145 78.207C356.511 78.3926 356.816 78.6587 357.06 79.0054C357.304 79.3472 357.495 79.7573 357.631 80.2358C357.773 80.7095 357.878 81.2368 357.946 81.8179V82.3086C357.883 82.875 357.775 83.3926 357.624 83.8613C357.473 84.3301 357.272 84.7354 357.023 85.0771C356.774 85.4189 356.467 85.6826 356.101 85.8682C355.739 86.0537 355.312 86.1465 354.819 86.1465C354.335 86.1465 353.898 86.0464 353.508 85.8462C353.122 85.646 352.79 85.3652 352.512 85.0039C352.238 84.6426 352.028 84.2178 351.882 83.7295C351.735 83.2363 351.662 82.7017 351.662 82.1255ZM353.427 81.9717V82.1255C353.427 82.4868 353.461 82.8237 353.53 83.1362C353.603 83.4487 353.713 83.7246 353.859 83.9639C354.011 84.1982 354.201 84.3838 354.431 84.5205C354.665 84.6523 354.941 84.7183 355.258 84.7183C355.673 84.7183 356.013 84.6304 356.276 84.4546C356.545 84.2788 356.75 84.042 356.892 83.7441C357.038 83.4414 357.141 83.1045 357.199 82.7334V81.4077C357.17 81.1196 357.109 80.8511 357.016 80.6021C356.928 80.353 356.809 80.1357 356.657 79.9502C356.506 79.7598 356.315 79.6133 356.086 79.5107C355.856 79.4033 355.585 79.3496 355.273 79.3496C354.956 79.3496 354.68 79.418 354.445 79.5547C354.211 79.6914 354.018 79.8794 353.867 80.1187C353.72 80.3579 353.61 80.6362 353.537 80.9536C353.464 81.271 353.427 81.6104 353.427 81.9717ZM364.926 83.854C364.926 83.6782 364.882 83.5195 364.794 83.3779C364.707 83.2314 364.538 83.0996 364.289 82.9824C364.045 82.8652 363.684 82.7578 363.205 82.6602C362.785 82.5674 362.399 82.4575 362.048 82.3306C361.701 82.1987 361.403 82.04 361.154 81.8545C360.905 81.6689 360.712 81.4492 360.576 81.1953C360.439 80.9414 360.371 80.6484 360.371 80.3164C360.371 79.9941 360.441 79.689 360.583 79.4009C360.725 79.1128 360.927 78.8589 361.191 78.6392C361.455 78.4194 361.774 78.2461 362.15 78.1191C362.531 77.9922 362.956 77.9287 363.425 77.9287C364.089 77.9287 364.658 78.041 365.131 78.2656C365.61 78.4854 365.976 78.7856 366.23 79.1665C366.484 79.5425 366.611 79.9673 366.611 80.4409H364.846C364.846 80.231 364.792 80.0356 364.685 79.855C364.582 79.6694 364.426 79.5205 364.216 79.4082C364.006 79.291 363.742 79.2324 363.425 79.2324C363.122 79.2324 362.871 79.2812 362.67 79.3789C362.475 79.4717 362.329 79.5938 362.231 79.7451C362.138 79.8965 362.092 80.0625 362.092 80.2432C362.092 80.375 362.116 80.4946 362.165 80.6021C362.219 80.7046 362.307 80.7998 362.429 80.8877C362.551 80.9707 362.717 81.0488 362.927 81.1221C363.142 81.1953 363.41 81.2661 363.732 81.3345C364.338 81.4614 364.858 81.625 365.292 81.8252C365.732 82.0205 366.069 82.2744 366.303 82.5869C366.538 82.8945 366.655 83.2852 366.655 83.7588C366.655 84.1104 366.579 84.4326 366.428 84.7256C366.281 85.0137 366.066 85.2651 365.783 85.48C365.5 85.6899 365.161 85.8535 364.765 85.9707C364.375 86.0879 363.935 86.1465 363.447 86.1465C362.729 86.1465 362.121 86.0195 361.623 85.7656C361.125 85.5068 360.747 85.1772 360.488 84.7769C360.234 84.3716 360.107 83.9517 360.107 83.5171H361.813C361.833 83.8442 361.923 84.1055 362.084 84.3008C362.25 84.4912 362.456 84.6304 362.7 84.7183C362.949 84.8013 363.205 84.8428 363.469 84.8428C363.786 84.8428 364.052 84.8013 364.267 84.7183C364.482 84.6304 364.646 84.5132 364.758 84.3667C364.87 84.2153 364.926 84.0444 364.926 83.854Z" fill="#286EF1"/>
<path d="M384 117H222V125H384V117Z" fill="#286EF1" mask="url(#path-7-inside-2_3378_49379)"/>
<rect width="126" height="80" transform="translate(384 41)" fill="white" fill-opacity="0.01"/>
<path d="M408 74C404.15 74 401 77.15 401 81C401 84.85 404.15 88 408 88C411.85 88 415 84.85 415 81C415 77.15 411.85 74 408 74ZM408 86.6C406.88 86.6 405.9 85.62 405.9 84.5C405.9 83.38 406.88 82.4 408 82.4C409.12 82.4 410.1 83.38 410.1 84.5C410.1 85.62 409.12 86.6 408 86.6ZM411.78 83.52C411.71 83.8 411.64 84.08 411.5 84.36C411.43 83.45 411.08 82.68 410.45 82.05C409.82 81.35 408.91 81 408 81C407.3 81 406.6 81.21 406.04 81.56C405.48 81.91 404.99 82.47 404.78 83.1C404.64 83.52 404.5 83.94 404.5 84.36C404.29 83.87 404.15 83.31 404.15 82.75C404.15 81.7 404.57 80.72 405.27 80.02C405.97 79.32 406.95 78.9 408 78.9C408.77 78.9 409.54 79.11 410.17 79.53C410.8 79.95 411.29 80.58 411.57 81.28C411.85 81.98 411.92 82.75 411.78 83.52ZM413.18 82.96C413.18 82.89 413.18 82.82 413.18 82.75C413.18 81.35 412.62 80.02 411.64 79.04C410.66 78.06 409.4 77.5 408 77.5C406.95 77.5 405.97 77.78 405.06 78.41C404.22 78.97 403.52 79.81 403.1 80.79C402.82 81.49 402.68 82.26 402.68 83.03C402.54 82.33 402.4 81.7 402.4 81C402.4 79.53 402.96 78.06 404.01 77.01C405.06 75.96 406.53 75.4 408 75.4C409.12 75.4 410.17 75.75 411.08 76.31C411.99 76.94 412.69 77.78 413.11 78.83C413.6 79.88 413.74 81 413.46 82.12C413.39 82.4 413.32 82.68 413.18 82.96Z" fill="#1A1A1A"/>
<path d="M426.694 83.2534C426.694 83.0337 426.66 82.8384 426.592 82.6675C426.528 82.4966 426.414 82.3403 426.248 82.1987C426.082 82.0571 425.847 81.9204 425.544 81.7886C425.247 81.6519 424.866 81.5127 424.402 81.3711C423.894 81.2148 423.425 81.0415 422.996 80.8511C422.571 80.6558 422.2 80.4312 421.882 80.1772C421.565 79.9185 421.318 79.623 421.143 79.291C420.967 78.9541 420.879 78.5659 420.879 78.1265C420.879 77.6919 420.969 77.2964 421.15 76.9399C421.335 76.5835 421.597 76.2759 421.934 76.0171C422.275 75.7534 422.678 75.5508 423.142 75.4092C423.606 75.2627 424.119 75.1895 424.68 75.1895C425.471 75.1895 426.152 75.3359 426.724 75.6289C427.3 75.9219 427.742 76.3149 428.049 76.8081C428.362 77.3013 428.518 77.8457 428.518 78.4414H426.694C426.694 78.0898 426.619 77.7798 426.467 77.5112C426.321 77.2378 426.096 77.0229 425.793 76.8667C425.496 76.7104 425.117 76.6323 424.658 76.6323C424.224 76.6323 423.862 76.6982 423.574 76.8301C423.286 76.9619 423.071 77.1401 422.93 77.3647C422.788 77.5894 422.717 77.8433 422.717 78.1265C422.717 78.3267 422.764 78.5098 422.856 78.6758C422.949 78.8369 423.091 78.9883 423.281 79.1299C423.472 79.2666 423.711 79.396 423.999 79.5181C424.287 79.6401 424.626 79.7573 425.017 79.8696C425.608 80.0454 426.123 80.2407 426.562 80.4556C427.002 80.6655 427.368 80.9048 427.661 81.1733C427.954 81.4419 428.174 81.7471 428.32 82.0889C428.467 82.4258 428.54 82.8091 428.54 83.2388C428.54 83.688 428.45 84.0933 428.269 84.4546C428.088 84.811 427.83 85.1162 427.493 85.3701C427.161 85.6191 426.76 85.812 426.292 85.9487C425.828 86.0806 425.31 86.1465 424.739 86.1465C424.226 86.1465 423.721 86.0781 423.223 85.9414C422.729 85.8047 422.28 85.5972 421.875 85.3188C421.47 85.0356 421.147 84.6841 420.908 84.2642C420.669 83.8394 420.549 83.3438 420.549 82.7773H422.388C422.388 83.124 422.446 83.4194 422.563 83.6636C422.686 83.9077 422.854 84.1079 423.069 84.2642C423.284 84.4155 423.533 84.5278 423.816 84.6011C424.104 84.6743 424.412 84.7109 424.739 84.7109C425.168 84.7109 425.527 84.6499 425.815 84.5278C426.108 84.4058 426.328 84.2349 426.475 84.0151C426.621 83.7954 426.694 83.5415 426.694 83.2534ZM431.755 79.6865V86H429.99V78.0752H431.653L431.755 79.6865ZM431.47 81.7446L430.869 81.7373C430.869 81.1904 430.938 80.6851 431.074 80.2212C431.211 79.7573 431.411 79.3545 431.675 79.0127C431.938 78.666 432.266 78.3999 432.656 78.2144C433.052 78.0239 433.508 77.9287 434.026 77.9287C434.387 77.9287 434.717 77.9824 435.015 78.0898C435.317 78.1924 435.579 78.356 435.798 78.5806C436.023 78.8052 436.194 79.0933 436.311 79.4448C436.433 79.7964 436.494 80.2212 436.494 80.7192V86H434.729V80.873C434.729 80.4873 434.67 80.1846 434.553 79.9648C434.441 79.7451 434.277 79.5889 434.062 79.4961C433.853 79.3984 433.601 79.3496 433.308 79.3496C432.976 79.3496 432.693 79.4131 432.458 79.54C432.229 79.667 432.041 79.8403 431.895 80.0601C431.748 80.2798 431.641 80.5337 431.572 80.8218C431.504 81.1099 431.47 81.4175 431.47 81.7446ZM436.384 81.2759L435.557 81.459C435.557 80.9805 435.623 80.5288 435.754 80.104C435.891 79.6743 436.089 79.2983 436.348 78.9761C436.611 78.6489 436.936 78.3926 437.322 78.207C437.708 78.0215 438.149 77.9287 438.647 77.9287C439.053 77.9287 439.414 77.9849 439.731 78.0972C440.054 78.2046 440.327 78.3755 440.552 78.6099C440.776 78.8442 440.947 79.1494 441.064 79.5254C441.182 79.8965 441.24 80.3457 441.24 80.873V86H439.468V80.8657C439.468 80.4653 439.409 80.1553 439.292 79.9355C439.18 79.7158 439.019 79.5645 438.809 79.4814C438.599 79.3936 438.347 79.3496 438.054 79.3496C437.781 79.3496 437.539 79.4009 437.329 79.5034C437.124 79.6011 436.951 79.7402 436.809 79.9209C436.667 80.0967 436.56 80.2993 436.487 80.5288C436.418 80.7583 436.384 81.0073 436.384 81.2759ZM447.825 84.1323V78.0752H449.597V86H447.927L447.825 84.1323ZM448.074 82.4844L448.667 82.4697C448.667 83.002 448.608 83.4927 448.491 83.9419C448.374 84.3862 448.193 84.7744 447.949 85.1064C447.705 85.4336 447.393 85.6899 447.012 85.8755C446.631 86.0562 446.174 86.1465 445.642 86.1465C445.256 86.1465 444.902 86.0903 444.58 85.978C444.258 85.8657 443.979 85.6924 443.745 85.458C443.516 85.2236 443.337 84.9185 443.21 84.5425C443.083 84.1665 443.02 83.7173 443.02 83.1948V78.0752H444.785V83.2095C444.785 83.4976 444.819 83.7393 444.888 83.9346C444.956 84.125 445.049 84.2788 445.166 84.396C445.283 84.5132 445.42 84.5962 445.576 84.645C445.732 84.6938 445.898 84.7183 446.074 84.7183C446.577 84.7183 446.973 84.6206 447.261 84.4253C447.554 84.2251 447.761 83.9565 447.883 83.6196C448.01 83.2827 448.074 82.9043 448.074 82.4844ZM455.852 83.854C455.852 83.6782 455.808 83.5195 455.72 83.3779C455.632 83.2314 455.464 83.0996 455.215 82.9824C454.971 82.8652 454.609 82.7578 454.131 82.6602C453.711 82.5674 453.325 82.4575 452.974 82.3306C452.627 82.1987 452.329 82.04 452.08 81.8545C451.831 81.6689 451.638 81.4492 451.501 81.1953C451.365 80.9414 451.296 80.6484 451.296 80.3164C451.296 79.9941 451.367 79.689 451.509 79.4009C451.65 79.1128 451.853 78.8589 452.117 78.6392C452.38 78.4194 452.7 78.2461 453.076 78.1191C453.457 77.9922 453.882 77.9287 454.351 77.9287C455.015 77.9287 455.583 78.041 456.057 78.2656C456.536 78.4854 456.902 78.7856 457.156 79.1665C457.41 79.5425 457.537 79.9673 457.537 80.4409H455.771C455.771 80.231 455.718 80.0356 455.61 79.855C455.508 79.6694 455.352 79.5205 455.142 79.4082C454.932 79.291 454.668 79.2324 454.351 79.2324C454.048 79.2324 453.796 79.2812 453.596 79.3789C453.401 79.4717 453.254 79.5938 453.157 79.7451C453.064 79.8965 453.018 80.0625 453.018 80.2432C453.018 80.375 453.042 80.4946 453.091 80.6021C453.145 80.7046 453.232 80.7998 453.354 80.8877C453.477 80.9707 453.643 81.0488 453.853 81.1221C454.067 81.1953 454.336 81.2661 454.658 81.3345C455.264 81.4614 455.784 81.625 456.218 81.8252C456.658 82.0205 456.995 82.2744 457.229 82.5869C457.463 82.8945 457.581 83.2852 457.581 83.7588C457.581 84.1104 457.505 84.4326 457.354 84.7256C457.207 85.0137 456.992 85.2651 456.709 85.48C456.426 85.6899 456.086 85.8535 455.691 85.9707C455.3 86.0879 454.861 86.1465 454.373 86.1465C453.655 86.1465 453.047 86.0195 452.549 85.7656C452.051 85.5068 451.672 85.1772 451.414 84.7769C451.16 84.3716 451.033 83.9517 451.033 83.5171H452.739C452.759 83.8442 452.849 84.1055 453.01 84.3008C453.176 84.4912 453.381 84.6304 453.625 84.7183C453.875 84.8013 454.131 84.8428 454.395 84.8428C454.712 84.8428 454.978 84.8013 455.193 84.7183C455.408 84.6304 455.571 84.5132 455.684 84.3667C455.796 84.2153 455.852 84.0444 455.852 83.854ZM460.869 74.75V86H459.111V74.75H460.869ZM460.562 81.7446L459.99 81.7373C459.995 81.1904 460.071 80.6851 460.217 80.2212C460.369 79.7573 460.579 79.3545 460.847 79.0127C461.121 78.666 461.448 78.3999 461.829 78.2144C462.209 78.0239 462.632 77.9287 463.096 77.9287C463.486 77.9287 463.838 77.9824 464.15 78.0898C464.468 78.1973 464.741 78.3706 464.971 78.6099C465.2 78.8442 465.374 79.1519 465.491 79.5327C465.613 79.9087 465.674 80.3677 465.674 80.9097V86H463.901V80.895C463.901 80.5142 463.845 80.2114 463.733 79.9868C463.625 79.7622 463.467 79.6011 463.257 79.5034C463.047 79.4009 462.791 79.3496 462.488 79.3496C462.17 79.3496 461.89 79.4131 461.646 79.54C461.406 79.667 461.206 79.8403 461.045 80.0601C460.884 80.2798 460.762 80.5337 460.679 80.8218C460.601 81.1099 460.562 81.4175 460.562 81.7446ZM475.422 82.0229H472.646V80.5654H475.422C475.906 80.5654 476.296 80.4873 476.594 80.3311C476.892 80.1748 477.109 79.96 477.246 79.6865C477.388 79.4082 477.458 79.0908 477.458 78.7344C477.458 78.3975 477.388 78.0825 477.246 77.7896C477.109 77.4917 476.892 77.2524 476.594 77.0718C476.296 76.8911 475.906 76.8008 475.422 76.8008H473.21V86H471.372V75.3359H475.422C476.248 75.3359 476.948 75.4824 477.524 75.7754C478.105 76.0635 478.547 76.4639 478.85 76.9766C479.153 77.4844 479.304 78.0654 479.304 78.7197C479.304 79.4082 479.153 79.999 478.85 80.4922C478.547 80.9854 478.105 81.3638 477.524 81.6274C476.948 81.8911 476.248 82.0229 475.422 82.0229ZM482.549 79.584V86H480.784V78.0752H482.468L482.549 79.584ZM484.973 78.0239L484.958 79.6646C484.851 79.645 484.734 79.6304 484.607 79.6206C484.485 79.6108 484.363 79.606 484.241 79.606C483.938 79.606 483.672 79.6499 483.442 79.7378C483.213 79.8208 483.02 79.9429 482.864 80.104C482.712 80.2603 482.595 80.4507 482.512 80.6753C482.429 80.8999 482.38 81.1514 482.366 81.4297L481.963 81.459C481.963 80.9609 482.012 80.4995 482.109 80.0747C482.207 79.6499 482.354 79.2764 482.549 78.9541C482.749 78.6318 482.998 78.3804 483.296 78.1997C483.599 78.019 483.948 77.9287 484.343 77.9287C484.451 77.9287 484.565 77.9385 484.688 77.958C484.814 77.9775 484.91 77.9995 484.973 78.0239ZM485.552 82.1255V81.957C485.552 81.3857 485.635 80.856 485.801 80.3677C485.967 79.8745 486.206 79.4473 486.519 79.0859C486.836 78.7197 487.222 78.4365 487.676 78.2363C488.135 78.0312 488.652 77.9287 489.229 77.9287C489.81 77.9287 490.327 78.0312 490.781 78.2363C491.24 78.4365 491.628 78.7197 491.946 79.0859C492.263 79.4473 492.505 79.8745 492.671 80.3677C492.837 80.856 492.92 81.3857 492.92 81.957V82.1255C492.92 82.6968 492.837 83.2266 492.671 83.7148C492.505 84.2031 492.263 84.6304 491.946 84.9966C491.628 85.3579 491.243 85.6411 490.789 85.8462C490.334 86.0464 489.819 86.1465 489.243 86.1465C488.662 86.1465 488.142 86.0464 487.683 85.8462C487.229 85.6411 486.843 85.3579 486.526 84.9966C486.208 84.6304 485.967 84.2031 485.801 83.7148C485.635 83.2266 485.552 82.6968 485.552 82.1255ZM487.317 81.957V82.1255C487.317 82.4819 487.354 82.8188 487.427 83.1362C487.5 83.4536 487.615 83.7319 487.771 83.9712C487.927 84.2104 488.127 84.3984 488.372 84.5352C488.616 84.6719 488.906 84.7402 489.243 84.7402C489.57 84.7402 489.854 84.6719 490.093 84.5352C490.337 84.3984 490.537 84.2104 490.693 83.9712C490.85 83.7319 490.964 83.4536 491.038 83.1362C491.116 82.8188 491.155 82.4819 491.155 82.1255V81.957C491.155 81.6055 491.116 81.2734 491.038 80.9609C490.964 80.6436 490.847 80.3628 490.686 80.1187C490.53 79.8745 490.33 79.6841 490.085 79.5474C489.846 79.4058 489.561 79.335 489.229 79.335C488.896 79.335 488.608 79.4058 488.364 79.5474C488.125 79.6841 487.927 79.8745 487.771 80.1187C487.615 80.3628 487.5 80.6436 487.427 80.9609C487.354 81.2734 487.317 81.6055 487.317 81.957Z" fill="#505050"/>
<rect width="119" height="80" transform="translate(510 41)" fill="white" fill-opacity="0.01"/>
<path d="M534 74C537.866 74 541 77.1336 541 81C541 84.8664 537.866 88 534 88C530.134 88 527 84.8664 527 81C527 77.1336 530.134 74 534 74ZM534 86.6875C534.202 86.6875 534.714 86.4906 535.302 85.3641C535.542 84.8801 535.725 84.2922 535.903 83.625H532.097C532.25 84.2922 532.458 84.8801 532.698 85.3641C533.262 86.4906 533.798 86.6875 534 86.6875ZM531.881 82.3125H536.119C536.163 81.8941 536.188 81.4539 536.188 81C536.188 80.5461 536.163 80.1059 536.119 79.6875H531.881C531.837 80.1059 531.812 80.5461 531.812 81C531.812 81.4539 531.837 81.8941 531.881 82.3125ZM535.903 78.375C535.725 77.7078 535.542 77.1199 535.302 76.6373C534.714 75.5099 534.202 75.3125 534 75.3125C533.798 75.3125 533.262 75.5099 532.698 76.6373C532.458 77.1199 532.25 77.7078 532.097 78.375H535.903ZM537.44 79.6875C537.478 80.1113 537.5 80.5516 537.5 81C537.5 81.4484 537.478 81.8887 537.44 82.3125H539.534C539.636 81.8914 539.688 81.4512 539.688 81C539.688 80.5488 539.636 80.1086 539.534 79.6875H537.44ZM536.354 75.8214C536.74 76.5227 537.046 77.3934 537.246 78.375H539.048C538.463 77.2512 537.511 76.3483 536.354 75.8214ZM531.646 75.8214C530.489 76.3483 529.539 77.2512 528.953 78.375H530.754C530.954 77.3934 531.26 76.5227 531.646 75.8214ZM528.312 81C528.312 81.4512 528.365 81.8914 528.465 82.3125H530.56C530.522 81.8887 530.5 81.4484 530.5 81C530.5 80.5516 530.522 80.1113 530.56 79.6875H528.465C528.365 80.1086 528.312 80.5488 528.312 81ZM539.048 83.625H537.246C537.046 84.6066 536.74 85.4762 536.354 86.1789C537.511 85.6512 538.463 84.7488 539.048 83.625ZM530.754 83.625H528.953C529.539 84.7488 530.489 85.6512 531.646 86.1789C531.26 85.4762 530.954 84.6066 530.754 83.625Z" fill="#505050"/>
<path d="M553.383 82.5283H555.214C555.155 83.2266 554.96 83.8491 554.628 84.396C554.296 84.938 553.83 85.3652 553.229 85.6777C552.628 85.9902 551.898 86.1465 551.039 86.1465C550.38 86.1465 549.787 86.0293 549.259 85.7949C548.732 85.5557 548.28 85.2188 547.904 84.7842C547.528 84.3447 547.24 83.8149 547.04 83.1948C546.845 82.5747 546.747 81.8813 546.747 81.1147V80.2285C546.747 79.4619 546.847 78.7686 547.047 78.1484C547.252 77.5283 547.545 76.9985 547.926 76.5591C548.307 76.1147 548.764 75.7754 549.296 75.541C549.833 75.3066 550.436 75.1895 551.105 75.1895C551.955 75.1895 552.672 75.3457 553.258 75.6582C553.844 75.9707 554.298 76.4028 554.621 76.9546C554.948 77.5063 555.148 78.1387 555.221 78.8516H553.39C553.341 78.3926 553.234 77.9995 553.068 77.6724C552.907 77.3452 552.667 77.0962 552.35 76.9253C552.033 76.7495 551.618 76.6616 551.105 76.6616C550.685 76.6616 550.319 76.7397 550.006 76.896C549.694 77.0522 549.433 77.2817 549.223 77.5845C549.013 77.8872 548.854 78.2607 548.747 78.7051C548.644 79.1445 548.593 79.6475 548.593 80.2139V81.1147C548.593 81.6519 548.639 82.1401 548.732 82.5796C548.83 83.0142 548.976 83.3877 549.171 83.7002C549.372 84.0127 549.625 84.2544 549.933 84.4253C550.241 84.5962 550.609 84.6816 551.039 84.6816C551.562 84.6816 551.984 84.5986 552.306 84.4326C552.633 84.2666 552.88 84.0249 553.046 83.7075C553.217 83.3853 553.329 82.9922 553.383 82.5283ZM559.982 86H557.704L557.719 84.5425H559.982C560.641 84.5425 561.193 84.3984 561.637 84.1104C562.086 83.8223 562.423 83.4097 562.648 82.8726C562.877 82.3354 562.992 81.6958 562.992 80.9536V80.375C562.992 79.7988 562.926 79.2886 562.794 78.8442C562.667 78.3999 562.477 78.0264 562.223 77.7236C561.974 77.4209 561.667 77.1914 561.3 77.0352C560.939 76.8789 560.521 76.8008 560.048 76.8008H557.66V75.3359H560.048C560.756 75.3359 561.403 75.4556 561.989 75.6948C562.575 75.9292 563.08 76.2686 563.505 76.7129C563.935 77.1572 564.264 77.6895 564.494 78.3096C564.723 78.9297 564.838 79.623 564.838 80.3896V80.9536C564.838 81.7202 564.723 82.4136 564.494 83.0337C564.264 83.6538 563.935 84.186 563.505 84.6304C563.075 85.0698 562.562 85.4092 561.967 85.6484C561.376 85.8828 560.714 86 559.982 86ZM558.722 75.3359V86H556.884V75.3359H558.722ZM575.143 75.3359V86H573.305L568.522 78.3608V86H566.684V75.3359H568.522L573.319 82.9897V75.3359H575.143Z" fill="#505050"/>
<path d="M592.801 81.4658H590.989V80.3232H592.801C593.081 80.3232 593.308 80.2777 593.484 80.1865C593.66 80.0921 593.789 79.9619 593.87 79.7959C593.951 79.6299 593.992 79.4427 593.992 79.2344C593.992 79.0228 593.951 78.8258 593.87 78.6436C593.789 78.4613 593.66 78.3148 593.484 78.2041C593.308 78.0934 593.081 78.0381 592.801 78.0381H591.497V84H590.032V76.8906H592.801C593.357 76.8906 593.834 76.9915 594.231 77.1934C594.632 77.3919 594.938 77.667 595.149 78.0186C595.361 78.3701 595.467 78.7721 595.467 79.2246C595.467 79.6836 595.361 80.0807 595.149 80.416C594.938 80.7513 594.632 81.0101 594.231 81.1924C593.834 81.3747 593.357 81.4658 592.801 81.4658ZM597.596 79.8691V84H596.189V78.7168H597.513L597.596 79.8691ZM599.188 78.6826L599.163 79.9863C599.095 79.9766 599.012 79.9684 598.914 79.9619C598.82 79.9521 598.733 79.9473 598.655 79.9473C598.457 79.9473 598.284 79.9733 598.138 80.0254C597.994 80.0742 597.874 80.1475 597.776 80.2451C597.682 80.3428 597.61 80.4616 597.562 80.6016C597.516 80.7415 597.49 80.901 597.483 81.0801L597.2 80.9922C597.2 80.6504 597.234 80.3363 597.303 80.0498C597.371 79.7601 597.47 79.5078 597.601 79.293C597.734 79.0781 597.897 78.9121 598.089 78.7949C598.281 78.6777 598.501 78.6191 598.748 78.6191C598.826 78.6191 598.906 78.6257 598.987 78.6387C599.069 78.6484 599.135 78.6631 599.188 78.6826ZM599.28 81.4121V81.3096C599.28 80.9222 599.336 80.5658 599.446 80.2402C599.557 79.9115 599.718 79.6266 599.93 79.3857C600.141 79.1449 600.402 78.9577 600.711 78.8242C601.02 78.6875 601.375 78.6191 601.776 78.6191C602.176 78.6191 602.532 78.6875 602.845 78.8242C603.157 78.9577 603.419 79.1449 603.631 79.3857C603.846 79.6266 604.009 79.9115 604.119 80.2402C604.23 80.5658 604.285 80.9222 604.285 81.3096V81.4121C604.285 81.7962 604.23 82.1527 604.119 82.4814C604.009 82.807 603.846 83.0918 603.631 83.3359C603.419 83.5768 603.159 83.764 602.85 83.8975C602.541 84.0309 602.186 84.0977 601.785 84.0977C601.385 84.0977 601.029 84.0309 600.716 83.8975C600.407 83.764 600.145 83.5768 599.93 83.3359C599.718 83.0918 599.557 82.807 599.446 82.4814C599.336 82.1527 599.28 81.7962 599.28 81.4121ZM600.687 81.3096V81.4121C600.687 81.6335 600.706 81.8402 600.745 82.0322C600.784 82.2243 600.846 82.3936 600.931 82.54C601.019 82.6833 601.133 82.7956 601.273 82.877C601.413 82.9583 601.584 82.999 601.785 82.999C601.981 82.999 602.148 82.9583 602.288 82.877C602.428 82.7956 602.541 82.6833 602.625 82.54C602.71 82.3936 602.772 82.2243 602.811 82.0322C602.853 81.8402 602.874 81.6335 602.874 81.4121V81.3096C602.874 81.0947 602.853 80.8929 602.811 80.7041C602.772 80.512 602.708 80.3428 602.62 80.1963C602.536 80.0465 602.423 79.9294 602.283 79.8447C602.143 79.7601 601.974 79.7178 601.776 79.7178C601.577 79.7178 601.408 79.7601 601.268 79.8447C601.131 79.9294 601.019 80.0465 600.931 80.1963C600.846 80.3428 600.784 80.512 600.745 80.7041C600.706 80.8929 600.687 81.0947 600.687 81.3096Z" fill="#1A1A1A"/>
<rect x="581.5" y="73.5" width="31" height="15" rx="7.5" stroke="#1A1A1A"/>
<rect width="166" height="80" transform="translate(629 41)" fill="white" fill-opacity="0.01"/>
<path d="M650.164 77.3571C649.438 77.3571 648.849 77.9328 648.849 78.6429C648.849 79.3529 649.438 79.9286 650.164 79.9286C650.89 79.9286 651.479 79.3529 651.479 78.6429C651.479 77.9328 650.89 77.3571 650.164 77.3571ZM658.247 75H647.729C646.785 75 646 75.7674 646 76.7143V85.2857C646 86.2326 646.785 87 647.728 87H658.247C659.215 87 660 86.2326 660 85.2857V76.7143C660 75.7674 659.239 75 658.247 75ZM658.685 85.1062L654.938 80.1268C654.87 80.0036 654.714 79.9286 654.547 79.9286C654.379 79.9286 654.223 80.0027 654.13 80.1262L651.21 83.986L650.194 82.7512C650.1 82.6366 649.949 82.5688 649.789 82.5688C649.629 82.5688 649.479 82.6366 649.385 82.7512L647.316 85.264C647.316 85.2632 647.316 85.2648 647.316 85.264L647.315 76.7143C647.315 76.478 647.511 76.2857 647.753 76.2857H658.272C658.513 76.2857 658.71 76.478 658.71 76.7143V85.1062H658.685Z" fill="#505050"/>
<path d="M672.764 84.5425V86H667.41V84.5425H672.764ZM667.922 75.3359V86H666.084V75.3359H667.922ZM673.672 82.1255V81.957C673.672 81.3857 673.755 80.856 673.921 80.3677C674.087 79.8745 674.326 79.4473 674.639 79.0859C674.956 78.7197 675.342 78.4365 675.796 78.2363C676.255 78.0312 676.772 77.9287 677.349 77.9287C677.93 77.9287 678.447 78.0312 678.901 78.2363C679.36 78.4365 679.749 78.7197 680.066 79.0859C680.383 79.4473 680.625 79.8745 680.791 80.3677C680.957 80.856 681.04 81.3857 681.04 81.957V82.1255C681.04 82.6968 680.957 83.2266 680.791 83.7148C680.625 84.2031 680.383 84.6304 680.066 84.9966C679.749 85.3579 679.363 85.6411 678.909 85.8462C678.455 86.0464 677.939 86.1465 677.363 86.1465C676.782 86.1465 676.262 86.0464 675.803 85.8462C675.349 85.6411 674.963 85.3579 674.646 84.9966C674.329 84.6304 674.087 84.2031 673.921 83.7148C673.755 83.2266 673.672 82.6968 673.672 82.1255ZM675.437 81.957V82.1255C675.437 82.4819 675.474 82.8188 675.547 83.1362C675.62 83.4536 675.735 83.7319 675.891 83.9712C676.047 84.2104 676.248 84.3984 676.492 84.5352C676.736 84.6719 677.026 84.7402 677.363 84.7402C677.69 84.7402 677.974 84.6719 678.213 84.5352C678.457 84.3984 678.657 84.2104 678.813 83.9712C678.97 83.7319 679.084 83.4536 679.158 83.1362C679.236 82.8188 679.275 82.4819 679.275 82.1255V81.957C679.275 81.6055 679.236 81.2734 679.158 80.9609C679.084 80.6436 678.967 80.3628 678.806 80.1187C678.65 79.8745 678.45 79.6841 678.206 79.5474C677.966 79.4058 677.681 79.335 677.349 79.335C677.017 79.335 676.729 79.4058 676.484 79.5474C676.245 79.6841 676.047 79.8745 675.891 80.1187C675.735 80.3628 675.62 80.6436 675.547 80.9609C675.474 81.2734 675.437 81.6055 675.437 81.957ZM685.757 84.7402C686.045 84.7402 686.304 84.6841 686.533 84.5718C686.768 84.4546 686.956 84.2935 687.097 84.0884C687.244 83.8833 687.324 83.6465 687.339 83.3779H689.001C688.992 83.8906 688.84 84.3569 688.547 84.7769C688.254 85.1968 687.866 85.5312 687.383 85.7803C686.899 86.0244 686.365 86.1465 685.779 86.1465C685.173 86.1465 684.646 86.0439 684.197 85.8389C683.748 85.6289 683.374 85.3408 683.076 84.9746C682.778 84.6084 682.554 84.186 682.402 83.7075C682.256 83.229 682.183 82.7163 682.183 82.1694V81.9131C682.183 81.3662 682.256 80.8535 682.402 80.375C682.554 79.8916 682.778 79.4668 683.076 79.1006C683.374 78.7344 683.748 78.4487 684.197 78.2437C684.646 78.0337 685.171 77.9287 685.771 77.9287C686.406 77.9287 686.963 78.0557 687.441 78.3096C687.92 78.5586 688.296 78.9077 688.569 79.3569C688.848 79.8013 688.992 80.3188 689.001 80.9097H687.339C687.324 80.6167 687.251 80.353 687.119 80.1187C686.992 79.8794 686.812 79.689 686.577 79.5474C686.348 79.4058 686.072 79.335 685.75 79.335C685.393 79.335 685.098 79.4082 684.863 79.5547C684.629 79.6963 684.446 79.8916 684.314 80.1406C684.182 80.3848 684.087 80.6606 684.028 80.9683C683.975 81.271 683.948 81.5859 683.948 81.9131V82.1694C683.948 82.4966 683.975 82.814 684.028 83.1216C684.082 83.4292 684.175 83.7051 684.307 83.9492C684.443 84.1885 684.629 84.3813 684.863 84.5278C685.098 84.6694 685.396 84.7402 685.757 84.7402ZM694.824 84.4106V80.6313C694.824 80.3481 694.773 80.104 694.67 79.8989C694.568 79.6938 694.412 79.5352 694.202 79.4229C693.997 79.3105 693.738 79.2544 693.425 79.2544C693.137 79.2544 692.888 79.3032 692.678 79.4009C692.468 79.4985 692.305 79.6304 692.188 79.7964C692.07 79.9624 692.012 80.1504 692.012 80.3604H690.254C690.254 80.0479 690.33 79.7451 690.481 79.4521C690.632 79.1592 690.852 78.8979 691.14 78.6685C691.428 78.439 691.772 78.2583 692.173 78.1265C692.573 77.9946 693.022 77.9287 693.521 77.9287C694.116 77.9287 694.644 78.0288 695.103 78.229C695.566 78.4292 695.93 78.7319 696.194 79.1372C696.462 79.5376 696.597 80.0405 696.597 80.646V84.1689C696.597 84.5303 696.621 84.855 696.67 85.1431C696.724 85.4263 696.799 85.6729 696.897 85.8828V86H695.088C695.005 85.8096 694.939 85.5679 694.89 85.2749C694.846 84.9771 694.824 84.689 694.824 84.4106ZM695.081 81.1807L695.095 82.272H693.828C693.501 82.272 693.213 82.3037 692.964 82.3672C692.715 82.4258 692.507 82.5137 692.341 82.6309C692.175 82.748 692.051 82.8896 691.968 83.0557C691.885 83.2217 691.843 83.4097 691.843 83.6196C691.843 83.8296 691.892 84.0225 691.99 84.1982C692.087 84.3691 692.229 84.5034 692.415 84.6011C692.605 84.6987 692.834 84.7476 693.103 84.7476C693.464 84.7476 693.779 84.6743 694.048 84.5278C694.321 84.3765 694.536 84.1934 694.692 83.9785C694.849 83.7588 694.932 83.5513 694.941 83.356L695.513 84.1396C695.454 84.3398 695.354 84.5547 695.212 84.7842C695.071 85.0137 694.885 85.2334 694.656 85.4434C694.431 85.6484 694.16 85.8169 693.843 85.9487C693.53 86.0806 693.169 86.1465 692.759 86.1465C692.241 86.1465 691.78 86.0439 691.375 85.8389C690.969 85.6289 690.652 85.3481 690.422 84.9966C690.193 84.6401 690.078 84.2373 690.078 83.7881C690.078 83.3682 690.156 82.9971 690.312 82.6748C690.474 82.3477 690.708 82.0742 691.016 81.8545C691.328 81.6348 691.709 81.4688 692.158 81.3564C692.607 81.2393 693.12 81.1807 693.696 81.1807H695.081ZM700.332 74.75V86H698.56V74.75H700.332ZM708.85 83.605L710.974 75.3359H712.087L711.963 77.4673L709.692 86H708.535L708.85 83.605ZM707.261 75.3359L708.982 83.5391L709.136 86H707.905L705.437 75.3359H707.261ZM714.497 83.5171L716.196 75.3359H718.027L715.559 86H714.329L714.497 83.5171ZM712.52 75.3359L714.622 83.627L714.929 86H713.772L711.538 77.4673L711.421 75.3359H712.52ZM722.473 86.1465C721.887 86.1465 721.357 86.0513 720.884 85.8608C720.415 85.6655 720.015 85.3945 719.683 85.0479C719.355 84.7012 719.104 84.2935 718.928 83.8247C718.752 83.356 718.665 82.8506 718.665 82.3086V82.0156C718.665 81.3955 718.755 80.834 718.936 80.3311C719.116 79.8281 719.368 79.3984 719.69 79.042C720.012 78.6807 720.393 78.4048 720.833 78.2144C721.272 78.0239 721.748 77.9287 722.261 77.9287C722.827 77.9287 723.323 78.0239 723.748 78.2144C724.172 78.4048 724.524 78.6733 724.802 79.02C725.085 79.3618 725.295 79.7695 725.432 80.2432C725.574 80.7168 725.645 81.2393 725.645 81.8105V82.5649H719.521V81.2979H723.901V81.1587C723.892 80.8413 723.828 80.5435 723.711 80.2651C723.599 79.9868 723.425 79.7622 723.191 79.5913C722.957 79.4204 722.644 79.335 722.253 79.335C721.96 79.335 721.699 79.3984 721.47 79.5254C721.245 79.6475 721.057 79.8257 720.906 80.0601C720.754 80.2944 720.637 80.5776 720.554 80.9097C720.476 81.2368 720.437 81.6055 720.437 82.0156V82.3086C720.437 82.6553 720.483 82.9775 720.576 83.2754C720.674 83.5684 720.815 83.8247 721.001 84.0444C721.187 84.2642 721.411 84.4375 721.675 84.5645C721.938 84.6865 722.239 84.7476 722.576 84.7476C723 84.7476 723.379 84.6621 723.711 84.4912C724.043 84.3203 724.331 84.0786 724.575 83.7661L725.505 84.667C725.334 84.916 725.112 85.1553 724.839 85.3848C724.565 85.6094 724.231 85.7925 723.835 85.9341C723.445 86.0757 722.991 86.1465 722.473 86.1465ZM727.029 74.75H728.794V84.3081L728.625 86H727.029V74.75ZM733.965 81.9644V82.1182C733.965 82.7041 733.899 83.2437 733.767 83.7368C733.64 84.2251 733.445 84.6499 733.181 85.0112C732.922 85.3726 732.6 85.6533 732.214 85.8535C731.833 86.0488 731.392 86.1465 730.889 86.1465C730.396 86.1465 729.966 86.0537 729.6 85.8682C729.233 85.6826 728.926 85.4189 728.677 85.0771C728.433 84.7354 728.235 84.3276 728.083 83.854C727.932 83.3804 727.825 82.8579 727.761 82.2866V81.7959C727.825 81.2197 727.932 80.6973 728.083 80.2285C728.235 79.7549 728.433 79.3472 728.677 79.0054C728.926 78.6587 729.231 78.3926 729.592 78.207C729.958 78.0215 730.386 77.9287 730.874 77.9287C731.382 77.9287 731.829 78.0264 732.214 78.2217C732.605 78.417 732.93 78.6953 733.188 79.0566C733.447 79.4131 733.64 79.8379 733.767 80.3311C733.899 80.8242 733.965 81.3687 733.965 81.9644ZM732.2 82.1182V81.9644C732.2 81.6079 732.17 81.2734 732.112 80.9609C732.053 80.6436 731.956 80.3652 731.819 80.126C731.687 79.8867 731.506 79.6987 731.277 79.562C731.052 79.4204 730.771 79.3496 730.435 79.3496C730.122 79.3496 729.854 79.4033 729.629 79.5107C729.404 79.6182 729.216 79.7646 729.065 79.9502C728.914 80.1357 728.794 80.3506 728.706 80.5947C728.623 80.8389 728.567 81.1025 728.538 81.3857V82.7114C728.582 83.0776 728.674 83.4146 728.816 83.7222C728.962 84.0249 729.167 84.269 729.431 84.4546C729.695 84.6353 730.034 84.7256 730.449 84.7256C730.776 84.7256 731.052 84.6597 731.277 84.5278C731.501 84.396 731.68 84.2129 731.812 83.9785C731.948 83.7393 732.046 83.4609 732.104 83.1436C732.168 82.8262 732.2 82.4844 732.2 82.1182ZM737.231 79.5986V89.0469H735.466V78.0752H737.092L737.231 79.5986ZM742.395 81.9644V82.1182C742.395 82.6943 742.327 83.229 742.19 83.7222C742.058 84.2104 741.86 84.6377 741.597 85.0039C741.338 85.3652 741.018 85.646 740.637 85.8462C740.256 86.0464 739.817 86.1465 739.319 86.1465C738.826 86.1465 738.394 86.0562 738.022 85.8755C737.656 85.6899 737.346 85.4287 737.092 85.0918C736.838 84.7549 736.633 84.3594 736.477 83.9053C736.326 83.4463 736.218 82.9434 736.155 82.3965V81.8032C736.218 81.2222 736.326 80.6948 736.477 80.2212C736.633 79.7476 736.838 79.3398 737.092 78.998C737.346 78.6562 737.656 78.3926 738.022 78.207C738.389 78.0215 738.816 77.9287 739.304 77.9287C739.802 77.9287 740.244 78.0264 740.63 78.2217C741.016 78.4121 741.34 78.6855 741.604 79.042C741.868 79.3936 742.065 79.8184 742.197 80.3164C742.329 80.8096 742.395 81.3589 742.395 81.9644ZM740.63 82.1182V81.9644C740.63 81.5981 740.596 81.2588 740.527 80.9463C740.459 80.6289 740.352 80.3506 740.205 80.1113C740.059 79.8721 739.871 79.6865 739.641 79.5547C739.417 79.418 739.146 79.3496 738.828 79.3496C738.516 79.3496 738.247 79.4033 738.022 79.5107C737.798 79.6133 737.61 79.7573 737.458 79.9429C737.307 80.1284 737.19 80.3457 737.107 80.5947C737.024 80.8389 736.965 81.105 736.931 81.3931V82.814C736.99 83.1655 737.09 83.4878 737.231 83.7808C737.373 84.0737 737.573 84.3081 737.832 84.4839C738.096 84.6548 738.433 84.7402 738.843 84.7402C739.16 84.7402 739.431 84.6719 739.656 84.5352C739.88 84.3984 740.063 84.2104 740.205 83.9712C740.352 83.7271 740.459 83.4463 740.527 83.1289C740.596 82.8115 740.63 82.4746 740.63 82.1182Z" fill="#505050"/>
<path d="M758.801 81.4658H756.989V80.3232H758.801C759.081 80.3232 759.308 80.2777 759.484 80.1865C759.66 80.0921 759.789 79.9619 759.87 79.7959C759.951 79.6299 759.992 79.4427 759.992 79.2344C759.992 79.0228 759.951 78.8258 759.87 78.6436C759.789 78.4613 759.66 78.3148 759.484 78.2041C759.308 78.0934 759.081 78.0381 758.801 78.0381H757.497V84H756.032V76.8906H758.801C759.357 76.8906 759.834 76.9915 760.231 77.1934C760.632 77.3919 760.938 77.667 761.149 78.0186C761.361 78.3701 761.467 78.7721 761.467 79.2246C761.467 79.6836 761.361 80.0807 761.149 80.416C760.938 80.7513 760.632 81.0101 760.231 81.1924C759.834 81.3747 759.357 81.4658 758.801 81.4658ZM763.596 79.8691V84H762.189V78.7168H763.513L763.596 79.8691ZM765.188 78.6826L765.163 79.9863C765.095 79.9766 765.012 79.9684 764.914 79.9619C764.82 79.9521 764.733 79.9473 764.655 79.9473C764.457 79.9473 764.284 79.9733 764.138 80.0254C763.994 80.0742 763.874 80.1475 763.776 80.2451C763.682 80.3428 763.61 80.4616 763.562 80.6016C763.516 80.7415 763.49 80.901 763.483 81.0801L763.2 80.9922C763.2 80.6504 763.234 80.3363 763.303 80.0498C763.371 79.7601 763.47 79.5078 763.601 79.293C763.734 79.0781 763.897 78.9121 764.089 78.7949C764.281 78.6777 764.501 78.6191 764.748 78.6191C764.826 78.6191 764.906 78.6257 764.987 78.6387C765.069 78.6484 765.135 78.6631 765.188 78.6826ZM765.28 81.4121V81.3096C765.28 80.9222 765.336 80.5658 765.446 80.2402C765.557 79.9115 765.718 79.6266 765.93 79.3857C766.141 79.1449 766.402 78.9577 766.711 78.8242C767.02 78.6875 767.375 78.6191 767.776 78.6191C768.176 78.6191 768.532 78.6875 768.845 78.8242C769.157 78.9577 769.419 79.1449 769.631 79.3857C769.846 79.6266 770.009 79.9115 770.119 80.2402C770.23 80.5658 770.285 80.9222 770.285 81.3096V81.4121C770.285 81.7962 770.23 82.1527 770.119 82.4814C770.009 82.807 769.846 83.0918 769.631 83.3359C769.419 83.5768 769.159 83.764 768.85 83.8975C768.541 84.0309 768.186 84.0977 767.785 84.0977C767.385 84.0977 767.029 84.0309 766.716 83.8975C766.407 83.764 766.145 83.5768 765.93 83.3359C765.718 83.0918 765.557 82.807 765.446 82.4814C765.336 82.1527 765.28 81.7962 765.28 81.4121ZM766.687 81.3096V81.4121C766.687 81.6335 766.706 81.8402 766.745 82.0322C766.784 82.2243 766.846 82.3936 766.931 82.54C767.019 82.6833 767.133 82.7956 767.273 82.877C767.413 82.9583 767.584 82.999 767.785 82.999C767.981 82.999 768.148 82.9583 768.288 82.877C768.428 82.7956 768.541 82.6833 768.625 82.54C768.71 82.3936 768.772 82.2243 768.811 82.0322C768.853 81.8402 768.874 81.6335 768.874 81.4121V81.3096C768.874 81.0947 768.853 80.8929 768.811 80.7041C768.772 80.512 768.708 80.3428 768.62 80.1963C768.536 80.0465 768.423 79.9294 768.283 79.8447C768.143 79.7601 767.974 79.7178 767.776 79.7178C767.577 79.7178 767.408 79.7601 767.268 79.8447C767.131 79.9294 767.019 80.0465 766.931 80.1963C766.846 80.3428 766.784 80.512 766.745 80.7041C766.706 80.8929 766.687 81.0947 766.687 81.3096Z" fill="#1A1A1A"/>
<rect x="747.5" y="73.5" width="31" height="15" rx="7.5" stroke="#1A1A1A"/>
<rect width="48" height="80" transform="translate(51 41)" fill="url(#paint0_linear_3378_49379)"/>
<path d="M78.35 88C78.0656 88 77.8141 87.9062 77.5953 87.7188L71.2953 81.7188C71.0984 81.5104 71 81.2708 71 81C71 80.7292 71.0984 80.4896 71.2953 80.2812L77.5953 74.2812C77.8141 74.0938 78.0656 74 78.35 74C78.6344 74 78.8859 74.0938 79.1047 74.2812C79.3016 74.4896 79.4 74.7292 79.4 75C79.4 75.2708 79.3016 75.5104 79.1047 75.7188L73.5266 81L79.1047 86.2812C79.3016 86.4896 79.4 86.7292 79.4 87C79.4 87.2708 79.3016 87.5104 79.1047 87.7188C78.8859 87.9062 78.6344 88 78.35 88Z" fill="#AAAAAA"/>
<rect width="48" height="80" transform="translate(731 41)" fill="url(#paint1_linear_3378_49379)"/>
<path d="M752.05 88C751.766 88 751.514 87.9062 751.295 87.7188C751.098 87.5104 751 87.2708 751 87C751 86.7292 751.098 86.4896 751.295 86.2812L756.873 81L751.295 75.7188C751.098 75.5104 751 75.2708 751 75C751 74.7292 751.098 74.4896 751.295 74.2812C751.514 74.0938 751.766 74 752.05 74C752.334 74 752.586 74.0938 752.805 74.2812L759.105 80.2812C759.302 80.4896 759.4 80.7292 759.4 81C759.4 81.2708 759.302 81.5104 759.105 81.7188L752.805 87.7188C752.586 87.9062 752.334 88 752.05 88Z" fill="#AAAAAA"/>
</g>
<path d="M51 41H779H51ZM779 122H51V120H779V122ZM51 121V41V121ZM779 41V121V41Z" fill="#E6E6E6" mask="url(#path-3-inside-1_3378_49379)"/>
</g>
<defs>
<filter id="filter0_ddd_3378_49379" x="-30" y="-4" width="890" height="337" filterUnits="userSpaceOnUse" color-interpolation-filters="sRGB">
<feFlood flood-opacity="0" result="BackgroundImageFix"/>
<feColorMatrix in="SourceAlpha" type="matrix" values="0 0 0 0 0 0 0 0 0 0 0 0 0 0 0 0 0 0 127 0" result="hardAlpha"/>
<feOffset dy="2.39404"/>
<feGaussianBlur stdDeviation="2.66004"/>
<feColorMatrix type="matrix" values="0 0 0 0 0 0 0 0 0 0 0 0 0 0 0 0 0 0 0.0201946 0"/>
<feBlend mode="normal" in2="BackgroundImageFix" result="effect1_dropShadow_3378_49379"/>
<feColorMatrix in="SourceAlpha" type="matrix" values="0 0 0 0 0 0 0 0 0 0 0 0 0 0 0 0 0 0 127 0" result="hardAlpha"/>
<feOffset dy="8.04107"/>
<feGaussianBlur stdDeviation="8.93452"/>
<feColorMatrix type="matrix" values="0 0 0 0 0 0 0 0 0 0 0 0 0 0 0 0 0 0 0.0298054 0"/>
<feBlend mode="normal" in2="effect1_dropShadow_3378_49379" result="effect2_dropShadow_3378_49379"/>
<feColorMatrix in="SourceAlpha" type="matrix" values="0 0 0 0 0 0 0 0 0 0 0 0 0 0 0 0 0 0 127 0" result="hardAlpha"/>
<feOffset dy="36"/>
<feGaussianBlur stdDeviation="40"/>
<feColorMatrix type="matrix" values="0 0 0 0 0 0 0 0 0 0 0 0 0 0 0 0 0 0 0.05 0"/>
<feBlend mode="normal" in2="effect2_dropShadow_3378_49379" result="effect3_dropShadow_3378_49379"/>
<feBlend mode="normal" in="SourceGraphic" in2="effect3_dropShadow_3378_49379" result="shape"/>
</filter>
<linearGradient id="paint0_linear_3378_49379" x1="-9.65157e-08" y1="4.44445" x2="48" y2="4.44445" gradientUnits="userSpaceOnUse">
<stop stop-color="white"/>
<stop offset="0.716264" stop-color="white"/>
<stop offset="1" stop-color="#F8F8F8" stop-opacity="0"/>
</linearGradient>
<linearGradient id="paint1_linear_3378_49379" x1="48" y1="37.2222" x2="-7.11804e-07" y2="37.2222" gradientUnits="userSpaceOnUse">
<stop stop-color="white"/>
<stop offset="0.716264" stop-color="white"/>
<stop offset="1" stop-color="#F8F8F8" stop-opacity="0"/>
</linearGradient>
<clipPath id="clip0_3378_49379">
<rect width="828" height="257" fill="white"/>
</clipPath>
<clipPath id="clip1_3378_49379">
<path d="M51 45C51 42.7909 52.7909 41 55 41H775C777.209 41 779 42.7909 779 45V121H51V45Z" fill="white"/>
</clipPath>
</defs>
</svg>
