<svg width="828" height="257" viewBox="0 0 828 257" fill="none" xmlns="http://www.w3.org/2000/svg">
<g clip-path="url(#clip0_3378_49348)">
<rect width="828" height="257" fill="#F8F8F8"/>
<g filter="url(#filter0_ddd_3378_49348)">
<rect x="49" y="40" width="730" height="177" rx="4" fill="white"/>
<rect x="49.5" y="40.5" width="729" height="176" rx="3.5" stroke="#E6E6E6"/>
</g>
<mask id="path-3-inside-1_3378_49348" fill="white">
<path d="M50 45C50 42.7909 51.7909 41 54 41H774C776.209 41 778 42.7909 778 45V121H50V45Z"/>
</mask>
<path d="M50 45C50 42.7909 51.7909 41 54 41H774C776.209 41 778 42.7909 778 45V121H50V45Z" fill="white"/>
<mask id="path-5-inside-2_3378_49348" fill="white">
<path d="M50 41H237V121H50V41Z"/>
</mask>
<path d="M50 41H237V121H50V41Z" fill="white"/>
<path d="M71.1638 77.3571C70.4377 77.3571 69.849 77.9328 69.849 78.6429C69.849 79.3529 70.4377 79.9286 71.1638 79.9286C71.89 79.9286 72.4786 79.3529 72.4786 78.6429C72.4786 77.9328 71.8897 77.3571 71.1638 77.3571ZM79.2472 75H68.7287C67.785 75 67 75.7674 67 76.7143V85.2857C67 86.2326 67.7848 87 68.7284 87H79.2469C80.2152 87 81 86.2326 81 85.2857V76.7143C81.0002 75.7674 80.2388 75 79.2472 75ZM79.6854 85.1062L75.9382 80.1268C75.8697 80.0036 75.7136 79.9286 75.5465 79.9286C75.3791 79.9286 75.2227 80.0027 75.1299 80.1262L72.2099 83.986L71.1939 82.7512C71.0997 82.6366 70.9492 82.5688 70.7894 82.5688C70.6293 82.5688 70.479 82.6366 70.3845 82.7512L68.3159 85.264C68.3159 85.2632 68.3159 85.2648 68.3159 85.264L68.3148 76.7143C68.3148 76.478 68.5114 76.2857 68.7531 76.2857H79.2715C79.5132 76.2857 79.7098 76.478 79.7098 76.7143V85.1062H79.6854Z" fill="#0059FF"/>
<path d="M89.0469 75.3359V86H87.2085V75.3359H89.0469ZM92.9214 79.6865V86H91.1562V78.0752H92.8188L92.9214 79.6865ZM92.6357 81.7446L92.0352 81.7373C92.0352 81.1904 92.1035 80.6851 92.2402 80.2212C92.377 79.7573 92.5771 79.3545 92.8408 79.0127C93.1045 78.666 93.4316 78.3999 93.8223 78.2144C94.2178 78.0239 94.6743 77.9287 95.1919 77.9287C95.5532 77.9287 95.8828 77.9824 96.1807 78.0898C96.4834 78.1924 96.7446 78.356 96.9644 78.5806C97.189 78.8052 97.3599 79.0933 97.4771 79.4448C97.5991 79.7964 97.6602 80.2212 97.6602 80.7192V86H95.895V80.873C95.895 80.4873 95.8364 80.1846 95.7192 79.9648C95.6069 79.7451 95.4434 79.5889 95.2285 79.4961C95.0186 79.3984 94.7671 79.3496 94.4741 79.3496C94.1421 79.3496 93.8589 79.4131 93.6245 79.54C93.395 79.667 93.207 79.8403 93.0605 80.0601C92.9141 80.2798 92.8066 80.5337 92.7383 80.8218C92.6699 81.1099 92.6357 81.4175 92.6357 81.7446ZM97.5503 81.2759L96.7227 81.459C96.7227 80.9805 96.7886 80.5288 96.9204 80.104C97.0571 79.6743 97.2549 79.2983 97.5137 78.9761C97.7773 78.6489 98.1021 78.3926 98.4878 78.207C98.8735 78.0215 99.3154 77.9287 99.8135 77.9287C100.219 77.9287 100.58 77.9849 100.897 78.0972C101.22 78.2046 101.493 78.3755 101.718 78.6099C101.942 78.8442 102.113 79.1494 102.23 79.5254C102.348 79.8965 102.406 80.3457 102.406 80.873V86H100.634V80.8657C100.634 80.4653 100.575 80.1553 100.458 79.9355C100.346 79.7158 100.185 79.5645 99.9746 79.4814C99.7646 79.3936 99.5132 79.3496 99.2202 79.3496C98.9468 79.3496 98.7051 79.4009 98.4951 79.5034C98.29 79.6011 98.1167 79.7402 97.9751 79.9209C97.8335 80.0967 97.7261 80.2993 97.6528 80.5288C97.5845 80.7583 97.5503 81.0073 97.5503 81.2759ZM108.69 84.4106V80.6313C108.69 80.3481 108.639 80.104 108.537 79.8989C108.434 79.6938 108.278 79.5352 108.068 79.4229C107.863 79.3105 107.604 79.2544 107.292 79.2544C107.003 79.2544 106.754 79.3032 106.544 79.4009C106.334 79.4985 106.171 79.6304 106.054 79.7964C105.937 79.9624 105.878 80.1504 105.878 80.3604H104.12C104.12 80.0479 104.196 79.7451 104.347 79.4521C104.499 79.1592 104.718 78.8979 105.006 78.6685C105.294 78.439 105.639 78.2583 106.039 78.1265C106.439 77.9946 106.889 77.9287 107.387 77.9287C107.982 77.9287 108.51 78.0288 108.969 78.229C109.433 78.4292 109.796 78.7319 110.06 79.1372C110.329 79.5376 110.463 80.0405 110.463 80.646V84.1689C110.463 84.5303 110.487 84.855 110.536 85.1431C110.59 85.4263 110.666 85.6729 110.763 85.8828V86H108.954C108.871 85.8096 108.805 85.5679 108.756 85.2749C108.712 84.9771 108.69 84.689 108.69 84.4106ZM108.947 81.1807L108.961 82.272H107.694C107.367 82.272 107.079 82.3037 106.83 82.3672C106.581 82.4258 106.374 82.5137 106.208 82.6309C106.042 82.748 105.917 82.8896 105.834 83.0557C105.751 83.2217 105.709 83.4097 105.709 83.6196C105.709 83.8296 105.758 84.0225 105.856 84.1982C105.954 84.3691 106.095 84.5034 106.281 84.6011C106.471 84.6987 106.701 84.7476 106.969 84.7476C107.331 84.7476 107.646 84.6743 107.914 84.5278C108.188 84.3765 108.402 84.1934 108.559 83.9785C108.715 83.7588 108.798 83.5513 108.808 83.356L109.379 84.1396C109.32 84.3398 109.22 84.5547 109.079 84.7842C108.937 85.0137 108.751 85.2334 108.522 85.4434C108.297 85.6484 108.026 85.8169 107.709 85.9487C107.396 86.0806 107.035 86.1465 106.625 86.1465C106.107 86.1465 105.646 86.0439 105.241 85.8389C104.835 85.6289 104.518 85.3481 104.289 84.9966C104.059 84.6401 103.944 84.2373 103.944 83.7881C103.944 83.3682 104.022 82.9971 104.179 82.6748C104.34 82.3477 104.574 82.0742 104.882 81.8545C105.194 81.6348 105.575 81.4688 106.024 81.3564C106.474 81.2393 106.986 81.1807 107.562 81.1807H108.947ZM117.384 78.0752H118.988V85.7803C118.988 86.4932 118.837 87.0986 118.534 87.5967C118.231 88.0947 117.809 88.4731 117.267 88.7319C116.725 88.9956 116.098 89.1274 115.385 89.1274C115.082 89.1274 114.745 89.0835 114.374 88.9956C114.008 88.9077 113.651 88.7661 113.305 88.5708C112.963 88.3804 112.677 88.1289 112.448 87.8164L113.275 86.7764C113.559 87.1133 113.871 87.3599 114.213 87.5161C114.555 87.6724 114.914 87.7505 115.29 87.7505C115.695 87.7505 116.039 87.6748 116.322 87.5234C116.61 87.377 116.833 87.1597 116.989 86.8716C117.145 86.5835 117.223 86.2319 117.223 85.8169V79.8696L117.384 78.0752ZM112.001 82.1255V81.9717C112.001 81.3711 112.074 80.8242 112.221 80.3311C112.367 79.833 112.577 79.4058 112.851 79.0493C113.124 78.688 113.456 78.4121 113.847 78.2217C114.237 78.0264 114.679 77.9287 115.172 77.9287C115.685 77.9287 116.122 78.0215 116.483 78.207C116.85 78.3926 117.155 78.6587 117.399 79.0054C117.643 79.3472 117.833 79.7573 117.97 80.2358C118.112 80.7095 118.217 81.2368 118.285 81.8179V82.3086C118.222 82.875 118.114 83.3926 117.963 83.8613C117.812 84.3301 117.611 84.7354 117.362 85.0771C117.113 85.4189 116.806 85.6826 116.439 85.8682C116.078 86.0537 115.651 86.1465 115.158 86.1465C114.674 86.1465 114.237 86.0464 113.847 85.8462C113.461 85.646 113.129 85.3652 112.851 85.0039C112.577 84.6426 112.367 84.2178 112.221 83.7295C112.074 83.2363 112.001 82.7017 112.001 82.1255ZM113.766 81.9717V82.1255C113.766 82.4868 113.8 82.8237 113.869 83.1362C113.942 83.4487 114.052 83.7246 114.198 83.9639C114.35 84.1982 114.54 84.3838 114.77 84.5205C115.004 84.6523 115.28 84.7183 115.597 84.7183C116.012 84.7183 116.352 84.6304 116.615 84.4546C116.884 84.2788 117.089 84.042 117.23 83.7441C117.377 83.4414 117.479 83.1045 117.538 82.7334V81.4077C117.509 81.1196 117.448 80.8511 117.355 80.6021C117.267 80.353 117.147 80.1357 116.996 79.9502C116.845 79.7598 116.654 79.6133 116.425 79.5107C116.195 79.4033 115.924 79.3496 115.612 79.3496C115.294 79.3496 115.019 79.418 114.784 79.5547C114.55 79.6914 114.357 79.8794 114.206 80.1187C114.059 80.3579 113.949 80.6362 113.876 80.9536C113.803 81.271 113.766 81.6104 113.766 81.9717ZM124.313 86.1465C123.727 86.1465 123.197 86.0513 122.724 85.8608C122.255 85.6655 121.854 85.3945 121.522 85.0479C121.195 84.7012 120.944 84.2935 120.768 83.8247C120.592 83.356 120.504 82.8506 120.504 82.3086V82.0156C120.504 81.3955 120.595 80.834 120.775 80.3311C120.956 79.8281 121.208 79.3984 121.53 79.042C121.852 78.6807 122.233 78.4048 122.672 78.2144C123.112 78.0239 123.588 77.9287 124.101 77.9287C124.667 77.9287 125.163 78.0239 125.587 78.2144C126.012 78.4048 126.364 78.6733 126.642 79.02C126.925 79.3618 127.135 79.7695 127.272 80.2432C127.414 80.7168 127.484 81.2393 127.484 81.8105V82.5649H121.361V81.2979H125.741V81.1587C125.731 80.8413 125.668 80.5435 125.551 80.2651C125.438 79.9868 125.265 79.7622 125.031 79.5913C124.796 79.4204 124.484 79.335 124.093 79.335C123.8 79.335 123.539 79.3984 123.31 79.5254C123.085 79.6475 122.897 79.8257 122.746 80.0601C122.594 80.2944 122.477 80.5776 122.394 80.9097C122.316 81.2368 122.277 81.6055 122.277 82.0156V82.3086C122.277 82.6553 122.323 82.9775 122.416 83.2754C122.514 83.5684 122.655 83.8247 122.841 84.0444C123.026 84.2642 123.251 84.4375 123.515 84.5645C123.778 84.6865 124.079 84.7476 124.416 84.7476C124.84 84.7476 125.219 84.6621 125.551 84.4912C125.883 84.3203 126.171 84.0786 126.415 83.7661L127.345 84.667C127.174 84.916 126.952 85.1553 126.679 85.3848C126.405 85.6094 126.071 85.7925 125.675 85.9341C125.285 86.0757 124.831 86.1465 124.313 86.1465ZM139.071 82.5283H140.902C140.844 83.2266 140.648 83.8491 140.316 84.396C139.984 84.938 139.518 85.3652 138.917 85.6777C138.317 85.9902 137.587 86.1465 136.728 86.1465C136.068 86.1465 135.475 86.0293 134.948 85.7949C134.42 85.5557 133.969 85.2188 133.593 84.7842C133.217 84.3447 132.929 83.8149 132.729 83.1948C132.533 82.5747 132.436 81.8813 132.436 81.1147V80.2285C132.436 79.4619 132.536 78.7686 132.736 78.1484C132.941 77.5283 133.234 76.9985 133.615 76.5591C133.996 76.1147 134.452 75.7754 134.984 75.541C135.521 75.3066 136.125 75.1895 136.793 75.1895C137.643 75.1895 138.361 75.3457 138.947 75.6582C139.533 75.9707 139.987 76.4028 140.309 76.9546C140.636 77.5063 140.836 78.1387 140.91 78.8516H139.079C139.03 78.3926 138.922 77.9995 138.756 77.6724C138.595 77.3452 138.356 77.0962 138.039 76.9253C137.721 76.7495 137.306 76.6616 136.793 76.6616C136.374 76.6616 136.007 76.7397 135.695 76.896C135.382 77.0522 135.121 77.2817 134.911 77.5845C134.701 77.8872 134.542 78.2607 134.435 78.7051C134.333 79.1445 134.281 79.6475 134.281 80.2139V81.1147C134.281 81.6519 134.328 82.1401 134.42 82.5796C134.518 83.0142 134.665 83.3877 134.86 83.7002C135.06 84.0127 135.314 84.2544 135.622 84.4253C135.929 84.5962 136.298 84.6816 136.728 84.6816C137.25 84.6816 137.672 84.5986 137.995 84.4326C138.322 84.2666 138.568 84.0249 138.734 83.7075C138.905 83.3853 139.018 82.9922 139.071 82.5283ZM142.06 82.1255V81.957C142.06 81.3857 142.143 80.856 142.309 80.3677C142.475 79.8745 142.714 79.4473 143.026 79.0859C143.344 78.7197 143.729 78.4365 144.184 78.2363C144.643 78.0312 145.16 77.9287 145.736 77.9287C146.317 77.9287 146.835 78.0312 147.289 78.2363C147.748 78.4365 148.136 78.7197 148.454 79.0859C148.771 79.4473 149.013 79.8745 149.179 80.3677C149.345 80.856 149.428 81.3857 149.428 81.957V82.1255C149.428 82.6968 149.345 83.2266 149.179 83.7148C149.013 84.2031 148.771 84.6304 148.454 84.9966C148.136 85.3579 147.75 85.6411 147.296 85.8462C146.842 86.0464 146.327 86.1465 145.751 86.1465C145.17 86.1465 144.65 86.0464 144.191 85.8462C143.737 85.6411 143.351 85.3579 143.034 84.9966C142.716 84.6304 142.475 84.2031 142.309 83.7148C142.143 83.2266 142.06 82.6968 142.06 82.1255ZM143.825 81.957V82.1255C143.825 82.4819 143.861 82.8188 143.935 83.1362C144.008 83.4536 144.123 83.7319 144.279 83.9712C144.435 84.2104 144.635 84.3984 144.879 84.5352C145.124 84.6719 145.414 84.7402 145.751 84.7402C146.078 84.7402 146.361 84.6719 146.601 84.5352C146.845 84.3984 147.045 84.2104 147.201 83.9712C147.357 83.7319 147.472 83.4536 147.545 83.1362C147.624 82.8188 147.663 82.4819 147.663 82.1255V81.957C147.663 81.6055 147.624 81.2734 147.545 80.9609C147.472 80.6436 147.355 80.3628 147.194 80.1187C147.038 79.8745 146.837 79.6841 146.593 79.5474C146.354 79.4058 146.068 79.335 145.736 79.335C145.404 79.335 145.116 79.4058 144.872 79.5474C144.633 79.6841 144.435 79.8745 144.279 80.1187C144.123 80.3628 144.008 80.6436 143.935 80.9609C143.861 81.2734 143.825 81.6055 143.825 81.957ZM152.672 79.6865V86H150.907V78.0752H152.57L152.672 79.6865ZM152.387 81.7446L151.786 81.7373C151.786 81.1904 151.854 80.6851 151.991 80.2212C152.128 79.7573 152.328 79.3545 152.592 79.0127C152.855 78.666 153.183 78.3999 153.573 78.2144C153.969 78.0239 154.425 77.9287 154.943 77.9287C155.304 77.9287 155.634 77.9824 155.932 78.0898C156.234 78.1924 156.496 78.356 156.715 78.5806C156.94 78.8052 157.111 79.0933 157.228 79.4448C157.35 79.7964 157.411 80.2212 157.411 80.7192V86H155.646V80.873C155.646 80.4873 155.587 80.1846 155.47 79.9648C155.358 79.7451 155.194 79.5889 154.979 79.4961C154.77 79.3984 154.518 79.3496 154.225 79.3496C153.893 79.3496 153.61 79.4131 153.375 79.54C153.146 79.667 152.958 79.8403 152.812 80.0601C152.665 80.2798 152.558 80.5337 152.489 80.8218C152.421 81.1099 152.387 81.4175 152.387 81.7446ZM157.301 81.2759L156.474 81.459C156.474 80.9805 156.54 80.5288 156.671 80.104C156.808 79.6743 157.006 79.2983 157.265 78.9761C157.528 78.6489 157.853 78.3926 158.239 78.207C158.625 78.0215 159.066 77.9287 159.564 77.9287C159.97 77.9287 160.331 77.9849 160.648 78.0972C160.971 78.2046 161.244 78.3755 161.469 78.6099C161.693 78.8442 161.864 79.1494 161.981 79.5254C162.099 79.8965 162.157 80.3457 162.157 80.873V86H160.385V80.8657C160.385 80.4653 160.326 80.1553 160.209 79.9355C160.097 79.7158 159.936 79.5645 159.726 79.4814C159.516 79.3936 159.264 79.3496 158.971 79.3496C158.698 79.3496 158.456 79.4009 158.246 79.5034C158.041 79.6011 157.868 79.7402 157.726 79.9209C157.584 80.0967 157.477 80.2993 157.404 80.5288C157.335 80.7583 157.301 81.0073 157.301 81.2759ZM165.746 79.5986V89.0469H163.981V78.0752H165.607L165.746 79.5986ZM170.91 81.9644V82.1182C170.91 82.6943 170.841 83.229 170.705 83.7222C170.573 84.2104 170.375 84.6377 170.111 85.0039C169.853 85.3652 169.533 85.646 169.152 85.8462C168.771 86.0464 168.332 86.1465 167.833 86.1465C167.34 86.1465 166.908 86.0562 166.537 85.8755C166.171 85.6899 165.861 85.4287 165.607 85.0918C165.353 84.7549 165.148 84.3594 164.992 83.9053C164.84 83.4463 164.733 82.9434 164.669 82.3965V81.8032C164.733 81.2222 164.84 80.6948 164.992 80.2212C165.148 79.7476 165.353 79.3398 165.607 78.998C165.861 78.6562 166.171 78.3926 166.537 78.207C166.903 78.0215 167.331 77.9287 167.819 77.9287C168.317 77.9287 168.759 78.0264 169.145 78.2217C169.53 78.4121 169.855 78.6855 170.119 79.042C170.382 79.3936 170.58 79.8184 170.712 80.3164C170.844 80.8096 170.91 81.3589 170.91 81.9644ZM169.145 82.1182V81.9644C169.145 81.5981 169.11 81.2588 169.042 80.9463C168.974 80.6289 168.866 80.3506 168.72 80.1113C168.573 79.8721 168.385 79.6865 168.156 79.5547C167.931 79.418 167.66 79.3496 167.343 79.3496C167.03 79.3496 166.762 79.4033 166.537 79.5107C166.312 79.6133 166.125 79.7573 165.973 79.9429C165.822 80.1284 165.705 80.3457 165.622 80.5947C165.539 80.8389 165.48 81.105 165.446 81.3931V82.814C165.504 83.1655 165.604 83.4878 165.746 83.7808C165.888 84.0737 166.088 84.3081 166.347 84.4839C166.61 84.6548 166.947 84.7402 167.357 84.7402C167.675 84.7402 167.946 84.6719 168.17 84.5352C168.395 84.3984 168.578 84.2104 168.72 83.9712C168.866 83.7271 168.974 83.4463 169.042 83.1289C169.11 82.8115 169.145 82.4746 169.145 82.1182ZM174.184 79.584V86H172.418V78.0752H174.103L174.184 79.584ZM176.608 78.0239L176.593 79.6646C176.486 79.645 176.369 79.6304 176.242 79.6206C176.12 79.6108 175.998 79.606 175.875 79.606C175.573 79.606 175.307 79.6499 175.077 79.7378C174.848 79.8208 174.655 79.9429 174.499 80.104C174.347 80.2603 174.23 80.4507 174.147 80.6753C174.064 80.8999 174.015 81.1514 174 81.4297L173.598 81.459C173.598 80.9609 173.646 80.4995 173.744 80.0747C173.842 79.6499 173.988 79.2764 174.184 78.9541C174.384 78.6318 174.633 78.3804 174.931 78.1997C175.233 78.019 175.583 77.9287 175.978 77.9287C176.085 77.9287 176.2 77.9385 176.322 77.958C176.449 77.9775 176.544 77.9995 176.608 78.0239ZM181.061 86.1465C180.475 86.1465 179.945 86.0513 179.472 85.8608C179.003 85.6655 178.603 85.3945 178.271 85.0479C177.943 84.7012 177.692 84.2935 177.516 83.8247C177.34 83.356 177.252 82.8506 177.252 82.3086V82.0156C177.252 81.3955 177.343 80.834 177.523 80.3311C177.704 79.8281 177.956 79.3984 178.278 79.042C178.6 78.6807 178.981 78.4048 179.42 78.2144C179.86 78.0239 180.336 77.9287 180.849 77.9287C181.415 77.9287 181.911 78.0239 182.335 78.2144C182.76 78.4048 183.112 78.6733 183.39 79.02C183.673 79.3618 183.883 79.7695 184.02 80.2432C184.162 80.7168 184.232 81.2393 184.232 81.8105V82.5649H178.109V81.2979H182.489V81.1587C182.479 80.8413 182.416 80.5435 182.299 80.2651C182.187 79.9868 182.013 79.7622 181.779 79.5913C181.544 79.4204 181.232 79.335 180.841 79.335C180.548 79.335 180.287 79.3984 180.058 79.5254C179.833 79.6475 179.645 79.8257 179.494 80.0601C179.342 80.2944 179.225 80.5776 179.142 80.9097C179.064 81.2368 179.025 81.6055 179.025 82.0156V82.3086C179.025 82.6553 179.071 82.9775 179.164 83.2754C179.262 83.5684 179.403 83.8247 179.589 84.0444C179.774 84.2642 179.999 84.4375 180.263 84.5645C180.526 84.6865 180.827 84.7476 181.164 84.7476C181.588 84.7476 181.967 84.6621 182.299 84.4912C182.631 84.3203 182.919 84.0786 183.163 83.7661L184.093 84.667C183.922 84.916 183.7 85.1553 183.427 85.3848C183.153 85.6094 182.819 85.7925 182.423 85.9341C182.033 86.0757 181.579 86.1465 181.061 86.1465ZM190.055 83.854C190.055 83.6782 190.011 83.5195 189.923 83.3779C189.835 83.2314 189.667 83.0996 189.418 82.9824C189.174 82.8652 188.812 82.7578 188.334 82.6602C187.914 82.5674 187.528 82.4575 187.177 82.3306C186.83 82.1987 186.532 82.04 186.283 81.8545C186.034 81.6689 185.841 81.4492 185.705 81.1953C185.568 80.9414 185.5 80.6484 185.5 80.3164C185.5 79.9941 185.57 79.689 185.712 79.4009C185.854 79.1128 186.056 78.8589 186.32 78.6392C186.583 78.4194 186.903 78.2461 187.279 78.1191C187.66 77.9922 188.085 77.9287 188.554 77.9287C189.218 77.9287 189.787 78.041 190.26 78.2656C190.739 78.4854 191.105 78.7856 191.359 79.1665C191.613 79.5425 191.74 79.9673 191.74 80.4409H189.975C189.975 80.231 189.921 80.0356 189.813 79.855C189.711 79.6694 189.555 79.5205 189.345 79.4082C189.135 79.291 188.871 79.2324 188.554 79.2324C188.251 79.2324 188 79.2812 187.799 79.3789C187.604 79.4717 187.458 79.5938 187.36 79.7451C187.267 79.8965 187.221 80.0625 187.221 80.2432C187.221 80.375 187.245 80.4946 187.294 80.6021C187.348 80.7046 187.436 80.7998 187.558 80.8877C187.68 80.9707 187.846 81.0488 188.056 81.1221C188.271 81.1953 188.539 81.2661 188.861 81.3345C189.467 81.4614 189.987 81.625 190.421 81.8252C190.861 82.0205 191.198 82.2744 191.432 82.5869C191.667 82.8945 191.784 83.2852 191.784 83.7588C191.784 84.1104 191.708 84.4326 191.557 84.7256C191.41 85.0137 191.195 85.2651 190.912 85.48C190.629 85.6899 190.29 85.8535 189.894 85.9707C189.503 86.0879 189.064 86.1465 188.576 86.1465C187.858 86.1465 187.25 86.0195 186.752 85.7656C186.254 85.5068 185.875 85.1772 185.617 84.7769C185.363 84.3716 185.236 83.9517 185.236 83.5171H186.942C186.962 83.8442 187.052 84.1055 187.213 84.3008C187.379 84.4912 187.584 84.6304 187.829 84.7183C188.078 84.8013 188.334 84.8428 188.598 84.8428C188.915 84.8428 189.181 84.8013 189.396 84.7183C189.611 84.6304 189.774 84.5132 189.887 84.3667C189.999 84.2153 190.055 84.0444 190.055 83.854ZM197.775 83.854C197.775 83.6782 197.731 83.5195 197.643 83.3779C197.555 83.2314 197.387 83.0996 197.138 82.9824C196.894 82.8652 196.532 82.7578 196.054 82.6602C195.634 82.5674 195.248 82.4575 194.896 82.3306C194.55 82.1987 194.252 82.04 194.003 81.8545C193.754 81.6689 193.561 81.4492 193.424 81.1953C193.288 80.9414 193.219 80.6484 193.219 80.3164C193.219 79.9941 193.29 79.689 193.432 79.4009C193.573 79.1128 193.776 78.8589 194.04 78.6392C194.303 78.4194 194.623 78.2461 194.999 78.1191C195.38 77.9922 195.805 77.9287 196.273 77.9287C196.938 77.9287 197.506 78.041 197.98 78.2656C198.458 78.4854 198.825 78.7856 199.079 79.1665C199.333 79.5425 199.459 79.9673 199.459 80.4409H197.694C197.694 80.231 197.641 80.0356 197.533 79.855C197.431 79.6694 197.274 79.5205 197.064 79.4082C196.854 79.291 196.591 79.2324 196.273 79.2324C195.971 79.2324 195.719 79.2812 195.519 79.3789C195.324 79.4717 195.177 79.5938 195.08 79.7451C194.987 79.8965 194.94 80.0625 194.94 80.2432C194.94 80.375 194.965 80.4946 195.014 80.6021C195.067 80.7046 195.155 80.7998 195.277 80.8877C195.399 80.9707 195.565 81.0488 195.775 81.1221C195.99 81.1953 196.259 81.2661 196.581 81.3345C197.187 81.4614 197.707 81.625 198.141 81.8252C198.581 82.0205 198.917 82.2744 199.152 82.5869C199.386 82.8945 199.503 83.2852 199.503 83.7588C199.503 84.1104 199.428 84.4326 199.276 84.7256C199.13 85.0137 198.915 85.2651 198.632 85.48C198.349 85.6899 198.009 85.8535 197.614 85.9707C197.223 86.0879 196.784 86.1465 196.295 86.1465C195.578 86.1465 194.97 86.0195 194.472 85.7656C193.974 85.5068 193.595 85.1772 193.336 84.7769C193.083 84.3716 192.956 83.9517 192.956 83.5171H194.662C194.682 83.8442 194.772 84.1055 194.933 84.3008C195.099 84.4912 195.304 84.6304 195.548 84.7183C195.797 84.8013 196.054 84.8428 196.317 84.8428C196.635 84.8428 196.901 84.8013 197.116 84.7183C197.331 84.6304 197.494 84.5132 197.606 84.3667C197.719 84.2153 197.775 84.0444 197.775 83.854ZM202.938 78.0752V86H201.166V78.0752H202.938ZM201.049 75.9951C201.049 75.7266 201.137 75.5044 201.312 75.3286C201.493 75.1479 201.742 75.0576 202.06 75.0576C202.372 75.0576 202.619 75.1479 202.799 75.3286C202.98 75.5044 203.07 75.7266 203.07 75.9951C203.07 76.2588 202.98 76.4785 202.799 76.6543C202.619 76.8301 202.372 76.918 202.06 76.918C201.742 76.918 201.493 76.8301 201.312 76.6543C201.137 76.4785 201.049 76.2588 201.049 75.9951ZM204.535 82.1255V81.957C204.535 81.3857 204.618 80.856 204.784 80.3677C204.95 79.8745 205.189 79.4473 205.502 79.0859C205.819 78.7197 206.205 78.4365 206.659 78.2363C207.118 78.0312 207.636 77.9287 208.212 77.9287C208.793 77.9287 209.311 78.0312 209.765 78.2363C210.224 78.4365 210.612 78.7197 210.929 79.0859C211.247 79.4473 211.488 79.8745 211.654 80.3677C211.82 80.856 211.903 81.3857 211.903 81.957V82.1255C211.903 82.6968 211.82 83.2266 211.654 83.7148C211.488 84.2031 211.247 84.6304 210.929 84.9966C210.612 85.3579 210.226 85.6411 209.772 85.8462C209.318 86.0464 208.803 86.1465 208.227 86.1465C207.646 86.1465 207.125 86.0464 206.667 85.8462C206.212 85.6411 205.827 85.3579 205.509 84.9966C205.192 84.6304 204.95 84.2031 204.784 83.7148C204.618 83.2266 204.535 82.6968 204.535 82.1255ZM206.3 81.957V82.1255C206.3 82.4819 206.337 82.8188 206.41 83.1362C206.483 83.4536 206.598 83.7319 206.754 83.9712C206.911 84.2104 207.111 84.3984 207.355 84.5352C207.599 84.6719 207.89 84.7402 208.227 84.7402C208.554 84.7402 208.837 84.6719 209.076 84.5352C209.32 84.3984 209.521 84.2104 209.677 83.9712C209.833 83.7319 209.948 83.4536 210.021 83.1362C210.099 82.8188 210.138 82.4819 210.138 82.1255V81.957C210.138 81.6055 210.099 81.2734 210.021 80.9609C209.948 80.6436 209.831 80.3628 209.669 80.1187C209.513 79.8745 209.313 79.6841 209.069 79.5474C208.83 79.4058 208.544 79.335 208.212 79.335C207.88 79.335 207.592 79.4058 207.348 79.5474C207.108 79.6841 206.911 79.8745 206.754 80.1187C206.598 80.3628 206.483 80.6436 206.41 80.9609C206.337 81.2734 206.3 81.6055 206.3 81.957ZM215.133 79.7671V86H213.368V78.0752H215.031L215.133 79.7671ZM214.818 81.7446L214.247 81.7373C214.252 81.1758 214.33 80.6606 214.481 80.1919C214.638 79.7231 214.853 79.3203 215.126 78.9834C215.404 78.6465 215.736 78.3877 216.122 78.207C216.508 78.0215 216.938 77.9287 217.411 77.9287C217.792 77.9287 218.136 77.9824 218.444 78.0898C218.756 78.1924 219.022 78.3608 219.242 78.5952C219.467 78.8296 219.638 79.1348 219.755 79.5107C219.872 79.8818 219.931 80.3384 219.931 80.8804V86H218.158V80.873C218.158 80.4922 218.102 80.1919 217.99 79.9722C217.882 79.7476 217.724 79.5889 217.514 79.4961C217.309 79.3984 217.052 79.3496 216.745 79.3496C216.442 79.3496 216.171 79.4131 215.932 79.54C215.692 79.667 215.49 79.8403 215.324 80.0601C215.163 80.2798 215.038 80.5337 214.95 80.8218C214.862 81.1099 214.818 81.4175 214.818 81.7446Z" fill="#286EF1"/>
<path d="M237 117H50V125H237V117Z" fill="#286EF1" mask="url(#path-5-inside-2_3378_49348)"/>
<rect width="162" height="80" transform="translate(237 41)" fill="white" fill-opacity="0.01"/>
<path d="M258.276 81C258.276 79.5262 259.471 78.375 261 78.375C262.504 78.375 263.724 79.5262 263.724 81C263.724 82.4492 262.504 83.625 261 83.625C259.471 83.625 258.276 82.4492 258.276 81ZM261 79.6875C260.248 79.6875 259.638 80.2754 259.638 81C259.638 81.7246 260.248 82.3125 261 82.3125C261.752 82.3125 262.362 81.7246 262.362 81C262.362 80.2754 261.752 79.6875 261 79.6875ZM262.053 74C262.683 74 263.231 74.4154 263.378 75.0046L263.6 75.8925C263.841 76.0059 264.071 76.1347 264.289 76.2772L265.2 76.0188C265.804 75.8473 266.451 76.0964 266.766 76.6214L267.819 78.3777C268.131 78.9027 268.032 79.5672 267.578 79.9855L266.888 80.5926C266.897 80.743 266.903 80.8715 266.903 81C266.903 81.1285 266.897 81.257 266.888 81.3828L267.578 82.0145C268.032 82.4328 268.131 83.0973 267.819 83.6223L266.766 85.3777C266.451 85.9027 265.804 86.1516 265.2 85.982L264.289 85.7223C264.071 85.8645 263.841 85.993 263.6 86.1078L263.378 86.9965C263.231 87.5844 262.683 88 262.053 88H259.947C259.317 88 258.77 87.5844 258.622 86.9965L258.401 86.1078C258.16 85.993 257.93 85.8645 257.711 85.7223L256.775 85.982C256.197 86.1516 255.55 85.9027 255.235 85.3777L254.183 83.6223C253.868 83.0973 253.967 82.4328 254.423 82.0145L255.111 81.3828C255.102 81.257 255.098 81.1285 255.098 80.9754C255.098 80.8715 255.102 80.743 255.111 80.5926L254.423 79.9855C253.967 79.5672 253.868 78.9027 254.183 78.3777L255.235 76.6214C255.55 76.0964 256.197 75.8473 256.775 76.0188L257.711 76.2772C257.93 76.1347 258.16 76.0059 258.401 75.8925L258.622 75.0046C258.77 74.4151 259.317 74 259.947 74L262.053 74ZM259.567 76.8328L259.249 76.9613C258.889 77.1063 258.554 77.2949 258.25 77.5191L257.975 77.7215L256.415 77.2785L255.362 79.034L256.54 80.1141L256.496 80.4422C256.472 80.6254 256.46 80.8113 256.46 81C256.46 81.1887 256.472 81.3746 256.496 81.5578L256.54 81.8859L255.362 82.966L256.415 84.7215L257.975 84.2785L258.25 84.4809C258.554 84.7051 258.889 84.8938 259.249 85.0387L259.567 85.1672L259.947 86.6875H262.053L262.433 85.1672L262.751 85.0387C263.111 84.8938 263.446 84.7051 263.75 84.4809L264.025 84.2785L265.586 84.7215L266.639 82.966L265.461 81.8859L265.504 81.5578C265.529 81.3746 265.541 81.1887 265.541 81C265.541 80.8113 265.529 80.6254 265.504 80.4422L265.461 80.1141L266.639 79.034L265.586 77.2785L264.025 77.7215L263.75 77.5191C263.446 77.2949 263.111 77.1063 262.751 76.9613L262.433 76.8328L262.053 75.3125H259.947L259.567 76.8328Z" fill="#505050"/>
<path d="M278.471 75.3359V86H276.647V75.3359H278.471ZM281.818 75.3359V76.8008H273.33V75.3359H281.818ZM281.687 82.1255V81.957C281.687 81.3857 281.77 80.856 281.936 80.3677C282.102 79.8745 282.341 79.4473 282.653 79.0859C282.971 78.7197 283.356 78.4365 283.811 78.2363C284.27 78.0312 284.787 77.9287 285.363 77.9287C285.944 77.9287 286.462 78.0312 286.916 78.2363C287.375 78.4365 287.763 78.7197 288.081 79.0859C288.398 79.4473 288.64 79.8745 288.806 80.3677C288.972 80.856 289.055 81.3857 289.055 81.957V82.1255C289.055 82.6968 288.972 83.2266 288.806 83.7148C288.64 84.2031 288.398 84.6304 288.081 84.9966C287.763 85.3579 287.377 85.6411 286.923 85.8462C286.469 86.0464 285.954 86.1465 285.378 86.1465C284.797 86.1465 284.277 86.0464 283.818 85.8462C283.364 85.6411 282.978 85.3579 282.661 84.9966C282.343 84.6304 282.102 84.2031 281.936 83.7148C281.77 83.2266 281.687 82.6968 281.687 82.1255ZM283.452 81.957V82.1255C283.452 82.4819 283.488 82.8188 283.562 83.1362C283.635 83.4536 283.75 83.7319 283.906 83.9712C284.062 84.2104 284.262 84.3984 284.506 84.5352C284.75 84.6719 285.041 84.7402 285.378 84.7402C285.705 84.7402 285.988 84.6719 286.228 84.5352C286.472 84.3984 286.672 84.2104 286.828 83.9712C286.984 83.7319 287.099 83.4536 287.172 83.1362C287.25 82.8188 287.29 82.4819 287.29 82.1255V81.957C287.29 81.6055 287.25 81.2734 287.172 80.9609C287.099 80.6436 286.982 80.3628 286.821 80.1187C286.665 79.8745 286.464 79.6841 286.22 79.5474C285.981 79.4058 285.695 79.335 285.363 79.335C285.031 79.335 284.743 79.4058 284.499 79.5474C284.26 79.6841 284.062 79.8745 283.906 80.1187C283.75 80.3628 283.635 80.6436 283.562 80.9609C283.488 81.2734 283.452 81.6055 283.452 81.957ZM290.197 82.1255V81.957C290.197 81.3857 290.28 80.856 290.446 80.3677C290.612 79.8745 290.852 79.4473 291.164 79.0859C291.481 78.7197 291.867 78.4365 292.321 78.2363C292.78 78.0312 293.298 77.9287 293.874 77.9287C294.455 77.9287 294.973 78.0312 295.427 78.2363C295.886 78.4365 296.274 78.7197 296.591 79.0859C296.909 79.4473 297.15 79.8745 297.316 80.3677C297.482 80.856 297.565 81.3857 297.565 81.957V82.1255C297.565 82.6968 297.482 83.2266 297.316 83.7148C297.15 84.2031 296.909 84.6304 296.591 84.9966C296.274 85.3579 295.888 85.6411 295.434 85.8462C294.98 86.0464 294.465 86.1465 293.889 86.1465C293.308 86.1465 292.788 86.0464 292.329 85.8462C291.875 85.6411 291.489 85.3579 291.171 84.9966C290.854 84.6304 290.612 84.2031 290.446 83.7148C290.28 83.2266 290.197 82.6968 290.197 82.1255ZM291.962 81.957V82.1255C291.962 82.4819 291.999 82.8188 292.072 83.1362C292.146 83.4536 292.26 83.7319 292.417 83.9712C292.573 84.2104 292.773 84.3984 293.017 84.5352C293.261 84.6719 293.552 84.7402 293.889 84.7402C294.216 84.7402 294.499 84.6719 294.738 84.5352C294.982 84.3984 295.183 84.2104 295.339 83.9712C295.495 83.7319 295.61 83.4536 295.683 83.1362C295.761 82.8188 295.8 82.4819 295.8 82.1255V81.957C295.8 81.6055 295.761 81.2734 295.683 80.9609C295.61 80.6436 295.493 80.3628 295.332 80.1187C295.175 79.8745 294.975 79.6841 294.731 79.5474C294.492 79.4058 294.206 79.335 293.874 79.335C293.542 79.335 293.254 79.4058 293.01 79.5474C292.771 79.6841 292.573 79.8745 292.417 80.1187C292.26 80.3628 292.146 80.6436 292.072 80.9609C291.999 81.2734 291.962 81.6055 291.962 81.957ZM300.935 74.75V86H299.162V74.75H300.935ZM307.314 83.854C307.314 83.6782 307.27 83.5195 307.182 83.3779C307.094 83.2314 306.926 83.0996 306.677 82.9824C306.433 82.8652 306.071 82.7578 305.593 82.6602C305.173 82.5674 304.787 82.4575 304.436 82.3306C304.089 82.1987 303.791 82.04 303.542 81.8545C303.293 81.6689 303.1 81.4492 302.963 81.1953C302.827 80.9414 302.758 80.6484 302.758 80.3164C302.758 79.9941 302.829 79.689 302.971 79.4009C303.112 79.1128 303.315 78.8589 303.579 78.6392C303.842 78.4194 304.162 78.2461 304.538 78.1191C304.919 77.9922 305.344 77.9287 305.812 77.9287C306.477 77.9287 307.045 78.041 307.519 78.2656C307.998 78.4854 308.364 78.7856 308.618 79.1665C308.872 79.5425 308.999 79.9673 308.999 80.4409H307.233C307.233 80.231 307.18 80.0356 307.072 79.855C306.97 79.6694 306.813 79.5205 306.604 79.4082C306.394 79.291 306.13 79.2324 305.812 79.2324C305.51 79.2324 305.258 79.2812 305.058 79.3789C304.863 79.4717 304.716 79.5938 304.619 79.7451C304.526 79.8965 304.479 80.0625 304.479 80.2432C304.479 80.375 304.504 80.4946 304.553 80.6021C304.606 80.7046 304.694 80.7998 304.816 80.8877C304.938 80.9707 305.104 81.0488 305.314 81.1221C305.529 81.1953 305.798 81.2661 306.12 81.3345C306.726 81.4614 307.246 81.625 307.68 81.8252C308.12 82.0205 308.457 82.2744 308.691 82.5869C308.925 82.8945 309.042 83.2852 309.042 83.7588C309.042 84.1104 308.967 84.4326 308.815 84.7256C308.669 85.0137 308.454 85.2651 308.171 85.48C307.888 85.6899 307.548 85.8535 307.153 85.9707C306.762 86.0879 306.323 86.1465 305.834 86.1465C305.117 86.1465 304.509 86.0195 304.011 85.7656C303.513 85.5068 303.134 85.1772 302.875 84.7769C302.622 84.3716 302.495 83.9517 302.495 83.5171H304.201C304.221 83.8442 304.311 84.1055 304.472 84.3008C304.638 84.4912 304.843 84.6304 305.087 84.7183C305.336 84.8013 305.593 84.8428 305.856 84.8428C306.174 84.8428 306.44 84.8013 306.655 84.7183C306.87 84.6304 307.033 84.5132 307.146 84.3667C307.258 84.2153 307.314 84.0444 307.314 83.854ZM316.147 80.1992L317.985 78.9614C318.293 78.7563 318.513 78.5562 318.645 78.3608C318.776 78.1606 318.842 77.9116 318.842 77.6138C318.842 77.3599 318.745 77.1255 318.549 76.9106C318.354 76.6958 318.078 76.5884 317.722 76.5884C317.473 76.5884 317.263 76.647 317.092 76.7642C316.921 76.8765 316.792 77.0278 316.704 77.2183C316.621 77.4038 316.579 77.6113 316.579 77.8408C316.579 78.0605 316.635 78.2876 316.748 78.522C316.86 78.7515 317.014 78.9932 317.209 79.2471C317.404 79.4961 317.624 79.7646 317.868 80.0527L322.907 86H320.864L316.748 81.1587C316.391 80.729 316.076 80.3359 315.803 79.9795C315.529 79.6182 315.317 79.269 315.166 78.9321C315.014 78.5903 314.938 78.2388 314.938 77.8774C314.938 77.3208 315.053 76.8423 315.283 76.4419C315.512 76.0415 315.837 75.7339 316.257 75.519C316.677 75.2993 317.167 75.1895 317.729 75.1895C318.271 75.1895 318.737 75.2993 319.128 75.519C319.523 75.7339 319.826 76.0195 320.036 76.376C320.251 76.7324 320.358 77.123 320.358 77.5479C320.358 77.8848 320.297 78.1924 320.175 78.4707C320.053 78.749 319.885 79.0029 319.67 79.2324C319.455 79.4619 319.206 79.6792 318.923 79.8843L316.689 81.5103C316.43 81.7202 316.237 81.9229 316.11 82.1182C315.988 82.3086 315.908 82.4844 315.869 82.6455C315.83 82.8066 315.81 82.9482 315.81 83.0703C315.81 83.3828 315.876 83.666 316.008 83.9199C316.145 84.1738 316.342 84.3765 316.601 84.5278C316.865 84.6743 317.185 84.7476 317.561 84.7476C317.966 84.7476 318.359 84.6572 318.74 84.4766C319.121 84.291 319.462 84.0298 319.765 83.6929C320.068 83.356 320.307 82.9531 320.483 82.4844C320.664 82.0156 320.754 81.4956 320.754 80.9243H322.277C322.277 81.4419 322.226 81.9326 322.124 82.3965C322.026 82.8604 321.867 83.29 321.647 83.6855C321.433 84.0811 321.149 84.4351 320.798 84.7476C320.764 84.7817 320.725 84.8257 320.681 84.8794C320.642 84.9282 320.603 84.9697 320.563 85.0039C320.144 85.3896 319.672 85.6777 319.15 85.8682C318.632 86.0537 318.081 86.1465 317.495 86.1465C316.787 86.1465 316.174 86.0171 315.656 85.7583C315.139 85.4995 314.738 85.1431 314.455 84.689C314.177 84.2349 314.038 83.7148 314.038 83.1289C314.038 82.6943 314.128 82.3135 314.309 81.9863C314.489 81.6543 314.736 81.3467 315.048 81.0635C315.366 80.7754 315.732 80.4873 316.147 80.1992ZM333.469 83.2534C333.469 83.0337 333.435 82.8384 333.366 82.6675C333.303 82.4966 333.188 82.3403 333.022 82.1987C332.856 82.0571 332.622 81.9204 332.319 81.7886C332.021 81.6519 331.64 81.5127 331.176 81.3711C330.668 81.2148 330.2 81.0415 329.77 80.8511C329.345 80.6558 328.974 80.4312 328.657 80.1772C328.339 79.9185 328.093 79.623 327.917 79.291C327.741 78.9541 327.653 78.5659 327.653 78.1265C327.653 77.6919 327.744 77.2964 327.924 76.9399C328.11 76.5835 328.371 76.2759 328.708 76.0171C329.05 75.7534 329.453 75.5508 329.917 75.4092C330.38 75.2627 330.893 75.1895 331.455 75.1895C332.246 75.1895 332.927 75.3359 333.498 75.6289C334.074 75.9219 334.516 76.3149 334.824 76.8081C335.136 77.3013 335.292 77.8457 335.292 78.4414H333.469C333.469 78.0898 333.393 77.7798 333.242 77.5112C333.095 77.2378 332.871 77.0229 332.568 76.8667C332.27 76.7104 331.892 76.6323 331.433 76.6323C330.998 76.6323 330.637 76.6982 330.349 76.8301C330.061 76.9619 329.846 77.1401 329.704 77.3647C329.562 77.5894 329.492 77.8433 329.492 78.1265C329.492 78.3267 329.538 78.5098 329.631 78.6758C329.724 78.8369 329.865 78.9883 330.056 79.1299C330.246 79.2666 330.485 79.396 330.773 79.5181C331.062 79.6401 331.401 79.7573 331.792 79.8696C332.382 80.0454 332.897 80.2407 333.337 80.4556C333.776 80.6655 334.143 80.9048 334.436 81.1733C334.729 81.4419 334.948 81.7471 335.095 82.0889C335.241 82.4258 335.314 82.8091 335.314 83.2388C335.314 83.688 335.224 84.0933 335.043 84.4546C334.863 84.811 334.604 85.1162 334.267 85.3701C333.935 85.6191 333.535 85.812 333.066 85.9487C332.602 86.0806 332.084 86.1465 331.513 86.1465C331 86.1465 330.495 86.0781 329.997 85.9414C329.504 85.8047 329.055 85.5972 328.649 85.3188C328.244 85.0356 327.922 84.6841 327.683 84.2642C327.443 83.8394 327.324 83.3438 327.324 82.7773H329.162C329.162 83.124 329.221 83.4194 329.338 83.6636C329.46 83.9077 329.628 84.1079 329.843 84.2642C330.058 84.4155 330.307 84.5278 330.59 84.6011C330.878 84.6743 331.186 84.7109 331.513 84.7109C331.943 84.7109 332.302 84.6499 332.59 84.5278C332.883 84.4058 333.103 84.2349 333.249 84.0151C333.396 83.7954 333.469 83.5415 333.469 83.2534ZM340.258 86.1465C339.672 86.1465 339.143 86.0513 338.669 85.8608C338.2 85.6655 337.8 85.3945 337.468 85.0479C337.141 84.7012 336.889 84.2935 336.713 83.8247C336.538 83.356 336.45 82.8506 336.45 82.3086V82.0156C336.45 81.3955 336.54 80.834 336.721 80.3311C336.901 79.8281 337.153 79.3984 337.475 79.042C337.797 78.6807 338.178 78.4048 338.618 78.2144C339.057 78.0239 339.533 77.9287 340.046 77.9287C340.612 77.9287 341.108 78.0239 341.533 78.2144C341.958 78.4048 342.309 78.6733 342.587 79.02C342.871 79.3618 343.081 79.7695 343.217 80.2432C343.359 80.7168 343.43 81.2393 343.43 81.8105V82.5649H337.307V81.2979H341.687V81.1587C341.677 80.8413 341.613 80.5435 341.496 80.2651C341.384 79.9868 341.21 79.7622 340.976 79.5913C340.742 79.4204 340.429 79.335 340.039 79.335C339.746 79.335 339.484 79.3984 339.255 79.5254C339.03 79.6475 338.842 79.8257 338.691 80.0601C338.54 80.2944 338.422 80.5776 338.339 80.9097C338.261 81.2368 338.222 81.6055 338.222 82.0156V82.3086C338.222 82.6553 338.269 82.9775 338.361 83.2754C338.459 83.5684 338.601 83.8247 338.786 84.0444C338.972 84.2642 339.196 84.4375 339.46 84.5645C339.724 84.6865 340.024 84.7476 340.361 84.7476C340.786 84.7476 341.164 84.6621 341.496 84.4912C341.828 84.3203 342.116 84.0786 342.36 83.7661L343.291 84.667C343.12 84.916 342.897 85.1553 342.624 85.3848C342.351 85.6094 342.016 85.7925 341.621 85.9341C341.23 86.0757 340.776 86.1465 340.258 86.1465ZM348.439 78.0752V79.3643H343.972V78.0752H348.439ZM345.261 76.1343H347.026V83.8101C347.026 84.0542 347.06 84.2422 347.128 84.374C347.202 84.501 347.302 84.5864 347.429 84.6304C347.556 84.6743 347.705 84.6963 347.875 84.6963C347.998 84.6963 348.115 84.689 348.227 84.6743C348.339 84.6597 348.43 84.645 348.498 84.6304L348.505 85.978C348.359 86.022 348.188 86.061 347.993 86.0952C347.802 86.1294 347.583 86.1465 347.333 86.1465C346.928 86.1465 346.569 86.0757 346.257 85.9341C345.944 85.7876 345.7 85.5508 345.524 85.2236C345.349 84.8965 345.261 84.4619 345.261 83.9199V76.1343ZM353.435 78.0752V79.3643H348.967V78.0752H353.435ZM350.256 76.1343H352.021V83.8101C352.021 84.0542 352.055 84.2422 352.124 84.374C352.197 84.501 352.297 84.5864 352.424 84.6304C352.551 84.6743 352.7 84.6963 352.871 84.6963C352.993 84.6963 353.11 84.689 353.222 84.6743C353.334 84.6597 353.425 84.645 353.493 84.6304L353.5 85.978C353.354 86.022 353.183 86.061 352.988 86.0952C352.797 86.1294 352.578 86.1465 352.329 86.1465C351.923 86.1465 351.564 86.0757 351.252 85.9341C350.939 85.7876 350.695 85.5508 350.52 85.2236C350.344 84.8965 350.256 84.4619 350.256 83.9199V76.1343ZM356.687 78.0752V86H354.914V78.0752H356.687ZM354.797 75.9951C354.797 75.7266 354.885 75.5044 355.061 75.3286C355.241 75.1479 355.49 75.0576 355.808 75.0576C356.12 75.0576 356.367 75.1479 356.547 75.3286C356.728 75.5044 356.818 75.7266 356.818 75.9951C356.818 76.2588 356.728 76.4785 356.547 76.6543C356.367 76.8301 356.12 76.918 355.808 76.918C355.49 76.918 355.241 76.8301 355.061 76.6543C354.885 76.4785 354.797 76.2588 354.797 75.9951ZM360.371 79.7671V86H358.605V78.0752H360.268L360.371 79.7671ZM360.056 81.7446L359.484 81.7373C359.489 81.1758 359.567 80.6606 359.719 80.1919C359.875 79.7231 360.09 79.3203 360.363 78.9834C360.642 78.6465 360.974 78.3877 361.359 78.207C361.745 78.0215 362.175 77.9287 362.648 77.9287C363.029 77.9287 363.374 77.9824 363.681 78.0898C363.994 78.1924 364.26 78.3608 364.479 78.5952C364.704 78.8296 364.875 79.1348 364.992 79.5107C365.109 79.8818 365.168 80.3384 365.168 80.8804V86H363.396V80.873C363.396 80.4922 363.339 80.1919 363.227 79.9722C363.12 79.7476 362.961 79.5889 362.751 79.4961C362.546 79.3984 362.29 79.3496 361.982 79.3496C361.679 79.3496 361.408 79.4131 361.169 79.54C360.93 79.667 360.727 79.8403 360.561 80.0601C360.4 80.2798 360.275 80.5337 360.188 80.8218C360.1 81.1099 360.056 81.4175 360.056 81.7446ZM372.045 78.0752H373.649V85.7803C373.649 86.4932 373.498 87.0986 373.195 87.5967C372.893 88.0947 372.47 88.4731 371.928 88.7319C371.386 88.9956 370.759 89.1274 370.046 89.1274C369.743 89.1274 369.406 89.0835 369.035 88.9956C368.669 88.9077 368.312 88.7661 367.966 88.5708C367.624 88.3804 367.338 88.1289 367.109 87.8164L367.937 86.7764C368.22 87.1133 368.532 87.3599 368.874 87.5161C369.216 87.6724 369.575 87.7505 369.951 87.7505C370.356 87.7505 370.7 87.6748 370.983 87.5234C371.271 87.377 371.494 87.1597 371.65 86.8716C371.806 86.5835 371.884 86.2319 371.884 85.8169V79.8696L372.045 78.0752ZM366.662 82.1255V81.9717C366.662 81.3711 366.735 80.8242 366.882 80.3311C367.028 79.833 367.238 79.4058 367.512 79.0493C367.785 78.688 368.117 78.4121 368.508 78.2217C368.898 78.0264 369.34 77.9287 369.833 77.9287C370.346 77.9287 370.783 78.0215 371.145 78.207C371.511 78.3926 371.816 78.6587 372.06 79.0054C372.304 79.3472 372.495 79.7573 372.631 80.2358C372.773 80.7095 372.878 81.2368 372.946 81.8179V82.3086C372.883 82.875 372.775 83.3926 372.624 83.8613C372.473 84.3301 372.272 84.7354 372.023 85.0771C371.774 85.4189 371.467 85.6826 371.101 85.8682C370.739 86.0537 370.312 86.1465 369.819 86.1465C369.335 86.1465 368.898 86.0464 368.508 85.8462C368.122 85.646 367.79 85.3652 367.512 85.0039C367.238 84.6426 367.028 84.2178 366.882 83.7295C366.735 83.2363 366.662 82.7017 366.662 82.1255ZM368.427 81.9717V82.1255C368.427 82.4868 368.461 82.8237 368.53 83.1362C368.603 83.4487 368.713 83.7246 368.859 83.9639C369.011 84.1982 369.201 84.3838 369.431 84.5205C369.665 84.6523 369.941 84.7183 370.258 84.7183C370.673 84.7183 371.013 84.6304 371.276 84.4546C371.545 84.2788 371.75 84.042 371.892 83.7441C372.038 83.4414 372.141 83.1045 372.199 82.7334V81.4077C372.17 81.1196 372.109 80.8511 372.016 80.6021C371.928 80.353 371.809 80.1357 371.657 79.9502C371.506 79.7598 371.315 79.6133 371.086 79.5107C370.856 79.4033 370.585 79.3496 370.273 79.3496C369.956 79.3496 369.68 79.418 369.445 79.5547C369.211 79.6914 369.018 79.8794 368.867 80.1187C368.72 80.3579 368.61 80.6362 368.537 80.9536C368.464 81.271 368.427 81.6104 368.427 81.9717ZM379.926 83.854C379.926 83.6782 379.882 83.5195 379.794 83.3779C379.707 83.2314 379.538 83.0996 379.289 82.9824C379.045 82.8652 378.684 82.7578 378.205 82.6602C377.785 82.5674 377.399 82.4575 377.048 82.3306C376.701 82.1987 376.403 82.04 376.154 81.8545C375.905 81.6689 375.712 81.4492 375.576 81.1953C375.439 80.9414 375.371 80.6484 375.371 80.3164C375.371 79.9941 375.441 79.689 375.583 79.4009C375.725 79.1128 375.927 78.8589 376.191 78.6392C376.455 78.4194 376.774 78.2461 377.15 78.1191C377.531 77.9922 377.956 77.9287 378.425 77.9287C379.089 77.9287 379.658 78.041 380.131 78.2656C380.61 78.4854 380.976 78.7856 381.23 79.1665C381.484 79.5425 381.611 79.9673 381.611 80.4409H379.846C379.846 80.231 379.792 80.0356 379.685 79.855C379.582 79.6694 379.426 79.5205 379.216 79.4082C379.006 79.291 378.742 79.2324 378.425 79.2324C378.122 79.2324 377.871 79.2812 377.67 79.3789C377.475 79.4717 377.329 79.5938 377.231 79.7451C377.138 79.8965 377.092 80.0625 377.092 80.2432C377.092 80.375 377.116 80.4946 377.165 80.6021C377.219 80.7046 377.307 80.7998 377.429 80.8877C377.551 80.9707 377.717 81.0488 377.927 81.1221C378.142 81.1953 378.41 81.2661 378.732 81.3345C379.338 81.4614 379.858 81.625 380.292 81.8252C380.732 82.0205 381.069 82.2744 381.303 82.5869C381.538 82.8945 381.655 83.2852 381.655 83.7588C381.655 84.1104 381.579 84.4326 381.428 84.7256C381.281 85.0137 381.066 85.2651 380.783 85.48C380.5 85.6899 380.161 85.8535 379.765 85.9707C379.375 86.0879 378.935 86.1465 378.447 86.1465C377.729 86.1465 377.121 86.0195 376.623 85.7656C376.125 85.5068 375.747 85.1772 375.488 84.7769C375.234 84.3716 375.107 83.9517 375.107 83.5171H376.813C376.833 83.8442 376.923 84.1055 377.084 84.3008C377.25 84.4912 377.456 84.6304 377.7 84.7183C377.949 84.8013 378.205 84.8428 378.469 84.8428C378.786 84.8428 379.052 84.8013 379.267 84.7183C379.482 84.6304 379.646 84.5132 379.758 84.3667C379.87 84.2153 379.926 84.0444 379.926 83.854Z" fill="#505050"/>
<path d="M50 41H778H50ZM778 122H50V120H778V122ZM50 121V41V121ZM778 41V121V41Z" fill="#E6E6E6" mask="url(#path-3-inside-1_3378_49348)"/>
</g>
<defs>
<filter id="filter0_ddd_3378_49348" x="-31" y="-4" width="890" height="337" filterUnits="userSpaceOnUse" color-interpolation-filters="sRGB">
<feFlood flood-opacity="0" result="BackgroundImageFix"/>
<feColorMatrix in="SourceAlpha" type="matrix" values="0 0 0 0 0 0 0 0 0 0 0 0 0 0 0 0 0 0 127 0" result="hardAlpha"/>
<feOffset dy="2.39404"/>
<feGaussianBlur stdDeviation="2.66004"/>
<feColorMatrix type="matrix" values="0 0 0 0 0 0 0 0 0 0 0 0 0 0 0 0 0 0 0.0201946 0"/>
<feBlend mode="normal" in2="BackgroundImageFix" result="effect1_dropShadow_3378_49348"/>
<feColorMatrix in="SourceAlpha" type="matrix" values="0 0 0 0 0 0 0 0 0 0 0 0 0 0 0 0 0 0 127 0" result="hardAlpha"/>
<feOffset dy="8.04107"/>
<feGaussianBlur stdDeviation="8.93452"/>
<feColorMatrix type="matrix" values="0 0 0 0 0 0 0 0 0 0 0 0 0 0 0 0 0 0 0.0298054 0"/>
<feBlend mode="normal" in2="effect1_dropShadow_3378_49348" result="effect2_dropShadow_3378_49348"/>
<feColorMatrix in="SourceAlpha" type="matrix" values="0 0 0 0 0 0 0 0 0 0 0 0 0 0 0 0 0 0 127 0" result="hardAlpha"/>
<feOffset dy="36"/>
<feGaussianBlur stdDeviation="40"/>
<feColorMatrix type="matrix" values="0 0 0 0 0 0 0 0 0 0 0 0 0 0 0 0 0 0 0.05 0"/>
<feBlend mode="normal" in2="effect2_dropShadow_3378_49348" result="effect3_dropShadow_3378_49348"/>
<feBlend mode="normal" in="SourceGraphic" in2="effect3_dropShadow_3378_49348" result="shape"/>
</filter>
<clipPath id="clip0_3378_49348">
<rect width="828" height="257" fill="white"/>
</clipPath>
</defs>
</svg>
