<svg width="800" height="148" viewBox="0 0 800 148" fill="none" xmlns="http://www.w3.org/2000/svg">
<rect width="800" height="148" rx="4" fill="#F8F8F8"/>
<path d="M43.0469 46.3359V57H41.2085V46.3359H43.0469ZM48.3936 55.7402C48.6816 55.7402 48.9404 55.6841 49.1699 55.5718C49.4043 55.4546 49.5923 55.2935 49.7339 55.0884C49.8804 54.8833 49.9609 54.6465 49.9756 54.3779H51.6382C51.6284 54.8906 51.4771 55.3569 51.1841 55.7769C50.8911 56.1968 50.5029 56.5312 50.0195 56.7803C49.5361 57.0244 49.0015 57.1465 48.4155 57.1465C47.8101 57.1465 47.2827 57.0439 46.8335 56.8389C46.3843 56.6289 46.0107 56.3408 45.7129 55.9746C45.415 55.6084 45.1904 55.186 45.0391 54.7075C44.8926 54.229 44.8193 53.7163 44.8193 53.1694V52.9131C44.8193 52.3662 44.8926 51.8535 45.0391 51.375C45.1904 50.8916 45.415 50.4668 45.7129 50.1006C46.0107 49.7344 46.3843 49.4487 46.8335 49.2437C47.2827 49.0337 47.8076 48.9287 48.4082 48.9287C49.043 48.9287 49.5996 49.0557 50.0781 49.3096C50.5566 49.5586 50.9326 49.9077 51.2061 50.3569C51.4844 50.8013 51.6284 51.3188 51.6382 51.9097H49.9756C49.9609 51.6167 49.8877 51.353 49.7559 51.1187C49.6289 50.8794 49.4482 50.689 49.2139 50.5474C48.9844 50.4058 48.7085 50.335 48.3862 50.335C48.0298 50.335 47.7344 50.4082 47.5 50.5547C47.2656 50.6963 47.0825 50.8916 46.9507 51.1406C46.8188 51.3848 46.7236 51.6606 46.665 51.9683C46.6113 52.271 46.5845 52.5859 46.5845 52.9131V53.1694C46.5845 53.4966 46.6113 53.814 46.665 54.1216C46.7188 54.4292 46.8115 54.7051 46.9434 54.9492C47.0801 55.1885 47.2656 55.3813 47.5 55.5278C47.7344 55.6694 48.0322 55.7402 48.3936 55.7402ZM52.6562 53.1255V52.957C52.6562 52.3857 52.7393 51.856 52.9053 51.3677C53.0713 50.8745 53.3105 50.4473 53.623 50.0859C53.9404 49.7197 54.3262 49.4365 54.7803 49.2363C55.2393 49.0312 55.7568 48.9287 56.333 48.9287C56.9141 48.9287 57.4316 49.0312 57.8857 49.2363C58.3447 49.4365 58.7329 49.7197 59.0503 50.0859C59.3677 50.4473 59.6094 50.8745 59.7754 51.3677C59.9414 51.856 60.0244 52.3857 60.0244 52.957V53.1255C60.0244 53.6968 59.9414 54.2266 59.7754 54.7148C59.6094 55.2031 59.3677 55.6304 59.0503 55.9966C58.7329 56.3579 58.3472 56.6411 57.8931 56.8462C57.439 57.0464 56.9238 57.1465 56.3477 57.1465C55.7666 57.1465 55.2466 57.0464 54.7876 56.8462C54.3335 56.6411 53.9478 56.3579 53.6304 55.9966C53.313 55.6304 53.0713 55.2031 52.9053 54.7148C52.7393 54.2266 52.6562 53.6968 52.6562 53.1255ZM54.4214 52.957V53.1255C54.4214 53.4819 54.458 53.8188 54.5312 54.1362C54.6045 54.4536 54.7192 54.7319 54.8755 54.9712C55.0317 55.2104 55.2319 55.3984 55.4761 55.5352C55.7202 55.6719 56.0107 55.7402 56.3477 55.7402C56.6748 55.7402 56.958 55.6719 57.1973 55.5352C57.4414 55.3984 57.6416 55.2104 57.7979 54.9712C57.9541 54.7319 58.0688 54.4536 58.1421 54.1362C58.2202 53.8188 58.2593 53.4819 58.2593 53.1255V52.957C58.2593 52.6055 58.2202 52.2734 58.1421 51.9609C58.0688 51.6436 57.9517 51.3628 57.7905 51.1187C57.6343 50.8745 57.4341 50.6841 57.1899 50.5474C56.9507 50.4058 56.665 50.335 56.333 50.335C56.001 50.335 55.7129 50.4058 55.4688 50.5474C55.2295 50.6841 55.0317 50.8745 54.8755 51.1187C54.7192 51.3628 54.6045 51.6436 54.5312 51.9609C54.458 52.2734 54.4214 52.6055 54.4214 52.957ZM63.2544 50.7671V57H61.4893V49.0752H63.1519L63.2544 50.7671ZM62.9395 52.7446L62.3682 52.7373C62.373 52.1758 62.4512 51.6606 62.6025 51.1919C62.7588 50.7231 62.9736 50.3203 63.2471 49.9834C63.5254 49.6465 63.8574 49.3877 64.2432 49.207C64.6289 49.0215 65.0586 48.9287 65.5322 48.9287C65.9131 48.9287 66.2573 48.9824 66.5649 49.0898C66.8774 49.1924 67.1436 49.3608 67.3633 49.5952C67.5879 49.8296 67.7588 50.1348 67.876 50.5107C67.9932 50.8818 68.0518 51.3384 68.0518 51.8804V57H66.2793V51.873C66.2793 51.4922 66.2231 51.1919 66.1108 50.9722C66.0034 50.7476 65.8447 50.5889 65.6348 50.4961C65.4297 50.3984 65.1733 50.3496 64.8657 50.3496C64.563 50.3496 64.292 50.4131 64.0527 50.54C63.8135 50.667 63.6108 50.8403 63.4448 51.0601C63.2837 51.2798 63.1592 51.5337 63.0713 51.8218C62.9834 52.1099 62.9395 52.4175 62.9395 52.7446ZM75.4785 45.75V57H73.7061V45.75H75.4785ZM80.9058 57.1465C80.3198 57.1465 79.79 57.0513 79.3164 56.8608C78.8477 56.6655 78.4473 56.3945 78.1152 56.0479C77.7881 55.7012 77.5366 55.2935 77.3608 54.8247C77.1851 54.356 77.0972 53.8506 77.0972 53.3086V53.0156C77.0972 52.3955 77.1875 51.834 77.3682 51.3311C77.5488 50.8281 77.8003 50.3984 78.1226 50.042C78.4448 49.6807 78.8257 49.4048 79.2651 49.2144C79.7046 49.0239 80.1807 48.9287 80.6934 48.9287C81.2598 48.9287 81.7554 49.0239 82.1802 49.2144C82.605 49.4048 82.9565 49.6733 83.2349 50.02C83.5181 50.3618 83.728 50.7695 83.8647 51.2432C84.0063 51.7168 84.0771 52.2393 84.0771 52.8105V53.5649H77.9541V52.2979H82.334V52.1587C82.3242 51.8413 82.2607 51.5435 82.1436 51.2651C82.0312 50.9868 81.8579 50.7622 81.6235 50.5913C81.3892 50.4204 81.0767 50.335 80.686 50.335C80.3931 50.335 80.1318 50.3984 79.9023 50.5254C79.6777 50.6475 79.4897 50.8257 79.3384 51.0601C79.187 51.2944 79.0698 51.5776 78.9868 51.9097C78.9087 52.2368 78.8696 52.6055 78.8696 53.0156V53.3086C78.8696 53.6553 78.916 53.9775 79.0088 54.2754C79.1064 54.5684 79.248 54.8247 79.4336 55.0444C79.6191 55.2642 79.8438 55.4375 80.1074 55.5645C80.3711 55.6865 80.6714 55.7476 81.0083 55.7476C81.4331 55.7476 81.8115 55.6621 82.1436 55.4912C82.4756 55.3203 82.7637 55.0786 83.0078 54.7661L83.938 55.667C83.7671 55.916 83.5449 56.1553 83.2715 56.3848C82.998 56.6094 82.6636 56.7925 82.2681 56.9341C81.8774 57.0757 81.4233 57.1465 80.9058 57.1465ZM87.8418 57H86.0767V48.3135C86.0767 47.7227 86.1865 47.2271 86.4062 46.8267C86.6309 46.4214 86.9507 46.1162 87.3657 45.9111C87.7808 45.7012 88.2715 45.5962 88.8379 45.5962C89.0137 45.5962 89.187 45.6084 89.3579 45.6328C89.5288 45.6523 89.6948 45.6841 89.856 45.728L89.812 47.0903C89.7144 47.0659 89.6069 47.0488 89.4897 47.0391C89.3774 47.0293 89.2554 47.0244 89.1235 47.0244C88.855 47.0244 88.623 47.0757 88.4277 47.1782C88.2373 47.2759 88.0908 47.4199 87.9883 47.6104C87.8906 47.8008 87.8418 48.0352 87.8418 48.3135V57ZM89.4751 49.0752V50.3643H84.8608V49.0752H89.4751ZM94.3896 49.0752V50.3643H89.9219V49.0752H94.3896ZM91.2109 47.1343H92.9761V54.8101C92.9761 55.0542 93.0103 55.2422 93.0786 55.374C93.1519 55.501 93.252 55.5864 93.3789 55.6304C93.5059 55.6743 93.6548 55.6963 93.8257 55.6963C93.9478 55.6963 94.0649 55.689 94.1772 55.6743C94.2896 55.6597 94.3799 55.645 94.4482 55.6304L94.4556 56.978C94.3091 57.022 94.1382 57.061 93.9429 57.0952C93.7524 57.1294 93.5327 57.1465 93.2837 57.1465C92.8784 57.1465 92.5195 57.0757 92.207 56.9341C91.8945 56.7876 91.6504 56.5508 91.4746 56.2236C91.2988 55.8965 91.2109 55.4619 91.2109 54.9199V47.1343Z" fill="#505050"/>
<rect x="40.5" y="68.5" width="339" height="39" rx="3.5" fill="white"/>
<path d="M65.7143 89.6875H62.2857C58.8143 89.6875 56 92.4578 56 95.875C56 96.4962 56.5118 97 57.1429 97H70.8571C71.4882 97 72 96.4962 72 95.875C72 92.4578 69.1857 89.6875 65.7143 89.6875ZM57.7496 95.3125C58.0318 93.0941 59.9571 91.375 62.2857 91.375H65.7143C68.0414 91.375 69.9679 93.0959 70.25 95.3125H57.7496ZM64 88C66.5246 88 68.5714 85.9852 68.5714 83.5C68.5714 81.0148 66.5246 79 64 79C61.4754 79 59.4286 81.0148 59.4286 83.5C59.4286 85.9855 61.475 88 64 88ZM64 80.6875C65.5754 80.6875 66.8571 81.9493 66.8571 83.5C66.8571 85.0507 65.5754 86.3125 64 86.3125C62.4246 86.3125 61.1429 85.0504 61.1429 83.5C61.1429 81.9493 62.425 80.6875 64 80.6875Z" fill="#737373"/>
<path d="M89.1709 88.8179H86.3218V87.668H89.1709C89.7227 87.668 90.1694 87.5801 90.5112 87.4043C90.853 87.2285 91.1021 86.9844 91.2583 86.6719C91.4194 86.3594 91.5 86.0029 91.5 85.6025C91.5 85.2363 91.4194 84.8921 91.2583 84.5698C91.1021 84.2476 90.853 83.9888 90.5112 83.7935C90.1694 83.5933 89.7227 83.4932 89.1709 83.4932H86.6514V93H85.2378V82.3359H89.1709C89.9766 82.3359 90.6577 82.4751 91.2144 82.7534C91.771 83.0317 92.1934 83.4175 92.4814 83.9106C92.7695 84.3989 92.9136 84.958 92.9136 85.5879C92.9136 86.2715 92.7695 86.855 92.4814 87.3384C92.1934 87.8218 91.771 88.1904 91.2144 88.4443C90.6577 88.6934 89.9766 88.8179 89.1709 88.8179ZM95.9678 81.75V93H94.6055V81.75H95.9678ZM102.816 91.645V87.5654C102.816 87.2529 102.752 86.9819 102.625 86.7524C102.503 86.5181 102.318 86.3374 102.069 86.2104C101.82 86.0835 101.512 86.02 101.146 86.02C100.804 86.02 100.504 86.0786 100.245 86.1958C99.9912 86.313 99.791 86.4668 99.6445 86.6572C99.5029 86.8477 99.4321 87.0527 99.4321 87.2725H98.0771C98.0771 86.9893 98.1504 86.7085 98.2969 86.4302C98.4434 86.1519 98.6533 85.9004 98.9268 85.6758C99.2051 85.4463 99.5371 85.2656 99.9229 85.1338C100.313 84.9971 100.748 84.9287 101.227 84.9287C101.803 84.9287 102.311 85.0264 102.75 85.2217C103.194 85.417 103.541 85.7124 103.79 86.1079C104.044 86.4985 104.171 86.9893 104.171 87.5801V91.2715C104.171 91.5352 104.193 91.8159 104.237 92.1138C104.286 92.4116 104.356 92.668 104.449 92.8828V93H103.036C102.967 92.8438 102.914 92.6362 102.875 92.3774C102.835 92.1138 102.816 91.8696 102.816 91.645ZM103.05 88.1953L103.065 89.1475H101.695C101.31 89.1475 100.965 89.1792 100.663 89.2427C100.36 89.3013 100.106 89.3916 99.9009 89.5137C99.6958 89.6357 99.5396 89.7896 99.4321 89.9751C99.3247 90.1558 99.271 90.3682 99.271 90.6123C99.271 90.8613 99.3271 91.0884 99.4395 91.2935C99.5518 91.4985 99.7202 91.6621 99.9448 91.7842C100.174 91.9014 100.455 91.96 100.787 91.96C101.202 91.96 101.568 91.8721 101.886 91.6963C102.203 91.5205 102.455 91.3057 102.64 91.0518C102.831 90.7979 102.933 90.5513 102.948 90.312L103.526 90.9639C103.492 91.1689 103.399 91.396 103.248 91.645C103.097 91.894 102.894 92.1333 102.64 92.3628C102.391 92.5874 102.093 92.7754 101.747 92.9268C101.405 93.0732 101.019 93.1465 100.589 93.1465C100.052 93.1465 99.5811 93.0415 99.1758 92.8315C98.7754 92.6216 98.4629 92.3408 98.2383 91.9893C98.0186 91.6328 97.9087 91.2349 97.9087 90.7954C97.9087 90.3706 97.9917 89.9971 98.1577 89.6748C98.3237 89.3477 98.563 89.0767 98.8755 88.8618C99.188 88.6421 99.564 88.4761 100.003 88.3638C100.443 88.2515 100.934 88.1953 101.476 88.1953H103.05ZM109.474 92.0332C109.796 92.0332 110.094 91.9673 110.367 91.8354C110.641 91.7036 110.865 91.5229 111.041 91.2935C111.217 91.0591 111.317 90.793 111.341 90.4951H112.63C112.606 90.9639 112.447 91.4009 112.154 91.8062C111.866 92.2065 111.488 92.5312 111.019 92.7803C110.55 93.0244 110.035 93.1465 109.474 93.1465C108.878 93.1465 108.358 93.0415 107.914 92.8315C107.474 92.6216 107.108 92.3335 106.815 91.9673C106.527 91.6011 106.31 91.1812 106.163 90.7075C106.021 90.229 105.951 89.7236 105.951 89.1914V88.8838C105.951 88.3516 106.021 87.8486 106.163 87.375C106.31 86.8965 106.527 86.4741 106.815 86.1079C107.108 85.7417 107.474 85.4536 107.914 85.2437C108.358 85.0337 108.878 84.9287 109.474 84.9287C110.094 84.9287 110.636 85.0557 111.1 85.3096C111.563 85.5586 111.927 85.9004 112.191 86.335C112.459 86.7646 112.606 87.2529 112.63 87.7998H111.341C111.317 87.4727 111.224 87.1772 111.063 86.9136C110.907 86.6499 110.692 86.4399 110.418 86.2837C110.15 86.1226 109.835 86.042 109.474 86.042C109.059 86.042 108.709 86.125 108.426 86.291C108.148 86.4521 107.926 86.6719 107.76 86.9502C107.599 87.2236 107.481 87.5288 107.408 87.8657C107.34 88.1978 107.306 88.5371 107.306 88.8838V89.1914C107.306 89.5381 107.34 89.8799 107.408 90.2168C107.477 90.5537 107.591 90.8589 107.752 91.1323C107.918 91.4058 108.141 91.6255 108.419 91.7915C108.702 91.9526 109.054 92.0332 109.474 92.0332ZM117.442 93.1465C116.891 93.1465 116.39 93.0537 115.941 92.8682C115.497 92.6777 115.113 92.4116 114.791 92.0698C114.474 91.728 114.229 91.3228 114.059 90.854C113.888 90.3853 113.802 89.8726 113.802 89.3159V89.0083C113.802 88.3638 113.897 87.79 114.088 87.2871C114.278 86.7793 114.537 86.3496 114.864 85.998C115.191 85.6465 115.562 85.3804 115.978 85.1997C116.393 85.019 116.822 84.9287 117.267 84.9287C117.833 84.9287 118.321 85.0264 118.731 85.2217C119.146 85.417 119.486 85.6904 119.75 86.042C120.013 86.3887 120.208 86.7988 120.335 87.2725C120.462 87.7412 120.526 88.2539 120.526 88.8105V89.4185H114.608V88.3125H119.171V88.21C119.151 87.8584 119.078 87.5166 118.951 87.1846C118.829 86.8525 118.634 86.5791 118.365 86.3643C118.097 86.1494 117.73 86.042 117.267 86.042C116.959 86.042 116.676 86.1079 116.417 86.2397C116.158 86.3667 115.936 86.5571 115.75 86.811C115.565 87.0649 115.421 87.375 115.318 87.7412C115.216 88.1074 115.165 88.5298 115.165 89.0083V89.3159C115.165 89.6919 115.216 90.0459 115.318 90.3779C115.426 90.7051 115.58 90.9932 115.78 91.2422C115.985 91.4912 116.231 91.6865 116.52 91.8281C116.812 91.9697 117.145 92.0405 117.516 92.0405C117.994 92.0405 118.399 91.9429 118.731 91.7476C119.063 91.5522 119.354 91.291 119.603 90.9639L120.423 91.6157C120.252 91.8745 120.035 92.1211 119.771 92.3555C119.508 92.5898 119.183 92.7803 118.797 92.9268C118.417 93.0732 117.965 93.1465 117.442 93.1465ZM123.463 81.75V93H122.108V81.75H123.463ZM123.141 88.7373L122.577 88.7153C122.582 88.1733 122.662 87.6729 122.818 87.2139C122.975 86.75 123.194 86.3472 123.478 86.0054C123.761 85.6636 124.098 85.3999 124.488 85.2144C124.884 85.0239 125.321 84.9287 125.799 84.9287C126.19 84.9287 126.542 84.9824 126.854 85.0898C127.167 85.1924 127.433 85.3584 127.652 85.5879C127.877 85.8174 128.048 86.1152 128.165 86.4814C128.282 86.8428 128.341 87.2847 128.341 87.8071V93H126.979V87.7925C126.979 87.3774 126.917 87.0454 126.795 86.7964C126.673 86.5425 126.495 86.3594 126.261 86.2471C126.026 86.1299 125.738 86.0713 125.396 86.0713C125.06 86.0713 124.752 86.1421 124.474 86.2837C124.2 86.4253 123.963 86.6206 123.763 86.8696C123.568 87.1187 123.414 87.4043 123.302 87.7266C123.194 88.0439 123.141 88.3809 123.141 88.7373ZM130.011 89.1255V88.957C130.011 88.3857 130.094 87.856 130.26 87.3677C130.426 86.8745 130.665 86.4473 130.978 86.0859C131.29 85.7197 131.668 85.4365 132.113 85.2363C132.557 85.0312 133.055 84.9287 133.607 84.9287C134.164 84.9287 134.664 85.0312 135.108 85.2363C135.558 85.4365 135.938 85.7197 136.251 86.0859C136.568 86.4473 136.81 86.8745 136.976 87.3677C137.142 87.856 137.225 88.3857 137.225 88.957V89.1255C137.225 89.6968 137.142 90.2266 136.976 90.7148C136.81 91.2031 136.568 91.6304 136.251 91.9966C135.938 92.3579 135.56 92.6411 135.116 92.8462C134.676 93.0464 134.178 93.1465 133.622 93.1465C133.065 93.1465 132.564 93.0464 132.12 92.8462C131.676 92.6411 131.295 92.3579 130.978 91.9966C130.665 91.6304 130.426 91.2031 130.26 90.7148C130.094 90.2266 130.011 89.6968 130.011 89.1255ZM131.366 88.957V89.1255C131.366 89.521 131.412 89.8945 131.505 90.2461C131.598 90.5928 131.737 90.9004 131.922 91.1689C132.113 91.4375 132.35 91.6499 132.633 91.8062C132.916 91.9575 133.246 92.0332 133.622 92.0332C133.993 92.0332 134.317 91.9575 134.596 91.8062C134.879 91.6499 135.113 91.4375 135.299 91.1689C135.484 90.9004 135.624 90.5928 135.716 90.2461C135.814 89.8945 135.863 89.521 135.863 89.1255V88.957C135.863 88.5664 135.814 88.1978 135.716 87.8511C135.624 87.4995 135.482 87.1895 135.292 86.9209C135.106 86.6475 134.872 86.4326 134.588 86.2764C134.31 86.1201 133.983 86.042 133.607 86.042C133.236 86.042 132.909 86.1201 132.625 86.2764C132.347 86.4326 132.113 86.6475 131.922 86.9209C131.737 87.1895 131.598 87.4995 131.505 87.8511C131.412 88.1978 131.366 88.5664 131.366 88.957ZM140.396 81.75V93H139.034V81.75H140.396ZM147.567 91.4619V81.75H148.929V93H147.684L147.567 91.4619ZM142.235 89.1255V88.9717C142.235 88.3662 142.308 87.8169 142.455 87.3237C142.606 86.8257 142.818 86.3984 143.092 86.042C143.37 85.6855 143.7 85.4121 144.081 85.2217C144.466 85.0264 144.896 84.9287 145.37 84.9287C145.868 84.9287 146.302 85.0166 146.673 85.1924C147.049 85.3633 147.367 85.6147 147.625 85.9468C147.889 86.2739 148.097 86.6694 148.248 87.1333C148.399 87.5972 148.504 88.1221 148.563 88.708V89.3818C148.509 89.9629 148.404 90.4854 148.248 90.9492C148.097 91.4131 147.889 91.8086 147.625 92.1357C147.367 92.4629 147.049 92.7144 146.673 92.8901C146.297 93.061 145.858 93.1465 145.355 93.1465C144.891 93.1465 144.466 93.0464 144.081 92.8462C143.7 92.646 143.37 92.3652 143.092 92.0039C142.818 91.6426 142.606 91.2178 142.455 90.7295C142.308 90.2363 142.235 89.7017 142.235 89.1255ZM143.597 88.9717V89.1255C143.597 89.521 143.636 89.8921 143.714 90.2388C143.797 90.5854 143.924 90.8906 144.095 91.1543C144.266 91.418 144.483 91.6255 144.747 91.7769C145.011 91.9233 145.326 91.9966 145.692 91.9966C146.141 91.9966 146.51 91.9014 146.798 91.7109C147.091 91.5205 147.325 91.269 147.501 90.9565C147.677 90.644 147.813 90.3047 147.911 89.9385V88.1733C147.853 87.9048 147.767 87.646 147.655 87.397C147.547 87.1431 147.406 86.9185 147.23 86.7231C147.059 86.5229 146.847 86.3643 146.593 86.2471C146.344 86.1299 146.048 86.0713 145.707 86.0713C145.335 86.0713 145.016 86.1494 144.747 86.3057C144.483 86.457 144.266 86.667 144.095 86.9355C143.924 87.1992 143.797 87.5068 143.714 87.8584C143.636 88.2051 143.597 88.5762 143.597 88.9717ZM154.327 93.1465C153.775 93.1465 153.275 93.0537 152.826 92.8682C152.381 92.6777 151.998 92.4116 151.676 92.0698C151.358 91.728 151.114 91.3228 150.943 90.854C150.772 90.3853 150.687 89.8726 150.687 89.3159V89.0083C150.687 88.3638 150.782 87.79 150.973 87.2871C151.163 86.7793 151.422 86.3496 151.749 85.998C152.076 85.6465 152.447 85.3804 152.862 85.1997C153.277 85.019 153.707 84.9287 154.151 84.9287C154.718 84.9287 155.206 85.0264 155.616 85.2217C156.031 85.417 156.371 85.6904 156.634 86.042C156.898 86.3887 157.093 86.7988 157.22 87.2725C157.347 87.7412 157.411 88.2539 157.411 88.8105V89.4185H151.493V88.3125H156.056V88.21C156.036 87.8584 155.963 87.5166 155.836 87.1846C155.714 86.8525 155.519 86.5791 155.25 86.3643C154.981 86.1494 154.615 86.042 154.151 86.042C153.844 86.042 153.561 86.1079 153.302 86.2397C153.043 86.3667 152.821 86.5571 152.635 86.811C152.45 87.0649 152.306 87.375 152.203 87.7412C152.101 88.1074 152.049 88.5298 152.049 89.0083V89.3159C152.049 89.6919 152.101 90.0459 152.203 90.3779C152.311 90.7051 152.464 90.9932 152.665 91.2422C152.87 91.4912 153.116 91.6865 153.404 91.8281C153.697 91.9697 154.029 92.0405 154.4 92.0405C154.879 92.0405 155.284 91.9429 155.616 91.7476C155.948 91.5522 156.239 91.291 156.488 90.9639L157.308 91.6157C157.137 91.8745 156.92 92.1211 156.656 92.3555C156.393 92.5898 156.068 92.7803 155.682 92.9268C155.301 93.0732 154.85 93.1465 154.327 93.1465ZM160.348 86.3203V93H158.993V85.0752H160.311L160.348 86.3203ZM162.823 85.0312L162.816 86.291C162.704 86.2666 162.596 86.252 162.494 86.2471C162.396 86.2373 162.284 86.2324 162.157 86.2324C161.844 86.2324 161.568 86.2812 161.329 86.3789C161.09 86.4766 160.887 86.6133 160.721 86.7891C160.555 86.9648 160.423 87.1748 160.326 87.4189C160.233 87.6582 160.172 87.9219 160.143 88.21L159.762 88.4297C159.762 87.9512 159.808 87.502 159.901 87.082C159.999 86.6621 160.147 86.291 160.348 85.9688C160.548 85.6416 160.802 85.3877 161.109 85.207C161.422 85.0215 161.793 84.9287 162.223 84.9287C162.32 84.9287 162.433 84.9409 162.56 84.9653C162.687 84.9849 162.774 85.0068 162.823 85.0312Z" fill="#737373"/>
<rect x="40.5" y="68.5" width="339" height="39" rx="3.5" stroke="#AAAAAA"/>
<path d="M423.047 46.3359V57H421.208V46.3359H423.047ZM428.394 55.7402C428.682 55.7402 428.94 55.6841 429.17 55.5718C429.404 55.4546 429.592 55.2935 429.734 55.0884C429.88 54.8833 429.961 54.6465 429.976 54.3779H431.638C431.628 54.8906 431.477 55.3569 431.184 55.7769C430.891 56.1968 430.503 56.5312 430.02 56.7803C429.536 57.0244 429.001 57.1465 428.416 57.1465C427.81 57.1465 427.283 57.0439 426.833 56.8389C426.384 56.6289 426.011 56.3408 425.713 55.9746C425.415 55.6084 425.19 55.186 425.039 54.7075C424.893 54.229 424.819 53.7163 424.819 53.1694V52.9131C424.819 52.3662 424.893 51.8535 425.039 51.375C425.19 50.8916 425.415 50.4668 425.713 50.1006C426.011 49.7344 426.384 49.4487 426.833 49.2437C427.283 49.0337 427.808 48.9287 428.408 48.9287C429.043 48.9287 429.6 49.0557 430.078 49.3096C430.557 49.5586 430.933 49.9077 431.206 50.3569C431.484 50.8013 431.628 51.3188 431.638 51.9097H429.976C429.961 51.6167 429.888 51.353 429.756 51.1187C429.629 50.8794 429.448 50.689 429.214 50.5474C428.984 50.4058 428.708 50.335 428.386 50.335C428.03 50.335 427.734 50.4082 427.5 50.5547C427.266 50.6963 427.083 50.8916 426.951 51.1406C426.819 51.3848 426.724 51.6606 426.665 51.9683C426.611 52.271 426.584 52.5859 426.584 52.9131V53.1694C426.584 53.4966 426.611 53.814 426.665 54.1216C426.719 54.4292 426.812 54.7051 426.943 54.9492C427.08 55.1885 427.266 55.3813 427.5 55.5278C427.734 55.6694 428.032 55.7402 428.394 55.7402ZM432.656 53.1255V52.957C432.656 52.3857 432.739 51.856 432.905 51.3677C433.071 50.8745 433.311 50.4473 433.623 50.0859C433.94 49.7197 434.326 49.4365 434.78 49.2363C435.239 49.0312 435.757 48.9287 436.333 48.9287C436.914 48.9287 437.432 49.0312 437.886 49.2363C438.345 49.4365 438.733 49.7197 439.05 50.0859C439.368 50.4473 439.609 50.8745 439.775 51.3677C439.941 51.856 440.024 52.3857 440.024 52.957V53.1255C440.024 53.6968 439.941 54.2266 439.775 54.7148C439.609 55.2031 439.368 55.6304 439.05 55.9966C438.733 56.3579 438.347 56.6411 437.893 56.8462C437.439 57.0464 436.924 57.1465 436.348 57.1465C435.767 57.1465 435.247 57.0464 434.788 56.8462C434.333 56.6411 433.948 56.3579 433.63 55.9966C433.313 55.6304 433.071 55.2031 432.905 54.7148C432.739 54.2266 432.656 53.6968 432.656 53.1255ZM434.421 52.957V53.1255C434.421 53.4819 434.458 53.8188 434.531 54.1362C434.604 54.4536 434.719 54.7319 434.875 54.9712C435.032 55.2104 435.232 55.3984 435.476 55.5352C435.72 55.6719 436.011 55.7402 436.348 55.7402C436.675 55.7402 436.958 55.6719 437.197 55.5352C437.441 55.3984 437.642 55.2104 437.798 54.9712C437.954 54.7319 438.069 54.4536 438.142 54.1362C438.22 53.8188 438.259 53.4819 438.259 53.1255V52.957C438.259 52.6055 438.22 52.2734 438.142 51.9609C438.069 51.6436 437.952 51.3628 437.791 51.1187C437.634 50.8745 437.434 50.6841 437.19 50.5474C436.951 50.4058 436.665 50.335 436.333 50.335C436.001 50.335 435.713 50.4058 435.469 50.5474C435.229 50.6841 435.032 50.8745 434.875 51.1187C434.719 51.3628 434.604 51.6436 434.531 51.9609C434.458 52.2734 434.421 52.6055 434.421 52.957ZM443.254 50.7671V57H441.489V49.0752H443.152L443.254 50.7671ZM442.939 52.7446L442.368 52.7373C442.373 52.1758 442.451 51.6606 442.603 51.1919C442.759 50.7231 442.974 50.3203 443.247 49.9834C443.525 49.6465 443.857 49.3877 444.243 49.207C444.629 49.0215 445.059 48.9287 445.532 48.9287C445.913 48.9287 446.257 48.9824 446.565 49.0898C446.877 49.1924 447.144 49.3608 447.363 49.5952C447.588 49.8296 447.759 50.1348 447.876 50.5107C447.993 50.8818 448.052 51.3384 448.052 51.8804V57H446.279V51.873C446.279 51.4922 446.223 51.1919 446.111 50.9722C446.003 50.7476 445.845 50.5889 445.635 50.4961C445.43 50.3984 445.173 50.3496 444.866 50.3496C444.563 50.3496 444.292 50.4131 444.053 50.54C443.813 50.667 443.611 50.8403 443.445 51.0601C443.284 51.2798 443.159 51.5337 443.071 51.8218C442.983 52.1099 442.939 52.4175 442.939 52.7446ZM455.361 50.584V57H453.596V49.0752H455.281L455.361 50.584ZM457.786 49.0239L457.771 50.6646C457.664 50.645 457.546 50.6304 457.419 50.6206C457.297 50.6108 457.175 50.606 457.053 50.606C456.75 50.606 456.484 50.6499 456.255 50.7378C456.025 50.8208 455.833 50.9429 455.676 51.104C455.525 51.2603 455.408 51.4507 455.325 51.6753C455.242 51.8999 455.193 52.1514 455.178 52.4297L454.775 52.459C454.775 51.9609 454.824 51.4995 454.922 51.0747C455.02 50.6499 455.166 50.2764 455.361 49.9541C455.562 49.6318 455.811 49.3804 456.108 49.1997C456.411 49.019 456.76 48.9287 457.156 48.9287C457.263 48.9287 457.378 48.9385 457.5 48.958C457.627 48.9775 457.722 48.9995 457.786 49.0239ZM460.781 49.0752V57H459.009V49.0752H460.781ZM458.892 46.9951C458.892 46.7266 458.979 46.5044 459.155 46.3286C459.336 46.1479 459.585 46.0576 459.902 46.0576C460.215 46.0576 460.461 46.1479 460.642 46.3286C460.823 46.5044 460.913 46.7266 460.913 46.9951C460.913 47.2588 460.823 47.4785 460.642 47.6543C460.461 47.8301 460.215 47.918 459.902 47.918C459.585 47.918 459.336 47.8301 459.155 47.6543C458.979 47.4785 458.892 47.2588 458.892 46.9951ZM467.791 49.0752H469.395V56.7803C469.395 57.4932 469.243 58.0986 468.94 58.5967C468.638 59.0947 468.215 59.4731 467.673 59.7319C467.131 59.9956 466.504 60.1274 465.791 60.1274C465.488 60.1274 465.151 60.0835 464.78 59.9956C464.414 59.9077 464.058 59.7661 463.711 59.5708C463.369 59.3804 463.083 59.1289 462.854 58.8164L463.682 57.7764C463.965 58.1133 464.277 58.3599 464.619 58.5161C464.961 58.6724 465.32 58.7505 465.696 58.7505C466.101 58.7505 466.445 58.6748 466.729 58.5234C467.017 58.377 467.239 58.1597 467.395 57.8716C467.551 57.5835 467.629 57.2319 467.629 56.8169V50.8696L467.791 49.0752ZM462.407 53.1255V52.9717C462.407 52.3711 462.48 51.8242 462.627 51.3311C462.773 50.833 462.983 50.4058 463.257 50.0493C463.53 49.688 463.862 49.4121 464.253 49.2217C464.644 49.0264 465.085 48.9287 465.579 48.9287C466.091 48.9287 466.528 49.0215 466.89 49.207C467.256 49.3926 467.561 49.6587 467.805 50.0054C468.049 50.3472 468.24 50.7573 468.376 51.2358C468.518 51.7095 468.623 52.2368 468.691 52.8179V53.3086C468.628 53.875 468.521 54.3926 468.369 54.8613C468.218 55.3301 468.018 55.7354 467.769 56.0771C467.52 56.4189 467.212 56.6826 466.846 56.8682C466.484 57.0537 466.057 57.1465 465.564 57.1465C465.081 57.1465 464.644 57.0464 464.253 56.8462C463.867 56.646 463.535 56.3652 463.257 56.0039C462.983 55.6426 462.773 55.2178 462.627 54.7295C462.48 54.2363 462.407 53.7017 462.407 53.1255ZM464.172 52.9717V53.1255C464.172 53.4868 464.207 53.8237 464.275 54.1362C464.348 54.4487 464.458 54.7246 464.604 54.9639C464.756 55.1982 464.946 55.3838 465.176 55.5205C465.41 55.6523 465.686 55.7183 466.003 55.7183C466.418 55.7183 466.758 55.6304 467.021 55.4546C467.29 55.2788 467.495 55.042 467.637 54.7441C467.783 54.4414 467.886 54.1045 467.944 53.7334V52.4077C467.915 52.1196 467.854 51.8511 467.761 51.6021C467.673 51.353 467.554 51.1357 467.402 50.9502C467.251 50.7598 467.061 50.6133 466.831 50.5107C466.602 50.4033 466.331 50.3496 466.018 50.3496C465.701 50.3496 465.425 50.418 465.19 50.5547C464.956 50.6914 464.763 50.8794 464.612 51.1187C464.465 51.3579 464.355 51.6362 464.282 51.9536C464.209 52.271 464.172 52.6104 464.172 52.9717ZM472.969 45.75V57H471.211V45.75H472.969ZM472.661 52.7446L472.09 52.7373C472.095 52.1904 472.17 51.6851 472.317 51.2212C472.468 50.7573 472.678 50.3545 472.947 50.0127C473.22 49.666 473.547 49.3999 473.928 49.2144C474.309 49.0239 474.731 48.9287 475.195 48.9287C475.586 48.9287 475.938 48.9824 476.25 49.0898C476.567 49.1973 476.841 49.3706 477.07 49.6099C477.3 49.8442 477.473 50.1519 477.59 50.5327C477.712 50.9087 477.773 51.3677 477.773 51.9097V57H476.001V51.895C476.001 51.5142 475.945 51.2114 475.833 50.9868C475.725 50.7622 475.566 50.6011 475.356 50.5034C475.146 50.4009 474.89 50.3496 474.587 50.3496C474.27 50.3496 473.989 50.4131 473.745 50.54C473.506 50.667 473.306 50.8403 473.145 51.0601C472.983 51.2798 472.861 51.5337 472.778 51.8218C472.7 52.1099 472.661 52.4175 472.661 52.7446ZM483.193 49.0752V50.3643H478.726V49.0752H483.193ZM480.015 47.1343H481.78V54.8101C481.78 55.0542 481.814 55.2422 481.882 55.374C481.956 55.501 482.056 55.5864 482.183 55.6304C482.31 55.6743 482.458 55.6963 482.629 55.6963C482.751 55.6963 482.869 55.689 482.981 55.6743C483.093 55.6597 483.184 55.645 483.252 55.6304L483.259 56.978C483.113 57.022 482.942 57.061 482.747 57.0952C482.556 57.1294 482.336 57.1465 482.087 57.1465C481.682 57.1465 481.323 57.0757 481.011 56.9341C480.698 56.7876 480.454 56.5508 480.278 56.2236C480.103 55.8965 480.015 55.4619 480.015 54.9199V47.1343Z" fill="#505050"/>
<rect x="420.5" y="68.5" width="339" height="39" rx="3.5" fill="white"/>
<path d="M441.171 88.8179H438.322V87.668H441.171C441.723 87.668 442.169 87.5801 442.511 87.4043C442.853 87.2285 443.102 86.9844 443.258 86.6719C443.419 86.3594 443.5 86.0029 443.5 85.6025C443.5 85.2363 443.419 84.8921 443.258 84.5698C443.102 84.2476 442.853 83.9888 442.511 83.7935C442.169 83.5933 441.723 83.4932 441.171 83.4932H438.651V93H437.238V82.3359H441.171C441.977 82.3359 442.658 82.4751 443.214 82.7534C443.771 83.0317 444.193 83.4175 444.481 83.9106C444.77 84.3989 444.914 84.958 444.914 85.5879C444.914 86.2715 444.77 86.855 444.481 87.3384C444.193 87.8218 443.771 88.1904 443.214 88.4443C442.658 88.6934 441.977 88.8179 441.171 88.8179ZM447.968 81.75V93H446.605V81.75H447.968ZM454.816 91.645V87.5654C454.816 87.2529 454.752 86.9819 454.625 86.7524C454.503 86.5181 454.318 86.3374 454.069 86.2104C453.82 86.0835 453.512 86.02 453.146 86.02C452.804 86.02 452.504 86.0786 452.245 86.1958C451.991 86.313 451.791 86.4668 451.645 86.6572C451.503 86.8477 451.432 87.0527 451.432 87.2725H450.077C450.077 86.9893 450.15 86.7085 450.297 86.4302C450.443 86.1519 450.653 85.9004 450.927 85.6758C451.205 85.4463 451.537 85.2656 451.923 85.1338C452.313 84.9971 452.748 84.9287 453.227 84.9287C453.803 84.9287 454.311 85.0264 454.75 85.2217C455.194 85.417 455.541 85.7124 455.79 86.1079C456.044 86.4985 456.171 86.9893 456.171 87.5801V91.2715C456.171 91.5352 456.193 91.8159 456.237 92.1138C456.286 92.4116 456.356 92.668 456.449 92.8828V93H455.036C454.967 92.8438 454.914 92.6362 454.875 92.3774C454.835 92.1138 454.816 91.8696 454.816 91.645ZM455.05 88.1953L455.065 89.1475H453.695C453.31 89.1475 452.965 89.1792 452.663 89.2427C452.36 89.3013 452.106 89.3916 451.901 89.5137C451.696 89.6357 451.54 89.7896 451.432 89.9751C451.325 90.1558 451.271 90.3682 451.271 90.6123C451.271 90.8613 451.327 91.0884 451.439 91.2935C451.552 91.4985 451.72 91.6621 451.945 91.7842C452.174 91.9014 452.455 91.96 452.787 91.96C453.202 91.96 453.568 91.8721 453.886 91.6963C454.203 91.5205 454.455 91.3057 454.64 91.0518C454.831 90.7979 454.933 90.5513 454.948 90.312L455.526 90.9639C455.492 91.1689 455.399 91.396 455.248 91.645C455.097 91.894 454.894 92.1333 454.64 92.3628C454.391 92.5874 454.093 92.7754 453.747 92.9268C453.405 93.0732 453.019 93.1465 452.589 93.1465C452.052 93.1465 451.581 93.0415 451.176 92.8315C450.775 92.6216 450.463 92.3408 450.238 91.9893C450.019 91.6328 449.909 91.2349 449.909 90.7954C449.909 90.3706 449.992 89.9971 450.158 89.6748C450.324 89.3477 450.563 89.0767 450.875 88.8618C451.188 88.6421 451.564 88.4761 452.003 88.3638C452.443 88.2515 452.934 88.1953 453.476 88.1953H455.05ZM461.474 92.0332C461.796 92.0332 462.094 91.9673 462.367 91.8354C462.641 91.7036 462.865 91.5229 463.041 91.2935C463.217 91.0591 463.317 90.793 463.341 90.4951H464.63C464.606 90.9639 464.447 91.4009 464.154 91.8062C463.866 92.2065 463.488 92.5312 463.019 92.7803C462.55 93.0244 462.035 93.1465 461.474 93.1465C460.878 93.1465 460.358 93.0415 459.914 92.8315C459.474 92.6216 459.108 92.3335 458.815 91.9673C458.527 91.6011 458.31 91.1812 458.163 90.7075C458.021 90.229 457.951 89.7236 457.951 89.1914V88.8838C457.951 88.3516 458.021 87.8486 458.163 87.375C458.31 86.8965 458.527 86.4741 458.815 86.1079C459.108 85.7417 459.474 85.4536 459.914 85.2437C460.358 85.0337 460.878 84.9287 461.474 84.9287C462.094 84.9287 462.636 85.0557 463.1 85.3096C463.563 85.5586 463.927 85.9004 464.191 86.335C464.459 86.7646 464.606 87.2529 464.63 87.7998H463.341C463.317 87.4727 463.224 87.1772 463.063 86.9136C462.907 86.6499 462.692 86.4399 462.418 86.2837C462.15 86.1226 461.835 86.042 461.474 86.042C461.059 86.042 460.709 86.125 460.426 86.291C460.148 86.4521 459.926 86.6719 459.76 86.9502C459.599 87.2236 459.481 87.5288 459.408 87.8657C459.34 88.1978 459.306 88.5371 459.306 88.8838V89.1914C459.306 89.5381 459.34 89.8799 459.408 90.2168C459.477 90.5537 459.591 90.8589 459.752 91.1323C459.918 91.4058 460.141 91.6255 460.419 91.7915C460.702 91.9526 461.054 92.0332 461.474 92.0332ZM469.442 93.1465C468.891 93.1465 468.39 93.0537 467.941 92.8682C467.497 92.6777 467.113 92.4116 466.791 92.0698C466.474 91.728 466.229 91.3228 466.059 90.854C465.888 90.3853 465.802 89.8726 465.802 89.3159V89.0083C465.802 88.3638 465.897 87.79 466.088 87.2871C466.278 86.7793 466.537 86.3496 466.864 85.998C467.191 85.6465 467.562 85.3804 467.978 85.1997C468.393 85.019 468.822 84.9287 469.267 84.9287C469.833 84.9287 470.321 85.0264 470.731 85.2217C471.146 85.417 471.486 85.6904 471.75 86.042C472.013 86.3887 472.208 86.7988 472.335 87.2725C472.462 87.7412 472.526 88.2539 472.526 88.8105V89.4185H466.608V88.3125H471.171V88.21C471.151 87.8584 471.078 87.5166 470.951 87.1846C470.829 86.8525 470.634 86.5791 470.365 86.3643C470.097 86.1494 469.73 86.042 469.267 86.042C468.959 86.042 468.676 86.1079 468.417 86.2397C468.158 86.3667 467.936 86.5571 467.75 86.811C467.565 87.0649 467.421 87.375 467.318 87.7412C467.216 88.1074 467.165 88.5298 467.165 89.0083V89.3159C467.165 89.6919 467.216 90.0459 467.318 90.3779C467.426 90.7051 467.58 90.9932 467.78 91.2422C467.985 91.4912 468.231 91.6865 468.52 91.8281C468.812 91.9697 469.145 92.0405 469.516 92.0405C469.994 92.0405 470.399 91.9429 470.731 91.7476C471.063 91.5522 471.354 91.291 471.603 90.9639L472.423 91.6157C472.252 91.8745 472.035 92.1211 471.771 92.3555C471.508 92.5898 471.183 92.7803 470.797 92.9268C470.417 93.0732 469.965 93.1465 469.442 93.1465ZM475.463 81.75V93H474.108V81.75H475.463ZM475.141 88.7373L474.577 88.7153C474.582 88.1733 474.662 87.6729 474.818 87.2139C474.975 86.75 475.194 86.3472 475.478 86.0054C475.761 85.6636 476.098 85.3999 476.488 85.2144C476.884 85.0239 477.321 84.9287 477.799 84.9287C478.19 84.9287 478.542 84.9824 478.854 85.0898C479.167 85.1924 479.433 85.3584 479.652 85.5879C479.877 85.8174 480.048 86.1152 480.165 86.4814C480.282 86.8428 480.341 87.2847 480.341 87.8071V93H478.979V87.7925C478.979 87.3774 478.917 87.0454 478.795 86.7964C478.673 86.5425 478.495 86.3594 478.261 86.2471C478.026 86.1299 477.738 86.0713 477.396 86.0713C477.06 86.0713 476.752 86.1421 476.474 86.2837C476.2 86.4253 475.963 86.6206 475.763 86.8696C475.568 87.1187 475.414 87.4043 475.302 87.7266C475.194 88.0439 475.141 88.3809 475.141 88.7373ZM482.011 89.1255V88.957C482.011 88.3857 482.094 87.856 482.26 87.3677C482.426 86.8745 482.665 86.4473 482.978 86.0859C483.29 85.7197 483.668 85.4365 484.113 85.2363C484.557 85.0312 485.055 84.9287 485.607 84.9287C486.164 84.9287 486.664 85.0312 487.108 85.2363C487.558 85.4365 487.938 85.7197 488.251 86.0859C488.568 86.4473 488.81 86.8745 488.976 87.3677C489.142 87.856 489.225 88.3857 489.225 88.957V89.1255C489.225 89.6968 489.142 90.2266 488.976 90.7148C488.81 91.2031 488.568 91.6304 488.251 91.9966C487.938 92.3579 487.56 92.6411 487.116 92.8462C486.676 93.0464 486.178 93.1465 485.622 93.1465C485.065 93.1465 484.564 93.0464 484.12 92.8462C483.676 92.6411 483.295 92.3579 482.978 91.9966C482.665 91.6304 482.426 91.2031 482.26 90.7148C482.094 90.2266 482.011 89.6968 482.011 89.1255ZM483.366 88.957V89.1255C483.366 89.521 483.412 89.8945 483.505 90.2461C483.598 90.5928 483.737 90.9004 483.922 91.1689C484.113 91.4375 484.35 91.6499 484.633 91.8062C484.916 91.9575 485.246 92.0332 485.622 92.0332C485.993 92.0332 486.317 91.9575 486.596 91.8062C486.879 91.6499 487.113 91.4375 487.299 91.1689C487.484 90.9004 487.624 90.5928 487.716 90.2461C487.814 89.8945 487.863 89.521 487.863 89.1255V88.957C487.863 88.5664 487.814 88.1978 487.716 87.8511C487.624 87.4995 487.482 87.1895 487.292 86.9209C487.106 86.6475 486.872 86.4326 486.588 86.2764C486.31 86.1201 485.983 86.042 485.607 86.042C485.236 86.042 484.909 86.1201 484.625 86.2764C484.347 86.4326 484.113 86.6475 483.922 86.9209C483.737 87.1895 483.598 87.4995 483.505 87.8511C483.412 88.1978 483.366 88.5664 483.366 88.957ZM492.396 81.75V93H491.034V81.75H492.396ZM499.567 91.4619V81.75H500.929V93H499.684L499.567 91.4619ZM494.235 89.1255V88.9717C494.235 88.3662 494.308 87.8169 494.455 87.3237C494.606 86.8257 494.818 86.3984 495.092 86.042C495.37 85.6855 495.7 85.4121 496.081 85.2217C496.466 85.0264 496.896 84.9287 497.37 84.9287C497.868 84.9287 498.302 85.0166 498.673 85.1924C499.049 85.3633 499.367 85.6147 499.625 85.9468C499.889 86.2739 500.097 86.6694 500.248 87.1333C500.399 87.5972 500.504 88.1221 500.563 88.708V89.3818C500.509 89.9629 500.404 90.4854 500.248 90.9492C500.097 91.4131 499.889 91.8086 499.625 92.1357C499.367 92.4629 499.049 92.7144 498.673 92.8901C498.297 93.061 497.858 93.1465 497.355 93.1465C496.891 93.1465 496.466 93.0464 496.081 92.8462C495.7 92.646 495.37 92.3652 495.092 92.0039C494.818 91.6426 494.606 91.2178 494.455 90.7295C494.308 90.2363 494.235 89.7017 494.235 89.1255ZM495.597 88.9717V89.1255C495.597 89.521 495.636 89.8921 495.714 90.2388C495.797 90.5854 495.924 90.8906 496.095 91.1543C496.266 91.418 496.483 91.6255 496.747 91.7769C497.011 91.9233 497.326 91.9966 497.692 91.9966C498.141 91.9966 498.51 91.9014 498.798 91.7109C499.091 91.5205 499.325 91.269 499.501 90.9565C499.677 90.644 499.813 90.3047 499.911 89.9385V88.1733C499.853 87.9048 499.767 87.646 499.655 87.397C499.547 87.1431 499.406 86.9185 499.23 86.7231C499.059 86.5229 498.847 86.3643 498.593 86.2471C498.344 86.1299 498.048 86.0713 497.707 86.0713C497.335 86.0713 497.016 86.1494 496.747 86.3057C496.483 86.457 496.266 86.667 496.095 86.9355C495.924 87.1992 495.797 87.5068 495.714 87.8584C495.636 88.2051 495.597 88.5762 495.597 88.9717ZM506.327 93.1465C505.775 93.1465 505.275 93.0537 504.826 92.8682C504.381 92.6777 503.998 92.4116 503.676 92.0698C503.358 91.728 503.114 91.3228 502.943 90.854C502.772 90.3853 502.687 89.8726 502.687 89.3159V89.0083C502.687 88.3638 502.782 87.79 502.973 87.2871C503.163 86.7793 503.422 86.3496 503.749 85.998C504.076 85.6465 504.447 85.3804 504.862 85.1997C505.277 85.019 505.707 84.9287 506.151 84.9287C506.718 84.9287 507.206 85.0264 507.616 85.2217C508.031 85.417 508.371 85.6904 508.634 86.042C508.898 86.3887 509.093 86.7988 509.22 87.2725C509.347 87.7412 509.411 88.2539 509.411 88.8105V89.4185H503.493V88.3125H508.056V88.21C508.036 87.8584 507.963 87.5166 507.836 87.1846C507.714 86.8525 507.519 86.5791 507.25 86.3643C506.981 86.1494 506.615 86.042 506.151 86.042C505.844 86.042 505.561 86.1079 505.302 86.2397C505.043 86.3667 504.821 86.5571 504.635 86.811C504.45 87.0649 504.306 87.375 504.203 87.7412C504.101 88.1074 504.049 88.5298 504.049 89.0083V89.3159C504.049 89.6919 504.101 90.0459 504.203 90.3779C504.311 90.7051 504.464 90.9932 504.665 91.2422C504.87 91.4912 505.116 91.6865 505.404 91.8281C505.697 91.9697 506.029 92.0405 506.4 92.0405C506.879 92.0405 507.284 91.9429 507.616 91.7476C507.948 91.5522 508.239 91.291 508.488 90.9639L509.308 91.6157C509.137 91.8745 508.92 92.1211 508.656 92.3555C508.393 92.5898 508.068 92.7803 507.682 92.9268C507.301 93.0732 506.85 93.1465 506.327 93.1465ZM512.348 86.3203V93H510.993V85.0752H512.311L512.348 86.3203ZM514.823 85.0312L514.816 86.291C514.704 86.2666 514.596 86.252 514.494 86.2471C514.396 86.2373 514.284 86.2324 514.157 86.2324C513.844 86.2324 513.568 86.2812 513.329 86.3789C513.09 86.4766 512.887 86.6133 512.721 86.7891C512.555 86.9648 512.423 87.1748 512.326 87.4189C512.233 87.6582 512.172 87.9219 512.143 88.21L511.762 88.4297C511.762 87.9512 511.808 87.502 511.901 87.082C511.999 86.6621 512.147 86.291 512.348 85.9688C512.548 85.6416 512.802 85.3877 513.109 85.207C513.422 85.0215 513.793 84.9287 514.223 84.9287C514.32 84.9287 514.433 84.9409 514.56 84.9653C514.687 84.9849 514.774 85.0068 514.823 85.0312Z" fill="#737373"/>
<path d="M737.714 89.6875H734.286C730.814 89.6875 728 92.4578 728 95.875C728 96.4962 728.512 97 729.143 97H742.857C743.488 97 744 96.4962 744 95.875C744 92.4578 741.186 89.6875 737.714 89.6875ZM729.75 95.3125C730.032 93.0941 731.957 91.375 734.286 91.375H737.714C740.041 91.375 741.968 93.0959 742.25 95.3125H729.75ZM736 88C738.525 88 740.571 85.9852 740.571 83.5C740.571 81.0148 738.525 79 736 79C733.475 79 731.429 81.0148 731.429 83.5C731.429 85.9855 733.475 88 736 88ZM736 80.6875C737.575 80.6875 738.857 81.9493 738.857 83.5C738.857 85.0507 737.575 86.3125 736 86.3125C734.425 86.3125 733.143 85.0504 733.143 83.5C733.143 81.9493 734.425 80.6875 736 80.6875Z" fill="#737373"/>
<rect x="420.5" y="68.5" width="339" height="39" rx="3.5" stroke="#AAAAAA"/>
</svg>
