<svg width="640" height="192" viewBox="0 0 640 192" fill="none" xmlns="http://www.w3.org/2000/svg">
<g clip-path="url(#clip0_8209_90995)">
<g clip-path="url(#clip1_8209_90995)">
<rect width="320" height="44" fill="#F8F8F8"/>
<path d="M37.3984 22.9912H38.9854C38.9346 23.5964 38.7653 24.1359 38.4775 24.6099C38.1898 25.0796 37.7856 25.4499 37.2651 25.7207C36.7446 25.9915 36.112 26.127 35.3672 26.127C34.7959 26.127 34.2817 26.0254 33.8247 25.8223C33.3677 25.6149 32.9762 25.3229 32.6504 24.9463C32.3245 24.5654 32.0749 24.1063 31.9014 23.5688C31.7321 23.0314 31.6475 22.4305 31.6475 21.7661V20.998C31.6475 20.3337 31.7342 19.7327 31.9077 19.1953C32.0854 18.6579 32.3394 18.1987 32.6694 17.8179C32.9995 17.4328 33.3952 17.1387 33.8564 16.9355C34.3219 16.7324 34.8446 16.6309 35.4243 16.6309C36.1606 16.6309 36.7827 16.7663 37.2905 17.0371C37.7983 17.3079 38.1919 17.6825 38.4712 18.1606C38.7547 18.6388 38.9282 19.1868 38.9917 19.8047H37.4048C37.3625 19.4069 37.2694 19.0662 37.1255 18.7827C36.9858 18.4992 36.7785 18.2834 36.5034 18.1353C36.2284 17.9829 35.8687 17.9067 35.4243 17.9067C35.0604 17.9067 34.743 17.9744 34.4722 18.1099C34.2013 18.2453 33.9749 18.4442 33.793 18.7065C33.611 18.9689 33.4735 19.2926 33.3804 19.6777C33.2915 20.0586 33.2471 20.4945 33.2471 20.9854V21.7661C33.2471 22.2316 33.2873 22.6548 33.3677 23.0356C33.4523 23.4123 33.5793 23.736 33.7485 24.0068C33.922 24.2777 34.1421 24.4871 34.4087 24.6353C34.6753 24.7834 34.9948 24.8574 35.3672 24.8574C35.82 24.8574 36.186 24.7855 36.4653 24.6416C36.7489 24.4977 36.9626 24.2882 37.1064 24.0132C37.2546 23.7339 37.3519 23.3932 37.3984 22.9912ZM47.2217 24.7368V26H42.5815V24.7368H47.2217ZM43.0259 16.7578V26H41.4326V16.7578H43.0259ZM55.5024 24.7368V26H50.5957V24.7368H55.5024ZM51.0464 16.7578V26H49.4531V16.7578H51.0464ZM54.8613 20.6172V21.8613H50.5957V20.6172H54.8613ZM55.4707 16.7578V18.0273H50.5957V16.7578H55.4707ZM61.4028 17.9893L58.6416 26H56.9722L60.4507 16.7578H61.5171L61.4028 17.9893ZM63.7134 26L60.9458 17.9893L60.8252 16.7578H61.8979L65.3892 26H63.7134ZM63.5801 22.5723V23.8354H58.5527V22.5723H63.5801ZM67.4238 16.7578H70.6929C71.3953 16.7578 71.9941 16.8636 72.4893 17.0752C72.9844 17.2868 73.3631 17.5999 73.6255 18.0146C73.8921 18.4251 74.0254 18.9329 74.0254 19.5381C74.0254 19.9993 73.9408 20.4056 73.7715 20.7568C73.6022 21.1081 73.3631 21.4043 73.0542 21.6455C72.7453 21.8825 72.3771 22.0666 71.9497 22.1978L71.4673 22.4326H68.5283L68.5156 21.1694H70.7183C71.0991 21.1694 71.4165 21.1017 71.6704 20.9663C71.9243 20.8309 72.1147 20.6468 72.2417 20.4141C72.3729 20.1771 72.4385 19.9105 72.4385 19.6143C72.4385 19.2926 72.375 19.0133 72.248 18.7764C72.1253 18.5352 71.9349 18.3511 71.6768 18.2241C71.4186 18.0929 71.0907 18.0273 70.6929 18.0273H69.0171V26H67.4238V16.7578ZM72.6987 26L70.5278 21.8486L72.1973 21.8423L74.3999 25.9175V26H72.6987ZM82.5508 16.7578V26H80.9575V16.7578H82.5508ZM90.9902 22.9912H92.5771C92.5264 23.5964 92.3571 24.1359 92.0693 24.6099C91.7816 25.0796 91.3774 25.4499 90.8569 25.7207C90.3364 25.9915 89.7038 26.127 88.959 26.127C88.3877 26.127 87.8735 26.0254 87.4165 25.8223C86.9595 25.6149 86.568 25.3229 86.2422 24.9463C85.9163 24.5654 85.6667 24.1063 85.4932 23.5688C85.3239 23.0314 85.2393 22.4305 85.2393 21.7661V20.998C85.2393 20.3337 85.326 19.7327 85.4995 19.1953C85.6772 18.6579 85.9312 18.1987 86.2612 17.8179C86.5913 17.4328 86.987 17.1387 87.4482 16.9355C87.9137 16.7324 88.4364 16.6309 89.0161 16.6309C89.7524 16.6309 90.3745 16.7663 90.8823 17.0371C91.3901 17.3079 91.7837 17.6825 92.063 18.1606C92.3465 18.6388 92.52 19.1868 92.5835 19.8047H90.9966C90.9543 19.4069 90.8612 19.0662 90.7173 18.7827C90.5776 18.4992 90.3703 18.2834 90.0952 18.1353C89.8201 17.9829 89.4604 17.9067 89.0161 17.9067C88.6522 17.9067 88.3348 17.9744 88.064 18.1099C87.7931 18.2453 87.5667 18.4442 87.3848 18.7065C87.2028 18.9689 87.0653 19.2926 86.9722 19.6777C86.8833 20.0586 86.8389 20.4945 86.8389 20.9854V21.7661C86.8389 22.2316 86.8791 22.6548 86.9595 23.0356C87.0441 23.4123 87.1711 23.736 87.3403 24.0068C87.5138 24.2777 87.7339 24.4871 88.0005 24.6353C88.2671 24.7834 88.5866 24.8574 88.959 24.8574C89.4118 24.8574 89.7778 24.7855 90.0571 24.6416C90.3407 24.4977 90.5544 24.2882 90.6982 24.0132C90.8464 23.7339 90.9437 23.3932 90.9902 22.9912ZM102.394 21.125V21.6328C102.394 22.3311 102.303 22.9574 102.121 23.5117C101.939 24.0661 101.679 24.5379 101.34 24.9272C101.006 25.3166 100.604 25.6149 100.134 25.8223C99.6646 26.0254 99.144 26.127 98.5728 26.127C98.0057 26.127 97.4873 26.0254 97.0176 25.8223C96.5521 25.6149 96.1479 25.3166 95.8052 24.9272C95.4624 24.5379 95.1958 24.0661 95.0054 23.5117C94.8192 22.9574 94.7261 22.3311 94.7261 21.6328V21.125C94.7261 20.4268 94.8192 19.8026 95.0054 19.2524C95.1916 18.6981 95.4539 18.2262 95.7925 17.8369C96.1353 17.4434 96.5394 17.145 97.0049 16.9419C97.4746 16.7345 97.993 16.6309 98.5601 16.6309C99.1313 16.6309 99.6519 16.7345 100.122 16.9419C100.591 17.145 100.995 17.4434 101.334 17.8369C101.673 18.2262 101.933 18.6981 102.115 19.2524C102.301 19.8026 102.394 20.4268 102.394 21.125ZM100.801 21.6328V21.1123C100.801 20.596 100.75 20.1411 100.648 19.7476C100.551 19.3498 100.405 19.0176 100.21 18.751C100.02 18.4801 99.7852 18.277 99.5059 18.1416C99.2266 18.002 98.9113 17.9321 98.5601 17.9321C98.2088 17.9321 97.8957 18.002 97.6206 18.1416C97.3455 18.277 97.1107 18.4801 96.916 18.751C96.7256 19.0176 96.5796 19.3498 96.478 19.7476C96.3765 20.1411 96.3257 20.596 96.3257 21.1123V21.6328C96.3257 22.1491 96.3765 22.6061 96.478 23.0039C96.5796 23.4017 96.7277 23.7381 96.9224 24.0132C97.1213 24.284 97.3582 24.4893 97.6333 24.6289C97.9084 24.7643 98.2215 24.832 98.5728 24.832C98.9282 24.832 99.2435 24.7643 99.5186 24.6289C99.7936 24.4893 100.026 24.284 100.217 24.0132C100.407 23.7381 100.551 23.4017 100.648 23.0039C100.75 22.6061 100.801 22.1491 100.801 21.6328ZM112.319 16.7578V26H110.726L106.581 19.3794V26H104.987V16.7578H106.581L110.738 23.3911V16.7578H112.319ZM122.139 26H120.165L120.178 24.7368H122.139C122.71 24.7368 123.189 24.612 123.574 24.3623C123.963 24.1126 124.255 23.755 124.45 23.2896C124.649 22.8241 124.748 22.2697 124.748 21.6265V21.125C124.748 20.6257 124.691 20.1834 124.577 19.7983C124.467 19.4132 124.302 19.0895 124.082 18.8271C123.866 18.5648 123.599 18.3659 123.282 18.2305C122.969 18.0951 122.607 18.0273 122.196 18.0273H120.127V16.7578H122.196C122.81 16.7578 123.371 16.8615 123.878 17.0688C124.386 17.272 124.824 17.5661 125.192 17.9512C125.565 18.3363 125.85 18.7975 126.049 19.335C126.248 19.8724 126.348 20.4733 126.348 21.1377V21.6265C126.348 22.2909 126.248 22.8918 126.049 23.4292C125.85 23.9666 125.565 24.4279 125.192 24.813C124.82 25.1938 124.376 25.488 123.859 25.6953C123.347 25.8984 122.774 26 122.139 26ZM121.047 16.7578V26H119.454V16.7578H121.047ZM134.997 24.7368V26H130.09V24.7368H134.997ZM130.541 16.7578V26H128.947V16.7578H130.541ZM134.355 20.6172V21.8613H130.09V20.6172H134.355ZM134.965 16.7578V18.0273H130.09V16.7578H134.965ZM138.891 16.7578V26H137.298V16.7578H138.891ZM142.662 20.8013V22.0645H138.485V20.8013H142.662ZM143.188 16.7578V18.0273H138.485V16.7578H143.188ZM147.927 17.9893L145.166 26H143.497L146.975 16.7578H148.042L147.927 17.9893ZM150.238 26L147.47 17.9893L147.35 16.7578H148.422L151.914 26H150.238ZM150.104 22.5723V23.8354H145.077V22.5723H150.104ZM159.02 16.7578H160.607V22.9341C160.607 23.6366 160.455 24.2248 160.15 24.6987C159.845 25.1727 159.431 25.5303 158.906 25.7715C158.385 26.0085 157.803 26.127 157.16 26.127C156.496 26.127 155.903 26.0085 155.383 25.7715C154.862 25.5303 154.452 25.1727 154.151 24.6987C153.855 24.2248 153.707 23.6366 153.707 22.9341V16.7578H155.294V22.9341C155.294 23.3784 155.37 23.7445 155.522 24.0322C155.675 24.3158 155.891 24.5252 156.17 24.6606C156.449 24.7961 156.779 24.8638 157.16 24.8638C157.541 24.8638 157.869 24.7961 158.144 24.6606C158.423 24.5252 158.639 24.3158 158.792 24.0322C158.944 23.7445 159.02 23.3784 159.02 22.9341V16.7578ZM169.129 24.7368V26H164.489V24.7368H169.129ZM164.933 16.7578V26H163.34V16.7578H164.933ZM173.576 16.7578V26H171.995V16.7578H173.576ZM176.477 16.7578V18.0273H169.12V16.7578H176.477Z" fill="#737373"/>
<path d="M46.6943 98.2534C46.6943 98.0337 46.6602 97.8384 46.5918 97.6675C46.5283 97.4966 46.4136 97.3403 46.2476 97.1987C46.0815 97.0571 45.8472 96.9204 45.5444 96.7886C45.2466 96.6519 44.8657 96.5127 44.4019 96.3711C43.894 96.2148 43.4253 96.0415 42.9956 95.8511C42.5708 95.6558 42.1997 95.4312 41.8823 95.1772C41.5649 94.9185 41.3184 94.623 41.1426 94.291C40.9668 93.9541 40.8789 93.5659 40.8789 93.1265C40.8789 92.6919 40.9692 92.2964 41.1499 91.9399C41.3354 91.5835 41.5967 91.2759 41.9336 91.0171C42.2754 90.7534 42.6782 90.5508 43.1421 90.4092C43.606 90.2627 44.1187 90.1895 44.6802 90.1895C45.4712 90.1895 46.1523 90.3359 46.7236 90.6289C47.2998 90.9219 47.7417 91.3149 48.0493 91.8081C48.3618 92.3013 48.5181 92.8457 48.5181 93.4414H46.6943C46.6943 93.0898 46.6187 92.7798 46.4673 92.5112C46.3208 92.2378 46.0962 92.0229 45.7935 91.8667C45.4956 91.7104 45.1172 91.6323 44.6582 91.6323C44.2236 91.6323 43.8623 91.6982 43.5742 91.8301C43.2861 91.9619 43.0713 92.1401 42.9297 92.3647C42.7881 92.5894 42.7173 92.8433 42.7173 93.1265C42.7173 93.3267 42.7637 93.5098 42.8564 93.6758C42.9492 93.8369 43.0908 93.9883 43.2812 94.1299C43.4717 94.2666 43.7109 94.396 43.999 94.5181C44.2871 94.6401 44.6265 94.7573 45.0171 94.8696C45.6079 95.0454 46.123 95.2407 46.5625 95.4556C47.002 95.6655 47.3682 95.9048 47.6611 96.1733C47.9541 96.4419 48.1738 96.7471 48.3203 97.0889C48.4668 97.4258 48.54 97.8091 48.54 98.2388C48.54 98.688 48.4497 99.0933 48.269 99.4546C48.0884 99.811 47.8296 100.116 47.4927 100.37C47.1606 100.619 46.7603 100.812 46.2915 100.949C45.8276 101.081 45.3101 101.146 44.7388 101.146C44.2261 101.146 43.7207 101.078 43.2227 100.941C42.7295 100.805 42.2803 100.597 41.875 100.319C41.4697 100.036 41.1475 99.6841 40.9082 99.2642C40.6689 98.8394 40.5493 98.3438 40.5493 97.7773H42.3877C42.3877 98.124 42.4463 98.4194 42.5635 98.6636C42.6855 98.9077 42.854 99.1079 43.0688 99.2642C43.2837 99.4155 43.5327 99.5278 43.8159 99.6011C44.104 99.6743 44.4116 99.7109 44.7388 99.7109C45.1685 99.7109 45.5273 99.6499 45.8154 99.5278C46.1084 99.4058 46.3281 99.2349 46.4746 99.0151C46.6211 98.7954 46.6943 98.5415 46.6943 98.2534ZM53.4839 101.146C52.8979 101.146 52.3682 101.051 51.8945 100.861C51.4258 100.666 51.0254 100.395 50.6934 100.048C50.3662 99.7012 50.1147 99.2935 49.939 98.8247C49.7632 98.356 49.6753 97.8506 49.6753 97.3086V97.0156C49.6753 96.3955 49.7656 95.834 49.9463 95.3311C50.127 94.8281 50.3784 94.3984 50.7007 94.042C51.0229 93.6807 51.4038 93.4048 51.8433 93.2144C52.2827 93.0239 52.7588 92.9287 53.2715 92.9287C53.8379 92.9287 54.3335 93.0239 54.7583 93.2144C55.1831 93.4048 55.5347 93.6733 55.813 94.02C56.0962 94.3618 56.3062 94.7695 56.4429 95.2432C56.5845 95.7168 56.6553 96.2393 56.6553 96.8105V97.5649H50.5322V96.2979H54.9121V96.1587C54.9023 95.8413 54.8389 95.5435 54.7217 95.2651C54.6094 94.9868 54.436 94.7622 54.2017 94.5913C53.9673 94.4204 53.6548 94.335 53.2642 94.335C52.9712 94.335 52.71 94.3984 52.4805 94.5254C52.2559 94.6475 52.0679 94.8257 51.9165 95.0601C51.7651 95.2944 51.6479 95.5776 51.5649 95.9097C51.4868 96.2368 51.4478 96.6055 51.4478 97.0156V97.3086C51.4478 97.6553 51.4941 97.9775 51.5869 98.2754C51.6846 98.5684 51.8262 98.8247 52.0117 99.0444C52.1973 99.2642 52.4219 99.4375 52.6855 99.5645C52.9492 99.6865 53.2495 99.7476 53.5864 99.7476C54.0112 99.7476 54.3896 99.6621 54.7217 99.4912C55.0537 99.3203 55.3418 99.0786 55.5859 98.7661L56.5161 99.667C56.3452 99.916 56.123 100.155 55.8496 100.385C55.5762 100.609 55.2417 100.792 54.8462 100.934C54.4556 101.076 54.0015 101.146 53.4839 101.146ZM59.9219 89.75V101H58.1494V89.75H59.9219ZM65.3491 101.146C64.7632 101.146 64.2334 101.051 63.7598 100.861C63.291 100.666 62.8906 100.395 62.5586 100.048C62.2314 99.7012 61.98 99.2935 61.8042 98.8247C61.6284 98.356 61.5405 97.8506 61.5405 97.3086V97.0156C61.5405 96.3955 61.6309 95.834 61.8115 95.3311C61.9922 94.8281 62.2437 94.3984 62.5659 94.042C62.8882 93.6807 63.269 93.4048 63.7085 93.2144C64.1479 93.0239 64.624 92.9287 65.1367 92.9287C65.7031 92.9287 66.1987 93.0239 66.6235 93.2144C67.0483 93.4048 67.3999 93.6733 67.6782 94.02C67.9614 94.3618 68.1714 94.7695 68.3081 95.2432C68.4497 95.7168 68.5205 96.2393 68.5205 96.8105V97.5649H62.3975V96.2979H66.7773V96.1587C66.7676 95.8413 66.7041 95.5435 66.5869 95.2651C66.4746 94.9868 66.3013 94.7622 66.0669 94.5913C65.8325 94.4204 65.52 94.335 65.1294 94.335C64.8364 94.335 64.5752 94.3984 64.3457 94.5254C64.1211 94.6475 63.9331 94.8257 63.7817 95.0601C63.6304 95.2944 63.5132 95.5776 63.4302 95.9097C63.3521 96.2368 63.313 96.6055 63.313 97.0156V97.3086C63.313 97.6553 63.3594 97.9775 63.4521 98.2754C63.5498 98.5684 63.6914 98.8247 63.877 99.0444C64.0625 99.2642 64.2871 99.4375 64.5508 99.5645C64.8145 99.6865 65.1147 99.7476 65.4517 99.7476C65.8765 99.7476 66.2549 99.6621 66.5869 99.4912C66.9189 99.3203 67.207 99.0786 67.4512 98.7661L68.3813 99.667C68.2104 99.916 67.9883 100.155 67.7148 100.385C67.4414 100.609 67.1069 100.792 66.7114 100.934C66.3208 101.076 65.8667 101.146 65.3491 101.146ZM73.1348 99.7402C73.4229 99.7402 73.6816 99.6841 73.9111 99.5718C74.1455 99.4546 74.3335 99.2935 74.4751 99.0884C74.6216 98.8833 74.7021 98.6465 74.7168 98.3779H76.3794C76.3696 98.8906 76.2183 99.3569 75.9253 99.7769C75.6323 100.197 75.2441 100.531 74.7607 100.78C74.2773 101.024 73.7427 101.146 73.1567 101.146C72.5513 101.146 72.0239 101.044 71.5747 100.839C71.1255 100.629 70.752 100.341 70.4541 99.9746C70.1562 99.6084 69.9316 99.186 69.7803 98.7075C69.6338 98.229 69.5605 97.7163 69.5605 97.1694V96.9131C69.5605 96.3662 69.6338 95.8535 69.7803 95.375C69.9316 94.8916 70.1562 94.4668 70.4541 94.1006C70.752 93.7344 71.1255 93.4487 71.5747 93.2437C72.0239 93.0337 72.5488 92.9287 73.1494 92.9287C73.7842 92.9287 74.3408 93.0557 74.8193 93.3096C75.2979 93.5586 75.6738 93.9077 75.9473 94.3569C76.2256 94.8013 76.3696 95.3188 76.3794 95.9097H74.7168C74.7021 95.6167 74.6289 95.353 74.4971 95.1187C74.3701 94.8794 74.1895 94.689 73.9551 94.5474C73.7256 94.4058 73.4497 94.335 73.1274 94.335C72.771 94.335 72.4756 94.4082 72.2412 94.5547C72.0068 94.6963 71.8237 94.8916 71.6919 95.1406C71.5601 95.3848 71.4648 95.6606 71.4062 95.9683C71.3525 96.271 71.3257 96.5859 71.3257 96.9131V97.1694C71.3257 97.4966 71.3525 97.814 71.4062 98.1216C71.46 98.4292 71.5527 98.7051 71.6846 98.9492C71.8213 99.1885 72.0068 99.3813 72.2412 99.5278C72.4756 99.6694 72.7734 99.7402 73.1348 99.7402ZM81.3672 93.0752V94.3643H76.8994V93.0752H81.3672ZM78.1885 91.1343H79.9536V98.8101C79.9536 99.0542 79.9878 99.2422 80.0562 99.374C80.1294 99.501 80.2295 99.5864 80.3564 99.6304C80.4834 99.6743 80.6323 99.6963 80.8032 99.6963C80.9253 99.6963 81.0425 99.689 81.1548 99.6743C81.2671 99.6597 81.3574 99.645 81.4258 99.6304L81.4331 100.978C81.2866 101.022 81.1157 101.061 80.9204 101.095C80.73 101.129 80.5103 101.146 80.2612 101.146C79.856 101.146 79.4971 101.076 79.1846 100.934C78.8721 100.788 78.6279 100.551 78.4521 100.224C78.2764 99.8965 78.1885 99.4619 78.1885 98.9199V91.1343ZM89.7021 99.7402C89.9902 99.7402 90.249 99.6841 90.4785 99.5718C90.7129 99.4546 90.9009 99.2935 91.0425 99.0884C91.189 98.8833 91.2695 98.6465 91.2842 98.3779H92.9468C92.937 98.8906 92.7856 99.3569 92.4927 99.7769C92.1997 100.197 91.8115 100.531 91.3281 100.78C90.8447 101.024 90.3101 101.146 89.7241 101.146C89.1187 101.146 88.5913 101.044 88.1421 100.839C87.6929 100.629 87.3193 100.341 87.0215 99.9746C86.7236 99.6084 86.499 99.186 86.3477 98.7075C86.2012 98.229 86.1279 97.7163 86.1279 97.1694V96.9131C86.1279 96.3662 86.2012 95.8535 86.3477 95.375C86.499 94.8916 86.7236 94.4668 87.0215 94.1006C87.3193 93.7344 87.6929 93.4487 88.1421 93.2437C88.5913 93.0337 89.1162 92.9287 89.7168 92.9287C90.3516 92.9287 90.9082 93.0557 91.3867 93.3096C91.8652 93.5586 92.2412 93.9077 92.5146 94.3569C92.793 94.8013 92.937 95.3188 92.9468 95.9097H91.2842C91.2695 95.6167 91.1963 95.353 91.0645 95.1187C90.9375 94.8794 90.7568 94.689 90.5225 94.5474C90.293 94.4058 90.0171 94.335 89.6948 94.335C89.3384 94.335 89.043 94.4082 88.8086 94.5547C88.5742 94.6963 88.3911 94.8916 88.2593 95.1406C88.1274 95.3848 88.0322 95.6606 87.9736 95.9683C87.9199 96.271 87.8931 96.5859 87.8931 96.9131V97.1694C87.8931 97.4966 87.9199 97.814 87.9736 98.1216C88.0273 98.4292 88.1201 98.7051 88.252 98.9492C88.3887 99.1885 88.5742 99.3813 88.8086 99.5278C89.043 99.6694 89.3408 99.7402 89.7021 99.7402ZM93.9648 97.1255V96.957C93.9648 96.3857 94.0479 95.856 94.2139 95.3677C94.3799 94.8745 94.6191 94.4473 94.9316 94.0859C95.249 93.7197 95.6348 93.4365 96.0889 93.2363C96.5479 93.0312 97.0654 92.9287 97.6416 92.9287C98.2227 92.9287 98.7402 93.0312 99.1943 93.2363C99.6533 93.4365 100.042 93.7197 100.359 94.0859C100.676 94.4473 100.918 94.8745 101.084 95.3677C101.25 95.856 101.333 96.3857 101.333 96.957V97.1255C101.333 97.6968 101.25 98.2266 101.084 98.7148C100.918 99.2031 100.676 99.6304 100.359 99.9966C100.042 100.358 99.6558 100.641 99.2017 100.846C98.7476 101.046 98.2324 101.146 97.6562 101.146C97.0752 101.146 96.5552 101.046 96.0962 100.846C95.6421 100.641 95.2563 100.358 94.939 99.9966C94.6216 99.6304 94.3799 99.2031 94.2139 98.7148C94.0479 98.2266 93.9648 97.6968 93.9648 97.1255ZM95.73 96.957V97.1255C95.73 97.4819 95.7666 97.8188 95.8398 98.1362C95.9131 98.4536 96.0278 98.7319 96.1841 98.9712C96.3403 99.2104 96.5405 99.3984 96.7847 99.5352C97.0288 99.6719 97.3193 99.7402 97.6562 99.7402C97.9834 99.7402 98.2666 99.6719 98.5059 99.5352C98.75 99.3984 98.9502 99.2104 99.1064 98.9712C99.2627 98.7319 99.3774 98.4536 99.4507 98.1362C99.5288 97.8188 99.5679 97.4819 99.5679 97.1255V96.957C99.5679 96.6055 99.5288 96.2734 99.4507 95.9609C99.3774 95.6436 99.2603 95.3628 99.0991 95.1187C98.9429 94.8745 98.7427 94.6841 98.4985 94.5474C98.2593 94.4058 97.9736 94.335 97.6416 94.335C97.3096 94.335 97.0215 94.4058 96.7773 94.5474C96.5381 94.6841 96.3403 94.8745 96.1841 95.1187C96.0278 95.3628 95.9131 95.6436 95.8398 95.9609C95.7666 96.2734 95.73 96.6055 95.73 96.957ZM104.702 89.75V101H102.93V89.75H104.702ZM106.299 97.1255V96.957C106.299 96.3857 106.382 95.856 106.548 95.3677C106.714 94.8745 106.953 94.4473 107.266 94.0859C107.583 93.7197 107.969 93.4365 108.423 93.2363C108.882 93.0312 109.399 92.9287 109.976 92.9287C110.557 92.9287 111.074 93.0312 111.528 93.2363C111.987 93.4365 112.375 93.7197 112.693 94.0859C113.01 94.4473 113.252 94.8745 113.418 95.3677C113.584 95.856 113.667 96.3857 113.667 96.957V97.1255C113.667 97.6968 113.584 98.2266 113.418 98.7148C113.252 99.2031 113.01 99.6304 112.693 99.9966C112.375 100.358 111.99 100.641 111.536 100.846C111.082 101.046 110.566 101.146 109.99 101.146C109.409 101.146 108.889 101.046 108.43 100.846C107.976 100.641 107.59 100.358 107.273 99.9966C106.956 99.6304 106.714 99.2031 106.548 98.7148C106.382 98.2266 106.299 97.6968 106.299 97.1255ZM108.064 96.957V97.1255C108.064 97.4819 108.101 97.8188 108.174 98.1362C108.247 98.4536 108.362 98.7319 108.518 98.9712C108.674 99.2104 108.875 99.3984 109.119 99.5352C109.363 99.6719 109.653 99.7402 109.99 99.7402C110.317 99.7402 110.601 99.6719 110.84 99.5352C111.084 99.3984 111.284 99.2104 111.44 98.9712C111.597 98.7319 111.711 98.4536 111.785 98.1362C111.863 97.8188 111.902 97.4819 111.902 97.1255V96.957C111.902 96.6055 111.863 96.2734 111.785 95.9609C111.711 95.6436 111.594 95.3628 111.433 95.1187C111.277 94.8745 111.077 94.6841 110.833 94.5474C110.593 94.4058 110.308 94.335 109.976 94.335C109.644 94.335 109.355 94.4058 109.111 94.5474C108.872 94.6841 108.674 94.8745 108.518 95.1187C108.362 95.3628 108.247 95.6436 108.174 95.9609C108.101 96.2734 108.064 96.6055 108.064 96.957ZM119.915 99.1323V93.0752H121.687V101H120.017L119.915 99.1323ZM120.164 97.4844L120.757 97.4697C120.757 98.002 120.698 98.4927 120.581 98.9419C120.464 99.3862 120.283 99.7744 120.039 100.106C119.795 100.434 119.482 100.69 119.102 100.875C118.721 101.056 118.264 101.146 117.732 101.146C117.346 101.146 116.992 101.09 116.67 100.978C116.348 100.866 116.069 100.692 115.835 100.458C115.605 100.224 115.427 99.9185 115.3 99.5425C115.173 99.1665 115.11 98.7173 115.11 98.1948V93.0752H116.875V98.2095C116.875 98.4976 116.909 98.7393 116.978 98.9346C117.046 99.125 117.139 99.2788 117.256 99.396C117.373 99.5132 117.51 99.5962 117.666 99.645C117.822 99.6938 117.988 99.7183 118.164 99.7183C118.667 99.7183 119.062 99.6206 119.351 99.4253C119.644 99.2251 119.851 98.9565 119.973 98.6196C120.1 98.2827 120.164 97.9043 120.164 97.4844ZM125.269 94.584V101H123.503V93.0752H125.188L125.269 94.584ZM127.693 93.0239L127.678 94.6646C127.571 94.645 127.454 94.6304 127.327 94.6206C127.205 94.6108 127.083 94.606 126.96 94.606C126.658 94.606 126.392 94.6499 126.162 94.7378C125.933 94.8208 125.74 94.9429 125.583 95.104C125.432 95.2603 125.315 95.4507 125.232 95.6753C125.149 95.8999 125.1 96.1514 125.085 96.4297L124.683 96.459C124.683 95.9609 124.731 95.4995 124.829 95.0747C124.927 94.6499 125.073 94.2764 125.269 93.9541C125.469 93.6318 125.718 93.3804 126.016 93.1997C126.318 93.019 126.667 92.9287 127.063 92.9287C127.17 92.9287 127.285 92.9385 127.407 92.958C127.534 92.9775 127.629 92.9995 127.693 93.0239Z" fill="#505050"/>
<rect x="40.5" y="112.5" width="239" height="39" rx="3.5" fill="white"/>
<circle cx="60" cy="132" r="12" fill="#286EFA"/>
<circle cx="60" cy="132" r="11.5" stroke="#1A1A1A" stroke-opacity="0.1"/>
<path d="M82.0435 137L84.1162 126.336H85.1709L83.0908 137H82.0435ZM85.0244 137L87.1045 126.336H88.1519L86.0718 137H85.0244ZM89.0454 130.401H81.4282V129.383H89.0454V130.401ZM88.4961 133.997H80.8716V132.986H88.4961V133.997ZM97.1167 135.887V137H90.1367V136.026L93.6304 132.137C94.0601 131.658 94.3921 131.253 94.6265 130.921C94.8657 130.584 95.0317 130.284 95.1245 130.02C95.2222 129.751 95.271 129.478 95.271 129.2C95.271 128.848 95.1978 128.531 95.0513 128.248C94.9097 127.959 94.6997 127.73 94.4214 127.559C94.1431 127.388 93.8062 127.303 93.4106 127.303C92.937 127.303 92.5415 127.396 92.2241 127.581C91.9116 127.762 91.6772 128.016 91.521 128.343C91.3647 128.67 91.2866 129.046 91.2866 129.471H89.9316C89.9316 128.87 90.0635 128.321 90.3271 127.823C90.5908 127.325 90.9814 126.929 91.499 126.636C92.0166 126.338 92.6538 126.189 93.4106 126.189C94.0845 126.189 94.6606 126.309 95.1392 126.548C95.6177 126.783 95.9839 127.115 96.2378 127.544C96.4966 127.969 96.626 128.467 96.626 129.039C96.626 129.351 96.5723 129.668 96.4648 129.991C96.3623 130.308 96.2183 130.625 96.0327 130.943C95.8521 131.26 95.6396 131.573 95.3955 131.88C95.1562 132.188 94.8999 132.491 94.6265 132.789L91.77 135.887H97.1167ZM105.291 134.114C105.291 134.764 105.139 135.315 104.836 135.77C104.539 136.219 104.133 136.561 103.621 136.795C103.113 137.029 102.539 137.146 101.899 137.146C101.26 137.146 100.684 137.029 100.171 136.795C99.6582 136.561 99.2529 136.219 98.9551 135.77C98.6572 135.315 98.5083 134.764 98.5083 134.114C98.5083 133.689 98.5889 133.301 98.75 132.95C98.916 132.593 99.1479 132.283 99.4458 132.02C99.7485 131.756 100.105 131.553 100.515 131.412C100.93 131.265 101.387 131.192 101.885 131.192C102.539 131.192 103.123 131.319 103.635 131.573C104.148 131.822 104.551 132.166 104.844 132.605C105.142 133.045 105.291 133.548 105.291 134.114ZM103.928 134.085C103.928 133.689 103.843 133.34 103.672 133.038C103.501 132.73 103.262 132.491 102.954 132.32C102.646 132.149 102.29 132.063 101.885 132.063C101.47 132.063 101.111 132.149 100.808 132.32C100.51 132.491 100.278 132.73 100.112 133.038C99.9463 133.34 99.8633 133.689 99.8633 134.085C99.8633 134.495 99.9438 134.847 100.105 135.14C100.271 135.428 100.505 135.65 100.808 135.806C101.116 135.958 101.479 136.033 101.899 136.033C102.319 136.033 102.681 135.958 102.983 135.806C103.286 135.65 103.518 135.428 103.679 135.14C103.845 134.847 103.928 134.495 103.928 134.085ZM105.042 129.112C105.042 129.629 104.905 130.096 104.631 130.511C104.358 130.926 103.984 131.253 103.511 131.492C103.037 131.731 102.5 131.851 101.899 131.851C101.289 131.851 100.745 131.731 100.266 131.492C99.7925 131.253 99.4214 130.926 99.1528 130.511C98.8843 130.096 98.75 129.629 98.75 129.112C98.75 128.492 98.8843 127.964 99.1528 127.53C99.4263 127.095 99.7998 126.763 100.273 126.534C100.747 126.304 101.287 126.189 101.892 126.189C102.502 126.189 103.044 126.304 103.518 126.534C103.992 126.763 104.363 127.095 104.631 127.53C104.905 127.964 105.042 128.492 105.042 129.112ZM103.687 129.134C103.687 128.777 103.611 128.462 103.459 128.189C103.308 127.916 103.098 127.701 102.83 127.544C102.561 127.383 102.249 127.303 101.892 127.303C101.536 127.303 101.223 127.378 100.955 127.53C100.691 127.676 100.483 127.886 100.332 128.16C100.186 128.433 100.112 128.758 100.112 129.134C100.112 129.5 100.186 129.82 100.332 130.093C100.483 130.367 100.693 130.579 100.962 130.73C101.23 130.882 101.543 130.958 101.899 130.958C102.256 130.958 102.566 130.882 102.83 130.73C103.098 130.579 103.308 130.367 103.459 130.093C103.611 129.82 103.687 129.5 103.687 129.134ZM112.205 126.321H112.322V127.471H112.205C111.487 127.471 110.886 127.588 110.403 127.823C109.919 128.052 109.536 128.362 109.253 128.753C108.97 129.139 108.765 129.573 108.638 130.057C108.516 130.54 108.455 131.031 108.455 131.529V133.096C108.455 133.57 108.511 133.99 108.623 134.356C108.735 134.717 108.889 135.022 109.084 135.271C109.28 135.521 109.5 135.708 109.744 135.835C109.993 135.962 110.251 136.026 110.52 136.026C110.833 136.026 111.111 135.967 111.355 135.85C111.599 135.728 111.804 135.56 111.97 135.345C112.141 135.125 112.271 134.866 112.358 134.568C112.446 134.271 112.49 133.943 112.49 133.587C112.49 133.27 112.451 132.964 112.373 132.671C112.295 132.374 112.175 132.11 112.014 131.88C111.853 131.646 111.65 131.463 111.406 131.331C111.167 131.194 110.881 131.126 110.549 131.126C110.173 131.126 109.822 131.219 109.495 131.404C109.172 131.585 108.906 131.824 108.696 132.122C108.491 132.415 108.374 132.735 108.345 133.082L107.627 133.074C107.695 132.527 107.822 132.061 108.008 131.675C108.198 131.285 108.433 130.967 108.711 130.723C108.994 130.474 109.309 130.293 109.656 130.181C110.007 130.064 110.378 130.005 110.769 130.005C111.301 130.005 111.76 130.105 112.146 130.306C112.532 130.506 112.849 130.774 113.098 131.111C113.347 131.443 113.53 131.819 113.647 132.239C113.77 132.654 113.831 133.082 113.831 133.521C113.831 134.024 113.76 134.495 113.618 134.935C113.477 135.374 113.264 135.76 112.981 136.092C112.703 136.424 112.358 136.683 111.948 136.868C111.538 137.054 111.062 137.146 110.52 137.146C109.944 137.146 109.441 137.029 109.011 136.795C108.582 136.556 108.225 136.238 107.942 135.843C107.659 135.447 107.446 135.008 107.305 134.524C107.163 134.041 107.092 133.55 107.092 133.052V132.415C107.092 131.663 107.168 130.926 107.319 130.203C107.471 129.48 107.732 128.826 108.103 128.24C108.479 127.654 108.999 127.188 109.663 126.841C110.327 126.495 111.174 126.321 112.205 126.321ZM122.568 135.85V137H116.921V135.85H122.568ZM117.207 126.336V137H115.793V126.336H117.207ZM121.821 130.921V132.071H116.921V130.921H121.821ZM122.495 126.336V127.493H116.921V126.336H122.495ZM125.732 126.336V137H124.319V126.336H125.732ZM130.2 131.133V132.291H125.425V131.133H130.2ZM130.925 126.336V127.493H125.425V126.336H130.925ZM136.711 126.277V137H135.356V127.969L132.625 128.965V127.742L136.499 126.277H136.711Z" fill="#1A1A1A"/>
<path fill-rule="evenodd" clip-rule="evenodd" d="M266 132C266 137.523 261.523 142 256 142C250.477 142 246 137.523 246 132C246 126.477 250.477 122 256 122C261.523 122 266 126.477 266 132ZM252.913 127.587C252.547 127.221 251.953 127.221 251.587 127.587C251.221 127.953 251.221 128.547 251.587 128.913L254.674 132L251.587 135.087C251.221 135.453 251.221 136.047 251.587 136.413C251.953 136.779 252.547 136.779 252.913 136.413L256 133.326L259.087 136.413C259.453 136.779 260.047 136.779 260.413 136.413C260.779 136.047 260.779 135.453 260.413 135.087L257.326 132L260.413 128.913C260.779 128.547 260.779 127.953 260.413 127.587C260.047 127.221 259.453 127.221 259.087 127.587L256 130.674L252.913 127.587Z" fill="#AAAAAA"/>
<rect x="40.5" y="112.5" width="239" height="39" rx="3.5" stroke="#AAAAAA"/>
</g>
<path d="M319 0V192H321V0H319Z" fill="#E6E6E6" mask="url(#path-3-inside-1_8209_90995)"/>
<rect width="320" height="44" transform="translate(320)" fill="#F8F8F8"/>
<path d="M357.398 22.9912H358.985C358.935 23.5964 358.765 24.1359 358.478 24.6099C358.19 25.0796 357.786 25.4499 357.265 25.7207C356.745 25.9915 356.112 26.127 355.367 26.127C354.796 26.127 354.282 26.0254 353.825 25.8223C353.368 25.6149 352.976 25.3229 352.65 24.9463C352.325 24.5654 352.075 24.1063 351.901 23.5688C351.732 23.0314 351.647 22.4305 351.647 21.7661V20.998C351.647 20.3337 351.734 19.7327 351.908 19.1953C352.085 18.6579 352.339 18.1987 352.669 17.8179C353 17.4328 353.395 17.1387 353.856 16.9355C354.322 16.7324 354.845 16.6309 355.424 16.6309C356.161 16.6309 356.783 16.7663 357.291 17.0371C357.798 17.3079 358.192 17.6825 358.471 18.1606C358.755 18.6388 358.928 19.1868 358.992 19.8047H357.405C357.362 19.4069 357.269 19.0662 357.125 18.7827C356.986 18.4992 356.778 18.2834 356.503 18.1353C356.228 17.9829 355.869 17.9067 355.424 17.9067C355.06 17.9067 354.743 17.9744 354.472 18.1099C354.201 18.2453 353.975 18.4442 353.793 18.7065C353.611 18.9689 353.473 19.2926 353.38 19.6777C353.292 20.0586 353.247 20.4945 353.247 20.9854V21.7661C353.247 22.2316 353.287 22.6548 353.368 23.0356C353.452 23.4123 353.579 23.736 353.749 24.0068C353.922 24.2777 354.142 24.4871 354.409 24.6353C354.675 24.7834 354.995 24.8574 355.367 24.8574C355.82 24.8574 356.186 24.7855 356.465 24.6416C356.749 24.4977 356.963 24.2882 357.106 24.0132C357.255 23.7339 357.352 23.3932 357.398 22.9912ZM367.222 24.7368V26H362.582V24.7368H367.222ZM363.026 16.7578V26H361.433V16.7578H363.026ZM375.502 24.7368V26H370.596V24.7368H375.502ZM371.046 16.7578V26H369.453V16.7578H371.046ZM374.861 20.6172V21.8613H370.596V20.6172H374.861ZM375.471 16.7578V18.0273H370.596V16.7578H375.471ZM381.403 17.9893L378.642 26H376.972L380.451 16.7578H381.517L381.403 17.9893ZM383.713 26L380.946 17.9893L380.825 16.7578H381.898L385.389 26H383.713ZM383.58 22.5723V23.8354H378.553V22.5723H383.58ZM387.424 16.7578H390.693C391.395 16.7578 391.994 16.8636 392.489 17.0752C392.984 17.2868 393.363 17.5999 393.625 18.0146C393.892 18.4251 394.025 18.9329 394.025 19.5381C394.025 19.9993 393.941 20.4056 393.771 20.7568C393.602 21.1081 393.363 21.4043 393.054 21.6455C392.745 21.8825 392.377 22.0666 391.95 22.1978L391.467 22.4326H388.528L388.516 21.1694H390.718C391.099 21.1694 391.417 21.1017 391.67 20.9663C391.924 20.8309 392.115 20.6468 392.242 20.4141C392.373 20.1771 392.438 19.9105 392.438 19.6143C392.438 19.2926 392.375 19.0133 392.248 18.7764C392.125 18.5352 391.935 18.3511 391.677 18.2241C391.419 18.0929 391.091 18.0273 390.693 18.0273H389.017V26H387.424V16.7578ZM392.699 26L390.528 21.8486L392.197 21.8423L394.4 25.9175V26H392.699ZM402.551 16.7578V26H400.958V16.7578H402.551ZM410.99 22.9912H412.577C412.526 23.5964 412.357 24.1359 412.069 24.6099C411.782 25.0796 411.377 25.4499 410.857 25.7207C410.336 25.9915 409.704 26.127 408.959 26.127C408.388 26.127 407.874 26.0254 407.417 25.8223C406.959 25.6149 406.568 25.3229 406.242 24.9463C405.916 24.5654 405.667 24.1063 405.493 23.5688C405.324 23.0314 405.239 22.4305 405.239 21.7661V20.998C405.239 20.3337 405.326 19.7327 405.5 19.1953C405.677 18.6579 405.931 18.1987 406.261 17.8179C406.591 17.4328 406.987 17.1387 407.448 16.9355C407.914 16.7324 408.436 16.6309 409.016 16.6309C409.752 16.6309 410.375 16.7663 410.882 17.0371C411.39 17.3079 411.784 17.6825 412.063 18.1606C412.347 18.6388 412.52 19.1868 412.583 19.8047H410.997C410.954 19.4069 410.861 19.0662 410.717 18.7827C410.578 18.4992 410.37 18.2834 410.095 18.1353C409.82 17.9829 409.46 17.9067 409.016 17.9067C408.652 17.9067 408.335 17.9744 408.064 18.1099C407.793 18.2453 407.567 18.4442 407.385 18.7065C407.203 18.9689 407.065 19.2926 406.972 19.6777C406.883 20.0586 406.839 20.4945 406.839 20.9854V21.7661C406.839 22.2316 406.879 22.6548 406.959 23.0356C407.044 23.4123 407.171 23.736 407.34 24.0068C407.514 24.2777 407.734 24.4871 408 24.6353C408.267 24.7834 408.587 24.8574 408.959 24.8574C409.412 24.8574 409.778 24.7855 410.057 24.6416C410.341 24.4977 410.554 24.2882 410.698 24.0132C410.846 23.7339 410.944 23.3932 410.99 22.9912ZM422.394 21.125V21.6328C422.394 22.3311 422.303 22.9574 422.121 23.5117C421.939 24.0661 421.679 24.5379 421.34 24.9272C421.006 25.3166 420.604 25.6149 420.134 25.8223C419.665 26.0254 419.144 26.127 418.573 26.127C418.006 26.127 417.487 26.0254 417.018 25.8223C416.552 25.6149 416.148 25.3166 415.805 24.9272C415.462 24.5379 415.196 24.0661 415.005 23.5117C414.819 22.9574 414.726 22.3311 414.726 21.6328V21.125C414.726 20.4268 414.819 19.8026 415.005 19.2524C415.192 18.6981 415.454 18.2262 415.792 17.8369C416.135 17.4434 416.539 17.145 417.005 16.9419C417.475 16.7345 417.993 16.6309 418.56 16.6309C419.131 16.6309 419.652 16.7345 420.122 16.9419C420.591 17.145 420.995 17.4434 421.334 17.8369C421.673 18.2262 421.933 18.6981 422.115 19.2524C422.301 19.8026 422.394 20.4268 422.394 21.125ZM420.801 21.6328V21.1123C420.801 20.596 420.75 20.1411 420.648 19.7476C420.551 19.3498 420.405 19.0176 420.21 18.751C420.02 18.4801 419.785 18.277 419.506 18.1416C419.227 18.002 418.911 17.9321 418.56 17.9321C418.209 17.9321 417.896 18.002 417.621 18.1416C417.346 18.277 417.111 18.4801 416.916 18.751C416.726 19.0176 416.58 19.3498 416.478 19.7476C416.376 20.1411 416.326 20.596 416.326 21.1123V21.6328C416.326 22.1491 416.376 22.6061 416.478 23.0039C416.58 23.4017 416.728 23.7381 416.922 24.0132C417.121 24.284 417.358 24.4893 417.633 24.6289C417.908 24.7643 418.222 24.832 418.573 24.832C418.928 24.832 419.243 24.7643 419.519 24.6289C419.794 24.4893 420.026 24.284 420.217 24.0132C420.407 23.7381 420.551 23.4017 420.648 23.0039C420.75 22.6061 420.801 22.1491 420.801 21.6328ZM432.319 16.7578V26H430.726L426.581 19.3794V26H424.987V16.7578H426.581L430.738 23.3911V16.7578H432.319ZM445.561 20.6172V21.8804H440.654V20.6172H445.561ZM441.047 16.7578V26H439.454V16.7578H441.047ZM446.786 16.7578V26H445.199V16.7578H446.786ZM457.053 21.125V21.6328C457.053 22.3311 456.962 22.9574 456.78 23.5117C456.598 24.0661 456.338 24.5379 456 24.9272C455.665 25.3166 455.263 25.6149 454.793 25.8223C454.324 26.0254 453.803 26.127 453.232 26.127C452.665 26.127 452.146 26.0254 451.677 25.8223C451.211 25.6149 450.807 25.3166 450.464 24.9272C450.122 24.5379 449.855 24.0661 449.665 23.5117C449.478 22.9574 449.385 22.3311 449.385 21.6328V21.125C449.385 20.4268 449.478 19.8026 449.665 19.2524C449.851 18.6981 450.113 18.2262 450.452 17.8369C450.794 17.4434 451.199 17.145 451.664 16.9419C452.134 16.7345 452.652 16.6309 453.219 16.6309C453.791 16.6309 454.311 16.7345 454.781 16.9419C455.25 17.145 455.655 17.4434 455.993 17.8369C456.332 18.2262 456.592 18.6981 456.774 19.2524C456.96 19.8026 457.053 20.4268 457.053 21.125ZM455.46 21.6328V21.1123C455.46 20.596 455.409 20.1411 455.308 19.7476C455.21 19.3498 455.064 19.0176 454.87 18.751C454.679 18.4801 454.444 18.277 454.165 18.1416C453.886 18.002 453.57 17.9321 453.219 17.9321C452.868 17.9321 452.555 18.002 452.28 18.1416C452.005 18.277 451.77 18.4801 451.575 18.751C451.385 19.0176 451.239 19.3498 451.137 19.7476C451.036 20.1411 450.985 20.596 450.985 21.1123V21.6328C450.985 22.1491 451.036 22.6061 451.137 23.0039C451.239 23.4017 451.387 23.7381 451.582 24.0132C451.78 24.284 452.017 24.4893 452.292 24.6289C452.568 24.7643 452.881 24.832 453.232 24.832C453.587 24.832 453.903 24.7643 454.178 24.6289C454.453 24.4893 454.686 24.284 454.876 24.0132C455.066 23.7381 455.21 23.4017 455.308 23.0039C455.409 22.6061 455.46 22.1491 455.46 21.6328ZM462.674 24.3115L465.105 16.7578H466.864L463.55 26H462.363L462.674 24.3115ZM460.427 16.7578L462.839 24.3115L463.169 26H461.976L458.675 16.7578H460.427ZM474.948 24.7368V26H470.041V24.7368H474.948ZM470.492 16.7578V26H468.898V16.7578H470.492ZM474.307 20.6172V21.8613H470.041V20.6172H474.307ZM474.916 16.7578V18.0273H470.041V16.7578H474.916ZM477.249 16.7578H480.518C481.221 16.7578 481.819 16.8636 482.314 17.0752C482.81 17.2868 483.188 17.5999 483.451 18.0146C483.717 18.4251 483.851 18.9329 483.851 19.5381C483.851 19.9993 483.766 20.4056 483.597 20.7568C483.427 21.1081 483.188 21.4043 482.879 21.6455C482.57 21.8825 482.202 22.0666 481.775 22.1978L481.292 22.4326H478.354L478.341 21.1694H480.543C480.924 21.1694 481.242 21.1017 481.496 20.9663C481.75 20.8309 481.94 20.6468 482.067 20.4141C482.198 20.1771 482.264 19.9105 482.264 19.6143C482.264 19.2926 482.2 19.0133 482.073 18.7764C481.951 18.5352 481.76 18.3511 481.502 18.2241C481.244 18.0929 480.916 18.0273 480.518 18.0273H478.842V26H477.249V16.7578ZM482.524 26L480.353 21.8486L482.022 21.8423L484.225 25.9175V26H482.524Z" fill="#737373"/>
<path d="M366.694 98.2534C366.694 98.0337 366.66 97.8384 366.592 97.6675C366.528 97.4966 366.414 97.3403 366.248 97.1987C366.082 97.0571 365.847 96.9204 365.544 96.7886C365.247 96.6519 364.866 96.5127 364.402 96.3711C363.894 96.2148 363.425 96.0415 362.996 95.8511C362.571 95.6558 362.2 95.4312 361.882 95.1772C361.565 94.9185 361.318 94.623 361.143 94.291C360.967 93.9541 360.879 93.5659 360.879 93.1265C360.879 92.6919 360.969 92.2964 361.15 91.9399C361.335 91.5835 361.597 91.2759 361.934 91.0171C362.275 90.7534 362.678 90.5508 363.142 90.4092C363.606 90.2627 364.119 90.1895 364.68 90.1895C365.471 90.1895 366.152 90.3359 366.724 90.6289C367.3 90.9219 367.742 91.3149 368.049 91.8081C368.362 92.3013 368.518 92.8457 368.518 93.4414H366.694C366.694 93.0898 366.619 92.7798 366.467 92.5112C366.321 92.2378 366.096 92.0229 365.793 91.8667C365.496 91.7104 365.117 91.6323 364.658 91.6323C364.224 91.6323 363.862 91.6982 363.574 91.8301C363.286 91.9619 363.071 92.1401 362.93 92.3647C362.788 92.5894 362.717 92.8433 362.717 93.1265C362.717 93.3267 362.764 93.5098 362.856 93.6758C362.949 93.8369 363.091 93.9883 363.281 94.1299C363.472 94.2666 363.711 94.396 363.999 94.5181C364.287 94.6401 364.626 94.7573 365.017 94.8696C365.608 95.0454 366.123 95.2407 366.562 95.4556C367.002 95.6655 367.368 95.9048 367.661 96.1733C367.954 96.4419 368.174 96.7471 368.32 97.0889C368.467 97.4258 368.54 97.8091 368.54 98.2388C368.54 98.688 368.45 99.0933 368.269 99.4546C368.088 99.811 367.83 100.116 367.493 100.37C367.161 100.619 366.76 100.812 366.292 100.949C365.828 101.081 365.31 101.146 364.739 101.146C364.226 101.146 363.721 101.078 363.223 100.941C362.729 100.805 362.28 100.597 361.875 100.319C361.47 100.036 361.147 99.6841 360.908 99.2642C360.669 98.8394 360.549 98.3438 360.549 97.7773H362.388C362.388 98.124 362.446 98.4194 362.563 98.6636C362.686 98.9077 362.854 99.1079 363.069 99.2642C363.284 99.4155 363.533 99.5278 363.816 99.6011C364.104 99.6743 364.412 99.7109 364.739 99.7109C365.168 99.7109 365.527 99.6499 365.815 99.5278C366.108 99.4058 366.328 99.2349 366.475 99.0151C366.621 98.7954 366.694 98.5415 366.694 98.2534ZM373.484 101.146C372.898 101.146 372.368 101.051 371.895 100.861C371.426 100.666 371.025 100.395 370.693 100.048C370.366 99.7012 370.115 99.2935 369.939 98.8247C369.763 98.356 369.675 97.8506 369.675 97.3086V97.0156C369.675 96.3955 369.766 95.834 369.946 95.3311C370.127 94.8281 370.378 94.3984 370.701 94.042C371.023 93.6807 371.404 93.4048 371.843 93.2144C372.283 93.0239 372.759 92.9287 373.271 92.9287C373.838 92.9287 374.333 93.0239 374.758 93.2144C375.183 93.4048 375.535 93.6733 375.813 94.02C376.096 94.3618 376.306 94.7695 376.443 95.2432C376.584 95.7168 376.655 96.2393 376.655 96.8105V97.5649H370.532V96.2979H374.912V96.1587C374.902 95.8413 374.839 95.5435 374.722 95.2651C374.609 94.9868 374.436 94.7622 374.202 94.5913C373.967 94.4204 373.655 94.335 373.264 94.335C372.971 94.335 372.71 94.3984 372.48 94.5254C372.256 94.6475 372.068 94.8257 371.917 95.0601C371.765 95.2944 371.648 95.5776 371.565 95.9097C371.487 96.2368 371.448 96.6055 371.448 97.0156V97.3086C371.448 97.6553 371.494 97.9775 371.587 98.2754C371.685 98.5684 371.826 98.8247 372.012 99.0444C372.197 99.2642 372.422 99.4375 372.686 99.5645C372.949 99.6865 373.25 99.7476 373.586 99.7476C374.011 99.7476 374.39 99.6621 374.722 99.4912C375.054 99.3203 375.342 99.0786 375.586 98.7661L376.516 99.667C376.345 99.916 376.123 100.155 375.85 100.385C375.576 100.609 375.242 100.792 374.846 100.934C374.456 101.076 374.001 101.146 373.484 101.146ZM379.922 89.75V101H378.149V89.75H379.922ZM385.349 101.146C384.763 101.146 384.233 101.051 383.76 100.861C383.291 100.666 382.891 100.395 382.559 100.048C382.231 99.7012 381.98 99.2935 381.804 98.8247C381.628 98.356 381.541 97.8506 381.541 97.3086V97.0156C381.541 96.3955 381.631 95.834 381.812 95.3311C381.992 94.8281 382.244 94.3984 382.566 94.042C382.888 93.6807 383.269 93.4048 383.708 93.2144C384.148 93.0239 384.624 92.9287 385.137 92.9287C385.703 92.9287 386.199 93.0239 386.624 93.2144C387.048 93.4048 387.4 93.6733 387.678 94.02C387.961 94.3618 388.171 94.7695 388.308 95.2432C388.45 95.7168 388.521 96.2393 388.521 96.8105V97.5649H382.397V96.2979H386.777V96.1587C386.768 95.8413 386.704 95.5435 386.587 95.2651C386.475 94.9868 386.301 94.7622 386.067 94.5913C385.833 94.4204 385.52 94.335 385.129 94.335C384.836 94.335 384.575 94.3984 384.346 94.5254C384.121 94.6475 383.933 94.8257 383.782 95.0601C383.63 95.2944 383.513 95.5776 383.43 95.9097C383.352 96.2368 383.313 96.6055 383.313 97.0156V97.3086C383.313 97.6553 383.359 97.9775 383.452 98.2754C383.55 98.5684 383.691 98.8247 383.877 99.0444C384.062 99.2642 384.287 99.4375 384.551 99.5645C384.814 99.6865 385.115 99.7476 385.452 99.7476C385.876 99.7476 386.255 99.6621 386.587 99.4912C386.919 99.3203 387.207 99.0786 387.451 98.7661L388.381 99.667C388.21 99.916 387.988 100.155 387.715 100.385C387.441 100.609 387.107 100.792 386.711 100.934C386.321 101.076 385.867 101.146 385.349 101.146ZM393.135 99.7402C393.423 99.7402 393.682 99.6841 393.911 99.5718C394.146 99.4546 394.333 99.2935 394.475 99.0884C394.622 98.8833 394.702 98.6465 394.717 98.3779H396.379C396.37 98.8906 396.218 99.3569 395.925 99.7769C395.632 100.197 395.244 100.531 394.761 100.78C394.277 101.024 393.743 101.146 393.157 101.146C392.551 101.146 392.024 101.044 391.575 100.839C391.125 100.629 390.752 100.341 390.454 99.9746C390.156 99.6084 389.932 99.186 389.78 98.7075C389.634 98.229 389.561 97.7163 389.561 97.1694V96.9131C389.561 96.3662 389.634 95.8535 389.78 95.375C389.932 94.8916 390.156 94.4668 390.454 94.1006C390.752 93.7344 391.125 93.4487 391.575 93.2437C392.024 93.0337 392.549 92.9287 393.149 92.9287C393.784 92.9287 394.341 93.0557 394.819 93.3096C395.298 93.5586 395.674 93.9077 395.947 94.3569C396.226 94.8013 396.37 95.3188 396.379 95.9097H394.717C394.702 95.6167 394.629 95.353 394.497 95.1187C394.37 94.8794 394.189 94.689 393.955 94.5474C393.726 94.4058 393.45 94.335 393.127 94.335C392.771 94.335 392.476 94.4082 392.241 94.5547C392.007 94.6963 391.824 94.8916 391.692 95.1406C391.56 95.3848 391.465 95.6606 391.406 95.9683C391.353 96.271 391.326 96.5859 391.326 96.9131V97.1694C391.326 97.4966 391.353 97.814 391.406 98.1216C391.46 98.4292 391.553 98.7051 391.685 98.9492C391.821 99.1885 392.007 99.3813 392.241 99.5278C392.476 99.6694 392.773 99.7402 393.135 99.7402ZM401.367 93.0752V94.3643H396.899V93.0752H401.367ZM398.188 91.1343H399.954V98.8101C399.954 99.0542 399.988 99.2422 400.056 99.374C400.129 99.501 400.229 99.5864 400.356 99.6304C400.483 99.6743 400.632 99.6963 400.803 99.6963C400.925 99.6963 401.042 99.689 401.155 99.6743C401.267 99.6597 401.357 99.645 401.426 99.6304L401.433 100.978C401.287 101.022 401.116 101.061 400.92 101.095C400.73 101.129 400.51 101.146 400.261 101.146C399.856 101.146 399.497 101.076 399.185 100.934C398.872 100.788 398.628 100.551 398.452 100.224C398.276 99.8965 398.188 99.4619 398.188 98.9199V91.1343ZM409.702 99.7402C409.99 99.7402 410.249 99.6841 410.479 99.5718C410.713 99.4546 410.901 99.2935 411.042 99.0884C411.189 98.8833 411.27 98.6465 411.284 98.3779H412.947C412.937 98.8906 412.786 99.3569 412.493 99.7769C412.2 100.197 411.812 100.531 411.328 100.78C410.845 101.024 410.31 101.146 409.724 101.146C409.119 101.146 408.591 101.044 408.142 100.839C407.693 100.629 407.319 100.341 407.021 99.9746C406.724 99.6084 406.499 99.186 406.348 98.7075C406.201 98.229 406.128 97.7163 406.128 97.1694V96.9131C406.128 96.3662 406.201 95.8535 406.348 95.375C406.499 94.8916 406.724 94.4668 407.021 94.1006C407.319 93.7344 407.693 93.4487 408.142 93.2437C408.591 93.0337 409.116 92.9287 409.717 92.9287C410.352 92.9287 410.908 93.0557 411.387 93.3096C411.865 93.5586 412.241 93.9077 412.515 94.3569C412.793 94.8013 412.937 95.3188 412.947 95.9097H411.284C411.27 95.6167 411.196 95.353 411.064 95.1187C410.938 94.8794 410.757 94.689 410.522 94.5474C410.293 94.4058 410.017 94.335 409.695 94.335C409.338 94.335 409.043 94.4082 408.809 94.5547C408.574 94.6963 408.391 94.8916 408.259 95.1406C408.127 95.3848 408.032 95.6606 407.974 95.9683C407.92 96.271 407.893 96.5859 407.893 96.9131V97.1694C407.893 97.4966 407.92 97.814 407.974 98.1216C408.027 98.4292 408.12 98.7051 408.252 98.9492C408.389 99.1885 408.574 99.3813 408.809 99.5278C409.043 99.6694 409.341 99.7402 409.702 99.7402ZM413.965 97.1255V96.957C413.965 96.3857 414.048 95.856 414.214 95.3677C414.38 94.8745 414.619 94.4473 414.932 94.0859C415.249 93.7197 415.635 93.4365 416.089 93.2363C416.548 93.0312 417.065 92.9287 417.642 92.9287C418.223 92.9287 418.74 93.0312 419.194 93.2363C419.653 93.4365 420.042 93.7197 420.359 94.0859C420.676 94.4473 420.918 94.8745 421.084 95.3677C421.25 95.856 421.333 96.3857 421.333 96.957V97.1255C421.333 97.6968 421.25 98.2266 421.084 98.7148C420.918 99.2031 420.676 99.6304 420.359 99.9966C420.042 100.358 419.656 100.641 419.202 100.846C418.748 101.046 418.232 101.146 417.656 101.146C417.075 101.146 416.555 101.046 416.096 100.846C415.642 100.641 415.256 100.358 414.939 99.9966C414.622 99.6304 414.38 99.2031 414.214 98.7148C414.048 98.2266 413.965 97.6968 413.965 97.1255ZM415.73 96.957V97.1255C415.73 97.4819 415.767 97.8188 415.84 98.1362C415.913 98.4536 416.028 98.7319 416.184 98.9712C416.34 99.2104 416.541 99.3984 416.785 99.5352C417.029 99.6719 417.319 99.7402 417.656 99.7402C417.983 99.7402 418.267 99.6719 418.506 99.5352C418.75 99.3984 418.95 99.2104 419.106 98.9712C419.263 98.7319 419.377 98.4536 419.451 98.1362C419.529 97.8188 419.568 97.4819 419.568 97.1255V96.957C419.568 96.6055 419.529 96.2734 419.451 95.9609C419.377 95.6436 419.26 95.3628 419.099 95.1187C418.943 94.8745 418.743 94.6841 418.499 94.5474C418.259 94.4058 417.974 94.335 417.642 94.335C417.31 94.335 417.021 94.4058 416.777 94.5474C416.538 94.6841 416.34 94.8745 416.184 95.1187C416.028 95.3628 415.913 95.6436 415.84 95.9609C415.767 96.2734 415.73 96.6055 415.73 96.957ZM424.702 89.75V101H422.93V89.75H424.702ZM426.299 97.1255V96.957C426.299 96.3857 426.382 95.856 426.548 95.3677C426.714 94.8745 426.953 94.4473 427.266 94.0859C427.583 93.7197 427.969 93.4365 428.423 93.2363C428.882 93.0312 429.399 92.9287 429.976 92.9287C430.557 92.9287 431.074 93.0312 431.528 93.2363C431.987 93.4365 432.375 93.7197 432.693 94.0859C433.01 94.4473 433.252 94.8745 433.418 95.3677C433.584 95.856 433.667 96.3857 433.667 96.957V97.1255C433.667 97.6968 433.584 98.2266 433.418 98.7148C433.252 99.2031 433.01 99.6304 432.693 99.9966C432.375 100.358 431.99 100.641 431.536 100.846C431.082 101.046 430.566 101.146 429.99 101.146C429.409 101.146 428.889 101.046 428.43 100.846C427.976 100.641 427.59 100.358 427.273 99.9966C426.956 99.6304 426.714 99.2031 426.548 98.7148C426.382 98.2266 426.299 97.6968 426.299 97.1255ZM428.064 96.957V97.1255C428.064 97.4819 428.101 97.8188 428.174 98.1362C428.247 98.4536 428.362 98.7319 428.518 98.9712C428.674 99.2104 428.875 99.3984 429.119 99.5352C429.363 99.6719 429.653 99.7402 429.99 99.7402C430.317 99.7402 430.601 99.6719 430.84 99.5352C431.084 99.3984 431.284 99.2104 431.44 98.9712C431.597 98.7319 431.711 98.4536 431.785 98.1362C431.863 97.8188 431.902 97.4819 431.902 97.1255V96.957C431.902 96.6055 431.863 96.2734 431.785 95.9609C431.711 95.6436 431.594 95.3628 431.433 95.1187C431.277 94.8745 431.077 94.6841 430.833 94.5474C430.593 94.4058 430.308 94.335 429.976 94.335C429.644 94.335 429.355 94.4058 429.111 94.5474C428.872 94.6841 428.674 94.8745 428.518 95.1187C428.362 95.3628 428.247 95.6436 428.174 95.9609C428.101 96.2734 428.064 96.6055 428.064 96.957ZM439.915 99.1323V93.0752H441.687V101H440.017L439.915 99.1323ZM440.164 97.4844L440.757 97.4697C440.757 98.002 440.698 98.4927 440.581 98.9419C440.464 99.3862 440.283 99.7744 440.039 100.106C439.795 100.434 439.482 100.69 439.102 100.875C438.721 101.056 438.264 101.146 437.732 101.146C437.346 101.146 436.992 101.09 436.67 100.978C436.348 100.866 436.069 100.692 435.835 100.458C435.605 100.224 435.427 99.9185 435.3 99.5425C435.173 99.1665 435.11 98.7173 435.11 98.1948V93.0752H436.875V98.2095C436.875 98.4976 436.909 98.7393 436.978 98.9346C437.046 99.125 437.139 99.2788 437.256 99.396C437.373 99.5132 437.51 99.5962 437.666 99.645C437.822 99.6938 437.988 99.7183 438.164 99.7183C438.667 99.7183 439.062 99.6206 439.351 99.4253C439.644 99.2251 439.851 98.9565 439.973 98.6196C440.1 98.2827 440.164 97.9043 440.164 97.4844ZM445.269 94.584V101H443.503V93.0752H445.188L445.269 94.584ZM447.693 93.0239L447.678 94.6646C447.571 94.645 447.454 94.6304 447.327 94.6206C447.205 94.6108 447.083 94.606 446.96 94.606C446.658 94.606 446.392 94.6499 446.162 94.7378C445.933 94.8208 445.74 94.9429 445.583 95.104C445.432 95.2603 445.315 95.4507 445.232 95.6753C445.149 95.8999 445.1 96.1514 445.085 96.4297L444.683 96.459C444.683 95.9609 444.731 95.4995 444.829 95.0747C444.927 94.6499 445.073 94.2764 445.269 93.9541C445.469 93.6318 445.718 93.3804 446.016 93.1997C446.318 93.019 446.667 92.9287 447.063 92.9287C447.17 92.9287 447.285 92.9385 447.407 92.958C447.534 92.9775 447.629 92.9995 447.693 93.0239Z" fill="#505050"/>
<rect x="361" y="113" width="238" height="38" rx="3" fill="white"/>
<circle cx="380" cy="132" r="12" fill="#286EFA"/>
<circle cx="380" cy="132" r="11.5" stroke="#1A1A1A" stroke-opacity="0.1"/>
<path d="M402.043 137L404.116 126.336H405.171L403.091 137H402.043ZM405.024 137L407.104 126.336H408.152L406.072 137H405.024ZM409.045 130.401H401.428V129.383H409.045V130.401ZM408.496 133.997H400.872V132.986H408.496V133.997ZM417.117 135.887V137H410.137V136.026L413.63 132.137C414.06 131.658 414.392 131.253 414.626 130.921C414.866 130.584 415.032 130.284 415.125 130.02C415.222 129.751 415.271 129.478 415.271 129.2C415.271 128.848 415.198 128.531 415.051 128.248C414.91 127.959 414.7 127.73 414.421 127.559C414.143 127.388 413.806 127.303 413.411 127.303C412.937 127.303 412.542 127.396 412.224 127.581C411.912 127.762 411.677 128.016 411.521 128.343C411.365 128.67 411.287 129.046 411.287 129.471H409.932C409.932 128.87 410.063 128.321 410.327 127.823C410.591 127.325 410.981 126.929 411.499 126.636C412.017 126.338 412.654 126.189 413.411 126.189C414.084 126.189 414.661 126.309 415.139 126.548C415.618 126.783 415.984 127.115 416.238 127.544C416.497 127.969 416.626 128.467 416.626 129.039C416.626 129.351 416.572 129.668 416.465 129.991C416.362 130.308 416.218 130.625 416.033 130.943C415.852 131.26 415.64 131.573 415.396 131.88C415.156 132.188 414.9 132.491 414.626 132.789L411.77 135.887H417.117ZM425.291 134.114C425.291 134.764 425.139 135.315 424.836 135.77C424.539 136.219 424.133 136.561 423.621 136.795C423.113 137.029 422.539 137.146 421.899 137.146C421.26 137.146 420.684 137.029 420.171 136.795C419.658 136.561 419.253 136.219 418.955 135.77C418.657 135.315 418.508 134.764 418.508 134.114C418.508 133.689 418.589 133.301 418.75 132.95C418.916 132.593 419.148 132.283 419.446 132.02C419.749 131.756 420.105 131.553 420.515 131.412C420.93 131.265 421.387 131.192 421.885 131.192C422.539 131.192 423.123 131.319 423.635 131.573C424.148 131.822 424.551 132.166 424.844 132.605C425.142 133.045 425.291 133.548 425.291 134.114ZM423.928 134.085C423.928 133.689 423.843 133.34 423.672 133.038C423.501 132.73 423.262 132.491 422.954 132.32C422.646 132.149 422.29 132.063 421.885 132.063C421.47 132.063 421.111 132.149 420.808 132.32C420.51 132.491 420.278 132.73 420.112 133.038C419.946 133.34 419.863 133.689 419.863 134.085C419.863 134.495 419.944 134.847 420.105 135.14C420.271 135.428 420.505 135.65 420.808 135.806C421.116 135.958 421.479 136.033 421.899 136.033C422.319 136.033 422.681 135.958 422.983 135.806C423.286 135.65 423.518 135.428 423.679 135.14C423.845 134.847 423.928 134.495 423.928 134.085ZM425.042 129.112C425.042 129.629 424.905 130.096 424.631 130.511C424.358 130.926 423.984 131.253 423.511 131.492C423.037 131.731 422.5 131.851 421.899 131.851C421.289 131.851 420.745 131.731 420.266 131.492C419.792 131.253 419.421 130.926 419.153 130.511C418.884 130.096 418.75 129.629 418.75 129.112C418.75 128.492 418.884 127.964 419.153 127.53C419.426 127.095 419.8 126.763 420.273 126.534C420.747 126.304 421.287 126.189 421.892 126.189C422.502 126.189 423.044 126.304 423.518 126.534C423.992 126.763 424.363 127.095 424.631 127.53C424.905 127.964 425.042 128.492 425.042 129.112ZM423.687 129.134C423.687 128.777 423.611 128.462 423.459 128.189C423.308 127.916 423.098 127.701 422.83 127.544C422.561 127.383 422.249 127.303 421.892 127.303C421.536 127.303 421.223 127.378 420.955 127.53C420.691 127.676 420.483 127.886 420.332 128.16C420.186 128.433 420.112 128.758 420.112 129.134C420.112 129.5 420.186 129.82 420.332 130.093C420.483 130.367 420.693 130.579 420.962 130.73C421.23 130.882 421.543 130.958 421.899 130.958C422.256 130.958 422.566 130.882 422.83 130.73C423.098 130.579 423.308 130.367 423.459 130.093C423.611 129.82 423.687 129.5 423.687 129.134ZM432.205 126.321H432.322V127.471H432.205C431.487 127.471 430.886 127.588 430.403 127.823C429.919 128.052 429.536 128.362 429.253 128.753C428.97 129.139 428.765 129.573 428.638 130.057C428.516 130.54 428.455 131.031 428.455 131.529V133.096C428.455 133.57 428.511 133.99 428.623 134.356C428.735 134.717 428.889 135.022 429.084 135.271C429.28 135.521 429.5 135.708 429.744 135.835C429.993 135.962 430.251 136.026 430.52 136.026C430.833 136.026 431.111 135.967 431.355 135.85C431.599 135.728 431.804 135.56 431.97 135.345C432.141 135.125 432.271 134.866 432.358 134.568C432.446 134.271 432.49 133.943 432.49 133.587C432.49 133.27 432.451 132.964 432.373 132.671C432.295 132.374 432.175 132.11 432.014 131.88C431.853 131.646 431.65 131.463 431.406 131.331C431.167 131.194 430.881 131.126 430.549 131.126C430.173 131.126 429.822 131.219 429.495 131.404C429.172 131.585 428.906 131.824 428.696 132.122C428.491 132.415 428.374 132.735 428.345 133.082L427.627 133.074C427.695 132.527 427.822 132.061 428.008 131.675C428.198 131.285 428.433 130.967 428.711 130.723C428.994 130.474 429.309 130.293 429.656 130.181C430.007 130.064 430.378 130.005 430.769 130.005C431.301 130.005 431.76 130.105 432.146 130.306C432.532 130.506 432.849 130.774 433.098 131.111C433.347 131.443 433.53 131.819 433.647 132.239C433.77 132.654 433.831 133.082 433.831 133.521C433.831 134.024 433.76 134.495 433.618 134.935C433.477 135.374 433.264 135.76 432.981 136.092C432.703 136.424 432.358 136.683 431.948 136.868C431.538 137.054 431.062 137.146 430.52 137.146C429.944 137.146 429.441 137.029 429.011 136.795C428.582 136.556 428.225 136.238 427.942 135.843C427.659 135.447 427.446 135.008 427.305 134.524C427.163 134.041 427.092 133.55 427.092 133.052V132.415C427.092 131.663 427.168 130.926 427.319 130.203C427.471 129.48 427.732 128.826 428.103 128.24C428.479 127.654 428.999 127.188 429.663 126.841C430.327 126.495 431.174 126.321 432.205 126.321ZM442.568 135.85V137H436.921V135.85H442.568ZM437.207 126.336V137H435.793V126.336H437.207ZM441.821 130.921V132.071H436.921V130.921H441.821ZM442.495 126.336V127.493H436.921V126.336H442.495ZM445.732 126.336V137H444.319V126.336H445.732ZM450.2 131.133V132.291H445.425V131.133H450.2ZM450.925 126.336V127.493H445.425V126.336H450.925ZM456.711 126.277V137H455.356V127.969L452.625 128.965V127.742L456.499 126.277H456.711Z" fill="#1A1A1A"/>
<path fill-rule="evenodd" clip-rule="evenodd" d="M586 132C586 137.523 581.523 142 576 142C570.477 142 566 137.523 566 132C566 126.477 570.477 122 576 122C581.523 122 586 126.477 586 132ZM572.913 127.587C572.547 127.221 571.953 127.221 571.587 127.587C571.221 127.953 571.221 128.547 571.587 128.913L574.674 132L571.587 135.087C571.221 135.453 571.221 136.047 571.587 136.413C571.953 136.779 572.547 136.779 572.913 136.413L576 133.326L579.087 136.413C579.453 136.779 580.047 136.779 580.413 136.413C580.779 136.047 580.779 135.453 580.413 135.087L577.326 132L580.413 128.913C580.779 128.547 580.779 127.953 580.413 127.587C580.047 127.221 579.453 127.221 579.087 127.587L576 130.674L572.913 127.587Z" fill="#737373"/>
<rect x="361" y="113" width="238" height="38" rx="3" stroke="#0059FF" stroke-width="2"/>
</g>
<path d="M16 0.5H624C632.56 0.5 639.5 7.43959 639.5 16V176C639.5 184.56 632.56 191.5 624 191.5H16C7.43957 191.5 0.5 184.56 0.5 176V16C0.5 7.43958 7.43959 0.5 16 0.5Z" stroke="#E6E6E6"/>
<defs>
<clipPath id="clip0_8209_90995">
<path d="M0 16C0 7.16344 7.16344 0 16 0H624C632.837 0 640 7.16344 640 16V176C640 184.837 632.837 192 624 192H16C7.16343 192 0 184.837 0 176V16Z" fill="white"/>
</clipPath>
<clipPath id="clip1_8209_90995">
<path d="M0 0H320V192H0V0Z" fill="white"/>
</clipPath>
</defs>
</svg>
