<svg width="620" height="424" viewBox="0 0 620 424" fill="none" xmlns="http://www.w3.org/2000/svg">
    <rect width="620" height="424" rx="16" fill="#F8F8F8"/>
    <path d="M127.764 101.542V103H122.41V101.542H127.764ZM122.922 92.3359V103H121.084V92.3359H122.922ZM133.477 101.411V97.6313C133.477 97.3481 133.425 97.104 133.323 96.8989C133.22 96.6938 133.064 96.5352 132.854 96.4229C132.649 96.3105 132.39 96.2544 132.078 96.2544C131.79 96.2544 131.541 96.3032 131.331 96.4009C131.121 96.4985 130.957 96.6304 130.84 96.7964C130.723 96.9624 130.664 97.1504 130.664 97.3604H128.906C128.906 97.0479 128.982 96.7451 129.133 96.4521C129.285 96.1592 129.504 95.8979 129.792 95.6685C130.081 95.439 130.425 95.2583 130.825 95.1265C131.226 94.9946 131.675 94.9287 132.173 94.9287C132.769 94.9287 133.296 95.0288 133.755 95.229C134.219 95.4292 134.583 95.7319 134.846 96.1372C135.115 96.5376 135.249 97.0405 135.249 97.646V101.169C135.249 101.53 135.273 101.855 135.322 102.143C135.376 102.426 135.452 102.673 135.549 102.883V103H133.74C133.657 102.81 133.591 102.568 133.542 102.275C133.499 101.977 133.477 101.689 133.477 101.411ZM133.733 98.1807L133.748 99.272H132.48C132.153 99.272 131.865 99.3037 131.616 99.3672C131.367 99.4258 131.16 99.5137 130.994 99.6309C130.828 99.748 130.703 99.8896 130.62 100.056C130.537 100.222 130.496 100.41 130.496 100.62C130.496 100.83 130.544 101.022 130.642 101.198C130.74 101.369 130.881 101.503 131.067 101.601C131.257 101.699 131.487 101.748 131.755 101.748C132.117 101.748 132.432 101.674 132.7 101.528C132.974 101.376 133.188 101.193 133.345 100.979C133.501 100.759 133.584 100.551 133.594 100.356L134.165 101.14C134.106 101.34 134.006 101.555 133.865 101.784C133.723 102.014 133.538 102.233 133.308 102.443C133.083 102.648 132.812 102.817 132.495 102.949C132.183 103.081 131.821 103.146 131.411 103.146C130.894 103.146 130.432 103.044 130.027 102.839C129.622 102.629 129.304 102.348 129.075 101.997C128.845 101.64 128.73 101.237 128.73 100.788C128.73 100.368 128.809 99.9971 128.965 99.6748C129.126 99.3477 129.36 99.0742 129.668 98.8545C129.98 98.6348 130.361 98.4688 130.811 98.3564C131.26 98.2393 131.772 98.1807 132.349 98.1807H133.733ZM137.102 91.75H138.867V101.308L138.699 103H137.102V91.75ZM144.038 98.9644V99.1182C144.038 99.7041 143.972 100.244 143.84 100.737C143.713 101.225 143.518 101.65 143.254 102.011C142.996 102.373 142.673 102.653 142.288 102.854C141.907 103.049 141.465 103.146 140.962 103.146C140.469 103.146 140.039 103.054 139.673 102.868C139.307 102.683 138.999 102.419 138.75 102.077C138.506 101.735 138.308 101.328 138.157 100.854C138.005 100.38 137.898 99.8579 137.834 99.2866V98.7959C137.898 98.2197 138.005 97.6973 138.157 97.2285C138.308 96.7549 138.506 96.3472 138.75 96.0054C138.999 95.6587 139.304 95.3926 139.666 95.207C140.032 95.0215 140.459 94.9287 140.947 94.9287C141.455 94.9287 141.902 95.0264 142.288 95.2217C142.678 95.417 143.003 95.6953 143.262 96.0566C143.521 96.4131 143.713 96.8379 143.84 97.3311C143.972 97.8242 144.038 98.3687 144.038 98.9644ZM142.273 99.1182V98.9644C142.273 98.6079 142.244 98.2734 142.185 97.9609C142.126 97.6436 142.029 97.3652 141.892 97.126C141.76 96.8867 141.58 96.6987 141.35 96.562C141.125 96.4204 140.845 96.3496 140.508 96.3496C140.195 96.3496 139.927 96.4033 139.702 96.5107C139.478 96.6182 139.29 96.7646 139.138 96.9502C138.987 97.1357 138.867 97.3506 138.779 97.5947C138.696 97.8389 138.64 98.1025 138.611 98.3857V99.7114C138.655 100.078 138.748 100.415 138.889 100.722C139.036 101.025 139.241 101.269 139.504 101.455C139.768 101.635 140.107 101.726 140.522 101.726C140.85 101.726 141.125 101.66 141.35 101.528C141.575 101.396 141.753 101.213 141.885 100.979C142.021 100.739 142.119 100.461 142.178 100.144C142.241 99.8262 142.273 99.4844 142.273 99.1182ZM149.026 103.146C148.44 103.146 147.91 103.051 147.437 102.861C146.968 102.666 146.567 102.395 146.235 102.048C145.908 101.701 145.657 101.293 145.481 100.825C145.305 100.356 145.217 99.8506 145.217 99.3086V99.0156C145.217 98.3955 145.308 97.834 145.488 97.3311C145.669 96.8281 145.92 96.3984 146.243 96.042C146.565 95.6807 146.946 95.4048 147.385 95.2144C147.825 95.0239 148.301 94.9287 148.813 94.9287C149.38 94.9287 149.875 95.0239 150.3 95.2144C150.725 95.4048 151.077 95.6733 151.355 96.02C151.638 96.3618 151.848 96.7695 151.985 97.2432C152.126 97.7168 152.197 98.2393 152.197 98.8105V99.5649H146.074V98.2979H150.454V98.1587C150.444 97.8413 150.381 97.5435 150.264 97.2651C150.151 96.9868 149.978 96.7622 149.744 96.5913C149.509 96.4204 149.197 96.335 148.806 96.335C148.513 96.335 148.252 96.3984 148.022 96.5254C147.798 96.6475 147.61 96.8257 147.458 97.0601C147.307 97.2944 147.19 97.5776 147.107 97.9097C147.029 98.2368 146.99 98.6055 146.99 99.0156V99.3086C146.99 99.6553 147.036 99.9775 147.129 100.275C147.227 100.568 147.368 100.825 147.554 101.044C147.739 101.264 147.964 101.438 148.228 101.564C148.491 101.687 148.792 101.748 149.128 101.748C149.553 101.748 149.932 101.662 150.264 101.491C150.596 101.32 150.884 101.079 151.128 100.766L152.058 101.667C151.887 101.916 151.665 102.155 151.392 102.385C151.118 102.609 150.784 102.792 150.388 102.934C149.998 103.076 149.543 103.146 149.026 103.146ZM155.464 91.75V103H153.691V91.75H155.464Z" fill="#505050"/>
    <rect x="120.5" y="114.5" width="399" height="39" rx="3.5" fill="white"/>
    <rect x="120.5" y="114.5" width="399" height="39" rx="3.5" stroke="#AAAAAA"/>
    <path d="M141.171 134.818H138.322V133.668H141.171C141.723 133.668 142.169 133.58 142.511 133.404C142.853 133.229 143.102 132.984 143.258 132.672C143.419 132.359 143.5 132.003 143.5 131.603C143.5 131.236 143.419 130.892 143.258 130.57C143.102 130.248 142.853 129.989 142.511 129.793C142.169 129.593 141.723 129.493 141.171 129.493H138.651V139H137.238V128.336H141.171C141.977 128.336 142.658 128.475 143.214 128.753C143.771 129.032 144.193 129.417 144.481 129.911C144.77 130.399 144.914 130.958 144.914 131.588C144.914 132.271 144.77 132.855 144.481 133.338C144.193 133.822 143.771 134.19 143.214 134.444C142.658 134.693 141.977 134.818 141.171 134.818ZM147.968 127.75V139H146.605V127.75H147.968ZM154.816 137.645V133.565C154.816 133.253 154.752 132.982 154.625 132.752C154.503 132.518 154.318 132.337 154.069 132.21C153.82 132.083 153.512 132.02 153.146 132.02C152.804 132.02 152.504 132.079 152.245 132.196C151.991 132.313 151.791 132.467 151.645 132.657C151.503 132.848 151.432 133.053 151.432 133.272H150.077C150.077 132.989 150.15 132.708 150.297 132.43C150.443 132.152 150.653 131.9 150.927 131.676C151.205 131.446 151.537 131.266 151.923 131.134C152.313 130.997 152.748 130.929 153.227 130.929C153.803 130.929 154.311 131.026 154.75 131.222C155.194 131.417 155.541 131.712 155.79 132.108C156.044 132.499 156.171 132.989 156.171 133.58V137.271C156.171 137.535 156.193 137.816 156.237 138.114C156.286 138.412 156.356 138.668 156.449 138.883V139H155.036C154.967 138.844 154.914 138.636 154.875 138.377C154.835 138.114 154.816 137.87 154.816 137.645ZM155.05 134.195L155.065 135.147H153.695C153.31 135.147 152.965 135.179 152.663 135.243C152.36 135.301 152.106 135.392 151.901 135.514C151.696 135.636 151.54 135.79 151.432 135.975C151.325 136.156 151.271 136.368 151.271 136.612C151.271 136.861 151.327 137.088 151.439 137.293C151.552 137.499 151.72 137.662 151.945 137.784C152.174 137.901 152.455 137.96 152.787 137.96C153.202 137.96 153.568 137.872 153.886 137.696C154.203 137.521 154.455 137.306 154.64 137.052C154.831 136.798 154.933 136.551 154.948 136.312L155.526 136.964C155.492 137.169 155.399 137.396 155.248 137.645C155.097 137.894 154.894 138.133 154.64 138.363C154.391 138.587 154.093 138.775 153.747 138.927C153.405 139.073 153.019 139.146 152.589 139.146C152.052 139.146 151.581 139.042 151.176 138.832C150.775 138.622 150.463 138.341 150.238 137.989C150.019 137.633 149.909 137.235 149.909 136.795C149.909 136.371 149.992 135.997 150.158 135.675C150.324 135.348 150.563 135.077 150.875 134.862C151.188 134.642 151.564 134.476 152.003 134.364C152.443 134.251 152.934 134.195 153.476 134.195H155.05ZM161.474 138.033C161.796 138.033 162.094 137.967 162.367 137.835C162.641 137.704 162.865 137.523 163.041 137.293C163.217 137.059 163.317 136.793 163.341 136.495H164.63C164.606 136.964 164.447 137.401 164.154 137.806C163.866 138.207 163.488 138.531 163.019 138.78C162.55 139.024 162.035 139.146 161.474 139.146C160.878 139.146 160.358 139.042 159.914 138.832C159.474 138.622 159.108 138.333 158.815 137.967C158.527 137.601 158.31 137.181 158.163 136.708C158.021 136.229 157.951 135.724 157.951 135.191V134.884C157.951 134.352 158.021 133.849 158.163 133.375C158.31 132.896 158.527 132.474 158.815 132.108C159.108 131.742 159.474 131.454 159.914 131.244C160.358 131.034 160.878 130.929 161.474 130.929C162.094 130.929 162.636 131.056 163.1 131.31C163.563 131.559 163.927 131.9 164.191 132.335C164.459 132.765 164.606 133.253 164.63 133.8H163.341C163.317 133.473 163.224 133.177 163.063 132.914C162.907 132.65 162.692 132.44 162.418 132.284C162.15 132.123 161.835 132.042 161.474 132.042C161.059 132.042 160.709 132.125 160.426 132.291C160.148 132.452 159.926 132.672 159.76 132.95C159.599 133.224 159.481 133.529 159.408 133.866C159.34 134.198 159.306 134.537 159.306 134.884V135.191C159.306 135.538 159.34 135.88 159.408 136.217C159.477 136.554 159.591 136.859 159.752 137.132C159.918 137.406 160.141 137.625 160.419 137.792C160.702 137.953 161.054 138.033 161.474 138.033ZM169.442 139.146C168.891 139.146 168.39 139.054 167.941 138.868C167.497 138.678 167.113 138.412 166.791 138.07C166.474 137.728 166.229 137.323 166.059 136.854C165.888 136.385 165.802 135.873 165.802 135.316V135.008C165.802 134.364 165.897 133.79 166.088 133.287C166.278 132.779 166.537 132.35 166.864 131.998C167.191 131.646 167.562 131.38 167.978 131.2C168.393 131.019 168.822 130.929 169.267 130.929C169.833 130.929 170.321 131.026 170.731 131.222C171.146 131.417 171.486 131.69 171.75 132.042C172.013 132.389 172.208 132.799 172.335 133.272C172.462 133.741 172.526 134.254 172.526 134.811V135.418H166.608V134.312H171.171V134.21C171.151 133.858 171.078 133.517 170.951 133.185C170.829 132.853 170.634 132.579 170.365 132.364C170.097 132.149 169.73 132.042 169.267 132.042C168.959 132.042 168.676 132.108 168.417 132.24C168.158 132.367 167.936 132.557 167.75 132.811C167.565 133.065 167.421 133.375 167.318 133.741C167.216 134.107 167.165 134.53 167.165 135.008V135.316C167.165 135.692 167.216 136.046 167.318 136.378C167.426 136.705 167.58 136.993 167.78 137.242C167.985 137.491 168.231 137.687 168.52 137.828C168.812 137.97 169.145 138.041 169.516 138.041C169.994 138.041 170.399 137.943 170.731 137.748C171.063 137.552 171.354 137.291 171.603 136.964L172.423 137.616C172.252 137.875 172.035 138.121 171.771 138.355C171.508 138.59 171.183 138.78 170.797 138.927C170.417 139.073 169.965 139.146 169.442 139.146ZM175.463 127.75V139H174.108V127.75H175.463ZM175.141 134.737L174.577 134.715C174.582 134.173 174.662 133.673 174.818 133.214C174.975 132.75 175.194 132.347 175.478 132.005C175.761 131.664 176.098 131.4 176.488 131.214C176.884 131.024 177.321 130.929 177.799 130.929C178.19 130.929 178.542 130.982 178.854 131.09C179.167 131.192 179.433 131.358 179.652 131.588C179.877 131.817 180.048 132.115 180.165 132.481C180.282 132.843 180.341 133.285 180.341 133.807V139H178.979V133.792C178.979 133.377 178.917 133.045 178.795 132.796C178.673 132.542 178.495 132.359 178.261 132.247C178.026 132.13 177.738 132.071 177.396 132.071C177.06 132.071 176.752 132.142 176.474 132.284C176.2 132.425 175.963 132.621 175.763 132.87C175.568 133.119 175.414 133.404 175.302 133.727C175.194 134.044 175.141 134.381 175.141 134.737ZM182.011 135.125V134.957C182.011 134.386 182.094 133.856 182.26 133.368C182.426 132.875 182.665 132.447 182.978 132.086C183.29 131.72 183.668 131.437 184.113 131.236C184.557 131.031 185.055 130.929 185.607 130.929C186.164 130.929 186.664 131.031 187.108 131.236C187.558 131.437 187.938 131.72 188.251 132.086C188.568 132.447 188.81 132.875 188.976 133.368C189.142 133.856 189.225 134.386 189.225 134.957V135.125C189.225 135.697 189.142 136.227 188.976 136.715C188.81 137.203 188.568 137.63 188.251 137.997C187.938 138.358 187.56 138.641 187.116 138.846C186.676 139.046 186.178 139.146 185.622 139.146C185.065 139.146 184.564 139.046 184.12 138.846C183.676 138.641 183.295 138.358 182.978 137.997C182.665 137.63 182.426 137.203 182.26 136.715C182.094 136.227 182.011 135.697 182.011 135.125ZM183.366 134.957V135.125C183.366 135.521 183.412 135.895 183.505 136.246C183.598 136.593 183.737 136.9 183.922 137.169C184.113 137.438 184.35 137.65 184.633 137.806C184.916 137.958 185.246 138.033 185.622 138.033C185.993 138.033 186.317 137.958 186.596 137.806C186.879 137.65 187.113 137.438 187.299 137.169C187.484 136.9 187.624 136.593 187.716 136.246C187.814 135.895 187.863 135.521 187.863 135.125V134.957C187.863 134.566 187.814 134.198 187.716 133.851C187.624 133.5 187.482 133.189 187.292 132.921C187.106 132.647 186.872 132.433 186.588 132.276C186.31 132.12 185.983 132.042 185.607 132.042C185.236 132.042 184.909 132.12 184.625 132.276C184.347 132.433 184.113 132.647 183.922 132.921C183.737 133.189 183.598 133.5 183.505 133.851C183.412 134.198 183.366 134.566 183.366 134.957ZM192.396 127.75V139H191.034V127.75H192.396ZM199.567 137.462V127.75H200.929V139H199.684L199.567 137.462ZM194.235 135.125V134.972C194.235 134.366 194.308 133.817 194.455 133.324C194.606 132.826 194.818 132.398 195.092 132.042C195.37 131.686 195.7 131.412 196.081 131.222C196.466 131.026 196.896 130.929 197.37 130.929C197.868 130.929 198.302 131.017 198.673 131.192C199.049 131.363 199.367 131.615 199.625 131.947C199.889 132.274 200.097 132.669 200.248 133.133C200.399 133.597 200.504 134.122 200.563 134.708V135.382C200.509 135.963 200.404 136.485 200.248 136.949C200.097 137.413 199.889 137.809 199.625 138.136C199.367 138.463 199.049 138.714 198.673 138.89C198.297 139.061 197.858 139.146 197.355 139.146C196.891 139.146 196.466 139.046 196.081 138.846C195.7 138.646 195.37 138.365 195.092 138.004C194.818 137.643 194.606 137.218 194.455 136.729C194.308 136.236 194.235 135.702 194.235 135.125ZM195.597 134.972V135.125C195.597 135.521 195.636 135.892 195.714 136.239C195.797 136.585 195.924 136.891 196.095 137.154C196.266 137.418 196.483 137.625 196.747 137.777C197.011 137.923 197.326 137.997 197.692 137.997C198.141 137.997 198.51 137.901 198.798 137.711C199.091 137.521 199.325 137.269 199.501 136.957C199.677 136.644 199.813 136.305 199.911 135.938V134.173C199.853 133.905 199.767 133.646 199.655 133.397C199.547 133.143 199.406 132.918 199.23 132.723C199.059 132.523 198.847 132.364 198.593 132.247C198.344 132.13 198.048 132.071 197.707 132.071C197.335 132.071 197.016 132.149 196.747 132.306C196.483 132.457 196.266 132.667 196.095 132.936C195.924 133.199 195.797 133.507 195.714 133.858C195.636 134.205 195.597 134.576 195.597 134.972ZM206.327 139.146C205.775 139.146 205.275 139.054 204.826 138.868C204.381 138.678 203.998 138.412 203.676 138.07C203.358 137.728 203.114 137.323 202.943 136.854C202.772 136.385 202.687 135.873 202.687 135.316V135.008C202.687 134.364 202.782 133.79 202.973 133.287C203.163 132.779 203.422 132.35 203.749 131.998C204.076 131.646 204.447 131.38 204.862 131.2C205.277 131.019 205.707 130.929 206.151 130.929C206.718 130.929 207.206 131.026 207.616 131.222C208.031 131.417 208.371 131.69 208.634 132.042C208.898 132.389 209.093 132.799 209.22 133.272C209.347 133.741 209.411 134.254 209.411 134.811V135.418H203.493V134.312H208.056V134.21C208.036 133.858 207.963 133.517 207.836 133.185C207.714 132.853 207.519 132.579 207.25 132.364C206.981 132.149 206.615 132.042 206.151 132.042C205.844 132.042 205.561 132.108 205.302 132.24C205.043 132.367 204.821 132.557 204.635 132.811C204.45 133.065 204.306 133.375 204.203 133.741C204.101 134.107 204.049 134.53 204.049 135.008V135.316C204.049 135.692 204.101 136.046 204.203 136.378C204.311 136.705 204.464 136.993 204.665 137.242C204.87 137.491 205.116 137.687 205.404 137.828C205.697 137.97 206.029 138.041 206.4 138.041C206.879 138.041 207.284 137.943 207.616 137.748C207.948 137.552 208.239 137.291 208.488 136.964L209.308 137.616C209.137 137.875 208.92 138.121 208.656 138.355C208.393 138.59 208.068 138.78 207.682 138.927C207.301 139.073 206.85 139.146 206.327 139.146ZM212.348 132.32V139H210.993V131.075H212.311L212.348 132.32ZM214.823 131.031L214.816 132.291C214.704 132.267 214.596 132.252 214.494 132.247C214.396 132.237 214.284 132.232 214.157 132.232C213.844 132.232 213.568 132.281 213.329 132.379C213.09 132.477 212.887 132.613 212.721 132.789C212.555 132.965 212.423 133.175 212.326 133.419C212.233 133.658 212.172 133.922 212.143 134.21L211.762 134.43C211.762 133.951 211.808 133.502 211.901 133.082C211.999 132.662 212.147 132.291 212.348 131.969C212.548 131.642 212.802 131.388 213.109 131.207C213.422 131.021 213.793 130.929 214.223 130.929C214.32 130.929 214.433 130.941 214.56 130.965C214.687 130.985 214.774 131.007 214.823 131.031Z" fill="#737373"/>
    <path d="M127.109 166.731V167.728H122.107V166.731H127.109ZM122.298 162.758V172H121.073V162.758H122.298ZM128.176 162.758V172H126.957V162.758H128.176ZM133.025 172.127C132.547 172.127 132.113 172.047 131.724 171.886C131.339 171.721 131.007 171.49 130.728 171.194C130.452 170.898 130.241 170.546 130.093 170.14C129.945 169.734 129.871 169.29 129.871 168.807V168.541C129.871 167.982 129.953 167.485 130.118 167.049C130.283 166.609 130.507 166.236 130.791 165.932C131.075 165.627 131.396 165.396 131.756 165.24C132.116 165.083 132.488 165.005 132.873 165.005C133.364 165.005 133.787 165.09 134.143 165.259C134.502 165.428 134.796 165.665 135.025 165.97C135.253 166.27 135.423 166.626 135.533 167.036C135.643 167.442 135.698 167.887 135.698 168.369V168.896H130.569V167.938H134.523V167.849C134.507 167.544 134.443 167.248 134.333 166.96C134.227 166.672 134.058 166.435 133.825 166.249C133.592 166.063 133.275 165.97 132.873 165.97C132.606 165.97 132.361 166.027 132.137 166.141C131.912 166.251 131.72 166.416 131.559 166.636C131.398 166.856 131.273 167.125 131.185 167.442C131.096 167.76 131.051 168.126 131.051 168.541V168.807C131.051 169.133 131.096 169.44 131.185 169.728C131.278 170.011 131.411 170.261 131.584 170.477C131.762 170.692 131.976 170.862 132.226 170.984C132.479 171.107 132.767 171.168 133.089 171.168C133.504 171.168 133.855 171.084 134.143 170.915C134.43 170.745 134.682 170.519 134.898 170.235L135.609 170.8C135.461 171.025 135.272 171.238 135.044 171.441C134.815 171.645 134.534 171.81 134.2 171.937C133.87 172.063 133.478 172.127 133.025 172.127ZM138.345 162.25V172H137.164V162.25H138.345ZM141.404 166.452V174.641H140.224V165.132H141.303L141.404 166.452ZM146.032 168.509V168.642C146.032 169.141 145.972 169.605 145.854 170.032C145.736 170.455 145.562 170.824 145.333 171.137C145.109 171.45 144.832 171.693 144.502 171.867C144.172 172.04 143.793 172.127 143.366 172.127C142.93 172.127 142.545 172.055 142.21 171.911C141.876 171.767 141.593 171.558 141.36 171.283C141.127 171.008 140.941 170.678 140.801 170.292C140.666 169.907 140.573 169.474 140.522 168.991V168.28C140.573 167.772 140.668 167.318 140.808 166.916C140.947 166.514 141.131 166.171 141.36 165.887C141.593 165.599 141.874 165.382 142.204 165.233C142.534 165.081 142.915 165.005 143.347 165.005C143.778 165.005 144.161 165.09 144.496 165.259C144.83 165.424 145.111 165.661 145.34 165.97C145.568 166.279 145.74 166.649 145.854 167.081C145.972 167.508 146.032 167.984 146.032 168.509ZM144.851 168.642V168.509C144.851 168.166 144.815 167.844 144.743 167.544C144.671 167.239 144.559 166.973 144.407 166.744C144.259 166.511 144.068 166.329 143.835 166.198C143.603 166.063 143.326 165.995 143.004 165.995C142.708 165.995 142.45 166.046 142.229 166.147C142.014 166.249 141.83 166.387 141.677 166.56C141.525 166.729 141.4 166.924 141.303 167.144C141.21 167.36 141.14 167.584 141.093 167.817V169.461C141.178 169.757 141.296 170.036 141.449 170.299C141.601 170.557 141.804 170.766 142.058 170.927C142.312 171.084 142.632 171.162 143.017 171.162C143.334 171.162 143.607 171.097 143.835 170.965C144.068 170.83 144.259 170.646 144.407 170.413C144.559 170.18 144.671 169.914 144.743 169.613C144.815 169.309 144.851 168.985 144.851 168.642ZM153.63 165.132V166.033H149.917V165.132H153.63ZM151.173 163.462H152.348V170.299C152.348 170.532 152.384 170.707 152.456 170.826C152.528 170.944 152.621 171.022 152.735 171.061C152.849 171.099 152.972 171.118 153.103 171.118C153.2 171.118 153.302 171.109 153.408 171.092C153.518 171.071 153.6 171.054 153.655 171.042L153.662 172C153.569 172.03 153.446 172.057 153.293 172.083C153.145 172.112 152.965 172.127 152.754 172.127C152.466 172.127 152.202 172.07 151.96 171.956C151.719 171.841 151.527 171.651 151.383 171.384C151.243 171.113 151.173 170.75 151.173 170.292V163.462ZM157.857 172.127C157.379 172.127 156.945 172.047 156.556 171.886C156.171 171.721 155.839 171.49 155.56 171.194C155.285 170.898 155.073 170.546 154.925 170.14C154.777 169.734 154.703 169.29 154.703 168.807V168.541C154.703 167.982 154.785 167.485 154.95 167.049C155.115 166.609 155.34 166.236 155.623 165.932C155.907 165.627 156.228 165.396 156.588 165.24C156.948 165.083 157.32 165.005 157.705 165.005C158.196 165.005 158.619 165.09 158.975 165.259C159.334 165.428 159.628 165.665 159.857 165.97C160.085 166.27 160.255 166.626 160.365 167.036C160.475 167.442 160.53 167.887 160.53 168.369V168.896H155.401V167.938H159.355V167.849C159.339 167.544 159.275 167.248 159.165 166.96C159.059 166.672 158.89 166.435 158.657 166.249C158.424 166.063 158.107 165.97 157.705 165.97C157.438 165.97 157.193 166.027 156.969 166.141C156.744 166.251 156.552 166.416 156.391 166.636C156.23 166.856 156.105 167.125 156.017 167.442C155.928 167.76 155.883 168.126 155.883 168.541V168.807C155.883 169.133 155.928 169.44 156.017 169.728C156.11 170.011 156.243 170.261 156.417 170.477C156.594 170.692 156.808 170.862 157.058 170.984C157.312 171.107 157.599 171.168 157.921 171.168C158.336 171.168 158.687 171.084 158.975 170.915C159.262 170.745 159.514 170.519 159.73 170.235L160.441 170.8C160.293 171.025 160.104 171.238 159.876 171.441C159.647 171.645 159.366 171.81 159.032 171.937C158.702 172.063 158.31 172.127 157.857 172.127ZM162.694 165.132L164.199 167.633L165.722 165.132H167.1L164.853 168.521L167.169 172H165.811L164.224 169.423L162.637 172H161.272L163.583 168.521L161.342 165.132H162.694ZM171.226 165.132V166.033H167.512V165.132H171.226ZM168.769 163.462H169.943V170.299C169.943 170.532 169.979 170.707 170.051 170.826C170.123 170.944 170.216 171.022 170.331 171.061C170.445 171.099 170.568 171.118 170.699 171.118C170.796 171.118 170.898 171.109 171.003 171.092C171.113 171.071 171.196 171.054 171.251 171.042L171.257 172C171.164 172.03 171.042 172.057 170.889 172.083C170.741 172.112 170.561 172.127 170.35 172.127C170.062 172.127 169.797 172.07 169.556 171.956C169.315 171.841 169.122 171.651 168.979 171.384C168.839 171.113 168.769 170.75 168.769 170.292V163.462Z" fill="#505050"/>
    <path d="M127.764 233.542V235H122.41V233.542H127.764ZM122.922 224.336V235H121.084V224.336H122.922ZM133.477 233.411V229.631C133.477 229.348 133.425 229.104 133.323 228.899C133.22 228.694 133.064 228.535 132.854 228.423C132.649 228.311 132.39 228.254 132.078 228.254C131.79 228.254 131.541 228.303 131.331 228.401C131.121 228.499 130.957 228.63 130.84 228.796C130.723 228.962 130.664 229.15 130.664 229.36H128.906C128.906 229.048 128.982 228.745 129.133 228.452C129.285 228.159 129.504 227.898 129.792 227.668C130.081 227.439 130.425 227.258 130.825 227.126C131.226 226.995 131.675 226.929 132.173 226.929C132.769 226.929 133.296 227.029 133.755 227.229C134.219 227.429 134.583 227.732 134.846 228.137C135.115 228.538 135.249 229.041 135.249 229.646V233.169C135.249 233.53 135.273 233.855 135.322 234.143C135.376 234.426 135.452 234.673 135.549 234.883V235H133.74C133.657 234.81 133.591 234.568 133.542 234.275C133.499 233.977 133.477 233.689 133.477 233.411ZM133.733 230.181L133.748 231.272H132.48C132.153 231.272 131.865 231.304 131.616 231.367C131.367 231.426 131.16 231.514 130.994 231.631C130.828 231.748 130.703 231.89 130.62 232.056C130.537 232.222 130.496 232.41 130.496 232.62C130.496 232.83 130.544 233.022 130.642 233.198C130.74 233.369 130.881 233.503 131.067 233.601C131.257 233.699 131.487 233.748 131.755 233.748C132.117 233.748 132.432 233.674 132.7 233.528C132.974 233.376 133.188 233.193 133.345 232.979C133.501 232.759 133.584 232.551 133.594 232.356L134.165 233.14C134.106 233.34 134.006 233.555 133.865 233.784C133.723 234.014 133.538 234.233 133.308 234.443C133.083 234.648 132.812 234.817 132.495 234.949C132.183 235.081 131.821 235.146 131.411 235.146C130.894 235.146 130.432 235.044 130.027 234.839C129.622 234.629 129.304 234.348 129.075 233.997C128.845 233.64 128.73 233.237 128.73 232.788C128.73 232.368 128.809 231.997 128.965 231.675C129.126 231.348 129.36 231.074 129.668 230.854C129.98 230.635 130.361 230.469 130.811 230.356C131.26 230.239 131.772 230.181 132.349 230.181H133.733ZM137.102 223.75H138.867V233.308L138.699 235H137.102V223.75ZM144.038 230.964V231.118C144.038 231.704 143.972 232.244 143.84 232.737C143.713 233.225 143.518 233.65 143.254 234.011C142.996 234.373 142.673 234.653 142.288 234.854C141.907 235.049 141.465 235.146 140.962 235.146C140.469 235.146 140.039 235.054 139.673 234.868C139.307 234.683 138.999 234.419 138.75 234.077C138.506 233.735 138.308 233.328 138.157 232.854C138.005 232.38 137.898 231.858 137.834 231.287V230.796C137.898 230.22 138.005 229.697 138.157 229.229C138.308 228.755 138.506 228.347 138.75 228.005C138.999 227.659 139.304 227.393 139.666 227.207C140.032 227.021 140.459 226.929 140.947 226.929C141.455 226.929 141.902 227.026 142.288 227.222C142.678 227.417 143.003 227.695 143.262 228.057C143.521 228.413 143.713 228.838 143.84 229.331C143.972 229.824 144.038 230.369 144.038 230.964ZM142.273 231.118V230.964C142.273 230.608 142.244 230.273 142.185 229.961C142.126 229.644 142.029 229.365 141.892 229.126C141.76 228.887 141.58 228.699 141.35 228.562C141.125 228.42 140.845 228.35 140.508 228.35C140.195 228.35 139.927 228.403 139.702 228.511C139.478 228.618 139.29 228.765 139.138 228.95C138.987 229.136 138.867 229.351 138.779 229.595C138.696 229.839 138.64 230.103 138.611 230.386V231.711C138.655 232.078 138.748 232.415 138.889 232.722C139.036 233.025 139.241 233.269 139.504 233.455C139.768 233.635 140.107 233.726 140.522 233.726C140.85 233.726 141.125 233.66 141.35 233.528C141.575 233.396 141.753 233.213 141.885 232.979C142.021 232.739 142.119 232.461 142.178 232.144C142.241 231.826 142.273 231.484 142.273 231.118ZM149.026 235.146C148.44 235.146 147.91 235.051 147.437 234.861C146.968 234.666 146.567 234.395 146.235 234.048C145.908 233.701 145.657 233.293 145.481 232.825C145.305 232.356 145.217 231.851 145.217 231.309V231.016C145.217 230.396 145.308 229.834 145.488 229.331C145.669 228.828 145.92 228.398 146.243 228.042C146.565 227.681 146.946 227.405 147.385 227.214C147.825 227.024 148.301 226.929 148.813 226.929C149.38 226.929 149.875 227.024 150.3 227.214C150.725 227.405 151.077 227.673 151.355 228.02C151.638 228.362 151.848 228.77 151.985 229.243C152.126 229.717 152.197 230.239 152.197 230.811V231.565H146.074V230.298H150.454V230.159C150.444 229.841 150.381 229.543 150.264 229.265C150.151 228.987 149.978 228.762 149.744 228.591C149.509 228.42 149.197 228.335 148.806 228.335C148.513 228.335 148.252 228.398 148.022 228.525C147.798 228.647 147.61 228.826 147.458 229.06C147.307 229.294 147.19 229.578 147.107 229.91C147.029 230.237 146.99 230.605 146.99 231.016V231.309C146.99 231.655 147.036 231.978 147.129 232.275C147.227 232.568 147.368 232.825 147.554 233.044C147.739 233.264 147.964 233.438 148.228 233.564C148.491 233.687 148.792 233.748 149.128 233.748C149.553 233.748 149.932 233.662 150.264 233.491C150.596 233.32 150.884 233.079 151.128 232.766L152.058 233.667C151.887 233.916 151.665 234.155 151.392 234.385C151.118 234.609 150.784 234.792 150.388 234.934C149.998 235.076 149.543 235.146 149.026 235.146ZM155.464 223.75V235H153.691V223.75H155.464Z" fill="#505050"/>
    <rect x="120.5" y="246.5" width="399" height="39" rx="3.5" fill="white"/>
    <rect x="120.5" y="246.5" width="399" height="39" rx="3.5" stroke="#F45C59"/>
    <path d="M138.754 260.336V271H137.34V260.336H138.754ZM142.475 264.767V271H141.12V263.075H142.401L142.475 264.767ZM142.152 266.737L141.588 266.715C141.593 266.173 141.674 265.673 141.83 265.214C141.986 264.75 142.206 264.347 142.489 264.005C142.772 263.664 143.109 263.4 143.5 263.214C143.896 263.024 144.333 262.929 144.811 262.929C145.202 262.929 145.553 262.982 145.866 263.09C146.178 263.192 146.444 263.358 146.664 263.588C146.889 263.817 147.06 264.115 147.177 264.481C147.294 264.843 147.353 265.285 147.353 265.807V271H145.99V265.792C145.99 265.377 145.929 265.045 145.807 264.796C145.685 264.542 145.507 264.359 145.272 264.247C145.038 264.13 144.75 264.071 144.408 264.071C144.071 264.071 143.764 264.142 143.485 264.284C143.212 264.425 142.975 264.621 142.775 264.87C142.58 265.119 142.426 265.404 142.313 265.727C142.206 266.044 142.152 266.381 142.152 266.737ZM150.766 264.599V274.047H149.403V263.075H150.648L150.766 264.599ZM156.105 266.972V267.125C156.105 267.702 156.037 268.236 155.9 268.729C155.763 269.218 155.563 269.643 155.299 270.004C155.041 270.365 154.721 270.646 154.34 270.846C153.959 271.046 153.522 271.146 153.029 271.146C152.526 271.146 152.082 271.063 151.696 270.897C151.31 270.731 150.983 270.49 150.714 270.172C150.446 269.855 150.231 269.474 150.07 269.03C149.914 268.585 149.806 268.085 149.748 267.528V266.708C149.806 266.122 149.916 265.597 150.077 265.133C150.238 264.669 150.451 264.274 150.714 263.947C150.983 263.615 151.308 263.363 151.688 263.192C152.069 263.017 152.509 262.929 153.007 262.929C153.505 262.929 153.947 263.026 154.333 263.222C154.718 263.412 155.043 263.686 155.307 264.042C155.57 264.398 155.768 264.826 155.9 265.324C156.037 265.817 156.105 266.366 156.105 266.972ZM154.743 267.125V266.972C154.743 266.576 154.701 266.205 154.618 265.858C154.535 265.507 154.406 265.199 154.23 264.936C154.059 264.667 153.839 264.457 153.571 264.306C153.302 264.149 152.982 264.071 152.611 264.071C152.27 264.071 151.972 264.13 151.718 264.247C151.469 264.364 151.256 264.523 151.081 264.723C150.905 264.918 150.761 265.143 150.648 265.397C150.541 265.646 150.46 265.905 150.407 266.173V268.07C150.504 268.412 150.641 268.734 150.817 269.037C150.993 269.335 151.227 269.577 151.52 269.762C151.813 269.943 152.182 270.033 152.626 270.033C152.992 270.033 153.307 269.958 153.571 269.806C153.839 269.65 154.059 269.438 154.23 269.169C154.406 268.9 154.535 268.593 154.618 268.246C154.701 267.895 154.743 267.521 154.743 267.125ZM162.682 269.169V263.075H164.044V271H162.748L162.682 269.169ZM162.938 267.499L163.502 267.484C163.502 268.012 163.446 268.5 163.334 268.949C163.227 269.394 163.051 269.779 162.807 270.106C162.562 270.434 162.243 270.69 161.847 270.875C161.452 271.056 160.971 271.146 160.404 271.146C160.019 271.146 159.665 271.09 159.342 270.978C159.025 270.866 158.751 270.692 158.522 270.458C158.292 270.224 158.114 269.918 157.987 269.542C157.865 269.167 157.804 268.715 157.804 268.188V263.075H159.159V268.202C159.159 268.559 159.198 268.854 159.276 269.088C159.359 269.318 159.469 269.501 159.606 269.638C159.748 269.77 159.904 269.862 160.075 269.916C160.25 269.97 160.431 269.997 160.617 269.997C161.193 269.997 161.649 269.887 161.986 269.667C162.323 269.442 162.565 269.142 162.711 268.766C162.863 268.385 162.938 267.963 162.938 267.499ZM169.428 263.075V264.115H165.143V263.075H169.428ZM166.593 261.149H167.948V269.037C167.948 269.306 167.99 269.508 168.073 269.645C168.156 269.782 168.263 269.872 168.395 269.916C168.527 269.96 168.668 269.982 168.82 269.982C168.932 269.982 169.049 269.972 169.171 269.953C169.298 269.928 169.394 269.909 169.457 269.894L169.464 271C169.357 271.034 169.215 271.066 169.04 271.095C168.869 271.129 168.661 271.146 168.417 271.146C168.085 271.146 167.78 271.081 167.501 270.949C167.223 270.817 167.001 270.597 166.835 270.29C166.674 269.977 166.593 269.557 166.593 269.03V261.149ZM178.056 263.075V264.115H173.771V263.075H178.056ZM175.221 261.149H176.576V269.037C176.576 269.306 176.618 269.508 176.701 269.645C176.784 269.782 176.891 269.872 177.023 269.916C177.155 269.96 177.296 269.982 177.448 269.982C177.56 269.982 177.677 269.972 177.799 269.953C177.926 269.928 178.021 269.909 178.085 269.894L178.092 271C177.985 271.034 177.843 271.066 177.667 271.095C177.497 271.129 177.289 271.146 177.045 271.146C176.713 271.146 176.408 271.081 176.129 270.949C175.851 270.817 175.629 270.597 175.463 270.29C175.302 269.977 175.221 269.557 175.221 269.03V261.149ZM182.934 271.146C182.382 271.146 181.881 271.054 181.432 270.868C180.988 270.678 180.604 270.412 180.282 270.07C179.965 269.728 179.721 269.323 179.55 268.854C179.379 268.385 179.293 267.873 179.293 267.316V267.008C179.293 266.364 179.389 265.79 179.579 265.287C179.77 264.779 180.028 264.35 180.355 263.998C180.683 263.646 181.054 263.38 181.469 263.2C181.884 263.019 182.313 262.929 182.758 262.929C183.324 262.929 183.812 263.026 184.223 263.222C184.638 263.417 184.977 263.69 185.241 264.042C185.504 264.389 185.7 264.799 185.827 265.272C185.954 265.741 186.017 266.254 186.017 266.811V267.418H180.099V266.312H184.662V266.21C184.643 265.858 184.569 265.517 184.442 265.185C184.32 264.853 184.125 264.579 183.856 264.364C183.588 264.149 183.222 264.042 182.758 264.042C182.45 264.042 182.167 264.108 181.908 264.24C181.649 264.367 181.427 264.557 181.242 264.811C181.056 265.065 180.912 265.375 180.81 265.741C180.707 266.107 180.656 266.53 180.656 267.008V267.316C180.656 267.692 180.707 268.046 180.81 268.378C180.917 268.705 181.071 268.993 181.271 269.242C181.476 269.491 181.723 269.687 182.011 269.828C182.304 269.97 182.636 270.041 183.007 270.041C183.485 270.041 183.891 269.943 184.223 269.748C184.555 269.552 184.845 269.291 185.094 268.964L185.915 269.616C185.744 269.875 185.526 270.121 185.263 270.355C184.999 270.59 184.674 270.78 184.289 270.927C183.908 271.073 183.456 271.146 182.934 271.146ZM188.515 263.075L190.25 265.961L192.008 263.075H193.598L191.005 266.986L193.678 271H192.111L190.28 268.026L188.449 271H186.874L189.54 266.986L186.955 263.075H188.515ZM198.358 263.075V264.115H194.074V263.075H198.358ZM195.524 261.149H196.879V269.037C196.879 269.306 196.92 269.508 197.003 269.645C197.086 269.782 197.194 269.872 197.326 269.916C197.458 269.96 197.599 269.982 197.75 269.982C197.863 269.982 197.98 269.972 198.102 269.953C198.229 269.928 198.324 269.909 198.388 269.894L198.395 271C198.288 271.034 198.146 271.066 197.97 271.095C197.799 271.129 197.592 271.146 197.348 271.146C197.016 271.146 196.71 271.081 196.432 270.949C196.154 270.817 195.932 270.597 195.766 270.29C195.604 269.977 195.524 269.557 195.524 269.03V261.149Z" fill="#1A1A1A"/>
    <path d="M128.013 305.85V307H122.366V305.85H128.013ZM122.651 296.336V307H121.238V296.336H122.651ZM127.266 300.921V302.071H122.366V300.921H127.266ZM127.939 296.336V297.493H122.366V296.336H127.939ZM130.913 300.32V307H129.558V299.075H130.876L130.913 300.32ZM133.389 299.031L133.381 300.291C133.269 300.267 133.162 300.252 133.059 300.247C132.961 300.237 132.849 300.232 132.722 300.232C132.41 300.232 132.134 300.281 131.895 300.379C131.655 300.477 131.453 300.613 131.287 300.789C131.121 300.965 130.989 301.175 130.891 301.419C130.798 301.658 130.737 301.922 130.708 302.21L130.327 302.43C130.327 301.951 130.374 301.502 130.466 301.082C130.564 300.662 130.713 300.291 130.913 299.969C131.113 299.642 131.367 299.388 131.675 299.207C131.987 299.021 132.358 298.929 132.788 298.929C132.886 298.929 132.998 298.941 133.125 298.965C133.252 298.985 133.34 299.007 133.389 299.031ZM135.996 300.32V307H134.641V299.075H135.959L135.996 300.32ZM138.472 299.031L138.464 300.291C138.352 300.267 138.245 300.252 138.142 300.247C138.044 300.237 137.932 300.232 137.805 300.232C137.493 300.232 137.217 300.281 136.978 300.379C136.738 300.477 136.536 300.613 136.37 300.789C136.204 300.965 136.072 301.175 135.974 301.419C135.881 301.658 135.82 301.922 135.791 302.21L135.41 302.43C135.41 301.951 135.457 301.502 135.549 301.082C135.647 300.662 135.796 300.291 135.996 299.969C136.196 299.642 136.45 299.388 136.758 299.207C137.07 299.021 137.441 298.929 137.871 298.929C137.969 298.929 138.081 298.941 138.208 298.965C138.335 298.985 138.423 299.007 138.472 299.031ZM139.219 303.125V302.957C139.219 302.386 139.302 301.856 139.468 301.368C139.634 300.875 139.873 300.447 140.186 300.086C140.498 299.72 140.876 299.437 141.321 299.236C141.765 299.031 142.263 298.929 142.815 298.929C143.372 298.929 143.872 299.031 144.316 299.236C144.766 299.437 145.146 299.72 145.459 300.086C145.776 300.447 146.018 300.875 146.184 301.368C146.35 301.856 146.433 302.386 146.433 302.957V303.125C146.433 303.697 146.35 304.227 146.184 304.715C146.018 305.203 145.776 305.63 145.459 305.997C145.146 306.358 144.768 306.641 144.324 306.846C143.884 307.046 143.386 307.146 142.83 307.146C142.273 307.146 141.772 307.046 141.328 306.846C140.884 306.641 140.503 306.358 140.186 305.997C139.873 305.63 139.634 305.203 139.468 304.715C139.302 304.227 139.219 303.697 139.219 303.125ZM140.574 302.957V303.125C140.574 303.521 140.62 303.895 140.713 304.246C140.806 304.593 140.945 304.9 141.13 305.169C141.321 305.438 141.558 305.65 141.841 305.806C142.124 305.958 142.454 306.033 142.83 306.033C143.201 306.033 143.525 305.958 143.804 305.806C144.087 305.65 144.321 305.438 144.507 305.169C144.692 304.9 144.832 304.593 144.924 304.246C145.022 303.895 145.071 303.521 145.071 303.125V302.957C145.071 302.566 145.022 302.198 144.924 301.851C144.832 301.5 144.69 301.189 144.5 300.921C144.314 300.647 144.08 300.433 143.796 300.276C143.518 300.12 143.191 300.042 142.815 300.042C142.444 300.042 142.117 300.12 141.833 300.276C141.555 300.433 141.321 300.647 141.13 300.921C140.945 301.189 140.806 301.5 140.713 301.851C140.62 302.198 140.574 302.566 140.574 302.957ZM149.487 300.32V307H148.132V299.075H149.451L149.487 300.32ZM151.963 299.031L151.956 300.291C151.843 300.267 151.736 300.252 151.633 300.247C151.536 300.237 151.423 300.232 151.296 300.232C150.984 300.232 150.708 300.281 150.469 300.379C150.229 300.477 150.027 300.613 149.861 300.789C149.695 300.965 149.563 301.175 149.465 301.419C149.373 301.658 149.312 301.922 149.282 302.21L148.901 302.43C148.901 301.951 148.948 301.502 149.041 301.082C149.138 300.662 149.287 300.291 149.487 299.969C149.688 299.642 149.941 299.388 150.249 299.207C150.562 299.021 150.933 298.929 151.362 298.929C151.46 298.929 151.572 298.941 151.699 298.965C151.826 298.985 151.914 299.007 151.963 299.031ZM157.588 296.336H158.958L162.451 305.03L165.938 296.336H167.314L162.979 307H161.909L157.588 296.336ZM157.141 296.336H158.35L158.547 302.84V307H157.141V296.336ZM166.545 296.336H167.754V307H166.348V302.84L166.545 296.336ZM173.32 307.146C172.769 307.146 172.268 307.054 171.819 306.868C171.375 306.678 170.991 306.412 170.669 306.07C170.352 305.728 170.107 305.323 169.937 304.854C169.766 304.385 169.68 303.873 169.68 303.316V303.008C169.68 302.364 169.775 301.79 169.966 301.287C170.156 300.779 170.415 300.35 170.742 299.998C171.069 299.646 171.44 299.38 171.855 299.2C172.271 299.019 172.7 298.929 173.145 298.929C173.711 298.929 174.199 299.026 174.609 299.222C175.024 299.417 175.364 299.69 175.627 300.042C175.891 300.389 176.086 300.799 176.213 301.272C176.34 301.741 176.404 302.254 176.404 302.811V303.418H170.486V302.312H175.049V302.21C175.029 301.858 174.956 301.517 174.829 301.185C174.707 300.853 174.512 300.579 174.243 300.364C173.975 300.149 173.608 300.042 173.145 300.042C172.837 300.042 172.554 300.108 172.295 300.24C172.036 300.367 171.814 300.557 171.628 300.811C171.443 301.065 171.299 301.375 171.196 301.741C171.094 302.107 171.042 302.53 171.042 303.008V303.316C171.042 303.692 171.094 304.046 171.196 304.378C171.304 304.705 171.458 304.993 171.658 305.242C171.863 305.491 172.109 305.687 172.397 305.828C172.69 305.97 173.022 306.041 173.394 306.041C173.872 306.041 174.277 305.943 174.609 305.748C174.941 305.552 175.232 305.291 175.481 304.964L176.301 305.616C176.13 305.875 175.913 306.121 175.649 306.355C175.386 306.59 175.061 306.78 174.675 306.927C174.294 307.073 173.843 307.146 173.32 307.146ZM182.6 304.898C182.6 304.703 182.556 304.522 182.468 304.356C182.385 304.185 182.212 304.031 181.948 303.895C181.689 303.753 181.299 303.631 180.776 303.528C180.337 303.436 179.939 303.326 179.583 303.199C179.231 303.072 178.931 302.918 178.682 302.737C178.438 302.557 178.25 302.344 178.118 302.1C177.986 301.856 177.92 301.57 177.92 301.243C177.92 300.931 177.988 300.635 178.125 300.357C178.267 300.079 178.464 299.832 178.718 299.617C178.977 299.402 179.287 299.234 179.648 299.112C180.01 298.99 180.413 298.929 180.857 298.929C181.492 298.929 182.034 299.041 182.483 299.266C182.932 299.49 183.276 299.791 183.516 300.167C183.755 300.538 183.875 300.95 183.875 301.404H182.52C182.52 301.185 182.454 300.972 182.322 300.767C182.195 300.557 182.007 300.384 181.758 300.247C181.514 300.11 181.213 300.042 180.857 300.042C180.481 300.042 180.176 300.101 179.941 300.218C179.712 300.33 179.543 300.474 179.436 300.65C179.333 300.826 179.282 301.011 179.282 301.207C179.282 301.353 179.307 301.485 179.355 301.602C179.409 301.714 179.502 301.819 179.634 301.917C179.766 302.01 179.951 302.098 180.19 302.181C180.43 302.264 180.735 302.347 181.106 302.43C181.755 302.576 182.29 302.752 182.71 302.957C183.13 303.162 183.442 303.414 183.647 303.711C183.853 304.009 183.955 304.371 183.955 304.795C183.955 305.142 183.882 305.459 183.735 305.748C183.594 306.036 183.386 306.285 183.113 306.495C182.844 306.7 182.522 306.861 182.146 306.978C181.775 307.09 181.357 307.146 180.894 307.146C180.195 307.146 179.604 307.022 179.121 306.773C178.638 306.524 178.271 306.202 178.022 305.806C177.773 305.411 177.649 304.993 177.649 304.554H179.011C179.031 304.925 179.138 305.22 179.333 305.44C179.529 305.655 179.768 305.809 180.051 305.901C180.334 305.989 180.615 306.033 180.894 306.033C181.265 306.033 181.575 305.984 181.824 305.887C182.078 305.789 182.271 305.655 182.402 305.484C182.534 305.313 182.6 305.118 182.6 304.898ZM190.349 304.898C190.349 304.703 190.305 304.522 190.217 304.356C190.134 304.185 189.961 304.031 189.697 303.895C189.438 303.753 189.048 303.631 188.525 303.528C188.086 303.436 187.688 303.326 187.332 303.199C186.98 303.072 186.68 302.918 186.431 302.737C186.187 302.557 185.999 302.344 185.867 302.1C185.735 301.856 185.669 301.57 185.669 301.243C185.669 300.931 185.737 300.635 185.874 300.357C186.016 300.079 186.213 299.832 186.467 299.617C186.726 299.402 187.036 299.234 187.397 299.112C187.759 298.99 188.162 298.929 188.606 298.929C189.241 298.929 189.783 299.041 190.232 299.266C190.681 299.49 191.025 299.791 191.265 300.167C191.504 300.538 191.624 300.95 191.624 301.404H190.269C190.269 301.185 190.203 300.972 190.071 300.767C189.944 300.557 189.756 300.384 189.507 300.247C189.263 300.11 188.962 300.042 188.606 300.042C188.23 300.042 187.925 300.101 187.69 300.218C187.461 300.33 187.292 300.474 187.185 300.65C187.083 300.826 187.031 301.011 187.031 301.207C187.031 301.353 187.056 301.485 187.104 301.602C187.158 301.714 187.251 301.819 187.383 301.917C187.515 302.01 187.7 302.098 187.939 302.181C188.179 302.264 188.484 302.347 188.855 302.43C189.504 302.576 190.039 302.752 190.459 302.957C190.879 303.162 191.191 303.414 191.396 303.711C191.602 304.009 191.704 304.371 191.704 304.795C191.704 305.142 191.631 305.459 191.484 305.748C191.343 306.036 191.135 306.285 190.862 306.495C190.593 306.7 190.271 306.861 189.895 306.978C189.524 307.09 189.106 307.146 188.643 307.146C187.944 307.146 187.354 307.022 186.87 306.773C186.387 306.524 186.021 306.202 185.771 305.806C185.522 305.411 185.398 304.993 185.398 304.554H186.76C186.78 304.925 186.887 305.22 187.083 305.44C187.278 305.655 187.517 305.809 187.8 305.901C188.083 305.989 188.364 306.033 188.643 306.033C189.014 306.033 189.324 305.984 189.573 305.887C189.827 305.789 190.02 305.655 190.151 305.484C190.283 305.313 190.349 305.118 190.349 304.898ZM198.157 305.645V301.565C198.157 301.253 198.093 300.982 197.966 300.752C197.844 300.518 197.659 300.337 197.41 300.21C197.161 300.083 196.853 300.02 196.487 300.02C196.145 300.02 195.845 300.079 195.586 300.196C195.332 300.313 195.132 300.467 194.985 300.657C194.844 300.848 194.773 301.053 194.773 301.272H193.418C193.418 300.989 193.491 300.708 193.638 300.43C193.784 300.152 193.994 299.9 194.268 299.676C194.546 299.446 194.878 299.266 195.264 299.134C195.654 298.997 196.089 298.929 196.567 298.929C197.144 298.929 197.651 299.026 198.091 299.222C198.535 299.417 198.882 299.712 199.131 300.108C199.385 300.499 199.512 300.989 199.512 301.58V305.271C199.512 305.535 199.534 305.816 199.578 306.114C199.626 306.412 199.697 306.668 199.79 306.883V307H198.376C198.308 306.844 198.254 306.636 198.215 306.377C198.176 306.114 198.157 305.87 198.157 305.645ZM198.391 302.195L198.406 303.147H197.036C196.65 303.147 196.306 303.179 196.003 303.243C195.701 303.301 195.447 303.392 195.242 303.514C195.037 303.636 194.88 303.79 194.773 303.975C194.666 304.156 194.612 304.368 194.612 304.612C194.612 304.861 194.668 305.088 194.78 305.293C194.893 305.499 195.061 305.662 195.286 305.784C195.515 305.901 195.796 305.96 196.128 305.96C196.543 305.96 196.909 305.872 197.227 305.696C197.544 305.521 197.795 305.306 197.981 305.052C198.171 304.798 198.274 304.551 198.289 304.312L198.867 304.964C198.833 305.169 198.74 305.396 198.589 305.645C198.438 305.894 198.235 306.133 197.981 306.363C197.732 306.587 197.434 306.775 197.087 306.927C196.746 307.073 196.36 307.146 195.93 307.146C195.393 307.146 194.922 307.042 194.517 306.832C194.116 306.622 193.804 306.341 193.579 305.989C193.359 305.633 193.25 305.235 193.25 304.795C193.25 304.371 193.333 303.997 193.499 303.675C193.665 303.348 193.904 303.077 194.216 302.862C194.529 302.642 194.905 302.476 195.344 302.364C195.784 302.251 196.274 302.195 196.816 302.195H198.391ZM206.777 299.075H208.008V306.832C208.008 307.53 207.866 308.125 207.583 308.619C207.3 309.112 206.904 309.485 206.396 309.739C205.894 309.998 205.312 310.127 204.653 310.127C204.38 310.127 204.058 310.083 203.687 309.996C203.32 309.913 202.959 309.769 202.603 309.563C202.251 309.363 201.956 309.092 201.716 308.75L202.427 307.945C202.759 308.345 203.105 308.624 203.467 308.78C203.833 308.936 204.194 309.014 204.551 309.014C204.98 309.014 205.352 308.934 205.664 308.772C205.977 308.611 206.218 308.372 206.389 308.055C206.565 307.742 206.653 307.356 206.653 306.897V300.818L206.777 299.075ZM201.321 303.125V302.972C201.321 302.366 201.392 301.817 201.533 301.324C201.68 300.826 201.887 300.398 202.156 300.042C202.429 299.686 202.759 299.412 203.145 299.222C203.53 299.026 203.965 298.929 204.448 298.929C204.946 298.929 205.381 299.017 205.752 299.192C206.128 299.363 206.445 299.615 206.704 299.947C206.968 300.274 207.175 300.669 207.327 301.133C207.478 301.597 207.583 302.122 207.642 302.708V303.382C207.588 303.963 207.483 304.485 207.327 304.949C207.175 305.413 206.968 305.809 206.704 306.136C206.445 306.463 206.128 306.714 205.752 306.89C205.376 307.061 204.937 307.146 204.434 307.146C203.96 307.146 203.53 307.046 203.145 306.846C202.764 306.646 202.437 306.365 202.163 306.004C201.89 305.643 201.68 305.218 201.533 304.729C201.392 304.236 201.321 303.702 201.321 303.125ZM202.676 302.972V303.125C202.676 303.521 202.715 303.892 202.793 304.239C202.876 304.585 203 304.891 203.167 305.154C203.337 305.418 203.555 305.625 203.818 305.777C204.082 305.923 204.397 305.997 204.763 305.997C205.212 305.997 205.583 305.901 205.876 305.711C206.169 305.521 206.401 305.269 206.572 304.957C206.748 304.644 206.885 304.305 206.982 303.938V302.173C206.929 301.905 206.846 301.646 206.733 301.397C206.626 301.143 206.484 300.918 206.309 300.723C206.138 300.523 205.925 300.364 205.671 300.247C205.417 300.13 205.12 300.071 204.778 300.071C204.407 300.071 204.087 300.149 203.818 300.306C203.555 300.457 203.337 300.667 203.167 300.936C203 301.199 202.876 301.507 202.793 301.858C202.715 302.205 202.676 302.576 202.676 302.972ZM213.354 307.146C212.803 307.146 212.302 307.054 211.853 306.868C211.409 306.678 211.025 306.412 210.703 306.07C210.386 305.728 210.142 305.323 209.971 304.854C209.8 304.385 209.714 303.873 209.714 303.316V303.008C209.714 302.364 209.81 301.79 210 301.287C210.19 300.779 210.449 300.35 210.776 299.998C211.104 299.646 211.475 299.38 211.89 299.2C212.305 299.019 212.734 298.929 213.179 298.929C213.745 298.929 214.233 299.026 214.644 299.222C215.059 299.417 215.398 299.69 215.662 300.042C215.925 300.389 216.121 300.799 216.248 301.272C216.375 301.741 216.438 302.254 216.438 302.811V303.418H210.52V302.312H215.083V302.21C215.063 301.858 214.99 301.517 214.863 301.185C214.741 300.853 214.546 300.579 214.277 300.364C214.009 300.149 213.643 300.042 213.179 300.042C212.871 300.042 212.588 300.108 212.329 300.24C212.07 300.367 211.848 300.557 211.663 300.811C211.477 301.065 211.333 301.375 211.23 301.741C211.128 302.107 211.077 302.53 211.077 303.008V303.316C211.077 303.692 211.128 304.046 211.23 304.378C211.338 304.705 211.492 304.993 211.692 305.242C211.897 305.491 212.144 305.687 212.432 305.828C212.725 305.97 213.057 306.041 213.428 306.041C213.906 306.041 214.312 305.943 214.644 305.748C214.976 305.552 215.266 305.291 215.515 304.964L216.335 305.616C216.165 305.875 215.947 306.121 215.684 306.355C215.42 306.59 215.095 306.78 214.709 306.927C214.329 307.073 213.877 307.146 213.354 307.146Z" fill="#F45C59"/>
    <path d="M127.109 326.731V327.728H122.107V326.731H127.109ZM122.298 322.758V332H121.073V322.758H122.298ZM128.176 322.758V332H126.957V322.758H128.176ZM133.025 332.127C132.547 332.127 132.113 332.047 131.724 331.886C131.339 331.721 131.007 331.49 130.728 331.194C130.452 330.898 130.241 330.546 130.093 330.14C129.945 329.734 129.871 329.29 129.871 328.807V328.541C129.871 327.982 129.953 327.485 130.118 327.049C130.283 326.609 130.507 326.236 130.791 325.932C131.075 325.627 131.396 325.396 131.756 325.24C132.116 325.083 132.488 325.005 132.873 325.005C133.364 325.005 133.787 325.09 134.143 325.259C134.502 325.428 134.796 325.665 135.025 325.97C135.253 326.27 135.423 326.626 135.533 327.036C135.643 327.442 135.698 327.887 135.698 328.369V328.896H130.569V327.938H134.523V327.849C134.507 327.544 134.443 327.248 134.333 326.96C134.227 326.672 134.058 326.435 133.825 326.249C133.592 326.063 133.275 325.97 132.873 325.97C132.606 325.97 132.361 326.027 132.137 326.141C131.912 326.251 131.72 326.416 131.559 326.636C131.398 326.856 131.273 327.125 131.185 327.442C131.096 327.76 131.051 328.126 131.051 328.541V328.807C131.051 329.133 131.096 329.44 131.185 329.728C131.278 330.011 131.411 330.261 131.584 330.477C131.762 330.692 131.976 330.862 132.226 330.984C132.479 331.107 132.767 331.168 133.089 331.168C133.504 331.168 133.855 331.084 134.143 330.915C134.43 330.745 134.682 330.519 134.898 330.235L135.609 330.8C135.461 331.025 135.272 331.238 135.044 331.441C134.815 331.645 134.534 331.81 134.2 331.937C133.87 332.063 133.478 332.127 133.025 332.127ZM138.345 322.25V332H137.164V322.25H138.345ZM141.404 326.452V334.641H140.224V325.132H141.303L141.404 326.452ZM146.032 328.509V328.642C146.032 329.141 145.972 329.605 145.854 330.032C145.736 330.455 145.562 330.824 145.333 331.137C145.109 331.45 144.832 331.693 144.502 331.867C144.172 332.04 143.793 332.127 143.366 332.127C142.93 332.127 142.545 332.055 142.21 331.911C141.876 331.767 141.593 331.558 141.36 331.283C141.127 331.008 140.941 330.678 140.801 330.292C140.666 329.907 140.573 329.474 140.522 328.991V328.28C140.573 327.772 140.668 327.318 140.808 326.916C140.947 326.514 141.131 326.171 141.36 325.887C141.593 325.599 141.874 325.382 142.204 325.233C142.534 325.081 142.915 325.005 143.347 325.005C143.778 325.005 144.161 325.09 144.496 325.259C144.83 325.424 145.111 325.661 145.34 325.97C145.568 326.279 145.74 326.649 145.854 327.081C145.972 327.508 146.032 327.984 146.032 328.509ZM144.851 328.642V328.509C144.851 328.166 144.815 327.844 144.743 327.544C144.671 327.239 144.559 326.973 144.407 326.744C144.259 326.511 144.068 326.329 143.835 326.198C143.603 326.063 143.326 325.995 143.004 325.995C142.708 325.995 142.45 326.046 142.229 326.147C142.014 326.249 141.83 326.387 141.677 326.56C141.525 326.729 141.4 326.924 141.303 327.144C141.21 327.36 141.14 327.584 141.093 327.817V329.461C141.178 329.757 141.296 330.036 141.449 330.299C141.601 330.557 141.804 330.766 142.058 330.927C142.312 331.084 142.632 331.162 143.017 331.162C143.334 331.162 143.607 331.097 143.835 330.965C144.068 330.83 144.259 330.646 144.407 330.413C144.559 330.18 144.671 329.914 144.743 329.613C144.815 329.309 144.851 328.985 144.851 328.642ZM153.63 325.132V326.033H149.917V325.132H153.63ZM151.173 323.462H152.348V330.299C152.348 330.532 152.384 330.707 152.456 330.826C152.528 330.944 152.621 331.022 152.735 331.061C152.849 331.099 152.972 331.118 153.103 331.118C153.2 331.118 153.302 331.109 153.408 331.092C153.518 331.071 153.6 331.054 153.655 331.042L153.662 332C153.569 332.03 153.446 332.057 153.293 332.083C153.145 332.112 152.965 332.127 152.754 332.127C152.466 332.127 152.202 332.07 151.96 331.956C151.719 331.841 151.527 331.651 151.383 331.384C151.243 331.113 151.173 330.75 151.173 330.292V323.462ZM157.857 332.127C157.379 332.127 156.945 332.047 156.556 331.886C156.171 331.721 155.839 331.49 155.56 331.194C155.285 330.898 155.073 330.546 154.925 330.14C154.777 329.734 154.703 329.29 154.703 328.807V328.541C154.703 327.982 154.785 327.485 154.95 327.049C155.115 326.609 155.34 326.236 155.623 325.932C155.907 325.627 156.228 325.396 156.588 325.24C156.948 325.083 157.32 325.005 157.705 325.005C158.196 325.005 158.619 325.09 158.975 325.259C159.334 325.428 159.628 325.665 159.857 325.97C160.085 326.27 160.255 326.626 160.365 327.036C160.475 327.442 160.53 327.887 160.53 328.369V328.896H155.401V327.938H159.355V327.849C159.339 327.544 159.275 327.248 159.165 326.96C159.059 326.672 158.89 326.435 158.657 326.249C158.424 326.063 158.107 325.97 157.705 325.97C157.438 325.97 157.193 326.027 156.969 326.141C156.744 326.251 156.552 326.416 156.391 326.636C156.23 326.856 156.105 327.125 156.017 327.442C155.928 327.76 155.883 328.126 155.883 328.541V328.807C155.883 329.133 155.928 329.44 156.017 329.728C156.11 330.011 156.243 330.261 156.417 330.477C156.594 330.692 156.808 330.862 157.058 330.984C157.312 331.107 157.599 331.168 157.921 331.168C158.336 331.168 158.687 331.084 158.975 330.915C159.262 330.745 159.514 330.519 159.73 330.235L160.441 330.8C160.293 331.025 160.104 331.238 159.876 331.441C159.647 331.645 159.366 331.81 159.032 331.937C158.702 332.063 158.31 332.127 157.857 332.127ZM162.694 325.132L164.199 327.633L165.722 325.132H167.1L164.853 328.521L167.169 332H165.811L164.224 329.423L162.637 332H161.272L163.583 328.521L161.342 325.132H162.694ZM171.226 325.132V326.033H167.512V325.132H171.226ZM168.769 323.462H169.943V330.299C169.943 330.532 169.979 330.707 170.051 330.826C170.123 330.944 170.216 331.022 170.331 331.061C170.445 331.099 170.568 331.118 170.699 331.118C170.796 331.118 170.898 331.109 171.003 331.092C171.113 331.071 171.196 331.054 171.251 331.042L171.257 332C171.164 332.03 171.042 332.057 170.889 332.083C170.741 332.112 170.561 332.127 170.35 332.127C170.062 332.127 169.797 332.07 169.556 331.956C169.315 331.841 169.122 331.651 168.979 331.384C168.839 331.113 168.769 330.75 168.769 330.292V323.462Z" fill="#505050"/>
    <rect x="72" y="122" width="24" height="24" rx="12" fill="#0059FF"/>
    <path d="M87.1992 136.781V138H81.0039V136.953L84.0127 133.671C84.3428 133.299 84.603 132.977 84.7935 132.706C84.9839 132.435 85.1172 132.192 85.1934 131.976C85.2738 131.756 85.314 131.542 85.314 131.335C85.314 131.043 85.259 130.787 85.1489 130.567C85.0431 130.343 84.8866 130.167 84.6792 130.04C84.4718 129.909 84.2201 129.843 83.9238 129.843C83.5811 129.843 83.2933 129.917 83.0605 130.065C82.8278 130.214 82.6522 130.419 82.5337 130.681C82.4152 130.939 82.356 131.236 82.356 131.57H80.8262C80.8262 131.032 80.9489 130.542 81.1943 130.097C81.4398 129.649 81.7952 129.293 82.2607 129.031C82.7262 128.764 83.2869 128.631 83.9429 128.631C84.5607 128.631 85.0854 128.735 85.5171 128.942C85.9487 129.149 86.2767 129.443 86.501 129.824C86.7295 130.205 86.8438 130.656 86.8438 131.176C86.8438 131.464 86.7972 131.75 86.7041 132.033C86.611 132.317 86.4777 132.6 86.3042 132.884C86.1349 133.163 85.9339 133.444 85.7012 133.728C85.4684 134.007 85.2124 134.291 84.9331 134.579L82.9336 136.781H87.1992Z" fill="white"/>
    <line x1="96" y1="133.5" x2="120" y2="133.5" stroke="#0059FF"/>
    <rect x="72" y="86" width="24" height="24" rx="12" fill="#0059FF"/>
    <path d="M85.1807 92.7261V102H83.6509V94.5415L81.3848 95.3096V94.0464L84.9966 92.7261H85.1807Z" fill="white"/>
    <line x1="96" y1="97.5" x2="120" y2="97.5" stroke="#0059FF"/>
    <rect x="72" y="155" width="24" height="24" rx="12" fill="#0059FF"/>
    <path d="M82.8003 165.687H83.7144C84.0698 165.687 84.3639 165.626 84.5967 165.503C84.8337 165.38 85.0093 165.211 85.1235 164.995C85.2378 164.779 85.2949 164.532 85.2949 164.252C85.2949 163.96 85.242 163.711 85.1362 163.503C85.0347 163.292 84.8781 163.129 84.6665 163.015C84.4591 162.9 84.1947 162.843 83.873 162.843C83.6022 162.843 83.3568 162.898 83.1367 163.008C82.9209 163.114 82.7495 163.266 82.6226 163.465C82.4956 163.66 82.4321 163.893 82.4321 164.164H80.896C80.896 163.673 81.0251 163.237 81.2832 162.856C81.5413 162.475 81.8926 162.177 82.3369 161.961C82.7855 161.741 83.2891 161.631 83.8477 161.631C84.4443 161.631 84.9648 161.73 85.4092 161.929C85.8577 162.124 86.2069 162.416 86.4565 162.805C86.7062 163.194 86.8311 163.677 86.8311 164.252C86.8311 164.515 86.7697 164.781 86.647 165.052C86.5243 165.323 86.3423 165.571 86.1011 165.795C85.8599 166.015 85.5594 166.195 85.1997 166.334C84.84 166.47 84.4232 166.538 83.9492 166.538H82.8003V165.687ZM82.8003 166.88V166.042H83.9492C84.4909 166.042 84.9521 166.106 85.333 166.233C85.7181 166.36 86.0312 166.535 86.2725 166.76C86.5137 166.98 86.6893 167.232 86.7993 167.515C86.9136 167.799 86.9707 168.099 86.9707 168.417C86.9707 168.848 86.8924 169.233 86.7358 169.572C86.5835 169.906 86.3656 170.19 86.082 170.422C85.7985 170.655 85.4663 170.831 85.0854 170.949C84.7088 171.068 84.2983 171.127 83.854 171.127C83.4562 171.127 83.0754 171.072 82.7114 170.962C82.3475 170.852 82.0216 170.689 81.7339 170.473C81.4461 170.253 81.2176 169.98 81.0483 169.654C80.8833 169.324 80.8008 168.943 80.8008 168.512H82.3306C82.3306 168.787 82.394 169.03 82.521 169.242C82.6522 169.449 82.8341 169.612 83.0669 169.73C83.3039 169.849 83.5747 169.908 83.8794 169.908C84.201 169.908 84.4782 169.851 84.7109 169.737C84.9437 169.623 85.1214 169.453 85.2441 169.229C85.3711 169.005 85.4346 168.734 85.4346 168.417C85.4346 168.057 85.3647 167.765 85.2251 167.541C85.0854 167.316 84.8866 167.151 84.6284 167.045C84.3703 166.935 84.0656 166.88 83.7144 166.88H82.8003Z" fill="white"/>
    <line x1="96" y1="166.5" x2="120" y2="166.5" stroke="#0059FF"/>
    <rect x="72" y="289" width="24" height="24" rx="12" fill="#0059FF"/>
    <path d="M87.3706 301.706V302.924H80.7056L80.6548 302.004L84.6411 295.758H85.8662L84.5396 298.03L82.248 301.706H87.3706ZM86.2153 295.758V305H84.6855V295.758H86.2153Z" fill="white"/>
    <line x1="96" y1="300.5" x2="120" y2="300.5" stroke="#0059FF"/>
</svg>
