<svg width="1002" height="200" viewBox="0 0 1002 200" fill="none" xmlns="http://www.w3.org/2000/svg">
    <rect width="1002" height="200" rx="16" fill="#F8F8F8"/>
    <path d="M78.7637 55.5425V57H73.4097V55.5425H78.7637ZM73.9224 46.3359V57H72.084V46.3359H73.9224ZM84.4766 55.4106V51.6313C84.4766 51.3481 84.4253 51.104 84.3228 50.8989C84.2202 50.6938 84.064 50.5352 83.854 50.4229C83.6489 50.3105 83.3901 50.2544 83.0776 50.2544C82.7896 50.2544 82.5405 50.3032 82.3306 50.4009C82.1206 50.4985 81.957 50.6304 81.8398 50.7964C81.7227 50.9624 81.6641 51.1504 81.6641 51.3604H79.9062C79.9062 51.0479 79.9819 50.7451 80.1333 50.4521C80.2847 50.1592 80.5044 49.8979 80.7925 49.6685C81.0806 49.439 81.4248 49.2583 81.8252 49.1265C82.2256 48.9946 82.6748 48.9287 83.1729 48.9287C83.7686 48.9287 84.2959 49.0288 84.7549 49.229C85.2188 49.4292 85.5825 49.7319 85.8462 50.1372C86.1147 50.5376 86.249 51.0405 86.249 51.646V55.1689C86.249 55.5303 86.2734 55.855 86.3223 56.1431C86.376 56.4263 86.4517 56.6729 86.5493 56.8828V57H84.7402C84.6572 56.8096 84.5913 56.5679 84.5425 56.2749C84.4985 55.9771 84.4766 55.689 84.4766 55.4106ZM84.7329 52.1807L84.7476 53.272H83.4805C83.1533 53.272 82.8652 53.3037 82.6162 53.3672C82.3672 53.4258 82.1597 53.5137 81.9937 53.6309C81.8276 53.748 81.7031 53.8896 81.6201 54.0557C81.5371 54.2217 81.4956 54.4097 81.4956 54.6196C81.4956 54.8296 81.5444 55.0225 81.6421 55.1982C81.7397 55.3691 81.8813 55.5034 82.0669 55.6011C82.2573 55.6987 82.4868 55.7476 82.7554 55.7476C83.1167 55.7476 83.4316 55.6743 83.7002 55.5278C83.9736 55.3765 84.1885 55.1934 84.3447 54.9785C84.501 54.7588 84.584 54.5513 84.5938 54.356L85.165 55.1396C85.1064 55.3398 85.0063 55.5547 84.8647 55.7842C84.7231 56.0137 84.5376 56.2334 84.3081 56.4434C84.0835 56.6484 83.8125 56.8169 83.4951 56.9487C83.1826 57.0806 82.8213 57.1465 82.4111 57.1465C81.8936 57.1465 81.4321 57.0439 81.0269 56.8389C80.6216 56.6289 80.3042 56.3481 80.0747 55.9966C79.8452 55.6401 79.7305 55.2373 79.7305 54.7881C79.7305 54.3682 79.8086 53.9971 79.9648 53.6748C80.126 53.3477 80.3604 53.0742 80.668 52.8545C80.9805 52.6348 81.3613 52.4688 81.8105 52.3564C82.2598 52.2393 82.7725 52.1807 83.3486 52.1807H84.7329ZM88.1021 45.75H89.8672V55.3081L89.6987 57H88.1021V45.75ZM95.0381 52.9644V53.1182C95.0381 53.7041 94.9722 54.2437 94.8403 54.7368C94.7134 55.2251 94.5181 55.6499 94.2544 56.0112C93.9956 56.3726 93.6733 56.6533 93.2876 56.8535C92.9067 57.0488 92.4648 57.1465 91.9619 57.1465C91.4688 57.1465 91.0391 57.0537 90.6729 56.8682C90.3066 56.6826 89.999 56.4189 89.75 56.0771C89.5059 55.7354 89.3081 55.3276 89.1567 54.854C89.0054 54.3804 88.8979 53.8579 88.8345 53.2866V52.7959C88.8979 52.2197 89.0054 51.6973 89.1567 51.2285C89.3081 50.7549 89.5059 50.3472 89.75 50.0054C89.999 49.6587 90.3042 49.3926 90.6655 49.207C91.0317 49.0215 91.459 48.9287 91.9473 48.9287C92.4551 48.9287 92.9019 49.0264 93.2876 49.2217C93.6782 49.417 94.0029 49.6953 94.2617 50.0566C94.5205 50.4131 94.7134 50.8379 94.8403 51.3311C94.9722 51.8242 95.0381 52.3687 95.0381 52.9644ZM93.2729 53.1182V52.9644C93.2729 52.6079 93.2437 52.2734 93.1851 51.9609C93.1265 51.6436 93.0288 51.3652 92.8921 51.126C92.7603 50.8867 92.5796 50.6987 92.3501 50.562C92.1255 50.4204 91.8447 50.3496 91.5078 50.3496C91.1953 50.3496 90.9268 50.4033 90.7021 50.5107C90.4775 50.6182 90.2896 50.7646 90.1382 50.9502C89.9868 51.1357 89.8672 51.3506 89.7793 51.5947C89.6963 51.8389 89.6401 52.1025 89.6108 52.3857V53.7114C89.6548 54.0776 89.7476 54.4146 89.8892 54.7222C90.0356 55.0249 90.2407 55.269 90.5044 55.4546C90.7681 55.6353 91.1074 55.7256 91.5225 55.7256C91.8496 55.7256 92.1255 55.6597 92.3501 55.5278C92.5747 55.396 92.7529 55.2129 92.8848 54.9785C93.0215 54.7393 93.1191 54.4609 93.1777 54.1436C93.2412 53.8262 93.2729 53.4844 93.2729 53.1182ZM100.026 57.1465C99.4399 57.1465 98.9102 57.0513 98.4365 56.8608C97.9678 56.6655 97.5674 56.3945 97.2354 56.0479C96.9082 55.7012 96.6567 55.2935 96.481 54.8247C96.3052 54.356 96.2173 53.8506 96.2173 53.3086V53.0156C96.2173 52.3955 96.3076 51.834 96.4883 51.3311C96.6689 50.8281 96.9204 50.3984 97.2427 50.042C97.5649 49.6807 97.9458 49.4048 98.3853 49.2144C98.8247 49.0239 99.3008 48.9287 99.8135 48.9287C100.38 48.9287 100.875 49.0239 101.3 49.2144C101.725 49.4048 102.077 49.6733 102.355 50.02C102.638 50.3618 102.848 50.7695 102.985 51.2432C103.126 51.7168 103.197 52.2393 103.197 52.8105V53.5649H97.0742V52.2979H101.454V52.1587C101.444 51.8413 101.381 51.5435 101.264 51.2651C101.151 50.9868 100.978 50.7622 100.744 50.5913C100.509 50.4204 100.197 50.335 99.8062 50.335C99.5132 50.335 99.252 50.3984 99.0225 50.5254C98.7979 50.6475 98.6099 50.8257 98.4585 51.0601C98.3071 51.2944 98.1899 51.5776 98.1069 51.9097C98.0288 52.2368 97.9897 52.6055 97.9897 53.0156V53.3086C97.9897 53.6553 98.0361 53.9775 98.1289 54.2754C98.2266 54.5684 98.3682 54.8247 98.5537 55.0444C98.7393 55.2642 98.9639 55.4375 99.2275 55.5645C99.4912 55.6865 99.7915 55.7476 100.128 55.7476C100.553 55.7476 100.932 55.6621 101.264 55.4912C101.596 55.3203 101.884 55.0786 102.128 54.7661L103.058 55.667C102.887 55.916 102.665 56.1553 102.392 56.3848C102.118 56.6094 101.784 56.7925 101.388 56.9341C100.998 57.0757 100.543 57.1465 100.026 57.1465ZM106.464 45.75V57H104.691V45.75H106.464Z" fill="#505050"/>
    <rect x="71.5" y="68.5" width="399" height="39" rx="3.5" fill="white"/>
    <rect x="71.5" y="68.5" width="399" height="39" rx="3.5" stroke="#AAAAAA"/>
    <path d="M92.1709 88.8179H89.3218V87.668H92.1709C92.7227 87.668 93.1694 87.5801 93.5112 87.4043C93.853 87.2285 94.1021 86.9844 94.2583 86.6719C94.4194 86.3594 94.5 86.0029 94.5 85.6025C94.5 85.2363 94.4194 84.8921 94.2583 84.5698C94.1021 84.2476 93.853 83.9888 93.5112 83.7935C93.1694 83.5933 92.7227 83.4932 92.1709 83.4932H89.6514V93H88.2378V82.3359H92.1709C92.9766 82.3359 93.6577 82.4751 94.2144 82.7534C94.771 83.0317 95.1934 83.4175 95.4814 83.9106C95.7695 84.3989 95.9136 84.958 95.9136 85.5879C95.9136 86.2715 95.7695 86.855 95.4814 87.3384C95.1934 87.8218 94.771 88.1904 94.2144 88.4443C93.6577 88.6934 92.9766 88.8179 92.1709 88.8179ZM98.9678 81.75V93H97.6055V81.75H98.9678ZM105.816 91.645V87.5654C105.816 87.2529 105.752 86.9819 105.625 86.7524C105.503 86.5181 105.318 86.3374 105.069 86.2104C104.82 86.0835 104.512 86.02 104.146 86.02C103.804 86.02 103.504 86.0786 103.245 86.1958C102.991 86.313 102.791 86.4668 102.645 86.6572C102.503 86.8477 102.432 87.0527 102.432 87.2725H101.077C101.077 86.9893 101.15 86.7085 101.297 86.4302C101.443 86.1519 101.653 85.9004 101.927 85.6758C102.205 85.4463 102.537 85.2656 102.923 85.1338C103.313 84.9971 103.748 84.9287 104.227 84.9287C104.803 84.9287 105.311 85.0264 105.75 85.2217C106.194 85.417 106.541 85.7124 106.79 86.1079C107.044 86.4985 107.171 86.9893 107.171 87.5801V91.2715C107.171 91.5352 107.193 91.8159 107.237 92.1138C107.286 92.4116 107.356 92.668 107.449 92.8828V93H106.036C105.967 92.8438 105.914 92.6362 105.875 92.3774C105.835 92.1138 105.816 91.8696 105.816 91.645ZM106.05 88.1953L106.065 89.1475H104.695C104.31 89.1475 103.965 89.1792 103.663 89.2427C103.36 89.3013 103.106 89.3916 102.901 89.5137C102.696 89.6357 102.54 89.7896 102.432 89.9751C102.325 90.1558 102.271 90.3682 102.271 90.6123C102.271 90.8613 102.327 91.0884 102.439 91.2935C102.552 91.4985 102.72 91.6621 102.945 91.7842C103.174 91.9014 103.455 91.96 103.787 91.96C104.202 91.96 104.568 91.8721 104.886 91.6963C105.203 91.5205 105.455 91.3057 105.64 91.0518C105.831 90.7979 105.933 90.5513 105.948 90.312L106.526 90.9639C106.492 91.1689 106.399 91.396 106.248 91.645C106.097 91.894 105.894 92.1333 105.64 92.3628C105.391 92.5874 105.093 92.7754 104.747 92.9268C104.405 93.0732 104.019 93.1465 103.589 93.1465C103.052 93.1465 102.581 93.0415 102.176 92.8315C101.775 92.6216 101.463 92.3408 101.238 91.9893C101.019 91.6328 100.909 91.2349 100.909 90.7954C100.909 90.3706 100.992 89.9971 101.158 89.6748C101.324 89.3477 101.563 89.0767 101.875 88.8618C102.188 88.6421 102.564 88.4761 103.003 88.3638C103.443 88.2515 103.934 88.1953 104.476 88.1953H106.05ZM112.474 92.0332C112.796 92.0332 113.094 91.9673 113.367 91.8354C113.641 91.7036 113.865 91.5229 114.041 91.2935C114.217 91.0591 114.317 90.793 114.341 90.4951H115.63C115.606 90.9639 115.447 91.4009 115.154 91.8062C114.866 92.2065 114.488 92.5312 114.019 92.7803C113.55 93.0244 113.035 93.1465 112.474 93.1465C111.878 93.1465 111.358 93.0415 110.914 92.8315C110.474 92.6216 110.108 92.3335 109.815 91.9673C109.527 91.6011 109.31 91.1812 109.163 90.7075C109.021 90.229 108.951 89.7236 108.951 89.1914V88.8838C108.951 88.3516 109.021 87.8486 109.163 87.375C109.31 86.8965 109.527 86.4741 109.815 86.1079C110.108 85.7417 110.474 85.4536 110.914 85.2437C111.358 85.0337 111.878 84.9287 112.474 84.9287C113.094 84.9287 113.636 85.0557 114.1 85.3096C114.563 85.5586 114.927 85.9004 115.191 86.335C115.459 86.7646 115.606 87.2529 115.63 87.7998H114.341C114.317 87.4727 114.224 87.1772 114.063 86.9136C113.907 86.6499 113.692 86.4399 113.418 86.2837C113.15 86.1226 112.835 86.042 112.474 86.042C112.059 86.042 111.709 86.125 111.426 86.291C111.148 86.4521 110.926 86.6719 110.76 86.9502C110.599 87.2236 110.481 87.5288 110.408 87.8657C110.34 88.1978 110.306 88.5371 110.306 88.8838V89.1914C110.306 89.5381 110.34 89.8799 110.408 90.2168C110.477 90.5537 110.591 90.8589 110.752 91.1323C110.918 91.4058 111.141 91.6255 111.419 91.7915C111.702 91.9526 112.054 92.0332 112.474 92.0332ZM120.442 93.1465C119.891 93.1465 119.39 93.0537 118.941 92.8682C118.497 92.6777 118.113 92.4116 117.791 92.0698C117.474 91.728 117.229 91.3228 117.059 90.854C116.888 90.3853 116.802 89.8726 116.802 89.3159V89.0083C116.802 88.3638 116.897 87.79 117.088 87.2871C117.278 86.7793 117.537 86.3496 117.864 85.998C118.191 85.6465 118.562 85.3804 118.978 85.1997C119.393 85.019 119.822 84.9287 120.267 84.9287C120.833 84.9287 121.321 85.0264 121.731 85.2217C122.146 85.417 122.486 85.6904 122.75 86.042C123.013 86.3887 123.208 86.7988 123.335 87.2725C123.462 87.7412 123.526 88.2539 123.526 88.8105V89.4185H117.608V88.3125H122.171V88.21C122.151 87.8584 122.078 87.5166 121.951 87.1846C121.829 86.8525 121.634 86.5791 121.365 86.3643C121.097 86.1494 120.73 86.042 120.267 86.042C119.959 86.042 119.676 86.1079 119.417 86.2397C119.158 86.3667 118.936 86.5571 118.75 86.811C118.565 87.0649 118.421 87.375 118.318 87.7412C118.216 88.1074 118.165 88.5298 118.165 89.0083V89.3159C118.165 89.6919 118.216 90.0459 118.318 90.3779C118.426 90.7051 118.58 90.9932 118.78 91.2422C118.985 91.4912 119.231 91.6865 119.52 91.8281C119.812 91.9697 120.145 92.0405 120.516 92.0405C120.994 92.0405 121.399 91.9429 121.731 91.7476C122.063 91.5522 122.354 91.291 122.603 90.9639L123.423 91.6157C123.252 91.8745 123.035 92.1211 122.771 92.3555C122.508 92.5898 122.183 92.7803 121.797 92.9268C121.417 93.0732 120.965 93.1465 120.442 93.1465ZM126.463 81.75V93H125.108V81.75H126.463ZM126.141 88.7373L125.577 88.7153C125.582 88.1733 125.662 87.6729 125.818 87.2139C125.975 86.75 126.194 86.3472 126.478 86.0054C126.761 85.6636 127.098 85.3999 127.488 85.2144C127.884 85.0239 128.321 84.9287 128.799 84.9287C129.19 84.9287 129.542 84.9824 129.854 85.0898C130.167 85.1924 130.433 85.3584 130.652 85.5879C130.877 85.8174 131.048 86.1152 131.165 86.4814C131.282 86.8428 131.341 87.2847 131.341 87.8071V93H129.979V87.7925C129.979 87.3774 129.917 87.0454 129.795 86.7964C129.673 86.5425 129.495 86.3594 129.261 86.2471C129.026 86.1299 128.738 86.0713 128.396 86.0713C128.06 86.0713 127.752 86.1421 127.474 86.2837C127.2 86.4253 126.963 86.6206 126.763 86.8696C126.568 87.1187 126.414 87.4043 126.302 87.7266C126.194 88.0439 126.141 88.3809 126.141 88.7373ZM133.011 89.1255V88.957C133.011 88.3857 133.094 87.856 133.26 87.3677C133.426 86.8745 133.665 86.4473 133.978 86.0859C134.29 85.7197 134.668 85.4365 135.113 85.2363C135.557 85.0312 136.055 84.9287 136.607 84.9287C137.164 84.9287 137.664 85.0312 138.108 85.2363C138.558 85.4365 138.938 85.7197 139.251 86.0859C139.568 86.4473 139.81 86.8745 139.976 87.3677C140.142 87.856 140.225 88.3857 140.225 88.957V89.1255C140.225 89.6968 140.142 90.2266 139.976 90.7148C139.81 91.2031 139.568 91.6304 139.251 91.9966C138.938 92.3579 138.56 92.6411 138.116 92.8462C137.676 93.0464 137.178 93.1465 136.622 93.1465C136.065 93.1465 135.564 93.0464 135.12 92.8462C134.676 92.6411 134.295 92.3579 133.978 91.9966C133.665 91.6304 133.426 91.2031 133.26 90.7148C133.094 90.2266 133.011 89.6968 133.011 89.1255ZM134.366 88.957V89.1255C134.366 89.521 134.412 89.8945 134.505 90.2461C134.598 90.5928 134.737 90.9004 134.922 91.1689C135.113 91.4375 135.35 91.6499 135.633 91.8062C135.916 91.9575 136.246 92.0332 136.622 92.0332C136.993 92.0332 137.317 91.9575 137.596 91.8062C137.879 91.6499 138.113 91.4375 138.299 91.1689C138.484 90.9004 138.624 90.5928 138.716 90.2461C138.814 89.8945 138.863 89.521 138.863 89.1255V88.957C138.863 88.5664 138.814 88.1978 138.716 87.8511C138.624 87.4995 138.482 87.1895 138.292 86.9209C138.106 86.6475 137.872 86.4326 137.588 86.2764C137.31 86.1201 136.983 86.042 136.607 86.042C136.236 86.042 135.909 86.1201 135.625 86.2764C135.347 86.4326 135.113 86.6475 134.922 86.9209C134.737 87.1895 134.598 87.4995 134.505 87.8511C134.412 88.1978 134.366 88.5664 134.366 88.957ZM143.396 81.75V93H142.034V81.75H143.396ZM150.567 91.4619V81.75H151.929V93H150.684L150.567 91.4619ZM145.235 89.1255V88.9717C145.235 88.3662 145.308 87.8169 145.455 87.3237C145.606 86.8257 145.818 86.3984 146.092 86.042C146.37 85.6855 146.7 85.4121 147.081 85.2217C147.466 85.0264 147.896 84.9287 148.37 84.9287C148.868 84.9287 149.302 85.0166 149.673 85.1924C150.049 85.3633 150.367 85.6147 150.625 85.9468C150.889 86.2739 151.097 86.6694 151.248 87.1333C151.399 87.5972 151.504 88.1221 151.563 88.708V89.3818C151.509 89.9629 151.404 90.4854 151.248 90.9492C151.097 91.4131 150.889 91.8086 150.625 92.1357C150.367 92.4629 150.049 92.7144 149.673 92.8901C149.297 93.061 148.858 93.1465 148.355 93.1465C147.891 93.1465 147.466 93.0464 147.081 92.8462C146.7 92.646 146.37 92.3652 146.092 92.0039C145.818 91.6426 145.606 91.2178 145.455 90.7295C145.308 90.2363 145.235 89.7017 145.235 89.1255ZM146.597 88.9717V89.1255C146.597 89.521 146.636 89.8921 146.714 90.2388C146.797 90.5854 146.924 90.8906 147.095 91.1543C147.266 91.418 147.483 91.6255 147.747 91.7769C148.011 91.9233 148.326 91.9966 148.692 91.9966C149.141 91.9966 149.51 91.9014 149.798 91.7109C150.091 91.5205 150.325 91.269 150.501 90.9565C150.677 90.644 150.813 90.3047 150.911 89.9385V88.1733C150.853 87.9048 150.767 87.646 150.655 87.397C150.547 87.1431 150.406 86.9185 150.23 86.7231C150.059 86.5229 149.847 86.3643 149.593 86.2471C149.344 86.1299 149.048 86.0713 148.707 86.0713C148.335 86.0713 148.016 86.1494 147.747 86.3057C147.483 86.457 147.266 86.667 147.095 86.9355C146.924 87.1992 146.797 87.5068 146.714 87.8584C146.636 88.2051 146.597 88.5762 146.597 88.9717ZM157.327 93.1465C156.775 93.1465 156.275 93.0537 155.826 92.8682C155.381 92.6777 154.998 92.4116 154.676 92.0698C154.358 91.728 154.114 91.3228 153.943 90.854C153.772 90.3853 153.687 89.8726 153.687 89.3159V89.0083C153.687 88.3638 153.782 87.79 153.973 87.2871C154.163 86.7793 154.422 86.3496 154.749 85.998C155.076 85.6465 155.447 85.3804 155.862 85.1997C156.277 85.019 156.707 84.9287 157.151 84.9287C157.718 84.9287 158.206 85.0264 158.616 85.2217C159.031 85.417 159.371 85.6904 159.634 86.042C159.898 86.3887 160.093 86.7988 160.22 87.2725C160.347 87.7412 160.411 88.2539 160.411 88.8105V89.4185H154.493V88.3125H159.056V88.21C159.036 87.8584 158.963 87.5166 158.836 87.1846C158.714 86.8525 158.519 86.5791 158.25 86.3643C157.981 86.1494 157.615 86.042 157.151 86.042C156.844 86.042 156.561 86.1079 156.302 86.2397C156.043 86.3667 155.821 86.5571 155.635 86.811C155.45 87.0649 155.306 87.375 155.203 87.7412C155.101 88.1074 155.049 88.5298 155.049 89.0083V89.3159C155.049 89.6919 155.101 90.0459 155.203 90.3779C155.311 90.7051 155.464 90.9932 155.665 91.2422C155.87 91.4912 156.116 91.6865 156.404 91.8281C156.697 91.9697 157.029 92.0405 157.4 92.0405C157.879 92.0405 158.284 91.9429 158.616 91.7476C158.948 91.5522 159.239 91.291 159.488 90.9639L160.308 91.6157C160.137 91.8745 159.92 92.1211 159.656 92.3555C159.393 92.5898 159.068 92.7803 158.682 92.9268C158.301 93.0732 157.85 93.1465 157.327 93.1465ZM163.348 86.3203V93H161.993V85.0752H163.311L163.348 86.3203ZM165.823 85.0312L165.816 86.291C165.704 86.2666 165.596 86.252 165.494 86.2471C165.396 86.2373 165.284 86.2324 165.157 86.2324C164.844 86.2324 164.568 86.2812 164.329 86.3789C164.09 86.4766 163.887 86.6133 163.721 86.7891C163.555 86.9648 163.423 87.1748 163.326 87.4189C163.233 87.6582 163.172 87.9219 163.143 88.21L162.762 88.4297C162.762 87.9512 162.808 87.502 162.901 87.082C162.999 86.6621 163.147 86.291 163.348 85.9688C163.548 85.6416 163.802 85.3877 164.109 85.207C164.422 85.0215 164.793 84.9287 165.223 84.9287C165.32 84.9287 165.433 84.9409 165.56 84.9653C165.687 84.9849 165.774 85.0068 165.823 85.0312Z" fill="#737373"/>
    <path d="M78.1094 120.731V121.728H73.1074V120.731H78.1094ZM73.2979 116.758V126H72.0728V116.758H73.2979ZM79.1758 116.758V126H77.957V116.758H79.1758ZM84.0254 126.127C83.5472 126.127 83.1134 126.047 82.7241 125.886C82.339 125.721 82.0068 125.49 81.7275 125.194C81.4525 124.898 81.2409 124.546 81.0928 124.14C80.9447 123.734 80.8706 123.29 80.8706 122.807V122.541C80.8706 121.982 80.9531 121.485 81.1182 121.049C81.2832 120.609 81.5075 120.236 81.791 119.932C82.0745 119.627 82.3962 119.396 82.7559 119.24C83.1156 119.083 83.488 119.005 83.873 119.005C84.3639 119.005 84.7871 119.09 85.1426 119.259C85.5023 119.428 85.7964 119.665 86.0249 119.97C86.2534 120.27 86.4227 120.626 86.5327 121.036C86.6427 121.442 86.6978 121.887 86.6978 122.369V122.896H81.5688V121.938H85.5234V121.849C85.5065 121.544 85.443 121.248 85.333 120.96C85.2272 120.672 85.0579 120.435 84.8252 120.249C84.5924 120.063 84.2751 119.97 83.873 119.97C83.6064 119.97 83.361 120.027 83.1367 120.141C82.9124 120.251 82.7199 120.416 82.5591 120.636C82.3983 120.856 82.2734 121.125 82.1846 121.442C82.0957 121.76 82.0513 122.126 82.0513 122.541V122.807C82.0513 123.133 82.0957 123.44 82.1846 123.728C82.2777 124.011 82.411 124.261 82.5845 124.477C82.7622 124.692 82.9759 124.862 83.2256 124.984C83.4795 125.107 83.7673 125.168 84.0889 125.168C84.5036 125.168 84.8548 125.084 85.1426 124.915C85.4303 124.745 85.6821 124.519 85.8979 124.235L86.6089 124.8C86.4608 125.025 86.2725 125.238 86.0439 125.441C85.8154 125.645 85.534 125.81 85.1997 125.937C84.8696 126.063 84.4782 126.127 84.0254 126.127ZM89.3447 116.25V126H88.1641V116.25H89.3447ZM92.4043 120.452V128.641H91.2236V119.132H92.3027L92.4043 120.452ZM97.0317 122.509V122.642C97.0317 123.141 96.9725 123.605 96.854 124.032C96.7355 124.455 96.562 124.824 96.3335 125.137C96.1092 125.45 95.832 125.693 95.502 125.867C95.1719 126.04 94.7931 126.127 94.3657 126.127C93.9299 126.127 93.5448 126.055 93.2104 125.911C92.8761 125.767 92.5926 125.558 92.3599 125.283C92.1271 125.008 91.9409 124.678 91.8013 124.292C91.6659 123.907 91.5728 123.474 91.522 122.991V122.28C91.5728 121.772 91.668 121.318 91.8076 120.916C91.9473 120.514 92.1313 120.171 92.3599 119.887C92.5926 119.599 92.874 119.382 93.2041 119.233C93.5342 119.081 93.915 119.005 94.3467 119.005C94.7783 119.005 95.1613 119.09 95.4956 119.259C95.8299 119.424 96.1113 119.661 96.3398 119.97C96.5684 120.279 96.7397 120.649 96.854 121.081C96.9725 121.508 97.0317 121.984 97.0317 122.509ZM95.8511 122.642V122.509C95.8511 122.166 95.8151 121.844 95.7432 121.544C95.6712 121.239 95.5591 120.973 95.4067 120.744C95.2586 120.511 95.0682 120.329 94.8354 120.198C94.6027 120.063 94.3255 119.995 94.0039 119.995C93.7077 119.995 93.4495 120.046 93.2295 120.147C93.0137 120.249 92.8296 120.387 92.6772 120.56C92.5249 120.729 92.4001 120.924 92.3027 121.144C92.2096 121.36 92.1398 121.584 92.0933 121.817V123.461C92.1779 123.757 92.2964 124.036 92.4487 124.299C92.6011 124.557 92.8042 124.766 93.0581 124.927C93.312 125.084 93.6315 125.162 94.0166 125.162C94.334 125.162 94.6069 125.097 94.8354 124.965C95.0682 124.83 95.2586 124.646 95.4067 124.413C95.5591 124.18 95.6712 123.914 95.7432 123.613C95.8151 123.309 95.8511 122.985 95.8511 122.642ZM104.63 119.132V120.033H100.917V119.132H104.63ZM102.173 117.462H103.348V124.299C103.348 124.532 103.384 124.707 103.456 124.826C103.528 124.944 103.621 125.022 103.735 125.061C103.849 125.099 103.972 125.118 104.103 125.118C104.2 125.118 104.302 125.109 104.408 125.092C104.518 125.071 104.6 125.054 104.655 125.042L104.662 126C104.569 126.03 104.446 126.057 104.293 126.083C104.145 126.112 103.965 126.127 103.754 126.127C103.466 126.127 103.202 126.07 102.96 125.956C102.719 125.841 102.527 125.651 102.383 125.384C102.243 125.113 102.173 124.75 102.173 124.292V117.462ZM108.857 126.127C108.379 126.127 107.945 126.047 107.556 125.886C107.171 125.721 106.839 125.49 106.56 125.194C106.285 124.898 106.073 124.546 105.925 124.14C105.777 123.734 105.703 123.29 105.703 122.807V122.541C105.703 121.982 105.785 121.485 105.95 121.049C106.115 120.609 106.34 120.236 106.623 119.932C106.907 119.627 107.228 119.396 107.588 119.24C107.948 119.083 108.32 119.005 108.705 119.005C109.196 119.005 109.619 119.09 109.975 119.259C110.334 119.428 110.628 119.665 110.857 119.97C111.085 120.27 111.255 120.626 111.365 121.036C111.475 121.442 111.53 121.887 111.53 122.369V122.896H106.401V121.938H110.355V121.849C110.339 121.544 110.275 121.248 110.165 120.96C110.059 120.672 109.89 120.435 109.657 120.249C109.424 120.063 109.107 119.97 108.705 119.97C108.438 119.97 108.193 120.027 107.969 120.141C107.744 120.251 107.552 120.416 107.391 120.636C107.23 120.856 107.105 121.125 107.017 121.442C106.928 121.76 106.883 122.126 106.883 122.541V122.807C106.883 123.133 106.928 123.44 107.017 123.728C107.11 124.011 107.243 124.261 107.417 124.477C107.594 124.692 107.808 124.862 108.058 124.984C108.312 125.107 108.599 125.168 108.921 125.168C109.336 125.168 109.687 125.084 109.975 124.915C110.262 124.745 110.514 124.519 110.73 124.235L111.441 124.8C111.293 125.025 111.104 125.238 110.876 125.441C110.647 125.645 110.366 125.81 110.032 125.937C109.702 126.063 109.31 126.127 108.857 126.127ZM113.694 119.132L115.199 121.633L116.722 119.132H118.1L115.853 122.521L118.169 126H116.811L115.224 123.423L113.637 126H112.272L114.583 122.521L112.342 119.132H113.694ZM122.226 119.132V120.033H118.512V119.132H122.226ZM119.769 117.462H120.943V124.299C120.943 124.532 120.979 124.707 121.051 124.826C121.123 124.944 121.216 125.022 121.331 125.061C121.445 125.099 121.568 125.118 121.699 125.118C121.796 125.118 121.898 125.109 122.003 125.092C122.113 125.071 122.196 125.054 122.251 125.042L122.257 126C122.164 126.03 122.042 126.057 121.889 126.083C121.741 126.112 121.561 126.127 121.35 126.127C121.062 126.127 120.797 126.07 120.556 125.956C120.315 125.841 120.122 125.651 119.979 125.384C119.839 125.113 119.769 124.75 119.769 124.292V117.462Z" fill="#505050"/>
    <path d="M549.764 55.5425V57H544.41V55.5425H549.764ZM544.922 46.3359V57H543.084V46.3359H544.922ZM555.477 55.4106V51.6313C555.477 51.3481 555.425 51.104 555.323 50.8989C555.22 50.6938 555.064 50.5352 554.854 50.4229C554.649 50.3105 554.39 50.2544 554.078 50.2544C553.79 50.2544 553.541 50.3032 553.331 50.4009C553.121 50.4985 552.957 50.6304 552.84 50.7964C552.723 50.9624 552.664 51.1504 552.664 51.3604H550.906C550.906 51.0479 550.982 50.7451 551.133 50.4521C551.285 50.1592 551.504 49.8979 551.792 49.6685C552.081 49.439 552.425 49.2583 552.825 49.1265C553.226 48.9946 553.675 48.9287 554.173 48.9287C554.769 48.9287 555.296 49.0288 555.755 49.229C556.219 49.4292 556.583 49.7319 556.846 50.1372C557.115 50.5376 557.249 51.0405 557.249 51.646V55.1689C557.249 55.5303 557.273 55.855 557.322 56.1431C557.376 56.4263 557.452 56.6729 557.549 56.8828V57H555.74C555.657 56.8096 555.591 56.5679 555.542 56.2749C555.499 55.9771 555.477 55.689 555.477 55.4106ZM555.733 52.1807L555.748 53.272H554.48C554.153 53.272 553.865 53.3037 553.616 53.3672C553.367 53.4258 553.16 53.5137 552.994 53.6309C552.828 53.748 552.703 53.8896 552.62 54.0557C552.537 54.2217 552.496 54.4097 552.496 54.6196C552.496 54.8296 552.544 55.0225 552.642 55.1982C552.74 55.3691 552.881 55.5034 553.067 55.6011C553.257 55.6987 553.487 55.7476 553.755 55.7476C554.117 55.7476 554.432 55.6743 554.7 55.5278C554.974 55.3765 555.188 55.1934 555.345 54.9785C555.501 54.7588 555.584 54.5513 555.594 54.356L556.165 55.1396C556.106 55.3398 556.006 55.5547 555.865 55.7842C555.723 56.0137 555.538 56.2334 555.308 56.4434C555.083 56.6484 554.812 56.8169 554.495 56.9487C554.183 57.0806 553.821 57.1465 553.411 57.1465C552.894 57.1465 552.432 57.0439 552.027 56.8389C551.622 56.6289 551.304 56.3481 551.075 55.9966C550.845 55.6401 550.73 55.2373 550.73 54.7881C550.73 54.3682 550.809 53.9971 550.965 53.6748C551.126 53.3477 551.36 53.0742 551.668 52.8545C551.98 52.6348 552.361 52.4688 552.811 52.3564C553.26 52.2393 553.772 52.1807 554.349 52.1807H555.733ZM559.102 45.75H560.867V55.3081L560.699 57H559.102V45.75ZM566.038 52.9644V53.1182C566.038 53.7041 565.972 54.2437 565.84 54.7368C565.713 55.2251 565.518 55.6499 565.254 56.0112C564.996 56.3726 564.673 56.6533 564.288 56.8535C563.907 57.0488 563.465 57.1465 562.962 57.1465C562.469 57.1465 562.039 57.0537 561.673 56.8682C561.307 56.6826 560.999 56.4189 560.75 56.0771C560.506 55.7354 560.308 55.3276 560.157 54.854C560.005 54.3804 559.898 53.8579 559.834 53.2866V52.7959C559.898 52.2197 560.005 51.6973 560.157 51.2285C560.308 50.7549 560.506 50.3472 560.75 50.0054C560.999 49.6587 561.304 49.3926 561.666 49.207C562.032 49.0215 562.459 48.9287 562.947 48.9287C563.455 48.9287 563.902 49.0264 564.288 49.2217C564.678 49.417 565.003 49.6953 565.262 50.0566C565.521 50.4131 565.713 50.8379 565.84 51.3311C565.972 51.8242 566.038 52.3687 566.038 52.9644ZM564.273 53.1182V52.9644C564.273 52.6079 564.244 52.2734 564.185 51.9609C564.126 51.6436 564.029 51.3652 563.892 51.126C563.76 50.8867 563.58 50.6987 563.35 50.562C563.125 50.4204 562.845 50.3496 562.508 50.3496C562.195 50.3496 561.927 50.4033 561.702 50.5107C561.478 50.6182 561.29 50.7646 561.138 50.9502C560.987 51.1357 560.867 51.3506 560.779 51.5947C560.696 51.8389 560.64 52.1025 560.611 52.3857V53.7114C560.655 54.0776 560.748 54.4146 560.889 54.7222C561.036 55.0249 561.241 55.269 561.504 55.4546C561.768 55.6353 562.107 55.7256 562.522 55.7256C562.85 55.7256 563.125 55.6597 563.35 55.5278C563.575 55.396 563.753 55.2129 563.885 54.9785C564.021 54.7393 564.119 54.4609 564.178 54.1436C564.241 53.8262 564.273 53.4844 564.273 53.1182ZM571.026 57.1465C570.44 57.1465 569.91 57.0513 569.437 56.8608C568.968 56.6655 568.567 56.3945 568.235 56.0479C567.908 55.7012 567.657 55.2935 567.481 54.8247C567.305 54.356 567.217 53.8506 567.217 53.3086V53.0156C567.217 52.3955 567.308 51.834 567.488 51.3311C567.669 50.8281 567.92 50.3984 568.243 50.042C568.565 49.6807 568.946 49.4048 569.385 49.2144C569.825 49.0239 570.301 48.9287 570.813 48.9287C571.38 48.9287 571.875 49.0239 572.3 49.2144C572.725 49.4048 573.077 49.6733 573.355 50.02C573.638 50.3618 573.848 50.7695 573.985 51.2432C574.126 51.7168 574.197 52.2393 574.197 52.8105V53.5649H568.074V52.2979H572.454V52.1587C572.444 51.8413 572.381 51.5435 572.264 51.2651C572.151 50.9868 571.978 50.7622 571.744 50.5913C571.509 50.4204 571.197 50.335 570.806 50.335C570.513 50.335 570.252 50.3984 570.022 50.5254C569.798 50.6475 569.61 50.8257 569.458 51.0601C569.307 51.2944 569.19 51.5776 569.107 51.9097C569.029 52.2368 568.99 52.6055 568.99 53.0156V53.3086C568.99 53.6553 569.036 53.9775 569.129 54.2754C569.227 54.5684 569.368 54.8247 569.554 55.0444C569.739 55.2642 569.964 55.4375 570.228 55.5645C570.491 55.6865 570.792 55.7476 571.128 55.7476C571.553 55.7476 571.932 55.6621 572.264 55.4912C572.596 55.3203 572.884 55.0786 573.128 54.7661L574.058 55.667C573.887 55.916 573.665 56.1553 573.392 56.3848C573.118 56.6094 572.784 56.7925 572.388 56.9341C571.998 57.0757 571.543 57.1465 571.026 57.1465ZM577.464 45.75V57H575.691V45.75H577.464Z" fill="#505050"/>
    <rect x="542.5" y="68.5" width="399" height="39" rx="3.5" fill="white"/>
    <rect x="542.5" y="68.5" width="399" height="39" rx="3.5" stroke="#F45C59"/>
    <path d="M560.754 82.3359V93H559.34V82.3359H560.754ZM564.475 86.7671V93H563.12V85.0752H564.401L564.475 86.7671ZM564.152 88.7373L563.588 88.7153C563.593 88.1733 563.674 87.6729 563.83 87.2139C563.986 86.75 564.206 86.3472 564.489 86.0054C564.772 85.6636 565.109 85.3999 565.5 85.2144C565.896 85.0239 566.333 84.9287 566.811 84.9287C567.202 84.9287 567.553 84.9824 567.866 85.0898C568.178 85.1924 568.444 85.3584 568.664 85.5879C568.889 85.8174 569.06 86.1152 569.177 86.4814C569.294 86.8428 569.353 87.2847 569.353 87.8071V93H567.99V87.7925C567.99 87.3774 567.929 87.0454 567.807 86.7964C567.685 86.5425 567.507 86.3594 567.272 86.2471C567.038 86.1299 566.75 86.0713 566.408 86.0713C566.071 86.0713 565.764 86.1421 565.485 86.2837C565.212 86.4253 564.975 86.6206 564.775 86.8696C564.58 87.1187 564.426 87.4043 564.313 87.7266C564.206 88.0439 564.152 88.3809 564.152 88.7373ZM572.766 86.5986V96.0469H571.403V85.0752H572.648L572.766 86.5986ZM578.105 88.9717V89.1255C578.105 89.7017 578.037 90.2363 577.9 90.7295C577.763 91.2178 577.563 91.6426 577.299 92.0039C577.041 92.3652 576.721 92.646 576.34 92.8462C575.959 93.0464 575.522 93.1465 575.029 93.1465C574.526 93.1465 574.082 93.0635 573.696 92.8975C573.31 92.7314 572.983 92.4897 572.714 92.1724C572.446 91.855 572.231 91.4741 572.07 91.0298C571.914 90.5854 571.806 90.085 571.748 89.5283V88.708C571.806 88.1221 571.916 87.5972 572.077 87.1333C572.238 86.6694 572.451 86.2739 572.714 85.9468C572.983 85.6147 573.308 85.3633 573.688 85.1924C574.069 85.0166 574.509 84.9287 575.007 84.9287C575.505 84.9287 575.947 85.0264 576.333 85.2217C576.718 85.4121 577.043 85.6855 577.307 86.042C577.57 86.3984 577.768 86.8257 577.9 87.3237C578.037 87.8169 578.105 88.3662 578.105 88.9717ZM576.743 89.1255V88.9717C576.743 88.5762 576.701 88.2051 576.618 87.8584C576.535 87.5068 576.406 87.1992 576.23 86.9355C576.059 86.667 575.839 86.457 575.571 86.3057C575.302 86.1494 574.982 86.0713 574.611 86.0713C574.27 86.0713 573.972 86.1299 573.718 86.2471C573.469 86.3643 573.256 86.5229 573.081 86.7231C572.905 86.9185 572.761 87.1431 572.648 87.397C572.541 87.646 572.46 87.9048 572.407 88.1733V90.0703C572.504 90.4121 572.641 90.7344 572.817 91.0371C572.993 91.335 573.227 91.5767 573.52 91.7622C573.813 91.9429 574.182 92.0332 574.626 92.0332C574.992 92.0332 575.307 91.9575 575.571 91.8062C575.839 91.6499 576.059 91.4375 576.23 91.1689C576.406 90.9004 576.535 90.5928 576.618 90.2461C576.701 89.8945 576.743 89.521 576.743 89.1255ZM584.682 91.1689V85.0752H586.044V93H584.748L584.682 91.1689ZM584.938 89.499L585.502 89.4844C585.502 90.0117 585.446 90.5 585.334 90.9492C585.227 91.3936 585.051 91.7793 584.807 92.1064C584.562 92.4336 584.243 92.6899 583.847 92.8755C583.452 93.0562 582.971 93.1465 582.404 93.1465C582.019 93.1465 581.665 93.0903 581.342 92.978C581.025 92.8657 580.751 92.6924 580.522 92.458C580.292 92.2236 580.114 91.9185 579.987 91.5425C579.865 91.1665 579.804 90.7148 579.804 90.1875V85.0752H581.159V90.2021C581.159 90.5586 581.198 90.854 581.276 91.0884C581.359 91.3179 581.469 91.501 581.606 91.6377C581.748 91.7695 581.904 91.8623 582.075 91.916C582.25 91.9697 582.431 91.9966 582.617 91.9966C583.193 91.9966 583.649 91.8867 583.986 91.667C584.323 91.4424 584.565 91.1421 584.711 90.7661C584.863 90.3853 584.938 89.9629 584.938 89.499ZM591.428 85.0752V86.1152H587.143V85.0752H591.428ZM588.593 83.1489H589.948V91.0371C589.948 91.3057 589.99 91.5083 590.073 91.645C590.156 91.7817 590.263 91.8721 590.395 91.916C590.527 91.96 590.668 91.9819 590.82 91.9819C590.932 91.9819 591.049 91.9722 591.171 91.9526C591.298 91.9282 591.394 91.9087 591.457 91.894L591.464 93C591.357 93.0342 591.215 93.0659 591.04 93.0952C590.869 93.1294 590.661 93.1465 590.417 93.1465C590.085 93.1465 589.78 93.0806 589.501 92.9487C589.223 92.8169 589.001 92.5972 588.835 92.2896C588.674 91.9771 588.593 91.5571 588.593 91.0298V83.1489ZM600.056 85.0752V86.1152H595.771V85.0752H600.056ZM597.221 83.1489H598.576V91.0371C598.576 91.3057 598.618 91.5083 598.701 91.645C598.784 91.7817 598.891 91.8721 599.023 91.916C599.155 91.96 599.296 91.9819 599.448 91.9819C599.56 91.9819 599.677 91.9722 599.799 91.9526C599.926 91.9282 600.021 91.9087 600.085 91.894L600.092 93C599.985 93.0342 599.843 93.0659 599.667 93.0952C599.497 93.1294 599.289 93.1465 599.045 93.1465C598.713 93.1465 598.408 93.0806 598.129 92.9487C597.851 92.8169 597.629 92.5972 597.463 92.2896C597.302 91.9771 597.221 91.5571 597.221 91.0298V83.1489ZM604.934 93.1465C604.382 93.1465 603.881 93.0537 603.432 92.8682C602.988 92.6777 602.604 92.4116 602.282 92.0698C601.965 91.728 601.721 91.3228 601.55 90.854C601.379 90.3853 601.293 89.8726 601.293 89.3159V89.0083C601.293 88.3638 601.389 87.79 601.579 87.2871C601.77 86.7793 602.028 86.3496 602.355 85.998C602.683 85.6465 603.054 85.3804 603.469 85.1997C603.884 85.019 604.313 84.9287 604.758 84.9287C605.324 84.9287 605.812 85.0264 606.223 85.2217C606.638 85.417 606.977 85.6904 607.241 86.042C607.504 86.3887 607.7 86.7988 607.827 87.2725C607.954 87.7412 608.017 88.2539 608.017 88.8105V89.4185H602.099V88.3125H606.662V88.21C606.643 87.8584 606.569 87.5166 606.442 87.1846C606.32 86.8525 606.125 86.5791 605.856 86.3643C605.588 86.1494 605.222 86.042 604.758 86.042C604.45 86.042 604.167 86.1079 603.908 86.2397C603.649 86.3667 603.427 86.5571 603.242 86.811C603.056 87.0649 602.912 87.375 602.81 87.7412C602.707 88.1074 602.656 88.5298 602.656 89.0083V89.3159C602.656 89.6919 602.707 90.0459 602.81 90.3779C602.917 90.7051 603.071 90.9932 603.271 91.2422C603.476 91.4912 603.723 91.6865 604.011 91.8281C604.304 91.9697 604.636 92.0405 605.007 92.0405C605.485 92.0405 605.891 91.9429 606.223 91.7476C606.555 91.5522 606.845 91.291 607.094 90.9639L607.915 91.6157C607.744 91.8745 607.526 92.1211 607.263 92.3555C606.999 92.5898 606.674 92.7803 606.289 92.9268C605.908 93.0732 605.456 93.1465 604.934 93.1465ZM610.515 85.0752L612.25 87.9609L614.008 85.0752H615.598L613.005 88.9863L615.678 93H614.111L612.28 90.0264L610.449 93H608.874L611.54 88.9863L608.955 85.0752H610.515ZM620.358 85.0752V86.1152H616.074V85.0752H620.358ZM617.524 83.1489H618.879V91.0371C618.879 91.3057 618.92 91.5083 619.003 91.645C619.086 91.7817 619.194 91.8721 619.326 91.916C619.458 91.96 619.599 91.9819 619.75 91.9819C619.863 91.9819 619.98 91.9722 620.102 91.9526C620.229 91.9282 620.324 91.9087 620.388 91.894L620.395 93C620.288 93.0342 620.146 93.0659 619.97 93.0952C619.799 93.1294 619.592 93.1465 619.348 93.1465C619.016 93.1465 618.71 93.0806 618.432 92.9487C618.154 92.8169 617.932 92.5972 617.766 92.2896C617.604 91.9771 617.524 91.5571 617.524 91.0298V83.1489Z" fill="#1A1A1A"/>
    <path d="M550.013 127.85V129H544.366V127.85H550.013ZM544.651 118.336V129H543.238V118.336H544.651ZM549.266 122.921V124.071H544.366V122.921H549.266ZM549.939 118.336V119.493H544.366V118.336H549.939ZM552.913 122.32V129H551.558V121.075H552.876L552.913 122.32ZM555.389 121.031L555.381 122.291C555.269 122.267 555.162 122.252 555.059 122.247C554.961 122.237 554.849 122.232 554.722 122.232C554.41 122.232 554.134 122.281 553.895 122.379C553.655 122.477 553.453 122.613 553.287 122.789C553.121 122.965 552.989 123.175 552.891 123.419C552.798 123.658 552.737 123.922 552.708 124.21L552.327 124.43C552.327 123.951 552.374 123.502 552.466 123.082C552.564 122.662 552.713 122.291 552.913 121.969C553.113 121.642 553.367 121.388 553.675 121.207C553.987 121.021 554.358 120.929 554.788 120.929C554.886 120.929 554.998 120.941 555.125 120.965C555.252 120.985 555.34 121.007 555.389 121.031ZM557.996 122.32V129H556.641V121.075H557.959L557.996 122.32ZM560.472 121.031L560.464 122.291C560.352 122.267 560.245 122.252 560.142 122.247C560.044 122.237 559.932 122.232 559.805 122.232C559.493 122.232 559.217 122.281 558.978 122.379C558.738 122.477 558.536 122.613 558.37 122.789C558.204 122.965 558.072 123.175 557.974 123.419C557.881 123.658 557.82 123.922 557.791 124.21L557.41 124.43C557.41 123.951 557.457 123.502 557.549 123.082C557.647 122.662 557.796 122.291 557.996 121.969C558.196 121.642 558.45 121.388 558.758 121.207C559.07 121.021 559.441 120.929 559.871 120.929C559.969 120.929 560.081 120.941 560.208 120.965C560.335 120.985 560.423 121.007 560.472 121.031ZM561.219 125.125V124.957C561.219 124.386 561.302 123.856 561.468 123.368C561.634 122.875 561.873 122.447 562.186 122.086C562.498 121.72 562.876 121.437 563.321 121.236C563.765 121.031 564.263 120.929 564.815 120.929C565.372 120.929 565.872 121.031 566.316 121.236C566.766 121.437 567.146 121.72 567.459 122.086C567.776 122.447 568.018 122.875 568.184 123.368C568.35 123.856 568.433 124.386 568.433 124.957V125.125C568.433 125.697 568.35 126.227 568.184 126.715C568.018 127.203 567.776 127.63 567.459 127.997C567.146 128.358 566.768 128.641 566.324 128.846C565.884 129.046 565.386 129.146 564.83 129.146C564.273 129.146 563.772 129.046 563.328 128.846C562.884 128.641 562.503 128.358 562.186 127.997C561.873 127.63 561.634 127.203 561.468 126.715C561.302 126.227 561.219 125.697 561.219 125.125ZM562.574 124.957V125.125C562.574 125.521 562.62 125.895 562.713 126.246C562.806 126.593 562.945 126.9 563.13 127.169C563.321 127.438 563.558 127.65 563.841 127.806C564.124 127.958 564.454 128.033 564.83 128.033C565.201 128.033 565.525 127.958 565.804 127.806C566.087 127.65 566.321 127.438 566.507 127.169C566.692 126.9 566.832 126.593 566.924 126.246C567.022 125.895 567.071 125.521 567.071 125.125V124.957C567.071 124.566 567.022 124.198 566.924 123.851C566.832 123.5 566.69 123.189 566.5 122.921C566.314 122.647 566.08 122.433 565.796 122.276C565.518 122.12 565.191 122.042 564.815 122.042C564.444 122.042 564.117 122.12 563.833 122.276C563.555 122.433 563.321 122.647 563.13 122.921C562.945 123.189 562.806 123.5 562.713 123.851C562.62 124.198 562.574 124.566 562.574 124.957ZM571.487 122.32V129H570.132V121.075H571.451L571.487 122.32ZM573.963 121.031L573.956 122.291C573.843 122.267 573.736 122.252 573.633 122.247C573.536 122.237 573.423 122.232 573.296 122.232C572.984 122.232 572.708 122.281 572.469 122.379C572.229 122.477 572.027 122.613 571.861 122.789C571.695 122.965 571.563 123.175 571.465 123.419C571.373 123.658 571.312 123.922 571.282 124.21L570.901 124.43C570.901 123.951 570.948 123.502 571.041 123.082C571.138 122.662 571.287 122.291 571.487 121.969C571.688 121.642 571.941 121.388 572.249 121.207C572.562 121.021 572.933 120.929 573.362 120.929C573.46 120.929 573.572 120.941 573.699 120.965C573.826 120.985 573.914 121.007 573.963 121.031ZM579.588 118.336H580.958L584.451 127.03L587.938 118.336H589.314L584.979 129H583.909L579.588 118.336ZM579.141 118.336H580.35L580.547 124.84V129H579.141V118.336ZM588.545 118.336H589.754V129H588.348V124.84L588.545 118.336ZM595.32 129.146C594.769 129.146 594.268 129.054 593.819 128.868C593.375 128.678 592.991 128.412 592.669 128.07C592.352 127.728 592.107 127.323 591.937 126.854C591.766 126.385 591.68 125.873 591.68 125.316V125.008C591.68 124.364 591.775 123.79 591.966 123.287C592.156 122.779 592.415 122.35 592.742 121.998C593.069 121.646 593.44 121.38 593.855 121.2C594.271 121.019 594.7 120.929 595.145 120.929C595.711 120.929 596.199 121.026 596.609 121.222C597.024 121.417 597.364 121.69 597.627 122.042C597.891 122.389 598.086 122.799 598.213 123.272C598.34 123.741 598.404 124.254 598.404 124.811V125.418H592.486V124.312H597.049V124.21C597.029 123.858 596.956 123.517 596.829 123.185C596.707 122.853 596.512 122.579 596.243 122.364C595.975 122.149 595.608 122.042 595.145 122.042C594.837 122.042 594.554 122.108 594.295 122.24C594.036 122.367 593.814 122.557 593.628 122.811C593.443 123.065 593.299 123.375 593.196 123.741C593.094 124.107 593.042 124.53 593.042 125.008V125.316C593.042 125.692 593.094 126.046 593.196 126.378C593.304 126.705 593.458 126.993 593.658 127.242C593.863 127.491 594.109 127.687 594.397 127.828C594.69 127.97 595.022 128.041 595.394 128.041C595.872 128.041 596.277 127.943 596.609 127.748C596.941 127.552 597.232 127.291 597.481 126.964L598.301 127.616C598.13 127.875 597.913 128.121 597.649 128.355C597.386 128.59 597.061 128.78 596.675 128.927C596.294 129.073 595.843 129.146 595.32 129.146ZM604.6 126.898C604.6 126.703 604.556 126.522 604.468 126.356C604.385 126.185 604.212 126.031 603.948 125.895C603.689 125.753 603.299 125.631 602.776 125.528C602.337 125.436 601.939 125.326 601.583 125.199C601.231 125.072 600.931 124.918 600.682 124.737C600.438 124.557 600.25 124.344 600.118 124.1C599.986 123.856 599.92 123.57 599.92 123.243C599.92 122.931 599.988 122.635 600.125 122.357C600.267 122.079 600.464 121.832 600.718 121.617C600.977 121.402 601.287 121.234 601.648 121.112C602.01 120.99 602.413 120.929 602.857 120.929C603.492 120.929 604.034 121.041 604.483 121.266C604.932 121.49 605.276 121.791 605.516 122.167C605.755 122.538 605.875 122.95 605.875 123.404H604.52C604.52 123.185 604.454 122.972 604.322 122.767C604.195 122.557 604.007 122.384 603.758 122.247C603.514 122.11 603.213 122.042 602.857 122.042C602.481 122.042 602.176 122.101 601.941 122.218C601.712 122.33 601.543 122.474 601.436 122.65C601.333 122.826 601.282 123.011 601.282 123.207C601.282 123.353 601.307 123.485 601.355 123.602C601.409 123.714 601.502 123.819 601.634 123.917C601.766 124.01 601.951 124.098 602.19 124.181C602.43 124.264 602.735 124.347 603.106 124.43C603.755 124.576 604.29 124.752 604.71 124.957C605.13 125.162 605.442 125.414 605.647 125.711C605.853 126.009 605.955 126.371 605.955 126.795C605.955 127.142 605.882 127.459 605.735 127.748C605.594 128.036 605.386 128.285 605.113 128.495C604.844 128.7 604.522 128.861 604.146 128.978C603.775 129.09 603.357 129.146 602.894 129.146C602.195 129.146 601.604 129.022 601.121 128.773C600.638 128.524 600.271 128.202 600.022 127.806C599.773 127.411 599.649 126.993 599.649 126.554H601.011C601.031 126.925 601.138 127.22 601.333 127.44C601.529 127.655 601.768 127.809 602.051 127.901C602.334 127.989 602.615 128.033 602.894 128.033C603.265 128.033 603.575 127.984 603.824 127.887C604.078 127.789 604.271 127.655 604.402 127.484C604.534 127.313 604.6 127.118 604.6 126.898ZM612.349 126.898C612.349 126.703 612.305 126.522 612.217 126.356C612.134 126.185 611.961 126.031 611.697 125.895C611.438 125.753 611.048 125.631 610.525 125.528C610.086 125.436 609.688 125.326 609.332 125.199C608.98 125.072 608.68 124.918 608.431 124.737C608.187 124.557 607.999 124.344 607.867 124.1C607.735 123.856 607.669 123.57 607.669 123.243C607.669 122.931 607.737 122.635 607.874 122.357C608.016 122.079 608.213 121.832 608.467 121.617C608.726 121.402 609.036 121.234 609.397 121.112C609.759 120.99 610.162 120.929 610.606 120.929C611.241 120.929 611.783 121.041 612.232 121.266C612.681 121.49 613.025 121.791 613.265 122.167C613.504 122.538 613.624 122.95 613.624 123.404H612.269C612.269 123.185 612.203 122.972 612.071 122.767C611.944 122.557 611.756 122.384 611.507 122.247C611.263 122.11 610.962 122.042 610.606 122.042C610.23 122.042 609.925 122.101 609.69 122.218C609.461 122.33 609.292 122.474 609.185 122.65C609.083 122.826 609.031 123.011 609.031 123.207C609.031 123.353 609.056 123.485 609.104 123.602C609.158 123.714 609.251 123.819 609.383 123.917C609.515 124.01 609.7 124.098 609.939 124.181C610.179 124.264 610.484 124.347 610.855 124.43C611.504 124.576 612.039 124.752 612.459 124.957C612.879 125.162 613.191 125.414 613.396 125.711C613.602 126.009 613.704 126.371 613.704 126.795C613.704 127.142 613.631 127.459 613.484 127.748C613.343 128.036 613.135 128.285 612.862 128.495C612.593 128.7 612.271 128.861 611.895 128.978C611.524 129.09 611.106 129.146 610.643 129.146C609.944 129.146 609.354 129.022 608.87 128.773C608.387 128.524 608.021 128.202 607.771 127.806C607.522 127.411 607.398 126.993 607.398 126.554H608.76C608.78 126.925 608.887 127.22 609.083 127.44C609.278 127.655 609.517 127.809 609.8 127.901C610.083 127.989 610.364 128.033 610.643 128.033C611.014 128.033 611.324 127.984 611.573 127.887C611.827 127.789 612.02 127.655 612.151 127.484C612.283 127.313 612.349 127.118 612.349 126.898ZM620.157 127.645V123.565C620.157 123.253 620.093 122.982 619.966 122.752C619.844 122.518 619.659 122.337 619.41 122.21C619.161 122.083 618.853 122.02 618.487 122.02C618.145 122.02 617.845 122.079 617.586 122.196C617.332 122.313 617.132 122.467 616.985 122.657C616.844 122.848 616.773 123.053 616.773 123.272H615.418C615.418 122.989 615.491 122.708 615.638 122.43C615.784 122.152 615.994 121.9 616.268 121.676C616.546 121.446 616.878 121.266 617.264 121.134C617.654 120.997 618.089 120.929 618.567 120.929C619.144 120.929 619.651 121.026 620.091 121.222C620.535 121.417 620.882 121.712 621.131 122.108C621.385 122.499 621.512 122.989 621.512 123.58V127.271C621.512 127.535 621.534 127.816 621.578 128.114C621.626 128.412 621.697 128.668 621.79 128.883V129H620.376C620.308 128.844 620.254 128.636 620.215 128.377C620.176 128.114 620.157 127.87 620.157 127.645ZM620.391 124.195L620.406 125.147H619.036C618.65 125.147 618.306 125.179 618.003 125.243C617.701 125.301 617.447 125.392 617.242 125.514C617.037 125.636 616.88 125.79 616.773 125.975C616.666 126.156 616.612 126.368 616.612 126.612C616.612 126.861 616.668 127.088 616.78 127.293C616.893 127.499 617.061 127.662 617.286 127.784C617.515 127.901 617.796 127.96 618.128 127.96C618.543 127.96 618.909 127.872 619.227 127.696C619.544 127.521 619.795 127.306 619.981 127.052C620.171 126.798 620.274 126.551 620.289 126.312L620.867 126.964C620.833 127.169 620.74 127.396 620.589 127.645C620.438 127.894 620.235 128.133 619.981 128.363C619.732 128.587 619.434 128.775 619.087 128.927C618.746 129.073 618.36 129.146 617.93 129.146C617.393 129.146 616.922 129.042 616.517 128.832C616.116 128.622 615.804 128.341 615.579 127.989C615.359 127.633 615.25 127.235 615.25 126.795C615.25 126.371 615.333 125.997 615.499 125.675C615.665 125.348 615.904 125.077 616.216 124.862C616.529 124.642 616.905 124.476 617.344 124.364C617.784 124.251 618.274 124.195 618.816 124.195H620.391ZM628.777 121.075H630.008V128.832C630.008 129.53 629.866 130.125 629.583 130.619C629.3 131.112 628.904 131.485 628.396 131.739C627.894 131.998 627.312 132.127 626.653 132.127C626.38 132.127 626.058 132.083 625.687 131.996C625.32 131.913 624.959 131.769 624.603 131.563C624.251 131.363 623.956 131.092 623.716 130.75L624.427 129.945C624.759 130.345 625.105 130.624 625.467 130.78C625.833 130.936 626.194 131.014 626.551 131.014C626.98 131.014 627.352 130.934 627.664 130.772C627.977 130.611 628.218 130.372 628.389 130.055C628.565 129.742 628.653 129.356 628.653 128.897V122.818L628.777 121.075ZM623.321 125.125V124.972C623.321 124.366 623.392 123.817 623.533 123.324C623.68 122.826 623.887 122.398 624.156 122.042C624.429 121.686 624.759 121.412 625.145 121.222C625.53 121.026 625.965 120.929 626.448 120.929C626.946 120.929 627.381 121.017 627.752 121.192C628.128 121.363 628.445 121.615 628.704 121.947C628.968 122.274 629.175 122.669 629.327 123.133C629.478 123.597 629.583 124.122 629.642 124.708V125.382C629.588 125.963 629.483 126.485 629.327 126.949C629.175 127.413 628.968 127.809 628.704 128.136C628.445 128.463 628.128 128.714 627.752 128.89C627.376 129.061 626.937 129.146 626.434 129.146C625.96 129.146 625.53 129.046 625.145 128.846C624.764 128.646 624.437 128.365 624.163 128.004C623.89 127.643 623.68 127.218 623.533 126.729C623.392 126.236 623.321 125.702 623.321 125.125ZM624.676 124.972V125.125C624.676 125.521 624.715 125.892 624.793 126.239C624.876 126.585 625 126.891 625.167 127.154C625.337 127.418 625.555 127.625 625.818 127.777C626.082 127.923 626.397 127.997 626.763 127.997C627.212 127.997 627.583 127.901 627.876 127.711C628.169 127.521 628.401 127.269 628.572 126.957C628.748 126.644 628.885 126.305 628.982 125.938V124.173C628.929 123.905 628.846 123.646 628.733 123.397C628.626 123.143 628.484 122.918 628.309 122.723C628.138 122.523 627.925 122.364 627.671 122.247C627.417 122.13 627.12 122.071 626.778 122.071C626.407 122.071 626.087 122.149 625.818 122.306C625.555 122.457 625.337 122.667 625.167 122.936C625 123.199 624.876 123.507 624.793 123.858C624.715 124.205 624.676 124.576 624.676 124.972ZM635.354 129.146C634.803 129.146 634.302 129.054 633.853 128.868C633.409 128.678 633.025 128.412 632.703 128.07C632.386 127.728 632.142 127.323 631.971 126.854C631.8 126.385 631.714 125.873 631.714 125.316V125.008C631.714 124.364 631.81 123.79 632 123.287C632.19 122.779 632.449 122.35 632.776 121.998C633.104 121.646 633.475 121.38 633.89 121.2C634.305 121.019 634.734 120.929 635.179 120.929C635.745 120.929 636.233 121.026 636.644 121.222C637.059 121.417 637.398 121.69 637.662 122.042C637.925 122.389 638.121 122.799 638.248 123.272C638.375 123.741 638.438 124.254 638.438 124.811V125.418H632.52V124.312H637.083V124.21C637.063 123.858 636.99 123.517 636.863 123.185C636.741 122.853 636.546 122.579 636.277 122.364C636.009 122.149 635.643 122.042 635.179 122.042C634.871 122.042 634.588 122.108 634.329 122.24C634.07 122.367 633.848 122.557 633.663 122.811C633.477 123.065 633.333 123.375 633.23 123.741C633.128 124.107 633.077 124.53 633.077 125.008V125.316C633.077 125.692 633.128 126.046 633.23 126.378C633.338 126.705 633.492 126.993 633.692 127.242C633.897 127.491 634.144 127.687 634.432 127.828C634.725 127.97 635.057 128.041 635.428 128.041C635.906 128.041 636.312 127.943 636.644 127.748C636.976 127.552 637.266 127.291 637.515 126.964L638.335 127.616C638.165 127.875 637.947 128.121 637.684 128.355C637.42 128.59 637.095 128.78 636.709 128.927C636.329 129.073 635.877 129.146 635.354 129.146Z" fill="#F45C59"/>
    <path d="M549.109 148.731V149.728H544.107V148.731H549.109ZM544.298 144.758V154H543.073V144.758H544.298ZM550.176 144.758V154H548.957V144.758H550.176ZM555.025 154.127C554.547 154.127 554.113 154.047 553.724 153.886C553.339 153.721 553.007 153.49 552.728 153.194C552.452 152.898 552.241 152.546 552.093 152.14C551.945 151.734 551.871 151.29 551.871 150.807V150.541C551.871 149.982 551.953 149.485 552.118 149.049C552.283 148.609 552.507 148.236 552.791 147.932C553.075 147.627 553.396 147.396 553.756 147.24C554.116 147.083 554.488 147.005 554.873 147.005C555.364 147.005 555.787 147.09 556.143 147.259C556.502 147.428 556.796 147.665 557.025 147.97C557.253 148.27 557.423 148.626 557.533 149.036C557.643 149.442 557.698 149.887 557.698 150.369V150.896H552.569V149.938H556.523V149.849C556.507 149.544 556.443 149.248 556.333 148.96C556.227 148.672 556.058 148.435 555.825 148.249C555.592 148.063 555.275 147.97 554.873 147.97C554.606 147.97 554.361 148.027 554.137 148.141C553.912 148.251 553.72 148.416 553.559 148.636C553.398 148.856 553.273 149.125 553.185 149.442C553.096 149.76 553.051 150.126 553.051 150.541V150.807C553.051 151.133 553.096 151.44 553.185 151.728C553.278 152.011 553.411 152.261 553.584 152.477C553.762 152.692 553.976 152.862 554.226 152.984C554.479 153.107 554.767 153.168 555.089 153.168C555.504 153.168 555.855 153.084 556.143 152.915C556.43 152.745 556.682 152.519 556.898 152.235L557.609 152.8C557.461 153.025 557.272 153.238 557.044 153.441C556.815 153.645 556.534 153.81 556.2 153.937C555.87 154.063 555.478 154.127 555.025 154.127ZM560.345 144.25V154H559.164V144.25H560.345ZM563.404 148.452V156.641H562.224V147.132H563.303L563.404 148.452ZM568.032 150.509V150.642C568.032 151.141 567.972 151.605 567.854 152.032C567.736 152.455 567.562 152.824 567.333 153.137C567.109 153.45 566.832 153.693 566.502 153.867C566.172 154.04 565.793 154.127 565.366 154.127C564.93 154.127 564.545 154.055 564.21 153.911C563.876 153.767 563.593 153.558 563.36 153.283C563.127 153.008 562.941 152.678 562.801 152.292C562.666 151.907 562.573 151.474 562.522 150.991V150.28C562.573 149.772 562.668 149.318 562.808 148.916C562.947 148.514 563.131 148.171 563.36 147.887C563.593 147.599 563.874 147.382 564.204 147.233C564.534 147.081 564.915 147.005 565.347 147.005C565.778 147.005 566.161 147.09 566.496 147.259C566.83 147.424 567.111 147.661 567.34 147.97C567.568 148.279 567.74 148.649 567.854 149.081C567.972 149.508 568.032 149.984 568.032 150.509ZM566.851 150.642V150.509C566.851 150.166 566.815 149.844 566.743 149.544C566.671 149.239 566.559 148.973 566.407 148.744C566.259 148.511 566.068 148.329 565.835 148.198C565.603 148.063 565.326 147.995 565.004 147.995C564.708 147.995 564.45 148.046 564.229 148.147C564.014 148.249 563.83 148.387 563.677 148.56C563.525 148.729 563.4 148.924 563.303 149.144C563.21 149.36 563.14 149.584 563.093 149.817V151.461C563.178 151.757 563.296 152.036 563.449 152.299C563.601 152.557 563.804 152.766 564.058 152.927C564.312 153.084 564.632 153.162 565.017 153.162C565.334 153.162 565.607 153.097 565.835 152.965C566.068 152.83 566.259 152.646 566.407 152.413C566.559 152.18 566.671 151.914 566.743 151.613C566.815 151.309 566.851 150.985 566.851 150.642ZM575.63 147.132V148.033H571.917V147.132H575.63ZM573.173 145.462H574.348V152.299C574.348 152.532 574.384 152.707 574.456 152.826C574.528 152.944 574.621 153.022 574.735 153.061C574.849 153.099 574.972 153.118 575.103 153.118C575.2 153.118 575.302 153.109 575.408 153.092C575.518 153.071 575.6 153.054 575.655 153.042L575.662 154C575.569 154.03 575.446 154.057 575.293 154.083C575.145 154.112 574.965 154.127 574.754 154.127C574.466 154.127 574.202 154.07 573.96 153.956C573.719 153.841 573.527 153.651 573.383 153.384C573.243 153.113 573.173 152.75 573.173 152.292V145.462ZM579.857 154.127C579.379 154.127 578.945 154.047 578.556 153.886C578.171 153.721 577.839 153.49 577.56 153.194C577.285 152.898 577.073 152.546 576.925 152.14C576.777 151.734 576.703 151.29 576.703 150.807V150.541C576.703 149.982 576.785 149.485 576.95 149.049C577.115 148.609 577.34 148.236 577.623 147.932C577.907 147.627 578.228 147.396 578.588 147.24C578.948 147.083 579.32 147.005 579.705 147.005C580.196 147.005 580.619 147.09 580.975 147.259C581.334 147.428 581.628 147.665 581.857 147.97C582.085 148.27 582.255 148.626 582.365 149.036C582.475 149.442 582.53 149.887 582.53 150.369V150.896H577.401V149.938H581.355V149.849C581.339 149.544 581.275 149.248 581.165 148.96C581.059 148.672 580.89 148.435 580.657 148.249C580.424 148.063 580.107 147.97 579.705 147.97C579.438 147.97 579.193 148.027 578.969 148.141C578.744 148.251 578.552 148.416 578.391 148.636C578.23 148.856 578.105 149.125 578.017 149.442C577.928 149.76 577.883 150.126 577.883 150.541V150.807C577.883 151.133 577.928 151.44 578.017 151.728C578.11 152.011 578.243 152.261 578.417 152.477C578.594 152.692 578.808 152.862 579.058 152.984C579.312 153.107 579.599 153.168 579.921 153.168C580.336 153.168 580.687 153.084 580.975 152.915C581.262 152.745 581.514 152.519 581.73 152.235L582.441 152.8C582.293 153.025 582.104 153.238 581.876 153.441C581.647 153.645 581.366 153.81 581.032 153.937C580.702 154.063 580.31 154.127 579.857 154.127ZM584.694 147.132L586.199 149.633L587.722 147.132H589.1L586.853 150.521L589.169 154H587.811L586.224 151.423L584.637 154H583.272L585.583 150.521L583.342 147.132H584.694ZM593.226 147.132V148.033H589.512V147.132H593.226ZM590.769 145.462H591.943V152.299C591.943 152.532 591.979 152.707 592.051 152.826C592.123 152.944 592.216 153.022 592.331 153.061C592.445 153.099 592.568 153.118 592.699 153.118C592.796 153.118 592.898 153.109 593.003 153.092C593.113 153.071 593.196 153.054 593.251 153.042L593.257 154C593.164 154.03 593.042 154.057 592.889 154.083C592.741 154.112 592.561 154.127 592.35 154.127C592.062 154.127 591.797 154.07 591.556 153.956C591.315 153.841 591.122 153.651 590.979 153.384C590.839 153.113 590.769 152.75 590.769 152.292V145.462Z" fill="#505050"/>
    <path d="M66.5625 66.8125V68.1367H60.416L60.334 67.1113L63.8906 61.4688H65.2324L63.7793 63.9004L62.0098 66.8125H66.5625ZM65.5957 61.4688V70H63.9082V61.4688H65.5957Z" fill="#F45C59"/>
    <rect x="71" y="64" width="400" height="1" fill="#F45C59"/>
    <g opacity="0.2">
        <rect width="400" height="2" transform="translate(71 65)" fill="#F45C59"/>
    </g>
    <rect x="71" y="67" width="400" height="1" fill="#F45C59"/>
    <path d="M537.562 66.8125V68.1367H531.416L531.334 67.1113L534.891 61.4688H536.232L534.779 63.9004L533.01 66.8125H537.562ZM536.596 61.4688V70H534.908V61.4688H536.596Z" fill="#F45C59"/>
    <rect x="542" y="64" width="400" height="1" fill="#F45C59"/>
    <g opacity="0.2">
        <rect width="400" height="2" transform="translate(542 65)" fill="#F45C59"/>
    </g>
    <rect x="542" y="67" width="400" height="1" fill="#F45C59"/>
    <path d="M66.5625 110.812V112.137H60.416L60.334 111.111L63.8906 105.469H65.2324L63.7793 107.9L62.0098 110.812H66.5625ZM65.5957 105.469V114H63.9082V105.469H65.5957Z" fill="#F45C59"/>
    <rect x="71" y="108" width="400" height="1" fill="#F45C59"/>
    <g opacity="0.2">
        <rect width="400" height="2" transform="translate(71 109)" fill="#F45C59"/>
    </g>
    <rect x="71" y="111" width="400" height="1" fill="#F45C59"/>
    <path d="M537.562 110.812V112.137H531.416L531.334 111.111L534.891 105.469H536.232L534.779 107.9L533.01 110.812H537.562ZM536.596 105.469V114H534.908V105.469H536.596Z" fill="#F45C59"/>
    <rect x="542" y="108" width="400" height="1" fill="#F45C59"/>
    <g opacity="0.2">
        <rect width="400" height="2" transform="translate(542 109)" fill="#F45C59"/>
    </g>
    <rect x="542" y="111" width="400" height="1" fill="#F45C59"/>
    <path d="M537.562 138.812V140.137H531.416L531.334 139.111L534.891 133.469H536.232L534.779 135.9L533.01 138.812H537.562ZM536.596 133.469V142H534.908V133.469H536.596Z" fill="#F45C59"/>
    <rect x="542" y="136" width="400" height="1" fill="#F45C59"/>
    <g opacity="0.2">
        <rect width="400" height="2" transform="translate(542 137)" fill="#F45C59"/>
    </g>
    <rect x="542" y="139" width="400" height="1" fill="#F45C59"/>
</svg>
