<svg width="800" height="150" viewBox="0 0 800 150" fill="none" xmlns="http://www.w3.org/2000/svg">
<rect width="800" height="150" rx="16" fill="#F8F8F8"/>
<path d="M360.705 78.8501V80H355.373V78.8501H360.705ZM355.651 69.3359V80H354.238V69.3359H355.651ZM363.591 72.0752V80H362.229V72.0752H363.591ZM362.126 69.9731C362.126 69.7534 362.192 69.5679 362.324 69.4165C362.46 69.2651 362.661 69.1895 362.924 69.1895C363.183 69.1895 363.381 69.2651 363.518 69.4165C363.659 69.5679 363.73 69.7534 363.73 69.9731C363.73 70.1831 363.659 70.3638 363.518 70.5151C363.381 70.6616 363.183 70.7349 362.924 70.7349C362.661 70.7349 362.46 70.6616 362.324 70.5151C362.192 70.3638 362.126 70.1831 362.126 69.9731ZM367.121 73.7671V80H365.766V72.0752H367.048L367.121 73.7671ZM366.799 75.7373L366.235 75.7153C366.24 75.1733 366.32 74.6729 366.477 74.2139C366.633 73.75 366.853 73.3472 367.136 73.0054C367.419 72.6636 367.756 72.3999 368.146 72.2144C368.542 72.0239 368.979 71.9287 369.458 71.9287C369.848 71.9287 370.2 71.9824 370.512 72.0898C370.825 72.1924 371.091 72.3584 371.311 72.5879C371.535 72.8174 371.706 73.1152 371.823 73.4814C371.94 73.8428 371.999 74.2847 371.999 74.8071V80H370.637V74.7925C370.637 74.3774 370.576 74.0454 370.454 73.7964C370.332 73.5425 370.153 73.3594 369.919 73.2471C369.685 73.1299 369.396 73.0713 369.055 73.0713C368.718 73.0713 368.41 73.1421 368.132 73.2837C367.858 73.4253 367.622 73.6206 367.421 73.8696C367.226 74.1187 367.072 74.4043 366.96 74.7266C366.853 75.0439 366.799 75.3809 366.799 75.7373ZM375.419 68.75V80H374.057V68.75H375.419ZM380.261 72.0752L376.804 75.7739L374.87 77.7808L374.76 76.3379L376.145 74.6826L378.605 72.0752H380.261ZM379.023 80L376.196 76.2207L376.899 75.0122L380.62 80H379.023ZM390.375 78.4619V68.75H391.738V80H390.493L390.375 78.4619ZM385.043 76.1255V75.9717C385.043 75.3662 385.117 74.8169 385.263 74.3237C385.415 73.8257 385.627 73.3984 385.9 73.042C386.179 72.6855 386.508 72.4121 386.889 72.2217C387.275 72.0264 387.705 71.9287 388.178 71.9287C388.676 71.9287 389.111 72.0166 389.482 72.1924C389.858 72.3633 390.175 72.6147 390.434 72.9468C390.698 73.2739 390.905 73.6694 391.057 74.1333C391.208 74.5972 391.313 75.1221 391.372 75.708V76.3818C391.318 76.9629 391.213 77.4854 391.057 77.9492C390.905 78.4131 390.698 78.8086 390.434 79.1357C390.175 79.4629 389.858 79.7144 389.482 79.8901C389.106 80.061 388.667 80.1465 388.164 80.1465C387.7 80.1465 387.275 80.0464 386.889 79.8462C386.508 79.646 386.179 79.3652 385.9 79.0039C385.627 78.6426 385.415 78.2178 385.263 77.7295C385.117 77.2363 385.043 76.7017 385.043 76.1255ZM386.406 75.9717V76.1255C386.406 76.521 386.445 76.8921 386.523 77.2388C386.606 77.5854 386.733 77.8906 386.904 78.1543C387.075 78.418 387.292 78.6255 387.556 78.7769C387.819 78.9233 388.134 78.9966 388.5 78.9966C388.95 78.9966 389.318 78.9014 389.606 78.7109C389.899 78.5205 390.134 78.269 390.31 77.9565C390.485 77.644 390.622 77.3047 390.72 76.9385V75.1733C390.661 74.9048 390.576 74.646 390.463 74.397C390.356 74.1431 390.214 73.9185 390.039 73.7231C389.868 73.5229 389.655 73.3643 389.401 73.2471C389.152 73.1299 388.857 73.0713 388.515 73.0713C388.144 73.0713 387.824 73.1494 387.556 73.3057C387.292 73.457 387.075 73.667 386.904 73.9355C386.733 74.1992 386.606 74.5068 386.523 74.8584C386.445 75.2051 386.406 75.5762 386.406 75.9717ZM397.136 80.1465C396.584 80.1465 396.083 80.0537 395.634 79.8682C395.19 79.6777 394.807 79.4116 394.484 79.0698C394.167 78.728 393.923 78.3228 393.752 77.854C393.581 77.3853 393.496 76.8726 393.496 76.3159V76.0083C393.496 75.3638 393.591 74.79 393.781 74.2871C393.972 73.7793 394.23 73.3496 394.558 72.998C394.885 72.6465 395.256 72.3804 395.671 72.1997C396.086 72.019 396.516 71.9287 396.96 71.9287C397.526 71.9287 398.015 72.0264 398.425 72.2217C398.84 72.417 399.179 72.6904 399.443 73.042C399.707 73.3887 399.902 73.7988 400.029 74.2725C400.156 74.7412 400.219 75.2539 400.219 75.8105V76.4185H394.301V75.3125H398.864V75.21C398.845 74.8584 398.771 74.5166 398.645 74.1846C398.522 73.8525 398.327 73.5791 398.059 73.3643C397.79 73.1494 397.424 73.042 396.96 73.042C396.652 73.042 396.369 73.1079 396.11 73.2397C395.852 73.3667 395.629 73.5571 395.444 73.811C395.258 74.0649 395.114 74.375 395.012 74.7412C394.909 75.1074 394.858 75.5298 394.858 76.0083V76.3159C394.858 76.6919 394.909 77.0459 395.012 77.3779C395.119 77.7051 395.273 77.9932 395.473 78.2422C395.678 78.4912 395.925 78.6865 396.213 78.8281C396.506 78.9697 396.838 79.0405 397.209 79.0405C397.688 79.0405 398.093 78.9429 398.425 78.7476C398.757 78.5522 399.047 78.291 399.296 77.9639L400.117 78.6157C399.946 78.8745 399.729 79.1211 399.465 79.3555C399.201 79.5898 398.876 79.7803 398.491 79.9268C398.11 80.0732 397.658 80.1465 397.136 80.1465ZM403.823 80H402.468V71.2402C402.468 70.6689 402.57 70.188 402.775 69.7974C402.985 69.4019 403.286 69.104 403.676 68.9038C404.067 68.6987 404.531 68.5962 405.068 68.5962C405.224 68.5962 405.38 68.606 405.537 68.6255C405.698 68.645 405.854 68.6743 406.005 68.7134L405.932 69.8193C405.83 69.7949 405.712 69.7778 405.581 69.7681C405.454 69.7583 405.327 69.7534 405.2 69.7534C404.912 69.7534 404.663 69.812 404.453 69.9292C404.248 70.0415 404.091 70.2075 403.984 70.4272C403.876 70.647 403.823 70.918 403.823 71.2402V80ZM405.507 72.0752V73.1152H401.215V72.0752H405.507ZM411.689 78.645V74.5654C411.689 74.2529 411.625 73.9819 411.499 73.7524C411.376 73.5181 411.191 73.3374 410.942 73.2104C410.693 73.0835 410.385 73.02 410.019 73.02C409.677 73.02 409.377 73.0786 409.118 73.1958C408.864 73.313 408.664 73.4668 408.518 73.6572C408.376 73.8477 408.305 74.0527 408.305 74.2725H406.95C406.95 73.9893 407.023 73.7085 407.17 73.4302C407.316 73.1519 407.526 72.9004 407.8 72.6758C408.078 72.4463 408.41 72.2656 408.796 72.1338C409.187 71.9971 409.621 71.9287 410.1 71.9287C410.676 71.9287 411.184 72.0264 411.623 72.2217C412.067 72.417 412.414 72.7124 412.663 73.1079C412.917 73.4985 413.044 73.9893 413.044 74.5801V78.2715C413.044 78.5352 413.066 78.8159 413.11 79.1138C413.159 79.4116 413.229 79.668 413.322 79.8828V80H411.909C411.84 79.8438 411.787 79.6362 411.748 79.3774C411.708 79.1138 411.689 78.8696 411.689 78.645ZM411.923 75.1953L411.938 76.1475H410.568C410.183 76.1475 409.838 76.1792 409.536 76.2427C409.233 76.3013 408.979 76.3916 408.774 76.5137C408.569 76.6357 408.413 76.7896 408.305 76.9751C408.198 77.1558 408.144 77.3682 408.144 77.6123C408.144 77.8613 408.2 78.0884 408.312 78.2935C408.425 78.4985 408.593 78.6621 408.818 78.7842C409.047 78.9014 409.328 78.96 409.66 78.96C410.075 78.96 410.441 78.8721 410.759 78.6963C411.076 78.5205 411.328 78.3057 411.513 78.0518C411.704 77.7979 411.806 77.5513 411.821 77.312L412.399 77.9639C412.365 78.1689 412.272 78.396 412.121 78.645C411.97 78.894 411.767 79.1333 411.513 79.3628C411.264 79.5874 410.966 79.7754 410.62 79.9268C410.278 80.0732 409.892 80.1465 409.462 80.1465C408.925 80.1465 408.454 80.0415 408.049 79.8315C407.648 79.6216 407.336 79.3408 407.111 78.9893C406.892 78.6328 406.782 78.2349 406.782 77.7954C406.782 77.3706 406.865 76.9971 407.031 76.6748C407.197 76.3477 407.436 76.0767 407.749 75.8618C408.061 75.6421 408.437 75.4761 408.876 75.3638C409.316 75.2515 409.807 75.1953 410.349 75.1953H411.923ZM420.024 78.1689V72.0752H421.386V80H420.09L420.024 78.1689ZM420.28 76.499L420.844 76.4844C420.844 77.0117 420.788 77.5 420.676 77.9492C420.568 78.3936 420.393 78.7793 420.148 79.1064C419.904 79.4336 419.584 79.6899 419.189 79.8755C418.793 80.0562 418.312 80.1465 417.746 80.1465C417.36 80.1465 417.006 80.0903 416.684 79.978C416.367 79.8657 416.093 79.6924 415.864 79.458C415.634 79.2236 415.456 78.9185 415.329 78.5425C415.207 78.1665 415.146 77.7148 415.146 77.1875V72.0752H416.501V77.2021C416.501 77.5586 416.54 77.854 416.618 78.0884C416.701 78.3179 416.811 78.501 416.948 78.6377C417.089 78.7695 417.246 78.8623 417.417 78.916C417.592 78.9697 417.773 78.9966 417.958 78.9966C418.535 78.9966 418.991 78.8867 419.328 78.667C419.665 78.4424 419.907 78.1421 420.053 77.7661C420.205 77.3853 420.28 76.9629 420.28 76.499ZM424.924 68.75V80H423.562V68.75H424.924ZM430.417 72.0752V73.1152H426.132V72.0752H430.417ZM427.583 70.1489H428.938V78.0371C428.938 78.3057 428.979 78.5083 429.062 78.645C429.145 78.7817 429.252 78.8721 429.384 78.916C429.516 78.96 429.658 78.9819 429.809 78.9819C429.921 78.9819 430.039 78.9722 430.161 78.9526C430.288 78.9282 430.383 78.9087 430.446 78.894L430.454 80C430.346 80.0342 430.205 80.0659 430.029 80.0952C429.858 80.1294 429.65 80.1465 429.406 80.1465C429.074 80.1465 428.769 80.0806 428.491 79.9487C428.212 79.8169 427.99 79.5972 427.824 79.2896C427.663 78.9771 427.583 78.5571 427.583 78.0298V70.1489Z" fill="#0059FF"/>
<path d="M353 81.4648H430.974V82.1973H353V81.4648Z" fill="#0059FF"/>
<path d="M441.939 70.4688C441.939 70.7285 442.148 70.9375 442.408 70.9375H444.402L440.044 75.293C439.86 75.4766 439.86 75.7734 440.044 75.9551C440.227 76.1367 440.524 76.1387 440.706 75.9551L445.062 71.5996V73.5938C445.062 73.8535 445.271 74.0625 445.531 74.0625C445.791 74.0625 446 73.8535 446 73.5938V70.4688C446 70.209 445.791 70 445.531 70H442.408C442.148 70 441.939 70.209 441.939 70.4688ZM437.407 70.625C436.629 70.625 436 71.2539 436 72.0312V78.5938C436 79.3711 436.629 80 437.407 80H443.97C444.748 80 445.377 79.3711 445.377 78.5938V76.0938C445.377 75.834 445.168 75.625 444.908 75.625C444.648 75.625 444.439 75.834 444.439 76.0938V78.5938C444.439 78.8535 444.23 79.0625 443.97 79.0625H437.407C437.147 79.0625 436.938 78.8535 436.938 78.5938V72.0312C436.938 71.7715 437.147 71.5625 437.407 71.5625H439.907C440.167 71.5625 440.376 71.3535 440.376 71.0938C440.376 70.834 440.167 70.625 439.907 70.625H437.407Z" fill="#0059FF"/>
<rect x="441" y="82" width="1" height="17" fill="#18BB4B"/>
<path d="M436.062 51.8125V53.1367H429.916L429.834 52.1113L433.391 46.4688H434.732L433.279 48.9004L431.51 51.8125H436.062ZM435.096 46.4688V55H433.408V46.4688H435.096Z" fill="#F45C59"/>
<rect x="431" y="62" width="1" height="28" fill="#F45C59"/>
<g opacity="0.2">
<rect width="2" height="28" transform="translate(432 62)" fill="#F45C59"/>
</g>
<rect x="434" y="62" width="1" height="28" fill="#F45C59"/>
<path d="M433.699 100.451V109H432.012V102.396L429.984 103.041V101.711L433.518 100.451H433.699ZM442.312 107.682V109H436.477V107.875L439.236 104.916C439.514 104.607 439.732 104.336 439.893 104.102C440.053 103.863 440.168 103.65 440.238 103.463C440.312 103.271 440.35 103.09 440.35 102.918C440.35 102.66 440.307 102.439 440.221 102.256C440.135 102.068 440.008 101.924 439.84 101.822C439.676 101.721 439.473 101.67 439.23 101.67C438.973 101.67 438.75 101.732 438.562 101.857C438.379 101.982 438.238 102.156 438.141 102.379C438.047 102.602 438 102.854 438 103.135H436.307C436.307 102.627 436.428 102.162 436.67 101.74C436.912 101.314 437.254 100.977 437.695 100.727C438.137 100.473 438.66 100.346 439.266 100.346C439.863 100.346 440.367 100.443 440.777 100.639C441.191 100.83 441.504 101.107 441.715 101.471C441.93 101.83 442.037 102.26 442.037 102.76C442.037 103.041 441.992 103.316 441.902 103.586C441.812 103.852 441.684 104.117 441.516 104.383C441.352 104.645 441.152 104.91 440.918 105.18C440.684 105.449 440.424 105.729 440.139 106.018L438.656 107.682H442.312ZM445.125 103.879V111.438H443.438V102.66H445.002L445.125 103.879ZM449.139 105.76V105.883C449.139 106.344 449.084 106.771 448.975 107.166C448.869 107.561 448.713 107.904 448.506 108.197C448.299 108.486 448.041 108.713 447.732 108.877C447.428 109.037 447.076 109.117 446.678 109.117C446.291 109.117 445.955 109.039 445.67 108.883C445.385 108.727 445.145 108.508 444.949 108.227C444.758 107.941 444.604 107.611 444.486 107.236C444.369 106.861 444.279 106.459 444.217 106.029V105.707C444.279 105.246 444.369 104.824 444.486 104.441C444.604 104.055 444.758 103.721 444.949 103.439C445.145 103.154 445.383 102.934 445.664 102.777C445.949 102.621 446.283 102.543 446.666 102.543C447.068 102.543 447.422 102.619 447.727 102.771C448.035 102.924 448.293 103.143 448.5 103.428C448.711 103.713 448.869 104.053 448.975 104.447C449.084 104.842 449.139 105.279 449.139 105.76ZM447.445 105.883V105.76C447.445 105.49 447.422 105.242 447.375 105.016C447.332 104.785 447.262 104.584 447.164 104.412C447.07 104.24 446.945 104.107 446.789 104.014C446.637 103.916 446.451 103.867 446.232 103.867C446.002 103.867 445.805 103.904 445.641 103.979C445.48 104.053 445.35 104.16 445.248 104.301C445.146 104.441 445.07 104.609 445.02 104.805C444.969 105 444.938 105.221 444.926 105.467V106.281C444.945 106.57 445 106.83 445.09 107.061C445.18 107.287 445.318 107.467 445.506 107.6C445.693 107.732 445.939 107.799 446.244 107.799C446.467 107.799 446.654 107.75 446.807 107.652C446.959 107.551 447.082 107.412 447.176 107.236C447.273 107.061 447.342 106.857 447.381 106.627C447.424 106.396 447.445 106.148 447.445 105.883ZM451.453 102.66L452.502 104.588L453.58 102.66H455.379L453.586 105.76L455.461 109H453.656L452.514 106.961L451.371 109H449.566L451.441 105.76L449.648 102.66H451.453Z" fill="#18BB4B"/>
<rect x="434.5" y="68.5" width="13" height="13" stroke="#18BB4B"/>
</svg>
