<svg width="640" height="376" viewBox="0 0 640 376" fill="none" xmlns="http://www.w3.org/2000/svg">
<rect width="640" height="376" rx="16" fill="#F8F8F8"/>
<g filter="url(#filter0_dd_7688_87002)">
<rect x="40" y="40" width="560" height="72" rx="8" fill="white"/>
<path d="M74 69.5C74 70.3284 73.3284 71 72.5 71C71.6716 71 71 70.3284 71 69.5C71 68.6716 71.6716 68 72.5 68C73.3284 68 74 68.6716 74 69.5Z" fill="#AAAAAA"/>
<path d="M80 69.5C80 70.3284 79.3284 71 78.5 71C77.6716 71 77 70.3284 77 69.5C77 68.6716 77.6716 68 78.5 68C79.3284 68 80 68.6716 80 69.5Z" fill="#AAAAAA"/>
<path d="M80 76C80 76.8284 79.3284 77.5 78.5 77.5C77.6716 77.5 77 76.8284 77 76C77 75.1716 77.6716 74.5 78.5 74.5C79.3284 74.5 80 75.1716 80 76Z" fill="#AAAAAA"/>
<path d="M74 76C74 76.8284 73.3284 77.5 72.5 77.5C71.6716 77.5 71 76.8284 71 76C71 75.1716 71.6716 74.5 72.5 74.5C73.3284 74.5 74 75.1716 74 76Z" fill="#AAAAAA"/>
<path d="M74 82.5C74 83.3284 73.3284 84 72.5 84C71.6716 84 71 83.3284 71 82.5C71 81.6716 71.6716 81 72.5 81C73.3284 81 74 81.6716 74 82.5Z" fill="#AAAAAA"/>
<path d="M80 82.5C80 83.3284 79.3284 84 78.5 84C77.6716 84 77 83.3284 77 82.5C77 81.6716 77.6716 81 78.5 81C79.3284 81 80 81.6716 80 82.5Z" fill="#AAAAAA"/>
<path d="M101 72.3333C101 71.3207 101.783 70.5 102.75 70.5H113.25C114.215 70.5 115 71.3207 115 72.3333V79.6667C115 80.6779 114.215 81.5 113.25 81.5H102.75C101.783 81.5 101 80.6779 101 79.6667V72.3333ZM102.312 72.3333V72.9664L107.029 77.0227C107.593 77.5096 108.407 77.5096 108.971 77.0227L113.688 72.9664V72.3076C113.688 72.0812 113.491 71.8492 113.25 71.8492H102.75C102.508 71.8492 102.312 72.0812 102.312 72.3076V72.3333ZM102.312 74.7453V79.6667C102.312 79.9188 102.508 80.125 102.75 80.125H113.25C113.491 80.125 113.688 79.9188 113.688 79.6667V74.7453L109.805 78.0854C108.755 78.9878 107.245 78.9878 106.171 78.0854L102.312 74.7453Z" fill="#1A1A1A"/>
<path d="M130.922 70.3359V81H129.084V70.3359H130.922ZM135.273 75.0015V76.459H130.454V75.0015H135.273ZM135.881 70.3359V71.8008H130.454V70.3359H135.881ZM139.06 73.0752V81H137.287V73.0752H139.06ZM137.17 70.9951C137.17 70.7266 137.258 70.5044 137.434 70.3286C137.614 70.1479 137.863 70.0576 138.181 70.0576C138.493 70.0576 138.74 70.1479 138.92 70.3286C139.101 70.5044 139.191 70.7266 139.191 70.9951C139.191 71.2588 139.101 71.4785 138.92 71.6543C138.74 71.8301 138.493 71.918 138.181 71.918C137.863 71.918 137.614 71.8301 137.434 71.6543C137.258 71.4785 137.17 71.2588 137.17 70.9951ZM144.487 81.1465C143.901 81.1465 143.371 81.0513 142.897 80.8608C142.429 80.6655 142.028 80.3945 141.696 80.0479C141.369 79.7012 141.118 79.2935 140.942 78.8247C140.766 78.356 140.678 77.8506 140.678 77.3086V77.0156C140.678 76.3955 140.769 75.834 140.949 75.3311C141.13 74.8281 141.381 74.3984 141.704 74.042C142.026 73.6807 142.407 73.4048 142.846 73.2144C143.286 73.0239 143.762 72.9287 144.274 72.9287C144.841 72.9287 145.336 73.0239 145.761 73.2144C146.186 73.4048 146.538 73.6733 146.816 74.02C147.099 74.3618 147.309 74.7695 147.446 75.2432C147.587 75.7168 147.658 76.2393 147.658 76.8105V77.5649H141.535V76.2979H145.915V76.1587C145.905 75.8413 145.842 75.5435 145.725 75.2651C145.612 74.9868 145.439 74.7622 145.205 74.5913C144.97 74.4204 144.658 74.335 144.267 74.335C143.974 74.335 143.713 74.3984 143.483 74.5254C143.259 74.6475 143.071 74.8257 142.919 75.0601C142.768 75.2944 142.651 75.5776 142.568 75.9097C142.49 76.2368 142.451 76.6055 142.451 77.0156V77.3086C142.451 77.6553 142.497 77.9775 142.59 78.2754C142.688 78.5684 142.829 78.8247 143.015 79.0444C143.2 79.2642 143.425 79.4375 143.688 79.5645C143.952 79.6865 144.252 79.7476 144.589 79.7476C145.014 79.7476 145.393 79.6621 145.725 79.4912C146.057 79.3203 146.345 79.0786 146.589 78.7661L147.519 79.667C147.348 79.916 147.126 80.1553 146.853 80.3848C146.579 80.6094 146.245 80.7925 145.849 80.9341C145.458 81.0757 145.004 81.1465 144.487 81.1465ZM150.925 69.75V81H149.152V69.75H150.925ZM157.692 79.3594V69.75H159.465V81H157.861L157.692 79.3594ZM152.536 77.1255V76.9717C152.536 76.3711 152.607 75.8242 152.749 75.3311C152.89 74.833 153.095 74.4058 153.364 74.0493C153.632 73.688 153.959 73.4121 154.345 73.2217C154.731 73.0264 155.166 72.9287 155.649 72.9287C156.127 72.9287 156.547 73.0215 156.909 73.207C157.27 73.3926 157.578 73.6587 157.832 74.0054C158.085 74.3472 158.288 74.7573 158.439 75.2358C158.591 75.7095 158.698 76.2368 158.762 76.8179V77.3086C158.698 77.875 158.591 78.3926 158.439 78.8613C158.288 79.3301 158.085 79.7354 157.832 80.0771C157.578 80.4189 157.268 80.6826 156.901 80.8682C156.54 81.0537 156.118 81.1465 155.634 81.1465C155.156 81.1465 154.724 81.0464 154.338 80.8462C153.957 80.646 153.632 80.3652 153.364 80.0039C153.095 79.6426 152.89 79.2178 152.749 78.7295C152.607 78.2363 152.536 77.7017 152.536 77.1255ZM154.301 76.9717V77.1255C154.301 77.4868 154.333 77.8237 154.396 78.1362C154.465 78.4487 154.57 78.7246 154.711 78.9639C154.853 79.1982 155.036 79.3838 155.261 79.5205C155.49 79.6523 155.764 79.7183 156.081 79.7183C156.481 79.7183 156.811 79.6304 157.07 79.4546C157.329 79.2788 157.531 79.042 157.678 78.7441C157.829 78.4414 157.932 78.1045 157.985 77.7334V76.4077C157.956 76.1196 157.895 75.8511 157.802 75.6021C157.714 75.353 157.595 75.1357 157.443 74.9502C157.292 74.7598 157.104 74.6133 156.879 74.5107C156.66 74.4033 156.398 74.3496 156.096 74.3496C155.773 74.3496 155.5 74.418 155.275 74.5547C155.051 74.6914 154.865 74.8794 154.719 75.1187C154.577 75.3579 154.472 75.6362 154.404 75.9536C154.335 76.271 154.301 76.6104 154.301 76.9717ZM165.053 69.75H166.818V79.3081L166.65 81H165.053V69.75ZM171.989 76.9644V77.1182C171.989 77.7041 171.923 78.2437 171.792 78.7368C171.665 79.2251 171.469 79.6499 171.206 80.0112C170.947 80.3726 170.625 80.6533 170.239 80.8535C169.858 81.0488 169.416 81.1465 168.913 81.1465C168.42 81.1465 167.99 81.0537 167.624 80.8682C167.258 80.6826 166.95 80.4189 166.701 80.0771C166.457 79.7354 166.259 79.3276 166.108 78.854C165.957 78.3804 165.849 77.8579 165.786 77.2866V76.7959C165.849 76.2197 165.957 75.6973 166.108 75.2285C166.259 74.7549 166.457 74.3472 166.701 74.0054C166.95 73.6587 167.255 73.3926 167.617 73.207C167.983 73.0215 168.41 72.9287 168.898 72.9287C169.406 72.9287 169.853 73.0264 170.239 73.2217C170.629 73.417 170.954 73.6953 171.213 74.0566C171.472 74.4131 171.665 74.8379 171.792 75.3311C171.923 75.8242 171.989 76.3687 171.989 76.9644ZM170.224 77.1182V76.9644C170.224 76.6079 170.195 76.2734 170.136 75.9609C170.078 75.6436 169.98 75.3652 169.843 75.126C169.711 74.8867 169.531 74.6987 169.301 74.562C169.077 74.4204 168.796 74.3496 168.459 74.3496C168.146 74.3496 167.878 74.4033 167.653 74.5107C167.429 74.6182 167.241 74.7646 167.089 74.9502C166.938 75.1357 166.818 75.3506 166.73 75.5947C166.647 75.8389 166.591 76.1025 166.562 76.3857V77.7114C166.606 78.0776 166.699 78.4146 166.84 78.7222C166.987 79.0249 167.192 79.269 167.456 79.4546C167.719 79.6353 168.059 79.7256 168.474 79.7256C168.801 79.7256 169.077 79.6597 169.301 79.5278C169.526 79.396 169.704 79.2129 169.836 78.9785C169.973 78.7393 170.07 78.4609 170.129 78.1436C170.192 77.8262 170.224 77.4844 170.224 77.1182ZM175.373 69.75V81H173.601V69.75H175.373ZM176.97 77.1255V76.957C176.97 76.3857 177.053 75.856 177.219 75.3677C177.385 74.8745 177.624 74.4473 177.937 74.0859C178.254 73.7197 178.64 73.4365 179.094 73.2363C179.553 73.0312 180.07 72.9287 180.646 72.9287C181.228 72.9287 181.745 73.0312 182.199 73.2363C182.658 73.4365 183.046 73.7197 183.364 74.0859C183.681 74.4473 183.923 74.8745 184.089 75.3677C184.255 75.856 184.338 76.3857 184.338 76.957V77.1255C184.338 77.6968 184.255 78.2266 184.089 78.7148C183.923 79.2031 183.681 79.6304 183.364 79.9966C183.046 80.3579 182.661 80.6411 182.207 80.8462C181.752 81.0464 181.237 81.1465 180.661 81.1465C180.08 81.1465 179.56 81.0464 179.101 80.8462C178.647 80.6411 178.261 80.3579 177.944 79.9966C177.626 79.6304 177.385 79.2031 177.219 78.7148C177.053 78.2266 176.97 77.6968 176.97 77.1255ZM178.735 76.957V77.1255C178.735 77.4819 178.771 77.8188 178.845 78.1362C178.918 78.4536 179.033 78.7319 179.189 78.9712C179.345 79.2104 179.545 79.3984 179.79 79.5352C180.034 79.6719 180.324 79.7402 180.661 79.7402C180.988 79.7402 181.271 79.6719 181.511 79.5352C181.755 79.3984 181.955 79.2104 182.111 78.9712C182.268 78.7319 182.382 78.4536 182.456 78.1362C182.534 77.8188 182.573 77.4819 182.573 77.1255V76.957C182.573 76.6055 182.534 76.2734 182.456 75.9609C182.382 75.6436 182.265 75.3628 182.104 75.1187C181.948 74.8745 181.748 74.6841 181.503 74.5474C181.264 74.4058 180.979 74.335 180.646 74.335C180.314 74.335 180.026 74.4058 179.782 74.5474C179.543 74.6841 179.345 74.8745 179.189 75.1187C179.033 75.3628 178.918 75.6436 178.845 75.9609C178.771 76.2734 178.735 76.6055 178.735 76.957ZM189.055 79.7402C189.343 79.7402 189.602 79.6841 189.831 79.5718C190.065 79.4546 190.253 79.2935 190.395 79.0884C190.542 78.8833 190.622 78.6465 190.637 78.3779H192.299C192.29 78.8906 192.138 79.3569 191.845 79.7769C191.552 80.1968 191.164 80.5312 190.681 80.7803C190.197 81.0244 189.663 81.1465 189.077 81.1465C188.471 81.1465 187.944 81.0439 187.495 80.8389C187.045 80.6289 186.672 80.3408 186.374 79.9746C186.076 79.6084 185.852 79.186 185.7 78.7075C185.554 78.229 185.48 77.7163 185.48 77.1694V76.9131C185.48 76.3662 185.554 75.8535 185.7 75.375C185.852 74.8916 186.076 74.4668 186.374 74.1006C186.672 73.7344 187.045 73.4487 187.495 73.2437C187.944 73.0337 188.469 72.9287 189.069 72.9287C189.704 72.9287 190.261 73.0557 190.739 73.3096C191.218 73.5586 191.594 73.9077 191.867 74.3569C192.146 74.8013 192.29 75.3188 192.299 75.9097H190.637C190.622 75.6167 190.549 75.353 190.417 75.1187C190.29 74.8794 190.109 74.689 189.875 74.5474C189.646 74.4058 189.37 74.335 189.047 74.335C188.691 74.335 188.396 74.4082 188.161 74.5547C187.927 74.6963 187.744 74.8916 187.612 75.1406C187.48 75.3848 187.385 75.6606 187.326 75.9683C187.272 76.271 187.246 76.5859 187.246 76.9131V77.1694C187.246 77.4966 187.272 77.814 187.326 78.1216C187.38 78.4292 187.473 78.7051 187.604 78.9492C187.741 79.1885 187.927 79.3813 188.161 79.5278C188.396 79.6694 188.693 79.7402 189.055 79.7402ZM195.434 69.75V81H193.662V69.75H195.434ZM200.356 73.0752L196.906 76.8984L195.017 78.832L194.555 77.3379L195.983 75.5728L198.225 73.0752H200.356ZM198.605 81L196.035 77.2793L197.148 76.0415L200.649 81H198.605ZM207.102 69.75V81H205.329V69.75H207.102ZM213.503 79.4106V75.6313C213.503 75.3481 213.452 75.104 213.349 74.8989C213.247 74.6938 213.09 74.5352 212.88 74.4229C212.675 74.3105 212.417 74.2544 212.104 74.2544C211.816 74.2544 211.567 74.3032 211.357 74.4009C211.147 74.4985 210.983 74.6304 210.866 74.7964C210.749 74.9624 210.69 75.1504 210.69 75.3604H208.933C208.933 75.0479 209.008 74.7451 209.16 74.4521C209.311 74.1592 209.531 73.8979 209.819 73.6685C210.107 73.439 210.451 73.2583 210.852 73.1265C211.252 72.9946 211.701 72.9287 212.199 72.9287C212.795 72.9287 213.322 73.0288 213.781 73.229C214.245 73.4292 214.609 73.7319 214.873 74.1372C215.141 74.5376 215.275 75.0405 215.275 75.646V79.1689C215.275 79.5303 215.3 79.855 215.349 80.1431C215.402 80.4263 215.478 80.6729 215.576 80.8828V81H213.767C213.684 80.8096 213.618 80.5679 213.569 80.2749C213.525 79.9771 213.503 79.689 213.503 79.4106ZM213.759 76.1807L213.774 77.272H212.507C212.18 77.272 211.892 77.3037 211.643 77.3672C211.394 77.4258 211.186 77.5137 211.02 77.6309C210.854 77.748 210.729 77.8896 210.646 78.0557C210.563 78.2217 210.522 78.4097 210.522 78.6196C210.522 78.8296 210.571 79.0225 210.668 79.1982C210.766 79.3691 210.908 79.5034 211.093 79.6011C211.284 79.6987 211.513 79.7476 211.782 79.7476C212.143 79.7476 212.458 79.6743 212.727 79.5278C213 79.3765 213.215 79.1934 213.371 78.9785C213.527 78.7588 213.61 78.5513 213.62 78.356L214.191 79.1396C214.133 79.3398 214.033 79.5547 213.891 79.7842C213.75 80.0137 213.564 80.2334 213.334 80.4434C213.11 80.6484 212.839 80.8169 212.521 80.9487C212.209 81.0806 211.848 81.1465 211.438 81.1465C210.92 81.1465 210.458 81.0439 210.053 80.8389C209.648 80.6289 209.331 80.3481 209.101 79.9966C208.872 79.6401 208.757 79.2373 208.757 78.7881C208.757 78.3682 208.835 77.9971 208.991 77.6748C209.152 77.3477 209.387 77.0742 209.694 76.8545C210.007 76.6348 210.388 76.4688 210.837 76.3564C211.286 76.2393 211.799 76.1807 212.375 76.1807H213.759ZM217.128 69.75H218.894V79.3081L218.725 81H217.128V69.75ZM224.064 76.9644V77.1182C224.064 77.7041 223.999 78.2437 223.867 78.7368C223.74 79.2251 223.544 79.6499 223.281 80.0112C223.022 80.3726 222.7 80.6533 222.314 80.8535C221.933 81.0488 221.491 81.1465 220.988 81.1465C220.495 81.1465 220.065 81.0537 219.699 80.8682C219.333 80.6826 219.025 80.4189 218.776 80.0771C218.532 79.7354 218.334 79.3276 218.183 78.854C218.032 78.3804 217.924 77.8579 217.861 77.2866V76.7959C217.924 76.2197 218.032 75.6973 218.183 75.2285C218.334 74.7549 218.532 74.3472 218.776 74.0054C219.025 73.6587 219.331 73.3926 219.692 73.207C220.058 73.0215 220.485 72.9287 220.974 72.9287C221.481 72.9287 221.928 73.0264 222.314 73.2217C222.705 73.417 223.029 73.6953 223.288 74.0566C223.547 74.4131 223.74 74.8379 223.867 75.3311C223.999 75.8242 224.064 76.3687 224.064 76.9644ZM222.299 77.1182V76.9644C222.299 76.6079 222.27 76.2734 222.211 75.9609C222.153 75.6436 222.055 75.3652 221.918 75.126C221.787 74.8867 221.606 74.6987 221.376 74.562C221.152 74.4204 220.871 74.3496 220.534 74.3496C220.222 74.3496 219.953 74.4033 219.729 74.5107C219.504 74.6182 219.316 74.7646 219.165 74.9502C219.013 75.1357 218.894 75.3506 218.806 75.5947C218.723 75.8389 218.667 76.1025 218.637 76.3857V77.7114C218.681 78.0776 218.774 78.4146 218.916 78.7222C219.062 79.0249 219.267 79.269 219.531 79.4546C219.794 79.6353 220.134 79.7256 220.549 79.7256C220.876 79.7256 221.152 79.6597 221.376 79.5278C221.601 79.396 221.779 79.2129 221.911 78.9785C222.048 78.7393 222.146 78.4609 222.204 78.1436C222.268 77.8262 222.299 77.4844 222.299 77.1182ZM229.052 81.1465C228.466 81.1465 227.937 81.0513 227.463 80.8608C226.994 80.6655 226.594 80.3945 226.262 80.0479C225.935 79.7012 225.683 79.2935 225.507 78.8247C225.332 78.356 225.244 77.8506 225.244 77.3086V77.0156C225.244 76.3955 225.334 75.834 225.515 75.3311C225.695 74.8281 225.947 74.3984 226.269 74.042C226.591 73.6807 226.972 73.4048 227.412 73.2144C227.851 73.0239 228.327 72.9287 228.84 72.9287C229.406 72.9287 229.902 73.0239 230.327 73.2144C230.751 73.4048 231.103 73.6733 231.381 74.02C231.665 74.3618 231.875 74.7695 232.011 75.2432C232.153 75.7168 232.224 76.2393 232.224 76.8105V77.5649H226.101V76.2979H230.48V76.1587C230.471 75.8413 230.407 75.5435 230.29 75.2651C230.178 74.9868 230.004 74.7622 229.77 74.5913C229.536 74.4204 229.223 74.335 228.833 74.335C228.54 74.335 228.278 74.3984 228.049 74.5254C227.824 74.6475 227.636 74.8257 227.485 75.0601C227.333 75.2944 227.216 75.5776 227.133 75.9097C227.055 76.2368 227.016 76.6055 227.016 77.0156V77.3086C227.016 77.6553 227.062 77.9775 227.155 78.2754C227.253 78.5684 227.395 78.8247 227.58 79.0444C227.766 79.2642 227.99 79.4375 228.254 79.5645C228.518 79.6865 228.818 79.7476 229.155 79.7476C229.58 79.7476 229.958 79.6621 230.29 79.4912C230.622 79.3203 230.91 79.0786 231.154 78.7661L232.084 79.667C231.914 79.916 231.691 80.1553 231.418 80.3848C231.145 80.6094 230.81 80.7925 230.415 80.9341C230.024 81.0757 229.57 81.1465 229.052 81.1465ZM235.49 69.75V81H233.718V69.75H235.49Z" fill="#1A1A1A"/>
<path d="M318.298 70.7578V80H317.073V70.7578H318.298ZM322.17 74.9155V75.9185H318.031V74.9155H322.17ZM322.798 70.7578V71.7607H318.031V70.7578H322.798ZM325.356 73.1318V80H324.176V73.1318H325.356ZM324.087 71.3101C324.087 71.1196 324.144 70.9588 324.258 70.8276C324.377 70.6965 324.55 70.6309 324.779 70.6309C325.003 70.6309 325.174 70.6965 325.293 70.8276C325.416 70.9588 325.477 71.1196 325.477 71.3101C325.477 71.492 325.416 71.6486 325.293 71.7798C325.174 71.9067 325.003 71.9702 324.779 71.9702C324.55 71.9702 324.377 71.9067 324.258 71.7798C324.144 71.6486 324.087 71.492 324.087 71.3101ZM330.092 80.127C329.614 80.127 329.18 80.0465 328.791 79.8857C328.405 79.7207 328.073 79.4901 327.794 79.1938C327.519 78.8976 327.307 78.5464 327.159 78.1401C327.011 77.7339 326.937 77.2896 326.937 76.8071V76.5405C326.937 75.9819 327.02 75.4847 327.185 75.0488C327.35 74.6087 327.574 74.2363 327.857 73.9316C328.141 73.627 328.463 73.3963 328.822 73.2397C329.182 73.0832 329.554 73.0049 329.939 73.0049C330.43 73.0049 330.854 73.0895 331.209 73.2588C331.569 73.4281 331.863 73.665 332.091 73.9697C332.32 74.2702 332.489 74.6257 332.599 75.0361C332.709 75.4424 332.764 75.8867 332.764 76.3691V76.896H327.635V75.9375H331.59V75.8486C331.573 75.5439 331.509 75.2477 331.399 74.96C331.294 74.6722 331.124 74.4352 330.892 74.249C330.659 74.0628 330.341 73.9697 329.939 73.9697C329.673 73.9697 329.427 74.0269 329.203 74.1411C328.979 74.2511 328.786 74.4162 328.625 74.6362C328.465 74.8563 328.34 75.125 328.251 75.4424C328.162 75.7598 328.118 76.1258 328.118 76.5405V76.8071C328.118 77.133 328.162 77.4398 328.251 77.7275C328.344 78.0111 328.477 78.2607 328.651 78.4766C328.829 78.6924 329.042 78.8617 329.292 78.9844C329.546 79.1071 329.834 79.1685 330.155 79.1685C330.57 79.1685 330.921 79.0838 331.209 78.9146C331.497 78.7453 331.749 78.5189 331.964 78.2354L332.675 78.8003C332.527 79.0246 332.339 79.2383 332.11 79.4414C331.882 79.6445 331.6 79.8096 331.266 79.9365C330.936 80.0635 330.545 80.127 330.092 80.127ZM335.411 70.25V80H334.23V70.25H335.411ZM341.625 78.667V70.25H342.806V80H341.727L341.625 78.667ZM337.004 76.6421V76.5088C337.004 75.984 337.068 75.508 337.195 75.0806C337.326 74.6489 337.51 74.2786 337.747 73.9697C337.988 73.6608 338.274 73.4238 338.604 73.2588C338.938 73.0895 339.311 73.0049 339.721 73.0049C340.153 73.0049 340.529 73.0811 340.851 73.2334C341.177 73.3815 341.452 73.5994 341.676 73.8872C341.905 74.1707 342.085 74.5135 342.216 74.9155C342.347 75.3175 342.438 75.7725 342.489 76.2803V76.8643C342.442 77.3678 342.351 77.8206 342.216 78.2227C342.085 78.6247 341.905 78.9674 341.676 79.251C341.452 79.5345 341.177 79.7524 340.851 79.9048C340.525 80.0529 340.144 80.127 339.708 80.127C339.306 80.127 338.938 80.0402 338.604 79.8667C338.274 79.6932 337.988 79.4499 337.747 79.1367C337.51 78.8236 337.326 78.4554 337.195 78.0322C337.068 77.6048 337.004 77.1414 337.004 76.6421ZM338.185 76.5088V76.6421C338.185 76.9849 338.219 77.3065 338.287 77.6069C338.359 77.9074 338.469 78.1719 338.617 78.4004C338.765 78.6289 338.953 78.8088 339.182 78.9399C339.41 79.0669 339.683 79.1304 340 79.1304C340.39 79.1304 340.709 79.0479 340.959 78.8828C341.213 78.7178 341.416 78.4998 341.568 78.229C341.721 77.9582 341.839 77.6641 341.924 77.3467V75.8169C341.873 75.5841 341.799 75.3599 341.702 75.144C341.609 74.924 341.486 74.7293 341.333 74.5601C341.185 74.3866 341.001 74.249 340.781 74.1475C340.565 74.0459 340.309 73.9951 340.013 73.9951C339.692 73.9951 339.414 74.0628 339.182 74.1982C338.953 74.3294 338.765 74.5114 338.617 74.7441C338.469 74.9727 338.359 75.2393 338.287 75.5439C338.219 75.8444 338.185 76.166 338.185 76.5088ZM347.853 70.25H349.033V78.667L348.932 80H347.853V70.25ZM353.673 76.5088V76.6421C353.673 77.1414 353.614 77.6048 353.496 78.0322C353.377 78.4554 353.204 78.8236 352.975 79.1367C352.747 79.4499 352.467 79.6932 352.137 79.8667C351.807 80.0402 351.428 80.127 351.001 80.127C350.565 80.127 350.182 80.0529 349.852 79.9048C349.526 79.7524 349.251 79.5345 349.027 79.251C348.803 78.9674 348.623 78.6247 348.487 78.2227C348.356 77.8206 348.265 77.3678 348.214 76.8643V76.2803C348.265 75.7725 348.356 75.3175 348.487 74.9155C348.623 74.5135 348.803 74.1707 349.027 73.8872C349.251 73.5994 349.526 73.3815 349.852 73.2334C350.178 73.0811 350.557 73.0049 350.988 73.0049C351.42 73.0049 351.803 73.0895 352.137 73.2588C352.472 73.4238 352.751 73.6608 352.975 73.9697C353.204 74.2786 353.377 74.6489 353.496 75.0806C353.614 75.508 353.673 75.984 353.673 76.5088ZM352.493 76.6421V76.5088C352.493 76.166 352.461 75.8444 352.397 75.5439C352.334 75.2393 352.232 74.9727 352.093 74.7441C351.953 74.5114 351.769 74.3294 351.541 74.1982C351.312 74.0628 351.031 73.9951 350.696 73.9951C350.4 73.9951 350.142 74.0459 349.922 74.1475C349.706 74.249 349.522 74.3866 349.37 74.5601C349.217 74.7293 349.092 74.924 348.995 75.144C348.902 75.3599 348.832 75.5841 348.786 75.8169V77.3467C348.853 77.6429 348.963 77.9285 349.116 78.2036C349.272 78.4744 349.48 78.6966 349.738 78.8701C350 79.0436 350.324 79.1304 350.709 79.1304C351.026 79.1304 351.297 79.0669 351.521 78.9399C351.75 78.8088 351.934 78.6289 352.074 78.4004C352.218 78.1719 352.323 77.9074 352.391 77.6069C352.459 77.3065 352.493 76.9849 352.493 76.6421ZM356.435 70.25V80H355.254V70.25H356.435ZM358.009 76.6421V76.4961C358.009 76.001 358.081 75.5418 358.225 75.1187C358.368 74.6912 358.576 74.321 358.847 74.0078C359.118 73.6904 359.445 73.445 359.831 73.2715C360.216 73.0938 360.647 73.0049 361.125 73.0049C361.608 73.0049 362.042 73.0938 362.427 73.2715C362.816 73.445 363.146 73.6904 363.417 74.0078C363.692 74.321 363.902 74.6912 364.045 75.1187C364.189 75.5418 364.261 76.001 364.261 76.4961V76.6421C364.261 77.1372 364.189 77.5964 364.045 78.0195C363.902 78.4427 363.692 78.813 363.417 79.1304C363.146 79.4435 362.818 79.689 362.433 79.8667C362.052 80.0402 361.621 80.127 361.138 80.127C360.656 80.127 360.222 80.0402 359.837 79.8667C359.452 79.689 359.122 79.4435 358.847 79.1304C358.576 78.813 358.368 78.4427 358.225 78.0195C358.081 77.5964 358.009 77.1372 358.009 76.6421ZM359.183 76.4961V76.6421C359.183 76.9849 359.223 77.3086 359.304 77.6133C359.384 77.9137 359.505 78.1803 359.666 78.4131C359.831 78.6458 360.036 78.8299 360.281 78.9653C360.527 79.0965 360.812 79.1621 361.138 79.1621C361.46 79.1621 361.741 79.0965 361.982 78.9653C362.228 78.8299 362.431 78.6458 362.592 78.4131C362.753 78.1803 362.873 77.9137 362.954 77.6133C363.038 77.3086 363.081 76.9849 363.081 76.6421V76.4961C363.081 76.1576 363.038 75.8381 362.954 75.5376C362.873 75.2329 362.75 74.9642 362.585 74.7314C362.425 74.4945 362.222 74.3083 361.976 74.1729C361.735 74.0374 361.451 73.9697 361.125 73.9697C360.804 73.9697 360.52 74.0374 360.275 74.1729C360.034 74.3083 359.831 74.4945 359.666 74.7314C359.505 74.9642 359.384 75.2329 359.304 75.5376C359.223 75.8381 359.183 76.1576 359.183 76.4961ZM368.482 79.1621C368.762 79.1621 369.02 79.105 369.257 78.9907C369.494 78.8765 369.688 78.7199 369.841 78.521C369.993 78.3179 370.08 78.0872 370.101 77.8291H371.218C371.197 78.2354 371.06 78.6141 370.806 78.9653C370.556 79.3123 370.228 79.5938 369.822 79.8096C369.416 80.0212 368.969 80.127 368.482 80.127C367.966 80.127 367.515 80.036 367.13 79.854C366.75 79.672 366.432 79.4224 366.178 79.105C365.929 78.7876 365.74 78.4237 365.613 78.0132C365.491 77.5985 365.429 77.1605 365.429 76.6992V76.4326C365.429 75.9714 365.491 75.5355 365.613 75.125C365.74 74.7103 365.929 74.3442 366.178 74.0269C366.432 73.7095 366.75 73.4598 367.13 73.2778C367.515 73.0959 367.966 73.0049 368.482 73.0049C369.02 73.0049 369.49 73.1149 369.892 73.335C370.294 73.5508 370.609 73.847 370.837 74.2236C371.07 74.596 371.197 75.0192 371.218 75.4932H370.101C370.08 75.2096 370 74.9536 369.86 74.7251C369.724 74.4966 369.538 74.3146 369.301 74.1792C369.069 74.0396 368.796 73.9697 368.482 73.9697C368.123 73.9697 367.82 74.0417 367.575 74.1855C367.333 74.3252 367.141 74.5156 366.997 74.7568C366.857 74.9938 366.756 75.2583 366.692 75.5503C366.633 75.8381 366.604 76.1322 366.604 76.4326V76.6992C366.604 76.9997 366.633 77.2959 366.692 77.5879C366.752 77.8799 366.851 78.1444 366.991 78.3813C367.135 78.6183 367.327 78.8088 367.568 78.9526C367.814 79.0923 368.118 79.1621 368.482 79.1621ZM373.719 70.25V80H372.539V70.25H373.719ZM377.915 73.1318L374.919 76.3374L373.243 78.0767L373.148 76.8262L374.348 75.3916L376.48 73.1318H377.915ZM376.842 80L374.392 76.7246L375.001 75.6772L378.226 80H376.842ZM383.526 70.25V80H382.352V70.25H383.526ZM383.247 76.3057L382.758 76.2866C382.763 75.8169 382.832 75.3831 382.968 74.9854C383.103 74.5833 383.294 74.2342 383.539 73.938C383.785 73.6418 384.076 73.4132 384.415 73.2524C384.758 73.0874 385.137 73.0049 385.551 73.0049C385.89 73.0049 386.194 73.0514 386.465 73.1445C386.736 73.2334 386.967 73.3773 387.157 73.5762C387.352 73.7751 387.5 74.0332 387.602 74.3506C387.703 74.6637 387.754 75.0467 387.754 75.4995V80H386.573V75.4868C386.573 75.1271 386.52 74.8394 386.415 74.6235C386.309 74.4035 386.154 74.2448 385.951 74.1475C385.748 74.0459 385.498 73.9951 385.202 73.9951C384.91 73.9951 384.644 74.0565 384.402 74.1792C384.165 74.3019 383.96 74.4712 383.787 74.687C383.617 74.9028 383.484 75.1504 383.387 75.4297C383.294 75.7048 383.247 75.9967 383.247 76.3057ZM392.362 80.127C391.884 80.127 391.45 80.0465 391.061 79.8857C390.676 79.7207 390.344 79.4901 390.064 79.1938C389.789 78.8976 389.578 78.5464 389.43 78.1401C389.282 77.7339 389.208 77.2896 389.208 76.8071V76.5405C389.208 75.9819 389.29 75.4847 389.455 75.0488C389.62 74.6087 389.844 74.2363 390.128 73.9316C390.411 73.627 390.733 73.3963 391.093 73.2397C391.452 73.0832 391.825 73.0049 392.21 73.0049C392.701 73.0049 393.124 73.0895 393.479 73.2588C393.839 73.4281 394.133 73.665 394.362 73.9697C394.59 74.2702 394.76 74.6257 394.87 75.0361C394.98 75.4424 395.035 75.8867 395.035 76.3691V76.896H389.906V75.9375H393.86V75.8486C393.843 75.5439 393.78 75.2477 393.67 74.96C393.564 74.6722 393.395 74.4352 393.162 74.249C392.929 74.0628 392.612 73.9697 392.21 73.9697C391.943 73.9697 391.698 74.0269 391.474 74.1411C391.249 74.2511 391.057 74.4162 390.896 74.6362C390.735 74.8563 390.61 75.125 390.521 75.4424C390.433 75.7598 390.388 76.1258 390.388 76.5405V76.8071C390.388 77.133 390.433 77.4398 390.521 77.7275C390.615 78.0111 390.748 78.2607 390.921 78.4766C391.099 78.6924 391.313 78.8617 391.562 78.9844C391.816 79.1071 392.104 79.1685 392.426 79.1685C392.84 79.1685 393.192 79.0838 393.479 78.9146C393.767 78.7453 394.019 78.5189 394.235 78.2354L394.946 78.8003C394.798 79.0246 394.609 79.2383 394.381 79.4414C394.152 79.6445 393.871 79.8096 393.537 79.9365C393.207 80.0635 392.815 80.127 392.362 80.127ZM397.58 74.4521V82.6406H396.399V73.1318H397.479L397.58 74.4521ZM402.208 76.5088V76.6421C402.208 77.1414 402.148 77.6048 402.03 78.0322C401.911 78.4554 401.738 78.8236 401.509 79.1367C401.285 79.4499 401.008 79.6932 400.678 79.8667C400.348 80.0402 399.969 80.127 399.542 80.127C399.106 80.127 398.721 80.055 398.386 79.9111C398.052 79.7673 397.768 79.5578 397.536 79.2827C397.303 79.0076 397.117 78.6776 396.977 78.2925C396.842 77.9074 396.749 77.4736 396.698 76.9912V76.2803C396.749 75.7725 396.844 75.3175 396.983 74.9155C397.123 74.5135 397.307 74.1707 397.536 73.8872C397.768 73.5994 398.05 73.3815 398.38 73.2334C398.71 73.0811 399.091 73.0049 399.522 73.0049C399.954 73.0049 400.337 73.0895 400.671 73.2588C401.006 73.4238 401.287 73.6608 401.516 73.9697C401.744 74.2786 401.916 74.6489 402.03 75.0806C402.148 75.508 402.208 75.984 402.208 76.5088ZM401.027 76.6421V76.5088C401.027 76.166 400.991 75.8444 400.919 75.5439C400.847 75.2393 400.735 74.9727 400.583 74.7441C400.434 74.5114 400.244 74.3294 400.011 74.1982C399.778 74.0628 399.501 73.9951 399.18 73.9951C398.883 73.9951 398.625 74.0459 398.405 74.1475C398.189 74.249 398.005 74.3866 397.853 74.5601C397.701 74.7293 397.576 74.924 397.479 75.144C397.385 75.3599 397.316 75.5841 397.269 75.8169V77.4609C397.354 77.7572 397.472 78.0365 397.625 78.2988C397.777 78.557 397.98 78.7664 398.234 78.9272C398.488 79.0838 398.807 79.1621 399.192 79.1621C399.51 79.1621 399.783 79.0965 400.011 78.9653C400.244 78.8299 400.434 78.6458 400.583 78.4131C400.735 78.1803 400.847 77.9137 400.919 77.6133C400.991 77.3086 401.027 76.9849 401.027 76.6421ZM409.806 73.1318V74.0332H406.092V73.1318H409.806ZM407.349 71.4624H408.523V78.2988C408.523 78.5316 408.559 78.7072 408.631 78.8257C408.703 78.9442 408.796 79.0225 408.911 79.0605C409.025 79.0986 409.148 79.1177 409.279 79.1177C409.376 79.1177 409.478 79.1092 409.583 79.0923C409.694 79.0711 409.776 79.0542 409.831 79.0415L409.837 80C409.744 80.0296 409.622 80.0571 409.469 80.0825C409.321 80.1121 409.141 80.127 408.93 80.127C408.642 80.127 408.377 80.0698 408.136 79.9556C407.895 79.8413 407.702 79.6509 407.559 79.3843C407.419 79.1134 407.349 78.7495 407.349 78.2925V71.4624ZM414.033 80.127C413.555 80.127 413.121 80.0465 412.732 79.8857C412.347 79.7207 412.015 79.4901 411.735 79.1938C411.46 78.8976 411.249 78.5464 411.101 78.1401C410.952 77.7339 410.878 77.2896 410.878 76.8071V76.5405C410.878 75.9819 410.961 75.4847 411.126 75.0488C411.291 74.6087 411.515 74.2363 411.799 73.9316C412.082 73.627 412.404 73.3963 412.764 73.2397C413.123 73.0832 413.496 73.0049 413.881 73.0049C414.372 73.0049 414.795 73.0895 415.15 73.2588C415.51 73.4281 415.804 73.665 416.033 73.9697C416.261 74.2702 416.431 74.6257 416.541 75.0361C416.651 75.4424 416.706 75.8867 416.706 76.3691V76.896H411.577V75.9375H415.531V75.8486C415.514 75.5439 415.451 75.2477 415.341 74.96C415.235 74.6722 415.066 74.4352 414.833 74.249C414.6 74.0628 414.283 73.9697 413.881 73.9697C413.614 73.9697 413.369 74.0269 413.145 74.1411C412.92 74.2511 412.728 74.4162 412.567 74.6362C412.406 74.8563 412.281 75.125 412.192 75.4424C412.104 75.7598 412.059 76.1258 412.059 76.5405V76.8071C412.059 77.133 412.104 77.4398 412.192 77.7275C412.285 78.0111 412.419 78.2607 412.592 78.4766C412.77 78.6924 412.984 78.8617 413.233 78.9844C413.487 79.1071 413.775 79.1685 414.097 79.1685C414.511 79.1685 414.863 79.0838 415.15 78.9146C415.438 78.7453 415.69 78.5189 415.906 78.2354L416.617 78.8003C416.469 79.0246 416.28 79.2383 416.052 79.4414C415.823 79.6445 415.542 79.8096 415.208 79.9365C414.877 80.0635 414.486 80.127 414.033 80.127ZM418.87 73.1318L420.375 75.6328L421.898 73.1318H423.275L421.028 76.5215L423.345 80H421.987L420.4 77.4229L418.813 80H417.448L419.759 76.5215L417.518 73.1318H418.87ZM427.401 73.1318V74.0332H423.688V73.1318H427.401ZM424.945 71.4624H426.119V78.2988C426.119 78.5316 426.155 78.7072 426.227 78.8257C426.299 78.9442 426.392 79.0225 426.506 79.0605C426.621 79.0986 426.743 79.1177 426.875 79.1177C426.972 79.1177 427.073 79.1092 427.179 79.0923C427.289 79.0711 427.372 79.0542 427.427 79.0415L427.433 80C427.34 80.0296 427.217 80.0571 427.065 80.0825C426.917 80.1121 426.737 80.127 426.525 80.127C426.238 80.127 425.973 80.0698 425.732 79.9556C425.491 79.8413 425.298 79.6509 425.154 79.3843C425.015 79.1134 424.945 78.7495 424.945 78.2925V71.4624Z" fill="#737373"/>
<path d="M553.276 76C553.276 74.5262 554.471 73.375 556 73.375C557.504 73.375 558.724 74.5262 558.724 76C558.724 77.4492 557.504 78.625 556 78.625C554.471 78.625 553.276 77.4492 553.276 76ZM556 74.6875C555.248 74.6875 554.638 75.2754 554.638 76C554.638 76.7246 555.248 77.3125 556 77.3125C556.752 77.3125 557.362 76.7246 557.362 76C557.362 75.2754 556.752 74.6875 556 74.6875ZM557.053 69C557.683 69 558.231 69.4154 558.378 70.0046L558.6 70.8925C558.841 71.0059 559.071 71.1347 559.289 71.2772L560.2 71.0188C560.804 70.8473 561.451 71.0964 561.766 71.6214L562.819 73.3777C563.131 73.9027 563.032 74.5672 562.578 74.9855L561.888 75.5926C561.897 75.743 561.903 75.8715 561.903 76C561.903 76.1285 561.897 76.257 561.888 76.3828L562.578 77.0145C563.032 77.4328 563.131 78.0973 562.819 78.6223L561.766 80.3777C561.451 80.9027 560.804 81.1516 560.2 80.982L559.289 80.7223C559.071 80.8645 558.841 80.993 558.6 81.1078L558.378 81.9965C558.231 82.5844 557.683 83 557.053 83H554.947C554.317 83 553.77 82.5844 553.622 81.9965L553.401 81.1078C553.16 80.993 552.93 80.8645 552.711 80.7223L551.775 80.982C551.197 81.1516 550.55 80.9027 550.235 80.3777L549.183 78.6223C548.868 78.0973 548.967 77.4328 549.423 77.0145L550.111 76.3828C550.102 76.257 550.098 76.1285 550.098 75.9754C550.098 75.8715 550.102 75.743 550.111 75.5926L549.423 74.9855C548.967 74.5672 548.868 73.9027 549.183 73.3777L550.235 71.6214C550.55 71.0964 551.197 70.8473 551.775 71.0188L552.711 71.2772C552.93 71.1347 553.16 71.0059 553.401 70.8925L553.622 70.0046C553.77 69.4151 554.317 69 554.947 69L557.053 69ZM554.567 71.8328L554.249 71.9613C553.889 72.1063 553.554 72.2949 553.25 72.5191L552.975 72.7215L551.415 72.2785L550.362 74.034L551.54 75.1141L551.496 75.4422C551.472 75.6254 551.46 75.8113 551.46 76C551.46 76.1887 551.472 76.3746 551.496 76.5578L551.54 76.8859L550.362 77.966L551.415 79.7215L552.975 79.2785L553.25 79.4809C553.554 79.7051 553.889 79.8938 554.249 80.0387L554.567 80.1672L554.947 81.6875H557.053L557.433 80.1672L557.751 80.0387C558.111 79.8938 558.446 79.7051 558.75 79.4809L559.025 79.2785L560.586 79.7215L561.639 77.966L560.461 76.8859L560.504 76.5578C560.529 76.3746 560.541 76.1887 560.541 76C560.541 75.8113 560.529 75.6254 560.504 75.4422L560.461 75.1141L561.639 74.034L560.586 72.2785L559.025 72.7215L558.75 72.5191C558.446 72.2949 558.111 72.1063 557.751 71.9613L557.433 71.8328L557.053 70.3125H554.947L554.567 71.8328Z" fill="#1A1A1A"/>
</g>
<rect x="40" y="152" width="560" height="72" rx="8" fill="white"/>
<path d="M74 181.5C74 182.328 73.3284 183 72.5 183C71.6716 183 71 182.328 71 181.5C71 180.672 71.6716 180 72.5 180C73.3284 180 74 180.672 74 181.5Z" fill="#737373"/>
<path d="M80 181.5C80 182.328 79.3284 183 78.5 183C77.6716 183 77 182.328 77 181.5C77 180.672 77.6716 180 78.5 180C79.3284 180 80 180.672 80 181.5Z" fill="#737373"/>
<path d="M80 188C80 188.828 79.3284 189.5 78.5 189.5C77.6716 189.5 77 188.828 77 188C77 187.172 77.6716 186.5 78.5 186.5C79.3284 186.5 80 187.172 80 188Z" fill="#737373"/>
<path d="M74 188C74 188.828 73.3284 189.5 72.5 189.5C71.6716 189.5 71 188.828 71 188C71 187.172 71.6716 186.5 72.5 186.5C73.3284 186.5 74 187.172 74 188Z" fill="#737373"/>
<path d="M74 194.5C74 195.328 73.3284 196 72.5 196C71.6716 196 71 195.328 71 194.5C71 193.672 71.6716 193 72.5 193C73.3284 193 74 193.672 74 194.5Z" fill="#737373"/>
<path d="M80 194.5C80 195.328 79.3284 196 78.5 196C77.6716 196 77 195.328 77 194.5C77 193.672 77.6716 193 78.5 193C79.3284 193 80 193.672 80 194.5Z" fill="#737373"/>
<path d="M101 184.333C101 183.321 101.783 182.5 102.75 182.5H113.25C114.215 182.5 115 183.321 115 184.333V191.667C115 192.678 114.215 193.5 113.25 193.5H102.75C101.783 193.5 101 192.678 101 191.667V184.333ZM102.312 184.333V184.966L107.029 189.023C107.593 189.51 108.407 189.51 108.971 189.023L113.688 184.966V184.308C113.688 184.081 113.491 183.849 113.25 183.849H102.75C102.508 183.849 102.312 184.081 102.312 184.308V184.333ZM102.312 186.745V191.667C102.312 191.919 102.508 192.125 102.75 192.125H113.25C113.491 192.125 113.688 191.919 113.688 191.667V186.745L109.805 190.085C108.755 190.988 107.245 190.988 106.171 190.085L102.312 186.745Z" fill="#1A1A1A"/>
<path d="M130.922 182.336V193H129.084V182.336H130.922ZM135.273 187.001V188.459H130.454V187.001H135.273ZM135.881 182.336V183.801H130.454V182.336H135.881ZM139.06 185.075V193H137.287V185.075H139.06ZM137.17 182.995C137.17 182.727 137.258 182.504 137.434 182.329C137.614 182.148 137.863 182.058 138.181 182.058C138.493 182.058 138.74 182.148 138.92 182.329C139.101 182.504 139.191 182.727 139.191 182.995C139.191 183.259 139.101 183.479 138.92 183.654C138.74 183.83 138.493 183.918 138.181 183.918C137.863 183.918 137.614 183.83 137.434 183.654C137.258 183.479 137.17 183.259 137.17 182.995ZM144.487 193.146C143.901 193.146 143.371 193.051 142.897 192.861C142.429 192.666 142.028 192.395 141.696 192.048C141.369 191.701 141.118 191.293 140.942 190.825C140.766 190.356 140.678 189.851 140.678 189.309V189.016C140.678 188.396 140.769 187.834 140.949 187.331C141.13 186.828 141.381 186.398 141.704 186.042C142.026 185.681 142.407 185.405 142.846 185.214C143.286 185.024 143.762 184.929 144.274 184.929C144.841 184.929 145.336 185.024 145.761 185.214C146.186 185.405 146.538 185.673 146.816 186.02C147.099 186.362 147.309 186.77 147.446 187.243C147.587 187.717 147.658 188.239 147.658 188.811V189.565H141.535V188.298H145.915V188.159C145.905 187.841 145.842 187.543 145.725 187.265C145.612 186.987 145.439 186.762 145.205 186.591C144.97 186.42 144.658 186.335 144.267 186.335C143.974 186.335 143.713 186.398 143.483 186.525C143.259 186.647 143.071 186.826 142.919 187.06C142.768 187.294 142.651 187.578 142.568 187.91C142.49 188.237 142.451 188.605 142.451 189.016V189.309C142.451 189.655 142.497 189.978 142.59 190.275C142.688 190.568 142.829 190.825 143.015 191.044C143.2 191.264 143.425 191.438 143.688 191.564C143.952 191.687 144.252 191.748 144.589 191.748C145.014 191.748 145.393 191.662 145.725 191.491C146.057 191.32 146.345 191.079 146.589 190.766L147.519 191.667C147.348 191.916 147.126 192.155 146.853 192.385C146.579 192.609 146.245 192.792 145.849 192.934C145.458 193.076 145.004 193.146 144.487 193.146ZM150.925 181.75V193H149.152V181.75H150.925ZM157.692 191.359V181.75H159.465V193H157.861L157.692 191.359ZM152.536 189.125V188.972C152.536 188.371 152.607 187.824 152.749 187.331C152.89 186.833 153.095 186.406 153.364 186.049C153.632 185.688 153.959 185.412 154.345 185.222C154.731 185.026 155.166 184.929 155.649 184.929C156.127 184.929 156.547 185.021 156.909 185.207C157.27 185.393 157.578 185.659 157.832 186.005C158.085 186.347 158.288 186.757 158.439 187.236C158.591 187.709 158.698 188.237 158.762 188.818V189.309C158.698 189.875 158.591 190.393 158.439 190.861C158.288 191.33 158.085 191.735 157.832 192.077C157.578 192.419 157.268 192.683 156.901 192.868C156.54 193.054 156.118 193.146 155.634 193.146C155.156 193.146 154.724 193.046 154.338 192.846C153.957 192.646 153.632 192.365 153.364 192.004C153.095 191.643 152.89 191.218 152.749 190.729C152.607 190.236 152.536 189.702 152.536 189.125ZM154.301 188.972V189.125C154.301 189.487 154.333 189.824 154.396 190.136C154.465 190.449 154.57 190.725 154.711 190.964C154.853 191.198 155.036 191.384 155.261 191.521C155.49 191.652 155.764 191.718 156.081 191.718C156.481 191.718 156.811 191.63 157.07 191.455C157.329 191.279 157.531 191.042 157.678 190.744C157.829 190.441 157.932 190.104 157.985 189.733V188.408C157.956 188.12 157.895 187.851 157.802 187.602C157.714 187.353 157.595 187.136 157.443 186.95C157.292 186.76 157.104 186.613 156.879 186.511C156.66 186.403 156.398 186.35 156.096 186.35C155.773 186.35 155.5 186.418 155.275 186.555C155.051 186.691 154.865 186.879 154.719 187.119C154.577 187.358 154.472 187.636 154.404 187.954C154.335 188.271 154.301 188.61 154.301 188.972ZM165.053 181.75H166.818V191.308L166.65 193H165.053V181.75ZM171.989 188.964V189.118C171.989 189.704 171.923 190.244 171.792 190.737C171.665 191.225 171.469 191.65 171.206 192.011C170.947 192.373 170.625 192.653 170.239 192.854C169.858 193.049 169.416 193.146 168.913 193.146C168.42 193.146 167.99 193.054 167.624 192.868C167.258 192.683 166.95 192.419 166.701 192.077C166.457 191.735 166.259 191.328 166.108 190.854C165.957 190.38 165.849 189.858 165.786 189.287V188.796C165.849 188.22 165.957 187.697 166.108 187.229C166.259 186.755 166.457 186.347 166.701 186.005C166.95 185.659 167.255 185.393 167.617 185.207C167.983 185.021 168.41 184.929 168.898 184.929C169.406 184.929 169.853 185.026 170.239 185.222C170.629 185.417 170.954 185.695 171.213 186.057C171.472 186.413 171.665 186.838 171.792 187.331C171.923 187.824 171.989 188.369 171.989 188.964ZM170.224 189.118V188.964C170.224 188.608 170.195 188.273 170.136 187.961C170.078 187.644 169.98 187.365 169.843 187.126C169.711 186.887 169.531 186.699 169.301 186.562C169.077 186.42 168.796 186.35 168.459 186.35C168.146 186.35 167.878 186.403 167.653 186.511C167.429 186.618 167.241 186.765 167.089 186.95C166.938 187.136 166.818 187.351 166.73 187.595C166.647 187.839 166.591 188.103 166.562 188.386V189.711C166.606 190.078 166.699 190.415 166.84 190.722C166.987 191.025 167.192 191.269 167.456 191.455C167.719 191.635 168.059 191.726 168.474 191.726C168.801 191.726 169.077 191.66 169.301 191.528C169.526 191.396 169.704 191.213 169.836 190.979C169.973 190.739 170.07 190.461 170.129 190.144C170.192 189.826 170.224 189.484 170.224 189.118ZM175.373 181.75V193H173.601V181.75H175.373ZM176.97 189.125V188.957C176.97 188.386 177.053 187.856 177.219 187.368C177.385 186.875 177.624 186.447 177.937 186.086C178.254 185.72 178.64 185.437 179.094 185.236C179.553 185.031 180.07 184.929 180.646 184.929C181.228 184.929 181.745 185.031 182.199 185.236C182.658 185.437 183.046 185.72 183.364 186.086C183.681 186.447 183.923 186.875 184.089 187.368C184.255 187.856 184.338 188.386 184.338 188.957V189.125C184.338 189.697 184.255 190.227 184.089 190.715C183.923 191.203 183.681 191.63 183.364 191.997C183.046 192.358 182.661 192.641 182.207 192.846C181.752 193.046 181.237 193.146 180.661 193.146C180.08 193.146 179.56 193.046 179.101 192.846C178.647 192.641 178.261 192.358 177.944 191.997C177.626 191.63 177.385 191.203 177.219 190.715C177.053 190.227 176.97 189.697 176.97 189.125ZM178.735 188.957V189.125C178.735 189.482 178.771 189.819 178.845 190.136C178.918 190.454 179.033 190.732 179.189 190.971C179.345 191.21 179.545 191.398 179.79 191.535C180.034 191.672 180.324 191.74 180.661 191.74C180.988 191.74 181.271 191.672 181.511 191.535C181.755 191.398 181.955 191.21 182.111 190.971C182.268 190.732 182.382 190.454 182.456 190.136C182.534 189.819 182.573 189.482 182.573 189.125V188.957C182.573 188.605 182.534 188.273 182.456 187.961C182.382 187.644 182.265 187.363 182.104 187.119C181.948 186.875 181.748 186.684 181.503 186.547C181.264 186.406 180.979 186.335 180.646 186.335C180.314 186.335 180.026 186.406 179.782 186.547C179.543 186.684 179.345 186.875 179.189 187.119C179.033 187.363 178.918 187.644 178.845 187.961C178.771 188.273 178.735 188.605 178.735 188.957ZM189.055 191.74C189.343 191.74 189.602 191.684 189.831 191.572C190.065 191.455 190.253 191.293 190.395 191.088C190.542 190.883 190.622 190.646 190.637 190.378H192.299C192.29 190.891 192.138 191.357 191.845 191.777C191.552 192.197 191.164 192.531 190.681 192.78C190.197 193.024 189.663 193.146 189.077 193.146C188.471 193.146 187.944 193.044 187.495 192.839C187.045 192.629 186.672 192.341 186.374 191.975C186.076 191.608 185.852 191.186 185.7 190.708C185.554 190.229 185.48 189.716 185.48 189.169V188.913C185.48 188.366 185.554 187.854 185.7 187.375C185.852 186.892 186.076 186.467 186.374 186.101C186.672 185.734 187.045 185.449 187.495 185.244C187.944 185.034 188.469 184.929 189.069 184.929C189.704 184.929 190.261 185.056 190.739 185.31C191.218 185.559 191.594 185.908 191.867 186.357C192.146 186.801 192.29 187.319 192.299 187.91H190.637C190.622 187.617 190.549 187.353 190.417 187.119C190.29 186.879 190.109 186.689 189.875 186.547C189.646 186.406 189.37 186.335 189.047 186.335C188.691 186.335 188.396 186.408 188.161 186.555C187.927 186.696 187.744 186.892 187.612 187.141C187.48 187.385 187.385 187.661 187.326 187.968C187.272 188.271 187.246 188.586 187.246 188.913V189.169C187.246 189.497 187.272 189.814 187.326 190.122C187.38 190.429 187.473 190.705 187.604 190.949C187.741 191.188 187.927 191.381 188.161 191.528C188.396 191.669 188.693 191.74 189.055 191.74ZM195.434 181.75V193H193.662V181.75H195.434ZM200.356 185.075L196.906 188.898L195.017 190.832L194.555 189.338L195.983 187.573L198.225 185.075H200.356ZM198.605 193L196.035 189.279L197.148 188.042L200.649 193H198.605ZM207.102 181.75V193H205.329V181.75H207.102ZM213.503 191.411V187.631C213.503 187.348 213.452 187.104 213.349 186.899C213.247 186.694 213.09 186.535 212.88 186.423C212.675 186.311 212.417 186.254 212.104 186.254C211.816 186.254 211.567 186.303 211.357 186.401C211.147 186.499 210.983 186.63 210.866 186.796C210.749 186.962 210.69 187.15 210.69 187.36H208.933C208.933 187.048 209.008 186.745 209.16 186.452C209.311 186.159 209.531 185.898 209.819 185.668C210.107 185.439 210.451 185.258 210.852 185.126C211.252 184.995 211.701 184.929 212.199 184.929C212.795 184.929 213.322 185.029 213.781 185.229C214.245 185.429 214.609 185.732 214.873 186.137C215.141 186.538 215.275 187.041 215.275 187.646V191.169C215.275 191.53 215.3 191.855 215.349 192.143C215.402 192.426 215.478 192.673 215.576 192.883V193H213.767C213.684 192.81 213.618 192.568 213.569 192.275C213.525 191.977 213.503 191.689 213.503 191.411ZM213.759 188.181L213.774 189.272H212.507C212.18 189.272 211.892 189.304 211.643 189.367C211.394 189.426 211.186 189.514 211.02 189.631C210.854 189.748 210.729 189.89 210.646 190.056C210.563 190.222 210.522 190.41 210.522 190.62C210.522 190.83 210.571 191.022 210.668 191.198C210.766 191.369 210.908 191.503 211.093 191.601C211.284 191.699 211.513 191.748 211.782 191.748C212.143 191.748 212.458 191.674 212.727 191.528C213 191.376 213.215 191.193 213.371 190.979C213.527 190.759 213.61 190.551 213.62 190.356L214.191 191.14C214.133 191.34 214.033 191.555 213.891 191.784C213.75 192.014 213.564 192.233 213.334 192.443C213.11 192.648 212.839 192.817 212.521 192.949C212.209 193.081 211.848 193.146 211.438 193.146C210.92 193.146 210.458 193.044 210.053 192.839C209.648 192.629 209.331 192.348 209.101 191.997C208.872 191.64 208.757 191.237 208.757 190.788C208.757 190.368 208.835 189.997 208.991 189.675C209.152 189.348 209.387 189.074 209.694 188.854C210.007 188.635 210.388 188.469 210.837 188.356C211.286 188.239 211.799 188.181 212.375 188.181H213.759ZM217.128 181.75H218.894V191.308L218.725 193H217.128V181.75ZM224.064 188.964V189.118C224.064 189.704 223.999 190.244 223.867 190.737C223.74 191.225 223.544 191.65 223.281 192.011C223.022 192.373 222.7 192.653 222.314 192.854C221.933 193.049 221.491 193.146 220.988 193.146C220.495 193.146 220.065 193.054 219.699 192.868C219.333 192.683 219.025 192.419 218.776 192.077C218.532 191.735 218.334 191.328 218.183 190.854C218.032 190.38 217.924 189.858 217.861 189.287V188.796C217.924 188.22 218.032 187.697 218.183 187.229C218.334 186.755 218.532 186.347 218.776 186.005C219.025 185.659 219.331 185.393 219.692 185.207C220.058 185.021 220.485 184.929 220.974 184.929C221.481 184.929 221.928 185.026 222.314 185.222C222.705 185.417 223.029 185.695 223.288 186.057C223.547 186.413 223.74 186.838 223.867 187.331C223.999 187.824 224.064 188.369 224.064 188.964ZM222.299 189.118V188.964C222.299 188.608 222.27 188.273 222.211 187.961C222.153 187.644 222.055 187.365 221.918 187.126C221.787 186.887 221.606 186.699 221.376 186.562C221.152 186.42 220.871 186.35 220.534 186.35C220.222 186.35 219.953 186.403 219.729 186.511C219.504 186.618 219.316 186.765 219.165 186.95C219.013 187.136 218.894 187.351 218.806 187.595C218.723 187.839 218.667 188.103 218.637 188.386V189.711C218.681 190.078 218.774 190.415 218.916 190.722C219.062 191.025 219.267 191.269 219.531 191.455C219.794 191.635 220.134 191.726 220.549 191.726C220.876 191.726 221.152 191.66 221.376 191.528C221.601 191.396 221.779 191.213 221.911 190.979C222.048 190.739 222.146 190.461 222.204 190.144C222.268 189.826 222.299 189.484 222.299 189.118ZM229.052 193.146C228.466 193.146 227.937 193.051 227.463 192.861C226.994 192.666 226.594 192.395 226.262 192.048C225.935 191.701 225.683 191.293 225.507 190.825C225.332 190.356 225.244 189.851 225.244 189.309V189.016C225.244 188.396 225.334 187.834 225.515 187.331C225.695 186.828 225.947 186.398 226.269 186.042C226.591 185.681 226.972 185.405 227.412 185.214C227.851 185.024 228.327 184.929 228.84 184.929C229.406 184.929 229.902 185.024 230.327 185.214C230.751 185.405 231.103 185.673 231.381 186.02C231.665 186.362 231.875 186.77 232.011 187.243C232.153 187.717 232.224 188.239 232.224 188.811V189.565H226.101V188.298H230.48V188.159C230.471 187.841 230.407 187.543 230.29 187.265C230.178 186.987 230.004 186.762 229.77 186.591C229.536 186.42 229.223 186.335 228.833 186.335C228.54 186.335 228.278 186.398 228.049 186.525C227.824 186.647 227.636 186.826 227.485 187.06C227.333 187.294 227.216 187.578 227.133 187.91C227.055 188.237 227.016 188.605 227.016 189.016V189.309C227.016 189.655 227.062 189.978 227.155 190.275C227.253 190.568 227.395 190.825 227.58 191.044C227.766 191.264 227.99 191.438 228.254 191.564C228.518 191.687 228.818 191.748 229.155 191.748C229.58 191.748 229.958 191.662 230.29 191.491C230.622 191.32 230.91 191.079 231.154 190.766L232.084 191.667C231.914 191.916 231.691 192.155 231.418 192.385C231.145 192.609 230.81 192.792 230.415 192.934C230.024 193.076 229.57 193.146 229.052 193.146ZM235.49 181.75V193H233.718V181.75H235.49Z" fill="#1A1A1A"/>
<path d="M318.298 182.758V192H317.073V182.758H318.298ZM322.17 186.916V187.918H318.031V186.916H322.17ZM322.798 182.758V183.761H318.031V182.758H322.798ZM325.356 185.132V192H324.176V185.132H325.356ZM324.087 183.31C324.087 183.12 324.144 182.959 324.258 182.828C324.377 182.696 324.55 182.631 324.779 182.631C325.003 182.631 325.174 182.696 325.293 182.828C325.416 182.959 325.477 183.12 325.477 183.31C325.477 183.492 325.416 183.649 325.293 183.78C325.174 183.907 325.003 183.97 324.779 183.97C324.55 183.97 324.377 183.907 324.258 183.78C324.144 183.649 324.087 183.492 324.087 183.31ZM330.092 192.127C329.614 192.127 329.18 192.047 328.791 191.886C328.405 191.721 328.073 191.49 327.794 191.194C327.519 190.898 327.307 190.546 327.159 190.14C327.011 189.734 326.937 189.29 326.937 188.807V188.541C326.937 187.982 327.02 187.485 327.185 187.049C327.35 186.609 327.574 186.236 327.857 185.932C328.141 185.627 328.463 185.396 328.822 185.24C329.182 185.083 329.554 185.005 329.939 185.005C330.43 185.005 330.854 185.09 331.209 185.259C331.569 185.428 331.863 185.665 332.091 185.97C332.32 186.27 332.489 186.626 332.599 187.036C332.709 187.442 332.764 187.887 332.764 188.369V188.896H327.635V187.938H331.59V187.849C331.573 187.544 331.509 187.248 331.399 186.96C331.294 186.672 331.124 186.435 330.892 186.249C330.659 186.063 330.341 185.97 329.939 185.97C329.673 185.97 329.427 186.027 329.203 186.141C328.979 186.251 328.786 186.416 328.625 186.636C328.465 186.856 328.34 187.125 328.251 187.442C328.162 187.76 328.118 188.126 328.118 188.541V188.807C328.118 189.133 328.162 189.44 328.251 189.728C328.344 190.011 328.477 190.261 328.651 190.477C328.829 190.692 329.042 190.862 329.292 190.984C329.546 191.107 329.834 191.168 330.155 191.168C330.57 191.168 330.921 191.084 331.209 190.915C331.497 190.745 331.749 190.519 331.964 190.235L332.675 190.8C332.527 191.025 332.339 191.238 332.11 191.441C331.882 191.645 331.6 191.81 331.266 191.937C330.936 192.063 330.545 192.127 330.092 192.127ZM335.411 182.25V192H334.23V182.25H335.411ZM341.625 190.667V182.25H342.806V192H341.727L341.625 190.667ZM337.004 188.642V188.509C337.004 187.984 337.068 187.508 337.195 187.081C337.326 186.649 337.51 186.279 337.747 185.97C337.988 185.661 338.274 185.424 338.604 185.259C338.938 185.09 339.311 185.005 339.721 185.005C340.153 185.005 340.529 185.081 340.851 185.233C341.177 185.382 341.452 185.599 341.676 185.887C341.905 186.171 342.085 186.514 342.216 186.916C342.347 187.318 342.438 187.772 342.489 188.28V188.864C342.442 189.368 342.351 189.821 342.216 190.223C342.085 190.625 341.905 190.967 341.676 191.251C341.452 191.535 341.177 191.752 340.851 191.905C340.525 192.053 340.144 192.127 339.708 192.127C339.306 192.127 338.938 192.04 338.604 191.867C338.274 191.693 337.988 191.45 337.747 191.137C337.51 190.824 337.326 190.455 337.195 190.032C337.068 189.605 337.004 189.141 337.004 188.642ZM338.185 188.509V188.642C338.185 188.985 338.219 189.306 338.287 189.607C338.359 189.907 338.469 190.172 338.617 190.4C338.765 190.629 338.953 190.809 339.182 190.94C339.41 191.067 339.683 191.13 340 191.13C340.39 191.13 340.709 191.048 340.959 190.883C341.213 190.718 341.416 190.5 341.568 190.229C341.721 189.958 341.839 189.664 341.924 189.347V187.817C341.873 187.584 341.799 187.36 341.702 187.144C341.609 186.924 341.486 186.729 341.333 186.56C341.185 186.387 341.001 186.249 340.781 186.147C340.565 186.046 340.309 185.995 340.013 185.995C339.692 185.995 339.414 186.063 339.182 186.198C338.953 186.329 338.765 186.511 338.617 186.744C338.469 186.973 338.359 187.239 338.287 187.544C338.219 187.844 338.185 188.166 338.185 188.509ZM347.853 182.25H349.033V190.667L348.932 192H347.853V182.25ZM353.673 188.509V188.642C353.673 189.141 353.614 189.605 353.496 190.032C353.377 190.455 353.204 190.824 352.975 191.137C352.747 191.45 352.467 191.693 352.137 191.867C351.807 192.04 351.428 192.127 351.001 192.127C350.565 192.127 350.182 192.053 349.852 191.905C349.526 191.752 349.251 191.535 349.027 191.251C348.803 190.967 348.623 190.625 348.487 190.223C348.356 189.821 348.265 189.368 348.214 188.864V188.28C348.265 187.772 348.356 187.318 348.487 186.916C348.623 186.514 348.803 186.171 349.027 185.887C349.251 185.599 349.526 185.382 349.852 185.233C350.178 185.081 350.557 185.005 350.988 185.005C351.42 185.005 351.803 185.09 352.137 185.259C352.472 185.424 352.751 185.661 352.975 185.97C353.204 186.279 353.377 186.649 353.496 187.081C353.614 187.508 353.673 187.984 353.673 188.509ZM352.493 188.642V188.509C352.493 188.166 352.461 187.844 352.397 187.544C352.334 187.239 352.232 186.973 352.093 186.744C351.953 186.511 351.769 186.329 351.541 186.198C351.312 186.063 351.031 185.995 350.696 185.995C350.4 185.995 350.142 186.046 349.922 186.147C349.706 186.249 349.522 186.387 349.37 186.56C349.217 186.729 349.092 186.924 348.995 187.144C348.902 187.36 348.832 187.584 348.786 187.817V189.347C348.853 189.643 348.963 189.929 349.116 190.204C349.272 190.474 349.48 190.697 349.738 190.87C350 191.044 350.324 191.13 350.709 191.13C351.026 191.13 351.297 191.067 351.521 190.94C351.75 190.809 351.934 190.629 352.074 190.4C352.218 190.172 352.323 189.907 352.391 189.607C352.459 189.306 352.493 188.985 352.493 188.642ZM356.435 182.25V192H355.254V182.25H356.435ZM358.009 188.642V188.496C358.009 188.001 358.081 187.542 358.225 187.119C358.368 186.691 358.576 186.321 358.847 186.008C359.118 185.69 359.445 185.445 359.831 185.271C360.216 185.094 360.647 185.005 361.125 185.005C361.608 185.005 362.042 185.094 362.427 185.271C362.816 185.445 363.146 185.69 363.417 186.008C363.692 186.321 363.902 186.691 364.045 187.119C364.189 187.542 364.261 188.001 364.261 188.496V188.642C364.261 189.137 364.189 189.596 364.045 190.02C363.902 190.443 363.692 190.813 363.417 191.13C363.146 191.444 362.818 191.689 362.433 191.867C362.052 192.04 361.621 192.127 361.138 192.127C360.656 192.127 360.222 192.04 359.837 191.867C359.452 191.689 359.122 191.444 358.847 191.13C358.576 190.813 358.368 190.443 358.225 190.02C358.081 189.596 358.009 189.137 358.009 188.642ZM359.183 188.496V188.642C359.183 188.985 359.223 189.309 359.304 189.613C359.384 189.914 359.505 190.18 359.666 190.413C359.831 190.646 360.036 190.83 360.281 190.965C360.527 191.097 360.812 191.162 361.138 191.162C361.46 191.162 361.741 191.097 361.982 190.965C362.228 190.83 362.431 190.646 362.592 190.413C362.753 190.18 362.873 189.914 362.954 189.613C363.038 189.309 363.081 188.985 363.081 188.642V188.496C363.081 188.158 363.038 187.838 362.954 187.538C362.873 187.233 362.75 186.964 362.585 186.731C362.425 186.494 362.222 186.308 361.976 186.173C361.735 186.037 361.451 185.97 361.125 185.97C360.804 185.97 360.52 186.037 360.275 186.173C360.034 186.308 359.831 186.494 359.666 186.731C359.505 186.964 359.384 187.233 359.304 187.538C359.223 187.838 359.183 188.158 359.183 188.496ZM368.482 191.162C368.762 191.162 369.02 191.105 369.257 190.991C369.494 190.876 369.688 190.72 369.841 190.521C369.993 190.318 370.08 190.087 370.101 189.829H371.218C371.197 190.235 371.06 190.614 370.806 190.965C370.556 191.312 370.228 191.594 369.822 191.81C369.416 192.021 368.969 192.127 368.482 192.127C367.966 192.127 367.515 192.036 367.13 191.854C366.75 191.672 366.432 191.422 366.178 191.105C365.929 190.788 365.74 190.424 365.613 190.013C365.491 189.598 365.429 189.16 365.429 188.699V188.433C365.429 187.971 365.491 187.535 365.613 187.125C365.74 186.71 365.929 186.344 366.178 186.027C366.432 185.709 366.75 185.46 367.13 185.278C367.515 185.096 367.966 185.005 368.482 185.005C369.02 185.005 369.49 185.115 369.892 185.335C370.294 185.551 370.609 185.847 370.837 186.224C371.07 186.596 371.197 187.019 371.218 187.493H370.101C370.08 187.21 370 186.954 369.86 186.725C369.724 186.497 369.538 186.315 369.301 186.179C369.069 186.04 368.796 185.97 368.482 185.97C368.123 185.97 367.82 186.042 367.575 186.186C367.333 186.325 367.141 186.516 366.997 186.757C366.857 186.994 366.756 187.258 366.692 187.55C366.633 187.838 366.604 188.132 366.604 188.433V188.699C366.604 189 366.633 189.296 366.692 189.588C366.752 189.88 366.851 190.144 366.991 190.381C367.135 190.618 367.327 190.809 367.568 190.953C367.814 191.092 368.118 191.162 368.482 191.162ZM373.719 182.25V192H372.539V182.25H373.719ZM377.915 185.132L374.919 188.337L373.243 190.077L373.148 188.826L374.348 187.392L376.48 185.132H377.915ZM376.842 192L374.392 188.725L375.001 187.677L378.226 192H376.842ZM383.526 182.25V192H382.352V182.25H383.526ZM383.247 188.306L382.758 188.287C382.763 187.817 382.832 187.383 382.968 186.985C383.103 186.583 383.294 186.234 383.539 185.938C383.785 185.642 384.076 185.413 384.415 185.252C384.758 185.087 385.137 185.005 385.551 185.005C385.89 185.005 386.194 185.051 386.465 185.145C386.736 185.233 386.967 185.377 387.157 185.576C387.352 185.775 387.5 186.033 387.602 186.351C387.703 186.664 387.754 187.047 387.754 187.5V192H386.573V187.487C386.573 187.127 386.52 186.839 386.415 186.624C386.309 186.403 386.154 186.245 385.951 186.147C385.748 186.046 385.498 185.995 385.202 185.995C384.91 185.995 384.644 186.056 384.402 186.179C384.165 186.302 383.96 186.471 383.787 186.687C383.617 186.903 383.484 187.15 383.387 187.43C383.294 187.705 383.247 187.997 383.247 188.306ZM392.362 192.127C391.884 192.127 391.45 192.047 391.061 191.886C390.676 191.721 390.344 191.49 390.064 191.194C389.789 190.898 389.578 190.546 389.43 190.14C389.282 189.734 389.208 189.29 389.208 188.807V188.541C389.208 187.982 389.29 187.485 389.455 187.049C389.62 186.609 389.844 186.236 390.128 185.932C390.411 185.627 390.733 185.396 391.093 185.24C391.452 185.083 391.825 185.005 392.21 185.005C392.701 185.005 393.124 185.09 393.479 185.259C393.839 185.428 394.133 185.665 394.362 185.97C394.59 186.27 394.76 186.626 394.87 187.036C394.98 187.442 395.035 187.887 395.035 188.369V188.896H389.906V187.938H393.86V187.849C393.843 187.544 393.78 187.248 393.67 186.96C393.564 186.672 393.395 186.435 393.162 186.249C392.929 186.063 392.612 185.97 392.21 185.97C391.943 185.97 391.698 186.027 391.474 186.141C391.249 186.251 391.057 186.416 390.896 186.636C390.735 186.856 390.61 187.125 390.521 187.442C390.433 187.76 390.388 188.126 390.388 188.541V188.807C390.388 189.133 390.433 189.44 390.521 189.728C390.615 190.011 390.748 190.261 390.921 190.477C391.099 190.692 391.313 190.862 391.562 190.984C391.816 191.107 392.104 191.168 392.426 191.168C392.84 191.168 393.192 191.084 393.479 190.915C393.767 190.745 394.019 190.519 394.235 190.235L394.946 190.8C394.798 191.025 394.609 191.238 394.381 191.441C394.152 191.645 393.871 191.81 393.537 191.937C393.207 192.063 392.815 192.127 392.362 192.127ZM397.58 186.452V194.641H396.399V185.132H397.479L397.58 186.452ZM402.208 188.509V188.642C402.208 189.141 402.148 189.605 402.03 190.032C401.911 190.455 401.738 190.824 401.509 191.137C401.285 191.45 401.008 191.693 400.678 191.867C400.348 192.04 399.969 192.127 399.542 192.127C399.106 192.127 398.721 192.055 398.386 191.911C398.052 191.767 397.768 191.558 397.536 191.283C397.303 191.008 397.117 190.678 396.977 190.292C396.842 189.907 396.749 189.474 396.698 188.991V188.28C396.749 187.772 396.844 187.318 396.983 186.916C397.123 186.514 397.307 186.171 397.536 185.887C397.768 185.599 398.05 185.382 398.38 185.233C398.71 185.081 399.091 185.005 399.522 185.005C399.954 185.005 400.337 185.09 400.671 185.259C401.006 185.424 401.287 185.661 401.516 185.97C401.744 186.279 401.916 186.649 402.03 187.081C402.148 187.508 402.208 187.984 402.208 188.509ZM401.027 188.642V188.509C401.027 188.166 400.991 187.844 400.919 187.544C400.847 187.239 400.735 186.973 400.583 186.744C400.434 186.511 400.244 186.329 400.011 186.198C399.778 186.063 399.501 185.995 399.18 185.995C398.883 185.995 398.625 186.046 398.405 186.147C398.189 186.249 398.005 186.387 397.853 186.56C397.701 186.729 397.576 186.924 397.479 187.144C397.385 187.36 397.316 187.584 397.269 187.817V189.461C397.354 189.757 397.472 190.036 397.625 190.299C397.777 190.557 397.98 190.766 398.234 190.927C398.488 191.084 398.807 191.162 399.192 191.162C399.51 191.162 399.783 191.097 400.011 190.965C400.244 190.83 400.434 190.646 400.583 190.413C400.735 190.18 400.847 189.914 400.919 189.613C400.991 189.309 401.027 188.985 401.027 188.642ZM409.806 185.132V186.033H406.092V185.132H409.806ZM407.349 183.462H408.523V190.299C408.523 190.532 408.559 190.707 408.631 190.826C408.703 190.944 408.796 191.022 408.911 191.061C409.025 191.099 409.148 191.118 409.279 191.118C409.376 191.118 409.478 191.109 409.583 191.092C409.694 191.071 409.776 191.054 409.831 191.042L409.837 192C409.744 192.03 409.622 192.057 409.469 192.083C409.321 192.112 409.141 192.127 408.93 192.127C408.642 192.127 408.377 192.07 408.136 191.956C407.895 191.841 407.702 191.651 407.559 191.384C407.419 191.113 407.349 190.75 407.349 190.292V183.462ZM414.033 192.127C413.555 192.127 413.121 192.047 412.732 191.886C412.347 191.721 412.015 191.49 411.735 191.194C411.46 190.898 411.249 190.546 411.101 190.14C410.952 189.734 410.878 189.29 410.878 188.807V188.541C410.878 187.982 410.961 187.485 411.126 187.049C411.291 186.609 411.515 186.236 411.799 185.932C412.082 185.627 412.404 185.396 412.764 185.24C413.123 185.083 413.496 185.005 413.881 185.005C414.372 185.005 414.795 185.09 415.15 185.259C415.51 185.428 415.804 185.665 416.033 185.97C416.261 186.27 416.431 186.626 416.541 187.036C416.651 187.442 416.706 187.887 416.706 188.369V188.896H411.577V187.938H415.531V187.849C415.514 187.544 415.451 187.248 415.341 186.96C415.235 186.672 415.066 186.435 414.833 186.249C414.6 186.063 414.283 185.97 413.881 185.97C413.614 185.97 413.369 186.027 413.145 186.141C412.92 186.251 412.728 186.416 412.567 186.636C412.406 186.856 412.281 187.125 412.192 187.442C412.104 187.76 412.059 188.126 412.059 188.541V188.807C412.059 189.133 412.104 189.44 412.192 189.728C412.285 190.011 412.419 190.261 412.592 190.477C412.77 190.692 412.984 190.862 413.233 190.984C413.487 191.107 413.775 191.168 414.097 191.168C414.511 191.168 414.863 191.084 415.15 190.915C415.438 190.745 415.69 190.519 415.906 190.235L416.617 190.8C416.469 191.025 416.28 191.238 416.052 191.441C415.823 191.645 415.542 191.81 415.208 191.937C414.877 192.063 414.486 192.127 414.033 192.127ZM418.87 185.132L420.375 187.633L421.898 185.132H423.275L421.028 188.521L423.345 192H421.987L420.4 189.423L418.813 192H417.448L419.759 188.521L417.518 185.132H418.87ZM427.401 185.132V186.033H423.688V185.132H427.401ZM424.945 183.462H426.119V190.299C426.119 190.532 426.155 190.707 426.227 190.826C426.299 190.944 426.392 191.022 426.506 191.061C426.621 191.099 426.743 191.118 426.875 191.118C426.972 191.118 427.073 191.109 427.179 191.092C427.289 191.071 427.372 191.054 427.427 191.042L427.433 192C427.34 192.03 427.217 192.057 427.065 192.083C426.917 192.112 426.737 192.127 426.525 192.127C426.238 192.127 425.973 192.07 425.732 191.956C425.491 191.841 425.298 191.651 425.154 191.384C425.015 191.113 424.945 190.75 424.945 190.292V183.462Z" fill="#737373"/>
<path d="M553.276 188C553.276 186.526 554.471 185.375 556 185.375C557.504 185.375 558.724 186.526 558.724 188C558.724 189.449 557.504 190.625 556 190.625C554.471 190.625 553.276 189.449 553.276 188ZM556 186.688C555.248 186.688 554.638 187.275 554.638 188C554.638 188.725 555.248 189.312 556 189.312C556.752 189.312 557.362 188.725 557.362 188C557.362 187.275 556.752 186.688 556 186.688ZM557.053 181C557.683 181 558.231 181.415 558.378 182.005L558.6 182.892C558.841 183.006 559.071 183.135 559.289 183.277L560.2 183.019C560.804 182.847 561.451 183.096 561.766 183.621L562.819 185.378C563.131 185.903 563.032 186.567 562.578 186.986L561.888 187.593C561.897 187.743 561.903 187.871 561.903 188C561.903 188.129 561.897 188.257 561.888 188.383L562.578 189.014C563.032 189.433 563.131 190.097 562.819 190.622L561.766 192.378C561.451 192.903 560.804 193.152 560.2 192.982L559.289 192.722C559.071 192.864 558.841 192.993 558.6 193.108L558.378 193.996C558.231 194.584 557.683 195 557.053 195H554.947C554.317 195 553.77 194.584 553.622 193.996L553.401 193.108C553.16 192.993 552.93 192.864 552.711 192.722L551.775 192.982C551.197 193.152 550.55 192.903 550.235 192.378L549.183 190.622C548.868 190.097 548.967 189.433 549.423 189.014L550.111 188.383C550.102 188.257 550.098 188.129 550.098 187.975C550.098 187.871 550.102 187.743 550.111 187.593L549.423 186.986C548.967 186.567 548.868 185.903 549.183 185.378L550.235 183.621C550.55 183.096 551.197 182.847 551.775 183.019L552.711 183.277C552.93 183.135 553.16 183.006 553.401 182.892L553.622 182.005C553.77 181.415 554.317 181 554.947 181L557.053 181ZM554.567 183.833L554.249 183.961C553.889 184.106 553.554 184.295 553.25 184.519L552.975 184.721L551.415 184.279L550.362 186.034L551.54 187.114L551.496 187.442C551.472 187.625 551.46 187.811 551.46 188C551.46 188.189 551.472 188.375 551.496 188.558L551.54 188.886L550.362 189.966L551.415 191.721L552.975 191.279L553.25 191.481C553.554 191.705 553.889 191.894 554.249 192.039L554.567 192.167L554.947 193.688H557.053L557.433 192.167L557.751 192.039C558.111 191.894 558.446 191.705 558.75 191.481L559.025 191.279L560.586 191.721L561.639 189.966L560.461 188.886L560.504 188.558C560.529 188.375 560.541 188.189 560.541 188C560.541 187.811 560.529 187.625 560.504 187.442L560.461 187.114L561.639 186.034L560.586 184.279L559.025 184.721L558.75 184.519C558.446 184.295 558.111 184.106 557.751 183.961L557.433 183.833L557.053 182.312H554.947L554.567 183.833Z" fill="#1A1A1A"/>
<rect x="38" y="150" width="564" height="76" rx="10" stroke="#1A1A1A" stroke-opacity="0.1" stroke-width="4"/>
<g filter="url(#filter1_di_7688_87002)">
<rect x="40" y="264" width="560" height="72" rx="8" fill="white" shape-rendering="crispEdges"/>
<path d="M74 293.5C74 294.328 73.3284 295 72.5 295C71.6716 295 71 294.328 71 293.5C71 292.672 71.6716 292 72.5 292C73.3284 292 74 292.672 74 293.5Z" fill="#AAAAAA"/>
<path d="M80 293.5C80 294.328 79.3284 295 78.5 295C77.6716 295 77 294.328 77 293.5C77 292.672 77.6716 292 78.5 292C79.3284 292 80 292.672 80 293.5Z" fill="#AAAAAA"/>
<path d="M80 300C80 300.828 79.3284 301.5 78.5 301.5C77.6716 301.5 77 300.828 77 300C77 299.172 77.6716 298.5 78.5 298.5C79.3284 298.5 80 299.172 80 300Z" fill="#AAAAAA"/>
<path d="M74 300C74 300.828 73.3284 301.5 72.5 301.5C71.6716 301.5 71 300.828 71 300C71 299.172 71.6716 298.5 72.5 298.5C73.3284 298.5 74 299.172 74 300Z" fill="#AAAAAA"/>
<path d="M74 306.5C74 307.328 73.3284 308 72.5 308C71.6716 308 71 307.328 71 306.5C71 305.672 71.6716 305 72.5 305C73.3284 305 74 305.672 74 306.5Z" fill="#AAAAAA"/>
<path d="M80 306.5C80 307.328 79.3284 308 78.5 308C77.6716 308 77 307.328 77 306.5C77 305.672 77.6716 305 78.5 305C79.3284 305 80 305.672 80 306.5Z" fill="#AAAAAA"/>
<rect x="96.5" y="280.5" width="383" height="39" rx="3.5" fill="white"/>
<path d="M120.013 303.85V305H114.366V303.85H120.013ZM114.651 294.336V305H113.238V294.336H114.651ZM119.266 298.921V300.071H114.366V298.921H119.266ZM119.939 294.336V295.493H114.366V294.336H119.939ZM122.913 298.32V305H121.558V297.075H122.876L122.913 298.32ZM125.389 297.031L125.381 298.291C125.269 298.267 125.162 298.252 125.059 298.247C124.961 298.237 124.849 298.232 124.722 298.232C124.41 298.232 124.134 298.281 123.895 298.379C123.655 298.477 123.453 298.613 123.287 298.789C123.121 298.965 122.989 299.175 122.891 299.419C122.798 299.658 122.737 299.922 122.708 300.21L122.327 300.43C122.327 299.951 122.374 299.502 122.466 299.082C122.564 298.662 122.713 298.291 122.913 297.969C123.113 297.642 123.367 297.388 123.675 297.207C123.987 297.021 124.358 296.929 124.788 296.929C124.886 296.929 124.998 296.941 125.125 296.965C125.252 296.985 125.34 297.007 125.389 297.031ZM127.996 298.32V305H126.641V297.075H127.959L127.996 298.32ZM130.472 297.031L130.464 298.291C130.352 298.267 130.245 298.252 130.142 298.247C130.044 298.237 129.932 298.232 129.805 298.232C129.493 298.232 129.217 298.281 128.978 298.379C128.738 298.477 128.536 298.613 128.37 298.789C128.204 298.965 128.072 299.175 127.974 299.419C127.881 299.658 127.82 299.922 127.791 300.21L127.41 300.43C127.41 299.951 127.457 299.502 127.549 299.082C127.647 298.662 127.796 298.291 127.996 297.969C128.196 297.642 128.45 297.388 128.758 297.207C129.07 297.021 129.441 296.929 129.871 296.929C129.969 296.929 130.081 296.941 130.208 296.965C130.335 296.985 130.423 297.007 130.472 297.031ZM131.219 301.125V300.957C131.219 300.386 131.302 299.856 131.468 299.368C131.634 298.875 131.873 298.447 132.186 298.086C132.498 297.72 132.876 297.437 133.321 297.236C133.765 297.031 134.263 296.929 134.815 296.929C135.372 296.929 135.872 297.031 136.316 297.236C136.766 297.437 137.146 297.72 137.459 298.086C137.776 298.447 138.018 298.875 138.184 299.368C138.35 299.856 138.433 300.386 138.433 300.957V301.125C138.433 301.697 138.35 302.227 138.184 302.715C138.018 303.203 137.776 303.63 137.459 303.997C137.146 304.358 136.768 304.641 136.324 304.846C135.884 305.046 135.386 305.146 134.83 305.146C134.273 305.146 133.772 305.046 133.328 304.846C132.884 304.641 132.503 304.358 132.186 303.997C131.873 303.63 131.634 303.203 131.468 302.715C131.302 302.227 131.219 301.697 131.219 301.125ZM132.574 300.957V301.125C132.574 301.521 132.62 301.895 132.713 302.246C132.806 302.593 132.945 302.9 133.13 303.169C133.321 303.438 133.558 303.65 133.841 303.806C134.124 303.958 134.454 304.033 134.83 304.033C135.201 304.033 135.525 303.958 135.804 303.806C136.087 303.65 136.321 303.438 136.507 303.169C136.692 302.9 136.832 302.593 136.924 302.246C137.022 301.895 137.071 301.521 137.071 301.125V300.957C137.071 300.566 137.022 300.198 136.924 299.851C136.832 299.5 136.69 299.189 136.5 298.921C136.314 298.647 136.08 298.433 135.796 298.276C135.518 298.12 135.191 298.042 134.815 298.042C134.444 298.042 134.117 298.12 133.833 298.276C133.555 298.433 133.321 298.647 133.13 298.921C132.945 299.189 132.806 299.5 132.713 299.851C132.62 300.198 132.574 300.566 132.574 300.957ZM141.487 298.32V305H140.132V297.075H141.451L141.487 298.32ZM143.963 297.031L143.956 298.291C143.843 298.267 143.736 298.252 143.633 298.247C143.536 298.237 143.423 298.232 143.296 298.232C142.984 298.232 142.708 298.281 142.469 298.379C142.229 298.477 142.027 298.613 141.861 298.789C141.695 298.965 141.563 299.175 141.465 299.419C141.373 299.658 141.312 299.922 141.282 300.21L140.901 300.43C140.901 299.951 140.948 299.502 141.041 299.082C141.138 298.662 141.287 298.291 141.487 297.969C141.688 297.642 141.941 297.388 142.249 297.207C142.562 297.021 142.933 296.929 143.362 296.929C143.46 296.929 143.572 296.941 143.699 296.965C143.826 296.985 143.914 297.007 143.963 297.031Z" fill="#1A1A1A"/>
<rect x="96.5" y="280.5" width="383" height="39" rx="3.5" stroke="#F45C59"/>
<path d="M505.621 293.484C505.766 293.187 506.063 293 506.388 293H509.613C509.937 293 510.234 293.187 510.379 293.484L510.571 293.875H513.143C513.617 293.875 514 294.267 514 294.75C514 295.233 513.617 295.625 513.143 295.625H502.857C502.384 295.625 502 295.233 502 294.75C502 294.267 502.384 293.875 502.857 293.875H505.429L505.621 293.484ZM502.833 296.5H513.143V305.25C513.143 306.215 512.374 307 511.429 307H504.547C503.625 307 502.833 306.215 502.833 305.25V296.5ZM504.976 298.688V304.812C504.976 305.053 505.193 305.25 505.404 305.25C505.664 305.25 505.833 305.053 505.833 304.812V298.688C505.833 298.447 505.664 298.25 505.404 298.25C505.193 298.25 504.976 298.447 504.976 298.688ZM507.547 298.688V304.812C507.547 305.053 507.764 305.25 507.976 305.25C508.236 305.25 508.429 305.053 508.429 304.812V298.688C508.429 298.447 508.236 298.25 507.976 298.25C507.764 298.25 507.547 298.447 507.547 298.688ZM510.143 298.688V304.812C510.143 305.053 510.336 305.25 510.571 305.25C510.807 305.25 511 305.053 511 304.812V298.688C511 298.447 510.807 298.25 510.571 298.25C510.336 298.25 510.143 298.447 510.143 298.688Z" fill="#F45C59"/>
<path d="M553.276 300C553.276 298.526 554.471 297.375 556 297.375C557.504 297.375 558.724 298.526 558.724 300C558.724 301.449 557.504 302.625 556 302.625C554.471 302.625 553.276 301.449 553.276 300ZM556 298.688C555.248 298.688 554.638 299.275 554.638 300C554.638 300.725 555.248 301.312 556 301.312C556.752 301.312 557.362 300.725 557.362 300C557.362 299.275 556.752 298.688 556 298.688ZM557.053 293C557.683 293 558.231 293.415 558.378 294.005L558.6 294.892C558.841 295.006 559.071 295.135 559.289 295.277L560.2 295.019C560.804 294.847 561.451 295.096 561.766 295.621L562.819 297.378C563.131 297.903 563.032 298.567 562.578 298.986L561.888 299.593C561.897 299.743 561.903 299.871 561.903 300C561.903 300.129 561.897 300.257 561.888 300.383L562.578 301.014C563.032 301.433 563.131 302.097 562.819 302.622L561.766 304.378C561.451 304.903 560.804 305.152 560.2 304.982L559.289 304.722C559.071 304.864 558.841 304.993 558.6 305.108L558.378 305.996C558.231 306.584 557.683 307 557.053 307H554.947C554.317 307 553.77 306.584 553.622 305.996L553.401 305.108C553.16 304.993 552.93 304.864 552.711 304.722L551.775 304.982C551.197 305.152 550.55 304.903 550.235 304.378L549.183 302.622C548.868 302.097 548.967 301.433 549.423 301.014L550.111 300.383C550.102 300.257 550.098 300.129 550.098 299.975C550.098 299.871 550.102 299.743 550.111 299.593L549.423 298.986C548.967 298.567 548.868 297.903 549.183 297.378L550.235 295.621C550.55 295.096 551.197 294.847 551.775 295.019L552.711 295.277C552.93 295.135 553.16 295.006 553.401 294.892L553.622 294.005C553.77 293.415 554.317 293 554.947 293L557.053 293ZM554.567 295.833L554.249 295.961C553.889 296.106 553.554 296.295 553.25 296.519L552.975 296.721L551.415 296.279L550.362 298.034L551.54 299.114L551.496 299.442C551.472 299.625 551.46 299.811 551.46 300C551.46 300.189 551.472 300.375 551.496 300.558L551.54 300.886L550.362 301.966L551.415 303.721L552.975 303.279L553.25 303.481C553.554 303.705 553.889 303.894 554.249 304.039L554.567 304.167L554.947 305.688H557.053L557.433 304.167L557.751 304.039C558.111 303.894 558.446 303.705 558.75 303.481L559.025 303.279L560.586 303.721L561.639 301.966L560.461 300.886L560.504 300.558C560.529 300.375 560.541 300.189 560.541 300C560.541 299.811 560.529 299.625 560.504 299.442L560.461 299.114L561.639 298.034L560.586 296.279L559.025 296.721L558.75 296.519C558.446 296.295 558.111 296.106 557.751 295.961L557.433 295.833L557.053 294.312H554.947L554.567 295.833Z" fill="#1A1A1A"/>
</g>
<defs>
<filter id="filter0_dd_7688_87002" x="38" y="39" width="564" height="76" filterUnits="userSpaceOnUse" color-interpolation-filters="sRGB">
<feFlood flood-opacity="0" result="BackgroundImageFix"/>
<feColorMatrix in="SourceAlpha" type="matrix" values="0 0 0 0 0 0 0 0 0 0 0 0 0 0 0 0 0 0 127 0" result="hardAlpha"/>
<feOffset dy="2"/>
<feGaussianBlur stdDeviation="0.5"/>
<feColorMatrix type="matrix" values="0 0 0 0 0.45098 0 0 0 0 0.45098 0 0 0 0 0.45098 0 0 0 0.05 0"/>
<feBlend mode="normal" in2="BackgroundImageFix" result="effect1_dropShadow_7688_87002"/>
<feColorMatrix in="SourceAlpha" type="matrix" values="0 0 0 0 0 0 0 0 0 0 0 0 0 0 0 0 0 0 127 0" result="hardAlpha"/>
<feOffset dy="1"/>
<feGaussianBlur stdDeviation="1"/>
<feColorMatrix type="matrix" values="0 0 0 0 0.45098 0 0 0 0 0.45098 0 0 0 0 0.45098 0 0 0 0.05 0"/>
<feBlend mode="normal" in2="effect1_dropShadow_7688_87002" result="effect2_dropShadow_7688_87002"/>
<feBlend mode="normal" in="SourceGraphic" in2="effect2_dropShadow_7688_87002" result="shape"/>
</filter>
<filter id="filter1_di_7688_87002" x="36" y="262" width="568" height="80" filterUnits="userSpaceOnUse" color-interpolation-filters="sRGB">
<feFlood flood-opacity="0" result="BackgroundImageFix"/>
<feColorMatrix in="SourceAlpha" type="matrix" values="0 0 0 0 0 0 0 0 0 0 0 0 0 0 0 0 0 0 127 0" result="hardAlpha"/>
<feOffset dy="2"/>
<feGaussianBlur stdDeviation="2"/>
<feComposite in2="hardAlpha" operator="out"/>
<feColorMatrix type="matrix" values="0 0 0 0 0.101961 0 0 0 0 0.101961 0 0 0 0 0.101961 0 0 0 0.05 0"/>
<feBlend mode="normal" in2="BackgroundImageFix" result="effect1_dropShadow_7688_87002"/>
<feBlend mode="normal" in="SourceGraphic" in2="effect1_dropShadow_7688_87002" result="shape"/>
<feColorMatrix in="SourceAlpha" type="matrix" values="0 0 0 0 0 0 0 0 0 0 0 0 0 0 0 0 0 0 127 0" result="hardAlpha"/>
<feOffset dy="-2"/>
<feComposite in2="hardAlpha" operator="arithmetic" k2="-1" k3="1"/>
<feColorMatrix type="matrix" values="0 0 0 0 0.956863 0 0 0 0 0.360784 0 0 0 0 0.34902 0 0 0 1 0"/>
<feBlend mode="normal" in2="shape" result="effect2_innerShadow_7688_87002"/>
</filter>
</defs>
</svg>
