<svg width="486" height="406" viewBox="0 0 486 406" fill="none" xmlns="http://www.w3.org/2000/svg">
<g clip-path="url(#clip0_2522_45089)">
<rect width="486" height="406" rx="4" fill="#F8F8F8"/>
<g filter="url(#filter0_dddddd_2522_45089)">
<rect x="116" y="88" width="254" height="230" rx="8" fill="white"/>
</g>
<rect x="161" y="193" width="20" height="20" rx="4" fill="#0059FF"/>
<path d="M169.238 207.088L165.338 203.166C165.104 202.93 165.104 202.548 165.338 202.312L166.186 201.459C166.421 201.223 166.801 201.223 167.035 201.459L169.662 204.101L174.965 198.912C175.199 198.676 175.579 198.676 175.814 198.912L176.662 199.765C176.896 200.001 176.896 200.383 176.662 200.619L170.086 207.088C169.852 207.324 169.472 207.324 169.238 207.088Z" fill="white"/>
<path d="M196.676 204.609H198.082C198.009 205.283 197.816 205.886 197.503 206.418C197.191 206.95 196.749 207.373 196.178 207.685C195.606 207.993 194.894 208.146 194.039 208.146C193.414 208.146 192.845 208.029 192.333 207.795C191.825 207.561 191.388 207.229 191.021 206.799C190.655 206.364 190.372 205.844 190.172 205.239C189.977 204.628 189.879 203.95 189.879 203.203V202.141C189.879 201.394 189.977 200.717 190.172 200.112C190.372 199.501 190.658 198.979 191.029 198.544C191.405 198.11 191.856 197.775 192.384 197.541C192.911 197.307 193.504 197.189 194.164 197.189C194.969 197.189 195.65 197.341 196.207 197.644C196.764 197.946 197.196 198.366 197.503 198.903C197.816 199.436 198.009 200.053 198.082 200.756H196.676C196.607 200.258 196.48 199.831 196.295 199.475C196.109 199.113 195.846 198.835 195.504 198.64C195.162 198.444 194.715 198.347 194.164 198.347C193.69 198.347 193.272 198.437 192.911 198.618C192.555 198.798 192.254 199.055 192.01 199.387C191.771 199.719 191.59 200.117 191.468 200.581C191.346 201.044 191.285 201.56 191.285 202.126V203.203C191.285 203.725 191.339 204.216 191.446 204.675C191.559 205.134 191.727 205.537 191.952 205.883C192.176 206.23 192.462 206.503 192.809 206.704C193.155 206.899 193.565 206.997 194.039 206.997C194.64 206.997 195.118 206.901 195.475 206.711C195.831 206.521 196.1 206.247 196.28 205.891C196.466 205.534 196.598 205.107 196.676 204.609ZM201.158 196.75V208H199.803V196.75H201.158ZM200.836 203.737L200.272 203.715C200.277 203.173 200.357 202.673 200.514 202.214C200.67 201.75 200.89 201.347 201.173 201.005C201.456 200.664 201.793 200.4 202.184 200.214C202.579 200.024 203.016 199.929 203.495 199.929C203.885 199.929 204.237 199.982 204.549 200.09C204.862 200.192 205.128 200.358 205.348 200.588C205.572 200.817 205.743 201.115 205.86 201.481C205.978 201.843 206.036 202.285 206.036 202.807V208H204.674V202.792C204.674 202.377 204.613 202.045 204.491 201.796C204.369 201.542 204.19 201.359 203.956 201.247C203.722 201.13 203.434 201.071 203.092 201.071C202.755 201.071 202.447 201.142 202.169 201.284C201.896 201.425 201.659 201.621 201.458 201.87C201.263 202.119 201.109 202.404 200.997 202.727C200.89 203.044 200.836 203.381 200.836 203.737ZM211.354 208.146C210.802 208.146 210.301 208.054 209.852 207.868C209.408 207.678 209.024 207.412 208.702 207.07C208.385 206.728 208.141 206.323 207.97 205.854C207.799 205.385 207.713 204.873 207.713 204.316V204.008C207.713 203.364 207.809 202.79 207.999 202.287C208.189 201.779 208.448 201.35 208.775 200.998C209.103 200.646 209.474 200.38 209.889 200.2C210.304 200.019 210.733 199.929 211.178 199.929C211.744 199.929 212.232 200.026 212.643 200.222C213.058 200.417 213.397 200.69 213.661 201.042C213.924 201.389 214.12 201.799 214.247 202.272C214.374 202.741 214.437 203.254 214.437 203.811V204.418H208.519V203.312H213.082V203.21C213.062 202.858 212.989 202.517 212.862 202.185C212.74 201.853 212.545 201.579 212.276 201.364C212.008 201.149 211.642 201.042 211.178 201.042C210.87 201.042 210.587 201.108 210.328 201.24C210.069 201.367 209.847 201.557 209.662 201.811C209.476 202.065 209.332 202.375 209.229 202.741C209.127 203.107 209.076 203.53 209.076 204.008V204.316C209.076 204.692 209.127 205.046 209.229 205.378C209.337 205.705 209.491 205.993 209.691 206.242C209.896 206.491 210.143 206.687 210.431 206.828C210.724 206.97 211.056 207.041 211.427 207.041C211.905 207.041 212.311 206.943 212.643 206.748C212.975 206.552 213.265 206.291 213.514 205.964L214.334 206.616C214.164 206.875 213.946 207.121 213.683 207.355C213.419 207.59 213.094 207.78 212.708 207.927C212.328 208.073 211.876 208.146 211.354 208.146ZM219.19 207.033C219.513 207.033 219.811 206.967 220.084 206.835C220.357 206.704 220.582 206.523 220.758 206.293C220.934 206.059 221.034 205.793 221.058 205.495H222.347C222.323 205.964 222.164 206.401 221.871 206.806C221.583 207.207 221.205 207.531 220.736 207.78C220.267 208.024 219.752 208.146 219.19 208.146C218.595 208.146 218.075 208.042 217.63 207.832C217.191 207.622 216.825 207.333 216.532 206.967C216.244 206.601 216.026 206.181 215.88 205.708C215.738 205.229 215.667 204.724 215.667 204.191V203.884C215.667 203.352 215.738 202.849 215.88 202.375C216.026 201.896 216.244 201.474 216.532 201.108C216.825 200.742 217.191 200.454 217.63 200.244C218.075 200.034 218.595 199.929 219.19 199.929C219.811 199.929 220.353 200.056 220.816 200.31C221.28 200.559 221.644 200.9 221.908 201.335C222.176 201.765 222.323 202.253 222.347 202.8H221.058C221.034 202.473 220.941 202.177 220.78 201.914C220.624 201.65 220.409 201.44 220.135 201.284C219.867 201.123 219.552 201.042 219.19 201.042C218.775 201.042 218.426 201.125 218.143 201.291C217.865 201.452 217.643 201.672 217.477 201.95C217.315 202.224 217.198 202.529 217.125 202.866C217.057 203.198 217.022 203.537 217.022 203.884V204.191C217.022 204.538 217.057 204.88 217.125 205.217C217.193 205.554 217.308 205.859 217.469 206.132C217.635 206.406 217.857 206.625 218.136 206.792C218.419 206.953 218.771 207.033 219.19 207.033ZM225.233 196.75V208H223.871V196.75H225.233ZM230.074 200.075L226.617 203.774L224.684 205.781L224.574 204.338L225.958 202.683L228.419 200.075H230.074ZM228.836 208L226.009 204.221L226.712 203.012L230.433 208H228.836ZM231.466 196.75H232.828V206.462L232.711 208H231.466V196.75ZM238.182 203.972V204.125C238.182 204.702 238.114 205.236 237.977 205.729C237.84 206.218 237.64 206.643 237.376 207.004C237.113 207.365 236.791 207.646 236.41 207.846C236.029 208.046 235.592 208.146 235.099 208.146C234.596 208.146 234.154 208.061 233.773 207.89C233.397 207.714 233.08 207.463 232.821 207.136C232.562 206.809 232.354 206.413 232.198 205.949C232.047 205.485 231.942 204.963 231.883 204.382V203.708C231.942 203.122 232.047 202.597 232.198 202.133C232.354 201.669 232.562 201.274 232.821 200.947C233.08 200.615 233.397 200.363 233.773 200.192C234.149 200.017 234.586 199.929 235.084 199.929C235.582 199.929 236.024 200.026 236.41 200.222C236.795 200.412 237.118 200.686 237.376 201.042C237.64 201.398 237.84 201.826 237.977 202.324C238.114 202.817 238.182 203.366 238.182 203.972ZM236.82 204.125V203.972C236.82 203.576 236.783 203.205 236.71 202.858C236.637 202.507 236.52 202.199 236.358 201.936C236.197 201.667 235.985 201.457 235.721 201.306C235.458 201.149 235.133 201.071 234.747 201.071C234.405 201.071 234.107 201.13 233.854 201.247C233.604 201.364 233.392 201.523 233.216 201.723C233.041 201.918 232.896 202.143 232.784 202.397C232.677 202.646 232.596 202.905 232.542 203.173V204.938C232.621 205.28 232.748 205.61 232.923 205.927C233.104 206.24 233.343 206.496 233.641 206.696C233.944 206.896 234.317 206.997 234.762 206.997C235.128 206.997 235.44 206.923 235.699 206.777C235.963 206.625 236.175 206.418 236.336 206.154C236.502 205.891 236.625 205.585 236.703 205.239C236.781 204.892 236.82 204.521 236.82 204.125ZM239.537 204.125V203.957C239.537 203.386 239.62 202.856 239.786 202.368C239.952 201.875 240.191 201.447 240.504 201.086C240.816 200.72 241.195 200.437 241.639 200.236C242.083 200.031 242.582 199.929 243.133 199.929C243.69 199.929 244.19 200.031 244.635 200.236C245.084 200.437 245.465 200.72 245.777 201.086C246.095 201.447 246.336 201.875 246.502 202.368C246.668 202.856 246.751 203.386 246.751 203.957V204.125C246.751 204.697 246.668 205.227 246.502 205.715C246.336 206.203 246.095 206.63 245.777 206.997C245.465 207.358 245.086 207.641 244.642 207.846C244.203 208.046 243.705 208.146 243.148 208.146C242.591 208.146 242.091 208.046 241.646 207.846C241.202 207.641 240.821 207.358 240.504 206.997C240.191 206.63 239.952 206.203 239.786 205.715C239.62 205.227 239.537 204.697 239.537 204.125ZM240.892 203.957V204.125C240.892 204.521 240.938 204.895 241.031 205.246C241.124 205.593 241.263 205.9 241.449 206.169C241.639 206.438 241.876 206.65 242.159 206.806C242.442 206.958 242.772 207.033 243.148 207.033C243.519 207.033 243.844 206.958 244.122 206.806C244.405 206.65 244.64 206.438 244.825 206.169C245.011 205.9 245.15 205.593 245.243 205.246C245.34 204.895 245.389 204.521 245.389 204.125V203.957C245.389 203.566 245.34 203.198 245.243 202.851C245.15 202.5 245.008 202.189 244.818 201.921C244.632 201.647 244.398 201.433 244.115 201.276C243.836 201.12 243.509 201.042 243.133 201.042C242.762 201.042 242.435 201.12 242.152 201.276C241.874 201.433 241.639 201.647 241.449 201.921C241.263 202.189 241.124 202.5 241.031 202.851C240.938 203.198 240.892 203.566 240.892 203.957ZM249.205 200.075L250.941 202.961L252.699 200.075H254.288L251.695 203.986L254.369 208H252.801L250.97 205.026L249.139 208H247.564L250.23 203.986L247.645 200.075H249.205ZM260.924 196.75V208H259.562V196.75H260.924ZM267.772 206.645V202.565C267.772 202.253 267.708 201.982 267.582 201.752C267.459 201.518 267.274 201.337 267.025 201.21C266.776 201.083 266.468 201.02 266.102 201.02C265.76 201.02 265.46 201.079 265.201 201.196C264.947 201.313 264.747 201.467 264.601 201.657C264.459 201.848 264.388 202.053 264.388 202.272H263.033C263.033 201.989 263.106 201.708 263.253 201.43C263.399 201.152 263.609 200.9 263.883 200.676C264.161 200.446 264.493 200.266 264.879 200.134C265.27 199.997 265.704 199.929 266.183 199.929C266.759 199.929 267.267 200.026 267.706 200.222C268.15 200.417 268.497 200.712 268.746 201.108C269 201.499 269.127 201.989 269.127 202.58V206.271C269.127 206.535 269.149 206.816 269.193 207.114C269.242 207.412 269.312 207.668 269.405 207.883V208H267.992C267.923 207.844 267.87 207.636 267.831 207.377C267.792 207.114 267.772 206.87 267.772 206.645ZM268.006 203.195L268.021 204.147H266.651C266.266 204.147 265.921 204.179 265.619 204.243C265.316 204.301 265.062 204.392 264.857 204.514C264.652 204.636 264.496 204.79 264.388 204.975C264.281 205.156 264.227 205.368 264.227 205.612C264.227 205.861 264.283 206.088 264.396 206.293C264.508 206.499 264.676 206.662 264.901 206.784C265.13 206.901 265.411 206.96 265.743 206.96C266.158 206.96 266.524 206.872 266.842 206.696C267.159 206.521 267.411 206.306 267.596 206.052C267.787 205.798 267.889 205.551 267.904 205.312L268.482 205.964C268.448 206.169 268.355 206.396 268.204 206.645C268.053 206.894 267.85 207.133 267.596 207.363C267.347 207.587 267.049 207.775 266.703 207.927C266.361 208.073 265.975 208.146 265.545 208.146C265.008 208.146 264.537 208.042 264.132 207.832C263.731 207.622 263.419 207.341 263.194 206.989C262.975 206.633 262.865 206.235 262.865 205.795C262.865 205.371 262.948 204.997 263.114 204.675C263.28 204.348 263.519 204.077 263.832 203.862C264.144 203.642 264.52 203.476 264.959 203.364C265.399 203.251 265.89 203.195 266.432 203.195H268.006ZM271.251 196.75H272.613V206.462L272.496 208H271.251V196.75ZM277.967 203.972V204.125C277.967 204.702 277.899 205.236 277.762 205.729C277.625 206.218 277.425 206.643 277.162 207.004C276.898 207.365 276.576 207.646 276.195 207.846C275.814 208.046 275.377 208.146 274.884 208.146C274.381 208.146 273.939 208.061 273.558 207.89C273.182 207.714 272.865 207.463 272.606 207.136C272.347 206.809 272.14 206.413 271.983 205.949C271.832 205.485 271.727 204.963 271.668 204.382V203.708C271.727 203.122 271.832 202.597 271.983 202.133C272.14 201.669 272.347 201.274 272.606 200.947C272.865 200.615 273.182 200.363 273.558 200.192C273.934 200.017 274.371 199.929 274.869 199.929C275.367 199.929 275.809 200.026 276.195 200.222C276.581 200.412 276.903 200.686 277.162 201.042C277.425 201.398 277.625 201.826 277.762 202.324C277.899 202.817 277.967 203.366 277.967 203.972ZM276.605 204.125V203.972C276.605 203.576 276.568 203.205 276.495 202.858C276.422 202.507 276.305 202.199 276.144 201.936C275.982 201.667 275.77 201.457 275.506 201.306C275.243 201.149 274.918 201.071 274.532 201.071C274.19 201.071 273.893 201.13 273.639 201.247C273.39 201.364 273.177 201.523 273.001 201.723C272.826 201.918 272.682 202.143 272.569 202.397C272.462 202.646 272.381 202.905 272.328 203.173V204.938C272.406 205.28 272.533 205.61 272.708 205.927C272.889 206.24 273.128 206.496 273.426 206.696C273.729 206.896 274.103 206.997 274.547 206.997C274.913 206.997 275.226 206.923 275.484 206.777C275.748 206.625 275.96 206.418 276.122 206.154C276.288 205.891 276.41 205.585 276.488 205.239C276.566 204.892 276.605 204.521 276.605 204.125ZM282.97 208.146C282.418 208.146 281.917 208.054 281.468 207.868C281.024 207.678 280.641 207.412 280.318 207.07C280.001 206.728 279.757 206.323 279.586 205.854C279.415 205.385 279.33 204.873 279.33 204.316V204.008C279.33 203.364 279.425 202.79 279.615 202.287C279.806 201.779 280.064 201.35 280.392 200.998C280.719 200.646 281.09 200.38 281.505 200.2C281.92 200.019 282.35 199.929 282.794 199.929C283.36 199.929 283.849 200.026 284.259 200.222C284.674 200.417 285.013 200.69 285.277 201.042C285.541 201.389 285.736 201.799 285.863 202.272C285.99 202.741 286.053 203.254 286.053 203.811V204.418H280.135V203.312H284.698V203.21C284.679 202.858 284.605 202.517 284.479 202.185C284.356 201.853 284.161 201.579 283.893 201.364C283.624 201.149 283.258 201.042 282.794 201.042C282.486 201.042 282.203 201.108 281.944 201.24C281.686 201.367 281.463 201.557 281.278 201.811C281.092 202.065 280.948 202.375 280.846 202.741C280.743 203.107 280.692 203.53 280.692 204.008V204.316C280.692 204.692 280.743 205.046 280.846 205.378C280.953 205.705 281.107 205.993 281.307 206.242C281.512 206.491 281.759 206.687 282.047 206.828C282.34 206.97 282.672 207.041 283.043 207.041C283.521 207.041 283.927 206.943 284.259 206.748C284.591 206.552 284.881 206.291 285.13 205.964L285.951 206.616C285.78 206.875 285.562 207.121 285.299 207.355C285.035 207.59 284.71 207.78 284.325 207.927C283.944 208.073 283.492 208.146 282.97 208.146ZM289.107 196.75V208H287.745V196.75H289.107Z" fill="#1A1A1A"/>
<rect x="260" y="33" width="26" height="26" rx="4" fill="#333333"/>
<path d="M276.424 49.6875V51H269.752V49.8721L272.992 46.3379C273.348 45.9368 273.628 45.5905 273.833 45.2988C274.038 45.0072 274.182 44.7451 274.264 44.5127C274.35 44.2757 274.394 44.0456 274.394 43.8223C274.394 43.5078 274.334 43.2321 274.216 42.9951C274.102 42.7536 273.933 42.5645 273.71 42.4277C273.487 42.2865 273.215 42.2158 272.896 42.2158C272.527 42.2158 272.217 42.2956 271.967 42.4551C271.716 42.6146 271.527 42.8356 271.399 43.1182C271.272 43.3962 271.208 43.7152 271.208 44.0752H269.561C269.561 43.4964 269.693 42.9678 269.957 42.4893C270.221 42.0062 270.604 41.6234 271.105 41.3408C271.607 41.0537 272.211 40.9102 272.917 40.9102C273.582 40.9102 274.147 41.0218 274.612 41.2451C275.077 41.4684 275.43 41.7852 275.672 42.1953C275.918 42.6055 276.041 43.0908 276.041 43.6514C276.041 43.9613 275.991 44.2689 275.891 44.5742C275.79 44.8796 275.647 45.1849 275.46 45.4902C275.278 45.791 275.061 46.0941 274.811 46.3994C274.56 46.7002 274.284 47.0055 273.983 47.3154L271.83 49.6875H276.424Z" fill="white"/>
<path d="M273 184L275.887 179L270.113 179L273 184ZM273.5 179.5L273.5 63L272.5 63L272.5 179.5L273.5 179.5Z" fill="#737373"/>
<rect x="57" y="190" width="26" height="26" rx="4" fill="#333333"/>
<path d="M71.25 198.013V208H69.6025V199.968L67.1621 200.795V199.435L71.0518 198.013H71.25Z" fill="white"/>
<path d="M146 203L141 200.113V205.887L146 203ZM141.5 202.5H87V203.5H141.5V202.5Z" fill="#737373"/>
</g>
<defs>
<filter id="filter0_dddddd_2522_45089" x="36" y="88" width="414" height="410" filterUnits="userSpaceOnUse" color-interpolation-filters="sRGB">
<feFlood flood-opacity="0" result="BackgroundImageFix"/>
<feColorMatrix in="SourceAlpha" type="matrix" values="0 0 0 0 0 0 0 0 0 0 0 0 0 0 0 0 0 0 127 0" result="hardAlpha"/>
<feOffset dy="2.76726"/>
<feGaussianBlur stdDeviation="1.1069"/>
<feColorMatrix type="matrix" values="0 0 0 0 0 0 0 0 0 0 0 0 0 0 0 0 0 0 0.0196802 0"/>
<feBlend mode="normal" in2="BackgroundImageFix" result="effect1_dropShadow_2522_45089"/>
<feColorMatrix in="SourceAlpha" type="matrix" values="0 0 0 0 0 0 0 0 0 0 0 0 0 0 0 0 0 0 127 0" result="hardAlpha"/>
<feOffset dy="6.6501"/>
<feGaussianBlur stdDeviation="2.66004"/>
<feColorMatrix type="matrix" values="0 0 0 0 0 0 0 0 0 0 0 0 0 0 0 0 0 0 0.0282725 0"/>
<feBlend mode="normal" in2="effect1_dropShadow_2522_45089" result="effect2_dropShadow_2522_45089"/>
<feColorMatrix in="SourceAlpha" type="matrix" values="0 0 0 0 0 0 0 0 0 0 0 0 0 0 0 0 0 0 127 0" result="hardAlpha"/>
<feOffset dy="12.5216"/>
<feGaussianBlur stdDeviation="5.00862"/>
<feColorMatrix type="matrix" values="0 0 0 0 0 0 0 0 0 0 0 0 0 0 0 0 0 0 0.035 0"/>
<feBlend mode="normal" in2="effect2_dropShadow_2522_45089" result="effect3_dropShadow_2522_45089"/>
<feColorMatrix in="SourceAlpha" type="matrix" values="0 0 0 0 0 0 0 0 0 0 0 0 0 0 0 0 0 0 127 0" result="hardAlpha"/>
<feOffset dy="22.3363"/>
<feGaussianBlur stdDeviation="8.93452"/>
<feColorMatrix type="matrix" values="0 0 0 0 0 0 0 0 0 0 0 0 0 0 0 0 0 0 0.0417275 0"/>
<feBlend mode="normal" in2="effect3_dropShadow_2522_45089" result="effect4_dropShadow_2522_45089"/>
<feColorMatrix in="SourceAlpha" type="matrix" values="0 0 0 0 0 0 0 0 0 0 0 0 0 0 0 0 0 0 127 0" result="hardAlpha"/>
<feOffset dy="41.7776"/>
<feGaussianBlur stdDeviation="16.711"/>
<feColorMatrix type="matrix" values="0 0 0 0 0 0 0 0 0 0 0 0 0 0 0 0 0 0 0.0503198 0"/>
<feBlend mode="normal" in2="effect4_dropShadow_2522_45089" result="effect5_dropShadow_2522_45089"/>
<feColorMatrix in="SourceAlpha" type="matrix" values="0 0 0 0 0 0 0 0 0 0 0 0 0 0 0 0 0 0 127 0" result="hardAlpha"/>
<feOffset dy="100"/>
<feGaussianBlur stdDeviation="40"/>
<feColorMatrix type="matrix" values="0 0 0 0 0 0 0 0 0 0 0 0 0 0 0 0 0 0 0.07 0"/>
<feBlend mode="normal" in2="effect5_dropShadow_2522_45089" result="effect6_dropShadow_2522_45089"/>
<feBlend mode="normal" in="SourceGraphic" in2="effect6_dropShadow_2522_45089" result="shape"/>
</filter>
<clipPath id="clip0_2522_45089">
<rect width="486" height="406" rx="4" fill="white"/>
</clipPath>
</defs>
</svg>
