<svg width="640" height="310" viewBox="0 0 640 310" fill="none" xmlns="http://www.w3.org/2000/svg">
<rect width="640" height="310" rx="16" fill="#F8F8F8"/>
<path d="M40 56C40 47.1634 47.1634 40 56 40H284C292.837 40 300 47.1634 300 56V254C300 262.837 292.837 270 284 270H56C47.1634 270 40 262.837 40 254V56Z" fill="white"/>
<path d="M340 56C340 47.1634 347.163 40 356 40H584C592.837 40 600 47.1634 600 56V254C600 262.837 592.837 270 584 270H356C347.163 270 340 262.837 340 254V56Z" fill="white"/>
<path d="M245 155C245 196.421 211.421 230 170 230C128.579 230 95 196.421 95 155C95 113.579 128.579 80 170 80C211.421 80 245 113.579 245 155ZM110 155C110 188.137 136.863 215 170 215C203.137 215 230 188.137 230 155C230 121.863 203.137 95 170 95C136.863 95 110 121.863 110 155Z" fill="#F2F2F2"/>
<path d="M170 80C181.836 80 193.504 82.8012 204.049 88.1745C214.595 93.5478 223.719 101.341 230.676 110.916C237.633 120.491 242.225 131.577 244.077 143.267C245.928 154.957 244.987 166.92 241.329 178.176C237.672 189.433 231.402 199.664 223.033 208.033C214.664 216.402 204.433 222.672 193.176 226.329C181.92 229.987 169.957 230.928 158.267 229.077C146.577 227.225 135.491 222.633 125.916 215.676L134.733 203.541C142.393 209.107 151.262 212.78 160.614 214.261C169.966 215.743 179.536 214.989 188.541 212.063C197.546 209.137 205.731 204.122 212.426 197.426C219.122 190.731 224.137 182.546 227.063 173.541C229.989 164.536 230.743 154.966 229.261 145.614C227.78 136.262 224.107 127.393 218.541 119.733C212.976 112.073 205.676 105.838 197.239 101.54C188.803 97.2409 179.469 95 170 95V80Z" fill="#FFCC20"/>
<path d="M152.996 140.27H153.816V144.762H153.484C152 144.762 150.678 144.983 149.52 145.426C148.361 145.868 147.378 146.5 146.57 147.32C145.776 148.128 145.164 149.104 144.734 150.25C144.318 151.396 144.109 152.678 144.109 154.098V158.824C144.109 159.84 144.207 160.738 144.402 161.52C144.611 162.288 144.904 162.932 145.281 163.453C145.672 163.961 146.128 164.345 146.648 164.605C147.169 164.853 147.755 164.977 148.406 164.977C149.018 164.977 149.572 164.846 150.066 164.586C150.574 164.326 151.004 163.961 151.355 163.492C151.72 163.01 151.993 162.451 152.176 161.812C152.371 161.161 152.469 160.452 152.469 159.684C152.469 158.915 152.371 158.206 152.176 157.555C151.993 156.904 151.72 156.344 151.355 155.875C150.991 155.393 150.548 155.022 150.027 154.762C149.507 154.501 148.921 154.371 148.27 154.371C147.384 154.371 146.603 154.579 145.926 154.996C145.262 155.4 144.741 155.921 144.363 156.559C143.986 157.197 143.784 157.867 143.758 158.57L142.059 157.477C142.098 156.474 142.306 155.523 142.684 154.625C143.074 153.727 143.608 152.932 144.285 152.242C144.975 151.539 145.802 150.992 146.766 150.602C147.729 150.198 148.816 149.996 150.027 149.996C151.355 149.996 152.521 150.25 153.523 150.758C154.539 151.266 155.385 151.962 156.062 152.848C156.74 153.733 157.247 154.755 157.586 155.914C157.924 157.073 158.094 158.31 158.094 159.625C158.094 161.005 157.866 162.288 157.41 163.473C156.967 164.658 156.323 165.693 155.477 166.578C154.643 167.464 153.641 168.154 152.469 168.648C151.297 169.143 149.982 169.391 148.523 169.391C147.013 169.391 145.639 169.117 144.402 168.57C143.178 168.01 142.124 167.229 141.238 166.227C140.353 165.224 139.669 164.033 139.188 162.652C138.719 161.272 138.484 159.762 138.484 158.121V155.934C138.484 153.642 138.816 151.546 139.48 149.645C140.158 147.73 141.128 146.077 142.391 144.684C143.654 143.277 145.177 142.19 146.961 141.422C148.745 140.654 150.757 140.27 152.996 140.27ZM180.594 152.281V157.203C180.594 159.339 180.366 161.181 179.91 162.73C179.454 164.267 178.797 165.53 177.938 166.52C177.091 167.496 176.082 168.219 174.91 168.688C173.738 169.156 172.436 169.391 171.004 169.391C169.858 169.391 168.79 169.247 167.801 168.961C166.811 168.661 165.919 168.199 165.125 167.574C164.344 166.949 163.667 166.161 163.094 165.211C162.534 164.247 162.104 163.102 161.805 161.773C161.505 160.445 161.355 158.922 161.355 157.203V152.281C161.355 150.146 161.583 148.316 162.039 146.793C162.508 145.257 163.165 144 164.012 143.023C164.871 142.047 165.887 141.331 167.059 140.875C168.23 140.406 169.533 140.172 170.965 140.172C172.111 140.172 173.172 140.322 174.148 140.621C175.138 140.908 176.03 141.357 176.824 141.969C177.618 142.581 178.296 143.368 178.855 144.332C179.415 145.283 179.845 146.422 180.145 147.75C180.444 149.065 180.594 150.576 180.594 152.281ZM174.949 157.945V151.52C174.949 150.491 174.891 149.592 174.773 148.824C174.669 148.056 174.507 147.405 174.285 146.871C174.064 146.324 173.79 145.882 173.465 145.543C173.139 145.204 172.768 144.957 172.352 144.801C171.935 144.645 171.473 144.566 170.965 144.566C170.327 144.566 169.76 144.69 169.266 144.938C168.784 145.185 168.374 145.582 168.035 146.129C167.697 146.663 167.436 147.379 167.254 148.277C167.085 149.163 167 150.243 167 151.52V157.945C167 158.974 167.052 159.879 167.156 160.66C167.273 161.441 167.443 162.112 167.664 162.672C167.898 163.219 168.172 163.668 168.484 164.02C168.81 164.358 169.181 164.605 169.598 164.762C170.027 164.918 170.496 164.996 171.004 164.996C171.629 164.996 172.182 164.872 172.664 164.625C173.159 164.365 173.576 163.961 173.914 163.414C174.266 162.854 174.526 162.125 174.695 161.227C174.865 160.328 174.949 159.234 174.949 157.945Z" fill="#1A1A1A"/>
<path d="M186.625 156.121V155.219C186.625 154.57 186.766 153.98 187.047 153.449C187.328 152.918 187.742 152.492 188.289 152.172C188.836 151.852 189.508 151.691 190.305 151.691C191.125 151.691 191.809 151.852 192.355 152.172C192.91 152.492 193.324 152.918 193.598 153.449C193.879 153.98 194.02 154.57 194.02 155.219V156.121C194.02 156.754 193.879 157.336 193.598 157.867C193.324 158.398 192.914 158.824 192.367 159.145C191.82 159.465 191.145 159.625 190.34 159.625C189.527 159.625 188.844 159.465 188.289 159.145C187.742 158.824 187.328 158.398 187.047 157.867C186.766 157.336 186.625 156.754 186.625 156.121ZM188.863 155.219V156.121C188.863 156.395 188.914 156.656 189.016 156.906C189.125 157.148 189.289 157.348 189.508 157.504C189.734 157.652 190.008 157.727 190.328 157.727C190.664 157.727 190.938 157.652 191.148 157.504C191.359 157.348 191.516 157.148 191.617 156.906C191.719 156.656 191.77 156.395 191.77 156.121V155.219C191.77 154.93 191.715 154.664 191.605 154.422C191.504 154.172 191.344 153.973 191.125 153.824C190.914 153.668 190.641 153.59 190.305 153.59C189.992 153.59 189.727 153.668 189.508 153.824C189.289 153.973 189.125 154.172 189.016 154.422C188.914 154.664 188.863 154.93 188.863 155.219ZM194.781 165.719V164.816C194.781 164.176 194.922 163.59 195.203 163.059C195.492 162.527 195.91 162.102 196.457 161.781C197.012 161.461 197.691 161.301 198.496 161.301C199.309 161.301 199.988 161.461 200.535 161.781C201.082 162.102 201.496 162.527 201.777 163.059C202.059 163.59 202.199 164.176 202.199 164.816V165.719C202.199 166.359 202.059 166.945 201.777 167.477C201.504 168.008 201.094 168.434 200.547 168.754C200 169.074 199.324 169.234 198.52 169.234C197.707 169.234 197.023 169.074 196.469 168.754C195.914 168.434 195.492 168.008 195.203 167.477C194.922 166.945 194.781 166.359 194.781 165.719ZM197.031 164.816V165.719C197.031 166 197.094 166.266 197.219 166.516C197.344 166.766 197.516 166.965 197.734 167.113C197.961 167.262 198.223 167.336 198.52 167.336C198.895 167.336 199.188 167.262 199.398 167.113C199.609 166.965 199.754 166.766 199.832 166.516C199.918 166.266 199.961 166 199.961 165.719V164.816C199.961 164.535 199.906 164.273 199.797 164.031C199.688 163.781 199.523 163.582 199.305 163.434C199.094 163.277 198.824 163.199 198.496 163.199C198.168 163.199 197.895 163.277 197.676 163.434C197.465 163.582 197.305 163.781 197.195 164.031C197.086 164.273 197.031 164.535 197.031 164.816ZM199.328 154.375L190.996 167.711L189.355 166.844L197.688 153.508L199.328 154.375Z" fill="#1A1A1A"/>
<path d="M447 155C447 163.837 439.837 171 431 171C422.163 171 415 163.837 415 155C415 146.163 422.163 139 431 139C439.837 139 447 146.163 447 155ZM419 155C419 161.627 424.373 167 431 167C437.627 167 443 161.627 443 155C443 148.373 437.627 143 431 143C424.373 143 419 148.373 419 155Z" fill="#E6E6E6"/>
<path d="M431 139C433.525 139 436.014 139.598 438.264 140.744C440.514 141.89 442.46 143.553 443.944 145.595C445.428 147.638 446.408 150.003 446.803 152.497C447.198 154.991 446.997 157.543 446.217 159.944C445.437 162.346 444.099 164.528 442.314 166.314C440.528 168.099 438.346 169.437 435.944 170.217C433.543 170.997 430.991 171.198 428.497 170.803C426.003 170.408 423.638 169.428 421.595 167.944L423.947 164.708C425.479 165.821 427.252 166.556 429.123 166.852C430.993 167.149 432.907 166.998 434.708 166.413C436.509 165.827 438.146 164.824 439.485 163.485C440.824 162.146 441.827 160.509 442.413 158.708C442.998 156.907 443.149 154.993 442.852 153.123C442.556 151.252 441.821 149.479 440.708 147.947C439.595 146.415 438.135 145.168 436.448 144.308C434.761 143.448 432.894 143 431 143V139Z" fill="#FFCC20"/>
<path d="M461.138 149.27H461.357V150.713H461.233C460.603 150.713 460.059 150.811 459.6 151.006C459.146 151.201 458.772 151.47 458.479 151.812C458.186 152.153 457.966 152.554 457.82 153.013C457.678 153.467 457.607 153.95 457.607 154.463V156.14C457.607 156.565 457.654 156.941 457.747 157.268C457.839 157.59 457.969 157.861 458.135 158.081C458.306 158.296 458.501 158.459 458.721 158.572C458.94 158.684 459.177 158.74 459.431 158.74C459.695 158.74 459.934 158.687 460.149 158.579C460.364 158.467 460.547 158.313 460.698 158.118C460.85 157.922 460.964 157.69 461.042 157.422C461.121 157.153 461.16 156.86 461.16 156.543C461.16 156.24 461.121 155.957 461.042 155.693C460.969 155.425 460.859 155.19 460.713 154.99C460.566 154.785 460.383 154.626 460.164 154.514C459.949 154.397 459.7 154.338 459.417 154.338C459.065 154.338 458.745 154.421 458.457 154.587C458.174 154.753 457.944 154.971 457.769 155.239C457.598 155.503 457.505 155.784 457.49 156.082L456.816 155.862C456.855 155.408 456.956 155 457.117 154.639C457.283 154.277 457.5 153.97 457.769 153.716C458.037 153.462 458.347 153.269 458.699 153.137C459.055 153 459.446 152.932 459.871 152.932C460.388 152.932 460.837 153.03 461.218 153.225C461.599 153.42 461.914 153.687 462.163 154.023C462.417 154.355 462.605 154.736 462.727 155.166C462.854 155.591 462.917 156.035 462.917 156.499C462.917 157.012 462.839 157.49 462.683 157.935C462.527 158.374 462.297 158.76 461.995 159.092C461.697 159.424 461.333 159.683 460.903 159.868C460.479 160.054 459.995 160.146 459.453 160.146C458.882 160.146 458.372 160.037 457.922 159.817C457.478 159.597 457.1 159.294 456.787 158.909C456.479 158.523 456.245 158.079 456.084 157.576C455.923 157.073 455.842 156.541 455.842 155.979V155.247C455.842 154.436 455.945 153.672 456.15 152.954C456.355 152.231 456.67 151.594 457.095 151.042C457.524 150.491 458.074 150.059 458.743 149.746C459.412 149.429 460.21 149.27 461.138 149.27ZM471.282 153.774V155.518C471.282 156.353 471.199 157.065 471.033 157.656C470.872 158.242 470.637 158.718 470.33 159.084C470.022 159.451 469.653 159.719 469.224 159.89C468.799 160.061 468.323 160.146 467.795 160.146C467.375 160.146 466.985 160.093 466.624 159.985C466.267 159.878 465.945 159.709 465.657 159.48C465.369 159.25 465.122 158.955 464.917 158.594C464.717 158.228 464.561 157.791 464.448 157.283C464.341 156.775 464.287 156.187 464.287 155.518V153.774C464.287 152.935 464.37 152.227 464.536 151.65C464.702 151.069 464.939 150.598 465.247 150.237C465.554 149.871 465.92 149.604 466.345 149.438C466.775 149.272 467.253 149.189 467.781 149.189C468.206 149.189 468.596 149.243 468.953 149.351C469.314 149.453 469.636 149.617 469.919 149.841C470.208 150.066 470.452 150.359 470.652 150.72C470.857 151.077 471.013 151.509 471.121 152.017C471.228 152.52 471.282 153.105 471.282 153.774ZM469.517 155.767V153.511C469.517 153.086 469.492 152.712 469.443 152.39C469.395 152.063 469.321 151.787 469.224 151.562C469.131 151.333 469.014 151.147 468.872 151.006C468.73 150.859 468.569 150.754 468.389 150.691C468.208 150.623 468.005 150.588 467.781 150.588C467.507 150.588 467.263 150.642 467.048 150.75C466.833 150.852 466.653 151.018 466.506 151.248C466.36 151.477 466.248 151.78 466.169 152.156C466.096 152.527 466.06 152.979 466.06 153.511V155.767C466.06 156.196 466.084 156.575 466.133 156.902C466.182 157.229 466.255 157.51 466.353 157.744C466.45 157.974 466.567 158.164 466.704 158.315C466.846 158.462 467.007 158.569 467.188 158.638C467.373 158.706 467.576 158.74 467.795 158.74C468.074 158.74 468.32 158.687 468.535 158.579C468.75 158.472 468.931 158.301 469.077 158.066C469.224 157.827 469.333 157.517 469.407 157.136C469.48 156.755 469.517 156.299 469.517 155.767ZM472.783 151.951V151.387C472.783 150.981 472.871 150.613 473.047 150.281C473.223 149.949 473.479 149.683 473.816 149.482C474.153 149.282 474.558 149.182 475.032 149.182C475.52 149.182 475.93 149.282 476.262 149.482C476.599 149.683 476.855 149.949 477.031 150.281C477.207 150.613 477.295 150.981 477.295 151.387V151.951C477.295 152.346 477.207 152.71 477.031 153.042C476.86 153.374 476.606 153.64 476.27 153.84C475.938 154.041 475.53 154.141 475.046 154.141C474.568 154.141 474.158 154.041 473.816 153.84C473.479 153.64 473.223 153.374 473.047 153.042C472.871 152.71 472.783 152.346 472.783 151.951ZM474.006 151.387V151.951C474.006 152.146 474.043 152.332 474.116 152.507C474.194 152.683 474.312 152.825 474.468 152.932C474.624 153.04 474.817 153.093 475.046 153.093C475.281 153.093 475.471 153.04 475.618 152.932C475.769 152.825 475.881 152.683 475.955 152.507C476.028 152.332 476.064 152.146 476.064 151.951V151.387C476.064 151.187 476.025 150.999 475.947 150.823C475.874 150.642 475.762 150.498 475.61 150.391C475.459 150.283 475.266 150.229 475.032 150.229C474.807 150.229 474.617 150.283 474.46 150.391C474.309 150.498 474.194 150.642 474.116 150.823C474.043 150.999 474.006 151.187 474.006 151.387ZM477.925 157.957V157.385C477.925 156.985 478.013 156.619 478.188 156.287C478.369 155.955 478.628 155.688 478.965 155.488C479.302 155.288 479.707 155.188 480.181 155.188C480.669 155.188 481.079 155.288 481.411 155.488C481.748 155.688 482.002 155.955 482.173 156.287C482.349 156.619 482.437 156.985 482.437 157.385V157.957C482.437 158.357 482.349 158.723 482.173 159.055C482.002 159.387 481.75 159.653 481.418 159.854C481.086 160.054 480.681 160.154 480.203 160.154C479.719 160.154 479.307 160.054 478.965 159.854C478.628 159.653 478.369 159.387 478.188 159.055C478.013 158.723 477.925 158.357 477.925 157.957ZM479.155 157.385V157.957C479.155 158.152 479.194 158.337 479.272 158.513C479.355 158.689 479.475 158.833 479.631 158.945C479.788 159.053 479.976 159.106 480.195 159.106C480.444 159.106 480.645 159.053 480.796 158.945C480.947 158.833 481.055 158.691 481.118 158.521C481.187 158.345 481.221 158.157 481.221 157.957V157.385C481.221 157.185 481.182 156.997 481.104 156.821C481.03 156.646 480.916 156.504 480.759 156.396C480.608 156.289 480.415 156.235 480.181 156.235C479.951 156.235 479.761 156.289 479.609 156.396C479.458 156.504 479.343 156.646 479.265 156.821C479.192 156.997 479.155 157.185 479.155 157.385ZM480.62 150.859L475.413 159.194L474.512 158.674L479.719 150.339L480.62 150.859ZM492.185 157.854C492.185 157.678 492.141 157.52 492.053 157.378C491.965 157.231 491.797 157.1 491.548 156.982C491.304 156.865 490.942 156.758 490.464 156.66C490.044 156.567 489.658 156.458 489.307 156.331C488.96 156.199 488.662 156.04 488.413 155.854C488.164 155.669 487.971 155.449 487.834 155.195C487.698 154.941 487.629 154.648 487.629 154.316C487.629 153.994 487.7 153.689 487.842 153.401C487.983 153.113 488.186 152.859 488.45 152.639C488.713 152.419 489.033 152.246 489.409 152.119C489.79 151.992 490.215 151.929 490.684 151.929C491.348 151.929 491.917 152.041 492.39 152.266C492.869 152.485 493.235 152.786 493.489 153.167C493.743 153.542 493.87 153.967 493.87 154.441H492.104C492.104 154.231 492.051 154.036 491.943 153.855C491.841 153.669 491.685 153.521 491.475 153.408C491.265 153.291 491.001 153.232 490.684 153.232C490.381 153.232 490.129 153.281 489.929 153.379C489.734 153.472 489.587 153.594 489.49 153.745C489.397 153.896 489.351 154.062 489.351 154.243C489.351 154.375 489.375 154.495 489.424 154.602C489.478 154.705 489.565 154.8 489.688 154.888C489.81 154.971 489.976 155.049 490.186 155.122C490.4 155.195 490.669 155.266 490.991 155.334C491.597 155.461 492.117 155.625 492.551 155.825C492.991 156.021 493.328 156.274 493.562 156.587C493.796 156.895 493.914 157.285 493.914 157.759C493.914 158.11 493.838 158.433 493.687 158.726C493.54 159.014 493.325 159.265 493.042 159.48C492.759 159.69 492.419 159.854 492.024 159.971C491.633 160.088 491.194 160.146 490.706 160.146C489.988 160.146 489.38 160.02 488.882 159.766C488.384 159.507 488.005 159.177 487.747 158.777C487.493 158.372 487.366 157.952 487.366 157.517H489.072C489.092 157.844 489.182 158.105 489.343 158.301C489.509 158.491 489.714 158.63 489.958 158.718C490.208 158.801 490.464 158.843 490.728 158.843C491.045 158.843 491.311 158.801 491.526 158.718C491.741 158.63 491.904 158.513 492.017 158.367C492.129 158.215 492.185 158.044 492.185 157.854ZM498.696 158.74C498.984 158.74 499.243 158.684 499.473 158.572C499.707 158.455 499.895 158.293 500.037 158.088C500.183 157.883 500.264 157.646 500.278 157.378H501.941C501.931 157.891 501.78 158.357 501.487 158.777C501.194 159.197 500.806 159.531 500.322 159.78C499.839 160.024 499.304 160.146 498.718 160.146C498.113 160.146 497.585 160.044 497.136 159.839C496.687 159.629 496.313 159.341 496.016 158.975C495.718 158.608 495.493 158.186 495.342 157.708C495.195 157.229 495.122 156.716 495.122 156.169V155.913C495.122 155.366 495.195 154.854 495.342 154.375C495.493 153.892 495.718 153.467 496.016 153.101C496.313 152.734 496.687 152.449 497.136 152.244C497.585 152.034 498.11 151.929 498.711 151.929C499.346 151.929 499.902 152.056 500.381 152.31C500.859 152.559 501.235 152.908 501.509 153.357C501.787 153.801 501.931 154.319 501.941 154.91H500.278C500.264 154.617 500.19 154.353 500.059 154.119C499.932 153.879 499.751 153.689 499.517 153.547C499.287 153.406 499.011 153.335 498.689 153.335C498.333 153.335 498.037 153.408 497.803 153.555C497.568 153.696 497.385 153.892 497.253 154.141C497.122 154.385 497.026 154.661 496.968 154.968C496.914 155.271 496.887 155.586 496.887 155.913V156.169C496.887 156.497 496.914 156.814 496.968 157.122C497.021 157.429 497.114 157.705 497.246 157.949C497.383 158.188 497.568 158.381 497.803 158.528C498.037 158.669 498.335 158.74 498.696 158.74ZM502.959 156.125V155.957C502.959 155.386 503.042 154.856 503.208 154.368C503.374 153.875 503.613 153.447 503.926 153.086C504.243 152.72 504.629 152.437 505.083 152.236C505.542 152.031 506.06 151.929 506.636 151.929C507.217 151.929 507.734 152.031 508.188 152.236C508.647 152.437 509.036 152.72 509.353 153.086C509.67 153.447 509.912 153.875 510.078 154.368C510.244 154.856 510.327 155.386 510.327 155.957V156.125C510.327 156.697 510.244 157.227 510.078 157.715C509.912 158.203 509.67 158.63 509.353 158.997C509.036 159.358 508.65 159.641 508.196 159.846C507.742 160.046 507.227 160.146 506.65 160.146C506.069 160.146 505.549 160.046 505.09 159.846C504.636 159.641 504.25 159.358 503.933 158.997C503.616 158.63 503.374 158.203 503.208 157.715C503.042 157.227 502.959 156.697 502.959 156.125ZM504.724 155.957V156.125C504.724 156.482 504.761 156.819 504.834 157.136C504.907 157.454 505.022 157.732 505.178 157.971C505.334 158.21 505.535 158.398 505.779 158.535C506.023 158.672 506.313 158.74 506.65 158.74C506.978 158.74 507.261 158.672 507.5 158.535C507.744 158.398 507.944 158.21 508.101 157.971C508.257 157.732 508.372 157.454 508.445 157.136C508.523 156.819 508.562 156.482 508.562 156.125V155.957C508.562 155.605 508.523 155.273 508.445 154.961C508.372 154.644 508.254 154.363 508.093 154.119C507.937 153.875 507.737 153.684 507.493 153.547C507.253 153.406 506.968 153.335 506.636 153.335C506.304 153.335 506.016 153.406 505.771 153.547C505.532 153.684 505.334 153.875 505.178 154.119C505.022 154.363 504.907 154.644 504.834 154.961C504.761 155.273 504.724 155.605 504.724 155.957ZM513.579 153.584V160H511.814V152.075H513.499L513.579 153.584ZM516.003 152.024L515.989 153.665C515.881 153.645 515.764 153.63 515.637 153.621C515.515 153.611 515.393 153.606 515.271 153.606C514.968 153.606 514.702 153.65 514.473 153.738C514.243 153.821 514.05 153.943 513.894 154.104C513.743 154.26 513.625 154.451 513.542 154.675C513.459 154.9 513.411 155.151 513.396 155.43L512.993 155.459C512.993 154.961 513.042 154.5 513.14 154.075C513.237 153.65 513.384 153.276 513.579 152.954C513.779 152.632 514.028 152.38 514.326 152.2C514.629 152.019 514.978 151.929 515.374 151.929C515.481 151.929 515.596 151.938 515.718 151.958C515.845 151.978 515.94 152 516.003 152.024ZM520.457 160.146C519.871 160.146 519.341 160.051 518.867 159.861C518.398 159.666 517.998 159.395 517.666 159.048C517.339 158.701 517.087 158.293 516.912 157.825C516.736 157.356 516.648 156.851 516.648 156.309V156.016C516.648 155.396 516.738 154.834 516.919 154.331C517.1 153.828 517.351 153.398 517.673 153.042C517.996 152.681 518.376 152.405 518.816 152.214C519.255 152.024 519.731 151.929 520.244 151.929C520.811 151.929 521.306 152.024 521.731 152.214C522.156 152.405 522.507 152.673 522.786 153.02C523.069 153.362 523.279 153.77 523.416 154.243C523.557 154.717 523.628 155.239 523.628 155.811V156.565H517.505V155.298H521.885V155.159C521.875 154.841 521.812 154.543 521.694 154.265C521.582 153.987 521.409 153.762 521.174 153.591C520.94 153.42 520.627 153.335 520.237 153.335C519.944 153.335 519.683 153.398 519.453 153.525C519.229 153.647 519.041 153.826 518.889 154.06C518.738 154.294 518.621 154.578 518.538 154.91C518.459 155.237 518.42 155.605 518.42 156.016V156.309C518.42 156.655 518.467 156.978 518.56 157.275C518.657 157.568 518.799 157.825 518.984 158.044C519.17 158.264 519.395 158.438 519.658 158.564C519.922 158.687 520.222 158.748 520.559 158.748C520.984 158.748 521.362 158.662 521.694 158.491C522.026 158.32 522.314 158.079 522.559 157.766L523.489 158.667C523.318 158.916 523.096 159.155 522.822 159.385C522.549 159.609 522.214 159.792 521.819 159.934C521.428 160.076 520.974 160.146 520.457 160.146Z" fill="#1A1A1A"/>
<rect x="146" y="40" width="24" height="24" rx="12" fill="#286EF1"/>
<path d="M159.181 46.7261V56H157.651V48.5415L155.385 49.3096V48.0464L158.997 46.7261H159.181Z" fill="white"/>
<line x1="158.5" y1="64" x2="158.5" y2="88" stroke="#0059FF"/>
<rect x="411" y="95" width="24" height="24" rx="12" fill="#286EF1"/>
<path d="M424.181 101.726V111H422.651V103.542L420.385 104.31V103.046L423.997 101.726H424.181Z" fill="white"/>
<line x1="423.5" y1="119" x2="423.5" y2="143" stroke="#0059FF"/>
<line x1="433.5" y1="171" x2="433.5" y2="195" stroke="#0059FF"/>
<rect x="421" y="195" width="24" height="24" rx="12" fill="#286EF1"/>
<path d="M436.199 209.781V211H430.004V209.953L433.013 206.671C433.343 206.299 433.603 205.977 433.793 205.706C433.984 205.435 434.117 205.192 434.193 204.976C434.274 204.756 434.314 204.542 434.314 204.335C434.314 204.043 434.259 203.787 434.149 203.567C434.043 203.343 433.887 203.167 433.679 203.04C433.472 202.909 433.22 202.843 432.924 202.843C432.581 202.843 432.293 202.917 432.061 203.065C431.828 203.214 431.652 203.419 431.534 203.681C431.415 203.939 431.356 204.236 431.356 204.57H429.826C429.826 204.032 429.949 203.542 430.194 203.097C430.44 202.649 430.795 202.293 431.261 202.031C431.726 201.764 432.287 201.631 432.943 201.631C433.561 201.631 434.085 201.735 434.517 201.942C434.949 202.149 435.277 202.443 435.501 202.824C435.729 203.205 435.844 203.656 435.844 204.176C435.844 204.464 435.797 204.75 435.704 205.033C435.611 205.317 435.478 205.6 435.304 205.884C435.135 206.163 434.934 206.444 434.701 206.728C434.468 207.007 434.212 207.291 433.933 207.579L431.934 209.781H436.199Z" fill="white"/>
<rect x="478" y="95" width="24" height="24" rx="12" fill="#286EF1"/>
<path d="M488.8 105.687H489.714C490.07 105.687 490.364 105.626 490.597 105.503C490.834 105.38 491.009 105.211 491.124 104.995C491.238 104.779 491.295 104.532 491.295 104.252C491.295 103.96 491.242 103.711 491.136 103.503C491.035 103.292 490.878 103.129 490.667 103.015C490.459 102.9 490.195 102.843 489.873 102.843C489.602 102.843 489.357 102.898 489.137 103.008C488.921 103.114 488.75 103.266 488.623 103.465C488.496 103.66 488.432 103.893 488.432 104.164H486.896C486.896 103.673 487.025 103.237 487.283 102.856C487.541 102.475 487.893 102.177 488.337 101.961C488.785 101.741 489.289 101.631 489.848 101.631C490.444 101.631 490.965 101.73 491.409 101.929C491.858 102.124 492.207 102.416 492.457 102.805C492.706 103.194 492.831 103.677 492.831 104.252C492.831 104.515 492.77 104.781 492.647 105.052C492.524 105.323 492.342 105.571 492.101 105.795C491.86 106.015 491.559 106.195 491.2 106.334C490.84 106.47 490.423 106.538 489.949 106.538H488.8V105.687ZM488.8 106.88V106.042H489.949C490.491 106.042 490.952 106.106 491.333 106.233C491.718 106.36 492.031 106.535 492.272 106.76C492.514 106.98 492.689 107.232 492.799 107.515C492.914 107.799 492.971 108.099 492.971 108.417C492.971 108.848 492.892 109.233 492.736 109.572C492.583 109.906 492.366 110.19 492.082 110.422C491.799 110.655 491.466 110.831 491.085 110.949C490.709 111.068 490.298 111.127 489.854 111.127C489.456 111.127 489.075 111.072 488.711 110.962C488.347 110.852 488.022 110.689 487.734 110.473C487.446 110.253 487.218 109.98 487.048 109.654C486.883 109.324 486.801 108.943 486.801 108.512H488.331C488.331 108.787 488.394 109.03 488.521 109.242C488.652 109.449 488.834 109.612 489.067 109.73C489.304 109.849 489.575 109.908 489.879 109.908C490.201 109.908 490.478 109.851 490.711 109.737C490.944 109.623 491.121 109.453 491.244 109.229C491.371 109.005 491.435 108.734 491.435 108.417C491.435 108.057 491.365 107.765 491.225 107.541C491.085 107.316 490.887 107.151 490.628 107.045C490.37 106.935 490.066 106.88 489.714 106.88H488.8Z" fill="white"/>
<line x1="490.5" y1="119" x2="490.5" y2="143" stroke="#0059FF"/>
<line x1="228" y1="118.5" x2="252" y2="118.5" stroke="#0059FF"/>
<rect x="252" y="107" width="24" height="24" rx="12" fill="#286EF1"/>
<path d="M267.199 121.781V123H261.004V121.953L264.013 118.671C264.343 118.299 264.603 117.977 264.793 117.706C264.984 117.435 265.117 117.192 265.193 116.976C265.274 116.756 265.314 116.542 265.314 116.335C265.314 116.043 265.259 115.787 265.149 115.567C265.043 115.343 264.887 115.167 264.679 115.04C264.472 114.909 264.22 114.843 263.924 114.843C263.581 114.843 263.293 114.917 263.061 115.065C262.828 115.214 262.652 115.419 262.534 115.681C262.415 115.939 262.356 116.236 262.356 116.57H260.826C260.826 116.032 260.949 115.542 261.194 115.097C261.44 114.649 261.795 114.293 262.261 114.031C262.726 113.764 263.287 113.631 263.943 113.631C264.561 113.631 265.085 113.735 265.517 113.942C265.949 114.149 266.277 114.443 266.501 114.824C266.729 115.205 266.844 115.656 266.844 116.176C266.844 116.464 266.797 116.75 266.704 117.033C266.611 117.317 266.478 117.6 266.304 117.884C266.135 118.163 265.934 118.444 265.701 118.728C265.468 119.007 265.212 119.291 264.933 119.579L262.934 121.781H267.199Z" fill="white"/>
<rect x="70" y="143" width="24" height="24" rx="12" fill="#286EF1"/>
<path d="M80.8003 153.687H81.7144C82.0698 153.687 82.3639 153.626 82.5967 153.503C82.8337 153.38 83.0093 153.211 83.1235 152.995C83.2378 152.779 83.2949 152.532 83.2949 152.252C83.2949 151.96 83.242 151.711 83.1362 151.503C83.0347 151.292 82.8781 151.129 82.6665 151.015C82.4591 150.9 82.1947 150.843 81.873 150.843C81.6022 150.843 81.3568 150.898 81.1367 151.008C80.9209 151.114 80.7495 151.266 80.6226 151.465C80.4956 151.66 80.4321 151.893 80.4321 152.164H78.896C78.896 151.673 79.0251 151.237 79.2832 150.856C79.5413 150.475 79.8926 150.177 80.3369 149.961C80.7855 149.741 81.2891 149.631 81.8477 149.631C82.4443 149.631 82.9648 149.73 83.4092 149.929C83.8577 150.124 84.2069 150.416 84.4565 150.805C84.7062 151.194 84.8311 151.677 84.8311 152.252C84.8311 152.515 84.7697 152.781 84.647 153.052C84.5243 153.323 84.3423 153.571 84.1011 153.795C83.8599 154.015 83.5594 154.195 83.1997 154.334C82.84 154.47 82.4232 154.538 81.9492 154.538H80.8003V153.687ZM80.8003 154.88V154.042H81.9492C82.4909 154.042 82.9521 154.106 83.333 154.233C83.7181 154.36 84.0312 154.535 84.2725 154.76C84.5137 154.98 84.6893 155.232 84.7993 155.515C84.9136 155.799 84.9707 156.099 84.9707 156.417C84.9707 156.848 84.8924 157.233 84.7358 157.572C84.5835 157.906 84.3656 158.19 84.082 158.422C83.7985 158.655 83.4663 158.831 83.0854 158.949C82.7088 159.068 82.2983 159.127 81.854 159.127C81.4562 159.127 81.0754 159.072 80.7114 158.962C80.3475 158.852 80.0216 158.689 79.7339 158.473C79.4461 158.253 79.2176 157.98 79.0483 157.654C78.8833 157.324 78.8008 156.943 78.8008 156.512H80.3306C80.3306 156.787 80.394 157.03 80.521 157.242C80.6522 157.449 80.8341 157.612 81.0669 157.73C81.3039 157.849 81.5747 157.908 81.8794 157.908C82.201 157.908 82.4782 157.851 82.7109 157.737C82.9437 157.623 83.1214 157.453 83.2441 157.229C83.3711 157.005 83.4346 156.734 83.4346 156.417C83.4346 156.057 83.3647 155.765 83.2251 155.541C83.0854 155.316 82.8866 155.151 82.6284 155.045C82.3703 154.935 82.0656 154.88 81.7144 154.88H80.8003Z" fill="white"/>
<line x1="94" y1="154.5" x2="130" y2="154.5" stroke="#0059FF"/>
</svg>
