<svg width="640" height="384" viewBox="0 0 640 384" fill="none" xmlns="http://www.w3.org/2000/svg">
<rect width="640" height="384" rx="16" fill="#F8F8F8"/>
<g clip-path="url(#clip0_7680_87746)">
<rect width="279" height="250" transform="translate(40 67)" fill="white"/>
<path d="M78.7285 111.737V113H74.0884V111.737H78.7285ZM74.5327 103.758V113H72.9395V103.758H74.5327ZM84.686 104.989L81.9248 113H80.2554L83.7339 103.758H84.8003L84.686 104.989ZM86.9966 113L84.229 104.989L84.1084 103.758H85.1812L88.6724 113H86.9966ZM86.8633 109.572V110.835H81.8359V109.572H86.8633ZM90.707 103.758H93.9761C94.6785 103.758 95.2773 103.864 95.7725 104.075C96.2676 104.287 96.6463 104.6 96.9087 105.015C97.1753 105.425 97.3086 105.933 97.3086 106.538C97.3086 106.999 97.224 107.406 97.0547 107.757C96.8854 108.108 96.6463 108.404 96.3374 108.646C96.0285 108.882 95.6603 109.067 95.2329 109.198L94.7505 109.433H91.8115L91.7988 108.169H94.0015C94.3823 108.169 94.6997 108.102 94.9536 107.966C95.2075 107.831 95.3979 107.647 95.5249 107.414C95.6561 107.177 95.7217 106.91 95.7217 106.614C95.7217 106.293 95.6582 106.013 95.5312 105.776C95.4085 105.535 95.2181 105.351 94.96 105.224C94.7018 105.093 94.3739 105.027 93.9761 105.027H92.3003V113H90.707V103.758ZM95.9819 113L93.811 108.849L95.4805 108.842L97.6831 112.917V113H95.9819ZM106.992 108.277V111.807C106.861 111.98 106.656 112.171 106.376 112.378C106.101 112.581 105.735 112.757 105.278 112.905C104.821 113.053 104.252 113.127 103.571 113.127C102.991 113.127 102.46 113.03 101.978 112.835C101.495 112.636 101.078 112.346 100.727 111.965C100.38 111.584 100.111 111.121 99.9209 110.575C99.7305 110.025 99.6353 109.399 99.6353 108.696V108.055C99.6353 107.357 99.722 106.735 99.8955 106.189C100.073 105.639 100.327 105.173 100.657 104.792C100.987 104.412 101.385 104.124 101.851 103.929C102.32 103.73 102.851 103.631 103.444 103.631C104.201 103.631 104.828 103.758 105.323 104.012C105.822 104.261 106.207 104.608 106.478 105.053C106.749 105.497 106.92 106.005 106.992 106.576H105.431C105.38 106.255 105.28 105.967 105.132 105.713C104.988 105.459 104.781 105.26 104.51 105.116C104.244 104.968 103.897 104.894 103.469 104.894C103.101 104.894 102.777 104.964 102.498 105.104C102.219 105.243 101.986 105.448 101.8 105.719C101.618 105.99 101.48 106.32 101.387 106.709C101.294 107.099 101.248 107.543 101.248 108.042V108.696C101.248 109.204 101.3 109.655 101.406 110.048C101.516 110.442 101.673 110.774 101.876 111.045C102.083 111.316 102.335 111.521 102.631 111.661C102.928 111.796 103.262 111.864 103.634 111.864C103.998 111.864 104.297 111.834 104.529 111.775C104.762 111.711 104.946 111.637 105.082 111.553C105.221 111.464 105.329 111.379 105.405 111.299V109.464H103.482V108.277H106.992ZM115.806 111.737V113H110.899V111.737H115.806ZM111.35 103.758V113H109.757V103.758H111.35ZM115.165 107.617V108.861H110.899V107.617H115.165ZM115.774 103.758V105.027H110.899V103.758H115.774Z" fill="#737373"/>
<path d="M254.5 210C254.5 251.421 220.921 285 179.5 285C138.079 285 104.5 251.421 104.5 210C104.5 168.579 138.079 135 179.5 135C220.921 135 254.5 168.579 254.5 210ZM119.5 210C119.5 243.137 146.363 270 179.5 270C212.637 270 239.5 243.137 239.5 210C239.5 176.863 212.637 150 179.5 150C146.363 150 119.5 176.863 119.5 210Z" fill="#F2F2F2"/>
<path d="M179.5 135C195.338 135 210.77 140.014 223.584 149.324C236.397 158.633 245.935 171.76 250.829 186.824C255.724 201.887 255.724 218.113 250.829 233.176C245.935 248.24 236.397 261.367 223.584 270.676C210.77 279.986 195.338 285 179.5 285C163.662 285 148.23 279.986 135.416 270.676C122.603 261.367 113.065 248.24 108.171 233.176C103.276 218.113 103.276 201.887 108.171 186.824L122.437 191.459C118.521 203.51 118.521 216.49 122.437 228.541C126.352 240.592 133.982 251.093 144.233 258.541C154.484 265.989 166.829 270 179.5 270C192.171 270 204.516 265.989 214.767 258.541C225.018 251.093 232.648 240.592 236.563 228.541C240.479 216.49 240.479 203.51 236.563 191.459C232.648 179.408 225.018 168.907 214.767 161.459C204.516 154.011 192.171 150 179.5 150V135Z" fill="#286EF1"/>
<path d="M168.645 216.207C168.645 217.991 168.228 219.495 167.395 220.719C166.561 221.93 165.415 222.848 163.957 223.473C162.512 224.085 160.871 224.391 159.035 224.391C157.199 224.391 155.552 224.085 154.094 223.473C152.635 222.848 151.483 221.93 150.637 220.719C149.79 219.495 149.367 217.991 149.367 216.207C149.367 215.009 149.608 213.928 150.09 212.965C150.572 211.988 151.242 211.155 152.102 210.465C152.974 209.762 153.996 209.228 155.168 208.863C156.34 208.486 157.616 208.297 158.996 208.297C160.845 208.297 162.499 208.622 163.957 209.273C165.415 209.924 166.561 210.842 167.395 212.027C168.228 213.212 168.645 214.605 168.645 216.207ZM162.98 215.836C162.98 214.964 162.811 214.215 162.473 213.59C162.147 212.952 161.685 212.464 161.086 212.125C160.487 211.786 159.79 211.617 158.996 211.617C158.202 211.617 157.505 211.786 156.906 212.125C156.307 212.464 155.839 212.952 155.5 213.59C155.174 214.215 155.012 214.964 155.012 215.836C155.012 216.695 155.174 217.438 155.5 218.062C155.839 218.688 156.307 219.169 156.906 219.508C157.518 219.833 158.228 219.996 159.035 219.996C159.842 219.996 160.539 219.833 161.125 219.508C161.724 219.169 162.18 218.688 162.492 218.062C162.818 217.438 162.98 216.695 162.98 215.836ZM168.039 203.102C168.039 204.547 167.655 205.829 166.887 206.949C166.118 208.056 165.051 208.922 163.684 209.547C162.329 210.172 160.78 210.484 159.035 210.484C157.277 210.484 155.715 210.172 154.348 209.547C152.98 208.922 151.913 208.056 151.145 206.949C150.376 205.829 149.992 204.547 149.992 203.102C149.992 201.383 150.376 199.938 151.145 198.766C151.926 197.581 152.993 196.682 154.348 196.07C155.715 195.458 157.264 195.152 158.996 195.152C160.754 195.152 162.31 195.458 163.664 196.07C165.031 196.682 166.099 197.581 166.867 198.766C167.648 199.938 168.039 201.383 168.039 203.102ZM162.414 203.355C162.414 202.587 162.277 201.923 162.004 201.363C161.73 200.79 161.34 200.348 160.832 200.035C160.337 199.723 159.725 199.566 158.996 199.566C158.293 199.566 157.688 199.716 157.18 200.016C156.685 200.315 156.301 200.751 156.027 201.324C155.767 201.884 155.637 202.561 155.637 203.355C155.637 204.124 155.767 204.801 156.027 205.387C156.301 205.96 156.691 206.409 157.199 206.734C157.707 207.06 158.319 207.223 159.035 207.223C159.751 207.223 160.357 207.06 160.852 206.734C161.359 206.409 161.743 205.96 162.004 205.387C162.277 204.801 162.414 204.124 162.414 203.355ZM191.594 207.281V212.203C191.594 214.339 191.366 216.181 190.91 217.73C190.454 219.267 189.797 220.53 188.938 221.52C188.091 222.496 187.082 223.219 185.91 223.688C184.738 224.156 183.436 224.391 182.004 224.391C180.858 224.391 179.79 224.247 178.801 223.961C177.811 223.661 176.919 223.199 176.125 222.574C175.344 221.949 174.667 221.161 174.094 220.211C173.534 219.247 173.104 218.102 172.805 216.773C172.505 215.445 172.355 213.922 172.355 212.203V207.281C172.355 205.146 172.583 203.316 173.039 201.793C173.508 200.257 174.165 199 175.012 198.023C175.871 197.047 176.887 196.331 178.059 195.875C179.23 195.406 180.533 195.172 181.965 195.172C183.111 195.172 184.172 195.322 185.148 195.621C186.138 195.908 187.03 196.357 187.824 196.969C188.618 197.581 189.296 198.368 189.855 199.332C190.415 200.283 190.845 201.422 191.145 202.75C191.444 204.065 191.594 205.576 191.594 207.281ZM185.949 212.945V206.52C185.949 205.491 185.891 204.592 185.773 203.824C185.669 203.056 185.507 202.405 185.285 201.871C185.064 201.324 184.79 200.882 184.465 200.543C184.139 200.204 183.768 199.957 183.352 199.801C182.935 199.645 182.473 199.566 181.965 199.566C181.327 199.566 180.76 199.69 180.266 199.938C179.784 200.185 179.374 200.582 179.035 201.129C178.697 201.663 178.436 202.379 178.254 203.277C178.085 204.163 178 205.243 178 206.52V212.945C178 213.974 178.052 214.879 178.156 215.66C178.273 216.441 178.443 217.112 178.664 217.672C178.898 218.219 179.172 218.668 179.484 219.02C179.81 219.358 180.181 219.605 180.598 219.762C181.027 219.918 181.496 219.996 182.004 219.996C182.629 219.996 183.182 219.872 183.664 219.625C184.159 219.365 184.576 218.961 184.914 218.414C185.266 217.854 185.526 217.125 185.695 216.227C185.865 215.328 185.949 214.234 185.949 212.945Z" fill="#1A1A1A"/>
<path d="M194.754 211.121V210.219C194.754 209.57 194.895 208.98 195.176 208.449C195.457 207.918 195.871 207.492 196.418 207.172C196.965 206.852 197.637 206.691 198.434 206.691C199.254 206.691 199.938 206.852 200.484 207.172C201.039 207.492 201.453 207.918 201.727 208.449C202.008 208.98 202.148 209.57 202.148 210.219V211.121C202.148 211.754 202.008 212.336 201.727 212.867C201.453 213.398 201.043 213.824 200.496 214.145C199.949 214.465 199.273 214.625 198.469 214.625C197.656 214.625 196.973 214.465 196.418 214.145C195.871 213.824 195.457 213.398 195.176 212.867C194.895 212.336 194.754 211.754 194.754 211.121ZM196.992 210.219V211.121C196.992 211.395 197.043 211.656 197.145 211.906C197.254 212.148 197.418 212.348 197.637 212.504C197.863 212.652 198.137 212.727 198.457 212.727C198.793 212.727 199.066 212.652 199.277 212.504C199.488 212.348 199.645 212.148 199.746 211.906C199.848 211.656 199.898 211.395 199.898 211.121V210.219C199.898 209.93 199.844 209.664 199.734 209.422C199.633 209.172 199.473 208.973 199.254 208.824C199.043 208.668 198.77 208.59 198.434 208.59C198.121 208.59 197.855 208.668 197.637 208.824C197.418 208.973 197.254 209.172 197.145 209.422C197.043 209.664 196.992 209.93 196.992 210.219ZM202.91 220.719V219.816C202.91 219.176 203.051 218.59 203.332 218.059C203.621 217.527 204.039 217.102 204.586 216.781C205.141 216.461 205.82 216.301 206.625 216.301C207.438 216.301 208.117 216.461 208.664 216.781C209.211 217.102 209.625 217.527 209.906 218.059C210.188 218.59 210.328 219.176 210.328 219.816V220.719C210.328 221.359 210.188 221.945 209.906 222.477C209.633 223.008 209.223 223.434 208.676 223.754C208.129 224.074 207.453 224.234 206.648 224.234C205.836 224.234 205.152 224.074 204.598 223.754C204.043 223.434 203.621 223.008 203.332 222.477C203.051 221.945 202.91 221.359 202.91 220.719ZM205.16 219.816V220.719C205.16 221 205.223 221.266 205.348 221.516C205.473 221.766 205.645 221.965 205.863 222.113C206.09 222.262 206.352 222.336 206.648 222.336C207.023 222.336 207.316 222.262 207.527 222.113C207.738 221.965 207.883 221.766 207.961 221.516C208.047 221.266 208.09 221 208.09 220.719V219.816C208.09 219.535 208.035 219.273 207.926 219.031C207.816 218.781 207.652 218.582 207.434 218.434C207.223 218.277 206.953 218.199 206.625 218.199C206.297 218.199 206.023 218.277 205.805 218.434C205.594 218.582 205.434 218.781 205.324 219.031C205.215 219.273 205.16 219.535 205.16 219.816ZM207.457 209.375L199.125 222.711L197.484 221.844L205.816 208.508L207.457 209.375Z" fill="#1A1A1A"/>
<rect width="279" height="250" transform="translate(321 67)" fill="white"/>
<path d="M358.802 110.62C358.802 110.429 358.772 110.26 358.713 110.112C358.658 109.964 358.558 109.828 358.415 109.706C358.271 109.583 358.068 109.464 357.805 109.35C357.547 109.232 357.217 109.111 356.815 108.988C356.375 108.853 355.969 108.703 355.596 108.538C355.228 108.368 354.906 108.174 354.631 107.954C354.356 107.729 354.143 107.473 353.99 107.186C353.838 106.894 353.762 106.557 353.762 106.176C353.762 105.8 353.84 105.457 353.997 105.148C354.157 104.839 354.384 104.572 354.676 104.348C354.972 104.12 355.321 103.944 355.723 103.821C356.125 103.694 356.569 103.631 357.056 103.631C357.742 103.631 358.332 103.758 358.827 104.012C359.326 104.266 359.709 104.606 359.976 105.034C360.247 105.461 360.382 105.933 360.382 106.449H358.802C358.802 106.145 358.736 105.876 358.605 105.643C358.478 105.406 358.283 105.22 358.021 105.084C357.763 104.949 357.435 104.881 357.037 104.881C356.66 104.881 356.347 104.938 356.098 105.053C355.848 105.167 355.662 105.321 355.539 105.516C355.416 105.711 355.355 105.931 355.355 106.176C355.355 106.35 355.395 106.508 355.476 106.652C355.556 106.792 355.679 106.923 355.844 107.046C356.009 107.164 356.216 107.277 356.466 107.382C356.715 107.488 357.01 107.59 357.348 107.687C357.86 107.839 358.307 108.009 358.688 108.195C359.068 108.377 359.386 108.584 359.64 108.817C359.894 109.05 360.084 109.314 360.211 109.61C360.338 109.902 360.401 110.235 360.401 110.607C360.401 110.996 360.323 111.347 360.167 111.661C360.01 111.97 359.786 112.234 359.494 112.454C359.206 112.67 358.859 112.837 358.453 112.956C358.051 113.07 357.602 113.127 357.107 113.127C356.663 113.127 356.225 113.068 355.793 112.949C355.366 112.831 354.976 112.651 354.625 112.41C354.274 112.164 353.994 111.86 353.787 111.496C353.58 111.127 353.476 110.698 353.476 110.207H355.069C355.069 110.507 355.12 110.764 355.222 110.975C355.327 111.187 355.473 111.36 355.66 111.496C355.846 111.627 356.062 111.724 356.307 111.788C356.557 111.851 356.823 111.883 357.107 111.883C357.479 111.883 357.79 111.83 358.04 111.724C358.294 111.618 358.484 111.47 358.611 111.28C358.738 111.089 358.802 110.869 358.802 110.62ZM363.458 103.758H364.88L367.552 110.886L370.218 103.758H371.64L368.111 113H366.981L363.458 103.758ZM362.811 103.758H364.163L364.397 109.928V113H362.811V103.758ZM370.936 103.758H372.294V113H370.701V109.928L370.936 103.758ZM378.899 104.989L376.138 113H374.468L377.947 103.758H379.013L378.899 104.989ZM381.209 113L378.442 104.989L378.321 103.758H379.394L382.885 113H381.209ZM381.076 109.572V110.835H376.049V109.572H381.076ZM390.709 111.737V113H386.069V111.737H390.709ZM386.513 103.758V113H384.92V103.758H386.513ZM398.729 111.737V113H394.089V111.737H398.729ZM394.534 103.758V113H392.94V103.758H394.534Z" fill="#737373"/>
<path d="M458 210C458 218.837 450.837 226 442 226C433.163 226 426 218.837 426 210C426 201.163 433.163 194 442 194C450.837 194 458 201.163 458 210ZM430 210C430 216.627 435.373 222 442 222C448.627 222 454 216.627 454 210C454 203.373 448.627 198 442 198C435.373 198 430 203.373 430 210Z" fill="#E6E6E6"/>
<path d="M442 194C445.379 194 448.671 195.07 451.405 197.056C454.138 199.042 456.173 201.842 457.217 205.056C458.261 208.269 458.261 211.731 457.217 214.944C456.173 218.158 454.138 220.958 451.405 222.944C448.671 224.93 445.379 226 442 226C438.621 226 435.329 224.93 432.595 222.944C429.862 220.958 427.827 218.158 426.783 214.944C425.739 211.731 425.739 208.269 426.783 205.056L430.587 206.292C429.804 208.702 429.804 211.298 430.587 213.708C431.37 216.118 432.896 218.219 434.947 219.708C436.997 221.198 439.466 222 442 222C444.534 222 447.003 221.198 449.053 219.708C451.104 218.219 452.63 216.118 453.413 213.708C454.196 211.298 454.196 208.702 453.413 206.292C452.63 203.882 451.104 201.781 449.053 200.292C447.003 198.802 444.534 198 442 198V194Z" fill="#286EF1"/>
<path d="M473.778 212.092C473.778 212.756 473.625 213.315 473.317 213.77C473.009 214.224 472.589 214.568 472.057 214.802C471.53 215.032 470.934 215.146 470.27 215.146C469.606 215.146 469.008 215.032 468.476 214.802C467.943 214.568 467.523 214.224 467.216 213.77C466.908 213.315 466.754 212.756 466.754 212.092C466.754 211.653 466.84 211.255 467.011 210.898C467.182 210.537 467.423 210.227 467.736 209.968C468.053 209.705 468.424 209.502 468.849 209.36C469.279 209.219 469.748 209.148 470.255 209.148C470.929 209.148 471.532 209.272 472.064 209.521C472.597 209.771 473.014 210.115 473.317 210.554C473.625 210.994 473.778 211.506 473.778 212.092ZM472.006 212.004C472.006 211.648 471.933 211.335 471.786 211.067C471.64 210.798 471.435 210.591 471.171 210.444C470.907 210.298 470.602 210.225 470.255 210.225C469.904 210.225 469.599 210.298 469.34 210.444C469.081 210.591 468.878 210.798 468.732 211.067C468.59 211.335 468.52 211.648 468.52 212.004C468.52 212.366 468.59 212.678 468.732 212.942C468.874 213.201 469.076 213.398 469.34 213.535C469.604 213.672 469.914 213.74 470.27 213.74C470.626 213.74 470.934 213.672 471.193 213.535C471.452 213.398 471.652 213.201 471.793 212.942C471.935 212.678 472.006 212.366 472.006 212.004ZM473.537 207.141C473.537 207.673 473.395 208.147 473.112 208.562C472.833 208.977 472.448 209.304 471.955 209.543C471.461 209.778 470.9 209.895 470.27 209.895C469.635 209.895 469.069 209.778 468.571 209.543C468.078 209.304 467.689 208.977 467.406 208.562C467.128 208.147 466.989 207.673 466.989 207.141C466.989 206.506 467.128 205.972 467.406 205.537C467.689 205.098 468.078 204.763 468.571 204.534C469.064 204.304 469.628 204.189 470.263 204.189C470.897 204.189 471.461 204.304 471.955 204.534C472.448 204.763 472.833 205.098 473.112 205.537C473.395 205.972 473.537 206.506 473.537 207.141ZM471.771 207.2C471.771 206.882 471.708 206.604 471.581 206.365C471.459 206.121 471.286 205.93 471.061 205.793C470.836 205.657 470.57 205.588 470.263 205.588C469.955 205.588 469.689 205.654 469.464 205.786C469.24 205.918 469.066 206.104 468.944 206.343C468.822 206.582 468.761 206.868 468.761 207.2C468.761 207.527 468.822 207.812 468.944 208.057C469.066 208.296 469.24 208.484 469.464 208.621C469.694 208.757 469.962 208.826 470.27 208.826C470.578 208.826 470.844 208.757 471.068 208.621C471.293 208.484 471.466 208.296 471.588 208.057C471.71 207.812 471.771 207.527 471.771 207.2ZM482.282 208.774V210.518C482.282 211.353 482.199 212.065 482.033 212.656C481.872 213.242 481.637 213.718 481.33 214.084C481.022 214.451 480.653 214.719 480.224 214.89C479.799 215.061 479.323 215.146 478.795 215.146C478.375 215.146 477.985 215.093 477.624 214.985C477.267 214.878 476.945 214.709 476.657 214.48C476.369 214.25 476.122 213.955 475.917 213.594C475.717 213.228 475.561 212.791 475.448 212.283C475.341 211.775 475.287 211.187 475.287 210.518V208.774C475.287 207.935 475.37 207.227 475.536 206.65C475.702 206.069 475.939 205.598 476.247 205.237C476.554 204.871 476.92 204.604 477.345 204.438C477.775 204.272 478.253 204.189 478.781 204.189C479.206 204.189 479.596 204.243 479.953 204.351C480.314 204.453 480.636 204.617 480.919 204.841C481.208 205.066 481.452 205.359 481.652 205.72C481.857 206.077 482.013 206.509 482.121 207.017C482.228 207.52 482.282 208.105 482.282 208.774ZM480.517 210.767V208.511C480.517 208.086 480.492 207.712 480.443 207.39C480.395 207.063 480.321 206.787 480.224 206.562C480.131 206.333 480.014 206.147 479.872 206.006C479.73 205.859 479.569 205.754 479.389 205.691C479.208 205.623 479.005 205.588 478.781 205.588C478.507 205.588 478.263 205.642 478.048 205.75C477.833 205.852 477.653 206.018 477.506 206.248C477.36 206.477 477.248 206.78 477.169 207.156C477.096 207.527 477.06 207.979 477.06 208.511V210.767C477.06 211.196 477.084 211.575 477.133 211.902C477.182 212.229 477.255 212.51 477.353 212.744C477.45 212.974 477.567 213.164 477.704 213.315C477.846 213.462 478.007 213.569 478.188 213.638C478.373 213.706 478.576 213.74 478.795 213.74C479.074 213.74 479.32 213.687 479.535 213.579C479.75 213.472 479.931 213.301 480.077 213.066C480.224 212.827 480.333 212.517 480.407 212.136C480.48 211.755 480.517 211.299 480.517 210.767ZM483.783 206.951V206.387C483.783 205.981 483.871 205.613 484.047 205.281C484.223 204.949 484.479 204.683 484.816 204.482C485.153 204.282 485.558 204.182 486.032 204.182C486.52 204.182 486.93 204.282 487.262 204.482C487.599 204.683 487.855 204.949 488.031 205.281C488.207 205.613 488.295 205.981 488.295 206.387V206.951C488.295 207.346 488.207 207.71 488.031 208.042C487.86 208.374 487.606 208.64 487.27 208.84C486.938 209.041 486.53 209.141 486.046 209.141C485.568 209.141 485.158 209.041 484.816 208.84C484.479 208.64 484.223 208.374 484.047 208.042C483.871 207.71 483.783 207.346 483.783 206.951ZM485.006 206.387V206.951C485.006 207.146 485.043 207.332 485.116 207.507C485.194 207.683 485.312 207.825 485.468 207.932C485.624 208.04 485.817 208.093 486.046 208.093C486.281 208.093 486.471 208.04 486.618 207.932C486.769 207.825 486.881 207.683 486.955 207.507C487.028 207.332 487.064 207.146 487.064 206.951V206.387C487.064 206.187 487.025 205.999 486.947 205.823C486.874 205.642 486.762 205.498 486.61 205.391C486.459 205.283 486.266 205.229 486.032 205.229C485.807 205.229 485.617 205.283 485.46 205.391C485.309 205.498 485.194 205.642 485.116 205.823C485.043 205.999 485.006 206.187 485.006 206.387ZM488.925 212.957V212.385C488.925 211.985 489.013 211.619 489.188 211.287C489.369 210.955 489.628 210.688 489.965 210.488C490.302 210.288 490.707 210.188 491.181 210.188C491.669 210.188 492.079 210.288 492.411 210.488C492.748 210.688 493.002 210.955 493.173 211.287C493.349 211.619 493.437 211.985 493.437 212.385V212.957C493.437 213.357 493.349 213.723 493.173 214.055C493.002 214.387 492.75 214.653 492.418 214.854C492.086 215.054 491.681 215.154 491.203 215.154C490.719 215.154 490.307 215.054 489.965 214.854C489.628 214.653 489.369 214.387 489.188 214.055C489.013 213.723 488.925 213.357 488.925 212.957ZM490.155 212.385V212.957C490.155 213.152 490.194 213.337 490.272 213.513C490.355 213.689 490.475 213.833 490.631 213.945C490.788 214.053 490.976 214.106 491.195 214.106C491.444 214.106 491.645 214.053 491.796 213.945C491.947 213.833 492.055 213.691 492.118 213.521C492.187 213.345 492.221 213.157 492.221 212.957V212.385C492.221 212.185 492.182 211.997 492.104 211.821C492.03 211.646 491.916 211.504 491.759 211.396C491.608 211.289 491.415 211.235 491.181 211.235C490.951 211.235 490.761 211.289 490.609 211.396C490.458 211.504 490.343 211.646 490.265 211.821C490.192 211.997 490.155 212.185 490.155 212.385ZM491.62 205.859L486.413 214.194L485.512 213.674L490.719 205.339L491.62 205.859Z" fill="#1A1A1A"/>
</g>
<defs>
<clipPath id="clip0_7680_87746">
<path d="M40 83C40 74.1634 47.1634 67 56 67H584C592.837 67 600 74.1634 600 83V301C600 309.837 592.837 317 584 317H56C47.1634 317 40 309.837 40 301V83Z" fill="white"/>
</clipPath>
</defs>
</svg>
