<svg width="800" height="188" viewBox="0 0 800 188" fill="none" xmlns="http://www.w3.org/2000/svg">
<rect width="800" height="188" rx="4" fill="#F8F8F8"/>
<rect x="268" y="73" width="77" height="40" rx="4" fill="#286EF1"/>
<path d="M289.083 93.1807H286.366L286.351 91.8403H288.724C289.125 91.8403 289.464 91.7817 289.742 91.6646C290.025 91.5425 290.24 91.3691 290.387 91.1445C290.533 90.915 290.606 90.6392 290.606 90.3169C290.606 89.9604 290.538 89.6699 290.401 89.4453C290.265 89.2207 290.055 89.0571 289.771 88.9546C289.493 88.8521 289.137 88.8008 288.702 88.8008H286.922V98H285.084V87.3359H288.702C289.288 87.3359 289.811 87.3921 290.27 87.5044C290.733 87.6167 291.126 87.7925 291.449 88.0317C291.776 88.2661 292.022 88.564 292.188 88.9253C292.359 89.2866 292.445 89.7163 292.445 90.2144C292.445 90.6538 292.34 91.0566 292.13 91.4229C291.92 91.7842 291.61 92.0796 291.2 92.3091C290.79 92.5386 290.279 92.6753 289.669 92.7192L289.083 93.1807ZM289.002 98H285.787L286.615 96.5425H289.002C289.417 96.5425 289.764 96.4741 290.042 96.3374C290.321 96.1958 290.528 96.0029 290.665 95.7588C290.807 95.5098 290.877 95.2192 290.877 94.8872C290.877 94.5405 290.816 94.2402 290.694 93.9863C290.572 93.7275 290.379 93.5298 290.116 93.3931C289.852 93.2515 289.508 93.1807 289.083 93.1807H287.018L287.032 91.8403H289.72L290.138 92.3457C290.724 92.3652 291.205 92.4946 291.581 92.7339C291.961 92.9731 292.245 93.2832 292.43 93.6641C292.616 94.0449 292.708 94.4551 292.708 94.8945C292.708 95.5732 292.56 96.1421 292.262 96.6011C291.969 97.0601 291.546 97.4092 290.995 97.6484C290.443 97.8828 289.779 98 289.002 98ZM299.154 96.1323V90.0752H300.926V98H299.256L299.154 96.1323ZM299.403 94.4844L299.996 94.4697C299.996 95.002 299.938 95.4927 299.82 95.9419C299.703 96.3862 299.522 96.7744 299.278 97.1064C299.034 97.4336 298.722 97.6899 298.341 97.8755C297.96 98.0562 297.503 98.1465 296.971 98.1465C296.585 98.1465 296.231 98.0903 295.909 97.978C295.587 97.8657 295.309 97.6924 295.074 97.458C294.845 97.2236 294.667 96.9185 294.54 96.5425C294.413 96.1665 294.349 95.7173 294.349 95.1948V90.0752H296.114V95.2095C296.114 95.4976 296.148 95.7393 296.217 95.9346C296.285 96.125 296.378 96.2788 296.495 96.396C296.612 96.5132 296.749 96.5962 296.905 96.645C297.062 96.6938 297.228 96.7183 297.403 96.7183C297.906 96.7183 298.302 96.6206 298.59 96.4253C298.883 96.2251 299.09 95.9565 299.212 95.6196C299.339 95.2827 299.403 94.9043 299.403 94.4844ZM306.368 90.0752V91.3643H301.9V90.0752H306.368ZM303.189 88.1343H304.955V95.8101C304.955 96.0542 304.989 96.2422 305.057 96.374C305.13 96.501 305.23 96.5864 305.357 96.6304C305.484 96.6743 305.633 96.6963 305.804 96.6963C305.926 96.6963 306.043 96.689 306.156 96.6743C306.268 96.6597 306.358 96.645 306.427 96.6304L306.434 97.978C306.288 98.022 306.117 98.061 305.921 98.0952C305.731 98.1294 305.511 98.1465 305.262 98.1465C304.857 98.1465 304.498 98.0757 304.186 97.9341C303.873 97.7876 303.629 97.5508 303.453 97.2236C303.277 96.8965 303.189 96.4619 303.189 95.9199V88.1343ZM311.363 90.0752V91.3643H306.896V90.0752H311.363ZM308.185 88.1343H309.95V95.8101C309.95 96.0542 309.984 96.2422 310.052 96.374C310.125 96.501 310.226 96.5864 310.353 96.6304C310.479 96.6743 310.628 96.6963 310.799 96.6963C310.921 96.6963 311.039 96.689 311.151 96.6743C311.263 96.6597 311.354 96.645 311.422 96.6304L311.429 97.978C311.283 98.022 311.112 98.061 310.917 98.0952C310.726 98.1294 310.506 98.1465 310.257 98.1465C309.852 98.1465 309.493 98.0757 309.181 97.9341C308.868 97.7876 308.624 97.5508 308.448 97.2236C308.272 96.8965 308.185 96.4619 308.185 95.9199V88.1343ZM312.213 94.1255V93.957C312.213 93.3857 312.296 92.856 312.462 92.3677C312.628 91.8745 312.867 91.4473 313.18 91.0859C313.497 90.7197 313.883 90.4365 314.337 90.2363C314.796 90.0312 315.313 89.9287 315.89 89.9287C316.471 89.9287 316.988 90.0312 317.442 90.2363C317.901 90.4365 318.29 90.7197 318.607 91.0859C318.924 91.4473 319.166 91.8745 319.332 92.3677C319.498 92.856 319.581 93.3857 319.581 93.957V94.1255C319.581 94.6968 319.498 95.2266 319.332 95.7148C319.166 96.2031 318.924 96.6304 318.607 96.9966C318.29 97.3579 317.904 97.6411 317.45 97.8462C316.996 98.0464 316.48 98.1465 315.904 98.1465C315.323 98.1465 314.803 98.0464 314.344 97.8462C313.89 97.6411 313.504 97.3579 313.187 96.9966C312.87 96.6304 312.628 96.2031 312.462 95.7148C312.296 95.2266 312.213 94.6968 312.213 94.1255ZM313.978 93.957V94.1255C313.978 94.4819 314.015 94.8188 314.088 95.1362C314.161 95.4536 314.276 95.7319 314.432 95.9712C314.588 96.2104 314.789 96.3984 315.033 96.5352C315.277 96.6719 315.567 96.7402 315.904 96.7402C316.231 96.7402 316.515 96.6719 316.754 96.5352C316.998 96.3984 317.198 96.2104 317.354 95.9712C317.511 95.7319 317.625 95.4536 317.699 95.1362C317.777 94.8188 317.816 94.4819 317.816 94.1255V93.957C317.816 93.6055 317.777 93.2734 317.699 92.9609C317.625 92.6436 317.508 92.3628 317.347 92.1187C317.191 91.8745 316.991 91.6841 316.747 91.5474C316.507 91.4058 316.222 91.335 315.89 91.335C315.558 91.335 315.27 91.4058 315.025 91.5474C314.786 91.6841 314.588 91.8745 314.432 92.1187C314.276 92.3628 314.161 92.6436 314.088 92.9609C314.015 93.2734 313.978 93.6055 313.978 93.957ZM322.811 91.7671V98H321.046V90.0752H322.708L322.811 91.7671ZM322.496 93.7446L321.925 93.7373C321.93 93.1758 322.008 92.6606 322.159 92.1919C322.315 91.7231 322.53 91.3203 322.804 90.9834C323.082 90.6465 323.414 90.3877 323.8 90.207C324.186 90.0215 324.615 89.9287 325.089 89.9287C325.47 89.9287 325.814 89.9824 326.122 90.0898C326.434 90.1924 326.7 90.3608 326.92 90.5952C327.145 90.8296 327.315 91.1348 327.433 91.5107C327.55 91.8818 327.608 92.3384 327.608 92.8804V98H325.836V92.873C325.836 92.4922 325.78 92.1919 325.667 91.9722C325.56 91.7476 325.401 91.5889 325.191 91.4961C324.986 91.3984 324.73 91.3496 324.422 91.3496C324.12 91.3496 323.849 91.4131 323.609 91.54C323.37 91.667 323.167 91.8403 323.001 92.0601C322.84 92.2798 322.716 92.5337 322.628 92.8218C322.54 93.1099 322.496 93.4175 322.496 93.7446Z" fill="white"/>
<rect x="434" y="75" width="101" height="40" rx="4" fill="#286EF1"/>
<path d="M464 95C464 95.5103 463.587 95.9234 463.077 95.9234H458.923V100.077C458.923 100.588 458.51 101 458 101C457.49 101 457.077 100.588 457.077 100.077V95.9234H452.923C452.413 95.9234 452 95.5103 452 95C452 94.4897 452.413 94.0772 452.923 94.0772H457.077V89.9234C457.077 89.4131 457.49 89 458 89C458.51 89 458.923 89.4131 458.923 89.9234V94.0772H463.077C463.588 94.0769 464 94.4894 464 95Z" fill="white"/>
<path d="M479.083 95.1807H476.366L476.351 93.8403H478.724C479.125 93.8403 479.464 93.7817 479.742 93.6646C480.025 93.5425 480.24 93.3691 480.387 93.1445C480.533 92.915 480.606 92.6392 480.606 92.3169C480.606 91.9604 480.538 91.6699 480.401 91.4453C480.265 91.2207 480.055 91.0571 479.771 90.9546C479.493 90.8521 479.137 90.8008 478.702 90.8008H476.922V100H475.084V89.3359H478.702C479.288 89.3359 479.811 89.3921 480.27 89.5044C480.733 89.6167 481.126 89.7925 481.449 90.0317C481.776 90.2661 482.022 90.564 482.188 90.9253C482.359 91.2866 482.445 91.7163 482.445 92.2144C482.445 92.6538 482.34 93.0566 482.13 93.4229C481.92 93.7842 481.61 94.0796 481.2 94.3091C480.79 94.5386 480.279 94.6753 479.669 94.7192L479.083 95.1807ZM479.002 100H475.787L476.615 98.5425H479.002C479.417 98.5425 479.764 98.4741 480.042 98.3374C480.321 98.1958 480.528 98.0029 480.665 97.7588C480.807 97.5098 480.877 97.2192 480.877 96.8872C480.877 96.5405 480.816 96.2402 480.694 95.9863C480.572 95.7275 480.379 95.5298 480.116 95.3931C479.852 95.2515 479.508 95.1807 479.083 95.1807H477.018L477.032 93.8403H479.72L480.138 94.3457C480.724 94.3652 481.205 94.4946 481.581 94.7339C481.961 94.9731 482.245 95.2832 482.43 95.6641C482.616 96.0449 482.708 96.4551 482.708 96.8945C482.708 97.5732 482.56 98.1421 482.262 98.6011C481.969 99.0601 481.546 99.4092 480.995 99.6484C480.443 99.8828 479.779 100 479.002 100ZM489.154 98.1323V92.0752H490.926V100H489.256L489.154 98.1323ZM489.403 96.4844L489.996 96.4697C489.996 97.002 489.938 97.4927 489.82 97.9419C489.703 98.3862 489.522 98.7744 489.278 99.1064C489.034 99.4336 488.722 99.6899 488.341 99.8755C487.96 100.056 487.503 100.146 486.971 100.146C486.585 100.146 486.231 100.09 485.909 99.978C485.587 99.8657 485.309 99.6924 485.074 99.458C484.845 99.2236 484.667 98.9185 484.54 98.5425C484.413 98.1665 484.349 97.7173 484.349 97.1948V92.0752H486.114V97.2095C486.114 97.4976 486.148 97.7393 486.217 97.9346C486.285 98.125 486.378 98.2788 486.495 98.396C486.612 98.5132 486.749 98.5962 486.905 98.645C487.062 98.6938 487.228 98.7183 487.403 98.7183C487.906 98.7183 488.302 98.6206 488.59 98.4253C488.883 98.2251 489.09 97.9565 489.212 97.6196C489.339 97.2827 489.403 96.9043 489.403 96.4844ZM496.368 92.0752V93.3643H491.9V92.0752H496.368ZM493.189 90.1343H494.955V97.8101C494.955 98.0542 494.989 98.2422 495.057 98.374C495.13 98.501 495.23 98.5864 495.357 98.6304C495.484 98.6743 495.633 98.6963 495.804 98.6963C495.926 98.6963 496.043 98.689 496.156 98.6743C496.268 98.6597 496.358 98.645 496.427 98.6304L496.434 99.978C496.288 100.022 496.117 100.061 495.921 100.095C495.731 100.129 495.511 100.146 495.262 100.146C494.857 100.146 494.498 100.076 494.186 99.9341C493.873 99.7876 493.629 99.5508 493.453 99.2236C493.277 98.8965 493.189 98.4619 493.189 97.9199V90.1343ZM501.363 92.0752V93.3643H496.896V92.0752H501.363ZM498.185 90.1343H499.95V97.8101C499.95 98.0542 499.984 98.2422 500.052 98.374C500.125 98.501 500.226 98.5864 500.353 98.6304C500.479 98.6743 500.628 98.6963 500.799 98.6963C500.921 98.6963 501.039 98.689 501.151 98.6743C501.263 98.6597 501.354 98.645 501.422 98.6304L501.429 99.978C501.283 100.022 501.112 100.061 500.917 100.095C500.726 100.129 500.506 100.146 500.257 100.146C499.852 100.146 499.493 100.076 499.181 99.9341C498.868 99.7876 498.624 99.5508 498.448 99.2236C498.272 98.8965 498.185 98.4619 498.185 97.9199V90.1343ZM502.213 96.1255V95.957C502.213 95.3857 502.296 94.856 502.462 94.3677C502.628 93.8745 502.867 93.4473 503.18 93.0859C503.497 92.7197 503.883 92.4365 504.337 92.2363C504.796 92.0312 505.313 91.9287 505.89 91.9287C506.471 91.9287 506.988 92.0312 507.442 92.2363C507.901 92.4365 508.29 92.7197 508.607 93.0859C508.924 93.4473 509.166 93.8745 509.332 94.3677C509.498 94.856 509.581 95.3857 509.581 95.957V96.1255C509.581 96.6968 509.498 97.2266 509.332 97.7148C509.166 98.2031 508.924 98.6304 508.607 98.9966C508.29 99.3579 507.904 99.6411 507.45 99.8462C506.996 100.046 506.48 100.146 505.904 100.146C505.323 100.146 504.803 100.046 504.344 99.8462C503.89 99.6411 503.504 99.3579 503.187 98.9966C502.87 98.6304 502.628 98.2031 502.462 97.7148C502.296 97.2266 502.213 96.6968 502.213 96.1255ZM503.978 95.957V96.1255C503.978 96.4819 504.015 96.8188 504.088 97.1362C504.161 97.4536 504.276 97.7319 504.432 97.9712C504.588 98.2104 504.789 98.3984 505.033 98.5352C505.277 98.6719 505.567 98.7402 505.904 98.7402C506.231 98.7402 506.515 98.6719 506.754 98.5352C506.998 98.3984 507.198 98.2104 507.354 97.9712C507.511 97.7319 507.625 97.4536 507.699 97.1362C507.777 96.8188 507.816 96.4819 507.816 96.1255V95.957C507.816 95.6055 507.777 95.2734 507.699 94.9609C507.625 94.6436 507.508 94.3628 507.347 94.1187C507.191 93.8745 506.991 93.6841 506.747 93.5474C506.507 93.4058 506.222 93.335 505.89 93.335C505.558 93.335 505.27 93.4058 505.025 93.5474C504.786 93.6841 504.588 93.8745 504.432 94.1187C504.276 94.3628 504.161 94.6436 504.088 94.9609C504.015 95.2734 503.978 95.6055 503.978 95.957ZM512.811 93.7671V100H511.046V92.0752H512.708L512.811 93.7671ZM512.496 95.7446L511.925 95.7373C511.93 95.1758 512.008 94.6606 512.159 94.1919C512.315 93.7231 512.53 93.3203 512.804 92.9834C513.082 92.6465 513.414 92.3877 513.8 92.207C514.186 92.0215 514.615 91.9287 515.089 91.9287C515.47 91.9287 515.814 91.9824 516.122 92.0898C516.434 92.1924 516.7 92.3608 516.92 92.5952C517.145 92.8296 517.315 93.1348 517.433 93.5107C517.55 93.8818 517.608 94.3384 517.608 94.8804V100H515.836V94.873C515.836 94.4922 515.78 94.1919 515.667 93.9722C515.56 93.7476 515.401 93.5889 515.191 93.4961C514.986 93.3984 514.73 93.3496 514.422 93.3496C514.12 93.3496 513.849 93.4131 513.609 93.54C513.37 93.667 513.167 93.8403 513.001 94.0601C512.84 94.2798 512.716 94.5337 512.628 94.8218C512.54 95.1099 512.496 95.4175 512.496 95.7446Z" fill="white"/>
<rect x="330" y="73" width="16" height="40" fill="#FF0000" fill-opacity="0.25"/>
<rect x="268" y="73" width="16" height="40" fill="#FF0000" fill-opacity="0.25"/>
<rect x="434" y="75" width="16" height="40" fill="#FF0000" fill-opacity="0.25"/>
<rect x="466" y="75" width="8" height="40" fill="#FF0000" fill-opacity="0.25"/>
<rect x="520" y="75" width="16" height="40" fill="#FF0000" fill-opacity="0.25"/>
<path d="M266.991 44.707V54H265.817V46.1733L263.449 47.0366V45.9766L266.807 44.707H266.991ZM274.951 44.7451H275.053V45.7417H274.951C274.329 45.7417 273.809 45.8433 273.39 46.0464C272.971 46.2453 272.639 46.514 272.393 46.8525C272.148 47.1868 271.97 47.5635 271.86 47.9824C271.754 48.4014 271.701 48.8267 271.701 49.2583V50.6167C271.701 51.0272 271.75 51.3911 271.847 51.7085C271.944 52.0216 272.078 52.2861 272.247 52.502C272.416 52.7178 272.607 52.8807 272.818 52.9907C273.034 53.1007 273.258 53.1558 273.491 53.1558C273.762 53.1558 274.003 53.105 274.215 53.0034C274.426 52.8976 274.604 52.7516 274.748 52.5654C274.896 52.375 275.008 52.1507 275.084 51.8926C275.161 51.6344 275.199 51.3509 275.199 51.042C275.199 50.7669 275.165 50.5024 275.097 50.2485C275.029 49.9904 274.926 49.7619 274.786 49.563C274.646 49.3599 274.471 49.2012 274.259 49.0869C274.052 48.9684 273.804 48.9092 273.517 48.9092C273.191 48.9092 272.886 48.9896 272.603 49.1504C272.323 49.307 272.093 49.5143 271.911 49.7725C271.733 50.0264 271.631 50.3035 271.606 50.604L270.984 50.5977C271.043 50.1237 271.153 49.7196 271.314 49.3853C271.479 49.0467 271.682 48.7716 271.923 48.5601C272.169 48.3442 272.442 48.1877 272.742 48.0903C273.047 47.9888 273.368 47.938 273.707 47.938C274.168 47.938 274.566 48.0247 274.9 48.1982C275.235 48.3717 275.51 48.6045 275.726 48.8965C275.941 49.1842 276.1 49.5101 276.202 49.874C276.307 50.2337 276.36 50.604 276.36 50.9849C276.36 51.4207 276.299 51.8291 276.176 52.21C276.054 52.5908 275.869 52.9251 275.624 53.2129C275.383 53.5007 275.084 53.7249 274.729 53.8857C274.374 54.0465 273.961 54.127 273.491 54.127C272.992 54.127 272.556 54.0254 272.184 53.8223C271.811 53.6149 271.502 53.3398 271.257 52.9971C271.011 52.6543 270.827 52.2734 270.705 51.8545C270.582 51.4355 270.521 51.0103 270.521 50.5786V50.0264C270.521 49.3747 270.586 48.7357 270.717 48.1094C270.848 47.4831 271.075 46.916 271.396 46.4082C271.722 45.9004 272.173 45.4963 272.749 45.1958C273.324 44.8953 274.058 44.7451 274.951 44.7451ZM279.058 48.4521V56.6406H277.877V47.1318H278.957L279.058 48.4521ZM283.686 50.5088V50.6421C283.686 51.1414 283.626 51.6048 283.508 52.0322C283.389 52.4554 283.216 52.8236 282.987 53.1367C282.763 53.4499 282.486 53.6932 282.156 53.8667C281.826 54.0402 281.447 54.127 281.02 54.127C280.584 54.127 280.199 54.055 279.864 53.9111C279.53 53.7673 279.246 53.5578 279.014 53.2827C278.781 53.0076 278.595 52.6776 278.455 52.2925C278.32 51.9074 278.227 51.4736 278.176 50.9912V50.2803C278.227 49.7725 278.322 49.3175 278.461 48.9155C278.601 48.5135 278.785 48.1707 279.014 47.8872C279.246 47.5994 279.528 47.3815 279.858 47.2334C280.188 47.0811 280.569 47.0049 281 47.0049C281.432 47.0049 281.815 47.0895 282.149 47.2588C282.484 47.4238 282.765 47.6608 282.994 47.9697C283.222 48.2786 283.394 48.6489 283.508 49.0806C283.626 49.508 283.686 49.984 283.686 50.5088ZM282.505 50.6421V50.5088C282.505 50.166 282.469 49.8444 282.397 49.5439C282.325 49.2393 282.213 48.9727 282.061 48.7441C281.912 48.5114 281.722 48.3294 281.489 48.1982C281.257 48.0628 280.979 47.9951 280.658 47.9951C280.361 47.9951 280.103 48.0459 279.883 48.1475C279.667 48.249 279.483 48.3866 279.331 48.5601C279.179 48.7293 279.054 48.924 278.957 49.144C278.863 49.3599 278.794 49.5841 278.747 49.8169V51.4609C278.832 51.7572 278.95 52.0365 279.103 52.2988C279.255 52.557 279.458 52.7664 279.712 52.9272C279.966 53.0838 280.285 53.1621 280.67 53.1621C280.988 53.1621 281.261 53.0965 281.489 52.9653C281.722 52.8299 281.912 52.6458 282.061 52.4131C282.213 52.1803 282.325 51.9137 282.397 51.6133C282.469 51.3086 282.505 50.9849 282.505 50.6421ZM285.875 47.1318L287.38 49.6328L288.903 47.1318H290.281L288.034 50.5215L290.351 54H288.992L287.405 51.4229L285.818 54H284.454L286.764 50.5215L284.523 47.1318H285.875Z" fill="#333333"/>
<path d="M432.991 46.707V56H431.817V48.1733L429.449 49.0366V47.9766L432.807 46.707H432.991ZM440.951 46.7451H441.053V47.7417H440.951C440.329 47.7417 439.809 47.8433 439.39 48.0464C438.971 48.2453 438.639 48.514 438.393 48.8525C438.148 49.1868 437.97 49.5635 437.86 49.9824C437.754 50.4014 437.701 50.8267 437.701 51.2583V52.6167C437.701 53.0272 437.75 53.3911 437.847 53.7085C437.944 54.0216 438.078 54.2861 438.247 54.502C438.416 54.7178 438.607 54.8807 438.818 54.9907C439.034 55.1007 439.258 55.1558 439.491 55.1558C439.762 55.1558 440.003 55.105 440.215 55.0034C440.426 54.8976 440.604 54.7516 440.748 54.5654C440.896 54.375 441.008 54.1507 441.084 53.8926C441.161 53.6344 441.199 53.3509 441.199 53.042C441.199 52.7669 441.165 52.5024 441.097 52.2485C441.029 51.9904 440.926 51.7619 440.786 51.563C440.646 51.3599 440.471 51.2012 440.259 51.0869C440.052 50.9684 439.804 50.9092 439.517 50.9092C439.191 50.9092 438.886 50.9896 438.603 51.1504C438.323 51.307 438.093 51.5143 437.911 51.7725C437.733 52.0264 437.631 52.3035 437.606 52.604L436.984 52.5977C437.043 52.1237 437.153 51.7196 437.314 51.3853C437.479 51.0467 437.682 50.7716 437.923 50.5601C438.169 50.3442 438.442 50.1877 438.742 50.0903C439.047 49.9888 439.368 49.938 439.707 49.938C440.168 49.938 440.566 50.0247 440.9 50.1982C441.235 50.3717 441.51 50.6045 441.726 50.8965C441.941 51.1842 442.1 51.5101 442.202 51.874C442.307 52.2337 442.36 52.604 442.36 52.9849C442.36 53.4207 442.299 53.8291 442.176 54.21C442.054 54.5908 441.869 54.9251 441.624 55.2129C441.383 55.5007 441.084 55.7249 440.729 55.8857C440.374 56.0465 439.961 56.127 439.491 56.127C438.992 56.127 438.556 56.0254 438.184 55.8223C437.811 55.6149 437.502 55.3398 437.257 54.9971C437.011 54.6543 436.827 54.2734 436.705 53.8545C436.582 53.4355 436.521 53.0103 436.521 52.5786V52.0264C436.521 51.3747 436.586 50.7357 436.717 50.1094C436.848 49.4831 437.075 48.916 437.396 48.4082C437.722 47.9004 438.173 47.4963 438.749 47.1958C439.324 46.8953 440.058 46.7451 440.951 46.7451ZM445.058 50.4521V58.6406H443.877V49.1318H444.957L445.058 50.4521ZM449.686 52.5088V52.6421C449.686 53.1414 449.626 53.6048 449.508 54.0322C449.389 54.4554 449.216 54.8236 448.987 55.1367C448.763 55.4499 448.486 55.6932 448.156 55.8667C447.826 56.0402 447.447 56.127 447.02 56.127C446.584 56.127 446.199 56.055 445.864 55.9111C445.53 55.7673 445.246 55.5578 445.014 55.2827C444.781 55.0076 444.595 54.6776 444.455 54.2925C444.32 53.9074 444.227 53.4736 444.176 52.9912V52.2803C444.227 51.7725 444.322 51.3175 444.461 50.9155C444.601 50.5135 444.785 50.1707 445.014 49.8872C445.246 49.5994 445.528 49.3815 445.858 49.2334C446.188 49.0811 446.569 49.0049 447 49.0049C447.432 49.0049 447.815 49.0895 448.149 49.2588C448.484 49.4238 448.765 49.6608 448.994 49.9697C449.222 50.2786 449.394 50.6489 449.508 51.0806C449.626 51.508 449.686 51.984 449.686 52.5088ZM448.505 52.6421V52.5088C448.505 52.166 448.469 51.8444 448.397 51.5439C448.325 51.2393 448.213 50.9727 448.061 50.7441C447.912 50.5114 447.722 50.3294 447.489 50.1982C447.257 50.0628 446.979 49.9951 446.658 49.9951C446.361 49.9951 446.103 50.0459 445.883 50.1475C445.667 50.249 445.483 50.3866 445.331 50.5601C445.179 50.7293 445.054 50.924 444.957 51.144C444.863 51.3599 444.794 51.5841 444.747 51.8169V53.4609C444.832 53.7572 444.95 54.0365 445.103 54.2988C445.255 54.557 445.458 54.7664 445.712 54.9272C445.966 55.0838 446.285 55.1621 446.67 55.1621C446.988 55.1621 447.261 55.0965 447.489 54.9653C447.722 54.8299 447.912 54.6458 448.061 54.4131C448.213 54.1803 448.325 53.9137 448.397 53.6133C448.469 53.3086 448.505 52.9849 448.505 52.6421ZM451.875 49.1318L453.38 51.6328L454.903 49.1318H456.281L454.034 52.5215L456.351 56H454.992L453.405 53.4229L451.818 56H450.454L452.764 52.5215L450.523 49.1318H451.875Z" fill="#333333"/>
<path d="M466.615 135.499C466.615 136.062 466.484 136.54 466.222 136.934C465.964 137.323 465.612 137.619 465.168 137.822C464.728 138.025 464.231 138.127 463.676 138.127C463.122 138.127 462.623 138.025 462.178 137.822C461.734 137.619 461.383 137.323 461.125 136.934C460.866 136.54 460.737 136.062 460.737 135.499C460.737 135.131 460.807 134.794 460.947 134.49C461.091 134.181 461.292 133.912 461.55 133.684C461.812 133.455 462.121 133.279 462.477 133.157C462.836 133.03 463.232 132.966 463.664 132.966C464.231 132.966 464.736 133.076 465.181 133.296C465.625 133.512 465.974 133.811 466.228 134.191C466.486 134.572 466.615 135.008 466.615 135.499ZM465.435 135.474C465.435 135.131 465.361 134.828 465.212 134.566C465.064 134.299 464.857 134.092 464.59 133.944C464.324 133.796 464.015 133.722 463.664 133.722C463.304 133.722 462.993 133.796 462.73 133.944C462.472 134.092 462.271 134.299 462.127 134.566C461.984 134.828 461.912 135.131 461.912 135.474C461.912 135.829 461.981 136.134 462.121 136.388C462.265 136.637 462.468 136.83 462.73 136.965C462.997 137.097 463.312 137.162 463.676 137.162C464.04 137.162 464.353 137.097 464.616 136.965C464.878 136.83 465.079 136.637 465.219 136.388C465.363 136.134 465.435 135.829 465.435 135.474ZM466.399 131.164C466.399 131.612 466.281 132.016 466.044 132.376C465.807 132.736 465.483 133.019 465.073 133.227C464.662 133.434 464.197 133.538 463.676 133.538C463.147 133.538 462.675 133.434 462.261 133.227C461.85 133.019 461.529 132.736 461.296 132.376C461.063 132.016 460.947 131.612 460.947 131.164C460.947 130.626 461.063 130.169 461.296 129.792C461.533 129.416 461.857 129.128 462.267 128.929C462.678 128.73 463.145 128.631 463.67 128.631C464.199 128.631 464.669 128.73 465.079 128.929C465.49 129.128 465.811 129.416 466.044 129.792C466.281 130.169 466.399 130.626 466.399 131.164ZM465.225 131.183C465.225 130.874 465.16 130.601 465.028 130.364C464.897 130.127 464.715 129.941 464.482 129.805C464.25 129.666 463.979 129.596 463.67 129.596C463.361 129.596 463.09 129.661 462.857 129.792C462.629 129.919 462.449 130.101 462.318 130.338C462.191 130.575 462.127 130.857 462.127 131.183C462.127 131.5 462.191 131.777 462.318 132.014C462.449 132.251 462.631 132.435 462.864 132.566C463.097 132.698 463.367 132.763 463.676 132.763C463.985 132.763 464.254 132.698 464.482 132.566C464.715 132.435 464.897 132.251 465.028 132.014C465.16 131.777 465.225 131.5 465.225 131.183ZM469.402 132.452V140.641H468.221V131.132H469.3L469.402 132.452ZM474.029 134.509V134.642C474.029 135.141 473.97 135.605 473.852 136.032C473.733 136.455 473.56 136.824 473.331 137.137C473.107 137.45 472.83 137.693 472.5 137.867C472.169 138.04 471.791 138.127 471.363 138.127C470.927 138.127 470.542 138.055 470.208 137.911C469.874 137.767 469.59 137.558 469.357 137.283C469.125 137.008 468.938 136.678 468.799 136.292C468.663 135.907 468.57 135.474 468.52 134.991V134.28C468.57 133.772 468.666 133.318 468.805 132.916C468.945 132.514 469.129 132.171 469.357 131.887C469.59 131.599 469.872 131.382 470.202 131.233C470.532 131.081 470.913 131.005 471.344 131.005C471.776 131.005 472.159 131.09 472.493 131.259C472.827 131.424 473.109 131.661 473.337 131.97C473.566 132.279 473.737 132.649 473.852 133.081C473.97 133.508 474.029 133.984 474.029 134.509ZM472.849 134.642V134.509C472.849 134.166 472.813 133.844 472.741 133.544C472.669 133.239 472.557 132.973 472.404 132.744C472.256 132.511 472.066 132.329 471.833 132.198C471.6 132.063 471.323 131.995 471.001 131.995C470.705 131.995 470.447 132.046 470.227 132.147C470.011 132.249 469.827 132.387 469.675 132.56C469.522 132.729 469.398 132.924 469.3 133.144C469.207 133.36 469.137 133.584 469.091 133.817V135.461C469.175 135.757 469.294 136.036 469.446 136.299C469.599 136.557 469.802 136.766 470.056 136.927C470.31 137.084 470.629 137.162 471.014 137.162C471.332 137.162 471.604 137.097 471.833 136.965C472.066 136.83 472.256 136.646 472.404 136.413C472.557 136.18 472.669 135.914 472.741 135.613C472.813 135.309 472.849 134.985 472.849 134.642ZM476.219 131.132L477.724 133.633L479.247 131.132H480.625L478.377 134.521L480.694 138H479.336L477.749 135.423L476.162 138H474.797L477.108 134.521L474.867 131.132H476.219Z" fill="#333333"/>
<path d="M514.991 46.707V56H513.817V48.1733L511.449 49.0366V47.9766L514.807 46.707H514.991ZM522.951 46.7451H523.053V47.7417H522.951C522.329 47.7417 521.809 47.8433 521.39 48.0464C520.971 48.2453 520.639 48.514 520.393 48.8525C520.148 49.1868 519.97 49.5635 519.86 49.9824C519.754 50.4014 519.701 50.8267 519.701 51.2583V52.6167C519.701 53.0272 519.75 53.3911 519.847 53.7085C519.944 54.0216 520.078 54.2861 520.247 54.502C520.416 54.7178 520.607 54.8807 520.818 54.9907C521.034 55.1007 521.258 55.1558 521.491 55.1558C521.762 55.1558 522.003 55.105 522.215 55.0034C522.426 54.8976 522.604 54.7516 522.748 54.5654C522.896 54.375 523.008 54.1507 523.084 53.8926C523.161 53.6344 523.199 53.3509 523.199 53.042C523.199 52.7669 523.165 52.5024 523.097 52.2485C523.029 51.9904 522.926 51.7619 522.786 51.563C522.646 51.3599 522.471 51.2012 522.259 51.0869C522.052 50.9684 521.804 50.9092 521.517 50.9092C521.191 50.9092 520.886 50.9896 520.603 51.1504C520.323 51.307 520.093 51.5143 519.911 51.7725C519.733 52.0264 519.631 52.3035 519.606 52.604L518.984 52.5977C519.043 52.1237 519.153 51.7196 519.314 51.3853C519.479 51.0467 519.682 50.7716 519.923 50.5601C520.169 50.3442 520.442 50.1877 520.742 50.0903C521.047 49.9888 521.368 49.938 521.707 49.938C522.168 49.938 522.566 50.0247 522.9 50.1982C523.235 50.3717 523.51 50.6045 523.726 50.8965C523.941 51.1842 524.1 51.5101 524.202 51.874C524.307 52.2337 524.36 52.604 524.36 52.9849C524.36 53.4207 524.299 53.8291 524.176 54.21C524.054 54.5908 523.869 54.9251 523.624 55.2129C523.383 55.5007 523.084 55.7249 522.729 55.8857C522.374 56.0465 521.961 56.127 521.491 56.127C520.992 56.127 520.556 56.0254 520.184 55.8223C519.811 55.6149 519.502 55.3398 519.257 54.9971C519.011 54.6543 518.827 54.2734 518.705 53.8545C518.582 53.4355 518.521 53.0103 518.521 52.5786V52.0264C518.521 51.3747 518.586 50.7357 518.717 50.1094C518.848 49.4831 519.075 48.916 519.396 48.4082C519.722 47.9004 520.173 47.4963 520.749 47.1958C521.324 46.8953 522.058 46.7451 522.951 46.7451ZM527.058 50.4521V58.6406H525.877V49.1318H526.957L527.058 50.4521ZM531.686 52.5088V52.6421C531.686 53.1414 531.626 53.6048 531.508 54.0322C531.389 54.4554 531.216 54.8236 530.987 55.1367C530.763 55.4499 530.486 55.6932 530.156 55.8667C529.826 56.0402 529.447 56.127 529.02 56.127C528.584 56.127 528.199 56.055 527.864 55.9111C527.53 55.7673 527.246 55.5578 527.014 55.2827C526.781 55.0076 526.595 54.6776 526.455 54.2925C526.32 53.9074 526.227 53.4736 526.176 52.9912V52.2803C526.227 51.7725 526.322 51.3175 526.461 50.9155C526.601 50.5135 526.785 50.1707 527.014 49.8872C527.246 49.5994 527.528 49.3815 527.858 49.2334C528.188 49.0811 528.569 49.0049 529 49.0049C529.432 49.0049 529.815 49.0895 530.149 49.2588C530.484 49.4238 530.765 49.6608 530.994 49.9697C531.222 50.2786 531.394 50.6489 531.508 51.0806C531.626 51.508 531.686 51.984 531.686 52.5088ZM530.505 52.6421V52.5088C530.505 52.166 530.469 51.8444 530.397 51.5439C530.325 51.2393 530.213 50.9727 530.061 50.7441C529.912 50.5114 529.722 50.3294 529.489 50.1982C529.257 50.0628 528.979 49.9951 528.658 49.9951C528.361 49.9951 528.103 50.0459 527.883 50.1475C527.667 50.249 527.483 50.3866 527.331 50.5601C527.179 50.7293 527.054 50.924 526.957 51.144C526.863 51.3599 526.794 51.5841 526.747 51.8169V53.4609C526.832 53.7572 526.95 54.0365 527.103 54.2988C527.255 54.557 527.458 54.7664 527.712 54.9272C527.966 55.0838 528.285 55.1621 528.67 55.1621C528.988 55.1621 529.261 55.0965 529.489 54.9653C529.722 54.8299 529.912 54.6458 530.061 54.4131C530.213 54.1803 530.325 53.9137 530.397 53.6133C530.469 53.3086 530.505 52.9849 530.505 52.6421ZM533.875 49.1318L535.38 51.6328L536.903 49.1318H538.281L536.034 52.5215L538.351 56H536.992L535.405 53.4229L533.818 56H532.454L534.764 52.5215L532.523 49.1318H533.875Z" fill="#333333"/>
<path d="M268 64.5H284M268 64.5V60M268 64.5V69M284 64.5V60M284 64.5V69" stroke="#0059FF"/>
<path d="M434 66.5H450M434 66.5V62M434 66.5V71M450 66.5V62M450 66.5V71" stroke="#0059FF"/>
<path d="M466 123.5H474M466 123.5V119M466 123.5V128M474 123.5V119M474 123.5V128" stroke="#0059FF"/>
<path d="M516 66.5H532M516 66.5V62M516 66.5V71M532 66.5V62M532 66.5V71" stroke="#0059FF"/>
</svg>
