<svg width="800" height="143" viewBox="0 0 800 143" fill="none" xmlns="http://www.w3.org/2000/svg">
<rect width="800" height="143" rx="4" fill="#F8F8F8"/>
<rect x="156" y="68" width="77" height="40" rx="4" fill="#286EF1"/>
<path d="M177.083 88.1807H174.366L174.351 86.8403H176.724C177.125 86.8403 177.464 86.7817 177.742 86.6646C178.025 86.5425 178.24 86.3691 178.387 86.1445C178.533 85.915 178.606 85.6392 178.606 85.3169C178.606 84.9604 178.538 84.6699 178.401 84.4453C178.265 84.2207 178.055 84.0571 177.771 83.9546C177.493 83.8521 177.137 83.8008 176.702 83.8008H174.922V93H173.084V82.3359H176.702C177.288 82.3359 177.811 82.3921 178.27 82.5044C178.733 82.6167 179.126 82.7925 179.449 83.0317C179.776 83.2661 180.022 83.564 180.188 83.9253C180.359 84.2866 180.445 84.7163 180.445 85.2144C180.445 85.6538 180.34 86.0566 180.13 86.4229C179.92 86.7842 179.61 87.0796 179.2 87.3091C178.79 87.5386 178.279 87.6753 177.669 87.7192L177.083 88.1807ZM177.002 93H173.787L174.615 91.5425H177.002C177.417 91.5425 177.764 91.4741 178.042 91.3374C178.321 91.1958 178.528 91.0029 178.665 90.7588C178.807 90.5098 178.877 90.2192 178.877 89.8872C178.877 89.5405 178.816 89.2402 178.694 88.9863C178.572 88.7275 178.379 88.5298 178.116 88.3931C177.852 88.2515 177.508 88.1807 177.083 88.1807H175.018L175.032 86.8403H177.72L178.138 87.3457C178.724 87.3652 179.205 87.4946 179.581 87.7339C179.961 87.9731 180.245 88.2832 180.43 88.6641C180.616 89.0449 180.708 89.4551 180.708 89.8945C180.708 90.5732 180.56 91.1421 180.262 91.6011C179.969 92.0601 179.546 92.4092 178.995 92.6484C178.443 92.8828 177.779 93 177.002 93ZM187.154 91.1323V85.0752H188.926V93H187.256L187.154 91.1323ZM187.403 89.4844L187.996 89.4697C187.996 90.002 187.938 90.4927 187.82 90.9419C187.703 91.3862 187.522 91.7744 187.278 92.1064C187.034 92.4336 186.722 92.6899 186.341 92.8755C185.96 93.0562 185.503 93.1465 184.971 93.1465C184.585 93.1465 184.231 93.0903 183.909 92.978C183.587 92.8657 183.309 92.6924 183.074 92.458C182.845 92.2236 182.667 91.9185 182.54 91.5425C182.413 91.1665 182.349 90.7173 182.349 90.1948V85.0752H184.114V90.2095C184.114 90.4976 184.148 90.7393 184.217 90.9346C184.285 91.125 184.378 91.2788 184.495 91.396C184.612 91.5132 184.749 91.5962 184.905 91.645C185.062 91.6938 185.228 91.7183 185.403 91.7183C185.906 91.7183 186.302 91.6206 186.59 91.4253C186.883 91.2251 187.09 90.9565 187.212 90.6196C187.339 90.2827 187.403 89.9043 187.403 89.4844ZM194.368 85.0752V86.3643H189.9V85.0752H194.368ZM191.189 83.1343H192.955V90.8101C192.955 91.0542 192.989 91.2422 193.057 91.374C193.13 91.501 193.23 91.5864 193.357 91.6304C193.484 91.6743 193.633 91.6963 193.804 91.6963C193.926 91.6963 194.043 91.689 194.156 91.6743C194.268 91.6597 194.358 91.645 194.427 91.6304L194.434 92.978C194.288 93.022 194.117 93.061 193.921 93.0952C193.731 93.1294 193.511 93.1465 193.262 93.1465C192.857 93.1465 192.498 93.0757 192.186 92.9341C191.873 92.7876 191.629 92.5508 191.453 92.2236C191.277 91.8965 191.189 91.4619 191.189 90.9199V83.1343ZM199.363 85.0752V86.3643H194.896V85.0752H199.363ZM196.185 83.1343H197.95V90.8101C197.95 91.0542 197.984 91.2422 198.052 91.374C198.125 91.501 198.226 91.5864 198.353 91.6304C198.479 91.6743 198.628 91.6963 198.799 91.6963C198.921 91.6963 199.039 91.689 199.151 91.6743C199.263 91.6597 199.354 91.645 199.422 91.6304L199.429 92.978C199.283 93.022 199.112 93.061 198.917 93.0952C198.726 93.1294 198.506 93.1465 198.257 93.1465C197.852 93.1465 197.493 93.0757 197.181 92.9341C196.868 92.7876 196.624 92.5508 196.448 92.2236C196.272 91.8965 196.185 91.4619 196.185 90.9199V83.1343ZM200.213 89.1255V88.957C200.213 88.3857 200.296 87.856 200.462 87.3677C200.628 86.8745 200.867 86.4473 201.18 86.0859C201.497 85.7197 201.883 85.4365 202.337 85.2363C202.796 85.0312 203.313 84.9287 203.89 84.9287C204.471 84.9287 204.988 85.0312 205.442 85.2363C205.901 85.4365 206.29 85.7197 206.607 86.0859C206.924 86.4473 207.166 86.8745 207.332 87.3677C207.498 87.856 207.581 88.3857 207.581 88.957V89.1255C207.581 89.6968 207.498 90.2266 207.332 90.7148C207.166 91.2031 206.924 91.6304 206.607 91.9966C206.29 92.3579 205.904 92.6411 205.45 92.8462C204.996 93.0464 204.48 93.1465 203.904 93.1465C203.323 93.1465 202.803 93.0464 202.344 92.8462C201.89 92.6411 201.504 92.3579 201.187 91.9966C200.87 91.6304 200.628 91.2031 200.462 90.7148C200.296 90.2266 200.213 89.6968 200.213 89.1255ZM201.978 88.957V89.1255C201.978 89.4819 202.015 89.8188 202.088 90.1362C202.161 90.4536 202.276 90.7319 202.432 90.9712C202.588 91.2104 202.789 91.3984 203.033 91.5352C203.277 91.6719 203.567 91.7402 203.904 91.7402C204.231 91.7402 204.515 91.6719 204.754 91.5352C204.998 91.3984 205.198 91.2104 205.354 90.9712C205.511 90.7319 205.625 90.4536 205.699 90.1362C205.777 89.8188 205.816 89.4819 205.816 89.1255V88.957C205.816 88.6055 205.777 88.2734 205.699 87.9609C205.625 87.6436 205.508 87.3628 205.347 87.1187C205.191 86.8745 204.991 86.6841 204.747 86.5474C204.507 86.4058 204.222 86.335 203.89 86.335C203.558 86.335 203.27 86.4058 203.025 86.5474C202.786 86.6841 202.588 86.8745 202.432 87.1187C202.276 87.3628 202.161 87.6436 202.088 87.9609C202.015 88.2734 201.978 88.6055 201.978 88.957ZM210.811 86.7671V93H209.046V85.0752H210.708L210.811 86.7671ZM210.496 88.7446L209.925 88.7373C209.93 88.1758 210.008 87.6606 210.159 87.1919C210.315 86.7231 210.53 86.3203 210.804 85.9834C211.082 85.6465 211.414 85.3877 211.8 85.207C212.186 85.0215 212.615 84.9287 213.089 84.9287C213.47 84.9287 213.814 84.9824 214.122 85.0898C214.434 85.1924 214.7 85.3608 214.92 85.5952C215.145 85.8296 215.315 86.1348 215.433 86.5107C215.55 86.8818 215.608 87.3384 215.608 87.8804V93H213.836V87.873C213.836 87.4922 213.78 87.1919 213.667 86.9722C213.56 86.7476 213.401 86.5889 213.191 86.4961C212.986 86.3984 212.73 86.3496 212.422 86.3496C212.12 86.3496 211.849 86.4131 211.609 86.54C211.37 86.667 211.167 86.8403 211.001 87.0601C210.84 87.2798 210.716 87.5337 210.628 87.8218C210.54 88.1099 210.496 88.4175 210.496 88.7446Z" fill="white"/>
<rect x="282" y="68" width="101" height="40" rx="4" fill="#286EF1"/>
<path d="M312 88C312 88.5103 311.587 88.9234 311.077 88.9234H306.923V93.0772C306.923 93.5875 306.51 94 306 94C305.49 94 305.077 93.5875 305.077 93.0772V88.9234H300.923C300.413 88.9234 300 88.5103 300 88C300 87.4897 300.413 87.0772 300.923 87.0772H305.077V82.9234C305.077 82.4131 305.49 82 306 82C306.51 82 306.923 82.4131 306.923 82.9234V87.0772H311.077C311.588 87.0769 312 87.4894 312 88Z" fill="white"/>
<path d="M327.083 88.1807H324.366L324.351 86.8403H326.724C327.125 86.8403 327.464 86.7817 327.742 86.6646C328.025 86.5425 328.24 86.3691 328.387 86.1445C328.533 85.915 328.606 85.6392 328.606 85.3169C328.606 84.9604 328.538 84.6699 328.401 84.4453C328.265 84.2207 328.055 84.0571 327.771 83.9546C327.493 83.8521 327.137 83.8008 326.702 83.8008H324.922V93H323.084V82.3359H326.702C327.288 82.3359 327.811 82.3921 328.27 82.5044C328.733 82.6167 329.126 82.7925 329.449 83.0317C329.776 83.2661 330.022 83.564 330.188 83.9253C330.359 84.2866 330.445 84.7163 330.445 85.2144C330.445 85.6538 330.34 86.0566 330.13 86.4229C329.92 86.7842 329.61 87.0796 329.2 87.3091C328.79 87.5386 328.279 87.6753 327.669 87.7192L327.083 88.1807ZM327.002 93H323.787L324.615 91.5425H327.002C327.417 91.5425 327.764 91.4741 328.042 91.3374C328.321 91.1958 328.528 91.0029 328.665 90.7588C328.807 90.5098 328.877 90.2192 328.877 89.8872C328.877 89.5405 328.816 89.2402 328.694 88.9863C328.572 88.7275 328.379 88.5298 328.116 88.3931C327.852 88.2515 327.508 88.1807 327.083 88.1807H325.018L325.032 86.8403H327.72L328.138 87.3457C328.724 87.3652 329.205 87.4946 329.581 87.7339C329.961 87.9731 330.245 88.2832 330.43 88.6641C330.616 89.0449 330.708 89.4551 330.708 89.8945C330.708 90.5732 330.56 91.1421 330.262 91.6011C329.969 92.0601 329.546 92.4092 328.995 92.6484C328.443 92.8828 327.779 93 327.002 93ZM337.154 91.1323V85.0752H338.926V93H337.256L337.154 91.1323ZM337.403 89.4844L337.996 89.4697C337.996 90.002 337.938 90.4927 337.82 90.9419C337.703 91.3862 337.522 91.7744 337.278 92.1064C337.034 92.4336 336.722 92.6899 336.341 92.8755C335.96 93.0562 335.503 93.1465 334.971 93.1465C334.585 93.1465 334.231 93.0903 333.909 92.978C333.587 92.8657 333.309 92.6924 333.074 92.458C332.845 92.2236 332.667 91.9185 332.54 91.5425C332.413 91.1665 332.349 90.7173 332.349 90.1948V85.0752H334.114V90.2095C334.114 90.4976 334.148 90.7393 334.217 90.9346C334.285 91.125 334.378 91.2788 334.495 91.396C334.612 91.5132 334.749 91.5962 334.905 91.645C335.062 91.6938 335.228 91.7183 335.403 91.7183C335.906 91.7183 336.302 91.6206 336.59 91.4253C336.883 91.2251 337.09 90.9565 337.212 90.6196C337.339 90.2827 337.403 89.9043 337.403 89.4844ZM344.368 85.0752V86.3643H339.9V85.0752H344.368ZM341.189 83.1343H342.955V90.8101C342.955 91.0542 342.989 91.2422 343.057 91.374C343.13 91.501 343.23 91.5864 343.357 91.6304C343.484 91.6743 343.633 91.6963 343.804 91.6963C343.926 91.6963 344.043 91.689 344.156 91.6743C344.268 91.6597 344.358 91.645 344.427 91.6304L344.434 92.978C344.288 93.022 344.117 93.061 343.921 93.0952C343.731 93.1294 343.511 93.1465 343.262 93.1465C342.857 93.1465 342.498 93.0757 342.186 92.9341C341.873 92.7876 341.629 92.5508 341.453 92.2236C341.277 91.8965 341.189 91.4619 341.189 90.9199V83.1343ZM349.363 85.0752V86.3643H344.896V85.0752H349.363ZM346.185 83.1343H347.95V90.8101C347.95 91.0542 347.984 91.2422 348.052 91.374C348.125 91.501 348.226 91.5864 348.353 91.6304C348.479 91.6743 348.628 91.6963 348.799 91.6963C348.921 91.6963 349.039 91.689 349.151 91.6743C349.263 91.6597 349.354 91.645 349.422 91.6304L349.429 92.978C349.283 93.022 349.112 93.061 348.917 93.0952C348.726 93.1294 348.506 93.1465 348.257 93.1465C347.852 93.1465 347.493 93.0757 347.181 92.9341C346.868 92.7876 346.624 92.5508 346.448 92.2236C346.272 91.8965 346.185 91.4619 346.185 90.9199V83.1343ZM350.213 89.1255V88.957C350.213 88.3857 350.296 87.856 350.462 87.3677C350.628 86.8745 350.867 86.4473 351.18 86.0859C351.497 85.7197 351.883 85.4365 352.337 85.2363C352.796 85.0312 353.313 84.9287 353.89 84.9287C354.471 84.9287 354.988 85.0312 355.442 85.2363C355.901 85.4365 356.29 85.7197 356.607 86.0859C356.924 86.4473 357.166 86.8745 357.332 87.3677C357.498 87.856 357.581 88.3857 357.581 88.957V89.1255C357.581 89.6968 357.498 90.2266 357.332 90.7148C357.166 91.2031 356.924 91.6304 356.607 91.9966C356.29 92.3579 355.904 92.6411 355.45 92.8462C354.996 93.0464 354.48 93.1465 353.904 93.1465C353.323 93.1465 352.803 93.0464 352.344 92.8462C351.89 92.6411 351.504 92.3579 351.187 91.9966C350.87 91.6304 350.628 91.2031 350.462 90.7148C350.296 90.2266 350.213 89.6968 350.213 89.1255ZM351.978 88.957V89.1255C351.978 89.4819 352.015 89.8188 352.088 90.1362C352.161 90.4536 352.276 90.7319 352.432 90.9712C352.588 91.2104 352.789 91.3984 353.033 91.5352C353.277 91.6719 353.567 91.7402 353.904 91.7402C354.231 91.7402 354.515 91.6719 354.754 91.5352C354.998 91.3984 355.198 91.2104 355.354 90.9712C355.511 90.7319 355.625 90.4536 355.699 90.1362C355.777 89.8188 355.816 89.4819 355.816 89.1255V88.957C355.816 88.6055 355.777 88.2734 355.699 87.9609C355.625 87.6436 355.508 87.3628 355.347 87.1187C355.191 86.8745 354.991 86.6841 354.747 86.5474C354.507 86.4058 354.222 86.335 353.89 86.335C353.558 86.335 353.27 86.4058 353.025 86.5474C352.786 86.6841 352.588 86.8745 352.432 87.1187C352.276 87.3628 352.161 87.6436 352.088 87.9609C352.015 88.2734 351.978 88.6055 351.978 88.957ZM360.811 86.7671V93H359.046V85.0752H360.708L360.811 86.7671ZM360.496 88.7446L359.925 88.7373C359.93 88.1758 360.008 87.6606 360.159 87.1919C360.315 86.7231 360.53 86.3203 360.804 85.9834C361.082 85.6465 361.414 85.3877 361.8 85.207C362.186 85.0215 362.615 84.9287 363.089 84.9287C363.47 84.9287 363.814 84.9824 364.122 85.0898C364.434 85.1924 364.7 85.3608 364.92 85.5952C365.145 85.8296 365.315 86.1348 365.433 86.5107C365.55 86.8818 365.608 87.3384 365.608 87.8804V93H363.836V87.873C363.836 87.4922 363.78 87.1919 363.667 86.9722C363.56 86.7476 363.401 86.5889 363.191 86.4961C362.986 86.3984 362.73 86.3496 362.422 86.3496C362.12 86.3496 361.849 86.4131 361.609 86.54C361.37 86.667 361.167 86.8403 361.001 87.0601C360.84 87.2798 360.716 87.5337 360.628 87.8218C360.54 88.1099 360.496 88.4175 360.496 88.7446Z" fill="white"/>
<rect x="428" y="68" width="101" height="40" rx="4" fill="#286EF1"/>
<path d="M449.083 88.1807H446.366L446.351 86.8403H448.724C449.125 86.8403 449.464 86.7817 449.742 86.6646C450.025 86.5425 450.24 86.3691 450.387 86.1445C450.533 85.915 450.606 85.6392 450.606 85.3169C450.606 84.9604 450.538 84.6699 450.401 84.4453C450.265 84.2207 450.055 84.0571 449.771 83.9546C449.493 83.8521 449.137 83.8008 448.702 83.8008H446.922V93H445.084V82.3359H448.702C449.288 82.3359 449.811 82.3921 450.27 82.5044C450.733 82.6167 451.126 82.7925 451.449 83.0317C451.776 83.2661 452.022 83.564 452.188 83.9253C452.359 84.2866 452.445 84.7163 452.445 85.2144C452.445 85.6538 452.34 86.0566 452.13 86.4229C451.92 86.7842 451.61 87.0796 451.2 87.3091C450.79 87.5386 450.279 87.6753 449.669 87.7192L449.083 88.1807ZM449.002 93H445.787L446.615 91.5425H449.002C449.417 91.5425 449.764 91.4741 450.042 91.3374C450.321 91.1958 450.528 91.0029 450.665 90.7588C450.807 90.5098 450.877 90.2192 450.877 89.8872C450.877 89.5405 450.816 89.2402 450.694 88.9863C450.572 88.7275 450.379 88.5298 450.116 88.3931C449.852 88.2515 449.508 88.1807 449.083 88.1807H447.018L447.032 86.8403H449.72L450.138 87.3457C450.724 87.3652 451.205 87.4946 451.581 87.7339C451.961 87.9731 452.245 88.2832 452.43 88.6641C452.616 89.0449 452.708 89.4551 452.708 89.8945C452.708 90.5732 452.56 91.1421 452.262 91.6011C451.969 92.0601 451.546 92.4092 450.995 92.6484C450.443 92.8828 449.779 93 449.002 93ZM459.154 91.1323V85.0752H460.926V93H459.256L459.154 91.1323ZM459.403 89.4844L459.996 89.4697C459.996 90.002 459.938 90.4927 459.82 90.9419C459.703 91.3862 459.522 91.7744 459.278 92.1064C459.034 92.4336 458.722 92.6899 458.341 92.8755C457.96 93.0562 457.503 93.1465 456.971 93.1465C456.585 93.1465 456.231 93.0903 455.909 92.978C455.587 92.8657 455.309 92.6924 455.074 92.458C454.845 92.2236 454.667 91.9185 454.54 91.5425C454.413 91.1665 454.349 90.7173 454.349 90.1948V85.0752H456.114V90.2095C456.114 90.4976 456.148 90.7393 456.217 90.9346C456.285 91.125 456.378 91.2788 456.495 91.396C456.612 91.5132 456.749 91.5962 456.905 91.645C457.062 91.6938 457.228 91.7183 457.403 91.7183C457.906 91.7183 458.302 91.6206 458.59 91.4253C458.883 91.2251 459.09 90.9565 459.212 90.6196C459.339 90.2827 459.403 89.9043 459.403 89.4844ZM466.368 85.0752V86.3643H461.9V85.0752H466.368ZM463.189 83.1343H464.955V90.8101C464.955 91.0542 464.989 91.2422 465.057 91.374C465.13 91.501 465.23 91.5864 465.357 91.6304C465.484 91.6743 465.633 91.6963 465.804 91.6963C465.926 91.6963 466.043 91.689 466.156 91.6743C466.268 91.6597 466.358 91.645 466.427 91.6304L466.434 92.978C466.288 93.022 466.117 93.061 465.921 93.0952C465.731 93.1294 465.511 93.1465 465.262 93.1465C464.857 93.1465 464.498 93.0757 464.186 92.9341C463.873 92.7876 463.629 92.5508 463.453 92.2236C463.277 91.8965 463.189 91.4619 463.189 90.9199V83.1343ZM471.363 85.0752V86.3643H466.896V85.0752H471.363ZM468.185 83.1343H469.95V90.8101C469.95 91.0542 469.984 91.2422 470.052 91.374C470.125 91.501 470.226 91.5864 470.353 91.6304C470.479 91.6743 470.628 91.6963 470.799 91.6963C470.921 91.6963 471.039 91.689 471.151 91.6743C471.263 91.6597 471.354 91.645 471.422 91.6304L471.429 92.978C471.283 93.022 471.112 93.061 470.917 93.0952C470.726 93.1294 470.506 93.1465 470.257 93.1465C469.852 93.1465 469.493 93.0757 469.181 92.9341C468.868 92.7876 468.624 92.5508 468.448 92.2236C468.272 91.8965 468.185 91.4619 468.185 90.9199V83.1343ZM472.213 89.1255V88.957C472.213 88.3857 472.296 87.856 472.462 87.3677C472.628 86.8745 472.867 86.4473 473.18 86.0859C473.497 85.7197 473.883 85.4365 474.337 85.2363C474.796 85.0312 475.313 84.9287 475.89 84.9287C476.471 84.9287 476.988 85.0312 477.442 85.2363C477.901 85.4365 478.29 85.7197 478.607 86.0859C478.924 86.4473 479.166 86.8745 479.332 87.3677C479.498 87.856 479.581 88.3857 479.581 88.957V89.1255C479.581 89.6968 479.498 90.2266 479.332 90.7148C479.166 91.2031 478.924 91.6304 478.607 91.9966C478.29 92.3579 477.904 92.6411 477.45 92.8462C476.996 93.0464 476.48 93.1465 475.904 93.1465C475.323 93.1465 474.803 93.0464 474.344 92.8462C473.89 92.6411 473.504 92.3579 473.187 91.9966C472.87 91.6304 472.628 91.2031 472.462 90.7148C472.296 90.2266 472.213 89.6968 472.213 89.1255ZM473.978 88.957V89.1255C473.978 89.4819 474.015 89.8188 474.088 90.1362C474.161 90.4536 474.276 90.7319 474.432 90.9712C474.588 91.2104 474.789 91.3984 475.033 91.5352C475.277 91.6719 475.567 91.7402 475.904 91.7402C476.231 91.7402 476.515 91.6719 476.754 91.5352C476.998 91.3984 477.198 91.2104 477.354 90.9712C477.511 90.7319 477.625 90.4536 477.699 90.1362C477.777 89.8188 477.816 89.4819 477.816 89.1255V88.957C477.816 88.6055 477.777 88.2734 477.699 87.9609C477.625 87.6436 477.508 87.3628 477.347 87.1187C477.191 86.8745 476.991 86.6841 476.747 86.5474C476.507 86.4058 476.222 86.335 475.89 86.335C475.558 86.335 475.27 86.4058 475.025 86.5474C474.786 86.6841 474.588 86.8745 474.432 87.1187C474.276 87.3628 474.161 87.6436 474.088 87.9609C474.015 88.2734 473.978 88.6055 473.978 88.957ZM482.811 86.7671V93H481.046V85.0752H482.708L482.811 86.7671ZM482.496 88.7446L481.925 88.7373C481.93 88.1758 482.008 87.6606 482.159 87.1919C482.315 86.7231 482.53 86.3203 482.804 85.9834C483.082 85.6465 483.414 85.3877 483.8 85.207C484.186 85.0215 484.615 84.9287 485.089 84.9287C485.47 84.9287 485.814 84.9824 486.122 85.0898C486.434 85.1924 486.7 85.3608 486.92 85.5952C487.145 85.8296 487.315 86.1348 487.433 86.5107C487.55 86.8818 487.608 87.3384 487.608 87.8804V93H485.836V87.873C485.836 87.4922 485.78 87.1919 485.667 86.9722C485.56 86.7476 485.401 86.5889 485.191 86.4961C484.986 86.3984 484.73 86.3496 484.422 86.3496C484.12 86.3496 483.849 86.4131 483.609 86.54C483.37 86.667 483.167 86.8403 483.001 87.0601C482.84 87.2798 482.716 87.5337 482.628 87.8218C482.54 88.1099 482.496 88.4175 482.496 88.7446Z" fill="white"/>
<path d="M511 88C511 88.5103 510.587 88.9234 510.077 88.9234H505.923V93.0772C505.923 93.5875 505.51 94 505 94C504.49 94 504.077 93.5875 504.077 93.0772V88.9234H499.923C499.413 88.9234 499 88.5103 499 88C499 87.4897 499.413 87.0772 499.923 87.0772H504.077V82.9234C504.077 82.4131 504.49 82 505 82C505.51 82 505.923 82.4131 505.923 82.9234V87.0772H510.077C510.588 87.0769 511 87.4894 511 88Z" fill="white"/>
<rect x="574" y="68" width="40" height="40" rx="4" fill="#286EF1"/>
<path d="M600 88C600 88.5103 599.587 88.9234 599.077 88.9234H594.923V93.0772C594.923 93.5875 594.51 94 594 94C593.49 94 593.077 93.5875 593.077 93.0772V88.9234H588.923C588.413 88.9234 588 88.5103 588 88C588 87.4897 588.413 87.0772 588.923 87.0772H593.077V82.9234C593.077 82.4131 593.49 82 594 82C594.51 82 594.923 82.4131 594.923 82.9234V87.0772H599.077C599.588 87.0769 600 87.4894 600 88Z" fill="white"/>
<path d="M160.182 45H157.904L157.919 43.5425H160.182C160.841 43.5425 161.393 43.3984 161.837 43.1104C162.287 42.8223 162.624 42.4097 162.848 41.8726C163.078 41.3354 163.192 40.6958 163.192 39.9536V39.375C163.192 38.7988 163.126 38.2886 162.995 37.8442C162.868 37.3999 162.677 37.0264 162.423 36.7236C162.174 36.4209 161.867 36.1914 161.5 36.0352C161.139 35.8789 160.722 35.8008 160.248 35.8008H157.86V34.3359H160.248C160.956 34.3359 161.603 34.4556 162.189 34.6948C162.775 34.9292 163.28 35.2686 163.705 35.7129C164.135 36.1572 164.464 36.6895 164.694 37.3096C164.923 37.9297 165.038 38.623 165.038 39.3896V39.9536C165.038 40.7202 164.923 41.4136 164.694 42.0337C164.464 42.6538 164.135 43.186 163.705 43.6304C163.275 44.0698 162.763 44.4092 162.167 44.6484C161.576 44.8828 160.915 45 160.182 45ZM158.922 34.3359V45H157.084V34.3359H158.922ZM170.202 45.1465C169.616 45.1465 169.086 45.0513 168.612 44.8608C168.144 44.6655 167.743 44.3945 167.411 44.0479C167.084 43.7012 166.833 43.2935 166.657 42.8247C166.481 42.356 166.393 41.8506 166.393 41.3086V41.0156C166.393 40.3955 166.483 39.834 166.664 39.3311C166.845 38.8281 167.096 38.3984 167.418 38.042C167.741 37.6807 168.122 37.4048 168.561 37.2144C169 37.0239 169.477 36.9287 169.989 36.9287C170.556 36.9287 171.051 37.0239 171.476 37.2144C171.901 37.4048 172.252 37.6733 172.531 38.02C172.814 38.3618 173.024 38.7695 173.161 39.2432C173.302 39.7168 173.373 40.2393 173.373 40.8105V41.5649H167.25V40.2979H171.63V40.1587C171.62 39.8413 171.557 39.5435 171.439 39.2651C171.327 38.9868 171.154 38.7622 170.919 38.5913C170.685 38.4204 170.373 38.335 169.982 38.335C169.689 38.335 169.428 38.3984 169.198 38.5254C168.974 38.6475 168.786 38.8257 168.634 39.0601C168.483 39.2944 168.366 39.5776 168.283 39.9097C168.205 40.2368 168.166 40.6055 168.166 41.0156V41.3086C168.166 41.6553 168.212 41.9775 168.305 42.2754C168.402 42.5684 168.544 42.8247 168.729 43.0444C168.915 43.2642 169.14 43.4375 169.403 43.5645C169.667 43.6865 169.967 43.7476 170.304 43.7476C170.729 43.7476 171.107 43.6621 171.439 43.4912C171.771 43.3203 172.06 43.0786 172.304 42.7661L173.234 43.667C173.063 43.916 172.841 44.1553 172.567 44.3848C172.294 44.6094 171.959 44.7925 171.564 44.9341C171.173 45.0757 170.719 45.1465 170.202 45.1465ZM177.138 45H175.373V36.3135C175.373 35.7227 175.482 35.2271 175.702 34.8267C175.927 34.4214 176.247 34.1162 176.662 33.9111C177.077 33.7012 177.567 33.5962 178.134 33.5962C178.31 33.5962 178.483 33.6084 178.654 33.6328C178.825 33.6523 178.991 33.6841 179.152 33.728L179.108 35.0903C179.01 35.0659 178.903 35.0488 178.786 35.0391C178.673 35.0293 178.551 35.0244 178.419 35.0244C178.151 35.0244 177.919 35.0757 177.724 35.1782C177.533 35.2759 177.387 35.4199 177.284 35.6104C177.187 35.8008 177.138 36.0352 177.138 36.3135V45ZM178.771 37.0752V38.3643H174.157V37.0752H178.771ZM184.521 43.4106V39.6313C184.521 39.3481 184.469 39.104 184.367 38.8989C184.264 38.6938 184.108 38.5352 183.898 38.4229C183.693 38.3105 183.434 38.2544 183.122 38.2544C182.833 38.2544 182.584 38.3032 182.375 38.4009C182.165 38.4985 182.001 38.6304 181.884 38.7964C181.767 38.9624 181.708 39.1504 181.708 39.3604H179.95C179.95 39.0479 180.026 38.7451 180.177 38.4521C180.329 38.1592 180.548 37.8979 180.836 37.6685C181.125 37.439 181.469 37.2583 181.869 37.1265C182.27 36.9946 182.719 36.9287 183.217 36.9287C183.812 36.9287 184.34 37.0288 184.799 37.229C185.263 37.4292 185.626 37.7319 185.89 38.1372C186.159 38.5376 186.293 39.0405 186.293 39.646V43.1689C186.293 43.5303 186.317 43.855 186.366 44.1431C186.42 44.4263 186.496 44.6729 186.593 44.8828V45H184.784C184.701 44.8096 184.635 44.5679 184.586 44.2749C184.542 43.9771 184.521 43.689 184.521 43.4106ZM184.777 40.1807L184.792 41.272H183.524C183.197 41.272 182.909 41.3037 182.66 41.3672C182.411 41.4258 182.204 41.5137 182.038 41.6309C181.872 41.748 181.747 41.8896 181.664 42.0557C181.581 42.2217 181.54 42.4097 181.54 42.6196C181.54 42.8296 181.588 43.0225 181.686 43.1982C181.784 43.3691 181.925 43.5034 182.111 43.6011C182.301 43.6987 182.531 43.7476 182.799 43.7476C183.161 43.7476 183.476 43.6743 183.744 43.5278C184.018 43.3765 184.232 43.1934 184.389 42.9785C184.545 42.7588 184.628 42.5513 184.638 42.356L185.209 43.1396C185.15 43.3398 185.05 43.5547 184.909 43.7842C184.767 44.0137 184.582 44.2334 184.352 44.4434C184.127 44.6484 183.856 44.8169 183.539 44.9487C183.227 45.0806 182.865 45.1465 182.455 45.1465C181.938 45.1465 181.476 45.0439 181.071 44.8389C180.666 44.6289 180.348 44.3481 180.119 43.9966C179.889 43.6401 179.774 43.2373 179.774 42.7881C179.774 42.3682 179.853 41.9971 180.009 41.6748C180.17 41.3477 180.404 41.0742 180.712 40.8545C181.024 40.6348 181.405 40.4688 181.854 40.3564C182.304 40.2393 182.816 40.1807 183.393 40.1807H184.777ZM192.907 43.1323V37.0752H194.679V45H193.009L192.907 43.1323ZM193.156 41.4844L193.749 41.4697C193.749 42.002 193.69 42.4927 193.573 42.9419C193.456 43.3862 193.275 43.7744 193.031 44.1064C192.787 44.4336 192.475 44.6899 192.094 44.8755C191.713 45.0562 191.256 45.1465 190.724 45.1465C190.338 45.1465 189.984 45.0903 189.662 44.978C189.34 44.8657 189.062 44.6924 188.827 44.458C188.598 44.2236 188.419 43.9185 188.292 43.5425C188.166 43.1665 188.102 42.7173 188.102 42.1948V37.0752H189.867V42.2095C189.867 42.4976 189.901 42.7393 189.97 42.9346C190.038 43.125 190.131 43.2788 190.248 43.396C190.365 43.5132 190.502 43.5962 190.658 43.645C190.814 43.6938 190.98 43.7183 191.156 43.7183C191.659 43.7183 192.055 43.6206 192.343 43.4253C192.636 43.2251 192.843 42.9565 192.965 42.6196C193.092 42.2827 193.156 41.9043 193.156 41.4844ZM198.378 33.75V45H196.605V33.75H198.378ZM203.944 37.0752V38.3643H199.477V37.0752H203.944ZM200.766 35.1343H202.531V42.8101C202.531 43.0542 202.565 43.2422 202.633 43.374C202.707 43.501 202.807 43.5864 202.934 43.6304C203.061 43.6743 203.209 43.6963 203.38 43.6963C203.502 43.6963 203.62 43.689 203.732 43.6743C203.844 43.6597 203.935 43.645 204.003 43.6304L204.01 44.978C203.864 45.022 203.693 45.061 203.498 45.0952C203.307 45.1294 203.087 45.1465 202.838 45.1465C202.433 45.1465 202.074 45.0757 201.762 44.9341C201.449 44.7876 201.205 44.5508 201.029 44.2236C200.854 43.8965 200.766 43.4619 200.766 42.9199V35.1343Z" fill="#737373"/>
<path d="M285.047 34.3359V45H283.208V34.3359H285.047ZM290.394 43.7402C290.682 43.7402 290.94 43.6841 291.17 43.5718C291.404 43.4546 291.592 43.2935 291.734 43.0884C291.88 42.8833 291.961 42.6465 291.976 42.3779H293.638C293.628 42.8906 293.477 43.3569 293.184 43.7769C292.891 44.1968 292.503 44.5312 292.02 44.7803C291.536 45.0244 291.001 45.1465 290.416 45.1465C289.81 45.1465 289.283 45.0439 288.833 44.8389C288.384 44.6289 288.011 44.3408 287.713 43.9746C287.415 43.6084 287.19 43.186 287.039 42.7075C286.893 42.229 286.819 41.7163 286.819 41.1694V40.9131C286.819 40.3662 286.893 39.8535 287.039 39.375C287.19 38.8916 287.415 38.4668 287.713 38.1006C288.011 37.7344 288.384 37.4487 288.833 37.2437C289.283 37.0337 289.808 36.9287 290.408 36.9287C291.043 36.9287 291.6 37.0557 292.078 37.3096C292.557 37.5586 292.933 37.9077 293.206 38.3569C293.484 38.8013 293.628 39.3188 293.638 39.9097H291.976C291.961 39.6167 291.888 39.353 291.756 39.1187C291.629 38.8794 291.448 38.689 291.214 38.5474C290.984 38.4058 290.708 38.335 290.386 38.335C290.03 38.335 289.734 38.4082 289.5 38.5547C289.266 38.6963 289.083 38.8916 288.951 39.1406C288.819 39.3848 288.724 39.6606 288.665 39.9683C288.611 40.271 288.584 40.5859 288.584 40.9131V41.1694C288.584 41.4966 288.611 41.814 288.665 42.1216C288.719 42.4292 288.812 42.7051 288.943 42.9492C289.08 43.1885 289.266 43.3813 289.5 43.5278C289.734 43.6694 290.032 43.7402 290.394 43.7402ZM294.656 41.1255V40.957C294.656 40.3857 294.739 39.856 294.905 39.3677C295.071 38.8745 295.311 38.4473 295.623 38.0859C295.94 37.7197 296.326 37.4365 296.78 37.2363C297.239 37.0312 297.757 36.9287 298.333 36.9287C298.914 36.9287 299.432 37.0312 299.886 37.2363C300.345 37.4365 300.733 37.7197 301.05 38.0859C301.368 38.4473 301.609 38.8745 301.775 39.3677C301.941 39.856 302.024 40.3857 302.024 40.957V41.1255C302.024 41.6968 301.941 42.2266 301.775 42.7148C301.609 43.2031 301.368 43.6304 301.05 43.9966C300.733 44.3579 300.347 44.6411 299.893 44.8462C299.439 45.0464 298.924 45.1465 298.348 45.1465C297.767 45.1465 297.247 45.0464 296.788 44.8462C296.333 44.6411 295.948 44.3579 295.63 43.9966C295.313 43.6304 295.071 43.2031 294.905 42.7148C294.739 42.2266 294.656 41.6968 294.656 41.1255ZM296.421 40.957V41.1255C296.421 41.4819 296.458 41.8188 296.531 42.1362C296.604 42.4536 296.719 42.7319 296.875 42.9712C297.032 43.2104 297.232 43.3984 297.476 43.5352C297.72 43.6719 298.011 43.7402 298.348 43.7402C298.675 43.7402 298.958 43.6719 299.197 43.5352C299.441 43.3984 299.642 43.2104 299.798 42.9712C299.954 42.7319 300.069 42.4536 300.142 42.1362C300.22 41.8188 300.259 41.4819 300.259 41.1255V40.957C300.259 40.6055 300.22 40.2734 300.142 39.9609C300.069 39.6436 299.952 39.3628 299.791 39.1187C299.634 38.8745 299.434 38.6841 299.19 38.5474C298.951 38.4058 298.665 38.335 298.333 38.335C298.001 38.335 297.713 38.4058 297.469 38.5474C297.229 38.6841 297.032 38.8745 296.875 39.1187C296.719 39.3628 296.604 39.6436 296.531 39.9609C296.458 40.2734 296.421 40.6055 296.421 40.957ZM305.254 38.7671V45H303.489V37.0752H305.152L305.254 38.7671ZM304.939 40.7446L304.368 40.7373C304.373 40.1758 304.451 39.6606 304.603 39.1919C304.759 38.7231 304.974 38.3203 305.247 37.9834C305.525 37.6465 305.857 37.3877 306.243 37.207C306.629 37.0215 307.059 36.9287 307.532 36.9287C307.913 36.9287 308.257 36.9824 308.565 37.0898C308.877 37.1924 309.144 37.3608 309.363 37.5952C309.588 37.8296 309.759 38.1348 309.876 38.5107C309.993 38.8818 310.052 39.3384 310.052 39.8804V45H308.279V39.873C308.279 39.4922 308.223 39.1919 308.111 38.9722C308.003 38.7476 307.845 38.5889 307.635 38.4961C307.43 38.3984 307.173 38.3496 306.866 38.3496C306.563 38.3496 306.292 38.4131 306.053 38.54C305.813 38.667 305.611 38.8403 305.445 39.0601C305.284 39.2798 305.159 39.5337 305.071 39.8218C304.983 40.1099 304.939 40.4175 304.939 40.7446ZM322.444 43.5425V45H317.09V43.5425H322.444ZM317.603 34.3359V45H315.765V34.3359H317.603ZM327.183 45.1465C326.597 45.1465 326.067 45.0513 325.594 44.8608C325.125 44.6655 324.725 44.3945 324.393 44.0479C324.065 43.7012 323.814 43.2935 323.638 42.8247C323.462 42.356 323.375 41.8506 323.375 41.3086V41.0156C323.375 40.3955 323.465 39.834 323.646 39.3311C323.826 38.8281 324.078 38.3984 324.4 38.042C324.722 37.6807 325.103 37.4048 325.542 37.2144C325.982 37.0239 326.458 36.9287 326.971 36.9287C327.537 36.9287 328.033 37.0239 328.458 37.2144C328.882 37.4048 329.234 37.6733 329.512 38.02C329.795 38.3618 330.005 38.7695 330.142 39.2432C330.284 39.7168 330.354 40.2393 330.354 40.8105V41.5649H324.231V40.2979H328.611V40.1587C328.602 39.8413 328.538 39.5435 328.421 39.2651C328.309 38.9868 328.135 38.7622 327.901 38.5913C327.667 38.4204 327.354 38.335 326.963 38.335C326.67 38.335 326.409 38.3984 326.18 38.5254C325.955 38.6475 325.767 38.8257 325.616 39.0601C325.464 39.2944 325.347 39.5776 325.264 39.9097C325.186 40.2368 325.147 40.6055 325.147 41.0156V41.3086C325.147 41.6553 325.193 41.9775 325.286 42.2754C325.384 42.5684 325.525 42.8247 325.711 43.0444C325.896 43.2642 326.121 43.4375 326.385 43.5645C326.648 43.6865 326.949 43.7476 327.286 43.7476C327.71 43.7476 328.089 43.6621 328.421 43.4912C328.753 43.3203 329.041 43.0786 329.285 42.7661L330.215 43.667C330.044 43.916 329.822 44.1553 329.549 44.3848C329.275 44.6094 328.941 44.7925 328.545 44.9341C328.155 45.0757 327.701 45.1465 327.183 45.1465ZM334.119 45H332.354V36.3135C332.354 35.7227 332.464 35.2271 332.684 34.8267C332.908 34.4214 333.228 34.1162 333.643 33.9111C334.058 33.7012 334.549 33.5962 335.115 33.5962C335.291 33.5962 335.464 33.6084 335.635 33.6328C335.806 33.6523 335.972 33.6841 336.133 33.728L336.089 35.0903C335.992 35.0659 335.884 35.0488 335.767 35.0391C335.655 35.0293 335.533 35.0244 335.401 35.0244C335.132 35.0244 334.9 35.0757 334.705 35.1782C334.515 35.2759 334.368 35.4199 334.266 35.6104C334.168 35.8008 334.119 36.0352 334.119 36.3135V45ZM335.752 37.0752V38.3643H331.138V37.0752H335.752ZM340.667 37.0752V38.3643H336.199V37.0752H340.667ZM337.488 35.1343H339.253V42.8101C339.253 43.0542 339.288 43.2422 339.356 43.374C339.429 43.501 339.529 43.5864 339.656 43.6304C339.783 43.6743 339.932 43.6963 340.103 43.6963C340.225 43.6963 340.342 43.689 340.455 43.6743C340.567 43.6597 340.657 43.645 340.726 43.6304L340.733 44.978C340.586 45.022 340.416 45.061 340.22 45.0952C340.03 45.1294 339.81 45.1465 339.561 45.1465C339.156 45.1465 338.797 45.0757 338.484 44.9341C338.172 44.7876 337.928 44.5508 337.752 44.2236C337.576 43.8965 337.488 43.4619 337.488 42.9199V35.1343Z" fill="#737373"/>
<path d="M431.047 34.3359V45H429.208V34.3359H431.047ZM436.394 43.7402C436.682 43.7402 436.94 43.6841 437.17 43.5718C437.404 43.4546 437.592 43.2935 437.734 43.0884C437.88 42.8833 437.961 42.6465 437.976 42.3779H439.638C439.628 42.8906 439.477 43.3569 439.184 43.7769C438.891 44.1968 438.503 44.5312 438.02 44.7803C437.536 45.0244 437.001 45.1465 436.416 45.1465C435.81 45.1465 435.283 45.0439 434.833 44.8389C434.384 44.6289 434.011 44.3408 433.713 43.9746C433.415 43.6084 433.19 43.186 433.039 42.7075C432.893 42.229 432.819 41.7163 432.819 41.1694V40.9131C432.819 40.3662 432.893 39.8535 433.039 39.375C433.19 38.8916 433.415 38.4668 433.713 38.1006C434.011 37.7344 434.384 37.4487 434.833 37.2437C435.283 37.0337 435.808 36.9287 436.408 36.9287C437.043 36.9287 437.6 37.0557 438.078 37.3096C438.557 37.5586 438.933 37.9077 439.206 38.3569C439.484 38.8013 439.628 39.3188 439.638 39.9097H437.976C437.961 39.6167 437.888 39.353 437.756 39.1187C437.629 38.8794 437.448 38.689 437.214 38.5474C436.984 38.4058 436.708 38.335 436.386 38.335C436.03 38.335 435.734 38.4082 435.5 38.5547C435.266 38.6963 435.083 38.8916 434.951 39.1406C434.819 39.3848 434.724 39.6606 434.665 39.9683C434.611 40.271 434.584 40.5859 434.584 40.9131V41.1694C434.584 41.4966 434.611 41.814 434.665 42.1216C434.719 42.4292 434.812 42.7051 434.943 42.9492C435.08 43.1885 435.266 43.3813 435.5 43.5278C435.734 43.6694 436.032 43.7402 436.394 43.7402ZM440.656 41.1255V40.957C440.656 40.3857 440.739 39.856 440.905 39.3677C441.071 38.8745 441.311 38.4473 441.623 38.0859C441.94 37.7197 442.326 37.4365 442.78 37.2363C443.239 37.0312 443.757 36.9287 444.333 36.9287C444.914 36.9287 445.432 37.0312 445.886 37.2363C446.345 37.4365 446.733 37.7197 447.05 38.0859C447.368 38.4473 447.609 38.8745 447.775 39.3677C447.941 39.856 448.024 40.3857 448.024 40.957V41.1255C448.024 41.6968 447.941 42.2266 447.775 42.7148C447.609 43.2031 447.368 43.6304 447.05 43.9966C446.733 44.3579 446.347 44.6411 445.893 44.8462C445.439 45.0464 444.924 45.1465 444.348 45.1465C443.767 45.1465 443.247 45.0464 442.788 44.8462C442.333 44.6411 441.948 44.3579 441.63 43.9966C441.313 43.6304 441.071 43.2031 440.905 42.7148C440.739 42.2266 440.656 41.6968 440.656 41.1255ZM442.421 40.957V41.1255C442.421 41.4819 442.458 41.8188 442.531 42.1362C442.604 42.4536 442.719 42.7319 442.875 42.9712C443.032 43.2104 443.232 43.3984 443.476 43.5352C443.72 43.6719 444.011 43.7402 444.348 43.7402C444.675 43.7402 444.958 43.6719 445.197 43.5352C445.441 43.3984 445.642 43.2104 445.798 42.9712C445.954 42.7319 446.069 42.4536 446.142 42.1362C446.22 41.8188 446.259 41.4819 446.259 41.1255V40.957C446.259 40.6055 446.22 40.2734 446.142 39.9609C446.069 39.6436 445.952 39.3628 445.791 39.1187C445.634 38.8745 445.434 38.6841 445.19 38.5474C444.951 38.4058 444.665 38.335 444.333 38.335C444.001 38.335 443.713 38.4058 443.469 38.5474C443.229 38.6841 443.032 38.8745 442.875 39.1187C442.719 39.3628 442.604 39.6436 442.531 39.9609C442.458 40.2734 442.421 40.6055 442.421 40.957ZM451.254 38.7671V45H449.489V37.0752H451.152L451.254 38.7671ZM450.939 40.7446L450.368 40.7373C450.373 40.1758 450.451 39.6606 450.603 39.1919C450.759 38.7231 450.974 38.3203 451.247 37.9834C451.525 37.6465 451.857 37.3877 452.243 37.207C452.629 37.0215 453.059 36.9287 453.532 36.9287C453.913 36.9287 454.257 36.9824 454.565 37.0898C454.877 37.1924 455.144 37.3608 455.363 37.5952C455.588 37.8296 455.759 38.1348 455.876 38.5107C455.993 38.8818 456.052 39.3384 456.052 39.8804V45H454.279V39.873C454.279 39.4922 454.223 39.1919 454.111 38.9722C454.003 38.7476 453.845 38.5889 453.635 38.4961C453.43 38.3984 453.173 38.3496 452.866 38.3496C452.563 38.3496 452.292 38.4131 452.053 38.54C451.813 38.667 451.611 38.8403 451.445 39.0601C451.284 39.2798 451.159 39.5337 451.071 39.8218C450.983 40.1099 450.939 40.4175 450.939 40.7446ZM461.765 34.3359H465.537C466.347 34.3359 467.038 34.458 467.609 34.7021C468.181 34.9463 468.618 35.3076 468.92 35.7861C469.228 36.2598 469.382 36.8457 469.382 37.5439C469.382 38.0762 469.284 38.5449 469.089 38.9502C468.894 39.3555 468.618 39.6973 468.261 39.9756C467.905 40.249 467.48 40.4614 466.987 40.6128L466.43 40.8838H463.039L463.024 39.4263H465.566C466.005 39.4263 466.372 39.3481 466.665 39.1919C466.958 39.0356 467.177 38.8232 467.324 38.5547C467.475 38.2812 467.551 37.9736 467.551 37.6318C467.551 37.2607 467.478 36.9385 467.331 36.665C467.189 36.3867 466.97 36.1743 466.672 36.0278C466.374 35.8765 465.996 35.8008 465.537 35.8008H463.603V45H461.765V34.3359ZM467.851 45L465.346 40.21L467.272 40.2026L469.814 44.9048V45H467.851ZM472.927 37.0752V45H471.154V37.0752H472.927ZM471.037 34.9951C471.037 34.7266 471.125 34.5044 471.301 34.3286C471.481 34.1479 471.73 34.0576 472.048 34.0576C472.36 34.0576 472.607 34.1479 472.788 34.3286C472.968 34.5044 473.059 34.7266 473.059 34.9951C473.059 35.2588 472.968 35.4785 472.788 35.6543C472.607 35.8301 472.36 35.918 472.048 35.918C471.73 35.918 471.481 35.8301 471.301 35.6543C471.125 35.4785 471.037 35.2588 471.037 34.9951ZM479.936 37.0752H481.54V44.7803C481.54 45.4932 481.389 46.0986 481.086 46.5967C480.783 47.0947 480.361 47.4731 479.819 47.7319C479.277 47.9956 478.649 48.1274 477.937 48.1274C477.634 48.1274 477.297 48.0835 476.926 47.9956C476.56 47.9077 476.203 47.7661 475.856 47.5708C475.515 47.3804 475.229 47.1289 475 46.8164L475.827 45.7764C476.11 46.1133 476.423 46.3599 476.765 46.5161C477.106 46.6724 477.465 46.7505 477.841 46.7505C478.247 46.7505 478.591 46.6748 478.874 46.5234C479.162 46.377 479.384 46.1597 479.541 45.8716C479.697 45.5835 479.775 45.2319 479.775 44.8169V38.8696L479.936 37.0752ZM474.553 41.1255V40.9717C474.553 40.3711 474.626 39.8242 474.772 39.3311C474.919 38.833 475.129 38.4058 475.402 38.0493C475.676 37.688 476.008 37.4121 476.398 37.2217C476.789 37.0264 477.231 36.9287 477.724 36.9287C478.237 36.9287 478.674 37.0215 479.035 37.207C479.401 37.3926 479.707 37.6587 479.951 38.0054C480.195 38.3472 480.385 38.7573 480.522 39.2358C480.664 39.7095 480.769 40.2368 480.837 40.8179V41.3086C480.773 41.875 480.666 42.3926 480.515 42.8613C480.363 43.3301 480.163 43.7354 479.914 44.0771C479.665 44.4189 479.357 44.6826 478.991 44.8682C478.63 45.0537 478.203 45.1465 477.709 45.1465C477.226 45.1465 476.789 45.0464 476.398 44.8462C476.013 44.646 475.681 44.3652 475.402 44.0039C475.129 43.6426 474.919 43.2178 474.772 42.7295C474.626 42.2363 474.553 41.7017 474.553 41.1255ZM476.318 40.9717V41.1255C476.318 41.4868 476.352 41.8237 476.42 42.1362C476.494 42.4487 476.604 42.7246 476.75 42.9639C476.901 43.1982 477.092 43.3838 477.321 43.5205C477.556 43.6523 477.832 43.7183 478.149 43.7183C478.564 43.7183 478.903 43.6304 479.167 43.4546C479.436 43.2788 479.641 43.042 479.782 42.7441C479.929 42.4414 480.031 42.1045 480.09 41.7334V40.4077C480.061 40.1196 480 39.8511 479.907 39.6021C479.819 39.353 479.699 39.1357 479.548 38.9502C479.396 38.7598 479.206 38.6133 478.977 38.5107C478.747 38.4033 478.476 38.3496 478.164 38.3496C477.846 38.3496 477.57 38.418 477.336 38.5547C477.102 38.6914 476.909 38.8794 476.757 39.1187C476.611 39.3579 476.501 39.6362 476.428 39.9536C476.354 40.271 476.318 40.6104 476.318 40.9717ZM485.114 33.75V45H483.356V33.75H485.114ZM484.807 40.7446L484.235 40.7373C484.24 40.1904 484.316 39.6851 484.462 39.2212C484.614 38.7573 484.824 38.3545 485.092 38.0127C485.366 37.666 485.693 37.3999 486.074 37.2144C486.455 37.0239 486.877 36.9287 487.341 36.9287C487.731 36.9287 488.083 36.9824 488.396 37.0898C488.713 37.1973 488.986 37.3706 489.216 37.6099C489.445 37.8442 489.619 38.1519 489.736 38.5327C489.858 38.9087 489.919 39.3677 489.919 39.9097V45H488.146V39.895C488.146 39.5142 488.09 39.2114 487.978 38.9868C487.871 38.7622 487.712 38.6011 487.502 38.5034C487.292 38.4009 487.036 38.3496 486.733 38.3496C486.416 38.3496 486.135 38.4131 485.891 38.54C485.651 38.667 485.451 38.8403 485.29 39.0601C485.129 39.2798 485.007 39.5337 484.924 39.8218C484.846 40.1099 484.807 40.4175 484.807 40.7446ZM495.339 37.0752V38.3643H490.871V37.0752H495.339ZM492.16 35.1343H493.925V42.8101C493.925 43.0542 493.959 43.2422 494.028 43.374C494.101 43.501 494.201 43.5864 494.328 43.6304C494.455 43.6743 494.604 43.6963 494.775 43.6963C494.897 43.6963 495.014 43.689 495.126 43.6743C495.239 43.6597 495.329 43.645 495.397 43.6304L495.405 44.978C495.258 45.022 495.087 45.061 494.892 45.0952C494.702 45.1294 494.482 45.1465 494.233 45.1465C493.828 45.1465 493.469 45.0757 493.156 44.9341C492.844 44.7876 492.6 44.5508 492.424 44.2236C492.248 43.8965 492.16 43.4619 492.16 42.9199V35.1343Z" fill="#737373"/>
<path d="M577.047 34.3359V45H575.208V34.3359H577.047ZM582.394 43.7402C582.682 43.7402 582.94 43.6841 583.17 43.5718C583.404 43.4546 583.592 43.2935 583.734 43.0884C583.88 42.8833 583.961 42.6465 583.976 42.3779H585.638C585.628 42.8906 585.477 43.3569 585.184 43.7769C584.891 44.1968 584.503 44.5312 584.02 44.7803C583.536 45.0244 583.001 45.1465 582.416 45.1465C581.81 45.1465 581.283 45.0439 580.833 44.8389C580.384 44.6289 580.011 44.3408 579.713 43.9746C579.415 43.6084 579.19 43.186 579.039 42.7075C578.893 42.229 578.819 41.7163 578.819 41.1694V40.9131C578.819 40.3662 578.893 39.8535 579.039 39.375C579.19 38.8916 579.415 38.4668 579.713 38.1006C580.011 37.7344 580.384 37.4487 580.833 37.2437C581.283 37.0337 581.808 36.9287 582.408 36.9287C583.043 36.9287 583.6 37.0557 584.078 37.3096C584.557 37.5586 584.933 37.9077 585.206 38.3569C585.484 38.8013 585.628 39.3188 585.638 39.9097H583.976C583.961 39.6167 583.888 39.353 583.756 39.1187C583.629 38.8794 583.448 38.689 583.214 38.5474C582.984 38.4058 582.708 38.335 582.386 38.335C582.03 38.335 581.734 38.4082 581.5 38.5547C581.266 38.6963 581.083 38.8916 580.951 39.1406C580.819 39.3848 580.724 39.6606 580.665 39.9683C580.611 40.271 580.584 40.5859 580.584 40.9131V41.1694C580.584 41.4966 580.611 41.814 580.665 42.1216C580.719 42.4292 580.812 42.7051 580.943 42.9492C581.08 43.1885 581.266 43.3813 581.5 43.5278C581.734 43.6694 582.032 43.7402 582.394 43.7402ZM586.656 41.1255V40.957C586.656 40.3857 586.739 39.856 586.905 39.3677C587.071 38.8745 587.311 38.4473 587.623 38.0859C587.94 37.7197 588.326 37.4365 588.78 37.2363C589.239 37.0312 589.757 36.9287 590.333 36.9287C590.914 36.9287 591.432 37.0312 591.886 37.2363C592.345 37.4365 592.733 37.7197 593.05 38.0859C593.368 38.4473 593.609 38.8745 593.775 39.3677C593.941 39.856 594.024 40.3857 594.024 40.957V41.1255C594.024 41.6968 593.941 42.2266 593.775 42.7148C593.609 43.2031 593.368 43.6304 593.05 43.9966C592.733 44.3579 592.347 44.6411 591.893 44.8462C591.439 45.0464 590.924 45.1465 590.348 45.1465C589.767 45.1465 589.247 45.0464 588.788 44.8462C588.333 44.6411 587.948 44.3579 587.63 43.9966C587.313 43.6304 587.071 43.2031 586.905 42.7148C586.739 42.2266 586.656 41.6968 586.656 41.1255ZM588.421 40.957V41.1255C588.421 41.4819 588.458 41.8188 588.531 42.1362C588.604 42.4536 588.719 42.7319 588.875 42.9712C589.032 43.2104 589.232 43.3984 589.476 43.5352C589.72 43.6719 590.011 43.7402 590.348 43.7402C590.675 43.7402 590.958 43.6719 591.197 43.5352C591.441 43.3984 591.642 43.2104 591.798 42.9712C591.954 42.7319 592.069 42.4536 592.142 42.1362C592.22 41.8188 592.259 41.4819 592.259 41.1255V40.957C592.259 40.6055 592.22 40.2734 592.142 39.9609C592.069 39.6436 591.952 39.3628 591.791 39.1187C591.634 38.8745 591.434 38.6841 591.19 38.5474C590.951 38.4058 590.665 38.335 590.333 38.335C590.001 38.335 589.713 38.4058 589.469 38.5474C589.229 38.6841 589.032 38.8745 588.875 39.1187C588.719 39.3628 588.604 39.6436 588.531 39.9609C588.458 40.2734 588.421 40.6055 588.421 40.957ZM597.254 38.7671V45H595.489V37.0752H597.152L597.254 38.7671ZM596.939 40.7446L596.368 40.7373C596.373 40.1758 596.451 39.6606 596.603 39.1919C596.759 38.7231 596.974 38.3203 597.247 37.9834C597.525 37.6465 597.857 37.3877 598.243 37.207C598.629 37.0215 599.059 36.9287 599.532 36.9287C599.913 36.9287 600.257 36.9824 600.565 37.0898C600.877 37.1924 601.144 37.3608 601.363 37.5952C601.588 37.8296 601.759 38.1348 601.876 38.5107C601.993 38.8818 602.052 39.3384 602.052 39.8804V45H600.279V39.873C600.279 39.4922 600.223 39.1919 600.111 38.9722C600.003 38.7476 599.845 38.5889 599.635 38.4961C599.43 38.3984 599.173 38.3496 598.866 38.3496C598.563 38.3496 598.292 38.4131 598.053 38.54C597.813 38.667 597.611 38.8403 597.445 39.0601C597.284 39.2798 597.159 39.5337 597.071 39.8218C596.983 40.1099 596.939 40.4175 596.939 40.7446ZM607.596 33.75H609.361V43.3081L609.193 45H607.596V33.75ZM614.532 40.9644V41.1182C614.532 41.7041 614.466 42.2437 614.334 42.7368C614.208 43.2251 614.012 43.6499 613.749 44.0112C613.49 44.3726 613.167 44.6533 612.782 44.8535C612.401 45.0488 611.959 45.1465 611.456 45.1465C610.963 45.1465 610.533 45.0537 610.167 44.8682C609.801 44.6826 609.493 44.4189 609.244 44.0771C609 43.7354 608.802 43.3276 608.651 42.854C608.5 42.3804 608.392 41.8579 608.329 41.2866V40.7959C608.392 40.2197 608.5 39.6973 608.651 39.2285C608.802 38.7549 609 38.3472 609.244 38.0054C609.493 37.6587 609.798 37.3926 610.16 37.207C610.526 37.0215 610.953 36.9287 611.441 36.9287C611.949 36.9287 612.396 37.0264 612.782 37.2217C613.172 37.417 613.497 37.6953 613.756 38.0566C614.015 38.4131 614.208 38.8379 614.334 39.3311C614.466 39.8242 614.532 40.3687 614.532 40.9644ZM612.767 41.1182V40.9644C612.767 40.6079 612.738 40.2734 612.679 39.9609C612.621 39.6436 612.523 39.3652 612.386 39.126C612.254 38.8867 612.074 38.6987 611.844 38.562C611.62 38.4204 611.339 38.3496 611.002 38.3496C610.689 38.3496 610.421 38.4033 610.196 38.5107C609.972 38.6182 609.784 38.7646 609.632 38.9502C609.481 39.1357 609.361 39.3506 609.273 39.5947C609.19 39.8389 609.134 40.1025 609.105 40.3857V41.7114C609.149 42.0776 609.242 42.4146 609.383 42.7222C609.53 43.0249 609.735 43.269 609.999 43.4546C610.262 43.6353 610.602 43.7256 611.017 43.7256C611.344 43.7256 611.62 43.6597 611.844 43.5278C612.069 43.396 612.247 43.2129 612.379 42.9785C612.516 42.7393 612.613 42.4609 612.672 42.1436C612.735 41.8262 612.767 41.4844 612.767 41.1182ZM620.794 43.1323V37.0752H622.567V45H620.897L620.794 43.1323ZM621.043 41.4844L621.637 41.4697C621.637 42.002 621.578 42.4927 621.461 42.9419C621.344 43.3862 621.163 43.7744 620.919 44.1064C620.675 44.4336 620.362 44.6899 619.981 44.8755C619.601 45.0562 619.144 45.1465 618.612 45.1465C618.226 45.1465 617.872 45.0903 617.55 44.978C617.228 44.8657 616.949 44.6924 616.715 44.458C616.485 44.2236 616.307 43.9185 616.18 43.5425C616.053 43.1665 615.99 42.7173 615.99 42.1948V37.0752H617.755V42.2095C617.755 42.4976 617.789 42.7393 617.857 42.9346C617.926 43.125 618.019 43.2788 618.136 43.396C618.253 43.5132 618.39 43.5962 618.546 43.645C618.702 43.6938 618.868 43.7183 619.044 43.7183C619.547 43.7183 619.942 43.6206 620.23 43.4253C620.523 43.2251 620.731 42.9565 620.853 42.6196C620.98 42.2827 621.043 41.9043 621.043 41.4844ZM628.009 37.0752V38.3643H623.541V37.0752H628.009ZM624.83 35.1343H626.595V42.8101C626.595 43.0542 626.629 43.2422 626.698 43.374C626.771 43.501 626.871 43.5864 626.998 43.6304C627.125 43.6743 627.274 43.6963 627.445 43.6963C627.567 43.6963 627.684 43.689 627.796 43.6743C627.909 43.6597 627.999 43.645 628.067 43.6304L628.075 44.978C627.928 45.022 627.757 45.061 627.562 45.0952C627.372 45.1294 627.152 45.1465 626.903 45.1465C626.498 45.1465 626.139 45.0757 625.826 44.9341C625.514 44.7876 625.27 44.5508 625.094 44.2236C624.918 43.8965 624.83 43.4619 624.83 42.9199V35.1343ZM633.004 37.0752V38.3643H628.536V37.0752H633.004ZM629.825 35.1343H631.59V42.8101C631.59 43.0542 631.625 43.2422 631.693 43.374C631.766 43.501 631.866 43.5864 631.993 43.6304C632.12 43.6743 632.269 43.6963 632.44 43.6963C632.562 43.6963 632.679 43.689 632.792 43.6743C632.904 43.6597 632.994 43.645 633.062 43.6304L633.07 44.978C632.923 45.022 632.752 45.061 632.557 45.0952C632.367 45.1294 632.147 45.1465 631.898 45.1465C631.493 45.1465 631.134 45.0757 630.821 44.9341C630.509 44.7876 630.265 44.5508 630.089 44.2236C629.913 43.8965 629.825 43.4619 629.825 42.9199V35.1343ZM633.854 41.1255V40.957C633.854 40.3857 633.937 39.856 634.103 39.3677C634.269 38.8745 634.508 38.4473 634.82 38.0859C635.138 37.7197 635.523 37.4365 635.978 37.2363C636.437 37.0312 636.954 36.9287 637.53 36.9287C638.111 36.9287 638.629 37.0312 639.083 37.2363C639.542 37.4365 639.93 37.7197 640.248 38.0859C640.565 38.4473 640.807 38.8745 640.973 39.3677C641.139 39.856 641.222 40.3857 641.222 40.957V41.1255C641.222 41.6968 641.139 42.2266 640.973 42.7148C640.807 43.2031 640.565 43.6304 640.248 43.9966C639.93 44.3579 639.544 44.6411 639.09 44.8462C638.636 45.0464 638.121 45.1465 637.545 45.1465C636.964 45.1465 636.444 45.0464 635.985 44.8462C635.531 44.6411 635.145 44.3579 634.828 43.9966C634.51 43.6304 634.269 43.2031 634.103 42.7148C633.937 42.2266 633.854 41.6968 633.854 41.1255ZM635.619 40.957V41.1255C635.619 41.4819 635.655 41.8188 635.729 42.1362C635.802 42.4536 635.917 42.7319 636.073 42.9712C636.229 43.2104 636.429 43.3984 636.673 43.5352C636.917 43.6719 637.208 43.7402 637.545 43.7402C637.872 43.7402 638.155 43.6719 638.395 43.5352C638.639 43.3984 638.839 43.2104 638.995 42.9712C639.151 42.7319 639.266 42.4536 639.339 42.1362C639.417 41.8188 639.457 41.4819 639.457 41.1255V40.957C639.457 40.6055 639.417 40.2734 639.339 39.9609C639.266 39.6436 639.149 39.3628 638.988 39.1187C638.832 38.8745 638.631 38.6841 638.387 38.5474C638.148 38.4058 637.862 38.335 637.53 38.335C637.198 38.335 636.91 38.4058 636.666 38.5474C636.427 38.6841 636.229 38.8745 636.073 39.1187C635.917 39.3628 635.802 39.6436 635.729 39.9609C635.655 40.2734 635.619 40.6055 635.619 40.957ZM644.452 38.7671V45H642.687V37.0752H644.349L644.452 38.7671ZM644.137 40.7446L643.565 40.7373C643.57 40.1758 643.648 39.6606 643.8 39.1919C643.956 38.7231 644.171 38.3203 644.444 37.9834C644.723 37.6465 645.055 37.3877 645.44 37.207C645.826 37.0215 646.256 36.9287 646.729 36.9287C647.11 36.9287 647.455 36.9824 647.762 37.0898C648.075 37.1924 648.341 37.3608 648.561 37.5952C648.785 37.8296 648.956 38.1348 649.073 38.5107C649.19 38.8818 649.249 39.3384 649.249 39.8804V45H647.477V39.873C647.477 39.4922 647.42 39.1919 647.308 38.9722C647.201 38.7476 647.042 38.5889 646.832 38.4961C646.627 38.3984 646.371 38.3496 646.063 38.3496C645.76 38.3496 645.489 38.4131 645.25 38.54C645.011 38.667 644.808 38.8403 644.642 39.0601C644.481 39.2798 644.356 39.5337 644.269 39.8218C644.181 40.1099 644.137 40.4175 644.137 40.7446Z" fill="#737373"/>
</svg>
