<svg width="800" height="143" viewBox="0 0 800 143" fill="none" xmlns="http://www.w3.org/2000/svg">
<rect width="800" height="143" rx="4" fill="#F8F8F8"/>
<rect x="80" y="68" width="77" height="40" rx="4" fill="#286EF1"/>
<path d="M101.083 88.1807H98.3657L98.3511 86.8403H100.724C101.125 86.8403 101.464 86.7817 101.742 86.6646C102.025 86.5425 102.24 86.3691 102.387 86.1445C102.533 85.915 102.606 85.6392 102.606 85.3169C102.606 84.9604 102.538 84.6699 102.401 84.4453C102.265 84.2207 102.055 84.0571 101.771 83.9546C101.493 83.8521 101.137 83.8008 100.702 83.8008H98.9224V93H97.084V82.3359H100.702C101.288 82.3359 101.811 82.3921 102.27 82.5044C102.733 82.6167 103.126 82.7925 103.449 83.0317C103.776 83.2661 104.022 83.564 104.188 83.9253C104.359 84.2866 104.445 84.7163 104.445 85.2144C104.445 85.6538 104.34 86.0566 104.13 86.4229C103.92 86.7842 103.61 87.0796 103.2 87.3091C102.79 87.5386 102.279 87.6753 101.669 87.7192L101.083 88.1807ZM101.002 93H97.7871L98.6147 91.5425H101.002C101.417 91.5425 101.764 91.4741 102.042 91.3374C102.321 91.1958 102.528 91.0029 102.665 90.7588C102.807 90.5098 102.877 90.2192 102.877 89.8872C102.877 89.5405 102.816 89.2402 102.694 88.9863C102.572 88.7275 102.379 88.5298 102.116 88.3931C101.852 88.2515 101.508 88.1807 101.083 88.1807H99.0176L99.0322 86.8403H101.72L102.138 87.3457C102.724 87.3652 103.205 87.4946 103.581 87.7339C103.961 87.9731 104.245 88.2832 104.43 88.6641C104.616 89.0449 104.708 89.4551 104.708 89.8945C104.708 90.5732 104.56 91.1421 104.262 91.6011C103.969 92.0601 103.546 92.4092 102.995 92.6484C102.443 92.8828 101.779 93 101.002 93ZM111.154 91.1323V85.0752H112.926V93H111.256L111.154 91.1323ZM111.403 89.4844L111.996 89.4697C111.996 90.002 111.938 90.4927 111.82 90.9419C111.703 91.3862 111.522 91.7744 111.278 92.1064C111.034 92.4336 110.722 92.6899 110.341 92.8755C109.96 93.0562 109.503 93.1465 108.971 93.1465C108.585 93.1465 108.231 93.0903 107.909 92.978C107.587 92.8657 107.309 92.6924 107.074 92.458C106.845 92.2236 106.667 91.9185 106.54 91.5425C106.413 91.1665 106.349 90.7173 106.349 90.1948V85.0752H108.114V90.2095C108.114 90.4976 108.148 90.7393 108.217 90.9346C108.285 91.125 108.378 91.2788 108.495 91.396C108.612 91.5132 108.749 91.5962 108.905 91.645C109.062 91.6938 109.228 91.7183 109.403 91.7183C109.906 91.7183 110.302 91.6206 110.59 91.4253C110.883 91.2251 111.09 90.9565 111.212 90.6196C111.339 90.2827 111.403 89.9043 111.403 89.4844ZM118.368 85.0752V86.3643H113.9V85.0752H118.368ZM115.189 83.1343H116.955V90.8101C116.955 91.0542 116.989 91.2422 117.057 91.374C117.13 91.501 117.23 91.5864 117.357 91.6304C117.484 91.6743 117.633 91.6963 117.804 91.6963C117.926 91.6963 118.043 91.689 118.156 91.6743C118.268 91.6597 118.358 91.645 118.427 91.6304L118.434 92.978C118.288 93.022 118.117 93.061 117.921 93.0952C117.731 93.1294 117.511 93.1465 117.262 93.1465C116.857 93.1465 116.498 93.0757 116.186 92.9341C115.873 92.7876 115.629 92.5508 115.453 92.2236C115.277 91.8965 115.189 91.4619 115.189 90.9199V83.1343ZM123.363 85.0752V86.3643H118.896V85.0752H123.363ZM120.185 83.1343H121.95V90.8101C121.95 91.0542 121.984 91.2422 122.052 91.374C122.125 91.501 122.226 91.5864 122.353 91.6304C122.479 91.6743 122.628 91.6963 122.799 91.6963C122.921 91.6963 123.039 91.689 123.151 91.6743C123.263 91.6597 123.354 91.645 123.422 91.6304L123.429 92.978C123.283 93.022 123.112 93.061 122.917 93.0952C122.726 93.1294 122.506 93.1465 122.257 93.1465C121.852 93.1465 121.493 93.0757 121.181 92.9341C120.868 92.7876 120.624 92.5508 120.448 92.2236C120.272 91.8965 120.185 91.4619 120.185 90.9199V83.1343ZM124.213 89.1255V88.957C124.213 88.3857 124.296 87.856 124.462 87.3677C124.628 86.8745 124.867 86.4473 125.18 86.0859C125.497 85.7197 125.883 85.4365 126.337 85.2363C126.796 85.0312 127.313 84.9287 127.89 84.9287C128.471 84.9287 128.988 85.0312 129.442 85.2363C129.901 85.4365 130.29 85.7197 130.607 86.0859C130.924 86.4473 131.166 86.8745 131.332 87.3677C131.498 87.856 131.581 88.3857 131.581 88.957V89.1255C131.581 89.6968 131.498 90.2266 131.332 90.7148C131.166 91.2031 130.924 91.6304 130.607 91.9966C130.29 92.3579 129.904 92.6411 129.45 92.8462C128.996 93.0464 128.48 93.1465 127.904 93.1465C127.323 93.1465 126.803 93.0464 126.344 92.8462C125.89 92.6411 125.504 92.3579 125.187 91.9966C124.87 91.6304 124.628 91.2031 124.462 90.7148C124.296 90.2266 124.213 89.6968 124.213 89.1255ZM125.978 88.957V89.1255C125.978 89.4819 126.015 89.8188 126.088 90.1362C126.161 90.4536 126.276 90.7319 126.432 90.9712C126.588 91.2104 126.789 91.3984 127.033 91.5352C127.277 91.6719 127.567 91.7402 127.904 91.7402C128.231 91.7402 128.515 91.6719 128.754 91.5352C128.998 91.3984 129.198 91.2104 129.354 90.9712C129.511 90.7319 129.625 90.4536 129.699 90.1362C129.777 89.8188 129.816 89.4819 129.816 89.1255V88.957C129.816 88.6055 129.777 88.2734 129.699 87.9609C129.625 87.6436 129.508 87.3628 129.347 87.1187C129.191 86.8745 128.991 86.6841 128.747 86.5474C128.507 86.4058 128.222 86.335 127.89 86.335C127.558 86.335 127.27 86.4058 127.025 86.5474C126.786 86.6841 126.588 86.8745 126.432 87.1187C126.276 87.3628 126.161 87.6436 126.088 87.9609C126.015 88.2734 125.978 88.6055 125.978 88.957ZM134.811 86.7671V93H133.046V85.0752H134.708L134.811 86.7671ZM134.496 88.7446L133.925 88.7373C133.93 88.1758 134.008 87.6606 134.159 87.1919C134.315 86.7231 134.53 86.3203 134.804 85.9834C135.082 85.6465 135.414 85.3877 135.8 85.207C136.186 85.0215 136.615 84.9287 137.089 84.9287C137.47 84.9287 137.814 84.9824 138.122 85.0898C138.434 85.1924 138.7 85.3608 138.92 85.5952C139.145 85.8296 139.315 86.1348 139.433 86.5107C139.55 86.8818 139.608 87.3384 139.608 87.8804V93H137.836V87.873C137.836 87.4922 137.78 87.1919 137.667 86.9722C137.56 86.7476 137.401 86.5889 137.191 86.4961C136.986 86.3984 136.73 86.3496 136.422 86.3496C136.12 86.3496 135.849 86.4131 135.609 86.54C135.37 86.667 135.167 86.8403 135.001 87.0601C134.84 87.2798 134.716 87.5337 134.628 87.8218C134.54 88.1099 134.496 88.4175 134.496 88.7446Z" fill="white"/>
<rect x="206" y="68" width="77" height="40" rx="4" fill="#184291"/>
<path d="M227.083 88.1807H224.366L224.351 86.8403H226.724C227.125 86.8403 227.464 86.7817 227.742 86.6646C228.025 86.5425 228.24 86.3691 228.387 86.1445C228.533 85.915 228.606 85.6392 228.606 85.3169C228.606 84.9604 228.538 84.6699 228.401 84.4453C228.265 84.2207 228.055 84.0571 227.771 83.9546C227.493 83.8521 227.137 83.8008 226.702 83.8008H224.922V93H223.084V82.3359H226.702C227.288 82.3359 227.811 82.3921 228.27 82.5044C228.733 82.6167 229.126 82.7925 229.449 83.0317C229.776 83.2661 230.022 83.564 230.188 83.9253C230.359 84.2866 230.445 84.7163 230.445 85.2144C230.445 85.6538 230.34 86.0566 230.13 86.4229C229.92 86.7842 229.61 87.0796 229.2 87.3091C228.79 87.5386 228.279 87.6753 227.669 87.7192L227.083 88.1807ZM227.002 93H223.787L224.615 91.5425H227.002C227.417 91.5425 227.764 91.4741 228.042 91.3374C228.321 91.1958 228.528 91.0029 228.665 90.7588C228.807 90.5098 228.877 90.2192 228.877 89.8872C228.877 89.5405 228.816 89.2402 228.694 88.9863C228.572 88.7275 228.379 88.5298 228.116 88.3931C227.852 88.2515 227.508 88.1807 227.083 88.1807H225.018L225.032 86.8403H227.72L228.138 87.3457C228.724 87.3652 229.205 87.4946 229.581 87.7339C229.961 87.9731 230.245 88.2832 230.43 88.6641C230.616 89.0449 230.708 89.4551 230.708 89.8945C230.708 90.5732 230.56 91.1421 230.262 91.6011C229.969 92.0601 229.546 92.4092 228.995 92.6484C228.443 92.8828 227.779 93 227.002 93ZM237.154 91.1323V85.0752H238.926V93H237.256L237.154 91.1323ZM237.403 89.4844L237.996 89.4697C237.996 90.002 237.938 90.4927 237.82 90.9419C237.703 91.3862 237.522 91.7744 237.278 92.1064C237.034 92.4336 236.722 92.6899 236.341 92.8755C235.96 93.0562 235.503 93.1465 234.971 93.1465C234.585 93.1465 234.231 93.0903 233.909 92.978C233.587 92.8657 233.309 92.6924 233.074 92.458C232.845 92.2236 232.667 91.9185 232.54 91.5425C232.413 91.1665 232.349 90.7173 232.349 90.1948V85.0752H234.114V90.2095C234.114 90.4976 234.148 90.7393 234.217 90.9346C234.285 91.125 234.378 91.2788 234.495 91.396C234.612 91.5132 234.749 91.5962 234.905 91.645C235.062 91.6938 235.228 91.7183 235.403 91.7183C235.906 91.7183 236.302 91.6206 236.59 91.4253C236.883 91.2251 237.09 90.9565 237.212 90.6196C237.339 90.2827 237.403 89.9043 237.403 89.4844ZM244.368 85.0752V86.3643H239.9V85.0752H244.368ZM241.189 83.1343H242.955V90.8101C242.955 91.0542 242.989 91.2422 243.057 91.374C243.13 91.501 243.23 91.5864 243.357 91.6304C243.484 91.6743 243.633 91.6963 243.804 91.6963C243.926 91.6963 244.043 91.689 244.156 91.6743C244.268 91.6597 244.358 91.645 244.427 91.6304L244.434 92.978C244.288 93.022 244.117 93.061 243.921 93.0952C243.731 93.1294 243.511 93.1465 243.262 93.1465C242.857 93.1465 242.498 93.0757 242.186 92.9341C241.873 92.7876 241.629 92.5508 241.453 92.2236C241.277 91.8965 241.189 91.4619 241.189 90.9199V83.1343ZM249.363 85.0752V86.3643H244.896V85.0752H249.363ZM246.185 83.1343H247.95V90.8101C247.95 91.0542 247.984 91.2422 248.052 91.374C248.125 91.501 248.226 91.5864 248.353 91.6304C248.479 91.6743 248.628 91.6963 248.799 91.6963C248.921 91.6963 249.039 91.689 249.151 91.6743C249.263 91.6597 249.354 91.645 249.422 91.6304L249.429 92.978C249.283 93.022 249.112 93.061 248.917 93.0952C248.726 93.1294 248.506 93.1465 248.257 93.1465C247.852 93.1465 247.493 93.0757 247.181 92.9341C246.868 92.7876 246.624 92.5508 246.448 92.2236C246.272 91.8965 246.185 91.4619 246.185 90.9199V83.1343ZM250.213 89.1255V88.957C250.213 88.3857 250.296 87.856 250.462 87.3677C250.628 86.8745 250.867 86.4473 251.18 86.0859C251.497 85.7197 251.883 85.4365 252.337 85.2363C252.796 85.0312 253.313 84.9287 253.89 84.9287C254.471 84.9287 254.988 85.0312 255.442 85.2363C255.901 85.4365 256.29 85.7197 256.607 86.0859C256.924 86.4473 257.166 86.8745 257.332 87.3677C257.498 87.856 257.581 88.3857 257.581 88.957V89.1255C257.581 89.6968 257.498 90.2266 257.332 90.7148C257.166 91.2031 256.924 91.6304 256.607 91.9966C256.29 92.3579 255.904 92.6411 255.45 92.8462C254.996 93.0464 254.48 93.1465 253.904 93.1465C253.323 93.1465 252.803 93.0464 252.344 92.8462C251.89 92.6411 251.504 92.3579 251.187 91.9966C250.87 91.6304 250.628 91.2031 250.462 90.7148C250.296 90.2266 250.213 89.6968 250.213 89.1255ZM251.978 88.957V89.1255C251.978 89.4819 252.015 89.8188 252.088 90.1362C252.161 90.4536 252.276 90.7319 252.432 90.9712C252.588 91.2104 252.789 91.3984 253.033 91.5352C253.277 91.6719 253.567 91.7402 253.904 91.7402C254.231 91.7402 254.515 91.6719 254.754 91.5352C254.998 91.3984 255.198 91.2104 255.354 90.9712C255.511 90.7319 255.625 90.4536 255.699 90.1362C255.777 89.8188 255.816 89.4819 255.816 89.1255V88.957C255.816 88.6055 255.777 88.2734 255.699 87.9609C255.625 87.6436 255.508 87.3628 255.347 87.1187C255.191 86.8745 254.991 86.6841 254.747 86.5474C254.507 86.4058 254.222 86.335 253.89 86.335C253.558 86.335 253.27 86.4058 253.025 86.5474C252.786 86.6841 252.588 86.8745 252.432 87.1187C252.276 87.3628 252.161 87.6436 252.088 87.9609C252.015 88.2734 251.978 88.6055 251.978 88.957ZM260.811 86.7671V93H259.046V85.0752H260.708L260.811 86.7671ZM260.496 88.7446L259.925 88.7373C259.93 88.1758 260.008 87.6606 260.159 87.1919C260.315 86.7231 260.53 86.3203 260.804 85.9834C261.082 85.6465 261.414 85.3877 261.8 85.207C262.186 85.0215 262.615 84.9287 263.089 84.9287C263.47 84.9287 263.814 84.9824 264.122 85.0898C264.434 85.1924 264.7 85.3608 264.92 85.5952C265.145 85.8296 265.315 86.1348 265.433 86.5107C265.55 86.8818 265.608 87.3384 265.608 87.8804V93H263.836V87.873C263.836 87.4922 263.78 87.1919 263.667 86.9722C263.56 86.7476 263.401 86.5889 263.191 86.4961C262.986 86.3984 262.73 86.3496 262.422 86.3496C262.12 86.3496 261.849 86.4131 261.609 86.54C261.37 86.667 261.167 86.8403 261.001 87.0601C260.84 87.2798 260.716 87.5337 260.628 87.8218C260.54 88.1099 260.496 88.4175 260.496 88.7446Z" fill="white"/>
<rect x="332" y="68" width="77" height="40" rx="4" fill="#E6E6E6"/>
<path d="M353.083 88.1807H350.366L350.351 86.8403H352.724C353.125 86.8403 353.464 86.7817 353.742 86.6646C354.025 86.5425 354.24 86.3691 354.387 86.1445C354.533 85.915 354.606 85.6392 354.606 85.3169C354.606 84.9604 354.538 84.6699 354.401 84.4453C354.265 84.2207 354.055 84.0571 353.771 83.9546C353.493 83.8521 353.137 83.8008 352.702 83.8008H350.922V93H349.084V82.3359H352.702C353.288 82.3359 353.811 82.3921 354.27 82.5044C354.733 82.6167 355.126 82.7925 355.449 83.0317C355.776 83.2661 356.022 83.564 356.188 83.9253C356.359 84.2866 356.445 84.7163 356.445 85.2144C356.445 85.6538 356.34 86.0566 356.13 86.4229C355.92 86.7842 355.61 87.0796 355.2 87.3091C354.79 87.5386 354.279 87.6753 353.669 87.7192L353.083 88.1807ZM353.002 93H349.787L350.615 91.5425H353.002C353.417 91.5425 353.764 91.4741 354.042 91.3374C354.321 91.1958 354.528 91.0029 354.665 90.7588C354.807 90.5098 354.877 90.2192 354.877 89.8872C354.877 89.5405 354.816 89.2402 354.694 88.9863C354.572 88.7275 354.379 88.5298 354.116 88.3931C353.852 88.2515 353.508 88.1807 353.083 88.1807H351.018L351.032 86.8403H353.72L354.138 87.3457C354.724 87.3652 355.205 87.4946 355.581 87.7339C355.961 87.9731 356.245 88.2832 356.43 88.6641C356.616 89.0449 356.708 89.4551 356.708 89.8945C356.708 90.5732 356.56 91.1421 356.262 91.6011C355.969 92.0601 355.546 92.4092 354.995 92.6484C354.443 92.8828 353.779 93 353.002 93ZM363.154 91.1323V85.0752H364.926V93H363.256L363.154 91.1323ZM363.403 89.4844L363.996 89.4697C363.996 90.002 363.938 90.4927 363.82 90.9419C363.703 91.3862 363.522 91.7744 363.278 92.1064C363.034 92.4336 362.722 92.6899 362.341 92.8755C361.96 93.0562 361.503 93.1465 360.971 93.1465C360.585 93.1465 360.231 93.0903 359.909 92.978C359.587 92.8657 359.309 92.6924 359.074 92.458C358.845 92.2236 358.667 91.9185 358.54 91.5425C358.413 91.1665 358.349 90.7173 358.349 90.1948V85.0752H360.114V90.2095C360.114 90.4976 360.148 90.7393 360.217 90.9346C360.285 91.125 360.378 91.2788 360.495 91.396C360.612 91.5132 360.749 91.5962 360.905 91.645C361.062 91.6938 361.228 91.7183 361.403 91.7183C361.906 91.7183 362.302 91.6206 362.59 91.4253C362.883 91.2251 363.09 90.9565 363.212 90.6196C363.339 90.2827 363.403 89.9043 363.403 89.4844ZM370.368 85.0752V86.3643H365.9V85.0752H370.368ZM367.189 83.1343H368.955V90.8101C368.955 91.0542 368.989 91.2422 369.057 91.374C369.13 91.501 369.23 91.5864 369.357 91.6304C369.484 91.6743 369.633 91.6963 369.804 91.6963C369.926 91.6963 370.043 91.689 370.156 91.6743C370.268 91.6597 370.358 91.645 370.427 91.6304L370.434 92.978C370.288 93.022 370.117 93.061 369.921 93.0952C369.731 93.1294 369.511 93.1465 369.262 93.1465C368.857 93.1465 368.498 93.0757 368.186 92.9341C367.873 92.7876 367.629 92.5508 367.453 92.2236C367.277 91.8965 367.189 91.4619 367.189 90.9199V83.1343ZM375.363 85.0752V86.3643H370.896V85.0752H375.363ZM372.185 83.1343H373.95V90.8101C373.95 91.0542 373.984 91.2422 374.052 91.374C374.125 91.501 374.226 91.5864 374.353 91.6304C374.479 91.6743 374.628 91.6963 374.799 91.6963C374.921 91.6963 375.039 91.689 375.151 91.6743C375.263 91.6597 375.354 91.645 375.422 91.6304L375.429 92.978C375.283 93.022 375.112 93.061 374.917 93.0952C374.726 93.1294 374.506 93.1465 374.257 93.1465C373.852 93.1465 373.493 93.0757 373.181 92.9341C372.868 92.7876 372.624 92.5508 372.448 92.2236C372.272 91.8965 372.185 91.4619 372.185 90.9199V83.1343ZM376.213 89.1255V88.957C376.213 88.3857 376.296 87.856 376.462 87.3677C376.628 86.8745 376.867 86.4473 377.18 86.0859C377.497 85.7197 377.883 85.4365 378.337 85.2363C378.796 85.0312 379.313 84.9287 379.89 84.9287C380.471 84.9287 380.988 85.0312 381.442 85.2363C381.901 85.4365 382.29 85.7197 382.607 86.0859C382.924 86.4473 383.166 86.8745 383.332 87.3677C383.498 87.856 383.581 88.3857 383.581 88.957V89.1255C383.581 89.6968 383.498 90.2266 383.332 90.7148C383.166 91.2031 382.924 91.6304 382.607 91.9966C382.29 92.3579 381.904 92.6411 381.45 92.8462C380.996 93.0464 380.48 93.1465 379.904 93.1465C379.323 93.1465 378.803 93.0464 378.344 92.8462C377.89 92.6411 377.504 92.3579 377.187 91.9966C376.87 91.6304 376.628 91.2031 376.462 90.7148C376.296 90.2266 376.213 89.6968 376.213 89.1255ZM377.978 88.957V89.1255C377.978 89.4819 378.015 89.8188 378.088 90.1362C378.161 90.4536 378.276 90.7319 378.432 90.9712C378.588 91.2104 378.789 91.3984 379.033 91.5352C379.277 91.6719 379.567 91.7402 379.904 91.7402C380.231 91.7402 380.515 91.6719 380.754 91.5352C380.998 91.3984 381.198 91.2104 381.354 90.9712C381.511 90.7319 381.625 90.4536 381.699 90.1362C381.777 89.8188 381.816 89.4819 381.816 89.1255V88.957C381.816 88.6055 381.777 88.2734 381.699 87.9609C381.625 87.6436 381.508 87.3628 381.347 87.1187C381.191 86.8745 380.991 86.6841 380.747 86.5474C380.507 86.4058 380.222 86.335 379.89 86.335C379.558 86.335 379.27 86.4058 379.025 86.5474C378.786 86.6841 378.588 86.8745 378.432 87.1187C378.276 87.3628 378.161 87.6436 378.088 87.9609C378.015 88.2734 377.978 88.6055 377.978 88.957ZM386.811 86.7671V93H385.046V85.0752H386.708L386.811 86.7671ZM386.496 88.7446L385.925 88.7373C385.93 88.1758 386.008 87.6606 386.159 87.1919C386.315 86.7231 386.53 86.3203 386.804 85.9834C387.082 85.6465 387.414 85.3877 387.8 85.207C388.186 85.0215 388.615 84.9287 389.089 84.9287C389.47 84.9287 389.814 84.9824 390.122 85.0898C390.434 85.1924 390.7 85.3608 390.92 85.5952C391.145 85.8296 391.315 86.1348 391.433 86.5107C391.55 86.8818 391.608 87.3384 391.608 87.8804V93H389.836V87.873C389.836 87.4922 389.78 87.1919 389.667 86.9722C389.56 86.7476 389.401 86.5889 389.191 86.4961C388.986 86.3984 388.73 86.3496 388.422 86.3496C388.12 86.3496 387.849 86.4131 387.609 86.54C387.37 86.667 387.167 86.8403 387.001 87.0601C386.84 87.2798 386.716 87.5337 386.628 87.8218C386.54 88.1099 386.496 88.4175 386.496 88.7446Z" fill="#AAAAAA"/>
<g filter="url(#filter0_d_859_23893)">
<rect x="458" y="68" width="77" height="40" rx="4" fill="#286EF1"/>
<path d="M479.083 88.1807H476.366L476.351 86.8403H478.724C479.125 86.8403 479.464 86.7817 479.742 86.6646C480.025 86.5425 480.24 86.3691 480.387 86.1445C480.533 85.915 480.606 85.6392 480.606 85.3169C480.606 84.9604 480.538 84.6699 480.401 84.4453C480.265 84.2207 480.055 84.0571 479.771 83.9546C479.493 83.8521 479.137 83.8008 478.702 83.8008H476.922V93H475.084V82.3359H478.702C479.288 82.3359 479.811 82.3921 480.27 82.5044C480.733 82.6167 481.126 82.7925 481.449 83.0317C481.776 83.2661 482.022 83.564 482.188 83.9253C482.359 84.2866 482.445 84.7163 482.445 85.2144C482.445 85.6538 482.34 86.0566 482.13 86.4229C481.92 86.7842 481.61 87.0796 481.2 87.3091C480.79 87.5386 480.279 87.6753 479.669 87.7192L479.083 88.1807ZM479.002 93H475.787L476.615 91.5425H479.002C479.417 91.5425 479.764 91.4741 480.042 91.3374C480.321 91.1958 480.528 91.0029 480.665 90.7588C480.807 90.5098 480.877 90.2192 480.877 89.8872C480.877 89.5405 480.816 89.2402 480.694 88.9863C480.572 88.7275 480.379 88.5298 480.116 88.3931C479.852 88.2515 479.508 88.1807 479.083 88.1807H477.018L477.032 86.8403H479.72L480.138 87.3457C480.724 87.3652 481.205 87.4946 481.581 87.7339C481.961 87.9731 482.245 88.2832 482.43 88.6641C482.616 89.0449 482.708 89.4551 482.708 89.8945C482.708 90.5732 482.56 91.1421 482.262 91.6011C481.969 92.0601 481.546 92.4092 480.995 92.6484C480.443 92.8828 479.779 93 479.002 93ZM489.154 91.1323V85.0752H490.926V93H489.256L489.154 91.1323ZM489.403 89.4844L489.996 89.4697C489.996 90.002 489.938 90.4927 489.82 90.9419C489.703 91.3862 489.522 91.7744 489.278 92.1064C489.034 92.4336 488.722 92.6899 488.341 92.8755C487.96 93.0562 487.503 93.1465 486.971 93.1465C486.585 93.1465 486.231 93.0903 485.909 92.978C485.587 92.8657 485.309 92.6924 485.074 92.458C484.845 92.2236 484.667 91.9185 484.54 91.5425C484.413 91.1665 484.349 90.7173 484.349 90.1948V85.0752H486.114V90.2095C486.114 90.4976 486.148 90.7393 486.217 90.9346C486.285 91.125 486.378 91.2788 486.495 91.396C486.612 91.5132 486.749 91.5962 486.905 91.645C487.062 91.6938 487.228 91.7183 487.403 91.7183C487.906 91.7183 488.302 91.6206 488.59 91.4253C488.883 91.2251 489.09 90.9565 489.212 90.6196C489.339 90.2827 489.403 89.9043 489.403 89.4844ZM496.368 85.0752V86.3643H491.9V85.0752H496.368ZM493.189 83.1343H494.955V90.8101C494.955 91.0542 494.989 91.2422 495.057 91.374C495.13 91.501 495.23 91.5864 495.357 91.6304C495.484 91.6743 495.633 91.6963 495.804 91.6963C495.926 91.6963 496.043 91.689 496.156 91.6743C496.268 91.6597 496.358 91.645 496.427 91.6304L496.434 92.978C496.288 93.022 496.117 93.061 495.921 93.0952C495.731 93.1294 495.511 93.1465 495.262 93.1465C494.857 93.1465 494.498 93.0757 494.186 92.9341C493.873 92.7876 493.629 92.5508 493.453 92.2236C493.277 91.8965 493.189 91.4619 493.189 90.9199V83.1343ZM501.363 85.0752V86.3643H496.896V85.0752H501.363ZM498.185 83.1343H499.95V90.8101C499.95 91.0542 499.984 91.2422 500.052 91.374C500.125 91.501 500.226 91.5864 500.353 91.6304C500.479 91.6743 500.628 91.6963 500.799 91.6963C500.921 91.6963 501.039 91.689 501.151 91.6743C501.263 91.6597 501.354 91.645 501.422 91.6304L501.429 92.978C501.283 93.022 501.112 93.061 500.917 93.0952C500.726 93.1294 500.506 93.1465 500.257 93.1465C499.852 93.1465 499.493 93.0757 499.181 92.9341C498.868 92.7876 498.624 92.5508 498.448 92.2236C498.272 91.8965 498.185 91.4619 498.185 90.9199V83.1343ZM502.213 89.1255V88.957C502.213 88.3857 502.296 87.856 502.462 87.3677C502.628 86.8745 502.867 86.4473 503.18 86.0859C503.497 85.7197 503.883 85.4365 504.337 85.2363C504.796 85.0312 505.313 84.9287 505.89 84.9287C506.471 84.9287 506.988 85.0312 507.442 85.2363C507.901 85.4365 508.29 85.7197 508.607 86.0859C508.924 86.4473 509.166 86.8745 509.332 87.3677C509.498 87.856 509.581 88.3857 509.581 88.957V89.1255C509.581 89.6968 509.498 90.2266 509.332 90.7148C509.166 91.2031 508.924 91.6304 508.607 91.9966C508.29 92.3579 507.904 92.6411 507.45 92.8462C506.996 93.0464 506.48 93.1465 505.904 93.1465C505.323 93.1465 504.803 93.0464 504.344 92.8462C503.89 92.6411 503.504 92.3579 503.187 91.9966C502.87 91.6304 502.628 91.2031 502.462 90.7148C502.296 90.2266 502.213 89.6968 502.213 89.1255ZM503.978 88.957V89.1255C503.978 89.4819 504.015 89.8188 504.088 90.1362C504.161 90.4536 504.276 90.7319 504.432 90.9712C504.588 91.2104 504.789 91.3984 505.033 91.5352C505.277 91.6719 505.567 91.7402 505.904 91.7402C506.231 91.7402 506.515 91.6719 506.754 91.5352C506.998 91.3984 507.198 91.2104 507.354 90.9712C507.511 90.7319 507.625 90.4536 507.699 90.1362C507.777 89.8188 507.816 89.4819 507.816 89.1255V88.957C507.816 88.6055 507.777 88.2734 507.699 87.9609C507.625 87.6436 507.508 87.3628 507.347 87.1187C507.191 86.8745 506.991 86.6841 506.747 86.5474C506.507 86.4058 506.222 86.335 505.89 86.335C505.558 86.335 505.27 86.4058 505.025 86.5474C504.786 86.6841 504.588 86.8745 504.432 87.1187C504.276 87.3628 504.161 87.6436 504.088 87.9609C504.015 88.2734 503.978 88.6055 503.978 88.957ZM512.811 86.7671V93H511.046V85.0752H512.708L512.811 86.7671ZM512.496 88.7446L511.925 88.7373C511.93 88.1758 512.008 87.6606 512.159 87.1919C512.315 86.7231 512.53 86.3203 512.804 85.9834C513.082 85.6465 513.414 85.3877 513.8 85.207C514.186 85.0215 514.615 84.9287 515.089 84.9287C515.47 84.9287 515.814 84.9824 516.122 85.0898C516.434 85.1924 516.7 85.3608 516.92 85.5952C517.145 85.8296 517.315 86.1348 517.433 86.5107C517.55 86.8818 517.608 87.3384 517.608 87.8804V93H515.836V87.873C515.836 87.4922 515.78 87.1919 515.667 86.9722C515.56 86.7476 515.401 86.5889 515.191 86.4961C514.986 86.3984 514.73 86.3496 514.422 86.3496C514.12 86.3496 513.849 86.4131 513.609 86.54C513.37 86.667 513.167 86.8403 513.001 87.0601C512.84 87.2798 512.716 87.5337 512.628 87.8218C512.54 88.1099 512.496 88.4175 512.496 88.7446Z" fill="white"/>
<rect x="457" y="67" width="79" height="42" rx="5" stroke="white" stroke-width="2"/>
</g>
<rect x="584" y="68" width="74" height="40" rx="4" fill="#286EF1"/>
<path d="M620.125 81.875C620.125 81.391 620.516 81 621 81C624.866 81 628 84.1336 628 88C628 89.2742 627.658 90.4719 627.062 91.5C626.821 91.9184 626.286 92.0605 625.867 91.8199C625.449 91.5793 625.307 91.0434 625.547 90.625C625.993 89.8539 626.25 88.957 626.25 88C626.25 85.1016 623.898 82.75 621 82.75C620.516 82.75 620.125 82.359 620.125 81.875Z" fill="white"/>
<path d="M84.1821 45H81.9043L81.9189 43.5425H84.1821C84.8413 43.5425 85.3931 43.3984 85.8374 43.1104C86.2866 42.8223 86.6235 42.4097 86.8481 41.8726C87.0776 41.3354 87.1924 40.6958 87.1924 39.9536V39.375C87.1924 38.7988 87.1265 38.2886 86.9946 37.8442C86.8677 37.3999 86.6772 37.0264 86.4233 36.7236C86.1743 36.4209 85.8667 36.1914 85.5005 36.0352C85.1392 35.8789 84.7217 35.8008 84.248 35.8008H81.8604V34.3359H84.248C84.9561 34.3359 85.603 34.4556 86.189 34.6948C86.7749 34.9292 87.2803 35.2686 87.7051 35.7129C88.1348 36.1572 88.4644 36.6895 88.6938 37.3096C88.9233 37.9297 89.0381 38.623 89.0381 39.3896V39.9536C89.0381 40.7202 88.9233 41.4136 88.6938 42.0337C88.4644 42.6538 88.1348 43.186 87.7051 43.6304C87.2754 44.0698 86.7627 44.4092 86.167 44.6484C85.5762 44.8828 84.9146 45 84.1821 45ZM82.9224 34.3359V45H81.084V34.3359H82.9224ZM94.2017 45.1465C93.6157 45.1465 93.0859 45.0513 92.6123 44.8608C92.1436 44.6655 91.7432 44.3945 91.4111 44.0479C91.084 43.7012 90.8325 43.2935 90.6567 42.8247C90.481 42.356 90.3931 41.8506 90.3931 41.3086V41.0156C90.3931 40.3955 90.4834 39.834 90.6641 39.3311C90.8447 38.8281 91.0962 38.3984 91.4185 38.042C91.7407 37.6807 92.1216 37.4048 92.561 37.2144C93.0005 37.0239 93.4766 36.9287 93.9893 36.9287C94.5557 36.9287 95.0513 37.0239 95.4761 37.2144C95.9009 37.4048 96.2524 37.6733 96.5308 38.02C96.814 38.3618 97.0239 38.7695 97.1606 39.2432C97.3022 39.7168 97.373 40.2393 97.373 40.8105V41.5649H91.25V40.2979H95.6299V40.1587C95.6201 39.8413 95.5566 39.5435 95.4395 39.2651C95.3271 38.9868 95.1538 38.7622 94.9194 38.5913C94.6851 38.4204 94.3726 38.335 93.9819 38.335C93.689 38.335 93.4277 38.3984 93.1982 38.5254C92.9736 38.6475 92.7856 38.8257 92.6343 39.0601C92.4829 39.2944 92.3657 39.5776 92.2827 39.9097C92.2046 40.2368 92.1655 40.6055 92.1655 41.0156V41.3086C92.1655 41.6553 92.2119 41.9775 92.3047 42.2754C92.4023 42.5684 92.5439 42.8247 92.7295 43.0444C92.915 43.2642 93.1396 43.4375 93.4033 43.5645C93.667 43.6865 93.9673 43.7476 94.3042 43.7476C94.729 43.7476 95.1074 43.6621 95.4395 43.4912C95.7715 43.3203 96.0596 43.0786 96.3037 42.7661L97.2339 43.667C97.063 43.916 96.8408 44.1553 96.5674 44.3848C96.2939 44.6094 95.9595 44.7925 95.564 44.9341C95.1733 45.0757 94.7192 45.1465 94.2017 45.1465ZM101.138 45H99.3726V36.3135C99.3726 35.7227 99.4824 35.2271 99.7021 34.8267C99.9268 34.4214 100.247 34.1162 100.662 33.9111C101.077 33.7012 101.567 33.5962 102.134 33.5962C102.31 33.5962 102.483 33.6084 102.654 33.6328C102.825 33.6523 102.991 33.6841 103.152 33.728L103.108 35.0903C103.01 35.0659 102.903 35.0488 102.786 35.0391C102.673 35.0293 102.551 35.0244 102.419 35.0244C102.151 35.0244 101.919 35.0757 101.724 35.1782C101.533 35.2759 101.387 35.4199 101.284 35.6104C101.187 35.8008 101.138 36.0352 101.138 36.3135V45ZM102.771 37.0752V38.3643H98.1567V37.0752H102.771ZM108.521 43.4106V39.6313C108.521 39.3481 108.469 39.104 108.367 38.8989C108.264 38.6938 108.108 38.5352 107.898 38.4229C107.693 38.3105 107.434 38.2544 107.122 38.2544C106.833 38.2544 106.584 38.3032 106.375 38.4009C106.165 38.4985 106.001 38.6304 105.884 38.7964C105.767 38.9624 105.708 39.1504 105.708 39.3604H103.95C103.95 39.0479 104.026 38.7451 104.177 38.4521C104.329 38.1592 104.548 37.8979 104.836 37.6685C105.125 37.439 105.469 37.2583 105.869 37.1265C106.27 36.9946 106.719 36.9287 107.217 36.9287C107.812 36.9287 108.34 37.0288 108.799 37.229C109.263 37.4292 109.626 37.7319 109.89 38.1372C110.159 38.5376 110.293 39.0405 110.293 39.646V43.1689C110.293 43.5303 110.317 43.855 110.366 44.1431C110.42 44.4263 110.496 44.6729 110.593 44.8828V45H108.784C108.701 44.8096 108.635 44.5679 108.586 44.2749C108.542 43.9771 108.521 43.689 108.521 43.4106ZM108.777 40.1807L108.792 41.272H107.524C107.197 41.272 106.909 41.3037 106.66 41.3672C106.411 41.4258 106.204 41.5137 106.038 41.6309C105.872 41.748 105.747 41.8896 105.664 42.0557C105.581 42.2217 105.54 42.4097 105.54 42.6196C105.54 42.8296 105.588 43.0225 105.686 43.1982C105.784 43.3691 105.925 43.5034 106.111 43.6011C106.301 43.6987 106.531 43.7476 106.799 43.7476C107.161 43.7476 107.476 43.6743 107.744 43.5278C108.018 43.3765 108.232 43.1934 108.389 42.9785C108.545 42.7588 108.628 42.5513 108.638 42.356L109.209 43.1396C109.15 43.3398 109.05 43.5547 108.909 43.7842C108.767 44.0137 108.582 44.2334 108.352 44.4434C108.127 44.6484 107.856 44.8169 107.539 44.9487C107.227 45.0806 106.865 45.1465 106.455 45.1465C105.938 45.1465 105.476 45.0439 105.071 44.8389C104.666 44.6289 104.348 44.3481 104.119 43.9966C103.889 43.6401 103.774 43.2373 103.774 42.7881C103.774 42.3682 103.853 41.9971 104.009 41.6748C104.17 41.3477 104.404 41.0742 104.712 40.8545C105.024 40.6348 105.405 40.4688 105.854 40.3564C106.304 40.2393 106.816 40.1807 107.393 40.1807H108.777ZM116.907 43.1323V37.0752H118.679V45H117.009L116.907 43.1323ZM117.156 41.4844L117.749 41.4697C117.749 42.002 117.69 42.4927 117.573 42.9419C117.456 43.3862 117.275 43.7744 117.031 44.1064C116.787 44.4336 116.475 44.6899 116.094 44.8755C115.713 45.0562 115.256 45.1465 114.724 45.1465C114.338 45.1465 113.984 45.0903 113.662 44.978C113.34 44.8657 113.062 44.6924 112.827 44.458C112.598 44.2236 112.419 43.9185 112.292 43.5425C112.166 43.1665 112.102 42.7173 112.102 42.1948V37.0752H113.867V42.2095C113.867 42.4976 113.901 42.7393 113.97 42.9346C114.038 43.125 114.131 43.2788 114.248 43.396C114.365 43.5132 114.502 43.5962 114.658 43.645C114.814 43.6938 114.98 43.7183 115.156 43.7183C115.659 43.7183 116.055 43.6206 116.343 43.4253C116.636 43.2251 116.843 42.9565 116.965 42.6196C117.092 42.2827 117.156 41.9043 117.156 41.4844ZM122.378 33.75V45H120.605V33.75H122.378ZM127.944 37.0752V38.3643H123.477V37.0752H127.944ZM124.766 35.1343H126.531V42.8101C126.531 43.0542 126.565 43.2422 126.633 43.374C126.707 43.501 126.807 43.5864 126.934 43.6304C127.061 43.6743 127.209 43.6963 127.38 43.6963C127.502 43.6963 127.62 43.689 127.732 43.6743C127.844 43.6597 127.935 43.645 128.003 43.6304L128.01 44.978C127.864 45.022 127.693 45.061 127.498 45.0952C127.307 45.1294 127.087 45.1465 126.838 45.1465C126.433 45.1465 126.074 45.0757 125.762 44.9341C125.449 44.7876 125.205 44.5508 125.029 44.2236C124.854 43.8965 124.766 43.4619 124.766 42.9199V35.1343Z" fill="#737373"/>
<path d="M214.13 38.7891V40.2466H208.468V38.7891H214.13ZM208.922 34.3359V45H207.084V34.3359H208.922ZM215.543 34.3359V45H213.712V34.3359H215.543ZM217.221 41.1255V40.957C217.221 40.3857 217.304 39.856 217.47 39.3677C217.636 38.8745 217.875 38.4473 218.188 38.0859C218.505 37.7197 218.891 37.4365 219.345 37.2363C219.804 37.0312 220.321 36.9287 220.897 36.9287C221.479 36.9287 221.996 37.0312 222.45 37.2363C222.909 37.4365 223.297 37.7197 223.615 38.0859C223.932 38.4473 224.174 38.8745 224.34 39.3677C224.506 39.856 224.589 40.3857 224.589 40.957V41.1255C224.589 41.6968 224.506 42.2266 224.34 42.7148C224.174 43.2031 223.932 43.6304 223.615 43.9966C223.297 44.3579 222.912 44.6411 222.458 44.8462C222.003 45.0464 221.488 45.1465 220.912 45.1465C220.331 45.1465 219.811 45.0464 219.352 44.8462C218.898 44.6411 218.512 44.3579 218.195 43.9966C217.877 43.6304 217.636 43.2031 217.47 42.7148C217.304 42.2266 217.221 41.6968 217.221 41.1255ZM218.986 40.957V41.1255C218.986 41.4819 219.022 41.8188 219.096 42.1362C219.169 42.4536 219.284 42.7319 219.44 42.9712C219.596 43.2104 219.796 43.3984 220.041 43.5352C220.285 43.6719 220.575 43.7402 220.912 43.7402C221.239 43.7402 221.522 43.6719 221.762 43.5352C222.006 43.3984 222.206 43.2104 222.362 42.9712C222.519 42.7319 222.633 42.4536 222.707 42.1362C222.785 41.8188 222.824 41.4819 222.824 41.1255V40.957C222.824 40.6055 222.785 40.2734 222.707 39.9609C222.633 39.6436 222.516 39.3628 222.355 39.1187C222.199 38.8745 221.999 38.6841 221.754 38.5474C221.515 38.4058 221.229 38.335 220.897 38.335C220.565 38.335 220.277 38.4058 220.033 38.5474C219.794 38.6841 219.596 38.8745 219.44 39.1187C219.284 39.3628 219.169 39.6436 219.096 39.9609C219.022 40.2734 218.986 40.6055 218.986 40.957ZM228.529 43.6011L230.47 37.0752H232.301L229.547 45H228.405L228.529 43.6011ZM227.042 37.0752L229.02 43.6304L229.115 45H227.973L225.204 37.0752H227.042ZM236.784 45.1465C236.198 45.1465 235.668 45.0513 235.194 44.8608C234.726 44.6655 234.325 44.3945 233.993 44.0479C233.666 43.7012 233.415 43.2935 233.239 42.8247C233.063 42.356 232.975 41.8506 232.975 41.3086V41.0156C232.975 40.3955 233.065 39.834 233.246 39.3311C233.427 38.8281 233.678 38.3984 234 38.042C234.323 37.6807 234.704 37.4048 235.143 37.2144C235.583 37.0239 236.059 36.9287 236.571 36.9287C237.138 36.9287 237.633 37.0239 238.058 37.2144C238.483 37.4048 238.834 37.6733 239.113 38.02C239.396 38.3618 239.606 38.7695 239.743 39.2432C239.884 39.7168 239.955 40.2393 239.955 40.8105V41.5649H233.832V40.2979H238.212V40.1587C238.202 39.8413 238.139 39.5435 238.021 39.2651C237.909 38.9868 237.736 38.7622 237.501 38.5913C237.267 38.4204 236.955 38.335 236.564 38.335C236.271 38.335 236.01 38.3984 235.78 38.5254C235.556 38.6475 235.368 38.8257 235.216 39.0601C235.065 39.2944 234.948 39.5776 234.865 39.9097C234.787 40.2368 234.748 40.6055 234.748 41.0156V41.3086C234.748 41.6553 234.794 41.9775 234.887 42.2754C234.984 42.5684 235.126 42.8247 235.312 43.0444C235.497 43.2642 235.722 43.4375 235.985 43.5645C236.249 43.6865 236.549 43.7476 236.886 43.7476C237.311 43.7476 237.689 43.6621 238.021 43.4912C238.354 43.3203 238.642 43.0786 238.886 42.7661L239.816 43.667C239.645 43.916 239.423 44.1553 239.149 44.3848C238.876 44.6094 238.542 44.7925 238.146 44.9341C237.755 45.0757 237.301 45.1465 236.784 45.1465ZM243.104 38.584V45H241.339V37.0752H243.024L243.104 38.584ZM245.529 37.0239L245.514 38.6646C245.407 38.645 245.29 38.6304 245.163 38.6206C245.041 38.6108 244.918 38.606 244.796 38.606C244.494 38.606 244.228 38.6499 243.998 38.7378C243.769 38.8208 243.576 38.9429 243.419 39.104C243.268 39.2603 243.151 39.4507 243.068 39.6753C242.985 39.8999 242.936 40.1514 242.921 40.4297L242.519 40.459C242.519 39.9609 242.567 39.4995 242.665 39.0747C242.763 38.6499 242.909 38.2764 243.104 37.9541C243.305 37.6318 243.554 37.3804 243.852 37.1997C244.154 37.019 244.503 36.9287 244.899 36.9287C245.006 36.9287 245.121 36.9385 245.243 36.958C245.37 36.9775 245.465 36.9995 245.529 37.0239Z" fill="#737373"/>
<path d="M336.182 45H333.904L333.919 43.5425H336.182C336.841 43.5425 337.393 43.3984 337.837 43.1104C338.287 42.8223 338.624 42.4097 338.848 41.8726C339.078 41.3354 339.192 40.6958 339.192 39.9536V39.375C339.192 38.7988 339.126 38.2886 338.995 37.8442C338.868 37.3999 338.677 37.0264 338.423 36.7236C338.174 36.4209 337.867 36.1914 337.5 36.0352C337.139 35.8789 336.722 35.8008 336.248 35.8008H333.86V34.3359H336.248C336.956 34.3359 337.603 34.4556 338.189 34.6948C338.775 34.9292 339.28 35.2686 339.705 35.7129C340.135 36.1572 340.464 36.6895 340.694 37.3096C340.923 37.9297 341.038 38.623 341.038 39.3896V39.9536C341.038 40.7202 340.923 41.4136 340.694 42.0337C340.464 42.6538 340.135 43.186 339.705 43.6304C339.275 44.0698 338.763 44.4092 338.167 44.6484C337.576 44.8828 336.915 45 336.182 45ZM334.922 34.3359V45H333.084V34.3359H334.922ZM344.598 37.0752V45H342.825V37.0752H344.598ZM342.708 34.9951C342.708 34.7266 342.796 34.5044 342.972 34.3286C343.152 34.1479 343.401 34.0576 343.719 34.0576C344.031 34.0576 344.278 34.1479 344.458 34.3286C344.639 34.5044 344.729 34.7266 344.729 34.9951C344.729 35.2588 344.639 35.4785 344.458 35.6543C344.278 35.8301 344.031 35.918 343.719 35.918C343.401 35.918 343.152 35.8301 342.972 35.6543C342.796 35.4785 342.708 35.2588 342.708 34.9951ZM350.977 42.854C350.977 42.6782 350.933 42.5195 350.845 42.3779C350.757 42.2314 350.589 42.0996 350.34 41.9824C350.096 41.8652 349.734 41.7578 349.256 41.6602C348.836 41.5674 348.45 41.4575 348.099 41.3306C347.752 41.1987 347.454 41.04 347.205 40.8545C346.956 40.6689 346.763 40.4492 346.626 40.1953C346.49 39.9414 346.421 39.6484 346.421 39.3164C346.421 38.9941 346.492 38.689 346.634 38.4009C346.775 38.1128 346.978 37.8589 347.242 37.6392C347.505 37.4194 347.825 37.2461 348.201 37.1191C348.582 36.9922 349.007 36.9287 349.476 36.9287C350.14 36.9287 350.708 37.041 351.182 37.2656C351.661 37.4854 352.027 37.7856 352.281 38.1665C352.535 38.5425 352.662 38.9673 352.662 39.4409H350.896C350.896 39.231 350.843 39.0356 350.735 38.855C350.633 38.6694 350.477 38.5205 350.267 38.4082C350.057 38.291 349.793 38.2324 349.476 38.2324C349.173 38.2324 348.921 38.2812 348.721 38.3789C348.526 38.4717 348.379 38.5938 348.282 38.7451C348.189 38.8965 348.143 39.0625 348.143 39.2432C348.143 39.375 348.167 39.4946 348.216 39.6021C348.27 39.7046 348.357 39.7998 348.479 39.8877C348.602 39.9707 348.768 40.0488 348.978 40.1221C349.192 40.1953 349.461 40.2661 349.783 40.3345C350.389 40.4614 350.909 40.625 351.343 40.8252C351.783 41.0205 352.12 41.2744 352.354 41.5869C352.588 41.8945 352.706 42.2852 352.706 42.7588C352.706 43.1104 352.63 43.4326 352.479 43.7256C352.332 44.0137 352.117 44.2651 351.834 44.48C351.551 44.6899 351.211 44.8535 350.816 44.9707C350.425 45.0879 349.986 45.1465 349.498 45.1465C348.78 45.1465 348.172 45.0195 347.674 44.7656C347.176 44.5068 346.797 44.1772 346.539 43.7769C346.285 43.3716 346.158 42.9517 346.158 42.5171H347.864C347.884 42.8442 347.974 43.1055 348.135 43.3008C348.301 43.4912 348.506 43.6304 348.75 43.7183C349 43.8013 349.256 43.8428 349.52 43.8428C349.837 43.8428 350.103 43.8013 350.318 43.7183C350.533 43.6304 350.696 43.5132 350.809 43.3667C350.921 43.2153 350.977 43.0444 350.977 42.854ZM358.719 43.4106V39.6313C358.719 39.3481 358.667 39.104 358.565 38.8989C358.462 38.6938 358.306 38.5352 358.096 38.4229C357.891 38.3105 357.632 38.2544 357.32 38.2544C357.032 38.2544 356.783 38.3032 356.573 38.4009C356.363 38.4985 356.199 38.6304 356.082 38.7964C355.965 38.9624 355.906 39.1504 355.906 39.3604H354.148C354.148 39.0479 354.224 38.7451 354.375 38.4521C354.527 38.1592 354.747 37.8979 355.035 37.6685C355.323 37.439 355.667 37.2583 356.067 37.1265C356.468 36.9946 356.917 36.9287 357.415 36.9287C358.011 36.9287 358.538 37.0288 358.997 37.229C359.461 37.4292 359.825 37.7319 360.088 38.1372C360.357 38.5376 360.491 39.0405 360.491 39.646V43.1689C360.491 43.5303 360.516 43.855 360.564 44.1431C360.618 44.4263 360.694 44.6729 360.792 44.8828V45H358.982C358.899 44.8096 358.833 44.5679 358.785 44.2749C358.741 43.9771 358.719 43.689 358.719 43.4106ZM358.975 40.1807L358.99 41.272H357.723C357.396 41.272 357.107 41.3037 356.858 41.3672C356.609 41.4258 356.402 41.5137 356.236 41.6309C356.07 41.748 355.945 41.8896 355.862 42.0557C355.779 42.2217 355.738 42.4097 355.738 42.6196C355.738 42.8296 355.787 43.0225 355.884 43.1982C355.982 43.3691 356.124 43.5034 356.309 43.6011C356.5 43.6987 356.729 43.7476 356.998 43.7476C357.359 43.7476 357.674 43.6743 357.942 43.5278C358.216 43.3765 358.431 43.1934 358.587 42.9785C358.743 42.7588 358.826 42.5513 358.836 42.356L359.407 43.1396C359.349 43.3398 359.249 43.5547 359.107 43.7842C358.965 44.0137 358.78 44.2334 358.55 44.4434C358.326 44.6484 358.055 44.8169 357.737 44.9487C357.425 45.0806 357.063 45.1465 356.653 45.1465C356.136 45.1465 355.674 45.0439 355.269 44.8389C354.864 44.6289 354.546 44.3481 354.317 43.9966C354.087 43.6401 353.973 43.2373 353.973 42.7881C353.973 42.3682 354.051 41.9971 354.207 41.6748C354.368 41.3477 354.603 41.0742 354.91 40.8545C355.223 40.6348 355.604 40.4688 356.053 40.3564C356.502 40.2393 357.015 40.1807 357.591 40.1807H358.975ZM362.344 33.75H364.109V43.3081L363.941 45H362.344V33.75ZM369.28 40.9644V41.1182C369.28 41.7041 369.214 42.2437 369.083 42.7368C368.956 43.2251 368.76 43.6499 368.497 44.0112C368.238 44.3726 367.916 44.6533 367.53 44.8535C367.149 45.0488 366.707 45.1465 366.204 45.1465C365.711 45.1465 365.281 45.0537 364.915 44.8682C364.549 44.6826 364.241 44.4189 363.992 44.0771C363.748 43.7354 363.55 43.3276 363.399 42.854C363.248 42.3804 363.14 41.8579 363.077 41.2866V40.7959C363.14 40.2197 363.248 39.6973 363.399 39.2285C363.55 38.7549 363.748 38.3472 363.992 38.0054C364.241 37.6587 364.546 37.3926 364.908 37.207C365.274 37.0215 365.701 36.9287 366.189 36.9287C366.697 36.9287 367.144 37.0264 367.53 37.2217C367.92 37.417 368.245 37.6953 368.504 38.0566C368.763 38.4131 368.956 38.8379 369.083 39.3311C369.214 39.8242 369.28 40.3687 369.28 40.9644ZM367.515 41.1182V40.9644C367.515 40.6079 367.486 40.2734 367.427 39.9609C367.369 39.6436 367.271 39.3652 367.134 39.126C367.002 38.8867 366.822 38.6987 366.592 38.562C366.368 38.4204 366.087 38.3496 365.75 38.3496C365.438 38.3496 365.169 38.4033 364.944 38.5107C364.72 38.6182 364.532 38.7646 364.38 38.9502C364.229 39.1357 364.109 39.3506 364.021 39.5947C363.938 39.8389 363.882 40.1025 363.853 40.3857V41.7114C363.897 42.0776 363.99 42.4146 364.131 42.7222C364.278 43.0249 364.483 43.269 364.747 43.4546C365.01 43.6353 365.35 43.7256 365.765 43.7256C366.092 43.7256 366.368 43.6597 366.592 43.5278C366.817 43.396 366.995 43.2129 367.127 42.9785C367.264 42.7393 367.361 42.4609 367.42 42.1436C367.483 41.8262 367.515 41.4844 367.515 41.1182ZM372.664 33.75V45H370.892V33.75H372.664ZM378.091 45.1465C377.505 45.1465 376.976 45.0513 376.502 44.8608C376.033 44.6655 375.633 44.3945 375.301 44.0479C374.974 43.7012 374.722 43.2935 374.546 42.8247C374.371 42.356 374.283 41.8506 374.283 41.3086V41.0156C374.283 40.3955 374.373 39.834 374.554 39.3311C374.734 38.8281 374.986 38.3984 375.308 38.042C375.63 37.6807 376.011 37.4048 376.451 37.2144C376.89 37.0239 377.366 36.9287 377.879 36.9287C378.445 36.9287 378.941 37.0239 379.366 37.2144C379.791 37.4048 380.142 37.6733 380.42 38.02C380.704 38.3618 380.914 38.7695 381.05 39.2432C381.192 39.7168 381.263 40.2393 381.263 40.8105V41.5649H375.14V40.2979H379.52V40.1587C379.51 39.8413 379.446 39.5435 379.329 39.2651C379.217 38.9868 379.043 38.7622 378.809 38.5913C378.575 38.4204 378.262 38.335 377.872 38.335C377.579 38.335 377.317 38.3984 377.088 38.5254C376.863 38.6475 376.675 38.8257 376.524 39.0601C376.373 39.2944 376.255 39.5776 376.172 39.9097C376.094 40.2368 376.055 40.6055 376.055 41.0156V41.3086C376.055 41.6553 376.102 41.9775 376.194 42.2754C376.292 42.5684 376.434 42.8247 376.619 43.0444C376.805 43.2642 377.029 43.4375 377.293 43.5645C377.557 43.6865 377.857 43.7476 378.194 43.7476C378.619 43.7476 378.997 43.6621 379.329 43.4912C379.661 43.3203 379.949 43.0786 380.193 42.7661L381.124 43.667C380.953 43.916 380.73 44.1553 380.457 44.3848C380.184 44.6094 379.849 44.7925 379.454 44.9341C379.063 45.0757 378.609 45.1465 378.091 45.1465ZM387.474 43.3594V33.75H389.246V45H387.642L387.474 43.3594ZM382.317 41.1255V40.9717C382.317 40.3711 382.388 39.8242 382.53 39.3311C382.671 38.833 382.876 38.4058 383.145 38.0493C383.414 37.688 383.741 37.4121 384.126 37.2217C384.512 37.0264 384.947 36.9287 385.43 36.9287C385.909 36.9287 386.329 37.0215 386.69 37.207C387.051 37.3926 387.359 37.6587 387.613 38.0054C387.867 38.3472 388.069 38.7573 388.221 39.2358C388.372 39.7095 388.479 40.2368 388.543 40.8179V41.3086C388.479 41.875 388.372 42.3926 388.221 42.8613C388.069 43.3301 387.867 43.7354 387.613 44.0771C387.359 44.4189 387.049 44.6826 386.683 44.8682C386.321 45.0537 385.899 45.1465 385.416 45.1465C384.937 45.1465 384.505 45.0464 384.119 44.8462C383.738 44.646 383.414 44.3652 383.145 44.0039C382.876 43.6426 382.671 43.2178 382.53 42.7295C382.388 42.2363 382.317 41.7017 382.317 41.1255ZM384.083 40.9717V41.1255C384.083 41.4868 384.114 41.8237 384.178 42.1362C384.246 42.4487 384.351 42.7246 384.493 42.9639C384.634 43.1982 384.817 43.3838 385.042 43.5205C385.271 43.6523 385.545 43.7183 385.862 43.7183C386.263 43.7183 386.592 43.6304 386.851 43.4546C387.11 43.2788 387.312 43.042 387.459 42.7441C387.61 42.4414 387.713 42.1045 387.767 41.7334V40.4077C387.737 40.1196 387.676 39.8511 387.583 39.6021C387.496 39.353 387.376 39.1357 387.225 38.9502C387.073 38.7598 386.885 38.6133 386.661 38.5107C386.441 38.4033 386.18 38.3496 385.877 38.3496C385.555 38.3496 385.281 38.418 385.057 38.5547C384.832 38.6914 384.646 38.8794 384.5 39.1187C384.358 39.3579 384.253 39.6362 384.185 39.9536C384.117 40.271 384.083 40.6104 384.083 40.9717Z" fill="#737373"/>
<path d="M460.922 34.3359V45H459.084V34.3359H460.922ZM465.273 39.0015V40.459H460.454V39.0015H465.273ZM465.881 34.3359V35.8008H460.454V34.3359H465.881ZM466.672 41.1255V40.957C466.672 40.3857 466.755 39.856 466.921 39.3677C467.087 38.8745 467.326 38.4473 467.639 38.0859C467.956 37.7197 468.342 37.4365 468.796 37.2363C469.255 37.0312 469.772 36.9287 470.349 36.9287C470.93 36.9287 471.447 37.0312 471.901 37.2363C472.36 37.4365 472.749 37.7197 473.066 38.0859C473.383 38.4473 473.625 38.8745 473.791 39.3677C473.957 39.856 474.04 40.3857 474.04 40.957V41.1255C474.04 41.6968 473.957 42.2266 473.791 42.7148C473.625 43.2031 473.383 43.6304 473.066 43.9966C472.749 44.3579 472.363 44.6411 471.909 44.8462C471.455 45.0464 470.939 45.1465 470.363 45.1465C469.782 45.1465 469.262 45.0464 468.803 44.8462C468.349 44.6411 467.963 44.3579 467.646 43.9966C467.329 43.6304 467.087 43.2031 466.921 42.7148C466.755 42.2266 466.672 41.6968 466.672 41.1255ZM468.437 40.957V41.1255C468.437 41.4819 468.474 41.8188 468.547 42.1362C468.62 42.4536 468.735 42.7319 468.891 42.9712C469.047 43.2104 469.248 43.3984 469.492 43.5352C469.736 43.6719 470.026 43.7402 470.363 43.7402C470.69 43.7402 470.974 43.6719 471.213 43.5352C471.457 43.3984 471.657 43.2104 471.813 42.9712C471.97 42.7319 472.084 42.4536 472.158 42.1362C472.236 41.8188 472.275 41.4819 472.275 41.1255V40.957C472.275 40.6055 472.236 40.2734 472.158 39.9609C472.084 39.6436 471.967 39.3628 471.806 39.1187C471.65 38.8745 471.45 38.6841 471.206 38.5474C470.966 38.4058 470.681 38.335 470.349 38.335C470.017 38.335 469.729 38.4058 469.484 38.5474C469.245 38.6841 469.047 38.8745 468.891 39.1187C468.735 39.3628 468.62 39.6436 468.547 39.9609C468.474 40.2734 468.437 40.6055 468.437 40.957ZM478.757 43.7402C479.045 43.7402 479.304 43.6841 479.533 43.5718C479.768 43.4546 479.956 43.2935 480.097 43.0884C480.244 42.8833 480.324 42.6465 480.339 42.3779H482.001C481.992 42.8906 481.84 43.3569 481.547 43.7769C481.254 44.1968 480.866 44.5312 480.383 44.7803C479.899 45.0244 479.365 45.1465 478.779 45.1465C478.173 45.1465 477.646 45.0439 477.197 44.8389C476.748 44.6289 476.374 44.3408 476.076 43.9746C475.778 43.6084 475.554 43.186 475.402 42.7075C475.256 42.229 475.183 41.7163 475.183 41.1694V40.9131C475.183 40.3662 475.256 39.8535 475.402 39.375C475.554 38.8916 475.778 38.4668 476.076 38.1006C476.374 37.7344 476.748 37.4487 477.197 37.2437C477.646 37.0337 478.171 36.9287 478.771 36.9287C479.406 36.9287 479.963 37.0557 480.441 37.3096C480.92 37.5586 481.296 37.9077 481.569 38.3569C481.848 38.8013 481.992 39.3188 482.001 39.9097H480.339C480.324 39.6167 480.251 39.353 480.119 39.1187C479.992 38.8794 479.812 38.689 479.577 38.5474C479.348 38.4058 479.072 38.335 478.75 38.335C478.393 38.335 478.098 38.4082 477.863 38.5547C477.629 38.6963 477.446 38.8916 477.314 39.1406C477.182 39.3848 477.087 39.6606 477.028 39.9683C476.975 40.271 476.948 40.5859 476.948 40.9131V41.1694C476.948 41.4966 476.975 41.814 477.028 42.1216C477.082 42.4292 477.175 42.7051 477.307 42.9492C477.443 43.1885 477.629 43.3813 477.863 43.5278C478.098 43.6694 478.396 43.7402 478.757 43.7402ZM488.125 43.1323V37.0752H489.897V45H488.227L488.125 43.1323ZM488.374 41.4844L488.967 41.4697C488.967 42.002 488.908 42.4927 488.791 42.9419C488.674 43.3862 488.493 43.7744 488.249 44.1064C488.005 44.4336 487.692 44.6899 487.312 44.8755C486.931 45.0562 486.474 45.1465 485.942 45.1465C485.556 45.1465 485.202 45.0903 484.88 44.978C484.558 44.8657 484.279 44.6924 484.045 44.458C483.815 44.2236 483.637 43.9185 483.51 43.5425C483.383 43.1665 483.32 42.7173 483.32 42.1948V37.0752H485.085V42.2095C485.085 42.4976 485.119 42.7393 485.188 42.9346C485.256 43.125 485.349 43.2788 485.466 43.396C485.583 43.5132 485.72 43.5962 485.876 43.645C486.032 43.6938 486.198 43.7183 486.374 43.7183C486.877 43.7183 487.272 43.6206 487.561 43.4253C487.854 43.2251 488.061 42.9565 488.183 42.6196C488.31 42.2827 488.374 41.9043 488.374 41.4844ZM496.152 42.854C496.152 42.6782 496.108 42.5195 496.02 42.3779C495.932 42.2314 495.764 42.0996 495.515 41.9824C495.271 41.8652 494.909 41.7578 494.431 41.6602C494.011 41.5674 493.625 41.4575 493.273 41.3306C492.927 41.1987 492.629 41.04 492.38 40.8545C492.131 40.6689 491.938 40.4492 491.801 40.1953C491.665 39.9414 491.596 39.6484 491.596 39.3164C491.596 38.9941 491.667 38.689 491.809 38.4009C491.95 38.1128 492.153 37.8589 492.417 37.6392C492.68 37.4194 493 37.2461 493.376 37.1191C493.757 36.9922 494.182 36.9287 494.65 36.9287C495.314 36.9287 495.883 37.041 496.357 37.2656C496.835 37.4854 497.202 37.7856 497.456 38.1665C497.709 38.5425 497.836 38.9673 497.836 39.4409H496.071C496.071 39.231 496.018 39.0356 495.91 38.855C495.808 38.6694 495.651 38.5205 495.441 38.4082C495.231 38.291 494.968 38.2324 494.65 38.2324C494.348 38.2324 494.096 38.2812 493.896 38.3789C493.701 38.4717 493.554 38.5938 493.457 38.7451C493.364 38.8965 493.317 39.0625 493.317 39.2432C493.317 39.375 493.342 39.4946 493.391 39.6021C493.444 39.7046 493.532 39.7998 493.654 39.8877C493.776 39.9707 493.942 40.0488 494.152 40.1221C494.367 40.1953 494.636 40.2661 494.958 40.3345C495.563 40.4614 496.083 40.625 496.518 40.8252C496.958 41.0205 497.294 41.2744 497.529 41.5869C497.763 41.8945 497.88 42.2852 497.88 42.7588C497.88 43.1104 497.805 43.4326 497.653 43.7256C497.507 44.0137 497.292 44.2651 497.009 44.48C496.726 44.6899 496.386 44.8535 495.991 44.9707C495.6 45.0879 495.161 45.1465 494.672 45.1465C493.955 45.1465 493.347 45.0195 492.849 44.7656C492.351 44.5068 491.972 44.1772 491.713 43.7769C491.459 43.3716 491.333 42.9517 491.333 42.5171H493.039C493.059 42.8442 493.149 43.1055 493.31 43.3008C493.476 43.4912 493.681 43.6304 493.925 43.7183C494.174 43.8013 494.431 43.8428 494.694 43.8428C495.012 43.8428 495.278 43.8013 495.493 43.7183C495.708 43.6304 495.871 43.5132 495.983 43.3667C496.096 43.2153 496.152 43.0444 496.152 42.854ZM502.919 45.1465C502.333 45.1465 501.804 45.0513 501.33 44.8608C500.861 44.6655 500.461 44.3945 500.129 44.0479C499.802 43.7012 499.55 43.2935 499.375 42.8247C499.199 42.356 499.111 41.8506 499.111 41.3086V41.0156C499.111 40.3955 499.201 39.834 499.382 39.3311C499.562 38.8281 499.814 38.3984 500.136 38.042C500.458 37.6807 500.839 37.4048 501.279 37.2144C501.718 37.0239 502.194 36.9287 502.707 36.9287C503.273 36.9287 503.769 37.0239 504.194 37.2144C504.619 37.4048 504.97 37.6733 505.249 38.02C505.532 38.3618 505.742 38.7695 505.878 39.2432C506.02 39.7168 506.091 40.2393 506.091 40.8105V41.5649H499.968V40.2979H504.348V40.1587C504.338 39.8413 504.274 39.5435 504.157 39.2651C504.045 38.9868 503.872 38.7622 503.637 38.5913C503.403 38.4204 503.09 38.335 502.7 38.335C502.407 38.335 502.146 38.3984 501.916 38.5254C501.691 38.6475 501.503 38.8257 501.352 39.0601C501.201 39.2944 501.083 39.5776 501 39.9097C500.922 40.2368 500.883 40.6055 500.883 41.0156V41.3086C500.883 41.6553 500.93 41.9775 501.022 42.2754C501.12 42.5684 501.262 42.8247 501.447 43.0444C501.633 43.2642 501.857 43.4375 502.121 43.5645C502.385 43.6865 502.685 43.7476 503.022 43.7476C503.447 43.7476 503.825 43.6621 504.157 43.4912C504.489 43.3203 504.777 43.0786 505.021 42.7661L505.952 43.667C505.781 43.916 505.559 44.1553 505.285 44.3848C505.012 44.6094 504.677 44.7925 504.282 44.9341C503.891 45.0757 503.437 45.1465 502.919 45.1465ZM512.302 43.3594V33.75H514.074V45H512.47L512.302 43.3594ZM507.146 41.1255V40.9717C507.146 40.3711 507.216 39.8242 507.358 39.3311C507.5 38.833 507.705 38.4058 507.973 38.0493C508.242 37.688 508.569 37.4121 508.955 37.2217C509.34 37.0264 509.775 36.9287 510.258 36.9287C510.737 36.9287 511.157 37.0215 511.518 37.207C511.879 37.3926 512.187 37.6587 512.441 38.0054C512.695 38.3472 512.897 38.7573 513.049 39.2358C513.2 39.7095 513.308 40.2368 513.371 40.8179V41.3086C513.308 41.875 513.2 42.3926 513.049 42.8613C512.897 43.3301 512.695 43.7354 512.441 44.0771C512.187 44.4189 511.877 44.6826 511.511 44.8682C511.149 45.0537 510.727 45.1465 510.244 45.1465C509.765 45.1465 509.333 45.0464 508.947 44.8462C508.566 44.646 508.242 44.3652 507.973 44.0039C507.705 43.6426 507.5 43.2178 507.358 42.7295C507.216 42.2363 507.146 41.7017 507.146 41.1255ZM508.911 40.9717V41.1255C508.911 41.4868 508.942 41.8237 509.006 42.1362C509.074 42.4487 509.179 42.7246 509.321 42.9639C509.462 43.1982 509.646 43.3838 509.87 43.5205C510.1 43.6523 510.373 43.7183 510.69 43.7183C511.091 43.7183 511.42 43.6304 511.679 43.4546C511.938 43.2788 512.141 43.042 512.287 42.7441C512.438 42.4414 512.541 42.1045 512.595 41.7334V40.4077C512.565 40.1196 512.504 39.8511 512.412 39.6021C512.324 39.353 512.204 39.1357 512.053 38.9502C511.901 38.7598 511.713 38.6133 511.489 38.5107C511.269 38.4033 511.008 38.3496 510.705 38.3496C510.383 38.3496 510.109 38.418 509.885 38.5547C509.66 38.6914 509.475 38.8794 509.328 39.1187C509.187 39.3579 509.082 39.6362 509.013 39.9536C508.945 40.271 508.911 40.6104 508.911 40.9717Z" fill="#737373"/>
<path d="M589.134 41.0229H586.358V39.5654H589.134C589.618 39.5654 590.008 39.4873 590.306 39.3311C590.604 39.1748 590.821 38.96 590.958 38.6865C591.1 38.4082 591.17 38.0908 591.17 37.7344C591.17 37.3975 591.1 37.0825 590.958 36.7896C590.821 36.4917 590.604 36.2524 590.306 36.0718C590.008 35.8911 589.618 35.8008 589.134 35.8008H586.922V45H585.084V34.3359H589.134C589.959 34.3359 590.66 34.4824 591.236 34.7754C591.817 35.0635 592.259 35.4639 592.562 35.9766C592.865 36.4844 593.016 37.0654 593.016 37.7197C593.016 38.4082 592.865 38.999 592.562 39.4922C592.259 39.9854 591.817 40.3638 591.236 40.6274C590.66 40.8911 589.959 41.0229 589.134 41.0229ZM596.261 38.584V45H594.496V37.0752H596.18L596.261 38.584ZM598.685 37.0239L598.67 38.6646C598.563 38.645 598.446 38.6304 598.319 38.6206C598.197 38.6108 598.075 38.606 597.953 38.606C597.65 38.606 597.384 38.6499 597.154 38.7378C596.925 38.8208 596.732 38.9429 596.576 39.104C596.424 39.2603 596.307 39.4507 596.224 39.6753C596.141 39.8999 596.092 40.1514 596.078 40.4297L595.675 40.459C595.675 39.9609 595.724 39.4995 595.821 39.0747C595.919 38.6499 596.065 38.2764 596.261 37.9541C596.461 37.6318 596.71 37.3804 597.008 37.1997C597.311 37.019 597.66 36.9287 598.055 36.9287C598.163 36.9287 598.277 36.9385 598.399 36.958C598.526 36.9775 598.622 36.9995 598.685 37.0239ZM599.264 41.1255V40.957C599.264 40.3857 599.347 39.856 599.513 39.3677C599.679 38.8745 599.918 38.4473 600.23 38.0859C600.548 37.7197 600.934 37.4365 601.388 37.2363C601.847 37.0312 602.364 36.9287 602.94 36.9287C603.521 36.9287 604.039 37.0312 604.493 37.2363C604.952 37.4365 605.34 37.7197 605.658 38.0859C605.975 38.4473 606.217 38.8745 606.383 39.3677C606.549 39.856 606.632 40.3857 606.632 40.957V41.1255C606.632 41.6968 606.549 42.2266 606.383 42.7148C606.217 43.2031 605.975 43.6304 605.658 43.9966C605.34 44.3579 604.955 44.6411 604.5 44.8462C604.046 45.0464 603.531 45.1465 602.955 45.1465C602.374 45.1465 601.854 45.0464 601.395 44.8462C600.941 44.6411 600.555 44.3579 600.238 43.9966C599.92 43.6304 599.679 43.2031 599.513 42.7148C599.347 42.2266 599.264 41.6968 599.264 41.1255ZM601.029 40.957V41.1255C601.029 41.4819 601.065 41.8188 601.139 42.1362C601.212 42.4536 601.327 42.7319 601.483 42.9712C601.639 43.2104 601.839 43.3984 602.083 43.5352C602.328 43.6719 602.618 43.7402 602.955 43.7402C603.282 43.7402 603.565 43.6719 603.805 43.5352C604.049 43.3984 604.249 43.2104 604.405 42.9712C604.562 42.7319 604.676 42.4536 604.75 42.1362C604.828 41.8188 604.867 41.4819 604.867 41.1255V40.957C604.867 40.6055 604.828 40.2734 604.75 39.9609C604.676 39.6436 604.559 39.3628 604.398 39.1187C604.242 38.8745 604.042 38.6841 603.797 38.5474C603.558 38.4058 603.272 38.335 602.94 38.335C602.608 38.335 602.32 38.4058 602.076 38.5474C601.837 38.6841 601.639 38.8745 601.483 39.1187C601.327 39.3628 601.212 39.6436 601.139 39.9609C601.065 40.2734 601.029 40.6055 601.029 40.957ZM611.349 43.7402C611.637 43.7402 611.896 43.6841 612.125 43.5718C612.359 43.4546 612.547 43.2935 612.689 43.0884C612.835 42.8833 612.916 42.6465 612.931 42.3779H614.593C614.583 42.8906 614.432 43.3569 614.139 43.7769C613.846 44.1968 613.458 44.5312 612.975 44.7803C612.491 45.0244 611.957 45.1465 611.371 45.1465C610.765 45.1465 610.238 45.0439 609.789 44.8389C609.339 44.6289 608.966 44.3408 608.668 43.9746C608.37 43.6084 608.146 43.186 607.994 42.7075C607.848 42.229 607.774 41.7163 607.774 41.1694V40.9131C607.774 40.3662 607.848 39.8535 607.994 39.375C608.146 38.8916 608.37 38.4668 608.668 38.1006C608.966 37.7344 609.339 37.4487 609.789 37.2437C610.238 37.0337 610.763 36.9287 611.363 36.9287C611.998 36.9287 612.555 37.0557 613.033 37.3096C613.512 37.5586 613.888 37.9077 614.161 38.3569C614.439 38.8013 614.583 39.3188 614.593 39.9097H612.931C612.916 39.6167 612.843 39.353 612.711 39.1187C612.584 38.8794 612.403 38.689 612.169 38.5474C611.939 38.4058 611.664 38.335 611.341 38.335C610.985 38.335 610.689 38.4082 610.455 38.5547C610.221 38.6963 610.038 38.8916 609.906 39.1406C609.774 39.3848 609.679 39.6606 609.62 39.9683C609.566 40.271 609.54 40.5859 609.54 40.9131V41.1694C609.54 41.4966 609.566 41.814 609.62 42.1216C609.674 42.4292 609.767 42.7051 609.898 42.9492C610.035 43.1885 610.221 43.3813 610.455 43.5278C610.689 43.6694 610.987 43.7402 611.349 43.7402ZM619.442 45.1465C618.856 45.1465 618.326 45.0513 617.853 44.8608C617.384 44.6655 616.983 44.3945 616.651 44.0479C616.324 43.7012 616.073 43.2935 615.897 42.8247C615.721 42.356 615.633 41.8506 615.633 41.3086V41.0156C615.633 40.3955 615.724 39.834 615.904 39.3311C616.085 38.8281 616.336 38.3984 616.659 38.042C616.981 37.6807 617.362 37.4048 617.801 37.2144C618.241 37.0239 618.717 36.9287 619.229 36.9287C619.796 36.9287 620.292 37.0239 620.716 37.2144C621.141 37.4048 621.493 37.6733 621.771 38.02C622.054 38.3618 622.264 38.7695 622.401 39.2432C622.542 39.7168 622.613 40.2393 622.613 40.8105V41.5649H616.49V40.2979H620.87V40.1587C620.86 39.8413 620.797 39.5435 620.68 39.2651C620.567 38.9868 620.394 38.7622 620.16 38.5913C619.925 38.4204 619.613 38.335 619.222 38.335C618.929 38.335 618.668 38.3984 618.438 38.5254C618.214 38.6475 618.026 38.8257 617.875 39.0601C617.723 39.2944 617.606 39.5776 617.523 39.9097C617.445 40.2368 617.406 40.6055 617.406 41.0156V41.3086C617.406 41.6553 617.452 41.9775 617.545 42.2754C617.643 42.5684 617.784 42.8247 617.97 43.0444C618.155 43.2642 618.38 43.4375 618.644 43.5645C618.907 43.6865 619.208 43.7476 619.544 43.7476C619.969 43.7476 620.348 43.6621 620.68 43.4912C621.012 43.3203 621.3 43.0786 621.544 42.7661L622.474 43.667C622.303 43.916 622.081 44.1553 621.808 44.3848C621.534 44.6094 621.2 44.7925 620.804 44.9341C620.414 45.0757 619.959 45.1465 619.442 45.1465ZM628.436 42.854C628.436 42.6782 628.392 42.5195 628.304 42.3779C628.216 42.2314 628.048 42.0996 627.799 41.9824C627.555 41.8652 627.193 41.7578 626.715 41.6602C626.295 41.5674 625.909 41.4575 625.558 41.3306C625.211 41.1987 624.913 41.04 624.664 40.8545C624.415 40.6689 624.222 40.4492 624.085 40.1953C623.949 39.9414 623.88 39.6484 623.88 39.3164C623.88 38.9941 623.951 38.689 624.093 38.4009C624.234 38.1128 624.437 37.8589 624.701 37.6392C624.964 37.4194 625.284 37.2461 625.66 37.1191C626.041 36.9922 626.466 36.9287 626.935 36.9287C627.599 36.9287 628.167 37.041 628.641 37.2656C629.12 37.4854 629.486 37.7856 629.74 38.1665C629.994 38.5425 630.121 38.9673 630.121 39.4409H628.355C628.355 39.231 628.302 39.0356 628.194 38.855C628.092 38.6694 627.936 38.5205 627.726 38.4082C627.516 38.291 627.252 38.2324 626.935 38.2324C626.632 38.2324 626.38 38.2812 626.18 38.3789C625.985 38.4717 625.838 38.5938 625.741 38.7451C625.648 38.8965 625.602 39.0625 625.602 39.2432C625.602 39.375 625.626 39.4946 625.675 39.6021C625.729 39.7046 625.816 39.7998 625.938 39.8877C626.061 39.9707 626.227 40.0488 626.437 40.1221C626.651 40.1953 626.92 40.2661 627.242 40.3345C627.848 40.4614 628.368 40.625 628.802 40.8252C629.242 41.0205 629.579 41.2744 629.813 41.5869C630.047 41.8945 630.165 42.2852 630.165 42.7588C630.165 43.1104 630.089 43.4326 629.938 43.7256C629.791 44.0137 629.576 44.2651 629.293 44.48C629.01 44.6899 628.67 44.8535 628.275 44.9707C627.884 45.0879 627.445 45.1465 626.957 45.1465C626.239 45.1465 625.631 45.0195 625.133 44.7656C624.635 44.5068 624.256 44.1772 623.998 43.7769C623.744 43.3716 623.617 42.9517 623.617 42.5171H625.323C625.343 42.8442 625.433 43.1055 625.594 43.3008C625.76 43.4912 625.965 43.6304 626.209 43.7183C626.458 43.8013 626.715 43.8428 626.979 43.8428C627.296 43.8428 627.562 43.8013 627.777 43.7183C627.992 43.6304 628.155 43.5132 628.268 43.3667C628.38 43.2153 628.436 43.0444 628.436 42.854ZM636.156 42.854C636.156 42.6782 636.112 42.5195 636.024 42.3779C635.936 42.2314 635.768 42.0996 635.519 41.9824C635.274 41.8652 634.913 41.7578 634.435 41.6602C634.015 41.5674 633.629 41.4575 633.277 41.3306C632.931 41.1987 632.633 41.04 632.384 40.8545C632.135 40.6689 631.942 40.4492 631.805 40.1953C631.668 39.9414 631.6 39.6484 631.6 39.3164C631.6 38.9941 631.671 38.689 631.812 38.4009C631.954 38.1128 632.157 37.8589 632.42 37.6392C632.684 37.4194 633.004 37.2461 633.38 37.1191C633.761 36.9922 634.186 36.9287 634.654 36.9287C635.318 36.9287 635.887 37.041 636.361 37.2656C636.839 37.4854 637.206 37.7856 637.459 38.1665C637.713 38.5425 637.84 38.9673 637.84 39.4409H636.075C636.075 39.231 636.021 39.0356 635.914 38.855C635.812 38.6694 635.655 38.5205 635.445 38.4082C635.235 38.291 634.972 38.2324 634.654 38.2324C634.352 38.2324 634.1 38.2812 633.9 38.3789C633.705 38.4717 633.558 38.5938 633.46 38.7451C633.368 38.8965 633.321 39.0625 633.321 39.2432C633.321 39.375 633.346 39.4946 633.395 39.6021C633.448 39.7046 633.536 39.7998 633.658 39.8877C633.78 39.9707 633.946 40.0488 634.156 40.1221C634.371 40.1953 634.64 40.2661 634.962 40.3345C635.567 40.4614 636.087 40.625 636.522 40.8252C636.961 41.0205 637.298 41.2744 637.533 41.5869C637.767 41.8945 637.884 42.2852 637.884 42.7588C637.884 43.1104 637.809 43.4326 637.657 43.7256C637.511 44.0137 637.296 44.2651 637.013 44.48C636.729 44.6899 636.39 44.8535 635.995 44.9707C635.604 45.0879 635.165 45.1465 634.676 45.1465C633.958 45.1465 633.351 45.0195 632.853 44.7656C632.354 44.5068 631.976 44.1772 631.717 43.7769C631.463 43.3716 631.336 42.9517 631.336 42.5171H633.043C633.062 42.8442 633.153 43.1055 633.314 43.3008C633.48 43.4912 633.685 43.6304 633.929 43.7183C634.178 43.8013 634.435 43.8428 634.698 43.8428C635.016 43.8428 635.282 43.8013 635.497 43.7183C635.711 43.6304 635.875 43.5132 635.987 43.3667C636.1 43.2153 636.156 43.0444 636.156 42.854ZM641.319 37.0752V45H639.547V37.0752H641.319ZM639.43 34.9951C639.43 34.7266 639.518 34.5044 639.693 34.3286C639.874 34.1479 640.123 34.0576 640.44 34.0576C640.753 34.0576 641 34.1479 641.18 34.3286C641.361 34.5044 641.451 34.7266 641.451 34.9951C641.451 35.2588 641.361 35.4785 641.18 35.6543C641 35.8301 640.753 35.918 640.44 35.918C640.123 35.918 639.874 35.8301 639.693 35.6543C639.518 35.4785 639.43 35.2588 639.43 34.9951ZM645.003 38.7671V45H643.238V37.0752H644.901L645.003 38.7671ZM644.688 40.7446L644.117 40.7373C644.122 40.1758 644.2 39.6606 644.352 39.1919C644.508 38.7231 644.723 38.3203 644.996 37.9834C645.274 37.6465 645.606 37.3877 645.992 37.207C646.378 37.0215 646.808 36.9287 647.281 36.9287C647.662 36.9287 648.006 36.9824 648.314 37.0898C648.626 37.1924 648.893 37.3608 649.112 37.5952C649.337 37.8296 649.508 38.1348 649.625 38.5107C649.742 38.8818 649.801 39.3384 649.801 39.8804V45H648.028V39.873C648.028 39.4922 647.972 39.1919 647.86 38.9722C647.752 38.7476 647.594 38.5889 647.384 38.4961C647.179 38.3984 646.922 38.3496 646.615 38.3496C646.312 38.3496 646.041 38.4131 645.802 38.54C645.562 38.667 645.36 38.8403 645.194 39.0601C645.033 39.2798 644.908 39.5337 644.82 39.8218C644.732 40.1099 644.688 40.4175 644.688 40.7446ZM656.678 37.0752H658.282V44.7803C658.282 45.4932 658.131 46.0986 657.828 46.5967C657.525 47.0947 657.103 47.4731 656.561 47.7319C656.019 47.9956 655.392 48.1274 654.679 48.1274C654.376 48.1274 654.039 48.0835 653.668 47.9956C653.302 47.9077 652.945 47.7661 652.599 47.5708C652.257 47.3804 651.971 47.1289 651.742 46.8164L652.569 45.7764C652.853 46.1133 653.165 46.3599 653.507 46.5161C653.849 46.6724 654.208 46.7505 654.583 46.7505C654.989 46.7505 655.333 46.6748 655.616 46.5234C655.904 46.377 656.126 46.1597 656.283 45.8716C656.439 45.5835 656.517 45.2319 656.517 44.8169V38.8696L656.678 37.0752ZM651.295 41.1255V40.9717C651.295 40.3711 651.368 39.8242 651.515 39.3311C651.661 38.833 651.871 38.4058 652.145 38.0493C652.418 37.688 652.75 37.4121 653.141 37.2217C653.531 37.0264 653.973 36.9287 654.466 36.9287C654.979 36.9287 655.416 37.0215 655.777 37.207C656.144 37.3926 656.449 37.6587 656.693 38.0054C656.937 38.3472 657.127 38.7573 657.264 39.2358C657.406 39.7095 657.511 40.2368 657.579 40.8179V41.3086C657.516 41.875 657.408 42.3926 657.257 42.8613C657.105 43.3301 656.905 43.7354 656.656 44.0771C656.407 44.4189 656.1 44.6826 655.733 44.8682C655.372 45.0537 654.945 45.1465 654.452 45.1465C653.968 45.1465 653.531 45.0464 653.141 44.8462C652.755 44.646 652.423 44.3652 652.145 44.0039C651.871 43.6426 651.661 43.2178 651.515 42.7295C651.368 42.2363 651.295 41.7017 651.295 41.1255ZM653.06 40.9717V41.1255C653.06 41.4868 653.094 41.8237 653.163 42.1362C653.236 42.4487 653.346 42.7246 653.492 42.9639C653.644 43.1982 653.834 43.3838 654.063 43.5205C654.298 43.6523 654.574 43.7183 654.891 43.7183C655.306 43.7183 655.646 43.6304 655.909 43.4546C656.178 43.2788 656.383 43.042 656.524 42.7441C656.671 42.4414 656.773 42.1045 656.832 41.7334V40.4077C656.803 40.1196 656.742 39.8511 656.649 39.6021C656.561 39.353 656.441 39.1357 656.29 38.9502C656.139 38.7598 655.948 38.6133 655.719 38.5107C655.489 38.4033 655.218 38.3496 654.906 38.3496C654.588 38.3496 654.312 38.418 654.078 38.5547C653.844 38.6914 653.651 38.8794 653.5 39.1187C653.353 39.3579 653.243 39.6362 653.17 39.9536C653.097 40.271 653.06 40.6104 653.06 40.9717Z" fill="#737373"/>
<defs>
<filter id="filter0_d_859_23893" x="454" y="64" width="85" height="48" filterUnits="userSpaceOnUse" color-interpolation-filters="sRGB">
<feFlood flood-opacity="0" result="BackgroundImageFix"/>
<feColorMatrix in="SourceAlpha" type="matrix" values="0 0 0 0 0 0 0 0 0 0 0 0 0 0 0 0 0 0 127 0" result="hardAlpha"/>
<feMorphology radius="2" operator="dilate" in="SourceAlpha" result="effect1_dropShadow_859_23893"/>
<feOffset/>
<feColorMatrix type="matrix" values="0 0 0 0 0.156863 0 0 0 0 0.431373 0 0 0 0 0.945098 0 0 0 1 0"/>
<feBlend mode="normal" in2="BackgroundImageFix" result="effect1_dropShadow_859_23893"/>
<feBlend mode="normal" in="SourceGraphic" in2="effect1_dropShadow_859_23893" result="shape"/>
</filter>
</defs>
</svg>
