<svg width="800" height="143" viewBox="0 0 800 143" fill="none" xmlns="http://www.w3.org/2000/svg">
<rect width="800" height="143" rx="4" fill="#F8F8F8"/>
<rect x="298" y="68" width="77" height="40" rx="4" fill="#286EF1"/>
<path d="M319.083 88.1807H316.366L316.351 86.8403H318.724C319.125 86.8403 319.464 86.7817 319.742 86.6646C320.025 86.5425 320.24 86.3691 320.387 86.1445C320.533 85.915 320.606 85.6392 320.606 85.3169C320.606 84.9604 320.538 84.6699 320.401 84.4453C320.265 84.2207 320.055 84.0571 319.771 83.9546C319.493 83.8521 319.137 83.8008 318.702 83.8008H316.922V93H315.084V82.3359H318.702C319.288 82.3359 319.811 82.3921 320.27 82.5044C320.733 82.6167 321.126 82.7925 321.449 83.0317C321.776 83.2661 322.022 83.564 322.188 83.9253C322.359 84.2866 322.445 84.7163 322.445 85.2144C322.445 85.6538 322.34 86.0566 322.13 86.4229C321.92 86.7842 321.61 87.0796 321.2 87.3091C320.79 87.5386 320.279 87.6753 319.669 87.7192L319.083 88.1807ZM319.002 93H315.787L316.615 91.5425H319.002C319.417 91.5425 319.764 91.4741 320.042 91.3374C320.321 91.1958 320.528 91.0029 320.665 90.7588C320.807 90.5098 320.877 90.2192 320.877 89.8872C320.877 89.5405 320.816 89.2402 320.694 88.9863C320.572 88.7275 320.379 88.5298 320.116 88.3931C319.852 88.2515 319.508 88.1807 319.083 88.1807H317.018L317.032 86.8403H319.72L320.138 87.3457C320.724 87.3652 321.205 87.4946 321.581 87.7339C321.961 87.9731 322.245 88.2832 322.43 88.6641C322.616 89.0449 322.708 89.4551 322.708 89.8945C322.708 90.5732 322.56 91.1421 322.262 91.6011C321.969 92.0601 321.546 92.4092 320.995 92.6484C320.443 92.8828 319.779 93 319.002 93ZM329.154 91.1323V85.0752H330.926V93H329.256L329.154 91.1323ZM329.403 89.4844L329.996 89.4697C329.996 90.002 329.938 90.4927 329.82 90.9419C329.703 91.3862 329.522 91.7744 329.278 92.1064C329.034 92.4336 328.722 92.6899 328.341 92.8755C327.96 93.0562 327.503 93.1465 326.971 93.1465C326.585 93.1465 326.231 93.0903 325.909 92.978C325.587 92.8657 325.309 92.6924 325.074 92.458C324.845 92.2236 324.667 91.9185 324.54 91.5425C324.413 91.1665 324.349 90.7173 324.349 90.1948V85.0752H326.114V90.2095C326.114 90.4976 326.148 90.7393 326.217 90.9346C326.285 91.125 326.378 91.2788 326.495 91.396C326.612 91.5132 326.749 91.5962 326.905 91.645C327.062 91.6938 327.228 91.7183 327.403 91.7183C327.906 91.7183 328.302 91.6206 328.59 91.4253C328.883 91.2251 329.09 90.9565 329.212 90.6196C329.339 90.2827 329.403 89.9043 329.403 89.4844ZM336.368 85.0752V86.3643H331.9V85.0752H336.368ZM333.189 83.1343H334.955V90.8101C334.955 91.0542 334.989 91.2422 335.057 91.374C335.13 91.501 335.23 91.5864 335.357 91.6304C335.484 91.6743 335.633 91.6963 335.804 91.6963C335.926 91.6963 336.043 91.689 336.156 91.6743C336.268 91.6597 336.358 91.645 336.427 91.6304L336.434 92.978C336.288 93.022 336.117 93.061 335.921 93.0952C335.731 93.1294 335.511 93.1465 335.262 93.1465C334.857 93.1465 334.498 93.0757 334.186 92.9341C333.873 92.7876 333.629 92.5508 333.453 92.2236C333.277 91.8965 333.189 91.4619 333.189 90.9199V83.1343ZM341.363 85.0752V86.3643H336.896V85.0752H341.363ZM338.185 83.1343H339.95V90.8101C339.95 91.0542 339.984 91.2422 340.052 91.374C340.125 91.501 340.226 91.5864 340.353 91.6304C340.479 91.6743 340.628 91.6963 340.799 91.6963C340.921 91.6963 341.039 91.689 341.151 91.6743C341.263 91.6597 341.354 91.645 341.422 91.6304L341.429 92.978C341.283 93.022 341.112 93.061 340.917 93.0952C340.726 93.1294 340.506 93.1465 340.257 93.1465C339.852 93.1465 339.493 93.0757 339.181 92.9341C338.868 92.7876 338.624 92.5508 338.448 92.2236C338.272 91.8965 338.185 91.4619 338.185 90.9199V83.1343ZM342.213 89.1255V88.957C342.213 88.3857 342.296 87.856 342.462 87.3677C342.628 86.8745 342.867 86.4473 343.18 86.0859C343.497 85.7197 343.883 85.4365 344.337 85.2363C344.796 85.0312 345.313 84.9287 345.89 84.9287C346.471 84.9287 346.988 85.0312 347.442 85.2363C347.901 85.4365 348.29 85.7197 348.607 86.0859C348.924 86.4473 349.166 86.8745 349.332 87.3677C349.498 87.856 349.581 88.3857 349.581 88.957V89.1255C349.581 89.6968 349.498 90.2266 349.332 90.7148C349.166 91.2031 348.924 91.6304 348.607 91.9966C348.29 92.3579 347.904 92.6411 347.45 92.8462C346.996 93.0464 346.48 93.1465 345.904 93.1465C345.323 93.1465 344.803 93.0464 344.344 92.8462C343.89 92.6411 343.504 92.3579 343.187 91.9966C342.87 91.6304 342.628 91.2031 342.462 90.7148C342.296 90.2266 342.213 89.6968 342.213 89.1255ZM343.978 88.957V89.1255C343.978 89.4819 344.015 89.8188 344.088 90.1362C344.161 90.4536 344.276 90.7319 344.432 90.9712C344.588 91.2104 344.789 91.3984 345.033 91.5352C345.277 91.6719 345.567 91.7402 345.904 91.7402C346.231 91.7402 346.515 91.6719 346.754 91.5352C346.998 91.3984 347.198 91.2104 347.354 90.9712C347.511 90.7319 347.625 90.4536 347.699 90.1362C347.777 89.8188 347.816 89.4819 347.816 89.1255V88.957C347.816 88.6055 347.777 88.2734 347.699 87.9609C347.625 87.6436 347.508 87.3628 347.347 87.1187C347.191 86.8745 346.991 86.6841 346.747 86.5474C346.507 86.4058 346.222 86.335 345.89 86.335C345.558 86.335 345.27 86.4058 345.025 86.5474C344.786 86.6841 344.588 86.8745 344.432 87.1187C344.276 87.3628 344.161 87.6436 344.088 87.9609C344.015 88.2734 343.978 88.6055 343.978 88.957ZM352.811 86.7671V93H351.046V85.0752H352.708L352.811 86.7671ZM352.496 88.7446L351.925 88.7373C351.93 88.1758 352.008 87.6606 352.159 87.1919C352.315 86.7231 352.53 86.3203 352.804 85.9834C353.082 85.6465 353.414 85.3877 353.8 85.207C354.186 85.0215 354.615 84.9287 355.089 84.9287C355.47 84.9287 355.814 84.9824 356.122 85.0898C356.434 85.1924 356.7 85.3608 356.92 85.5952C357.145 85.8296 357.315 86.1348 357.433 86.5107C357.55 86.8818 357.608 87.3384 357.608 87.8804V93H355.836V87.873C355.836 87.4922 355.78 87.1919 355.667 86.9722C355.56 86.7476 355.401 86.5889 355.191 86.4961C354.986 86.3984 354.73 86.3496 354.422 86.3496C354.12 86.3496 353.849 86.4131 353.609 86.54C353.37 86.667 353.167 86.8403 353.001 87.0601C352.84 87.2798 352.716 87.5337 352.628 87.8218C352.54 88.1099 352.496 88.4175 352.496 88.7446Z" fill="white"/>
<rect x="424" y="68" width="71" height="32" rx="4" fill="#286EF1"/>
<path d="M444.405 83.8232H442.05L442.038 82.6616H444.094C444.441 82.6616 444.735 82.6108 444.977 82.5093C445.222 82.4035 445.408 82.2533 445.535 82.0586C445.662 81.8597 445.726 81.6206 445.726 81.3413C445.726 81.0324 445.666 80.7806 445.548 80.5859C445.429 80.3913 445.247 80.2495 445.002 80.1606C444.761 80.0718 444.452 80.0273 444.075 80.0273H442.533V88H440.939V78.7578H444.075C444.583 78.7578 445.036 78.8065 445.434 78.9038C445.836 79.0011 446.176 79.1535 446.456 79.3608C446.739 79.564 446.953 79.8221 447.097 80.1353C447.245 80.4484 447.319 80.8208 447.319 81.2524C447.319 81.6333 447.228 81.9824 447.046 82.2998C446.864 82.613 446.595 82.869 446.24 83.0679C445.884 83.2668 445.442 83.3853 444.913 83.4233L444.405 83.8232ZM444.335 88H441.549L442.266 86.7368H444.335C444.695 86.7368 444.996 86.6776 445.237 86.5591C445.478 86.4364 445.658 86.2692 445.776 86.0576C445.899 85.8418 445.96 85.59 445.96 85.3022C445.96 85.0018 445.908 84.7415 445.802 84.5215C445.696 84.2972 445.529 84.1258 445.3 84.0073C445.072 83.8846 444.773 83.8232 444.405 83.8232H442.615L442.628 82.6616H444.958L445.319 83.0996C445.827 83.1165 446.244 83.2287 446.57 83.436C446.9 83.6434 447.145 83.9121 447.306 84.2422C447.467 84.5723 447.547 84.9277 447.547 85.3086C447.547 85.8968 447.418 86.3898 447.16 86.7876C446.906 87.1854 446.54 87.488 446.062 87.6953C445.584 87.8984 445.008 88 444.335 88ZM453.133 86.3813V81.1318H454.669V88H453.222L453.133 86.3813ZM453.349 84.9531L453.863 84.9404C453.863 85.4017 453.812 85.827 453.711 86.2163C453.609 86.6014 453.453 86.9378 453.241 87.2256C453.03 87.5091 452.759 87.7313 452.429 87.8921C452.099 88.0487 451.703 88.127 451.242 88.127C450.907 88.127 450.601 88.0783 450.321 87.981C450.042 87.8836 449.801 87.7334 449.598 87.5303C449.399 87.3271 449.244 87.0627 449.134 86.7368C449.024 86.411 448.969 86.0216 448.969 85.5688V81.1318H450.499V85.5815C450.499 85.8312 450.529 86.0407 450.588 86.21C450.647 86.375 450.728 86.5083 450.829 86.6099C450.931 86.7114 451.049 86.7834 451.185 86.8257C451.32 86.868 451.464 86.8892 451.616 86.8892C452.052 86.8892 452.395 86.8045 452.645 86.6353C452.898 86.4618 453.078 86.229 453.184 85.937C453.294 85.645 453.349 85.3171 453.349 84.9531ZM459.386 81.1318V82.249H455.514V81.1318H459.386ZM456.631 79.4497H458.161V86.1021C458.161 86.3136 458.19 86.4766 458.25 86.5908C458.313 86.7008 458.4 86.7749 458.51 86.813C458.62 86.8511 458.749 86.8701 458.897 86.8701C459.003 86.8701 459.104 86.8638 459.202 86.8511C459.299 86.8384 459.377 86.8257 459.437 86.813L459.443 87.981C459.316 88.019 459.168 88.0529 458.999 88.0825C458.833 88.1121 458.643 88.127 458.427 88.127C458.076 88.127 457.765 88.0656 457.494 87.9429C457.223 87.8159 457.012 87.6107 456.859 87.3271C456.707 87.0436 456.631 86.667 456.631 86.1973V79.4497ZM463.715 81.1318V82.249H459.843V81.1318H463.715ZM460.96 79.4497H462.49V86.1021C462.49 86.3136 462.519 86.4766 462.579 86.5908C462.642 86.7008 462.729 86.7749 462.839 86.813C462.949 86.8511 463.078 86.8701 463.226 86.8701C463.332 86.8701 463.433 86.8638 463.531 86.8511C463.628 86.8384 463.706 86.8257 463.766 86.813L463.772 87.981C463.645 88.019 463.497 88.0529 463.328 88.0825C463.163 88.1121 462.972 88.127 462.756 88.127C462.405 88.127 462.094 88.0656 461.823 87.9429C461.552 87.8159 461.341 87.6107 461.188 87.3271C461.036 87.0436 460.96 86.667 460.96 86.1973V79.4497ZM464.451 84.6421V84.4961C464.451 84.001 464.523 83.5418 464.667 83.1187C464.811 82.6912 465.018 82.321 465.289 82.0078C465.564 81.6904 465.898 81.445 466.292 81.2715C466.69 81.0938 467.138 81.0049 467.638 81.0049C468.141 81.0049 468.59 81.0938 468.983 81.2715C469.381 81.445 469.718 81.6904 469.993 82.0078C470.268 82.321 470.477 82.6912 470.621 83.1187C470.765 83.5418 470.837 84.001 470.837 84.4961V84.6421C470.837 85.1372 470.765 85.5964 470.621 86.0195C470.477 86.4427 470.268 86.813 469.993 87.1304C469.718 87.4435 469.383 87.689 468.99 87.8667C468.596 88.0402 468.15 88.127 467.65 88.127C467.147 88.127 466.696 88.0402 466.298 87.8667C465.905 87.689 465.57 87.4435 465.295 87.1304C465.02 86.813 464.811 86.4427 464.667 86.0195C464.523 85.5964 464.451 85.1372 464.451 84.6421ZM465.981 84.4961V84.6421C465.981 84.951 466.013 85.243 466.076 85.5181C466.14 85.7931 466.239 86.0343 466.375 86.2417C466.51 86.4491 466.683 86.612 466.895 86.7305C467.107 86.849 467.358 86.9082 467.65 86.9082C467.934 86.9082 468.179 86.849 468.387 86.7305C468.598 86.612 468.772 86.4491 468.907 86.2417C469.043 86.0343 469.142 85.7931 469.206 85.5181C469.273 85.243 469.307 84.951 469.307 84.6421V84.4961C469.307 84.1914 469.273 83.9036 469.206 83.6328C469.142 83.3577 469.041 83.1144 468.901 82.9028C468.765 82.6912 468.592 82.5262 468.38 82.4077C468.173 82.285 467.925 82.2236 467.638 82.2236C467.35 82.2236 467.1 82.285 466.889 82.4077C466.681 82.5262 466.51 82.6912 466.375 82.9028C466.239 83.1144 466.14 83.3577 466.076 83.6328C466.013 83.9036 465.981 84.1914 465.981 84.4961ZM473.636 82.5981V88H472.106V81.1318H473.547L473.636 82.5981ZM473.363 84.312L472.868 84.3057C472.872 83.819 472.94 83.3726 473.071 82.9663C473.207 82.5601 473.393 82.2109 473.63 81.9189C473.871 81.627 474.159 81.4027 474.493 81.2461C474.827 81.0853 475.2 81.0049 475.61 81.0049C475.94 81.0049 476.239 81.0514 476.505 81.1445C476.776 81.2334 477.007 81.3794 477.197 81.5825C477.392 81.7856 477.54 82.0501 477.642 82.376C477.743 82.6976 477.794 83.0933 477.794 83.563V88H476.258V83.5566C476.258 83.2266 476.209 82.9663 476.112 82.7759C476.019 82.5812 475.881 82.4437 475.699 82.3633C475.521 82.2786 475.299 82.2363 475.033 82.2363C474.77 82.2363 474.535 82.2913 474.328 82.4014C474.121 82.5114 473.945 82.6616 473.801 82.8521C473.662 83.0425 473.554 83.2625 473.478 83.5122C473.401 83.7619 473.363 84.0285 473.363 84.312Z" fill="white"/>
<path d="M305.764 43.5425V45H300.41V43.5425H305.764ZM300.922 34.3359V45H299.084V34.3359H300.922ZM311.477 43.4106V39.6313C311.477 39.3481 311.425 39.104 311.323 38.8989C311.22 38.6938 311.064 38.5352 310.854 38.4229C310.649 38.3105 310.39 38.2544 310.078 38.2544C309.79 38.2544 309.541 38.3032 309.331 38.4009C309.121 38.4985 308.957 38.6304 308.84 38.7964C308.723 38.9624 308.664 39.1504 308.664 39.3604H306.906C306.906 39.0479 306.982 38.7451 307.133 38.4521C307.285 38.1592 307.504 37.8979 307.792 37.6685C308.081 37.439 308.425 37.2583 308.825 37.1265C309.226 36.9946 309.675 36.9287 310.173 36.9287C310.769 36.9287 311.296 37.0288 311.755 37.229C312.219 37.4292 312.583 37.7319 312.846 38.1372C313.115 38.5376 313.249 39.0405 313.249 39.646V43.1689C313.249 43.5303 313.273 43.855 313.322 44.1431C313.376 44.4263 313.452 44.6729 313.549 44.8828V45H311.74C311.657 44.8096 311.591 44.5679 311.542 44.2749C311.499 43.9771 311.477 43.689 311.477 43.4106ZM311.733 40.1807L311.748 41.272H310.48C310.153 41.272 309.865 41.3037 309.616 41.3672C309.367 41.4258 309.16 41.5137 308.994 41.6309C308.828 41.748 308.703 41.8896 308.62 42.0557C308.537 42.2217 308.496 42.4097 308.496 42.6196C308.496 42.8296 308.544 43.0225 308.642 43.1982C308.74 43.3691 308.881 43.5034 309.067 43.6011C309.257 43.6987 309.487 43.7476 309.755 43.7476C310.117 43.7476 310.432 43.6743 310.7 43.5278C310.974 43.3765 311.188 43.1934 311.345 42.9785C311.501 42.7588 311.584 42.5513 311.594 42.356L312.165 43.1396C312.106 43.3398 312.006 43.5547 311.865 43.7842C311.723 44.0137 311.538 44.2334 311.308 44.4434C311.083 44.6484 310.812 44.8169 310.495 44.9487C310.183 45.0806 309.821 45.1465 309.411 45.1465C308.894 45.1465 308.432 45.0439 308.027 44.8389C307.622 44.6289 307.304 44.3481 307.075 43.9966C306.845 43.6401 306.73 43.2373 306.73 42.7881C306.73 42.3682 306.809 41.9971 306.965 41.6748C307.126 41.3477 307.36 41.0742 307.668 40.8545C307.98 40.6348 308.361 40.4688 308.811 40.3564C309.26 40.2393 309.772 40.1807 310.349 40.1807H311.733ZM316.867 38.584V45H315.102V37.0752H316.787L316.867 38.584ZM319.292 37.0239L319.277 38.6646C319.169 38.645 319.052 38.6304 318.925 38.6206C318.803 38.6108 318.681 38.606 318.559 38.606C318.256 38.606 317.99 38.6499 317.761 38.7378C317.531 38.8208 317.338 38.9429 317.182 39.104C317.031 39.2603 316.914 39.4507 316.831 39.6753C316.748 39.8999 316.699 40.1514 316.684 40.4297L316.281 40.459C316.281 39.9609 316.33 39.4995 316.428 39.0747C316.525 38.6499 316.672 38.2764 316.867 37.9541C317.067 37.6318 317.316 37.3804 317.614 37.1997C317.917 37.019 318.266 36.9287 318.662 36.9287C318.769 36.9287 318.884 36.9385 319.006 36.958C319.133 36.9775 319.228 36.9995 319.292 37.0239ZM325.327 37.0752H326.931V44.7803C326.931 45.4932 326.779 46.0986 326.477 46.5967C326.174 47.0947 325.751 47.4731 325.209 47.7319C324.667 47.9956 324.04 48.1274 323.327 48.1274C323.024 48.1274 322.688 48.0835 322.316 47.9956C321.95 47.9077 321.594 47.7661 321.247 47.5708C320.905 47.3804 320.62 47.1289 320.39 46.8164L321.218 45.7764C321.501 46.1133 321.813 46.3599 322.155 46.5161C322.497 46.6724 322.856 46.7505 323.232 46.7505C323.637 46.7505 323.981 46.6748 324.265 46.5234C324.553 46.377 324.775 46.1597 324.931 45.8716C325.087 45.5835 325.166 45.2319 325.166 44.8169V38.8696L325.327 37.0752ZM319.943 41.1255V40.9717C319.943 40.3711 320.017 39.8242 320.163 39.3311C320.31 38.833 320.52 38.4058 320.793 38.0493C321.066 37.688 321.398 37.4121 321.789 37.2217C322.18 37.0264 322.622 36.9287 323.115 36.9287C323.627 36.9287 324.064 37.0215 324.426 37.207C324.792 37.3926 325.097 37.6587 325.341 38.0054C325.585 38.3472 325.776 38.7573 325.913 39.2358C326.054 39.7095 326.159 40.2368 326.228 40.8179V41.3086C326.164 41.875 326.057 42.3926 325.905 42.8613C325.754 43.3301 325.554 43.7354 325.305 44.0771C325.056 44.4189 324.748 44.6826 324.382 44.8682C324.021 45.0537 323.593 45.1465 323.1 45.1465C322.617 45.1465 322.18 45.0464 321.789 44.8462C321.403 44.646 321.071 44.3652 320.793 44.0039C320.52 43.6426 320.31 43.2178 320.163 42.7295C320.017 42.2363 319.943 41.7017 319.943 41.1255ZM321.708 40.9717V41.1255C321.708 41.4868 321.743 41.8237 321.811 42.1362C321.884 42.4487 321.994 42.7246 322.141 42.9639C322.292 43.1982 322.482 43.3838 322.712 43.5205C322.946 43.6523 323.222 43.7183 323.54 43.7183C323.955 43.7183 324.294 43.6304 324.558 43.4546C324.826 43.2788 325.031 43.042 325.173 42.7441C325.319 42.4414 325.422 42.1045 325.48 41.7334V40.4077C325.451 40.1196 325.39 39.8511 325.297 39.6021C325.209 39.353 325.09 39.1357 324.938 38.9502C324.787 38.7598 324.597 38.6133 324.367 38.5107C324.138 38.4033 323.867 38.3496 323.554 38.3496C323.237 38.3496 322.961 38.418 322.727 38.5547C322.492 38.6914 322.299 38.8794 322.148 39.1187C322.001 39.3579 321.892 39.6362 321.818 39.9536C321.745 40.271 321.708 40.6104 321.708 40.9717ZM332.255 45.1465C331.669 45.1465 331.14 45.0513 330.666 44.8608C330.197 44.6655 329.797 44.3945 329.465 44.0479C329.138 43.7012 328.886 43.2935 328.71 42.8247C328.535 42.356 328.447 41.8506 328.447 41.3086V41.0156C328.447 40.3955 328.537 39.834 328.718 39.3311C328.898 38.8281 329.15 38.3984 329.472 38.042C329.794 37.6807 330.175 37.4048 330.615 37.2144C331.054 37.0239 331.53 36.9287 332.043 36.9287C332.609 36.9287 333.105 37.0239 333.53 37.2144C333.955 37.4048 334.306 37.6733 334.584 38.02C334.868 38.3618 335.078 38.7695 335.214 39.2432C335.356 39.7168 335.427 40.2393 335.427 40.8105V41.5649H329.304V40.2979H333.684V40.1587C333.674 39.8413 333.61 39.5435 333.493 39.2651C333.381 38.9868 333.208 38.7622 332.973 38.5913C332.739 38.4204 332.426 38.335 332.036 38.335C331.743 38.335 331.481 38.3984 331.252 38.5254C331.027 38.6475 330.839 38.8257 330.688 39.0601C330.537 39.2944 330.419 39.5776 330.336 39.9097C330.258 40.2368 330.219 40.6055 330.219 41.0156V41.3086C330.219 41.6553 330.266 41.9775 330.358 42.2754C330.456 42.5684 330.598 42.8247 330.783 43.0444C330.969 43.2642 331.193 43.4375 331.457 43.5645C331.721 43.6865 332.021 43.7476 332.358 43.7476C332.783 43.7476 333.161 43.6621 333.493 43.4912C333.825 43.3203 334.113 43.0786 334.357 42.7661L335.288 43.667C335.117 43.916 334.895 44.1553 334.621 44.3848C334.348 44.6094 334.013 44.7925 333.618 44.9341C333.227 45.0757 332.773 45.1465 332.255 45.1465Z" fill="#737373"/>
<path d="M430.694 42.2534C430.694 42.0337 430.66 41.8384 430.592 41.6675C430.528 41.4966 430.414 41.3403 430.248 41.1987C430.082 41.0571 429.847 40.9204 429.544 40.7886C429.247 40.6519 428.866 40.5127 428.402 40.3711C427.894 40.2148 427.425 40.0415 426.996 39.8511C426.571 39.6558 426.2 39.4312 425.882 39.1772C425.565 38.9185 425.318 38.623 425.143 38.291C424.967 37.9541 424.879 37.5659 424.879 37.1265C424.879 36.6919 424.969 36.2964 425.15 35.9399C425.335 35.5835 425.597 35.2759 425.934 35.0171C426.275 34.7534 426.678 34.5508 427.142 34.4092C427.606 34.2627 428.119 34.1895 428.68 34.1895C429.471 34.1895 430.152 34.3359 430.724 34.6289C431.3 34.9219 431.742 35.3149 432.049 35.8081C432.362 36.3013 432.518 36.8457 432.518 37.4414H430.694C430.694 37.0898 430.619 36.7798 430.467 36.5112C430.321 36.2378 430.096 36.0229 429.793 35.8667C429.496 35.7104 429.117 35.6323 428.658 35.6323C428.224 35.6323 427.862 35.6982 427.574 35.8301C427.286 35.9619 427.071 36.1401 426.93 36.3647C426.788 36.5894 426.717 36.8433 426.717 37.1265C426.717 37.3267 426.764 37.5098 426.856 37.6758C426.949 37.8369 427.091 37.9883 427.281 38.1299C427.472 38.2666 427.711 38.396 427.999 38.5181C428.287 38.6401 428.626 38.7573 429.017 38.8696C429.608 39.0454 430.123 39.2407 430.562 39.4556C431.002 39.6655 431.368 39.9048 431.661 40.1733C431.954 40.4419 432.174 40.7471 432.32 41.0889C432.467 41.4258 432.54 41.8091 432.54 42.2388C432.54 42.688 432.45 43.0933 432.269 43.4546C432.088 43.811 431.83 44.1162 431.493 44.3701C431.161 44.6191 430.76 44.812 430.292 44.9487C429.828 45.0806 429.31 45.1465 428.739 45.1465C428.226 45.1465 427.721 45.0781 427.223 44.9414C426.729 44.8047 426.28 44.5972 425.875 44.3188C425.47 44.0356 425.147 43.6841 424.908 43.2642C424.669 42.8394 424.549 42.3438 424.549 41.7773H426.388C426.388 42.124 426.446 42.4194 426.563 42.6636C426.686 42.9077 426.854 43.1079 427.069 43.2642C427.284 43.4155 427.533 43.5278 427.816 43.6011C428.104 43.6743 428.412 43.7109 428.739 43.7109C429.168 43.7109 429.527 43.6499 429.815 43.5278C430.108 43.4058 430.328 43.2349 430.475 43.0151C430.621 42.7954 430.694 42.5415 430.694 42.2534ZM435.755 38.6865V45H433.99V37.0752H435.653L435.755 38.6865ZM435.47 40.7446L434.869 40.7373C434.869 40.1904 434.938 39.6851 435.074 39.2212C435.211 38.7573 435.411 38.3545 435.675 38.0127C435.938 37.666 436.266 37.3999 436.656 37.2144C437.052 37.0239 437.508 36.9287 438.026 36.9287C438.387 36.9287 438.717 36.9824 439.015 37.0898C439.317 37.1924 439.579 37.356 439.798 37.5806C440.023 37.8052 440.194 38.0933 440.311 38.4448C440.433 38.7964 440.494 39.2212 440.494 39.7192V45H438.729V39.873C438.729 39.4873 438.67 39.1846 438.553 38.9648C438.441 38.7451 438.277 38.5889 438.062 38.4961C437.853 38.3984 437.601 38.3496 437.308 38.3496C436.976 38.3496 436.693 38.4131 436.458 38.54C436.229 38.667 436.041 38.8403 435.895 39.0601C435.748 39.2798 435.641 39.5337 435.572 39.8218C435.504 40.1099 435.47 40.4175 435.47 40.7446ZM440.384 40.2759L439.557 40.459C439.557 39.9805 439.623 39.5288 439.754 39.104C439.891 38.6743 440.089 38.2983 440.348 37.9761C440.611 37.6489 440.936 37.3926 441.322 37.207C441.708 37.0215 442.149 36.9287 442.647 36.9287C443.053 36.9287 443.414 36.9849 443.731 37.0972C444.054 37.2046 444.327 37.3755 444.552 37.6099C444.776 37.8442 444.947 38.1494 445.064 38.5254C445.182 38.8965 445.24 39.3457 445.24 39.873V45H443.468V39.8657C443.468 39.4653 443.409 39.1553 443.292 38.9355C443.18 38.7158 443.019 38.5645 442.809 38.4814C442.599 38.3936 442.347 38.3496 442.054 38.3496C441.781 38.3496 441.539 38.4009 441.329 38.5034C441.124 38.6011 440.951 38.7402 440.809 38.9209C440.667 39.0967 440.56 39.2993 440.487 39.5288C440.418 39.7583 440.384 40.0073 440.384 40.2759ZM451.524 43.4106V39.6313C451.524 39.3481 451.473 39.104 451.371 38.8989C451.268 38.6938 451.112 38.5352 450.902 38.4229C450.697 38.3105 450.438 38.2544 450.125 38.2544C449.837 38.2544 449.588 38.3032 449.378 38.4009C449.168 38.4985 449.005 38.6304 448.888 38.7964C448.771 38.9624 448.712 39.1504 448.712 39.3604H446.954C446.954 39.0479 447.03 38.7451 447.181 38.4521C447.333 38.1592 447.552 37.8979 447.84 37.6685C448.128 37.439 448.473 37.2583 448.873 37.1265C449.273 36.9946 449.723 36.9287 450.221 36.9287C450.816 36.9287 451.344 37.0288 451.803 37.229C452.267 37.4292 452.63 37.7319 452.894 38.1372C453.163 38.5376 453.297 39.0405 453.297 39.646V43.1689C453.297 43.5303 453.321 43.855 453.37 44.1431C453.424 44.4263 453.5 44.6729 453.597 44.8828V45H451.788C451.705 44.8096 451.639 44.5679 451.59 44.2749C451.546 43.9771 451.524 43.689 451.524 43.4106ZM451.781 40.1807L451.795 41.272H450.528C450.201 41.272 449.913 41.3037 449.664 41.3672C449.415 41.4258 449.208 41.5137 449.042 41.6309C448.875 41.748 448.751 41.8896 448.668 42.0557C448.585 42.2217 448.543 42.4097 448.543 42.6196C448.543 42.8296 448.592 43.0225 448.69 43.1982C448.788 43.3691 448.929 43.5034 449.115 43.6011C449.305 43.6987 449.535 43.7476 449.803 43.7476C450.165 43.7476 450.479 43.6743 450.748 43.5278C451.021 43.3765 451.236 43.1934 451.393 42.9785C451.549 42.7588 451.632 42.5513 451.642 42.356L452.213 43.1396C452.154 43.3398 452.054 43.5547 451.913 43.7842C451.771 44.0137 451.585 44.2334 451.356 44.4434C451.131 44.6484 450.86 44.8169 450.543 44.9487C450.23 45.0806 449.869 45.1465 449.459 45.1465C448.941 45.1465 448.48 45.0439 448.075 44.8389C447.669 44.6289 447.352 44.3481 447.123 43.9966C446.893 43.6401 446.778 43.2373 446.778 42.7881C446.778 42.3682 446.856 41.9971 447.013 41.6748C447.174 41.3477 447.408 41.0742 447.716 40.8545C448.028 40.6348 448.409 40.4688 448.858 40.3564C449.308 40.2393 449.82 40.1807 450.396 40.1807H451.781ZM457.032 33.75V45H455.26V33.75H457.032ZM460.855 33.75V45H459.083V33.75H460.855Z" fill="#737373"/>
</svg>
