<svg width="820" height="257" viewBox="0 0 820 257" fill="none" xmlns="http://www.w3.org/2000/svg">
<g clip-path="url(#clip0_3378_49318)">
<rect width="820" height="257" rx="4" fill="#F8F8F8"/>
<g filter="url(#filter0_ddd_3378_49318)">
<rect x="40" y="40" width="740" height="177" rx="4" fill="white"/>
<rect x="40.5" y="40.5" width="739" height="176" rx="3.5" stroke="#E6E6E6"/>
</g>
<rect x="162" y="156" width="26" height="26" rx="4" fill="#333333"/>
<path d="M176.25 164.013V174H174.603V165.968L172.162 166.795V165.435L176.052 164.013H176.25Z" fill="white"/>
<rect x="742" y="156" width="26" height="26" rx="4" fill="#333333"/>
<path d="M758.424 172.688V174H751.752V172.872L754.992 169.338C755.348 168.937 755.628 168.59 755.833 168.299C756.038 168.007 756.182 167.745 756.264 167.513C756.35 167.276 756.394 167.046 756.394 166.822C756.394 166.508 756.334 166.232 756.216 165.995C756.102 165.754 755.933 165.564 755.71 165.428C755.487 165.286 755.215 165.216 754.896 165.216C754.527 165.216 754.217 165.296 753.967 165.455C753.716 165.615 753.527 165.836 753.399 166.118C753.272 166.396 753.208 166.715 753.208 167.075H751.561C751.561 166.496 751.693 165.968 751.957 165.489C752.221 165.006 752.604 164.623 753.105 164.341C753.607 164.054 754.211 163.91 754.917 163.91C755.582 163.91 756.147 164.022 756.612 164.245C757.077 164.468 757.43 164.785 757.672 165.195C757.918 165.605 758.041 166.091 758.041 166.651C758.041 166.961 757.991 167.269 757.891 167.574C757.79 167.88 757.647 168.185 757.46 168.49C757.278 168.791 757.061 169.094 756.811 169.399C756.56 169.7 756.284 170.006 755.983 170.315L753.83 172.688H758.424Z" fill="white"/>
<g clip-path="url(#clip1_3378_49318)">
<mask id="path-8-inside-1_3378_49318" fill="white">
<path d="M40 44C40 41.7909 41.7909 40 44 40H776C778.209 40 780 41.7909 780 44V120H40V44Z"/>
</mask>
<path d="M40 44C40 41.7909 41.7909 40 44 40H776C778.209 40 780 41.7909 780 44V120H40V44Z" fill="white"/>
<mask id="path-10-inside-2_3378_49318" fill="white">
<path d="M40 40H227V120H40V40Z"/>
</mask>
<path d="M40 40H227V120H40V40Z" fill="white"/>
<path d="M61.1638 76.3571C60.4377 76.3571 59.849 76.9328 59.849 77.6429C59.849 78.3529 60.4377 78.9286 61.1638 78.9286C61.89 78.9286 62.4786 78.3529 62.4786 77.6429C62.4786 76.9328 61.8897 76.3571 61.1638 76.3571ZM69.2472 74H58.7287C57.785 74 57 74.7674 57 75.7143V84.2857C57 85.2326 57.7848 86 58.7284 86H69.2469C70.2152 86 71 85.2326 71 84.2857V75.7143C71.0002 74.7674 70.2388 74 69.2472 74ZM69.6854 84.1062L65.9382 79.1268C65.8697 79.0036 65.7136 78.9286 65.5465 78.9286C65.3791 78.9286 65.2227 79.0027 65.1299 79.1262L62.2099 82.986L61.1939 81.7512C61.0997 81.6366 60.9492 81.5688 60.7894 81.5688C60.6293 81.5688 60.479 81.6366 60.3845 81.7512L58.3159 84.264C58.3159 84.2632 58.3159 84.2648 58.3159 84.264L58.3148 75.7143C58.3148 75.478 58.5114 75.2857 58.7531 75.2857H69.2715C69.5132 75.2857 69.7098 75.478 69.7098 75.7143V84.1062H69.6854Z" fill="#0059FF"/>
<path d="M79.0469 74.3359V85H77.2085V74.3359H79.0469ZM82.9214 78.6865V85H81.1562V77.0752H82.8188L82.9214 78.6865ZM82.6357 80.7446L82.0352 80.7373C82.0352 80.1904 82.1035 79.6851 82.2402 79.2212C82.377 78.7573 82.5771 78.3545 82.8408 78.0127C83.1045 77.666 83.4316 77.3999 83.8223 77.2144C84.2178 77.0239 84.6743 76.9287 85.1919 76.9287C85.5532 76.9287 85.8828 76.9824 86.1807 77.0898C86.4834 77.1924 86.7446 77.356 86.9644 77.5806C87.189 77.8052 87.3599 78.0933 87.4771 78.4448C87.5991 78.7964 87.6602 79.2212 87.6602 79.7192V85H85.895V79.873C85.895 79.4873 85.8364 79.1846 85.7192 78.9648C85.6069 78.7451 85.4434 78.5889 85.2285 78.4961C85.0186 78.3984 84.7671 78.3496 84.4741 78.3496C84.1421 78.3496 83.8589 78.4131 83.6245 78.54C83.395 78.667 83.207 78.8403 83.0605 79.0601C82.9141 79.2798 82.8066 79.5337 82.7383 79.8218C82.6699 80.1099 82.6357 80.4175 82.6357 80.7446ZM87.5503 80.2759L86.7227 80.459C86.7227 79.9805 86.7886 79.5288 86.9204 79.104C87.0571 78.6743 87.2549 78.2983 87.5137 77.9761C87.7773 77.6489 88.1021 77.3926 88.4878 77.207C88.8735 77.0215 89.3154 76.9287 89.8135 76.9287C90.2188 76.9287 90.5801 76.9849 90.8975 77.0972C91.2197 77.2046 91.4932 77.3755 91.7178 77.6099C91.9424 77.8442 92.1133 78.1494 92.2305 78.5254C92.3477 78.8965 92.4062 79.3457 92.4062 79.873V85H90.6338V79.8657C90.6338 79.4653 90.5752 79.1553 90.458 78.9355C90.3457 78.7158 90.1846 78.5645 89.9746 78.4814C89.7646 78.3936 89.5132 78.3496 89.2202 78.3496C88.9468 78.3496 88.7051 78.4009 88.4951 78.5034C88.29 78.6011 88.1167 78.7402 87.9751 78.9209C87.8335 79.0967 87.7261 79.2993 87.6528 79.5288C87.5845 79.7583 87.5503 80.0073 87.5503 80.2759ZM98.6904 83.4106V79.6313C98.6904 79.3481 98.6392 79.104 98.5366 78.8989C98.4341 78.6938 98.2778 78.5352 98.0679 78.4229C97.8628 78.3105 97.604 78.2544 97.2915 78.2544C97.0034 78.2544 96.7544 78.3032 96.5444 78.4009C96.3345 78.4985 96.1709 78.6304 96.0537 78.7964C95.9365 78.9624 95.8779 79.1504 95.8779 79.3604H94.1201C94.1201 79.0479 94.1958 78.7451 94.3472 78.4521C94.4985 78.1592 94.7183 77.8979 95.0063 77.6685C95.2944 77.439 95.6387 77.2583 96.0391 77.1265C96.4395 76.9946 96.8887 76.9287 97.3867 76.9287C97.9824 76.9287 98.5098 77.0288 98.9688 77.229C99.4326 77.4292 99.7964 77.7319 100.06 78.1372C100.329 78.5376 100.463 79.0405 100.463 79.646V83.1689C100.463 83.5303 100.487 83.855 100.536 84.1431C100.59 84.4263 100.666 84.6729 100.763 84.8828V85H98.9541C98.8711 84.8096 98.8052 84.5679 98.7563 84.2749C98.7124 83.9771 98.6904 83.689 98.6904 83.4106ZM98.9468 80.1807L98.9614 81.272H97.6943C97.3672 81.272 97.0791 81.3037 96.8301 81.3672C96.5811 81.4258 96.3735 81.5137 96.2075 81.6309C96.0415 81.748 95.917 81.8896 95.834 82.0557C95.751 82.2217 95.7095 82.4097 95.7095 82.6196C95.7095 82.8296 95.7583 83.0225 95.856 83.1982C95.9536 83.3691 96.0952 83.5034 96.2808 83.6011C96.4712 83.6987 96.7007 83.7476 96.9692 83.7476C97.3306 83.7476 97.6455 83.6743 97.9141 83.5278C98.1875 83.3765 98.4023 83.1934 98.5586 82.9785C98.7148 82.7588 98.7979 82.5513 98.8076 82.356L99.3789 83.1396C99.3203 83.3398 99.2202 83.5547 99.0786 83.7842C98.937 84.0137 98.7515 84.2334 98.522 84.4434C98.2974 84.6484 98.0264 84.8169 97.709 84.9487C97.3965 85.0806 97.0352 85.1465 96.625 85.1465C96.1074 85.1465 95.646 85.0439 95.2407 84.8389C94.8354 84.6289 94.5181 84.3481 94.2886 83.9966C94.0591 83.6401 93.9443 83.2373 93.9443 82.7881C93.9443 82.3682 94.0225 81.9971 94.1787 81.6748C94.3398 81.3477 94.5742 81.0742 94.8818 80.8545C95.1943 80.6348 95.5752 80.4688 96.0244 80.3564C96.4736 80.2393 96.9863 80.1807 97.5625 80.1807H98.9468ZM107.384 77.0752H108.988V84.7803C108.988 85.4932 108.837 86.0986 108.534 86.5967C108.231 87.0947 107.809 87.4731 107.267 87.7319C106.725 87.9956 106.098 88.1274 105.385 88.1274C105.082 88.1274 104.745 88.0835 104.374 87.9956C104.008 87.9077 103.651 87.7661 103.305 87.5708C102.963 87.3804 102.677 87.1289 102.448 86.8164L103.275 85.7764C103.559 86.1133 103.871 86.3599 104.213 86.5161C104.555 86.6724 104.914 86.7505 105.29 86.7505C105.695 86.7505 106.039 86.6748 106.322 86.5234C106.61 86.377 106.833 86.1597 106.989 85.8716C107.145 85.5835 107.223 85.2319 107.223 84.8169V78.8696L107.384 77.0752ZM102.001 81.1255V80.9717C102.001 80.3711 102.074 79.8242 102.221 79.3311C102.367 78.833 102.577 78.4058 102.851 78.0493C103.124 77.688 103.456 77.4121 103.847 77.2217C104.237 77.0264 104.679 76.9287 105.172 76.9287C105.685 76.9287 106.122 77.0215 106.483 77.207C106.85 77.3926 107.155 77.6587 107.399 78.0054C107.643 78.3472 107.833 78.7573 107.97 79.2358C108.112 79.7095 108.217 80.2368 108.285 80.8179V81.3086C108.222 81.875 108.114 82.3926 107.963 82.8613C107.812 83.3301 107.611 83.7354 107.362 84.0771C107.113 84.4189 106.806 84.6826 106.439 84.8682C106.078 85.0537 105.651 85.1465 105.158 85.1465C104.674 85.1465 104.237 85.0464 103.847 84.8462C103.461 84.646 103.129 84.3652 102.851 84.0039C102.577 83.6426 102.367 83.2178 102.221 82.7295C102.074 82.2363 102.001 81.7017 102.001 81.1255ZM103.766 80.9717V81.1255C103.766 81.4868 103.8 81.8237 103.869 82.1362C103.942 82.4487 104.052 82.7246 104.198 82.9639C104.35 83.1982 104.54 83.3838 104.77 83.5205C105.004 83.6523 105.28 83.7183 105.597 83.7183C106.012 83.7183 106.352 83.6304 106.615 83.4546C106.884 83.2788 107.089 83.042 107.23 82.7441C107.377 82.4414 107.479 82.1045 107.538 81.7334V80.4077C107.509 80.1196 107.448 79.8511 107.355 79.6021C107.267 79.353 107.147 79.1357 106.996 78.9502C106.845 78.7598 106.654 78.6133 106.425 78.5107C106.195 78.4033 105.924 78.3496 105.612 78.3496C105.294 78.3496 105.019 78.418 104.784 78.5547C104.55 78.6914 104.357 78.8794 104.206 79.1187C104.059 79.3579 103.949 79.6362 103.876 79.9536C103.803 80.271 103.766 80.6104 103.766 80.9717ZM114.313 85.1465C113.727 85.1465 113.197 85.0513 112.724 84.8608C112.255 84.6655 111.854 84.3945 111.522 84.0479C111.195 83.7012 110.944 83.2935 110.768 82.8247C110.592 82.356 110.504 81.8506 110.504 81.3086V81.0156C110.504 80.3955 110.595 79.834 110.775 79.3311C110.956 78.8281 111.208 78.3984 111.53 78.042C111.852 77.6807 112.233 77.4048 112.672 77.2144C113.112 77.0239 113.588 76.9287 114.101 76.9287C114.667 76.9287 115.163 77.0239 115.587 77.2144C116.012 77.4048 116.364 77.6733 116.642 78.02C116.925 78.3618 117.135 78.7695 117.272 79.2432C117.414 79.7168 117.484 80.2393 117.484 80.8105V81.5649H111.361V80.2979H115.741V80.1587C115.731 79.8413 115.668 79.5435 115.551 79.2651C115.438 78.9868 115.265 78.7622 115.031 78.5913C114.796 78.4204 114.484 78.335 114.093 78.335C113.8 78.335 113.539 78.3984 113.31 78.5254C113.085 78.6475 112.897 78.8257 112.746 79.0601C112.594 79.2944 112.477 79.5776 112.394 79.9097C112.316 80.2368 112.277 80.6055 112.277 81.0156V81.3086C112.277 81.6553 112.323 81.9775 112.416 82.2754C112.514 82.5684 112.655 82.8247 112.841 83.0444C113.026 83.2642 113.251 83.4375 113.515 83.5645C113.778 83.6865 114.079 83.7476 114.416 83.7476C114.84 83.7476 115.219 83.6621 115.551 83.4912C115.883 83.3203 116.171 83.0786 116.415 82.7661L117.345 83.667C117.174 83.916 116.952 84.1553 116.679 84.3848C116.405 84.6094 116.071 84.7925 115.675 84.9341C115.285 85.0757 114.831 85.1465 114.313 85.1465ZM129.071 81.5283H130.902C130.844 82.2266 130.648 82.8491 130.316 83.396C129.984 83.938 129.518 84.3652 128.917 84.6777C128.317 84.9902 127.587 85.1465 126.728 85.1465C126.068 85.1465 125.475 85.0293 124.948 84.7949C124.42 84.5557 123.969 84.2188 123.593 83.7842C123.217 83.3447 122.929 82.8149 122.729 82.1948C122.533 81.5747 122.436 80.8813 122.436 80.1147V79.2285C122.436 78.4619 122.536 77.7686 122.736 77.1484C122.941 76.5283 123.234 75.9985 123.615 75.5591C123.996 75.1147 124.452 74.7754 124.984 74.541C125.521 74.3066 126.125 74.1895 126.793 74.1895C127.643 74.1895 128.361 74.3457 128.947 74.6582C129.533 74.9707 129.987 75.4028 130.309 75.9546C130.636 76.5063 130.836 77.1387 130.91 77.8516H129.079C129.03 77.3926 128.922 76.9995 128.756 76.6724C128.595 76.3452 128.356 76.0962 128.039 75.9253C127.721 75.7495 127.306 75.6616 126.793 75.6616C126.374 75.6616 126.007 75.7397 125.695 75.896C125.382 76.0522 125.121 76.2817 124.911 76.5845C124.701 76.8872 124.542 77.2607 124.435 77.7051C124.333 78.1445 124.281 78.6475 124.281 79.2139V80.1147C124.281 80.6519 124.328 81.1401 124.42 81.5796C124.518 82.0142 124.665 82.3877 124.86 82.7002C125.06 83.0127 125.314 83.2544 125.622 83.4253C125.929 83.5962 126.298 83.6816 126.728 83.6816C127.25 83.6816 127.672 83.5986 127.995 83.4326C128.322 83.2666 128.568 83.0249 128.734 82.7075C128.905 82.3853 129.018 81.9922 129.071 81.5283ZM132.06 81.1255V80.957C132.06 80.3857 132.143 79.856 132.309 79.3677C132.475 78.8745 132.714 78.4473 133.026 78.0859C133.344 77.7197 133.729 77.4365 134.184 77.2363C134.643 77.0312 135.16 76.9287 135.736 76.9287C136.317 76.9287 136.835 77.0312 137.289 77.2363C137.748 77.4365 138.136 77.7197 138.454 78.0859C138.771 78.4473 139.013 78.8745 139.179 79.3677C139.345 79.856 139.428 80.3857 139.428 80.957V81.1255C139.428 81.6968 139.345 82.2266 139.179 82.7148C139.013 83.2031 138.771 83.6304 138.454 83.9966C138.136 84.3579 137.75 84.6411 137.296 84.8462C136.842 85.0464 136.327 85.1465 135.751 85.1465C135.17 85.1465 134.65 85.0464 134.191 84.8462C133.737 84.6411 133.351 84.3579 133.034 83.9966C132.716 83.6304 132.475 83.2031 132.309 82.7148C132.143 82.2266 132.06 81.6968 132.06 81.1255ZM133.825 80.957V81.1255C133.825 81.4819 133.861 81.8188 133.935 82.1362C134.008 82.4536 134.123 82.7319 134.279 82.9712C134.435 83.2104 134.635 83.3984 134.879 83.5352C135.124 83.6719 135.414 83.7402 135.751 83.7402C136.078 83.7402 136.361 83.6719 136.601 83.5352C136.845 83.3984 137.045 83.2104 137.201 82.9712C137.357 82.7319 137.472 82.4536 137.545 82.1362C137.624 81.8188 137.663 81.4819 137.663 81.1255V80.957C137.663 80.6055 137.624 80.2734 137.545 79.9609C137.472 79.6436 137.355 79.3628 137.194 79.1187C137.038 78.8745 136.837 78.6841 136.593 78.5474C136.354 78.4058 136.068 78.335 135.736 78.335C135.404 78.335 135.116 78.4058 134.872 78.5474C134.633 78.6841 134.435 78.8745 134.279 79.1187C134.123 79.3628 134.008 79.6436 133.935 79.9609C133.861 80.2734 133.825 80.6055 133.825 80.957ZM142.672 78.6865V85H140.907V77.0752H142.57L142.672 78.6865ZM142.387 80.7446L141.786 80.7373C141.786 80.1904 141.854 79.6851 141.991 79.2212C142.128 78.7573 142.328 78.3545 142.592 78.0127C142.855 77.666 143.183 77.3999 143.573 77.2144C143.969 77.0239 144.425 76.9287 144.943 76.9287C145.304 76.9287 145.634 76.9824 145.932 77.0898C146.234 77.1924 146.496 77.356 146.715 77.5806C146.94 77.8052 147.111 78.0933 147.228 78.4448C147.35 78.7964 147.411 79.2212 147.411 79.7192V85H145.646V79.873C145.646 79.4873 145.587 79.1846 145.47 78.9648C145.358 78.7451 145.194 78.5889 144.979 78.4961C144.77 78.3984 144.518 78.3496 144.225 78.3496C143.893 78.3496 143.61 78.4131 143.375 78.54C143.146 78.667 142.958 78.8403 142.812 79.0601C142.665 79.2798 142.558 79.5337 142.489 79.8218C142.421 80.1099 142.387 80.4175 142.387 80.7446ZM147.301 80.2759L146.474 80.459C146.474 79.9805 146.54 79.5288 146.671 79.104C146.808 78.6743 147.006 78.2983 147.265 77.9761C147.528 77.6489 147.853 77.3926 148.239 77.207C148.625 77.0215 149.066 76.9287 149.564 76.9287C149.97 76.9287 150.331 76.9849 150.648 77.0972C150.971 77.2046 151.244 77.3755 151.469 77.6099C151.693 77.8442 151.864 78.1494 151.981 78.5254C152.099 78.8965 152.157 79.3457 152.157 79.873V85H150.385V79.8657C150.385 79.4653 150.326 79.1553 150.209 78.9355C150.097 78.7158 149.936 78.5645 149.726 78.4814C149.516 78.3936 149.264 78.3496 148.971 78.3496C148.698 78.3496 148.456 78.4009 148.246 78.5034C148.041 78.6011 147.868 78.7402 147.726 78.9209C147.584 79.0967 147.477 79.2993 147.404 79.5288C147.335 79.7583 147.301 80.0073 147.301 80.2759ZM155.746 78.5986V88.0469H153.981V77.0752H155.607L155.746 78.5986ZM160.91 80.9644V81.1182C160.91 81.6943 160.841 82.229 160.705 82.7222C160.573 83.2104 160.375 83.6377 160.111 84.0039C159.853 84.3652 159.533 84.646 159.152 84.8462C158.771 85.0464 158.332 85.1465 157.833 85.1465C157.34 85.1465 156.908 85.0562 156.537 84.8755C156.171 84.6899 155.861 84.4287 155.607 84.0918C155.353 83.7549 155.148 83.3594 154.992 82.9053C154.84 82.4463 154.733 81.9434 154.669 81.3965V80.8032C154.733 80.2222 154.84 79.6948 154.992 79.2212C155.148 78.7476 155.353 78.3398 155.607 77.998C155.861 77.6562 156.171 77.3926 156.537 77.207C156.903 77.0215 157.331 76.9287 157.819 76.9287C158.317 76.9287 158.759 77.0264 159.145 77.2217C159.53 77.4121 159.855 77.6855 160.119 78.042C160.382 78.3936 160.58 78.8184 160.712 79.3164C160.844 79.8096 160.91 80.3589 160.91 80.9644ZM159.145 81.1182V80.9644C159.145 80.5981 159.11 80.2588 159.042 79.9463C158.974 79.6289 158.866 79.3506 158.72 79.1113C158.573 78.8721 158.385 78.6865 158.156 78.5547C157.931 78.418 157.66 78.3496 157.343 78.3496C157.03 78.3496 156.762 78.4033 156.537 78.5107C156.312 78.6133 156.125 78.7573 155.973 78.9429C155.822 79.1284 155.705 79.3457 155.622 79.5947C155.539 79.8389 155.48 80.105 155.446 80.3931V81.814C155.504 82.1655 155.604 82.4878 155.746 82.7808C155.888 83.0737 156.088 83.3081 156.347 83.4839C156.61 83.6548 156.947 83.7402 157.357 83.7402C157.675 83.7402 157.946 83.6719 158.17 83.5352C158.395 83.3984 158.578 83.2104 158.72 82.9712C158.866 82.7271 158.974 82.4463 159.042 82.1289C159.11 81.8115 159.145 81.4746 159.145 81.1182ZM164.184 78.584V85H162.418V77.0752H164.103L164.184 78.584ZM166.608 77.0239L166.593 78.6646C166.486 78.645 166.369 78.6304 166.242 78.6206C166.12 78.6108 165.998 78.606 165.875 78.606C165.573 78.606 165.307 78.6499 165.077 78.7378C164.848 78.8208 164.655 78.9429 164.499 79.104C164.347 79.2603 164.23 79.4507 164.147 79.6753C164.064 79.8999 164.015 80.1514 164 80.4297L163.598 80.459C163.598 79.9609 163.646 79.4995 163.744 79.0747C163.842 78.6499 163.988 78.2764 164.184 77.9541C164.384 77.6318 164.633 77.3804 164.931 77.1997C165.233 77.019 165.583 76.9287 165.978 76.9287C166.085 76.9287 166.2 76.9385 166.322 76.958C166.449 76.9775 166.544 76.9995 166.608 77.0239ZM171.061 85.1465C170.475 85.1465 169.945 85.0513 169.472 84.8608C169.003 84.6655 168.603 84.3945 168.271 84.0479C167.943 83.7012 167.692 83.2935 167.516 82.8247C167.34 82.356 167.252 81.8506 167.252 81.3086V81.0156C167.252 80.3955 167.343 79.834 167.523 79.3311C167.704 78.8281 167.956 78.3984 168.278 78.042C168.6 77.6807 168.981 77.4048 169.42 77.2144C169.86 77.0239 170.336 76.9287 170.849 76.9287C171.415 76.9287 171.911 77.0239 172.335 77.2144C172.76 77.4048 173.112 77.6733 173.39 78.02C173.673 78.3618 173.883 78.7695 174.02 79.2432C174.162 79.7168 174.232 80.2393 174.232 80.8105V81.5649H168.109V80.2979H172.489V80.1587C172.479 79.8413 172.416 79.5435 172.299 79.2651C172.187 78.9868 172.013 78.7622 171.779 78.5913C171.544 78.4204 171.232 78.335 170.841 78.335C170.548 78.335 170.287 78.3984 170.058 78.5254C169.833 78.6475 169.645 78.8257 169.494 79.0601C169.342 79.2944 169.225 79.5776 169.142 79.9097C169.064 80.2368 169.025 80.6055 169.025 81.0156V81.3086C169.025 81.6553 169.071 81.9775 169.164 82.2754C169.262 82.5684 169.403 82.8247 169.589 83.0444C169.774 83.2642 169.999 83.4375 170.263 83.5645C170.526 83.6865 170.827 83.7476 171.164 83.7476C171.588 83.7476 171.967 83.6621 172.299 83.4912C172.631 83.3203 172.919 83.0786 173.163 82.7661L174.093 83.667C173.922 83.916 173.7 84.1553 173.427 84.3848C173.153 84.6094 172.819 84.7925 172.423 84.9341C172.033 85.0757 171.579 85.1465 171.061 85.1465ZM180.055 82.854C180.055 82.6782 180.011 82.5195 179.923 82.3779C179.835 82.2314 179.667 82.0996 179.418 81.9824C179.174 81.8652 178.812 81.7578 178.334 81.6602C177.914 81.5674 177.528 81.4575 177.177 81.3306C176.83 81.1987 176.532 81.04 176.283 80.8545C176.034 80.6689 175.841 80.4492 175.705 80.1953C175.568 79.9414 175.5 79.6484 175.5 79.3164C175.5 78.9941 175.57 78.689 175.712 78.4009C175.854 78.1128 176.056 77.8589 176.32 77.6392C176.583 77.4194 176.903 77.2461 177.279 77.1191C177.66 76.9922 178.085 76.9287 178.554 76.9287C179.218 76.9287 179.787 77.041 180.26 77.2656C180.739 77.4854 181.105 77.7856 181.359 78.1665C181.613 78.5425 181.74 78.9673 181.74 79.4409H179.975C179.975 79.231 179.921 79.0356 179.813 78.855C179.711 78.6694 179.555 78.5205 179.345 78.4082C179.135 78.291 178.871 78.2324 178.554 78.2324C178.251 78.2324 178 78.2812 177.799 78.3789C177.604 78.4717 177.458 78.5938 177.36 78.7451C177.267 78.8965 177.221 79.0625 177.221 79.2432C177.221 79.375 177.245 79.4946 177.294 79.6021C177.348 79.7046 177.436 79.7998 177.558 79.8877C177.68 79.9707 177.846 80.0488 178.056 80.1221C178.271 80.1953 178.539 80.2661 178.861 80.3345C179.467 80.4614 179.987 80.625 180.421 80.8252C180.861 81.0205 181.198 81.2744 181.432 81.5869C181.667 81.8945 181.784 82.2852 181.784 82.7588C181.784 83.1104 181.708 83.4326 181.557 83.7256C181.41 84.0137 181.195 84.2651 180.912 84.48C180.629 84.6899 180.29 84.8535 179.894 84.9707C179.503 85.0879 179.064 85.1465 178.576 85.1465C177.858 85.1465 177.25 85.0195 176.752 84.7656C176.254 84.5068 175.875 84.1772 175.617 83.7769C175.363 83.3716 175.236 82.9517 175.236 82.5171H176.942C176.962 82.8442 177.052 83.1055 177.213 83.3008C177.379 83.4912 177.584 83.6304 177.829 83.7183C178.078 83.8013 178.334 83.8428 178.598 83.8428C178.915 83.8428 179.181 83.8013 179.396 83.7183C179.611 83.6304 179.774 83.5132 179.887 83.3667C179.999 83.2153 180.055 83.0444 180.055 82.854ZM187.775 82.854C187.775 82.6782 187.731 82.5195 187.643 82.3779C187.555 82.2314 187.387 82.0996 187.138 81.9824C186.894 81.8652 186.532 81.7578 186.054 81.6602C185.634 81.5674 185.248 81.4575 184.896 81.3306C184.55 81.1987 184.252 81.04 184.003 80.8545C183.754 80.6689 183.561 80.4492 183.424 80.1953C183.288 79.9414 183.219 79.6484 183.219 79.3164C183.219 78.9941 183.29 78.689 183.432 78.4009C183.573 78.1128 183.776 77.8589 184.04 77.6392C184.303 77.4194 184.623 77.2461 184.999 77.1191C185.38 76.9922 185.805 76.9287 186.273 76.9287C186.938 76.9287 187.506 77.041 187.98 77.2656C188.458 77.4854 188.825 77.7856 189.079 78.1665C189.333 78.5425 189.459 78.9673 189.459 79.4409H187.694C187.694 79.231 187.641 79.0356 187.533 78.855C187.431 78.6694 187.274 78.5205 187.064 78.4082C186.854 78.291 186.591 78.2324 186.273 78.2324C185.971 78.2324 185.719 78.2812 185.519 78.3789C185.324 78.4717 185.177 78.5938 185.08 78.7451C184.987 78.8965 184.94 79.0625 184.94 79.2432C184.94 79.375 184.965 79.4946 185.014 79.6021C185.067 79.7046 185.155 79.7998 185.277 79.8877C185.399 79.9707 185.565 80.0488 185.775 80.1221C185.99 80.1953 186.259 80.2661 186.581 80.3345C187.187 80.4614 187.707 80.625 188.141 80.8252C188.581 81.0205 188.917 81.2744 189.152 81.5869C189.386 81.8945 189.503 82.2852 189.503 82.7588C189.503 83.1104 189.428 83.4326 189.276 83.7256C189.13 84.0137 188.915 84.2651 188.632 84.48C188.349 84.6899 188.009 84.8535 187.614 84.9707C187.223 85.0879 186.784 85.1465 186.295 85.1465C185.578 85.1465 184.97 85.0195 184.472 84.7656C183.974 84.5068 183.595 84.1772 183.336 83.7769C183.083 83.3716 182.956 82.9517 182.956 82.5171H184.662C184.682 82.8442 184.772 83.1055 184.933 83.3008C185.099 83.4912 185.304 83.6304 185.548 83.7183C185.797 83.8013 186.054 83.8428 186.317 83.8428C186.635 83.8428 186.901 83.8013 187.116 83.7183C187.331 83.6304 187.494 83.5132 187.606 83.3667C187.719 83.2153 187.775 83.0444 187.775 82.854ZM192.938 77.0752V85H191.166V77.0752H192.938ZM191.049 74.9951C191.049 74.7266 191.137 74.5044 191.312 74.3286C191.493 74.1479 191.742 74.0576 192.06 74.0576C192.372 74.0576 192.619 74.1479 192.799 74.3286C192.98 74.5044 193.07 74.7266 193.07 74.9951C193.07 75.2588 192.98 75.4785 192.799 75.6543C192.619 75.8301 192.372 75.918 192.06 75.918C191.742 75.918 191.493 75.8301 191.312 75.6543C191.137 75.4785 191.049 75.2588 191.049 74.9951ZM194.535 81.1255V80.957C194.535 80.3857 194.618 79.856 194.784 79.3677C194.95 78.8745 195.189 78.4473 195.502 78.0859C195.819 77.7197 196.205 77.4365 196.659 77.2363C197.118 77.0312 197.636 76.9287 198.212 76.9287C198.793 76.9287 199.311 77.0312 199.765 77.2363C200.224 77.4365 200.612 77.7197 200.929 78.0859C201.247 78.4473 201.488 78.8745 201.654 79.3677C201.82 79.856 201.903 80.3857 201.903 80.957V81.1255C201.903 81.6968 201.82 82.2266 201.654 82.7148C201.488 83.2031 201.247 83.6304 200.929 83.9966C200.612 84.3579 200.226 84.6411 199.772 84.8462C199.318 85.0464 198.803 85.1465 198.227 85.1465C197.646 85.1465 197.125 85.0464 196.667 84.8462C196.212 84.6411 195.827 84.3579 195.509 83.9966C195.192 83.6304 194.95 83.2031 194.784 82.7148C194.618 82.2266 194.535 81.6968 194.535 81.1255ZM196.3 80.957V81.1255C196.3 81.4819 196.337 81.8188 196.41 82.1362C196.483 82.4536 196.598 82.7319 196.754 82.9712C196.911 83.2104 197.111 83.3984 197.355 83.5352C197.599 83.6719 197.89 83.7402 198.227 83.7402C198.554 83.7402 198.837 83.6719 199.076 83.5352C199.32 83.3984 199.521 83.2104 199.677 82.9712C199.833 82.7319 199.948 82.4536 200.021 82.1362C200.099 81.8188 200.138 81.4819 200.138 81.1255V80.957C200.138 80.6055 200.099 80.2734 200.021 79.9609C199.948 79.6436 199.831 79.3628 199.669 79.1187C199.513 78.8745 199.313 78.6841 199.069 78.5474C198.83 78.4058 198.544 78.335 198.212 78.335C197.88 78.335 197.592 78.4058 197.348 78.5474C197.108 78.6841 196.911 78.8745 196.754 79.1187C196.598 79.3628 196.483 79.6436 196.41 79.9609C196.337 80.2734 196.3 80.6055 196.3 80.957ZM205.133 78.7671V85H203.368V77.0752H205.031L205.133 78.7671ZM204.818 80.7446L204.247 80.7373C204.252 80.1758 204.33 79.6606 204.481 79.1919C204.638 78.7231 204.853 78.3203 205.126 77.9834C205.404 77.6465 205.736 77.3877 206.122 77.207C206.508 77.0215 206.938 76.9287 207.411 76.9287C207.792 76.9287 208.136 76.9824 208.444 77.0898C208.756 77.1924 209.022 77.3608 209.242 77.5952C209.467 77.8296 209.638 78.1348 209.755 78.5107C209.872 78.8818 209.931 79.3384 209.931 79.8804V85H208.158V79.873C208.158 79.4922 208.102 79.1919 207.99 78.9722C207.882 78.7476 207.724 78.5889 207.514 78.4961C207.309 78.3984 207.052 78.3496 206.745 78.3496C206.442 78.3496 206.171 78.4131 205.932 78.54C205.692 78.667 205.49 78.8403 205.324 79.0601C205.163 79.2798 205.038 79.5337 204.95 79.8218C204.862 80.1099 204.818 80.4175 204.818 80.7446Z" fill="#286EF1"/>
<path d="M227 116H40V124H227V116Z" fill="#286EF1" mask="url(#path-10-inside-2_3378_49318)"/>
<rect width="162" height="80" transform="translate(227 40)" fill="white" fill-opacity="0.01"/>
<path d="M248.276 80C248.276 78.5262 249.471 77.375 251 77.375C252.504 77.375 253.724 78.5262 253.724 80C253.724 81.4492 252.504 82.625 251 82.625C249.471 82.625 248.276 81.4492 248.276 80ZM251 78.6875C250.248 78.6875 249.638 79.2754 249.638 80C249.638 80.7246 250.248 81.3125 251 81.3125C251.752 81.3125 252.362 80.7246 252.362 80C252.362 79.2754 251.752 78.6875 251 78.6875ZM252.053 73C252.683 73 253.231 73.4154 253.378 74.0046L253.6 74.8925C253.841 75.0059 254.071 75.1347 254.289 75.2772L255.2 75.0188C255.804 74.8473 256.451 75.0964 256.766 75.6214L257.819 77.3777C258.131 77.9027 258.032 78.5672 257.578 78.9855L256.888 79.5926C256.897 79.743 256.903 79.8715 256.903 80C256.903 80.1285 256.897 80.257 256.888 80.3828L257.578 81.0145C258.032 81.4328 258.131 82.0973 257.819 82.6223L256.766 84.3777C256.451 84.9027 255.804 85.1516 255.2 84.982L254.289 84.7223C254.071 84.8645 253.841 84.993 253.6 85.1078L253.378 85.9965C253.231 86.5844 252.683 87 252.053 87H249.947C249.317 87 248.77 86.5844 248.622 85.9965L248.401 85.1078C248.16 84.993 247.93 84.8645 247.711 84.7223L246.775 84.982C246.197 85.1516 245.55 84.9027 245.235 84.3777L244.183 82.6223C243.868 82.0973 243.967 81.4328 244.423 81.0145L245.111 80.3828C245.102 80.257 245.098 80.1285 245.098 79.9754C245.098 79.8715 245.102 79.743 245.111 79.5926L244.423 78.9855C243.967 78.5672 243.868 77.9027 244.183 77.3777L245.235 75.6214C245.55 75.0964 246.197 74.8473 246.775 75.0188L247.711 75.2772C247.93 75.1347 248.16 75.0059 248.401 74.8925L248.622 74.0046C248.77 73.4151 249.317 73 249.947 73L252.053 73ZM249.567 75.8328L249.249 75.9613C248.889 76.1063 248.554 76.2949 248.25 76.5191L247.975 76.7215L246.415 76.2785L245.362 78.034L246.54 79.1141L246.496 79.4422C246.472 79.6254 246.46 79.8113 246.46 80C246.46 80.1887 246.472 80.3746 246.496 80.5578L246.54 80.8859L245.362 81.966L246.415 83.7215L247.975 83.2785L248.25 83.4809C248.554 83.7051 248.889 83.8938 249.249 84.0387L249.567 84.1672L249.947 85.6875H252.053L252.433 84.1672L252.751 84.0387C253.111 83.8938 253.446 83.7051 253.75 83.4809L254.025 83.2785L255.586 83.7215L256.639 81.966L255.461 80.8859L255.504 80.5578C255.529 80.3746 255.541 80.1887 255.541 80C255.541 79.8113 255.529 79.6254 255.504 79.4422L255.461 79.1141L256.639 78.034L255.586 76.2785L254.025 76.7215L253.75 76.5191C253.446 76.2949 253.111 76.1063 252.751 75.9613L252.433 75.8328L252.053 74.3125H249.947L249.567 75.8328Z" fill="#505050"/>
<path d="M268.471 74.3359V85H266.647V74.3359H268.471ZM271.818 74.3359V75.8008H263.33V74.3359H271.818ZM271.687 81.1255V80.957C271.687 80.3857 271.77 79.856 271.936 79.3677C272.102 78.8745 272.341 78.4473 272.653 78.0859C272.971 77.7197 273.356 77.4365 273.811 77.2363C274.27 77.0312 274.787 76.9287 275.363 76.9287C275.944 76.9287 276.462 77.0312 276.916 77.2363C277.375 77.4365 277.763 77.7197 278.081 78.0859C278.398 78.4473 278.64 78.8745 278.806 79.3677C278.972 79.856 279.055 80.3857 279.055 80.957V81.1255C279.055 81.6968 278.972 82.2266 278.806 82.7148C278.64 83.2031 278.398 83.6304 278.081 83.9966C277.763 84.3579 277.377 84.6411 276.923 84.8462C276.469 85.0464 275.954 85.1465 275.378 85.1465C274.797 85.1465 274.277 85.0464 273.818 84.8462C273.364 84.6411 272.978 84.3579 272.661 83.9966C272.343 83.6304 272.102 83.2031 271.936 82.7148C271.77 82.2266 271.687 81.6968 271.687 81.1255ZM273.452 80.957V81.1255C273.452 81.4819 273.488 81.8188 273.562 82.1362C273.635 82.4536 273.75 82.7319 273.906 82.9712C274.062 83.2104 274.262 83.3984 274.506 83.5352C274.75 83.6719 275.041 83.7402 275.378 83.7402C275.705 83.7402 275.988 83.6719 276.228 83.5352C276.472 83.3984 276.672 83.2104 276.828 82.9712C276.984 82.7319 277.099 82.4536 277.172 82.1362C277.25 81.8188 277.29 81.4819 277.29 81.1255V80.957C277.29 80.6055 277.25 80.2734 277.172 79.9609C277.099 79.6436 276.982 79.3628 276.821 79.1187C276.665 78.8745 276.464 78.6841 276.22 78.5474C275.981 78.4058 275.695 78.335 275.363 78.335C275.031 78.335 274.743 78.4058 274.499 78.5474C274.26 78.6841 274.062 78.8745 273.906 79.1187C273.75 79.3628 273.635 79.6436 273.562 79.9609C273.488 80.2734 273.452 80.6055 273.452 80.957ZM280.197 81.1255V80.957C280.197 80.3857 280.28 79.856 280.446 79.3677C280.612 78.8745 280.852 78.4473 281.164 78.0859C281.481 77.7197 281.867 77.4365 282.321 77.2363C282.78 77.0312 283.298 76.9287 283.874 76.9287C284.455 76.9287 284.973 77.0312 285.427 77.2363C285.886 77.4365 286.274 77.7197 286.591 78.0859C286.909 78.4473 287.15 78.8745 287.316 79.3677C287.482 79.856 287.565 80.3857 287.565 80.957V81.1255C287.565 81.6968 287.482 82.2266 287.316 82.7148C287.15 83.2031 286.909 83.6304 286.591 83.9966C286.274 84.3579 285.888 84.6411 285.434 84.8462C284.98 85.0464 284.465 85.1465 283.889 85.1465C283.308 85.1465 282.788 85.0464 282.329 84.8462C281.875 84.6411 281.489 84.3579 281.171 83.9966C280.854 83.6304 280.612 83.2031 280.446 82.7148C280.28 82.2266 280.197 81.6968 280.197 81.1255ZM281.962 80.957V81.1255C281.962 81.4819 281.999 81.8188 282.072 82.1362C282.146 82.4536 282.26 82.7319 282.417 82.9712C282.573 83.2104 282.773 83.3984 283.017 83.5352C283.261 83.6719 283.552 83.7402 283.889 83.7402C284.216 83.7402 284.499 83.6719 284.738 83.5352C284.982 83.3984 285.183 83.2104 285.339 82.9712C285.495 82.7319 285.61 82.4536 285.683 82.1362C285.761 81.8188 285.8 81.4819 285.8 81.1255V80.957C285.8 80.6055 285.761 80.2734 285.683 79.9609C285.61 79.6436 285.493 79.3628 285.332 79.1187C285.175 78.8745 284.975 78.6841 284.731 78.5474C284.492 78.4058 284.206 78.335 283.874 78.335C283.542 78.335 283.254 78.4058 283.01 78.5474C282.771 78.6841 282.573 78.8745 282.417 79.1187C282.26 79.3628 282.146 79.6436 282.072 79.9609C281.999 80.2734 281.962 80.6055 281.962 80.957ZM290.935 73.75V85H289.162V73.75H290.935ZM297.314 82.854C297.314 82.6782 297.27 82.5195 297.182 82.3779C297.094 82.2314 296.926 82.0996 296.677 81.9824C296.433 81.8652 296.071 81.7578 295.593 81.6602C295.173 81.5674 294.787 81.4575 294.436 81.3306C294.089 81.1987 293.791 81.04 293.542 80.8545C293.293 80.6689 293.1 80.4492 292.963 80.1953C292.827 79.9414 292.758 79.6484 292.758 79.3164C292.758 78.9941 292.829 78.689 292.971 78.4009C293.112 78.1128 293.315 77.8589 293.579 77.6392C293.842 77.4194 294.162 77.2461 294.538 77.1191C294.919 76.9922 295.344 76.9287 295.812 76.9287C296.477 76.9287 297.045 77.041 297.519 77.2656C297.998 77.4854 298.364 77.7856 298.618 78.1665C298.872 78.5425 298.999 78.9673 298.999 79.4409H297.233C297.233 79.231 297.18 79.0356 297.072 78.855C296.97 78.6694 296.813 78.5205 296.604 78.4082C296.394 78.291 296.13 78.2324 295.812 78.2324C295.51 78.2324 295.258 78.2812 295.058 78.3789C294.863 78.4717 294.716 78.5938 294.619 78.7451C294.526 78.8965 294.479 79.0625 294.479 79.2432C294.479 79.375 294.504 79.4946 294.553 79.6021C294.606 79.7046 294.694 79.7998 294.816 79.8877C294.938 79.9707 295.104 80.0488 295.314 80.1221C295.529 80.1953 295.798 80.2661 296.12 80.3345C296.726 80.4614 297.246 80.625 297.68 80.8252C298.12 81.0205 298.457 81.2744 298.691 81.5869C298.925 81.8945 299.042 82.2852 299.042 82.7588C299.042 83.1104 298.967 83.4326 298.815 83.7256C298.669 84.0137 298.454 84.2651 298.171 84.48C297.888 84.6899 297.548 84.8535 297.153 84.9707C296.762 85.0879 296.323 85.1465 295.834 85.1465C295.117 85.1465 294.509 85.0195 294.011 84.7656C293.513 84.5068 293.134 84.1772 292.875 83.7769C292.622 83.3716 292.495 82.9517 292.495 82.5171H294.201C294.221 82.8442 294.311 83.1055 294.472 83.3008C294.638 83.4912 294.843 83.6304 295.087 83.7183C295.336 83.8013 295.593 83.8428 295.856 83.8428C296.174 83.8428 296.44 83.8013 296.655 83.7183C296.87 83.6304 297.033 83.5132 297.146 83.3667C297.258 83.2153 297.314 83.0444 297.314 82.854ZM306.147 79.1992L307.985 77.9614C308.293 77.7563 308.513 77.5562 308.645 77.3608C308.776 77.1606 308.842 76.9116 308.842 76.6138C308.842 76.3599 308.745 76.1255 308.549 75.9106C308.354 75.6958 308.078 75.5884 307.722 75.5884C307.473 75.5884 307.263 75.647 307.092 75.7642C306.921 75.8765 306.792 76.0278 306.704 76.2183C306.621 76.4038 306.579 76.6113 306.579 76.8408C306.579 77.0605 306.635 77.2876 306.748 77.522C306.86 77.7515 307.014 77.9932 307.209 78.2471C307.404 78.4961 307.624 78.7646 307.868 79.0527L312.907 85H310.864L306.748 80.1587C306.391 79.729 306.076 79.3359 305.803 78.9795C305.529 78.6182 305.317 78.269 305.166 77.9321C305.014 77.5903 304.938 77.2388 304.938 76.8774C304.938 76.3208 305.053 75.8423 305.283 75.4419C305.512 75.0415 305.837 74.7339 306.257 74.519C306.677 74.2993 307.167 74.1895 307.729 74.1895C308.271 74.1895 308.737 74.2993 309.128 74.519C309.523 74.7339 309.826 75.0195 310.036 75.376C310.251 75.7324 310.358 76.123 310.358 76.5479C310.358 76.8848 310.297 77.1924 310.175 77.4707C310.053 77.749 309.885 78.0029 309.67 78.2324C309.455 78.4619 309.206 78.6792 308.923 78.8843L306.689 80.5103C306.43 80.7202 306.237 80.9229 306.11 81.1182C305.988 81.3086 305.908 81.4844 305.869 81.6455C305.83 81.8066 305.81 81.9482 305.81 82.0703C305.81 82.3828 305.876 82.666 306.008 82.9199C306.145 83.1738 306.342 83.3765 306.601 83.5278C306.865 83.6743 307.185 83.7476 307.561 83.7476C307.966 83.7476 308.359 83.6572 308.74 83.4766C309.121 83.291 309.462 83.0298 309.765 82.6929C310.068 82.356 310.307 81.9531 310.483 81.4844C310.664 81.0156 310.754 80.4956 310.754 79.9243H312.277C312.277 80.4419 312.226 80.9326 312.124 81.3965C312.026 81.8604 311.867 82.29 311.647 82.6855C311.433 83.0811 311.149 83.4351 310.798 83.7476C310.764 83.7817 310.725 83.8257 310.681 83.8794C310.642 83.9282 310.603 83.9697 310.563 84.0039C310.144 84.3896 309.672 84.6777 309.15 84.8682C308.632 85.0537 308.081 85.1465 307.495 85.1465C306.787 85.1465 306.174 85.0171 305.656 84.7583C305.139 84.4995 304.738 84.1431 304.455 83.689C304.177 83.2349 304.038 82.7148 304.038 82.1289C304.038 81.6943 304.128 81.3135 304.309 80.9863C304.489 80.6543 304.736 80.3467 305.048 80.0635C305.366 79.7754 305.732 79.4873 306.147 79.1992ZM323.469 82.2534C323.469 82.0337 323.435 81.8384 323.366 81.6675C323.303 81.4966 323.188 81.3403 323.022 81.1987C322.856 81.0571 322.622 80.9204 322.319 80.7886C322.021 80.6519 321.64 80.5127 321.176 80.3711C320.668 80.2148 320.2 80.0415 319.77 79.8511C319.345 79.6558 318.974 79.4312 318.657 79.1772C318.339 78.9185 318.093 78.623 317.917 78.291C317.741 77.9541 317.653 77.5659 317.653 77.1265C317.653 76.6919 317.744 76.2964 317.924 75.9399C318.11 75.5835 318.371 75.2759 318.708 75.0171C319.05 74.7534 319.453 74.5508 319.917 74.4092C320.38 74.2627 320.893 74.1895 321.455 74.1895C322.246 74.1895 322.927 74.3359 323.498 74.6289C324.074 74.9219 324.516 75.3149 324.824 75.8081C325.136 76.3013 325.292 76.8457 325.292 77.4414H323.469C323.469 77.0898 323.393 76.7798 323.242 76.5112C323.095 76.2378 322.871 76.0229 322.568 75.8667C322.27 75.7104 321.892 75.6323 321.433 75.6323C320.998 75.6323 320.637 75.6982 320.349 75.8301C320.061 75.9619 319.846 76.1401 319.704 76.3647C319.562 76.5894 319.492 76.8433 319.492 77.1265C319.492 77.3267 319.538 77.5098 319.631 77.6758C319.724 77.8369 319.865 77.9883 320.056 78.1299C320.246 78.2666 320.485 78.396 320.773 78.5181C321.062 78.6401 321.401 78.7573 321.792 78.8696C322.382 79.0454 322.897 79.2407 323.337 79.4556C323.776 79.6655 324.143 79.9048 324.436 80.1733C324.729 80.4419 324.948 80.7471 325.095 81.0889C325.241 81.4258 325.314 81.8091 325.314 82.2388C325.314 82.688 325.224 83.0933 325.043 83.4546C324.863 83.811 324.604 84.1162 324.267 84.3701C323.935 84.6191 323.535 84.812 323.066 84.9487C322.602 85.0806 322.084 85.1465 321.513 85.1465C321 85.1465 320.495 85.0781 319.997 84.9414C319.504 84.8047 319.055 84.5972 318.649 84.3188C318.244 84.0356 317.922 83.6841 317.683 83.2642C317.443 82.8394 317.324 82.3438 317.324 81.7773H319.162C319.162 82.124 319.221 82.4194 319.338 82.6636C319.46 82.9077 319.628 83.1079 319.843 83.2642C320.058 83.4155 320.307 83.5278 320.59 83.6011C320.878 83.6743 321.186 83.7109 321.513 83.7109C321.943 83.7109 322.302 83.6499 322.59 83.5278C322.883 83.4058 323.103 83.2349 323.249 83.0151C323.396 82.7954 323.469 82.5415 323.469 82.2534ZM330.258 85.1465C329.672 85.1465 329.143 85.0513 328.669 84.8608C328.2 84.6655 327.8 84.3945 327.468 84.0479C327.141 83.7012 326.889 83.2935 326.713 82.8247C326.538 82.356 326.45 81.8506 326.45 81.3086V81.0156C326.45 80.3955 326.54 79.834 326.721 79.3311C326.901 78.8281 327.153 78.3984 327.475 78.042C327.797 77.6807 328.178 77.4048 328.618 77.2144C329.057 77.0239 329.533 76.9287 330.046 76.9287C330.612 76.9287 331.108 77.0239 331.533 77.2144C331.958 77.4048 332.309 77.6733 332.587 78.02C332.871 78.3618 333.081 78.7695 333.217 79.2432C333.359 79.7168 333.43 80.2393 333.43 80.8105V81.5649H327.307V80.2979H331.687V80.1587C331.677 79.8413 331.613 79.5435 331.496 79.2651C331.384 78.9868 331.21 78.7622 330.976 78.5913C330.742 78.4204 330.429 78.335 330.039 78.335C329.746 78.335 329.484 78.3984 329.255 78.5254C329.03 78.6475 328.842 78.8257 328.691 79.0601C328.54 79.2944 328.422 79.5776 328.339 79.9097C328.261 80.2368 328.222 80.6055 328.222 81.0156V81.3086C328.222 81.6553 328.269 81.9775 328.361 82.2754C328.459 82.5684 328.601 82.8247 328.786 83.0444C328.972 83.2642 329.196 83.4375 329.46 83.5645C329.724 83.6865 330.024 83.7476 330.361 83.7476C330.786 83.7476 331.164 83.6621 331.496 83.4912C331.828 83.3203 332.116 83.0786 332.36 82.7661L333.291 83.667C333.12 83.916 332.897 84.1553 332.624 84.3848C332.351 84.6094 332.016 84.7925 331.621 84.9341C331.23 85.0757 330.776 85.1465 330.258 85.1465ZM338.439 77.0752V78.3643H333.972V77.0752H338.439ZM335.261 75.1343H337.026V82.8101C337.026 83.0542 337.06 83.2422 337.128 83.374C337.202 83.501 337.302 83.5864 337.429 83.6304C337.556 83.6743 337.705 83.6963 337.875 83.6963C337.998 83.6963 338.115 83.689 338.227 83.6743C338.339 83.6597 338.43 83.645 338.498 83.6304L338.505 84.978C338.359 85.022 338.188 85.061 337.993 85.0952C337.802 85.1294 337.583 85.1465 337.333 85.1465C336.928 85.1465 336.569 85.0757 336.257 84.9341C335.944 84.7876 335.7 84.5508 335.524 84.2236C335.349 83.8965 335.261 83.4619 335.261 82.9199V75.1343ZM343.435 77.0752V78.3643H338.967V77.0752H343.435ZM340.256 75.1343H342.021V82.8101C342.021 83.0542 342.055 83.2422 342.124 83.374C342.197 83.501 342.297 83.5864 342.424 83.6304C342.551 83.6743 342.7 83.6963 342.871 83.6963C342.993 83.6963 343.11 83.689 343.222 83.6743C343.334 83.6597 343.425 83.645 343.493 83.6304L343.5 84.978C343.354 85.022 343.183 85.061 342.988 85.0952C342.797 85.1294 342.578 85.1465 342.329 85.1465C341.923 85.1465 341.564 85.0757 341.252 84.9341C340.939 84.7876 340.695 84.5508 340.52 84.2236C340.344 83.8965 340.256 83.4619 340.256 82.9199V75.1343ZM346.687 77.0752V85H344.914V77.0752H346.687ZM344.797 74.9951C344.797 74.7266 344.885 74.5044 345.061 74.3286C345.241 74.1479 345.49 74.0576 345.808 74.0576C346.12 74.0576 346.367 74.1479 346.547 74.3286C346.728 74.5044 346.818 74.7266 346.818 74.9951C346.818 75.2588 346.728 75.4785 346.547 75.6543C346.367 75.8301 346.12 75.918 345.808 75.918C345.49 75.918 345.241 75.8301 345.061 75.6543C344.885 75.4785 344.797 75.2588 344.797 74.9951ZM350.371 78.7671V85H348.605V77.0752H350.268L350.371 78.7671ZM350.056 80.7446L349.484 80.7373C349.489 80.1758 349.567 79.6606 349.719 79.1919C349.875 78.7231 350.09 78.3203 350.363 77.9834C350.642 77.6465 350.974 77.3877 351.359 77.207C351.745 77.0215 352.175 76.9287 352.648 76.9287C353.029 76.9287 353.374 76.9824 353.681 77.0898C353.994 77.1924 354.26 77.3608 354.479 77.5952C354.704 77.8296 354.875 78.1348 354.992 78.5107C355.109 78.8818 355.168 79.3384 355.168 79.8804V85H353.396V79.873C353.396 79.4922 353.339 79.1919 353.227 78.9722C353.12 78.7476 352.961 78.5889 352.751 78.4961C352.546 78.3984 352.29 78.3496 351.982 78.3496C351.679 78.3496 351.408 78.4131 351.169 78.54C350.93 78.667 350.727 78.8403 350.561 79.0601C350.4 79.2798 350.275 79.5337 350.188 79.8218C350.1 80.1099 350.056 80.4175 350.056 80.7446ZM362.045 77.0752H363.649V84.7803C363.649 85.4932 363.498 86.0986 363.195 86.5967C362.893 87.0947 362.47 87.4731 361.928 87.7319C361.386 87.9956 360.759 88.1274 360.046 88.1274C359.743 88.1274 359.406 88.0835 359.035 87.9956C358.669 87.9077 358.312 87.7661 357.966 87.5708C357.624 87.3804 357.338 87.1289 357.109 86.8164L357.937 85.7764C358.22 86.1133 358.532 86.3599 358.874 86.5161C359.216 86.6724 359.575 86.7505 359.951 86.7505C360.356 86.7505 360.7 86.6748 360.983 86.5234C361.271 86.377 361.494 86.1597 361.65 85.8716C361.806 85.5835 361.884 85.2319 361.884 84.8169V78.8696L362.045 77.0752ZM356.662 81.1255V80.9717C356.662 80.3711 356.735 79.8242 356.882 79.3311C357.028 78.833 357.238 78.4058 357.512 78.0493C357.785 77.688 358.117 77.4121 358.508 77.2217C358.898 77.0264 359.34 76.9287 359.833 76.9287C360.346 76.9287 360.783 77.0215 361.145 77.207C361.511 77.3926 361.816 77.6587 362.06 78.0054C362.304 78.3472 362.495 78.7573 362.631 79.2358C362.773 79.7095 362.878 80.2368 362.946 80.8179V81.3086C362.883 81.875 362.775 82.3926 362.624 82.8613C362.473 83.3301 362.272 83.7354 362.023 84.0771C361.774 84.4189 361.467 84.6826 361.101 84.8682C360.739 85.0537 360.312 85.1465 359.819 85.1465C359.335 85.1465 358.898 85.0464 358.508 84.8462C358.122 84.646 357.79 84.3652 357.512 84.0039C357.238 83.6426 357.028 83.2178 356.882 82.7295C356.735 82.2363 356.662 81.7017 356.662 81.1255ZM358.427 80.9717V81.1255C358.427 81.4868 358.461 81.8237 358.53 82.1362C358.603 82.4487 358.713 82.7246 358.859 82.9639C359.011 83.1982 359.201 83.3838 359.431 83.5205C359.665 83.6523 359.941 83.7183 360.258 83.7183C360.673 83.7183 361.013 83.6304 361.276 83.4546C361.545 83.2788 361.75 83.042 361.892 82.7441C362.038 82.4414 362.141 82.1045 362.199 81.7334V80.4077C362.17 80.1196 362.109 79.8511 362.016 79.6021C361.928 79.353 361.809 79.1357 361.657 78.9502C361.506 78.7598 361.315 78.6133 361.086 78.5107C360.856 78.4033 360.585 78.3496 360.273 78.3496C359.956 78.3496 359.68 78.418 359.445 78.5547C359.211 78.6914 359.018 78.8794 358.867 79.1187C358.72 79.3579 358.61 79.6362 358.537 79.9536C358.464 80.271 358.427 80.6104 358.427 80.9717ZM369.926 82.854C369.926 82.6782 369.882 82.5195 369.794 82.3779C369.707 82.2314 369.538 82.0996 369.289 81.9824C369.045 81.8652 368.684 81.7578 368.205 81.6602C367.785 81.5674 367.399 81.4575 367.048 81.3306C366.701 81.1987 366.403 81.04 366.154 80.8545C365.905 80.6689 365.712 80.4492 365.576 80.1953C365.439 79.9414 365.371 79.6484 365.371 79.3164C365.371 78.9941 365.441 78.689 365.583 78.4009C365.725 78.1128 365.927 77.8589 366.191 77.6392C366.455 77.4194 366.774 77.2461 367.15 77.1191C367.531 76.9922 367.956 76.9287 368.425 76.9287C369.089 76.9287 369.658 77.041 370.131 77.2656C370.61 77.4854 370.976 77.7856 371.23 78.1665C371.484 78.5425 371.611 78.9673 371.611 79.4409H369.846C369.846 79.231 369.792 79.0356 369.685 78.855C369.582 78.6694 369.426 78.5205 369.216 78.4082C369.006 78.291 368.742 78.2324 368.425 78.2324C368.122 78.2324 367.871 78.2812 367.67 78.3789C367.475 78.4717 367.329 78.5938 367.231 78.7451C367.138 78.8965 367.092 79.0625 367.092 79.2432C367.092 79.375 367.116 79.4946 367.165 79.6021C367.219 79.7046 367.307 79.7998 367.429 79.8877C367.551 79.9707 367.717 80.0488 367.927 80.1221C368.142 80.1953 368.41 80.2661 368.732 80.3345C369.338 80.4614 369.858 80.625 370.292 80.8252C370.732 81.0205 371.069 81.2744 371.303 81.5869C371.538 81.8945 371.655 82.2852 371.655 82.7588C371.655 83.1104 371.579 83.4326 371.428 83.7256C371.281 84.0137 371.066 84.2651 370.783 84.48C370.5 84.6899 370.161 84.8535 369.765 84.9707C369.375 85.0879 368.935 85.1465 368.447 85.1465C367.729 85.1465 367.121 85.0195 366.623 84.7656C366.125 84.5068 365.747 84.1772 365.488 83.7769C365.234 83.3716 365.107 82.9517 365.107 82.5171H366.813C366.833 82.8442 366.923 83.1055 367.084 83.3008C367.25 83.4912 367.456 83.6304 367.7 83.7183C367.949 83.8013 368.205 83.8428 368.469 83.8428C368.786 83.8428 369.052 83.8013 369.267 83.7183C369.482 83.6304 369.646 83.5132 369.758 83.3667C369.87 83.2153 369.926 83.0444 369.926 82.854Z" fill="#505050"/>
<rect width="126" height="80" transform="translate(389 40)" fill="white" fill-opacity="0.01"/>
<path d="M413 73C409.15 73 406 76.15 406 80C406 83.85 409.15 87 413 87C416.85 87 420 83.85 420 80C420 76.15 416.85 73 413 73ZM413 85.6C411.88 85.6 410.9 84.62 410.9 83.5C410.9 82.38 411.88 81.4 413 81.4C414.12 81.4 415.1 82.38 415.1 83.5C415.1 84.62 414.12 85.6 413 85.6ZM416.78 82.52C416.71 82.8 416.64 83.08 416.5 83.36C416.43 82.45 416.08 81.68 415.45 81.05C414.82 80.35 413.91 80 413 80C412.3 80 411.6 80.21 411.04 80.56C410.48 80.91 409.99 81.47 409.78 82.1C409.64 82.52 409.5 82.94 409.5 83.36C409.29 82.87 409.15 82.31 409.15 81.75C409.15 80.7 409.57 79.72 410.27 79.02C410.97 78.32 411.95 77.9 413 77.9C413.77 77.9 414.54 78.11 415.17 78.53C415.8 78.95 416.29 79.58 416.57 80.28C416.85 80.98 416.92 81.75 416.78 82.52ZM418.18 81.96C418.18 81.89 418.18 81.82 418.18 81.75C418.18 80.35 417.62 79.02 416.64 78.04C415.66 77.06 414.4 76.5 413 76.5C411.95 76.5 410.97 76.78 410.06 77.41C409.22 77.97 408.52 78.81 408.1 79.79C407.82 80.49 407.68 81.26 407.68 82.03C407.54 81.33 407.4 80.7 407.4 80C407.4 78.53 407.96 77.06 409.01 76.01C410.06 74.96 411.53 74.4 413 74.4C414.12 74.4 415.17 74.75 416.08 75.31C416.99 75.94 417.69 76.78 418.11 77.83C418.6 78.88 418.74 80 418.46 81.12C418.39 81.4 418.32 81.68 418.18 81.96Z" fill="#1A1A1A"/>
<path d="M431.694 82.2534C431.694 82.0337 431.66 81.8384 431.592 81.6675C431.528 81.4966 431.414 81.3403 431.248 81.1987C431.082 81.0571 430.847 80.9204 430.544 80.7886C430.247 80.6519 429.866 80.5127 429.402 80.3711C428.894 80.2148 428.425 80.0415 427.996 79.8511C427.571 79.6558 427.2 79.4312 426.882 79.1772C426.565 78.9185 426.318 78.623 426.143 78.291C425.967 77.9541 425.879 77.5659 425.879 77.1265C425.879 76.6919 425.969 76.2964 426.15 75.9399C426.335 75.5835 426.597 75.2759 426.934 75.0171C427.275 74.7534 427.678 74.5508 428.142 74.4092C428.606 74.2627 429.119 74.1895 429.68 74.1895C430.471 74.1895 431.152 74.3359 431.724 74.6289C432.3 74.9219 432.742 75.3149 433.049 75.8081C433.362 76.3013 433.518 76.8457 433.518 77.4414H431.694C431.694 77.0898 431.619 76.7798 431.467 76.5112C431.321 76.2378 431.096 76.0229 430.793 75.8667C430.496 75.7104 430.117 75.6323 429.658 75.6323C429.224 75.6323 428.862 75.6982 428.574 75.8301C428.286 75.9619 428.071 76.1401 427.93 76.3647C427.788 76.5894 427.717 76.8433 427.717 77.1265C427.717 77.3267 427.764 77.5098 427.856 77.6758C427.949 77.8369 428.091 77.9883 428.281 78.1299C428.472 78.2666 428.711 78.396 428.999 78.5181C429.287 78.6401 429.626 78.7573 430.017 78.8696C430.608 79.0454 431.123 79.2407 431.562 79.4556C432.002 79.6655 432.368 79.9048 432.661 80.1733C432.954 80.4419 433.174 80.7471 433.32 81.0889C433.467 81.4258 433.54 81.8091 433.54 82.2388C433.54 82.688 433.45 83.0933 433.269 83.4546C433.088 83.811 432.83 84.1162 432.493 84.3701C432.161 84.6191 431.76 84.812 431.292 84.9487C430.828 85.0806 430.31 85.1465 429.739 85.1465C429.226 85.1465 428.721 85.0781 428.223 84.9414C427.729 84.8047 427.28 84.5972 426.875 84.3188C426.47 84.0356 426.147 83.6841 425.908 83.2642C425.669 82.8394 425.549 82.3438 425.549 81.7773H427.388C427.388 82.124 427.446 82.4194 427.563 82.6636C427.686 82.9077 427.854 83.1079 428.069 83.2642C428.284 83.4155 428.533 83.5278 428.816 83.6011C429.104 83.6743 429.412 83.7109 429.739 83.7109C430.168 83.7109 430.527 83.6499 430.815 83.5278C431.108 83.4058 431.328 83.2349 431.475 83.0151C431.621 82.7954 431.694 82.5415 431.694 82.2534ZM436.755 78.6865V85H434.99V77.0752H436.653L436.755 78.6865ZM436.47 80.7446L435.869 80.7373C435.869 80.1904 435.938 79.6851 436.074 79.2212C436.211 78.7573 436.411 78.3545 436.675 78.0127C436.938 77.666 437.266 77.3999 437.656 77.2144C438.052 77.0239 438.508 76.9287 439.026 76.9287C439.387 76.9287 439.717 76.9824 440.015 77.0898C440.317 77.1924 440.579 77.356 440.798 77.5806C441.023 77.8052 441.194 78.0933 441.311 78.4448C441.433 78.7964 441.494 79.2212 441.494 79.7192V85H439.729V79.873C439.729 79.4873 439.67 79.1846 439.553 78.9648C439.441 78.7451 439.277 78.5889 439.062 78.4961C438.853 78.3984 438.601 78.3496 438.308 78.3496C437.976 78.3496 437.693 78.4131 437.458 78.54C437.229 78.667 437.041 78.8403 436.895 79.0601C436.748 79.2798 436.641 79.5337 436.572 79.8218C436.504 80.1099 436.47 80.4175 436.47 80.7446ZM441.384 80.2759L440.557 80.459C440.557 79.9805 440.623 79.5288 440.754 79.104C440.891 78.6743 441.089 78.2983 441.348 77.9761C441.611 77.6489 441.936 77.3926 442.322 77.207C442.708 77.0215 443.149 76.9287 443.647 76.9287C444.053 76.9287 444.414 76.9849 444.731 77.0972C445.054 77.2046 445.327 77.3755 445.552 77.6099C445.776 77.8442 445.947 78.1494 446.064 78.5254C446.182 78.8965 446.24 79.3457 446.24 79.873V85H444.468V79.8657C444.468 79.4653 444.409 79.1553 444.292 78.9355C444.18 78.7158 444.019 78.5645 443.809 78.4814C443.599 78.3936 443.347 78.3496 443.054 78.3496C442.781 78.3496 442.539 78.4009 442.329 78.5034C442.124 78.6011 441.951 78.7402 441.809 78.9209C441.667 79.0967 441.56 79.2993 441.487 79.5288C441.418 79.7583 441.384 80.0073 441.384 80.2759ZM452.825 83.1323V77.0752H454.597V85H452.927L452.825 83.1323ZM453.074 81.4844L453.667 81.4697C453.667 82.002 453.608 82.4927 453.491 82.9419C453.374 83.3862 453.193 83.7744 452.949 84.1064C452.705 84.4336 452.393 84.6899 452.012 84.8755C451.631 85.0562 451.174 85.1465 450.642 85.1465C450.256 85.1465 449.902 85.0903 449.58 84.978C449.258 84.8657 448.979 84.6924 448.745 84.458C448.516 84.2236 448.337 83.9185 448.21 83.5425C448.083 83.1665 448.02 82.7173 448.02 82.1948V77.0752H449.785V82.2095C449.785 82.4976 449.819 82.7393 449.888 82.9346C449.956 83.125 450.049 83.2788 450.166 83.396C450.283 83.5132 450.42 83.5962 450.576 83.645C450.732 83.6938 450.898 83.7183 451.074 83.7183C451.577 83.7183 451.973 83.6206 452.261 83.4253C452.554 83.2251 452.761 82.9565 452.883 82.6196C453.01 82.2827 453.074 81.9043 453.074 81.4844ZM460.852 82.854C460.852 82.6782 460.808 82.5195 460.72 82.3779C460.632 82.2314 460.464 82.0996 460.215 81.9824C459.971 81.8652 459.609 81.7578 459.131 81.6602C458.711 81.5674 458.325 81.4575 457.974 81.3306C457.627 81.1987 457.329 81.04 457.08 80.8545C456.831 80.6689 456.638 80.4492 456.501 80.1953C456.365 79.9414 456.296 79.6484 456.296 79.3164C456.296 78.9941 456.367 78.689 456.509 78.4009C456.65 78.1128 456.853 77.8589 457.117 77.6392C457.38 77.4194 457.7 77.2461 458.076 77.1191C458.457 76.9922 458.882 76.9287 459.351 76.9287C460.015 76.9287 460.583 77.041 461.057 77.2656C461.536 77.4854 461.902 77.7856 462.156 78.1665C462.41 78.5425 462.537 78.9673 462.537 79.4409H460.771C460.771 79.231 460.718 79.0356 460.61 78.855C460.508 78.6694 460.352 78.5205 460.142 78.4082C459.932 78.291 459.668 78.2324 459.351 78.2324C459.048 78.2324 458.796 78.2812 458.596 78.3789C458.401 78.4717 458.254 78.5938 458.157 78.7451C458.064 78.8965 458.018 79.0625 458.018 79.2432C458.018 79.375 458.042 79.4946 458.091 79.6021C458.145 79.7046 458.232 79.7998 458.354 79.8877C458.477 79.9707 458.643 80.0488 458.853 80.1221C459.067 80.1953 459.336 80.2661 459.658 80.3345C460.264 80.4614 460.784 80.625 461.218 80.8252C461.658 81.0205 461.995 81.2744 462.229 81.5869C462.463 81.8945 462.581 82.2852 462.581 82.7588C462.581 83.1104 462.505 83.4326 462.354 83.7256C462.207 84.0137 461.992 84.2651 461.709 84.48C461.426 84.6899 461.086 84.8535 460.691 84.9707C460.3 85.0879 459.861 85.1465 459.373 85.1465C458.655 85.1465 458.047 85.0195 457.549 84.7656C457.051 84.5068 456.672 84.1772 456.414 83.7769C456.16 83.3716 456.033 82.9517 456.033 82.5171H457.739C457.759 82.8442 457.849 83.1055 458.01 83.3008C458.176 83.4912 458.381 83.6304 458.625 83.7183C458.875 83.8013 459.131 83.8428 459.395 83.8428C459.712 83.8428 459.978 83.8013 460.193 83.7183C460.408 83.6304 460.571 83.5132 460.684 83.3667C460.796 83.2153 460.852 83.0444 460.852 82.854ZM465.869 73.75V85H464.111V73.75H465.869ZM465.562 80.7446L464.99 80.7373C464.995 80.1904 465.071 79.6851 465.217 79.2212C465.369 78.7573 465.579 78.3545 465.847 78.0127C466.121 77.666 466.448 77.3999 466.829 77.2144C467.209 77.0239 467.632 76.9287 468.096 76.9287C468.486 76.9287 468.838 76.9824 469.15 77.0898C469.468 77.1973 469.741 77.3706 469.971 77.6099C470.2 77.8442 470.374 78.1519 470.491 78.5327C470.613 78.9087 470.674 79.3677 470.674 79.9097V85H468.901V79.895C468.901 79.5142 468.845 79.2114 468.733 78.9868C468.625 78.7622 468.467 78.6011 468.257 78.5034C468.047 78.4009 467.791 78.3496 467.488 78.3496C467.17 78.3496 466.89 78.4131 466.646 78.54C466.406 78.667 466.206 78.8403 466.045 79.0601C465.884 79.2798 465.762 79.5337 465.679 79.8218C465.601 80.1099 465.562 80.4175 465.562 80.7446ZM480.422 81.0229H477.646V79.5654H480.422C480.906 79.5654 481.296 79.4873 481.594 79.3311C481.892 79.1748 482.109 78.96 482.246 78.6865C482.388 78.4082 482.458 78.0908 482.458 77.7344C482.458 77.3975 482.388 77.0825 482.246 76.7896C482.109 76.4917 481.892 76.2524 481.594 76.0718C481.296 75.8911 480.906 75.8008 480.422 75.8008H478.21V85H476.372V74.3359H480.422C481.248 74.3359 481.948 74.4824 482.524 74.7754C483.105 75.0635 483.547 75.4639 483.85 75.9766C484.153 76.4844 484.304 77.0654 484.304 77.7197C484.304 78.4082 484.153 78.999 483.85 79.4922C483.547 79.9854 483.105 80.3638 482.524 80.6274C481.948 80.8911 481.248 81.0229 480.422 81.0229ZM487.549 78.584V85H485.784V77.0752H487.468L487.549 78.584ZM489.973 77.0239L489.958 78.6646C489.851 78.645 489.734 78.6304 489.607 78.6206C489.485 78.6108 489.363 78.606 489.241 78.606C488.938 78.606 488.672 78.6499 488.442 78.7378C488.213 78.8208 488.02 78.9429 487.864 79.104C487.712 79.2603 487.595 79.4507 487.512 79.6753C487.429 79.8999 487.38 80.1514 487.366 80.4297L486.963 80.459C486.963 79.9609 487.012 79.4995 487.109 79.0747C487.207 78.6499 487.354 78.2764 487.549 77.9541C487.749 77.6318 487.998 77.3804 488.296 77.1997C488.599 77.019 488.948 76.9287 489.343 76.9287C489.451 76.9287 489.565 76.9385 489.688 76.958C489.814 76.9775 489.91 76.9995 489.973 77.0239ZM490.552 81.1255V80.957C490.552 80.3857 490.635 79.856 490.801 79.3677C490.967 78.8745 491.206 78.4473 491.519 78.0859C491.836 77.7197 492.222 77.4365 492.676 77.2363C493.135 77.0312 493.652 76.9287 494.229 76.9287C494.81 76.9287 495.327 77.0312 495.781 77.2363C496.24 77.4365 496.628 77.7197 496.946 78.0859C497.263 78.4473 497.505 78.8745 497.671 79.3677C497.837 79.856 497.92 80.3857 497.92 80.957V81.1255C497.92 81.6968 497.837 82.2266 497.671 82.7148C497.505 83.2031 497.263 83.6304 496.946 83.9966C496.628 84.3579 496.243 84.6411 495.789 84.8462C495.334 85.0464 494.819 85.1465 494.243 85.1465C493.662 85.1465 493.142 85.0464 492.683 84.8462C492.229 84.6411 491.843 84.3579 491.526 83.9966C491.208 83.6304 490.967 83.2031 490.801 82.7148C490.635 82.2266 490.552 81.6968 490.552 81.1255ZM492.317 80.957V81.1255C492.317 81.4819 492.354 81.8188 492.427 82.1362C492.5 82.4536 492.615 82.7319 492.771 82.9712C492.927 83.2104 493.127 83.3984 493.372 83.5352C493.616 83.6719 493.906 83.7402 494.243 83.7402C494.57 83.7402 494.854 83.6719 495.093 83.5352C495.337 83.3984 495.537 83.2104 495.693 82.9712C495.85 82.7319 495.964 82.4536 496.038 82.1362C496.116 81.8188 496.155 81.4819 496.155 81.1255V80.957C496.155 80.6055 496.116 80.2734 496.038 79.9609C495.964 79.6436 495.847 79.3628 495.686 79.1187C495.53 78.8745 495.33 78.6841 495.085 78.5474C494.846 78.4058 494.561 78.335 494.229 78.335C493.896 78.335 493.608 78.4058 493.364 78.5474C493.125 78.6841 492.927 78.8745 492.771 79.1187C492.615 79.3628 492.5 79.6436 492.427 79.9609C492.354 80.2734 492.317 80.6055 492.317 80.957Z" fill="#505050"/>
<rect width="119" height="80" transform="translate(515 40)" fill="white" fill-opacity="0.01"/>
<path d="M539 73C542.866 73 546 76.1336 546 80C546 83.8664 542.866 87 539 87C535.134 87 532 83.8664 532 80C532 76.1336 535.134 73 539 73ZM539 85.6875C539.202 85.6875 539.714 85.4906 540.302 84.3641C540.542 83.8801 540.725 83.2922 540.903 82.625H537.097C537.25 83.2922 537.458 83.8801 537.698 84.3641C538.262 85.4906 538.798 85.6875 539 85.6875ZM536.881 81.3125H541.119C541.163 80.8941 541.188 80.4539 541.188 80C541.188 79.5461 541.163 79.1059 541.119 78.6875H536.881C536.837 79.1059 536.812 79.5461 536.812 80C536.812 80.4539 536.837 80.8941 536.881 81.3125ZM540.903 77.375C540.725 76.7078 540.542 76.1199 540.302 75.6373C539.714 74.5099 539.202 74.3125 539 74.3125C538.798 74.3125 538.262 74.5099 537.698 75.6373C537.458 76.1199 537.25 76.7078 537.097 77.375H540.903ZM542.44 78.6875C542.478 79.1113 542.5 79.5516 542.5 80C542.5 80.4484 542.478 80.8887 542.44 81.3125H544.534C544.636 80.8914 544.688 80.4512 544.688 80C544.688 79.5488 544.636 79.1086 544.534 78.6875H542.44ZM541.354 74.8214C541.74 75.5227 542.046 76.3934 542.246 77.375H544.048C543.463 76.2512 542.511 75.3483 541.354 74.8214ZM536.646 74.8214C535.489 75.3483 534.539 76.2512 533.953 77.375H535.754C535.954 76.3934 536.26 75.5227 536.646 74.8214ZM533.312 80C533.312 80.4512 533.365 80.8914 533.465 81.3125H535.56C535.522 80.8887 535.5 80.4484 535.5 80C535.5 79.5516 535.522 79.1113 535.56 78.6875H533.465C533.365 79.1086 533.312 79.5488 533.312 80ZM544.048 82.625H542.246C542.046 83.6066 541.74 84.4762 541.354 85.1789C542.511 84.6512 543.463 83.7488 544.048 82.625ZM535.754 82.625H533.953C534.539 83.7488 535.489 84.6512 536.646 85.1789C536.26 84.4762 535.954 83.6066 535.754 82.625Z" fill="#505050"/>
<path d="M556.471 74.3359V85H554.647V74.3359H556.471ZM559.818 74.3359V75.8008H551.33V74.3359H559.818ZM564.535 83.4106V79.6313C564.535 79.3481 564.484 79.104 564.381 78.8989C564.279 78.6938 564.123 78.5352 563.913 78.4229C563.708 78.3105 563.449 78.2544 563.136 78.2544C562.848 78.2544 562.599 78.3032 562.389 78.4009C562.179 78.4985 562.016 78.6304 561.898 78.7964C561.781 78.9624 561.723 79.1504 561.723 79.3604H559.965C559.965 79.0479 560.041 78.7451 560.192 78.4521C560.343 78.1592 560.563 77.8979 560.851 77.6685C561.139 77.439 561.483 77.2583 561.884 77.1265C562.284 76.9946 562.733 76.9287 563.231 76.9287C563.827 76.9287 564.354 77.0288 564.813 77.229C565.277 77.4292 565.641 77.7319 565.905 78.1372C566.173 78.5376 566.308 79.0405 566.308 79.646V83.1689C566.308 83.5303 566.332 83.855 566.381 84.1431C566.435 84.4263 566.51 84.6729 566.608 84.8828V85H564.799C564.716 84.8096 564.65 84.5679 564.601 84.2749C564.557 83.9771 564.535 83.689 564.535 83.4106ZM564.792 80.1807L564.806 81.272H563.539C563.212 81.272 562.924 81.3037 562.675 81.3672C562.426 81.4258 562.218 81.5137 562.052 81.6309C561.886 81.748 561.762 81.8896 561.679 82.0557C561.596 82.2217 561.554 82.4097 561.554 82.6196C561.554 82.8296 561.603 83.0225 561.701 83.1982C561.798 83.3691 561.94 83.5034 562.125 83.6011C562.316 83.6987 562.545 83.7476 562.814 83.7476C563.175 83.7476 563.49 83.6743 563.759 83.5278C564.032 83.3765 564.247 83.1934 564.403 82.9785C564.56 82.7588 564.643 82.5513 564.652 82.356L565.224 83.1396C565.165 83.3398 565.065 83.5547 564.923 83.7842C564.782 84.0137 564.596 84.2334 564.367 84.4434C564.142 84.6484 563.871 84.8169 563.554 84.9487C563.241 85.0806 562.88 85.1465 562.47 85.1465C561.952 85.1465 561.491 85.0439 561.085 84.8389C560.68 84.6289 560.363 84.3481 560.133 83.9966C559.904 83.6401 559.789 83.2373 559.789 82.7881C559.789 82.3682 559.867 81.9971 560.023 81.6748C560.185 81.3477 560.419 81.0742 560.727 80.8545C561.039 80.6348 561.42 80.4688 561.869 80.3564C562.318 80.2393 562.831 80.1807 563.407 80.1807H564.792ZM568.161 73.75H569.926V83.3081L569.757 85H568.161V73.75ZM575.097 80.9644V81.1182C575.097 81.7041 575.031 82.2437 574.899 82.7368C574.772 83.2251 574.577 83.6499 574.313 84.0112C574.054 84.3726 573.732 84.6533 573.346 84.8535C572.965 85.0488 572.523 85.1465 572.021 85.1465C571.527 85.1465 571.098 85.0537 570.731 84.8682C570.365 84.6826 570.058 84.4189 569.809 84.0771C569.564 83.7354 569.367 83.3276 569.215 82.854C569.064 82.3804 568.957 81.8579 568.893 81.2866V80.7959C568.957 80.2197 569.064 79.6973 569.215 79.2285C569.367 78.7549 569.564 78.3472 569.809 78.0054C570.058 77.6587 570.363 77.3926 570.724 77.207C571.09 77.0215 571.518 76.9287 572.006 76.9287C572.514 76.9287 572.96 77.0264 573.346 77.2217C573.737 77.417 574.062 77.6953 574.32 78.0566C574.579 78.4131 574.772 78.8379 574.899 79.3311C575.031 79.8242 575.097 80.3687 575.097 80.9644ZM573.332 81.1182V80.9644C573.332 80.6079 573.302 80.2734 573.244 79.9609C573.185 79.6436 573.087 79.3652 572.951 79.126C572.819 78.8867 572.638 78.6987 572.409 78.562C572.184 78.4204 571.903 78.3496 571.566 78.3496C571.254 78.3496 570.985 78.4033 570.761 78.5107C570.536 78.6182 570.348 78.7646 570.197 78.9502C570.045 79.1357 569.926 79.3506 569.838 79.5947C569.755 79.8389 569.699 80.1025 569.669 80.3857V81.7114C569.713 82.0776 569.806 82.4146 569.948 82.7222C570.094 83.0249 570.299 83.269 570.563 83.4546C570.827 83.6353 571.166 83.7256 571.581 83.7256C571.908 83.7256 572.184 83.6597 572.409 83.5278C572.633 83.396 572.812 83.2129 572.943 82.9785C573.08 82.7393 573.178 82.4609 573.236 82.1436C573.3 81.8262 573.332 81.4844 573.332 81.1182ZM581.249 74.3359H582.89L585.973 82.561L589.049 74.3359H590.69L586.618 85H585.314L581.249 74.3359ZM580.502 74.3359H582.062L582.333 81.4551V85H580.502V74.3359ZM589.877 74.3359H591.444V85H589.606V81.4551L589.877 74.3359ZM596.945 85.1465C596.359 85.1465 595.829 85.0513 595.355 84.8608C594.887 84.6655 594.486 84.3945 594.154 84.0479C593.827 83.7012 593.576 83.2935 593.4 82.8247C593.224 82.356 593.136 81.8506 593.136 81.3086V81.0156C593.136 80.3955 593.227 79.834 593.407 79.3311C593.588 78.8281 593.839 78.3984 594.162 78.042C594.484 77.6807 594.865 77.4048 595.304 77.2144C595.744 77.0239 596.22 76.9287 596.732 76.9287C597.299 76.9287 597.794 77.0239 598.219 77.2144C598.644 77.4048 598.996 77.6733 599.274 78.02C599.557 78.3618 599.767 78.7695 599.904 79.2432C600.045 79.7168 600.116 80.2393 600.116 80.8105V81.5649H593.993V80.2979H598.373V80.1587C598.363 79.8413 598.3 79.5435 598.183 79.2651C598.07 78.9868 597.897 78.7622 597.663 78.5913C597.428 78.4204 597.116 78.335 596.725 78.335C596.432 78.335 596.171 78.3984 595.941 78.5254C595.717 78.6475 595.529 78.8257 595.377 79.0601C595.226 79.2944 595.109 79.5776 595.026 79.9097C594.948 80.2368 594.909 80.6055 594.909 81.0156V81.3086C594.909 81.6553 594.955 81.9775 595.048 82.2754C595.146 82.5684 595.287 82.8247 595.473 83.0444C595.658 83.2642 595.883 83.4375 596.146 83.5645C596.41 83.6865 596.71 83.7476 597.047 83.7476C597.472 83.7476 597.851 83.6621 598.183 83.4912C598.515 83.3203 598.803 83.0786 599.047 82.7661L599.977 83.667C599.806 83.916 599.584 84.1553 599.311 84.3848C599.037 84.6094 598.703 84.7925 598.307 84.9341C597.917 85.0757 597.462 85.1465 596.945 85.1465ZM603.244 78.7671V85H601.479V77.0752H603.141L603.244 78.7671ZM602.929 80.7446L602.357 80.7373C602.362 80.1758 602.44 79.6606 602.592 79.1919C602.748 78.7231 602.963 78.3203 603.236 77.9834C603.515 77.6465 603.847 77.3877 604.232 77.207C604.618 77.0215 605.048 76.9287 605.521 76.9287C605.902 76.9287 606.247 76.9824 606.554 77.0898C606.867 77.1924 607.133 77.3608 607.353 77.5952C607.577 77.8296 607.748 78.1348 607.865 78.5107C607.982 78.8818 608.041 79.3384 608.041 79.8804V85H606.269V79.873C606.269 79.4922 606.212 79.1919 606.1 78.9722C605.993 78.7476 605.834 78.5889 605.624 78.4961C605.419 78.3984 605.163 78.3496 604.855 78.3496C604.552 78.3496 604.281 78.4131 604.042 78.54C603.803 78.667 603.6 78.8403 603.434 79.0601C603.273 79.2798 603.148 79.5337 603.061 79.8218C602.973 80.1099 602.929 80.4175 602.929 80.7446ZM614.611 83.1323V77.0752H616.383V85H614.713L614.611 83.1323ZM614.86 81.4844L615.453 81.4697C615.453 82.002 615.395 82.4927 615.277 82.9419C615.16 83.3862 614.979 83.7744 614.735 84.1064C614.491 84.4336 614.179 84.6899 613.798 84.8755C613.417 85.0562 612.96 85.1465 612.428 85.1465C612.042 85.1465 611.688 85.0903 611.366 84.978C611.044 84.8657 610.766 84.6924 610.531 84.458C610.302 84.2236 610.124 83.9185 609.997 83.5425C609.87 83.1665 609.806 82.7173 609.806 82.1948V77.0752H611.571V82.2095C611.571 82.4976 611.605 82.7393 611.674 82.9346C611.742 83.125 611.835 83.2788 611.952 83.396C612.069 83.5132 612.206 83.5962 612.362 83.645C612.519 83.6938 612.685 83.7183 612.86 83.7183C613.363 83.7183 613.759 83.6206 614.047 83.4253C614.34 83.2251 614.547 82.9565 614.669 82.6196C614.796 82.2827 614.86 81.9043 614.86 81.4844Z" fill="#505050"/>
<rect width="119" height="80" transform="translate(634 40)" fill="white" fill-opacity="0.01"/>
<path d="M655.164 76.3571C654.438 76.3571 653.849 76.9328 653.849 77.6429C653.849 78.3529 654.438 78.9286 655.164 78.9286C655.89 78.9286 656.479 78.3529 656.479 77.6429C656.479 76.9328 655.89 76.3571 655.164 76.3571ZM663.247 74H652.729C651.785 74 651 74.7674 651 75.7143V84.2857C651 85.2326 651.785 86 652.728 86H663.247C664.215 86 665 85.2326 665 84.2857V75.7143C665 74.7674 664.239 74 663.247 74ZM663.685 84.1062L659.938 79.1268C659.87 79.0036 659.714 78.9286 659.547 78.9286C659.379 78.9286 659.223 79.0027 659.13 79.1262L656.21 82.986L655.194 81.7512C655.1 81.6366 654.949 81.5688 654.789 81.5688C654.629 81.5688 654.479 81.6366 654.385 81.7512L652.316 84.264C652.316 84.2632 652.316 84.2648 652.316 84.264L652.315 75.7143C652.315 75.478 652.511 75.2857 652.753 75.2857H663.272C663.513 75.2857 663.71 75.478 663.71 75.7143V84.1062H663.685Z" fill="#505050"/>
<path d="M675.471 74.3359V85H673.647V74.3359H675.471ZM678.818 74.3359V75.8008H670.33V74.3359H678.818ZM683.535 83.4106V79.6313C683.535 79.3481 683.484 79.104 683.381 78.8989C683.279 78.6938 683.123 78.5352 682.913 78.4229C682.708 78.3105 682.449 78.2544 682.136 78.2544C681.848 78.2544 681.599 78.3032 681.389 78.4009C681.179 78.4985 681.016 78.6304 680.898 78.7964C680.781 78.9624 680.723 79.1504 680.723 79.3604H678.965C678.965 79.0479 679.041 78.7451 679.192 78.4521C679.343 78.1592 679.563 77.8979 679.851 77.6685C680.139 77.439 680.483 77.2583 680.884 77.1265C681.284 76.9946 681.733 76.9287 682.231 76.9287C682.827 76.9287 683.354 77.0288 683.813 77.229C684.277 77.4292 684.641 77.7319 684.905 78.1372C685.173 78.5376 685.308 79.0405 685.308 79.646V83.1689C685.308 83.5303 685.332 83.855 685.381 84.1431C685.435 84.4263 685.51 84.6729 685.608 84.8828V85H683.799C683.716 84.8096 683.65 84.5679 683.601 84.2749C683.557 83.9771 683.535 83.689 683.535 83.4106ZM683.792 80.1807L683.806 81.272H682.539C682.212 81.272 681.924 81.3037 681.675 81.3672C681.426 81.4258 681.218 81.5137 681.052 81.6309C680.886 81.748 680.762 81.8896 680.679 82.0557C680.596 82.2217 680.554 82.4097 680.554 82.6196C680.554 82.8296 680.603 83.0225 680.701 83.1982C680.798 83.3691 680.94 83.5034 681.125 83.6011C681.316 83.6987 681.545 83.7476 681.814 83.7476C682.175 83.7476 682.49 83.6743 682.759 83.5278C683.032 83.3765 683.247 83.1934 683.403 82.9785C683.56 82.7588 683.643 82.5513 683.652 82.356L684.224 83.1396C684.165 83.3398 684.065 83.5547 683.923 83.7842C683.782 84.0137 683.596 84.2334 683.367 84.4434C683.142 84.6484 682.871 84.8169 682.554 84.9487C682.241 85.0806 681.88 85.1465 681.47 85.1465C680.952 85.1465 680.491 85.0439 680.085 84.8389C679.68 84.6289 679.363 84.3481 679.133 83.9966C678.904 83.6401 678.789 83.2373 678.789 82.7881C678.789 82.3682 678.867 81.9971 679.023 81.6748C679.185 81.3477 679.419 81.0742 679.727 80.8545C680.039 80.6348 680.42 80.4688 680.869 80.3564C681.318 80.2393 681.831 80.1807 682.407 80.1807H683.792ZM687.161 73.75H688.926V83.3081L688.757 85H687.161V73.75ZM694.097 80.9644V81.1182C694.097 81.7041 694.031 82.2437 693.899 82.7368C693.772 83.2251 693.577 83.6499 693.313 84.0112C693.054 84.3726 692.732 84.6533 692.346 84.8535C691.965 85.0488 691.523 85.1465 691.021 85.1465C690.527 85.1465 690.098 85.0537 689.731 84.8682C689.365 84.6826 689.058 84.4189 688.809 84.0771C688.564 83.7354 688.367 83.3276 688.215 82.854C688.064 82.3804 687.957 81.8579 687.893 81.2866V80.7959C687.957 80.2197 688.064 79.6973 688.215 79.2285C688.367 78.7549 688.564 78.3472 688.809 78.0054C689.058 77.6587 689.363 77.3926 689.724 77.207C690.09 77.0215 690.518 76.9287 691.006 76.9287C691.514 76.9287 691.96 77.0264 692.346 77.2217C692.737 77.417 693.062 77.6953 693.32 78.0566C693.579 78.4131 693.772 78.8379 693.899 79.3311C694.031 79.8242 694.097 80.3687 694.097 80.9644ZM692.332 81.1182V80.9644C692.332 80.6079 692.302 80.2734 692.244 79.9609C692.185 79.6436 692.087 79.3652 691.951 79.126C691.819 78.8867 691.638 78.6987 691.409 78.562C691.184 78.4204 690.903 78.3496 690.566 78.3496C690.254 78.3496 689.985 78.4033 689.761 78.5107C689.536 78.6182 689.348 78.7646 689.197 78.9502C689.045 79.1357 688.926 79.3506 688.838 79.5947C688.755 79.8389 688.699 80.1025 688.669 80.3857V81.7114C688.713 82.0776 688.806 82.4146 688.948 82.7222C689.094 83.0249 689.299 83.269 689.563 83.4546C689.827 83.6353 690.166 83.7256 690.581 83.7256C690.908 83.7256 691.184 83.6597 691.409 83.5278C691.633 83.396 691.812 83.2129 691.943 82.9785C692.08 82.7393 692.178 82.4609 692.236 82.1436C692.3 81.8262 692.332 81.4844 692.332 81.1182ZM700.249 74.3359H701.89L704.973 82.561L708.049 74.3359H709.69L705.618 85H704.314L700.249 74.3359ZM699.502 74.3359H701.062L701.333 81.4551V85H699.502V74.3359ZM708.877 74.3359H710.444V85H708.606V81.4551L708.877 74.3359ZM715.945 85.1465C715.359 85.1465 714.829 85.0513 714.355 84.8608C713.887 84.6655 713.486 84.3945 713.154 84.0479C712.827 83.7012 712.576 83.2935 712.4 82.8247C712.224 82.356 712.136 81.8506 712.136 81.3086V81.0156C712.136 80.3955 712.227 79.834 712.407 79.3311C712.588 78.8281 712.839 78.3984 713.162 78.042C713.484 77.6807 713.865 77.4048 714.304 77.2144C714.744 77.0239 715.22 76.9287 715.732 76.9287C716.299 76.9287 716.794 77.0239 717.219 77.2144C717.644 77.4048 717.996 77.6733 718.274 78.02C718.557 78.3618 718.767 78.7695 718.904 79.2432C719.045 79.7168 719.116 80.2393 719.116 80.8105V81.5649H712.993V80.2979H717.373V80.1587C717.363 79.8413 717.3 79.5435 717.183 79.2651C717.07 78.9868 716.897 78.7622 716.663 78.5913C716.428 78.4204 716.116 78.335 715.725 78.335C715.432 78.335 715.171 78.3984 714.941 78.5254C714.717 78.6475 714.529 78.8257 714.377 79.0601C714.226 79.2944 714.109 79.5776 714.026 79.9097C713.948 80.2368 713.909 80.6055 713.909 81.0156V81.3086C713.909 81.6553 713.955 81.9775 714.048 82.2754C714.146 82.5684 714.287 82.8247 714.473 83.0444C714.658 83.2642 714.883 83.4375 715.146 83.5645C715.41 83.6865 715.71 83.7476 716.047 83.7476C716.472 83.7476 716.851 83.6621 717.183 83.4912C717.515 83.3203 717.803 83.0786 718.047 82.7661L718.977 83.667C718.806 83.916 718.584 84.1553 718.311 84.3848C718.037 84.6094 717.703 84.7925 717.307 84.9341C716.917 85.0757 716.462 85.1465 715.945 85.1465ZM722.244 78.7671V85H720.479V77.0752H722.141L722.244 78.7671ZM721.929 80.7446L721.357 80.7373C721.362 80.1758 721.44 79.6606 721.592 79.1919C721.748 78.7231 721.963 78.3203 722.236 77.9834C722.515 77.6465 722.847 77.3877 723.232 77.207C723.618 77.0215 724.048 76.9287 724.521 76.9287C724.902 76.9287 725.247 76.9824 725.554 77.0898C725.867 77.1924 726.133 77.3608 726.353 77.5952C726.577 77.8296 726.748 78.1348 726.865 78.5107C726.982 78.8818 727.041 79.3384 727.041 79.8804V85H725.269V79.873C725.269 79.4922 725.212 79.1919 725.1 78.9722C724.993 78.7476 724.834 78.5889 724.624 78.4961C724.419 78.3984 724.163 78.3496 723.855 78.3496C723.552 78.3496 723.281 78.4131 723.042 78.54C722.803 78.667 722.6 78.8403 722.434 79.0601C722.273 79.2798 722.148 79.5337 722.061 79.8218C721.973 80.1099 721.929 80.4175 721.929 80.7446ZM733.611 83.1323V77.0752H735.383V85H733.713L733.611 83.1323ZM733.86 81.4844L734.453 81.4697C734.453 82.002 734.395 82.4927 734.277 82.9419C734.16 83.3862 733.979 83.7744 733.735 84.1064C733.491 84.4336 733.179 84.6899 732.798 84.8755C732.417 85.0562 731.96 85.1465 731.428 85.1465C731.042 85.1465 730.688 85.0903 730.366 84.978C730.044 84.8657 729.766 84.6924 729.531 84.458C729.302 84.2236 729.124 83.9185 728.997 83.5425C728.87 83.1665 728.806 82.7173 728.806 82.1948V77.0752H730.571V82.2095C730.571 82.4976 730.605 82.7393 730.674 82.9346C730.742 83.125 730.835 83.2788 730.952 83.396C731.069 83.5132 731.206 83.5962 731.362 83.645C731.519 83.6938 731.685 83.7183 731.86 83.7183C732.363 83.7183 732.759 83.6206 733.047 83.4253C733.34 83.2251 733.547 82.9565 733.669 82.6196C733.796 82.2827 733.86 81.9043 733.86 81.4844Z" fill="#505050"/>
<rect width="48" height="80" transform="translate(732 40)" fill="url(#paint0_linear_3378_49318)"/>
<path d="M753.05 87C752.766 87 752.514 86.9062 752.295 86.7188C752.098 86.5104 752 86.2708 752 86C752 85.7292 752.098 85.4896 752.295 85.2812L757.873 80L752.295 74.7188C752.098 74.5104 752 74.2708 752 74C752 73.7292 752.098 73.4896 752.295 73.2812C752.514 73.0938 752.766 73 753.05 73C753.334 73 753.586 73.0938 753.805 73.2812L760.105 79.2812C760.302 79.4896 760.4 79.7292 760.4 80C760.4 80.2708 760.302 80.5104 760.105 80.7188L753.805 86.7188C753.586 86.9062 753.334 87 753.05 87Z" fill="#AAAAAA"/>
</g>
<path d="M40 40H780H40ZM780 121H40V119H780V121ZM40 120V40V120ZM780 40V120V40Z" fill="#E6E6E6" mask="url(#path-8-inside-1_3378_49318)"/>
<rect x="40.5" y="41.5" width="739" height="79" stroke="#0059FF" stroke-dasharray="4 4"/>
<rect x="732.5" y="41.5" width="47" height="79" stroke="#0059FF" stroke-dasharray="4 4"/>
<line x1="175.5" y1="124" x2="175.5" y2="152" stroke="#333333"/>
<line x1="755.5" y1="124" x2="755.5" y2="152" stroke="#333333"/>
</g>
<defs>
<filter id="filter0_ddd_3378_49318" x="-40" y="-4" width="900" height="337" filterUnits="userSpaceOnUse" color-interpolation-filters="sRGB">
<feFlood flood-opacity="0" result="BackgroundImageFix"/>
<feColorMatrix in="SourceAlpha" type="matrix" values="0 0 0 0 0 0 0 0 0 0 0 0 0 0 0 0 0 0 127 0" result="hardAlpha"/>
<feOffset dy="2.39404"/>
<feGaussianBlur stdDeviation="2.66004"/>
<feColorMatrix type="matrix" values="0 0 0 0 0 0 0 0 0 0 0 0 0 0 0 0 0 0 0.0201946 0"/>
<feBlend mode="normal" in2="BackgroundImageFix" result="effect1_dropShadow_3378_49318"/>
<feColorMatrix in="SourceAlpha" type="matrix" values="0 0 0 0 0 0 0 0 0 0 0 0 0 0 0 0 0 0 127 0" result="hardAlpha"/>
<feOffset dy="8.04107"/>
<feGaussianBlur stdDeviation="8.93452"/>
<feColorMatrix type="matrix" values="0 0 0 0 0 0 0 0 0 0 0 0 0 0 0 0 0 0 0.0298054 0"/>
<feBlend mode="normal" in2="effect1_dropShadow_3378_49318" result="effect2_dropShadow_3378_49318"/>
<feColorMatrix in="SourceAlpha" type="matrix" values="0 0 0 0 0 0 0 0 0 0 0 0 0 0 0 0 0 0 127 0" result="hardAlpha"/>
<feOffset dy="36"/>
<feGaussianBlur stdDeviation="40"/>
<feColorMatrix type="matrix" values="0 0 0 0 0 0 0 0 0 0 0 0 0 0 0 0 0 0 0.05 0"/>
<feBlend mode="normal" in2="effect2_dropShadow_3378_49318" result="effect3_dropShadow_3378_49318"/>
<feBlend mode="normal" in="SourceGraphic" in2="effect3_dropShadow_3378_49318" result="shape"/>
</filter>
<linearGradient id="paint0_linear_3378_49318" x1="48" y1="37.2222" x2="-7.11804e-07" y2="37.2222" gradientUnits="userSpaceOnUse">
<stop stop-color="white"/>
<stop offset="0.716264" stop-color="white"/>
<stop offset="1" stop-color="#F8F8F8" stop-opacity="0"/>
</linearGradient>
<clipPath id="clip0_3378_49318">
<rect width="820" height="257" rx="4" fill="white"/>
</clipPath>
<clipPath id="clip1_3378_49318">
<path d="M40 44C40 41.7909 41.7909 40 44 40H776C778.209 40 780 41.7909 780 44V120H40V44Z" fill="white"/>
</clipPath>
</defs>
</svg>
