<svg width="828" height="257" viewBox="0 0 828 257" fill="none" xmlns="http://www.w3.org/2000/svg">
<g clip-path="url(#clip0_3378_49372)">
<rect width="828" height="257" fill="#F8F8F8"/>
<g filter="url(#filter0_ddd_3378_49372)">
<rect x="50" y="40" width="730" height="177" rx="4" fill="white"/>
<rect x="50.5" y="40.5" width="729" height="176" rx="3.5" stroke="#E6E6E6"/>
</g>
<g clip-path="url(#clip1_3378_49372)">
<mask id="path-3-inside-1_3378_49372" fill="white">
<path d="M51 45C51 42.7909 52.7909 41 55 41H775C777.209 41 779 42.7909 779 45V121H51V45Z"/>
</mask>
<path d="M51 45C51 42.7909 52.7909 41 55 41H775C777.209 41 779 42.7909 779 45V121H51V45Z" fill="white"/>
<mask id="path-5-inside-2_3378_49372" fill="white">
<path d="M51 41H238V121H51V41Z"/>
</mask>
<path d="M51 41H238V121H51V41Z" fill="white"/>
<path d="M72.1638 77.3571C71.4377 77.3571 70.849 77.9328 70.849 78.6429C70.849 79.3529 71.4377 79.9286 72.1638 79.9286C72.89 79.9286 73.4786 79.3529 73.4786 78.6429C73.4786 77.9328 72.8897 77.3571 72.1638 77.3571ZM80.2472 75H69.7287C68.785 75 68 75.7674 68 76.7143V85.2857C68 86.2326 68.7848 87 69.7284 87H80.2469C81.2152 87 82 86.2326 82 85.2857V76.7143C82.0002 75.7674 81.2388 75 80.2472 75ZM80.6854 85.1062L76.9382 80.1268C76.8697 80.0036 76.7136 79.9286 76.5465 79.9286C76.3791 79.9286 76.2227 80.0027 76.1299 80.1262L73.2099 83.986L72.1939 82.7512C72.0997 82.6366 71.9492 82.5688 71.7894 82.5688C71.6293 82.5688 71.479 82.6366 71.3845 82.7512L69.3159 85.264C69.3159 85.2632 69.3159 85.2648 69.3159 85.264L69.3148 76.7143C69.3148 76.478 69.5114 76.2857 69.7531 76.2857H80.2715C80.5132 76.2857 80.7098 76.478 80.7098 76.7143V85.1062H80.6854Z" fill="#0059FF"/>
<path d="M90.0469 75.3359V86H88.2085V75.3359H90.0469ZM93.9214 79.6865V86H92.1562V78.0752H93.8188L93.9214 79.6865ZM93.6357 81.7446L93.0352 81.7373C93.0352 81.1904 93.1035 80.6851 93.2402 80.2212C93.377 79.7573 93.5771 79.3545 93.8408 79.0127C94.1045 78.666 94.4316 78.3999 94.8223 78.2144C95.2178 78.0239 95.6743 77.9287 96.1919 77.9287C96.5532 77.9287 96.8828 77.9824 97.1807 78.0898C97.4834 78.1924 97.7446 78.356 97.9644 78.5806C98.189 78.8052 98.3599 79.0933 98.4771 79.4448C98.5991 79.7964 98.6602 80.2212 98.6602 80.7192V86H96.895V80.873C96.895 80.4873 96.8364 80.1846 96.7192 79.9648C96.6069 79.7451 96.4434 79.5889 96.2285 79.4961C96.0186 79.3984 95.7671 79.3496 95.4741 79.3496C95.1421 79.3496 94.8589 79.4131 94.6245 79.54C94.395 79.667 94.207 79.8403 94.0605 80.0601C93.9141 80.2798 93.8066 80.5337 93.7383 80.8218C93.6699 81.1099 93.6357 81.4175 93.6357 81.7446ZM98.5503 81.2759L97.7227 81.459C97.7227 80.9805 97.7886 80.5288 97.9204 80.104C98.0571 79.6743 98.2549 79.2983 98.5137 78.9761C98.7773 78.6489 99.1021 78.3926 99.4878 78.207C99.8735 78.0215 100.315 77.9287 100.813 77.9287C101.219 77.9287 101.58 77.9849 101.897 78.0972C102.22 78.2046 102.493 78.3755 102.718 78.6099C102.942 78.8442 103.113 79.1494 103.23 79.5254C103.348 79.8965 103.406 80.3457 103.406 80.873V86H101.634V80.8657C101.634 80.4653 101.575 80.1553 101.458 79.9355C101.346 79.7158 101.185 79.5645 100.975 79.4814C100.765 79.3936 100.513 79.3496 100.22 79.3496C99.9468 79.3496 99.7051 79.4009 99.4951 79.5034C99.29 79.6011 99.1167 79.7402 98.9751 79.9209C98.8335 80.0967 98.7261 80.2993 98.6528 80.5288C98.5845 80.7583 98.5503 81.0073 98.5503 81.2759ZM109.69 84.4106V80.6313C109.69 80.3481 109.639 80.104 109.537 79.8989C109.434 79.6938 109.278 79.5352 109.068 79.4229C108.863 79.3105 108.604 79.2544 108.292 79.2544C108.003 79.2544 107.754 79.3032 107.544 79.4009C107.334 79.4985 107.171 79.6304 107.054 79.7964C106.937 79.9624 106.878 80.1504 106.878 80.3604H105.12C105.12 80.0479 105.196 79.7451 105.347 79.4521C105.499 79.1592 105.718 78.8979 106.006 78.6685C106.294 78.439 106.639 78.2583 107.039 78.1265C107.439 77.9946 107.889 77.9287 108.387 77.9287C108.982 77.9287 109.51 78.0288 109.969 78.229C110.433 78.4292 110.796 78.7319 111.06 79.1372C111.329 79.5376 111.463 80.0405 111.463 80.646V84.1689C111.463 84.5303 111.487 84.855 111.536 85.1431C111.59 85.4263 111.666 85.6729 111.763 85.8828V86H109.954C109.871 85.8096 109.805 85.5679 109.756 85.2749C109.712 84.9771 109.69 84.689 109.69 84.4106ZM109.947 81.1807L109.961 82.272H108.694C108.367 82.272 108.079 82.3037 107.83 82.3672C107.581 82.4258 107.374 82.5137 107.208 82.6309C107.042 82.748 106.917 82.8896 106.834 83.0557C106.751 83.2217 106.709 83.4097 106.709 83.6196C106.709 83.8296 106.758 84.0225 106.856 84.1982C106.954 84.3691 107.095 84.5034 107.281 84.6011C107.471 84.6987 107.701 84.7476 107.969 84.7476C108.331 84.7476 108.646 84.6743 108.914 84.5278C109.188 84.3765 109.402 84.1934 109.559 83.9785C109.715 83.7588 109.798 83.5513 109.808 83.356L110.379 84.1396C110.32 84.3398 110.22 84.5547 110.079 84.7842C109.937 85.0137 109.751 85.2334 109.522 85.4434C109.297 85.6484 109.026 85.8169 108.709 85.9487C108.396 86.0806 108.035 86.1465 107.625 86.1465C107.107 86.1465 106.646 86.0439 106.241 85.8389C105.835 85.6289 105.518 85.3481 105.289 84.9966C105.059 84.6401 104.944 84.2373 104.944 83.7881C104.944 83.3682 105.022 82.9971 105.179 82.6748C105.34 82.3477 105.574 82.0742 105.882 81.8545C106.194 81.6348 106.575 81.4688 107.024 81.3564C107.474 81.2393 107.986 81.1807 108.562 81.1807H109.947ZM118.384 78.0752H119.988V85.7803C119.988 86.4932 119.837 87.0986 119.534 87.5967C119.231 88.0947 118.809 88.4731 118.267 88.7319C117.725 88.9956 117.098 89.1274 116.385 89.1274C116.082 89.1274 115.745 89.0835 115.374 88.9956C115.008 88.9077 114.651 88.7661 114.305 88.5708C113.963 88.3804 113.677 88.1289 113.448 87.8164L114.275 86.7764C114.559 87.1133 114.871 87.3599 115.213 87.5161C115.555 87.6724 115.914 87.7505 116.29 87.7505C116.695 87.7505 117.039 87.6748 117.322 87.5234C117.61 87.377 117.833 87.1597 117.989 86.8716C118.145 86.5835 118.223 86.2319 118.223 85.8169V79.8696L118.384 78.0752ZM113.001 82.1255V81.9717C113.001 81.3711 113.074 80.8242 113.221 80.3311C113.367 79.833 113.577 79.4058 113.851 79.0493C114.124 78.688 114.456 78.4121 114.847 78.2217C115.237 78.0264 115.679 77.9287 116.172 77.9287C116.685 77.9287 117.122 78.0215 117.483 78.207C117.85 78.3926 118.155 78.6587 118.399 79.0054C118.643 79.3472 118.833 79.7573 118.97 80.2358C119.112 80.7095 119.217 81.2368 119.285 81.8179V82.3086C119.222 82.875 119.114 83.3926 118.963 83.8613C118.812 84.3301 118.611 84.7354 118.362 85.0771C118.113 85.4189 117.806 85.6826 117.439 85.8682C117.078 86.0537 116.651 86.1465 116.158 86.1465C115.674 86.1465 115.237 86.0464 114.847 85.8462C114.461 85.646 114.129 85.3652 113.851 85.0039C113.577 84.6426 113.367 84.2178 113.221 83.7295C113.074 83.2363 113.001 82.7017 113.001 82.1255ZM114.766 81.9717V82.1255C114.766 82.4868 114.8 82.8237 114.869 83.1362C114.942 83.4487 115.052 83.7246 115.198 83.9639C115.35 84.1982 115.54 84.3838 115.77 84.5205C116.004 84.6523 116.28 84.7183 116.597 84.7183C117.012 84.7183 117.352 84.6304 117.615 84.4546C117.884 84.2788 118.089 84.042 118.23 83.7441C118.377 83.4414 118.479 83.1045 118.538 82.7334V81.4077C118.509 81.1196 118.448 80.8511 118.355 80.6021C118.267 80.353 118.147 80.1357 117.996 79.9502C117.845 79.7598 117.654 79.6133 117.425 79.5107C117.195 79.4033 116.924 79.3496 116.612 79.3496C116.294 79.3496 116.019 79.418 115.784 79.5547C115.55 79.6914 115.357 79.8794 115.206 80.1187C115.059 80.3579 114.949 80.6362 114.876 80.9536C114.803 81.271 114.766 81.6104 114.766 81.9717ZM125.313 86.1465C124.727 86.1465 124.197 86.0513 123.724 85.8608C123.255 85.6655 122.854 85.3945 122.522 85.0479C122.195 84.7012 121.944 84.2935 121.768 83.8247C121.592 83.356 121.504 82.8506 121.504 82.3086V82.0156C121.504 81.3955 121.595 80.834 121.775 80.3311C121.956 79.8281 122.208 79.3984 122.53 79.042C122.852 78.6807 123.233 78.4048 123.672 78.2144C124.112 78.0239 124.588 77.9287 125.101 77.9287C125.667 77.9287 126.163 78.0239 126.587 78.2144C127.012 78.4048 127.364 78.6733 127.642 79.02C127.925 79.3618 128.135 79.7695 128.272 80.2432C128.414 80.7168 128.484 81.2393 128.484 81.8105V82.5649H122.361V81.2979H126.741V81.1587C126.731 80.8413 126.668 80.5435 126.551 80.2651C126.438 79.9868 126.265 79.7622 126.031 79.5913C125.796 79.4204 125.484 79.335 125.093 79.335C124.8 79.335 124.539 79.3984 124.31 79.5254C124.085 79.6475 123.897 79.8257 123.746 80.0601C123.594 80.2944 123.477 80.5776 123.394 80.9097C123.316 81.2368 123.277 81.6055 123.277 82.0156V82.3086C123.277 82.6553 123.323 82.9775 123.416 83.2754C123.514 83.5684 123.655 83.8247 123.841 84.0444C124.026 84.2642 124.251 84.4375 124.515 84.5645C124.778 84.6865 125.079 84.7476 125.416 84.7476C125.84 84.7476 126.219 84.6621 126.551 84.4912C126.883 84.3203 127.171 84.0786 127.415 83.7661L128.345 84.667C128.174 84.916 127.952 85.1553 127.679 85.3848C127.405 85.6094 127.071 85.7925 126.675 85.9341C126.285 86.0757 125.831 86.1465 125.313 86.1465ZM140.071 82.5283H141.902C141.844 83.2266 141.648 83.8491 141.316 84.396C140.984 84.938 140.518 85.3652 139.917 85.6777C139.317 85.9902 138.587 86.1465 137.728 86.1465C137.068 86.1465 136.475 86.0293 135.948 85.7949C135.42 85.5557 134.969 85.2188 134.593 84.7842C134.217 84.3447 133.929 83.8149 133.729 83.1948C133.533 82.5747 133.436 81.8813 133.436 81.1147V80.2285C133.436 79.4619 133.536 78.7686 133.736 78.1484C133.941 77.5283 134.234 76.9985 134.615 76.5591C134.996 76.1147 135.452 75.7754 135.984 75.541C136.521 75.3066 137.125 75.1895 137.793 75.1895C138.643 75.1895 139.361 75.3457 139.947 75.6582C140.533 75.9707 140.987 76.4028 141.309 76.9546C141.636 77.5063 141.836 78.1387 141.91 78.8516H140.079C140.03 78.3926 139.922 77.9995 139.756 77.6724C139.595 77.3452 139.356 77.0962 139.039 76.9253C138.721 76.7495 138.306 76.6616 137.793 76.6616C137.374 76.6616 137.007 76.7397 136.695 76.896C136.382 77.0522 136.121 77.2817 135.911 77.5845C135.701 77.8872 135.542 78.2607 135.435 78.7051C135.333 79.1445 135.281 79.6475 135.281 80.2139V81.1147C135.281 81.6519 135.328 82.1401 135.42 82.5796C135.518 83.0142 135.665 83.3877 135.86 83.7002C136.06 84.0127 136.314 84.2544 136.622 84.4253C136.929 84.5962 137.298 84.6816 137.728 84.6816C138.25 84.6816 138.672 84.5986 138.995 84.4326C139.322 84.2666 139.568 84.0249 139.734 83.7075C139.905 83.3853 140.018 82.9922 140.071 82.5283ZM143.06 82.1255V81.957C143.06 81.3857 143.143 80.856 143.309 80.3677C143.475 79.8745 143.714 79.4473 144.026 79.0859C144.344 78.7197 144.729 78.4365 145.184 78.2363C145.643 78.0312 146.16 77.9287 146.736 77.9287C147.317 77.9287 147.835 78.0312 148.289 78.2363C148.748 78.4365 149.136 78.7197 149.454 79.0859C149.771 79.4473 150.013 79.8745 150.179 80.3677C150.345 80.856 150.428 81.3857 150.428 81.957V82.1255C150.428 82.6968 150.345 83.2266 150.179 83.7148C150.013 84.2031 149.771 84.6304 149.454 84.9966C149.136 85.3579 148.75 85.6411 148.296 85.8462C147.842 86.0464 147.327 86.1465 146.751 86.1465C146.17 86.1465 145.65 86.0464 145.191 85.8462C144.737 85.6411 144.351 85.3579 144.034 84.9966C143.716 84.6304 143.475 84.2031 143.309 83.7148C143.143 83.2266 143.06 82.6968 143.06 82.1255ZM144.825 81.957V82.1255C144.825 82.4819 144.861 82.8188 144.935 83.1362C145.008 83.4536 145.123 83.7319 145.279 83.9712C145.435 84.2104 145.635 84.3984 145.879 84.5352C146.124 84.6719 146.414 84.7402 146.751 84.7402C147.078 84.7402 147.361 84.6719 147.601 84.5352C147.845 84.3984 148.045 84.2104 148.201 83.9712C148.357 83.7319 148.472 83.4536 148.545 83.1362C148.624 82.8188 148.663 82.4819 148.663 82.1255V81.957C148.663 81.6055 148.624 81.2734 148.545 80.9609C148.472 80.6436 148.355 80.3628 148.194 80.1187C148.038 79.8745 147.837 79.6841 147.593 79.5474C147.354 79.4058 147.068 79.335 146.736 79.335C146.404 79.335 146.116 79.4058 145.872 79.5474C145.633 79.6841 145.435 79.8745 145.279 80.1187C145.123 80.3628 145.008 80.6436 144.935 80.9609C144.861 81.2734 144.825 81.6055 144.825 81.957ZM153.672 79.6865V86H151.907V78.0752H153.57L153.672 79.6865ZM153.387 81.7446L152.786 81.7373C152.786 81.1904 152.854 80.6851 152.991 80.2212C153.128 79.7573 153.328 79.3545 153.592 79.0127C153.855 78.666 154.183 78.3999 154.573 78.2144C154.969 78.0239 155.425 77.9287 155.943 77.9287C156.304 77.9287 156.634 77.9824 156.932 78.0898C157.234 78.1924 157.496 78.356 157.715 78.5806C157.94 78.8052 158.111 79.0933 158.228 79.4448C158.35 79.7964 158.411 80.2212 158.411 80.7192V86H156.646V80.873C156.646 80.4873 156.587 80.1846 156.47 79.9648C156.358 79.7451 156.194 79.5889 155.979 79.4961C155.77 79.3984 155.518 79.3496 155.225 79.3496C154.893 79.3496 154.61 79.4131 154.375 79.54C154.146 79.667 153.958 79.8403 153.812 80.0601C153.665 80.2798 153.558 80.5337 153.489 80.8218C153.421 81.1099 153.387 81.4175 153.387 81.7446ZM158.301 81.2759L157.474 81.459C157.474 80.9805 157.54 80.5288 157.671 80.104C157.808 79.6743 158.006 79.2983 158.265 78.9761C158.528 78.6489 158.853 78.3926 159.239 78.207C159.625 78.0215 160.066 77.9287 160.564 77.9287C160.97 77.9287 161.331 77.9849 161.648 78.0972C161.971 78.2046 162.244 78.3755 162.469 78.6099C162.693 78.8442 162.864 79.1494 162.981 79.5254C163.099 79.8965 163.157 80.3457 163.157 80.873V86H161.385V80.8657C161.385 80.4653 161.326 80.1553 161.209 79.9355C161.097 79.7158 160.936 79.5645 160.726 79.4814C160.516 79.3936 160.264 79.3496 159.971 79.3496C159.698 79.3496 159.456 79.4009 159.246 79.5034C159.041 79.6011 158.868 79.7402 158.726 79.9209C158.584 80.0967 158.477 80.2993 158.404 80.5288C158.335 80.7583 158.301 81.0073 158.301 81.2759ZM166.746 79.5986V89.0469H164.981V78.0752H166.607L166.746 79.5986ZM171.91 81.9644V82.1182C171.91 82.6943 171.841 83.229 171.705 83.7222C171.573 84.2104 171.375 84.6377 171.111 85.0039C170.853 85.3652 170.533 85.646 170.152 85.8462C169.771 86.0464 169.332 86.1465 168.833 86.1465C168.34 86.1465 167.908 86.0562 167.537 85.8755C167.171 85.6899 166.861 85.4287 166.607 85.0918C166.353 84.7549 166.148 84.3594 165.992 83.9053C165.84 83.4463 165.733 82.9434 165.669 82.3965V81.8032C165.733 81.2222 165.84 80.6948 165.992 80.2212C166.148 79.7476 166.353 79.3398 166.607 78.998C166.861 78.6562 167.171 78.3926 167.537 78.207C167.903 78.0215 168.331 77.9287 168.819 77.9287C169.317 77.9287 169.759 78.0264 170.145 78.2217C170.53 78.4121 170.855 78.6855 171.119 79.042C171.382 79.3936 171.58 79.8184 171.712 80.3164C171.844 80.8096 171.91 81.3589 171.91 81.9644ZM170.145 82.1182V81.9644C170.145 81.5981 170.11 81.2588 170.042 80.9463C169.974 80.6289 169.866 80.3506 169.72 80.1113C169.573 79.8721 169.385 79.6865 169.156 79.5547C168.931 79.418 168.66 79.3496 168.343 79.3496C168.03 79.3496 167.762 79.4033 167.537 79.5107C167.312 79.6133 167.125 79.7573 166.973 79.9429C166.822 80.1284 166.705 80.3457 166.622 80.5947C166.539 80.8389 166.48 81.105 166.446 81.3931V82.814C166.504 83.1655 166.604 83.4878 166.746 83.7808C166.888 84.0737 167.088 84.3081 167.347 84.4839C167.61 84.6548 167.947 84.7402 168.357 84.7402C168.675 84.7402 168.946 84.6719 169.17 84.5352C169.395 84.3984 169.578 84.2104 169.72 83.9712C169.866 83.7271 169.974 83.4463 170.042 83.1289C170.11 82.8115 170.145 82.4746 170.145 82.1182ZM175.184 79.584V86H173.418V78.0752H175.103L175.184 79.584ZM177.608 78.0239L177.593 79.6646C177.486 79.645 177.369 79.6304 177.242 79.6206C177.12 79.6108 176.998 79.606 176.875 79.606C176.573 79.606 176.307 79.6499 176.077 79.7378C175.848 79.8208 175.655 79.9429 175.499 80.104C175.347 80.2603 175.23 80.4507 175.147 80.6753C175.064 80.8999 175.015 81.1514 175 81.4297L174.598 81.459C174.598 80.9609 174.646 80.4995 174.744 80.0747C174.842 79.6499 174.988 79.2764 175.184 78.9541C175.384 78.6318 175.633 78.3804 175.931 78.1997C176.233 78.019 176.583 77.9287 176.978 77.9287C177.085 77.9287 177.2 77.9385 177.322 77.958C177.449 77.9775 177.544 77.9995 177.608 78.0239ZM182.061 86.1465C181.475 86.1465 180.945 86.0513 180.472 85.8608C180.003 85.6655 179.603 85.3945 179.271 85.0479C178.943 84.7012 178.692 84.2935 178.516 83.8247C178.34 83.356 178.252 82.8506 178.252 82.3086V82.0156C178.252 81.3955 178.343 80.834 178.523 80.3311C178.704 79.8281 178.956 79.3984 179.278 79.042C179.6 78.6807 179.981 78.4048 180.42 78.2144C180.86 78.0239 181.336 77.9287 181.849 77.9287C182.415 77.9287 182.911 78.0239 183.335 78.2144C183.76 78.4048 184.112 78.6733 184.39 79.02C184.673 79.3618 184.883 79.7695 185.02 80.2432C185.162 80.7168 185.232 81.2393 185.232 81.8105V82.5649H179.109V81.2979H183.489V81.1587C183.479 80.8413 183.416 80.5435 183.299 80.2651C183.187 79.9868 183.013 79.7622 182.779 79.5913C182.544 79.4204 182.232 79.335 181.841 79.335C181.548 79.335 181.287 79.3984 181.058 79.5254C180.833 79.6475 180.645 79.8257 180.494 80.0601C180.342 80.2944 180.225 80.5776 180.142 80.9097C180.064 81.2368 180.025 81.6055 180.025 82.0156V82.3086C180.025 82.6553 180.071 82.9775 180.164 83.2754C180.262 83.5684 180.403 83.8247 180.589 84.0444C180.774 84.2642 180.999 84.4375 181.263 84.5645C181.526 84.6865 181.827 84.7476 182.164 84.7476C182.588 84.7476 182.967 84.6621 183.299 84.4912C183.631 84.3203 183.919 84.0786 184.163 83.7661L185.093 84.667C184.922 84.916 184.7 85.1553 184.427 85.3848C184.153 85.6094 183.819 85.7925 183.423 85.9341C183.033 86.0757 182.579 86.1465 182.061 86.1465ZM191.055 83.854C191.055 83.6782 191.011 83.5195 190.923 83.3779C190.835 83.2314 190.667 83.0996 190.418 82.9824C190.174 82.8652 189.812 82.7578 189.334 82.6602C188.914 82.5674 188.528 82.4575 188.177 82.3306C187.83 82.1987 187.532 82.04 187.283 81.8545C187.034 81.6689 186.841 81.4492 186.705 81.1953C186.568 80.9414 186.5 80.6484 186.5 80.3164C186.5 79.9941 186.57 79.689 186.712 79.4009C186.854 79.1128 187.056 78.8589 187.32 78.6392C187.583 78.4194 187.903 78.2461 188.279 78.1191C188.66 77.9922 189.085 77.9287 189.554 77.9287C190.218 77.9287 190.787 78.041 191.26 78.2656C191.739 78.4854 192.105 78.7856 192.359 79.1665C192.613 79.5425 192.74 79.9673 192.74 80.4409H190.975C190.975 80.231 190.921 80.0356 190.813 79.855C190.711 79.6694 190.555 79.5205 190.345 79.4082C190.135 79.291 189.871 79.2324 189.554 79.2324C189.251 79.2324 189 79.2812 188.799 79.3789C188.604 79.4717 188.458 79.5938 188.36 79.7451C188.267 79.8965 188.221 80.0625 188.221 80.2432C188.221 80.375 188.245 80.4946 188.294 80.6021C188.348 80.7046 188.436 80.7998 188.558 80.8877C188.68 80.9707 188.846 81.0488 189.056 81.1221C189.271 81.1953 189.539 81.2661 189.861 81.3345C190.467 81.4614 190.987 81.625 191.421 81.8252C191.861 82.0205 192.198 82.2744 192.432 82.5869C192.667 82.8945 192.784 83.2852 192.784 83.7588C192.784 84.1104 192.708 84.4326 192.557 84.7256C192.41 85.0137 192.195 85.2651 191.912 85.48C191.629 85.6899 191.29 85.8535 190.894 85.9707C190.503 86.0879 190.064 86.1465 189.576 86.1465C188.858 86.1465 188.25 86.0195 187.752 85.7656C187.254 85.5068 186.875 85.1772 186.617 84.7769C186.363 84.3716 186.236 83.9517 186.236 83.5171H187.942C187.962 83.8442 188.052 84.1055 188.213 84.3008C188.379 84.4912 188.584 84.6304 188.829 84.7183C189.078 84.8013 189.334 84.8428 189.598 84.8428C189.915 84.8428 190.181 84.8013 190.396 84.7183C190.611 84.6304 190.774 84.5132 190.887 84.3667C190.999 84.2153 191.055 84.0444 191.055 83.854ZM198.775 83.854C198.775 83.6782 198.731 83.5195 198.643 83.3779C198.555 83.2314 198.387 83.0996 198.138 82.9824C197.894 82.8652 197.532 82.7578 197.054 82.6602C196.634 82.5674 196.248 82.4575 195.896 82.3306C195.55 82.1987 195.252 82.04 195.003 81.8545C194.754 81.6689 194.561 81.4492 194.424 81.1953C194.288 80.9414 194.219 80.6484 194.219 80.3164C194.219 79.9941 194.29 79.689 194.432 79.4009C194.573 79.1128 194.776 78.8589 195.04 78.6392C195.303 78.4194 195.623 78.2461 195.999 78.1191C196.38 77.9922 196.805 77.9287 197.273 77.9287C197.938 77.9287 198.506 78.041 198.98 78.2656C199.458 78.4854 199.825 78.7856 200.079 79.1665C200.333 79.5425 200.459 79.9673 200.459 80.4409H198.694C198.694 80.231 198.641 80.0356 198.533 79.855C198.431 79.6694 198.274 79.5205 198.064 79.4082C197.854 79.291 197.591 79.2324 197.273 79.2324C196.971 79.2324 196.719 79.2812 196.519 79.3789C196.324 79.4717 196.177 79.5938 196.08 79.7451C195.987 79.8965 195.94 80.0625 195.94 80.2432C195.94 80.375 195.965 80.4946 196.014 80.6021C196.067 80.7046 196.155 80.7998 196.277 80.8877C196.399 80.9707 196.565 81.0488 196.775 81.1221C196.99 81.1953 197.259 81.2661 197.581 81.3345C198.187 81.4614 198.707 81.625 199.141 81.8252C199.581 82.0205 199.917 82.2744 200.152 82.5869C200.386 82.8945 200.503 83.2852 200.503 83.7588C200.503 84.1104 200.428 84.4326 200.276 84.7256C200.13 85.0137 199.915 85.2651 199.632 85.48C199.349 85.6899 199.009 85.8535 198.614 85.9707C198.223 86.0879 197.784 86.1465 197.295 86.1465C196.578 86.1465 195.97 86.0195 195.472 85.7656C194.974 85.5068 194.595 85.1772 194.336 84.7769C194.083 84.3716 193.956 83.9517 193.956 83.5171H195.662C195.682 83.8442 195.772 84.1055 195.933 84.3008C196.099 84.4912 196.304 84.6304 196.548 84.7183C196.797 84.8013 197.054 84.8428 197.317 84.8428C197.635 84.8428 197.901 84.8013 198.116 84.7183C198.331 84.6304 198.494 84.5132 198.606 84.3667C198.719 84.2153 198.775 84.0444 198.775 83.854ZM203.938 78.0752V86H202.166V78.0752H203.938ZM202.049 75.9951C202.049 75.7266 202.137 75.5044 202.312 75.3286C202.493 75.1479 202.742 75.0576 203.06 75.0576C203.372 75.0576 203.619 75.1479 203.799 75.3286C203.98 75.5044 204.07 75.7266 204.07 75.9951C204.07 76.2588 203.98 76.4785 203.799 76.6543C203.619 76.8301 203.372 76.918 203.06 76.918C202.742 76.918 202.493 76.8301 202.312 76.6543C202.137 76.4785 202.049 76.2588 202.049 75.9951ZM205.535 82.1255V81.957C205.535 81.3857 205.618 80.856 205.784 80.3677C205.95 79.8745 206.189 79.4473 206.502 79.0859C206.819 78.7197 207.205 78.4365 207.659 78.2363C208.118 78.0312 208.636 77.9287 209.212 77.9287C209.793 77.9287 210.311 78.0312 210.765 78.2363C211.224 78.4365 211.612 78.7197 211.929 79.0859C212.247 79.4473 212.488 79.8745 212.654 80.3677C212.82 80.856 212.903 81.3857 212.903 81.957V82.1255C212.903 82.6968 212.82 83.2266 212.654 83.7148C212.488 84.2031 212.247 84.6304 211.929 84.9966C211.612 85.3579 211.226 85.6411 210.772 85.8462C210.318 86.0464 209.803 86.1465 209.227 86.1465C208.646 86.1465 208.125 86.0464 207.667 85.8462C207.212 85.6411 206.827 85.3579 206.509 84.9966C206.192 84.6304 205.95 84.2031 205.784 83.7148C205.618 83.2266 205.535 82.6968 205.535 82.1255ZM207.3 81.957V82.1255C207.3 82.4819 207.337 82.8188 207.41 83.1362C207.483 83.4536 207.598 83.7319 207.754 83.9712C207.911 84.2104 208.111 84.3984 208.355 84.5352C208.599 84.6719 208.89 84.7402 209.227 84.7402C209.554 84.7402 209.837 84.6719 210.076 84.5352C210.32 84.3984 210.521 84.2104 210.677 83.9712C210.833 83.7319 210.948 83.4536 211.021 83.1362C211.099 82.8188 211.138 82.4819 211.138 82.1255V81.957C211.138 81.6055 211.099 81.2734 211.021 80.9609C210.948 80.6436 210.831 80.3628 210.669 80.1187C210.513 79.8745 210.313 79.6841 210.069 79.5474C209.83 79.4058 209.544 79.335 209.212 79.335C208.88 79.335 208.592 79.4058 208.348 79.5474C208.108 79.6841 207.911 79.8745 207.754 80.1187C207.598 80.3628 207.483 80.6436 207.41 80.9609C207.337 81.2734 207.3 81.6055 207.3 81.957ZM216.133 79.7671V86H214.368V78.0752H216.031L216.133 79.7671ZM215.818 81.7446L215.247 81.7373C215.252 81.1758 215.33 80.6606 215.481 80.1919C215.638 79.7231 215.853 79.3203 216.126 78.9834C216.404 78.6465 216.736 78.3877 217.122 78.207C217.508 78.0215 217.938 77.9287 218.411 77.9287C218.792 77.9287 219.136 77.9824 219.444 78.0898C219.756 78.1924 220.022 78.3608 220.242 78.5952C220.467 78.8296 220.638 79.1348 220.755 79.5107C220.872 79.8818 220.931 80.3384 220.931 80.8804V86H219.158V80.873C219.158 80.4922 219.102 80.1919 218.99 79.9722C218.882 79.7476 218.724 79.5889 218.514 79.4961C218.309 79.3984 218.052 79.3496 217.745 79.3496C217.442 79.3496 217.171 79.4131 216.932 79.54C216.692 79.667 216.49 79.8403 216.324 80.0601C216.163 80.2798 216.038 80.5337 215.95 80.8218C215.862 81.1099 215.818 81.4175 215.818 81.7446Z" fill="#286EF1"/>
<path d="M238 117H51V125H238V117Z" fill="#286EF1" mask="url(#path-5-inside-2_3378_49372)"/>
<rect width="162" height="80" transform="translate(238 41)" fill="white" fill-opacity="0.01"/>
<path d="M259.276 81C259.276 79.5262 260.471 78.375 262 78.375C263.504 78.375 264.724 79.5262 264.724 81C264.724 82.4492 263.504 83.625 262 83.625C260.471 83.625 259.276 82.4492 259.276 81ZM262 79.6875C261.248 79.6875 260.638 80.2754 260.638 81C260.638 81.7246 261.248 82.3125 262 82.3125C262.752 82.3125 263.362 81.7246 263.362 81C263.362 80.2754 262.752 79.6875 262 79.6875ZM263.053 74C263.683 74 264.231 74.4154 264.378 75.0046L264.6 75.8925C264.841 76.0059 265.071 76.1347 265.289 76.2772L266.2 76.0188C266.804 75.8473 267.451 76.0964 267.766 76.6214L268.819 78.3777C269.131 78.9027 269.032 79.5672 268.578 79.9855L267.888 80.5926C267.897 80.743 267.903 80.8715 267.903 81C267.903 81.1285 267.897 81.257 267.888 81.3828L268.578 82.0145C269.032 82.4328 269.131 83.0973 268.819 83.6223L267.766 85.3777C267.451 85.9027 266.804 86.1516 266.2 85.982L265.289 85.7223C265.071 85.8645 264.841 85.993 264.6 86.1078L264.378 86.9965C264.231 87.5844 263.683 88 263.053 88H260.947C260.317 88 259.77 87.5844 259.622 86.9965L259.401 86.1078C259.16 85.993 258.93 85.8645 258.711 85.7223L257.775 85.982C257.197 86.1516 256.55 85.9027 256.235 85.3777L255.183 83.6223C254.868 83.0973 254.967 82.4328 255.423 82.0145L256.111 81.3828C256.102 81.257 256.098 81.1285 256.098 80.9754C256.098 80.8715 256.102 80.743 256.111 80.5926L255.423 79.9855C254.967 79.5672 254.868 78.9027 255.183 78.3777L256.235 76.6214C256.55 76.0964 257.197 75.8473 257.775 76.0188L258.711 76.2772C258.93 76.1347 259.16 76.0059 259.401 75.8925L259.622 75.0046C259.77 74.4151 260.317 74 260.947 74L263.053 74ZM260.567 76.8328L260.249 76.9613C259.889 77.1063 259.554 77.2949 259.25 77.5191L258.975 77.7215L257.415 77.2785L256.362 79.034L257.54 80.1141L257.496 80.4422C257.472 80.6254 257.46 80.8113 257.46 81C257.46 81.1887 257.472 81.3746 257.496 81.5578L257.54 81.8859L256.362 82.966L257.415 84.7215L258.975 84.2785L259.25 84.4809C259.554 84.7051 259.889 84.8938 260.249 85.0387L260.567 85.1672L260.947 86.6875H263.053L263.433 85.1672L263.751 85.0387C264.111 84.8938 264.446 84.7051 264.75 84.4809L265.025 84.2785L266.586 84.7215L267.639 82.966L266.461 81.8859L266.504 81.5578C266.529 81.3746 266.541 81.1887 266.541 81C266.541 80.8113 266.529 80.6254 266.504 80.4422L266.461 80.1141L267.639 79.034L266.586 77.2785L265.025 77.7215L264.75 77.5191C264.446 77.2949 264.111 77.1063 263.751 76.9613L263.433 76.8328L263.053 75.3125H260.947L260.567 76.8328Z" fill="#505050"/>
<path d="M279.471 75.3359V86H277.647V75.3359H279.471ZM282.818 75.3359V76.8008H274.33V75.3359H282.818ZM282.687 82.1255V81.957C282.687 81.3857 282.77 80.856 282.936 80.3677C283.102 79.8745 283.341 79.4473 283.653 79.0859C283.971 78.7197 284.356 78.4365 284.811 78.2363C285.27 78.0312 285.787 77.9287 286.363 77.9287C286.944 77.9287 287.462 78.0312 287.916 78.2363C288.375 78.4365 288.763 78.7197 289.081 79.0859C289.398 79.4473 289.64 79.8745 289.806 80.3677C289.972 80.856 290.055 81.3857 290.055 81.957V82.1255C290.055 82.6968 289.972 83.2266 289.806 83.7148C289.64 84.2031 289.398 84.6304 289.081 84.9966C288.763 85.3579 288.377 85.6411 287.923 85.8462C287.469 86.0464 286.954 86.1465 286.378 86.1465C285.797 86.1465 285.277 86.0464 284.818 85.8462C284.364 85.6411 283.978 85.3579 283.661 84.9966C283.343 84.6304 283.102 84.2031 282.936 83.7148C282.77 83.2266 282.687 82.6968 282.687 82.1255ZM284.452 81.957V82.1255C284.452 82.4819 284.488 82.8188 284.562 83.1362C284.635 83.4536 284.75 83.7319 284.906 83.9712C285.062 84.2104 285.262 84.3984 285.506 84.5352C285.75 84.6719 286.041 84.7402 286.378 84.7402C286.705 84.7402 286.988 84.6719 287.228 84.5352C287.472 84.3984 287.672 84.2104 287.828 83.9712C287.984 83.7319 288.099 83.4536 288.172 83.1362C288.25 82.8188 288.29 82.4819 288.29 82.1255V81.957C288.29 81.6055 288.25 81.2734 288.172 80.9609C288.099 80.6436 287.982 80.3628 287.821 80.1187C287.665 79.8745 287.464 79.6841 287.22 79.5474C286.981 79.4058 286.695 79.335 286.363 79.335C286.031 79.335 285.743 79.4058 285.499 79.5474C285.26 79.6841 285.062 79.8745 284.906 80.1187C284.75 80.3628 284.635 80.6436 284.562 80.9609C284.488 81.2734 284.452 81.6055 284.452 81.957ZM291.197 82.1255V81.957C291.197 81.3857 291.28 80.856 291.446 80.3677C291.612 79.8745 291.852 79.4473 292.164 79.0859C292.481 78.7197 292.867 78.4365 293.321 78.2363C293.78 78.0312 294.298 77.9287 294.874 77.9287C295.455 77.9287 295.973 78.0312 296.427 78.2363C296.886 78.4365 297.274 78.7197 297.591 79.0859C297.909 79.4473 298.15 79.8745 298.316 80.3677C298.482 80.856 298.565 81.3857 298.565 81.957V82.1255C298.565 82.6968 298.482 83.2266 298.316 83.7148C298.15 84.2031 297.909 84.6304 297.591 84.9966C297.274 85.3579 296.888 85.6411 296.434 85.8462C295.98 86.0464 295.465 86.1465 294.889 86.1465C294.308 86.1465 293.788 86.0464 293.329 85.8462C292.875 85.6411 292.489 85.3579 292.171 84.9966C291.854 84.6304 291.612 84.2031 291.446 83.7148C291.28 83.2266 291.197 82.6968 291.197 82.1255ZM292.962 81.957V82.1255C292.962 82.4819 292.999 82.8188 293.072 83.1362C293.146 83.4536 293.26 83.7319 293.417 83.9712C293.573 84.2104 293.773 84.3984 294.017 84.5352C294.261 84.6719 294.552 84.7402 294.889 84.7402C295.216 84.7402 295.499 84.6719 295.738 84.5352C295.982 84.3984 296.183 84.2104 296.339 83.9712C296.495 83.7319 296.61 83.4536 296.683 83.1362C296.761 82.8188 296.8 82.4819 296.8 82.1255V81.957C296.8 81.6055 296.761 81.2734 296.683 80.9609C296.61 80.6436 296.493 80.3628 296.332 80.1187C296.175 79.8745 295.975 79.6841 295.731 79.5474C295.492 79.4058 295.206 79.335 294.874 79.335C294.542 79.335 294.254 79.4058 294.01 79.5474C293.771 79.6841 293.573 79.8745 293.417 80.1187C293.26 80.3628 293.146 80.6436 293.072 80.9609C292.999 81.2734 292.962 81.6055 292.962 81.957ZM301.935 74.75V86H300.162V74.75H301.935ZM308.314 83.854C308.314 83.6782 308.27 83.5195 308.182 83.3779C308.094 83.2314 307.926 83.0996 307.677 82.9824C307.433 82.8652 307.071 82.7578 306.593 82.6602C306.173 82.5674 305.787 82.4575 305.436 82.3306C305.089 82.1987 304.791 82.04 304.542 81.8545C304.293 81.6689 304.1 81.4492 303.963 81.1953C303.827 80.9414 303.758 80.6484 303.758 80.3164C303.758 79.9941 303.829 79.689 303.971 79.4009C304.112 79.1128 304.315 78.8589 304.579 78.6392C304.842 78.4194 305.162 78.2461 305.538 78.1191C305.919 77.9922 306.344 77.9287 306.812 77.9287C307.477 77.9287 308.045 78.041 308.519 78.2656C308.998 78.4854 309.364 78.7856 309.618 79.1665C309.872 79.5425 309.999 79.9673 309.999 80.4409H308.233C308.233 80.231 308.18 80.0356 308.072 79.855C307.97 79.6694 307.813 79.5205 307.604 79.4082C307.394 79.291 307.13 79.2324 306.812 79.2324C306.51 79.2324 306.258 79.2812 306.058 79.3789C305.863 79.4717 305.716 79.5938 305.619 79.7451C305.526 79.8965 305.479 80.0625 305.479 80.2432C305.479 80.375 305.504 80.4946 305.553 80.6021C305.606 80.7046 305.694 80.7998 305.816 80.8877C305.938 80.9707 306.104 81.0488 306.314 81.1221C306.529 81.1953 306.798 81.2661 307.12 81.3345C307.726 81.4614 308.246 81.625 308.68 81.8252C309.12 82.0205 309.457 82.2744 309.691 82.5869C309.925 82.8945 310.042 83.2852 310.042 83.7588C310.042 84.1104 309.967 84.4326 309.815 84.7256C309.669 85.0137 309.454 85.2651 309.171 85.48C308.888 85.6899 308.548 85.8535 308.153 85.9707C307.762 86.0879 307.323 86.1465 306.834 86.1465C306.117 86.1465 305.509 86.0195 305.011 85.7656C304.513 85.5068 304.134 85.1772 303.875 84.7769C303.622 84.3716 303.495 83.9517 303.495 83.5171H305.201C305.221 83.8442 305.311 84.1055 305.472 84.3008C305.638 84.4912 305.843 84.6304 306.087 84.7183C306.336 84.8013 306.593 84.8428 306.856 84.8428C307.174 84.8428 307.44 84.8013 307.655 84.7183C307.87 84.6304 308.033 84.5132 308.146 84.3667C308.258 84.2153 308.314 84.0444 308.314 83.854ZM317.147 80.1992L318.985 78.9614C319.293 78.7563 319.513 78.5562 319.645 78.3608C319.776 78.1606 319.842 77.9116 319.842 77.6138C319.842 77.3599 319.745 77.1255 319.549 76.9106C319.354 76.6958 319.078 76.5884 318.722 76.5884C318.473 76.5884 318.263 76.647 318.092 76.7642C317.921 76.8765 317.792 77.0278 317.704 77.2183C317.621 77.4038 317.579 77.6113 317.579 77.8408C317.579 78.0605 317.635 78.2876 317.748 78.522C317.86 78.7515 318.014 78.9932 318.209 79.2471C318.404 79.4961 318.624 79.7646 318.868 80.0527L323.907 86H321.864L317.748 81.1587C317.391 80.729 317.076 80.3359 316.803 79.9795C316.529 79.6182 316.317 79.269 316.166 78.9321C316.014 78.5903 315.938 78.2388 315.938 77.8774C315.938 77.3208 316.053 76.8423 316.283 76.4419C316.512 76.0415 316.837 75.7339 317.257 75.519C317.677 75.2993 318.167 75.1895 318.729 75.1895C319.271 75.1895 319.737 75.2993 320.128 75.519C320.523 75.7339 320.826 76.0195 321.036 76.376C321.251 76.7324 321.358 77.123 321.358 77.5479C321.358 77.8848 321.297 78.1924 321.175 78.4707C321.053 78.749 320.885 79.0029 320.67 79.2324C320.455 79.4619 320.206 79.6792 319.923 79.8843L317.689 81.5103C317.43 81.7202 317.237 81.9229 317.11 82.1182C316.988 82.3086 316.908 82.4844 316.869 82.6455C316.83 82.8066 316.81 82.9482 316.81 83.0703C316.81 83.3828 316.876 83.666 317.008 83.9199C317.145 84.1738 317.342 84.3765 317.601 84.5278C317.865 84.6743 318.185 84.7476 318.561 84.7476C318.966 84.7476 319.359 84.6572 319.74 84.4766C320.121 84.291 320.462 84.0298 320.765 83.6929C321.068 83.356 321.307 82.9531 321.483 82.4844C321.664 82.0156 321.754 81.4956 321.754 80.9243H323.277C323.277 81.4419 323.226 81.9326 323.124 82.3965C323.026 82.8604 322.867 83.29 322.647 83.6855C322.433 84.0811 322.149 84.4351 321.798 84.7476C321.764 84.7817 321.725 84.8257 321.681 84.8794C321.642 84.9282 321.603 84.9697 321.563 85.0039C321.144 85.3896 320.672 85.6777 320.15 85.8682C319.632 86.0537 319.081 86.1465 318.495 86.1465C317.787 86.1465 317.174 86.0171 316.656 85.7583C316.139 85.4995 315.738 85.1431 315.455 84.689C315.177 84.2349 315.038 83.7148 315.038 83.1289C315.038 82.6943 315.128 82.3135 315.309 81.9863C315.489 81.6543 315.736 81.3467 316.048 81.0635C316.366 80.7754 316.732 80.4873 317.147 80.1992ZM334.469 83.2534C334.469 83.0337 334.435 82.8384 334.366 82.6675C334.303 82.4966 334.188 82.3403 334.022 82.1987C333.856 82.0571 333.622 81.9204 333.319 81.7886C333.021 81.6519 332.64 81.5127 332.176 81.3711C331.668 81.2148 331.2 81.0415 330.77 80.8511C330.345 80.6558 329.974 80.4312 329.657 80.1772C329.339 79.9185 329.093 79.623 328.917 79.291C328.741 78.9541 328.653 78.5659 328.653 78.1265C328.653 77.6919 328.744 77.2964 328.924 76.9399C329.11 76.5835 329.371 76.2759 329.708 76.0171C330.05 75.7534 330.453 75.5508 330.917 75.4092C331.38 75.2627 331.893 75.1895 332.455 75.1895C333.246 75.1895 333.927 75.3359 334.498 75.6289C335.074 75.9219 335.516 76.3149 335.824 76.8081C336.136 77.3013 336.292 77.8457 336.292 78.4414H334.469C334.469 78.0898 334.393 77.7798 334.242 77.5112C334.095 77.2378 333.871 77.0229 333.568 76.8667C333.27 76.7104 332.892 76.6323 332.433 76.6323C331.998 76.6323 331.637 76.6982 331.349 76.8301C331.061 76.9619 330.846 77.1401 330.704 77.3647C330.562 77.5894 330.492 77.8433 330.492 78.1265C330.492 78.3267 330.538 78.5098 330.631 78.6758C330.724 78.8369 330.865 78.9883 331.056 79.1299C331.246 79.2666 331.485 79.396 331.773 79.5181C332.062 79.6401 332.401 79.7573 332.792 79.8696C333.382 80.0454 333.897 80.2407 334.337 80.4556C334.776 80.6655 335.143 80.9048 335.436 81.1733C335.729 81.4419 335.948 81.7471 336.095 82.0889C336.241 82.4258 336.314 82.8091 336.314 83.2388C336.314 83.688 336.224 84.0933 336.043 84.4546C335.863 84.811 335.604 85.1162 335.267 85.3701C334.935 85.6191 334.535 85.812 334.066 85.9487C333.602 86.0806 333.084 86.1465 332.513 86.1465C332 86.1465 331.495 86.0781 330.997 85.9414C330.504 85.8047 330.055 85.5972 329.649 85.3188C329.244 85.0356 328.922 84.6841 328.683 84.2642C328.443 83.8394 328.324 83.3438 328.324 82.7773H330.162C330.162 83.124 330.221 83.4194 330.338 83.6636C330.46 83.9077 330.628 84.1079 330.843 84.2642C331.058 84.4155 331.307 84.5278 331.59 84.6011C331.878 84.6743 332.186 84.7109 332.513 84.7109C332.943 84.7109 333.302 84.6499 333.59 84.5278C333.883 84.4058 334.103 84.2349 334.249 84.0151C334.396 83.7954 334.469 83.5415 334.469 83.2534ZM341.258 86.1465C340.672 86.1465 340.143 86.0513 339.669 85.8608C339.2 85.6655 338.8 85.3945 338.468 85.0479C338.141 84.7012 337.889 84.2935 337.713 83.8247C337.538 83.356 337.45 82.8506 337.45 82.3086V82.0156C337.45 81.3955 337.54 80.834 337.721 80.3311C337.901 79.8281 338.153 79.3984 338.475 79.042C338.797 78.6807 339.178 78.4048 339.618 78.2144C340.057 78.0239 340.533 77.9287 341.046 77.9287C341.612 77.9287 342.108 78.0239 342.533 78.2144C342.958 78.4048 343.309 78.6733 343.587 79.02C343.871 79.3618 344.081 79.7695 344.217 80.2432C344.359 80.7168 344.43 81.2393 344.43 81.8105V82.5649H338.307V81.2979H342.687V81.1587C342.677 80.8413 342.613 80.5435 342.496 80.2651C342.384 79.9868 342.21 79.7622 341.976 79.5913C341.742 79.4204 341.429 79.335 341.039 79.335C340.746 79.335 340.484 79.3984 340.255 79.5254C340.03 79.6475 339.842 79.8257 339.691 80.0601C339.54 80.2944 339.422 80.5776 339.339 80.9097C339.261 81.2368 339.222 81.6055 339.222 82.0156V82.3086C339.222 82.6553 339.269 82.9775 339.361 83.2754C339.459 83.5684 339.601 83.8247 339.786 84.0444C339.972 84.2642 340.196 84.4375 340.46 84.5645C340.724 84.6865 341.024 84.7476 341.361 84.7476C341.786 84.7476 342.164 84.6621 342.496 84.4912C342.828 84.3203 343.116 84.0786 343.36 83.7661L344.291 84.667C344.12 84.916 343.897 85.1553 343.624 85.3848C343.351 85.6094 343.016 85.7925 342.621 85.9341C342.23 86.0757 341.776 86.1465 341.258 86.1465ZM349.439 78.0752V79.3643H344.972V78.0752H349.439ZM346.261 76.1343H348.026V83.8101C348.026 84.0542 348.06 84.2422 348.128 84.374C348.202 84.501 348.302 84.5864 348.429 84.6304C348.556 84.6743 348.705 84.6963 348.875 84.6963C348.998 84.6963 349.115 84.689 349.227 84.6743C349.339 84.6597 349.43 84.645 349.498 84.6304L349.505 85.978C349.359 86.022 349.188 86.061 348.993 86.0952C348.802 86.1294 348.583 86.1465 348.333 86.1465C347.928 86.1465 347.569 86.0757 347.257 85.9341C346.944 85.7876 346.7 85.5508 346.524 85.2236C346.349 84.8965 346.261 84.4619 346.261 83.9199V76.1343ZM354.435 78.0752V79.3643H349.967V78.0752H354.435ZM351.256 76.1343H353.021V83.8101C353.021 84.0542 353.055 84.2422 353.124 84.374C353.197 84.501 353.297 84.5864 353.424 84.6304C353.551 84.6743 353.7 84.6963 353.871 84.6963C353.993 84.6963 354.11 84.689 354.222 84.6743C354.334 84.6597 354.425 84.645 354.493 84.6304L354.5 85.978C354.354 86.022 354.183 86.061 353.988 86.0952C353.797 86.1294 353.578 86.1465 353.329 86.1465C352.923 86.1465 352.564 86.0757 352.252 85.9341C351.939 85.7876 351.695 85.5508 351.52 85.2236C351.344 84.8965 351.256 84.4619 351.256 83.9199V76.1343ZM357.687 78.0752V86H355.914V78.0752H357.687ZM355.797 75.9951C355.797 75.7266 355.885 75.5044 356.061 75.3286C356.241 75.1479 356.49 75.0576 356.808 75.0576C357.12 75.0576 357.367 75.1479 357.547 75.3286C357.728 75.5044 357.818 75.7266 357.818 75.9951C357.818 76.2588 357.728 76.4785 357.547 76.6543C357.367 76.8301 357.12 76.918 356.808 76.918C356.49 76.918 356.241 76.8301 356.061 76.6543C355.885 76.4785 355.797 76.2588 355.797 75.9951ZM361.371 79.7671V86H359.605V78.0752H361.268L361.371 79.7671ZM361.056 81.7446L360.484 81.7373C360.489 81.1758 360.567 80.6606 360.719 80.1919C360.875 79.7231 361.09 79.3203 361.363 78.9834C361.642 78.6465 361.974 78.3877 362.359 78.207C362.745 78.0215 363.175 77.9287 363.648 77.9287C364.029 77.9287 364.374 77.9824 364.681 78.0898C364.994 78.1924 365.26 78.3608 365.479 78.5952C365.704 78.8296 365.875 79.1348 365.992 79.5107C366.109 79.8818 366.168 80.3384 366.168 80.8804V86H364.396V80.873C364.396 80.4922 364.339 80.1919 364.227 79.9722C364.12 79.7476 363.961 79.5889 363.751 79.4961C363.546 79.3984 363.29 79.3496 362.982 79.3496C362.679 79.3496 362.408 79.4131 362.169 79.54C361.93 79.667 361.727 79.8403 361.561 80.0601C361.4 80.2798 361.275 80.5337 361.188 80.8218C361.1 81.1099 361.056 81.4175 361.056 81.7446ZM373.045 78.0752H374.649V85.7803C374.649 86.4932 374.498 87.0986 374.195 87.5967C373.893 88.0947 373.47 88.4731 372.928 88.7319C372.386 88.9956 371.759 89.1274 371.046 89.1274C370.743 89.1274 370.406 89.0835 370.035 88.9956C369.669 88.9077 369.312 88.7661 368.966 88.5708C368.624 88.3804 368.338 88.1289 368.109 87.8164L368.937 86.7764C369.22 87.1133 369.532 87.3599 369.874 87.5161C370.216 87.6724 370.575 87.7505 370.951 87.7505C371.356 87.7505 371.7 87.6748 371.983 87.5234C372.271 87.377 372.494 87.1597 372.65 86.8716C372.806 86.5835 372.884 86.2319 372.884 85.8169V79.8696L373.045 78.0752ZM367.662 82.1255V81.9717C367.662 81.3711 367.735 80.8242 367.882 80.3311C368.028 79.833 368.238 79.4058 368.512 79.0493C368.785 78.688 369.117 78.4121 369.508 78.2217C369.898 78.0264 370.34 77.9287 370.833 77.9287C371.346 77.9287 371.783 78.0215 372.145 78.207C372.511 78.3926 372.816 78.6587 373.06 79.0054C373.304 79.3472 373.495 79.7573 373.631 80.2358C373.773 80.7095 373.878 81.2368 373.946 81.8179V82.3086C373.883 82.875 373.775 83.3926 373.624 83.8613C373.473 84.3301 373.272 84.7354 373.023 85.0771C372.774 85.4189 372.467 85.6826 372.101 85.8682C371.739 86.0537 371.312 86.1465 370.819 86.1465C370.335 86.1465 369.898 86.0464 369.508 85.8462C369.122 85.646 368.79 85.3652 368.512 85.0039C368.238 84.6426 368.028 84.2178 367.882 83.7295C367.735 83.2363 367.662 82.7017 367.662 82.1255ZM369.427 81.9717V82.1255C369.427 82.4868 369.461 82.8237 369.53 83.1362C369.603 83.4487 369.713 83.7246 369.859 83.9639C370.011 84.1982 370.201 84.3838 370.431 84.5205C370.665 84.6523 370.941 84.7183 371.258 84.7183C371.673 84.7183 372.013 84.6304 372.276 84.4546C372.545 84.2788 372.75 84.042 372.892 83.7441C373.038 83.4414 373.141 83.1045 373.199 82.7334V81.4077C373.17 81.1196 373.109 80.8511 373.016 80.6021C372.928 80.353 372.809 80.1357 372.657 79.9502C372.506 79.7598 372.315 79.6133 372.086 79.5107C371.856 79.4033 371.585 79.3496 371.273 79.3496C370.956 79.3496 370.68 79.418 370.445 79.5547C370.211 79.6914 370.018 79.8794 369.867 80.1187C369.72 80.3579 369.61 80.6362 369.537 80.9536C369.464 81.271 369.427 81.6104 369.427 81.9717ZM380.926 83.854C380.926 83.6782 380.882 83.5195 380.794 83.3779C380.707 83.2314 380.538 83.0996 380.289 82.9824C380.045 82.8652 379.684 82.7578 379.205 82.6602C378.785 82.5674 378.399 82.4575 378.048 82.3306C377.701 82.1987 377.403 82.04 377.154 81.8545C376.905 81.6689 376.712 81.4492 376.576 81.1953C376.439 80.9414 376.371 80.6484 376.371 80.3164C376.371 79.9941 376.441 79.689 376.583 79.4009C376.725 79.1128 376.927 78.8589 377.191 78.6392C377.455 78.4194 377.774 78.2461 378.15 78.1191C378.531 77.9922 378.956 77.9287 379.425 77.9287C380.089 77.9287 380.658 78.041 381.131 78.2656C381.61 78.4854 381.976 78.7856 382.23 79.1665C382.484 79.5425 382.611 79.9673 382.611 80.4409H380.846C380.846 80.231 380.792 80.0356 380.685 79.855C380.582 79.6694 380.426 79.5205 380.216 79.4082C380.006 79.291 379.742 79.2324 379.425 79.2324C379.122 79.2324 378.871 79.2812 378.67 79.3789C378.475 79.4717 378.329 79.5938 378.231 79.7451C378.138 79.8965 378.092 80.0625 378.092 80.2432C378.092 80.375 378.116 80.4946 378.165 80.6021C378.219 80.7046 378.307 80.7998 378.429 80.8877C378.551 80.9707 378.717 81.0488 378.927 81.1221C379.142 81.1953 379.41 81.2661 379.732 81.3345C380.338 81.4614 380.858 81.625 381.292 81.8252C381.732 82.0205 382.069 82.2744 382.303 82.5869C382.538 82.8945 382.655 83.2852 382.655 83.7588C382.655 84.1104 382.579 84.4326 382.428 84.7256C382.281 85.0137 382.066 85.2651 381.783 85.48C381.5 85.6899 381.161 85.8535 380.765 85.9707C380.375 86.0879 379.935 86.1465 379.447 86.1465C378.729 86.1465 378.121 86.0195 377.623 85.7656C377.125 85.5068 376.747 85.1772 376.488 84.7769C376.234 84.3716 376.107 83.9517 376.107 83.5171H377.813C377.833 83.8442 377.923 84.1055 378.084 84.3008C378.25 84.4912 378.456 84.6304 378.7 84.7183C378.949 84.8013 379.205 84.8428 379.469 84.8428C379.786 84.8428 380.052 84.8013 380.267 84.7183C380.482 84.6304 380.646 84.5132 380.758 84.3667C380.87 84.2153 380.926 84.0444 380.926 83.854Z" fill="#505050"/>
<rect width="126" height="80" transform="translate(400 41)" fill="white" fill-opacity="0.01"/>
<path d="M424 74C420.15 74 417 77.15 417 81C417 84.85 420.15 88 424 88C427.85 88 431 84.85 431 81C431 77.15 427.85 74 424 74ZM424 86.6C422.88 86.6 421.9 85.62 421.9 84.5C421.9 83.38 422.88 82.4 424 82.4C425.12 82.4 426.1 83.38 426.1 84.5C426.1 85.62 425.12 86.6 424 86.6ZM427.78 83.52C427.71 83.8 427.64 84.08 427.5 84.36C427.43 83.45 427.08 82.68 426.45 82.05C425.82 81.35 424.91 81 424 81C423.3 81 422.6 81.21 422.04 81.56C421.48 81.91 420.99 82.47 420.78 83.1C420.64 83.52 420.5 83.94 420.5 84.36C420.29 83.87 420.15 83.31 420.15 82.75C420.15 81.7 420.57 80.72 421.27 80.02C421.97 79.32 422.95 78.9 424 78.9C424.77 78.9 425.54 79.11 426.17 79.53C426.8 79.95 427.29 80.58 427.57 81.28C427.85 81.98 427.92 82.75 427.78 83.52ZM429.18 82.96C429.18 82.89 429.18 82.82 429.18 82.75C429.18 81.35 428.62 80.02 427.64 79.04C426.66 78.06 425.4 77.5 424 77.5C422.95 77.5 421.97 77.78 421.06 78.41C420.22 78.97 419.52 79.81 419.1 80.79C418.82 81.49 418.68 82.26 418.68 83.03C418.54 82.33 418.4 81.7 418.4 81C418.4 79.53 418.96 78.06 420.01 77.01C421.06 75.96 422.53 75.4 424 75.4C425.12 75.4 426.17 75.75 427.08 76.31C427.99 76.94 428.69 77.78 429.11 78.83C429.6 79.88 429.74 81 429.46 82.12C429.39 82.4 429.32 82.68 429.18 82.96Z" fill="#1A1A1A"/>
<path d="M442.694 83.2534C442.694 83.0337 442.66 82.8384 442.592 82.6675C442.528 82.4966 442.414 82.3403 442.248 82.1987C442.082 82.0571 441.847 81.9204 441.544 81.7886C441.247 81.6519 440.866 81.5127 440.402 81.3711C439.894 81.2148 439.425 81.0415 438.996 80.8511C438.571 80.6558 438.2 80.4312 437.882 80.1772C437.565 79.9185 437.318 79.623 437.143 79.291C436.967 78.9541 436.879 78.5659 436.879 78.1265C436.879 77.6919 436.969 77.2964 437.15 76.9399C437.335 76.5835 437.597 76.2759 437.934 76.0171C438.275 75.7534 438.678 75.5508 439.142 75.4092C439.606 75.2627 440.119 75.1895 440.68 75.1895C441.471 75.1895 442.152 75.3359 442.724 75.6289C443.3 75.9219 443.742 76.3149 444.049 76.8081C444.362 77.3013 444.518 77.8457 444.518 78.4414H442.694C442.694 78.0898 442.619 77.7798 442.467 77.5112C442.321 77.2378 442.096 77.0229 441.793 76.8667C441.496 76.7104 441.117 76.6323 440.658 76.6323C440.224 76.6323 439.862 76.6982 439.574 76.8301C439.286 76.9619 439.071 77.1401 438.93 77.3647C438.788 77.5894 438.717 77.8433 438.717 78.1265C438.717 78.3267 438.764 78.5098 438.856 78.6758C438.949 78.8369 439.091 78.9883 439.281 79.1299C439.472 79.2666 439.711 79.396 439.999 79.5181C440.287 79.6401 440.626 79.7573 441.017 79.8696C441.608 80.0454 442.123 80.2407 442.562 80.4556C443.002 80.6655 443.368 80.9048 443.661 81.1733C443.954 81.4419 444.174 81.7471 444.32 82.0889C444.467 82.4258 444.54 82.8091 444.54 83.2388C444.54 83.688 444.45 84.0933 444.269 84.4546C444.088 84.811 443.83 85.1162 443.493 85.3701C443.161 85.6191 442.76 85.812 442.292 85.9487C441.828 86.0806 441.31 86.1465 440.739 86.1465C440.226 86.1465 439.721 86.0781 439.223 85.9414C438.729 85.8047 438.28 85.5972 437.875 85.3188C437.47 85.0356 437.147 84.6841 436.908 84.2642C436.669 83.8394 436.549 83.3438 436.549 82.7773H438.388C438.388 83.124 438.446 83.4194 438.563 83.6636C438.686 83.9077 438.854 84.1079 439.069 84.2642C439.284 84.4155 439.533 84.5278 439.816 84.6011C440.104 84.6743 440.412 84.7109 440.739 84.7109C441.168 84.7109 441.527 84.6499 441.815 84.5278C442.108 84.4058 442.328 84.2349 442.475 84.0151C442.621 83.7954 442.694 83.5415 442.694 83.2534ZM447.755 79.6865V86H445.99V78.0752H447.653L447.755 79.6865ZM447.47 81.7446L446.869 81.7373C446.869 81.1904 446.938 80.6851 447.074 80.2212C447.211 79.7573 447.411 79.3545 447.675 79.0127C447.938 78.666 448.266 78.3999 448.656 78.2144C449.052 78.0239 449.508 77.9287 450.026 77.9287C450.387 77.9287 450.717 77.9824 451.015 78.0898C451.317 78.1924 451.579 78.356 451.798 78.5806C452.023 78.8052 452.194 79.0933 452.311 79.4448C452.433 79.7964 452.494 80.2212 452.494 80.7192V86H450.729V80.873C450.729 80.4873 450.67 80.1846 450.553 79.9648C450.441 79.7451 450.277 79.5889 450.062 79.4961C449.853 79.3984 449.601 79.3496 449.308 79.3496C448.976 79.3496 448.693 79.4131 448.458 79.54C448.229 79.667 448.041 79.8403 447.895 80.0601C447.748 80.2798 447.641 80.5337 447.572 80.8218C447.504 81.1099 447.47 81.4175 447.47 81.7446ZM452.384 81.2759L451.557 81.459C451.557 80.9805 451.623 80.5288 451.754 80.104C451.891 79.6743 452.089 79.2983 452.348 78.9761C452.611 78.6489 452.936 78.3926 453.322 78.207C453.708 78.0215 454.149 77.9287 454.647 77.9287C455.053 77.9287 455.414 77.9849 455.731 78.0972C456.054 78.2046 456.327 78.3755 456.552 78.6099C456.776 78.8442 456.947 79.1494 457.064 79.5254C457.182 79.8965 457.24 80.3457 457.24 80.873V86H455.468V80.8657C455.468 80.4653 455.409 80.1553 455.292 79.9355C455.18 79.7158 455.019 79.5645 454.809 79.4814C454.599 79.3936 454.347 79.3496 454.054 79.3496C453.781 79.3496 453.539 79.4009 453.329 79.5034C453.124 79.6011 452.951 79.7402 452.809 79.9209C452.667 80.0967 452.56 80.2993 452.487 80.5288C452.418 80.7583 452.384 81.0073 452.384 81.2759ZM463.825 84.1323V78.0752H465.597V86H463.927L463.825 84.1323ZM464.074 82.4844L464.667 82.4697C464.667 83.002 464.608 83.4927 464.491 83.9419C464.374 84.3862 464.193 84.7744 463.949 85.1064C463.705 85.4336 463.393 85.6899 463.012 85.8755C462.631 86.0562 462.174 86.1465 461.642 86.1465C461.256 86.1465 460.902 86.0903 460.58 85.978C460.258 85.8657 459.979 85.6924 459.745 85.458C459.516 85.2236 459.337 84.9185 459.21 84.5425C459.083 84.1665 459.02 83.7173 459.02 83.1948V78.0752H460.785V83.2095C460.785 83.4976 460.819 83.7393 460.888 83.9346C460.956 84.125 461.049 84.2788 461.166 84.396C461.283 84.5132 461.42 84.5962 461.576 84.645C461.732 84.6938 461.898 84.7183 462.074 84.7183C462.577 84.7183 462.973 84.6206 463.261 84.4253C463.554 84.2251 463.761 83.9565 463.883 83.6196C464.01 83.2827 464.074 82.9043 464.074 82.4844ZM471.852 83.854C471.852 83.6782 471.808 83.5195 471.72 83.3779C471.632 83.2314 471.464 83.0996 471.215 82.9824C470.971 82.8652 470.609 82.7578 470.131 82.6602C469.711 82.5674 469.325 82.4575 468.974 82.3306C468.627 82.1987 468.329 82.04 468.08 81.8545C467.831 81.6689 467.638 81.4492 467.501 81.1953C467.365 80.9414 467.296 80.6484 467.296 80.3164C467.296 79.9941 467.367 79.689 467.509 79.4009C467.65 79.1128 467.853 78.8589 468.117 78.6392C468.38 78.4194 468.7 78.2461 469.076 78.1191C469.457 77.9922 469.882 77.9287 470.351 77.9287C471.015 77.9287 471.583 78.041 472.057 78.2656C472.536 78.4854 472.902 78.7856 473.156 79.1665C473.41 79.5425 473.537 79.9673 473.537 80.4409H471.771C471.771 80.231 471.718 80.0356 471.61 79.855C471.508 79.6694 471.352 79.5205 471.142 79.4082C470.932 79.291 470.668 79.2324 470.351 79.2324C470.048 79.2324 469.796 79.2812 469.596 79.3789C469.401 79.4717 469.254 79.5938 469.157 79.7451C469.064 79.8965 469.018 80.0625 469.018 80.2432C469.018 80.375 469.042 80.4946 469.091 80.6021C469.145 80.7046 469.232 80.7998 469.354 80.8877C469.477 80.9707 469.643 81.0488 469.853 81.1221C470.067 81.1953 470.336 81.2661 470.658 81.3345C471.264 81.4614 471.784 81.625 472.218 81.8252C472.658 82.0205 472.995 82.2744 473.229 82.5869C473.463 82.8945 473.581 83.2852 473.581 83.7588C473.581 84.1104 473.505 84.4326 473.354 84.7256C473.207 85.0137 472.992 85.2651 472.709 85.48C472.426 85.6899 472.086 85.8535 471.691 85.9707C471.3 86.0879 470.861 86.1465 470.373 86.1465C469.655 86.1465 469.047 86.0195 468.549 85.7656C468.051 85.5068 467.672 85.1772 467.414 84.7769C467.16 84.3716 467.033 83.9517 467.033 83.5171H468.739C468.759 83.8442 468.849 84.1055 469.01 84.3008C469.176 84.4912 469.381 84.6304 469.625 84.7183C469.875 84.8013 470.131 84.8428 470.395 84.8428C470.712 84.8428 470.978 84.8013 471.193 84.7183C471.408 84.6304 471.571 84.5132 471.684 84.3667C471.796 84.2153 471.852 84.0444 471.852 83.854ZM476.869 74.75V86H475.111V74.75H476.869ZM476.562 81.7446L475.99 81.7373C475.995 81.1904 476.071 80.6851 476.217 80.2212C476.369 79.7573 476.579 79.3545 476.847 79.0127C477.121 78.666 477.448 78.3999 477.829 78.2144C478.209 78.0239 478.632 77.9287 479.096 77.9287C479.486 77.9287 479.838 77.9824 480.15 78.0898C480.468 78.1973 480.741 78.3706 480.971 78.6099C481.2 78.8442 481.374 79.1519 481.491 79.5327C481.613 79.9087 481.674 80.3677 481.674 80.9097V86H479.901V80.895C479.901 80.5142 479.845 80.2114 479.733 79.9868C479.625 79.7622 479.467 79.6011 479.257 79.5034C479.047 79.4009 478.791 79.3496 478.488 79.3496C478.17 79.3496 477.89 79.4131 477.646 79.54C477.406 79.667 477.206 79.8403 477.045 80.0601C476.884 80.2798 476.762 80.5337 476.679 80.8218C476.601 81.1099 476.562 81.4175 476.562 81.7446ZM491.422 82.0229H488.646V80.5654H491.422C491.906 80.5654 492.296 80.4873 492.594 80.3311C492.892 80.1748 493.109 79.96 493.246 79.6865C493.388 79.4082 493.458 79.0908 493.458 78.7344C493.458 78.3975 493.388 78.0825 493.246 77.7896C493.109 77.4917 492.892 77.2524 492.594 77.0718C492.296 76.8911 491.906 76.8008 491.422 76.8008H489.21V86H487.372V75.3359H491.422C492.248 75.3359 492.948 75.4824 493.524 75.7754C494.105 76.0635 494.547 76.4639 494.85 76.9766C495.153 77.4844 495.304 78.0654 495.304 78.7197C495.304 79.4082 495.153 79.999 494.85 80.4922C494.547 80.9854 494.105 81.3638 493.524 81.6274C492.948 81.8911 492.248 82.0229 491.422 82.0229ZM498.549 79.584V86H496.784V78.0752H498.468L498.549 79.584ZM500.973 78.0239L500.958 79.6646C500.851 79.645 500.734 79.6304 500.607 79.6206C500.485 79.6108 500.363 79.606 500.241 79.606C499.938 79.606 499.672 79.6499 499.442 79.7378C499.213 79.8208 499.02 79.9429 498.864 80.104C498.712 80.2603 498.595 80.4507 498.512 80.6753C498.429 80.8999 498.38 81.1514 498.366 81.4297L497.963 81.459C497.963 80.9609 498.012 80.4995 498.109 80.0747C498.207 79.6499 498.354 79.2764 498.549 78.9541C498.749 78.6318 498.998 78.3804 499.296 78.1997C499.599 78.019 499.948 77.9287 500.343 77.9287C500.451 77.9287 500.565 77.9385 500.688 77.958C500.814 77.9775 500.91 77.9995 500.973 78.0239ZM501.552 82.1255V81.957C501.552 81.3857 501.635 80.856 501.801 80.3677C501.967 79.8745 502.206 79.4473 502.519 79.0859C502.836 78.7197 503.222 78.4365 503.676 78.2363C504.135 78.0312 504.652 77.9287 505.229 77.9287C505.81 77.9287 506.327 78.0312 506.781 78.2363C507.24 78.4365 507.628 78.7197 507.946 79.0859C508.263 79.4473 508.505 79.8745 508.671 80.3677C508.837 80.856 508.92 81.3857 508.92 81.957V82.1255C508.92 82.6968 508.837 83.2266 508.671 83.7148C508.505 84.2031 508.263 84.6304 507.946 84.9966C507.628 85.3579 507.243 85.6411 506.789 85.8462C506.334 86.0464 505.819 86.1465 505.243 86.1465C504.662 86.1465 504.142 86.0464 503.683 85.8462C503.229 85.6411 502.843 85.3579 502.526 84.9966C502.208 84.6304 501.967 84.2031 501.801 83.7148C501.635 83.2266 501.552 82.6968 501.552 82.1255ZM503.317 81.957V82.1255C503.317 82.4819 503.354 82.8188 503.427 83.1362C503.5 83.4536 503.615 83.7319 503.771 83.9712C503.927 84.2104 504.127 84.3984 504.372 84.5352C504.616 84.6719 504.906 84.7402 505.243 84.7402C505.57 84.7402 505.854 84.6719 506.093 84.5352C506.337 84.3984 506.537 84.2104 506.693 83.9712C506.85 83.7319 506.964 83.4536 507.038 83.1362C507.116 82.8188 507.155 82.4819 507.155 82.1255V81.957C507.155 81.6055 507.116 81.2734 507.038 80.9609C506.964 80.6436 506.847 80.3628 506.686 80.1187C506.53 79.8745 506.33 79.6841 506.085 79.5474C505.846 79.4058 505.561 79.335 505.229 79.335C504.896 79.335 504.608 79.4058 504.364 79.5474C504.125 79.6841 503.927 79.8745 503.771 80.1187C503.615 80.3628 503.5 80.6436 503.427 80.9609C503.354 81.2734 503.317 81.6055 503.317 81.957Z" fill="#505050"/>
<rect width="119" height="80" transform="translate(526 41)" fill="white" fill-opacity="0.01"/>
<path d="M550 74C553.866 74 557 77.1336 557 81C557 84.8664 553.866 88 550 88C546.134 88 543 84.8664 543 81C543 77.1336 546.134 74 550 74ZM550 86.6875C550.202 86.6875 550.714 86.4906 551.302 85.3641C551.542 84.8801 551.725 84.2922 551.903 83.625H548.097C548.25 84.2922 548.458 84.8801 548.698 85.3641C549.262 86.4906 549.798 86.6875 550 86.6875ZM547.881 82.3125H552.119C552.163 81.8941 552.188 81.4539 552.188 81C552.188 80.5461 552.163 80.1059 552.119 79.6875H547.881C547.837 80.1059 547.812 80.5461 547.812 81C547.812 81.4539 547.837 81.8941 547.881 82.3125ZM551.903 78.375C551.725 77.7078 551.542 77.1199 551.302 76.6373C550.714 75.5099 550.202 75.3125 550 75.3125C549.798 75.3125 549.262 75.5099 548.698 76.6373C548.458 77.1199 548.25 77.7078 548.097 78.375H551.903ZM553.44 79.6875C553.478 80.1113 553.5 80.5516 553.5 81C553.5 81.4484 553.478 81.8887 553.44 82.3125H555.534C555.636 81.8914 555.688 81.4512 555.688 81C555.688 80.5488 555.636 80.1086 555.534 79.6875H553.44ZM552.354 75.8214C552.74 76.5227 553.046 77.3934 553.246 78.375H555.048C554.463 77.2512 553.511 76.3483 552.354 75.8214ZM547.646 75.8214C546.489 76.3483 545.539 77.2512 544.953 78.375H546.754C546.954 77.3934 547.26 76.5227 547.646 75.8214ZM544.312 81C544.312 81.4512 544.365 81.8914 544.465 82.3125H546.56C546.522 81.8887 546.5 81.4484 546.5 81C546.5 80.5516 546.522 80.1113 546.56 79.6875H544.465C544.365 80.1086 544.312 80.5488 544.312 81ZM555.048 83.625H553.246C553.046 84.6066 552.74 85.4762 552.354 86.1789C553.511 85.6512 554.463 84.7488 555.048 83.625ZM546.754 83.625H544.953C545.539 84.7488 546.489 85.6512 547.646 86.1789C547.26 85.4762 546.954 84.6066 546.754 83.625Z" fill="#505050"/>
<path d="M569.383 82.5283H571.214C571.155 83.2266 570.96 83.8491 570.628 84.396C570.296 84.938 569.83 85.3652 569.229 85.6777C568.628 85.9902 567.898 86.1465 567.039 86.1465C566.38 86.1465 565.787 86.0293 565.259 85.7949C564.732 85.5557 564.28 85.2188 563.904 84.7842C563.528 84.3447 563.24 83.8149 563.04 83.1948C562.845 82.5747 562.747 81.8813 562.747 81.1147V80.2285C562.747 79.4619 562.847 78.7686 563.047 78.1484C563.252 77.5283 563.545 76.9985 563.926 76.5591C564.307 76.1147 564.764 75.7754 565.296 75.541C565.833 75.3066 566.436 75.1895 567.105 75.1895C567.955 75.1895 568.672 75.3457 569.258 75.6582C569.844 75.9707 570.298 76.4028 570.621 76.9546C570.948 77.5063 571.148 78.1387 571.221 78.8516H569.39C569.341 78.3926 569.234 77.9995 569.068 77.6724C568.907 77.3452 568.667 77.0962 568.35 76.9253C568.033 76.7495 567.618 76.6616 567.105 76.6616C566.685 76.6616 566.319 76.7397 566.006 76.896C565.694 77.0522 565.433 77.2817 565.223 77.5845C565.013 77.8872 564.854 78.2607 564.747 78.7051C564.644 79.1445 564.593 79.6475 564.593 80.2139V81.1147C564.593 81.6519 564.639 82.1401 564.732 82.5796C564.83 83.0142 564.976 83.3877 565.171 83.7002C565.372 84.0127 565.625 84.2544 565.933 84.4253C566.241 84.5962 566.609 84.6816 567.039 84.6816C567.562 84.6816 567.984 84.5986 568.306 84.4326C568.633 84.2666 568.88 84.0249 569.046 83.7075C569.217 83.3853 569.329 82.9922 569.383 82.5283ZM575.982 86H573.704L573.719 84.5425H575.982C576.641 84.5425 577.193 84.3984 577.637 84.1104C578.086 83.8223 578.423 83.4097 578.648 82.8726C578.877 82.3354 578.992 81.6958 578.992 80.9536V80.375C578.992 79.7988 578.926 79.2886 578.794 78.8442C578.667 78.3999 578.477 78.0264 578.223 77.7236C577.974 77.4209 577.667 77.1914 577.3 77.0352C576.939 76.8789 576.521 76.8008 576.048 76.8008H573.66V75.3359H576.048C576.756 75.3359 577.403 75.4556 577.989 75.6948C578.575 75.9292 579.08 76.2686 579.505 76.7129C579.935 77.1572 580.264 77.6895 580.494 78.3096C580.723 78.9297 580.838 79.623 580.838 80.3896V80.9536C580.838 81.7202 580.723 82.4136 580.494 83.0337C580.264 83.6538 579.935 84.186 579.505 84.6304C579.075 85.0698 578.562 85.4092 577.967 85.6484C577.376 85.8828 576.714 86 575.982 86ZM574.722 75.3359V86H572.884V75.3359H574.722ZM591.143 75.3359V86H589.305L584.522 78.3608V86H582.684V75.3359H584.522L589.319 82.9897V75.3359H591.143Z" fill="#505050"/>
<path d="M608.801 81.4658H606.989V80.3232H608.801C609.081 80.3232 609.308 80.2777 609.484 80.1865C609.66 80.0921 609.789 79.9619 609.87 79.7959C609.951 79.6299 609.992 79.4427 609.992 79.2344C609.992 79.0228 609.951 78.8258 609.87 78.6436C609.789 78.4613 609.66 78.3148 609.484 78.2041C609.308 78.0934 609.081 78.0381 608.801 78.0381H607.497V84H606.032V76.8906H608.801C609.357 76.8906 609.834 76.9915 610.231 77.1934C610.632 77.3919 610.938 77.667 611.149 78.0186C611.361 78.3701 611.467 78.7721 611.467 79.2246C611.467 79.6836 611.361 80.0807 611.149 80.416C610.938 80.7513 610.632 81.0101 610.231 81.1924C609.834 81.3747 609.357 81.4658 608.801 81.4658ZM613.596 79.8691V84H612.189V78.7168H613.513L613.596 79.8691ZM615.188 78.6826L615.163 79.9863C615.095 79.9766 615.012 79.9684 614.914 79.9619C614.82 79.9521 614.733 79.9473 614.655 79.9473C614.457 79.9473 614.284 79.9733 614.138 80.0254C613.994 80.0742 613.874 80.1475 613.776 80.2451C613.682 80.3428 613.61 80.4616 613.562 80.6016C613.516 80.7415 613.49 80.901 613.483 81.0801L613.2 80.9922C613.2 80.6504 613.234 80.3363 613.303 80.0498C613.371 79.7601 613.47 79.5078 613.601 79.293C613.734 79.0781 613.897 78.9121 614.089 78.7949C614.281 78.6777 614.501 78.6191 614.748 78.6191C614.826 78.6191 614.906 78.6257 614.987 78.6387C615.069 78.6484 615.135 78.6631 615.188 78.6826ZM615.28 81.4121V81.3096C615.28 80.9222 615.336 80.5658 615.446 80.2402C615.557 79.9115 615.718 79.6266 615.93 79.3857C616.141 79.1449 616.402 78.9577 616.711 78.8242C617.02 78.6875 617.375 78.6191 617.776 78.6191C618.176 78.6191 618.532 78.6875 618.845 78.8242C619.157 78.9577 619.419 79.1449 619.631 79.3857C619.846 79.6266 620.009 79.9115 620.119 80.2402C620.23 80.5658 620.285 80.9222 620.285 81.3096V81.4121C620.285 81.7962 620.23 82.1527 620.119 82.4814C620.009 82.807 619.846 83.0918 619.631 83.3359C619.419 83.5768 619.159 83.764 618.85 83.8975C618.541 84.0309 618.186 84.0977 617.785 84.0977C617.385 84.0977 617.029 84.0309 616.716 83.8975C616.407 83.764 616.145 83.5768 615.93 83.3359C615.718 83.0918 615.557 82.807 615.446 82.4814C615.336 82.1527 615.28 81.7962 615.28 81.4121ZM616.687 81.3096V81.4121C616.687 81.6335 616.706 81.8402 616.745 82.0322C616.784 82.2243 616.846 82.3936 616.931 82.54C617.019 82.6833 617.133 82.7956 617.273 82.877C617.413 82.9583 617.584 82.999 617.785 82.999C617.981 82.999 618.148 82.9583 618.288 82.877C618.428 82.7956 618.541 82.6833 618.625 82.54C618.71 82.3936 618.772 82.2243 618.811 82.0322C618.853 81.8402 618.874 81.6335 618.874 81.4121V81.3096C618.874 81.0947 618.853 80.8929 618.811 80.7041C618.772 80.512 618.708 80.3428 618.62 80.1963C618.536 80.0465 618.423 79.9294 618.283 79.8447C618.143 79.7601 617.974 79.7178 617.776 79.7178C617.577 79.7178 617.408 79.7601 617.268 79.8447C617.131 79.9294 617.019 80.0465 616.931 80.1963C616.846 80.3428 616.784 80.512 616.745 80.7041C616.706 80.8929 616.687 81.0947 616.687 81.3096Z" fill="#1A1A1A"/>
<rect x="597.5" y="73.5" width="31" height="15" rx="7.5" stroke="#1A1A1A"/>
<rect width="166" height="80" transform="translate(645 41)" fill="white" fill-opacity="0.01"/>
<path d="M666.164 77.3571C665.438 77.3571 664.849 77.9328 664.849 78.6429C664.849 79.3529 665.438 79.9286 666.164 79.9286C666.89 79.9286 667.479 79.3529 667.479 78.6429C667.479 77.9328 666.89 77.3571 666.164 77.3571ZM674.247 75H663.729C662.785 75 662 75.7674 662 76.7143V85.2857C662 86.2326 662.785 87 663.728 87H674.247C675.215 87 676 86.2326 676 85.2857V76.7143C676 75.7674 675.239 75 674.247 75ZM674.685 85.1062L670.938 80.1268C670.87 80.0036 670.714 79.9286 670.547 79.9286C670.379 79.9286 670.223 80.0027 670.13 80.1262L667.21 83.986L666.194 82.7512C666.1 82.6366 665.949 82.5688 665.789 82.5688C665.629 82.5688 665.479 82.6366 665.385 82.7512L663.316 85.264C663.316 85.2632 663.316 85.2648 663.316 85.264L663.315 76.7143C663.315 76.478 663.511 76.2857 663.753 76.2857H674.272C674.513 76.2857 674.71 76.478 674.71 76.7143V85.1062H674.685Z" fill="#505050"/>
<path d="M688.764 84.5425V86H683.41V84.5425H688.764ZM683.922 75.3359V86H682.084V75.3359H683.922ZM689.672 82.1255V81.957C689.672 81.3857 689.755 80.856 689.921 80.3677C690.087 79.8745 690.326 79.4473 690.639 79.0859C690.956 78.7197 691.342 78.4365 691.796 78.2363C692.255 78.0312 692.772 77.9287 693.349 77.9287C693.93 77.9287 694.447 78.0312 694.901 78.2363C695.36 78.4365 695.749 78.7197 696.066 79.0859C696.383 79.4473 696.625 79.8745 696.791 80.3677C696.957 80.856 697.04 81.3857 697.04 81.957V82.1255C697.04 82.6968 696.957 83.2266 696.791 83.7148C696.625 84.2031 696.383 84.6304 696.066 84.9966C695.749 85.3579 695.363 85.6411 694.909 85.8462C694.455 86.0464 693.939 86.1465 693.363 86.1465C692.782 86.1465 692.262 86.0464 691.803 85.8462C691.349 85.6411 690.963 85.3579 690.646 84.9966C690.329 84.6304 690.087 84.2031 689.921 83.7148C689.755 83.2266 689.672 82.6968 689.672 82.1255ZM691.437 81.957V82.1255C691.437 82.4819 691.474 82.8188 691.547 83.1362C691.62 83.4536 691.735 83.7319 691.891 83.9712C692.047 84.2104 692.248 84.3984 692.492 84.5352C692.736 84.6719 693.026 84.7402 693.363 84.7402C693.69 84.7402 693.974 84.6719 694.213 84.5352C694.457 84.3984 694.657 84.2104 694.813 83.9712C694.97 83.7319 695.084 83.4536 695.158 83.1362C695.236 82.8188 695.275 82.4819 695.275 82.1255V81.957C695.275 81.6055 695.236 81.2734 695.158 80.9609C695.084 80.6436 694.967 80.3628 694.806 80.1187C694.65 79.8745 694.45 79.6841 694.206 79.5474C693.966 79.4058 693.681 79.335 693.349 79.335C693.017 79.335 692.729 79.4058 692.484 79.5474C692.245 79.6841 692.047 79.8745 691.891 80.1187C691.735 80.3628 691.62 80.6436 691.547 80.9609C691.474 81.2734 691.437 81.6055 691.437 81.957ZM701.757 84.7402C702.045 84.7402 702.304 84.6841 702.533 84.5718C702.768 84.4546 702.956 84.2935 703.097 84.0884C703.244 83.8833 703.324 83.6465 703.339 83.3779H705.001C704.992 83.8906 704.84 84.3569 704.547 84.7769C704.254 85.1968 703.866 85.5312 703.383 85.7803C702.899 86.0244 702.365 86.1465 701.779 86.1465C701.173 86.1465 700.646 86.0439 700.197 85.8389C699.748 85.6289 699.374 85.3408 699.076 84.9746C698.778 84.6084 698.554 84.186 698.402 83.7075C698.256 83.229 698.183 82.7163 698.183 82.1694V81.9131C698.183 81.3662 698.256 80.8535 698.402 80.375C698.554 79.8916 698.778 79.4668 699.076 79.1006C699.374 78.7344 699.748 78.4487 700.197 78.2437C700.646 78.0337 701.171 77.9287 701.771 77.9287C702.406 77.9287 702.963 78.0557 703.441 78.3096C703.92 78.5586 704.296 78.9077 704.569 79.3569C704.848 79.8013 704.992 80.3188 705.001 80.9097H703.339C703.324 80.6167 703.251 80.353 703.119 80.1187C702.992 79.8794 702.812 79.689 702.577 79.5474C702.348 79.4058 702.072 79.335 701.75 79.335C701.393 79.335 701.098 79.4082 700.863 79.5547C700.629 79.6963 700.446 79.8916 700.314 80.1406C700.182 80.3848 700.087 80.6606 700.028 80.9683C699.975 81.271 699.948 81.5859 699.948 81.9131V82.1694C699.948 82.4966 699.975 82.814 700.028 83.1216C700.082 83.4292 700.175 83.7051 700.307 83.9492C700.443 84.1885 700.629 84.3813 700.863 84.5278C701.098 84.6694 701.396 84.7402 701.757 84.7402ZM710.824 84.4106V80.6313C710.824 80.3481 710.773 80.104 710.67 79.8989C710.568 79.6938 710.412 79.5352 710.202 79.4229C709.997 79.3105 709.738 79.2544 709.425 79.2544C709.137 79.2544 708.888 79.3032 708.678 79.4009C708.468 79.4985 708.305 79.6304 708.188 79.7964C708.07 79.9624 708.012 80.1504 708.012 80.3604H706.254C706.254 80.0479 706.33 79.7451 706.481 79.4521C706.632 79.1592 706.852 78.8979 707.14 78.6685C707.428 78.439 707.772 78.2583 708.173 78.1265C708.573 77.9946 709.022 77.9287 709.521 77.9287C710.116 77.9287 710.644 78.0288 711.103 78.229C711.566 78.4292 711.93 78.7319 712.194 79.1372C712.462 79.5376 712.597 80.0405 712.597 80.646V84.1689C712.597 84.5303 712.621 84.855 712.67 85.1431C712.724 85.4263 712.799 85.6729 712.897 85.8828V86H711.088C711.005 85.8096 710.939 85.5679 710.89 85.2749C710.846 84.9771 710.824 84.689 710.824 84.4106ZM711.081 81.1807L711.095 82.272H709.828C709.501 82.272 709.213 82.3037 708.964 82.3672C708.715 82.4258 708.507 82.5137 708.341 82.6309C708.175 82.748 708.051 82.8896 707.968 83.0557C707.885 83.2217 707.843 83.4097 707.843 83.6196C707.843 83.8296 707.892 84.0225 707.99 84.1982C708.087 84.3691 708.229 84.5034 708.415 84.6011C708.605 84.6987 708.834 84.7476 709.103 84.7476C709.464 84.7476 709.779 84.6743 710.048 84.5278C710.321 84.3765 710.536 84.1934 710.692 83.9785C710.849 83.7588 710.932 83.5513 710.941 83.356L711.513 84.1396C711.454 84.3398 711.354 84.5547 711.212 84.7842C711.071 85.0137 710.885 85.2334 710.656 85.4434C710.431 85.6484 710.16 85.8169 709.843 85.9487C709.53 86.0806 709.169 86.1465 708.759 86.1465C708.241 86.1465 707.78 86.0439 707.375 85.8389C706.969 85.6289 706.652 85.3481 706.422 84.9966C706.193 84.6401 706.078 84.2373 706.078 83.7881C706.078 83.3682 706.156 82.9971 706.312 82.6748C706.474 82.3477 706.708 82.0742 707.016 81.8545C707.328 81.6348 707.709 81.4688 708.158 81.3564C708.607 81.2393 709.12 81.1807 709.696 81.1807H711.081ZM716.332 74.75V86H714.56V74.75H716.332ZM724.85 83.605L726.974 75.3359H728.087L727.963 77.4673L725.692 86H724.535L724.85 83.605ZM723.261 75.3359L724.982 83.5391L725.136 86H723.905L721.437 75.3359H723.261ZM730.497 83.5171L732.196 75.3359H734.027L731.559 86H730.329L730.497 83.5171ZM728.52 75.3359L730.622 83.627L730.929 86H729.772L727.538 77.4673L727.421 75.3359H728.52ZM738.473 86.1465C737.887 86.1465 737.357 86.0513 736.884 85.8608C736.415 85.6655 736.015 85.3945 735.683 85.0479C735.355 84.7012 735.104 84.2935 734.928 83.8247C734.752 83.356 734.665 82.8506 734.665 82.3086V82.0156C734.665 81.3955 734.755 80.834 734.936 80.3311C735.116 79.8281 735.368 79.3984 735.69 79.042C736.012 78.6807 736.393 78.4048 736.833 78.2144C737.272 78.0239 737.748 77.9287 738.261 77.9287C738.827 77.9287 739.323 78.0239 739.748 78.2144C740.172 78.4048 740.524 78.6733 740.802 79.02C741.085 79.3618 741.295 79.7695 741.432 80.2432C741.574 80.7168 741.645 81.2393 741.645 81.8105V82.5649H735.521V81.2979H739.901V81.1587C739.892 80.8413 739.828 80.5435 739.711 80.2651C739.599 79.9868 739.425 79.7622 739.191 79.5913C738.957 79.4204 738.644 79.335 738.253 79.335C737.96 79.335 737.699 79.3984 737.47 79.5254C737.245 79.6475 737.057 79.8257 736.906 80.0601C736.754 80.2944 736.637 80.5776 736.554 80.9097C736.476 81.2368 736.437 81.6055 736.437 82.0156V82.3086C736.437 82.6553 736.483 82.9775 736.576 83.2754C736.674 83.5684 736.815 83.8247 737.001 84.0444C737.187 84.2642 737.411 84.4375 737.675 84.5645C737.938 84.6865 738.239 84.7476 738.576 84.7476C739 84.7476 739.379 84.6621 739.711 84.4912C740.043 84.3203 740.331 84.0786 740.575 83.7661L741.505 84.667C741.334 84.916 741.112 85.1553 740.839 85.3848C740.565 85.6094 740.231 85.7925 739.835 85.9341C739.445 86.0757 738.991 86.1465 738.473 86.1465ZM743.029 74.75H744.794V84.3081L744.625 86H743.029V74.75ZM749.965 81.9644V82.1182C749.965 82.7041 749.899 83.2437 749.767 83.7368C749.64 84.2251 749.445 84.6499 749.181 85.0112C748.922 85.3726 748.6 85.6533 748.214 85.8535C747.833 86.0488 747.392 86.1465 746.889 86.1465C746.396 86.1465 745.966 86.0537 745.6 85.8682C745.233 85.6826 744.926 85.4189 744.677 85.0771C744.433 84.7354 744.235 84.3276 744.083 83.854C743.932 83.3804 743.825 82.8579 743.761 82.2866V81.7959C743.825 81.2197 743.932 80.6973 744.083 80.2285C744.235 79.7549 744.433 79.3472 744.677 79.0054C744.926 78.6587 745.231 78.3926 745.592 78.207C745.958 78.0215 746.386 77.9287 746.874 77.9287C747.382 77.9287 747.829 78.0264 748.214 78.2217C748.605 78.417 748.93 78.6953 749.188 79.0566C749.447 79.4131 749.64 79.8379 749.767 80.3311C749.899 80.8242 749.965 81.3687 749.965 81.9644ZM748.2 82.1182V81.9644C748.2 81.6079 748.17 81.2734 748.112 80.9609C748.053 80.6436 747.956 80.3652 747.819 80.126C747.687 79.8867 747.506 79.6987 747.277 79.562C747.052 79.4204 746.771 79.3496 746.435 79.3496C746.122 79.3496 745.854 79.4033 745.629 79.5107C745.404 79.6182 745.216 79.7646 745.065 79.9502C744.914 80.1357 744.794 80.3506 744.706 80.5947C744.623 80.8389 744.567 81.1025 744.538 81.3857V82.7114C744.582 83.0776 744.674 83.4146 744.816 83.7222C744.962 84.0249 745.167 84.269 745.431 84.4546C745.695 84.6353 746.034 84.7256 746.449 84.7256C746.776 84.7256 747.052 84.6597 747.277 84.5278C747.501 84.396 747.68 84.2129 747.812 83.9785C747.948 83.7393 748.046 83.4609 748.104 83.1436C748.168 82.8262 748.2 82.4844 748.2 82.1182ZM753.231 79.5986V89.0469H751.466V78.0752H753.092L753.231 79.5986ZM758.395 81.9644V82.1182C758.395 82.6943 758.327 83.229 758.19 83.7222C758.058 84.2104 757.86 84.6377 757.597 85.0039C757.338 85.3652 757.018 85.646 756.637 85.8462C756.256 86.0464 755.817 86.1465 755.319 86.1465C754.826 86.1465 754.394 86.0562 754.022 85.8755C753.656 85.6899 753.346 85.4287 753.092 85.0918C752.838 84.7549 752.633 84.3594 752.477 83.9053C752.326 83.4463 752.218 82.9434 752.155 82.3965V81.8032C752.218 81.2222 752.326 80.6948 752.477 80.2212C752.633 79.7476 752.838 79.3398 753.092 78.998C753.346 78.6562 753.656 78.3926 754.022 78.207C754.389 78.0215 754.816 77.9287 755.304 77.9287C755.802 77.9287 756.244 78.0264 756.63 78.2217C757.016 78.4121 757.34 78.6855 757.604 79.042C757.868 79.3936 758.065 79.8184 758.197 80.3164C758.329 80.8096 758.395 81.3589 758.395 81.9644ZM756.63 82.1182V81.9644C756.63 81.5981 756.596 81.2588 756.527 80.9463C756.459 80.6289 756.352 80.3506 756.205 80.1113C756.059 79.8721 755.871 79.6865 755.641 79.5547C755.417 79.418 755.146 79.3496 754.828 79.3496C754.516 79.3496 754.247 79.4033 754.022 79.5107C753.798 79.6133 753.61 79.7573 753.458 79.9429C753.307 80.1284 753.19 80.3457 753.107 80.5947C753.024 80.8389 752.965 81.105 752.931 81.3931V82.814C752.99 83.1655 753.09 83.4878 753.231 83.7808C753.373 84.0737 753.573 84.3081 753.832 84.4839C754.096 84.6548 754.433 84.7402 754.843 84.7402C755.16 84.7402 755.431 84.6719 755.656 84.5352C755.88 84.3984 756.063 84.2104 756.205 83.9712C756.352 83.7271 756.459 83.4463 756.527 83.1289C756.596 82.8115 756.63 82.4746 756.63 82.1182Z" fill="#505050"/>
<path d="M774.801 81.4658H772.989V80.3232H774.801C775.081 80.3232 775.308 80.2777 775.484 80.1865C775.66 80.0921 775.789 79.9619 775.87 79.7959C775.951 79.6299 775.992 79.4427 775.992 79.2344C775.992 79.0228 775.951 78.8258 775.87 78.6436C775.789 78.4613 775.66 78.3148 775.484 78.2041C775.308 78.0934 775.081 78.0381 774.801 78.0381H773.497V84H772.032V76.8906H774.801C775.357 76.8906 775.834 76.9915 776.231 77.1934C776.632 77.3919 776.938 77.667 777.149 78.0186C777.361 78.3701 777.467 78.7721 777.467 79.2246C777.467 79.6836 777.361 80.0807 777.149 80.416C776.938 80.7513 776.632 81.0101 776.231 81.1924C775.834 81.3747 775.357 81.4658 774.801 81.4658ZM779.596 79.8691V84H778.189V78.7168H779.513L779.596 79.8691ZM781.188 78.6826L781.163 79.9863C781.095 79.9766 781.012 79.9684 780.914 79.9619C780.82 79.9521 780.733 79.9473 780.655 79.9473C780.457 79.9473 780.284 79.9733 780.138 80.0254C779.994 80.0742 779.874 80.1475 779.776 80.2451C779.682 80.3428 779.61 80.4616 779.562 80.6016C779.516 80.7415 779.49 80.901 779.483 81.0801L779.2 80.9922C779.2 80.6504 779.234 80.3363 779.303 80.0498C779.371 79.7601 779.47 79.5078 779.601 79.293C779.734 79.0781 779.897 78.9121 780.089 78.7949C780.281 78.6777 780.501 78.6191 780.748 78.6191C780.826 78.6191 780.906 78.6257 780.987 78.6387C781.069 78.6484 781.135 78.6631 781.188 78.6826ZM781.28 81.4121V81.3096C781.28 80.9222 781.336 80.5658 781.446 80.2402C781.557 79.9115 781.718 79.6266 781.93 79.3857C782.141 79.1449 782.402 78.9577 782.711 78.8242C783.02 78.6875 783.375 78.6191 783.776 78.6191C784.176 78.6191 784.532 78.6875 784.845 78.8242C785.157 78.9577 785.419 79.1449 785.631 79.3857C785.846 79.6266 786.009 79.9115 786.119 80.2402C786.23 80.5658 786.285 80.9222 786.285 81.3096V81.4121C786.285 81.7962 786.23 82.1527 786.119 82.4814C786.009 82.807 785.846 83.0918 785.631 83.3359C785.419 83.5768 785.159 83.764 784.85 83.8975C784.541 84.0309 784.186 84.0977 783.785 84.0977C783.385 84.0977 783.029 84.0309 782.716 83.8975C782.407 83.764 782.145 83.5768 781.93 83.3359C781.718 83.0918 781.557 82.807 781.446 82.4814C781.336 82.1527 781.28 81.7962 781.28 81.4121ZM782.687 81.3096V81.4121C782.687 81.6335 782.706 81.8402 782.745 82.0322C782.784 82.2243 782.846 82.3936 782.931 82.54C783.019 82.6833 783.133 82.7956 783.273 82.877C783.413 82.9583 783.584 82.999 783.785 82.999C783.981 82.999 784.148 82.9583 784.288 82.877C784.428 82.7956 784.541 82.6833 784.625 82.54C784.71 82.3936 784.772 82.2243 784.811 82.0322C784.853 81.8402 784.874 81.6335 784.874 81.4121V81.3096C784.874 81.0947 784.853 80.8929 784.811 80.7041C784.772 80.512 784.708 80.3428 784.62 80.1963C784.536 80.0465 784.423 79.9294 784.283 79.8447C784.143 79.7601 783.974 79.7178 783.776 79.7178C783.577 79.7178 783.408 79.7601 783.268 79.8447C783.131 79.9294 783.019 80.0465 782.931 80.1963C782.846 80.3428 782.784 80.512 782.745 80.7041C782.706 80.8929 782.687 81.0947 782.687 81.3096Z" fill="#1A1A1A"/>
<rect x="763.5" y="73.5" width="31" height="15" rx="7.5" stroke="#1A1A1A"/>
<rect width="48" height="80" transform="translate(731 41)" fill="white"/>
<path d="M752.05 88C751.766 88 751.514 87.9062 751.295 87.7188C751.098 87.5104 751 87.2708 751 87C751 86.7292 751.098 86.4896 751.295 86.2812L756.873 81L751.295 75.7188C751.098 75.5104 751 75.2708 751 75C751 74.7292 751.098 74.4896 751.295 74.2812C751.514 74.0938 751.766 74 752.05 74C752.334 74 752.586 74.0938 752.805 74.2812L759.105 80.2812C759.302 80.4896 759.4 80.7292 759.4 81C759.4 81.2708 759.302 81.5104 759.105 81.7188L752.805 87.7188C752.586 87.9062 752.334 88 752.05 88Z" fill="#1A1A1A"/>
</g>
<path d="M51 41H779H51ZM779 122H51V120H779V122ZM51 121V41V121ZM779 41V121V41Z" fill="#E6E6E6" mask="url(#path-3-inside-1_3378_49372)"/>
</g>
<defs>
<filter id="filter0_ddd_3378_49372" x="-30" y="-4" width="890" height="337" filterUnits="userSpaceOnUse" color-interpolation-filters="sRGB">
<feFlood flood-opacity="0" result="BackgroundImageFix"/>
<feColorMatrix in="SourceAlpha" type="matrix" values="0 0 0 0 0 0 0 0 0 0 0 0 0 0 0 0 0 0 127 0" result="hardAlpha"/>
<feOffset dy="2.39404"/>
<feGaussianBlur stdDeviation="2.66004"/>
<feColorMatrix type="matrix" values="0 0 0 0 0 0 0 0 0 0 0 0 0 0 0 0 0 0 0.0201946 0"/>
<feBlend mode="normal" in2="BackgroundImageFix" result="effect1_dropShadow_3378_49372"/>
<feColorMatrix in="SourceAlpha" type="matrix" values="0 0 0 0 0 0 0 0 0 0 0 0 0 0 0 0 0 0 127 0" result="hardAlpha"/>
<feOffset dy="8.04107"/>
<feGaussianBlur stdDeviation="8.93452"/>
<feColorMatrix type="matrix" values="0 0 0 0 0 0 0 0 0 0 0 0 0 0 0 0 0 0 0.0298054 0"/>
<feBlend mode="normal" in2="effect1_dropShadow_3378_49372" result="effect2_dropShadow_3378_49372"/>
<feColorMatrix in="SourceAlpha" type="matrix" values="0 0 0 0 0 0 0 0 0 0 0 0 0 0 0 0 0 0 127 0" result="hardAlpha"/>
<feOffset dy="36"/>
<feGaussianBlur stdDeviation="40"/>
<feColorMatrix type="matrix" values="0 0 0 0 0 0 0 0 0 0 0 0 0 0 0 0 0 0 0.05 0"/>
<feBlend mode="normal" in2="effect2_dropShadow_3378_49372" result="effect3_dropShadow_3378_49372"/>
<feBlend mode="normal" in="SourceGraphic" in2="effect3_dropShadow_3378_49372" result="shape"/>
</filter>
<clipPath id="clip0_3378_49372">
<rect width="828" height="257" fill="white"/>
</clipPath>
<clipPath id="clip1_3378_49372">
<path d="M51 45C51 42.7909 52.7909 41 55 41H775C777.209 41 779 42.7909 779 45V121H51V45Z" fill="white"/>
</clipPath>
</defs>
</svg>
