<svg width="828" height="257" viewBox="0 0 828 257" fill="none" xmlns="http://www.w3.org/2000/svg">
<g clip-path="url(#clip0_3378_49375)">
<rect width="828" height="257" fill="#F8F8F8"/>
<g filter="url(#filter0_ddd_3378_49375)">
<rect x="49" y="40" width="730" height="177" rx="4" fill="white"/>
<rect x="49.5" y="40.5" width="729" height="176" rx="3.5" stroke="#E6E6E6"/>
</g>
<g clip-path="url(#clip1_3378_49375)">
<mask id="path-3-inside-1_3378_49375" fill="white">
<path d="M50 45C50 42.7909 51.7909 41 54 41H774C776.209 41 778 42.7909 778 45V121H50V45Z"/>
</mask>
<path d="M50 45C50 42.7909 51.7909 41 54 41H774C776.209 41 778 42.7909 778 45V121H50V45Z" fill="white"/>
<rect width="187" height="80" transform="translate(18 41)" fill="white" fill-opacity="0.01"/>
<path d="M57.0469 75.3359V86H55.2085V75.3359H57.0469ZM60.9214 79.6865V86H59.1562V78.0752H60.8188L60.9214 79.6865ZM60.6357 81.7446L60.0352 81.7373C60.0352 81.1904 60.1035 80.6851 60.2402 80.2212C60.377 79.7573 60.5771 79.3545 60.8408 79.0127C61.1045 78.666 61.4316 78.3999 61.8223 78.2144C62.2178 78.0239 62.6743 77.9287 63.1919 77.9287C63.5532 77.9287 63.8828 77.9824 64.1807 78.0898C64.4834 78.1924 64.7446 78.356 64.9644 78.5806C65.189 78.8052 65.3599 79.0933 65.4771 79.4448C65.5991 79.7964 65.6602 80.2212 65.6602 80.7192V86H63.895V80.873C63.895 80.4873 63.8364 80.1846 63.7192 79.9648C63.6069 79.7451 63.4434 79.5889 63.2285 79.4961C63.0186 79.3984 62.7671 79.3496 62.4741 79.3496C62.1421 79.3496 61.8589 79.4131 61.6245 79.54C61.395 79.667 61.207 79.8403 61.0605 80.0601C60.9141 80.2798 60.8066 80.5337 60.7383 80.8218C60.6699 81.1099 60.6357 81.4175 60.6357 81.7446ZM65.5503 81.2759L64.7227 81.459C64.7227 80.9805 64.7886 80.5288 64.9204 80.104C65.0571 79.6743 65.2549 79.2983 65.5137 78.9761C65.7773 78.6489 66.1021 78.3926 66.4878 78.207C66.8735 78.0215 67.3154 77.9287 67.8135 77.9287C68.2188 77.9287 68.5801 77.9849 68.8975 78.0972C69.2197 78.2046 69.4932 78.3755 69.7178 78.6099C69.9424 78.8442 70.1133 79.1494 70.2305 79.5254C70.3477 79.8965 70.4062 80.3457 70.4062 80.873V86H68.6338V80.8657C68.6338 80.4653 68.5752 80.1553 68.458 79.9355C68.3457 79.7158 68.1846 79.5645 67.9746 79.4814C67.7646 79.3936 67.5132 79.3496 67.2202 79.3496C66.9468 79.3496 66.7051 79.4009 66.4951 79.5034C66.29 79.6011 66.1167 79.7402 65.9751 79.9209C65.8335 80.0967 65.7261 80.2993 65.6528 80.5288C65.5845 80.7583 65.5503 81.0073 65.5503 81.2759ZM76.6904 84.4106V80.6313C76.6904 80.3481 76.6392 80.104 76.5366 79.8989C76.4341 79.6938 76.2778 79.5352 76.0679 79.4229C75.8628 79.3105 75.604 79.2544 75.2915 79.2544C75.0034 79.2544 74.7544 79.3032 74.5444 79.4009C74.3345 79.4985 74.1709 79.6304 74.0537 79.7964C73.9365 79.9624 73.8779 80.1504 73.8779 80.3604H72.1201C72.1201 80.0479 72.1958 79.7451 72.3472 79.4521C72.4985 79.1592 72.7183 78.8979 73.0063 78.6685C73.2944 78.439 73.6387 78.2583 74.0391 78.1265C74.4395 77.9946 74.8887 77.9287 75.3867 77.9287C75.9824 77.9287 76.5098 78.0288 76.9688 78.229C77.4326 78.4292 77.7964 78.7319 78.0601 79.1372C78.3286 79.5376 78.4629 80.0405 78.4629 80.646V84.1689C78.4629 84.5303 78.4873 84.855 78.5361 85.1431C78.5898 85.4263 78.6655 85.6729 78.7632 85.8828V86H76.9541C76.8711 85.8096 76.8052 85.5679 76.7563 85.2749C76.7124 84.9771 76.6904 84.689 76.6904 84.4106ZM76.9468 81.1807L76.9614 82.272H75.6943C75.3672 82.272 75.0791 82.3037 74.8301 82.3672C74.5811 82.4258 74.3735 82.5137 74.2075 82.6309C74.0415 82.748 73.917 82.8896 73.834 83.0557C73.751 83.2217 73.7095 83.4097 73.7095 83.6196C73.7095 83.8296 73.7583 84.0225 73.856 84.1982C73.9536 84.3691 74.0952 84.5034 74.2808 84.6011C74.4712 84.6987 74.7007 84.7476 74.9692 84.7476C75.3306 84.7476 75.6455 84.6743 75.9141 84.5278C76.1875 84.3765 76.4023 84.1934 76.5586 83.9785C76.7148 83.7588 76.7979 83.5513 76.8076 83.356L77.3789 84.1396C77.3203 84.3398 77.2202 84.5547 77.0786 84.7842C76.937 85.0137 76.7515 85.2334 76.522 85.4434C76.2974 85.6484 76.0264 85.8169 75.709 85.9487C75.3965 86.0806 75.0352 86.1465 74.625 86.1465C74.1074 86.1465 73.646 86.0439 73.2407 85.8389C72.8354 85.6289 72.5181 85.3481 72.2886 84.9966C72.0591 84.6401 71.9443 84.2373 71.9443 83.7881C71.9443 83.3682 72.0225 82.9971 72.1787 82.6748C72.3398 82.3477 72.5742 82.0742 72.8818 81.8545C73.1943 81.6348 73.5752 81.4688 74.0244 81.3564C74.4736 81.2393 74.9863 81.1807 75.5625 81.1807H76.9468ZM85.3843 78.0752H86.9883V85.7803C86.9883 86.4932 86.8369 87.0986 86.5342 87.5967C86.2314 88.0947 85.8091 88.4731 85.2671 88.7319C84.7251 88.9956 84.0977 89.1274 83.3848 89.1274C83.082 89.1274 82.7451 89.0835 82.374 88.9956C82.0078 88.9077 81.6514 88.7661 81.3047 88.5708C80.9629 88.3804 80.6772 88.1289 80.4478 87.8164L81.2754 86.7764C81.5586 87.1133 81.8711 87.3599 82.2129 87.5161C82.5547 87.6724 82.9136 87.7505 83.2896 87.7505C83.6948 87.7505 84.0391 87.6748 84.3223 87.5234C84.6104 87.377 84.8325 87.1597 84.9888 86.8716C85.145 86.5835 85.2231 86.2319 85.2231 85.8169V79.8696L85.3843 78.0752ZM80.001 82.1255V81.9717C80.001 81.3711 80.0742 80.8242 80.2207 80.3311C80.3672 79.833 80.5771 79.4058 80.8506 79.0493C81.124 78.688 81.4561 78.4121 81.8467 78.2217C82.2373 78.0264 82.6792 77.9287 83.1724 77.9287C83.6851 77.9287 84.1221 78.0215 84.4834 78.207C84.8496 78.3926 85.1548 78.6587 85.3989 79.0054C85.6431 79.3472 85.8335 79.7573 85.9702 80.2358C86.1118 80.7095 86.2168 81.2368 86.2852 81.8179V82.3086C86.2217 82.875 86.1143 83.3926 85.9629 83.8613C85.8115 84.3301 85.6113 84.7354 85.3623 85.0771C85.1133 85.4189 84.8057 85.6826 84.4395 85.8682C84.0781 86.0537 83.6509 86.1465 83.1577 86.1465C82.6743 86.1465 82.2373 86.0464 81.8467 85.8462C81.4609 85.646 81.1289 85.3652 80.8506 85.0039C80.5771 84.6426 80.3672 84.2178 80.2207 83.7295C80.0742 83.2363 80.001 82.7017 80.001 82.1255ZM81.7661 81.9717V82.1255C81.7661 82.4868 81.8003 82.8237 81.8687 83.1362C81.9419 83.4487 82.0518 83.7246 82.1982 83.9639C82.3496 84.1982 82.54 84.3838 82.7695 84.5205C83.0039 84.6523 83.2798 84.7183 83.5972 84.7183C84.0122 84.7183 84.3516 84.6304 84.6152 84.4546C84.8838 84.2788 85.0889 84.042 85.2305 83.7441C85.377 83.4414 85.4795 83.1045 85.5381 82.7334V81.4077C85.5088 81.1196 85.4478 80.8511 85.355 80.6021C85.2671 80.353 85.1475 80.1357 84.9961 79.9502C84.8447 79.7598 84.6543 79.6133 84.4248 79.5107C84.1953 79.4033 83.9243 79.3496 83.6118 79.3496C83.2944 79.3496 83.0186 79.418 82.7842 79.5547C82.5498 79.6914 82.3569 79.8794 82.2056 80.1187C82.0591 80.3579 81.9492 80.6362 81.876 80.9536C81.8027 81.271 81.7661 81.6104 81.7661 81.9717ZM92.313 86.1465C91.7271 86.1465 91.1973 86.0513 90.7236 85.8608C90.2549 85.6655 89.8545 85.3945 89.5225 85.0479C89.1953 84.7012 88.9438 84.2935 88.7681 83.8247C88.5923 83.356 88.5044 82.8506 88.5044 82.3086V82.0156C88.5044 81.3955 88.5947 80.834 88.7754 80.3311C88.9561 79.8281 89.2075 79.3984 89.5298 79.042C89.8521 78.6807 90.2329 78.4048 90.6724 78.2144C91.1118 78.0239 91.5879 77.9287 92.1006 77.9287C92.667 77.9287 93.1626 78.0239 93.5874 78.2144C94.0122 78.4048 94.3638 78.6733 94.6421 79.02C94.9253 79.3618 95.1353 79.7695 95.272 80.2432C95.4136 80.7168 95.4844 81.2393 95.4844 81.8105V82.5649H89.3613V81.2979H93.7412V81.1587C93.7314 80.8413 93.668 80.5435 93.5508 80.2651C93.4385 79.9868 93.2651 79.7622 93.0308 79.5913C92.7964 79.4204 92.4839 79.335 92.0933 79.335C91.8003 79.335 91.5391 79.3984 91.3096 79.5254C91.085 79.6475 90.897 79.8257 90.7456 80.0601C90.5942 80.2944 90.4771 80.5776 90.394 80.9097C90.3159 81.2368 90.2769 81.6055 90.2769 82.0156V82.3086C90.2769 82.6553 90.3232 82.9775 90.416 83.2754C90.5137 83.5684 90.6553 83.8247 90.8408 84.0444C91.0264 84.2642 91.251 84.4375 91.5146 84.5645C91.7783 84.6865 92.0786 84.7476 92.4155 84.7476C92.8403 84.7476 93.2188 84.6621 93.5508 84.4912C93.8828 84.3203 94.1709 84.0786 94.415 83.7661L95.3452 84.667C95.1743 84.916 94.9521 85.1553 94.6787 85.3848C94.4053 85.6094 94.0708 85.7925 93.6753 85.9341C93.2847 86.0757 92.8306 86.1465 92.313 86.1465ZM107.071 82.5283H108.902C108.844 83.2266 108.648 83.8491 108.316 84.396C107.984 84.938 107.518 85.3652 106.917 85.6777C106.317 85.9902 105.587 86.1465 104.728 86.1465C104.068 86.1465 103.475 86.0293 102.948 85.7949C102.42 85.5557 101.969 85.2188 101.593 84.7842C101.217 84.3447 100.929 83.8149 100.729 83.1948C100.533 82.5747 100.436 81.8813 100.436 81.1147V80.2285C100.436 79.4619 100.536 78.7686 100.736 78.1484C100.941 77.5283 101.234 76.9985 101.615 76.5591C101.996 76.1147 102.452 75.7754 102.984 75.541C103.521 75.3066 104.125 75.1895 104.793 75.1895C105.643 75.1895 106.361 75.3457 106.947 75.6582C107.533 75.9707 107.987 76.4028 108.309 76.9546C108.636 77.5063 108.836 78.1387 108.91 78.8516H107.079C107.03 78.3926 106.922 77.9995 106.756 77.6724C106.595 77.3452 106.356 77.0962 106.039 76.9253C105.721 76.7495 105.306 76.6616 104.793 76.6616C104.374 76.6616 104.007 76.7397 103.695 76.896C103.382 77.0522 103.121 77.2817 102.911 77.5845C102.701 77.8872 102.542 78.2607 102.435 78.7051C102.333 79.1445 102.281 79.6475 102.281 80.2139V81.1147C102.281 81.6519 102.328 82.1401 102.42 82.5796C102.518 83.0142 102.665 83.3877 102.86 83.7002C103.06 84.0127 103.314 84.2544 103.622 84.4253C103.929 84.5962 104.298 84.6816 104.728 84.6816C105.25 84.6816 105.672 84.5986 105.995 84.4326C106.322 84.2666 106.568 84.0249 106.734 83.7075C106.905 83.3853 107.018 82.9922 107.071 82.5283ZM110.06 82.1255V81.957C110.06 81.3857 110.143 80.856 110.309 80.3677C110.475 79.8745 110.714 79.4473 111.026 79.0859C111.344 78.7197 111.729 78.4365 112.184 78.2363C112.643 78.0312 113.16 77.9287 113.736 77.9287C114.317 77.9287 114.835 78.0312 115.289 78.2363C115.748 78.4365 116.136 78.7197 116.454 79.0859C116.771 79.4473 117.013 79.8745 117.179 80.3677C117.345 80.856 117.428 81.3857 117.428 81.957V82.1255C117.428 82.6968 117.345 83.2266 117.179 83.7148C117.013 84.2031 116.771 84.6304 116.454 84.9966C116.136 85.3579 115.75 85.6411 115.296 85.8462C114.842 86.0464 114.327 86.1465 113.751 86.1465C113.17 86.1465 112.65 86.0464 112.191 85.8462C111.737 85.6411 111.351 85.3579 111.034 84.9966C110.716 84.6304 110.475 84.2031 110.309 83.7148C110.143 83.2266 110.06 82.6968 110.06 82.1255ZM111.825 81.957V82.1255C111.825 82.4819 111.861 82.8188 111.935 83.1362C112.008 83.4536 112.123 83.7319 112.279 83.9712C112.435 84.2104 112.635 84.3984 112.879 84.5352C113.124 84.6719 113.414 84.7402 113.751 84.7402C114.078 84.7402 114.361 84.6719 114.601 84.5352C114.845 84.3984 115.045 84.2104 115.201 83.9712C115.357 83.7319 115.472 83.4536 115.545 83.1362C115.624 82.8188 115.663 82.4819 115.663 82.1255V81.957C115.663 81.6055 115.624 81.2734 115.545 80.9609C115.472 80.6436 115.355 80.3628 115.194 80.1187C115.038 79.8745 114.837 79.6841 114.593 79.5474C114.354 79.4058 114.068 79.335 113.736 79.335C113.404 79.335 113.116 79.4058 112.872 79.5474C112.633 79.6841 112.435 79.8745 112.279 80.1187C112.123 80.3628 112.008 80.6436 111.935 80.9609C111.861 81.2734 111.825 81.6055 111.825 81.957ZM120.672 79.6865V86H118.907V78.0752H120.57L120.672 79.6865ZM120.387 81.7446L119.786 81.7373C119.786 81.1904 119.854 80.6851 119.991 80.2212C120.128 79.7573 120.328 79.3545 120.592 79.0127C120.855 78.666 121.183 78.3999 121.573 78.2144C121.969 78.0239 122.425 77.9287 122.943 77.9287C123.304 77.9287 123.634 77.9824 123.932 78.0898C124.234 78.1924 124.496 78.356 124.715 78.5806C124.94 78.8052 125.111 79.0933 125.228 79.4448C125.35 79.7964 125.411 80.2212 125.411 80.7192V86H123.646V80.873C123.646 80.4873 123.587 80.1846 123.47 79.9648C123.358 79.7451 123.194 79.5889 122.979 79.4961C122.77 79.3984 122.518 79.3496 122.225 79.3496C121.893 79.3496 121.61 79.4131 121.375 79.54C121.146 79.667 120.958 79.8403 120.812 80.0601C120.665 80.2798 120.558 80.5337 120.489 80.8218C120.421 81.1099 120.387 81.4175 120.387 81.7446ZM125.301 81.2759L124.474 81.459C124.474 80.9805 124.54 80.5288 124.671 80.104C124.808 79.6743 125.006 79.2983 125.265 78.9761C125.528 78.6489 125.853 78.3926 126.239 78.207C126.625 78.0215 127.066 77.9287 127.564 77.9287C127.97 77.9287 128.331 77.9849 128.648 78.0972C128.971 78.2046 129.244 78.3755 129.469 78.6099C129.693 78.8442 129.864 79.1494 129.981 79.5254C130.099 79.8965 130.157 80.3457 130.157 80.873V86H128.385V80.8657C128.385 80.4653 128.326 80.1553 128.209 79.9355C128.097 79.7158 127.936 79.5645 127.726 79.4814C127.516 79.3936 127.264 79.3496 126.971 79.3496C126.698 79.3496 126.456 79.4009 126.246 79.5034C126.041 79.6011 125.868 79.7402 125.726 79.9209C125.584 80.0967 125.477 80.2993 125.404 80.5288C125.335 80.7583 125.301 81.0073 125.301 81.2759ZM133.746 79.5986V89.0469H131.981V78.0752H133.607L133.746 79.5986ZM138.91 81.9644V82.1182C138.91 82.6943 138.841 83.229 138.705 83.7222C138.573 84.2104 138.375 84.6377 138.111 85.0039C137.853 85.3652 137.533 85.646 137.152 85.8462C136.771 86.0464 136.332 86.1465 135.833 86.1465C135.34 86.1465 134.908 86.0562 134.537 85.8755C134.171 85.6899 133.861 85.4287 133.607 85.0918C133.353 84.7549 133.148 84.3594 132.992 83.9053C132.84 83.4463 132.733 82.9434 132.669 82.3965V81.8032C132.733 81.2222 132.84 80.6948 132.992 80.2212C133.148 79.7476 133.353 79.3398 133.607 78.998C133.861 78.6562 134.171 78.3926 134.537 78.207C134.903 78.0215 135.331 77.9287 135.819 77.9287C136.317 77.9287 136.759 78.0264 137.145 78.2217C137.53 78.4121 137.855 78.6855 138.119 79.042C138.382 79.3936 138.58 79.8184 138.712 80.3164C138.844 80.8096 138.91 81.3589 138.91 81.9644ZM137.145 82.1182V81.9644C137.145 81.5981 137.11 81.2588 137.042 80.9463C136.974 80.6289 136.866 80.3506 136.72 80.1113C136.573 79.8721 136.385 79.6865 136.156 79.5547C135.931 79.418 135.66 79.3496 135.343 79.3496C135.03 79.3496 134.762 79.4033 134.537 79.5107C134.312 79.6133 134.125 79.7573 133.973 79.9429C133.822 80.1284 133.705 80.3457 133.622 80.5947C133.539 80.8389 133.48 81.105 133.446 81.3931V82.814C133.504 83.1655 133.604 83.4878 133.746 83.7808C133.888 84.0737 134.088 84.3081 134.347 84.4839C134.61 84.6548 134.947 84.7402 135.357 84.7402C135.675 84.7402 135.946 84.6719 136.17 84.5352C136.395 84.3984 136.578 84.2104 136.72 83.9712C136.866 83.7271 136.974 83.4463 137.042 83.1289C137.11 82.8115 137.145 82.4746 137.145 82.1182ZM142.184 79.584V86H140.418V78.0752H142.103L142.184 79.584ZM144.608 78.0239L144.593 79.6646C144.486 79.645 144.369 79.6304 144.242 79.6206C144.12 79.6108 143.998 79.606 143.875 79.606C143.573 79.606 143.307 79.6499 143.077 79.7378C142.848 79.8208 142.655 79.9429 142.499 80.104C142.347 80.2603 142.23 80.4507 142.147 80.6753C142.064 80.8999 142.015 81.1514 142 81.4297L141.598 81.459C141.598 80.9609 141.646 80.4995 141.744 80.0747C141.842 79.6499 141.988 79.2764 142.184 78.9541C142.384 78.6318 142.633 78.3804 142.931 78.1997C143.233 78.019 143.583 77.9287 143.978 77.9287C144.085 77.9287 144.2 77.9385 144.322 77.958C144.449 77.9775 144.544 77.9995 144.608 78.0239ZM149.061 86.1465C148.475 86.1465 147.945 86.0513 147.472 85.8608C147.003 85.6655 146.603 85.3945 146.271 85.0479C145.943 84.7012 145.692 84.2935 145.516 83.8247C145.34 83.356 145.252 82.8506 145.252 82.3086V82.0156C145.252 81.3955 145.343 80.834 145.523 80.3311C145.704 79.8281 145.956 79.3984 146.278 79.042C146.6 78.6807 146.981 78.4048 147.42 78.2144C147.86 78.0239 148.336 77.9287 148.849 77.9287C149.415 77.9287 149.911 78.0239 150.335 78.2144C150.76 78.4048 151.112 78.6733 151.39 79.02C151.673 79.3618 151.883 79.7695 152.02 80.2432C152.162 80.7168 152.232 81.2393 152.232 81.8105V82.5649H146.109V81.2979H150.489V81.1587C150.479 80.8413 150.416 80.5435 150.299 80.2651C150.187 79.9868 150.013 79.7622 149.779 79.5913C149.544 79.4204 149.232 79.335 148.841 79.335C148.548 79.335 148.287 79.3984 148.058 79.5254C147.833 79.6475 147.645 79.8257 147.494 80.0601C147.342 80.2944 147.225 80.5776 147.142 80.9097C147.064 81.2368 147.025 81.6055 147.025 82.0156V82.3086C147.025 82.6553 147.071 82.9775 147.164 83.2754C147.262 83.5684 147.403 83.8247 147.589 84.0444C147.774 84.2642 147.999 84.4375 148.263 84.5645C148.526 84.6865 148.827 84.7476 149.164 84.7476C149.588 84.7476 149.967 84.6621 150.299 84.4912C150.631 84.3203 150.919 84.0786 151.163 83.7661L152.093 84.667C151.922 84.916 151.7 85.1553 151.427 85.3848C151.153 85.6094 150.819 85.7925 150.423 85.9341C150.033 86.0757 149.579 86.1465 149.061 86.1465ZM158.055 83.854C158.055 83.6782 158.011 83.5195 157.923 83.3779C157.835 83.2314 157.667 83.0996 157.418 82.9824C157.174 82.8652 156.812 82.7578 156.334 82.6602C155.914 82.5674 155.528 82.4575 155.177 82.3306C154.83 82.1987 154.532 82.04 154.283 81.8545C154.034 81.6689 153.841 81.4492 153.705 81.1953C153.568 80.9414 153.5 80.6484 153.5 80.3164C153.5 79.9941 153.57 79.689 153.712 79.4009C153.854 79.1128 154.056 78.8589 154.32 78.6392C154.583 78.4194 154.903 78.2461 155.279 78.1191C155.66 77.9922 156.085 77.9287 156.554 77.9287C157.218 77.9287 157.787 78.041 158.26 78.2656C158.739 78.4854 159.105 78.7856 159.359 79.1665C159.613 79.5425 159.74 79.9673 159.74 80.4409H157.975C157.975 80.231 157.921 80.0356 157.813 79.855C157.711 79.6694 157.555 79.5205 157.345 79.4082C157.135 79.291 156.871 79.2324 156.554 79.2324C156.251 79.2324 156 79.2812 155.799 79.3789C155.604 79.4717 155.458 79.5938 155.36 79.7451C155.267 79.8965 155.221 80.0625 155.221 80.2432C155.221 80.375 155.245 80.4946 155.294 80.6021C155.348 80.7046 155.436 80.7998 155.558 80.8877C155.68 80.9707 155.846 81.0488 156.056 81.1221C156.271 81.1953 156.539 81.2661 156.861 81.3345C157.467 81.4614 157.987 81.625 158.421 81.8252C158.861 82.0205 159.198 82.2744 159.432 82.5869C159.667 82.8945 159.784 83.2852 159.784 83.7588C159.784 84.1104 159.708 84.4326 159.557 84.7256C159.41 85.0137 159.195 85.2651 158.912 85.48C158.629 85.6899 158.29 85.8535 157.894 85.9707C157.503 86.0879 157.064 86.1465 156.576 86.1465C155.858 86.1465 155.25 86.0195 154.752 85.7656C154.254 85.5068 153.875 85.1772 153.617 84.7769C153.363 84.3716 153.236 83.9517 153.236 83.5171H154.942C154.962 83.8442 155.052 84.1055 155.213 84.3008C155.379 84.4912 155.584 84.6304 155.829 84.7183C156.078 84.8013 156.334 84.8428 156.598 84.8428C156.915 84.8428 157.181 84.8013 157.396 84.7183C157.611 84.6304 157.774 84.5132 157.887 84.3667C157.999 84.2153 158.055 84.0444 158.055 83.854ZM165.775 83.854C165.775 83.6782 165.731 83.5195 165.643 83.3779C165.555 83.2314 165.387 83.0996 165.138 82.9824C164.894 82.8652 164.532 82.7578 164.054 82.6602C163.634 82.5674 163.248 82.4575 162.896 82.3306C162.55 82.1987 162.252 82.04 162.003 81.8545C161.754 81.6689 161.561 81.4492 161.424 81.1953C161.288 80.9414 161.219 80.6484 161.219 80.3164C161.219 79.9941 161.29 79.689 161.432 79.4009C161.573 79.1128 161.776 78.8589 162.04 78.6392C162.303 78.4194 162.623 78.2461 162.999 78.1191C163.38 77.9922 163.805 77.9287 164.273 77.9287C164.938 77.9287 165.506 78.041 165.98 78.2656C166.458 78.4854 166.825 78.7856 167.079 79.1665C167.333 79.5425 167.459 79.9673 167.459 80.4409H165.694C165.694 80.231 165.641 80.0356 165.533 79.855C165.431 79.6694 165.274 79.5205 165.064 79.4082C164.854 79.291 164.591 79.2324 164.273 79.2324C163.971 79.2324 163.719 79.2812 163.519 79.3789C163.324 79.4717 163.177 79.5938 163.08 79.7451C162.987 79.8965 162.94 80.0625 162.94 80.2432C162.94 80.375 162.965 80.4946 163.014 80.6021C163.067 80.7046 163.155 80.7998 163.277 80.8877C163.399 80.9707 163.565 81.0488 163.775 81.1221C163.99 81.1953 164.259 81.2661 164.581 81.3345C165.187 81.4614 165.707 81.625 166.141 81.8252C166.581 82.0205 166.917 82.2744 167.152 82.5869C167.386 82.8945 167.503 83.2852 167.503 83.7588C167.503 84.1104 167.428 84.4326 167.276 84.7256C167.13 85.0137 166.915 85.2651 166.632 85.48C166.349 85.6899 166.009 85.8535 165.614 85.9707C165.223 86.0879 164.784 86.1465 164.295 86.1465C163.578 86.1465 162.97 86.0195 162.472 85.7656C161.974 85.5068 161.595 85.1772 161.336 84.7769C161.083 84.3716 160.956 83.9517 160.956 83.5171H162.662C162.682 83.8442 162.772 84.1055 162.933 84.3008C163.099 84.4912 163.304 84.6304 163.548 84.7183C163.797 84.8013 164.054 84.8428 164.317 84.8428C164.635 84.8428 164.901 84.8013 165.116 84.7183C165.331 84.6304 165.494 84.5132 165.606 84.3667C165.719 84.2153 165.775 84.0444 165.775 83.854ZM170.938 78.0752V86H169.166V78.0752H170.938ZM169.049 75.9951C169.049 75.7266 169.137 75.5044 169.312 75.3286C169.493 75.1479 169.742 75.0576 170.06 75.0576C170.372 75.0576 170.619 75.1479 170.799 75.3286C170.98 75.5044 171.07 75.7266 171.07 75.9951C171.07 76.2588 170.98 76.4785 170.799 76.6543C170.619 76.8301 170.372 76.918 170.06 76.918C169.742 76.918 169.493 76.8301 169.312 76.6543C169.137 76.4785 169.049 76.2588 169.049 75.9951ZM172.535 82.1255V81.957C172.535 81.3857 172.618 80.856 172.784 80.3677C172.95 79.8745 173.189 79.4473 173.502 79.0859C173.819 78.7197 174.205 78.4365 174.659 78.2363C175.118 78.0312 175.636 77.9287 176.212 77.9287C176.793 77.9287 177.311 78.0312 177.765 78.2363C178.224 78.4365 178.612 78.7197 178.929 79.0859C179.247 79.4473 179.488 79.8745 179.654 80.3677C179.82 80.856 179.903 81.3857 179.903 81.957V82.1255C179.903 82.6968 179.82 83.2266 179.654 83.7148C179.488 84.2031 179.247 84.6304 178.929 84.9966C178.612 85.3579 178.226 85.6411 177.772 85.8462C177.318 86.0464 176.803 86.1465 176.227 86.1465C175.646 86.1465 175.125 86.0464 174.667 85.8462C174.212 85.6411 173.827 85.3579 173.509 84.9966C173.192 84.6304 172.95 84.2031 172.784 83.7148C172.618 83.2266 172.535 82.6968 172.535 82.1255ZM174.3 81.957V82.1255C174.3 82.4819 174.337 82.8188 174.41 83.1362C174.483 83.4536 174.598 83.7319 174.754 83.9712C174.911 84.2104 175.111 84.3984 175.355 84.5352C175.599 84.6719 175.89 84.7402 176.227 84.7402C176.554 84.7402 176.837 84.6719 177.076 84.5352C177.32 84.3984 177.521 84.2104 177.677 83.9712C177.833 83.7319 177.948 83.4536 178.021 83.1362C178.099 82.8188 178.138 82.4819 178.138 82.1255V81.957C178.138 81.6055 178.099 81.2734 178.021 80.9609C177.948 80.6436 177.831 80.3628 177.669 80.1187C177.513 79.8745 177.313 79.6841 177.069 79.5474C176.83 79.4058 176.544 79.335 176.212 79.335C175.88 79.335 175.592 79.4058 175.348 79.5474C175.108 79.6841 174.911 79.8745 174.754 80.1187C174.598 80.3628 174.483 80.6436 174.41 80.9609C174.337 81.2734 174.3 81.6055 174.3 81.957ZM183.133 79.7671V86H181.368V78.0752H183.031L183.133 79.7671ZM182.818 81.7446L182.247 81.7373C182.252 81.1758 182.33 80.6606 182.481 80.1919C182.638 79.7231 182.853 79.3203 183.126 78.9834C183.404 78.6465 183.736 78.3877 184.122 78.207C184.508 78.0215 184.938 77.9287 185.411 77.9287C185.792 77.9287 186.136 77.9824 186.444 78.0898C186.756 78.1924 187.022 78.3608 187.242 78.5952C187.467 78.8296 187.638 79.1348 187.755 79.5107C187.872 79.8818 187.931 80.3384 187.931 80.8804V86H186.158V80.873C186.158 80.4922 186.102 80.1919 185.99 79.9722C185.882 79.7476 185.724 79.5889 185.514 79.4961C185.309 79.3984 185.052 79.3496 184.745 79.3496C184.442 79.3496 184.171 79.4131 183.932 79.54C183.692 79.667 183.49 79.8403 183.324 80.0601C183.163 80.2798 183.038 80.5337 182.95 80.8218C182.862 81.1099 182.818 81.4175 182.818 81.7446Z" fill="#505050"/>
<mask id="path-6-inside-2_3378_49375" fill="white">
<path d="M205 41H367V121H205V41Z"/>
</mask>
<path d="M205 41H367V121H205V41Z" fill="white"/>
<path d="M226.276 81C226.276 79.5262 227.471 78.375 229 78.375C230.504 78.375 231.724 79.5262 231.724 81C231.724 82.4492 230.504 83.625 229 83.625C227.471 83.625 226.276 82.4492 226.276 81ZM229 79.6875C228.248 79.6875 227.638 80.2754 227.638 81C227.638 81.7246 228.248 82.3125 229 82.3125C229.752 82.3125 230.362 81.7246 230.362 81C230.362 80.2754 229.752 79.6875 229 79.6875ZM230.053 74C230.683 74 231.231 74.4154 231.378 75.0046L231.6 75.8925C231.841 76.0059 232.071 76.1347 232.289 76.2772L233.2 76.0188C233.804 75.8473 234.451 76.0964 234.766 76.6214L235.819 78.3777C236.131 78.9027 236.032 79.5672 235.578 79.9855L234.888 80.5926C234.897 80.743 234.903 80.8715 234.903 81C234.903 81.1285 234.897 81.257 234.888 81.3828L235.578 82.0145C236.032 82.4328 236.131 83.0973 235.819 83.6223L234.766 85.3777C234.451 85.9027 233.804 86.1516 233.2 85.982L232.289 85.7223C232.071 85.8645 231.841 85.993 231.6 86.1078L231.378 86.9965C231.231 87.5844 230.683 88 230.053 88H227.947C227.317 88 226.77 87.5844 226.622 86.9965L226.401 86.1078C226.16 85.993 225.93 85.8645 225.711 85.7223L224.775 85.982C224.197 86.1516 223.55 85.9027 223.235 85.3777L222.183 83.6223C221.868 83.0973 221.967 82.4328 222.423 82.0145L223.111 81.3828C223.102 81.257 223.098 81.1285 223.098 80.9754C223.098 80.8715 223.102 80.743 223.111 80.5926L222.423 79.9855C221.967 79.5672 221.868 78.9027 222.183 78.3777L223.235 76.6214C223.55 76.0964 224.197 75.8473 224.775 76.0188L225.711 76.2772C225.93 76.1347 226.16 76.0059 226.401 75.8925L226.622 75.0046C226.77 74.4151 227.317 74 227.947 74L230.053 74ZM227.567 76.8328L227.249 76.9613C226.889 77.1063 226.554 77.2949 226.25 77.5191L225.975 77.7215L224.415 77.2785L223.362 79.034L224.54 80.1141L224.496 80.4422C224.472 80.6254 224.46 80.8113 224.46 81C224.46 81.1887 224.472 81.3746 224.496 81.5578L224.54 81.8859L223.362 82.966L224.415 84.7215L225.975 84.2785L226.25 84.4809C226.554 84.7051 226.889 84.8938 227.249 85.0387L227.567 85.1672L227.947 86.6875H230.053L230.433 85.1672L230.751 85.0387C231.111 84.8938 231.446 84.7051 231.75 84.4809L232.025 84.2785L233.586 84.7215L234.639 82.966L233.461 81.8859L233.504 81.5578C233.529 81.3746 233.541 81.1887 233.541 81C233.541 80.8113 233.529 80.6254 233.504 80.4422L233.461 80.1141L234.639 79.034L233.586 77.2785L232.025 77.7215L231.75 77.5191C231.446 77.2949 231.111 77.1063 230.751 76.9613L230.433 76.8328L230.053 75.3125H227.947L227.567 76.8328Z" fill="#286EF1"/>
<path d="M246.471 75.3359V86H244.647V75.3359H246.471ZM249.818 75.3359V76.8008H241.33V75.3359H249.818ZM249.687 82.1255V81.957C249.687 81.3857 249.77 80.856 249.936 80.3677C250.102 79.8745 250.341 79.4473 250.653 79.0859C250.971 78.7197 251.356 78.4365 251.811 78.2363C252.27 78.0312 252.787 77.9287 253.363 77.9287C253.944 77.9287 254.462 78.0312 254.916 78.2363C255.375 78.4365 255.763 78.7197 256.081 79.0859C256.398 79.4473 256.64 79.8745 256.806 80.3677C256.972 80.856 257.055 81.3857 257.055 81.957V82.1255C257.055 82.6968 256.972 83.2266 256.806 83.7148C256.64 84.2031 256.398 84.6304 256.081 84.9966C255.763 85.3579 255.377 85.6411 254.923 85.8462C254.469 86.0464 253.954 86.1465 253.378 86.1465C252.797 86.1465 252.277 86.0464 251.818 85.8462C251.364 85.6411 250.978 85.3579 250.661 84.9966C250.343 84.6304 250.102 84.2031 249.936 83.7148C249.77 83.2266 249.687 82.6968 249.687 82.1255ZM251.452 81.957V82.1255C251.452 82.4819 251.488 82.8188 251.562 83.1362C251.635 83.4536 251.75 83.7319 251.906 83.9712C252.062 84.2104 252.262 84.3984 252.506 84.5352C252.75 84.6719 253.041 84.7402 253.378 84.7402C253.705 84.7402 253.988 84.6719 254.228 84.5352C254.472 84.3984 254.672 84.2104 254.828 83.9712C254.984 83.7319 255.099 83.4536 255.172 83.1362C255.25 82.8188 255.29 82.4819 255.29 82.1255V81.957C255.29 81.6055 255.25 81.2734 255.172 80.9609C255.099 80.6436 254.982 80.3628 254.821 80.1187C254.665 79.8745 254.464 79.6841 254.22 79.5474C253.981 79.4058 253.695 79.335 253.363 79.335C253.031 79.335 252.743 79.4058 252.499 79.5474C252.26 79.6841 252.062 79.8745 251.906 80.1187C251.75 80.3628 251.635 80.6436 251.562 80.9609C251.488 81.2734 251.452 81.6055 251.452 81.957ZM258.197 82.1255V81.957C258.197 81.3857 258.28 80.856 258.446 80.3677C258.612 79.8745 258.852 79.4473 259.164 79.0859C259.481 78.7197 259.867 78.4365 260.321 78.2363C260.78 78.0312 261.298 77.9287 261.874 77.9287C262.455 77.9287 262.973 78.0312 263.427 78.2363C263.886 78.4365 264.274 78.7197 264.591 79.0859C264.909 79.4473 265.15 79.8745 265.316 80.3677C265.482 80.856 265.565 81.3857 265.565 81.957V82.1255C265.565 82.6968 265.482 83.2266 265.316 83.7148C265.15 84.2031 264.909 84.6304 264.591 84.9966C264.274 85.3579 263.888 85.6411 263.434 85.8462C262.98 86.0464 262.465 86.1465 261.889 86.1465C261.308 86.1465 260.788 86.0464 260.329 85.8462C259.875 85.6411 259.489 85.3579 259.171 84.9966C258.854 84.6304 258.612 84.2031 258.446 83.7148C258.28 83.2266 258.197 82.6968 258.197 82.1255ZM259.962 81.957V82.1255C259.962 82.4819 259.999 82.8188 260.072 83.1362C260.146 83.4536 260.26 83.7319 260.417 83.9712C260.573 84.2104 260.773 84.3984 261.017 84.5352C261.261 84.6719 261.552 84.7402 261.889 84.7402C262.216 84.7402 262.499 84.6719 262.738 84.5352C262.982 84.3984 263.183 84.2104 263.339 83.9712C263.495 83.7319 263.61 83.4536 263.683 83.1362C263.761 82.8188 263.8 82.4819 263.8 82.1255V81.957C263.8 81.6055 263.761 81.2734 263.683 80.9609C263.61 80.6436 263.493 80.3628 263.332 80.1187C263.175 79.8745 262.975 79.6841 262.731 79.5474C262.492 79.4058 262.206 79.335 261.874 79.335C261.542 79.335 261.254 79.4058 261.01 79.5474C260.771 79.6841 260.573 79.8745 260.417 80.1187C260.26 80.3628 260.146 80.6436 260.072 80.9609C259.999 81.2734 259.962 81.6055 259.962 81.957ZM268.935 74.75V86H267.162V74.75H268.935ZM275.314 83.854C275.314 83.6782 275.27 83.5195 275.182 83.3779C275.094 83.2314 274.926 83.0996 274.677 82.9824C274.433 82.8652 274.071 82.7578 273.593 82.6602C273.173 82.5674 272.787 82.4575 272.436 82.3306C272.089 82.1987 271.791 82.04 271.542 81.8545C271.293 81.6689 271.1 81.4492 270.963 81.1953C270.827 80.9414 270.758 80.6484 270.758 80.3164C270.758 79.9941 270.829 79.689 270.971 79.4009C271.112 79.1128 271.315 78.8589 271.579 78.6392C271.842 78.4194 272.162 78.2461 272.538 78.1191C272.919 77.9922 273.344 77.9287 273.812 77.9287C274.477 77.9287 275.045 78.041 275.519 78.2656C275.998 78.4854 276.364 78.7856 276.618 79.1665C276.872 79.5425 276.999 79.9673 276.999 80.4409H275.233C275.233 80.231 275.18 80.0356 275.072 79.855C274.97 79.6694 274.813 79.5205 274.604 79.4082C274.394 79.291 274.13 79.2324 273.812 79.2324C273.51 79.2324 273.258 79.2812 273.058 79.3789C272.863 79.4717 272.716 79.5938 272.619 79.7451C272.526 79.8965 272.479 80.0625 272.479 80.2432C272.479 80.375 272.504 80.4946 272.553 80.6021C272.606 80.7046 272.694 80.7998 272.816 80.8877C272.938 80.9707 273.104 81.0488 273.314 81.1221C273.529 81.1953 273.798 81.2661 274.12 81.3345C274.726 81.4614 275.246 81.625 275.68 81.8252C276.12 82.0205 276.457 82.2744 276.691 82.5869C276.925 82.8945 277.042 83.2852 277.042 83.7588C277.042 84.1104 276.967 84.4326 276.815 84.7256C276.669 85.0137 276.454 85.2651 276.171 85.48C275.888 85.6899 275.548 85.8535 275.153 85.9707C274.762 86.0879 274.323 86.1465 273.834 86.1465C273.117 86.1465 272.509 86.0195 272.011 85.7656C271.513 85.5068 271.134 85.1772 270.875 84.7769C270.622 84.3716 270.495 83.9517 270.495 83.5171H272.201C272.221 83.8442 272.311 84.1055 272.472 84.3008C272.638 84.4912 272.843 84.6304 273.087 84.7183C273.336 84.8013 273.593 84.8428 273.856 84.8428C274.174 84.8428 274.44 84.8013 274.655 84.7183C274.87 84.6304 275.033 84.5132 275.146 84.3667C275.258 84.2153 275.314 84.0444 275.314 83.854ZM284.147 80.1992L285.985 78.9614C286.293 78.7563 286.513 78.5562 286.645 78.3608C286.776 78.1606 286.842 77.9116 286.842 77.6138C286.842 77.3599 286.745 77.1255 286.549 76.9106C286.354 76.6958 286.078 76.5884 285.722 76.5884C285.473 76.5884 285.263 76.647 285.092 76.7642C284.921 76.8765 284.792 77.0278 284.704 77.2183C284.621 77.4038 284.579 77.6113 284.579 77.8408C284.579 78.0605 284.635 78.2876 284.748 78.522C284.86 78.7515 285.014 78.9932 285.209 79.2471C285.404 79.4961 285.624 79.7646 285.868 80.0527L290.907 86H288.864L284.748 81.1587C284.391 80.729 284.076 80.3359 283.803 79.9795C283.529 79.6182 283.317 79.269 283.166 78.9321C283.014 78.5903 282.938 78.2388 282.938 77.8774C282.938 77.3208 283.053 76.8423 283.283 76.4419C283.512 76.0415 283.837 75.7339 284.257 75.519C284.677 75.2993 285.167 75.1895 285.729 75.1895C286.271 75.1895 286.737 75.2993 287.128 75.519C287.523 75.7339 287.826 76.0195 288.036 76.376C288.251 76.7324 288.358 77.123 288.358 77.5479C288.358 77.8848 288.297 78.1924 288.175 78.4707C288.053 78.749 287.885 79.0029 287.67 79.2324C287.455 79.4619 287.206 79.6792 286.923 79.8843L284.689 81.5103C284.43 81.7202 284.237 81.9229 284.11 82.1182C283.988 82.3086 283.908 82.4844 283.869 82.6455C283.83 82.8066 283.81 82.9482 283.81 83.0703C283.81 83.3828 283.876 83.666 284.008 83.9199C284.145 84.1738 284.342 84.3765 284.601 84.5278C284.865 84.6743 285.185 84.7476 285.561 84.7476C285.966 84.7476 286.359 84.6572 286.74 84.4766C287.121 84.291 287.462 84.0298 287.765 83.6929C288.068 83.356 288.307 82.9531 288.483 82.4844C288.664 82.0156 288.754 81.4956 288.754 80.9243H290.277C290.277 81.4419 290.226 81.9326 290.124 82.3965C290.026 82.8604 289.867 83.29 289.647 83.6855C289.433 84.0811 289.149 84.4351 288.798 84.7476C288.764 84.7817 288.725 84.8257 288.681 84.8794C288.642 84.9282 288.603 84.9697 288.563 85.0039C288.144 85.3896 287.672 85.6777 287.15 85.8682C286.632 86.0537 286.081 86.1465 285.495 86.1465C284.787 86.1465 284.174 86.0171 283.656 85.7583C283.139 85.4995 282.738 85.1431 282.455 84.689C282.177 84.2349 282.038 83.7148 282.038 83.1289C282.038 82.6943 282.128 82.3135 282.309 81.9863C282.489 81.6543 282.736 81.3467 283.048 81.0635C283.366 80.7754 283.732 80.4873 284.147 80.1992ZM301.469 83.2534C301.469 83.0337 301.435 82.8384 301.366 82.6675C301.303 82.4966 301.188 82.3403 301.022 82.1987C300.856 82.0571 300.622 81.9204 300.319 81.7886C300.021 81.6519 299.64 81.5127 299.176 81.3711C298.668 81.2148 298.2 81.0415 297.77 80.8511C297.345 80.6558 296.974 80.4312 296.657 80.1772C296.339 79.9185 296.093 79.623 295.917 79.291C295.741 78.9541 295.653 78.5659 295.653 78.1265C295.653 77.6919 295.744 77.2964 295.924 76.9399C296.11 76.5835 296.371 76.2759 296.708 76.0171C297.05 75.7534 297.453 75.5508 297.917 75.4092C298.38 75.2627 298.893 75.1895 299.455 75.1895C300.246 75.1895 300.927 75.3359 301.498 75.6289C302.074 75.9219 302.516 76.3149 302.824 76.8081C303.136 77.3013 303.292 77.8457 303.292 78.4414H301.469C301.469 78.0898 301.393 77.7798 301.242 77.5112C301.095 77.2378 300.871 77.0229 300.568 76.8667C300.27 76.7104 299.892 76.6323 299.433 76.6323C298.998 76.6323 298.637 76.6982 298.349 76.8301C298.061 76.9619 297.846 77.1401 297.704 77.3647C297.562 77.5894 297.492 77.8433 297.492 78.1265C297.492 78.3267 297.538 78.5098 297.631 78.6758C297.724 78.8369 297.865 78.9883 298.056 79.1299C298.246 79.2666 298.485 79.396 298.773 79.5181C299.062 79.6401 299.401 79.7573 299.792 79.8696C300.382 80.0454 300.897 80.2407 301.337 80.4556C301.776 80.6655 302.143 80.9048 302.436 81.1733C302.729 81.4419 302.948 81.7471 303.095 82.0889C303.241 82.4258 303.314 82.8091 303.314 83.2388C303.314 83.688 303.224 84.0933 303.043 84.4546C302.863 84.811 302.604 85.1162 302.267 85.3701C301.935 85.6191 301.535 85.812 301.066 85.9487C300.602 86.0806 300.084 86.1465 299.513 86.1465C299 86.1465 298.495 86.0781 297.997 85.9414C297.504 85.8047 297.055 85.5972 296.649 85.3188C296.244 85.0356 295.922 84.6841 295.683 84.2642C295.443 83.8394 295.324 83.3438 295.324 82.7773H297.162C297.162 83.124 297.221 83.4194 297.338 83.6636C297.46 83.9077 297.628 84.1079 297.843 84.2642C298.058 84.4155 298.307 84.5278 298.59 84.6011C298.878 84.6743 299.186 84.7109 299.513 84.7109C299.943 84.7109 300.302 84.6499 300.59 84.5278C300.883 84.4058 301.103 84.2349 301.249 84.0151C301.396 83.7954 301.469 83.5415 301.469 83.2534ZM308.258 86.1465C307.672 86.1465 307.143 86.0513 306.669 85.8608C306.2 85.6655 305.8 85.3945 305.468 85.0479C305.141 84.7012 304.889 84.2935 304.713 83.8247C304.538 83.356 304.45 82.8506 304.45 82.3086V82.0156C304.45 81.3955 304.54 80.834 304.721 80.3311C304.901 79.8281 305.153 79.3984 305.475 79.042C305.797 78.6807 306.178 78.4048 306.618 78.2144C307.057 78.0239 307.533 77.9287 308.046 77.9287C308.612 77.9287 309.108 78.0239 309.533 78.2144C309.958 78.4048 310.309 78.6733 310.587 79.02C310.871 79.3618 311.081 79.7695 311.217 80.2432C311.359 80.7168 311.43 81.2393 311.43 81.8105V82.5649H305.307V81.2979H309.687V81.1587C309.677 80.8413 309.613 80.5435 309.496 80.2651C309.384 79.9868 309.21 79.7622 308.976 79.5913C308.742 79.4204 308.429 79.335 308.039 79.335C307.746 79.335 307.484 79.3984 307.255 79.5254C307.03 79.6475 306.842 79.8257 306.691 80.0601C306.54 80.2944 306.422 80.5776 306.339 80.9097C306.261 81.2368 306.222 81.6055 306.222 82.0156V82.3086C306.222 82.6553 306.269 82.9775 306.361 83.2754C306.459 83.5684 306.601 83.8247 306.786 84.0444C306.972 84.2642 307.196 84.4375 307.46 84.5645C307.724 84.6865 308.024 84.7476 308.361 84.7476C308.786 84.7476 309.164 84.6621 309.496 84.4912C309.828 84.3203 310.116 84.0786 310.36 83.7661L311.291 84.667C311.12 84.916 310.897 85.1553 310.624 85.3848C310.351 85.6094 310.016 85.7925 309.621 85.9341C309.23 86.0757 308.776 86.1465 308.258 86.1465ZM316.439 78.0752V79.3643H311.972V78.0752H316.439ZM313.261 76.1343H315.026V83.8101C315.026 84.0542 315.06 84.2422 315.128 84.374C315.202 84.501 315.302 84.5864 315.429 84.6304C315.556 84.6743 315.705 84.6963 315.875 84.6963C315.998 84.6963 316.115 84.689 316.227 84.6743C316.339 84.6597 316.43 84.645 316.498 84.6304L316.505 85.978C316.359 86.022 316.188 86.061 315.993 86.0952C315.802 86.1294 315.583 86.1465 315.333 86.1465C314.928 86.1465 314.569 86.0757 314.257 85.9341C313.944 85.7876 313.7 85.5508 313.524 85.2236C313.349 84.8965 313.261 84.4619 313.261 83.9199V76.1343ZM321.435 78.0752V79.3643H316.967V78.0752H321.435ZM318.256 76.1343H320.021V83.8101C320.021 84.0542 320.055 84.2422 320.124 84.374C320.197 84.501 320.297 84.5864 320.424 84.6304C320.551 84.6743 320.7 84.6963 320.871 84.6963C320.993 84.6963 321.11 84.689 321.222 84.6743C321.334 84.6597 321.425 84.645 321.493 84.6304L321.5 85.978C321.354 86.022 321.183 86.061 320.988 86.0952C320.797 86.1294 320.578 86.1465 320.329 86.1465C319.923 86.1465 319.564 86.0757 319.252 85.9341C318.939 85.7876 318.695 85.5508 318.52 85.2236C318.344 84.8965 318.256 84.4619 318.256 83.9199V76.1343ZM324.687 78.0752V86H322.914V78.0752H324.687ZM322.797 75.9951C322.797 75.7266 322.885 75.5044 323.061 75.3286C323.241 75.1479 323.49 75.0576 323.808 75.0576C324.12 75.0576 324.367 75.1479 324.547 75.3286C324.728 75.5044 324.818 75.7266 324.818 75.9951C324.818 76.2588 324.728 76.4785 324.547 76.6543C324.367 76.8301 324.12 76.918 323.808 76.918C323.49 76.918 323.241 76.8301 323.061 76.6543C322.885 76.4785 322.797 76.2588 322.797 75.9951ZM328.371 79.7671V86H326.605V78.0752H328.268L328.371 79.7671ZM328.056 81.7446L327.484 81.7373C327.489 81.1758 327.567 80.6606 327.719 80.1919C327.875 79.7231 328.09 79.3203 328.363 78.9834C328.642 78.6465 328.974 78.3877 329.359 78.207C329.745 78.0215 330.175 77.9287 330.648 77.9287C331.029 77.9287 331.374 77.9824 331.681 78.0898C331.994 78.1924 332.26 78.3608 332.479 78.5952C332.704 78.8296 332.875 79.1348 332.992 79.5107C333.109 79.8818 333.168 80.3384 333.168 80.8804V86H331.396V80.873C331.396 80.4922 331.339 80.1919 331.227 79.9722C331.12 79.7476 330.961 79.5889 330.751 79.4961C330.546 79.3984 330.29 79.3496 329.982 79.3496C329.679 79.3496 329.408 79.4131 329.169 79.54C328.93 79.667 328.727 79.8403 328.561 80.0601C328.4 80.2798 328.275 80.5337 328.188 80.8218C328.1 81.1099 328.056 81.4175 328.056 81.7446ZM340.045 78.0752H341.649V85.7803C341.649 86.4932 341.498 87.0986 341.195 87.5967C340.893 88.0947 340.47 88.4731 339.928 88.7319C339.386 88.9956 338.759 89.1274 338.046 89.1274C337.743 89.1274 337.406 89.0835 337.035 88.9956C336.669 88.9077 336.312 88.7661 335.966 88.5708C335.624 88.3804 335.338 88.1289 335.109 87.8164L335.937 86.7764C336.22 87.1133 336.532 87.3599 336.874 87.5161C337.216 87.6724 337.575 87.7505 337.951 87.7505C338.356 87.7505 338.7 87.6748 338.983 87.5234C339.271 87.377 339.494 87.1597 339.65 86.8716C339.806 86.5835 339.884 86.2319 339.884 85.8169V79.8696L340.045 78.0752ZM334.662 82.1255V81.9717C334.662 81.3711 334.735 80.8242 334.882 80.3311C335.028 79.833 335.238 79.4058 335.512 79.0493C335.785 78.688 336.117 78.4121 336.508 78.2217C336.898 78.0264 337.34 77.9287 337.833 77.9287C338.346 77.9287 338.783 78.0215 339.145 78.207C339.511 78.3926 339.816 78.6587 340.06 79.0054C340.304 79.3472 340.495 79.7573 340.631 80.2358C340.773 80.7095 340.878 81.2368 340.946 81.8179V82.3086C340.883 82.875 340.775 83.3926 340.624 83.8613C340.473 84.3301 340.272 84.7354 340.023 85.0771C339.774 85.4189 339.467 85.6826 339.101 85.8682C338.739 86.0537 338.312 86.1465 337.819 86.1465C337.335 86.1465 336.898 86.0464 336.508 85.8462C336.122 85.646 335.79 85.3652 335.512 85.0039C335.238 84.6426 335.028 84.2178 334.882 83.7295C334.735 83.2363 334.662 82.7017 334.662 82.1255ZM336.427 81.9717V82.1255C336.427 82.4868 336.461 82.8237 336.53 83.1362C336.603 83.4487 336.713 83.7246 336.859 83.9639C337.011 84.1982 337.201 84.3838 337.431 84.5205C337.665 84.6523 337.941 84.7183 338.258 84.7183C338.673 84.7183 339.013 84.6304 339.276 84.4546C339.545 84.2788 339.75 84.042 339.892 83.7441C340.038 83.4414 340.141 83.1045 340.199 82.7334V81.4077C340.17 81.1196 340.109 80.8511 340.016 80.6021C339.928 80.353 339.809 80.1357 339.657 79.9502C339.506 79.7598 339.315 79.6133 339.086 79.5107C338.856 79.4033 338.585 79.3496 338.273 79.3496C337.956 79.3496 337.68 79.418 337.445 79.5547C337.211 79.6914 337.018 79.8794 336.867 80.1187C336.72 80.3579 336.61 80.6362 336.537 80.9536C336.464 81.271 336.427 81.6104 336.427 81.9717ZM347.926 83.854C347.926 83.6782 347.882 83.5195 347.794 83.3779C347.707 83.2314 347.538 83.0996 347.289 82.9824C347.045 82.8652 346.684 82.7578 346.205 82.6602C345.785 82.5674 345.399 82.4575 345.048 82.3306C344.701 82.1987 344.403 82.04 344.154 81.8545C343.905 81.6689 343.712 81.4492 343.576 81.1953C343.439 80.9414 343.371 80.6484 343.371 80.3164C343.371 79.9941 343.441 79.689 343.583 79.4009C343.725 79.1128 343.927 78.8589 344.191 78.6392C344.455 78.4194 344.774 78.2461 345.15 78.1191C345.531 77.9922 345.956 77.9287 346.425 77.9287C347.089 77.9287 347.658 78.041 348.131 78.2656C348.61 78.4854 348.976 78.7856 349.23 79.1665C349.484 79.5425 349.611 79.9673 349.611 80.4409H347.846C347.846 80.231 347.792 80.0356 347.685 79.855C347.582 79.6694 347.426 79.5205 347.216 79.4082C347.006 79.291 346.742 79.2324 346.425 79.2324C346.122 79.2324 345.871 79.2812 345.67 79.3789C345.475 79.4717 345.329 79.5938 345.231 79.7451C345.138 79.8965 345.092 80.0625 345.092 80.2432C345.092 80.375 345.116 80.4946 345.165 80.6021C345.219 80.7046 345.307 80.7998 345.429 80.8877C345.551 80.9707 345.717 81.0488 345.927 81.1221C346.142 81.1953 346.41 81.2661 346.732 81.3345C347.338 81.4614 347.858 81.625 348.292 81.8252C348.732 82.0205 349.069 82.2744 349.303 82.5869C349.538 82.8945 349.655 83.2852 349.655 83.7588C349.655 84.1104 349.579 84.4326 349.428 84.7256C349.281 85.0137 349.066 85.2651 348.783 85.48C348.5 85.6899 348.161 85.8535 347.765 85.9707C347.375 86.0879 346.935 86.1465 346.447 86.1465C345.729 86.1465 345.121 86.0195 344.623 85.7656C344.125 85.5068 343.747 85.1772 343.488 84.7769C343.234 84.3716 343.107 83.9517 343.107 83.5171H344.813C344.833 83.8442 344.923 84.1055 345.084 84.3008C345.25 84.4912 345.456 84.6304 345.7 84.7183C345.949 84.8013 346.205 84.8428 346.469 84.8428C346.786 84.8428 347.052 84.8013 347.267 84.7183C347.482 84.6304 347.646 84.5132 347.758 84.3667C347.87 84.2153 347.926 84.0444 347.926 83.854Z" fill="#286EF1"/>
<path d="M367 117H205V125H367V117Z" fill="#286EF1" mask="url(#path-6-inside-2_3378_49375)"/>
<rect width="126" height="80" transform="translate(367 41)" fill="white" fill-opacity="0.01"/>
<path d="M391 74C387.15 74 384 77.15 384 81C384 84.85 387.15 88 391 88C394.85 88 398 84.85 398 81C398 77.15 394.85 74 391 74ZM391 86.6C389.88 86.6 388.9 85.62 388.9 84.5C388.9 83.38 389.88 82.4 391 82.4C392.12 82.4 393.1 83.38 393.1 84.5C393.1 85.62 392.12 86.6 391 86.6ZM394.78 83.52C394.71 83.8 394.64 84.08 394.5 84.36C394.43 83.45 394.08 82.68 393.45 82.05C392.82 81.35 391.91 81 391 81C390.3 81 389.6 81.21 389.04 81.56C388.48 81.91 387.99 82.47 387.78 83.1C387.64 83.52 387.5 83.94 387.5 84.36C387.29 83.87 387.15 83.31 387.15 82.75C387.15 81.7 387.57 80.72 388.27 80.02C388.97 79.32 389.95 78.9 391 78.9C391.77 78.9 392.54 79.11 393.17 79.53C393.8 79.95 394.29 80.58 394.57 81.28C394.85 81.98 394.92 82.75 394.78 83.52ZM396.18 82.96C396.18 82.89 396.18 82.82 396.18 82.75C396.18 81.35 395.62 80.02 394.64 79.04C393.66 78.06 392.4 77.5 391 77.5C389.95 77.5 388.97 77.78 388.06 78.41C387.22 78.97 386.52 79.81 386.1 80.79C385.82 81.49 385.68 82.26 385.68 83.03C385.54 82.33 385.4 81.7 385.4 81C385.4 79.53 385.96 78.06 387.01 77.01C388.06 75.96 389.53 75.4 391 75.4C392.12 75.4 393.17 75.75 394.08 76.31C394.99 76.94 395.69 77.78 396.11 78.83C396.6 79.88 396.74 81 396.46 82.12C396.39 82.4 396.32 82.68 396.18 82.96Z" fill="#1A1A1A"/>
<path d="M409.694 83.2534C409.694 83.0337 409.66 82.8384 409.592 82.6675C409.528 82.4966 409.414 82.3403 409.248 82.1987C409.082 82.0571 408.847 81.9204 408.544 81.7886C408.247 81.6519 407.866 81.5127 407.402 81.3711C406.894 81.2148 406.425 81.0415 405.996 80.8511C405.571 80.6558 405.2 80.4312 404.882 80.1772C404.565 79.9185 404.318 79.623 404.143 79.291C403.967 78.9541 403.879 78.5659 403.879 78.1265C403.879 77.6919 403.969 77.2964 404.15 76.9399C404.335 76.5835 404.597 76.2759 404.934 76.0171C405.275 75.7534 405.678 75.5508 406.142 75.4092C406.606 75.2627 407.119 75.1895 407.68 75.1895C408.471 75.1895 409.152 75.3359 409.724 75.6289C410.3 75.9219 410.742 76.3149 411.049 76.8081C411.362 77.3013 411.518 77.8457 411.518 78.4414H409.694C409.694 78.0898 409.619 77.7798 409.467 77.5112C409.321 77.2378 409.096 77.0229 408.793 76.8667C408.496 76.7104 408.117 76.6323 407.658 76.6323C407.224 76.6323 406.862 76.6982 406.574 76.8301C406.286 76.9619 406.071 77.1401 405.93 77.3647C405.788 77.5894 405.717 77.8433 405.717 78.1265C405.717 78.3267 405.764 78.5098 405.856 78.6758C405.949 78.8369 406.091 78.9883 406.281 79.1299C406.472 79.2666 406.711 79.396 406.999 79.5181C407.287 79.6401 407.626 79.7573 408.017 79.8696C408.608 80.0454 409.123 80.2407 409.562 80.4556C410.002 80.6655 410.368 80.9048 410.661 81.1733C410.954 81.4419 411.174 81.7471 411.32 82.0889C411.467 82.4258 411.54 82.8091 411.54 83.2388C411.54 83.688 411.45 84.0933 411.269 84.4546C411.088 84.811 410.83 85.1162 410.493 85.3701C410.161 85.6191 409.76 85.812 409.292 85.9487C408.828 86.0806 408.31 86.1465 407.739 86.1465C407.226 86.1465 406.721 86.0781 406.223 85.9414C405.729 85.8047 405.28 85.5972 404.875 85.3188C404.47 85.0356 404.147 84.6841 403.908 84.2642C403.669 83.8394 403.549 83.3438 403.549 82.7773H405.388C405.388 83.124 405.446 83.4194 405.563 83.6636C405.686 83.9077 405.854 84.1079 406.069 84.2642C406.284 84.4155 406.533 84.5278 406.816 84.6011C407.104 84.6743 407.412 84.7109 407.739 84.7109C408.168 84.7109 408.527 84.6499 408.815 84.5278C409.108 84.4058 409.328 84.2349 409.475 84.0151C409.621 83.7954 409.694 83.5415 409.694 83.2534ZM414.755 79.6865V86H412.99V78.0752H414.653L414.755 79.6865ZM414.47 81.7446L413.869 81.7373C413.869 81.1904 413.938 80.6851 414.074 80.2212C414.211 79.7573 414.411 79.3545 414.675 79.0127C414.938 78.666 415.266 78.3999 415.656 78.2144C416.052 78.0239 416.508 77.9287 417.026 77.9287C417.387 77.9287 417.717 77.9824 418.015 78.0898C418.317 78.1924 418.579 78.356 418.798 78.5806C419.023 78.8052 419.194 79.0933 419.311 79.4448C419.433 79.7964 419.494 80.2212 419.494 80.7192V86H417.729V80.873C417.729 80.4873 417.67 80.1846 417.553 79.9648C417.441 79.7451 417.277 79.5889 417.062 79.4961C416.853 79.3984 416.601 79.3496 416.308 79.3496C415.976 79.3496 415.693 79.4131 415.458 79.54C415.229 79.667 415.041 79.8403 414.895 80.0601C414.748 80.2798 414.641 80.5337 414.572 80.8218C414.504 81.1099 414.47 81.4175 414.47 81.7446ZM419.384 81.2759L418.557 81.459C418.557 80.9805 418.623 80.5288 418.754 80.104C418.891 79.6743 419.089 79.2983 419.348 78.9761C419.611 78.6489 419.936 78.3926 420.322 78.207C420.708 78.0215 421.149 77.9287 421.647 77.9287C422.053 77.9287 422.414 77.9849 422.731 78.0972C423.054 78.2046 423.327 78.3755 423.552 78.6099C423.776 78.8442 423.947 79.1494 424.064 79.5254C424.182 79.8965 424.24 80.3457 424.24 80.873V86H422.468V80.8657C422.468 80.4653 422.409 80.1553 422.292 79.9355C422.18 79.7158 422.019 79.5645 421.809 79.4814C421.599 79.3936 421.347 79.3496 421.054 79.3496C420.781 79.3496 420.539 79.4009 420.329 79.5034C420.124 79.6011 419.951 79.7402 419.809 79.9209C419.667 80.0967 419.56 80.2993 419.487 80.5288C419.418 80.7583 419.384 81.0073 419.384 81.2759ZM430.825 84.1323V78.0752H432.597V86H430.927L430.825 84.1323ZM431.074 82.4844L431.667 82.4697C431.667 83.002 431.608 83.4927 431.491 83.9419C431.374 84.3862 431.193 84.7744 430.949 85.1064C430.705 85.4336 430.393 85.6899 430.012 85.8755C429.631 86.0562 429.174 86.1465 428.642 86.1465C428.256 86.1465 427.902 86.0903 427.58 85.978C427.258 85.8657 426.979 85.6924 426.745 85.458C426.516 85.2236 426.337 84.9185 426.21 84.5425C426.083 84.1665 426.02 83.7173 426.02 83.1948V78.0752H427.785V83.2095C427.785 83.4976 427.819 83.7393 427.888 83.9346C427.956 84.125 428.049 84.2788 428.166 84.396C428.283 84.5132 428.42 84.5962 428.576 84.645C428.732 84.6938 428.898 84.7183 429.074 84.7183C429.577 84.7183 429.973 84.6206 430.261 84.4253C430.554 84.2251 430.761 83.9565 430.883 83.6196C431.01 83.2827 431.074 82.9043 431.074 82.4844ZM438.852 83.854C438.852 83.6782 438.808 83.5195 438.72 83.3779C438.632 83.2314 438.464 83.0996 438.215 82.9824C437.971 82.8652 437.609 82.7578 437.131 82.6602C436.711 82.5674 436.325 82.4575 435.974 82.3306C435.627 82.1987 435.329 82.04 435.08 81.8545C434.831 81.6689 434.638 81.4492 434.501 81.1953C434.365 80.9414 434.296 80.6484 434.296 80.3164C434.296 79.9941 434.367 79.689 434.509 79.4009C434.65 79.1128 434.853 78.8589 435.117 78.6392C435.38 78.4194 435.7 78.2461 436.076 78.1191C436.457 77.9922 436.882 77.9287 437.351 77.9287C438.015 77.9287 438.583 78.041 439.057 78.2656C439.536 78.4854 439.902 78.7856 440.156 79.1665C440.41 79.5425 440.537 79.9673 440.537 80.4409H438.771C438.771 80.231 438.718 80.0356 438.61 79.855C438.508 79.6694 438.352 79.5205 438.142 79.4082C437.932 79.291 437.668 79.2324 437.351 79.2324C437.048 79.2324 436.796 79.2812 436.596 79.3789C436.401 79.4717 436.254 79.5938 436.157 79.7451C436.064 79.8965 436.018 80.0625 436.018 80.2432C436.018 80.375 436.042 80.4946 436.091 80.6021C436.145 80.7046 436.232 80.7998 436.354 80.8877C436.477 80.9707 436.643 81.0488 436.853 81.1221C437.067 81.1953 437.336 81.2661 437.658 81.3345C438.264 81.4614 438.784 81.625 439.218 81.8252C439.658 82.0205 439.995 82.2744 440.229 82.5869C440.463 82.8945 440.581 83.2852 440.581 83.7588C440.581 84.1104 440.505 84.4326 440.354 84.7256C440.207 85.0137 439.992 85.2651 439.709 85.48C439.426 85.6899 439.086 85.8535 438.691 85.9707C438.3 86.0879 437.861 86.1465 437.373 86.1465C436.655 86.1465 436.047 86.0195 435.549 85.7656C435.051 85.5068 434.672 85.1772 434.414 84.7769C434.16 84.3716 434.033 83.9517 434.033 83.5171H435.739C435.759 83.8442 435.849 84.1055 436.01 84.3008C436.176 84.4912 436.381 84.6304 436.625 84.7183C436.875 84.8013 437.131 84.8428 437.395 84.8428C437.712 84.8428 437.978 84.8013 438.193 84.7183C438.408 84.6304 438.571 84.5132 438.684 84.3667C438.796 84.2153 438.852 84.0444 438.852 83.854ZM443.869 74.75V86H442.111V74.75H443.869ZM443.562 81.7446L442.99 81.7373C442.995 81.1904 443.071 80.6851 443.217 80.2212C443.369 79.7573 443.579 79.3545 443.847 79.0127C444.121 78.666 444.448 78.3999 444.829 78.2144C445.209 78.0239 445.632 77.9287 446.096 77.9287C446.486 77.9287 446.838 77.9824 447.15 78.0898C447.468 78.1973 447.741 78.3706 447.971 78.6099C448.2 78.8442 448.374 79.1519 448.491 79.5327C448.613 79.9087 448.674 80.3677 448.674 80.9097V86H446.901V80.895C446.901 80.5142 446.845 80.2114 446.733 79.9868C446.625 79.7622 446.467 79.6011 446.257 79.5034C446.047 79.4009 445.791 79.3496 445.488 79.3496C445.17 79.3496 444.89 79.4131 444.646 79.54C444.406 79.667 444.206 79.8403 444.045 80.0601C443.884 80.2798 443.762 80.5337 443.679 80.8218C443.601 81.1099 443.562 81.4175 443.562 81.7446ZM458.422 82.0229H455.646V80.5654H458.422C458.906 80.5654 459.296 80.4873 459.594 80.3311C459.892 80.1748 460.109 79.96 460.246 79.6865C460.388 79.4082 460.458 79.0908 460.458 78.7344C460.458 78.3975 460.388 78.0825 460.246 77.7896C460.109 77.4917 459.892 77.2524 459.594 77.0718C459.296 76.8911 458.906 76.8008 458.422 76.8008H456.21V86H454.372V75.3359H458.422C459.248 75.3359 459.948 75.4824 460.524 75.7754C461.105 76.0635 461.547 76.4639 461.85 76.9766C462.153 77.4844 462.304 78.0654 462.304 78.7197C462.304 79.4082 462.153 79.999 461.85 80.4922C461.547 80.9854 461.105 81.3638 460.524 81.6274C459.948 81.8911 459.248 82.0229 458.422 82.0229ZM465.549 79.584V86H463.784V78.0752H465.468L465.549 79.584ZM467.973 78.0239L467.958 79.6646C467.851 79.645 467.734 79.6304 467.607 79.6206C467.485 79.6108 467.363 79.606 467.241 79.606C466.938 79.606 466.672 79.6499 466.442 79.7378C466.213 79.8208 466.02 79.9429 465.864 80.104C465.712 80.2603 465.595 80.4507 465.512 80.6753C465.429 80.8999 465.38 81.1514 465.366 81.4297L464.963 81.459C464.963 80.9609 465.012 80.4995 465.109 80.0747C465.207 79.6499 465.354 79.2764 465.549 78.9541C465.749 78.6318 465.998 78.3804 466.296 78.1997C466.599 78.019 466.948 77.9287 467.343 77.9287C467.451 77.9287 467.565 77.9385 467.688 77.958C467.814 77.9775 467.91 77.9995 467.973 78.0239ZM468.552 82.1255V81.957C468.552 81.3857 468.635 80.856 468.801 80.3677C468.967 79.8745 469.206 79.4473 469.519 79.0859C469.836 78.7197 470.222 78.4365 470.676 78.2363C471.135 78.0312 471.652 77.9287 472.229 77.9287C472.81 77.9287 473.327 78.0312 473.781 78.2363C474.24 78.4365 474.628 78.7197 474.946 79.0859C475.263 79.4473 475.505 79.8745 475.671 80.3677C475.837 80.856 475.92 81.3857 475.92 81.957V82.1255C475.92 82.6968 475.837 83.2266 475.671 83.7148C475.505 84.2031 475.263 84.6304 474.946 84.9966C474.628 85.3579 474.243 85.6411 473.789 85.8462C473.334 86.0464 472.819 86.1465 472.243 86.1465C471.662 86.1465 471.142 86.0464 470.683 85.8462C470.229 85.6411 469.843 85.3579 469.526 84.9966C469.208 84.6304 468.967 84.2031 468.801 83.7148C468.635 83.2266 468.552 82.6968 468.552 82.1255ZM470.317 81.957V82.1255C470.317 82.4819 470.354 82.8188 470.427 83.1362C470.5 83.4536 470.615 83.7319 470.771 83.9712C470.927 84.2104 471.127 84.3984 471.372 84.5352C471.616 84.6719 471.906 84.7402 472.243 84.7402C472.57 84.7402 472.854 84.6719 473.093 84.5352C473.337 84.3984 473.537 84.2104 473.693 83.9712C473.85 83.7319 473.964 83.4536 474.038 83.1362C474.116 82.8188 474.155 82.4819 474.155 82.1255V81.957C474.155 81.6055 474.116 81.2734 474.038 80.9609C473.964 80.6436 473.847 80.3628 473.686 80.1187C473.53 79.8745 473.33 79.6841 473.085 79.5474C472.846 79.4058 472.561 79.335 472.229 79.335C471.896 79.335 471.608 79.4058 471.364 79.5474C471.125 79.6841 470.927 79.8745 470.771 80.1187C470.615 80.3628 470.5 80.6436 470.427 80.9609C470.354 81.2734 470.317 81.6055 470.317 81.957Z" fill="#505050"/>
<rect width="119" height="80" transform="translate(493 41)" fill="white" fill-opacity="0.01"/>
<path d="M517 74C520.866 74 524 77.1336 524 81C524 84.8664 520.866 88 517 88C513.134 88 510 84.8664 510 81C510 77.1336 513.134 74 517 74ZM517 86.6875C517.202 86.6875 517.714 86.4906 518.302 85.3641C518.542 84.8801 518.725 84.2922 518.903 83.625H515.097C515.25 84.2922 515.458 84.8801 515.698 85.3641C516.262 86.4906 516.798 86.6875 517 86.6875ZM514.881 82.3125H519.119C519.163 81.8941 519.188 81.4539 519.188 81C519.188 80.5461 519.163 80.1059 519.119 79.6875H514.881C514.837 80.1059 514.812 80.5461 514.812 81C514.812 81.4539 514.837 81.8941 514.881 82.3125ZM518.903 78.375C518.725 77.7078 518.542 77.1199 518.302 76.6373C517.714 75.5099 517.202 75.3125 517 75.3125C516.798 75.3125 516.262 75.5099 515.698 76.6373C515.458 77.1199 515.25 77.7078 515.097 78.375H518.903ZM520.44 79.6875C520.478 80.1113 520.5 80.5516 520.5 81C520.5 81.4484 520.478 81.8887 520.44 82.3125H522.534C522.636 81.8914 522.688 81.4512 522.688 81C522.688 80.5488 522.636 80.1086 522.534 79.6875H520.44ZM519.354 75.8214C519.74 76.5227 520.046 77.3934 520.246 78.375H522.048C521.463 77.2512 520.511 76.3483 519.354 75.8214ZM514.646 75.8214C513.489 76.3483 512.539 77.2512 511.953 78.375H513.754C513.954 77.3934 514.26 76.5227 514.646 75.8214ZM511.312 81C511.312 81.4512 511.365 81.8914 511.465 82.3125H513.56C513.522 81.8887 513.5 81.4484 513.5 81C513.5 80.5516 513.522 80.1113 513.56 79.6875H511.465C511.365 80.1086 511.312 80.5488 511.312 81ZM522.048 83.625H520.246C520.046 84.6066 519.74 85.4762 519.354 86.1789C520.511 85.6512 521.463 84.7488 522.048 83.625ZM513.754 83.625H511.953C512.539 84.7488 513.489 85.6512 514.646 86.1789C514.26 85.4762 513.954 84.6066 513.754 83.625Z" fill="#505050"/>
<path d="M536.383 82.5283H538.214C538.155 83.2266 537.96 83.8491 537.628 84.396C537.296 84.938 536.83 85.3652 536.229 85.6777C535.628 85.9902 534.898 86.1465 534.039 86.1465C533.38 86.1465 532.787 86.0293 532.259 85.7949C531.732 85.5557 531.28 85.2188 530.904 84.7842C530.528 84.3447 530.24 83.8149 530.04 83.1948C529.845 82.5747 529.747 81.8813 529.747 81.1147V80.2285C529.747 79.4619 529.847 78.7686 530.047 78.1484C530.252 77.5283 530.545 76.9985 530.926 76.5591C531.307 76.1147 531.764 75.7754 532.296 75.541C532.833 75.3066 533.436 75.1895 534.105 75.1895C534.955 75.1895 535.672 75.3457 536.258 75.6582C536.844 75.9707 537.298 76.4028 537.621 76.9546C537.948 77.5063 538.148 78.1387 538.221 78.8516H536.39C536.341 78.3926 536.234 77.9995 536.068 77.6724C535.907 77.3452 535.667 77.0962 535.35 76.9253C535.033 76.7495 534.618 76.6616 534.105 76.6616C533.685 76.6616 533.319 76.7397 533.006 76.896C532.694 77.0522 532.433 77.2817 532.223 77.5845C532.013 77.8872 531.854 78.2607 531.747 78.7051C531.644 79.1445 531.593 79.6475 531.593 80.2139V81.1147C531.593 81.6519 531.639 82.1401 531.732 82.5796C531.83 83.0142 531.976 83.3877 532.171 83.7002C532.372 84.0127 532.625 84.2544 532.933 84.4253C533.241 84.5962 533.609 84.6816 534.039 84.6816C534.562 84.6816 534.984 84.5986 535.306 84.4326C535.633 84.2666 535.88 84.0249 536.046 83.7075C536.217 83.3853 536.329 82.9922 536.383 82.5283ZM542.982 86H540.704L540.719 84.5425H542.982C543.641 84.5425 544.193 84.3984 544.637 84.1104C545.086 83.8223 545.423 83.4097 545.648 82.8726C545.877 82.3354 545.992 81.6958 545.992 80.9536V80.375C545.992 79.7988 545.926 79.2886 545.794 78.8442C545.667 78.3999 545.477 78.0264 545.223 77.7236C544.974 77.4209 544.667 77.1914 544.3 77.0352C543.939 76.8789 543.521 76.8008 543.048 76.8008H540.66V75.3359H543.048C543.756 75.3359 544.403 75.4556 544.989 75.6948C545.575 75.9292 546.08 76.2686 546.505 76.7129C546.935 77.1572 547.264 77.6895 547.494 78.3096C547.723 78.9297 547.838 79.623 547.838 80.3896V80.9536C547.838 81.7202 547.723 82.4136 547.494 83.0337C547.264 83.6538 546.935 84.186 546.505 84.6304C546.075 85.0698 545.562 85.4092 544.967 85.6484C544.376 85.8828 543.714 86 542.982 86ZM541.722 75.3359V86H539.884V75.3359H541.722ZM558.143 75.3359V86H556.305L551.522 78.3608V86H549.684V75.3359H551.522L556.319 82.9897V75.3359H558.143Z" fill="#505050"/>
<path d="M575.801 81.4658H573.989V80.3232H575.801C576.081 80.3232 576.308 80.2777 576.484 80.1865C576.66 80.0921 576.789 79.9619 576.87 79.7959C576.951 79.6299 576.992 79.4427 576.992 79.2344C576.992 79.0228 576.951 78.8258 576.87 78.6436C576.789 78.4613 576.66 78.3148 576.484 78.2041C576.308 78.0934 576.081 78.0381 575.801 78.0381H574.497V84H573.032V76.8906H575.801C576.357 76.8906 576.834 76.9915 577.231 77.1934C577.632 77.3919 577.938 77.667 578.149 78.0186C578.361 78.3701 578.467 78.7721 578.467 79.2246C578.467 79.6836 578.361 80.0807 578.149 80.416C577.938 80.7513 577.632 81.0101 577.231 81.1924C576.834 81.3747 576.357 81.4658 575.801 81.4658ZM580.596 79.8691V84H579.189V78.7168H580.513L580.596 79.8691ZM582.188 78.6826L582.163 79.9863C582.095 79.9766 582.012 79.9684 581.914 79.9619C581.82 79.9521 581.733 79.9473 581.655 79.9473C581.457 79.9473 581.284 79.9733 581.138 80.0254C580.994 80.0742 580.874 80.1475 580.776 80.2451C580.682 80.3428 580.61 80.4616 580.562 80.6016C580.516 80.7415 580.49 80.901 580.483 81.0801L580.2 80.9922C580.2 80.6504 580.234 80.3363 580.303 80.0498C580.371 79.7601 580.47 79.5078 580.601 79.293C580.734 79.0781 580.897 78.9121 581.089 78.7949C581.281 78.6777 581.501 78.6191 581.748 78.6191C581.826 78.6191 581.906 78.6257 581.987 78.6387C582.069 78.6484 582.135 78.6631 582.188 78.6826ZM582.28 81.4121V81.3096C582.28 80.9222 582.336 80.5658 582.446 80.2402C582.557 79.9115 582.718 79.6266 582.93 79.3857C583.141 79.1449 583.402 78.9577 583.711 78.8242C584.02 78.6875 584.375 78.6191 584.776 78.6191C585.176 78.6191 585.532 78.6875 585.845 78.8242C586.157 78.9577 586.419 79.1449 586.631 79.3857C586.846 79.6266 587.009 79.9115 587.119 80.2402C587.23 80.5658 587.285 80.9222 587.285 81.3096V81.4121C587.285 81.7962 587.23 82.1527 587.119 82.4814C587.009 82.807 586.846 83.0918 586.631 83.3359C586.419 83.5768 586.159 83.764 585.85 83.8975C585.541 84.0309 585.186 84.0977 584.785 84.0977C584.385 84.0977 584.029 84.0309 583.716 83.8975C583.407 83.764 583.145 83.5768 582.93 83.3359C582.718 83.0918 582.557 82.807 582.446 82.4814C582.336 82.1527 582.28 81.7962 582.28 81.4121ZM583.687 81.3096V81.4121C583.687 81.6335 583.706 81.8402 583.745 82.0322C583.784 82.2243 583.846 82.3936 583.931 82.54C584.019 82.6833 584.133 82.7956 584.273 82.877C584.413 82.9583 584.584 82.999 584.785 82.999C584.981 82.999 585.148 82.9583 585.288 82.877C585.428 82.7956 585.541 82.6833 585.625 82.54C585.71 82.3936 585.772 82.2243 585.811 82.0322C585.853 81.8402 585.874 81.6335 585.874 81.4121V81.3096C585.874 81.0947 585.853 80.8929 585.811 80.7041C585.772 80.512 585.708 80.3428 585.62 80.1963C585.536 80.0465 585.423 79.9294 585.283 79.8447C585.143 79.7601 584.974 79.7178 584.776 79.7178C584.577 79.7178 584.408 79.7601 584.268 79.8447C584.131 79.9294 584.019 80.0465 583.931 80.1963C583.846 80.3428 583.784 80.512 583.745 80.7041C583.706 80.8929 583.687 81.0947 583.687 81.3096Z" fill="#1A1A1A"/>
<rect x="564.5" y="73.5" width="31" height="15" rx="7.5" stroke="#1A1A1A"/>
<rect width="166" height="80" transform="translate(612 41)" fill="white" fill-opacity="0.01"/>
<path d="M633.164 77.3571C632.438 77.3571 631.849 77.9328 631.849 78.6429C631.849 79.3529 632.438 79.9286 633.164 79.9286C633.89 79.9286 634.479 79.3529 634.479 78.6429C634.479 77.9328 633.89 77.3571 633.164 77.3571ZM641.247 75H630.729C629.785 75 629 75.7674 629 76.7143V85.2857C629 86.2326 629.785 87 630.728 87H641.247C642.215 87 643 86.2326 643 85.2857V76.7143C643 75.7674 642.239 75 641.247 75ZM641.685 85.1062L637.938 80.1268C637.87 80.0036 637.714 79.9286 637.547 79.9286C637.379 79.9286 637.223 80.0027 637.13 80.1262L634.21 83.986L633.194 82.7512C633.1 82.6366 632.949 82.5688 632.789 82.5688C632.629 82.5688 632.479 82.6366 632.385 82.7512L630.316 85.264C630.316 85.2632 630.316 85.2648 630.316 85.264L630.315 76.7143C630.315 76.478 630.511 76.2857 630.753 76.2857H641.272C641.513 76.2857 641.71 76.478 641.71 76.7143V85.1062H641.685Z" fill="#505050"/>
<path d="M655.764 84.5425V86H650.41V84.5425H655.764ZM650.922 75.3359V86H649.084V75.3359H650.922ZM656.672 82.1255V81.957C656.672 81.3857 656.755 80.856 656.921 80.3677C657.087 79.8745 657.326 79.4473 657.639 79.0859C657.956 78.7197 658.342 78.4365 658.796 78.2363C659.255 78.0312 659.772 77.9287 660.349 77.9287C660.93 77.9287 661.447 78.0312 661.901 78.2363C662.36 78.4365 662.749 78.7197 663.066 79.0859C663.383 79.4473 663.625 79.8745 663.791 80.3677C663.957 80.856 664.04 81.3857 664.04 81.957V82.1255C664.04 82.6968 663.957 83.2266 663.791 83.7148C663.625 84.2031 663.383 84.6304 663.066 84.9966C662.749 85.3579 662.363 85.6411 661.909 85.8462C661.455 86.0464 660.939 86.1465 660.363 86.1465C659.782 86.1465 659.262 86.0464 658.803 85.8462C658.349 85.6411 657.963 85.3579 657.646 84.9966C657.329 84.6304 657.087 84.2031 656.921 83.7148C656.755 83.2266 656.672 82.6968 656.672 82.1255ZM658.437 81.957V82.1255C658.437 82.4819 658.474 82.8188 658.547 83.1362C658.62 83.4536 658.735 83.7319 658.891 83.9712C659.047 84.2104 659.248 84.3984 659.492 84.5352C659.736 84.6719 660.026 84.7402 660.363 84.7402C660.69 84.7402 660.974 84.6719 661.213 84.5352C661.457 84.3984 661.657 84.2104 661.813 83.9712C661.97 83.7319 662.084 83.4536 662.158 83.1362C662.236 82.8188 662.275 82.4819 662.275 82.1255V81.957C662.275 81.6055 662.236 81.2734 662.158 80.9609C662.084 80.6436 661.967 80.3628 661.806 80.1187C661.65 79.8745 661.45 79.6841 661.206 79.5474C660.966 79.4058 660.681 79.335 660.349 79.335C660.017 79.335 659.729 79.4058 659.484 79.5474C659.245 79.6841 659.047 79.8745 658.891 80.1187C658.735 80.3628 658.62 80.6436 658.547 80.9609C658.474 81.2734 658.437 81.6055 658.437 81.957ZM668.757 84.7402C669.045 84.7402 669.304 84.6841 669.533 84.5718C669.768 84.4546 669.956 84.2935 670.097 84.0884C670.244 83.8833 670.324 83.6465 670.339 83.3779H672.001C671.992 83.8906 671.84 84.3569 671.547 84.7769C671.254 85.1968 670.866 85.5312 670.383 85.7803C669.899 86.0244 669.365 86.1465 668.779 86.1465C668.173 86.1465 667.646 86.0439 667.197 85.8389C666.748 85.6289 666.374 85.3408 666.076 84.9746C665.778 84.6084 665.554 84.186 665.402 83.7075C665.256 83.229 665.183 82.7163 665.183 82.1694V81.9131C665.183 81.3662 665.256 80.8535 665.402 80.375C665.554 79.8916 665.778 79.4668 666.076 79.1006C666.374 78.7344 666.748 78.4487 667.197 78.2437C667.646 78.0337 668.171 77.9287 668.771 77.9287C669.406 77.9287 669.963 78.0557 670.441 78.3096C670.92 78.5586 671.296 78.9077 671.569 79.3569C671.848 79.8013 671.992 80.3188 672.001 80.9097H670.339C670.324 80.6167 670.251 80.353 670.119 80.1187C669.992 79.8794 669.812 79.689 669.577 79.5474C669.348 79.4058 669.072 79.335 668.75 79.335C668.393 79.335 668.098 79.4082 667.863 79.5547C667.629 79.6963 667.446 79.8916 667.314 80.1406C667.182 80.3848 667.087 80.6606 667.028 80.9683C666.975 81.271 666.948 81.5859 666.948 81.9131V82.1694C666.948 82.4966 666.975 82.814 667.028 83.1216C667.082 83.4292 667.175 83.7051 667.307 83.9492C667.443 84.1885 667.629 84.3813 667.863 84.5278C668.098 84.6694 668.396 84.7402 668.757 84.7402ZM677.824 84.4106V80.6313C677.824 80.3481 677.773 80.104 677.67 79.8989C677.568 79.6938 677.412 79.5352 677.202 79.4229C676.997 79.3105 676.738 79.2544 676.425 79.2544C676.137 79.2544 675.888 79.3032 675.678 79.4009C675.468 79.4985 675.305 79.6304 675.188 79.7964C675.07 79.9624 675.012 80.1504 675.012 80.3604H673.254C673.254 80.0479 673.33 79.7451 673.481 79.4521C673.632 79.1592 673.852 78.8979 674.14 78.6685C674.428 78.439 674.772 78.2583 675.173 78.1265C675.573 77.9946 676.022 77.9287 676.521 77.9287C677.116 77.9287 677.644 78.0288 678.103 78.229C678.566 78.4292 678.93 78.7319 679.194 79.1372C679.462 79.5376 679.597 80.0405 679.597 80.646V84.1689C679.597 84.5303 679.621 84.855 679.67 85.1431C679.724 85.4263 679.799 85.6729 679.897 85.8828V86H678.088C678.005 85.8096 677.939 85.5679 677.89 85.2749C677.846 84.9771 677.824 84.689 677.824 84.4106ZM678.081 81.1807L678.095 82.272H676.828C676.501 82.272 676.213 82.3037 675.964 82.3672C675.715 82.4258 675.507 82.5137 675.341 82.6309C675.175 82.748 675.051 82.8896 674.968 83.0557C674.885 83.2217 674.843 83.4097 674.843 83.6196C674.843 83.8296 674.892 84.0225 674.99 84.1982C675.087 84.3691 675.229 84.5034 675.415 84.6011C675.605 84.6987 675.834 84.7476 676.103 84.7476C676.464 84.7476 676.779 84.6743 677.048 84.5278C677.321 84.3765 677.536 84.1934 677.692 83.9785C677.849 83.7588 677.932 83.5513 677.941 83.356L678.513 84.1396C678.454 84.3398 678.354 84.5547 678.212 84.7842C678.071 85.0137 677.885 85.2334 677.656 85.4434C677.431 85.6484 677.16 85.8169 676.843 85.9487C676.53 86.0806 676.169 86.1465 675.759 86.1465C675.241 86.1465 674.78 86.0439 674.375 85.8389C673.969 85.6289 673.652 85.3481 673.422 84.9966C673.193 84.6401 673.078 84.2373 673.078 83.7881C673.078 83.3682 673.156 82.9971 673.312 82.6748C673.474 82.3477 673.708 82.0742 674.016 81.8545C674.328 81.6348 674.709 81.4688 675.158 81.3564C675.607 81.2393 676.12 81.1807 676.696 81.1807H678.081ZM683.332 74.75V86H681.56V74.75H683.332ZM691.85 83.605L693.974 75.3359H695.087L694.963 77.4673L692.692 86H691.535L691.85 83.605ZM690.261 75.3359L691.982 83.5391L692.136 86H690.905L688.437 75.3359H690.261ZM697.497 83.5171L699.196 75.3359H701.027L698.559 86H697.329L697.497 83.5171ZM695.52 75.3359L697.622 83.627L697.929 86H696.772L694.538 77.4673L694.421 75.3359H695.52ZM705.473 86.1465C704.887 86.1465 704.357 86.0513 703.884 85.8608C703.415 85.6655 703.015 85.3945 702.683 85.0479C702.355 84.7012 702.104 84.2935 701.928 83.8247C701.752 83.356 701.665 82.8506 701.665 82.3086V82.0156C701.665 81.3955 701.755 80.834 701.936 80.3311C702.116 79.8281 702.368 79.3984 702.69 79.042C703.012 78.6807 703.393 78.4048 703.833 78.2144C704.272 78.0239 704.748 77.9287 705.261 77.9287C705.827 77.9287 706.323 78.0239 706.748 78.2144C707.172 78.4048 707.524 78.6733 707.802 79.02C708.085 79.3618 708.295 79.7695 708.432 80.2432C708.574 80.7168 708.645 81.2393 708.645 81.8105V82.5649H702.521V81.2979H706.901V81.1587C706.892 80.8413 706.828 80.5435 706.711 80.2651C706.599 79.9868 706.425 79.7622 706.191 79.5913C705.957 79.4204 705.644 79.335 705.253 79.335C704.96 79.335 704.699 79.3984 704.47 79.5254C704.245 79.6475 704.057 79.8257 703.906 80.0601C703.754 80.2944 703.637 80.5776 703.554 80.9097C703.476 81.2368 703.437 81.6055 703.437 82.0156V82.3086C703.437 82.6553 703.483 82.9775 703.576 83.2754C703.674 83.5684 703.815 83.8247 704.001 84.0444C704.187 84.2642 704.411 84.4375 704.675 84.5645C704.938 84.6865 705.239 84.7476 705.576 84.7476C706 84.7476 706.379 84.6621 706.711 84.4912C707.043 84.3203 707.331 84.0786 707.575 83.7661L708.505 84.667C708.334 84.916 708.112 85.1553 707.839 85.3848C707.565 85.6094 707.231 85.7925 706.835 85.9341C706.445 86.0757 705.991 86.1465 705.473 86.1465ZM710.029 74.75H711.794V84.3081L711.625 86H710.029V74.75ZM716.965 81.9644V82.1182C716.965 82.7041 716.899 83.2437 716.767 83.7368C716.64 84.2251 716.445 84.6499 716.181 85.0112C715.922 85.3726 715.6 85.6533 715.214 85.8535C714.833 86.0488 714.392 86.1465 713.889 86.1465C713.396 86.1465 712.966 86.0537 712.6 85.8682C712.233 85.6826 711.926 85.4189 711.677 85.0771C711.433 84.7354 711.235 84.3276 711.083 83.854C710.932 83.3804 710.825 82.8579 710.761 82.2866V81.7959C710.825 81.2197 710.932 80.6973 711.083 80.2285C711.235 79.7549 711.433 79.3472 711.677 79.0054C711.926 78.6587 712.231 78.3926 712.592 78.207C712.958 78.0215 713.386 77.9287 713.874 77.9287C714.382 77.9287 714.829 78.0264 715.214 78.2217C715.605 78.417 715.93 78.6953 716.188 79.0566C716.447 79.4131 716.64 79.8379 716.767 80.3311C716.899 80.8242 716.965 81.3687 716.965 81.9644ZM715.2 82.1182V81.9644C715.2 81.6079 715.17 81.2734 715.112 80.9609C715.053 80.6436 714.956 80.3652 714.819 80.126C714.687 79.8867 714.506 79.6987 714.277 79.562C714.052 79.4204 713.771 79.3496 713.435 79.3496C713.122 79.3496 712.854 79.4033 712.629 79.5107C712.404 79.6182 712.216 79.7646 712.065 79.9502C711.914 80.1357 711.794 80.3506 711.706 80.5947C711.623 80.8389 711.567 81.1025 711.538 81.3857V82.7114C711.582 83.0776 711.674 83.4146 711.816 83.7222C711.962 84.0249 712.167 84.269 712.431 84.4546C712.695 84.6353 713.034 84.7256 713.449 84.7256C713.776 84.7256 714.052 84.6597 714.277 84.5278C714.501 84.396 714.68 84.2129 714.812 83.9785C714.948 83.7393 715.046 83.4609 715.104 83.1436C715.168 82.8262 715.2 82.4844 715.2 82.1182ZM720.231 79.5986V89.0469H718.466V78.0752H720.092L720.231 79.5986ZM725.395 81.9644V82.1182C725.395 82.6943 725.327 83.229 725.19 83.7222C725.058 84.2104 724.86 84.6377 724.597 85.0039C724.338 85.3652 724.018 85.646 723.637 85.8462C723.256 86.0464 722.817 86.1465 722.319 86.1465C721.826 86.1465 721.394 86.0562 721.022 85.8755C720.656 85.6899 720.346 85.4287 720.092 85.0918C719.838 84.7549 719.633 84.3594 719.477 83.9053C719.326 83.4463 719.218 82.9434 719.155 82.3965V81.8032C719.218 81.2222 719.326 80.6948 719.477 80.2212C719.633 79.7476 719.838 79.3398 720.092 78.998C720.346 78.6562 720.656 78.3926 721.022 78.207C721.389 78.0215 721.816 77.9287 722.304 77.9287C722.802 77.9287 723.244 78.0264 723.63 78.2217C724.016 78.4121 724.34 78.6855 724.604 79.042C724.868 79.3936 725.065 79.8184 725.197 80.3164C725.329 80.8096 725.395 81.3589 725.395 81.9644ZM723.63 82.1182V81.9644C723.63 81.5981 723.596 81.2588 723.527 80.9463C723.459 80.6289 723.352 80.3506 723.205 80.1113C723.059 79.8721 722.871 79.6865 722.641 79.5547C722.417 79.418 722.146 79.3496 721.828 79.3496C721.516 79.3496 721.247 79.4033 721.022 79.5107C720.798 79.6133 720.61 79.7573 720.458 79.9429C720.307 80.1284 720.19 80.3457 720.107 80.5947C720.024 80.8389 719.965 81.105 719.931 81.3931V82.814C719.99 83.1655 720.09 83.4878 720.231 83.7808C720.373 84.0737 720.573 84.3081 720.832 84.4839C721.096 84.6548 721.433 84.7402 721.843 84.7402C722.16 84.7402 722.431 84.6719 722.656 84.5352C722.88 84.3984 723.063 84.2104 723.205 83.9712C723.352 83.7271 723.459 83.4463 723.527 83.1289C723.596 82.8115 723.63 82.4746 723.63 82.1182Z" fill="#505050"/>
<path d="M741.801 81.4658H739.989V80.3232H741.801C742.081 80.3232 742.308 80.2777 742.484 80.1865C742.66 80.0921 742.789 79.9619 742.87 79.7959C742.951 79.6299 742.992 79.4427 742.992 79.2344C742.992 79.0228 742.951 78.8258 742.87 78.6436C742.789 78.4613 742.66 78.3148 742.484 78.2041C742.308 78.0934 742.081 78.0381 741.801 78.0381H740.497V84H739.032V76.8906H741.801C742.357 76.8906 742.834 76.9915 743.231 77.1934C743.632 77.3919 743.938 77.667 744.149 78.0186C744.361 78.3701 744.467 78.7721 744.467 79.2246C744.467 79.6836 744.361 80.0807 744.149 80.416C743.938 80.7513 743.632 81.0101 743.231 81.1924C742.834 81.3747 742.357 81.4658 741.801 81.4658ZM746.596 79.8691V84H745.189V78.7168H746.513L746.596 79.8691ZM748.188 78.6826L748.163 79.9863C748.095 79.9766 748.012 79.9684 747.914 79.9619C747.82 79.9521 747.733 79.9473 747.655 79.9473C747.457 79.9473 747.284 79.9733 747.138 80.0254C746.994 80.0742 746.874 80.1475 746.776 80.2451C746.682 80.3428 746.61 80.4616 746.562 80.6016C746.516 80.7415 746.49 80.901 746.483 81.0801L746.2 80.9922C746.2 80.6504 746.234 80.3363 746.303 80.0498C746.371 79.7601 746.47 79.5078 746.601 79.293C746.734 79.0781 746.897 78.9121 747.089 78.7949C747.281 78.6777 747.501 78.6191 747.748 78.6191C747.826 78.6191 747.906 78.6257 747.987 78.6387C748.069 78.6484 748.135 78.6631 748.188 78.6826ZM748.28 81.4121V81.3096C748.28 80.9222 748.336 80.5658 748.446 80.2402C748.557 79.9115 748.718 79.6266 748.93 79.3857C749.141 79.1449 749.402 78.9577 749.711 78.8242C750.02 78.6875 750.375 78.6191 750.776 78.6191C751.176 78.6191 751.532 78.6875 751.845 78.8242C752.157 78.9577 752.419 79.1449 752.631 79.3857C752.846 79.6266 753.009 79.9115 753.119 80.2402C753.23 80.5658 753.285 80.9222 753.285 81.3096V81.4121C753.285 81.7962 753.23 82.1527 753.119 82.4814C753.009 82.807 752.846 83.0918 752.631 83.3359C752.419 83.5768 752.159 83.764 751.85 83.8975C751.541 84.0309 751.186 84.0977 750.785 84.0977C750.385 84.0977 750.029 84.0309 749.716 83.8975C749.407 83.764 749.145 83.5768 748.93 83.3359C748.718 83.0918 748.557 82.807 748.446 82.4814C748.336 82.1527 748.28 81.7962 748.28 81.4121ZM749.687 81.3096V81.4121C749.687 81.6335 749.706 81.8402 749.745 82.0322C749.784 82.2243 749.846 82.3936 749.931 82.54C750.019 82.6833 750.133 82.7956 750.273 82.877C750.413 82.9583 750.584 82.999 750.785 82.999C750.981 82.999 751.148 82.9583 751.288 82.877C751.428 82.7956 751.541 82.6833 751.625 82.54C751.71 82.3936 751.772 82.2243 751.811 82.0322C751.853 81.8402 751.874 81.6335 751.874 81.4121V81.3096C751.874 81.0947 751.853 80.8929 751.811 80.7041C751.772 80.512 751.708 80.3428 751.62 80.1963C751.536 80.0465 751.423 79.9294 751.283 79.8447C751.143 79.7601 750.974 79.7178 750.776 79.7178C750.577 79.7178 750.408 79.7601 750.268 79.8447C750.131 79.9294 750.019 80.0465 749.931 80.1963C749.846 80.3428 749.784 80.512 749.745 80.7041C749.706 80.8929 749.687 81.0947 749.687 81.3096Z" fill="#1A1A1A"/>
<rect x="730.5" y="73.5" width="31" height="15" rx="7.5" stroke="#1A1A1A"/>
<rect width="48" height="80" transform="translate(50 41)" fill="url(#paint0_linear_3378_49375)"/>
<path d="M77.35 88C77.0656 88 76.8141 87.9062 76.5953 87.7188L70.2953 81.7188C70.0984 81.5104 70 81.2708 70 81C70 80.7292 70.0984 80.4896 70.2953 80.2812L76.5953 74.2812C76.8141 74.0938 77.0656 74 77.35 74C77.6344 74 77.8859 74.0938 78.1047 74.2812C78.3016 74.4896 78.4 74.7292 78.4 75C78.4 75.2708 78.3016 75.5104 78.1047 75.7188L72.5266 81L78.1047 86.2812C78.3016 86.4896 78.4 86.7292 78.4 87C78.4 87.2708 78.3016 87.5104 78.1047 87.7188C77.8859 87.9062 77.6344 88 77.35 88Z" fill="#AAAAAA"/>
<rect width="48" height="80" transform="translate(730 41)" fill="url(#paint1_linear_3378_49375)"/>
<path d="M751.05 88C750.766 88 750.514 87.9062 750.295 87.7188C750.098 87.5104 750 87.2708 750 87C750 86.7292 750.098 86.4896 750.295 86.2812L755.873 81L750.295 75.7188C750.098 75.5104 750 75.2708 750 75C750 74.7292 750.098 74.4896 750.295 74.2812C750.514 74.0938 750.766 74 751.05 74C751.334 74 751.586 74.0938 751.805 74.2812L758.105 80.2812C758.302 80.4896 758.4 80.7292 758.4 81C758.4 81.2708 758.302 81.5104 758.105 81.7188L751.805 87.7188C751.586 87.9062 751.334 88 751.05 88Z" fill="#AAAAAA"/>
</g>
<path d="M50 41H778H50ZM778 122H50V120H778V122ZM50 121V41V121ZM778 41V121V41Z" fill="#E6E6E6" mask="url(#path-3-inside-1_3378_49375)"/>
</g>
<defs>
<filter id="filter0_ddd_3378_49375" x="-31" y="-4" width="890" height="337" filterUnits="userSpaceOnUse" color-interpolation-filters="sRGB">
<feFlood flood-opacity="0" result="BackgroundImageFix"/>
<feColorMatrix in="SourceAlpha" type="matrix" values="0 0 0 0 0 0 0 0 0 0 0 0 0 0 0 0 0 0 127 0" result="hardAlpha"/>
<feOffset dy="2.39404"/>
<feGaussianBlur stdDeviation="2.66004"/>
<feColorMatrix type="matrix" values="0 0 0 0 0 0 0 0 0 0 0 0 0 0 0 0 0 0 0.0201946 0"/>
<feBlend mode="normal" in2="BackgroundImageFix" result="effect1_dropShadow_3378_49375"/>
<feColorMatrix in="SourceAlpha" type="matrix" values="0 0 0 0 0 0 0 0 0 0 0 0 0 0 0 0 0 0 127 0" result="hardAlpha"/>
<feOffset dy="8.04107"/>
<feGaussianBlur stdDeviation="8.93452"/>
<feColorMatrix type="matrix" values="0 0 0 0 0 0 0 0 0 0 0 0 0 0 0 0 0 0 0.0298054 0"/>
<feBlend mode="normal" in2="effect1_dropShadow_3378_49375" result="effect2_dropShadow_3378_49375"/>
<feColorMatrix in="SourceAlpha" type="matrix" values="0 0 0 0 0 0 0 0 0 0 0 0 0 0 0 0 0 0 127 0" result="hardAlpha"/>
<feOffset dy="36"/>
<feGaussianBlur stdDeviation="40"/>
<feColorMatrix type="matrix" values="0 0 0 0 0 0 0 0 0 0 0 0 0 0 0 0 0 0 0.05 0"/>
<feBlend mode="normal" in2="effect2_dropShadow_3378_49375" result="effect3_dropShadow_3378_49375"/>
<feBlend mode="normal" in="SourceGraphic" in2="effect3_dropShadow_3378_49375" result="shape"/>
</filter>
<linearGradient id="paint0_linear_3378_49375" x1="-9.65157e-08" y1="4.44445" x2="48" y2="4.44445" gradientUnits="userSpaceOnUse">
<stop stop-color="white"/>
<stop offset="0.716264" stop-color="white"/>
<stop offset="1" stop-color="#F8F8F8" stop-opacity="0"/>
</linearGradient>
<linearGradient id="paint1_linear_3378_49375" x1="48" y1="37.2222" x2="-7.11804e-07" y2="37.2222" gradientUnits="userSpaceOnUse">
<stop stop-color="white"/>
<stop offset="0.716264" stop-color="white"/>
<stop offset="1" stop-color="#F8F8F8" stop-opacity="0"/>
</linearGradient>
<clipPath id="clip0_3378_49375">
<rect width="828" height="257" fill="white"/>
</clipPath>
<clipPath id="clip1_3378_49375">
<path d="M50 45C50 42.7909 51.7909 41 54 41H774C776.209 41 778 42.7909 778 45V121H50V45Z" fill="white"/>
</clipPath>
</defs>
</svg>
