<svg width="828" height="257" viewBox="0 0 828 257" fill="none" xmlns="http://www.w3.org/2000/svg">
<g clip-path="url(#clip0_3378_49376)">
<rect width="828" height="257" fill="#F8F8F8"/>
<g filter="url(#filter0_ddd_3378_49376)">
<rect x="50" y="40" width="730" height="177" rx="4" fill="white"/>
<rect x="50.5" y="40.5" width="729" height="176" rx="3.5" stroke="#E6E6E6"/>
</g>
<g clip-path="url(#clip1_3378_49376)">
<mask id="path-3-inside-1_3378_49376" fill="white">
<path d="M51 45C51 42.7909 52.7909 41 55 41H775C777.209 41 779 42.7909 779 45V121H51V45Z"/>
</mask>
<path d="M51 45C51 42.7909 52.7909 41 55 41H775C777.209 41 779 42.7909 779 45V121H51V45Z" fill="white"/>
<rect width="187" height="80" transform="translate(19 41)" fill="white" fill-opacity="0.01"/>
<path d="M58.0469 75.3359V86H56.2085V75.3359H58.0469ZM61.9214 79.6865V86H60.1562V78.0752H61.8188L61.9214 79.6865ZM61.6357 81.7446L61.0352 81.7373C61.0352 81.1904 61.1035 80.6851 61.2402 80.2212C61.377 79.7573 61.5771 79.3545 61.8408 79.0127C62.1045 78.666 62.4316 78.3999 62.8223 78.2144C63.2178 78.0239 63.6743 77.9287 64.1919 77.9287C64.5532 77.9287 64.8828 77.9824 65.1807 78.0898C65.4834 78.1924 65.7446 78.356 65.9644 78.5806C66.189 78.8052 66.3599 79.0933 66.4771 79.4448C66.5991 79.7964 66.6602 80.2212 66.6602 80.7192V86H64.895V80.873C64.895 80.4873 64.8364 80.1846 64.7192 79.9648C64.6069 79.7451 64.4434 79.5889 64.2285 79.4961C64.0186 79.3984 63.7671 79.3496 63.4741 79.3496C63.1421 79.3496 62.8589 79.4131 62.6245 79.54C62.395 79.667 62.207 79.8403 62.0605 80.0601C61.9141 80.2798 61.8066 80.5337 61.7383 80.8218C61.6699 81.1099 61.6357 81.4175 61.6357 81.7446ZM66.5503 81.2759L65.7227 81.459C65.7227 80.9805 65.7886 80.5288 65.9204 80.104C66.0571 79.6743 66.2549 79.2983 66.5137 78.9761C66.7773 78.6489 67.1021 78.3926 67.4878 78.207C67.8735 78.0215 68.3154 77.9287 68.8135 77.9287C69.2188 77.9287 69.5801 77.9849 69.8975 78.0972C70.2197 78.2046 70.4932 78.3755 70.7178 78.6099C70.9424 78.8442 71.1133 79.1494 71.2305 79.5254C71.3477 79.8965 71.4062 80.3457 71.4062 80.873V86H69.6338V80.8657C69.6338 80.4653 69.5752 80.1553 69.458 79.9355C69.3457 79.7158 69.1846 79.5645 68.9746 79.4814C68.7646 79.3936 68.5132 79.3496 68.2202 79.3496C67.9468 79.3496 67.7051 79.4009 67.4951 79.5034C67.29 79.6011 67.1167 79.7402 66.9751 79.9209C66.8335 80.0967 66.7261 80.2993 66.6528 80.5288C66.5845 80.7583 66.5503 81.0073 66.5503 81.2759ZM77.6904 84.4106V80.6313C77.6904 80.3481 77.6392 80.104 77.5366 79.8989C77.4341 79.6938 77.2778 79.5352 77.0679 79.4229C76.8628 79.3105 76.604 79.2544 76.2915 79.2544C76.0034 79.2544 75.7544 79.3032 75.5444 79.4009C75.3345 79.4985 75.1709 79.6304 75.0537 79.7964C74.9365 79.9624 74.8779 80.1504 74.8779 80.3604H73.1201C73.1201 80.0479 73.1958 79.7451 73.3472 79.4521C73.4985 79.1592 73.7183 78.8979 74.0063 78.6685C74.2944 78.439 74.6387 78.2583 75.0391 78.1265C75.4395 77.9946 75.8887 77.9287 76.3867 77.9287C76.9824 77.9287 77.5098 78.0288 77.9688 78.229C78.4326 78.4292 78.7964 78.7319 79.0601 79.1372C79.3286 79.5376 79.4629 80.0405 79.4629 80.646V84.1689C79.4629 84.5303 79.4873 84.855 79.5361 85.1431C79.5898 85.4263 79.6655 85.6729 79.7632 85.8828V86H77.9541C77.8711 85.8096 77.8052 85.5679 77.7563 85.2749C77.7124 84.9771 77.6904 84.689 77.6904 84.4106ZM77.9468 81.1807L77.9614 82.272H76.6943C76.3672 82.272 76.0791 82.3037 75.8301 82.3672C75.5811 82.4258 75.3735 82.5137 75.2075 82.6309C75.0415 82.748 74.917 82.8896 74.834 83.0557C74.751 83.2217 74.7095 83.4097 74.7095 83.6196C74.7095 83.8296 74.7583 84.0225 74.856 84.1982C74.9536 84.3691 75.0952 84.5034 75.2808 84.6011C75.4712 84.6987 75.7007 84.7476 75.9692 84.7476C76.3306 84.7476 76.6455 84.6743 76.9141 84.5278C77.1875 84.3765 77.4023 84.1934 77.5586 83.9785C77.7148 83.7588 77.7979 83.5513 77.8076 83.356L78.3789 84.1396C78.3203 84.3398 78.2202 84.5547 78.0786 84.7842C77.937 85.0137 77.7515 85.2334 77.522 85.4434C77.2974 85.6484 77.0264 85.8169 76.709 85.9487C76.3965 86.0806 76.0352 86.1465 75.625 86.1465C75.1074 86.1465 74.646 86.0439 74.2407 85.8389C73.8354 85.6289 73.5181 85.3481 73.2886 84.9966C73.0591 84.6401 72.9443 84.2373 72.9443 83.7881C72.9443 83.3682 73.0225 82.9971 73.1787 82.6748C73.3398 82.3477 73.5742 82.0742 73.8818 81.8545C74.1943 81.6348 74.5752 81.4688 75.0244 81.3564C75.4736 81.2393 75.9863 81.1807 76.5625 81.1807H77.9468ZM86.3843 78.0752H87.9883V85.7803C87.9883 86.4932 87.8369 87.0986 87.5342 87.5967C87.2314 88.0947 86.8091 88.4731 86.2671 88.7319C85.7251 88.9956 85.0977 89.1274 84.3848 89.1274C84.082 89.1274 83.7451 89.0835 83.374 88.9956C83.0078 88.9077 82.6514 88.7661 82.3047 88.5708C81.9629 88.3804 81.6772 88.1289 81.4478 87.8164L82.2754 86.7764C82.5586 87.1133 82.8711 87.3599 83.2129 87.5161C83.5547 87.6724 83.9136 87.7505 84.2896 87.7505C84.6948 87.7505 85.0391 87.6748 85.3223 87.5234C85.6104 87.377 85.8325 87.1597 85.9888 86.8716C86.145 86.5835 86.2231 86.2319 86.2231 85.8169V79.8696L86.3843 78.0752ZM81.001 82.1255V81.9717C81.001 81.3711 81.0742 80.8242 81.2207 80.3311C81.3672 79.833 81.5771 79.4058 81.8506 79.0493C82.124 78.688 82.4561 78.4121 82.8467 78.2217C83.2373 78.0264 83.6792 77.9287 84.1724 77.9287C84.6851 77.9287 85.1221 78.0215 85.4834 78.207C85.8496 78.3926 86.1548 78.6587 86.3989 79.0054C86.6431 79.3472 86.8335 79.7573 86.9702 80.2358C87.1118 80.7095 87.2168 81.2368 87.2852 81.8179V82.3086C87.2217 82.875 87.1143 83.3926 86.9629 83.8613C86.8115 84.3301 86.6113 84.7354 86.3623 85.0771C86.1133 85.4189 85.8057 85.6826 85.4395 85.8682C85.0781 86.0537 84.6509 86.1465 84.1577 86.1465C83.6743 86.1465 83.2373 86.0464 82.8467 85.8462C82.4609 85.646 82.1289 85.3652 81.8506 85.0039C81.5771 84.6426 81.3672 84.2178 81.2207 83.7295C81.0742 83.2363 81.001 82.7017 81.001 82.1255ZM82.7661 81.9717V82.1255C82.7661 82.4868 82.8003 82.8237 82.8687 83.1362C82.9419 83.4487 83.0518 83.7246 83.1982 83.9639C83.3496 84.1982 83.54 84.3838 83.7695 84.5205C84.0039 84.6523 84.2798 84.7183 84.5972 84.7183C85.0122 84.7183 85.3516 84.6304 85.6152 84.4546C85.8838 84.2788 86.0889 84.042 86.2305 83.7441C86.377 83.4414 86.4795 83.1045 86.5381 82.7334V81.4077C86.5088 81.1196 86.4478 80.8511 86.355 80.6021C86.2671 80.353 86.1475 80.1357 85.9961 79.9502C85.8447 79.7598 85.6543 79.6133 85.4248 79.5107C85.1953 79.4033 84.9243 79.3496 84.6118 79.3496C84.2944 79.3496 84.0186 79.418 83.7842 79.5547C83.5498 79.6914 83.3569 79.8794 83.2056 80.1187C83.0591 80.3579 82.9492 80.6362 82.876 80.9536C82.8027 81.271 82.7661 81.6104 82.7661 81.9717ZM93.313 86.1465C92.7271 86.1465 92.1973 86.0513 91.7236 85.8608C91.2549 85.6655 90.8545 85.3945 90.5225 85.0479C90.1953 84.7012 89.9438 84.2935 89.7681 83.8247C89.5923 83.356 89.5044 82.8506 89.5044 82.3086V82.0156C89.5044 81.3955 89.5947 80.834 89.7754 80.3311C89.9561 79.8281 90.2075 79.3984 90.5298 79.042C90.8521 78.6807 91.2329 78.4048 91.6724 78.2144C92.1118 78.0239 92.5879 77.9287 93.1006 77.9287C93.667 77.9287 94.1626 78.0239 94.5874 78.2144C95.0122 78.4048 95.3638 78.6733 95.6421 79.02C95.9253 79.3618 96.1353 79.7695 96.272 80.2432C96.4136 80.7168 96.4844 81.2393 96.4844 81.8105V82.5649H90.3613V81.2979H94.7412V81.1587C94.7314 80.8413 94.668 80.5435 94.5508 80.2651C94.4385 79.9868 94.2651 79.7622 94.0308 79.5913C93.7964 79.4204 93.4839 79.335 93.0933 79.335C92.8003 79.335 92.5391 79.3984 92.3096 79.5254C92.085 79.6475 91.897 79.8257 91.7456 80.0601C91.5942 80.2944 91.4771 80.5776 91.394 80.9097C91.3159 81.2368 91.2769 81.6055 91.2769 82.0156V82.3086C91.2769 82.6553 91.3232 82.9775 91.416 83.2754C91.5137 83.5684 91.6553 83.8247 91.8408 84.0444C92.0264 84.2642 92.251 84.4375 92.5146 84.5645C92.7783 84.6865 93.0786 84.7476 93.4155 84.7476C93.8403 84.7476 94.2188 84.6621 94.5508 84.4912C94.8828 84.3203 95.1709 84.0786 95.415 83.7661L96.3452 84.667C96.1743 84.916 95.9521 85.1553 95.6787 85.3848C95.4053 85.6094 95.0708 85.7925 94.6753 85.9341C94.2847 86.0757 93.8306 86.1465 93.313 86.1465ZM108.071 82.5283H109.902C109.844 83.2266 109.648 83.8491 109.316 84.396C108.984 84.938 108.518 85.3652 107.917 85.6777C107.317 85.9902 106.587 86.1465 105.728 86.1465C105.068 86.1465 104.475 86.0293 103.948 85.7949C103.42 85.5557 102.969 85.2188 102.593 84.7842C102.217 84.3447 101.929 83.8149 101.729 83.1948C101.533 82.5747 101.436 81.8813 101.436 81.1147V80.2285C101.436 79.4619 101.536 78.7686 101.736 78.1484C101.941 77.5283 102.234 76.9985 102.615 76.5591C102.996 76.1147 103.452 75.7754 103.984 75.541C104.521 75.3066 105.125 75.1895 105.793 75.1895C106.643 75.1895 107.361 75.3457 107.947 75.6582C108.533 75.9707 108.987 76.4028 109.309 76.9546C109.636 77.5063 109.836 78.1387 109.91 78.8516H108.079C108.03 78.3926 107.922 77.9995 107.756 77.6724C107.595 77.3452 107.356 77.0962 107.039 76.9253C106.721 76.7495 106.306 76.6616 105.793 76.6616C105.374 76.6616 105.007 76.7397 104.695 76.896C104.382 77.0522 104.121 77.2817 103.911 77.5845C103.701 77.8872 103.542 78.2607 103.435 78.7051C103.333 79.1445 103.281 79.6475 103.281 80.2139V81.1147C103.281 81.6519 103.328 82.1401 103.42 82.5796C103.518 83.0142 103.665 83.3877 103.86 83.7002C104.06 84.0127 104.314 84.2544 104.622 84.4253C104.929 84.5962 105.298 84.6816 105.728 84.6816C106.25 84.6816 106.672 84.5986 106.995 84.4326C107.322 84.2666 107.568 84.0249 107.734 83.7075C107.905 83.3853 108.018 82.9922 108.071 82.5283ZM111.06 82.1255V81.957C111.06 81.3857 111.143 80.856 111.309 80.3677C111.475 79.8745 111.714 79.4473 112.026 79.0859C112.344 78.7197 112.729 78.4365 113.184 78.2363C113.643 78.0312 114.16 77.9287 114.736 77.9287C115.317 77.9287 115.835 78.0312 116.289 78.2363C116.748 78.4365 117.136 78.7197 117.454 79.0859C117.771 79.4473 118.013 79.8745 118.179 80.3677C118.345 80.856 118.428 81.3857 118.428 81.957V82.1255C118.428 82.6968 118.345 83.2266 118.179 83.7148C118.013 84.2031 117.771 84.6304 117.454 84.9966C117.136 85.3579 116.75 85.6411 116.296 85.8462C115.842 86.0464 115.327 86.1465 114.751 86.1465C114.17 86.1465 113.65 86.0464 113.191 85.8462C112.737 85.6411 112.351 85.3579 112.034 84.9966C111.716 84.6304 111.475 84.2031 111.309 83.7148C111.143 83.2266 111.06 82.6968 111.06 82.1255ZM112.825 81.957V82.1255C112.825 82.4819 112.861 82.8188 112.935 83.1362C113.008 83.4536 113.123 83.7319 113.279 83.9712C113.435 84.2104 113.635 84.3984 113.879 84.5352C114.124 84.6719 114.414 84.7402 114.751 84.7402C115.078 84.7402 115.361 84.6719 115.601 84.5352C115.845 84.3984 116.045 84.2104 116.201 83.9712C116.357 83.7319 116.472 83.4536 116.545 83.1362C116.624 82.8188 116.663 82.4819 116.663 82.1255V81.957C116.663 81.6055 116.624 81.2734 116.545 80.9609C116.472 80.6436 116.355 80.3628 116.194 80.1187C116.038 79.8745 115.837 79.6841 115.593 79.5474C115.354 79.4058 115.068 79.335 114.736 79.335C114.404 79.335 114.116 79.4058 113.872 79.5474C113.633 79.6841 113.435 79.8745 113.279 80.1187C113.123 80.3628 113.008 80.6436 112.935 80.9609C112.861 81.2734 112.825 81.6055 112.825 81.957ZM121.672 79.6865V86H119.907V78.0752H121.57L121.672 79.6865ZM121.387 81.7446L120.786 81.7373C120.786 81.1904 120.854 80.6851 120.991 80.2212C121.128 79.7573 121.328 79.3545 121.592 79.0127C121.855 78.666 122.183 78.3999 122.573 78.2144C122.969 78.0239 123.425 77.9287 123.943 77.9287C124.304 77.9287 124.634 77.9824 124.932 78.0898C125.234 78.1924 125.496 78.356 125.715 78.5806C125.94 78.8052 126.111 79.0933 126.228 79.4448C126.35 79.7964 126.411 80.2212 126.411 80.7192V86H124.646V80.873C124.646 80.4873 124.587 80.1846 124.47 79.9648C124.358 79.7451 124.194 79.5889 123.979 79.4961C123.77 79.3984 123.518 79.3496 123.225 79.3496C122.893 79.3496 122.61 79.4131 122.375 79.54C122.146 79.667 121.958 79.8403 121.812 80.0601C121.665 80.2798 121.558 80.5337 121.489 80.8218C121.421 81.1099 121.387 81.4175 121.387 81.7446ZM126.301 81.2759L125.474 81.459C125.474 80.9805 125.54 80.5288 125.671 80.104C125.808 79.6743 126.006 79.2983 126.265 78.9761C126.528 78.6489 126.853 78.3926 127.239 78.207C127.625 78.0215 128.066 77.9287 128.564 77.9287C128.97 77.9287 129.331 77.9849 129.648 78.0972C129.971 78.2046 130.244 78.3755 130.469 78.6099C130.693 78.8442 130.864 79.1494 130.981 79.5254C131.099 79.8965 131.157 80.3457 131.157 80.873V86H129.385V80.8657C129.385 80.4653 129.326 80.1553 129.209 79.9355C129.097 79.7158 128.936 79.5645 128.726 79.4814C128.516 79.3936 128.264 79.3496 127.971 79.3496C127.698 79.3496 127.456 79.4009 127.246 79.5034C127.041 79.6011 126.868 79.7402 126.726 79.9209C126.584 80.0967 126.477 80.2993 126.404 80.5288C126.335 80.7583 126.301 81.0073 126.301 81.2759ZM134.746 79.5986V89.0469H132.981V78.0752H134.607L134.746 79.5986ZM139.91 81.9644V82.1182C139.91 82.6943 139.841 83.229 139.705 83.7222C139.573 84.2104 139.375 84.6377 139.111 85.0039C138.853 85.3652 138.533 85.646 138.152 85.8462C137.771 86.0464 137.332 86.1465 136.833 86.1465C136.34 86.1465 135.908 86.0562 135.537 85.8755C135.171 85.6899 134.861 85.4287 134.607 85.0918C134.353 84.7549 134.148 84.3594 133.992 83.9053C133.84 83.4463 133.733 82.9434 133.669 82.3965V81.8032C133.733 81.2222 133.84 80.6948 133.992 80.2212C134.148 79.7476 134.353 79.3398 134.607 78.998C134.861 78.6562 135.171 78.3926 135.537 78.207C135.903 78.0215 136.331 77.9287 136.819 77.9287C137.317 77.9287 137.759 78.0264 138.145 78.2217C138.53 78.4121 138.855 78.6855 139.119 79.042C139.382 79.3936 139.58 79.8184 139.712 80.3164C139.844 80.8096 139.91 81.3589 139.91 81.9644ZM138.145 82.1182V81.9644C138.145 81.5981 138.11 81.2588 138.042 80.9463C137.974 80.6289 137.866 80.3506 137.72 80.1113C137.573 79.8721 137.385 79.6865 137.156 79.5547C136.931 79.418 136.66 79.3496 136.343 79.3496C136.03 79.3496 135.762 79.4033 135.537 79.5107C135.312 79.6133 135.125 79.7573 134.973 79.9429C134.822 80.1284 134.705 80.3457 134.622 80.5947C134.539 80.8389 134.48 81.105 134.446 81.3931V82.814C134.504 83.1655 134.604 83.4878 134.746 83.7808C134.888 84.0737 135.088 84.3081 135.347 84.4839C135.61 84.6548 135.947 84.7402 136.357 84.7402C136.675 84.7402 136.946 84.6719 137.17 84.5352C137.395 84.3984 137.578 84.2104 137.72 83.9712C137.866 83.7271 137.974 83.4463 138.042 83.1289C138.11 82.8115 138.145 82.4746 138.145 82.1182ZM143.184 79.584V86H141.418V78.0752H143.103L143.184 79.584ZM145.608 78.0239L145.593 79.6646C145.486 79.645 145.369 79.6304 145.242 79.6206C145.12 79.6108 144.998 79.606 144.875 79.606C144.573 79.606 144.307 79.6499 144.077 79.7378C143.848 79.8208 143.655 79.9429 143.499 80.104C143.347 80.2603 143.23 80.4507 143.147 80.6753C143.064 80.8999 143.015 81.1514 143 81.4297L142.598 81.459C142.598 80.9609 142.646 80.4995 142.744 80.0747C142.842 79.6499 142.988 79.2764 143.184 78.9541C143.384 78.6318 143.633 78.3804 143.931 78.1997C144.233 78.019 144.583 77.9287 144.978 77.9287C145.085 77.9287 145.2 77.9385 145.322 77.958C145.449 77.9775 145.544 77.9995 145.608 78.0239ZM150.061 86.1465C149.475 86.1465 148.945 86.0513 148.472 85.8608C148.003 85.6655 147.603 85.3945 147.271 85.0479C146.943 84.7012 146.692 84.2935 146.516 83.8247C146.34 83.356 146.252 82.8506 146.252 82.3086V82.0156C146.252 81.3955 146.343 80.834 146.523 80.3311C146.704 79.8281 146.956 79.3984 147.278 79.042C147.6 78.6807 147.981 78.4048 148.42 78.2144C148.86 78.0239 149.336 77.9287 149.849 77.9287C150.415 77.9287 150.911 78.0239 151.335 78.2144C151.76 78.4048 152.112 78.6733 152.39 79.02C152.673 79.3618 152.883 79.7695 153.02 80.2432C153.162 80.7168 153.232 81.2393 153.232 81.8105V82.5649H147.109V81.2979H151.489V81.1587C151.479 80.8413 151.416 80.5435 151.299 80.2651C151.187 79.9868 151.013 79.7622 150.779 79.5913C150.544 79.4204 150.232 79.335 149.841 79.335C149.548 79.335 149.287 79.3984 149.058 79.5254C148.833 79.6475 148.645 79.8257 148.494 80.0601C148.342 80.2944 148.225 80.5776 148.142 80.9097C148.064 81.2368 148.025 81.6055 148.025 82.0156V82.3086C148.025 82.6553 148.071 82.9775 148.164 83.2754C148.262 83.5684 148.403 83.8247 148.589 84.0444C148.774 84.2642 148.999 84.4375 149.263 84.5645C149.526 84.6865 149.827 84.7476 150.164 84.7476C150.588 84.7476 150.967 84.6621 151.299 84.4912C151.631 84.3203 151.919 84.0786 152.163 83.7661L153.093 84.667C152.922 84.916 152.7 85.1553 152.427 85.3848C152.153 85.6094 151.819 85.7925 151.423 85.9341C151.033 86.0757 150.579 86.1465 150.061 86.1465ZM159.055 83.854C159.055 83.6782 159.011 83.5195 158.923 83.3779C158.835 83.2314 158.667 83.0996 158.418 82.9824C158.174 82.8652 157.812 82.7578 157.334 82.6602C156.914 82.5674 156.528 82.4575 156.177 82.3306C155.83 82.1987 155.532 82.04 155.283 81.8545C155.034 81.6689 154.841 81.4492 154.705 81.1953C154.568 80.9414 154.5 80.6484 154.5 80.3164C154.5 79.9941 154.57 79.689 154.712 79.4009C154.854 79.1128 155.056 78.8589 155.32 78.6392C155.583 78.4194 155.903 78.2461 156.279 78.1191C156.66 77.9922 157.085 77.9287 157.554 77.9287C158.218 77.9287 158.787 78.041 159.26 78.2656C159.739 78.4854 160.105 78.7856 160.359 79.1665C160.613 79.5425 160.74 79.9673 160.74 80.4409H158.975C158.975 80.231 158.921 80.0356 158.813 79.855C158.711 79.6694 158.555 79.5205 158.345 79.4082C158.135 79.291 157.871 79.2324 157.554 79.2324C157.251 79.2324 157 79.2812 156.799 79.3789C156.604 79.4717 156.458 79.5938 156.36 79.7451C156.267 79.8965 156.221 80.0625 156.221 80.2432C156.221 80.375 156.245 80.4946 156.294 80.6021C156.348 80.7046 156.436 80.7998 156.558 80.8877C156.68 80.9707 156.846 81.0488 157.056 81.1221C157.271 81.1953 157.539 81.2661 157.861 81.3345C158.467 81.4614 158.987 81.625 159.421 81.8252C159.861 82.0205 160.198 82.2744 160.432 82.5869C160.667 82.8945 160.784 83.2852 160.784 83.7588C160.784 84.1104 160.708 84.4326 160.557 84.7256C160.41 85.0137 160.195 85.2651 159.912 85.48C159.629 85.6899 159.29 85.8535 158.894 85.9707C158.503 86.0879 158.064 86.1465 157.576 86.1465C156.858 86.1465 156.25 86.0195 155.752 85.7656C155.254 85.5068 154.875 85.1772 154.617 84.7769C154.363 84.3716 154.236 83.9517 154.236 83.5171H155.942C155.962 83.8442 156.052 84.1055 156.213 84.3008C156.379 84.4912 156.584 84.6304 156.829 84.7183C157.078 84.8013 157.334 84.8428 157.598 84.8428C157.915 84.8428 158.181 84.8013 158.396 84.7183C158.611 84.6304 158.774 84.5132 158.887 84.3667C158.999 84.2153 159.055 84.0444 159.055 83.854ZM166.775 83.854C166.775 83.6782 166.731 83.5195 166.643 83.3779C166.555 83.2314 166.387 83.0996 166.138 82.9824C165.894 82.8652 165.532 82.7578 165.054 82.6602C164.634 82.5674 164.248 82.4575 163.896 82.3306C163.55 82.1987 163.252 82.04 163.003 81.8545C162.754 81.6689 162.561 81.4492 162.424 81.1953C162.288 80.9414 162.219 80.6484 162.219 80.3164C162.219 79.9941 162.29 79.689 162.432 79.4009C162.573 79.1128 162.776 78.8589 163.04 78.6392C163.303 78.4194 163.623 78.2461 163.999 78.1191C164.38 77.9922 164.805 77.9287 165.273 77.9287C165.938 77.9287 166.506 78.041 166.98 78.2656C167.458 78.4854 167.825 78.7856 168.079 79.1665C168.333 79.5425 168.459 79.9673 168.459 80.4409H166.694C166.694 80.231 166.641 80.0356 166.533 79.855C166.431 79.6694 166.274 79.5205 166.064 79.4082C165.854 79.291 165.591 79.2324 165.273 79.2324C164.971 79.2324 164.719 79.2812 164.519 79.3789C164.324 79.4717 164.177 79.5938 164.08 79.7451C163.987 79.8965 163.94 80.0625 163.94 80.2432C163.94 80.375 163.965 80.4946 164.014 80.6021C164.067 80.7046 164.155 80.7998 164.277 80.8877C164.399 80.9707 164.565 81.0488 164.775 81.1221C164.99 81.1953 165.259 81.2661 165.581 81.3345C166.187 81.4614 166.707 81.625 167.141 81.8252C167.581 82.0205 167.917 82.2744 168.152 82.5869C168.386 82.8945 168.503 83.2852 168.503 83.7588C168.503 84.1104 168.428 84.4326 168.276 84.7256C168.13 85.0137 167.915 85.2651 167.632 85.48C167.349 85.6899 167.009 85.8535 166.614 85.9707C166.223 86.0879 165.784 86.1465 165.295 86.1465C164.578 86.1465 163.97 86.0195 163.472 85.7656C162.974 85.5068 162.595 85.1772 162.336 84.7769C162.083 84.3716 161.956 83.9517 161.956 83.5171H163.662C163.682 83.8442 163.772 84.1055 163.933 84.3008C164.099 84.4912 164.304 84.6304 164.548 84.7183C164.797 84.8013 165.054 84.8428 165.317 84.8428C165.635 84.8428 165.901 84.8013 166.116 84.7183C166.331 84.6304 166.494 84.5132 166.606 84.3667C166.719 84.2153 166.775 84.0444 166.775 83.854ZM171.938 78.0752V86H170.166V78.0752H171.938ZM170.049 75.9951C170.049 75.7266 170.137 75.5044 170.312 75.3286C170.493 75.1479 170.742 75.0576 171.06 75.0576C171.372 75.0576 171.619 75.1479 171.799 75.3286C171.98 75.5044 172.07 75.7266 172.07 75.9951C172.07 76.2588 171.98 76.4785 171.799 76.6543C171.619 76.8301 171.372 76.918 171.06 76.918C170.742 76.918 170.493 76.8301 170.312 76.6543C170.137 76.4785 170.049 76.2588 170.049 75.9951ZM173.535 82.1255V81.957C173.535 81.3857 173.618 80.856 173.784 80.3677C173.95 79.8745 174.189 79.4473 174.502 79.0859C174.819 78.7197 175.205 78.4365 175.659 78.2363C176.118 78.0312 176.636 77.9287 177.212 77.9287C177.793 77.9287 178.311 78.0312 178.765 78.2363C179.224 78.4365 179.612 78.7197 179.929 79.0859C180.247 79.4473 180.488 79.8745 180.654 80.3677C180.82 80.856 180.903 81.3857 180.903 81.957V82.1255C180.903 82.6968 180.82 83.2266 180.654 83.7148C180.488 84.2031 180.247 84.6304 179.929 84.9966C179.612 85.3579 179.226 85.6411 178.772 85.8462C178.318 86.0464 177.803 86.1465 177.227 86.1465C176.646 86.1465 176.125 86.0464 175.667 85.8462C175.212 85.6411 174.827 85.3579 174.509 84.9966C174.192 84.6304 173.95 84.2031 173.784 83.7148C173.618 83.2266 173.535 82.6968 173.535 82.1255ZM175.3 81.957V82.1255C175.3 82.4819 175.337 82.8188 175.41 83.1362C175.483 83.4536 175.598 83.7319 175.754 83.9712C175.911 84.2104 176.111 84.3984 176.355 84.5352C176.599 84.6719 176.89 84.7402 177.227 84.7402C177.554 84.7402 177.837 84.6719 178.076 84.5352C178.32 84.3984 178.521 84.2104 178.677 83.9712C178.833 83.7319 178.948 83.4536 179.021 83.1362C179.099 82.8188 179.138 82.4819 179.138 82.1255V81.957C179.138 81.6055 179.099 81.2734 179.021 80.9609C178.948 80.6436 178.831 80.3628 178.669 80.1187C178.513 79.8745 178.313 79.6841 178.069 79.5474C177.83 79.4058 177.544 79.335 177.212 79.335C176.88 79.335 176.592 79.4058 176.348 79.5474C176.108 79.6841 175.911 79.8745 175.754 80.1187C175.598 80.3628 175.483 80.6436 175.41 80.9609C175.337 81.2734 175.3 81.6055 175.3 81.957ZM184.133 79.7671V86H182.368V78.0752H184.031L184.133 79.7671ZM183.818 81.7446L183.247 81.7373C183.252 81.1758 183.33 80.6606 183.481 80.1919C183.638 79.7231 183.853 79.3203 184.126 78.9834C184.404 78.6465 184.736 78.3877 185.122 78.207C185.508 78.0215 185.938 77.9287 186.411 77.9287C186.792 77.9287 187.136 77.9824 187.444 78.0898C187.756 78.1924 188.022 78.3608 188.242 78.5952C188.467 78.8296 188.638 79.1348 188.755 79.5107C188.872 79.8818 188.931 80.3384 188.931 80.8804V86H187.158V80.873C187.158 80.4922 187.102 80.1919 186.99 79.9722C186.882 79.7476 186.724 79.5889 186.514 79.4961C186.309 79.3984 186.052 79.3496 185.745 79.3496C185.442 79.3496 185.171 79.4131 184.932 79.54C184.692 79.667 184.49 79.8403 184.324 80.0601C184.163 80.2798 184.038 80.5337 183.95 80.8218C183.862 81.1099 183.818 81.4175 183.818 81.7446Z" fill="#505050"/>
<rect width="162" height="80" transform="translate(206 41)" fill="white" fill-opacity="0.01"/>
<path d="M227.276 81C227.276 79.5262 228.471 78.375 230 78.375C231.504 78.375 232.724 79.5262 232.724 81C232.724 82.4492 231.504 83.625 230 83.625C228.471 83.625 227.276 82.4492 227.276 81ZM230 79.6875C229.248 79.6875 228.638 80.2754 228.638 81C228.638 81.7246 229.248 82.3125 230 82.3125C230.752 82.3125 231.362 81.7246 231.362 81C231.362 80.2754 230.752 79.6875 230 79.6875ZM231.053 74C231.683 74 232.231 74.4154 232.378 75.0046L232.6 75.8925C232.841 76.0059 233.071 76.1347 233.289 76.2772L234.2 76.0188C234.804 75.8473 235.451 76.0964 235.766 76.6214L236.819 78.3777C237.131 78.9027 237.032 79.5672 236.578 79.9855L235.888 80.5926C235.897 80.743 235.903 80.8715 235.903 81C235.903 81.1285 235.897 81.257 235.888 81.3828L236.578 82.0145C237.032 82.4328 237.131 83.0973 236.819 83.6223L235.766 85.3777C235.451 85.9027 234.804 86.1516 234.2 85.982L233.289 85.7223C233.071 85.8645 232.841 85.993 232.6 86.1078L232.378 86.9965C232.231 87.5844 231.683 88 231.053 88H228.947C228.317 88 227.77 87.5844 227.622 86.9965L227.401 86.1078C227.16 85.993 226.93 85.8645 226.711 85.7223L225.775 85.982C225.197 86.1516 224.55 85.9027 224.235 85.3777L223.183 83.6223C222.868 83.0973 222.967 82.4328 223.423 82.0145L224.111 81.3828C224.102 81.257 224.098 81.1285 224.098 80.9754C224.098 80.8715 224.102 80.743 224.111 80.5926L223.423 79.9855C222.967 79.5672 222.868 78.9027 223.183 78.3777L224.235 76.6214C224.55 76.0964 225.197 75.8473 225.775 76.0188L226.711 76.2772C226.93 76.1347 227.16 76.0059 227.401 75.8925L227.622 75.0046C227.77 74.4151 228.317 74 228.947 74L231.053 74ZM228.567 76.8328L228.249 76.9613C227.889 77.1063 227.554 77.2949 227.25 77.5191L226.975 77.7215L225.415 77.2785L224.362 79.034L225.54 80.1141L225.496 80.4422C225.472 80.6254 225.46 80.8113 225.46 81C225.46 81.1887 225.472 81.3746 225.496 81.5578L225.54 81.8859L224.362 82.966L225.415 84.7215L226.975 84.2785L227.25 84.4809C227.554 84.7051 227.889 84.8938 228.249 85.0387L228.567 85.1672L228.947 86.6875H231.053L231.433 85.1672L231.751 85.0387C232.111 84.8938 232.446 84.7051 232.75 84.4809L233.025 84.2785L234.586 84.7215L235.639 82.966L234.461 81.8859L234.504 81.5578C234.529 81.3746 234.541 81.1887 234.541 81C234.541 80.8113 234.529 80.6254 234.504 80.4422L234.461 80.1141L235.639 79.034L234.586 77.2785L233.025 77.7215L232.75 77.5191C232.446 77.2949 232.111 77.1063 231.751 76.9613L231.433 76.8328L231.053 75.3125H228.947L228.567 76.8328Z" fill="#505050"/>
<path d="M247.471 75.3359V86H245.647V75.3359H247.471ZM250.818 75.3359V76.8008H242.33V75.3359H250.818ZM250.687 82.1255V81.957C250.687 81.3857 250.77 80.856 250.936 80.3677C251.102 79.8745 251.341 79.4473 251.653 79.0859C251.971 78.7197 252.356 78.4365 252.811 78.2363C253.27 78.0312 253.787 77.9287 254.363 77.9287C254.944 77.9287 255.462 78.0312 255.916 78.2363C256.375 78.4365 256.763 78.7197 257.081 79.0859C257.398 79.4473 257.64 79.8745 257.806 80.3677C257.972 80.856 258.055 81.3857 258.055 81.957V82.1255C258.055 82.6968 257.972 83.2266 257.806 83.7148C257.64 84.2031 257.398 84.6304 257.081 84.9966C256.763 85.3579 256.377 85.6411 255.923 85.8462C255.469 86.0464 254.954 86.1465 254.378 86.1465C253.797 86.1465 253.277 86.0464 252.818 85.8462C252.364 85.6411 251.978 85.3579 251.661 84.9966C251.343 84.6304 251.102 84.2031 250.936 83.7148C250.77 83.2266 250.687 82.6968 250.687 82.1255ZM252.452 81.957V82.1255C252.452 82.4819 252.488 82.8188 252.562 83.1362C252.635 83.4536 252.75 83.7319 252.906 83.9712C253.062 84.2104 253.262 84.3984 253.506 84.5352C253.75 84.6719 254.041 84.7402 254.378 84.7402C254.705 84.7402 254.988 84.6719 255.228 84.5352C255.472 84.3984 255.672 84.2104 255.828 83.9712C255.984 83.7319 256.099 83.4536 256.172 83.1362C256.25 82.8188 256.29 82.4819 256.29 82.1255V81.957C256.29 81.6055 256.25 81.2734 256.172 80.9609C256.099 80.6436 255.982 80.3628 255.821 80.1187C255.665 79.8745 255.464 79.6841 255.22 79.5474C254.981 79.4058 254.695 79.335 254.363 79.335C254.031 79.335 253.743 79.4058 253.499 79.5474C253.26 79.6841 253.062 79.8745 252.906 80.1187C252.75 80.3628 252.635 80.6436 252.562 80.9609C252.488 81.2734 252.452 81.6055 252.452 81.957ZM259.197 82.1255V81.957C259.197 81.3857 259.28 80.856 259.446 80.3677C259.612 79.8745 259.852 79.4473 260.164 79.0859C260.481 78.7197 260.867 78.4365 261.321 78.2363C261.78 78.0312 262.298 77.9287 262.874 77.9287C263.455 77.9287 263.973 78.0312 264.427 78.2363C264.886 78.4365 265.274 78.7197 265.591 79.0859C265.909 79.4473 266.15 79.8745 266.316 80.3677C266.482 80.856 266.565 81.3857 266.565 81.957V82.1255C266.565 82.6968 266.482 83.2266 266.316 83.7148C266.15 84.2031 265.909 84.6304 265.591 84.9966C265.274 85.3579 264.888 85.6411 264.434 85.8462C263.98 86.0464 263.465 86.1465 262.889 86.1465C262.308 86.1465 261.788 86.0464 261.329 85.8462C260.875 85.6411 260.489 85.3579 260.171 84.9966C259.854 84.6304 259.612 84.2031 259.446 83.7148C259.28 83.2266 259.197 82.6968 259.197 82.1255ZM260.962 81.957V82.1255C260.962 82.4819 260.999 82.8188 261.072 83.1362C261.146 83.4536 261.26 83.7319 261.417 83.9712C261.573 84.2104 261.773 84.3984 262.017 84.5352C262.261 84.6719 262.552 84.7402 262.889 84.7402C263.216 84.7402 263.499 84.6719 263.738 84.5352C263.982 84.3984 264.183 84.2104 264.339 83.9712C264.495 83.7319 264.61 83.4536 264.683 83.1362C264.761 82.8188 264.8 82.4819 264.8 82.1255V81.957C264.8 81.6055 264.761 81.2734 264.683 80.9609C264.61 80.6436 264.493 80.3628 264.332 80.1187C264.175 79.8745 263.975 79.6841 263.731 79.5474C263.492 79.4058 263.206 79.335 262.874 79.335C262.542 79.335 262.254 79.4058 262.01 79.5474C261.771 79.6841 261.573 79.8745 261.417 80.1187C261.26 80.3628 261.146 80.6436 261.072 80.9609C260.999 81.2734 260.962 81.6055 260.962 81.957ZM269.935 74.75V86H268.162V74.75H269.935ZM276.314 83.854C276.314 83.6782 276.27 83.5195 276.182 83.3779C276.094 83.2314 275.926 83.0996 275.677 82.9824C275.433 82.8652 275.071 82.7578 274.593 82.6602C274.173 82.5674 273.787 82.4575 273.436 82.3306C273.089 82.1987 272.791 82.04 272.542 81.8545C272.293 81.6689 272.1 81.4492 271.963 81.1953C271.827 80.9414 271.758 80.6484 271.758 80.3164C271.758 79.9941 271.829 79.689 271.971 79.4009C272.112 79.1128 272.315 78.8589 272.579 78.6392C272.842 78.4194 273.162 78.2461 273.538 78.1191C273.919 77.9922 274.344 77.9287 274.812 77.9287C275.477 77.9287 276.045 78.041 276.519 78.2656C276.998 78.4854 277.364 78.7856 277.618 79.1665C277.872 79.5425 277.999 79.9673 277.999 80.4409H276.233C276.233 80.231 276.18 80.0356 276.072 79.855C275.97 79.6694 275.813 79.5205 275.604 79.4082C275.394 79.291 275.13 79.2324 274.812 79.2324C274.51 79.2324 274.258 79.2812 274.058 79.3789C273.863 79.4717 273.716 79.5938 273.619 79.7451C273.526 79.8965 273.479 80.0625 273.479 80.2432C273.479 80.375 273.504 80.4946 273.553 80.6021C273.606 80.7046 273.694 80.7998 273.816 80.8877C273.938 80.9707 274.104 81.0488 274.314 81.1221C274.529 81.1953 274.798 81.2661 275.12 81.3345C275.726 81.4614 276.246 81.625 276.68 81.8252C277.12 82.0205 277.457 82.2744 277.691 82.5869C277.925 82.8945 278.042 83.2852 278.042 83.7588C278.042 84.1104 277.967 84.4326 277.815 84.7256C277.669 85.0137 277.454 85.2651 277.171 85.48C276.888 85.6899 276.548 85.8535 276.153 85.9707C275.762 86.0879 275.323 86.1465 274.834 86.1465C274.117 86.1465 273.509 86.0195 273.011 85.7656C272.513 85.5068 272.134 85.1772 271.875 84.7769C271.622 84.3716 271.495 83.9517 271.495 83.5171H273.201C273.221 83.8442 273.311 84.1055 273.472 84.3008C273.638 84.4912 273.843 84.6304 274.087 84.7183C274.336 84.8013 274.593 84.8428 274.856 84.8428C275.174 84.8428 275.44 84.8013 275.655 84.7183C275.87 84.6304 276.033 84.5132 276.146 84.3667C276.258 84.2153 276.314 84.0444 276.314 83.854ZM285.147 80.1992L286.985 78.9614C287.293 78.7563 287.513 78.5562 287.645 78.3608C287.776 78.1606 287.842 77.9116 287.842 77.6138C287.842 77.3599 287.745 77.1255 287.549 76.9106C287.354 76.6958 287.078 76.5884 286.722 76.5884C286.473 76.5884 286.263 76.647 286.092 76.7642C285.921 76.8765 285.792 77.0278 285.704 77.2183C285.621 77.4038 285.579 77.6113 285.579 77.8408C285.579 78.0605 285.635 78.2876 285.748 78.522C285.86 78.7515 286.014 78.9932 286.209 79.2471C286.404 79.4961 286.624 79.7646 286.868 80.0527L291.907 86H289.864L285.748 81.1587C285.391 80.729 285.076 80.3359 284.803 79.9795C284.529 79.6182 284.317 79.269 284.166 78.9321C284.014 78.5903 283.938 78.2388 283.938 77.8774C283.938 77.3208 284.053 76.8423 284.283 76.4419C284.512 76.0415 284.837 75.7339 285.257 75.519C285.677 75.2993 286.167 75.1895 286.729 75.1895C287.271 75.1895 287.737 75.2993 288.128 75.519C288.523 75.7339 288.826 76.0195 289.036 76.376C289.251 76.7324 289.358 77.123 289.358 77.5479C289.358 77.8848 289.297 78.1924 289.175 78.4707C289.053 78.749 288.885 79.0029 288.67 79.2324C288.455 79.4619 288.206 79.6792 287.923 79.8843L285.689 81.5103C285.43 81.7202 285.237 81.9229 285.11 82.1182C284.988 82.3086 284.908 82.4844 284.869 82.6455C284.83 82.8066 284.81 82.9482 284.81 83.0703C284.81 83.3828 284.876 83.666 285.008 83.9199C285.145 84.1738 285.342 84.3765 285.601 84.5278C285.865 84.6743 286.185 84.7476 286.561 84.7476C286.966 84.7476 287.359 84.6572 287.74 84.4766C288.121 84.291 288.462 84.0298 288.765 83.6929C289.068 83.356 289.307 82.9531 289.483 82.4844C289.664 82.0156 289.754 81.4956 289.754 80.9243H291.277C291.277 81.4419 291.226 81.9326 291.124 82.3965C291.026 82.8604 290.867 83.29 290.647 83.6855C290.433 84.0811 290.149 84.4351 289.798 84.7476C289.764 84.7817 289.725 84.8257 289.681 84.8794C289.642 84.9282 289.603 84.9697 289.563 85.0039C289.144 85.3896 288.672 85.6777 288.15 85.8682C287.632 86.0537 287.081 86.1465 286.495 86.1465C285.787 86.1465 285.174 86.0171 284.656 85.7583C284.139 85.4995 283.738 85.1431 283.455 84.689C283.177 84.2349 283.038 83.7148 283.038 83.1289C283.038 82.6943 283.128 82.3135 283.309 81.9863C283.489 81.6543 283.736 81.3467 284.048 81.0635C284.366 80.7754 284.732 80.4873 285.147 80.1992ZM302.469 83.2534C302.469 83.0337 302.435 82.8384 302.366 82.6675C302.303 82.4966 302.188 82.3403 302.022 82.1987C301.856 82.0571 301.622 81.9204 301.319 81.7886C301.021 81.6519 300.64 81.5127 300.176 81.3711C299.668 81.2148 299.2 81.0415 298.77 80.8511C298.345 80.6558 297.974 80.4312 297.657 80.1772C297.339 79.9185 297.093 79.623 296.917 79.291C296.741 78.9541 296.653 78.5659 296.653 78.1265C296.653 77.6919 296.744 77.2964 296.924 76.9399C297.11 76.5835 297.371 76.2759 297.708 76.0171C298.05 75.7534 298.453 75.5508 298.917 75.4092C299.38 75.2627 299.893 75.1895 300.455 75.1895C301.246 75.1895 301.927 75.3359 302.498 75.6289C303.074 75.9219 303.516 76.3149 303.824 76.8081C304.136 77.3013 304.292 77.8457 304.292 78.4414H302.469C302.469 78.0898 302.393 77.7798 302.242 77.5112C302.095 77.2378 301.871 77.0229 301.568 76.8667C301.27 76.7104 300.892 76.6323 300.433 76.6323C299.998 76.6323 299.637 76.6982 299.349 76.8301C299.061 76.9619 298.846 77.1401 298.704 77.3647C298.562 77.5894 298.492 77.8433 298.492 78.1265C298.492 78.3267 298.538 78.5098 298.631 78.6758C298.724 78.8369 298.865 78.9883 299.056 79.1299C299.246 79.2666 299.485 79.396 299.773 79.5181C300.062 79.6401 300.401 79.7573 300.792 79.8696C301.382 80.0454 301.897 80.2407 302.337 80.4556C302.776 80.6655 303.143 80.9048 303.436 81.1733C303.729 81.4419 303.948 81.7471 304.095 82.0889C304.241 82.4258 304.314 82.8091 304.314 83.2388C304.314 83.688 304.224 84.0933 304.043 84.4546C303.863 84.811 303.604 85.1162 303.267 85.3701C302.935 85.6191 302.535 85.812 302.066 85.9487C301.602 86.0806 301.084 86.1465 300.513 86.1465C300 86.1465 299.495 86.0781 298.997 85.9414C298.504 85.8047 298.055 85.5972 297.649 85.3188C297.244 85.0356 296.922 84.6841 296.683 84.2642C296.443 83.8394 296.324 83.3438 296.324 82.7773H298.162C298.162 83.124 298.221 83.4194 298.338 83.6636C298.46 83.9077 298.628 84.1079 298.843 84.2642C299.058 84.4155 299.307 84.5278 299.59 84.6011C299.878 84.6743 300.186 84.7109 300.513 84.7109C300.943 84.7109 301.302 84.6499 301.59 84.5278C301.883 84.4058 302.103 84.2349 302.249 84.0151C302.396 83.7954 302.469 83.5415 302.469 83.2534ZM309.258 86.1465C308.672 86.1465 308.143 86.0513 307.669 85.8608C307.2 85.6655 306.8 85.3945 306.468 85.0479C306.141 84.7012 305.889 84.2935 305.713 83.8247C305.538 83.356 305.45 82.8506 305.45 82.3086V82.0156C305.45 81.3955 305.54 80.834 305.721 80.3311C305.901 79.8281 306.153 79.3984 306.475 79.042C306.797 78.6807 307.178 78.4048 307.618 78.2144C308.057 78.0239 308.533 77.9287 309.046 77.9287C309.612 77.9287 310.108 78.0239 310.533 78.2144C310.958 78.4048 311.309 78.6733 311.587 79.02C311.871 79.3618 312.081 79.7695 312.217 80.2432C312.359 80.7168 312.43 81.2393 312.43 81.8105V82.5649H306.307V81.2979H310.687V81.1587C310.677 80.8413 310.613 80.5435 310.496 80.2651C310.384 79.9868 310.21 79.7622 309.976 79.5913C309.742 79.4204 309.429 79.335 309.039 79.335C308.746 79.335 308.484 79.3984 308.255 79.5254C308.03 79.6475 307.842 79.8257 307.691 80.0601C307.54 80.2944 307.422 80.5776 307.339 80.9097C307.261 81.2368 307.222 81.6055 307.222 82.0156V82.3086C307.222 82.6553 307.269 82.9775 307.361 83.2754C307.459 83.5684 307.601 83.8247 307.786 84.0444C307.972 84.2642 308.196 84.4375 308.46 84.5645C308.724 84.6865 309.024 84.7476 309.361 84.7476C309.786 84.7476 310.164 84.6621 310.496 84.4912C310.828 84.3203 311.116 84.0786 311.36 83.7661L312.291 84.667C312.12 84.916 311.897 85.1553 311.624 85.3848C311.351 85.6094 311.016 85.7925 310.621 85.9341C310.23 86.0757 309.776 86.1465 309.258 86.1465ZM317.439 78.0752V79.3643H312.972V78.0752H317.439ZM314.261 76.1343H316.026V83.8101C316.026 84.0542 316.06 84.2422 316.128 84.374C316.202 84.501 316.302 84.5864 316.429 84.6304C316.556 84.6743 316.705 84.6963 316.875 84.6963C316.998 84.6963 317.115 84.689 317.227 84.6743C317.339 84.6597 317.43 84.645 317.498 84.6304L317.505 85.978C317.359 86.022 317.188 86.061 316.993 86.0952C316.802 86.1294 316.583 86.1465 316.333 86.1465C315.928 86.1465 315.569 86.0757 315.257 85.9341C314.944 85.7876 314.7 85.5508 314.524 85.2236C314.349 84.8965 314.261 84.4619 314.261 83.9199V76.1343ZM322.435 78.0752V79.3643H317.967V78.0752H322.435ZM319.256 76.1343H321.021V83.8101C321.021 84.0542 321.055 84.2422 321.124 84.374C321.197 84.501 321.297 84.5864 321.424 84.6304C321.551 84.6743 321.7 84.6963 321.871 84.6963C321.993 84.6963 322.11 84.689 322.222 84.6743C322.334 84.6597 322.425 84.645 322.493 84.6304L322.5 85.978C322.354 86.022 322.183 86.061 321.988 86.0952C321.797 86.1294 321.578 86.1465 321.329 86.1465C320.923 86.1465 320.564 86.0757 320.252 85.9341C319.939 85.7876 319.695 85.5508 319.52 85.2236C319.344 84.8965 319.256 84.4619 319.256 83.9199V76.1343ZM325.687 78.0752V86H323.914V78.0752H325.687ZM323.797 75.9951C323.797 75.7266 323.885 75.5044 324.061 75.3286C324.241 75.1479 324.49 75.0576 324.808 75.0576C325.12 75.0576 325.367 75.1479 325.547 75.3286C325.728 75.5044 325.818 75.7266 325.818 75.9951C325.818 76.2588 325.728 76.4785 325.547 76.6543C325.367 76.8301 325.12 76.918 324.808 76.918C324.49 76.918 324.241 76.8301 324.061 76.6543C323.885 76.4785 323.797 76.2588 323.797 75.9951ZM329.371 79.7671V86H327.605V78.0752H329.268L329.371 79.7671ZM329.056 81.7446L328.484 81.7373C328.489 81.1758 328.567 80.6606 328.719 80.1919C328.875 79.7231 329.09 79.3203 329.363 78.9834C329.642 78.6465 329.974 78.3877 330.359 78.207C330.745 78.0215 331.175 77.9287 331.648 77.9287C332.029 77.9287 332.374 77.9824 332.681 78.0898C332.994 78.1924 333.26 78.3608 333.479 78.5952C333.704 78.8296 333.875 79.1348 333.992 79.5107C334.109 79.8818 334.168 80.3384 334.168 80.8804V86H332.396V80.873C332.396 80.4922 332.339 80.1919 332.227 79.9722C332.12 79.7476 331.961 79.5889 331.751 79.4961C331.546 79.3984 331.29 79.3496 330.982 79.3496C330.679 79.3496 330.408 79.4131 330.169 79.54C329.93 79.667 329.727 79.8403 329.561 80.0601C329.4 80.2798 329.275 80.5337 329.188 80.8218C329.1 81.1099 329.056 81.4175 329.056 81.7446ZM341.045 78.0752H342.649V85.7803C342.649 86.4932 342.498 87.0986 342.195 87.5967C341.893 88.0947 341.47 88.4731 340.928 88.7319C340.386 88.9956 339.759 89.1274 339.046 89.1274C338.743 89.1274 338.406 89.0835 338.035 88.9956C337.669 88.9077 337.312 88.7661 336.966 88.5708C336.624 88.3804 336.338 88.1289 336.109 87.8164L336.937 86.7764C337.22 87.1133 337.532 87.3599 337.874 87.5161C338.216 87.6724 338.575 87.7505 338.951 87.7505C339.356 87.7505 339.7 87.6748 339.983 87.5234C340.271 87.377 340.494 87.1597 340.65 86.8716C340.806 86.5835 340.884 86.2319 340.884 85.8169V79.8696L341.045 78.0752ZM335.662 82.1255V81.9717C335.662 81.3711 335.735 80.8242 335.882 80.3311C336.028 79.833 336.238 79.4058 336.512 79.0493C336.785 78.688 337.117 78.4121 337.508 78.2217C337.898 78.0264 338.34 77.9287 338.833 77.9287C339.346 77.9287 339.783 78.0215 340.145 78.207C340.511 78.3926 340.816 78.6587 341.06 79.0054C341.304 79.3472 341.495 79.7573 341.631 80.2358C341.773 80.7095 341.878 81.2368 341.946 81.8179V82.3086C341.883 82.875 341.775 83.3926 341.624 83.8613C341.473 84.3301 341.272 84.7354 341.023 85.0771C340.774 85.4189 340.467 85.6826 340.101 85.8682C339.739 86.0537 339.312 86.1465 338.819 86.1465C338.335 86.1465 337.898 86.0464 337.508 85.8462C337.122 85.646 336.79 85.3652 336.512 85.0039C336.238 84.6426 336.028 84.2178 335.882 83.7295C335.735 83.2363 335.662 82.7017 335.662 82.1255ZM337.427 81.9717V82.1255C337.427 82.4868 337.461 82.8237 337.53 83.1362C337.603 83.4487 337.713 83.7246 337.859 83.9639C338.011 84.1982 338.201 84.3838 338.431 84.5205C338.665 84.6523 338.941 84.7183 339.258 84.7183C339.673 84.7183 340.013 84.6304 340.276 84.4546C340.545 84.2788 340.75 84.042 340.892 83.7441C341.038 83.4414 341.141 83.1045 341.199 82.7334V81.4077C341.17 81.1196 341.109 80.8511 341.016 80.6021C340.928 80.353 340.809 80.1357 340.657 79.9502C340.506 79.7598 340.315 79.6133 340.086 79.5107C339.856 79.4033 339.585 79.3496 339.273 79.3496C338.956 79.3496 338.68 79.418 338.445 79.5547C338.211 79.6914 338.018 79.8794 337.867 80.1187C337.72 80.3579 337.61 80.6362 337.537 80.9536C337.464 81.271 337.427 81.6104 337.427 81.9717ZM348.926 83.854C348.926 83.6782 348.882 83.5195 348.794 83.3779C348.707 83.2314 348.538 83.0996 348.289 82.9824C348.045 82.8652 347.684 82.7578 347.205 82.6602C346.785 82.5674 346.399 82.4575 346.048 82.3306C345.701 82.1987 345.403 82.04 345.154 81.8545C344.905 81.6689 344.712 81.4492 344.576 81.1953C344.439 80.9414 344.371 80.6484 344.371 80.3164C344.371 79.9941 344.441 79.689 344.583 79.4009C344.725 79.1128 344.927 78.8589 345.191 78.6392C345.455 78.4194 345.774 78.2461 346.15 78.1191C346.531 77.9922 346.956 77.9287 347.425 77.9287C348.089 77.9287 348.658 78.041 349.131 78.2656C349.61 78.4854 349.976 78.7856 350.23 79.1665C350.484 79.5425 350.611 79.9673 350.611 80.4409H348.846C348.846 80.231 348.792 80.0356 348.685 79.855C348.582 79.6694 348.426 79.5205 348.216 79.4082C348.006 79.291 347.742 79.2324 347.425 79.2324C347.122 79.2324 346.871 79.2812 346.67 79.3789C346.475 79.4717 346.329 79.5938 346.231 79.7451C346.138 79.8965 346.092 80.0625 346.092 80.2432C346.092 80.375 346.116 80.4946 346.165 80.6021C346.219 80.7046 346.307 80.7998 346.429 80.8877C346.551 80.9707 346.717 81.0488 346.927 81.1221C347.142 81.1953 347.41 81.2661 347.732 81.3345C348.338 81.4614 348.858 81.625 349.292 81.8252C349.732 82.0205 350.069 82.2744 350.303 82.5869C350.538 82.8945 350.655 83.2852 350.655 83.7588C350.655 84.1104 350.579 84.4326 350.428 84.7256C350.281 85.0137 350.066 85.2651 349.783 85.48C349.5 85.6899 349.161 85.8535 348.765 85.9707C348.375 86.0879 347.935 86.1465 347.447 86.1465C346.729 86.1465 346.121 86.0195 345.623 85.7656C345.125 85.5068 344.747 85.1772 344.488 84.7769C344.234 84.3716 344.107 83.9517 344.107 83.5171H345.813C345.833 83.8442 345.923 84.1055 346.084 84.3008C346.25 84.4912 346.456 84.6304 346.7 84.7183C346.949 84.8013 347.205 84.8428 347.469 84.8428C347.786 84.8428 348.052 84.8013 348.267 84.7183C348.482 84.6304 348.646 84.5132 348.758 84.3667C348.87 84.2153 348.926 84.0444 348.926 83.854Z" fill="#505050"/>
<rect width="126" height="80" transform="translate(368 41)" fill="white" fill-opacity="0.01"/>
<path d="M392 74C388.15 74 385 77.15 385 81C385 84.85 388.15 88 392 88C395.85 88 399 84.85 399 81C399 77.15 395.85 74 392 74ZM392 86.6C390.88 86.6 389.9 85.62 389.9 84.5C389.9 83.38 390.88 82.4 392 82.4C393.12 82.4 394.1 83.38 394.1 84.5C394.1 85.62 393.12 86.6 392 86.6ZM395.78 83.52C395.71 83.8 395.64 84.08 395.5 84.36C395.43 83.45 395.08 82.68 394.45 82.05C393.82 81.35 392.91 81 392 81C391.3 81 390.6 81.21 390.04 81.56C389.48 81.91 388.99 82.47 388.78 83.1C388.64 83.52 388.5 83.94 388.5 84.36C388.29 83.87 388.15 83.31 388.15 82.75C388.15 81.7 388.57 80.72 389.27 80.02C389.97 79.32 390.95 78.9 392 78.9C392.77 78.9 393.54 79.11 394.17 79.53C394.8 79.95 395.29 80.58 395.57 81.28C395.85 81.98 395.92 82.75 395.78 83.52ZM397.18 82.96C397.18 82.89 397.18 82.82 397.18 82.75C397.18 81.35 396.62 80.02 395.64 79.04C394.66 78.06 393.4 77.5 392 77.5C390.95 77.5 389.97 77.78 389.06 78.41C388.22 78.97 387.52 79.81 387.1 80.79C386.82 81.49 386.68 82.26 386.68 83.03C386.54 82.33 386.4 81.7 386.4 81C386.4 79.53 386.96 78.06 388.01 77.01C389.06 75.96 390.53 75.4 392 75.4C393.12 75.4 394.17 75.75 395.08 76.31C395.99 76.94 396.69 77.78 397.11 78.83C397.6 79.88 397.74 81 397.46 82.12C397.39 82.4 397.32 82.68 397.18 82.96Z" fill="#1A1A1A"/>
<path d="M410.694 83.2534C410.694 83.0337 410.66 82.8384 410.592 82.6675C410.528 82.4966 410.414 82.3403 410.248 82.1987C410.082 82.0571 409.847 81.9204 409.544 81.7886C409.247 81.6519 408.866 81.5127 408.402 81.3711C407.894 81.2148 407.425 81.0415 406.996 80.8511C406.571 80.6558 406.2 80.4312 405.882 80.1772C405.565 79.9185 405.318 79.623 405.143 79.291C404.967 78.9541 404.879 78.5659 404.879 78.1265C404.879 77.6919 404.969 77.2964 405.15 76.9399C405.335 76.5835 405.597 76.2759 405.934 76.0171C406.275 75.7534 406.678 75.5508 407.142 75.4092C407.606 75.2627 408.119 75.1895 408.68 75.1895C409.471 75.1895 410.152 75.3359 410.724 75.6289C411.3 75.9219 411.742 76.3149 412.049 76.8081C412.362 77.3013 412.518 77.8457 412.518 78.4414H410.694C410.694 78.0898 410.619 77.7798 410.467 77.5112C410.321 77.2378 410.096 77.0229 409.793 76.8667C409.496 76.7104 409.117 76.6323 408.658 76.6323C408.224 76.6323 407.862 76.6982 407.574 76.8301C407.286 76.9619 407.071 77.1401 406.93 77.3647C406.788 77.5894 406.717 77.8433 406.717 78.1265C406.717 78.3267 406.764 78.5098 406.856 78.6758C406.949 78.8369 407.091 78.9883 407.281 79.1299C407.472 79.2666 407.711 79.396 407.999 79.5181C408.287 79.6401 408.626 79.7573 409.017 79.8696C409.608 80.0454 410.123 80.2407 410.562 80.4556C411.002 80.6655 411.368 80.9048 411.661 81.1733C411.954 81.4419 412.174 81.7471 412.32 82.0889C412.467 82.4258 412.54 82.8091 412.54 83.2388C412.54 83.688 412.45 84.0933 412.269 84.4546C412.088 84.811 411.83 85.1162 411.493 85.3701C411.161 85.6191 410.76 85.812 410.292 85.9487C409.828 86.0806 409.31 86.1465 408.739 86.1465C408.226 86.1465 407.721 86.0781 407.223 85.9414C406.729 85.8047 406.28 85.5972 405.875 85.3188C405.47 85.0356 405.147 84.6841 404.908 84.2642C404.669 83.8394 404.549 83.3438 404.549 82.7773H406.388C406.388 83.124 406.446 83.4194 406.563 83.6636C406.686 83.9077 406.854 84.1079 407.069 84.2642C407.284 84.4155 407.533 84.5278 407.816 84.6011C408.104 84.6743 408.412 84.7109 408.739 84.7109C409.168 84.7109 409.527 84.6499 409.815 84.5278C410.108 84.4058 410.328 84.2349 410.475 84.0151C410.621 83.7954 410.694 83.5415 410.694 83.2534ZM415.755 79.6865V86H413.99V78.0752H415.653L415.755 79.6865ZM415.47 81.7446L414.869 81.7373C414.869 81.1904 414.938 80.6851 415.074 80.2212C415.211 79.7573 415.411 79.3545 415.675 79.0127C415.938 78.666 416.266 78.3999 416.656 78.2144C417.052 78.0239 417.508 77.9287 418.026 77.9287C418.387 77.9287 418.717 77.9824 419.015 78.0898C419.317 78.1924 419.579 78.356 419.798 78.5806C420.023 78.8052 420.194 79.0933 420.311 79.4448C420.433 79.7964 420.494 80.2212 420.494 80.7192V86H418.729V80.873C418.729 80.4873 418.67 80.1846 418.553 79.9648C418.441 79.7451 418.277 79.5889 418.062 79.4961C417.853 79.3984 417.601 79.3496 417.308 79.3496C416.976 79.3496 416.693 79.4131 416.458 79.54C416.229 79.667 416.041 79.8403 415.895 80.0601C415.748 80.2798 415.641 80.5337 415.572 80.8218C415.504 81.1099 415.47 81.4175 415.47 81.7446ZM420.384 81.2759L419.557 81.459C419.557 80.9805 419.623 80.5288 419.754 80.104C419.891 79.6743 420.089 79.2983 420.348 78.9761C420.611 78.6489 420.936 78.3926 421.322 78.207C421.708 78.0215 422.149 77.9287 422.647 77.9287C423.053 77.9287 423.414 77.9849 423.731 78.0972C424.054 78.2046 424.327 78.3755 424.552 78.6099C424.776 78.8442 424.947 79.1494 425.064 79.5254C425.182 79.8965 425.24 80.3457 425.24 80.873V86H423.468V80.8657C423.468 80.4653 423.409 80.1553 423.292 79.9355C423.18 79.7158 423.019 79.5645 422.809 79.4814C422.599 79.3936 422.347 79.3496 422.054 79.3496C421.781 79.3496 421.539 79.4009 421.329 79.5034C421.124 79.6011 420.951 79.7402 420.809 79.9209C420.667 80.0967 420.56 80.2993 420.487 80.5288C420.418 80.7583 420.384 81.0073 420.384 81.2759ZM431.825 84.1323V78.0752H433.597V86H431.927L431.825 84.1323ZM432.074 82.4844L432.667 82.4697C432.667 83.002 432.608 83.4927 432.491 83.9419C432.374 84.3862 432.193 84.7744 431.949 85.1064C431.705 85.4336 431.393 85.6899 431.012 85.8755C430.631 86.0562 430.174 86.1465 429.642 86.1465C429.256 86.1465 428.902 86.0903 428.58 85.978C428.258 85.8657 427.979 85.6924 427.745 85.458C427.516 85.2236 427.337 84.9185 427.21 84.5425C427.083 84.1665 427.02 83.7173 427.02 83.1948V78.0752H428.785V83.2095C428.785 83.4976 428.819 83.7393 428.888 83.9346C428.956 84.125 429.049 84.2788 429.166 84.396C429.283 84.5132 429.42 84.5962 429.576 84.645C429.732 84.6938 429.898 84.7183 430.074 84.7183C430.577 84.7183 430.973 84.6206 431.261 84.4253C431.554 84.2251 431.761 83.9565 431.883 83.6196C432.01 83.2827 432.074 82.9043 432.074 82.4844ZM439.852 83.854C439.852 83.6782 439.808 83.5195 439.72 83.3779C439.632 83.2314 439.464 83.0996 439.215 82.9824C438.971 82.8652 438.609 82.7578 438.131 82.6602C437.711 82.5674 437.325 82.4575 436.974 82.3306C436.627 82.1987 436.329 82.04 436.08 81.8545C435.831 81.6689 435.638 81.4492 435.501 81.1953C435.365 80.9414 435.296 80.6484 435.296 80.3164C435.296 79.9941 435.367 79.689 435.509 79.4009C435.65 79.1128 435.853 78.8589 436.117 78.6392C436.38 78.4194 436.7 78.2461 437.076 78.1191C437.457 77.9922 437.882 77.9287 438.351 77.9287C439.015 77.9287 439.583 78.041 440.057 78.2656C440.536 78.4854 440.902 78.7856 441.156 79.1665C441.41 79.5425 441.537 79.9673 441.537 80.4409H439.771C439.771 80.231 439.718 80.0356 439.61 79.855C439.508 79.6694 439.352 79.5205 439.142 79.4082C438.932 79.291 438.668 79.2324 438.351 79.2324C438.048 79.2324 437.796 79.2812 437.596 79.3789C437.401 79.4717 437.254 79.5938 437.157 79.7451C437.064 79.8965 437.018 80.0625 437.018 80.2432C437.018 80.375 437.042 80.4946 437.091 80.6021C437.145 80.7046 437.232 80.7998 437.354 80.8877C437.477 80.9707 437.643 81.0488 437.853 81.1221C438.067 81.1953 438.336 81.2661 438.658 81.3345C439.264 81.4614 439.784 81.625 440.218 81.8252C440.658 82.0205 440.995 82.2744 441.229 82.5869C441.463 82.8945 441.581 83.2852 441.581 83.7588C441.581 84.1104 441.505 84.4326 441.354 84.7256C441.207 85.0137 440.992 85.2651 440.709 85.48C440.426 85.6899 440.086 85.8535 439.691 85.9707C439.3 86.0879 438.861 86.1465 438.373 86.1465C437.655 86.1465 437.047 86.0195 436.549 85.7656C436.051 85.5068 435.672 85.1772 435.414 84.7769C435.16 84.3716 435.033 83.9517 435.033 83.5171H436.739C436.759 83.8442 436.849 84.1055 437.01 84.3008C437.176 84.4912 437.381 84.6304 437.625 84.7183C437.875 84.8013 438.131 84.8428 438.395 84.8428C438.712 84.8428 438.978 84.8013 439.193 84.7183C439.408 84.6304 439.571 84.5132 439.684 84.3667C439.796 84.2153 439.852 84.0444 439.852 83.854ZM444.869 74.75V86H443.111V74.75H444.869ZM444.562 81.7446L443.99 81.7373C443.995 81.1904 444.071 80.6851 444.217 80.2212C444.369 79.7573 444.579 79.3545 444.847 79.0127C445.121 78.666 445.448 78.3999 445.829 78.2144C446.209 78.0239 446.632 77.9287 447.096 77.9287C447.486 77.9287 447.838 77.9824 448.15 78.0898C448.468 78.1973 448.741 78.3706 448.971 78.6099C449.2 78.8442 449.374 79.1519 449.491 79.5327C449.613 79.9087 449.674 80.3677 449.674 80.9097V86H447.901V80.895C447.901 80.5142 447.845 80.2114 447.733 79.9868C447.625 79.7622 447.467 79.6011 447.257 79.5034C447.047 79.4009 446.791 79.3496 446.488 79.3496C446.17 79.3496 445.89 79.4131 445.646 79.54C445.406 79.667 445.206 79.8403 445.045 80.0601C444.884 80.2798 444.762 80.5337 444.679 80.8218C444.601 81.1099 444.562 81.4175 444.562 81.7446ZM459.422 82.0229H456.646V80.5654H459.422C459.906 80.5654 460.296 80.4873 460.594 80.3311C460.892 80.1748 461.109 79.96 461.246 79.6865C461.388 79.4082 461.458 79.0908 461.458 78.7344C461.458 78.3975 461.388 78.0825 461.246 77.7896C461.109 77.4917 460.892 77.2524 460.594 77.0718C460.296 76.8911 459.906 76.8008 459.422 76.8008H457.21V86H455.372V75.3359H459.422C460.248 75.3359 460.948 75.4824 461.524 75.7754C462.105 76.0635 462.547 76.4639 462.85 76.9766C463.153 77.4844 463.304 78.0654 463.304 78.7197C463.304 79.4082 463.153 79.999 462.85 80.4922C462.547 80.9854 462.105 81.3638 461.524 81.6274C460.948 81.8911 460.248 82.0229 459.422 82.0229ZM466.549 79.584V86H464.784V78.0752H466.468L466.549 79.584ZM468.973 78.0239L468.958 79.6646C468.851 79.645 468.734 79.6304 468.607 79.6206C468.485 79.6108 468.363 79.606 468.241 79.606C467.938 79.606 467.672 79.6499 467.442 79.7378C467.213 79.8208 467.02 79.9429 466.864 80.104C466.712 80.2603 466.595 80.4507 466.512 80.6753C466.429 80.8999 466.38 81.1514 466.366 81.4297L465.963 81.459C465.963 80.9609 466.012 80.4995 466.109 80.0747C466.207 79.6499 466.354 79.2764 466.549 78.9541C466.749 78.6318 466.998 78.3804 467.296 78.1997C467.599 78.019 467.948 77.9287 468.343 77.9287C468.451 77.9287 468.565 77.9385 468.688 77.958C468.814 77.9775 468.91 77.9995 468.973 78.0239ZM469.552 82.1255V81.957C469.552 81.3857 469.635 80.856 469.801 80.3677C469.967 79.8745 470.206 79.4473 470.519 79.0859C470.836 78.7197 471.222 78.4365 471.676 78.2363C472.135 78.0312 472.652 77.9287 473.229 77.9287C473.81 77.9287 474.327 78.0312 474.781 78.2363C475.24 78.4365 475.628 78.7197 475.946 79.0859C476.263 79.4473 476.505 79.8745 476.671 80.3677C476.837 80.856 476.92 81.3857 476.92 81.957V82.1255C476.92 82.6968 476.837 83.2266 476.671 83.7148C476.505 84.2031 476.263 84.6304 475.946 84.9966C475.628 85.3579 475.243 85.6411 474.789 85.8462C474.334 86.0464 473.819 86.1465 473.243 86.1465C472.662 86.1465 472.142 86.0464 471.683 85.8462C471.229 85.6411 470.843 85.3579 470.526 84.9966C470.208 84.6304 469.967 84.2031 469.801 83.7148C469.635 83.2266 469.552 82.6968 469.552 82.1255ZM471.317 81.957V82.1255C471.317 82.4819 471.354 82.8188 471.427 83.1362C471.5 83.4536 471.615 83.7319 471.771 83.9712C471.927 84.2104 472.127 84.3984 472.372 84.5352C472.616 84.6719 472.906 84.7402 473.243 84.7402C473.57 84.7402 473.854 84.6719 474.093 84.5352C474.337 84.3984 474.537 84.2104 474.693 83.9712C474.85 83.7319 474.964 83.4536 475.038 83.1362C475.116 82.8188 475.155 82.4819 475.155 82.1255V81.957C475.155 81.6055 475.116 81.2734 475.038 80.9609C474.964 80.6436 474.847 80.3628 474.686 80.1187C474.53 79.8745 474.33 79.6841 474.085 79.5474C473.846 79.4058 473.561 79.335 473.229 79.335C472.896 79.335 472.608 79.4058 472.364 79.5474C472.125 79.6841 471.927 79.8745 471.771 80.1187C471.615 80.3628 471.5 80.6436 471.427 80.9609C471.354 81.2734 471.317 81.6055 471.317 81.957Z" fill="#505050"/>
<rect width="119" height="80" transform="translate(494 41)" fill="white" fill-opacity="0.01"/>
<path d="M518 74C521.866 74 525 77.1336 525 81C525 84.8664 521.866 88 518 88C514.134 88 511 84.8664 511 81C511 77.1336 514.134 74 518 74ZM518 86.6875C518.202 86.6875 518.714 86.4906 519.302 85.3641C519.542 84.8801 519.725 84.2922 519.903 83.625H516.097C516.25 84.2922 516.458 84.8801 516.698 85.3641C517.262 86.4906 517.798 86.6875 518 86.6875ZM515.881 82.3125H520.119C520.163 81.8941 520.188 81.4539 520.188 81C520.188 80.5461 520.163 80.1059 520.119 79.6875H515.881C515.837 80.1059 515.812 80.5461 515.812 81C515.812 81.4539 515.837 81.8941 515.881 82.3125ZM519.903 78.375C519.725 77.7078 519.542 77.1199 519.302 76.6373C518.714 75.5099 518.202 75.3125 518 75.3125C517.798 75.3125 517.262 75.5099 516.698 76.6373C516.458 77.1199 516.25 77.7078 516.097 78.375H519.903ZM521.44 79.6875C521.478 80.1113 521.5 80.5516 521.5 81C521.5 81.4484 521.478 81.8887 521.44 82.3125H523.534C523.636 81.8914 523.688 81.4512 523.688 81C523.688 80.5488 523.636 80.1086 523.534 79.6875H521.44ZM520.354 75.8214C520.74 76.5227 521.046 77.3934 521.246 78.375H523.048C522.463 77.2512 521.511 76.3483 520.354 75.8214ZM515.646 75.8214C514.489 76.3483 513.539 77.2512 512.953 78.375H514.754C514.954 77.3934 515.26 76.5227 515.646 75.8214ZM512.312 81C512.312 81.4512 512.365 81.8914 512.465 82.3125H514.56C514.522 81.8887 514.5 81.4484 514.5 81C514.5 80.5516 514.522 80.1113 514.56 79.6875H512.465C512.365 80.1086 512.312 80.5488 512.312 81ZM523.048 83.625H521.246C521.046 84.6066 520.74 85.4762 520.354 86.1789C521.511 85.6512 522.463 84.7488 523.048 83.625ZM514.754 83.625H512.953C513.539 84.7488 514.489 85.6512 515.646 86.1789C515.26 85.4762 514.954 84.6066 514.754 83.625Z" fill="#505050"/>
<path d="M537.383 82.5283H539.214C539.155 83.2266 538.96 83.8491 538.628 84.396C538.296 84.938 537.83 85.3652 537.229 85.6777C536.628 85.9902 535.898 86.1465 535.039 86.1465C534.38 86.1465 533.787 86.0293 533.259 85.7949C532.732 85.5557 532.28 85.2188 531.904 84.7842C531.528 84.3447 531.24 83.8149 531.04 83.1948C530.845 82.5747 530.747 81.8813 530.747 81.1147V80.2285C530.747 79.4619 530.847 78.7686 531.047 78.1484C531.252 77.5283 531.545 76.9985 531.926 76.5591C532.307 76.1147 532.764 75.7754 533.296 75.541C533.833 75.3066 534.436 75.1895 535.105 75.1895C535.955 75.1895 536.672 75.3457 537.258 75.6582C537.844 75.9707 538.298 76.4028 538.621 76.9546C538.948 77.5063 539.148 78.1387 539.221 78.8516H537.39C537.341 78.3926 537.234 77.9995 537.068 77.6724C536.907 77.3452 536.667 77.0962 536.35 76.9253C536.033 76.7495 535.618 76.6616 535.105 76.6616C534.685 76.6616 534.319 76.7397 534.006 76.896C533.694 77.0522 533.433 77.2817 533.223 77.5845C533.013 77.8872 532.854 78.2607 532.747 78.7051C532.644 79.1445 532.593 79.6475 532.593 80.2139V81.1147C532.593 81.6519 532.639 82.1401 532.732 82.5796C532.83 83.0142 532.976 83.3877 533.171 83.7002C533.372 84.0127 533.625 84.2544 533.933 84.4253C534.241 84.5962 534.609 84.6816 535.039 84.6816C535.562 84.6816 535.984 84.5986 536.306 84.4326C536.633 84.2666 536.88 84.0249 537.046 83.7075C537.217 83.3853 537.329 82.9922 537.383 82.5283ZM543.982 86H541.704L541.719 84.5425H543.982C544.641 84.5425 545.193 84.3984 545.637 84.1104C546.086 83.8223 546.423 83.4097 546.648 82.8726C546.877 82.3354 546.992 81.6958 546.992 80.9536V80.375C546.992 79.7988 546.926 79.2886 546.794 78.8442C546.667 78.3999 546.477 78.0264 546.223 77.7236C545.974 77.4209 545.667 77.1914 545.3 77.0352C544.939 76.8789 544.521 76.8008 544.048 76.8008H541.66V75.3359H544.048C544.756 75.3359 545.403 75.4556 545.989 75.6948C546.575 75.9292 547.08 76.2686 547.505 76.7129C547.935 77.1572 548.264 77.6895 548.494 78.3096C548.723 78.9297 548.838 79.623 548.838 80.3896V80.9536C548.838 81.7202 548.723 82.4136 548.494 83.0337C548.264 83.6538 547.935 84.186 547.505 84.6304C547.075 85.0698 546.562 85.4092 545.967 85.6484C545.376 85.8828 544.714 86 543.982 86ZM542.722 75.3359V86H540.884V75.3359H542.722ZM559.143 75.3359V86H557.305L552.522 78.3608V86H550.684V75.3359H552.522L557.319 82.9897V75.3359H559.143Z" fill="#505050"/>
<path d="M576.801 81.4658H574.989V80.3232H576.801C577.081 80.3232 577.308 80.2777 577.484 80.1865C577.66 80.0921 577.789 79.9619 577.87 79.7959C577.951 79.6299 577.992 79.4427 577.992 79.2344C577.992 79.0228 577.951 78.8258 577.87 78.6436C577.789 78.4613 577.66 78.3148 577.484 78.2041C577.308 78.0934 577.081 78.0381 576.801 78.0381H575.497V84H574.032V76.8906H576.801C577.357 76.8906 577.834 76.9915 578.231 77.1934C578.632 77.3919 578.938 77.667 579.149 78.0186C579.361 78.3701 579.467 78.7721 579.467 79.2246C579.467 79.6836 579.361 80.0807 579.149 80.416C578.938 80.7513 578.632 81.0101 578.231 81.1924C577.834 81.3747 577.357 81.4658 576.801 81.4658ZM581.596 79.8691V84H580.189V78.7168H581.513L581.596 79.8691ZM583.188 78.6826L583.163 79.9863C583.095 79.9766 583.012 79.9684 582.914 79.9619C582.82 79.9521 582.733 79.9473 582.655 79.9473C582.457 79.9473 582.284 79.9733 582.138 80.0254C581.994 80.0742 581.874 80.1475 581.776 80.2451C581.682 80.3428 581.61 80.4616 581.562 80.6016C581.516 80.7415 581.49 80.901 581.483 81.0801L581.2 80.9922C581.2 80.6504 581.234 80.3363 581.303 80.0498C581.371 79.7601 581.47 79.5078 581.601 79.293C581.734 79.0781 581.897 78.9121 582.089 78.7949C582.281 78.6777 582.501 78.6191 582.748 78.6191C582.826 78.6191 582.906 78.6257 582.987 78.6387C583.069 78.6484 583.135 78.6631 583.188 78.6826ZM583.28 81.4121V81.3096C583.28 80.9222 583.336 80.5658 583.446 80.2402C583.557 79.9115 583.718 79.6266 583.93 79.3857C584.141 79.1449 584.402 78.9577 584.711 78.8242C585.02 78.6875 585.375 78.6191 585.776 78.6191C586.176 78.6191 586.532 78.6875 586.845 78.8242C587.157 78.9577 587.419 79.1449 587.631 79.3857C587.846 79.6266 588.009 79.9115 588.119 80.2402C588.23 80.5658 588.285 80.9222 588.285 81.3096V81.4121C588.285 81.7962 588.23 82.1527 588.119 82.4814C588.009 82.807 587.846 83.0918 587.631 83.3359C587.419 83.5768 587.159 83.764 586.85 83.8975C586.541 84.0309 586.186 84.0977 585.785 84.0977C585.385 84.0977 585.029 84.0309 584.716 83.8975C584.407 83.764 584.145 83.5768 583.93 83.3359C583.718 83.0918 583.557 82.807 583.446 82.4814C583.336 82.1527 583.28 81.7962 583.28 81.4121ZM584.687 81.3096V81.4121C584.687 81.6335 584.706 81.8402 584.745 82.0322C584.784 82.2243 584.846 82.3936 584.931 82.54C585.019 82.6833 585.133 82.7956 585.273 82.877C585.413 82.9583 585.584 82.999 585.785 82.999C585.981 82.999 586.148 82.9583 586.288 82.877C586.428 82.7956 586.541 82.6833 586.625 82.54C586.71 82.3936 586.772 82.2243 586.811 82.0322C586.853 81.8402 586.874 81.6335 586.874 81.4121V81.3096C586.874 81.0947 586.853 80.8929 586.811 80.7041C586.772 80.512 586.708 80.3428 586.62 80.1963C586.536 80.0465 586.423 79.9294 586.283 79.8447C586.143 79.7601 585.974 79.7178 585.776 79.7178C585.577 79.7178 585.408 79.7601 585.268 79.8447C585.131 79.9294 585.019 80.0465 584.931 80.1963C584.846 80.3428 584.784 80.512 584.745 80.7041C584.706 80.8929 584.687 81.0947 584.687 81.3096Z" fill="#1A1A1A"/>
<rect x="565.5" y="73.5" width="31" height="15" rx="7.5" stroke="#1A1A1A"/>
<mask id="path-14-inside-2_3378_49376" fill="white">
<path d="M613 41H779V121H613V41Z"/>
</mask>
<path d="M613 41H779V121H613V41Z" fill="white"/>
<path d="M634.164 77.3571C633.438 77.3571 632.849 77.9328 632.849 78.6429C632.849 79.3529 633.438 79.9286 634.164 79.9286C634.89 79.9286 635.479 79.3529 635.479 78.6429C635.479 77.9328 634.89 77.3571 634.164 77.3571ZM642.247 75H631.729C630.785 75 630 75.7674 630 76.7143V85.2857C630 86.2326 630.785 87 631.728 87H642.247C643.215 87 644 86.2326 644 85.2857V76.7143C644 75.7674 643.239 75 642.247 75ZM642.685 85.1062L638.938 80.1268C638.87 80.0036 638.714 79.9286 638.547 79.9286C638.379 79.9286 638.223 80.0027 638.13 80.1262L635.21 83.986L634.194 82.7512C634.1 82.6366 633.949 82.5688 633.789 82.5688C633.629 82.5688 633.479 82.6366 633.385 82.7512L631.316 85.264C631.316 85.2632 631.316 85.2648 631.316 85.264L631.315 76.7143C631.315 76.478 631.511 76.2857 631.753 76.2857H642.272C642.513 76.2857 642.71 76.478 642.71 76.7143V85.1062H642.685Z" fill="#0059FF"/>
<path d="M656.764 84.5425V86H651.41V84.5425H656.764ZM651.922 75.3359V86H650.084V75.3359H651.922ZM657.672 82.1255V81.957C657.672 81.3857 657.755 80.856 657.921 80.3677C658.087 79.8745 658.326 79.4473 658.639 79.0859C658.956 78.7197 659.342 78.4365 659.796 78.2363C660.255 78.0312 660.772 77.9287 661.349 77.9287C661.93 77.9287 662.447 78.0312 662.901 78.2363C663.36 78.4365 663.749 78.7197 664.066 79.0859C664.383 79.4473 664.625 79.8745 664.791 80.3677C664.957 80.856 665.04 81.3857 665.04 81.957V82.1255C665.04 82.6968 664.957 83.2266 664.791 83.7148C664.625 84.2031 664.383 84.6304 664.066 84.9966C663.749 85.3579 663.363 85.6411 662.909 85.8462C662.455 86.0464 661.939 86.1465 661.363 86.1465C660.782 86.1465 660.262 86.0464 659.803 85.8462C659.349 85.6411 658.963 85.3579 658.646 84.9966C658.329 84.6304 658.087 84.2031 657.921 83.7148C657.755 83.2266 657.672 82.6968 657.672 82.1255ZM659.437 81.957V82.1255C659.437 82.4819 659.474 82.8188 659.547 83.1362C659.62 83.4536 659.735 83.7319 659.891 83.9712C660.047 84.2104 660.248 84.3984 660.492 84.5352C660.736 84.6719 661.026 84.7402 661.363 84.7402C661.69 84.7402 661.974 84.6719 662.213 84.5352C662.457 84.3984 662.657 84.2104 662.813 83.9712C662.97 83.7319 663.084 83.4536 663.158 83.1362C663.236 82.8188 663.275 82.4819 663.275 82.1255V81.957C663.275 81.6055 663.236 81.2734 663.158 80.9609C663.084 80.6436 662.967 80.3628 662.806 80.1187C662.65 79.8745 662.45 79.6841 662.206 79.5474C661.966 79.4058 661.681 79.335 661.349 79.335C661.017 79.335 660.729 79.4058 660.484 79.5474C660.245 79.6841 660.047 79.8745 659.891 80.1187C659.735 80.3628 659.62 80.6436 659.547 80.9609C659.474 81.2734 659.437 81.6055 659.437 81.957ZM669.757 84.7402C670.045 84.7402 670.304 84.6841 670.533 84.5718C670.768 84.4546 670.956 84.2935 671.097 84.0884C671.244 83.8833 671.324 83.6465 671.339 83.3779H673.001C672.992 83.8906 672.84 84.3569 672.547 84.7769C672.254 85.1968 671.866 85.5312 671.383 85.7803C670.899 86.0244 670.365 86.1465 669.779 86.1465C669.173 86.1465 668.646 86.0439 668.197 85.8389C667.748 85.6289 667.374 85.3408 667.076 84.9746C666.778 84.6084 666.554 84.186 666.402 83.7075C666.256 83.229 666.183 82.7163 666.183 82.1694V81.9131C666.183 81.3662 666.256 80.8535 666.402 80.375C666.554 79.8916 666.778 79.4668 667.076 79.1006C667.374 78.7344 667.748 78.4487 668.197 78.2437C668.646 78.0337 669.171 77.9287 669.771 77.9287C670.406 77.9287 670.963 78.0557 671.441 78.3096C671.92 78.5586 672.296 78.9077 672.569 79.3569C672.848 79.8013 672.992 80.3188 673.001 80.9097H671.339C671.324 80.6167 671.251 80.353 671.119 80.1187C670.992 79.8794 670.812 79.689 670.577 79.5474C670.348 79.4058 670.072 79.335 669.75 79.335C669.393 79.335 669.098 79.4082 668.863 79.5547C668.629 79.6963 668.446 79.8916 668.314 80.1406C668.182 80.3848 668.087 80.6606 668.028 80.9683C667.975 81.271 667.948 81.5859 667.948 81.9131V82.1694C667.948 82.4966 667.975 82.814 668.028 83.1216C668.082 83.4292 668.175 83.7051 668.307 83.9492C668.443 84.1885 668.629 84.3813 668.863 84.5278C669.098 84.6694 669.396 84.7402 669.757 84.7402ZM678.824 84.4106V80.6313C678.824 80.3481 678.773 80.104 678.67 79.8989C678.568 79.6938 678.412 79.5352 678.202 79.4229C677.997 79.3105 677.738 79.2544 677.425 79.2544C677.137 79.2544 676.888 79.3032 676.678 79.4009C676.468 79.4985 676.305 79.6304 676.188 79.7964C676.07 79.9624 676.012 80.1504 676.012 80.3604H674.254C674.254 80.0479 674.33 79.7451 674.481 79.4521C674.632 79.1592 674.852 78.8979 675.14 78.6685C675.428 78.439 675.772 78.2583 676.173 78.1265C676.573 77.9946 677.022 77.9287 677.521 77.9287C678.116 77.9287 678.644 78.0288 679.103 78.229C679.566 78.4292 679.93 78.7319 680.194 79.1372C680.462 79.5376 680.597 80.0405 680.597 80.646V84.1689C680.597 84.5303 680.621 84.855 680.67 85.1431C680.724 85.4263 680.799 85.6729 680.897 85.8828V86H679.088C679.005 85.8096 678.939 85.5679 678.89 85.2749C678.846 84.9771 678.824 84.689 678.824 84.4106ZM679.081 81.1807L679.095 82.272H677.828C677.501 82.272 677.213 82.3037 676.964 82.3672C676.715 82.4258 676.507 82.5137 676.341 82.6309C676.175 82.748 676.051 82.8896 675.968 83.0557C675.885 83.2217 675.843 83.4097 675.843 83.6196C675.843 83.8296 675.892 84.0225 675.99 84.1982C676.087 84.3691 676.229 84.5034 676.415 84.6011C676.605 84.6987 676.834 84.7476 677.103 84.7476C677.464 84.7476 677.779 84.6743 678.048 84.5278C678.321 84.3765 678.536 84.1934 678.692 83.9785C678.849 83.7588 678.932 83.5513 678.941 83.356L679.513 84.1396C679.454 84.3398 679.354 84.5547 679.212 84.7842C679.071 85.0137 678.885 85.2334 678.656 85.4434C678.431 85.6484 678.16 85.8169 677.843 85.9487C677.53 86.0806 677.169 86.1465 676.759 86.1465C676.241 86.1465 675.78 86.0439 675.375 85.8389C674.969 85.6289 674.652 85.3481 674.422 84.9966C674.193 84.6401 674.078 84.2373 674.078 83.7881C674.078 83.3682 674.156 82.9971 674.312 82.6748C674.474 82.3477 674.708 82.0742 675.016 81.8545C675.328 81.6348 675.709 81.4688 676.158 81.3564C676.607 81.2393 677.12 81.1807 677.696 81.1807H679.081ZM684.332 74.75V86H682.56V74.75H684.332ZM692.85 83.605L694.974 75.3359H696.087L695.963 77.4673L693.692 86H692.535L692.85 83.605ZM691.261 75.3359L692.982 83.5391L693.136 86H691.905L689.437 75.3359H691.261ZM698.497 83.5171L700.196 75.3359H702.027L699.559 86H698.329L698.497 83.5171ZM696.52 75.3359L698.622 83.627L698.929 86H697.772L695.538 77.4673L695.421 75.3359H696.52ZM706.473 86.1465C705.887 86.1465 705.357 86.0513 704.884 85.8608C704.415 85.6655 704.015 85.3945 703.683 85.0479C703.355 84.7012 703.104 84.2935 702.928 83.8247C702.752 83.356 702.665 82.8506 702.665 82.3086V82.0156C702.665 81.3955 702.755 80.834 702.936 80.3311C703.116 79.8281 703.368 79.3984 703.69 79.042C704.012 78.6807 704.393 78.4048 704.833 78.2144C705.272 78.0239 705.748 77.9287 706.261 77.9287C706.827 77.9287 707.323 78.0239 707.748 78.2144C708.172 78.4048 708.524 78.6733 708.802 79.02C709.085 79.3618 709.295 79.7695 709.432 80.2432C709.574 80.7168 709.645 81.2393 709.645 81.8105V82.5649H703.521V81.2979H707.901V81.1587C707.892 80.8413 707.828 80.5435 707.711 80.2651C707.599 79.9868 707.425 79.7622 707.191 79.5913C706.957 79.4204 706.644 79.335 706.253 79.335C705.96 79.335 705.699 79.3984 705.47 79.5254C705.245 79.6475 705.057 79.8257 704.906 80.0601C704.754 80.2944 704.637 80.5776 704.554 80.9097C704.476 81.2368 704.437 81.6055 704.437 82.0156V82.3086C704.437 82.6553 704.483 82.9775 704.576 83.2754C704.674 83.5684 704.815 83.8247 705.001 84.0444C705.187 84.2642 705.411 84.4375 705.675 84.5645C705.938 84.6865 706.239 84.7476 706.576 84.7476C707 84.7476 707.379 84.6621 707.711 84.4912C708.043 84.3203 708.331 84.0786 708.575 83.7661L709.505 84.667C709.334 84.916 709.112 85.1553 708.839 85.3848C708.565 85.6094 708.231 85.7925 707.835 85.9341C707.445 86.0757 706.991 86.1465 706.473 86.1465ZM711.029 74.75H712.794V84.3081L712.625 86H711.029V74.75ZM717.965 81.9644V82.1182C717.965 82.7041 717.899 83.2437 717.767 83.7368C717.64 84.2251 717.445 84.6499 717.181 85.0112C716.922 85.3726 716.6 85.6533 716.214 85.8535C715.833 86.0488 715.392 86.1465 714.889 86.1465C714.396 86.1465 713.966 86.0537 713.6 85.8682C713.233 85.6826 712.926 85.4189 712.677 85.0771C712.433 84.7354 712.235 84.3276 712.083 83.854C711.932 83.3804 711.825 82.8579 711.761 82.2866V81.7959C711.825 81.2197 711.932 80.6973 712.083 80.2285C712.235 79.7549 712.433 79.3472 712.677 79.0054C712.926 78.6587 713.231 78.3926 713.592 78.207C713.958 78.0215 714.386 77.9287 714.874 77.9287C715.382 77.9287 715.829 78.0264 716.214 78.2217C716.605 78.417 716.93 78.6953 717.188 79.0566C717.447 79.4131 717.64 79.8379 717.767 80.3311C717.899 80.8242 717.965 81.3687 717.965 81.9644ZM716.2 82.1182V81.9644C716.2 81.6079 716.17 81.2734 716.112 80.9609C716.053 80.6436 715.956 80.3652 715.819 80.126C715.687 79.8867 715.506 79.6987 715.277 79.562C715.052 79.4204 714.771 79.3496 714.435 79.3496C714.122 79.3496 713.854 79.4033 713.629 79.5107C713.404 79.6182 713.216 79.7646 713.065 79.9502C712.914 80.1357 712.794 80.3506 712.706 80.5947C712.623 80.8389 712.567 81.1025 712.538 81.3857V82.7114C712.582 83.0776 712.674 83.4146 712.816 83.7222C712.962 84.0249 713.167 84.269 713.431 84.4546C713.695 84.6353 714.034 84.7256 714.449 84.7256C714.776 84.7256 715.052 84.6597 715.277 84.5278C715.501 84.396 715.68 84.2129 715.812 83.9785C715.948 83.7393 716.046 83.4609 716.104 83.1436C716.168 82.8262 716.2 82.4844 716.2 82.1182ZM721.231 79.5986V89.0469H719.466V78.0752H721.092L721.231 79.5986ZM726.395 81.9644V82.1182C726.395 82.6943 726.327 83.229 726.19 83.7222C726.058 84.2104 725.86 84.6377 725.597 85.0039C725.338 85.3652 725.018 85.646 724.637 85.8462C724.256 86.0464 723.817 86.1465 723.319 86.1465C722.826 86.1465 722.394 86.0562 722.022 85.8755C721.656 85.6899 721.346 85.4287 721.092 85.0918C720.838 84.7549 720.633 84.3594 720.477 83.9053C720.326 83.4463 720.218 82.9434 720.155 82.3965V81.8032C720.218 81.2222 720.326 80.6948 720.477 80.2212C720.633 79.7476 720.838 79.3398 721.092 78.998C721.346 78.6562 721.656 78.3926 722.022 78.207C722.389 78.0215 722.816 77.9287 723.304 77.9287C723.802 77.9287 724.244 78.0264 724.63 78.2217C725.016 78.4121 725.34 78.6855 725.604 79.042C725.868 79.3936 726.065 79.8184 726.197 80.3164C726.329 80.8096 726.395 81.3589 726.395 81.9644ZM724.63 82.1182V81.9644C724.63 81.5981 724.596 81.2588 724.527 80.9463C724.459 80.6289 724.352 80.3506 724.205 80.1113C724.059 79.8721 723.871 79.6865 723.641 79.5547C723.417 79.418 723.146 79.3496 722.828 79.3496C722.516 79.3496 722.247 79.4033 722.022 79.5107C721.798 79.6133 721.61 79.7573 721.458 79.9429C721.307 80.1284 721.19 80.3457 721.107 80.5947C721.024 80.8389 720.965 81.105 720.931 81.3931V82.814C720.99 83.1655 721.09 83.4878 721.231 83.7808C721.373 84.0737 721.573 84.3081 721.832 84.4839C722.096 84.6548 722.433 84.7402 722.843 84.7402C723.16 84.7402 723.431 84.6719 723.656 84.5352C723.88 84.3984 724.063 84.2104 724.205 83.9712C724.352 83.7271 724.459 83.4463 724.527 83.1289C724.596 82.8115 724.63 82.4746 724.63 82.1182Z" fill="#286EF1"/>
<path d="M742.801 81.4658H740.989V80.3232H742.801C743.081 80.3232 743.308 80.2777 743.484 80.1865C743.66 80.0921 743.789 79.9619 743.87 79.7959C743.951 79.6299 743.992 79.4427 743.992 79.2344C743.992 79.0228 743.951 78.8258 743.87 78.6436C743.789 78.4613 743.66 78.3148 743.484 78.2041C743.308 78.0934 743.081 78.0381 742.801 78.0381H741.497V84H740.032V76.8906H742.801C743.357 76.8906 743.834 76.9915 744.231 77.1934C744.632 77.3919 744.938 77.667 745.149 78.0186C745.361 78.3701 745.467 78.7721 745.467 79.2246C745.467 79.6836 745.361 80.0807 745.149 80.416C744.938 80.7513 744.632 81.0101 744.231 81.1924C743.834 81.3747 743.357 81.4658 742.801 81.4658ZM747.596 79.8691V84H746.189V78.7168H747.513L747.596 79.8691ZM749.188 78.6826L749.163 79.9863C749.095 79.9766 749.012 79.9684 748.914 79.9619C748.82 79.9521 748.733 79.9473 748.655 79.9473C748.457 79.9473 748.284 79.9733 748.138 80.0254C747.994 80.0742 747.874 80.1475 747.776 80.2451C747.682 80.3428 747.61 80.4616 747.562 80.6016C747.516 80.7415 747.49 80.901 747.483 81.0801L747.2 80.9922C747.2 80.6504 747.234 80.3363 747.303 80.0498C747.371 79.7601 747.47 79.5078 747.601 79.293C747.734 79.0781 747.897 78.9121 748.089 78.7949C748.281 78.6777 748.501 78.6191 748.748 78.6191C748.826 78.6191 748.906 78.6257 748.987 78.6387C749.069 78.6484 749.135 78.6631 749.188 78.6826ZM749.28 81.4121V81.3096C749.28 80.9222 749.336 80.5658 749.446 80.2402C749.557 79.9115 749.718 79.6266 749.93 79.3857C750.141 79.1449 750.402 78.9577 750.711 78.8242C751.02 78.6875 751.375 78.6191 751.776 78.6191C752.176 78.6191 752.532 78.6875 752.845 78.8242C753.157 78.9577 753.419 79.1449 753.631 79.3857C753.846 79.6266 754.009 79.9115 754.119 80.2402C754.23 80.5658 754.285 80.9222 754.285 81.3096V81.4121C754.285 81.7962 754.23 82.1527 754.119 82.4814C754.009 82.807 753.846 83.0918 753.631 83.3359C753.419 83.5768 753.159 83.764 752.85 83.8975C752.541 84.0309 752.186 84.0977 751.785 84.0977C751.385 84.0977 751.029 84.0309 750.716 83.8975C750.407 83.764 750.145 83.5768 749.93 83.3359C749.718 83.0918 749.557 82.807 749.446 82.4814C749.336 82.1527 749.28 81.7962 749.28 81.4121ZM750.687 81.3096V81.4121C750.687 81.6335 750.706 81.8402 750.745 82.0322C750.784 82.2243 750.846 82.3936 750.931 82.54C751.019 82.6833 751.133 82.7956 751.273 82.877C751.413 82.9583 751.584 82.999 751.785 82.999C751.981 82.999 752.148 82.9583 752.288 82.877C752.428 82.7956 752.541 82.6833 752.625 82.54C752.71 82.3936 752.772 82.2243 752.811 82.0322C752.853 81.8402 752.874 81.6335 752.874 81.4121V81.3096C752.874 81.0947 752.853 80.8929 752.811 80.7041C752.772 80.512 752.708 80.3428 752.62 80.1963C752.536 80.0465 752.423 79.9294 752.283 79.8447C752.143 79.7601 751.974 79.7178 751.776 79.7178C751.577 79.7178 751.408 79.7601 751.268 79.8447C751.131 79.9294 751.019 80.0465 750.931 80.1963C750.846 80.3428 750.784 80.512 750.745 80.7041C750.706 80.8929 750.687 81.0947 750.687 81.3096Z" fill="#1A1A1A"/>
<rect x="731.5" y="73.5" width="31" height="15" rx="7.5" stroke="#1A1A1A"/>
<path d="M779 117H613V125H779V117Z" fill="#286EF1" mask="url(#path-14-inside-2_3378_49376)"/>
<rect width="48" height="80" transform="translate(51 41)" fill="url(#paint0_linear_3378_49376)"/>
<path d="M78.35 88C78.0656 88 77.8141 87.9062 77.5953 87.7188L71.2953 81.7188C71.0984 81.5104 71 81.2708 71 81C71 80.7292 71.0984 80.4896 71.2953 80.2812L77.5953 74.2812C77.8141 74.0938 78.0656 74 78.35 74C78.6344 74 78.8859 74.0938 79.1047 74.2812C79.3016 74.4896 79.4 74.7292 79.4 75C79.4 75.2708 79.3016 75.5104 79.1047 75.7188L73.5266 81L79.1047 86.2812C79.3016 86.4896 79.4 86.7292 79.4 87C79.4 87.2708 79.3016 87.5104 79.1047 87.7188C78.8859 87.9062 78.6344 88 78.35 88Z" fill="#AAAAAA"/>
</g>
<path d="M51 41H779H51ZM779 122H51V120H779V122ZM51 121V41V121ZM779 41V121V41Z" fill="#E6E6E6" mask="url(#path-3-inside-1_3378_49376)"/>
</g>
<defs>
<filter id="filter0_ddd_3378_49376" x="-30" y="-4" width="890" height="337" filterUnits="userSpaceOnUse" color-interpolation-filters="sRGB">
<feFlood flood-opacity="0" result="BackgroundImageFix"/>
<feColorMatrix in="SourceAlpha" type="matrix" values="0 0 0 0 0 0 0 0 0 0 0 0 0 0 0 0 0 0 127 0" result="hardAlpha"/>
<feOffset dy="2.39404"/>
<feGaussianBlur stdDeviation="2.66004"/>
<feColorMatrix type="matrix" values="0 0 0 0 0 0 0 0 0 0 0 0 0 0 0 0 0 0 0.0201946 0"/>
<feBlend mode="normal" in2="BackgroundImageFix" result="effect1_dropShadow_3378_49376"/>
<feColorMatrix in="SourceAlpha" type="matrix" values="0 0 0 0 0 0 0 0 0 0 0 0 0 0 0 0 0 0 127 0" result="hardAlpha"/>
<feOffset dy="8.04107"/>
<feGaussianBlur stdDeviation="8.93452"/>
<feColorMatrix type="matrix" values="0 0 0 0 0 0 0 0 0 0 0 0 0 0 0 0 0 0 0.0298054 0"/>
<feBlend mode="normal" in2="effect1_dropShadow_3378_49376" result="effect2_dropShadow_3378_49376"/>
<feColorMatrix in="SourceAlpha" type="matrix" values="0 0 0 0 0 0 0 0 0 0 0 0 0 0 0 0 0 0 127 0" result="hardAlpha"/>
<feOffset dy="36"/>
<feGaussianBlur stdDeviation="40"/>
<feColorMatrix type="matrix" values="0 0 0 0 0 0 0 0 0 0 0 0 0 0 0 0 0 0 0.05 0"/>
<feBlend mode="normal" in2="effect2_dropShadow_3378_49376" result="effect3_dropShadow_3378_49376"/>
<feBlend mode="normal" in="SourceGraphic" in2="effect3_dropShadow_3378_49376" result="shape"/>
</filter>
<linearGradient id="paint0_linear_3378_49376" x1="-9.65157e-08" y1="4.44445" x2="48" y2="4.44445" gradientUnits="userSpaceOnUse">
<stop stop-color="white"/>
<stop offset="0.716264" stop-color="white"/>
<stop offset="1" stop-color="#F8F8F8" stop-opacity="0"/>
</linearGradient>
<clipPath id="clip0_3378_49376">
<rect width="828" height="257" fill="white"/>
</clipPath>
<clipPath id="clip1_3378_49376">
<path d="M51 45C51 42.7909 52.7909 41 55 41H775C777.209 41 779 42.7909 779 45V121H51V45Z" fill="white"/>
</clipPath>
</defs>
</svg>
