<svg width="800" height="275" viewBox="0 0 800 275" fill="none" xmlns="http://www.w3.org/2000/svg">
<g clip-path="url(#clip0_3378_49383)">
<rect width="800" height="275" rx="4" fill="#F8F8F8"/>
<g filter="url(#filter0_dddddd_3378_49383)">
<rect x="153" y="40" width="494" height="195" rx="8" fill="white"/>
</g>
<rect width="157" height="80" transform="translate(321 97)" fill="white" fill-opacity="0.01"/>
<path d="M342.276 137C342.276 135.526 343.471 134.375 345 134.375C346.504 134.375 347.724 135.526 347.724 137C347.724 138.449 346.504 139.625 345 139.625C343.471 139.625 342.276 138.449 342.276 137ZM345 135.688C344.248 135.688 343.638 136.275 343.638 137C343.638 137.725 344.248 138.312 345 138.312C345.752 138.312 346.362 137.725 346.362 137C346.362 136.275 345.752 135.688 345 135.688ZM346.053 130C346.683 130 347.231 130.415 347.378 131.005L347.6 131.892C347.841 132.006 348.071 132.135 348.289 132.277L349.2 132.019C349.804 131.847 350.451 132.096 350.766 132.621L351.819 134.378C352.131 134.903 352.032 135.567 351.578 135.986L350.888 136.593C350.897 136.743 350.903 136.871 350.903 137C350.903 137.129 350.897 137.257 350.888 137.383L351.578 138.014C352.032 138.433 352.131 139.097 351.819 139.622L350.766 141.378C350.451 141.903 349.804 142.152 349.2 141.982L348.289 141.722C348.071 141.864 347.841 141.993 347.6 142.108L347.378 142.996C347.231 143.584 346.683 144 346.053 144H343.947C343.317 144 342.77 143.584 342.622 142.996L342.401 142.108C342.16 141.993 341.93 141.864 341.711 141.722L340.775 141.982C340.197 142.152 339.55 141.903 339.235 141.378L338.183 139.622C337.868 139.097 337.967 138.433 338.423 138.014L339.111 137.383C339.102 137.257 339.098 137.129 339.098 136.975C339.098 136.871 339.102 136.743 339.111 136.593L338.423 135.986C337.967 135.567 337.868 134.903 338.183 134.378L339.235 132.621C339.55 132.096 340.197 131.847 340.775 132.019L341.711 132.277C341.93 132.135 342.16 132.006 342.401 131.892L342.622 131.005C342.77 130.415 343.317 130 343.947 130L346.053 130ZM343.567 132.833L343.249 132.961C342.889 133.106 342.554 133.295 342.25 133.519L341.975 133.721L340.415 133.279L339.362 135.034L340.54 136.114L340.496 136.442C340.472 136.625 340.46 136.811 340.46 137C340.46 137.189 340.472 137.375 340.496 137.558L340.54 137.886L339.362 138.966L340.415 140.721L341.975 140.279L342.25 140.481C342.554 140.705 342.889 140.894 343.249 141.039L343.567 141.167L343.947 142.688H346.053L346.433 141.167L346.751 141.039C347.111 140.894 347.446 140.705 347.75 140.481L348.025 140.279L349.586 140.721L350.639 138.966L349.461 137.886L349.504 137.558C349.529 137.375 349.541 137.189 349.541 137C349.541 136.811 349.529 136.625 349.504 136.442L349.461 136.114L350.639 135.034L349.586 133.279L348.025 133.721L347.75 133.519C347.446 133.295 347.111 133.106 346.751 132.961L346.433 132.833L346.053 131.312H343.947L343.567 132.833Z" fill="#505050"/>
<path d="M361.182 142H358.904L358.919 140.542H361.182C361.841 140.542 362.393 140.398 362.837 140.11C363.287 139.822 363.624 139.41 363.848 138.873C364.078 138.335 364.192 137.696 364.192 136.954V136.375C364.192 135.799 364.126 135.289 363.995 134.844C363.868 134.4 363.677 134.026 363.423 133.724C363.174 133.421 362.867 133.191 362.5 133.035C362.139 132.879 361.722 132.801 361.248 132.801H358.86V131.336H361.248C361.956 131.336 362.603 131.456 363.189 131.695C363.775 131.929 364.28 132.269 364.705 132.713C365.135 133.157 365.464 133.689 365.694 134.31C365.923 134.93 366.038 135.623 366.038 136.39V136.954C366.038 137.72 365.923 138.414 365.694 139.034C365.464 139.654 365.135 140.186 364.705 140.63C364.275 141.07 363.763 141.409 363.167 141.648C362.576 141.883 361.915 142 361.182 142ZM359.922 131.336V142H358.084V131.336H359.922ZM371.202 142.146C370.616 142.146 370.086 142.051 369.612 141.861C369.144 141.666 368.743 141.395 368.411 141.048C368.084 140.701 367.833 140.293 367.657 139.825C367.481 139.356 367.393 138.851 367.393 138.309V138.016C367.393 137.396 367.483 136.834 367.664 136.331C367.845 135.828 368.096 135.398 368.418 135.042C368.741 134.681 369.122 134.405 369.561 134.214C370 134.024 370.477 133.929 370.989 133.929C371.556 133.929 372.051 134.024 372.476 134.214C372.901 134.405 373.252 134.673 373.531 135.02C373.814 135.362 374.024 135.77 374.161 136.243C374.302 136.717 374.373 137.239 374.373 137.811V138.565H368.25V137.298H372.63V137.159C372.62 136.841 372.557 136.543 372.439 136.265C372.327 135.987 372.154 135.762 371.919 135.591C371.685 135.42 371.373 135.335 370.982 135.335C370.689 135.335 370.428 135.398 370.198 135.525C369.974 135.647 369.786 135.826 369.634 136.06C369.483 136.294 369.366 136.578 369.283 136.91C369.205 137.237 369.166 137.605 369.166 138.016V138.309C369.166 138.655 369.212 138.978 369.305 139.275C369.402 139.568 369.544 139.825 369.729 140.044C369.915 140.264 370.14 140.438 370.403 140.564C370.667 140.687 370.967 140.748 371.304 140.748C371.729 140.748 372.107 140.662 372.439 140.491C372.771 140.32 373.06 140.079 373.304 139.766L374.234 140.667C374.063 140.916 373.841 141.155 373.567 141.385C373.294 141.609 372.959 141.792 372.564 141.934C372.173 142.076 371.719 142.146 371.202 142.146ZM378.138 142H376.373V133.313C376.373 132.723 376.482 132.227 376.702 131.827C376.927 131.421 377.247 131.116 377.662 130.911C378.077 130.701 378.567 130.596 379.134 130.596C379.31 130.596 379.483 130.608 379.654 130.633C379.825 130.652 379.991 130.684 380.152 130.728L380.108 132.09C380.01 132.066 379.903 132.049 379.786 132.039C379.673 132.029 379.551 132.024 379.419 132.024C379.151 132.024 378.919 132.076 378.724 132.178C378.533 132.276 378.387 132.42 378.284 132.61C378.187 132.801 378.138 133.035 378.138 133.313V142ZM379.771 134.075V135.364H375.157V134.075H379.771ZM385.521 140.411V136.631C385.521 136.348 385.469 136.104 385.367 135.899C385.264 135.694 385.108 135.535 384.898 135.423C384.693 135.311 384.434 135.254 384.122 135.254C383.833 135.254 383.584 135.303 383.375 135.401C383.165 135.499 383.001 135.63 382.884 135.796C382.767 135.962 382.708 136.15 382.708 136.36H380.95C380.95 136.048 381.026 135.745 381.177 135.452C381.329 135.159 381.548 134.898 381.836 134.668C382.125 134.439 382.469 134.258 382.869 134.126C383.27 133.995 383.719 133.929 384.217 133.929C384.812 133.929 385.34 134.029 385.799 134.229C386.263 134.429 386.626 134.732 386.89 135.137C387.159 135.538 387.293 136.041 387.293 136.646V140.169C387.293 140.53 387.317 140.855 387.366 141.143C387.42 141.426 387.496 141.673 387.593 141.883V142H385.784C385.701 141.81 385.635 141.568 385.586 141.275C385.542 140.977 385.521 140.689 385.521 140.411ZM385.777 137.181L385.792 138.272H384.524C384.197 138.272 383.909 138.304 383.66 138.367C383.411 138.426 383.204 138.514 383.038 138.631C382.872 138.748 382.747 138.89 382.664 139.056C382.581 139.222 382.54 139.41 382.54 139.62C382.54 139.83 382.588 140.022 382.686 140.198C382.784 140.369 382.925 140.503 383.111 140.601C383.301 140.699 383.531 140.748 383.799 140.748C384.161 140.748 384.476 140.674 384.744 140.528C385.018 140.376 385.232 140.193 385.389 139.979C385.545 139.759 385.628 139.551 385.638 139.356L386.209 140.14C386.15 140.34 386.05 140.555 385.909 140.784C385.767 141.014 385.582 141.233 385.352 141.443C385.127 141.648 384.856 141.817 384.539 141.949C384.227 142.081 383.865 142.146 383.455 142.146C382.938 142.146 382.476 142.044 382.071 141.839C381.666 141.629 381.348 141.348 381.119 140.997C380.889 140.64 380.774 140.237 380.774 139.788C380.774 139.368 380.853 138.997 381.009 138.675C381.17 138.348 381.404 138.074 381.712 137.854C382.024 137.635 382.405 137.469 382.854 137.356C383.304 137.239 383.816 137.181 384.393 137.181H385.777ZM393.907 140.132V134.075H395.679V142H394.009L393.907 140.132ZM394.156 138.484L394.749 138.47C394.749 139.002 394.69 139.493 394.573 139.942C394.456 140.386 394.275 140.774 394.031 141.106C393.787 141.434 393.475 141.69 393.094 141.875C392.713 142.056 392.256 142.146 391.724 142.146C391.338 142.146 390.984 142.09 390.662 141.978C390.34 141.866 390.062 141.692 389.827 141.458C389.598 141.224 389.419 140.918 389.292 140.542C389.166 140.167 389.102 139.717 389.102 139.195V134.075H390.867V139.209C390.867 139.498 390.901 139.739 390.97 139.935C391.038 140.125 391.131 140.279 391.248 140.396C391.365 140.513 391.502 140.596 391.658 140.645C391.814 140.694 391.98 140.718 392.156 140.718C392.659 140.718 393.055 140.621 393.343 140.425C393.636 140.225 393.843 139.957 393.965 139.62C394.092 139.283 394.156 138.904 394.156 138.484ZM399.378 130.75V142H397.605V130.75H399.378ZM404.944 134.075V135.364H400.477V134.075H404.944ZM401.766 132.134H403.531V139.81C403.531 140.054 403.565 140.242 403.633 140.374C403.707 140.501 403.807 140.586 403.934 140.63C404.061 140.674 404.209 140.696 404.38 140.696C404.502 140.696 404.62 140.689 404.732 140.674C404.844 140.66 404.935 140.645 405.003 140.63L405.01 141.978C404.864 142.022 404.693 142.061 404.498 142.095C404.307 142.129 404.087 142.146 403.838 142.146C403.433 142.146 403.074 142.076 402.762 141.934C402.449 141.788 402.205 141.551 402.029 141.224C401.854 140.896 401.766 140.462 401.766 139.92V132.134Z" fill="#505050"/>
<path d="M411 137C411 133.134 414.134 130 418 130C421.866 130 425 133.134 425 137C425 140.866 421.866 144 418 144C414.134 144 411 140.866 411 137ZM421.166 135.791C421.464 135.493 421.464 135.007 421.166 134.709C420.868 134.411 420.382 134.411 420.084 134.709L417.125 137.667L415.916 136.459C415.618 136.161 415.132 136.161 414.834 136.459C414.536 136.757 414.536 137.243 414.834 137.541L416.584 139.291C416.882 139.589 417.368 139.589 417.666 139.291L421.166 135.791Z" fill="#18BB4B"/>
<path d="M441.801 137.466H439.989V136.323H441.801C442.081 136.323 442.308 136.278 442.484 136.187C442.66 136.092 442.789 135.962 442.87 135.796C442.951 135.63 442.992 135.443 442.992 135.234C442.992 135.023 442.951 134.826 442.87 134.644C442.789 134.461 442.66 134.315 442.484 134.204C442.308 134.093 442.081 134.038 441.801 134.038H440.497V140H439.032V132.891H441.801C442.357 132.891 442.834 132.992 443.231 133.193C443.632 133.392 443.938 133.667 444.149 134.019C444.361 134.37 444.467 134.772 444.467 135.225C444.467 135.684 444.361 136.081 444.149 136.416C443.938 136.751 443.632 137.01 443.231 137.192C442.834 137.375 442.357 137.466 441.801 137.466ZM446.596 135.869V140H445.189V134.717H446.513L446.596 135.869ZM448.188 134.683L448.163 135.986C448.095 135.977 448.012 135.968 447.914 135.962C447.82 135.952 447.733 135.947 447.655 135.947C447.457 135.947 447.284 135.973 447.138 136.025C446.994 136.074 446.874 136.147 446.776 136.245C446.682 136.343 446.61 136.462 446.562 136.602C446.516 136.742 446.49 136.901 446.483 137.08L446.2 136.992C446.2 136.65 446.234 136.336 446.303 136.05C446.371 135.76 446.47 135.508 446.601 135.293C446.734 135.078 446.897 134.912 447.089 134.795C447.281 134.678 447.501 134.619 447.748 134.619C447.826 134.619 447.906 134.626 447.987 134.639C448.069 134.648 448.135 134.663 448.188 134.683ZM448.28 137.412V137.31C448.28 136.922 448.336 136.566 448.446 136.24C448.557 135.911 448.718 135.627 448.93 135.386C449.141 135.145 449.402 134.958 449.711 134.824C450.02 134.688 450.375 134.619 450.776 134.619C451.176 134.619 451.532 134.688 451.845 134.824C452.157 134.958 452.419 135.145 452.631 135.386C452.846 135.627 453.009 135.911 453.119 136.24C453.23 136.566 453.285 136.922 453.285 137.31V137.412C453.285 137.796 453.23 138.153 453.119 138.481C453.009 138.807 452.846 139.092 452.631 139.336C452.419 139.577 452.159 139.764 451.85 139.897C451.541 140.031 451.186 140.098 450.785 140.098C450.385 140.098 450.029 140.031 449.716 139.897C449.407 139.764 449.145 139.577 448.93 139.336C448.718 139.092 448.557 138.807 448.446 138.481C448.336 138.153 448.28 137.796 448.28 137.412ZM449.687 137.31V137.412C449.687 137.633 449.706 137.84 449.745 138.032C449.784 138.224 449.846 138.394 449.931 138.54C450.019 138.683 450.133 138.796 450.273 138.877C450.413 138.958 450.584 138.999 450.785 138.999C450.981 138.999 451.148 138.958 451.288 138.877C451.428 138.796 451.541 138.683 451.625 138.54C451.71 138.394 451.772 138.224 451.811 138.032C451.853 137.84 451.874 137.633 451.874 137.412V137.31C451.874 137.095 451.853 136.893 451.811 136.704C451.772 136.512 451.708 136.343 451.62 136.196C451.536 136.047 451.423 135.929 451.283 135.845C451.143 135.76 450.974 135.718 450.776 135.718C450.577 135.718 450.408 135.76 450.268 135.845C450.131 135.929 450.019 136.047 449.931 136.196C449.846 136.343 449.784 136.512 449.745 136.704C449.706 136.893 449.687 137.095 449.687 137.31Z" fill="#1A1A1A"/>
<rect x="430.5" y="129.5" width="31" height="15" rx="7.5" stroke="#1A1A1A"/>
<rect x="222" y="123" width="26" height="26" rx="4" fill="#333333"/>
<path d="M236.25 131.013V141H234.603V132.968L232.162 133.795V132.435L236.052 131.013H236.25Z" fill="white"/>
<path d="M332 136L327 133.113V138.887L332 136ZM327.5 135.5H252V136.5H327.5V135.5Z" fill="#737373"/>
<rect x="404" y="48" width="26" height="26" rx="4" fill="#333333"/>
<path d="M420.424 64.6875V66H413.752V64.8721L416.992 61.3379C417.348 60.9368 417.628 60.5905 417.833 60.2988C418.038 60.0072 418.182 59.7451 418.264 59.5127C418.35 59.2757 418.394 59.0456 418.394 58.8223C418.394 58.5078 418.334 58.2321 418.216 57.9951C418.102 57.7536 417.933 57.5645 417.71 57.4277C417.487 57.2865 417.215 57.2158 416.896 57.2158C416.527 57.2158 416.217 57.2956 415.967 57.4551C415.716 57.6146 415.527 57.8356 415.399 58.1182C415.272 58.3962 415.208 58.7152 415.208 59.0752H413.561C413.561 58.4964 413.693 57.9678 413.957 57.4893C414.221 57.0062 414.604 56.6234 415.105 56.3408C415.607 56.0537 416.211 55.9102 416.917 55.9102C417.582 55.9102 418.147 56.0218 418.612 56.2451C419.077 56.4684 419.43 56.7852 419.672 57.1953C419.918 57.6055 420.041 58.0908 420.041 58.6514C420.041 58.9613 419.991 59.2689 419.891 59.5742C419.79 59.8796 419.647 60.1849 419.46 60.4902C419.278 60.791 419.061 61.0941 418.811 61.3994C418.56 61.7002 418.284 62.0055 417.983 62.3154L415.83 64.6875H420.424Z" fill="white"/>
<path d="M417 124L419.887 119H414.113L417 124ZM417.5 119.5V78H416.5V119.5H417.5Z" fill="#737373"/>
<path d="M448 152L445.113 157H450.887L448 152ZM448.5 198V156.5H447.5V198H448.5Z" fill="#737373"/>
<rect x="435" y="202" width="26" height="26" rx="4" fill="#333333"/>
<path d="M446.687 214.278H447.671C448.054 214.278 448.37 214.212 448.621 214.08C448.876 213.948 449.065 213.766 449.188 213.533C449.312 213.301 449.373 213.034 449.373 212.733C449.373 212.419 449.316 212.15 449.202 211.927C449.093 211.699 448.924 211.523 448.696 211.4C448.473 211.277 448.188 211.216 447.842 211.216C447.55 211.216 447.286 211.275 447.049 211.394C446.816 211.507 446.632 211.672 446.495 211.886C446.358 212.095 446.29 212.346 446.29 212.638H444.636C444.636 212.109 444.775 211.64 445.053 211.229C445.331 210.819 445.709 210.498 446.188 210.266C446.671 210.029 447.213 209.91 447.814 209.91C448.457 209.91 449.018 210.017 449.496 210.231C449.979 210.441 450.355 210.756 450.624 211.175C450.893 211.594 451.027 212.114 451.027 212.733C451.027 213.016 450.961 213.303 450.829 213.595C450.697 213.886 450.501 214.153 450.241 214.395C449.981 214.632 449.658 214.825 449.271 214.976C448.883 215.121 448.434 215.194 447.924 215.194H446.687V214.278ZM446.687 215.563V214.661H447.924C448.507 214.661 449.004 214.729 449.414 214.866C449.829 215.003 450.166 215.192 450.426 215.434C450.686 215.671 450.875 215.942 450.993 216.247C451.116 216.552 451.178 216.876 451.178 217.218C451.178 217.683 451.093 218.097 450.925 218.462C450.761 218.822 450.526 219.127 450.221 219.378C449.915 219.629 449.558 219.818 449.147 219.945C448.742 220.073 448.3 220.137 447.821 220.137C447.393 220.137 446.983 220.077 446.591 219.959C446.199 219.84 445.848 219.665 445.538 219.433C445.228 219.196 444.982 218.902 444.8 218.551C444.622 218.195 444.533 217.785 444.533 217.32H446.181C446.181 217.617 446.249 217.879 446.386 218.106C446.527 218.33 446.723 218.505 446.974 218.633C447.229 218.76 447.521 218.824 447.849 218.824C448.195 218.824 448.493 218.763 448.744 218.64C448.995 218.517 449.186 218.334 449.318 218.093C449.455 217.851 449.523 217.56 449.523 217.218C449.523 216.83 449.448 216.516 449.298 216.274C449.147 216.033 448.933 215.855 448.655 215.741C448.377 215.623 448.049 215.563 447.671 215.563H446.687Z" fill="white"/>
</g>
<defs>
<filter id="filter0_dddddd_3378_49383" x="73" y="40" width="654" height="375" filterUnits="userSpaceOnUse" color-interpolation-filters="sRGB">
<feFlood flood-opacity="0" result="BackgroundImageFix"/>
<feColorMatrix in="SourceAlpha" type="matrix" values="0 0 0 0 0 0 0 0 0 0 0 0 0 0 0 0 0 0 127 0" result="hardAlpha"/>
<feOffset dy="2.76726"/>
<feGaussianBlur stdDeviation="1.1069"/>
<feColorMatrix type="matrix" values="0 0 0 0 0 0 0 0 0 0 0 0 0 0 0 0 0 0 0.0196802 0"/>
<feBlend mode="normal" in2="BackgroundImageFix" result="effect1_dropShadow_3378_49383"/>
<feColorMatrix in="SourceAlpha" type="matrix" values="0 0 0 0 0 0 0 0 0 0 0 0 0 0 0 0 0 0 127 0" result="hardAlpha"/>
<feOffset dy="6.6501"/>
<feGaussianBlur stdDeviation="2.66004"/>
<feColorMatrix type="matrix" values="0 0 0 0 0 0 0 0 0 0 0 0 0 0 0 0 0 0 0.0282725 0"/>
<feBlend mode="normal" in2="effect1_dropShadow_3378_49383" result="effect2_dropShadow_3378_49383"/>
<feColorMatrix in="SourceAlpha" type="matrix" values="0 0 0 0 0 0 0 0 0 0 0 0 0 0 0 0 0 0 127 0" result="hardAlpha"/>
<feOffset dy="12.5216"/>
<feGaussianBlur stdDeviation="5.00862"/>
<feColorMatrix type="matrix" values="0 0 0 0 0 0 0 0 0 0 0 0 0 0 0 0 0 0 0.035 0"/>
<feBlend mode="normal" in2="effect2_dropShadow_3378_49383" result="effect3_dropShadow_3378_49383"/>
<feColorMatrix in="SourceAlpha" type="matrix" values="0 0 0 0 0 0 0 0 0 0 0 0 0 0 0 0 0 0 127 0" result="hardAlpha"/>
<feOffset dy="22.3363"/>
<feGaussianBlur stdDeviation="8.93452"/>
<feColorMatrix type="matrix" values="0 0 0 0 0 0 0 0 0 0 0 0 0 0 0 0 0 0 0.0417275 0"/>
<feBlend mode="normal" in2="effect3_dropShadow_3378_49383" result="effect4_dropShadow_3378_49383"/>
<feColorMatrix in="SourceAlpha" type="matrix" values="0 0 0 0 0 0 0 0 0 0 0 0 0 0 0 0 0 0 127 0" result="hardAlpha"/>
<feOffset dy="41.7776"/>
<feGaussianBlur stdDeviation="16.711"/>
<feColorMatrix type="matrix" values="0 0 0 0 0 0 0 0 0 0 0 0 0 0 0 0 0 0 0.0503198 0"/>
<feBlend mode="normal" in2="effect4_dropShadow_3378_49383" result="effect5_dropShadow_3378_49383"/>
<feColorMatrix in="SourceAlpha" type="matrix" values="0 0 0 0 0 0 0 0 0 0 0 0 0 0 0 0 0 0 127 0" result="hardAlpha"/>
<feOffset dy="100"/>
<feGaussianBlur stdDeviation="40"/>
<feColorMatrix type="matrix" values="0 0 0 0 0 0 0 0 0 0 0 0 0 0 0 0 0 0 0.07 0"/>
<feBlend mode="normal" in2="effect5_dropShadow_3378_49383" result="effect6_dropShadow_3378_49383"/>
<feBlend mode="normal" in="SourceGraphic" in2="effect6_dropShadow_3378_49383" result="shape"/>
</filter>
<clipPath id="clip0_3378_49383">
<rect width="800" height="275" rx="4" fill="white"/>
</clipPath>
</defs>
</svg>
