<svg width="640" height="396" viewBox="0 0 640 396" fill="none" xmlns="http://www.w3.org/2000/svg">
<rect width="640" height="396" rx="16" fill="#F8F8F8"/>
<g clip-path="url(#clip0_15904_456)">
<path d="M190 48C190 43.5817 193.582 40 198 40H442C446.418 40 450 43.5817 450 48V348.004C450 352.422 446.418 356.004 442 356.004H198C193.582 356.004 190 352.422 190 348.004V48Z" fill="white"/>
<g clip-path="url(#clip1_15904_456)">
<rect x="190" y="40" width="260" height="208.004" fill="#F8F8F8"/>
<path d="M326.758 137.633C327.253 138.128 327.5 138.727 327.5 139.43V151.5C327.474 152.203 327.227 152.789 326.758 153.258C326.289 153.727 325.703 153.974 325 154H315C314.297 153.974 313.711 153.727 313.242 153.258C312.773 152.789 312.526 152.203 312.5 151.5V136.5C312.526 135.797 312.773 135.211 313.242 134.742C313.711 134.273 314.297 134.026 315 134H322.07C322.773 134 323.372 134.247 323.867 134.742L326.758 137.633ZM325 152.125C325.391 152.099 325.586 151.891 325.586 151.5V140.25H322.5C322.135 140.25 321.836 140.133 321.602 139.898C321.367 139.664 321.25 139.365 321.25 139V135.875H315C314.609 135.927 314.401 136.135 314.375 136.5V151.539C314.427 151.878 314.635 152.073 315 152.125H325Z" fill="#7F7F7F"/>
</g>
<rect x="190.5" y="40.5" width="259" height="207.004" stroke="black" stroke-opacity="0.1"/>
<rect width="260" height="108" transform="translate(190 248.004)" fill="white"/>
<path d="M213.141 278.074C213.141 277.84 213.104 277.632 213.031 277.449C212.964 277.267 212.841 277.1 212.664 276.949C212.487 276.798 212.237 276.652 211.914 276.512C211.596 276.366 211.19 276.217 210.695 276.066C210.154 275.9 209.654 275.715 209.195 275.512C208.742 275.303 208.346 275.064 208.008 274.793C207.669 274.517 207.406 274.202 207.219 273.848C207.031 273.488 206.938 273.074 206.938 272.605C206.938 272.142 207.034 271.72 207.227 271.34C207.424 270.96 207.703 270.632 208.062 270.355C208.427 270.074 208.857 269.858 209.352 269.707C209.846 269.551 210.393 269.473 210.992 269.473C211.836 269.473 212.562 269.629 213.172 269.941C213.786 270.254 214.258 270.673 214.586 271.199C214.919 271.725 215.086 272.306 215.086 272.941H213.141C213.141 272.566 213.06 272.236 212.898 271.949C212.742 271.658 212.503 271.428 212.18 271.262C211.862 271.095 211.458 271.012 210.969 271.012C210.505 271.012 210.12 271.082 209.812 271.223C209.505 271.363 209.276 271.553 209.125 271.793C208.974 272.033 208.898 272.303 208.898 272.605C208.898 272.819 208.948 273.014 209.047 273.191C209.146 273.363 209.297 273.525 209.5 273.676C209.703 273.822 209.958 273.96 210.266 274.09C210.573 274.22 210.935 274.345 211.352 274.465C211.982 274.652 212.531 274.861 213 275.09C213.469 275.314 213.859 275.569 214.172 275.855C214.484 276.142 214.719 276.467 214.875 276.832C215.031 277.191 215.109 277.6 215.109 278.059C215.109 278.538 215.013 278.97 214.82 279.355C214.628 279.736 214.352 280.061 213.992 280.332C213.638 280.598 213.211 280.803 212.711 280.949C212.216 281.09 211.664 281.16 211.055 281.16C210.508 281.16 209.969 281.087 209.438 280.941C208.911 280.796 208.432 280.574 208 280.277C207.568 279.975 207.224 279.6 206.969 279.152C206.714 278.699 206.586 278.171 206.586 277.566H208.547C208.547 277.936 208.609 278.251 208.734 278.512C208.865 278.772 209.044 278.986 209.273 279.152C209.503 279.314 209.768 279.434 210.07 279.512C210.378 279.59 210.706 279.629 211.055 279.629C211.513 279.629 211.896 279.564 212.203 279.434C212.516 279.303 212.75 279.121 212.906 278.887C213.062 278.652 213.141 278.382 213.141 278.074ZM220.531 272.551V273.926H215.766V272.551H220.531ZM217.141 270.48H219.023V278.668C219.023 278.928 219.06 279.129 219.133 279.27C219.211 279.405 219.318 279.496 219.453 279.543C219.589 279.59 219.747 279.613 219.93 279.613C220.06 279.613 220.185 279.605 220.305 279.59C220.424 279.574 220.521 279.559 220.594 279.543L220.602 280.98C220.445 281.027 220.263 281.069 220.055 281.105C219.852 281.142 219.617 281.16 219.352 281.16C218.919 281.16 218.536 281.085 218.203 280.934C217.87 280.777 217.609 280.525 217.422 280.176C217.234 279.827 217.141 279.363 217.141 278.785V270.48ZM226.75 279.309V275.277C226.75 274.975 226.695 274.715 226.586 274.496C226.477 274.277 226.31 274.108 226.086 273.988C225.867 273.868 225.591 273.809 225.258 273.809C224.951 273.809 224.685 273.861 224.461 273.965C224.237 274.069 224.062 274.21 223.938 274.387C223.812 274.564 223.75 274.764 223.75 274.988H221.875C221.875 274.655 221.956 274.332 222.117 274.02C222.279 273.707 222.513 273.428 222.82 273.184C223.128 272.939 223.495 272.746 223.922 272.605C224.349 272.465 224.828 272.395 225.359 272.395C225.995 272.395 226.557 272.501 227.047 272.715C227.542 272.928 227.93 273.251 228.211 273.684C228.497 274.111 228.641 274.647 228.641 275.293V279.051C228.641 279.436 228.667 279.783 228.719 280.09C228.776 280.392 228.857 280.655 228.961 280.879V281.004H227.031C226.943 280.801 226.872 280.543 226.82 280.23C226.773 279.913 226.75 279.605 226.75 279.309ZM227.023 275.863L227.039 277.027H225.688C225.339 277.027 225.031 277.061 224.766 277.129C224.5 277.191 224.279 277.285 224.102 277.41C223.924 277.535 223.792 277.686 223.703 277.863C223.615 278.04 223.57 278.241 223.57 278.465C223.57 278.689 223.622 278.895 223.727 279.082C223.831 279.264 223.982 279.408 224.18 279.512C224.383 279.616 224.628 279.668 224.914 279.668C225.299 279.668 225.635 279.59 225.922 279.434C226.214 279.272 226.443 279.077 226.609 278.848C226.776 278.613 226.865 278.392 226.875 278.184L227.484 279.02C227.422 279.233 227.315 279.462 227.164 279.707C227.013 279.952 226.815 280.186 226.57 280.41C226.331 280.629 226.042 280.809 225.703 280.949C225.37 281.09 224.984 281.16 224.547 281.16C223.995 281.16 223.503 281.051 223.07 280.832C222.638 280.608 222.299 280.309 222.055 279.934C221.81 279.553 221.688 279.124 221.688 278.645C221.688 278.197 221.771 277.801 221.938 277.457C222.109 277.108 222.359 276.816 222.688 276.582C223.021 276.348 223.427 276.171 223.906 276.051C224.385 275.926 224.932 275.863 225.547 275.863H227.023ZM232.5 274.16V281.004H230.617V272.551H232.414L232.5 274.16ZM235.086 272.496L235.07 274.246C234.956 274.225 234.831 274.21 234.695 274.199C234.565 274.189 234.435 274.184 234.305 274.184C233.982 274.184 233.698 274.23 233.453 274.324C233.208 274.413 233.003 274.543 232.836 274.715C232.674 274.882 232.549 275.085 232.461 275.324C232.372 275.564 232.32 275.832 232.305 276.129L231.875 276.16C231.875 275.629 231.927 275.137 232.031 274.684C232.135 274.23 232.292 273.832 232.5 273.488C232.714 273.145 232.979 272.876 233.297 272.684C233.62 272.491 233.992 272.395 234.414 272.395C234.529 272.395 234.651 272.405 234.781 272.426C234.917 272.447 235.018 272.47 235.086 272.496ZM240.531 272.551V273.926H235.766V272.551H240.531ZM237.141 270.48H239.023V278.668C239.023 278.928 239.06 279.129 239.133 279.27C239.211 279.405 239.318 279.496 239.453 279.543C239.589 279.59 239.747 279.613 239.93 279.613C240.06 279.613 240.185 279.605 240.305 279.59C240.424 279.574 240.521 279.559 240.594 279.543L240.602 280.98C240.445 281.027 240.263 281.069 240.055 281.105C239.852 281.142 239.617 281.16 239.352 281.16C238.919 281.16 238.536 281.085 238.203 280.934C237.87 280.777 237.609 280.525 237.422 280.176C237.234 279.827 237.141 279.363 237.141 278.785V270.48ZM248.516 281.004H246.633V271.738C246.633 271.108 246.75 270.579 246.984 270.152C247.224 269.72 247.565 269.395 248.008 269.176C248.451 268.952 248.974 268.84 249.578 268.84C249.766 268.84 249.951 268.853 250.133 268.879C250.315 268.9 250.492 268.934 250.664 268.98L250.617 270.434C250.513 270.408 250.398 270.389 250.273 270.379C250.154 270.368 250.023 270.363 249.883 270.363C249.596 270.363 249.349 270.418 249.141 270.527C248.938 270.632 248.781 270.785 248.672 270.988C248.568 271.191 248.516 271.441 248.516 271.738V281.004ZM250.258 272.551V273.926H245.336V272.551H250.258ZM253.516 274.16V281.004H251.633V272.551H253.43L253.516 274.16ZM256.102 272.496L256.086 274.246C255.971 274.225 255.846 274.21 255.711 274.199C255.581 274.189 255.451 274.184 255.32 274.184C254.997 274.184 254.714 274.23 254.469 274.324C254.224 274.413 254.018 274.543 253.852 274.715C253.69 274.882 253.565 275.085 253.477 275.324C253.388 275.564 253.336 275.832 253.32 276.129L252.891 276.16C252.891 275.629 252.943 275.137 253.047 274.684C253.151 274.23 253.307 273.832 253.516 273.488C253.729 273.145 253.995 272.876 254.312 272.684C254.635 272.491 255.008 272.395 255.43 272.395C255.544 272.395 255.667 272.405 255.797 272.426C255.932 272.447 256.034 272.47 256.102 272.496ZM256.719 276.871V276.691C256.719 276.082 256.807 275.517 256.984 274.996C257.161 274.47 257.417 274.014 257.75 273.629C258.089 273.238 258.5 272.936 258.984 272.723C259.474 272.504 260.026 272.395 260.641 272.395C261.26 272.395 261.812 272.504 262.297 272.723C262.786 272.936 263.201 273.238 263.539 273.629C263.878 274.014 264.135 274.47 264.312 274.996C264.49 275.517 264.578 276.082 264.578 276.691V276.871C264.578 277.48 264.49 278.046 264.312 278.566C264.135 279.087 263.878 279.543 263.539 279.934C263.201 280.319 262.789 280.621 262.305 280.84C261.82 281.053 261.271 281.16 260.656 281.16C260.036 281.16 259.482 281.053 258.992 280.84C258.508 280.621 258.096 280.319 257.758 279.934C257.419 279.543 257.161 279.087 256.984 278.566C256.807 278.046 256.719 277.48 256.719 276.871ZM258.602 276.691V276.871C258.602 277.251 258.641 277.611 258.719 277.949C258.797 278.288 258.919 278.585 259.086 278.84C259.253 279.095 259.466 279.296 259.727 279.441C259.987 279.587 260.297 279.66 260.656 279.66C261.005 279.66 261.307 279.587 261.562 279.441C261.823 279.296 262.036 279.095 262.203 278.84C262.37 278.585 262.492 278.288 262.57 277.949C262.654 277.611 262.695 277.251 262.695 276.871V276.691C262.695 276.316 262.654 275.962 262.57 275.629C262.492 275.29 262.367 274.991 262.195 274.73C262.029 274.47 261.815 274.267 261.555 274.121C261.299 273.97 260.995 273.895 260.641 273.895C260.286 273.895 259.979 273.97 259.719 274.121C259.464 274.267 259.253 274.47 259.086 274.73C258.919 274.991 258.797 275.29 258.719 275.629C258.641 275.962 258.602 276.316 258.602 276.691ZM268.039 274.27V281.004H266.156V272.551H267.93L268.039 274.27ZM267.734 276.465L267.094 276.457C267.094 275.874 267.167 275.335 267.312 274.84C267.458 274.345 267.672 273.915 267.953 273.551C268.234 273.181 268.583 272.897 269 272.699C269.422 272.496 269.909 272.395 270.461 272.395C270.846 272.395 271.198 272.452 271.516 272.566C271.839 272.676 272.117 272.85 272.352 273.09C272.591 273.329 272.773 273.637 272.898 274.012C273.029 274.387 273.094 274.84 273.094 275.371V281.004H271.211V275.535C271.211 275.124 271.148 274.801 271.023 274.566C270.904 274.332 270.729 274.165 270.5 274.066C270.276 273.962 270.008 273.91 269.695 273.91C269.341 273.91 269.039 273.978 268.789 274.113C268.544 274.249 268.344 274.434 268.188 274.668C268.031 274.902 267.917 275.173 267.844 275.48C267.771 275.788 267.734 276.116 267.734 276.465ZM272.977 275.965L272.094 276.16C272.094 275.65 272.164 275.168 272.305 274.715C272.451 274.257 272.661 273.855 272.938 273.512C273.219 273.163 273.565 272.889 273.977 272.691C274.388 272.493 274.859 272.395 275.391 272.395C275.823 272.395 276.208 272.454 276.547 272.574C276.891 272.689 277.182 272.871 277.422 273.121C277.661 273.371 277.844 273.697 277.969 274.098C278.094 274.493 278.156 274.973 278.156 275.535V281.004H276.266V275.527C276.266 275.1 276.203 274.77 276.078 274.535C275.958 274.301 275.786 274.139 275.562 274.051C275.339 273.957 275.07 273.91 274.758 273.91C274.466 273.91 274.208 273.965 273.984 274.074C273.766 274.178 273.581 274.327 273.43 274.52C273.279 274.707 273.164 274.923 273.086 275.168C273.013 275.413 272.977 275.678 272.977 275.965ZM288.82 278.715C288.82 278.527 288.773 278.358 288.68 278.207C288.586 278.051 288.406 277.91 288.141 277.785C287.88 277.66 287.495 277.546 286.984 277.441C286.536 277.342 286.125 277.225 285.75 277.09C285.38 276.949 285.062 276.78 284.797 276.582C284.531 276.384 284.326 276.15 284.18 275.879C284.034 275.608 283.961 275.296 283.961 274.941C283.961 274.598 284.036 274.272 284.188 273.965C284.339 273.658 284.555 273.387 284.836 273.152C285.117 272.918 285.458 272.733 285.859 272.598C286.266 272.462 286.719 272.395 287.219 272.395C287.927 272.395 288.534 272.514 289.039 272.754C289.549 272.988 289.94 273.309 290.211 273.715C290.482 274.116 290.617 274.569 290.617 275.074H288.734C288.734 274.85 288.677 274.642 288.562 274.449C288.453 274.251 288.286 274.092 288.062 273.973C287.839 273.848 287.557 273.785 287.219 273.785C286.896 273.785 286.628 273.837 286.414 273.941C286.206 274.04 286.049 274.171 285.945 274.332C285.846 274.493 285.797 274.671 285.797 274.863C285.797 275.004 285.823 275.132 285.875 275.246C285.932 275.355 286.026 275.457 286.156 275.551C286.286 275.639 286.464 275.723 286.688 275.801C286.917 275.879 287.203 275.954 287.547 276.027C288.193 276.163 288.747 276.337 289.211 276.551C289.68 276.759 290.039 277.03 290.289 277.363C290.539 277.691 290.664 278.108 290.664 278.613C290.664 278.988 290.583 279.332 290.422 279.645C290.266 279.952 290.036 280.22 289.734 280.449C289.432 280.673 289.07 280.848 288.648 280.973C288.232 281.098 287.763 281.16 287.242 281.16C286.477 281.16 285.828 281.025 285.297 280.754C284.766 280.478 284.362 280.126 284.086 279.699C283.815 279.267 283.68 278.819 283.68 278.355H285.5C285.521 278.704 285.617 278.983 285.789 279.191C285.966 279.395 286.185 279.543 286.445 279.637C286.711 279.725 286.984 279.77 287.266 279.77C287.604 279.77 287.888 279.725 288.117 279.637C288.346 279.543 288.521 279.418 288.641 279.262C288.76 279.1 288.82 278.918 288.82 278.715ZM295.766 279.66C296.073 279.66 296.349 279.6 296.594 279.48C296.844 279.355 297.044 279.184 297.195 278.965C297.352 278.746 297.438 278.493 297.453 278.207H299.227C299.216 278.754 299.055 279.251 298.742 279.699C298.43 280.147 298.016 280.504 297.5 280.77C296.984 281.03 296.414 281.16 295.789 281.16C295.143 281.16 294.581 281.051 294.102 280.832C293.622 280.608 293.224 280.301 292.906 279.91C292.589 279.52 292.349 279.069 292.188 278.559C292.031 278.048 291.953 277.501 291.953 276.918V276.645C291.953 276.061 292.031 275.514 292.188 275.004C292.349 274.488 292.589 274.035 292.906 273.645C293.224 273.254 293.622 272.949 294.102 272.73C294.581 272.507 295.141 272.395 295.781 272.395C296.458 272.395 297.052 272.53 297.562 272.801C298.073 273.066 298.474 273.439 298.766 273.918C299.062 274.392 299.216 274.944 299.227 275.574H297.453C297.438 275.262 297.359 274.98 297.219 274.73C297.083 274.475 296.891 274.272 296.641 274.121C296.396 273.97 296.102 273.895 295.758 273.895C295.378 273.895 295.062 273.973 294.812 274.129C294.562 274.28 294.367 274.488 294.227 274.754C294.086 275.014 293.984 275.309 293.922 275.637C293.865 275.96 293.836 276.296 293.836 276.645V276.918C293.836 277.267 293.865 277.605 293.922 277.934C293.979 278.262 294.078 278.556 294.219 278.816C294.365 279.072 294.562 279.277 294.812 279.434C295.062 279.585 295.38 279.66 295.766 279.66ZM302.562 274.16V281.004H300.68V272.551H302.477L302.562 274.16ZM305.148 272.496L305.133 274.246C305.018 274.225 304.893 274.21 304.758 274.199C304.628 274.189 304.497 274.184 304.367 274.184C304.044 274.184 303.76 274.23 303.516 274.324C303.271 274.413 303.065 274.543 302.898 274.715C302.737 274.882 302.612 275.085 302.523 275.324C302.435 275.564 302.383 275.832 302.367 276.129L301.938 276.16C301.938 275.629 301.99 275.137 302.094 274.684C302.198 274.23 302.354 273.832 302.562 273.488C302.776 273.145 303.042 272.876 303.359 272.684C303.682 272.491 304.055 272.395 304.477 272.395C304.591 272.395 304.714 272.405 304.844 272.426C304.979 272.447 305.081 272.47 305.148 272.496ZM310.812 279.309V275.277C310.812 274.975 310.758 274.715 310.648 274.496C310.539 274.277 310.372 274.108 310.148 273.988C309.93 273.868 309.654 273.809 309.32 273.809C309.013 273.809 308.747 273.861 308.523 273.965C308.299 274.069 308.125 274.21 308 274.387C307.875 274.564 307.812 274.764 307.812 274.988H305.938C305.938 274.655 306.018 274.332 306.18 274.02C306.341 273.707 306.576 273.428 306.883 273.184C307.19 272.939 307.557 272.746 307.984 272.605C308.411 272.465 308.891 272.395 309.422 272.395C310.057 272.395 310.62 272.501 311.109 272.715C311.604 272.928 311.992 273.251 312.273 273.684C312.56 274.111 312.703 274.647 312.703 275.293V279.051C312.703 279.436 312.729 279.783 312.781 280.09C312.839 280.392 312.919 280.655 313.023 280.879V281.004H311.094C311.005 280.801 310.935 280.543 310.883 280.23C310.836 279.913 310.812 279.605 310.812 279.309ZM311.086 275.863L311.102 277.027H309.75C309.401 277.027 309.094 277.061 308.828 277.129C308.562 277.191 308.341 277.285 308.164 277.41C307.987 277.535 307.854 277.686 307.766 277.863C307.677 278.04 307.633 278.241 307.633 278.465C307.633 278.689 307.685 278.895 307.789 279.082C307.893 279.264 308.044 279.408 308.242 279.512C308.445 279.616 308.69 279.668 308.977 279.668C309.362 279.668 309.698 279.59 309.984 279.434C310.276 279.272 310.505 279.077 310.672 278.848C310.839 278.613 310.927 278.392 310.938 278.184L311.547 279.02C311.484 279.233 311.378 279.462 311.227 279.707C311.076 279.952 310.878 280.186 310.633 280.41C310.393 280.629 310.104 280.809 309.766 280.949C309.432 281.09 309.047 281.16 308.609 281.16C308.057 281.16 307.565 281.051 307.133 280.832C306.701 280.608 306.362 280.309 306.117 279.934C305.872 279.553 305.75 279.124 305.75 278.645C305.75 278.197 305.833 277.801 306 277.457C306.172 277.108 306.422 276.816 306.75 276.582C307.083 276.348 307.49 276.171 307.969 276.051C308.448 275.926 308.995 275.863 309.609 275.863H311.086ZM318.547 272.551V273.926H313.781V272.551H318.547ZM315.156 270.48H317.039V278.668C317.039 278.928 317.076 279.129 317.148 279.27C317.227 279.405 317.333 279.496 317.469 279.543C317.604 279.59 317.763 279.613 317.945 279.613C318.076 279.613 318.201 279.605 318.32 279.59C318.44 279.574 318.536 279.559 318.609 279.543L318.617 280.98C318.461 281.027 318.279 281.069 318.07 281.105C317.867 281.142 317.633 281.16 317.367 281.16C316.935 281.16 316.552 281.085 316.219 280.934C315.885 280.777 315.625 280.525 315.438 280.176C315.25 279.827 315.156 279.363 315.156 278.785V270.48ZM323.453 279.66C323.76 279.66 324.036 279.6 324.281 279.48C324.531 279.355 324.732 279.184 324.883 278.965C325.039 278.746 325.125 278.493 325.141 278.207H326.914C326.904 278.754 326.742 279.251 326.43 279.699C326.117 280.147 325.703 280.504 325.188 280.77C324.672 281.03 324.102 281.16 323.477 281.16C322.831 281.16 322.268 281.051 321.789 280.832C321.31 280.608 320.911 280.301 320.594 279.91C320.276 279.52 320.036 279.069 319.875 278.559C319.719 278.048 319.641 277.501 319.641 276.918V276.645C319.641 276.061 319.719 275.514 319.875 275.004C320.036 274.488 320.276 274.035 320.594 273.645C320.911 273.254 321.31 272.949 321.789 272.73C322.268 272.507 322.828 272.395 323.469 272.395C324.146 272.395 324.74 272.53 325.25 272.801C325.76 273.066 326.161 273.439 326.453 273.918C326.75 274.392 326.904 274.944 326.914 275.574H325.141C325.125 275.262 325.047 274.98 324.906 274.73C324.771 274.475 324.578 274.272 324.328 274.121C324.083 273.97 323.789 273.895 323.445 273.895C323.065 273.895 322.75 273.973 322.5 274.129C322.25 274.28 322.055 274.488 321.914 274.754C321.773 275.014 321.672 275.309 321.609 275.637C321.552 275.96 321.523 276.296 321.523 276.645V276.918C321.523 277.267 321.552 277.605 321.609 277.934C321.667 278.262 321.766 278.556 321.906 278.816C322.052 279.072 322.25 279.277 322.5 279.434C322.75 279.585 323.068 279.66 323.453 279.66ZM330.219 269.004V281.004H328.344V269.004H330.219ZM329.891 276.465L329.281 276.457C329.286 275.874 329.367 275.335 329.523 274.84C329.685 274.345 329.909 273.915 330.195 273.551C330.487 273.181 330.836 272.897 331.242 272.699C331.648 272.496 332.099 272.395 332.594 272.395C333.01 272.395 333.385 272.452 333.719 272.566C334.057 272.681 334.349 272.866 334.594 273.121C334.839 273.371 335.023 273.699 335.148 274.105C335.279 274.507 335.344 274.996 335.344 275.574V281.004H333.453V275.559C333.453 275.152 333.393 274.829 333.273 274.59C333.159 274.35 332.99 274.178 332.766 274.074C332.542 273.965 332.268 273.91 331.945 273.91C331.607 273.91 331.307 273.978 331.047 274.113C330.792 274.249 330.578 274.434 330.406 274.668C330.234 274.902 330.104 275.173 330.016 275.48C329.932 275.788 329.891 276.116 329.891 276.465Z" fill="#1A1A1A"/>
<path d="M213.339 298.34H214.745V305.554C214.745 306.355 214.567 307.021 214.21 307.554C213.854 308.086 213.38 308.486 212.79 308.755C212.204 309.019 211.566 309.15 210.878 309.15C210.155 309.15 209.501 309.019 208.915 308.755C208.334 308.486 207.873 308.086 207.531 307.554C207.194 307.021 207.025 306.355 207.025 305.554V298.34H208.424V305.554C208.424 306.111 208.527 306.57 208.732 306.931C208.937 307.292 209.223 307.561 209.589 307.737C209.96 307.913 210.39 308 210.878 308C211.371 308 211.801 307.913 212.167 307.737C212.538 307.561 212.826 307.292 213.031 306.931C213.236 306.57 213.339 306.111 213.339 305.554V298.34ZM221.374 306.902C221.374 306.707 221.33 306.526 221.242 306.36C221.159 306.189 220.985 306.035 220.722 305.898C220.463 305.757 220.072 305.635 219.55 305.532C219.11 305.439 218.712 305.33 218.356 305.203C218.004 305.076 217.704 304.922 217.455 304.741C217.211 304.561 217.023 304.348 216.891 304.104C216.759 303.86 216.693 303.574 216.693 303.247C216.693 302.935 216.762 302.639 216.898 302.361C217.04 302.083 217.238 301.836 217.492 301.621C217.75 301.406 218.061 301.238 218.422 301.116C218.783 300.994 219.186 300.933 219.63 300.933C220.265 300.933 220.807 301.045 221.256 301.27C221.706 301.494 222.05 301.794 222.289 302.17C222.528 302.542 222.648 302.954 222.648 303.408H221.293C221.293 303.188 221.227 302.976 221.095 302.771C220.968 302.561 220.78 302.388 220.531 302.251C220.287 302.114 219.987 302.046 219.63 302.046C219.254 302.046 218.949 302.104 218.715 302.222C218.485 302.334 218.317 302.478 218.209 302.654C218.107 302.83 218.056 303.015 218.056 303.21C218.056 303.357 218.08 303.489 218.129 303.606C218.183 303.718 218.275 303.823 218.407 303.921C218.539 304.014 218.725 304.102 218.964 304.185C219.203 304.268 219.508 304.351 219.879 304.434C220.529 304.58 221.063 304.756 221.483 304.961C221.903 305.166 222.216 305.417 222.421 305.715C222.626 306.013 222.729 306.375 222.729 306.799C222.729 307.146 222.655 307.463 222.509 307.751C222.367 308.04 222.16 308.289 221.886 308.499C221.618 308.704 221.295 308.865 220.919 308.982C220.548 309.094 220.131 309.15 219.667 309.15C218.969 309.15 218.378 309.026 217.895 308.777C217.411 308.528 217.045 308.206 216.796 307.81C216.547 307.415 216.422 306.997 216.422 306.558H217.785C217.804 306.929 217.912 307.224 218.107 307.444C218.302 307.659 218.542 307.812 218.825 307.905C219.108 307.993 219.389 308.037 219.667 308.037C220.038 308.037 220.348 307.988 220.597 307.891C220.851 307.793 221.044 307.659 221.176 307.488C221.308 307.317 221.374 307.122 221.374 306.902ZM227.797 309.15C227.245 309.15 226.745 309.058 226.295 308.872C225.851 308.682 225.468 308.416 225.146 308.074C224.828 307.732 224.584 307.327 224.413 306.858C224.242 306.389 224.157 305.876 224.157 305.32V305.012C224.157 304.368 224.252 303.794 224.442 303.291C224.633 302.783 224.892 302.354 225.219 302.002C225.546 301.65 225.917 301.384 226.332 301.204C226.747 301.023 227.177 300.933 227.621 300.933C228.188 300.933 228.676 301.03 229.086 301.226C229.501 301.421 229.84 301.694 230.104 302.046C230.368 302.393 230.563 302.803 230.69 303.276C230.817 303.745 230.88 304.258 230.88 304.814V305.422H224.962V304.316H229.525V304.214C229.506 303.862 229.433 303.521 229.306 303.188C229.184 302.856 228.988 302.583 228.72 302.368C228.451 302.153 228.085 302.046 227.621 302.046C227.313 302.046 227.03 302.112 226.771 302.244C226.513 302.371 226.291 302.561 226.105 302.815C225.919 303.069 225.775 303.379 225.673 303.745C225.57 304.111 225.519 304.534 225.519 305.012V305.32C225.519 305.696 225.57 306.05 225.673 306.382C225.78 306.709 225.934 306.997 226.134 307.246C226.339 307.495 226.586 307.69 226.874 307.832C227.167 307.974 227.499 308.044 227.87 308.044C228.349 308.044 228.754 307.947 229.086 307.751C229.418 307.556 229.708 307.295 229.958 306.968L230.778 307.62C230.607 307.878 230.39 308.125 230.126 308.359C229.862 308.594 229.538 308.784 229.152 308.931C228.771 309.077 228.319 309.15 227.797 309.15ZM239.501 301.079V302.119H235.216V301.079H239.501ZM236.667 299.153H238.021V307.041C238.021 307.31 238.063 307.512 238.146 307.649C238.229 307.786 238.336 307.876 238.468 307.92C238.6 307.964 238.742 307.986 238.893 307.986C239.005 307.986 239.123 307.976 239.245 307.957C239.372 307.932 239.467 307.913 239.53 307.898L239.538 309.004C239.43 309.038 239.289 309.07 239.113 309.099C238.942 309.133 238.734 309.15 238.49 309.15C238.158 309.15 237.853 309.084 237.575 308.953C237.296 308.821 237.074 308.601 236.908 308.293C236.747 307.981 236.667 307.561 236.667 307.034V299.153ZM242.445 297.754V309.004H241.09V297.754H242.445ZM242.123 304.741L241.559 304.719C241.564 304.177 241.645 303.677 241.801 303.218C241.957 302.754 242.177 302.351 242.46 302.009C242.743 301.667 243.08 301.404 243.471 301.218C243.866 301.028 244.303 300.933 244.782 300.933C245.172 300.933 245.524 300.986 245.836 301.094C246.149 301.196 246.415 301.362 246.635 301.592C246.859 301.821 247.03 302.119 247.147 302.485C247.265 302.847 247.323 303.289 247.323 303.811V309.004H245.961V303.796C245.961 303.381 245.9 303.049 245.778 302.8C245.656 302.546 245.478 302.363 245.243 302.251C245.009 302.134 244.721 302.075 244.379 302.075C244.042 302.075 243.734 302.146 243.456 302.288C243.183 302.429 242.946 302.625 242.746 302.874C242.55 303.123 242.396 303.408 242.284 303.73C242.177 304.048 242.123 304.385 242.123 304.741ZM250.824 301.079V309.004H249.462V301.079H250.824ZM249.359 298.977C249.359 298.757 249.425 298.572 249.557 298.42C249.694 298.269 249.894 298.193 250.158 298.193C250.417 298.193 250.614 298.269 250.751 298.42C250.893 298.572 250.963 298.757 250.963 298.977C250.963 299.187 250.893 299.368 250.751 299.519C250.614 299.666 250.417 299.739 250.158 299.739C249.894 299.739 249.694 299.666 249.557 299.519C249.425 299.368 249.359 299.187 249.359 298.977ZM257.614 306.902C257.614 306.707 257.57 306.526 257.482 306.36C257.399 306.189 257.226 306.035 256.962 305.898C256.703 305.757 256.312 305.635 255.79 305.532C255.351 305.439 254.953 305.33 254.596 305.203C254.245 305.076 253.944 304.922 253.695 304.741C253.451 304.561 253.263 304.348 253.131 304.104C253 303.86 252.934 303.574 252.934 303.247C252.934 302.935 253.002 302.639 253.139 302.361C253.28 302.083 253.478 301.836 253.732 301.621C253.991 301.406 254.301 301.238 254.662 301.116C255.023 300.994 255.426 300.933 255.871 300.933C256.505 300.933 257.047 301.045 257.497 301.27C257.946 301.494 258.29 301.794 258.529 302.17C258.769 302.542 258.888 302.954 258.888 303.408H257.533C257.533 303.188 257.467 302.976 257.335 302.771C257.208 302.561 257.021 302.388 256.771 302.251C256.527 302.114 256.227 302.046 255.871 302.046C255.495 302.046 255.189 302.104 254.955 302.222C254.726 302.334 254.557 302.478 254.45 302.654C254.347 302.83 254.296 303.015 254.296 303.21C254.296 303.357 254.32 303.489 254.369 303.606C254.423 303.718 254.516 303.823 254.647 303.921C254.779 304.014 254.965 304.102 255.204 304.185C255.443 304.268 255.749 304.351 256.12 304.434C256.769 304.58 257.304 304.756 257.724 304.961C258.144 305.166 258.456 305.417 258.661 305.715C258.866 306.013 258.969 306.375 258.969 306.799C258.969 307.146 258.896 307.463 258.749 307.751C258.607 308.04 258.4 308.289 258.126 308.499C257.858 308.704 257.536 308.865 257.16 308.982C256.789 309.094 256.371 309.15 255.907 309.15C255.209 309.15 254.618 309.026 254.135 308.777C253.651 308.528 253.285 308.206 253.036 307.81C252.787 307.415 252.663 306.997 252.663 306.558H254.025C254.044 306.929 254.152 307.224 254.347 307.444C254.542 307.659 254.782 307.812 255.065 307.905C255.348 307.993 255.629 308.037 255.907 308.037C256.278 308.037 256.588 307.988 256.837 307.891C257.091 307.793 257.284 307.659 257.416 307.488C257.548 307.317 257.614 307.122 257.614 306.902ZM267.787 301.079V302.119H263.502V301.079H267.787ZM264.953 299.153H266.308V307.041C266.308 307.31 266.349 307.512 266.432 307.649C266.515 307.786 266.623 307.876 266.754 307.92C266.886 307.964 267.028 307.986 267.179 307.986C267.292 307.986 267.409 307.976 267.531 307.957C267.658 307.932 267.753 307.913 267.816 307.898L267.824 309.004C267.716 309.038 267.575 309.07 267.399 309.099C267.228 309.133 267.021 309.15 266.776 309.15C266.444 309.15 266.139 309.084 265.861 308.953C265.583 308.821 265.36 308.601 265.194 308.293C265.033 307.981 264.953 307.561 264.953 307.034V299.153ZM272.665 309.15C272.113 309.15 271.613 309.058 271.164 308.872C270.719 308.682 270.336 308.416 270.014 308.074C269.696 307.732 269.452 307.327 269.281 306.858C269.11 306.389 269.025 305.876 269.025 305.32V305.012C269.025 304.368 269.12 303.794 269.311 303.291C269.501 302.783 269.76 302.354 270.087 302.002C270.414 301.65 270.785 301.384 271.2 301.204C271.615 301.023 272.045 300.933 272.489 300.933C273.056 300.933 273.544 301.03 273.954 301.226C274.369 301.421 274.708 301.694 274.972 302.046C275.236 302.393 275.431 302.803 275.558 303.276C275.685 303.745 275.749 304.258 275.749 304.814V305.422H269.831V304.316H274.394V304.214C274.374 303.862 274.301 303.521 274.174 303.188C274.052 302.856 273.856 302.583 273.588 302.368C273.319 302.153 272.953 302.046 272.489 302.046C272.182 302.046 271.898 302.112 271.64 302.244C271.381 302.371 271.159 302.561 270.973 302.815C270.788 303.069 270.644 303.379 270.541 303.745C270.438 304.111 270.387 304.534 270.387 305.012V305.32C270.387 305.696 270.438 306.05 270.541 306.382C270.648 306.709 270.802 306.997 271.002 307.246C271.208 307.495 271.454 307.69 271.742 307.832C272.035 307.974 272.367 308.044 272.738 308.044C273.217 308.044 273.622 307.947 273.954 307.751C274.286 307.556 274.577 307.295 274.826 306.968L275.646 307.62C275.475 307.878 275.258 308.125 274.994 308.359C274.73 308.594 274.406 308.784 274.02 308.931C273.639 309.077 273.188 309.15 272.665 309.15ZM278.678 302.654V309.004H277.316V301.079H278.605L278.678 302.654ZM278.4 304.741L277.77 304.719C277.775 304.177 277.846 303.677 277.982 303.218C278.119 302.754 278.322 302.351 278.59 302.009C278.859 301.667 279.193 301.404 279.594 301.218C279.994 301.028 280.458 300.933 280.985 300.933C281.356 300.933 281.698 300.986 282.011 301.094C282.323 301.196 282.594 301.36 282.824 301.584C283.053 301.809 283.231 302.097 283.358 302.449C283.485 302.8 283.549 303.225 283.549 303.723V309.004H282.194V303.789C282.194 303.374 282.123 303.042 281.981 302.793C281.845 302.544 281.649 302.363 281.396 302.251C281.142 302.134 280.844 302.075 280.502 302.075C280.102 302.075 279.767 302.146 279.499 302.288C279.23 302.429 279.015 302.625 278.854 302.874C278.693 303.123 278.576 303.408 278.502 303.73C278.434 304.048 278.4 304.385 278.4 304.741ZM283.534 303.994L282.626 304.272C282.631 303.838 282.702 303.42 282.838 303.02C282.98 302.62 283.183 302.263 283.446 301.951C283.715 301.638 284.044 301.392 284.435 301.211C284.826 301.025 285.272 300.933 285.775 300.933C286.2 300.933 286.576 300.989 286.903 301.101C287.235 301.213 287.514 301.387 287.738 301.621C287.968 301.851 288.141 302.146 288.258 302.507C288.375 302.869 288.434 303.298 288.434 303.796V309.004H287.072V303.782C287.072 303.337 287.001 302.993 286.859 302.749C286.723 302.5 286.527 302.327 286.273 302.229C286.024 302.126 285.727 302.075 285.38 302.075C285.082 302.075 284.818 302.126 284.589 302.229C284.359 302.332 284.167 302.473 284.01 302.654C283.854 302.83 283.734 303.032 283.651 303.262C283.573 303.491 283.534 303.735 283.534 303.994ZM291.84 302.603V312.051H290.478V301.079H291.723L291.84 302.603ZM297.179 304.976V305.129C297.179 305.706 297.111 306.24 296.974 306.733C296.837 307.222 296.637 307.646 296.374 308.008C296.115 308.369 295.795 308.65 295.414 308.85C295.033 309.05 294.596 309.15 294.103 309.15C293.6 309.15 293.156 309.067 292.77 308.901C292.384 308.735 292.057 308.494 291.789 308.176C291.52 307.859 291.305 307.478 291.144 307.034C290.988 306.589 290.88 306.089 290.822 305.532V304.712C290.88 304.126 290.99 303.601 291.151 303.137C291.312 302.673 291.525 302.278 291.789 301.951C292.057 301.619 292.382 301.367 292.763 301.196C293.144 301.021 293.583 300.933 294.081 300.933C294.579 300.933 295.021 301.03 295.407 301.226C295.792 301.416 296.117 301.689 296.381 302.046C296.645 302.402 296.842 302.83 296.974 303.328C297.111 303.821 297.179 304.37 297.179 304.976ZM295.817 305.129V304.976C295.817 304.58 295.775 304.209 295.692 303.862C295.609 303.511 295.48 303.203 295.304 302.939C295.133 302.671 294.914 302.461 294.645 302.31C294.376 302.153 294.057 302.075 293.686 302.075C293.344 302.075 293.046 302.134 292.792 302.251C292.543 302.368 292.331 302.527 292.155 302.727C291.979 302.922 291.835 303.147 291.723 303.401C291.615 303.65 291.535 303.909 291.481 304.177V306.074C291.579 306.416 291.715 306.738 291.891 307.041C292.067 307.339 292.301 307.581 292.594 307.766C292.887 307.947 293.256 308.037 293.7 308.037C294.066 308.037 294.381 307.961 294.645 307.81C294.914 307.654 295.133 307.441 295.304 307.173C295.48 306.904 295.609 306.597 295.692 306.25C295.775 305.898 295.817 305.525 295.817 305.129ZM300.38 297.754V309.004H299.018V297.754H300.38ZM307.228 307.649V303.569C307.228 303.257 307.165 302.986 307.038 302.756C306.916 302.522 306.73 302.341 306.481 302.214C306.232 302.087 305.924 302.024 305.558 302.024C305.216 302.024 304.916 302.083 304.657 302.2C304.403 302.317 304.203 302.471 304.057 302.661C303.915 302.852 303.844 303.057 303.844 303.276H302.489C302.489 302.993 302.562 302.712 302.709 302.434C302.855 302.156 303.065 301.904 303.339 301.68C303.617 301.45 303.949 301.27 304.335 301.138C304.726 301.001 305.16 300.933 305.639 300.933C306.215 300.933 306.723 301.03 307.162 301.226C307.606 301.421 307.953 301.716 308.202 302.112C308.456 302.502 308.583 302.993 308.583 303.584V307.275C308.583 307.539 308.605 307.82 308.649 308.118C308.698 308.416 308.769 308.672 308.861 308.887V309.004H307.448C307.379 308.848 307.326 308.64 307.287 308.381C307.248 308.118 307.228 307.874 307.228 307.649ZM307.462 304.199L307.477 305.151H306.107C305.722 305.151 305.377 305.183 305.075 305.247C304.772 305.305 304.518 305.396 304.313 305.518C304.108 305.64 303.952 305.793 303.844 305.979C303.737 306.16 303.683 306.372 303.683 306.616C303.683 306.865 303.739 307.092 303.852 307.297C303.964 307.502 304.132 307.666 304.357 307.788C304.586 307.905 304.867 307.964 305.199 307.964C305.614 307.964 305.98 307.876 306.298 307.7C306.615 307.524 306.867 307.31 307.052 307.056C307.243 306.802 307.345 306.555 307.36 306.316L307.938 306.968C307.904 307.173 307.812 307.4 307.66 307.649C307.509 307.898 307.306 308.137 307.052 308.367C306.803 308.591 306.505 308.779 306.159 308.931C305.817 309.077 305.431 309.15 305.001 309.15C304.464 309.15 303.993 309.045 303.588 308.835C303.188 308.625 302.875 308.345 302.65 307.993C302.431 307.637 302.321 307.239 302.321 306.799C302.321 306.375 302.404 306.001 302.57 305.679C302.736 305.352 302.975 305.081 303.288 304.866C303.6 304.646 303.976 304.48 304.416 304.368C304.855 304.255 305.346 304.199 305.888 304.199H307.462ZM314.032 301.079V302.119H309.748V301.079H314.032ZM311.198 299.153H312.553V307.041C312.553 307.31 312.594 307.512 312.677 307.649C312.76 307.786 312.868 307.876 313 307.92C313.131 307.964 313.273 307.986 313.424 307.986C313.537 307.986 313.654 307.976 313.776 307.957C313.903 307.932 313.998 307.913 314.062 307.898L314.069 309.004C313.961 309.038 313.82 309.07 313.644 309.099C313.473 309.133 313.266 309.15 313.021 309.15C312.689 309.15 312.384 309.084 312.106 308.953C311.828 308.821 311.605 308.601 311.439 308.293C311.278 307.981 311.198 307.561 311.198 307.034V299.153ZM318.91 309.15C318.358 309.15 317.858 309.058 317.409 308.872C316.964 308.682 316.581 308.416 316.259 308.074C315.941 307.732 315.697 307.327 315.526 306.858C315.355 306.389 315.27 305.876 315.27 305.32V305.012C315.27 304.368 315.365 303.794 315.556 303.291C315.746 302.783 316.005 302.354 316.332 302.002C316.659 301.65 317.03 301.384 317.445 301.204C317.86 301.023 318.29 300.933 318.734 300.933C319.301 300.933 319.789 301.03 320.199 301.226C320.614 301.421 320.954 301.694 321.217 302.046C321.481 302.393 321.676 302.803 321.803 303.276C321.93 303.745 321.994 304.258 321.994 304.814V305.422H316.076V304.316H320.639V304.214C320.619 303.862 320.546 303.521 320.419 303.188C320.297 302.856 320.102 302.583 319.833 302.368C319.564 302.153 319.198 302.046 318.734 302.046C318.427 302.046 318.144 302.112 317.885 302.244C317.626 302.371 317.404 302.561 317.218 302.815C317.033 303.069 316.889 303.379 316.786 303.745C316.684 304.111 316.632 304.534 316.632 305.012V305.32C316.632 305.696 316.684 306.05 316.786 306.382C316.894 306.709 317.047 306.997 317.248 307.246C317.453 307.495 317.699 307.69 317.987 307.832C318.28 307.974 318.612 308.044 318.983 308.044C319.462 308.044 319.867 307.947 320.199 307.751C320.531 307.556 320.822 307.295 321.071 306.968L321.891 307.62C321.72 307.878 321.503 308.125 321.239 308.359C320.976 308.594 320.651 308.784 320.265 308.931C319.884 309.077 319.433 309.15 318.91 309.15ZM330.614 301.079V302.119H326.33V301.079H330.614ZM327.78 299.153H329.135V307.041C329.135 307.31 329.176 307.512 329.259 307.649C329.342 307.786 329.45 307.876 329.582 307.92C329.713 307.964 329.855 307.986 330.006 307.986C330.119 307.986 330.236 307.976 330.358 307.957C330.485 307.932 330.58 307.913 330.644 307.898L330.651 309.004C330.543 309.038 330.402 309.07 330.226 309.099C330.055 309.133 329.848 309.15 329.604 309.15C329.271 309.15 328.966 309.084 328.688 308.953C328.41 308.821 328.188 308.601 328.021 308.293C327.86 307.981 327.78 307.561 327.78 307.034V299.153ZM331.698 305.129V304.961C331.698 304.39 331.781 303.86 331.947 303.372C332.113 302.878 332.353 302.451 332.665 302.09C332.978 301.724 333.356 301.44 333.8 301.24C334.245 301.035 334.743 300.933 335.294 300.933C335.851 300.933 336.352 301.035 336.796 301.24C337.245 301.44 337.626 301.724 337.938 302.09C338.256 302.451 338.498 302.878 338.664 303.372C338.83 303.86 338.913 304.39 338.913 304.961V305.129C338.913 305.701 338.83 306.23 338.664 306.719C338.498 307.207 338.256 307.634 337.938 308C337.626 308.362 337.248 308.645 336.803 308.85C336.364 309.05 335.866 309.15 335.309 309.15C334.752 309.15 334.252 309.05 333.808 308.85C333.363 308.645 332.982 308.362 332.665 308C332.353 307.634 332.113 307.207 331.947 306.719C331.781 306.23 331.698 305.701 331.698 305.129ZM333.053 304.961V305.129C333.053 305.525 333.1 305.898 333.192 306.25C333.285 306.597 333.424 306.904 333.61 307.173C333.8 307.441 334.037 307.654 334.32 307.81C334.604 307.961 334.933 308.037 335.309 308.037C335.68 308.037 336.005 307.961 336.283 307.81C336.566 307.654 336.801 307.441 336.986 307.173C337.172 306.904 337.311 306.597 337.404 306.25C337.501 305.898 337.55 305.525 337.55 305.129V304.961C337.55 304.57 337.501 304.202 337.404 303.855C337.311 303.503 337.169 303.193 336.979 302.925C336.793 302.651 336.559 302.437 336.276 302.28C335.998 302.124 335.67 302.046 335.294 302.046C334.923 302.046 334.596 302.124 334.313 302.28C334.035 302.437 333.8 302.651 333.61 302.925C333.424 303.193 333.285 303.503 333.192 303.855C333.1 304.202 333.053 304.57 333.053 304.961ZM347.504 308.037C347.826 308.037 348.124 307.971 348.397 307.839C348.671 307.708 348.896 307.527 349.071 307.297C349.247 307.063 349.347 306.797 349.372 306.499H350.661C350.636 306.968 350.478 307.405 350.185 307.81C349.896 308.21 349.518 308.535 349.049 308.784C348.581 309.028 348.065 309.15 347.504 309.15C346.908 309.15 346.388 309.045 345.944 308.835C345.504 308.625 345.138 308.337 344.845 307.971C344.557 307.605 344.34 307.185 344.193 306.711C344.052 306.233 343.981 305.728 343.981 305.195V304.888C343.981 304.355 344.052 303.853 344.193 303.379C344.34 302.9 344.557 302.478 344.845 302.112C345.138 301.746 345.504 301.458 345.944 301.248C346.388 301.038 346.908 300.933 347.504 300.933C348.124 300.933 348.666 301.06 349.13 301.313C349.594 301.562 349.958 301.904 350.221 302.339C350.49 302.769 350.636 303.257 350.661 303.804H349.372C349.347 303.477 349.254 303.181 349.093 302.917C348.937 302.654 348.722 302.444 348.449 302.288C348.18 302.126 347.865 302.046 347.504 302.046C347.089 302.046 346.74 302.129 346.457 302.295C346.178 302.456 345.956 302.676 345.79 302.954C345.629 303.228 345.512 303.533 345.438 303.87C345.37 304.202 345.336 304.541 345.336 304.888V305.195C345.336 305.542 345.37 305.884 345.438 306.221C345.507 306.558 345.622 306.863 345.783 307.136C345.949 307.41 346.171 307.629 346.449 307.795C346.732 307.957 347.084 308.037 347.504 308.037ZM353.539 302.324V309.004H352.184V301.079H353.502L353.539 302.324ZM356.015 301.035L356.007 302.295C355.895 302.271 355.788 302.256 355.685 302.251C355.587 302.241 355.475 302.236 355.348 302.236C355.036 302.236 354.76 302.285 354.521 302.383C354.281 302.48 354.079 302.617 353.913 302.793C353.747 302.969 353.615 303.179 353.517 303.423C353.424 303.662 353.363 303.926 353.334 304.214L352.953 304.434C352.953 303.955 353 303.506 353.092 303.086C353.19 302.666 353.339 302.295 353.539 301.973C353.739 301.646 353.993 301.392 354.301 301.211C354.613 301.025 354.984 300.933 355.414 300.933C355.512 300.933 355.624 300.945 355.751 300.969C355.878 300.989 355.966 301.011 356.015 301.035ZM360.409 309.15C359.857 309.15 359.357 309.058 358.908 308.872C358.463 308.682 358.08 308.416 357.758 308.074C357.44 307.732 357.196 307.327 357.025 306.858C356.854 306.389 356.769 305.876 356.769 305.32V305.012C356.769 304.368 356.864 303.794 357.055 303.291C357.245 302.783 357.504 302.354 357.831 302.002C358.158 301.65 358.529 301.384 358.944 301.204C359.359 301.023 359.789 300.933 360.233 300.933C360.8 300.933 361.288 301.03 361.698 301.226C362.113 301.421 362.453 301.694 362.716 302.046C362.98 302.393 363.175 302.803 363.302 303.276C363.429 303.745 363.493 304.258 363.493 304.814V305.422H357.575V304.316H362.138V304.214C362.118 303.862 362.045 303.521 361.918 303.188C361.796 302.856 361.601 302.583 361.332 302.368C361.063 302.153 360.697 302.046 360.233 302.046C359.926 302.046 359.643 302.112 359.384 302.244C359.125 302.371 358.903 302.561 358.717 302.815C358.532 303.069 358.388 303.379 358.285 303.745C358.183 304.111 358.131 304.534 358.131 305.012V305.32C358.131 305.696 358.183 306.05 358.285 306.382C358.393 306.709 358.546 306.997 358.747 307.246C358.952 307.495 359.198 307.69 359.486 307.832C359.779 307.974 360.111 308.044 360.482 308.044C360.961 308.044 361.366 307.947 361.698 307.751C362.03 307.556 362.321 307.295 362.57 306.968L363.39 307.62C363.219 307.878 363.002 308.125 362.738 308.359C362.475 308.594 362.15 308.784 361.764 308.931C361.383 309.077 360.932 309.15 360.409 309.15ZM369.748 307.649V303.569C369.748 303.257 369.684 302.986 369.557 302.756C369.435 302.522 369.25 302.341 369 302.214C368.751 302.087 368.444 302.024 368.078 302.024C367.736 302.024 367.436 302.083 367.177 302.2C366.923 302.317 366.723 302.471 366.576 302.661C366.435 302.852 366.364 303.057 366.364 303.276H365.009C365.009 302.993 365.082 302.712 365.229 302.434C365.375 302.156 365.585 301.904 365.858 301.68C366.137 301.45 366.469 301.27 366.854 301.138C367.245 301.001 367.68 300.933 368.158 300.933C368.734 300.933 369.242 301.03 369.682 301.226C370.126 301.421 370.473 301.716 370.722 302.112C370.976 302.502 371.103 302.993 371.103 303.584V307.275C371.103 307.539 371.125 307.82 371.168 308.118C371.217 308.416 371.288 308.672 371.381 308.887V309.004H369.967C369.899 308.848 369.845 308.64 369.806 308.381C369.767 308.118 369.748 307.874 369.748 307.649ZM369.982 304.199L369.997 305.151H368.627C368.241 305.151 367.897 305.183 367.594 305.247C367.292 305.305 367.038 305.396 366.833 305.518C366.627 305.64 366.471 305.793 366.364 305.979C366.256 306.16 366.203 306.372 366.203 306.616C366.203 306.865 366.259 307.092 366.371 307.297C366.483 307.502 366.652 307.666 366.876 307.788C367.106 307.905 367.387 307.964 367.719 307.964C368.134 307.964 368.5 307.876 368.817 307.7C369.135 307.524 369.386 307.31 369.572 307.056C369.762 306.802 369.865 306.555 369.879 306.316L370.458 306.968C370.424 307.173 370.331 307.4 370.18 307.649C370.028 307.898 369.826 308.137 369.572 308.367C369.323 308.591 369.025 308.779 368.678 308.931C368.336 309.077 367.951 309.15 367.521 309.15C366.984 309.15 366.513 309.045 366.107 308.835C365.707 308.625 365.395 308.345 365.17 307.993C364.95 307.637 364.84 307.239 364.84 306.799C364.84 306.375 364.923 306.001 365.089 305.679C365.255 305.352 365.495 305.081 365.807 304.866C366.12 304.646 366.496 304.48 366.935 304.368C367.375 304.255 367.865 304.199 368.407 304.199H369.982ZM376.552 301.079V302.119H372.267V301.079H376.552ZM373.717 299.153H375.072V307.041C375.072 307.31 375.114 307.512 375.197 307.649C375.28 307.786 375.387 307.876 375.519 307.92C375.651 307.964 375.792 307.986 375.944 307.986C376.056 307.986 376.173 307.976 376.295 307.957C376.422 307.932 376.518 307.913 376.581 307.898L376.588 309.004C376.481 309.038 376.339 309.07 376.164 309.099C375.993 309.133 375.785 309.15 375.541 309.15C375.209 309.15 374.904 309.084 374.625 308.953C374.347 308.821 374.125 308.601 373.959 308.293C373.798 307.981 373.717 307.561 373.717 307.034V299.153ZM381.43 309.15C380.878 309.15 380.377 309.058 379.928 308.872C379.484 308.682 379.101 308.416 378.778 308.074C378.461 307.732 378.217 307.327 378.046 306.858C377.875 306.389 377.79 305.876 377.79 305.32V305.012C377.79 304.368 377.885 303.794 378.075 303.291C378.266 302.783 378.524 302.354 378.852 302.002C379.179 301.65 379.55 301.384 379.965 301.204C380.38 301.023 380.81 300.933 381.254 300.933C381.82 300.933 382.309 301.03 382.719 301.226C383.134 301.421 383.473 301.694 383.737 302.046C384 302.393 384.196 302.803 384.323 303.276C384.45 303.745 384.513 304.258 384.513 304.814V305.422H378.595V304.316H383.158V304.214C383.139 303.862 383.065 303.521 382.938 303.188C382.816 302.856 382.621 302.583 382.353 302.368C382.084 302.153 381.718 302.046 381.254 302.046C380.946 302.046 380.663 302.112 380.404 302.244C380.146 302.371 379.923 302.561 379.738 302.815C379.552 303.069 379.408 303.379 379.306 303.745C379.203 304.111 379.152 304.534 379.152 305.012V305.32C379.152 305.696 379.203 306.05 379.306 306.382C379.413 306.709 379.567 306.997 379.767 307.246C379.972 307.495 380.219 307.69 380.507 307.832C380.8 307.974 381.132 308.044 381.503 308.044C381.981 308.044 382.387 307.947 382.719 307.751C383.051 307.556 383.341 307.295 383.59 306.968L384.411 307.62C384.24 307.878 384.022 308.125 383.759 308.359C383.495 308.594 383.17 308.784 382.785 308.931C382.404 309.077 381.952 309.15 381.43 309.15ZM394.489 307.649V303.569C394.489 303.257 394.425 302.986 394.298 302.756C394.176 302.522 393.991 302.341 393.742 302.214C393.493 302.087 393.185 302.024 392.819 302.024C392.477 302.024 392.177 302.083 391.918 302.2C391.664 302.317 391.464 302.471 391.317 302.661C391.176 302.852 391.105 303.057 391.105 303.276H389.75C389.75 302.993 389.823 302.712 389.97 302.434C390.116 302.156 390.326 301.904 390.6 301.68C390.878 301.45 391.21 301.27 391.596 301.138C391.986 301.001 392.421 300.933 392.899 300.933C393.476 300.933 393.983 301.03 394.423 301.226C394.867 301.421 395.214 301.716 395.463 302.112C395.717 302.502 395.844 302.993 395.844 303.584V307.275C395.844 307.539 395.866 307.82 395.91 308.118C395.958 308.416 396.029 308.672 396.122 308.887V309.004H394.708C394.64 308.848 394.586 308.64 394.547 308.381C394.508 308.118 394.489 307.874 394.489 307.649ZM394.723 304.199L394.738 305.151H393.368C392.982 305.151 392.638 305.183 392.335 305.247C392.033 305.305 391.779 305.396 391.574 305.518C391.369 305.64 391.212 305.793 391.105 305.979C390.998 306.16 390.944 306.372 390.944 306.616C390.944 306.865 391 307.092 391.112 307.297C391.225 307.502 391.393 307.666 391.618 307.788C391.847 307.905 392.128 307.964 392.46 307.964C392.875 307.964 393.241 307.876 393.559 307.7C393.876 307.524 394.127 307.31 394.313 307.056C394.503 306.802 394.606 306.555 394.621 306.316L395.199 306.968C395.165 307.173 395.072 307.4 394.921 307.649C394.77 307.898 394.567 308.137 394.313 308.367C394.064 308.591 393.766 308.779 393.419 308.931C393.078 309.077 392.692 309.15 392.262 309.15C391.725 309.15 391.254 309.045 390.849 308.835C390.448 308.625 390.136 308.345 389.911 307.993C389.691 307.637 389.582 307.239 389.582 306.799C389.582 306.375 389.665 306.001 389.831 305.679C389.997 305.352 390.236 305.081 390.548 304.866C390.861 304.646 391.237 304.48 391.676 304.368C392.116 304.255 392.606 304.199 393.148 304.199H394.723ZM403.717 309.004H402.362V300.244C402.362 299.673 402.465 299.192 402.67 298.801C402.88 298.406 403.18 298.108 403.571 297.908C403.961 297.703 404.425 297.6 404.962 297.6C405.119 297.6 405.275 297.61 405.431 297.629C405.592 297.649 405.749 297.678 405.9 297.717L405.827 298.823C405.724 298.799 405.607 298.782 405.475 298.772C405.348 298.762 405.221 298.757 405.094 298.757C404.806 298.757 404.557 298.816 404.347 298.933C404.142 299.045 403.986 299.211 403.878 299.431C403.771 299.651 403.717 299.922 403.717 300.244V309.004ZM405.402 301.079V302.119H401.11V301.079H405.402ZM406.552 305.129V304.961C406.552 304.39 406.635 303.86 406.801 303.372C406.967 302.878 407.206 302.451 407.519 302.09C407.831 301.724 408.209 301.44 408.654 301.24C409.098 301.035 409.596 300.933 410.148 300.933C410.705 300.933 411.205 301.035 411.649 301.24C412.099 301.44 412.479 301.724 412.792 302.09C413.109 302.451 413.351 302.878 413.517 303.372C413.683 303.86 413.766 304.39 413.766 304.961V305.129C413.766 305.701 413.683 306.23 413.517 306.719C413.351 307.207 413.109 307.634 412.792 308C412.479 308.362 412.101 308.645 411.657 308.85C411.217 309.05 410.719 309.15 410.163 309.15C409.606 309.15 409.105 309.05 408.661 308.85C408.217 308.645 407.836 308.362 407.519 308C407.206 307.634 406.967 307.207 406.801 306.719C406.635 306.23 406.552 305.701 406.552 305.129ZM407.907 304.961V305.129C407.907 305.525 407.953 305.898 408.046 306.25C408.139 306.597 408.278 306.904 408.463 307.173C408.654 307.441 408.891 307.654 409.174 307.81C409.457 307.961 409.787 308.037 410.163 308.037C410.534 308.037 410.858 307.961 411.137 307.81C411.42 307.654 411.654 307.441 411.84 307.173C412.025 306.904 412.165 306.597 412.257 306.25C412.355 305.898 412.404 305.525 412.404 305.129V304.961C412.404 304.57 412.355 304.202 412.257 303.855C412.165 303.503 412.023 303.193 411.833 302.925C411.647 302.651 411.413 302.437 411.129 302.28C410.851 302.124 410.524 302.046 410.148 302.046C409.777 302.046 409.45 302.124 409.167 302.28C408.888 302.437 408.654 302.651 408.463 302.925C408.278 303.193 408.139 303.503 408.046 303.855C407.953 304.202 407.907 304.57 407.907 304.961ZM416.82 302.324V309.004H415.465V301.079H416.784L416.82 302.324ZM419.296 301.035L419.289 302.295C419.176 302.271 419.069 302.256 418.966 302.251C418.869 302.241 418.756 302.236 418.629 302.236C418.317 302.236 418.041 302.285 417.802 302.383C417.562 302.48 417.36 302.617 417.194 302.793C417.028 302.969 416.896 303.179 416.798 303.423C416.706 303.662 416.645 303.926 416.615 304.214L416.234 304.434C416.234 303.955 416.281 303.506 416.374 303.086C416.471 302.666 416.62 302.295 416.82 301.973C417.021 301.646 417.274 301.392 417.582 301.211C417.895 301.025 418.266 300.933 418.695 300.933C418.793 300.933 418.905 300.945 419.032 300.969C419.159 300.989 419.247 301.011 419.296 301.035ZM421.896 302.654V309.004H420.534V301.079H421.823L421.896 302.654ZM421.618 304.741L420.988 304.719C420.993 304.177 421.063 303.677 421.2 303.218C421.337 302.754 421.54 302.351 421.808 302.009C422.077 301.667 422.411 301.404 422.812 301.218C423.212 301.028 423.676 300.933 424.203 300.933C424.574 300.933 424.916 300.986 425.229 301.094C425.541 301.196 425.812 301.36 426.042 301.584C426.271 301.809 426.449 302.097 426.576 302.449C426.703 302.8 426.767 303.225 426.767 303.723V309.004H425.412V303.789C425.412 303.374 425.341 303.042 425.199 302.793C425.062 302.544 424.867 302.363 424.613 302.251C424.359 302.134 424.062 302.075 423.72 302.075C423.319 302.075 422.985 302.146 422.716 302.288C422.448 302.429 422.233 302.625 422.072 302.874C421.911 303.123 421.793 303.408 421.72 303.73C421.652 304.048 421.618 304.385 421.618 304.741ZM426.752 303.994L425.844 304.272C425.849 303.838 425.919 303.42 426.056 303.02C426.198 302.62 426.4 302.263 426.664 301.951C426.933 301.638 427.262 301.392 427.653 301.211C428.043 301.025 428.49 300.933 428.993 300.933C429.418 300.933 429.794 300.989 430.121 301.101C430.453 301.213 430.731 301.387 430.956 301.621C431.186 301.851 431.359 302.146 431.476 302.507C431.593 302.869 431.652 303.298 431.652 303.796V309.004H430.29V303.782C430.29 303.337 430.219 302.993 430.077 302.749C429.94 302.5 429.745 302.327 429.491 302.229C429.242 302.126 428.944 302.075 428.598 302.075C428.3 302.075 428.036 302.126 427.807 302.229C427.577 302.332 427.384 302.473 427.228 302.654C427.072 302.83 426.952 303.032 426.869 303.262C426.791 303.491 426.752 303.735 426.752 303.994ZM209.04 331.598L211.076 325.079H211.969L211.793 326.375L209.721 333.004H208.849L209.04 331.598ZM207.67 325.079L209.406 331.671L209.53 333.004H208.615L206.315 325.079H207.67ZM213.917 331.62L215.573 325.079H216.92L214.621 333.004H213.712L213.917 331.62ZM212.167 325.079L214.159 331.488L214.386 333.004H213.522L211.391 326.361L211.215 325.079H212.167ZM219.784 325.079V333.004H218.422V325.079H219.784ZM218.319 322.977C218.319 322.757 218.385 322.572 218.517 322.42C218.654 322.269 218.854 322.193 219.118 322.193C219.376 322.193 219.574 322.269 219.711 322.42C219.853 322.572 219.923 322.757 219.923 322.977C219.923 323.187 219.853 323.368 219.711 323.519C219.574 323.666 219.376 323.739 219.118 323.739C218.854 323.739 218.654 323.666 218.517 323.519C218.385 323.368 218.319 323.187 218.319 322.977ZM225.277 325.079V326.119H220.993V325.079H225.277ZM222.443 323.153H223.798V331.041C223.798 331.31 223.839 331.512 223.922 331.649C224.005 331.786 224.113 331.876 224.245 331.92C224.376 331.964 224.518 331.986 224.669 331.986C224.782 331.986 224.899 331.976 225.021 331.957C225.148 331.932 225.243 331.913 225.307 331.898L225.314 333.004C225.207 333.038 225.065 333.07 224.889 333.099C224.718 333.133 224.511 333.15 224.267 333.15C223.935 333.15 223.629 333.084 223.351 332.953C223.073 332.821 222.851 332.601 222.685 332.293C222.523 331.981 222.443 331.561 222.443 331.034V323.153ZM228.222 321.754V333.004H226.867V321.754H228.222ZM227.899 328.741L227.335 328.719C227.34 328.177 227.421 327.677 227.577 327.218C227.733 326.754 227.953 326.351 228.236 326.009C228.52 325.667 228.856 325.404 229.247 325.218C229.643 325.028 230.08 324.933 230.558 324.933C230.949 324.933 231.3 324.986 231.613 325.094C231.925 325.196 232.191 325.362 232.411 325.592C232.636 325.821 232.807 326.119 232.924 326.485C233.041 326.847 233.1 327.289 233.1 327.811V333.004H231.737V327.796C231.737 327.381 231.676 327.049 231.554 326.8C231.432 326.546 231.254 326.363 231.02 326.251C230.785 326.134 230.497 326.075 230.155 326.075C229.818 326.075 229.511 326.146 229.232 326.288C228.959 326.429 228.722 326.625 228.522 326.874C228.327 327.123 228.173 327.408 228.061 327.73C227.953 328.048 227.899 328.385 227.899 328.741ZM240.204 326.771V333.004H238.849V325.079H240.131L240.204 326.771ZM239.882 328.741L239.318 328.719C239.323 328.177 239.403 327.677 239.56 327.218C239.716 326.754 239.936 326.351 240.219 326.009C240.502 325.667 240.839 325.404 241.229 325.218C241.625 325.028 242.062 324.933 242.541 324.933C242.931 324.933 243.283 324.986 243.595 325.094C243.908 325.196 244.174 325.362 244.394 325.592C244.618 325.821 244.789 326.119 244.906 326.485C245.023 326.847 245.082 327.289 245.082 327.811V333.004H243.72V327.796C243.72 327.381 243.659 327.049 243.537 326.8C243.415 326.546 243.236 326.363 243.002 326.251C242.768 326.134 242.479 326.075 242.138 326.075C241.801 326.075 241.493 326.146 241.215 326.288C240.941 326.429 240.705 326.625 240.504 326.874C240.309 327.123 240.155 327.408 240.043 327.73C239.936 328.048 239.882 328.385 239.882 328.741ZM246.781 329.129V328.961C246.781 328.39 246.864 327.86 247.03 327.372C247.196 326.878 247.436 326.451 247.748 326.09C248.061 325.724 248.439 325.44 248.883 325.24C249.328 325.035 249.826 324.933 250.377 324.933C250.934 324.933 251.435 325.035 251.879 325.24C252.328 325.44 252.709 325.724 253.021 326.09C253.339 326.451 253.581 326.878 253.747 327.372C253.913 327.86 253.996 328.39 253.996 328.961V329.129C253.996 329.701 253.913 330.23 253.747 330.719C253.581 331.207 253.339 331.634 253.021 332C252.709 332.362 252.331 332.645 251.886 332.85C251.447 333.05 250.949 333.15 250.392 333.15C249.835 333.15 249.335 333.05 248.891 332.85C248.446 332.645 248.065 332.362 247.748 332C247.436 331.634 247.196 331.207 247.03 330.719C246.864 330.23 246.781 329.701 246.781 329.129ZM248.136 328.961V329.129C248.136 329.525 248.183 329.898 248.275 330.25C248.368 330.597 248.507 330.904 248.693 331.173C248.883 331.441 249.12 331.654 249.403 331.81C249.687 331.961 250.016 332.037 250.392 332.037C250.763 332.037 251.088 331.961 251.366 331.81C251.649 331.654 251.884 331.441 252.069 331.173C252.255 330.904 252.394 330.597 252.487 330.25C252.584 329.898 252.633 329.525 252.633 329.129V328.961C252.633 328.57 252.584 328.202 252.487 327.855C252.394 327.503 252.252 327.193 252.062 326.925C251.876 326.651 251.642 326.437 251.359 326.28C251.081 326.124 250.753 326.046 250.377 326.046C250.006 326.046 249.679 326.124 249.396 326.28C249.118 326.437 248.883 326.651 248.693 326.925C248.507 327.193 248.368 327.503 248.275 327.855C248.183 328.202 248.136 328.57 248.136 328.961ZM264.411 331.466V321.754H265.773V333.004H264.528L264.411 331.466ZM259.079 329.129V328.976C259.079 328.37 259.152 327.821 259.298 327.328C259.45 326.83 259.662 326.402 259.936 326.046C260.214 325.689 260.543 325.416 260.924 325.226C261.31 325.03 261.74 324.933 262.213 324.933C262.711 324.933 263.146 325.021 263.517 325.196C263.893 325.367 264.21 325.619 264.469 325.951C264.733 326.278 264.94 326.673 265.092 327.137C265.243 327.601 265.348 328.126 265.407 328.712V329.386C265.353 329.967 265.248 330.489 265.092 330.953C264.94 331.417 264.733 331.812 264.469 332.14C264.21 332.467 263.893 332.718 263.517 332.894C263.141 333.065 262.702 333.15 262.199 333.15C261.735 333.15 261.31 333.05 260.924 332.85C260.543 332.65 260.214 332.369 259.936 332.008C259.662 331.646 259.45 331.222 259.298 330.733C259.152 330.24 259.079 329.706 259.079 329.129ZM260.441 328.976V329.129C260.441 329.525 260.48 329.896 260.558 330.243C260.641 330.589 260.768 330.895 260.939 331.158C261.11 331.422 261.327 331.629 261.591 331.781C261.854 331.927 262.169 332 262.536 332C262.985 332 263.354 331.905 263.642 331.715C263.935 331.524 264.169 331.273 264.345 330.96C264.521 330.648 264.657 330.309 264.755 329.942V328.177C264.696 327.909 264.611 327.65 264.499 327.401C264.391 327.147 264.25 326.922 264.074 326.727C263.903 326.527 263.69 326.368 263.437 326.251C263.188 326.134 262.892 326.075 262.55 326.075C262.179 326.075 261.859 326.153 261.591 326.31C261.327 326.461 261.11 326.671 260.939 326.939C260.768 327.203 260.641 327.511 260.558 327.862C260.48 328.209 260.441 328.58 260.441 328.976ZM271.171 333.15C270.619 333.15 270.119 333.058 269.669 332.872C269.225 332.682 268.842 332.416 268.52 332.074C268.202 331.732 267.958 331.327 267.787 330.858C267.616 330.389 267.531 329.876 267.531 329.32V329.012C267.531 328.368 267.626 327.794 267.816 327.291C268.007 326.783 268.266 326.354 268.593 326.002C268.92 325.65 269.291 325.384 269.706 325.204C270.121 325.023 270.551 324.933 270.995 324.933C271.562 324.933 272.05 325.03 272.46 325.226C272.875 325.421 273.214 325.694 273.478 326.046C273.742 326.393 273.937 326.803 274.064 327.276C274.191 327.745 274.254 328.258 274.254 328.814V329.422H268.336V328.316H272.899V328.214C272.88 327.862 272.807 327.521 272.68 327.188C272.558 326.856 272.362 326.583 272.094 326.368C271.825 326.153 271.459 326.046 270.995 326.046C270.688 326.046 270.404 326.112 270.146 326.244C269.887 326.371 269.665 326.561 269.479 326.815C269.293 327.069 269.149 327.379 269.047 327.745C268.944 328.111 268.893 328.534 268.893 329.012V329.32C268.893 329.696 268.944 330.05 269.047 330.382C269.154 330.709 269.308 330.997 269.508 331.246C269.713 331.495 269.96 331.69 270.248 331.832C270.541 331.974 270.873 332.044 271.244 332.044C271.723 332.044 272.128 331.947 272.46 331.751C272.792 331.556 273.083 331.295 273.332 330.968L274.152 331.62C273.981 331.878 273.764 332.125 273.5 332.359C273.236 332.594 272.912 332.784 272.526 332.931C272.145 333.077 271.693 333.15 271.171 333.15ZM277.858 333.004H276.503V324.244C276.503 323.673 276.605 323.192 276.811 322.801C277.021 322.406 277.321 322.108 277.711 321.908C278.102 321.703 278.566 321.6 279.103 321.6C279.259 321.6 279.416 321.61 279.572 321.629C279.733 321.649 279.889 321.678 280.041 321.717L279.967 322.823C279.865 322.799 279.748 322.782 279.616 322.772C279.489 322.762 279.362 322.757 279.235 322.757C278.947 322.757 278.698 322.816 278.488 322.933C278.283 323.045 278.126 323.211 278.019 323.431C277.912 323.651 277.858 323.922 277.858 324.244V333.004ZM279.542 325.079V326.119H275.25V325.079H279.542ZM285.724 331.649V327.569C285.724 327.257 285.661 326.986 285.534 326.756C285.412 326.522 285.226 326.341 284.977 326.214C284.728 326.087 284.42 326.024 284.054 326.024C283.712 326.024 283.412 326.083 283.153 326.2C282.899 326.317 282.699 326.471 282.553 326.661C282.411 326.852 282.34 327.057 282.34 327.276H280.985C280.985 326.993 281.059 326.712 281.205 326.434C281.352 326.156 281.562 325.904 281.835 325.68C282.113 325.45 282.445 325.27 282.831 325.138C283.222 325.001 283.656 324.933 284.135 324.933C284.711 324.933 285.219 325.03 285.658 325.226C286.103 325.421 286.449 325.716 286.698 326.112C286.952 326.502 287.079 326.993 287.079 327.584V331.275C287.079 331.539 287.101 331.82 287.145 332.118C287.194 332.416 287.265 332.672 287.357 332.887V333.004H285.944C285.875 332.848 285.822 332.64 285.783 332.381C285.744 332.118 285.724 331.874 285.724 331.649ZM285.958 328.199L285.973 329.151H284.604C284.218 329.151 283.874 329.183 283.571 329.247C283.268 329.305 283.014 329.396 282.809 329.518C282.604 329.64 282.448 329.793 282.34 329.979C282.233 330.16 282.179 330.372 282.179 330.616C282.179 330.865 282.235 331.092 282.348 331.297C282.46 331.502 282.628 331.666 282.853 331.788C283.083 331.905 283.363 331.964 283.695 331.964C284.11 331.964 284.477 331.876 284.794 331.7C285.111 331.524 285.363 331.31 285.548 331.056C285.739 330.802 285.841 330.555 285.856 330.316L286.435 330.968C286.4 331.173 286.308 331.4 286.156 331.649C286.005 331.898 285.802 332.137 285.548 332.367C285.299 332.591 285.001 332.779 284.655 332.931C284.313 333.077 283.927 333.15 283.498 333.15C282.96 333.15 282.489 333.045 282.084 332.835C281.684 332.625 281.371 332.345 281.146 331.993C280.927 331.637 280.817 331.239 280.817 330.799C280.817 330.375 280.9 330.001 281.066 329.679C281.232 329.352 281.471 329.081 281.784 328.866C282.096 328.646 282.472 328.48 282.912 328.368C283.351 328.255 283.842 328.199 284.384 328.199H285.958ZM294.059 331.173V325.079H295.421V333.004H294.125L294.059 331.173ZM294.315 329.503L294.879 329.488C294.879 330.016 294.823 330.504 294.711 330.953C294.604 331.397 294.428 331.783 294.184 332.11C293.939 332.438 293.62 332.694 293.224 332.879C292.829 333.06 292.348 333.15 291.781 333.15C291.396 333.15 291.042 333.094 290.719 332.982C290.402 332.87 290.128 332.696 289.899 332.462C289.669 332.228 289.491 331.922 289.364 331.546C289.242 331.17 289.181 330.719 289.181 330.191V325.079H290.536V330.206C290.536 330.562 290.575 330.858 290.653 331.092C290.736 331.322 290.846 331.505 290.983 331.642C291.125 331.773 291.281 331.866 291.452 331.92C291.627 331.974 291.808 332 291.994 332C292.57 332 293.026 331.891 293.363 331.671C293.7 331.446 293.942 331.146 294.088 330.77C294.24 330.389 294.315 329.967 294.315 329.503ZM298.959 321.754V333.004H297.597V321.754H298.959ZM304.452 325.079V326.119H300.167V325.079H304.452ZM301.618 323.153H302.973V331.041C302.973 331.31 303.014 331.512 303.097 331.649C303.18 331.786 303.288 331.876 303.419 331.92C303.551 331.964 303.693 331.986 303.844 331.986C303.957 331.986 304.074 331.976 304.196 331.957C304.323 331.932 304.418 331.913 304.481 331.898L304.489 333.004C304.381 333.038 304.24 333.07 304.064 333.099C303.893 333.133 303.686 333.15 303.441 333.15C303.109 333.15 302.804 333.084 302.526 332.953C302.248 332.821 302.025 332.601 301.859 332.293C301.698 331.981 301.618 331.561 301.618 331.034V323.153ZM311.784 333.004H310.429V324.244C310.429 323.673 310.531 323.192 310.736 322.801C310.946 322.406 311.247 322.108 311.637 321.908C312.028 321.703 312.492 321.6 313.029 321.6C313.185 321.6 313.341 321.61 313.498 321.629C313.659 321.649 313.815 321.678 313.966 321.717L313.893 322.823C313.791 322.799 313.673 322.782 313.542 322.772C313.415 322.762 313.288 322.757 313.161 322.757C312.873 322.757 312.624 322.816 312.414 322.933C312.208 323.045 312.052 323.211 311.945 323.431C311.837 323.651 311.784 323.922 311.784 324.244V333.004ZM313.468 325.079V326.119H309.176V325.079H313.468ZM316.449 325.079V333.004H315.087V325.079H316.449ZM314.984 322.977C314.984 322.757 315.05 322.572 315.182 322.42C315.319 322.269 315.519 322.193 315.783 322.193C316.042 322.193 316.239 322.269 316.376 322.42C316.518 322.572 316.588 322.757 316.588 322.977C316.588 323.187 316.518 323.368 316.376 323.519C316.239 323.666 316.042 323.739 315.783 323.739C315.519 323.739 315.319 323.666 315.182 323.519C315.05 323.368 314.984 323.187 314.984 322.977ZM321.913 333.15C321.361 333.15 320.861 333.058 320.412 332.872C319.967 332.682 319.584 332.416 319.262 332.074C318.944 331.732 318.7 331.327 318.529 330.858C318.358 330.389 318.273 329.876 318.273 329.32V329.012C318.273 328.368 318.368 327.794 318.559 327.291C318.749 326.783 319.008 326.354 319.335 326.002C319.662 325.65 320.033 325.384 320.448 325.204C320.863 325.023 321.293 324.933 321.737 324.933C322.304 324.933 322.792 325.03 323.202 325.226C323.617 325.421 323.957 325.694 324.22 326.046C324.484 326.393 324.679 326.803 324.806 327.276C324.933 327.745 324.997 328.258 324.997 328.814V329.422H319.079V328.316H323.642V328.214C323.622 327.862 323.549 327.521 323.422 327.188C323.3 326.856 323.104 326.583 322.836 326.368C322.567 326.153 322.201 326.046 321.737 326.046C321.43 326.046 321.146 326.112 320.888 326.244C320.629 326.371 320.407 326.561 320.221 326.815C320.036 327.069 319.892 327.379 319.789 327.745C319.687 328.111 319.635 328.534 319.635 329.012V329.32C319.635 329.696 319.687 330.05 319.789 330.382C319.896 330.709 320.05 330.997 320.25 331.246C320.456 331.495 320.702 331.69 320.99 331.832C321.283 331.974 321.615 332.044 321.986 332.044C322.465 332.044 322.87 331.947 323.202 331.751C323.534 331.556 323.825 331.295 324.074 330.968L324.894 331.62C324.723 331.878 324.506 332.125 324.242 332.359C323.979 332.594 323.654 332.784 323.268 332.931C322.887 333.077 322.436 333.15 321.913 333.15ZM328.051 321.754V333.004H326.688V321.754H328.051ZM335.221 331.466V321.754H336.583V333.004H335.338L335.221 331.466ZM329.889 329.129V328.976C329.889 328.37 329.962 327.821 330.109 327.328C330.26 326.83 330.473 326.402 330.746 326.046C331.024 325.689 331.354 325.416 331.735 325.226C332.121 325.03 332.55 324.933 333.024 324.933C333.522 324.933 333.957 325.021 334.328 325.196C334.704 325.367 335.021 325.619 335.28 325.951C335.543 326.278 335.751 326.673 335.902 327.137C336.054 327.601 336.159 328.126 336.217 328.712V329.386C336.164 329.967 336.059 330.489 335.902 330.953C335.751 331.417 335.543 331.812 335.28 332.14C335.021 332.467 334.704 332.718 334.328 332.894C333.952 333.065 333.512 333.15 333.009 333.15C332.545 333.15 332.121 333.05 331.735 332.85C331.354 332.65 331.024 332.369 330.746 332.008C330.473 331.646 330.26 331.222 330.109 330.733C329.962 330.24 329.889 329.706 329.889 329.129ZM331.251 328.976V329.129C331.251 329.525 331.291 329.896 331.369 330.243C331.452 330.589 331.579 330.895 331.75 331.158C331.92 331.422 332.138 331.629 332.401 331.781C332.665 331.927 332.98 332 333.346 332C333.795 332 334.164 331.905 334.452 331.715C334.745 331.524 334.979 331.273 335.155 330.96C335.331 330.648 335.468 330.309 335.565 329.942V328.177C335.507 327.909 335.421 327.65 335.309 327.401C335.202 327.147 335.06 326.922 334.884 326.727C334.713 326.527 334.501 326.368 334.247 326.251C333.998 326.134 333.703 326.075 333.361 326.075C332.99 326.075 332.67 326.153 332.401 326.31C332.138 326.461 331.92 326.671 331.75 326.939C331.579 327.203 331.452 327.511 331.369 327.862C331.291 328.209 331.251 328.58 331.251 328.976ZM343.307 330.902C343.307 330.707 343.263 330.526 343.175 330.36C343.092 330.189 342.919 330.035 342.655 329.898C342.396 329.757 342.006 329.635 341.483 329.532C341.044 329.439 340.646 329.33 340.29 329.203C339.938 329.076 339.638 328.922 339.389 328.741C339.145 328.561 338.957 328.348 338.825 328.104C338.693 327.86 338.627 327.574 338.627 327.247C338.627 326.935 338.695 326.639 338.832 326.361C338.974 326.083 339.171 325.836 339.425 325.621C339.684 325.406 339.994 325.238 340.355 325.116C340.717 324.994 341.12 324.933 341.564 324.933C342.199 324.933 342.741 325.045 343.19 325.27C343.639 325.494 343.983 325.794 344.223 326.17C344.462 326.542 344.582 326.954 344.582 327.408H343.227C343.227 327.188 343.161 326.976 343.029 326.771C342.902 326.561 342.714 326.388 342.465 326.251C342.221 326.114 341.92 326.046 341.564 326.046C341.188 326.046 340.883 326.104 340.648 326.222C340.419 326.334 340.25 326.478 340.143 326.654C340.041 326.83 339.989 327.015 339.989 327.21C339.989 327.357 340.014 327.489 340.062 327.606C340.116 327.718 340.209 327.823 340.341 327.921C340.473 328.014 340.658 328.102 340.897 328.185C341.137 328.268 341.442 328.351 341.813 328.434C342.462 328.58 342.997 328.756 343.417 328.961C343.837 329.166 344.149 329.417 344.354 329.715C344.56 330.013 344.662 330.375 344.662 330.799C344.662 331.146 344.589 331.463 344.442 331.751C344.301 332.04 344.093 332.289 343.82 332.499C343.551 332.704 343.229 332.865 342.853 332.982C342.482 333.094 342.064 333.15 341.601 333.15C340.902 333.15 340.312 333.026 339.828 332.777C339.345 332.528 338.979 332.206 338.729 331.81C338.48 331.415 338.356 330.997 338.356 330.558H339.718C339.738 330.929 339.845 331.224 340.041 331.444C340.236 331.659 340.475 331.812 340.758 331.905C341.042 331.993 341.322 332.037 341.601 332.037C341.972 332.037 342.282 331.988 342.531 331.891C342.785 331.793 342.978 331.659 343.109 331.488C343.241 331.317 343.307 331.122 343.307 330.902ZM346.464 332.286C346.464 332.057 346.535 331.864 346.676 331.708C346.823 331.546 347.033 331.466 347.306 331.466C347.58 331.466 347.787 331.546 347.929 331.708C348.075 331.864 348.148 332.057 348.148 332.286C348.148 332.511 348.075 332.701 347.929 332.857C347.787 333.014 347.58 333.092 347.306 333.092C347.033 333.092 346.823 333.014 346.676 332.857C346.535 332.701 346.464 332.511 346.464 332.286Z" fill="#4C4C4C"/>
</g>
<path d="M190.5 48C190.5 43.8579 193.858 40.5 198 40.5H442C446.142 40.5 449.5 43.8579 449.5 48V348.004C449.5 352.146 446.142 355.504 442 355.504H198C193.858 355.504 190.5 352.146 190.5 348.004V48Z" stroke="#E6E6E6"/>
<defs>
<clipPath id="clip0_15904_456">
<path d="M190 48C190 43.5817 193.582 40 198 40H442C446.418 40 450 43.5817 450 48V348.004C450 352.422 446.418 356.004 442 356.004H198C193.582 356.004 190 352.422 190 348.004V48Z" fill="white"/>
</clipPath>
<clipPath id="clip1_15904_456">
<rect x="190" y="40" width="260" height="208.004" fill="white"/>
</clipPath>
</defs>
</svg>
