<svg width="1280" height="400" viewBox="0 0 1280 400" fill="none" xmlns="http://www.w3.org/2000/svg">
<path d="M0 16C0 7.16345 7.16344 0 16 0H1264C1272.84 0 1280 7.16344 1280 16V384C1280 392.837 1272.84 400 1264 400H16C7.16343 400 0 392.837 0 384V16Z" fill="#F2F2F2"/>
<rect width="1200" height="64" transform="translate(40 168)" fill="white"/>
<rect x="72" y="180" width="40" height="40" rx="14" fill="#2DC4E0"/>
<path d="M91.9999 191.667C93.6481 191.667 95.2593 192.155 96.6297 193.071C98.0001 193.987 99.0682 195.288 99.6989 196.811C100.33 198.334 100.495 200.009 100.173 201.626C99.8516 203.242 99.0579 204.727 97.8925 205.892C96.7271 207.058 95.2422 207.852 93.6257 208.173C92.0092 208.495 90.3336 208.33 88.8109 207.699C87.2882 207.068 85.9867 206 85.071 204.63C84.1553 203.259 83.6666 201.648 83.6666 200C83.6666 197.79 84.5446 195.67 86.1074 194.107C87.6702 192.545 89.7898 191.667 91.9999 191.667ZM91.9999 189.583C89.9397 189.583 87.9258 190.194 86.2127 191.339C84.4997 192.483 83.1646 194.11 82.3762 196.014C81.5878 197.917 81.3815 200.012 81.7834 202.032C82.1853 204.053 83.1774 205.909 84.6342 207.366C86.091 208.822 87.9471 209.815 89.9677 210.216C91.9884 210.618 94.0828 210.412 95.9862 209.624C97.8896 208.835 99.5165 207.5 100.661 205.787C101.806 204.074 102.417 202.06 102.417 200C102.417 197.237 101.319 194.588 99.3656 192.634C97.4121 190.681 94.7626 189.583 91.9999 189.583Z" fill="white" fill-opacity="0.25"/>
<path d="M92 196.875C93.1331 196.875 94.2408 197.211 95.183 197.841C96.1251 198.47 96.8594 199.365 97.2931 200.412C97.7267 201.459 97.8402 202.611 97.6191 203.722C97.398 204.833 96.8524 205.854 96.0511 206.655C95.2499 207.457 94.2291 208.002 93.1177 208.223C92.0064 208.444 90.8544 208.331 89.8075 207.897C88.7607 207.464 87.8659 206.729 87.2364 205.787C86.6068 204.845 86.2708 203.737 86.2708 202.604C86.2736 201.086 86.8781 199.63 87.9519 198.556C89.0257 197.482 90.4814 196.878 92 196.875ZM92 194.792C90.4548 194.792 88.9444 195.25 87.6596 196.108C86.3749 196.967 85.3735 198.187 84.7822 199.615C84.1909 201.042 84.0362 202.613 84.3376 204.128C84.6391 205.644 85.3831 207.036 86.4757 208.129C87.5683 209.221 88.9604 209.965 90.4758 210.267C91.9913 210.568 93.5622 210.413 94.9897 209.822C96.4173 209.231 97.6374 208.229 98.4959 206.945C99.3543 205.66 99.8125 204.149 99.8125 202.604C99.8125 200.532 98.9894 198.545 97.5243 197.08C96.0591 195.615 94.072 194.792 92 194.792Z" fill="#99E1EE"/>
<path d="M92.0001 202.083C92.6182 202.083 93.2224 202.267 93.7363 202.61C94.2502 202.953 94.6507 203.441 94.8872 204.012C95.1237 204.584 95.1856 205.212 95.065 205.818C94.9445 206.424 94.6468 206.981 94.2098 207.418C93.7727 207.855 93.2159 208.153 92.6097 208.273C92.0036 208.394 91.3752 208.332 90.8042 208.095C90.2332 207.859 89.7451 207.458 89.4017 206.945C89.0584 206.431 88.8751 205.826 88.8751 205.208C88.8751 204.38 89.2043 203.585 89.7904 202.999C90.3764 202.413 91.1713 202.083 92.0001 202.083ZM92.0001 200C90.97 200 89.963 200.305 89.1065 200.878C88.25 201.45 87.5824 202.264 87.1882 203.215C86.794 204.167 86.6909 205.214 86.8918 206.224C87.0928 207.235 87.5888 208.163 88.3172 208.891C89.0456 209.62 89.9737 210.116 90.984 210.317C91.9943 210.518 93.0415 210.414 93.9932 210.02C94.9449 209.626 95.7584 208.958 96.3307 208.102C96.903 207.245 97.2084 206.238 97.2084 205.208C97.2084 203.827 96.6597 202.502 95.6829 201.525C94.7062 200.549 93.3814 200 92.0001 200Z" fill="white"/>
<path d="M127.312 192.07C127.312 191.836 127.276 191.628 127.203 191.445C127.135 191.263 127.013 191.096 126.836 190.945C126.659 190.794 126.409 190.648 126.086 190.508C125.768 190.362 125.362 190.214 124.867 190.062C124.326 189.896 123.826 189.711 123.367 189.508C122.914 189.299 122.518 189.06 122.18 188.789C121.841 188.513 121.578 188.198 121.391 187.844C121.203 187.484 121.109 187.07 121.109 186.602C121.109 186.138 121.206 185.716 121.398 185.336C121.596 184.956 121.875 184.628 122.234 184.352C122.599 184.07 123.029 183.854 123.523 183.703C124.018 183.547 124.565 183.469 125.164 183.469C126.008 183.469 126.734 183.625 127.344 183.938C127.958 184.25 128.43 184.669 128.758 185.195C129.091 185.721 129.258 186.302 129.258 186.938H127.312C127.312 186.562 127.232 186.232 127.07 185.945C126.914 185.654 126.674 185.424 126.352 185.258C126.034 185.091 125.63 185.008 125.141 185.008C124.677 185.008 124.292 185.078 123.984 185.219C123.677 185.359 123.448 185.549 123.297 185.789C123.146 186.029 123.07 186.299 123.07 186.602C123.07 186.815 123.12 187.01 123.219 187.188C123.318 187.359 123.469 187.521 123.672 187.672C123.875 187.818 124.13 187.956 124.438 188.086C124.745 188.216 125.107 188.341 125.523 188.461C126.154 188.648 126.703 188.857 127.172 189.086C127.641 189.31 128.031 189.565 128.344 189.852C128.656 190.138 128.891 190.464 129.047 190.828C129.203 191.188 129.281 191.596 129.281 192.055C129.281 192.534 129.185 192.966 128.992 193.352C128.799 193.732 128.523 194.057 128.164 194.328C127.81 194.594 127.383 194.799 126.883 194.945C126.388 195.086 125.836 195.156 125.227 195.156C124.68 195.156 124.141 195.083 123.609 194.938C123.083 194.792 122.604 194.57 122.172 194.273C121.74 193.971 121.396 193.596 121.141 193.148C120.885 192.695 120.758 192.167 120.758 191.562H122.719C122.719 191.932 122.781 192.247 122.906 192.508C123.036 192.768 123.216 192.982 123.445 193.148C123.674 193.31 123.94 193.43 124.242 193.508C124.549 193.586 124.878 193.625 125.227 193.625C125.685 193.625 126.068 193.56 126.375 193.43C126.688 193.299 126.922 193.117 127.078 192.883C127.234 192.648 127.312 192.378 127.312 192.07ZM132.711 188.266V195H130.828V186.547H132.602L132.711 188.266ZM132.406 190.461L131.766 190.453C131.766 189.87 131.839 189.331 131.984 188.836C132.13 188.341 132.344 187.911 132.625 187.547C132.906 187.177 133.255 186.893 133.672 186.695C134.094 186.492 134.581 186.391 135.133 186.391C135.518 186.391 135.87 186.448 136.188 186.562C136.51 186.672 136.789 186.846 137.023 187.086C137.263 187.326 137.445 187.633 137.57 188.008C137.701 188.383 137.766 188.836 137.766 189.367V195H135.883V189.531C135.883 189.12 135.82 188.797 135.695 188.562C135.576 188.328 135.401 188.161 135.172 188.062C134.948 187.958 134.68 187.906 134.367 187.906C134.013 187.906 133.711 187.974 133.461 188.109C133.216 188.245 133.016 188.43 132.859 188.664C132.703 188.898 132.589 189.169 132.516 189.477C132.443 189.784 132.406 190.112 132.406 190.461ZM137.648 189.961L136.766 190.156C136.766 189.646 136.836 189.164 136.977 188.711C137.122 188.253 137.333 187.852 137.609 187.508C137.891 187.159 138.237 186.885 138.648 186.688C139.06 186.49 139.531 186.391 140.062 186.391C140.495 186.391 140.88 186.451 141.219 186.57C141.562 186.685 141.854 186.867 142.094 187.117C142.333 187.367 142.516 187.693 142.641 188.094C142.766 188.49 142.828 188.969 142.828 189.531V195H140.938V189.523C140.938 189.096 140.875 188.766 140.75 188.531C140.63 188.297 140.458 188.135 140.234 188.047C140.01 187.953 139.742 187.906 139.43 187.906C139.138 187.906 138.88 187.961 138.656 188.07C138.438 188.174 138.253 188.323 138.102 188.516C137.951 188.703 137.836 188.919 137.758 189.164C137.685 189.409 137.648 189.674 137.648 189.961ZM149.852 193.008V186.547H151.742V195H149.961L149.852 193.008ZM150.117 191.25L150.75 191.234C150.75 191.802 150.688 192.326 150.562 192.805C150.438 193.279 150.245 193.693 149.984 194.047C149.724 194.396 149.391 194.669 148.984 194.867C148.578 195.06 148.091 195.156 147.523 195.156C147.112 195.156 146.734 195.096 146.391 194.977C146.047 194.857 145.75 194.672 145.5 194.422C145.255 194.172 145.065 193.846 144.93 193.445C144.794 193.044 144.727 192.565 144.727 192.008V186.547H146.609V192.023C146.609 192.331 146.646 192.589 146.719 192.797C146.792 193 146.891 193.164 147.016 193.289C147.141 193.414 147.286 193.503 147.453 193.555C147.62 193.607 147.797 193.633 147.984 193.633C148.521 193.633 148.943 193.529 149.25 193.32C149.562 193.107 149.784 192.82 149.914 192.461C150.049 192.102 150.117 191.698 150.117 191.25ZM158.414 192.711C158.414 192.523 158.367 192.354 158.273 192.203C158.18 192.047 158 191.906 157.734 191.781C157.474 191.656 157.089 191.542 156.578 191.438C156.13 191.339 155.719 191.221 155.344 191.086C154.974 190.945 154.656 190.776 154.391 190.578C154.125 190.38 153.919 190.146 153.773 189.875C153.628 189.604 153.555 189.292 153.555 188.938C153.555 188.594 153.63 188.268 153.781 187.961C153.932 187.654 154.148 187.383 154.43 187.148C154.711 186.914 155.052 186.729 155.453 186.594C155.859 186.458 156.312 186.391 156.812 186.391C157.521 186.391 158.128 186.51 158.633 186.75C159.143 186.984 159.534 187.305 159.805 187.711C160.076 188.112 160.211 188.565 160.211 189.07H158.328C158.328 188.846 158.271 188.638 158.156 188.445C158.047 188.247 157.88 188.089 157.656 187.969C157.432 187.844 157.151 187.781 156.812 187.781C156.49 187.781 156.221 187.833 156.008 187.938C155.799 188.036 155.643 188.167 155.539 188.328C155.44 188.49 155.391 188.667 155.391 188.859C155.391 189 155.417 189.128 155.469 189.242C155.526 189.352 155.62 189.453 155.75 189.547C155.88 189.635 156.057 189.719 156.281 189.797C156.51 189.875 156.797 189.951 157.141 190.023C157.786 190.159 158.341 190.333 158.805 190.547C159.273 190.755 159.633 191.026 159.883 191.359C160.133 191.688 160.258 192.104 160.258 192.609C160.258 192.984 160.177 193.328 160.016 193.641C159.859 193.948 159.63 194.216 159.328 194.445C159.026 194.669 158.664 194.844 158.242 194.969C157.826 195.094 157.357 195.156 156.836 195.156C156.07 195.156 155.422 195.021 154.891 194.75C154.359 194.474 153.956 194.122 153.68 193.695C153.409 193.263 153.273 192.815 153.273 192.352H155.094C155.115 192.701 155.211 192.979 155.383 193.188C155.56 193.391 155.779 193.539 156.039 193.633C156.305 193.721 156.578 193.766 156.859 193.766C157.198 193.766 157.482 193.721 157.711 193.633C157.94 193.539 158.115 193.414 158.234 193.258C158.354 193.096 158.414 192.914 158.414 192.711ZM163.766 183V195H161.891V183H163.766ZM163.438 190.461L162.828 190.453C162.833 189.87 162.914 189.331 163.07 188.836C163.232 188.341 163.456 187.911 163.742 187.547C164.034 187.177 164.383 186.893 164.789 186.695C165.195 186.492 165.646 186.391 166.141 186.391C166.557 186.391 166.932 186.448 167.266 186.562C167.604 186.677 167.896 186.862 168.141 187.117C168.385 187.367 168.57 187.695 168.695 188.102C168.826 188.503 168.891 188.992 168.891 189.57V195H167V189.555C167 189.148 166.94 188.826 166.82 188.586C166.706 188.346 166.536 188.174 166.312 188.07C166.089 187.961 165.815 187.906 165.492 187.906C165.154 187.906 164.854 187.974 164.594 188.109C164.339 188.245 164.125 188.43 163.953 188.664C163.781 188.898 163.651 189.169 163.562 189.477C163.479 189.784 163.438 190.112 163.438 190.461Z" fill="#1A1A1A"/>
<path d="M122.833 204.758V214H121.24V204.758H122.833ZM126.461 204.758H127.883L130.555 211.886L133.221 204.758H134.643L131.114 214H129.984L126.461 204.758ZM125.813 204.758H127.166L127.4 210.928V214H125.813V204.758ZM133.938 204.758H135.297V214H133.704V210.928L133.938 204.758ZM141.902 205.989L139.141 214H137.471L140.95 204.758H142.016L141.902 205.989ZM144.212 214L141.445 205.989L141.324 204.758H142.397L145.888 214H144.212ZM144.079 210.572V211.835H139.052V210.572H144.079ZM154.918 209.277V212.807C154.787 212.98 154.582 213.171 154.302 213.378C154.027 213.581 153.661 213.757 153.204 213.905C152.747 214.053 152.178 214.127 151.497 214.127C150.917 214.127 150.386 214.03 149.903 213.835C149.421 213.636 149.004 213.346 148.653 212.965C148.306 212.584 148.037 212.121 147.847 211.575C147.656 211.025 147.561 210.399 147.561 209.696V209.055C147.561 208.357 147.648 207.735 147.821 207.189C147.999 206.639 148.253 206.173 148.583 205.792C148.913 205.412 149.311 205.124 149.776 204.929C150.246 204.73 150.777 204.631 151.37 204.631C152.127 204.631 152.753 204.758 153.249 205.012C153.748 205.261 154.133 205.608 154.404 206.053C154.675 206.497 154.846 207.005 154.918 207.576H153.356C153.306 207.255 153.206 206.967 153.058 206.713C152.914 206.459 152.707 206.26 152.436 206.116C152.169 205.968 151.822 205.894 151.395 205.894C151.027 205.894 150.703 205.964 150.424 206.104C150.145 206.243 149.912 206.448 149.726 206.719C149.544 206.99 149.406 207.32 149.313 207.709C149.22 208.099 149.173 208.543 149.173 209.042V209.696C149.173 210.204 149.226 210.655 149.332 211.048C149.442 211.442 149.599 211.774 149.802 212.045C150.009 212.316 150.261 212.521 150.557 212.661C150.853 212.796 151.188 212.864 151.56 212.864C151.924 212.864 152.222 212.834 152.455 212.775C152.688 212.711 152.872 212.637 153.007 212.553C153.147 212.464 153.255 212.379 153.331 212.299V210.464H151.408V209.277H154.918ZM163.732 212.737V214H158.825V212.737H163.732ZM159.276 204.758V214H157.683V204.758H159.276ZM163.091 208.617V209.861H158.825V208.617H163.091ZM163.7 204.758V206.027H158.825V204.758H163.7ZM177.64 209.125V209.633C177.64 210.331 177.549 210.957 177.367 211.512C177.185 212.066 176.925 212.538 176.586 212.927C176.252 213.317 175.85 213.615 175.38 213.822C174.911 214.025 174.39 214.127 173.819 214.127C173.252 214.127 172.733 214.025 172.264 213.822C171.798 213.615 171.394 213.317 171.051 212.927C170.708 212.538 170.442 212.066 170.251 211.512C170.065 210.957 169.972 210.331 169.972 209.633V209.125C169.972 208.427 170.065 207.803 170.251 207.252C170.438 206.698 170.7 206.226 171.039 205.837C171.381 205.443 171.785 205.145 172.251 204.942C172.721 204.735 173.239 204.631 173.806 204.631C174.377 204.631 174.898 204.735 175.368 204.942C175.837 205.145 176.242 205.443 176.58 205.837C176.919 206.226 177.179 206.698 177.361 207.252C177.547 207.803 177.64 208.427 177.64 209.125ZM176.047 209.633V209.112C176.047 208.596 175.996 208.141 175.895 207.748C175.797 207.35 175.651 207.018 175.457 206.751C175.266 206.48 175.031 206.277 174.752 206.142C174.473 206.002 174.157 205.932 173.806 205.932C173.455 205.932 173.142 206.002 172.867 206.142C172.592 206.277 172.357 206.48 172.162 206.751C171.972 207.018 171.826 207.35 171.724 207.748C171.623 208.141 171.572 208.596 171.572 209.112V209.633C171.572 210.149 171.623 210.606 171.724 211.004C171.826 211.402 171.974 211.738 172.168 212.013C172.367 212.284 172.604 212.489 172.879 212.629C173.154 212.764 173.468 212.832 173.819 212.832C174.174 212.832 174.49 212.764 174.765 212.629C175.04 212.489 175.272 212.284 175.463 212.013C175.653 211.738 175.797 211.402 175.895 211.004C175.996 210.606 176.047 210.149 176.047 209.633ZM183.744 210.553H181.338V209.29H183.744C184.163 209.29 184.501 209.222 184.759 209.087C185.017 208.951 185.206 208.765 185.324 208.528C185.447 208.287 185.508 208.012 185.508 207.703C185.508 207.411 185.447 207.138 185.324 206.884C185.206 206.626 185.017 206.419 184.759 206.262C184.501 206.106 184.163 206.027 183.744 206.027H181.827V214H180.233V204.758H183.744C184.459 204.758 185.066 204.885 185.565 205.139C186.069 205.388 186.452 205.735 186.714 206.18C186.977 206.62 187.108 207.123 187.108 207.69C187.108 208.287 186.977 208.799 186.714 209.227C186.452 209.654 186.069 209.982 185.565 210.21C185.066 210.439 184.459 210.553 183.744 210.553ZM193.338 204.758V214H191.758V204.758H193.338ZM196.239 204.758V206.027H188.882V204.758H196.239ZM200.159 204.758V214H198.566V204.758H200.159ZM203.787 204.758H205.209L207.881 211.886L210.547 204.758H211.969L208.44 214H207.31L203.787 204.758ZM203.14 204.758H204.492L204.727 210.928V214H203.14V204.758ZM211.265 204.758H212.623V214H211.03V210.928L211.265 204.758ZM217.216 204.758V214H215.623V204.758H217.216ZM226.658 212.737V214H220.241V212.737H226.658ZM226.512 205.742L220.831 214H219.765V212.991L225.465 204.758H226.512V205.742ZM225.922 204.758V206.027H219.803V204.758H225.922ZM232.73 205.989L229.969 214H228.299L231.778 204.758H232.844L232.73 205.989ZM235.041 214L232.273 205.989L232.152 204.758H233.225L236.716 214H235.041ZM234.907 210.572V211.835H229.88V210.572H234.907ZM241.753 204.758V214H240.173V204.758H241.753ZM244.654 204.758V206.027H237.297V204.758H244.654ZM248.574 204.758V214H246.981V204.758H248.574ZM258.924 209.125V209.633C258.924 210.331 258.833 210.957 258.651 211.512C258.469 212.066 258.209 212.538 257.871 212.927C257.536 213.317 257.134 213.615 256.665 213.822C256.195 214.025 255.674 214.127 255.103 214.127C254.536 214.127 254.018 214.025 253.548 213.822C253.082 213.615 252.678 213.317 252.335 212.927C251.993 212.538 251.726 212.066 251.536 211.512C251.349 210.957 251.256 210.331 251.256 209.633V209.125C251.256 208.427 251.349 207.803 251.536 207.252C251.722 206.698 251.984 206.226 252.323 205.837C252.666 205.443 253.07 205.145 253.535 204.942C254.005 204.735 254.523 204.631 255.09 204.631C255.662 204.631 256.182 204.735 256.652 204.942C257.122 205.145 257.526 205.443 257.864 205.837C258.203 206.226 258.463 206.698 258.645 207.252C258.831 207.803 258.924 208.427 258.924 209.125ZM257.331 209.633V209.112C257.331 208.596 257.28 208.141 257.179 207.748C257.081 207.35 256.935 207.018 256.741 206.751C256.55 206.48 256.315 206.277 256.036 206.142C255.757 206.002 255.442 205.932 255.09 205.932C254.739 205.932 254.426 206.002 254.151 206.142C253.876 206.277 253.641 206.48 253.446 206.751C253.256 207.018 253.11 207.35 253.008 207.748C252.907 208.141 252.856 208.596 252.856 209.112V209.633C252.856 210.149 252.907 210.606 253.008 211.004C253.11 211.402 253.258 211.738 253.453 212.013C253.652 212.284 253.889 212.489 254.164 212.629C254.439 212.764 254.752 212.832 255.103 212.832C255.458 212.832 255.774 212.764 256.049 212.629C256.324 212.489 256.557 212.284 256.747 212.013C256.938 211.738 257.081 211.402 257.179 211.004C257.28 210.606 257.331 210.149 257.331 209.633ZM268.849 204.758V214H267.256L263.111 207.379V214H261.518V204.758H263.111L267.269 211.391V204.758H268.849Z" fill="#4C4C4C"/>
<path d="M751 193C752.312 193.018 753.488 193.337 754.527 193.957C755.585 194.577 756.423 195.415 757.043 196.473C757.663 197.512 757.982 198.688 758 200C757.982 201.312 757.663 202.488 757.043 203.527C756.423 204.585 755.585 205.423 754.527 206.043C753.488 206.663 752.312 206.982 751 207C749.688 206.982 748.512 206.663 747.473 206.043C746.415 205.423 745.577 204.585 744.957 203.527C744.337 202.488 744.018 201.312 744 200C744.018 198.688 744.337 197.512 744.957 196.473C745.577 195.415 746.415 194.577 747.473 193.957C748.512 193.337 749.688 193.018 751 193ZM751 205.688C752.604 205.651 753.944 205.095 755.02 204.02C756.095 202.944 756.651 201.604 756.688 200C756.651 198.396 756.095 197.056 755.02 195.98C753.944 194.905 752.604 194.349 751 194.312C749.396 194.349 748.056 194.905 746.98 195.98C745.905 197.056 745.349 198.396 745.312 200C745.349 201.604 745.905 202.944 746.98 204.02C748.056 205.095 749.396 205.651 751 205.688ZM751 202.188C751.237 202.188 751.438 202.27 751.602 202.434C751.784 202.598 751.875 202.807 751.875 203.062C751.875 203.318 751.784 203.527 751.602 203.691C751.438 203.855 751.237 203.938 751 203.938C750.453 203.901 750.161 203.609 750.125 203.062C750.125 202.807 750.207 202.598 750.371 202.434C750.535 202.27 750.745 202.188 751 202.188ZM751.902 196.5C752.467 196.518 752.923 196.701 753.27 197.047C753.634 197.411 753.816 197.867 753.816 198.414C753.798 199.107 753.488 199.654 752.887 200.055L751.656 200.82V200.875C751.62 201.276 751.401 201.495 751 201.531C750.599 201.495 750.38 201.276 750.344 200.875V200.438C750.344 200.201 750.453 200.009 750.672 199.863L752.23 198.906C752.431 198.797 752.531 198.633 752.531 198.414C752.495 198.049 752.276 197.849 751.875 197.812H750.48C750.134 197.849 749.943 198.049 749.906 198.414C749.87 198.815 749.651 199.034 749.25 199.07C748.849 199.034 748.63 198.815 748.594 198.414C748.612 197.867 748.794 197.411 749.141 197.047C749.505 196.701 749.961 196.518 750.508 196.5H751.902Z" fill="#1A1A1A"/>
<path d="M799.875 193.875V194.367C800.896 194.549 801.725 195.014 802.363 195.762C803.019 196.509 803.357 197.411 803.375 198.469V199.371C803.393 200.647 803.794 201.786 804.578 202.789L804.988 203.309C805.152 203.527 805.18 203.755 805.07 203.992C804.943 204.229 804.742 204.357 804.469 204.375H793.531C793.258 204.357 793.057 204.229 792.93 203.992C792.82 203.755 792.848 203.527 793.012 203.309L793.422 202.789C794.206 201.786 794.607 200.647 794.625 199.371V198.469C794.643 197.411 794.98 196.509 795.637 195.762C796.275 195.014 797.104 194.549 798.125 194.367V193.875C798.125 193.62 798.207 193.41 798.371 193.246C798.535 193.082 798.745 193 799 193C799.255 193 799.465 193.082 799.629 193.246C799.793 193.41 799.875 193.62 799.875 193.875ZM798.781 195.625C797.979 195.643 797.305 195.917 796.758 196.445C796.229 196.992 795.956 197.667 795.937 198.469V199.371C795.937 200.72 795.573 201.951 794.844 203.062H803.156C802.427 201.951 802.062 200.72 802.062 199.371V198.469C802.044 197.667 801.771 196.992 801.242 196.445C800.695 195.917 800.021 195.643 799.219 195.625H798.781ZM800.75 205.25C800.75 205.724 800.577 206.134 800.23 206.48C799.884 206.827 799.474 207 799 207C798.526 207 798.116 206.827 797.769 206.48C797.423 206.134 797.25 205.724 797.25 205.25H800.75Z" fill="#1A1A1A"/>
<rect x="835" y="180" width="1" height="40" fill="#E6E6E6"/>
<rect x="852.5" y="180.5" width="207" height="39" rx="3.5" stroke="#1A1A1A"/>
<path fill-rule="evenodd" clip-rule="evenodd" d="M869.5 200.002C869.5 196.411 872.411 193.5 876.002 193.5C879.592 193.5 882.503 196.411 882.503 200.002C882.503 203.592 879.592 206.503 876.002 206.503C872.411 206.503 869.5 203.592 869.5 200.002ZM876.002 192C871.582 192 868 195.582 868 200.002C868 204.421 871.582 208.003 876.002 208.003C880.421 208.003 884.003 204.421 884.003 200.002C884.003 195.582 880.421 192 876.002 192ZM878.149 203.629C878.383 203.746 878.641 203.807 878.903 203.807C879.165 203.807 879.424 203.746 879.658 203.629C879.897 203.51 880.096 203.324 880.23 203.094C880.372 202.858 880.446 202.586 880.444 202.31V196.146H879.341V202.31C879.342 202.363 879.331 202.415 879.31 202.463C879.29 202.511 879.259 202.555 879.22 202.59C879.133 202.667 879.02 202.71 878.903 202.71C878.786 202.71 878.673 202.667 878.585 202.59C878.547 202.554 878.517 202.511 878.496 202.463C878.475 202.415 878.465 202.363 878.465 202.31V197.642C878.471 197.444 878.436 197.248 878.362 197.064C878.289 196.88 878.178 196.713 878.038 196.574C877.747 196.3 877.363 196.147 876.963 196.147C876.564 196.147 876.179 196.3 875.889 196.574C875.748 196.713 875.638 196.88 875.565 197.064C875.491 197.248 875.456 197.444 875.461 197.642V202.31C875.462 202.363 875.451 202.415 875.43 202.463C875.409 202.511 875.379 202.554 875.341 202.59C875.253 202.667 875.14 202.71 875.023 202.71C874.906 202.71 874.793 202.667 874.705 202.59C874.667 202.555 874.636 202.511 874.615 202.463C874.594 202.415 874.584 202.363 874.584 202.31V197.642C874.589 197.444 874.553 197.247 874.479 197.063C874.404 196.879 874.294 196.712 874.153 196.573C874.013 196.433 873.845 196.323 873.661 196.25C873.477 196.176 873.28 196.141 873.081 196.147C872.669 196.14 872.271 196.293 871.969 196.574C871.819 196.708 871.699 196.872 871.619 197.057C871.539 197.241 871.499 197.441 871.504 197.642V203.807H872.597V197.642C872.597 197.59 872.608 197.538 872.629 197.49C872.649 197.442 872.68 197.398 872.718 197.362C872.76 197.321 872.81 197.289 872.866 197.268C872.921 197.248 872.98 197.239 873.039 197.243C873.097 197.239 873.156 197.248 873.211 197.269C873.267 197.29 873.317 197.321 873.359 197.362C873.397 197.398 873.427 197.442 873.448 197.49C873.469 197.538 873.479 197.59 873.479 197.642V202.31C873.474 202.509 873.511 202.706 873.585 202.89C873.659 203.074 873.77 203.241 873.91 203.38C874.051 203.52 874.219 203.63 874.403 203.703C874.587 203.776 874.785 203.811 874.983 203.806C875.395 203.812 875.793 203.659 876.095 203.379C876.245 203.245 876.364 203.08 876.444 202.895C876.525 202.711 876.564 202.511 876.561 202.31V197.642C876.562 197.564 876.586 197.487 876.631 197.423C876.675 197.358 876.737 197.307 876.81 197.278C876.882 197.248 876.962 197.24 877.039 197.255C877.116 197.27 877.187 197.307 877.243 197.362C877.281 197.398 877.312 197.442 877.333 197.49C877.353 197.538 877.364 197.59 877.364 197.642V202.31C877.361 202.587 877.435 202.858 877.578 203.094C877.712 203.324 877.911 203.51 878.149 203.629Z" fill="#1A1A1A"/>
<path d="M893.831 194.336H895.472L898.555 202.561L901.631 194.336H903.272L899.2 205H897.896L893.831 194.336ZM893.084 194.336H894.644L894.915 201.455V205H893.084V194.336ZM902.459 194.336H904.026V205H902.188V201.455L902.459 194.336ZM905.696 201.125V200.957C905.696 200.386 905.779 199.856 905.945 199.368C906.111 198.875 906.351 198.447 906.663 198.086C906.98 197.72 907.366 197.437 907.82 197.236C908.279 197.031 908.797 196.929 909.373 196.929C909.954 196.929 910.472 197.031 910.926 197.236C911.385 197.437 911.773 197.72 912.09 198.086C912.408 198.447 912.649 198.875 912.815 199.368C912.981 199.856 913.064 200.386 913.064 200.957V201.125C913.064 201.697 912.981 202.227 912.815 202.715C912.649 203.203 912.408 203.63 912.09 203.997C911.773 204.358 911.387 204.641 910.933 204.846C910.479 205.046 909.964 205.146 909.388 205.146C908.807 205.146 908.287 205.046 907.828 204.846C907.374 204.641 906.988 204.358 906.67 203.997C906.353 203.63 906.111 203.203 905.945 202.715C905.779 202.227 905.696 201.697 905.696 201.125ZM907.461 200.957V201.125C907.461 201.482 907.498 201.819 907.571 202.136C907.645 202.454 907.759 202.732 907.916 202.971C908.072 203.21 908.272 203.398 908.516 203.535C908.76 203.672 909.051 203.74 909.388 203.74C909.715 203.74 909.998 203.672 910.237 203.535C910.481 203.398 910.682 203.21 910.838 202.971C910.994 202.732 911.109 202.454 911.182 202.136C911.26 201.819 911.299 201.482 911.299 201.125V200.957C911.299 200.605 911.26 200.273 911.182 199.961C911.109 199.644 910.992 199.363 910.831 199.119C910.674 198.875 910.474 198.684 910.23 198.547C909.991 198.406 909.705 198.335 909.373 198.335C909.041 198.335 908.753 198.406 908.509 198.547C908.27 198.684 908.072 198.875 907.916 199.119C907.759 199.363 907.645 199.644 907.571 199.961C907.498 200.273 907.461 200.605 907.461 200.957ZM916.316 198.584V205H914.551V197.075H916.236L916.316 198.584ZM918.741 197.024L918.726 198.665C918.619 198.645 918.501 198.63 918.375 198.621C918.252 198.611 918.13 198.606 918.008 198.606C917.706 198.606 917.439 198.65 917.21 198.738C916.98 198.821 916.788 198.943 916.631 199.104C916.48 199.26 916.363 199.451 916.28 199.675C916.197 199.9 916.148 200.151 916.133 200.43L915.73 200.459C915.73 199.961 915.779 199.5 915.877 199.075C915.975 198.65 916.121 198.276 916.316 197.954C916.517 197.632 916.766 197.38 917.063 197.2C917.366 197.019 917.715 196.929 918.111 196.929C918.218 196.929 918.333 196.938 918.455 196.958C918.582 196.978 918.677 197 918.741 197.024ZM923.194 205.146C922.608 205.146 922.078 205.051 921.604 204.861C921.136 204.666 920.735 204.395 920.403 204.048C920.076 203.701 919.825 203.293 919.649 202.825C919.473 202.356 919.385 201.851 919.385 201.309V201.016C919.385 200.396 919.476 199.834 919.656 199.331C919.837 198.828 920.088 198.398 920.411 198.042C920.733 197.681 921.114 197.405 921.553 197.214C921.993 197.024 922.469 196.929 922.981 196.929C923.548 196.929 924.043 197.024 924.468 197.214C924.893 197.405 925.245 197.673 925.523 198.02C925.806 198.362 926.016 198.77 926.153 199.243C926.294 199.717 926.365 200.239 926.365 200.811V201.565H920.242V200.298H924.622V200.159C924.612 199.841 924.549 199.543 924.432 199.265C924.319 198.987 924.146 198.762 923.912 198.591C923.677 198.42 923.365 198.335 922.974 198.335C922.681 198.335 922.42 198.398 922.19 198.525C921.966 198.647 921.778 198.826 921.626 199.06C921.475 199.294 921.358 199.578 921.275 199.91C921.197 200.237 921.158 200.605 921.158 201.016V201.309C921.158 201.655 921.204 201.978 921.297 202.275C921.395 202.568 921.536 202.825 921.722 203.044C921.907 203.264 922.132 203.438 922.396 203.564C922.659 203.687 922.959 203.748 923.296 203.748C923.721 203.748 924.1 203.662 924.432 203.491C924.764 203.32 925.052 203.079 925.296 202.766L926.226 203.667C926.055 203.916 925.833 204.155 925.56 204.385C925.286 204.609 924.952 204.792 924.556 204.934C924.166 205.076 923.711 205.146 923.194 205.146ZM933.865 205H932.1V196.313C932.1 195.723 932.21 195.227 932.43 194.827C932.654 194.421 932.974 194.116 933.389 193.911C933.804 193.701 934.295 193.596 934.861 193.596C935.037 193.596 935.21 193.608 935.381 193.633C935.552 193.652 935.718 193.684 935.879 193.728L935.835 195.09C935.738 195.066 935.63 195.049 935.513 195.039C935.401 195.029 935.279 195.024 935.147 195.024C934.878 195.024 934.646 195.076 934.451 195.178C934.261 195.276 934.114 195.42 934.012 195.61C933.914 195.801 933.865 196.035 933.865 196.313V205ZM935.499 197.075V198.364H930.884V197.075H935.499ZM938.553 198.584V205H936.788V197.075H938.472L938.553 198.584ZM940.977 197.024L940.962 198.665C940.855 198.645 940.738 198.63 940.611 198.621C940.489 198.611 940.367 198.606 940.245 198.606C939.942 198.606 939.676 198.65 939.446 198.738C939.217 198.821 939.024 198.943 938.868 199.104C938.716 199.26 938.599 199.451 938.516 199.675C938.433 199.9 938.384 200.151 938.37 200.43L937.967 200.459C937.967 199.961 938.016 199.5 938.113 199.075C938.211 198.65 938.357 198.276 938.553 197.954C938.753 197.632 939.002 197.38 939.3 197.2C939.603 197.019 939.952 196.929 940.347 196.929C940.455 196.929 940.569 196.938 940.691 196.958C940.818 196.978 940.914 197 940.977 197.024ZM941.556 201.125V200.957C941.556 200.386 941.639 199.856 941.805 199.368C941.971 198.875 942.21 198.447 942.522 198.086C942.84 197.72 943.226 197.437 943.68 197.236C944.139 197.031 944.656 196.929 945.232 196.929C945.813 196.929 946.331 197.031 946.785 197.236C947.244 197.437 947.632 197.72 947.95 198.086C948.267 198.447 948.509 198.875 948.675 199.368C948.841 199.856 948.924 200.386 948.924 200.957V201.125C948.924 201.697 948.841 202.227 948.675 202.715C948.509 203.203 948.267 203.63 947.95 203.997C947.632 204.358 947.247 204.641 946.792 204.846C946.338 205.046 945.823 205.146 945.247 205.146C944.666 205.146 944.146 205.046 943.687 204.846C943.233 204.641 942.847 204.358 942.53 203.997C942.212 203.63 941.971 203.203 941.805 202.715C941.639 202.227 941.556 201.697 941.556 201.125ZM943.321 200.957V201.125C943.321 201.482 943.357 201.819 943.431 202.136C943.504 202.454 943.619 202.732 943.775 202.971C943.931 203.21 944.131 203.398 944.375 203.535C944.62 203.672 944.91 203.74 945.247 203.74C945.574 203.74 945.857 203.672 946.097 203.535C946.341 203.398 946.541 203.21 946.697 202.971C946.854 202.732 946.968 202.454 947.042 202.136C947.12 201.819 947.159 201.482 947.159 201.125V200.957C947.159 200.605 947.12 200.273 947.042 199.961C946.968 199.644 946.851 199.363 946.69 199.119C946.534 198.875 946.333 198.684 946.089 198.547C945.85 198.406 945.564 198.335 945.232 198.335C944.9 198.335 944.612 198.406 944.368 198.547C944.129 198.684 943.931 198.875 943.775 199.119C943.619 199.363 943.504 199.644 943.431 199.961C943.357 200.273 943.321 200.605 943.321 200.957ZM952.168 198.687V205H950.403V197.075H952.066L952.168 198.687ZM951.883 200.745L951.282 200.737C951.282 200.19 951.351 199.685 951.487 199.221C951.624 198.757 951.824 198.354 952.088 198.013C952.352 197.666 952.679 197.4 953.069 197.214C953.465 197.024 953.921 196.929 954.439 196.929C954.8 196.929 955.13 196.982 955.428 197.09C955.73 197.192 955.992 197.356 956.211 197.581C956.436 197.805 956.607 198.093 956.724 198.445C956.846 198.796 956.907 199.221 956.907 199.719V205H955.142V199.873C955.142 199.487 955.083 199.185 954.966 198.965C954.854 198.745 954.69 198.589 954.476 198.496C954.266 198.398 954.014 198.35 953.721 198.35C953.389 198.35 953.106 198.413 952.872 198.54C952.642 198.667 952.454 198.84 952.308 199.06C952.161 199.28 952.054 199.534 951.985 199.822C951.917 200.11 951.883 200.417 951.883 200.745ZM956.797 200.276L955.97 200.459C955.97 199.98 956.036 199.529 956.167 199.104C956.304 198.674 956.502 198.298 956.761 197.976C957.024 197.649 957.349 197.393 957.735 197.207C958.121 197.021 958.562 196.929 959.061 196.929C959.466 196.929 959.827 196.985 960.145 197.097C960.467 197.205 960.74 197.375 960.965 197.61C961.189 197.844 961.36 198.149 961.478 198.525C961.595 198.896 961.653 199.346 961.653 199.873V205H959.881V199.866C959.881 199.465 959.822 199.155 959.705 198.936C959.593 198.716 959.432 198.564 959.222 198.481C959.012 198.394 958.76 198.35 958.467 198.35C958.194 198.35 957.952 198.401 957.742 198.503C957.537 198.601 957.364 198.74 957.222 198.921C957.081 199.097 956.973 199.299 956.9 199.529C956.832 199.758 956.797 200.007 956.797 200.276ZM970.054 202.605L972.178 194.336H973.292L973.167 196.467L970.896 205H969.739L970.054 202.605ZM968.465 194.336L970.186 202.539L970.34 205H969.109L966.641 194.336H968.465ZM975.701 202.517L977.4 194.336H979.231L976.763 205H975.533L975.701 202.517ZM973.724 194.336L975.826 202.627L976.133 205H974.976L972.742 196.467L972.625 194.336H973.724ZM984.644 201.023H981.868V199.565H984.644C985.127 199.565 985.518 199.487 985.816 199.331C986.114 199.175 986.331 198.96 986.468 198.687C986.609 198.408 986.68 198.091 986.68 197.734C986.68 197.397 986.609 197.083 986.468 196.79C986.331 196.492 986.114 196.252 985.816 196.072C985.518 195.891 985.127 195.801 984.644 195.801H982.432V205H980.594V194.336H984.644C985.469 194.336 986.17 194.482 986.746 194.775C987.327 195.063 987.769 195.464 988.072 195.977C988.375 196.484 988.526 197.065 988.526 197.72C988.526 198.408 988.375 198.999 988.072 199.492C987.769 199.985 987.327 200.364 986.746 200.627C986.17 200.891 985.469 201.023 984.644 201.023ZM990.921 194.336H992.562L995.645 202.561L998.721 194.336H1000.36L996.29 205H994.986L990.921 194.336ZM990.174 194.336H991.734L992.005 201.455V205H990.174V194.336ZM999.549 194.336H1001.12V205H999.278V201.455L999.549 194.336ZM1009.28 194.336H1011.11V201.462C1011.11 202.273 1010.94 202.952 1010.59 203.499C1010.23 204.045 1009.76 204.458 1009.15 204.736C1008.55 205.01 1007.88 205.146 1007.14 205.146C1006.37 205.146 1005.69 205.01 1005.09 204.736C1004.49 204.458 1004.01 204.045 1003.67 203.499C1003.32 202.952 1003.15 202.273 1003.15 201.462V194.336H1004.98V201.462C1004.98 201.975 1005.07 202.397 1005.25 202.729C1005.42 203.057 1005.67 203.298 1005.99 203.455C1006.32 203.611 1006.7 203.689 1007.14 203.689C1007.58 203.689 1007.95 203.611 1008.27 203.455C1008.59 203.298 1008.84 203.057 1009.02 202.729C1009.19 202.397 1009.28 201.975 1009.28 201.462V194.336ZM1019.95 205H1017.67L1017.68 203.542H1019.95C1020.61 203.542 1021.16 203.398 1021.6 203.11C1022.05 202.822 1022.39 202.41 1022.61 201.873C1022.84 201.335 1022.96 200.696 1022.96 199.954V199.375C1022.96 198.799 1022.89 198.289 1022.76 197.844C1022.63 197.4 1022.44 197.026 1022.19 196.724C1021.94 196.421 1021.63 196.191 1021.27 196.035C1020.9 195.879 1020.49 195.801 1020.01 195.801H1017.62V194.336H1020.01C1020.72 194.336 1021.37 194.456 1021.95 194.695C1022.54 194.929 1023.04 195.269 1023.47 195.713C1023.9 196.157 1024.23 196.689 1024.46 197.31C1024.69 197.93 1024.8 198.623 1024.8 199.39V199.954C1024.8 200.72 1024.69 201.414 1024.46 202.034C1024.23 202.654 1023.9 203.186 1023.47 203.63C1023.04 204.07 1022.53 204.409 1021.93 204.648C1021.34 204.883 1020.68 205 1019.95 205ZM1018.69 194.336V205H1016.85V194.336H1018.69ZM1033.63 203.542V205H1027.97V203.542H1033.63ZM1028.49 194.336V205H1026.65V194.336H1028.49ZM1032.89 198.789V200.225H1027.97V198.789H1032.89ZM1033.59 194.336V195.801H1027.97V194.336H1033.59ZM1038.78 203.052L1041.59 194.336H1043.62L1039.8 205H1038.43L1038.78 203.052ZM1036.19 194.336L1038.98 203.052L1039.36 205H1037.98L1034.17 194.336H1036.19Z" fill="#1A1A1A"/>
<rect x="1076" y="180" width="132" height="40" rx="4" fill="#1A1A1A"/>
<path d="M1099.07 194.336H1100.9V201.462C1100.9 202.273 1100.72 202.952 1100.37 203.499C1100.02 204.045 1099.54 204.458 1098.94 204.736C1098.34 205.01 1097.66 205.146 1096.92 205.146C1096.16 205.146 1095.47 205.01 1094.87 204.736C1094.27 204.458 1093.8 204.045 1093.45 203.499C1093.11 202.952 1092.94 202.273 1092.94 201.462V194.336H1094.77V201.462C1094.77 201.975 1094.86 202.397 1095.03 202.729C1095.21 203.057 1095.46 203.298 1095.78 203.455C1096.1 203.611 1096.48 203.689 1096.92 203.689C1097.36 203.689 1097.74 203.611 1098.06 203.455C1098.38 203.298 1098.63 203.057 1098.8 202.729C1098.98 202.397 1099.07 201.975 1099.07 201.462V194.336ZM1104.5 198.599V208.047H1102.73V197.075H1104.36L1104.5 198.599ZM1109.66 200.964V201.118C1109.66 201.694 1109.59 202.229 1109.45 202.722C1109.32 203.21 1109.12 203.638 1108.86 204.004C1108.6 204.365 1108.28 204.646 1107.9 204.846C1107.52 205.046 1107.08 205.146 1106.58 205.146C1106.09 205.146 1105.66 205.056 1105.29 204.875C1104.92 204.69 1104.61 204.429 1104.36 204.092C1104.1 203.755 1103.9 203.359 1103.74 202.905C1103.59 202.446 1103.48 201.943 1103.42 201.396V200.803C1103.48 200.222 1103.59 199.695 1103.74 199.221C1103.9 198.748 1104.1 198.34 1104.36 197.998C1104.61 197.656 1104.92 197.393 1105.29 197.207C1105.65 197.021 1106.08 196.929 1106.57 196.929C1107.07 196.929 1107.51 197.026 1107.89 197.222C1108.28 197.412 1108.6 197.686 1108.87 198.042C1109.13 198.394 1109.33 198.818 1109.46 199.316C1109.59 199.81 1109.66 200.359 1109.66 200.964ZM1107.89 201.118V200.964C1107.89 200.598 1107.86 200.259 1107.79 199.946C1107.72 199.629 1107.62 199.351 1107.47 199.111C1107.32 198.872 1107.13 198.687 1106.9 198.555C1106.68 198.418 1106.41 198.35 1106.09 198.35C1105.78 198.35 1105.51 198.403 1105.29 198.511C1105.06 198.613 1104.87 198.757 1104.72 198.943C1104.57 199.128 1104.45 199.346 1104.37 199.595C1104.29 199.839 1104.23 200.105 1104.19 200.393V201.814C1104.25 202.166 1104.35 202.488 1104.5 202.781C1104.64 203.074 1104.84 203.308 1105.1 203.484C1105.36 203.655 1105.7 203.74 1106.11 203.74C1106.42 203.74 1106.69 203.672 1106.92 203.535C1107.14 203.398 1107.33 203.21 1107.47 202.971C1107.62 202.727 1107.72 202.446 1107.79 202.129C1107.86 201.812 1107.89 201.475 1107.89 201.118ZM1116.24 197.075H1117.84V204.78C1117.84 205.493 1117.69 206.099 1117.39 206.597C1117.08 207.095 1116.66 207.473 1116.12 207.732C1115.58 207.996 1114.95 208.127 1114.24 208.127C1113.93 208.127 1113.6 208.083 1113.23 207.996C1112.86 207.908 1112.5 207.766 1112.16 207.571C1111.81 207.38 1111.53 207.129 1111.3 206.816L1112.13 205.776C1112.41 206.113 1112.72 206.36 1113.06 206.516C1113.41 206.672 1113.77 206.75 1114.14 206.75C1114.55 206.75 1114.89 206.675 1115.17 206.523C1115.46 206.377 1115.68 206.16 1115.84 205.872C1116 205.583 1116.07 205.232 1116.07 204.817V198.87L1116.24 197.075ZM1110.85 201.125V200.972C1110.85 200.371 1110.93 199.824 1111.07 199.331C1111.22 198.833 1111.43 198.406 1111.7 198.049C1111.98 197.688 1112.31 197.412 1112.7 197.222C1113.09 197.026 1113.53 196.929 1114.02 196.929C1114.54 196.929 1114.97 197.021 1115.33 197.207C1115.7 197.393 1116.01 197.659 1116.25 198.005C1116.49 198.347 1116.69 198.757 1116.82 199.236C1116.96 199.709 1117.07 200.237 1117.14 200.818V201.309C1117.07 201.875 1116.97 202.393 1116.81 202.861C1116.66 203.33 1116.46 203.735 1116.21 204.077C1115.96 204.419 1115.66 204.683 1115.29 204.868C1114.93 205.054 1114.5 205.146 1114.01 205.146C1113.53 205.146 1113.09 205.046 1112.7 204.846C1112.31 204.646 1111.98 204.365 1111.7 204.004C1111.43 203.643 1111.22 203.218 1111.07 202.729C1110.93 202.236 1110.85 201.702 1110.85 201.125ZM1112.62 200.972V201.125C1112.62 201.487 1112.65 201.824 1112.72 202.136C1112.79 202.449 1112.9 202.725 1113.05 202.964C1113.2 203.198 1113.39 203.384 1113.62 203.521C1113.86 203.652 1114.13 203.718 1114.45 203.718C1114.86 203.718 1115.2 203.63 1115.47 203.455C1115.74 203.279 1115.94 203.042 1116.08 202.744C1116.23 202.441 1116.33 202.104 1116.39 201.733V200.408C1116.36 200.12 1116.3 199.851 1116.21 199.602C1116.12 199.353 1116 199.136 1115.85 198.95C1115.7 198.76 1115.51 198.613 1115.28 198.511C1115.05 198.403 1114.78 198.35 1114.46 198.35C1114.15 198.35 1113.87 198.418 1113.64 198.555C1113.4 198.691 1113.21 198.879 1113.06 199.119C1112.91 199.358 1112.8 199.636 1112.73 199.954C1112.65 200.271 1112.62 200.61 1112.62 200.972ZM1121.44 198.584V205H1119.68V197.075H1121.36L1121.44 198.584ZM1123.87 197.024L1123.85 198.665C1123.75 198.645 1123.63 198.63 1123.5 198.621C1123.38 198.611 1123.26 198.606 1123.14 198.606C1122.83 198.606 1122.57 198.65 1122.34 198.738C1122.11 198.821 1121.91 198.943 1121.76 199.104C1121.61 199.26 1121.49 199.451 1121.41 199.675C1121.32 199.9 1121.27 200.151 1121.26 200.43L1120.86 200.459C1120.86 199.961 1120.91 199.5 1121 199.075C1121.1 198.65 1121.25 198.276 1121.44 197.954C1121.64 197.632 1121.89 197.38 1122.19 197.2C1122.49 197.019 1122.84 196.929 1123.24 196.929C1123.35 196.929 1123.46 196.938 1123.58 196.958C1123.71 196.978 1123.8 197 1123.87 197.024ZM1129.18 203.411V199.631C1129.18 199.348 1129.13 199.104 1129.02 198.899C1128.92 198.694 1128.77 198.535 1128.56 198.423C1128.35 198.311 1128.09 198.254 1127.78 198.254C1127.49 198.254 1127.24 198.303 1127.03 198.401C1126.82 198.499 1126.66 198.63 1126.54 198.796C1126.42 198.962 1126.37 199.15 1126.37 199.36H1124.61C1124.61 199.048 1124.68 198.745 1124.83 198.452C1124.99 198.159 1125.21 197.898 1125.49 197.668C1125.78 197.439 1126.13 197.258 1126.53 197.126C1126.93 196.995 1127.38 196.929 1127.87 196.929C1128.47 196.929 1129 197.029 1129.46 197.229C1129.92 197.429 1130.28 197.732 1130.55 198.137C1130.82 198.538 1130.95 199.041 1130.95 199.646V203.169C1130.95 203.53 1130.97 203.855 1131.02 204.143C1131.08 204.426 1131.15 204.673 1131.25 204.883V205H1129.44C1129.36 204.81 1129.29 204.568 1129.24 204.275C1129.2 203.977 1129.18 203.689 1129.18 203.411ZM1129.43 200.181L1129.45 201.272H1128.18C1127.85 201.272 1127.57 201.304 1127.32 201.367C1127.07 201.426 1126.86 201.514 1126.69 201.631C1126.53 201.748 1126.4 201.89 1126.32 202.056C1126.24 202.222 1126.2 202.41 1126.2 202.62C1126.2 202.83 1126.25 203.022 1126.34 203.198C1126.44 203.369 1126.58 203.503 1126.77 203.601C1126.96 203.699 1127.19 203.748 1127.46 203.748C1127.82 203.748 1128.13 203.674 1128.4 203.528C1128.67 203.376 1128.89 203.193 1129.05 202.979C1129.2 202.759 1129.29 202.551 1129.29 202.356L1129.87 203.14C1129.81 203.34 1129.71 203.555 1129.57 203.784C1129.42 204.014 1129.24 204.233 1129.01 204.443C1128.78 204.648 1128.51 204.817 1128.2 204.949C1127.88 205.081 1127.52 205.146 1127.11 205.146C1126.59 205.146 1126.13 205.044 1125.73 204.839C1125.32 204.629 1125.01 204.348 1124.78 203.997C1124.55 203.64 1124.43 203.237 1124.43 202.788C1124.43 202.368 1124.51 201.997 1124.67 201.675C1124.83 201.348 1125.06 201.074 1125.37 200.854C1125.68 200.635 1126.06 200.469 1126.51 200.356C1126.96 200.239 1127.47 200.181 1128.05 200.181H1129.43ZM1137.63 203.359V193.75H1139.4V205H1137.8L1137.63 203.359ZM1132.47 201.125V200.972C1132.47 200.371 1132.54 199.824 1132.69 199.331C1132.83 198.833 1133.03 198.406 1133.3 198.049C1133.57 197.688 1133.9 197.412 1134.28 197.222C1134.67 197.026 1135.1 196.929 1135.59 196.929C1136.06 196.929 1136.48 197.021 1136.85 197.207C1137.21 197.393 1137.52 197.659 1137.77 198.005C1138.02 198.347 1138.23 198.757 1138.38 199.236C1138.53 199.709 1138.64 200.237 1138.7 200.818V201.309C1138.64 201.875 1138.53 202.393 1138.38 202.861C1138.23 203.33 1138.02 203.735 1137.77 204.077C1137.52 204.419 1137.21 204.683 1136.84 204.868C1136.48 205.054 1136.06 205.146 1135.57 205.146C1135.09 205.146 1134.66 205.046 1134.28 204.846C1133.89 204.646 1133.57 204.365 1133.3 204.004C1133.03 203.643 1132.83 203.218 1132.69 202.729C1132.54 202.236 1132.47 201.702 1132.47 201.125ZM1134.24 200.972V201.125C1134.24 201.487 1134.27 201.824 1134.33 202.136C1134.4 202.449 1134.51 202.725 1134.65 202.964C1134.79 203.198 1134.97 203.384 1135.2 203.521C1135.43 203.652 1135.7 203.718 1136.02 203.718C1136.42 203.718 1136.75 203.63 1137.01 203.455C1137.27 203.279 1137.47 203.042 1137.62 202.744C1137.77 202.441 1137.87 202.104 1137.92 201.733V200.408C1137.89 200.12 1137.83 199.851 1137.74 199.602C1137.65 199.353 1137.53 199.136 1137.38 198.95C1137.23 198.76 1137.04 198.613 1136.82 198.511C1136.6 198.403 1136.34 198.35 1136.03 198.35C1135.71 198.35 1135.44 198.418 1135.21 198.555C1134.99 198.691 1134.8 198.879 1134.66 199.119C1134.51 199.358 1134.41 199.636 1134.34 199.954C1134.27 200.271 1134.24 200.61 1134.24 200.972ZM1144.74 205.146C1144.16 205.146 1143.63 205.051 1143.15 204.861C1142.68 204.666 1142.28 204.395 1141.95 204.048C1141.62 203.701 1141.37 203.293 1141.2 202.825C1141.02 202.356 1140.93 201.851 1140.93 201.309V201.016C1140.93 200.396 1141.02 199.834 1141.2 199.331C1141.38 198.828 1141.64 198.398 1141.96 198.042C1142.28 197.681 1142.66 197.405 1143.1 197.214C1143.54 197.024 1144.02 196.929 1144.53 196.929C1145.1 196.929 1145.59 197.024 1146.02 197.214C1146.44 197.405 1146.79 197.673 1147.07 198.02C1147.35 198.362 1147.56 198.77 1147.7 199.243C1147.84 199.717 1147.91 200.239 1147.91 200.811V201.565H1141.79V200.298H1146.17V200.159C1146.16 199.841 1146.1 199.543 1145.98 199.265C1145.87 198.987 1145.69 198.762 1145.46 198.591C1145.23 198.42 1144.91 198.335 1144.52 198.335C1144.23 198.335 1143.97 198.398 1143.74 198.525C1143.51 198.647 1143.33 198.826 1143.17 199.06C1143.02 199.294 1142.91 199.578 1142.82 199.91C1142.74 200.237 1142.71 200.605 1142.71 201.016V201.309C1142.71 201.655 1142.75 201.978 1142.84 202.275C1142.94 202.568 1143.08 202.825 1143.27 203.044C1143.46 203.264 1143.68 203.438 1143.94 203.564C1144.21 203.687 1144.51 203.748 1144.84 203.748C1145.27 203.748 1145.65 203.662 1145.98 203.491C1146.31 203.32 1146.6 203.079 1146.84 202.766L1147.77 203.667C1147.6 203.916 1147.38 204.155 1147.11 204.385C1146.83 204.609 1146.5 204.792 1146.1 204.934C1145.71 205.076 1145.26 205.146 1144.74 205.146ZM1156.66 197.075V198.364H1152.19V197.075H1156.66ZM1153.48 195.134H1155.24V202.81C1155.24 203.054 1155.28 203.242 1155.35 203.374C1155.42 203.501 1155.52 203.586 1155.65 203.63C1155.77 203.674 1155.92 203.696 1156.09 203.696C1156.22 203.696 1156.33 203.689 1156.45 203.674C1156.56 203.66 1156.65 203.645 1156.72 203.63L1156.72 204.978C1156.58 205.022 1156.41 205.061 1156.21 205.095C1156.02 205.129 1155.8 205.146 1155.55 205.146C1155.15 205.146 1154.79 205.076 1154.48 204.934C1154.16 204.788 1153.92 204.551 1153.74 204.224C1153.57 203.896 1153.48 203.462 1153.48 202.92V195.134ZM1157.51 201.125V200.957C1157.51 200.386 1157.59 199.856 1157.76 199.368C1157.92 198.875 1158.16 198.447 1158.47 198.086C1158.79 197.72 1159.18 197.437 1159.63 197.236C1160.09 197.031 1160.61 196.929 1161.18 196.929C1161.77 196.929 1162.28 197.031 1162.74 197.236C1163.2 197.437 1163.58 197.72 1163.9 198.086C1164.22 198.447 1164.46 198.875 1164.63 199.368C1164.79 199.856 1164.88 200.386 1164.88 200.957V201.125C1164.88 201.697 1164.79 202.227 1164.63 202.715C1164.46 203.203 1164.22 203.63 1163.9 203.997C1163.58 204.358 1163.2 204.641 1162.74 204.846C1162.29 205.046 1161.78 205.146 1161.2 205.146C1160.62 205.146 1160.1 205.046 1159.64 204.846C1159.19 204.641 1158.8 204.358 1158.48 203.997C1158.16 203.63 1157.92 203.203 1157.76 202.715C1157.59 202.227 1157.51 201.697 1157.51 201.125ZM1159.27 200.957V201.125C1159.27 201.482 1159.31 201.819 1159.38 202.136C1159.46 202.454 1159.57 202.732 1159.73 202.971C1159.88 203.21 1160.08 203.398 1160.33 203.535C1160.57 203.672 1160.86 203.74 1161.2 203.74C1161.53 203.74 1161.81 203.672 1162.05 203.535C1162.29 203.398 1162.49 203.21 1162.65 202.971C1162.81 202.732 1162.92 202.454 1162.99 202.136C1163.07 201.819 1163.11 201.482 1163.11 201.125V200.957C1163.11 200.605 1163.07 200.273 1162.99 199.961C1162.92 199.644 1162.8 199.363 1162.64 199.119C1162.49 198.875 1162.29 198.684 1162.04 198.547C1161.8 198.406 1161.52 198.335 1161.18 198.335C1160.85 198.335 1160.56 198.406 1160.32 198.547C1160.08 198.684 1159.88 198.875 1159.73 199.119C1159.57 199.363 1159.46 199.644 1159.38 199.961C1159.31 200.273 1159.27 200.605 1159.27 200.957ZM1171.86 198.599V208.047H1170.1V197.075H1171.72L1171.86 198.599ZM1177.03 200.964V201.118C1177.03 201.694 1176.96 202.229 1176.82 202.722C1176.69 203.21 1176.49 203.638 1176.23 204.004C1175.97 204.365 1175.65 204.646 1175.27 204.846C1174.89 205.046 1174.45 205.146 1173.95 205.146C1173.46 205.146 1173.03 205.056 1172.65 204.875C1172.29 204.69 1171.98 204.429 1171.72 204.092C1171.47 203.755 1171.27 203.359 1171.11 202.905C1170.96 202.446 1170.85 201.943 1170.79 201.396V200.803C1170.85 200.222 1170.96 199.695 1171.11 199.221C1171.27 198.748 1171.47 198.34 1171.72 197.998C1171.98 197.656 1172.29 197.393 1172.65 197.207C1173.02 197.021 1173.45 196.929 1173.94 196.929C1174.43 196.929 1174.88 197.026 1175.26 197.222C1175.65 197.412 1175.97 197.686 1176.24 198.042C1176.5 198.394 1176.7 198.818 1176.83 199.316C1176.96 199.81 1177.03 200.359 1177.03 200.964ZM1175.26 201.118V200.964C1175.26 200.598 1175.23 200.259 1175.16 199.946C1175.09 199.629 1174.98 199.351 1174.84 199.111C1174.69 198.872 1174.5 198.687 1174.27 198.555C1174.05 198.418 1173.78 198.35 1173.46 198.35C1173.15 198.35 1172.88 198.403 1172.65 198.511C1172.43 198.613 1172.24 198.757 1172.09 198.943C1171.94 199.128 1171.82 199.346 1171.74 199.595C1171.66 199.839 1171.6 200.105 1171.56 200.393V201.814C1171.62 202.166 1171.72 202.488 1171.86 202.781C1172 203.074 1172.21 203.308 1172.46 203.484C1172.73 203.655 1173.06 203.74 1173.47 203.74C1173.79 203.74 1174.06 203.672 1174.29 203.535C1174.51 203.398 1174.7 203.21 1174.84 202.971C1174.98 202.727 1175.09 202.446 1175.16 202.129C1175.23 201.812 1175.26 201.475 1175.26 201.118ZM1180.3 198.584V205H1178.54V197.075H1180.22L1180.3 198.584ZM1182.73 197.024L1182.71 198.665C1182.6 198.645 1182.49 198.63 1182.36 198.621C1182.24 198.611 1182.11 198.606 1181.99 198.606C1181.69 198.606 1181.42 198.65 1181.19 198.738C1180.96 198.821 1180.77 198.943 1180.62 199.104C1180.46 199.26 1180.35 199.451 1180.26 199.675C1180.18 199.9 1180.13 200.151 1180.12 200.43L1179.71 200.459C1179.71 199.961 1179.76 199.5 1179.86 199.075C1179.96 198.65 1180.11 198.276 1180.3 197.954C1180.5 197.632 1180.75 197.38 1181.05 197.2C1181.35 197.019 1181.7 196.929 1182.1 196.929C1182.2 196.929 1182.32 196.938 1182.44 196.958C1182.57 196.978 1182.66 197 1182.73 197.024ZM1183.3 201.125V200.957C1183.3 200.386 1183.39 199.856 1183.55 199.368C1183.72 198.875 1183.96 198.447 1184.27 198.086C1184.59 197.72 1184.97 197.437 1185.43 197.236C1185.89 197.031 1186.4 196.929 1186.98 196.929C1187.56 196.929 1188.08 197.031 1188.53 197.236C1188.99 197.437 1189.38 197.72 1189.7 198.086C1190.02 198.447 1190.26 198.875 1190.42 199.368C1190.59 199.856 1190.67 200.386 1190.67 200.957V201.125C1190.67 201.697 1190.59 202.227 1190.42 202.715C1190.26 203.203 1190.02 203.63 1189.7 203.997C1189.38 204.358 1188.99 204.641 1188.54 204.846C1188.09 205.046 1187.57 205.146 1187 205.146C1186.41 205.146 1185.89 205.046 1185.44 204.846C1184.98 204.641 1184.6 204.358 1184.28 203.997C1183.96 203.63 1183.72 203.203 1183.55 202.715C1183.39 202.227 1183.3 201.697 1183.3 201.125ZM1185.07 200.957V201.125C1185.07 201.482 1185.11 201.819 1185.18 202.136C1185.25 202.454 1185.37 202.732 1185.52 202.971C1185.68 203.21 1185.88 203.398 1186.12 203.535C1186.37 203.672 1186.66 203.74 1187 203.74C1187.32 203.74 1187.61 203.672 1187.84 203.535C1188.09 203.398 1188.29 203.21 1188.45 202.971C1188.6 202.732 1188.72 202.454 1188.79 202.136C1188.87 201.819 1188.91 201.482 1188.91 201.125V200.957C1188.91 200.605 1188.87 200.273 1188.79 199.961C1188.72 199.644 1188.6 199.363 1188.44 199.119C1188.28 198.875 1188.08 198.684 1187.84 198.547C1187.6 198.406 1187.31 198.335 1186.98 198.335C1186.65 198.335 1186.36 198.406 1186.12 198.547C1185.88 198.684 1185.68 198.875 1185.52 199.119C1185.37 199.363 1185.25 199.644 1185.18 199.961C1185.11 200.273 1185.07 200.605 1185.07 200.957Z" fill="white"/>
<rect x="763" y="120" width="24" height="24" rx="12" fill="#0059FF"/>
<path d="M778.199 134.781V136H772.004V134.953L775.013 131.671C775.343 131.299 775.603 130.977 775.793 130.706C775.984 130.435 776.117 130.192 776.193 129.976C776.274 129.756 776.314 129.542 776.314 129.335C776.314 129.043 776.259 128.787 776.149 128.567C776.043 128.343 775.887 128.167 775.679 128.04C775.472 127.909 775.22 127.843 774.924 127.843C774.581 127.843 774.293 127.917 774.061 128.065C773.828 128.214 773.652 128.419 773.534 128.681C773.415 128.939 773.356 129.236 773.356 129.57H771.826C771.826 129.032 771.949 128.542 772.194 128.097C772.44 127.649 772.795 127.293 773.261 127.031C773.726 126.764 774.287 126.631 774.943 126.631C775.561 126.631 776.085 126.735 776.517 126.942C776.949 127.149 777.277 127.443 777.501 127.824C777.729 128.205 777.844 128.656 777.844 129.176C777.844 129.464 777.797 129.75 777.704 130.033C777.611 130.317 777.478 130.6 777.304 130.884C777.135 131.163 776.934 131.444 776.701 131.728C776.468 132.007 776.212 132.291 775.933 132.579L773.934 134.781H778.199Z" fill="white"/>
<line x1="774.5" y1="168" x2="774.5" y2="144" stroke="#0059FF"/>
<rect x="97" y="120" width="24" height="24" rx="12" fill="#0059FF"/>
<path d="M110.181 126.726V136H108.651V128.542L106.385 129.31V128.046L109.997 126.726H110.181Z" fill="white"/>
<line x1="108.5" y1="168" x2="108.5" y2="144" stroke="#0059FF"/>
<rect x="1020" y="120" width="24" height="24" rx="12" fill="#0059FF"/>
<path d="M1030.8 130.687H1031.71C1032.07 130.687 1032.36 130.626 1032.6 130.503C1032.83 130.38 1033.01 130.211 1033.12 129.995C1033.24 129.779 1033.29 129.532 1033.29 129.252C1033.29 128.96 1033.24 128.711 1033.14 128.503C1033.03 128.292 1032.88 128.129 1032.67 128.015C1032.46 127.9 1032.19 127.843 1031.87 127.843C1031.6 127.843 1031.36 127.898 1031.14 128.008C1030.92 128.114 1030.75 128.266 1030.62 128.465C1030.5 128.66 1030.43 128.893 1030.43 129.164H1028.9C1028.9 128.673 1029.03 128.237 1029.28 127.856C1029.54 127.475 1029.89 127.177 1030.34 126.961C1030.79 126.741 1031.29 126.631 1031.85 126.631C1032.44 126.631 1032.96 126.73 1033.41 126.929C1033.86 127.124 1034.21 127.416 1034.46 127.805C1034.71 128.194 1034.83 128.677 1034.83 129.252C1034.83 129.515 1034.77 129.781 1034.65 130.052C1034.52 130.323 1034.34 130.571 1034.1 130.795C1033.86 131.015 1033.56 131.195 1033.2 131.334C1032.84 131.47 1032.42 131.538 1031.95 131.538H1030.8V130.687ZM1030.8 131.88V131.042H1031.95C1032.49 131.042 1032.95 131.106 1033.33 131.233C1033.72 131.36 1034.03 131.535 1034.27 131.76C1034.51 131.98 1034.69 132.232 1034.8 132.515C1034.91 132.799 1034.97 133.099 1034.97 133.417C1034.97 133.848 1034.89 134.233 1034.74 134.572C1034.58 134.906 1034.37 135.19 1034.08 135.422C1033.8 135.655 1033.47 135.831 1033.09 135.949C1032.71 136.068 1032.3 136.127 1031.85 136.127C1031.46 136.127 1031.08 136.072 1030.71 135.962C1030.35 135.852 1030.02 135.689 1029.73 135.473C1029.45 135.253 1029.22 134.98 1029.05 134.654C1028.88 134.324 1028.8 133.943 1028.8 133.512H1030.33C1030.33 133.787 1030.39 134.03 1030.52 134.242C1030.65 134.449 1030.83 134.612 1031.07 134.73C1031.3 134.849 1031.57 134.908 1031.88 134.908C1032.2 134.908 1032.48 134.851 1032.71 134.737C1032.94 134.623 1033.12 134.453 1033.24 134.229C1033.37 134.005 1033.43 133.734 1033.43 133.417C1033.43 133.057 1033.36 132.765 1033.23 132.541C1033.09 132.316 1032.89 132.151 1032.63 132.045C1032.37 131.935 1032.07 131.88 1031.71 131.88H1030.8Z" fill="white"/>
<line x1="1031.5" y1="168" x2="1031.5" y2="144" stroke="#0059FF"/>
</svg>
