<svg width="1760" height="200" viewBox="0 0 1760 200" fill="none" xmlns="http://www.w3.org/2000/svg">
<rect width="1760" height="200" rx="16" fill="#F8F8F8"/>
<rect width="1200" height="80" transform="translate(40 78)" fill="white"/>
<rect x="72" y="94" width="48" height="48" rx="16" fill="#2DC4E0"/>
<path d="M96 108C97.9778 108 99.9112 108.587 101.556 109.685C103.2 110.784 104.482 112.346 105.239 114.173C105.996 116 106.194 118.011 105.808 119.951C105.422 121.891 104.47 123.673 103.071 125.071C101.673 126.47 99.8907 127.422 97.9509 127.808C96.0111 128.194 94.0005 127.996 92.1732 127.239C90.3459 126.482 88.7841 125.2 87.6853 123.556C86.5865 121.911 86 119.978 86 118C86 115.348 87.0536 112.804 88.9289 110.929C90.8043 109.054 93.3479 108 96 108ZM96 105.5C93.5278 105.5 91.111 106.233 89.0554 107.607C86.9998 108.98 85.3976 110.932 84.4515 113.216C83.5054 115.501 83.2579 118.014 83.7402 120.439C84.2225 122.863 85.413 125.091 87.1612 126.839C88.9093 128.587 91.1366 129.778 93.5614 130.26C95.9862 130.742 98.4995 130.495 100.784 129.549C103.068 128.602 105.02 127 106.393 124.945C107.767 122.889 108.5 120.472 108.5 118C108.5 114.685 107.183 111.505 104.839 109.161C102.495 106.817 99.3152 105.5 96 105.5Z" fill="white" fill-opacity="0.25"/>
<path d="M96 114.25C97.3598 114.25 98.689 114.653 99.8196 115.409C100.95 116.164 101.831 117.238 102.352 118.494C102.872 119.75 103.008 121.133 102.743 122.466C102.478 123.8 101.823 125.025 100.861 125.986C99.8999 126.948 98.6749 127.603 97.3413 127.868C96.0076 128.133 94.6253 127.997 93.3691 127.477C92.1128 126.956 91.0391 126.075 90.2837 124.945C89.5282 123.814 89.125 122.485 89.125 121.125C89.1283 119.303 89.8537 117.556 91.1423 116.267C92.4309 114.979 94.1777 114.253 96 114.25ZM96 111.75C94.1458 111.75 92.3333 112.3 90.7915 113.33C89.2498 114.36 88.0482 115.824 87.3386 117.537C86.6291 119.25 86.4434 121.135 86.8051 122.954C87.1669 124.773 88.0598 126.443 89.3709 127.754C90.682 129.065 92.3524 129.958 94.171 130.32C95.9896 130.682 97.8746 130.496 99.5877 129.786C101.301 129.077 102.765 127.875 103.795 126.334C104.825 124.792 105.375 122.979 105.375 121.125C105.375 118.639 104.387 116.254 102.629 114.496C100.871 112.738 98.4864 111.75 96 111.75Z" fill="#99E1EE"/>
<path d="M96 120.5C96.7417 120.5 97.4667 120.72 98.0834 121.132C98.7001 121.544 99.1807 122.13 99.4646 122.815C99.7484 123.5 99.8226 124.254 99.678 124.982C99.5333 125.709 99.1761 126.377 98.6516 126.902C98.1272 127.426 97.459 127.783 96.7316 127.928C96.0042 128.073 95.2502 127.998 94.565 127.715C93.8797 127.431 93.294 126.95 92.882 126.333C92.4699 125.717 92.25 124.992 92.25 124.25C92.25 123.255 92.6451 122.302 93.3483 121.598C94.0516 120.895 95.0055 120.5 96 120.5ZM96 118C94.7639 118 93.5555 118.367 92.5277 119.053C91.4999 119.74 90.6988 120.716 90.2257 121.858C89.7527 123 89.6289 124.257 89.8701 125.469C90.1113 126.682 90.7065 127.795 91.5806 128.669C92.4546 129.543 93.5683 130.139 94.7807 130.38C95.9931 130.621 97.2498 130.497 98.3918 130.024C99.5338 129.551 100.51 128.75 101.197 127.722C101.883 126.695 102.25 125.486 102.25 124.25C102.25 122.592 101.592 121.003 100.419 119.831C99.2473 118.658 97.6576 118 96 118Z" fill="white"/>
<path d="M144.25 110.651C144.25 110.423 144.215 110.218 144.145 110.036C144.08 109.849 143.957 109.679 143.775 109.526C143.594 109.368 143.339 109.213 143.011 109.061C142.683 108.908 142.258 108.75 141.736 108.586C141.156 108.398 140.605 108.188 140.084 107.953C139.568 107.719 139.111 107.446 138.713 107.136C138.32 106.819 138.01 106.453 137.781 106.037C137.559 105.621 137.447 105.138 137.447 104.587C137.447 104.054 137.564 103.57 137.799 103.137C138.033 102.697 138.361 102.322 138.783 102.012C139.205 101.695 139.703 101.452 140.277 101.282C140.857 101.112 141.493 101.027 142.185 101.027C143.128 101.027 143.951 101.197 144.654 101.537C145.357 101.877 145.902 102.343 146.289 102.935C146.682 103.526 146.878 104.203 146.878 104.965H144.259C144.259 104.59 144.18 104.262 144.021 103.98C143.869 103.693 143.635 103.468 143.318 103.304C143.008 103.14 142.615 103.058 142.141 103.058C141.684 103.058 141.303 103.128 140.998 103.269C140.693 103.403 140.465 103.588 140.312 103.822C140.16 104.051 140.084 104.309 140.084 104.596C140.084 104.812 140.137 105.009 140.242 105.185C140.354 105.36 140.518 105.524 140.734 105.677C140.951 105.829 141.218 105.973 141.534 106.107C141.851 106.242 142.217 106.374 142.633 106.503C143.33 106.714 143.942 106.951 144.47 107.215C145.003 107.479 145.448 107.774 145.806 108.103C146.163 108.431 146.433 108.803 146.614 109.219C146.796 109.635 146.887 110.106 146.887 110.634C146.887 111.19 146.778 111.688 146.562 112.128C146.345 112.567 146.031 112.939 145.621 113.244C145.211 113.549 144.722 113.78 144.153 113.938C143.585 114.097 142.949 114.176 142.246 114.176C141.613 114.176 140.989 114.094 140.374 113.93C139.759 113.76 139.199 113.505 138.695 113.165C138.197 112.825 137.799 112.392 137.5 111.864C137.201 111.337 137.052 110.713 137.052 109.992H139.697C139.697 110.391 139.759 110.728 139.882 111.003C140.005 111.278 140.178 111.501 140.4 111.671C140.629 111.841 140.898 111.964 141.209 112.04C141.525 112.116 141.871 112.154 142.246 112.154C142.703 112.154 143.078 112.09 143.371 111.961C143.67 111.832 143.89 111.653 144.03 111.425C144.177 111.196 144.25 110.938 144.25 110.651ZM151.053 106.459V114H148.513V104.49H150.895L151.053 106.459ZM150.701 108.911H149.998C149.998 108.249 150.077 107.64 150.235 107.083C150.399 106.521 150.637 106.034 150.947 105.624C151.264 105.208 151.653 104.886 152.116 104.657C152.579 104.429 153.115 104.314 153.725 104.314C154.146 104.314 154.533 104.379 154.885 104.508C155.236 104.631 155.538 104.827 155.79 105.097C156.048 105.36 156.247 105.706 156.388 106.134C156.528 106.556 156.599 107.062 156.599 107.654V114H154.067V107.936C154.067 107.502 154.009 107.168 153.892 106.934C153.774 106.699 153.607 106.535 153.391 106.441C153.18 106.348 152.925 106.301 152.626 106.301C152.298 106.301 152.011 106.368 151.765 106.503C151.524 106.638 151.325 106.825 151.167 107.065C151.009 107.3 150.892 107.575 150.815 107.892C150.739 108.208 150.701 108.548 150.701 108.911ZM156.361 108.621L155.456 108.735C155.456 108.114 155.532 107.537 155.685 107.004C155.843 106.471 156.074 106.002 156.379 105.598C156.689 105.193 157.073 104.88 157.53 104.657C157.987 104.429 158.515 104.314 159.112 104.314C159.569 104.314 159.985 104.382 160.36 104.517C160.735 104.646 161.055 104.854 161.318 105.141C161.588 105.422 161.793 105.791 161.934 106.248C162.08 106.705 162.153 107.265 162.153 107.927V114H159.613V107.927C159.613 107.487 159.555 107.153 159.438 106.925C159.326 106.69 159.162 106.529 158.945 106.441C158.734 106.348 158.482 106.301 158.189 106.301C157.885 106.301 157.618 106.362 157.39 106.485C157.161 106.603 156.971 106.767 156.818 106.978C156.666 107.188 156.552 107.435 156.476 107.716C156.399 107.991 156.361 108.293 156.361 108.621ZM169.738 111.724V104.49H172.27V114H169.888L169.738 111.724ZM170.02 109.772L170.767 109.755C170.767 110.388 170.693 110.977 170.547 111.521C170.4 112.061 170.181 112.529 169.888 112.928C169.595 113.32 169.226 113.628 168.78 113.851C168.335 114.067 167.811 114.176 167.207 114.176C166.744 114.176 166.316 114.111 165.924 113.982C165.537 113.848 165.203 113.64 164.922 113.358C164.646 113.071 164.43 112.705 164.271 112.26C164.119 111.809 164.043 111.267 164.043 110.634V104.49H166.574V110.651C166.574 110.933 166.606 111.17 166.671 111.363C166.741 111.557 166.838 111.715 166.961 111.838C167.084 111.961 167.228 112.049 167.392 112.102C167.562 112.154 167.749 112.181 167.954 112.181C168.476 112.181 168.886 112.075 169.185 111.864C169.489 111.653 169.703 111.366 169.826 111.003C169.955 110.634 170.02 110.224 170.02 109.772ZM179.345 111.372C179.345 111.19 179.292 111.026 179.187 110.88C179.081 110.733 178.885 110.599 178.598 110.476C178.316 110.347 177.909 110.229 177.376 110.124C176.896 110.019 176.447 109.887 176.031 109.729C175.621 109.564 175.264 109.368 174.959 109.14C174.66 108.911 174.426 108.642 174.256 108.331C174.086 108.015 174.001 107.654 174.001 107.25C174.001 106.852 174.086 106.477 174.256 106.125C174.432 105.773 174.681 105.463 175.003 105.193C175.331 104.918 175.729 104.704 176.198 104.552C176.673 104.394 177.206 104.314 177.798 104.314C178.624 104.314 179.333 104.446 179.925 104.71C180.522 104.974 180.979 105.337 181.296 105.8C181.618 106.257 181.779 106.778 181.779 107.364H179.248C179.248 107.118 179.195 106.898 179.09 106.705C178.99 106.506 178.832 106.351 178.615 106.239C178.404 106.122 178.129 106.063 177.789 106.063C177.508 106.063 177.265 106.113 177.06 106.213C176.854 106.307 176.696 106.436 176.585 106.6C176.479 106.758 176.427 106.934 176.427 107.127C176.427 107.273 176.456 107.405 176.515 107.522C176.579 107.634 176.682 107.736 176.822 107.83C176.963 107.924 177.145 108.012 177.367 108.094C177.596 108.17 177.877 108.24 178.211 108.305C178.896 108.445 179.509 108.63 180.048 108.858C180.587 109.081 181.015 109.386 181.331 109.772C181.647 110.153 181.806 110.654 181.806 111.275C181.806 111.697 181.712 112.084 181.524 112.436C181.337 112.787 181.067 113.095 180.716 113.358C180.364 113.616 179.942 113.818 179.45 113.965C178.964 114.105 178.416 114.176 177.807 114.176C176.922 114.176 176.172 114.018 175.557 113.701C174.947 113.385 174.484 112.983 174.168 112.497C173.857 112.005 173.702 111.501 173.702 110.985H176.102C176.113 111.331 176.201 111.609 176.365 111.82C176.535 112.031 176.749 112.184 177.007 112.277C177.271 112.371 177.555 112.418 177.859 112.418C178.188 112.418 178.46 112.374 178.677 112.286C178.894 112.192 179.058 112.069 179.169 111.917C179.286 111.759 179.345 111.577 179.345 111.372ZM185.919 100.5V114H183.388V100.5H185.919ZM185.559 108.911H184.864C184.87 108.249 184.958 107.64 185.128 107.083C185.298 106.521 185.541 106.034 185.857 105.624C186.174 105.208 186.552 104.886 186.991 104.657C187.437 104.429 187.929 104.314 188.468 104.314C188.937 104.314 189.361 104.382 189.742 104.517C190.129 104.646 190.46 104.856 190.735 105.149C191.017 105.437 191.233 105.814 191.386 106.283C191.538 106.752 191.614 107.32 191.614 107.988V114H189.065V107.971C189.065 107.549 189.004 107.218 188.881 106.978C188.764 106.731 188.591 106.559 188.362 106.459C188.14 106.354 187.864 106.301 187.536 106.301C187.173 106.301 186.862 106.368 186.604 106.503C186.353 106.638 186.15 106.825 185.998 107.065C185.846 107.3 185.734 107.575 185.664 107.892C185.594 108.208 185.559 108.548 185.559 108.911Z" fill="#1A1A1A"/>
<path d="M138.833 126.758V136H137.24V126.758H138.833ZM142.461 126.758H143.883L146.555 133.886L149.221 126.758H150.643L147.114 136H145.984L142.461 126.758ZM141.813 126.758H143.166L143.4 132.928V136H141.813V126.758ZM149.938 126.758H151.297V136H149.704V132.928L149.938 126.758ZM157.902 127.989L155.141 136H153.471L156.95 126.758H158.016L157.902 127.989ZM160.212 136L157.445 127.989L157.324 126.758H158.397L161.888 136H160.212ZM160.079 132.572V133.835H155.052V132.572H160.079ZM170.918 131.277V134.807C170.787 134.98 170.582 135.171 170.302 135.378C170.027 135.581 169.661 135.757 169.204 135.905C168.747 136.053 168.178 136.127 167.497 136.127C166.917 136.127 166.386 136.03 165.903 135.835C165.421 135.636 165.004 135.346 164.653 134.965C164.306 134.584 164.037 134.121 163.847 133.575C163.656 133.025 163.561 132.399 163.561 131.696V131.055C163.561 130.357 163.648 129.735 163.821 129.189C163.999 128.639 164.253 128.173 164.583 127.792C164.913 127.412 165.311 127.124 165.776 126.929C166.246 126.73 166.777 126.631 167.37 126.631C168.127 126.631 168.753 126.758 169.249 127.012C169.748 127.261 170.133 127.608 170.404 128.053C170.675 128.497 170.846 129.005 170.918 129.576H169.356C169.306 129.255 169.206 128.967 169.058 128.713C168.914 128.459 168.707 128.26 168.436 128.116C168.169 127.968 167.822 127.894 167.395 127.894C167.027 127.894 166.703 127.964 166.424 128.104C166.145 128.243 165.912 128.448 165.726 128.719C165.544 128.99 165.406 129.32 165.313 129.709C165.22 130.099 165.173 130.543 165.173 131.042V131.696C165.173 132.204 165.226 132.655 165.332 133.048C165.442 133.442 165.599 133.774 165.802 134.045C166.009 134.316 166.261 134.521 166.557 134.661C166.853 134.796 167.188 134.864 167.56 134.864C167.924 134.864 168.222 134.834 168.455 134.775C168.688 134.711 168.872 134.637 169.007 134.553C169.147 134.464 169.255 134.379 169.331 134.299V132.464H167.408V131.277H170.918ZM179.732 134.737V136H174.825V134.737H179.732ZM175.276 126.758V136H173.683V126.758H175.276ZM179.091 130.617V131.861H174.825V130.617H179.091ZM179.7 126.758V128.027H174.825V126.758H179.7ZM193.64 131.125V131.633C193.64 132.331 193.549 132.957 193.367 133.512C193.185 134.066 192.925 134.538 192.586 134.927C192.252 135.317 191.85 135.615 191.38 135.822C190.911 136.025 190.39 136.127 189.819 136.127C189.252 136.127 188.733 136.025 188.264 135.822C187.798 135.615 187.394 135.317 187.051 134.927C186.708 134.538 186.442 134.066 186.251 133.512C186.065 132.957 185.972 132.331 185.972 131.633V131.125C185.972 130.427 186.065 129.803 186.251 129.252C186.438 128.698 186.7 128.226 187.039 127.837C187.381 127.443 187.785 127.145 188.251 126.942C188.721 126.735 189.239 126.631 189.806 126.631C190.377 126.631 190.898 126.735 191.368 126.942C191.837 127.145 192.242 127.443 192.58 127.837C192.919 128.226 193.179 128.698 193.361 129.252C193.547 129.803 193.64 130.427 193.64 131.125ZM192.047 131.633V131.112C192.047 130.596 191.996 130.141 191.895 129.748C191.797 129.35 191.651 129.018 191.457 128.751C191.266 128.48 191.031 128.277 190.752 128.142C190.473 128.002 190.157 127.932 189.806 127.932C189.455 127.932 189.142 128.002 188.867 128.142C188.592 128.277 188.357 128.48 188.162 128.751C187.972 129.018 187.826 129.35 187.724 129.748C187.623 130.141 187.572 130.596 187.572 131.112V131.633C187.572 132.149 187.623 132.606 187.724 133.004C187.826 133.402 187.974 133.738 188.168 134.013C188.367 134.284 188.604 134.489 188.879 134.629C189.154 134.764 189.468 134.832 189.819 134.832C190.174 134.832 190.49 134.764 190.765 134.629C191.04 134.489 191.272 134.284 191.463 134.013C191.653 133.738 191.797 133.402 191.895 133.004C191.996 132.606 192.047 132.149 192.047 131.633ZM199.744 132.553H197.338V131.29H199.744C200.163 131.29 200.501 131.222 200.759 131.087C201.017 130.951 201.206 130.765 201.324 130.528C201.447 130.287 201.508 130.012 201.508 129.703C201.508 129.411 201.447 129.138 201.324 128.884C201.206 128.626 201.017 128.419 200.759 128.262C200.501 128.106 200.163 128.027 199.744 128.027H197.827V136H196.233V126.758H199.744C200.459 126.758 201.066 126.885 201.565 127.139C202.069 127.388 202.452 127.735 202.714 128.18C202.977 128.62 203.108 129.123 203.108 129.69C203.108 130.287 202.977 130.799 202.714 131.227C202.452 131.654 202.069 131.982 201.565 132.21C201.066 132.439 200.459 132.553 199.744 132.553ZM209.338 126.758V136H207.758V126.758H209.338ZM212.239 126.758V128.027H204.882V126.758H212.239ZM216.159 126.758V136H214.566V126.758H216.159ZM219.787 126.758H221.209L223.881 133.886L226.547 126.758H227.969L224.44 136H223.31L219.787 126.758ZM219.14 126.758H220.492L220.727 132.928V136H219.14V126.758ZM227.265 126.758H228.623V136H227.03V132.928L227.265 126.758ZM233.216 126.758V136H231.623V126.758H233.216ZM242.658 134.737V136H236.241V134.737H242.658ZM242.512 127.742L236.831 136H235.765V134.991L241.465 126.758H242.512V127.742ZM241.922 126.758V128.027H235.803V126.758H241.922ZM248.73 127.989L245.969 136H244.299L247.778 126.758H248.844L248.73 127.989ZM251.041 136L248.273 127.989L248.152 126.758H249.225L252.716 136H251.041ZM250.907 132.572V133.835H245.88V132.572H250.907ZM257.753 126.758V136H256.173V126.758H257.753ZM260.654 126.758V128.027H253.297V126.758H260.654ZM264.574 126.758V136H262.981V126.758H264.574ZM274.924 131.125V131.633C274.924 132.331 274.833 132.957 274.651 133.512C274.469 134.066 274.209 134.538 273.871 134.927C273.536 135.317 273.134 135.615 272.665 135.822C272.195 136.025 271.674 136.127 271.103 136.127C270.536 136.127 270.018 136.025 269.548 135.822C269.082 135.615 268.678 135.317 268.335 134.927C267.993 134.538 267.726 134.066 267.536 133.512C267.349 132.957 267.256 132.331 267.256 131.633V131.125C267.256 130.427 267.349 129.803 267.536 129.252C267.722 128.698 267.984 128.226 268.323 127.837C268.666 127.443 269.07 127.145 269.535 126.942C270.005 126.735 270.523 126.631 271.09 126.631C271.662 126.631 272.182 126.735 272.652 126.942C273.122 127.145 273.526 127.443 273.864 127.837C274.203 128.226 274.463 128.698 274.645 129.252C274.831 129.803 274.924 130.427 274.924 131.125ZM273.331 131.633V131.112C273.331 130.596 273.28 130.141 273.179 129.748C273.081 129.35 272.935 129.018 272.741 128.751C272.55 128.48 272.315 128.277 272.036 128.142C271.757 128.002 271.442 127.932 271.09 127.932C270.739 127.932 270.426 128.002 270.151 128.142C269.876 128.277 269.641 128.48 269.446 128.751C269.256 129.018 269.11 129.35 269.008 129.748C268.907 130.141 268.856 130.596 268.856 131.112V131.633C268.856 132.149 268.907 132.606 269.008 133.004C269.11 133.402 269.258 133.738 269.453 134.013C269.652 134.284 269.889 134.489 270.164 134.629C270.439 134.764 270.752 134.832 271.103 134.832C271.458 134.832 271.774 134.764 272.049 134.629C272.324 134.489 272.557 134.284 272.747 134.013C272.938 133.738 273.081 133.402 273.179 133.004C273.28 132.606 273.331 132.149 273.331 131.633ZM284.849 126.758V136H283.256L279.111 129.379V136H277.518V126.758H279.111L283.269 133.391V126.758H284.849Z" fill="#737373"/>
<path d="M558 111C554.134 111 551 114.134 551 118C551 121.866 554.134 125 558 125C561.866 125 565 121.866 565 118C565 114.134 561.866 111 558 111ZM558 123.688C554.864 123.688 552.312 121.136 552.312 118C552.312 114.864 554.864 112.312 558 112.312C561.136 112.312 563.688 114.864 563.688 118C563.688 121.136 561.136 123.688 558 123.688ZM558 120.188C557.508 120.188 557.125 120.57 557.125 121.062C557.125 121.555 557.483 121.938 558 121.938C558.468 121.938 558.875 121.555 558.875 121.062C558.875 120.57 558.468 120.188 558 120.188ZM558.905 114.5H557.508C556.441 114.5 555.594 115.348 555.594 116.414C555.594 116.77 555.895 117.07 556.25 117.07C556.605 117.07 556.906 116.77 556.906 116.414C556.906 116.086 557.155 115.812 557.483 115.812H558.88C559.233 115.812 559.531 116.086 559.531 116.414C559.531 116.633 559.422 116.8 559.23 116.909L557.672 117.863C557.453 118 557.344 118.219 557.344 118.438V118.875C557.344 119.23 557.645 119.531 558 119.531C558.355 119.531 558.656 119.23 558.656 118.875V118.82L559.889 118.055C560.464 117.699 560.819 117.07 560.819 116.414C560.844 115.348 559.996 114.5 558.905 114.5Z" fill="#1A1A1A"/>
<path d="M582.13 116.789V118.247H576.468V116.789H582.13ZM576.922 112.336V123H575.084V112.336H576.922ZM583.543 112.336V123H581.712V112.336H583.543ZM589.051 123.146C588.465 123.146 587.936 123.051 587.462 122.861C586.993 122.666 586.593 122.395 586.261 122.048C585.934 121.701 585.682 121.293 585.506 120.825C585.331 120.356 585.243 119.851 585.243 119.309V119.016C585.243 118.396 585.333 117.834 585.514 117.331C585.694 116.828 585.946 116.398 586.268 116.042C586.59 115.681 586.971 115.405 587.411 115.214C587.85 115.024 588.326 114.929 588.839 114.929C589.405 114.929 589.901 115.024 590.326 115.214C590.75 115.405 591.102 115.673 591.38 116.02C591.664 116.362 591.874 116.77 592.01 117.243C592.152 117.717 592.223 118.239 592.223 118.811V119.565H586.1V118.298H590.479V118.159C590.47 117.841 590.406 117.543 590.289 117.265C590.177 116.987 590.003 116.762 589.769 116.591C589.535 116.42 589.222 116.335 588.832 116.335C588.539 116.335 588.277 116.398 588.048 116.525C587.823 116.647 587.635 116.826 587.484 117.06C587.333 117.294 587.215 117.578 587.132 117.91C587.054 118.237 587.015 118.605 587.015 119.016V119.309C587.015 119.655 587.062 119.978 587.154 120.275C587.252 120.568 587.394 120.825 587.579 121.044C587.765 121.264 587.989 121.438 588.253 121.564C588.517 121.687 588.817 121.748 589.154 121.748C589.579 121.748 589.957 121.662 590.289 121.491C590.621 121.32 590.909 121.079 591.153 120.766L592.083 121.667C591.913 121.916 591.69 122.155 591.417 122.385C591.144 122.609 590.809 122.792 590.414 122.934C590.023 123.076 589.569 123.146 589.051 123.146ZM595.489 111.75V123H593.717V111.75H595.489ZM599.195 116.599V126.047H597.43V115.075H599.056L599.195 116.599ZM604.359 118.964V119.118C604.359 119.694 604.291 120.229 604.154 120.722C604.022 121.21 603.824 121.638 603.561 122.004C603.302 122.365 602.982 122.646 602.601 122.846C602.22 123.046 601.781 123.146 601.283 123.146C600.79 123.146 600.357 123.056 599.986 122.875C599.62 122.69 599.31 122.429 599.056 122.092C598.802 121.755 598.597 121.359 598.441 120.905C598.29 120.446 598.182 119.943 598.119 119.396V118.803C598.182 118.222 598.29 117.695 598.441 117.221C598.597 116.748 598.802 116.34 599.056 115.998C599.31 115.656 599.62 115.393 599.986 115.207C600.353 115.021 600.78 114.929 601.268 114.929C601.766 114.929 602.208 115.026 602.594 115.222C602.979 115.412 603.304 115.686 603.568 116.042C603.832 116.394 604.029 116.818 604.161 117.316C604.293 117.81 604.359 118.359 604.359 118.964ZM602.594 119.118V118.964C602.594 118.598 602.56 118.259 602.491 117.946C602.423 117.629 602.315 117.351 602.169 117.111C602.022 116.872 601.834 116.687 601.605 116.555C601.38 116.418 601.109 116.35 600.792 116.35C600.479 116.35 600.211 116.403 599.986 116.511C599.762 116.613 599.574 116.757 599.422 116.943C599.271 117.128 599.154 117.346 599.071 117.595C598.988 117.839 598.929 118.105 598.895 118.393V119.814C598.954 120.166 599.054 120.488 599.195 120.781C599.337 121.074 599.537 121.308 599.796 121.484C600.06 121.655 600.396 121.74 600.807 121.74C601.124 121.74 601.395 121.672 601.62 121.535C601.844 121.398 602.027 121.21 602.169 120.971C602.315 120.727 602.423 120.446 602.491 120.129C602.56 119.812 602.594 119.475 602.594 119.118Z" fill="#1A1A1A"/>
<path d="M653 114.5H649.5V115.9H653V114.5ZM649.5 118.7V117.3H656.5V118.7H649.5ZM649.5 121.5V120.1H656.5V121.5H649.5Z" fill="#1A1A1A"/>
<path d="M655.8 112.4C657.346 112.4 658.6 113.654 658.6 115.2V120.8C658.6 122.346 657.346 123.6 655.8 123.6H650.2C648.654 123.6 647.4 122.346 647.4 120.8V115.2C647.4 113.654 648.654 112.4 650.2 112.4H655.8ZM650.2 111C647.88 111 646 112.88 646 115.2V120.8C646 123.12 647.88 125 650.2 125H655.8C658.12 125 660 123.12 660 120.8V115.2C660 112.88 658.12 111 655.8 111H650.2Z" fill="#1A1A1A"/>
<path d="M673.182 123H670.904L670.919 121.542H673.182C673.841 121.542 674.393 121.398 674.837 121.11C675.287 120.822 675.624 120.41 675.848 119.873C676.078 119.335 676.192 118.696 676.192 117.954V117.375C676.192 116.799 676.126 116.289 675.995 115.844C675.868 115.4 675.677 115.026 675.423 114.724C675.174 114.421 674.867 114.191 674.5 114.035C674.139 113.879 673.722 113.801 673.248 113.801H670.86V112.336H673.248C673.956 112.336 674.603 112.456 675.189 112.695C675.775 112.929 676.28 113.269 676.705 113.713C677.135 114.157 677.464 114.689 677.694 115.31C677.923 115.93 678.038 116.623 678.038 117.39V117.954C678.038 118.72 677.923 119.414 677.694 120.034C677.464 120.654 677.135 121.186 676.705 121.63C676.275 122.07 675.763 122.409 675.167 122.648C674.576 122.883 673.915 123 673.182 123ZM671.922 112.336V123H670.084V112.336H671.922ZM679.371 119.125V118.957C679.371 118.386 679.454 117.856 679.62 117.368C679.786 116.875 680.025 116.447 680.338 116.086C680.655 115.72 681.041 115.437 681.495 115.236C681.954 115.031 682.472 114.929 683.048 114.929C683.629 114.929 684.146 115.031 684.601 115.236C685.06 115.437 685.448 115.72 685.765 116.086C686.083 116.447 686.324 116.875 686.49 117.368C686.656 117.856 686.739 118.386 686.739 118.957V119.125C686.739 119.697 686.656 120.227 686.49 120.715C686.324 121.203 686.083 121.63 685.765 121.997C685.448 122.358 685.062 122.641 684.608 122.846C684.154 123.046 683.639 123.146 683.062 123.146C682.481 123.146 681.961 123.046 681.502 122.846C681.048 122.641 680.663 122.358 680.345 121.997C680.028 121.63 679.786 121.203 679.62 120.715C679.454 120.227 679.371 119.697 679.371 119.125ZM681.136 118.957V119.125C681.136 119.482 681.173 119.819 681.246 120.136C681.319 120.454 681.434 120.732 681.59 120.971C681.747 121.21 681.947 121.398 682.191 121.535C682.435 121.672 682.726 121.74 683.062 121.74C683.39 121.74 683.673 121.672 683.912 121.535C684.156 121.398 684.356 121.21 684.513 120.971C684.669 120.732 684.784 120.454 684.857 120.136C684.935 119.819 684.974 119.482 684.974 119.125V118.957C684.974 118.605 684.935 118.273 684.857 117.961C684.784 117.644 684.667 117.363 684.505 117.119C684.349 116.875 684.149 116.684 683.905 116.547C683.666 116.406 683.38 116.335 683.048 116.335C682.716 116.335 682.428 116.406 682.184 116.547C681.944 116.684 681.747 116.875 681.59 117.119C681.434 117.363 681.319 117.644 681.246 117.961C681.173 118.273 681.136 118.605 681.136 118.957ZM691.456 121.74C691.744 121.74 692.003 121.684 692.232 121.572C692.467 121.455 692.655 121.293 692.796 121.088C692.943 120.883 693.023 120.646 693.038 120.378H694.701C694.691 120.891 694.54 121.357 694.247 121.777C693.954 122.197 693.565 122.531 693.082 122.78C692.599 123.024 692.064 123.146 691.478 123.146C690.873 123.146 690.345 123.044 689.896 122.839C689.447 122.629 689.073 122.341 688.775 121.975C688.478 121.608 688.253 121.186 688.102 120.708C687.955 120.229 687.882 119.716 687.882 119.169V118.913C687.882 118.366 687.955 117.854 688.102 117.375C688.253 116.892 688.478 116.467 688.775 116.101C689.073 115.734 689.447 115.449 689.896 115.244C690.345 115.034 690.87 114.929 691.471 114.929C692.105 114.929 692.662 115.056 693.141 115.31C693.619 115.559 693.995 115.908 694.269 116.357C694.547 116.801 694.691 117.319 694.701 117.91H693.038C693.023 117.617 692.95 117.353 692.818 117.119C692.691 116.879 692.511 116.689 692.276 116.547C692.047 116.406 691.771 116.335 691.449 116.335C691.092 116.335 690.797 116.408 690.562 116.555C690.328 116.696 690.145 116.892 690.013 117.141C689.881 117.385 689.786 117.661 689.728 117.968C689.674 118.271 689.647 118.586 689.647 118.913V119.169C689.647 119.497 689.674 119.814 689.728 120.122C689.781 120.429 689.874 120.705 690.006 120.949C690.143 121.188 690.328 121.381 690.562 121.528C690.797 121.669 691.095 121.74 691.456 121.74ZM700.824 121.132V115.075H702.596V123H700.926L700.824 121.132ZM701.073 119.484L701.666 119.47C701.666 120.002 701.607 120.493 701.49 120.942C701.373 121.386 701.192 121.774 700.948 122.106C700.704 122.434 700.392 122.69 700.011 122.875C699.63 123.056 699.173 123.146 698.641 123.146C698.255 123.146 697.901 123.09 697.579 122.978C697.257 122.866 696.979 122.692 696.744 122.458C696.515 122.224 696.336 121.918 696.209 121.542C696.083 121.167 696.019 120.717 696.019 120.195V115.075H697.784V120.209C697.784 120.498 697.818 120.739 697.887 120.935C697.955 121.125 698.048 121.279 698.165 121.396C698.282 121.513 698.419 121.596 698.575 121.645C698.731 121.694 698.897 121.718 699.073 121.718C699.576 121.718 699.972 121.621 700.26 121.425C700.553 121.225 700.76 120.957 700.882 120.62C701.009 120.283 701.073 119.904 701.073 119.484ZM706.17 116.687V123H704.405V115.075H706.068L706.17 116.687ZM705.885 118.745L705.284 118.737C705.284 118.19 705.353 117.685 705.489 117.221C705.626 116.757 705.826 116.354 706.09 116.013C706.354 115.666 706.681 115.4 707.071 115.214C707.467 115.024 707.923 114.929 708.441 114.929C708.802 114.929 709.132 114.982 709.43 115.09C709.732 115.192 709.994 115.356 710.213 115.581C710.438 115.805 710.609 116.093 710.726 116.445C710.848 116.796 710.909 117.221 710.909 117.719V123H709.144V117.873C709.144 117.487 709.085 117.185 708.968 116.965C708.856 116.745 708.692 116.589 708.478 116.496C708.268 116.398 708.016 116.35 707.723 116.35C707.391 116.35 707.108 116.413 706.874 116.54C706.644 116.667 706.456 116.84 706.31 117.06C706.163 117.28 706.056 117.534 705.987 117.822C705.919 118.11 705.885 118.417 705.885 118.745ZM710.799 118.276L709.972 118.459C709.972 117.98 710.038 117.529 710.169 117.104C710.306 116.674 710.504 116.298 710.763 115.976C711.026 115.649 711.351 115.393 711.737 115.207C712.123 115.021 712.564 114.929 713.062 114.929C713.468 114.929 713.829 114.985 714.146 115.097C714.469 115.205 714.742 115.375 714.967 115.61C715.191 115.844 715.362 116.149 715.479 116.525C715.597 116.896 715.655 117.346 715.655 117.873V123H713.883V117.866C713.883 117.465 713.824 117.155 713.707 116.936C713.595 116.716 713.434 116.564 713.224 116.481C713.014 116.394 712.762 116.35 712.469 116.35C712.196 116.35 711.954 116.401 711.744 116.503C711.539 116.601 711.366 116.74 711.224 116.921C711.083 117.097 710.975 117.299 710.902 117.529C710.833 117.758 710.799 118.007 710.799 118.276ZM720.965 123.146C720.379 123.146 719.85 123.051 719.376 122.861C718.907 122.666 718.507 122.395 718.175 122.048C717.848 121.701 717.596 121.293 717.42 120.825C717.245 120.356 717.157 119.851 717.157 119.309V119.016C717.157 118.396 717.247 117.834 717.428 117.331C717.608 116.828 717.86 116.398 718.182 116.042C718.504 115.681 718.885 115.405 719.325 115.214C719.764 115.024 720.24 114.929 720.753 114.929C721.319 114.929 721.815 115.024 722.24 115.214C722.665 115.405 723.016 115.673 723.294 116.02C723.578 116.362 723.788 116.77 723.924 117.243C724.066 117.717 724.137 118.239 724.137 118.811V119.565H718.014V118.298H722.394V118.159C722.384 117.841 722.32 117.543 722.203 117.265C722.091 116.987 721.917 116.762 721.683 116.591C721.449 116.42 721.136 116.335 720.746 116.335C720.453 116.335 720.191 116.398 719.962 116.525C719.737 116.647 719.549 116.826 719.398 117.06C719.247 117.294 719.129 117.578 719.046 117.91C718.968 118.237 718.929 118.605 718.929 119.016V119.309C718.929 119.655 718.976 119.978 719.068 120.275C719.166 120.568 719.308 120.825 719.493 121.044C719.679 121.264 719.903 121.438 720.167 121.564C720.431 121.687 720.731 121.748 721.068 121.748C721.493 121.748 721.871 121.662 722.203 121.491C722.535 121.32 722.823 121.079 723.067 120.766L723.998 121.667C723.827 121.916 723.604 122.155 723.331 122.385C723.058 122.609 722.723 122.792 722.328 122.934C721.937 123.076 721.483 123.146 720.965 123.146ZM727.264 116.767V123H725.499V115.075H727.162L727.264 116.767ZM726.949 118.745L726.378 118.737C726.383 118.176 726.461 117.661 726.612 117.192C726.769 116.723 726.983 116.32 727.257 115.983C727.535 115.646 727.867 115.388 728.253 115.207C728.639 115.021 729.068 114.929 729.542 114.929C729.923 114.929 730.267 114.982 730.575 115.09C730.887 115.192 731.153 115.361 731.373 115.595C731.598 115.83 731.769 116.135 731.886 116.511C732.003 116.882 732.062 117.338 732.062 117.88V123H730.289V117.873C730.289 117.492 730.233 117.192 730.121 116.972C730.013 116.748 729.854 116.589 729.645 116.496C729.439 116.398 729.183 116.35 728.875 116.35C728.573 116.35 728.302 116.413 728.062 116.54C727.823 116.667 727.621 116.84 727.455 117.06C727.293 117.28 727.169 117.534 727.081 117.822C726.993 118.11 726.949 118.417 726.949 118.745ZM737.496 115.075V116.364H733.028V115.075H737.496ZM734.317 113.134H736.083V120.81C736.083 121.054 736.117 121.242 736.185 121.374C736.258 121.501 736.358 121.586 736.485 121.63C736.612 121.674 736.761 121.696 736.932 121.696C737.054 121.696 737.171 121.689 737.284 121.674C737.396 121.66 737.486 121.645 737.555 121.63L737.562 122.978C737.416 123.022 737.245 123.061 737.049 123.095C736.859 123.129 736.639 123.146 736.39 123.146C735.985 123.146 735.626 123.076 735.313 122.934C735.001 122.788 734.757 122.551 734.581 122.224C734.405 121.896 734.317 121.462 734.317 120.92V113.134ZM743.326 121.411V117.631C743.326 117.348 743.275 117.104 743.172 116.899C743.07 116.694 742.914 116.535 742.704 116.423C742.499 116.311 742.24 116.254 741.927 116.254C741.639 116.254 741.39 116.303 741.18 116.401C740.97 116.499 740.807 116.63 740.689 116.796C740.572 116.962 740.514 117.15 740.514 117.36H738.756C738.756 117.048 738.832 116.745 738.983 116.452C739.134 116.159 739.354 115.898 739.642 115.668C739.93 115.439 740.274 115.258 740.675 115.126C741.075 114.995 741.524 114.929 742.022 114.929C742.618 114.929 743.146 115.029 743.604 115.229C744.068 115.429 744.432 115.732 744.696 116.137C744.964 116.538 745.099 117.041 745.099 117.646V121.169C745.099 121.53 745.123 121.855 745.172 122.143C745.226 122.426 745.301 122.673 745.399 122.883V123H743.59C743.507 122.81 743.441 122.568 743.392 122.275C743.348 121.977 743.326 121.689 743.326 121.411ZM743.583 118.181L743.597 119.272H742.33C742.003 119.272 741.715 119.304 741.466 119.367C741.217 119.426 741.009 119.514 740.843 119.631C740.677 119.748 740.553 119.89 740.47 120.056C740.387 120.222 740.345 120.41 740.345 120.62C740.345 120.83 740.394 121.022 740.492 121.198C740.589 121.369 740.731 121.503 740.917 121.601C741.107 121.699 741.336 121.748 741.605 121.748C741.966 121.748 742.281 121.674 742.55 121.528C742.823 121.376 743.038 121.193 743.194 120.979C743.351 120.759 743.434 120.551 743.443 120.356L744.015 121.14C743.956 121.34 743.856 121.555 743.714 121.784C743.573 122.014 743.387 122.233 743.158 122.443C742.933 122.648 742.662 122.817 742.345 122.949C742.032 123.081 741.671 123.146 741.261 123.146C740.743 123.146 740.282 123.044 739.876 122.839C739.471 122.629 739.154 122.348 738.924 121.997C738.695 121.64 738.58 121.237 738.58 120.788C738.58 120.368 738.658 119.997 738.814 119.675C738.976 119.348 739.21 119.074 739.518 118.854C739.83 118.635 740.211 118.469 740.66 118.356C741.109 118.239 741.622 118.181 742.198 118.181H743.583ZM750.577 115.075V116.364H746.109V115.075H750.577ZM747.398 113.134H749.164V120.81C749.164 121.054 749.198 121.242 749.266 121.374C749.339 121.501 749.439 121.586 749.566 121.63C749.693 121.674 749.842 121.696 750.013 121.696C750.135 121.696 750.252 121.689 750.365 121.674C750.477 121.66 750.567 121.645 750.636 121.63L750.643 122.978C750.497 123.022 750.326 123.061 750.13 123.095C749.94 123.129 749.72 123.146 749.471 123.146C749.066 123.146 748.707 123.076 748.395 122.934C748.082 122.788 747.838 122.551 747.662 122.224C747.486 121.896 747.398 121.462 747.398 120.92V113.134ZM753.829 115.075V123H752.057V115.075H753.829ZM751.939 112.995C751.939 112.727 752.027 112.504 752.203 112.329C752.384 112.148 752.633 112.058 752.95 112.058C753.263 112.058 753.509 112.148 753.69 112.329C753.871 112.504 753.961 112.727 753.961 112.995C753.961 113.259 753.871 113.479 753.69 113.654C753.509 113.83 753.263 113.918 752.95 113.918C752.633 113.918 752.384 113.83 752.203 113.654C752.027 113.479 751.939 113.259 751.939 112.995ZM755.426 119.125V118.957C755.426 118.386 755.509 117.856 755.675 117.368C755.841 116.875 756.08 116.447 756.393 116.086C756.71 115.72 757.096 115.437 757.55 115.236C758.009 115.031 758.526 114.929 759.103 114.929C759.684 114.929 760.201 115.031 760.655 115.236C761.114 115.437 761.502 115.72 761.82 116.086C762.137 116.447 762.379 116.875 762.545 117.368C762.711 117.856 762.794 118.386 762.794 118.957V119.125C762.794 119.697 762.711 120.227 762.545 120.715C762.379 121.203 762.137 121.63 761.82 121.997C761.502 122.358 761.117 122.641 760.663 122.846C760.208 123.046 759.693 123.146 759.117 123.146C758.536 123.146 758.016 123.046 757.557 122.846C757.103 122.641 756.717 122.358 756.4 121.997C756.083 121.63 755.841 121.203 755.675 120.715C755.509 120.227 755.426 119.697 755.426 119.125ZM757.191 118.957V119.125C757.191 119.482 757.228 119.819 757.301 120.136C757.374 120.454 757.489 120.732 757.645 120.971C757.801 121.21 758.001 121.398 758.246 121.535C758.49 121.672 758.78 121.74 759.117 121.74C759.444 121.74 759.728 121.672 759.967 121.535C760.211 121.398 760.411 121.21 760.567 120.971C760.724 120.732 760.838 120.454 760.912 120.136C760.99 119.819 761.029 119.482 761.029 119.125V118.957C761.029 118.605 760.99 118.273 760.912 117.961C760.838 117.644 760.721 117.363 760.56 117.119C760.404 116.875 760.204 116.684 759.959 116.547C759.72 116.406 759.435 116.335 759.103 116.335C758.771 116.335 758.482 116.406 758.238 116.547C757.999 116.684 757.801 116.875 757.645 117.119C757.489 117.363 757.374 117.644 757.301 117.961C757.228 118.273 757.191 118.605 757.191 118.957ZM766.024 116.767V123H764.259V115.075H765.921L766.024 116.767ZM765.709 118.745L765.138 118.737C765.143 118.176 765.221 117.661 765.372 117.192C765.528 116.723 765.743 116.32 766.017 115.983C766.295 115.646 766.627 115.388 767.013 115.207C767.398 115.021 767.828 114.929 768.302 114.929C768.683 114.929 769.027 114.982 769.334 115.09C769.647 115.192 769.913 115.361 770.133 115.595C770.357 115.83 770.528 116.135 770.646 116.511C770.763 116.882 770.821 117.338 770.821 117.88V123H769.049V117.873C769.049 117.492 768.993 117.192 768.88 116.972C768.773 116.748 768.614 116.589 768.404 116.496C768.199 116.398 767.943 116.35 767.635 116.35C767.333 116.35 767.062 116.413 766.822 116.54C766.583 116.667 766.38 116.84 766.214 117.06C766.053 117.28 765.929 117.534 765.841 117.822C765.753 118.11 765.709 118.417 765.709 118.745Z" fill="#1A1A1A"/>
<path d="M820 111C816.15 111 813 114.15 813 118C813 121.85 816.15 125 820 125C823.85 125 827 121.85 827 118C827 114.15 823.85 111 820 111ZM820 123.6C818.88 123.6 817.9 122.62 817.9 121.5C817.9 120.38 818.88 119.4 820 119.4C821.12 119.4 822.1 120.38 822.1 121.5C822.1 122.62 821.12 123.6 820 123.6ZM823.78 120.52C823.71 120.8 823.64 121.08 823.5 121.36C823.43 120.45 823.08 119.68 822.45 119.05C821.82 118.35 820.91 118 820 118C819.3 118 818.6 118.21 818.04 118.56C817.48 118.91 816.99 119.47 816.78 120.1C816.64 120.52 816.5 120.94 816.5 121.36C816.29 120.87 816.15 120.31 816.15 119.75C816.15 118.7 816.57 117.72 817.27 117.02C817.97 116.32 818.95 115.9 820 115.9C820.77 115.9 821.54 116.11 822.17 116.53C822.8 116.95 823.29 117.58 823.57 118.28C823.85 118.98 823.92 119.75 823.78 120.52ZM825.18 119.96C825.18 119.89 825.18 119.82 825.18 119.75C825.18 118.35 824.62 117.02 823.64 116.04C822.66 115.06 821.4 114.5 820 114.5C818.95 114.5 817.97 114.78 817.06 115.41C816.22 115.97 815.52 116.81 815.1 117.79C814.82 118.49 814.68 119.26 814.68 120.03C814.54 119.33 814.4 118.7 814.4 118C814.4 116.53 814.96 115.06 816.01 114.01C817.06 112.96 818.53 112.4 820 112.4C821.12 112.4 822.17 112.75 823.08 113.31C823.99 113.94 824.69 114.78 825.11 115.83C825.6 116.88 825.74 118 825.46 119.12C825.39 119.4 825.32 119.68 825.18 119.96Z" fill="#1A1A1A"/>
<path d="M842.694 120.253C842.694 120.034 842.66 119.838 842.592 119.667C842.528 119.497 842.414 119.34 842.248 119.199C842.082 119.057 841.847 118.92 841.544 118.789C841.247 118.652 840.866 118.513 840.402 118.371C839.894 118.215 839.425 118.042 838.996 117.851C838.571 117.656 838.2 117.431 837.882 117.177C837.565 116.918 837.318 116.623 837.143 116.291C836.967 115.954 836.879 115.566 836.879 115.126C836.879 114.692 836.969 114.296 837.15 113.94C837.335 113.583 837.597 113.276 837.934 113.017C838.275 112.753 838.678 112.551 839.142 112.409C839.606 112.263 840.119 112.189 840.68 112.189C841.471 112.189 842.152 112.336 842.724 112.629C843.3 112.922 843.742 113.315 844.049 113.808C844.362 114.301 844.518 114.846 844.518 115.441H842.694C842.694 115.09 842.619 114.78 842.467 114.511C842.321 114.238 842.096 114.023 841.793 113.867C841.496 113.71 841.117 113.632 840.658 113.632C840.224 113.632 839.862 113.698 839.574 113.83C839.286 113.962 839.071 114.14 838.93 114.365C838.788 114.589 838.717 114.843 838.717 115.126C838.717 115.327 838.764 115.51 838.856 115.676C838.949 115.837 839.091 115.988 839.281 116.13C839.472 116.267 839.711 116.396 839.999 116.518C840.287 116.64 840.626 116.757 841.017 116.87C841.608 117.045 842.123 117.241 842.562 117.456C843.002 117.666 843.368 117.905 843.661 118.173C843.954 118.442 844.174 118.747 844.32 119.089C844.467 119.426 844.54 119.809 844.54 120.239C844.54 120.688 844.45 121.093 844.269 121.455C844.088 121.811 843.83 122.116 843.493 122.37C843.161 122.619 842.76 122.812 842.292 122.949C841.828 123.081 841.31 123.146 840.739 123.146C840.226 123.146 839.721 123.078 839.223 122.941C838.729 122.805 838.28 122.597 837.875 122.319C837.47 122.036 837.147 121.684 836.908 121.264C836.669 120.839 836.549 120.344 836.549 119.777H838.388C838.388 120.124 838.446 120.419 838.563 120.664C838.686 120.908 838.854 121.108 839.069 121.264C839.284 121.416 839.533 121.528 839.816 121.601C840.104 121.674 840.412 121.711 840.739 121.711C841.168 121.711 841.527 121.65 841.815 121.528C842.108 121.406 842.328 121.235 842.475 121.015C842.621 120.795 842.694 120.542 842.694 120.253ZM850.758 121.132V115.075H852.531V123H850.861L850.758 121.132ZM851.007 119.484L851.601 119.47C851.601 120.002 851.542 120.493 851.425 120.942C851.308 121.386 851.127 121.774 850.883 122.106C850.639 122.434 850.326 122.69 849.945 122.875C849.564 123.056 849.108 123.146 848.576 123.146C848.19 123.146 847.836 123.09 847.514 122.978C847.191 122.866 846.913 122.692 846.679 122.458C846.449 122.224 846.271 121.918 846.144 121.542C846.017 121.167 845.954 120.717 845.954 120.195V115.075H847.719V120.209C847.719 120.498 847.753 120.739 847.821 120.935C847.89 121.125 847.982 121.279 848.1 121.396C848.217 121.513 848.354 121.596 848.51 121.645C848.666 121.694 848.832 121.718 849.008 121.718C849.511 121.718 849.906 121.621 850.194 121.425C850.487 121.225 850.695 120.957 850.817 120.62C850.944 120.283 851.007 119.904 851.007 119.484ZM856.112 116.599V126.047H854.347V115.075H855.973L856.112 116.599ZM861.276 118.964V119.118C861.276 119.694 861.208 120.229 861.071 120.722C860.939 121.21 860.741 121.638 860.478 122.004C860.219 122.365 859.899 122.646 859.518 122.846C859.137 123.046 858.698 123.146 858.2 123.146C857.707 123.146 857.274 123.056 856.903 122.875C856.537 122.69 856.227 122.429 855.973 122.092C855.719 121.755 855.514 121.359 855.358 120.905C855.207 120.446 855.099 119.943 855.036 119.396V118.803C855.099 118.222 855.207 117.695 855.358 117.221C855.514 116.748 855.719 116.34 855.973 115.998C856.227 115.656 856.537 115.393 856.903 115.207C857.27 115.021 857.697 114.929 858.185 114.929C858.683 114.929 859.125 115.026 859.511 115.222C859.896 115.412 860.221 115.686 860.485 116.042C860.749 116.394 860.946 116.818 861.078 117.316C861.21 117.81 861.276 118.359 861.276 118.964ZM859.511 119.118V118.964C859.511 118.598 859.477 118.259 859.408 117.946C859.34 117.629 859.232 117.351 859.086 117.111C858.939 116.872 858.751 116.687 858.522 116.555C858.297 116.418 858.026 116.35 857.709 116.35C857.396 116.35 857.128 116.403 856.903 116.511C856.679 116.613 856.491 116.757 856.339 116.943C856.188 117.128 856.071 117.346 855.988 117.595C855.905 117.839 855.846 118.105 855.812 118.393V119.814C855.871 120.166 855.971 120.488 856.112 120.781C856.254 121.074 856.454 121.308 856.713 121.484C856.977 121.655 857.313 121.74 857.724 121.74C858.041 121.74 858.312 121.672 858.537 121.535C858.761 121.398 858.944 121.21 859.086 120.971C859.232 120.727 859.34 120.446 859.408 120.129C859.477 119.812 859.511 119.475 859.511 119.118ZM864.55 116.599V126.047H862.785V115.075H864.411L864.55 116.599ZM869.713 118.964V119.118C869.713 119.694 869.645 120.229 869.508 120.722C869.376 121.21 869.179 121.638 868.915 122.004C868.656 122.365 868.336 122.646 867.956 122.846C867.575 123.046 867.135 123.146 866.637 123.146C866.144 123.146 865.712 123.056 865.341 122.875C864.975 122.69 864.665 122.429 864.411 122.092C864.157 121.755 863.952 121.359 863.795 120.905C863.644 120.446 863.537 119.943 863.473 119.396V118.803C863.537 118.222 863.644 117.695 863.795 117.221C863.952 116.748 864.157 116.34 864.411 115.998C864.665 115.656 864.975 115.393 865.341 115.207C865.707 115.021 866.134 114.929 866.623 114.929C867.121 114.929 867.562 115.026 867.948 115.222C868.334 115.412 868.659 115.686 868.922 116.042C869.186 116.394 869.384 116.818 869.516 117.316C869.647 117.81 869.713 118.359 869.713 118.964ZM867.948 119.118V118.964C867.948 118.598 867.914 118.259 867.846 117.946C867.777 117.629 867.67 117.351 867.523 117.111C867.377 116.872 867.189 116.687 866.959 116.555C866.735 116.418 866.464 116.35 866.146 116.35C865.834 116.35 865.565 116.403 865.341 116.511C865.116 116.613 864.928 116.757 864.777 116.943C864.625 117.128 864.508 117.346 864.425 117.595C864.342 117.839 864.284 118.105 864.25 118.393V119.814C864.308 120.166 864.408 120.488 864.55 120.781C864.691 121.074 864.892 121.308 865.15 121.484C865.414 121.655 865.751 121.74 866.161 121.74C866.479 121.74 866.75 121.672 866.974 121.535C867.199 121.398 867.382 121.21 867.523 120.971C867.67 120.727 867.777 120.446 867.846 120.129C867.914 119.812 867.948 119.475 867.948 119.118ZM870.878 119.125V118.957C870.878 118.386 870.961 117.856 871.127 117.368C871.293 116.875 871.532 116.447 871.845 116.086C872.162 115.72 872.548 115.437 873.002 115.236C873.461 115.031 873.979 114.929 874.555 114.929C875.136 114.929 875.653 115.031 876.107 115.236C876.566 115.437 876.955 115.72 877.272 116.086C877.589 116.447 877.831 116.875 877.997 117.368C878.163 117.856 878.246 118.386 878.246 118.957V119.125C878.246 119.697 878.163 120.227 877.997 120.715C877.831 121.203 877.589 121.63 877.272 121.997C876.955 122.358 876.569 122.641 876.115 122.846C875.661 123.046 875.146 123.146 874.569 123.146C873.988 123.146 873.468 123.046 873.009 122.846C872.555 122.641 872.169 122.358 871.852 121.997C871.535 121.63 871.293 121.203 871.127 120.715C870.961 120.227 870.878 119.697 870.878 119.125ZM872.643 118.957V119.125C872.643 119.482 872.68 119.819 872.753 120.136C872.826 120.454 872.941 120.732 873.097 120.971C873.253 121.21 873.454 121.398 873.698 121.535C873.942 121.672 874.232 121.74 874.569 121.74C874.896 121.74 875.18 121.672 875.419 121.535C875.663 121.398 875.863 121.21 876.02 120.971C876.176 120.732 876.291 120.454 876.364 120.136C876.442 119.819 876.481 119.482 876.481 119.125V118.957C876.481 118.605 876.442 118.273 876.364 117.961C876.291 117.644 876.173 117.363 876.012 117.119C875.856 116.875 875.656 116.684 875.412 116.547C875.172 116.406 874.887 116.335 874.555 116.335C874.223 116.335 873.935 116.406 873.69 116.547C873.451 116.684 873.253 116.875 873.097 117.119C872.941 117.363 872.826 117.644 872.753 117.961C872.68 118.273 872.643 118.605 872.643 118.957ZM881.498 116.584V123H879.733V115.075H881.417L881.498 116.584ZM883.922 115.024L883.908 116.665C883.8 116.645 883.683 116.63 883.556 116.621C883.434 116.611 883.312 116.606 883.19 116.606C882.887 116.606 882.621 116.65 882.392 116.738C882.162 116.821 881.969 116.943 881.813 117.104C881.662 117.26 881.544 117.451 881.461 117.675C881.378 117.9 881.33 118.151 881.315 118.43L880.912 118.459C880.912 117.961 880.961 117.5 881.059 117.075C881.156 116.65 881.303 116.276 881.498 115.954C881.698 115.632 881.947 115.38 882.245 115.2C882.548 115.019 882.897 114.929 883.292 114.929C883.4 114.929 883.515 114.938 883.637 114.958C883.764 114.978 883.859 115 883.922 115.024ZM889.027 115.075V116.364H884.56V115.075H889.027ZM885.849 113.134H887.614V120.81C887.614 121.054 887.648 121.242 887.716 121.374C887.79 121.501 887.89 121.586 888.017 121.63C888.144 121.674 888.292 121.696 888.463 121.696C888.585 121.696 888.703 121.689 888.815 121.674C888.927 121.66 889.018 121.645 889.086 121.63L889.093 122.978C888.947 123.022 888.776 123.061 888.581 123.095C888.39 123.129 888.17 123.146 887.921 123.146C887.516 123.146 887.157 123.076 886.845 122.934C886.532 122.788 886.288 122.551 886.112 122.224C885.937 121.896 885.849 121.462 885.849 120.92V113.134ZM899.911 120.253C899.911 120.034 899.877 119.838 899.809 119.667C899.745 119.497 899.63 119.34 899.464 119.199C899.298 119.057 899.064 118.92 898.761 118.789C898.463 118.652 898.083 118.513 897.619 118.371C897.111 118.215 896.642 118.042 896.212 117.851C895.788 117.656 895.417 117.431 895.099 117.177C894.782 116.918 894.535 116.623 894.359 116.291C894.184 115.954 894.096 115.566 894.096 115.126C894.096 114.692 894.186 114.296 894.367 113.94C894.552 113.583 894.813 113.276 895.15 113.017C895.492 112.753 895.895 112.551 896.359 112.409C896.823 112.263 897.335 112.189 897.897 112.189C898.688 112.189 899.369 112.336 899.94 112.629C900.517 112.922 900.958 113.315 901.266 113.808C901.579 114.301 901.735 114.846 901.735 115.441H899.911C899.911 115.09 899.835 114.78 899.684 114.511C899.538 114.238 899.313 114.023 899.01 113.867C898.712 113.71 898.334 113.632 897.875 113.632C897.44 113.632 897.079 113.698 896.791 113.83C896.503 113.962 896.288 114.14 896.146 114.365C896.005 114.589 895.934 114.843 895.934 115.126C895.934 115.327 895.98 115.51 896.073 115.676C896.166 115.837 896.308 115.988 896.498 116.13C896.688 116.267 896.928 116.396 897.216 116.518C897.504 116.64 897.843 116.757 898.234 116.87C898.825 117.045 899.34 117.241 899.779 117.456C900.219 117.666 900.585 117.905 900.878 118.173C901.171 118.442 901.391 118.747 901.537 119.089C901.684 119.426 901.757 119.809 901.757 120.239C901.757 120.688 901.667 121.093 901.486 121.455C901.305 121.811 901.046 122.116 900.709 122.37C900.377 122.619 899.977 122.812 899.508 122.949C899.044 123.081 898.527 123.146 897.956 123.146C897.443 123.146 896.938 123.078 896.439 122.941C895.946 122.805 895.497 122.597 895.092 122.319C894.687 122.036 894.364 121.684 894.125 121.264C893.886 120.839 893.766 120.344 893.766 119.777H895.604C895.604 120.124 895.663 120.419 895.78 120.664C895.902 120.908 896.071 121.108 896.286 121.264C896.5 121.416 896.75 121.528 897.033 121.601C897.321 121.674 897.628 121.711 897.956 121.711C898.385 121.711 898.744 121.65 899.032 121.528C899.325 121.406 899.545 121.235 899.691 121.015C899.838 120.795 899.911 120.542 899.911 120.253ZM904.972 116.687V123H903.207V115.075H904.87L904.972 116.687ZM904.687 118.745L904.086 118.737C904.086 118.19 904.154 117.685 904.291 117.221C904.428 116.757 904.628 116.354 904.892 116.013C905.155 115.666 905.482 115.4 905.873 115.214C906.269 115.024 906.725 114.929 907.243 114.929C907.604 114.929 907.934 114.982 908.231 115.09C908.534 115.192 908.795 115.356 909.015 115.581C909.24 115.805 909.411 116.093 909.528 116.445C909.65 116.796 909.711 117.221 909.711 117.719V123H907.946V117.873C907.946 117.487 907.887 117.185 907.77 116.965C907.658 116.745 907.494 116.589 907.279 116.496C907.069 116.398 906.818 116.35 906.525 116.35C906.193 116.35 905.91 116.413 905.675 116.54C905.446 116.667 905.258 116.84 905.111 117.06C904.965 117.28 904.857 117.534 904.789 117.822C904.721 118.11 904.687 118.417 904.687 118.745ZM909.601 118.276L908.773 118.459C908.773 117.98 908.839 117.529 908.971 117.104C909.108 116.674 909.306 116.298 909.564 115.976C909.828 115.649 910.153 115.393 910.539 115.207C910.924 115.021 911.366 114.929 911.864 114.929C912.27 114.929 912.631 114.985 912.948 115.097C913.271 115.205 913.544 115.375 913.769 115.61C913.993 115.844 914.164 116.149 914.281 116.525C914.398 116.896 914.457 117.346 914.457 117.873V123H912.685V117.866C912.685 117.465 912.626 117.155 912.509 116.936C912.396 116.716 912.235 116.564 912.025 116.481C911.815 116.394 911.564 116.35 911.271 116.35C910.998 116.35 910.756 116.401 910.546 116.503C910.341 116.601 910.167 116.74 910.026 116.921C909.884 117.097 909.777 117.299 909.704 117.529C909.635 117.758 909.601 118.007 909.601 118.276ZM921.042 121.132V115.075H922.814V123H921.144L921.042 121.132ZM921.291 119.484L921.884 119.47C921.884 120.002 921.825 120.493 921.708 120.942C921.591 121.386 921.41 121.774 921.166 122.106C920.922 122.434 920.609 122.69 920.229 122.875C919.848 123.056 919.391 123.146 918.859 123.146C918.473 123.146 918.119 123.09 917.797 122.978C917.475 122.866 917.196 122.692 916.962 122.458C916.732 122.224 916.554 121.918 916.427 121.542C916.3 121.167 916.237 120.717 916.237 120.195V115.075H918.002V120.209C918.002 120.498 918.036 120.739 918.104 120.935C918.173 121.125 918.266 121.279 918.383 121.396C918.5 121.513 918.637 121.596 918.793 121.645C918.949 121.694 919.115 121.718 919.291 121.718C919.794 121.718 920.189 121.621 920.478 121.425C920.771 121.225 920.978 120.957 921.1 120.62C921.227 120.283 921.291 119.904 921.291 119.484ZM929.069 120.854C929.069 120.678 929.025 120.52 928.937 120.378C928.849 120.231 928.681 120.1 928.432 119.982C928.188 119.865 927.826 119.758 927.348 119.66C926.928 119.567 926.542 119.458 926.19 119.331C925.844 119.199 925.546 119.04 925.297 118.854C925.048 118.669 924.855 118.449 924.718 118.195C924.582 117.941 924.513 117.648 924.513 117.316C924.513 116.994 924.584 116.689 924.726 116.401C924.867 116.113 925.07 115.859 925.333 115.639C925.597 115.419 925.917 115.246 926.293 115.119C926.674 114.992 927.099 114.929 927.567 114.929C928.231 114.929 928.8 115.041 929.274 115.266C929.752 115.485 930.119 115.786 930.373 116.167C930.626 116.542 930.753 116.967 930.753 117.441H928.988C928.988 117.231 928.935 117.036 928.827 116.855C928.725 116.669 928.568 116.521 928.358 116.408C928.148 116.291 927.885 116.232 927.567 116.232C927.265 116.232 927.013 116.281 926.813 116.379C926.618 116.472 926.471 116.594 926.374 116.745C926.281 116.896 926.234 117.062 926.234 117.243C926.234 117.375 926.259 117.495 926.308 117.602C926.361 117.705 926.449 117.8 926.571 117.888C926.693 117.971 926.859 118.049 927.069 118.122C927.284 118.195 927.553 118.266 927.875 118.334C928.48 118.461 929 118.625 929.435 118.825C929.875 119.021 930.211 119.274 930.446 119.587C930.68 119.895 930.797 120.285 930.797 120.759C930.797 121.11 930.722 121.433 930.57 121.726C930.424 122.014 930.209 122.265 929.926 122.48C929.643 122.69 929.303 122.854 928.908 122.971C928.517 123.088 928.078 123.146 927.589 123.146C926.872 123.146 926.264 123.02 925.766 122.766C925.268 122.507 924.889 122.177 924.63 121.777C924.376 121.372 924.25 120.952 924.25 120.517H925.956C925.976 120.844 926.066 121.105 926.227 121.301C926.393 121.491 926.598 121.63 926.842 121.718C927.091 121.801 927.348 121.843 927.611 121.843C927.929 121.843 928.195 121.801 928.41 121.718C928.625 121.63 928.788 121.513 928.9 121.367C929.013 121.215 929.069 121.044 929.069 120.854ZM934.086 111.75V123H932.328V111.75H934.086ZM933.778 118.745L933.207 118.737C933.212 118.19 933.288 117.685 933.434 117.221C933.585 116.757 933.795 116.354 934.064 116.013C934.337 115.666 934.665 115.4 935.045 115.214C935.426 115.024 935.849 114.929 936.312 114.929C936.703 114.929 937.055 114.982 937.367 115.09C937.685 115.197 937.958 115.371 938.188 115.61C938.417 115.844 938.59 116.152 938.708 116.533C938.83 116.909 938.891 117.368 938.891 117.91V123H937.118V117.895C937.118 117.514 937.062 117.211 936.95 116.987C936.842 116.762 936.684 116.601 936.474 116.503C936.264 116.401 936.007 116.35 935.705 116.35C935.387 116.35 935.106 116.413 934.862 116.54C934.623 116.667 934.423 116.84 934.262 117.06C934.101 117.28 933.979 117.534 933.896 117.822C933.817 118.11 933.778 118.417 933.778 118.745Z" fill="#1A1A1A"/>
<path d="M988 113.337L988.659 112.215C989.102 111.462 989.911 111 990.784 111H990.844C992.173 111 993.25 112.077 993.25 113.406C993.25 113.8 993.154 114.147 992.988 114.5H993.688C994.412 114.5 995 115.088 995 115.812V117.562C995 118.134 994.634 118.621 994.125 118.801V123.25C994.125 124.215 993.34 125 992.375 125H983.625C982.658 125 981.875 124.215 981.875 123.25V118.801C981.365 118.621 981 118.134 981 117.562V115.812C981 115.088 981.588 114.5 982.312 114.5H983.013C982.845 114.147 982.75 113.8 982.75 113.406C982.75 112.077 983.827 111 985.156 111H985.216C986.089 111 986.898 111.462 987.341 112.215L988 113.337ZM988.875 115.812V117.562H993.688V115.812H988.875ZM987.125 115.812H982.312V117.562H987.125V115.812ZM987.125 118.875H983.188V123.25C983.188 123.491 983.383 123.688 983.625 123.688H987.125V118.875ZM988.875 123.688H992.375C992.616 123.688 992.812 123.491 992.812 123.25V118.875H988.875V123.688ZM990.844 114.5C991.448 114.5 991.938 114.011 991.938 113.406C991.938 112.802 991.448 112.312 990.844 112.312H990.784C990.376 112.312 989.999 112.529 989.791 112.881L988.839 114.5H990.844ZM987.161 114.5L986.209 112.881C986.001 112.529 985.624 112.312 985.216 112.312H985.156C984.552 112.312 984.062 112.802 984.062 113.406C984.062 114.011 984.552 114.5 985.156 114.5H987.161Z" fill="#1A1A1A"/>
<path d="M1011.38 119.528H1013.21C1013.16 120.227 1012.96 120.849 1012.63 121.396C1012.3 121.938 1011.83 122.365 1011.23 122.678C1010.63 122.99 1009.9 123.146 1009.04 123.146C1008.38 123.146 1007.79 123.029 1007.26 122.795C1006.73 122.556 1006.28 122.219 1005.9 121.784C1005.53 121.345 1005.24 120.815 1005.04 120.195C1004.84 119.575 1004.75 118.881 1004.75 118.115V117.229C1004.75 116.462 1004.85 115.769 1005.05 115.148C1005.25 114.528 1005.55 113.999 1005.93 113.559C1006.31 113.115 1006.76 112.775 1007.3 112.541C1007.83 112.307 1008.44 112.189 1009.1 112.189C1009.95 112.189 1010.67 112.346 1011.26 112.658C1011.84 112.971 1012.3 113.403 1012.62 113.955C1012.95 114.506 1013.15 115.139 1013.22 115.852H1011.39C1011.34 115.393 1011.23 115 1011.07 114.672C1010.91 114.345 1010.67 114.096 1010.35 113.925C1010.03 113.75 1009.62 113.662 1009.1 113.662C1008.69 113.662 1008.32 113.74 1008.01 113.896C1007.69 114.052 1007.43 114.282 1007.22 114.584C1007.01 114.887 1006.85 115.261 1006.75 115.705C1006.64 116.145 1006.59 116.647 1006.59 117.214V118.115C1006.59 118.652 1006.64 119.14 1006.73 119.58C1006.83 120.014 1006.98 120.388 1007.17 120.7C1007.37 121.013 1007.63 121.254 1007.93 121.425C1008.24 121.596 1008.61 121.682 1009.04 121.682C1009.56 121.682 1009.98 121.599 1010.31 121.433C1010.63 121.267 1010.88 121.025 1011.05 120.708C1011.22 120.385 1011.33 119.992 1011.38 119.528ZM1014.37 119.125V118.957C1014.37 118.386 1014.45 117.856 1014.62 117.368C1014.79 116.875 1015.03 116.447 1015.34 116.086C1015.66 115.72 1016.04 115.437 1016.5 115.236C1016.95 115.031 1017.47 114.929 1018.05 114.929C1018.63 114.929 1019.15 115.031 1019.6 115.236C1020.06 115.437 1020.45 115.72 1020.77 116.086C1021.08 116.447 1021.32 116.875 1021.49 117.368C1021.66 117.856 1021.74 118.386 1021.74 118.957V119.125C1021.74 119.697 1021.66 120.227 1021.49 120.715C1021.32 121.203 1021.08 121.63 1020.77 121.997C1020.45 122.358 1020.06 122.641 1019.61 122.846C1019.15 123.046 1018.64 123.146 1018.06 123.146C1017.48 123.146 1016.96 123.046 1016.5 122.846C1016.05 122.641 1015.66 122.358 1015.35 121.997C1015.03 121.63 1014.79 121.203 1014.62 120.715C1014.45 120.227 1014.37 119.697 1014.37 119.125ZM1016.14 118.957V119.125C1016.14 119.482 1016.17 119.819 1016.25 120.136C1016.32 120.454 1016.43 120.732 1016.59 120.971C1016.75 121.21 1016.95 121.398 1017.19 121.535C1017.44 121.672 1017.73 121.74 1018.06 121.74C1018.39 121.74 1018.67 121.672 1018.91 121.535C1019.16 121.398 1019.36 121.21 1019.51 120.971C1019.67 120.732 1019.78 120.454 1019.86 120.136C1019.94 119.819 1019.97 119.482 1019.97 119.125V118.957C1019.97 118.605 1019.94 118.273 1019.86 117.961C1019.78 117.644 1019.67 117.363 1019.51 117.119C1019.35 116.875 1019.15 116.684 1018.9 116.547C1018.67 116.406 1018.38 116.335 1018.05 116.335C1017.72 116.335 1017.43 116.406 1017.18 116.547C1016.94 116.684 1016.75 116.875 1016.59 117.119C1016.43 117.363 1016.32 117.644 1016.25 117.961C1016.17 118.273 1016.14 118.605 1016.14 118.957ZM1024.97 116.767V123H1023.2V115.075H1024.87L1024.97 116.767ZM1024.65 118.745L1024.08 118.737C1024.09 118.176 1024.17 117.661 1024.32 117.192C1024.47 116.723 1024.69 116.32 1024.96 115.983C1025.24 115.646 1025.57 115.388 1025.96 115.207C1026.34 115.021 1026.77 114.929 1027.25 114.929C1027.63 114.929 1027.97 114.982 1028.28 115.09C1028.59 115.192 1028.86 115.361 1029.08 115.595C1029.3 115.83 1029.47 116.135 1029.59 116.511C1029.71 116.882 1029.77 117.338 1029.77 117.88V123H1027.99V117.873C1027.99 117.492 1027.94 117.192 1027.83 116.972C1027.72 116.748 1027.56 116.589 1027.35 116.496C1027.14 116.398 1026.89 116.35 1026.58 116.35C1026.28 116.35 1026.01 116.413 1025.77 116.54C1025.53 116.667 1025.33 116.84 1025.16 117.06C1025 117.28 1024.87 117.534 1024.79 117.822C1024.7 118.11 1024.65 118.417 1024.65 118.745ZM1033.32 116.767V123H1031.55V115.075H1033.22L1033.32 116.767ZM1033 118.745L1032.43 118.737C1032.44 118.176 1032.52 117.661 1032.67 117.192C1032.82 116.723 1033.04 116.32 1033.31 115.983C1033.59 115.646 1033.92 115.388 1034.31 115.207C1034.69 115.021 1035.12 114.929 1035.6 114.929C1035.98 114.929 1036.32 114.982 1036.63 115.09C1036.94 115.192 1037.21 115.361 1037.43 115.595C1037.65 115.83 1037.82 116.135 1037.94 116.511C1038.06 116.882 1038.12 117.338 1038.12 117.88V123H1036.34V117.873C1036.34 117.492 1036.29 117.192 1036.18 116.972C1036.07 116.748 1035.91 116.589 1035.7 116.496C1035.49 116.398 1035.24 116.35 1034.93 116.35C1034.63 116.35 1034.36 116.413 1034.12 116.54C1033.88 116.667 1033.68 116.84 1033.51 117.06C1033.35 117.28 1033.22 117.534 1033.14 117.822C1033.05 118.11 1033 118.417 1033 118.745ZM1043.41 123.146C1042.83 123.146 1042.3 123.051 1041.82 122.861C1041.35 122.666 1040.95 122.395 1040.62 122.048C1040.29 121.701 1040.04 121.293 1039.87 120.825C1039.69 120.356 1039.6 119.851 1039.6 119.309V119.016C1039.6 118.396 1039.69 117.834 1039.87 117.331C1040.05 116.828 1040.31 116.398 1040.63 116.042C1040.95 115.681 1041.33 115.405 1041.77 115.214C1042.21 115.024 1042.69 114.929 1043.2 114.929C1043.77 114.929 1044.26 115.024 1044.69 115.214C1045.11 115.405 1045.46 115.673 1045.74 116.02C1046.02 116.362 1046.23 116.77 1046.37 117.243C1046.51 117.717 1046.58 118.239 1046.58 118.811V119.565H1040.46V118.298H1044.84V118.159C1044.83 117.841 1044.77 117.543 1044.65 117.265C1044.54 116.987 1044.36 116.762 1044.13 116.591C1043.9 116.42 1043.58 116.335 1043.19 116.335C1042.9 116.335 1042.64 116.398 1042.41 116.525C1042.18 116.647 1042 116.826 1041.84 117.06C1041.69 117.294 1041.58 117.578 1041.49 117.91C1041.41 118.237 1041.38 118.605 1041.38 119.016V119.309C1041.38 119.655 1041.42 119.978 1041.51 120.275C1041.61 120.568 1041.75 120.825 1041.94 121.044C1042.12 121.264 1042.35 121.438 1042.61 121.564C1042.88 121.687 1043.18 121.748 1043.51 121.748C1043.94 121.748 1044.32 121.662 1044.65 121.491C1044.98 121.32 1045.27 121.079 1045.51 120.766L1046.44 121.667C1046.27 121.916 1046.05 122.155 1045.78 122.385C1045.5 122.609 1045.17 122.792 1044.77 122.934C1044.38 123.076 1043.93 123.146 1043.41 123.146ZM1051.2 121.74C1051.49 121.74 1051.74 121.684 1051.97 121.572C1052.21 121.455 1052.4 121.293 1052.54 121.088C1052.68 120.883 1052.76 120.646 1052.78 120.378H1054.44C1054.43 120.891 1054.28 121.357 1053.99 121.777C1053.69 122.197 1053.31 122.531 1052.82 122.78C1052.34 123.024 1051.81 123.146 1051.22 123.146C1050.61 123.146 1050.09 123.044 1049.64 122.839C1049.19 122.629 1048.81 122.341 1048.52 121.975C1048.22 121.608 1047.99 121.186 1047.84 120.708C1047.7 120.229 1047.62 119.716 1047.62 119.169V118.913C1047.62 118.366 1047.7 117.854 1047.84 117.375C1047.99 116.892 1048.22 116.467 1048.52 116.101C1048.81 115.734 1049.19 115.449 1049.64 115.244C1050.09 115.034 1050.61 114.929 1051.21 114.929C1051.85 114.929 1052.4 115.056 1052.88 115.31C1053.36 115.559 1053.74 115.908 1054.01 116.357C1054.29 116.801 1054.43 117.319 1054.44 117.91H1052.78C1052.76 117.617 1052.69 117.353 1052.56 117.119C1052.43 116.879 1052.25 116.689 1052.02 116.547C1051.79 116.406 1051.51 116.335 1051.19 116.335C1050.83 116.335 1050.54 116.408 1050.3 116.555C1050.07 116.696 1049.89 116.892 1049.75 117.141C1049.62 117.385 1049.53 117.661 1049.47 117.968C1049.42 118.271 1049.39 118.586 1049.39 118.913V119.169C1049.39 119.497 1049.42 119.814 1049.47 120.122C1049.52 120.429 1049.62 120.705 1049.75 120.949C1049.88 121.188 1050.07 121.381 1050.3 121.528C1050.54 121.669 1050.84 121.74 1051.2 121.74ZM1059.43 115.075V116.364H1054.96V115.075H1059.43ZM1056.25 113.134H1058.02V120.81C1058.02 121.054 1058.05 121.242 1058.12 121.374C1058.19 121.501 1058.29 121.586 1058.42 121.63C1058.55 121.674 1058.69 121.696 1058.87 121.696C1058.99 121.696 1059.1 121.689 1059.22 121.674C1059.33 121.66 1059.42 121.645 1059.49 121.63L1059.5 122.978C1059.35 123.022 1059.18 123.061 1058.98 123.095C1058.79 123.129 1058.57 123.146 1058.32 123.146C1057.92 123.146 1057.56 123.076 1057.25 122.934C1056.93 122.788 1056.69 122.551 1056.51 122.224C1056.34 121.896 1056.25 121.462 1056.25 120.92V113.134ZM1066.92 123H1065.15V114.313C1065.15 113.723 1065.26 113.227 1065.48 112.827C1065.7 112.421 1066.02 112.116 1066.44 111.911C1066.85 111.701 1067.34 111.596 1067.91 111.596C1068.09 111.596 1068.26 111.608 1068.43 111.633C1068.6 111.652 1068.77 111.684 1068.93 111.728L1068.89 113.09C1068.79 113.066 1068.68 113.049 1068.56 113.039C1068.45 113.029 1068.33 113.024 1068.2 113.024C1067.93 113.024 1067.7 113.076 1067.5 113.178C1067.31 113.276 1067.16 113.42 1067.06 113.61C1066.96 113.801 1066.92 114.035 1066.92 114.313V123ZM1068.55 115.075V116.364H1063.93V115.075H1068.55ZM1073.15 123.146C1072.56 123.146 1072.03 123.051 1071.56 122.861C1071.09 122.666 1070.69 122.395 1070.36 122.048C1070.03 121.701 1069.78 121.293 1069.6 120.825C1069.43 120.356 1069.34 119.851 1069.34 119.309V119.016C1069.34 118.396 1069.43 117.834 1069.61 117.331C1069.79 116.828 1070.04 116.398 1070.36 116.042C1070.69 115.681 1071.07 115.405 1071.51 115.214C1071.95 115.024 1072.42 114.929 1072.94 114.929C1073.5 114.929 1074 115.024 1074.42 115.214C1074.85 115.405 1075.2 115.673 1075.48 116.02C1075.76 116.362 1075.97 116.77 1076.11 117.243C1076.25 117.717 1076.32 118.239 1076.32 118.811V119.565H1070.2V118.298H1074.58V118.159C1074.57 117.841 1074.5 117.543 1074.39 117.265C1074.27 116.987 1074.1 116.762 1073.87 116.591C1073.63 116.42 1073.32 116.335 1072.93 116.335C1072.64 116.335 1072.37 116.398 1072.14 116.525C1071.92 116.647 1071.73 116.826 1071.58 117.06C1071.43 117.294 1071.31 117.578 1071.23 117.91C1071.15 118.237 1071.11 118.605 1071.11 119.016V119.309C1071.11 119.655 1071.16 119.978 1071.25 120.275C1071.35 120.568 1071.49 120.825 1071.68 121.044C1071.86 121.264 1072.09 121.438 1072.35 121.564C1072.61 121.687 1072.91 121.748 1073.25 121.748C1073.68 121.748 1074.05 121.662 1074.39 121.491C1074.72 121.32 1075.01 121.079 1075.25 120.766L1076.18 121.667C1076.01 121.916 1075.79 122.155 1075.51 122.385C1075.24 122.609 1074.91 122.792 1074.51 122.934C1074.12 123.076 1073.67 123.146 1073.15 123.146ZM1082.16 121.411V117.631C1082.16 117.348 1082.11 117.104 1082.01 116.899C1081.91 116.694 1081.75 116.535 1081.54 116.423C1081.34 116.311 1081.08 116.254 1080.77 116.254C1080.48 116.254 1080.23 116.303 1080.02 116.401C1079.81 116.499 1079.64 116.63 1079.53 116.796C1079.41 116.962 1079.35 117.15 1079.35 117.36H1077.59C1077.59 117.048 1077.67 116.745 1077.82 116.452C1077.97 116.159 1078.19 115.898 1078.48 115.668C1078.77 115.439 1079.11 115.258 1079.51 115.126C1079.91 114.995 1080.36 114.929 1080.86 114.929C1081.46 114.929 1081.98 115.029 1082.44 115.229C1082.91 115.429 1083.27 115.732 1083.53 116.137C1083.8 116.538 1083.94 117.041 1083.94 117.646V121.169C1083.94 121.53 1083.96 121.855 1084.01 122.143C1084.06 122.426 1084.14 122.673 1084.24 122.883V123H1082.43C1082.34 122.81 1082.28 122.568 1082.23 122.275C1082.19 121.977 1082.16 121.689 1082.16 121.411ZM1082.42 118.181L1082.44 119.272H1081.17C1080.84 119.272 1080.55 119.304 1080.3 119.367C1080.05 119.426 1079.85 119.514 1079.68 119.631C1079.52 119.748 1079.39 119.89 1079.31 120.056C1079.22 120.222 1079.18 120.41 1079.18 120.62C1079.18 120.83 1079.23 121.022 1079.33 121.198C1079.43 121.369 1079.57 121.503 1079.75 121.601C1079.94 121.699 1080.17 121.748 1080.44 121.748C1080.8 121.748 1081.12 121.674 1081.39 121.528C1081.66 121.376 1081.88 121.193 1082.03 120.979C1082.19 120.759 1082.27 120.551 1082.28 120.356L1082.85 121.14C1082.79 121.34 1082.69 121.555 1082.55 121.784C1082.41 122.014 1082.23 122.233 1082 122.443C1081.77 122.648 1081.5 122.817 1081.18 122.949C1080.87 123.081 1080.51 123.146 1080.1 123.146C1079.58 123.146 1079.12 123.044 1078.71 122.839C1078.31 122.629 1077.99 122.348 1077.76 121.997C1077.53 121.64 1077.42 121.237 1077.42 120.788C1077.42 120.368 1077.5 119.997 1077.65 119.675C1077.81 119.348 1078.05 119.074 1078.36 118.854C1078.67 118.635 1079.05 118.469 1079.5 118.356C1079.95 118.239 1080.46 118.181 1081.04 118.181H1082.42ZM1089.42 115.075V116.364H1084.95V115.075H1089.42ZM1086.24 113.134H1088V120.81C1088 121.054 1088.04 121.242 1088.1 121.374C1088.18 121.501 1088.28 121.586 1088.4 121.63C1088.53 121.674 1088.68 121.696 1088.85 121.696C1088.97 121.696 1089.09 121.689 1089.2 121.674C1089.31 121.66 1089.41 121.645 1089.47 121.63L1089.48 122.978C1089.33 123.022 1089.16 123.061 1088.97 123.095C1088.78 123.129 1088.56 123.146 1088.31 123.146C1087.9 123.146 1087.54 123.076 1087.23 122.934C1086.92 122.788 1086.68 122.551 1086.5 122.224C1086.32 121.896 1086.24 121.462 1086.24 120.92V113.134ZM1095.55 121.132V115.075H1097.32V123H1095.65L1095.55 121.132ZM1095.79 119.484L1096.39 119.47C1096.39 120.002 1096.33 120.493 1096.21 120.942C1096.09 121.386 1095.91 121.774 1095.67 122.106C1095.43 122.434 1095.11 122.69 1094.73 122.875C1094.35 123.056 1093.9 123.146 1093.36 123.146C1092.98 123.146 1092.62 123.09 1092.3 122.978C1091.98 122.866 1091.7 122.692 1091.47 122.458C1091.24 122.224 1091.06 121.918 1090.93 121.542C1090.8 121.167 1090.74 120.717 1090.74 120.195V115.075H1092.51V120.209C1092.51 120.498 1092.54 120.739 1092.61 120.935C1092.68 121.125 1092.77 121.279 1092.89 121.396C1093 121.513 1093.14 121.596 1093.3 121.645C1093.45 121.694 1093.62 121.718 1093.79 121.718C1094.3 121.718 1094.69 121.621 1094.98 121.425C1095.27 121.225 1095.48 120.957 1095.6 120.62C1095.73 120.283 1095.79 119.904 1095.79 119.484ZM1100.9 116.584V123H1099.13V115.075H1100.82L1100.9 116.584ZM1103.32 115.024L1103.31 116.665C1103.2 116.645 1103.08 116.63 1102.96 116.621C1102.84 116.611 1102.71 116.606 1102.59 116.606C1102.29 116.606 1102.02 116.65 1101.79 116.738C1101.56 116.821 1101.37 116.943 1101.21 117.104C1101.06 117.26 1100.95 117.451 1100.86 117.675C1100.78 117.9 1100.73 118.151 1100.72 118.43L1100.31 118.459C1100.31 117.961 1100.36 117.5 1100.46 117.075C1100.56 116.65 1100.7 116.276 1100.9 115.954C1101.1 115.632 1101.35 115.38 1101.65 115.2C1101.95 115.019 1102.3 114.929 1102.69 114.929C1102.8 114.929 1102.92 114.938 1103.04 114.958C1103.17 114.978 1103.26 115 1103.32 115.024ZM1107.78 123.146C1107.19 123.146 1106.66 123.051 1106.19 122.861C1105.72 122.666 1105.32 122.395 1104.99 122.048C1104.66 121.701 1104.41 121.293 1104.23 120.825C1104.06 120.356 1103.97 119.851 1103.97 119.309V119.016C1103.97 118.396 1104.06 117.834 1104.24 117.331C1104.42 116.828 1104.67 116.398 1104.99 116.042C1105.32 115.681 1105.7 115.405 1106.14 115.214C1106.58 115.024 1107.05 114.929 1107.56 114.929C1108.13 114.929 1108.63 115.024 1109.05 115.214C1109.48 115.405 1109.83 115.673 1110.11 116.02C1110.39 116.362 1110.6 116.77 1110.74 117.243C1110.88 117.717 1110.95 118.239 1110.95 118.811V119.565H1104.83V118.298H1109.21V118.159C1109.2 117.841 1109.13 117.543 1109.01 117.265C1108.9 116.987 1108.73 116.762 1108.49 116.591C1108.26 116.42 1107.95 116.335 1107.56 116.335C1107.26 116.335 1107 116.398 1106.77 116.525C1106.55 116.647 1106.36 116.826 1106.21 117.06C1106.06 117.294 1105.94 117.578 1105.86 117.91C1105.78 118.237 1105.74 118.605 1105.74 119.016V119.309C1105.74 119.655 1105.79 119.978 1105.88 120.275C1105.98 120.568 1106.12 120.825 1106.3 121.044C1106.49 121.264 1106.71 121.438 1106.98 121.564C1107.24 121.687 1107.54 121.748 1107.88 121.748C1108.3 121.748 1108.68 121.662 1109.01 121.491C1109.35 121.32 1109.63 121.079 1109.88 120.766L1110.81 121.667C1110.64 121.916 1110.42 122.155 1110.14 122.385C1109.87 122.609 1109.53 122.792 1109.14 122.934C1108.75 123.076 1108.29 123.146 1107.78 123.146ZM1116.77 120.854C1116.77 120.678 1116.73 120.52 1116.64 120.378C1116.55 120.231 1116.38 120.1 1116.13 119.982C1115.89 119.865 1115.53 119.758 1115.05 119.66C1114.63 119.567 1114.24 119.458 1113.89 119.331C1113.55 119.199 1113.25 119.04 1113 118.854C1112.75 118.669 1112.56 118.449 1112.42 118.195C1112.28 117.941 1112.22 117.648 1112.22 117.316C1112.22 116.994 1112.29 116.689 1112.43 116.401C1112.57 116.113 1112.77 115.859 1113.04 115.639C1113.3 115.419 1113.62 115.246 1114 115.119C1114.38 114.992 1114.8 114.929 1115.27 114.929C1115.93 114.929 1116.5 115.041 1116.98 115.266C1117.45 115.485 1117.82 115.786 1118.07 116.167C1118.33 116.542 1118.46 116.967 1118.46 117.441H1116.69C1116.69 117.231 1116.64 117.036 1116.53 116.855C1116.43 116.669 1116.27 116.521 1116.06 116.408C1115.85 116.291 1115.59 116.232 1115.27 116.232C1114.97 116.232 1114.72 116.281 1114.52 116.379C1114.32 116.472 1114.17 116.594 1114.08 116.745C1113.98 116.896 1113.94 117.062 1113.94 117.243C1113.94 117.375 1113.96 117.495 1114.01 117.602C1114.06 117.705 1114.15 117.8 1114.27 117.888C1114.4 117.971 1114.56 118.049 1114.77 118.122C1114.99 118.195 1115.25 118.266 1115.58 118.334C1116.18 118.461 1116.7 118.625 1117.14 118.825C1117.58 119.021 1117.91 119.274 1118.15 119.587C1118.38 119.895 1118.5 120.285 1118.5 120.759C1118.5 121.11 1118.42 121.433 1118.27 121.726C1118.13 122.014 1117.91 122.265 1117.63 122.48C1117.34 122.69 1117.01 122.854 1116.61 122.971C1116.22 123.088 1115.78 123.146 1115.29 123.146C1114.57 123.146 1113.97 123.02 1113.47 122.766C1112.97 122.507 1112.59 122.177 1112.33 121.777C1112.08 121.372 1111.95 120.952 1111.95 120.517H1113.66C1113.68 120.844 1113.77 121.105 1113.93 121.301C1114.1 121.491 1114.3 121.63 1114.54 121.718C1114.79 121.801 1115.05 121.843 1115.31 121.843C1115.63 121.843 1115.9 121.801 1116.11 121.718C1116.33 121.63 1116.49 121.513 1116.6 121.367C1116.71 121.215 1116.77 121.044 1116.77 120.854Z" fill="#1A1A1A"/>
<path d="M1136 122.4C1135.74 122.4 1135.49 122.297 1135.29 122.092L1129.29 115.792C1128.9 115.382 1128.9 114.718 1129.29 114.308C1129.68 113.897 1130.32 113.897 1130.71 114.308L1136 119.867L1141.29 114.308C1141.68 113.898 1142.32 113.898 1142.71 114.308C1143.1 114.719 1143.1 115.383 1142.71 115.793L1136.71 122.093C1136.51 122.298 1136.26 122.4 1136 122.4Z" fill="#1A1A1A"/>
<rect x="964.5" y="98.5" width="195" height="39" rx="3.5" stroke="#1A1A1A"/>
<circle cx="1192" cy="118" r="16" fill="#F2F2F2"/>
<path fill-rule="evenodd" clip-rule="evenodd" d="M1182.65 118C1182.65 112.836 1186.84 108.65 1192 108.65C1197.16 108.65 1201.35 112.836 1201.35 118C1201.35 123.164 1197.16 127.35 1192 127.35C1186.84 127.35 1182.65 123.164 1182.65 118ZM1192 107C1185.92 107 1181 111.925 1181 118C1181 124.075 1185.92 129 1192 129C1198.08 129 1203 124.075 1203 118C1203 111.925 1198.08 107 1192 107ZM1194.96 122.97C1195.27 123.13 1195.63 123.213 1195.98 123.212C1196.34 123.213 1196.69 123.13 1197.01 122.97C1197.33 122.808 1197.6 122.556 1197.79 122.243C1197.98 121.921 1198.08 121.552 1198.08 121.176V112.787H1196.58V121.176C1196.58 121.247 1196.56 121.318 1196.54 121.384C1196.51 121.449 1196.47 121.508 1196.41 121.557C1196.29 121.662 1196.14 121.72 1195.98 121.72C1195.82 121.72 1195.67 121.662 1195.55 121.557C1195.5 121.508 1195.46 121.449 1195.43 121.383C1195.4 121.318 1195.39 121.247 1195.39 121.176V114.824C1195.39 114.555 1195.35 114.287 1195.25 114.037C1195.15 113.787 1195 113.56 1194.81 113.37C1194.41 112.997 1193.89 112.789 1193.34 112.789C1192.8 112.789 1192.28 112.997 1191.88 113.37C1191.69 113.56 1191.54 113.787 1191.44 114.037C1191.34 114.287 1191.29 114.555 1191.3 114.824V121.176C1191.3 121.247 1191.28 121.318 1191.26 121.383C1191.23 121.449 1191.19 121.508 1191.13 121.557C1191.02 121.662 1190.86 121.72 1190.7 121.72C1190.54 121.72 1190.39 121.662 1190.27 121.557C1190.22 121.508 1190.18 121.449 1190.15 121.384C1190.12 121.318 1190.11 121.247 1190.11 121.176V114.824C1190.11 114.554 1190.06 114.286 1189.96 114.036C1189.86 113.786 1189.71 113.558 1189.52 113.368C1189.33 113.178 1189.1 113.028 1188.85 112.929C1188.6 112.829 1188.33 112.782 1188.06 112.789C1187.5 112.779 1186.96 112.988 1186.55 113.37C1186.34 113.552 1186.18 113.776 1186.07 114.027C1185.96 114.278 1185.91 114.55 1185.91 114.824V123.212H1187.4V114.824C1187.4 114.752 1187.42 114.682 1187.44 114.616C1187.47 114.551 1187.51 114.492 1187.57 114.443C1187.62 114.387 1187.69 114.343 1187.77 114.315C1187.84 114.287 1187.92 114.275 1188 114.28C1188.08 114.276 1188.16 114.288 1188.24 114.316C1188.31 114.344 1188.38 114.387 1188.44 114.443C1188.49 114.492 1188.53 114.551 1188.56 114.616C1188.59 114.682 1188.6 114.753 1188.6 114.824V121.176C1188.6 121.446 1188.64 121.714 1188.75 121.964C1188.85 122.214 1189 122.442 1189.19 122.632C1189.38 122.822 1189.61 122.972 1189.86 123.071C1190.11 123.171 1190.38 123.218 1190.65 123.211C1191.21 123.22 1191.75 123.011 1192.16 122.629C1192.37 122.447 1192.53 122.223 1192.64 121.972C1192.75 121.721 1192.8 121.449 1192.79 121.176V114.824C1192.8 114.717 1192.83 114.613 1192.89 114.525C1192.95 114.437 1193.04 114.368 1193.13 114.328C1193.23 114.287 1193.34 114.277 1193.45 114.297C1193.55 114.317 1193.65 114.368 1193.72 114.443C1193.78 114.492 1193.82 114.551 1193.85 114.616C1193.87 114.682 1193.89 114.752 1193.89 114.824V121.176C1193.88 121.552 1193.98 121.921 1194.18 122.243C1194.36 122.556 1194.63 122.808 1194.96 122.97Z" fill="#1A1A1A"/>
<circle cx="1202" cy="128" r="9" fill="white"/>
<path d="M1202 121C1198.13 121 1195 124.134 1195 128C1195 131.866 1198.13 135 1202 135C1205.87 135 1209 131.866 1209 128C1209 124.134 1205.87 121 1202 121ZM1201.34 125.156C1201.34 124.795 1201.64 124.5 1202 124.5C1202.36 124.5 1202.66 124.794 1202.66 125.156V128.656C1202.66 129.019 1202.36 129.312 1202 129.312C1201.64 129.312 1201.34 129.02 1201.34 128.656V125.156ZM1202 131.938C1201.53 131.938 1201.14 131.552 1201.14 131.078C1201.14 130.603 1201.53 130.218 1202 130.218C1202.47 130.218 1202.86 130.603 1202.86 131.078C1202.86 131.552 1202.48 131.938 1202 131.938Z" fill="#F45C59"/>
<rect x="725" y="40" width="24" height="24" rx="12" fill="#0059FF"/>
<path d="M740.199 54.7812V56H734.004V54.9526L737.013 51.6709C737.343 51.2985 737.603 50.9769 737.793 50.7061C737.984 50.4352 738.117 50.1919 738.193 49.9761C738.274 49.756 738.314 49.5423 738.314 49.335C738.314 49.043 738.259 48.7869 738.149 48.5669C738.043 48.3426 737.887 48.167 737.679 48.04C737.472 47.9089 737.22 47.8433 736.924 47.8433C736.581 47.8433 736.293 47.9173 736.061 48.0654C735.828 48.2135 735.652 48.4188 735.534 48.6812C735.415 48.9393 735.356 49.2355 735.356 49.5698H733.826C733.826 49.0324 733.949 48.5415 734.194 48.0972C734.44 47.6486 734.795 47.2931 735.261 47.0308C735.726 46.7642 736.287 46.6309 736.943 46.6309C737.561 46.6309 738.085 46.7345 738.517 46.9419C738.949 47.1493 739.277 47.4434 739.501 47.8242C739.729 48.2051 739.844 48.6558 739.844 49.1763C739.844 49.464 739.797 49.7497 739.704 50.0332C739.611 50.3167 739.478 50.6003 739.304 50.8838C739.135 51.1631 738.934 51.4445 738.701 51.728C738.468 52.0073 738.212 52.2909 737.933 52.5786L735.934 54.7812H740.199Z" fill="white"/>
<line x1="736.5" y1="88" x2="736.5" y2="64" stroke="#0059FF"/>
<rect x="120" y="40" width="24" height="24" rx="12" fill="#0059FF"/>
<path d="M133.181 46.7261V56H131.651V48.5415L129.385 49.3096V48.0464L132.997 46.7261H133.181Z" fill="white"/>
<line x1="131.5" y1="88" x2="131.5" y2="64" stroke="#0059FF"/>
<rect x="1180" y="40" width="24" height="24" rx="12" fill="#0059FF"/>
<path d="M1190.8 50.687H1191.71C1192.07 50.687 1192.36 50.6257 1192.6 50.5029C1192.83 50.3802 1193.01 50.2109 1193.12 49.9951C1193.24 49.7793 1193.29 49.5317 1193.29 49.2524C1193.29 48.9604 1193.24 48.7108 1193.14 48.5034C1193.03 48.2918 1192.88 48.1289 1192.67 48.0146C1192.46 47.9004 1192.19 47.8433 1191.87 47.8433C1191.6 47.8433 1191.36 47.8983 1191.14 48.0083C1190.92 48.1141 1190.75 48.2664 1190.62 48.4653C1190.5 48.66 1190.43 48.8927 1190.43 49.1636H1188.9C1188.9 48.6727 1189.03 48.2368 1189.28 47.856C1189.54 47.4751 1189.89 47.1768 1190.34 46.9609C1190.79 46.7409 1191.29 46.6309 1191.85 46.6309C1192.44 46.6309 1192.96 46.7303 1193.41 46.9292C1193.86 47.1239 1194.21 47.4159 1194.46 47.8052C1194.71 48.1945 1194.83 48.6769 1194.83 49.2524C1194.83 49.5148 1194.77 49.7814 1194.65 50.0522C1194.52 50.3231 1194.34 50.5706 1194.1 50.7949C1193.86 51.015 1193.56 51.1948 1193.2 51.3345C1192.84 51.4699 1192.42 51.5376 1191.95 51.5376H1190.8V50.687ZM1190.8 51.8804V51.0425H1191.95C1192.49 51.0425 1192.95 51.106 1193.33 51.2329C1193.72 51.3599 1194.03 51.5355 1194.27 51.7598C1194.51 51.9798 1194.69 52.2316 1194.8 52.5151C1194.91 52.7987 1194.97 53.0991 1194.97 53.4165C1194.97 53.8481 1194.89 54.2332 1194.74 54.5718C1194.58 54.9061 1194.37 55.1896 1194.08 55.4224C1193.8 55.6551 1193.47 55.8307 1193.09 55.9492C1192.71 56.0677 1192.3 56.127 1191.85 56.127C1191.46 56.127 1191.08 56.0719 1190.71 55.9619C1190.35 55.8519 1190.02 55.689 1189.73 55.4731C1189.45 55.2531 1189.22 54.9801 1189.05 54.6543C1188.88 54.3242 1188.8 53.9434 1188.8 53.5117H1190.33C1190.33 53.7868 1190.39 54.0301 1190.52 54.2417C1190.65 54.4491 1190.83 54.612 1191.07 54.7305C1191.3 54.849 1191.57 54.9082 1191.88 54.9082C1192.2 54.9082 1192.48 54.8511 1192.71 54.7368C1192.94 54.6226 1193.12 54.4533 1193.24 54.229C1193.37 54.0047 1193.43 53.7339 1193.43 53.4165C1193.43 53.0568 1193.36 52.7648 1193.23 52.5405C1193.09 52.3162 1192.89 52.1512 1192.63 52.0454C1192.37 51.9354 1192.07 51.8804 1191.71 51.8804H1190.8Z" fill="white"/>
<line x1="1191.5" y1="88" x2="1191.5" y2="64" stroke="#0059FF"/>
</svg>
