<svg width="1280" height="400" viewBox="0 0 1280 400" fill="none" xmlns="http://www.w3.org/2000/svg">
<path d="M0 16C0 7.16345 7.16344 0 16 0H1264C1272.84 0 1280 7.16344 1280 16V384C1280 392.837 1272.84 400 1264 400H16C7.16343 400 0 392.837 0 384V16Z" fill="#F2F2F2"/>
<rect width="1200" height="64" transform="translate(40 116)" fill="white"/>
<rect x="72" y="128" width="40" height="40" rx="14" fill="#2DC4E0"/>
<path d="M91.9999 139.667C93.6481 139.667 95.2593 140.155 96.6297 141.071C98.0001 141.987 99.0682 143.288 99.6989 144.811C100.33 146.334 100.495 148.009 100.173 149.626C99.8516 151.242 99.0579 152.727 97.8925 153.892C96.7271 155.058 95.2422 155.852 93.6257 156.173C92.0092 156.495 90.3336 156.33 88.8109 155.699C87.2882 155.068 85.9867 154 85.071 152.63C84.1553 151.259 83.6666 149.648 83.6666 148C83.6666 145.79 84.5446 143.67 86.1074 142.107C87.6702 140.545 89.7898 139.667 91.9999 139.667ZM91.9999 137.583C89.9397 137.583 87.9258 138.194 86.2127 139.339C84.4997 140.483 83.1646 142.11 82.3762 144.014C81.5878 145.917 81.3815 148.012 81.7834 150.032C82.1853 152.053 83.1774 153.909 84.6342 155.366C86.091 156.822 87.9471 157.815 89.9677 158.216C91.9884 158.618 94.0828 158.412 95.9862 157.624C97.8896 156.835 99.5165 155.5 100.661 153.787C101.806 152.074 102.417 150.06 102.417 148C102.417 145.237 101.319 142.588 99.3656 140.634C97.4121 138.681 94.7626 137.583 91.9999 137.583Z" fill="white" fill-opacity="0.25"/>
<path d="M92 144.875C93.1331 144.875 94.2408 145.211 95.183 145.841C96.1251 146.47 96.8594 147.365 97.2931 148.412C97.7267 149.459 97.8402 150.611 97.6191 151.722C97.398 152.833 96.8524 153.854 96.0511 154.655C95.2499 155.457 94.2291 156.002 93.1177 156.223C92.0064 156.444 90.8544 156.331 89.8075 155.897C88.7607 155.464 87.8659 154.729 87.2364 153.787C86.6068 152.845 86.2708 151.737 86.2708 150.604C86.2736 149.086 86.8781 147.63 87.9519 146.556C89.0257 145.482 90.4814 144.878 92 144.875ZM92 142.792C90.4548 142.792 88.9444 143.25 87.6596 144.108C86.3749 144.967 85.3735 146.187 84.7822 147.615C84.1909 149.042 84.0362 150.613 84.3376 152.128C84.6391 153.644 85.3831 155.036 86.4757 156.129C87.5683 157.221 88.9604 157.965 90.4758 158.267C91.9913 158.568 93.5622 158.413 94.9897 157.822C96.4173 157.231 97.6374 156.229 98.4959 154.945C99.3543 153.66 99.8125 152.149 99.8125 150.604C99.8125 148.532 98.9894 146.545 97.5243 145.08C96.0591 143.615 94.072 142.792 92 142.792Z" fill="#99E1EE"/>
<path d="M92.0001 150.083C92.6182 150.083 93.2224 150.267 93.7363 150.61C94.2502 150.953 94.6507 151.441 94.8872 152.012C95.1237 152.584 95.1856 153.212 95.065 153.818C94.9445 154.424 94.6468 154.981 94.2098 155.418C93.7727 155.855 93.2159 156.153 92.6097 156.273C92.0036 156.394 91.3752 156.332 90.8042 156.095C90.2332 155.859 89.7451 155.458 89.4017 154.945C89.0584 154.431 88.8751 153.826 88.8751 153.208C88.8751 152.38 89.2043 151.585 89.7904 150.999C90.3764 150.413 91.1713 150.083 92.0001 150.083ZM92.0001 148C90.97 148 89.963 148.305 89.1065 148.878C88.25 149.45 87.5824 150.264 87.1882 151.215C86.794 152.167 86.6909 153.214 86.8918 154.224C87.0928 155.235 87.5888 156.163 88.3172 156.891C89.0456 157.62 89.9737 158.116 90.984 158.317C91.9943 158.518 93.0415 158.414 93.9932 158.02C94.9449 157.626 95.7584 156.958 96.3307 156.102C96.903 155.245 97.2084 154.238 97.2084 153.208C97.2084 151.827 96.6597 150.502 95.6829 149.525C94.7062 148.549 93.3814 148 92.0001 148Z" fill="white"/>
<path d="M127.312 140.07C127.312 139.836 127.276 139.628 127.203 139.445C127.135 139.263 127.013 139.096 126.836 138.945C126.659 138.794 126.409 138.648 126.086 138.508C125.768 138.362 125.362 138.214 124.867 138.062C124.326 137.896 123.826 137.711 123.367 137.508C122.914 137.299 122.518 137.06 122.18 136.789C121.841 136.513 121.578 136.198 121.391 135.844C121.203 135.484 121.109 135.07 121.109 134.602C121.109 134.138 121.206 133.716 121.398 133.336C121.596 132.956 121.875 132.628 122.234 132.352C122.599 132.07 123.029 131.854 123.523 131.703C124.018 131.547 124.565 131.469 125.164 131.469C126.008 131.469 126.734 131.625 127.344 131.938C127.958 132.25 128.43 132.669 128.758 133.195C129.091 133.721 129.258 134.302 129.258 134.938H127.312C127.312 134.562 127.232 134.232 127.07 133.945C126.914 133.654 126.674 133.424 126.352 133.258C126.034 133.091 125.63 133.008 125.141 133.008C124.677 133.008 124.292 133.078 123.984 133.219C123.677 133.359 123.448 133.549 123.297 133.789C123.146 134.029 123.07 134.299 123.07 134.602C123.07 134.815 123.12 135.01 123.219 135.188C123.318 135.359 123.469 135.521 123.672 135.672C123.875 135.818 124.13 135.956 124.438 136.086C124.745 136.216 125.107 136.341 125.523 136.461C126.154 136.648 126.703 136.857 127.172 137.086C127.641 137.31 128.031 137.565 128.344 137.852C128.656 138.138 128.891 138.464 129.047 138.828C129.203 139.188 129.281 139.596 129.281 140.055C129.281 140.534 129.185 140.966 128.992 141.352C128.799 141.732 128.523 142.057 128.164 142.328C127.81 142.594 127.383 142.799 126.883 142.945C126.388 143.086 125.836 143.156 125.227 143.156C124.68 143.156 124.141 143.083 123.609 142.938C123.083 142.792 122.604 142.57 122.172 142.273C121.74 141.971 121.396 141.596 121.141 141.148C120.885 140.695 120.758 140.167 120.758 139.562H122.719C122.719 139.932 122.781 140.247 122.906 140.508C123.036 140.768 123.216 140.982 123.445 141.148C123.674 141.31 123.94 141.43 124.242 141.508C124.549 141.586 124.878 141.625 125.227 141.625C125.685 141.625 126.068 141.56 126.375 141.43C126.688 141.299 126.922 141.117 127.078 140.883C127.234 140.648 127.312 140.378 127.312 140.07ZM132.711 136.266V143H130.828V134.547H132.602L132.711 136.266ZM132.406 138.461L131.766 138.453C131.766 137.87 131.839 137.331 131.984 136.836C132.13 136.341 132.344 135.911 132.625 135.547C132.906 135.177 133.255 134.893 133.672 134.695C134.094 134.492 134.581 134.391 135.133 134.391C135.518 134.391 135.87 134.448 136.188 134.562C136.51 134.672 136.789 134.846 137.023 135.086C137.263 135.326 137.445 135.633 137.57 136.008C137.701 136.383 137.766 136.836 137.766 137.367V143H135.883V137.531C135.883 137.12 135.82 136.797 135.695 136.562C135.576 136.328 135.401 136.161 135.172 136.062C134.948 135.958 134.68 135.906 134.367 135.906C134.013 135.906 133.711 135.974 133.461 136.109C133.216 136.245 133.016 136.43 132.859 136.664C132.703 136.898 132.589 137.169 132.516 137.477C132.443 137.784 132.406 138.112 132.406 138.461ZM137.648 137.961L136.766 138.156C136.766 137.646 136.836 137.164 136.977 136.711C137.122 136.253 137.333 135.852 137.609 135.508C137.891 135.159 138.237 134.885 138.648 134.688C139.06 134.49 139.531 134.391 140.062 134.391C140.495 134.391 140.88 134.451 141.219 134.57C141.562 134.685 141.854 134.867 142.094 135.117C142.333 135.367 142.516 135.693 142.641 136.094C142.766 136.49 142.828 136.969 142.828 137.531V143H140.938V137.523C140.938 137.096 140.875 136.766 140.75 136.531C140.63 136.297 140.458 136.135 140.234 136.047C140.01 135.953 139.742 135.906 139.43 135.906C139.138 135.906 138.88 135.961 138.656 136.07C138.438 136.174 138.253 136.323 138.102 136.516C137.951 136.703 137.836 136.919 137.758 137.164C137.685 137.409 137.648 137.674 137.648 137.961ZM149.852 141.008V134.547H151.742V143H149.961L149.852 141.008ZM150.117 139.25L150.75 139.234C150.75 139.802 150.688 140.326 150.562 140.805C150.438 141.279 150.245 141.693 149.984 142.047C149.724 142.396 149.391 142.669 148.984 142.867C148.578 143.06 148.091 143.156 147.523 143.156C147.112 143.156 146.734 143.096 146.391 142.977C146.047 142.857 145.75 142.672 145.5 142.422C145.255 142.172 145.065 141.846 144.93 141.445C144.794 141.044 144.727 140.565 144.727 140.008V134.547H146.609V140.023C146.609 140.331 146.646 140.589 146.719 140.797C146.792 141 146.891 141.164 147.016 141.289C147.141 141.414 147.286 141.503 147.453 141.555C147.62 141.607 147.797 141.633 147.984 141.633C148.521 141.633 148.943 141.529 149.25 141.32C149.562 141.107 149.784 140.82 149.914 140.461C150.049 140.102 150.117 139.698 150.117 139.25ZM158.414 140.711C158.414 140.523 158.367 140.354 158.273 140.203C158.18 140.047 158 139.906 157.734 139.781C157.474 139.656 157.089 139.542 156.578 139.438C156.13 139.339 155.719 139.221 155.344 139.086C154.974 138.945 154.656 138.776 154.391 138.578C154.125 138.38 153.919 138.146 153.773 137.875C153.628 137.604 153.555 137.292 153.555 136.938C153.555 136.594 153.63 136.268 153.781 135.961C153.932 135.654 154.148 135.383 154.43 135.148C154.711 134.914 155.052 134.729 155.453 134.594C155.859 134.458 156.312 134.391 156.812 134.391C157.521 134.391 158.128 134.51 158.633 134.75C159.143 134.984 159.534 135.305 159.805 135.711C160.076 136.112 160.211 136.565 160.211 137.07H158.328C158.328 136.846 158.271 136.638 158.156 136.445C158.047 136.247 157.88 136.089 157.656 135.969C157.432 135.844 157.151 135.781 156.812 135.781C156.49 135.781 156.221 135.833 156.008 135.938C155.799 136.036 155.643 136.167 155.539 136.328C155.44 136.49 155.391 136.667 155.391 136.859C155.391 137 155.417 137.128 155.469 137.242C155.526 137.352 155.62 137.453 155.75 137.547C155.88 137.635 156.057 137.719 156.281 137.797C156.51 137.875 156.797 137.951 157.141 138.023C157.786 138.159 158.341 138.333 158.805 138.547C159.273 138.755 159.633 139.026 159.883 139.359C160.133 139.688 160.258 140.104 160.258 140.609C160.258 140.984 160.177 141.328 160.016 141.641C159.859 141.948 159.63 142.216 159.328 142.445C159.026 142.669 158.664 142.844 158.242 142.969C157.826 143.094 157.357 143.156 156.836 143.156C156.07 143.156 155.422 143.021 154.891 142.75C154.359 142.474 153.956 142.122 153.68 141.695C153.409 141.263 153.273 140.815 153.273 140.352H155.094C155.115 140.701 155.211 140.979 155.383 141.188C155.56 141.391 155.779 141.539 156.039 141.633C156.305 141.721 156.578 141.766 156.859 141.766C157.198 141.766 157.482 141.721 157.711 141.633C157.94 141.539 158.115 141.414 158.234 141.258C158.354 141.096 158.414 140.914 158.414 140.711ZM163.766 131V143H161.891V131H163.766ZM163.438 138.461L162.828 138.453C162.833 137.87 162.914 137.331 163.07 136.836C163.232 136.341 163.456 135.911 163.742 135.547C164.034 135.177 164.383 134.893 164.789 134.695C165.195 134.492 165.646 134.391 166.141 134.391C166.557 134.391 166.932 134.448 167.266 134.562C167.604 134.677 167.896 134.862 168.141 135.117C168.385 135.367 168.57 135.695 168.695 136.102C168.826 136.503 168.891 136.992 168.891 137.57V143H167V137.555C167 137.148 166.94 136.826 166.82 136.586C166.706 136.346 166.536 136.174 166.312 136.07C166.089 135.961 165.815 135.906 165.492 135.906C165.154 135.906 164.854 135.974 164.594 136.109C164.339 136.245 164.125 136.43 163.953 136.664C163.781 136.898 163.651 137.169 163.562 137.477C163.479 137.784 163.438 138.112 163.438 138.461Z" fill="#1A1A1A"/>
<path d="M122.833 152.758V162H121.24V152.758H122.833ZM126.461 152.758H127.883L130.555 159.886L133.221 152.758H134.643L131.114 162H129.984L126.461 152.758ZM125.813 152.758H127.166L127.4 158.928V162H125.813V152.758ZM133.938 152.758H135.297V162H133.704V158.928L133.938 152.758ZM141.902 153.989L139.141 162H137.471L140.95 152.758H142.016L141.902 153.989ZM144.212 162L141.445 153.989L141.324 152.758H142.397L145.888 162H144.212ZM144.079 158.572V159.835H139.052V158.572H144.079ZM154.918 157.277V160.807C154.787 160.98 154.582 161.171 154.302 161.378C154.027 161.581 153.661 161.757 153.204 161.905C152.747 162.053 152.178 162.127 151.497 162.127C150.917 162.127 150.386 162.03 149.903 161.835C149.421 161.636 149.004 161.346 148.653 160.965C148.306 160.584 148.037 160.121 147.847 159.575C147.656 159.025 147.561 158.399 147.561 157.696V157.055C147.561 156.357 147.648 155.735 147.821 155.189C147.999 154.639 148.253 154.173 148.583 153.792C148.913 153.412 149.311 153.124 149.776 152.929C150.246 152.73 150.777 152.631 151.37 152.631C152.127 152.631 152.753 152.758 153.249 153.012C153.748 153.261 154.133 153.608 154.404 154.053C154.675 154.497 154.846 155.005 154.918 155.576H153.356C153.306 155.255 153.206 154.967 153.058 154.713C152.914 154.459 152.707 154.26 152.436 154.116C152.169 153.968 151.822 153.894 151.395 153.894C151.027 153.894 150.703 153.964 150.424 154.104C150.145 154.243 149.912 154.448 149.726 154.719C149.544 154.99 149.406 155.32 149.313 155.709C149.22 156.099 149.173 156.543 149.173 157.042V157.696C149.173 158.204 149.226 158.655 149.332 159.048C149.442 159.442 149.599 159.774 149.802 160.045C150.009 160.316 150.261 160.521 150.557 160.661C150.853 160.796 151.188 160.864 151.56 160.864C151.924 160.864 152.222 160.834 152.455 160.775C152.688 160.711 152.872 160.637 153.007 160.553C153.147 160.464 153.255 160.379 153.331 160.299V158.464H151.408V157.277H154.918ZM163.732 160.737V162H158.825V160.737H163.732ZM159.276 152.758V162H157.683V152.758H159.276ZM163.091 156.617V157.861H158.825V156.617H163.091ZM163.7 152.758V154.027H158.825V152.758H163.7ZM177.64 157.125V157.633C177.64 158.331 177.549 158.957 177.367 159.512C177.185 160.066 176.925 160.538 176.586 160.927C176.252 161.317 175.85 161.615 175.38 161.822C174.911 162.025 174.39 162.127 173.819 162.127C173.252 162.127 172.733 162.025 172.264 161.822C171.798 161.615 171.394 161.317 171.051 160.927C170.708 160.538 170.442 160.066 170.251 159.512C170.065 158.957 169.972 158.331 169.972 157.633V157.125C169.972 156.427 170.065 155.803 170.251 155.252C170.438 154.698 170.7 154.226 171.039 153.837C171.381 153.443 171.785 153.145 172.251 152.942C172.721 152.735 173.239 152.631 173.806 152.631C174.377 152.631 174.898 152.735 175.368 152.942C175.837 153.145 176.242 153.443 176.58 153.837C176.919 154.226 177.179 154.698 177.361 155.252C177.547 155.803 177.64 156.427 177.64 157.125ZM176.047 157.633V157.112C176.047 156.596 175.996 156.141 175.895 155.748C175.797 155.35 175.651 155.018 175.457 154.751C175.266 154.48 175.031 154.277 174.752 154.142C174.473 154.002 174.157 153.932 173.806 153.932C173.455 153.932 173.142 154.002 172.867 154.142C172.592 154.277 172.357 154.48 172.162 154.751C171.972 155.018 171.826 155.35 171.724 155.748C171.623 156.141 171.572 156.596 171.572 157.112V157.633C171.572 158.149 171.623 158.606 171.724 159.004C171.826 159.402 171.974 159.738 172.168 160.013C172.367 160.284 172.604 160.489 172.879 160.629C173.154 160.764 173.468 160.832 173.819 160.832C174.174 160.832 174.49 160.764 174.765 160.629C175.04 160.489 175.272 160.284 175.463 160.013C175.653 159.738 175.797 159.402 175.895 159.004C175.996 158.606 176.047 158.149 176.047 157.633ZM183.744 158.553H181.338V157.29H183.744C184.163 157.29 184.501 157.222 184.759 157.087C185.017 156.951 185.206 156.765 185.324 156.528C185.447 156.287 185.508 156.012 185.508 155.703C185.508 155.411 185.447 155.138 185.324 154.884C185.206 154.626 185.017 154.419 184.759 154.262C184.501 154.106 184.163 154.027 183.744 154.027H181.827V162H180.233V152.758H183.744C184.459 152.758 185.066 152.885 185.565 153.139C186.069 153.388 186.452 153.735 186.714 154.18C186.977 154.62 187.108 155.123 187.108 155.69C187.108 156.287 186.977 156.799 186.714 157.227C186.452 157.654 186.069 157.982 185.565 158.21C185.066 158.439 184.459 158.553 183.744 158.553ZM193.338 152.758V162H191.758V152.758H193.338ZM196.239 152.758V154.027H188.882V152.758H196.239ZM200.159 152.758V162H198.566V152.758H200.159ZM203.787 152.758H205.209L207.881 159.886L210.547 152.758H211.969L208.44 162H207.31L203.787 152.758ZM203.14 152.758H204.492L204.727 158.928V162H203.14V152.758ZM211.265 152.758H212.623V162H211.03V158.928L211.265 152.758ZM217.216 152.758V162H215.623V152.758H217.216ZM226.658 160.737V162H220.241V160.737H226.658ZM226.512 153.742L220.831 162H219.765V160.991L225.465 152.758H226.512V153.742ZM225.922 152.758V154.027H219.803V152.758H225.922ZM232.73 153.989L229.969 162H228.299L231.778 152.758H232.844L232.73 153.989ZM235.041 162L232.273 153.989L232.152 152.758H233.225L236.716 162H235.041ZM234.907 158.572V159.835H229.88V158.572H234.907ZM241.753 152.758V162H240.173V152.758H241.753ZM244.654 152.758V154.027H237.297V152.758H244.654ZM248.574 152.758V162H246.981V152.758H248.574ZM258.924 157.125V157.633C258.924 158.331 258.833 158.957 258.651 159.512C258.469 160.066 258.209 160.538 257.871 160.927C257.536 161.317 257.134 161.615 256.665 161.822C256.195 162.025 255.674 162.127 255.103 162.127C254.536 162.127 254.018 162.025 253.548 161.822C253.082 161.615 252.678 161.317 252.335 160.927C251.993 160.538 251.726 160.066 251.536 159.512C251.349 158.957 251.256 158.331 251.256 157.633V157.125C251.256 156.427 251.349 155.803 251.536 155.252C251.722 154.698 251.984 154.226 252.323 153.837C252.666 153.443 253.07 153.145 253.535 152.942C254.005 152.735 254.523 152.631 255.09 152.631C255.662 152.631 256.182 152.735 256.652 152.942C257.122 153.145 257.526 153.443 257.864 153.837C258.203 154.226 258.463 154.698 258.645 155.252C258.831 155.803 258.924 156.427 258.924 157.125ZM257.331 157.633V157.112C257.331 156.596 257.28 156.141 257.179 155.748C257.081 155.35 256.935 155.018 256.741 154.751C256.55 154.48 256.315 154.277 256.036 154.142C255.757 154.002 255.442 153.932 255.09 153.932C254.739 153.932 254.426 154.002 254.151 154.142C253.876 154.277 253.641 154.48 253.446 154.751C253.256 155.018 253.11 155.35 253.008 155.748C252.907 156.141 252.856 156.596 252.856 157.112V157.633C252.856 158.149 252.907 158.606 253.008 159.004C253.11 159.402 253.258 159.738 253.453 160.013C253.652 160.284 253.889 160.489 254.164 160.629C254.439 160.764 254.752 160.832 255.103 160.832C255.458 160.832 255.774 160.764 256.049 160.629C256.324 160.489 256.557 160.284 256.747 160.013C256.938 159.738 257.081 159.402 257.179 159.004C257.28 158.606 257.331 158.149 257.331 157.633ZM268.849 152.758V162H267.256L263.111 155.379V162H261.518V152.758H263.111L267.269 159.391V152.758H268.849Z" fill="#4C4C4C"/>
<path d="M751 141C752.312 141.018 753.488 141.337 754.527 141.957C755.585 142.577 756.423 143.415 757.043 144.473C757.663 145.512 757.982 146.688 758 148C757.982 149.312 757.663 150.488 757.043 151.527C756.423 152.585 755.585 153.423 754.527 154.043C753.488 154.663 752.312 154.982 751 155C749.688 154.982 748.512 154.663 747.473 154.043C746.415 153.423 745.577 152.585 744.957 151.527C744.337 150.488 744.018 149.312 744 148C744.018 146.688 744.337 145.512 744.957 144.473C745.577 143.415 746.415 142.577 747.473 141.957C748.512 141.337 749.688 141.018 751 141ZM751 153.688C752.604 153.651 753.944 153.095 755.02 152.02C756.095 150.944 756.651 149.604 756.688 148C756.651 146.396 756.095 145.056 755.02 143.98C753.944 142.905 752.604 142.349 751 142.312C749.396 142.349 748.056 142.905 746.98 143.98C745.905 145.056 745.349 146.396 745.312 148C745.349 149.604 745.905 150.944 746.98 152.02C748.056 153.095 749.396 153.651 751 153.688ZM751 150.188C751.237 150.188 751.438 150.27 751.602 150.434C751.784 150.598 751.875 150.807 751.875 151.062C751.875 151.318 751.784 151.527 751.602 151.691C751.438 151.855 751.237 151.938 751 151.938C750.453 151.901 750.161 151.609 750.125 151.062C750.125 150.807 750.207 150.598 750.371 150.434C750.535 150.27 750.745 150.188 751 150.188ZM751.902 144.5C752.467 144.518 752.923 144.701 753.27 145.047C753.634 145.411 753.816 145.867 753.816 146.414C753.798 147.107 753.488 147.654 752.887 148.055L751.656 148.82V148.875C751.62 149.276 751.401 149.495 751 149.531C750.599 149.495 750.38 149.276 750.344 148.875V148.438C750.344 148.201 750.453 148.009 750.672 147.863L752.23 146.906C752.431 146.797 752.531 146.633 752.531 146.414C752.495 146.049 752.276 145.849 751.875 145.812H750.48C750.134 145.849 749.943 146.049 749.906 146.414C749.87 146.815 749.651 147.034 749.25 147.07C748.849 147.034 748.63 146.815 748.594 146.414C748.612 145.867 748.794 145.411 749.141 145.047C749.505 144.701 749.961 144.518 750.508 144.5H751.902Z" fill="#1A1A1A"/>
<path d="M799.875 141.875V142.367C800.896 142.549 801.725 143.014 802.363 143.762C803.019 144.509 803.357 145.411 803.375 146.469V147.371C803.393 148.647 803.794 149.786 804.578 150.789L804.988 151.309C805.152 151.527 805.18 151.755 805.07 151.992C804.943 152.229 804.742 152.357 804.469 152.375H793.531C793.258 152.357 793.057 152.229 792.93 151.992C792.82 151.755 792.848 151.527 793.012 151.309L793.422 150.789C794.206 149.786 794.607 148.647 794.625 147.371V146.469C794.643 145.411 794.98 144.509 795.637 143.762C796.275 143.014 797.104 142.549 798.125 142.367V141.875C798.125 141.62 798.207 141.41 798.371 141.246C798.535 141.082 798.745 141 799 141C799.255 141 799.465 141.082 799.629 141.246C799.793 141.41 799.875 141.62 799.875 141.875ZM798.781 143.625C797.979 143.643 797.305 143.917 796.758 144.445C796.229 144.992 795.956 145.667 795.937 146.469V147.371C795.937 148.72 795.573 149.951 794.844 151.062H803.156C802.427 149.951 802.062 148.72 802.062 147.371V146.469C802.044 145.667 801.771 144.992 801.242 144.445C800.695 143.917 800.021 143.643 799.219 143.625H798.781ZM800.75 153.25C800.75 153.724 800.577 154.134 800.23 154.48C799.884 154.827 799.474 155 799 155C798.526 155 798.116 154.827 797.769 154.48C797.423 154.134 797.25 153.724 797.25 153.25H800.75Z" fill="#1A1A1A"/>
<rect x="835" y="128" width="1" height="40" fill="#E6E6E6"/>
<rect x="852.5" y="128.5" width="207" height="39" rx="3.5" stroke="#1A1A1A"/>
<path fill-rule="evenodd" clip-rule="evenodd" d="M869.5 148.002C869.5 144.411 872.411 141.5 876.002 141.5C879.592 141.5 882.503 144.411 882.503 148.002C882.503 151.592 879.592 154.503 876.002 154.503C872.411 154.503 869.5 151.592 869.5 148.002ZM876.002 140C871.582 140 868 143.582 868 148.002C868 152.421 871.582 156.003 876.002 156.003C880.421 156.003 884.003 152.421 884.003 148.002C884.003 143.582 880.421 140 876.002 140ZM878.149 151.629C878.383 151.746 878.641 151.807 878.903 151.807C879.165 151.807 879.424 151.746 879.658 151.629C879.897 151.51 880.096 151.324 880.23 151.094C880.372 150.858 880.446 150.586 880.444 150.31V144.146H879.341V150.31C879.342 150.363 879.331 150.415 879.31 150.463C879.29 150.511 879.259 150.555 879.22 150.59C879.133 150.667 879.02 150.71 878.903 150.71C878.786 150.71 878.673 150.667 878.585 150.59C878.547 150.554 878.517 150.511 878.496 150.463C878.475 150.415 878.465 150.363 878.465 150.31V145.642C878.471 145.444 878.436 145.248 878.362 145.064C878.289 144.88 878.178 144.713 878.038 144.574C877.747 144.3 877.363 144.147 876.963 144.147C876.564 144.147 876.179 144.3 875.889 144.574C875.748 144.713 875.638 144.88 875.565 145.064C875.491 145.248 875.456 145.444 875.461 145.642V150.31C875.462 150.363 875.451 150.415 875.43 150.463C875.409 150.511 875.379 150.554 875.341 150.59C875.253 150.667 875.14 150.71 875.023 150.71C874.906 150.71 874.793 150.667 874.705 150.59C874.667 150.555 874.636 150.511 874.615 150.463C874.594 150.415 874.584 150.363 874.584 150.31V145.642C874.589 145.444 874.553 145.247 874.479 145.063C874.404 144.879 874.294 144.712 874.153 144.573C874.013 144.433 873.845 144.323 873.661 144.25C873.477 144.176 873.28 144.141 873.081 144.147C872.669 144.14 872.271 144.293 871.969 144.574C871.819 144.708 871.699 144.872 871.619 145.057C871.539 145.241 871.499 145.441 871.504 145.642V151.807H872.597V145.642C872.597 145.59 872.608 145.538 872.629 145.49C872.649 145.442 872.68 145.398 872.718 145.362C872.76 145.321 872.81 145.289 872.866 145.268C872.921 145.248 872.98 145.239 873.039 145.243C873.097 145.239 873.156 145.248 873.211 145.269C873.267 145.29 873.317 145.321 873.359 145.362C873.397 145.398 873.427 145.442 873.448 145.49C873.469 145.538 873.479 145.59 873.479 145.642V150.31C873.474 150.509 873.511 150.706 873.585 150.89C873.659 151.074 873.77 151.241 873.91 151.38C874.051 151.52 874.219 151.63 874.403 151.703C874.587 151.776 874.785 151.811 874.983 151.806C875.395 151.812 875.793 151.659 876.095 151.379C876.245 151.245 876.364 151.08 876.444 150.895C876.525 150.711 876.564 150.511 876.561 150.31V145.642C876.562 145.564 876.586 145.487 876.631 145.423C876.675 145.358 876.737 145.307 876.81 145.278C876.882 145.248 876.962 145.24 877.039 145.255C877.116 145.27 877.187 145.307 877.243 145.362C877.281 145.398 877.312 145.442 877.333 145.49C877.353 145.538 877.364 145.59 877.364 145.642V150.31C877.361 150.587 877.435 150.858 877.578 151.094C877.712 151.324 877.911 151.51 878.149 151.629Z" fill="#1A1A1A"/>
<path d="M893.831 142.336H895.472L898.555 150.561L901.631 142.336H903.272L899.2 153H897.896L893.831 142.336ZM893.084 142.336H894.644L894.915 149.455V153H893.084V142.336ZM902.459 142.336H904.026V153H902.188V149.455L902.459 142.336ZM905.696 149.125V148.957C905.696 148.386 905.779 147.856 905.945 147.368C906.111 146.875 906.351 146.447 906.663 146.086C906.98 145.72 907.366 145.437 907.82 145.236C908.279 145.031 908.797 144.929 909.373 144.929C909.954 144.929 910.472 145.031 910.926 145.236C911.385 145.437 911.773 145.72 912.09 146.086C912.408 146.447 912.649 146.875 912.815 147.368C912.981 147.856 913.064 148.386 913.064 148.957V149.125C913.064 149.697 912.981 150.227 912.815 150.715C912.649 151.203 912.408 151.63 912.09 151.997C911.773 152.358 911.387 152.641 910.933 152.846C910.479 153.046 909.964 153.146 909.388 153.146C908.807 153.146 908.287 153.046 907.828 152.846C907.374 152.641 906.988 152.358 906.67 151.997C906.353 151.63 906.111 151.203 905.945 150.715C905.779 150.227 905.696 149.697 905.696 149.125ZM907.461 148.957V149.125C907.461 149.482 907.498 149.819 907.571 150.136C907.645 150.454 907.759 150.732 907.916 150.971C908.072 151.21 908.272 151.398 908.516 151.535C908.76 151.672 909.051 151.74 909.388 151.74C909.715 151.74 909.998 151.672 910.237 151.535C910.481 151.398 910.682 151.21 910.838 150.971C910.994 150.732 911.109 150.454 911.182 150.136C911.26 149.819 911.299 149.482 911.299 149.125V148.957C911.299 148.605 911.26 148.273 911.182 147.961C911.109 147.644 910.992 147.363 910.831 147.119C910.674 146.875 910.474 146.684 910.23 146.547C909.991 146.406 909.705 146.335 909.373 146.335C909.041 146.335 908.753 146.406 908.509 146.547C908.27 146.684 908.072 146.875 907.916 147.119C907.759 147.363 907.645 147.644 907.571 147.961C907.498 148.273 907.461 148.605 907.461 148.957ZM916.316 146.584V153H914.551V145.075H916.236L916.316 146.584ZM918.741 145.024L918.726 146.665C918.619 146.645 918.501 146.63 918.375 146.621C918.252 146.611 918.13 146.606 918.008 146.606C917.706 146.606 917.439 146.65 917.21 146.738C916.98 146.821 916.788 146.943 916.631 147.104C916.48 147.26 916.363 147.451 916.28 147.675C916.197 147.9 916.148 148.151 916.133 148.43L915.73 148.459C915.73 147.961 915.779 147.5 915.877 147.075C915.975 146.65 916.121 146.276 916.316 145.954C916.517 145.632 916.766 145.38 917.063 145.2C917.366 145.019 917.715 144.929 918.111 144.929C918.218 144.929 918.333 144.938 918.455 144.958C918.582 144.978 918.677 145 918.741 145.024ZM923.194 153.146C922.608 153.146 922.078 153.051 921.604 152.861C921.136 152.666 920.735 152.395 920.403 152.048C920.076 151.701 919.825 151.293 919.649 150.825C919.473 150.356 919.385 149.851 919.385 149.309V149.016C919.385 148.396 919.476 147.834 919.656 147.331C919.837 146.828 920.088 146.398 920.411 146.042C920.733 145.681 921.114 145.405 921.553 145.214C921.993 145.024 922.469 144.929 922.981 144.929C923.548 144.929 924.043 145.024 924.468 145.214C924.893 145.405 925.245 145.673 925.523 146.02C925.806 146.362 926.016 146.77 926.153 147.243C926.294 147.717 926.365 148.239 926.365 148.811V149.565H920.242V148.298H924.622V148.159C924.612 147.841 924.549 147.543 924.432 147.265C924.319 146.987 924.146 146.762 923.912 146.591C923.677 146.42 923.365 146.335 922.974 146.335C922.681 146.335 922.42 146.398 922.19 146.525C921.966 146.647 921.778 146.826 921.626 147.06C921.475 147.294 921.358 147.578 921.275 147.91C921.197 148.237 921.158 148.605 921.158 149.016V149.309C921.158 149.655 921.204 149.978 921.297 150.275C921.395 150.568 921.536 150.825 921.722 151.044C921.907 151.264 922.132 151.438 922.396 151.564C922.659 151.687 922.959 151.748 923.296 151.748C923.721 151.748 924.1 151.662 924.432 151.491C924.764 151.32 925.052 151.079 925.296 150.766L926.226 151.667C926.055 151.916 925.833 152.155 925.56 152.385C925.286 152.609 924.952 152.792 924.556 152.934C924.166 153.076 923.711 153.146 923.194 153.146ZM933.865 153H932.1V144.313C932.1 143.723 932.21 143.227 932.43 142.827C932.654 142.421 932.974 142.116 933.389 141.911C933.804 141.701 934.295 141.596 934.861 141.596C935.037 141.596 935.21 141.608 935.381 141.633C935.552 141.652 935.718 141.684 935.879 141.728L935.835 143.09C935.738 143.066 935.63 143.049 935.513 143.039C935.401 143.029 935.279 143.024 935.147 143.024C934.878 143.024 934.646 143.076 934.451 143.178C934.261 143.276 934.114 143.42 934.012 143.61C933.914 143.801 933.865 144.035 933.865 144.313V153ZM935.499 145.075V146.364H930.884V145.075H935.499ZM938.553 146.584V153H936.788V145.075H938.472L938.553 146.584ZM940.977 145.024L940.962 146.665C940.855 146.645 940.738 146.63 940.611 146.621C940.489 146.611 940.367 146.606 940.245 146.606C939.942 146.606 939.676 146.65 939.446 146.738C939.217 146.821 939.024 146.943 938.868 147.104C938.716 147.26 938.599 147.451 938.516 147.675C938.433 147.9 938.384 148.151 938.37 148.43L937.967 148.459C937.967 147.961 938.016 147.5 938.113 147.075C938.211 146.65 938.357 146.276 938.553 145.954C938.753 145.632 939.002 145.38 939.3 145.2C939.603 145.019 939.952 144.929 940.347 144.929C940.455 144.929 940.569 144.938 940.691 144.958C940.818 144.978 940.914 145 940.977 145.024ZM941.556 149.125V148.957C941.556 148.386 941.639 147.856 941.805 147.368C941.971 146.875 942.21 146.447 942.522 146.086C942.84 145.72 943.226 145.437 943.68 145.236C944.139 145.031 944.656 144.929 945.232 144.929C945.813 144.929 946.331 145.031 946.785 145.236C947.244 145.437 947.632 145.72 947.95 146.086C948.267 146.447 948.509 146.875 948.675 147.368C948.841 147.856 948.924 148.386 948.924 148.957V149.125C948.924 149.697 948.841 150.227 948.675 150.715C948.509 151.203 948.267 151.63 947.95 151.997C947.632 152.358 947.247 152.641 946.792 152.846C946.338 153.046 945.823 153.146 945.247 153.146C944.666 153.146 944.146 153.046 943.687 152.846C943.233 152.641 942.847 152.358 942.53 151.997C942.212 151.63 941.971 151.203 941.805 150.715C941.639 150.227 941.556 149.697 941.556 149.125ZM943.321 148.957V149.125C943.321 149.482 943.357 149.819 943.431 150.136C943.504 150.454 943.619 150.732 943.775 150.971C943.931 151.21 944.131 151.398 944.375 151.535C944.62 151.672 944.91 151.74 945.247 151.74C945.574 151.74 945.857 151.672 946.097 151.535C946.341 151.398 946.541 151.21 946.697 150.971C946.854 150.732 946.968 150.454 947.042 150.136C947.12 149.819 947.159 149.482 947.159 149.125V148.957C947.159 148.605 947.12 148.273 947.042 147.961C946.968 147.644 946.851 147.363 946.69 147.119C946.534 146.875 946.333 146.684 946.089 146.547C945.85 146.406 945.564 146.335 945.232 146.335C944.9 146.335 944.612 146.406 944.368 146.547C944.129 146.684 943.931 146.875 943.775 147.119C943.619 147.363 943.504 147.644 943.431 147.961C943.357 148.273 943.321 148.605 943.321 148.957ZM952.168 146.687V153H950.403V145.075H952.066L952.168 146.687ZM951.883 148.745L951.282 148.737C951.282 148.19 951.351 147.685 951.487 147.221C951.624 146.757 951.824 146.354 952.088 146.013C952.352 145.666 952.679 145.4 953.069 145.214C953.465 145.024 953.921 144.929 954.439 144.929C954.8 144.929 955.13 144.982 955.428 145.09C955.73 145.192 955.992 145.356 956.211 145.581C956.436 145.805 956.607 146.093 956.724 146.445C956.846 146.796 956.907 147.221 956.907 147.719V153H955.142V147.873C955.142 147.487 955.083 147.185 954.966 146.965C954.854 146.745 954.69 146.589 954.476 146.496C954.266 146.398 954.014 146.35 953.721 146.35C953.389 146.35 953.106 146.413 952.872 146.54C952.642 146.667 952.454 146.84 952.308 147.06C952.161 147.28 952.054 147.534 951.985 147.822C951.917 148.11 951.883 148.417 951.883 148.745ZM956.797 148.276L955.97 148.459C955.97 147.98 956.036 147.529 956.167 147.104C956.304 146.674 956.502 146.298 956.761 145.976C957.024 145.649 957.349 145.393 957.735 145.207C958.121 145.021 958.562 144.929 959.061 144.929C959.466 144.929 959.827 144.985 960.145 145.097C960.467 145.205 960.74 145.375 960.965 145.61C961.189 145.844 961.36 146.149 961.478 146.525C961.595 146.896 961.653 147.346 961.653 147.873V153H959.881V147.866C959.881 147.465 959.822 147.155 959.705 146.936C959.593 146.716 959.432 146.564 959.222 146.481C959.012 146.394 958.76 146.35 958.467 146.35C958.194 146.35 957.952 146.401 957.742 146.503C957.537 146.601 957.364 146.74 957.222 146.921C957.081 147.097 956.973 147.299 956.9 147.529C956.832 147.758 956.797 148.007 956.797 148.276ZM970.054 150.605L972.178 142.336H973.292L973.167 144.467L970.896 153H969.739L970.054 150.605ZM968.465 142.336L970.186 150.539L970.34 153H969.109L966.641 142.336H968.465ZM975.701 150.517L977.4 142.336H979.231L976.763 153H975.533L975.701 150.517ZM973.724 142.336L975.826 150.627L976.133 153H974.976L972.742 144.467L972.625 142.336H973.724ZM984.644 149.023H981.868V147.565H984.644C985.127 147.565 985.518 147.487 985.816 147.331C986.114 147.175 986.331 146.96 986.468 146.687C986.609 146.408 986.68 146.091 986.68 145.734C986.68 145.397 986.609 145.083 986.468 144.79C986.331 144.492 986.114 144.252 985.816 144.072C985.518 143.891 985.127 143.801 984.644 143.801H982.432V153H980.594V142.336H984.644C985.469 142.336 986.17 142.482 986.746 142.775C987.327 143.063 987.769 143.464 988.072 143.977C988.375 144.484 988.526 145.065 988.526 145.72C988.526 146.408 988.375 146.999 988.072 147.492C987.769 147.985 987.327 148.364 986.746 148.627C986.17 148.891 985.469 149.023 984.644 149.023ZM990.921 142.336H992.562L995.645 150.561L998.721 142.336H1000.36L996.29 153H994.986L990.921 142.336ZM990.174 142.336H991.734L992.005 149.455V153H990.174V142.336ZM999.549 142.336H1001.12V153H999.278V149.455L999.549 142.336ZM1009.28 142.336H1011.11V149.462C1011.11 150.273 1010.94 150.952 1010.59 151.499C1010.23 152.045 1009.76 152.458 1009.15 152.736C1008.55 153.01 1007.88 153.146 1007.14 153.146C1006.37 153.146 1005.69 153.01 1005.09 152.736C1004.49 152.458 1004.01 152.045 1003.67 151.499C1003.32 150.952 1003.15 150.273 1003.15 149.462V142.336H1004.98V149.462C1004.98 149.975 1005.07 150.397 1005.25 150.729C1005.42 151.057 1005.67 151.298 1005.99 151.455C1006.32 151.611 1006.7 151.689 1007.14 151.689C1007.58 151.689 1007.95 151.611 1008.27 151.455C1008.59 151.298 1008.84 151.057 1009.02 150.729C1009.19 150.397 1009.28 149.975 1009.28 149.462V142.336ZM1019.95 153H1017.67L1017.68 151.542H1019.95C1020.61 151.542 1021.16 151.398 1021.6 151.11C1022.05 150.822 1022.39 150.41 1022.61 149.873C1022.84 149.335 1022.96 148.696 1022.96 147.954V147.375C1022.96 146.799 1022.89 146.289 1022.76 145.844C1022.63 145.4 1022.44 145.026 1022.19 144.724C1021.94 144.421 1021.63 144.191 1021.27 144.035C1020.9 143.879 1020.49 143.801 1020.01 143.801H1017.62V142.336H1020.01C1020.72 142.336 1021.37 142.456 1021.95 142.695C1022.54 142.929 1023.04 143.269 1023.47 143.713C1023.9 144.157 1024.23 144.689 1024.46 145.31C1024.69 145.93 1024.8 146.623 1024.8 147.39V147.954C1024.8 148.72 1024.69 149.414 1024.46 150.034C1024.23 150.654 1023.9 151.186 1023.47 151.63C1023.04 152.07 1022.53 152.409 1021.93 152.648C1021.34 152.883 1020.68 153 1019.95 153ZM1018.69 142.336V153H1016.85V142.336H1018.69ZM1033.63 151.542V153H1027.97V151.542H1033.63ZM1028.49 142.336V153H1026.65V142.336H1028.49ZM1032.89 146.789V148.225H1027.97V146.789H1032.89ZM1033.59 142.336V143.801H1027.97V142.336H1033.59ZM1038.78 151.052L1041.59 142.336H1043.62L1039.8 153H1038.43L1038.78 151.052ZM1036.19 142.336L1038.98 151.052L1039.36 153H1037.98L1034.17 142.336H1036.19Z" fill="#1A1A1A"/>
<rect x="1076" y="128" width="132" height="40" rx="4" fill="#1A1A1A"/>
<path d="M1099.07 142.336H1100.9V149.462C1100.9 150.273 1100.72 150.952 1100.37 151.499C1100.02 152.045 1099.54 152.458 1098.94 152.736C1098.34 153.01 1097.66 153.146 1096.92 153.146C1096.16 153.146 1095.47 153.01 1094.87 152.736C1094.27 152.458 1093.8 152.045 1093.45 151.499C1093.11 150.952 1092.94 150.273 1092.94 149.462V142.336H1094.77V149.462C1094.77 149.975 1094.86 150.397 1095.03 150.729C1095.21 151.057 1095.46 151.298 1095.78 151.455C1096.1 151.611 1096.48 151.689 1096.92 151.689C1097.36 151.689 1097.74 151.611 1098.06 151.455C1098.38 151.298 1098.63 151.057 1098.8 150.729C1098.98 150.397 1099.07 149.975 1099.07 149.462V142.336ZM1104.5 146.599V156.047H1102.73V145.075H1104.36L1104.5 146.599ZM1109.66 148.964V149.118C1109.66 149.694 1109.59 150.229 1109.45 150.722C1109.32 151.21 1109.12 151.638 1108.86 152.004C1108.6 152.365 1108.28 152.646 1107.9 152.846C1107.52 153.046 1107.08 153.146 1106.58 153.146C1106.09 153.146 1105.66 153.056 1105.29 152.875C1104.92 152.69 1104.61 152.429 1104.36 152.092C1104.1 151.755 1103.9 151.359 1103.74 150.905C1103.59 150.446 1103.48 149.943 1103.42 149.396V148.803C1103.48 148.222 1103.59 147.695 1103.74 147.221C1103.9 146.748 1104.1 146.34 1104.36 145.998C1104.61 145.656 1104.92 145.393 1105.29 145.207C1105.65 145.021 1106.08 144.929 1106.57 144.929C1107.07 144.929 1107.51 145.026 1107.89 145.222C1108.28 145.412 1108.6 145.686 1108.87 146.042C1109.13 146.394 1109.33 146.818 1109.46 147.316C1109.59 147.81 1109.66 148.359 1109.66 148.964ZM1107.89 149.118V148.964C1107.89 148.598 1107.86 148.259 1107.79 147.946C1107.72 147.629 1107.62 147.351 1107.47 147.111C1107.32 146.872 1107.13 146.687 1106.9 146.555C1106.68 146.418 1106.41 146.35 1106.09 146.35C1105.78 146.35 1105.51 146.403 1105.29 146.511C1105.06 146.613 1104.87 146.757 1104.72 146.943C1104.57 147.128 1104.45 147.346 1104.37 147.595C1104.29 147.839 1104.23 148.105 1104.19 148.393V149.814C1104.25 150.166 1104.35 150.488 1104.5 150.781C1104.64 151.074 1104.84 151.308 1105.1 151.484C1105.36 151.655 1105.7 151.74 1106.11 151.74C1106.42 151.74 1106.69 151.672 1106.92 151.535C1107.14 151.398 1107.33 151.21 1107.47 150.971C1107.62 150.727 1107.72 150.446 1107.79 150.129C1107.86 149.812 1107.89 149.475 1107.89 149.118ZM1116.24 145.075H1117.84V152.78C1117.84 153.493 1117.69 154.099 1117.39 154.597C1117.08 155.095 1116.66 155.473 1116.12 155.732C1115.58 155.996 1114.95 156.127 1114.24 156.127C1113.93 156.127 1113.6 156.083 1113.23 155.996C1112.86 155.908 1112.5 155.766 1112.16 155.571C1111.81 155.38 1111.53 155.129 1111.3 154.816L1112.13 153.776C1112.41 154.113 1112.72 154.36 1113.06 154.516C1113.41 154.672 1113.77 154.75 1114.14 154.75C1114.55 154.75 1114.89 154.675 1115.17 154.523C1115.46 154.377 1115.68 154.16 1115.84 153.872C1116 153.583 1116.07 153.232 1116.07 152.817V146.87L1116.24 145.075ZM1110.85 149.125V148.972C1110.85 148.371 1110.93 147.824 1111.07 147.331C1111.22 146.833 1111.43 146.406 1111.7 146.049C1111.98 145.688 1112.31 145.412 1112.7 145.222C1113.09 145.026 1113.53 144.929 1114.02 144.929C1114.54 144.929 1114.97 145.021 1115.33 145.207C1115.7 145.393 1116.01 145.659 1116.25 146.005C1116.49 146.347 1116.69 146.757 1116.82 147.236C1116.96 147.709 1117.07 148.237 1117.14 148.818V149.309C1117.07 149.875 1116.97 150.393 1116.81 150.861C1116.66 151.33 1116.46 151.735 1116.21 152.077C1115.96 152.419 1115.66 152.683 1115.29 152.868C1114.93 153.054 1114.5 153.146 1114.01 153.146C1113.53 153.146 1113.09 153.046 1112.7 152.846C1112.31 152.646 1111.98 152.365 1111.7 152.004C1111.43 151.643 1111.22 151.218 1111.07 150.729C1110.93 150.236 1110.85 149.702 1110.85 149.125ZM1112.62 148.972V149.125C1112.62 149.487 1112.65 149.824 1112.72 150.136C1112.79 150.449 1112.9 150.725 1113.05 150.964C1113.2 151.198 1113.39 151.384 1113.62 151.521C1113.86 151.652 1114.13 151.718 1114.45 151.718C1114.86 151.718 1115.2 151.63 1115.47 151.455C1115.74 151.279 1115.94 151.042 1116.08 150.744C1116.23 150.441 1116.33 150.104 1116.39 149.733V148.408C1116.36 148.12 1116.3 147.851 1116.21 147.602C1116.12 147.353 1116 147.136 1115.85 146.95C1115.7 146.76 1115.51 146.613 1115.28 146.511C1115.05 146.403 1114.78 146.35 1114.46 146.35C1114.15 146.35 1113.87 146.418 1113.64 146.555C1113.4 146.691 1113.21 146.879 1113.06 147.119C1112.91 147.358 1112.8 147.636 1112.73 147.954C1112.65 148.271 1112.62 148.61 1112.62 148.972ZM1121.44 146.584V153H1119.68V145.075H1121.36L1121.44 146.584ZM1123.87 145.024L1123.85 146.665C1123.75 146.645 1123.63 146.63 1123.5 146.621C1123.38 146.611 1123.26 146.606 1123.14 146.606C1122.83 146.606 1122.57 146.65 1122.34 146.738C1122.11 146.821 1121.91 146.943 1121.76 147.104C1121.61 147.26 1121.49 147.451 1121.41 147.675C1121.32 147.9 1121.27 148.151 1121.26 148.43L1120.86 148.459C1120.86 147.961 1120.91 147.5 1121 147.075C1121.1 146.65 1121.25 146.276 1121.44 145.954C1121.64 145.632 1121.89 145.38 1122.19 145.2C1122.49 145.019 1122.84 144.929 1123.24 144.929C1123.35 144.929 1123.46 144.938 1123.58 144.958C1123.71 144.978 1123.8 145 1123.87 145.024ZM1129.18 151.411V147.631C1129.18 147.348 1129.13 147.104 1129.02 146.899C1128.92 146.694 1128.77 146.535 1128.56 146.423C1128.35 146.311 1128.09 146.254 1127.78 146.254C1127.49 146.254 1127.24 146.303 1127.03 146.401C1126.82 146.499 1126.66 146.63 1126.54 146.796C1126.42 146.962 1126.37 147.15 1126.37 147.36H1124.61C1124.61 147.048 1124.68 146.745 1124.83 146.452C1124.99 146.159 1125.21 145.898 1125.49 145.668C1125.78 145.439 1126.13 145.258 1126.53 145.126C1126.93 144.995 1127.38 144.929 1127.87 144.929C1128.47 144.929 1129 145.029 1129.46 145.229C1129.92 145.429 1130.28 145.732 1130.55 146.137C1130.82 146.538 1130.95 147.041 1130.95 147.646V151.169C1130.95 151.53 1130.97 151.855 1131.02 152.143C1131.08 152.426 1131.15 152.673 1131.25 152.883V153H1129.44C1129.36 152.81 1129.29 152.568 1129.24 152.275C1129.2 151.977 1129.18 151.689 1129.18 151.411ZM1129.43 148.181L1129.45 149.272H1128.18C1127.85 149.272 1127.57 149.304 1127.32 149.367C1127.07 149.426 1126.86 149.514 1126.69 149.631C1126.53 149.748 1126.4 149.89 1126.32 150.056C1126.24 150.222 1126.2 150.41 1126.2 150.62C1126.2 150.83 1126.25 151.022 1126.34 151.198C1126.44 151.369 1126.58 151.503 1126.77 151.601C1126.96 151.699 1127.19 151.748 1127.46 151.748C1127.82 151.748 1128.13 151.674 1128.4 151.528C1128.67 151.376 1128.89 151.193 1129.05 150.979C1129.2 150.759 1129.29 150.551 1129.29 150.356L1129.87 151.14C1129.81 151.34 1129.71 151.555 1129.57 151.784C1129.42 152.014 1129.24 152.233 1129.01 152.443C1128.78 152.648 1128.51 152.817 1128.2 152.949C1127.88 153.081 1127.52 153.146 1127.11 153.146C1126.59 153.146 1126.13 153.044 1125.73 152.839C1125.32 152.629 1125.01 152.348 1124.78 151.997C1124.55 151.64 1124.43 151.237 1124.43 150.788C1124.43 150.368 1124.51 149.997 1124.67 149.675C1124.83 149.348 1125.06 149.074 1125.37 148.854C1125.68 148.635 1126.06 148.469 1126.51 148.356C1126.96 148.239 1127.47 148.181 1128.05 148.181H1129.43ZM1137.63 151.359V141.75H1139.4V153H1137.8L1137.63 151.359ZM1132.47 149.125V148.972C1132.47 148.371 1132.54 147.824 1132.69 147.331C1132.83 146.833 1133.03 146.406 1133.3 146.049C1133.57 145.688 1133.9 145.412 1134.28 145.222C1134.67 145.026 1135.1 144.929 1135.59 144.929C1136.06 144.929 1136.48 145.021 1136.85 145.207C1137.21 145.393 1137.52 145.659 1137.77 146.005C1138.02 146.347 1138.23 146.757 1138.38 147.236C1138.53 147.709 1138.64 148.237 1138.7 148.818V149.309C1138.64 149.875 1138.53 150.393 1138.38 150.861C1138.23 151.33 1138.02 151.735 1137.77 152.077C1137.52 152.419 1137.21 152.683 1136.84 152.868C1136.48 153.054 1136.06 153.146 1135.57 153.146C1135.09 153.146 1134.66 153.046 1134.28 152.846C1133.89 152.646 1133.57 152.365 1133.3 152.004C1133.03 151.643 1132.83 151.218 1132.69 150.729C1132.54 150.236 1132.47 149.702 1132.47 149.125ZM1134.24 148.972V149.125C1134.24 149.487 1134.27 149.824 1134.33 150.136C1134.4 150.449 1134.51 150.725 1134.65 150.964C1134.79 151.198 1134.97 151.384 1135.2 151.521C1135.43 151.652 1135.7 151.718 1136.02 151.718C1136.42 151.718 1136.75 151.63 1137.01 151.455C1137.27 151.279 1137.47 151.042 1137.62 150.744C1137.77 150.441 1137.87 150.104 1137.92 149.733V148.408C1137.89 148.12 1137.83 147.851 1137.74 147.602C1137.65 147.353 1137.53 147.136 1137.38 146.95C1137.23 146.76 1137.04 146.613 1136.82 146.511C1136.6 146.403 1136.34 146.35 1136.03 146.35C1135.71 146.35 1135.44 146.418 1135.21 146.555C1134.99 146.691 1134.8 146.879 1134.66 147.119C1134.51 147.358 1134.41 147.636 1134.34 147.954C1134.27 148.271 1134.24 148.61 1134.24 148.972ZM1144.74 153.146C1144.16 153.146 1143.63 153.051 1143.15 152.861C1142.68 152.666 1142.28 152.395 1141.95 152.048C1141.62 151.701 1141.37 151.293 1141.2 150.825C1141.02 150.356 1140.93 149.851 1140.93 149.309V149.016C1140.93 148.396 1141.02 147.834 1141.2 147.331C1141.38 146.828 1141.64 146.398 1141.96 146.042C1142.28 145.681 1142.66 145.405 1143.1 145.214C1143.54 145.024 1144.02 144.929 1144.53 144.929C1145.1 144.929 1145.59 145.024 1146.02 145.214C1146.44 145.405 1146.79 145.673 1147.07 146.02C1147.35 146.362 1147.56 146.77 1147.7 147.243C1147.84 147.717 1147.91 148.239 1147.91 148.811V149.565H1141.79V148.298H1146.17V148.159C1146.16 147.841 1146.1 147.543 1145.98 147.265C1145.87 146.987 1145.69 146.762 1145.46 146.591C1145.23 146.42 1144.91 146.335 1144.52 146.335C1144.23 146.335 1143.97 146.398 1143.74 146.525C1143.51 146.647 1143.33 146.826 1143.17 147.06C1143.02 147.294 1142.91 147.578 1142.82 147.91C1142.74 148.237 1142.71 148.605 1142.71 149.016V149.309C1142.71 149.655 1142.75 149.978 1142.84 150.275C1142.94 150.568 1143.08 150.825 1143.27 151.044C1143.46 151.264 1143.68 151.438 1143.94 151.564C1144.21 151.687 1144.51 151.748 1144.84 151.748C1145.27 151.748 1145.65 151.662 1145.98 151.491C1146.31 151.32 1146.6 151.079 1146.84 150.766L1147.77 151.667C1147.6 151.916 1147.38 152.155 1147.11 152.385C1146.83 152.609 1146.5 152.792 1146.1 152.934C1145.71 153.076 1145.26 153.146 1144.74 153.146ZM1156.66 145.075V146.364H1152.19V145.075H1156.66ZM1153.48 143.134H1155.24V150.81C1155.24 151.054 1155.28 151.242 1155.35 151.374C1155.42 151.501 1155.52 151.586 1155.65 151.63C1155.77 151.674 1155.92 151.696 1156.09 151.696C1156.22 151.696 1156.33 151.689 1156.45 151.674C1156.56 151.66 1156.65 151.645 1156.72 151.63L1156.72 152.978C1156.58 153.022 1156.41 153.061 1156.21 153.095C1156.02 153.129 1155.8 153.146 1155.55 153.146C1155.15 153.146 1154.79 153.076 1154.48 152.934C1154.16 152.788 1153.92 152.551 1153.74 152.224C1153.57 151.896 1153.48 151.462 1153.48 150.92V143.134ZM1157.51 149.125V148.957C1157.51 148.386 1157.59 147.856 1157.76 147.368C1157.92 146.875 1158.16 146.447 1158.47 146.086C1158.79 145.72 1159.18 145.437 1159.63 145.236C1160.09 145.031 1160.61 144.929 1161.18 144.929C1161.77 144.929 1162.28 145.031 1162.74 145.236C1163.2 145.437 1163.58 145.72 1163.9 146.086C1164.22 146.447 1164.46 146.875 1164.63 147.368C1164.79 147.856 1164.88 148.386 1164.88 148.957V149.125C1164.88 149.697 1164.79 150.227 1164.63 150.715C1164.46 151.203 1164.22 151.63 1163.9 151.997C1163.58 152.358 1163.2 152.641 1162.74 152.846C1162.29 153.046 1161.78 153.146 1161.2 153.146C1160.62 153.146 1160.1 153.046 1159.64 152.846C1159.19 152.641 1158.8 152.358 1158.48 151.997C1158.16 151.63 1157.92 151.203 1157.76 150.715C1157.59 150.227 1157.51 149.697 1157.51 149.125ZM1159.27 148.957V149.125C1159.27 149.482 1159.31 149.819 1159.38 150.136C1159.46 150.454 1159.57 150.732 1159.73 150.971C1159.88 151.21 1160.08 151.398 1160.33 151.535C1160.57 151.672 1160.86 151.74 1161.2 151.74C1161.53 151.74 1161.81 151.672 1162.05 151.535C1162.29 151.398 1162.49 151.21 1162.65 150.971C1162.81 150.732 1162.92 150.454 1162.99 150.136C1163.07 149.819 1163.11 149.482 1163.11 149.125V148.957C1163.11 148.605 1163.07 148.273 1162.99 147.961C1162.92 147.644 1162.8 147.363 1162.64 147.119C1162.49 146.875 1162.29 146.684 1162.04 146.547C1161.8 146.406 1161.52 146.335 1161.18 146.335C1160.85 146.335 1160.56 146.406 1160.32 146.547C1160.08 146.684 1159.88 146.875 1159.73 147.119C1159.57 147.363 1159.46 147.644 1159.38 147.961C1159.31 148.273 1159.27 148.605 1159.27 148.957ZM1171.86 146.599V156.047H1170.1V145.075H1171.72L1171.86 146.599ZM1177.03 148.964V149.118C1177.03 149.694 1176.96 150.229 1176.82 150.722C1176.69 151.21 1176.49 151.638 1176.23 152.004C1175.97 152.365 1175.65 152.646 1175.27 152.846C1174.89 153.046 1174.45 153.146 1173.95 153.146C1173.46 153.146 1173.03 153.056 1172.65 152.875C1172.29 152.69 1171.98 152.429 1171.72 152.092C1171.47 151.755 1171.27 151.359 1171.11 150.905C1170.96 150.446 1170.85 149.943 1170.79 149.396V148.803C1170.85 148.222 1170.96 147.695 1171.11 147.221C1171.27 146.748 1171.47 146.34 1171.72 145.998C1171.98 145.656 1172.29 145.393 1172.65 145.207C1173.02 145.021 1173.45 144.929 1173.94 144.929C1174.43 144.929 1174.88 145.026 1175.26 145.222C1175.65 145.412 1175.97 145.686 1176.24 146.042C1176.5 146.394 1176.7 146.818 1176.83 147.316C1176.96 147.81 1177.03 148.359 1177.03 148.964ZM1175.26 149.118V148.964C1175.26 148.598 1175.23 148.259 1175.16 147.946C1175.09 147.629 1174.98 147.351 1174.84 147.111C1174.69 146.872 1174.5 146.687 1174.27 146.555C1174.05 146.418 1173.78 146.35 1173.46 146.35C1173.15 146.35 1172.88 146.403 1172.65 146.511C1172.43 146.613 1172.24 146.757 1172.09 146.943C1171.94 147.128 1171.82 147.346 1171.74 147.595C1171.66 147.839 1171.6 148.105 1171.56 148.393V149.814C1171.62 150.166 1171.72 150.488 1171.86 150.781C1172 151.074 1172.21 151.308 1172.46 151.484C1172.73 151.655 1173.06 151.74 1173.47 151.74C1173.79 151.74 1174.06 151.672 1174.29 151.535C1174.51 151.398 1174.7 151.21 1174.84 150.971C1174.98 150.727 1175.09 150.446 1175.16 150.129C1175.23 149.812 1175.26 149.475 1175.26 149.118ZM1180.3 146.584V153H1178.54V145.075H1180.22L1180.3 146.584ZM1182.73 145.024L1182.71 146.665C1182.6 146.645 1182.49 146.63 1182.36 146.621C1182.24 146.611 1182.11 146.606 1181.99 146.606C1181.69 146.606 1181.42 146.65 1181.19 146.738C1180.96 146.821 1180.77 146.943 1180.62 147.104C1180.46 147.26 1180.35 147.451 1180.26 147.675C1180.18 147.9 1180.13 148.151 1180.12 148.43L1179.71 148.459C1179.71 147.961 1179.76 147.5 1179.86 147.075C1179.96 146.65 1180.11 146.276 1180.3 145.954C1180.5 145.632 1180.75 145.38 1181.05 145.2C1181.35 145.019 1181.7 144.929 1182.1 144.929C1182.2 144.929 1182.32 144.938 1182.44 144.958C1182.57 144.978 1182.66 145 1182.73 145.024ZM1183.3 149.125V148.957C1183.3 148.386 1183.39 147.856 1183.55 147.368C1183.72 146.875 1183.96 146.447 1184.27 146.086C1184.59 145.72 1184.97 145.437 1185.43 145.236C1185.89 145.031 1186.4 144.929 1186.98 144.929C1187.56 144.929 1188.08 145.031 1188.53 145.236C1188.99 145.437 1189.38 145.72 1189.7 146.086C1190.02 146.447 1190.26 146.875 1190.42 147.368C1190.59 147.856 1190.67 148.386 1190.67 148.957V149.125C1190.67 149.697 1190.59 150.227 1190.42 150.715C1190.26 151.203 1190.02 151.63 1189.7 151.997C1189.38 152.358 1188.99 152.641 1188.54 152.846C1188.09 153.046 1187.57 153.146 1187 153.146C1186.41 153.146 1185.89 153.046 1185.44 152.846C1184.98 152.641 1184.6 152.358 1184.28 151.997C1183.96 151.63 1183.72 151.203 1183.55 150.715C1183.39 150.227 1183.3 149.697 1183.3 149.125ZM1185.07 148.957V149.125C1185.07 149.482 1185.11 149.819 1185.18 150.136C1185.25 150.454 1185.37 150.732 1185.52 150.971C1185.68 151.21 1185.88 151.398 1186.12 151.535C1186.37 151.672 1186.66 151.74 1187 151.74C1187.32 151.74 1187.61 151.672 1187.84 151.535C1188.09 151.398 1188.29 151.21 1188.45 150.971C1188.6 150.732 1188.72 150.454 1188.79 150.136C1188.87 149.819 1188.91 149.482 1188.91 149.125V148.957C1188.91 148.605 1188.87 148.273 1188.79 147.961C1188.72 147.644 1188.6 147.363 1188.44 147.119C1188.28 146.875 1188.08 146.684 1187.84 146.547C1187.6 146.406 1187.31 146.335 1186.98 146.335C1186.65 146.335 1186.36 146.406 1186.12 146.547C1185.88 146.684 1185.68 146.875 1185.52 147.119C1185.37 147.363 1185.25 147.644 1185.18 147.961C1185.11 148.273 1185.07 148.605 1185.07 148.957Z" fill="white"/>
<rect width="1200" height="64" transform="translate(40 220)" fill="white"/>
<rect x="72" y="232" width="40" height="40" rx="14" fill="#2DC4E0"/>
<path d="M91.9999 243.667C93.6481 243.667 95.2593 244.155 96.6297 245.071C98.0001 245.987 99.0682 247.288 99.6989 248.811C100.33 250.334 100.495 252.009 100.173 253.626C99.8516 255.242 99.0579 256.727 97.8925 257.892C96.7271 259.058 95.2422 259.852 93.6257 260.173C92.0092 260.495 90.3336 260.33 88.8109 259.699C87.2882 259.068 85.9867 258 85.071 256.63C84.1553 255.259 83.6666 253.648 83.6666 252C83.6666 249.79 84.5446 247.67 86.1074 246.107C87.6702 244.545 89.7898 243.667 91.9999 243.667ZM91.9999 241.583C89.9397 241.583 87.9258 242.194 86.2127 243.339C84.4997 244.483 83.1646 246.11 82.3762 248.014C81.5878 249.917 81.3815 252.012 81.7834 254.032C82.1853 256.053 83.1774 257.909 84.6342 259.366C86.091 260.822 87.9471 261.815 89.9677 262.216C91.9884 262.618 94.0828 262.412 95.9862 261.624C97.8896 260.835 99.5165 259.5 100.661 257.787C101.806 256.074 102.417 254.06 102.417 252C102.417 249.237 101.319 246.588 99.3656 244.634C97.4121 242.681 94.7626 241.583 91.9999 241.583Z" fill="white" fill-opacity="0.25"/>
<path d="M92 248.875C93.1331 248.875 94.2408 249.211 95.183 249.841C96.1251 250.47 96.8594 251.365 97.2931 252.412C97.7267 253.459 97.8402 254.611 97.6191 255.722C97.398 256.833 96.8524 257.854 96.0511 258.655C95.2499 259.457 94.2291 260.002 93.1177 260.223C92.0064 260.444 90.8544 260.331 89.8075 259.897C88.7607 259.464 87.8659 258.729 87.2364 257.787C86.6068 256.845 86.2708 255.737 86.2708 254.604C86.2736 253.086 86.8781 251.63 87.9519 250.556C89.0257 249.482 90.4814 248.878 92 248.875ZM92 246.792C90.4548 246.792 88.9444 247.25 87.6596 248.108C86.3749 248.967 85.3735 250.187 84.7822 251.615C84.1909 253.042 84.0362 254.613 84.3376 256.128C84.6391 257.644 85.3831 259.036 86.4757 260.129C87.5683 261.221 88.9604 261.965 90.4758 262.267C91.9913 262.568 93.5622 262.413 94.9897 261.822C96.4173 261.231 97.6374 260.229 98.4959 258.945C99.3543 257.66 99.8125 256.149 99.8125 254.604C99.8125 252.532 98.9894 250.545 97.5243 249.08C96.0591 247.615 94.072 246.792 92 246.792Z" fill="#99E1EE"/>
<path d="M92.0001 254.083C92.6182 254.083 93.2224 254.267 93.7363 254.61C94.2502 254.953 94.6507 255.441 94.8872 256.012C95.1237 256.584 95.1856 257.212 95.065 257.818C94.9445 258.424 94.6468 258.981 94.2098 259.418C93.7727 259.855 93.2159 260.153 92.6097 260.273C92.0036 260.394 91.3752 260.332 90.8042 260.095C90.2332 259.859 89.7451 259.458 89.4017 258.945C89.0584 258.431 88.8751 257.826 88.8751 257.208C88.8751 256.38 89.2043 255.585 89.7904 254.999C90.3764 254.413 91.1713 254.083 92.0001 254.083ZM92.0001 252C90.97 252 89.963 252.305 89.1065 252.878C88.25 253.45 87.5824 254.264 87.1882 255.215C86.794 256.167 86.6909 257.214 86.8918 258.224C87.0928 259.235 87.5888 260.163 88.3172 260.891C89.0456 261.62 89.9737 262.116 90.984 262.317C91.9943 262.518 93.0415 262.414 93.9932 262.02C94.9449 261.626 95.7584 260.958 96.3307 260.102C96.903 259.245 97.2084 258.238 97.2084 257.208C97.2084 255.827 96.6597 254.502 95.6829 253.525C94.7062 252.549 93.3814 252 92.0001 252Z" fill="white"/>
<path d="M127.445 244.07C127.445 243.836 127.409 243.628 127.336 243.445C127.268 243.263 127.146 243.096 126.969 242.945C126.792 242.794 126.542 242.648 126.219 242.508C125.901 242.362 125.495 242.214 125 242.062C124.458 241.896 123.958 241.711 123.5 241.508C123.047 241.299 122.651 241.06 122.312 240.789C121.974 240.513 121.711 240.198 121.523 239.844C121.336 239.484 121.242 239.07 121.242 238.602C121.242 238.138 121.339 237.716 121.531 237.336C121.729 236.956 122.008 236.628 122.367 236.352C122.732 236.07 123.161 235.854 123.656 235.703C124.151 235.547 124.698 235.469 125.297 235.469C126.141 235.469 126.867 235.625 127.477 235.938C128.091 236.25 128.562 236.669 128.891 237.195C129.224 237.721 129.391 238.302 129.391 238.938H127.445C127.445 238.562 127.365 238.232 127.203 237.945C127.047 237.654 126.807 237.424 126.484 237.258C126.167 237.091 125.763 237.008 125.273 237.008C124.81 237.008 124.424 237.078 124.117 237.219C123.81 237.359 123.581 237.549 123.43 237.789C123.279 238.029 123.203 238.299 123.203 238.602C123.203 238.815 123.253 239.01 123.352 239.188C123.451 239.359 123.602 239.521 123.805 239.672C124.008 239.818 124.263 239.956 124.57 240.086C124.878 240.216 125.24 240.341 125.656 240.461C126.286 240.648 126.836 240.857 127.305 241.086C127.773 241.31 128.164 241.565 128.477 241.852C128.789 242.138 129.023 242.464 129.18 242.828C129.336 243.188 129.414 243.596 129.414 244.055C129.414 244.534 129.318 244.966 129.125 245.352C128.932 245.732 128.656 246.057 128.297 246.328C127.943 246.594 127.516 246.799 127.016 246.945C126.521 247.086 125.969 247.156 125.359 247.156C124.812 247.156 124.273 247.083 123.742 246.938C123.216 246.792 122.737 246.57 122.305 246.273C121.872 245.971 121.529 245.596 121.273 245.148C121.018 244.695 120.891 244.167 120.891 243.562H122.852C122.852 243.932 122.914 244.247 123.039 244.508C123.169 244.768 123.349 244.982 123.578 245.148C123.807 245.31 124.073 245.43 124.375 245.508C124.682 245.586 125.01 245.625 125.359 245.625C125.818 245.625 126.201 245.56 126.508 245.43C126.82 245.299 127.055 245.117 127.211 244.883C127.367 244.648 127.445 244.378 127.445 244.07ZM132.844 240.266V247H130.961V238.547H132.734L132.844 240.266ZM132.539 242.461L131.898 242.453C131.898 241.87 131.971 241.331 132.117 240.836C132.263 240.341 132.477 239.911 132.758 239.547C133.039 239.177 133.388 238.893 133.805 238.695C134.227 238.492 134.714 238.391 135.266 238.391C135.651 238.391 136.003 238.448 136.32 238.562C136.643 238.672 136.922 238.846 137.156 239.086C137.396 239.326 137.578 239.633 137.703 240.008C137.833 240.383 137.898 240.836 137.898 241.367V247H136.016V241.531C136.016 241.12 135.953 240.797 135.828 240.562C135.708 240.328 135.534 240.161 135.305 240.062C135.081 239.958 134.812 239.906 134.5 239.906C134.146 239.906 133.844 239.974 133.594 240.109C133.349 240.245 133.148 240.43 132.992 240.664C132.836 240.898 132.721 241.169 132.648 241.477C132.576 241.784 132.539 242.112 132.539 242.461ZM137.781 241.961L136.898 242.156C136.898 241.646 136.969 241.164 137.109 240.711C137.255 240.253 137.466 239.852 137.742 239.508C138.023 239.159 138.37 238.885 138.781 238.688C139.193 238.49 139.664 238.391 140.195 238.391C140.628 238.391 141.013 238.451 141.352 238.57C141.695 238.685 141.987 238.867 142.227 239.117C142.466 239.367 142.648 239.693 142.773 240.094C142.898 240.49 142.961 240.969 142.961 241.531V247H141.07V241.523C141.07 241.096 141.008 240.766 140.883 240.531C140.763 240.297 140.591 240.135 140.367 240.047C140.143 239.953 139.875 239.906 139.562 239.906C139.271 239.906 139.013 239.961 138.789 240.07C138.57 240.174 138.385 240.323 138.234 240.516C138.083 240.703 137.969 240.919 137.891 241.164C137.818 241.409 137.781 241.674 137.781 241.961ZM149.984 245.008V238.547H151.875V247H150.094L149.984 245.008ZM150.25 243.25L150.883 243.234C150.883 243.802 150.82 244.326 150.695 244.805C150.57 245.279 150.378 245.693 150.117 246.047C149.857 246.396 149.523 246.669 149.117 246.867C148.711 247.06 148.224 247.156 147.656 247.156C147.245 247.156 146.867 247.096 146.523 246.977C146.18 246.857 145.883 246.672 145.633 246.422C145.388 246.172 145.198 245.846 145.062 245.445C144.927 245.044 144.859 244.565 144.859 244.008V238.547H146.742V244.023C146.742 244.331 146.779 244.589 146.852 244.797C146.924 245 147.023 245.164 147.148 245.289C147.273 245.414 147.419 245.503 147.586 245.555C147.753 245.607 147.93 245.633 148.117 245.633C148.654 245.633 149.076 245.529 149.383 245.32C149.695 245.107 149.917 244.82 150.047 244.461C150.182 244.102 150.25 243.698 150.25 243.25ZM158.547 244.711C158.547 244.523 158.5 244.354 158.406 244.203C158.312 244.047 158.133 243.906 157.867 243.781C157.607 243.656 157.221 243.542 156.711 243.438C156.263 243.339 155.852 243.221 155.477 243.086C155.107 242.945 154.789 242.776 154.523 242.578C154.258 242.38 154.052 242.146 153.906 241.875C153.76 241.604 153.688 241.292 153.688 240.938C153.688 240.594 153.763 240.268 153.914 239.961C154.065 239.654 154.281 239.383 154.562 239.148C154.844 238.914 155.185 238.729 155.586 238.594C155.992 238.458 156.445 238.391 156.945 238.391C157.654 238.391 158.26 238.51 158.766 238.75C159.276 238.984 159.667 239.305 159.938 239.711C160.208 240.112 160.344 240.565 160.344 241.07H158.461C158.461 240.846 158.404 240.638 158.289 240.445C158.18 240.247 158.013 240.089 157.789 239.969C157.565 239.844 157.284 239.781 156.945 239.781C156.622 239.781 156.354 239.833 156.141 239.938C155.932 240.036 155.776 240.167 155.672 240.328C155.573 240.49 155.523 240.667 155.523 240.859C155.523 241 155.549 241.128 155.602 241.242C155.659 241.352 155.753 241.453 155.883 241.547C156.013 241.635 156.19 241.719 156.414 241.797C156.643 241.875 156.93 241.951 157.273 242.023C157.919 242.159 158.474 242.333 158.938 242.547C159.406 242.755 159.766 243.026 160.016 243.359C160.266 243.688 160.391 244.104 160.391 244.609C160.391 244.984 160.31 245.328 160.148 245.641C159.992 245.948 159.763 246.216 159.461 246.445C159.159 246.669 158.797 246.844 158.375 246.969C157.958 247.094 157.49 247.156 156.969 247.156C156.203 247.156 155.555 247.021 155.023 246.75C154.492 246.474 154.089 246.122 153.812 245.695C153.542 245.263 153.406 244.815 153.406 244.352H155.227C155.247 244.701 155.344 244.979 155.516 245.188C155.693 245.391 155.911 245.539 156.172 245.633C156.438 245.721 156.711 245.766 156.992 245.766C157.331 245.766 157.615 245.721 157.844 245.633C158.073 245.539 158.247 245.414 158.367 245.258C158.487 245.096 158.547 244.914 158.547 244.711ZM163.898 235V247H162.023V235H163.898ZM163.57 242.461L162.961 242.453C162.966 241.87 163.047 241.331 163.203 240.836C163.365 240.341 163.589 239.911 163.875 239.547C164.167 239.177 164.516 238.893 164.922 238.695C165.328 238.492 165.779 238.391 166.273 238.391C166.69 238.391 167.065 238.448 167.398 238.562C167.737 238.677 168.029 238.862 168.273 239.117C168.518 239.367 168.703 239.695 168.828 240.102C168.958 240.503 169.023 240.992 169.023 241.57V247H167.133V241.555C167.133 241.148 167.073 240.826 166.953 240.586C166.839 240.346 166.669 240.174 166.445 240.07C166.221 239.961 165.948 239.906 165.625 239.906C165.286 239.906 164.987 239.974 164.727 240.109C164.471 240.245 164.258 240.43 164.086 240.664C163.914 240.898 163.784 241.169 163.695 241.477C163.612 241.784 163.57 242.112 163.57 242.461ZM179.422 242.758H176.461V241.203H179.422C179.938 241.203 180.354 241.12 180.672 240.953C180.99 240.786 181.221 240.557 181.367 240.266C181.518 239.969 181.594 239.63 181.594 239.25C181.594 238.891 181.518 238.555 181.367 238.242C181.221 237.924 180.99 237.669 180.672 237.477C180.354 237.284 179.938 237.188 179.422 237.188H177.062V247H175.102V235.625H179.422C180.302 235.625 181.049 235.781 181.664 236.094C182.284 236.401 182.755 236.828 183.078 237.375C183.401 237.917 183.562 238.536 183.562 239.234C183.562 239.969 183.401 240.599 183.078 241.125C182.755 241.651 182.284 242.055 181.664 242.336C181.049 242.617 180.302 242.758 179.422 242.758ZM187.023 240.156V247H185.141V238.547H186.938L187.023 240.156ZM189.609 238.492L189.594 240.242C189.479 240.221 189.354 240.206 189.219 240.195C189.089 240.185 188.958 240.18 188.828 240.18C188.505 240.18 188.221 240.227 187.977 240.32C187.732 240.409 187.526 240.539 187.359 240.711C187.198 240.878 187.073 241.081 186.984 241.32C186.896 241.56 186.844 241.828 186.828 242.125L186.398 242.156C186.398 241.625 186.451 241.133 186.555 240.68C186.659 240.227 186.815 239.828 187.023 239.484C187.237 239.141 187.503 238.872 187.82 238.68C188.143 238.487 188.516 238.391 188.938 238.391C189.052 238.391 189.174 238.401 189.305 238.422C189.44 238.443 189.542 238.466 189.609 238.492ZM190.227 242.867V242.688C190.227 242.078 190.315 241.513 190.492 240.992C190.669 240.466 190.924 240.01 191.258 239.625C191.596 239.234 192.008 238.932 192.492 238.719C192.982 238.5 193.534 238.391 194.148 238.391C194.768 238.391 195.32 238.5 195.805 238.719C196.294 238.932 196.708 239.234 197.047 239.625C197.385 240.01 197.643 240.466 197.82 240.992C197.997 241.513 198.086 242.078 198.086 242.688V242.867C198.086 243.477 197.997 244.042 197.82 244.562C197.643 245.083 197.385 245.539 197.047 245.93C196.708 246.315 196.297 246.617 195.812 246.836C195.328 247.049 194.779 247.156 194.164 247.156C193.544 247.156 192.99 247.049 192.5 246.836C192.016 246.617 191.604 246.315 191.266 245.93C190.927 245.539 190.669 245.083 190.492 244.562C190.315 244.042 190.227 243.477 190.227 242.867ZM192.109 242.688V242.867C192.109 243.247 192.148 243.607 192.227 243.945C192.305 244.284 192.427 244.581 192.594 244.836C192.76 245.091 192.974 245.292 193.234 245.438C193.495 245.583 193.805 245.656 194.164 245.656C194.513 245.656 194.815 245.583 195.07 245.438C195.331 245.292 195.544 245.091 195.711 244.836C195.878 244.581 196 244.284 196.078 243.945C196.161 243.607 196.203 243.247 196.203 242.867V242.688C196.203 242.312 196.161 241.958 196.078 241.625C196 241.286 195.875 240.987 195.703 240.727C195.536 240.466 195.323 240.263 195.062 240.117C194.807 239.966 194.503 239.891 194.148 239.891C193.794 239.891 193.487 239.966 193.227 240.117C192.971 240.263 192.76 240.466 192.594 240.727C192.427 240.987 192.305 241.286 192.227 241.625C192.148 241.958 192.109 242.312 192.109 242.688Z" fill="#1A1A1A"/>
<path d="M122.833 256.758V266H121.24V256.758H122.833ZM126.461 256.758H127.883L130.555 263.886L133.221 256.758H134.643L131.114 266H129.984L126.461 256.758ZM125.813 256.758H127.166L127.4 262.928V266H125.813V256.758ZM133.938 256.758H135.297V266H133.704V262.928L133.938 256.758ZM141.902 257.989L139.141 266H137.471L140.95 256.758H142.016L141.902 257.989ZM144.212 266L141.445 257.989L141.324 256.758H142.397L145.888 266H144.212ZM144.079 262.572V263.835H139.052V262.572H144.079ZM154.918 261.277V264.807C154.787 264.98 154.582 265.171 154.302 265.378C154.027 265.581 153.661 265.757 153.204 265.905C152.747 266.053 152.178 266.127 151.497 266.127C150.917 266.127 150.386 266.03 149.903 265.835C149.421 265.636 149.004 265.346 148.653 264.965C148.306 264.584 148.037 264.121 147.847 263.575C147.656 263.025 147.561 262.399 147.561 261.696V261.055C147.561 260.357 147.648 259.735 147.821 259.189C147.999 258.639 148.253 258.173 148.583 257.792C148.913 257.412 149.311 257.124 149.776 256.929C150.246 256.73 150.777 256.631 151.37 256.631C152.127 256.631 152.753 256.758 153.249 257.012C153.748 257.261 154.133 257.608 154.404 258.053C154.675 258.497 154.846 259.005 154.918 259.576H153.356C153.306 259.255 153.206 258.967 153.058 258.713C152.914 258.459 152.707 258.26 152.436 258.116C152.169 257.968 151.822 257.894 151.395 257.894C151.027 257.894 150.703 257.964 150.424 258.104C150.145 258.243 149.912 258.448 149.726 258.719C149.544 258.99 149.406 259.32 149.313 259.709C149.22 260.099 149.173 260.543 149.173 261.042V261.696C149.173 262.204 149.226 262.655 149.332 263.048C149.442 263.442 149.599 263.774 149.802 264.045C150.009 264.316 150.261 264.521 150.557 264.661C150.853 264.796 151.188 264.864 151.56 264.864C151.924 264.864 152.222 264.834 152.455 264.775C152.688 264.711 152.872 264.637 153.007 264.553C153.147 264.464 153.255 264.379 153.331 264.299V262.464H151.408V261.277H154.918ZM163.732 264.737V266H158.825V264.737H163.732ZM159.276 256.758V266H157.683V256.758H159.276ZM163.091 260.617V261.861H158.825V260.617H163.091ZM163.7 256.758V258.027H158.825V256.758H163.7ZM177.64 261.125V261.633C177.64 262.331 177.549 262.957 177.367 263.512C177.185 264.066 176.925 264.538 176.586 264.927C176.252 265.317 175.85 265.615 175.38 265.822C174.911 266.025 174.39 266.127 173.819 266.127C173.252 266.127 172.733 266.025 172.264 265.822C171.798 265.615 171.394 265.317 171.051 264.927C170.708 264.538 170.442 264.066 170.251 263.512C170.065 262.957 169.972 262.331 169.972 261.633V261.125C169.972 260.427 170.065 259.803 170.251 259.252C170.438 258.698 170.7 258.226 171.039 257.837C171.381 257.443 171.785 257.145 172.251 256.942C172.721 256.735 173.239 256.631 173.806 256.631C174.377 256.631 174.898 256.735 175.368 256.942C175.837 257.145 176.242 257.443 176.58 257.837C176.919 258.226 177.179 258.698 177.361 259.252C177.547 259.803 177.64 260.427 177.64 261.125ZM176.047 261.633V261.112C176.047 260.596 175.996 260.141 175.895 259.748C175.797 259.35 175.651 259.018 175.457 258.751C175.266 258.48 175.031 258.277 174.752 258.142C174.473 258.002 174.157 257.932 173.806 257.932C173.455 257.932 173.142 258.002 172.867 258.142C172.592 258.277 172.357 258.48 172.162 258.751C171.972 259.018 171.826 259.35 171.724 259.748C171.623 260.141 171.572 260.596 171.572 261.112V261.633C171.572 262.149 171.623 262.606 171.724 263.004C171.826 263.402 171.974 263.738 172.168 264.013C172.367 264.284 172.604 264.489 172.879 264.629C173.154 264.764 173.468 264.832 173.819 264.832C174.174 264.832 174.49 264.764 174.765 264.629C175.04 264.489 175.272 264.284 175.463 264.013C175.653 263.738 175.797 263.402 175.895 263.004C175.996 262.606 176.047 262.149 176.047 261.633ZM183.744 262.553H181.338V261.29H183.744C184.163 261.29 184.501 261.222 184.759 261.087C185.017 260.951 185.206 260.765 185.324 260.528C185.447 260.287 185.508 260.012 185.508 259.703C185.508 259.411 185.447 259.138 185.324 258.884C185.206 258.626 185.017 258.419 184.759 258.262C184.501 258.106 184.163 258.027 183.744 258.027H181.827V266H180.233V256.758H183.744C184.459 256.758 185.066 256.885 185.565 257.139C186.069 257.388 186.452 257.735 186.714 258.18C186.977 258.62 187.108 259.123 187.108 259.69C187.108 260.287 186.977 260.799 186.714 261.227C186.452 261.654 186.069 261.982 185.565 262.21C185.066 262.439 184.459 262.553 183.744 262.553ZM193.338 256.758V266H191.758V256.758H193.338ZM196.239 256.758V258.027H188.882V256.758H196.239ZM200.159 256.758V266H198.566V256.758H200.159ZM203.787 256.758H205.209L207.881 263.886L210.547 256.758H211.969L208.44 266H207.31L203.787 256.758ZM203.14 256.758H204.492L204.727 262.928V266H203.14V256.758ZM211.265 256.758H212.623V266H211.03V262.928L211.265 256.758ZM217.216 256.758V266H215.623V256.758H217.216ZM226.658 264.737V266H220.241V264.737H226.658ZM226.512 257.742L220.831 266H219.765V264.991L225.465 256.758H226.512V257.742ZM225.922 256.758V258.027H219.803V256.758H225.922ZM232.73 257.989L229.969 266H228.299L231.778 256.758H232.844L232.73 257.989ZM235.041 266L232.273 257.989L232.152 256.758H233.225L236.716 266H235.041ZM234.907 262.572V263.835H229.88V262.572H234.907ZM241.753 256.758V266H240.173V256.758H241.753ZM244.654 256.758V258.027H237.297V256.758H244.654ZM248.574 256.758V266H246.981V256.758H248.574ZM258.924 261.125V261.633C258.924 262.331 258.833 262.957 258.651 263.512C258.469 264.066 258.209 264.538 257.871 264.927C257.536 265.317 257.134 265.615 256.665 265.822C256.195 266.025 255.674 266.127 255.103 266.127C254.536 266.127 254.018 266.025 253.548 265.822C253.082 265.615 252.678 265.317 252.335 264.927C251.993 264.538 251.726 264.066 251.536 263.512C251.349 262.957 251.256 262.331 251.256 261.633V261.125C251.256 260.427 251.349 259.803 251.536 259.252C251.722 258.698 251.984 258.226 252.323 257.837C252.666 257.443 253.07 257.145 253.535 256.942C254.005 256.735 254.523 256.631 255.09 256.631C255.662 256.631 256.182 256.735 256.652 256.942C257.122 257.145 257.526 257.443 257.864 257.837C258.203 258.226 258.463 258.698 258.645 259.252C258.831 259.803 258.924 260.427 258.924 261.125ZM257.331 261.633V261.112C257.331 260.596 257.28 260.141 257.179 259.748C257.081 259.35 256.935 259.018 256.741 258.751C256.55 258.48 256.315 258.277 256.036 258.142C255.757 258.002 255.442 257.932 255.09 257.932C254.739 257.932 254.426 258.002 254.151 258.142C253.876 258.277 253.641 258.48 253.446 258.751C253.256 259.018 253.11 259.35 253.008 259.748C252.907 260.141 252.856 260.596 252.856 261.112V261.633C252.856 262.149 252.907 262.606 253.008 263.004C253.11 263.402 253.258 263.738 253.453 264.013C253.652 264.284 253.889 264.489 254.164 264.629C254.439 264.764 254.752 264.832 255.103 264.832C255.458 264.832 255.774 264.764 256.049 264.629C256.324 264.489 256.557 264.284 256.747 264.013C256.938 263.738 257.081 263.402 257.179 263.004C257.28 262.606 257.331 262.149 257.331 261.633ZM268.849 256.758V266H267.256L263.111 259.379V266H261.518V256.758H263.111L267.269 263.391V256.758H268.849Z" fill="#4C4C4C"/>
<path d="M1140 245C1141.31 245.018 1142.49 245.337 1143.53 245.957C1144.58 246.577 1145.42 247.415 1146.04 248.473C1146.66 249.512 1146.98 250.688 1147 252C1146.98 253.312 1146.66 254.488 1146.04 255.527C1145.42 256.585 1144.58 257.423 1143.53 258.043C1142.49 258.663 1141.31 258.982 1140 259C1138.69 258.982 1137.51 258.663 1136.47 258.043C1135.42 257.423 1134.58 256.585 1133.96 255.527C1133.34 254.488 1133.02 253.312 1133 252C1133.02 250.688 1133.34 249.512 1133.96 248.473C1134.58 247.415 1135.42 246.577 1136.47 245.957C1137.51 245.337 1138.69 245.018 1140 245ZM1140 257.688C1141.6 257.651 1142.94 257.095 1144.02 256.02C1145.1 254.944 1145.65 253.604 1145.69 252C1145.65 250.396 1145.1 249.056 1144.02 247.98C1142.94 246.905 1141.6 246.349 1140 246.312C1138.4 246.349 1137.06 246.905 1135.98 247.98C1134.9 249.056 1134.35 250.396 1134.31 252C1134.35 253.604 1134.9 254.944 1135.98 256.02C1137.06 257.095 1138.4 257.651 1140 257.688ZM1140 254.188C1140.24 254.188 1140.44 254.27 1140.6 254.434C1140.78 254.598 1140.88 254.807 1140.88 255.062C1140.88 255.318 1140.78 255.527 1140.6 255.691C1140.44 255.855 1140.24 255.938 1140 255.938C1139.45 255.901 1139.16 255.609 1139.12 255.062C1139.12 254.807 1139.21 254.598 1139.37 254.434C1139.54 254.27 1139.74 254.188 1140 254.188ZM1140.9 248.5C1141.47 248.518 1141.92 248.701 1142.27 249.047C1142.63 249.411 1142.82 249.867 1142.82 250.414C1142.8 251.107 1142.49 251.654 1141.89 252.055L1140.66 252.82V252.875C1140.62 253.276 1140.4 253.495 1140 253.531C1139.6 253.495 1139.38 253.276 1139.34 252.875V252.438C1139.34 252.201 1139.45 252.009 1139.67 251.863L1141.23 250.906C1141.43 250.797 1141.53 250.633 1141.53 250.414C1141.49 250.049 1141.28 249.849 1140.88 249.812H1139.48C1139.13 249.849 1138.94 250.049 1138.91 250.414C1138.87 250.815 1138.65 251.034 1138.25 251.07C1137.85 251.034 1137.63 250.815 1137.59 250.414C1137.61 249.867 1137.79 249.411 1138.14 249.047C1138.51 248.701 1138.96 248.518 1139.51 248.5H1140.9Z" fill="#1A1A1A"/>
<path d="M1188.88 245.875V246.367C1189.9 246.549 1190.73 247.014 1191.36 247.762C1192.02 248.509 1192.36 249.411 1192.38 250.469V251.371C1192.39 252.647 1192.79 253.786 1193.58 254.789L1193.99 255.309C1194.15 255.527 1194.18 255.755 1194.07 255.992C1193.94 256.229 1193.74 256.357 1193.47 256.375H1182.53C1182.26 256.357 1182.06 256.229 1181.93 255.992C1181.82 255.755 1181.85 255.527 1182.01 255.309L1182.42 254.789C1183.21 253.786 1183.61 252.647 1183.63 251.371V250.469C1183.64 249.411 1183.98 248.509 1184.64 247.762C1185.27 247.014 1186.1 246.549 1187.13 246.367V245.875C1187.13 245.62 1187.21 245.41 1187.37 245.246C1187.54 245.082 1187.74 245 1188 245C1188.26 245 1188.47 245.082 1188.63 245.246C1188.79 245.41 1188.88 245.62 1188.88 245.875ZM1187.78 247.625C1186.98 247.643 1186.3 247.917 1185.76 248.445C1185.23 248.992 1184.96 249.667 1184.94 250.469V251.371C1184.94 252.72 1184.57 253.951 1183.84 255.062H1192.16C1191.43 253.951 1191.06 252.72 1191.06 251.371V250.469C1191.04 249.667 1190.77 248.992 1190.24 248.445C1189.7 247.917 1189.02 247.643 1188.22 247.625H1187.78ZM1189.75 257.25C1189.75 257.724 1189.58 258.134 1189.23 258.48C1188.88 258.827 1188.47 259 1188 259C1187.53 259 1187.12 258.827 1186.77 258.48C1186.42 258.134 1186.25 257.724 1186.25 257.25H1189.75Z" fill="#1A1A1A"/>
</svg>
