<svg width="486" height="406" viewBox="0 0 486 406" fill="none" xmlns="http://www.w3.org/2000/svg">
<g clip-path="url(#clip0_2522_45091)">
<rect width="486" height="406" rx="4" fill="#F8F8F8"/>
<g filter="url(#filter0_dddddd_2522_45091)">
<rect x="116" y="88" width="254" height="230" rx="8" fill="white"/>
</g>
<rect x="161" y="193" width="36" height="20" rx="10" fill="#286EF1"/>
<circle cx="187" cy="203" r="7" fill="white"/>
<path d="M218.587 202.375V202.961C218.587 203.767 218.482 204.489 218.272 205.129C218.062 205.769 217.762 206.313 217.372 206.762C216.986 207.211 216.522 207.556 215.98 207.795C215.438 208.029 214.837 208.146 214.178 208.146C213.524 208.146 212.926 208.029 212.384 207.795C211.847 207.556 211.38 207.211 210.985 206.762C210.589 206.313 210.282 205.769 210.062 205.129C209.847 204.489 209.74 203.767 209.74 202.961V202.375C209.74 201.569 209.847 200.849 210.062 200.214C210.277 199.575 210.58 199.03 210.97 198.581C211.366 198.127 211.832 197.783 212.369 197.548C212.911 197.309 213.509 197.189 214.164 197.189C214.823 197.189 215.423 197.309 215.965 197.548C216.507 197.783 216.974 198.127 217.364 198.581C217.755 199.03 218.055 199.575 218.265 200.214C218.48 200.849 218.587 201.569 218.587 202.375ZM216.749 202.961V202.36C216.749 201.765 216.69 201.24 216.573 200.786C216.461 200.327 216.292 199.943 216.068 199.636C215.848 199.323 215.577 199.089 215.255 198.933C214.933 198.771 214.569 198.691 214.164 198.691C213.758 198.691 213.397 198.771 213.08 198.933C212.762 199.089 212.491 199.323 212.267 199.636C212.047 199.943 211.878 200.327 211.761 200.786C211.644 201.24 211.585 201.765 211.585 202.36V202.961C211.585 203.557 211.644 204.084 211.761 204.543C211.878 205.002 212.049 205.39 212.274 205.708C212.503 206.02 212.777 206.257 213.094 206.418C213.412 206.574 213.773 206.652 214.178 206.652C214.588 206.652 214.952 206.574 215.27 206.418C215.587 206.257 215.855 206.02 216.075 205.708C216.295 205.39 216.461 205.002 216.573 204.543C216.69 204.084 216.749 203.557 216.749 202.961ZM222 201.767V208H220.235V200.075H221.898L222 201.767ZM221.686 203.745L221.114 203.737C221.119 203.176 221.197 202.661 221.349 202.192C221.505 201.723 221.72 201.32 221.993 200.983C222.271 200.646 222.604 200.388 222.989 200.207C223.375 200.021 223.805 199.929 224.278 199.929C224.659 199.929 225.003 199.982 225.311 200.09C225.624 200.192 225.89 200.361 226.109 200.595C226.334 200.83 226.505 201.135 226.622 201.511C226.739 201.882 226.798 202.338 226.798 202.88V208H225.025V202.873C225.025 202.492 224.969 202.192 224.857 201.972C224.75 201.748 224.591 201.589 224.381 201.496C224.176 201.398 223.919 201.35 223.612 201.35C223.309 201.35 223.038 201.413 222.799 201.54C222.56 201.667 222.357 201.84 222.191 202.06C222.03 202.28 221.905 202.534 221.817 202.822C221.729 203.11 221.686 203.417 221.686 203.745ZM235.887 202.741V204.147H232.013V202.741H235.887ZM248.324 206.542V208H242.662V206.542H248.324ZM243.182 197.336V208H241.344V197.336H243.182ZM247.584 201.789V203.225H242.662V201.789H247.584ZM248.287 197.336V198.801H242.662V197.336H248.287ZM251.4 201.767V208H249.635V200.075H251.297L251.4 201.767ZM251.085 203.745L250.514 203.737C250.519 203.176 250.597 202.661 250.748 202.192C250.904 201.723 251.119 201.32 251.393 200.983C251.671 200.646 252.003 200.388 252.389 200.207C252.774 200.021 253.204 199.929 253.678 199.929C254.059 199.929 254.403 199.982 254.71 200.09C255.023 200.192 255.289 200.361 255.509 200.595C255.733 200.83 255.904 201.135 256.021 201.511C256.139 201.882 256.197 202.338 256.197 202.88V208H254.425V202.873C254.425 202.492 254.369 202.192 254.256 201.972C254.149 201.748 253.99 201.589 253.78 201.496C253.575 201.398 253.319 201.35 253.011 201.35C252.708 201.35 252.438 201.413 252.198 201.54C251.959 201.667 251.756 201.84 251.59 202.06C251.429 202.28 251.305 202.534 251.217 202.822C251.129 203.11 251.085 203.417 251.085 203.745ZM262.467 206.411V202.631C262.467 202.348 262.416 202.104 262.313 201.899C262.21 201.694 262.054 201.535 261.844 201.423C261.639 201.311 261.38 201.254 261.068 201.254C260.78 201.254 260.531 201.303 260.321 201.401C260.111 201.499 259.947 201.63 259.83 201.796C259.713 201.962 259.654 202.15 259.654 202.36H257.896C257.896 202.048 257.972 201.745 258.124 201.452C258.275 201.159 258.495 200.898 258.783 200.668C259.071 200.439 259.415 200.258 259.815 200.126C260.216 199.995 260.665 199.929 261.163 199.929C261.759 199.929 262.286 200.029 262.745 200.229C263.209 200.429 263.573 200.732 263.836 201.137C264.105 201.538 264.239 202.041 264.239 202.646V206.169C264.239 206.53 264.264 206.855 264.312 207.143C264.366 207.426 264.442 207.673 264.54 207.883V208H262.73C262.647 207.81 262.582 207.568 262.533 207.275C262.489 206.977 262.467 206.689 262.467 206.411ZM262.723 203.181L262.738 204.272H261.471C261.144 204.272 260.855 204.304 260.606 204.367C260.357 204.426 260.15 204.514 259.984 204.631C259.818 204.748 259.693 204.89 259.61 205.056C259.527 205.222 259.486 205.41 259.486 205.62C259.486 205.83 259.535 206.022 259.632 206.198C259.73 206.369 259.872 206.503 260.057 206.601C260.248 206.699 260.477 206.748 260.746 206.748C261.107 206.748 261.422 206.674 261.69 206.528C261.964 206.376 262.179 206.193 262.335 205.979C262.491 205.759 262.574 205.551 262.584 205.356L263.155 206.14C263.097 206.34 262.997 206.555 262.855 206.784C262.713 207.014 262.528 207.233 262.298 207.443C262.074 207.648 261.803 207.817 261.485 207.949C261.173 208.081 260.812 208.146 260.401 208.146C259.884 208.146 259.422 208.044 259.017 207.839C258.612 207.629 258.294 207.348 258.065 206.997C257.835 206.64 257.721 206.237 257.721 205.788C257.721 205.368 257.799 204.997 257.955 204.675C258.116 204.348 258.351 204.074 258.658 203.854C258.971 203.635 259.352 203.469 259.801 203.356C260.25 203.239 260.763 203.181 261.339 203.181H262.723ZM266.092 196.75H267.857V206.308L267.689 208H266.092V196.75ZM273.028 203.964V204.118C273.028 204.704 272.962 205.244 272.831 205.737C272.704 206.225 272.508 206.65 272.245 207.011C271.986 207.373 271.664 207.653 271.278 207.854C270.897 208.049 270.455 208.146 269.952 208.146C269.459 208.146 269.029 208.054 268.663 207.868C268.297 207.683 267.989 207.419 267.74 207.077C267.496 206.735 267.298 206.328 267.147 205.854C266.996 205.38 266.888 204.858 266.825 204.287V203.796C266.888 203.22 266.996 202.697 267.147 202.229C267.298 201.755 267.496 201.347 267.74 201.005C267.989 200.659 268.294 200.393 268.656 200.207C269.022 200.021 269.449 199.929 269.938 199.929C270.445 199.929 270.892 200.026 271.278 200.222C271.668 200.417 271.993 200.695 272.252 201.057C272.511 201.413 272.704 201.838 272.831 202.331C272.962 202.824 273.028 203.369 273.028 203.964ZM271.263 204.118V203.964C271.263 203.608 271.234 203.273 271.175 202.961C271.117 202.644 271.019 202.365 270.882 202.126C270.75 201.887 270.57 201.699 270.34 201.562C270.116 201.42 269.835 201.35 269.498 201.35C269.186 201.35 268.917 201.403 268.692 201.511C268.468 201.618 268.28 201.765 268.128 201.95C267.977 202.136 267.857 202.351 267.77 202.595C267.687 202.839 267.63 203.103 267.601 203.386V204.711C267.645 205.078 267.738 205.415 267.879 205.722C268.026 206.025 268.231 206.269 268.495 206.455C268.758 206.635 269.098 206.726 269.513 206.726C269.84 206.726 270.116 206.66 270.34 206.528C270.565 206.396 270.743 206.213 270.875 205.979C271.012 205.739 271.109 205.461 271.168 205.144C271.231 204.826 271.263 204.484 271.263 204.118ZM276.412 196.75V208H274.64V196.75H276.412ZM281.839 208.146C281.253 208.146 280.724 208.051 280.25 207.861C279.781 207.666 279.381 207.395 279.049 207.048C278.722 206.701 278.47 206.293 278.294 205.825C278.119 205.356 278.031 204.851 278.031 204.309V204.016C278.031 203.396 278.121 202.834 278.302 202.331C278.482 201.828 278.734 201.398 279.056 201.042C279.378 200.681 279.759 200.405 280.199 200.214C280.638 200.024 281.114 199.929 281.627 199.929C282.193 199.929 282.689 200.024 283.114 200.214C283.539 200.405 283.89 200.673 284.168 201.02C284.452 201.362 284.662 201.77 284.798 202.243C284.94 202.717 285.011 203.239 285.011 203.811V204.565H278.888V203.298H283.268V203.159C283.258 202.841 283.194 202.543 283.077 202.265C282.965 201.987 282.792 201.762 282.557 201.591C282.323 201.42 282.01 201.335 281.62 201.335C281.327 201.335 281.065 201.398 280.836 201.525C280.611 201.647 280.423 201.826 280.272 202.06C280.121 202.294 280.003 202.578 279.92 202.91C279.842 203.237 279.803 203.605 279.803 204.016V204.309C279.803 204.655 279.85 204.978 279.942 205.275C280.04 205.568 280.182 205.825 280.367 206.044C280.553 206.264 280.777 206.438 281.041 206.564C281.305 206.687 281.605 206.748 281.942 206.748C282.367 206.748 282.745 206.662 283.077 206.491C283.409 206.32 283.697 206.079 283.941 205.766L284.872 206.667C284.701 206.916 284.479 207.155 284.205 207.385C283.932 207.609 283.597 207.792 283.202 207.934C282.811 208.076 282.357 208.146 281.839 208.146ZM291.222 206.359V196.75H292.994V208H291.39L291.222 206.359ZM286.065 204.125V203.972C286.065 203.371 286.136 202.824 286.278 202.331C286.419 201.833 286.625 201.406 286.893 201.049C287.162 200.688 287.489 200.412 287.875 200.222C288.26 200.026 288.695 199.929 289.178 199.929C289.657 199.929 290.077 200.021 290.438 200.207C290.799 200.393 291.107 200.659 291.361 201.005C291.615 201.347 291.817 201.757 291.969 202.236C292.12 202.709 292.228 203.237 292.291 203.818V204.309C292.228 204.875 292.12 205.393 291.969 205.861C291.817 206.33 291.615 206.735 291.361 207.077C291.107 207.419 290.797 207.683 290.431 207.868C290.069 208.054 289.647 208.146 289.164 208.146C288.685 208.146 288.253 208.046 287.867 207.846C287.486 207.646 287.162 207.365 286.893 207.004C286.625 206.643 286.419 206.218 286.278 205.729C286.136 205.236 286.065 204.702 286.065 204.125ZM287.831 203.972V204.125C287.831 204.487 287.862 204.824 287.926 205.136C287.994 205.449 288.099 205.725 288.241 205.964C288.382 206.198 288.565 206.384 288.79 206.521C289.02 206.652 289.293 206.718 289.61 206.718C290.011 206.718 290.34 206.63 290.599 206.455C290.858 206.279 291.061 206.042 291.207 205.744C291.358 205.441 291.461 205.104 291.515 204.733V203.408C291.485 203.12 291.424 202.851 291.332 202.602C291.244 202.353 291.124 202.136 290.973 201.95C290.821 201.76 290.633 201.613 290.409 201.511C290.189 201.403 289.928 201.35 289.625 201.35C289.303 201.35 289.029 201.418 288.805 201.555C288.58 201.691 288.395 201.879 288.248 202.119C288.106 202.358 288.001 202.636 287.933 202.954C287.865 203.271 287.831 203.61 287.831 203.972Z" fill="#1A1A1A"/>
<rect x="260" y="33" width="26" height="26" rx="4" fill="#333333"/>
<path d="M276.424 49.6875V51H269.752V49.8721L272.992 46.3379C273.348 45.9368 273.628 45.5905 273.833 45.2988C274.038 45.0072 274.182 44.7451 274.264 44.5127C274.35 44.2757 274.394 44.0456 274.394 43.8223C274.394 43.5078 274.334 43.2321 274.216 42.9951C274.102 42.7536 273.933 42.5645 273.71 42.4277C273.487 42.2865 273.215 42.2158 272.896 42.2158C272.527 42.2158 272.217 42.2956 271.967 42.4551C271.716 42.6146 271.527 42.8356 271.399 43.1182C271.272 43.3962 271.208 43.7152 271.208 44.0752H269.561C269.561 43.4964 269.693 42.9678 269.957 42.4893C270.221 42.0062 270.604 41.6234 271.105 41.3408C271.607 41.0537 272.211 40.9102 272.917 40.9102C273.582 40.9102 274.147 41.0218 274.612 41.2451C275.077 41.4684 275.43 41.7852 275.672 42.1953C275.918 42.6055 276.041 43.0908 276.041 43.6514C276.041 43.9613 275.991 44.2689 275.891 44.5742C275.79 44.8796 275.647 45.1849 275.46 45.4902C275.278 45.791 275.061 46.0941 274.811 46.3994C274.56 46.7002 274.284 47.0055 273.983 47.3154L271.83 49.6875H276.424Z" fill="white"/>
<path d="M273 184L275.887 179L270.113 179L273 184ZM273.5 179.5L273.5 63L272.5 63L272.5 179.5L273.5 179.5Z" fill="#737373"/>
<rect x="57" y="190" width="26" height="26" rx="4" fill="#333333"/>
<path d="M71.25 198.013V208H69.6025V199.968L67.1621 200.795V199.435L71.0518 198.013H71.25Z" fill="white"/>
<path d="M146 203L141 200.113V205.887L146 203ZM141.5 202.5H87V203.5H141.5V202.5Z" fill="#737373"/>
</g>
<defs>
<filter id="filter0_dddddd_2522_45091" x="36" y="88" width="414" height="410" filterUnits="userSpaceOnUse" color-interpolation-filters="sRGB">
<feFlood flood-opacity="0" result="BackgroundImageFix"/>
<feColorMatrix in="SourceAlpha" type="matrix" values="0 0 0 0 0 0 0 0 0 0 0 0 0 0 0 0 0 0 127 0" result="hardAlpha"/>
<feOffset dy="2.76726"/>
<feGaussianBlur stdDeviation="1.1069"/>
<feColorMatrix type="matrix" values="0 0 0 0 0 0 0 0 0 0 0 0 0 0 0 0 0 0 0.0196802 0"/>
<feBlend mode="normal" in2="BackgroundImageFix" result="effect1_dropShadow_2522_45091"/>
<feColorMatrix in="SourceAlpha" type="matrix" values="0 0 0 0 0 0 0 0 0 0 0 0 0 0 0 0 0 0 127 0" result="hardAlpha"/>
<feOffset dy="6.6501"/>
<feGaussianBlur stdDeviation="2.66004"/>
<feColorMatrix type="matrix" values="0 0 0 0 0 0 0 0 0 0 0 0 0 0 0 0 0 0 0.0282725 0"/>
<feBlend mode="normal" in2="effect1_dropShadow_2522_45091" result="effect2_dropShadow_2522_45091"/>
<feColorMatrix in="SourceAlpha" type="matrix" values="0 0 0 0 0 0 0 0 0 0 0 0 0 0 0 0 0 0 127 0" result="hardAlpha"/>
<feOffset dy="12.5216"/>
<feGaussianBlur stdDeviation="5.00862"/>
<feColorMatrix type="matrix" values="0 0 0 0 0 0 0 0 0 0 0 0 0 0 0 0 0 0 0.035 0"/>
<feBlend mode="normal" in2="effect2_dropShadow_2522_45091" result="effect3_dropShadow_2522_45091"/>
<feColorMatrix in="SourceAlpha" type="matrix" values="0 0 0 0 0 0 0 0 0 0 0 0 0 0 0 0 0 0 127 0" result="hardAlpha"/>
<feOffset dy="22.3363"/>
<feGaussianBlur stdDeviation="8.93452"/>
<feColorMatrix type="matrix" values="0 0 0 0 0 0 0 0 0 0 0 0 0 0 0 0 0 0 0.0417275 0"/>
<feBlend mode="normal" in2="effect3_dropShadow_2522_45091" result="effect4_dropShadow_2522_45091"/>
<feColorMatrix in="SourceAlpha" type="matrix" values="0 0 0 0 0 0 0 0 0 0 0 0 0 0 0 0 0 0 127 0" result="hardAlpha"/>
<feOffset dy="41.7776"/>
<feGaussianBlur stdDeviation="16.711"/>
<feColorMatrix type="matrix" values="0 0 0 0 0 0 0 0 0 0 0 0 0 0 0 0 0 0 0.0503198 0"/>
<feBlend mode="normal" in2="effect4_dropShadow_2522_45091" result="effect5_dropShadow_2522_45091"/>
<feColorMatrix in="SourceAlpha" type="matrix" values="0 0 0 0 0 0 0 0 0 0 0 0 0 0 0 0 0 0 127 0" result="hardAlpha"/>
<feOffset dy="100"/>
<feGaussianBlur stdDeviation="40"/>
<feColorMatrix type="matrix" values="0 0 0 0 0 0 0 0 0 0 0 0 0 0 0 0 0 0 0.07 0"/>
<feBlend mode="normal" in2="effect5_dropShadow_2522_45091" result="effect6_dropShadow_2522_45091"/>
<feBlend mode="normal" in="SourceGraphic" in2="effect6_dropShadow_2522_45091" result="shape"/>
</filter>
<clipPath id="clip0_2522_45091">
<rect width="486" height="406" rx="4" fill="white"/>
</clipPath>
</defs>
</svg>
