<svg width="806" height="248" viewBox="0 0 806 248" fill="none" xmlns="http://www.w3.org/2000/svg">
<rect x="40" y="4" width="726" height="168" rx="4" fill="#F8F8F8"/>
<g filter="url(#filter0_ddd_2304_42239)">
<rect x="80" y="44" width="646" height="88" rx="4" fill="white"/>
</g>
<rect x="96" y="78" width="36" height="20" rx="10" fill="#E6E6E6"/>
<path d="M113 88C113 91.866 109.866 95 106 95C102.134 95 99 91.866 99 88C99 84.134 102.134 81 106 81C109.866 81 113 84.134 113 88Z" fill="white"/>
<path d="M149.471 82.3359V93H147.647V82.3359H149.471ZM152.818 82.3359V83.8008H144.33V82.3359H152.818ZM152.687 89.1255V88.957C152.687 88.3857 152.77 87.856 152.936 87.3677C153.102 86.8745 153.341 86.4473 153.653 86.0859C153.971 85.7197 154.356 85.4365 154.811 85.2363C155.27 85.0312 155.787 84.9287 156.363 84.9287C156.944 84.9287 157.462 85.0312 157.916 85.2363C158.375 85.4365 158.763 85.7197 159.081 86.0859C159.398 86.4473 159.64 86.8745 159.806 87.3677C159.972 87.856 160.055 88.3857 160.055 88.957V89.1255C160.055 89.6968 159.972 90.2266 159.806 90.7148C159.64 91.2031 159.398 91.6304 159.081 91.9966C158.763 92.3579 158.377 92.6411 157.923 92.8462C157.469 93.0464 156.954 93.1465 156.378 93.1465C155.797 93.1465 155.277 93.0464 154.818 92.8462C154.364 92.6411 153.978 92.3579 153.661 91.9966C153.343 91.6304 153.102 91.2031 152.936 90.7148C152.77 90.2266 152.687 89.6968 152.687 89.1255ZM154.452 88.957V89.1255C154.452 89.4819 154.488 89.8188 154.562 90.1362C154.635 90.4536 154.75 90.7319 154.906 90.9712C155.062 91.2104 155.262 91.3984 155.506 91.5352C155.75 91.6719 156.041 91.7402 156.378 91.7402C156.705 91.7402 156.988 91.6719 157.228 91.5352C157.472 91.3984 157.672 91.2104 157.828 90.9712C157.984 90.7319 158.099 90.4536 158.172 90.1362C158.25 89.8188 158.29 89.4819 158.29 89.1255V88.957C158.29 88.6055 158.25 88.2734 158.172 87.9609C158.099 87.6436 157.982 87.3628 157.821 87.1187C157.665 86.8745 157.464 86.6841 157.22 86.5474C156.981 86.4058 156.695 86.335 156.363 86.335C156.031 86.335 155.743 86.4058 155.499 86.5474C155.26 86.6841 155.062 86.8745 154.906 87.1187C154.75 87.3628 154.635 87.6436 154.562 87.9609C154.488 88.2734 154.452 88.6055 154.452 88.957ZM166.61 85.0752H168.214V92.7803C168.214 93.4932 168.062 94.0986 167.76 94.5967C167.457 95.0947 167.035 95.4731 166.493 95.7319C165.951 95.9956 165.323 96.1274 164.61 96.1274C164.308 96.1274 163.971 96.0835 163.6 95.9956C163.233 95.9077 162.877 95.7661 162.53 95.5708C162.188 95.3804 161.903 95.1289 161.673 94.8164L162.501 93.7764C162.784 94.1133 163.097 94.3599 163.438 94.5161C163.78 94.6724 164.139 94.7505 164.515 94.7505C164.92 94.7505 165.265 94.6748 165.548 94.5234C165.836 94.377 166.058 94.1597 166.214 93.8716C166.371 93.5835 166.449 93.2319 166.449 92.8169V86.8696L166.61 85.0752ZM161.227 89.1255V88.9717C161.227 88.3711 161.3 87.8242 161.446 87.3311C161.593 86.833 161.803 86.4058 162.076 86.0493C162.35 85.688 162.682 85.4121 163.072 85.2217C163.463 85.0264 163.905 84.9287 164.398 84.9287C164.911 84.9287 165.348 85.0215 165.709 85.207C166.075 85.3926 166.38 85.6587 166.625 86.0054C166.869 86.3472 167.059 86.7573 167.196 87.2358C167.337 87.7095 167.442 88.2368 167.511 88.8179V89.3086C167.447 89.875 167.34 90.3926 167.188 90.8613C167.037 91.3301 166.837 91.7354 166.588 92.0771C166.339 92.4189 166.031 92.6826 165.665 92.8682C165.304 93.0537 164.876 93.1465 164.383 93.1465C163.9 93.1465 163.463 93.0464 163.072 92.8462C162.687 92.646 162.354 92.3652 162.076 92.0039C161.803 91.6426 161.593 91.2178 161.446 90.7295C161.3 90.2363 161.227 89.7017 161.227 89.1255ZM162.992 88.9717V89.1255C162.992 89.4868 163.026 89.8237 163.094 90.1362C163.167 90.4487 163.277 90.7246 163.424 90.9639C163.575 91.1982 163.766 91.3838 163.995 91.5205C164.229 91.6523 164.505 91.7183 164.823 91.7183C165.238 91.7183 165.577 91.6304 165.841 91.4546C166.109 91.2788 166.314 91.042 166.456 90.7441C166.603 90.4414 166.705 90.1045 166.764 89.7334V88.4077C166.734 88.1196 166.673 87.8511 166.581 87.6021C166.493 87.353 166.373 87.1357 166.222 86.9502C166.07 86.7598 165.88 86.6133 165.65 86.5107C165.421 86.4033 165.15 86.3496 164.837 86.3496C164.52 86.3496 164.244 86.418 164.01 86.5547C163.775 86.6914 163.583 86.8794 163.431 87.1187C163.285 87.3579 163.175 87.6362 163.102 87.9536C163.028 88.271 162.992 88.6104 162.992 88.9717ZM175.121 85.0752H176.725V92.7803C176.725 93.4932 176.573 94.0986 176.271 94.5967C175.968 95.0947 175.545 95.4731 175.003 95.7319C174.461 95.9956 173.834 96.1274 173.121 96.1274C172.818 96.1274 172.481 96.0835 172.11 95.9956C171.744 95.9077 171.388 95.7661 171.041 95.5708C170.699 95.3804 170.414 95.1289 170.184 94.8164L171.012 93.7764C171.295 94.1133 171.607 94.3599 171.949 94.5161C172.291 94.6724 172.65 94.7505 173.026 94.7505C173.431 94.7505 173.775 94.6748 174.059 94.5234C174.347 94.377 174.569 94.1597 174.725 93.8716C174.881 93.5835 174.959 93.2319 174.959 92.8169V86.8696L175.121 85.0752ZM169.737 89.1255V88.9717C169.737 88.3711 169.811 87.8242 169.957 87.3311C170.104 86.833 170.313 86.4058 170.587 86.0493C170.86 85.688 171.192 85.4121 171.583 85.2217C171.974 85.0264 172.416 84.9287 172.909 84.9287C173.421 84.9287 173.858 85.0215 174.22 85.207C174.586 85.3926 174.891 85.6587 175.135 86.0054C175.379 86.3472 175.57 86.7573 175.707 87.2358C175.848 87.7095 175.953 88.2368 176.021 88.8179V89.3086C175.958 89.875 175.851 90.3926 175.699 90.8613C175.548 91.3301 175.348 91.7354 175.099 92.0771C174.85 92.4189 174.542 92.6826 174.176 92.8682C173.814 93.0537 173.387 93.1465 172.894 93.1465C172.411 93.1465 171.974 93.0464 171.583 92.8462C171.197 92.646 170.865 92.3652 170.587 92.0039C170.313 91.6426 170.104 91.2178 169.957 90.7295C169.811 90.2363 169.737 89.7017 169.737 89.1255ZM171.502 88.9717V89.1255C171.502 89.4868 171.537 89.8237 171.605 90.1362C171.678 90.4487 171.788 90.7246 171.935 90.9639C172.086 91.1982 172.276 91.3838 172.506 91.5205C172.74 91.6523 173.016 91.7183 173.333 91.7183C173.749 91.7183 174.088 91.6304 174.352 91.4546C174.62 91.2788 174.825 91.042 174.967 90.7441C175.113 90.4414 175.216 90.1045 175.274 89.7334V88.4077C175.245 88.1196 175.184 87.8511 175.091 87.6021C175.003 87.353 174.884 87.1357 174.732 86.9502C174.581 86.7598 174.391 86.6133 174.161 86.5107C173.932 86.4033 173.661 86.3496 173.348 86.3496C173.031 86.3496 172.755 86.418 172.521 86.5547C172.286 86.6914 172.093 86.8794 171.942 87.1187C171.795 87.3579 171.686 87.6362 171.612 87.9536C171.539 88.271 171.502 88.6104 171.502 88.9717ZM180.445 81.75V93H178.673V81.75H180.445ZM185.873 93.1465C185.287 93.1465 184.757 93.0513 184.283 92.8608C183.814 92.6655 183.414 92.3945 183.082 92.0479C182.755 91.7012 182.503 91.2935 182.328 90.8247C182.152 90.356 182.064 89.8506 182.064 89.3086V89.0156C182.064 88.3955 182.154 87.834 182.335 87.3311C182.516 86.8281 182.767 86.3984 183.089 86.042C183.412 85.6807 183.792 85.4048 184.232 85.2144C184.671 85.0239 185.147 84.9287 185.66 84.9287C186.227 84.9287 186.722 85.0239 187.147 85.2144C187.572 85.4048 187.923 85.6733 188.202 86.02C188.485 86.3618 188.695 86.7695 188.832 87.2432C188.973 87.7168 189.044 88.2393 189.044 88.8105V89.5649H182.921V88.2979H187.301V88.1587C187.291 87.8413 187.228 87.5435 187.11 87.2651C186.998 86.9868 186.825 86.7622 186.59 86.5913C186.356 86.4204 186.043 86.335 185.653 86.335C185.36 86.335 185.099 86.3984 184.869 86.5254C184.645 86.6475 184.457 86.8257 184.305 87.0601C184.154 87.2944 184.037 87.5776 183.954 87.9097C183.875 88.2368 183.836 88.6055 183.836 89.0156V89.3086C183.836 89.6553 183.883 89.9775 183.976 90.2754C184.073 90.5684 184.215 90.8247 184.4 91.0444C184.586 91.2642 184.811 91.4375 185.074 91.5645C185.338 91.6865 185.638 91.7476 185.975 91.7476C186.4 91.7476 186.778 91.6621 187.11 91.4912C187.442 91.3203 187.73 91.0786 187.975 90.7661L188.905 91.667C188.734 91.916 188.512 92.1553 188.238 92.3848C187.965 92.6094 187.63 92.7925 187.235 92.9341C186.844 93.0757 186.39 93.1465 185.873 93.1465ZM201.012 91.5425V93H195.658V91.5425H201.012ZM196.17 82.3359V93H194.332V82.3359H196.17ZM206.725 91.4106V87.6313C206.725 87.3481 206.673 87.104 206.571 86.8989C206.468 86.6938 206.312 86.5352 206.102 86.4229C205.897 86.3105 205.638 86.2544 205.326 86.2544C205.038 86.2544 204.789 86.3032 204.579 86.4009C204.369 86.4985 204.205 86.6304 204.088 86.7964C203.971 86.9624 203.912 87.1504 203.912 87.3604H202.154C202.154 87.0479 202.23 86.7451 202.381 86.4521C202.533 86.1592 202.752 85.8979 203.041 85.6685C203.329 85.439 203.673 85.2583 204.073 85.1265C204.474 84.9946 204.923 84.9287 205.421 84.9287C206.017 84.9287 206.544 85.0288 207.003 85.229C207.467 85.4292 207.831 85.7319 208.094 86.1372C208.363 86.5376 208.497 87.0405 208.497 87.646V91.1689C208.497 91.5303 208.521 91.855 208.57 92.1431C208.624 92.4263 208.7 92.6729 208.797 92.8828V93H206.988C206.905 92.8096 206.839 92.5679 206.791 92.2749C206.747 91.9771 206.725 91.689 206.725 91.4106ZM206.981 88.1807L206.996 89.272H205.729C205.401 89.272 205.113 89.3037 204.864 89.3672C204.615 89.4258 204.408 89.5137 204.242 89.6309C204.076 89.748 203.951 89.8896 203.868 90.0557C203.785 90.2217 203.744 90.4097 203.744 90.6196C203.744 90.8296 203.792 91.0225 203.89 91.1982C203.988 91.3691 204.129 91.5034 204.315 91.6011C204.505 91.6987 204.735 91.7476 205.003 91.7476C205.365 91.7476 205.68 91.6743 205.948 91.5278C206.222 91.3765 206.437 91.1934 206.593 90.9785C206.749 90.7588 206.832 90.5513 206.842 90.356L207.413 91.1396C207.354 91.3398 207.254 91.5547 207.113 91.7842C206.971 92.0137 206.786 92.2334 206.556 92.4434C206.332 92.6484 206.061 92.8169 205.743 92.9487C205.431 93.0806 205.069 93.1465 204.659 93.1465C204.142 93.1465 203.68 93.0439 203.275 92.8389C202.87 92.6289 202.552 92.3481 202.323 91.9966C202.093 91.6401 201.979 91.2373 201.979 90.7881C201.979 90.3682 202.057 89.9971 202.213 89.6748C202.374 89.3477 202.608 89.0742 202.916 88.8545C203.229 88.6348 203.609 88.4688 204.059 88.3564C204.508 88.2393 205.021 88.1807 205.597 88.1807H206.981ZM210.35 81.75H212.115V91.3081L211.947 93H210.35V81.75ZM217.286 88.9644V89.1182C217.286 89.7041 217.22 90.2437 217.088 90.7368C216.961 91.2251 216.766 91.6499 216.502 92.0112C216.244 92.3726 215.921 92.6533 215.536 92.8535C215.155 93.0488 214.713 93.1465 214.21 93.1465C213.717 93.1465 213.287 93.0537 212.921 92.8682C212.555 92.6826 212.247 92.4189 211.998 92.0771C211.754 91.7354 211.556 91.3276 211.405 90.854C211.253 90.3804 211.146 89.8579 211.083 89.2866V88.7959C211.146 88.2197 211.253 87.6973 211.405 87.2285C211.556 86.7549 211.754 86.3472 211.998 86.0054C212.247 85.6587 212.552 85.3926 212.914 85.207C213.28 85.0215 213.707 84.9287 214.195 84.9287C214.703 84.9287 215.15 85.0264 215.536 85.2217C215.926 85.417 216.251 85.6953 216.51 86.0566C216.769 86.4131 216.961 86.8379 217.088 87.3311C217.22 87.8242 217.286 88.3687 217.286 88.9644ZM215.521 89.1182V88.9644C215.521 88.6079 215.492 88.2734 215.433 87.9609C215.375 87.6436 215.277 87.3652 215.14 87.126C215.008 86.8867 214.828 86.6987 214.598 86.562C214.374 86.4204 214.093 86.3496 213.756 86.3496C213.443 86.3496 213.175 86.4033 212.95 86.5107C212.726 86.6182 212.538 86.7646 212.386 86.9502C212.235 87.1357 212.115 87.3506 212.027 87.5947C211.944 87.8389 211.888 88.1025 211.859 88.3857V89.7114C211.903 90.0776 211.996 90.4146 212.137 90.7222C212.284 91.0249 212.489 91.269 212.752 91.4546C213.016 91.6353 213.355 91.7256 213.771 91.7256C214.098 91.7256 214.374 91.6597 214.598 91.5278C214.823 91.396 215.001 91.2129 215.133 90.9785C215.27 90.7393 215.367 90.4609 215.426 90.1436C215.489 89.8262 215.521 89.4844 215.521 89.1182ZM222.274 93.1465C221.688 93.1465 221.158 93.0513 220.685 92.8608C220.216 92.6655 219.815 92.3945 219.483 92.0479C219.156 91.7012 218.905 91.2935 218.729 90.8247C218.553 90.356 218.465 89.8506 218.465 89.3086V89.0156C218.465 88.3955 218.556 87.834 218.736 87.3311C218.917 86.8281 219.168 86.3984 219.491 86.042C219.813 85.6807 220.194 85.4048 220.633 85.2144C221.073 85.0239 221.549 84.9287 222.062 84.9287C222.628 84.9287 223.124 85.0239 223.548 85.2144C223.973 85.4048 224.325 85.6733 224.603 86.02C224.886 86.3618 225.096 86.7695 225.233 87.2432C225.375 87.7168 225.445 88.2393 225.445 88.8105V89.5649H219.322V88.2979H223.702V88.1587C223.692 87.8413 223.629 87.5435 223.512 87.2651C223.399 86.9868 223.226 86.7622 222.992 86.5913C222.757 86.4204 222.445 86.335 222.054 86.335C221.761 86.335 221.5 86.3984 221.271 86.5254C221.046 86.6475 220.858 86.8257 220.707 87.0601C220.555 87.2944 220.438 87.5776 220.355 87.9097C220.277 88.2368 220.238 88.6055 220.238 89.0156V89.3086C220.238 89.6553 220.284 89.9775 220.377 90.2754C220.475 90.5684 220.616 90.8247 220.802 91.0444C220.987 91.2642 221.212 91.4375 221.476 91.5645C221.739 91.6865 222.04 91.7476 222.376 91.7476C222.801 91.7476 223.18 91.6621 223.512 91.4912C223.844 91.3203 224.132 91.0786 224.376 90.7661L225.306 91.667C225.135 91.916 224.913 92.1553 224.64 92.3848C224.366 92.6094 224.032 92.7925 223.636 92.9341C223.246 93.0757 222.792 93.1465 222.274 93.1465ZM228.712 81.75V93H226.939V81.75H228.712Z" fill="#1A1A1A"/>
<defs>
<filter id="filter0_ddd_2304_42239" x="0" y="0" width="806" height="248" filterUnits="userSpaceOnUse" color-interpolation-filters="sRGB">
<feFlood flood-opacity="0" result="BackgroundImageFix"/>
<feColorMatrix in="SourceAlpha" type="matrix" values="0 0 0 0 0 0 0 0 0 0 0 0 0 0 0 0 0 0 127 0" result="hardAlpha"/>
<feOffset dy="2.39404"/>
<feGaussianBlur stdDeviation="2.66004"/>
<feColorMatrix type="matrix" values="0 0 0 0 0 0 0 0 0 0 0 0 0 0 0 0 0 0 0.0201946 0"/>
<feBlend mode="normal" in2="BackgroundImageFix" result="effect1_dropShadow_2304_42239"/>
<feColorMatrix in="SourceAlpha" type="matrix" values="0 0 0 0 0 0 0 0 0 0 0 0 0 0 0 0 0 0 127 0" result="hardAlpha"/>
<feOffset dy="8.04107"/>
<feGaussianBlur stdDeviation="8.93452"/>
<feColorMatrix type="matrix" values="0 0 0 0 0 0 0 0 0 0 0 0 0 0 0 0 0 0 0.0298054 0"/>
<feBlend mode="normal" in2="effect1_dropShadow_2304_42239" result="effect2_dropShadow_2304_42239"/>
<feColorMatrix in="SourceAlpha" type="matrix" values="0 0 0 0 0 0 0 0 0 0 0 0 0 0 0 0 0 0 127 0" result="hardAlpha"/>
<feOffset dy="36"/>
<feGaussianBlur stdDeviation="40"/>
<feColorMatrix type="matrix" values="0 0 0 0 0 0 0 0 0 0 0 0 0 0 0 0 0 0 0.05 0"/>
<feBlend mode="normal" in2="effect2_dropShadow_2304_42239" result="effect3_dropShadow_2304_42239"/>
<feBlend mode="normal" in="SourceGraphic" in2="effect3_dropShadow_2304_42239" result="shape"/>
</filter>
</defs>
</svg>
