<svg width="806" height="248" viewBox="0 0 806 248" fill="none" xmlns="http://www.w3.org/2000/svg">
<rect x="40" y="4" width="726" height="168" rx="4" fill="#F8F8F8"/>
<g filter="url(#filter0_ddd_2314_41944)">
<rect x="80" y="44" width="646" height="88" rx="4" fill="white"/>
</g>
<path d="M116.134 89.0229H113.358V87.5654H116.134C116.618 87.5654 117.008 87.4873 117.306 87.3311C117.604 87.1748 117.821 86.96 117.958 86.6865C118.1 86.4082 118.17 86.0908 118.17 85.7344C118.17 85.3975 118.1 85.0825 117.958 84.7896C117.821 84.4917 117.604 84.2524 117.306 84.0718C117.008 83.8911 116.618 83.8008 116.134 83.8008H113.922V93H112.084V82.3359H116.134C116.959 82.3359 117.66 82.4824 118.236 82.7754C118.817 83.0635 119.259 83.4639 119.562 83.9766C119.865 84.4844 120.016 85.0654 120.016 85.7197C120.016 86.4082 119.865 86.999 119.562 87.4922C119.259 87.9854 118.817 88.3638 118.236 88.6274C117.66 88.8911 116.959 89.0229 116.134 89.0229ZM123.378 81.75V93H121.605V81.75H123.378ZM130.08 91.1323V85.0752H131.852V93H130.182L130.08 91.1323ZM130.329 89.4844L130.922 89.4697C130.922 90.002 130.863 90.4927 130.746 90.9419C130.629 91.3862 130.448 91.7744 130.204 92.1064C129.96 92.4336 129.647 92.6899 129.267 92.8755C128.886 93.0562 128.429 93.1465 127.897 93.1465C127.511 93.1465 127.157 93.0903 126.835 92.978C126.513 92.8657 126.234 92.6924 126 92.458C125.771 92.2236 125.592 91.9185 125.465 91.5425C125.338 91.1665 125.275 90.7173 125.275 90.1948V85.0752H127.04V90.2095C127.04 90.4976 127.074 90.7393 127.143 90.9346C127.211 91.125 127.304 91.2788 127.421 91.396C127.538 91.5132 127.675 91.5962 127.831 91.645C127.987 91.6938 128.153 91.7183 128.329 91.7183C128.832 91.7183 129.228 91.6206 129.516 91.4253C129.809 91.2251 130.016 90.9565 130.138 90.6196C130.265 90.2827 130.329 89.9043 130.329 89.4844ZM138.737 85.0752H140.341V92.7803C140.341 93.4932 140.189 94.0986 139.887 94.5967C139.584 95.0947 139.162 95.4731 138.62 95.7319C138.078 95.9956 137.45 96.1274 136.737 96.1274C136.435 96.1274 136.098 96.0835 135.727 95.9956C135.36 95.9077 135.004 95.7661 134.657 95.5708C134.315 95.3804 134.03 95.1289 133.8 94.8164L134.628 93.7764C134.911 94.1133 135.224 94.3599 135.565 94.5161C135.907 94.6724 136.266 94.7505 136.642 94.7505C137.047 94.7505 137.392 94.6748 137.675 94.5234C137.963 94.377 138.185 94.1597 138.341 93.8716C138.498 93.5835 138.576 93.2319 138.576 92.8169V86.8696L138.737 85.0752ZM133.354 89.1255V88.9717C133.354 88.3711 133.427 87.8242 133.573 87.3311C133.72 86.833 133.93 86.4058 134.203 86.0493C134.477 85.688 134.809 85.4121 135.199 85.2217C135.59 85.0264 136.032 84.9287 136.525 84.9287C137.038 84.9287 137.475 85.0215 137.836 85.207C138.202 85.3926 138.507 85.6587 138.751 86.0054C138.996 86.3472 139.186 86.7573 139.323 87.2358C139.464 87.7095 139.569 88.2368 139.638 88.8179V89.3086C139.574 89.875 139.467 90.3926 139.315 90.8613C139.164 91.3301 138.964 91.7354 138.715 92.0771C138.466 92.4189 138.158 92.6826 137.792 92.8682C137.431 93.0537 137.003 93.1465 136.51 93.1465C136.027 93.1465 135.59 93.0464 135.199 92.8462C134.813 92.646 134.481 92.3652 134.203 92.0039C133.93 91.6426 133.72 91.2178 133.573 90.7295C133.427 90.2363 133.354 89.7017 133.354 89.1255ZM135.119 88.9717V89.1255C135.119 89.4868 135.153 89.8237 135.221 90.1362C135.294 90.4487 135.404 90.7246 135.551 90.9639C135.702 91.1982 135.893 91.3838 136.122 91.5205C136.356 91.6523 136.632 91.7183 136.95 91.7183C137.365 91.7183 137.704 91.6304 137.968 91.4546C138.236 91.2788 138.441 91.042 138.583 90.7441C138.729 90.4414 138.832 90.1045 138.891 89.7334V88.4077C138.861 88.1196 138.8 87.8511 138.708 87.6021C138.62 87.353 138.5 87.1357 138.349 86.9502C138.197 86.7598 138.007 86.6133 137.777 86.5107C137.548 86.4033 137.277 86.3496 136.964 86.3496C136.647 86.3496 136.371 86.418 136.137 86.5547C135.902 86.6914 135.709 86.8794 135.558 87.1187C135.412 87.3579 135.302 87.6362 135.229 87.9536C135.155 88.271 135.119 88.6104 135.119 88.9717ZM144.062 85.0752V93H142.289V85.0752H144.062ZM142.172 82.9951C142.172 82.7266 142.26 82.5044 142.436 82.3286C142.616 82.1479 142.865 82.0576 143.183 82.0576C143.495 82.0576 143.742 82.1479 143.922 82.3286C144.103 82.5044 144.193 82.7266 144.193 82.9951C144.193 83.2588 144.103 83.4785 143.922 83.6543C143.742 83.8301 143.495 83.918 143.183 83.918C142.865 83.918 142.616 83.8301 142.436 83.6543C142.26 83.4785 142.172 83.2588 142.172 82.9951ZM147.746 86.7671V93H145.98V85.0752H147.643L147.746 86.7671ZM147.431 88.7446L146.859 88.7373C146.864 88.1758 146.942 87.6606 147.094 87.1919C147.25 86.7231 147.465 86.3203 147.738 85.9834C148.017 85.6465 148.349 85.3877 148.734 85.207C149.12 85.0215 149.55 84.9287 150.023 84.9287C150.404 84.9287 150.749 84.9824 151.056 85.0898C151.369 85.1924 151.635 85.3608 151.854 85.5952C152.079 85.8296 152.25 86.1348 152.367 86.5107C152.484 86.8818 152.543 87.3384 152.543 87.8804V93H150.771V87.873C150.771 87.4922 150.714 87.1919 150.602 86.9722C150.495 86.7476 150.336 86.5889 150.126 86.4961C149.921 86.3984 149.665 86.3496 149.357 86.3496C149.054 86.3496 148.783 86.4131 148.544 86.54C148.305 86.667 148.102 86.8403 147.936 87.0601C147.775 87.2798 147.65 87.5337 147.562 87.8218C147.475 88.1099 147.431 88.4175 147.431 88.7446ZM163.866 90.2534C163.866 90.0337 163.832 89.8384 163.764 89.6675C163.7 89.4966 163.585 89.3403 163.419 89.1987C163.253 89.0571 163.019 88.9204 162.716 88.7886C162.418 88.6519 162.038 88.5127 161.574 88.3711C161.066 88.2148 160.597 88.0415 160.167 87.8511C159.743 87.6558 159.372 87.4312 159.054 87.1772C158.737 86.9185 158.49 86.623 158.314 86.291C158.139 85.9541 158.051 85.5659 158.051 85.1265C158.051 84.6919 158.141 84.2964 158.322 83.9399C158.507 83.5835 158.769 83.2759 159.105 83.0171C159.447 82.7534 159.85 82.5508 160.314 82.4092C160.778 82.2627 161.291 82.1895 161.852 82.1895C162.643 82.1895 163.324 82.3359 163.896 82.6289C164.472 82.9219 164.914 83.3149 165.221 83.8081C165.534 84.3013 165.69 84.8457 165.69 85.4414H163.866C163.866 85.0898 163.791 84.7798 163.639 84.5112C163.493 84.2378 163.268 84.0229 162.965 83.8667C162.667 83.7104 162.289 83.6323 161.83 83.6323C161.396 83.6323 161.034 83.6982 160.746 83.8301C160.458 83.9619 160.243 84.1401 160.102 84.3647C159.96 84.5894 159.889 84.8433 159.889 85.1265C159.889 85.3267 159.936 85.5098 160.028 85.6758C160.121 85.8369 160.263 85.9883 160.453 86.1299C160.644 86.2666 160.883 86.396 161.171 86.5181C161.459 86.6401 161.798 86.7573 162.189 86.8696C162.78 87.0454 163.295 87.2407 163.734 87.4556C164.174 87.6655 164.54 87.9048 164.833 88.1733C165.126 88.4419 165.346 88.7471 165.492 89.0889C165.639 89.4258 165.712 89.8091 165.712 90.2388C165.712 90.688 165.622 91.0933 165.441 91.4546C165.26 91.811 165.001 92.1162 164.665 92.3701C164.333 92.6191 163.932 92.812 163.463 92.9487C163 93.0806 162.482 93.1465 161.911 93.1465C161.398 93.1465 160.893 93.0781 160.395 92.9414C159.901 92.8047 159.452 92.5972 159.047 92.3188C158.642 92.0356 158.319 91.6841 158.08 91.2642C157.841 90.8394 157.721 90.3438 157.721 89.7773H159.56C159.56 90.124 159.618 90.4194 159.735 90.6636C159.857 90.9077 160.026 91.1079 160.241 91.2642C160.456 91.4155 160.705 91.5278 160.988 91.6011C161.276 91.6743 161.583 91.7109 161.911 91.7109C162.34 91.7109 162.699 91.6499 162.987 91.5278C163.28 91.4058 163.5 91.2349 163.646 91.0151C163.793 90.7954 163.866 90.5415 163.866 90.2534ZM170.656 93.1465C170.07 93.1465 169.54 93.0513 169.066 92.8608C168.598 92.6655 168.197 92.3945 167.865 92.0479C167.538 91.7012 167.287 91.2935 167.111 90.8247C166.935 90.356 166.847 89.8506 166.847 89.3086V89.0156C166.847 88.3955 166.938 87.834 167.118 87.3311C167.299 86.8281 167.55 86.3984 167.873 86.042C168.195 85.6807 168.576 85.4048 169.015 85.2144C169.455 85.0239 169.931 84.9287 170.443 84.9287C171.01 84.9287 171.505 85.0239 171.93 85.2144C172.355 85.4048 172.707 85.6733 172.985 86.02C173.268 86.3618 173.478 86.7695 173.615 87.2432C173.756 87.7168 173.827 88.2393 173.827 88.8105V89.5649H167.704V88.2979H172.084V88.1587C172.074 87.8413 172.011 87.5435 171.894 87.2651C171.781 86.9868 171.608 86.7622 171.374 86.5913C171.139 86.4204 170.827 86.335 170.436 86.335C170.143 86.335 169.882 86.3984 169.652 86.5254C169.428 86.6475 169.24 86.8257 169.088 87.0601C168.937 87.2944 168.82 87.5776 168.737 87.9097C168.659 88.2368 168.62 88.6055 168.62 89.0156V89.3086C168.62 89.6553 168.666 89.9775 168.759 90.2754C168.856 90.5684 168.998 90.8247 169.184 91.0444C169.369 91.2642 169.594 91.4375 169.857 91.5645C170.121 91.6865 170.421 91.7476 170.758 91.7476C171.183 91.7476 171.562 91.6621 171.894 91.4912C172.226 91.3203 172.514 91.0786 172.758 90.7661L173.688 91.667C173.517 91.916 173.295 92.1553 173.021 92.3848C172.748 92.6094 172.414 92.7925 172.018 92.9341C171.627 93.0757 171.173 93.1465 170.656 93.1465ZM178.837 85.0752V86.3643H174.369V85.0752H178.837ZM175.658 83.1343H177.423V90.8101C177.423 91.0542 177.458 91.2422 177.526 91.374C177.599 91.501 177.699 91.5864 177.826 91.6304C177.953 91.6743 178.102 91.6963 178.273 91.6963C178.395 91.6963 178.512 91.689 178.625 91.6743C178.737 91.6597 178.827 91.645 178.896 91.6304L178.903 92.978C178.756 93.022 178.585 93.061 178.39 93.0952C178.2 93.1294 177.98 93.1465 177.731 93.1465C177.326 93.1465 176.967 93.0757 176.654 92.9341C176.342 92.7876 176.098 92.5508 175.922 92.2236C175.746 91.8965 175.658 91.4619 175.658 90.9199V83.1343ZM183.832 85.0752V86.3643H179.364V85.0752H183.832ZM180.653 83.1343H182.418V90.8101C182.418 91.0542 182.453 91.2422 182.521 91.374C182.594 91.501 182.694 91.5864 182.821 91.6304C182.948 91.6743 183.097 91.6963 183.268 91.6963C183.39 91.6963 183.507 91.689 183.62 91.6743C183.732 91.6597 183.822 91.645 183.891 91.6304L183.898 92.978C183.751 93.022 183.581 93.061 183.385 93.0952C183.195 93.1294 182.975 93.1465 182.726 93.1465C182.321 93.1465 181.962 93.0757 181.649 92.9341C181.337 92.7876 181.093 92.5508 180.917 92.2236C180.741 91.8965 180.653 91.4619 180.653 90.9199V83.1343ZM187.084 85.0752V93H185.312V85.0752H187.084ZM185.194 82.9951C185.194 82.7266 185.282 82.5044 185.458 82.3286C185.639 82.1479 185.888 82.0576 186.205 82.0576C186.518 82.0576 186.764 82.1479 186.945 82.3286C187.125 82.5044 187.216 82.7266 187.216 82.9951C187.216 83.2588 187.125 83.4785 186.945 83.6543C186.764 83.8301 186.518 83.918 186.205 83.918C185.888 83.918 185.639 83.8301 185.458 83.6543C185.282 83.4785 185.194 83.2588 185.194 82.9951ZM190.768 86.7671V93H189.003V85.0752H190.666L190.768 86.7671ZM190.453 88.7446L189.882 88.7373C189.887 88.1758 189.965 87.6606 190.116 87.1919C190.272 86.7231 190.487 86.3203 190.761 85.9834C191.039 85.6465 191.371 85.3877 191.757 85.207C192.143 85.0215 192.572 84.9287 193.046 84.9287C193.427 84.9287 193.771 84.9824 194.079 85.0898C194.391 85.1924 194.657 85.3608 194.877 85.5952C195.102 85.8296 195.272 86.1348 195.39 86.5107C195.507 86.8818 195.565 87.3384 195.565 87.8804V93H193.793V87.873C193.793 87.4922 193.737 87.1919 193.625 86.9722C193.517 86.7476 193.358 86.5889 193.148 86.4961C192.943 86.3984 192.687 86.3496 192.379 86.3496C192.077 86.3496 191.806 86.4131 191.566 86.54C191.327 86.667 191.125 86.8403 190.958 87.0601C190.797 87.2798 190.673 87.5337 190.585 87.8218C190.497 88.1099 190.453 88.4175 190.453 88.7446ZM202.443 85.0752H204.047V92.7803C204.047 93.4932 203.896 94.0986 203.593 94.5967C203.29 95.0947 202.868 95.4731 202.326 95.7319C201.784 95.9956 201.156 96.1274 200.443 96.1274C200.141 96.1274 199.804 96.0835 199.433 95.9956C199.066 95.9077 198.71 95.7661 198.363 95.5708C198.021 95.3804 197.736 95.1289 197.506 94.8164L198.334 93.7764C198.617 94.1133 198.93 94.3599 199.271 94.5161C199.613 94.6724 199.972 94.7505 200.348 94.7505C200.753 94.7505 201.098 94.6748 201.381 94.5234C201.669 94.377 201.891 94.1597 202.047 93.8716C202.204 93.5835 202.282 93.2319 202.282 92.8169V86.8696L202.443 85.0752ZM197.06 89.1255V88.9717C197.06 88.3711 197.133 87.8242 197.279 87.3311C197.426 86.833 197.636 86.4058 197.909 86.0493C198.183 85.688 198.515 85.4121 198.905 85.2217C199.296 85.0264 199.738 84.9287 200.231 84.9287C200.744 84.9287 201.181 85.0215 201.542 85.207C201.908 85.3926 202.213 85.6587 202.458 86.0054C202.702 86.3472 202.892 86.7573 203.029 87.2358C203.17 87.7095 203.275 88.2368 203.344 88.8179V89.3086C203.28 89.875 203.173 90.3926 203.021 90.8613C202.87 91.3301 202.67 91.7354 202.421 92.0771C202.172 92.4189 201.864 92.6826 201.498 92.8682C201.137 93.0537 200.709 93.1465 200.216 93.1465C199.733 93.1465 199.296 93.0464 198.905 92.8462C198.52 92.646 198.188 92.3652 197.909 92.0039C197.636 91.6426 197.426 91.2178 197.279 90.7295C197.133 90.2363 197.06 89.7017 197.06 89.1255ZM198.825 88.9717V89.1255C198.825 89.4868 198.859 89.8237 198.927 90.1362C199 90.4487 199.11 90.7246 199.257 90.9639C199.408 91.1982 199.599 91.3838 199.828 91.5205C200.062 91.6523 200.338 91.7183 200.656 91.7183C201.071 91.7183 201.41 91.6304 201.674 91.4546C201.942 91.2788 202.147 91.042 202.289 90.7441C202.436 90.4414 202.538 90.1045 202.597 89.7334V88.4077C202.567 88.1196 202.506 87.8511 202.414 87.6021C202.326 87.353 202.206 87.1357 202.055 86.9502C201.903 86.7598 201.713 86.6133 201.483 86.5107C201.254 86.4033 200.983 86.3496 200.67 86.3496C200.353 86.3496 200.077 86.418 199.843 86.5547C199.608 86.6914 199.416 86.8794 199.264 87.1187C199.118 87.3579 199.008 87.6362 198.935 87.9536C198.861 88.271 198.825 88.6104 198.825 88.9717ZM210.324 90.854C210.324 90.6782 210.28 90.5195 210.192 90.3779C210.104 90.2314 209.936 90.0996 209.687 89.9824C209.442 89.8652 209.081 89.7578 208.603 89.6602C208.183 89.5674 207.797 89.4575 207.445 89.3306C207.099 89.1987 206.801 89.04 206.552 88.8545C206.303 88.6689 206.11 88.4492 205.973 88.1953C205.836 87.9414 205.768 87.6484 205.768 87.3164C205.768 86.9941 205.839 86.689 205.98 86.4009C206.122 86.1128 206.325 85.8589 206.588 85.6392C206.852 85.4194 207.172 85.2461 207.548 85.1191C207.929 84.9922 208.354 84.9287 208.822 84.9287C209.486 84.9287 210.055 85.041 210.529 85.2656C211.007 85.4854 211.374 85.7856 211.627 86.1665C211.881 86.5425 212.008 86.9673 212.008 87.4409H210.243C210.243 87.231 210.189 87.0356 210.082 86.855C209.979 86.6694 209.823 86.5205 209.613 86.4082C209.403 86.291 209.14 86.2324 208.822 86.2324C208.52 86.2324 208.268 86.2812 208.068 86.3789C207.873 86.4717 207.726 86.5938 207.628 86.7451C207.536 86.8965 207.489 87.0625 207.489 87.2432C207.489 87.375 207.514 87.4946 207.562 87.6021C207.616 87.7046 207.704 87.7998 207.826 87.8877C207.948 87.9707 208.114 88.0488 208.324 88.1221C208.539 88.1953 208.808 88.2661 209.13 88.3345C209.735 88.4614 210.255 88.625 210.69 88.8252C211.129 89.0205 211.466 89.2744 211.701 89.5869C211.935 89.8945 212.052 90.2852 212.052 90.7588C212.052 91.1104 211.977 91.4326 211.825 91.7256C211.679 92.0137 211.464 92.2651 211.181 92.48C210.897 92.6899 210.558 92.8535 210.163 92.9707C209.772 93.0879 209.333 93.1465 208.844 93.1465C208.126 93.1465 207.519 93.0195 207.021 92.7656C206.522 92.5068 206.144 92.1772 205.885 91.7769C205.631 91.3716 205.504 90.9517 205.504 90.5171H207.211C207.23 90.8442 207.321 91.1055 207.482 91.3008C207.648 91.4912 207.853 91.6304 208.097 91.7183C208.346 91.8013 208.603 91.8428 208.866 91.8428C209.184 91.8428 209.45 91.8013 209.665 91.7183C209.879 91.6304 210.043 91.5132 210.155 91.3667C210.268 91.2153 210.324 91.0444 210.324 90.854Z" fill="#1A1A1A"/>
<rect x="658" y="78" width="36" height="20" rx="10" fill="#E6E6E6"/>
<path d="M675 88C675 91.866 671.866 95 668 95C664.134 95 661 91.866 661 88C661 84.134 664.134 81 668 81C671.866 81 675 84.134 675 88Z" fill="white"/>
<defs>
<filter id="filter0_ddd_2314_41944" x="0" y="0" width="806" height="248" filterUnits="userSpaceOnUse" color-interpolation-filters="sRGB">
<feFlood flood-opacity="0" result="BackgroundImageFix"/>
<feColorMatrix in="SourceAlpha" type="matrix" values="0 0 0 0 0 0 0 0 0 0 0 0 0 0 0 0 0 0 127 0" result="hardAlpha"/>
<feOffset dy="2.39404"/>
<feGaussianBlur stdDeviation="2.66004"/>
<feColorMatrix type="matrix" values="0 0 0 0 0 0 0 0 0 0 0 0 0 0 0 0 0 0 0.0201946 0"/>
<feBlend mode="normal" in2="BackgroundImageFix" result="effect1_dropShadow_2314_41944"/>
<feColorMatrix in="SourceAlpha" type="matrix" values="0 0 0 0 0 0 0 0 0 0 0 0 0 0 0 0 0 0 127 0" result="hardAlpha"/>
<feOffset dy="8.04107"/>
<feGaussianBlur stdDeviation="8.93452"/>
<feColorMatrix type="matrix" values="0 0 0 0 0 0 0 0 0 0 0 0 0 0 0 0 0 0 0.0298054 0"/>
<feBlend mode="normal" in2="effect1_dropShadow_2314_41944" result="effect2_dropShadow_2314_41944"/>
<feColorMatrix in="SourceAlpha" type="matrix" values="0 0 0 0 0 0 0 0 0 0 0 0 0 0 0 0 0 0 127 0" result="hardAlpha"/>
<feOffset dy="36"/>
<feGaussianBlur stdDeviation="40"/>
<feColorMatrix type="matrix" values="0 0 0 0 0 0 0 0 0 0 0 0 0 0 0 0 0 0 0.05 0"/>
<feBlend mode="normal" in2="effect2_dropShadow_2314_41944" result="effect3_dropShadow_2314_41944"/>
<feBlend mode="normal" in="SourceGraphic" in2="effect3_dropShadow_2314_41944" result="shape"/>
</filter>
</defs>
</svg>
