<svg width="1280" height="312" viewBox="0 0 1280 312" fill="none" xmlns="http://www.w3.org/2000/svg">
<g clip-path="url(#clip0_13342_1391)">
<rect x="-0.5" y="-0.5" width="641" height="313" fill="white"/>
<rect x="-0.5" y="-0.5" width="641" height="313" stroke="#E6E6E6"/>
<rect width="640" height="44" fill="#F8F8F8"/>
<path d="M37.8018 23.6196C37.8018 23.4292 37.7721 23.2599 37.7129 23.1118C37.6579 22.9637 37.5584 22.8283 37.4146 22.7056C37.2707 22.5828 37.0675 22.4644 36.8052 22.3501C36.547 22.2316 36.217 22.111 35.8149 21.9883C35.3748 21.8529 34.9686 21.7026 34.5962 21.5376C34.228 21.3683 33.9064 21.1737 33.6313 20.9536C33.3563 20.7293 33.1426 20.4733 32.9902 20.1855C32.8379 19.8936 32.7617 19.5571 32.7617 19.1763C32.7617 18.7996 32.84 18.4569 32.9966 18.1479C33.1574 17.839 33.3838 17.5724 33.6758 17.3481C33.972 17.1196 34.3211 16.944 34.7231 16.8213C35.1252 16.6943 35.5695 16.6309 36.0562 16.6309C36.7417 16.6309 37.332 16.7578 37.8271 17.0117C38.3265 17.2656 38.7095 17.6063 38.9761 18.0337C39.2469 18.4611 39.3823 18.9329 39.3823 19.4492H37.8018C37.8018 19.1445 37.7362 18.8758 37.605 18.6431C37.478 18.4061 37.2834 18.2199 37.021 18.0845C36.7629 17.9491 36.4349 17.8813 36.0371 17.8813C35.6605 17.8813 35.3473 17.9385 35.0977 18.0527C34.848 18.167 34.6618 18.3215 34.5391 18.5161C34.4163 18.7108 34.355 18.9308 34.355 19.1763C34.355 19.3498 34.3952 19.5085 34.4756 19.6523C34.556 19.792 34.6787 19.9232 34.8438 20.0459C35.0088 20.1644 35.2161 20.2765 35.4658 20.3823C35.7155 20.4881 36.0096 20.5897 36.3481 20.687C36.8602 20.8394 37.3066 21.0086 37.6875 21.1948C38.0684 21.3768 38.3857 21.5841 38.6396 21.8169C38.8936 22.0496 39.084 22.3141 39.2109 22.6104C39.3379 22.9023 39.4014 23.2345 39.4014 23.6069C39.4014 23.9963 39.3231 24.3475 39.1665 24.6606C39.0099 24.9696 38.7856 25.234 38.4937 25.4541C38.2059 25.6699 37.8589 25.8371 37.4526 25.9556C37.0506 26.0698 36.6021 26.127 36.1069 26.127C35.6626 26.127 35.2246 26.0677 34.793 25.9492C34.3656 25.8307 33.9762 25.6509 33.625 25.4097C33.2738 25.1642 32.9945 24.8595 32.7871 24.4956C32.5798 24.1274 32.4761 23.6979 32.4761 23.207H34.0693C34.0693 23.5075 34.1201 23.7635 34.2217 23.9751C34.3275 24.1867 34.4735 24.3602 34.6597 24.4956C34.8459 24.6268 35.0617 24.7241 35.3071 24.7876C35.5568 24.8511 35.8234 24.8828 36.1069 24.8828C36.4793 24.8828 36.7904 24.8299 37.04 24.7241C37.2939 24.6183 37.4844 24.4702 37.6113 24.2798C37.7383 24.0894 37.8018 23.8693 37.8018 23.6196ZM47.8599 24.7368V26H42.9531V24.7368H47.8599ZM43.4038 16.7578V26H41.8105V16.7578H43.4038ZM47.2188 20.6172V21.8613H42.9531V20.6172H47.2188ZM47.8281 16.7578V18.0273H42.9531V16.7578H47.8281ZM55.9502 24.7368V26H51.3101V24.7368H55.9502ZM51.7544 16.7578V26H50.1611V16.7578H51.7544ZM64.231 24.7368V26H59.3242V24.7368H64.231ZM59.7749 16.7578V26H58.1816V16.7578H59.7749ZM63.5898 20.6172V21.8613H59.3242V20.6172H63.5898ZM64.1992 16.7578V18.0273H59.3242V16.7578H64.1992ZM71.9912 22.9912H73.5781C73.5273 23.5964 73.3581 24.1359 73.0703 24.6099C72.7826 25.0796 72.3784 25.4499 71.8579 25.7207C71.3374 25.9915 70.7048 26.127 69.96 26.127C69.3887 26.127 68.8745 26.0254 68.4175 25.8223C67.9604 25.6149 67.569 25.3229 67.2432 24.9463C66.9173 24.5654 66.6676 24.1063 66.4941 23.5688C66.3249 23.0314 66.2402 22.4305 66.2402 21.7661V20.998C66.2402 20.3337 66.327 19.7327 66.5005 19.1953C66.6782 18.6579 66.9321 18.1987 67.2622 17.8179C67.5923 17.4328 67.988 17.1387 68.4492 16.9355C68.9147 16.7324 69.4373 16.6309 70.0171 16.6309C70.7534 16.6309 71.3755 16.7663 71.8833 17.0371C72.3911 17.3079 72.7847 17.6825 73.064 18.1606C73.3475 18.6388 73.521 19.1868 73.5845 19.8047H71.9976C71.9552 19.4069 71.8621 19.0662 71.7183 18.7827C71.5786 18.4992 71.3713 18.2834 71.0962 18.1353C70.8211 17.9829 70.4614 17.9067 70.0171 17.9067C69.6532 17.9067 69.3358 17.9744 69.0649 18.1099C68.7941 18.2453 68.5677 18.4442 68.3857 18.7065C68.2038 18.9689 68.0662 19.2926 67.9731 19.6777C67.8843 20.0586 67.8398 20.4945 67.8398 20.9854V21.7661C67.8398 22.2316 67.88 22.6548 67.9604 23.0356C68.0451 23.4123 68.172 23.736 68.3413 24.0068C68.5148 24.2777 68.7349 24.4871 69.0015 24.6353C69.2681 24.7834 69.5876 24.8574 69.96 24.8574C70.4128 24.8574 70.7788 24.7855 71.0581 24.6416C71.3416 24.4977 71.5553 24.2882 71.6992 24.0132C71.8473 23.7339 71.9447 23.3932 71.9912 22.9912ZM79.6372 16.7578V26H78.0566V16.7578H79.6372ZM82.5381 16.7578V18.0273H75.1812V16.7578H82.5381Z" fill="#505050"/>
<path d="M207.109 156.731V157.728H202.107V156.731H207.109ZM202.298 152.758V162H201.073V152.758H202.298ZM208.176 152.758V162H206.957V152.758H208.176ZM213.025 162.127C212.547 162.127 212.113 162.047 211.724 161.886C211.339 161.721 211.007 161.49 210.728 161.194C210.452 160.898 210.241 160.546 210.093 160.14C209.945 159.734 209.871 159.29 209.871 158.807V158.541C209.871 157.982 209.953 157.485 210.118 157.049C210.283 156.609 210.507 156.236 210.791 155.932C211.075 155.627 211.396 155.396 211.756 155.24C212.116 155.083 212.488 155.005 212.873 155.005C213.364 155.005 213.787 155.09 214.143 155.259C214.502 155.428 214.796 155.665 215.025 155.97C215.253 156.27 215.423 156.626 215.533 157.036C215.643 157.442 215.698 157.887 215.698 158.369V158.896H210.569V157.938H214.523V157.849C214.507 157.544 214.443 157.248 214.333 156.96C214.227 156.672 214.058 156.435 213.825 156.249C213.592 156.063 213.275 155.97 212.873 155.97C212.606 155.97 212.361 156.027 212.137 156.141C211.912 156.251 211.72 156.416 211.559 156.636C211.398 156.856 211.273 157.125 211.185 157.442C211.096 157.76 211.051 158.126 211.051 158.541V158.807C211.051 159.133 211.096 159.44 211.185 159.728C211.278 160.011 211.411 160.261 211.584 160.477C211.762 160.692 211.976 160.862 212.226 160.984C212.479 161.107 212.767 161.168 213.089 161.168C213.504 161.168 213.855 161.084 214.143 160.915C214.43 160.745 214.682 160.519 214.898 160.235L215.609 160.8C215.461 161.025 215.272 161.238 215.044 161.441C214.815 161.645 214.534 161.81 214.2 161.937C213.87 162.063 213.478 162.127 213.025 162.127ZM218.345 152.25V162H217.164V152.25H218.345ZM221.404 156.452V164.641H220.224V155.132H221.303L221.404 156.452ZM226.032 158.509V158.642C226.032 159.141 225.972 159.605 225.854 160.032C225.736 160.455 225.562 160.824 225.333 161.137C225.109 161.45 224.832 161.693 224.502 161.867C224.172 162.04 223.793 162.127 223.366 162.127C222.93 162.127 222.545 162.055 222.21 161.911C221.876 161.767 221.593 161.558 221.36 161.283C221.127 161.008 220.941 160.678 220.801 160.292C220.666 159.907 220.573 159.474 220.522 158.991V158.28C220.573 157.772 220.668 157.318 220.808 156.916C220.947 156.514 221.131 156.171 221.36 155.887C221.593 155.599 221.874 155.382 222.204 155.233C222.534 155.081 222.915 155.005 223.347 155.005C223.778 155.005 224.161 155.09 224.496 155.259C224.83 155.424 225.111 155.661 225.34 155.97C225.568 156.279 225.74 156.649 225.854 157.081C225.972 157.508 226.032 157.984 226.032 158.509ZM224.851 158.642V158.509C224.851 158.166 224.815 157.844 224.743 157.544C224.671 157.239 224.559 156.973 224.407 156.744C224.259 156.511 224.068 156.329 223.835 156.198C223.603 156.063 223.326 155.995 223.004 155.995C222.708 155.995 222.45 156.046 222.229 156.147C222.014 156.249 221.83 156.387 221.677 156.56C221.525 156.729 221.4 156.924 221.303 157.144C221.21 157.36 221.14 157.584 221.093 157.817V159.461C221.178 159.757 221.296 160.036 221.449 160.299C221.601 160.557 221.804 160.766 222.058 160.927C222.312 161.084 222.632 161.162 223.017 161.162C223.334 161.162 223.607 161.097 223.835 160.965C224.068 160.83 224.259 160.646 224.407 160.413C224.559 160.18 224.671 159.914 224.743 159.613C224.815 159.309 224.851 158.985 224.851 158.642ZM233.63 155.132V156.033H229.917V155.132H233.63ZM231.173 153.462H232.348V160.299C232.348 160.532 232.384 160.707 232.456 160.826C232.528 160.944 232.621 161.022 232.735 161.061C232.849 161.099 232.972 161.118 233.103 161.118C233.2 161.118 233.302 161.109 233.408 161.092C233.518 161.071 233.6 161.054 233.655 161.042L233.662 162C233.569 162.03 233.446 162.057 233.293 162.083C233.145 162.112 232.965 162.127 232.754 162.127C232.466 162.127 232.202 162.07 231.96 161.956C231.719 161.841 231.527 161.651 231.383 161.384C231.243 161.113 231.173 160.75 231.173 160.292V153.462ZM237.857 162.127C237.379 162.127 236.945 162.047 236.556 161.886C236.171 161.721 235.839 161.49 235.56 161.194C235.285 160.898 235.073 160.546 234.925 160.14C234.777 159.734 234.703 159.29 234.703 158.807V158.541C234.703 157.982 234.785 157.485 234.95 157.049C235.115 156.609 235.34 156.236 235.623 155.932C235.907 155.627 236.228 155.396 236.588 155.24C236.948 155.083 237.32 155.005 237.705 155.005C238.196 155.005 238.619 155.09 238.975 155.259C239.334 155.428 239.628 155.665 239.857 155.97C240.085 156.27 240.255 156.626 240.365 157.036C240.475 157.442 240.53 157.887 240.53 158.369V158.896H235.401V157.938H239.355V157.849C239.339 157.544 239.275 157.248 239.165 156.96C239.059 156.672 238.89 156.435 238.657 156.249C238.424 156.063 238.107 155.97 237.705 155.97C237.438 155.97 237.193 156.027 236.969 156.141C236.744 156.251 236.552 156.416 236.391 156.636C236.23 156.856 236.105 157.125 236.017 157.442C235.928 157.76 235.883 158.126 235.883 158.541V158.807C235.883 159.133 235.928 159.44 236.017 159.728C236.11 160.011 236.243 160.261 236.417 160.477C236.594 160.692 236.808 160.862 237.058 160.984C237.312 161.107 237.599 161.168 237.921 161.168C238.336 161.168 238.687 161.084 238.975 160.915C239.262 160.745 239.514 160.519 239.73 160.235L240.441 160.8C240.293 161.025 240.104 161.238 239.876 161.441C239.647 161.645 239.366 161.81 239.032 161.937C238.702 162.063 238.31 162.127 237.857 162.127ZM242.694 155.132L244.199 157.633L245.722 155.132H247.1L244.853 158.521L247.169 162H245.811L244.224 159.423L242.637 162H241.272L243.583 158.521L241.342 155.132H242.694ZM251.226 155.132V156.033H247.512V155.132H251.226ZM248.769 153.462H249.943V160.299C249.943 160.532 249.979 160.707 250.051 160.826C250.123 160.944 250.216 161.022 250.331 161.061C250.445 161.099 250.568 161.118 250.699 161.118C250.796 161.118 250.898 161.109 251.003 161.092C251.113 161.071 251.196 161.054 251.251 161.042L251.257 162C251.164 162.03 251.042 162.057 250.889 162.083C250.741 162.112 250.561 162.127 250.35 162.127C250.062 162.127 249.797 162.07 249.556 161.956C249.315 161.841 249.122 161.651 248.979 161.384C248.839 161.113 248.769 160.75 248.769 160.292V153.462Z" fill="#505050"/>
<rect x="200" y="104" width="240" height="40" rx="4" fill="white"/>
<path d="M201 108C201 106.343 202.343 105 204 105H436C437.657 105 439 106.343 439 108V140C439 141.657 437.657 143 436 143H204C202.343 143 201 141.657 201 140V108Z" fill="white"/>
<path d="M201 108C201 106.343 202.343 105 204 105H436C437.657 105 439 106.343 439 108V140C439 141.657 437.657 143 436 143H204C202.343 143 201 141.657 201 140V108Z" stroke="#0059FF" stroke-width="2"/>
<path d="M222.921 126.305C222.921 126.056 222.882 125.836 222.804 125.646C222.731 125.45 222.599 125.274 222.409 125.118C222.223 124.962 221.964 124.813 221.632 124.671C221.305 124.53 220.89 124.386 220.387 124.239C219.86 124.083 219.384 123.91 218.959 123.719C218.534 123.524 218.17 123.302 217.868 123.053C217.565 122.804 217.333 122.518 217.172 122.196C217.011 121.874 216.93 121.505 216.93 121.09C216.93 120.675 217.016 120.292 217.187 119.94C217.357 119.588 217.602 119.283 217.919 119.024C218.241 118.761 218.625 118.556 219.069 118.409C219.513 118.263 220.009 118.189 220.556 118.189C221.356 118.189 222.035 118.343 222.592 118.651C223.153 118.954 223.581 119.352 223.874 119.845C224.167 120.333 224.313 120.855 224.313 121.412H222.907C222.907 121.012 222.821 120.658 222.65 120.35C222.479 120.038 222.221 119.793 221.874 119.618C221.527 119.437 221.088 119.347 220.556 119.347C220.053 119.347 219.638 119.422 219.311 119.574C218.983 119.725 218.739 119.93 218.578 120.189C218.422 120.448 218.344 120.743 218.344 121.075C218.344 121.3 218.39 121.505 218.483 121.69C218.581 121.871 218.729 122.04 218.93 122.196C219.135 122.352 219.394 122.496 219.706 122.628C220.023 122.76 220.402 122.887 220.841 123.009C221.447 123.18 221.969 123.37 222.409 123.58C222.848 123.79 223.209 124.027 223.493 124.291C223.781 124.549 223.993 124.845 224.13 125.177C224.271 125.504 224.342 125.875 224.342 126.29C224.342 126.725 224.254 127.118 224.079 127.469C223.903 127.821 223.651 128.121 223.324 128.37C222.997 128.619 222.604 128.812 222.145 128.949C221.691 129.081 221.183 129.146 220.622 129.146C220.128 129.146 219.643 129.078 219.164 128.941C218.69 128.805 218.258 128.6 217.868 128.326C217.482 128.053 217.172 127.716 216.938 127.315C216.708 126.91 216.593 126.441 216.593 125.909H218C218 126.275 218.07 126.59 218.212 126.854C218.354 127.113 218.546 127.328 218.791 127.499C219.04 127.669 219.32 127.796 219.633 127.879C219.95 127.958 220.28 127.997 220.622 127.997C221.115 127.997 221.532 127.928 221.874 127.792C222.216 127.655 222.475 127.459 222.65 127.206C222.831 126.952 222.921 126.651 222.921 126.305ZM229.228 129.146C228.676 129.146 228.175 129.054 227.726 128.868C227.282 128.678 226.898 128.412 226.576 128.07C226.259 127.728 226.015 127.323 225.844 126.854C225.673 126.385 225.587 125.873 225.587 125.316V125.008C225.587 124.364 225.683 123.79 225.873 123.287C226.063 122.779 226.322 122.35 226.649 121.998C226.977 121.646 227.348 121.38 227.763 121.2C228.178 121.019 228.607 120.929 229.052 120.929C229.618 120.929 230.106 121.026 230.517 121.222C230.932 121.417 231.271 121.69 231.535 122.042C231.798 122.389 231.994 122.799 232.121 123.272C232.248 123.741 232.311 124.254 232.311 124.811V125.418H226.393V124.312H230.956V124.21C230.937 123.858 230.863 123.517 230.736 123.185C230.614 122.853 230.419 122.579 230.15 122.364C229.882 122.149 229.516 122.042 229.052 122.042C228.744 122.042 228.461 122.108 228.202 122.24C227.943 122.367 227.721 122.557 227.536 122.811C227.35 123.065 227.206 123.375 227.104 123.741C227.001 124.107 226.95 124.53 226.95 125.008V125.316C226.95 125.692 227.001 126.046 227.104 126.378C227.211 126.705 227.365 126.993 227.565 127.242C227.77 127.491 228.017 127.687 228.305 127.828C228.598 127.97 228.93 128.041 229.301 128.041C229.779 128.041 230.185 127.943 230.517 127.748C230.849 127.552 231.139 127.291 231.388 126.964L232.208 127.616C232.038 127.875 231.82 128.121 231.557 128.355C231.293 128.59 230.968 128.78 230.583 128.927C230.202 129.073 229.75 129.146 229.228 129.146ZM235.365 117.75V129H234.003V117.75H235.365ZM240.829 129.146C240.277 129.146 239.777 129.054 239.328 128.868C238.883 128.678 238.5 128.412 238.178 128.07C237.86 127.728 237.616 127.323 237.445 126.854C237.274 126.385 237.189 125.873 237.189 125.316V125.008C237.189 124.364 237.284 123.79 237.475 123.287C237.665 122.779 237.924 122.35 238.251 121.998C238.578 121.646 238.949 121.38 239.364 121.2C239.779 121.019 240.209 120.929 240.653 120.929C241.22 120.929 241.708 121.026 242.118 121.222C242.533 121.417 242.873 121.69 243.136 122.042C243.4 122.389 243.595 122.799 243.722 123.272C243.849 123.741 243.913 124.254 243.913 124.811V125.418H237.995V124.312H242.558V124.21C242.538 123.858 242.465 123.517 242.338 123.185C242.216 122.853 242.021 122.579 241.752 122.364C241.483 122.149 241.117 122.042 240.653 122.042C240.346 122.042 240.062 122.108 239.804 122.24C239.545 122.367 239.323 122.557 239.137 122.811C238.952 123.065 238.808 123.375 238.705 123.741C238.603 124.107 238.551 124.53 238.551 125.008V125.316C238.551 125.692 238.603 126.046 238.705 126.378C238.812 126.705 238.966 126.993 239.167 127.242C239.372 127.491 239.618 127.687 239.906 127.828C240.199 127.97 240.531 128.041 240.902 128.041C241.381 128.041 241.786 127.943 242.118 127.748C242.45 127.552 242.741 127.291 242.99 126.964L243.81 127.616C243.639 127.875 243.422 128.121 243.158 128.355C242.895 128.59 242.57 128.78 242.184 128.927C241.803 129.073 241.352 129.146 240.829 129.146ZM248.666 128.033C248.988 128.033 249.286 127.967 249.56 127.835C249.833 127.704 250.058 127.523 250.233 127.293C250.409 127.059 250.509 126.793 250.534 126.495H251.823C251.798 126.964 251.64 127.401 251.347 127.806C251.059 128.207 250.68 128.531 250.211 128.78C249.743 129.024 249.228 129.146 248.666 129.146C248.07 129.146 247.55 129.042 247.106 128.832C246.667 128.622 246.3 128.333 246.007 127.967C245.719 127.601 245.502 127.181 245.355 126.708C245.214 126.229 245.143 125.724 245.143 125.191V124.884C245.143 124.352 245.214 123.849 245.355 123.375C245.502 122.896 245.719 122.474 246.007 122.108C246.3 121.742 246.667 121.454 247.106 121.244C247.55 121.034 248.07 120.929 248.666 120.929C249.286 120.929 249.828 121.056 250.292 121.31C250.756 121.559 251.12 121.9 251.383 122.335C251.652 122.765 251.798 123.253 251.823 123.8H250.534C250.509 123.473 250.417 123.177 250.255 122.914C250.099 122.65 249.884 122.44 249.611 122.284C249.342 122.123 249.027 122.042 248.666 122.042C248.251 122.042 247.902 122.125 247.619 122.291C247.34 122.452 247.118 122.672 246.952 122.95C246.791 123.224 246.674 123.529 246.601 123.866C246.532 124.198 246.498 124.537 246.498 124.884V125.191C246.498 125.538 246.532 125.88 246.601 126.217C246.669 126.554 246.784 126.859 246.945 127.132C247.111 127.406 247.333 127.625 247.611 127.792C247.895 127.953 248.246 128.033 248.666 128.033ZM256.664 121.075V122.115H252.379V121.075H256.664ZM253.83 119.149H255.185V127.037C255.185 127.306 255.226 127.508 255.309 127.645C255.392 127.782 255.5 127.872 255.631 127.916C255.763 127.96 255.905 127.982 256.056 127.982C256.168 127.982 256.286 127.972 256.408 127.953C256.535 127.928 256.63 127.909 256.693 127.894L256.701 129C256.593 129.034 256.452 129.066 256.276 129.095C256.105 129.129 255.897 129.146 255.653 129.146C255.321 129.146 255.016 129.081 254.738 128.949C254.459 128.817 254.237 128.597 254.071 128.29C253.91 127.977 253.83 127.557 253.83 127.03V119.149Z" fill="#1A1A1A"/>
<path d="M414.285 125.285L419.535 120.281C419.681 120.117 419.836 120.035 420 120.035C420.164 120.035 420.319 120.099 420.465 120.227L425.688 125.23C425.943 125.54 425.943 125.85 425.688 126.16C425.396 126.415 425.086 126.424 424.758 126.188L420 121.621L415.215 126.215C414.887 126.47 414.577 126.461 414.285 126.188C414.03 125.878 414.03 125.577 414.285 125.285Z" fill="#737373"/>
<g filter="url(#filter0_ddd_13342_1391)">
<path d="M200 152C200 147.582 203.582 144 208 144H432C436.418 144 440 147.582 440 152V216C440 220.418 436.418 224 432 224H208C203.582 224 200 220.418 200 216V152Z" fill="white"/>
<path d="M224.188 167.087V167.671C224.188 168.365 224.102 168.987 223.928 169.537C223.755 170.087 223.505 170.555 223.179 170.94C222.853 171.325 222.462 171.619 222.005 171.822C221.552 172.025 221.044 172.127 220.481 172.127C219.936 172.127 219.434 172.025 218.977 171.822C218.524 171.619 218.131 171.325 217.796 170.94C217.466 170.555 217.21 170.087 217.028 169.537C216.846 168.987 216.755 168.365 216.755 167.671V167.087C216.755 166.393 216.844 165.773 217.022 165.227C217.204 164.677 217.46 164.209 217.79 163.824C218.12 163.435 218.512 163.139 218.964 162.936C219.421 162.732 219.923 162.631 220.469 162.631C221.032 162.631 221.539 162.732 221.992 162.936C222.449 163.139 222.841 163.435 223.167 163.824C223.497 164.209 223.748 164.677 223.922 165.227C224.1 165.773 224.188 166.393 224.188 167.087ZM222.976 167.671V167.074C222.976 166.524 222.919 166.037 222.805 165.614C222.695 165.191 222.532 164.836 222.316 164.548C222.1 164.26 221.836 164.042 221.522 163.894C221.214 163.746 220.862 163.672 220.469 163.672C220.088 163.672 219.743 163.746 219.434 163.894C219.129 164.042 218.867 164.26 218.647 164.548C218.431 164.836 218.264 165.191 218.146 165.614C218.027 166.037 217.968 166.524 217.968 167.074V167.671C217.968 168.225 218.027 168.716 218.146 169.144C218.264 169.567 218.433 169.924 218.653 170.216C218.878 170.504 219.142 170.722 219.447 170.87C219.756 171.018 220.101 171.092 220.481 171.092C220.879 171.092 221.233 171.018 221.542 170.87C221.85 170.722 222.111 170.504 222.322 170.216C222.538 169.924 222.701 169.567 222.811 169.144C222.921 168.716 222.976 168.225 222.976 167.671ZM227.02 166.452V174.641H225.839V165.132H226.918L227.02 166.452ZM231.647 168.509V168.642C231.647 169.141 231.588 169.605 231.469 170.032C231.351 170.455 231.177 170.824 230.949 171.137C230.724 171.45 230.447 171.693 230.117 171.867C229.787 172.04 229.408 172.127 228.981 172.127C228.545 172.127 228.16 172.055 227.826 171.911C227.491 171.767 227.208 171.558 226.975 171.283C226.742 171.008 226.556 170.678 226.417 170.292C226.281 169.907 226.188 169.474 226.137 168.991V168.28C226.188 167.772 226.283 167.318 226.423 166.916C226.562 166.514 226.747 166.171 226.975 165.887C227.208 165.599 227.489 165.382 227.819 165.233C228.149 165.081 228.53 165.005 228.962 165.005C229.394 165.005 229.777 165.09 230.111 165.259C230.445 165.424 230.727 165.661 230.955 165.97C231.184 166.279 231.355 166.649 231.469 167.081C231.588 167.508 231.647 167.984 231.647 168.509ZM230.466 168.642V168.509C230.466 168.166 230.43 167.844 230.358 167.544C230.286 167.239 230.174 166.973 230.022 166.744C229.874 166.511 229.683 166.329 229.451 166.198C229.218 166.063 228.941 165.995 228.619 165.995C228.323 165.995 228.065 166.046 227.845 166.147C227.629 166.249 227.445 166.387 227.292 166.56C227.14 166.729 227.015 166.924 226.918 167.144C226.825 167.36 226.755 167.584 226.708 167.817V169.461C226.793 169.757 226.912 170.036 227.064 170.299C227.216 170.557 227.419 170.766 227.673 170.927C227.927 171.084 228.247 171.162 228.632 171.162C228.949 171.162 229.222 171.097 229.451 170.965C229.683 170.83 229.874 170.646 230.022 170.413C230.174 170.18 230.286 169.914 230.358 169.613C230.43 169.309 230.466 168.985 230.466 168.642ZM236.021 165.132V166.033H232.307V165.132H236.021ZM233.564 163.462H234.738V170.299C234.738 170.532 234.774 170.707 234.846 170.826C234.918 170.944 235.011 171.022 235.125 171.061C235.24 171.099 235.362 171.118 235.494 171.118C235.591 171.118 235.693 171.109 235.798 171.092C235.908 171.071 235.991 171.054 236.046 171.042L236.052 172C235.959 172.03 235.836 172.057 235.684 172.083C235.536 172.112 235.356 172.127 235.145 172.127C234.857 172.127 234.592 172.07 234.351 171.956C234.11 171.841 233.917 171.651 233.773 171.384C233.634 171.113 233.564 170.75 233.564 170.292V163.462ZM238.674 165.132V172H237.493V165.132H238.674ZM237.404 163.31C237.404 163.12 237.461 162.959 237.576 162.828C237.694 162.696 237.868 162.631 238.096 162.631C238.32 162.631 238.492 162.696 238.61 162.828C238.733 162.959 238.794 163.12 238.794 163.31C238.794 163.492 238.733 163.649 238.61 163.78C238.492 163.907 238.32 163.97 238.096 163.97C237.868 163.97 237.694 163.907 237.576 163.78C237.461 163.649 237.404 163.492 237.404 163.31ZM240.248 168.642V168.496C240.248 168.001 240.32 167.542 240.464 167.119C240.608 166.691 240.815 166.321 241.086 166.008C241.357 165.69 241.685 165.445 242.07 165.271C242.455 165.094 242.887 165.005 243.365 165.005C243.847 165.005 244.281 165.094 244.666 165.271C245.055 165.445 245.385 165.69 245.656 166.008C245.931 166.321 246.141 166.691 246.285 167.119C246.429 167.542 246.5 168.001 246.5 168.496V168.642C246.5 169.137 246.429 169.596 246.285 170.02C246.141 170.443 245.931 170.813 245.656 171.13C245.385 171.444 245.057 171.689 244.672 171.867C244.292 172.04 243.86 172.127 243.377 172.127C242.895 172.127 242.461 172.04 242.076 171.867C241.691 171.689 241.361 171.444 241.086 171.13C240.815 170.813 240.608 170.443 240.464 170.02C240.32 169.596 240.248 169.137 240.248 168.642ZM241.422 168.496V168.642C241.422 168.985 241.463 169.309 241.543 169.613C241.623 169.914 241.744 170.18 241.905 170.413C242.07 170.646 242.275 170.83 242.521 170.965C242.766 171.097 243.052 171.162 243.377 171.162C243.699 171.162 243.98 171.097 244.222 170.965C244.467 170.83 244.67 170.646 244.831 170.413C244.992 170.18 245.112 169.914 245.193 169.613C245.278 169.309 245.32 168.985 245.32 168.642V168.496C245.32 168.158 245.278 167.838 245.193 167.538C245.112 167.233 244.99 166.964 244.825 166.731C244.664 166.494 244.461 166.308 244.215 166.173C243.974 166.037 243.691 165.97 243.365 165.97C243.043 165.97 242.76 166.037 242.514 166.173C242.273 166.308 242.07 166.494 241.905 166.731C241.744 166.964 241.623 167.233 241.543 167.538C241.463 167.838 241.422 168.158 241.422 168.496ZM249.147 166.598V172H247.973V165.132H249.084L249.147 166.598ZM248.868 168.306L248.379 168.287C248.384 167.817 248.453 167.383 248.589 166.985C248.724 166.583 248.915 166.234 249.16 165.938C249.406 165.642 249.698 165.413 250.036 165.252C250.379 165.087 250.758 165.005 251.172 165.005C251.511 165.005 251.816 165.051 252.086 165.145C252.357 165.233 252.588 165.377 252.778 165.576C252.973 165.775 253.121 166.033 253.223 166.351C253.324 166.664 253.375 167.047 253.375 167.5V172H252.194V167.487C252.194 167.127 252.141 166.839 252.036 166.624C251.93 166.403 251.775 166.245 251.572 166.147C251.369 166.046 251.119 165.995 250.823 165.995C250.531 165.995 250.265 166.056 250.023 166.179C249.786 166.302 249.581 166.471 249.408 166.687C249.238 166.903 249.105 167.15 249.008 167.43C248.915 167.705 248.868 167.997 248.868 168.306ZM265.677 167.087V167.671C265.677 168.365 265.59 168.987 265.417 169.537C265.243 170.087 264.993 170.555 264.667 170.94C264.342 171.325 263.95 171.619 263.493 171.822C263.04 172.025 262.533 172.127 261.97 172.127C261.424 172.127 260.922 172.025 260.465 171.822C260.013 171.619 259.619 171.325 259.285 170.94C258.955 170.555 258.699 170.087 258.517 169.537C258.335 168.987 258.244 168.365 258.244 167.671V167.087C258.244 166.393 258.333 165.773 258.51 165.227C258.692 164.677 258.948 164.209 259.278 163.824C259.608 163.435 260 163.139 260.453 162.936C260.91 162.732 261.411 162.631 261.957 162.631C262.52 162.631 263.028 162.732 263.48 162.936C263.938 163.139 264.329 163.435 264.655 163.824C264.985 164.209 265.237 164.677 265.41 165.227C265.588 165.773 265.677 166.393 265.677 167.087ZM264.464 167.671V167.074C264.464 166.524 264.407 166.037 264.293 165.614C264.183 165.191 264.02 164.836 263.804 164.548C263.588 164.26 263.324 164.042 263.011 163.894C262.702 163.746 262.351 163.672 261.957 163.672C261.576 163.672 261.231 163.746 260.922 163.894C260.618 164.042 260.355 164.26 260.135 164.548C259.919 164.836 259.752 165.191 259.634 165.614C259.515 166.037 259.456 166.524 259.456 167.074V167.671C259.456 168.225 259.515 168.716 259.634 169.144C259.752 169.567 259.922 169.924 260.142 170.216C260.366 170.504 260.63 170.722 260.935 170.87C261.244 171.018 261.589 171.092 261.97 171.092C262.368 171.092 262.721 171.018 263.03 170.87C263.339 170.722 263.599 170.504 263.811 170.216C264.026 169.924 264.189 169.567 264.299 169.144C264.409 168.716 264.464 168.225 264.464 167.671ZM268.508 166.598V172H267.333V165.132H268.444L268.508 166.598ZM268.229 168.306L267.74 168.287C267.744 167.817 267.814 167.383 267.949 166.985C268.085 166.583 268.275 166.234 268.521 165.938C268.766 165.642 269.058 165.413 269.396 165.252C269.739 165.087 270.118 165.005 270.533 165.005C270.871 165.005 271.176 165.051 271.447 165.145C271.718 165.233 271.948 165.377 272.139 165.576C272.333 165.775 272.481 166.033 272.583 166.351C272.685 166.664 272.735 167.047 272.735 167.5V172H271.555V167.487C271.555 167.127 271.502 166.839 271.396 166.624C271.29 166.403 271.136 166.245 270.933 166.147C270.729 166.046 270.48 165.995 270.184 165.995C269.892 165.995 269.625 166.056 269.384 166.179C269.147 166.302 268.942 166.471 268.768 166.687C268.599 166.903 268.465 167.15 268.368 167.43C268.275 167.705 268.229 167.997 268.229 168.306ZM277.369 172.127C276.891 172.127 276.457 172.047 276.068 171.886C275.683 171.721 275.351 171.49 275.071 171.194C274.796 170.898 274.585 170.546 274.437 170.14C274.288 169.734 274.214 169.29 274.214 168.807V168.541C274.214 167.982 274.297 167.485 274.462 167.049C274.627 166.609 274.851 166.236 275.135 165.932C275.418 165.627 275.74 165.396 276.1 165.24C276.459 165.083 276.832 165.005 277.217 165.005C277.708 165.005 278.131 165.09 278.486 165.259C278.846 165.428 279.14 165.665 279.369 165.97C279.597 166.27 279.766 166.626 279.876 167.036C279.986 167.442 280.042 167.887 280.042 168.369V168.896H274.913V167.938H278.867V167.849C278.85 167.544 278.787 167.248 278.677 166.96C278.571 166.672 278.402 166.435 278.169 166.249C277.936 166.063 277.619 165.97 277.217 165.97C276.95 165.97 276.705 166.027 276.48 166.141C276.256 166.251 276.064 166.416 275.903 166.636C275.742 166.856 275.617 167.125 275.528 167.442C275.439 167.76 275.395 168.126 275.395 168.541V168.807C275.395 169.133 275.439 169.44 275.528 169.728C275.621 170.011 275.755 170.261 275.928 170.477C276.106 170.692 276.32 170.862 276.569 170.984C276.823 171.107 277.111 171.168 277.433 171.168C277.847 171.168 278.199 171.084 278.486 170.915C278.774 170.745 279.026 170.519 279.242 170.235L279.953 170.8C279.805 171.025 279.616 171.238 279.388 171.441C279.159 171.645 278.878 171.81 278.543 171.937C278.213 172.063 277.822 172.127 277.369 172.127Z" fill="#505050"/>
<path d="M224.188 199.087V199.671C224.188 200.365 224.102 200.987 223.928 201.537C223.755 202.087 223.505 202.555 223.179 202.94C222.853 203.325 222.462 203.619 222.005 203.822C221.552 204.025 221.044 204.127 220.481 204.127C219.936 204.127 219.434 204.025 218.977 203.822C218.524 203.619 218.131 203.325 217.796 202.94C217.466 202.555 217.21 202.087 217.028 201.537C216.846 200.987 216.755 200.365 216.755 199.671V199.087C216.755 198.393 216.844 197.773 217.022 197.227C217.204 196.677 217.46 196.209 217.79 195.824C218.12 195.435 218.512 195.139 218.964 194.936C219.421 194.732 219.923 194.631 220.469 194.631C221.032 194.631 221.539 194.732 221.992 194.936C222.449 195.139 222.841 195.435 223.167 195.824C223.497 196.209 223.748 196.677 223.922 197.227C224.1 197.773 224.188 198.393 224.188 199.087ZM222.976 199.671V199.074C222.976 198.524 222.919 198.037 222.805 197.614C222.695 197.191 222.532 196.836 222.316 196.548C222.1 196.26 221.836 196.042 221.522 195.894C221.214 195.746 220.862 195.672 220.469 195.672C220.088 195.672 219.743 195.746 219.434 195.894C219.129 196.042 218.867 196.26 218.647 196.548C218.431 196.836 218.264 197.191 218.146 197.614C218.027 198.037 217.968 198.524 217.968 199.074V199.671C217.968 200.225 218.027 200.716 218.146 201.144C218.264 201.567 218.433 201.924 218.653 202.216C218.878 202.504 219.142 202.722 219.447 202.87C219.756 203.018 220.101 203.092 220.481 203.092C220.879 203.092 221.233 203.018 221.542 202.87C221.85 202.722 222.111 202.504 222.322 202.216C222.538 201.924 222.701 201.567 222.811 201.144C222.921 200.716 222.976 200.225 222.976 199.671ZM227.02 198.452V206.641H225.839V197.132H226.918L227.02 198.452ZM231.647 200.509V200.642C231.647 201.141 231.588 201.605 231.469 202.032C231.351 202.455 231.177 202.824 230.949 203.137C230.724 203.45 230.447 203.693 230.117 203.867C229.787 204.04 229.408 204.127 228.981 204.127C228.545 204.127 228.16 204.055 227.826 203.911C227.491 203.767 227.208 203.558 226.975 203.283C226.742 203.008 226.556 202.678 226.417 202.292C226.281 201.907 226.188 201.474 226.137 200.991V200.28C226.188 199.772 226.283 199.318 226.423 198.916C226.562 198.514 226.747 198.171 226.975 197.887C227.208 197.599 227.489 197.382 227.819 197.233C228.149 197.081 228.53 197.005 228.962 197.005C229.394 197.005 229.777 197.09 230.111 197.259C230.445 197.424 230.727 197.661 230.955 197.97C231.184 198.279 231.355 198.649 231.469 199.081C231.588 199.508 231.647 199.984 231.647 200.509ZM230.466 200.642V200.509C230.466 200.166 230.43 199.844 230.358 199.544C230.286 199.239 230.174 198.973 230.022 198.744C229.874 198.511 229.683 198.329 229.451 198.198C229.218 198.063 228.941 197.995 228.619 197.995C228.323 197.995 228.065 198.046 227.845 198.147C227.629 198.249 227.445 198.387 227.292 198.56C227.14 198.729 227.015 198.924 226.918 199.144C226.825 199.36 226.755 199.584 226.708 199.817V201.461C226.793 201.757 226.912 202.036 227.064 202.299C227.216 202.557 227.419 202.766 227.673 202.927C227.927 203.084 228.247 203.162 228.632 203.162C228.949 203.162 229.222 203.097 229.451 202.965C229.683 202.83 229.874 202.646 230.022 202.413C230.174 202.18 230.286 201.914 230.358 201.613C230.43 201.309 230.466 200.985 230.466 200.642ZM236.021 197.132V198.033H232.307V197.132H236.021ZM233.564 195.462H234.738V202.299C234.738 202.532 234.774 202.707 234.846 202.826C234.918 202.944 235.011 203.022 235.125 203.061C235.24 203.099 235.362 203.118 235.494 203.118C235.591 203.118 235.693 203.109 235.798 203.092C235.908 203.071 235.991 203.054 236.046 203.042L236.052 204C235.959 204.03 235.836 204.057 235.684 204.083C235.536 204.112 235.356 204.127 235.145 204.127C234.857 204.127 234.592 204.07 234.351 203.956C234.11 203.841 233.917 203.651 233.773 203.384C233.634 203.113 233.564 202.75 233.564 202.292V195.462ZM238.674 197.132V204H237.493V197.132H238.674ZM237.404 195.31C237.404 195.12 237.461 194.959 237.576 194.828C237.694 194.696 237.868 194.631 238.096 194.631C238.32 194.631 238.492 194.696 238.61 194.828C238.733 194.959 238.794 195.12 238.794 195.31C238.794 195.492 238.733 195.649 238.61 195.78C238.492 195.907 238.32 195.97 238.096 195.97C237.868 195.97 237.694 195.907 237.576 195.78C237.461 195.649 237.404 195.492 237.404 195.31ZM240.248 200.642V200.496C240.248 200.001 240.32 199.542 240.464 199.119C240.608 198.691 240.815 198.321 241.086 198.008C241.357 197.69 241.685 197.445 242.07 197.271C242.455 197.094 242.887 197.005 243.365 197.005C243.847 197.005 244.281 197.094 244.666 197.271C245.055 197.445 245.385 197.69 245.656 198.008C245.931 198.321 246.141 198.691 246.285 199.119C246.429 199.542 246.5 200.001 246.5 200.496V200.642C246.5 201.137 246.429 201.596 246.285 202.02C246.141 202.443 245.931 202.813 245.656 203.13C245.385 203.444 245.057 203.689 244.672 203.867C244.292 204.04 243.86 204.127 243.377 204.127C242.895 204.127 242.461 204.04 242.076 203.867C241.691 203.689 241.361 203.444 241.086 203.13C240.815 202.813 240.608 202.443 240.464 202.02C240.32 201.596 240.248 201.137 240.248 200.642ZM241.422 200.496V200.642C241.422 200.985 241.463 201.309 241.543 201.613C241.623 201.914 241.744 202.18 241.905 202.413C242.07 202.646 242.275 202.83 242.521 202.965C242.766 203.097 243.052 203.162 243.377 203.162C243.699 203.162 243.98 203.097 244.222 202.965C244.467 202.83 244.67 202.646 244.831 202.413C244.992 202.18 245.112 201.914 245.193 201.613C245.278 201.309 245.32 200.985 245.32 200.642V200.496C245.32 200.158 245.278 199.838 245.193 199.538C245.112 199.233 244.99 198.964 244.825 198.731C244.664 198.494 244.461 198.308 244.215 198.173C243.974 198.037 243.691 197.97 243.365 197.97C243.043 197.97 242.76 198.037 242.514 198.173C242.273 198.308 242.07 198.494 241.905 198.731C241.744 198.964 241.623 199.233 241.543 199.538C241.463 199.838 241.422 200.158 241.422 200.496ZM249.147 198.598V204H247.973V197.132H249.084L249.147 198.598ZM248.868 200.306L248.379 200.287C248.384 199.817 248.453 199.383 248.589 198.985C248.724 198.583 248.915 198.234 249.16 197.938C249.406 197.642 249.698 197.413 250.036 197.252C250.379 197.087 250.758 197.005 251.172 197.005C251.511 197.005 251.816 197.051 252.086 197.145C252.357 197.233 252.588 197.377 252.778 197.576C252.973 197.775 253.121 198.033 253.223 198.351C253.324 198.664 253.375 199.047 253.375 199.5V204H252.194V199.487C252.194 199.127 252.141 198.839 252.036 198.624C251.93 198.403 251.775 198.245 251.572 198.147C251.369 198.046 251.119 197.995 250.823 197.995C250.531 197.995 250.265 198.056 250.023 198.179C249.786 198.302 249.581 198.471 249.408 198.687C249.238 198.903 249.105 199.15 249.008 199.43C248.915 199.705 248.868 199.997 248.868 200.306ZM261.722 194.758V204H260.516V194.758H261.722ZM264.693 194.758V195.761H257.552V194.758H264.693ZM267.257 202.781L269.022 197.132H269.796L269.644 198.255L267.848 204H267.092L267.257 202.781ZM266.07 197.132L267.575 202.845L267.683 204H266.889L264.896 197.132H266.07ZM271.485 202.8L272.919 197.132H274.087L272.094 204H271.307L271.485 202.8ZM269.968 197.132L271.694 202.686L271.891 204H271.142L269.295 198.243L269.143 197.132H269.968ZM274.982 200.642V200.496C274.982 200.001 275.054 199.542 275.198 199.119C275.342 198.691 275.549 198.321 275.82 198.008C276.091 197.69 276.419 197.445 276.804 197.271C277.189 197.094 277.621 197.005 278.099 197.005C278.582 197.005 279.015 197.094 279.4 197.271C279.79 197.445 280.12 197.69 280.391 198.008C280.666 198.321 280.875 198.691 281.019 199.119C281.163 199.542 281.235 200.001 281.235 200.496V200.642C281.235 201.137 281.163 201.596 281.019 202.02C280.875 202.443 280.666 202.813 280.391 203.13C280.12 203.444 279.792 203.689 279.407 203.867C279.026 204.04 278.594 204.127 278.112 204.127C277.629 204.127 277.196 204.04 276.811 203.867C276.425 203.689 276.095 203.444 275.82 203.13C275.549 202.813 275.342 202.443 275.198 202.02C275.054 201.596 274.982 201.137 274.982 200.642ZM276.157 200.496V200.642C276.157 200.985 276.197 201.309 276.277 201.613C276.358 201.914 276.478 202.18 276.639 202.413C276.804 202.646 277.009 202.83 277.255 202.965C277.5 203.097 277.786 203.162 278.112 203.162C278.433 203.162 278.715 203.097 278.956 202.965C279.201 202.83 279.405 202.646 279.565 202.413C279.726 202.18 279.847 201.914 279.927 201.613C280.012 201.309 280.054 200.985 280.054 200.642V200.496C280.054 200.158 280.012 199.838 279.927 199.538C279.847 199.233 279.724 198.964 279.559 198.731C279.398 198.494 279.195 198.308 278.95 198.173C278.708 198.037 278.425 197.97 278.099 197.97C277.778 197.97 277.494 198.037 277.249 198.173C277.007 198.308 276.804 198.494 276.639 198.731C276.478 198.964 276.358 199.233 276.277 199.538C276.197 199.838 276.157 200.158 276.157 200.496Z" fill="#505050"/>
</g>
<path d="M207.764 91.5425V93H202.41V91.5425H207.764ZM202.922 82.3359V93H201.084V82.3359H202.922ZM213.477 91.4106V87.6313C213.477 87.3481 213.425 87.104 213.323 86.8989C213.22 86.6938 213.064 86.5352 212.854 86.4229C212.649 86.3105 212.39 86.2544 212.078 86.2544C211.79 86.2544 211.541 86.3032 211.331 86.4009C211.121 86.4985 210.957 86.6304 210.84 86.7964C210.723 86.9624 210.664 87.1504 210.664 87.3604H208.906C208.906 87.0479 208.982 86.7451 209.133 86.4521C209.285 86.1592 209.504 85.8979 209.792 85.6685C210.081 85.439 210.425 85.2583 210.825 85.1265C211.226 84.9946 211.675 84.9287 212.173 84.9287C212.769 84.9287 213.296 85.0288 213.755 85.229C214.219 85.4292 214.583 85.7319 214.846 86.1372C215.115 86.5376 215.249 87.0405 215.249 87.646V91.1689C215.249 91.5303 215.273 91.855 215.322 92.1431C215.376 92.4263 215.452 92.6729 215.549 92.8828V93H213.74C213.657 92.8096 213.591 92.5679 213.542 92.2749C213.499 91.9771 213.477 91.689 213.477 91.4106ZM213.733 88.1807L213.748 89.272H212.48C212.153 89.272 211.865 89.3037 211.616 89.3672C211.367 89.4258 211.16 89.5137 210.994 89.6309C210.828 89.748 210.703 89.8896 210.62 90.0557C210.537 90.2217 210.496 90.4097 210.496 90.6196C210.496 90.8296 210.544 91.0225 210.642 91.1982C210.74 91.3691 210.881 91.5034 211.067 91.6011C211.257 91.6987 211.487 91.7476 211.755 91.7476C212.117 91.7476 212.432 91.6743 212.7 91.5278C212.974 91.3765 213.188 91.1934 213.345 90.9785C213.501 90.7588 213.584 90.5513 213.594 90.356L214.165 91.1396C214.106 91.3398 214.006 91.5547 213.865 91.7842C213.723 92.0137 213.538 92.2334 213.308 92.4434C213.083 92.6484 212.812 92.8169 212.495 92.9487C212.183 93.0806 211.821 93.1465 211.411 93.1465C210.894 93.1465 210.432 93.0439 210.027 92.8389C209.622 92.6289 209.304 92.3481 209.075 91.9966C208.845 91.6401 208.73 91.2373 208.73 90.7881C208.73 90.3682 208.809 89.9971 208.965 89.6748C209.126 89.3477 209.36 89.0742 209.668 88.8545C209.98 88.6348 210.361 88.4688 210.811 88.3564C211.26 88.2393 211.772 88.1807 212.349 88.1807H213.733ZM217.102 81.75H218.867V91.3081L218.699 93H217.102V81.75ZM224.038 88.9644V89.1182C224.038 89.7041 223.972 90.2437 223.84 90.7368C223.713 91.2251 223.518 91.6499 223.254 92.0112C222.996 92.3726 222.673 92.6533 222.288 92.8535C221.907 93.0488 221.465 93.1465 220.962 93.1465C220.469 93.1465 220.039 93.0537 219.673 92.8682C219.307 92.6826 218.999 92.4189 218.75 92.0771C218.506 91.7354 218.308 91.3276 218.157 90.854C218.005 90.3804 217.898 89.8579 217.834 89.2866V88.7959C217.898 88.2197 218.005 87.6973 218.157 87.2285C218.308 86.7549 218.506 86.3472 218.75 86.0054C218.999 85.6587 219.304 85.3926 219.666 85.207C220.032 85.0215 220.459 84.9287 220.947 84.9287C221.455 84.9287 221.902 85.0264 222.288 85.2217C222.678 85.417 223.003 85.6953 223.262 86.0566C223.521 86.4131 223.713 86.8379 223.84 87.3311C223.972 87.8242 224.038 88.3687 224.038 88.9644ZM222.273 89.1182V88.9644C222.273 88.6079 222.244 88.2734 222.185 87.9609C222.126 87.6436 222.029 87.3652 221.892 87.126C221.76 86.8867 221.58 86.6987 221.35 86.562C221.125 86.4204 220.845 86.3496 220.508 86.3496C220.195 86.3496 219.927 86.4033 219.702 86.5107C219.478 86.6182 219.29 86.7646 219.138 86.9502C218.987 87.1357 218.867 87.3506 218.779 87.5947C218.696 87.8389 218.64 88.1025 218.611 88.3857V89.7114C218.655 90.0776 218.748 90.4146 218.889 90.7222C219.036 91.0249 219.241 91.269 219.504 91.4546C219.768 91.6353 220.107 91.7256 220.522 91.7256C220.85 91.7256 221.125 91.6597 221.35 91.5278C221.575 91.396 221.753 91.2129 221.885 90.9785C222.021 90.7393 222.119 90.4609 222.178 90.1436C222.241 89.8262 222.273 89.4844 222.273 89.1182ZM229.026 93.1465C228.44 93.1465 227.91 93.0513 227.437 92.8608C226.968 92.6655 226.567 92.3945 226.235 92.0479C225.908 91.7012 225.657 91.2935 225.481 90.8247C225.305 90.356 225.217 89.8506 225.217 89.3086V89.0156C225.217 88.3955 225.308 87.834 225.488 87.3311C225.669 86.8281 225.92 86.3984 226.243 86.042C226.565 85.6807 226.946 85.4048 227.385 85.2144C227.825 85.0239 228.301 84.9287 228.813 84.9287C229.38 84.9287 229.875 85.0239 230.3 85.2144C230.725 85.4048 231.077 85.6733 231.355 86.02C231.638 86.3618 231.848 86.7695 231.985 87.2432C232.126 87.7168 232.197 88.2393 232.197 88.8105V89.5649H226.074V88.2979H230.454V88.1587C230.444 87.8413 230.381 87.5435 230.264 87.2651C230.151 86.9868 229.978 86.7622 229.744 86.5913C229.509 86.4204 229.197 86.335 228.806 86.335C228.513 86.335 228.252 86.3984 228.022 86.5254C227.798 86.6475 227.61 86.8257 227.458 87.0601C227.307 87.2944 227.19 87.5776 227.107 87.9097C227.029 88.2368 226.99 88.6055 226.99 89.0156V89.3086C226.99 89.6553 227.036 89.9775 227.129 90.2754C227.227 90.5684 227.368 90.8247 227.554 91.0444C227.739 91.2642 227.964 91.4375 228.228 91.5645C228.491 91.6865 228.792 91.7476 229.128 91.7476C229.553 91.7476 229.932 91.6621 230.264 91.4912C230.596 91.3203 230.884 91.0786 231.128 90.7661L232.058 91.667C231.887 91.916 231.665 92.1553 231.392 92.3848C231.118 92.6094 230.784 92.7925 230.388 92.9341C229.998 93.0757 229.543 93.1465 229.026 93.1465ZM235.464 81.75V93H233.691V81.75H235.464Z" fill="#505050"/>
<rect x="639.5" y="-0.5" width="641" height="313" fill="white"/>
<rect x="639.5" y="-0.5" width="641" height="313" stroke="#E6E6E6"/>
<rect width="640" height="44" transform="translate(640)" fill="#F8F8F8"/>
<path d="M673.587 16.7578H675.009L677.681 23.8862L680.347 16.7578H681.769L678.24 26H677.11L673.587 16.7578ZM672.939 16.7578H674.292L674.526 22.9277V26H672.939V16.7578ZM681.064 16.7578H682.423V26H680.83V22.9277L681.064 16.7578ZM691.364 24.7368V26H686.457V24.7368H691.364ZM686.908 16.7578V26H685.314V16.7578H686.908ZM690.723 20.6172V21.8613H686.457V20.6172H690.723ZM691.332 16.7578V18.0273H686.457V16.7578H691.332ZM700.997 16.7578V26H699.403L695.258 19.3794V26H693.665V16.7578H695.258L699.416 23.3911V16.7578H700.997ZM709.081 16.7578H710.667V22.9341C710.667 23.6366 710.515 24.2248 710.21 24.6987C709.906 25.1727 709.491 25.5303 708.966 25.7715C708.446 26.0085 707.864 26.127 707.221 26.127C706.556 26.127 705.964 26.0085 705.443 25.7715C704.923 25.5303 704.512 25.1727 704.212 24.6987C703.916 24.2248 703.768 23.6366 703.768 22.9341V16.7578H705.354V22.9341C705.354 23.3784 705.431 23.7445 705.583 24.0322C705.735 24.3158 705.951 24.5252 706.23 24.6606C706.51 24.7961 706.84 24.8638 707.221 24.8638C707.602 24.8638 707.93 24.7961 708.205 24.6606C708.484 24.5252 708.7 24.3158 708.852 24.0322C709.004 23.7445 709.081 23.3784 709.081 22.9341V16.7578Z" fill="#505050"/>
<rect x="1008" y="76" width="32" height="32" rx="4" fill="#F2F2F2"/>
<rect x="1008" y="76" width="32" height="32" rx="4" stroke="#1A1A1A" stroke-width="2"/>
<path d="M1027.06 92C1027.08 91.6354 1027.21 91.3255 1027.45 91.0703C1027.7 90.8333 1028.01 90.7057 1028.38 90.6875C1028.74 90.7057 1029.05 90.8333 1029.3 91.0703C1029.54 91.3255 1029.67 91.6354 1029.69 92C1029.67 92.3646 1029.54 92.6745 1029.3 92.9297C1029.05 93.1667 1028.74 93.2943 1028.38 93.3125C1028.01 93.2943 1027.7 93.1667 1027.45 92.9297C1027.21 92.6745 1027.08 92.3646 1027.06 92ZM1022.69 92C1022.71 91.6354 1022.83 91.3255 1023.07 91.0703C1023.33 90.8333 1023.64 90.7057 1024 90.6875C1024.36 90.7057 1024.67 90.8333 1024.93 91.0703C1025.17 91.3255 1025.29 91.6354 1025.31 92C1025.29 92.3646 1025.17 92.6745 1024.93 92.9297C1024.67 93.1667 1024.36 93.2943 1024 93.3125C1023.64 93.2943 1023.33 93.1667 1023.07 92.9297C1022.83 92.6745 1022.71 92.3646 1022.69 92ZM1020.94 92C1020.92 92.3646 1020.79 92.6745 1020.55 92.9297C1020.3 93.1667 1019.99 93.2943 1019.62 93.3125C1019.26 93.2943 1018.95 93.1667 1018.7 92.9297C1018.46 92.6745 1018.33 92.3646 1018.31 92C1018.33 91.6354 1018.46 91.3255 1018.7 91.0703C1018.95 90.8333 1019.26 90.7057 1019.62 90.6875C1019.99 90.7057 1020.3 90.8333 1020.55 91.0703C1020.79 91.3255 1020.92 91.6354 1020.94 92Z" fill="#1A1A1A"/>
<g filter="url(#filter1_ddd_13342_1391)">
<rect x="880" y="116" width="160" height="144" rx="8" fill="white"/>
<rect width="160" height="32" transform="translate(880 124)" fill="#F2F2F2"/>
<path d="M896.056 142.597L898.779 134.758H900.106L896.685 144H895.739L896.056 142.597ZM893.511 134.758L896.208 142.597L896.545 144H895.599L892.184 134.758H893.511ZM902.448 137.132V144H901.268V137.132H902.448ZM901.179 135.31C901.179 135.12 901.236 134.959 901.35 134.828C901.469 134.696 901.642 134.631 901.871 134.631C902.095 134.631 902.266 134.696 902.385 134.828C902.507 134.959 902.569 135.12 902.569 135.31C902.569 135.492 902.507 135.649 902.385 135.78C902.266 135.907 902.095 135.97 901.871 135.97C901.642 135.97 901.469 135.907 901.35 135.78C901.236 135.649 901.179 135.492 901.179 135.31ZM907.184 144.127C906.705 144.127 906.272 144.047 905.882 143.886C905.497 143.721 905.165 143.49 904.886 143.194C904.611 142.898 904.399 142.546 904.251 142.14C904.103 141.734 904.029 141.29 904.029 140.807V140.541C904.029 139.982 904.111 139.485 904.276 139.049C904.441 138.609 904.666 138.236 904.949 137.932C905.233 137.627 905.554 137.396 905.914 137.24C906.274 137.083 906.646 137.005 907.031 137.005C907.522 137.005 907.945 137.09 908.301 137.259C908.66 137.428 908.955 137.665 909.183 137.97C909.412 138.27 909.581 138.626 909.691 139.036C909.801 139.442 909.856 139.887 909.856 140.369V140.896H904.727V139.938H908.682V139.849C908.665 139.544 908.601 139.248 908.491 138.96C908.385 138.672 908.216 138.435 907.983 138.249C907.751 138.063 907.433 137.97 907.031 137.97C906.765 137.97 906.519 138.027 906.295 138.141C906.071 138.251 905.878 138.416 905.717 138.636C905.556 138.856 905.432 139.125 905.343 139.442C905.254 139.76 905.209 140.126 905.209 140.541V140.807C905.209 141.133 905.254 141.44 905.343 141.728C905.436 142.011 905.569 142.261 905.743 142.477C905.92 142.692 906.134 142.862 906.384 142.984C906.638 143.107 906.925 143.168 907.247 143.168C907.662 143.168 908.013 143.084 908.301 142.915C908.589 142.745 908.84 142.519 909.056 142.235L909.767 142.8C909.619 143.025 909.431 143.238 909.202 143.441C908.974 143.645 908.692 143.81 908.358 143.937C908.028 144.063 907.636 144.127 907.184 144.127ZM912.966 142.781L914.731 137.132H915.505L915.353 138.255L913.557 144H912.801L912.966 142.781ZM911.779 137.132L913.284 142.845L913.392 144H912.598L910.605 137.132H911.779ZM917.194 142.8L918.628 137.132H919.796L917.803 144H917.016L917.194 142.8ZM915.677 137.132L917.403 142.686L917.6 144H916.851L915.004 138.243L914.852 137.132H915.677ZM925.979 144H924.805V136.408C924.805 135.913 924.894 135.496 925.071 135.158C925.253 134.815 925.514 134.557 925.852 134.383C926.191 134.206 926.593 134.117 927.058 134.117C927.194 134.117 927.329 134.125 927.464 134.142C927.604 134.159 927.739 134.184 927.871 134.218L927.807 135.177C927.718 135.156 927.617 135.141 927.502 135.132C927.392 135.124 927.282 135.12 927.172 135.12C926.923 135.12 926.707 135.17 926.525 135.272C926.347 135.369 926.212 135.513 926.119 135.704C926.026 135.894 925.979 136.129 925.979 136.408V144ZM927.439 137.132V138.033H923.719V137.132H927.439ZM928.436 140.642V140.496C928.436 140.001 928.507 139.542 928.651 139.119C928.795 138.691 929.003 138.321 929.273 138.008C929.544 137.69 929.872 137.445 930.257 137.271C930.642 137.094 931.074 137.005 931.552 137.005C932.035 137.005 932.468 137.094 932.854 137.271C933.243 137.445 933.573 137.69 933.844 138.008C934.119 138.321 934.328 138.691 934.472 139.119C934.616 139.542 934.688 140.001 934.688 140.496V140.642C934.688 141.137 934.616 141.596 934.472 142.02C934.328 142.443 934.119 142.813 933.844 143.13C933.573 143.444 933.245 143.689 932.86 143.867C932.479 144.04 932.047 144.127 931.565 144.127C931.083 144.127 930.649 144.04 930.264 143.867C929.879 143.689 929.549 143.444 929.273 143.13C929.003 142.813 928.795 142.443 928.651 142.02C928.507 141.596 928.436 141.137 928.436 140.642ZM929.61 140.496V140.642C929.61 140.985 929.65 141.309 929.73 141.613C929.811 141.914 929.931 142.18 930.092 142.413C930.257 142.646 930.463 142.83 930.708 142.965C930.953 143.097 931.239 143.162 931.565 143.162C931.887 143.162 932.168 143.097 932.409 142.965C932.655 142.83 932.858 142.646 933.019 142.413C933.179 142.18 933.3 141.914 933.38 141.613C933.465 141.309 933.507 140.985 933.507 140.642V140.496C933.507 140.158 933.465 139.838 933.38 139.538C933.3 139.233 933.177 138.964 933.012 138.731C932.851 138.494 932.648 138.308 932.403 138.173C932.162 138.037 931.878 137.97 931.552 137.97C931.231 137.97 930.947 138.037 930.702 138.173C930.46 138.308 930.257 138.494 930.092 138.731C929.931 138.964 929.811 139.233 929.73 139.538C929.65 139.838 929.61 140.158 929.61 140.496ZM937.335 138.211V144H936.161V137.132H937.303L937.335 138.211ZM939.48 137.094L939.474 138.186C939.377 138.164 939.284 138.152 939.195 138.147C939.11 138.139 939.013 138.135 938.903 138.135C938.632 138.135 938.393 138.177 938.186 138.262C937.978 138.346 937.803 138.465 937.659 138.617C937.515 138.77 937.401 138.951 937.316 139.163C937.236 139.37 937.183 139.599 937.157 139.849L936.827 140.039C936.827 139.624 936.867 139.235 936.948 138.871C937.032 138.507 937.161 138.186 937.335 137.906C937.508 137.623 937.729 137.403 937.995 137.246C938.266 137.085 938.588 137.005 938.96 137.005C939.045 137.005 939.142 137.015 939.252 137.037C939.362 137.054 939.438 137.073 939.48 137.094ZM941.734 138.497V144H940.553V137.132H941.67L941.734 138.497ZM941.493 140.306L940.947 140.287C940.951 139.817 941.012 139.383 941.131 138.985C941.249 138.583 941.425 138.234 941.658 137.938C941.89 137.642 942.18 137.413 942.527 137.252C942.874 137.087 943.276 137.005 943.733 137.005C944.055 137.005 944.351 137.051 944.622 137.145C944.893 137.233 945.128 137.375 945.327 137.57C945.526 137.764 945.68 138.014 945.79 138.319C945.9 138.624 945.955 138.992 945.955 139.423V144H944.781V139.48C944.781 139.121 944.719 138.833 944.597 138.617C944.478 138.401 944.309 138.245 944.089 138.147C943.869 138.046 943.611 137.995 943.314 137.995C942.967 137.995 942.678 138.056 942.445 138.179C942.212 138.302 942.026 138.471 941.886 138.687C941.747 138.903 941.645 139.15 941.582 139.43C941.522 139.705 941.493 139.997 941.493 140.306ZM945.942 139.658L945.155 139.899C945.16 139.523 945.221 139.161 945.339 138.814C945.462 138.467 945.638 138.158 945.866 137.887C946.099 137.616 946.385 137.403 946.723 137.246C947.062 137.085 947.449 137.005 947.885 137.005C948.253 137.005 948.579 137.054 948.862 137.151C949.15 137.248 949.391 137.398 949.586 137.602C949.785 137.8 949.935 138.056 950.037 138.37C950.138 138.683 950.189 139.055 950.189 139.487V144H949.008V139.474C949.008 139.089 948.947 138.791 948.824 138.579C948.706 138.363 948.536 138.213 948.316 138.128C948.101 138.04 947.842 137.995 947.542 137.995C947.284 137.995 947.055 138.04 946.856 138.128C946.658 138.217 946.49 138.34 946.355 138.497C946.22 138.649 946.116 138.825 946.044 139.023C945.976 139.222 945.942 139.434 945.942 139.658Z" fill="#1A1A1A"/>
<path d="M898.944 175.003V176H894.05V175.003H898.944ZM894.298 166.758V176H893.073V166.758H894.298ZM898.297 170.731V171.728H894.05V170.731H898.297ZM898.881 166.758V167.761H894.05V166.758H898.881ZM904.486 174.667V166.25H905.667V176H904.587L904.486 174.667ZM899.865 172.642V172.509C899.865 171.984 899.928 171.508 900.055 171.081C900.186 170.649 900.37 170.279 900.607 169.97C900.849 169.661 901.134 169.424 901.464 169.259C901.799 169.09 902.171 169.005 902.582 169.005C903.013 169.005 903.39 169.081 903.711 169.233C904.037 169.382 904.312 169.599 904.537 169.887C904.765 170.171 904.945 170.514 905.076 170.916C905.207 171.318 905.298 171.772 905.349 172.28V172.864C905.303 173.368 905.212 173.821 905.076 174.223C904.945 174.625 904.765 174.967 904.537 175.251C904.312 175.535 904.037 175.752 903.711 175.905C903.386 176.053 903.005 176.127 902.569 176.127C902.167 176.127 901.799 176.04 901.464 175.867C901.134 175.693 900.849 175.45 900.607 175.137C900.37 174.824 900.186 174.455 900.055 174.032C899.928 173.605 899.865 173.141 899.865 172.642ZM901.045 172.509V172.642C901.045 172.985 901.079 173.306 901.147 173.607C901.219 173.907 901.329 174.172 901.477 174.4C901.625 174.629 901.813 174.809 902.042 174.94C902.271 175.067 902.543 175.13 902.861 175.13C903.25 175.13 903.57 175.048 903.819 174.883C904.073 174.718 904.276 174.5 904.429 174.229C904.581 173.958 904.7 173.664 904.784 173.347V171.817C904.733 171.584 904.659 171.36 904.562 171.144C904.469 170.924 904.346 170.729 904.194 170.56C904.046 170.387 903.862 170.249 903.642 170.147C903.426 170.046 903.17 169.995 902.874 169.995C902.552 169.995 902.275 170.063 902.042 170.198C901.813 170.329 901.625 170.511 901.477 170.744C901.329 170.973 901.219 171.239 901.147 171.544C901.079 171.844 901.045 172.166 901.045 172.509ZM908.771 169.132V176H907.59V169.132H908.771ZM907.501 167.31C907.501 167.12 907.558 166.959 907.672 166.828C907.791 166.696 907.964 166.631 908.193 166.631C908.417 166.631 908.589 166.696 908.707 166.828C908.83 166.959 908.891 167.12 908.891 167.31C908.891 167.492 908.83 167.649 908.707 167.78C908.589 167.907 908.417 167.97 908.193 167.97C907.964 167.97 907.791 167.907 907.672 167.78C907.558 167.649 907.501 167.492 907.501 167.31ZM913.531 169.132V170.033H909.818V169.132H913.531ZM911.075 167.462H912.249V174.299C912.249 174.532 912.285 174.707 912.357 174.826C912.429 174.944 912.522 175.022 912.636 175.061C912.75 175.099 912.873 175.118 913.004 175.118C913.102 175.118 913.203 175.109 913.309 175.092C913.419 175.071 913.502 175.054 913.557 175.042L913.563 176C913.47 176.03 913.347 176.057 913.195 176.083C913.047 176.112 912.867 176.127 912.655 176.127C912.368 176.127 912.103 176.07 911.862 175.956C911.621 175.841 911.428 175.651 911.284 175.384C911.145 175.113 911.075 174.75 911.075 174.292V167.462ZM919.885 176H918.711V168.408C918.711 167.913 918.8 167.496 918.978 167.158C919.16 166.815 919.42 166.557 919.758 166.383C920.097 166.206 920.499 166.117 920.964 166.117C921.1 166.117 921.235 166.125 921.371 166.142C921.51 166.159 921.646 166.184 921.777 166.218L921.713 167.177C921.625 167.156 921.523 167.141 921.409 167.132C921.299 167.124 921.189 167.12 921.079 167.12C920.829 167.12 920.613 167.17 920.431 167.272C920.253 167.369 920.118 167.513 920.025 167.704C919.932 167.894 919.885 168.129 919.885 168.408V176ZM921.345 169.132V170.033H917.625V169.132H921.345ZM922.342 172.642V172.496C922.342 172.001 922.414 171.542 922.558 171.119C922.701 170.691 922.909 170.321 923.18 170.008C923.451 169.69 923.778 169.445 924.164 169.271C924.549 169.094 924.98 169.005 925.458 169.005C925.941 169.005 926.375 169.094 926.76 169.271C927.149 169.445 927.479 169.69 927.75 170.008C928.025 170.321 928.235 170.691 928.378 171.119C928.522 171.542 928.594 172.001 928.594 172.496V172.642C928.594 173.137 928.522 173.596 928.378 174.02C928.235 174.443 928.025 174.813 927.75 175.13C927.479 175.444 927.151 175.689 926.766 175.867C926.385 176.04 925.954 176.127 925.471 176.127C924.989 176.127 924.555 176.04 924.17 175.867C923.785 175.689 923.455 175.444 923.18 175.13C922.909 174.813 922.701 174.443 922.558 174.02C922.414 173.596 922.342 173.137 922.342 172.642ZM923.516 172.496V172.642C923.516 172.985 923.556 173.309 923.637 173.613C923.717 173.914 923.838 174.18 923.999 174.413C924.164 174.646 924.369 174.83 924.614 174.965C924.86 175.097 925.145 175.162 925.471 175.162C925.793 175.162 926.074 175.097 926.315 174.965C926.561 174.83 926.764 174.646 926.925 174.413C927.086 174.18 927.206 173.914 927.287 173.613C927.371 173.309 927.414 172.985 927.414 172.642V172.496C927.414 172.158 927.371 171.838 927.287 171.538C927.206 171.233 927.083 170.964 926.918 170.731C926.758 170.494 926.555 170.308 926.309 170.173C926.068 170.037 925.784 169.97 925.458 169.97C925.137 169.97 924.853 170.037 924.608 170.173C924.367 170.308 924.164 170.494 923.999 170.731C923.838 170.964 923.717 171.233 923.637 171.538C923.556 171.838 923.516 172.158 923.516 172.496ZM931.241 170.211V176H930.067V169.132H931.209L931.241 170.211ZM933.387 169.094L933.38 170.186C933.283 170.164 933.19 170.152 933.101 170.147C933.016 170.139 932.919 170.135 932.809 170.135C932.538 170.135 932.299 170.177 932.092 170.262C931.884 170.346 931.709 170.465 931.565 170.617C931.421 170.77 931.307 170.951 931.222 171.163C931.142 171.37 931.089 171.599 931.063 171.849L930.733 172.039C930.733 171.624 930.774 171.235 930.854 170.871C930.939 170.507 931.068 170.186 931.241 169.906C931.415 169.623 931.635 169.403 931.901 169.246C932.172 169.085 932.494 169.005 932.866 169.005C932.951 169.005 933.048 169.015 933.158 169.037C933.268 169.054 933.344 169.073 933.387 169.094ZM935.64 170.497V176H934.459V169.132H935.577L935.64 170.497ZM935.399 172.306L934.853 172.287C934.857 171.817 934.919 171.383 935.037 170.985C935.156 170.583 935.331 170.234 935.564 169.938C935.797 169.642 936.087 169.413 936.434 169.252C936.781 169.087 937.183 169.005 937.64 169.005C937.961 169.005 938.257 169.051 938.528 169.145C938.799 169.233 939.034 169.375 939.233 169.57C939.432 169.764 939.586 170.014 939.696 170.319C939.806 170.624 939.861 170.992 939.861 171.423V176H938.687V171.48C938.687 171.121 938.626 170.833 938.503 170.617C938.384 170.401 938.215 170.245 937.995 170.147C937.775 170.046 937.517 169.995 937.221 169.995C936.874 169.995 936.584 170.056 936.351 170.179C936.118 170.302 935.932 170.471 935.792 170.687C935.653 170.903 935.551 171.15 935.488 171.43C935.429 171.705 935.399 171.997 935.399 172.306ZM939.849 171.658L939.062 171.899C939.066 171.523 939.127 171.161 939.246 170.814C939.368 170.467 939.544 170.158 939.772 169.887C940.005 169.616 940.291 169.403 940.629 169.246C940.968 169.085 941.355 169.005 941.791 169.005C942.159 169.005 942.485 169.054 942.769 169.151C943.056 169.248 943.298 169.398 943.492 169.602C943.691 169.8 943.841 170.056 943.943 170.37C944.044 170.683 944.095 171.055 944.095 171.487V176H942.915V171.474C942.915 171.089 942.853 170.791 942.73 170.579C942.612 170.363 942.443 170.213 942.223 170.128C942.007 170.04 941.749 169.995 941.448 169.995C941.19 169.995 940.962 170.04 940.763 170.128C940.564 170.217 940.397 170.34 940.261 170.497C940.126 170.649 940.022 170.825 939.95 171.023C939.882 171.222 939.849 171.434 939.849 171.658Z" fill="#505050"/>
<path d="M895.574 208H893.644L893.657 207.003H895.574C896.234 207.003 896.784 206.866 897.224 206.591C897.664 206.312 897.994 205.922 898.214 205.423C898.439 204.919 898.551 204.331 898.551 203.658V203.093C898.551 202.564 898.487 202.095 898.36 201.684C898.233 201.269 898.047 200.92 897.802 200.637C897.556 200.349 897.256 200.131 896.9 199.983C896.549 199.835 896.145 199.761 895.688 199.761H893.606V198.758H895.688C896.293 198.758 896.845 198.859 897.345 199.062C897.844 199.261 898.274 199.551 898.633 199.932C898.997 200.309 899.277 200.766 899.471 201.303C899.666 201.836 899.763 202.437 899.763 203.106V203.658C899.763 204.327 899.666 204.93 899.471 205.467C899.277 206 898.995 206.455 898.627 206.832C898.263 207.209 897.823 207.499 897.307 207.702C896.795 207.901 896.217 208 895.574 208ZM894.298 198.758V208H893.073V198.758H894.298ZM905.628 206.413V201.132H906.809V208H905.686L905.628 206.413ZM905.851 204.966L906.339 204.953C906.339 205.41 906.291 205.833 906.193 206.223C906.1 206.608 905.948 206.942 905.736 207.226C905.525 207.509 905.248 207.731 904.905 207.892C904.562 208.049 904.145 208.127 903.654 208.127C903.32 208.127 903.013 208.078 902.734 207.981C902.459 207.884 902.222 207.733 902.023 207.53C901.824 207.327 901.67 207.063 901.56 206.737C901.454 206.411 901.401 206.02 901.401 205.562V201.132H902.575V205.575C902.575 205.884 902.609 206.14 902.677 206.343C902.749 206.542 902.844 206.701 902.962 206.819C903.085 206.934 903.221 207.014 903.369 207.061C903.521 207.107 903.678 207.13 903.838 207.13C904.338 207.13 904.733 207.035 905.025 206.845C905.317 206.65 905.527 206.39 905.654 206.064C905.785 205.734 905.851 205.368 905.851 204.966ZM909.773 202.452V210.641H908.593V201.132H909.672L909.773 202.452ZM914.401 204.509V204.642C914.401 205.141 914.342 205.605 914.223 206.032C914.105 206.455 913.931 206.824 913.703 207.137C913.478 207.45 913.201 207.693 912.871 207.867C912.541 208.04 912.162 208.127 911.735 208.127C911.299 208.127 910.914 208.055 910.58 207.911C910.245 207.767 909.962 207.558 909.729 207.283C909.496 207.008 909.31 206.678 909.17 206.292C909.035 205.907 908.942 205.474 908.891 204.991V204.28C908.942 203.772 909.037 203.318 909.177 202.916C909.316 202.514 909.5 202.171 909.729 201.887C909.962 201.599 910.243 201.382 910.573 201.233C910.903 201.081 911.284 201.005 911.716 201.005C912.147 201.005 912.53 201.09 912.865 201.259C913.199 201.424 913.48 201.661 913.709 201.97C913.938 202.279 914.109 202.649 914.223 203.081C914.342 203.508 914.401 203.984 914.401 204.509ZM913.22 204.642V204.509C913.22 204.166 913.184 203.844 913.112 203.544C913.04 203.239 912.928 202.973 912.776 202.744C912.628 202.511 912.437 202.329 912.205 202.198C911.972 202.063 911.695 201.995 911.373 201.995C911.077 201.995 910.819 202.046 910.599 202.147C910.383 202.249 910.199 202.387 910.046 202.56C909.894 202.729 909.769 202.924 909.672 203.144C909.579 203.36 909.509 203.584 909.462 203.817V205.461C909.547 205.757 909.666 206.036 909.818 206.299C909.97 206.557 910.173 206.766 910.427 206.927C910.681 207.084 911.001 207.162 911.386 207.162C911.703 207.162 911.976 207.097 912.205 206.965C912.437 206.83 912.628 206.646 912.776 206.413C912.928 206.18 913.04 205.914 913.112 205.613C913.184 205.309 913.22 204.985 913.22 204.642ZM917.175 198.25V208H915.994V198.25H917.175ZM920.336 201.132V208H919.155V201.132H920.336ZM919.066 199.31C919.066 199.12 919.124 198.959 919.238 198.828C919.356 198.696 919.53 198.631 919.758 198.631C919.983 198.631 920.154 198.696 920.272 198.828C920.395 198.959 920.457 199.12 920.457 199.31C920.457 199.492 920.395 199.649 920.272 199.78C920.154 199.907 919.983 199.97 919.758 199.97C919.53 199.97 919.356 199.907 919.238 199.78C919.124 199.649 919.066 199.492 919.066 199.31ZM924.97 207.162C925.249 207.162 925.507 207.105 925.744 206.991C925.981 206.876 926.176 206.72 926.328 206.521C926.48 206.318 926.567 206.087 926.588 205.829H927.706C927.684 206.235 927.547 206.614 927.293 206.965C927.043 207.312 926.715 207.594 926.309 207.81C925.903 208.021 925.456 208.127 924.97 208.127C924.453 208.127 924.003 208.036 923.618 207.854C923.237 207.672 922.919 207.422 922.666 207.105C922.416 206.788 922.228 206.424 922.101 206.013C921.978 205.598 921.917 205.16 921.917 204.699V204.433C921.917 203.971 921.978 203.535 922.101 203.125C922.228 202.71 922.416 202.344 922.666 202.027C922.919 201.709 923.237 201.46 923.618 201.278C924.003 201.096 924.453 201.005 924.97 201.005C925.507 201.005 925.977 201.115 926.379 201.335C926.781 201.551 927.096 201.847 927.325 202.224C927.557 202.596 927.684 203.019 927.706 203.493H926.588C926.567 203.21 926.487 202.954 926.347 202.725C926.212 202.497 926.026 202.315 925.789 202.179C925.556 202.04 925.283 201.97 924.97 201.97C924.61 201.97 924.307 202.042 924.062 202.186C923.821 202.325 923.628 202.516 923.484 202.757C923.345 202.994 923.243 203.258 923.18 203.55C923.12 203.838 923.091 204.132 923.091 204.433V204.699C923.091 205 923.12 205.296 923.18 205.588C923.239 205.88 923.338 206.144 923.478 206.381C923.622 206.618 923.814 206.809 924.056 206.953C924.301 207.092 924.606 207.162 924.97 207.162ZM933.076 206.826V203.29C933.076 203.019 933.021 202.784 932.911 202.585C932.805 202.382 932.644 202.226 932.428 202.116C932.212 202.006 931.946 201.951 931.628 201.951C931.332 201.951 931.072 202.001 930.848 202.103C930.628 202.205 930.454 202.338 930.327 202.503C930.204 202.668 930.143 202.846 930.143 203.036H928.969C928.969 202.791 929.032 202.547 929.159 202.306C929.286 202.065 929.468 201.847 929.705 201.652C929.946 201.453 930.234 201.297 930.568 201.183C930.907 201.064 931.284 201.005 931.698 201.005C932.198 201.005 932.638 201.09 933.019 201.259C933.404 201.428 933.704 201.684 933.92 202.027C934.14 202.365 934.25 202.791 934.25 203.303V206.502C934.25 206.73 934.269 206.974 934.307 207.232C934.349 207.49 934.411 207.712 934.491 207.898V208H933.266C933.207 207.865 933.16 207.685 933.126 207.46C933.093 207.232 933.076 207.02 933.076 206.826ZM933.279 203.836L933.292 204.661H932.104C931.77 204.661 931.472 204.689 931.209 204.744C930.947 204.794 930.727 204.873 930.549 204.979C930.372 205.084 930.236 205.218 930.143 205.378C930.05 205.535 930.003 205.719 930.003 205.931C930.003 206.146 930.052 206.343 930.149 206.521C930.247 206.699 930.393 206.84 930.587 206.946C930.786 207.048 931.03 207.099 931.317 207.099C931.677 207.099 931.994 207.022 932.27 206.87C932.545 206.718 932.763 206.532 932.923 206.312C933.088 206.091 933.177 205.878 933.19 205.67L933.691 206.235C933.662 206.413 933.581 206.61 933.45 206.826C933.319 207.042 933.143 207.249 932.923 207.448C932.708 207.642 932.449 207.805 932.149 207.937C931.853 208.063 931.518 208.127 931.146 208.127C930.681 208.127 930.272 208.036 929.921 207.854C929.574 207.672 929.303 207.429 929.108 207.124C928.918 206.815 928.823 206.47 928.823 206.089C928.823 205.721 928.895 205.397 929.039 205.118C929.182 204.835 929.39 204.6 929.661 204.414C929.931 204.223 930.257 204.079 930.638 203.982C931.019 203.885 931.444 203.836 931.914 203.836H933.279ZM938.973 201.132V202.033H935.259V201.132H938.973ZM936.516 199.462H937.69V206.299C937.69 206.532 937.726 206.707 937.798 206.826C937.87 206.944 937.963 207.022 938.078 207.061C938.192 207.099 938.315 207.118 938.446 207.118C938.543 207.118 938.645 207.109 938.75 207.092C938.861 207.071 938.943 207.054 938.998 207.042L939.004 208C938.911 208.03 938.789 208.057 938.636 208.083C938.488 208.112 938.308 208.127 938.097 208.127C937.809 208.127 937.544 208.07 937.303 207.956C937.062 207.841 936.869 207.651 936.726 207.384C936.586 207.113 936.516 206.75 936.516 206.292V199.462ZM943.2 208.127C942.722 208.127 942.288 208.047 941.899 207.886C941.514 207.721 941.182 207.49 940.902 207.194C940.627 206.898 940.416 206.546 940.268 206.14C940.119 205.734 940.045 205.29 940.045 204.807V204.541C940.045 203.982 940.128 203.485 940.293 203.049C940.458 202.609 940.682 202.236 940.966 201.932C941.249 201.627 941.571 201.396 941.931 201.24C942.29 201.083 942.663 201.005 943.048 201.005C943.539 201.005 943.962 201.09 944.317 201.259C944.677 201.428 944.971 201.665 945.2 201.97C945.428 202.27 945.597 202.626 945.708 203.036C945.818 203.442 945.873 203.887 945.873 204.369V204.896H940.744V203.938H944.698V203.849C944.681 203.544 944.618 203.248 944.508 202.96C944.402 202.672 944.233 202.435 944 202.249C943.767 202.063 943.45 201.97 943.048 201.97C942.781 201.97 942.536 202.027 942.312 202.141C942.087 202.251 941.895 202.416 941.734 202.636C941.573 202.856 941.448 203.125 941.359 203.442C941.271 203.76 941.226 204.126 941.226 204.541V204.807C941.226 205.133 941.271 205.44 941.359 205.728C941.452 206.011 941.586 206.261 941.759 206.477C941.937 206.692 942.151 206.862 942.4 206.984C942.654 207.107 942.942 207.168 943.264 207.168C943.678 207.168 944.03 207.084 944.317 206.915C944.605 206.745 944.857 206.519 945.073 206.235L945.784 206.8C945.636 207.025 945.447 207.238 945.219 207.441C944.99 207.645 944.709 207.81 944.375 207.937C944.044 208.063 943.653 208.127 943.2 208.127ZM952.22 208H951.046V200.408C951.046 199.913 951.135 199.496 951.312 199.158C951.494 198.815 951.755 198.557 952.093 198.383C952.432 198.206 952.834 198.117 953.299 198.117C953.435 198.117 953.57 198.125 953.706 198.142C953.845 198.159 953.981 198.184 954.112 198.218L954.048 199.177C953.959 199.156 953.858 199.141 953.744 199.132C953.634 199.124 953.524 199.12 953.414 199.12C953.164 199.12 952.948 199.17 952.766 199.272C952.588 199.369 952.453 199.513 952.36 199.704C952.267 199.894 952.22 200.129 952.22 200.408V208ZM953.68 201.132V202.033H949.96V201.132H953.68ZM954.677 204.642V204.496C954.677 204.001 954.749 203.542 954.893 203.119C955.036 202.691 955.244 202.321 955.515 202.008C955.785 201.69 956.113 201.445 956.499 201.271C956.884 201.094 957.315 201.005 957.793 201.005C958.276 201.005 958.71 201.094 959.095 201.271C959.484 201.445 959.814 201.69 960.085 202.008C960.36 202.321 960.569 202.691 960.713 203.119C960.857 203.542 960.929 204.001 960.929 204.496V204.642C960.929 205.137 960.857 205.596 960.713 206.02C960.569 206.443 960.36 206.813 960.085 207.13C959.814 207.444 959.486 207.689 959.101 207.867C958.72 208.04 958.289 208.127 957.806 208.127C957.324 208.127 956.89 208.04 956.505 207.867C956.12 207.689 955.79 207.444 955.515 207.13C955.244 206.813 955.036 206.443 954.893 206.02C954.749 205.596 954.677 205.137 954.677 204.642ZM955.851 204.496V204.642C955.851 204.985 955.891 205.309 955.972 205.613C956.052 205.914 956.173 206.18 956.333 206.413C956.499 206.646 956.704 206.83 956.949 206.965C957.195 207.097 957.48 207.162 957.806 207.162C958.128 207.162 958.409 207.097 958.65 206.965C958.896 206.83 959.099 206.646 959.26 206.413C959.421 206.18 959.541 205.914 959.622 205.613C959.706 205.309 959.749 204.985 959.749 204.642V204.496C959.749 204.158 959.706 203.838 959.622 203.538C959.541 203.233 959.418 202.964 959.253 202.731C959.093 202.494 958.889 202.308 958.644 202.173C958.403 202.037 958.119 201.97 957.793 201.97C957.472 201.97 957.188 202.037 956.943 202.173C956.702 202.308 956.499 202.494 956.333 202.731C956.173 202.964 956.052 203.233 955.972 203.538C955.891 203.838 955.851 204.158 955.851 204.496ZM963.576 202.211V208H962.402V201.132H963.544L963.576 202.211ZM965.722 201.094L965.715 202.186C965.618 202.164 965.525 202.152 965.436 202.147C965.351 202.139 965.254 202.135 965.144 202.135C964.873 202.135 964.634 202.177 964.427 202.262C964.219 202.346 964.044 202.465 963.9 202.617C963.756 202.77 963.642 202.951 963.557 203.163C963.477 203.37 963.424 203.599 963.398 203.849L963.068 204.039C963.068 203.624 963.109 203.235 963.189 202.871C963.274 202.507 963.403 202.186 963.576 201.906C963.75 201.623 963.97 201.403 964.236 201.246C964.507 201.085 964.829 201.005 965.201 201.005C965.286 201.005 965.383 201.015 965.493 201.037C965.603 201.054 965.679 201.073 965.722 201.094ZM967.975 202.497V208H966.794V201.132H967.912L967.975 202.497ZM967.734 204.306L967.188 204.287C967.192 203.817 967.254 203.383 967.372 202.985C967.491 202.583 967.666 202.234 967.899 201.938C968.132 201.642 968.422 201.413 968.769 201.252C969.116 201.087 969.518 201.005 969.975 201.005C970.296 201.005 970.592 201.051 970.863 201.145C971.134 201.233 971.369 201.375 971.568 201.57C971.767 201.764 971.921 202.014 972.031 202.319C972.141 202.624 972.196 202.992 972.196 203.423V208H971.022V203.48C971.022 203.121 970.961 202.833 970.838 202.617C970.719 202.401 970.55 202.245 970.33 202.147C970.11 202.046 969.852 201.995 969.556 201.995C969.209 201.995 968.919 202.056 968.686 202.179C968.453 202.302 968.267 202.471 968.127 202.687C967.988 202.903 967.886 203.15 967.823 203.43C967.764 203.705 967.734 203.997 967.734 204.306ZM972.184 203.658L971.396 203.899C971.401 203.523 971.462 203.161 971.581 202.814C971.703 202.467 971.879 202.158 972.107 201.887C972.34 201.616 972.626 201.403 972.964 201.246C973.303 201.085 973.69 201.005 974.126 201.005C974.494 201.005 974.82 201.054 975.104 201.151C975.391 201.248 975.632 201.398 975.827 201.602C976.026 201.8 976.176 202.056 976.278 202.37C976.379 202.683 976.43 203.055 976.43 203.487V208H975.25V203.474C975.25 203.089 975.188 202.791 975.065 202.579C974.947 202.363 974.778 202.213 974.558 202.128C974.342 202.04 974.084 201.995 973.783 201.995C973.525 201.995 973.297 202.04 973.098 202.128C972.899 202.217 972.732 202.34 972.596 202.497C972.461 202.649 972.357 202.825 972.285 203.023C972.217 203.222 972.184 203.434 972.184 203.658Z" fill="#505050"/>
<path d="M897.566 229.492C897.73 229.182 897.995 229.018 898.359 229H901.641C902.005 229.018 902.27 229.182 902.434 229.492L902.625 229.875H905.25C905.505 229.875 905.715 229.957 905.879 230.121C906.043 230.285 906.125 230.495 906.125 230.75C906.125 231.005 906.043 231.215 905.879 231.379C905.715 231.543 905.505 231.625 905.25 231.625H894.75C894.495 231.625 894.285 231.543 894.121 231.379C893.957 231.215 893.875 231.005 893.875 230.75C893.875 230.495 893.957 230.285 894.121 230.121C894.285 229.957 894.495 229.875 894.75 229.875H897.375L897.566 229.492ZM894.723 232.5H905.25V241.25C905.232 241.742 905.059 242.152 904.73 242.48C904.402 242.809 903.992 242.982 903.5 243H896.473C895.98 242.982 895.57 242.809 895.242 242.48C894.914 242.152 894.741 241.742 894.723 241.25V232.5ZM896.91 234.688V240.812C896.947 241.086 897.092 241.232 897.348 241.25C897.621 241.232 897.767 241.086 897.785 240.812V234.688C897.767 234.414 897.621 234.268 897.348 234.25C897.092 234.268 896.947 234.414 896.91 234.688ZM899.535 234.688V240.812C899.572 241.086 899.717 241.232 899.973 241.25C900.264 241.232 900.419 241.086 900.438 240.812V234.688C900.419 234.414 900.264 234.268 899.973 234.25C899.717 234.268 899.572 234.414 899.535 234.688ZM902.188 234.688V240.812C902.206 241.086 902.352 241.232 902.625 241.25C902.898 241.232 903.044 241.086 903.062 240.812V234.688C903.044 234.414 902.898 234.268 902.625 234.25C902.352 234.268 902.206 234.414 902.188 234.688Z" fill="#F45C59"/>
<path d="M919.574 240H917.644L917.657 239.003H919.574C920.234 239.003 920.784 238.866 921.224 238.591C921.664 238.312 921.994 237.922 922.214 237.423C922.439 236.919 922.551 236.331 922.551 235.658V235.093C922.551 234.564 922.487 234.095 922.36 233.684C922.233 233.269 922.047 232.92 921.802 232.637C921.556 232.349 921.256 232.131 920.9 231.983C920.549 231.835 920.145 231.761 919.688 231.761H917.606V230.758H919.688C920.293 230.758 920.845 230.859 921.345 231.062C921.844 231.261 922.274 231.551 922.633 231.932C922.997 232.309 923.277 232.766 923.471 233.303C923.666 233.836 923.763 234.437 923.763 235.106V235.658C923.763 236.327 923.666 236.93 923.471 237.467C923.277 238 922.995 238.455 922.627 238.832C922.263 239.209 921.823 239.499 921.307 239.702C920.795 239.901 920.217 240 919.574 240ZM918.298 230.758V240H917.073V230.758H918.298ZM928.276 240.127C927.798 240.127 927.364 240.047 926.975 239.886C926.59 239.721 926.258 239.49 925.979 239.194C925.703 238.898 925.492 238.546 925.344 238.14C925.196 237.734 925.122 237.29 925.122 236.807V236.541C925.122 235.982 925.204 235.485 925.369 235.049C925.534 234.609 925.758 234.236 926.042 233.932C926.326 233.627 926.647 233.396 927.007 233.24C927.367 233.083 927.739 233.005 928.124 233.005C928.615 233.005 929.038 233.09 929.394 233.259C929.753 233.428 930.047 233.665 930.276 233.97C930.504 234.27 930.674 234.626 930.784 235.036C930.894 235.442 930.949 235.887 930.949 236.369V236.896H925.82V235.938H929.774V235.849C929.757 235.544 929.694 235.248 929.584 234.96C929.478 234.672 929.309 234.435 929.076 234.249C928.843 234.063 928.526 233.97 928.124 233.97C927.857 233.97 927.612 234.027 927.388 234.141C927.163 234.251 926.971 234.416 926.81 234.636C926.649 234.856 926.524 235.125 926.436 235.442C926.347 235.76 926.302 236.126 926.302 236.541V236.807C926.302 237.133 926.347 237.44 926.436 237.728C926.529 238.011 926.662 238.261 926.835 238.477C927.013 238.692 927.227 238.862 927.477 238.984C927.73 239.107 928.018 239.168 928.34 239.168C928.755 239.168 929.106 239.084 929.394 238.915C929.681 238.745 929.933 238.519 930.149 238.235L930.86 238.8C930.712 239.025 930.523 239.238 930.295 239.441C930.066 239.645 929.785 239.81 929.451 239.937C929.121 240.063 928.729 240.127 928.276 240.127ZM933.596 230.25V240H932.415V230.25H933.596ZM938.331 240.127C937.853 240.127 937.419 240.047 937.03 239.886C936.645 239.721 936.312 239.49 936.033 239.194C935.758 238.898 935.547 238.546 935.398 238.14C935.25 237.734 935.176 237.29 935.176 236.807V236.541C935.176 235.982 935.259 235.485 935.424 235.049C935.589 234.609 935.813 234.236 936.097 233.932C936.38 233.627 936.702 233.396 937.062 233.24C937.421 233.083 937.794 233.005 938.179 233.005C938.67 233.005 939.093 233.09 939.448 233.259C939.808 233.428 940.102 233.665 940.331 233.97C940.559 234.27 940.728 234.626 940.838 235.036C940.948 235.442 941.003 235.887 941.003 236.369V236.896H935.875V235.938H939.829V235.849C939.812 235.544 939.749 235.248 939.639 234.96C939.533 234.672 939.364 234.435 939.131 234.249C938.898 234.063 938.581 233.97 938.179 233.97C937.912 233.97 937.667 234.027 937.442 234.141C937.218 234.251 937.026 234.416 936.865 234.636C936.704 234.856 936.579 235.125 936.49 235.442C936.401 235.76 936.357 236.126 936.357 236.541V236.807C936.357 237.133 936.401 237.44 936.49 237.728C936.583 238.011 936.717 238.261 936.89 238.477C937.068 238.692 937.282 238.862 937.531 238.984C937.785 239.107 938.073 239.168 938.395 239.168C938.809 239.168 939.16 239.084 939.448 238.915C939.736 238.745 939.988 238.519 940.204 238.235L940.915 238.8C940.766 239.025 940.578 239.238 940.35 239.441C940.121 239.645 939.84 239.81 939.505 239.937C939.175 240.063 938.784 240.127 938.331 240.127ZM945.25 233.132V234.033H941.537V233.132H945.25ZM942.793 231.462H943.968V238.299C943.968 238.532 944.004 238.707 944.076 238.826C944.148 238.944 944.241 239.022 944.355 239.061C944.469 239.099 944.592 239.118 944.723 239.118C944.82 239.118 944.922 239.109 945.028 239.092C945.138 239.071 945.22 239.054 945.275 239.042L945.282 240C945.189 240.03 945.066 240.057 944.914 240.083C944.765 240.112 944.586 240.127 944.374 240.127C944.086 240.127 943.822 240.07 943.581 239.956C943.339 239.841 943.147 239.651 943.003 239.384C942.863 239.113 942.793 238.75 942.793 238.292V231.462ZM949.478 240.127C948.999 240.127 948.566 240.047 948.176 239.886C947.791 239.721 947.459 239.49 947.18 239.194C946.905 238.898 946.693 238.546 946.545 238.14C946.397 237.734 946.323 237.29 946.323 236.807V236.541C946.323 235.982 946.405 235.485 946.57 235.049C946.735 234.609 946.96 234.236 947.243 233.932C947.527 233.627 947.848 233.396 948.208 233.24C948.568 233.083 948.94 233.005 949.325 233.005C949.816 233.005 950.239 233.09 950.595 233.259C950.954 233.428 951.249 233.665 951.477 233.97C951.706 234.27 951.875 234.626 951.985 235.036C952.095 235.442 952.15 235.887 952.15 236.369V236.896H947.021V235.938H950.976V235.849C950.959 235.544 950.895 235.248 950.785 234.96C950.679 234.672 950.51 234.435 950.277 234.249C950.045 234.063 949.727 233.97 949.325 233.97C949.059 233.97 948.813 234.027 948.589 234.141C948.365 234.251 948.172 234.416 948.011 234.636C947.85 234.856 947.726 235.125 947.637 235.442C947.548 235.76 947.503 236.126 947.503 236.541V236.807C947.503 237.133 947.548 237.44 947.637 237.728C947.73 238.011 947.863 238.261 948.037 238.477C948.214 238.692 948.428 238.862 948.678 238.984C948.932 239.107 949.219 239.168 949.541 239.168C949.956 239.168 950.307 239.084 950.595 238.915C950.882 238.745 951.134 238.519 951.35 238.235L952.061 238.8C951.913 239.025 951.725 239.238 951.496 239.441C951.268 239.645 950.986 239.81 950.652 239.937C950.322 240.063 949.93 240.127 949.478 240.127ZM958.498 240H957.323V232.408C957.323 231.913 957.412 231.496 957.59 231.158C957.772 230.815 958.032 230.557 958.371 230.383C958.709 230.206 959.111 230.117 959.577 230.117C959.712 230.117 959.847 230.125 959.983 230.142C960.123 230.159 960.258 230.184 960.389 230.218L960.326 231.177C960.237 231.156 960.135 231.141 960.021 231.132C959.911 231.124 959.801 231.12 959.691 231.12C959.441 231.12 959.225 231.17 959.043 231.272C958.866 231.369 958.73 231.513 958.637 231.704C958.544 231.894 958.498 232.129 958.498 232.408V240ZM959.958 233.132V234.033H956.238V233.132H959.958ZM960.954 236.642V236.496C960.954 236.001 961.026 235.542 961.17 235.119C961.314 234.691 961.521 234.321 961.792 234.008C962.063 233.69 962.391 233.445 962.776 233.271C963.161 233.094 963.593 233.005 964.071 233.005C964.553 233.005 964.987 233.094 965.372 233.271C965.761 233.445 966.091 233.69 966.362 234.008C966.637 234.321 966.847 234.691 966.991 235.119C967.135 235.542 967.207 236.001 967.207 236.496V236.642C967.207 237.137 967.135 237.596 966.991 238.02C966.847 238.443 966.637 238.813 966.362 239.13C966.091 239.444 965.764 239.689 965.378 239.867C964.998 240.04 964.566 240.127 964.083 240.127C963.601 240.127 963.167 240.04 962.782 239.867C962.397 239.689 962.067 239.444 961.792 239.13C961.521 238.813 961.314 238.443 961.17 238.02C961.026 237.596 960.954 237.137 960.954 236.642ZM962.128 236.496V236.642C962.128 236.985 962.169 237.309 962.249 237.613C962.329 237.914 962.45 238.18 962.611 238.413C962.776 238.646 962.981 238.83 963.227 238.965C963.472 239.097 963.758 239.162 964.083 239.162C964.405 239.162 964.687 239.097 964.928 238.965C965.173 238.83 965.376 238.646 965.537 238.413C965.698 238.18 965.819 237.914 965.899 237.613C965.984 237.309 966.026 236.985 966.026 236.642V236.496C966.026 236.158 965.984 235.838 965.899 235.538C965.819 235.233 965.696 234.964 965.531 234.731C965.37 234.494 965.167 234.308 964.921 234.173C964.68 234.037 964.397 233.97 964.071 233.97C963.749 233.97 963.466 234.037 963.22 234.173C962.979 234.308 962.776 234.494 962.611 234.731C962.45 234.964 962.329 235.233 962.249 235.538C962.169 235.838 962.128 236.158 962.128 236.496ZM969.854 234.211V240H968.679V233.132H969.822L969.854 234.211ZM971.999 233.094L971.993 234.186C971.895 234.164 971.802 234.152 971.713 234.147C971.629 234.139 971.531 234.135 971.421 234.135C971.151 234.135 970.911 234.177 970.704 234.262C970.497 234.346 970.321 234.465 970.177 234.617C970.033 234.77 969.919 234.951 969.834 235.163C969.754 235.37 969.701 235.599 969.676 235.849L969.346 236.039C969.346 235.624 969.386 235.235 969.466 234.871C969.551 234.507 969.68 234.186 969.854 233.906C970.027 233.623 970.247 233.403 970.514 233.246C970.785 233.085 971.106 233.005 971.479 233.005C971.563 233.005 971.66 233.015 971.771 233.037C971.881 233.054 971.957 233.073 971.999 233.094ZM974.252 234.497V240H973.072V233.132H974.189L974.252 234.497ZM974.011 236.306L973.465 236.287C973.47 235.817 973.531 235.383 973.649 234.985C973.768 234.583 973.944 234.234 974.176 233.938C974.409 233.642 974.699 233.413 975.046 233.252C975.393 233.087 975.795 233.005 976.252 233.005C976.574 233.005 976.87 233.051 977.141 233.145C977.411 233.233 977.646 233.375 977.845 233.57C978.044 233.764 978.199 234.014 978.309 234.319C978.419 234.624 978.474 234.992 978.474 235.423V240H977.299V235.48C977.299 235.121 977.238 234.833 977.115 234.617C976.997 234.401 976.827 234.245 976.607 234.147C976.387 234.046 976.129 233.995 975.833 233.995C975.486 233.995 975.196 234.056 974.963 234.179C974.731 234.302 974.544 234.471 974.405 234.687C974.265 234.903 974.164 235.15 974.1 235.43C974.041 235.705 974.011 235.997 974.011 236.306ZM978.461 235.658L977.674 235.899C977.678 235.523 977.739 235.161 977.858 234.814C977.981 234.467 978.156 234.158 978.385 233.887C978.618 233.616 978.903 233.403 979.242 233.246C979.58 233.085 979.967 233.005 980.403 233.005C980.771 233.005 981.097 233.054 981.381 233.151C981.669 233.248 981.91 233.398 982.104 233.602C982.303 233.8 982.454 234.056 982.555 234.37C982.657 234.683 982.708 235.055 982.708 235.487V240H981.527V235.474C981.527 235.089 981.465 234.791 981.343 234.579C981.224 234.363 981.055 234.213 980.835 234.128C980.619 234.04 980.361 233.995 980.061 233.995C979.802 233.995 979.574 234.04 979.375 234.128C979.176 234.217 979.009 234.34 978.874 234.497C978.738 234.649 978.634 234.825 978.562 235.023C978.495 235.222 978.461 235.434 978.461 235.658Z" fill="#F45C59"/>
</g>
</g>
<path d="M0.5 16C0.5 7.43959 7.43959 0.5 16 0.5H1264C1272.56 0.5 1279.5 7.43959 1279.5 16V296C1279.5 304.56 1272.56 311.5 1264 311.5H16C7.43957 311.5 0.5 304.56 0.5 296V16Z" stroke="#E6E6E6"/>
<defs>
<filter id="filter0_ddd_13342_1391" x="184" y="129" width="272" height="113" filterUnits="userSpaceOnUse" color-interpolation-filters="sRGB">
<feFlood flood-opacity="0" result="BackgroundImageFix"/>
<feColorMatrix in="SourceAlpha" type="matrix" values="0 0 0 0 0 0 0 0 0 0 0 0 0 0 0 0 0 0 127 0" result="hardAlpha"/>
<feOffset dy="2"/>
<feGaussianBlur stdDeviation="2"/>
<feColorMatrix type="matrix" values="0 0 0 0 0.45098 0 0 0 0 0.45098 0 0 0 0 0.45098 0 0 0 0.1 0"/>
<feBlend mode="normal" in2="BackgroundImageFix" result="effect1_dropShadow_13342_1391"/>
<feColorMatrix in="SourceAlpha" type="matrix" values="0 0 0 0 0 0 0 0 0 0 0 0 0 0 0 0 0 0 127 0" result="hardAlpha"/>
<feOffset dy="1"/>
<feGaussianBlur stdDeviation="8"/>
<feColorMatrix type="matrix" values="0 0 0 0 0.45098 0 0 0 0 0.45098 0 0 0 0 0.45098 0 0 0 0.05 0"/>
<feBlend mode="normal" in2="effect1_dropShadow_13342_1391" result="effect2_dropShadow_13342_1391"/>
<feColorMatrix in="SourceAlpha" type="matrix" values="0 0 0 0 0 0 0 0 0 0 0 0 0 0 0 0 0 0 127 0" result="hardAlpha"/>
<feOffset dy="6"/>
<feGaussianBlur stdDeviation="6"/>
<feColorMatrix type="matrix" values="0 0 0 0 0.45098 0 0 0 0 0.45098 0 0 0 0 0.45098 0 0 0 0.08 0"/>
<feBlend mode="normal" in2="effect2_dropShadow_13342_1391" result="effect3_dropShadow_13342_1391"/>
<feBlend mode="normal" in="SourceGraphic" in2="effect3_dropShadow_13342_1391" result="shape"/>
</filter>
<filter id="filter1_ddd_13342_1391" x="864" y="101" width="192" height="177" filterUnits="userSpaceOnUse" color-interpolation-filters="sRGB">
<feFlood flood-opacity="0" result="BackgroundImageFix"/>
<feColorMatrix in="SourceAlpha" type="matrix" values="0 0 0 0 0 0 0 0 0 0 0 0 0 0 0 0 0 0 127 0" result="hardAlpha"/>
<feOffset dy="2"/>
<feGaussianBlur stdDeviation="2"/>
<feColorMatrix type="matrix" values="0 0 0 0 0.45098 0 0 0 0 0.45098 0 0 0 0 0.45098 0 0 0 0.1 0"/>
<feBlend mode="normal" in2="BackgroundImageFix" result="effect1_dropShadow_13342_1391"/>
<feColorMatrix in="SourceAlpha" type="matrix" values="0 0 0 0 0 0 0 0 0 0 0 0 0 0 0 0 0 0 127 0" result="hardAlpha"/>
<feOffset dy="1"/>
<feGaussianBlur stdDeviation="8"/>
<feColorMatrix type="matrix" values="0 0 0 0 0.45098 0 0 0 0 0.45098 0 0 0 0 0.45098 0 0 0 0.05 0"/>
<feBlend mode="normal" in2="effect1_dropShadow_13342_1391" result="effect2_dropShadow_13342_1391"/>
<feColorMatrix in="SourceAlpha" type="matrix" values="0 0 0 0 0 0 0 0 0 0 0 0 0 0 0 0 0 0 127 0" result="hardAlpha"/>
<feOffset dy="6"/>
<feGaussianBlur stdDeviation="6"/>
<feColorMatrix type="matrix" values="0 0 0 0 0.45098 0 0 0 0 0.45098 0 0 0 0 0.45098 0 0 0 0.08 0"/>
<feBlend mode="normal" in2="effect2_dropShadow_13342_1391" result="effect3_dropShadow_13342_1391"/>
<feBlend mode="normal" in="SourceGraphic" in2="effect3_dropShadow_13342_1391" result="shape"/>
</filter>
<clipPath id="clip0_13342_1391">
<path d="M0 16C0 7.16344 7.16344 0 16 0H1264C1272.84 0 1280 7.16344 1280 16V296C1280 304.837 1272.84 312 1264 312H16C7.16343 312 0 304.837 0 296V16Z" fill="white"/>
</clipPath>
</defs>
</svg>
