<svg width="390" height="264" viewBox="0 0 390 264" fill="none" xmlns="http://www.w3.org/2000/svg">
<rect width="390" height="264" rx="4" fill="#F8F8F8"/>
<g filter="url(#filter0_ddd_1709_35235)">
<rect x="115" y="80" width="160" height="156" rx="8" fill="white"/>
<path d="M135.188 103.087V103.671C135.188 104.365 135.102 104.987 134.928 105.537C134.755 106.087 134.505 106.555 134.179 106.94C133.853 107.325 133.462 107.619 133.005 107.822C132.552 108.025 132.044 108.127 131.481 108.127C130.936 108.127 130.434 108.025 129.977 107.822C129.524 107.619 129.131 107.325 128.796 106.94C128.466 106.555 128.21 106.087 128.028 105.537C127.846 104.987 127.755 104.365 127.755 103.671V103.087C127.755 102.393 127.844 101.773 128.022 101.227C128.204 100.677 128.46 100.209 128.79 99.8242C129.12 99.4349 129.512 99.1387 129.964 98.9355C130.421 98.7324 130.923 98.6309 131.469 98.6309C132.032 98.6309 132.539 98.7324 132.992 98.9355C133.449 99.1387 133.841 99.4349 134.167 99.8242C134.497 100.209 134.748 100.677 134.922 101.227C135.1 101.773 135.188 102.393 135.188 103.087ZM133.976 103.671V103.074C133.976 102.524 133.919 102.037 133.805 101.614C133.695 101.191 133.532 100.836 133.316 100.548C133.1 100.26 132.836 100.042 132.522 99.894C132.214 99.7459 131.862 99.6719 131.469 99.6719C131.088 99.6719 130.743 99.7459 130.434 99.894C130.129 100.042 129.867 100.26 129.647 100.548C129.431 100.836 129.264 101.191 129.146 101.614C129.027 102.037 128.968 102.524 128.968 103.074V103.671C128.968 104.225 129.027 104.716 129.146 105.144C129.264 105.567 129.433 105.924 129.653 106.216C129.878 106.504 130.142 106.722 130.447 106.87C130.756 107.018 131.101 107.092 131.481 107.092C131.879 107.092 132.233 107.018 132.542 106.87C132.85 106.722 133.111 106.504 133.322 106.216C133.538 105.924 133.701 105.567 133.811 105.144C133.921 104.716 133.976 104.225 133.976 103.671ZM138.02 102.452V110.641H136.839V101.132H137.918L138.02 102.452ZM142.647 104.509V104.642C142.647 105.141 142.588 105.605 142.469 106.032C142.351 106.455 142.177 106.824 141.949 107.137C141.724 107.45 141.447 107.693 141.117 107.867C140.787 108.04 140.408 108.127 139.981 108.127C139.545 108.127 139.16 108.055 138.826 107.911C138.491 107.767 138.208 107.558 137.975 107.283C137.742 107.008 137.556 106.678 137.417 106.292C137.281 105.907 137.188 105.474 137.137 104.991V104.28C137.188 103.772 137.283 103.318 137.423 102.916C137.562 102.514 137.747 102.171 137.975 101.887C138.208 101.599 138.489 101.382 138.819 101.233C139.149 101.081 139.53 101.005 139.962 101.005C140.394 101.005 140.777 101.09 141.111 101.259C141.445 101.424 141.727 101.661 141.955 101.97C142.184 102.279 142.355 102.649 142.469 103.081C142.588 103.508 142.647 103.984 142.647 104.509ZM141.466 104.642V104.509C141.466 104.166 141.43 103.844 141.358 103.544C141.286 103.239 141.174 102.973 141.022 102.744C140.874 102.511 140.683 102.329 140.451 102.198C140.218 102.063 139.941 101.995 139.619 101.995C139.323 101.995 139.065 102.046 138.845 102.147C138.629 102.249 138.445 102.387 138.292 102.56C138.14 102.729 138.015 102.924 137.918 103.144C137.825 103.36 137.755 103.584 137.708 103.817V105.461C137.793 105.757 137.912 106.036 138.064 106.299C138.216 106.557 138.419 106.766 138.673 106.927C138.927 107.084 139.247 107.162 139.632 107.162C139.949 107.162 140.222 107.097 140.451 106.965C140.683 106.83 140.874 106.646 141.022 106.413C141.174 106.18 141.286 105.914 141.358 105.613C141.43 105.309 141.466 104.985 141.466 104.642ZM147.021 101.132V102.033H143.307V101.132H147.021ZM144.564 99.4624H145.738V106.299C145.738 106.532 145.774 106.707 145.846 106.826C145.918 106.944 146.011 107.022 146.125 107.061C146.24 107.099 146.362 107.118 146.494 107.118C146.591 107.118 146.693 107.109 146.798 107.092C146.908 107.071 146.991 107.054 147.046 107.042L147.052 108C146.959 108.03 146.836 108.057 146.684 108.083C146.536 108.112 146.356 108.127 146.145 108.127C145.857 108.127 145.592 108.07 145.351 107.956C145.11 107.841 144.917 107.651 144.773 107.384C144.634 107.113 144.564 106.75 144.564 106.292V99.4624ZM149.674 101.132V108H148.493V101.132H149.674ZM148.404 99.3101C148.404 99.1196 148.461 98.9588 148.576 98.8276C148.694 98.6965 148.868 98.6309 149.096 98.6309C149.32 98.6309 149.492 98.6965 149.61 98.8276C149.733 98.9588 149.794 99.1196 149.794 99.3101C149.794 99.492 149.733 99.6486 149.61 99.7798C149.492 99.9067 149.32 99.9702 149.096 99.9702C148.868 99.9702 148.694 99.9067 148.576 99.7798C148.461 99.6486 148.404 99.492 148.404 99.3101ZM151.248 104.642V104.496C151.248 104.001 151.32 103.542 151.464 103.119C151.608 102.691 151.815 102.321 152.086 102.008C152.357 101.69 152.685 101.445 153.07 101.271C153.455 101.094 153.887 101.005 154.365 101.005C154.847 101.005 155.281 101.094 155.666 101.271C156.055 101.445 156.385 101.69 156.656 102.008C156.931 102.321 157.141 102.691 157.285 103.119C157.429 103.542 157.5 104.001 157.5 104.496V104.642C157.5 105.137 157.429 105.596 157.285 106.02C157.141 106.443 156.931 106.813 156.656 107.13C156.385 107.444 156.057 107.689 155.672 107.867C155.292 108.04 154.86 108.127 154.377 108.127C153.895 108.127 153.461 108.04 153.076 107.867C152.691 107.689 152.361 107.444 152.086 107.13C151.815 106.813 151.608 106.443 151.464 106.02C151.32 105.596 151.248 105.137 151.248 104.642ZM152.422 104.496V104.642C152.422 104.985 152.463 105.309 152.543 105.613C152.623 105.914 152.744 106.18 152.905 106.413C153.07 106.646 153.275 106.83 153.521 106.965C153.766 107.097 154.052 107.162 154.377 107.162C154.699 107.162 154.98 107.097 155.222 106.965C155.467 106.83 155.67 106.646 155.831 106.413C155.992 106.18 156.112 105.914 156.193 105.613C156.278 105.309 156.32 104.985 156.32 104.642V104.496C156.32 104.158 156.278 103.838 156.193 103.538C156.112 103.233 155.99 102.964 155.825 102.731C155.664 102.494 155.461 102.308 155.215 102.173C154.974 102.037 154.691 101.97 154.365 101.97C154.043 101.97 153.76 102.037 153.514 102.173C153.273 102.308 153.07 102.494 152.905 102.731C152.744 102.964 152.623 103.233 152.543 103.538C152.463 103.838 152.422 104.158 152.422 104.496ZM160.147 102.598V108H158.973V101.132H160.084L160.147 102.598ZM159.868 104.306L159.379 104.287C159.384 103.817 159.453 103.383 159.589 102.985C159.724 102.583 159.915 102.234 160.16 101.938C160.406 101.642 160.698 101.413 161.036 101.252C161.379 101.087 161.758 101.005 162.172 101.005C162.511 101.005 162.816 101.051 163.086 101.145C163.357 101.233 163.588 101.377 163.778 101.576C163.973 101.775 164.121 102.033 164.223 102.351C164.324 102.664 164.375 103.047 164.375 103.5V108H163.194V103.487C163.194 103.127 163.141 102.839 163.036 102.624C162.93 102.403 162.775 102.245 162.572 102.147C162.369 102.046 162.119 101.995 161.823 101.995C161.531 101.995 161.265 102.056 161.023 102.179C160.786 102.302 160.581 102.471 160.408 102.687C160.238 102.903 160.105 103.15 160.008 103.43C159.915 103.705 159.868 103.997 159.868 104.306ZM176.677 103.087V103.671C176.677 104.365 176.59 104.987 176.417 105.537C176.243 106.087 175.993 106.555 175.667 106.94C175.342 107.325 174.95 107.619 174.493 107.822C174.04 108.025 173.533 108.127 172.97 108.127C172.424 108.127 171.922 108.025 171.465 107.822C171.013 107.619 170.619 107.325 170.285 106.94C169.955 106.555 169.699 106.087 169.517 105.537C169.335 104.987 169.244 104.365 169.244 103.671V103.087C169.244 102.393 169.333 101.773 169.51 101.227C169.692 100.677 169.948 100.209 170.278 99.8242C170.608 99.4349 171 99.1387 171.453 98.9355C171.91 98.7324 172.411 98.6309 172.957 98.6309C173.52 98.6309 174.028 98.7324 174.48 98.9355C174.938 99.1387 175.329 99.4349 175.655 99.8242C175.985 100.209 176.237 100.677 176.41 101.227C176.588 101.773 176.677 102.393 176.677 103.087ZM175.464 103.671V103.074C175.464 102.524 175.407 102.037 175.293 101.614C175.183 101.191 175.02 100.836 174.804 100.548C174.588 100.26 174.324 100.042 174.011 99.894C173.702 99.7459 173.351 99.6719 172.957 99.6719C172.576 99.6719 172.231 99.7459 171.922 99.894C171.618 100.042 171.355 100.26 171.135 100.548C170.919 100.836 170.752 101.191 170.634 101.614C170.515 102.037 170.456 102.524 170.456 103.074V103.671C170.456 104.225 170.515 104.716 170.634 105.144C170.752 105.567 170.922 105.924 171.142 106.216C171.366 106.504 171.63 106.722 171.935 106.87C172.244 107.018 172.589 107.092 172.97 107.092C173.368 107.092 173.721 107.018 174.03 106.87C174.339 106.722 174.599 106.504 174.811 106.216C175.026 105.924 175.189 105.567 175.299 105.144C175.409 104.716 175.464 104.225 175.464 103.671ZM179.508 102.598V108H178.333V101.132H179.444L179.508 102.598ZM179.229 104.306L178.74 104.287C178.744 103.817 178.814 103.383 178.949 102.985C179.085 102.583 179.275 102.234 179.521 101.938C179.766 101.642 180.058 101.413 180.396 101.252C180.739 101.087 181.118 101.005 181.533 101.005C181.871 101.005 182.176 101.051 182.447 101.145C182.718 101.233 182.948 101.377 183.139 101.576C183.333 101.775 183.481 102.033 183.583 102.351C183.685 102.664 183.735 103.047 183.735 103.5V108H182.555V103.487C182.555 103.127 182.502 102.839 182.396 102.624C182.29 102.403 182.136 102.245 181.933 102.147C181.729 102.046 181.48 101.995 181.184 101.995C180.892 101.995 180.625 102.056 180.384 102.179C180.147 102.302 179.942 102.471 179.768 102.687C179.599 102.903 179.465 103.15 179.368 103.43C179.275 103.705 179.229 103.997 179.229 104.306ZM188.369 108.127C187.891 108.127 187.457 108.047 187.068 107.886C186.683 107.721 186.351 107.49 186.071 107.194C185.796 106.898 185.585 106.546 185.437 106.14C185.288 105.734 185.214 105.29 185.214 104.807V104.541C185.214 103.982 185.297 103.485 185.462 103.049C185.627 102.609 185.851 102.236 186.135 101.932C186.418 101.627 186.74 101.396 187.1 101.24C187.459 101.083 187.832 101.005 188.217 101.005C188.708 101.005 189.131 101.09 189.486 101.259C189.846 101.428 190.14 101.665 190.369 101.97C190.597 102.27 190.766 102.626 190.876 103.036C190.986 103.442 191.042 103.887 191.042 104.369V104.896H185.913V103.938H189.867V103.849C189.85 103.544 189.787 103.248 189.677 102.96C189.571 102.672 189.402 102.435 189.169 102.249C188.936 102.063 188.619 101.97 188.217 101.97C187.95 101.97 187.705 102.027 187.48 102.141C187.256 102.251 187.064 102.416 186.903 102.636C186.742 102.856 186.617 103.125 186.528 103.442C186.439 103.76 186.395 104.126 186.395 104.541V104.807C186.395 105.133 186.439 105.44 186.528 105.728C186.621 106.011 186.755 106.261 186.928 106.477C187.106 106.692 187.32 106.862 187.569 106.984C187.823 107.107 188.111 107.168 188.433 107.168C188.847 107.168 189.199 107.084 189.486 106.915C189.774 106.745 190.026 106.519 190.242 106.235L190.953 106.8C190.805 107.025 190.616 107.238 190.388 107.441C190.159 107.645 189.878 107.81 189.543 107.937C189.213 108.063 188.822 108.127 188.369 108.127Z" fill="#505050"/>
<rect width="160" height="32" transform="translate(115 124)" fill="#F2F2F2"/>
<path d="M135.188 139.087V139.671C135.188 140.365 135.102 140.987 134.928 141.537C134.755 142.087 134.505 142.555 134.179 142.94C133.853 143.325 133.462 143.619 133.005 143.822C132.552 144.025 132.044 144.127 131.481 144.127C130.936 144.127 130.434 144.025 129.977 143.822C129.524 143.619 129.131 143.325 128.796 142.94C128.466 142.555 128.21 142.087 128.028 141.537C127.846 140.987 127.755 140.365 127.755 139.671V139.087C127.755 138.393 127.844 137.773 128.022 137.227C128.204 136.677 128.46 136.209 128.79 135.824C129.12 135.435 129.512 135.139 129.964 134.936C130.421 134.732 130.923 134.631 131.469 134.631C132.032 134.631 132.539 134.732 132.992 134.936C133.449 135.139 133.841 135.435 134.167 135.824C134.497 136.209 134.748 136.677 134.922 137.227C135.1 137.773 135.188 138.393 135.188 139.087ZM133.976 139.671V139.074C133.976 138.524 133.919 138.037 133.805 137.614C133.695 137.191 133.532 136.836 133.316 136.548C133.1 136.26 132.836 136.042 132.522 135.894C132.214 135.746 131.862 135.672 131.469 135.672C131.088 135.672 130.743 135.746 130.434 135.894C130.129 136.042 129.867 136.26 129.647 136.548C129.431 136.836 129.264 137.191 129.146 137.614C129.027 138.037 128.968 138.524 128.968 139.074V139.671C128.968 140.225 129.027 140.716 129.146 141.144C129.264 141.567 129.433 141.924 129.653 142.216C129.878 142.504 130.142 142.722 130.447 142.87C130.756 143.018 131.101 143.092 131.481 143.092C131.879 143.092 132.233 143.018 132.542 142.87C132.85 142.722 133.111 142.504 133.322 142.216C133.538 141.924 133.701 141.567 133.811 141.144C133.921 140.716 133.976 140.225 133.976 139.671ZM138.02 138.452V146.641H136.839V137.132H137.918L138.02 138.452ZM142.647 140.509V140.642C142.647 141.141 142.588 141.605 142.469 142.032C142.351 142.455 142.177 142.824 141.949 143.137C141.724 143.45 141.447 143.693 141.117 143.867C140.787 144.04 140.408 144.127 139.981 144.127C139.545 144.127 139.16 144.055 138.826 143.911C138.491 143.767 138.208 143.558 137.975 143.283C137.742 143.008 137.556 142.678 137.417 142.292C137.281 141.907 137.188 141.474 137.137 140.991V140.28C137.188 139.772 137.283 139.318 137.423 138.916C137.562 138.514 137.747 138.171 137.975 137.887C138.208 137.599 138.489 137.382 138.819 137.233C139.149 137.081 139.53 137.005 139.962 137.005C140.394 137.005 140.777 137.09 141.111 137.259C141.445 137.424 141.727 137.661 141.955 137.97C142.184 138.279 142.355 138.649 142.469 139.081C142.588 139.508 142.647 139.984 142.647 140.509ZM141.466 140.642V140.509C141.466 140.166 141.43 139.844 141.358 139.544C141.286 139.239 141.174 138.973 141.022 138.744C140.874 138.511 140.683 138.329 140.451 138.198C140.218 138.063 139.941 137.995 139.619 137.995C139.323 137.995 139.065 138.046 138.845 138.147C138.629 138.249 138.445 138.387 138.292 138.56C138.14 138.729 138.015 138.924 137.918 139.144C137.825 139.36 137.755 139.584 137.708 139.817V141.461C137.793 141.757 137.912 142.036 138.064 142.299C138.216 142.557 138.419 142.766 138.673 142.927C138.927 143.084 139.247 143.162 139.632 143.162C139.949 143.162 140.222 143.097 140.451 142.965C140.683 142.83 140.874 142.646 141.022 142.413C141.174 142.18 141.286 141.914 141.358 141.613C141.43 141.309 141.466 140.985 141.466 140.642ZM147.021 137.132V138.033H143.307V137.132H147.021ZM144.564 135.462H145.738V142.299C145.738 142.532 145.774 142.707 145.846 142.826C145.918 142.944 146.011 143.022 146.125 143.061C146.24 143.099 146.362 143.118 146.494 143.118C146.591 143.118 146.693 143.109 146.798 143.092C146.908 143.071 146.991 143.054 147.046 143.042L147.052 144C146.959 144.03 146.836 144.057 146.684 144.083C146.536 144.112 146.356 144.127 146.145 144.127C145.857 144.127 145.592 144.07 145.351 143.956C145.11 143.841 144.917 143.651 144.773 143.384C144.634 143.113 144.564 142.75 144.564 142.292V135.462ZM149.674 137.132V144H148.493V137.132H149.674ZM148.404 135.31C148.404 135.12 148.461 134.959 148.576 134.828C148.694 134.696 148.868 134.631 149.096 134.631C149.32 134.631 149.492 134.696 149.61 134.828C149.733 134.959 149.794 135.12 149.794 135.31C149.794 135.492 149.733 135.649 149.61 135.78C149.492 135.907 149.32 135.97 149.096 135.97C148.868 135.97 148.694 135.907 148.576 135.78C148.461 135.649 148.404 135.492 148.404 135.31ZM151.248 140.642V140.496C151.248 140.001 151.32 139.542 151.464 139.119C151.608 138.691 151.815 138.321 152.086 138.008C152.357 137.69 152.685 137.445 153.07 137.271C153.455 137.094 153.887 137.005 154.365 137.005C154.847 137.005 155.281 137.094 155.666 137.271C156.055 137.445 156.385 137.69 156.656 138.008C156.931 138.321 157.141 138.691 157.285 139.119C157.429 139.542 157.5 140.001 157.5 140.496V140.642C157.5 141.137 157.429 141.596 157.285 142.02C157.141 142.443 156.931 142.813 156.656 143.13C156.385 143.444 156.057 143.689 155.672 143.867C155.292 144.04 154.86 144.127 154.377 144.127C153.895 144.127 153.461 144.04 153.076 143.867C152.691 143.689 152.361 143.444 152.086 143.13C151.815 142.813 151.608 142.443 151.464 142.02C151.32 141.596 151.248 141.137 151.248 140.642ZM152.422 140.496V140.642C152.422 140.985 152.463 141.309 152.543 141.613C152.623 141.914 152.744 142.18 152.905 142.413C153.07 142.646 153.275 142.83 153.521 142.965C153.766 143.097 154.052 143.162 154.377 143.162C154.699 143.162 154.98 143.097 155.222 142.965C155.467 142.83 155.67 142.646 155.831 142.413C155.992 142.18 156.112 141.914 156.193 141.613C156.278 141.309 156.32 140.985 156.32 140.642V140.496C156.32 140.158 156.278 139.838 156.193 139.538C156.112 139.233 155.99 138.964 155.825 138.731C155.664 138.494 155.461 138.308 155.215 138.173C154.974 138.037 154.691 137.97 154.365 137.97C154.043 137.97 153.76 138.037 153.514 138.173C153.273 138.308 153.07 138.494 152.905 138.731C152.744 138.964 152.623 139.233 152.543 139.538C152.463 139.838 152.422 140.158 152.422 140.496ZM160.147 138.598V144H158.973V137.132H160.084L160.147 138.598ZM159.868 140.306L159.379 140.287C159.384 139.817 159.453 139.383 159.589 138.985C159.724 138.583 159.915 138.234 160.16 137.938C160.406 137.642 160.698 137.413 161.036 137.252C161.379 137.087 161.758 137.005 162.172 137.005C162.511 137.005 162.816 137.051 163.086 137.145C163.357 137.233 163.588 137.377 163.778 137.576C163.973 137.775 164.121 138.033 164.223 138.351C164.324 138.664 164.375 139.047 164.375 139.5V144H163.194V139.487C163.194 139.127 163.141 138.839 163.036 138.624C162.93 138.403 162.775 138.245 162.572 138.147C162.369 138.046 162.119 137.995 161.823 137.995C161.531 137.995 161.265 138.056 161.023 138.179C160.786 138.302 160.581 138.471 160.408 138.687C160.238 138.903 160.105 139.15 160.008 139.43C159.915 139.705 159.868 139.997 159.868 140.306ZM172.722 134.758V144H171.516V134.758H172.722ZM175.693 134.758V135.761H168.552V134.758H175.693ZM178.257 142.781L180.022 137.132H180.796L180.644 138.255L178.848 144H178.092L178.257 142.781ZM177.07 137.132L178.575 142.845L178.683 144H177.889L175.896 137.132H177.07ZM182.485 142.8L183.919 137.132H185.087L183.094 144H182.307L182.485 142.8ZM180.968 137.132L182.694 142.686L182.891 144H182.142L180.295 138.243L180.143 137.132H180.968ZM185.982 140.642V140.496C185.982 140.001 186.054 139.542 186.198 139.119C186.342 138.691 186.549 138.321 186.82 138.008C187.091 137.69 187.419 137.445 187.804 137.271C188.189 137.094 188.621 137.005 189.099 137.005C189.582 137.005 190.015 137.094 190.4 137.271C190.79 137.445 191.12 137.69 191.391 138.008C191.666 138.321 191.875 138.691 192.019 139.119C192.163 139.542 192.235 140.001 192.235 140.496V140.642C192.235 141.137 192.163 141.596 192.019 142.02C191.875 142.443 191.666 142.813 191.391 143.13C191.12 143.444 190.792 143.689 190.407 143.867C190.026 144.04 189.594 144.127 189.112 144.127C188.629 144.127 188.196 144.04 187.811 143.867C187.425 143.689 187.095 143.444 186.82 143.13C186.549 142.813 186.342 142.443 186.198 142.02C186.054 141.596 185.982 141.137 185.982 140.642ZM187.157 140.496V140.642C187.157 140.985 187.197 141.309 187.277 141.613C187.358 141.914 187.478 142.18 187.639 142.413C187.804 142.646 188.009 142.83 188.255 142.965C188.5 143.097 188.786 143.162 189.112 143.162C189.433 143.162 189.715 143.097 189.956 142.965C190.201 142.83 190.405 142.646 190.565 142.413C190.726 142.18 190.847 141.914 190.927 141.613C191.012 141.309 191.054 140.985 191.054 140.642V140.496C191.054 140.158 191.012 139.838 190.927 139.538C190.847 139.233 190.724 138.964 190.559 138.731C190.398 138.494 190.195 138.308 189.95 138.173C189.708 138.037 189.425 137.97 189.099 137.97C188.778 137.97 188.494 138.037 188.249 138.173C188.007 138.308 187.804 138.494 187.639 138.731C187.478 138.964 187.358 139.233 187.277 139.538C187.197 139.838 187.157 140.158 187.157 140.496Z" fill="#1A1A1A"/>
<path d="M135.188 175.087V175.671C135.188 176.365 135.102 176.987 134.928 177.537C134.755 178.087 134.505 178.555 134.179 178.94C133.853 179.325 133.462 179.619 133.005 179.822C132.552 180.025 132.044 180.127 131.481 180.127C130.936 180.127 130.434 180.025 129.977 179.822C129.524 179.619 129.131 179.325 128.796 178.94C128.466 178.555 128.21 178.087 128.028 177.537C127.846 176.987 127.755 176.365 127.755 175.671V175.087C127.755 174.393 127.844 173.773 128.022 173.227C128.204 172.677 128.46 172.209 128.79 171.824C129.12 171.435 129.512 171.139 129.964 170.936C130.421 170.732 130.923 170.631 131.469 170.631C132.032 170.631 132.539 170.732 132.992 170.936C133.449 171.139 133.841 171.435 134.167 171.824C134.497 172.209 134.748 172.677 134.922 173.227C135.1 173.773 135.188 174.393 135.188 175.087ZM133.976 175.671V175.074C133.976 174.524 133.919 174.037 133.805 173.614C133.695 173.191 133.532 172.836 133.316 172.548C133.1 172.26 132.836 172.042 132.522 171.894C132.214 171.746 131.862 171.672 131.469 171.672C131.088 171.672 130.743 171.746 130.434 171.894C130.129 172.042 129.867 172.26 129.647 172.548C129.431 172.836 129.264 173.191 129.146 173.614C129.027 174.037 128.968 174.524 128.968 175.074V175.671C128.968 176.225 129.027 176.716 129.146 177.144C129.264 177.567 129.433 177.924 129.653 178.216C129.878 178.504 130.142 178.722 130.447 178.87C130.756 179.018 131.101 179.092 131.481 179.092C131.879 179.092 132.233 179.018 132.542 178.87C132.85 178.722 133.111 178.504 133.322 178.216C133.538 177.924 133.701 177.567 133.811 177.144C133.921 176.716 133.976 176.225 133.976 175.671ZM138.02 174.452V182.641H136.839V173.132H137.918L138.02 174.452ZM142.647 176.509V176.642C142.647 177.141 142.588 177.605 142.469 178.032C142.351 178.455 142.177 178.824 141.949 179.137C141.724 179.45 141.447 179.693 141.117 179.867C140.787 180.04 140.408 180.127 139.981 180.127C139.545 180.127 139.16 180.055 138.826 179.911C138.491 179.767 138.208 179.558 137.975 179.283C137.742 179.008 137.556 178.678 137.417 178.292C137.281 177.907 137.188 177.474 137.137 176.991V176.28C137.188 175.772 137.283 175.318 137.423 174.916C137.562 174.514 137.747 174.171 137.975 173.887C138.208 173.599 138.489 173.382 138.819 173.233C139.149 173.081 139.53 173.005 139.962 173.005C140.394 173.005 140.777 173.09 141.111 173.259C141.445 173.424 141.727 173.661 141.955 173.97C142.184 174.279 142.355 174.649 142.469 175.081C142.588 175.508 142.647 175.984 142.647 176.509ZM141.466 176.642V176.509C141.466 176.166 141.43 175.844 141.358 175.544C141.286 175.239 141.174 174.973 141.022 174.744C140.874 174.511 140.683 174.329 140.451 174.198C140.218 174.063 139.941 173.995 139.619 173.995C139.323 173.995 139.065 174.046 138.845 174.147C138.629 174.249 138.445 174.387 138.292 174.56C138.14 174.729 138.015 174.924 137.918 175.144C137.825 175.36 137.755 175.584 137.708 175.817V177.461C137.793 177.757 137.912 178.036 138.064 178.299C138.216 178.557 138.419 178.766 138.673 178.927C138.927 179.084 139.247 179.162 139.632 179.162C139.949 179.162 140.222 179.097 140.451 178.965C140.683 178.83 140.874 178.646 141.022 178.413C141.174 178.18 141.286 177.914 141.358 177.613C141.43 177.309 141.466 176.985 141.466 176.642ZM147.021 173.132V174.033H143.307V173.132H147.021ZM144.564 171.462H145.738V178.299C145.738 178.532 145.774 178.707 145.846 178.826C145.918 178.944 146.011 179.022 146.125 179.061C146.24 179.099 146.362 179.118 146.494 179.118C146.591 179.118 146.693 179.109 146.798 179.092C146.908 179.071 146.991 179.054 147.046 179.042L147.052 180C146.959 180.03 146.836 180.057 146.684 180.083C146.536 180.112 146.356 180.127 146.145 180.127C145.857 180.127 145.592 180.07 145.351 179.956C145.11 179.841 144.917 179.651 144.773 179.384C144.634 179.113 144.564 178.75 144.564 178.292V171.462ZM149.674 173.132V180H148.493V173.132H149.674ZM148.404 171.31C148.404 171.12 148.461 170.959 148.576 170.828C148.694 170.696 148.868 170.631 149.096 170.631C149.32 170.631 149.492 170.696 149.61 170.828C149.733 170.959 149.794 171.12 149.794 171.31C149.794 171.492 149.733 171.649 149.61 171.78C149.492 171.907 149.32 171.97 149.096 171.97C148.868 171.97 148.694 171.907 148.576 171.78C148.461 171.649 148.404 171.492 148.404 171.31ZM151.248 176.642V176.496C151.248 176.001 151.32 175.542 151.464 175.119C151.608 174.691 151.815 174.321 152.086 174.008C152.357 173.69 152.685 173.445 153.07 173.271C153.455 173.094 153.887 173.005 154.365 173.005C154.847 173.005 155.281 173.094 155.666 173.271C156.055 173.445 156.385 173.69 156.656 174.008C156.931 174.321 157.141 174.691 157.285 175.119C157.429 175.542 157.5 176.001 157.5 176.496V176.642C157.5 177.137 157.429 177.596 157.285 178.02C157.141 178.443 156.931 178.813 156.656 179.13C156.385 179.444 156.057 179.689 155.672 179.867C155.292 180.04 154.86 180.127 154.377 180.127C153.895 180.127 153.461 180.04 153.076 179.867C152.691 179.689 152.361 179.444 152.086 179.13C151.815 178.813 151.608 178.443 151.464 178.02C151.32 177.596 151.248 177.137 151.248 176.642ZM152.422 176.496V176.642C152.422 176.985 152.463 177.309 152.543 177.613C152.623 177.914 152.744 178.18 152.905 178.413C153.07 178.646 153.275 178.83 153.521 178.965C153.766 179.097 154.052 179.162 154.377 179.162C154.699 179.162 154.98 179.097 155.222 178.965C155.467 178.83 155.67 178.646 155.831 178.413C155.992 178.18 156.112 177.914 156.193 177.613C156.278 177.309 156.32 176.985 156.32 176.642V176.496C156.32 176.158 156.278 175.838 156.193 175.538C156.112 175.233 155.99 174.964 155.825 174.731C155.664 174.494 155.461 174.308 155.215 174.173C154.974 174.037 154.691 173.97 154.365 173.97C154.043 173.97 153.76 174.037 153.514 174.173C153.273 174.308 153.07 174.494 152.905 174.731C152.744 174.964 152.623 175.233 152.543 175.538C152.463 175.838 152.422 176.158 152.422 176.496ZM160.147 174.598V180H158.973V173.132H160.084L160.147 174.598ZM159.868 176.306L159.379 176.287C159.384 175.817 159.453 175.383 159.589 174.985C159.724 174.583 159.915 174.234 160.16 173.938C160.406 173.642 160.698 173.413 161.036 173.252C161.379 173.087 161.758 173.005 162.172 173.005C162.511 173.005 162.816 173.051 163.086 173.145C163.357 173.233 163.588 173.377 163.778 173.576C163.973 173.775 164.121 174.033 164.223 174.351C164.324 174.664 164.375 175.047 164.375 175.5V180H163.194V175.487C163.194 175.127 163.141 174.839 163.036 174.624C162.93 174.403 162.775 174.245 162.572 174.147C162.369 174.046 162.119 173.995 161.823 173.995C161.531 173.995 161.265 174.056 161.023 174.179C160.786 174.302 160.581 174.471 160.408 174.687C160.238 174.903 160.105 175.15 160.008 175.43C159.915 175.705 159.868 175.997 159.868 176.306ZM172.722 170.758V180H171.516V170.758H172.722ZM175.693 170.758V171.761H168.552V170.758H175.693ZM178.061 170.25V180H176.886V170.25H178.061ZM177.781 176.306L177.292 176.287C177.297 175.817 177.367 175.383 177.502 174.985C177.637 174.583 177.828 174.234 178.073 173.938C178.319 173.642 178.611 173.413 178.949 173.252C179.292 173.087 179.671 173.005 180.085 173.005C180.424 173.005 180.729 173.051 181 173.145C181.27 173.233 181.501 173.377 181.691 173.576C181.886 173.775 182.034 174.033 182.136 174.351C182.237 174.664 182.288 175.047 182.288 175.5V180H181.107V175.487C181.107 175.127 181.055 174.839 180.949 174.624C180.843 174.403 180.688 174.245 180.485 174.147C180.282 174.046 180.033 173.995 179.736 173.995C179.444 173.995 179.178 174.056 178.937 174.179C178.7 174.302 178.494 174.471 178.321 174.687C178.152 174.903 178.018 175.15 177.921 175.43C177.828 175.705 177.781 175.997 177.781 176.306ZM185.221 174.211V180H184.046V173.132H185.189L185.221 174.211ZM187.366 173.094L187.36 174.186C187.263 174.164 187.169 174.152 187.081 174.147C186.996 174.139 186.899 174.135 186.789 174.135C186.518 174.135 186.279 174.177 186.071 174.262C185.864 174.346 185.688 174.465 185.544 174.617C185.401 174.77 185.286 174.951 185.202 175.163C185.121 175.37 185.068 175.599 185.043 175.849L184.713 176.039C184.713 175.624 184.753 175.235 184.833 174.871C184.918 174.507 185.047 174.186 185.221 173.906C185.394 173.623 185.614 173.403 185.881 173.246C186.152 173.085 186.473 173.005 186.846 173.005C186.93 173.005 187.028 173.015 187.138 173.037C187.248 173.054 187.324 173.073 187.366 173.094ZM191.175 180.127C190.697 180.127 190.263 180.047 189.874 179.886C189.488 179.721 189.156 179.49 188.877 179.194C188.602 178.898 188.39 178.546 188.242 178.14C188.094 177.734 188.02 177.29 188.02 176.807V176.541C188.02 175.982 188.103 175.485 188.268 175.049C188.433 174.609 188.657 174.236 188.94 173.932C189.224 173.627 189.546 173.396 189.905 173.24C190.265 173.083 190.637 173.005 191.022 173.005C191.513 173.005 191.937 173.09 192.292 173.259C192.652 173.428 192.946 173.665 193.174 173.97C193.403 174.27 193.572 174.626 193.682 175.036C193.792 175.442 193.847 175.887 193.847 176.369V176.896H188.718V175.938H192.673V175.849C192.656 175.544 192.592 175.248 192.482 174.96C192.377 174.672 192.207 174.435 191.975 174.249C191.742 174.063 191.424 173.97 191.022 173.97C190.756 173.97 190.51 174.027 190.286 174.141C190.062 174.251 189.869 174.416 189.708 174.636C189.548 174.856 189.423 175.125 189.334 175.442C189.245 175.76 189.201 176.126 189.201 176.541V176.807C189.201 177.133 189.245 177.44 189.334 177.728C189.427 178.011 189.56 178.261 189.734 178.477C189.912 178.692 190.125 178.862 190.375 178.984C190.629 179.107 190.917 179.168 191.238 179.168C191.653 179.168 192.004 179.084 192.292 178.915C192.58 178.745 192.832 178.519 193.047 178.235L193.758 178.8C193.61 179.025 193.422 179.238 193.193 179.441C192.965 179.645 192.683 179.81 192.349 179.937C192.019 180.063 191.628 180.127 191.175 180.127ZM198.068 180.127C197.59 180.127 197.156 180.047 196.767 179.886C196.382 179.721 196.05 179.49 195.771 179.194C195.495 178.898 195.284 178.546 195.136 178.14C194.988 177.734 194.914 177.29 194.914 176.807V176.541C194.914 175.982 194.996 175.485 195.161 175.049C195.326 174.609 195.55 174.236 195.834 173.932C196.118 173.627 196.439 173.396 196.799 173.24C197.159 173.083 197.531 173.005 197.916 173.005C198.407 173.005 198.83 173.09 199.186 173.259C199.545 173.428 199.839 173.665 200.068 173.97C200.296 174.27 200.466 174.626 200.576 175.036C200.686 175.442 200.741 175.887 200.741 176.369V176.896H195.612V175.938H199.566V175.849C199.549 175.544 199.486 175.248 199.376 174.96C199.27 174.672 199.101 174.435 198.868 174.249C198.635 174.063 198.318 173.97 197.916 173.97C197.649 173.97 197.404 174.027 197.18 174.141C196.955 174.251 196.763 174.416 196.602 174.636C196.441 174.856 196.316 175.125 196.228 175.442C196.139 175.76 196.094 176.126 196.094 176.541V176.807C196.094 177.133 196.139 177.44 196.228 177.728C196.321 178.011 196.454 178.261 196.627 178.477C196.805 178.692 197.019 178.862 197.269 178.984C197.522 179.107 197.81 179.168 198.132 179.168C198.547 179.168 198.898 179.084 199.186 178.915C199.473 178.745 199.725 178.519 199.941 178.235L200.652 178.8C200.504 179.025 200.315 179.238 200.087 179.441C199.858 179.645 199.577 179.81 199.243 179.937C198.913 180.063 198.521 180.127 198.068 180.127Z" fill="#505050"/>
<path d="M135.188 211.087V211.671C135.188 212.365 135.102 212.987 134.928 213.537C134.755 214.087 134.505 214.555 134.179 214.94C133.853 215.325 133.462 215.619 133.005 215.822C132.552 216.025 132.044 216.127 131.481 216.127C130.936 216.127 130.434 216.025 129.977 215.822C129.524 215.619 129.131 215.325 128.796 214.94C128.466 214.555 128.21 214.087 128.028 213.537C127.846 212.987 127.755 212.365 127.755 211.671V211.087C127.755 210.393 127.844 209.773 128.022 209.227C128.204 208.677 128.46 208.209 128.79 207.824C129.12 207.435 129.512 207.139 129.964 206.936C130.421 206.732 130.923 206.631 131.469 206.631C132.032 206.631 132.539 206.732 132.992 206.936C133.449 207.139 133.841 207.435 134.167 207.824C134.497 208.209 134.748 208.677 134.922 209.227C135.1 209.773 135.188 210.393 135.188 211.087ZM133.976 211.671V211.074C133.976 210.524 133.919 210.037 133.805 209.614C133.695 209.191 133.532 208.836 133.316 208.548C133.1 208.26 132.836 208.042 132.522 207.894C132.214 207.746 131.862 207.672 131.469 207.672C131.088 207.672 130.743 207.746 130.434 207.894C130.129 208.042 129.867 208.26 129.647 208.548C129.431 208.836 129.264 209.191 129.146 209.614C129.027 210.037 128.968 210.524 128.968 211.074V211.671C128.968 212.225 129.027 212.716 129.146 213.144C129.264 213.567 129.433 213.924 129.653 214.216C129.878 214.504 130.142 214.722 130.447 214.87C130.756 215.018 131.101 215.092 131.481 215.092C131.879 215.092 132.233 215.018 132.542 214.87C132.85 214.722 133.111 214.504 133.322 214.216C133.538 213.924 133.701 213.567 133.811 213.144C133.921 212.716 133.976 212.225 133.976 211.671ZM138.02 210.452V218.641H136.839V209.132H137.918L138.02 210.452ZM142.647 212.509V212.642C142.647 213.141 142.588 213.605 142.469 214.032C142.351 214.455 142.177 214.824 141.949 215.137C141.724 215.45 141.447 215.693 141.117 215.867C140.787 216.04 140.408 216.127 139.981 216.127C139.545 216.127 139.16 216.055 138.826 215.911C138.491 215.767 138.208 215.558 137.975 215.283C137.742 215.008 137.556 214.678 137.417 214.292C137.281 213.907 137.188 213.474 137.137 212.991V212.28C137.188 211.772 137.283 211.318 137.423 210.916C137.562 210.514 137.747 210.171 137.975 209.887C138.208 209.599 138.489 209.382 138.819 209.233C139.149 209.081 139.53 209.005 139.962 209.005C140.394 209.005 140.777 209.09 141.111 209.259C141.445 209.424 141.727 209.661 141.955 209.97C142.184 210.279 142.355 210.649 142.469 211.081C142.588 211.508 142.647 211.984 142.647 212.509ZM141.466 212.642V212.509C141.466 212.166 141.43 211.844 141.358 211.544C141.286 211.239 141.174 210.973 141.022 210.744C140.874 210.511 140.683 210.329 140.451 210.198C140.218 210.063 139.941 209.995 139.619 209.995C139.323 209.995 139.065 210.046 138.845 210.147C138.629 210.249 138.445 210.387 138.292 210.56C138.14 210.729 138.015 210.924 137.918 211.144C137.825 211.36 137.755 211.584 137.708 211.817V213.461C137.793 213.757 137.912 214.036 138.064 214.299C138.216 214.557 138.419 214.766 138.673 214.927C138.927 215.084 139.247 215.162 139.632 215.162C139.949 215.162 140.222 215.097 140.451 214.965C140.683 214.83 140.874 214.646 141.022 214.413C141.174 214.18 141.286 213.914 141.358 213.613C141.43 213.309 141.466 212.985 141.466 212.642ZM147.021 209.132V210.033H143.307V209.132H147.021ZM144.564 207.462H145.738V214.299C145.738 214.532 145.774 214.707 145.846 214.826C145.918 214.944 146.011 215.022 146.125 215.061C146.24 215.099 146.362 215.118 146.494 215.118C146.591 215.118 146.693 215.109 146.798 215.092C146.908 215.071 146.991 215.054 147.046 215.042L147.052 216C146.959 216.03 146.836 216.057 146.684 216.083C146.536 216.112 146.356 216.127 146.145 216.127C145.857 216.127 145.592 216.07 145.351 215.956C145.11 215.841 144.917 215.651 144.773 215.384C144.634 215.113 144.564 214.75 144.564 214.292V207.462ZM149.674 209.132V216H148.493V209.132H149.674ZM148.404 207.31C148.404 207.12 148.461 206.959 148.576 206.828C148.694 206.696 148.868 206.631 149.096 206.631C149.32 206.631 149.492 206.696 149.61 206.828C149.733 206.959 149.794 207.12 149.794 207.31C149.794 207.492 149.733 207.649 149.61 207.78C149.492 207.907 149.32 207.97 149.096 207.97C148.868 207.97 148.694 207.907 148.576 207.78C148.461 207.649 148.404 207.492 148.404 207.31ZM151.248 212.642V212.496C151.248 212.001 151.32 211.542 151.464 211.119C151.608 210.691 151.815 210.321 152.086 210.008C152.357 209.69 152.685 209.445 153.07 209.271C153.455 209.094 153.887 209.005 154.365 209.005C154.847 209.005 155.281 209.094 155.666 209.271C156.055 209.445 156.385 209.69 156.656 210.008C156.931 210.321 157.141 210.691 157.285 211.119C157.429 211.542 157.5 212.001 157.5 212.496V212.642C157.5 213.137 157.429 213.596 157.285 214.02C157.141 214.443 156.931 214.813 156.656 215.13C156.385 215.444 156.057 215.689 155.672 215.867C155.292 216.04 154.86 216.127 154.377 216.127C153.895 216.127 153.461 216.04 153.076 215.867C152.691 215.689 152.361 215.444 152.086 215.13C151.815 214.813 151.608 214.443 151.464 214.02C151.32 213.596 151.248 213.137 151.248 212.642ZM152.422 212.496V212.642C152.422 212.985 152.463 213.309 152.543 213.613C152.623 213.914 152.744 214.18 152.905 214.413C153.07 214.646 153.275 214.83 153.521 214.965C153.766 215.097 154.052 215.162 154.377 215.162C154.699 215.162 154.98 215.097 155.222 214.965C155.467 214.83 155.67 214.646 155.831 214.413C155.992 214.18 156.112 213.914 156.193 213.613C156.278 213.309 156.32 212.985 156.32 212.642V212.496C156.32 212.158 156.278 211.838 156.193 211.538C156.112 211.233 155.99 210.964 155.825 210.731C155.664 210.494 155.461 210.308 155.215 210.173C154.974 210.037 154.691 209.97 154.365 209.97C154.043 209.97 153.76 210.037 153.514 210.173C153.273 210.308 153.07 210.494 152.905 210.731C152.744 210.964 152.623 211.233 152.543 211.538C152.463 211.838 152.422 212.158 152.422 212.496ZM160.147 210.598V216H158.973V209.132H160.084L160.147 210.598ZM159.868 212.306L159.379 212.287C159.384 211.817 159.453 211.383 159.589 210.985C159.724 210.583 159.915 210.234 160.16 209.938C160.406 209.642 160.698 209.413 161.036 209.252C161.379 209.087 161.758 209.005 162.172 209.005C162.511 209.005 162.816 209.051 163.086 209.145C163.357 209.233 163.588 209.377 163.778 209.576C163.973 209.775 164.121 210.033 164.223 210.351C164.324 210.664 164.375 211.047 164.375 211.5V216H163.194V211.487C163.194 211.127 163.141 210.839 163.036 210.624C162.93 210.403 162.775 210.245 162.572 210.147C162.369 210.046 162.119 209.995 161.823 209.995C161.531 209.995 161.265 210.056 161.023 210.179C160.786 210.302 160.581 210.471 160.408 210.687C160.238 210.903 160.105 211.15 160.008 211.43C159.915 211.705 159.868 211.997 159.868 212.306ZM170.786 206.758V216H169.561V206.758H170.786ZM174.658 210.916V211.918H170.52V210.916H174.658ZM175.287 206.758V207.761H170.52V206.758H175.287ZM176.118 212.642V212.496C176.118 212.001 176.19 211.542 176.334 211.119C176.478 210.691 176.685 210.321 176.956 210.008C177.227 209.69 177.555 209.445 177.94 209.271C178.325 209.094 178.757 209.005 179.235 209.005C179.717 209.005 180.151 209.094 180.536 209.271C180.925 209.445 181.256 209.69 181.526 210.008C181.801 210.321 182.011 210.691 182.155 211.119C182.299 211.542 182.371 212.001 182.371 212.496V212.642C182.371 213.137 182.299 213.596 182.155 214.02C182.011 214.443 181.801 214.813 181.526 215.13C181.256 215.444 180.928 215.689 180.542 215.867C180.162 216.04 179.73 216.127 179.248 216.127C178.765 216.127 178.331 216.04 177.946 215.867C177.561 215.689 177.231 215.444 176.956 215.13C176.685 214.813 176.478 214.443 176.334 214.02C176.19 213.596 176.118 213.137 176.118 212.642ZM177.292 212.496V212.642C177.292 212.985 177.333 213.309 177.413 213.613C177.493 213.914 177.614 214.18 177.775 214.413C177.94 214.646 178.145 214.83 178.391 214.965C178.636 215.097 178.922 215.162 179.248 215.162C179.569 215.162 179.851 215.097 180.092 214.965C180.337 214.83 180.54 214.646 180.701 214.413C180.862 214.18 180.983 213.914 181.063 213.613C181.148 213.309 181.19 212.985 181.19 212.642V212.496C181.19 212.158 181.148 211.838 181.063 211.538C180.983 211.233 180.86 210.964 180.695 210.731C180.534 210.494 180.331 210.308 180.085 210.173C179.844 210.037 179.561 209.97 179.235 209.97C178.913 209.97 178.63 210.037 178.384 210.173C178.143 210.308 177.94 210.494 177.775 210.731C177.614 210.964 177.493 211.233 177.413 211.538C177.333 211.838 177.292 212.158 177.292 212.496ZM188.045 214.413V209.132H189.226V216H188.103L188.045 214.413ZM188.268 212.966L188.756 212.953C188.756 213.41 188.708 213.833 188.61 214.223C188.517 214.608 188.365 214.942 188.153 215.226C187.942 215.509 187.665 215.731 187.322 215.892C186.979 216.049 186.562 216.127 186.071 216.127C185.737 216.127 185.43 216.078 185.151 215.981C184.876 215.884 184.639 215.733 184.44 215.53C184.241 215.327 184.087 215.063 183.977 214.737C183.871 214.411 183.818 214.02 183.818 213.562V209.132H184.992V213.575C184.992 213.884 185.026 214.14 185.094 214.343C185.166 214.542 185.261 214.701 185.379 214.819C185.502 214.934 185.638 215.014 185.786 215.061C185.938 215.107 186.095 215.13 186.255 215.13C186.755 215.13 187.15 215.035 187.442 214.845C187.734 214.65 187.944 214.39 188.071 214.064C188.202 213.734 188.268 213.368 188.268 212.966ZM192.19 210.211V216H191.016V209.132H192.159L192.19 210.211ZM194.336 209.094L194.33 210.186C194.232 210.164 194.139 210.152 194.05 210.147C193.966 210.139 193.868 210.135 193.758 210.135C193.487 210.135 193.248 210.177 193.041 210.262C192.834 210.346 192.658 210.465 192.514 210.617C192.37 210.77 192.256 210.951 192.171 211.163C192.091 211.37 192.038 211.599 192.013 211.849L191.683 212.039C191.683 211.624 191.723 211.235 191.803 210.871C191.888 210.507 192.017 210.186 192.19 209.906C192.364 209.623 192.584 209.403 192.851 209.246C193.121 209.085 193.443 209.005 193.815 209.005C193.9 209.005 193.997 209.015 194.107 209.037C194.217 209.054 194.294 209.073 194.336 209.094Z" fill="#505050"/>
</g>
<rect x="243" y="40" width="32" height="32" rx="4" fill="#F2F2F2"/>
<path d="M265 56C265 56.5103 264.587 56.9234 264.077 56.9234H259.923V61.0772C259.923 61.5875 259.51 62 259 62C258.49 62 258.077 61.5875 258.077 61.0772V56.9234H253.923C253.413 56.9234 253 56.5103 253 56C253 55.4897 253.413 55.0772 253.923 55.0772H258.077V50.9234C258.077 50.4131 258.49 50 259 50C259.51 50 259.923 50.4131 259.923 50.9234V55.0772H264.077C264.588 55.0769 265 55.4894 265 56Z" fill="#1A1A1A"/>
<rect x="243" y="40" width="32" height="32" rx="4" stroke="#1A1A1A" stroke-width="2"/>
<defs>
<filter id="filter0_ddd_1709_35235" x="99" y="65" width="192" height="189" filterUnits="userSpaceOnUse" color-interpolation-filters="sRGB">
<feFlood flood-opacity="0" result="BackgroundImageFix"/>
<feColorMatrix in="SourceAlpha" type="matrix" values="0 0 0 0 0 0 0 0 0 0 0 0 0 0 0 0 0 0 127 0" result="hardAlpha"/>
<feOffset dy="2"/>
<feGaussianBlur stdDeviation="2"/>
<feColorMatrix type="matrix" values="0 0 0 0 0.45098 0 0 0 0 0.45098 0 0 0 0 0.45098 0 0 0 0.1 0"/>
<feBlend mode="normal" in2="BackgroundImageFix" result="effect1_dropShadow_1709_35235"/>
<feColorMatrix in="SourceAlpha" type="matrix" values="0 0 0 0 0 0 0 0 0 0 0 0 0 0 0 0 0 0 127 0" result="hardAlpha"/>
<feOffset dy="1"/>
<feGaussianBlur stdDeviation="8"/>
<feColorMatrix type="matrix" values="0 0 0 0 0.45098 0 0 0 0 0.45098 0 0 0 0 0.45098 0 0 0 0.05 0"/>
<feBlend mode="normal" in2="effect1_dropShadow_1709_35235" result="effect2_dropShadow_1709_35235"/>
<feColorMatrix in="SourceAlpha" type="matrix" values="0 0 0 0 0 0 0 0 0 0 0 0 0 0 0 0 0 0 127 0" result="hardAlpha"/>
<feOffset dy="6"/>
<feGaussianBlur stdDeviation="6"/>
<feColorMatrix type="matrix" values="0 0 0 0 0.45098 0 0 0 0 0.45098 0 0 0 0 0.45098 0 0 0 0.08 0"/>
<feBlend mode="normal" in2="effect2_dropShadow_1709_35235" result="effect3_dropShadow_1709_35235"/>
<feBlend mode="normal" in="SourceGraphic" in2="effect3_dropShadow_1709_35235" result="shape"/>
</filter>
</defs>
</svg>
