<svg width="800" height="163" viewBox="0 0 800 163" fill="none" xmlns="http://www.w3.org/2000/svg">
<rect width="800" height="163" rx="4" fill="#F8F8F8"/>
<rect x="289" y="66" width="40" height="40" rx="4" fill="#286EF1"/>
<path d="M315 86C315 86.5103 314.587 86.9234 314.077 86.9234H309.923V91.0772C309.923 91.5875 309.51 92 309 92C308.49 92 308.077 91.5875 308.077 91.0772V86.9234H303.923C303.413 86.9234 303 86.5103 303 86C303 85.4897 303.413 85.0772 303.923 85.0772H308.077V80.9234C308.077 80.4131 308.49 80 309 80C309.51 80 309.923 80.4131 309.923 80.9234V85.0772H314.077C314.588 85.0769 315 85.4894 315 86Z" fill="white"/>
<path d="M293.182 139H290.904L290.919 137.542H293.182C293.841 137.542 294.393 137.398 294.837 137.11C295.287 136.822 295.624 136.41 295.848 135.873C296.078 135.335 296.192 134.696 296.192 133.954V133.375C296.192 132.799 296.126 132.289 295.995 131.844C295.868 131.4 295.677 131.026 295.423 130.724C295.174 130.421 294.867 130.191 294.5 130.035C294.139 129.879 293.722 129.801 293.248 129.801H290.86V128.336H293.248C293.956 128.336 294.603 128.456 295.189 128.695C295.775 128.929 296.28 129.269 296.705 129.713C297.135 130.157 297.464 130.689 297.694 131.31C297.923 131.93 298.038 132.623 298.038 133.39V133.954C298.038 134.72 297.923 135.414 297.694 136.034C297.464 136.654 297.135 137.186 296.705 137.63C296.275 138.07 295.763 138.409 295.167 138.648C294.576 138.883 293.915 139 293.182 139ZM291.922 128.336V139H290.084V128.336H291.922ZM303.202 139.146C302.616 139.146 302.086 139.051 301.612 138.861C301.144 138.666 300.743 138.395 300.411 138.048C300.084 137.701 299.833 137.293 299.657 136.825C299.481 136.356 299.393 135.851 299.393 135.309V135.016C299.393 134.396 299.483 133.834 299.664 133.331C299.845 132.828 300.096 132.398 300.418 132.042C300.741 131.681 301.122 131.405 301.561 131.214C302 131.024 302.477 130.929 302.989 130.929C303.556 130.929 304.051 131.024 304.476 131.214C304.901 131.405 305.252 131.673 305.531 132.02C305.814 132.362 306.024 132.77 306.161 133.243C306.302 133.717 306.373 134.239 306.373 134.811V135.565H300.25V134.298H304.63V134.159C304.62 133.841 304.557 133.543 304.439 133.265C304.327 132.987 304.154 132.762 303.919 132.591C303.685 132.42 303.373 132.335 302.982 132.335C302.689 132.335 302.428 132.398 302.198 132.525C301.974 132.647 301.786 132.826 301.634 133.06C301.483 133.294 301.366 133.578 301.283 133.91C301.205 134.237 301.166 134.605 301.166 135.016V135.309C301.166 135.655 301.212 135.978 301.305 136.275C301.402 136.568 301.544 136.825 301.729 137.044C301.915 137.264 302.14 137.438 302.403 137.564C302.667 137.687 302.967 137.748 303.304 137.748C303.729 137.748 304.107 137.662 304.439 137.491C304.771 137.32 305.06 137.079 305.304 136.766L306.234 137.667C306.063 137.916 305.841 138.155 305.567 138.385C305.294 138.609 304.959 138.792 304.564 138.934C304.173 139.076 303.719 139.146 303.202 139.146ZM310.138 139H308.373V130.313C308.373 129.723 308.482 129.227 308.702 128.827C308.927 128.421 309.247 128.116 309.662 127.911C310.077 127.701 310.567 127.596 311.134 127.596C311.31 127.596 311.483 127.608 311.654 127.633C311.825 127.652 311.991 127.684 312.152 127.728L312.108 129.09C312.01 129.066 311.903 129.049 311.786 129.039C311.673 129.029 311.551 129.024 311.419 129.024C311.151 129.024 310.919 129.076 310.724 129.178C310.533 129.276 310.387 129.42 310.284 129.61C310.187 129.801 310.138 130.035 310.138 130.313V139ZM311.771 131.075V132.364H307.157V131.075H311.771ZM317.521 137.411V133.631C317.521 133.348 317.469 133.104 317.367 132.899C317.264 132.694 317.108 132.535 316.898 132.423C316.693 132.311 316.434 132.254 316.122 132.254C315.833 132.254 315.584 132.303 315.375 132.401C315.165 132.499 315.001 132.63 314.884 132.796C314.767 132.962 314.708 133.15 314.708 133.36H312.95C312.95 133.048 313.026 132.745 313.177 132.452C313.329 132.159 313.548 131.898 313.836 131.668C314.125 131.439 314.469 131.258 314.869 131.126C315.27 130.995 315.719 130.929 316.217 130.929C316.812 130.929 317.34 131.029 317.799 131.229C318.263 131.429 318.626 131.732 318.89 132.137C319.159 132.538 319.293 133.041 319.293 133.646V137.169C319.293 137.53 319.317 137.855 319.366 138.143C319.42 138.426 319.496 138.673 319.593 138.883V139H317.784C317.701 138.81 317.635 138.568 317.586 138.275C317.542 137.977 317.521 137.689 317.521 137.411ZM317.777 134.181L317.792 135.272H316.524C316.197 135.272 315.909 135.304 315.66 135.367C315.411 135.426 315.204 135.514 315.038 135.631C314.872 135.748 314.747 135.89 314.664 136.056C314.581 136.222 314.54 136.41 314.54 136.62C314.54 136.83 314.588 137.022 314.686 137.198C314.784 137.369 314.925 137.503 315.111 137.601C315.301 137.699 315.531 137.748 315.799 137.748C316.161 137.748 316.476 137.674 316.744 137.528C317.018 137.376 317.232 137.193 317.389 136.979C317.545 136.759 317.628 136.551 317.638 136.356L318.209 137.14C318.15 137.34 318.05 137.555 317.909 137.784C317.767 138.014 317.582 138.233 317.352 138.443C317.127 138.648 316.856 138.817 316.539 138.949C316.227 139.081 315.865 139.146 315.455 139.146C314.938 139.146 314.476 139.044 314.071 138.839C313.666 138.629 313.348 138.348 313.119 137.997C312.889 137.64 312.774 137.237 312.774 136.788C312.774 136.368 312.853 135.997 313.009 135.675C313.17 135.348 313.404 135.074 313.712 134.854C314.024 134.635 314.405 134.469 314.854 134.356C315.304 134.239 315.816 134.181 316.393 134.181H317.777ZM325.907 137.132V131.075H327.679V139H326.009L325.907 137.132ZM326.156 135.484L326.749 135.47C326.749 136.002 326.69 136.493 326.573 136.942C326.456 137.386 326.275 137.774 326.031 138.106C325.787 138.434 325.475 138.69 325.094 138.875C324.713 139.056 324.256 139.146 323.724 139.146C323.338 139.146 322.984 139.09 322.662 138.978C322.34 138.866 322.062 138.692 321.827 138.458C321.598 138.224 321.419 137.918 321.292 137.542C321.166 137.167 321.102 136.717 321.102 136.195V131.075H322.867V136.209C322.867 136.498 322.901 136.739 322.97 136.935C323.038 137.125 323.131 137.279 323.248 137.396C323.365 137.513 323.502 137.596 323.658 137.645C323.814 137.694 323.98 137.718 324.156 137.718C324.659 137.718 325.055 137.621 325.343 137.425C325.636 137.225 325.843 136.957 325.965 136.62C326.092 136.283 326.156 135.904 326.156 135.484ZM331.378 127.75V139H329.605V127.75H331.378ZM336.944 131.075V132.364H332.477V131.075H336.944ZM333.766 129.134H335.531V136.81C335.531 137.054 335.565 137.242 335.633 137.374C335.707 137.501 335.807 137.586 335.934 137.63C336.061 137.674 336.209 137.696 336.38 137.696C336.502 137.696 336.62 137.689 336.732 137.674C336.844 137.66 336.935 137.645 337.003 137.63L337.01 138.978C336.864 139.022 336.693 139.061 336.498 139.095C336.307 139.129 336.087 139.146 335.838 139.146C335.433 139.146 335.074 139.076 334.762 138.934C334.449 138.788 334.205 138.551 334.029 138.224C333.854 137.896 333.766 137.462 333.766 136.92V129.134Z" fill="#737373"/>
<rect x="438" y="66" width="40" height="40" rx="4" fill="#184291"/>
<path d="M464 86C464 86.5103 463.587 86.9234 463.077 86.9234H458.923V91.0772C458.923 91.5875 458.51 92 458 92C457.49 92 457.077 91.5875 457.077 91.0772V86.9234H452.923C452.413 86.9234 452 86.5103 452 86C452 85.4897 452.413 85.0772 452.923 85.0772H457.077V80.9234C457.077 80.4131 457.49 80 458 80C458.51 80 458.923 80.4131 458.923 80.9234V85.0772H463.077C463.588 85.0769 464 85.4894 464 86Z" fill="white"/>
<path d="M446.13 132.789V134.247H440.468V132.789H446.13ZM440.922 128.336V139H439.084V128.336H440.922ZM447.543 128.336V139H445.712V128.336H447.543ZM449.221 135.125V134.957C449.221 134.386 449.304 133.856 449.47 133.368C449.636 132.875 449.875 132.447 450.188 132.086C450.505 131.72 450.891 131.437 451.345 131.236C451.804 131.031 452.321 130.929 452.897 130.929C453.479 130.929 453.996 131.031 454.45 131.236C454.909 131.437 455.297 131.72 455.615 132.086C455.932 132.447 456.174 132.875 456.34 133.368C456.506 133.856 456.589 134.386 456.589 134.957V135.125C456.589 135.697 456.506 136.227 456.34 136.715C456.174 137.203 455.932 137.63 455.615 137.997C455.297 138.358 454.912 138.641 454.458 138.846C454.003 139.046 453.488 139.146 452.912 139.146C452.331 139.146 451.811 139.046 451.352 138.846C450.898 138.641 450.512 138.358 450.195 137.997C449.877 137.63 449.636 137.203 449.47 136.715C449.304 136.227 449.221 135.697 449.221 135.125ZM450.986 134.957V135.125C450.986 135.482 451.022 135.819 451.096 136.136C451.169 136.454 451.284 136.732 451.44 136.971C451.596 137.21 451.796 137.398 452.041 137.535C452.285 137.672 452.575 137.74 452.912 137.74C453.239 137.74 453.522 137.672 453.762 137.535C454.006 137.398 454.206 137.21 454.362 136.971C454.519 136.732 454.633 136.454 454.707 136.136C454.785 135.819 454.824 135.482 454.824 135.125V134.957C454.824 134.605 454.785 134.273 454.707 133.961C454.633 133.644 454.516 133.363 454.355 133.119C454.199 132.875 453.999 132.684 453.754 132.547C453.515 132.406 453.229 132.335 452.897 132.335C452.565 132.335 452.277 132.406 452.033 132.547C451.794 132.684 451.596 132.875 451.44 133.119C451.284 133.363 451.169 133.644 451.096 133.961C451.022 134.273 450.986 134.605 450.986 134.957ZM460.529 137.601L462.47 131.075H464.301L461.547 139H460.405L460.529 137.601ZM459.042 131.075L461.02 137.63L461.115 139H459.973L457.204 131.075H459.042ZM468.784 139.146C468.198 139.146 467.668 139.051 467.194 138.861C466.726 138.666 466.325 138.395 465.993 138.048C465.666 137.701 465.415 137.293 465.239 136.825C465.063 136.356 464.975 135.851 464.975 135.309V135.016C464.975 134.396 465.065 133.834 465.246 133.331C465.427 132.828 465.678 132.398 466 132.042C466.323 131.681 466.704 131.405 467.143 131.214C467.583 131.024 468.059 130.929 468.571 130.929C469.138 130.929 469.633 131.024 470.058 131.214C470.483 131.405 470.834 131.673 471.113 132.02C471.396 132.362 471.606 132.77 471.743 133.243C471.884 133.717 471.955 134.239 471.955 134.811V135.565H465.832V134.298H470.212V134.159C470.202 133.841 470.139 133.543 470.021 133.265C469.909 132.987 469.736 132.762 469.501 132.591C469.267 132.42 468.955 132.335 468.564 132.335C468.271 132.335 468.01 132.398 467.78 132.525C467.556 132.647 467.368 132.826 467.216 133.06C467.065 133.294 466.948 133.578 466.865 133.91C466.787 134.237 466.748 134.605 466.748 135.016V135.309C466.748 135.655 466.794 135.978 466.887 136.275C466.984 136.568 467.126 136.825 467.312 137.044C467.497 137.264 467.722 137.438 467.985 137.564C468.249 137.687 468.549 137.748 468.886 137.748C469.311 137.748 469.689 137.662 470.021 137.491C470.354 137.32 470.642 137.079 470.886 136.766L471.816 137.667C471.645 137.916 471.423 138.155 471.149 138.385C470.876 138.609 470.542 138.792 470.146 138.934C469.755 139.076 469.301 139.146 468.784 139.146ZM475.104 132.584V139H473.339V131.075H475.024L475.104 132.584ZM477.529 131.024L477.514 132.665C477.407 132.645 477.29 132.63 477.163 132.621C477.041 132.611 476.918 132.606 476.796 132.606C476.494 132.606 476.228 132.65 475.998 132.738C475.769 132.821 475.576 132.943 475.419 133.104C475.268 133.26 475.151 133.451 475.068 133.675C474.985 133.9 474.936 134.151 474.921 134.43L474.519 134.459C474.519 133.961 474.567 133.5 474.665 133.075C474.763 132.65 474.909 132.276 475.104 131.954C475.305 131.632 475.554 131.38 475.852 131.2C476.154 131.019 476.503 130.929 476.899 130.929C477.006 130.929 477.121 130.938 477.243 130.958C477.37 130.978 477.465 131 477.529 131.024Z" fill="#737373"/>
<rect x="405" y="20" width="106" height="36" rx="4" fill="#1A1A1A"/>
<path d="M421.895 33.5767L418.835 42H417.584L421.107 32.7578H421.914L421.895 33.5767ZM424.459 42L421.393 33.5767L421.374 32.7578H422.18L425.716 42H424.459ZM424.3 38.5786V39.5815H419.108V38.5786H424.3ZM431.105 40.667V32.25H432.286V42H431.207L431.105 40.667ZM426.484 38.6421V38.5088C426.484 37.984 426.547 37.508 426.674 37.0806C426.806 36.6489 426.99 36.2786 427.227 35.9697C427.468 35.6608 427.753 35.4238 428.083 35.2588C428.418 35.0895 428.79 35.0049 429.201 35.0049C429.632 35.0049 430.009 35.0811 430.331 35.2334C430.656 35.3815 430.931 35.5994 431.156 35.8872C431.384 36.1707 431.564 36.5135 431.695 36.9155C431.826 37.3175 431.917 37.7725 431.968 38.2803V38.8643C431.922 39.3678 431.831 39.8206 431.695 40.2227C431.564 40.6247 431.384 40.9674 431.156 41.251C430.931 41.5345 430.656 41.7524 430.331 41.9048C430.005 42.0529 429.624 42.127 429.188 42.127C428.786 42.127 428.418 42.0402 428.083 41.8667C427.753 41.6932 427.468 41.4499 427.227 41.1367C426.99 40.8236 426.806 40.4554 426.674 40.0322C426.547 39.6048 426.484 39.1414 426.484 38.6421ZM427.665 38.5088V38.6421C427.665 38.9849 427.698 39.3065 427.766 39.6069C427.838 39.9074 427.948 40.1719 428.096 40.4004C428.244 40.6289 428.433 40.8088 428.661 40.9399C428.89 41.0669 429.163 41.1304 429.48 41.1304C429.869 41.1304 430.189 41.0479 430.438 40.8828C430.692 40.7178 430.896 40.4998 431.048 40.229C431.2 39.9582 431.319 39.6641 431.403 39.3467V37.8169C431.353 37.5841 431.278 37.3599 431.181 37.144C431.088 36.924 430.965 36.7293 430.813 36.5601C430.665 36.3866 430.481 36.249 430.261 36.1475C430.045 36.0459 429.789 35.9951 429.493 35.9951C429.171 35.9951 428.894 36.0628 428.661 36.1982C428.433 36.3294 428.244 36.5114 428.096 36.7441C427.948 36.9727 427.838 37.2393 427.766 37.5439C427.698 37.8444 427.665 38.166 427.665 38.5088ZM438.443 40.667V32.25H439.624V42H438.544L438.443 40.667ZM433.822 38.6421V38.5088C433.822 37.984 433.885 37.508 434.012 37.0806C434.143 36.6489 434.327 36.2786 434.564 35.9697C434.806 35.6608 435.091 35.4238 435.421 35.2588C435.756 35.0895 436.128 35.0049 436.539 35.0049C436.97 35.0049 437.347 35.0811 437.668 35.2334C437.994 35.3815 438.269 35.5994 438.494 35.8872C438.722 36.1707 438.902 36.5135 439.033 36.9155C439.164 37.3175 439.255 37.7725 439.306 38.2803V38.8643C439.26 39.3678 439.169 39.8206 439.033 40.2227C438.902 40.6247 438.722 40.9674 438.494 41.251C438.269 41.5345 437.994 41.7524 437.668 41.9048C437.343 42.0529 436.962 42.127 436.526 42.127C436.124 42.127 435.756 42.0402 435.421 41.8667C435.091 41.6932 434.806 41.4499 434.564 41.1367C434.327 40.8236 434.143 40.4554 434.012 40.0322C433.885 39.6048 433.822 39.1414 433.822 38.6421ZM435.002 38.5088V38.6421C435.002 38.9849 435.036 39.3065 435.104 39.6069C435.176 39.9074 435.286 40.1719 435.434 40.4004C435.582 40.6289 435.771 40.8088 435.999 40.9399C436.228 41.0669 436.5 41.1304 436.818 41.1304C437.207 41.1304 437.527 41.0479 437.776 40.8828C438.03 40.7178 438.233 40.4998 438.386 40.229C438.538 39.9582 438.657 39.6641 438.741 39.3467V37.8169C438.69 37.5841 438.616 37.3599 438.519 37.144C438.426 36.924 438.303 36.7293 438.151 36.5601C438.003 36.3866 437.819 36.249 437.599 36.1475C437.383 36.0459 437.127 35.9951 436.831 35.9951C436.509 35.9951 436.232 36.0628 435.999 36.1982C435.771 36.3294 435.582 36.5114 435.434 36.7441C435.286 36.9727 435.176 37.2393 435.104 37.5439C435.036 37.8444 435.002 38.166 435.002 38.5088ZM445.851 36.5981V42H444.676V35.1318H445.787L445.851 36.5981ZM445.571 38.3057L445.083 38.2866C445.087 37.8169 445.157 37.3831 445.292 36.9854C445.427 36.5833 445.618 36.2342 445.863 35.938C446.109 35.6418 446.401 35.4132 446.739 35.2524C447.082 35.0874 447.461 35.0049 447.875 35.0049C448.214 35.0049 448.519 35.0514 448.79 35.1445C449.06 35.2334 449.291 35.3773 449.481 35.5762C449.676 35.7751 449.824 36.0332 449.926 36.3506C450.027 36.6637 450.078 37.0467 450.078 37.4995V42H448.897V37.4868C448.897 37.1271 448.845 36.8394 448.739 36.6235C448.633 36.4035 448.479 36.2448 448.275 36.1475C448.072 36.0459 447.823 35.9951 447.526 35.9951C447.234 35.9951 446.968 36.0565 446.727 36.1792C446.49 36.3019 446.284 36.4712 446.111 36.687C445.942 36.9028 445.808 37.1504 445.711 37.4297C445.618 37.7048 445.571 37.9967 445.571 38.3057ZM454.712 42.127C454.234 42.127 453.8 42.0465 453.411 41.8857C453.026 41.7207 452.693 41.4901 452.414 41.1938C452.139 40.8976 451.927 40.5464 451.779 40.1401C451.631 39.7339 451.557 39.2896 451.557 38.8071V38.5405C451.557 37.9819 451.64 37.4847 451.805 37.0488C451.97 36.6087 452.194 36.2363 452.478 35.9316C452.761 35.627 453.083 35.3963 453.442 35.2397C453.802 35.0832 454.174 35.0049 454.56 35.0049C455.05 35.0049 455.474 35.0895 455.829 35.2588C456.189 35.4281 456.483 35.665 456.711 35.9697C456.94 36.2702 457.109 36.6257 457.219 37.0361C457.329 37.4424 457.384 37.8867 457.384 38.3691V38.896H452.255V37.9375H456.21V37.8486C456.193 37.5439 456.13 37.2477 456.02 36.96C455.914 36.6722 455.744 36.4352 455.512 36.249C455.279 36.0628 454.962 35.9697 454.56 35.9697C454.293 35.9697 454.048 36.0269 453.823 36.1411C453.599 36.2511 453.406 36.4162 453.246 36.6362C453.085 36.8563 452.96 37.125 452.871 37.4424C452.782 37.7598 452.738 38.1258 452.738 38.5405V38.8071C452.738 39.133 452.782 39.4398 452.871 39.7275C452.964 40.0111 453.097 40.2607 453.271 40.4766C453.449 40.6924 453.662 40.8617 453.912 40.9844C454.166 41.1071 454.454 41.1685 454.775 41.1685C455.19 41.1685 455.541 41.0838 455.829 40.9146C456.117 40.7453 456.369 40.5189 456.584 40.2354L457.295 40.8003C457.147 41.0246 456.959 41.2383 456.73 41.4414C456.502 41.6445 456.221 41.8096 455.886 41.9365C455.556 42.0635 455.165 42.127 454.712 42.127ZM460.495 40.7812L462.259 35.1318H463.034L462.881 36.2554L461.085 42H460.33L460.495 40.7812ZM459.308 35.1318L460.812 40.8447L460.92 42H460.126L458.133 35.1318H459.308ZM464.722 40.8003L466.157 35.1318H467.325L465.332 42H464.544L464.722 40.8003ZM463.205 35.1318L464.932 40.686L465.128 42H464.379L462.532 36.2427L462.38 35.1318H463.205ZM473.507 42H472.333V34.4082C472.333 33.9131 472.422 33.4963 472.6 33.1577C472.782 32.8149 473.042 32.5568 473.38 32.3833C473.719 32.2056 474.121 32.1167 474.586 32.1167C474.722 32.1167 474.857 32.1252 474.993 32.1421C475.132 32.159 475.268 32.1844 475.399 32.2183L475.335 33.1768C475.247 33.1556 475.145 33.1408 475.031 33.1323C474.921 33.1239 474.811 33.1196 474.701 33.1196C474.451 33.1196 474.235 33.1704 474.053 33.272C473.875 33.3693 473.74 33.5132 473.647 33.7036C473.554 33.894 473.507 34.1289 473.507 34.4082V42ZM474.967 35.1318V36.0332H471.248V35.1318H474.967ZM475.964 38.6421V38.4961C475.964 38.001 476.036 37.5418 476.18 37.1187C476.324 36.6912 476.531 36.321 476.802 36.0078C477.073 35.6904 477.401 35.445 477.786 35.2715C478.171 35.0938 478.602 35.0049 479.081 35.0049C479.563 35.0049 479.997 35.0938 480.382 35.2715C480.771 35.445 481.101 35.6904 481.372 36.0078C481.647 36.321 481.857 36.6912 482 37.1187C482.144 37.5418 482.216 38.001 482.216 38.4961V38.6421C482.216 39.1372 482.144 39.5964 482 40.0195C481.857 40.4427 481.647 40.813 481.372 41.1304C481.101 41.4435 480.773 41.689 480.388 41.8667C480.007 42.0402 479.576 42.127 479.093 42.127C478.611 42.127 478.177 42.0402 477.792 41.8667C477.407 41.689 477.077 41.4435 476.802 41.1304C476.531 40.813 476.324 40.4427 476.18 40.0195C476.036 39.5964 475.964 39.1372 475.964 38.6421ZM477.138 38.4961V38.6421C477.138 38.9849 477.178 39.3086 477.259 39.6133C477.339 39.9137 477.46 40.1803 477.621 40.4131C477.786 40.6458 477.991 40.8299 478.236 40.9653C478.482 41.0965 478.767 41.1621 479.093 41.1621C479.415 41.1621 479.696 41.0965 479.938 40.9653C480.183 40.8299 480.386 40.6458 480.547 40.4131C480.708 40.1803 480.828 39.9137 480.909 39.6133C480.993 39.3086 481.036 38.9849 481.036 38.6421V38.4961C481.036 38.1576 480.993 37.8381 480.909 37.5376C480.828 37.2329 480.706 36.9642 480.541 36.7314C480.38 36.4945 480.177 36.3083 479.931 36.1729C479.69 36.0374 479.406 35.9697 479.081 35.9697C478.759 35.9697 478.475 36.0374 478.23 36.1729C477.989 36.3083 477.786 36.4945 477.621 36.7314C477.46 36.9642 477.339 37.2329 477.259 37.5376C477.178 37.8381 477.138 38.1576 477.138 38.4961ZM484.863 36.2109V42H483.689V35.1318H484.832L484.863 36.2109ZM487.009 35.0938L487.002 36.1855C486.905 36.1644 486.812 36.1517 486.723 36.1475C486.639 36.139 486.541 36.1348 486.431 36.1348C486.16 36.1348 485.921 36.1771 485.714 36.2617C485.507 36.3464 485.331 36.4648 485.187 36.6172C485.043 36.7695 484.929 36.9515 484.844 37.1631C484.764 37.3704 484.711 37.599 484.686 37.8486L484.355 38.0391C484.355 37.6243 484.396 37.235 484.476 36.8711C484.561 36.5072 484.69 36.1855 484.863 35.9062C485.037 35.6227 485.257 35.4027 485.523 35.2461C485.794 35.0853 486.116 35.0049 486.488 35.0049C486.573 35.0049 486.67 35.0155 486.78 35.0366C486.89 35.0535 486.966 35.0726 487.009 35.0938ZM489.262 36.4966V42H488.082V35.1318H489.199L489.262 36.4966ZM489.021 38.3057L488.475 38.2866C488.479 37.8169 488.541 37.3831 488.659 36.9854C488.778 36.5833 488.953 36.2342 489.186 35.938C489.419 35.6418 489.709 35.4132 490.056 35.2524C490.403 35.0874 490.805 35.0049 491.262 35.0049C491.583 35.0049 491.88 35.0514 492.15 35.1445C492.421 35.2334 492.656 35.3752 492.855 35.5698C493.054 35.7645 493.208 36.0142 493.318 36.3188C493.428 36.6235 493.483 36.9917 493.483 37.4233V42H492.309V37.4805C492.309 37.1208 492.248 36.833 492.125 36.6172C492.007 36.4014 491.837 36.2448 491.617 36.1475C491.397 36.0459 491.139 35.9951 490.843 35.9951C490.496 35.9951 490.206 36.0565 489.973 36.1792C489.74 36.3019 489.554 36.4712 489.415 36.687C489.275 36.9028 489.173 37.1504 489.11 37.4297C489.051 37.7048 489.021 37.9967 489.021 38.3057ZM493.471 37.6582L492.684 37.8994C492.688 37.5228 492.749 37.161 492.868 36.814C492.99 36.467 493.166 36.158 493.395 35.8872C493.627 35.6164 493.913 35.4027 494.251 35.2461C494.59 35.0853 494.977 35.0049 495.413 35.0049C495.781 35.0049 496.107 35.0535 496.391 35.1509C496.678 35.2482 496.92 35.3984 497.114 35.6016C497.313 35.8005 497.463 36.0565 497.565 36.3696C497.667 36.6828 497.717 37.0552 497.717 37.4868V42H496.537V37.4741C496.537 37.089 496.475 36.7907 496.353 36.5791C496.234 36.3633 496.065 36.2131 495.845 36.1284C495.629 36.0396 495.371 35.9951 495.07 35.9951C494.812 35.9951 494.584 36.0396 494.385 36.1284C494.186 36.2173 494.019 36.34 493.883 36.4966C493.748 36.6489 493.644 36.8245 493.572 37.0234C493.505 37.2223 493.471 37.4339 493.471 37.6582Z" fill="white"/>
<path d="M452 56H464L458 62L452 56Z" fill="#1A1A1A"/>
</svg>
