<svg width="1280" height="324" viewBox="0 0 1280 324" fill="none" xmlns="http://www.w3.org/2000/svg">
<rect width="1280" height="324" rx="16" fill="#F8F8F8"/>
<rect x="689" y="60" width="404" height="209" rx="4" fill="#1A1A1A" fill-opacity="0.7"/>
<path d="M978 184C978 192.837 970.837 200 962 200C953.163 200 946 192.837 946 184C946 175.163 953.163 168 962 168C970.837 168 978 175.163 978 184Z" stroke="white" stroke-opacity="0.3" stroke-width="4"/>
<path d="M962 166C964.364 166 966.704 166.466 968.888 167.37C971.072 168.275 973.056 169.601 974.728 171.272C976.399 172.944 977.725 174.928 978.63 177.112C979.534 179.296 980 181.636 980 184L976.004 184C976.004 182.161 975.642 180.34 974.938 178.641C974.234 176.942 973.203 175.398 971.902 174.098C970.602 172.797 969.058 171.766 967.359 171.062C965.66 170.358 963.839 169.996 962 169.996V166Z" fill="white"/>
<path d="M816 172C816 176.418 812.418 180 808 180C803.582 180 800 176.418 800 172C800 167.582 803.582 164 808 164C812.418 164 816 167.582 816 172Z" stroke="white" stroke-opacity="0.3" stroke-width="2"/>
<path d="M808 163C809.182 163 810.352 163.233 811.444 163.685C812.536 164.137 813.528 164.8 814.364 165.636C815.2 166.472 815.863 167.464 816.315 168.556C816.767 169.648 817 170.818 817 172L815.002 172C815.002 171.08 814.821 170.17 814.469 169.32C814.117 168.471 813.601 167.699 812.951 167.049C812.301 166.399 811.529 165.883 810.68 165.531C809.83 165.179 808.92 164.998 808 164.998V163Z" fill="white"/>
<path d="M799.625 114H797.65L797.663 112.737H799.625C800.196 112.737 800.674 112.612 801.059 112.362C801.448 112.113 801.74 111.755 801.935 111.29C802.134 110.824 802.233 110.27 802.233 109.626V109.125C802.233 108.626 802.176 108.183 802.062 107.798C801.952 107.413 801.787 107.09 801.567 106.827C801.351 106.565 801.084 106.366 800.767 106.23C800.454 106.095 800.092 106.027 799.682 106.027H797.612V104.758H799.682C800.295 104.758 800.856 104.861 801.364 105.069C801.872 105.272 802.31 105.566 802.678 105.951C803.05 106.336 803.336 106.798 803.535 107.335C803.734 107.872 803.833 108.473 803.833 109.138V109.626C803.833 110.291 803.734 110.892 803.535 111.429C803.336 111.967 803.05 112.428 802.678 112.813C802.305 113.194 801.861 113.488 801.345 113.695C800.833 113.898 800.259 114 799.625 114ZM798.533 104.758V114H796.939V104.758H798.533ZM812.482 112.737V114H807.575V112.737H812.482ZM808.026 104.758V114H806.433V104.758H808.026ZM811.841 108.617V109.861H807.575V108.617H811.841ZM812.45 104.758V106.027H807.575V104.758H812.45ZM816.376 104.758V114H814.783V104.758H816.376ZM820.147 108.801V110.064H815.97V108.801H820.147ZM820.674 104.758V106.027H815.97V104.758H820.674ZM825.413 105.989L822.651 114H820.982L824.46 104.758H825.527L825.413 105.989ZM827.723 114L824.956 105.989L824.835 104.758H825.908L829.399 114H827.723ZM827.59 110.572V111.835H822.562V110.572H827.59ZM836.505 104.758H838.092V110.934C838.092 111.637 837.94 112.225 837.635 112.699C837.331 113.173 836.916 113.53 836.391 113.771C835.871 114.008 835.289 114.127 834.646 114.127C833.981 114.127 833.389 114.008 832.868 113.771C832.348 113.53 831.937 113.173 831.637 112.699C831.34 112.225 831.192 111.637 831.192 110.934V104.758H832.779V110.934C832.779 111.378 832.855 111.744 833.008 112.032C833.16 112.316 833.376 112.525 833.655 112.661C833.935 112.796 834.265 112.864 834.646 112.864C835.026 112.864 835.354 112.796 835.629 112.661C835.909 112.525 836.125 112.316 836.277 112.032C836.429 111.744 836.505 111.378 836.505 110.934V104.758ZM846.614 112.737V114H841.974V112.737H846.614ZM842.418 104.758V114H840.825V104.758H842.418ZM851.061 104.758V114H849.48V104.758H851.061ZM853.962 104.758V106.027H846.605V104.758H853.962Z" fill="#E6E6E6"/>
<path d="M944.729 112.737V114H940.088V112.737H944.729ZM940.533 104.758V114H938.939V104.758H940.533ZM950.686 105.989L947.925 114H946.255L949.734 104.758H950.8L950.686 105.989ZM952.997 114L950.229 105.989L950.108 104.758H951.181L954.672 114H952.997ZM952.863 110.572V111.835H947.836V110.572H952.863ZM956.707 104.758H959.976C960.679 104.758 961.277 104.864 961.772 105.075C962.268 105.287 962.646 105.6 962.909 106.015C963.175 106.425 963.309 106.933 963.309 107.538C963.309 107.999 963.224 108.406 963.055 108.757C962.885 109.108 962.646 109.404 962.337 109.646C962.028 109.882 961.66 110.067 961.233 110.198L960.75 110.433H957.812L957.799 109.169H960.001C960.382 109.169 960.7 109.102 960.954 108.966C961.208 108.831 961.398 108.647 961.525 108.414C961.656 108.177 961.722 107.91 961.722 107.614C961.722 107.293 961.658 107.013 961.531 106.776C961.409 106.535 961.218 106.351 960.96 106.224C960.702 106.093 960.374 106.027 959.976 106.027H958.3V114H956.707V104.758ZM961.982 114L959.811 109.849L961.48 109.842L963.683 113.917V114H961.982ZM972.992 109.277V112.807C972.861 112.98 972.656 113.171 972.376 113.378C972.101 113.581 971.735 113.757 971.278 113.905C970.821 114.053 970.252 114.127 969.571 114.127C968.991 114.127 968.46 114.03 967.978 113.835C967.495 113.636 967.078 113.346 966.727 112.965C966.38 112.584 966.111 112.121 965.921 111.575C965.73 111.025 965.635 110.399 965.635 109.696V109.055C965.635 108.357 965.722 107.735 965.896 107.189C966.073 106.639 966.327 106.173 966.657 105.792C966.987 105.412 967.385 105.124 967.851 104.929C968.32 104.73 968.851 104.631 969.444 104.631C970.201 104.631 970.828 104.758 971.323 105.012C971.822 105.261 972.207 105.608 972.478 106.053C972.749 106.497 972.92 107.005 972.992 107.576H971.431C971.38 107.255 971.28 106.967 971.132 106.713C970.988 106.459 970.781 106.26 970.51 106.116C970.244 105.968 969.897 105.894 969.469 105.894C969.101 105.894 968.777 105.964 968.498 106.104C968.219 106.243 967.986 106.448 967.8 106.719C967.618 106.99 967.48 107.32 967.387 107.709C967.294 108.099 967.248 108.543 967.248 109.042V109.696C967.248 110.204 967.3 110.655 967.406 111.048C967.516 111.442 967.673 111.774 967.876 112.045C968.083 112.316 968.335 112.521 968.631 112.661C968.928 112.796 969.262 112.864 969.634 112.864C969.998 112.864 970.297 112.834 970.529 112.775C970.762 112.711 970.946 112.637 971.082 112.553C971.221 112.464 971.329 112.379 971.405 112.299V110.464H969.482V109.277H972.992ZM981.806 112.737V114H976.899V112.737H981.806ZM977.35 104.758V114H975.757V104.758H977.35ZM981.165 108.617V109.861H976.899V108.617H981.165ZM981.774 104.758V106.027H976.899V104.758H981.774Z" fill="#E6E6E6"/>
<g opacity="0.9">
<rect width="402" height="209" transform="translate(205 60)" fill="white" fill-opacity="0.9"/>
<path d="M491 184C491 192.837 483.837 200 475 200C466.163 200 459 192.837 459 184C459 175.163 466.163 168 475 168C483.837 168 491 175.163 491 184Z" stroke="#E6E6E6" stroke-width="4"/>
<path d="M475 166C477.364 166 479.704 166.466 481.888 167.37C484.072 168.275 486.056 169.601 487.728 171.272C489.399 172.944 490.725 174.928 491.63 177.112C492.534 179.296 493 181.636 493 184L489.004 184C489.004 182.161 488.642 180.34 487.938 178.641C487.234 176.942 486.203 175.398 484.902 174.098C483.602 172.797 482.058 171.766 480.359 171.062C478.66 170.358 476.839 169.996 475 169.996V166Z" fill="#0059FF"/>
<path d="M332 172C332 176.418 328.418 180 324 180C319.582 180 316 176.418 316 172C316 167.582 319.582 164 324 164C328.418 164 332 167.582 332 172Z" stroke="#E6E6E6" stroke-width="2"/>
<path d="M324 163C325.182 163 326.352 163.233 327.444 163.685C328.536 164.137 329.528 164.8 330.364 165.636C331.2 166.472 331.863 167.464 332.315 168.556C332.767 169.648 333 170.818 333 172L331.002 172C331.002 171.08 330.821 170.17 330.469 169.32C330.117 168.471 329.601 167.699 328.951 167.049C328.301 166.399 327.529 165.883 326.68 165.531C325.83 165.179 324.92 164.998 324 164.998V163Z" fill="#0059FF"/>
<path d="M315.625 114H313.65L313.663 112.737H315.625C316.196 112.737 316.674 112.612 317.059 112.362C317.448 112.113 317.74 111.755 317.935 111.29C318.134 110.824 318.233 110.27 318.233 109.626V109.125C318.233 108.626 318.176 108.183 318.062 107.798C317.952 107.413 317.787 107.09 317.567 106.827C317.351 106.565 317.084 106.366 316.767 106.23C316.454 106.095 316.092 106.027 315.682 106.027H313.612V104.758H315.682C316.295 104.758 316.856 104.861 317.364 105.069C317.872 105.272 318.31 105.566 318.678 105.951C319.05 106.336 319.336 106.798 319.535 107.335C319.734 107.872 319.833 108.473 319.833 109.138V109.626C319.833 110.291 319.734 110.892 319.535 111.429C319.336 111.967 319.05 112.428 318.678 112.813C318.305 113.194 317.861 113.488 317.345 113.695C316.833 113.898 316.259 114 315.625 114ZM314.533 104.758V114H312.939V104.758H314.533ZM328.482 112.737V114H323.575V112.737H328.482ZM324.026 104.758V114H322.433V104.758H324.026ZM327.841 108.617V109.861H323.575V108.617H327.841ZM328.45 104.758V106.027H323.575V104.758H328.45ZM332.376 104.758V114H330.783V104.758H332.376ZM336.147 108.801V110.064H331.97V108.801H336.147ZM336.674 104.758V106.027H331.97V104.758H336.674ZM341.413 105.989L338.651 114H336.982L340.46 104.758H341.527L341.413 105.989ZM343.723 114L340.956 105.989L340.835 104.758H341.908L345.399 114H343.723ZM343.59 110.572V111.835H338.562V110.572H343.59ZM352.505 104.758H354.092V110.934C354.092 111.637 353.94 112.225 353.635 112.699C353.331 113.173 352.916 113.53 352.391 113.771C351.871 114.008 351.289 114.127 350.646 114.127C349.981 114.127 349.389 114.008 348.868 113.771C348.348 113.53 347.937 113.173 347.637 112.699C347.34 112.225 347.192 111.637 347.192 110.934V104.758H348.779V110.934C348.779 111.378 348.855 111.744 349.008 112.032C349.16 112.316 349.376 112.525 349.655 112.661C349.935 112.796 350.265 112.864 350.646 112.864C351.026 112.864 351.354 112.796 351.629 112.661C351.909 112.525 352.125 112.316 352.277 112.032C352.429 111.744 352.505 111.378 352.505 110.934V104.758ZM362.614 112.737V114H357.974V112.737H362.614ZM358.418 104.758V114H356.825V104.758H358.418ZM367.061 104.758V114H365.48V104.758H367.061ZM369.962 104.758V106.027H362.605V104.758H369.962Z" fill="#737373"/>
<path d="M457.729 112.737V114H453.088V112.737H457.729ZM453.533 104.758V114H451.939V104.758H453.533ZM463.686 105.989L460.925 114H459.255L462.734 104.758H463.8L463.686 105.989ZM465.997 114L463.229 105.989L463.108 104.758H464.181L467.672 114H465.997ZM465.863 110.572V111.835H460.836V110.572H465.863ZM469.707 104.758H472.976C473.679 104.758 474.277 104.864 474.772 105.075C475.268 105.287 475.646 105.6 475.909 106.015C476.175 106.425 476.309 106.933 476.309 107.538C476.309 107.999 476.224 108.406 476.055 108.757C475.885 109.108 475.646 109.404 475.337 109.646C475.028 109.882 474.66 110.067 474.233 110.198L473.75 110.433H470.812L470.799 109.169H473.001C473.382 109.169 473.7 109.102 473.954 108.966C474.208 108.831 474.398 108.647 474.525 108.414C474.656 108.177 474.722 107.91 474.722 107.614C474.722 107.293 474.658 107.013 474.531 106.776C474.409 106.535 474.218 106.351 473.96 106.224C473.702 106.093 473.374 106.027 472.976 106.027H471.3V114H469.707V104.758ZM474.982 114L472.811 109.849L474.48 109.842L476.683 113.917V114H474.982ZM485.992 109.277V112.807C485.861 112.98 485.656 113.171 485.376 113.378C485.101 113.581 484.735 113.757 484.278 113.905C483.821 114.053 483.252 114.127 482.571 114.127C481.991 114.127 481.46 114.03 480.978 113.835C480.495 113.636 480.078 113.346 479.727 112.965C479.38 112.584 479.111 112.121 478.921 111.575C478.73 111.025 478.635 110.399 478.635 109.696V109.055C478.635 108.357 478.722 107.735 478.896 107.189C479.073 106.639 479.327 106.173 479.657 105.792C479.987 105.412 480.385 105.124 480.851 104.929C481.32 104.73 481.851 104.631 482.444 104.631C483.201 104.631 483.828 104.758 484.323 105.012C484.822 105.261 485.207 105.608 485.478 106.053C485.749 106.497 485.92 107.005 485.992 107.576H484.431C484.38 107.255 484.28 106.967 484.132 106.713C483.988 106.459 483.781 106.26 483.51 106.116C483.244 105.968 482.897 105.894 482.469 105.894C482.101 105.894 481.777 105.964 481.498 106.104C481.219 106.243 480.986 106.448 480.8 106.719C480.618 106.99 480.48 107.32 480.387 107.709C480.294 108.099 480.248 108.543 480.248 109.042V109.696C480.248 110.204 480.3 110.655 480.406 111.048C480.516 111.442 480.673 111.774 480.876 112.045C481.083 112.316 481.335 112.521 481.631 112.661C481.928 112.796 482.262 112.864 482.634 112.864C482.998 112.864 483.297 112.834 483.529 112.775C483.762 112.711 483.946 112.637 484.082 112.553C484.221 112.464 484.329 112.379 484.405 112.299V110.464H482.482V109.277H485.992ZM494.806 112.737V114H489.899V112.737H494.806ZM490.35 104.758V114H488.757V104.758H490.35ZM494.165 108.617V109.861H489.899V108.617H494.165ZM494.774 104.758V106.027H489.899V104.758H494.774Z" fill="#737373"/>
</g>
</svg>
