<svg width="640" height="352" viewBox="0 0 640 352" fill="none" xmlns="http://www.w3.org/2000/svg">
<rect x="0.5" y="0.5" width="639" height="351" rx="15.5" fill="white"/>
<rect x="240" y="64" width="24" height="24" rx="12" fill="#286EF1"/>
<path d="M253.181 70.7261V80H251.651V72.5415L249.385 73.3096V72.0464L252.997 70.7261H253.181Z" fill="white"/>
<line x1="252.5" y1="88" x2="252.5" y2="112" stroke="#0059FF"/>
<rect x="187" y="150" width="24" height="24" rx="12" fill="#286EF1"/>
<path d="M202.199 164.781V166H196.004V164.953L199.013 161.671C199.343 161.299 199.603 160.977 199.793 160.706C199.984 160.435 200.117 160.192 200.193 159.976C200.274 159.756 200.314 159.542 200.314 159.335C200.314 159.043 200.259 158.787 200.149 158.567C200.043 158.343 199.887 158.167 199.679 158.04C199.472 157.909 199.22 157.843 198.924 157.843C198.581 157.843 198.293 157.917 198.061 158.065C197.828 158.214 197.652 158.419 197.534 158.681C197.415 158.939 197.356 159.236 197.356 159.57H195.826C195.826 159.032 195.949 158.542 196.194 158.097C196.44 157.649 196.795 157.293 197.261 157.031C197.726 156.764 198.287 156.631 198.943 156.631C199.561 156.631 200.085 156.735 200.517 156.942C200.949 157.149 201.277 157.443 201.501 157.824C201.729 158.205 201.844 158.656 201.844 159.176C201.844 159.464 201.797 159.75 201.704 160.033C201.611 160.317 201.478 160.6 201.304 160.884C201.135 161.163 200.934 161.444 200.701 161.728C200.468 162.007 200.212 162.291 199.933 162.579L197.934 164.781H202.199Z" fill="white"/>
<line x1="211" y1="161.5" x2="235" y2="161.5" stroke="#0059FF"/>
<rect x="187" y="192" width="24" height="24" rx="12" fill="#286EF1"/>
<path d="M197.8 202.687H198.714C199.07 202.687 199.364 202.626 199.597 202.503C199.834 202.38 200.009 202.211 200.124 201.995C200.238 201.779 200.295 201.532 200.295 201.252C200.295 200.96 200.242 200.711 200.136 200.503C200.035 200.292 199.878 200.129 199.667 200.015C199.459 199.9 199.195 199.843 198.873 199.843C198.602 199.843 198.357 199.898 198.137 200.008C197.921 200.114 197.75 200.266 197.623 200.465C197.496 200.66 197.432 200.893 197.432 201.164H195.896C195.896 200.673 196.025 200.237 196.283 199.856C196.541 199.475 196.893 199.177 197.337 198.961C197.785 198.741 198.289 198.631 198.848 198.631C199.444 198.631 199.965 198.73 200.409 198.929C200.858 199.124 201.207 199.416 201.457 199.805C201.706 200.194 201.831 200.677 201.831 201.252C201.831 201.515 201.77 201.781 201.647 202.052C201.524 202.323 201.342 202.571 201.101 202.795C200.86 203.015 200.559 203.195 200.2 203.334C199.84 203.47 199.423 203.538 198.949 203.538H197.8V202.687ZM197.8 203.88V203.042H198.949C199.491 203.042 199.952 203.106 200.333 203.233C200.718 203.36 201.031 203.535 201.272 203.76C201.514 203.98 201.689 204.232 201.799 204.515C201.914 204.799 201.971 205.099 201.971 205.417C201.971 205.848 201.892 206.233 201.736 206.572C201.583 206.906 201.366 207.19 201.082 207.422C200.799 207.655 200.466 207.831 200.085 207.949C199.709 208.068 199.298 208.127 198.854 208.127C198.456 208.127 198.075 208.072 197.711 207.962C197.347 207.852 197.022 207.689 196.734 207.473C196.446 207.253 196.218 206.98 196.048 206.654C195.883 206.324 195.801 205.943 195.801 205.512H197.331C197.331 205.787 197.394 206.03 197.521 206.242C197.652 206.449 197.834 206.612 198.067 206.73C198.304 206.849 198.575 206.908 198.879 206.908C199.201 206.908 199.478 206.851 199.711 206.737C199.944 206.623 200.121 206.453 200.244 206.229C200.371 206.005 200.435 205.734 200.435 205.417C200.435 205.057 200.365 204.765 200.225 204.541C200.085 204.316 199.887 204.151 199.628 204.045C199.37 203.935 199.066 203.88 198.714 203.88H197.8Z" fill="white"/>
<line x1="211" y1="203.5" x2="235" y2="203.5" stroke="#0059FF"/>
<path d="M241.764 127.542V129H236.41V127.542H241.764ZM236.922 118.336V129H235.084V118.336H236.922ZM247.477 127.411V123.631C247.477 123.348 247.425 123.104 247.323 122.899C247.22 122.694 247.064 122.535 246.854 122.423C246.649 122.311 246.39 122.254 246.078 122.254C245.79 122.254 245.541 122.303 245.331 122.401C245.121 122.499 244.957 122.63 244.84 122.796C244.723 122.962 244.664 123.15 244.664 123.36H242.906C242.906 123.048 242.982 122.745 243.133 122.452C243.285 122.159 243.504 121.898 243.792 121.668C244.081 121.439 244.425 121.258 244.825 121.126C245.226 120.995 245.675 120.929 246.173 120.929C246.769 120.929 247.296 121.029 247.755 121.229C248.219 121.429 248.583 121.732 248.846 122.137C249.115 122.538 249.249 123.041 249.249 123.646V127.169C249.249 127.53 249.273 127.855 249.322 128.143C249.376 128.426 249.452 128.673 249.549 128.883V129H247.74C247.657 128.81 247.591 128.568 247.542 128.275C247.499 127.977 247.477 127.689 247.477 127.411ZM247.733 124.181L247.748 125.272H246.48C246.153 125.272 245.865 125.304 245.616 125.367C245.367 125.426 245.16 125.514 244.994 125.631C244.828 125.748 244.703 125.89 244.62 126.056C244.537 126.222 244.496 126.41 244.496 126.62C244.496 126.83 244.544 127.022 244.642 127.198C244.74 127.369 244.881 127.503 245.067 127.601C245.257 127.699 245.487 127.748 245.755 127.748C246.117 127.748 246.432 127.674 246.7 127.528C246.974 127.376 247.188 127.193 247.345 126.979C247.501 126.759 247.584 126.551 247.594 126.356L248.165 127.14C248.106 127.34 248.006 127.555 247.865 127.784C247.723 128.014 247.538 128.233 247.308 128.443C247.083 128.648 246.812 128.817 246.495 128.949C246.183 129.081 245.821 129.146 245.411 129.146C244.894 129.146 244.432 129.044 244.027 128.839C243.622 128.629 243.304 128.348 243.075 127.997C242.845 127.64 242.73 127.237 242.73 126.788C242.73 126.368 242.809 125.997 242.965 125.675C243.126 125.348 243.36 125.074 243.668 124.854C243.98 124.635 244.361 124.469 244.811 124.356C245.26 124.239 245.772 124.181 246.349 124.181H247.733ZM251.102 117.75H252.867V127.308L252.699 129H251.102V117.75ZM258.038 124.964V125.118C258.038 125.704 257.972 126.244 257.84 126.737C257.713 127.225 257.518 127.65 257.254 128.011C256.996 128.373 256.673 128.653 256.288 128.854C255.907 129.049 255.465 129.146 254.962 129.146C254.469 129.146 254.039 129.054 253.673 128.868C253.307 128.683 252.999 128.419 252.75 128.077C252.506 127.735 252.308 127.328 252.157 126.854C252.005 126.38 251.898 125.858 251.834 125.287V124.796C251.898 124.22 252.005 123.697 252.157 123.229C252.308 122.755 252.506 122.347 252.75 122.005C252.999 121.659 253.304 121.393 253.666 121.207C254.032 121.021 254.459 120.929 254.947 120.929C255.455 120.929 255.902 121.026 256.288 121.222C256.678 121.417 257.003 121.695 257.262 122.057C257.521 122.413 257.713 122.838 257.84 123.331C257.972 123.824 258.038 124.369 258.038 124.964ZM256.273 125.118V124.964C256.273 124.608 256.244 124.273 256.185 123.961C256.126 123.644 256.029 123.365 255.892 123.126C255.76 122.887 255.58 122.699 255.35 122.562C255.125 122.42 254.845 122.35 254.508 122.35C254.195 122.35 253.927 122.403 253.702 122.511C253.478 122.618 253.29 122.765 253.138 122.95C252.987 123.136 252.867 123.351 252.779 123.595C252.696 123.839 252.64 124.103 252.611 124.386V125.711C252.655 126.078 252.748 126.415 252.889 126.722C253.036 127.025 253.241 127.269 253.504 127.455C253.768 127.635 254.107 127.726 254.522 127.726C254.85 127.726 255.125 127.66 255.35 127.528C255.575 127.396 255.753 127.213 255.885 126.979C256.021 126.739 256.119 126.461 256.178 126.144C256.241 125.826 256.273 125.484 256.273 125.118ZM263.026 129.146C262.44 129.146 261.91 129.051 261.437 128.861C260.968 128.666 260.567 128.395 260.235 128.048C259.908 127.701 259.657 127.293 259.481 126.825C259.305 126.356 259.217 125.851 259.217 125.309V125.016C259.217 124.396 259.308 123.834 259.488 123.331C259.669 122.828 259.92 122.398 260.243 122.042C260.565 121.681 260.946 121.405 261.385 121.214C261.825 121.024 262.301 120.929 262.813 120.929C263.38 120.929 263.875 121.024 264.3 121.214C264.725 121.405 265.077 121.673 265.355 122.02C265.638 122.362 265.848 122.77 265.985 123.243C266.126 123.717 266.197 124.239 266.197 124.811V125.565H260.074V124.298H264.454V124.159C264.444 123.841 264.381 123.543 264.264 123.265C264.151 122.987 263.978 122.762 263.744 122.591C263.509 122.42 263.197 122.335 262.806 122.335C262.513 122.335 262.252 122.398 262.022 122.525C261.798 122.647 261.61 122.826 261.458 123.06C261.307 123.294 261.19 123.578 261.107 123.91C261.029 124.237 260.99 124.605 260.99 125.016V125.309C260.99 125.655 261.036 125.978 261.129 126.275C261.227 126.568 261.368 126.825 261.554 127.044C261.739 127.264 261.964 127.438 262.228 127.564C262.491 127.687 262.792 127.748 263.128 127.748C263.553 127.748 263.932 127.662 264.264 127.491C264.596 127.32 264.884 127.079 265.128 126.766L266.058 127.667C265.887 127.916 265.665 128.155 265.392 128.385C265.118 128.609 264.784 128.792 264.388 128.934C263.998 129.076 263.543 129.146 263.026 129.146ZM269.464 117.75V129H267.691V117.75H269.464Z" fill="#505050"/>
<rect x="234" y="140" width="124" height="40" rx="4" fill="#286EF1"/>
<path d="M259.25 165.472H248.75C248.336 165.472 248 165.808 248 166.223C248 166.663 248.336 167 248.75 167H259.25C259.664 167 260 166.664 260 166.249C260 165.834 259.666 165.472 259.25 165.472ZM250.546 158.509L253.25 155.634V163.247C253.25 163.661 253.586 163.998 254 163.998C254.414 163.998 254.75 163.661 254.75 163.247V155.634L257.454 158.509C257.603 158.666 257.8 158.744 258 158.744C258.185 158.744 258.369 158.676 258.514 158.54C258.816 158.256 258.83 157.781 258.546 157.479L254.546 153.226C254.263 152.923 253.737 152.923 253.454 153.226L249.454 157.479C249.17 157.781 249.185 158.256 249.486 158.541C249.787 158.825 250.262 158.784 250.546 158.509Z" fill="white"/>
<path d="M277.068 154.336H278.899V161.462C278.899 162.273 278.723 162.952 278.372 163.499C278.02 164.045 277.542 164.458 276.936 164.736C276.335 165.01 275.664 165.146 274.922 165.146C274.155 165.146 273.472 165.01 272.871 164.736C272.271 164.458 271.797 164.045 271.45 163.499C271.108 162.952 270.938 162.273 270.938 161.462V154.336H272.769V161.462C272.769 161.975 272.856 162.397 273.032 162.729C273.208 163.057 273.457 163.298 273.779 163.455C274.102 163.611 274.482 163.689 274.922 163.689C275.361 163.689 275.74 163.611 276.057 163.455C276.379 163.298 276.628 163.057 276.804 162.729C276.98 162.397 277.068 161.975 277.068 161.462V154.336ZM282.495 158.599V168.047H280.73V157.075H282.356L282.495 158.599ZM287.659 160.964V161.118C287.659 161.694 287.59 162.229 287.454 162.722C287.322 163.21 287.124 163.638 286.86 164.004C286.602 164.365 286.282 164.646 285.901 164.846C285.52 165.046 285.081 165.146 284.583 165.146C284.089 165.146 283.657 165.056 283.286 164.875C282.92 164.69 282.61 164.429 282.356 164.092C282.102 163.755 281.897 163.359 281.741 162.905C281.589 162.446 281.482 161.943 281.418 161.396V160.803C281.482 160.222 281.589 159.695 281.741 159.221C281.897 158.748 282.102 158.34 282.356 157.998C282.61 157.656 282.92 157.393 283.286 157.207C283.652 157.021 284.08 156.929 284.568 156.929C285.066 156.929 285.508 157.026 285.894 157.222C286.279 157.412 286.604 157.686 286.868 158.042C287.131 158.394 287.329 158.818 287.461 159.316C287.593 159.81 287.659 160.359 287.659 160.964ZM285.894 161.118V160.964C285.894 160.598 285.859 160.259 285.791 159.946C285.723 159.629 285.615 159.351 285.469 159.111C285.322 158.872 285.134 158.687 284.905 158.555C284.68 158.418 284.409 158.35 284.092 158.35C283.779 158.35 283.511 158.403 283.286 158.511C283.062 158.613 282.874 158.757 282.722 158.943C282.571 159.128 282.454 159.346 282.371 159.595C282.288 159.839 282.229 160.105 282.195 160.393V161.814C282.253 162.166 282.354 162.488 282.495 162.781C282.637 163.074 282.837 163.308 283.096 163.484C283.359 163.655 283.696 163.74 284.106 163.74C284.424 163.74 284.695 163.672 284.919 163.535C285.144 163.398 285.327 163.21 285.469 162.971C285.615 162.727 285.723 162.446 285.791 162.129C285.859 161.812 285.894 161.475 285.894 161.118ZM291.05 153.75V165H289.277V153.75H291.05ZM292.646 161.125V160.957C292.646 160.386 292.729 159.856 292.896 159.368C293.062 158.875 293.301 158.447 293.613 158.086C293.931 157.72 294.316 157.437 294.771 157.236C295.229 157.031 295.747 156.929 296.323 156.929C296.904 156.929 297.422 157.031 297.876 157.236C298.335 157.437 298.723 157.72 299.041 158.086C299.358 158.447 299.6 158.875 299.766 159.368C299.932 159.856 300.015 160.386 300.015 160.957V161.125C300.015 161.697 299.932 162.227 299.766 162.715C299.6 163.203 299.358 163.63 299.041 163.997C298.723 164.358 298.337 164.641 297.883 164.846C297.429 165.046 296.914 165.146 296.338 165.146C295.757 165.146 295.237 165.046 294.778 164.846C294.324 164.641 293.938 164.358 293.621 163.997C293.303 163.63 293.062 163.203 292.896 162.715C292.729 162.227 292.646 161.697 292.646 161.125ZM294.412 160.957V161.125C294.412 161.482 294.448 161.819 294.521 162.136C294.595 162.454 294.709 162.732 294.866 162.971C295.022 163.21 295.222 163.398 295.466 163.535C295.71 163.672 296.001 163.74 296.338 163.74C296.665 163.74 296.948 163.672 297.188 163.535C297.432 163.398 297.632 163.21 297.788 162.971C297.944 162.732 298.059 162.454 298.132 162.136C298.21 161.819 298.25 161.482 298.25 161.125V160.957C298.25 160.605 298.21 160.273 298.132 159.961C298.059 159.644 297.942 159.363 297.781 159.119C297.625 158.875 297.424 158.684 297.18 158.547C296.941 158.406 296.655 158.335 296.323 158.335C295.991 158.335 295.703 158.406 295.459 158.547C295.22 158.684 295.022 158.875 294.866 159.119C294.709 159.363 294.595 159.644 294.521 159.961C294.448 160.273 294.412 160.605 294.412 160.957ZM305.962 163.411V159.631C305.962 159.348 305.911 159.104 305.808 158.899C305.706 158.694 305.549 158.535 305.339 158.423C305.134 158.311 304.875 158.254 304.563 158.254C304.275 158.254 304.026 158.303 303.816 158.401C303.606 158.499 303.442 158.63 303.325 158.796C303.208 158.962 303.149 159.15 303.149 159.36H301.392C301.392 159.048 301.467 158.745 301.619 158.452C301.77 158.159 301.99 157.898 302.278 157.668C302.566 157.439 302.91 157.258 303.311 157.126C303.711 156.995 304.16 156.929 304.658 156.929C305.254 156.929 305.781 157.029 306.24 157.229C306.704 157.429 307.068 157.732 307.332 158.137C307.6 158.538 307.734 159.041 307.734 159.646V163.169C307.734 163.53 307.759 163.855 307.808 164.143C307.861 164.426 307.937 164.673 308.035 164.883V165H306.226C306.143 164.81 306.077 164.568 306.028 164.275C305.984 163.977 305.962 163.689 305.962 163.411ZM306.218 160.181L306.233 161.272H304.966C304.639 161.272 304.351 161.304 304.102 161.367C303.853 161.426 303.645 161.514 303.479 161.631C303.313 161.748 303.188 161.89 303.105 162.056C303.022 162.222 302.981 162.41 302.981 162.62C302.981 162.83 303.03 163.022 303.127 163.198C303.225 163.369 303.367 163.503 303.552 163.601C303.743 163.699 303.972 163.748 304.241 163.748C304.602 163.748 304.917 163.674 305.186 163.528C305.459 163.376 305.674 163.193 305.83 162.979C305.986 162.759 306.069 162.551 306.079 162.356L306.65 163.14C306.592 163.34 306.492 163.555 306.35 163.784C306.208 164.014 306.023 164.233 305.793 164.443C305.569 164.648 305.298 164.817 304.98 164.949C304.668 165.081 304.307 165.146 303.896 165.146C303.379 165.146 302.917 165.044 302.512 164.839C302.107 164.629 301.79 164.348 301.56 163.997C301.331 163.64 301.216 163.237 301.216 162.788C301.216 162.368 301.294 161.997 301.45 161.675C301.611 161.348 301.846 161.074 302.153 160.854C302.466 160.635 302.847 160.469 303.296 160.356C303.745 160.239 304.258 160.181 304.834 160.181H306.218ZM314.414 163.359V153.75H316.187V165H314.583L314.414 163.359ZM309.258 161.125V160.972C309.258 160.371 309.329 159.824 309.47 159.331C309.612 158.833 309.817 158.406 310.085 158.049C310.354 157.688 310.681 157.412 311.067 157.222C311.453 157.026 311.887 156.929 312.371 156.929C312.849 156.929 313.269 157.021 313.63 157.207C313.992 157.393 314.299 157.659 314.553 158.005C314.807 158.347 315.01 158.757 315.161 159.236C315.312 159.709 315.42 160.237 315.483 160.818V161.309C315.42 161.875 315.312 162.393 315.161 162.861C315.01 163.33 314.807 163.735 314.553 164.077C314.299 164.419 313.989 164.683 313.623 164.868C313.262 165.054 312.839 165.146 312.356 165.146C311.877 165.146 311.445 165.046 311.06 164.846C310.679 164.646 310.354 164.365 310.085 164.004C309.817 163.643 309.612 163.218 309.47 162.729C309.329 162.236 309.258 161.702 309.258 161.125ZM311.023 160.972V161.125C311.023 161.487 311.055 161.824 311.118 162.136C311.187 162.449 311.292 162.725 311.433 162.964C311.575 163.198 311.758 163.384 311.982 163.521C312.212 163.652 312.485 163.718 312.803 163.718C313.203 163.718 313.533 163.63 313.792 163.455C314.05 163.279 314.253 163.042 314.399 162.744C314.551 162.441 314.653 162.104 314.707 161.733V160.408C314.678 160.12 314.617 159.851 314.524 159.602C314.436 159.353 314.316 159.136 314.165 158.95C314.014 158.76 313.826 158.613 313.601 158.511C313.381 158.403 313.12 158.35 312.817 158.35C312.495 158.35 312.222 158.418 311.997 158.555C311.772 158.691 311.587 158.879 311.44 159.119C311.299 159.358 311.194 159.636 311.125 159.954C311.057 160.271 311.023 160.61 311.023 160.972ZM324.155 165H322.39V156.313C322.39 155.723 322.5 155.227 322.72 154.827C322.944 154.421 323.264 154.116 323.679 153.911C324.094 153.701 324.585 153.596 325.151 153.596C325.327 153.596 325.5 153.608 325.671 153.633C325.842 153.652 326.008 153.684 326.169 153.728L326.125 155.09C326.028 155.066 325.92 155.049 325.803 155.039C325.691 155.029 325.569 155.024 325.437 155.024C325.168 155.024 324.937 155.076 324.741 155.178C324.551 155.276 324.404 155.42 324.302 155.61C324.204 155.801 324.155 156.035 324.155 156.313V165ZM325.789 157.075V158.364H321.174V157.075H325.789ZM328.96 157.075V165H327.188V157.075H328.96ZM327.07 154.995C327.07 154.727 327.158 154.504 327.334 154.329C327.515 154.148 327.764 154.058 328.081 154.058C328.394 154.058 328.64 154.148 328.821 154.329C329.001 154.504 329.092 154.727 329.092 154.995C329.092 155.259 329.001 155.479 328.821 155.654C328.64 155.83 328.394 155.918 328.081 155.918C327.764 155.918 327.515 155.83 327.334 155.654C327.158 155.479 327.07 155.259 327.07 154.995ZM332.783 153.75V165H331.011V153.75H332.783ZM338.21 165.146C337.625 165.146 337.095 165.051 336.621 164.861C336.152 164.666 335.752 164.395 335.42 164.048C335.093 163.701 334.841 163.293 334.666 162.825C334.49 162.356 334.402 161.851 334.402 161.309V161.016C334.402 160.396 334.492 159.834 334.673 159.331C334.854 158.828 335.105 158.398 335.427 158.042C335.75 157.681 336.13 157.405 336.57 157.214C337.009 157.024 337.485 156.929 337.998 156.929C338.564 156.929 339.06 157.024 339.485 157.214C339.91 157.405 340.261 157.673 340.54 158.02C340.823 158.362 341.033 158.77 341.169 159.243C341.311 159.717 341.382 160.239 341.382 160.811V161.565H335.259V160.298H339.639V160.159C339.629 159.841 339.565 159.543 339.448 159.265C339.336 158.987 339.163 158.762 338.928 158.591C338.694 158.42 338.381 158.335 337.991 158.335C337.698 158.335 337.437 158.398 337.207 158.525C336.982 158.647 336.794 158.826 336.643 159.06C336.492 159.294 336.375 159.578 336.292 159.91C336.213 160.237 336.174 160.605 336.174 161.016V161.309C336.174 161.655 336.221 161.978 336.313 162.275C336.411 162.568 336.553 162.825 336.738 163.044C336.924 163.264 337.148 163.438 337.412 163.564C337.676 163.687 337.976 163.748 338.313 163.748C338.738 163.748 339.116 163.662 339.448 163.491C339.78 163.32 340.068 163.079 340.312 162.766L341.243 163.667C341.072 163.916 340.85 164.155 340.576 164.385C340.303 164.609 339.968 164.792 339.573 164.934C339.182 165.076 338.728 165.146 338.21 165.146Z" fill="white"/>
<rect x="234" y="184" width="240" height="40" rx="4" fill="#F8F8F8"/>
<path d="M258.456 199.543L256.336 197.52C255.973 197.173 255.534 197 255.018 197H249.833C249.318 197.018 248.888 197.191 248.544 197.52C248.201 197.848 248.019 198.258 248 198.75V209.25C248.019 209.742 248.201 210.152 248.544 210.48C248.888 210.809 249.318 210.982 249.833 211H257.167C257.682 210.982 258.112 210.809 258.456 210.48C258.799 210.152 258.981 209.742 259 209.25V200.801C259 200.309 258.819 199.889 258.456 199.543ZM257.625 209.25C257.606 209.523 257.453 209.669 257.167 209.688H249.833C249.547 209.669 249.394 209.523 249.375 209.25V198.75C249.394 198.495 249.547 198.349 249.833 198.312H254.417V200.5C254.417 200.755 254.503 200.965 254.674 201.129C254.846 201.293 255.066 201.375 255.333 201.375H257.596V209.25H257.625ZM252.784 205.887L251.896 205.066C251.571 204.811 251.247 204.811 250.922 205.066C250.655 205.376 250.655 205.686 250.922 205.996L252.297 207.309C252.45 207.436 252.622 207.5 252.812 207.5C252.812 207.5 252.822 207.5 252.841 207.5C253.032 207.482 253.194 207.409 253.328 207.281L256.078 204.219C256.326 203.891 256.307 203.581 256.021 203.289C255.677 203.052 255.352 203.07 255.047 203.344L252.784 205.887Z" fill="#737373"/>
<path d="M274.321 209.146C273.77 209.146 273.269 209.054 272.82 208.868C272.375 208.678 271.992 208.412 271.67 208.07C271.353 207.728 271.108 207.323 270.938 206.854C270.767 206.385 270.681 205.873 270.681 205.316V205.008C270.681 204.364 270.776 203.79 270.967 203.287C271.157 202.779 271.416 202.35 271.743 201.998C272.07 201.646 272.441 201.38 272.856 201.2C273.271 201.019 273.701 200.929 274.146 200.929C274.712 200.929 275.2 201.026 275.61 201.222C276.025 201.417 276.365 201.69 276.628 202.042C276.892 202.389 277.087 202.799 277.214 203.272C277.341 203.741 277.405 204.254 277.405 204.811V205.418H271.487V204.312H276.05V204.21C276.03 203.858 275.957 203.517 275.83 203.185C275.708 202.853 275.513 202.579 275.244 202.364C274.976 202.149 274.609 202.042 274.146 202.042C273.838 202.042 273.555 202.108 273.296 202.24C273.037 202.367 272.815 202.557 272.629 202.811C272.444 203.065 272.3 203.375 272.197 203.741C272.095 204.107 272.043 204.53 272.043 205.008V205.316C272.043 205.692 272.095 206.046 272.197 206.378C272.305 206.705 272.458 206.993 272.659 207.242C272.864 207.491 273.11 207.687 273.398 207.828C273.691 207.97 274.023 208.041 274.395 208.041C274.873 208.041 275.278 207.943 275.61 207.748C275.942 207.552 276.233 207.291 276.482 206.964L277.302 207.616C277.131 207.875 276.914 208.121 276.65 208.355C276.387 208.59 276.062 208.78 275.676 208.927C275.295 209.073 274.844 209.146 274.321 209.146ZM279.902 201.075L281.638 203.961L283.396 201.075H284.985L282.393 204.986L285.066 209H283.499L281.667 206.026L279.836 209H278.262L280.928 204.986L278.342 201.075H279.902ZM291.101 207.645V203.565C291.101 203.253 291.038 202.982 290.911 202.752C290.789 202.518 290.603 202.337 290.354 202.21C290.105 202.083 289.797 202.02 289.431 202.02C289.089 202.02 288.789 202.079 288.53 202.196C288.276 202.313 288.076 202.467 287.93 202.657C287.788 202.848 287.717 203.053 287.717 203.272H286.362C286.362 202.989 286.436 202.708 286.582 202.43C286.729 202.152 286.938 201.9 287.212 201.676C287.49 201.446 287.822 201.266 288.208 201.134C288.599 200.997 289.033 200.929 289.512 200.929C290.088 200.929 290.596 201.026 291.035 201.222C291.479 201.417 291.826 201.712 292.075 202.108C292.329 202.499 292.456 202.989 292.456 203.58V207.271C292.456 207.535 292.478 207.816 292.522 208.114C292.571 208.412 292.642 208.668 292.734 208.883V209H291.321C291.252 208.844 291.199 208.636 291.16 208.377C291.121 208.114 291.101 207.87 291.101 207.645ZM291.335 204.195L291.35 205.147H289.98C289.595 205.147 289.25 205.179 288.948 205.243C288.645 205.301 288.391 205.392 288.186 205.514C287.981 205.636 287.825 205.79 287.717 205.975C287.61 206.156 287.556 206.368 287.556 206.612C287.556 206.861 287.612 207.088 287.725 207.293C287.837 207.499 288.005 207.662 288.23 207.784C288.459 207.901 288.74 207.96 289.072 207.96C289.487 207.96 289.854 207.872 290.171 207.696C290.488 207.521 290.74 207.306 290.925 207.052C291.116 206.798 291.218 206.551 291.233 206.312L291.812 206.964C291.777 207.169 291.685 207.396 291.533 207.645C291.382 207.894 291.179 208.133 290.925 208.363C290.676 208.587 290.378 208.775 290.032 208.927C289.69 209.073 289.304 209.146 288.875 209.146C288.337 209.146 287.866 209.042 287.461 208.832C287.061 208.622 286.748 208.341 286.523 207.989C286.304 207.633 286.194 207.235 286.194 206.795C286.194 206.371 286.277 205.997 286.443 205.675C286.609 205.348 286.848 205.077 287.161 204.862C287.473 204.642 287.849 204.476 288.289 204.364C288.728 204.251 289.219 204.195 289.761 204.195H291.335ZM295.935 202.65V209H294.573V201.075H295.862L295.935 202.65ZM295.657 204.737L295.027 204.715C295.032 204.173 295.103 203.673 295.239 203.214C295.376 202.75 295.579 202.347 295.847 202.005C296.116 201.664 296.45 201.4 296.851 201.214C297.251 201.024 297.715 200.929 298.242 200.929C298.613 200.929 298.955 200.982 299.268 201.09C299.58 201.192 299.851 201.356 300.081 201.581C300.31 201.805 300.488 202.093 300.615 202.445C300.742 202.796 300.806 203.221 300.806 203.719V209H299.451V203.785C299.451 203.37 299.38 203.038 299.238 202.789C299.102 202.54 298.906 202.359 298.652 202.247C298.398 202.13 298.101 202.071 297.759 202.071C297.358 202.071 297.024 202.142 296.755 202.284C296.487 202.425 296.272 202.621 296.111 202.87C295.95 203.119 295.833 203.404 295.759 203.727C295.691 204.044 295.657 204.381 295.657 204.737ZM300.791 203.99L299.883 204.269C299.888 203.834 299.958 203.417 300.095 203.016C300.237 202.616 300.439 202.259 300.703 201.947C300.972 201.634 301.301 201.388 301.692 201.207C302.083 201.021 302.529 200.929 303.032 200.929C303.457 200.929 303.833 200.985 304.16 201.097C304.492 201.209 304.771 201.383 304.995 201.617C305.225 201.847 305.398 202.142 305.515 202.503C305.632 202.865 305.691 203.294 305.691 203.792V209H304.329V203.778C304.329 203.333 304.258 202.989 304.116 202.745C303.979 202.496 303.784 202.323 303.53 202.225C303.281 202.123 302.983 202.071 302.637 202.071C302.339 202.071 302.075 202.123 301.846 202.225C301.616 202.328 301.423 202.469 301.267 202.65C301.111 202.826 300.991 203.028 300.908 203.258C300.83 203.487 300.791 203.731 300.791 203.99ZM309.097 202.599V212.047H307.734V201.075H308.979L309.097 202.599ZM314.436 204.972V205.125C314.436 205.702 314.368 206.236 314.231 206.729C314.094 207.218 313.894 207.643 313.63 208.004C313.372 208.365 313.052 208.646 312.671 208.846C312.29 209.046 311.853 209.146 311.36 209.146C310.857 209.146 310.413 209.063 310.027 208.897C309.641 208.731 309.314 208.49 309.045 208.172C308.777 207.855 308.562 207.474 308.401 207.03C308.245 206.585 308.137 206.085 308.079 205.528V204.708C308.137 204.122 308.247 203.597 308.408 203.133C308.569 202.669 308.782 202.274 309.045 201.947C309.314 201.615 309.639 201.363 310.02 201.192C310.4 201.017 310.84 200.929 311.338 200.929C311.836 200.929 312.278 201.026 312.664 201.222C313.049 201.412 313.374 201.686 313.638 202.042C313.901 202.398 314.099 202.826 314.231 203.324C314.368 203.817 314.436 204.366 314.436 204.972ZM313.074 205.125V204.972C313.074 204.576 313.032 204.205 312.949 203.858C312.866 203.507 312.737 203.199 312.561 202.936C312.39 202.667 312.17 202.457 311.902 202.306C311.633 202.149 311.313 202.071 310.942 202.071C310.601 202.071 310.303 202.13 310.049 202.247C309.8 202.364 309.587 202.523 309.412 202.723C309.236 202.918 309.092 203.143 308.979 203.397C308.872 203.646 308.792 203.905 308.738 204.173V206.07C308.835 206.412 308.972 206.734 309.148 207.037C309.324 207.335 309.558 207.577 309.851 207.762C310.144 207.943 310.513 208.033 310.957 208.033C311.323 208.033 311.638 207.958 311.902 207.806C312.17 207.65 312.39 207.438 312.561 207.169C312.737 206.9 312.866 206.593 312.949 206.246C313.032 205.895 313.074 205.521 313.074 205.125ZM317.637 197.75V209H316.274V197.75H317.637ZM323.101 209.146C322.549 209.146 322.048 209.054 321.599 208.868C321.155 208.678 320.771 208.412 320.449 208.07C320.132 207.728 319.888 207.323 319.717 206.854C319.546 206.385 319.46 205.873 319.46 205.316V205.008C319.46 204.364 319.556 203.79 319.746 203.287C319.937 202.779 320.195 202.35 320.522 201.998C320.85 201.646 321.221 201.38 321.636 201.2C322.051 201.019 322.48 200.929 322.925 200.929C323.491 200.929 323.979 201.026 324.39 201.222C324.805 201.417 325.144 201.69 325.408 202.042C325.671 202.389 325.867 202.799 325.994 203.272C326.121 203.741 326.184 204.254 326.184 204.811V205.418H320.266V204.312H324.829V204.21C324.81 203.858 324.736 203.517 324.609 203.185C324.487 202.853 324.292 202.579 324.023 202.364C323.755 202.149 323.389 202.042 322.925 202.042C322.617 202.042 322.334 202.108 322.075 202.24C321.816 202.367 321.594 202.557 321.409 202.811C321.223 203.065 321.079 203.375 320.977 203.741C320.874 204.107 320.823 204.53 320.823 205.008V205.316C320.823 205.692 320.874 206.046 320.977 206.378C321.084 206.705 321.238 206.993 321.438 207.242C321.643 207.491 321.89 207.687 322.178 207.828C322.471 207.97 322.803 208.041 323.174 208.041C323.652 208.041 324.058 207.943 324.39 207.748C324.722 207.552 325.012 207.291 325.261 206.964L326.082 207.616C325.911 207.875 325.693 208.121 325.43 208.355C325.166 208.59 324.841 208.78 324.456 208.927C324.075 209.073 323.623 209.146 323.101 209.146ZM330.586 203.91V205.023H327.012V203.91H330.586ZM333.933 209H332.578V200.24C332.578 199.669 332.681 199.188 332.886 198.797C333.096 198.402 333.396 198.104 333.787 197.904C334.177 197.699 334.641 197.596 335.178 197.596C335.334 197.596 335.491 197.606 335.647 197.625C335.808 197.645 335.964 197.674 336.116 197.713L336.042 198.819C335.94 198.795 335.823 198.778 335.691 198.768C335.564 198.758 335.437 198.753 335.31 198.753C335.022 198.753 334.773 198.812 334.563 198.929C334.358 199.042 334.202 199.208 334.094 199.427C333.987 199.647 333.933 199.918 333.933 200.24V209ZM335.618 201.075V202.115H331.326V201.075H335.618ZM338.599 201.075V209H337.236V201.075H338.599ZM337.134 198.973C337.134 198.753 337.2 198.568 337.332 198.417C337.468 198.265 337.668 198.189 337.932 198.189C338.191 198.189 338.389 198.265 338.525 198.417C338.667 198.568 338.738 198.753 338.738 198.973C338.738 199.183 338.667 199.364 338.525 199.515C338.389 199.662 338.191 199.735 337.932 199.735C337.668 199.735 337.468 199.662 337.332 199.515C337.2 199.364 337.134 199.183 337.134 198.973ZM342.246 197.75V209H340.884V197.75H342.246ZM347.71 209.146C347.158 209.146 346.658 209.054 346.208 208.868C345.764 208.678 345.381 208.412 345.059 208.07C344.741 207.728 344.497 207.323 344.326 206.854C344.155 206.385 344.07 205.873 344.07 205.316V205.008C344.07 204.364 344.165 203.79 344.355 203.287C344.546 202.779 344.805 202.35 345.132 201.998C345.459 201.646 345.83 201.38 346.245 201.2C346.66 201.019 347.09 200.929 347.534 200.929C348.101 200.929 348.589 201.026 348.999 201.222C349.414 201.417 349.753 201.69 350.017 202.042C350.281 202.389 350.476 202.799 350.603 203.272C350.73 203.741 350.793 204.254 350.793 204.811V205.418H344.875V204.312H349.438V204.21C349.419 203.858 349.346 203.517 349.219 203.185C349.097 202.853 348.901 202.579 348.633 202.364C348.364 202.149 347.998 202.042 347.534 202.042C347.227 202.042 346.943 202.108 346.685 202.24C346.426 202.367 346.204 202.557 346.018 202.811C345.833 203.065 345.688 203.375 345.586 203.741C345.483 204.107 345.432 204.53 345.432 205.008V205.316C345.432 205.692 345.483 206.046 345.586 206.378C345.693 206.705 345.847 206.993 346.047 207.242C346.252 207.491 346.499 207.687 346.787 207.828C347.08 207.97 347.412 208.041 347.783 208.041C348.262 208.041 348.667 207.943 348.999 207.748C349.331 207.552 349.622 207.291 349.871 206.964L350.691 207.616C350.52 207.875 350.303 208.121 350.039 208.355C349.775 208.59 349.451 208.78 349.065 208.927C348.684 209.073 348.232 209.146 347.71 209.146ZM352.397 208.282C352.397 208.053 352.468 207.86 352.61 207.704C352.756 207.542 352.966 207.462 353.24 207.462C353.513 207.462 353.721 207.542 353.862 207.704C354.009 207.86 354.082 208.053 354.082 208.282C354.082 208.507 354.009 208.697 353.862 208.854C353.721 209.01 353.513 209.088 353.24 209.088C352.966 209.088 352.756 209.01 352.61 208.854C352.468 208.697 352.397 208.507 352.397 208.282ZM357.686 202.599V212.047H356.323V201.075H357.568L357.686 202.599ZM363.025 204.972V205.125C363.025 205.702 362.957 206.236 362.82 206.729C362.683 207.218 362.483 207.643 362.219 208.004C361.96 208.365 361.641 208.646 361.26 208.846C360.879 209.046 360.442 209.146 359.949 209.146C359.446 209.146 359.001 209.063 358.616 208.897C358.23 208.731 357.903 208.49 357.634 208.172C357.366 207.855 357.151 207.474 356.99 207.03C356.833 206.585 356.726 206.085 356.667 205.528V204.708C356.726 204.122 356.836 203.597 356.997 203.133C357.158 202.669 357.371 202.274 357.634 201.947C357.903 201.615 358.228 201.363 358.608 201.192C358.989 201.017 359.429 200.929 359.927 200.929C360.425 200.929 360.867 201.026 361.252 201.222C361.638 201.412 361.963 201.686 362.227 202.042C362.49 202.398 362.688 202.826 362.82 203.324C362.957 203.817 363.025 204.366 363.025 204.972ZM361.663 205.125V204.972C361.663 204.576 361.621 204.205 361.538 203.858C361.455 203.507 361.326 203.199 361.15 202.936C360.979 202.667 360.759 202.457 360.491 202.306C360.222 202.149 359.902 202.071 359.531 202.071C359.189 202.071 358.892 202.13 358.638 202.247C358.389 202.364 358.176 202.523 358 202.723C357.825 202.918 357.681 203.143 357.568 203.397C357.461 203.646 357.38 203.905 357.327 204.173V206.07C357.424 206.412 357.561 206.734 357.737 207.037C357.913 207.335 358.147 207.577 358.44 207.762C358.733 207.943 359.102 208.033 359.546 208.033C359.912 208.033 360.227 207.958 360.491 207.806C360.759 207.65 360.979 207.438 361.15 207.169C361.326 206.9 361.455 206.593 361.538 206.246C361.621 205.895 361.663 205.521 361.663 205.125ZM369.749 207.462V197.75H371.111V209H369.866L369.749 207.462ZM364.417 205.125V204.972C364.417 204.366 364.49 203.817 364.636 203.324C364.788 202.826 365 202.398 365.273 202.042C365.552 201.686 365.881 201.412 366.262 201.222C366.648 201.026 367.078 200.929 367.551 200.929C368.049 200.929 368.484 201.017 368.855 201.192C369.231 201.363 369.548 201.615 369.807 201.947C370.071 202.274 370.278 202.669 370.43 203.133C370.581 203.597 370.686 204.122 370.745 204.708V205.382C370.691 205.963 370.586 206.485 370.43 206.949C370.278 207.413 370.071 207.809 369.807 208.136C369.548 208.463 369.231 208.714 368.855 208.89C368.479 209.061 368.04 209.146 367.537 209.146C367.073 209.146 366.648 209.046 366.262 208.846C365.881 208.646 365.552 208.365 365.273 208.004C365 207.643 364.788 207.218 364.636 206.729C364.49 206.236 364.417 205.702 364.417 205.125ZM365.779 204.972V205.125C365.779 205.521 365.818 205.892 365.896 206.239C365.979 206.585 366.106 206.891 366.277 207.154C366.448 207.418 366.665 207.625 366.929 207.777C367.192 207.923 367.507 207.997 367.874 207.997C368.323 207.997 368.691 207.901 368.979 207.711C369.272 207.521 369.507 207.269 369.683 206.957C369.858 206.644 369.995 206.305 370.093 205.938V204.173C370.034 203.905 369.949 203.646 369.836 203.397C369.729 203.143 369.587 202.918 369.412 202.723C369.241 202.523 369.028 202.364 368.774 202.247C368.525 202.13 368.23 202.071 367.888 202.071C367.517 202.071 367.197 202.149 366.929 202.306C366.665 202.457 366.448 202.667 366.277 202.936C366.106 203.199 365.979 203.507 365.896 203.858C365.818 204.205 365.779 204.576 365.779 204.972ZM375.242 209H373.887V200.24C373.887 199.669 373.989 199.188 374.194 198.797C374.404 198.402 374.705 198.104 375.095 197.904C375.486 197.699 375.95 197.596 376.487 197.596C376.643 197.596 376.799 197.606 376.956 197.625C377.117 197.645 377.273 197.674 377.424 197.713L377.351 198.819C377.249 198.795 377.131 198.778 377 198.768C376.873 198.758 376.746 198.753 376.619 198.753C376.331 198.753 376.082 198.812 375.872 198.929C375.667 199.042 375.51 199.208 375.403 199.427C375.295 199.647 375.242 199.918 375.242 200.24V209ZM376.926 201.075V202.115H372.634V201.075H376.926Z" fill="#1A1A1A"/>
<path d="M459.705 208.468C460.056 208.818 460.056 209.387 459.705 209.737C459.354 210.088 458.783 210.088 458.432 209.737L454.001 205.285L449.538 209.736C449.186 210.086 448.616 210.086 448.265 209.736C447.913 209.385 447.913 208.817 448.265 208.466L452.729 204.017L448.264 199.532C447.912 199.182 447.912 198.613 448.264 198.263C448.615 197.912 449.185 197.912 449.536 198.263L454.001 202.749L458.464 198.298C458.815 197.948 459.385 197.948 459.736 198.298C460.088 198.648 460.088 199.217 459.736 199.567L455.272 204.017L459.705 208.468Z" fill="#1A1A1A"/>
<path d="M241.109 236.731V237.728H236.107V236.731H241.109ZM236.298 232.758V242H235.073V232.758H236.298ZM242.176 232.758V242H240.957V232.758H242.176ZM247.025 242.127C246.547 242.127 246.113 242.047 245.724 241.886C245.339 241.721 245.007 241.49 244.728 241.194C244.452 240.898 244.241 240.546 244.093 240.14C243.945 239.734 243.871 239.29 243.871 238.807V238.541C243.871 237.982 243.953 237.485 244.118 237.049C244.283 236.609 244.507 236.236 244.791 235.932C245.075 235.627 245.396 235.396 245.756 235.24C246.116 235.083 246.488 235.005 246.873 235.005C247.364 235.005 247.787 235.09 248.143 235.259C248.502 235.428 248.796 235.665 249.025 235.97C249.253 236.27 249.423 236.626 249.533 237.036C249.643 237.442 249.698 237.887 249.698 238.369V238.896H244.569V237.938H248.523V237.849C248.507 237.544 248.443 237.248 248.333 236.96C248.227 236.672 248.058 236.435 247.825 236.249C247.592 236.063 247.275 235.97 246.873 235.97C246.606 235.97 246.361 236.027 246.137 236.141C245.912 236.251 245.72 236.416 245.559 236.636C245.398 236.856 245.273 237.125 245.185 237.442C245.096 237.76 245.051 238.126 245.051 238.541V238.807C245.051 239.133 245.096 239.44 245.185 239.728C245.278 240.011 245.411 240.261 245.584 240.477C245.762 240.692 245.976 240.862 246.226 240.984C246.479 241.107 246.767 241.168 247.089 241.168C247.504 241.168 247.855 241.084 248.143 240.915C248.43 240.745 248.682 240.519 248.898 240.235L249.609 240.8C249.461 241.025 249.272 241.238 249.044 241.441C248.815 241.645 248.534 241.81 248.2 241.937C247.87 242.063 247.478 242.127 247.025 242.127ZM252.345 232.25V242H251.164V232.25H252.345ZM255.404 236.452V244.641H254.224V235.132H255.303L255.404 236.452ZM260.032 238.509V238.642C260.032 239.141 259.972 239.605 259.854 240.032C259.736 240.455 259.562 240.824 259.333 241.137C259.109 241.45 258.832 241.693 258.502 241.867C258.172 242.04 257.793 242.127 257.366 242.127C256.93 242.127 256.545 242.055 256.21 241.911C255.876 241.767 255.593 241.558 255.36 241.283C255.127 241.008 254.941 240.678 254.801 240.292C254.666 239.907 254.573 239.474 254.522 238.991V238.28C254.573 237.772 254.668 237.318 254.808 236.916C254.947 236.514 255.131 236.171 255.36 235.887C255.593 235.599 255.874 235.382 256.204 235.233C256.534 235.081 256.915 235.005 257.347 235.005C257.778 235.005 258.161 235.09 258.496 235.259C258.83 235.424 259.111 235.661 259.34 235.97C259.568 236.279 259.74 236.649 259.854 237.081C259.972 237.508 260.032 237.984 260.032 238.509ZM258.851 238.642V238.509C258.851 238.166 258.815 237.844 258.743 237.544C258.671 237.239 258.559 236.973 258.407 236.744C258.259 236.511 258.068 236.329 257.835 236.198C257.603 236.063 257.326 235.995 257.004 235.995C256.708 235.995 256.45 236.046 256.229 236.147C256.014 236.249 255.83 236.387 255.677 236.56C255.525 236.729 255.4 236.924 255.303 237.144C255.21 237.36 255.14 237.584 255.093 237.817V239.461C255.178 239.757 255.296 240.036 255.449 240.299C255.601 240.557 255.804 240.766 256.058 240.927C256.312 241.084 256.632 241.162 257.017 241.162C257.334 241.162 257.607 241.097 257.835 240.965C258.068 240.83 258.259 240.646 258.407 240.413C258.559 240.18 258.671 239.914 258.743 239.613C258.815 239.309 258.851 238.985 258.851 238.642ZM267.63 235.132V236.033H263.917V235.132H267.63ZM265.173 233.462H266.348V240.299C266.348 240.532 266.384 240.707 266.456 240.826C266.528 240.944 266.621 241.022 266.735 241.061C266.849 241.099 266.972 241.118 267.103 241.118C267.2 241.118 267.302 241.109 267.408 241.092C267.518 241.071 267.6 241.054 267.655 241.042L267.662 242C267.569 242.03 267.446 242.057 267.293 242.083C267.145 242.112 266.965 242.127 266.754 242.127C266.466 242.127 266.202 242.07 265.96 241.956C265.719 241.841 265.527 241.651 265.383 241.384C265.243 241.113 265.173 240.75 265.173 240.292V233.462ZM271.857 242.127C271.379 242.127 270.945 242.047 270.556 241.886C270.171 241.721 269.839 241.49 269.56 241.194C269.285 240.898 269.073 240.546 268.925 240.14C268.777 239.734 268.703 239.29 268.703 238.807V238.541C268.703 237.982 268.785 237.485 268.95 237.049C269.115 236.609 269.34 236.236 269.623 235.932C269.907 235.627 270.228 235.396 270.588 235.24C270.948 235.083 271.32 235.005 271.705 235.005C272.196 235.005 272.619 235.09 272.975 235.259C273.334 235.428 273.628 235.665 273.857 235.97C274.085 236.27 274.255 236.626 274.365 237.036C274.475 237.442 274.53 237.887 274.53 238.369V238.896H269.401V237.938H273.355V237.849C273.339 237.544 273.275 237.248 273.165 236.96C273.059 236.672 272.89 236.435 272.657 236.249C272.424 236.063 272.107 235.97 271.705 235.97C271.438 235.97 271.193 236.027 270.969 236.141C270.744 236.251 270.552 236.416 270.391 236.636C270.23 236.856 270.105 237.125 270.017 237.442C269.928 237.76 269.883 238.126 269.883 238.541V238.807C269.883 239.133 269.928 239.44 270.017 239.728C270.11 240.011 270.243 240.261 270.417 240.477C270.594 240.692 270.808 240.862 271.058 240.984C271.312 241.107 271.599 241.168 271.921 241.168C272.336 241.168 272.687 241.084 272.975 240.915C273.262 240.745 273.514 240.519 273.73 240.235L274.441 240.8C274.293 241.025 274.104 241.238 273.876 241.441C273.647 241.645 273.366 241.81 273.032 241.937C272.702 242.063 272.31 242.127 271.857 242.127ZM276.694 235.132L278.199 237.633L279.722 235.132H281.1L278.853 238.521L281.169 242H279.811L278.224 239.423L276.637 242H275.272L277.583 238.521L275.342 235.132H276.694ZM285.226 235.132V236.033H281.512V235.132H285.226ZM282.769 233.462H283.943V240.299C283.943 240.532 283.979 240.707 284.051 240.826C284.123 240.944 284.216 241.022 284.331 241.061C284.445 241.099 284.568 241.118 284.699 241.118C284.796 241.118 284.898 241.109 285.003 241.092C285.113 241.071 285.196 241.054 285.251 241.042L285.257 242C285.164 242.03 285.042 242.057 284.889 242.083C284.741 242.112 284.561 242.127 284.35 242.127C284.062 242.127 283.797 242.07 283.556 241.956C283.315 241.841 283.122 241.651 282.979 241.384C282.839 241.113 282.769 240.75 282.769 240.292V233.462Z" fill="#505050"/>
<rect x="187" y="226" width="24" height="24" rx="12" fill="#286EF1"/>
<path d="M202.371 238.706V239.924H195.706L195.655 239.004L199.641 232.758H200.866L199.54 235.03L197.248 238.706H202.371ZM201.215 232.758V242H199.686V232.758H201.215Z" fill="white"/>
<line x1="211" y1="237.5" x2="235" y2="237.5" stroke="#0059FF"/>
<rect x="0.5" y="0.5" width="639" height="351" rx="15.5" stroke="#E6E6E6"/>
</svg>
