<svg width="486" height="406" viewBox="0 0 486 406" fill="none" xmlns="http://www.w3.org/2000/svg">
<g clip-path="url(#clip0_2851_47255)">
<rect width="486" height="406" rx="4" fill="#F8F8F8"/>
<g filter="url(#filter0_dddddd_2851_47255)">
<rect x="116" y="88" width="254" height="230" rx="8" fill="white"/>
</g>
<g clip-path="url(#clip1_2851_47255)">
<rect x="151" y="129" width="184" height="113" rx="4" fill="white"/>
<path d="M151 132C151 130.343 152.343 129 154 129H332C333.657 129 335 130.343 335 132V161H151V132Z" fill="white"/>
<path d="M168.999 146.664C168.999 146.448 168.965 146.258 168.897 146.093C168.833 145.924 168.719 145.771 168.554 145.636C168.393 145.5 168.169 145.371 167.881 145.249C167.598 145.126 167.238 145.001 166.802 144.874C166.345 144.739 165.933 144.588 165.564 144.423C165.196 144.254 164.881 144.062 164.619 143.846C164.356 143.63 164.155 143.382 164.016 143.103C163.876 142.824 163.806 142.504 163.806 142.145C163.806 141.785 163.88 141.453 164.028 141.148C164.176 140.843 164.388 140.579 164.663 140.354C164.942 140.126 165.275 139.948 165.66 139.821C166.045 139.694 166.474 139.631 166.948 139.631C167.642 139.631 168.23 139.764 168.713 140.031C169.2 140.293 169.57 140.638 169.824 141.065C170.078 141.489 170.205 141.941 170.205 142.424H168.986C168.986 142.077 168.912 141.77 168.764 141.503C168.616 141.233 168.391 141.021 168.091 140.869C167.79 140.712 167.41 140.634 166.948 140.634C166.512 140.634 166.153 140.699 165.869 140.831C165.586 140.962 165.374 141.139 165.234 141.364C165.099 141.588 165.031 141.844 165.031 142.132C165.031 142.326 165.071 142.504 165.152 142.665C165.236 142.822 165.366 142.968 165.539 143.103C165.717 143.238 165.941 143.363 166.212 143.478C166.487 143.592 166.815 143.702 167.196 143.808C167.721 143.956 168.173 144.121 168.554 144.303C168.935 144.485 169.248 144.69 169.494 144.918C169.743 145.143 169.927 145.399 170.046 145.687C170.169 145.97 170.23 146.292 170.23 146.651C170.23 147.028 170.154 147.369 170.001 147.673C169.849 147.978 169.631 148.238 169.348 148.454C169.064 148.67 168.723 148.837 168.326 148.956C167.932 149.07 167.492 149.127 167.005 149.127C166.578 149.127 166.157 149.068 165.742 148.949C165.332 148.831 164.957 148.653 164.619 148.416C164.284 148.179 164.016 147.887 163.812 147.54C163.614 147.189 163.514 146.783 163.514 146.321H164.733C164.733 146.639 164.794 146.912 164.917 147.14C165.04 147.364 165.207 147.551 165.418 147.699C165.634 147.847 165.878 147.957 166.148 148.029C166.424 148.097 166.709 148.13 167.005 148.13C167.433 148.13 167.795 148.071 168.091 147.953C168.387 147.834 168.611 147.665 168.764 147.445C168.92 147.225 168.999 146.965 168.999 146.664ZM174.464 149.127C173.986 149.127 173.552 149.047 173.163 148.886C172.778 148.721 172.445 148.49 172.166 148.194C171.891 147.898 171.679 147.546 171.531 147.14C171.383 146.734 171.309 146.29 171.309 145.807V145.541C171.309 144.982 171.392 144.485 171.557 144.049C171.722 143.609 171.946 143.236 172.229 142.932C172.513 142.627 172.835 142.396 173.194 142.24C173.554 142.083 173.926 142.005 174.312 142.005C174.802 142.005 175.226 142.09 175.581 142.259C175.941 142.428 176.235 142.665 176.463 142.97C176.692 143.27 176.861 143.626 176.971 144.036C177.081 144.442 177.136 144.887 177.136 145.369V145.896H172.007V144.938H175.962V144.849C175.945 144.544 175.882 144.248 175.771 143.96C175.666 143.672 175.496 143.435 175.264 143.249C175.031 143.063 174.714 142.97 174.312 142.97C174.045 142.97 173.799 143.027 173.575 143.141C173.351 143.251 173.158 143.416 172.998 143.636C172.837 143.856 172.712 144.125 172.623 144.442C172.534 144.76 172.49 145.126 172.49 145.541V145.807C172.49 146.133 172.534 146.44 172.623 146.728C172.716 147.011 172.849 147.261 173.023 147.477C173.201 147.692 173.414 147.862 173.664 147.984C173.918 148.107 174.206 148.168 174.527 148.168C174.942 148.168 175.293 148.084 175.581 147.915C175.869 147.745 176.121 147.519 176.336 147.235L177.047 147.8C176.899 148.025 176.711 148.238 176.482 148.441C176.254 148.645 175.972 148.81 175.638 148.937C175.308 149.063 174.917 149.127 174.464 149.127ZM179.783 139.25V149H178.603V139.25H179.783ZM184.519 149.127C184.04 149.127 183.607 149.047 183.217 148.886C182.832 148.721 182.5 148.49 182.221 148.194C181.946 147.898 181.734 147.546 181.586 147.14C181.438 146.734 181.364 146.29 181.364 145.807V145.541C181.364 144.982 181.446 144.485 181.611 144.049C181.776 143.609 182.001 143.236 182.284 142.932C182.568 142.627 182.889 142.396 183.249 142.24C183.609 142.083 183.981 142.005 184.366 142.005C184.857 142.005 185.28 142.09 185.636 142.259C185.995 142.428 186.29 142.665 186.518 142.97C186.747 143.27 186.916 143.626 187.026 144.036C187.136 144.442 187.191 144.887 187.191 145.369V145.896H182.062V144.938H186.017V144.849C186 144.544 185.936 144.248 185.826 143.96C185.72 143.672 185.551 143.435 185.318 143.249C185.086 143.063 184.768 142.97 184.366 142.97C184.1 142.97 183.854 143.027 183.63 143.141C183.406 143.251 183.213 143.416 183.052 143.636C182.891 143.856 182.767 144.125 182.678 144.442C182.589 144.76 182.544 145.126 182.544 145.541V145.807C182.544 146.133 182.589 146.44 182.678 146.728C182.771 147.011 182.904 147.261 183.078 147.477C183.255 147.692 183.469 147.862 183.719 147.984C183.973 148.107 184.26 148.168 184.582 148.168C184.997 148.168 185.348 148.084 185.636 147.915C185.924 147.745 186.175 147.519 186.391 147.235L187.102 147.8C186.954 148.025 186.766 148.238 186.537 148.441C186.309 148.645 186.027 148.81 185.693 148.937C185.363 149.063 184.971 149.127 184.519 149.127ZM191.311 148.162C191.59 148.162 191.848 148.105 192.085 147.991C192.322 147.876 192.517 147.72 192.669 147.521C192.821 147.318 192.908 147.087 192.929 146.829H194.046C194.025 147.235 193.888 147.614 193.634 147.965C193.384 148.312 193.056 148.594 192.65 148.81C192.244 149.021 191.797 149.127 191.311 149.127C190.794 149.127 190.344 149.036 189.958 148.854C189.578 148.672 189.26 148.422 189.006 148.105C188.757 147.788 188.568 147.424 188.441 147.013C188.319 146.598 188.257 146.16 188.257 145.699V145.433C188.257 144.971 188.319 144.535 188.441 144.125C188.568 143.71 188.757 143.344 189.006 143.027C189.26 142.709 189.578 142.46 189.958 142.278C190.344 142.096 190.794 142.005 191.311 142.005C191.848 142.005 192.318 142.115 192.72 142.335C193.122 142.551 193.437 142.847 193.666 143.224C193.898 143.596 194.025 144.019 194.046 144.493H192.929C192.908 144.21 192.828 143.954 192.688 143.725C192.553 143.497 192.366 143.315 192.129 143.179C191.897 143.04 191.624 142.97 191.311 142.97C190.951 142.97 190.648 143.042 190.403 143.186C190.162 143.325 189.969 143.516 189.825 143.757C189.686 143.994 189.584 144.258 189.521 144.55C189.461 144.838 189.432 145.132 189.432 145.433V145.699C189.432 146 189.461 146.296 189.521 146.588C189.58 146.88 189.679 147.144 189.819 147.381C189.963 147.618 190.155 147.809 190.396 147.953C190.642 148.092 190.947 148.162 191.311 148.162ZM198.242 142.132V143.033H194.529V142.132H198.242ZM195.786 140.462H196.96V147.299C196.96 147.532 196.996 147.707 197.068 147.826C197.14 147.944 197.233 148.022 197.347 148.061C197.461 148.099 197.584 148.118 197.715 148.118C197.813 148.118 197.914 148.109 198.02 148.092C198.13 148.071 198.213 148.054 198.268 148.042L198.274 149C198.181 149.03 198.058 149.057 197.906 149.083C197.758 149.112 197.578 149.127 197.366 149.127C197.078 149.127 196.814 149.07 196.573 148.956C196.332 148.841 196.139 148.651 195.995 148.384C195.855 148.113 195.786 147.75 195.786 147.292V140.462Z" fill="#1A1A1A"/>
<path d="M321.286 147.998C321.104 147.998 320.921 147.925 320.781 147.779L317.001 143.81L313.219 147.78C312.94 148.073 312.488 148.073 312.209 147.78C311.93 147.487 311.93 147.013 312.209 146.72L316.495 142.22C316.774 141.927 317.226 141.927 317.505 142.22L321.791 146.72C322.07 147.013 322.07 147.487 321.791 147.78C321.652 147.926 321.469 147.998 321.286 147.998Z" fill="#737373"/>
<path d="M151 161H335V234C335 238.418 331.418 242 327 242H159C154.582 242 151 238.418 151 234V161Z" fill="white"/>
<path d="M151 162H335V160H151V162Z" fill="#D5E3FD" mask="url(#path-9-inside-1_2851_47255)"/>
<path d="M175.188 185.087V185.671C175.188 186.365 175.102 186.987 174.928 187.537C174.755 188.087 174.505 188.555 174.179 188.94C173.853 189.325 173.462 189.619 173.005 189.822C172.552 190.025 172.044 190.127 171.481 190.127C170.936 190.127 170.434 190.025 169.977 189.822C169.524 189.619 169.131 189.325 168.796 188.94C168.466 188.555 168.21 188.087 168.028 187.537C167.846 186.987 167.755 186.365 167.755 185.671V185.087C167.755 184.393 167.844 183.773 168.022 183.227C168.204 182.677 168.46 182.209 168.79 181.824C169.12 181.435 169.512 181.139 169.964 180.936C170.421 180.732 170.923 180.631 171.469 180.631C172.032 180.631 172.539 180.732 172.992 180.936C173.449 181.139 173.841 181.435 174.167 181.824C174.497 182.209 174.748 182.677 174.922 183.227C175.1 183.773 175.188 184.393 175.188 185.087ZM173.976 185.671V185.074C173.976 184.524 173.919 184.037 173.805 183.614C173.695 183.191 173.532 182.836 173.316 182.548C173.1 182.26 172.836 182.042 172.522 181.894C172.214 181.746 171.862 181.672 171.469 181.672C171.088 181.672 170.743 181.746 170.434 181.894C170.129 182.042 169.867 182.26 169.647 182.548C169.431 182.836 169.264 183.191 169.146 183.614C169.027 184.037 168.968 184.524 168.968 185.074V185.671C168.968 186.225 169.027 186.716 169.146 187.144C169.264 187.567 169.433 187.924 169.653 188.216C169.878 188.504 170.142 188.722 170.447 188.87C170.756 189.018 171.101 189.092 171.481 189.092C171.879 189.092 172.233 189.018 172.542 188.87C172.85 188.722 173.111 188.504 173.322 188.216C173.538 187.924 173.701 187.567 173.811 187.144C173.921 186.716 173.976 186.225 173.976 185.671ZM178.02 184.452V192.641H176.839V183.132H177.918L178.02 184.452ZM182.647 186.509V186.642C182.647 187.141 182.588 187.605 182.469 188.032C182.351 188.455 182.177 188.824 181.949 189.137C181.724 189.45 181.447 189.693 181.117 189.867C180.787 190.04 180.408 190.127 179.981 190.127C179.545 190.127 179.16 190.055 178.826 189.911C178.491 189.767 178.208 189.558 177.975 189.283C177.742 189.008 177.556 188.678 177.417 188.292C177.281 187.907 177.188 187.474 177.137 186.991V186.28C177.188 185.772 177.283 185.318 177.423 184.916C177.562 184.514 177.747 184.171 177.975 183.887C178.208 183.599 178.489 183.382 178.819 183.233C179.149 183.081 179.53 183.005 179.962 183.005C180.394 183.005 180.777 183.09 181.111 183.259C181.445 183.424 181.727 183.661 181.955 183.97C182.184 184.279 182.355 184.649 182.469 185.081C182.588 185.508 182.647 185.984 182.647 186.509ZM181.466 186.642V186.509C181.466 186.166 181.43 185.844 181.358 185.544C181.286 185.239 181.174 184.973 181.022 184.744C180.874 184.511 180.683 184.329 180.451 184.198C180.218 184.063 179.941 183.995 179.619 183.995C179.323 183.995 179.065 184.046 178.845 184.147C178.629 184.249 178.445 184.387 178.292 184.56C178.14 184.729 178.015 184.924 177.918 185.144C177.825 185.36 177.755 185.584 177.708 185.817V187.461C177.793 187.757 177.912 188.036 178.064 188.299C178.216 188.557 178.419 188.766 178.673 188.927C178.927 189.084 179.247 189.162 179.632 189.162C179.949 189.162 180.222 189.097 180.451 188.965C180.683 188.83 180.874 188.646 181.022 188.413C181.174 188.18 181.286 187.914 181.358 187.613C181.43 187.309 181.466 186.985 181.466 186.642ZM187.021 183.132V184.033H183.307V183.132H187.021ZM184.564 181.462H185.738V188.299C185.738 188.532 185.774 188.707 185.846 188.826C185.918 188.944 186.011 189.022 186.125 189.061C186.24 189.099 186.362 189.118 186.494 189.118C186.591 189.118 186.693 189.109 186.798 189.092C186.908 189.071 186.991 189.054 187.046 189.042L187.052 190C186.959 190.03 186.836 190.057 186.684 190.083C186.536 190.112 186.356 190.127 186.145 190.127C185.857 190.127 185.592 190.07 185.351 189.956C185.11 189.841 184.917 189.651 184.773 189.384C184.634 189.113 184.564 188.75 184.564 188.292V181.462ZM189.674 183.132V190H188.493V183.132H189.674ZM188.404 181.31C188.404 181.12 188.461 180.959 188.576 180.828C188.694 180.696 188.868 180.631 189.096 180.631C189.32 180.631 189.492 180.696 189.61 180.828C189.733 180.959 189.794 181.12 189.794 181.31C189.794 181.492 189.733 181.649 189.61 181.78C189.492 181.907 189.32 181.97 189.096 181.97C188.868 181.97 188.694 181.907 188.576 181.78C188.461 181.649 188.404 181.492 188.404 181.31ZM191.248 186.642V186.496C191.248 186.001 191.32 185.542 191.464 185.119C191.608 184.691 191.815 184.321 192.086 184.008C192.357 183.69 192.685 183.445 193.07 183.271C193.455 183.094 193.887 183.005 194.365 183.005C194.847 183.005 195.281 183.094 195.666 183.271C196.055 183.445 196.385 183.69 196.656 184.008C196.931 184.321 197.141 184.691 197.285 185.119C197.429 185.542 197.5 186.001 197.5 186.496V186.642C197.5 187.137 197.429 187.596 197.285 188.02C197.141 188.443 196.931 188.813 196.656 189.13C196.385 189.444 196.057 189.689 195.672 189.867C195.292 190.04 194.86 190.127 194.377 190.127C193.895 190.127 193.461 190.04 193.076 189.867C192.691 189.689 192.361 189.444 192.086 189.13C191.815 188.813 191.608 188.443 191.464 188.02C191.32 187.596 191.248 187.137 191.248 186.642ZM192.422 186.496V186.642C192.422 186.985 192.463 187.309 192.543 187.613C192.623 187.914 192.744 188.18 192.905 188.413C193.07 188.646 193.275 188.83 193.521 188.965C193.766 189.097 194.052 189.162 194.377 189.162C194.699 189.162 194.98 189.097 195.222 188.965C195.467 188.83 195.67 188.646 195.831 188.413C195.992 188.18 196.112 187.914 196.193 187.613C196.278 187.309 196.32 186.985 196.32 186.642V186.496C196.32 186.158 196.278 185.838 196.193 185.538C196.112 185.233 195.99 184.964 195.825 184.731C195.664 184.494 195.461 184.308 195.215 184.173C194.974 184.037 194.691 183.97 194.365 183.97C194.043 183.97 193.76 184.037 193.514 184.173C193.273 184.308 193.07 184.494 192.905 184.731C192.744 184.964 192.623 185.233 192.543 185.538C192.463 185.838 192.422 186.158 192.422 186.496ZM200.147 184.598V190H198.973V183.132H200.084L200.147 184.598ZM199.868 186.306L199.379 186.287C199.384 185.817 199.453 185.383 199.589 184.985C199.724 184.583 199.915 184.234 200.16 183.938C200.406 183.642 200.698 183.413 201.036 183.252C201.379 183.087 201.758 183.005 202.172 183.005C202.511 183.005 202.816 183.051 203.086 183.145C203.357 183.233 203.588 183.377 203.778 183.576C203.973 183.775 204.121 184.033 204.223 184.351C204.324 184.664 204.375 185.047 204.375 185.5V190H203.194V185.487C203.194 185.127 203.141 184.839 203.036 184.624C202.93 184.403 202.775 184.245 202.572 184.147C202.369 184.046 202.119 183.995 201.823 183.995C201.531 183.995 201.265 184.056 201.023 184.179C200.786 184.302 200.581 184.471 200.408 184.687C200.238 184.903 200.105 185.15 200.008 185.43C199.915 185.705 199.868 185.997 199.868 186.306ZM216.677 185.087V185.671C216.677 186.365 216.59 186.987 216.417 187.537C216.243 188.087 215.993 188.555 215.667 188.94C215.342 189.325 214.95 189.619 214.493 189.822C214.04 190.025 213.533 190.127 212.97 190.127C212.424 190.127 211.922 190.025 211.465 189.822C211.013 189.619 210.619 189.325 210.285 188.94C209.955 188.555 209.699 188.087 209.517 187.537C209.335 186.987 209.244 186.365 209.244 185.671V185.087C209.244 184.393 209.333 183.773 209.51 183.227C209.692 182.677 209.948 182.209 210.278 181.824C210.608 181.435 211 181.139 211.453 180.936C211.91 180.732 212.411 180.631 212.957 180.631C213.52 180.631 214.028 180.732 214.48 180.936C214.938 181.139 215.329 181.435 215.655 181.824C215.985 182.209 216.237 182.677 216.41 183.227C216.588 183.773 216.677 184.393 216.677 185.087ZM215.464 185.671V185.074C215.464 184.524 215.407 184.037 215.293 183.614C215.183 183.191 215.02 182.836 214.804 182.548C214.588 182.26 214.324 182.042 214.011 181.894C213.702 181.746 213.351 181.672 212.957 181.672C212.576 181.672 212.231 181.746 211.922 181.894C211.618 182.042 211.355 182.26 211.135 182.548C210.919 182.836 210.752 183.191 210.634 183.614C210.515 184.037 210.456 184.524 210.456 185.074V185.671C210.456 186.225 210.515 186.716 210.634 187.144C210.752 187.567 210.922 187.924 211.142 188.216C211.366 188.504 211.63 188.722 211.935 188.87C212.244 189.018 212.589 189.092 212.97 189.092C213.368 189.092 213.721 189.018 214.03 188.87C214.339 188.722 214.599 188.504 214.811 188.216C215.026 187.924 215.189 187.567 215.299 187.144C215.409 186.716 215.464 186.225 215.464 185.671ZM219.508 184.598V190H218.333V183.132H219.444L219.508 184.598ZM219.229 186.306L218.74 186.287C218.744 185.817 218.814 185.383 218.949 184.985C219.085 184.583 219.275 184.234 219.521 183.938C219.766 183.642 220.058 183.413 220.396 183.252C220.739 183.087 221.118 183.005 221.533 183.005C221.871 183.005 222.176 183.051 222.447 183.145C222.718 183.233 222.948 183.377 223.139 183.576C223.333 183.775 223.481 184.033 223.583 184.351C223.685 184.664 223.735 185.047 223.735 185.5V190H222.555V185.487C222.555 185.127 222.502 184.839 222.396 184.624C222.29 184.403 222.136 184.245 221.933 184.147C221.729 184.046 221.48 183.995 221.184 183.995C220.892 183.995 220.625 184.056 220.384 184.179C220.147 184.302 219.942 184.471 219.768 184.687C219.599 184.903 219.465 185.15 219.368 185.43C219.275 185.705 219.229 185.997 219.229 186.306ZM228.369 190.127C227.891 190.127 227.457 190.047 227.068 189.886C226.683 189.721 226.351 189.49 226.071 189.194C225.796 188.898 225.585 188.546 225.437 188.14C225.288 187.734 225.214 187.29 225.214 186.807V186.541C225.214 185.982 225.297 185.485 225.462 185.049C225.627 184.609 225.851 184.236 226.135 183.932C226.418 183.627 226.74 183.396 227.1 183.24C227.459 183.083 227.832 183.005 228.217 183.005C228.708 183.005 229.131 183.09 229.486 183.259C229.846 183.428 230.14 183.665 230.369 183.97C230.597 184.27 230.766 184.626 230.876 185.036C230.986 185.442 231.042 185.887 231.042 186.369V186.896H225.913V185.938H229.867V185.849C229.85 185.544 229.787 185.248 229.677 184.96C229.571 184.672 229.402 184.435 229.169 184.249C228.936 184.063 228.619 183.97 228.217 183.97C227.95 183.97 227.705 184.027 227.48 184.141C227.256 184.251 227.064 184.416 226.903 184.636C226.742 184.856 226.617 185.125 226.528 185.442C226.439 185.76 226.395 186.126 226.395 186.541V186.807C226.395 187.133 226.439 187.44 226.528 187.728C226.621 188.011 226.755 188.261 226.928 188.477C227.106 188.692 227.32 188.862 227.569 188.984C227.823 189.107 228.111 189.168 228.433 189.168C228.847 189.168 229.199 189.084 229.486 188.915C229.774 188.745 230.026 188.519 230.242 188.235L230.953 188.8C230.805 189.025 230.616 189.238 230.388 189.441C230.159 189.645 229.878 189.81 229.543 189.937C229.213 190.063 228.822 190.127 228.369 190.127Z" fill="#505050"/>
<path d="M175.188 217.087V217.671C175.188 218.365 175.102 218.987 174.928 219.537C174.755 220.087 174.505 220.555 174.179 220.94C173.853 221.325 173.462 221.619 173.005 221.822C172.552 222.025 172.044 222.127 171.481 222.127C170.936 222.127 170.434 222.025 169.977 221.822C169.524 221.619 169.131 221.325 168.796 220.94C168.466 220.555 168.21 220.087 168.028 219.537C167.846 218.987 167.755 218.365 167.755 217.671V217.087C167.755 216.393 167.844 215.773 168.022 215.227C168.204 214.677 168.46 214.209 168.79 213.824C169.12 213.435 169.512 213.139 169.964 212.936C170.421 212.732 170.923 212.631 171.469 212.631C172.032 212.631 172.539 212.732 172.992 212.936C173.449 213.139 173.841 213.435 174.167 213.824C174.497 214.209 174.748 214.677 174.922 215.227C175.1 215.773 175.188 216.393 175.188 217.087ZM173.976 217.671V217.074C173.976 216.524 173.919 216.037 173.805 215.614C173.695 215.191 173.532 214.836 173.316 214.548C173.1 214.26 172.836 214.042 172.522 213.894C172.214 213.746 171.862 213.672 171.469 213.672C171.088 213.672 170.743 213.746 170.434 213.894C170.129 214.042 169.867 214.26 169.647 214.548C169.431 214.836 169.264 215.191 169.146 215.614C169.027 216.037 168.968 216.524 168.968 217.074V217.671C168.968 218.225 169.027 218.716 169.146 219.144C169.264 219.567 169.433 219.924 169.653 220.216C169.878 220.504 170.142 220.722 170.447 220.87C170.756 221.018 171.101 221.092 171.481 221.092C171.879 221.092 172.233 221.018 172.542 220.87C172.85 220.722 173.111 220.504 173.322 220.216C173.538 219.924 173.701 219.567 173.811 219.144C173.921 218.716 173.976 218.225 173.976 217.671ZM178.02 216.452V224.641H176.839V215.132H177.918L178.02 216.452ZM182.647 218.509V218.642C182.647 219.141 182.588 219.605 182.469 220.032C182.351 220.455 182.177 220.824 181.949 221.137C181.724 221.45 181.447 221.693 181.117 221.867C180.787 222.04 180.408 222.127 179.981 222.127C179.545 222.127 179.16 222.055 178.826 221.911C178.491 221.767 178.208 221.558 177.975 221.283C177.742 221.008 177.556 220.678 177.417 220.292C177.281 219.907 177.188 219.474 177.137 218.991V218.28C177.188 217.772 177.283 217.318 177.423 216.916C177.562 216.514 177.747 216.171 177.975 215.887C178.208 215.599 178.489 215.382 178.819 215.233C179.149 215.081 179.53 215.005 179.962 215.005C180.394 215.005 180.777 215.09 181.111 215.259C181.445 215.424 181.727 215.661 181.955 215.97C182.184 216.279 182.355 216.649 182.469 217.081C182.588 217.508 182.647 217.984 182.647 218.509ZM181.466 218.642V218.509C181.466 218.166 181.43 217.844 181.358 217.544C181.286 217.239 181.174 216.973 181.022 216.744C180.874 216.511 180.683 216.329 180.451 216.198C180.218 216.063 179.941 215.995 179.619 215.995C179.323 215.995 179.065 216.046 178.845 216.147C178.629 216.249 178.445 216.387 178.292 216.56C178.14 216.729 178.015 216.924 177.918 217.144C177.825 217.36 177.755 217.584 177.708 217.817V219.461C177.793 219.757 177.912 220.036 178.064 220.299C178.216 220.557 178.419 220.766 178.673 220.927C178.927 221.084 179.247 221.162 179.632 221.162C179.949 221.162 180.222 221.097 180.451 220.965C180.683 220.83 180.874 220.646 181.022 220.413C181.174 220.18 181.286 219.914 181.358 219.613C181.43 219.309 181.466 218.985 181.466 218.642ZM187.021 215.132V216.033H183.307V215.132H187.021ZM184.564 213.462H185.738V220.299C185.738 220.532 185.774 220.707 185.846 220.826C185.918 220.944 186.011 221.022 186.125 221.061C186.24 221.099 186.362 221.118 186.494 221.118C186.591 221.118 186.693 221.109 186.798 221.092C186.908 221.071 186.991 221.054 187.046 221.042L187.052 222C186.959 222.03 186.836 222.057 186.684 222.083C186.536 222.112 186.356 222.127 186.145 222.127C185.857 222.127 185.592 222.07 185.351 221.956C185.11 221.841 184.917 221.651 184.773 221.384C184.634 221.113 184.564 220.75 184.564 220.292V213.462ZM189.674 215.132V222H188.493V215.132H189.674ZM188.404 213.31C188.404 213.12 188.461 212.959 188.576 212.828C188.694 212.696 188.868 212.631 189.096 212.631C189.32 212.631 189.492 212.696 189.61 212.828C189.733 212.959 189.794 213.12 189.794 213.31C189.794 213.492 189.733 213.649 189.61 213.78C189.492 213.907 189.32 213.97 189.096 213.97C188.868 213.97 188.694 213.907 188.576 213.78C188.461 213.649 188.404 213.492 188.404 213.31ZM191.248 218.642V218.496C191.248 218.001 191.32 217.542 191.464 217.119C191.608 216.691 191.815 216.321 192.086 216.008C192.357 215.69 192.685 215.445 193.07 215.271C193.455 215.094 193.887 215.005 194.365 215.005C194.847 215.005 195.281 215.094 195.666 215.271C196.055 215.445 196.385 215.69 196.656 216.008C196.931 216.321 197.141 216.691 197.285 217.119C197.429 217.542 197.5 218.001 197.5 218.496V218.642C197.5 219.137 197.429 219.596 197.285 220.02C197.141 220.443 196.931 220.813 196.656 221.13C196.385 221.444 196.057 221.689 195.672 221.867C195.292 222.04 194.86 222.127 194.377 222.127C193.895 222.127 193.461 222.04 193.076 221.867C192.691 221.689 192.361 221.444 192.086 221.13C191.815 220.813 191.608 220.443 191.464 220.02C191.32 219.596 191.248 219.137 191.248 218.642ZM192.422 218.496V218.642C192.422 218.985 192.463 219.309 192.543 219.613C192.623 219.914 192.744 220.18 192.905 220.413C193.07 220.646 193.275 220.83 193.521 220.965C193.766 221.097 194.052 221.162 194.377 221.162C194.699 221.162 194.98 221.097 195.222 220.965C195.467 220.83 195.67 220.646 195.831 220.413C195.992 220.18 196.112 219.914 196.193 219.613C196.278 219.309 196.32 218.985 196.32 218.642V218.496C196.32 218.158 196.278 217.838 196.193 217.538C196.112 217.233 195.99 216.964 195.825 216.731C195.664 216.494 195.461 216.308 195.215 216.173C194.974 216.037 194.691 215.97 194.365 215.97C194.043 215.97 193.76 216.037 193.514 216.173C193.273 216.308 193.07 216.494 192.905 216.731C192.744 216.964 192.623 217.233 192.543 217.538C192.463 217.838 192.422 218.158 192.422 218.496ZM200.147 216.598V222H198.973V215.132H200.084L200.147 216.598ZM199.868 218.306L199.379 218.287C199.384 217.817 199.453 217.383 199.589 216.985C199.724 216.583 199.915 216.234 200.16 215.938C200.406 215.642 200.698 215.413 201.036 215.252C201.379 215.087 201.758 215.005 202.172 215.005C202.511 215.005 202.816 215.051 203.086 215.145C203.357 215.233 203.588 215.377 203.778 215.576C203.973 215.775 204.121 216.033 204.223 216.351C204.324 216.664 204.375 217.047 204.375 217.5V222H203.194V217.487C203.194 217.127 203.141 216.839 203.036 216.624C202.93 216.403 202.775 216.245 202.572 216.147C202.369 216.046 202.119 215.995 201.823 215.995C201.531 215.995 201.265 216.056 201.023 216.179C200.786 216.302 200.581 216.471 200.408 216.687C200.238 216.903 200.105 217.15 200.008 217.43C199.915 217.705 199.868 217.997 199.868 218.306ZM212.722 212.758V222H211.516V212.758H212.722ZM215.693 212.758V213.761H208.552V212.758H215.693ZM218.257 220.781L220.022 215.132H220.796L220.644 216.255L218.848 222H218.092L218.257 220.781ZM217.07 215.132L218.575 220.845L218.683 222H217.889L215.896 215.132H217.07ZM222.485 220.8L223.919 215.132H225.087L223.094 222H222.307L222.485 220.8ZM220.968 215.132L222.694 220.686L222.891 222H222.142L220.295 216.243L220.143 215.132H220.968ZM225.982 218.642V218.496C225.982 218.001 226.054 217.542 226.198 217.119C226.342 216.691 226.549 216.321 226.82 216.008C227.091 215.69 227.419 215.445 227.804 215.271C228.189 215.094 228.621 215.005 229.099 215.005C229.582 215.005 230.015 215.094 230.4 215.271C230.79 215.445 231.12 215.69 231.391 216.008C231.666 216.321 231.875 216.691 232.019 217.119C232.163 217.542 232.235 218.001 232.235 218.496V218.642C232.235 219.137 232.163 219.596 232.019 220.02C231.875 220.443 231.666 220.813 231.391 221.13C231.12 221.444 230.792 221.689 230.407 221.867C230.026 222.04 229.594 222.127 229.112 222.127C228.629 222.127 228.196 222.04 227.811 221.867C227.425 221.689 227.095 221.444 226.82 221.13C226.549 220.813 226.342 220.443 226.198 220.02C226.054 219.596 225.982 219.137 225.982 218.642ZM227.157 218.496V218.642C227.157 218.985 227.197 219.309 227.277 219.613C227.358 219.914 227.478 220.18 227.639 220.413C227.804 220.646 228.009 220.83 228.255 220.965C228.5 221.097 228.786 221.162 229.112 221.162C229.433 221.162 229.715 221.097 229.956 220.965C230.201 220.83 230.405 220.646 230.565 220.413C230.726 220.18 230.847 219.914 230.927 219.613C231.012 219.309 231.054 218.985 231.054 218.642V218.496C231.054 218.158 231.012 217.838 230.927 217.538C230.847 217.233 230.724 216.964 230.559 216.731C230.398 216.494 230.195 216.308 229.95 216.173C229.708 216.037 229.425 215.97 229.099 215.97C228.778 215.97 228.494 216.037 228.249 216.173C228.007 216.308 227.804 216.494 227.639 216.731C227.478 216.964 227.358 217.233 227.277 217.538C227.197 217.838 227.157 218.158 227.157 218.496Z" fill="#505050"/>
</g>
<rect x="152" y="130" width="182" height="111" rx="3" stroke="#286EF1" stroke-width="2"/>
<path d="M353.509 172.57L338.553 172.57" stroke="#737373"/>
<path d="M353.516 266.719L338.56 266.719" stroke="#737373"/>
<path d="M353 266.719L353 172.57" stroke="#737373"/>
<path d="M393.409 211L353 211" stroke="#737373"/>
<rect x="397.409" y="198" width="26" height="26" rx="4" fill="#333333"/>
<path d="M413.833 214.688V216H407.161V214.872L410.402 211.338C410.757 210.937 411.037 210.59 411.242 210.299C411.448 210.007 411.591 209.745 411.673 209.513C411.76 209.276 411.803 209.046 411.803 208.822C411.803 208.508 411.744 208.232 411.625 207.995C411.511 207.754 411.343 207.564 411.119 207.428C410.896 207.286 410.625 207.216 410.306 207.216C409.937 207.216 409.627 207.296 409.376 207.455C409.126 207.615 408.936 207.836 408.809 208.118C408.681 208.396 408.617 208.715 408.617 209.075H406.97C406.97 208.496 407.102 207.968 407.366 207.489C407.631 207.006 408.014 206.623 408.515 206.341C409.016 206.054 409.62 205.91 410.326 205.91C410.992 205.91 411.557 206.022 412.022 206.245C412.487 206.468 412.84 206.785 413.081 207.195C413.327 207.605 413.45 208.091 413.45 208.651C413.45 208.961 413.4 209.269 413.3 209.574C413.2 209.88 413.056 210.185 412.869 210.49C412.687 210.791 412.471 211.094 412.22 211.399C411.969 211.7 411.694 212.006 411.393 212.315L409.24 214.688H413.833Z" fill="white"/>
<rect x="57" y="134" width="26" height="26" rx="4" fill="#333333"/>
<path d="M71.25 142.013V152H69.6025V143.968L67.1621 144.795V143.435L71.0518 142.013H71.25Z" fill="white"/>
<path d="M159 147L154 144.113V149.887L159 147ZM154.5 146.5H87V147.5H154.5V146.5Z" fill="#737373"/>
</g>
<defs>
<filter id="filter0_dddddd_2851_47255" x="36" y="88" width="414" height="410" filterUnits="userSpaceOnUse" color-interpolation-filters="sRGB">
<feFlood flood-opacity="0" result="BackgroundImageFix"/>
<feColorMatrix in="SourceAlpha" type="matrix" values="0 0 0 0 0 0 0 0 0 0 0 0 0 0 0 0 0 0 127 0" result="hardAlpha"/>
<feOffset dy="2.76726"/>
<feGaussianBlur stdDeviation="1.1069"/>
<feColorMatrix type="matrix" values="0 0 0 0 0 0 0 0 0 0 0 0 0 0 0 0 0 0 0.0196802 0"/>
<feBlend mode="normal" in2="BackgroundImageFix" result="effect1_dropShadow_2851_47255"/>
<feColorMatrix in="SourceAlpha" type="matrix" values="0 0 0 0 0 0 0 0 0 0 0 0 0 0 0 0 0 0 127 0" result="hardAlpha"/>
<feOffset dy="6.6501"/>
<feGaussianBlur stdDeviation="2.66004"/>
<feColorMatrix type="matrix" values="0 0 0 0 0 0 0 0 0 0 0 0 0 0 0 0 0 0 0.0282725 0"/>
<feBlend mode="normal" in2="effect1_dropShadow_2851_47255" result="effect2_dropShadow_2851_47255"/>
<feColorMatrix in="SourceAlpha" type="matrix" values="0 0 0 0 0 0 0 0 0 0 0 0 0 0 0 0 0 0 127 0" result="hardAlpha"/>
<feOffset dy="12.5216"/>
<feGaussianBlur stdDeviation="5.00862"/>
<feColorMatrix type="matrix" values="0 0 0 0 0 0 0 0 0 0 0 0 0 0 0 0 0 0 0.035 0"/>
<feBlend mode="normal" in2="effect2_dropShadow_2851_47255" result="effect3_dropShadow_2851_47255"/>
<feColorMatrix in="SourceAlpha" type="matrix" values="0 0 0 0 0 0 0 0 0 0 0 0 0 0 0 0 0 0 127 0" result="hardAlpha"/>
<feOffset dy="22.3363"/>
<feGaussianBlur stdDeviation="8.93452"/>
<feColorMatrix type="matrix" values="0 0 0 0 0 0 0 0 0 0 0 0 0 0 0 0 0 0 0.0417275 0"/>
<feBlend mode="normal" in2="effect3_dropShadow_2851_47255" result="effect4_dropShadow_2851_47255"/>
<feColorMatrix in="SourceAlpha" type="matrix" values="0 0 0 0 0 0 0 0 0 0 0 0 0 0 0 0 0 0 127 0" result="hardAlpha"/>
<feOffset dy="41.7776"/>
<feGaussianBlur stdDeviation="16.711"/>
<feColorMatrix type="matrix" values="0 0 0 0 0 0 0 0 0 0 0 0 0 0 0 0 0 0 0.0503198 0"/>
<feBlend mode="normal" in2="effect4_dropShadow_2851_47255" result="effect5_dropShadow_2851_47255"/>
<feColorMatrix in="SourceAlpha" type="matrix" values="0 0 0 0 0 0 0 0 0 0 0 0 0 0 0 0 0 0 127 0" result="hardAlpha"/>
<feOffset dy="100"/>
<feGaussianBlur stdDeviation="40"/>
<feColorMatrix type="matrix" values="0 0 0 0 0 0 0 0 0 0 0 0 0 0 0 0 0 0 0.07 0"/>
<feBlend mode="normal" in2="effect5_dropShadow_2851_47255" result="effect6_dropShadow_2851_47255"/>
<feBlend mode="normal" in="SourceGraphic" in2="effect6_dropShadow_2851_47255" result="shape"/>
</filter>
<clipPath id="clip0_2851_47255">
<rect width="486" height="406" rx="4" fill="white"/>
</clipPath>
<clipPath id="clip1_2851_47255">
<rect x="151" y="129" width="184" height="113" rx="4" fill="white"/>
</clipPath>
</defs>
</svg>
