<svg width="486" height="406" viewBox="0 0 486 406" fill="none" xmlns="http://www.w3.org/2000/svg">
<rect width="486" height="406" rx="4" fill="#F8F8F8"/>
<rect x="116" y="88" width="254" height="230" rx="8" fill="white"/>
<rect x="151.5" y="187.5" width="183" height="31" rx="3.5" fill="white"/>
<path d="M168.999 204.664C168.999 204.448 168.965 204.258 168.897 204.093C168.833 203.924 168.719 203.771 168.554 203.636C168.393 203.5 168.169 203.371 167.881 203.249C167.598 203.126 167.238 203.001 166.802 202.874C166.345 202.739 165.933 202.588 165.564 202.423C165.196 202.254 164.881 202.062 164.619 201.846C164.356 201.63 164.155 201.382 164.016 201.103C163.876 200.824 163.806 200.504 163.806 200.145C163.806 199.785 163.88 199.453 164.028 199.148C164.176 198.843 164.388 198.579 164.663 198.354C164.942 198.126 165.275 197.948 165.66 197.821C166.045 197.694 166.474 197.631 166.948 197.631C167.642 197.631 168.23 197.764 168.713 198.031C169.2 198.293 169.57 198.638 169.824 199.065C170.078 199.489 170.205 199.941 170.205 200.424H168.986C168.986 200.077 168.912 199.77 168.764 199.503C168.616 199.233 168.391 199.021 168.091 198.869C167.79 198.712 167.41 198.634 166.948 198.634C166.512 198.634 166.153 198.699 165.869 198.831C165.586 198.962 165.374 199.139 165.234 199.364C165.099 199.588 165.031 199.844 165.031 200.132C165.031 200.326 165.071 200.504 165.152 200.665C165.236 200.822 165.366 200.968 165.539 201.103C165.717 201.238 165.941 201.363 166.212 201.478C166.487 201.592 166.815 201.702 167.196 201.808C167.721 201.956 168.173 202.121 168.554 202.303C168.935 202.485 169.248 202.69 169.494 202.918C169.743 203.143 169.927 203.399 170.046 203.687C170.169 203.97 170.23 204.292 170.23 204.651C170.23 205.028 170.154 205.369 170.001 205.673C169.849 205.978 169.631 206.238 169.348 206.454C169.064 206.67 168.723 206.837 168.326 206.956C167.932 207.07 167.492 207.127 167.005 207.127C166.578 207.127 166.157 207.068 165.742 206.949C165.332 206.831 164.957 206.653 164.619 206.416C164.284 206.179 164.016 205.887 163.812 205.54C163.614 205.189 163.514 204.783 163.514 204.321H164.733C164.733 204.639 164.794 204.912 164.917 205.14C165.04 205.364 165.207 205.551 165.418 205.699C165.634 205.847 165.878 205.957 166.148 206.029C166.424 206.097 166.709 206.13 167.005 206.13C167.433 206.13 167.795 206.071 168.091 205.953C168.387 205.834 168.611 205.665 168.764 205.445C168.92 205.225 168.999 204.965 168.999 204.664ZM174.464 207.127C173.986 207.127 173.552 207.047 173.163 206.886C172.778 206.721 172.445 206.49 172.166 206.194C171.891 205.898 171.679 205.546 171.531 205.14C171.383 204.734 171.309 204.29 171.309 203.807V203.541C171.309 202.982 171.392 202.485 171.557 202.049C171.722 201.609 171.946 201.236 172.229 200.932C172.513 200.627 172.835 200.396 173.194 200.24C173.554 200.083 173.926 200.005 174.312 200.005C174.802 200.005 175.226 200.09 175.581 200.259C175.941 200.428 176.235 200.665 176.463 200.97C176.692 201.27 176.861 201.626 176.971 202.036C177.081 202.442 177.136 202.887 177.136 203.369V203.896H172.007V202.938H175.962V202.849C175.945 202.544 175.882 202.248 175.771 201.96C175.666 201.672 175.496 201.435 175.264 201.249C175.031 201.063 174.714 200.97 174.312 200.97C174.045 200.97 173.799 201.027 173.575 201.141C173.351 201.251 173.158 201.416 172.998 201.636C172.837 201.856 172.712 202.125 172.623 202.442C172.534 202.76 172.49 203.126 172.49 203.541V203.807C172.49 204.133 172.534 204.44 172.623 204.728C172.716 205.011 172.849 205.261 173.023 205.477C173.201 205.692 173.414 205.862 173.664 205.984C173.918 206.107 174.206 206.168 174.527 206.168C174.942 206.168 175.293 206.084 175.581 205.915C175.869 205.745 176.121 205.519 176.336 205.235L177.047 205.8C176.899 206.025 176.711 206.238 176.482 206.441C176.254 206.645 175.972 206.81 175.638 206.937C175.308 207.063 174.917 207.127 174.464 207.127ZM179.783 197.25V207H178.603V197.25H179.783ZM184.519 207.127C184.04 207.127 183.607 207.047 183.217 206.886C182.832 206.721 182.5 206.49 182.221 206.194C181.946 205.898 181.734 205.546 181.586 205.14C181.438 204.734 181.364 204.29 181.364 203.807V203.541C181.364 202.982 181.446 202.485 181.611 202.049C181.776 201.609 182.001 201.236 182.284 200.932C182.568 200.627 182.889 200.396 183.249 200.24C183.609 200.083 183.981 200.005 184.366 200.005C184.857 200.005 185.28 200.09 185.636 200.259C185.995 200.428 186.29 200.665 186.518 200.97C186.747 201.27 186.916 201.626 187.026 202.036C187.136 202.442 187.191 202.887 187.191 203.369V203.896H182.062V202.938H186.017V202.849C186 202.544 185.936 202.248 185.826 201.96C185.72 201.672 185.551 201.435 185.318 201.249C185.086 201.063 184.768 200.97 184.366 200.97C184.1 200.97 183.854 201.027 183.63 201.141C183.406 201.251 183.213 201.416 183.052 201.636C182.891 201.856 182.767 202.125 182.678 202.442C182.589 202.76 182.544 203.126 182.544 203.541V203.807C182.544 204.133 182.589 204.44 182.678 204.728C182.771 205.011 182.904 205.261 183.078 205.477C183.255 205.692 183.469 205.862 183.719 205.984C183.973 206.107 184.26 206.168 184.582 206.168C184.997 206.168 185.348 206.084 185.636 205.915C185.924 205.745 186.175 205.519 186.391 205.235L187.102 205.8C186.954 206.025 186.766 206.238 186.537 206.441C186.309 206.645 186.027 206.81 185.693 206.937C185.363 207.063 184.971 207.127 184.519 207.127ZM191.311 206.162C191.59 206.162 191.848 206.105 192.085 205.991C192.322 205.876 192.517 205.72 192.669 205.521C192.821 205.318 192.908 205.087 192.929 204.829H194.046C194.025 205.235 193.888 205.614 193.634 205.965C193.384 206.312 193.056 206.594 192.65 206.81C192.244 207.021 191.797 207.127 191.311 207.127C190.794 207.127 190.344 207.036 189.958 206.854C189.578 206.672 189.26 206.422 189.006 206.105C188.757 205.788 188.568 205.424 188.441 205.013C188.319 204.598 188.257 204.16 188.257 203.699V203.433C188.257 202.971 188.319 202.535 188.441 202.125C188.568 201.71 188.757 201.344 189.006 201.027C189.26 200.709 189.578 200.46 189.958 200.278C190.344 200.096 190.794 200.005 191.311 200.005C191.848 200.005 192.318 200.115 192.72 200.335C193.122 200.551 193.437 200.847 193.666 201.224C193.898 201.596 194.025 202.019 194.046 202.493H192.929C192.908 202.21 192.828 201.954 192.688 201.725C192.553 201.497 192.366 201.315 192.129 201.179C191.897 201.04 191.624 200.97 191.311 200.97C190.951 200.97 190.648 201.042 190.403 201.186C190.162 201.325 189.969 201.516 189.825 201.757C189.686 201.994 189.584 202.258 189.521 202.55C189.461 202.838 189.432 203.132 189.432 203.433V203.699C189.432 204 189.461 204.296 189.521 204.588C189.58 204.88 189.679 205.144 189.819 205.381C189.963 205.618 190.155 205.809 190.396 205.953C190.642 206.092 190.947 206.162 191.311 206.162ZM198.242 200.132V201.033H194.529V200.132H198.242ZM195.786 198.462H196.96V205.299C196.96 205.532 196.996 205.707 197.068 205.826C197.14 205.944 197.233 206.022 197.347 206.061C197.461 206.099 197.584 206.118 197.715 206.118C197.813 206.118 197.914 206.109 198.02 206.092C198.13 206.071 198.213 206.054 198.268 206.042L198.274 207C198.181 207.03 198.058 207.057 197.906 207.083C197.758 207.112 197.578 207.127 197.366 207.127C197.078 207.127 196.814 207.07 196.573 206.956C196.332 206.841 196.139 206.651 195.995 206.384C195.855 206.113 195.786 205.75 195.786 205.292V198.462Z" fill="#1A1A1A"/>
<path d="M317 206C316.817 206 316.634 205.927 316.495 205.78L312.209 201.28C311.93 200.987 311.93 200.513 312.209 200.22C312.488 199.927 312.94 199.927 313.219 200.22L317 204.191L320.781 200.22C321.06 199.927 321.512 199.927 321.791 200.22C322.07 200.513 322.07 200.988 321.791 201.281L317.505 205.781C317.366 205.927 317.183 206 317 206Z" fill="#737373"/>
<rect x="151.5" y="187.5" width="183" height="31" rx="3.5" stroke="#AAAAAA"/>
<rect x="260" y="33" width="26" height="26" rx="4" fill="#333333"/>
<path d="M276.424 49.6875V51H269.752V49.8721L272.992 46.3379C273.348 45.9368 273.628 45.5905 273.833 45.2988C274.038 45.0072 274.182 44.7451 274.264 44.5127C274.35 44.2757 274.394 44.0456 274.394 43.8223C274.394 43.5078 274.334 43.2321 274.216 42.9951C274.102 42.7536 273.933 42.5645 273.71 42.4277C273.487 42.2865 273.215 42.2158 272.896 42.2158C272.527 42.2158 272.217 42.2956 271.967 42.4551C271.716 42.6146 271.527 42.8356 271.399 43.1182C271.272 43.3962 271.208 43.7152 271.208 44.0752H269.561C269.561 43.4964 269.693 42.9678 269.957 42.4893C270.221 42.0062 270.604 41.6234 271.105 41.3408C271.607 41.0537 272.211 40.9102 272.917 40.9102C273.582 40.9102 274.147 41.0218 274.612 41.2451C275.077 41.4684 275.43 41.7852 275.672 42.1953C275.918 42.6055 276.041 43.0908 276.041 43.6514C276.041 43.9613 275.991 44.2689 275.891 44.5742C275.79 44.8796 275.647 45.1849 275.46 45.4902C275.278 45.791 275.061 46.0941 274.811 46.3994C274.56 46.7002 274.284 47.0055 273.983 47.3154L271.83 49.6875H276.424Z" fill="white"/>
<path d="M273 184L275.887 179L270.113 179L273 184ZM273.5 179.5L273.5 63L272.5 63L272.5 179.5L273.5 179.5Z" fill="#737373"/>
<rect x="57" y="190" width="26" height="26" rx="4" fill="#333333"/>
<path d="M71.25 198.013V208H69.6025V199.968L67.1621 200.795V199.435L71.0518 198.013H71.25Z" fill="white"/>
<path d="M159 203L154 200.113V205.887L159 203ZM154.5 202.5H87V203.5H154.5V202.5Z" fill="#737373"/>
</svg>
