<svg width="1280" height="498" viewBox="0 0 1280 498" fill="none" xmlns="http://www.w3.org/2000/svg">
<rect width="1280" height="498" rx="16" fill="#F8F8F8"/>
<rect x="428.5" y="71.5" width="422" height="355" rx="7.5" fill="white"/>
<path d="M458.864 98.2031V111H456.236V98.2031H458.864ZM462.802 98.2031V100.269H452.36V98.2031H462.802ZM466.616 97.5V111H464.085V97.5H466.616ZM466.256 105.911H465.562C465.567 105.249 465.655 104.64 465.825 104.083C465.995 103.521 466.238 103.034 466.555 102.624C466.871 102.208 467.249 101.886 467.688 101.657C468.134 101.429 468.626 101.314 469.165 101.314C469.634 101.314 470.059 101.382 470.439 101.517C470.826 101.646 471.157 101.856 471.433 102.149C471.714 102.437 471.931 102.814 472.083 103.283C472.235 103.752 472.312 104.32 472.312 104.988V111H469.763V104.971C469.763 104.549 469.701 104.218 469.578 103.978C469.461 103.731 469.288 103.559 469.06 103.459C468.837 103.354 468.562 103.301 468.233 103.301C467.87 103.301 467.56 103.368 467.302 103.503C467.05 103.638 466.848 103.825 466.695 104.065C466.543 104.3 466.432 104.575 466.361 104.892C466.291 105.208 466.256 105.548 466.256 105.911ZM476.908 101.49V111H474.368V101.49H476.908ZM474.21 99.0117C474.21 98.6426 474.339 98.3379 474.597 98.0977C474.854 97.8574 475.2 97.7373 475.634 97.7373C476.062 97.7373 476.404 97.8574 476.662 98.0977C476.926 98.3379 477.058 98.6426 477.058 99.0117C477.058 99.3809 476.926 99.6855 476.662 99.9258C476.404 100.166 476.062 100.286 475.634 100.286C475.2 100.286 474.854 100.166 474.597 99.9258C474.339 99.6855 474.21 99.3809 474.21 99.0117ZM484.142 108.372C484.142 108.19 484.089 108.026 483.983 107.88C483.878 107.733 483.682 107.599 483.395 107.476C483.113 107.347 482.706 107.229 482.173 107.124C481.692 107.019 481.244 106.887 480.828 106.729C480.418 106.564 480.061 106.368 479.756 106.14C479.457 105.911 479.223 105.642 479.053 105.331C478.883 105.015 478.798 104.654 478.798 104.25C478.798 103.852 478.883 103.477 479.053 103.125C479.229 102.773 479.478 102.463 479.8 102.193C480.128 101.918 480.526 101.704 480.995 101.552C481.47 101.394 482.003 101.314 482.595 101.314C483.421 101.314 484.13 101.446 484.722 101.71C485.319 101.974 485.776 102.337 486.093 102.8C486.415 103.257 486.576 103.778 486.576 104.364H484.045C484.045 104.118 483.992 103.898 483.887 103.705C483.787 103.506 483.629 103.351 483.412 103.239C483.201 103.122 482.926 103.063 482.586 103.063C482.305 103.063 482.062 103.113 481.856 103.213C481.651 103.307 481.493 103.436 481.382 103.6C481.276 103.758 481.224 103.934 481.224 104.127C481.224 104.273 481.253 104.405 481.312 104.522C481.376 104.634 481.479 104.736 481.619 104.83C481.76 104.924 481.941 105.012 482.164 105.094C482.393 105.17 482.674 105.24 483.008 105.305C483.693 105.445 484.306 105.63 484.845 105.858C485.384 106.081 485.812 106.386 486.128 106.772C486.444 107.153 486.603 107.654 486.603 108.275C486.603 108.697 486.509 109.084 486.321 109.436C486.134 109.787 485.864 110.095 485.513 110.358C485.161 110.616 484.739 110.818 484.247 110.965C483.761 111.105 483.213 111.176 482.604 111.176C481.719 111.176 480.969 111.018 480.354 110.701C479.744 110.385 479.281 109.983 478.965 109.497C478.654 109.005 478.499 108.501 478.499 107.985H480.898C480.91 108.331 480.998 108.609 481.162 108.82C481.332 109.031 481.546 109.184 481.804 109.277C482.067 109.371 482.352 109.418 482.656 109.418C482.984 109.418 483.257 109.374 483.474 109.286C483.69 109.192 483.854 109.069 483.966 108.917C484.083 108.759 484.142 108.577 484.142 108.372ZM495.4 101.49V111H492.86V101.49H495.4ZM492.702 99.0117C492.702 98.6426 492.831 98.3379 493.089 98.0977C493.347 97.8574 493.692 97.7373 494.126 97.7373C494.554 97.7373 494.896 97.8574 495.154 98.0977C495.418 98.3379 495.55 98.6426 495.55 99.0117C495.55 99.3809 495.418 99.6855 495.154 99.9258C494.896 100.166 494.554 100.286 494.126 100.286C493.692 100.286 493.347 100.166 493.089 99.9258C492.831 99.6855 492.702 99.3809 492.702 99.0117ZM502.634 108.372C502.634 108.19 502.581 108.026 502.476 107.88C502.37 107.733 502.174 107.599 501.887 107.476C501.605 107.347 501.198 107.229 500.665 107.124C500.185 107.019 499.736 106.887 499.32 106.729C498.91 106.564 498.553 106.368 498.248 106.14C497.949 105.911 497.715 105.642 497.545 105.331C497.375 105.015 497.29 104.654 497.29 104.25C497.29 103.852 497.375 103.477 497.545 103.125C497.721 102.773 497.97 102.463 498.292 102.193C498.62 101.918 499.019 101.704 499.487 101.552C499.962 101.394 500.495 101.314 501.087 101.314C501.913 101.314 502.622 101.446 503.214 101.71C503.812 101.974 504.269 102.337 504.585 102.8C504.907 103.257 505.068 103.778 505.068 104.364H502.537C502.537 104.118 502.484 103.898 502.379 103.705C502.279 103.506 502.121 103.351 501.904 103.239C501.693 103.122 501.418 103.063 501.078 103.063C500.797 103.063 500.554 103.113 500.349 103.213C500.144 103.307 499.985 103.436 499.874 103.6C499.769 103.758 499.716 103.934 499.716 104.127C499.716 104.273 499.745 104.405 499.804 104.522C499.868 104.634 499.971 104.736 500.111 104.83C500.252 104.924 500.434 105.012 500.656 105.094C500.885 105.17 501.166 105.24 501.5 105.305C502.186 105.445 502.798 105.63 503.337 105.858C503.876 106.081 504.304 106.386 504.62 106.772C504.937 107.153 505.095 107.654 505.095 108.275C505.095 108.697 505.001 109.084 504.813 109.436C504.626 109.787 504.356 110.095 504.005 110.358C503.653 110.616 503.231 110.818 502.739 110.965C502.253 111.105 501.705 111.176 501.096 111.176C500.211 111.176 499.461 111.018 498.846 110.701C498.236 110.385 497.773 109.983 497.457 109.497C497.146 109.005 496.991 108.501 496.991 107.985H499.391C499.402 108.331 499.49 108.609 499.654 108.82C499.824 109.031 500.038 109.184 500.296 109.277C500.56 109.371 500.844 109.418 501.148 109.418C501.477 109.418 501.749 109.374 501.966 109.286C502.183 109.192 502.347 109.069 502.458 108.917C502.575 108.759 502.634 108.577 502.634 108.372ZM515.879 101.49V103.283H510.342V101.49H515.879ZM511.713 99.1436H514.244V108.135C514.244 108.41 514.279 108.621 514.35 108.768C514.426 108.914 514.537 109.017 514.684 109.075C514.83 109.128 515.015 109.154 515.237 109.154C515.396 109.154 515.536 109.148 515.659 109.137C515.788 109.119 515.896 109.102 515.984 109.084L515.993 110.947C515.776 111.018 515.542 111.073 515.29 111.114C515.038 111.155 514.76 111.176 514.455 111.176C513.898 111.176 513.412 111.085 512.996 110.903C512.586 110.716 512.27 110.417 512.047 110.007C511.824 109.597 511.713 109.058 511.713 108.39V99.1436ZM519.79 97.5V111H517.259V97.5H519.79ZM519.43 105.911H518.735C518.741 105.249 518.829 104.64 518.999 104.083C519.169 103.521 519.412 103.034 519.729 102.624C520.045 102.208 520.423 101.886 520.862 101.657C521.308 101.429 521.8 101.314 522.339 101.314C522.808 101.314 523.232 101.382 523.613 101.517C524 101.646 524.331 101.856 524.606 102.149C524.888 102.437 525.104 102.814 525.257 103.283C525.409 103.752 525.485 104.32 525.485 104.988V111H522.937V104.971C522.937 104.549 522.875 104.218 522.752 103.978C522.635 103.731 522.462 103.559 522.233 103.459C522.011 103.354 521.735 103.301 521.407 103.301C521.044 103.301 520.733 103.368 520.476 103.503C520.224 103.638 520.021 103.825 519.869 104.065C519.717 104.3 519.605 104.575 519.535 104.892C519.465 105.208 519.43 105.548 519.43 105.911ZM531.787 111.176C531.049 111.176 530.387 111.059 529.801 110.824C529.215 110.584 528.717 110.253 528.307 109.831C527.902 109.409 527.592 108.92 527.375 108.363C527.158 107.801 527.05 107.203 527.05 106.57V106.219C527.05 105.498 527.152 104.839 527.357 104.241C527.562 103.644 527.855 103.125 528.236 102.686C528.623 102.246 529.092 101.909 529.643 101.675C530.193 101.435 530.814 101.314 531.506 101.314C532.18 101.314 532.777 101.426 533.299 101.648C533.82 101.871 534.257 102.188 534.608 102.598C534.966 103.008 535.235 103.5 535.417 104.074C535.599 104.643 535.689 105.275 535.689 105.973V107.027H528.131V105.34H533.202V105.146C533.202 104.795 533.138 104.481 533.009 104.206C532.886 103.925 532.698 103.702 532.446 103.538C532.194 103.374 531.872 103.292 531.479 103.292C531.146 103.292 530.858 103.365 530.618 103.512C530.378 103.658 530.182 103.863 530.029 104.127C529.883 104.391 529.771 104.701 529.695 105.059C529.625 105.41 529.59 105.797 529.59 106.219V106.57C529.59 106.951 529.643 107.303 529.748 107.625C529.859 107.947 530.015 108.226 530.214 108.46C530.419 108.694 530.665 108.876 530.952 109.005C531.245 109.134 531.576 109.198 531.945 109.198C532.402 109.198 532.827 109.11 533.22 108.935C533.618 108.753 533.961 108.48 534.248 108.117L535.479 109.453C535.279 109.74 535.007 110.016 534.661 110.279C534.321 110.543 533.911 110.76 533.431 110.93C532.95 111.094 532.402 111.176 531.787 111.176ZM546.271 101.49V103.283H540.734V101.49H546.271ZM542.105 99.1436H544.637V108.135C544.637 108.41 544.672 108.621 544.742 108.768C544.818 108.914 544.93 109.017 545.076 109.075C545.223 109.128 545.407 109.154 545.63 109.154C545.788 109.154 545.929 109.148 546.052 109.137C546.181 109.119 546.289 109.102 546.377 109.084L546.386 110.947C546.169 111.018 545.935 111.073 545.683 111.114C545.431 111.155 545.152 111.176 544.848 111.176C544.291 111.176 543.805 111.085 543.389 110.903C542.979 110.716 542.662 110.417 542.439 110.007C542.217 109.597 542.105 109.058 542.105 108.39V99.1436ZM550.385 101.49V111H547.845V101.49H550.385ZM547.687 99.0117C547.687 98.6426 547.815 98.3379 548.073 98.0977C548.331 97.8574 548.677 97.7373 549.11 97.7373C549.538 97.7373 549.881 97.8574 550.139 98.0977C550.402 98.3379 550.534 98.6426 550.534 99.0117C550.534 99.3809 550.402 99.6855 550.139 99.9258C549.881 100.166 549.538 100.286 549.11 100.286C548.677 100.286 548.331 100.166 548.073 99.9258C547.815 99.6855 547.687 99.3809 547.687 99.0117ZM557.135 101.49V103.283H551.598V101.49H557.135ZM552.969 99.1436H555.5V108.135C555.5 108.41 555.535 108.621 555.605 108.768C555.682 108.914 555.793 109.017 555.939 109.075C556.086 109.128 556.271 109.154 556.493 109.154C556.651 109.154 556.792 109.148 556.915 109.137C557.044 109.119 557.152 109.102 557.24 109.084L557.249 110.947C557.032 111.018 556.798 111.073 556.546 111.114C556.294 111.155 556.016 111.176 555.711 111.176C555.154 111.176 554.668 111.085 554.252 110.903C553.842 110.716 553.525 110.417 553.303 110.007C553.08 109.597 552.969 109.058 552.969 108.39V99.1436ZM561.248 97.5V111H558.708V97.5H561.248ZM567.717 111.176C566.979 111.176 566.316 111.059 565.73 110.824C565.145 110.584 564.646 110.253 564.236 109.831C563.832 109.409 563.521 108.92 563.305 108.363C563.088 107.801 562.979 107.203 562.979 106.57V106.219C562.979 105.498 563.082 104.839 563.287 104.241C563.492 103.644 563.785 103.125 564.166 102.686C564.553 102.246 565.021 101.909 565.572 101.675C566.123 101.435 566.744 101.314 567.436 101.314C568.109 101.314 568.707 101.426 569.229 101.648C569.75 101.871 570.187 102.188 570.538 102.598C570.896 103.008 571.165 103.5 571.347 104.074C571.528 104.643 571.619 105.275 571.619 105.973V107.027H564.061V105.34H569.132V105.146C569.132 104.795 569.067 104.481 568.938 104.206C568.815 103.925 568.628 103.702 568.376 103.538C568.124 103.374 567.802 103.292 567.409 103.292C567.075 103.292 566.788 103.365 566.548 103.512C566.308 103.658 566.111 103.863 565.959 104.127C565.812 104.391 565.701 104.701 565.625 105.059C565.555 105.41 565.52 105.797 565.52 106.219V106.57C565.52 106.951 565.572 107.303 565.678 107.625C565.789 107.947 565.944 108.226 566.144 108.46C566.349 108.694 566.595 108.876 566.882 109.005C567.175 109.134 567.506 109.198 567.875 109.198C568.332 109.198 568.757 109.11 569.149 108.935C569.548 108.753 569.891 108.48 570.178 108.117L571.408 109.453C571.209 109.74 570.937 110.016 570.591 110.279C570.251 110.543 569.841 110.76 569.36 110.93C568.88 111.094 568.332 111.176 567.717 111.176Z" fill="#1A1A1A"/>
<path d="M457.178 133.336V144H455.787V133.336H457.178ZM460.606 133.336V134.493H452.366V133.336H460.606ZM463.338 132.75V144H461.983V132.75H463.338ZM463.016 139.737L462.452 139.715C462.457 139.173 462.537 138.673 462.693 138.214C462.85 137.75 463.069 137.347 463.353 137.005C463.636 136.664 463.973 136.4 464.363 136.214C464.759 136.024 465.196 135.929 465.674 135.929C466.065 135.929 466.417 135.982 466.729 136.09C467.042 136.192 467.308 136.358 467.527 136.588C467.752 136.817 467.923 137.115 468.04 137.481C468.157 137.843 468.216 138.285 468.216 138.807V144H466.854V138.792C466.854 138.377 466.792 138.045 466.67 137.796C466.548 137.542 466.37 137.359 466.136 137.247C465.901 137.13 465.613 137.071 465.271 137.071C464.935 137.071 464.627 137.142 464.349 137.284C464.075 137.425 463.838 137.621 463.638 137.87C463.443 138.119 463.289 138.404 463.177 138.727C463.069 139.044 463.016 139.381 463.016 139.737ZM471.717 136.075V144H470.354V136.075H471.717ZM470.252 133.973C470.252 133.753 470.318 133.568 470.45 133.417C470.586 133.265 470.787 133.189 471.05 133.189C471.309 133.189 471.507 133.265 471.644 133.417C471.785 133.568 471.856 133.753 471.856 133.973C471.856 134.183 471.785 134.364 471.644 134.515C471.507 134.662 471.309 134.735 471.05 134.735C470.787 134.735 470.586 134.662 470.45 134.515C470.318 134.364 470.252 134.183 470.252 133.973ZM478.506 141.898C478.506 141.703 478.462 141.522 478.375 141.356C478.292 141.185 478.118 141.031 477.854 140.895C477.596 140.753 477.205 140.631 476.683 140.528C476.243 140.436 475.845 140.326 475.489 140.199C475.137 140.072 474.837 139.918 474.588 139.737C474.344 139.557 474.156 139.344 474.024 139.1C473.892 138.856 473.826 138.57 473.826 138.243C473.826 137.931 473.895 137.635 474.031 137.357C474.173 137.079 474.371 136.832 474.625 136.617C474.883 136.402 475.193 136.234 475.555 136.112C475.916 135.99 476.319 135.929 476.763 135.929C477.398 135.929 477.94 136.041 478.389 136.266C478.838 136.49 479.183 136.791 479.422 137.167C479.661 137.538 479.781 137.95 479.781 138.404H478.426C478.426 138.185 478.36 137.972 478.228 137.767C478.101 137.557 477.913 137.384 477.664 137.247C477.42 137.11 477.12 137.042 476.763 137.042C476.387 137.042 476.082 137.101 475.848 137.218C475.618 137.33 475.45 137.474 475.342 137.65C475.24 137.826 475.188 138.011 475.188 138.207C475.188 138.353 475.213 138.485 475.262 138.602C475.315 138.714 475.408 138.819 475.54 138.917C475.672 139.01 475.857 139.098 476.097 139.181C476.336 139.264 476.641 139.347 477.012 139.43C477.662 139.576 478.196 139.752 478.616 139.957C479.036 140.162 479.349 140.414 479.554 140.711C479.759 141.009 479.861 141.371 479.861 141.795C479.861 142.142 479.788 142.459 479.642 142.748C479.5 143.036 479.292 143.285 479.019 143.495C478.75 143.7 478.428 143.861 478.052 143.978C477.681 144.09 477.264 144.146 476.8 144.146C476.102 144.146 475.511 144.022 475.027 143.773C474.544 143.524 474.178 143.202 473.929 142.806C473.68 142.411 473.555 141.993 473.555 141.554H474.917C474.937 141.925 475.044 142.22 475.24 142.44C475.435 142.655 475.674 142.809 475.958 142.901C476.241 142.989 476.521 143.033 476.8 143.033C477.171 143.033 477.481 142.984 477.73 142.887C477.984 142.789 478.177 142.655 478.309 142.484C478.44 142.313 478.506 142.118 478.506 141.898ZM486.834 136.075V144H485.472V136.075H486.834ZM485.369 133.973C485.369 133.753 485.435 133.568 485.567 133.417C485.704 133.265 485.904 133.189 486.167 133.189C486.426 133.189 486.624 133.265 486.761 133.417C486.902 133.568 486.973 133.753 486.973 133.973C486.973 134.183 486.902 134.364 486.761 134.515C486.624 134.662 486.426 134.735 486.167 134.735C485.904 134.735 485.704 134.662 485.567 134.515C485.435 134.364 485.369 134.183 485.369 133.973ZM493.624 141.898C493.624 141.703 493.58 141.522 493.492 141.356C493.409 141.185 493.235 141.031 492.972 140.895C492.713 140.753 492.322 140.631 491.8 140.528C491.36 140.436 490.962 140.326 490.606 140.199C490.254 140.072 489.954 139.918 489.705 139.737C489.461 139.557 489.273 139.344 489.141 139.1C489.009 138.856 488.943 138.57 488.943 138.243C488.943 137.931 489.012 137.635 489.148 137.357C489.29 137.079 489.488 136.832 489.742 136.617C490 136.402 490.311 136.234 490.672 136.112C491.033 135.99 491.436 135.929 491.88 135.929C492.515 135.929 493.057 136.041 493.506 136.266C493.956 136.49 494.3 136.791 494.539 137.167C494.778 137.538 494.898 137.95 494.898 138.404H493.543C493.543 138.185 493.477 137.972 493.345 137.767C493.218 137.557 493.03 137.384 492.781 137.247C492.537 137.11 492.237 137.042 491.88 137.042C491.504 137.042 491.199 137.101 490.965 137.218C490.735 137.33 490.567 137.474 490.459 137.65C490.357 137.826 490.306 138.011 490.306 138.207C490.306 138.353 490.33 138.485 490.379 138.602C490.433 138.714 490.525 138.819 490.657 138.917C490.789 139.01 490.975 139.098 491.214 139.181C491.453 139.264 491.758 139.347 492.129 139.43C492.779 139.576 493.313 139.752 493.733 139.957C494.153 140.162 494.466 140.414 494.671 140.711C494.876 141.009 494.979 141.371 494.979 141.795C494.979 142.142 494.905 142.459 494.759 142.748C494.617 143.036 494.41 143.285 494.136 143.495C493.868 143.7 493.545 143.861 493.169 143.978C492.798 144.09 492.381 144.146 491.917 144.146C491.219 144.146 490.628 144.022 490.145 143.773C489.661 143.524 489.295 143.202 489.046 142.806C488.797 142.411 488.672 141.993 488.672 141.554H490.035C490.054 141.925 490.162 142.22 490.357 142.44C490.552 142.655 490.792 142.809 491.075 142.901C491.358 142.989 491.639 143.033 491.917 143.033C492.288 143.033 492.598 142.984 492.847 142.887C493.101 142.789 493.294 142.655 493.426 142.484C493.558 142.313 493.624 142.118 493.624 141.898ZM503.768 144.146C503.216 144.146 502.715 144.054 502.266 143.868C501.822 143.678 501.438 143.412 501.116 143.07C500.799 142.728 500.555 142.323 500.384 141.854C500.213 141.385 500.127 140.873 500.127 140.316V140.008C500.127 139.364 500.223 138.79 500.413 138.287C500.604 137.779 500.862 137.35 501.189 136.998C501.517 136.646 501.888 136.38 502.303 136.2C502.718 136.019 503.147 135.929 503.592 135.929C504.158 135.929 504.646 136.026 505.057 136.222C505.472 136.417 505.811 136.69 506.075 137.042C506.338 137.389 506.534 137.799 506.661 138.272C506.788 138.741 506.851 139.254 506.851 139.811V140.418H500.933V139.312H505.496V139.21C505.477 138.858 505.403 138.517 505.276 138.185C505.154 137.853 504.959 137.579 504.69 137.364C504.422 137.149 504.056 137.042 503.592 137.042C503.284 137.042 503.001 137.108 502.742 137.24C502.483 137.367 502.261 137.557 502.076 137.811C501.89 138.065 501.746 138.375 501.644 138.741C501.541 139.107 501.49 139.53 501.49 140.008V140.316C501.49 140.692 501.541 141.046 501.644 141.378C501.751 141.705 501.905 141.993 502.105 142.242C502.31 142.491 502.557 142.687 502.845 142.828C503.138 142.97 503.47 143.041 503.841 143.041C504.319 143.041 504.725 142.943 505.057 142.748C505.389 142.552 505.679 142.291 505.928 141.964L506.749 142.616C506.578 142.875 506.36 143.121 506.097 143.355C505.833 143.59 505.508 143.78 505.123 143.927C504.742 144.073 504.29 144.146 503.768 144.146ZM509.349 136.075L511.084 138.961L512.842 136.075H514.432L511.839 139.986L514.512 144H512.945L511.114 141.026L509.283 144H507.708L510.374 139.986L507.789 136.075H509.349ZM520.547 142.645V138.565C520.547 138.253 520.484 137.982 520.357 137.752C520.235 137.518 520.049 137.337 519.8 137.21C519.551 137.083 519.244 137.02 518.877 137.02C518.536 137.02 518.235 137.079 517.977 137.196C517.723 137.313 517.522 137.467 517.376 137.657C517.234 137.848 517.164 138.053 517.164 138.272H515.809C515.809 137.989 515.882 137.708 516.028 137.43C516.175 137.152 516.385 136.9 516.658 136.676C516.937 136.446 517.269 136.266 517.654 136.134C518.045 135.997 518.479 135.929 518.958 135.929C519.534 135.929 520.042 136.026 520.481 136.222C520.926 136.417 521.272 136.712 521.521 137.108C521.775 137.499 521.902 137.989 521.902 138.58V142.271C521.902 142.535 521.924 142.816 521.968 143.114C522.017 143.412 522.088 143.668 522.181 143.883V144H520.767C520.699 143.844 520.645 143.636 520.606 143.377C520.567 143.114 520.547 142.87 520.547 142.645ZM520.782 139.195L520.796 140.147H519.427C519.041 140.147 518.697 140.179 518.394 140.243C518.091 140.301 517.837 140.392 517.632 140.514C517.427 140.636 517.271 140.79 517.164 140.975C517.056 141.156 517.002 141.368 517.002 141.612C517.002 141.861 517.059 142.088 517.171 142.293C517.283 142.499 517.452 142.662 517.676 142.784C517.906 142.901 518.187 142.96 518.519 142.96C518.934 142.96 519.3 142.872 519.617 142.696C519.935 142.521 520.186 142.306 520.372 142.052C520.562 141.798 520.665 141.551 520.679 141.312L521.258 141.964C521.224 142.169 521.131 142.396 520.979 142.645C520.828 142.894 520.625 143.133 520.372 143.363C520.123 143.587 519.825 143.775 519.478 143.927C519.136 144.073 518.75 144.146 518.321 144.146C517.784 144.146 517.312 144.042 516.907 143.832C516.507 143.622 516.194 143.341 515.97 142.989C515.75 142.633 515.64 142.235 515.64 141.795C515.64 141.371 515.723 140.997 515.889 140.675C516.055 140.348 516.294 140.077 516.607 139.862C516.919 139.642 517.295 139.476 517.735 139.364C518.174 139.251 518.665 139.195 519.207 139.195H520.782ZM525.381 137.65V144H524.019V136.075H525.308L525.381 137.65ZM525.103 139.737L524.473 139.715C524.478 139.173 524.549 138.673 524.686 138.214C524.822 137.75 525.025 137.347 525.293 137.005C525.562 136.664 525.896 136.4 526.297 136.214C526.697 136.024 527.161 135.929 527.688 135.929C528.06 135.929 528.401 135.982 528.714 136.09C529.026 136.192 529.297 136.356 529.527 136.581C529.756 136.805 529.935 137.093 530.062 137.445C530.188 137.796 530.252 138.221 530.252 138.719V144H528.897V138.785C528.897 138.37 528.826 138.038 528.685 137.789C528.548 137.54 528.353 137.359 528.099 137.247C527.845 137.13 527.547 137.071 527.205 137.071C526.805 137.071 526.47 137.142 526.202 137.284C525.933 137.425 525.718 137.621 525.557 137.87C525.396 138.119 525.279 138.404 525.206 138.727C525.137 139.044 525.103 139.381 525.103 139.737ZM530.237 138.99L529.329 139.269C529.334 138.834 529.405 138.417 529.542 138.016C529.683 137.616 529.886 137.259 530.149 136.947C530.418 136.634 530.748 136.388 531.138 136.207C531.529 136.021 531.976 135.929 532.479 135.929C532.903 135.929 533.279 135.985 533.606 136.097C533.938 136.209 534.217 136.383 534.441 136.617C534.671 136.847 534.844 137.142 534.961 137.503C535.079 137.865 535.137 138.294 535.137 138.792V144H533.775V138.778C533.775 138.333 533.704 137.989 533.562 137.745C533.426 137.496 533.23 137.323 532.977 137.225C532.728 137.123 532.43 137.071 532.083 137.071C531.785 137.071 531.521 137.123 531.292 137.225C531.062 137.328 530.87 137.469 530.713 137.65C530.557 137.826 530.438 138.028 530.354 138.258C530.276 138.487 530.237 138.731 530.237 138.99ZM538.543 137.599V147.047H537.181V136.075H538.426L538.543 137.599ZM543.882 139.972V140.125C543.882 140.702 543.814 141.236 543.677 141.729C543.541 142.218 543.34 142.643 543.077 143.004C542.818 143.365 542.498 143.646 542.117 143.846C541.736 144.046 541.299 144.146 540.806 144.146C540.303 144.146 539.859 144.063 539.473 143.897C539.087 143.731 538.76 143.49 538.492 143.172C538.223 142.855 538.008 142.474 537.847 142.03C537.691 141.585 537.583 141.085 537.525 140.528V139.708C537.583 139.122 537.693 138.597 537.854 138.133C538.016 137.669 538.228 137.274 538.492 136.947C538.76 136.615 539.085 136.363 539.466 136.192C539.847 136.017 540.286 135.929 540.784 135.929C541.282 135.929 541.724 136.026 542.11 136.222C542.496 136.412 542.82 136.686 543.084 137.042C543.348 137.398 543.545 137.826 543.677 138.324C543.814 138.817 543.882 139.366 543.882 139.972ZM542.52 140.125V139.972C542.52 139.576 542.479 139.205 542.396 138.858C542.312 138.507 542.183 138.199 542.007 137.936C541.836 137.667 541.617 137.457 541.348 137.306C541.08 137.149 540.76 137.071 540.389 137.071C540.047 137.071 539.749 137.13 539.495 137.247C539.246 137.364 539.034 137.523 538.858 137.723C538.682 137.918 538.538 138.143 538.426 138.397C538.318 138.646 538.238 138.905 538.184 139.173V141.07C538.282 141.412 538.418 141.734 538.594 142.037C538.77 142.335 539.004 142.577 539.297 142.762C539.59 142.943 539.959 143.033 540.403 143.033C540.77 143.033 541.084 142.958 541.348 142.806C541.617 142.65 541.836 142.438 542.007 142.169C542.183 141.9 542.312 141.593 542.396 141.246C542.479 140.895 542.52 140.521 542.52 140.125ZM547.083 132.75V144H545.721V132.75H547.083ZM552.547 144.146C551.995 144.146 551.495 144.054 551.045 143.868C550.601 143.678 550.218 143.412 549.896 143.07C549.578 142.728 549.334 142.323 549.163 141.854C548.992 141.385 548.907 140.873 548.907 140.316V140.008C548.907 139.364 549.002 138.79 549.192 138.287C549.383 137.779 549.642 137.35 549.969 136.998C550.296 136.646 550.667 136.38 551.082 136.2C551.497 136.019 551.927 135.929 552.371 135.929C552.938 135.929 553.426 136.026 553.836 136.222C554.251 136.417 554.59 136.69 554.854 137.042C555.118 137.389 555.313 137.799 555.44 138.272C555.567 138.741 555.63 139.254 555.63 139.811V140.418H549.712V139.312H554.275V139.21C554.256 138.858 554.183 138.517 554.056 138.185C553.934 137.853 553.738 137.579 553.47 137.364C553.201 137.149 552.835 137.042 552.371 137.042C552.063 137.042 551.78 137.108 551.521 137.24C551.263 137.367 551.041 137.557 550.855 137.811C550.669 138.065 550.525 138.375 550.423 138.741C550.32 139.107 550.269 139.53 550.269 140.008V140.316C550.269 140.692 550.32 141.046 550.423 141.378C550.53 141.705 550.684 141.993 550.884 142.242C551.089 142.491 551.336 142.687 551.624 142.828C551.917 142.97 552.249 143.041 552.62 143.041C553.099 143.041 553.504 142.943 553.836 142.748C554.168 142.552 554.458 142.291 554.708 141.964L555.528 142.616C555.357 142.875 555.14 143.121 554.876 143.355C554.612 143.59 554.288 143.78 553.902 143.927C553.521 144.073 553.069 144.146 552.547 144.146ZM564.251 136.075V137.115H559.966V136.075H564.251ZM561.417 134.149H562.771V142.037C562.771 142.306 562.813 142.508 562.896 142.645C562.979 142.782 563.086 142.872 563.218 142.916C563.35 142.96 563.492 142.982 563.643 142.982C563.755 142.982 563.873 142.972 563.995 142.953C564.122 142.928 564.217 142.909 564.28 142.894L564.288 144C564.18 144.034 564.039 144.066 563.863 144.095C563.692 144.129 563.484 144.146 563.24 144.146C562.908 144.146 562.603 144.081 562.325 143.949C562.046 143.817 561.824 143.597 561.658 143.29C561.497 142.977 561.417 142.557 561.417 142.03V134.149ZM567.195 132.75V144H565.84V132.75H567.195ZM566.873 139.737L566.309 139.715C566.314 139.173 566.395 138.673 566.551 138.214C566.707 137.75 566.927 137.347 567.21 137.005C567.493 136.664 567.83 136.4 568.221 136.214C568.616 136.024 569.053 135.929 569.532 135.929C569.922 135.929 570.274 135.982 570.586 136.09C570.899 136.192 571.165 136.358 571.385 136.588C571.609 136.817 571.78 137.115 571.897 137.481C572.015 137.843 572.073 138.285 572.073 138.807V144H570.711V138.792C570.711 138.377 570.65 138.045 570.528 137.796C570.406 137.542 570.228 137.359 569.993 137.247C569.759 137.13 569.471 137.071 569.129 137.071C568.792 137.071 568.484 137.142 568.206 137.284C567.933 137.425 567.696 137.621 567.496 137.87C567.3 138.119 567.146 138.404 567.034 138.727C566.927 139.044 566.873 139.381 566.873 139.737ZM577.391 144.146C576.839 144.146 576.338 144.054 575.889 143.868C575.445 143.678 575.062 143.412 574.739 143.07C574.422 142.728 574.178 142.323 574.007 141.854C573.836 141.385 573.75 140.873 573.75 140.316V140.008C573.75 139.364 573.846 138.79 574.036 138.287C574.227 137.779 574.485 137.35 574.812 136.998C575.14 136.646 575.511 136.38 575.926 136.2C576.341 136.019 576.771 135.929 577.215 135.929C577.781 135.929 578.27 136.026 578.68 136.222C579.095 136.417 579.434 136.69 579.698 137.042C579.961 137.389 580.157 137.799 580.284 138.272C580.411 138.741 580.474 139.254 580.474 139.811V140.418H574.556V139.312H579.119V139.21C579.1 138.858 579.026 138.517 578.899 138.185C578.777 137.853 578.582 137.579 578.313 137.364C578.045 137.149 577.679 137.042 577.215 137.042C576.907 137.042 576.624 137.108 576.365 137.24C576.106 137.367 575.884 137.557 575.699 137.811C575.513 138.065 575.369 138.375 575.267 138.741C575.164 139.107 575.113 139.53 575.113 140.008V140.316C575.113 140.692 575.164 141.046 575.267 141.378C575.374 141.705 575.528 141.993 575.728 142.242C575.933 142.491 576.18 142.687 576.468 142.828C576.761 142.97 577.093 143.041 577.464 143.041C577.942 143.041 578.348 142.943 578.68 142.748C579.012 142.552 579.302 142.291 579.551 141.964L580.372 142.616C580.201 142.875 579.983 143.121 579.72 143.355C579.456 143.59 579.131 143.78 578.746 143.927C578.365 144.073 577.913 144.146 577.391 144.146ZM590.772 142.462V132.75H592.134V144H590.889L590.772 142.462ZM585.44 140.125V139.972C585.44 139.366 585.513 138.817 585.66 138.324C585.811 137.826 586.023 137.398 586.297 137.042C586.575 136.686 586.905 136.412 587.286 136.222C587.671 136.026 588.101 135.929 588.575 135.929C589.073 135.929 589.507 136.017 589.878 136.192C590.254 136.363 590.572 136.615 590.831 136.947C591.094 137.274 591.302 137.669 591.453 138.133C591.604 138.597 591.709 139.122 591.768 139.708V140.382C591.714 140.963 591.609 141.485 591.453 141.949C591.302 142.413 591.094 142.809 590.831 143.136C590.572 143.463 590.254 143.714 589.878 143.89C589.502 144.061 589.063 144.146 588.56 144.146C588.096 144.146 587.671 144.046 587.286 143.846C586.905 143.646 586.575 143.365 586.297 143.004C586.023 142.643 585.811 142.218 585.66 141.729C585.513 141.236 585.44 140.702 585.44 140.125ZM586.802 139.972V140.125C586.802 140.521 586.841 140.892 586.919 141.239C587.002 141.585 587.129 141.891 587.3 142.154C587.471 142.418 587.688 142.625 587.952 142.777C588.216 142.923 588.531 142.997 588.897 142.997C589.346 142.997 589.715 142.901 590.003 142.711C590.296 142.521 590.53 142.269 590.706 141.957C590.882 141.644 591.019 141.305 591.116 140.938V139.173C591.058 138.905 590.972 138.646 590.86 138.397C590.752 138.143 590.611 137.918 590.435 137.723C590.264 137.523 590.052 137.364 589.798 137.247C589.549 137.13 589.253 137.071 588.912 137.071C588.541 137.071 588.221 137.149 587.952 137.306C587.688 137.457 587.471 137.667 587.3 137.936C587.129 138.199 587.002 138.507 586.919 138.858C586.841 139.205 586.802 139.576 586.802 139.972ZM597.532 144.146C596.98 144.146 596.48 144.054 596.031 143.868C595.586 143.678 595.203 143.412 594.881 143.07C594.563 142.728 594.319 142.323 594.148 141.854C593.978 141.385 593.892 140.873 593.892 140.316V140.008C593.892 139.364 593.987 138.79 594.178 138.287C594.368 137.779 594.627 137.35 594.954 136.998C595.281 136.646 595.652 136.38 596.067 136.2C596.482 136.019 596.912 135.929 597.356 135.929C597.923 135.929 598.411 136.026 598.821 136.222C599.236 136.417 599.576 136.69 599.839 137.042C600.103 137.389 600.298 137.799 600.425 138.272C600.552 138.741 600.616 139.254 600.616 139.811V140.418H594.698V139.312H599.261V139.21C599.241 138.858 599.168 138.517 599.041 138.185C598.919 137.853 598.724 137.579 598.455 137.364C598.187 137.149 597.82 137.042 597.356 137.042C597.049 137.042 596.766 137.108 596.507 137.24C596.248 137.367 596.026 137.557 595.84 137.811C595.655 138.065 595.511 138.375 595.408 138.741C595.306 139.107 595.254 139.53 595.254 140.008V140.316C595.254 140.692 595.306 141.046 595.408 141.378C595.516 141.705 595.669 141.993 595.87 142.242C596.075 142.491 596.321 142.687 596.609 142.828C596.902 142.97 597.234 143.041 597.605 143.041C598.084 143.041 598.489 142.943 598.821 142.748C599.153 142.552 599.444 142.291 599.693 141.964L600.513 142.616C600.342 142.875 600.125 143.121 599.861 143.355C599.598 143.59 599.273 143.78 598.887 143.927C598.506 144.073 598.055 144.146 597.532 144.146ZM606.812 141.898C606.812 141.703 606.768 141.522 606.68 141.356C606.597 141.185 606.424 141.031 606.16 140.895C605.901 140.753 605.511 140.631 604.988 140.528C604.549 140.436 604.151 140.326 603.794 140.199C603.443 140.072 603.143 139.918 602.894 139.737C602.649 139.557 602.461 139.344 602.33 139.1C602.198 138.856 602.132 138.57 602.132 138.243C602.132 137.931 602.2 137.635 602.337 137.357C602.479 137.079 602.676 136.832 602.93 136.617C603.189 136.402 603.499 136.234 603.86 136.112C604.222 135.99 604.625 135.929 605.069 135.929C605.704 135.929 606.246 136.041 606.695 136.266C607.144 136.49 607.488 136.791 607.728 137.167C607.967 137.538 608.086 137.95 608.086 138.404H606.731C606.731 138.185 606.666 137.972 606.534 137.767C606.407 137.557 606.219 137.384 605.97 137.247C605.726 137.11 605.425 137.042 605.069 137.042C604.693 137.042 604.388 137.101 604.153 137.218C603.924 137.33 603.755 137.474 603.648 137.65C603.545 137.826 603.494 138.011 603.494 138.207C603.494 138.353 603.519 138.485 603.567 138.602C603.621 138.714 603.714 138.819 603.846 138.917C603.978 139.01 604.163 139.098 604.402 139.181C604.642 139.264 604.947 139.347 605.318 139.43C605.967 139.576 606.502 139.752 606.922 139.957C607.342 140.162 607.654 140.414 607.859 140.711C608.064 141.009 608.167 141.371 608.167 141.795C608.167 142.142 608.094 142.459 607.947 142.748C607.806 143.036 607.598 143.285 607.325 143.495C607.056 143.7 606.734 143.861 606.358 143.978C605.987 144.09 605.569 144.146 605.105 144.146C604.407 144.146 603.816 144.022 603.333 143.773C602.85 143.524 602.483 143.202 602.234 142.806C601.985 142.411 601.861 141.993 601.861 141.554H603.223C603.243 141.925 603.35 142.22 603.545 142.44C603.741 142.655 603.98 142.809 604.263 142.901C604.546 142.989 604.827 143.033 605.105 143.033C605.477 143.033 605.787 142.984 606.036 142.887C606.29 142.789 606.482 142.655 606.614 142.484C606.746 142.313 606.812 142.118 606.812 141.898ZM613.118 143.033C613.44 143.033 613.738 142.967 614.012 142.835C614.285 142.704 614.51 142.523 614.686 142.293C614.861 142.059 614.961 141.793 614.986 141.495H616.275C616.25 141.964 616.092 142.401 615.799 142.806C615.511 143.207 615.132 143.531 614.664 143.78C614.195 144.024 613.68 144.146 613.118 144.146C612.522 144.146 612.002 144.042 611.558 143.832C611.119 143.622 610.752 143.333 610.459 142.967C610.171 142.601 609.954 142.181 609.808 141.708C609.666 141.229 609.595 140.724 609.595 140.191V139.884C609.595 139.352 609.666 138.849 609.808 138.375C609.954 137.896 610.171 137.474 610.459 137.108C610.752 136.742 611.119 136.454 611.558 136.244C612.002 136.034 612.522 135.929 613.118 135.929C613.738 135.929 614.28 136.056 614.744 136.31C615.208 136.559 615.572 136.9 615.835 137.335C616.104 137.765 616.25 138.253 616.275 138.8H614.986C614.961 138.473 614.869 138.177 614.708 137.914C614.551 137.65 614.336 137.44 614.063 137.284C613.794 137.123 613.479 137.042 613.118 137.042C612.703 137.042 612.354 137.125 612.071 137.291C611.792 137.452 611.57 137.672 611.404 137.95C611.243 138.224 611.126 138.529 611.053 138.866C610.984 139.198 610.95 139.537 610.95 139.884V140.191C610.95 140.538 610.984 140.88 611.053 141.217C611.121 141.554 611.236 141.859 611.397 142.132C611.563 142.406 611.785 142.625 612.063 142.792C612.347 142.953 612.698 143.033 613.118 143.033ZM619.153 137.32V144H617.798V136.075H619.117L619.153 137.32ZM621.629 136.031L621.622 137.291C621.509 137.267 621.402 137.252 621.299 137.247C621.202 137.237 621.089 137.232 620.962 137.232C620.65 137.232 620.374 137.281 620.135 137.379C619.896 137.477 619.693 137.613 619.527 137.789C619.361 137.965 619.229 138.175 619.131 138.419C619.039 138.658 618.978 138.922 618.948 139.21L618.567 139.43C618.567 138.951 618.614 138.502 618.707 138.082C618.804 137.662 618.953 137.291 619.153 136.969C619.354 136.642 619.607 136.388 619.915 136.207C620.228 136.021 620.599 135.929 621.028 135.929C621.126 135.929 621.238 135.941 621.365 135.965C621.492 135.985 621.58 136.007 621.629 136.031ZM624.354 136.075V144H622.991V136.075H624.354ZM622.889 133.973C622.889 133.753 622.955 133.568 623.086 133.417C623.223 133.265 623.423 133.189 623.687 133.189C623.946 133.189 624.144 133.265 624.28 133.417C624.422 133.568 624.493 133.753 624.493 133.973C624.493 134.183 624.422 134.364 624.28 134.515C624.144 134.662 623.946 134.735 623.687 134.735C623.423 134.735 623.223 134.662 623.086 134.515C622.955 134.364 622.889 134.183 622.889 133.973ZM627.884 137.599V147.047H626.521V136.075H627.767L627.884 137.599ZM633.223 139.972V140.125C633.223 140.702 633.155 141.236 633.018 141.729C632.881 142.218 632.681 142.643 632.417 143.004C632.159 143.365 631.839 143.646 631.458 143.846C631.077 144.046 630.64 144.146 630.147 144.146C629.644 144.146 629.2 144.063 628.814 143.897C628.428 143.731 628.101 143.49 627.833 143.172C627.564 142.855 627.349 142.474 627.188 142.03C627.032 141.585 626.924 141.085 626.866 140.528V139.708C626.924 139.122 627.034 138.597 627.195 138.133C627.356 137.669 627.569 137.274 627.833 136.947C628.101 136.615 628.426 136.363 628.807 136.192C629.188 136.017 629.627 135.929 630.125 135.929C630.623 135.929 631.065 136.026 631.451 136.222C631.836 136.412 632.161 136.686 632.425 137.042C632.688 137.398 632.886 137.826 633.018 138.324C633.155 138.817 633.223 139.366 633.223 139.972ZM631.861 140.125V139.972C631.861 139.576 631.819 139.205 631.736 138.858C631.653 138.507 631.524 138.199 631.348 137.936C631.177 137.667 630.958 137.457 630.689 137.306C630.42 137.149 630.101 137.071 629.729 137.071C629.388 137.071 629.09 137.13 628.836 137.247C628.587 137.364 628.375 137.523 628.199 137.723C628.023 137.918 627.879 138.143 627.767 138.397C627.659 138.646 627.579 138.905 627.525 139.173V141.07C627.623 141.412 627.759 141.734 627.935 142.037C628.111 142.335 628.345 142.577 628.638 142.762C628.931 142.943 629.3 143.033 629.744 143.033C630.11 143.033 630.425 142.958 630.689 142.806C630.958 142.65 631.177 142.438 631.348 142.169C631.524 141.9 631.653 141.593 631.736 141.246C631.819 140.895 631.861 140.521 631.861 140.125ZM638.27 136.075V137.115H633.985V136.075H638.27ZM635.435 134.149H636.79V142.037C636.79 142.306 636.832 142.508 636.915 142.645C636.998 142.782 637.105 142.872 637.237 142.916C637.369 142.96 637.51 142.982 637.662 142.982C637.774 142.982 637.891 142.972 638.013 142.953C638.14 142.928 638.235 142.909 638.299 142.894L638.306 144C638.199 144.034 638.057 144.066 637.881 144.095C637.71 144.129 637.503 144.146 637.259 144.146C636.927 144.146 636.622 144.081 636.343 143.949C636.065 143.817 635.843 143.597 635.677 143.29C635.516 142.977 635.435 142.557 635.435 142.03V134.149ZM641.331 136.075V144H639.969V136.075H641.331ZM639.866 133.973C639.866 133.753 639.932 133.568 640.064 133.417C640.201 133.265 640.401 133.189 640.665 133.189C640.923 133.189 641.121 133.265 641.258 133.417C641.399 133.568 641.47 133.753 641.47 133.973C641.47 134.183 641.399 134.364 641.258 134.515C641.121 134.662 640.923 134.735 640.665 134.735C640.401 134.735 640.201 134.662 640.064 134.515C639.932 134.364 639.866 134.183 639.866 133.973ZM643.147 140.125V139.957C643.147 139.386 643.23 138.856 643.396 138.368C643.562 137.875 643.802 137.447 644.114 137.086C644.427 136.72 644.805 136.437 645.25 136.236C645.694 136.031 646.192 135.929 646.744 135.929C647.3 135.929 647.801 136.031 648.245 136.236C648.694 136.437 649.075 136.72 649.388 137.086C649.705 137.447 649.947 137.875 650.113 138.368C650.279 138.856 650.362 139.386 650.362 139.957V140.125C650.362 140.697 650.279 141.227 650.113 141.715C649.947 142.203 649.705 142.63 649.388 142.997C649.075 143.358 648.697 143.641 648.252 143.846C647.813 144.046 647.315 144.146 646.758 144.146C646.202 144.146 645.701 144.046 645.257 143.846C644.812 143.641 644.432 143.358 644.114 142.997C643.802 142.63 643.562 142.203 643.396 141.715C643.23 141.227 643.147 140.697 643.147 140.125ZM644.502 139.957V140.125C644.502 140.521 644.549 140.895 644.642 141.246C644.734 141.593 644.874 141.9 645.059 142.169C645.25 142.438 645.486 142.65 645.77 142.806C646.053 142.958 646.382 143.033 646.758 143.033C647.129 143.033 647.454 142.958 647.732 142.806C648.016 142.65 648.25 142.438 648.436 142.169C648.621 141.9 648.76 141.593 648.853 141.246C648.951 140.895 649 140.521 649 140.125V139.957C649 139.566 648.951 139.198 648.853 138.851C648.76 138.5 648.619 138.189 648.428 137.921C648.243 137.647 648.008 137.433 647.725 137.276C647.447 137.12 647.12 137.042 646.744 137.042C646.373 137.042 646.045 137.12 645.762 137.276C645.484 137.433 645.25 137.647 645.059 137.921C644.874 138.189 644.734 138.5 644.642 138.851C644.549 139.198 644.502 139.566 644.502 139.957ZM653.416 137.767V144H652.061V136.075H653.343L653.416 137.767ZM653.094 139.737L652.53 139.715C652.535 139.173 652.615 138.673 652.771 138.214C652.928 137.75 653.147 137.347 653.431 137.005C653.714 136.664 654.051 136.4 654.441 136.214C654.837 136.024 655.274 135.929 655.752 135.929C656.143 135.929 656.495 135.982 656.807 136.09C657.12 136.192 657.386 136.358 657.605 136.588C657.83 136.817 658.001 137.115 658.118 137.481C658.235 137.843 658.294 138.285 658.294 138.807V144H656.932V138.792C656.932 138.377 656.871 138.045 656.749 137.796C656.626 137.542 656.448 137.359 656.214 137.247C655.979 137.13 655.691 137.071 655.35 137.071C655.013 137.071 654.705 137.142 654.427 137.284C654.153 137.425 653.917 137.621 653.716 137.87C653.521 138.119 653.367 138.404 653.255 138.727C653.147 139.044 653.094 139.381 653.094 139.737ZM666.094 144H664.739V135.24C664.739 134.669 664.842 134.188 665.047 133.797C665.257 133.402 665.557 133.104 665.948 132.904C666.338 132.699 666.802 132.596 667.339 132.596C667.496 132.596 667.652 132.606 667.808 132.625C667.969 132.645 668.125 132.674 668.277 132.713L668.204 133.819C668.101 133.795 667.984 133.778 667.852 133.768C667.725 133.758 667.598 133.753 667.471 133.753C667.183 133.753 666.934 133.812 666.724 133.929C666.519 134.042 666.363 134.208 666.255 134.427C666.148 134.647 666.094 134.918 666.094 135.24V144ZM667.779 136.075V137.115H663.487V136.075H667.779ZM668.929 140.125V139.957C668.929 139.386 669.012 138.856 669.178 138.368C669.344 137.875 669.583 137.447 669.896 137.086C670.208 136.72 670.586 136.437 671.031 136.236C671.475 136.031 671.973 135.929 672.525 135.929C673.082 135.929 673.582 136.031 674.026 136.236C674.476 136.437 674.856 136.72 675.169 137.086C675.486 137.447 675.728 137.875 675.894 138.368C676.06 138.856 676.143 139.386 676.143 139.957V140.125C676.143 140.697 676.06 141.227 675.894 141.715C675.728 142.203 675.486 142.63 675.169 142.997C674.856 143.358 674.478 143.641 674.034 143.846C673.594 144.046 673.096 144.146 672.54 144.146C671.983 144.146 671.482 144.046 671.038 143.846C670.594 143.641 670.213 143.358 669.896 142.997C669.583 142.63 669.344 142.203 669.178 141.715C669.012 141.227 668.929 140.697 668.929 140.125ZM670.284 139.957V140.125C670.284 140.521 670.33 140.895 670.423 141.246C670.516 141.593 670.655 141.9 670.84 142.169C671.031 142.438 671.268 142.65 671.551 142.806C671.834 142.958 672.164 143.033 672.54 143.033C672.911 143.033 673.235 142.958 673.514 142.806C673.797 142.65 674.031 142.438 674.217 142.169C674.402 141.9 674.542 141.593 674.634 141.246C674.732 140.895 674.781 140.521 674.781 140.125V139.957C674.781 139.566 674.732 139.198 674.634 138.851C674.542 138.5 674.4 138.189 674.209 137.921C674.024 137.647 673.79 137.433 673.506 137.276C673.228 137.12 672.901 137.042 672.525 137.042C672.154 137.042 671.827 137.12 671.543 137.276C671.265 137.433 671.031 137.647 670.84 137.921C670.655 138.189 670.516 138.5 670.423 138.851C670.33 139.198 670.284 139.566 670.284 139.957ZM679.197 137.32V144H677.842V136.075H679.161L679.197 137.32ZM681.673 136.031L681.666 137.291C681.553 137.267 681.446 137.252 681.343 137.247C681.246 137.237 681.133 137.232 681.006 137.232C680.694 137.232 680.418 137.281 680.179 137.379C679.939 137.477 679.737 137.613 679.571 137.789C679.405 137.965 679.273 138.175 679.175 138.419C679.083 138.658 679.021 138.922 678.992 139.21L678.611 139.43C678.611 138.951 678.658 138.502 678.75 138.082C678.848 137.662 678.997 137.291 679.197 136.969C679.397 136.642 679.651 136.388 679.959 136.207C680.271 136.021 680.643 135.929 681.072 135.929C681.17 135.929 681.282 135.941 681.409 135.965C681.536 135.985 681.624 136.007 681.673 136.031ZM688.667 144H687.312V135.24C687.312 134.669 687.415 134.188 687.62 133.797C687.83 133.402 688.13 133.104 688.521 132.904C688.912 132.699 689.375 132.596 689.913 132.596C690.069 132.596 690.225 132.606 690.381 132.625C690.542 132.645 690.699 132.674 690.85 132.713L690.777 133.819C690.674 133.795 690.557 133.778 690.425 133.768C690.298 133.758 690.171 133.753 690.044 133.753C689.756 133.753 689.507 133.812 689.297 133.929C689.092 134.042 688.936 134.208 688.829 134.427C688.721 134.647 688.667 134.918 688.667 135.24V144ZM690.352 136.075V137.115H686.06V136.075H690.352ZM693.333 136.075V144H691.971V136.075H693.333ZM691.868 133.973C691.868 133.753 691.934 133.568 692.066 133.417C692.203 133.265 692.403 133.189 692.667 133.189C692.925 133.189 693.123 133.265 693.26 133.417C693.401 133.568 693.472 133.753 693.472 133.973C693.472 134.183 693.401 134.364 693.26 134.515C693.123 134.662 692.925 134.735 692.667 134.735C692.403 134.735 692.203 134.662 692.066 134.515C691.934 134.364 691.868 134.183 691.868 133.973ZM698.797 144.146C698.245 144.146 697.745 144.054 697.295 143.868C696.851 143.678 696.468 143.412 696.146 143.07C695.828 142.728 695.584 142.323 695.413 141.854C695.242 141.385 695.157 140.873 695.157 140.316V140.008C695.157 139.364 695.252 138.79 695.442 138.287C695.633 137.779 695.892 137.35 696.219 136.998C696.546 136.646 696.917 136.38 697.332 136.2C697.747 136.019 698.177 135.929 698.621 135.929C699.188 135.929 699.676 136.026 700.086 136.222C700.501 136.417 700.84 136.69 701.104 137.042C701.368 137.389 701.563 137.799 701.69 138.272C701.817 138.741 701.88 139.254 701.88 139.811V140.418H695.962V139.312H700.525V139.21C700.506 138.858 700.433 138.517 700.306 138.185C700.184 137.853 699.988 137.579 699.72 137.364C699.451 137.149 699.085 137.042 698.621 137.042C698.313 137.042 698.03 137.108 697.771 137.24C697.513 137.367 697.291 137.557 697.105 137.811C696.919 138.065 696.775 138.375 696.673 138.741C696.57 139.107 696.519 139.53 696.519 140.008V140.316C696.519 140.692 696.57 141.046 696.673 141.378C696.78 141.705 696.934 141.993 697.134 142.242C697.339 142.491 697.586 142.687 697.874 142.828C698.167 142.97 698.499 143.041 698.87 143.041C699.349 143.041 699.754 142.943 700.086 142.748C700.418 142.552 700.708 142.291 700.958 141.964L701.778 142.616C701.607 142.875 701.39 143.121 701.126 143.355C700.862 143.59 700.538 143.78 700.152 143.927C699.771 144.073 699.319 144.146 698.797 144.146ZM704.935 132.75V144H703.572V132.75H704.935ZM712.105 142.462V132.75H713.467V144H712.222L712.105 142.462ZM706.773 140.125V139.972C706.773 139.366 706.846 138.817 706.993 138.324C707.144 137.826 707.356 137.398 707.63 137.042C707.908 136.686 708.238 136.412 708.619 136.222C709.004 136.026 709.434 135.929 709.908 135.929C710.406 135.929 710.84 136.017 711.211 136.192C711.587 136.363 711.905 136.615 712.164 136.947C712.427 137.274 712.635 137.669 712.786 138.133C712.938 138.597 713.042 139.122 713.101 139.708V140.382C713.047 140.963 712.942 141.485 712.786 141.949C712.635 142.413 712.427 142.809 712.164 143.136C711.905 143.463 711.587 143.714 711.211 143.89C710.835 144.061 710.396 144.146 709.893 144.146C709.429 144.146 709.004 144.046 708.619 143.846C708.238 143.646 707.908 143.365 707.63 143.004C707.356 142.643 707.144 142.218 706.993 141.729C706.846 141.236 706.773 140.702 706.773 140.125ZM708.135 139.972V140.125C708.135 140.521 708.174 140.892 708.252 141.239C708.335 141.585 708.462 141.891 708.633 142.154C708.804 142.418 709.021 142.625 709.285 142.777C709.549 142.923 709.864 142.997 710.23 142.997C710.679 142.997 711.048 142.901 711.336 142.711C711.629 142.521 711.863 142.269 712.039 141.957C712.215 141.644 712.352 141.305 712.449 140.938V139.173C712.391 138.905 712.305 138.646 712.193 138.397C712.085 138.143 711.944 137.918 711.768 137.723C711.597 137.523 711.385 137.364 711.131 137.247C710.882 137.13 710.586 137.071 710.245 137.071C709.874 137.071 709.554 137.149 709.285 137.306C709.021 137.457 708.804 137.667 708.633 137.936C708.462 138.199 708.335 138.507 708.252 138.858C708.174 139.205 708.135 139.576 708.135 139.972ZM720.77 132.75V144H719.407V132.75H720.77ZM724.417 136.075V144H723.055V136.075H724.417ZM722.952 133.973C722.952 133.753 723.018 133.568 723.15 133.417C723.287 133.265 723.487 133.189 723.75 133.189C724.009 133.189 724.207 133.265 724.344 133.417C724.485 133.568 724.556 133.753 724.556 133.973C724.556 134.183 724.485 134.364 724.344 134.515C724.207 134.662 724.009 134.735 723.75 134.735C723.487 134.735 723.287 134.662 723.15 134.515C723.018 134.364 722.952 134.183 722.952 133.973ZM731.207 141.898C731.207 141.703 731.163 141.522 731.075 141.356C730.992 141.185 730.818 141.031 730.555 140.895C730.296 140.753 729.905 140.631 729.383 140.528C728.943 140.436 728.545 140.326 728.189 140.199C727.837 140.072 727.537 139.918 727.288 139.737C727.044 139.557 726.856 139.344 726.724 139.1C726.592 138.856 726.526 138.57 726.526 138.243C726.526 137.931 726.595 137.635 726.731 137.357C726.873 137.079 727.071 136.832 727.325 136.617C727.583 136.402 727.894 136.234 728.255 136.112C728.616 135.99 729.019 135.929 729.463 135.929C730.098 135.929 730.64 136.041 731.089 136.266C731.539 136.49 731.883 136.791 732.122 137.167C732.361 137.538 732.481 137.95 732.481 138.404H731.126C731.126 138.185 731.06 137.972 730.928 137.767C730.801 137.557 730.613 137.384 730.364 137.247C730.12 137.11 729.82 137.042 729.463 137.042C729.087 137.042 728.782 137.101 728.548 137.218C728.318 137.33 728.15 137.474 728.042 137.65C727.94 137.826 727.889 138.011 727.889 138.207C727.889 138.353 727.913 138.485 727.962 138.602C728.016 138.714 728.108 138.819 728.24 138.917C728.372 139.01 728.558 139.098 728.797 139.181C729.036 139.264 729.341 139.347 729.712 139.43C730.362 139.576 730.896 139.752 731.316 139.957C731.736 140.162 732.049 140.414 732.254 140.711C732.459 141.009 732.562 141.371 732.562 141.795C732.562 142.142 732.488 142.459 732.342 142.748C732.2 143.036 731.993 143.285 731.719 143.495C731.451 143.7 731.128 143.861 730.752 143.978C730.381 144.09 729.964 144.146 729.5 144.146C728.802 144.146 728.211 144.022 727.728 143.773C727.244 143.524 726.878 143.202 726.629 142.806C726.38 142.411 726.255 141.993 726.255 141.554H727.618C727.637 141.925 727.745 142.22 727.94 142.44C728.135 142.655 728.375 142.809 728.658 142.901C728.941 142.989 729.222 143.033 729.5 143.033C729.871 143.033 730.181 142.984 730.43 142.887C730.684 142.789 730.877 142.655 731.009 142.484C731.141 142.313 731.207 142.118 731.207 141.898ZM737.659 136.075V137.115H733.375V136.075H737.659ZM734.825 134.149H736.18V142.037C736.18 142.306 736.221 142.508 736.304 142.645C736.387 142.782 736.495 142.872 736.626 142.916C736.758 142.96 736.9 142.982 737.051 142.982C737.164 142.982 737.281 142.972 737.403 142.953C737.53 142.928 737.625 142.909 737.688 142.894L737.696 144C737.588 144.034 737.447 144.066 737.271 144.095C737.1 144.129 736.893 144.146 736.648 144.146C736.316 144.146 736.011 144.081 735.733 143.949C735.455 143.817 735.232 143.597 735.066 143.29C734.905 142.977 734.825 142.557 734.825 142.03V134.149ZM739.271 143.282C739.271 143.053 739.341 142.86 739.483 142.704C739.629 142.542 739.839 142.462 740.113 142.462C740.386 142.462 740.594 142.542 740.735 142.704C740.882 142.86 740.955 143.053 740.955 143.282C740.955 143.507 740.882 143.697 740.735 143.854C740.594 144.01 740.386 144.088 740.113 144.088C739.839 144.088 739.629 144.01 739.483 143.854C739.341 143.697 739.271 143.507 739.271 143.282Z" fill="#505050"/>
<path d="M459.764 206.542V208H454.41V206.542H459.764ZM454.922 197.336V208H453.084V197.336H454.922ZM465.477 206.411V202.631C465.477 202.348 465.425 202.104 465.323 201.899C465.22 201.694 465.064 201.535 464.854 201.423C464.649 201.311 464.39 201.254 464.078 201.254C463.79 201.254 463.541 201.303 463.331 201.401C463.121 201.499 462.957 201.63 462.84 201.796C462.723 201.962 462.664 202.15 462.664 202.36H460.906C460.906 202.048 460.982 201.745 461.133 201.452C461.285 201.159 461.504 200.898 461.792 200.668C462.081 200.439 462.425 200.258 462.825 200.126C463.226 199.995 463.675 199.929 464.173 199.929C464.769 199.929 465.296 200.029 465.755 200.229C466.219 200.429 466.583 200.732 466.846 201.137C467.115 201.538 467.249 202.041 467.249 202.646V206.169C467.249 206.53 467.273 206.855 467.322 207.143C467.376 207.426 467.452 207.673 467.549 207.883V208H465.74C465.657 207.81 465.591 207.568 465.542 207.275C465.499 206.977 465.477 206.689 465.477 206.411ZM465.733 203.181L465.748 204.272H464.48C464.153 204.272 463.865 204.304 463.616 204.367C463.367 204.426 463.16 204.514 462.994 204.631C462.828 204.748 462.703 204.89 462.62 205.056C462.537 205.222 462.496 205.41 462.496 205.62C462.496 205.83 462.544 206.022 462.642 206.198C462.74 206.369 462.881 206.503 463.067 206.601C463.257 206.699 463.487 206.748 463.755 206.748C464.117 206.748 464.432 206.674 464.7 206.528C464.974 206.376 465.188 206.193 465.345 205.979C465.501 205.759 465.584 205.551 465.594 205.356L466.165 206.14C466.106 206.34 466.006 206.555 465.865 206.784C465.723 207.014 465.538 207.233 465.308 207.443C465.083 207.648 464.812 207.817 464.495 207.949C464.183 208.081 463.821 208.146 463.411 208.146C462.894 208.146 462.432 208.044 462.027 207.839C461.622 207.629 461.304 207.348 461.075 206.997C460.845 206.64 460.73 206.237 460.73 205.788C460.73 205.368 460.809 204.997 460.965 204.675C461.126 204.348 461.36 204.074 461.668 203.854C461.98 203.635 462.361 203.469 462.811 203.356C463.26 203.239 463.772 203.181 464.349 203.181H465.733ZM469.102 196.75H470.867V206.308L470.699 208H469.102V196.75ZM476.038 203.964V204.118C476.038 204.704 475.972 205.244 475.84 205.737C475.713 206.225 475.518 206.65 475.254 207.011C474.996 207.373 474.673 207.653 474.288 207.854C473.907 208.049 473.465 208.146 472.962 208.146C472.469 208.146 472.039 208.054 471.673 207.868C471.307 207.683 470.999 207.419 470.75 207.077C470.506 206.735 470.308 206.328 470.157 205.854C470.005 205.38 469.898 204.858 469.834 204.287V203.796C469.898 203.22 470.005 202.697 470.157 202.229C470.308 201.755 470.506 201.347 470.75 201.005C470.999 200.659 471.304 200.393 471.666 200.207C472.032 200.021 472.459 199.929 472.947 199.929C473.455 199.929 473.902 200.026 474.288 200.222C474.678 200.417 475.003 200.695 475.262 201.057C475.521 201.413 475.713 201.838 475.84 202.331C475.972 202.824 476.038 203.369 476.038 203.964ZM474.273 204.118V203.964C474.273 203.608 474.244 203.273 474.185 202.961C474.126 202.644 474.029 202.365 473.892 202.126C473.76 201.887 473.58 201.699 473.35 201.562C473.125 201.42 472.845 201.35 472.508 201.35C472.195 201.35 471.927 201.403 471.702 201.511C471.478 201.618 471.29 201.765 471.138 201.95C470.987 202.136 470.867 202.351 470.779 202.595C470.696 202.839 470.64 203.103 470.611 203.386V204.711C470.655 205.078 470.748 205.415 470.889 205.722C471.036 206.025 471.241 206.269 471.504 206.455C471.768 206.635 472.107 206.726 472.522 206.726C472.85 206.726 473.125 206.66 473.35 206.528C473.575 206.396 473.753 206.213 473.885 205.979C474.021 205.739 474.119 205.461 474.178 205.144C474.241 204.826 474.273 204.484 474.273 204.118ZM481.026 208.146C480.44 208.146 479.91 208.051 479.437 207.861C478.968 207.666 478.567 207.395 478.235 207.048C477.908 206.701 477.657 206.293 477.481 205.825C477.305 205.356 477.217 204.851 477.217 204.309V204.016C477.217 203.396 477.308 202.834 477.488 202.331C477.669 201.828 477.92 201.398 478.243 201.042C478.565 200.681 478.946 200.405 479.385 200.214C479.825 200.024 480.301 199.929 480.813 199.929C481.38 199.929 481.875 200.024 482.3 200.214C482.725 200.405 483.077 200.673 483.355 201.02C483.638 201.362 483.848 201.77 483.985 202.243C484.126 202.717 484.197 203.239 484.197 203.811V204.565H478.074V203.298H482.454V203.159C482.444 202.841 482.381 202.543 482.264 202.265C482.151 201.987 481.978 201.762 481.744 201.591C481.509 201.42 481.197 201.335 480.806 201.335C480.513 201.335 480.252 201.398 480.022 201.525C479.798 201.647 479.61 201.826 479.458 202.06C479.307 202.294 479.19 202.578 479.107 202.91C479.029 203.237 478.99 203.605 478.99 204.016V204.309C478.99 204.655 479.036 204.978 479.129 205.275C479.227 205.568 479.368 205.825 479.554 206.044C479.739 206.264 479.964 206.438 480.228 206.564C480.491 206.687 480.792 206.748 481.128 206.748C481.553 206.748 481.932 206.662 482.264 206.491C482.596 206.32 482.884 206.079 483.128 205.766L484.058 206.667C483.887 206.916 483.665 207.155 483.392 207.385C483.118 207.609 482.784 207.792 482.388 207.934C481.998 208.076 481.543 208.146 481.026 208.146ZM487.464 196.75V208H485.691V196.75H487.464Z" fill="#505050"/>
<rect x="791" y="193" width="36" height="20" rx="10" fill="#E6E6E6"/>
<path d="M808 203C808 206.866 804.866 210 801 210C797.134 210 794 206.866 794 203C794 199.134 797.134 196 801 196C804.866 196 808 199.134 808 203Z" fill="white"/>
<path d="M428 172H851V170H428V172Z" fill="#E6E6E6" mask="url(#path-5-inside-1_8680_90907)"/>
<path d="M459.764 270.542V272H454.41V270.542H459.764ZM454.922 261.336V272H453.084V261.336H454.922ZM465.477 270.411V266.631C465.477 266.348 465.425 266.104 465.323 265.899C465.22 265.694 465.064 265.535 464.854 265.423C464.649 265.311 464.39 265.254 464.078 265.254C463.79 265.254 463.541 265.303 463.331 265.401C463.121 265.499 462.957 265.63 462.84 265.796C462.723 265.962 462.664 266.15 462.664 266.36H460.906C460.906 266.048 460.982 265.745 461.133 265.452C461.285 265.159 461.504 264.898 461.792 264.668C462.081 264.439 462.425 264.258 462.825 264.126C463.226 263.995 463.675 263.929 464.173 263.929C464.769 263.929 465.296 264.029 465.755 264.229C466.219 264.429 466.583 264.732 466.846 265.137C467.115 265.538 467.249 266.041 467.249 266.646V270.169C467.249 270.53 467.273 270.855 467.322 271.143C467.376 271.426 467.452 271.673 467.549 271.883V272H465.74C465.657 271.81 465.591 271.568 465.542 271.275C465.499 270.977 465.477 270.689 465.477 270.411ZM465.733 267.181L465.748 268.272H464.48C464.153 268.272 463.865 268.304 463.616 268.367C463.367 268.426 463.16 268.514 462.994 268.631C462.828 268.748 462.703 268.89 462.62 269.056C462.537 269.222 462.496 269.41 462.496 269.62C462.496 269.83 462.544 270.022 462.642 270.198C462.74 270.369 462.881 270.503 463.067 270.601C463.257 270.699 463.487 270.748 463.755 270.748C464.117 270.748 464.432 270.674 464.7 270.528C464.974 270.376 465.188 270.193 465.345 269.979C465.501 269.759 465.584 269.551 465.594 269.356L466.165 270.14C466.106 270.34 466.006 270.555 465.865 270.784C465.723 271.014 465.538 271.233 465.308 271.443C465.083 271.648 464.812 271.817 464.495 271.949C464.183 272.081 463.821 272.146 463.411 272.146C462.894 272.146 462.432 272.044 462.027 271.839C461.622 271.629 461.304 271.348 461.075 270.997C460.845 270.64 460.73 270.237 460.73 269.788C460.73 269.368 460.809 268.997 460.965 268.675C461.126 268.348 461.36 268.074 461.668 267.854C461.98 267.635 462.361 267.469 462.811 267.356C463.26 267.239 463.772 267.181 464.349 267.181H465.733ZM469.102 260.75H470.867V270.308L470.699 272H469.102V260.75ZM476.038 267.964V268.118C476.038 268.704 475.972 269.244 475.84 269.737C475.713 270.225 475.518 270.65 475.254 271.011C474.996 271.373 474.673 271.653 474.288 271.854C473.907 272.049 473.465 272.146 472.962 272.146C472.469 272.146 472.039 272.054 471.673 271.868C471.307 271.683 470.999 271.419 470.75 271.077C470.506 270.735 470.308 270.328 470.157 269.854C470.005 269.38 469.898 268.858 469.834 268.287V267.796C469.898 267.22 470.005 266.697 470.157 266.229C470.308 265.755 470.506 265.347 470.75 265.005C470.999 264.659 471.304 264.393 471.666 264.207C472.032 264.021 472.459 263.929 472.947 263.929C473.455 263.929 473.902 264.026 474.288 264.222C474.678 264.417 475.003 264.695 475.262 265.057C475.521 265.413 475.713 265.838 475.84 266.331C475.972 266.824 476.038 267.369 476.038 267.964ZM474.273 268.118V267.964C474.273 267.608 474.244 267.273 474.185 266.961C474.126 266.644 474.029 266.365 473.892 266.126C473.76 265.887 473.58 265.699 473.35 265.562C473.125 265.42 472.845 265.35 472.508 265.35C472.195 265.35 471.927 265.403 471.702 265.511C471.478 265.618 471.29 265.765 471.138 265.95C470.987 266.136 470.867 266.351 470.779 266.595C470.696 266.839 470.64 267.103 470.611 267.386V268.711C470.655 269.078 470.748 269.415 470.889 269.722C471.036 270.025 471.241 270.269 471.504 270.455C471.768 270.635 472.107 270.726 472.522 270.726C472.85 270.726 473.125 270.66 473.35 270.528C473.575 270.396 473.753 270.213 473.885 269.979C474.021 269.739 474.119 269.461 474.178 269.144C474.241 268.826 474.273 268.484 474.273 268.118ZM481.026 272.146C480.44 272.146 479.91 272.051 479.437 271.861C478.968 271.666 478.567 271.395 478.235 271.048C477.908 270.701 477.657 270.293 477.481 269.825C477.305 269.356 477.217 268.851 477.217 268.309V268.016C477.217 267.396 477.308 266.834 477.488 266.331C477.669 265.828 477.92 265.398 478.243 265.042C478.565 264.681 478.946 264.405 479.385 264.214C479.825 264.024 480.301 263.929 480.813 263.929C481.38 263.929 481.875 264.024 482.3 264.214C482.725 264.405 483.077 264.673 483.355 265.02C483.638 265.362 483.848 265.77 483.985 266.243C484.126 266.717 484.197 267.239 484.197 267.811V268.565H478.074V267.298H482.454V267.159C482.444 266.841 482.381 266.543 482.264 266.265C482.151 265.987 481.978 265.762 481.744 265.591C481.509 265.42 481.197 265.335 480.806 265.335C480.513 265.335 480.252 265.398 480.022 265.525C479.798 265.647 479.61 265.826 479.458 266.06C479.307 266.294 479.19 266.578 479.107 266.91C479.029 267.237 478.99 267.605 478.99 268.016V268.309C478.99 268.655 479.036 268.978 479.129 269.275C479.227 269.568 479.368 269.825 479.554 270.044C479.739 270.264 479.964 270.438 480.228 270.564C480.491 270.687 480.792 270.748 481.128 270.748C481.553 270.748 481.932 270.662 482.264 270.491C482.596 270.32 482.884 270.079 483.128 269.766L484.058 270.667C483.887 270.916 483.665 271.155 483.392 271.385C483.118 271.609 482.784 271.792 482.388 271.934C481.998 272.076 481.543 272.146 481.026 272.146ZM487.464 260.75V272H485.691V260.75H487.464Z" fill="#505050"/>
<rect x="791" y="257" width="36" height="20" rx="10" fill="#E6E6E6"/>
<path d="M808 267C808 270.866 804.866 274 801 274C797.134 274 794 270.866 794 267C794 263.134 797.134 260 801 260C804.866 260 808 263.134 808 267Z" fill="white"/>
<path d="M428 236H851V234H428V236Z" fill="#E6E6E6" mask="url(#path-10-inside-2_8680_90907)"/>
<path d="M459.764 334.542V336H454.41V334.542H459.764ZM454.922 325.336V336H453.084V325.336H454.922ZM465.477 334.411V330.631C465.477 330.348 465.425 330.104 465.323 329.899C465.22 329.694 465.064 329.535 464.854 329.423C464.649 329.311 464.39 329.254 464.078 329.254C463.79 329.254 463.541 329.303 463.331 329.401C463.121 329.499 462.957 329.63 462.84 329.796C462.723 329.962 462.664 330.15 462.664 330.36H460.906C460.906 330.048 460.982 329.745 461.133 329.452C461.285 329.159 461.504 328.898 461.792 328.668C462.081 328.439 462.425 328.258 462.825 328.126C463.226 327.995 463.675 327.929 464.173 327.929C464.769 327.929 465.296 328.029 465.755 328.229C466.219 328.429 466.583 328.732 466.846 329.137C467.115 329.538 467.249 330.041 467.249 330.646V334.169C467.249 334.53 467.273 334.855 467.322 335.143C467.376 335.426 467.452 335.673 467.549 335.883V336H465.74C465.657 335.81 465.591 335.568 465.542 335.275C465.499 334.977 465.477 334.689 465.477 334.411ZM465.733 331.181L465.748 332.272H464.48C464.153 332.272 463.865 332.304 463.616 332.367C463.367 332.426 463.16 332.514 462.994 332.631C462.828 332.748 462.703 332.89 462.62 333.056C462.537 333.222 462.496 333.41 462.496 333.62C462.496 333.83 462.544 334.022 462.642 334.198C462.74 334.369 462.881 334.503 463.067 334.601C463.257 334.699 463.487 334.748 463.755 334.748C464.117 334.748 464.432 334.674 464.7 334.528C464.974 334.376 465.188 334.193 465.345 333.979C465.501 333.759 465.584 333.551 465.594 333.356L466.165 334.14C466.106 334.34 466.006 334.555 465.865 334.784C465.723 335.014 465.538 335.233 465.308 335.443C465.083 335.648 464.812 335.817 464.495 335.949C464.183 336.081 463.821 336.146 463.411 336.146C462.894 336.146 462.432 336.044 462.027 335.839C461.622 335.629 461.304 335.348 461.075 334.997C460.845 334.64 460.73 334.237 460.73 333.788C460.73 333.368 460.809 332.997 460.965 332.675C461.126 332.348 461.36 332.074 461.668 331.854C461.98 331.635 462.361 331.469 462.811 331.356C463.26 331.239 463.772 331.181 464.349 331.181H465.733ZM469.102 324.75H470.867V334.308L470.699 336H469.102V324.75ZM476.038 331.964V332.118C476.038 332.704 475.972 333.244 475.84 333.737C475.713 334.225 475.518 334.65 475.254 335.011C474.996 335.373 474.673 335.653 474.288 335.854C473.907 336.049 473.465 336.146 472.962 336.146C472.469 336.146 472.039 336.054 471.673 335.868C471.307 335.683 470.999 335.419 470.75 335.077C470.506 334.735 470.308 334.328 470.157 333.854C470.005 333.38 469.898 332.858 469.834 332.287V331.796C469.898 331.22 470.005 330.697 470.157 330.229C470.308 329.755 470.506 329.347 470.75 329.005C470.999 328.659 471.304 328.393 471.666 328.207C472.032 328.021 472.459 327.929 472.947 327.929C473.455 327.929 473.902 328.026 474.288 328.222C474.678 328.417 475.003 328.695 475.262 329.057C475.521 329.413 475.713 329.838 475.84 330.331C475.972 330.824 476.038 331.369 476.038 331.964ZM474.273 332.118V331.964C474.273 331.608 474.244 331.273 474.185 330.961C474.126 330.644 474.029 330.365 473.892 330.126C473.76 329.887 473.58 329.699 473.35 329.562C473.125 329.42 472.845 329.35 472.508 329.35C472.195 329.35 471.927 329.403 471.702 329.511C471.478 329.618 471.29 329.765 471.138 329.95C470.987 330.136 470.867 330.351 470.779 330.595C470.696 330.839 470.64 331.103 470.611 331.386V332.711C470.655 333.078 470.748 333.415 470.889 333.722C471.036 334.025 471.241 334.269 471.504 334.455C471.768 334.635 472.107 334.726 472.522 334.726C472.85 334.726 473.125 334.66 473.35 334.528C473.575 334.396 473.753 334.213 473.885 333.979C474.021 333.739 474.119 333.461 474.178 333.144C474.241 332.826 474.273 332.484 474.273 332.118ZM481.026 336.146C480.44 336.146 479.91 336.051 479.437 335.861C478.968 335.666 478.567 335.395 478.235 335.048C477.908 334.701 477.657 334.293 477.481 333.825C477.305 333.356 477.217 332.851 477.217 332.309V332.016C477.217 331.396 477.308 330.834 477.488 330.331C477.669 329.828 477.92 329.398 478.243 329.042C478.565 328.681 478.946 328.405 479.385 328.214C479.825 328.024 480.301 327.929 480.813 327.929C481.38 327.929 481.875 328.024 482.3 328.214C482.725 328.405 483.077 328.673 483.355 329.02C483.638 329.362 483.848 329.77 483.985 330.243C484.126 330.717 484.197 331.239 484.197 331.811V332.565H478.074V331.298H482.454V331.159C482.444 330.841 482.381 330.543 482.264 330.265C482.151 329.987 481.978 329.762 481.744 329.591C481.509 329.42 481.197 329.335 480.806 329.335C480.513 329.335 480.252 329.398 480.022 329.525C479.798 329.647 479.61 329.826 479.458 330.06C479.307 330.294 479.19 330.578 479.107 330.91C479.029 331.237 478.99 331.605 478.99 332.016V332.309C478.99 332.655 479.036 332.978 479.129 333.275C479.227 333.568 479.368 333.825 479.554 334.044C479.739 334.264 479.964 334.438 480.228 334.564C480.491 334.687 480.792 334.748 481.128 334.748C481.553 334.748 481.932 334.662 482.264 334.491C482.596 334.32 482.884 334.079 483.128 333.766L484.058 334.667C483.887 334.916 483.665 335.155 483.392 335.385C483.118 335.609 482.784 335.792 482.388 335.934C481.998 336.076 481.543 336.146 481.026 336.146ZM487.464 324.75V336H485.691V324.75H487.464Z" fill="#505050"/>
<rect x="791" y="321" width="36" height="20" rx="10" fill="#E6E6E6"/>
<path d="M808 331C808 334.866 804.866 338 801 338C797.134 338 794 334.866 794 331C794 327.134 797.134 324 801 324C804.866 324 808 327.134 808 331Z" fill="white"/>
<path d="M428 300H851V298H428V300Z" fill="#E6E6E6" mask="url(#path-15-inside-3_8680_90907)"/>
<path d="M459.764 398.542V400H454.41V398.542H459.764ZM454.922 389.336V400H453.084V389.336H454.922ZM465.477 398.411V394.631C465.477 394.348 465.425 394.104 465.323 393.899C465.22 393.694 465.064 393.535 464.854 393.423C464.649 393.311 464.39 393.254 464.078 393.254C463.79 393.254 463.541 393.303 463.331 393.401C463.121 393.499 462.957 393.63 462.84 393.796C462.723 393.962 462.664 394.15 462.664 394.36H460.906C460.906 394.048 460.982 393.745 461.133 393.452C461.285 393.159 461.504 392.898 461.792 392.668C462.081 392.439 462.425 392.258 462.825 392.126C463.226 391.995 463.675 391.929 464.173 391.929C464.769 391.929 465.296 392.029 465.755 392.229C466.219 392.429 466.583 392.732 466.846 393.137C467.115 393.538 467.249 394.041 467.249 394.646V398.169C467.249 398.53 467.273 398.855 467.322 399.143C467.376 399.426 467.452 399.673 467.549 399.883V400H465.74C465.657 399.81 465.591 399.568 465.542 399.275C465.499 398.977 465.477 398.689 465.477 398.411ZM465.733 395.181L465.748 396.272H464.48C464.153 396.272 463.865 396.304 463.616 396.367C463.367 396.426 463.16 396.514 462.994 396.631C462.828 396.748 462.703 396.89 462.62 397.056C462.537 397.222 462.496 397.41 462.496 397.62C462.496 397.83 462.544 398.022 462.642 398.198C462.74 398.369 462.881 398.503 463.067 398.601C463.257 398.699 463.487 398.748 463.755 398.748C464.117 398.748 464.432 398.674 464.7 398.528C464.974 398.376 465.188 398.193 465.345 397.979C465.501 397.759 465.584 397.551 465.594 397.356L466.165 398.14C466.106 398.34 466.006 398.555 465.865 398.784C465.723 399.014 465.538 399.233 465.308 399.443C465.083 399.648 464.812 399.817 464.495 399.949C464.183 400.081 463.821 400.146 463.411 400.146C462.894 400.146 462.432 400.044 462.027 399.839C461.622 399.629 461.304 399.348 461.075 398.997C460.845 398.64 460.73 398.237 460.73 397.788C460.73 397.368 460.809 396.997 460.965 396.675C461.126 396.348 461.36 396.074 461.668 395.854C461.98 395.635 462.361 395.469 462.811 395.356C463.26 395.239 463.772 395.181 464.349 395.181H465.733ZM469.102 388.75H470.867V398.308L470.699 400H469.102V388.75ZM476.038 395.964V396.118C476.038 396.704 475.972 397.244 475.84 397.737C475.713 398.225 475.518 398.65 475.254 399.011C474.996 399.373 474.673 399.653 474.288 399.854C473.907 400.049 473.465 400.146 472.962 400.146C472.469 400.146 472.039 400.054 471.673 399.868C471.307 399.683 470.999 399.419 470.75 399.077C470.506 398.735 470.308 398.328 470.157 397.854C470.005 397.38 469.898 396.858 469.834 396.287V395.796C469.898 395.22 470.005 394.697 470.157 394.229C470.308 393.755 470.506 393.347 470.75 393.005C470.999 392.659 471.304 392.393 471.666 392.207C472.032 392.021 472.459 391.929 472.947 391.929C473.455 391.929 473.902 392.026 474.288 392.222C474.678 392.417 475.003 392.695 475.262 393.057C475.521 393.413 475.713 393.838 475.84 394.331C475.972 394.824 476.038 395.369 476.038 395.964ZM474.273 396.118V395.964C474.273 395.608 474.244 395.273 474.185 394.961C474.126 394.644 474.029 394.365 473.892 394.126C473.76 393.887 473.58 393.699 473.35 393.562C473.125 393.42 472.845 393.35 472.508 393.35C472.195 393.35 471.927 393.403 471.702 393.511C471.478 393.618 471.29 393.765 471.138 393.95C470.987 394.136 470.867 394.351 470.779 394.595C470.696 394.839 470.64 395.103 470.611 395.386V396.711C470.655 397.078 470.748 397.415 470.889 397.722C471.036 398.025 471.241 398.269 471.504 398.455C471.768 398.635 472.107 398.726 472.522 398.726C472.85 398.726 473.125 398.66 473.35 398.528C473.575 398.396 473.753 398.213 473.885 397.979C474.021 397.739 474.119 397.461 474.178 397.144C474.241 396.826 474.273 396.484 474.273 396.118ZM481.026 400.146C480.44 400.146 479.91 400.051 479.437 399.861C478.968 399.666 478.567 399.395 478.235 399.048C477.908 398.701 477.657 398.293 477.481 397.825C477.305 397.356 477.217 396.851 477.217 396.309V396.016C477.217 395.396 477.308 394.834 477.488 394.331C477.669 393.828 477.92 393.398 478.243 393.042C478.565 392.681 478.946 392.405 479.385 392.214C479.825 392.024 480.301 391.929 480.813 391.929C481.38 391.929 481.875 392.024 482.3 392.214C482.725 392.405 483.077 392.673 483.355 393.02C483.638 393.362 483.848 393.77 483.985 394.243C484.126 394.717 484.197 395.239 484.197 395.811V396.565H478.074V395.298H482.454V395.159C482.444 394.841 482.381 394.543 482.264 394.265C482.151 393.987 481.978 393.762 481.744 393.591C481.509 393.42 481.197 393.335 480.806 393.335C480.513 393.335 480.252 393.398 480.022 393.525C479.798 393.647 479.61 393.826 479.458 394.06C479.307 394.294 479.19 394.578 479.107 394.91C479.029 395.237 478.99 395.605 478.99 396.016V396.309C478.99 396.655 479.036 396.978 479.129 397.275C479.227 397.568 479.368 397.825 479.554 398.044C479.739 398.264 479.964 398.438 480.228 398.564C480.491 398.687 480.792 398.748 481.128 398.748C481.553 398.748 481.932 398.662 482.264 398.491C482.596 398.32 482.884 398.079 483.128 397.766L484.058 398.667C483.887 398.916 483.665 399.155 483.392 399.385C483.118 399.609 482.784 399.792 482.388 399.934C481.998 400.076 481.543 400.146 481.026 400.146ZM487.464 388.75V400H485.691V388.75H487.464Z" fill="#505050"/>
<rect x="791" y="385" width="36" height="20" rx="10" fill="#E6E6E6"/>
<path d="M808 395C808 398.866 804.866 402 801 402C797.134 402 794 398.866 794 395C794 391.134 797.134 388 801 388C804.866 388 808 391.134 808 395Z" fill="white"/>
<path d="M428 364H851V362H428V364Z" fill="#E6E6E6" mask="url(#path-20-inside-4_8680_90907)"/>
<rect x="428.5" y="71.5" width="422" height="355" rx="7.5" stroke="#E6E6E6"/>
<rect x="356" y="115" width="24" height="24" rx="12" fill="#286EF1"/>
<path d="M369.181 121.726V131H367.651V123.542L365.385 124.31V123.046L368.997 121.726H369.181Z" fill="white"/>
<line x1="380" y1="126.5" x2="428" y2="126.5" stroke="#0059FF"/>
<rect x="356" y="250" width="24" height="24" rx="12" fill="#286EF1"/>
<path d="M366.8 260.687H367.714C368.07 260.687 368.364 260.626 368.597 260.503C368.834 260.38 369.009 260.211 369.124 259.995C369.238 259.779 369.295 259.532 369.295 259.252C369.295 258.96 369.242 258.711 369.136 258.503C369.035 258.292 368.878 258.129 368.667 258.015C368.459 257.9 368.195 257.843 367.873 257.843C367.602 257.843 367.357 257.898 367.137 258.008C366.921 258.114 366.75 258.266 366.623 258.465C366.496 258.66 366.432 258.893 366.432 259.164H364.896C364.896 258.673 365.025 258.237 365.283 257.856C365.541 257.475 365.893 257.177 366.337 256.961C366.785 256.741 367.289 256.631 367.848 256.631C368.444 256.631 368.965 256.73 369.409 256.929C369.858 257.124 370.207 257.416 370.457 257.805C370.706 258.194 370.831 258.677 370.831 259.252C370.831 259.515 370.77 259.781 370.647 260.052C370.524 260.323 370.342 260.571 370.101 260.795C369.86 261.015 369.559 261.195 369.2 261.334C368.84 261.47 368.423 261.538 367.949 261.538H366.8V260.687ZM366.8 261.88V261.042H367.949C368.491 261.042 368.952 261.106 369.333 261.233C369.718 261.36 370.031 261.535 370.272 261.76C370.514 261.98 370.689 262.232 370.799 262.515C370.914 262.799 370.971 263.099 370.971 263.417C370.971 263.848 370.892 264.233 370.736 264.572C370.583 264.906 370.366 265.19 370.082 265.422C369.799 265.655 369.466 265.831 369.085 265.949C368.709 266.068 368.298 266.127 367.854 266.127C367.456 266.127 367.075 266.072 366.711 265.962C366.347 265.852 366.022 265.689 365.734 265.473C365.446 265.253 365.218 264.98 365.048 264.654C364.883 264.324 364.801 263.943 364.801 263.512H366.331C366.331 263.787 366.394 264.03 366.521 264.242C366.652 264.449 366.834 264.612 367.067 264.73C367.304 264.849 367.575 264.908 367.879 264.908C368.201 264.908 368.478 264.851 368.711 264.737C368.944 264.623 369.121 264.453 369.244 264.229C369.371 264.005 369.435 263.734 369.435 263.417C369.435 263.057 369.365 262.765 369.225 262.541C369.085 262.316 368.887 262.151 368.628 262.045C368.37 261.935 368.066 261.88 367.714 261.88H366.8Z" fill="white"/>
<line x1="380" y1="261.5" x2="428" y2="261.5" stroke="#0059FF"/>
</svg>
