<svg width="800" height="264" viewBox="0 0 800 264" fill="none" xmlns="http://www.w3.org/2000/svg">
<rect width="800" height="264" rx="4" fill="#F8F8F8"/>
<g clip-path="url(#clip0_1708_35232)">
<rect x="160" y="40" width="244" height="185" rx="4" fill="white"/>
<path d="M160 43C160 41.3431 161.343 40 163 40H401C402.657 40 404 41.3431 404 43V80H160V43Z" fill="white"/>
<path d="M182.921 62.3047C182.921 62.0557 182.882 61.8359 182.804 61.6455C182.731 61.4502 182.599 61.2744 182.409 61.1182C182.223 60.9619 181.964 60.813 181.632 60.6714C181.305 60.5298 180.89 60.3857 180.387 60.2393C179.86 60.083 179.384 59.9097 178.959 59.7192C178.534 59.5239 178.17 59.3018 177.868 59.0527C177.565 58.8037 177.333 58.5181 177.172 58.1958C177.011 57.8735 176.93 57.5049 176.93 57.0898C176.93 56.6748 177.016 56.2915 177.187 55.9399C177.357 55.5884 177.602 55.2832 177.919 55.0244C178.241 54.7607 178.625 54.5557 179.069 54.4092C179.513 54.2627 180.009 54.1895 180.556 54.1895C181.356 54.1895 182.035 54.3433 182.592 54.6509C183.153 54.9536 183.581 55.3516 183.874 55.8447C184.167 56.333 184.313 56.8555 184.313 57.4121H182.907C182.907 57.0117 182.821 56.6577 182.65 56.3501C182.479 56.0376 182.221 55.7935 181.874 55.6177C181.527 55.437 181.088 55.3467 180.556 55.3467C180.053 55.3467 179.638 55.4224 179.311 55.5737C178.983 55.7251 178.739 55.9302 178.578 56.189C178.422 56.4478 178.344 56.7432 178.344 57.0752C178.344 57.2998 178.39 57.5049 178.483 57.6904C178.581 57.8711 178.729 58.0396 178.93 58.1958C179.135 58.3521 179.394 58.4961 179.706 58.6279C180.023 58.7598 180.402 58.8867 180.841 59.0088C181.447 59.1797 181.969 59.3701 182.409 59.5801C182.848 59.79 183.209 60.0269 183.493 60.2905C183.781 60.5493 183.993 60.8447 184.13 61.1768C184.271 61.5039 184.342 61.875 184.342 62.29C184.342 62.7246 184.254 63.1177 184.079 63.4692C183.903 63.8208 183.651 64.1211 183.324 64.3701C182.997 64.6191 182.604 64.812 182.145 64.9487C181.691 65.0806 181.183 65.1465 180.622 65.1465C180.128 65.1465 179.643 65.0781 179.164 64.9414C178.69 64.8047 178.258 64.5996 177.868 64.3262C177.482 64.0527 177.172 63.7158 176.938 63.3154C176.708 62.9102 176.593 62.4414 176.593 61.9092H178C178 62.2754 178.07 62.5903 178.212 62.854C178.354 63.1128 178.546 63.3276 178.791 63.4985C179.04 63.6694 179.32 63.7964 179.633 63.8794C179.95 63.9575 180.28 63.9966 180.622 63.9966C181.115 63.9966 181.532 63.9282 181.874 63.7915C182.216 63.6548 182.475 63.4595 182.65 63.2056C182.831 62.9517 182.921 62.6514 182.921 62.3047ZM189.228 65.1465C188.676 65.1465 188.175 65.0537 187.726 64.8682C187.282 64.6777 186.898 64.4116 186.576 64.0698C186.259 63.728 186.015 63.3228 185.844 62.854C185.673 62.3853 185.587 61.8726 185.587 61.3159V61.0083C185.587 60.3638 185.683 59.79 185.873 59.2871C186.063 58.7793 186.322 58.3496 186.649 57.998C186.977 57.6465 187.348 57.3804 187.763 57.1997C188.178 57.019 188.607 56.9287 189.052 56.9287C189.618 56.9287 190.106 57.0264 190.517 57.2217C190.932 57.417 191.271 57.6904 191.535 58.042C191.798 58.3887 191.994 58.7988 192.121 59.2725C192.248 59.7412 192.311 60.2539 192.311 60.8105V61.4185H186.393V60.3125H190.956V60.21C190.937 59.8584 190.863 59.5166 190.736 59.1846C190.614 58.8525 190.419 58.5791 190.15 58.3643C189.882 58.1494 189.516 58.042 189.052 58.042C188.744 58.042 188.461 58.1079 188.202 58.2397C187.943 58.3667 187.721 58.5571 187.536 58.811C187.35 59.0649 187.206 59.375 187.104 59.7412C187.001 60.1074 186.95 60.5298 186.95 61.0083V61.3159C186.95 61.6919 187.001 62.0459 187.104 62.3779C187.211 62.7051 187.365 62.9932 187.565 63.2422C187.77 63.4912 188.017 63.6865 188.305 63.8281C188.598 63.9697 188.93 64.0405 189.301 64.0405C189.779 64.0405 190.185 63.9429 190.517 63.7476C190.849 63.5522 191.139 63.291 191.388 62.9639L192.208 63.6157C192.038 63.8745 191.82 64.1211 191.557 64.3555C191.293 64.5898 190.968 64.7803 190.583 64.9268C190.202 65.0732 189.75 65.1465 189.228 65.1465ZM195.365 53.75V65H194.003V53.75H195.365ZM200.829 65.1465C200.277 65.1465 199.777 65.0537 199.328 64.8682C198.883 64.6777 198.5 64.4116 198.178 64.0698C197.86 63.728 197.616 63.3228 197.445 62.854C197.274 62.3853 197.189 61.8726 197.189 61.3159V61.0083C197.189 60.3638 197.284 59.79 197.475 59.2871C197.665 58.7793 197.924 58.3496 198.251 57.998C198.578 57.6465 198.949 57.3804 199.364 57.1997C199.779 57.019 200.209 56.9287 200.653 56.9287C201.22 56.9287 201.708 57.0264 202.118 57.2217C202.533 57.417 202.873 57.6904 203.136 58.042C203.4 58.3887 203.595 58.7988 203.722 59.2725C203.849 59.7412 203.913 60.2539 203.913 60.8105V61.4185H197.995V60.3125H202.558V60.21C202.538 59.8584 202.465 59.5166 202.338 59.1846C202.216 58.8525 202.021 58.5791 201.752 58.3643C201.483 58.1494 201.117 58.042 200.653 58.042C200.346 58.042 200.062 58.1079 199.804 58.2397C199.545 58.3667 199.323 58.5571 199.137 58.811C198.952 59.0649 198.808 59.375 198.705 59.7412C198.603 60.1074 198.551 60.5298 198.551 61.0083V61.3159C198.551 61.6919 198.603 62.0459 198.705 62.3779C198.812 62.7051 198.966 62.9932 199.167 63.2422C199.372 63.4912 199.618 63.6865 199.906 63.8281C200.199 63.9697 200.531 64.0405 200.902 64.0405C201.381 64.0405 201.786 63.9429 202.118 63.7476C202.45 63.5522 202.741 63.291 202.99 62.9639L203.81 63.6157C203.639 63.8745 203.422 64.1211 203.158 64.3555C202.895 64.5898 202.57 64.7803 202.184 64.9268C201.803 65.0732 201.352 65.1465 200.829 65.1465ZM208.666 64.0332C208.988 64.0332 209.286 63.9673 209.56 63.8354C209.833 63.7036 210.058 63.5229 210.233 63.2935C210.409 63.0591 210.509 62.793 210.534 62.4951H211.823C211.798 62.9639 211.64 63.4009 211.347 63.8062C211.059 64.2065 210.68 64.5312 210.211 64.7803C209.743 65.0244 209.228 65.1465 208.666 65.1465C208.07 65.1465 207.55 65.0415 207.106 64.8315C206.667 64.6216 206.3 64.3335 206.007 63.9673C205.719 63.6011 205.502 63.1812 205.355 62.7075C205.214 62.229 205.143 61.7236 205.143 61.1914V60.8838C205.143 60.3516 205.214 59.8486 205.355 59.375C205.502 58.8965 205.719 58.4741 206.007 58.1079C206.3 57.7417 206.667 57.4536 207.106 57.2437C207.55 57.0337 208.07 56.9287 208.666 56.9287C209.286 56.9287 209.828 57.0557 210.292 57.3096C210.756 57.5586 211.12 57.9004 211.383 58.335C211.652 58.7646 211.798 59.2529 211.823 59.7998H210.534C210.509 59.4727 210.417 59.1772 210.255 58.9136C210.099 58.6499 209.884 58.4399 209.611 58.2837C209.342 58.1226 209.027 58.042 208.666 58.042C208.251 58.042 207.902 58.125 207.619 58.291C207.34 58.4521 207.118 58.6719 206.952 58.9502C206.791 59.2236 206.674 59.5288 206.601 59.8657C206.532 60.1978 206.498 60.5371 206.498 60.8838V61.1914C206.498 61.5381 206.532 61.8799 206.601 62.2168C206.669 62.5537 206.784 62.8589 206.945 63.1323C207.111 63.4058 207.333 63.6255 207.611 63.7915C207.895 63.9526 208.246 64.0332 208.666 64.0332ZM216.664 57.0752V58.1152H212.379V57.0752H216.664ZM213.83 55.1489H215.185V63.0371C215.185 63.3057 215.226 63.5083 215.309 63.645C215.392 63.7817 215.5 63.8721 215.631 63.916C215.763 63.96 215.905 63.9819 216.056 63.9819C216.168 63.9819 216.286 63.9722 216.408 63.9526C216.535 63.9282 216.63 63.9087 216.693 63.894L216.701 65C216.593 65.0342 216.452 65.0659 216.276 65.0952C216.105 65.1294 215.897 65.1465 215.653 65.1465C215.321 65.1465 215.016 65.0806 214.738 64.9487C214.459 64.8169 214.237 64.5972 214.071 64.2896C213.91 63.9771 213.83 63.5571 213.83 63.0298V55.1489Z" fill="#1A1A1A"/>
<path d="M390.001 64.3975C389.745 64.3975 389.489 64.295 389.294 64.0899L384.001 58.5339L378.707 64.0924C378.316 64.5025 377.684 64.5025 377.293 64.0924C376.902 63.6822 376.902 63.0178 377.293 62.6076L383.293 56.3076C383.684 55.8975 384.316 55.8975 384.707 56.3076L390.707 62.6076C391.098 63.0178 391.098 63.6822 390.707 64.0924C390.513 64.2958 390.257 64.3975 390.001 64.3975Z" fill="#505050"/>
<path d="M160 80H404V217C404 221.418 400.418 225 396 225H168C163.582 225 160 221.418 160 217V80Z" fill="white"/>
<path d="M160 81H404V79H160V81Z" fill="#D5E3FD" mask="url(#path-8-inside-1_1708_35232)"/>
<path d="M185.448 104.331V105.005C185.448 105.806 185.348 106.523 185.148 107.158C184.948 107.793 184.66 108.333 184.284 108.777C183.908 109.221 183.456 109.561 182.929 109.795C182.406 110.029 181.82 110.146 181.171 110.146C180.541 110.146 179.962 110.029 179.435 109.795C178.913 109.561 178.458 109.221 178.073 108.777C177.692 108.333 177.396 107.793 177.187 107.158C176.977 106.523 176.872 105.806 176.872 105.005V104.331C176.872 103.53 176.974 102.815 177.179 102.185C177.389 101.55 177.685 101.011 178.065 100.566C178.446 100.117 178.898 99.7754 179.42 99.541C179.948 99.3066 180.526 99.1895 181.156 99.1895C181.806 99.1895 182.392 99.3066 182.914 99.541C183.441 99.7754 183.893 100.117 184.269 100.566C184.65 101.011 184.94 101.55 185.141 102.185C185.346 102.815 185.448 103.53 185.448 104.331ZM184.049 105.005V104.316C184.049 103.682 183.983 103.12 183.852 102.632C183.725 102.144 183.537 101.733 183.288 101.401C183.039 101.069 182.733 100.818 182.372 100.647C182.016 100.476 181.61 100.391 181.156 100.391C180.717 100.391 180.319 100.476 179.962 100.647C179.611 100.818 179.308 101.069 179.054 101.401C178.805 101.733 178.612 102.144 178.476 102.632C178.339 103.12 178.271 103.682 178.271 104.316V105.005C178.271 105.645 178.339 106.211 178.476 106.704C178.612 107.192 178.808 107.605 179.062 107.942C179.32 108.274 179.625 108.525 179.977 108.696C180.333 108.867 180.731 108.953 181.171 108.953C181.63 108.953 182.038 108.867 182.394 108.696C182.75 108.525 183.051 108.274 183.295 107.942C183.544 107.605 183.732 107.192 183.859 106.704C183.986 106.211 184.049 105.645 184.049 105.005ZM188.715 103.599V113.047H187.353V102.075H188.598L188.715 103.599ZM194.054 105.972V106.125C194.054 106.702 193.986 107.236 193.849 107.729C193.712 108.218 193.512 108.643 193.249 109.004C192.99 109.365 192.67 109.646 192.289 109.846C191.908 110.046 191.471 110.146 190.978 110.146C190.475 110.146 190.031 110.063 189.645 109.897C189.259 109.731 188.932 109.49 188.664 109.172C188.395 108.855 188.18 108.474 188.019 108.03C187.863 107.585 187.755 107.085 187.697 106.528V105.708C187.755 105.122 187.865 104.597 188.026 104.133C188.188 103.669 188.4 103.274 188.664 102.947C188.932 102.615 189.257 102.363 189.638 102.192C190.019 102.017 190.458 101.929 190.956 101.929C191.454 101.929 191.896 102.026 192.282 102.222C192.667 102.412 192.992 102.686 193.256 103.042C193.52 103.398 193.717 103.826 193.849 104.324C193.986 104.817 194.054 105.366 194.054 105.972ZM192.692 106.125V105.972C192.692 105.576 192.65 105.205 192.567 104.858C192.484 104.507 192.355 104.199 192.179 103.936C192.008 103.667 191.789 103.457 191.52 103.306C191.251 103.149 190.932 103.071 190.561 103.071C190.219 103.071 189.921 103.13 189.667 103.247C189.418 103.364 189.206 103.523 189.03 103.723C188.854 103.918 188.71 104.143 188.598 104.397C188.49 104.646 188.41 104.905 188.356 105.173V107.07C188.454 107.412 188.59 107.734 188.766 108.037C188.942 108.335 189.176 108.577 189.469 108.762C189.762 108.943 190.131 109.033 190.575 109.033C190.941 109.033 191.256 108.958 191.52 108.806C191.789 108.65 192.008 108.438 192.179 108.169C192.355 107.9 192.484 107.593 192.567 107.246C192.65 106.895 192.692 106.521 192.692 106.125ZM199.101 102.075V103.115H194.816V102.075H199.101ZM196.266 100.149H197.621V108.037C197.621 108.306 197.663 108.508 197.746 108.645C197.829 108.782 197.936 108.872 198.068 108.916C198.2 108.96 198.341 108.982 198.493 108.982C198.605 108.982 198.722 108.972 198.844 108.953C198.971 108.928 199.066 108.909 199.13 108.894L199.137 110C199.03 110.034 198.888 110.066 198.712 110.095C198.542 110.129 198.334 110.146 198.09 110.146C197.758 110.146 197.453 110.081 197.174 109.949C196.896 109.817 196.674 109.597 196.508 109.29C196.347 108.977 196.266 108.557 196.266 108.03V100.149ZM202.162 102.075V110H200.8V102.075H202.162ZM200.697 99.9731C200.697 99.7534 200.763 99.5679 200.895 99.4165C201.032 99.2651 201.232 99.1895 201.496 99.1895C201.754 99.1895 201.952 99.2651 202.089 99.4165C202.23 99.5679 202.301 99.7534 202.301 99.9731C202.301 100.183 202.23 100.364 202.089 100.515C201.952 100.662 201.754 100.735 201.496 100.735C201.232 100.735 201.032 100.662 200.895 100.515C200.763 100.364 200.697 100.183 200.697 99.9731ZM203.979 106.125V105.957C203.979 105.386 204.062 104.856 204.228 104.368C204.394 103.875 204.633 103.447 204.945 103.086C205.258 102.72 205.636 102.437 206.081 102.236C206.525 102.031 207.023 101.929 207.575 101.929C208.131 101.929 208.632 102.031 209.076 102.236C209.525 102.437 209.906 102.72 210.219 103.086C210.536 103.447 210.778 103.875 210.944 104.368C211.11 104.856 211.193 105.386 211.193 105.957V106.125C211.193 106.697 211.11 107.227 210.944 107.715C210.778 108.203 210.536 108.63 210.219 108.997C209.906 109.358 209.528 109.641 209.083 109.846C208.644 110.046 208.146 110.146 207.589 110.146C207.033 110.146 206.532 110.046 206.088 109.846C205.644 109.641 205.263 109.358 204.945 108.997C204.633 108.63 204.394 108.203 204.228 107.715C204.062 107.227 203.979 106.697 203.979 106.125ZM205.333 105.957V106.125C205.333 106.521 205.38 106.895 205.473 107.246C205.565 107.593 205.705 107.9 205.89 108.169C206.081 108.438 206.317 108.65 206.601 108.806C206.884 108.958 207.213 109.033 207.589 109.033C207.96 109.033 208.285 108.958 208.563 108.806C208.847 108.65 209.081 108.438 209.267 108.169C209.452 107.9 209.591 107.593 209.684 107.246C209.782 106.895 209.831 106.521 209.831 106.125V105.957C209.831 105.566 209.782 105.198 209.684 104.851C209.591 104.5 209.45 104.189 209.259 103.921C209.074 103.647 208.839 103.433 208.556 103.276C208.278 103.12 207.951 103.042 207.575 103.042C207.204 103.042 206.876 103.12 206.593 103.276C206.315 103.433 206.081 103.647 205.89 103.921C205.705 104.189 205.565 104.5 205.473 104.851C205.38 105.198 205.333 105.566 205.333 105.957ZM214.247 103.767V110H212.892V102.075H214.174L214.247 103.767ZM213.925 105.737L213.361 105.715C213.366 105.173 213.446 104.673 213.603 104.214C213.759 103.75 213.979 103.347 214.262 103.005C214.545 102.664 214.882 102.4 215.272 102.214C215.668 102.024 216.105 101.929 216.583 101.929C216.974 101.929 217.326 101.982 217.638 102.09C217.951 102.192 218.217 102.358 218.437 102.588C218.661 102.817 218.832 103.115 218.949 103.481C219.066 103.843 219.125 104.285 219.125 104.807V110H217.763V104.792C217.763 104.377 217.702 104.045 217.58 103.796C217.458 103.542 217.279 103.359 217.045 103.247C216.811 103.13 216.522 103.071 216.181 103.071C215.844 103.071 215.536 103.142 215.258 103.284C214.984 103.425 214.748 103.621 214.547 103.87C214.352 104.119 214.198 104.404 214.086 104.727C213.979 105.044 213.925 105.381 213.925 105.737ZM233.319 104.331V105.005C233.319 105.806 233.219 106.523 233.019 107.158C232.819 107.793 232.531 108.333 232.155 108.777C231.779 109.221 231.327 109.561 230.8 109.795C230.277 110.029 229.691 110.146 229.042 110.146C228.412 110.146 227.833 110.029 227.306 109.795C226.784 109.561 226.33 109.221 225.944 108.777C225.563 108.333 225.268 107.793 225.058 107.158C224.848 106.523 224.743 105.806 224.743 105.005V104.331C224.743 103.53 224.845 102.815 225.05 102.185C225.26 101.55 225.556 101.011 225.937 100.566C226.317 100.117 226.769 99.7754 227.292 99.541C227.819 99.3066 228.397 99.1895 229.027 99.1895C229.677 99.1895 230.263 99.3066 230.785 99.541C231.312 99.7754 231.764 100.117 232.14 100.566C232.521 101.011 232.812 101.55 233.012 102.185C233.217 102.815 233.319 103.53 233.319 104.331ZM231.92 105.005V104.316C231.92 103.682 231.854 103.12 231.723 102.632C231.596 102.144 231.408 101.733 231.159 101.401C230.91 101.069 230.604 100.818 230.243 100.647C229.887 100.476 229.481 100.391 229.027 100.391C228.588 100.391 228.19 100.476 227.833 100.647C227.482 100.818 227.179 101.069 226.925 101.401C226.676 101.733 226.483 102.144 226.347 102.632C226.21 103.12 226.142 103.682 226.142 104.316V105.005C226.142 105.645 226.21 106.211 226.347 106.704C226.483 107.192 226.679 107.605 226.933 107.942C227.191 108.274 227.497 108.525 227.848 108.696C228.205 108.867 228.603 108.953 229.042 108.953C229.501 108.953 229.909 108.867 230.265 108.696C230.622 108.525 230.922 108.274 231.166 107.942C231.415 107.605 231.603 107.192 231.73 106.704C231.857 106.211 231.92 105.645 231.92 105.005ZM236.586 103.767V110H235.231V102.075H236.513L236.586 103.767ZM236.264 105.737L235.7 105.715C235.705 105.173 235.785 104.673 235.941 104.214C236.098 103.75 236.317 103.347 236.601 103.005C236.884 102.664 237.221 102.4 237.611 102.214C238.007 102.024 238.444 101.929 238.922 101.929C239.313 101.929 239.665 101.982 239.977 102.09C240.29 102.192 240.556 102.358 240.775 102.588C241 102.817 241.171 103.115 241.288 103.481C241.405 103.843 241.464 104.285 241.464 104.807V110H240.102V104.792C240.102 104.377 240.041 104.045 239.918 103.796C239.796 103.542 239.618 103.359 239.384 103.247C239.149 103.13 238.861 103.071 238.52 103.071C238.183 103.071 237.875 103.142 237.597 103.284C237.323 103.425 237.086 103.621 236.886 103.87C236.691 104.119 236.537 104.404 236.425 104.727C236.317 105.044 236.264 105.381 236.264 105.737ZM246.811 110.146C246.259 110.146 245.758 110.054 245.309 109.868C244.865 109.678 244.481 109.412 244.159 109.07C243.842 108.728 243.598 108.323 243.427 107.854C243.256 107.385 243.17 106.873 243.17 106.316V106.008C243.17 105.364 243.266 104.79 243.456 104.287C243.646 103.779 243.905 103.35 244.232 102.998C244.56 102.646 244.931 102.38 245.346 102.2C245.761 102.019 246.19 101.929 246.635 101.929C247.201 101.929 247.689 102.026 248.1 102.222C248.515 102.417 248.854 102.69 249.118 103.042C249.381 103.389 249.577 103.799 249.704 104.272C249.831 104.741 249.894 105.254 249.894 105.811V106.418H243.976V105.312H248.539V105.21C248.52 104.858 248.446 104.517 248.319 104.185C248.197 103.853 248.002 103.579 247.733 103.364C247.465 103.149 247.099 103.042 246.635 103.042C246.327 103.042 246.044 103.108 245.785 103.24C245.526 103.367 245.304 103.557 245.119 103.811C244.933 104.065 244.789 104.375 244.687 104.741C244.584 105.107 244.533 105.53 244.533 106.008V106.316C244.533 106.692 244.584 107.046 244.687 107.378C244.794 107.705 244.948 107.993 245.148 108.242C245.353 108.491 245.6 108.687 245.888 108.828C246.181 108.97 246.513 109.041 246.884 109.041C247.362 109.041 247.768 108.943 248.1 108.748C248.432 108.552 248.722 108.291 248.971 107.964L249.792 108.616C249.621 108.875 249.403 109.121 249.14 109.355C248.876 109.59 248.551 109.78 248.166 109.927C247.785 110.073 247.333 110.146 246.811 110.146Z" fill="#505050"/>
<rect width="244" height="32" transform="translate(160 121)" fill="#286EF1"/>
<path d="M185.448 136.331V137.005C185.448 137.806 185.348 138.523 185.148 139.158C184.948 139.793 184.66 140.333 184.284 140.777C183.908 141.221 183.456 141.561 182.929 141.795C182.406 142.029 181.82 142.146 181.171 142.146C180.541 142.146 179.962 142.029 179.435 141.795C178.913 141.561 178.458 141.221 178.073 140.777C177.692 140.333 177.396 139.793 177.187 139.158C176.977 138.523 176.872 137.806 176.872 137.005V136.331C176.872 135.53 176.974 134.815 177.179 134.185C177.389 133.55 177.685 133.011 178.065 132.566C178.446 132.117 178.898 131.775 179.42 131.541C179.948 131.307 180.526 131.189 181.156 131.189C181.806 131.189 182.392 131.307 182.914 131.541C183.441 131.775 183.893 132.117 184.269 132.566C184.65 133.011 184.94 133.55 185.141 134.185C185.346 134.815 185.448 135.53 185.448 136.331ZM184.049 137.005V136.316C184.049 135.682 183.983 135.12 183.852 134.632C183.725 134.144 183.537 133.733 183.288 133.401C183.039 133.069 182.733 132.818 182.372 132.647C182.016 132.476 181.61 132.391 181.156 132.391C180.717 132.391 180.319 132.476 179.962 132.647C179.611 132.818 179.308 133.069 179.054 133.401C178.805 133.733 178.612 134.144 178.476 134.632C178.339 135.12 178.271 135.682 178.271 136.316V137.005C178.271 137.645 178.339 138.211 178.476 138.704C178.612 139.192 178.808 139.605 179.062 139.942C179.32 140.274 179.625 140.525 179.977 140.696C180.333 140.867 180.731 140.953 181.171 140.953C181.63 140.953 182.038 140.867 182.394 140.696C182.75 140.525 183.051 140.274 183.295 139.942C183.544 139.605 183.732 139.192 183.859 138.704C183.986 138.211 184.049 137.645 184.049 137.005ZM188.715 135.599V145.047H187.353V134.075H188.598L188.715 135.599ZM194.054 137.972V138.125C194.054 138.702 193.986 139.236 193.849 139.729C193.712 140.218 193.512 140.643 193.249 141.004C192.99 141.365 192.67 141.646 192.289 141.846C191.908 142.046 191.471 142.146 190.978 142.146C190.475 142.146 190.031 142.063 189.645 141.897C189.259 141.731 188.932 141.49 188.664 141.172C188.395 140.855 188.18 140.474 188.019 140.03C187.863 139.585 187.755 139.085 187.697 138.528V137.708C187.755 137.122 187.865 136.597 188.026 136.133C188.188 135.669 188.4 135.274 188.664 134.947C188.932 134.615 189.257 134.363 189.638 134.192C190.019 134.017 190.458 133.929 190.956 133.929C191.454 133.929 191.896 134.026 192.282 134.222C192.667 134.412 192.992 134.686 193.256 135.042C193.52 135.398 193.717 135.826 193.849 136.324C193.986 136.817 194.054 137.366 194.054 137.972ZM192.692 138.125V137.972C192.692 137.576 192.65 137.205 192.567 136.858C192.484 136.507 192.355 136.199 192.179 135.936C192.008 135.667 191.789 135.457 191.52 135.306C191.251 135.149 190.932 135.071 190.561 135.071C190.219 135.071 189.921 135.13 189.667 135.247C189.418 135.364 189.206 135.523 189.03 135.723C188.854 135.918 188.71 136.143 188.598 136.397C188.49 136.646 188.41 136.905 188.356 137.173V139.07C188.454 139.412 188.59 139.734 188.766 140.037C188.942 140.335 189.176 140.577 189.469 140.762C189.762 140.943 190.131 141.033 190.575 141.033C190.941 141.033 191.256 140.958 191.52 140.806C191.789 140.65 192.008 140.438 192.179 140.169C192.355 139.9 192.484 139.593 192.567 139.246C192.65 138.895 192.692 138.521 192.692 138.125ZM199.101 134.075V135.115H194.816V134.075H199.101ZM196.266 132.149H197.621V140.037C197.621 140.306 197.663 140.508 197.746 140.645C197.829 140.782 197.936 140.872 198.068 140.916C198.2 140.96 198.341 140.982 198.493 140.982C198.605 140.982 198.722 140.972 198.844 140.953C198.971 140.928 199.066 140.909 199.13 140.894L199.137 142C199.03 142.034 198.888 142.066 198.712 142.095C198.542 142.129 198.334 142.146 198.09 142.146C197.758 142.146 197.453 142.081 197.174 141.949C196.896 141.817 196.674 141.597 196.508 141.29C196.347 140.977 196.266 140.557 196.266 140.03V132.149ZM202.162 134.075V142H200.8V134.075H202.162ZM200.697 131.973C200.697 131.753 200.763 131.568 200.895 131.417C201.032 131.265 201.232 131.189 201.496 131.189C201.754 131.189 201.952 131.265 202.089 131.417C202.23 131.568 202.301 131.753 202.301 131.973C202.301 132.183 202.23 132.364 202.089 132.515C201.952 132.662 201.754 132.735 201.496 132.735C201.232 132.735 201.032 132.662 200.895 132.515C200.763 132.364 200.697 132.183 200.697 131.973ZM203.979 138.125V137.957C203.979 137.386 204.062 136.856 204.228 136.368C204.394 135.875 204.633 135.447 204.945 135.086C205.258 134.72 205.636 134.437 206.081 134.236C206.525 134.031 207.023 133.929 207.575 133.929C208.131 133.929 208.632 134.031 209.076 134.236C209.525 134.437 209.906 134.72 210.219 135.086C210.536 135.447 210.778 135.875 210.944 136.368C211.11 136.856 211.193 137.386 211.193 137.957V138.125C211.193 138.697 211.11 139.227 210.944 139.715C210.778 140.203 210.536 140.63 210.219 140.997C209.906 141.358 209.528 141.641 209.083 141.846C208.644 142.046 208.146 142.146 207.589 142.146C207.033 142.146 206.532 142.046 206.088 141.846C205.644 141.641 205.263 141.358 204.945 140.997C204.633 140.63 204.394 140.203 204.228 139.715C204.062 139.227 203.979 138.697 203.979 138.125ZM205.333 137.957V138.125C205.333 138.521 205.38 138.895 205.473 139.246C205.565 139.593 205.705 139.9 205.89 140.169C206.081 140.438 206.317 140.65 206.601 140.806C206.884 140.958 207.213 141.033 207.589 141.033C207.96 141.033 208.285 140.958 208.563 140.806C208.847 140.65 209.081 140.438 209.267 140.169C209.452 139.9 209.591 139.593 209.684 139.246C209.782 138.895 209.831 138.521 209.831 138.125V137.957C209.831 137.566 209.782 137.198 209.684 136.851C209.591 136.5 209.45 136.189 209.259 135.921C209.074 135.647 208.839 135.433 208.556 135.276C208.278 135.12 207.951 135.042 207.575 135.042C207.204 135.042 206.876 135.12 206.593 135.276C206.315 135.433 206.081 135.647 205.89 135.921C205.705 136.189 205.565 136.5 205.473 136.851C205.38 137.198 205.333 137.566 205.333 137.957ZM214.247 135.767V142H212.892V134.075H214.174L214.247 135.767ZM213.925 137.737L213.361 137.715C213.366 137.173 213.446 136.673 213.603 136.214C213.759 135.75 213.979 135.347 214.262 135.005C214.545 134.664 214.882 134.4 215.272 134.214C215.668 134.024 216.105 133.929 216.583 133.929C216.974 133.929 217.326 133.982 217.638 134.09C217.951 134.192 218.217 134.358 218.437 134.588C218.661 134.817 218.832 135.115 218.949 135.481C219.066 135.843 219.125 136.285 219.125 136.807V142H217.763V136.792C217.763 136.377 217.702 136.045 217.58 135.796C217.458 135.542 217.279 135.359 217.045 135.247C216.811 135.13 216.522 135.071 216.181 135.071C215.844 135.071 215.536 135.142 215.258 135.284C214.984 135.425 214.748 135.621 214.547 135.87C214.352 136.119 214.198 136.404 214.086 136.727C213.979 137.044 213.925 137.381 213.925 137.737ZM228.756 131.336V142H227.365V131.336H228.756ZM232.184 131.336V132.493H223.944V131.336H232.184ZM235.143 140.594L237.179 134.075H238.073L237.897 135.372L235.824 142H234.953L235.143 140.594ZM233.773 134.075L235.509 140.667L235.634 142H234.718L232.418 134.075H233.773ZM240.021 140.616L241.676 134.075H243.024L240.724 142H239.816L240.021 140.616ZM238.271 134.075L240.263 140.484L240.49 142H239.625L237.494 135.357L237.318 134.075H238.271ZM244.057 138.125V137.957C244.057 137.386 244.14 136.856 244.306 136.368C244.472 135.875 244.711 135.447 245.023 135.086C245.336 134.72 245.714 134.437 246.159 134.236C246.603 134.031 247.101 133.929 247.653 133.929C248.209 133.929 248.71 134.031 249.154 134.236C249.604 134.437 249.984 134.72 250.297 135.086C250.614 135.447 250.856 135.875 251.022 136.368C251.188 136.856 251.271 137.386 251.271 137.957V138.125C251.271 138.697 251.188 139.227 251.022 139.715C250.856 140.203 250.614 140.63 250.297 140.997C249.984 141.358 249.606 141.641 249.162 141.846C248.722 142.046 248.224 142.146 247.667 142.146C247.111 142.146 246.61 142.046 246.166 141.846C245.722 141.641 245.341 141.358 245.023 140.997C244.711 140.63 244.472 140.203 244.306 139.715C244.14 139.227 244.057 138.697 244.057 138.125ZM245.412 137.957V138.125C245.412 138.521 245.458 138.895 245.551 139.246C245.644 139.593 245.783 139.9 245.968 140.169C246.159 140.438 246.396 140.65 246.679 140.806C246.962 140.958 247.292 141.033 247.667 141.033C248.039 141.033 248.363 140.958 248.642 140.806C248.925 140.65 249.159 140.438 249.345 140.169C249.53 139.9 249.669 139.593 249.762 139.246C249.86 138.895 249.909 138.521 249.909 138.125V137.957C249.909 137.566 249.86 137.198 249.762 136.851C249.669 136.5 249.528 136.189 249.337 135.921C249.152 135.647 248.917 135.433 248.634 135.276C248.356 135.12 248.029 135.042 247.653 135.042C247.282 135.042 246.955 135.12 246.671 135.276C246.393 135.433 246.159 135.647 245.968 135.921C245.783 136.189 245.644 136.5 245.551 136.851C245.458 137.198 245.412 137.566 245.412 137.957Z" fill="white"/>
<path d="M185.448 168.331V169.005C185.448 169.806 185.348 170.523 185.148 171.158C184.948 171.793 184.66 172.333 184.284 172.777C183.908 173.221 183.456 173.561 182.929 173.795C182.406 174.029 181.82 174.146 181.171 174.146C180.541 174.146 179.962 174.029 179.435 173.795C178.913 173.561 178.458 173.221 178.073 172.777C177.692 172.333 177.396 171.793 177.187 171.158C176.977 170.523 176.872 169.806 176.872 169.005V168.331C176.872 167.53 176.974 166.815 177.179 166.185C177.389 165.55 177.685 165.011 178.065 164.566C178.446 164.117 178.898 163.775 179.42 163.541C179.948 163.307 180.526 163.189 181.156 163.189C181.806 163.189 182.392 163.307 182.914 163.541C183.441 163.775 183.893 164.117 184.269 164.566C184.65 165.011 184.94 165.55 185.141 166.185C185.346 166.815 185.448 167.53 185.448 168.331ZM184.049 169.005V168.316C184.049 167.682 183.983 167.12 183.852 166.632C183.725 166.144 183.537 165.733 183.288 165.401C183.039 165.069 182.733 164.818 182.372 164.647C182.016 164.476 181.61 164.391 181.156 164.391C180.717 164.391 180.319 164.476 179.962 164.647C179.611 164.818 179.308 165.069 179.054 165.401C178.805 165.733 178.612 166.144 178.476 166.632C178.339 167.12 178.271 167.682 178.271 168.316V169.005C178.271 169.645 178.339 170.211 178.476 170.704C178.612 171.192 178.808 171.605 179.062 171.942C179.32 172.274 179.625 172.525 179.977 172.696C180.333 172.867 180.731 172.953 181.171 172.953C181.63 172.953 182.038 172.867 182.394 172.696C182.75 172.525 183.051 172.274 183.295 171.942C183.544 171.605 183.732 171.192 183.859 170.704C183.986 170.211 184.049 169.645 184.049 169.005ZM188.715 167.599V177.047H187.353V166.075H188.598L188.715 167.599ZM194.054 169.972V170.125C194.054 170.702 193.986 171.236 193.849 171.729C193.712 172.218 193.512 172.643 193.249 173.004C192.99 173.365 192.67 173.646 192.289 173.846C191.908 174.046 191.471 174.146 190.978 174.146C190.475 174.146 190.031 174.063 189.645 173.897C189.259 173.731 188.932 173.49 188.664 173.172C188.395 172.855 188.18 172.474 188.019 172.03C187.863 171.585 187.755 171.085 187.697 170.528V169.708C187.755 169.122 187.865 168.597 188.026 168.133C188.188 167.669 188.4 167.274 188.664 166.947C188.932 166.615 189.257 166.363 189.638 166.192C190.019 166.017 190.458 165.929 190.956 165.929C191.454 165.929 191.896 166.026 192.282 166.222C192.667 166.412 192.992 166.686 193.256 167.042C193.52 167.398 193.717 167.826 193.849 168.324C193.986 168.817 194.054 169.366 194.054 169.972ZM192.692 170.125V169.972C192.692 169.576 192.65 169.205 192.567 168.858C192.484 168.507 192.355 168.199 192.179 167.936C192.008 167.667 191.789 167.457 191.52 167.306C191.251 167.149 190.932 167.071 190.561 167.071C190.219 167.071 189.921 167.13 189.667 167.247C189.418 167.364 189.206 167.523 189.03 167.723C188.854 167.918 188.71 168.143 188.598 168.397C188.49 168.646 188.41 168.905 188.356 169.173V171.07C188.454 171.412 188.59 171.734 188.766 172.037C188.942 172.335 189.176 172.577 189.469 172.762C189.762 172.943 190.131 173.033 190.575 173.033C190.941 173.033 191.256 172.958 191.52 172.806C191.789 172.65 192.008 172.438 192.179 172.169C192.355 171.9 192.484 171.593 192.567 171.246C192.65 170.895 192.692 170.521 192.692 170.125ZM199.101 166.075V167.115H194.816V166.075H199.101ZM196.266 164.149H197.621V172.037C197.621 172.306 197.663 172.508 197.746 172.645C197.829 172.782 197.936 172.872 198.068 172.916C198.2 172.96 198.341 172.982 198.493 172.982C198.605 172.982 198.722 172.972 198.844 172.953C198.971 172.928 199.066 172.909 199.13 172.894L199.137 174C199.03 174.034 198.888 174.066 198.712 174.095C198.542 174.129 198.334 174.146 198.09 174.146C197.758 174.146 197.453 174.081 197.174 173.949C196.896 173.817 196.674 173.597 196.508 173.29C196.347 172.977 196.266 172.557 196.266 172.03V164.149ZM202.162 166.075V174H200.8V166.075H202.162ZM200.697 163.973C200.697 163.753 200.763 163.568 200.895 163.417C201.032 163.265 201.232 163.189 201.496 163.189C201.754 163.189 201.952 163.265 202.089 163.417C202.23 163.568 202.301 163.753 202.301 163.973C202.301 164.183 202.23 164.364 202.089 164.515C201.952 164.662 201.754 164.735 201.496 164.735C201.232 164.735 201.032 164.662 200.895 164.515C200.763 164.364 200.697 164.183 200.697 163.973ZM203.979 170.125V169.957C203.979 169.386 204.062 168.856 204.228 168.368C204.394 167.875 204.633 167.447 204.945 167.086C205.258 166.72 205.636 166.437 206.081 166.236C206.525 166.031 207.023 165.929 207.575 165.929C208.131 165.929 208.632 166.031 209.076 166.236C209.525 166.437 209.906 166.72 210.219 167.086C210.536 167.447 210.778 167.875 210.944 168.368C211.11 168.856 211.193 169.386 211.193 169.957V170.125C211.193 170.697 211.11 171.227 210.944 171.715C210.778 172.203 210.536 172.63 210.219 172.997C209.906 173.358 209.528 173.641 209.083 173.846C208.644 174.046 208.146 174.146 207.589 174.146C207.033 174.146 206.532 174.046 206.088 173.846C205.644 173.641 205.263 173.358 204.945 172.997C204.633 172.63 204.394 172.203 204.228 171.715C204.062 171.227 203.979 170.697 203.979 170.125ZM205.333 169.957V170.125C205.333 170.521 205.38 170.895 205.473 171.246C205.565 171.593 205.705 171.9 205.89 172.169C206.081 172.438 206.317 172.65 206.601 172.806C206.884 172.958 207.213 173.033 207.589 173.033C207.96 173.033 208.285 172.958 208.563 172.806C208.847 172.65 209.081 172.438 209.267 172.169C209.452 171.9 209.591 171.593 209.684 171.246C209.782 170.895 209.831 170.521 209.831 170.125V169.957C209.831 169.566 209.782 169.198 209.684 168.851C209.591 168.5 209.45 168.189 209.259 167.921C209.074 167.647 208.839 167.433 208.556 167.276C208.278 167.12 207.951 167.042 207.575 167.042C207.204 167.042 206.876 167.12 206.593 167.276C206.315 167.433 206.081 167.647 205.89 167.921C205.705 168.189 205.565 168.5 205.473 168.851C205.38 169.198 205.333 169.566 205.333 169.957ZM214.247 167.767V174H212.892V166.075H214.174L214.247 167.767ZM213.925 169.737L213.361 169.715C213.366 169.173 213.446 168.673 213.603 168.214C213.759 167.75 213.979 167.347 214.262 167.005C214.545 166.664 214.882 166.4 215.272 166.214C215.668 166.024 216.105 165.929 216.583 165.929C216.974 165.929 217.326 165.982 217.638 166.09C217.951 166.192 218.217 166.358 218.437 166.588C218.661 166.817 218.832 167.115 218.949 167.481C219.066 167.843 219.125 168.285 219.125 168.807V174H217.763V168.792C217.763 168.377 217.702 168.045 217.58 167.796C217.458 167.542 217.279 167.359 217.045 167.247C216.811 167.13 216.522 167.071 216.181 167.071C215.844 167.071 215.536 167.142 215.258 167.284C214.984 167.425 214.748 167.621 214.547 167.87C214.352 168.119 214.198 168.404 214.086 168.727C213.979 169.044 213.925 169.381 213.925 169.737ZM228.756 163.336V174H227.365V163.336H228.756ZM232.184 163.336V164.493H223.944V163.336H232.184ZM234.916 162.75V174H233.561V162.75H234.916ZM234.594 169.737L234.03 169.715C234.035 169.173 234.115 168.673 234.271 168.214C234.428 167.75 234.647 167.347 234.931 167.005C235.214 166.664 235.551 166.4 235.941 166.214C236.337 166.024 236.774 165.929 237.252 165.929C237.643 165.929 237.995 165.982 238.307 166.09C238.62 166.192 238.886 166.358 239.105 166.588C239.33 166.817 239.501 167.115 239.618 167.481C239.735 167.843 239.794 168.285 239.794 168.807V174H238.432V168.792C238.432 168.377 238.371 168.045 238.249 167.796C238.126 167.542 237.948 167.359 237.714 167.247C237.479 167.13 237.191 167.071 236.85 167.071C236.513 167.071 236.205 167.142 235.927 167.284C235.653 167.425 235.417 167.621 235.216 167.87C235.021 168.119 234.867 168.404 234.755 168.727C234.647 169.044 234.594 169.381 234.594 169.737ZM243.178 167.32V174H241.823V166.075H243.141L243.178 167.32ZM245.653 166.031L245.646 167.291C245.534 167.267 245.426 167.252 245.324 167.247C245.226 167.237 245.114 167.232 244.987 167.232C244.674 167.232 244.398 167.281 244.159 167.379C243.92 167.477 243.717 167.613 243.551 167.789C243.385 167.965 243.253 168.175 243.156 168.419C243.063 168.658 243.002 168.922 242.973 169.21L242.592 169.43C242.592 168.951 242.638 168.502 242.731 168.082C242.829 167.662 242.978 167.291 243.178 166.969C243.378 166.642 243.632 166.388 243.939 166.207C244.252 166.021 244.623 165.929 245.053 165.929C245.15 165.929 245.263 165.941 245.39 165.965C245.517 165.985 245.604 166.007 245.653 166.031ZM250.048 174.146C249.496 174.146 248.996 174.054 248.546 173.868C248.102 173.678 247.719 173.412 247.396 173.07C247.079 172.728 246.835 172.323 246.664 171.854C246.493 171.385 246.408 170.873 246.408 170.316V170.008C246.408 169.364 246.503 168.79 246.693 168.287C246.884 167.779 247.143 167.35 247.47 166.998C247.797 166.646 248.168 166.38 248.583 166.2C248.998 166.019 249.428 165.929 249.872 165.929C250.438 165.929 250.927 166.026 251.337 166.222C251.752 166.417 252.091 166.69 252.355 167.042C252.619 167.389 252.814 167.799 252.941 168.272C253.068 168.741 253.131 169.254 253.131 169.811V170.418H247.213V169.312H251.776V169.21C251.757 168.858 251.684 168.517 251.557 168.185C251.435 167.853 251.239 167.579 250.971 167.364C250.702 167.149 250.336 167.042 249.872 167.042C249.564 167.042 249.281 167.108 249.022 167.24C248.764 167.367 248.542 167.557 248.356 167.811C248.17 168.065 248.026 168.375 247.924 168.741C247.821 169.107 247.77 169.53 247.77 170.008V170.316C247.77 170.692 247.821 171.046 247.924 171.378C248.031 171.705 248.185 171.993 248.385 172.242C248.59 172.491 248.837 172.687 249.125 172.828C249.418 172.97 249.75 173.041 250.121 173.041C250.6 173.041 251.005 172.943 251.337 172.748C251.669 172.552 251.959 172.291 252.208 171.964L253.029 172.616C252.858 172.875 252.641 173.121 252.377 173.355C252.113 173.59 251.789 173.78 251.403 173.927C251.022 174.073 250.57 174.146 250.048 174.146ZM258.002 174.146C257.45 174.146 256.95 174.054 256.5 173.868C256.056 173.678 255.673 173.412 255.351 173.07C255.033 172.728 254.789 172.323 254.618 171.854C254.447 171.385 254.362 170.873 254.362 170.316V170.008C254.362 169.364 254.457 168.79 254.647 168.287C254.838 167.779 255.097 167.35 255.424 166.998C255.751 166.646 256.122 166.38 256.537 166.2C256.952 166.019 257.382 165.929 257.826 165.929C258.393 165.929 258.881 166.026 259.291 166.222C259.706 166.417 260.045 166.69 260.309 167.042C260.573 167.389 260.768 167.799 260.895 168.272C261.022 168.741 261.085 169.254 261.085 169.811V170.418H255.167V169.312H259.73V169.21C259.711 168.858 259.638 168.517 259.511 168.185C259.389 167.853 259.193 167.579 258.925 167.364C258.656 167.149 258.29 167.042 257.826 167.042C257.519 167.042 257.235 167.108 256.977 167.24C256.718 167.367 256.496 167.557 256.31 167.811C256.125 168.065 255.98 168.375 255.878 168.741C255.775 169.107 255.724 169.53 255.724 170.008V170.316C255.724 170.692 255.775 171.046 255.878 171.378C255.985 171.705 256.139 171.993 256.339 172.242C256.544 172.491 256.791 172.687 257.079 172.828C257.372 172.97 257.704 173.041 258.075 173.041C258.554 173.041 258.959 172.943 259.291 172.748C259.623 172.552 259.914 172.291 260.163 171.964L260.983 172.616C260.812 172.875 260.595 173.121 260.331 173.355C260.067 173.59 259.743 173.78 259.357 173.927C258.976 174.073 258.524 174.146 258.002 174.146Z" fill="#505050"/>
<path d="M185.448 200.331V201.005C185.448 201.806 185.348 202.523 185.148 203.158C184.948 203.793 184.66 204.333 184.284 204.777C183.908 205.221 183.456 205.561 182.929 205.795C182.406 206.029 181.82 206.146 181.171 206.146C180.541 206.146 179.962 206.029 179.435 205.795C178.913 205.561 178.458 205.221 178.073 204.777C177.692 204.333 177.396 203.793 177.187 203.158C176.977 202.523 176.872 201.806 176.872 201.005V200.331C176.872 199.53 176.974 198.815 177.179 198.185C177.389 197.55 177.685 197.011 178.065 196.566C178.446 196.117 178.898 195.775 179.42 195.541C179.948 195.307 180.526 195.189 181.156 195.189C181.806 195.189 182.392 195.307 182.914 195.541C183.441 195.775 183.893 196.117 184.269 196.566C184.65 197.011 184.94 197.55 185.141 198.185C185.346 198.815 185.448 199.53 185.448 200.331ZM184.049 201.005V200.316C184.049 199.682 183.983 199.12 183.852 198.632C183.725 198.144 183.537 197.733 183.288 197.401C183.039 197.069 182.733 196.818 182.372 196.647C182.016 196.476 181.61 196.391 181.156 196.391C180.717 196.391 180.319 196.476 179.962 196.647C179.611 196.818 179.308 197.069 179.054 197.401C178.805 197.733 178.612 198.144 178.476 198.632C178.339 199.12 178.271 199.682 178.271 200.316V201.005C178.271 201.645 178.339 202.211 178.476 202.704C178.612 203.192 178.808 203.605 179.062 203.942C179.32 204.274 179.625 204.525 179.977 204.696C180.333 204.867 180.731 204.953 181.171 204.953C181.63 204.953 182.038 204.867 182.394 204.696C182.75 204.525 183.051 204.274 183.295 203.942C183.544 203.605 183.732 203.192 183.859 202.704C183.986 202.211 184.049 201.645 184.049 201.005ZM188.715 199.599V209.047H187.353V198.075H188.598L188.715 199.599ZM194.054 201.972V202.125C194.054 202.702 193.986 203.236 193.849 203.729C193.712 204.218 193.512 204.643 193.249 205.004C192.99 205.365 192.67 205.646 192.289 205.846C191.908 206.046 191.471 206.146 190.978 206.146C190.475 206.146 190.031 206.063 189.645 205.897C189.259 205.731 188.932 205.49 188.664 205.172C188.395 204.855 188.18 204.474 188.019 204.03C187.863 203.585 187.755 203.085 187.697 202.528V201.708C187.755 201.122 187.865 200.597 188.026 200.133C188.188 199.669 188.4 199.274 188.664 198.947C188.932 198.615 189.257 198.363 189.638 198.192C190.019 198.017 190.458 197.929 190.956 197.929C191.454 197.929 191.896 198.026 192.282 198.222C192.667 198.412 192.992 198.686 193.256 199.042C193.52 199.398 193.717 199.826 193.849 200.324C193.986 200.817 194.054 201.366 194.054 201.972ZM192.692 202.125V201.972C192.692 201.576 192.65 201.205 192.567 200.858C192.484 200.507 192.355 200.199 192.179 199.936C192.008 199.667 191.789 199.457 191.52 199.306C191.251 199.149 190.932 199.071 190.561 199.071C190.219 199.071 189.921 199.13 189.667 199.247C189.418 199.364 189.206 199.523 189.03 199.723C188.854 199.918 188.71 200.143 188.598 200.397C188.49 200.646 188.41 200.905 188.356 201.173V203.07C188.454 203.412 188.59 203.734 188.766 204.037C188.942 204.335 189.176 204.577 189.469 204.762C189.762 204.943 190.131 205.033 190.575 205.033C190.941 205.033 191.256 204.958 191.52 204.806C191.789 204.65 192.008 204.438 192.179 204.169C192.355 203.9 192.484 203.593 192.567 203.246C192.65 202.895 192.692 202.521 192.692 202.125ZM199.101 198.075V199.115H194.816V198.075H199.101ZM196.266 196.149H197.621V204.037C197.621 204.306 197.663 204.508 197.746 204.645C197.829 204.782 197.936 204.872 198.068 204.916C198.2 204.96 198.341 204.982 198.493 204.982C198.605 204.982 198.722 204.972 198.844 204.953C198.971 204.928 199.066 204.909 199.13 204.894L199.137 206C199.03 206.034 198.888 206.066 198.712 206.095C198.542 206.129 198.334 206.146 198.09 206.146C197.758 206.146 197.453 206.081 197.174 205.949C196.896 205.817 196.674 205.597 196.508 205.29C196.347 204.977 196.266 204.557 196.266 204.03V196.149ZM202.162 198.075V206H200.8V198.075H202.162ZM200.697 195.973C200.697 195.753 200.763 195.568 200.895 195.417C201.032 195.265 201.232 195.189 201.496 195.189C201.754 195.189 201.952 195.265 202.089 195.417C202.23 195.568 202.301 195.753 202.301 195.973C202.301 196.183 202.23 196.364 202.089 196.515C201.952 196.662 201.754 196.735 201.496 196.735C201.232 196.735 201.032 196.662 200.895 196.515C200.763 196.364 200.697 196.183 200.697 195.973ZM203.979 202.125V201.957C203.979 201.386 204.062 200.856 204.228 200.368C204.394 199.875 204.633 199.447 204.945 199.086C205.258 198.72 205.636 198.437 206.081 198.236C206.525 198.031 207.023 197.929 207.575 197.929C208.131 197.929 208.632 198.031 209.076 198.236C209.525 198.437 209.906 198.72 210.219 199.086C210.536 199.447 210.778 199.875 210.944 200.368C211.11 200.856 211.193 201.386 211.193 201.957V202.125C211.193 202.697 211.11 203.227 210.944 203.715C210.778 204.203 210.536 204.63 210.219 204.997C209.906 205.358 209.528 205.641 209.083 205.846C208.644 206.046 208.146 206.146 207.589 206.146C207.033 206.146 206.532 206.046 206.088 205.846C205.644 205.641 205.263 205.358 204.945 204.997C204.633 204.63 204.394 204.203 204.228 203.715C204.062 203.227 203.979 202.697 203.979 202.125ZM205.333 201.957V202.125C205.333 202.521 205.38 202.895 205.473 203.246C205.565 203.593 205.705 203.9 205.89 204.169C206.081 204.438 206.317 204.65 206.601 204.806C206.884 204.958 207.213 205.033 207.589 205.033C207.96 205.033 208.285 204.958 208.563 204.806C208.847 204.65 209.081 204.438 209.267 204.169C209.452 203.9 209.591 203.593 209.684 203.246C209.782 202.895 209.831 202.521 209.831 202.125V201.957C209.831 201.566 209.782 201.198 209.684 200.851C209.591 200.5 209.45 200.189 209.259 199.921C209.074 199.647 208.839 199.433 208.556 199.276C208.278 199.12 207.951 199.042 207.575 199.042C207.204 199.042 206.876 199.12 206.593 199.276C206.315 199.433 206.081 199.647 205.89 199.921C205.705 200.189 205.565 200.5 205.473 200.851C205.38 201.198 205.333 201.566 205.333 201.957ZM214.247 199.767V206H212.892V198.075H214.174L214.247 199.767ZM213.925 201.737L213.361 201.715C213.366 201.173 213.446 200.673 213.603 200.214C213.759 199.75 213.979 199.347 214.262 199.005C214.545 198.664 214.882 198.4 215.272 198.214C215.668 198.024 216.105 197.929 216.583 197.929C216.974 197.929 217.326 197.982 217.638 198.09C217.951 198.192 218.217 198.358 218.437 198.588C218.661 198.817 218.832 199.115 218.949 199.481C219.066 199.843 219.125 200.285 219.125 200.807V206H217.763V200.792C217.763 200.377 217.702 200.045 217.58 199.796C217.458 199.542 217.279 199.359 217.045 199.247C216.811 199.13 216.522 199.071 216.181 199.071C215.844 199.071 215.536 199.142 215.258 199.284C214.984 199.425 214.748 199.621 214.547 199.87C214.352 200.119 214.198 200.404 214.086 200.727C213.979 201.044 213.925 201.381 213.925 201.737ZM226.522 195.336V206H225.109V195.336H226.522ZM230.99 200.133V201.291H226.215V200.133H230.99ZM231.715 195.336V196.493H226.215V195.336H231.715ZM232.675 202.125V201.957C232.675 201.386 232.758 200.856 232.924 200.368C233.09 199.875 233.329 199.447 233.642 199.086C233.954 198.72 234.333 198.437 234.777 198.236C235.221 198.031 235.719 197.929 236.271 197.929C236.828 197.929 237.328 198.031 237.772 198.236C238.222 198.437 238.603 198.72 238.915 199.086C239.232 199.447 239.474 199.875 239.64 200.368C239.806 200.856 239.889 201.386 239.889 201.957V202.125C239.889 202.697 239.806 203.227 239.64 203.715C239.474 204.203 239.232 204.63 238.915 204.997C238.603 205.358 238.224 205.641 237.78 205.846C237.34 206.046 236.842 206.146 236.286 206.146C235.729 206.146 235.229 206.046 234.784 205.846C234.34 205.641 233.959 205.358 233.642 204.997C233.329 204.63 233.09 204.203 232.924 203.715C232.758 203.227 232.675 202.697 232.675 202.125ZM234.03 201.957V202.125C234.03 202.521 234.076 202.895 234.169 203.246C234.262 203.593 234.401 203.9 234.586 204.169C234.777 204.438 235.014 204.65 235.297 204.806C235.58 204.958 235.91 205.033 236.286 205.033C236.657 205.033 236.981 204.958 237.26 204.806C237.543 204.65 237.777 204.438 237.963 204.169C238.148 203.9 238.288 203.593 238.38 203.246C238.478 202.895 238.527 202.521 238.527 202.125V201.957C238.527 201.566 238.478 201.198 238.38 200.851C238.288 200.5 238.146 200.189 237.956 199.921C237.77 199.647 237.536 199.433 237.252 199.276C236.974 199.12 236.647 199.042 236.271 199.042C235.9 199.042 235.573 199.12 235.29 199.276C235.011 199.433 234.777 199.647 234.586 199.921C234.401 200.189 234.262 200.5 234.169 200.851C234.076 201.198 234.03 201.566 234.03 201.957ZM246.437 204.169V198.075H247.799V206H246.503L246.437 204.169ZM246.693 202.499L247.257 202.484C247.257 203.012 247.201 203.5 247.089 203.949C246.981 204.394 246.806 204.779 246.562 205.106C246.317 205.434 245.998 205.69 245.602 205.875C245.207 206.056 244.726 206.146 244.159 206.146C243.773 206.146 243.419 206.09 243.097 205.978C242.78 205.866 242.506 205.692 242.277 205.458C242.047 205.224 241.869 204.918 241.742 204.542C241.62 204.167 241.559 203.715 241.559 203.188V198.075H242.914V203.202C242.914 203.559 242.953 203.854 243.031 204.088C243.114 204.318 243.224 204.501 243.361 204.638C243.502 204.77 243.659 204.862 243.83 204.916C244.005 204.97 244.186 204.997 244.372 204.997C244.948 204.997 245.404 204.887 245.741 204.667C246.078 204.442 246.32 204.142 246.466 203.766C246.618 203.385 246.693 202.963 246.693 202.499ZM251.22 199.32V206H249.865V198.075H251.183L251.22 199.32ZM253.695 198.031L253.688 199.291C253.576 199.267 253.468 199.252 253.366 199.247C253.268 199.237 253.156 199.232 253.029 199.232C252.716 199.232 252.44 199.281 252.201 199.379C251.962 199.477 251.759 199.613 251.593 199.789C251.427 199.965 251.295 200.175 251.198 200.419C251.105 200.658 251.044 200.922 251.015 201.21L250.634 201.43C250.634 200.951 250.68 200.502 250.773 200.082C250.871 199.662 251.02 199.291 251.22 198.969C251.42 198.642 251.674 198.388 251.981 198.207C252.294 198.021 252.665 197.929 253.095 197.929C253.192 197.929 253.305 197.941 253.432 197.965C253.559 197.985 253.646 198.007 253.695 198.031Z" fill="#505050"/>
</g>
<rect x="161" y="41" width="242" height="183" rx="3" stroke="#286EF1" stroke-width="2"/>
<g filter="url(#filter0_ddd_1708_35232)">
<rect x="472" y="80" width="160" height="156" rx="8" fill="white"/>
<path d="M492.188 103.087V103.671C492.188 104.365 492.102 104.987 491.928 105.537C491.755 106.087 491.505 106.555 491.179 106.94C490.853 107.325 490.462 107.619 490.005 107.822C489.552 108.025 489.044 108.127 488.481 108.127C487.936 108.127 487.434 108.025 486.977 107.822C486.524 107.619 486.131 107.325 485.796 106.94C485.466 106.555 485.21 106.087 485.028 105.537C484.846 104.987 484.755 104.365 484.755 103.671V103.087C484.755 102.393 484.844 101.773 485.022 101.227C485.204 100.677 485.46 100.209 485.79 99.8242C486.12 99.4349 486.512 99.1387 486.964 98.9355C487.421 98.7324 487.923 98.6309 488.469 98.6309C489.032 98.6309 489.539 98.7324 489.992 98.9355C490.449 99.1387 490.841 99.4349 491.167 99.8242C491.497 100.209 491.748 100.677 491.922 101.227C492.1 101.773 492.188 102.393 492.188 103.087ZM490.976 103.671V103.074C490.976 102.524 490.919 102.037 490.805 101.614C490.695 101.191 490.532 100.836 490.316 100.548C490.1 100.26 489.836 100.042 489.522 99.894C489.214 99.7459 488.862 99.6719 488.469 99.6719C488.088 99.6719 487.743 99.7459 487.434 99.894C487.129 100.042 486.867 100.26 486.647 100.548C486.431 100.836 486.264 101.191 486.146 101.614C486.027 102.037 485.968 102.524 485.968 103.074V103.671C485.968 104.225 486.027 104.716 486.146 105.144C486.264 105.567 486.433 105.924 486.653 106.216C486.878 106.504 487.142 106.722 487.447 106.87C487.756 107.018 488.101 107.092 488.481 107.092C488.879 107.092 489.233 107.018 489.542 106.87C489.85 106.722 490.111 106.504 490.322 106.216C490.538 105.924 490.701 105.567 490.811 105.144C490.921 104.716 490.976 104.225 490.976 103.671ZM495.02 102.452V110.641H493.839V101.132H494.918L495.02 102.452ZM499.647 104.509V104.642C499.647 105.141 499.588 105.605 499.469 106.032C499.351 106.455 499.177 106.824 498.949 107.137C498.724 107.45 498.447 107.693 498.117 107.867C497.787 108.04 497.408 108.127 496.981 108.127C496.545 108.127 496.16 108.055 495.826 107.911C495.491 107.767 495.208 107.558 494.975 107.283C494.742 107.008 494.556 106.678 494.417 106.292C494.281 105.907 494.188 105.474 494.137 104.991V104.28C494.188 103.772 494.283 103.318 494.423 102.916C494.562 102.514 494.747 102.171 494.975 101.887C495.208 101.599 495.489 101.382 495.819 101.233C496.149 101.081 496.53 101.005 496.962 101.005C497.394 101.005 497.777 101.09 498.111 101.259C498.445 101.424 498.727 101.661 498.955 101.97C499.184 102.279 499.355 102.649 499.469 103.081C499.588 103.508 499.647 103.984 499.647 104.509ZM498.466 104.642V104.509C498.466 104.166 498.43 103.844 498.358 103.544C498.286 103.239 498.174 102.973 498.022 102.744C497.874 102.511 497.683 102.329 497.451 102.198C497.218 102.063 496.941 101.995 496.619 101.995C496.323 101.995 496.065 102.046 495.845 102.147C495.629 102.249 495.445 102.387 495.292 102.56C495.14 102.729 495.015 102.924 494.918 103.144C494.825 103.36 494.755 103.584 494.708 103.817V105.461C494.793 105.757 494.912 106.036 495.064 106.299C495.216 106.557 495.419 106.766 495.673 106.927C495.927 107.084 496.247 107.162 496.632 107.162C496.949 107.162 497.222 107.097 497.451 106.965C497.683 106.83 497.874 106.646 498.022 106.413C498.174 106.18 498.286 105.914 498.358 105.613C498.43 105.309 498.466 104.985 498.466 104.642ZM504.021 101.132V102.033H500.307V101.132H504.021ZM501.564 99.4624H502.738V106.299C502.738 106.532 502.774 106.707 502.846 106.826C502.918 106.944 503.011 107.022 503.125 107.061C503.24 107.099 503.362 107.118 503.494 107.118C503.591 107.118 503.693 107.109 503.798 107.092C503.908 107.071 503.991 107.054 504.046 107.042L504.052 108C503.959 108.03 503.836 108.057 503.684 108.083C503.536 108.112 503.356 108.127 503.145 108.127C502.857 108.127 502.592 108.07 502.351 107.956C502.11 107.841 501.917 107.651 501.773 107.384C501.634 107.113 501.564 106.75 501.564 106.292V99.4624ZM506.674 101.132V108H505.493V101.132H506.674ZM505.404 99.3101C505.404 99.1196 505.461 98.9588 505.576 98.8276C505.694 98.6965 505.868 98.6309 506.096 98.6309C506.32 98.6309 506.492 98.6965 506.61 98.8276C506.733 98.9588 506.794 99.1196 506.794 99.3101C506.794 99.492 506.733 99.6486 506.61 99.7798C506.492 99.9067 506.32 99.9702 506.096 99.9702C505.868 99.9702 505.694 99.9067 505.576 99.7798C505.461 99.6486 505.404 99.492 505.404 99.3101ZM508.248 104.642V104.496C508.248 104.001 508.32 103.542 508.464 103.119C508.608 102.691 508.815 102.321 509.086 102.008C509.357 101.69 509.685 101.445 510.07 101.271C510.455 101.094 510.887 101.005 511.365 101.005C511.847 101.005 512.281 101.094 512.666 101.271C513.055 101.445 513.385 101.69 513.656 102.008C513.931 102.321 514.141 102.691 514.285 103.119C514.429 103.542 514.5 104.001 514.5 104.496V104.642C514.5 105.137 514.429 105.596 514.285 106.02C514.141 106.443 513.931 106.813 513.656 107.13C513.385 107.444 513.057 107.689 512.672 107.867C512.292 108.04 511.86 108.127 511.377 108.127C510.895 108.127 510.461 108.04 510.076 107.867C509.691 107.689 509.361 107.444 509.086 107.13C508.815 106.813 508.608 106.443 508.464 106.02C508.32 105.596 508.248 105.137 508.248 104.642ZM509.422 104.496V104.642C509.422 104.985 509.463 105.309 509.543 105.613C509.623 105.914 509.744 106.18 509.905 106.413C510.07 106.646 510.275 106.83 510.521 106.965C510.766 107.097 511.052 107.162 511.377 107.162C511.699 107.162 511.98 107.097 512.222 106.965C512.467 106.83 512.67 106.646 512.831 106.413C512.992 106.18 513.112 105.914 513.193 105.613C513.278 105.309 513.32 104.985 513.32 104.642V104.496C513.32 104.158 513.278 103.838 513.193 103.538C513.112 103.233 512.99 102.964 512.825 102.731C512.664 102.494 512.461 102.308 512.215 102.173C511.974 102.037 511.691 101.97 511.365 101.97C511.043 101.97 510.76 102.037 510.514 102.173C510.273 102.308 510.07 102.494 509.905 102.731C509.744 102.964 509.623 103.233 509.543 103.538C509.463 103.838 509.422 104.158 509.422 104.496ZM517.147 102.598V108H515.973V101.132H517.084L517.147 102.598ZM516.868 104.306L516.379 104.287C516.384 103.817 516.453 103.383 516.589 102.985C516.724 102.583 516.915 102.234 517.16 101.938C517.406 101.642 517.698 101.413 518.036 101.252C518.379 101.087 518.758 101.005 519.172 101.005C519.511 101.005 519.816 101.051 520.086 101.145C520.357 101.233 520.588 101.377 520.778 101.576C520.973 101.775 521.121 102.033 521.223 102.351C521.324 102.664 521.375 103.047 521.375 103.5V108H520.194V103.487C520.194 103.127 520.141 102.839 520.036 102.624C519.93 102.403 519.775 102.245 519.572 102.147C519.369 102.046 519.119 101.995 518.823 101.995C518.531 101.995 518.265 102.056 518.023 102.179C517.786 102.302 517.581 102.471 517.408 102.687C517.238 102.903 517.105 103.15 517.008 103.43C516.915 103.705 516.868 103.997 516.868 104.306ZM533.677 103.087V103.671C533.677 104.365 533.59 104.987 533.417 105.537C533.243 106.087 532.993 106.555 532.667 106.94C532.342 107.325 531.95 107.619 531.493 107.822C531.04 108.025 530.533 108.127 529.97 108.127C529.424 108.127 528.922 108.025 528.465 107.822C528.013 107.619 527.619 107.325 527.285 106.94C526.955 106.555 526.699 106.087 526.517 105.537C526.335 104.987 526.244 104.365 526.244 103.671V103.087C526.244 102.393 526.333 101.773 526.51 101.227C526.692 100.677 526.948 100.209 527.278 99.8242C527.608 99.4349 528 99.1387 528.453 98.9355C528.91 98.7324 529.411 98.6309 529.957 98.6309C530.52 98.6309 531.028 98.7324 531.48 98.9355C531.938 99.1387 532.329 99.4349 532.655 99.8242C532.985 100.209 533.237 100.677 533.41 101.227C533.588 101.773 533.677 102.393 533.677 103.087ZM532.464 103.671V103.074C532.464 102.524 532.407 102.037 532.293 101.614C532.183 101.191 532.02 100.836 531.804 100.548C531.588 100.26 531.324 100.042 531.011 99.894C530.702 99.7459 530.351 99.6719 529.957 99.6719C529.576 99.6719 529.231 99.7459 528.922 99.894C528.618 100.042 528.355 100.26 528.135 100.548C527.919 100.836 527.752 101.191 527.634 101.614C527.515 102.037 527.456 102.524 527.456 103.074V103.671C527.456 104.225 527.515 104.716 527.634 105.144C527.752 105.567 527.922 105.924 528.142 106.216C528.366 106.504 528.63 106.722 528.935 106.87C529.244 107.018 529.589 107.092 529.97 107.092C530.368 107.092 530.721 107.018 531.03 106.87C531.339 106.722 531.599 106.504 531.811 106.216C532.026 105.924 532.189 105.567 532.299 105.144C532.409 104.716 532.464 104.225 532.464 103.671ZM536.508 102.598V108H535.333V101.132H536.444L536.508 102.598ZM536.229 104.306L535.74 104.287C535.744 103.817 535.814 103.383 535.949 102.985C536.085 102.583 536.275 102.234 536.521 101.938C536.766 101.642 537.058 101.413 537.396 101.252C537.739 101.087 538.118 101.005 538.533 101.005C538.871 101.005 539.176 101.051 539.447 101.145C539.718 101.233 539.948 101.377 540.139 101.576C540.333 101.775 540.481 102.033 540.583 102.351C540.685 102.664 540.735 103.047 540.735 103.5V108H539.555V103.487C539.555 103.127 539.502 102.839 539.396 102.624C539.29 102.403 539.136 102.245 538.933 102.147C538.729 102.046 538.48 101.995 538.184 101.995C537.892 101.995 537.625 102.056 537.384 102.179C537.147 102.302 536.942 102.471 536.768 102.687C536.599 102.903 536.465 103.15 536.368 103.43C536.275 103.705 536.229 103.997 536.229 104.306ZM545.369 108.127C544.891 108.127 544.457 108.047 544.068 107.886C543.683 107.721 543.351 107.49 543.071 107.194C542.796 106.898 542.585 106.546 542.437 106.14C542.288 105.734 542.214 105.29 542.214 104.807V104.541C542.214 103.982 542.297 103.485 542.462 103.049C542.627 102.609 542.851 102.236 543.135 101.932C543.418 101.627 543.74 101.396 544.1 101.24C544.459 101.083 544.832 101.005 545.217 101.005C545.708 101.005 546.131 101.09 546.486 101.259C546.846 101.428 547.14 101.665 547.369 101.97C547.597 102.27 547.766 102.626 547.876 103.036C547.986 103.442 548.042 103.887 548.042 104.369V104.896H542.913V103.938H546.867V103.849C546.85 103.544 546.787 103.248 546.677 102.96C546.571 102.672 546.402 102.435 546.169 102.249C545.936 102.063 545.619 101.97 545.217 101.97C544.95 101.97 544.705 102.027 544.48 102.141C544.256 102.251 544.064 102.416 543.903 102.636C543.742 102.856 543.617 103.125 543.528 103.442C543.439 103.76 543.395 104.126 543.395 104.541V104.807C543.395 105.133 543.439 105.44 543.528 105.728C543.621 106.011 543.755 106.261 543.928 106.477C544.106 106.692 544.32 106.862 544.569 106.984C544.823 107.107 545.111 107.168 545.433 107.168C545.847 107.168 546.199 107.084 546.486 106.915C546.774 106.745 547.026 106.519 547.242 106.235L547.953 106.8C547.805 107.025 547.616 107.238 547.388 107.441C547.159 107.645 546.878 107.81 546.543 107.937C546.213 108.063 545.822 108.127 545.369 108.127Z" fill="#505050"/>
<path d="M492.188 139.087V139.671C492.188 140.365 492.102 140.987 491.928 141.537C491.755 142.087 491.505 142.555 491.179 142.94C490.853 143.325 490.462 143.619 490.005 143.822C489.552 144.025 489.044 144.127 488.481 144.127C487.936 144.127 487.434 144.025 486.977 143.822C486.524 143.619 486.131 143.325 485.796 142.94C485.466 142.555 485.21 142.087 485.028 141.537C484.846 140.987 484.755 140.365 484.755 139.671V139.087C484.755 138.393 484.844 137.773 485.022 137.227C485.204 136.677 485.46 136.209 485.79 135.824C486.12 135.435 486.512 135.139 486.964 134.936C487.421 134.732 487.923 134.631 488.469 134.631C489.032 134.631 489.539 134.732 489.992 134.936C490.449 135.139 490.841 135.435 491.167 135.824C491.497 136.209 491.748 136.677 491.922 137.227C492.1 137.773 492.188 138.393 492.188 139.087ZM490.976 139.671V139.074C490.976 138.524 490.919 138.037 490.805 137.614C490.695 137.191 490.532 136.836 490.316 136.548C490.1 136.26 489.836 136.042 489.522 135.894C489.214 135.746 488.862 135.672 488.469 135.672C488.088 135.672 487.743 135.746 487.434 135.894C487.129 136.042 486.867 136.26 486.647 136.548C486.431 136.836 486.264 137.191 486.146 137.614C486.027 138.037 485.968 138.524 485.968 139.074V139.671C485.968 140.225 486.027 140.716 486.146 141.144C486.264 141.567 486.433 141.924 486.653 142.216C486.878 142.504 487.142 142.722 487.447 142.87C487.756 143.018 488.101 143.092 488.481 143.092C488.879 143.092 489.233 143.018 489.542 142.87C489.85 142.722 490.111 142.504 490.322 142.216C490.538 141.924 490.701 141.567 490.811 141.144C490.921 140.716 490.976 140.225 490.976 139.671ZM495.02 138.452V146.641H493.839V137.132H494.918L495.02 138.452ZM499.647 140.509V140.642C499.647 141.141 499.588 141.605 499.469 142.032C499.351 142.455 499.177 142.824 498.949 143.137C498.724 143.45 498.447 143.693 498.117 143.867C497.787 144.04 497.408 144.127 496.981 144.127C496.545 144.127 496.16 144.055 495.826 143.911C495.491 143.767 495.208 143.558 494.975 143.283C494.742 143.008 494.556 142.678 494.417 142.292C494.281 141.907 494.188 141.474 494.137 140.991V140.28C494.188 139.772 494.283 139.318 494.423 138.916C494.562 138.514 494.747 138.171 494.975 137.887C495.208 137.599 495.489 137.382 495.819 137.233C496.149 137.081 496.53 137.005 496.962 137.005C497.394 137.005 497.777 137.09 498.111 137.259C498.445 137.424 498.727 137.661 498.955 137.97C499.184 138.279 499.355 138.649 499.469 139.081C499.588 139.508 499.647 139.984 499.647 140.509ZM498.466 140.642V140.509C498.466 140.166 498.43 139.844 498.358 139.544C498.286 139.239 498.174 138.973 498.022 138.744C497.874 138.511 497.683 138.329 497.451 138.198C497.218 138.063 496.941 137.995 496.619 137.995C496.323 137.995 496.065 138.046 495.845 138.147C495.629 138.249 495.445 138.387 495.292 138.56C495.14 138.729 495.015 138.924 494.918 139.144C494.825 139.36 494.755 139.584 494.708 139.817V141.461C494.793 141.757 494.912 142.036 495.064 142.299C495.216 142.557 495.419 142.766 495.673 142.927C495.927 143.084 496.247 143.162 496.632 143.162C496.949 143.162 497.222 143.097 497.451 142.965C497.683 142.83 497.874 142.646 498.022 142.413C498.174 142.18 498.286 141.914 498.358 141.613C498.43 141.309 498.466 140.985 498.466 140.642ZM504.021 137.132V138.033H500.307V137.132H504.021ZM501.564 135.462H502.738V142.299C502.738 142.532 502.774 142.707 502.846 142.826C502.918 142.944 503.011 143.022 503.125 143.061C503.24 143.099 503.362 143.118 503.494 143.118C503.591 143.118 503.693 143.109 503.798 143.092C503.908 143.071 503.991 143.054 504.046 143.042L504.052 144C503.959 144.03 503.836 144.057 503.684 144.083C503.536 144.112 503.356 144.127 503.145 144.127C502.857 144.127 502.592 144.07 502.351 143.956C502.11 143.841 501.917 143.651 501.773 143.384C501.634 143.113 501.564 142.75 501.564 142.292V135.462ZM506.674 137.132V144H505.493V137.132H506.674ZM505.404 135.31C505.404 135.12 505.461 134.959 505.576 134.828C505.694 134.696 505.868 134.631 506.096 134.631C506.32 134.631 506.492 134.696 506.61 134.828C506.733 134.959 506.794 135.12 506.794 135.31C506.794 135.492 506.733 135.649 506.61 135.78C506.492 135.907 506.32 135.97 506.096 135.97C505.868 135.97 505.694 135.907 505.576 135.78C505.461 135.649 505.404 135.492 505.404 135.31ZM508.248 140.642V140.496C508.248 140.001 508.32 139.542 508.464 139.119C508.608 138.691 508.815 138.321 509.086 138.008C509.357 137.69 509.685 137.445 510.07 137.271C510.455 137.094 510.887 137.005 511.365 137.005C511.847 137.005 512.281 137.094 512.666 137.271C513.055 137.445 513.385 137.69 513.656 138.008C513.931 138.321 514.141 138.691 514.285 139.119C514.429 139.542 514.5 140.001 514.5 140.496V140.642C514.5 141.137 514.429 141.596 514.285 142.02C514.141 142.443 513.931 142.813 513.656 143.13C513.385 143.444 513.057 143.689 512.672 143.867C512.292 144.04 511.86 144.127 511.377 144.127C510.895 144.127 510.461 144.04 510.076 143.867C509.691 143.689 509.361 143.444 509.086 143.13C508.815 142.813 508.608 142.443 508.464 142.02C508.32 141.596 508.248 141.137 508.248 140.642ZM509.422 140.496V140.642C509.422 140.985 509.463 141.309 509.543 141.613C509.623 141.914 509.744 142.18 509.905 142.413C510.07 142.646 510.275 142.83 510.521 142.965C510.766 143.097 511.052 143.162 511.377 143.162C511.699 143.162 511.98 143.097 512.222 142.965C512.467 142.83 512.67 142.646 512.831 142.413C512.992 142.18 513.112 141.914 513.193 141.613C513.278 141.309 513.32 140.985 513.32 140.642V140.496C513.32 140.158 513.278 139.838 513.193 139.538C513.112 139.233 512.99 138.964 512.825 138.731C512.664 138.494 512.461 138.308 512.215 138.173C511.974 138.037 511.691 137.97 511.365 137.97C511.043 137.97 510.76 138.037 510.514 138.173C510.273 138.308 510.07 138.494 509.905 138.731C509.744 138.964 509.623 139.233 509.543 139.538C509.463 139.838 509.422 140.158 509.422 140.496ZM517.147 138.598V144H515.973V137.132H517.084L517.147 138.598ZM516.868 140.306L516.379 140.287C516.384 139.817 516.453 139.383 516.589 138.985C516.724 138.583 516.915 138.234 517.16 137.938C517.406 137.642 517.698 137.413 518.036 137.252C518.379 137.087 518.758 137.005 519.172 137.005C519.511 137.005 519.816 137.051 520.086 137.145C520.357 137.233 520.588 137.377 520.778 137.576C520.973 137.775 521.121 138.033 521.223 138.351C521.324 138.664 521.375 139.047 521.375 139.5V144H520.194V139.487C520.194 139.127 520.141 138.839 520.036 138.624C519.93 138.403 519.775 138.245 519.572 138.147C519.369 138.046 519.119 137.995 518.823 137.995C518.531 137.995 518.265 138.056 518.023 138.179C517.786 138.302 517.581 138.471 517.408 138.687C517.238 138.903 517.105 139.15 517.008 139.43C516.915 139.705 516.868 139.997 516.868 140.306ZM529.722 134.758V144H528.516V134.758H529.722ZM532.693 134.758V135.761H525.552V134.758H532.693ZM535.257 142.781L537.022 137.132H537.796L537.644 138.255L535.848 144H535.092L535.257 142.781ZM534.07 137.132L535.575 142.845L535.683 144H534.889L532.896 137.132H534.07ZM539.485 142.8L540.919 137.132H542.087L540.094 144H539.307L539.485 142.8ZM537.968 137.132L539.694 142.686L539.891 144H539.142L537.295 138.243L537.143 137.132H537.968ZM542.982 140.642V140.496C542.982 140.001 543.054 139.542 543.198 139.119C543.342 138.691 543.549 138.321 543.82 138.008C544.091 137.69 544.419 137.445 544.804 137.271C545.189 137.094 545.621 137.005 546.099 137.005C546.582 137.005 547.015 137.094 547.4 137.271C547.79 137.445 548.12 137.69 548.391 138.008C548.666 138.321 548.875 138.691 549.019 139.119C549.163 139.542 549.235 140.001 549.235 140.496V140.642C549.235 141.137 549.163 141.596 549.019 142.02C548.875 142.443 548.666 142.813 548.391 143.13C548.12 143.444 547.792 143.689 547.407 143.867C547.026 144.04 546.594 144.127 546.112 144.127C545.629 144.127 545.196 144.04 544.811 143.867C544.425 143.689 544.095 143.444 543.82 143.13C543.549 142.813 543.342 142.443 543.198 142.02C543.054 141.596 542.982 141.137 542.982 140.642ZM544.157 140.496V140.642C544.157 140.985 544.197 141.309 544.277 141.613C544.358 141.914 544.478 142.18 544.639 142.413C544.804 142.646 545.009 142.83 545.255 142.965C545.5 143.097 545.786 143.162 546.112 143.162C546.433 143.162 546.715 143.097 546.956 142.965C547.201 142.83 547.405 142.646 547.565 142.413C547.726 142.18 547.847 141.914 547.927 141.613C548.012 141.309 548.054 140.985 548.054 140.642V140.496C548.054 140.158 548.012 139.838 547.927 139.538C547.847 139.233 547.724 138.964 547.559 138.731C547.398 138.494 547.195 138.308 546.95 138.173C546.708 138.037 546.425 137.97 546.099 137.97C545.778 137.97 545.494 138.037 545.249 138.173C545.007 138.308 544.804 138.494 544.639 138.731C544.478 138.964 544.358 139.233 544.277 139.538C544.197 139.838 544.157 140.158 544.157 140.496Z" fill="#505050"/>
<path d="M492.188 175.087V175.671C492.188 176.365 492.102 176.987 491.928 177.537C491.755 178.087 491.505 178.555 491.179 178.94C490.853 179.325 490.462 179.619 490.005 179.822C489.552 180.025 489.044 180.127 488.481 180.127C487.936 180.127 487.434 180.025 486.977 179.822C486.524 179.619 486.131 179.325 485.796 178.94C485.466 178.555 485.21 178.087 485.028 177.537C484.846 176.987 484.755 176.365 484.755 175.671V175.087C484.755 174.393 484.844 173.773 485.022 173.227C485.204 172.677 485.46 172.209 485.79 171.824C486.12 171.435 486.512 171.139 486.964 170.936C487.421 170.732 487.923 170.631 488.469 170.631C489.032 170.631 489.539 170.732 489.992 170.936C490.449 171.139 490.841 171.435 491.167 171.824C491.497 172.209 491.748 172.677 491.922 173.227C492.1 173.773 492.188 174.393 492.188 175.087ZM490.976 175.671V175.074C490.976 174.524 490.919 174.037 490.805 173.614C490.695 173.191 490.532 172.836 490.316 172.548C490.1 172.26 489.836 172.042 489.522 171.894C489.214 171.746 488.862 171.672 488.469 171.672C488.088 171.672 487.743 171.746 487.434 171.894C487.129 172.042 486.867 172.26 486.647 172.548C486.431 172.836 486.264 173.191 486.146 173.614C486.027 174.037 485.968 174.524 485.968 175.074V175.671C485.968 176.225 486.027 176.716 486.146 177.144C486.264 177.567 486.433 177.924 486.653 178.216C486.878 178.504 487.142 178.722 487.447 178.87C487.756 179.018 488.101 179.092 488.481 179.092C488.879 179.092 489.233 179.018 489.542 178.87C489.85 178.722 490.111 178.504 490.322 178.216C490.538 177.924 490.701 177.567 490.811 177.144C490.921 176.716 490.976 176.225 490.976 175.671ZM495.02 174.452V182.641H493.839V173.132H494.918L495.02 174.452ZM499.647 176.509V176.642C499.647 177.141 499.588 177.605 499.469 178.032C499.351 178.455 499.177 178.824 498.949 179.137C498.724 179.45 498.447 179.693 498.117 179.867C497.787 180.04 497.408 180.127 496.981 180.127C496.545 180.127 496.16 180.055 495.826 179.911C495.491 179.767 495.208 179.558 494.975 179.283C494.742 179.008 494.556 178.678 494.417 178.292C494.281 177.907 494.188 177.474 494.137 176.991V176.28C494.188 175.772 494.283 175.318 494.423 174.916C494.562 174.514 494.747 174.171 494.975 173.887C495.208 173.599 495.489 173.382 495.819 173.233C496.149 173.081 496.53 173.005 496.962 173.005C497.394 173.005 497.777 173.09 498.111 173.259C498.445 173.424 498.727 173.661 498.955 173.97C499.184 174.279 499.355 174.649 499.469 175.081C499.588 175.508 499.647 175.984 499.647 176.509ZM498.466 176.642V176.509C498.466 176.166 498.43 175.844 498.358 175.544C498.286 175.239 498.174 174.973 498.022 174.744C497.874 174.511 497.683 174.329 497.451 174.198C497.218 174.063 496.941 173.995 496.619 173.995C496.323 173.995 496.065 174.046 495.845 174.147C495.629 174.249 495.445 174.387 495.292 174.56C495.14 174.729 495.015 174.924 494.918 175.144C494.825 175.36 494.755 175.584 494.708 175.817V177.461C494.793 177.757 494.912 178.036 495.064 178.299C495.216 178.557 495.419 178.766 495.673 178.927C495.927 179.084 496.247 179.162 496.632 179.162C496.949 179.162 497.222 179.097 497.451 178.965C497.683 178.83 497.874 178.646 498.022 178.413C498.174 178.18 498.286 177.914 498.358 177.613C498.43 177.309 498.466 176.985 498.466 176.642ZM504.021 173.132V174.033H500.307V173.132H504.021ZM501.564 171.462H502.738V178.299C502.738 178.532 502.774 178.707 502.846 178.826C502.918 178.944 503.011 179.022 503.125 179.061C503.24 179.099 503.362 179.118 503.494 179.118C503.591 179.118 503.693 179.109 503.798 179.092C503.908 179.071 503.991 179.054 504.046 179.042L504.052 180C503.959 180.03 503.836 180.057 503.684 180.083C503.536 180.112 503.356 180.127 503.145 180.127C502.857 180.127 502.592 180.07 502.351 179.956C502.11 179.841 501.917 179.651 501.773 179.384C501.634 179.113 501.564 178.75 501.564 178.292V171.462ZM506.674 173.132V180H505.493V173.132H506.674ZM505.404 171.31C505.404 171.12 505.461 170.959 505.576 170.828C505.694 170.696 505.868 170.631 506.096 170.631C506.32 170.631 506.492 170.696 506.61 170.828C506.733 170.959 506.794 171.12 506.794 171.31C506.794 171.492 506.733 171.649 506.61 171.78C506.492 171.907 506.32 171.97 506.096 171.97C505.868 171.97 505.694 171.907 505.576 171.78C505.461 171.649 505.404 171.492 505.404 171.31ZM508.248 176.642V176.496C508.248 176.001 508.32 175.542 508.464 175.119C508.608 174.691 508.815 174.321 509.086 174.008C509.357 173.69 509.685 173.445 510.07 173.271C510.455 173.094 510.887 173.005 511.365 173.005C511.847 173.005 512.281 173.094 512.666 173.271C513.055 173.445 513.385 173.69 513.656 174.008C513.931 174.321 514.141 174.691 514.285 175.119C514.429 175.542 514.5 176.001 514.5 176.496V176.642C514.5 177.137 514.429 177.596 514.285 178.02C514.141 178.443 513.931 178.813 513.656 179.13C513.385 179.444 513.057 179.689 512.672 179.867C512.292 180.04 511.86 180.127 511.377 180.127C510.895 180.127 510.461 180.04 510.076 179.867C509.691 179.689 509.361 179.444 509.086 179.13C508.815 178.813 508.608 178.443 508.464 178.02C508.32 177.596 508.248 177.137 508.248 176.642ZM509.422 176.496V176.642C509.422 176.985 509.463 177.309 509.543 177.613C509.623 177.914 509.744 178.18 509.905 178.413C510.07 178.646 510.275 178.83 510.521 178.965C510.766 179.097 511.052 179.162 511.377 179.162C511.699 179.162 511.98 179.097 512.222 178.965C512.467 178.83 512.67 178.646 512.831 178.413C512.992 178.18 513.112 177.914 513.193 177.613C513.278 177.309 513.32 176.985 513.32 176.642V176.496C513.32 176.158 513.278 175.838 513.193 175.538C513.112 175.233 512.99 174.964 512.825 174.731C512.664 174.494 512.461 174.308 512.215 174.173C511.974 174.037 511.691 173.97 511.365 173.97C511.043 173.97 510.76 174.037 510.514 174.173C510.273 174.308 510.07 174.494 509.905 174.731C509.744 174.964 509.623 175.233 509.543 175.538C509.463 175.838 509.422 176.158 509.422 176.496ZM517.147 174.598V180H515.973V173.132H517.084L517.147 174.598ZM516.868 176.306L516.379 176.287C516.384 175.817 516.453 175.383 516.589 174.985C516.724 174.583 516.915 174.234 517.16 173.938C517.406 173.642 517.698 173.413 518.036 173.252C518.379 173.087 518.758 173.005 519.172 173.005C519.511 173.005 519.816 173.051 520.086 173.145C520.357 173.233 520.588 173.377 520.778 173.576C520.973 173.775 521.121 174.033 521.223 174.351C521.324 174.664 521.375 175.047 521.375 175.5V180H520.194V175.487C520.194 175.127 520.141 174.839 520.036 174.624C519.93 174.403 519.775 174.245 519.572 174.147C519.369 174.046 519.119 173.995 518.823 173.995C518.531 173.995 518.265 174.056 518.023 174.179C517.786 174.302 517.581 174.471 517.408 174.687C517.238 174.903 517.105 175.15 517.008 175.43C516.915 175.705 516.868 175.997 516.868 176.306ZM529.722 170.758V180H528.516V170.758H529.722ZM532.693 170.758V171.761H525.552V170.758H532.693ZM535.061 170.25V180H533.886V170.25H535.061ZM534.781 176.306L534.292 176.287C534.297 175.817 534.367 175.383 534.502 174.985C534.637 174.583 534.828 174.234 535.073 173.938C535.319 173.642 535.611 173.413 535.949 173.252C536.292 173.087 536.671 173.005 537.085 173.005C537.424 173.005 537.729 173.051 538 173.145C538.27 173.233 538.501 173.377 538.691 173.576C538.886 173.775 539.034 174.033 539.136 174.351C539.237 174.664 539.288 175.047 539.288 175.5V180H538.107V175.487C538.107 175.127 538.055 174.839 537.949 174.624C537.843 174.403 537.688 174.245 537.485 174.147C537.282 174.046 537.033 173.995 536.736 173.995C536.444 173.995 536.178 174.056 535.937 174.179C535.7 174.302 535.494 174.471 535.321 174.687C535.152 174.903 535.018 175.15 534.921 175.43C534.828 175.705 534.781 175.997 534.781 176.306ZM542.221 174.211V180H541.046V173.132H542.189L542.221 174.211ZM544.366 173.094L544.36 174.186C544.263 174.164 544.169 174.152 544.081 174.147C543.996 174.139 543.899 174.135 543.789 174.135C543.518 174.135 543.279 174.177 543.071 174.262C542.864 174.346 542.688 174.465 542.544 174.617C542.401 174.77 542.286 174.951 542.202 175.163C542.121 175.37 542.068 175.599 542.043 175.849L541.713 176.039C541.713 175.624 541.753 175.235 541.833 174.871C541.918 174.507 542.047 174.186 542.221 173.906C542.394 173.623 542.614 173.403 542.881 173.246C543.152 173.085 543.473 173.005 543.846 173.005C543.93 173.005 544.028 173.015 544.138 173.037C544.248 173.054 544.324 173.073 544.366 173.094ZM548.175 180.127C547.697 180.127 547.263 180.047 546.874 179.886C546.488 179.721 546.156 179.49 545.877 179.194C545.602 178.898 545.39 178.546 545.242 178.14C545.094 177.734 545.02 177.29 545.02 176.807V176.541C545.02 175.982 545.103 175.485 545.268 175.049C545.433 174.609 545.657 174.236 545.94 173.932C546.224 173.627 546.546 173.396 546.905 173.24C547.265 173.083 547.637 173.005 548.022 173.005C548.513 173.005 548.937 173.09 549.292 173.259C549.652 173.428 549.946 173.665 550.174 173.97C550.403 174.27 550.572 174.626 550.682 175.036C550.792 175.442 550.847 175.887 550.847 176.369V176.896H545.718V175.938H549.673V175.849C549.656 175.544 549.592 175.248 549.482 174.96C549.377 174.672 549.207 174.435 548.975 174.249C548.742 174.063 548.424 173.97 548.022 173.97C547.756 173.97 547.51 174.027 547.286 174.141C547.062 174.251 546.869 174.416 546.708 174.636C546.548 174.856 546.423 175.125 546.334 175.442C546.245 175.76 546.201 176.126 546.201 176.541V176.807C546.201 177.133 546.245 177.44 546.334 177.728C546.427 178.011 546.56 178.261 546.734 178.477C546.912 178.692 547.125 178.862 547.375 178.984C547.629 179.107 547.917 179.168 548.238 179.168C548.653 179.168 549.004 179.084 549.292 178.915C549.58 178.745 549.832 178.519 550.047 178.235L550.758 178.8C550.61 179.025 550.422 179.238 550.193 179.441C549.965 179.645 549.683 179.81 549.349 179.937C549.019 180.063 548.628 180.127 548.175 180.127ZM555.068 180.127C554.59 180.127 554.156 180.047 553.767 179.886C553.382 179.721 553.05 179.49 552.771 179.194C552.495 178.898 552.284 178.546 552.136 178.14C551.988 177.734 551.914 177.29 551.914 176.807V176.541C551.914 175.982 551.996 175.485 552.161 175.049C552.326 174.609 552.55 174.236 552.834 173.932C553.118 173.627 553.439 173.396 553.799 173.24C554.159 173.083 554.531 173.005 554.916 173.005C555.407 173.005 555.83 173.09 556.186 173.259C556.545 173.428 556.839 173.665 557.068 173.97C557.296 174.27 557.466 174.626 557.576 175.036C557.686 175.442 557.741 175.887 557.741 176.369V176.896H552.612V175.938H556.566V175.849C556.549 175.544 556.486 175.248 556.376 174.96C556.27 174.672 556.101 174.435 555.868 174.249C555.635 174.063 555.318 173.97 554.916 173.97C554.649 173.97 554.404 174.027 554.18 174.141C553.955 174.251 553.763 174.416 553.602 174.636C553.441 174.856 553.316 175.125 553.228 175.442C553.139 175.76 553.094 176.126 553.094 176.541V176.807C553.094 177.133 553.139 177.44 553.228 177.728C553.321 178.011 553.454 178.261 553.627 178.477C553.805 178.692 554.019 178.862 554.269 178.984C554.522 179.107 554.81 179.168 555.132 179.168C555.547 179.168 555.898 179.084 556.186 178.915C556.473 178.745 556.725 178.519 556.941 178.235L557.652 178.8C557.504 179.025 557.315 179.238 557.087 179.441C556.858 179.645 556.577 179.81 556.243 179.937C555.913 180.063 555.521 180.127 555.068 180.127Z" fill="#505050"/>
<path d="M492.188 211.087V211.671C492.188 212.365 492.102 212.987 491.928 213.537C491.755 214.087 491.505 214.555 491.179 214.94C490.853 215.325 490.462 215.619 490.005 215.822C489.552 216.025 489.044 216.127 488.481 216.127C487.936 216.127 487.434 216.025 486.977 215.822C486.524 215.619 486.131 215.325 485.796 214.94C485.466 214.555 485.21 214.087 485.028 213.537C484.846 212.987 484.755 212.365 484.755 211.671V211.087C484.755 210.393 484.844 209.773 485.022 209.227C485.204 208.677 485.46 208.209 485.79 207.824C486.12 207.435 486.512 207.139 486.964 206.936C487.421 206.732 487.923 206.631 488.469 206.631C489.032 206.631 489.539 206.732 489.992 206.936C490.449 207.139 490.841 207.435 491.167 207.824C491.497 208.209 491.748 208.677 491.922 209.227C492.1 209.773 492.188 210.393 492.188 211.087ZM490.976 211.671V211.074C490.976 210.524 490.919 210.037 490.805 209.614C490.695 209.191 490.532 208.836 490.316 208.548C490.1 208.26 489.836 208.042 489.522 207.894C489.214 207.746 488.862 207.672 488.469 207.672C488.088 207.672 487.743 207.746 487.434 207.894C487.129 208.042 486.867 208.26 486.647 208.548C486.431 208.836 486.264 209.191 486.146 209.614C486.027 210.037 485.968 210.524 485.968 211.074V211.671C485.968 212.225 486.027 212.716 486.146 213.144C486.264 213.567 486.433 213.924 486.653 214.216C486.878 214.504 487.142 214.722 487.447 214.87C487.756 215.018 488.101 215.092 488.481 215.092C488.879 215.092 489.233 215.018 489.542 214.87C489.85 214.722 490.111 214.504 490.322 214.216C490.538 213.924 490.701 213.567 490.811 213.144C490.921 212.716 490.976 212.225 490.976 211.671ZM495.02 210.452V218.641H493.839V209.132H494.918L495.02 210.452ZM499.647 212.509V212.642C499.647 213.141 499.588 213.605 499.469 214.032C499.351 214.455 499.177 214.824 498.949 215.137C498.724 215.45 498.447 215.693 498.117 215.867C497.787 216.04 497.408 216.127 496.981 216.127C496.545 216.127 496.16 216.055 495.826 215.911C495.491 215.767 495.208 215.558 494.975 215.283C494.742 215.008 494.556 214.678 494.417 214.292C494.281 213.907 494.188 213.474 494.137 212.991V212.28C494.188 211.772 494.283 211.318 494.423 210.916C494.562 210.514 494.747 210.171 494.975 209.887C495.208 209.599 495.489 209.382 495.819 209.233C496.149 209.081 496.53 209.005 496.962 209.005C497.394 209.005 497.777 209.09 498.111 209.259C498.445 209.424 498.727 209.661 498.955 209.97C499.184 210.279 499.355 210.649 499.469 211.081C499.588 211.508 499.647 211.984 499.647 212.509ZM498.466 212.642V212.509C498.466 212.166 498.43 211.844 498.358 211.544C498.286 211.239 498.174 210.973 498.022 210.744C497.874 210.511 497.683 210.329 497.451 210.198C497.218 210.063 496.941 209.995 496.619 209.995C496.323 209.995 496.065 210.046 495.845 210.147C495.629 210.249 495.445 210.387 495.292 210.56C495.14 210.729 495.015 210.924 494.918 211.144C494.825 211.36 494.755 211.584 494.708 211.817V213.461C494.793 213.757 494.912 214.036 495.064 214.299C495.216 214.557 495.419 214.766 495.673 214.927C495.927 215.084 496.247 215.162 496.632 215.162C496.949 215.162 497.222 215.097 497.451 214.965C497.683 214.83 497.874 214.646 498.022 214.413C498.174 214.18 498.286 213.914 498.358 213.613C498.43 213.309 498.466 212.985 498.466 212.642ZM504.021 209.132V210.033H500.307V209.132H504.021ZM501.564 207.462H502.738V214.299C502.738 214.532 502.774 214.707 502.846 214.826C502.918 214.944 503.011 215.022 503.125 215.061C503.24 215.099 503.362 215.118 503.494 215.118C503.591 215.118 503.693 215.109 503.798 215.092C503.908 215.071 503.991 215.054 504.046 215.042L504.052 216C503.959 216.03 503.836 216.057 503.684 216.083C503.536 216.112 503.356 216.127 503.145 216.127C502.857 216.127 502.592 216.07 502.351 215.956C502.11 215.841 501.917 215.651 501.773 215.384C501.634 215.113 501.564 214.75 501.564 214.292V207.462ZM506.674 209.132V216H505.493V209.132H506.674ZM505.404 207.31C505.404 207.12 505.461 206.959 505.576 206.828C505.694 206.696 505.868 206.631 506.096 206.631C506.32 206.631 506.492 206.696 506.61 206.828C506.733 206.959 506.794 207.12 506.794 207.31C506.794 207.492 506.733 207.649 506.61 207.78C506.492 207.907 506.32 207.97 506.096 207.97C505.868 207.97 505.694 207.907 505.576 207.78C505.461 207.649 505.404 207.492 505.404 207.31ZM508.248 212.642V212.496C508.248 212.001 508.32 211.542 508.464 211.119C508.608 210.691 508.815 210.321 509.086 210.008C509.357 209.69 509.685 209.445 510.07 209.271C510.455 209.094 510.887 209.005 511.365 209.005C511.847 209.005 512.281 209.094 512.666 209.271C513.055 209.445 513.385 209.69 513.656 210.008C513.931 210.321 514.141 210.691 514.285 211.119C514.429 211.542 514.5 212.001 514.5 212.496V212.642C514.5 213.137 514.429 213.596 514.285 214.02C514.141 214.443 513.931 214.813 513.656 215.13C513.385 215.444 513.057 215.689 512.672 215.867C512.292 216.04 511.86 216.127 511.377 216.127C510.895 216.127 510.461 216.04 510.076 215.867C509.691 215.689 509.361 215.444 509.086 215.13C508.815 214.813 508.608 214.443 508.464 214.02C508.32 213.596 508.248 213.137 508.248 212.642ZM509.422 212.496V212.642C509.422 212.985 509.463 213.309 509.543 213.613C509.623 213.914 509.744 214.18 509.905 214.413C510.07 214.646 510.275 214.83 510.521 214.965C510.766 215.097 511.052 215.162 511.377 215.162C511.699 215.162 511.98 215.097 512.222 214.965C512.467 214.83 512.67 214.646 512.831 214.413C512.992 214.18 513.112 213.914 513.193 213.613C513.278 213.309 513.32 212.985 513.32 212.642V212.496C513.32 212.158 513.278 211.838 513.193 211.538C513.112 211.233 512.99 210.964 512.825 210.731C512.664 210.494 512.461 210.308 512.215 210.173C511.974 210.037 511.691 209.97 511.365 209.97C511.043 209.97 510.76 210.037 510.514 210.173C510.273 210.308 510.07 210.494 509.905 210.731C509.744 210.964 509.623 211.233 509.543 211.538C509.463 211.838 509.422 212.158 509.422 212.496ZM517.147 210.598V216H515.973V209.132H517.084L517.147 210.598ZM516.868 212.306L516.379 212.287C516.384 211.817 516.453 211.383 516.589 210.985C516.724 210.583 516.915 210.234 517.16 209.938C517.406 209.642 517.698 209.413 518.036 209.252C518.379 209.087 518.758 209.005 519.172 209.005C519.511 209.005 519.816 209.051 520.086 209.145C520.357 209.233 520.588 209.377 520.778 209.576C520.973 209.775 521.121 210.033 521.223 210.351C521.324 210.664 521.375 211.047 521.375 211.5V216H520.194V211.487C520.194 211.127 520.141 210.839 520.036 210.624C519.93 210.403 519.775 210.245 519.572 210.147C519.369 210.046 519.119 209.995 518.823 209.995C518.531 209.995 518.265 210.056 518.023 210.179C517.786 210.302 517.581 210.471 517.408 210.687C517.238 210.903 517.105 211.15 517.008 211.43C516.915 211.705 516.868 211.997 516.868 212.306ZM527.786 206.758V216H526.561V206.758H527.786ZM531.658 210.916V211.918H527.52V210.916H531.658ZM532.287 206.758V207.761H527.52V206.758H532.287ZM533.118 212.642V212.496C533.118 212.001 533.19 211.542 533.334 211.119C533.478 210.691 533.685 210.321 533.956 210.008C534.227 209.69 534.555 209.445 534.94 209.271C535.325 209.094 535.757 209.005 536.235 209.005C536.717 209.005 537.151 209.094 537.536 209.271C537.925 209.445 538.256 209.69 538.526 210.008C538.801 210.321 539.011 210.691 539.155 211.119C539.299 211.542 539.371 212.001 539.371 212.496V212.642C539.371 213.137 539.299 213.596 539.155 214.02C539.011 214.443 538.801 214.813 538.526 215.13C538.256 215.444 537.928 215.689 537.542 215.867C537.162 216.04 536.73 216.127 536.248 216.127C535.765 216.127 535.331 216.04 534.946 215.867C534.561 215.689 534.231 215.444 533.956 215.13C533.685 214.813 533.478 214.443 533.334 214.02C533.19 213.596 533.118 213.137 533.118 212.642ZM534.292 212.496V212.642C534.292 212.985 534.333 213.309 534.413 213.613C534.493 213.914 534.614 214.18 534.775 214.413C534.94 214.646 535.145 214.83 535.391 214.965C535.636 215.097 535.922 215.162 536.248 215.162C536.569 215.162 536.851 215.097 537.092 214.965C537.337 214.83 537.54 214.646 537.701 214.413C537.862 214.18 537.983 213.914 538.063 213.613C538.148 213.309 538.19 212.985 538.19 212.642V212.496C538.19 212.158 538.148 211.838 538.063 211.538C537.983 211.233 537.86 210.964 537.695 210.731C537.534 210.494 537.331 210.308 537.085 210.173C536.844 210.037 536.561 209.97 536.235 209.97C535.913 209.97 535.63 210.037 535.384 210.173C535.143 210.308 534.94 210.494 534.775 210.731C534.614 210.964 534.493 211.233 534.413 211.538C534.333 211.838 534.292 212.158 534.292 212.496ZM545.045 214.413V209.132H546.226V216H545.103L545.045 214.413ZM545.268 212.966L545.756 212.953C545.756 213.41 545.708 213.833 545.61 214.223C545.517 214.608 545.365 214.942 545.153 215.226C544.942 215.509 544.665 215.731 544.322 215.892C543.979 216.049 543.562 216.127 543.071 216.127C542.737 216.127 542.43 216.078 542.151 215.981C541.876 215.884 541.639 215.733 541.44 215.53C541.241 215.327 541.087 215.063 540.977 214.737C540.871 214.411 540.818 214.02 540.818 213.562V209.132H541.992V213.575C541.992 213.884 542.026 214.14 542.094 214.343C542.166 214.542 542.261 214.701 542.379 214.819C542.502 214.934 542.638 215.014 542.786 215.061C542.938 215.107 543.095 215.13 543.255 215.13C543.755 215.13 544.15 215.035 544.442 214.845C544.734 214.65 544.944 214.39 545.071 214.064C545.202 213.734 545.268 213.368 545.268 212.966ZM549.19 210.211V216H548.016V209.132H549.159L549.19 210.211ZM551.336 209.094L551.33 210.186C551.232 210.164 551.139 210.152 551.05 210.147C550.966 210.139 550.868 210.135 550.758 210.135C550.487 210.135 550.248 210.177 550.041 210.262C549.834 210.346 549.658 210.465 549.514 210.617C549.37 210.77 549.256 210.951 549.171 211.163C549.091 211.37 549.038 211.599 549.013 211.849L548.683 212.039C548.683 211.624 548.723 211.235 548.803 210.871C548.888 210.507 549.017 210.186 549.19 209.906C549.364 209.623 549.584 209.403 549.851 209.246C550.121 209.085 550.443 209.005 550.815 209.005C550.9 209.005 550.997 209.015 551.107 209.037C551.217 209.054 551.294 209.073 551.336 209.094Z" fill="#505050"/>
</g>
<rect x="600" y="40" width="32" height="32" rx="4" fill="#F2F2F2"/>
<path d="M622 56C622 56.5103 621.587 56.9234 621.077 56.9234H616.923V61.0772C616.923 61.5875 616.51 62 616 62C615.49 62 615.077 61.5875 615.077 61.0772V56.9234H610.923C610.413 56.9234 610 56.5103 610 56C610 55.4897 610.413 55.0772 610.923 55.0772H615.077V50.9234C615.077 50.4131 615.49 50 616 50C616.51 50 616.923 50.4131 616.923 50.9234V55.0772H621.077C621.588 55.0769 622 55.4894 622 56Z" fill="#1A1A1A"/>
<rect x="600" y="40" width="32" height="32" rx="4" stroke="#1A1A1A" stroke-width="2"/>
<defs>
<filter id="filter0_ddd_1708_35232" x="456" y="65" width="192" height="189" filterUnits="userSpaceOnUse" color-interpolation-filters="sRGB">
<feFlood flood-opacity="0" result="BackgroundImageFix"/>
<feColorMatrix in="SourceAlpha" type="matrix" values="0 0 0 0 0 0 0 0 0 0 0 0 0 0 0 0 0 0 127 0" result="hardAlpha"/>
<feOffset dy="2"/>
<feGaussianBlur stdDeviation="2"/>
<feColorMatrix type="matrix" values="0 0 0 0 0.45098 0 0 0 0 0.45098 0 0 0 0 0.45098 0 0 0 0.1 0"/>
<feBlend mode="normal" in2="BackgroundImageFix" result="effect1_dropShadow_1708_35232"/>
<feColorMatrix in="SourceAlpha" type="matrix" values="0 0 0 0 0 0 0 0 0 0 0 0 0 0 0 0 0 0 127 0" result="hardAlpha"/>
<feOffset dy="1"/>
<feGaussianBlur stdDeviation="8"/>
<feColorMatrix type="matrix" values="0 0 0 0 0.45098 0 0 0 0 0.45098 0 0 0 0 0.45098 0 0 0 0.05 0"/>
<feBlend mode="normal" in2="effect1_dropShadow_1708_35232" result="effect2_dropShadow_1708_35232"/>
<feColorMatrix in="SourceAlpha" type="matrix" values="0 0 0 0 0 0 0 0 0 0 0 0 0 0 0 0 0 0 127 0" result="hardAlpha"/>
<feOffset dy="6"/>
<feGaussianBlur stdDeviation="6"/>
<feColorMatrix type="matrix" values="0 0 0 0 0.45098 0 0 0 0 0.45098 0 0 0 0 0.45098 0 0 0 0.08 0"/>
<feBlend mode="normal" in2="effect2_dropShadow_1708_35232" result="effect3_dropShadow_1708_35232"/>
<feBlend mode="normal" in="SourceGraphic" in2="effect3_dropShadow_1708_35232" result="shape"/>
</filter>
<clipPath id="clip0_1708_35232">
<rect x="160" y="40" width="244" height="185" rx="4" fill="white"/>
</clipPath>
</defs>
</svg>
