<svg width="390" height="514" viewBox="0 0 390 514" fill="none" xmlns="http://www.w3.org/2000/svg">
<rect width="390" height="514" rx="4" fill="#F8F8F8"/>
<g filter="url(#filter0_d_1709_35238)">
<rect x="28" y="88" width="280" height="276" rx="8" fill="white" shape-rendering="crispEdges"/>
<path d="M58.3984 116.991H59.9854C59.9346 117.596 59.7653 118.136 59.4775 118.61C59.1898 119.08 58.7856 119.45 58.2651 119.721C57.7446 119.992 57.112 120.127 56.3672 120.127C55.7959 120.127 55.2817 120.025 54.8247 119.822C54.3677 119.615 53.9762 119.323 53.6504 118.946C53.3245 118.565 53.0749 118.106 52.9014 117.569C52.7321 117.031 52.6475 116.431 52.6475 115.766V114.998C52.6475 114.334 52.7342 113.733 52.9077 113.195C53.0854 112.658 53.3394 112.199 53.6694 111.818C53.9995 111.433 54.3952 111.139 54.8564 110.936C55.3219 110.732 55.8446 110.631 56.4243 110.631C57.1606 110.631 57.7827 110.766 58.2905 111.037C58.7983 111.308 59.1919 111.682 59.4712 112.161C59.7547 112.639 59.9282 113.187 59.9917 113.805H58.4048C58.3625 113.407 58.2694 113.066 58.1255 112.783C57.9858 112.499 57.7785 112.283 57.5034 112.135C57.2284 111.983 56.8687 111.907 56.4243 111.907C56.0604 111.907 55.743 111.974 55.4722 112.11C55.2013 112.245 54.9749 112.444 54.793 112.707C54.611 112.969 54.4735 113.293 54.3804 113.678C54.2915 114.059 54.2471 114.494 54.2471 114.985V115.766C54.2471 116.232 54.2873 116.655 54.3677 117.036C54.4523 117.412 54.5793 117.736 54.7485 118.007C54.922 118.278 55.1421 118.487 55.4087 118.635C55.6753 118.783 55.9948 118.857 56.3672 118.857C56.82 118.857 57.186 118.785 57.4653 118.642C57.7489 118.498 57.9626 118.288 58.1064 118.013C58.2546 117.734 58.3519 117.393 58.3984 116.991ZM68.5391 114.617V115.88H63.6323V114.617H68.5391ZM64.0259 110.758V120H62.4326V110.758H64.0259ZM69.7642 110.758V120H68.1772V110.758H69.7642ZM80.0317 115.125V115.633C80.0317 116.331 79.9408 116.957 79.7588 117.512C79.5768 118.066 79.3166 118.538 78.978 118.927C78.6437 119.317 78.2417 119.615 77.772 119.822C77.3022 120.025 76.7817 120.127 76.2104 120.127C75.6434 120.127 75.125 120.025 74.6553 119.822C74.1898 119.615 73.7856 119.317 73.4429 118.927C73.1001 118.538 72.8335 118.066 72.6431 117.512C72.4569 116.957 72.3638 116.331 72.3638 115.633V115.125C72.3638 114.427 72.4569 113.803 72.6431 113.252C72.8293 112.698 73.0916 112.226 73.4302 111.837C73.7729 111.443 74.1771 111.145 74.6426 110.942C75.1123 110.735 75.6307 110.631 76.1978 110.631C76.769 110.631 77.2896 110.735 77.7593 110.942C78.229 111.145 78.6331 111.443 78.9717 111.837C79.3102 112.226 79.5705 112.698 79.7524 113.252C79.9386 113.803 80.0317 114.427 80.0317 115.125ZM78.4385 115.633V115.112C78.4385 114.596 78.3877 114.141 78.2861 113.748C78.1888 113.35 78.0428 113.018 77.8481 112.751C77.6577 112.48 77.4229 112.277 77.1436 112.142C76.8643 112.002 76.549 111.932 76.1978 111.932C75.8465 111.932 75.5334 112.002 75.2583 112.142C74.9832 112.277 74.7484 112.48 74.5537 112.751C74.3633 113.018 74.2173 113.35 74.1157 113.748C74.0142 114.141 73.9634 114.596 73.9634 115.112V115.633C73.9634 116.149 74.0142 116.606 74.1157 117.004C74.2173 117.402 74.3654 117.738 74.5601 118.013C74.759 118.284 74.9959 118.489 75.271 118.629C75.5461 118.764 75.8592 118.832 76.2104 118.832C76.5659 118.832 76.8812 118.764 77.1562 118.629C77.4313 118.489 77.6641 118.284 77.8545 118.013C78.0449 117.738 78.1888 117.402 78.2861 117.004C78.3877 116.606 78.4385 116.149 78.4385 115.633ZM89.9946 115.125V115.633C89.9946 116.331 89.9036 116.957 89.7217 117.512C89.5397 118.066 89.2795 118.538 88.9409 118.927C88.6066 119.317 88.2046 119.615 87.7349 119.822C87.2651 120.025 86.7446 120.127 86.1733 120.127C85.6063 120.127 85.0879 120.025 84.6182 119.822C84.1527 119.615 83.7485 119.317 83.4058 118.927C83.063 118.538 82.7964 118.066 82.606 117.512C82.4198 116.957 82.3267 116.331 82.3267 115.633V115.125C82.3267 114.427 82.4198 113.803 82.606 113.252C82.7922 112.698 83.0545 112.226 83.3931 111.837C83.7358 111.443 84.14 111.145 84.6055 110.942C85.0752 110.735 85.5936 110.631 86.1606 110.631C86.7319 110.631 87.2524 110.735 87.7222 110.942C88.1919 111.145 88.596 111.443 88.9346 111.837C89.2731 112.226 89.5334 112.698 89.7153 113.252C89.9015 113.803 89.9946 114.427 89.9946 115.125ZM88.4014 115.633V115.112C88.4014 114.596 88.3506 114.141 88.249 113.748C88.1517 113.35 88.0057 113.018 87.811 112.751C87.6206 112.48 87.3857 112.277 87.1064 112.142C86.8271 112.002 86.5119 111.932 86.1606 111.932C85.8094 111.932 85.4963 112.002 85.2212 112.142C84.9461 112.277 84.7113 112.48 84.5166 112.751C84.3262 113.018 84.1802 113.35 84.0786 113.748C83.9771 114.141 83.9263 114.596 83.9263 115.112V115.633C83.9263 116.149 83.9771 116.606 84.0786 117.004C84.1802 117.402 84.3283 117.738 84.5229 118.013C84.7218 118.284 84.9588 118.489 85.2339 118.629C85.509 118.764 85.8221 118.832 86.1733 118.832C86.5288 118.832 86.8441 118.764 87.1191 118.629C87.3942 118.489 87.627 118.284 87.8174 118.013C88.0078 117.738 88.1517 117.402 88.249 117.004C88.3506 116.606 88.4014 116.149 88.4014 115.633ZM97.4502 117.62C97.4502 117.429 97.4206 117.26 97.3613 117.112C97.3063 116.964 97.2069 116.828 97.063 116.706C96.9191 116.583 96.716 116.464 96.4536 116.35C96.1955 116.232 95.8654 116.111 95.4634 115.988C95.0233 115.853 94.617 115.703 94.2446 115.538C93.8765 115.368 93.5549 115.174 93.2798 114.954C93.0047 114.729 92.791 114.473 92.6387 114.186C92.4863 113.894 92.4102 113.557 92.4102 113.176C92.4102 112.8 92.4884 112.457 92.645 112.148C92.8058 111.839 93.0322 111.572 93.3242 111.348C93.6204 111.12 93.9696 110.944 94.3716 110.821C94.7736 110.694 95.2179 110.631 95.7046 110.631C96.3901 110.631 96.9805 110.758 97.4756 111.012C97.9749 111.266 98.3579 111.606 98.6245 112.034C98.8953 112.461 99.0308 112.933 99.0308 113.449H97.4502C97.4502 113.145 97.3846 112.876 97.2534 112.643C97.1265 112.406 96.9318 112.22 96.6694 112.084C96.4113 111.949 96.0833 111.881 95.6855 111.881C95.3089 111.881 94.9958 111.938 94.7461 112.053C94.4964 112.167 94.3102 112.321 94.1875 112.516C94.0648 112.711 94.0034 112.931 94.0034 113.176C94.0034 113.35 94.0436 113.508 94.124 113.652C94.2044 113.792 94.3271 113.923 94.4922 114.046C94.6572 114.164 94.8646 114.277 95.1143 114.382C95.3639 114.488 95.658 114.59 95.9966 114.687C96.5086 114.839 96.9551 115.009 97.3359 115.195C97.7168 115.377 98.0342 115.584 98.2881 115.817C98.542 116.05 98.7324 116.314 98.8594 116.61C98.9863 116.902 99.0498 117.235 99.0498 117.607C99.0498 117.996 98.9715 118.347 98.8149 118.661C98.6584 118.97 98.4341 119.234 98.1421 119.454C97.8543 119.67 97.5073 119.837 97.1011 119.956C96.6991 120.07 96.2505 120.127 95.7554 120.127C95.311 120.127 94.873 120.068 94.4414 119.949C94.014 119.831 93.6247 119.651 93.2734 119.41C92.9222 119.164 92.6429 118.86 92.4355 118.496C92.2282 118.127 92.1245 117.698 92.1245 117.207H93.7178C93.7178 117.507 93.7686 117.764 93.8701 117.975C93.9759 118.187 94.1219 118.36 94.3081 118.496C94.4943 118.627 94.7101 118.724 94.9556 118.788C95.2052 118.851 95.4718 118.883 95.7554 118.883C96.1278 118.883 96.4388 118.83 96.6885 118.724C96.9424 118.618 97.1328 118.47 97.2598 118.28C97.3867 118.089 97.4502 117.869 97.4502 117.62ZM107.508 118.737V120H102.602V118.737H107.508ZM103.052 110.758V120H101.459V110.758H103.052ZM106.867 114.617V115.861H102.602V114.617H106.867ZM107.477 110.758V112.027H102.602V110.758H107.477ZM117.544 110.758V120H115.964V110.758H117.544ZM120.445 110.758V112.027H113.088V110.758H120.445ZM128.713 118.737V120H123.807V118.737H128.713ZM124.257 110.758V120H122.664V110.758H124.257ZM128.072 114.617V115.861H123.807V114.617H128.072ZM128.682 110.758V112.027H123.807V110.758H128.682ZM131.662 110.758H133.084L135.756 117.886L138.422 110.758H139.844L136.315 120H135.185L131.662 110.758ZM131.015 110.758H132.367L132.602 116.928V120H131.015V110.758ZM139.14 110.758H140.498V120H138.905V116.928L139.14 110.758ZM146.9 116.553H144.494V115.29H146.9C147.319 115.29 147.657 115.222 147.916 115.087C148.174 114.951 148.362 114.765 148.48 114.528C148.603 114.287 148.665 114.012 148.665 113.703C148.665 113.411 148.603 113.138 148.48 112.884C148.362 112.626 148.174 112.419 147.916 112.262C147.657 112.106 147.319 112.027 146.9 112.027H144.983V120H143.39V110.758H146.9C147.615 110.758 148.222 110.885 148.722 111.139C149.225 111.388 149.608 111.735 149.871 112.18C150.133 112.62 150.264 113.123 150.264 113.69C150.264 114.287 150.133 114.799 149.871 115.227C149.608 115.654 149.225 115.982 148.722 116.21C148.222 116.439 147.615 116.553 146.9 116.553ZM158.481 118.737V120H153.841V118.737H158.481ZM154.286 110.758V120H152.692V110.758H154.286ZM164.439 111.989L161.678 120H160.008L163.487 110.758H164.553L164.439 111.989ZM166.75 120L163.982 111.989L163.861 110.758H164.934L168.425 120H166.75ZM166.616 116.572V117.835H161.589V116.572H166.616ZM173.462 110.758V120H171.882V110.758H173.462ZM176.363 110.758V112.027H169.006V110.758H176.363ZM184.631 118.737V120H179.725V118.737H184.631ZM180.175 110.758V120H178.582V110.758H180.175ZM183.99 114.617V115.861H179.725V114.617H183.99ZM184.6 110.758V112.027H179.725V110.758H184.6Z" fill="#737373"/>
<path fill-rule="evenodd" clip-rule="evenodd" d="M61.5667 154.259H63.8889C64.1836 154.259 64.4662 154.393 64.6746 154.632C64.8829 154.871 65 155.195 65 155.533V165.726C65 166.064 64.8829 166.388 64.6746 166.627C64.4662 166.866 64.1836 167 63.8889 167H56.1111C55.8164 167 55.5338 166.866 55.3255 166.627C55.1171 166.388 55 166.064 55 165.726V155.533C55 155.195 55.1171 154.871 55.3255 154.632C55.5338 154.393 55.8164 154.259 56.1111 154.259H58.4333C58.5501 153.89 58.7631 153.571 59.0434 153.346C59.3237 153.121 59.6577 153 60 153C60.3423 153 60.6763 153.121 60.9566 153.346C61.2369 153.571 61.4499 153.89 61.5667 154.259ZM60.3086 154.366C60.2172 154.296 60.1099 154.259 60 154.259C59.8527 154.259 59.7114 154.326 59.6072 154.446C59.503 154.565 59.4444 154.727 59.4444 154.896C59.4444 155.022 59.477 155.145 59.5381 155.25C59.5991 155.355 59.6859 155.437 59.7874 155.485C59.8889 155.533 60.0006 155.546 60.1084 155.521C60.2161 155.496 60.3151 155.436 60.3928 155.347C60.4705 155.258 60.5234 155.144 60.5449 155.02C60.5663 154.897 60.5553 154.769 60.5133 154.652C60.4713 154.536 60.4 154.436 60.3086 154.366ZM56.1111 155.533V165.726H63.8889V155.533H62.2222V156.807H57.7778V155.533H56.1111ZM57.7778 160.629H62.2222C62.3696 160.629 62.5109 160.696 62.6151 160.816C62.7193 160.935 62.7778 161.097 62.7778 161.266C62.7778 161.435 62.7193 161.597 62.6151 161.717C62.5109 161.836 62.3696 161.903 62.2222 161.903H57.7778C57.6304 161.903 57.4891 161.836 57.3849 161.717C57.2807 161.597 57.2222 161.435 57.2222 161.266C57.2222 161.097 57.2807 160.935 57.3849 160.816C57.4891 160.696 57.6304 160.629 57.7778 160.629ZM62.2222 158.718H57.7778C57.6304 158.718 57.4891 158.785 57.3849 158.905C57.2807 159.024 57.2222 159.186 57.2222 159.355C57.2222 159.524 57.2807 159.686 57.3849 159.805C57.4891 159.925 57.6304 159.992 57.7778 159.992H62.2222C62.3696 159.992 62.5109 159.925 62.6151 159.805C62.7193 159.686 62.7778 159.524 62.7778 159.355C62.7778 159.186 62.7193 159.024 62.6151 158.905C62.5109 158.785 62.3696 158.718 62.2222 158.718ZM60 162.54H62.2222C62.3696 162.54 62.5109 162.607 62.6151 162.727C62.7193 162.846 62.7778 163.008 62.7778 163.177C62.7778 163.346 62.7193 163.508 62.6151 163.628C62.5109 163.747 62.3696 163.814 62.2222 163.814H60C59.8527 163.814 59.7114 163.747 59.6072 163.628C59.503 163.508 59.4444 163.346 59.4444 163.177C59.4444 163.008 59.503 162.846 59.6072 162.727C59.7114 162.607 59.8527 162.54 60 162.54Z" fill="#505050"/>
<path d="M83.3828 161.528H85.2139C85.1553 162.227 84.96 162.849 84.6279 163.396C84.2959 163.938 83.8296 164.365 83.229 164.678C82.6284 164.99 81.8984 165.146 81.0391 165.146C80.3799 165.146 79.7866 165.029 79.2593 164.795C78.7319 164.556 78.2803 164.219 77.9043 163.784C77.5283 163.345 77.2402 162.815 77.04 162.195C76.8447 161.575 76.7471 160.881 76.7471 160.115V159.229C76.7471 158.462 76.8472 157.769 77.0474 157.148C77.2524 156.528 77.5454 155.999 77.9263 155.559C78.3071 155.115 78.7637 154.775 79.2959 154.541C79.833 154.307 80.436 154.189 81.105 154.189C81.9546 154.189 82.6724 154.346 83.2583 154.658C83.8442 154.971 84.2983 155.403 84.6206 155.955C84.9478 156.506 85.1479 157.139 85.2212 157.852H83.3901C83.3413 157.393 83.2339 157 83.0679 156.672C82.9067 156.345 82.6675 156.096 82.3501 155.925C82.0327 155.75 81.6177 155.662 81.105 155.662C80.6851 155.662 80.3188 155.74 80.0063 155.896C79.6938 156.052 79.4326 156.282 79.2227 156.584C79.0127 156.887 78.854 157.261 78.7466 157.705C78.644 158.145 78.5928 158.647 78.5928 159.214V160.115C78.5928 160.652 78.6392 161.14 78.7319 161.58C78.8296 162.014 78.9761 162.388 79.1714 162.7C79.3716 163.013 79.6255 163.254 79.9331 163.425C80.2407 163.596 80.6094 163.682 81.0391 163.682C81.5615 163.682 81.9839 163.599 82.3062 163.433C82.6333 163.267 82.8799 163.025 83.0459 162.708C83.2168 162.385 83.3291 161.992 83.3828 161.528ZM86.3711 161.125V160.957C86.3711 160.386 86.4541 159.856 86.6201 159.368C86.7861 158.875 87.0254 158.447 87.3379 158.086C87.6553 157.72 88.041 157.437 88.4951 157.236C88.9541 157.031 89.4717 156.929 90.0479 156.929C90.6289 156.929 91.1465 157.031 91.6006 157.236C92.0596 157.437 92.4478 157.72 92.7651 158.086C93.0825 158.447 93.3242 158.875 93.4902 159.368C93.6562 159.856 93.7393 160.386 93.7393 160.957V161.125C93.7393 161.697 93.6562 162.227 93.4902 162.715C93.3242 163.203 93.0825 163.63 92.7651 163.997C92.4478 164.358 92.062 164.641 91.6079 164.846C91.1538 165.046 90.6387 165.146 90.0625 165.146C89.4814 165.146 88.9614 165.046 88.5024 164.846C88.0483 164.641 87.6626 164.358 87.3452 163.997C87.0278 163.63 86.7861 163.203 86.6201 162.715C86.4541 162.227 86.3711 161.697 86.3711 161.125ZM88.1362 160.957V161.125C88.1362 161.482 88.1729 161.819 88.2461 162.136C88.3193 162.454 88.4341 162.732 88.5903 162.971C88.7466 163.21 88.9468 163.398 89.1909 163.535C89.4351 163.672 89.7256 163.74 90.0625 163.74C90.3896 163.74 90.6729 163.672 90.9121 163.535C91.1562 163.398 91.3564 163.21 91.5127 162.971C91.6689 162.732 91.7837 162.454 91.8569 162.136C91.9351 161.819 91.9741 161.482 91.9741 161.125V160.957C91.9741 160.605 91.9351 160.273 91.8569 159.961C91.7837 159.644 91.6665 159.363 91.5054 159.119C91.3491 158.875 91.1489 158.684 90.9048 158.547C90.6655 158.406 90.3799 158.335 90.0479 158.335C89.7158 158.335 89.4277 158.406 89.1836 158.547C88.9443 158.684 88.7466 158.875 88.5903 159.119C88.4341 159.363 88.3193 159.644 88.2461 159.961C88.1729 160.273 88.1362 160.605 88.1362 160.957ZM96.9692 158.767V165H95.2041V157.075H96.8667L96.9692 158.767ZM96.6543 160.745L96.083 160.737C96.0879 160.176 96.166 159.661 96.3174 159.192C96.4736 158.723 96.6885 158.32 96.9619 157.983C97.2402 157.646 97.5723 157.388 97.958 157.207C98.3438 157.021 98.7734 156.929 99.2471 156.929C99.6279 156.929 99.9722 156.982 100.28 157.09C100.592 157.192 100.858 157.361 101.078 157.595C101.303 157.83 101.474 158.135 101.591 158.511C101.708 158.882 101.767 159.338 101.767 159.88V165H99.9941V159.873C99.9941 159.492 99.938 159.192 99.8257 158.972C99.7183 158.748 99.5596 158.589 99.3496 158.496C99.1445 158.398 98.8882 158.35 98.5806 158.35C98.2778 158.35 98.0068 158.413 97.7676 158.54C97.5283 158.667 97.3257 158.84 97.1597 159.06C96.9985 159.28 96.874 159.534 96.7861 159.822C96.6982 160.11 96.6543 160.417 96.6543 160.745ZM107.201 157.075V158.364H102.733V157.075H107.201ZM104.022 155.134H105.788V162.81C105.788 163.054 105.822 163.242 105.89 163.374C105.963 163.501 106.063 163.586 106.19 163.63C106.317 163.674 106.466 163.696 106.637 163.696C106.759 163.696 106.876 163.689 106.989 163.674C107.101 163.66 107.191 163.645 107.26 163.63L107.267 164.978C107.121 165.022 106.95 165.061 106.754 165.095C106.564 165.129 106.344 165.146 106.095 165.146C105.69 165.146 105.331 165.076 105.019 164.934C104.706 164.788 104.462 164.551 104.286 164.224C104.11 163.896 104.022 163.462 104.022 162.92V155.134ZM113.031 163.411V159.631C113.031 159.348 112.98 159.104 112.877 158.899C112.775 158.694 112.619 158.535 112.409 158.423C112.204 158.311 111.945 158.254 111.632 158.254C111.344 158.254 111.095 158.303 110.885 158.401C110.675 158.499 110.512 158.63 110.395 158.796C110.277 158.962 110.219 159.15 110.219 159.36H108.461C108.461 159.048 108.537 158.745 108.688 158.452C108.839 158.159 109.059 157.898 109.347 157.668C109.635 157.439 109.979 157.258 110.38 157.126C110.78 156.995 111.229 156.929 111.728 156.929C112.323 156.929 112.851 157.029 113.31 157.229C113.773 157.429 114.137 157.732 114.401 158.137C114.669 158.538 114.804 159.041 114.804 159.646V163.169C114.804 163.53 114.828 163.855 114.877 164.143C114.931 164.426 115.006 164.673 115.104 164.883V165H113.295C113.212 164.81 113.146 164.568 113.097 164.275C113.053 163.977 113.031 163.689 113.031 163.411ZM113.288 160.181L113.302 161.272H112.035C111.708 161.272 111.42 161.304 111.171 161.367C110.922 161.426 110.714 161.514 110.548 161.631C110.382 161.748 110.258 161.89 110.175 162.056C110.092 162.222 110.05 162.41 110.05 162.62C110.05 162.83 110.099 163.022 110.197 163.198C110.294 163.369 110.436 163.503 110.622 163.601C110.812 163.699 111.042 163.748 111.31 163.748C111.671 163.748 111.986 163.674 112.255 163.528C112.528 163.376 112.743 163.193 112.899 162.979C113.056 162.759 113.139 162.551 113.148 162.356L113.72 163.14C113.661 163.34 113.561 163.555 113.419 163.784C113.278 164.014 113.092 164.233 112.863 164.443C112.638 164.648 112.367 164.817 112.05 164.949C111.737 165.081 111.376 165.146 110.966 165.146C110.448 165.146 109.987 165.044 109.582 164.839C109.176 164.629 108.859 164.348 108.629 163.997C108.4 163.64 108.285 163.237 108.285 162.788C108.285 162.368 108.363 161.997 108.52 161.675C108.681 161.348 108.915 161.074 109.223 160.854C109.535 160.635 109.916 160.469 110.365 160.356C110.814 160.239 111.327 160.181 111.903 160.181H113.288ZM119.887 163.74C120.175 163.74 120.434 163.684 120.663 163.572C120.897 163.455 121.085 163.293 121.227 163.088C121.374 162.883 121.454 162.646 121.469 162.378H123.131C123.122 162.891 122.97 163.357 122.677 163.777C122.384 164.197 121.996 164.531 121.513 164.78C121.029 165.024 120.495 165.146 119.909 165.146C119.303 165.146 118.776 165.044 118.327 164.839C117.877 164.629 117.504 164.341 117.206 163.975C116.908 163.608 116.684 163.186 116.532 162.708C116.386 162.229 116.312 161.716 116.312 161.169V160.913C116.312 160.366 116.386 159.854 116.532 159.375C116.684 158.892 116.908 158.467 117.206 158.101C117.504 157.734 117.877 157.449 118.327 157.244C118.776 157.034 119.301 156.929 119.901 156.929C120.536 156.929 121.093 157.056 121.571 157.31C122.05 157.559 122.426 157.908 122.699 158.357C122.978 158.801 123.122 159.319 123.131 159.91H121.469C121.454 159.617 121.381 159.353 121.249 159.119C121.122 158.879 120.941 158.689 120.707 158.547C120.478 158.406 120.202 158.335 119.879 158.335C119.523 158.335 119.228 158.408 118.993 158.555C118.759 158.696 118.576 158.892 118.444 159.141C118.312 159.385 118.217 159.661 118.158 159.968C118.104 160.271 118.078 160.586 118.078 160.913V161.169C118.078 161.497 118.104 161.814 118.158 162.122C118.212 162.429 118.305 162.705 118.437 162.949C118.573 163.188 118.759 163.381 118.993 163.528C119.228 163.669 119.525 163.74 119.887 163.74ZM128.119 157.075V158.364H123.651V157.075H128.119ZM124.94 155.134H126.706V162.81C126.706 163.054 126.74 163.242 126.808 163.374C126.881 163.501 126.981 163.586 127.108 163.63C127.235 163.674 127.384 163.696 127.555 163.696C127.677 163.696 127.794 163.689 127.907 163.674C128.019 163.66 128.109 163.645 128.178 163.63L128.185 164.978C128.039 165.022 127.868 165.061 127.672 165.095C127.482 165.129 127.262 165.146 127.013 165.146C126.608 165.146 126.249 165.076 125.937 164.934C125.624 164.788 125.38 164.551 125.204 164.224C125.028 163.896 124.94 163.462 124.94 162.92V155.134ZM135.231 154.336V165H133.393V154.336H135.231ZM139.582 159.001V160.459H134.762V159.001H139.582ZM140.189 154.336V155.801H134.762V154.336H140.189ZM140.98 161.125V160.957C140.98 160.386 141.063 159.856 141.229 159.368C141.396 158.875 141.635 158.447 141.947 158.086C142.265 157.72 142.65 157.437 143.104 157.236C143.563 157.031 144.081 156.929 144.657 156.929C145.238 156.929 145.756 157.031 146.21 157.236C146.669 157.437 147.057 157.72 147.375 158.086C147.692 158.447 147.934 158.875 148.1 159.368C148.266 159.856 148.349 160.386 148.349 160.957V161.125C148.349 161.697 148.266 162.227 148.1 162.715C147.934 163.203 147.692 163.63 147.375 163.997C147.057 164.358 146.671 164.641 146.217 164.846C145.763 165.046 145.248 165.146 144.672 165.146C144.091 165.146 143.571 165.046 143.112 164.846C142.658 164.641 142.272 164.358 141.955 163.997C141.637 163.63 141.396 163.203 141.229 162.715C141.063 162.227 140.98 161.697 140.98 161.125ZM142.746 160.957V161.125C142.746 161.482 142.782 161.819 142.855 162.136C142.929 162.454 143.043 162.732 143.2 162.971C143.356 163.21 143.556 163.398 143.8 163.535C144.044 163.672 144.335 163.74 144.672 163.74C144.999 163.74 145.282 163.672 145.521 163.535C145.766 163.398 145.966 163.21 146.122 162.971C146.278 162.732 146.393 162.454 146.466 162.136C146.544 161.819 146.583 161.482 146.583 161.125V160.957C146.583 160.605 146.544 160.273 146.466 159.961C146.393 159.644 146.276 159.363 146.115 159.119C145.958 158.875 145.758 158.684 145.514 158.547C145.275 158.406 144.989 158.335 144.657 158.335C144.325 158.335 144.037 158.406 143.793 158.547C143.554 158.684 143.356 158.875 143.2 159.119C143.043 159.363 142.929 159.644 142.855 159.961C142.782 160.273 142.746 160.605 142.746 160.957ZM151.601 158.584V165H149.835V157.075H151.52L151.601 158.584ZM154.025 157.024L154.01 158.665C153.903 158.645 153.786 158.63 153.659 158.621C153.537 158.611 153.415 158.606 153.292 158.606C152.99 158.606 152.724 158.65 152.494 158.738C152.265 158.821 152.072 158.943 151.916 159.104C151.764 159.26 151.647 159.451 151.564 159.675C151.481 159.9 151.432 160.151 151.417 160.43L151.015 160.459C151.015 159.961 151.063 159.5 151.161 159.075C151.259 158.65 151.405 158.276 151.601 157.954C151.801 157.632 152.05 157.38 152.348 157.2C152.65 157.019 153 156.929 153.395 156.929C153.502 156.929 153.617 156.938 153.739 156.958C153.866 156.978 153.961 157 154.025 157.024ZM156.896 158.687V165H155.131V157.075H156.793L156.896 158.687ZM156.61 160.745L156.01 160.737C156.01 160.19 156.078 159.685 156.215 159.221C156.352 158.757 156.552 158.354 156.815 158.013C157.079 157.666 157.406 157.4 157.797 157.214C158.192 157.024 158.649 156.929 159.167 156.929C159.528 156.929 159.857 156.982 160.155 157.09C160.458 157.192 160.719 157.356 160.939 157.581C161.164 157.805 161.334 158.093 161.452 158.445C161.574 158.796 161.635 159.221 161.635 159.719V165H159.87V159.873C159.87 159.487 159.811 159.185 159.694 158.965C159.582 158.745 159.418 158.589 159.203 158.496C158.993 158.398 158.742 158.35 158.449 158.35C158.117 158.35 157.833 158.413 157.599 158.54C157.37 158.667 157.182 158.84 157.035 159.06C156.889 159.28 156.781 159.534 156.713 159.822C156.645 160.11 156.61 160.417 156.61 160.745ZM161.525 160.276L160.697 160.459C160.697 159.98 160.763 159.529 160.895 159.104C161.032 158.674 161.229 158.298 161.488 157.976C161.752 157.649 162.077 157.393 162.462 157.207C162.848 157.021 163.29 156.929 163.788 156.929C164.193 156.929 164.555 156.985 164.872 157.097C165.194 157.205 165.468 157.375 165.692 157.61C165.917 157.844 166.088 158.149 166.205 158.525C166.322 158.896 166.381 159.346 166.381 159.873V165H164.608V159.866C164.608 159.465 164.55 159.155 164.433 158.936C164.32 158.716 164.159 158.564 163.949 158.481C163.739 158.394 163.488 158.35 163.195 158.35C162.921 158.35 162.68 158.401 162.47 158.503C162.265 158.601 162.091 158.74 161.95 158.921C161.808 159.097 161.701 159.299 161.627 159.529C161.559 159.758 161.525 160.007 161.525 160.276Z" fill="#505050"/>
<rect width="280" height="40" transform="translate(28 184)" fill="#F2F2F2"/>
<path fill-rule="evenodd" clip-rule="evenodd" d="M61.5667 198.259H63.8889C64.1836 198.259 64.4662 198.393 64.6746 198.632C64.8829 198.871 65 199.195 65 199.533V209.726C65 210.064 64.8829 210.388 64.6746 210.627C64.4662 210.866 64.1836 211 63.8889 211H56.1111C55.8164 211 55.5338 210.866 55.3255 210.627C55.1171 210.388 55 210.064 55 209.726V199.533C55 199.195 55.1171 198.871 55.3255 198.632C55.5338 198.393 55.8164 198.259 56.1111 198.259H58.4333C58.5501 197.89 58.7631 197.571 59.0434 197.346C59.3237 197.121 59.6577 197 60 197C60.3423 197 60.6763 197.121 60.9566 197.346C61.2369 197.571 61.4499 197.89 61.5667 198.259ZM60.3086 198.366C60.2172 198.296 60.1099 198.259 60 198.259C59.8527 198.259 59.7114 198.326 59.6072 198.446C59.503 198.565 59.4444 198.727 59.4444 198.896C59.4444 199.022 59.477 199.145 59.5381 199.25C59.5991 199.355 59.6859 199.437 59.7874 199.485C59.8889 199.533 60.0006 199.546 60.1084 199.521C60.2161 199.496 60.3151 199.436 60.3928 199.347C60.4705 199.258 60.5234 199.144 60.5449 199.02C60.5663 198.897 60.5553 198.769 60.5133 198.652C60.4713 198.536 60.4 198.436 60.3086 198.366ZM56.1111 199.533V209.726H63.8889V199.533H62.2222V200.807H57.7778V199.533H56.1111ZM57.7778 204.629H62.2222C62.3696 204.629 62.5109 204.696 62.6151 204.816C62.7193 204.935 62.7778 205.097 62.7778 205.266C62.7778 205.435 62.7193 205.597 62.6151 205.717C62.5109 205.836 62.3696 205.903 62.2222 205.903H57.7778C57.6304 205.903 57.4891 205.836 57.3849 205.717C57.2807 205.597 57.2222 205.435 57.2222 205.266C57.2222 205.097 57.2807 204.935 57.3849 204.816C57.4891 204.696 57.6304 204.629 57.7778 204.629ZM62.2222 202.718H57.7778C57.6304 202.718 57.4891 202.785 57.3849 202.905C57.2807 203.024 57.2222 203.186 57.2222 203.355C57.2222 203.524 57.2807 203.686 57.3849 203.805C57.4891 203.925 57.6304 203.992 57.7778 203.992H62.2222C62.3696 203.992 62.5109 203.925 62.6151 203.805C62.7193 203.686 62.7778 203.524 62.7778 203.355C62.7778 203.186 62.7193 203.024 62.6151 202.905C62.5109 202.785 62.3696 202.718 62.2222 202.718ZM60 206.54H62.2222C62.3696 206.54 62.5109 206.607 62.6151 206.727C62.7193 206.846 62.7778 207.008 62.7778 207.177C62.7778 207.346 62.7193 207.508 62.6151 207.628C62.5109 207.747 62.3696 207.814 62.2222 207.814H60C59.8527 207.814 59.7114 207.747 59.6072 207.628C59.503 207.508 59.4444 207.346 59.4444 207.177C59.4444 207.008 59.503 206.846 59.6072 206.727C59.7114 206.607 59.8527 206.54 60 206.54Z" fill="#505050"/>
<path d="M83.7637 207.542V209H78.4097V207.542H83.7637ZM78.9224 198.336V209H77.084V198.336H78.9224ZM84.6719 205.125V204.957C84.6719 204.386 84.7549 203.856 84.9209 203.368C85.0869 202.875 85.3262 202.447 85.6387 202.086C85.9561 201.72 86.3418 201.437 86.7959 201.236C87.2549 201.031 87.7725 200.929 88.3486 200.929C88.9297 200.929 89.4473 201.031 89.9014 201.236C90.3604 201.437 90.7485 201.72 91.0659 202.086C91.3833 202.447 91.625 202.875 91.791 203.368C91.957 203.856 92.04 204.386 92.04 204.957V205.125C92.04 205.697 91.957 206.227 91.791 206.715C91.625 207.203 91.3833 207.63 91.0659 207.997C90.7485 208.358 90.3628 208.641 89.9087 208.846C89.4546 209.046 88.9395 209.146 88.3633 209.146C87.7822 209.146 87.2622 209.046 86.8032 208.846C86.3491 208.641 85.9634 208.358 85.646 207.997C85.3286 207.63 85.0869 207.203 84.9209 206.715C84.7549 206.227 84.6719 205.697 84.6719 205.125ZM86.437 204.957V205.125C86.437 205.482 86.4736 205.819 86.5469 206.136C86.6201 206.454 86.7349 206.732 86.8911 206.971C87.0474 207.21 87.2476 207.398 87.4917 207.535C87.7358 207.672 88.0264 207.74 88.3633 207.74C88.6904 207.74 88.9736 207.672 89.2129 207.535C89.457 207.398 89.6572 207.21 89.8135 206.971C89.9697 206.732 90.0845 206.454 90.1577 206.136C90.2358 205.819 90.2749 205.482 90.2749 205.125V204.957C90.2749 204.605 90.2358 204.273 90.1577 203.961C90.0845 203.644 89.9673 203.363 89.8062 203.119C89.6499 202.875 89.4497 202.684 89.2056 202.547C88.9663 202.406 88.6807 202.335 88.3486 202.335C88.0166 202.335 87.7285 202.406 87.4844 202.547C87.2451 202.684 87.0474 202.875 86.8911 203.119C86.7349 203.363 86.6201 203.644 86.5469 203.961C86.4736 204.273 86.437 204.605 86.437 204.957ZM98.5952 201.075H100.199V208.78C100.199 209.493 100.048 210.099 99.7451 210.597C99.4424 211.095 99.02 211.473 98.478 211.732C97.936 211.996 97.3086 212.127 96.5957 212.127C96.293 212.127 95.9561 212.083 95.585 211.996C95.2188 211.908 94.8623 211.766 94.5156 211.571C94.1738 211.38 93.8882 211.129 93.6587 210.816L94.4863 209.776C94.7695 210.113 95.082 210.36 95.4238 210.516C95.7656 210.672 96.1245 210.75 96.5005 210.75C96.9058 210.75 97.25 210.675 97.5332 210.523C97.8213 210.377 98.0435 210.16 98.1997 209.872C98.356 209.583 98.4341 209.232 98.4341 208.817V202.87L98.5952 201.075ZM93.2119 205.125V204.972C93.2119 204.371 93.2852 203.824 93.4316 203.331C93.5781 202.833 93.7881 202.406 94.0615 202.049C94.335 201.688 94.667 201.412 95.0576 201.222C95.4482 201.026 95.8901 200.929 96.3833 200.929C96.896 200.929 97.333 201.021 97.6943 201.207C98.0605 201.393 98.3657 201.659 98.6099 202.005C98.854 202.347 99.0444 202.757 99.1812 203.236C99.3228 203.709 99.4277 204.237 99.4961 204.818V205.309C99.4326 205.875 99.3252 206.393 99.1738 206.861C99.0225 207.33 98.8223 207.735 98.5732 208.077C98.3242 208.419 98.0166 208.683 97.6504 208.868C97.2891 209.054 96.8618 209.146 96.3687 209.146C95.8853 209.146 95.4482 209.046 95.0576 208.846C94.6719 208.646 94.3398 208.365 94.0615 208.004C93.7881 207.643 93.5781 207.218 93.4316 206.729C93.2852 206.236 93.2119 205.702 93.2119 205.125ZM94.9771 204.972V205.125C94.9771 205.487 95.0112 205.824 95.0796 206.136C95.1528 206.449 95.2627 206.725 95.4092 206.964C95.5605 207.198 95.751 207.384 95.9805 207.521C96.2148 207.652 96.4907 207.718 96.8081 207.718C97.2231 207.718 97.5625 207.63 97.8262 207.455C98.0947 207.279 98.2998 207.042 98.4414 206.744C98.5879 206.441 98.6904 206.104 98.749 205.733V204.408C98.7197 204.12 98.6587 203.851 98.5659 203.602C98.478 203.353 98.3584 203.136 98.207 202.95C98.0557 202.76 97.8652 202.613 97.6357 202.511C97.4062 202.403 97.1353 202.35 96.8228 202.35C96.5054 202.35 96.2295 202.418 95.9951 202.555C95.7607 202.691 95.5679 202.879 95.4165 203.119C95.27 203.358 95.1602 203.636 95.0869 203.954C95.0137 204.271 94.9771 204.61 94.9771 204.972ZM103.92 201.075V209H102.147V201.075H103.92ZM102.03 198.995C102.03 198.727 102.118 198.504 102.294 198.329C102.475 198.148 102.724 198.058 103.041 198.058C103.354 198.058 103.6 198.148 103.781 198.329C103.961 198.504 104.052 198.727 104.052 198.995C104.052 199.259 103.961 199.479 103.781 199.654C103.6 199.83 103.354 199.918 103.041 199.918C102.724 199.918 102.475 199.83 102.294 199.654C102.118 199.479 102.03 199.259 102.03 198.995ZM107.604 202.767V209H105.839V201.075H107.501L107.604 202.767ZM107.289 204.745L106.718 204.737C106.723 204.176 106.801 203.661 106.952 203.192C107.108 202.723 107.323 202.32 107.597 201.983C107.875 201.646 108.207 201.388 108.593 201.207C108.979 201.021 109.408 200.929 109.882 200.929C110.263 200.929 110.607 200.982 110.915 201.09C111.227 201.192 111.493 201.361 111.713 201.595C111.938 201.83 112.108 202.135 112.226 202.511C112.343 202.882 112.401 203.338 112.401 203.88V209H110.629V203.873C110.629 203.492 110.573 203.192 110.46 202.972C110.353 202.748 110.194 202.589 109.984 202.496C109.779 202.398 109.523 202.35 109.215 202.35C108.913 202.35 108.642 202.413 108.402 202.54C108.163 202.667 107.96 202.84 107.794 203.06C107.633 203.28 107.509 203.534 107.421 203.822C107.333 204.11 107.289 204.417 107.289 204.745Z" fill="#505050"/>
<path fill-rule="evenodd" clip-rule="evenodd" d="M61.5667 242.259H63.8889C64.1836 242.259 64.4662 242.393 64.6746 242.632C64.8829 242.871 65 243.195 65 243.533V253.726C65 254.064 64.8829 254.388 64.6746 254.627C64.4662 254.866 64.1836 255 63.8889 255H56.1111C55.8164 255 55.5338 254.866 55.3255 254.627C55.1171 254.388 55 254.064 55 253.726V243.533C55 243.195 55.1171 242.871 55.3255 242.632C55.5338 242.393 55.8164 242.259 56.1111 242.259H58.4333C58.5501 241.89 58.7631 241.571 59.0434 241.346C59.3237 241.121 59.6577 241 60 241C60.3423 241 60.6763 241.121 60.9566 241.346C61.2369 241.571 61.4499 241.89 61.5667 242.259ZM60.3086 242.366C60.2172 242.296 60.1099 242.259 60 242.259C59.8527 242.259 59.7114 242.326 59.6072 242.446C59.503 242.565 59.4444 242.727 59.4444 242.896C59.4444 243.022 59.477 243.145 59.5381 243.25C59.5991 243.355 59.6859 243.437 59.7874 243.485C59.8889 243.533 60.0006 243.546 60.1084 243.521C60.2161 243.496 60.3151 243.436 60.3928 243.347C60.4705 243.258 60.5234 243.144 60.5449 243.02C60.5663 242.897 60.5553 242.769 60.5133 242.652C60.4713 242.536 60.4 242.436 60.3086 242.366ZM56.1111 243.533V253.726H63.8889V243.533H62.2222V244.807H57.7778V243.533H56.1111ZM57.7778 248.629H62.2222C62.3696 248.629 62.5109 248.696 62.6151 248.816C62.7193 248.935 62.7778 249.097 62.7778 249.266C62.7778 249.435 62.7193 249.597 62.6151 249.717C62.5109 249.836 62.3696 249.903 62.2222 249.903H57.7778C57.6304 249.903 57.4891 249.836 57.3849 249.717C57.2807 249.597 57.2222 249.435 57.2222 249.266C57.2222 249.097 57.2807 248.935 57.3849 248.816C57.4891 248.696 57.6304 248.629 57.7778 248.629ZM62.2222 246.718H57.7778C57.6304 246.718 57.4891 246.785 57.3849 246.905C57.2807 247.024 57.2222 247.186 57.2222 247.355C57.2222 247.524 57.2807 247.686 57.3849 247.805C57.4891 247.925 57.6304 247.992 57.7778 247.992H62.2222C62.3696 247.992 62.5109 247.925 62.6151 247.805C62.7193 247.686 62.7778 247.524 62.7778 247.355C62.7778 247.186 62.7193 247.024 62.6151 246.905C62.5109 246.785 62.3696 246.718 62.2222 246.718ZM60 250.54H62.2222C62.3696 250.54 62.5109 250.607 62.6151 250.727C62.7193 250.846 62.7778 251.008 62.7778 251.177C62.7778 251.346 62.7193 251.508 62.6151 251.628C62.5109 251.747 62.3696 251.814 62.2222 251.814H60C59.8527 251.814 59.7114 251.747 59.6072 251.628C59.503 251.508 59.4444 251.346 59.4444 251.177C59.4444 251.008 59.503 250.846 59.6072 250.727C59.7114 250.607 59.8527 250.54 60 250.54Z" fill="#505050"/>
<path d="M78.9224 242.336V253H77.084V242.336H78.9224ZM85.3311 242.336L81.0098 247.47L78.5488 250.078L78.2266 248.254L79.9844 246.086L83.0898 242.336H85.3311ZM83.3535 253L79.8452 247.946L81.1123 246.694L85.5361 253H83.3535ZM88.019 246.767V253H86.2539V245.075H87.9165L88.019 246.767ZM87.7041 248.745L87.1328 248.737C87.1377 248.176 87.2158 247.661 87.3672 247.192C87.5234 246.723 87.7383 246.32 88.0117 245.983C88.29 245.646 88.6221 245.388 89.0078 245.207C89.3936 245.021 89.8232 244.929 90.2969 244.929C90.6777 244.929 91.022 244.982 91.3296 245.09C91.6421 245.192 91.9082 245.361 92.1279 245.595C92.3525 245.83 92.5234 246.135 92.6406 246.511C92.7578 246.882 92.8164 247.338 92.8164 247.88V253H91.0439V247.873C91.0439 247.492 90.9878 247.192 90.8755 246.972C90.7681 246.748 90.6094 246.589 90.3994 246.496C90.1943 246.398 89.938 246.35 89.6304 246.35C89.3276 246.35 89.0566 246.413 88.8174 246.54C88.5781 246.667 88.3755 246.84 88.2095 247.06C88.0483 247.28 87.9238 247.534 87.8359 247.822C87.748 248.11 87.7041 248.417 87.7041 248.745ZM94.2812 249.125V248.957C94.2812 248.386 94.3643 247.856 94.5303 247.368C94.6963 246.875 94.9355 246.447 95.248 246.086C95.5654 245.72 95.9512 245.437 96.4053 245.236C96.8643 245.031 97.3818 244.929 97.958 244.929C98.5391 244.929 99.0566 245.031 99.5107 245.236C99.9697 245.437 100.358 245.72 100.675 246.086C100.993 246.447 101.234 246.875 101.4 247.368C101.566 247.856 101.649 248.386 101.649 248.957V249.125C101.649 249.697 101.566 250.227 101.4 250.715C101.234 251.203 100.993 251.63 100.675 251.997C100.358 252.358 99.9722 252.641 99.5181 252.846C99.064 253.046 98.5488 253.146 97.9727 253.146C97.3916 253.146 96.8716 253.046 96.4126 252.846C95.9585 252.641 95.5728 252.358 95.2554 251.997C94.938 251.63 94.6963 251.203 94.5303 250.715C94.3643 250.227 94.2812 249.697 94.2812 249.125ZM96.0464 248.957V249.125C96.0464 249.482 96.083 249.819 96.1562 250.136C96.2295 250.454 96.3442 250.732 96.5005 250.971C96.6567 251.21 96.8569 251.398 97.1011 251.535C97.3452 251.672 97.6357 251.74 97.9727 251.74C98.2998 251.74 98.583 251.672 98.8223 251.535C99.0664 251.398 99.2666 251.21 99.4229 250.971C99.5791 250.732 99.6938 250.454 99.7671 250.136C99.8452 249.819 99.8843 249.482 99.8843 249.125V248.957C99.8843 248.605 99.8452 248.273 99.7671 247.961C99.6938 247.644 99.5767 247.363 99.4155 247.119C99.2593 246.875 99.0591 246.684 98.8149 246.547C98.5757 246.406 98.29 246.335 97.958 246.335C97.626 246.335 97.3379 246.406 97.0938 246.547C96.8545 246.684 96.6567 246.875 96.5005 247.119C96.3442 247.363 96.2295 247.644 96.1562 247.961C96.083 248.273 96.0464 248.605 96.0464 248.957ZM105.282 251.242L107.113 245.075H108.241L107.934 246.921L106.088 253H105.077L105.282 251.242ZM104.206 245.075L105.634 251.271L105.751 253H104.623L102.477 245.075H104.206ZM109.955 251.198L111.339 245.075H113.061L110.922 253H109.794L109.955 251.198ZM108.432 245.075L110.241 251.169L110.468 253H109.457L107.589 246.914L107.282 245.075H108.432ZM116.151 241.75V253H114.379V241.75H116.151ZM121.579 253.146C120.993 253.146 120.463 253.051 119.989 252.861C119.521 252.666 119.12 252.395 118.788 252.048C118.461 251.701 118.209 251.293 118.034 250.825C117.858 250.356 117.77 249.851 117.77 249.309V249.016C117.77 248.396 117.86 247.834 118.041 247.331C118.222 246.828 118.473 246.398 118.795 246.042C119.118 245.681 119.499 245.405 119.938 245.214C120.377 245.024 120.854 244.929 121.366 244.929C121.933 244.929 122.428 245.024 122.853 245.214C123.278 245.405 123.629 245.673 123.908 246.02C124.191 246.362 124.401 246.77 124.538 247.243C124.679 247.717 124.75 248.239 124.75 248.811V249.565H118.627V248.298H123.007V248.159C122.997 247.841 122.934 247.543 122.816 247.265C122.704 246.987 122.531 246.762 122.296 246.591C122.062 246.42 121.75 246.335 121.359 246.335C121.066 246.335 120.805 246.398 120.575 246.525C120.351 246.647 120.163 246.826 120.011 247.06C119.86 247.294 119.743 247.578 119.66 247.91C119.582 248.237 119.542 248.605 119.542 249.016V249.309C119.542 249.655 119.589 249.978 119.682 250.275C119.779 250.568 119.921 250.825 120.106 251.044C120.292 251.264 120.517 251.438 120.78 251.564C121.044 251.687 121.344 251.748 121.681 251.748C122.106 251.748 122.484 251.662 122.816 251.491C123.148 251.32 123.437 251.079 123.681 250.766L124.611 251.667C124.44 251.916 124.218 252.155 123.944 252.385C123.671 252.609 123.336 252.792 122.941 252.934C122.55 253.076 122.096 253.146 121.579 253.146ZM130.961 251.359V241.75H132.733V253H131.129L130.961 251.359ZM125.805 249.125V248.972C125.805 248.371 125.875 247.824 126.017 247.331C126.159 246.833 126.364 246.406 126.632 246.049C126.901 245.688 127.228 245.412 127.614 245.222C128 245.026 128.434 244.929 128.917 244.929C129.396 244.929 129.816 245.021 130.177 245.207C130.539 245.393 130.846 245.659 131.1 246.005C131.354 246.347 131.557 246.757 131.708 247.236C131.859 247.709 131.967 248.237 132.03 248.818V249.309C131.967 249.875 131.859 250.393 131.708 250.861C131.557 251.33 131.354 251.735 131.1 252.077C130.846 252.419 130.536 252.683 130.17 252.868C129.809 253.054 129.386 253.146 128.903 253.146C128.424 253.146 127.992 253.046 127.606 252.846C127.226 252.646 126.901 252.365 126.632 252.004C126.364 251.643 126.159 251.218 126.017 250.729C125.875 250.236 125.805 249.702 125.805 249.125ZM127.57 248.972V249.125C127.57 249.487 127.602 249.824 127.665 250.136C127.733 250.449 127.838 250.725 127.98 250.964C128.122 251.198 128.305 251.384 128.529 251.521C128.759 251.652 129.032 251.718 129.35 251.718C129.75 251.718 130.08 251.63 130.338 251.455C130.597 251.279 130.8 251.042 130.946 250.744C131.098 250.441 131.2 250.104 131.254 249.733V248.408C131.225 248.12 131.164 247.851 131.071 247.602C130.983 247.353 130.863 247.136 130.712 246.95C130.561 246.76 130.373 246.613 130.148 246.511C129.928 246.403 129.667 246.35 129.364 246.35C129.042 246.35 128.769 246.418 128.544 246.555C128.319 246.691 128.134 246.879 127.987 247.119C127.846 247.358 127.741 247.636 127.672 247.954C127.604 248.271 127.57 248.61 127.57 248.972ZM139.655 245.075H141.259V252.78C141.259 253.493 141.107 254.099 140.805 254.597C140.502 255.095 140.08 255.473 139.538 255.732C138.996 255.996 138.368 256.127 137.655 256.127C137.353 256.127 137.016 256.083 136.645 255.996C136.278 255.908 135.922 255.766 135.575 255.571C135.233 255.38 134.948 255.129 134.718 254.816L135.546 253.776C135.829 254.113 136.142 254.36 136.483 254.516C136.825 254.672 137.184 254.75 137.56 254.75C137.965 254.75 138.31 254.675 138.593 254.523C138.881 254.377 139.103 254.16 139.259 253.872C139.416 253.583 139.494 253.232 139.494 252.817V246.87L139.655 245.075ZM134.271 249.125V248.972C134.271 248.371 134.345 247.824 134.491 247.331C134.638 246.833 134.848 246.406 135.121 246.049C135.395 245.688 135.727 245.412 136.117 245.222C136.508 245.026 136.95 244.929 137.443 244.929C137.956 244.929 138.393 245.021 138.754 245.207C139.12 245.393 139.425 245.659 139.669 246.005C139.914 246.347 140.104 246.757 140.241 247.236C140.382 247.709 140.487 248.237 140.556 248.818V249.309C140.492 249.875 140.385 250.393 140.233 250.861C140.082 251.33 139.882 251.735 139.633 252.077C139.384 252.419 139.076 252.683 138.71 252.868C138.349 253.054 137.921 253.146 137.428 253.146C136.945 253.146 136.508 253.046 136.117 252.846C135.731 252.646 135.399 252.365 135.121 252.004C134.848 251.643 134.638 251.218 134.491 250.729C134.345 250.236 134.271 249.702 134.271 249.125ZM136.037 248.972V249.125C136.037 249.487 136.071 249.824 136.139 250.136C136.212 250.449 136.322 250.725 136.469 250.964C136.62 251.198 136.811 251.384 137.04 251.521C137.274 251.652 137.55 251.718 137.868 251.718C138.283 251.718 138.622 251.63 138.886 251.455C139.154 251.279 139.359 251.042 139.501 250.744C139.647 250.441 139.75 250.104 139.809 249.733V248.408C139.779 248.12 139.718 247.851 139.625 247.602C139.538 247.353 139.418 247.136 139.267 246.95C139.115 246.76 138.925 246.613 138.695 246.511C138.466 246.403 138.195 246.35 137.882 246.35C137.565 246.35 137.289 246.418 137.055 246.555C136.82 246.691 136.627 246.879 136.476 247.119C136.33 247.358 136.22 247.636 136.146 247.954C136.073 248.271 136.037 248.61 136.037 248.972ZM146.583 253.146C145.998 253.146 145.468 253.051 144.994 252.861C144.525 252.666 144.125 252.395 143.793 252.048C143.466 251.701 143.214 251.293 143.039 250.825C142.863 250.356 142.775 249.851 142.775 249.309V249.016C142.775 248.396 142.865 247.834 143.046 247.331C143.227 246.828 143.478 246.398 143.8 246.042C144.123 245.681 144.503 245.405 144.943 245.214C145.382 245.024 145.858 244.929 146.371 244.929C146.938 244.929 147.433 245.024 147.858 245.214C148.283 245.405 148.634 245.673 148.913 246.02C149.196 246.362 149.406 246.77 149.542 247.243C149.684 247.717 149.755 248.239 149.755 248.811V249.565H143.632V248.298H148.012V248.159C148.002 247.841 147.938 247.543 147.821 247.265C147.709 246.987 147.536 246.762 147.301 246.591C147.067 246.42 146.754 246.335 146.364 246.335C146.071 246.335 145.81 246.398 145.58 246.525C145.355 246.647 145.167 246.826 145.016 247.06C144.865 247.294 144.748 247.578 144.665 247.91C144.586 248.237 144.547 248.605 144.547 249.016V249.309C144.547 249.655 144.594 249.978 144.687 250.275C144.784 250.568 144.926 250.825 145.111 251.044C145.297 251.264 145.521 251.438 145.785 251.564C146.049 251.687 146.349 251.748 146.686 251.748C147.111 251.748 147.489 251.662 147.821 251.491C148.153 251.32 148.441 251.079 148.686 250.766L149.616 251.667C149.445 251.916 149.223 252.155 148.949 252.385C148.676 252.609 148.341 252.792 147.946 252.934C147.555 253.076 147.101 253.146 146.583 253.146ZM160.69 251.579L163.495 253.806L162.301 254.853L159.547 252.648L160.69 251.579ZM163.517 247.375V247.961C163.517 248.767 163.412 249.489 163.202 250.129C162.992 250.769 162.692 251.313 162.301 251.762C161.911 252.211 161.444 252.556 160.902 252.795C160.36 253.029 159.76 253.146 159.101 253.146C158.446 253.146 157.848 253.029 157.306 252.795C156.769 252.556 156.303 252.211 155.907 251.762C155.512 251.313 155.204 250.769 154.984 250.129C154.77 249.489 154.662 248.767 154.662 247.961V247.375C154.662 246.569 154.77 245.849 154.984 245.214C155.199 244.575 155.502 244.03 155.893 243.581C156.288 243.127 156.754 242.783 157.292 242.548C157.833 242.309 158.432 242.189 159.086 242.189C159.745 242.189 160.346 242.309 160.888 242.548C161.435 242.783 161.903 243.127 162.294 243.581C162.685 244.03 162.985 244.575 163.195 245.214C163.41 245.849 163.517 246.569 163.517 247.375ZM161.671 247.961V247.36C161.671 246.765 161.613 246.24 161.496 245.786C161.383 245.327 161.215 244.943 160.99 244.636C160.771 244.323 160.5 244.089 160.177 243.933C159.86 243.771 159.496 243.691 159.086 243.691C158.686 243.691 158.327 243.771 158.009 243.933C157.692 244.089 157.421 244.323 157.196 244.636C156.972 244.943 156.801 245.327 156.684 245.786C156.566 246.24 156.508 246.765 156.508 247.36V247.961C156.508 248.557 156.566 249.084 156.684 249.543C156.801 250.002 156.972 250.39 157.196 250.708C157.426 251.02 157.699 251.257 158.017 251.418C158.339 251.574 158.7 251.652 159.101 251.652C159.511 251.652 159.875 251.574 160.192 251.418C160.509 251.257 160.778 251.02 160.998 250.708C161.217 250.39 161.383 250.002 161.496 249.543C161.613 249.084 161.671 248.557 161.671 247.961ZM169.977 251.132V245.075H171.75V253H170.08L169.977 251.132ZM170.226 249.484L170.819 249.47C170.819 250.002 170.761 250.493 170.644 250.942C170.526 251.386 170.346 251.774 170.102 252.106C169.857 252.434 169.545 252.69 169.164 252.875C168.783 253.056 168.327 253.146 167.794 253.146C167.409 253.146 167.055 253.09 166.732 252.978C166.41 252.866 166.132 252.692 165.897 252.458C165.668 252.224 165.49 251.918 165.363 251.542C165.236 251.167 165.172 250.717 165.172 250.195V245.075H166.938V250.209C166.938 250.498 166.972 250.739 167.04 250.935C167.108 251.125 167.201 251.279 167.318 251.396C167.436 251.513 167.572 251.596 167.729 251.645C167.885 251.694 168.051 251.718 168.227 251.718C168.729 251.718 169.125 251.621 169.413 251.425C169.706 251.225 169.914 250.957 170.036 250.62C170.163 250.283 170.226 249.904 170.226 249.484ZM175.448 245.075V253H173.676V245.075H175.448ZM173.559 242.995C173.559 242.727 173.646 242.504 173.822 242.329C174.003 242.148 174.252 242.058 174.569 242.058C174.882 242.058 175.128 242.148 175.309 242.329C175.49 242.504 175.58 242.727 175.58 242.995C175.58 243.259 175.49 243.479 175.309 243.654C175.128 243.83 174.882 243.918 174.569 243.918C174.252 243.918 174.003 243.83 173.822 243.654C173.646 243.479 173.559 243.259 173.559 242.995ZM183.512 251.594V253H177.609V251.594H183.512ZM183.351 246.174L178.209 253H177.067V251.865L182.179 245.075H183.351V246.174ZM182.67 245.075V246.481H177.155V245.075H182.67Z" fill="#505050"/>
<path fill-rule="evenodd" clip-rule="evenodd" d="M61.5667 286.259H63.8889C64.1836 286.259 64.4662 286.393 64.6746 286.632C64.8829 286.871 65 287.195 65 287.533V297.726C65 298.064 64.8829 298.388 64.6746 298.627C64.4662 298.866 64.1836 299 63.8889 299H56.1111C55.8164 299 55.5338 298.866 55.3255 298.627C55.1171 298.388 55 298.064 55 297.726V287.533C55 287.195 55.1171 286.871 55.3255 286.632C55.5338 286.393 55.8164 286.259 56.1111 286.259H58.4333C58.5501 285.89 58.7631 285.571 59.0434 285.346C59.3237 285.121 59.6577 285 60 285C60.3423 285 60.6763 285.121 60.9566 285.346C61.2369 285.571 61.4499 285.89 61.5667 286.259ZM60.3086 286.366C60.2172 286.296 60.1099 286.259 60 286.259C59.8527 286.259 59.7114 286.326 59.6072 286.446C59.503 286.565 59.4444 286.727 59.4444 286.896C59.4444 287.022 59.477 287.145 59.5381 287.25C59.5991 287.355 59.6859 287.437 59.7874 287.485C59.8889 287.533 60.0006 287.546 60.1084 287.521C60.2161 287.496 60.3151 287.436 60.3928 287.347C60.4705 287.258 60.5234 287.144 60.5449 287.02C60.5663 286.897 60.5553 286.769 60.5133 286.652C60.4713 286.536 60.4 286.436 60.3086 286.366ZM56.1111 287.533V297.726H63.8889V287.533H62.2222V288.807H57.7778V287.533H56.1111ZM57.7778 292.629H62.2222C62.3696 292.629 62.5109 292.696 62.6151 292.816C62.7193 292.935 62.7778 293.097 62.7778 293.266C62.7778 293.435 62.7193 293.597 62.6151 293.717C62.5109 293.836 62.3696 293.903 62.2222 293.903H57.7778C57.6304 293.903 57.4891 293.836 57.3849 293.717C57.2807 293.597 57.2222 293.435 57.2222 293.266C57.2222 293.097 57.2807 292.935 57.3849 292.816C57.4891 292.696 57.6304 292.629 57.7778 292.629ZM62.2222 290.718H57.7778C57.6304 290.718 57.4891 290.785 57.3849 290.905C57.2807 291.024 57.2222 291.186 57.2222 291.355C57.2222 291.524 57.2807 291.686 57.3849 291.805C57.4891 291.925 57.6304 291.992 57.7778 291.992H62.2222C62.3696 291.992 62.5109 291.925 62.6151 291.805C62.7193 291.686 62.7778 291.524 62.7778 291.355C62.7778 291.186 62.7193 291.024 62.6151 290.905C62.5109 290.785 62.3696 290.718 62.2222 290.718ZM60 294.54H62.2222C62.3696 294.54 62.5109 294.607 62.6151 294.727C62.7193 294.846 62.7778 295.008 62.7778 295.177C62.7778 295.346 62.7193 295.508 62.6151 295.628C62.5109 295.747 62.3696 295.814 62.2222 295.814H60C59.8527 295.814 59.7114 295.747 59.6072 295.628C59.503 295.508 59.4444 295.346 59.4444 295.177C59.4444 295.008 59.503 294.846 59.6072 294.727C59.7114 294.607 59.8527 294.54 60 294.54Z" fill="#505050"/>
<path d="M81.1343 293.023H78.3584V291.565H81.1343C81.6177 291.565 82.0083 291.487 82.3062 291.331C82.604 291.175 82.8213 290.96 82.958 290.687C83.0996 290.408 83.1704 290.091 83.1704 289.734C83.1704 289.397 83.0996 289.083 82.958 288.79C82.8213 288.492 82.604 288.252 82.3062 288.072C82.0083 287.891 81.6177 287.801 81.1343 287.801H78.9224V297H77.084V286.336H81.1343C81.9595 286.336 82.6602 286.482 83.2363 286.775C83.8174 287.063 84.2593 287.464 84.562 287.977C84.8647 288.484 85.0161 289.065 85.0161 289.72C85.0161 290.408 84.8647 290.999 84.562 291.492C84.2593 291.985 83.8174 292.364 83.2363 292.627C82.6602 292.891 81.9595 293.023 81.1343 293.023ZM89.8794 297.146C89.2935 297.146 88.7637 297.051 88.29 296.861C87.8213 296.666 87.4209 296.395 87.0889 296.048C86.7617 295.701 86.5103 295.293 86.3345 294.825C86.1587 294.356 86.0708 293.851 86.0708 293.309V293.016C86.0708 292.396 86.1611 291.834 86.3418 291.331C86.5225 290.828 86.7739 290.398 87.0962 290.042C87.4185 289.681 87.7993 289.405 88.2388 289.214C88.6782 289.024 89.1543 288.929 89.667 288.929C90.2334 288.929 90.729 289.024 91.1538 289.214C91.5786 289.405 91.9302 289.673 92.2085 290.02C92.4917 290.362 92.7017 290.77 92.8384 291.243C92.98 291.717 93.0508 292.239 93.0508 292.811V293.565H86.9277V292.298H91.3076V292.159C91.2979 291.841 91.2344 291.543 91.1172 291.265C91.0049 290.987 90.8315 290.762 90.5972 290.591C90.3628 290.42 90.0503 290.335 89.6597 290.335C89.3667 290.335 89.1055 290.398 88.876 290.525C88.6514 290.647 88.4634 290.826 88.312 291.06C88.1606 291.294 88.0435 291.578 87.9604 291.91C87.8823 292.237 87.8433 292.605 87.8433 293.016V293.309C87.8433 293.655 87.8896 293.978 87.9824 294.275C88.0801 294.568 88.2217 294.825 88.4072 295.044C88.5928 295.264 88.8174 295.438 89.0811 295.564C89.3447 295.687 89.645 295.748 89.9819 295.748C90.4067 295.748 90.7852 295.662 91.1172 295.491C91.4492 295.32 91.7373 295.079 91.9814 294.766L92.9116 295.667C92.7407 295.916 92.5186 296.155 92.2451 296.385C91.9717 296.609 91.6372 296.792 91.2417 296.934C90.8511 297.076 90.397 297.146 89.8794 297.146ZM96.2002 290.584V297H94.4351V289.075H96.1196L96.2002 290.584ZM98.6245 289.024L98.6099 290.665C98.5024 290.645 98.3853 290.63 98.2583 290.621C98.1362 290.611 98.0142 290.606 97.8921 290.606C97.5894 290.606 97.3232 290.65 97.0938 290.738C96.8643 290.821 96.6714 290.943 96.5151 291.104C96.3638 291.26 96.2466 291.451 96.1636 291.675C96.0806 291.9 96.0317 292.151 96.0171 292.43L95.6143 292.459C95.6143 291.961 95.6631 291.5 95.7607 291.075C95.8584 290.65 96.0049 290.276 96.2002 289.954C96.4004 289.632 96.6494 289.38 96.9473 289.2C97.25 289.019 97.5991 288.929 97.9946 288.929C98.1021 288.929 98.2168 288.938 98.3389 288.958C98.4658 288.978 98.561 289 98.6245 289.024ZM104.176 294.854C104.176 294.678 104.132 294.52 104.044 294.378C103.957 294.231 103.788 294.1 103.539 293.982C103.295 293.865 102.934 293.758 102.455 293.66C102.035 293.567 101.649 293.458 101.298 293.331C100.951 293.199 100.653 293.04 100.404 292.854C100.155 292.669 99.9624 292.449 99.8257 292.195C99.689 291.941 99.6206 291.648 99.6206 291.316C99.6206 290.994 99.6914 290.689 99.833 290.401C99.9746 290.113 100.177 289.859 100.441 289.639C100.705 289.419 101.024 289.246 101.4 289.119C101.781 288.992 102.206 288.929 102.675 288.929C103.339 288.929 103.908 289.041 104.381 289.266C104.86 289.485 105.226 289.786 105.48 290.167C105.734 290.542 105.861 290.967 105.861 291.441H104.096C104.096 291.231 104.042 291.036 103.935 290.855C103.832 290.669 103.676 290.521 103.466 290.408C103.256 290.291 102.992 290.232 102.675 290.232C102.372 290.232 102.121 290.281 101.92 290.379C101.725 290.472 101.579 290.594 101.481 290.745C101.388 290.896 101.342 291.062 101.342 291.243C101.342 291.375 101.366 291.495 101.415 291.602C101.469 291.705 101.557 291.8 101.679 291.888C101.801 291.971 101.967 292.049 102.177 292.122C102.392 292.195 102.66 292.266 102.982 292.334C103.588 292.461 104.108 292.625 104.542 292.825C104.982 293.021 105.319 293.274 105.553 293.587C105.788 293.895 105.905 294.285 105.905 294.759C105.905 295.11 105.829 295.433 105.678 295.726C105.531 296.014 105.316 296.265 105.033 296.48C104.75 296.69 104.411 296.854 104.015 296.971C103.625 297.088 103.185 297.146 102.697 297.146C101.979 297.146 101.371 297.02 100.873 296.766C100.375 296.507 99.9966 296.177 99.7378 295.777C99.4839 295.372 99.3569 294.952 99.3569 294.517H101.063C101.083 294.844 101.173 295.105 101.334 295.301C101.5 295.491 101.706 295.63 101.95 295.718C102.199 295.801 102.455 295.843 102.719 295.843C103.036 295.843 103.302 295.801 103.517 295.718C103.732 295.63 103.896 295.513 104.008 295.367C104.12 295.215 104.176 295.044 104.176 294.854ZM107.113 293.125V292.957C107.113 292.386 107.196 291.856 107.362 291.368C107.528 290.875 107.768 290.447 108.08 290.086C108.397 289.72 108.783 289.437 109.237 289.236C109.696 289.031 110.214 288.929 110.79 288.929C111.371 288.929 111.889 289.031 112.343 289.236C112.802 289.437 113.19 289.72 113.507 290.086C113.825 290.447 114.066 290.875 114.232 291.368C114.398 291.856 114.481 292.386 114.481 292.957V293.125C114.481 293.697 114.398 294.227 114.232 294.715C114.066 295.203 113.825 295.63 113.507 295.997C113.19 296.358 112.804 296.641 112.35 296.846C111.896 297.046 111.381 297.146 110.805 297.146C110.224 297.146 109.704 297.046 109.245 296.846C108.791 296.641 108.405 296.358 108.087 295.997C107.77 295.63 107.528 295.203 107.362 294.715C107.196 294.227 107.113 293.697 107.113 293.125ZM108.878 292.957V293.125C108.878 293.482 108.915 293.819 108.988 294.136C109.062 294.454 109.176 294.732 109.333 294.971C109.489 295.21 109.689 295.398 109.933 295.535C110.177 295.672 110.468 295.74 110.805 295.74C111.132 295.74 111.415 295.672 111.654 295.535C111.898 295.398 112.099 295.21 112.255 294.971C112.411 294.732 112.526 294.454 112.599 294.136C112.677 293.819 112.716 293.482 112.716 293.125V292.957C112.716 292.605 112.677 292.273 112.599 291.961C112.526 291.644 112.409 291.363 112.248 291.119C112.091 290.875 111.891 290.684 111.647 290.547C111.408 290.406 111.122 290.335 110.79 290.335C110.458 290.335 110.17 290.406 109.926 290.547C109.687 290.684 109.489 290.875 109.333 291.119C109.176 291.363 109.062 291.644 108.988 291.961C108.915 292.273 108.878 292.605 108.878 292.957ZM117.711 290.767V297H115.946V289.075H117.609L117.711 290.767ZM117.396 292.745L116.825 292.737C116.83 292.176 116.908 291.661 117.06 291.192C117.216 290.723 117.431 290.32 117.704 289.983C117.982 289.646 118.314 289.388 118.7 289.207C119.086 289.021 119.516 288.929 119.989 288.929C120.37 288.929 120.714 288.982 121.022 289.09C121.334 289.192 121.601 289.361 121.82 289.595C122.045 289.83 122.216 290.135 122.333 290.511C122.45 290.882 122.509 291.338 122.509 291.88V297H120.736V291.873C120.736 291.492 120.68 291.192 120.568 290.972C120.46 290.748 120.302 290.589 120.092 290.496C119.887 290.398 119.63 290.35 119.323 290.35C119.02 290.35 118.749 290.413 118.51 290.54C118.271 290.667 118.068 290.84 117.902 291.06C117.741 291.28 117.616 291.534 117.528 291.822C117.44 292.11 117.396 292.417 117.396 292.745ZM128.778 295.411V291.631C128.778 291.348 128.727 291.104 128.625 290.899C128.522 290.694 128.366 290.535 128.156 290.423C127.951 290.311 127.692 290.254 127.379 290.254C127.091 290.254 126.842 290.303 126.632 290.401C126.422 290.499 126.259 290.63 126.142 290.796C126.024 290.962 125.966 291.15 125.966 291.36H124.208C124.208 291.048 124.284 290.745 124.435 290.452C124.586 290.159 124.806 289.898 125.094 289.668C125.382 289.439 125.727 289.258 126.127 289.126C126.527 288.995 126.977 288.929 127.475 288.929C128.07 288.929 128.598 289.029 129.057 289.229C129.521 289.429 129.884 289.732 130.148 290.137C130.417 290.538 130.551 291.041 130.551 291.646V295.169C130.551 295.53 130.575 295.855 130.624 296.143C130.678 296.426 130.753 296.673 130.851 296.883V297H129.042C128.959 296.81 128.893 296.568 128.844 296.275C128.8 295.977 128.778 295.689 128.778 295.411ZM129.035 292.181L129.049 293.272H127.782C127.455 293.272 127.167 293.304 126.918 293.367C126.669 293.426 126.461 293.514 126.295 293.631C126.129 293.748 126.005 293.89 125.922 294.056C125.839 294.222 125.797 294.41 125.797 294.62C125.797 294.83 125.846 295.022 125.944 295.198C126.042 295.369 126.183 295.503 126.369 295.601C126.559 295.699 126.789 295.748 127.057 295.748C127.418 295.748 127.733 295.674 128.002 295.528C128.275 295.376 128.49 295.193 128.646 294.979C128.803 294.759 128.886 294.551 128.896 294.356L129.467 295.14C129.408 295.34 129.308 295.555 129.167 295.784C129.025 296.014 128.839 296.233 128.61 296.443C128.385 296.648 128.114 296.817 127.797 296.949C127.484 297.081 127.123 297.146 126.713 297.146C126.195 297.146 125.734 297.044 125.329 296.839C124.923 296.629 124.606 296.348 124.376 295.997C124.147 295.64 124.032 295.237 124.032 294.788C124.032 294.368 124.11 293.997 124.267 293.675C124.428 293.348 124.662 293.074 124.97 292.854C125.282 292.635 125.663 292.469 126.112 292.356C126.562 292.239 127.074 292.181 127.65 292.181H129.035ZM134.286 285.75V297H132.514V285.75H134.286ZM138.109 289.075V297H136.337V289.075H138.109ZM136.22 286.995C136.22 286.727 136.308 286.504 136.483 286.329C136.664 286.148 136.913 286.058 137.23 286.058C137.543 286.058 137.79 286.148 137.97 286.329C138.151 286.504 138.241 286.727 138.241 286.995C138.241 287.259 138.151 287.479 137.97 287.654C137.79 287.83 137.543 287.918 137.23 287.918C136.913 287.918 136.664 287.83 136.483 287.654C136.308 287.479 136.22 287.259 136.22 286.995ZM143.676 289.075V290.364H139.208V289.075H143.676ZM140.497 287.134H142.262V294.81C142.262 295.054 142.296 295.242 142.365 295.374C142.438 295.501 142.538 295.586 142.665 295.63C142.792 295.674 142.941 295.696 143.112 295.696C143.234 295.696 143.351 295.689 143.463 295.674C143.576 295.66 143.666 295.645 143.734 295.63L143.742 296.978C143.595 297.022 143.424 297.061 143.229 297.095C143.039 297.129 142.819 297.146 142.57 297.146C142.165 297.146 141.806 297.076 141.493 296.934C141.181 296.788 140.937 296.551 140.761 296.224C140.585 295.896 140.497 295.462 140.497 294.92V287.134ZM147.338 296.136L149.491 289.075H151.381L148.202 298.208C148.129 298.404 148.034 298.616 147.917 298.846C147.799 299.075 147.646 299.292 147.455 299.498C147.27 299.708 147.038 299.876 146.759 300.003C146.481 300.135 146.144 300.201 145.749 300.201C145.592 300.201 145.441 300.186 145.294 300.157C145.153 300.132 145.019 300.105 144.892 300.076L144.884 298.729C144.933 298.733 144.992 298.738 145.06 298.743C145.133 298.748 145.192 298.75 145.236 298.75C145.529 298.75 145.773 298.714 145.968 298.641C146.164 298.572 146.322 298.46 146.444 298.304C146.571 298.147 146.679 297.938 146.767 297.674L147.338 296.136ZM146.122 289.075L148.004 295.008L148.319 296.868L147.096 297.183L144.218 289.075H146.122ZM161.95 295.579L164.755 297.806L163.561 298.853L160.807 296.648L161.95 295.579ZM164.777 291.375V291.961C164.777 292.767 164.672 293.489 164.462 294.129C164.252 294.769 163.952 295.313 163.561 295.762C163.17 296.211 162.704 296.556 162.162 296.795C161.62 297.029 161.02 297.146 160.36 297.146C159.706 297.146 159.108 297.029 158.566 296.795C158.029 296.556 157.562 296.211 157.167 295.762C156.771 295.313 156.464 294.769 156.244 294.129C156.029 293.489 155.922 292.767 155.922 291.961V291.375C155.922 290.569 156.029 289.849 156.244 289.214C156.459 288.575 156.762 288.03 157.152 287.581C157.548 287.127 158.014 286.783 158.551 286.548C159.093 286.309 159.691 286.189 160.346 286.189C161.005 286.189 161.605 286.309 162.147 286.548C162.694 286.783 163.163 287.127 163.554 287.581C163.944 288.03 164.245 288.575 164.455 289.214C164.669 289.849 164.777 290.569 164.777 291.375ZM162.931 291.961V291.36C162.931 290.765 162.873 290.24 162.755 289.786C162.643 289.327 162.475 288.943 162.25 288.636C162.03 288.323 161.759 288.089 161.437 287.933C161.12 287.771 160.756 287.691 160.346 287.691C159.945 287.691 159.586 287.771 159.269 287.933C158.952 288.089 158.681 288.323 158.456 288.636C158.231 288.943 158.061 289.327 157.943 289.786C157.826 290.24 157.768 290.765 157.768 291.36V291.961C157.768 292.557 157.826 293.084 157.943 293.543C158.061 294.002 158.231 294.39 158.456 294.708C158.686 295.02 158.959 295.257 159.276 295.418C159.599 295.574 159.96 295.652 160.36 295.652C160.771 295.652 161.134 295.574 161.452 295.418C161.769 295.257 162.038 295.02 162.257 294.708C162.477 294.39 162.643 294.002 162.755 293.543C162.873 293.084 162.931 292.557 162.931 291.961ZM171.237 295.132V289.075H173.009V297H171.339L171.237 295.132ZM171.486 293.484L172.079 293.47C172.079 294.002 172.021 294.493 171.903 294.942C171.786 295.386 171.605 295.774 171.361 296.106C171.117 296.434 170.805 296.69 170.424 296.875C170.043 297.056 169.586 297.146 169.054 297.146C168.668 297.146 168.314 297.09 167.992 296.978C167.67 296.866 167.392 296.692 167.157 296.458C166.928 296.224 166.75 295.918 166.623 295.542C166.496 295.167 166.432 294.717 166.432 294.195V289.075H168.197V294.209C168.197 294.498 168.231 294.739 168.3 294.935C168.368 295.125 168.461 295.279 168.578 295.396C168.695 295.513 168.832 295.596 168.988 295.645C169.145 295.694 169.311 295.718 169.486 295.718C169.989 295.718 170.385 295.621 170.673 295.425C170.966 295.225 171.173 294.957 171.295 294.62C171.422 294.283 171.486 293.904 171.486 293.484ZM176.708 289.075V297H174.936V289.075H176.708ZM174.818 286.995C174.818 286.727 174.906 286.504 175.082 286.329C175.263 286.148 175.512 286.058 175.829 286.058C176.142 286.058 176.388 286.148 176.569 286.329C176.75 286.504 176.84 286.727 176.84 286.995C176.84 287.259 176.75 287.479 176.569 287.654C176.388 287.83 176.142 287.918 175.829 287.918C175.512 287.918 175.263 287.83 175.082 287.654C174.906 287.479 174.818 287.259 174.818 286.995ZM184.772 295.594V297H178.869V295.594H184.772ZM184.611 290.174L179.469 297H178.327V295.865L183.439 289.075H184.611V290.174ZM183.93 289.075V290.481H178.415V289.075H183.93Z" fill="#505050"/>
<path fill-rule="evenodd" clip-rule="evenodd" d="M61.5667 330.259H63.8889C64.1836 330.259 64.4662 330.393 64.6746 330.632C64.8829 330.871 65 331.195 65 331.533V341.726C65 342.064 64.8829 342.388 64.6746 342.627C64.4662 342.866 64.1836 343 63.8889 343H56.1111C55.8164 343 55.5338 342.866 55.3255 342.627C55.1171 342.388 55 342.064 55 341.726V331.533C55 331.195 55.1171 330.871 55.3255 330.632C55.5338 330.393 55.8164 330.259 56.1111 330.259H58.4333C58.5501 329.89 58.7631 329.571 59.0434 329.346C59.3237 329.121 59.6577 329 60 329C60.3423 329 60.6763 329.121 60.9566 329.346C61.2369 329.571 61.4499 329.89 61.5667 330.259ZM60.3086 330.366C60.2172 330.296 60.1099 330.259 60 330.259C59.8527 330.259 59.7114 330.326 59.6072 330.446C59.503 330.565 59.4444 330.727 59.4444 330.896C59.4444 331.022 59.477 331.145 59.5381 331.25C59.5991 331.355 59.6859 331.437 59.7874 331.485C59.8889 331.533 60.0006 331.546 60.1084 331.521C60.2161 331.496 60.3151 331.436 60.3928 331.347C60.4705 331.258 60.5234 331.144 60.5449 331.02C60.5663 330.897 60.5553 330.769 60.5133 330.652C60.4713 330.536 60.4 330.436 60.3086 330.366ZM56.1111 331.533V341.726H63.8889V331.533H62.2222V332.807H57.7778V331.533H56.1111ZM57.7778 336.629H62.2222C62.3696 336.629 62.5109 336.696 62.6151 336.816C62.7193 336.935 62.7778 337.097 62.7778 337.266C62.7778 337.435 62.7193 337.597 62.6151 337.717C62.5109 337.836 62.3696 337.903 62.2222 337.903H57.7778C57.6304 337.903 57.4891 337.836 57.3849 337.717C57.2807 337.597 57.2222 337.435 57.2222 337.266C57.2222 337.097 57.2807 336.935 57.3849 336.816C57.4891 336.696 57.6304 336.629 57.7778 336.629ZM62.2222 334.718H57.7778C57.6304 334.718 57.4891 334.785 57.3849 334.905C57.2807 335.024 57.2222 335.186 57.2222 335.355C57.2222 335.524 57.2807 335.686 57.3849 335.805C57.4891 335.925 57.6304 335.992 57.7778 335.992H62.2222C62.3696 335.992 62.5109 335.925 62.6151 335.805C62.7193 335.686 62.7778 335.524 62.7778 335.355C62.7778 335.186 62.7193 335.024 62.6151 334.905C62.5109 334.785 62.3696 334.718 62.2222 334.718ZM60 338.54H62.2222C62.3696 338.54 62.5109 338.607 62.6151 338.727C62.7193 338.846 62.7778 339.008 62.7778 339.177C62.7778 339.346 62.7193 339.508 62.6151 339.628C62.5109 339.747 62.3696 339.814 62.2222 339.814H60C59.8527 339.814 59.7114 339.747 59.6072 339.628C59.503 339.508 59.4444 339.346 59.4444 339.177C59.4444 339.008 59.503 338.846 59.6072 338.727C59.7114 338.607 59.8527 338.54 60 338.54Z" fill="#505050"/>
<path d="M85.5435 330.336V341H83.7051L78.9224 333.361V341H77.084V330.336H78.9224L83.7197 337.99V330.336H85.5435ZM91.0513 341.146C90.4653 341.146 89.9355 341.051 89.4619 340.861C88.9932 340.666 88.5928 340.395 88.2607 340.048C87.9336 339.701 87.6821 339.293 87.5063 338.825C87.3306 338.356 87.2427 337.851 87.2427 337.309V337.016C87.2427 336.396 87.333 335.834 87.5137 335.331C87.6943 334.828 87.9458 334.398 88.2681 334.042C88.5903 333.681 88.9712 333.405 89.4106 333.214C89.8501 333.024 90.3262 332.929 90.8389 332.929C91.4053 332.929 91.9009 333.024 92.3257 333.214C92.7505 333.405 93.1021 333.673 93.3804 334.02C93.6636 334.362 93.8735 334.77 94.0103 335.243C94.1519 335.717 94.2227 336.239 94.2227 336.811V337.565H88.0996V336.298H92.4795V336.159C92.4697 335.841 92.4062 335.543 92.2891 335.265C92.1768 334.987 92.0034 334.762 91.769 334.591C91.5347 334.42 91.2222 334.335 90.8315 334.335C90.5386 334.335 90.2773 334.398 90.0479 334.525C89.8232 334.647 89.6353 334.826 89.4839 335.06C89.3325 335.294 89.2153 335.578 89.1323 335.91C89.0542 336.237 89.0151 336.605 89.0151 337.016V337.309C89.0151 337.655 89.0615 337.978 89.1543 338.275C89.252 338.568 89.3936 338.825 89.5791 339.044C89.7646 339.264 89.9893 339.438 90.2529 339.564C90.5166 339.687 90.8169 339.748 91.1538 339.748C91.5786 339.748 91.957 339.662 92.2891 339.491C92.6211 339.32 92.9092 339.079 93.1533 338.766L94.0835 339.667C93.9126 339.916 93.6904 340.155 93.417 340.385C93.1436 340.609 92.8091 340.792 92.4136 340.934C92.0229 341.076 91.5688 341.146 91.0513 341.146ZM97.7529 339.242L99.584 333.075H100.712L100.404 334.921L98.5586 341H97.5479L97.7529 339.242ZM96.6763 333.075L98.1045 339.271L98.2217 341H97.0938L94.9478 333.075H96.6763ZM102.426 339.198L103.81 333.075H105.531L103.393 341H102.265L102.426 339.198ZM100.902 333.075L102.711 339.169L102.938 341H101.928L100.06 334.914L99.7524 333.075H100.902ZM114.694 337.023H111.918V335.565H114.694C115.177 335.565 115.568 335.487 115.866 335.331C116.164 335.175 116.381 334.96 116.518 334.687C116.659 334.408 116.73 334.091 116.73 333.734C116.73 333.397 116.659 333.083 116.518 332.79C116.381 332.492 116.164 332.252 115.866 332.072C115.568 331.891 115.177 331.801 114.694 331.801H112.482V341H110.644V330.336H114.694C115.519 330.336 116.22 330.482 116.796 330.775C117.377 331.063 117.819 331.464 118.122 331.977C118.424 332.484 118.576 333.065 118.576 333.72C118.576 334.408 118.424 334.999 118.122 335.492C117.819 335.985 117.377 336.364 116.796 336.627C116.22 336.891 115.519 337.023 114.694 337.023ZM119.608 337.125V336.957C119.608 336.386 119.691 335.856 119.857 335.368C120.023 334.875 120.263 334.447 120.575 334.086C120.893 333.72 121.278 333.437 121.732 333.236C122.191 333.031 122.709 332.929 123.285 332.929C123.866 332.929 124.384 333.031 124.838 333.236C125.297 333.437 125.685 333.72 126.002 334.086C126.32 334.447 126.562 334.875 126.728 335.368C126.894 335.856 126.977 336.386 126.977 336.957V337.125C126.977 337.697 126.894 338.227 126.728 338.715C126.562 339.203 126.32 339.63 126.002 339.997C125.685 340.358 125.299 340.641 124.845 340.846C124.391 341.046 123.876 341.146 123.3 341.146C122.719 341.146 122.199 341.046 121.74 340.846C121.286 340.641 120.9 340.358 120.583 339.997C120.265 339.63 120.023 339.203 119.857 338.715C119.691 338.227 119.608 337.697 119.608 337.125ZM121.374 336.957V337.125C121.374 337.482 121.41 337.819 121.483 338.136C121.557 338.454 121.671 338.732 121.828 338.971C121.984 339.21 122.184 339.398 122.428 339.535C122.672 339.672 122.963 339.74 123.3 339.74C123.627 339.74 123.91 339.672 124.149 339.535C124.394 339.398 124.594 339.21 124.75 338.971C124.906 338.732 125.021 338.454 125.094 338.136C125.172 337.819 125.211 337.482 125.211 337.125V336.957C125.211 336.605 125.172 336.273 125.094 335.961C125.021 335.644 124.904 335.363 124.743 335.119C124.586 334.875 124.386 334.684 124.142 334.547C123.903 334.406 123.617 334.335 123.285 334.335C122.953 334.335 122.665 334.406 122.421 334.547C122.182 334.684 121.984 334.875 121.828 335.119C121.671 335.363 121.557 335.644 121.483 335.961C121.41 336.273 121.374 336.605 121.374 336.957ZM130.346 329.75V341H128.573V329.75H130.346ZM134.169 329.75V341H132.396V329.75H134.169Z" fill="#505050"/>
</g>
<rect x="139" y="40" width="167" height="40" rx="4" fill="#F2F2F2"/>
<path d="M157 55.0714C157 54.4797 157.48 54 158.071 54H159.357C159.949 54 160.429 54.4797 160.429 55.0714V56.3571C160.429 56.9491 159.949 57.4286 159.357 57.4286H158.071C157.48 57.4286 157 56.9491 157 56.3571V55.0714ZM157 59.3571C157 58.7652 157.48 58.2857 158.071 58.2857H159.357C159.949 58.2857 160.429 58.7652 160.429 59.3571V60.6429C160.429 61.2348 159.949 61.7143 159.357 61.7143H158.071C157.48 61.7143 157 61.2348 157 60.6429V59.3571ZM160.429 64.9286C160.429 65.5205 159.949 66 159.357 66H158.071C157.48 66 157 65.5205 157 64.9286V63.6429C157 63.0509 157.48 62.5714 158.071 62.5714H159.357C159.949 62.5714 160.429 63.0509 160.429 63.6429V64.9286ZM161.286 55.0714C161.286 54.4797 161.765 54 162.357 54H163.643C164.235 54 164.714 54.4797 164.714 55.0714V56.3571C164.714 56.9491 164.235 57.4286 163.643 57.4286H162.357C161.765 57.4286 161.286 56.9491 161.286 56.3571V55.0714ZM164.714 60.6429C164.714 61.2348 164.235 61.7143 163.643 61.7143H162.357C161.765 61.7143 161.286 61.2348 161.286 60.6429V59.3571C161.286 58.7652 161.765 58.2857 162.357 58.2857H163.643C164.235 58.2857 164.714 58.7652 164.714 59.3571V60.6429ZM161.286 63.6429C161.286 63.0509 161.765 62.5714 162.357 62.5714H163.643C164.235 62.5714 164.714 63.0509 164.714 63.6429V64.9286C164.714 65.5205 164.235 66 163.643 66H162.357C161.765 66 161.286 65.5205 161.286 64.9286V63.6429ZM169 56.3571C169 56.9491 168.521 57.4286 167.929 57.4286H166.643C166.051 57.4286 165.571 56.9491 165.571 56.3571V55.0714C165.571 54.4797 166.051 54 166.643 54H167.929C168.521 54 169 54.4797 169 55.0714V56.3571ZM165.571 59.3571C165.571 58.7652 166.051 58.2857 166.643 58.2857H167.929C168.521 58.2857 169 58.7652 169 59.3571V60.6429C169 61.2348 168.521 61.7143 167.929 61.7143H166.643C166.051 61.7143 165.571 61.2348 165.571 60.6429V59.3571ZM169 64.9286C169 65.5205 168.521 66 167.929 66H166.643C166.051 66 165.571 65.5205 165.571 64.9286V63.6429C165.571 63.0509 166.051 62.5714 166.643 62.5714H167.929C168.521 62.5714 169 63.0509 169 63.6429V64.9286Z" fill="#1A1A1A"/>
<path d="M180.831 54.3359H182.472L185.555 62.561L188.631 54.3359H190.272L186.2 65H184.896L180.831 54.3359ZM180.084 54.3359H181.644L181.915 61.4551V65H180.084V54.3359ZM189.459 54.3359H191.026V65H189.188V61.4551L189.459 54.3359ZM196.527 65.1465C195.941 65.1465 195.411 65.0513 194.938 64.8608C194.469 64.6655 194.068 64.3945 193.736 64.0479C193.409 63.7012 193.158 63.2935 192.982 62.8247C192.806 62.356 192.718 61.8506 192.718 61.3086V61.0156C192.718 60.3955 192.809 59.834 192.989 59.3311C193.17 58.8281 193.421 58.3984 193.744 58.042C194.066 57.6807 194.447 57.4048 194.886 57.2144C195.326 57.0239 195.802 56.9287 196.314 56.9287C196.881 56.9287 197.376 57.0239 197.801 57.2144C198.226 57.4048 198.578 57.6733 198.856 58.02C199.139 58.3618 199.349 58.7695 199.486 59.2432C199.627 59.7168 199.698 60.2393 199.698 60.8105V61.5649H193.575V60.2979H197.955V60.1587C197.945 59.8413 197.882 59.5435 197.765 59.2651C197.652 58.9868 197.479 58.7622 197.245 58.5913C197.01 58.4204 196.698 58.335 196.307 58.335C196.014 58.335 195.753 58.3984 195.523 58.5254C195.299 58.6475 195.111 58.8257 194.959 59.0601C194.808 59.2944 194.691 59.5776 194.608 59.9097C194.53 60.2368 194.491 60.6055 194.491 61.0156V61.3086C194.491 61.6553 194.537 61.9775 194.63 62.2754C194.728 62.5684 194.869 62.8247 195.055 63.0444C195.24 63.2642 195.465 63.4375 195.729 63.5645C195.992 63.6865 196.292 63.7476 196.629 63.7476C197.054 63.7476 197.433 63.6621 197.765 63.4912C198.097 63.3203 198.385 63.0786 198.629 62.7661L199.559 63.667C199.388 63.916 199.166 64.1553 198.893 64.3848C198.619 64.6094 198.285 64.7925 197.889 64.9341C197.499 65.0757 197.044 65.1465 196.527 65.1465ZM202.826 58.7671V65H201.061V57.0752H202.723L202.826 58.7671ZM202.511 60.7446L201.939 60.7373C201.944 60.1758 202.022 59.6606 202.174 59.1919C202.33 58.7231 202.545 58.3203 202.818 57.9834C203.097 57.6465 203.429 57.3877 203.814 57.207C204.2 57.0215 204.63 56.9287 205.104 56.9287C205.484 56.9287 205.829 56.9824 206.136 57.0898C206.449 57.1924 206.715 57.3608 206.935 57.5952C207.159 57.8296 207.33 58.1348 207.447 58.5107C207.564 58.8818 207.623 59.3384 207.623 59.8804V65H205.851V59.873C205.851 59.4922 205.794 59.1919 205.682 58.9722C205.575 58.7476 205.416 58.5889 205.206 58.4961C205.001 58.3984 204.745 58.3496 204.437 58.3496C204.134 58.3496 203.863 58.4131 203.624 58.54C203.385 58.667 203.182 58.8403 203.016 59.0601C202.855 59.2798 202.73 59.5337 202.643 59.8218C202.555 60.1099 202.511 60.4175 202.511 60.7446ZM214.193 63.1323V57.0752H215.965V65H214.295L214.193 63.1323ZM214.442 61.4844L215.035 61.4697C215.035 62.002 214.977 62.4927 214.859 62.9419C214.742 63.3862 214.562 63.7744 214.317 64.1064C214.073 64.4336 213.761 64.6899 213.38 64.8755C212.999 65.0562 212.542 65.1465 212.01 65.1465C211.625 65.1465 211.271 65.0903 210.948 64.978C210.626 64.8657 210.348 64.6924 210.113 64.458C209.884 64.2236 209.706 63.9185 209.579 63.5425C209.452 63.1665 209.388 62.7173 209.388 62.1948V57.0752H211.153V62.2095C211.153 62.4976 211.188 62.7393 211.256 62.9346C211.324 63.125 211.417 63.2788 211.534 63.396C211.651 63.5132 211.788 63.5962 211.944 63.645C212.101 63.6938 212.267 63.7183 212.442 63.7183C212.945 63.7183 213.341 63.6206 213.629 63.4253C213.922 63.2251 214.129 62.9565 214.251 62.6196C214.378 62.2827 214.442 61.9043 214.442 61.4844ZM225.685 60.1807H222.967L222.953 58.8403H225.326C225.726 58.8403 226.065 58.7817 226.344 58.6646C226.627 58.5425 226.842 58.3691 226.988 58.1445C227.135 57.915 227.208 57.6392 227.208 57.3169C227.208 56.9604 227.14 56.6699 227.003 56.4453C226.866 56.2207 226.656 56.0571 226.373 55.9546C226.095 55.8521 225.738 55.8008 225.304 55.8008H223.524V65H221.686V54.3359H225.304C225.89 54.3359 226.412 54.3921 226.871 54.5044C227.335 54.6167 227.728 54.7925 228.05 55.0317C228.377 55.2661 228.624 55.564 228.79 55.9253C228.961 56.2866 229.046 56.7163 229.046 57.2144C229.046 57.6538 228.941 58.0566 228.731 58.4229C228.521 58.7842 228.211 59.0796 227.801 59.3091C227.391 59.5386 226.881 59.6753 226.271 59.7192L225.685 60.1807ZM225.604 65H222.389L223.216 63.5425H225.604C226.019 63.5425 226.366 63.4741 226.644 63.3374C226.922 63.1958 227.13 63.0029 227.267 62.7588C227.408 62.5098 227.479 62.2192 227.479 61.8872C227.479 61.5405 227.418 61.2402 227.296 60.9863C227.174 60.7275 226.981 60.5298 226.717 60.3931C226.454 60.2515 226.109 60.1807 225.685 60.1807H223.619L223.634 58.8403H226.322L226.739 59.3457C227.325 59.3652 227.806 59.4946 228.182 59.7339C228.563 59.9731 228.846 60.2832 229.032 60.6641C229.217 61.0449 229.31 61.4551 229.31 61.8945C229.31 62.5732 229.161 63.1421 228.863 63.6011C228.57 64.0601 228.148 64.4092 227.596 64.6484C227.044 64.8828 226.38 65 225.604 65ZM235.755 63.1323V57.0752H237.528V65H235.858L235.755 63.1323ZM236.004 61.4844L236.598 61.4697C236.598 62.002 236.539 62.4927 236.422 62.9419C236.305 63.3862 236.124 63.7744 235.88 64.1064C235.636 64.4336 235.323 64.6899 234.942 64.8755C234.562 65.0562 234.105 65.1465 233.573 65.1465C233.187 65.1465 232.833 65.0903 232.511 64.978C232.188 64.8657 231.91 64.6924 231.676 64.458C231.446 64.2236 231.268 63.9185 231.141 63.5425C231.014 63.1665 230.951 62.7173 230.951 62.1948V57.0752H232.716V62.2095C232.716 62.4976 232.75 62.7393 232.818 62.9346C232.887 63.125 232.979 63.2788 233.097 63.396C233.214 63.5132 233.351 63.5962 233.507 63.645C233.663 63.6938 233.829 63.7183 234.005 63.7183C234.508 63.7183 234.903 63.6206 235.191 63.4253C235.484 63.2251 235.692 62.9565 235.814 62.6196C235.941 62.2827 236.004 61.9043 236.004 61.4844ZM242.97 57.0752V58.3643H238.502V57.0752H242.97ZM239.791 55.1343H241.556V62.8101C241.556 63.0542 241.59 63.2422 241.659 63.374C241.732 63.501 241.832 63.5864 241.959 63.6304C242.086 63.6743 242.235 63.6963 242.406 63.6963C242.528 63.6963 242.645 63.689 242.757 63.6743C242.87 63.6597 242.96 63.645 243.028 63.6304L243.036 64.978C242.889 65.022 242.718 65.061 242.523 65.0952C242.333 65.1294 242.113 65.1465 241.864 65.1465C241.458 65.1465 241.1 65.0757 240.787 64.9341C240.475 64.7876 240.23 64.5508 240.055 64.2236C239.879 63.8965 239.791 63.4619 239.791 62.9199V55.1343ZM247.965 57.0752V58.3643H243.497V57.0752H247.965ZM244.786 55.1343H246.551V62.8101C246.551 63.0542 246.585 63.2422 246.654 63.374C246.727 63.501 246.827 63.5864 246.954 63.6304C247.081 63.6743 247.23 63.6963 247.401 63.6963C247.523 63.6963 247.64 63.689 247.752 63.6743C247.865 63.6597 247.955 63.645 248.023 63.6304L248.031 64.978C247.884 65.022 247.713 65.061 247.518 65.0952C247.328 65.1294 247.108 65.1465 246.859 65.1465C246.454 65.1465 246.095 65.0757 245.782 64.9341C245.47 64.7876 245.226 64.5508 245.05 64.2236C244.874 63.8965 244.786 63.4619 244.786 62.9199V55.1343ZM248.814 61.1255V60.957C248.814 60.3857 248.897 59.856 249.063 59.3677C249.229 58.8745 249.469 58.4473 249.781 58.0859C250.099 57.7197 250.484 57.4365 250.938 57.2363C251.397 57.0312 251.915 56.9287 252.491 56.9287C253.072 56.9287 253.59 57.0312 254.044 57.2363C254.503 57.4365 254.891 57.7197 255.208 58.0859C255.526 58.4473 255.768 58.8745 255.934 59.3677C256.1 59.856 256.183 60.3857 256.183 60.957V61.1255C256.183 61.6968 256.1 62.2266 255.934 62.7148C255.768 63.2031 255.526 63.6304 255.208 63.9966C254.891 64.3579 254.505 64.6411 254.051 64.8462C253.597 65.0464 253.082 65.1465 252.506 65.1465C251.925 65.1465 251.405 65.0464 250.946 64.8462C250.492 64.6411 250.106 64.3579 249.789 63.9966C249.471 63.6304 249.229 63.2031 249.063 62.7148C248.897 62.2266 248.814 61.6968 248.814 61.1255ZM250.58 60.957V61.1255C250.58 61.4819 250.616 61.8188 250.689 62.1362C250.763 62.4536 250.877 62.7319 251.034 62.9712C251.19 63.2104 251.39 63.3984 251.634 63.5352C251.878 63.6719 252.169 63.7402 252.506 63.7402C252.833 63.7402 253.116 63.6719 253.355 63.5352C253.6 63.3984 253.8 63.2104 253.956 62.9712C254.112 62.7319 254.227 62.4536 254.3 62.1362C254.378 61.8188 254.417 61.4819 254.417 61.1255V60.957C254.417 60.6055 254.378 60.2734 254.3 59.9609C254.227 59.6436 254.11 59.3628 253.949 59.1187C253.792 58.8745 253.592 58.6841 253.348 58.5474C253.109 58.4058 252.823 58.335 252.491 58.335C252.159 58.335 251.871 58.4058 251.627 58.5474C251.388 58.6841 251.19 58.8745 251.034 59.1187C250.877 59.3628 250.763 59.6436 250.689 59.9609C250.616 60.2734 250.58 60.6055 250.58 60.957ZM259.413 58.7671V65H257.647V57.0752H259.31L259.413 58.7671ZM259.098 60.7446L258.526 60.7373C258.531 60.1758 258.609 59.6606 258.761 59.1919C258.917 58.7231 259.132 58.3203 259.405 57.9834C259.684 57.6465 260.016 57.3877 260.401 57.207C260.787 57.0215 261.217 56.9287 261.69 56.9287C262.071 56.9287 262.416 56.9824 262.723 57.0898C263.036 57.1924 263.302 57.3608 263.521 57.5952C263.746 57.8296 263.917 58.1348 264.034 58.5107C264.151 58.8818 264.21 59.3384 264.21 59.8804V65H262.438V59.873C262.438 59.4922 262.381 59.1919 262.269 58.9722C262.162 58.7476 262.003 58.5889 261.793 58.4961C261.588 58.3984 261.332 58.3496 261.024 58.3496C260.721 58.3496 260.45 58.4131 260.211 58.54C259.972 58.667 259.769 58.8403 259.603 59.0601C259.442 59.2798 259.317 59.5337 259.229 59.8218C259.142 60.1099 259.098 60.4175 259.098 60.7446Z" fill="#1A1A1A"/>
<path d="M288.001 64.3975C287.745 64.3975 287.489 64.295 287.294 64.0899L282.001 58.5339L276.707 64.0924C276.316 64.5025 275.684 64.5025 275.293 64.0924C274.902 63.6822 274.902 63.0178 275.293 62.6076L281.293 56.3076C281.684 55.8975 282.316 55.8975 282.707 56.3076L288.707 62.6076C289.098 63.0178 289.098 63.6822 288.707 64.0924C288.513 64.2958 288.257 64.3975 288.001 64.3975Z" fill="#1A1A1A"/>
<rect x="139" y="40" width="167" height="40" rx="4" stroke="#1A1A1A" stroke-width="2"/>
<defs>
<filter id="filter0_d_1709_35238" x="20" y="80" width="296" height="292" filterUnits="userSpaceOnUse" color-interpolation-filters="sRGB">
<feFlood flood-opacity="0" result="BackgroundImageFix"/>
<feColorMatrix in="SourceAlpha" type="matrix" values="0 0 0 0 0 0 0 0 0 0 0 0 0 0 0 0 0 0 127 0" result="hardAlpha"/>
<feOffset/>
<feGaussianBlur stdDeviation="4"/>
<feComposite in2="hardAlpha" operator="out"/>
<feColorMatrix type="matrix" values="0 0 0 0 0.101961 0 0 0 0 0.101961 0 0 0 0 0.101961 0 0 0 0.15 0"/>
<feBlend mode="normal" in2="BackgroundImageFix" result="effect1_dropShadow_1709_35238"/>
<feBlend mode="normal" in="SourceGraphic" in2="effect1_dropShadow_1709_35238" result="shape"/>
</filter>
</defs>
</svg>
