<svg width="390" height="514" viewBox="0 0 390 514" fill="none" xmlns="http://www.w3.org/2000/svg">
<rect width="390" height="514" rx="4" fill="#F8F8F8"/>
<rect x="280" y="40" width="40" height="40" rx="4" fill="#F2F2F2"/>
<path d="M294 55.0714C294 54.4797 294.48 54 295.071 54H296.357C296.949 54 297.429 54.4797 297.429 55.0714V56.3571C297.429 56.9491 296.949 57.4286 296.357 57.4286H295.071C294.48 57.4286 294 56.9491 294 56.3571V55.0714ZM294 59.3571C294 58.7652 294.48 58.2857 295.071 58.2857H296.357C296.949 58.2857 297.429 58.7652 297.429 59.3571V60.6429C297.429 61.2348 296.949 61.7143 296.357 61.7143H295.071C294.48 61.7143 294 61.2348 294 60.6429V59.3571ZM297.429 64.9286C297.429 65.5205 296.949 66 296.357 66H295.071C294.48 66 294 65.5205 294 64.9286V63.6429C294 63.0509 294.48 62.5714 295.071 62.5714H296.357C296.949 62.5714 297.429 63.0509 297.429 63.6429V64.9286ZM298.286 55.0714C298.286 54.4797 298.765 54 299.357 54H300.643C301.235 54 301.714 54.4797 301.714 55.0714V56.3571C301.714 56.9491 301.235 57.4286 300.643 57.4286H299.357C298.765 57.4286 298.286 56.9491 298.286 56.3571V55.0714ZM301.714 60.6429C301.714 61.2348 301.235 61.7143 300.643 61.7143H299.357C298.765 61.7143 298.286 61.2348 298.286 60.6429V59.3571C298.286 58.7652 298.765 58.2857 299.357 58.2857H300.643C301.235 58.2857 301.714 58.7652 301.714 59.3571V60.6429ZM298.286 63.6429C298.286 63.0509 298.765 62.5714 299.357 62.5714H300.643C301.235 62.5714 301.714 63.0509 301.714 63.6429V64.9286C301.714 65.5205 301.235 66 300.643 66H299.357C298.765 66 298.286 65.5205 298.286 64.9286V63.6429ZM306 56.3571C306 56.9491 305.521 57.4286 304.929 57.4286H303.643C303.051 57.4286 302.571 56.9491 302.571 56.3571V55.0714C302.571 54.4797 303.051 54 303.643 54H304.929C305.521 54 306 54.4797 306 55.0714V56.3571ZM302.571 59.3571C302.571 58.7652 303.051 58.2857 303.643 58.2857H304.929C305.521 58.2857 306 58.7652 306 59.3571V60.6429C306 61.2348 305.521 61.7143 304.929 61.7143H303.643C303.051 61.7143 302.571 61.2348 302.571 60.6429V59.3571ZM306 64.9286C306 65.5205 305.521 66 304.929 66H303.643C303.051 66 302.571 65.5205 302.571 64.9286V63.6429C302.571 63.0509 303.051 62.5714 303.643 62.5714H304.929C305.521 62.5714 306 63.0509 306 63.6429V64.9286Z" fill="#1A1A1A"/>
<rect x="280" y="40" width="40" height="40" rx="4" stroke="#1A1A1A" stroke-width="2"/>
<g filter="url(#filter0_d_1709_35240)">
<rect x="40" y="88" width="280" height="276" rx="8" fill="white" shape-rendering="crispEdges"/>
<path d="M70.3984 116.991H71.9854C71.9346 117.596 71.7653 118.136 71.4775 118.61C71.1898 119.08 70.7856 119.45 70.2651 119.721C69.7446 119.992 69.112 120.127 68.3672 120.127C67.7959 120.127 67.2817 120.025 66.8247 119.822C66.3677 119.615 65.9762 119.323 65.6504 118.946C65.3245 118.565 65.0749 118.106 64.9014 117.569C64.7321 117.031 64.6475 116.431 64.6475 115.766V114.998C64.6475 114.334 64.7342 113.733 64.9077 113.195C65.0854 112.658 65.3394 112.199 65.6694 111.818C65.9995 111.433 66.3952 111.139 66.8564 110.936C67.3219 110.732 67.8446 110.631 68.4243 110.631C69.1606 110.631 69.7827 110.766 70.2905 111.037C70.7983 111.308 71.1919 111.682 71.4712 112.161C71.7547 112.639 71.9282 113.187 71.9917 113.805H70.4048C70.3625 113.407 70.2694 113.066 70.1255 112.783C69.9858 112.499 69.7785 112.283 69.5034 112.135C69.2284 111.983 68.8687 111.907 68.4243 111.907C68.0604 111.907 67.743 111.974 67.4722 112.11C67.2013 112.245 66.9749 112.444 66.793 112.707C66.611 112.969 66.4735 113.293 66.3804 113.678C66.2915 114.059 66.2471 114.494 66.2471 114.985V115.766C66.2471 116.232 66.2873 116.655 66.3677 117.036C66.4523 117.412 66.5793 117.736 66.7485 118.007C66.922 118.278 67.1421 118.487 67.4087 118.635C67.6753 118.783 67.9948 118.857 68.3672 118.857C68.82 118.857 69.186 118.785 69.4653 118.642C69.7489 118.498 69.9626 118.288 70.1064 118.013C70.2546 117.734 70.3519 117.393 70.3984 116.991ZM80.5391 114.617V115.88H75.6323V114.617H80.5391ZM76.0259 110.758V120H74.4326V110.758H76.0259ZM81.7642 110.758V120H80.1772V110.758H81.7642ZM92.0317 115.125V115.633C92.0317 116.331 91.9408 116.957 91.7588 117.512C91.5768 118.066 91.3166 118.538 90.978 118.927C90.6437 119.317 90.2417 119.615 89.772 119.822C89.3022 120.025 88.7817 120.127 88.2104 120.127C87.6434 120.127 87.125 120.025 86.6553 119.822C86.1898 119.615 85.7856 119.317 85.4429 118.927C85.1001 118.538 84.8335 118.066 84.6431 117.512C84.4569 116.957 84.3638 116.331 84.3638 115.633V115.125C84.3638 114.427 84.4569 113.803 84.6431 113.252C84.8293 112.698 85.0916 112.226 85.4302 111.837C85.7729 111.443 86.1771 111.145 86.6426 110.942C87.1123 110.735 87.6307 110.631 88.1978 110.631C88.769 110.631 89.2896 110.735 89.7593 110.942C90.229 111.145 90.6331 111.443 90.9717 111.837C91.3102 112.226 91.5705 112.698 91.7524 113.252C91.9386 113.803 92.0317 114.427 92.0317 115.125ZM90.4385 115.633V115.112C90.4385 114.596 90.3877 114.141 90.2861 113.748C90.1888 113.35 90.0428 113.018 89.8481 112.751C89.6577 112.48 89.4229 112.277 89.1436 112.142C88.8643 112.002 88.549 111.932 88.1978 111.932C87.8465 111.932 87.5334 112.002 87.2583 112.142C86.9832 112.277 86.7484 112.48 86.5537 112.751C86.3633 113.018 86.2173 113.35 86.1157 113.748C86.0142 114.141 85.9634 114.596 85.9634 115.112V115.633C85.9634 116.149 86.0142 116.606 86.1157 117.004C86.2173 117.402 86.3654 117.738 86.5601 118.013C86.759 118.284 86.9959 118.489 87.271 118.629C87.5461 118.764 87.8592 118.832 88.2104 118.832C88.5659 118.832 88.8812 118.764 89.1562 118.629C89.4313 118.489 89.6641 118.284 89.8545 118.013C90.0449 117.738 90.1888 117.402 90.2861 117.004C90.3877 116.606 90.4385 116.149 90.4385 115.633ZM101.995 115.125V115.633C101.995 116.331 101.904 116.957 101.722 117.512C101.54 118.066 101.279 118.538 100.941 118.927C100.607 119.317 100.205 119.615 99.7349 119.822C99.2651 120.025 98.7446 120.127 98.1733 120.127C97.6063 120.127 97.0879 120.025 96.6182 119.822C96.1527 119.615 95.7485 119.317 95.4058 118.927C95.063 118.538 94.7964 118.066 94.606 117.512C94.4198 116.957 94.3267 116.331 94.3267 115.633V115.125C94.3267 114.427 94.4198 113.803 94.606 113.252C94.7922 112.698 95.0545 112.226 95.3931 111.837C95.7358 111.443 96.14 111.145 96.6055 110.942C97.0752 110.735 97.5936 110.631 98.1606 110.631C98.7319 110.631 99.2524 110.735 99.7222 110.942C100.192 111.145 100.596 111.443 100.935 111.837C101.273 112.226 101.533 112.698 101.715 113.252C101.902 113.803 101.995 114.427 101.995 115.125ZM100.401 115.633V115.112C100.401 114.596 100.351 114.141 100.249 113.748C100.152 113.35 100.006 113.018 99.811 112.751C99.6206 112.48 99.3857 112.277 99.1064 112.142C98.8271 112.002 98.5119 111.932 98.1606 111.932C97.8094 111.932 97.4963 112.002 97.2212 112.142C96.9461 112.277 96.7113 112.48 96.5166 112.751C96.3262 113.018 96.1802 113.35 96.0786 113.748C95.9771 114.141 95.9263 114.596 95.9263 115.112V115.633C95.9263 116.149 95.9771 116.606 96.0786 117.004C96.1802 117.402 96.3283 117.738 96.5229 118.013C96.7218 118.284 96.9588 118.489 97.2339 118.629C97.509 118.764 97.8221 118.832 98.1733 118.832C98.5288 118.832 98.8441 118.764 99.1191 118.629C99.3942 118.489 99.627 118.284 99.8174 118.013C100.008 117.738 100.152 117.402 100.249 117.004C100.351 116.606 100.401 116.149 100.401 115.633ZM109.45 117.62C109.45 117.429 109.421 117.26 109.361 117.112C109.306 116.964 109.207 116.828 109.063 116.706C108.919 116.583 108.716 116.464 108.454 116.35C108.195 116.232 107.865 116.111 107.463 115.988C107.023 115.853 106.617 115.703 106.245 115.538C105.876 115.368 105.555 115.174 105.28 114.954C105.005 114.729 104.791 114.473 104.639 114.186C104.486 113.894 104.41 113.557 104.41 113.176C104.41 112.8 104.488 112.457 104.645 112.148C104.806 111.839 105.032 111.572 105.324 111.348C105.62 111.12 105.97 110.944 106.372 110.821C106.774 110.694 107.218 110.631 107.705 110.631C108.39 110.631 108.98 110.758 109.476 111.012C109.975 111.266 110.358 111.606 110.625 112.034C110.895 112.461 111.031 112.933 111.031 113.449H109.45C109.45 113.145 109.385 112.876 109.253 112.643C109.126 112.406 108.932 112.22 108.669 112.084C108.411 111.949 108.083 111.881 107.686 111.881C107.309 111.881 106.996 111.938 106.746 112.053C106.496 112.167 106.31 112.321 106.188 112.516C106.065 112.711 106.003 112.931 106.003 113.176C106.003 113.35 106.044 113.508 106.124 113.652C106.204 113.792 106.327 113.923 106.492 114.046C106.657 114.164 106.865 114.277 107.114 114.382C107.364 114.488 107.658 114.59 107.997 114.687C108.509 114.839 108.955 115.009 109.336 115.195C109.717 115.377 110.034 115.584 110.288 115.817C110.542 116.05 110.732 116.314 110.859 116.61C110.986 116.902 111.05 117.235 111.05 117.607C111.05 117.996 110.972 118.347 110.815 118.661C110.658 118.97 110.434 119.234 110.142 119.454C109.854 119.67 109.507 119.837 109.101 119.956C108.699 120.07 108.25 120.127 107.755 120.127C107.311 120.127 106.873 120.068 106.441 119.949C106.014 119.831 105.625 119.651 105.273 119.41C104.922 119.164 104.643 118.86 104.436 118.496C104.228 118.127 104.125 117.698 104.125 117.207H105.718C105.718 117.507 105.769 117.764 105.87 117.975C105.976 118.187 106.122 118.36 106.308 118.496C106.494 118.627 106.71 118.724 106.956 118.788C107.205 118.851 107.472 118.883 107.755 118.883C108.128 118.883 108.439 118.83 108.688 118.724C108.942 118.618 109.133 118.47 109.26 118.28C109.387 118.089 109.45 117.869 109.45 117.62ZM119.508 118.737V120H114.602V118.737H119.508ZM115.052 110.758V120H113.459V110.758H115.052ZM118.867 114.617V115.861H114.602V114.617H118.867ZM119.477 110.758V112.027H114.602V110.758H119.477ZM129.544 110.758V120H127.964V110.758H129.544ZM132.445 110.758V112.027H125.088V110.758H132.445ZM140.713 118.737V120H135.807V118.737H140.713ZM136.257 110.758V120H134.664V110.758H136.257ZM140.072 114.617V115.861H135.807V114.617H140.072ZM140.682 110.758V112.027H135.807V110.758H140.682ZM143.662 110.758H145.084L147.756 117.886L150.422 110.758H151.844L148.315 120H147.185L143.662 110.758ZM143.015 110.758H144.367L144.602 116.928V120H143.015V110.758ZM151.14 110.758H152.498V120H150.905V116.928L151.14 110.758ZM158.9 116.553H156.494V115.29H158.9C159.319 115.29 159.657 115.222 159.916 115.087C160.174 114.951 160.362 114.765 160.48 114.528C160.603 114.287 160.665 114.012 160.665 113.703C160.665 113.411 160.603 113.138 160.48 112.884C160.362 112.626 160.174 112.419 159.916 112.262C159.657 112.106 159.319 112.027 158.9 112.027H156.983V120H155.39V110.758H158.9C159.615 110.758 160.222 110.885 160.722 111.139C161.225 111.388 161.608 111.735 161.871 112.18C162.133 112.62 162.264 113.123 162.264 113.69C162.264 114.287 162.133 114.799 161.871 115.227C161.608 115.654 161.225 115.982 160.722 116.21C160.222 116.439 159.615 116.553 158.9 116.553ZM170.481 118.737V120H165.841V118.737H170.481ZM166.286 110.758V120H164.692V110.758H166.286ZM176.439 111.989L173.678 120H172.008L175.487 110.758H176.553L176.439 111.989ZM178.75 120L175.982 111.989L175.861 110.758H176.934L180.425 120H178.75ZM178.616 116.572V117.835H173.589V116.572H178.616ZM185.462 110.758V120H183.882V110.758H185.462ZM188.363 110.758V112.027H181.006V110.758H188.363ZM196.631 118.737V120H191.725V118.737H196.631ZM192.175 110.758V120H190.582V110.758H192.175ZM195.99 114.617V115.861H191.725V114.617H195.99ZM196.6 110.758V112.027H191.725V110.758H196.6Z" fill="#737373"/>
<path fill-rule="evenodd" clip-rule="evenodd" d="M73.5667 154.259H75.8889C76.1836 154.259 76.4662 154.393 76.6746 154.632C76.8829 154.871 77 155.195 77 155.533V165.726C77 166.064 76.8829 166.388 76.6746 166.627C76.4662 166.866 76.1836 167 75.8889 167H68.1111C67.8164 167 67.5338 166.866 67.3255 166.627C67.1171 166.388 67 166.064 67 165.726V155.533C67 155.195 67.1171 154.871 67.3255 154.632C67.5338 154.393 67.8164 154.259 68.1111 154.259H70.4333C70.5501 153.89 70.7631 153.571 71.0434 153.346C71.3237 153.121 71.6577 153 72 153C72.3423 153 72.6763 153.121 72.9566 153.346C73.2369 153.571 73.4499 153.89 73.5667 154.259ZM72.3086 154.366C72.2172 154.296 72.1099 154.259 72 154.259C71.8527 154.259 71.7114 154.326 71.6072 154.446C71.503 154.565 71.4444 154.727 71.4444 154.896C71.4444 155.022 71.477 155.145 71.5381 155.25C71.5991 155.355 71.6859 155.437 71.7874 155.485C71.8889 155.533 72.0006 155.546 72.1084 155.521C72.2161 155.496 72.3151 155.436 72.3928 155.347C72.4705 155.258 72.5234 155.144 72.5449 155.02C72.5663 154.897 72.5553 154.769 72.5133 154.652C72.4713 154.536 72.4 154.436 72.3086 154.366ZM68.1111 155.533V165.726H75.8889V155.533H74.2222V156.807H69.7778V155.533H68.1111ZM69.7778 160.629H74.2222C74.3696 160.629 74.5109 160.696 74.6151 160.816C74.7193 160.935 74.7778 161.097 74.7778 161.266C74.7778 161.435 74.7193 161.597 74.6151 161.717C74.5109 161.836 74.3696 161.903 74.2222 161.903H69.7778C69.6304 161.903 69.4891 161.836 69.3849 161.717C69.2807 161.597 69.2222 161.435 69.2222 161.266C69.2222 161.097 69.2807 160.935 69.3849 160.816C69.4891 160.696 69.6304 160.629 69.7778 160.629ZM74.2222 158.718H69.7778C69.6304 158.718 69.4891 158.785 69.3849 158.905C69.2807 159.024 69.2222 159.186 69.2222 159.355C69.2222 159.524 69.2807 159.686 69.3849 159.805C69.4891 159.925 69.6304 159.992 69.7778 159.992H74.2222C74.3696 159.992 74.5109 159.925 74.6151 159.805C74.7193 159.686 74.7778 159.524 74.7778 159.355C74.7778 159.186 74.7193 159.024 74.6151 158.905C74.5109 158.785 74.3696 158.718 74.2222 158.718ZM72 162.54H74.2222C74.3696 162.54 74.5109 162.607 74.6151 162.727C74.7193 162.846 74.7778 163.008 74.7778 163.177C74.7778 163.346 74.7193 163.508 74.6151 163.628C74.5109 163.747 74.3696 163.814 74.2222 163.814H72C71.8527 163.814 71.7114 163.747 71.6072 163.628C71.503 163.508 71.4444 163.346 71.4444 163.177C71.4444 163.008 71.503 162.846 71.6072 162.727C71.7114 162.607 71.8527 162.54 72 162.54Z" fill="#505050"/>
<path d="M95.3828 161.528H97.2139C97.1553 162.227 96.96 162.849 96.6279 163.396C96.2959 163.938 95.8296 164.365 95.229 164.678C94.6284 164.99 93.8984 165.146 93.0391 165.146C92.3799 165.146 91.7866 165.029 91.2593 164.795C90.7319 164.556 90.2803 164.219 89.9043 163.784C89.5283 163.345 89.2402 162.815 89.04 162.195C88.8447 161.575 88.7471 160.881 88.7471 160.115V159.229C88.7471 158.462 88.8472 157.769 89.0474 157.148C89.2524 156.528 89.5454 155.999 89.9263 155.559C90.3071 155.115 90.7637 154.775 91.2959 154.541C91.833 154.307 92.436 154.189 93.105 154.189C93.9546 154.189 94.6724 154.346 95.2583 154.658C95.8442 154.971 96.2983 155.403 96.6206 155.955C96.9478 156.506 97.1479 157.139 97.2212 157.852H95.3901C95.3413 157.393 95.2339 157 95.0679 156.672C94.9067 156.345 94.6675 156.096 94.3501 155.925C94.0327 155.75 93.6177 155.662 93.105 155.662C92.6851 155.662 92.3188 155.74 92.0063 155.896C91.6938 156.052 91.4326 156.282 91.2227 156.584C91.0127 156.887 90.854 157.261 90.7466 157.705C90.644 158.145 90.5928 158.647 90.5928 159.214V160.115C90.5928 160.652 90.6392 161.14 90.7319 161.58C90.8296 162.014 90.9761 162.388 91.1714 162.7C91.3716 163.013 91.6255 163.254 91.9331 163.425C92.2407 163.596 92.6094 163.682 93.0391 163.682C93.5615 163.682 93.9839 163.599 94.3062 163.433C94.6333 163.267 94.8799 163.025 95.0459 162.708C95.2168 162.385 95.3291 161.992 95.3828 161.528ZM98.3711 161.125V160.957C98.3711 160.386 98.4541 159.856 98.6201 159.368C98.7861 158.875 99.0254 158.447 99.3379 158.086C99.6553 157.72 100.041 157.437 100.495 157.236C100.954 157.031 101.472 156.929 102.048 156.929C102.629 156.929 103.146 157.031 103.601 157.236C104.06 157.437 104.448 157.72 104.765 158.086C105.083 158.447 105.324 158.875 105.49 159.368C105.656 159.856 105.739 160.386 105.739 160.957V161.125C105.739 161.697 105.656 162.227 105.49 162.715C105.324 163.203 105.083 163.63 104.765 163.997C104.448 164.358 104.062 164.641 103.608 164.846C103.154 165.046 102.639 165.146 102.062 165.146C101.481 165.146 100.961 165.046 100.502 164.846C100.048 164.641 99.6626 164.358 99.3452 163.997C99.0278 163.63 98.7861 163.203 98.6201 162.715C98.4541 162.227 98.3711 161.697 98.3711 161.125ZM100.136 160.957V161.125C100.136 161.482 100.173 161.819 100.246 162.136C100.319 162.454 100.434 162.732 100.59 162.971C100.747 163.21 100.947 163.398 101.191 163.535C101.435 163.672 101.726 163.74 102.062 163.74C102.39 163.74 102.673 163.672 102.912 163.535C103.156 163.398 103.356 163.21 103.513 162.971C103.669 162.732 103.784 162.454 103.857 162.136C103.935 161.819 103.974 161.482 103.974 161.125V160.957C103.974 160.605 103.935 160.273 103.857 159.961C103.784 159.644 103.667 159.363 103.505 159.119C103.349 158.875 103.149 158.684 102.905 158.547C102.666 158.406 102.38 158.335 102.048 158.335C101.716 158.335 101.428 158.406 101.184 158.547C100.944 158.684 100.747 158.875 100.59 159.119C100.434 159.363 100.319 159.644 100.246 159.961C100.173 160.273 100.136 160.605 100.136 160.957ZM108.969 158.767V165H107.204V157.075H108.867L108.969 158.767ZM108.654 160.745L108.083 160.737C108.088 160.176 108.166 159.661 108.317 159.192C108.474 158.723 108.688 158.32 108.962 157.983C109.24 157.646 109.572 157.388 109.958 157.207C110.344 157.021 110.773 156.929 111.247 156.929C111.628 156.929 111.972 156.982 112.28 157.09C112.592 157.192 112.858 157.361 113.078 157.595C113.303 157.83 113.474 158.135 113.591 158.511C113.708 158.882 113.767 159.338 113.767 159.88V165H111.994V159.873C111.994 159.492 111.938 159.192 111.826 158.972C111.718 158.748 111.56 158.589 111.35 158.496C111.145 158.398 110.888 158.35 110.581 158.35C110.278 158.35 110.007 158.413 109.768 158.54C109.528 158.667 109.326 158.84 109.16 159.06C108.999 159.28 108.874 159.534 108.786 159.822C108.698 160.11 108.654 160.417 108.654 160.745ZM119.201 157.075V158.364H114.733V157.075H119.201ZM116.022 155.134H117.788V162.81C117.788 163.054 117.822 163.242 117.89 163.374C117.963 163.501 118.063 163.586 118.19 163.63C118.317 163.674 118.466 163.696 118.637 163.696C118.759 163.696 118.876 163.689 118.989 163.674C119.101 163.66 119.191 163.645 119.26 163.63L119.267 164.978C119.121 165.022 118.95 165.061 118.754 165.095C118.564 165.129 118.344 165.146 118.095 165.146C117.69 165.146 117.331 165.076 117.019 164.934C116.706 164.788 116.462 164.551 116.286 164.224C116.11 163.896 116.022 163.462 116.022 162.92V155.134ZM125.031 163.411V159.631C125.031 159.348 124.98 159.104 124.877 158.899C124.775 158.694 124.619 158.535 124.409 158.423C124.204 158.311 123.945 158.254 123.632 158.254C123.344 158.254 123.095 158.303 122.885 158.401C122.675 158.499 122.512 158.63 122.395 158.796C122.277 158.962 122.219 159.15 122.219 159.36H120.461C120.461 159.048 120.537 158.745 120.688 158.452C120.839 158.159 121.059 157.898 121.347 157.668C121.635 157.439 121.979 157.258 122.38 157.126C122.78 156.995 123.229 156.929 123.728 156.929C124.323 156.929 124.851 157.029 125.31 157.229C125.773 157.429 126.137 157.732 126.401 158.137C126.669 158.538 126.804 159.041 126.804 159.646V163.169C126.804 163.53 126.828 163.855 126.877 164.143C126.931 164.426 127.006 164.673 127.104 164.883V165H125.295C125.212 164.81 125.146 164.568 125.097 164.275C125.053 163.977 125.031 163.689 125.031 163.411ZM125.288 160.181L125.302 161.272H124.035C123.708 161.272 123.42 161.304 123.171 161.367C122.922 161.426 122.714 161.514 122.548 161.631C122.382 161.748 122.258 161.89 122.175 162.056C122.092 162.222 122.05 162.41 122.05 162.62C122.05 162.83 122.099 163.022 122.197 163.198C122.294 163.369 122.436 163.503 122.622 163.601C122.812 163.699 123.042 163.748 123.31 163.748C123.671 163.748 123.986 163.674 124.255 163.528C124.528 163.376 124.743 163.193 124.899 162.979C125.056 162.759 125.139 162.551 125.148 162.356L125.72 163.14C125.661 163.34 125.561 163.555 125.419 163.784C125.278 164.014 125.092 164.233 124.863 164.443C124.638 164.648 124.367 164.817 124.05 164.949C123.737 165.081 123.376 165.146 122.966 165.146C122.448 165.146 121.987 165.044 121.582 164.839C121.176 164.629 120.859 164.348 120.629 163.997C120.4 163.64 120.285 163.237 120.285 162.788C120.285 162.368 120.363 161.997 120.52 161.675C120.681 161.348 120.915 161.074 121.223 160.854C121.535 160.635 121.916 160.469 122.365 160.356C122.814 160.239 123.327 160.181 123.903 160.181H125.288ZM131.887 163.74C132.175 163.74 132.434 163.684 132.663 163.572C132.897 163.455 133.085 163.293 133.227 163.088C133.374 162.883 133.454 162.646 133.469 162.378H135.131C135.122 162.891 134.97 163.357 134.677 163.777C134.384 164.197 133.996 164.531 133.513 164.78C133.029 165.024 132.495 165.146 131.909 165.146C131.303 165.146 130.776 165.044 130.327 164.839C129.877 164.629 129.504 164.341 129.206 163.975C128.908 163.608 128.684 163.186 128.532 162.708C128.386 162.229 128.312 161.716 128.312 161.169V160.913C128.312 160.366 128.386 159.854 128.532 159.375C128.684 158.892 128.908 158.467 129.206 158.101C129.504 157.734 129.877 157.449 130.327 157.244C130.776 157.034 131.301 156.929 131.901 156.929C132.536 156.929 133.093 157.056 133.571 157.31C134.05 157.559 134.426 157.908 134.699 158.357C134.978 158.801 135.122 159.319 135.131 159.91H133.469C133.454 159.617 133.381 159.353 133.249 159.119C133.122 158.879 132.941 158.689 132.707 158.547C132.478 158.406 132.202 158.335 131.879 158.335C131.523 158.335 131.228 158.408 130.993 158.555C130.759 158.696 130.576 158.892 130.444 159.141C130.312 159.385 130.217 159.661 130.158 159.968C130.104 160.271 130.078 160.586 130.078 160.913V161.169C130.078 161.497 130.104 161.814 130.158 162.122C130.212 162.429 130.305 162.705 130.437 162.949C130.573 163.188 130.759 163.381 130.993 163.528C131.228 163.669 131.525 163.74 131.887 163.74ZM140.119 157.075V158.364H135.651V157.075H140.119ZM136.94 155.134H138.706V162.81C138.706 163.054 138.74 163.242 138.808 163.374C138.881 163.501 138.981 163.586 139.108 163.63C139.235 163.674 139.384 163.696 139.555 163.696C139.677 163.696 139.794 163.689 139.907 163.674C140.019 163.66 140.109 163.645 140.178 163.63L140.185 164.978C140.039 165.022 139.868 165.061 139.672 165.095C139.482 165.129 139.262 165.146 139.013 165.146C138.608 165.146 138.249 165.076 137.937 164.934C137.624 164.788 137.38 164.551 137.204 164.224C137.028 163.896 136.94 163.462 136.94 162.92V155.134ZM147.231 154.336V165H145.393V154.336H147.231ZM151.582 159.001V160.459H146.762V159.001H151.582ZM152.189 154.336V155.801H146.762V154.336H152.189ZM152.98 161.125V160.957C152.98 160.386 153.063 159.856 153.229 159.368C153.396 158.875 153.635 158.447 153.947 158.086C154.265 157.72 154.65 157.437 155.104 157.236C155.563 157.031 156.081 156.929 156.657 156.929C157.238 156.929 157.756 157.031 158.21 157.236C158.669 157.437 159.057 157.72 159.375 158.086C159.692 158.447 159.934 158.875 160.1 159.368C160.266 159.856 160.349 160.386 160.349 160.957V161.125C160.349 161.697 160.266 162.227 160.1 162.715C159.934 163.203 159.692 163.63 159.375 163.997C159.057 164.358 158.671 164.641 158.217 164.846C157.763 165.046 157.248 165.146 156.672 165.146C156.091 165.146 155.571 165.046 155.112 164.846C154.658 164.641 154.272 164.358 153.955 163.997C153.637 163.63 153.396 163.203 153.229 162.715C153.063 162.227 152.98 161.697 152.98 161.125ZM154.746 160.957V161.125C154.746 161.482 154.782 161.819 154.855 162.136C154.929 162.454 155.043 162.732 155.2 162.971C155.356 163.21 155.556 163.398 155.8 163.535C156.044 163.672 156.335 163.74 156.672 163.74C156.999 163.74 157.282 163.672 157.521 163.535C157.766 163.398 157.966 163.21 158.122 162.971C158.278 162.732 158.393 162.454 158.466 162.136C158.544 161.819 158.583 161.482 158.583 161.125V160.957C158.583 160.605 158.544 160.273 158.466 159.961C158.393 159.644 158.276 159.363 158.115 159.119C157.958 158.875 157.758 158.684 157.514 158.547C157.275 158.406 156.989 158.335 156.657 158.335C156.325 158.335 156.037 158.406 155.793 158.547C155.554 158.684 155.356 158.875 155.2 159.119C155.043 159.363 154.929 159.644 154.855 159.961C154.782 160.273 154.746 160.605 154.746 160.957ZM163.601 158.584V165H161.835V157.075H163.52L163.601 158.584ZM166.025 157.024L166.01 158.665C165.903 158.645 165.786 158.63 165.659 158.621C165.537 158.611 165.415 158.606 165.292 158.606C164.99 158.606 164.724 158.65 164.494 158.738C164.265 158.821 164.072 158.943 163.916 159.104C163.764 159.26 163.647 159.451 163.564 159.675C163.481 159.9 163.432 160.151 163.417 160.43L163.015 160.459C163.015 159.961 163.063 159.5 163.161 159.075C163.259 158.65 163.405 158.276 163.601 157.954C163.801 157.632 164.05 157.38 164.348 157.2C164.65 157.019 165 156.929 165.395 156.929C165.502 156.929 165.617 156.938 165.739 156.958C165.866 156.978 165.961 157 166.025 157.024ZM168.896 158.687V165H167.131V157.075H168.793L168.896 158.687ZM168.61 160.745L168.01 160.737C168.01 160.19 168.078 159.685 168.215 159.221C168.352 158.757 168.552 158.354 168.815 158.013C169.079 157.666 169.406 157.4 169.797 157.214C170.192 157.024 170.649 156.929 171.167 156.929C171.528 156.929 171.857 156.982 172.155 157.09C172.458 157.192 172.719 157.356 172.939 157.581C173.164 157.805 173.334 158.093 173.452 158.445C173.574 158.796 173.635 159.221 173.635 159.719V165H171.87V159.873C171.87 159.487 171.811 159.185 171.694 158.965C171.582 158.745 171.418 158.589 171.203 158.496C170.993 158.398 170.742 158.35 170.449 158.35C170.117 158.35 169.833 158.413 169.599 158.54C169.37 158.667 169.182 158.84 169.035 159.06C168.889 159.28 168.781 159.534 168.713 159.822C168.645 160.11 168.61 160.417 168.61 160.745ZM173.525 160.276L172.697 160.459C172.697 159.98 172.763 159.529 172.895 159.104C173.032 158.674 173.229 158.298 173.488 157.976C173.752 157.649 174.077 157.393 174.462 157.207C174.848 157.021 175.29 156.929 175.788 156.929C176.193 156.929 176.555 156.985 176.872 157.097C177.194 157.205 177.468 157.375 177.692 157.61C177.917 157.844 178.088 158.149 178.205 158.525C178.322 158.896 178.381 159.346 178.381 159.873V165H176.608V159.866C176.608 159.465 176.55 159.155 176.433 158.936C176.32 158.716 176.159 158.564 175.949 158.481C175.739 158.394 175.488 158.35 175.195 158.35C174.921 158.35 174.68 158.401 174.47 158.503C174.265 158.601 174.091 158.74 173.95 158.921C173.808 159.097 173.701 159.299 173.627 159.529C173.559 159.758 173.525 160.007 173.525 160.276Z" fill="#505050"/>
<rect width="280" height="40" transform="translate(40 184)" fill="#F2F2F2"/>
<path fill-rule="evenodd" clip-rule="evenodd" d="M73.5667 198.259H75.8889C76.1836 198.259 76.4662 198.393 76.6746 198.632C76.8829 198.871 77 199.195 77 199.533V209.726C77 210.064 76.8829 210.388 76.6746 210.627C76.4662 210.866 76.1836 211 75.8889 211H68.1111C67.8164 211 67.5338 210.866 67.3255 210.627C67.1171 210.388 67 210.064 67 209.726V199.533C67 199.195 67.1171 198.871 67.3255 198.632C67.5338 198.393 67.8164 198.259 68.1111 198.259H70.4333C70.5501 197.89 70.7631 197.571 71.0434 197.346C71.3237 197.121 71.6577 197 72 197C72.3423 197 72.6763 197.121 72.9566 197.346C73.2369 197.571 73.4499 197.89 73.5667 198.259ZM72.3086 198.366C72.2172 198.296 72.1099 198.259 72 198.259C71.8527 198.259 71.7114 198.326 71.6072 198.446C71.503 198.565 71.4444 198.727 71.4444 198.896C71.4444 199.022 71.477 199.145 71.5381 199.25C71.5991 199.355 71.6859 199.437 71.7874 199.485C71.8889 199.533 72.0006 199.546 72.1084 199.521C72.2161 199.496 72.3151 199.436 72.3928 199.347C72.4705 199.258 72.5234 199.144 72.5449 199.02C72.5663 198.897 72.5553 198.769 72.5133 198.652C72.4713 198.536 72.4 198.436 72.3086 198.366ZM68.1111 199.533V209.726H75.8889V199.533H74.2222V200.807H69.7778V199.533H68.1111ZM69.7778 204.629H74.2222C74.3696 204.629 74.5109 204.696 74.6151 204.816C74.7193 204.935 74.7778 205.097 74.7778 205.266C74.7778 205.435 74.7193 205.597 74.6151 205.717C74.5109 205.836 74.3696 205.903 74.2222 205.903H69.7778C69.6304 205.903 69.4891 205.836 69.3849 205.717C69.2807 205.597 69.2222 205.435 69.2222 205.266C69.2222 205.097 69.2807 204.935 69.3849 204.816C69.4891 204.696 69.6304 204.629 69.7778 204.629ZM74.2222 202.718H69.7778C69.6304 202.718 69.4891 202.785 69.3849 202.905C69.2807 203.024 69.2222 203.186 69.2222 203.355C69.2222 203.524 69.2807 203.686 69.3849 203.805C69.4891 203.925 69.6304 203.992 69.7778 203.992H74.2222C74.3696 203.992 74.5109 203.925 74.6151 203.805C74.7193 203.686 74.7778 203.524 74.7778 203.355C74.7778 203.186 74.7193 203.024 74.6151 202.905C74.5109 202.785 74.3696 202.718 74.2222 202.718ZM72 206.54H74.2222C74.3696 206.54 74.5109 206.607 74.6151 206.727C74.7193 206.846 74.7778 207.008 74.7778 207.177C74.7778 207.346 74.7193 207.508 74.6151 207.628C74.5109 207.747 74.3696 207.814 74.2222 207.814H72C71.8527 207.814 71.7114 207.747 71.6072 207.628C71.503 207.508 71.4444 207.346 71.4444 207.177C71.4444 207.008 71.503 206.846 71.6072 206.727C71.7114 206.607 71.8527 206.54 72 206.54Z" fill="#505050"/>
<path d="M95.7637 207.542V209H90.4097V207.542H95.7637ZM90.9224 198.336V209H89.084V198.336H90.9224ZM96.6719 205.125V204.957C96.6719 204.386 96.7549 203.856 96.9209 203.368C97.0869 202.875 97.3262 202.447 97.6387 202.086C97.9561 201.72 98.3418 201.437 98.7959 201.236C99.2549 201.031 99.7725 200.929 100.349 200.929C100.93 200.929 101.447 201.031 101.901 201.236C102.36 201.437 102.749 201.72 103.066 202.086C103.383 202.447 103.625 202.875 103.791 203.368C103.957 203.856 104.04 204.386 104.04 204.957V205.125C104.04 205.697 103.957 206.227 103.791 206.715C103.625 207.203 103.383 207.63 103.066 207.997C102.749 208.358 102.363 208.641 101.909 208.846C101.455 209.046 100.939 209.146 100.363 209.146C99.7822 209.146 99.2622 209.046 98.8032 208.846C98.3491 208.641 97.9634 208.358 97.646 207.997C97.3286 207.63 97.0869 207.203 96.9209 206.715C96.7549 206.227 96.6719 205.697 96.6719 205.125ZM98.437 204.957V205.125C98.437 205.482 98.4736 205.819 98.5469 206.136C98.6201 206.454 98.7349 206.732 98.8911 206.971C99.0474 207.21 99.2476 207.398 99.4917 207.535C99.7358 207.672 100.026 207.74 100.363 207.74C100.69 207.74 100.974 207.672 101.213 207.535C101.457 207.398 101.657 207.21 101.813 206.971C101.97 206.732 102.084 206.454 102.158 206.136C102.236 205.819 102.275 205.482 102.275 205.125V204.957C102.275 204.605 102.236 204.273 102.158 203.961C102.084 203.644 101.967 203.363 101.806 203.119C101.65 202.875 101.45 202.684 101.206 202.547C100.966 202.406 100.681 202.335 100.349 202.335C100.017 202.335 99.7285 202.406 99.4844 202.547C99.2451 202.684 99.0474 202.875 98.8911 203.119C98.7349 203.363 98.6201 203.644 98.5469 203.961C98.4736 204.273 98.437 204.605 98.437 204.957ZM110.595 201.075H112.199V208.78C112.199 209.493 112.048 210.099 111.745 210.597C111.442 211.095 111.02 211.473 110.478 211.732C109.936 211.996 109.309 212.127 108.596 212.127C108.293 212.127 107.956 212.083 107.585 211.996C107.219 211.908 106.862 211.766 106.516 211.571C106.174 211.38 105.888 211.129 105.659 210.816L106.486 209.776C106.77 210.113 107.082 210.36 107.424 210.516C107.766 210.672 108.125 210.75 108.5 210.75C108.906 210.75 109.25 210.675 109.533 210.523C109.821 210.377 110.043 210.16 110.2 209.872C110.356 209.583 110.434 209.232 110.434 208.817V202.87L110.595 201.075ZM105.212 205.125V204.972C105.212 204.371 105.285 203.824 105.432 203.331C105.578 202.833 105.788 202.406 106.062 202.049C106.335 201.688 106.667 201.412 107.058 201.222C107.448 201.026 107.89 200.929 108.383 200.929C108.896 200.929 109.333 201.021 109.694 201.207C110.061 201.393 110.366 201.659 110.61 202.005C110.854 202.347 111.044 202.757 111.181 203.236C111.323 203.709 111.428 204.237 111.496 204.818V205.309C111.433 205.875 111.325 206.393 111.174 206.861C111.022 207.33 110.822 207.735 110.573 208.077C110.324 208.419 110.017 208.683 109.65 208.868C109.289 209.054 108.862 209.146 108.369 209.146C107.885 209.146 107.448 209.046 107.058 208.846C106.672 208.646 106.34 208.365 106.062 208.004C105.788 207.643 105.578 207.218 105.432 206.729C105.285 206.236 105.212 205.702 105.212 205.125ZM106.977 204.972V205.125C106.977 205.487 107.011 205.824 107.08 206.136C107.153 206.449 107.263 206.725 107.409 206.964C107.561 207.198 107.751 207.384 107.98 207.521C108.215 207.652 108.491 207.718 108.808 207.718C109.223 207.718 109.562 207.63 109.826 207.455C110.095 207.279 110.3 207.042 110.441 206.744C110.588 206.441 110.69 206.104 110.749 205.733V204.408C110.72 204.12 110.659 203.851 110.566 203.602C110.478 203.353 110.358 203.136 110.207 202.95C110.056 202.76 109.865 202.613 109.636 202.511C109.406 202.403 109.135 202.35 108.823 202.35C108.505 202.35 108.229 202.418 107.995 202.555C107.761 202.691 107.568 202.879 107.417 203.119C107.27 203.358 107.16 203.636 107.087 203.954C107.014 204.271 106.977 204.61 106.977 204.972ZM115.92 201.075V209H114.147V201.075H115.92ZM114.03 198.995C114.03 198.727 114.118 198.504 114.294 198.329C114.475 198.148 114.724 198.058 115.041 198.058C115.354 198.058 115.6 198.148 115.781 198.329C115.961 198.504 116.052 198.727 116.052 198.995C116.052 199.259 115.961 199.479 115.781 199.654C115.6 199.83 115.354 199.918 115.041 199.918C114.724 199.918 114.475 199.83 114.294 199.654C114.118 199.479 114.03 199.259 114.03 198.995ZM119.604 202.767V209H117.839V201.075H119.501L119.604 202.767ZM119.289 204.745L118.718 204.737C118.723 204.176 118.801 203.661 118.952 203.192C119.108 202.723 119.323 202.32 119.597 201.983C119.875 201.646 120.207 201.388 120.593 201.207C120.979 201.021 121.408 200.929 121.882 200.929C122.263 200.929 122.607 200.982 122.915 201.09C123.227 201.192 123.493 201.361 123.713 201.595C123.938 201.83 124.108 202.135 124.226 202.511C124.343 202.882 124.401 203.338 124.401 203.88V209H122.629V203.873C122.629 203.492 122.573 203.192 122.46 202.972C122.353 202.748 122.194 202.589 121.984 202.496C121.779 202.398 121.523 202.35 121.215 202.35C120.913 202.35 120.642 202.413 120.402 202.54C120.163 202.667 119.96 202.84 119.794 203.06C119.633 203.28 119.509 203.534 119.421 203.822C119.333 204.11 119.289 204.417 119.289 204.745Z" fill="#505050"/>
<path fill-rule="evenodd" clip-rule="evenodd" d="M73.5667 242.259H75.8889C76.1836 242.259 76.4662 242.393 76.6746 242.632C76.8829 242.871 77 243.195 77 243.533V253.726C77 254.064 76.8829 254.388 76.6746 254.627C76.4662 254.866 76.1836 255 75.8889 255H68.1111C67.8164 255 67.5338 254.866 67.3255 254.627C67.1171 254.388 67 254.064 67 253.726V243.533C67 243.195 67.1171 242.871 67.3255 242.632C67.5338 242.393 67.8164 242.259 68.1111 242.259H70.4333C70.5501 241.89 70.7631 241.571 71.0434 241.346C71.3237 241.121 71.6577 241 72 241C72.3423 241 72.6763 241.121 72.9566 241.346C73.2369 241.571 73.4499 241.89 73.5667 242.259ZM72.3086 242.366C72.2172 242.296 72.1099 242.259 72 242.259C71.8527 242.259 71.7114 242.326 71.6072 242.446C71.503 242.565 71.4444 242.727 71.4444 242.896C71.4444 243.022 71.477 243.145 71.5381 243.25C71.5991 243.355 71.6859 243.437 71.7874 243.485C71.8889 243.533 72.0006 243.546 72.1084 243.521C72.2161 243.496 72.3151 243.436 72.3928 243.347C72.4705 243.258 72.5234 243.144 72.5449 243.02C72.5663 242.897 72.5553 242.769 72.5133 242.652C72.4713 242.536 72.4 242.436 72.3086 242.366ZM68.1111 243.533V253.726H75.8889V243.533H74.2222V244.807H69.7778V243.533H68.1111ZM69.7778 248.629H74.2222C74.3696 248.629 74.5109 248.696 74.6151 248.816C74.7193 248.935 74.7778 249.097 74.7778 249.266C74.7778 249.435 74.7193 249.597 74.6151 249.717C74.5109 249.836 74.3696 249.903 74.2222 249.903H69.7778C69.6304 249.903 69.4891 249.836 69.3849 249.717C69.2807 249.597 69.2222 249.435 69.2222 249.266C69.2222 249.097 69.2807 248.935 69.3849 248.816C69.4891 248.696 69.6304 248.629 69.7778 248.629ZM74.2222 246.718H69.7778C69.6304 246.718 69.4891 246.785 69.3849 246.905C69.2807 247.024 69.2222 247.186 69.2222 247.355C69.2222 247.524 69.2807 247.686 69.3849 247.805C69.4891 247.925 69.6304 247.992 69.7778 247.992H74.2222C74.3696 247.992 74.5109 247.925 74.6151 247.805C74.7193 247.686 74.7778 247.524 74.7778 247.355C74.7778 247.186 74.7193 247.024 74.6151 246.905C74.5109 246.785 74.3696 246.718 74.2222 246.718ZM72 250.54H74.2222C74.3696 250.54 74.5109 250.607 74.6151 250.727C74.7193 250.846 74.7778 251.008 74.7778 251.177C74.7778 251.346 74.7193 251.508 74.6151 251.628C74.5109 251.747 74.3696 251.814 74.2222 251.814H72C71.8527 251.814 71.7114 251.747 71.6072 251.628C71.503 251.508 71.4444 251.346 71.4444 251.177C71.4444 251.008 71.503 250.846 71.6072 250.727C71.7114 250.607 71.8527 250.54 72 250.54Z" fill="#505050"/>
<path d="M90.9224 242.336V253H89.084V242.336H90.9224ZM97.3311 242.336L93.0098 247.47L90.5488 250.078L90.2266 248.254L91.9844 246.086L95.0898 242.336H97.3311ZM95.3535 253L91.8452 247.946L93.1123 246.694L97.5361 253H95.3535ZM100.019 246.767V253H98.2539V245.075H99.9165L100.019 246.767ZM99.7041 248.745L99.1328 248.737C99.1377 248.176 99.2158 247.661 99.3672 247.192C99.5234 246.723 99.7383 246.32 100.012 245.983C100.29 245.646 100.622 245.388 101.008 245.207C101.394 245.021 101.823 244.929 102.297 244.929C102.678 244.929 103.022 244.982 103.33 245.09C103.642 245.192 103.908 245.361 104.128 245.595C104.353 245.83 104.523 246.135 104.641 246.511C104.758 246.882 104.816 247.338 104.816 247.88V253H103.044V247.873C103.044 247.492 102.988 247.192 102.875 246.972C102.768 246.748 102.609 246.589 102.399 246.496C102.194 246.398 101.938 246.35 101.63 246.35C101.328 246.35 101.057 246.413 100.817 246.54C100.578 246.667 100.375 246.84 100.209 247.06C100.048 247.28 99.9238 247.534 99.8359 247.822C99.748 248.11 99.7041 248.417 99.7041 248.745ZM106.281 249.125V248.957C106.281 248.386 106.364 247.856 106.53 247.368C106.696 246.875 106.936 246.447 107.248 246.086C107.565 245.72 107.951 245.437 108.405 245.236C108.864 245.031 109.382 244.929 109.958 244.929C110.539 244.929 111.057 245.031 111.511 245.236C111.97 245.437 112.358 245.72 112.675 246.086C112.993 246.447 113.234 246.875 113.4 247.368C113.566 247.856 113.649 248.386 113.649 248.957V249.125C113.649 249.697 113.566 250.227 113.4 250.715C113.234 251.203 112.993 251.63 112.675 251.997C112.358 252.358 111.972 252.641 111.518 252.846C111.064 253.046 110.549 253.146 109.973 253.146C109.392 253.146 108.872 253.046 108.413 252.846C107.958 252.641 107.573 252.358 107.255 251.997C106.938 251.63 106.696 251.203 106.53 250.715C106.364 250.227 106.281 249.697 106.281 249.125ZM108.046 248.957V249.125C108.046 249.482 108.083 249.819 108.156 250.136C108.229 250.454 108.344 250.732 108.5 250.971C108.657 251.21 108.857 251.398 109.101 251.535C109.345 251.672 109.636 251.74 109.973 251.74C110.3 251.74 110.583 251.672 110.822 251.535C111.066 251.398 111.267 251.21 111.423 250.971C111.579 250.732 111.694 250.454 111.767 250.136C111.845 249.819 111.884 249.482 111.884 249.125V248.957C111.884 248.605 111.845 248.273 111.767 247.961C111.694 247.644 111.577 247.363 111.416 247.119C111.259 246.875 111.059 246.684 110.815 246.547C110.576 246.406 110.29 246.335 109.958 246.335C109.626 246.335 109.338 246.406 109.094 246.547C108.854 246.684 108.657 246.875 108.5 247.119C108.344 247.363 108.229 247.644 108.156 247.961C108.083 248.273 108.046 248.605 108.046 248.957ZM117.282 251.242L119.113 245.075H120.241L119.934 246.921L118.088 253H117.077L117.282 251.242ZM116.206 245.075L117.634 251.271L117.751 253H116.623L114.477 245.075H116.206ZM121.955 251.198L123.339 245.075H125.061L122.922 253H121.794L121.955 251.198ZM120.432 245.075L122.241 251.169L122.468 253H121.457L119.589 246.914L119.282 245.075H120.432ZM128.151 241.75V253H126.379V241.75H128.151ZM133.579 253.146C132.993 253.146 132.463 253.051 131.989 252.861C131.521 252.666 131.12 252.395 130.788 252.048C130.461 251.701 130.209 251.293 130.034 250.825C129.858 250.356 129.77 249.851 129.77 249.309V249.016C129.77 248.396 129.86 247.834 130.041 247.331C130.222 246.828 130.473 246.398 130.795 246.042C131.118 245.681 131.499 245.405 131.938 245.214C132.377 245.024 132.854 244.929 133.366 244.929C133.933 244.929 134.428 245.024 134.853 245.214C135.278 245.405 135.629 245.673 135.908 246.02C136.191 246.362 136.401 246.77 136.538 247.243C136.679 247.717 136.75 248.239 136.75 248.811V249.565H130.627V248.298H135.007V248.159C134.997 247.841 134.934 247.543 134.816 247.265C134.704 246.987 134.531 246.762 134.296 246.591C134.062 246.42 133.75 246.335 133.359 246.335C133.066 246.335 132.805 246.398 132.575 246.525C132.351 246.647 132.163 246.826 132.011 247.06C131.86 247.294 131.743 247.578 131.66 247.91C131.582 248.237 131.542 248.605 131.542 249.016V249.309C131.542 249.655 131.589 249.978 131.682 250.275C131.779 250.568 131.921 250.825 132.106 251.044C132.292 251.264 132.517 251.438 132.78 251.564C133.044 251.687 133.344 251.748 133.681 251.748C134.106 251.748 134.484 251.662 134.816 251.491C135.148 251.32 135.437 251.079 135.681 250.766L136.611 251.667C136.44 251.916 136.218 252.155 135.944 252.385C135.671 252.609 135.336 252.792 134.941 252.934C134.55 253.076 134.096 253.146 133.579 253.146ZM142.961 251.359V241.75H144.733V253H143.129L142.961 251.359ZM137.805 249.125V248.972C137.805 248.371 137.875 247.824 138.017 247.331C138.159 246.833 138.364 246.406 138.632 246.049C138.901 245.688 139.228 245.412 139.614 245.222C140 245.026 140.434 244.929 140.917 244.929C141.396 244.929 141.816 245.021 142.177 245.207C142.539 245.393 142.846 245.659 143.1 246.005C143.354 246.347 143.557 246.757 143.708 247.236C143.859 247.709 143.967 248.237 144.03 248.818V249.309C143.967 249.875 143.859 250.393 143.708 250.861C143.557 251.33 143.354 251.735 143.1 252.077C142.846 252.419 142.536 252.683 142.17 252.868C141.809 253.054 141.386 253.146 140.903 253.146C140.424 253.146 139.992 253.046 139.606 252.846C139.226 252.646 138.901 252.365 138.632 252.004C138.364 251.643 138.159 251.218 138.017 250.729C137.875 250.236 137.805 249.702 137.805 249.125ZM139.57 248.972V249.125C139.57 249.487 139.602 249.824 139.665 250.136C139.733 250.449 139.838 250.725 139.98 250.964C140.122 251.198 140.305 251.384 140.529 251.521C140.759 251.652 141.032 251.718 141.35 251.718C141.75 251.718 142.08 251.63 142.338 251.455C142.597 251.279 142.8 251.042 142.946 250.744C143.098 250.441 143.2 250.104 143.254 249.733V248.408C143.225 248.12 143.164 247.851 143.071 247.602C142.983 247.353 142.863 247.136 142.712 246.95C142.561 246.76 142.373 246.613 142.148 246.511C141.928 246.403 141.667 246.35 141.364 246.35C141.042 246.35 140.769 246.418 140.544 246.555C140.319 246.691 140.134 246.879 139.987 247.119C139.846 247.358 139.741 247.636 139.672 247.954C139.604 248.271 139.57 248.61 139.57 248.972ZM151.655 245.075H153.259V252.78C153.259 253.493 153.107 254.099 152.805 254.597C152.502 255.095 152.08 255.473 151.538 255.732C150.996 255.996 150.368 256.127 149.655 256.127C149.353 256.127 149.016 256.083 148.645 255.996C148.278 255.908 147.922 255.766 147.575 255.571C147.233 255.38 146.948 255.129 146.718 254.816L147.546 253.776C147.829 254.113 148.142 254.36 148.483 254.516C148.825 254.672 149.184 254.75 149.56 254.75C149.965 254.75 150.31 254.675 150.593 254.523C150.881 254.377 151.103 254.16 151.259 253.872C151.416 253.583 151.494 253.232 151.494 252.817V246.87L151.655 245.075ZM146.271 249.125V248.972C146.271 248.371 146.345 247.824 146.491 247.331C146.638 246.833 146.848 246.406 147.121 246.049C147.395 245.688 147.727 245.412 148.117 245.222C148.508 245.026 148.95 244.929 149.443 244.929C149.956 244.929 150.393 245.021 150.754 245.207C151.12 245.393 151.425 245.659 151.669 246.005C151.914 246.347 152.104 246.757 152.241 247.236C152.382 247.709 152.487 248.237 152.556 248.818V249.309C152.492 249.875 152.385 250.393 152.233 250.861C152.082 251.33 151.882 251.735 151.633 252.077C151.384 252.419 151.076 252.683 150.71 252.868C150.349 253.054 149.921 253.146 149.428 253.146C148.945 253.146 148.508 253.046 148.117 252.846C147.731 252.646 147.399 252.365 147.121 252.004C146.848 251.643 146.638 251.218 146.491 250.729C146.345 250.236 146.271 249.702 146.271 249.125ZM148.037 248.972V249.125C148.037 249.487 148.071 249.824 148.139 250.136C148.212 250.449 148.322 250.725 148.469 250.964C148.62 251.198 148.811 251.384 149.04 251.521C149.274 251.652 149.55 251.718 149.868 251.718C150.283 251.718 150.622 251.63 150.886 251.455C151.154 251.279 151.359 251.042 151.501 250.744C151.647 250.441 151.75 250.104 151.809 249.733V248.408C151.779 248.12 151.718 247.851 151.625 247.602C151.538 247.353 151.418 247.136 151.267 246.95C151.115 246.76 150.925 246.613 150.695 246.511C150.466 246.403 150.195 246.35 149.882 246.35C149.565 246.35 149.289 246.418 149.055 246.555C148.82 246.691 148.627 246.879 148.476 247.119C148.33 247.358 148.22 247.636 148.146 247.954C148.073 248.271 148.037 248.61 148.037 248.972ZM158.583 253.146C157.998 253.146 157.468 253.051 156.994 252.861C156.525 252.666 156.125 252.395 155.793 252.048C155.466 251.701 155.214 251.293 155.039 250.825C154.863 250.356 154.775 249.851 154.775 249.309V249.016C154.775 248.396 154.865 247.834 155.046 247.331C155.227 246.828 155.478 246.398 155.8 246.042C156.123 245.681 156.503 245.405 156.943 245.214C157.382 245.024 157.858 244.929 158.371 244.929C158.938 244.929 159.433 245.024 159.858 245.214C160.283 245.405 160.634 245.673 160.913 246.02C161.196 246.362 161.406 246.77 161.542 247.243C161.684 247.717 161.755 248.239 161.755 248.811V249.565H155.632V248.298H160.012V248.159C160.002 247.841 159.938 247.543 159.821 247.265C159.709 246.987 159.536 246.762 159.301 246.591C159.067 246.42 158.754 246.335 158.364 246.335C158.071 246.335 157.81 246.398 157.58 246.525C157.355 246.647 157.167 246.826 157.016 247.06C156.865 247.294 156.748 247.578 156.665 247.91C156.586 248.237 156.547 248.605 156.547 249.016V249.309C156.547 249.655 156.594 249.978 156.687 250.275C156.784 250.568 156.926 250.825 157.111 251.044C157.297 251.264 157.521 251.438 157.785 251.564C158.049 251.687 158.349 251.748 158.686 251.748C159.111 251.748 159.489 251.662 159.821 251.491C160.153 251.32 160.441 251.079 160.686 250.766L161.616 251.667C161.445 251.916 161.223 252.155 160.949 252.385C160.676 252.609 160.341 252.792 159.946 252.934C159.555 253.076 159.101 253.146 158.583 253.146ZM172.69 251.579L175.495 253.806L174.301 254.853L171.547 252.648L172.69 251.579ZM175.517 247.375V247.961C175.517 248.767 175.412 249.489 175.202 250.129C174.992 250.769 174.692 251.313 174.301 251.762C173.911 252.211 173.444 252.556 172.902 252.795C172.36 253.029 171.76 253.146 171.101 253.146C170.446 253.146 169.848 253.029 169.306 252.795C168.769 252.556 168.303 252.211 167.907 251.762C167.512 251.313 167.204 250.769 166.984 250.129C166.77 249.489 166.662 248.767 166.662 247.961V247.375C166.662 246.569 166.77 245.849 166.984 245.214C167.199 244.575 167.502 244.03 167.893 243.581C168.288 243.127 168.754 242.783 169.292 242.548C169.833 242.309 170.432 242.189 171.086 242.189C171.745 242.189 172.346 242.309 172.888 242.548C173.435 242.783 173.903 243.127 174.294 243.581C174.685 244.03 174.985 244.575 175.195 245.214C175.41 245.849 175.517 246.569 175.517 247.375ZM173.671 247.961V247.36C173.671 246.765 173.613 246.24 173.496 245.786C173.383 245.327 173.215 244.943 172.99 244.636C172.771 244.323 172.5 244.089 172.177 243.933C171.86 243.771 171.496 243.691 171.086 243.691C170.686 243.691 170.327 243.771 170.009 243.933C169.692 244.089 169.421 244.323 169.196 244.636C168.972 244.943 168.801 245.327 168.684 245.786C168.566 246.24 168.508 246.765 168.508 247.36V247.961C168.508 248.557 168.566 249.084 168.684 249.543C168.801 250.002 168.972 250.39 169.196 250.708C169.426 251.02 169.699 251.257 170.017 251.418C170.339 251.574 170.7 251.652 171.101 251.652C171.511 251.652 171.875 251.574 172.192 251.418C172.509 251.257 172.778 251.02 172.998 250.708C173.217 250.39 173.383 250.002 173.496 249.543C173.613 249.084 173.671 248.557 173.671 247.961ZM181.977 251.132V245.075H183.75V253H182.08L181.977 251.132ZM182.226 249.484L182.819 249.47C182.819 250.002 182.761 250.493 182.644 250.942C182.526 251.386 182.346 251.774 182.102 252.106C181.857 252.434 181.545 252.69 181.164 252.875C180.783 253.056 180.327 253.146 179.794 253.146C179.409 253.146 179.055 253.09 178.732 252.978C178.41 252.866 178.132 252.692 177.897 252.458C177.668 252.224 177.49 251.918 177.363 251.542C177.236 251.167 177.172 250.717 177.172 250.195V245.075H178.938V250.209C178.938 250.498 178.972 250.739 179.04 250.935C179.108 251.125 179.201 251.279 179.318 251.396C179.436 251.513 179.572 251.596 179.729 251.645C179.885 251.694 180.051 251.718 180.227 251.718C180.729 251.718 181.125 251.621 181.413 251.425C181.706 251.225 181.914 250.957 182.036 250.62C182.163 250.283 182.226 249.904 182.226 249.484ZM187.448 245.075V253H185.676V245.075H187.448ZM185.559 242.995C185.559 242.727 185.646 242.504 185.822 242.329C186.003 242.148 186.252 242.058 186.569 242.058C186.882 242.058 187.128 242.148 187.309 242.329C187.49 242.504 187.58 242.727 187.58 242.995C187.58 243.259 187.49 243.479 187.309 243.654C187.128 243.83 186.882 243.918 186.569 243.918C186.252 243.918 186.003 243.83 185.822 243.654C185.646 243.479 185.559 243.259 185.559 242.995ZM195.512 251.594V253H189.609V251.594H195.512ZM195.351 246.174L190.209 253H189.067V251.865L194.179 245.075H195.351V246.174ZM194.67 245.075V246.481H189.155V245.075H194.67Z" fill="#505050"/>
<path fill-rule="evenodd" clip-rule="evenodd" d="M73.5667 286.259H75.8889C76.1836 286.259 76.4662 286.393 76.6746 286.632C76.8829 286.871 77 287.195 77 287.533V297.726C77 298.064 76.8829 298.388 76.6746 298.627C76.4662 298.866 76.1836 299 75.8889 299H68.1111C67.8164 299 67.5338 298.866 67.3255 298.627C67.1171 298.388 67 298.064 67 297.726V287.533C67 287.195 67.1171 286.871 67.3255 286.632C67.5338 286.393 67.8164 286.259 68.1111 286.259H70.4333C70.5501 285.89 70.7631 285.571 71.0434 285.346C71.3237 285.121 71.6577 285 72 285C72.3423 285 72.6763 285.121 72.9566 285.346C73.2369 285.571 73.4499 285.89 73.5667 286.259ZM72.3086 286.366C72.2172 286.296 72.1099 286.259 72 286.259C71.8527 286.259 71.7114 286.326 71.6072 286.446C71.503 286.565 71.4444 286.727 71.4444 286.896C71.4444 287.022 71.477 287.145 71.5381 287.25C71.5991 287.355 71.6859 287.437 71.7874 287.485C71.8889 287.533 72.0006 287.546 72.1084 287.521C72.2161 287.496 72.3151 287.436 72.3928 287.347C72.4705 287.258 72.5234 287.144 72.5449 287.02C72.5663 286.897 72.5553 286.769 72.5133 286.652C72.4713 286.536 72.4 286.436 72.3086 286.366ZM68.1111 287.533V297.726H75.8889V287.533H74.2222V288.807H69.7778V287.533H68.1111ZM69.7778 292.629H74.2222C74.3696 292.629 74.5109 292.696 74.6151 292.816C74.7193 292.935 74.7778 293.097 74.7778 293.266C74.7778 293.435 74.7193 293.597 74.6151 293.717C74.5109 293.836 74.3696 293.903 74.2222 293.903H69.7778C69.6304 293.903 69.4891 293.836 69.3849 293.717C69.2807 293.597 69.2222 293.435 69.2222 293.266C69.2222 293.097 69.2807 292.935 69.3849 292.816C69.4891 292.696 69.6304 292.629 69.7778 292.629ZM74.2222 290.718H69.7778C69.6304 290.718 69.4891 290.785 69.3849 290.905C69.2807 291.024 69.2222 291.186 69.2222 291.355C69.2222 291.524 69.2807 291.686 69.3849 291.805C69.4891 291.925 69.6304 291.992 69.7778 291.992H74.2222C74.3696 291.992 74.5109 291.925 74.6151 291.805C74.7193 291.686 74.7778 291.524 74.7778 291.355C74.7778 291.186 74.7193 291.024 74.6151 290.905C74.5109 290.785 74.3696 290.718 74.2222 290.718ZM72 294.54H74.2222C74.3696 294.54 74.5109 294.607 74.6151 294.727C74.7193 294.846 74.7778 295.008 74.7778 295.177C74.7778 295.346 74.7193 295.508 74.6151 295.628C74.5109 295.747 74.3696 295.814 74.2222 295.814H72C71.8527 295.814 71.7114 295.747 71.6072 295.628C71.503 295.508 71.4444 295.346 71.4444 295.177C71.4444 295.008 71.503 294.846 71.6072 294.727C71.7114 294.607 71.8527 294.54 72 294.54Z" fill="#505050"/>
<path d="M93.1343 293.023H90.3584V291.565H93.1343C93.6177 291.565 94.0083 291.487 94.3062 291.331C94.604 291.175 94.8213 290.96 94.958 290.687C95.0996 290.408 95.1704 290.091 95.1704 289.734C95.1704 289.397 95.0996 289.083 94.958 288.79C94.8213 288.492 94.604 288.252 94.3062 288.072C94.0083 287.891 93.6177 287.801 93.1343 287.801H90.9224V297H89.084V286.336H93.1343C93.9595 286.336 94.6602 286.482 95.2363 286.775C95.8174 287.063 96.2593 287.464 96.562 287.977C96.8647 288.484 97.0161 289.065 97.0161 289.72C97.0161 290.408 96.8647 290.999 96.562 291.492C96.2593 291.985 95.8174 292.364 95.2363 292.627C94.6602 292.891 93.9595 293.023 93.1343 293.023ZM101.879 297.146C101.293 297.146 100.764 297.051 100.29 296.861C99.8213 296.666 99.4209 296.395 99.0889 296.048C98.7617 295.701 98.5103 295.293 98.3345 294.825C98.1587 294.356 98.0708 293.851 98.0708 293.309V293.016C98.0708 292.396 98.1611 291.834 98.3418 291.331C98.5225 290.828 98.7739 290.398 99.0962 290.042C99.4185 289.681 99.7993 289.405 100.239 289.214C100.678 289.024 101.154 288.929 101.667 288.929C102.233 288.929 102.729 289.024 103.154 289.214C103.579 289.405 103.93 289.673 104.208 290.02C104.492 290.362 104.702 290.77 104.838 291.243C104.98 291.717 105.051 292.239 105.051 292.811V293.565H98.9277V292.298H103.308V292.159C103.298 291.841 103.234 291.543 103.117 291.265C103.005 290.987 102.832 290.762 102.597 290.591C102.363 290.42 102.05 290.335 101.66 290.335C101.367 290.335 101.105 290.398 100.876 290.525C100.651 290.647 100.463 290.826 100.312 291.06C100.161 291.294 100.043 291.578 99.9604 291.91C99.8823 292.237 99.8433 292.605 99.8433 293.016V293.309C99.8433 293.655 99.8896 293.978 99.9824 294.275C100.08 294.568 100.222 294.825 100.407 295.044C100.593 295.264 100.817 295.438 101.081 295.564C101.345 295.687 101.645 295.748 101.982 295.748C102.407 295.748 102.785 295.662 103.117 295.491C103.449 295.32 103.737 295.079 103.981 294.766L104.912 295.667C104.741 295.916 104.519 296.155 104.245 296.385C103.972 296.609 103.637 296.792 103.242 296.934C102.851 297.076 102.397 297.146 101.879 297.146ZM108.2 290.584V297H106.435V289.075H108.12L108.2 290.584ZM110.625 289.024L110.61 290.665C110.502 290.645 110.385 290.63 110.258 290.621C110.136 290.611 110.014 290.606 109.892 290.606C109.589 290.606 109.323 290.65 109.094 290.738C108.864 290.821 108.671 290.943 108.515 291.104C108.364 291.26 108.247 291.451 108.164 291.675C108.081 291.9 108.032 292.151 108.017 292.43L107.614 292.459C107.614 291.961 107.663 291.5 107.761 291.075C107.858 290.65 108.005 290.276 108.2 289.954C108.4 289.632 108.649 289.38 108.947 289.2C109.25 289.019 109.599 288.929 109.995 288.929C110.102 288.929 110.217 288.938 110.339 288.958C110.466 288.978 110.561 289 110.625 289.024ZM116.176 294.854C116.176 294.678 116.132 294.52 116.044 294.378C115.957 294.231 115.788 294.1 115.539 293.982C115.295 293.865 114.934 293.758 114.455 293.66C114.035 293.567 113.649 293.458 113.298 293.331C112.951 293.199 112.653 293.04 112.404 292.854C112.155 292.669 111.962 292.449 111.826 292.195C111.689 291.941 111.621 291.648 111.621 291.316C111.621 290.994 111.691 290.689 111.833 290.401C111.975 290.113 112.177 289.859 112.441 289.639C112.705 289.419 113.024 289.246 113.4 289.119C113.781 288.992 114.206 288.929 114.675 288.929C115.339 288.929 115.908 289.041 116.381 289.266C116.86 289.485 117.226 289.786 117.48 290.167C117.734 290.542 117.861 290.967 117.861 291.441H116.096C116.096 291.231 116.042 291.036 115.935 290.855C115.832 290.669 115.676 290.521 115.466 290.408C115.256 290.291 114.992 290.232 114.675 290.232C114.372 290.232 114.121 290.281 113.92 290.379C113.725 290.472 113.579 290.594 113.481 290.745C113.388 290.896 113.342 291.062 113.342 291.243C113.342 291.375 113.366 291.495 113.415 291.602C113.469 291.705 113.557 291.8 113.679 291.888C113.801 291.971 113.967 292.049 114.177 292.122C114.392 292.195 114.66 292.266 114.982 292.334C115.588 292.461 116.108 292.625 116.542 292.825C116.982 293.021 117.319 293.274 117.553 293.587C117.788 293.895 117.905 294.285 117.905 294.759C117.905 295.11 117.829 295.433 117.678 295.726C117.531 296.014 117.316 296.265 117.033 296.48C116.75 296.69 116.411 296.854 116.015 296.971C115.625 297.088 115.185 297.146 114.697 297.146C113.979 297.146 113.371 297.02 112.873 296.766C112.375 296.507 111.997 296.177 111.738 295.777C111.484 295.372 111.357 294.952 111.357 294.517H113.063C113.083 294.844 113.173 295.105 113.334 295.301C113.5 295.491 113.706 295.63 113.95 295.718C114.199 295.801 114.455 295.843 114.719 295.843C115.036 295.843 115.302 295.801 115.517 295.718C115.732 295.63 115.896 295.513 116.008 295.367C116.12 295.215 116.176 295.044 116.176 294.854ZM119.113 293.125V292.957C119.113 292.386 119.196 291.856 119.362 291.368C119.528 290.875 119.768 290.447 120.08 290.086C120.397 289.72 120.783 289.437 121.237 289.236C121.696 289.031 122.214 288.929 122.79 288.929C123.371 288.929 123.889 289.031 124.343 289.236C124.802 289.437 125.19 289.72 125.507 290.086C125.825 290.447 126.066 290.875 126.232 291.368C126.398 291.856 126.481 292.386 126.481 292.957V293.125C126.481 293.697 126.398 294.227 126.232 294.715C126.066 295.203 125.825 295.63 125.507 295.997C125.19 296.358 124.804 296.641 124.35 296.846C123.896 297.046 123.381 297.146 122.805 297.146C122.224 297.146 121.704 297.046 121.245 296.846C120.791 296.641 120.405 296.358 120.087 295.997C119.77 295.63 119.528 295.203 119.362 294.715C119.196 294.227 119.113 293.697 119.113 293.125ZM120.878 292.957V293.125C120.878 293.482 120.915 293.819 120.988 294.136C121.062 294.454 121.176 294.732 121.333 294.971C121.489 295.21 121.689 295.398 121.933 295.535C122.177 295.672 122.468 295.74 122.805 295.74C123.132 295.74 123.415 295.672 123.654 295.535C123.898 295.398 124.099 295.21 124.255 294.971C124.411 294.732 124.526 294.454 124.599 294.136C124.677 293.819 124.716 293.482 124.716 293.125V292.957C124.716 292.605 124.677 292.273 124.599 291.961C124.526 291.644 124.409 291.363 124.248 291.119C124.091 290.875 123.891 290.684 123.647 290.547C123.408 290.406 123.122 290.335 122.79 290.335C122.458 290.335 122.17 290.406 121.926 290.547C121.687 290.684 121.489 290.875 121.333 291.119C121.176 291.363 121.062 291.644 120.988 291.961C120.915 292.273 120.878 292.605 120.878 292.957ZM129.711 290.767V297H127.946V289.075H129.609L129.711 290.767ZM129.396 292.745L128.825 292.737C128.83 292.176 128.908 291.661 129.06 291.192C129.216 290.723 129.431 290.32 129.704 289.983C129.982 289.646 130.314 289.388 130.7 289.207C131.086 289.021 131.516 288.929 131.989 288.929C132.37 288.929 132.714 288.982 133.022 289.09C133.334 289.192 133.601 289.361 133.82 289.595C134.045 289.83 134.216 290.135 134.333 290.511C134.45 290.882 134.509 291.338 134.509 291.88V297H132.736V291.873C132.736 291.492 132.68 291.192 132.568 290.972C132.46 290.748 132.302 290.589 132.092 290.496C131.887 290.398 131.63 290.35 131.323 290.35C131.02 290.35 130.749 290.413 130.51 290.54C130.271 290.667 130.068 290.84 129.902 291.06C129.741 291.28 129.616 291.534 129.528 291.822C129.44 292.11 129.396 292.417 129.396 292.745ZM140.778 295.411V291.631C140.778 291.348 140.727 291.104 140.625 290.899C140.522 290.694 140.366 290.535 140.156 290.423C139.951 290.311 139.692 290.254 139.379 290.254C139.091 290.254 138.842 290.303 138.632 290.401C138.422 290.499 138.259 290.63 138.142 290.796C138.024 290.962 137.966 291.15 137.966 291.36H136.208C136.208 291.048 136.284 290.745 136.435 290.452C136.586 290.159 136.806 289.898 137.094 289.668C137.382 289.439 137.727 289.258 138.127 289.126C138.527 288.995 138.977 288.929 139.475 288.929C140.07 288.929 140.598 289.029 141.057 289.229C141.521 289.429 141.884 289.732 142.148 290.137C142.417 290.538 142.551 291.041 142.551 291.646V295.169C142.551 295.53 142.575 295.855 142.624 296.143C142.678 296.426 142.753 296.673 142.851 296.883V297H141.042C140.959 296.81 140.893 296.568 140.844 296.275C140.8 295.977 140.778 295.689 140.778 295.411ZM141.035 292.181L141.049 293.272H139.782C139.455 293.272 139.167 293.304 138.918 293.367C138.669 293.426 138.461 293.514 138.295 293.631C138.129 293.748 138.005 293.89 137.922 294.056C137.839 294.222 137.797 294.41 137.797 294.62C137.797 294.83 137.846 295.022 137.944 295.198C138.042 295.369 138.183 295.503 138.369 295.601C138.559 295.699 138.789 295.748 139.057 295.748C139.418 295.748 139.733 295.674 140.002 295.528C140.275 295.376 140.49 295.193 140.646 294.979C140.803 294.759 140.886 294.551 140.896 294.356L141.467 295.14C141.408 295.34 141.308 295.555 141.167 295.784C141.025 296.014 140.839 296.233 140.61 296.443C140.385 296.648 140.114 296.817 139.797 296.949C139.484 297.081 139.123 297.146 138.713 297.146C138.195 297.146 137.734 297.044 137.329 296.839C136.923 296.629 136.606 296.348 136.376 295.997C136.147 295.64 136.032 295.237 136.032 294.788C136.032 294.368 136.11 293.997 136.267 293.675C136.428 293.348 136.662 293.074 136.97 292.854C137.282 292.635 137.663 292.469 138.112 292.356C138.562 292.239 139.074 292.181 139.65 292.181H141.035ZM146.286 285.75V297H144.514V285.75H146.286ZM150.109 289.075V297H148.337V289.075H150.109ZM148.22 286.995C148.22 286.727 148.308 286.504 148.483 286.329C148.664 286.148 148.913 286.058 149.23 286.058C149.543 286.058 149.79 286.148 149.97 286.329C150.151 286.504 150.241 286.727 150.241 286.995C150.241 287.259 150.151 287.479 149.97 287.654C149.79 287.83 149.543 287.918 149.23 287.918C148.913 287.918 148.664 287.83 148.483 287.654C148.308 287.479 148.22 287.259 148.22 286.995ZM155.676 289.075V290.364H151.208V289.075H155.676ZM152.497 287.134H154.262V294.81C154.262 295.054 154.296 295.242 154.365 295.374C154.438 295.501 154.538 295.586 154.665 295.63C154.792 295.674 154.941 295.696 155.112 295.696C155.234 295.696 155.351 295.689 155.463 295.674C155.576 295.66 155.666 295.645 155.734 295.63L155.742 296.978C155.595 297.022 155.424 297.061 155.229 297.095C155.039 297.129 154.819 297.146 154.57 297.146C154.165 297.146 153.806 297.076 153.493 296.934C153.181 296.788 152.937 296.551 152.761 296.224C152.585 295.896 152.497 295.462 152.497 294.92V287.134ZM159.338 296.136L161.491 289.075H163.381L160.202 298.208C160.129 298.404 160.034 298.616 159.917 298.846C159.799 299.075 159.646 299.292 159.455 299.498C159.27 299.708 159.038 299.876 158.759 300.003C158.481 300.135 158.144 300.201 157.749 300.201C157.592 300.201 157.441 300.186 157.294 300.157C157.153 300.132 157.019 300.105 156.892 300.076L156.884 298.729C156.933 298.733 156.992 298.738 157.06 298.743C157.133 298.748 157.192 298.75 157.236 298.75C157.529 298.75 157.773 298.714 157.968 298.641C158.164 298.572 158.322 298.46 158.444 298.304C158.571 298.147 158.679 297.938 158.767 297.674L159.338 296.136ZM158.122 289.075L160.004 295.008L160.319 296.868L159.096 297.183L156.218 289.075H158.122ZM173.95 295.579L176.755 297.806L175.561 298.853L172.807 296.648L173.95 295.579ZM176.777 291.375V291.961C176.777 292.767 176.672 293.489 176.462 294.129C176.252 294.769 175.952 295.313 175.561 295.762C175.17 296.211 174.704 296.556 174.162 296.795C173.62 297.029 173.02 297.146 172.36 297.146C171.706 297.146 171.108 297.029 170.566 296.795C170.029 296.556 169.562 296.211 169.167 295.762C168.771 295.313 168.464 294.769 168.244 294.129C168.029 293.489 167.922 292.767 167.922 291.961V291.375C167.922 290.569 168.029 289.849 168.244 289.214C168.459 288.575 168.762 288.03 169.152 287.581C169.548 287.127 170.014 286.783 170.551 286.548C171.093 286.309 171.691 286.189 172.346 286.189C173.005 286.189 173.605 286.309 174.147 286.548C174.694 286.783 175.163 287.127 175.554 287.581C175.944 288.03 176.245 288.575 176.455 289.214C176.669 289.849 176.777 290.569 176.777 291.375ZM174.931 291.961V291.36C174.931 290.765 174.873 290.24 174.755 289.786C174.643 289.327 174.475 288.943 174.25 288.636C174.03 288.323 173.759 288.089 173.437 287.933C173.12 287.771 172.756 287.691 172.346 287.691C171.945 287.691 171.586 287.771 171.269 287.933C170.952 288.089 170.681 288.323 170.456 288.636C170.231 288.943 170.061 289.327 169.943 289.786C169.826 290.24 169.768 290.765 169.768 291.36V291.961C169.768 292.557 169.826 293.084 169.943 293.543C170.061 294.002 170.231 294.39 170.456 294.708C170.686 295.02 170.959 295.257 171.276 295.418C171.599 295.574 171.96 295.652 172.36 295.652C172.771 295.652 173.134 295.574 173.452 295.418C173.769 295.257 174.038 295.02 174.257 294.708C174.477 294.39 174.643 294.002 174.755 293.543C174.873 293.084 174.931 292.557 174.931 291.961ZM183.237 295.132V289.075H185.009V297H183.339L183.237 295.132ZM183.486 293.484L184.079 293.47C184.079 294.002 184.021 294.493 183.903 294.942C183.786 295.386 183.605 295.774 183.361 296.106C183.117 296.434 182.805 296.69 182.424 296.875C182.043 297.056 181.586 297.146 181.054 297.146C180.668 297.146 180.314 297.09 179.992 296.978C179.67 296.866 179.392 296.692 179.157 296.458C178.928 296.224 178.75 295.918 178.623 295.542C178.496 295.167 178.432 294.717 178.432 294.195V289.075H180.197V294.209C180.197 294.498 180.231 294.739 180.3 294.935C180.368 295.125 180.461 295.279 180.578 295.396C180.695 295.513 180.832 295.596 180.988 295.645C181.145 295.694 181.311 295.718 181.486 295.718C181.989 295.718 182.385 295.621 182.673 295.425C182.966 295.225 183.173 294.957 183.295 294.62C183.422 294.283 183.486 293.904 183.486 293.484ZM188.708 289.075V297H186.936V289.075H188.708ZM186.818 286.995C186.818 286.727 186.906 286.504 187.082 286.329C187.263 286.148 187.512 286.058 187.829 286.058C188.142 286.058 188.388 286.148 188.569 286.329C188.75 286.504 188.84 286.727 188.84 286.995C188.84 287.259 188.75 287.479 188.569 287.654C188.388 287.83 188.142 287.918 187.829 287.918C187.512 287.918 187.263 287.83 187.082 287.654C186.906 287.479 186.818 287.259 186.818 286.995ZM196.772 295.594V297H190.869V295.594H196.772ZM196.611 290.174L191.469 297H190.327V295.865L195.439 289.075H196.611V290.174ZM195.93 289.075V290.481H190.415V289.075H195.93Z" fill="#505050"/>
<path fill-rule="evenodd" clip-rule="evenodd" d="M73.5667 330.259H75.8889C76.1836 330.259 76.4662 330.393 76.6746 330.632C76.8829 330.871 77 331.195 77 331.533V341.726C77 342.064 76.8829 342.388 76.6746 342.627C76.4662 342.866 76.1836 343 75.8889 343H68.1111C67.8164 343 67.5338 342.866 67.3255 342.627C67.1171 342.388 67 342.064 67 341.726V331.533C67 331.195 67.1171 330.871 67.3255 330.632C67.5338 330.393 67.8164 330.259 68.1111 330.259H70.4333C70.5501 329.89 70.7631 329.571 71.0434 329.346C71.3237 329.121 71.6577 329 72 329C72.3423 329 72.6763 329.121 72.9566 329.346C73.2369 329.571 73.4499 329.89 73.5667 330.259ZM72.3086 330.366C72.2172 330.296 72.1099 330.259 72 330.259C71.8527 330.259 71.7114 330.326 71.6072 330.446C71.503 330.565 71.4444 330.727 71.4444 330.896C71.4444 331.022 71.477 331.145 71.5381 331.25C71.5991 331.355 71.6859 331.437 71.7874 331.485C71.8889 331.533 72.0006 331.546 72.1084 331.521C72.2161 331.496 72.3151 331.436 72.3928 331.347C72.4705 331.258 72.5234 331.144 72.5449 331.02C72.5663 330.897 72.5553 330.769 72.5133 330.652C72.4713 330.536 72.4 330.436 72.3086 330.366ZM68.1111 331.533V341.726H75.8889V331.533H74.2222V332.807H69.7778V331.533H68.1111ZM69.7778 336.629H74.2222C74.3696 336.629 74.5109 336.696 74.6151 336.816C74.7193 336.935 74.7778 337.097 74.7778 337.266C74.7778 337.435 74.7193 337.597 74.6151 337.717C74.5109 337.836 74.3696 337.903 74.2222 337.903H69.7778C69.6304 337.903 69.4891 337.836 69.3849 337.717C69.2807 337.597 69.2222 337.435 69.2222 337.266C69.2222 337.097 69.2807 336.935 69.3849 336.816C69.4891 336.696 69.6304 336.629 69.7778 336.629ZM74.2222 334.718H69.7778C69.6304 334.718 69.4891 334.785 69.3849 334.905C69.2807 335.024 69.2222 335.186 69.2222 335.355C69.2222 335.524 69.2807 335.686 69.3849 335.805C69.4891 335.925 69.6304 335.992 69.7778 335.992H74.2222C74.3696 335.992 74.5109 335.925 74.6151 335.805C74.7193 335.686 74.7778 335.524 74.7778 335.355C74.7778 335.186 74.7193 335.024 74.6151 334.905C74.5109 334.785 74.3696 334.718 74.2222 334.718ZM72 338.54H74.2222C74.3696 338.54 74.5109 338.607 74.6151 338.727C74.7193 338.846 74.7778 339.008 74.7778 339.177C74.7778 339.346 74.7193 339.508 74.6151 339.628C74.5109 339.747 74.3696 339.814 74.2222 339.814H72C71.8527 339.814 71.7114 339.747 71.6072 339.628C71.503 339.508 71.4444 339.346 71.4444 339.177C71.4444 339.008 71.503 338.846 71.6072 338.727C71.7114 338.607 71.8527 338.54 72 338.54Z" fill="#505050"/>
<path d="M97.5435 330.336V341H95.7051L90.9224 333.361V341H89.084V330.336H90.9224L95.7197 337.99V330.336H97.5435ZM103.051 341.146C102.465 341.146 101.936 341.051 101.462 340.861C100.993 340.666 100.593 340.395 100.261 340.048C99.9336 339.701 99.6821 339.293 99.5063 338.825C99.3306 338.356 99.2427 337.851 99.2427 337.309V337.016C99.2427 336.396 99.333 335.834 99.5137 335.331C99.6943 334.828 99.9458 334.398 100.268 334.042C100.59 333.681 100.971 333.405 101.411 333.214C101.85 333.024 102.326 332.929 102.839 332.929C103.405 332.929 103.901 333.024 104.326 333.214C104.75 333.405 105.102 333.673 105.38 334.02C105.664 334.362 105.874 334.77 106.01 335.243C106.152 335.717 106.223 336.239 106.223 336.811V337.565H100.1V336.298H104.479V336.159C104.47 335.841 104.406 335.543 104.289 335.265C104.177 334.987 104.003 334.762 103.769 334.591C103.535 334.42 103.222 334.335 102.832 334.335C102.539 334.335 102.277 334.398 102.048 334.525C101.823 334.647 101.635 334.826 101.484 335.06C101.333 335.294 101.215 335.578 101.132 335.91C101.054 336.237 101.015 336.605 101.015 337.016V337.309C101.015 337.655 101.062 337.978 101.154 338.275C101.252 338.568 101.394 338.825 101.579 339.044C101.765 339.264 101.989 339.438 102.253 339.564C102.517 339.687 102.817 339.748 103.154 339.748C103.579 339.748 103.957 339.662 104.289 339.491C104.621 339.32 104.909 339.079 105.153 338.766L106.083 339.667C105.913 339.916 105.69 340.155 105.417 340.385C105.144 340.609 104.809 340.792 104.414 340.934C104.023 341.076 103.569 341.146 103.051 341.146ZM109.753 339.242L111.584 333.075H112.712L112.404 334.921L110.559 341H109.548L109.753 339.242ZM108.676 333.075L110.104 339.271L110.222 341H109.094L106.948 333.075H108.676ZM114.426 339.198L115.81 333.075H117.531L115.393 341H114.265L114.426 339.198ZM112.902 333.075L114.711 339.169L114.938 341H113.928L112.06 334.914L111.752 333.075H112.902ZM126.694 337.023H123.918V335.565H126.694C127.177 335.565 127.568 335.487 127.866 335.331C128.164 335.175 128.381 334.96 128.518 334.687C128.659 334.408 128.73 334.091 128.73 333.734C128.73 333.397 128.659 333.083 128.518 332.79C128.381 332.492 128.164 332.252 127.866 332.072C127.568 331.891 127.177 331.801 126.694 331.801H124.482V341H122.644V330.336H126.694C127.519 330.336 128.22 330.482 128.796 330.775C129.377 331.063 129.819 331.464 130.122 331.977C130.424 332.484 130.576 333.065 130.576 333.72C130.576 334.408 130.424 334.999 130.122 335.492C129.819 335.985 129.377 336.364 128.796 336.627C128.22 336.891 127.519 337.023 126.694 337.023ZM131.608 337.125V336.957C131.608 336.386 131.691 335.856 131.857 335.368C132.023 334.875 132.263 334.447 132.575 334.086C132.893 333.72 133.278 333.437 133.732 333.236C134.191 333.031 134.709 332.929 135.285 332.929C135.866 332.929 136.384 333.031 136.838 333.236C137.297 333.437 137.685 333.72 138.002 334.086C138.32 334.447 138.562 334.875 138.728 335.368C138.894 335.856 138.977 336.386 138.977 336.957V337.125C138.977 337.697 138.894 338.227 138.728 338.715C138.562 339.203 138.32 339.63 138.002 339.997C137.685 340.358 137.299 340.641 136.845 340.846C136.391 341.046 135.876 341.146 135.3 341.146C134.719 341.146 134.199 341.046 133.74 340.846C133.286 340.641 132.9 340.358 132.583 339.997C132.265 339.63 132.023 339.203 131.857 338.715C131.691 338.227 131.608 337.697 131.608 337.125ZM133.374 336.957V337.125C133.374 337.482 133.41 337.819 133.483 338.136C133.557 338.454 133.671 338.732 133.828 338.971C133.984 339.21 134.184 339.398 134.428 339.535C134.672 339.672 134.963 339.74 135.3 339.74C135.627 339.74 135.91 339.672 136.149 339.535C136.394 339.398 136.594 339.21 136.75 338.971C136.906 338.732 137.021 338.454 137.094 338.136C137.172 337.819 137.211 337.482 137.211 337.125V336.957C137.211 336.605 137.172 336.273 137.094 335.961C137.021 335.644 136.904 335.363 136.743 335.119C136.586 334.875 136.386 334.684 136.142 334.547C135.903 334.406 135.617 334.335 135.285 334.335C134.953 334.335 134.665 334.406 134.421 334.547C134.182 334.684 133.984 334.875 133.828 335.119C133.671 335.363 133.557 335.644 133.483 335.961C133.41 336.273 133.374 336.605 133.374 336.957ZM142.346 329.75V341H140.573V329.75H142.346ZM146.169 329.75V341H144.396V329.75H146.169Z" fill="#505050"/>
</g>
<defs>
<filter id="filter0_d_1709_35240" x="32" y="80" width="296" height="292" filterUnits="userSpaceOnUse" color-interpolation-filters="sRGB">
<feFlood flood-opacity="0" result="BackgroundImageFix"/>
<feColorMatrix in="SourceAlpha" type="matrix" values="0 0 0 0 0 0 0 0 0 0 0 0 0 0 0 0 0 0 127 0" result="hardAlpha"/>
<feOffset/>
<feGaussianBlur stdDeviation="4"/>
<feComposite in2="hardAlpha" operator="out"/>
<feColorMatrix type="matrix" values="0 0 0 0 0.101961 0 0 0 0 0.101961 0 0 0 0 0.101961 0 0 0 0.15 0"/>
<feBlend mode="normal" in2="BackgroundImageFix" result="effect1_dropShadow_1709_35240"/>
<feBlend mode="normal" in="SourceGraphic" in2="effect1_dropShadow_1709_35240" result="shape"/>
</filter>
</defs>
</svg>
