<svg width="800" height="258" viewBox="0 0 800 258" fill="none" xmlns="http://www.w3.org/2000/svg">
<rect width="800" height="258" rx="4" fill="#F8F8F8"/>
<path d="M227.764 79.5425V81H222.41V79.5425H227.764ZM222.922 70.3359V81H221.084V70.3359H222.922ZM233.477 79.4106V75.6313C233.477 75.3481 233.425 75.104 233.323 74.8989C233.22 74.6938 233.064 74.5352 232.854 74.4229C232.649 74.3105 232.39 74.2544 232.078 74.2544C231.79 74.2544 231.541 74.3032 231.331 74.4009C231.121 74.4985 230.957 74.6304 230.84 74.7964C230.723 74.9624 230.664 75.1504 230.664 75.3604H228.906C228.906 75.0479 228.982 74.7451 229.133 74.4521C229.285 74.1592 229.504 73.8979 229.792 73.6685C230.081 73.439 230.425 73.2583 230.825 73.1265C231.226 72.9946 231.675 72.9287 232.173 72.9287C232.769 72.9287 233.296 73.0288 233.755 73.229C234.219 73.4292 234.583 73.7319 234.846 74.1372C235.115 74.5376 235.249 75.0405 235.249 75.646V79.1689C235.249 79.5303 235.273 79.855 235.322 80.1431C235.376 80.4263 235.452 80.6729 235.549 80.8828V81H233.74C233.657 80.8096 233.591 80.5679 233.542 80.2749C233.499 79.9771 233.477 79.689 233.477 79.4106ZM233.733 76.1807L233.748 77.272H232.48C232.153 77.272 231.865 77.3037 231.616 77.3672C231.367 77.4258 231.16 77.5137 230.994 77.6309C230.828 77.748 230.703 77.8896 230.62 78.0557C230.537 78.2217 230.496 78.4097 230.496 78.6196C230.496 78.8296 230.544 79.0225 230.642 79.1982C230.74 79.3691 230.881 79.5034 231.067 79.6011C231.257 79.6987 231.487 79.7476 231.755 79.7476C232.117 79.7476 232.432 79.6743 232.7 79.5278C232.974 79.3765 233.188 79.1934 233.345 78.9785C233.501 78.7588 233.584 78.5513 233.594 78.356L234.165 79.1396C234.106 79.3398 234.006 79.5547 233.865 79.7842C233.723 80.0137 233.538 80.2334 233.308 80.4434C233.083 80.6484 232.812 80.8169 232.495 80.9487C232.183 81.0806 231.821 81.1465 231.411 81.1465C230.894 81.1465 230.432 81.0439 230.027 80.8389C229.622 80.6289 229.304 80.3481 229.075 79.9966C228.845 79.6401 228.73 79.2373 228.73 78.7881C228.73 78.3682 228.809 77.9971 228.965 77.6748C229.126 77.3477 229.36 77.0742 229.668 76.8545C229.98 76.6348 230.361 76.4688 230.811 76.3564C231.26 76.2393 231.772 76.1807 232.349 76.1807H233.733ZM237.102 69.75H238.867V79.3081L238.699 81H237.102V69.75ZM244.038 76.9644V77.1182C244.038 77.7041 243.972 78.2437 243.84 78.7368C243.713 79.2251 243.518 79.6499 243.254 80.0112C242.996 80.3726 242.673 80.6533 242.288 80.8535C241.907 81.0488 241.465 81.1465 240.962 81.1465C240.469 81.1465 240.039 81.0537 239.673 80.8682C239.307 80.6826 238.999 80.4189 238.75 80.0771C238.506 79.7354 238.308 79.3276 238.157 78.854C238.005 78.3804 237.898 77.8579 237.834 77.2866V76.7959C237.898 76.2197 238.005 75.6973 238.157 75.2285C238.308 74.7549 238.506 74.3472 238.75 74.0054C238.999 73.6587 239.304 73.3926 239.666 73.207C240.032 73.0215 240.459 72.9287 240.947 72.9287C241.455 72.9287 241.902 73.0264 242.288 73.2217C242.678 73.417 243.003 73.6953 243.262 74.0566C243.521 74.4131 243.713 74.8379 243.84 75.3311C243.972 75.8242 244.038 76.3687 244.038 76.9644ZM242.273 77.1182V76.9644C242.273 76.6079 242.244 76.2734 242.185 75.9609C242.126 75.6436 242.029 75.3652 241.892 75.126C241.76 74.8867 241.58 74.6987 241.35 74.562C241.125 74.4204 240.845 74.3496 240.508 74.3496C240.195 74.3496 239.927 74.4033 239.702 74.5107C239.478 74.6182 239.29 74.7646 239.138 74.9502C238.987 75.1357 238.867 75.3506 238.779 75.5947C238.696 75.8389 238.64 76.1025 238.611 76.3857V77.7114C238.655 78.0776 238.748 78.4146 238.889 78.7222C239.036 79.0249 239.241 79.269 239.504 79.4546C239.768 79.6353 240.107 79.7256 240.522 79.7256C240.85 79.7256 241.125 79.6597 241.35 79.5278C241.575 79.396 241.753 79.2129 241.885 78.9785C242.021 78.7393 242.119 78.4609 242.178 78.1436C242.241 77.8262 242.273 77.4844 242.273 77.1182ZM249.026 81.1465C248.44 81.1465 247.91 81.0513 247.437 80.8608C246.968 80.6655 246.567 80.3945 246.235 80.0479C245.908 79.7012 245.657 79.2935 245.481 78.8247C245.305 78.356 245.217 77.8506 245.217 77.3086V77.0156C245.217 76.3955 245.308 75.834 245.488 75.3311C245.669 74.8281 245.92 74.3984 246.243 74.042C246.565 73.6807 246.946 73.4048 247.385 73.2144C247.825 73.0239 248.301 72.9287 248.813 72.9287C249.38 72.9287 249.875 73.0239 250.3 73.2144C250.725 73.4048 251.077 73.6733 251.355 74.02C251.638 74.3618 251.848 74.7695 251.985 75.2432C252.126 75.7168 252.197 76.2393 252.197 76.8105V77.5649H246.074V76.2979H250.454V76.1587C250.444 75.8413 250.381 75.5435 250.264 75.2651C250.151 74.9868 249.978 74.7622 249.744 74.5913C249.509 74.4204 249.197 74.335 248.806 74.335C248.513 74.335 248.252 74.3984 248.022 74.5254C247.798 74.6475 247.61 74.8257 247.458 75.0601C247.307 75.2944 247.19 75.5776 247.107 75.9097C247.029 76.2368 246.99 76.6055 246.99 77.0156V77.3086C246.99 77.6553 247.036 77.9775 247.129 78.2754C247.227 78.5684 247.368 78.8247 247.554 79.0444C247.739 79.2642 247.964 79.4375 248.228 79.5645C248.491 79.6865 248.792 79.7476 249.128 79.7476C249.553 79.7476 249.932 79.6621 250.264 79.4912C250.596 79.3203 250.884 79.0786 251.128 78.7661L252.058 79.667C251.887 79.916 251.665 80.1553 251.392 80.3848C251.118 80.6094 250.784 80.7925 250.388 80.9341C249.998 81.0757 249.543 81.1465 249.026 81.1465ZM255.464 69.75V81H253.691V69.75H255.464Z" fill="#505050"/>
<rect x="220.5" y="92.5" width="399" height="39" rx="3.5" fill="white"/>
<path d="M241.171 112.818H238.322V111.668H241.171C241.723 111.668 242.169 111.58 242.511 111.404C242.853 111.229 243.102 110.984 243.258 110.672C243.419 110.359 243.5 110.003 243.5 109.603C243.5 109.236 243.419 108.892 243.258 108.57C243.102 108.248 242.853 107.989 242.511 107.793C242.169 107.593 241.723 107.493 241.171 107.493H238.651V117H237.238V106.336H241.171C241.977 106.336 242.658 106.475 243.214 106.753C243.771 107.032 244.193 107.417 244.481 107.911C244.77 108.399 244.914 108.958 244.914 109.588C244.914 110.271 244.77 110.855 244.481 111.338C244.193 111.822 243.771 112.19 243.214 112.444C242.658 112.693 241.977 112.818 241.171 112.818ZM247.968 105.75V117H246.605V105.75H247.968ZM254.816 115.645V111.565C254.816 111.253 254.752 110.982 254.625 110.752C254.503 110.518 254.318 110.337 254.069 110.21C253.82 110.083 253.512 110.02 253.146 110.02C252.804 110.02 252.504 110.079 252.245 110.196C251.991 110.313 251.791 110.467 251.645 110.657C251.503 110.848 251.432 111.053 251.432 111.272H250.077C250.077 110.989 250.15 110.708 250.297 110.43C250.443 110.152 250.653 109.9 250.927 109.676C251.205 109.446 251.537 109.266 251.923 109.134C252.313 108.997 252.748 108.929 253.227 108.929C253.803 108.929 254.311 109.026 254.75 109.222C255.194 109.417 255.541 109.712 255.79 110.108C256.044 110.499 256.171 110.989 256.171 111.58V115.271C256.171 115.535 256.193 115.816 256.237 116.114C256.286 116.412 256.356 116.668 256.449 116.883V117H255.036C254.967 116.844 254.914 116.636 254.875 116.377C254.835 116.114 254.816 115.87 254.816 115.645ZM255.05 112.195L255.065 113.147H253.695C253.31 113.147 252.965 113.179 252.663 113.243C252.36 113.301 252.106 113.392 251.901 113.514C251.696 113.636 251.54 113.79 251.432 113.975C251.325 114.156 251.271 114.368 251.271 114.612C251.271 114.861 251.327 115.088 251.439 115.293C251.552 115.499 251.72 115.662 251.945 115.784C252.174 115.901 252.455 115.96 252.787 115.96C253.202 115.96 253.568 115.872 253.886 115.696C254.203 115.521 254.455 115.306 254.64 115.052C254.831 114.798 254.933 114.551 254.948 114.312L255.526 114.964C255.492 115.169 255.399 115.396 255.248 115.645C255.097 115.894 254.894 116.133 254.64 116.363C254.391 116.587 254.093 116.775 253.747 116.927C253.405 117.073 253.019 117.146 252.589 117.146C252.052 117.146 251.581 117.042 251.176 116.832C250.775 116.622 250.463 116.341 250.238 115.989C250.019 115.633 249.909 115.235 249.909 114.795C249.909 114.371 249.992 113.997 250.158 113.675C250.324 113.348 250.563 113.077 250.875 112.862C251.188 112.642 251.564 112.476 252.003 112.364C252.443 112.251 252.934 112.195 253.476 112.195H255.05ZM261.474 116.033C261.796 116.033 262.094 115.967 262.367 115.835C262.641 115.704 262.865 115.523 263.041 115.293C263.217 115.059 263.317 114.793 263.341 114.495H264.63C264.606 114.964 264.447 115.401 264.154 115.806C263.866 116.207 263.488 116.531 263.019 116.78C262.55 117.024 262.035 117.146 261.474 117.146C260.878 117.146 260.358 117.042 259.914 116.832C259.474 116.622 259.108 116.333 258.815 115.967C258.527 115.601 258.31 115.181 258.163 114.708C258.021 114.229 257.951 113.724 257.951 113.191V112.884C257.951 112.352 258.021 111.849 258.163 111.375C258.31 110.896 258.527 110.474 258.815 110.108C259.108 109.742 259.474 109.454 259.914 109.244C260.358 109.034 260.878 108.929 261.474 108.929C262.094 108.929 262.636 109.056 263.1 109.31C263.563 109.559 263.927 109.9 264.191 110.335C264.459 110.765 264.606 111.253 264.63 111.8H263.341C263.317 111.473 263.224 111.177 263.063 110.914C262.907 110.65 262.692 110.44 262.418 110.284C262.15 110.123 261.835 110.042 261.474 110.042C261.059 110.042 260.709 110.125 260.426 110.291C260.148 110.452 259.926 110.672 259.76 110.95C259.599 111.224 259.481 111.529 259.408 111.866C259.34 112.198 259.306 112.537 259.306 112.884V113.191C259.306 113.538 259.34 113.88 259.408 114.217C259.477 114.554 259.591 114.859 259.752 115.132C259.918 115.406 260.141 115.625 260.419 115.792C260.702 115.953 261.054 116.033 261.474 116.033ZM269.442 117.146C268.891 117.146 268.39 117.054 267.941 116.868C267.497 116.678 267.113 116.412 266.791 116.07C266.474 115.728 266.229 115.323 266.059 114.854C265.888 114.385 265.802 113.873 265.802 113.316V113.008C265.802 112.364 265.897 111.79 266.088 111.287C266.278 110.779 266.537 110.35 266.864 109.998C267.191 109.646 267.562 109.38 267.978 109.2C268.393 109.019 268.822 108.929 269.267 108.929C269.833 108.929 270.321 109.026 270.731 109.222C271.146 109.417 271.486 109.69 271.75 110.042C272.013 110.389 272.208 110.799 272.335 111.272C272.462 111.741 272.526 112.254 272.526 112.811V113.418H266.608V112.312H271.171V112.21C271.151 111.858 271.078 111.517 270.951 111.185C270.829 110.853 270.634 110.579 270.365 110.364C270.097 110.149 269.73 110.042 269.267 110.042C268.959 110.042 268.676 110.108 268.417 110.24C268.158 110.367 267.936 110.557 267.75 110.811C267.565 111.065 267.421 111.375 267.318 111.741C267.216 112.107 267.165 112.53 267.165 113.008V113.316C267.165 113.692 267.216 114.046 267.318 114.378C267.426 114.705 267.58 114.993 267.78 115.242C267.985 115.491 268.231 115.687 268.52 115.828C268.812 115.97 269.145 116.041 269.516 116.041C269.994 116.041 270.399 115.943 270.731 115.748C271.063 115.552 271.354 115.291 271.603 114.964L272.423 115.616C272.252 115.875 272.035 116.121 271.771 116.355C271.508 116.59 271.183 116.78 270.797 116.927C270.417 117.073 269.965 117.146 269.442 117.146ZM275.463 105.75V117H274.108V105.75H275.463ZM275.141 112.737L274.577 112.715C274.582 112.173 274.662 111.673 274.818 111.214C274.975 110.75 275.194 110.347 275.478 110.005C275.761 109.664 276.098 109.4 276.488 109.214C276.884 109.024 277.321 108.929 277.799 108.929C278.19 108.929 278.542 108.982 278.854 109.09C279.167 109.192 279.433 109.358 279.652 109.588C279.877 109.817 280.048 110.115 280.165 110.481C280.282 110.843 280.341 111.285 280.341 111.807V117H278.979V111.792C278.979 111.377 278.917 111.045 278.795 110.796C278.673 110.542 278.495 110.359 278.261 110.247C278.026 110.13 277.738 110.071 277.396 110.071C277.06 110.071 276.752 110.142 276.474 110.284C276.2 110.425 275.963 110.621 275.763 110.87C275.568 111.119 275.414 111.404 275.302 111.727C275.194 112.044 275.141 112.381 275.141 112.737ZM282.011 113.125V112.957C282.011 112.386 282.094 111.856 282.26 111.368C282.426 110.875 282.665 110.447 282.978 110.086C283.29 109.72 283.668 109.437 284.113 109.236C284.557 109.031 285.055 108.929 285.607 108.929C286.164 108.929 286.664 109.031 287.108 109.236C287.558 109.437 287.938 109.72 288.251 110.086C288.568 110.447 288.81 110.875 288.976 111.368C289.142 111.856 289.225 112.386 289.225 112.957V113.125C289.225 113.697 289.142 114.227 288.976 114.715C288.81 115.203 288.568 115.63 288.251 115.997C287.938 116.358 287.56 116.641 287.116 116.846C286.676 117.046 286.178 117.146 285.622 117.146C285.065 117.146 284.564 117.046 284.12 116.846C283.676 116.641 283.295 116.358 282.978 115.997C282.665 115.63 282.426 115.203 282.26 114.715C282.094 114.227 282.011 113.697 282.011 113.125ZM283.366 112.957V113.125C283.366 113.521 283.412 113.895 283.505 114.246C283.598 114.593 283.737 114.9 283.922 115.169C284.113 115.438 284.35 115.65 284.633 115.806C284.916 115.958 285.246 116.033 285.622 116.033C285.993 116.033 286.317 115.958 286.596 115.806C286.879 115.65 287.113 115.438 287.299 115.169C287.484 114.9 287.624 114.593 287.716 114.246C287.814 113.895 287.863 113.521 287.863 113.125V112.957C287.863 112.566 287.814 112.198 287.716 111.851C287.624 111.5 287.482 111.189 287.292 110.921C287.106 110.647 286.872 110.433 286.588 110.276C286.31 110.12 285.983 110.042 285.607 110.042C285.236 110.042 284.909 110.12 284.625 110.276C284.347 110.433 284.113 110.647 283.922 110.921C283.737 111.189 283.598 111.5 283.505 111.851C283.412 112.198 283.366 112.566 283.366 112.957ZM292.396 105.75V117H291.034V105.75H292.396ZM299.567 115.462V105.75H300.929V117H299.684L299.567 115.462ZM294.235 113.125V112.972C294.235 112.366 294.308 111.817 294.455 111.324C294.606 110.826 294.818 110.398 295.092 110.042C295.37 109.686 295.7 109.412 296.081 109.222C296.466 109.026 296.896 108.929 297.37 108.929C297.868 108.929 298.302 109.017 298.673 109.192C299.049 109.363 299.367 109.615 299.625 109.947C299.889 110.274 300.097 110.669 300.248 111.133C300.399 111.597 300.504 112.122 300.563 112.708V113.382C300.509 113.963 300.404 114.485 300.248 114.949C300.097 115.413 299.889 115.809 299.625 116.136C299.367 116.463 299.049 116.714 298.673 116.89C298.297 117.061 297.858 117.146 297.355 117.146C296.891 117.146 296.466 117.046 296.081 116.846C295.7 116.646 295.37 116.365 295.092 116.004C294.818 115.643 294.606 115.218 294.455 114.729C294.308 114.236 294.235 113.702 294.235 113.125ZM295.597 112.972V113.125C295.597 113.521 295.636 113.892 295.714 114.239C295.797 114.585 295.924 114.891 296.095 115.154C296.266 115.418 296.483 115.625 296.747 115.777C297.011 115.923 297.326 115.997 297.692 115.997C298.141 115.997 298.51 115.901 298.798 115.711C299.091 115.521 299.325 115.269 299.501 114.957C299.677 114.644 299.813 114.305 299.911 113.938V112.173C299.853 111.905 299.767 111.646 299.655 111.397C299.547 111.143 299.406 110.918 299.23 110.723C299.059 110.523 298.847 110.364 298.593 110.247C298.344 110.13 298.048 110.071 297.707 110.071C297.335 110.071 297.016 110.149 296.747 110.306C296.483 110.457 296.266 110.667 296.095 110.936C295.924 111.199 295.797 111.507 295.714 111.858C295.636 112.205 295.597 112.576 295.597 112.972ZM306.327 117.146C305.775 117.146 305.275 117.054 304.826 116.868C304.381 116.678 303.998 116.412 303.676 116.07C303.358 115.728 303.114 115.323 302.943 114.854C302.772 114.385 302.687 113.873 302.687 113.316V113.008C302.687 112.364 302.782 111.79 302.973 111.287C303.163 110.779 303.422 110.35 303.749 109.998C304.076 109.646 304.447 109.38 304.862 109.2C305.277 109.019 305.707 108.929 306.151 108.929C306.718 108.929 307.206 109.026 307.616 109.222C308.031 109.417 308.371 109.69 308.634 110.042C308.898 110.389 309.093 110.799 309.22 111.272C309.347 111.741 309.411 112.254 309.411 112.811V113.418H303.493V112.312H308.056V112.21C308.036 111.858 307.963 111.517 307.836 111.185C307.714 110.853 307.519 110.579 307.25 110.364C306.981 110.149 306.615 110.042 306.151 110.042C305.844 110.042 305.561 110.108 305.302 110.24C305.043 110.367 304.821 110.557 304.635 110.811C304.45 111.065 304.306 111.375 304.203 111.741C304.101 112.107 304.049 112.53 304.049 113.008V113.316C304.049 113.692 304.101 114.046 304.203 114.378C304.311 114.705 304.464 114.993 304.665 115.242C304.87 115.491 305.116 115.687 305.404 115.828C305.697 115.97 306.029 116.041 306.4 116.041C306.879 116.041 307.284 115.943 307.616 115.748C307.948 115.552 308.239 115.291 308.488 114.964L309.308 115.616C309.137 115.875 308.92 116.121 308.656 116.355C308.393 116.59 308.068 116.78 307.682 116.927C307.301 117.073 306.85 117.146 306.327 117.146ZM312.348 110.32V117H310.993V109.075H312.311L312.348 110.32ZM314.823 109.031L314.816 110.291C314.704 110.267 314.596 110.252 314.494 110.247C314.396 110.237 314.284 110.232 314.157 110.232C313.844 110.232 313.568 110.281 313.329 110.379C313.09 110.477 312.887 110.613 312.721 110.789C312.555 110.965 312.423 111.175 312.326 111.419C312.233 111.658 312.172 111.922 312.143 112.21L311.762 112.43C311.762 111.951 311.808 111.502 311.901 111.082C311.999 110.662 312.147 110.291 312.348 109.969C312.548 109.642 312.802 109.388 313.109 109.207C313.422 109.021 313.793 108.929 314.223 108.929C314.32 108.929 314.433 108.941 314.56 108.965C314.687 108.985 314.774 109.007 314.823 109.031Z" fill="#737373"/>
<rect x="220.5" y="92.5" width="399" height="39" rx="3.5" stroke="#AAAAAA"/>
<path d="M227.109 144.731V145.728H222.107V144.731H227.109ZM222.298 140.758V150H221.073V140.758H222.298ZM228.176 140.758V150H226.957V140.758H228.176ZM233.025 150.127C232.547 150.127 232.113 150.047 231.724 149.886C231.339 149.721 231.007 149.49 230.728 149.194C230.452 148.898 230.241 148.546 230.093 148.14C229.945 147.734 229.871 147.29 229.871 146.807V146.541C229.871 145.982 229.953 145.485 230.118 145.049C230.283 144.609 230.507 144.236 230.791 143.932C231.075 143.627 231.396 143.396 231.756 143.24C232.116 143.083 232.488 143.005 232.873 143.005C233.364 143.005 233.787 143.09 234.143 143.259C234.502 143.428 234.796 143.665 235.025 143.97C235.253 144.27 235.423 144.626 235.533 145.036C235.643 145.442 235.698 145.887 235.698 146.369V146.896H230.569V145.938H234.523V145.849C234.507 145.544 234.443 145.248 234.333 144.96C234.227 144.672 234.058 144.435 233.825 144.249C233.592 144.063 233.275 143.97 232.873 143.97C232.606 143.97 232.361 144.027 232.137 144.141C231.912 144.251 231.72 144.416 231.559 144.636C231.398 144.856 231.273 145.125 231.185 145.442C231.096 145.76 231.051 146.126 231.051 146.541V146.807C231.051 147.133 231.096 147.44 231.185 147.728C231.278 148.011 231.411 148.261 231.584 148.477C231.762 148.692 231.976 148.862 232.226 148.984C232.479 149.107 232.767 149.168 233.089 149.168C233.504 149.168 233.855 149.084 234.143 148.915C234.43 148.745 234.682 148.519 234.898 148.235L235.609 148.8C235.461 149.025 235.272 149.238 235.044 149.441C234.815 149.645 234.534 149.81 234.2 149.937C233.87 150.063 233.478 150.127 233.025 150.127ZM238.345 140.25V150H237.164V140.25H238.345ZM241.404 144.452V152.641H240.224V143.132H241.303L241.404 144.452ZM246.032 146.509V146.642C246.032 147.141 245.972 147.605 245.854 148.032C245.736 148.455 245.562 148.824 245.333 149.137C245.109 149.45 244.832 149.693 244.502 149.867C244.172 150.04 243.793 150.127 243.366 150.127C242.93 150.127 242.545 150.055 242.21 149.911C241.876 149.767 241.593 149.558 241.36 149.283C241.127 149.008 240.941 148.678 240.801 148.292C240.666 147.907 240.573 147.474 240.522 146.991V146.28C240.573 145.772 240.668 145.318 240.808 144.916C240.947 144.514 241.131 144.171 241.36 143.887C241.593 143.599 241.874 143.382 242.204 143.233C242.534 143.081 242.915 143.005 243.347 143.005C243.778 143.005 244.161 143.09 244.496 143.259C244.83 143.424 245.111 143.661 245.34 143.97C245.568 144.279 245.74 144.649 245.854 145.081C245.972 145.508 246.032 145.984 246.032 146.509ZM244.851 146.642V146.509C244.851 146.166 244.815 145.844 244.743 145.544C244.671 145.239 244.559 144.973 244.407 144.744C244.259 144.511 244.068 144.329 243.835 144.198C243.603 144.063 243.326 143.995 243.004 143.995C242.708 143.995 242.45 144.046 242.229 144.147C242.014 144.249 241.83 144.387 241.677 144.56C241.525 144.729 241.4 144.924 241.303 145.144C241.21 145.36 241.14 145.584 241.093 145.817V147.461C241.178 147.757 241.296 148.036 241.449 148.299C241.601 148.557 241.804 148.766 242.058 148.927C242.312 149.084 242.632 149.162 243.017 149.162C243.334 149.162 243.607 149.097 243.835 148.965C244.068 148.83 244.259 148.646 244.407 148.413C244.559 148.18 244.671 147.914 244.743 147.613C244.815 147.309 244.851 146.985 244.851 146.642ZM253.63 143.132V144.033H249.917V143.132H253.63ZM251.173 141.462H252.348V148.299C252.348 148.532 252.384 148.707 252.456 148.826C252.528 148.944 252.621 149.022 252.735 149.061C252.849 149.099 252.972 149.118 253.103 149.118C253.2 149.118 253.302 149.109 253.408 149.092C253.518 149.071 253.6 149.054 253.655 149.042L253.662 150C253.569 150.03 253.446 150.057 253.293 150.083C253.145 150.112 252.965 150.127 252.754 150.127C252.466 150.127 252.202 150.07 251.96 149.956C251.719 149.841 251.527 149.651 251.383 149.384C251.243 149.113 251.173 148.75 251.173 148.292V141.462ZM257.857 150.127C257.379 150.127 256.945 150.047 256.556 149.886C256.171 149.721 255.839 149.49 255.56 149.194C255.285 148.898 255.073 148.546 254.925 148.14C254.777 147.734 254.703 147.29 254.703 146.807V146.541C254.703 145.982 254.785 145.485 254.95 145.049C255.115 144.609 255.34 144.236 255.623 143.932C255.907 143.627 256.228 143.396 256.588 143.24C256.948 143.083 257.32 143.005 257.705 143.005C258.196 143.005 258.619 143.09 258.975 143.259C259.334 143.428 259.628 143.665 259.857 143.97C260.085 144.27 260.255 144.626 260.365 145.036C260.475 145.442 260.53 145.887 260.53 146.369V146.896H255.401V145.938H259.355V145.849C259.339 145.544 259.275 145.248 259.165 144.96C259.059 144.672 258.89 144.435 258.657 144.249C258.424 144.063 258.107 143.97 257.705 143.97C257.438 143.97 257.193 144.027 256.969 144.141C256.744 144.251 256.552 144.416 256.391 144.636C256.23 144.856 256.105 145.125 256.017 145.442C255.928 145.76 255.883 146.126 255.883 146.541V146.807C255.883 147.133 255.928 147.44 256.017 147.728C256.11 148.011 256.243 148.261 256.417 148.477C256.594 148.692 256.808 148.862 257.058 148.984C257.312 149.107 257.599 149.168 257.921 149.168C258.336 149.168 258.687 149.084 258.975 148.915C259.262 148.745 259.514 148.519 259.73 148.235L260.441 148.8C260.293 149.025 260.104 149.238 259.876 149.441C259.647 149.645 259.366 149.81 259.032 149.937C258.702 150.063 258.31 150.127 257.857 150.127ZM262.694 143.132L264.199 145.633L265.722 143.132H267.1L264.853 146.521L267.169 150H265.811L264.224 147.423L262.637 150H261.272L263.583 146.521L261.342 143.132H262.694ZM271.226 143.132V144.033H267.512V143.132H271.226ZM268.769 141.462H269.943V148.299C269.943 148.532 269.979 148.707 270.051 148.826C270.123 148.944 270.216 149.022 270.331 149.061C270.445 149.099 270.568 149.118 270.699 149.118C270.796 149.118 270.898 149.109 271.003 149.092C271.113 149.071 271.196 149.054 271.251 149.042L271.257 150C271.164 150.03 271.042 150.057 270.889 150.083C270.741 150.112 270.561 150.127 270.35 150.127C270.062 150.127 269.797 150.07 269.556 149.956C269.315 149.841 269.122 149.651 268.979 149.384C268.839 149.113 268.769 148.75 268.769 148.292V141.462Z" fill="#505050"/>
<rect x="156" y="64" width="24" height="20" rx="4" fill="#000714"/>
<path d="M168.971 68.707V78H167.797V70.1733L165.429 71.0366V69.9766L168.787 68.707H168.971Z" fill="white"/>
<line x1="216" y1="76.5" x2="184" y2="76.5" stroke="#0045C4"/>
<rect x="560" y="40" width="24" height="20" rx="4" fill="#000714"/>
<path d="M575.167 53.0352V54H569.118V53.1558L572.146 49.7852C572.518 49.3704 572.806 49.0192 573.009 48.7314C573.217 48.4395 573.361 48.1792 573.441 47.9507C573.526 47.7179 573.568 47.481 573.568 47.2397C573.568 46.9351 573.504 46.66 573.377 46.4146C573.255 46.1649 573.073 45.966 572.832 45.8179C572.59 45.6698 572.298 45.5957 571.956 45.5957C571.545 45.5957 571.202 45.6761 570.927 45.8369C570.656 45.9935 570.453 46.2135 570.318 46.4971C570.182 46.7806 570.115 47.1064 570.115 47.4746H568.94C568.94 46.9541 569.055 46.478 569.283 46.0464C569.512 45.6147 569.85 45.272 570.299 45.0181C570.747 44.7599 571.3 44.6309 571.956 44.6309C572.54 44.6309 573.039 44.7345 573.454 44.9419C573.868 45.145 574.186 45.4328 574.406 45.8052C574.63 46.1733 574.742 46.605 574.742 47.1001C574.742 47.3709 574.696 47.646 574.603 47.9253C574.514 48.2004 574.389 48.4754 574.228 48.7505C574.071 49.0256 573.887 49.2964 573.676 49.563C573.468 49.8296 573.246 50.092 573.009 50.3501L570.534 53.0352H575.167Z" fill="white"/>
<rect x="156" y="100" width="24" height="20" rx="4" fill="#000714"/>
<path d="M166.826 108.801H167.664C168.074 108.801 168.413 108.734 168.679 108.598C168.95 108.458 169.151 108.27 169.282 108.033C169.418 107.792 169.485 107.521 169.485 107.221C169.485 106.865 169.426 106.567 169.308 106.326C169.189 106.084 169.011 105.903 168.774 105.78C168.537 105.657 168.237 105.596 167.873 105.596C167.543 105.596 167.251 105.661 166.997 105.792C166.747 105.919 166.551 106.101 166.407 106.338C166.267 106.575 166.197 106.855 166.197 107.176H165.023C165.023 106.707 165.141 106.279 165.378 105.894C165.615 105.509 165.948 105.202 166.375 104.974C166.807 104.745 167.306 104.631 167.873 104.631C168.432 104.631 168.92 104.73 169.339 104.929C169.758 105.124 170.084 105.416 170.317 105.805C170.55 106.19 170.666 106.671 170.666 107.246C170.666 107.479 170.611 107.729 170.501 107.995C170.395 108.257 170.228 108.503 170 108.731C169.775 108.96 169.483 109.148 169.124 109.296C168.764 109.44 168.332 109.512 167.829 109.512H166.826V108.801ZM166.826 109.766V109.062H167.829C168.417 109.062 168.903 109.131 169.289 109.271C169.674 109.411 169.976 109.597 170.196 109.83C170.421 110.062 170.577 110.318 170.666 110.598C170.759 110.873 170.806 111.148 170.806 111.423C170.806 111.854 170.732 112.237 170.583 112.572C170.44 112.906 170.234 113.19 169.968 113.422C169.705 113.655 169.396 113.831 169.041 113.949C168.686 114.068 168.298 114.127 167.879 114.127C167.477 114.127 167.099 114.07 166.743 113.956C166.392 113.841 166.081 113.676 165.81 113.46C165.539 113.24 165.328 112.972 165.175 112.654C165.023 112.333 164.947 111.967 164.947 111.556H166.121C166.121 111.878 166.191 112.159 166.331 112.4C166.474 112.642 166.678 112.83 166.94 112.965C167.207 113.097 167.52 113.162 167.879 113.162C168.239 113.162 168.548 113.101 168.806 112.978C169.069 112.851 169.27 112.661 169.409 112.407C169.553 112.153 169.625 111.833 169.625 111.448C169.625 111.063 169.545 110.748 169.384 110.502C169.223 110.253 168.994 110.069 168.698 109.95C168.406 109.827 168.061 109.766 167.664 109.766H166.826Z" fill="white"/>
<rect x="261" y="194" width="24" height="20" rx="4" fill="#000714"/>
<path d="M276.358 204.89V205.854H269.68V205.163L273.819 198.758H274.777L273.749 200.611L271.013 204.89H276.358ZM275.069 198.758V208H273.895V198.758H275.069Z" fill="white"/>
<line x1="571.5" y1="100" x2="571.5" y2="68" stroke="#0045C4"/>
<line x1="232" y1="112.5" x2="184" y2="112.5" stroke="#0045C4"/>
<line x1="272.5" y1="190" x2="272.5" y2="158" stroke="#0045C4"/>
</svg>
