<svg width="800" height="224" viewBox="0 0 800 224" fill="none" xmlns="http://www.w3.org/2000/svg">
<rect width="800" height="224" rx="4" fill="#F8F8F8"/>
<path d="M250.764 55.5425V57H245.41V55.5425H250.764ZM245.922 46.3359V57H244.084V46.3359H245.922ZM256.477 55.4106V51.6313C256.477 51.3481 256.425 51.104 256.323 50.8989C256.22 50.6938 256.064 50.5352 255.854 50.4229C255.649 50.3105 255.39 50.2544 255.078 50.2544C254.79 50.2544 254.541 50.3032 254.331 50.4009C254.121 50.4985 253.957 50.6304 253.84 50.7964C253.723 50.9624 253.664 51.1504 253.664 51.3604H251.906C251.906 51.0479 251.982 50.7451 252.133 50.4521C252.285 50.1592 252.504 49.8979 252.792 49.6685C253.081 49.439 253.425 49.2583 253.825 49.1265C254.226 48.9946 254.675 48.9287 255.173 48.9287C255.769 48.9287 256.296 49.0288 256.755 49.229C257.219 49.4292 257.583 49.7319 257.846 50.1372C258.115 50.5376 258.249 51.0405 258.249 51.646V55.1689C258.249 55.5303 258.273 55.855 258.322 56.1431C258.376 56.4263 258.452 56.6729 258.549 56.8828V57H256.74C256.657 56.8096 256.591 56.5679 256.542 56.2749C256.499 55.9771 256.477 55.689 256.477 55.4106ZM256.733 52.1807L256.748 53.272H255.48C255.153 53.272 254.865 53.3037 254.616 53.3672C254.367 53.4258 254.16 53.5137 253.994 53.6309C253.828 53.748 253.703 53.8896 253.62 54.0557C253.537 54.2217 253.496 54.4097 253.496 54.6196C253.496 54.8296 253.544 55.0225 253.642 55.1982C253.74 55.3691 253.881 55.5034 254.067 55.6011C254.257 55.6987 254.487 55.7476 254.755 55.7476C255.117 55.7476 255.432 55.6743 255.7 55.5278C255.974 55.3765 256.188 55.1934 256.345 54.9785C256.501 54.7588 256.584 54.5513 256.594 54.356L257.165 55.1396C257.106 55.3398 257.006 55.5547 256.865 55.7842C256.723 56.0137 256.538 56.2334 256.308 56.4434C256.083 56.6484 255.812 56.8169 255.495 56.9487C255.183 57.0806 254.821 57.1465 254.411 57.1465C253.894 57.1465 253.432 57.0439 253.027 56.8389C252.622 56.6289 252.304 56.3481 252.075 55.9966C251.845 55.6401 251.73 55.2373 251.73 54.7881C251.73 54.3682 251.809 53.9971 251.965 53.6748C252.126 53.3477 252.36 53.0742 252.668 52.8545C252.98 52.6348 253.361 52.4688 253.811 52.3564C254.26 52.2393 254.772 52.1807 255.349 52.1807H256.733ZM261.867 50.584V57H260.102V49.0752H261.787L261.867 50.584ZM264.292 49.0239L264.277 50.6646C264.169 50.645 264.052 50.6304 263.925 50.6206C263.803 50.6108 263.681 50.606 263.559 50.606C263.256 50.606 262.99 50.6499 262.761 50.7378C262.531 50.8208 262.338 50.9429 262.182 51.104C262.031 51.2603 261.914 51.4507 261.831 51.6753C261.748 51.8999 261.699 52.1514 261.684 52.4297L261.281 52.459C261.281 51.9609 261.33 51.4995 261.428 51.0747C261.525 50.6499 261.672 50.2764 261.867 49.9541C262.067 49.6318 262.316 49.3804 262.614 49.1997C262.917 49.019 263.266 48.9287 263.662 48.9287C263.769 48.9287 263.884 48.9385 264.006 48.958C264.133 48.9775 264.228 48.9995 264.292 49.0239ZM270.327 49.0752H271.931V56.7803C271.931 57.4932 271.779 58.0986 271.477 58.5967C271.174 59.0947 270.751 59.4731 270.209 59.7319C269.667 59.9956 269.04 60.1274 268.327 60.1274C268.024 60.1274 267.688 60.0835 267.316 59.9956C266.95 59.9077 266.594 59.7661 266.247 59.5708C265.905 59.3804 265.62 59.1289 265.39 58.8164L266.218 57.7764C266.501 58.1133 266.813 58.3599 267.155 58.5161C267.497 58.6724 267.856 58.7505 268.232 58.7505C268.637 58.7505 268.981 58.6748 269.265 58.5234C269.553 58.377 269.775 58.1597 269.931 57.8716C270.087 57.5835 270.166 57.2319 270.166 56.8169V50.8696L270.327 49.0752ZM264.943 53.1255V52.9717C264.943 52.3711 265.017 51.8242 265.163 51.3311C265.31 50.833 265.52 50.4058 265.793 50.0493C266.066 49.688 266.398 49.4121 266.789 49.2217C267.18 49.0264 267.622 48.9287 268.115 48.9287C268.627 48.9287 269.064 49.0215 269.426 49.207C269.792 49.3926 270.097 49.6587 270.341 50.0054C270.585 50.3472 270.776 50.7573 270.913 51.2358C271.054 51.7095 271.159 52.2368 271.228 52.8179V53.3086C271.164 53.875 271.057 54.3926 270.905 54.8613C270.754 55.3301 270.554 55.7354 270.305 56.0771C270.056 56.4189 269.748 56.6826 269.382 56.8682C269.021 57.0537 268.593 57.1465 268.1 57.1465C267.617 57.1465 267.18 57.0464 266.789 56.8462C266.403 56.646 266.071 56.3652 265.793 56.0039C265.52 55.6426 265.31 55.2178 265.163 54.7295C265.017 54.2363 264.943 53.7017 264.943 53.1255ZM266.708 52.9717V53.1255C266.708 53.4868 266.743 53.8237 266.811 54.1362C266.884 54.4487 266.994 54.7246 267.141 54.9639C267.292 55.1982 267.482 55.3838 267.712 55.5205C267.946 55.6523 268.222 55.7183 268.54 55.7183C268.955 55.7183 269.294 55.6304 269.558 55.4546C269.826 55.2788 270.031 55.042 270.173 54.7441C270.319 54.4414 270.422 54.1045 270.48 53.7334V52.4077C270.451 52.1196 270.39 51.8511 270.297 51.6021C270.209 51.353 270.09 51.1357 269.938 50.9502C269.787 50.7598 269.597 50.6133 269.367 50.5107C269.138 50.4033 268.867 50.3496 268.554 50.3496C268.237 50.3496 267.961 50.418 267.727 50.5547C267.492 50.6914 267.299 50.8794 267.148 51.1187C267.001 51.3579 266.892 51.6362 266.818 51.9536C266.745 52.271 266.708 52.6104 266.708 52.9717ZM277.255 57.1465C276.669 57.1465 276.14 57.0513 275.666 56.8608C275.197 56.6655 274.797 56.3945 274.465 56.0479C274.138 55.7012 273.886 55.2935 273.71 54.8247C273.535 54.356 273.447 53.8506 273.447 53.3086V53.0156C273.447 52.3955 273.537 51.834 273.718 51.3311C273.898 50.8281 274.15 50.3984 274.472 50.042C274.794 49.6807 275.175 49.4048 275.615 49.2144C276.054 49.0239 276.53 48.9287 277.043 48.9287C277.609 48.9287 278.105 49.0239 278.53 49.2144C278.955 49.4048 279.306 49.6733 279.584 50.02C279.868 50.3618 280.078 50.7695 280.214 51.2432C280.356 51.7168 280.427 52.2393 280.427 52.8105V53.5649H274.304V52.2979H278.684V52.1587C278.674 51.8413 278.61 51.5435 278.493 51.2651C278.381 50.9868 278.208 50.7622 277.973 50.5913C277.739 50.4204 277.426 50.335 277.036 50.335C276.743 50.335 276.481 50.3984 276.252 50.5254C276.027 50.6475 275.839 50.8257 275.688 51.0601C275.537 51.2944 275.419 51.5776 275.336 51.9097C275.258 52.2368 275.219 52.6055 275.219 53.0156V53.3086C275.219 53.6553 275.266 53.9775 275.358 54.2754C275.456 54.5684 275.598 54.8247 275.783 55.0444C275.969 55.2642 276.193 55.4375 276.457 55.5645C276.721 55.6865 277.021 55.7476 277.358 55.7476C277.783 55.7476 278.161 55.6621 278.493 55.4912C278.825 55.3203 279.113 55.0786 279.357 54.7661L280.288 55.667C280.117 55.916 279.895 56.1553 279.621 56.3848C279.348 56.6094 279.013 56.7925 278.618 56.9341C278.227 57.0757 277.773 57.1465 277.255 57.1465Z" fill="#505050"/>
<rect x="243.5" y="68.5" width="399" height="39" rx="3.5" fill="white"/>
<path d="M264.171 88.8179H261.322V87.668H264.171C264.723 87.668 265.169 87.5801 265.511 87.4043C265.853 87.2285 266.102 86.9844 266.258 86.6719C266.419 86.3594 266.5 86.0029 266.5 85.6025C266.5 85.2363 266.419 84.8921 266.258 84.5698C266.102 84.2476 265.853 83.9888 265.511 83.7935C265.169 83.5933 264.723 83.4932 264.171 83.4932H261.651V93H260.238V82.3359H264.171C264.977 82.3359 265.658 82.4751 266.214 82.7534C266.771 83.0317 267.193 83.4175 267.481 83.9106C267.77 84.3989 267.914 84.958 267.914 85.5879C267.914 86.2715 267.77 86.855 267.481 87.3384C267.193 87.8218 266.771 88.1904 266.214 88.4443C265.658 88.6934 264.977 88.8179 264.171 88.8179ZM270.968 81.75V93H269.605V81.75H270.968ZM277.816 91.645V87.5654C277.816 87.2529 277.752 86.9819 277.625 86.7524C277.503 86.5181 277.318 86.3374 277.069 86.2104C276.82 86.0835 276.512 86.02 276.146 86.02C275.804 86.02 275.504 86.0786 275.245 86.1958C274.991 86.313 274.791 86.4668 274.645 86.6572C274.503 86.8477 274.432 87.0527 274.432 87.2725H273.077C273.077 86.9893 273.15 86.7085 273.297 86.4302C273.443 86.1519 273.653 85.9004 273.927 85.6758C274.205 85.4463 274.537 85.2656 274.923 85.1338C275.313 84.9971 275.748 84.9287 276.227 84.9287C276.803 84.9287 277.311 85.0264 277.75 85.2217C278.194 85.417 278.541 85.7124 278.79 86.1079C279.044 86.4985 279.171 86.9893 279.171 87.5801V91.2715C279.171 91.5352 279.193 91.8159 279.237 92.1138C279.286 92.4116 279.356 92.668 279.449 92.8828V93H278.036C277.967 92.8438 277.914 92.6362 277.875 92.3774C277.835 92.1138 277.816 91.8696 277.816 91.645ZM278.05 88.1953L278.065 89.1475H276.695C276.31 89.1475 275.965 89.1792 275.663 89.2427C275.36 89.3013 275.106 89.3916 274.901 89.5137C274.696 89.6357 274.54 89.7896 274.432 89.9751C274.325 90.1558 274.271 90.3682 274.271 90.6123C274.271 90.8613 274.327 91.0884 274.439 91.2935C274.552 91.4985 274.72 91.6621 274.945 91.7842C275.174 91.9014 275.455 91.96 275.787 91.96C276.202 91.96 276.568 91.8721 276.886 91.6963C277.203 91.5205 277.455 91.3057 277.64 91.0518C277.831 90.7979 277.933 90.5513 277.948 90.312L278.526 90.9639C278.492 91.1689 278.399 91.396 278.248 91.645C278.097 91.894 277.894 92.1333 277.64 92.3628C277.391 92.5874 277.093 92.7754 276.747 92.9268C276.405 93.0732 276.019 93.1465 275.589 93.1465C275.052 93.1465 274.581 93.0415 274.176 92.8315C273.775 92.6216 273.463 92.3408 273.238 91.9893C273.019 91.6328 272.909 91.2349 272.909 90.7954C272.909 90.3706 272.992 89.9971 273.158 89.6748C273.324 89.3477 273.563 89.0767 273.875 88.8618C274.188 88.6421 274.564 88.4761 275.003 88.3638C275.443 88.2515 275.934 88.1953 276.476 88.1953H278.05ZM284.474 92.0332C284.796 92.0332 285.094 91.9673 285.367 91.8354C285.641 91.7036 285.865 91.5229 286.041 91.2935C286.217 91.0591 286.317 90.793 286.341 90.4951H287.63C287.606 90.9639 287.447 91.4009 287.154 91.8062C286.866 92.2065 286.488 92.5312 286.019 92.7803C285.55 93.0244 285.035 93.1465 284.474 93.1465C283.878 93.1465 283.358 93.0415 282.914 92.8315C282.474 92.6216 282.108 92.3335 281.815 91.9673C281.527 91.6011 281.31 91.1812 281.163 90.7075C281.021 90.229 280.951 89.7236 280.951 89.1914V88.8838C280.951 88.3516 281.021 87.8486 281.163 87.375C281.31 86.8965 281.527 86.4741 281.815 86.1079C282.108 85.7417 282.474 85.4536 282.914 85.2437C283.358 85.0337 283.878 84.9287 284.474 84.9287C285.094 84.9287 285.636 85.0557 286.1 85.3096C286.563 85.5586 286.927 85.9004 287.191 86.335C287.459 86.7646 287.606 87.2529 287.63 87.7998H286.341C286.317 87.4727 286.224 87.1772 286.063 86.9136C285.907 86.6499 285.692 86.4399 285.418 86.2837C285.15 86.1226 284.835 86.042 284.474 86.042C284.059 86.042 283.709 86.125 283.426 86.291C283.148 86.4521 282.926 86.6719 282.76 86.9502C282.599 87.2236 282.481 87.5288 282.408 87.8657C282.34 88.1978 282.306 88.5371 282.306 88.8838V89.1914C282.306 89.5381 282.34 89.8799 282.408 90.2168C282.477 90.5537 282.591 90.8589 282.752 91.1323C282.918 91.4058 283.141 91.6255 283.419 91.7915C283.702 91.9526 284.054 92.0332 284.474 92.0332ZM292.442 93.1465C291.891 93.1465 291.39 93.0537 290.941 92.8682C290.497 92.6777 290.113 92.4116 289.791 92.0698C289.474 91.728 289.229 91.3228 289.059 90.854C288.888 90.3853 288.802 89.8726 288.802 89.3159V89.0083C288.802 88.3638 288.897 87.79 289.088 87.2871C289.278 86.7793 289.537 86.3496 289.864 85.998C290.191 85.6465 290.562 85.3804 290.978 85.1997C291.393 85.019 291.822 84.9287 292.267 84.9287C292.833 84.9287 293.321 85.0264 293.731 85.2217C294.146 85.417 294.486 85.6904 294.75 86.042C295.013 86.3887 295.208 86.7988 295.335 87.2725C295.462 87.7412 295.526 88.2539 295.526 88.8105V89.4185H289.608V88.3125H294.171V88.21C294.151 87.8584 294.078 87.5166 293.951 87.1846C293.829 86.8525 293.634 86.5791 293.365 86.3643C293.097 86.1494 292.73 86.042 292.267 86.042C291.959 86.042 291.676 86.1079 291.417 86.2397C291.158 86.3667 290.936 86.5571 290.75 86.811C290.565 87.0649 290.421 87.375 290.318 87.7412C290.216 88.1074 290.165 88.5298 290.165 89.0083V89.3159C290.165 89.6919 290.216 90.0459 290.318 90.3779C290.426 90.7051 290.58 90.9932 290.78 91.2422C290.985 91.4912 291.231 91.6865 291.52 91.8281C291.812 91.9697 292.145 92.0405 292.516 92.0405C292.994 92.0405 293.399 91.9429 293.731 91.7476C294.063 91.5522 294.354 91.291 294.603 90.9639L295.423 91.6157C295.252 91.8745 295.035 92.1211 294.771 92.3555C294.508 92.5898 294.183 92.7803 293.797 92.9268C293.417 93.0732 292.965 93.1465 292.442 93.1465ZM298.463 81.75V93H297.108V81.75H298.463ZM298.141 88.7373L297.577 88.7153C297.582 88.1733 297.662 87.6729 297.818 87.2139C297.975 86.75 298.194 86.3472 298.478 86.0054C298.761 85.6636 299.098 85.3999 299.488 85.2144C299.884 85.0239 300.321 84.9287 300.799 84.9287C301.19 84.9287 301.542 84.9824 301.854 85.0898C302.167 85.1924 302.433 85.3584 302.652 85.5879C302.877 85.8174 303.048 86.1152 303.165 86.4814C303.282 86.8428 303.341 87.2847 303.341 87.8071V93H301.979V87.7925C301.979 87.3774 301.917 87.0454 301.795 86.7964C301.673 86.5425 301.495 86.3594 301.261 86.2471C301.026 86.1299 300.738 86.0713 300.396 86.0713C300.06 86.0713 299.752 86.1421 299.474 86.2837C299.2 86.4253 298.963 86.6206 298.763 86.8696C298.568 87.1187 298.414 87.4043 298.302 87.7266C298.194 88.0439 298.141 88.3809 298.141 88.7373ZM305.011 89.1255V88.957C305.011 88.3857 305.094 87.856 305.26 87.3677C305.426 86.8745 305.665 86.4473 305.978 86.0859C306.29 85.7197 306.668 85.4365 307.113 85.2363C307.557 85.0312 308.055 84.9287 308.607 84.9287C309.164 84.9287 309.664 85.0312 310.108 85.2363C310.558 85.4365 310.938 85.7197 311.251 86.0859C311.568 86.4473 311.81 86.8745 311.976 87.3677C312.142 87.856 312.225 88.3857 312.225 88.957V89.1255C312.225 89.6968 312.142 90.2266 311.976 90.7148C311.81 91.2031 311.568 91.6304 311.251 91.9966C310.938 92.3579 310.56 92.6411 310.116 92.8462C309.676 93.0464 309.178 93.1465 308.622 93.1465C308.065 93.1465 307.564 93.0464 307.12 92.8462C306.676 92.6411 306.295 92.3579 305.978 91.9966C305.665 91.6304 305.426 91.2031 305.26 90.7148C305.094 90.2266 305.011 89.6968 305.011 89.1255ZM306.366 88.957V89.1255C306.366 89.521 306.412 89.8945 306.505 90.2461C306.598 90.5928 306.737 90.9004 306.922 91.1689C307.113 91.4375 307.35 91.6499 307.633 91.8062C307.916 91.9575 308.246 92.0332 308.622 92.0332C308.993 92.0332 309.317 91.9575 309.596 91.8062C309.879 91.6499 310.113 91.4375 310.299 91.1689C310.484 90.9004 310.624 90.5928 310.716 90.2461C310.814 89.8945 310.863 89.521 310.863 89.1255V88.957C310.863 88.5664 310.814 88.1978 310.716 87.8511C310.624 87.4995 310.482 87.1895 310.292 86.9209C310.106 86.6475 309.872 86.4326 309.588 86.2764C309.31 86.1201 308.983 86.042 308.607 86.042C308.236 86.042 307.909 86.1201 307.625 86.2764C307.347 86.4326 307.113 86.6475 306.922 86.9209C306.737 87.1895 306.598 87.4995 306.505 87.8511C306.412 88.1978 306.366 88.5664 306.366 88.957ZM315.396 81.75V93H314.034V81.75H315.396ZM322.567 91.4619V81.75H323.929V93H322.684L322.567 91.4619ZM317.235 89.1255V88.9717C317.235 88.3662 317.308 87.8169 317.455 87.3237C317.606 86.8257 317.818 86.3984 318.092 86.042C318.37 85.6855 318.7 85.4121 319.081 85.2217C319.466 85.0264 319.896 84.9287 320.37 84.9287C320.868 84.9287 321.302 85.0166 321.673 85.1924C322.049 85.3633 322.367 85.6147 322.625 85.9468C322.889 86.2739 323.097 86.6694 323.248 87.1333C323.399 87.5972 323.504 88.1221 323.563 88.708V89.3818C323.509 89.9629 323.404 90.4854 323.248 90.9492C323.097 91.4131 322.889 91.8086 322.625 92.1357C322.367 92.4629 322.049 92.7144 321.673 92.8901C321.297 93.061 320.858 93.1465 320.355 93.1465C319.891 93.1465 319.466 93.0464 319.081 92.8462C318.7 92.646 318.37 92.3652 318.092 92.0039C317.818 91.6426 317.606 91.2178 317.455 90.7295C317.308 90.2363 317.235 89.7017 317.235 89.1255ZM318.597 88.9717V89.1255C318.597 89.521 318.636 89.8921 318.714 90.2388C318.797 90.5854 318.924 90.8906 319.095 91.1543C319.266 91.418 319.483 91.6255 319.747 91.7769C320.011 91.9233 320.326 91.9966 320.692 91.9966C321.141 91.9966 321.51 91.9014 321.798 91.7109C322.091 91.5205 322.325 91.269 322.501 90.9565C322.677 90.644 322.813 90.3047 322.911 89.9385V88.1733C322.853 87.9048 322.767 87.646 322.655 87.397C322.547 87.1431 322.406 86.9185 322.23 86.7231C322.059 86.5229 321.847 86.3643 321.593 86.2471C321.344 86.1299 321.048 86.0713 320.707 86.0713C320.335 86.0713 320.016 86.1494 319.747 86.3057C319.483 86.457 319.266 86.667 319.095 86.9355C318.924 87.1992 318.797 87.5068 318.714 87.8584C318.636 88.2051 318.597 88.5762 318.597 88.9717ZM329.327 93.1465C328.775 93.1465 328.275 93.0537 327.826 92.8682C327.381 92.6777 326.998 92.4116 326.676 92.0698C326.358 91.728 326.114 91.3228 325.943 90.854C325.772 90.3853 325.687 89.8726 325.687 89.3159V89.0083C325.687 88.3638 325.782 87.79 325.973 87.2871C326.163 86.7793 326.422 86.3496 326.749 85.998C327.076 85.6465 327.447 85.3804 327.862 85.1997C328.277 85.019 328.707 84.9287 329.151 84.9287C329.718 84.9287 330.206 85.0264 330.616 85.2217C331.031 85.417 331.371 85.6904 331.634 86.042C331.898 86.3887 332.093 86.7988 332.22 87.2725C332.347 87.7412 332.411 88.2539 332.411 88.8105V89.4185H326.493V88.3125H331.056V88.21C331.036 87.8584 330.963 87.5166 330.836 87.1846C330.714 86.8525 330.519 86.5791 330.25 86.3643C329.981 86.1494 329.615 86.042 329.151 86.042C328.844 86.042 328.561 86.1079 328.302 86.2397C328.043 86.3667 327.821 86.5571 327.635 86.811C327.45 87.0649 327.306 87.375 327.203 87.7412C327.101 88.1074 327.049 88.5298 327.049 89.0083V89.3159C327.049 89.6919 327.101 90.0459 327.203 90.3779C327.311 90.7051 327.464 90.9932 327.665 91.2422C327.87 91.4912 328.116 91.6865 328.404 91.8281C328.697 91.9697 329.029 92.0405 329.4 92.0405C329.879 92.0405 330.284 91.9429 330.616 91.7476C330.948 91.5522 331.239 91.291 331.488 90.9639L332.308 91.6157C332.137 91.8745 331.92 92.1211 331.656 92.3555C331.393 92.5898 331.068 92.7803 330.682 92.9268C330.301 93.0732 329.85 93.1465 329.327 93.1465ZM335.348 86.3203V93H333.993V85.0752H335.311L335.348 86.3203ZM337.823 85.0312L337.816 86.291C337.704 86.2666 337.596 86.252 337.494 86.2471C337.396 86.2373 337.284 86.2324 337.157 86.2324C336.844 86.2324 336.568 86.2812 336.329 86.3789C336.09 86.4766 335.887 86.6133 335.721 86.7891C335.555 86.9648 335.423 87.1748 335.326 87.4189C335.233 87.6582 335.172 87.9219 335.143 88.21L334.762 88.4297C334.762 87.9512 334.808 87.502 334.901 87.082C334.999 86.6621 335.147 86.291 335.348 85.9688C335.548 85.6416 335.802 85.3877 336.109 85.207C336.422 85.0215 336.793 84.9287 337.223 84.9287C337.32 84.9287 337.433 84.9409 337.56 84.9653C337.687 84.9849 337.774 85.0068 337.823 85.0312Z" fill="#737373"/>
<rect x="243.5" y="68.5" width="399" height="39" rx="3.5" stroke="#AAAAAA"/>
<path d="M248.802 143.62C248.802 143.429 248.772 143.26 248.713 143.112C248.658 142.964 248.558 142.828 248.415 142.706C248.271 142.583 248.068 142.464 247.805 142.35C247.547 142.232 247.217 142.111 246.815 141.988C246.375 141.853 245.969 141.703 245.596 141.538C245.228 141.368 244.906 141.174 244.631 140.954C244.356 140.729 244.143 140.473 243.99 140.186C243.838 139.894 243.762 139.557 243.762 139.176C243.762 138.8 243.84 138.457 243.997 138.148C244.157 137.839 244.384 137.572 244.676 137.348C244.972 137.12 245.321 136.944 245.723 136.821C246.125 136.694 246.569 136.631 247.056 136.631C247.742 136.631 248.332 136.758 248.827 137.012C249.326 137.266 249.709 137.606 249.976 138.034C250.247 138.461 250.382 138.933 250.382 139.449H248.802C248.802 139.145 248.736 138.876 248.605 138.643C248.478 138.406 248.283 138.22 248.021 138.084C247.763 137.949 247.435 137.881 247.037 137.881C246.66 137.881 246.347 137.938 246.098 138.053C245.848 138.167 245.662 138.321 245.539 138.516C245.416 138.711 245.355 138.931 245.355 139.176C245.355 139.35 245.395 139.508 245.476 139.652C245.556 139.792 245.679 139.923 245.844 140.046C246.009 140.164 246.216 140.277 246.466 140.382C246.715 140.488 247.01 140.59 247.348 140.687C247.86 140.839 248.307 141.009 248.688 141.195C249.068 141.377 249.386 141.584 249.64 141.817C249.894 142.05 250.084 142.314 250.211 142.61C250.338 142.902 250.401 143.235 250.401 143.607C250.401 143.996 250.323 144.347 250.167 144.661C250.01 144.97 249.786 145.234 249.494 145.454C249.206 145.67 248.859 145.837 248.453 145.956C248.051 146.07 247.602 146.127 247.107 146.127C246.663 146.127 246.225 146.068 245.793 145.949C245.366 145.831 244.976 145.651 244.625 145.41C244.274 145.164 243.994 144.86 243.787 144.496C243.58 144.127 243.476 143.698 243.476 143.207H245.069C245.069 143.507 245.12 143.764 245.222 143.975C245.327 144.187 245.473 144.36 245.66 144.496C245.846 144.627 246.062 144.724 246.307 144.788C246.557 144.851 246.823 144.883 247.107 144.883C247.479 144.883 247.79 144.83 248.04 144.724C248.294 144.618 248.484 144.47 248.611 144.28C248.738 144.089 248.802 143.869 248.802 143.62ZM253.188 140.528V146H251.658V139.132H253.099L253.188 140.528ZM252.94 142.312L252.42 142.306C252.42 141.832 252.479 141.394 252.598 140.992C252.716 140.59 252.89 140.241 253.118 139.944C253.347 139.644 253.63 139.413 253.969 139.252C254.312 139.087 254.707 139.005 255.156 139.005C255.469 139.005 255.755 139.051 256.013 139.145C256.275 139.233 256.501 139.375 256.692 139.57C256.887 139.764 257.035 140.014 257.136 140.319C257.242 140.624 257.295 140.992 257.295 141.423V146H255.765V141.557C255.765 141.222 255.714 140.96 255.613 140.77C255.515 140.579 255.374 140.444 255.188 140.363C255.006 140.279 254.788 140.236 254.534 140.236C254.246 140.236 254 140.291 253.797 140.401C253.598 140.511 253.436 140.662 253.309 140.852C253.182 141.042 253.089 141.263 253.029 141.512C252.97 141.762 252.94 142.028 252.94 142.312ZM257.2 141.906L256.482 142.064C256.482 141.65 256.54 141.258 256.654 140.89C256.772 140.518 256.944 140.192 257.168 139.913C257.396 139.629 257.678 139.407 258.012 139.246C258.347 139.085 258.729 139.005 259.161 139.005C259.512 139.005 259.826 139.054 260.101 139.151C260.38 139.244 260.617 139.392 260.812 139.595C261.006 139.798 261.154 140.063 261.256 140.389C261.357 140.71 261.408 141.1 261.408 141.557V146H259.872V141.55C259.872 141.203 259.821 140.935 259.72 140.744C259.622 140.554 259.483 140.423 259.301 140.351C259.119 140.274 258.901 140.236 258.647 140.236C258.41 140.236 258.201 140.281 258.019 140.37C257.841 140.454 257.691 140.575 257.568 140.731C257.445 140.884 257.352 141.059 257.289 141.258C257.229 141.457 257.2 141.673 257.2 141.906ZM266.854 144.623V141.347C266.854 141.102 266.81 140.89 266.721 140.712C266.632 140.535 266.497 140.397 266.315 140.3C266.137 140.202 265.913 140.154 265.642 140.154C265.392 140.154 265.177 140.196 264.995 140.281C264.813 140.365 264.671 140.48 264.569 140.624C264.468 140.767 264.417 140.93 264.417 141.112H262.894C262.894 140.841 262.959 140.579 263.09 140.325C263.222 140.071 263.412 139.845 263.662 139.646C263.911 139.447 264.21 139.291 264.557 139.176C264.904 139.062 265.293 139.005 265.725 139.005C266.241 139.005 266.698 139.092 267.096 139.265C267.498 139.439 267.813 139.701 268.042 140.052C268.274 140.399 268.391 140.835 268.391 141.36V144.413C268.391 144.726 268.412 145.008 268.454 145.257C268.501 145.503 268.566 145.716 268.651 145.898V146H267.083C267.011 145.835 266.954 145.625 266.912 145.372C266.874 145.113 266.854 144.864 266.854 144.623ZM267.077 141.823L267.089 142.769H265.991C265.708 142.769 265.458 142.797 265.242 142.852C265.026 142.902 264.847 142.979 264.703 143.08C264.559 143.182 264.451 143.304 264.379 143.448C264.307 143.592 264.271 143.755 264.271 143.937C264.271 144.119 264.313 144.286 264.398 144.438C264.483 144.587 264.605 144.703 264.766 144.788C264.931 144.872 265.13 144.915 265.363 144.915C265.676 144.915 265.949 144.851 266.182 144.724C266.419 144.593 266.605 144.434 266.74 144.248C266.876 144.058 266.948 143.878 266.956 143.708L267.451 144.388C267.4 144.561 267.314 144.747 267.191 144.946C267.068 145.145 266.907 145.336 266.708 145.518C266.514 145.695 266.279 145.841 266.004 145.956C265.733 146.07 265.42 146.127 265.064 146.127C264.616 146.127 264.216 146.038 263.865 145.86C263.514 145.678 263.238 145.435 263.04 145.13C262.841 144.821 262.741 144.472 262.741 144.083C262.741 143.719 262.809 143.397 262.944 143.118C263.084 142.835 263.287 142.598 263.554 142.407C263.825 142.217 264.155 142.073 264.544 141.976C264.933 141.874 265.378 141.823 265.877 141.823H267.077ZM271.628 136.25V146H270.092V136.25H271.628ZM274.941 136.25V146H273.405V136.25H274.941Z" fill="#505050"/>
<rect x="243.5" y="156.5" width="399" height="35" rx="3.5" fill="white"/>
<path d="M259.481 174.375H257.012V173.379H259.481C259.96 173.379 260.347 173.303 260.643 173.15C260.939 172.998 261.155 172.786 261.291 172.516C261.43 172.245 261.5 171.936 261.5 171.589C261.5 171.271 261.43 170.973 261.291 170.694C261.155 170.415 260.939 170.19 260.643 170.021C260.347 169.847 259.96 169.761 259.481 169.761H257.298V178H256.073V168.758H259.481C260.18 168.758 260.77 168.878 261.252 169.12C261.735 169.361 262.101 169.695 262.351 170.123C262.6 170.546 262.725 171.03 262.725 171.576C262.725 172.169 262.6 172.674 262.351 173.093C262.101 173.512 261.735 173.832 261.252 174.052C260.77 174.268 260.18 174.375 259.481 174.375ZM265.372 168.25V178H264.191V168.25H265.372ZM271.307 176.826V173.29C271.307 173.019 271.252 172.784 271.142 172.585C271.036 172.382 270.875 172.226 270.66 172.116C270.444 172.006 270.177 171.951 269.86 171.951C269.564 171.951 269.303 172.001 269.079 172.103C268.859 172.205 268.686 172.338 268.559 172.503C268.436 172.668 268.375 172.846 268.375 173.036H267.2C267.2 172.791 267.264 172.547 267.391 172.306C267.518 172.065 267.7 171.847 267.937 171.652C268.178 171.453 268.465 171.297 268.8 171.183C269.138 171.064 269.515 171.005 269.93 171.005C270.429 171.005 270.869 171.09 271.25 171.259C271.635 171.428 271.936 171.684 272.151 172.027C272.371 172.365 272.481 172.791 272.481 173.303V176.502C272.481 176.73 272.5 176.974 272.539 177.232C272.581 177.49 272.642 177.712 272.723 177.898V178H271.498C271.438 177.865 271.392 177.685 271.358 177.46C271.324 177.232 271.307 177.02 271.307 176.826ZM271.51 173.836L271.523 174.661H270.336C270.002 174.661 269.703 174.689 269.441 174.744C269.179 174.794 268.958 174.873 268.781 174.979C268.603 175.084 268.468 175.218 268.375 175.378C268.281 175.535 268.235 175.719 268.235 175.931C268.235 176.146 268.284 176.343 268.381 176.521C268.478 176.699 268.624 176.84 268.819 176.946C269.018 177.048 269.261 177.099 269.549 177.099C269.909 177.099 270.226 177.022 270.501 176.87C270.776 176.718 270.994 176.532 271.155 176.312C271.32 176.091 271.409 175.878 271.421 175.67L271.923 176.235C271.893 176.413 271.813 176.61 271.682 176.826C271.55 177.042 271.375 177.249 271.155 177.448C270.939 177.642 270.681 177.805 270.38 177.937C270.084 178.063 269.75 178.127 269.377 178.127C268.912 178.127 268.504 178.036 268.152 177.854C267.805 177.672 267.535 177.429 267.34 177.124C267.149 176.815 267.054 176.47 267.054 176.089C267.054 175.721 267.126 175.397 267.27 175.118C267.414 174.835 267.621 174.6 267.892 174.414C268.163 174.223 268.489 174.079 268.87 173.982C269.25 173.885 269.676 173.836 270.146 173.836H271.51ZM277.077 177.162C277.356 177.162 277.615 177.105 277.852 176.991C278.089 176.876 278.283 176.72 278.436 176.521C278.588 176.318 278.675 176.087 278.696 175.829H279.813C279.792 176.235 279.654 176.614 279.4 176.965C279.151 177.312 278.823 177.594 278.417 177.81C278.01 178.021 277.564 178.127 277.077 178.127C276.561 178.127 276.11 178.036 275.725 177.854C275.344 177.672 275.027 177.422 274.773 177.105C274.523 176.788 274.335 176.424 274.208 176.013C274.085 175.598 274.024 175.16 274.024 174.699V174.433C274.024 173.971 274.085 173.535 274.208 173.125C274.335 172.71 274.523 172.344 274.773 172.027C275.027 171.709 275.344 171.46 275.725 171.278C276.11 171.096 276.561 171.005 277.077 171.005C277.615 171.005 278.084 171.115 278.486 171.335C278.888 171.551 279.204 171.847 279.432 172.224C279.665 172.596 279.792 173.019 279.813 173.493H278.696C278.675 173.21 278.594 172.954 278.455 172.725C278.319 172.497 278.133 172.315 277.896 172.179C277.663 172.04 277.39 171.97 277.077 171.97C276.717 171.97 276.415 172.042 276.169 172.186C275.928 172.325 275.736 172.516 275.592 172.757C275.452 172.994 275.351 173.258 275.287 173.55C275.228 173.838 275.198 174.132 275.198 174.433V174.699C275.198 175 275.228 175.296 275.287 175.588C275.346 175.88 275.446 176.144 275.585 176.381C275.729 176.618 275.922 176.809 276.163 176.953C276.409 177.092 276.713 177.162 277.077 177.162ZM283.983 178.127C283.505 178.127 283.071 178.047 282.682 177.886C282.297 177.721 281.965 177.49 281.686 177.194C281.41 176.898 281.199 176.546 281.051 176.14C280.903 175.734 280.829 175.29 280.829 174.807V174.541C280.829 173.982 280.911 173.485 281.076 173.049C281.241 172.609 281.465 172.236 281.749 171.932C282.033 171.627 282.354 171.396 282.714 171.24C283.074 171.083 283.446 171.005 283.831 171.005C284.322 171.005 284.745 171.09 285.101 171.259C285.46 171.428 285.754 171.665 285.983 171.97C286.211 172.27 286.381 172.626 286.491 173.036C286.601 173.442 286.656 173.887 286.656 174.369V174.896H281.527V173.938H285.481V173.849C285.465 173.544 285.401 173.248 285.291 172.96C285.185 172.672 285.016 172.435 284.783 172.249C284.55 172.063 284.233 171.97 283.831 171.97C283.564 171.97 283.319 172.027 283.095 172.141C282.87 172.251 282.678 172.416 282.517 172.636C282.356 172.856 282.231 173.125 282.143 173.442C282.054 173.76 282.009 174.126 282.009 174.541V174.807C282.009 175.133 282.054 175.44 282.143 175.728C282.236 176.011 282.369 176.261 282.542 176.477C282.72 176.692 282.934 176.862 283.184 176.984C283.438 177.107 283.725 177.168 284.047 177.168C284.462 177.168 284.813 177.084 285.101 176.915C285.388 176.745 285.64 176.519 285.856 176.235L286.567 176.8C286.419 177.025 286.23 177.238 286.002 177.441C285.773 177.645 285.492 177.81 285.158 177.937C284.828 178.063 284.436 178.127 283.983 178.127ZM289.201 168.25V178H288.027V168.25H289.201ZM288.922 174.306L288.433 174.287C288.437 173.817 288.507 173.383 288.643 172.985C288.778 172.583 288.968 172.234 289.214 171.938C289.459 171.642 289.751 171.413 290.09 171.252C290.433 171.087 290.811 171.005 291.226 171.005C291.565 171.005 291.869 171.051 292.14 171.145C292.411 171.233 292.642 171.377 292.832 171.576C293.027 171.775 293.175 172.033 293.276 172.351C293.378 172.664 293.429 173.047 293.429 173.5V178H292.248V173.487C292.248 173.127 292.195 172.839 292.089 172.624C291.984 172.403 291.829 172.245 291.626 172.147C291.423 172.046 291.173 171.995 290.877 171.995C290.585 171.995 290.318 172.056 290.077 172.179C289.84 172.302 289.635 172.471 289.461 172.687C289.292 172.903 289.159 173.15 289.062 173.43C288.968 173.705 288.922 173.997 288.922 174.306ZM294.876 174.642V174.496C294.876 174.001 294.948 173.542 295.092 173.119C295.236 172.691 295.443 172.321 295.714 172.008C295.985 171.69 296.313 171.445 296.698 171.271C297.083 171.094 297.514 171.005 297.993 171.005C298.475 171.005 298.909 171.094 299.294 171.271C299.683 171.445 300.013 171.69 300.284 172.008C300.559 172.321 300.769 172.691 300.913 173.119C301.056 173.542 301.128 174.001 301.128 174.496V174.642C301.128 175.137 301.056 175.596 300.913 176.02C300.769 176.443 300.559 176.813 300.284 177.13C300.013 177.444 299.685 177.689 299.3 177.867C298.919 178.04 298.488 178.127 298.005 178.127C297.523 178.127 297.089 178.04 296.704 177.867C296.319 177.689 295.989 177.444 295.714 177.13C295.443 176.813 295.236 176.443 295.092 176.02C294.948 175.596 294.876 175.137 294.876 174.642ZM296.05 174.496V174.642C296.05 174.985 296.09 175.309 296.171 175.613C296.251 175.914 296.372 176.18 296.533 176.413C296.698 176.646 296.903 176.83 297.148 176.965C297.394 177.097 297.68 177.162 298.005 177.162C298.327 177.162 298.608 177.097 298.85 176.965C299.095 176.83 299.298 176.646 299.459 176.413C299.62 176.18 299.74 175.914 299.821 175.613C299.905 175.309 299.948 174.985 299.948 174.642V174.496C299.948 174.158 299.905 173.838 299.821 173.538C299.74 173.233 299.618 172.964 299.453 172.731C299.292 172.494 299.089 172.308 298.843 172.173C298.602 172.037 298.319 171.97 297.993 171.97C297.671 171.97 297.388 172.037 297.142 172.173C296.901 172.308 296.698 172.494 296.533 172.731C296.372 172.964 296.251 173.233 296.171 173.538C296.09 173.838 296.05 174.158 296.05 174.496ZM303.877 168.25V178H302.696V168.25H303.877ZM310.091 176.667V168.25H311.272V178H310.193L310.091 176.667ZM305.47 174.642V174.509C305.47 173.984 305.534 173.508 305.661 173.081C305.792 172.649 305.976 172.279 306.213 171.97C306.454 171.661 306.74 171.424 307.07 171.259C307.404 171.09 307.777 171.005 308.187 171.005C308.619 171.005 308.995 171.081 309.317 171.233C309.643 171.382 309.918 171.599 310.142 171.887C310.371 172.171 310.55 172.514 310.682 172.916C310.813 173.318 310.904 173.772 310.955 174.28V174.864C310.908 175.368 310.817 175.821 310.682 176.223C310.55 176.625 310.371 176.967 310.142 177.251C309.918 177.535 309.643 177.752 309.317 177.905C308.991 178.053 308.61 178.127 308.174 178.127C307.772 178.127 307.404 178.04 307.07 177.867C306.74 177.693 306.454 177.45 306.213 177.137C305.976 176.824 305.792 176.455 305.661 176.032C305.534 175.605 305.47 175.141 305.47 174.642ZM306.651 174.509V174.642C306.651 174.985 306.685 175.306 306.752 175.607C306.824 175.907 306.934 176.172 307.083 176.4C307.231 176.629 307.419 176.809 307.647 176.94C307.876 177.067 308.149 177.13 308.466 177.13C308.856 177.13 309.175 177.048 309.425 176.883C309.679 176.718 309.882 176.5 310.034 176.229C310.187 175.958 310.305 175.664 310.39 175.347V173.817C310.339 173.584 310.265 173.36 310.167 173.144C310.074 172.924 309.952 172.729 309.799 172.56C309.651 172.387 309.467 172.249 309.247 172.147C309.031 172.046 308.775 171.995 308.479 171.995C308.157 171.995 307.88 172.063 307.647 172.198C307.419 172.329 307.231 172.511 307.083 172.744C306.934 172.973 306.824 173.239 306.752 173.544C306.685 173.844 306.651 174.166 306.651 174.509ZM315.95 178.127C315.472 178.127 315.038 178.047 314.649 177.886C314.264 177.721 313.932 177.49 313.652 177.194C313.377 176.898 313.166 176.546 313.018 176.14C312.869 175.734 312.795 175.29 312.795 174.807V174.541C312.795 173.982 312.878 173.485 313.043 173.049C313.208 172.609 313.432 172.236 313.716 171.932C313.999 171.627 314.321 171.396 314.681 171.24C315.04 171.083 315.413 171.005 315.798 171.005C316.289 171.005 316.712 171.09 317.067 171.259C317.427 171.428 317.721 171.665 317.95 171.97C318.178 172.27 318.347 172.626 318.458 173.036C318.568 173.442 318.623 173.887 318.623 174.369V174.896H313.494V173.938H317.448V173.849C317.431 173.544 317.368 173.248 317.258 172.96C317.152 172.672 316.983 172.435 316.75 172.249C316.517 172.063 316.2 171.97 315.798 171.97C315.531 171.97 315.286 172.027 315.062 172.141C314.837 172.251 314.645 172.416 314.484 172.636C314.323 172.856 314.198 173.125 314.109 173.442C314.021 173.76 313.976 174.126 313.976 174.541V174.807C313.976 175.133 314.021 175.44 314.109 175.728C314.202 176.011 314.336 176.261 314.509 176.477C314.687 176.692 314.901 176.862 315.15 176.984C315.404 177.107 315.692 177.168 316.014 177.168C316.428 177.168 316.78 177.084 317.067 176.915C317.355 176.745 317.607 176.519 317.823 176.235L318.534 176.8C318.386 177.025 318.197 177.238 317.969 177.441C317.74 177.645 317.459 177.81 317.125 177.937C316.794 178.063 316.403 178.127 315.95 178.127ZM321.168 172.211V178H319.994V171.132H321.136L321.168 172.211ZM323.313 171.094L323.307 172.186C323.21 172.164 323.117 172.152 323.028 172.147C322.943 172.139 322.846 172.135 322.736 172.135C322.465 172.135 322.226 172.177 322.019 172.262C321.811 172.346 321.636 172.465 321.492 172.617C321.348 172.77 321.234 172.951 321.149 173.163C321.069 173.37 321.016 173.599 320.99 173.849L320.66 174.039C320.66 173.624 320.7 173.235 320.781 172.871C320.865 172.507 320.994 172.186 321.168 171.906C321.341 171.623 321.562 171.403 321.828 171.246C322.099 171.085 322.421 171.005 322.793 171.005C322.878 171.005 322.975 171.015 323.085 171.037C323.195 171.054 323.271 171.073 323.313 171.094Z" fill="#737373"/>
<rect x="243.5" y="156.5" width="399" height="35" rx="3.5" stroke="#AAAAAA"/>
</svg>
