<svg width="800" height="265" viewBox="0 0 800 265" fill="none" xmlns="http://www.w3.org/2000/svg">
<rect x="0.5" y="0.5" width="799" height="264" rx="7.5" fill="white"/>
<path d="M233.764 107.542V109H228.41V107.542H233.764ZM228.922 98.3359V109H227.084V98.3359H228.922ZM234.672 105.125V104.957C234.672 104.386 234.755 103.856 234.921 103.368C235.087 102.875 235.326 102.447 235.639 102.086C235.956 101.72 236.342 101.437 236.796 101.236C237.255 101.031 237.772 100.929 238.349 100.929C238.93 100.929 239.447 101.031 239.901 101.236C240.36 101.437 240.749 101.72 241.066 102.086C241.383 102.447 241.625 102.875 241.791 103.368C241.957 103.856 242.04 104.386 242.04 104.957V105.125C242.04 105.697 241.957 106.227 241.791 106.715C241.625 107.203 241.383 107.63 241.066 107.997C240.749 108.358 240.363 108.641 239.909 108.846C239.455 109.046 238.939 109.146 238.363 109.146C237.782 109.146 237.262 109.046 236.803 108.846C236.349 108.641 235.963 108.358 235.646 107.997C235.329 107.63 235.087 107.203 234.921 106.715C234.755 106.227 234.672 105.697 234.672 105.125ZM236.437 104.957V105.125C236.437 105.482 236.474 105.819 236.547 106.136C236.62 106.454 236.735 106.732 236.891 106.971C237.047 107.21 237.248 107.398 237.492 107.535C237.736 107.672 238.026 107.74 238.363 107.74C238.69 107.74 238.974 107.672 239.213 107.535C239.457 107.398 239.657 107.21 239.813 106.971C239.97 106.732 240.084 106.454 240.158 106.136C240.236 105.819 240.275 105.482 240.275 105.125V104.957C240.275 104.605 240.236 104.273 240.158 103.961C240.084 103.644 239.967 103.363 239.806 103.119C239.65 102.875 239.45 102.684 239.206 102.547C238.966 102.406 238.681 102.335 238.349 102.335C238.017 102.335 237.729 102.406 237.484 102.547C237.245 102.684 237.047 102.875 236.891 103.119C236.735 103.363 236.62 103.644 236.547 103.961C236.474 104.273 236.437 104.605 236.437 104.957ZM247.987 107.411V103.631C247.987 103.348 247.936 103.104 247.833 102.899C247.731 102.694 247.575 102.535 247.365 102.423C247.16 102.311 246.901 102.254 246.588 102.254C246.3 102.254 246.051 102.303 245.841 102.401C245.631 102.499 245.468 102.63 245.351 102.796C245.233 102.962 245.175 103.15 245.175 103.36H243.417C243.417 103.048 243.493 102.745 243.644 102.452C243.795 102.159 244.015 101.898 244.303 101.668C244.591 101.439 244.936 101.258 245.336 101.126C245.736 100.995 246.186 100.929 246.684 100.929C247.279 100.929 247.807 101.029 248.266 101.229C248.729 101.429 249.093 101.732 249.357 102.137C249.625 102.538 249.76 103.041 249.76 103.646V107.169C249.76 107.53 249.784 107.855 249.833 108.143C249.887 108.426 249.962 108.673 250.06 108.883V109H248.251C248.168 108.81 248.102 108.568 248.053 108.275C248.009 107.977 247.987 107.689 247.987 107.411ZM248.244 104.181L248.258 105.272H246.991C246.664 105.272 246.376 105.304 246.127 105.367C245.878 105.426 245.67 105.514 245.504 105.631C245.338 105.748 245.214 105.89 245.131 106.056C245.048 106.222 245.006 106.41 245.006 106.62C245.006 106.83 245.055 107.022 245.153 107.198C245.25 107.369 245.392 107.503 245.578 107.601C245.768 107.699 245.998 107.748 246.266 107.748C246.627 107.748 246.942 107.674 247.211 107.528C247.484 107.376 247.699 107.193 247.855 106.979C248.012 106.759 248.095 106.551 248.104 106.356L248.676 107.14C248.617 107.34 248.517 107.555 248.375 107.784C248.234 108.014 248.048 108.233 247.819 108.443C247.594 108.648 247.323 108.817 247.006 108.949C246.693 109.081 246.332 109.146 245.922 109.146C245.404 109.146 244.943 109.044 244.538 108.839C244.132 108.629 243.815 108.348 243.585 107.997C243.356 107.64 243.241 107.237 243.241 106.788C243.241 106.368 243.319 105.997 243.476 105.675C243.637 105.348 243.871 105.074 244.179 104.854C244.491 104.635 244.872 104.469 245.321 104.356C245.771 104.239 246.283 104.181 246.859 104.181H248.244ZM256.439 107.359V97.75H258.212V109H256.608L256.439 107.359ZM251.283 105.125V104.972C251.283 104.371 251.354 103.824 251.496 103.331C251.637 102.833 251.842 102.406 252.111 102.049C252.379 101.688 252.707 101.412 253.092 101.222C253.478 101.026 253.913 100.929 254.396 100.929C254.875 100.929 255.294 101.021 255.656 101.207C256.017 101.393 256.325 101.659 256.579 102.005C256.833 102.347 257.035 102.757 257.187 103.236C257.338 103.709 257.445 104.237 257.509 104.818V105.309C257.445 105.875 257.338 106.393 257.187 106.861C257.035 107.33 256.833 107.735 256.579 108.077C256.325 108.419 256.015 108.683 255.648 108.868C255.287 109.054 254.865 109.146 254.381 109.146C253.903 109.146 253.471 109.046 253.085 108.846C252.704 108.646 252.379 108.365 252.111 108.004C251.842 107.643 251.637 107.218 251.496 106.729C251.354 106.236 251.283 105.702 251.283 105.125ZM253.048 104.972V105.125C253.048 105.487 253.08 105.824 253.144 106.136C253.212 106.449 253.317 106.725 253.458 106.964C253.6 107.198 253.783 107.384 254.008 107.521C254.237 107.652 254.511 107.718 254.828 107.718C255.229 107.718 255.558 107.63 255.817 107.455C256.076 107.279 256.278 107.042 256.425 106.744C256.576 106.441 256.679 106.104 256.732 105.733V104.408C256.703 104.12 256.642 103.851 256.549 103.602C256.461 103.353 256.342 103.136 256.19 102.95C256.039 102.76 255.851 102.613 255.626 102.511C255.407 102.403 255.146 102.35 254.843 102.35C254.521 102.35 254.247 102.418 254.022 102.555C253.798 102.691 253.612 102.879 253.466 103.119C253.324 103.358 253.219 103.636 253.151 103.954C253.083 104.271 253.048 104.61 253.048 104.972ZM261.947 101.075V109H260.175V101.075H261.947ZM260.058 98.9951C260.058 98.7266 260.146 98.5044 260.321 98.3286C260.502 98.1479 260.751 98.0576 261.068 98.0576C261.381 98.0576 261.627 98.1479 261.808 98.3286C261.989 98.5044 262.079 98.7266 262.079 98.9951C262.079 99.2588 261.989 99.4785 261.808 99.6543C261.627 99.8301 261.381 99.918 261.068 99.918C260.751 99.918 260.502 99.8301 260.321 99.6543C260.146 99.4785 260.058 99.2588 260.058 98.9951ZM265.631 102.767V109H263.866V101.075H265.529L265.631 102.767ZM265.316 104.745L264.745 104.737C264.75 104.176 264.828 103.661 264.979 103.192C265.136 102.723 265.351 102.32 265.624 101.983C265.902 101.646 266.234 101.388 266.62 101.207C267.006 101.021 267.436 100.929 267.909 100.929C268.29 100.929 268.634 100.982 268.942 101.09C269.254 101.192 269.521 101.361 269.74 101.595C269.965 101.83 270.136 102.135 270.253 102.511C270.37 102.882 270.429 103.338 270.429 103.88V109H268.656V103.873C268.656 103.492 268.6 103.192 268.488 102.972C268.38 102.748 268.222 102.589 268.012 102.496C267.807 102.398 267.55 102.35 267.243 102.35C266.94 102.35 266.669 102.413 266.43 102.54C266.19 102.667 265.988 102.84 265.822 103.06C265.661 103.28 265.536 103.534 265.448 103.822C265.36 104.11 265.316 104.417 265.316 104.745ZM277.306 101.075H278.91V108.78C278.91 109.493 278.759 110.099 278.456 110.597C278.153 111.095 277.731 111.473 277.189 111.732C276.647 111.996 276.02 112.127 275.307 112.127C275.004 112.127 274.667 112.083 274.296 111.996C273.93 111.908 273.573 111.766 273.227 111.571C272.885 111.38 272.599 111.129 272.37 110.816L273.197 109.776C273.48 110.113 273.793 110.36 274.135 110.516C274.477 110.672 274.835 110.75 275.211 110.75C275.617 110.75 275.961 110.675 276.244 110.523C276.532 110.377 276.754 110.16 276.911 109.872C277.067 109.583 277.145 109.232 277.145 108.817V102.87L277.306 101.075ZM271.923 105.125V104.972C271.923 104.371 271.996 103.824 272.143 103.331C272.289 102.833 272.499 102.406 272.772 102.049C273.046 101.688 273.378 101.412 273.769 101.222C274.159 101.026 274.601 100.929 275.094 100.929C275.607 100.929 276.044 101.021 276.405 101.207C276.771 101.393 277.077 101.659 277.321 102.005C277.565 102.347 277.755 102.757 277.892 103.236C278.034 103.709 278.139 104.237 278.207 104.818V105.309C278.144 105.875 278.036 106.393 277.885 106.861C277.733 107.33 277.533 107.735 277.284 108.077C277.035 108.419 276.728 108.683 276.361 108.868C276 109.054 275.573 109.146 275.08 109.146C274.596 109.146 274.159 109.046 273.769 108.846C273.383 108.646 273.051 108.365 272.772 108.004C272.499 107.643 272.289 107.218 272.143 106.729C271.996 106.236 271.923 105.702 271.923 105.125ZM273.688 104.972V105.125C273.688 105.487 273.722 105.824 273.791 106.136C273.864 106.449 273.974 106.725 274.12 106.964C274.271 107.198 274.462 107.384 274.691 107.521C274.926 107.652 275.202 107.718 275.519 107.718C275.934 107.718 276.273 107.63 276.537 107.455C276.806 107.279 277.011 107.042 277.152 106.744C277.299 106.441 277.401 106.104 277.46 105.733V104.408C277.431 104.12 277.37 103.851 277.277 103.602C277.189 103.353 277.069 103.136 276.918 102.95C276.767 102.76 276.576 102.613 276.347 102.511C276.117 102.403 275.846 102.35 275.534 102.35C275.216 102.35 274.94 102.418 274.706 102.555C274.472 102.691 274.279 102.879 274.127 103.119C273.981 103.358 273.871 103.636 273.798 103.954C273.725 104.271 273.688 104.61 273.688 104.972ZM287.75 109H285.473L285.487 107.542H287.75C288.41 107.542 288.961 107.398 289.406 107.11C289.855 106.822 290.192 106.41 290.417 105.873C290.646 105.335 290.761 104.696 290.761 103.954V103.375C290.761 102.799 290.695 102.289 290.563 101.844C290.436 101.4 290.246 101.026 289.992 100.724C289.743 100.421 289.435 100.191 289.069 100.035C288.708 99.8789 288.29 99.8008 287.816 99.8008H285.429V98.3359H287.816C288.524 98.3359 289.171 98.4556 289.757 98.6948C290.343 98.9292 290.849 99.2686 291.273 99.7129C291.703 100.157 292.033 100.689 292.262 101.31C292.492 101.93 292.606 102.623 292.606 103.39V103.954C292.606 104.72 292.492 105.414 292.262 106.034C292.033 106.654 291.703 107.186 291.273 107.63C290.844 108.07 290.331 108.409 289.735 108.648C289.145 108.883 288.483 109 287.75 109ZM286.491 98.3359V109H284.652V98.3359H286.491ZM298.744 107.411V103.631C298.744 103.348 298.693 103.104 298.59 102.899C298.488 102.694 298.332 102.535 298.122 102.423C297.917 102.311 297.658 102.254 297.345 102.254C297.057 102.254 296.808 102.303 296.598 102.401C296.388 102.499 296.225 102.63 296.107 102.796C295.99 102.962 295.932 103.15 295.932 103.36H294.174C294.174 103.048 294.25 102.745 294.401 102.452C294.552 102.159 294.772 101.898 295.06 101.668C295.348 101.439 295.692 101.258 296.093 101.126C296.493 100.995 296.942 100.929 297.44 100.929C298.036 100.929 298.563 101.029 299.022 101.229C299.486 101.429 299.85 101.732 300.114 102.137C300.382 102.538 300.517 103.041 300.517 103.646V107.169C300.517 107.53 300.541 107.855 300.59 108.143C300.644 108.426 300.719 108.673 300.817 108.883V109H299.008C298.925 108.81 298.859 108.568 298.81 108.275C298.766 107.977 298.744 107.689 298.744 107.411ZM299 104.181L299.015 105.272H297.748C297.421 105.272 297.133 105.304 296.884 105.367C296.635 105.426 296.427 105.514 296.261 105.631C296.095 105.748 295.971 105.89 295.888 106.056C295.805 106.222 295.763 106.41 295.763 106.62C295.763 106.83 295.812 107.022 295.91 107.198C296.007 107.369 296.149 107.503 296.334 107.601C296.525 107.699 296.754 107.748 297.023 107.748C297.384 107.748 297.699 107.674 297.968 107.528C298.241 107.376 298.456 107.193 298.612 106.979C298.769 106.759 298.852 106.551 298.861 106.356L299.433 107.14C299.374 107.34 299.274 107.555 299.132 107.784C298.991 108.014 298.805 108.233 298.576 108.443C298.351 108.648 298.08 108.817 297.763 108.949C297.45 109.081 297.089 109.146 296.679 109.146C296.161 109.146 295.7 109.044 295.294 108.839C294.889 108.629 294.572 108.348 294.342 107.997C294.113 107.64 293.998 107.237 293.998 106.788C293.998 106.368 294.076 105.997 294.232 105.675C294.394 105.348 294.628 105.074 294.936 104.854C295.248 104.635 295.629 104.469 296.078 104.356C296.527 104.239 297.04 104.181 297.616 104.181H299ZM305.995 101.075V102.364H301.527V101.075H305.995ZM302.816 99.1343H304.582V106.81C304.582 107.054 304.616 107.242 304.684 107.374C304.757 107.501 304.857 107.586 304.984 107.63C305.111 107.674 305.26 107.696 305.431 107.696C305.553 107.696 305.67 107.689 305.783 107.674C305.895 107.66 305.985 107.645 306.054 107.63L306.061 108.978C305.915 109.022 305.744 109.061 305.548 109.095C305.358 109.129 305.138 109.146 304.889 109.146C304.484 109.146 304.125 109.076 303.812 108.934C303.5 108.788 303.256 108.551 303.08 108.224C302.904 107.896 302.816 107.462 302.816 106.92V99.1343ZM311.825 107.411V103.631C311.825 103.348 311.774 103.104 311.671 102.899C311.569 102.694 311.413 102.535 311.203 102.423C310.998 102.311 310.739 102.254 310.426 102.254C310.138 102.254 309.889 102.303 309.679 102.401C309.469 102.499 309.306 102.63 309.188 102.796C309.071 102.962 309.013 103.15 309.013 103.36H307.255C307.255 103.048 307.331 102.745 307.482 102.452C307.633 102.159 307.853 101.898 308.141 101.668C308.429 101.439 308.773 101.258 309.174 101.126C309.574 100.995 310.023 100.929 310.521 100.929C311.117 100.929 311.645 101.029 312.104 101.229C312.567 101.429 312.931 101.732 313.195 102.137C313.463 102.538 313.598 103.041 313.598 103.646V107.169C313.598 107.53 313.622 107.855 313.671 108.143C313.725 108.426 313.8 108.673 313.898 108.883V109H312.089C312.006 108.81 311.94 108.568 311.891 108.275C311.847 107.977 311.825 107.689 311.825 107.411ZM312.082 104.181L312.096 105.272H310.829C310.502 105.272 310.214 105.304 309.965 105.367C309.716 105.426 309.508 105.514 309.342 105.631C309.176 105.748 309.052 105.89 308.969 106.056C308.886 106.222 308.844 106.41 308.844 106.62C308.844 106.83 308.893 107.022 308.991 107.198C309.088 107.369 309.23 107.503 309.416 107.601C309.606 107.699 309.835 107.748 310.104 107.748C310.465 107.748 310.78 107.674 311.049 107.528C311.322 107.376 311.537 107.193 311.693 106.979C311.85 106.759 311.933 106.551 311.942 106.356L312.514 107.14C312.455 107.34 312.355 107.555 312.213 107.784C312.072 108.014 311.886 108.233 311.657 108.443C311.432 108.648 311.161 108.817 310.844 108.949C310.531 109.081 310.17 109.146 309.76 109.146C309.242 109.146 308.781 109.044 308.375 108.839C307.97 108.629 307.653 108.348 307.423 107.997C307.194 107.64 307.079 107.237 307.079 106.788C307.079 106.368 307.157 105.997 307.313 105.675C307.475 105.348 307.709 105.074 308.017 104.854C308.329 104.635 308.71 104.469 309.159 104.356C309.608 104.239 310.121 104.181 310.697 104.181H312.082ZM315.517 108.121C315.517 107.848 315.609 107.618 315.795 107.433C315.98 107.242 316.232 107.147 316.549 107.147C316.872 107.147 317.123 107.242 317.304 107.433C317.489 107.618 317.582 107.848 317.582 108.121C317.582 108.395 317.489 108.624 317.304 108.81C317.123 108.995 316.872 109.088 316.549 109.088C316.232 109.088 315.98 108.995 315.795 108.81C315.609 108.624 315.517 108.395 315.517 108.121ZM319.691 108.121C319.691 107.848 319.784 107.618 319.97 107.433C320.155 107.242 320.407 107.147 320.724 107.147C321.046 107.147 321.298 107.242 321.479 107.433C321.664 107.618 321.757 107.848 321.757 108.121C321.757 108.395 321.664 108.624 321.479 108.81C321.298 108.995 321.046 109.088 320.724 109.088C320.407 109.088 320.155 108.995 319.97 108.81C319.784 108.624 319.691 108.395 319.691 108.121ZM323.866 108.121C323.866 107.848 323.959 107.618 324.145 107.433C324.33 107.242 324.582 107.147 324.899 107.147C325.221 107.147 325.473 107.242 325.653 107.433C325.839 107.618 325.932 107.848 325.932 108.121C325.932 108.395 325.839 108.624 325.653 108.81C325.473 108.995 325.221 109.088 324.899 109.088C324.582 109.088 324.33 108.995 324.145 108.81C323.959 108.624 323.866 108.395 323.866 108.121Z" fill="#1A1A1A"/>
<path d="M597.018 103.924L595.934 103.646L596.469 98.3359H601.94V99.5884H597.619L597.296 102.489C597.492 102.376 597.738 102.271 598.036 102.174C598.339 102.076 598.686 102.027 599.076 102.027C599.569 102.027 600.011 102.113 600.402 102.284C600.792 102.45 601.125 102.689 601.398 103.001C601.676 103.314 601.889 103.69 602.035 104.129C602.182 104.569 602.255 105.06 602.255 105.602C602.255 106.114 602.184 106.585 602.042 107.015C601.906 107.445 601.698 107.821 601.42 108.143C601.142 108.46 600.79 108.707 600.365 108.883C599.945 109.059 599.45 109.146 598.878 109.146C598.449 109.146 598.041 109.088 597.655 108.971C597.274 108.849 596.933 108.666 596.63 108.421C596.332 108.172 596.088 107.865 595.897 107.499C595.712 107.127 595.595 106.693 595.546 106.195H596.835C596.894 106.595 597.011 106.932 597.187 107.206C597.362 107.479 597.592 107.687 597.875 107.828C598.163 107.965 598.498 108.033 598.878 108.033C599.201 108.033 599.486 107.977 599.735 107.865C599.984 107.752 600.194 107.591 600.365 107.381C600.536 107.171 600.666 106.917 600.753 106.62C600.846 106.322 600.893 105.987 600.893 105.616C600.893 105.279 600.846 104.967 600.753 104.679C600.661 104.391 600.521 104.139 600.336 103.924C600.155 103.709 599.933 103.543 599.669 103.426C599.406 103.304 599.103 103.243 598.761 103.243C598.307 103.243 597.963 103.304 597.729 103.426C597.499 103.548 597.262 103.714 597.018 103.924ZM610.436 102.818V104.444C610.436 105.318 610.358 106.056 610.202 106.656C610.045 107.257 609.821 107.74 609.528 108.106C609.235 108.473 608.881 108.739 608.466 108.905C608.056 109.066 607.592 109.146 607.074 109.146C606.664 109.146 606.286 109.095 605.939 108.993C605.592 108.89 605.28 108.727 605.001 108.502C604.728 108.272 604.494 107.975 604.298 107.608C604.103 107.242 603.954 106.798 603.852 106.275C603.749 105.753 603.698 105.143 603.698 104.444V102.818C603.698 101.944 603.776 101.212 603.932 100.621C604.093 100.03 604.32 99.5566 604.613 99.2002C604.906 98.8389 605.258 98.5801 605.668 98.4238C606.083 98.2676 606.547 98.1895 607.06 98.1895C607.475 98.1895 607.855 98.2407 608.202 98.3433C608.554 98.4409 608.866 98.5996 609.14 98.8193C609.413 99.0342 609.645 99.3223 609.835 99.6836C610.031 100.04 610.18 100.477 610.282 100.995C610.385 101.512 610.436 102.12 610.436 102.818ZM609.074 104.664V102.591C609.074 102.113 609.044 101.693 608.986 101.332C608.932 100.965 608.852 100.653 608.744 100.394C608.637 100.135 608.5 99.9253 608.334 99.7642C608.173 99.603 607.985 99.4858 607.77 99.4126C607.56 99.3345 607.323 99.2954 607.06 99.2954C606.737 99.2954 606.452 99.3564 606.203 99.4785C605.954 99.5957 605.744 99.7837 605.573 100.042C605.407 100.301 605.28 100.641 605.192 101.061C605.104 101.48 605.06 101.991 605.06 102.591V104.664C605.06 105.143 605.087 105.565 605.141 105.931C605.199 106.297 605.285 106.615 605.397 106.883C605.509 107.147 605.646 107.364 605.807 107.535C605.968 107.706 606.154 107.833 606.364 107.916C606.579 107.994 606.815 108.033 607.074 108.033C607.406 108.033 607.697 107.97 607.946 107.843C608.195 107.716 608.402 107.518 608.568 107.25C608.739 106.976 608.866 106.627 608.949 106.202C609.032 105.772 609.074 105.26 609.074 104.664ZM615.783 100.951V100.387C615.783 99.9814 615.871 99.6128 616.046 99.2808C616.222 98.9487 616.474 98.6826 616.801 98.4824C617.128 98.2822 617.516 98.1821 617.965 98.1821C618.424 98.1821 618.815 98.2822 619.137 98.4824C619.464 98.6826 619.716 98.9487 619.892 99.2808C620.067 99.6128 620.155 99.9814 620.155 100.387V100.951C620.155 101.346 620.067 101.71 619.892 102.042C619.721 102.374 619.472 102.64 619.145 102.84C618.822 103.041 618.434 103.141 617.98 103.141C617.526 103.141 617.133 103.041 616.801 102.84C616.474 102.64 616.222 102.374 616.046 102.042C615.871 101.71 615.783 101.346 615.783 100.951ZM616.801 100.387V100.951C616.801 101.175 616.842 101.388 616.925 101.588C617.013 101.788 617.145 101.952 617.321 102.079C617.497 102.201 617.716 102.262 617.98 102.262C618.244 102.262 618.461 102.201 618.632 102.079C618.803 101.952 618.93 101.788 619.013 101.588C619.096 101.388 619.137 101.175 619.137 100.951V100.387C619.137 100.157 619.093 99.9424 619.005 99.7422C618.922 99.5371 618.793 99.3735 618.617 99.2515C618.446 99.1245 618.229 99.061 617.965 99.061C617.707 99.061 617.489 99.1245 617.313 99.2515C617.143 99.3735 617.013 99.5371 616.925 99.7422C616.842 99.9424 616.801 100.157 616.801 100.387ZM620.976 106.957V106.385C620.976 105.985 621.063 105.619 621.239 105.287C621.415 104.955 621.667 104.688 621.994 104.488C622.321 104.288 622.709 104.188 623.158 104.188C623.617 104.188 624.008 104.288 624.33 104.488C624.657 104.688 624.909 104.955 625.084 105.287C625.26 105.619 625.348 105.985 625.348 106.385V106.957C625.348 107.357 625.26 107.723 625.084 108.055C624.914 108.387 624.665 108.653 624.337 108.854C624.015 109.054 623.627 109.154 623.173 109.154C622.719 109.154 622.328 109.054 622.001 108.854C621.674 108.653 621.42 108.387 621.239 108.055C621.063 107.723 620.976 107.357 620.976 106.957ZM621.994 106.385V106.957C621.994 107.181 622.035 107.396 622.118 107.601C622.206 107.801 622.338 107.965 622.514 108.092C622.689 108.214 622.909 108.275 623.173 108.275C623.437 108.275 623.654 108.214 623.825 108.092C624 107.965 624.13 107.801 624.213 107.601C624.296 107.401 624.337 107.186 624.337 106.957V106.385C624.337 106.156 624.293 105.941 624.206 105.741C624.123 105.541 623.993 105.379 623.817 105.257C623.646 105.13 623.427 105.067 623.158 105.067C622.899 105.067 622.682 105.13 622.506 105.257C622.335 105.379 622.206 105.541 622.118 105.741C622.035 105.941 621.994 106.156 621.994 106.385ZM623.495 99.8521L618.288 108.187L617.526 107.704L622.733 99.3687L623.495 99.8521Z" fill="#505050"/>
<rect x="226" y="124" width="400" height="4" rx="2" fill="#F2F2F2"/>
<rect x="226" y="124" width="220" height="4" fill="#286EF1"/>
<path d="M410.383 157.528H412.214C412.155 158.227 411.96 158.849 411.628 159.396C411.296 159.938 410.83 160.365 410.229 160.678C409.628 160.99 408.898 161.146 408.039 161.146C407.38 161.146 406.787 161.029 406.259 160.795C405.732 160.556 405.28 160.219 404.904 159.784C404.528 159.345 404.24 158.815 404.04 158.195C403.845 157.575 403.747 156.881 403.747 156.115V155.229C403.747 154.462 403.847 153.769 404.047 153.148C404.252 152.528 404.545 151.999 404.926 151.559C405.307 151.115 405.764 150.775 406.296 150.541C406.833 150.307 407.436 150.189 408.105 150.189C408.955 150.189 409.672 150.346 410.258 150.658C410.844 150.971 411.298 151.403 411.621 151.955C411.948 152.506 412.148 153.139 412.221 153.852H410.39C410.341 153.393 410.234 153 410.068 152.672C409.907 152.345 409.667 152.096 409.35 151.925C409.033 151.75 408.618 151.662 408.105 151.662C407.685 151.662 407.319 151.74 407.006 151.896C406.694 152.052 406.433 152.282 406.223 152.584C406.013 152.887 405.854 153.261 405.747 153.705C405.644 154.145 405.593 154.647 405.593 155.214V156.115C405.593 156.652 405.639 157.14 405.732 157.58C405.83 158.014 405.976 158.388 406.171 158.7C406.372 159.013 406.625 159.254 406.933 159.425C407.241 159.596 407.609 159.682 408.039 159.682C408.562 159.682 408.984 159.599 409.306 159.433C409.633 159.267 409.88 159.025 410.046 158.708C410.217 158.385 410.329 157.992 410.383 157.528ZM418.176 159.411V155.631C418.176 155.348 418.125 155.104 418.022 154.899C417.919 154.694 417.763 154.535 417.553 154.423C417.348 154.311 417.089 154.254 416.777 154.254C416.489 154.254 416.24 154.303 416.03 154.401C415.82 154.499 415.656 154.63 415.539 154.796C415.422 154.962 415.363 155.15 415.363 155.36H413.605C413.605 155.048 413.681 154.745 413.833 154.452C413.984 154.159 414.204 153.898 414.492 153.668C414.78 153.439 415.124 153.258 415.524 153.126C415.925 152.995 416.374 152.929 416.872 152.929C417.468 152.929 417.995 153.029 418.454 153.229C418.918 153.429 419.282 153.732 419.545 154.137C419.814 154.538 419.948 155.041 419.948 155.646V159.169C419.948 159.53 419.973 159.855 420.021 160.143C420.075 160.426 420.151 160.673 420.249 160.883V161H418.439C418.356 160.81 418.291 160.568 418.242 160.275C418.198 159.977 418.176 159.689 418.176 159.411ZM418.432 156.181L418.447 157.272H417.18C416.853 157.272 416.564 157.304 416.315 157.367C416.066 157.426 415.859 157.514 415.693 157.631C415.527 157.748 415.402 157.89 415.319 158.056C415.236 158.222 415.195 158.41 415.195 158.62C415.195 158.83 415.244 159.022 415.341 159.198C415.439 159.369 415.581 159.503 415.766 159.601C415.957 159.699 416.186 159.748 416.455 159.748C416.816 159.748 417.131 159.674 417.399 159.528C417.673 159.376 417.888 159.193 418.044 158.979C418.2 158.759 418.283 158.551 418.293 158.356L418.864 159.14C418.806 159.34 418.706 159.555 418.564 159.784C418.422 160.014 418.237 160.233 418.007 160.443C417.783 160.648 417.512 160.817 417.194 160.949C416.882 161.081 416.521 161.146 416.11 161.146C415.593 161.146 415.131 161.044 414.726 160.839C414.321 160.629 414.003 160.348 413.774 159.997C413.544 159.64 413.43 159.237 413.43 158.788C413.43 158.368 413.508 157.997 413.664 157.675C413.825 157.348 414.06 157.074 414.367 156.854C414.68 156.635 415.061 156.469 415.51 156.356C415.959 156.239 416.472 156.181 417.048 156.181H418.432ZM423.544 154.767V161H421.779V153.075H423.442L423.544 154.767ZM423.229 156.745L422.658 156.737C422.663 156.176 422.741 155.661 422.893 155.192C423.049 154.723 423.264 154.32 423.537 153.983C423.815 153.646 424.147 153.388 424.533 153.207C424.919 153.021 425.349 152.929 425.822 152.929C426.203 152.929 426.547 152.982 426.855 153.09C427.167 153.192 427.434 153.361 427.653 153.595C427.878 153.83 428.049 154.135 428.166 154.511C428.283 154.882 428.342 155.338 428.342 155.88V161H426.569V155.873C426.569 155.492 426.513 155.192 426.401 154.972C426.293 154.748 426.135 154.589 425.925 154.496C425.72 154.398 425.463 154.35 425.156 154.35C424.853 154.35 424.582 154.413 424.343 154.54C424.104 154.667 423.901 154.84 423.735 155.06C423.574 155.28 423.449 155.534 423.361 155.822C423.273 156.11 423.229 156.417 423.229 156.745ZM433.381 159.74C433.669 159.74 433.928 159.684 434.157 159.572C434.392 159.455 434.58 159.293 434.721 159.088C434.868 158.883 434.948 158.646 434.963 158.378H436.625C436.616 158.891 436.464 159.357 436.171 159.777C435.878 160.197 435.49 160.531 435.007 160.78C434.523 161.024 433.989 161.146 433.403 161.146C432.797 161.146 432.27 161.044 431.821 160.839C431.372 160.629 430.998 160.341 430.7 159.975C430.402 159.608 430.178 159.186 430.026 158.708C429.88 158.229 429.807 157.716 429.807 157.169V156.913C429.807 156.366 429.88 155.854 430.026 155.375C430.178 154.892 430.402 154.467 430.7 154.101C430.998 153.734 431.372 153.449 431.821 153.244C432.27 153.034 432.795 152.929 433.396 152.929C434.03 152.929 434.587 153.056 435.065 153.31C435.544 153.559 435.92 153.908 436.193 154.357C436.472 154.801 436.616 155.319 436.625 155.91H434.963C434.948 155.617 434.875 155.353 434.743 155.119C434.616 154.879 434.436 154.689 434.201 154.547C433.972 154.406 433.696 154.335 433.374 154.335C433.017 154.335 432.722 154.408 432.487 154.555C432.253 154.696 432.07 154.892 431.938 155.141C431.806 155.385 431.711 155.661 431.652 155.968C431.599 156.271 431.572 156.586 431.572 156.913V157.169C431.572 157.497 431.599 157.814 431.652 158.122C431.706 158.429 431.799 158.705 431.931 158.949C432.067 159.188 432.253 159.381 432.487 159.528C432.722 159.669 433.02 159.74 433.381 159.74ZM441.474 161.146C440.888 161.146 440.358 161.051 439.885 160.861C439.416 160.666 439.016 160.395 438.684 160.048C438.356 159.701 438.105 159.293 437.929 158.825C437.753 158.356 437.666 157.851 437.666 157.309V157.016C437.666 156.396 437.756 155.834 437.937 155.331C438.117 154.828 438.369 154.398 438.691 154.042C439.013 153.681 439.394 153.405 439.833 153.214C440.273 153.024 440.749 152.929 441.262 152.929C441.828 152.929 442.324 153.024 442.749 153.214C443.173 153.405 443.525 153.673 443.803 154.02C444.086 154.362 444.296 154.77 444.433 155.243C444.575 155.717 444.646 156.239 444.646 156.811V157.565H438.522V156.298H442.902V156.159C442.893 155.841 442.829 155.543 442.712 155.265C442.6 154.987 442.426 154.762 442.192 154.591C441.958 154.42 441.645 154.335 441.254 154.335C440.961 154.335 440.7 154.398 440.471 154.525C440.246 154.647 440.058 154.826 439.907 155.06C439.755 155.294 439.638 155.578 439.555 155.91C439.477 156.237 439.438 156.605 439.438 157.016V157.309C439.438 157.655 439.484 157.978 439.577 158.275C439.675 158.568 439.816 158.825 440.002 159.044C440.188 159.264 440.412 159.438 440.676 159.564C440.939 159.687 441.24 159.748 441.577 159.748C442.001 159.748 442.38 159.662 442.712 159.491C443.044 159.32 443.332 159.079 443.576 158.766L444.506 159.667C444.335 159.916 444.113 160.155 443.84 160.385C443.566 160.609 443.232 160.792 442.836 160.934C442.446 161.076 441.992 161.146 441.474 161.146ZM447.912 149.75V161H446.14V149.75H447.912Z" fill="#0059FF"/>
<line x1="246.5" y1="68" x2="246.5" y2="88" stroke="#0045C4"/>
<line x1="483.5" y1="100" x2="483.5" y2="120" stroke="#0045C4"/>
<line x1="606.5" y1="68" x2="606.5" y2="88" stroke="#0045C4"/>
<line x1="426.5" y1="177" x2="426.5" y2="197" stroke="#0045C4"/>
<line x1="202" y1="132.5" x2="222" y2="132.5" stroke="#0045C4"/>
<rect x="234" y="40" width="24" height="24" rx="4" fill="#000714"/>
<rect x="471" y="72" width="24" height="24" rx="4" fill="#000714"/>
<rect x="594" y="40" width="24" height="24" rx="4" fill="#000714"/>
<rect x="414" y="201" width="24" height="24" rx="4" fill="#000714"/>
<rect x="174" y="121" width="24" height="24" rx="4" fill="#000714"/>
<path d="M247.271 47.0127V57H245.624V48.9678L243.184 49.7949V48.4346L247.073 47.0127H247.271Z" fill="white"/>
<path d="M481.708 83.2783H482.692C483.075 83.2783 483.392 83.2122 483.643 83.0801C483.898 82.9479 484.087 82.7656 484.21 82.5332C484.333 82.3008 484.395 82.0342 484.395 81.7334C484.395 81.4189 484.338 81.1501 484.224 80.9268C484.114 80.6989 483.946 80.5234 483.718 80.4004C483.494 80.2773 483.21 80.2158 482.863 80.2158C482.572 80.2158 482.307 80.2751 482.07 80.3936C481.838 80.5075 481.653 80.6715 481.517 80.8857C481.38 81.0954 481.312 81.346 481.312 81.6377H479.657C479.657 81.109 479.796 80.6396 480.074 80.2295C480.352 79.8193 480.73 79.498 481.209 79.2656C481.692 79.0286 482.234 78.9102 482.836 78.9102C483.479 78.9102 484.039 79.0173 484.518 79.2314C485.001 79.4411 485.377 79.7555 485.646 80.1748C485.914 80.5941 486.049 81.1136 486.049 81.7334C486.049 82.016 485.983 82.3031 485.851 82.5947C485.718 82.8864 485.522 83.153 485.263 83.3945C485.003 83.6315 484.679 83.8252 484.292 83.9756C483.905 84.1214 483.456 84.1943 482.945 84.1943H481.708V83.2783ZM481.708 84.5635V83.6611H482.945C483.529 83.6611 484.025 83.7295 484.436 83.8662C484.85 84.0029 485.188 84.1921 485.447 84.4336C485.707 84.6706 485.896 84.9417 486.015 85.2471C486.138 85.5524 486.199 85.876 486.199 86.2178C486.199 86.6826 486.115 87.0973 485.946 87.4619C485.782 87.8219 485.548 88.1273 485.242 88.3779C484.937 88.6286 484.579 88.8177 484.169 88.9453C483.763 89.0729 483.321 89.1367 482.843 89.1367C482.414 89.1367 482.004 89.0775 481.612 88.959C481.22 88.8405 480.869 88.665 480.56 88.4326C480.25 88.1956 480.004 87.9017 479.821 87.5508C479.644 87.1953 479.555 86.7852 479.555 86.3203H481.202C481.202 86.6165 481.271 86.8786 481.407 87.1064C481.549 87.3298 481.744 87.5052 481.995 87.6328C482.25 87.7604 482.542 87.8242 482.87 87.8242C483.216 87.8242 483.515 87.7627 483.766 87.6396C484.016 87.5166 484.208 87.3343 484.34 87.0928C484.477 86.8512 484.545 86.5596 484.545 86.2178C484.545 85.8304 484.47 85.516 484.319 85.2744C484.169 85.0329 483.955 84.8551 483.677 84.7412C483.399 84.6227 483.071 84.5635 482.692 84.5635H481.708Z" fill="white"/>
<path d="M609.63 53.4521V54.7646H602.452L602.397 53.7734L606.69 47.0469H608.01L606.581 49.4941L604.113 53.4521H609.63ZM608.386 47.0469V57H606.738V47.0469H608.386Z" fill="white"/>
<path d="M424.503 213.372L423.19 213.051L423.73 208.047H429.097V209.441H425.098L424.824 211.882C424.979 211.791 425.193 211.702 425.467 211.615C425.74 211.524 426.052 211.479 426.403 211.479C426.873 211.479 427.292 211.556 427.661 211.711C428.035 211.861 428.352 212.082 428.611 212.374C428.871 212.661 429.069 213.012 429.206 213.427C429.343 213.837 429.411 214.299 429.411 214.814C429.411 215.275 429.343 215.705 429.206 216.106C429.074 216.507 428.873 216.861 428.604 217.166C428.336 217.471 427.996 217.711 427.586 217.884C427.18 218.052 426.7 218.137 426.144 218.137C425.729 218.137 425.33 218.077 424.947 217.959C424.569 217.836 424.229 217.656 423.929 217.419C423.628 217.177 423.386 216.881 423.204 216.53C423.022 216.175 422.917 215.767 422.89 215.307H424.503C424.544 215.63 424.633 215.906 424.77 216.134C424.911 216.357 425.098 216.528 425.33 216.646C425.562 216.765 425.831 216.824 426.137 216.824C426.415 216.824 426.654 216.776 426.854 216.681C427.055 216.58 427.221 216.439 427.354 216.257C427.49 216.07 427.59 215.851 427.654 215.601C427.723 215.35 427.757 215.072 427.757 214.767C427.757 214.475 427.718 214.208 427.641 213.967C427.568 213.725 427.456 213.516 427.306 213.338C427.16 213.16 426.975 213.023 426.752 212.928C426.529 212.827 426.271 212.777 425.979 212.777C425.588 212.777 425.287 212.834 425.077 212.948C424.872 213.062 424.681 213.203 424.503 213.372Z" fill="white"/>
<path d="M189.445 136.688V138H182.773V136.872L186.014 133.338C186.369 132.937 186.649 132.59 186.854 132.299C187.06 132.007 187.203 131.745 187.285 131.513C187.372 131.276 187.415 131.046 187.415 130.822C187.415 130.508 187.356 130.232 187.237 129.995C187.123 129.754 186.955 129.564 186.731 129.428C186.508 129.286 186.237 129.216 185.918 129.216C185.549 129.216 185.239 129.296 184.988 129.455C184.738 129.615 184.549 129.836 184.421 130.118C184.293 130.396 184.229 130.715 184.229 131.075H182.582C182.582 130.496 182.714 129.968 182.979 129.489C183.243 129.006 183.626 128.623 184.127 128.341C184.628 128.054 185.232 127.91 185.938 127.91C186.604 127.91 187.169 128.022 187.634 128.245C188.099 128.468 188.452 128.785 188.693 129.195C188.939 129.605 189.062 130.091 189.062 130.651C189.062 130.961 189.012 131.269 188.912 131.574C188.812 131.88 188.668 132.185 188.481 132.49C188.299 132.791 188.083 133.094 187.832 133.399C187.581 133.7 187.306 134.006 187.005 134.315L184.852 136.688H189.445Z" fill="white"/>
<rect x="0.5" y="0.5" width="799" height="264" rx="7.5" stroke="#F2F2F2"/>
</svg>
