<svg width="800" height="263" viewBox="0 0 800 263" fill="none" xmlns="http://www.w3.org/2000/svg">
<g clip-path="url(#clip0_2573_45206)">
<rect width="800" height="263" rx="8" fill="#F8F8F8"/>
<rect x="91.5" y="63.5" width="617" height="155" rx="3.5" fill="white"/>
<path d="M118.25 92.625V104H116.289V92.625H118.25ZM122.367 97.3516V104H120.484V95.5469H122.258L122.367 97.3516ZM122.031 99.4609L121.422 99.4531C121.427 98.8542 121.51 98.3047 121.672 97.8047C121.839 97.3047 122.068 96.875 122.359 96.5156C122.656 96.1562 123.01 95.8802 123.422 95.6875C123.833 95.4896 124.292 95.3906 124.797 95.3906C125.203 95.3906 125.57 95.4479 125.898 95.5625C126.232 95.6719 126.516 95.8516 126.75 96.1016C126.99 96.3516 127.172 96.6771 127.297 97.0781C127.422 97.474 127.484 97.9609 127.484 98.5391V104H125.594V98.5312C125.594 98.125 125.534 97.8047 125.414 97.5703C125.299 97.3307 125.13 97.1615 124.906 97.0625C124.688 96.9583 124.414 96.9062 124.086 96.9062C123.763 96.9062 123.474 96.974 123.219 97.1094C122.964 97.2448 122.747 97.4297 122.57 97.6641C122.398 97.8984 122.266 98.1693 122.172 98.4766C122.078 98.7839 122.031 99.112 122.031 99.4609ZM137.898 99.7578H134.938V98.2031H137.898C138.414 98.2031 138.831 98.1198 139.148 97.9531C139.466 97.7865 139.698 97.5573 139.844 97.2656C139.995 96.9688 140.07 96.6302 140.07 96.25C140.07 95.8906 139.995 95.5547 139.844 95.2422C139.698 94.9245 139.466 94.6693 139.148 94.4766C138.831 94.2839 138.414 94.1875 137.898 94.1875H135.539V104H133.578V92.625H137.898C138.779 92.625 139.526 92.7812 140.141 93.0938C140.76 93.401 141.232 93.8281 141.555 94.375C141.878 94.9167 142.039 95.5365 142.039 96.2344C142.039 96.9688 141.878 97.599 141.555 98.125C141.232 98.651 140.76 99.0547 140.141 99.3359C139.526 99.6172 138.779 99.7578 137.898 99.7578ZM145.5 97.1562V104H143.617V95.5469H145.414L145.5 97.1562ZM148.086 95.4922L148.07 97.2422C147.956 97.2214 147.831 97.2057 147.695 97.1953C147.565 97.1849 147.435 97.1797 147.305 97.1797C146.982 97.1797 146.698 97.2266 146.453 97.3203C146.208 97.4089 146.003 97.5391 145.836 97.7109C145.674 97.8776 145.549 98.0807 145.461 98.3203C145.372 98.5599 145.32 98.8281 145.305 99.125L144.875 99.1562C144.875 98.625 144.927 98.1328 145.031 97.6797C145.135 97.2266 145.292 96.8281 145.5 96.4844C145.714 96.1406 145.979 95.8724 146.297 95.6797C146.62 95.487 146.992 95.3906 147.414 95.3906C147.529 95.3906 147.651 95.401 147.781 95.4219C147.917 95.4427 148.018 95.4661 148.086 95.4922ZM148.703 99.8672V99.6875C148.703 99.0781 148.792 98.513 148.969 97.9922C149.146 97.4661 149.401 97.0104 149.734 96.625C150.073 96.2344 150.484 95.9323 150.969 95.7188C151.458 95.5 152.01 95.3906 152.625 95.3906C153.245 95.3906 153.797 95.5 154.281 95.7188C154.771 95.9323 155.185 96.2344 155.523 96.625C155.862 97.0104 156.12 97.4661 156.297 97.9922C156.474 98.513 156.562 99.0781 156.562 99.6875V99.8672C156.562 100.477 156.474 101.042 156.297 101.562C156.12 102.083 155.862 102.539 155.523 102.93C155.185 103.315 154.773 103.617 154.289 103.836C153.805 104.049 153.255 104.156 152.641 104.156C152.021 104.156 151.466 104.049 150.977 103.836C150.492 103.617 150.081 103.315 149.742 102.93C149.404 102.539 149.146 102.083 148.969 101.562C148.792 101.042 148.703 100.477 148.703 99.8672ZM150.586 99.6875V99.8672C150.586 100.247 150.625 100.607 150.703 100.945C150.781 101.284 150.904 101.581 151.07 101.836C151.237 102.091 151.451 102.292 151.711 102.438C151.971 102.583 152.281 102.656 152.641 102.656C152.99 102.656 153.292 102.583 153.547 102.438C153.807 102.292 154.021 102.091 154.188 101.836C154.354 101.581 154.477 101.284 154.555 100.945C154.638 100.607 154.68 100.247 154.68 99.8672V99.6875C154.68 99.3125 154.638 98.9583 154.555 98.625C154.477 98.2865 154.352 97.987 154.18 97.7266C154.013 97.4661 153.799 97.263 153.539 97.1172C153.284 96.9661 152.979 96.8906 152.625 96.8906C152.271 96.8906 151.964 96.9661 151.703 97.1172C151.448 97.263 151.237 97.4661 151.07 97.7266C150.904 97.987 150.781 98.2865 150.703 98.625C150.625 98.9583 150.586 99.3125 150.586 99.6875ZM163.555 95.5469H165.266V103.766C165.266 104.526 165.104 105.172 164.781 105.703C164.458 106.234 164.008 106.638 163.43 106.914C162.852 107.195 162.182 107.336 161.422 107.336C161.099 107.336 160.74 107.289 160.344 107.195C159.953 107.102 159.573 106.951 159.203 106.742C158.839 106.539 158.534 106.271 158.289 105.938L159.172 104.828C159.474 105.188 159.807 105.451 160.172 105.617C160.536 105.784 160.919 105.867 161.32 105.867C161.753 105.867 162.12 105.786 162.422 105.625C162.729 105.469 162.966 105.237 163.133 104.93C163.299 104.622 163.383 104.247 163.383 103.805V97.4609L163.555 95.5469ZM157.812 99.8672V99.7031C157.812 99.0625 157.891 98.4792 158.047 97.9531C158.203 97.4219 158.427 96.9661 158.719 96.5859C159.01 96.2005 159.365 95.9062 159.781 95.7031C160.198 95.4948 160.669 95.3906 161.195 95.3906C161.742 95.3906 162.208 95.4896 162.594 95.6875C162.984 95.8854 163.31 96.1693 163.57 96.5391C163.831 96.9036 164.034 97.3411 164.18 97.8516C164.331 98.3568 164.443 98.9193 164.516 99.5391V100.062C164.448 100.667 164.333 101.219 164.172 101.719C164.01 102.219 163.797 102.651 163.531 103.016C163.266 103.38 162.938 103.661 162.547 103.859C162.161 104.057 161.706 104.156 161.18 104.156C160.664 104.156 160.198 104.049 159.781 103.836C159.37 103.622 159.016 103.323 158.719 102.938C158.427 102.552 158.203 102.099 158.047 101.578C157.891 101.052 157.812 100.482 157.812 99.8672ZM159.695 99.7031V99.8672C159.695 100.253 159.732 100.612 159.805 100.945C159.883 101.279 160 101.573 160.156 101.828C160.318 102.078 160.521 102.276 160.766 102.422C161.016 102.562 161.31 102.633 161.648 102.633C162.091 102.633 162.453 102.539 162.734 102.352C163.021 102.164 163.24 101.911 163.391 101.594C163.547 101.271 163.656 100.911 163.719 100.516V99.1016C163.688 98.7943 163.622 98.5078 163.523 98.2422C163.43 97.9766 163.302 97.7448 163.141 97.5469C162.979 97.3438 162.776 97.1875 162.531 97.0781C162.286 96.9635 161.997 96.9062 161.664 96.9062C161.326 96.9062 161.031 96.9792 160.781 97.125C160.531 97.2708 160.326 97.4714 160.164 97.7266C160.008 97.9818 159.891 98.2786 159.812 98.6172C159.734 98.9557 159.695 99.3177 159.695 99.7031ZM169.109 97.1562V104H167.227V95.5469H169.023L169.109 97.1562ZM171.695 95.4922L171.68 97.2422C171.565 97.2214 171.44 97.2057 171.305 97.1953C171.174 97.1849 171.044 97.1797 170.914 97.1797C170.591 97.1797 170.307 97.2266 170.062 97.3203C169.818 97.4089 169.612 97.5391 169.445 97.7109C169.284 97.8776 169.159 98.0807 169.07 98.3203C168.982 98.5599 168.93 98.8281 168.914 99.125L168.484 99.1562C168.484 98.625 168.536 98.1328 168.641 97.6797C168.745 97.2266 168.901 96.8281 169.109 96.4844C169.323 96.1406 169.589 95.8724 169.906 95.6797C170.229 95.487 170.602 95.3906 171.023 95.3906C171.138 95.3906 171.26 95.401 171.391 95.4219C171.526 95.4427 171.628 95.4661 171.695 95.4922ZM176.445 104.156C175.82 104.156 175.255 104.055 174.75 103.852C174.25 103.643 173.823 103.354 173.469 102.984C173.12 102.615 172.852 102.18 172.664 101.68C172.477 101.18 172.383 100.641 172.383 100.062V99.75C172.383 99.0885 172.479 98.4896 172.672 97.9531C172.865 97.4167 173.133 96.9583 173.477 96.5781C173.82 96.1927 174.227 95.8984 174.695 95.6953C175.164 95.4922 175.672 95.3906 176.219 95.3906C176.823 95.3906 177.352 95.4922 177.805 95.6953C178.258 95.8984 178.633 96.1849 178.93 96.5547C179.232 96.9193 179.456 97.3542 179.602 97.8594C179.753 98.3646 179.828 98.9219 179.828 99.5312V100.336H173.297V98.9844H177.969V98.8359C177.958 98.4974 177.891 98.1797 177.766 97.8828C177.646 97.5859 177.461 97.3464 177.211 97.1641C176.961 96.9818 176.628 96.8906 176.211 96.8906C175.898 96.8906 175.62 96.9583 175.375 97.0938C175.135 97.224 174.935 97.4141 174.773 97.6641C174.612 97.9141 174.487 98.2161 174.398 98.5703C174.315 98.9193 174.273 99.3125 174.273 99.75V100.062C174.273 100.432 174.323 100.776 174.422 101.094C174.526 101.406 174.677 101.68 174.875 101.914C175.073 102.148 175.312 102.333 175.594 102.469C175.875 102.599 176.195 102.664 176.555 102.664C177.008 102.664 177.411 102.573 177.766 102.391C178.12 102.208 178.427 101.951 178.688 101.617L179.68 102.578C179.497 102.844 179.26 103.099 178.969 103.344C178.677 103.583 178.32 103.779 177.898 103.93C177.482 104.081 176.997 104.156 176.445 104.156ZM186.039 101.711C186.039 101.523 185.992 101.354 185.898 101.203C185.805 101.047 185.625 100.906 185.359 100.781C185.099 100.656 184.714 100.542 184.203 100.438C183.755 100.339 183.344 100.221 182.969 100.086C182.599 99.9453 182.281 99.776 182.016 99.5781C181.75 99.3802 181.544 99.1458 181.398 98.875C181.253 98.6042 181.18 98.2917 181.18 97.9375C181.18 97.5938 181.255 97.2682 181.406 96.9609C181.557 96.6536 181.773 96.3828 182.055 96.1484C182.336 95.9141 182.677 95.7292 183.078 95.5938C183.484 95.4583 183.938 95.3906 184.438 95.3906C185.146 95.3906 185.753 95.5104 186.258 95.75C186.768 95.9844 187.159 96.3047 187.43 96.7109C187.701 97.112 187.836 97.5651 187.836 98.0703H185.953C185.953 97.8464 185.896 97.638 185.781 97.4453C185.672 97.2474 185.505 97.0885 185.281 96.9688C185.057 96.8438 184.776 96.7812 184.438 96.7812C184.115 96.7812 183.846 96.8333 183.633 96.9375C183.424 97.0365 183.268 97.1667 183.164 97.3281C183.065 97.4896 183.016 97.6667 183.016 97.8594C183.016 98 183.042 98.1276 183.094 98.2422C183.151 98.3516 183.245 98.4531 183.375 98.5469C183.505 98.6354 183.682 98.7188 183.906 98.7969C184.135 98.875 184.422 98.9505 184.766 99.0234C185.411 99.1589 185.966 99.3333 186.43 99.5469C186.898 99.7552 187.258 100.026 187.508 100.359C187.758 100.688 187.883 101.104 187.883 101.609C187.883 101.984 187.802 102.328 187.641 102.641C187.484 102.948 187.255 103.216 186.953 103.445C186.651 103.669 186.289 103.844 185.867 103.969C185.451 104.094 184.982 104.156 184.461 104.156C183.695 104.156 183.047 104.021 182.516 103.75C181.984 103.474 181.581 103.122 181.305 102.695C181.034 102.263 180.898 101.815 180.898 101.352H182.719C182.74 101.701 182.836 101.979 183.008 102.188C183.185 102.391 183.404 102.539 183.664 102.633C183.93 102.721 184.203 102.766 184.484 102.766C184.823 102.766 185.107 102.721 185.336 102.633C185.565 102.539 185.74 102.414 185.859 102.258C185.979 102.096 186.039 101.914 186.039 101.711ZM194.273 101.711C194.273 101.523 194.227 101.354 194.133 101.203C194.039 101.047 193.859 100.906 193.594 100.781C193.333 100.656 192.948 100.542 192.438 100.438C191.99 100.339 191.578 100.221 191.203 100.086C190.833 99.9453 190.516 99.776 190.25 99.5781C189.984 99.3802 189.779 99.1458 189.633 98.875C189.487 98.6042 189.414 98.2917 189.414 97.9375C189.414 97.5938 189.49 97.2682 189.641 96.9609C189.792 96.6536 190.008 96.3828 190.289 96.1484C190.57 95.9141 190.911 95.7292 191.312 95.5938C191.719 95.4583 192.172 95.3906 192.672 95.3906C193.38 95.3906 193.987 95.5104 194.492 95.75C195.003 95.9844 195.393 96.3047 195.664 96.7109C195.935 97.112 196.07 97.5651 196.07 98.0703H194.188C194.188 97.8464 194.13 97.638 194.016 97.4453C193.906 97.2474 193.74 97.0885 193.516 96.9688C193.292 96.8438 193.01 96.7812 192.672 96.7812C192.349 96.7812 192.081 96.8333 191.867 96.9375C191.659 97.0365 191.503 97.1667 191.398 97.3281C191.299 97.4896 191.25 97.6667 191.25 97.8594C191.25 98 191.276 98.1276 191.328 98.2422C191.385 98.3516 191.479 98.4531 191.609 98.5469C191.74 98.6354 191.917 98.7188 192.141 98.7969C192.37 98.875 192.656 98.9505 193 99.0234C193.646 99.1589 194.201 99.3333 194.664 99.5469C195.133 99.7552 195.492 100.026 195.742 100.359C195.992 100.688 196.117 101.104 196.117 101.609C196.117 101.984 196.036 102.328 195.875 102.641C195.719 102.948 195.49 103.216 195.188 103.445C194.885 103.669 194.523 103.844 194.102 103.969C193.685 104.094 193.216 104.156 192.695 104.156C191.93 104.156 191.281 104.021 190.75 103.75C190.219 103.474 189.815 103.122 189.539 102.695C189.268 102.263 189.133 101.815 189.133 101.352H190.953C190.974 101.701 191.07 101.979 191.242 102.188C191.419 102.391 191.638 102.539 191.898 102.633C192.164 102.721 192.438 102.766 192.719 102.766C193.057 102.766 193.341 102.721 193.57 102.633C193.799 102.539 193.974 102.414 194.094 102.258C194.214 102.096 194.273 101.914 194.273 101.711Z" fill="#1A1A1A"/>
<rect x="115" y="119" width="570" height="4" rx="2" fill="#F2F2F2"/>
<rect x="115" y="119" width="390" height="4" fill="#286EF1"/>
<path d="M118.651 145.336V156H117.238V145.336H118.651ZM123.119 150.133V151.291H118.344V150.133H123.119ZM123.844 145.336V146.493H118.344V145.336H123.844ZM126.796 148.075V156H125.434V148.075H126.796ZM125.331 145.973C125.331 145.753 125.397 145.568 125.529 145.417C125.666 145.265 125.866 145.189 126.129 145.189C126.388 145.189 126.586 145.265 126.723 145.417C126.864 145.568 126.935 145.753 126.935 145.973C126.935 146.183 126.864 146.364 126.723 146.515C126.586 146.662 126.388 146.735 126.129 146.735C125.866 146.735 125.666 146.662 125.529 146.515C125.397 146.364 125.331 146.183 125.331 145.973ZM130.443 144.75V156H129.081V144.75H130.443ZM135.907 156.146C135.355 156.146 134.855 156.054 134.406 155.868C133.961 155.678 133.578 155.412 133.256 155.07C132.938 154.728 132.694 154.323 132.523 153.854C132.353 153.385 132.267 152.873 132.267 152.316V152.008C132.267 151.364 132.362 150.79 132.553 150.287C132.743 149.779 133.002 149.35 133.329 148.998C133.656 148.646 134.027 148.38 134.442 148.2C134.857 148.019 135.287 147.929 135.731 147.929C136.298 147.929 136.786 148.026 137.196 148.222C137.611 148.417 137.951 148.69 138.214 149.042C138.478 149.389 138.673 149.799 138.8 150.272C138.927 150.741 138.991 151.254 138.991 151.811V152.418H133.073V151.312H137.636V151.21C137.616 150.858 137.543 150.517 137.416 150.185C137.294 149.853 137.099 149.579 136.83 149.364C136.562 149.149 136.195 149.042 135.731 149.042C135.424 149.042 135.141 149.108 134.882 149.24C134.623 149.367 134.401 149.557 134.215 149.811C134.03 150.065 133.886 150.375 133.783 150.741C133.681 151.107 133.629 151.53 133.629 152.008V152.316C133.629 152.692 133.681 153.046 133.783 153.378C133.891 153.705 134.044 153.993 134.245 154.242C134.45 154.491 134.696 154.687 134.984 154.828C135.277 154.97 135.609 155.041 135.98 155.041C136.459 155.041 136.864 154.943 137.196 154.748C137.528 154.552 137.819 154.291 138.068 153.964L138.888 154.616C138.717 154.875 138.5 155.121 138.236 155.355C137.973 155.59 137.648 155.78 137.262 155.927C136.881 156.073 136.43 156.146 135.907 156.146ZM152.702 145.336V156H151.281L145.912 147.775V156H144.499V145.336H145.912L151.303 153.583V145.336H152.702ZM159.674 154.645V150.565C159.674 150.253 159.611 149.982 159.484 149.752C159.362 149.518 159.176 149.337 158.927 149.21C158.678 149.083 158.371 149.02 158.004 149.02C157.663 149.02 157.362 149.079 157.104 149.196C156.85 149.313 156.649 149.467 156.503 149.657C156.361 149.848 156.291 150.053 156.291 150.272H154.936C154.936 149.989 155.009 149.708 155.155 149.43C155.302 149.152 155.512 148.9 155.785 148.676C156.063 148.446 156.396 148.266 156.781 148.134C157.172 147.997 157.606 147.929 158.085 147.929C158.661 147.929 159.169 148.026 159.608 148.222C160.053 148.417 160.399 148.712 160.648 149.108C160.902 149.499 161.029 149.989 161.029 150.58V154.271C161.029 154.535 161.051 154.816 161.095 155.114C161.144 155.412 161.215 155.668 161.308 155.883V156H159.894C159.826 155.844 159.772 155.636 159.733 155.377C159.694 155.114 159.674 154.87 159.674 154.645ZM159.909 151.195L159.923 152.147H158.554C158.168 152.147 157.824 152.179 157.521 152.243C157.218 152.301 156.964 152.392 156.759 152.514C156.554 152.636 156.398 152.79 156.291 152.975C156.183 153.156 156.129 153.368 156.129 153.612C156.129 153.861 156.186 154.088 156.298 154.293C156.41 154.499 156.579 154.662 156.803 154.784C157.033 154.901 157.313 154.96 157.646 154.96C158.061 154.96 158.427 154.872 158.744 154.696C159.062 154.521 159.313 154.306 159.499 154.052C159.689 153.798 159.792 153.551 159.806 153.312L160.385 153.964C160.351 154.169 160.258 154.396 160.106 154.645C159.955 154.894 159.752 155.133 159.499 155.363C159.25 155.587 158.952 155.775 158.605 155.927C158.263 156.073 157.877 156.146 157.448 156.146C156.911 156.146 156.439 156.042 156.034 155.832C155.634 155.622 155.321 155.341 155.097 154.989C154.877 154.633 154.767 154.235 154.767 153.795C154.767 153.371 154.85 152.997 155.016 152.675C155.182 152.348 155.421 152.077 155.734 151.862C156.046 151.642 156.422 151.476 156.862 151.364C157.301 151.251 157.792 151.195 158.334 151.195H159.909ZM164.508 149.65V156H163.146V148.075H164.435L164.508 149.65ZM164.23 151.737L163.6 151.715C163.605 151.173 163.676 150.673 163.812 150.214C163.949 149.75 164.152 149.347 164.42 149.005C164.689 148.664 165.023 148.4 165.424 148.214C165.824 148.024 166.288 147.929 166.815 147.929C167.187 147.929 167.528 147.982 167.841 148.09C168.153 148.192 168.424 148.356 168.654 148.581C168.883 148.805 169.062 149.093 169.188 149.445C169.315 149.796 169.379 150.221 169.379 150.719V156H168.024V150.785C168.024 150.37 167.953 150.038 167.812 149.789C167.675 149.54 167.479 149.359 167.226 149.247C166.972 149.13 166.674 149.071 166.332 149.071C165.932 149.071 165.597 149.142 165.329 149.284C165.06 149.425 164.845 149.621 164.684 149.87C164.523 150.119 164.406 150.404 164.333 150.727C164.264 151.044 164.23 151.381 164.23 151.737ZM169.364 150.99L168.456 151.269C168.461 150.834 168.532 150.417 168.668 150.016C168.81 149.616 169.013 149.259 169.276 148.947C169.545 148.634 169.875 148.388 170.265 148.207C170.656 148.021 171.103 147.929 171.605 147.929C172.03 147.929 172.406 147.985 172.733 148.097C173.065 148.209 173.344 148.383 173.568 148.617C173.798 148.847 173.971 149.142 174.088 149.503C174.206 149.865 174.264 150.294 174.264 150.792V156H172.902V150.778C172.902 150.333 172.831 149.989 172.689 149.745C172.553 149.496 172.357 149.323 172.104 149.225C171.854 149.123 171.557 149.071 171.21 149.071C170.912 149.071 170.648 149.123 170.419 149.225C170.189 149.328 169.997 149.469 169.84 149.65C169.684 149.826 169.564 150.028 169.481 150.258C169.403 150.487 169.364 150.731 169.364 150.99ZM179.604 156.146C179.052 156.146 178.551 156.054 178.102 155.868C177.658 155.678 177.274 155.412 176.952 155.07C176.635 154.728 176.391 154.323 176.22 153.854C176.049 153.385 175.963 152.873 175.963 152.316V152.008C175.963 151.364 176.059 150.79 176.249 150.287C176.439 149.779 176.698 149.35 177.025 148.998C177.353 148.646 177.724 148.38 178.139 148.2C178.554 148.019 178.983 147.929 179.428 147.929C179.994 147.929 180.482 148.026 180.893 148.222C181.308 148.417 181.647 148.69 181.911 149.042C182.174 149.389 182.37 149.799 182.497 150.272C182.624 150.741 182.687 151.254 182.687 151.811V152.418H176.769V151.312H181.332V151.21C181.312 150.858 181.239 150.517 181.112 150.185C180.99 149.853 180.795 149.579 180.526 149.364C180.258 149.149 179.892 149.042 179.428 149.042C179.12 149.042 178.837 149.108 178.578 149.24C178.319 149.367 178.097 149.557 177.912 149.811C177.726 150.065 177.582 150.375 177.479 150.741C177.377 151.107 177.326 151.53 177.326 152.008V152.316C177.326 152.692 177.377 153.046 177.479 153.378C177.587 153.705 177.741 153.993 177.941 154.242C178.146 154.491 178.393 154.687 178.681 154.828C178.974 154.97 179.306 155.041 179.677 155.041C180.155 155.041 180.561 154.943 180.893 154.748C181.225 154.552 181.515 154.291 181.764 153.964L182.584 154.616C182.414 154.875 182.196 155.121 181.933 155.355C181.669 155.59 181.344 155.78 180.958 155.927C180.578 156.073 180.126 156.146 179.604 156.146ZM187.931 155.282C187.931 155.053 188.002 154.86 188.144 154.704C188.29 154.542 188.5 154.462 188.773 154.462C189.047 154.462 189.254 154.542 189.396 154.704C189.542 154.86 189.616 155.053 189.616 155.282C189.616 155.507 189.542 155.697 189.396 155.854C189.254 156.01 189.047 156.088 188.773 156.088C188.5 156.088 188.29 156.01 188.144 155.854C188.002 155.697 187.931 155.507 187.931 155.282ZM187.938 148.815C187.938 148.585 188.009 148.393 188.151 148.236C188.297 148.075 188.507 147.995 188.781 147.995C189.054 147.995 189.262 148.075 189.403 148.236C189.55 148.393 189.623 148.585 189.623 148.815C189.623 149.04 189.55 149.23 189.403 149.386C189.262 149.542 189.054 149.621 188.781 149.621C188.507 149.621 188.297 149.542 188.151 149.386C188.009 149.23 187.938 149.04 187.938 148.815Z" fill="#737373"/>
<path d="M207.672 149.375V150.93H201.633V149.375H207.672ZM202.117 144.625V156H200.156V144.625H202.117ZM209.18 144.625V156H207.227V144.625H209.18ZM215.055 156.156C214.43 156.156 213.865 156.055 213.359 155.852C212.859 155.643 212.432 155.354 212.078 154.984C211.729 154.615 211.461 154.18 211.273 153.68C211.086 153.18 210.992 152.641 210.992 152.062V151.75C210.992 151.089 211.089 150.49 211.281 149.953C211.474 149.417 211.742 148.958 212.086 148.578C212.43 148.193 212.836 147.898 213.305 147.695C213.773 147.492 214.281 147.391 214.828 147.391C215.432 147.391 215.961 147.492 216.414 147.695C216.867 147.898 217.242 148.185 217.539 148.555C217.841 148.919 218.065 149.354 218.211 149.859C218.362 150.365 218.438 150.922 218.438 151.531V152.336H211.906V150.984H216.578V150.836C216.568 150.497 216.5 150.18 216.375 149.883C216.255 149.586 216.07 149.346 215.82 149.164C215.57 148.982 215.237 148.891 214.82 148.891C214.508 148.891 214.229 148.958 213.984 149.094C213.745 149.224 213.544 149.414 213.383 149.664C213.221 149.914 213.096 150.216 213.008 150.57C212.924 150.919 212.883 151.312 212.883 151.75V152.062C212.883 152.432 212.932 152.776 213.031 153.094C213.135 153.406 213.286 153.68 213.484 153.914C213.682 154.148 213.922 154.333 214.203 154.469C214.484 154.599 214.805 154.664 215.164 154.664C215.617 154.664 216.021 154.573 216.375 154.391C216.729 154.208 217.036 153.951 217.297 153.617L218.289 154.578C218.107 154.844 217.87 155.099 217.578 155.344C217.286 155.583 216.93 155.779 216.508 155.93C216.091 156.081 215.607 156.156 215.055 156.156ZM224.672 154.305V150.273C224.672 149.971 224.617 149.711 224.508 149.492C224.398 149.273 224.232 149.104 224.008 148.984C223.789 148.865 223.513 148.805 223.18 148.805C222.872 148.805 222.607 148.857 222.383 148.961C222.159 149.065 221.984 149.206 221.859 149.383C221.734 149.56 221.672 149.76 221.672 149.984H219.797C219.797 149.651 219.878 149.328 220.039 149.016C220.201 148.703 220.435 148.424 220.742 148.18C221.049 147.935 221.417 147.742 221.844 147.602C222.271 147.461 222.75 147.391 223.281 147.391C223.917 147.391 224.479 147.497 224.969 147.711C225.464 147.924 225.852 148.247 226.133 148.68C226.419 149.107 226.562 149.643 226.562 150.289V154.047C226.562 154.432 226.589 154.779 226.641 155.086C226.698 155.388 226.779 155.651 226.883 155.875V156H224.953C224.865 155.797 224.794 155.539 224.742 155.227C224.695 154.909 224.672 154.602 224.672 154.305ZM224.945 150.859L224.961 152.023H223.609C223.26 152.023 222.953 152.057 222.688 152.125C222.422 152.188 222.201 152.281 222.023 152.406C221.846 152.531 221.714 152.682 221.625 152.859C221.536 153.036 221.492 153.237 221.492 153.461C221.492 153.685 221.544 153.891 221.648 154.078C221.753 154.26 221.904 154.404 222.102 154.508C222.305 154.612 222.549 154.664 222.836 154.664C223.221 154.664 223.557 154.586 223.844 154.43C224.135 154.268 224.365 154.073 224.531 153.844C224.698 153.609 224.786 153.388 224.797 153.18L225.406 154.016C225.344 154.229 225.237 154.458 225.086 154.703C224.935 154.948 224.737 155.182 224.492 155.406C224.253 155.625 223.964 155.805 223.625 155.945C223.292 156.086 222.906 156.156 222.469 156.156C221.917 156.156 221.424 156.047 220.992 155.828C220.56 155.604 220.221 155.305 219.977 154.93C219.732 154.549 219.609 154.12 219.609 153.641C219.609 153.193 219.693 152.797 219.859 152.453C220.031 152.104 220.281 151.812 220.609 151.578C220.943 151.344 221.349 151.167 221.828 151.047C222.307 150.922 222.854 150.859 223.469 150.859H224.945ZM233.688 154.25V144H235.578V156H233.867L233.688 154.25ZM228.188 151.867V151.703C228.188 151.062 228.263 150.479 228.414 149.953C228.565 149.422 228.784 148.966 229.07 148.586C229.357 148.201 229.706 147.906 230.117 147.703C230.529 147.495 230.992 147.391 231.508 147.391C232.018 147.391 232.466 147.49 232.852 147.688C233.237 147.885 233.565 148.169 233.836 148.539C234.107 148.904 234.323 149.341 234.484 149.852C234.646 150.357 234.76 150.919 234.828 151.539V152.062C234.76 152.667 234.646 153.219 234.484 153.719C234.323 154.219 234.107 154.651 233.836 155.016C233.565 155.38 233.234 155.661 232.844 155.859C232.458 156.057 232.008 156.156 231.492 156.156C230.982 156.156 230.521 156.049 230.109 155.836C229.703 155.622 229.357 155.323 229.07 154.938C228.784 154.552 228.565 154.099 228.414 153.578C228.263 153.052 228.188 152.482 228.188 151.867ZM230.07 151.703V151.867C230.07 152.253 230.104 152.612 230.172 152.945C230.245 153.279 230.357 153.573 230.508 153.828C230.659 154.078 230.854 154.276 231.094 154.422C231.339 154.562 231.63 154.633 231.969 154.633C232.396 154.633 232.747 154.539 233.023 154.352C233.299 154.164 233.516 153.911 233.672 153.594C233.833 153.271 233.943 152.911 234 152.516V151.102C233.969 150.794 233.904 150.508 233.805 150.242C233.711 149.977 233.583 149.745 233.422 149.547C233.26 149.344 233.06 149.188 232.82 149.078C232.586 148.964 232.307 148.906 231.984 148.906C231.641 148.906 231.349 148.979 231.109 149.125C230.87 149.271 230.672 149.471 230.516 149.727C230.365 149.982 230.253 150.279 230.18 150.617C230.107 150.956 230.07 151.318 230.07 151.703ZM241.273 156.156C240.648 156.156 240.083 156.055 239.578 155.852C239.078 155.643 238.651 155.354 238.297 154.984C237.948 154.615 237.68 154.18 237.492 153.68C237.305 153.18 237.211 152.641 237.211 152.062V151.75C237.211 151.089 237.307 150.49 237.5 149.953C237.693 149.417 237.961 148.958 238.305 148.578C238.648 148.193 239.055 147.898 239.523 147.695C239.992 147.492 240.5 147.391 241.047 147.391C241.651 147.391 242.18 147.492 242.633 147.695C243.086 147.898 243.461 148.185 243.758 148.555C244.06 148.919 244.284 149.354 244.43 149.859C244.581 150.365 244.656 150.922 244.656 151.531V152.336H238.125V150.984H242.797V150.836C242.786 150.497 242.719 150.18 242.594 149.883C242.474 149.586 242.289 149.346 242.039 149.164C241.789 148.982 241.456 148.891 241.039 148.891C240.727 148.891 240.448 148.958 240.203 149.094C239.964 149.224 239.763 149.414 239.602 149.664C239.44 149.914 239.315 150.216 239.227 150.57C239.143 150.919 239.102 151.312 239.102 151.75V152.062C239.102 152.432 239.151 152.776 239.25 153.094C239.354 153.406 239.505 153.68 239.703 153.914C239.901 154.148 240.141 154.333 240.422 154.469C240.703 154.599 241.023 154.664 241.383 154.664C241.836 154.664 242.24 154.573 242.594 154.391C242.948 154.208 243.255 153.951 243.516 153.617L244.508 154.578C244.326 154.844 244.089 155.099 243.797 155.344C243.505 155.583 243.148 155.779 242.727 155.93C242.31 156.081 241.826 156.156 241.273 156.156ZM248.016 149.156V156H246.133V147.547H247.93L248.016 149.156ZM250.602 147.492L250.586 149.242C250.471 149.221 250.346 149.206 250.211 149.195C250.081 149.185 249.951 149.18 249.82 149.18C249.497 149.18 249.214 149.227 248.969 149.32C248.724 149.409 248.518 149.539 248.352 149.711C248.19 149.878 248.065 150.081 247.977 150.32C247.888 150.56 247.836 150.828 247.82 151.125L247.391 151.156C247.391 150.625 247.443 150.133 247.547 149.68C247.651 149.227 247.807 148.828 248.016 148.484C248.229 148.141 248.495 147.872 248.812 147.68C249.135 147.487 249.508 147.391 249.93 147.391C250.044 147.391 250.167 147.401 250.297 147.422C250.432 147.443 250.534 147.466 250.602 147.492ZM250.75 155.062C250.75 154.771 250.849 154.526 251.047 154.328C251.245 154.125 251.513 154.023 251.852 154.023C252.195 154.023 252.464 154.125 252.656 154.328C252.854 154.526 252.953 154.771 252.953 155.062C252.953 155.354 252.854 155.599 252.656 155.797C252.464 155.995 252.195 156.094 251.852 156.094C251.513 156.094 251.245 155.995 251.047 155.797C250.849 155.599 250.75 155.354 250.75 155.062ZM255.219 147.547H257.109V156.734C257.109 157.312 257.01 157.799 256.812 158.195C256.615 158.596 256.323 158.898 255.938 159.102C255.552 159.31 255.081 159.414 254.523 159.414C254.357 159.414 254.185 159.401 254.008 159.375C253.826 159.354 253.654 159.323 253.492 159.281L253.5 157.812C253.609 157.833 253.727 157.849 253.852 157.859C253.971 157.875 254.086 157.883 254.195 157.883C254.419 157.883 254.607 157.844 254.758 157.766C254.909 157.688 255.023 157.565 255.102 157.398C255.18 157.232 255.219 157.01 255.219 156.734V147.547ZM255.055 145.328C255.055 145.042 255.151 144.805 255.344 144.617C255.536 144.424 255.799 144.328 256.133 144.328C256.471 144.328 256.734 144.424 256.922 144.617C257.115 144.805 257.211 145.042 257.211 145.328C257.211 145.609 257.115 145.844 256.922 146.031C256.734 146.219 256.471 146.312 256.133 146.312C255.799 146.312 255.536 146.219 255.344 146.031C255.151 145.844 255.055 145.609 255.055 145.328ZM261.031 149.172V159.25H259.148V147.547H260.883L261.031 149.172ZM266.539 151.695V151.859C266.539 152.474 266.466 153.044 266.32 153.57C266.18 154.091 265.969 154.547 265.688 154.938C265.411 155.323 265.07 155.622 264.664 155.836C264.258 156.049 263.789 156.156 263.258 156.156C262.732 156.156 262.271 156.06 261.875 155.867C261.484 155.669 261.154 155.391 260.883 155.031C260.612 154.672 260.393 154.25 260.227 153.766C260.065 153.276 259.951 152.74 259.883 152.156V151.523C259.951 150.904 260.065 150.341 260.227 149.836C260.393 149.331 260.612 148.896 260.883 148.531C261.154 148.167 261.484 147.885 261.875 147.688C262.266 147.49 262.721 147.391 263.242 147.391C263.773 147.391 264.245 147.495 264.656 147.703C265.068 147.906 265.414 148.198 265.695 148.578C265.977 148.953 266.188 149.406 266.328 149.938C266.469 150.464 266.539 151.049 266.539 151.695ZM264.656 151.859V151.695C264.656 151.305 264.62 150.943 264.547 150.609C264.474 150.271 264.359 149.974 264.203 149.719C264.047 149.464 263.846 149.266 263.602 149.125C263.362 148.979 263.073 148.906 262.734 148.906C262.401 148.906 262.115 148.964 261.875 149.078C261.635 149.188 261.435 149.341 261.273 149.539C261.112 149.737 260.987 149.969 260.898 150.234C260.81 150.495 260.747 150.779 260.711 151.086V152.602C260.773 152.977 260.88 153.32 261.031 153.633C261.182 153.945 261.396 154.195 261.672 154.383C261.953 154.565 262.312 154.656 262.75 154.656C263.089 154.656 263.378 154.583 263.617 154.438C263.857 154.292 264.052 154.091 264.203 153.836C264.359 153.576 264.474 153.276 264.547 152.938C264.62 152.599 264.656 152.24 264.656 151.859ZM271.867 156.156C271.242 156.156 270.677 156.055 270.172 155.852C269.672 155.643 269.245 155.354 268.891 154.984C268.542 154.615 268.273 154.18 268.086 153.68C267.898 153.18 267.805 152.641 267.805 152.062V151.75C267.805 151.089 267.901 150.49 268.094 149.953C268.286 149.417 268.555 148.958 268.898 148.578C269.242 148.193 269.648 147.898 270.117 147.695C270.586 147.492 271.094 147.391 271.641 147.391C272.245 147.391 272.773 147.492 273.227 147.695C273.68 147.898 274.055 148.185 274.352 148.555C274.654 148.919 274.878 149.354 275.023 149.859C275.174 150.365 275.25 150.922 275.25 151.531V152.336H268.719V150.984H273.391V150.836C273.38 150.497 273.312 150.18 273.188 149.883C273.068 149.586 272.883 149.346 272.633 149.164C272.383 148.982 272.049 148.891 271.633 148.891C271.32 148.891 271.042 148.958 270.797 149.094C270.557 149.224 270.357 149.414 270.195 149.664C270.034 149.914 269.909 150.216 269.82 150.57C269.737 150.919 269.695 151.312 269.695 151.75V152.062C269.695 152.432 269.745 152.776 269.844 153.094C269.948 153.406 270.099 153.68 270.297 153.914C270.495 154.148 270.734 154.333 271.016 154.469C271.297 154.599 271.617 154.664 271.977 154.664C272.43 154.664 272.833 154.573 273.188 154.391C273.542 154.208 273.849 153.951 274.109 153.617L275.102 154.578C274.919 154.844 274.682 155.099 274.391 155.344C274.099 155.583 273.742 155.779 273.32 155.93C272.904 156.081 272.419 156.156 271.867 156.156ZM282.133 147.547H283.844V155.766C283.844 156.526 283.682 157.172 283.359 157.703C283.036 158.234 282.586 158.638 282.008 158.914C281.43 159.195 280.76 159.336 280 159.336C279.677 159.336 279.318 159.289 278.922 159.195C278.531 159.102 278.151 158.951 277.781 158.742C277.417 158.539 277.112 158.271 276.867 157.938L277.75 156.828C278.052 157.188 278.385 157.451 278.75 157.617C279.115 157.784 279.497 157.867 279.898 157.867C280.331 157.867 280.698 157.786 281 157.625C281.307 157.469 281.544 157.237 281.711 156.93C281.878 156.622 281.961 156.247 281.961 155.805V149.461L282.133 147.547ZM276.391 151.867V151.703C276.391 151.062 276.469 150.479 276.625 149.953C276.781 149.422 277.005 148.966 277.297 148.586C277.589 148.201 277.943 147.906 278.359 147.703C278.776 147.495 279.247 147.391 279.773 147.391C280.32 147.391 280.786 147.49 281.172 147.688C281.562 147.885 281.888 148.169 282.148 148.539C282.409 148.904 282.612 149.341 282.758 149.852C282.909 150.357 283.021 150.919 283.094 151.539V152.062C283.026 152.667 282.911 153.219 282.75 153.719C282.589 154.219 282.375 154.651 282.109 155.016C281.844 155.38 281.516 155.661 281.125 155.859C280.74 156.057 280.284 156.156 279.758 156.156C279.242 156.156 278.776 156.049 278.359 155.836C277.948 155.622 277.594 155.323 277.297 154.938C277.005 154.552 276.781 154.099 276.625 153.578C276.469 153.052 276.391 152.482 276.391 151.867ZM278.273 151.703V151.867C278.273 152.253 278.31 152.612 278.383 152.945C278.461 153.279 278.578 153.573 278.734 153.828C278.896 154.078 279.099 154.276 279.344 154.422C279.594 154.562 279.888 154.633 280.227 154.633C280.669 154.633 281.031 154.539 281.312 154.352C281.599 154.164 281.818 153.911 281.969 153.594C282.125 153.271 282.234 152.911 282.297 152.516V151.102C282.266 150.794 282.201 150.508 282.102 150.242C282.008 149.977 281.88 149.745 281.719 149.547C281.557 149.344 281.354 149.188 281.109 149.078C280.865 148.964 280.576 148.906 280.242 148.906C279.904 148.906 279.609 148.979 279.359 149.125C279.109 149.271 278.904 149.471 278.742 149.727C278.586 149.982 278.469 150.279 278.391 150.617C278.312 150.956 278.273 151.318 278.273 151.703Z" fill="#333333"/>
<path d="M121.178 177.336V188H119.787V177.336H121.178ZM124.606 177.336V178.493H116.366V177.336H124.606ZM124.892 184.125V183.957C124.892 183.386 124.975 182.856 125.141 182.368C125.307 181.875 125.546 181.447 125.858 181.086C126.171 180.72 126.549 180.437 126.994 180.236C127.438 180.031 127.936 179.929 128.488 179.929C129.044 179.929 129.545 180.031 129.989 180.236C130.438 180.437 130.819 180.72 131.132 181.086C131.449 181.447 131.691 181.875 131.857 182.368C132.023 182.856 132.106 183.386 132.106 183.957V184.125C132.106 184.697 132.023 185.227 131.857 185.715C131.691 186.203 131.449 186.63 131.132 186.997C130.819 187.358 130.441 187.641 129.997 187.846C129.557 188.046 129.059 188.146 128.502 188.146C127.946 188.146 127.445 188.046 127.001 187.846C126.557 187.641 126.176 187.358 125.858 186.997C125.546 186.63 125.307 186.203 125.141 185.715C124.975 185.227 124.892 184.697 124.892 184.125ZM126.247 183.957V184.125C126.247 184.521 126.293 184.895 126.386 185.246C126.479 185.593 126.618 185.9 126.803 186.169C126.994 186.438 127.23 186.65 127.514 186.806C127.797 186.958 128.126 187.033 128.502 187.033C128.874 187.033 129.198 186.958 129.477 186.806C129.76 186.65 129.994 186.438 130.18 186.169C130.365 185.9 130.504 185.593 130.597 185.246C130.695 184.895 130.744 184.521 130.744 184.125V183.957C130.744 183.566 130.695 183.198 130.597 182.851C130.504 182.5 130.363 182.189 130.172 181.921C129.987 181.647 129.752 181.433 129.469 181.276C129.191 181.12 128.864 181.042 128.488 181.042C128.117 181.042 127.79 181.12 127.506 181.276C127.228 181.433 126.994 181.647 126.803 181.921C126.618 182.189 126.479 182.5 126.386 182.851C126.293 183.198 126.247 183.566 126.247 183.957ZM137.123 180.075V181.115H132.838V180.075H137.123ZM134.289 178.149H135.644V186.037C135.644 186.306 135.685 186.508 135.768 186.645C135.851 186.782 135.958 186.872 136.09 186.916C136.222 186.96 136.364 186.982 136.515 186.982C136.627 186.982 136.745 186.972 136.867 186.953C136.994 186.928 137.089 186.909 137.152 186.894L137.16 188C137.052 188.034 136.911 188.066 136.735 188.095C136.564 188.129 136.356 188.146 136.112 188.146C135.78 188.146 135.475 188.081 135.197 187.949C134.918 187.817 134.696 187.597 134.53 187.29C134.369 186.977 134.289 186.557 134.289 186.03V178.149ZM143.385 186.645V182.565C143.385 182.253 143.322 181.982 143.195 181.752C143.073 181.518 142.887 181.337 142.638 181.21C142.389 181.083 142.082 181.02 141.715 181.02C141.374 181.02 141.073 181.079 140.814 181.196C140.561 181.313 140.36 181.467 140.214 181.657C140.072 181.848 140.001 182.053 140.001 182.272H138.646C138.646 181.989 138.72 181.708 138.866 181.43C139.013 181.152 139.223 180.9 139.496 180.676C139.774 180.446 140.106 180.266 140.492 180.134C140.883 179.997 141.317 179.929 141.796 179.929C142.372 179.929 142.88 180.026 143.319 180.222C143.764 180.417 144.11 180.712 144.359 181.108C144.613 181.499 144.74 181.989 144.74 182.58V186.271C144.74 186.535 144.762 186.816 144.806 187.114C144.855 187.412 144.926 187.668 145.019 187.883V188H143.605C143.537 187.844 143.483 187.636 143.444 187.377C143.405 187.114 143.385 186.87 143.385 186.645ZM143.62 183.195L143.634 184.147H142.265C141.879 184.147 141.535 184.179 141.232 184.243C140.929 184.301 140.675 184.392 140.47 184.514C140.265 184.636 140.109 184.79 140.001 184.975C139.894 185.156 139.84 185.368 139.84 185.612C139.84 185.861 139.896 186.088 140.009 186.293C140.121 186.499 140.29 186.662 140.514 186.784C140.744 186.901 141.024 186.96 141.356 186.96C141.771 186.96 142.138 186.872 142.455 186.696C142.772 186.521 143.024 186.306 143.209 186.052C143.4 185.798 143.502 185.551 143.517 185.312L144.096 185.964C144.062 186.169 143.969 186.396 143.817 186.645C143.666 186.894 143.463 187.133 143.209 187.363C142.96 187.587 142.663 187.775 142.316 187.927C141.974 188.073 141.588 188.146 141.159 188.146C140.622 188.146 140.15 188.042 139.745 187.832C139.345 187.622 139.032 187.341 138.808 186.989C138.588 186.633 138.478 186.235 138.478 185.795C138.478 185.371 138.561 184.997 138.727 184.675C138.893 184.348 139.132 184.077 139.445 183.862C139.757 183.642 140.133 183.476 140.573 183.364C141.012 183.251 141.503 183.195 142.045 183.195H143.62ZM148.344 176.75V188H146.981V176.75H148.344ZM160.128 185.305C160.128 185.056 160.089 184.836 160.011 184.646C159.938 184.45 159.806 184.274 159.616 184.118C159.43 183.962 159.171 183.813 158.839 183.671C158.512 183.53 158.097 183.386 157.594 183.239C157.067 183.083 156.591 182.91 156.166 182.719C155.741 182.524 155.377 182.302 155.075 182.053C154.772 181.804 154.54 181.518 154.379 181.196C154.218 180.874 154.137 180.505 154.137 180.09C154.137 179.675 154.223 179.292 154.394 178.94C154.564 178.588 154.809 178.283 155.126 178.024C155.448 177.761 155.832 177.556 156.276 177.409C156.72 177.263 157.216 177.189 157.763 177.189C158.563 177.189 159.242 177.343 159.799 177.651C160.36 177.954 160.788 178.352 161.081 178.845C161.374 179.333 161.52 179.855 161.52 180.412H160.114C160.114 180.012 160.028 179.658 159.857 179.35C159.687 179.038 159.428 178.793 159.081 178.618C158.734 178.437 158.295 178.347 157.763 178.347C157.26 178.347 156.845 178.422 156.518 178.574C156.19 178.725 155.946 178.93 155.785 179.189C155.629 179.448 155.551 179.743 155.551 180.075C155.551 180.3 155.597 180.505 155.69 180.69C155.788 180.871 155.937 181.04 156.137 181.196C156.342 181.352 156.601 181.496 156.913 181.628C157.23 181.76 157.609 181.887 158.048 182.009C158.654 182.18 159.176 182.37 159.616 182.58C160.055 182.79 160.417 183.027 160.7 183.291C160.988 183.549 161.2 183.845 161.337 184.177C161.479 184.504 161.549 184.875 161.549 185.29C161.549 185.725 161.461 186.118 161.286 186.469C161.11 186.821 160.858 187.121 160.531 187.37C160.204 187.619 159.811 187.812 159.352 187.949C158.898 188.081 158.39 188.146 157.829 188.146C157.335 188.146 156.85 188.078 156.371 187.941C155.897 187.805 155.465 187.6 155.075 187.326C154.689 187.053 154.379 186.716 154.145 186.315C153.915 185.91 153.8 185.441 153.8 184.909H155.207C155.207 185.275 155.277 185.59 155.419 185.854C155.561 186.113 155.753 186.328 155.998 186.499C156.247 186.669 156.527 186.796 156.84 186.879C157.157 186.958 157.487 186.997 157.829 186.997C158.322 186.997 158.739 186.928 159.081 186.792C159.423 186.655 159.682 186.459 159.857 186.206C160.038 185.952 160.128 185.651 160.128 185.305ZM167.819 186.645V182.565C167.819 182.253 167.755 181.982 167.628 181.752C167.506 181.518 167.321 181.337 167.072 181.21C166.823 181.083 166.515 181.02 166.149 181.02C165.807 181.02 165.507 181.079 165.248 181.196C164.994 181.313 164.794 181.467 164.647 181.657C164.506 181.848 164.435 182.053 164.435 182.272H163.08C163.08 181.989 163.153 181.708 163.3 181.43C163.446 181.152 163.656 180.9 163.93 180.676C164.208 180.446 164.54 180.266 164.926 180.134C165.316 179.997 165.751 179.929 166.229 179.929C166.806 179.929 167.313 180.026 167.753 180.222C168.197 180.417 168.544 180.712 168.793 181.108C169.047 181.499 169.174 181.989 169.174 182.58V186.271C169.174 186.535 169.196 186.816 169.24 187.114C169.289 187.412 169.359 187.668 169.452 187.883V188H168.039C167.97 187.844 167.917 187.636 167.877 187.377C167.838 187.114 167.819 186.87 167.819 186.645ZM168.053 183.195L168.068 184.147H166.698C166.312 184.147 165.968 184.179 165.666 184.243C165.363 184.301 165.109 184.392 164.904 184.514C164.699 184.636 164.542 184.79 164.435 184.975C164.328 185.156 164.274 185.368 164.274 185.612C164.274 185.861 164.33 186.088 164.442 186.293C164.555 186.499 164.723 186.662 164.948 186.784C165.177 186.901 165.458 186.96 165.79 186.96C166.205 186.96 166.571 186.872 166.889 186.696C167.206 186.521 167.458 186.306 167.643 186.052C167.833 185.798 167.936 185.551 167.951 185.312L168.529 185.964C168.495 186.169 168.402 186.396 168.251 186.645C168.1 186.894 167.897 187.133 167.643 187.363C167.394 187.587 167.096 187.775 166.75 187.927C166.408 188.073 166.022 188.146 165.592 188.146C165.055 188.146 164.584 188.042 164.179 187.832C163.778 187.622 163.466 187.341 163.241 186.989C163.021 186.633 162.912 186.235 162.912 185.795C162.912 185.371 162.995 184.997 163.161 184.675C163.327 184.348 163.566 184.077 163.878 183.862C164.191 183.642 164.567 183.476 165.006 183.364C165.446 183.251 165.937 183.195 166.479 183.195H168.053ZM173.598 186.777L175.766 180.075H177.15L174.301 188H173.393L173.598 186.777ZM171.789 180.075L174.022 186.813L174.176 188H173.268L170.397 180.075H171.789ZM179.926 180.075V188H178.563V180.075H179.926ZM178.461 177.973C178.461 177.753 178.527 177.568 178.659 177.417C178.795 177.265 178.996 177.189 179.259 177.189C179.518 177.189 179.716 177.265 179.853 177.417C179.994 177.568 180.065 177.753 180.065 177.973C180.065 178.183 179.994 178.364 179.853 178.515C179.716 178.662 179.518 178.735 179.259 178.735C178.996 178.735 178.795 178.662 178.659 178.515C178.527 178.364 178.461 178.183 178.461 177.973ZM183.456 181.767V188H182.101V180.075H183.383L183.456 181.767ZM183.134 183.737L182.57 183.715C182.575 183.173 182.655 182.673 182.812 182.214C182.968 181.75 183.188 181.347 183.471 181.005C183.754 180.664 184.091 180.4 184.481 180.214C184.877 180.024 185.314 179.929 185.792 179.929C186.183 179.929 186.535 179.982 186.847 180.09C187.16 180.192 187.426 180.358 187.646 180.588C187.87 180.817 188.041 181.115 188.158 181.481C188.275 181.843 188.334 182.285 188.334 182.807V188H186.972V182.792C186.972 182.377 186.911 182.045 186.789 181.796C186.667 181.542 186.488 181.359 186.254 181.247C186.02 181.13 185.731 181.071 185.39 181.071C185.053 181.071 184.745 181.142 184.467 181.284C184.193 181.425 183.957 181.621 183.756 181.87C183.561 182.119 183.407 182.404 183.295 182.727C183.188 183.044 183.134 183.381 183.134 183.737ZM195.526 180.075H196.757V187.832C196.757 188.53 196.615 189.125 196.332 189.619C196.049 190.112 195.653 190.485 195.146 190.739C194.643 190.998 194.062 191.127 193.402 191.127C193.129 191.127 192.807 191.083 192.436 190.996C192.069 190.913 191.708 190.769 191.352 190.563C191 190.363 190.705 190.092 190.465 189.75L191.176 188.945C191.508 189.345 191.854 189.624 192.216 189.78C192.582 189.936 192.943 190.014 193.3 190.014C193.729 190.014 194.101 189.934 194.413 189.772C194.726 189.611 194.967 189.372 195.138 189.055C195.314 188.742 195.402 188.356 195.402 187.897V181.818L195.526 180.075ZM190.07 184.125V183.972C190.07 183.366 190.141 182.817 190.282 182.324C190.429 181.826 190.636 181.398 190.905 181.042C191.178 180.686 191.508 180.412 191.894 180.222C192.279 180.026 192.714 179.929 193.197 179.929C193.695 179.929 194.13 180.017 194.501 180.192C194.877 180.363 195.194 180.615 195.453 180.947C195.717 181.274 195.924 181.669 196.076 182.133C196.227 182.597 196.332 183.122 196.391 183.708V184.382C196.337 184.963 196.232 185.485 196.076 185.949C195.924 186.413 195.717 186.809 195.453 187.136C195.194 187.463 194.877 187.714 194.501 187.89C194.125 188.061 193.686 188.146 193.183 188.146C192.709 188.146 192.279 188.046 191.894 187.846C191.513 187.646 191.186 187.365 190.912 187.004C190.639 186.643 190.429 186.218 190.282 185.729C190.141 185.236 190.07 184.702 190.07 184.125ZM191.425 183.972V184.125C191.425 184.521 191.464 184.892 191.542 185.239C191.625 185.585 191.75 185.891 191.916 186.154C192.086 186.418 192.304 186.625 192.567 186.777C192.831 186.923 193.146 186.997 193.512 186.997C193.961 186.997 194.333 186.901 194.625 186.711C194.918 186.521 195.15 186.269 195.321 185.957C195.497 185.644 195.634 185.305 195.731 184.938V183.173C195.678 182.905 195.595 182.646 195.482 182.397C195.375 182.143 195.233 181.918 195.058 181.723C194.887 181.523 194.674 181.364 194.42 181.247C194.167 181.13 193.869 181.071 193.527 181.071C193.156 181.071 192.836 181.149 192.567 181.306C192.304 181.457 192.086 181.667 191.916 181.936C191.75 182.199 191.625 182.507 191.542 182.858C191.464 183.205 191.425 183.576 191.425 183.972ZM202.477 187.282C202.477 187.053 202.548 186.86 202.689 186.704C202.836 186.542 203.046 186.462 203.319 186.462C203.593 186.462 203.8 186.542 203.942 186.704C204.088 186.86 204.162 187.053 204.162 187.282C204.162 187.507 204.088 187.697 203.942 187.854C203.8 188.01 203.593 188.088 203.319 188.088C203.046 188.088 202.836 188.01 202.689 187.854C202.548 187.697 202.477 187.507 202.477 187.282ZM202.484 180.815C202.484 180.585 202.555 180.393 202.697 180.236C202.843 180.075 203.053 179.995 203.327 179.995C203.6 179.995 203.808 180.075 203.949 180.236C204.096 180.393 204.169 180.585 204.169 180.815C204.169 181.04 204.096 181.23 203.949 181.386C203.808 181.542 203.6 181.621 203.327 181.621C203.053 181.621 202.843 181.542 202.697 181.386C202.555 181.23 202.484 181.04 202.484 180.815Z" fill="#737373"/>
<path d="M220 176.586V188H218.117V178.82L215.328 179.766V178.211L219.773 176.586H220ZM231.578 186.5V188H223.953V186.711L227.656 182.672C228.062 182.214 228.383 181.818 228.617 181.484C228.852 181.151 229.016 180.852 229.109 180.586C229.208 180.315 229.258 180.052 229.258 179.797C229.258 179.438 229.19 179.122 229.055 178.852C228.924 178.576 228.732 178.359 228.477 178.203C228.221 178.042 227.911 177.961 227.547 177.961C227.125 177.961 226.771 178.052 226.484 178.234C226.198 178.417 225.982 178.669 225.836 178.992C225.69 179.31 225.617 179.674 225.617 180.086H223.734C223.734 179.424 223.885 178.82 224.188 178.273C224.49 177.721 224.927 177.284 225.5 176.961C226.073 176.633 226.763 176.469 227.57 176.469C228.331 176.469 228.977 176.596 229.508 176.852C230.039 177.107 230.443 177.469 230.719 177.938C231 178.406 231.141 178.961 231.141 179.602C231.141 179.956 231.083 180.307 230.969 180.656C230.854 181.005 230.69 181.354 230.477 181.703C230.268 182.047 230.021 182.393 229.734 182.742C229.448 183.086 229.133 183.435 228.789 183.789L226.328 186.5H231.578ZM240.461 181.359V183.219C240.461 184.109 240.372 184.87 240.195 185.5C240.023 186.125 239.773 186.633 239.445 187.023C239.117 187.414 238.724 187.701 238.266 187.883C237.812 188.065 237.305 188.156 236.742 188.156C236.294 188.156 235.878 188.099 235.492 187.984C235.112 187.87 234.768 187.69 234.461 187.445C234.154 187.201 233.891 186.885 233.672 186.5C233.458 186.109 233.292 185.643 233.172 185.102C233.057 184.56 233 183.932 233 183.219V181.359C233 180.464 233.089 179.708 233.266 179.094C233.443 178.474 233.695 177.971 234.023 177.586C234.352 177.195 234.742 176.911 235.195 176.734C235.654 176.557 236.164 176.469 236.727 176.469C237.18 176.469 237.596 176.526 237.977 176.641C238.362 176.75 238.706 176.924 239.008 177.164C239.315 177.404 239.576 177.716 239.789 178.102C240.008 178.482 240.174 178.943 240.289 179.484C240.404 180.021 240.461 180.646 240.461 181.359ZM238.578 183.484V181.078C238.578 180.625 238.552 180.227 238.5 179.883C238.448 179.534 238.37 179.24 238.266 179C238.167 178.755 238.042 178.557 237.891 178.406C237.74 178.25 237.568 178.138 237.375 178.07C237.182 177.997 236.966 177.961 236.727 177.961C236.435 177.961 236.174 178.018 235.945 178.133C235.716 178.242 235.523 178.419 235.367 178.664C235.211 178.909 235.091 179.232 235.008 179.633C234.93 180.029 234.891 180.51 234.891 181.078V183.484C234.891 183.943 234.917 184.346 234.969 184.695C235.021 185.044 235.099 185.344 235.203 185.594C235.307 185.839 235.432 186.042 235.578 186.203C235.729 186.359 235.901 186.474 236.094 186.547C236.292 186.62 236.508 186.656 236.742 186.656C237.039 186.656 237.302 186.599 237.531 186.484C237.76 186.37 237.953 186.188 238.109 185.938C238.266 185.682 238.383 185.352 238.461 184.945C238.539 184.539 238.578 184.052 238.578 183.484ZM242.328 187.062C242.328 186.771 242.427 186.526 242.625 186.328C242.823 186.125 243.091 186.023 243.43 186.023C243.773 186.023 244.042 186.125 244.234 186.328C244.432 186.526 244.531 186.771 244.531 187.062C244.531 187.354 244.432 187.599 244.234 187.797C244.042 187.995 243.773 188.094 243.43 188.094C243.091 188.094 242.823 187.995 242.625 187.797C242.427 187.599 242.328 187.354 242.328 187.062ZM254.031 184.898C254.031 185.607 253.867 186.203 253.539 186.688C253.211 187.172 252.763 187.539 252.195 187.789C251.633 188.034 250.997 188.156 250.289 188.156C249.581 188.156 248.943 188.034 248.375 187.789C247.807 187.539 247.359 187.172 247.031 186.688C246.703 186.203 246.539 185.607 246.539 184.898C246.539 184.43 246.63 184.005 246.812 183.625C246.995 183.24 247.253 182.909 247.586 182.633C247.924 182.352 248.32 182.135 248.773 181.984C249.232 181.833 249.732 181.758 250.273 181.758C250.992 181.758 251.635 181.891 252.203 182.156C252.771 182.422 253.216 182.789 253.539 183.258C253.867 183.727 254.031 184.273 254.031 184.898ZM252.141 184.805C252.141 184.424 252.062 184.091 251.906 183.805C251.75 183.518 251.531 183.297 251.25 183.141C250.969 182.984 250.643 182.906 250.273 182.906C249.898 182.906 249.573 182.984 249.297 183.141C249.021 183.297 248.805 183.518 248.648 183.805C248.497 184.091 248.422 184.424 248.422 184.805C248.422 185.19 248.497 185.523 248.648 185.805C248.799 186.081 249.016 186.292 249.297 186.438C249.578 186.583 249.909 186.656 250.289 186.656C250.669 186.656 250.997 186.583 251.273 186.438C251.549 186.292 251.763 186.081 251.914 185.805C252.065 185.523 252.141 185.19 252.141 184.805ZM253.773 179.617C253.773 180.185 253.622 180.69 253.32 181.133C253.023 181.576 252.612 181.924 252.086 182.18C251.56 182.43 250.961 182.555 250.289 182.555C249.612 182.555 249.008 182.43 248.477 182.18C247.951 181.924 247.536 181.576 247.234 181.133C246.938 180.69 246.789 180.185 246.789 179.617C246.789 178.94 246.938 178.37 247.234 177.906C247.536 177.438 247.951 177.081 248.477 176.836C249.003 176.591 249.604 176.469 250.281 176.469C250.958 176.469 251.56 176.591 252.086 176.836C252.612 177.081 253.023 177.438 253.32 177.906C253.622 178.37 253.773 178.94 253.773 179.617ZM251.891 179.68C251.891 179.341 251.823 179.044 251.688 178.789C251.557 178.529 251.372 178.326 251.133 178.18C250.893 178.034 250.609 177.961 250.281 177.961C249.953 177.961 249.669 178.031 249.43 178.172C249.19 178.312 249.005 178.51 248.875 178.766C248.745 179.021 248.68 179.326 248.68 179.68C248.68 180.029 248.745 180.333 248.875 180.594C249.005 180.849 249.19 181.049 249.43 181.195C249.674 181.341 249.961 181.414 250.289 181.414C250.617 181.414 250.901 181.341 251.141 181.195C251.38 181.049 251.565 180.849 251.695 180.594C251.826 180.333 251.891 180.029 251.891 179.68ZM260.766 176.625H262.516L265.805 185.398L269.086 176.625H270.836L266.492 188H265.102L260.766 176.625ZM259.969 176.625H261.633L261.922 184.219V188H259.969V176.625ZM269.969 176.625H271.641V188H269.68V184.219L269.969 176.625ZM278.234 182.859H275.336L275.32 181.43H277.852C278.279 181.43 278.641 181.367 278.938 181.242C279.24 181.112 279.469 180.927 279.625 180.688C279.781 180.443 279.859 180.148 279.859 179.805C279.859 179.424 279.786 179.115 279.641 178.875C279.495 178.635 279.271 178.461 278.969 178.352C278.672 178.242 278.292 178.188 277.828 178.188H275.93V188H273.969V176.625H277.828C278.453 176.625 279.01 176.685 279.5 176.805C279.995 176.924 280.414 177.112 280.758 177.367C281.107 177.617 281.37 177.935 281.547 178.32C281.729 178.706 281.82 179.164 281.82 179.695C281.82 180.164 281.708 180.594 281.484 180.984C281.26 181.37 280.93 181.685 280.492 181.93C280.055 182.174 279.51 182.32 278.859 182.367L278.234 182.859ZM278.148 188H274.719L275.602 186.445H278.148C278.591 186.445 278.961 186.372 279.258 186.227C279.555 186.076 279.776 185.87 279.922 185.609C280.073 185.344 280.148 185.034 280.148 184.68C280.148 184.31 280.083 183.99 279.953 183.719C279.823 183.443 279.617 183.232 279.336 183.086C279.055 182.935 278.688 182.859 278.234 182.859H276.031L276.047 181.43H278.914L279.359 181.969C279.984 181.99 280.497 182.128 280.898 182.383C281.305 182.638 281.607 182.969 281.805 183.375C282.003 183.781 282.102 184.219 282.102 184.688C282.102 185.411 281.943 186.018 281.625 186.508C281.312 186.997 280.862 187.37 280.273 187.625C279.685 187.875 278.977 188 278.148 188Z" fill="#333333"/>
<path d="M487.676 184.609H489.082C489.009 185.283 488.816 185.886 488.503 186.418C488.191 186.95 487.749 187.373 487.178 187.685C486.606 187.993 485.894 188.146 485.039 188.146C484.414 188.146 483.845 188.029 483.333 187.795C482.825 187.561 482.388 187.229 482.021 186.799C481.655 186.364 481.372 185.844 481.172 185.239C480.977 184.628 480.879 183.95 480.879 183.203V182.141C480.879 181.394 480.977 180.717 481.172 180.112C481.372 179.501 481.658 178.979 482.029 178.544C482.405 178.11 482.856 177.775 483.384 177.541C483.911 177.307 484.504 177.189 485.164 177.189C485.969 177.189 486.65 177.341 487.207 177.644C487.764 177.946 488.196 178.366 488.503 178.903C488.816 179.436 489.009 180.053 489.082 180.756H487.676C487.607 180.258 487.48 179.831 487.295 179.475C487.109 179.113 486.846 178.835 486.504 178.64C486.162 178.444 485.715 178.347 485.164 178.347C484.69 178.347 484.272 178.437 483.911 178.618C483.555 178.798 483.254 179.055 483.01 179.387C482.771 179.719 482.59 180.117 482.468 180.581C482.346 181.044 482.285 181.56 482.285 182.126V183.203C482.285 183.725 482.339 184.216 482.446 184.675C482.559 185.134 482.727 185.537 482.952 185.883C483.176 186.23 483.462 186.503 483.809 186.704C484.155 186.899 484.565 186.997 485.039 186.997C485.64 186.997 486.118 186.901 486.475 186.711C486.831 186.521 487.1 186.247 487.28 185.891C487.466 185.534 487.598 185.107 487.676 184.609ZM490.444 184.125V183.957C490.444 183.386 490.527 182.856 490.693 182.368C490.859 181.875 491.099 181.447 491.411 181.086C491.724 180.72 492.102 180.437 492.546 180.236C492.991 180.031 493.489 179.929 494.041 179.929C494.597 179.929 495.098 180.031 495.542 180.236C495.991 180.437 496.372 180.72 496.685 181.086C497.002 181.447 497.244 181.875 497.41 182.368C497.576 182.856 497.659 183.386 497.659 183.957V184.125C497.659 184.697 497.576 185.227 497.41 185.715C497.244 186.203 497.002 186.63 496.685 186.997C496.372 187.358 495.994 187.641 495.549 187.846C495.11 188.046 494.612 188.146 494.055 188.146C493.499 188.146 492.998 188.046 492.554 187.846C492.109 187.641 491.729 187.358 491.411 186.997C491.099 186.63 490.859 186.203 490.693 185.715C490.527 185.227 490.444 184.697 490.444 184.125ZM491.799 183.957V184.125C491.799 184.521 491.846 184.895 491.938 185.246C492.031 185.593 492.17 185.9 492.356 186.169C492.546 186.438 492.783 186.65 493.066 186.806C493.35 186.958 493.679 187.033 494.055 187.033C494.426 187.033 494.751 186.958 495.029 186.806C495.312 186.65 495.547 186.438 495.732 186.169C495.918 185.9 496.057 185.593 496.15 185.246C496.248 184.895 496.296 184.521 496.296 184.125V183.957C496.296 183.566 496.248 183.198 496.15 182.851C496.057 182.5 495.916 182.189 495.725 181.921C495.54 181.647 495.305 181.433 495.022 181.276C494.744 181.12 494.417 181.042 494.041 181.042C493.669 181.042 493.342 181.12 493.059 181.276C492.781 181.433 492.546 181.647 492.356 181.921C492.17 182.189 492.031 182.5 491.938 182.851C491.846 183.198 491.799 183.566 491.799 183.957ZM500.706 181.65V188H499.343V180.075H500.632L500.706 181.65ZM500.427 183.737L499.797 183.715C499.802 183.173 499.873 182.673 500.01 182.214C500.146 181.75 500.349 181.347 500.618 181.005C500.886 180.664 501.221 180.4 501.621 180.214C502.021 180.024 502.485 179.929 503.013 179.929C503.384 179.929 503.726 179.982 504.038 180.09C504.351 180.192 504.622 180.356 504.851 180.581C505.081 180.805 505.259 181.093 505.386 181.445C505.513 181.796 505.576 182.221 505.576 182.719V188H504.221V182.785C504.221 182.37 504.15 182.038 504.009 181.789C503.872 181.54 503.677 181.359 503.423 181.247C503.169 181.13 502.871 181.071 502.529 181.071C502.129 181.071 501.794 181.142 501.526 181.284C501.257 181.425 501.042 181.621 500.881 181.87C500.72 182.119 500.603 182.404 500.53 182.727C500.461 183.044 500.427 183.381 500.427 183.737ZM505.562 182.99L504.653 183.269C504.658 182.834 504.729 182.417 504.866 182.016C505.007 181.616 505.21 181.259 505.474 180.947C505.742 180.634 506.072 180.388 506.462 180.207C506.853 180.021 507.3 179.929 507.803 179.929C508.228 179.929 508.604 179.985 508.931 180.097C509.263 180.209 509.541 180.383 509.766 180.617C509.995 180.847 510.168 181.142 510.286 181.503C510.403 181.865 510.461 182.294 510.461 182.792V188H509.099V182.778C509.099 182.333 509.028 181.989 508.887 181.745C508.75 181.496 508.555 181.323 508.301 181.225C508.052 181.123 507.754 181.071 507.407 181.071C507.109 181.071 506.846 181.123 506.616 181.225C506.387 181.328 506.194 181.469 506.038 181.65C505.881 181.826 505.762 182.028 505.679 182.258C505.601 182.487 505.562 182.731 505.562 182.99ZM513.867 181.599V191.047H512.505V180.075H513.75L513.867 181.599ZM519.207 183.972V184.125C519.207 184.702 519.138 185.236 519.001 185.729C518.865 186.218 518.665 186.643 518.401 187.004C518.142 187.365 517.822 187.646 517.441 187.846C517.061 188.046 516.624 188.146 516.13 188.146C515.627 188.146 515.183 188.063 514.797 187.897C514.412 187.731 514.084 187.49 513.816 187.172C513.547 186.855 513.333 186.474 513.171 186.03C513.015 185.585 512.908 185.085 512.849 184.528V183.708C512.908 183.122 513.018 182.597 513.179 182.133C513.34 181.669 513.552 181.274 513.816 180.947C514.084 180.615 514.409 180.363 514.79 180.192C515.171 180.017 515.61 179.929 516.108 179.929C516.606 179.929 517.048 180.026 517.434 180.222C517.82 180.412 518.145 180.686 518.408 181.042C518.672 181.398 518.87 181.826 519.001 182.324C519.138 182.817 519.207 183.366 519.207 183.972ZM517.844 184.125V183.972C517.844 183.576 517.803 183.205 517.72 182.858C517.637 182.507 517.507 182.199 517.332 181.936C517.161 181.667 516.941 181.457 516.672 181.306C516.404 181.149 516.084 181.071 515.713 181.071C515.371 181.071 515.073 181.13 514.819 181.247C514.57 181.364 514.358 181.523 514.182 181.723C514.006 181.918 513.862 182.143 513.75 182.397C513.643 182.646 513.562 182.905 513.508 183.173V185.07C513.606 185.412 513.743 185.734 513.918 186.037C514.094 186.335 514.329 186.577 514.622 186.762C514.915 186.943 515.283 187.033 515.728 187.033C516.094 187.033 516.409 186.958 516.672 186.806C516.941 186.65 517.161 186.438 517.332 186.169C517.507 185.9 517.637 185.593 517.72 185.246C517.803 184.895 517.844 184.521 517.844 184.125ZM522.29 181.32V188H520.935V180.075H522.253L522.29 181.32ZM524.766 180.031L524.758 181.291C524.646 181.267 524.539 181.252 524.436 181.247C524.338 181.237 524.226 181.232 524.099 181.232C523.787 181.232 523.511 181.281 523.271 181.379C523.032 181.477 522.83 181.613 522.664 181.789C522.498 181.965 522.366 182.175 522.268 182.419C522.175 182.658 522.114 182.922 522.085 183.21L521.704 183.43C521.704 182.951 521.75 182.502 521.843 182.082C521.941 181.662 522.09 181.291 522.29 180.969C522.49 180.642 522.744 180.388 523.052 180.207C523.364 180.021 523.735 179.929 524.165 179.929C524.263 179.929 524.375 179.941 524.502 179.965C524.629 179.985 524.717 180.007 524.766 180.031ZM529.16 188.146C528.608 188.146 528.108 188.054 527.659 187.868C527.214 187.678 526.831 187.412 526.509 187.07C526.191 186.728 525.947 186.323 525.776 185.854C525.605 185.385 525.52 184.873 525.52 184.316V184.008C525.52 183.364 525.615 182.79 525.806 182.287C525.996 181.779 526.255 181.35 526.582 180.998C526.909 180.646 527.28 180.38 527.695 180.2C528.11 180.019 528.54 179.929 528.984 179.929C529.551 179.929 530.039 180.026 530.449 180.222C530.864 180.417 531.204 180.69 531.467 181.042C531.731 181.389 531.926 181.799 532.053 182.272C532.18 182.741 532.244 183.254 532.244 183.811V184.418H526.326V183.312H530.889V183.21C530.869 182.858 530.796 182.517 530.669 182.185C530.547 181.853 530.352 181.579 530.083 181.364C529.814 181.149 529.448 181.042 528.984 181.042C528.677 181.042 528.394 181.108 528.135 181.24C527.876 181.367 527.654 181.557 527.468 181.811C527.283 182.065 527.139 182.375 527.036 182.741C526.934 183.107 526.882 183.53 526.882 184.008V184.316C526.882 184.692 526.934 185.046 527.036 185.378C527.144 185.705 527.297 185.993 527.498 186.242C527.703 186.491 527.949 186.687 528.237 186.828C528.53 186.97 528.862 187.041 529.233 187.041C529.712 187.041 530.117 186.943 530.449 186.748C530.781 186.552 531.072 186.291 531.321 185.964L532.141 186.616C531.97 186.875 531.753 187.121 531.489 187.355C531.226 187.59 530.901 187.78 530.515 187.927C530.134 188.073 529.683 188.146 529.16 188.146ZM538.44 185.898C538.44 185.703 538.396 185.522 538.308 185.356C538.225 185.185 538.052 185.031 537.788 184.895C537.529 184.753 537.139 184.631 536.616 184.528C536.177 184.436 535.779 184.326 535.422 184.199C535.071 184.072 534.771 183.918 534.521 183.737C534.277 183.557 534.089 183.344 533.958 183.1C533.826 182.856 533.76 182.57 533.76 182.243C533.76 181.931 533.828 181.635 533.965 181.357C534.106 181.079 534.304 180.832 534.558 180.617C534.817 180.402 535.127 180.234 535.488 180.112C535.85 179.99 536.252 179.929 536.697 179.929C537.332 179.929 537.874 180.041 538.323 180.266C538.772 180.49 539.116 180.791 539.355 181.167C539.595 181.538 539.714 181.95 539.714 182.404H538.359C538.359 182.185 538.293 181.972 538.162 181.767C538.035 181.557 537.847 181.384 537.598 181.247C537.354 181.11 537.053 181.042 536.697 181.042C536.321 181.042 536.016 181.101 535.781 181.218C535.552 181.33 535.383 181.474 535.276 181.65C535.173 181.826 535.122 182.011 535.122 182.207C535.122 182.353 535.146 182.485 535.195 182.602C535.249 182.714 535.342 182.819 535.474 182.917C535.605 183.01 535.791 183.098 536.03 183.181C536.27 183.264 536.575 183.347 536.946 183.43C537.595 183.576 538.13 183.752 538.55 183.957C538.97 184.162 539.282 184.414 539.487 184.711C539.692 185.009 539.795 185.371 539.795 185.795C539.795 186.142 539.722 186.459 539.575 186.748C539.434 187.036 539.226 187.285 538.953 187.495C538.684 187.7 538.362 187.861 537.986 187.978C537.615 188.09 537.197 188.146 536.733 188.146C536.035 188.146 535.444 188.022 534.961 187.773C534.478 187.524 534.111 187.202 533.862 186.806C533.613 186.411 533.489 185.993 533.489 185.554H534.851C534.871 185.925 534.978 186.22 535.173 186.44C535.369 186.655 535.608 186.809 535.891 186.901C536.174 186.989 536.455 187.033 536.733 187.033C537.104 187.033 537.415 186.984 537.664 186.887C537.917 186.789 538.11 186.655 538.242 186.484C538.374 186.313 538.44 186.118 538.44 185.898ZM546.189 185.898C546.189 185.703 546.145 185.522 546.057 185.356C545.974 185.185 545.801 185.031 545.537 184.895C545.278 184.753 544.888 184.631 544.365 184.528C543.926 184.436 543.528 184.326 543.171 184.199C542.82 184.072 542.52 183.918 542.271 183.737C542.026 183.557 541.838 183.344 541.707 183.1C541.575 182.856 541.509 182.57 541.509 182.243C541.509 181.931 541.577 181.635 541.714 181.357C541.855 181.079 542.053 180.832 542.307 180.617C542.566 180.402 542.876 180.234 543.237 180.112C543.599 179.99 544.001 179.929 544.446 179.929C545.081 179.929 545.623 180.041 546.072 180.266C546.521 180.49 546.865 180.791 547.104 181.167C547.344 181.538 547.463 181.95 547.463 182.404H546.108C546.108 182.185 546.042 181.972 545.911 181.767C545.784 181.557 545.596 181.384 545.347 181.247C545.103 181.11 544.802 181.042 544.446 181.042C544.07 181.042 543.765 181.101 543.53 181.218C543.301 181.33 543.132 181.474 543.025 181.65C542.922 181.826 542.871 182.011 542.871 182.207C542.871 182.353 542.896 182.485 542.944 182.602C542.998 182.714 543.091 182.819 543.223 182.917C543.354 183.01 543.54 183.098 543.779 183.181C544.019 183.264 544.324 183.347 544.695 183.43C545.344 183.576 545.879 183.752 546.299 183.957C546.719 184.162 547.031 184.414 547.236 184.711C547.441 185.009 547.544 185.371 547.544 185.795C547.544 186.142 547.471 186.459 547.324 186.748C547.183 187.036 546.975 187.285 546.702 187.495C546.433 187.7 546.111 187.861 545.735 187.978C545.364 188.09 544.946 188.146 544.482 188.146C543.784 188.146 543.193 188.022 542.71 187.773C542.227 187.524 541.86 187.202 541.611 186.806C541.362 186.411 541.238 185.993 541.238 185.554H542.6C542.62 185.925 542.727 186.22 542.922 186.44C543.118 186.655 543.357 186.809 543.64 186.901C543.923 186.989 544.204 187.033 544.482 187.033C544.854 187.033 545.164 186.984 545.413 186.887C545.667 186.789 545.859 186.655 545.991 186.484C546.123 186.313 546.189 186.118 546.189 185.898ZM550.796 180.075V188H549.434V180.075H550.796ZM549.331 177.973C549.331 177.753 549.397 177.568 549.529 177.417C549.666 177.265 549.866 177.189 550.129 177.189C550.388 177.189 550.586 177.265 550.723 177.417C550.864 177.568 550.935 177.753 550.935 177.973C550.935 178.183 550.864 178.364 550.723 178.515C550.586 178.662 550.388 178.735 550.129 178.735C549.866 178.735 549.666 178.662 549.529 178.515C549.397 178.364 549.331 178.183 549.331 177.973ZM552.612 184.125V183.957C552.612 183.386 552.695 182.856 552.861 182.368C553.027 181.875 553.267 181.447 553.579 181.086C553.892 180.72 554.27 180.437 554.714 180.236C555.159 180.031 555.657 179.929 556.208 179.929C556.765 179.929 557.266 180.031 557.71 180.236C558.159 180.437 558.54 180.72 558.853 181.086C559.17 181.447 559.412 181.875 559.578 182.368C559.744 182.856 559.827 183.386 559.827 183.957V184.125C559.827 184.697 559.744 185.227 559.578 185.715C559.412 186.203 559.17 186.63 558.853 186.997C558.54 187.358 558.162 187.641 557.717 187.846C557.278 188.046 556.78 188.146 556.223 188.146C555.667 188.146 555.166 188.046 554.722 187.846C554.277 187.641 553.896 187.358 553.579 186.997C553.267 186.63 553.027 186.203 552.861 185.715C552.695 185.227 552.612 184.697 552.612 184.125ZM553.967 183.957V184.125C553.967 184.521 554.014 184.895 554.106 185.246C554.199 185.593 554.338 185.9 554.524 186.169C554.714 186.438 554.951 186.65 555.234 186.806C555.518 186.958 555.847 187.033 556.223 187.033C556.594 187.033 556.919 186.958 557.197 186.806C557.48 186.65 557.715 186.438 557.9 186.169C558.086 185.9 558.225 185.593 558.318 185.246C558.416 184.895 558.464 184.521 558.464 184.125V183.957C558.464 183.566 558.416 183.198 558.318 182.851C558.225 182.5 558.083 182.189 557.893 181.921C557.708 181.647 557.473 181.433 557.19 181.276C556.912 181.12 556.584 181.042 556.208 181.042C555.837 181.042 555.51 181.12 555.227 181.276C554.949 181.433 554.714 181.647 554.524 181.921C554.338 182.189 554.199 182.5 554.106 182.851C554.014 183.198 553.967 183.566 553.967 183.957ZM562.881 181.767V188H561.526V180.075H562.808L562.881 181.767ZM562.559 183.737L561.995 183.715C562 183.173 562.08 182.673 562.236 182.214C562.393 181.75 562.612 181.347 562.896 181.005C563.179 180.664 563.516 180.4 563.906 180.214C564.302 180.024 564.739 179.929 565.217 179.929C565.608 179.929 565.959 179.982 566.272 180.09C566.584 180.192 566.851 180.358 567.07 180.588C567.295 180.817 567.466 181.115 567.583 181.481C567.7 181.843 567.759 182.285 567.759 182.807V188H566.396V182.792C566.396 182.377 566.335 182.045 566.213 181.796C566.091 181.542 565.913 181.359 565.679 181.247C565.444 181.13 565.156 181.071 564.814 181.071C564.478 181.071 564.17 181.142 563.892 181.284C563.618 181.425 563.381 181.621 563.181 181.87C562.986 182.119 562.832 182.404 562.72 182.727C562.612 183.044 562.559 183.381 562.559 183.737ZM577.39 177.336V188H575.999V177.336H577.39ZM580.818 177.336V178.493H572.578V177.336H580.818ZM583.894 187.18L586.099 180.075H587.549L584.37 189.223C584.297 189.418 584.199 189.628 584.077 189.853C583.96 190.083 583.809 190.3 583.623 190.505C583.438 190.71 583.213 190.876 582.949 191.003C582.69 191.135 582.38 191.201 582.019 191.201C581.912 191.201 581.775 191.186 581.609 191.157C581.443 191.127 581.326 191.103 581.257 191.083L581.25 189.985C581.289 189.99 581.35 189.995 581.433 190C581.521 190.009 581.582 190.014 581.616 190.014C581.924 190.014 582.185 189.973 582.4 189.89C582.615 189.812 582.795 189.677 582.942 189.487C583.093 189.301 583.223 189.045 583.33 188.718L583.894 187.18ZM582.275 180.075L584.333 186.228L584.685 187.656L583.711 188.154L580.796 180.075H582.275ZM590.127 181.599V191.047H588.765V180.075H590.01L590.127 181.599ZM595.466 183.972V184.125C595.466 184.702 595.398 185.236 595.261 185.729C595.125 186.218 594.924 186.643 594.661 187.004C594.402 187.365 594.082 187.646 593.701 187.846C593.32 188.046 592.883 188.146 592.39 188.146C591.887 188.146 591.443 188.063 591.057 187.897C590.671 187.731 590.344 187.49 590.076 187.172C589.807 186.855 589.592 186.474 589.431 186.03C589.275 185.585 589.167 185.085 589.109 184.528V183.708C589.167 183.122 589.277 182.597 589.438 182.133C589.6 181.669 589.812 181.274 590.076 180.947C590.344 180.615 590.669 180.363 591.05 180.192C591.431 180.017 591.87 179.929 592.368 179.929C592.866 179.929 593.308 180.026 593.694 180.222C594.08 180.412 594.404 180.686 594.668 181.042C594.932 181.398 595.129 181.826 595.261 182.324C595.398 182.817 595.466 183.366 595.466 183.972ZM594.104 184.125V183.972C594.104 183.576 594.062 183.205 593.979 182.858C593.896 182.507 593.767 182.199 593.591 181.936C593.42 181.667 593.201 181.457 592.932 181.306C592.664 181.149 592.344 181.071 591.973 181.071C591.631 181.071 591.333 181.13 591.079 181.247C590.83 181.364 590.618 181.523 590.442 181.723C590.266 181.918 590.122 182.143 590.01 182.397C589.902 182.646 589.822 182.905 589.768 183.173V185.07C589.866 185.412 590.002 185.734 590.178 186.037C590.354 186.335 590.588 186.577 590.881 186.762C591.174 186.943 591.543 187.033 591.987 187.033C592.354 187.033 592.668 186.958 592.932 186.806C593.201 186.65 593.42 186.438 593.591 186.169C593.767 185.9 593.896 185.593 593.979 185.246C594.062 184.895 594.104 184.521 594.104 184.125ZM600.483 188.146C599.932 188.146 599.431 188.054 598.982 187.868C598.538 187.678 598.154 187.412 597.832 187.07C597.515 186.728 597.271 186.323 597.1 185.854C596.929 185.385 596.843 184.873 596.843 184.316V184.008C596.843 183.364 596.938 182.79 597.129 182.287C597.319 181.779 597.578 181.35 597.905 180.998C598.232 180.646 598.604 180.38 599.019 180.2C599.434 180.019 599.863 179.929 600.308 179.929C600.874 179.929 601.362 180.026 601.772 180.222C602.188 180.417 602.527 180.69 602.791 181.042C603.054 181.389 603.25 181.799 603.376 182.272C603.503 182.741 603.567 183.254 603.567 183.811V184.418H597.649V183.312H602.212V183.21C602.192 182.858 602.119 182.517 601.992 182.185C601.87 181.853 601.675 181.579 601.406 181.364C601.138 181.149 600.771 181.042 600.308 181.042C600 181.042 599.717 181.108 599.458 181.24C599.199 181.367 598.977 181.557 598.792 181.811C598.606 182.065 598.462 182.375 598.359 182.741C598.257 183.107 598.206 183.53 598.206 184.008V184.316C598.206 184.692 598.257 185.046 598.359 185.378C598.467 185.705 598.621 185.993 598.821 186.242C599.026 186.491 599.272 186.687 599.561 186.828C599.854 186.97 600.186 187.041 600.557 187.041C601.035 187.041 601.44 186.943 601.772 186.748C602.104 186.552 602.395 186.291 602.644 185.964L603.464 186.616C603.293 186.875 603.076 187.121 602.812 187.355C602.549 187.59 602.224 187.78 601.838 187.927C601.458 188.073 601.006 188.146 600.483 188.146ZM608.811 187.282C608.811 187.053 608.882 186.86 609.023 186.704C609.17 186.542 609.38 186.462 609.653 186.462C609.927 186.462 610.134 186.542 610.276 186.704C610.422 186.86 610.496 187.053 610.496 187.282C610.496 187.507 610.422 187.697 610.276 187.854C610.134 188.01 609.927 188.088 609.653 188.088C609.38 188.088 609.17 188.01 609.023 187.854C608.882 187.697 608.811 187.507 608.811 187.282ZM608.818 180.815C608.818 180.585 608.889 180.393 609.031 180.236C609.177 180.075 609.387 179.995 609.661 179.995C609.934 179.995 610.142 180.075 610.283 180.236C610.43 180.393 610.503 180.585 610.503 180.815C610.503 181.04 610.43 181.23 610.283 181.386C610.142 181.542 609.934 181.621 609.661 181.621C609.387 181.621 609.177 181.542 609.031 181.386C608.889 181.23 608.818 181.04 608.818 180.815Z" fill="#737373"/>
<path d="M628.281 186.445V188H622.57V186.445H628.281ZM623.117 176.625V188H621.156V176.625H623.117ZM629.25 183.867V183.688C629.25 183.078 629.339 182.513 629.516 181.992C629.693 181.466 629.948 181.01 630.281 180.625C630.62 180.234 631.031 179.932 631.516 179.719C632.005 179.5 632.557 179.391 633.172 179.391C633.792 179.391 634.344 179.5 634.828 179.719C635.318 179.932 635.732 180.234 636.07 180.625C636.409 181.01 636.667 181.466 636.844 181.992C637.021 182.513 637.109 183.078 637.109 183.688V183.867C637.109 184.477 637.021 185.042 636.844 185.562C636.667 186.083 636.409 186.539 636.07 186.93C635.732 187.315 635.32 187.617 634.836 187.836C634.352 188.049 633.802 188.156 633.188 188.156C632.568 188.156 632.013 188.049 631.523 187.836C631.039 187.617 630.628 187.315 630.289 186.93C629.951 186.539 629.693 186.083 629.516 185.562C629.339 185.042 629.25 184.477 629.25 183.867ZM631.133 183.688V183.867C631.133 184.247 631.172 184.607 631.25 184.945C631.328 185.284 631.451 185.581 631.617 185.836C631.784 186.091 631.997 186.292 632.258 186.438C632.518 186.583 632.828 186.656 633.188 186.656C633.536 186.656 633.839 186.583 634.094 186.438C634.354 186.292 634.568 186.091 634.734 185.836C634.901 185.581 635.023 185.284 635.102 184.945C635.185 184.607 635.227 184.247 635.227 183.867V183.688C635.227 183.312 635.185 182.958 635.102 182.625C635.023 182.286 634.898 181.987 634.727 181.727C634.56 181.466 634.346 181.263 634.086 181.117C633.831 180.966 633.526 180.891 633.172 180.891C632.818 180.891 632.51 180.966 632.25 181.117C631.995 181.263 631.784 181.466 631.617 181.727C631.451 181.987 631.328 182.286 631.25 182.625C631.172 182.958 631.133 183.312 631.133 183.688ZM643.43 185.711C643.43 185.523 643.383 185.354 643.289 185.203C643.195 185.047 643.016 184.906 642.75 184.781C642.49 184.656 642.104 184.542 641.594 184.438C641.146 184.339 640.734 184.221 640.359 184.086C639.99 183.945 639.672 183.776 639.406 183.578C639.141 183.38 638.935 183.146 638.789 182.875C638.643 182.604 638.57 182.292 638.57 181.938C638.57 181.594 638.646 181.268 638.797 180.961C638.948 180.654 639.164 180.383 639.445 180.148C639.727 179.914 640.068 179.729 640.469 179.594C640.875 179.458 641.328 179.391 641.828 179.391C642.536 179.391 643.143 179.51 643.648 179.75C644.159 179.984 644.549 180.305 644.82 180.711C645.091 181.112 645.227 181.565 645.227 182.07H643.344C643.344 181.846 643.286 181.638 643.172 181.445C643.062 181.247 642.896 181.089 642.672 180.969C642.448 180.844 642.167 180.781 641.828 180.781C641.505 180.781 641.237 180.833 641.023 180.938C640.815 181.036 640.659 181.167 640.555 181.328C640.456 181.49 640.406 181.667 640.406 181.859C640.406 182 640.432 182.128 640.484 182.242C640.542 182.352 640.635 182.453 640.766 182.547C640.896 182.635 641.073 182.719 641.297 182.797C641.526 182.875 641.812 182.951 642.156 183.023C642.802 183.159 643.357 183.333 643.82 183.547C644.289 183.755 644.648 184.026 644.898 184.359C645.148 184.688 645.273 185.104 645.273 185.609C645.273 185.984 645.193 186.328 645.031 186.641C644.875 186.948 644.646 187.216 644.344 187.445C644.042 187.669 643.68 187.844 643.258 187.969C642.841 188.094 642.372 188.156 641.852 188.156C641.086 188.156 640.438 188.021 639.906 187.75C639.375 187.474 638.971 187.122 638.695 186.695C638.424 186.263 638.289 185.815 638.289 185.352H640.109C640.13 185.701 640.227 185.979 640.398 186.188C640.576 186.391 640.794 186.539 641.055 186.633C641.32 186.721 641.594 186.766 641.875 186.766C642.214 186.766 642.497 186.721 642.727 186.633C642.956 186.539 643.13 186.414 643.25 186.258C643.37 186.096 643.43 185.914 643.43 185.711ZM651.664 185.711C651.664 185.523 651.617 185.354 651.523 185.203C651.43 185.047 651.25 184.906 650.984 184.781C650.724 184.656 650.339 184.542 649.828 184.438C649.38 184.339 648.969 184.221 648.594 184.086C648.224 183.945 647.906 183.776 647.641 183.578C647.375 183.38 647.169 183.146 647.023 182.875C646.878 182.604 646.805 182.292 646.805 181.938C646.805 181.594 646.88 181.268 647.031 180.961C647.182 180.654 647.398 180.383 647.68 180.148C647.961 179.914 648.302 179.729 648.703 179.594C649.109 179.458 649.562 179.391 650.062 179.391C650.771 179.391 651.378 179.51 651.883 179.75C652.393 179.984 652.784 180.305 653.055 180.711C653.326 181.112 653.461 181.565 653.461 182.07H651.578C651.578 181.846 651.521 181.638 651.406 181.445C651.297 181.247 651.13 181.089 650.906 180.969C650.682 180.844 650.401 180.781 650.062 180.781C649.74 180.781 649.471 180.833 649.258 180.938C649.049 181.036 648.893 181.167 648.789 181.328C648.69 181.49 648.641 181.667 648.641 181.859C648.641 182 648.667 182.128 648.719 182.242C648.776 182.352 648.87 182.453 649 182.547C649.13 182.635 649.307 182.719 649.531 182.797C649.76 182.875 650.047 182.951 650.391 183.023C651.036 183.159 651.591 183.333 652.055 183.547C652.523 183.755 652.883 184.026 653.133 184.359C653.383 184.688 653.508 185.104 653.508 185.609C653.508 185.984 653.427 186.328 653.266 186.641C653.109 186.948 652.88 187.216 652.578 187.445C652.276 187.669 651.914 187.844 651.492 187.969C651.076 188.094 650.607 188.156 650.086 188.156C649.32 188.156 648.672 188.021 648.141 187.75C647.609 187.474 647.206 187.122 646.93 186.695C646.659 186.263 646.523 185.815 646.523 185.352H648.344C648.365 185.701 648.461 185.979 648.633 186.188C648.81 186.391 649.029 186.539 649.289 186.633C649.555 186.721 649.828 186.766 650.109 186.766C650.448 186.766 650.732 186.721 650.961 186.633C651.19 186.539 651.365 186.414 651.484 186.258C651.604 186.096 651.664 185.914 651.664 185.711ZM657.172 176V188H655.281V176H657.172ZM662.961 188.156C662.336 188.156 661.771 188.055 661.266 187.852C660.766 187.643 660.339 187.354 659.984 186.984C659.635 186.615 659.367 186.18 659.18 185.68C658.992 185.18 658.898 184.641 658.898 184.062V183.75C658.898 183.089 658.995 182.49 659.188 181.953C659.38 181.417 659.648 180.958 659.992 180.578C660.336 180.193 660.742 179.898 661.211 179.695C661.68 179.492 662.188 179.391 662.734 179.391C663.339 179.391 663.867 179.492 664.32 179.695C664.773 179.898 665.148 180.185 665.445 180.555C665.747 180.919 665.971 181.354 666.117 181.859C666.268 182.365 666.344 182.922 666.344 183.531V184.336H659.812V182.984H664.484V182.836C664.474 182.497 664.406 182.18 664.281 181.883C664.161 181.586 663.977 181.346 663.727 181.164C663.477 180.982 663.143 180.891 662.727 180.891C662.414 180.891 662.135 180.958 661.891 181.094C661.651 181.224 661.451 181.414 661.289 181.664C661.128 181.914 661.003 182.216 660.914 182.57C660.831 182.919 660.789 183.312 660.789 183.75V184.062C660.789 184.432 660.839 184.776 660.938 185.094C661.042 185.406 661.193 185.68 661.391 185.914C661.589 186.148 661.828 186.333 662.109 186.469C662.391 186.599 662.711 186.664 663.07 186.664C663.523 186.664 663.927 186.573 664.281 186.391C664.635 186.208 664.943 185.951 665.203 185.617L666.195 186.578C666.013 186.844 665.776 187.099 665.484 187.344C665.193 187.583 664.836 187.779 664.414 187.93C663.997 188.081 663.513 188.156 662.961 188.156ZM672.555 185.711C672.555 185.523 672.508 185.354 672.414 185.203C672.32 185.047 672.141 184.906 671.875 184.781C671.615 184.656 671.229 184.542 670.719 184.438C670.271 184.339 669.859 184.221 669.484 184.086C669.115 183.945 668.797 183.776 668.531 183.578C668.266 183.38 668.06 183.146 667.914 182.875C667.768 182.604 667.695 182.292 667.695 181.938C667.695 181.594 667.771 181.268 667.922 180.961C668.073 180.654 668.289 180.383 668.57 180.148C668.852 179.914 669.193 179.729 669.594 179.594C670 179.458 670.453 179.391 670.953 179.391C671.661 179.391 672.268 179.51 672.773 179.75C673.284 179.984 673.674 180.305 673.945 180.711C674.216 181.112 674.352 181.565 674.352 182.07H672.469C672.469 181.846 672.411 181.638 672.297 181.445C672.188 181.247 672.021 181.089 671.797 180.969C671.573 180.844 671.292 180.781 670.953 180.781C670.63 180.781 670.362 180.833 670.148 180.938C669.94 181.036 669.784 181.167 669.68 181.328C669.581 181.49 669.531 181.667 669.531 181.859C669.531 182 669.557 182.128 669.609 182.242C669.667 182.352 669.76 182.453 669.891 182.547C670.021 182.635 670.198 182.719 670.422 182.797C670.651 182.875 670.938 182.951 671.281 183.023C671.927 183.159 672.482 183.333 672.945 183.547C673.414 183.755 673.773 184.026 674.023 184.359C674.273 184.688 674.398 185.104 674.398 185.609C674.398 185.984 674.318 186.328 674.156 186.641C674 186.948 673.771 187.216 673.469 187.445C673.167 187.669 672.805 187.844 672.383 187.969C671.966 188.094 671.497 188.156 670.977 188.156C670.211 188.156 669.562 188.021 669.031 187.75C668.5 187.474 668.096 187.122 667.82 186.695C667.549 186.263 667.414 185.815 667.414 185.352H669.234C669.255 185.701 669.352 185.979 669.523 186.188C669.701 186.391 669.919 186.539 670.18 186.633C670.445 186.721 670.719 186.766 671 186.766C671.339 186.766 671.622 186.721 671.852 186.633C672.081 186.539 672.255 186.414 672.375 186.258C672.495 186.096 672.555 185.914 672.555 185.711ZM680.789 185.711C680.789 185.523 680.742 185.354 680.648 185.203C680.555 185.047 680.375 184.906 680.109 184.781C679.849 184.656 679.464 184.542 678.953 184.438C678.505 184.339 678.094 184.221 677.719 184.086C677.349 183.945 677.031 183.776 676.766 183.578C676.5 183.38 676.294 183.146 676.148 182.875C676.003 182.604 675.93 182.292 675.93 181.938C675.93 181.594 676.005 181.268 676.156 180.961C676.307 180.654 676.523 180.383 676.805 180.148C677.086 179.914 677.427 179.729 677.828 179.594C678.234 179.458 678.688 179.391 679.188 179.391C679.896 179.391 680.503 179.51 681.008 179.75C681.518 179.984 681.909 180.305 682.18 180.711C682.451 181.112 682.586 181.565 682.586 182.07H680.703C680.703 181.846 680.646 181.638 680.531 181.445C680.422 181.247 680.255 181.089 680.031 180.969C679.807 180.844 679.526 180.781 679.188 180.781C678.865 180.781 678.596 180.833 678.383 180.938C678.174 181.036 678.018 181.167 677.914 181.328C677.815 181.49 677.766 181.667 677.766 181.859C677.766 182 677.792 182.128 677.844 182.242C677.901 182.352 677.995 182.453 678.125 182.547C678.255 182.635 678.432 182.719 678.656 182.797C678.885 182.875 679.172 182.951 679.516 183.023C680.161 183.159 680.716 183.333 681.18 183.547C681.648 183.755 682.008 184.026 682.258 184.359C682.508 184.688 682.633 185.104 682.633 185.609C682.633 185.984 682.552 186.328 682.391 186.641C682.234 186.948 682.005 187.216 681.703 187.445C681.401 187.669 681.039 187.844 680.617 187.969C680.201 188.094 679.732 188.156 679.211 188.156C678.445 188.156 677.797 188.021 677.266 187.75C676.734 187.474 676.331 187.122 676.055 186.695C675.784 186.263 675.648 185.815 675.648 185.352H677.469C677.49 185.701 677.586 185.979 677.758 186.188C677.935 186.391 678.154 186.539 678.414 186.633C678.68 186.721 678.953 186.766 679.234 186.766C679.573 186.766 679.857 186.721 680.086 186.633C680.315 186.539 680.49 186.414 680.609 186.258C680.729 186.096 680.789 185.914 680.789 185.711Z" fill="#333333"/>
<rect x="91.5" y="63.5" width="617" height="155" rx="3.5" stroke="#F2F2F2"/>
<path d="M94.7651 49.0835H92.7295V48.0146H94.7651C95.1196 48.0146 95.4061 47.9574 95.6245 47.8428C95.8429 47.7282 96.0023 47.5706 96.1025 47.3701C96.2064 47.166 96.2583 46.9333 96.2583 46.6719C96.2583 46.4248 96.2064 46.1938 96.1025 45.979C96.0023 45.7606 95.8429 45.5851 95.6245 45.4526C95.4061 45.3201 95.1196 45.2539 94.7651 45.2539H93.1431V52H91.7949V44.1797H94.7651C95.3703 44.1797 95.8841 44.2871 96.3066 44.502C96.7327 44.7132 97.0568 45.0068 97.2788 45.3828C97.5008 45.7552 97.6118 46.1813 97.6118 46.6611C97.6118 47.166 97.5008 47.5993 97.2788 47.9609C97.0568 48.3226 96.7327 48.6001 96.3066 48.7935C95.8841 48.9868 95.3703 49.0835 94.7651 49.0835ZM99.0203 44.1797H101.786C102.381 44.1797 102.887 44.2692 103.306 44.4482C103.725 44.6273 104.046 44.8923 104.268 45.2432C104.493 45.5905 104.606 46.0202 104.606 46.5322C104.606 46.9225 104.535 47.2663 104.391 47.5635C104.248 47.8607 104.046 48.1113 103.784 48.3154C103.523 48.516 103.212 48.6717 102.85 48.7827L102.442 48.9814H99.9549L99.9441 47.9126H101.808C102.13 47.9126 102.399 47.8553 102.614 47.7407C102.828 47.6261 102.99 47.4704 103.097 47.2734C103.208 47.0729 103.263 46.8473 103.263 46.5967C103.263 46.3245 103.21 46.0882 103.102 45.8877C102.999 45.6836 102.837 45.5278 102.619 45.4204C102.401 45.3094 102.123 45.2539 101.786 45.2539H100.368V52H99.0203V44.1797ZM103.484 52L101.647 48.4873L103.059 48.4819L104.923 51.9302V52H103.484ZM112.385 47.875V48.3047C112.385 48.8955 112.308 49.4255 112.154 49.8945C112 50.3636 111.78 50.7629 111.493 51.0923C111.21 51.4217 110.87 51.6742 110.473 51.8496C110.075 52.0215 109.635 52.1074 109.151 52.1074C108.672 52.1074 108.233 52.0215 107.836 51.8496C107.442 51.6742 107.1 51.4217 106.81 51.0923C106.52 50.7629 106.294 50.3636 106.133 49.8945C105.975 49.4255 105.897 48.8955 105.897 48.3047V47.875C105.897 47.2842 105.975 46.756 106.133 46.2905C106.29 45.8215 106.512 45.4222 106.799 45.0928C107.089 44.7598 107.431 44.5073 107.825 44.3354C108.222 44.16 108.661 44.0723 109.141 44.0723C109.624 44.0723 110.065 44.16 110.462 44.3354C110.859 44.5073 111.201 44.7598 111.488 45.0928C111.774 45.4222 111.995 45.8215 112.149 46.2905C112.306 46.756 112.385 47.2842 112.385 47.875ZM111.037 48.3047V47.8643C111.037 47.4274 110.994 47.0425 110.908 46.7095C110.825 46.3729 110.702 46.0918 110.537 45.8662C110.376 45.637 110.177 45.4652 109.941 45.3506C109.705 45.2324 109.438 45.1733 109.141 45.1733C108.844 45.1733 108.579 45.2324 108.346 45.3506C108.113 45.4652 107.914 45.637 107.75 45.8662C107.588 46.0918 107.465 46.3729 107.379 46.7095C107.293 47.0425 107.25 47.4274 107.25 47.8643V48.3047C107.25 48.7415 107.293 49.1283 107.379 49.4648C107.465 49.8014 107.59 50.0861 107.755 50.3188C107.923 50.548 108.124 50.7217 108.357 50.8398C108.589 50.9544 108.854 51.0117 109.151 51.0117C109.452 51.0117 109.719 50.9544 109.952 50.8398C110.185 50.7217 110.381 50.548 110.543 50.3188C110.704 50.0861 110.825 49.8014 110.908 49.4648C110.994 49.1283 111.037 48.7415 111.037 48.3047ZM119.938 48.0039V50.9902C119.827 51.137 119.653 51.2982 119.417 51.4736C119.184 51.6455 118.874 51.7941 118.488 51.9194C118.101 52.0448 117.619 52.1074 117.043 52.1074C116.552 52.1074 116.103 52.0251 115.695 51.8604C115.287 51.6921 114.934 51.4468 114.637 51.1245C114.343 50.8022 114.116 50.4102 113.954 49.9482C113.793 49.4827 113.713 48.9528 113.713 48.3584V47.8159C113.713 47.2251 113.786 46.6987 113.933 46.2368C114.083 45.7713 114.298 45.3774 114.578 45.0552C114.857 44.7329 115.193 44.4894 115.587 44.3247C115.985 44.1564 116.434 44.0723 116.935 44.0723C117.576 44.0723 118.106 44.1797 118.525 44.3945C118.948 44.6058 119.274 44.8994 119.503 45.2754C119.732 45.6514 119.877 46.0811 119.938 46.5645H118.617C118.574 46.2923 118.489 46.0488 118.364 45.834C118.242 45.6191 118.067 45.4508 117.838 45.3291C117.612 45.2038 117.319 45.1411 116.957 45.1411C116.645 45.1411 116.371 45.2002 116.135 45.3184C115.899 45.4365 115.702 45.6102 115.544 45.8394C115.39 46.0685 115.274 46.3478 115.195 46.6772C115.116 47.0067 115.077 47.3826 115.077 47.8052V48.3584C115.077 48.7881 115.122 49.1694 115.211 49.5024C115.304 49.8354 115.437 50.1165 115.609 50.3457C115.784 50.5749 115.997 50.7485 116.248 50.8667C116.499 50.9813 116.781 51.0386 117.097 51.0386C117.405 51.0386 117.657 51.0135 117.854 50.9634C118.051 50.9097 118.207 50.847 118.321 50.7754C118.439 50.7002 118.531 50.6286 118.595 50.5605V49.0083H116.968V48.0039H119.938ZM121.631 44.1797H124.397C124.992 44.1797 125.498 44.2692 125.917 44.4482C126.336 44.6273 126.657 44.8923 126.879 45.2432C127.104 45.5905 127.217 46.0202 127.217 46.5322C127.217 46.9225 127.145 47.2663 127.002 47.5635C126.859 47.8607 126.657 48.1113 126.395 48.3154C126.134 48.516 125.822 48.6717 125.461 48.7827L125.052 48.9814H122.566L122.555 47.9126H124.419C124.741 47.9126 125.009 47.8553 125.224 47.7407C125.439 47.6261 125.6 47.4704 125.708 47.2734C125.819 47.0729 125.874 46.8473 125.874 46.5967C125.874 46.3245 125.821 46.0882 125.713 45.8877C125.609 45.6836 125.448 45.5278 125.23 45.4204C125.011 45.3094 124.734 45.2539 124.397 45.2539H122.979V52H121.631V44.1797ZM126.094 52L124.258 48.4873L125.67 48.4819L127.534 51.9302V52H126.094ZM133.878 50.9312V52H129.727V50.9312H133.878ZM130.108 44.1797V52H128.76V44.1797H130.108ZM133.336 47.4453V48.498H129.727V47.4453H133.336ZM133.852 44.1797V45.2539H129.727V44.1797H133.852ZM139.294 49.9858C139.294 49.8247 139.269 49.6815 139.219 49.5562C139.172 49.4308 139.088 49.3162 138.966 49.2124C138.844 49.1086 138.672 49.0083 138.45 48.9116C138.232 48.8114 137.953 48.7093 137.613 48.6055C137.24 48.4909 136.896 48.3638 136.581 48.2241C136.27 48.0809 135.998 47.9162 135.765 47.73C135.532 47.5402 135.351 47.3236 135.222 47.0801C135.094 46.833 135.029 46.5483 135.029 46.2261C135.029 45.9074 135.095 45.6174 135.228 45.356C135.364 45.0946 135.555 44.869 135.803 44.6792C136.053 44.4858 136.349 44.3372 136.689 44.2334C137.029 44.126 137.405 44.0723 137.817 44.0723C138.397 44.0723 138.896 44.1797 139.315 44.3945C139.738 44.6094 140.062 44.8976 140.287 45.2593C140.517 45.6209 140.631 46.0202 140.631 46.457H139.294C139.294 46.1992 139.238 45.9718 139.127 45.7749C139.02 45.5744 138.855 45.4168 138.633 45.3022C138.415 45.1877 138.137 45.1304 137.801 45.1304C137.482 45.1304 137.217 45.1787 137.006 45.2754C136.794 45.3721 136.637 45.5028 136.533 45.6675C136.429 45.8322 136.377 46.0184 136.377 46.2261C136.377 46.3729 136.411 46.5072 136.479 46.6289C136.547 46.7471 136.651 46.8581 136.791 46.9619C136.93 47.0622 137.106 47.1571 137.317 47.2466C137.528 47.3361 137.777 47.422 138.064 47.5044C138.497 47.6333 138.875 47.7765 139.197 47.9341C139.519 48.0881 139.788 48.2635 140.003 48.4604C140.218 48.6574 140.379 48.8812 140.486 49.1318C140.594 49.3789 140.647 49.66 140.647 49.9751C140.647 50.3045 140.581 50.6017 140.449 50.8667C140.316 51.1281 140.126 51.3519 139.879 51.5381C139.636 51.7207 139.342 51.8621 138.998 51.9624C138.658 52.0591 138.279 52.1074 137.86 52.1074C137.484 52.1074 137.113 52.0573 136.748 51.957C136.386 51.8568 136.057 51.7046 135.76 51.5005C135.462 51.2928 135.226 51.035 135.051 50.7271C134.875 50.4155 134.787 50.0521 134.787 49.6367H136.136C136.136 49.891 136.179 50.1076 136.264 50.2866C136.354 50.4657 136.478 50.6125 136.635 50.7271C136.793 50.8381 136.975 50.9204 137.183 50.9741C137.394 51.0278 137.62 51.0547 137.86 51.0547C138.175 51.0547 138.438 51.0099 138.649 50.9204C138.864 50.8309 139.025 50.7056 139.133 50.5444C139.24 50.3833 139.294 50.1971 139.294 49.9858ZM146.154 49.9858C146.154 49.8247 146.129 49.6815 146.079 49.5562C146.032 49.4308 145.948 49.3162 145.826 49.2124C145.705 49.1086 145.533 49.0083 145.311 48.9116C145.092 48.8114 144.813 48.7093 144.473 48.6055C144.1 48.4909 143.757 48.3638 143.442 48.2241C143.13 48.0809 142.858 47.9162 142.625 47.73C142.392 47.5402 142.212 47.3236 142.083 47.0801C141.954 46.833 141.889 46.5483 141.889 46.2261C141.889 45.9074 141.956 45.6174 142.088 45.356C142.224 45.0946 142.416 44.869 142.663 44.6792C142.913 44.4858 143.209 44.3372 143.549 44.2334C143.889 44.126 144.265 44.0723 144.677 44.0723C145.257 44.0723 145.756 44.1797 146.175 44.3945C146.598 44.6094 146.922 44.8976 147.148 45.2593C147.377 45.6209 147.491 46.0202 147.491 46.457H146.154C146.154 46.1992 146.098 45.9718 145.987 45.7749C145.88 45.5744 145.715 45.4168 145.493 45.3022C145.275 45.1877 144.997 45.1304 144.661 45.1304C144.342 45.1304 144.077 45.1787 143.866 45.2754C143.655 45.3721 143.497 45.5028 143.393 45.6675C143.289 45.8322 143.237 46.0184 143.237 46.2261C143.237 46.3729 143.271 46.5072 143.339 46.6289C143.407 46.7471 143.511 46.8581 143.651 46.9619C143.791 47.0622 143.966 47.1571 144.177 47.2466C144.389 47.3361 144.637 47.422 144.924 47.5044C145.357 47.6333 145.735 47.7765 146.057 47.9341C146.379 48.0881 146.648 48.2635 146.863 48.4604C147.078 48.6574 147.239 48.8812 147.346 49.1318C147.454 49.3789 147.507 49.66 147.507 49.9751C147.507 50.3045 147.441 50.6017 147.309 50.8667C147.176 51.1281 146.986 51.3519 146.739 51.5381C146.496 51.7207 146.202 51.8621 145.858 51.9624C145.518 52.0591 145.139 52.1074 144.72 52.1074C144.344 52.1074 143.973 52.0573 143.608 51.957C143.246 51.8568 142.917 51.7046 142.62 51.5005C142.323 51.2928 142.086 51.035 141.911 50.7271C141.735 50.4155 141.648 50.0521 141.648 49.6367H142.996C142.996 49.891 143.039 50.1076 143.125 50.2866C143.214 50.4657 143.338 50.6125 143.495 50.7271C143.653 50.8381 143.835 50.9204 144.043 50.9741C144.254 51.0278 144.48 51.0547 144.72 51.0547C145.035 51.0547 145.298 51.0099 145.509 50.9204C145.724 50.8309 145.885 50.7056 145.993 50.5444C146.1 50.3833 146.154 50.1971 146.154 49.9858ZM155.953 49.9858C155.953 49.8247 155.928 49.6815 155.878 49.5562C155.832 49.4308 155.747 49.3162 155.626 49.2124C155.504 49.1086 155.332 49.0083 155.11 48.9116C154.892 48.8114 154.612 48.7093 154.272 48.6055C153.9 48.4909 153.556 48.3638 153.241 48.2241C152.929 48.0809 152.657 47.9162 152.425 47.73C152.192 47.5402 152.011 47.3236 151.882 47.0801C151.753 46.833 151.689 46.5483 151.689 46.2261C151.689 45.9074 151.755 45.6174 151.887 45.356C152.023 45.0946 152.215 44.869 152.462 44.6792C152.713 44.4858 153.008 44.3372 153.348 44.2334C153.689 44.126 154.064 44.0723 154.476 44.0723C155.056 44.0723 155.556 44.1797 155.975 44.3945C156.397 44.6094 156.721 44.8976 156.947 45.2593C157.176 45.6209 157.291 46.0202 157.291 46.457H155.953C155.953 46.1992 155.898 45.9718 155.787 45.7749C155.679 45.5744 155.515 45.4168 155.293 45.3022C155.074 45.1877 154.797 45.1304 154.46 45.1304C154.141 45.1304 153.876 45.1787 153.665 45.2754C153.454 45.3721 153.296 45.5028 153.193 45.6675C153.089 45.8322 153.037 46.0184 153.037 46.2261C153.037 46.3729 153.071 46.5072 153.139 46.6289C153.207 46.7471 153.311 46.8581 153.45 46.9619C153.59 47.0622 153.765 47.1571 153.977 47.2466C154.188 47.3361 154.437 47.422 154.723 47.5044C155.157 47.6333 155.534 47.7765 155.857 47.9341C156.179 48.0881 156.447 48.2635 156.662 48.4604C156.877 48.6574 157.038 48.8812 157.146 49.1318C157.253 49.3789 157.307 49.66 157.307 49.9751C157.307 50.3045 157.241 50.6017 157.108 50.8667C156.976 51.1281 156.786 51.3519 156.539 51.5381C156.295 51.7207 156.002 51.8621 155.658 51.9624C155.318 52.0591 154.938 52.1074 154.519 52.1074C154.143 52.1074 153.773 52.0573 153.407 51.957C153.046 51.8568 152.716 51.7046 152.419 51.5005C152.122 51.2928 151.886 51.035 151.71 50.7271C151.535 50.4155 151.447 50.0521 151.447 49.6367H152.795C152.795 49.891 152.838 50.1076 152.924 50.2866C153.014 50.4657 153.137 50.6125 153.295 50.7271C153.452 50.8381 153.635 50.9204 153.842 50.9741C154.054 51.0278 154.279 51.0547 154.519 51.0547C154.834 51.0547 155.098 51.0099 155.309 50.9204C155.524 50.8309 155.685 50.7056 155.792 50.5444C155.9 50.3833 155.953 50.1971 155.953 49.9858ZM161.917 44.1797V52H160.579V44.1797H161.917ZM164.371 44.1797V45.2539H158.146V44.1797H164.371ZM168.132 45.2217L165.796 52H164.383L167.326 44.1797H168.229L168.132 45.2217ZM170.087 52L167.745 45.2217L167.643 44.1797H168.551L171.505 52H170.087ZM169.974 49.0996V50.1685H165.721V49.0996H169.974ZM175.121 44.1797V52H173.784V44.1797H175.121ZM177.576 44.1797V45.2539H171.351V44.1797H177.576ZM183.926 50.9312V52H179.774V50.9312H183.926ZM180.155 44.1797V52H178.807V44.1797H180.155ZM183.383 47.4453V48.498H179.774V47.4453H183.383ZM183.899 44.1797V45.2539H179.774V44.1797H183.899ZM193.285 50.9312V52H189.133V50.9312H193.285ZM189.514 44.1797V52H188.166V44.1797H189.514ZM192.742 47.4453V48.498H189.133V47.4453H192.742ZM193.258 44.1797V45.2539H189.133V44.1797H193.258ZM195.612 44.1797L197.271 47.0317L198.931 44.1797H200.483L198.12 48.0522L200.542 52H198.974L197.271 49.0942L195.569 52H193.995L196.423 48.0522L194.054 44.1797H195.612ZM204.781 45.2217L202.445 52H201.032L203.976 44.1797H204.878L204.781 45.2217ZM206.736 52L204.395 45.2217L204.293 44.1797H205.2L208.154 52H206.736ZM206.624 49.0996V50.1685H202.37V49.0996H206.624ZM209.778 44.1797H210.981L213.242 50.2114L215.498 44.1797H216.701L213.715 52H212.759L209.778 44.1797ZM209.23 44.1797H210.374L210.573 49.4004V52H209.23V44.1797ZM216.105 44.1797H217.254V52H215.906V49.4004L216.105 44.1797ZM222.025 49.0835H219.989V48.0146H222.025C222.38 48.0146 222.666 47.9574 222.884 47.8428C223.103 47.7282 223.262 47.5706 223.363 47.3701C223.466 47.166 223.518 46.9333 223.518 46.6719C223.518 46.4248 223.466 46.1938 223.363 45.979C223.262 45.7606 223.103 45.5851 222.884 45.4526C222.666 45.3201 222.38 45.2539 222.025 45.2539H220.403V52H219.055V44.1797H222.025C222.63 44.1797 223.144 44.2871 223.567 44.502C223.993 44.7132 224.317 45.0068 224.539 45.3828C224.761 45.7552 224.872 46.1813 224.872 46.6611C224.872 47.166 224.761 47.5993 224.539 47.9609C224.317 48.3226 223.993 48.6001 223.567 48.7935C223.144 48.9868 222.63 49.0835 222.025 49.0835ZM231.179 50.9312V52H227.252V50.9312H231.179ZM227.628 44.1797V52H226.28V44.1797H227.628ZM237.539 50.9312V52H233.387V50.9312H237.539ZM233.769 44.1797V52H232.421V44.1797H233.769ZM236.997 47.4453V48.498H233.387V47.4453H236.997ZM237.512 44.1797V45.2539H233.387V44.1797H237.512Z" fill="#AAAAAA"/>
</g>
<defs>
<clipPath id="clip0_2573_45206">
<rect width="800" height="263" rx="8" fill="white"/>
</clipPath>
</defs>
</svg>
