<svg width="620" height="360" viewBox="0 0 620 360" fill="none" xmlns="http://www.w3.org/2000/svg">
<rect width="620" height="360" rx="16" fill="#F8F8F8"/>
<rect x="160" y="30" width="300" height="300" rx="4" fill="#F8F8F8"/>
<rect x="286" y="189" width="56" height="24" rx="12" fill="#737373"/>
<path d="M299.014 195.758V205H297.434V195.758H299.014ZM301.915 195.758V197.027H294.558V195.758H301.915ZM306.003 203.623V200.347C306.003 200.102 305.958 199.89 305.87 199.712C305.781 199.535 305.645 199.397 305.463 199.3C305.286 199.202 305.061 199.154 304.791 199.154C304.541 199.154 304.325 199.196 304.143 199.281C303.961 199.365 303.819 199.48 303.718 199.624C303.616 199.767 303.565 199.93 303.565 200.112H302.042C302.042 199.841 302.108 199.579 302.239 199.325C302.37 199.071 302.56 198.845 302.81 198.646C303.06 198.447 303.358 198.291 303.705 198.176C304.052 198.062 304.441 198.005 304.873 198.005C305.389 198.005 305.846 198.092 306.244 198.265C306.646 198.439 306.961 198.701 307.19 199.052C307.423 199.399 307.539 199.835 307.539 200.36V203.413C307.539 203.726 307.56 204.008 307.603 204.257C307.649 204.503 307.715 204.716 307.799 204.898V205H306.231C306.16 204.835 306.102 204.625 306.06 204.372C306.022 204.113 306.003 203.864 306.003 203.623ZM306.225 200.823L306.238 201.769H305.14C304.856 201.769 304.606 201.797 304.391 201.852C304.175 201.902 303.995 201.979 303.851 202.08C303.707 202.182 303.599 202.304 303.527 202.448C303.455 202.592 303.419 202.755 303.419 202.937C303.419 203.119 303.462 203.286 303.546 203.438C303.631 203.587 303.754 203.703 303.915 203.788C304.08 203.872 304.278 203.915 304.511 203.915C304.824 203.915 305.097 203.851 305.33 203.724C305.567 203.593 305.753 203.434 305.889 203.248C306.024 203.058 306.096 202.878 306.104 202.708L306.6 203.388C306.549 203.561 306.462 203.747 306.339 203.946C306.217 204.145 306.056 204.336 305.857 204.518C305.662 204.695 305.427 204.841 305.152 204.956C304.882 205.07 304.568 205.127 304.213 205.127C303.764 205.127 303.364 205.038 303.013 204.86C302.662 204.678 302.387 204.435 302.188 204.13C301.989 203.821 301.89 203.472 301.89 203.083C301.89 202.719 301.957 202.397 302.093 202.118C302.232 201.835 302.436 201.598 302.702 201.407C302.973 201.217 303.303 201.073 303.692 200.976C304.082 200.874 304.526 200.823 305.025 200.823H306.225ZM313.538 198.132H314.928V204.81C314.928 205.427 314.797 205.952 314.534 206.384C314.272 206.815 313.906 207.143 313.436 207.368C312.966 207.596 312.423 207.71 311.805 207.71C311.542 207.71 311.25 207.672 310.929 207.596C310.611 207.52 310.302 207.397 310.002 207.228C309.706 207.063 309.458 206.845 309.259 206.574L309.977 205.673C310.222 205.965 310.493 206.179 310.789 206.314C311.085 206.449 311.396 206.517 311.722 206.517C312.073 206.517 312.372 206.451 312.617 206.32C312.867 206.193 313.059 206.005 313.195 205.755C313.33 205.506 313.398 205.201 313.398 204.841V199.687L313.538 198.132ZM308.872 201.642V201.509C308.872 200.988 308.936 200.514 309.062 200.087C309.189 199.655 309.371 199.285 309.608 198.976C309.845 198.663 310.133 198.424 310.472 198.259C310.81 198.09 311.193 198.005 311.621 198.005C312.065 198.005 312.444 198.085 312.757 198.246C313.074 198.407 313.339 198.638 313.55 198.938C313.762 199.234 313.927 199.59 314.045 200.004C314.168 200.415 314.259 200.872 314.318 201.375V201.801C314.263 202.292 314.17 202.74 314.039 203.146C313.908 203.553 313.734 203.904 313.519 204.2C313.303 204.496 313.036 204.725 312.719 204.886C312.406 205.047 312.035 205.127 311.608 205.127C311.189 205.127 310.81 205.04 310.472 204.867C310.137 204.693 309.85 204.45 309.608 204.137C309.371 203.824 309.189 203.455 309.062 203.032C308.936 202.605 308.872 202.141 308.872 201.642ZM310.402 201.509V201.642C310.402 201.955 310.431 202.247 310.491 202.518C310.554 202.789 310.649 203.028 310.776 203.235C310.908 203.438 311.073 203.599 311.271 203.718C311.475 203.832 311.714 203.889 311.989 203.889C312.348 203.889 312.643 203.813 312.871 203.661C313.104 203.508 313.282 203.303 313.404 203.045C313.531 202.783 313.62 202.491 313.671 202.169V201.02C313.646 200.77 313.593 200.538 313.512 200.322C313.436 200.106 313.332 199.918 313.201 199.757C313.07 199.592 312.905 199.465 312.706 199.376C312.507 199.283 312.272 199.236 312.001 199.236C311.726 199.236 311.487 199.296 311.284 199.414C311.081 199.533 310.914 199.695 310.783 199.903C310.656 200.11 310.561 200.351 310.497 200.626C310.434 200.902 310.402 201.196 310.402 201.509Z" fill="white"/>
<path d="M334.754 204.723C335.047 205.015 335.047 205.489 334.754 205.781C334.461 206.073 333.986 206.073 333.693 205.781L330.001 202.071L326.281 205.78C325.989 206.072 325.513 206.072 325.221 205.78C324.928 205.488 324.928 205.014 325.221 204.722L328.941 201.014L325.22 197.277C324.927 196.985 324.927 196.511 325.22 196.219C325.512 195.927 325.988 195.927 326.28 196.219L330.001 199.957L333.72 196.248C334.012 195.956 334.488 195.956 334.78 196.248C335.073 196.54 335.073 197.014 334.78 197.306L331.06 201.014L334.754 204.723Z" fill="white"/>
<rect x="295" y="148" width="24" height="24" rx="12" fill="#286EF1"/>
<path d="M308.181 154.726V164H306.651V156.542L304.385 157.31V156.046L307.997 154.726H308.181Z" fill="white"/>
<line x1="307.5" y1="172" x2="307.5" y2="196" stroke="#0059FF"/>
<rect x="239" y="189" width="24" height="24" rx="12" fill="#286EF1"/>
<path d="M254.199 203.781V205H248.004V203.953L251.013 200.671C251.343 200.299 251.603 199.977 251.793 199.706C251.984 199.435 252.117 199.192 252.193 198.976C252.274 198.756 252.314 198.542 252.314 198.335C252.314 198.043 252.259 197.787 252.149 197.567C252.043 197.343 251.887 197.167 251.679 197.04C251.472 196.909 251.22 196.843 250.924 196.843C250.581 196.843 250.293 196.917 250.061 197.065C249.828 197.214 249.652 197.419 249.534 197.681C249.415 197.939 249.356 198.236 249.356 198.57H247.826C247.826 198.032 247.949 197.542 248.194 197.097C248.44 196.649 248.795 196.293 249.261 196.031C249.726 195.764 250.287 195.631 250.943 195.631C251.561 195.631 252.085 195.735 252.517 195.942C252.949 196.149 253.277 196.443 253.501 196.824C253.729 197.205 253.844 197.656 253.844 198.176C253.844 198.464 253.797 198.75 253.704 199.033C253.611 199.317 253.478 199.6 253.304 199.884C253.135 200.163 252.934 200.444 252.701 200.728C252.468 201.007 252.212 201.291 251.933 201.579L249.934 203.781H254.199Z" fill="white"/>
<line x1="263" y1="200.5" x2="287" y2="200.5" stroke="#0059FF"/>
<line x1="334" y1="200.5" x2="358" y2="200.5" stroke="#0059FF"/>
<rect x="358" y="189" width="24" height="24" rx="12" fill="#286EF1"/>
<path d="M368.8 199.687H369.714C370.07 199.687 370.364 199.626 370.597 199.503C370.834 199.38 371.009 199.211 371.124 198.995C371.238 198.779 371.295 198.532 371.295 198.252C371.295 197.96 371.242 197.711 371.136 197.503C371.035 197.292 370.878 197.129 370.667 197.015C370.459 196.9 370.195 196.843 369.873 196.843C369.602 196.843 369.357 196.898 369.137 197.008C368.921 197.114 368.75 197.266 368.623 197.465C368.496 197.66 368.432 197.893 368.432 198.164H366.896C366.896 197.673 367.025 197.237 367.283 196.856C367.541 196.475 367.893 196.177 368.337 195.961C368.785 195.741 369.289 195.631 369.848 195.631C370.444 195.631 370.965 195.73 371.409 195.929C371.858 196.124 372.207 196.416 372.457 196.805C372.706 197.194 372.831 197.677 372.831 198.252C372.831 198.515 372.77 198.781 372.647 199.052C372.524 199.323 372.342 199.571 372.101 199.795C371.86 200.015 371.559 200.195 371.2 200.334C370.84 200.47 370.423 200.538 369.949 200.538H368.8V199.687ZM368.8 200.88V200.042H369.949C370.491 200.042 370.952 200.106 371.333 200.233C371.718 200.36 372.031 200.535 372.272 200.76C372.514 200.98 372.689 201.232 372.799 201.515C372.914 201.799 372.971 202.099 372.971 202.417C372.971 202.848 372.892 203.233 372.736 203.572C372.583 203.906 372.366 204.19 372.082 204.422C371.799 204.655 371.466 204.831 371.085 204.949C370.709 205.068 370.298 205.127 369.854 205.127C369.456 205.127 369.075 205.072 368.711 204.962C368.347 204.852 368.022 204.689 367.734 204.473C367.446 204.253 367.218 203.98 367.048 203.654C366.883 203.324 366.801 202.943 366.801 202.512H368.331C368.331 202.787 368.394 203.03 368.521 203.242C368.652 203.449 368.834 203.612 369.067 203.73C369.304 203.849 369.575 203.908 369.879 203.908C370.201 203.908 370.478 203.851 370.711 203.737C370.944 203.623 371.121 203.453 371.244 203.229C371.371 203.005 371.435 202.734 371.435 202.417C371.435 202.057 371.365 201.765 371.225 201.541C371.085 201.316 370.887 201.151 370.628 201.045C370.37 200.935 370.066 200.88 369.714 200.88H368.8Z" fill="white"/>
</svg>
