<svg width="800" height="128" viewBox="0 0 800 128" fill="none" xmlns="http://www.w3.org/2000/svg">
<rect width="800" height="128" rx="4" fill="#F8F8F8"/>
<rect x="314" y="56" width="57" height="16" rx="8" fill="#737373"/>
<path d="M326.43 65.1396C326.43 65.0127 326.41 64.8988 326.371 64.7979C326.335 64.6937 326.267 64.5993 326.166 64.5146C326.065 64.4268 325.924 64.3405 325.741 64.2559C325.559 64.1712 325.323 64.0833 325.033 63.9922C324.711 63.888 324.405 63.7708 324.115 63.6406C323.829 63.5104 323.575 63.359 323.354 63.1865C323.136 63.0107 322.963 62.8073 322.836 62.5762C322.712 62.3451 322.651 62.0765 322.651 61.7705C322.651 61.4743 322.716 61.2057 322.846 60.9648C322.976 60.7207 323.158 60.5124 323.393 60.3398C323.627 60.1641 323.904 60.029 324.223 59.9346C324.545 59.8402 324.898 59.793 325.282 59.793C325.807 59.793 326.264 59.8874 326.654 60.0762C327.045 60.265 327.348 60.5238 327.563 60.8525C327.781 61.1813 327.89 61.5573 327.89 61.9805H326.435C326.435 61.7721 326.391 61.5898 326.303 61.4336C326.218 61.2741 326.088 61.1488 325.912 61.0576C325.74 60.9665 325.522 60.9209 325.258 60.9209C325.004 60.9209 324.793 60.96 324.623 61.0381C324.454 61.113 324.327 61.2155 324.242 61.3457C324.158 61.4727 324.115 61.6159 324.115 61.7754C324.115 61.8958 324.145 62.0049 324.203 62.1025C324.265 62.2002 324.356 62.2913 324.477 62.376C324.597 62.4606 324.745 62.5404 324.921 62.6152C325.097 62.6901 325.3 62.7633 325.531 62.835C325.919 62.9521 326.259 63.084 326.552 63.2305C326.848 63.377 327.096 63.5413 327.294 63.7236C327.493 63.9059 327.642 64.1126 327.743 64.3438C327.844 64.5749 327.895 64.8369 327.895 65.1299C327.895 65.4391 327.835 65.7158 327.714 65.96C327.594 66.2041 327.419 66.4108 327.192 66.5801C326.964 66.7493 326.692 66.8779 326.376 66.9658C326.06 67.0537 325.707 67.0977 325.317 67.0977C324.965 67.0977 324.618 67.0521 324.277 66.9609C323.935 66.8665 323.624 66.7249 323.344 66.5361C323.067 66.3473 322.846 66.1064 322.68 65.8135C322.514 65.5205 322.431 65.1738 322.431 64.7734H323.901C323.901 64.9948 323.935 65.182 324.003 65.335C324.071 65.488 324.168 65.6117 324.291 65.7061C324.418 65.8005 324.568 65.8688 324.74 65.9111C324.916 65.9535 325.108 65.9746 325.317 65.9746C325.571 65.9746 325.779 65.9388 325.942 65.8672C326.108 65.7956 326.23 65.6963 326.308 65.5693C326.389 65.4424 326.43 65.2992 326.43 65.1396ZM330.009 62.8105V67H328.598V61.7168H329.921L330.009 62.8105ZM329.814 64.1729H329.423C329.423 63.805 329.467 63.4665 329.555 63.1572C329.646 62.8447 329.778 62.5745 329.951 62.3467C330.126 62.1156 330.343 61.9365 330.6 61.8096C330.857 61.6826 331.155 61.6191 331.494 61.6191C331.728 61.6191 331.943 61.6549 332.138 61.7266C332.333 61.7949 332.501 61.904 332.641 62.0537C332.784 62.2002 332.895 62.3923 332.973 62.6299C333.051 62.8643 333.09 63.1458 333.09 63.4746V67H331.684V63.6309C331.684 63.39 331.651 63.2044 331.586 63.0742C331.521 62.944 331.428 62.8529 331.308 62.8008C331.191 62.7487 331.049 62.7227 330.883 62.7227C330.701 62.7227 330.541 62.7601 330.405 62.835C330.271 62.9098 330.161 63.014 330.073 63.1475C329.985 63.2777 329.92 63.4307 329.877 63.6064C329.835 63.7822 329.814 63.971 329.814 64.1729ZM332.958 64.0117L332.455 64.0752C332.455 63.7301 332.498 63.4095 332.582 63.1133C332.67 62.8171 332.799 62.5566 332.968 62.332C333.141 62.1074 333.354 61.9333 333.608 61.8096C333.862 61.6826 334.155 61.6191 334.487 61.6191C334.741 61.6191 334.972 61.6566 335.18 61.7314C335.388 61.8031 335.566 61.9186 335.712 62.0781C335.862 62.2344 335.976 62.4395 336.054 62.6934C336.135 62.9473 336.176 63.2581 336.176 63.626V67H334.765V63.626C334.765 63.3818 334.732 63.1963 334.667 63.0693C334.606 62.9391 334.514 62.8496 334.394 62.8008C334.277 62.7487 334.137 62.7227 333.974 62.7227C333.805 62.7227 333.657 62.7568 333.53 62.8252C333.403 62.8903 333.297 62.9814 333.212 63.0986C333.128 63.2158 333.064 63.3525 333.022 63.5088C332.98 63.6618 332.958 63.8294 332.958 64.0117ZM339.917 65.8086V63.4551C339.917 63.2858 339.889 63.141 339.834 63.0205C339.778 62.8968 339.692 62.8008 339.575 62.7324C339.461 62.6641 339.313 62.6299 339.13 62.6299C338.974 62.6299 338.839 62.6576 338.725 62.7129C338.611 62.765 338.523 62.8415 338.462 62.9424C338.4 63.04 338.369 63.1556 338.369 63.2891H336.962C336.962 63.0645 337.015 62.8512 337.119 62.6494C337.223 62.4476 337.374 62.2702 337.573 62.1172C337.771 61.9609 338.007 61.8389 338.281 61.751C338.558 61.6631 338.867 61.6191 339.209 61.6191C339.619 61.6191 339.983 61.6875 340.302 61.8242C340.621 61.9609 340.872 62.166 341.054 62.4395C341.24 62.7129 341.333 63.0547 341.333 63.4648V65.7256C341.333 66.0153 341.351 66.2529 341.386 66.4385C341.422 66.6208 341.474 66.7803 341.543 66.917V67H340.122C340.053 66.8568 340.001 66.6777 339.965 66.4629C339.933 66.2448 339.917 66.0267 339.917 65.8086ZM340.102 63.7822L340.112 64.5781H339.326C339.14 64.5781 338.979 64.5993 338.842 64.6416C338.706 64.6839 338.593 64.7441 338.505 64.8223C338.418 64.8971 338.352 64.985 338.31 65.0859C338.271 65.1868 338.252 65.2975 338.252 65.418C338.252 65.5384 338.279 65.6475 338.335 65.7451C338.39 65.8395 338.47 65.9144 338.574 65.9697C338.678 66.0218 338.8 66.0479 338.94 66.0479C339.152 66.0479 339.336 66.0055 339.492 65.9209C339.648 65.8363 339.768 65.7321 339.853 65.6084C339.941 65.4847 339.987 65.3675 339.99 65.2568L340.361 65.8525C340.309 65.986 340.237 66.1243 340.146 66.2676C340.058 66.4108 339.946 66.5459 339.809 66.6729C339.672 66.7965 339.508 66.8991 339.316 66.9805C339.124 67.0586 338.896 67.0977 338.632 67.0977C338.297 67.0977 337.993 67.0309 337.719 66.8975C337.449 66.7607 337.234 66.5736 337.075 66.3359C336.919 66.0951 336.84 65.8216 336.84 65.5156C336.84 65.2389 336.893 64.9932 336.997 64.7783C337.101 64.5635 337.254 64.3828 337.456 64.2363C337.661 64.0866 337.916 63.9743 338.222 63.8994C338.528 63.8213 338.883 63.7822 339.287 63.7822H340.102ZM343.701 59.5V67H342.29V59.5H343.701ZM346.147 59.5V67H344.736V59.5H346.147ZM351.988 61.7168V62.7129H348.912V61.7168H351.988ZM349.673 60.4131H351.079V65.4082C351.079 65.5612 351.099 65.6784 351.138 65.7598C351.18 65.8411 351.242 65.8981 351.324 65.9307C351.405 65.96 351.508 65.9746 351.631 65.9746C351.719 65.9746 351.797 65.9714 351.866 65.9648C351.937 65.9551 351.997 65.9453 352.046 65.9355L352.051 66.9707C351.931 67.0098 351.801 67.0407 351.661 67.0635C351.521 67.0863 351.366 67.0977 351.197 67.0977C350.887 67.0977 350.617 67.0472 350.386 66.9463C350.158 66.8421 349.982 66.6761 349.859 66.4482C349.735 66.2204 349.673 65.9209 349.673 65.5498V60.4131ZM355.44 65.8086V63.4551C355.44 63.2858 355.412 63.141 355.357 63.0205C355.302 62.8968 355.215 62.8008 355.098 62.7324C354.984 62.6641 354.836 62.6299 354.654 62.6299C354.498 62.6299 354.363 62.6576 354.249 62.7129C354.135 62.765 354.047 62.8415 353.985 62.9424C353.923 63.04 353.892 63.1556 353.892 63.2891H352.486C352.486 63.0645 352.538 62.8512 352.642 62.6494C352.746 62.4476 352.898 62.2702 353.096 62.1172C353.295 61.9609 353.531 61.8389 353.804 61.751C354.081 61.6631 354.39 61.6191 354.732 61.6191C355.142 61.6191 355.507 61.6875 355.826 61.8242C356.145 61.9609 356.395 62.166 356.578 62.4395C356.763 62.7129 356.856 63.0547 356.856 63.4648V65.7256C356.856 66.0153 356.874 66.2529 356.91 66.4385C356.946 66.6208 356.998 66.7803 357.066 66.917V67H355.645C355.577 66.8568 355.525 66.6777 355.489 66.4629C355.456 66.2448 355.44 66.0267 355.44 65.8086ZM355.626 63.7822L355.635 64.5781H354.849C354.664 64.5781 354.503 64.5993 354.366 64.6416C354.229 64.6839 354.117 64.7441 354.029 64.8223C353.941 64.8971 353.876 64.985 353.834 65.0859C353.795 65.1868 353.775 65.2975 353.775 65.418C353.775 65.5384 353.803 65.6475 353.858 65.7451C353.913 65.8395 353.993 65.9144 354.097 65.9697C354.201 66.0218 354.324 66.0479 354.463 66.0479C354.675 66.0479 354.859 66.0055 355.015 65.9209C355.171 65.8363 355.292 65.7321 355.377 65.6084C355.464 65.4847 355.51 65.3675 355.513 65.2568L355.884 65.8525C355.832 65.986 355.761 66.1243 355.67 66.2676C355.582 66.4108 355.469 66.5459 355.333 66.6729C355.196 66.7965 355.032 66.8991 354.839 66.9805C354.647 67.0586 354.42 67.0977 354.156 67.0977C353.821 67.0977 353.516 67.0309 353.243 66.8975C352.973 66.7607 352.758 66.5736 352.598 66.3359C352.442 66.0951 352.364 65.8216 352.364 65.5156C352.364 65.2389 352.416 64.9932 352.52 64.7783C352.624 64.5635 352.777 64.3828 352.979 64.2363C353.184 64.0866 353.44 63.9743 353.746 63.8994C354.052 63.8213 354.407 63.7822 354.81 63.7822H355.626ZM361.085 61.7168H362.359V66.8242C362.359 67.306 362.252 67.7145 362.037 68.0498C361.825 68.3883 361.529 68.6439 361.148 68.8164C360.767 68.9922 360.325 69.0801 359.82 69.0801C359.599 69.0801 359.364 69.0508 359.117 68.9922C358.873 68.9336 358.638 68.8424 358.414 68.7188C358.193 68.5951 358.007 68.4388 357.857 68.25L358.477 67.4199C358.64 67.6087 358.829 67.7552 359.044 67.8594C359.259 67.9668 359.496 68.0205 359.757 68.0205C360.011 68.0205 360.225 67.9733 360.401 67.8789C360.577 67.7878 360.712 67.6527 360.806 67.4736C360.901 67.2979 360.948 67.0846 360.948 66.834V62.9375L361.085 61.7168ZM357.53 64.4219V64.3193C357.53 63.9157 357.579 63.5495 357.677 63.2207C357.777 62.8887 357.919 62.6038 358.101 62.3662C358.287 62.1286 358.512 61.9447 358.775 61.8145C359.039 61.6842 359.337 61.6191 359.669 61.6191C360.02 61.6191 360.315 61.6842 360.553 61.8145C360.79 61.9447 360.985 62.1302 361.138 62.3711C361.291 62.6087 361.41 62.8903 361.495 63.2158C361.583 63.5381 361.651 63.8913 361.7 64.2754V64.5C361.651 64.8678 361.578 65.2096 361.48 65.5254C361.383 65.8411 361.254 66.1178 361.095 66.3555C360.935 66.5898 360.736 66.7721 360.499 66.9023C360.264 67.0326 359.985 67.0977 359.659 67.0977C359.333 67.0977 359.039 67.0309 358.775 66.8975C358.515 66.764 358.292 66.5768 358.106 66.3359C357.921 66.0951 357.777 65.8118 357.677 65.4863C357.579 65.1608 357.53 64.806 357.53 64.4219ZM358.936 64.3193V64.4219C358.936 64.64 358.957 64.8434 359 65.0322C359.042 65.221 359.107 65.3887 359.195 65.5352C359.286 65.6784 359.399 65.7907 359.532 65.8721C359.669 65.9502 359.83 65.9893 360.015 65.9893C360.273 65.9893 360.483 65.9355 360.645 65.8281C360.808 65.7174 360.93 65.5661 361.012 65.374C361.093 65.182 361.14 64.9606 361.153 64.71V64.0703C361.147 63.8652 361.119 63.6813 361.07 63.5186C361.021 63.3525 360.953 63.2109 360.865 63.0938C360.777 62.9766 360.663 62.8854 360.523 62.8203C360.383 62.7552 360.217 62.7227 360.025 62.7227C359.84 62.7227 359.679 62.765 359.542 62.8496C359.408 62.931 359.296 63.0433 359.205 63.1865C359.117 63.3298 359.05 63.499 359.005 63.6943C358.959 63.8864 358.936 64.0947 358.936 64.3193Z" fill="white"/>
<path d="M284.521 59.4219V68H283.438V60.7754L281.252 61.5723V60.5938L284.352 59.4219H284.521ZM291.869 59.457H291.963V60.377H291.869C291.295 60.377 290.814 60.4707 290.428 60.6582C290.041 60.8418 289.734 61.0898 289.508 61.4023C289.281 61.7109 289.117 62.0586 289.016 62.4453C288.918 62.832 288.869 63.2246 288.869 63.623V64.877C288.869 65.2559 288.914 65.5918 289.004 65.8848C289.094 66.1738 289.217 66.418 289.373 66.6172C289.529 66.8164 289.705 66.9668 289.9 67.0684C290.1 67.1699 290.307 67.2207 290.521 67.2207C290.771 67.2207 290.994 67.1738 291.189 67.0801C291.385 66.9824 291.549 66.8477 291.682 66.6758C291.818 66.5 291.922 66.293 291.992 66.0547C292.062 65.8164 292.098 65.5547 292.098 65.2695C292.098 65.0156 292.066 64.7715 292.004 64.5371C291.941 64.2988 291.846 64.0879 291.717 63.9043C291.588 63.7168 291.426 63.5703 291.23 63.4648C291.039 63.3555 290.811 63.3008 290.545 63.3008C290.244 63.3008 289.963 63.375 289.701 63.5234C289.443 63.668 289.23 63.8594 289.062 64.0977C288.898 64.332 288.805 64.5879 288.781 64.8652L288.207 64.8594C288.262 64.4219 288.363 64.0488 288.512 63.7402C288.664 63.4277 288.852 63.1738 289.074 62.9785C289.301 62.7793 289.553 62.6348 289.83 62.5449C290.111 62.4512 290.408 62.4043 290.721 62.4043C291.146 62.4043 291.514 62.4844 291.822 62.6445C292.131 62.8047 292.385 63.0195 292.584 63.2891C292.783 63.5547 292.93 63.8555 293.023 64.1914C293.121 64.5234 293.17 64.8652 293.17 65.2168C293.17 65.6191 293.113 65.9961 293 66.3477C292.887 66.6992 292.717 67.0078 292.49 67.2734C292.268 67.5391 291.992 67.7461 291.664 67.8945C291.336 68.043 290.955 68.1172 290.521 68.1172C290.061 68.1172 289.658 68.0234 289.314 67.8359C288.971 67.6445 288.686 67.3906 288.459 67.0742C288.232 66.7578 288.062 66.4062 287.949 66.0195C287.836 65.6328 287.779 65.2402 287.779 64.8418V64.332C287.779 63.7305 287.84 63.1406 287.961 62.5625C288.082 61.9844 288.291 61.4609 288.588 60.9922C288.889 60.5234 289.305 60.1504 289.836 59.873C290.367 59.5957 291.045 59.457 291.869 59.457Z" fill="black"/>
<path d="M414.549 67.1094V68H408.965V67.2207L411.76 64.1094C412.104 63.7266 412.369 63.4023 412.557 63.1367C412.748 62.8672 412.881 62.627 412.955 62.416C413.033 62.2012 413.072 61.9824 413.072 61.7598C413.072 61.4785 413.014 61.2246 412.896 60.998C412.783 60.7676 412.615 60.584 412.393 60.4473C412.17 60.3105 411.9 60.2422 411.584 60.2422C411.205 60.2422 410.889 60.3164 410.635 60.4648C410.385 60.6094 410.197 60.8125 410.072 61.0742C409.947 61.3359 409.885 61.6367 409.885 61.9766H408.801C408.801 61.4961 408.906 61.0566 409.117 60.6582C409.328 60.2598 409.641 59.9434 410.055 59.709C410.469 59.4707 410.979 59.3516 411.584 59.3516C412.123 59.3516 412.584 59.4473 412.967 59.6387C413.35 59.8262 413.643 60.0918 413.846 60.4355C414.053 60.7754 414.156 61.1738 414.156 61.6309C414.156 61.8809 414.113 62.1348 414.027 62.3926C413.945 62.6465 413.83 62.9004 413.682 63.1543C413.537 63.4082 413.367 63.6582 413.172 63.9043C412.98 64.1504 412.775 64.3926 412.557 64.6309L410.271 67.1094H414.549ZM421.475 65.1289V66.0195H415.311V65.3809L419.131 59.4688H420.016L419.066 61.1797L416.541 65.1289H421.475ZM420.285 59.4688V68H419.201V59.4688H420.285Z" fill="black"/>
<rect x="438" y="52" width="80" height="24" rx="12" fill="#737373"/>
<path d="M449.677 68H447.703L447.715 66.7368H449.677C450.248 66.7368 450.726 66.612 451.111 66.3623C451.501 66.1126 451.793 65.755 451.987 65.2896C452.186 64.8241 452.286 64.2697 452.286 63.6265V63.125C452.286 62.6257 452.229 62.1834 452.114 61.7983C452.004 61.4132 451.839 61.0895 451.619 60.8271C451.403 60.5648 451.137 60.3659 450.819 60.2305C450.506 60.0951 450.144 60.0273 449.734 60.0273H447.665V58.7578H449.734C450.347 58.7578 450.908 58.8615 451.416 59.0688C451.924 59.272 452.362 59.5661 452.73 59.9512C453.102 60.3363 453.388 60.7975 453.587 61.335C453.786 61.8724 453.885 62.4733 453.885 63.1377V63.6265C453.885 64.2909 453.786 64.8918 453.587 65.4292C453.388 65.9666 453.102 66.4279 452.73 66.813C452.358 67.1938 451.913 67.488 451.397 67.6953C450.885 67.8984 450.312 68 449.677 68ZM448.585 58.7578V68H446.992V58.7578H448.585ZM458.36 68.127C457.853 68.127 457.393 68.0444 456.983 67.8794C456.577 67.7101 456.23 67.4753 455.942 67.1748C455.658 66.8743 455.44 66.521 455.288 66.1147C455.136 65.7085 455.06 65.2705 455.06 64.8008V64.5469C455.06 64.0094 455.138 63.5228 455.294 63.0869C455.451 62.651 455.669 62.2786 455.948 61.9697C456.228 61.6566 456.558 61.4175 456.938 61.2524C457.319 61.0874 457.732 61.0049 458.176 61.0049C458.667 61.0049 459.097 61.0874 459.465 61.2524C459.833 61.4175 460.138 61.6502 460.379 61.9507C460.624 62.2469 460.806 62.6003 460.925 63.0107C461.048 63.4212 461.109 63.874 461.109 64.3691V65.0229H455.802V63.9248H459.598V63.8042C459.59 63.5291 459.535 63.271 459.433 63.0298C459.336 62.7886 459.186 62.5939 458.982 62.4458C458.779 62.2977 458.508 62.2236 458.17 62.2236C457.916 62.2236 457.69 62.2786 457.491 62.3887C457.296 62.4945 457.133 62.6489 457.002 62.8521C456.871 63.0552 456.769 63.3006 456.697 63.5884C456.63 63.8719 456.596 64.1914 456.596 64.5469V64.8008C456.596 65.1012 456.636 65.3805 456.716 65.6387C456.801 65.8926 456.924 66.1147 457.084 66.3052C457.245 66.4956 457.44 66.6458 457.668 66.7559C457.897 66.8617 458.157 66.9146 458.449 66.9146C458.817 66.9146 459.145 66.8405 459.433 66.6924C459.721 66.5443 459.971 66.3348 460.182 66.064L460.988 66.8447C460.84 67.0605 460.648 67.2679 460.411 67.4668C460.174 67.6615 459.884 67.8201 459.541 67.9429C459.202 68.0656 458.809 68.127 458.36 68.127ZM464.372 68H462.842V60.4717C462.842 59.9596 462.937 59.5301 463.127 59.1831C463.322 58.8319 463.599 58.5674 463.959 58.3896C464.319 58.2077 464.744 58.1167 465.235 58.1167C465.387 58.1167 465.537 58.1273 465.686 58.1484C465.834 58.1654 465.978 58.1929 466.117 58.231L466.079 59.4116C465.994 59.3905 465.901 59.3757 465.8 59.3672C465.702 59.3587 465.597 59.3545 465.482 59.3545C465.25 59.3545 465.049 59.3989 464.879 59.4878C464.714 59.5724 464.587 59.6973 464.499 59.8623C464.414 60.0273 464.372 60.2305 464.372 60.4717V68ZM465.787 61.1318V62.249H461.788V61.1318H465.787ZM470.77 66.6226V63.3472C470.77 63.1017 470.726 62.8901 470.637 62.7124C470.548 62.5347 470.412 62.3971 470.23 62.2998C470.053 62.2025 469.828 62.1538 469.558 62.1538C469.308 62.1538 469.092 62.1961 468.91 62.2808C468.728 62.3654 468.586 62.4797 468.485 62.6235C468.383 62.7674 468.333 62.9303 468.333 63.1123H466.809C466.809 62.8415 466.875 62.5791 467.006 62.3252C467.137 62.0713 467.327 61.8449 467.577 61.646C467.827 61.4471 468.125 61.2905 468.472 61.1763C468.819 61.062 469.208 61.0049 469.64 61.0049C470.156 61.0049 470.613 61.0916 471.011 61.2651C471.413 61.4386 471.729 61.701 471.957 62.0522C472.19 62.3993 472.306 62.8351 472.306 63.3599V66.4131C472.306 66.7262 472.327 67.0076 472.37 67.2573C472.416 67.5028 472.482 67.7165 472.566 67.8984V68H470.999C470.927 67.835 470.869 67.6255 470.827 67.3716C470.789 67.1134 470.77 66.8638 470.77 66.6226ZM470.992 63.8232L471.005 64.769H469.907C469.623 64.769 469.374 64.7965 469.158 64.8516C468.942 64.9023 468.762 64.9785 468.618 65.0801C468.474 65.1816 468.366 65.3044 468.294 65.4482C468.222 65.5921 468.187 65.755 468.187 65.937C468.187 66.119 468.229 66.2861 468.313 66.4385C468.398 66.5866 468.521 66.703 468.682 66.7876C468.847 66.8722 469.046 66.9146 469.278 66.9146C469.591 66.9146 469.864 66.8511 470.097 66.7241C470.334 66.5929 470.52 66.4342 470.656 66.248C470.791 66.0576 470.863 65.8778 470.872 65.7085L471.367 66.3877C471.316 66.5612 471.229 66.7474 471.106 66.9463C470.984 67.1452 470.823 67.3356 470.624 67.5176C470.429 67.6953 470.194 67.8413 469.919 67.9556C469.649 68.0698 469.335 68.127 468.98 68.127C468.531 68.127 468.132 68.0381 467.78 67.8604C467.429 67.6784 467.154 67.4351 466.955 67.1304C466.756 66.8215 466.657 66.4723 466.657 66.083C466.657 65.7191 466.724 65.3975 466.86 65.1182C467 64.8346 467.203 64.5977 467.469 64.4072C467.74 64.2168 468.07 64.0729 468.459 63.9756C468.849 63.874 469.293 63.8232 469.792 63.8232H470.992ZM478.038 66.3813V61.1318H479.574V68H478.127L478.038 66.3813ZM478.254 64.9531L478.768 64.9404C478.768 65.4017 478.717 65.827 478.616 66.2163C478.514 66.6014 478.358 66.9378 478.146 67.2256C477.934 67.5091 477.664 67.7313 477.333 67.8921C477.003 68.0487 476.608 68.127 476.146 68.127C475.812 68.127 475.505 68.0783 475.226 67.981C474.947 67.8836 474.706 67.7334 474.502 67.5303C474.304 67.3271 474.149 67.0627 474.039 66.7368C473.929 66.411 473.874 66.0216 473.874 65.5688V61.1318H475.404V65.5815C475.404 65.8312 475.433 66.0407 475.493 66.21C475.552 66.375 475.632 66.5083 475.734 66.6099C475.835 66.7114 475.954 66.7834 476.089 66.8257C476.225 66.868 476.369 66.8892 476.521 66.8892C476.957 66.8892 477.3 66.8045 477.549 66.6353C477.803 66.4618 477.983 66.229 478.089 65.937C478.199 65.645 478.254 65.3171 478.254 64.9531ZM482.78 58.25V68H481.244V58.25H482.78ZM487.604 61.1318V62.249H483.732V61.1318H487.604ZM484.849 59.4497H486.379V66.1021C486.379 66.3136 486.409 66.4766 486.468 66.5908C486.531 66.7008 486.618 66.7749 486.728 66.813C486.838 66.8511 486.967 66.8701 487.115 66.8701C487.221 66.8701 487.323 66.8638 487.42 66.8511C487.517 66.8384 487.596 66.8257 487.655 66.813L487.661 67.981C487.534 68.019 487.386 68.0529 487.217 68.0825C487.052 68.1121 486.861 68.127 486.646 68.127C486.294 68.127 485.983 68.0656 485.712 67.9429C485.442 67.8159 485.23 67.6107 485.078 67.3271C484.925 67.0436 484.849 66.667 484.849 66.1973V59.4497ZM495.17 61.1318V62.249H491.298V61.1318H495.17ZM492.416 59.4497H493.945V66.1021C493.945 66.3136 493.975 66.4766 494.034 66.5908C494.098 66.7008 494.184 66.7749 494.294 66.813C494.404 66.8511 494.534 66.8701 494.682 66.8701C494.787 66.8701 494.889 66.8638 494.986 66.8511C495.084 66.8384 495.162 66.8257 495.221 66.813L495.228 67.981C495.101 68.019 494.952 68.0529 494.783 68.0825C494.618 68.1121 494.428 68.127 494.212 68.127C493.861 68.127 493.55 68.0656 493.279 67.9429C493.008 67.8159 492.796 67.6107 492.644 67.3271C492.492 67.0436 492.416 66.667 492.416 66.1973V59.4497ZM500.223 66.6226V63.3472C500.223 63.1017 500.179 62.8901 500.09 62.7124C500.001 62.5347 499.866 62.3971 499.684 62.2998C499.506 62.2025 499.282 62.1538 499.011 62.1538C498.761 62.1538 498.545 62.1961 498.363 62.2808C498.181 62.3654 498.04 62.4797 497.938 62.6235C497.836 62.7674 497.786 62.9303 497.786 63.1123H496.262C496.262 62.8415 496.328 62.5791 496.459 62.3252C496.59 62.0713 496.781 61.8449 497.03 61.646C497.28 61.4471 497.578 61.2905 497.925 61.1763C498.272 61.062 498.662 61.0049 499.093 61.0049C499.61 61.0049 500.067 61.0916 500.464 61.2651C500.866 61.4386 501.182 61.701 501.41 62.0522C501.643 62.3993 501.759 62.8351 501.759 63.3599V66.4131C501.759 66.7262 501.78 67.0076 501.823 67.2573C501.869 67.5028 501.935 67.7165 502.02 67.8984V68H500.452C500.38 67.835 500.323 67.6255 500.28 67.3716C500.242 67.1134 500.223 66.8638 500.223 66.6226ZM500.445 63.8232L500.458 64.769H499.36C499.076 64.769 498.827 64.7965 498.611 64.8516C498.395 64.9023 498.215 64.9785 498.071 65.0801C497.927 65.1816 497.819 65.3044 497.748 65.4482C497.676 65.5921 497.64 65.755 497.64 65.937C497.64 66.119 497.682 66.2861 497.767 66.4385C497.851 66.5866 497.974 66.703 498.135 66.7876C498.3 66.8722 498.499 66.9146 498.731 66.9146C499.045 66.9146 499.318 66.8511 499.55 66.7241C499.787 66.5929 499.973 66.4342 500.109 66.248C500.244 66.0576 500.316 65.8778 500.325 65.7085L500.82 66.3877C500.769 66.5612 500.682 66.7474 500.56 66.9463C500.437 67.1452 500.276 67.3356 500.077 67.5176C499.882 67.6953 499.648 67.8413 499.373 67.9556C499.102 68.0698 498.789 68.127 498.433 68.127C497.985 68.127 497.585 68.0381 497.233 67.8604C496.882 67.6784 496.607 67.4351 496.408 67.1304C496.209 66.8215 496.11 66.4723 496.11 66.083C496.11 65.7191 496.178 65.3975 496.313 65.1182C496.453 64.8346 496.656 64.5977 496.922 64.4072C497.193 64.2168 497.523 64.0729 497.913 63.9756C498.302 63.874 498.746 63.8232 499.246 63.8232H500.445ZM507.758 61.1318H509.148V67.8096C509.148 68.4274 509.017 68.9521 508.754 69.3838C508.492 69.8154 508.126 70.1434 507.656 70.3677C507.187 70.5962 506.643 70.7104 506.025 70.7104C505.763 70.7104 505.471 70.6724 505.149 70.5962C504.832 70.52 504.523 70.3973 504.222 70.228C503.926 70.063 503.678 69.8451 503.479 69.5742L504.197 68.6729C504.442 68.9648 504.713 69.1785 505.009 69.314C505.306 69.4494 505.617 69.5171 505.942 69.5171C506.294 69.5171 506.592 69.4515 506.837 69.3203C507.087 69.1934 507.28 69.005 507.415 68.7554C507.55 68.5057 507.618 68.201 507.618 67.8413V62.687L507.758 61.1318ZM503.092 64.6421V64.5088C503.092 63.9883 503.156 63.5143 503.283 63.0869C503.41 62.6553 503.592 62.285 503.829 61.9761C504.066 61.6629 504.353 61.4238 504.692 61.2588C505.03 61.0895 505.413 61.0049 505.841 61.0049C506.285 61.0049 506.664 61.0853 506.977 61.2461C507.294 61.4069 507.559 61.6375 507.771 61.938C507.982 62.2342 508.147 62.5897 508.266 63.0044C508.388 63.4149 508.479 63.8719 508.539 64.3755V64.8008C508.484 65.2917 508.39 65.7402 508.259 66.1465C508.128 66.5527 507.955 66.904 507.739 67.2002C507.523 67.4964 507.256 67.7249 506.939 67.8857C506.626 68.0465 506.256 68.127 505.828 68.127C505.409 68.127 505.03 68.0402 504.692 67.8667C504.358 67.6932 504.07 67.4499 503.829 67.1367C503.592 66.8236 503.41 66.4554 503.283 66.0322C503.156 65.6048 503.092 65.1414 503.092 64.6421ZM504.622 64.5088V64.6421C504.622 64.9552 504.652 65.2472 504.711 65.5181C504.774 65.7889 504.87 66.028 504.997 66.2354C505.128 66.4385 505.293 66.5993 505.492 66.7178C505.695 66.832 505.934 66.8892 506.209 66.8892C506.569 66.8892 506.863 66.813 507.091 66.6606C507.324 66.5083 507.502 66.3031 507.625 66.0449C507.751 65.7826 507.84 65.4906 507.891 65.1689V64.02C507.866 63.7703 507.813 63.5376 507.732 63.3218C507.656 63.106 507.553 62.9176 507.421 62.7568C507.29 62.5918 507.125 62.4648 506.926 62.376C506.727 62.2829 506.493 62.2363 506.222 62.2363C505.947 62.2363 505.708 62.2956 505.504 62.4141C505.301 62.5326 505.134 62.6955 505.003 62.9028C504.876 63.1102 504.781 63.3514 504.717 63.6265C504.654 63.9015 504.622 64.1956 504.622 64.5088Z" fill="white"/>
<path d="M302 56.5V71.5M302 56.5H298M302 56.5H306M302 71.5H298M302 71.5H306" stroke="#0059FF"/>
<path d="M430 52.5V75.5M430 52.5H426M430 52.5H434M430 75.5H426M430 75.5H434" stroke="#0059FF"/>
</svg>
