<svg width="800" height="128" viewBox="0 0 800 128" fill="none" xmlns="http://www.w3.org/2000/svg">
<rect width="800" height="128" rx="4" fill="#F8F8F8"/>
<path d="M387.359 64.8184H385.139V63.6523H387.359C387.746 63.6523 388.059 63.5898 388.297 63.4648C388.535 63.3398 388.709 63.168 388.818 62.9492C388.932 62.7266 388.988 62.4727 388.988 62.1875C388.988 61.918 388.932 61.666 388.818 61.4316C388.709 61.1934 388.535 61.002 388.297 60.8574C388.059 60.7129 387.746 60.6406 387.359 60.6406H385.59V68H384.119V59.4688H387.359C388.02 59.4688 388.58 59.5859 389.041 59.8203C389.506 60.0508 389.859 60.3711 390.102 60.7812C390.344 61.1875 390.465 61.6523 390.465 62.1758C390.465 62.7266 390.344 63.1992 390.102 63.5938C389.859 63.9883 389.506 64.291 389.041 64.502C388.58 64.7129 388.02 64.8184 387.359 64.8184ZM391.783 59.4688H394.801C395.449 59.4688 396.002 59.5664 396.459 59.7617C396.916 59.957 397.266 60.2461 397.508 60.6289C397.754 61.0078 397.877 61.4766 397.877 62.0352C397.877 62.4609 397.799 62.8359 397.643 63.1602C397.486 63.4844 397.266 63.7578 396.98 63.9805C396.695 64.1992 396.355 64.3691 395.961 64.4902L395.516 64.707H392.803L392.791 63.541H394.824C395.176 63.541 395.469 63.4785 395.703 63.3535C395.938 63.2285 396.113 63.0586 396.23 62.8438C396.352 62.625 396.412 62.3789 396.412 62.1055C396.412 61.8086 396.354 61.5508 396.236 61.332C396.123 61.1094 395.947 60.9395 395.709 60.8223C395.471 60.7012 395.168 60.6406 394.801 60.6406H393.254V68H391.783V59.4688ZM396.652 68L394.648 64.168L396.189 64.1621L398.223 67.9238V68H396.652ZM406.145 63.5V63.9688C406.145 64.6133 406.061 65.1914 405.893 65.7031C405.725 66.2148 405.484 66.6504 405.172 67.0098C404.863 67.3691 404.492 67.6445 404.059 67.8359C403.625 68.0234 403.145 68.1172 402.617 68.1172C402.094 68.1172 401.615 68.0234 401.182 67.8359C400.752 67.6445 400.379 67.3691 400.062 67.0098C399.746 66.6504 399.5 66.2148 399.324 65.7031C399.152 65.1914 399.066 64.6133 399.066 63.9688V63.5C399.066 62.8555 399.152 62.2793 399.324 61.7715C399.496 61.2598 399.738 60.8242 400.051 60.4648C400.367 60.1016 400.74 59.8262 401.17 59.6387C401.604 59.4473 402.082 59.3516 402.605 59.3516C403.133 59.3516 403.613 59.4473 404.047 59.6387C404.48 59.8262 404.854 60.1016 405.166 60.4648C405.479 60.8242 405.719 61.2598 405.887 61.7715C406.059 62.2793 406.145 62.8555 406.145 63.5ZM404.674 63.9688V63.4883C404.674 63.0117 404.627 62.5918 404.533 62.2285C404.443 61.8613 404.309 61.5547 404.129 61.3086C403.953 61.0586 403.736 60.8711 403.479 60.7461C403.221 60.6172 402.93 60.5527 402.605 60.5527C402.281 60.5527 401.992 60.6172 401.738 60.7461C401.484 60.8711 401.268 61.0586 401.088 61.3086C400.912 61.5547 400.777 61.8613 400.684 62.2285C400.59 62.5918 400.543 63.0117 400.543 63.4883V63.9688C400.543 64.4453 400.59 64.8672 400.684 65.2344C400.777 65.6016 400.914 65.9121 401.094 66.166C401.277 66.416 401.496 66.6055 401.75 66.7344C402.004 66.8594 402.293 66.9219 402.617 66.9219C402.945 66.9219 403.236 66.8594 403.49 66.7344C403.744 66.6055 403.959 66.416 404.135 66.166C404.311 65.9121 404.443 65.6016 404.533 65.2344C404.627 64.8672 404.674 64.4453 404.674 63.9688Z" fill="#1A1A1A"/>
<rect x="375.5" y="52.5" width="39" height="23" rx="11.5" stroke="#1A1A1A"/>
</svg>
