<svg width="800" height="128" viewBox="0 0 800 128" fill="none" xmlns="http://www.w3.org/2000/svg">
<rect width="800" height="128" rx="4" fill="#F8F8F8"/>
<rect x="175" y="64" width="48" height="24" rx="12" fill="#737373"/>
<path d="M189.917 78.7368V80H185.276V78.7368H189.917ZM185.721 70.7578V80H184.127V70.7578H185.721ZM194.868 78.6226V75.3472C194.868 75.1017 194.823 74.8901 194.734 74.7124C194.646 74.5347 194.51 74.3971 194.328 74.2998C194.15 74.2025 193.926 74.1538 193.655 74.1538C193.406 74.1538 193.19 74.1961 193.008 74.2808C192.826 74.3654 192.684 74.4797 192.583 74.6235C192.481 74.7674 192.43 74.9303 192.43 75.1123H190.907C190.907 74.8415 190.972 74.5791 191.104 74.3252C191.235 74.0713 191.425 73.8449 191.675 73.646C191.924 73.4471 192.223 73.2905 192.57 73.1763C192.917 73.062 193.306 73.0049 193.738 73.0049C194.254 73.0049 194.711 73.0916 195.109 73.2651C195.511 73.4386 195.826 73.701 196.055 74.0522C196.287 74.3993 196.404 74.8351 196.404 75.3599V78.4131C196.404 78.7262 196.425 79.0076 196.467 79.2573C196.514 79.5028 196.579 79.7165 196.664 79.8984V80H195.096C195.024 79.835 194.967 79.6255 194.925 79.3716C194.887 79.1134 194.868 78.8638 194.868 78.6226ZM195.09 75.8232L195.103 76.769H194.004C193.721 76.769 193.471 76.7965 193.255 76.8516C193.04 76.9023 192.86 76.9785 192.716 77.0801C192.572 77.1816 192.464 77.3044 192.392 77.4482C192.32 77.5921 192.284 77.755 192.284 77.937C192.284 78.119 192.326 78.2861 192.411 78.4385C192.496 78.5866 192.618 78.703 192.779 78.7876C192.944 78.8722 193.143 78.9146 193.376 78.9146C193.689 78.9146 193.962 78.8511 194.195 78.7241C194.432 78.5929 194.618 78.4342 194.753 78.248C194.889 78.0576 194.961 77.8778 194.969 77.7085L195.464 78.3877C195.414 78.5612 195.327 78.7474 195.204 78.9463C195.081 79.1452 194.921 79.3356 194.722 79.5176C194.527 79.6953 194.292 79.8413 194.017 79.9556C193.746 80.0698 193.433 80.127 193.078 80.127C192.629 80.127 192.229 80.0381 191.878 79.8604C191.527 79.6784 191.252 79.4351 191.053 79.1304C190.854 78.8215 190.754 78.4723 190.754 78.083C190.754 77.7191 190.822 77.3975 190.958 77.1182C191.097 76.8346 191.3 76.5977 191.567 76.4072C191.838 76.2168 192.168 76.0729 192.557 75.9756C192.946 75.874 193.391 75.8232 193.89 75.8232H195.09ZM198.01 70.25H199.54V78.5337L199.394 80H198.01V70.25ZM204.021 76.5024V76.6357C204.021 77.1436 203.964 77.6112 203.85 78.0386C203.74 78.4618 203.57 78.8299 203.342 79.1431C203.118 79.4562 202.838 79.6995 202.504 79.873C202.174 80.0423 201.791 80.127 201.355 80.127C200.928 80.127 200.555 80.0465 200.238 79.8857C199.92 79.7249 199.654 79.4964 199.438 79.2002C199.226 78.904 199.055 78.5506 198.924 78.1401C198.793 77.7297 198.7 77.2769 198.645 76.7817V76.3564C198.7 75.8571 198.793 75.4043 198.924 74.998C199.055 74.5876 199.226 74.2342 199.438 73.938C199.654 73.6375 199.918 73.4069 200.231 73.2461C200.549 73.0853 200.919 73.0049 201.342 73.0049C201.782 73.0049 202.17 73.0895 202.504 73.2588C202.842 73.4281 203.124 73.6693 203.348 73.9824C203.572 74.2913 203.74 74.6595 203.85 75.0869C203.964 75.5143 204.021 75.9862 204.021 76.5024ZM202.491 76.6357V76.5024C202.491 76.1935 202.466 75.9036 202.415 75.6328C202.364 75.3577 202.28 75.1165 202.161 74.9092C202.047 74.7018 201.89 74.5389 201.691 74.4204C201.497 74.2977 201.253 74.2363 200.961 74.2363C200.691 74.2363 200.458 74.2829 200.263 74.376C200.069 74.4691 199.906 74.596 199.774 74.7568C199.643 74.9176 199.54 75.1038 199.463 75.3154C199.391 75.527 199.343 75.7555 199.317 76.001V77.1499C199.355 77.4673 199.436 77.7593 199.559 78.0259C199.686 78.2882 199.863 78.4998 200.092 78.6606C200.32 78.8172 200.614 78.8955 200.974 78.8955C201.258 78.8955 201.497 78.8384 201.691 78.7241C201.886 78.6099 202.041 78.4512 202.155 78.248C202.273 78.0407 202.358 77.7995 202.409 77.5244C202.464 77.2493 202.491 76.9531 202.491 76.6357ZM208.344 80.127C207.836 80.127 207.377 80.0444 206.966 79.8794C206.56 79.7101 206.213 79.4753 205.925 79.1748C205.642 78.8743 205.424 78.521 205.271 78.1147C205.119 77.7085 205.043 77.2705 205.043 76.8008V76.5469C205.043 76.0094 205.121 75.5228 205.278 75.0869C205.434 74.651 205.652 74.2786 205.932 73.9697C206.211 73.6566 206.541 73.4175 206.922 73.2524C207.303 73.0874 207.715 73.0049 208.16 73.0049C208.651 73.0049 209.08 73.0874 209.448 73.2524C209.816 73.4175 210.121 73.6502 210.362 73.9507C210.608 74.2469 210.79 74.6003 210.908 75.0107C211.031 75.4212 211.092 75.874 211.092 76.3691V77.0229H205.786V75.9248H209.582V75.8042C209.573 75.5291 209.518 75.271 209.417 75.0298C209.319 74.7886 209.169 74.5939 208.966 74.4458C208.763 74.2977 208.492 74.2236 208.153 74.2236C207.899 74.2236 207.673 74.2786 207.474 74.3887C207.279 74.4945 207.117 74.6489 206.985 74.8521C206.854 75.0552 206.753 75.3006 206.681 75.5884C206.613 75.8719 206.579 76.1914 206.579 76.5469V76.8008C206.579 77.1012 206.619 77.3805 206.7 77.6387C206.784 77.8926 206.907 78.1147 207.068 78.3052C207.229 78.4956 207.423 78.6458 207.652 78.7559C207.88 78.8617 208.141 78.9146 208.433 78.9146C208.801 78.9146 209.129 78.8405 209.417 78.6924C209.704 78.5443 209.954 78.3348 210.166 78.064L210.972 78.8447C210.824 79.0605 210.631 79.2679 210.394 79.4668C210.157 79.6615 209.867 79.8201 209.524 79.9429C209.186 80.0656 208.792 80.127 208.344 80.127ZM213.923 70.25V80H212.387V70.25H213.923Z" fill="white"/>
<rect x="269" y="64" width="48" height="24" rx="12" fill="#286EF1"/>
<path d="M283.917 78.7368V80H279.276V78.7368H283.917ZM279.721 70.7578V80H278.127V70.7578H279.721ZM288.868 78.6226V75.3472C288.868 75.1017 288.823 74.8901 288.734 74.7124C288.646 74.5347 288.51 74.3971 288.328 74.2998C288.15 74.2025 287.926 74.1538 287.655 74.1538C287.406 74.1538 287.19 74.1961 287.008 74.2808C286.826 74.3654 286.684 74.4797 286.583 74.6235C286.481 74.7674 286.43 74.9303 286.43 75.1123H284.907C284.907 74.8415 284.972 74.5791 285.104 74.3252C285.235 74.0713 285.425 73.8449 285.675 73.646C285.924 73.4471 286.223 73.2905 286.57 73.1763C286.917 73.062 287.306 73.0049 287.738 73.0049C288.254 73.0049 288.711 73.0916 289.109 73.2651C289.511 73.4386 289.826 73.701 290.055 74.0522C290.287 74.3993 290.404 74.8351 290.404 75.3599V78.4131C290.404 78.7262 290.425 79.0076 290.467 79.2573C290.514 79.5028 290.579 79.7165 290.664 79.8984V80H289.096C289.024 79.835 288.967 79.6255 288.925 79.3716C288.887 79.1134 288.868 78.8638 288.868 78.6226ZM289.09 75.8232L289.103 76.769H288.004C287.721 76.769 287.471 76.7965 287.255 76.8516C287.04 76.9023 286.86 76.9785 286.716 77.0801C286.572 77.1816 286.464 77.3044 286.392 77.4482C286.32 77.5921 286.284 77.755 286.284 77.937C286.284 78.119 286.326 78.2861 286.411 78.4385C286.496 78.5866 286.618 78.703 286.779 78.7876C286.944 78.8722 287.143 78.9146 287.376 78.9146C287.689 78.9146 287.962 78.8511 288.195 78.7241C288.432 78.5929 288.618 78.4342 288.753 78.248C288.889 78.0576 288.961 77.8778 288.969 77.7085L289.464 78.3877C289.414 78.5612 289.327 78.7474 289.204 78.9463C289.081 79.1452 288.921 79.3356 288.722 79.5176C288.527 79.6953 288.292 79.8413 288.017 79.9556C287.746 80.0698 287.433 80.127 287.078 80.127C286.629 80.127 286.229 80.0381 285.878 79.8604C285.527 79.6784 285.252 79.4351 285.053 79.1304C284.854 78.8215 284.754 78.4723 284.754 78.083C284.754 77.7191 284.822 77.3975 284.958 77.1182C285.097 76.8346 285.3 76.5977 285.567 76.4072C285.838 76.2168 286.168 76.0729 286.557 75.9756C286.946 75.874 287.391 75.8232 287.89 75.8232H289.09ZM292.01 70.25H293.54V78.5337L293.394 80H292.01V70.25ZM298.021 76.5024V76.6357C298.021 77.1436 297.964 77.6112 297.85 78.0386C297.74 78.4618 297.57 78.8299 297.342 79.1431C297.118 79.4562 296.838 79.6995 296.504 79.873C296.174 80.0423 295.791 80.127 295.355 80.127C294.928 80.127 294.555 80.0465 294.238 79.8857C293.92 79.7249 293.654 79.4964 293.438 79.2002C293.226 78.904 293.055 78.5506 292.924 78.1401C292.793 77.7297 292.7 77.2769 292.645 76.7817V76.3564C292.7 75.8571 292.793 75.4043 292.924 74.998C293.055 74.5876 293.226 74.2342 293.438 73.938C293.654 73.6375 293.918 73.4069 294.231 73.2461C294.549 73.0853 294.919 73.0049 295.342 73.0049C295.782 73.0049 296.17 73.0895 296.504 73.2588C296.842 73.4281 297.124 73.6693 297.348 73.9824C297.572 74.2913 297.74 74.6595 297.85 75.0869C297.964 75.5143 298.021 75.9862 298.021 76.5024ZM296.491 76.6357V76.5024C296.491 76.1935 296.466 75.9036 296.415 75.6328C296.364 75.3577 296.28 75.1165 296.161 74.9092C296.047 74.7018 295.89 74.5389 295.691 74.4204C295.497 74.2977 295.253 74.2363 294.961 74.2363C294.691 74.2363 294.458 74.2829 294.263 74.376C294.069 74.4691 293.906 74.596 293.774 74.7568C293.643 74.9176 293.54 75.1038 293.463 75.3154C293.391 75.527 293.343 75.7555 293.317 76.001V77.1499C293.355 77.4673 293.436 77.7593 293.559 78.0259C293.686 78.2882 293.863 78.4998 294.092 78.6606C294.32 78.8172 294.614 78.8955 294.974 78.8955C295.258 78.8955 295.497 78.8384 295.691 78.7241C295.886 78.6099 296.041 78.4512 296.155 78.248C296.273 78.0407 296.358 77.7995 296.409 77.5244C296.464 77.2493 296.491 76.9531 296.491 76.6357ZM302.344 80.127C301.836 80.127 301.377 80.0444 300.966 79.8794C300.56 79.7101 300.213 79.4753 299.925 79.1748C299.642 78.8743 299.424 78.521 299.271 78.1147C299.119 77.7085 299.043 77.2705 299.043 76.8008V76.5469C299.043 76.0094 299.121 75.5228 299.278 75.0869C299.434 74.651 299.652 74.2786 299.932 73.9697C300.211 73.6566 300.541 73.4175 300.922 73.2524C301.303 73.0874 301.715 73.0049 302.16 73.0049C302.651 73.0049 303.08 73.0874 303.448 73.2524C303.816 73.4175 304.121 73.6502 304.362 73.9507C304.608 74.2469 304.79 74.6003 304.908 75.0107C305.031 75.4212 305.092 75.874 305.092 76.3691V77.0229H299.786V75.9248H303.582V75.8042C303.573 75.5291 303.518 75.271 303.417 75.0298C303.319 74.7886 303.169 74.5939 302.966 74.4458C302.763 74.2977 302.492 74.2236 302.153 74.2236C301.899 74.2236 301.673 74.2786 301.474 74.3887C301.279 74.4945 301.117 74.6489 300.985 74.8521C300.854 75.0552 300.753 75.3006 300.681 75.5884C300.613 75.8719 300.579 76.1914 300.579 76.5469V76.8008C300.579 77.1012 300.619 77.3805 300.7 77.6387C300.784 77.8926 300.907 78.1147 301.068 78.3052C301.229 78.4956 301.423 78.6458 301.652 78.7559C301.88 78.8617 302.141 78.9146 302.433 78.9146C302.801 78.9146 303.129 78.8405 303.417 78.6924C303.704 78.5443 303.954 78.3348 304.166 78.064L304.972 78.8447C304.824 79.0605 304.631 79.2679 304.394 79.4668C304.157 79.6615 303.867 79.8201 303.524 79.9429C303.186 80.0656 302.792 80.127 302.344 80.127ZM307.923 70.25V80H306.387V70.25H307.923Z" fill="white"/>
<rect x="385" y="64" width="48" height="24" rx="12" fill="#FFCC20"/>
<path d="M399.917 78.7368V80H395.276V78.7368H399.917ZM395.721 70.7578V80H394.127V70.7578H395.721ZM404.868 78.6226V75.3472C404.868 75.1017 404.823 74.8901 404.734 74.7124C404.646 74.5347 404.51 74.3971 404.328 74.2998C404.15 74.2025 403.926 74.1538 403.655 74.1538C403.406 74.1538 403.19 74.1961 403.008 74.2808C402.826 74.3654 402.684 74.4797 402.583 74.6235C402.481 74.7674 402.43 74.9303 402.43 75.1123H400.907C400.907 74.8415 400.972 74.5791 401.104 74.3252C401.235 74.0713 401.425 73.8449 401.675 73.646C401.924 73.4471 402.223 73.2905 402.57 73.1763C402.917 73.062 403.306 73.0049 403.738 73.0049C404.254 73.0049 404.711 73.0916 405.109 73.2651C405.511 73.4386 405.826 73.701 406.055 74.0522C406.287 74.3993 406.404 74.8351 406.404 75.3599V78.4131C406.404 78.7262 406.425 79.0076 406.467 79.2573C406.514 79.5028 406.579 79.7165 406.664 79.8984V80H405.096C405.024 79.835 404.967 79.6255 404.925 79.3716C404.887 79.1134 404.868 78.8638 404.868 78.6226ZM405.09 75.8232L405.103 76.769H404.004C403.721 76.769 403.471 76.7965 403.255 76.8516C403.04 76.9023 402.86 76.9785 402.716 77.0801C402.572 77.1816 402.464 77.3044 402.392 77.4482C402.32 77.5921 402.284 77.755 402.284 77.937C402.284 78.119 402.326 78.2861 402.411 78.4385C402.496 78.5866 402.618 78.703 402.779 78.7876C402.944 78.8722 403.143 78.9146 403.376 78.9146C403.689 78.9146 403.962 78.8511 404.195 78.7241C404.432 78.5929 404.618 78.4342 404.753 78.248C404.889 78.0576 404.961 77.8778 404.969 77.7085L405.464 78.3877C405.414 78.5612 405.327 78.7474 405.204 78.9463C405.081 79.1452 404.921 79.3356 404.722 79.5176C404.527 79.6953 404.292 79.8413 404.017 79.9556C403.746 80.0698 403.433 80.127 403.078 80.127C402.629 80.127 402.229 80.0381 401.878 79.8604C401.527 79.6784 401.252 79.4351 401.053 79.1304C400.854 78.8215 400.754 78.4723 400.754 78.083C400.754 77.7191 400.822 77.3975 400.958 77.1182C401.097 76.8346 401.3 76.5977 401.567 76.4072C401.838 76.2168 402.168 76.0729 402.557 75.9756C402.946 75.874 403.391 75.8232 403.89 75.8232H405.09ZM408.01 70.25H409.54V78.5337L409.394 80H408.01V70.25ZM414.021 76.5024V76.6357C414.021 77.1436 413.964 77.6112 413.85 78.0386C413.74 78.4618 413.57 78.8299 413.342 79.1431C413.118 79.4562 412.838 79.6995 412.504 79.873C412.174 80.0423 411.791 80.127 411.355 80.127C410.928 80.127 410.555 80.0465 410.238 79.8857C409.92 79.7249 409.654 79.4964 409.438 79.2002C409.226 78.904 409.055 78.5506 408.924 78.1401C408.793 77.7297 408.7 77.2769 408.645 76.7817V76.3564C408.7 75.8571 408.793 75.4043 408.924 74.998C409.055 74.5876 409.226 74.2342 409.438 73.938C409.654 73.6375 409.918 73.4069 410.231 73.2461C410.549 73.0853 410.919 73.0049 411.342 73.0049C411.782 73.0049 412.17 73.0895 412.504 73.2588C412.842 73.4281 413.124 73.6693 413.348 73.9824C413.572 74.2913 413.74 74.6595 413.85 75.0869C413.964 75.5143 414.021 75.9862 414.021 76.5024ZM412.491 76.6357V76.5024C412.491 76.1935 412.466 75.9036 412.415 75.6328C412.364 75.3577 412.28 75.1165 412.161 74.9092C412.047 74.7018 411.89 74.5389 411.691 74.4204C411.497 74.2977 411.253 74.2363 410.961 74.2363C410.691 74.2363 410.458 74.2829 410.263 74.376C410.069 74.4691 409.906 74.596 409.774 74.7568C409.643 74.9176 409.54 75.1038 409.463 75.3154C409.391 75.527 409.343 75.7555 409.317 76.001V77.1499C409.355 77.4673 409.436 77.7593 409.559 78.0259C409.686 78.2882 409.863 78.4998 410.092 78.6606C410.32 78.8172 410.614 78.8955 410.974 78.8955C411.258 78.8955 411.497 78.8384 411.691 78.7241C411.886 78.6099 412.041 78.4512 412.155 78.248C412.273 78.0407 412.358 77.7995 412.409 77.5244C412.464 77.2493 412.491 76.9531 412.491 76.6357ZM418.344 80.127C417.836 80.127 417.377 80.0444 416.966 79.8794C416.56 79.7101 416.213 79.4753 415.925 79.1748C415.642 78.8743 415.424 78.521 415.271 78.1147C415.119 77.7085 415.043 77.2705 415.043 76.8008V76.5469C415.043 76.0094 415.121 75.5228 415.278 75.0869C415.434 74.651 415.652 74.2786 415.932 73.9697C416.211 73.6566 416.541 73.4175 416.922 73.2524C417.303 73.0874 417.715 73.0049 418.16 73.0049C418.651 73.0049 419.08 73.0874 419.448 73.2524C419.816 73.4175 420.121 73.6502 420.362 73.9507C420.608 74.2469 420.79 74.6003 420.908 75.0107C421.031 75.4212 421.092 75.874 421.092 76.3691V77.0229H415.786V75.9248H419.582V75.8042C419.573 75.5291 419.518 75.271 419.417 75.0298C419.319 74.7886 419.169 74.5939 418.966 74.4458C418.763 74.2977 418.492 74.2236 418.153 74.2236C417.899 74.2236 417.673 74.2786 417.474 74.3887C417.279 74.4945 417.117 74.6489 416.985 74.8521C416.854 75.0552 416.753 75.3006 416.681 75.5884C416.613 75.8719 416.579 76.1914 416.579 76.5469V76.8008C416.579 77.1012 416.619 77.3805 416.7 77.6387C416.784 77.8926 416.907 78.1147 417.068 78.3052C417.229 78.4956 417.423 78.6458 417.652 78.7559C417.88 78.8617 418.141 78.9146 418.433 78.9146C418.801 78.9146 419.129 78.8405 419.417 78.6924C419.704 78.5443 419.954 78.3348 420.166 78.064L420.972 78.8447C420.824 79.0605 420.631 79.2679 420.394 79.4668C420.157 79.6615 419.867 79.8201 419.524 79.9429C419.186 80.0656 418.792 80.127 418.344 80.127ZM423.923 70.25V80H422.387V70.25H423.923Z" fill="#1A1A1A"/>
<rect x="477" y="64" width="48" height="24" rx="12" fill="#F45C59"/>
<path d="M491.917 78.7368V80H487.276V78.7368H491.917ZM487.721 70.7578V80H486.127V70.7578H487.721ZM496.868 78.6226V75.3472C496.868 75.1017 496.823 74.8901 496.734 74.7124C496.646 74.5347 496.51 74.3971 496.328 74.2998C496.15 74.2025 495.926 74.1538 495.655 74.1538C495.406 74.1538 495.19 74.1961 495.008 74.2808C494.826 74.3654 494.684 74.4797 494.583 74.6235C494.481 74.7674 494.43 74.9303 494.43 75.1123H492.907C492.907 74.8415 492.972 74.5791 493.104 74.3252C493.235 74.0713 493.425 73.8449 493.675 73.646C493.924 73.4471 494.223 73.2905 494.57 73.1763C494.917 73.062 495.306 73.0049 495.738 73.0049C496.254 73.0049 496.711 73.0916 497.109 73.2651C497.511 73.4386 497.826 73.701 498.055 74.0522C498.287 74.3993 498.404 74.8351 498.404 75.3599V78.4131C498.404 78.7262 498.425 79.0076 498.467 79.2573C498.514 79.5028 498.579 79.7165 498.664 79.8984V80H497.096C497.024 79.835 496.967 79.6255 496.925 79.3716C496.887 79.1134 496.868 78.8638 496.868 78.6226ZM497.09 75.8232L497.103 76.769H496.004C495.721 76.769 495.471 76.7965 495.255 76.8516C495.04 76.9023 494.86 76.9785 494.716 77.0801C494.572 77.1816 494.464 77.3044 494.392 77.4482C494.32 77.5921 494.284 77.755 494.284 77.937C494.284 78.119 494.326 78.2861 494.411 78.4385C494.496 78.5866 494.618 78.703 494.779 78.7876C494.944 78.8722 495.143 78.9146 495.376 78.9146C495.689 78.9146 495.962 78.8511 496.195 78.7241C496.432 78.5929 496.618 78.4342 496.753 78.248C496.889 78.0576 496.961 77.8778 496.969 77.7085L497.464 78.3877C497.414 78.5612 497.327 78.7474 497.204 78.9463C497.081 79.1452 496.921 79.3356 496.722 79.5176C496.527 79.6953 496.292 79.8413 496.017 79.9556C495.746 80.0698 495.433 80.127 495.078 80.127C494.629 80.127 494.229 80.0381 493.878 79.8604C493.527 79.6784 493.252 79.4351 493.053 79.1304C492.854 78.8215 492.754 78.4723 492.754 78.083C492.754 77.7191 492.822 77.3975 492.958 77.1182C493.097 76.8346 493.3 76.5977 493.567 76.4072C493.838 76.2168 494.168 76.0729 494.557 75.9756C494.946 75.874 495.391 75.8232 495.89 75.8232H497.09ZM500.01 70.25H501.54V78.5337L501.394 80H500.01V70.25ZM506.021 76.5024V76.6357C506.021 77.1436 505.964 77.6112 505.85 78.0386C505.74 78.4618 505.57 78.8299 505.342 79.1431C505.118 79.4562 504.838 79.6995 504.504 79.873C504.174 80.0423 503.791 80.127 503.355 80.127C502.928 80.127 502.555 80.0465 502.238 79.8857C501.92 79.7249 501.654 79.4964 501.438 79.2002C501.226 78.904 501.055 78.5506 500.924 78.1401C500.793 77.7297 500.7 77.2769 500.645 76.7817V76.3564C500.7 75.8571 500.793 75.4043 500.924 74.998C501.055 74.5876 501.226 74.2342 501.438 73.938C501.654 73.6375 501.918 73.4069 502.231 73.2461C502.549 73.0853 502.919 73.0049 503.342 73.0049C503.782 73.0049 504.17 73.0895 504.504 73.2588C504.842 73.4281 505.124 73.6693 505.348 73.9824C505.572 74.2913 505.74 74.6595 505.85 75.0869C505.964 75.5143 506.021 75.9862 506.021 76.5024ZM504.491 76.6357V76.5024C504.491 76.1935 504.466 75.9036 504.415 75.6328C504.364 75.3577 504.28 75.1165 504.161 74.9092C504.047 74.7018 503.89 74.5389 503.691 74.4204C503.497 74.2977 503.253 74.2363 502.961 74.2363C502.691 74.2363 502.458 74.2829 502.263 74.376C502.069 74.4691 501.906 74.596 501.774 74.7568C501.643 74.9176 501.54 75.1038 501.463 75.3154C501.391 75.527 501.343 75.7555 501.317 76.001V77.1499C501.355 77.4673 501.436 77.7593 501.559 78.0259C501.686 78.2882 501.863 78.4998 502.092 78.6606C502.32 78.8172 502.614 78.8955 502.974 78.8955C503.258 78.8955 503.497 78.8384 503.691 78.7241C503.886 78.6099 504.041 78.4512 504.155 78.248C504.273 78.0407 504.358 77.7995 504.409 77.5244C504.464 77.2493 504.491 76.9531 504.491 76.6357ZM510.344 80.127C509.836 80.127 509.377 80.0444 508.966 79.8794C508.56 79.7101 508.213 79.4753 507.925 79.1748C507.642 78.8743 507.424 78.521 507.271 78.1147C507.119 77.7085 507.043 77.2705 507.043 76.8008V76.5469C507.043 76.0094 507.121 75.5228 507.278 75.0869C507.434 74.651 507.652 74.2786 507.932 73.9697C508.211 73.6566 508.541 73.4175 508.922 73.2524C509.303 73.0874 509.715 73.0049 510.16 73.0049C510.651 73.0049 511.08 73.0874 511.448 73.2524C511.816 73.4175 512.121 73.6502 512.362 73.9507C512.608 74.2469 512.79 74.6003 512.908 75.0107C513.031 75.4212 513.092 75.874 513.092 76.3691V77.0229H507.786V75.9248H511.582V75.8042C511.573 75.5291 511.518 75.271 511.417 75.0298C511.319 74.7886 511.169 74.5939 510.966 74.4458C510.763 74.2977 510.492 74.2236 510.153 74.2236C509.899 74.2236 509.673 74.2786 509.474 74.3887C509.279 74.4945 509.117 74.6489 508.985 74.8521C508.854 75.0552 508.753 75.3006 508.681 75.5884C508.613 75.8719 508.579 76.1914 508.579 76.5469V76.8008C508.579 77.1012 508.619 77.3805 508.7 77.6387C508.784 77.8926 508.907 78.1147 509.068 78.3052C509.229 78.4956 509.423 78.6458 509.652 78.7559C509.88 78.8617 510.141 78.9146 510.433 78.9146C510.801 78.9146 511.129 78.8405 511.417 78.6924C511.704 78.5443 511.954 78.3348 512.166 78.064L512.972 78.8447C512.824 79.0605 512.631 79.2679 512.394 79.4668C512.157 79.6615 511.867 79.8201 511.524 79.9429C511.186 80.0656 510.792 80.127 510.344 80.127ZM515.923 70.25V80H514.387V70.25H515.923Z" fill="white"/>
<rect x="571" y="64" width="48" height="24" rx="12" fill="#18BB4B"/>
<path d="M585.917 78.7368V80H581.276V78.7368H585.917ZM581.721 70.7578V80H580.127V70.7578H581.721ZM590.868 78.6226V75.3472C590.868 75.1017 590.823 74.8901 590.734 74.7124C590.646 74.5347 590.51 74.3971 590.328 74.2998C590.15 74.2025 589.926 74.1538 589.655 74.1538C589.406 74.1538 589.19 74.1961 589.008 74.2808C588.826 74.3654 588.684 74.4797 588.583 74.6235C588.481 74.7674 588.43 74.9303 588.43 75.1123H586.907C586.907 74.8415 586.972 74.5791 587.104 74.3252C587.235 74.0713 587.425 73.8449 587.675 73.646C587.924 73.4471 588.223 73.2905 588.57 73.1763C588.917 73.062 589.306 73.0049 589.738 73.0049C590.254 73.0049 590.711 73.0916 591.109 73.2651C591.511 73.4386 591.826 73.701 592.055 74.0522C592.287 74.3993 592.404 74.8351 592.404 75.3599V78.4131C592.404 78.7262 592.425 79.0076 592.467 79.2573C592.514 79.5028 592.579 79.7165 592.664 79.8984V80H591.096C591.024 79.835 590.967 79.6255 590.925 79.3716C590.887 79.1134 590.868 78.8638 590.868 78.6226ZM591.09 75.8232L591.103 76.769H590.004C589.721 76.769 589.471 76.7965 589.255 76.8516C589.04 76.9023 588.86 76.9785 588.716 77.0801C588.572 77.1816 588.464 77.3044 588.392 77.4482C588.32 77.5921 588.284 77.755 588.284 77.937C588.284 78.119 588.326 78.2861 588.411 78.4385C588.496 78.5866 588.618 78.703 588.779 78.7876C588.944 78.8722 589.143 78.9146 589.376 78.9146C589.689 78.9146 589.962 78.8511 590.195 78.7241C590.432 78.5929 590.618 78.4342 590.753 78.248C590.889 78.0576 590.961 77.8778 590.969 77.7085L591.464 78.3877C591.414 78.5612 591.327 78.7474 591.204 78.9463C591.081 79.1452 590.921 79.3356 590.722 79.5176C590.527 79.6953 590.292 79.8413 590.017 79.9556C589.746 80.0698 589.433 80.127 589.078 80.127C588.629 80.127 588.229 80.0381 587.878 79.8604C587.527 79.6784 587.252 79.4351 587.053 79.1304C586.854 78.8215 586.754 78.4723 586.754 78.083C586.754 77.7191 586.822 77.3975 586.958 77.1182C587.097 76.8346 587.3 76.5977 587.567 76.4072C587.838 76.2168 588.168 76.0729 588.557 75.9756C588.946 75.874 589.391 75.8232 589.89 75.8232H591.09ZM594.01 70.25H595.54V78.5337L595.394 80H594.01V70.25ZM600.021 76.5024V76.6357C600.021 77.1436 599.964 77.6112 599.85 78.0386C599.74 78.4618 599.57 78.8299 599.342 79.1431C599.118 79.4562 598.838 79.6995 598.504 79.873C598.174 80.0423 597.791 80.127 597.355 80.127C596.928 80.127 596.555 80.0465 596.238 79.8857C595.92 79.7249 595.654 79.4964 595.438 79.2002C595.226 78.904 595.055 78.5506 594.924 78.1401C594.793 77.7297 594.7 77.2769 594.645 76.7817V76.3564C594.7 75.8571 594.793 75.4043 594.924 74.998C595.055 74.5876 595.226 74.2342 595.438 73.938C595.654 73.6375 595.918 73.4069 596.231 73.2461C596.549 73.0853 596.919 73.0049 597.342 73.0049C597.782 73.0049 598.17 73.0895 598.504 73.2588C598.842 73.4281 599.124 73.6693 599.348 73.9824C599.572 74.2913 599.74 74.6595 599.85 75.0869C599.964 75.5143 600.021 75.9862 600.021 76.5024ZM598.491 76.6357V76.5024C598.491 76.1935 598.466 75.9036 598.415 75.6328C598.364 75.3577 598.28 75.1165 598.161 74.9092C598.047 74.7018 597.89 74.5389 597.691 74.4204C597.497 74.2977 597.253 74.2363 596.961 74.2363C596.691 74.2363 596.458 74.2829 596.263 74.376C596.069 74.4691 595.906 74.596 595.774 74.7568C595.643 74.9176 595.54 75.1038 595.463 75.3154C595.391 75.527 595.343 75.7555 595.317 76.001V77.1499C595.355 77.4673 595.436 77.7593 595.559 78.0259C595.686 78.2882 595.863 78.4998 596.092 78.6606C596.32 78.8172 596.614 78.8955 596.974 78.8955C597.258 78.8955 597.497 78.8384 597.691 78.7241C597.886 78.6099 598.041 78.4512 598.155 78.248C598.273 78.0407 598.358 77.7995 598.409 77.5244C598.464 77.2493 598.491 76.9531 598.491 76.6357ZM604.344 80.127C603.836 80.127 603.377 80.0444 602.966 79.8794C602.56 79.7101 602.213 79.4753 601.925 79.1748C601.642 78.8743 601.424 78.521 601.271 78.1147C601.119 77.7085 601.043 77.2705 601.043 76.8008V76.5469C601.043 76.0094 601.121 75.5228 601.278 75.0869C601.434 74.651 601.652 74.2786 601.932 73.9697C602.211 73.6566 602.541 73.4175 602.922 73.2524C603.303 73.0874 603.715 73.0049 604.16 73.0049C604.651 73.0049 605.08 73.0874 605.448 73.2524C605.816 73.4175 606.121 73.6502 606.362 73.9507C606.608 74.2469 606.79 74.6003 606.908 75.0107C607.031 75.4212 607.092 75.874 607.092 76.3691V77.0229H601.786V75.9248H605.582V75.8042C605.573 75.5291 605.518 75.271 605.417 75.0298C605.319 74.7886 605.169 74.5939 604.966 74.4458C604.763 74.2977 604.492 74.2236 604.153 74.2236C603.899 74.2236 603.673 74.2786 603.474 74.3887C603.279 74.4945 603.117 74.6489 602.985 74.8521C602.854 75.0552 602.753 75.3006 602.681 75.5884C602.613 75.8719 602.579 76.1914 602.579 76.5469V76.8008C602.579 77.1012 602.619 77.3805 602.7 77.6387C602.784 77.8926 602.907 78.1147 603.068 78.3052C603.229 78.4956 603.423 78.6458 603.652 78.7559C603.88 78.8617 604.141 78.9146 604.433 78.9146C604.801 78.9146 605.129 78.8405 605.417 78.6924C605.704 78.5443 605.954 78.3348 606.166 78.064L606.972 78.8447C606.824 79.0605 606.631 79.2679 606.394 79.4668C606.157 79.6615 605.867 79.8201 605.524 79.9429C605.186 80.0656 604.792 80.127 604.344 80.127ZM609.923 70.25V80H608.387V70.25H609.923Z" fill="white"/>
<path d="M178.067 52H176.396L176.407 50.9312H178.067C178.55 50.9312 178.955 50.8255 179.281 50.6143C179.61 50.403 179.857 50.1004 180.022 49.7065C180.19 49.3127 180.274 48.8436 180.274 48.2993V47.875C180.274 47.4525 180.226 47.0783 180.129 46.7524C180.036 46.4266 179.897 46.1527 179.71 45.9307C179.528 45.7087 179.302 45.5404 179.034 45.4258C178.769 45.3112 178.463 45.2539 178.115 45.2539H176.364V44.1797H178.115C178.634 44.1797 179.109 44.2674 179.539 44.4429C179.968 44.6147 180.339 44.8636 180.65 45.1895C180.965 45.5153 181.207 45.9056 181.375 46.3604C181.544 46.8151 181.628 47.3236 181.628 47.8857V48.2993C181.628 48.8615 181.544 49.37 181.375 49.8247C181.207 50.2795 180.965 50.6698 180.65 50.9956C180.335 51.3179 179.959 51.5667 179.522 51.7422C179.089 51.9141 178.604 52 178.067 52ZM177.143 44.1797V52H175.795V44.1797H177.143ZM188.3 50.9312V52H184.148V50.9312H188.3ZM184.53 44.1797V52H183.181V44.1797H184.53ZM187.758 47.4453V48.498H184.148V47.4453H187.758ZM188.273 44.1797V45.2539H184.148V44.1797H188.273ZM190.949 44.1797V52H189.601V44.1797H190.949ZM194.14 47.6011V48.6699H190.606V47.6011H194.14ZM194.586 44.1797V45.2539H190.606V44.1797H194.586ZM197.949 45.2217L195.613 52H194.2L197.143 44.1797H198.046L197.949 45.2217ZM199.904 52L197.562 45.2217L197.46 44.1797H198.368L201.322 52H199.904ZM199.791 49.0996V50.1685H195.538V49.0996H199.791ZM206.689 44.1797H208.032V49.4058C208.032 50.0002 207.903 50.4979 207.645 50.8989C207.387 51.3 207.036 51.6025 206.592 51.8066C206.152 52.0072 205.66 52.1074 205.115 52.1074C204.553 52.1074 204.052 52.0072 203.612 51.8066C203.171 51.6025 202.824 51.3 202.57 50.8989C202.319 50.4979 202.194 50.0002 202.194 49.4058V44.1797H203.536V49.4058C203.536 49.7817 203.601 50.0915 203.73 50.335C203.859 50.5749 204.041 50.7521 204.278 50.8667C204.514 50.9813 204.793 51.0386 205.115 51.0386C205.438 51.0386 205.715 50.9813 205.948 50.8667C206.184 50.7521 206.367 50.5749 206.496 50.335C206.625 50.0915 206.689 49.7817 206.689 49.4058V44.1797ZM214.597 50.9312V52H210.67V50.9312H214.597ZM211.046 44.1797V52H209.698V44.1797H211.046ZM217.713 44.1797V52H216.376V44.1797H217.713ZM220.168 44.1797V45.2539H213.943V44.1797H220.168Z" fill="#AAAAAA"/>
<path d="M271.234 44.1797V52H269.886V44.1797H271.234ZM279.314 44.1797V52H277.966L274.458 46.3979V52H273.11V44.1797H274.458L277.976 49.7925V44.1797H279.314ZM282.468 44.1797V52H281.12V44.1797H282.468ZM285.658 47.6011V48.6699H282.124V47.6011H285.658ZM286.104 44.1797V45.2539H282.124V44.1797H286.104ZM293.614 47.875V48.3047C293.614 48.8955 293.537 49.4255 293.383 49.8945C293.229 50.3636 293.009 50.7629 292.723 51.0923C292.44 51.4217 292.1 51.6742 291.702 51.8496C291.305 52.0215 290.864 52.1074 290.381 52.1074C289.901 52.1074 289.462 52.0215 289.065 51.8496C288.671 51.6742 288.329 51.4217 288.039 51.0923C287.749 50.7629 287.523 50.3636 287.362 49.8945C287.205 49.4255 287.126 48.8955 287.126 48.3047V47.875C287.126 47.2842 287.205 46.756 287.362 46.2905C287.52 45.8215 287.742 45.4222 288.028 45.0928C288.318 44.7598 288.66 44.5073 289.054 44.3354C289.452 44.16 289.89 44.0723 290.37 44.0723C290.853 44.0723 291.294 44.16 291.691 44.3354C292.089 44.5073 292.431 44.7598 292.717 45.0928C293.004 45.4222 293.224 45.8215 293.378 46.2905C293.535 46.756 293.614 47.2842 293.614 47.875ZM292.266 48.3047V47.8643C292.266 47.4274 292.223 47.0425 292.137 46.7095C292.055 46.3729 291.931 46.0918 291.767 45.8662C291.605 45.637 291.407 45.4652 291.17 45.3506C290.934 45.2324 290.667 45.1733 290.37 45.1733C290.073 45.1733 289.808 45.2324 289.575 45.3506C289.342 45.4652 289.144 45.637 288.979 45.8662C288.818 46.0918 288.694 46.3729 288.608 46.7095C288.522 47.0425 288.479 47.4274 288.479 47.8643V48.3047C288.479 48.7415 288.522 49.1283 288.608 49.4648C288.694 49.8014 288.82 50.0861 288.984 50.3188C289.153 50.548 289.353 50.7217 289.586 50.8398C289.819 50.9544 290.084 51.0117 290.381 51.0117C290.682 51.0117 290.948 50.9544 291.181 50.8398C291.414 50.7217 291.611 50.548 291.772 50.3188C291.933 50.0861 292.055 49.8014 292.137 49.4648C292.223 49.1283 292.266 48.7415 292.266 48.3047ZM295.162 44.1797H297.928C298.523 44.1797 299.029 44.2692 299.448 44.4482C299.867 44.6273 300.188 44.8923 300.41 45.2432C300.635 45.5905 300.748 46.0202 300.748 46.5322C300.748 46.9225 300.677 47.2663 300.533 47.5635C300.39 47.8607 300.188 48.1113 299.926 48.3154C299.665 48.516 299.354 48.6717 298.992 48.7827L298.584 48.9814H296.097L296.086 47.9126H297.95C298.272 47.9126 298.541 47.8553 298.756 47.7407C298.97 47.6261 299.132 47.4704 299.239 47.2734C299.35 47.0729 299.405 46.8473 299.405 46.5967C299.405 46.3245 299.352 46.0882 299.244 45.8877C299.14 45.6836 298.979 45.5278 298.761 45.4204C298.543 45.3094 298.265 45.2539 297.928 45.2539H296.51V52H295.162V44.1797ZM299.626 52L297.789 48.4873L299.201 48.4819L301.065 51.9302V52H299.626ZM302.839 44.1797H304.042L306.303 50.2114L308.559 44.1797H309.762L306.776 52H305.82L302.839 44.1797ZM302.291 44.1797H303.435L303.634 49.4004V52H302.291V44.1797ZM309.166 44.1797H310.315V52H308.967V49.4004L309.166 44.1797ZM315.258 45.2217L312.922 52H311.509L314.452 44.1797H315.355L315.258 45.2217ZM317.213 52L314.871 45.2217L314.769 44.1797H315.677L318.631 52H317.213ZM317.1 49.0996V50.1685H312.846V49.0996H317.1ZM322.247 44.1797V52H320.91V44.1797H322.247ZM324.702 44.1797V45.2539H318.477V44.1797H324.702ZM327.372 44.1797V52H326.024V44.1797H327.372ZM335.484 47.875V48.3047C335.484 48.8955 335.407 49.4255 335.253 49.8945C335.099 50.3636 334.879 50.7629 334.592 51.0923C334.31 51.4217 333.969 51.6742 333.572 51.8496C333.175 52.0215 332.734 52.1074 332.251 52.1074C331.771 52.1074 331.332 52.0215 330.935 51.8496C330.541 51.6742 330.199 51.4217 329.909 51.0923C329.619 50.7629 329.393 50.3636 329.232 49.8945C329.075 49.4255 328.996 48.8955 328.996 48.3047V47.875C328.996 47.2842 329.075 46.756 329.232 46.2905C329.39 45.8215 329.612 45.4222 329.898 45.0928C330.188 44.7598 330.53 44.5073 330.924 44.3354C331.321 44.16 331.76 44.0723 332.24 44.0723C332.723 44.0723 333.164 44.16 333.561 44.3354C333.959 44.5073 334.301 44.7598 334.587 45.0928C334.874 45.4222 335.094 45.8215 335.248 46.2905C335.405 46.756 335.484 47.2842 335.484 47.875ZM334.136 48.3047V47.8643C334.136 47.4274 334.093 47.0425 334.007 46.7095C333.925 46.3729 333.801 46.0918 333.636 45.8662C333.475 45.637 333.277 45.4652 333.04 45.3506C332.804 45.2324 332.537 45.1733 332.24 45.1733C331.943 45.1733 331.678 45.2324 331.445 45.3506C331.212 45.4652 331.014 45.637 330.849 45.8662C330.688 46.0918 330.564 46.3729 330.478 46.7095C330.392 47.0425 330.349 47.4274 330.349 47.8643V48.3047C330.349 48.7415 330.392 49.1283 330.478 49.4648C330.564 49.8014 330.689 50.0861 330.854 50.3188C331.022 50.548 331.223 50.7217 331.456 50.8398C331.689 50.9544 331.953 51.0117 332.251 51.0117C332.551 51.0117 332.818 50.9544 333.051 50.8398C333.284 50.7217 333.481 50.548 333.642 50.3188C333.803 50.0861 333.925 49.8014 334.007 49.4648C334.093 49.1283 334.136 48.7415 334.136 48.3047ZM343.236 44.1797V52H341.888L338.38 46.3979V52H337.032V44.1797H338.38L341.898 49.7925V44.1797H343.236Z" fill="#AAAAAA"/>
<path d="M387.755 50.2437L389.313 44.1797H390.129L390.038 45.7427L388.373 52H387.524L387.755 50.2437ZM386.59 44.1797L387.852 50.1953L387.965 52H387.062L385.252 44.1797H386.59ZM391.896 50.1792L393.143 44.1797H394.485L392.675 52H391.773L391.896 50.1792ZM390.446 44.1797L391.988 50.2598L392.213 52H391.365L389.727 45.7427L389.641 44.1797H390.446ZM398.493 45.2217L396.157 52H394.744L397.688 44.1797H398.59L398.493 45.2217ZM400.449 52L398.107 45.2217L398.005 44.1797H398.912L401.867 52H400.449ZM400.336 49.0996V50.1685H396.082V49.0996H400.336ZM402.942 44.1797H405.708C406.303 44.1797 406.809 44.2692 407.228 44.4482C407.647 44.6273 407.968 44.8923 408.19 45.2432C408.415 45.5905 408.528 46.0202 408.528 46.5322C408.528 46.9225 408.456 47.2663 408.313 47.5635C408.17 47.8607 407.968 48.1113 407.706 48.3154C407.445 48.516 407.133 48.6717 406.772 48.7827L406.363 48.9814H403.877L403.866 47.9126H405.73C406.052 47.9126 406.32 47.8553 406.535 47.7407C406.75 47.6261 406.911 47.4704 407.019 47.2734C407.13 47.0729 407.185 46.8473 407.185 46.5967C407.185 46.3245 407.131 46.0882 407.024 45.8877C406.92 45.6836 406.759 45.5278 406.541 45.4204C406.322 45.3094 406.045 45.2539 405.708 45.2539H404.29V52H402.942V44.1797ZM407.405 52L405.568 48.4873L406.981 48.4819L408.845 51.9302V52H407.405ZM416.274 44.1797V52H414.926L411.419 46.3979V52H410.071V44.1797H411.419L414.937 49.7925V44.1797H416.274ZM419.52 44.1797V52H418.172V44.1797H419.52ZM427.599 44.1797V52H426.251L422.744 46.3979V52H421.396V44.1797H422.744L426.262 49.7925V44.1797H427.599ZM435.41 48.0039V50.9902C435.299 51.137 435.125 51.2982 434.889 51.4736C434.656 51.6455 434.346 51.7941 433.96 51.9194C433.573 52.0448 433.091 52.1074 432.515 52.1074C432.024 52.1074 431.575 52.0251 431.167 51.8604C430.759 51.6921 430.406 51.4468 430.109 51.1245C429.815 50.8022 429.588 50.4102 429.427 49.9482C429.265 49.4827 429.185 48.9528 429.185 48.3584V47.8159C429.185 47.2251 429.258 46.6987 429.405 46.2368C429.555 45.7713 429.77 45.3774 430.05 45.0552C430.329 44.7329 430.665 44.4894 431.059 44.3247C431.457 44.1564 431.906 44.0723 432.408 44.0723C433.048 44.0723 433.578 44.1797 433.997 44.3945C434.42 44.6058 434.746 44.8994 434.975 45.2754C435.204 45.6514 435.349 46.0811 435.41 46.5645H434.089C434.046 46.2923 433.962 46.0488 433.836 45.834C433.714 45.6191 433.539 45.4508 433.31 45.3291C433.084 45.2038 432.791 45.1411 432.429 45.1411C432.117 45.1411 431.844 45.2002 431.607 45.3184C431.371 45.4365 431.174 45.6102 431.016 45.8394C430.862 46.0685 430.746 46.3478 430.667 46.6772C430.589 47.0067 430.549 47.3826 430.549 47.8052V48.3584C430.549 48.7881 430.594 49.1694 430.683 49.5024C430.776 49.8354 430.909 50.1165 431.081 50.3457C431.256 50.5749 431.469 50.7485 431.72 50.8667C431.971 50.9813 432.254 51.0386 432.569 51.0386C432.877 51.0386 433.129 51.0135 433.326 50.9634C433.523 50.9097 433.679 50.847 433.793 50.7754C433.911 50.7002 434.003 50.6286 434.067 50.5605V49.0083H432.44V48.0039H435.41Z" fill="#AAAAAA"/>
<path d="M483.414 49.4541H484.757C484.714 49.9661 484.571 50.4227 484.327 50.8237C484.084 51.2212 483.742 51.5345 483.301 51.7637C482.861 51.9928 482.326 52.1074 481.695 52.1074C481.212 52.1074 480.777 52.0215 480.39 51.8496C480.003 51.6742 479.672 51.4271 479.396 51.1084C479.121 50.7861 478.91 50.3976 478.763 49.9429C478.619 49.4881 478.548 48.9797 478.548 48.4175V47.7676C478.548 47.2054 478.621 46.6969 478.768 46.2422C478.918 45.7874 479.133 45.3989 479.413 45.0767C479.692 44.7508 480.027 44.502 480.417 44.3301C480.811 44.1582 481.253 44.0723 481.744 44.0723C482.367 44.0723 482.893 44.1868 483.323 44.416C483.752 44.6452 484.085 44.9621 484.322 45.3667C484.562 45.7713 484.708 46.235 484.762 46.7578H483.419C483.384 46.4212 483.305 46.133 483.183 45.8931C483.065 45.6532 482.889 45.4705 482.657 45.3452C482.424 45.2163 482.12 45.1519 481.744 45.1519C481.436 45.1519 481.167 45.2091 480.938 45.3237C480.709 45.4383 480.517 45.6066 480.363 45.8286C480.209 46.0506 480.093 46.3245 480.014 46.6504C479.939 46.9727 479.901 47.3415 479.901 47.7568V48.4175C479.901 48.8114 479.935 49.1694 480.003 49.4917C480.075 49.8104 480.182 50.0843 480.326 50.3135C480.472 50.5426 480.659 50.7199 480.884 50.8452C481.11 50.9705 481.38 51.0332 481.695 51.0332C482.078 51.0332 482.388 50.9723 482.625 50.8506C482.864 50.7288 483.045 50.5516 483.167 50.3188C483.292 50.0825 483.375 49.7943 483.414 49.4541ZM486.181 44.1797H488.948C489.542 44.1797 490.049 44.2692 490.468 44.4482C490.887 44.6273 491.207 44.8923 491.429 45.2432C491.655 45.5905 491.767 46.0202 491.767 46.5322C491.767 46.9225 491.696 47.2663 491.553 47.5635C491.409 47.8607 491.207 48.1113 490.946 48.3154C490.684 48.516 490.373 48.6717 490.011 48.7827L489.603 48.9814H487.116L487.105 47.9126H488.969C489.291 47.9126 489.56 47.8553 489.775 47.7407C489.99 47.6261 490.151 47.4704 490.258 47.2734C490.369 47.0729 490.425 46.8473 490.425 46.5967C490.425 46.3245 490.371 46.0882 490.263 45.8877C490.16 45.6836 489.999 45.5278 489.78 45.4204C489.562 45.3094 489.284 45.2539 488.948 45.2539H487.53V52H486.181V44.1797ZM490.645 52L488.808 48.4873L490.221 48.4819L492.084 51.9302V52H490.645ZM494.75 44.1797V52H493.401V44.1797H494.75ZM499.682 44.1797V52H498.344V44.1797H499.682ZM502.136 44.1797V45.2539H495.911V44.1797H502.136ZM504.807 44.1797V52H503.459V44.1797H504.807ZM511.302 49.4541H512.645C512.602 49.9661 512.458 50.4227 512.215 50.8237C511.971 51.2212 511.629 51.5345 511.189 51.7637C510.749 51.9928 510.213 52.1074 509.583 52.1074C509.1 52.1074 508.665 52.0215 508.278 51.8496C507.891 51.6742 507.56 51.4271 507.284 51.1084C507.008 50.7861 506.797 50.3976 506.65 49.9429C506.507 49.4881 506.436 48.9797 506.436 48.4175V47.7676C506.436 47.2054 506.509 46.6969 506.656 46.2422C506.806 45.7874 507.021 45.3989 507.3 45.0767C507.58 44.7508 507.914 44.502 508.305 44.3301C508.699 44.1582 509.141 44.0723 509.631 44.0723C510.254 44.0723 510.781 44.1868 511.21 44.416C511.64 44.6452 511.973 44.9621 512.209 45.3667C512.449 45.7713 512.596 46.235 512.65 46.7578H511.307C511.271 46.4212 511.193 46.133 511.071 45.8931C510.953 45.6532 510.777 45.4705 510.544 45.3452C510.312 45.2163 510.007 45.1519 509.631 45.1519C509.323 45.1519 509.055 45.2091 508.826 45.3237C508.597 45.4383 508.405 45.6066 508.251 45.8286C508.097 46.0506 507.981 46.3245 507.902 46.6504C507.827 46.9727 507.789 47.3415 507.789 47.7568V48.4175C507.789 48.8114 507.823 49.1694 507.891 49.4917C507.963 49.8104 508.07 50.0843 508.213 50.3135C508.36 50.5426 508.546 50.7199 508.772 50.8452C508.998 50.9705 509.268 51.0332 509.583 51.0332C509.966 51.0332 510.276 50.9723 510.512 50.8506C510.752 50.7288 510.933 50.5516 511.055 50.3188C511.18 50.0825 511.262 49.7943 511.302 49.4541ZM517.115 45.2217L514.778 52H513.366L516.309 44.1797H517.211L517.115 45.2217ZM519.07 52L516.728 45.2217L516.626 44.1797H517.533L520.488 52H519.07ZM518.957 49.0996V50.1685H514.703V49.0996H518.957ZM526.462 50.9312V52H522.535V50.9312H526.462ZM522.911 44.1797V52H521.563V44.1797H522.911Z" fill="#AAAAAA"/>
<path d="M575.909 49.9858C575.909 49.8247 575.884 49.6815 575.834 49.5562C575.787 49.4308 575.703 49.3162 575.582 49.2124C575.46 49.1086 575.288 49.0083 575.066 48.9116C574.847 48.8114 574.568 48.7093 574.228 48.6055C573.856 48.4909 573.512 48.3638 573.197 48.2241C572.885 48.0809 572.613 47.9162 572.38 47.73C572.148 47.5402 571.967 47.3236 571.838 47.0801C571.709 46.833 571.645 46.5483 571.645 46.2261C571.645 45.9074 571.711 45.6174 571.843 45.356C571.979 45.0946 572.171 44.869 572.418 44.6792C572.669 44.4858 572.964 44.3372 573.304 44.2334C573.644 44.126 574.02 44.0723 574.432 44.0723C575.012 44.0723 575.512 44.1797 575.931 44.3945C576.353 44.6094 576.677 44.8976 576.903 45.2593C577.132 45.6209 577.247 46.0202 577.247 46.457H575.909C575.909 46.1992 575.854 45.9718 575.743 45.7749C575.635 45.5744 575.471 45.4168 575.249 45.3022C575.03 45.1877 574.753 45.1304 574.416 45.1304C574.097 45.1304 573.832 45.1787 573.621 45.2754C573.41 45.3721 573.252 45.5028 573.148 45.6675C573.045 45.8322 572.993 46.0184 572.993 46.2261C572.993 46.3729 573.027 46.5072 573.095 46.6289C573.163 46.7471 573.267 46.8581 573.406 46.9619C573.546 47.0622 573.721 47.1571 573.933 47.2466C574.144 47.3361 574.393 47.422 574.679 47.5044C575.112 47.6333 575.49 47.7765 575.812 47.9341C576.135 48.0881 576.403 48.2635 576.618 48.4604C576.833 48.6574 576.994 48.8812 577.102 49.1318C577.209 49.3789 577.263 49.66 577.263 49.9751C577.263 50.3045 577.196 50.6017 577.064 50.8667C576.931 51.1281 576.742 51.3519 576.495 51.5381C576.251 51.7207 575.958 51.8621 575.614 51.9624C575.274 52.0591 574.894 52.1074 574.475 52.1074C574.099 52.1074 573.729 52.0573 573.363 51.957C573.002 51.8568 572.672 51.7046 572.375 51.5005C572.078 51.2928 571.841 51.035 571.666 50.7271C571.491 50.4155 571.403 50.0521 571.403 49.6367H572.751C572.751 49.891 572.794 50.1076 572.88 50.2866C572.969 50.4657 573.093 50.6125 573.25 50.7271C573.408 50.8381 573.591 50.9204 573.798 50.9741C574.01 51.0278 574.235 51.0547 574.475 51.0547C574.79 51.0547 575.053 51.0099 575.265 50.9204C575.479 50.8309 575.641 50.7056 575.748 50.5444C575.855 50.3833 575.909 50.1971 575.909 49.9858ZM583.043 44.1797H584.386V49.4058C584.386 50.0002 584.257 50.4979 583.999 50.8989C583.742 51.3 583.391 51.6025 582.947 51.8066C582.506 52.0072 582.014 52.1074 581.47 52.1074C580.907 52.1074 580.406 52.0072 579.966 51.8066C579.525 51.6025 579.178 51.3 578.924 50.8989C578.673 50.4979 578.548 50.0002 578.548 49.4058V44.1797H579.89V49.4058C579.89 49.7817 579.955 50.0915 580.084 50.335C580.213 50.5749 580.395 50.7521 580.632 50.8667C580.868 50.9813 581.147 51.0386 581.47 51.0386C581.792 51.0386 582.069 50.9813 582.302 50.8667C582.538 50.7521 582.721 50.5749 582.85 50.335C582.979 50.0915 583.043 49.7817 583.043 49.4058V44.1797ZM590.671 49.4541H592.014C591.971 49.9661 591.828 50.4227 591.585 50.8237C591.341 51.2212 590.999 51.5345 590.559 51.7637C590.118 51.9928 589.583 52.1074 588.953 52.1074C588.469 52.1074 588.034 52.0215 587.648 51.8496C587.261 51.6742 586.93 51.4271 586.654 51.1084C586.378 50.7861 586.167 50.3976 586.02 49.9429C585.877 49.4881 585.805 48.9797 585.805 48.4175V47.7676C585.805 47.2054 585.879 46.6969 586.025 46.2422C586.176 45.7874 586.391 45.3989 586.67 45.0767C586.949 44.7508 587.284 44.502 587.674 44.3301C588.068 44.1582 588.511 44.0723 589.001 44.0723C589.624 44.0723 590.15 44.1868 590.58 44.416C591.01 44.6452 591.343 44.9621 591.579 45.3667C591.819 45.7713 591.966 46.235 592.02 46.7578H590.677C590.641 46.4212 590.562 46.133 590.441 45.8931C590.322 45.6532 590.147 45.4705 589.914 45.3452C589.681 45.2163 589.377 45.1519 589.001 45.1519C588.693 45.1519 588.425 45.2091 588.195 45.3237C587.966 45.4383 587.775 45.6066 587.621 45.8286C587.467 46.0506 587.35 46.3245 587.272 46.6504C587.196 46.9727 587.159 47.3415 587.159 47.7568V48.4175C587.159 48.8114 587.193 49.1694 587.261 49.4917C587.332 49.8104 587.44 50.0843 587.583 50.3135C587.73 50.5426 587.916 50.7199 588.142 50.8452C588.367 50.9705 588.638 51.0332 588.953 51.0332C589.336 51.0332 589.646 50.9723 589.882 50.8506C590.122 50.7288 590.303 50.5516 590.424 50.3188C590.55 50.0825 590.632 49.7943 590.671 49.4541ZM598.058 49.4541H599.401C599.358 49.9661 599.215 50.4227 598.971 50.8237C598.728 51.2212 598.386 51.5345 597.945 51.7637C597.505 51.9928 596.969 52.1074 596.339 52.1074C595.856 52.1074 595.421 52.0215 595.034 51.8496C594.647 51.6742 594.316 51.4271 594.04 51.1084C593.765 50.7861 593.553 50.3976 593.407 49.9429C593.263 49.4881 593.192 48.9797 593.192 48.4175V47.7676C593.192 47.2054 593.265 46.6969 593.412 46.2422C593.562 45.7874 593.777 45.3989 594.057 45.0767C594.336 44.7508 594.671 44.502 595.061 44.3301C595.455 44.1582 595.897 44.0723 596.388 44.0723C597.011 44.0723 597.537 44.1868 597.967 44.416C598.396 44.6452 598.729 44.9621 598.966 45.3667C599.206 45.7713 599.352 46.235 599.406 46.7578H598.063C598.028 46.4212 597.949 46.133 597.827 45.8931C597.709 45.6532 597.533 45.4705 597.301 45.3452C597.068 45.2163 596.764 45.1519 596.388 45.1519C596.08 45.1519 595.811 45.2091 595.582 45.3237C595.353 45.4383 595.161 45.6066 595.007 45.8286C594.853 46.0506 594.737 46.3245 594.658 46.6504C594.583 46.9727 594.545 47.3415 594.545 47.7568V48.4175C594.545 48.8114 594.579 49.1694 594.647 49.4917C594.719 49.8104 594.826 50.0843 594.97 50.3135C595.116 50.5426 595.303 50.7199 595.528 50.8452C595.754 50.9705 596.024 51.0332 596.339 51.0332C596.722 51.0332 597.032 50.9723 597.268 50.8506C597.508 50.7288 597.689 50.5516 597.811 50.3188C597.936 50.0825 598.019 49.7943 598.058 49.4541ZM605.944 50.9312V52H601.792V50.9312H605.944ZM602.174 44.1797V52H600.825V44.1797H602.174ZM605.402 47.4453V48.498H601.792V47.4453H605.402ZM605.917 44.1797V45.2539H601.792V44.1797H605.917ZM611.359 49.9858C611.359 49.8247 611.334 49.6815 611.284 49.5562C611.238 49.4308 611.153 49.3162 611.032 49.2124C610.91 49.1086 610.738 49.0083 610.516 48.9116C610.298 48.8114 610.018 48.7093 609.678 48.6055C609.306 48.4909 608.962 48.3638 608.647 48.2241C608.335 48.0809 608.063 47.9162 607.831 47.73C607.598 47.5402 607.417 47.3236 607.288 47.0801C607.159 46.833 607.095 46.5483 607.095 46.2261C607.095 45.9074 607.161 45.6174 607.293 45.356C607.43 45.0946 607.621 44.869 607.868 44.6792C608.119 44.4858 608.414 44.3372 608.754 44.2334C609.095 44.126 609.471 44.0723 609.882 44.0723C610.462 44.0723 610.962 44.1797 611.381 44.3945C611.803 44.6094 612.127 44.8976 612.353 45.2593C612.582 45.6209 612.697 46.0202 612.697 46.457H611.359C611.359 46.1992 611.304 45.9718 611.193 45.7749C611.085 45.5744 610.921 45.4168 610.699 45.3022C610.48 45.1877 610.203 45.1304 609.866 45.1304C609.548 45.1304 609.283 45.1787 609.071 45.2754C608.86 45.3721 608.702 45.5028 608.599 45.6675C608.495 45.8322 608.443 46.0184 608.443 46.2261C608.443 46.3729 608.477 46.5072 608.545 46.6289C608.613 46.7471 608.717 46.8581 608.856 46.9619C608.996 47.0622 609.172 47.1571 609.383 47.2466C609.594 47.3361 609.843 47.422 610.129 47.5044C610.563 47.6333 610.94 47.7765 611.263 47.9341C611.585 48.0881 611.854 48.2635 612.068 48.4604C612.283 48.6574 612.444 48.8812 612.552 49.1318C612.659 49.3789 612.713 49.66 612.713 49.9751C612.713 50.3045 612.647 50.6017 612.514 50.8667C612.382 51.1281 612.192 51.3519 611.945 51.5381C611.701 51.7207 611.408 51.8621 611.064 51.9624C610.724 52.0591 610.344 52.1074 609.925 52.1074C609.549 52.1074 609.179 52.0573 608.813 51.957C608.452 51.8568 608.122 51.7046 607.825 51.5005C607.528 51.2928 607.292 51.035 607.116 50.7271C606.941 50.4155 606.853 50.0521 606.853 49.6367H608.201C608.201 49.891 608.244 50.1076 608.33 50.2866C608.42 50.4657 608.543 50.6125 608.701 50.7271C608.858 50.8381 609.041 50.9204 609.249 50.9741C609.46 51.0278 609.685 51.0547 609.925 51.0547C610.24 51.0547 610.504 51.0099 610.715 50.9204C610.93 50.8309 611.091 50.7056 611.198 50.5444C611.306 50.3833 611.359 50.1971 611.359 49.9858ZM618.22 49.9858C618.22 49.8247 618.194 49.6815 618.144 49.5562C618.098 49.4308 618.014 49.3162 617.892 49.2124C617.77 49.1086 617.598 49.0083 617.376 48.9116C617.158 48.8114 616.879 48.7093 616.538 48.6055C616.166 48.4909 615.822 48.3638 615.507 48.2241C615.196 48.0809 614.923 47.9162 614.691 47.73C614.458 47.5402 614.277 47.3236 614.148 47.0801C614.019 46.833 613.955 46.5483 613.955 46.2261C613.955 45.9074 614.021 45.6174 614.154 45.356C614.29 45.0946 614.481 44.869 614.728 44.6792C614.979 44.4858 615.274 44.3372 615.615 44.2334C615.955 44.126 616.331 44.0723 616.742 44.0723C617.323 44.0723 617.822 44.1797 618.241 44.3945C618.664 44.6094 618.988 44.8976 619.213 45.2593C619.442 45.6209 619.557 46.0202 619.557 46.457H618.22C618.22 46.1992 618.164 45.9718 618.053 45.7749C617.946 45.5744 617.781 45.4168 617.559 45.3022C617.34 45.1877 617.063 45.1304 616.726 45.1304C616.408 45.1304 616.143 45.1787 615.931 45.2754C615.72 45.3721 615.563 45.5028 615.459 45.6675C615.355 45.8322 615.303 46.0184 615.303 46.2261C615.303 46.3729 615.337 46.5072 615.405 46.6289C615.473 46.7471 615.577 46.8581 615.717 46.9619C615.856 47.0622 616.032 47.1571 616.243 47.2466C616.454 47.3361 616.703 47.422 616.99 47.5044C617.423 47.6333 617.801 47.7765 618.123 47.9341C618.445 48.0881 618.714 48.2635 618.929 48.4604C619.143 48.6574 619.304 48.8812 619.412 49.1318C619.519 49.3789 619.573 49.66 619.573 49.9751C619.573 50.3045 619.507 50.6017 619.374 50.8667C619.242 51.1281 619.052 51.3519 618.805 51.5381C618.561 51.7207 618.268 51.8621 617.924 51.9624C617.584 52.0591 617.204 52.1074 616.785 52.1074C616.409 52.1074 616.039 52.0573 615.674 51.957C615.312 51.8568 614.983 51.7046 614.685 51.5005C614.388 51.2928 614.152 51.035 613.976 50.7271C613.801 50.4155 613.713 50.0521 613.713 49.6367H615.061C615.061 49.891 615.104 50.1076 615.19 50.2866C615.28 50.4657 615.403 50.6125 615.561 50.7271C615.718 50.8381 615.901 50.9204 616.109 50.9741C616.32 51.0278 616.546 51.0547 616.785 51.0547C617.101 51.0547 617.364 51.0099 617.575 50.9204C617.79 50.8309 617.951 50.7056 618.058 50.5444C618.166 50.3833 618.22 50.1971 618.22 49.9858Z" fill="#AAAAAA"/>
</svg>
