<svg width="800" height="143" viewBox="0 0 800 143" fill="none" xmlns="http://www.w3.org/2000/svg">
<mask id="path-1-inside-1_3685_53725" fill="white">
<rect width="800" height="143" rx="4"/>
</mask>
<rect width="800" height="143" rx="4" fill="white"/>
<path d="M491.5 56C491.5 54.067 493.067 52.5 495 52.5H567.5V91.5H495C493.067 91.5 491.5 89.933 491.5 88V56Z" fill="#EAF1FE"/>
<path d="M507.939 66.7578H511.208C511.911 66.7578 512.51 66.8636 513.005 67.0752C513.5 67.2868 513.879 67.5999 514.141 68.0146C514.408 68.4251 514.541 68.9329 514.541 69.5381C514.541 69.9993 514.456 70.4056 514.287 70.7568C514.118 71.1081 513.879 71.4043 513.57 71.6455C513.261 71.8825 512.893 72.0666 512.465 72.1978L511.983 72.4326H509.044L509.031 71.1694H511.234C511.615 71.1694 511.932 71.1017 512.186 70.9663C512.44 70.8309 512.63 70.6468 512.757 70.4141C512.889 70.1771 512.954 69.9105 512.954 69.6143C512.954 69.2926 512.891 69.0133 512.764 68.7764C512.641 68.5352 512.451 68.3511 512.192 68.2241C511.934 68.0929 511.606 68.0273 511.208 68.0273H509.533V76H507.939V66.7578ZM513.214 76L511.043 71.8486L512.713 71.8423L514.916 75.9175V76H513.214ZM519.003 76.127C518.496 76.127 518.036 76.0444 517.626 75.8794C517.22 75.7101 516.873 75.4753 516.585 75.1748C516.301 74.8743 516.083 74.521 515.931 74.1147C515.779 73.7085 515.703 73.2705 515.703 72.8008V72.5469C515.703 72.0094 515.781 71.5228 515.938 71.0869C516.094 70.651 516.312 70.2786 516.591 69.9697C516.871 69.6566 517.201 69.4175 517.582 69.2524C517.962 69.0874 518.375 69.0049 518.819 69.0049C519.31 69.0049 519.74 69.0874 520.108 69.2524C520.476 69.4175 520.781 69.6502 521.022 69.9507C521.267 70.2469 521.449 70.6003 521.568 71.0107C521.691 71.4212 521.752 71.874 521.752 72.3691V73.0229H516.445V71.9248H520.241V71.8042C520.233 71.5291 520.178 71.271 520.076 71.0298C519.979 70.7886 519.829 70.5939 519.625 70.4458C519.422 70.2977 519.152 70.2236 518.813 70.2236C518.559 70.2236 518.333 70.2786 518.134 70.3887C517.939 70.4945 517.776 70.6489 517.645 70.8521C517.514 71.0552 517.412 71.3006 517.34 71.5884C517.273 71.8719 517.239 72.1914 517.239 72.5469V72.8008C517.239 73.1012 517.279 73.3805 517.359 73.6387C517.444 73.8926 517.567 74.1147 517.728 74.3052C517.888 74.4956 518.083 74.6458 518.312 74.7559C518.54 74.8617 518.8 74.9146 519.092 74.9146C519.46 74.9146 519.788 74.8405 520.076 74.6924C520.364 74.5443 520.614 74.3348 520.825 74.064L521.631 74.8447C521.483 75.0605 521.291 75.2679 521.054 75.4668C520.817 75.6615 520.527 75.8201 520.184 75.9429C519.846 76.0656 519.452 76.127 519.003 76.127ZM527.344 69.1318H528.734V75.8096C528.734 76.4274 528.603 76.9521 528.341 77.3838C528.078 77.8154 527.712 78.1434 527.243 78.3677C526.773 78.5962 526.229 78.7104 525.611 78.7104C525.349 78.7104 525.057 78.6724 524.735 78.5962C524.418 78.52 524.109 78.3973 523.809 78.228C523.512 78.063 523.265 77.8451 523.066 77.5742L523.783 76.6729C524.029 76.9648 524.299 77.1785 524.596 77.314C524.892 77.4494 525.203 77.5171 525.529 77.5171C525.88 77.5171 526.178 77.4515 526.424 77.3203C526.674 77.1934 526.866 77.005 527.001 76.7554C527.137 76.5057 527.205 76.201 527.205 75.8413V70.687L527.344 69.1318ZM522.679 72.6421V72.5088C522.679 71.9883 522.742 71.5143 522.869 71.0869C522.996 70.6553 523.178 70.285 523.415 69.9761C523.652 69.6629 523.94 69.4238 524.278 69.2588C524.617 69.0895 525 69.0049 525.427 69.0049C525.872 69.0049 526.25 69.0853 526.563 69.2461C526.881 69.4069 527.145 69.6375 527.357 69.938C527.569 70.2342 527.734 70.5897 527.852 71.0044C527.975 71.4149 528.066 71.8719 528.125 72.3755V72.8008C528.07 73.2917 527.977 73.7402 527.846 74.1465C527.715 74.5527 527.541 74.904 527.325 75.2002C527.109 75.4964 526.843 75.7249 526.525 75.8857C526.212 76.0465 525.842 76.127 525.415 76.127C524.996 76.127 524.617 76.0402 524.278 75.8667C523.944 75.6932 523.656 75.4499 523.415 75.1367C523.178 74.8236 522.996 74.4554 522.869 74.0322C522.742 73.6048 522.679 73.1414 522.679 72.6421ZM524.208 72.5088V72.6421C524.208 72.9552 524.238 73.2472 524.297 73.5181C524.361 73.7889 524.456 74.028 524.583 74.2354C524.714 74.4385 524.879 74.5993 525.078 74.7178C525.281 74.832 525.52 74.8892 525.795 74.8892C526.155 74.8892 526.449 74.813 526.678 74.6606C526.91 74.5083 527.088 74.3031 527.211 74.0449C527.338 73.7826 527.427 73.4906 527.478 73.1689V72.02C527.452 71.7703 527.399 71.5376 527.319 71.3218C527.243 71.106 527.139 70.9176 527.008 70.7568C526.877 70.5918 526.712 70.4648 526.513 70.376C526.314 70.2829 526.079 70.2363 525.808 70.2363C525.533 70.2363 525.294 70.2956 525.091 70.4141C524.888 70.5326 524.721 70.6955 524.589 70.9028C524.462 71.1102 524.367 71.3514 524.304 71.6265C524.24 71.9015 524.208 72.1956 524.208 72.5088ZM534.454 74.3813V69.1318H535.99V76H534.542L534.454 74.3813ZM534.669 72.9531L535.184 72.9404C535.184 73.4017 535.133 73.827 535.031 74.2163C534.93 74.6014 534.773 74.9378 534.562 75.2256C534.35 75.5091 534.079 75.7313 533.749 75.8921C533.419 76.0487 533.023 76.127 532.562 76.127C532.228 76.127 531.921 76.0783 531.642 75.981C531.362 75.8836 531.121 75.7334 530.918 75.5303C530.719 75.3271 530.565 75.0627 530.455 74.7368C530.345 74.411 530.29 74.0216 530.29 73.5688V69.1318H531.819V73.5815C531.819 73.8312 531.849 74.0407 531.908 74.21C531.967 74.375 532.048 74.5083 532.149 74.6099C532.251 74.7114 532.369 74.7834 532.505 74.8257C532.64 74.868 532.784 74.8892 532.937 74.8892C533.372 74.8892 533.715 74.8045 533.965 74.6353C534.219 74.4618 534.399 74.229 534.504 73.937C534.614 73.645 534.669 73.3171 534.669 72.9531ZM539.195 66.25V76H537.659V66.25H539.195ZM544.743 74.6226V71.3472C544.743 71.1017 544.699 70.8901 544.61 70.7124C544.521 70.5347 544.386 70.3971 544.204 70.2998C544.026 70.2025 543.802 70.1538 543.531 70.1538C543.281 70.1538 543.065 70.1961 542.883 70.2808C542.701 70.3654 542.56 70.4797 542.458 70.6235C542.356 70.7674 542.306 70.9303 542.306 71.1123H540.782C540.782 70.8415 540.848 70.5791 540.979 70.3252C541.11 70.0713 541.301 69.8449 541.55 69.646C541.8 69.4471 542.098 69.2905 542.445 69.1763C542.792 69.062 543.182 69.0049 543.613 69.0049C544.13 69.0049 544.587 69.0916 544.984 69.2651C545.386 69.4386 545.702 69.701 545.93 70.0522C546.163 70.3993 546.279 70.8351 546.279 71.3599V74.4131C546.279 74.7262 546.3 75.0076 546.343 75.2573C546.389 75.5028 546.455 75.7165 546.54 75.8984V76H544.972C544.9 75.835 544.843 75.6255 544.8 75.3716C544.762 75.1134 544.743 74.8638 544.743 74.6226ZM544.965 71.8232L544.978 72.769H543.88C543.596 72.769 543.347 72.7965 543.131 72.8516C542.915 72.9023 542.735 72.9785 542.591 73.0801C542.447 73.1816 542.34 73.3044 542.268 73.4482C542.196 73.5921 542.16 73.755 542.16 73.937C542.16 74.119 542.202 74.2861 542.287 74.4385C542.371 74.5866 542.494 74.703 542.655 74.7876C542.82 74.8722 543.019 74.9146 543.251 74.9146C543.565 74.9146 543.838 74.8511 544.07 74.7241C544.307 74.5929 544.493 74.4342 544.629 74.248C544.764 74.0576 544.836 73.8778 544.845 73.7085L545.34 74.3877C545.289 74.5612 545.202 74.7474 545.08 74.9463C544.957 75.1452 544.796 75.3356 544.597 75.5176C544.403 75.6953 544.168 75.8413 543.893 75.9556C543.622 76.0698 543.309 76.127 542.953 76.127C542.505 76.127 542.105 76.0381 541.753 75.8604C541.402 75.6784 541.127 75.4351 540.928 75.1304C540.729 74.8215 540.63 74.4723 540.63 74.083C540.63 73.7191 540.698 73.3975 540.833 73.1182C540.973 72.8346 541.176 72.5977 541.442 72.4072C541.713 72.2168 542.043 72.0729 542.433 71.9756C542.822 71.874 543.266 71.8232 543.766 71.8232H544.965ZM549.415 70.4395V76H547.885V69.1318H549.345L549.415 70.4395ZM551.516 69.0874L551.503 70.5093C551.41 70.4924 551.309 70.4797 551.199 70.4712C551.093 70.4627 550.987 70.4585 550.881 70.4585C550.619 70.4585 550.388 70.4966 550.189 70.5728C549.991 70.6447 549.823 70.7505 549.688 70.8901C549.557 71.0256 549.455 71.1906 549.383 71.3853C549.311 71.5799 549.269 71.7979 549.256 72.0391L548.907 72.0645C548.907 71.6328 548.95 71.2329 549.034 70.8647C549.119 70.4966 549.246 70.1729 549.415 69.8936C549.589 69.6143 549.804 69.3963 550.062 69.2397C550.325 69.0832 550.627 69.0049 550.97 69.0049C551.063 69.0049 551.163 69.0133 551.269 69.0303C551.379 69.0472 551.461 69.0662 551.516 69.0874Z" fill="#286EF1"/>
<path d="M491.5 56C491.5 54.067 493.067 52.5 495 52.5H567.5V91.5H495C493.067 91.5 491.5 89.933 491.5 88V56Z" stroke="#D5E3FD"/>
<path d="M567.5 52.5H646.5V91.5H567.5V52.5Z" fill="white"/>
<path d="M584.587 66.7578H586.009L588.681 73.8862L591.347 66.7578H592.769L589.24 76H588.11L584.587 66.7578ZM583.939 66.7578H585.292L585.526 72.9277V76H583.939V66.7578ZM592.064 66.7578H593.423V76H591.83V72.9277L592.064 66.7578ZM598.19 76.127C597.682 76.127 597.223 76.0444 596.812 75.8794C596.406 75.7101 596.059 75.4753 595.771 75.1748C595.488 74.8743 595.27 74.521 595.118 74.1147C594.965 73.7085 594.889 73.2705 594.889 72.8008V72.5469C594.889 72.0094 594.967 71.5228 595.124 71.0869C595.281 70.651 595.499 70.2786 595.778 69.9697C596.057 69.6566 596.387 69.4175 596.768 69.2524C597.149 69.0874 597.562 69.0049 598.006 69.0049C598.497 69.0049 598.926 69.0874 599.294 69.2524C599.663 69.4175 599.967 69.6502 600.208 69.9507C600.454 70.2469 600.636 70.6003 600.754 71.0107C600.877 71.4212 600.938 71.874 600.938 72.3691V73.0229H595.632V71.9248H599.428V71.8042C599.419 71.5291 599.364 71.271 599.263 71.0298C599.165 70.7886 599.015 70.5939 598.812 70.4458C598.609 70.2977 598.338 70.2236 598 70.2236C597.746 70.2236 597.519 70.2786 597.32 70.3887C597.126 70.4945 596.963 70.6489 596.832 70.8521C596.7 71.0552 596.599 71.3006 596.527 71.5884C596.459 71.8719 596.425 72.1914 596.425 72.5469V72.8008C596.425 73.1012 596.465 73.3805 596.546 73.6387C596.631 73.8926 596.753 74.1147 596.914 74.3052C597.075 74.4956 597.27 74.6458 597.498 74.7559C597.727 74.8617 597.987 74.9146 598.279 74.9146C598.647 74.9146 598.975 74.8405 599.263 74.6924C599.55 74.5443 599.8 74.3348 600.012 74.064L600.818 74.8447C600.67 75.0605 600.477 75.2679 600.24 75.4668C600.003 75.6615 599.713 75.8201 599.371 75.9429C599.032 76.0656 598.639 76.127 598.19 76.127ZM606.321 74.5781V66.25H607.857V76H606.467L606.321 74.5781ZM601.853 72.6421V72.5088C601.853 71.9883 601.914 71.5143 602.037 71.0869C602.159 70.6553 602.337 70.285 602.57 69.9761C602.803 69.6629 603.086 69.4238 603.42 69.2588C603.755 69.0895 604.131 69.0049 604.55 69.0049C604.965 69.0049 605.329 69.0853 605.642 69.2461C605.955 69.4069 606.222 69.6375 606.442 69.938C606.662 70.2342 606.838 70.5897 606.969 71.0044C607.1 71.4149 607.193 71.8719 607.248 72.3755V72.8008C607.193 73.2917 607.1 73.7402 606.969 74.1465C606.838 74.5527 606.662 74.904 606.442 75.2002C606.222 75.4964 605.953 75.7249 605.636 75.8857C605.323 76.0465 604.957 76.127 604.538 76.127C604.123 76.127 603.748 76.0402 603.414 75.8667C603.084 75.6932 602.803 75.4499 602.57 75.1367C602.337 74.8236 602.159 74.4554 602.037 74.0322C601.914 73.6048 601.853 73.1414 601.853 72.6421ZM603.382 72.5088V72.6421C603.382 72.9552 603.41 73.2472 603.465 73.5181C603.524 73.7889 603.615 74.028 603.738 74.2354C603.861 74.4385 604.019 74.5993 604.214 74.7178C604.413 74.832 604.65 74.8892 604.925 74.8892C605.272 74.8892 605.557 74.813 605.782 74.6606C606.006 74.5083 606.182 74.3031 606.309 74.0449C606.44 73.7826 606.529 73.4906 606.575 73.1689V72.02C606.55 71.7703 606.497 71.5376 606.417 71.3218C606.34 71.106 606.237 70.9176 606.105 70.7568C605.974 70.5918 605.811 70.4648 605.617 70.376C605.426 70.2829 605.2 70.2363 604.938 70.2363C604.658 70.2363 604.421 70.2956 604.227 70.4141C604.032 70.5326 603.871 70.6955 603.744 70.9028C603.621 71.1102 603.53 71.3514 603.471 71.6265C603.412 71.9015 603.382 72.1956 603.382 72.5088ZM611.095 69.1318V76H609.559V69.1318H611.095ZM609.457 67.3291C609.457 67.0964 609.533 66.9038 609.686 66.7515C609.842 66.5949 610.058 66.5166 610.333 66.5166C610.604 66.5166 610.818 66.5949 610.974 66.7515C611.131 66.9038 611.209 67.0964 611.209 67.3291C611.209 67.5576 611.131 67.748 610.974 67.9004C610.818 68.0527 610.604 68.1289 610.333 68.1289C610.058 68.1289 609.842 68.0527 609.686 67.9004C609.533 67.748 609.457 67.5576 609.457 67.3291ZM616.903 74.3813V69.1318H618.439V76H616.992L616.903 74.3813ZM617.119 72.9531L617.633 72.9404C617.633 73.4017 617.582 73.827 617.48 74.2163C617.379 74.6014 617.222 74.9378 617.011 75.2256C616.799 75.5091 616.528 75.7313 616.198 75.8921C615.868 76.0487 615.472 76.127 615.011 76.127C614.677 76.127 614.37 76.0783 614.091 75.981C613.812 75.8836 613.57 75.7334 613.367 75.5303C613.168 75.3271 613.014 75.0627 612.904 74.7368C612.794 74.411 612.739 74.0216 612.739 73.5688V69.1318H614.269V73.5815C614.269 73.8312 614.298 74.0407 614.357 74.21C614.417 74.375 614.497 74.5083 614.599 74.6099C614.7 74.7114 614.819 74.7834 614.954 74.8257C615.09 74.868 615.233 74.8892 615.386 74.8892C615.822 74.8892 616.164 74.8045 616.414 74.6353C616.668 74.4618 616.848 74.229 616.954 73.937C617.064 73.645 617.119 73.3171 617.119 72.9531ZM621.537 70.5283V76H620.007V69.1318H621.448L621.537 70.5283ZM621.289 72.312L620.769 72.3057C620.769 71.8317 620.828 71.3937 620.946 70.9917C621.065 70.5897 621.238 70.2406 621.467 69.9443C621.695 69.6439 621.979 69.4132 622.317 69.2524C622.66 69.0874 623.056 69.0049 623.504 69.0049C623.818 69.0049 624.103 69.0514 624.361 69.1445C624.624 69.2334 624.85 69.3752 625.041 69.5698C625.235 69.7645 625.383 70.0142 625.485 70.3188C625.591 70.6235 625.644 70.9917 625.644 71.4233V76H624.114V71.5566C624.114 71.2223 624.063 70.96 623.961 70.7695C623.864 70.5791 623.722 70.4437 623.536 70.3633C623.354 70.2786 623.136 70.2363 622.882 70.2363C622.595 70.2363 622.349 70.2913 622.146 70.4014C621.947 70.5114 621.784 70.6616 621.657 70.8521C621.53 71.0425 621.437 71.2625 621.378 71.5122C621.319 71.7619 621.289 72.0285 621.289 72.312ZM625.548 71.9058L624.831 72.0645C624.831 71.6497 624.888 71.2583 625.002 70.8901C625.121 70.5177 625.292 70.1919 625.517 69.9126C625.745 69.6291 626.027 69.4069 626.361 69.2461C626.695 69.0853 627.078 69.0049 627.51 69.0049C627.861 69.0049 628.174 69.0535 628.449 69.1509C628.729 69.244 628.965 69.3921 629.16 69.5952C629.355 69.7983 629.503 70.0628 629.604 70.3887C629.706 70.7103 629.757 71.0996 629.757 71.5566V76H628.221V71.5503C628.221 71.2033 628.17 70.9346 628.068 70.7441C627.971 70.5537 627.831 70.4225 627.649 70.3506C627.467 70.2744 627.25 70.2363 626.996 70.2363C626.759 70.2363 626.549 70.2808 626.367 70.3696C626.189 70.4543 626.039 70.5749 625.917 70.7314C625.794 70.8838 625.701 71.0594 625.637 71.2583C625.578 71.4572 625.548 71.673 625.548 71.9058Z" fill="#505050"/>
<path d="M567.5 52.5H646.5V91.5H567.5V52.5Z" stroke="#E6E6E6"/>
<path d="M646.5 52.5H701C702.933 52.5 704.5 54.067 704.5 56V88C704.5 89.933 702.933 91.5 701 91.5H646.5V52.5Z" fill="white"/>
<path d="M666.405 71.8232H664.05L664.038 70.6616H666.094C666.441 70.6616 666.735 70.6108 666.977 70.5093C667.222 70.4035 667.408 70.2533 667.535 70.0586C667.662 69.8597 667.726 69.6206 667.726 69.3413C667.726 69.0324 667.666 68.7806 667.548 68.5859C667.429 68.3913 667.247 68.2495 667.002 68.1606C666.761 68.0718 666.452 68.0273 666.075 68.0273H664.533V76H662.939V66.7578H666.075C666.583 66.7578 667.036 66.8065 667.434 66.9038C667.836 67.0011 668.176 67.1535 668.456 67.3608C668.739 67.564 668.953 67.8221 669.097 68.1353C669.245 68.4484 669.319 68.8208 669.319 69.2524C669.319 69.6333 669.228 69.9824 669.046 70.2998C668.864 70.613 668.595 70.869 668.24 71.0679C667.884 71.2668 667.442 71.3853 666.913 71.4233L666.405 71.8232ZM666.335 76H663.549L664.266 74.7368H666.335C666.695 74.7368 666.996 74.6776 667.237 74.5591C667.478 74.4364 667.658 74.2692 667.776 74.0576C667.899 73.8418 667.96 73.59 667.96 73.3022C667.96 73.0018 667.908 72.7415 667.802 72.5215C667.696 72.2972 667.529 72.1258 667.3 72.0073C667.072 71.8846 666.773 71.8232 666.405 71.8232H664.615L664.628 70.6616H666.958L667.319 71.0996C667.827 71.1165 668.244 71.2287 668.57 71.436C668.9 71.6434 669.145 71.9121 669.306 72.2422C669.467 72.5723 669.547 72.9277 669.547 73.3086C669.547 73.8968 669.418 74.3898 669.16 74.7876C668.906 75.1854 668.54 75.488 668.062 75.6953C667.584 75.8984 667.008 76 666.335 76ZM670.709 72.6421V72.4961C670.709 72.001 670.781 71.5418 670.925 71.1187C671.069 70.6912 671.276 70.321 671.547 70.0078C671.822 69.6904 672.156 69.445 672.55 69.2715C672.948 69.0938 673.396 69.0049 673.896 69.0049C674.399 69.0049 674.848 69.0938 675.241 69.2715C675.639 69.445 675.975 69.6904 676.25 70.0078C676.526 70.321 676.735 70.6912 676.879 71.1187C677.023 71.5418 677.095 72.001 677.095 72.4961V72.6421C677.095 73.1372 677.023 73.5964 676.879 74.0195C676.735 74.4427 676.526 74.813 676.25 75.1304C675.975 75.4435 675.641 75.689 675.248 75.8667C674.854 76.0402 674.408 76.127 673.908 76.127C673.405 76.127 672.954 76.0402 672.556 75.8667C672.163 75.689 671.828 75.4435 671.553 75.1304C671.278 74.813 671.069 74.4427 670.925 74.0195C670.781 73.5964 670.709 73.1372 670.709 72.6421ZM672.239 72.4961V72.6421C672.239 72.951 672.271 73.243 672.334 73.5181C672.397 73.7931 672.497 74.0343 672.632 74.2417C672.768 74.4491 672.941 74.612 673.153 74.7305C673.364 74.849 673.616 74.9082 673.908 74.9082C674.192 74.9082 674.437 74.849 674.645 74.7305C674.856 74.612 675.03 74.4491 675.165 74.2417C675.3 74.0343 675.4 73.7931 675.463 73.5181C675.531 73.243 675.565 72.951 675.565 72.6421V72.4961C675.565 72.1914 675.531 71.9036 675.463 71.6328C675.4 71.3577 675.298 71.1144 675.159 70.9028C675.023 70.6912 674.85 70.5262 674.638 70.4077C674.431 70.285 674.183 70.2236 673.896 70.2236C673.608 70.2236 673.358 70.285 673.146 70.4077C672.939 70.5262 672.768 70.6912 672.632 70.9028C672.497 71.1144 672.397 71.3577 672.334 71.6328C672.271 71.9036 672.239 72.1914 672.239 72.4961ZM680.015 66.25V76H678.479V66.25H680.015ZM685.88 74.5781V66.25H687.416V76H686.026L685.88 74.5781ZM681.411 72.6421V72.5088C681.411 71.9883 681.472 71.5143 681.595 71.0869C681.718 70.6553 681.896 70.285 682.128 69.9761C682.361 69.6629 682.645 69.4238 682.979 69.2588C683.313 69.0895 683.69 69.0049 684.109 69.0049C684.524 69.0049 684.888 69.0853 685.201 69.2461C685.514 69.4069 685.78 69.6375 686 69.938C686.221 70.2342 686.396 70.5897 686.527 71.0044C686.659 71.4149 686.752 71.8719 686.807 72.3755V72.8008C686.752 73.2917 686.659 73.7402 686.527 74.1465C686.396 74.5527 686.221 74.904 686 75.2002C685.78 75.4964 685.512 75.7249 685.194 75.8857C684.881 76.0465 684.515 76.127 684.096 76.127C683.681 76.127 683.307 76.0402 682.973 75.8667C682.643 75.6932 682.361 75.4499 682.128 75.1367C681.896 74.8236 681.718 74.4554 681.595 74.0322C681.472 73.6048 681.411 73.1414 681.411 72.6421ZM682.941 72.5088V72.6421C682.941 72.9552 682.968 73.2472 683.023 73.5181C683.083 73.7889 683.174 74.028 683.296 74.2354C683.419 74.4385 683.578 74.5993 683.772 74.7178C683.971 74.832 684.208 74.8892 684.483 74.8892C684.83 74.8892 685.116 74.813 685.34 74.6606C685.565 74.5083 685.74 74.3031 685.867 74.0449C685.998 73.7826 686.087 73.4906 686.134 73.1689V72.02C686.108 71.7703 686.056 71.5376 685.975 71.3218C685.899 71.106 685.795 70.9176 685.664 70.7568C685.533 70.5918 685.37 70.4648 685.175 70.376C684.985 70.2829 684.758 70.2363 684.496 70.2363C684.217 70.2363 683.98 70.2956 683.785 70.4141C683.59 70.5326 683.43 70.6955 683.303 70.9028C683.18 71.1102 683.089 71.3514 683.03 71.6265C682.971 71.9015 682.941 72.1956 682.941 72.5088Z" fill="#505050"/>
<path d="M646.5 52.5H701C702.933 52.5 704.5 54.067 704.5 56V88C704.5 89.933 702.933 91.5 701 91.5H646.5V52.5Z" stroke="#E6E6E6"/>
<path d="M143 52.5H276.5V91.5H143C141.067 91.5 139.5 89.933 139.5 88V56C139.5 54.067 141.067 52.5 143 52.5Z" fill="white"/>
<path d="M168.444 66H157.556C156.696 66 156 66.7274 156 67.625V74.9375C156 75.8351 156.696 76.5625 157.556 76.5625H161.16L160.927 77.7812H159.694C159.374 77.7812 159.111 78.0555 159.111 78.3906C159.111 78.7258 159.374 79 159.694 79H166.306C166.628 79 166.889 78.7271 166.889 78.3906C166.889 78.0542 166.628 77.7812 166.306 77.7812H165.073L164.84 76.5625H168.444C169.304 76.5625 170 75.8351 170 74.9375V67.625C170 66.7274 169.302 66 168.444 66ZM163.882 77.7812H162.118L162.351 76.5625H163.65L163.882 77.7812ZM168.833 74.9375C168.833 75.1615 168.659 75.3438 168.444 75.3438H157.556C157.341 75.3438 157.167 75.1615 157.167 74.9375V67.625C157.167 67.401 157.341 67.2188 157.556 67.2188H168.444C168.659 67.2188 168.833 67.401 168.833 67.625V74.9375Z" fill="#505050"/>
<path d="M183.742 66.7578V76H182.161V66.7578H183.742ZM186.643 66.7578V68.0273H179.286V66.7578H186.643ZM186.528 72.6421V72.4961C186.528 72.001 186.6 71.5418 186.744 71.1187C186.888 70.6912 187.095 70.321 187.366 70.0078C187.641 69.6904 187.976 69.445 188.369 69.2715C188.767 69.0938 189.215 69.0049 189.715 69.0049C190.218 69.0049 190.667 69.0938 191.061 69.2715C191.458 69.445 191.795 69.6904 192.07 70.0078C192.345 70.321 192.554 70.6912 192.698 71.1187C192.842 71.5418 192.914 72.001 192.914 72.4961V72.6421C192.914 73.1372 192.842 73.5964 192.698 74.0195C192.554 74.4427 192.345 74.813 192.07 75.1304C191.795 75.4435 191.46 75.689 191.067 75.8667C190.673 76.0402 190.227 76.127 189.728 76.127C189.224 76.127 188.773 76.0402 188.375 75.8667C187.982 75.689 187.648 75.4435 187.373 75.1304C187.097 74.813 186.888 74.4427 186.744 74.0195C186.6 73.5964 186.528 73.1372 186.528 72.6421ZM188.058 72.4961V72.6421C188.058 72.951 188.09 73.243 188.153 73.5181C188.217 73.7931 188.316 74.0343 188.452 74.2417C188.587 74.4491 188.761 74.612 188.972 74.7305C189.184 74.849 189.436 74.9082 189.728 74.9082C190.011 74.9082 190.257 74.849 190.464 74.7305C190.675 74.612 190.849 74.4491 190.984 74.2417C191.12 74.0343 191.219 73.7931 191.283 73.5181C191.35 73.243 191.384 72.951 191.384 72.6421V72.4961C191.384 72.1914 191.35 71.9036 191.283 71.6328C191.219 71.3577 191.118 71.1144 190.978 70.9028C190.843 70.6912 190.669 70.5262 190.458 70.4077C190.25 70.285 190.003 70.2236 189.715 70.2236C189.427 70.2236 189.177 70.285 188.966 70.4077C188.758 70.5262 188.587 70.6912 188.452 70.9028C188.316 71.1144 188.217 71.3577 188.153 71.6328C188.09 71.9036 188.058 72.1914 188.058 72.4961ZM193.904 72.6421V72.4961C193.904 72.001 193.976 71.5418 194.12 71.1187C194.264 70.6912 194.471 70.321 194.742 70.0078C195.017 69.6904 195.352 69.445 195.745 69.2715C196.143 69.0938 196.591 69.0049 197.091 69.0049C197.594 69.0049 198.043 69.0938 198.437 69.2715C198.834 69.445 199.171 69.6904 199.446 70.0078C199.721 70.321 199.93 70.6912 200.074 71.1187C200.218 71.5418 200.29 72.001 200.29 72.4961V72.6421C200.29 73.1372 200.218 73.5964 200.074 74.0195C199.93 74.4427 199.721 74.813 199.446 75.1304C199.171 75.4435 198.836 75.689 198.443 75.8667C198.049 76.0402 197.603 76.127 197.104 76.127C196.6 76.127 196.149 76.0402 195.751 75.8667C195.358 75.689 195.024 75.4435 194.749 75.1304C194.473 74.813 194.264 74.4427 194.12 74.0195C193.976 73.5964 193.904 73.1372 193.904 72.6421ZM195.434 72.4961V72.6421C195.434 72.951 195.466 73.243 195.529 73.5181C195.593 73.7931 195.692 74.0343 195.828 74.2417C195.963 74.4491 196.137 74.612 196.348 74.7305C196.56 74.849 196.812 74.9082 197.104 74.9082C197.387 74.9082 197.632 74.849 197.84 74.7305C198.051 74.612 198.225 74.4491 198.36 74.2417C198.496 74.0343 198.595 73.7931 198.659 73.5181C198.726 73.243 198.76 72.951 198.76 72.6421V72.4961C198.76 72.1914 198.726 71.9036 198.659 71.6328C198.595 71.3577 198.494 71.1144 198.354 70.9028C198.219 70.6912 198.045 70.5262 197.833 70.4077C197.626 70.285 197.379 70.2236 197.091 70.2236C196.803 70.2236 196.553 70.285 196.342 70.4077C196.134 70.5262 195.963 70.6912 195.828 70.9028C195.692 71.1144 195.593 71.3577 195.529 71.6328C195.466 71.9036 195.434 72.1914 195.434 72.4961ZM205.971 69.1318H207.361V75.8096C207.361 76.4274 207.23 76.9521 206.968 77.3838C206.705 77.8154 206.339 78.1434 205.87 78.3677C205.4 78.5962 204.856 78.7104 204.238 78.7104C203.976 78.7104 203.684 78.6724 203.362 78.5962C203.045 78.52 202.736 78.3973 202.436 78.228C202.139 78.063 201.892 77.8451 201.693 77.5742L202.41 76.6729C202.656 76.9648 202.926 77.1785 203.223 77.314C203.519 77.4494 203.83 77.5171 204.156 77.5171C204.507 77.5171 204.805 77.4515 205.051 77.3203C205.3 77.1934 205.493 77.005 205.628 76.7554C205.764 76.5057 205.832 76.201 205.832 75.8413V70.687L205.971 69.1318ZM201.306 72.6421V72.5088C201.306 71.9883 201.369 71.5143 201.496 71.0869C201.623 70.6553 201.805 70.285 202.042 69.9761C202.279 69.6629 202.567 69.4238 202.905 69.2588C203.244 69.0895 203.627 69.0049 204.054 69.0049C204.499 69.0049 204.877 69.0853 205.19 69.2461C205.508 69.4069 205.772 69.6375 205.984 69.938C206.195 70.2342 206.361 70.5897 206.479 71.0044C206.602 71.4149 206.693 71.8719 206.752 72.3755V72.8008C206.697 73.2917 206.604 73.7402 206.473 74.1465C206.341 74.5527 206.168 74.904 205.952 75.2002C205.736 75.4964 205.47 75.7249 205.152 75.8857C204.839 76.0465 204.469 76.127 204.042 76.127C203.623 76.127 203.244 76.0402 202.905 75.8667C202.571 75.6932 202.283 75.4499 202.042 75.1367C201.805 74.8236 201.623 74.4554 201.496 74.0322C201.369 73.6048 201.306 73.1414 201.306 72.6421ZM202.835 72.5088V72.6421C202.835 72.9552 202.865 73.2472 202.924 73.5181C202.988 73.7889 203.083 74.028 203.21 74.2354C203.341 74.4385 203.506 74.5993 203.705 74.7178C203.908 74.832 204.147 74.8892 204.422 74.8892C204.782 74.8892 205.076 74.813 205.305 74.6606C205.537 74.5083 205.715 74.3031 205.838 74.0449C205.965 73.7826 206.054 73.4906 206.104 73.1689V72.02C206.079 71.7703 206.026 71.5376 205.946 71.3218C205.87 71.106 205.766 70.9176 205.635 70.7568C205.504 70.5918 205.339 70.4648 205.14 70.376C204.941 70.2829 204.706 70.2363 204.435 70.2363C204.16 70.2363 203.921 70.2956 203.718 70.4141C203.515 70.5326 203.347 70.6955 203.216 70.9028C203.089 71.1102 202.994 71.3514 202.931 71.6265C202.867 71.9015 202.835 72.1956 202.835 72.5088ZM210.586 66.25V76H209.05V66.25H210.586ZM215.29 76.127C214.782 76.127 214.323 76.0444 213.912 75.8794C213.506 75.7101 213.159 75.4753 212.871 75.1748C212.588 74.8743 212.37 74.521 212.217 74.1147C212.065 73.7085 211.989 73.2705 211.989 72.8008V72.5469C211.989 72.0094 212.067 71.5228 212.224 71.0869C212.38 70.651 212.598 70.2786 212.877 69.9697C213.157 69.6566 213.487 69.4175 213.868 69.2524C214.249 69.0874 214.661 69.0049 215.105 69.0049C215.596 69.0049 216.026 69.0874 216.394 69.2524C216.762 69.4175 217.067 69.6502 217.308 69.9507C217.554 70.2469 217.736 70.6003 217.854 71.0107C217.977 71.4212 218.038 71.874 218.038 72.3691V73.0229H212.731V71.9248H216.527V71.8042C216.519 71.5291 216.464 71.271 216.362 71.0298C216.265 70.7886 216.115 70.5939 215.912 70.4458C215.708 70.2977 215.438 70.2236 215.099 70.2236C214.845 70.2236 214.619 70.2786 214.42 70.3887C214.225 70.4945 214.062 70.6489 213.931 70.8521C213.8 71.0552 213.698 71.3006 213.626 71.5884C213.559 71.8719 213.525 72.1914 213.525 72.5469V72.8008C213.525 73.1012 213.565 73.3805 213.646 73.6387C213.73 73.8926 213.853 74.1147 214.014 74.3052C214.174 74.4956 214.369 74.6458 214.598 74.7559C214.826 74.8617 215.086 74.9146 215.378 74.9146C215.747 74.9146 216.075 74.8405 216.362 74.6924C216.65 74.5443 216.9 74.3348 217.111 74.064L217.917 74.8447C217.769 75.0605 217.577 75.2679 217.34 75.4668C217.103 75.6615 216.813 75.8201 216.47 75.9429C216.132 76.0656 215.738 76.127 215.29 76.127ZM226.087 71.8232H223.732L223.719 70.6616H225.776C226.123 70.6616 226.417 70.6108 226.658 70.5093C226.904 70.4035 227.09 70.2533 227.217 70.0586C227.344 69.8597 227.407 69.6206 227.407 69.3413C227.407 69.0324 227.348 68.7806 227.229 68.5859C227.111 68.3913 226.929 68.2495 226.684 68.1606C226.442 68.0718 226.133 68.0273 225.757 68.0273H224.214V76H222.621V66.7578H225.757C226.265 66.7578 226.717 66.8065 227.115 66.9038C227.517 67.0011 227.858 67.1535 228.137 67.3608C228.421 67.564 228.634 67.8221 228.778 68.1353C228.926 68.4484 229 68.8208 229 69.2524C229 69.6333 228.91 69.9824 228.728 70.2998C228.546 70.613 228.277 70.869 227.921 71.0679C227.566 71.2668 227.124 71.3853 226.595 71.4233L226.087 71.8232ZM226.017 76H223.23L223.948 74.7368H226.017C226.377 74.7368 226.677 74.6776 226.918 74.5591C227.16 74.4364 227.34 74.2692 227.458 74.0576C227.581 73.8418 227.642 73.59 227.642 73.3022C227.642 73.0018 227.589 72.7415 227.483 72.5215C227.378 72.2972 227.21 72.1258 226.982 72.0073C226.753 71.8846 226.455 71.8232 226.087 71.8232H224.297L224.31 70.6616H226.639L227.001 71.0996C227.509 71.1165 227.926 71.2287 228.251 71.436C228.582 71.6434 228.827 71.9121 228.988 72.2422C229.149 72.5723 229.229 72.9277 229.229 73.3086C229.229 73.8968 229.1 74.3898 228.842 74.7876C228.588 75.1854 228.222 75.488 227.744 75.6953C227.265 75.8984 226.69 76 226.017 76ZM234.815 74.3813V69.1318H236.351V76H234.904L234.815 74.3813ZM235.031 72.9531L235.545 72.9404C235.545 73.4017 235.494 73.827 235.393 74.2163C235.291 74.6014 235.134 74.9378 234.923 75.2256C234.711 75.5091 234.44 75.7313 234.11 75.8921C233.78 76.0487 233.385 76.127 232.923 76.127C232.589 76.127 232.282 76.0783 232.003 75.981C231.724 75.8836 231.482 75.7334 231.279 75.5303C231.08 75.3271 230.926 75.0627 230.816 74.7368C230.706 74.411 230.651 74.0216 230.651 73.5688V69.1318H232.181V73.5815C232.181 73.8312 232.21 74.0407 232.27 74.21C232.329 74.375 232.409 74.5083 232.511 74.6099C232.612 74.7114 232.731 74.7834 232.866 74.8257C233.002 74.868 233.146 74.8892 233.298 74.8892C233.734 74.8892 234.076 74.8045 234.326 74.6353C234.58 74.4618 234.76 74.229 234.866 73.937C234.976 73.645 235.031 73.3171 235.031 72.9531ZM241.067 69.1318V70.249H237.195V69.1318H241.067ZM238.312 67.4497H239.842V74.1021C239.842 74.3136 239.872 74.4766 239.931 74.5908C239.995 74.7008 240.081 74.7749 240.191 74.813C240.301 74.8511 240.431 74.8701 240.579 74.8701C240.684 74.8701 240.786 74.8638 240.883 74.8511C240.981 74.8384 241.059 74.8257 241.118 74.813L241.125 75.981C240.998 76.019 240.849 76.0529 240.68 76.0825C240.515 76.1121 240.325 76.127 240.109 76.127C239.758 76.127 239.447 76.0656 239.176 75.9429C238.905 75.8159 238.693 75.6107 238.541 75.3271C238.389 75.0436 238.312 74.667 238.312 74.1973V67.4497ZM245.396 69.1318V70.249H241.524V69.1318H245.396ZM242.642 67.4497H244.171V74.1021C244.171 74.3136 244.201 74.4766 244.26 74.5908C244.324 74.7008 244.41 74.7749 244.521 74.813C244.631 74.8511 244.76 74.8701 244.908 74.8701C245.014 74.8701 245.115 74.8638 245.212 74.8511C245.31 74.8384 245.388 74.8257 245.447 74.813L245.454 75.981C245.327 76.019 245.179 76.0529 245.009 76.0825C244.844 76.1121 244.654 76.127 244.438 76.127C244.087 76.127 243.776 76.0656 243.505 75.9429C243.234 75.8159 243.022 75.6107 242.87 75.3271C242.718 75.0436 242.642 74.667 242.642 74.1973V67.4497ZM246.133 72.6421V72.4961C246.133 72.001 246.205 71.5418 246.349 71.1187C246.493 70.6912 246.7 70.321 246.971 70.0078C247.246 69.6904 247.58 69.445 247.974 69.2715C248.371 69.0938 248.82 69.0049 249.319 69.0049C249.823 69.0049 250.271 69.0938 250.665 69.2715C251.063 69.445 251.399 69.6904 251.674 70.0078C251.949 70.321 252.159 70.6912 252.303 71.1187C252.447 71.5418 252.519 72.001 252.519 72.4961V72.6421C252.519 73.1372 252.447 73.5964 252.303 74.0195C252.159 74.4427 251.949 74.813 251.674 75.1304C251.399 75.4435 251.065 75.689 250.671 75.8667C250.278 76.0402 249.831 76.127 249.332 76.127C248.828 76.127 248.378 76.0402 247.98 75.8667C247.586 75.689 247.252 75.4435 246.977 75.1304C246.702 74.813 246.493 74.4427 246.349 74.0195C246.205 73.5964 246.133 73.1372 246.133 72.6421ZM247.663 72.4961V72.6421C247.663 72.951 247.694 73.243 247.758 73.5181C247.821 73.7931 247.921 74.0343 248.056 74.2417C248.192 74.4491 248.365 74.612 248.577 74.7305C248.788 74.849 249.04 74.9082 249.332 74.9082C249.616 74.9082 249.861 74.849 250.068 74.7305C250.28 74.612 250.453 74.4491 250.589 74.2417C250.724 74.0343 250.824 73.7931 250.887 73.5181C250.955 73.243 250.989 72.951 250.989 72.6421V72.4961C250.989 72.1914 250.955 71.9036 250.887 71.6328C250.824 71.3577 250.722 71.1144 250.583 70.9028C250.447 70.6912 250.274 70.5262 250.062 70.4077C249.855 70.285 249.607 70.2236 249.319 70.2236C249.032 70.2236 248.782 70.285 248.57 70.4077C248.363 70.5262 248.192 70.6912 248.056 70.9028C247.921 71.1144 247.821 71.3577 247.758 71.6328C247.694 71.9036 247.663 72.1914 247.663 72.4961ZM255.318 70.5981V76H253.788V69.1318H255.229L255.318 70.5981ZM255.045 72.312L254.55 72.3057C254.554 71.819 254.622 71.3726 254.753 70.9663C254.888 70.5601 255.075 70.2109 255.312 69.9189C255.553 69.627 255.84 69.4027 256.175 69.2461C256.509 69.0853 256.882 69.0049 257.292 69.0049C257.622 69.0049 257.92 69.0514 258.187 69.1445C258.458 69.2334 258.688 69.3794 258.879 69.5825C259.074 69.7856 259.222 70.0501 259.323 70.376C259.425 70.6976 259.476 71.0933 259.476 71.563V76H257.939V71.5566C257.939 71.2266 257.891 70.9663 257.793 70.7759C257.7 70.5812 257.563 70.4437 257.381 70.3633C257.203 70.2786 256.981 70.2363 256.714 70.2363C256.452 70.2363 256.217 70.2913 256.01 70.4014C255.802 70.5114 255.627 70.6616 255.483 70.8521C255.343 71.0425 255.235 71.2625 255.159 71.5122C255.083 71.7619 255.045 72.0285 255.045 72.312Z" fill="#505050"/>
<path d="M143 52.5H276.5V91.5H143C141.067 91.5 139.5 89.933 139.5 88V56C139.5 54.067 141.067 52.5 143 52.5Z" stroke="#E6E6E6"/>
<rect x="139" y="52" width="16" height="40" fill="#FF0000" fill-opacity="0.15"/>
<rect x="139" y="52" width="138" height="8" fill="#FF0000" fill-opacity="0.15"/>
<path d="M137.991 23.707V33H136.817V25.1733L134.449 26.0366V24.9766L137.807 23.707H137.991ZM145.951 23.7451H146.053V24.7417H145.951C145.329 24.7417 144.809 24.8433 144.39 25.0464C143.971 25.2453 143.639 25.514 143.393 25.8525C143.148 26.1868 142.97 26.5635 142.86 26.9824C142.754 27.4014 142.701 27.8267 142.701 28.2583V29.6167C142.701 30.0272 142.75 30.3911 142.847 30.7085C142.944 31.0216 143.078 31.2861 143.247 31.502C143.416 31.7178 143.607 31.8807 143.818 31.9907C144.034 32.1007 144.258 32.1558 144.491 32.1558C144.762 32.1558 145.003 32.105 145.215 32.0034C145.426 31.8976 145.604 31.7516 145.748 31.5654C145.896 31.375 146.008 31.1507 146.084 30.8926C146.161 30.6344 146.199 30.3509 146.199 30.042C146.199 29.7669 146.165 29.5024 146.097 29.2485C146.029 28.9904 145.926 28.7619 145.786 28.563C145.646 28.3599 145.471 28.2012 145.259 28.0869C145.052 27.9684 144.804 27.9092 144.517 27.9092C144.191 27.9092 143.886 27.9896 143.603 28.1504C143.323 28.307 143.093 28.5143 142.911 28.7725C142.733 29.0264 142.631 29.3035 142.606 29.604L141.984 29.5977C142.043 29.1237 142.153 28.7196 142.314 28.3853C142.479 28.0467 142.682 27.7716 142.923 27.5601C143.169 27.3442 143.442 27.1877 143.742 27.0903C144.047 26.9888 144.368 26.938 144.707 26.938C145.168 26.938 145.566 27.0247 145.9 27.1982C146.235 27.3717 146.51 27.6045 146.726 27.8965C146.941 28.1842 147.1 28.5101 147.202 28.874C147.307 29.2337 147.36 29.604 147.36 29.9849C147.36 30.4207 147.299 30.8291 147.176 31.21C147.054 31.5908 146.869 31.9251 146.624 32.2129C146.383 32.5007 146.084 32.7249 145.729 32.8857C145.374 33.0465 144.961 33.127 144.491 33.127C143.992 33.127 143.556 33.0254 143.184 32.8223C142.811 32.6149 142.502 32.3398 142.257 31.9971C142.011 31.6543 141.827 31.2734 141.705 30.8545C141.582 30.4355 141.521 30.0103 141.521 29.5786V29.0264C141.521 28.3747 141.586 27.7357 141.717 27.1094C141.848 26.4831 142.075 25.916 142.396 25.4082C142.722 24.9004 143.173 24.4963 143.749 24.1958C144.324 23.8953 145.058 23.7451 145.951 23.7451ZM150.058 27.4521V35.6406H148.877V26.1318H149.957L150.058 27.4521ZM154.686 29.5088V29.6421C154.686 30.1414 154.626 30.6048 154.508 31.0322C154.389 31.4554 154.216 31.8236 153.987 32.1367C153.763 32.4499 153.486 32.6932 153.156 32.8667C152.826 33.0402 152.447 33.127 152.02 33.127C151.584 33.127 151.199 33.055 150.864 32.9111C150.53 32.7673 150.246 32.5578 150.014 32.2827C149.781 32.0076 149.595 31.6776 149.455 31.2925C149.32 30.9074 149.227 30.4736 149.176 29.9912V29.2803C149.227 28.7725 149.322 28.3175 149.461 27.9155C149.601 27.5135 149.785 27.1707 150.014 26.8872C150.246 26.5994 150.528 26.3815 150.858 26.2334C151.188 26.0811 151.569 26.0049 152 26.0049C152.432 26.0049 152.815 26.0895 153.149 26.2588C153.484 26.4238 153.765 26.6608 153.994 26.9697C154.222 27.2786 154.394 27.6489 154.508 28.0806C154.626 28.508 154.686 28.984 154.686 29.5088ZM153.505 29.6421V29.5088C153.505 29.166 153.469 28.8444 153.397 28.5439C153.325 28.2393 153.213 27.9727 153.061 27.7441C152.912 27.5114 152.722 27.3294 152.489 27.1982C152.257 27.0628 151.979 26.9951 151.658 26.9951C151.361 26.9951 151.103 27.0459 150.883 27.1475C150.667 27.249 150.483 27.3866 150.331 27.5601C150.179 27.7293 150.054 27.924 149.957 28.144C149.863 28.3599 149.794 28.5841 149.747 28.8169V30.4609C149.832 30.7572 149.95 31.0365 150.103 31.2988C150.255 31.557 150.458 31.7664 150.712 31.9272C150.966 32.0838 151.285 32.1621 151.67 32.1621C151.988 32.1621 152.261 32.0965 152.489 31.9653C152.722 31.8299 152.912 31.6458 153.061 31.4131C153.213 31.1803 153.325 30.9137 153.397 30.6133C153.469 30.3086 153.505 29.9849 153.505 29.6421ZM156.875 26.1318L158.38 28.6328L159.903 26.1318H161.281L159.034 29.5215L161.351 33H159.992L158.405 30.4229L156.818 33H155.454L157.764 29.5215L155.523 26.1318H156.875Z" fill="#333333"/>
<path d="M297.615 55.499C297.615 56.0618 297.484 56.54 297.222 56.9336C296.964 57.3229 296.612 57.6191 296.168 57.8223C295.728 58.0254 295.231 58.127 294.676 58.127C294.122 58.127 293.623 58.0254 293.178 57.8223C292.734 57.6191 292.383 57.3229 292.125 56.9336C291.866 56.54 291.737 56.0618 291.737 55.499C291.737 55.1309 291.807 54.7944 291.947 54.4897C292.091 54.1808 292.292 53.9121 292.55 53.6836C292.812 53.4551 293.121 53.2795 293.477 53.1567C293.836 53.0298 294.232 52.9663 294.664 52.9663C295.231 52.9663 295.736 53.0763 296.181 53.2964C296.625 53.5122 296.974 53.8105 297.228 54.1914C297.486 54.5723 297.615 55.0081 297.615 55.499ZM296.435 55.4736C296.435 55.1309 296.361 54.8283 296.212 54.5659C296.064 54.2993 295.857 54.092 295.59 53.9438C295.324 53.7957 295.015 53.7217 294.664 53.7217C294.304 53.7217 293.993 53.7957 293.73 53.9438C293.472 54.092 293.271 54.2993 293.127 54.5659C292.984 54.8283 292.912 55.1309 292.912 55.4736C292.912 55.8291 292.981 56.1338 293.121 56.3877C293.265 56.6374 293.468 56.8299 293.73 56.9653C293.997 57.0965 294.312 57.1621 294.676 57.1621C295.04 57.1621 295.353 57.0965 295.616 56.9653C295.878 56.8299 296.079 56.6374 296.219 56.3877C296.363 56.1338 296.435 55.8291 296.435 55.4736ZM297.399 51.1636C297.399 51.6121 297.281 52.0163 297.044 52.376C296.807 52.7357 296.483 53.0192 296.073 53.2266C295.662 53.4339 295.197 53.5376 294.676 53.5376C294.147 53.5376 293.675 53.4339 293.261 53.2266C292.85 53.0192 292.529 52.7357 292.296 52.376C292.063 52.0163 291.947 51.6121 291.947 51.1636C291.947 50.6261 292.063 50.1691 292.296 49.7925C292.533 49.4159 292.857 49.1281 293.267 48.9292C293.678 48.7303 294.145 48.6309 294.67 48.6309C295.199 48.6309 295.669 48.7303 296.079 48.9292C296.49 49.1281 296.811 49.4159 297.044 49.7925C297.281 50.1691 297.399 50.6261 297.399 51.1636ZM296.225 51.1826C296.225 50.8737 296.16 50.6007 296.028 50.3638C295.897 50.1268 295.715 49.9406 295.482 49.8052C295.25 49.6655 294.979 49.5957 294.67 49.5957C294.361 49.5957 294.09 49.6613 293.857 49.7925C293.629 49.9194 293.449 50.1014 293.318 50.3384C293.191 50.5754 293.127 50.8568 293.127 51.1826C293.127 51.5 293.191 51.7772 293.318 52.0142C293.449 52.2511 293.631 52.4352 293.864 52.5664C294.097 52.6976 294.367 52.7632 294.676 52.7632C294.985 52.7632 295.254 52.6976 295.482 52.5664C295.715 52.4352 295.897 52.2511 296.028 52.0142C296.16 51.7772 296.225 51.5 296.225 51.1826ZM300.402 52.4521V60.6406H299.221V51.1318H300.3L300.402 52.4521ZM305.029 54.5088V54.6421C305.029 55.1414 304.97 55.6048 304.852 56.0322C304.733 56.4554 304.56 56.8236 304.331 57.1367C304.107 57.4499 303.83 57.6932 303.5 57.8667C303.169 58.0402 302.791 58.127 302.363 58.127C301.927 58.127 301.542 58.055 301.208 57.9111C300.874 57.7673 300.59 57.5578 300.357 57.2827C300.125 57.0076 299.938 56.6776 299.799 56.2925C299.663 55.9074 299.57 55.4736 299.52 54.9912V54.2803C299.57 53.7725 299.666 53.3175 299.805 52.9155C299.945 52.5135 300.129 52.1707 300.357 51.8872C300.59 51.5994 300.872 51.3815 301.202 51.2334C301.532 51.0811 301.913 51.0049 302.344 51.0049C302.776 51.0049 303.159 51.0895 303.493 51.2588C303.827 51.4238 304.109 51.6608 304.337 51.9697C304.566 52.2786 304.737 52.6489 304.852 53.0806C304.97 53.508 305.029 53.984 305.029 54.5088ZM303.849 54.6421V54.5088C303.849 54.166 303.813 53.8444 303.741 53.5439C303.669 53.2393 303.557 52.9727 303.404 52.7441C303.256 52.5114 303.066 52.3294 302.833 52.1982C302.6 52.0628 302.323 51.9951 302.001 51.9951C301.705 51.9951 301.447 52.0459 301.227 52.1475C301.011 52.249 300.827 52.3866 300.675 52.5601C300.522 52.7293 300.398 52.924 300.3 53.144C300.207 53.3599 300.137 53.5841 300.091 53.8169V55.4609C300.175 55.7572 300.294 56.0365 300.446 56.2988C300.599 56.557 300.802 56.7664 301.056 56.9272C301.31 57.0838 301.629 57.1621 302.014 57.1621C302.332 57.1621 302.604 57.0965 302.833 56.9653C303.066 56.8299 303.256 56.6458 303.404 56.4131C303.557 56.1803 303.669 55.9137 303.741 55.6133C303.813 55.3086 303.849 54.9849 303.849 54.6421ZM307.219 51.1318L308.724 53.6328L310.247 51.1318H311.625L309.377 54.5215L311.694 58H310.336L308.749 55.4229L307.162 58H305.797L308.108 54.5215L305.867 51.1318H307.219Z" fill="#333333"/>
<path d="M139 43.5H155M139 43.5V39M139 43.5V48M155 43.5V39M155 43.5V48" stroke="#0059FF"/>
<path d="M283.5 52L283.5 60M283.5 52L286 52M283.5 52L281 52M283.5 60L286 60M283.5 60L281 60" stroke="#0059FF"/>
<line x1="400.5" y1="16" x2="400.5" y2="127" stroke="#EDEDED"/>
<rect width="800" height="143" rx="4" stroke="#F8F8F8" stroke-width="32" mask="url(#path-1-inside-1_3685_53725)"/>
</svg>
