<svg width="380" height="120" viewBox="0 0 380 120" fill="none" xmlns="http://www.w3.org/2000/svg">
<rect width="380" height="120" fill="#1C4DA9"/>
<path d="M24.0933 26.7378V28.3198H18.4829V26.7378H24.0933ZM19.0322 22.3359V33H17.0181V22.3359H19.0322ZM25.5874 22.3359V33H23.5732V22.3359H25.5874ZM31.1513 33.1465C30.5507 33.1465 30.0111 33.0488 29.5326 32.8535C29.0541 32.6582 28.6464 32.3872 28.3095 32.0405C27.9774 31.689 27.7211 31.2812 27.5404 30.8174C27.3646 30.3486 27.2768 29.8457 27.2768 29.3086V29.0156C27.2768 28.4053 27.3646 27.8511 27.5404 27.353C27.7162 26.8501 27.9652 26.418 28.2875 26.0566C28.6098 25.6953 28.9955 25.417 29.4447 25.2217C29.8939 25.0264 30.3896 24.9287 30.9315 24.9287C31.4931 24.9287 31.9887 25.0239 32.4184 25.2144C32.848 25.3999 33.2069 25.6636 33.495 26.0054C33.7831 26.3472 34.0004 26.7573 34.1469 27.2358C34.2934 27.7095 34.3666 28.2344 34.3666 28.8105V29.6235H28.1557V28.2905H32.4623V28.144C32.4525 27.8364 32.3939 27.5557 32.2865 27.3018C32.1791 27.043 32.0131 26.8379 31.7885 26.6865C31.5639 26.5303 31.2733 26.4521 30.9169 26.4521C30.6288 26.4521 30.3773 26.5156 30.1625 26.6426C29.9525 26.7646 29.7768 26.9404 29.6352 27.1699C29.4984 27.3945 29.3959 27.6631 29.3275 27.9756C29.2592 28.2881 29.225 28.6348 29.225 29.0156V29.3086C29.225 29.6406 29.2689 29.9482 29.3568 30.2314C29.4496 30.5146 29.5839 30.7612 29.7597 30.9712C29.9403 31.1763 30.1552 31.3374 30.4042 31.4546C30.6581 31.5669 30.9462 31.623 31.2685 31.623C31.6737 31.623 32.0399 31.5449 32.3671 31.3887C32.6991 31.2275 32.9872 30.9907 33.2313 30.6782L34.2055 31.689C34.0395 31.9331 33.8148 32.1675 33.5316 32.3921C33.2533 32.6167 32.9164 32.7998 32.5209 32.9414C32.1254 33.0781 31.6688 33.1465 31.1513 33.1465ZM37.8138 21.75V33H35.8729V21.75H37.8138ZM41.8103 21.75V33H39.8693V21.75H41.8103ZM43.4117 29.1182V28.9644C43.4117 28.3833 43.4947 27.8486 43.6607 27.3604C43.8268 26.8672 44.0685 26.4399 44.3858 26.0786C44.7032 25.7173 45.0914 25.4365 45.5504 25.2363C46.0094 25.0312 46.5318 24.9287 47.1178 24.9287C47.7135 24.9287 48.2408 25.0312 48.6998 25.2363C49.1637 25.4365 49.5543 25.7173 49.8717 26.0786C50.1891 26.4399 50.4308 26.8672 50.5968 27.3604C50.7628 27.8486 50.8458 28.3833 50.8458 28.9644V29.1182C50.8458 29.6943 50.7628 30.229 50.5968 30.7222C50.4308 31.2104 50.1891 31.6377 49.8717 32.0039C49.5543 32.3652 49.1661 32.646 48.7071 32.8462C48.2481 33.0464 47.7232 33.1465 47.1324 33.1465C46.5465 33.1465 46.0216 33.0464 45.5577 32.8462C45.0938 32.646 44.7032 32.3652 44.3858 32.0039C44.0685 31.6377 43.8268 31.2104 43.6607 30.7222C43.4947 30.229 43.4117 29.6943 43.4117 29.1182ZM45.3453 28.9644V29.1182C45.3453 29.4648 45.3795 29.7896 45.4479 30.0923C45.5162 30.395 45.6212 30.6611 45.7628 30.8906C45.9044 31.1201 46.0875 31.3008 46.3121 31.4326C46.5416 31.5596 46.815 31.623 47.1324 31.623C47.4449 31.623 47.7135 31.5596 47.9381 31.4326C48.1627 31.3008 48.3458 31.1201 48.4874 30.8906C48.6339 30.6611 48.7413 30.395 48.8097 30.0923C48.878 29.7896 48.9122 29.4648 48.9122 29.1182V28.9644C48.9122 28.6226 48.878 28.3027 48.8097 28.0049C48.7413 27.7021 48.6339 27.436 48.4874 27.2065C48.3458 26.9722 48.1603 26.7891 47.9308 26.6572C47.7062 26.5205 47.4352 26.4521 47.1178 26.4521C46.8053 26.4521 46.5367 26.5205 46.3121 26.6572C46.0875 26.7891 45.9044 26.9722 45.7628 27.2065C45.6212 27.436 45.5162 27.7021 45.4479 28.0049C45.3795 28.3027 45.3453 28.6226 45.3453 28.9644ZM54.5566 22.3359L54.3442 29.7993H52.7109L52.4985 22.3359H54.5566ZM52.4399 32.0991C52.4399 31.811 52.5376 31.5693 52.7329 31.374C52.9331 31.1738 53.2017 31.0737 53.5386 31.0737C53.8755 31.0737 54.1416 31.1738 54.3369 31.374C54.5371 31.5693 54.6372 31.811 54.6372 32.0991C54.6372 32.3823 54.5371 32.6216 54.3369 32.8169C54.1416 33.0122 53.8755 33.1099 53.5386 33.1099C53.2017 33.1099 52.9331 33.0122 52.7329 32.8169C52.5376 32.6216 52.4399 32.3823 52.4399 32.0991ZM66.7537 22.3359H68.16V29.5503C68.16 30.3511 67.9817 31.0176 67.6253 31.5498C67.2688 32.082 66.7952 32.4824 66.2044 32.751C65.6185 33.0146 64.9813 33.1465 64.2928 33.1465C63.5701 33.1465 62.9158 33.0146 62.3299 32.751C61.7488 32.4824 61.2874 32.082 60.9456 31.5498C60.6087 31.0176 60.4402 30.3511 60.4402 29.5503V22.3359H61.8392V29.5503C61.8392 30.1069 61.9417 30.5659 62.1468 30.9272C62.3519 31.2886 62.6375 31.5571 63.0037 31.7329C63.3748 31.9087 63.8045 31.9966 64.2928 31.9966C64.7859 31.9966 65.2156 31.9087 65.5818 31.7329C65.9529 31.5571 66.241 31.2886 66.4461 30.9272C66.6512 30.5659 66.7537 30.1069 66.7537 29.5503V22.3359ZM74.8884 30.8979C74.8884 30.7026 74.8444 30.522 74.7565 30.356C74.6735 30.1851 74.5002 30.0312 74.2365 29.8945C73.9777 29.7529 73.5871 29.6309 73.0646 29.5283C72.6252 29.4355 72.2272 29.3257 71.8708 29.1987C71.5192 29.0718 71.2189 28.918 70.9699 28.7373C70.7258 28.5566 70.5378 28.3442 70.406 28.1001C70.2741 27.856 70.2082 27.5703 70.2082 27.2432C70.2082 26.9307 70.2766 26.6353 70.4133 26.3569C70.5549 26.0786 70.7526 25.832 71.0065 25.6172C71.2653 25.4023 71.5754 25.2339 71.9367 25.1118C72.298 24.9897 72.7009 24.9287 73.1452 24.9287C73.78 24.9287 74.322 25.041 74.7712 25.2656C75.2204 25.4902 75.5646 25.7905 75.8039 26.1665C76.0432 26.5376 76.1628 26.9502 76.1628 27.4043H74.8078C74.8078 27.1846 74.7419 26.9722 74.6101 26.7671C74.4831 26.5571 74.2951 26.3838 74.0461 26.2471C73.802 26.1104 73.5017 26.042 73.1452 26.042C72.7692 26.042 72.4641 26.1006 72.2297 26.2178C72.0002 26.3301 71.8317 26.4741 71.7243 26.6499C71.6218 26.8257 71.5705 27.0112 71.5705 27.2065C71.5705 27.353 71.5949 27.4849 71.6437 27.6021C71.6975 27.7144 71.7902 27.8193 71.9221 27.917C72.0539 28.0098 72.2395 28.0977 72.4787 28.1807C72.718 28.2637 73.0231 28.3467 73.3942 28.4297C74.0437 28.5762 74.5783 28.752 74.9982 28.957C75.4182 29.1621 75.7307 29.4136 75.9357 29.7114C76.1408 30.0093 76.2434 30.3706 76.2434 30.7954C76.2434 31.1421 76.1701 31.4595 76.0236 31.7476C75.882 32.0356 75.6745 32.2847 75.4011 32.4946C75.1325 32.6997 74.8103 32.8608 74.4343 32.978C74.0632 33.0903 73.6457 33.1465 73.1818 33.1465C72.4836 33.1465 71.8928 33.022 71.4094 32.7729C70.926 32.5239 70.5598 32.2017 70.3107 31.8062C70.0617 31.4106 69.9372 30.9932 69.9372 30.5537H71.2995C71.319 30.9248 71.4265 31.2202 71.6218 31.4399C71.8171 31.6548 72.0563 31.8086 72.3396 31.9014C72.6228 31.9893 72.9035 32.0332 73.1818 32.0332C73.5529 32.0332 73.863 31.9844 74.112 31.8867C74.3659 31.7891 74.5588 31.6548 74.6906 31.4839C74.8225 31.313 74.8884 31.1177 74.8884 30.8979ZM81.4117 33.1465C80.86 33.1465 80.3595 33.0537 79.9103 32.8682C79.4659 32.6777 79.0826 32.4116 78.7604 32.0698C78.443 31.728 78.1988 31.3228 78.0279 30.854C77.857 30.3853 77.7716 29.8726 77.7716 29.3159V29.0083C77.7716 28.3638 77.8668 27.79 78.0572 27.2871C78.2477 26.7793 78.5064 26.3496 78.8336 25.998C79.1607 25.6465 79.5318 25.3804 79.9469 25.1997C80.3619 25.019 80.7916 24.9287 81.2359 24.9287C81.8023 24.9287 82.2906 25.0264 82.7008 25.2217C83.1158 25.417 83.4552 25.6904 83.7188 26.042C83.9825 26.3887 84.1778 26.7988 84.3048 27.2725C84.4317 27.7412 84.4952 28.2539 84.4952 28.8105V29.4185H78.5772V28.3125H83.1402V28.21C83.1207 27.8584 83.0475 27.5166 82.9205 27.1846C82.7984 26.8525 82.6031 26.5791 82.3346 26.3643C82.066 26.1494 81.6998 26.042 81.2359 26.042C80.9283 26.042 80.6451 26.1079 80.3863 26.2397C80.1275 26.3667 79.9054 26.5571 79.7198 26.811C79.5343 27.0649 79.3902 27.375 79.2877 27.7412C79.1852 28.1074 79.1339 28.5298 79.1339 29.0083V29.3159C79.1339 29.6919 79.1852 30.0459 79.2877 30.3779C79.3951 30.7051 79.5489 30.9932 79.7491 31.2422C79.9542 31.4912 80.2008 31.6865 80.4889 31.8281C80.7818 31.9697 81.1139 32.0405 81.485 32.0405C81.9635 32.0405 82.3688 31.9429 82.7008 31.7476C83.0328 31.5522 83.3233 31.291 83.5724 30.9639L84.3927 31.6157C84.2218 31.8745 84.0045 32.1211 83.7408 32.3555C83.4771 32.5898 83.1524 32.7803 82.7667 32.9268C82.3858 33.0732 81.9342 33.1465 81.4117 33.1465ZM93.3158 25.0752V26.1152H89.0312V25.0752H93.3158ZM90.4813 23.1489H91.8363V31.0371C91.8363 31.3057 91.8778 31.5083 91.9608 31.645C92.0438 31.7817 92.1513 31.8721 92.2831 31.916C92.4149 31.96 92.5565 31.9819 92.7079 31.9819C92.8202 31.9819 92.9374 31.9722 93.0595 31.9526C93.1864 31.9282 93.2816 31.9087 93.3451 31.894L93.3524 33C93.245 33.0342 93.1034 33.0659 92.9276 33.0952C92.7567 33.1294 92.5492 33.1465 92.3051 33.1465C91.973 33.1465 91.6679 33.0806 91.3895 32.9487C91.1112 32.8169 90.8891 32.5972 90.723 32.2896C90.5619 31.9771 90.4813 31.5571 90.4813 31.0298V23.1489ZM96.3602 21.75V33H95.0052V21.75H96.3602ZM96.0379 28.7373L95.4739 28.7153C95.4788 28.1733 95.5594 27.6729 95.7156 27.2139C95.8719 26.75 96.0916 26.3472 96.3748 26.0054C96.658 25.6636 96.9949 25.3999 97.3855 25.2144C97.7811 25.0239 98.2181 24.9287 98.6966 24.9287C99.0872 24.9287 99.4388 24.9824 99.7513 25.0898C100.064 25.1924 100.33 25.3584 100.55 25.5879C100.774 25.8174 100.945 26.1152 101.062 26.4814C101.179 26.8428 101.238 27.2847 101.238 27.8071V33H99.8758V27.7925C99.8758 27.3774 99.8147 27.0454 99.6927 26.7964C99.5706 26.5425 99.3924 26.3594 99.158 26.2471C98.9236 26.1299 98.6355 26.0713 98.2937 26.0713C97.9568 26.0713 97.6492 26.1421 97.3709 26.2837C97.0975 26.4253 96.8606 26.6206 96.6604 26.8696C96.4651 27.1187 96.3113 27.4043 96.199 27.7266C96.0916 28.0439 96.0379 28.3809 96.0379 28.7373ZM104.839 25.0752V33H103.477V25.0752H104.839ZM103.374 22.9731C103.374 22.7534 103.44 22.5679 103.572 22.4165C103.709 22.2651 103.909 22.1895 104.173 22.1895C104.431 22.1895 104.629 22.2651 104.766 22.4165C104.907 22.5679 104.978 22.7534 104.978 22.9731C104.978 23.1831 104.907 23.3638 104.766 23.5151C104.629 23.6616 104.431 23.7349 104.173 23.7349C103.909 23.7349 103.709 23.6616 103.572 23.5151C103.44 23.3638 103.374 23.1831 103.374 22.9731ZM111.729 30.8979C111.729 30.7026 111.685 30.522 111.597 30.356C111.514 30.1851 111.34 30.0312 111.077 29.8945C110.818 29.7529 110.427 29.6309 109.905 29.5283C109.465 29.4355 109.067 29.3257 108.711 29.1987C108.359 29.0718 108.059 28.918 107.81 28.7373C107.566 28.5566 107.378 28.3442 107.246 28.1001C107.114 27.856 107.048 27.5703 107.048 27.2432C107.048 26.9307 107.117 26.6353 107.254 26.3569C107.395 26.0786 107.593 25.832 107.847 25.6172C108.106 25.4023 108.416 25.2339 108.777 25.1118C109.138 24.9897 109.541 24.9287 109.985 24.9287C110.62 24.9287 111.162 25.041 111.611 25.2656C112.061 25.4902 112.405 25.7905 112.644 26.1665C112.883 26.5376 113.003 26.9502 113.003 27.4043H111.648C111.648 27.1846 111.582 26.9722 111.45 26.7671C111.323 26.5571 111.135 26.3838 110.886 26.2471C110.642 26.1104 110.342 26.042 109.985 26.042C109.609 26.042 109.304 26.1006 109.07 26.2178C108.84 26.3301 108.672 26.4741 108.565 26.6499C108.462 26.8257 108.411 27.0112 108.411 27.2065C108.411 27.353 108.435 27.4849 108.484 27.6021C108.538 27.7144 108.63 27.8193 108.762 27.917C108.894 28.0098 109.08 28.0977 109.319 28.1807C109.558 28.2637 109.863 28.3467 110.234 28.4297C110.884 28.5762 111.419 28.752 111.838 28.957C112.258 29.1621 112.571 29.4136 112.776 29.7114C112.981 30.0093 113.084 30.3706 113.084 30.7954C113.084 31.1421 113.01 31.4595 112.864 31.7476C112.722 32.0356 112.515 32.2847 112.241 32.4946C111.973 32.6997 111.65 32.8608 111.275 32.978C110.903 33.0903 110.486 33.1465 110.022 33.1465C109.324 33.1465 108.733 33.022 108.25 32.7729C107.766 32.5239 107.4 32.2017 107.151 31.8062C106.902 31.4106 106.777 30.9932 106.777 30.5537H108.14C108.159 30.9248 108.267 31.2202 108.462 31.4399C108.657 31.6548 108.897 31.8086 109.18 31.9014C109.463 31.9893 109.744 32.0332 110.022 32.0332C110.393 32.0332 110.703 31.9844 110.952 31.8867C111.206 31.7891 111.399 31.6548 111.531 31.4839C111.663 31.313 111.729 31.1177 111.729 30.8979ZM118.777 21.75H120.139V31.4619L120.022 33H118.777V21.75ZM125.493 28.9717V29.1255C125.493 29.7017 125.425 30.2363 125.288 30.7295C125.151 31.2178 124.951 31.6426 124.687 32.0039C124.424 32.3652 124.101 32.646 123.721 32.8462C123.34 33.0464 122.903 33.1465 122.41 33.1465C121.907 33.1465 121.465 33.061 121.084 32.8901C120.708 32.7144 120.391 32.4629 120.132 32.1357C119.873 31.8086 119.665 31.4131 119.509 30.9492C119.358 30.4854 119.253 29.9629 119.194 29.3818V28.708C119.253 28.1221 119.358 27.5972 119.509 27.1333C119.665 26.6694 119.873 26.2739 120.132 25.9468C120.391 25.6147 120.708 25.3633 121.084 25.1924C121.46 25.0166 121.897 24.9287 122.395 24.9287C122.893 24.9287 123.335 25.0264 123.721 25.2217C124.106 25.4121 124.429 25.6855 124.687 26.042C124.951 26.3984 125.151 26.8257 125.288 27.3237C125.425 27.8169 125.493 28.3662 125.493 28.9717ZM124.131 29.1255V28.9717C124.131 28.5762 124.094 28.2051 124.021 27.8584C123.948 27.5068 123.83 27.1992 123.669 26.9355C123.508 26.667 123.296 26.457 123.032 26.3057C122.768 26.1494 122.444 26.0713 122.058 26.0713C121.716 26.0713 121.418 26.1299 121.164 26.2471C120.915 26.3643 120.703 26.5229 120.527 26.7231C120.351 26.9185 120.207 27.1431 120.095 27.397C119.988 27.646 119.907 27.9048 119.853 28.1733V29.9385C119.932 30.2803 120.058 30.6099 120.234 30.9272C120.415 31.2397 120.654 31.4961 120.952 31.6963C121.255 31.8965 121.628 31.9966 122.073 31.9966C122.439 31.9966 122.751 31.9233 123.01 31.7769C123.274 31.6255 123.486 31.418 123.647 31.1543C123.813 30.8906 123.935 30.5854 124.014 30.2388C124.092 29.8921 124.131 29.521 124.131 29.1255ZM131.98 31.645V27.5654C131.98 27.2529 131.916 26.9819 131.789 26.7524C131.667 26.5181 131.482 26.3374 131.233 26.2104C130.984 26.0835 130.676 26.02 130.31 26.02C129.968 26.02 129.668 26.0786 129.409 26.1958C129.155 26.313 128.955 26.4668 128.808 26.6572C128.667 26.8477 128.596 27.0527 128.596 27.2725H127.241C127.241 26.9893 127.314 26.7085 127.461 26.4302C127.607 26.1519 127.817 25.9004 128.091 25.6758C128.369 25.4463 128.701 25.2656 129.087 25.1338C129.477 24.9971 129.912 24.9287 130.39 24.9287C130.967 24.9287 131.474 25.0264 131.914 25.2217C132.358 25.417 132.705 25.7124 132.954 26.1079C133.208 26.4985 133.335 26.9893 133.335 27.5801V31.2715C133.335 31.5352 133.357 31.8159 133.401 32.1138C133.45 32.4116 133.52 32.668 133.613 32.8828V33H132.2C132.131 32.8438 132.077 32.6362 132.038 32.3774C131.999 32.1138 131.98 31.8696 131.98 31.645ZM132.214 28.1953L132.229 29.1475H130.859C130.473 29.1475 130.129 29.1792 129.826 29.2427C129.524 29.3013 129.27 29.3916 129.065 29.5137C128.86 29.6357 128.703 29.7896 128.596 29.9751C128.489 30.1558 128.435 30.3682 128.435 30.6123C128.435 30.8613 128.491 31.0884 128.603 31.2935C128.716 31.4985 128.884 31.6621 129.109 31.7842C129.338 31.9014 129.619 31.96 129.951 31.96C130.366 31.96 130.732 31.8721 131.05 31.6963C131.367 31.5205 131.618 31.3057 131.804 31.0518C131.994 30.7979 132.097 30.5513 132.112 30.312L132.69 30.9639C132.656 31.1689 132.563 31.396 132.412 31.645C132.261 31.894 132.058 32.1333 131.804 32.3628C131.555 32.5874 131.257 32.7754 130.91 32.9268C130.569 33.0732 130.183 33.1465 129.753 33.1465C129.216 33.1465 128.745 33.0415 128.34 32.8315C127.939 32.6216 127.627 32.3408 127.402 31.9893C127.182 31.6328 127.073 31.2349 127.073 30.7954C127.073 30.3706 127.156 29.9971 127.322 29.6748C127.488 29.3477 127.727 29.0767 128.039 28.8618C128.352 28.6421 128.728 28.4761 129.167 28.3638C129.607 28.2515 130.097 28.1953 130.639 28.1953H132.214ZM136.921 26.7671V33H135.566V25.0752H136.848L136.921 26.7671ZM136.599 28.7373L136.035 28.7153C136.04 28.1733 136.12 27.6729 136.277 27.2139C136.433 26.75 136.653 26.3472 136.936 26.0054C137.219 25.6636 137.556 25.3999 137.946 25.2144C138.342 25.0239 138.779 24.9287 139.258 24.9287C139.648 24.9287 140 24.9824 140.312 25.0898C140.625 25.1924 140.891 25.3584 141.111 25.5879C141.335 25.8174 141.506 26.1152 141.623 26.4814C141.74 26.8428 141.799 27.2847 141.799 27.8071V33H140.437V27.7925C140.437 27.3774 140.376 27.0454 140.254 26.7964C140.132 26.5425 139.953 26.3594 139.719 26.2471C139.485 26.1299 139.196 26.0713 138.855 26.0713C138.518 26.0713 138.21 26.1421 137.932 26.2837C137.658 26.4253 137.422 26.6206 137.221 26.8696C137.026 27.1187 136.872 27.4043 136.76 27.7266C136.653 28.0439 136.599 28.3809 136.599 28.7373ZM145.312 26.7671V33H143.957V25.0752H145.239L145.312 26.7671ZM144.99 28.7373L144.426 28.7153C144.431 28.1733 144.511 27.6729 144.668 27.2139C144.824 26.75 145.044 26.3472 145.327 26.0054C145.61 25.6636 145.947 25.3999 146.338 25.2144C146.733 25.0239 147.17 24.9287 147.649 24.9287C148.039 24.9287 148.391 24.9824 148.703 25.0898C149.016 25.1924 149.282 25.3584 149.502 25.5879C149.726 25.8174 149.897 26.1152 150.014 26.4814C150.131 26.8428 150.19 27.2847 150.19 27.8071V33H148.828V27.7925C148.828 27.3774 148.767 27.0454 148.645 26.7964C148.523 26.5425 148.344 26.3594 148.11 26.2471C147.876 26.1299 147.588 26.0713 147.246 26.0713C146.909 26.0713 146.601 26.1421 146.323 26.2837C146.049 26.4253 145.813 26.6206 145.612 26.8696C145.417 27.1187 145.263 27.4043 145.151 27.7266C145.044 28.0439 144.99 28.3809 144.99 28.7373ZM155.637 33.1465C155.085 33.1465 154.584 33.0537 154.135 32.8682C153.691 32.6777 153.308 32.4116 152.985 32.0698C152.668 31.728 152.424 31.3228 152.253 30.854C152.082 30.3853 151.997 29.8726 151.997 29.3159V29.0083C151.997 28.3638 152.092 27.79 152.282 27.2871C152.473 26.7793 152.731 26.3496 153.059 25.998C153.386 25.6465 153.757 25.3804 154.172 25.1997C154.587 25.019 155.017 24.9287 155.461 24.9287C156.027 24.9287 156.516 25.0264 156.926 25.2217C157.341 25.417 157.68 25.6904 157.944 26.042C158.208 26.3887 158.403 26.7988 158.53 27.2725C158.657 27.7412 158.72 28.2539 158.72 28.8105V29.4185H152.802V28.3125H157.365V28.21C157.346 27.8584 157.272 27.5166 157.146 27.1846C157.023 26.8525 156.828 26.5791 156.56 26.3643C156.291 26.1494 155.925 26.042 155.461 26.042C155.153 26.042 154.87 26.1079 154.611 26.2397C154.353 26.3667 154.13 26.5571 153.945 26.811C153.759 27.0649 153.615 27.375 153.513 27.7412C153.41 28.1074 153.359 28.5298 153.359 29.0083V29.3159C153.359 29.6919 153.41 30.0459 153.513 30.3779C153.62 30.7051 153.774 30.9932 153.974 31.2422C154.179 31.4912 154.426 31.6865 154.714 31.8281C155.007 31.9697 155.339 32.0405 155.71 32.0405C156.188 32.0405 156.594 31.9429 156.926 31.7476C157.258 31.5522 157.548 31.291 157.797 30.9639L158.618 31.6157C158.447 31.8745 158.229 32.1211 157.966 32.3555C157.702 32.5898 157.377 32.7803 156.992 32.9268C156.611 33.0732 156.159 33.1465 155.637 33.1465ZM161.757 26.3203V33H160.402V25.0752H161.721L161.757 26.3203ZM164.233 25.0312L164.225 26.291C164.113 26.2666 164.006 26.252 163.903 26.2471C163.806 26.2373 163.693 26.2324 163.566 26.2324C163.254 26.2324 162.978 26.2812 162.739 26.3789C162.499 26.4766 162.297 26.6133 162.131 26.7891C161.965 26.9648 161.833 27.1748 161.735 27.4189C161.642 27.6582 161.581 27.9219 161.552 28.21L161.171 28.4297C161.171 27.9512 161.218 27.502 161.31 27.082C161.408 26.6621 161.557 26.291 161.757 25.9688C161.957 25.6416 162.211 25.3877 162.519 25.207C162.831 25.0215 163.203 24.9287 163.632 24.9287C163.73 24.9287 163.842 24.9409 163.969 24.9653C164.096 24.9849 164.184 25.0068 164.233 25.0312ZM171.427 33H170.072V24.2402C170.072 23.6689 170.175 23.188 170.38 22.7974C170.59 22.4019 170.89 22.104 171.281 21.9038C171.672 21.6987 172.135 21.5962 172.673 21.5962C172.829 21.5962 172.985 21.606 173.141 21.6255C173.302 21.645 173.459 21.6743 173.61 21.7134L173.537 22.8193C173.434 22.7949 173.317 22.7778 173.185 22.7681C173.058 22.7583 172.931 22.7534 172.804 22.7534C172.516 22.7534 172.267 22.812 172.057 22.9292C171.852 23.0415 171.696 23.2075 171.589 23.4272C171.481 23.647 171.427 23.918 171.427 24.2402V33ZM173.112 25.0752V26.1152H168.82V25.0752H173.112ZM174.362 29.1255V28.957C174.362 28.3857 174.445 27.856 174.611 27.3677C174.777 26.8745 175.016 26.4473 175.329 26.0859C175.641 25.7197 176.02 25.4365 176.464 25.2363C176.908 25.0312 177.406 24.9287 177.958 24.9287C178.515 24.9287 179.015 25.0312 179.46 25.2363C179.909 25.4365 180.29 25.7197 180.602 26.0859C180.92 26.4473 181.161 26.8745 181.327 27.3677C181.493 27.856 181.576 28.3857 181.576 28.957V29.1255C181.576 29.6968 181.493 30.2266 181.327 30.7148C181.161 31.2031 180.92 31.6304 180.602 31.9966C180.29 32.3579 179.911 32.6411 179.467 32.8462C179.027 33.0464 178.529 33.1465 177.973 33.1465C177.416 33.1465 176.916 33.0464 176.471 32.8462C176.027 32.6411 175.646 32.3579 175.329 31.9966C175.016 31.6304 174.777 31.2031 174.611 30.7148C174.445 30.2266 174.362 29.6968 174.362 29.1255ZM175.717 28.957V29.1255C175.717 29.521 175.763 29.8945 175.856 30.2461C175.949 30.5928 176.088 30.9004 176.274 31.1689C176.464 31.4375 176.701 31.6499 176.984 31.8062C177.267 31.9575 177.597 32.0332 177.973 32.0332C178.344 32.0332 178.669 31.9575 178.947 31.8062C179.23 31.6499 179.464 31.4375 179.65 31.1689C179.836 30.9004 179.975 30.5928 180.067 30.2461C180.165 29.8945 180.214 29.521 180.214 29.1255V28.957C180.214 28.5664 180.165 28.1978 180.067 27.8511C179.975 27.4995 179.833 27.1895 179.643 26.9209C179.457 26.6475 179.223 26.4326 178.94 26.2764C178.661 26.1201 178.334 26.042 177.958 26.042C177.587 26.042 177.26 26.1201 176.977 26.2764C176.698 26.4326 176.464 26.6475 176.274 26.9209C176.088 27.1895 175.949 27.4995 175.856 27.8511C175.763 28.1978 175.717 28.5664 175.717 28.957ZM184.73 26.3203V33H183.375V25.0752H184.694L184.73 26.3203ZM187.206 25.0312L187.199 26.291C187.086 26.2666 186.979 26.252 186.876 26.2471C186.779 26.2373 186.667 26.2324 186.54 26.2324C186.227 26.2324 185.951 26.2812 185.712 26.3789C185.473 26.4766 185.27 26.6133 185.104 26.7891C184.938 26.9648 184.806 27.1748 184.708 27.4189C184.616 27.6582 184.555 27.9219 184.525 28.21L184.145 28.4297C184.145 27.9512 184.191 27.502 184.284 27.082C184.381 26.6621 184.53 26.291 184.73 25.9688C184.931 25.6416 185.185 25.3877 185.492 25.207C185.805 25.0215 186.176 24.9287 186.605 24.9287C186.703 24.9287 186.815 24.9409 186.942 24.9653C187.069 24.9849 187.157 25.0068 187.206 25.0312ZM199.55 26.9209V28.0708H193.778V26.9209H199.55ZM193.998 22.3359V33H192.584V22.3359H193.998ZM200.78 22.3359V33H199.374V22.3359H200.78ZM208.036 31.1689V25.0752H209.398V33H208.102L208.036 31.1689ZM208.292 29.499L208.856 29.4844C208.856 30.0117 208.8 30.5 208.688 30.9492C208.58 31.3936 208.404 31.7793 208.16 32.1064C207.916 32.4336 207.596 32.6899 207.201 32.8755C206.805 33.0562 206.324 33.1465 205.758 33.1465C205.372 33.1465 205.018 33.0903 204.696 32.978C204.379 32.8657 204.105 32.6924 203.876 32.458C203.646 32.2236 203.468 31.9185 203.341 31.5425C203.219 31.1665 203.158 30.7148 203.158 30.1875V25.0752H204.513V30.2021C204.513 30.5586 204.552 30.854 204.63 31.0884C204.713 31.3179 204.823 31.501 204.96 31.6377C205.101 31.7695 205.258 31.8623 205.428 31.916C205.604 31.9697 205.785 31.9966 205.97 31.9966C206.547 31.9966 207.003 31.8867 207.34 31.667C207.677 31.4424 207.919 31.1421 208.065 30.7661C208.217 30.3853 208.292 29.9629 208.292 29.499ZM211.556 21.75H212.919V31.4619L212.801 33H211.556V21.75ZM218.273 28.9717V29.1255C218.273 29.7017 218.204 30.2363 218.067 30.7295C217.931 31.2178 217.731 31.6426 217.467 32.0039C217.203 32.3652 216.881 32.646 216.5 32.8462C216.119 33.0464 215.682 33.1465 215.189 33.1465C214.686 33.1465 214.244 33.061 213.863 32.8901C213.487 32.7144 213.17 32.4629 212.911 32.1357C212.652 31.8086 212.445 31.4131 212.289 30.9492C212.137 30.4854 212.032 29.9629 211.974 29.3818V28.708C212.032 28.1221 212.137 27.5972 212.289 27.1333C212.445 26.6694 212.652 26.2739 212.911 25.9468C213.17 25.6147 213.487 25.3633 213.863 25.1924C214.239 25.0166 214.676 24.9287 215.174 24.9287C215.672 24.9287 216.114 25.0264 216.5 25.2217C216.886 25.4121 217.208 25.6855 217.467 26.042C217.731 26.3984 217.931 26.8257 218.067 27.3237C218.204 27.8169 218.273 28.3662 218.273 28.9717ZM216.91 29.1255V28.9717C216.91 28.5762 216.874 28.2051 216.8 27.8584C216.727 27.5068 216.61 27.1992 216.449 26.9355C216.288 26.667 216.075 26.457 215.812 26.3057C215.548 26.1494 215.223 26.0713 214.837 26.0713C214.496 26.0713 214.198 26.1299 213.944 26.2471C213.695 26.3643 213.483 26.5229 213.307 26.7231C213.131 26.9185 212.987 27.1431 212.875 27.397C212.767 27.646 212.687 27.9048 212.633 28.1733V29.9385C212.711 30.2803 212.838 30.6099 213.014 30.9272C213.194 31.2397 213.434 31.4961 213.732 31.6963C214.034 31.8965 214.408 31.9966 214.852 31.9966C215.218 31.9966 215.531 31.9233 215.79 31.7769C216.053 31.6255 216.266 31.418 216.427 31.1543C216.593 30.8906 216.715 30.5854 216.793 30.2388C216.871 29.8921 216.91 29.521 216.91 29.1255ZM228.756 31.1689V25.0752H230.118V33H228.822L228.756 31.1689ZM229.012 29.499L229.576 29.4844C229.576 30.0117 229.52 30.5 229.408 30.9492C229.3 31.3936 229.124 31.7793 228.88 32.1064C228.636 32.4336 228.316 32.6899 227.921 32.8755C227.525 33.0562 227.044 33.1465 226.478 33.1465C226.092 33.1465 225.738 33.0903 225.416 32.978C225.099 32.8657 224.825 32.6924 224.596 32.458C224.366 32.2236 224.188 31.9185 224.061 31.5425C223.939 31.1665 223.878 30.7148 223.878 30.1875V25.0752H225.233V30.2021C225.233 30.5586 225.272 30.854 225.35 31.0884C225.433 31.3179 225.543 31.501 225.68 31.6377C225.821 31.7695 225.977 31.8623 226.148 31.916C226.324 31.9697 226.505 31.9966 226.69 31.9966C227.267 31.9966 227.723 31.8867 228.06 31.667C228.397 31.4424 228.639 31.1421 228.785 30.7661C228.936 30.3853 229.012 29.9629 229.012 29.499ZM233.638 26.5986V36.0469H232.276V25.0752H233.521L233.638 26.5986ZM238.978 28.9717V29.1255C238.978 29.7017 238.909 30.2363 238.773 30.7295C238.636 31.2178 238.436 31.6426 238.172 32.0039C237.913 32.3652 237.594 32.646 237.213 32.8462C236.832 33.0464 236.395 33.1465 235.902 33.1465C235.399 33.1465 234.954 33.0635 234.569 32.8975C234.183 32.7314 233.856 32.4897 233.587 32.1724C233.319 31.855 233.104 31.4741 232.943 31.0298C232.786 30.5854 232.679 30.085 232.62 29.5283V28.708C232.679 28.1221 232.789 27.5972 232.95 27.1333C233.111 26.6694 233.324 26.2739 233.587 25.9468C233.856 25.6147 234.18 25.3633 234.561 25.1924C234.942 25.0166 235.382 24.9287 235.88 24.9287C236.378 24.9287 236.82 25.0264 237.205 25.2217C237.591 25.4121 237.916 25.6855 238.179 26.042C238.443 26.3984 238.641 26.8257 238.773 27.3237C238.909 27.8169 238.978 28.3662 238.978 28.9717ZM237.616 29.1255V28.9717C237.616 28.5762 237.574 28.2051 237.491 27.8584C237.408 27.5068 237.279 27.1992 237.103 26.9355C236.932 26.667 236.712 26.457 236.444 26.3057C236.175 26.1494 235.855 26.0713 235.484 26.0713C235.142 26.0713 234.845 26.1299 234.591 26.2471C234.342 26.3643 234.129 26.5229 233.953 26.7231C233.778 26.9185 233.634 27.1431 233.521 27.397C233.414 27.646 233.333 27.9048 233.28 28.1733V30.0703C233.377 30.4121 233.514 30.7344 233.69 31.0371C233.866 31.335 234.1 31.5767 234.393 31.7622C234.686 31.9429 235.054 32.0332 235.499 32.0332C235.865 32.0332 236.18 31.9575 236.444 31.8062C236.712 31.6499 236.932 31.4375 237.103 31.1689C237.279 30.9004 237.408 30.5928 237.491 30.2461C237.574 29.8945 237.616 29.521 237.616 29.1255ZM245.421 30.8979C245.421 30.7026 245.377 30.522 245.289 30.356C245.206 30.1851 245.032 30.0312 244.769 29.8945C244.51 29.7529 244.119 29.6309 243.597 29.5283C243.157 29.4355 242.759 29.3257 242.403 29.1987C242.051 29.0718 241.751 28.918 241.502 28.7373C241.258 28.5566 241.07 28.3442 240.938 28.1001C240.806 27.856 240.74 27.5703 240.74 27.2432C240.74 26.9307 240.809 26.6353 240.946 26.3569C241.087 26.0786 241.285 25.832 241.539 25.6172C241.798 25.4023 242.108 25.2339 242.469 25.1118C242.83 24.9897 243.233 24.9287 243.677 24.9287C244.312 24.9287 244.854 25.041 245.303 25.2656C245.753 25.4902 246.097 25.7905 246.336 26.1665C246.575 26.5376 246.695 26.9502 246.695 27.4043H245.34C245.34 27.1846 245.274 26.9722 245.142 26.7671C245.015 26.5571 244.827 26.3838 244.578 26.2471C244.334 26.1104 244.034 26.042 243.677 26.042C243.301 26.042 242.996 26.1006 242.762 26.2178C242.532 26.3301 242.364 26.4741 242.257 26.6499C242.154 26.8257 242.103 27.0112 242.103 27.2065C242.103 27.353 242.127 27.4849 242.176 27.6021C242.23 27.7144 242.322 27.8193 242.454 27.917C242.586 28.0098 242.772 28.0977 243.011 28.1807C243.25 28.2637 243.555 28.3467 243.926 28.4297C244.576 28.5762 245.111 28.752 245.53 28.957C245.95 29.1621 246.263 29.4136 246.468 29.7114C246.673 30.0093 246.776 30.3706 246.776 30.7954C246.776 31.1421 246.702 31.4595 246.556 31.7476C246.414 32.0356 246.207 32.2847 245.933 32.4946C245.665 32.6997 245.342 32.8608 244.967 32.978C244.595 33.0903 244.178 33.1465 243.714 33.1465C243.016 33.1465 242.425 33.022 241.942 32.7729C241.458 32.5239 241.092 32.2017 240.843 31.8062C240.594 31.4106 240.469 30.9932 240.469 30.5537H241.832C241.851 30.9248 241.959 31.2202 242.154 31.4399C242.349 31.6548 242.589 31.8086 242.872 31.9014C243.155 31.9893 243.436 32.0332 243.714 32.0332C244.085 32.0332 244.395 31.9844 244.644 31.8867C244.898 31.7891 245.091 31.6548 245.223 31.4839C245.355 31.313 245.421 31.1177 245.421 30.8979ZM251.944 33.1465C251.392 33.1465 250.892 33.0537 250.442 32.8682C249.998 32.6777 249.615 32.4116 249.293 32.0698C248.975 31.728 248.731 31.3228 248.56 30.854C248.389 30.3853 248.304 29.8726 248.304 29.3159V29.0083C248.304 28.3638 248.399 27.79 248.589 27.2871C248.78 26.7793 249.039 26.3496 249.366 25.998C249.693 25.6465 250.064 25.3804 250.479 25.1997C250.894 25.019 251.324 24.9287 251.768 24.9287C252.335 24.9287 252.823 25.0264 253.233 25.2217C253.648 25.417 253.987 25.6904 254.251 26.042C254.515 26.3887 254.71 26.7988 254.837 27.2725C254.964 27.7412 255.027 28.2539 255.027 28.8105V29.4185H249.109V28.3125H253.672V28.21C253.653 27.8584 253.58 27.5166 253.453 27.1846C253.331 26.8525 253.135 26.5791 252.867 26.3643C252.598 26.1494 252.232 26.042 251.768 26.042C251.461 26.042 251.177 26.1079 250.919 26.2397C250.66 26.3667 250.438 26.5571 250.252 26.811C250.066 27.0649 249.922 27.375 249.82 27.7412C249.717 28.1074 249.666 28.5298 249.666 29.0083V29.3159C249.666 29.6919 249.717 30.0459 249.82 30.3779C249.927 30.7051 250.081 30.9932 250.281 31.2422C250.486 31.4912 250.733 31.6865 251.021 31.8281C251.314 31.9697 251.646 32.0405 252.017 32.0405C252.496 32.0405 252.901 31.9429 253.233 31.7476C253.565 31.5522 253.856 31.291 254.105 30.9639L254.925 31.6157C254.754 31.8745 254.537 32.1211 254.273 32.3555C254.009 32.5898 253.685 32.7803 253.299 32.9268C252.918 33.0732 252.466 33.1465 251.944 33.1465ZM258.182 21.75V33H256.819V21.75H258.182ZM261.929 21.75V33H260.567V21.75H261.929ZM272.698 31.645V27.5654C272.698 27.2529 272.634 26.9819 272.508 26.7524C272.385 26.5181 272.2 26.3374 271.951 26.2104C271.702 26.0835 271.394 26.02 271.028 26.02C270.686 26.02 270.386 26.0786 270.127 26.1958C269.873 26.313 269.673 26.4668 269.527 26.6572C269.385 26.8477 269.314 27.0527 269.314 27.2725H267.959C267.959 26.9893 268.032 26.7085 268.179 26.4302C268.325 26.1519 268.535 25.9004 268.809 25.6758C269.087 25.4463 269.419 25.2656 269.805 25.1338C270.196 24.9971 270.63 24.9287 271.109 24.9287C271.685 24.9287 272.193 25.0264 272.632 25.2217C273.076 25.417 273.423 25.7124 273.672 26.1079C273.926 26.4985 274.053 26.9893 274.053 27.5801V31.2715C274.053 31.5352 274.075 31.8159 274.119 32.1138C274.168 32.4116 274.238 32.668 274.331 32.8828V33H272.918C272.849 32.8438 272.796 32.6362 272.757 32.3774C272.717 32.1138 272.698 31.8696 272.698 31.645ZM272.932 28.1953L272.947 29.1475H271.577C271.192 29.1475 270.847 29.1792 270.545 29.2427C270.242 29.3013 269.988 29.3916 269.783 29.5137C269.578 29.6357 269.422 29.7896 269.314 29.9751C269.207 30.1558 269.153 30.3682 269.153 30.6123C269.153 30.8613 269.209 31.0884 269.321 31.2935C269.434 31.4985 269.602 31.6621 269.827 31.7842C270.056 31.9014 270.337 31.96 270.669 31.96C271.084 31.96 271.45 31.8721 271.768 31.6963C272.085 31.5205 272.337 31.3057 272.522 31.0518C272.713 30.7979 272.815 30.5513 272.83 30.312L273.408 30.9639C273.374 31.1689 273.281 31.396 273.13 31.645C272.979 31.894 272.776 32.1333 272.522 32.3628C272.273 32.5874 271.975 32.7754 271.629 32.9268C271.287 33.0732 270.901 33.1465 270.471 33.1465C269.934 33.1465 269.463 33.0415 269.058 32.8315C268.657 32.6216 268.345 32.3408 268.12 31.9893C267.901 31.6328 267.791 31.2349 267.791 30.7954C267.791 30.3706 267.874 29.9971 268.04 29.6748C268.206 29.3477 268.445 29.0767 268.758 28.8618C269.07 28.6421 269.446 28.4761 269.885 28.3638C270.325 28.2515 270.816 28.1953 271.358 28.1953H272.932ZM277.639 26.7671V33H276.284V25.0752H277.566L277.639 26.7671ZM277.317 28.7373L276.753 28.7153C276.758 28.1733 276.838 27.6729 276.995 27.2139C277.151 26.75 277.371 26.3472 277.654 26.0054C277.937 25.6636 278.274 25.3999 278.665 25.2144C279.06 25.0239 279.497 24.9287 279.976 24.9287C280.366 24.9287 280.718 24.9824 281.03 25.0898C281.343 25.1924 281.609 25.3584 281.829 25.5879C282.053 25.8174 282.224 26.1152 282.341 26.4814C282.459 26.8428 282.517 27.2847 282.517 27.8071V33H281.155V27.7925C281.155 27.3774 281.094 27.0454 280.972 26.7964C280.85 26.5425 280.671 26.3594 280.437 26.2471C280.203 26.1299 279.915 26.0713 279.573 26.0713C279.236 26.0713 278.928 26.1421 278.65 26.2837C278.377 26.4253 278.14 26.6206 277.94 26.8696C277.744 27.1187 277.59 27.4043 277.478 27.7266C277.371 28.0439 277.317 28.3809 277.317 28.7373ZM289.67 31.4619V21.75H291.033V33H289.788L289.67 31.4619ZM284.338 29.1255V28.9717C284.338 28.3662 284.412 27.8169 284.558 27.3237C284.709 26.8257 284.922 26.3984 285.195 26.042C285.474 25.6855 285.803 25.4121 286.184 25.2217C286.57 25.0264 287 24.9287 287.473 24.9287C287.971 24.9287 288.406 25.0166 288.777 25.1924C289.153 25.3633 289.47 25.6147 289.729 25.9468C289.993 26.2739 290.2 26.6694 290.352 27.1333C290.503 27.5972 290.608 28.1221 290.667 28.708V29.3818C290.613 29.9629 290.508 30.4854 290.352 30.9492C290.2 31.4131 289.993 31.8086 289.729 32.1357C289.47 32.4629 289.153 32.7144 288.777 32.8901C288.401 33.061 287.961 33.1465 287.458 33.1465C286.995 33.1465 286.57 33.0464 286.184 32.8462C285.803 32.646 285.474 32.3652 285.195 32.0039C284.922 31.6426 284.709 31.2178 284.558 30.7295C284.412 30.2363 284.338 29.7017 284.338 29.1255ZM285.701 28.9717V29.1255C285.701 29.521 285.74 29.8921 285.818 30.2388C285.901 30.5854 286.028 30.8906 286.199 31.1543C286.37 31.418 286.587 31.6255 286.851 31.7769C287.114 31.9233 287.429 31.9966 287.795 31.9966C288.245 31.9966 288.613 31.9014 288.901 31.7109C289.194 31.5205 289.429 31.269 289.604 30.9565C289.78 30.644 289.917 30.3047 290.015 29.9385V28.1733C289.956 27.9048 289.871 27.646 289.758 27.397C289.651 27.1431 289.509 26.9185 289.333 26.7231C289.163 26.5229 288.95 26.3643 288.696 26.2471C288.447 26.1299 288.152 26.0713 287.81 26.0713C287.439 26.0713 287.119 26.1494 286.851 26.3057C286.587 26.457 286.37 26.667 286.199 26.9355C286.028 27.1992 285.901 27.5068 285.818 27.8584C285.74 28.2051 285.701 28.5762 285.701 28.9717ZM21.7056 55.645V51.5654C21.7056 51.2529 21.6421 50.9819 21.5151 50.7524C21.3931 50.5181 21.2075 50.3374 20.9585 50.2104C20.7095 50.0835 20.4019 50.02 20.0356 50.02C19.6938 50.02 19.3936 50.0786 19.1348 50.1958C18.8809 50.313 18.6807 50.4668 18.5342 50.6572C18.3926 50.8477 18.3218 51.0527 18.3218 51.2725H16.9668C16.9668 50.9893 17.04 50.7085 17.1865 50.4302C17.333 50.1519 17.543 49.9004 17.8164 49.6758C18.0947 49.4463 18.4268 49.2656 18.8125 49.1338C19.2031 48.9971 19.6377 48.9287 20.1162 48.9287C20.6924 48.9287 21.2002 49.0264 21.6396 49.2217C22.084 49.417 22.4307 49.7124 22.6797 50.1079C22.9336 50.4985 23.0605 50.9893 23.0605 51.5801V55.2715C23.0605 55.5352 23.0825 55.8159 23.1265 56.1138C23.1753 56.4116 23.2461 56.668 23.3389 56.8828V57H21.9253C21.8569 56.8438 21.8032 56.6362 21.7642 56.3774C21.7251 56.1138 21.7056 55.8696 21.7056 55.645ZM21.9399 52.1953L21.9546 53.1475H20.585C20.1992 53.1475 19.855 53.1792 19.5522 53.2427C19.2495 53.3013 18.9956 53.3916 18.7905 53.5137C18.5854 53.6357 18.4292 53.7896 18.3218 53.9751C18.2144 54.1558 18.1606 54.3682 18.1606 54.6123C18.1606 54.8613 18.2168 55.0884 18.3291 55.2935C18.4414 55.4985 18.6099 55.6621 18.8345 55.7842C19.064 55.9014 19.3447 55.96 19.6768 55.96C20.0918 55.96 20.458 55.8721 20.7754 55.6963C21.0928 55.5205 21.3442 55.3057 21.5298 55.0518C21.7202 54.7979 21.8228 54.5513 21.8374 54.312L22.416 54.9639C22.3818 55.1689 22.2891 55.396 22.1377 55.645C21.9863 55.894 21.7837 56.1333 21.5298 56.3628C21.2808 56.5874 20.9829 56.7754 20.6362 56.9268C20.2944 57.0732 19.9087 57.1465 19.479 57.1465C18.9419 57.1465 18.4707 57.0415 18.0654 56.8315C17.665 56.6216 17.3525 56.3408 17.1279 55.9893C16.9082 55.6328 16.7983 55.2349 16.7983 54.7954C16.7983 54.3706 16.8813 53.9971 17.0474 53.6748C17.2134 53.3477 17.4526 53.0767 17.7651 52.8618C18.0776 52.6421 18.4536 52.4761 18.8931 52.3638C19.3325 52.2515 19.8232 52.1953 20.3652 52.1953H21.9399ZM26.6469 50.7671V57H25.2919V49.0752H26.5736L26.6469 50.7671ZM26.3246 52.7373L25.7606 52.7153C25.7655 52.1733 25.8461 51.6729 26.0023 51.2139C26.1586 50.75 26.3783 50.3472 26.6615 50.0054C26.9447 49.6636 27.2816 49.3999 27.6723 49.2144C28.0678 49.0239 28.5048 48.9287 28.9833 48.9287C29.3739 48.9287 29.7255 48.9824 30.038 49.0898C30.3505 49.1924 30.6166 49.3584 30.8363 49.5879C31.0609 49.8174 31.2318 50.1152 31.349 50.4814C31.4662 50.8428 31.5248 51.2847 31.5248 51.8071V57H30.1625V51.7925C30.1625 51.3774 30.1015 51.0454 29.9794 50.7964C29.8573 50.5425 29.6791 50.3594 29.4447 50.2471C29.2104 50.1299 28.9223 50.0713 28.5805 50.0713C28.2436 50.0713 27.9359 50.1421 27.6576 50.2837C27.3842 50.4253 27.1474 50.6206 26.9472 50.8696C26.7519 51.1187 26.598 51.4043 26.4857 51.7266C26.3783 52.0439 26.3246 52.3809 26.3246 52.7373ZM35.0379 50.7671V57H33.6829V49.0752H34.9646L35.0379 50.7671ZM34.7156 52.7373L34.1517 52.7153C34.1565 52.1733 34.2371 51.6729 34.3934 51.2139C34.5496 50.75 34.7693 50.3472 35.0525 50.0054C35.3357 49.6636 35.6727 49.3999 36.0633 49.2144C36.4588 49.0239 36.8958 48.9287 37.3743 48.9287C37.7649 48.9287 38.1165 48.9824 38.429 49.0898C38.7415 49.1924 39.0076 49.3584 39.2273 49.5879C39.452 49.8174 39.6229 50.1152 39.74 50.4814C39.8572 50.8428 39.9158 51.2847 39.9158 51.8071V57H38.5535V51.7925C38.5535 51.3774 38.4925 51.0454 38.3704 50.7964C38.2483 50.5425 38.0701 50.3594 37.8357 50.2471C37.6014 50.1299 37.3133 50.0713 36.9715 50.0713C36.6346 50.0713 36.327 50.1421 36.0486 50.2837C35.7752 50.4253 35.5384 50.6206 35.3382 50.8696C35.1429 51.1187 34.9891 51.4043 34.8768 51.7266C34.7693 52.0439 34.7156 52.3809 34.7156 52.7373ZM41.715 53.1255V52.957C41.715 52.3857 41.798 51.856 41.9641 51.3677C42.1301 50.8745 42.3693 50.4473 42.6818 50.0859C42.9943 49.7197 43.3728 49.4365 43.8171 49.2363C44.2614 49.0312 44.7595 48.9287 45.3112 48.9287C45.8679 48.9287 46.3684 49.0312 46.8127 49.2363C47.2619 49.4365 47.6428 49.7197 47.9553 50.0859C48.2727 50.4473 48.5144 50.8745 48.6804 51.3677C48.8464 51.856 48.9294 52.3857 48.9294 52.957V53.1255C48.9294 53.6968 48.8464 54.2266 48.6804 54.7148C48.5144 55.2031 48.2727 55.6304 47.9553 55.9966C47.6428 56.3579 47.2644 56.6411 46.82 56.8462C46.3806 57.0464 45.8825 57.1465 45.3259 57.1465C44.7692 57.1465 44.2687 57.0464 43.8244 56.8462C43.3801 56.6411 42.9992 56.3579 42.6818 55.9966C42.3693 55.6304 42.1301 55.2031 41.9641 54.7148C41.798 54.2266 41.715 53.6968 41.715 53.1255ZM43.07 52.957V53.1255C43.07 53.521 43.1164 53.8945 43.2092 54.2461C43.302 54.5928 43.4411 54.9004 43.6267 55.1689C43.8171 55.4375 44.0539 55.6499 44.3371 55.8062C44.6203 55.9575 44.9499 56.0332 45.3259 56.0332C45.697 56.0332 46.0217 55.9575 46.3 55.8062C46.5832 55.6499 46.8176 55.4375 47.0031 55.1689C47.1887 54.9004 47.3278 54.5928 47.4206 54.2461C47.5183 53.8945 47.5671 53.521 47.5671 53.1255V52.957C47.5671 52.5664 47.5183 52.1978 47.4206 51.8511C47.3278 51.4995 47.1862 51.1895 46.9958 50.9209C46.8103 50.6475 46.5759 50.4326 46.2927 50.2764C46.0144 50.1201 45.6872 50.042 45.3112 50.042C44.9401 50.042 44.613 50.1201 44.3298 50.2764C44.0515 50.4326 43.8171 50.6475 43.6267 50.9209C43.4411 51.1895 43.302 51.4995 43.2092 51.8511C43.1164 52.1978 43.07 52.5664 43.07 52.957ZM55.5772 55.1689V49.0752H56.9396V57H55.6432L55.5772 55.1689ZM55.8336 53.499L56.3976 53.4844C56.3976 54.0117 56.3414 54.5 56.2291 54.9492C56.1217 55.3936 55.9459 55.7793 55.7018 56.1064C55.4576 56.4336 55.1378 56.6899 54.7423 56.8755C54.3468 57.0562 53.8658 57.1465 53.2994 57.1465C52.9137 57.1465 52.5597 57.0903 52.2374 56.978C51.92 56.8657 51.6466 56.6924 51.4171 56.458C51.1876 56.2236 51.0094 55.9185 50.8824 55.5425C50.7604 55.1665 50.6993 54.7148 50.6993 54.1875V49.0752H52.0543V54.2021C52.0543 54.5586 52.0934 54.854 52.1715 55.0884C52.2545 55.3179 52.3644 55.501 52.5011 55.6377C52.6427 55.7695 52.7989 55.8623 52.9698 55.916C53.1456 55.9697 53.3263 55.9966 53.5118 55.9966C54.088 55.9966 54.5445 55.8867 54.8814 55.667C55.2184 55.4424 55.4601 55.1421 55.6065 54.7661C55.7579 54.3853 55.8336 53.9629 55.8336 53.499ZM60.46 50.7671V57H59.105V49.0752H60.3867L60.46 50.7671ZM60.1377 52.7373L59.5737 52.7153C59.5786 52.1733 59.6592 51.6729 59.8154 51.2139C59.9717 50.75 60.1914 50.3472 60.4746 50.0054C60.7578 49.6636 61.0947 49.3999 61.4854 49.2144C61.8809 49.0239 62.3179 48.9287 62.7964 48.9287C63.187 48.9287 63.5386 48.9824 63.8511 49.0898C64.1636 49.1924 64.4297 49.3584 64.6494 49.5879C64.874 49.8174 65.0449 50.1152 65.1621 50.4814C65.2793 50.8428 65.3379 51.2847 65.3379 51.8071V57H63.9756V51.7925C63.9756 51.3774 63.9146 51.0454 63.7925 50.7964C63.6704 50.5425 63.4922 50.3594 63.2578 50.2471C63.0234 50.1299 62.7354 50.0713 62.3936 50.0713C62.0566 50.0713 61.749 50.1421 61.4707 50.2837C61.1973 50.4253 60.9604 50.6206 60.7603 50.8696C60.5649 51.1187 60.4111 51.4043 60.2988 51.7266C60.1914 52.0439 60.1377 52.3809 60.1377 52.7373ZM70.6674 56.0332C70.9896 56.0332 71.2875 55.9673 71.5609 55.8354C71.8344 55.7036 72.059 55.5229 72.2348 55.2935C72.4105 55.0591 72.5106 54.793 72.5351 54.4951H73.8241C73.7997 54.9639 73.641 55.4009 73.348 55.8062C73.06 56.2065 72.6815 56.5312 72.2128 56.7803C71.744 57.0244 71.2289 57.1465 70.6674 57.1465C70.0717 57.1465 69.5517 57.0415 69.1073 56.8315C68.6679 56.6216 68.3017 56.3335 68.0087 55.9673C67.7206 55.6011 67.5033 55.1812 67.3568 54.7075C67.2152 54.229 67.1444 53.7236 67.1444 53.1914V52.8838C67.1444 52.3516 67.2152 51.8486 67.3568 51.375C67.5033 50.8965 67.7206 50.4741 68.0087 50.1079C68.3017 49.7417 68.6679 49.4536 69.1073 49.2437C69.5517 49.0337 70.0717 48.9287 70.6674 48.9287C71.2875 48.9287 71.8295 49.0557 72.2934 49.3096C72.7572 49.5586 73.121 49.9004 73.3847 50.335C73.6532 50.7646 73.7997 51.2529 73.8241 51.7998H72.5351C72.5106 51.4727 72.4179 51.1772 72.2567 50.9136C72.1005 50.6499 71.8856 50.4399 71.6122 50.2837C71.3437 50.1226 71.0287 50.042 70.6674 50.042C70.2523 50.042 69.9032 50.125 69.62 50.291C69.3417 50.4521 69.1195 50.6719 68.9535 50.9502C68.7924 51.2236 68.6752 51.5288 68.602 51.8657C68.5336 52.1978 68.4994 52.5371 68.4994 52.8838V53.1914C68.4994 53.5381 68.5336 53.8799 68.602 54.2168C68.6703 54.5537 68.7851 54.8589 68.9462 55.1323C69.1122 55.4058 69.3344 55.6255 69.6127 55.7915C69.8959 55.9526 70.2475 56.0332 70.6674 56.0332ZM78.7361 57.1465C78.1844 57.1465 77.6839 57.0537 77.2347 56.8682C76.7903 56.6777 76.407 56.4116 76.0848 56.0698C75.7674 55.728 75.5232 55.3228 75.3523 54.854C75.1814 54.3853 75.096 53.8726 75.096 53.3159V53.0083C75.096 52.3638 75.1912 51.79 75.3816 51.2871C75.5721 50.7793 75.8309 50.3496 76.158 49.998C76.4852 49.6465 76.8563 49.3804 77.2713 49.1997C77.6863 49.019 78.116 48.9287 78.5604 48.9287C79.1268 48.9287 79.615 49.0264 80.0252 49.2217C80.4402 49.417 80.7796 49.6904 81.0433 50.042C81.3069 50.3887 81.5022 50.7988 81.6292 51.2725C81.7562 51.7412 81.8196 52.2539 81.8196 52.8105V53.4185H75.9017V52.3125H80.4646V52.21C80.4451 51.8584 80.3719 51.5166 80.2449 51.1846C80.1229 50.8525 79.9275 50.5791 79.659 50.3643C79.3904 50.1494 79.0242 50.042 78.5604 50.042C78.2527 50.042 77.9695 50.1079 77.7107 50.2397C77.452 50.3667 77.2298 50.5571 77.0442 50.811C76.8587 51.0649 76.7146 51.375 76.6121 51.7412C76.5096 52.1074 76.4583 52.5298 76.4583 53.0083V53.3159C76.4583 53.6919 76.5096 54.0459 76.6121 54.3779C76.7195 54.7051 76.8733 54.9932 77.0735 55.2422C77.2786 55.4912 77.5252 55.6865 77.8133 55.8281C78.1063 55.9697 78.4383 56.0405 78.8094 56.0405C79.2879 56.0405 79.6932 55.9429 80.0252 55.7476C80.3572 55.5522 80.6478 55.291 80.8968 54.9639L81.7171 55.6157C81.5462 55.8745 81.3289 56.1211 81.0652 56.3555C80.8016 56.5898 80.4769 56.7803 80.0911 56.9268C79.7103 57.0732 79.2586 57.1465 78.7361 57.1465ZM84.8493 50.6499V57H83.487V49.0752H84.7761L84.8493 50.6499ZM84.571 52.7373L83.9411 52.7153C83.946 52.1733 84.0168 51.6729 84.1535 51.2139C84.2902 50.75 84.4929 50.3472 84.7614 50.0054C85.03 49.6636 85.3645 49.3999 85.7648 49.2144C86.1652 49.0239 86.6291 48.9287 87.1564 48.9287C87.5275 48.9287 87.8693 48.9824 88.1818 49.0898C88.4943 49.1924 88.7653 49.356 88.9948 49.5806C89.2243 49.8052 89.4025 50.0933 89.5295 50.4448C89.6564 50.7964 89.7199 51.2212 89.7199 51.7192V57H88.3649V51.7852C88.3649 51.3701 88.2941 51.0381 88.1525 50.7891C88.0158 50.54 87.8205 50.3594 87.5666 50.2471C87.3127 50.1299 87.0148 50.0713 86.673 50.0713C86.2727 50.0713 85.9382 50.1421 85.6696 50.2837C85.4011 50.4253 85.1862 50.6206 85.0251 50.8696C84.864 51.1187 84.7468 51.4043 84.6735 51.7266C84.6052 52.0439 84.571 52.3809 84.571 52.7373ZM89.7053 51.9902L88.7971 52.2686C88.802 51.834 88.8728 51.4165 89.0095 51.0161C89.1511 50.6157 89.3537 50.2593 89.6174 49.9468C89.8859 49.6343 90.2155 49.3877 90.6062 49.207C90.9968 49.0215 91.4436 48.9287 91.9465 48.9287C92.3713 48.9287 92.7473 48.9849 93.0744 49.0972C93.4064 49.2095 93.6848 49.3828 93.9094 49.6172C94.1389 49.8467 94.3122 50.1421 94.4294 50.5034C94.5466 50.8647 94.6052 51.2944 94.6052 51.7925V57H93.2429V51.7778C93.2429 51.3335 93.1721 50.9893 93.0305 50.7451C92.8938 50.4961 92.6984 50.3228 92.4445 50.2251C92.1955 50.1226 91.8977 50.0713 91.551 50.0713C91.2531 50.0713 90.9895 50.1226 90.76 50.2251C90.5305 50.3276 90.3376 50.4692 90.1814 50.6499C90.0251 50.8257 89.9055 51.0283 89.8225 51.2578C89.7443 51.4873 89.7053 51.7314 89.7053 51.9902ZM100.045 57.1465C99.4928 57.1465 98.9923 57.0537 98.5431 56.8682C98.0987 56.6777 97.7154 56.4116 97.3932 56.0698C97.0758 55.728 96.8316 55.3228 96.6607 54.854C96.4898 54.3853 96.4044 53.8726 96.4044 53.3159V53.0083C96.4044 52.3638 96.4996 51.79 96.69 51.2871C96.8805 50.7793 97.1393 50.3496 97.4664 49.998C97.7936 49.6465 98.1646 49.3804 98.5797 49.1997C98.9947 49.019 99.4244 48.9287 99.8688 48.9287C100.435 48.9287 100.923 49.0264 101.334 49.2217C101.749 49.417 102.088 49.6904 102.352 50.042C102.615 50.3887 102.811 50.7988 102.938 51.2725C103.065 51.7412 103.128 52.2539 103.128 52.8105V53.4185H97.2101V52.3125H101.773V52.21C101.754 51.8584 101.68 51.5166 101.553 51.1846C101.431 50.8525 101.236 50.5791 100.967 50.3643C100.699 50.1494 100.333 50.042 99.8688 50.042C99.5611 50.042 99.2779 50.1079 99.0191 50.2397C98.7604 50.3667 98.5382 50.5571 98.3526 50.811C98.1671 51.0649 98.023 51.375 97.9205 51.7412C97.818 52.1074 97.7667 52.5298 97.7667 53.0083V53.3159C97.7667 53.6919 97.818 54.0459 97.9205 54.3779C98.0279 54.7051 98.1817 54.9932 98.3819 55.2422C98.587 55.4912 98.8336 55.6865 99.1217 55.8281C99.4146 55.9697 99.7467 56.0405 100.118 56.0405C100.596 56.0405 101.002 55.9429 101.334 55.7476C101.666 55.5522 101.956 55.291 102.205 54.9639L103.025 55.6157C102.855 55.8745 102.637 56.1211 102.374 56.3555C102.11 56.5898 101.785 56.7803 101.4 56.9268C101.019 57.0732 100.567 57.1465 100.045 57.1465ZM106.165 50.7671V57H104.81V49.0752H106.092L106.165 50.7671ZM105.843 52.7373L105.279 52.7153C105.284 52.1733 105.364 51.6729 105.521 51.2139C105.677 50.75 105.896 50.3472 106.18 50.0054C106.463 49.6636 106.8 49.3999 107.19 49.2144C107.586 49.0239 108.023 48.9287 108.501 48.9287C108.892 48.9287 109.244 48.9824 109.556 49.0898C109.869 49.1924 110.135 49.3584 110.354 49.5879C110.579 49.8174 110.75 50.1152 110.867 50.4814C110.984 50.8428 111.043 51.2847 111.043 51.8071V57H109.681V51.7925C109.681 51.3774 109.62 51.0454 109.498 50.7964C109.375 50.5425 109.197 50.3594 108.963 50.2471C108.729 50.1299 108.44 50.0713 108.099 50.0713C107.762 50.0713 107.454 50.1421 107.176 50.2837C106.902 50.4253 106.666 50.6206 106.465 50.8696C106.27 51.1187 106.116 51.4043 106.004 51.7266C105.896 52.0439 105.843 52.3809 105.843 52.7373ZM116.519 49.0752V50.1152H112.234V49.0752H116.519ZM113.684 47.1489H115.039V55.0371C115.039 55.3057 115.081 55.5083 115.164 55.645C115.247 55.7817 115.354 55.8721 115.486 55.916C115.618 55.96 115.76 55.9819 115.911 55.9819C116.023 55.9819 116.141 55.9722 116.263 55.9526C116.39 55.9282 116.485 55.9087 116.548 55.894L116.556 57C116.448 57.0342 116.307 57.0659 116.131 57.0952C115.96 57.1294 115.752 57.1465 115.508 57.1465C115.176 57.1465 114.871 57.0806 114.593 56.9487C114.314 56.8169 114.092 56.5972 113.926 56.2896C113.765 55.9771 113.684 55.5571 113.684 55.0298V47.1489ZM121.67 53.1255V52.957C121.67 52.3857 121.753 51.856 121.919 51.3677C122.085 50.8745 122.324 50.4473 122.637 50.0859C122.949 49.7197 123.328 49.4365 123.772 49.2363C124.217 49.0312 124.715 48.9287 125.266 48.9287C125.823 48.9287 126.323 49.0312 126.768 49.2363C127.217 49.4365 127.598 49.7197 127.91 50.0859C128.228 50.4473 128.469 50.8745 128.635 51.3677C128.801 51.856 128.884 52.3857 128.884 52.957V53.1255C128.884 53.6968 128.801 54.2266 128.635 54.7148C128.469 55.2031 128.228 55.6304 127.91 55.9966C127.598 56.3579 127.219 56.6411 126.775 56.8462C126.336 57.0464 125.838 57.1465 125.281 57.1465C124.724 57.1465 124.224 57.0464 123.779 56.8462C123.335 56.6411 122.954 56.3579 122.637 55.9966C122.324 55.6304 122.085 55.2031 121.919 54.7148C121.753 54.2266 121.67 53.6968 121.67 53.1255ZM123.025 52.957V53.1255C123.025 53.521 123.071 53.8945 123.164 54.2461C123.257 54.5928 123.396 54.9004 123.582 55.1689C123.772 55.4375 124.009 55.6499 124.292 55.8062C124.575 55.9575 124.905 56.0332 125.281 56.0332C125.652 56.0332 125.977 55.9575 126.255 55.8062C126.538 55.6499 126.773 55.4375 126.958 55.1689C127.144 54.9004 127.283 54.5928 127.376 54.2461C127.473 53.8945 127.522 53.521 127.522 53.1255V52.957C127.522 52.5664 127.473 52.1978 127.376 51.8511C127.283 51.4995 127.141 51.1895 126.951 50.9209C126.765 50.6475 126.531 50.4326 126.248 50.2764C125.969 50.1201 125.642 50.042 125.266 50.042C124.895 50.042 124.568 50.1201 124.285 50.2764C124.007 50.4326 123.772 50.6475 123.582 50.9209C123.396 51.1895 123.257 51.4995 123.164 51.8511C123.071 52.1978 123.025 52.5664 123.025 52.957ZM132.039 50.7671V57H130.684V49.0752H131.965L132.039 50.7671ZM131.716 52.7373L131.152 52.7153C131.157 52.1733 131.238 51.6729 131.394 51.2139C131.55 50.75 131.77 50.3472 132.053 50.0054C132.337 49.6636 132.673 49.3999 133.064 49.2144C133.46 49.0239 133.897 48.9287 134.375 48.9287C134.766 48.9287 135.117 48.9824 135.43 49.0898C135.742 49.1924 136.008 49.3584 136.228 49.5879C136.453 49.8174 136.624 50.1152 136.741 50.4814C136.858 50.8428 136.917 51.2847 136.917 51.8071V57H135.554V51.7925C135.554 51.3774 135.493 51.0454 135.371 50.7964C135.249 50.5425 135.071 50.3594 134.837 50.2471C134.602 50.1299 134.314 50.0713 133.972 50.0713C133.635 50.0713 133.328 50.1421 133.049 50.2837C132.776 50.4253 132.539 50.6206 132.339 50.8696C132.144 51.1187 131.99 51.4043 131.878 51.7266C131.77 52.0439 131.716 52.3809 131.716 52.7373ZM140.547 45.75V57H139.185V45.75H140.547ZM145.049 56.1797L147.253 49.0752H148.704L145.525 58.2231C145.452 58.4185 145.354 58.6284 145.232 58.853C145.115 59.0825 144.963 59.2998 144.778 59.5049C144.592 59.71 144.368 59.876 144.104 60.0029C143.845 60.1348 143.535 60.2007 143.174 60.2007C143.066 60.2007 142.93 60.186 142.764 60.1567C142.598 60.1274 142.48 60.103 142.412 60.0835L142.405 58.9849C142.444 58.9897 142.505 58.9946 142.588 58.9995C142.676 59.0093 142.737 59.0142 142.771 59.0142C143.079 59.0142 143.34 58.9727 143.555 58.8896C143.769 58.8115 143.95 58.6772 144.097 58.4868C144.248 58.3013 144.377 58.0449 144.485 57.7178L145.049 56.1797ZM143.43 49.0752L145.488 55.2275L145.84 56.6558L144.866 57.1538L141.951 49.0752H143.43ZM149.258 56.2822C149.258 56.0527 149.328 55.8599 149.47 55.7036C149.617 55.5425 149.826 55.4619 150.1 55.4619C150.373 55.4619 150.581 55.5425 150.722 55.7036C150.869 55.8599 150.942 56.0527 150.942 56.2822C150.942 56.5068 150.869 56.6973 150.722 56.8535C150.581 57.0098 150.373 57.0879 150.1 57.0879C149.826 57.0879 149.617 57.0098 149.47 56.8535C149.328 56.6973 149.258 56.5068 149.258 56.2822Z" fill="white"/>
<rect x="16" y="72" width="78" height="32" rx="4" fill="white"/>
<path d="M36.4497 88.5532H34.0439V87.29H36.4497C36.8687 87.29 37.2072 87.2223 37.4653 87.0869C37.7235 86.9515 37.9118 86.7653 38.0303 86.5283C38.153 86.2871 38.2144 86.012 38.2144 85.7031C38.2144 85.4111 38.153 85.1382 38.0303 84.8843C37.9118 84.6261 37.7235 84.4188 37.4653 84.2622C37.2072 84.1056 36.8687 84.0273 36.4497 84.0273H34.5327V92H32.9395V82.7578H36.4497C37.1649 82.7578 37.7721 82.8848 38.2715 83.1387C38.7751 83.3883 39.158 83.7354 39.4204 84.1797C39.6828 84.6198 39.814 85.1234 39.814 85.6904C39.814 86.2871 39.6828 86.7992 39.4204 87.2266C39.158 87.654 38.7751 87.9819 38.2715 88.2104C37.7721 88.439 37.1649 88.5532 36.4497 88.5532ZM42.626 86.4395V92H41.0962V85.1318H42.5562L42.626 86.4395ZM44.7271 85.0874L44.7144 86.5093C44.6213 86.4924 44.5197 86.4797 44.4097 86.4712C44.3039 86.4627 44.1981 86.4585 44.0923 86.4585C43.8299 86.4585 43.5993 86.4966 43.4004 86.5728C43.2015 86.6447 43.0343 86.7505 42.8989 86.8901C42.7677 87.0256 42.6662 87.1906 42.5942 87.3853C42.5223 87.5799 42.48 87.7979 42.4673 88.0391L42.1182 88.0645C42.1182 87.6328 42.1605 87.2329 42.2451 86.8647C42.3298 86.4966 42.4567 86.1729 42.626 85.8936C42.7995 85.6143 43.0153 85.3963 43.2734 85.2397C43.5358 85.0832 43.8384 85.0049 44.1812 85.0049C44.2743 85.0049 44.3737 85.0133 44.4795 85.0303C44.5895 85.0472 44.672 85.0662 44.7271 85.0874ZM47.3232 85.1318V92H45.7871V85.1318H47.3232ZM45.6855 83.3291C45.6855 83.0964 45.7617 82.9038 45.9141 82.7515C46.0706 82.5949 46.2865 82.5166 46.5615 82.5166C46.8324 82.5166 47.0461 82.5949 47.2026 82.7515C47.3592 82.9038 47.4375 83.0964 47.4375 83.3291C47.4375 83.5576 47.3592 83.748 47.2026 83.9004C47.0461 84.0527 46.8324 84.1289 46.5615 84.1289C46.2865 84.1289 46.0706 84.0527 45.9141 83.9004C45.7617 83.748 45.6855 83.5576 45.6855 83.3291ZM50.5288 86.5283V92H48.999V85.1318H50.4399L50.5288 86.5283ZM50.2812 88.312L49.7607 88.3057C49.7607 87.8317 49.82 87.3937 49.9385 86.9917C50.057 86.5897 50.2305 86.2406 50.459 85.9443C50.6875 85.6439 50.971 85.4132 51.3096 85.2524C51.6523 85.0874 52.048 85.0049 52.4966 85.0049C52.8097 85.0049 53.0954 85.0514 53.3535 85.1445C53.6159 85.2334 53.8423 85.3752 54.0327 85.5698C54.2274 85.7645 54.3755 86.0142 54.4771 86.3188C54.5828 86.6235 54.6357 86.9917 54.6357 87.4233V92H53.106V87.5566C53.106 87.2223 53.0552 86.96 52.9536 86.7695C52.8563 86.5791 52.7145 86.4437 52.5283 86.3633C52.3464 86.2786 52.1284 86.2363 51.8745 86.2363C51.5868 86.2363 51.3413 86.2913 51.1382 86.4014C50.9393 86.5114 50.7764 86.6616 50.6494 86.8521C50.5225 87.0425 50.4294 87.2625 50.3701 87.5122C50.3109 87.7619 50.2812 88.0285 50.2812 88.312ZM54.5405 87.9058L53.8232 88.0645C53.8232 87.6497 53.8804 87.2583 53.9946 86.8901C54.1131 86.5177 54.2845 86.1919 54.5088 85.9126C54.7373 85.6291 55.0187 85.4069 55.353 85.2461C55.6873 85.0853 56.0703 85.0049 56.502 85.0049C56.8532 85.0049 57.1663 85.0535 57.4414 85.1509C57.7207 85.244 57.9577 85.3921 58.1523 85.5952C58.347 85.7983 58.4951 86.0628 58.5967 86.3887C58.6982 86.7103 58.749 87.0996 58.749 87.5566V92H57.2129V87.5503C57.2129 87.2033 57.1621 86.9346 57.0605 86.7441C56.9632 86.5537 56.8236 86.4225 56.6416 86.3506C56.4596 86.2744 56.2417 86.2363 55.9878 86.2363C55.7508 86.2363 55.5413 86.2808 55.3594 86.3696C55.1816 86.4543 55.0314 86.5749 54.9087 86.7314C54.786 86.8838 54.6929 87.0594 54.6294 87.2583C54.5701 87.4572 54.5405 87.673 54.5405 87.9058ZM64.1953 90.6226V87.3472C64.1953 87.1017 64.1509 86.8901 64.062 86.7124C63.9731 86.5347 63.8377 86.3971 63.6558 86.2998C63.478 86.2025 63.2537 86.1538 62.9829 86.1538C62.7332 86.1538 62.5174 86.1961 62.3354 86.2808C62.1535 86.3654 62.0117 86.4797 61.9102 86.6235C61.8086 86.7674 61.7578 86.9303 61.7578 87.1123H60.2344C60.2344 86.8415 60.3 86.5791 60.4312 86.3252C60.5623 86.0713 60.7528 85.8449 61.0024 85.646C61.2521 85.4471 61.5505 85.2905 61.8975 85.1763C62.2445 85.062 62.6338 85.0049 63.0654 85.0049C63.5817 85.0049 64.0387 85.0916 64.4365 85.2651C64.8385 85.4386 65.1538 85.701 65.3823 86.0522C65.6151 86.3993 65.7314 86.8351 65.7314 87.3599V90.4131C65.7314 90.7262 65.7526 91.0076 65.7949 91.2573C65.8415 91.5028 65.9071 91.7165 65.9917 91.8984V92H64.4238C64.3519 91.835 64.2948 91.6255 64.2524 91.3716C64.2144 91.1134 64.1953 90.8638 64.1953 90.6226ZM64.4175 87.8232L64.4302 88.769H63.332C63.0485 88.769 62.7988 88.7965 62.583 88.8516C62.3672 88.9023 62.1873 88.9785 62.0435 89.0801C61.8996 89.1816 61.7917 89.3044 61.7197 89.4482C61.6478 89.5921 61.6118 89.755 61.6118 89.937C61.6118 90.119 61.6541 90.2861 61.7388 90.4385C61.8234 90.5866 61.9461 90.703 62.1069 90.7876C62.272 90.8722 62.4709 90.9146 62.7036 90.9146C63.0168 90.9146 63.2897 90.8511 63.5225 90.7241C63.7594 90.5929 63.9456 90.4342 64.0811 90.248C64.2165 90.0576 64.2884 89.8778 64.2969 89.7085L64.792 90.3877C64.7412 90.5612 64.6545 90.7474 64.5317 90.9463C64.409 91.1452 64.2482 91.3356 64.0493 91.5176C63.8547 91.6953 63.6198 91.8413 63.3447 91.9556C63.0739 92.0698 62.7607 92.127 62.4053 92.127C61.9567 92.127 61.5568 92.0381 61.2056 91.8604C60.8543 91.6784 60.5793 91.4351 60.3804 91.1304C60.1815 90.8215 60.082 90.4723 60.082 90.083C60.082 89.7191 60.1497 89.3975 60.2852 89.1182C60.4248 88.8346 60.6279 88.5977 60.8945 88.4072C61.1654 88.2168 61.4954 88.0729 61.8848 87.9756C62.2741 87.874 62.7184 87.8232 63.2178 87.8232H64.4175ZM68.8672 86.4395V92H67.3374V85.1318H68.7974L68.8672 86.4395ZM70.9683 85.0874L70.9556 86.5093C70.8625 86.4924 70.7609 86.4797 70.6509 86.4712C70.5451 86.4627 70.4393 86.4585 70.3335 86.4585C70.0711 86.4585 69.8405 86.4966 69.6416 86.5728C69.4427 86.6447 69.2756 86.7505 69.1401 86.8901C69.009 87.0256 68.9074 87.1906 68.8354 87.3853C68.7635 87.5799 68.7212 87.7979 68.7085 88.0391L68.3594 88.0645C68.3594 87.6328 68.4017 87.2329 68.4863 86.8647C68.571 86.4966 68.6979 86.1729 68.8672 85.8936C69.0407 85.6143 69.2565 85.3963 69.5146 85.2397C69.777 85.0832 70.0796 85.0049 70.4224 85.0049C70.5155 85.0049 70.6149 85.0133 70.7207 85.0303C70.8307 85.0472 70.9132 85.0662 70.9683 85.0874ZM74.0342 91.251L75.9004 85.1318H77.5381L74.7832 93.0474C74.7197 93.2166 74.6372 93.4007 74.5356 93.5996C74.4341 93.7985 74.3008 93.9868 74.1357 94.1646C73.9749 94.3465 73.7739 94.4925 73.5327 94.6025C73.2915 94.7168 72.9995 94.7739 72.6567 94.7739C72.5213 94.7739 72.3901 94.7612 72.2632 94.7358C72.1405 94.7147 72.0241 94.6914 71.9141 94.666L71.9077 93.498C71.95 93.5023 72.0008 93.5065 72.0601 93.5107C72.1235 93.515 72.1743 93.5171 72.2124 93.5171C72.4663 93.5171 72.6779 93.4854 72.8472 93.4219C73.0164 93.3626 73.154 93.2653 73.2598 93.1299C73.3698 92.9945 73.4629 92.8125 73.5391 92.584L74.0342 91.251ZM72.9805 85.1318L74.6118 90.2734L74.8848 91.8857L73.8247 92.1587L71.3301 85.1318H72.9805Z" fill="#1A1A1A"/>
<path d="M123.802 89.6196C123.802 89.4292 123.772 89.2599 123.713 89.1118C123.658 88.9637 123.558 88.8283 123.415 88.7056C123.271 88.5828 123.068 88.4644 122.805 88.3501C122.547 88.2316 122.217 88.111 121.815 87.9883C121.375 87.8529 120.969 87.7026 120.596 87.5376C120.228 87.3683 119.906 87.1737 119.631 86.9536C119.356 86.7293 119.143 86.4733 118.99 86.1855C118.838 85.8936 118.762 85.5571 118.762 85.1763C118.762 84.7996 118.84 84.4569 118.997 84.1479C119.157 83.839 119.384 83.5724 119.676 83.3481C119.972 83.1196 120.321 82.944 120.723 82.8213C121.125 82.6943 121.569 82.6309 122.056 82.6309C122.742 82.6309 123.332 82.7578 123.827 83.0117C124.326 83.2656 124.709 83.6063 124.976 84.0337C125.247 84.4611 125.382 84.9329 125.382 85.4492H123.802C123.802 85.1445 123.736 84.8758 123.605 84.6431C123.478 84.4061 123.283 84.2199 123.021 84.0845C122.763 83.9491 122.435 83.8813 122.037 83.8813C121.66 83.8813 121.347 83.9385 121.098 84.0527C120.848 84.167 120.662 84.3215 120.539 84.5161C120.416 84.7108 120.355 84.9308 120.355 85.1763C120.355 85.3498 120.395 85.5085 120.476 85.6523C120.556 85.792 120.679 85.9232 120.844 86.0459C121.009 86.1644 121.216 86.2765 121.466 86.3823C121.715 86.4881 122.01 86.5897 122.348 86.687C122.86 86.8394 123.307 87.0086 123.688 87.1948C124.068 87.3768 124.386 87.5841 124.64 87.8169C124.894 88.0496 125.084 88.3141 125.211 88.6104C125.338 88.9023 125.401 89.2345 125.401 89.6069C125.401 89.9963 125.323 90.3475 125.167 90.6606C125.01 90.9696 124.786 91.234 124.494 91.4541C124.206 91.6699 123.859 91.8371 123.453 91.9556C123.051 92.0698 122.602 92.127 122.107 92.127C121.663 92.127 121.225 92.0677 120.793 91.9492C120.366 91.8307 119.976 91.6509 119.625 91.4097C119.274 91.1642 118.994 90.8595 118.787 90.4956C118.58 90.1274 118.476 89.6979 118.476 89.207H120.069C120.069 89.5075 120.12 89.7635 120.222 89.9751C120.327 90.1867 120.473 90.3602 120.66 90.4956C120.846 90.6268 121.062 90.7241 121.307 90.7876C121.557 90.8511 121.823 90.8828 122.107 90.8828C122.479 90.8828 122.79 90.8299 123.04 90.7241C123.294 90.6183 123.484 90.4702 123.611 90.2798C123.738 90.0894 123.802 89.8693 123.802 89.6196ZM129.686 92.127C129.178 92.127 128.719 92.0444 128.309 91.8794C127.902 91.7101 127.555 91.4753 127.268 91.1748C126.984 90.8743 126.766 90.521 126.614 90.1147C126.461 89.7085 126.385 89.2705 126.385 88.8008V88.5469C126.385 88.0094 126.464 87.5228 126.62 87.0869C126.777 86.651 126.995 86.2786 127.274 85.9697C127.553 85.6566 127.883 85.4175 128.264 85.2524C128.645 85.0874 129.058 85.0049 129.502 85.0049C129.993 85.0049 130.422 85.0874 130.791 85.2524C131.159 85.4175 131.463 85.6502 131.705 85.9507C131.95 86.2469 132.132 86.6003 132.25 87.0107C132.373 87.4212 132.435 87.874 132.435 88.3691V89.0229H127.128V87.9248H130.924V87.8042C130.915 87.5291 130.86 87.271 130.759 87.0298C130.661 86.7886 130.511 86.5939 130.308 86.4458C130.105 86.2977 129.834 86.2236 129.496 86.2236C129.242 86.2236 129.015 86.2786 128.816 86.3887C128.622 86.4945 128.459 86.6489 128.328 86.8521C128.196 87.0552 128.095 87.3006 128.023 87.5884C127.955 87.8719 127.921 88.1914 127.921 88.5469V88.8008C127.921 89.1012 127.962 89.3805 128.042 89.6387C128.127 89.8926 128.249 90.1147 128.41 90.3052C128.571 90.4956 128.766 90.6458 128.994 90.7559C129.223 90.8617 129.483 90.9146 129.775 90.9146C130.143 90.9146 130.471 90.8405 130.759 90.6924C131.047 90.5443 131.296 90.3348 131.508 90.064L132.314 90.8447C132.166 91.0605 131.973 91.2679 131.736 91.4668C131.499 91.6615 131.209 91.8201 130.867 91.9429C130.528 92.0656 130.135 92.127 129.686 92.127ZM136.434 90.9082C136.683 90.9082 136.908 90.8595 137.106 90.7622C137.31 90.6606 137.472 90.521 137.595 90.3433C137.722 90.1655 137.792 89.9603 137.805 89.7275H139.246C139.237 90.1719 139.106 90.576 138.852 90.9399C138.598 91.3039 138.262 91.5938 137.843 91.8096C137.424 92.0212 136.96 92.127 136.453 92.127C135.928 92.127 135.471 92.0381 135.082 91.8604C134.692 91.6784 134.368 91.4287 134.11 91.1113C133.852 90.7939 133.658 90.4279 133.526 90.0132C133.399 89.5985 133.336 89.1541 133.336 88.6802V88.458C133.336 87.984 133.399 87.5397 133.526 87.125C133.658 86.7061 133.852 86.3379 134.11 86.0205C134.368 85.7031 134.692 85.4556 135.082 85.2778C135.471 85.0959 135.926 85.0049 136.446 85.0049C136.996 85.0049 137.479 85.1149 137.894 85.335C138.308 85.5508 138.634 85.8534 138.871 86.2427C139.112 86.6278 139.237 87.0763 139.246 87.5884H137.805C137.792 87.3345 137.729 87.106 137.614 86.9028C137.504 86.6955 137.348 86.5304 137.145 86.4077C136.946 86.285 136.707 86.2236 136.427 86.2236C136.118 86.2236 135.862 86.2871 135.659 86.4141C135.456 86.5368 135.297 86.7061 135.183 86.9219C135.069 87.1335 134.986 87.3726 134.936 87.6392C134.889 87.9015 134.866 88.1745 134.866 88.458V88.6802C134.866 88.9637 134.889 89.2388 134.936 89.5054C134.982 89.772 135.062 90.0111 135.177 90.2227C135.295 90.43 135.456 90.5972 135.659 90.7241C135.862 90.8468 136.12 90.9082 136.434 90.9082ZM140.128 88.6421V88.4961C140.128 88.001 140.2 87.5418 140.344 87.1187C140.488 86.6912 140.695 86.321 140.966 86.0078C141.241 85.6904 141.575 85.445 141.969 85.2715C142.367 85.0938 142.815 85.0049 143.314 85.0049C143.818 85.0049 144.267 85.0938 144.66 85.2715C145.058 85.445 145.394 85.6904 145.669 86.0078C145.944 86.321 146.154 86.6912 146.298 87.1187C146.442 87.5418 146.514 88.001 146.514 88.4961V88.6421C146.514 89.1372 146.442 89.5964 146.298 90.0195C146.154 90.4427 145.944 90.813 145.669 91.1304C145.394 91.4435 145.06 91.689 144.667 91.8667C144.273 92.0402 143.826 92.127 143.327 92.127C142.824 92.127 142.373 92.0402 141.975 91.8667C141.582 91.689 141.247 91.4435 140.972 91.1304C140.697 90.813 140.488 90.4427 140.344 90.0195C140.2 89.5964 140.128 89.1372 140.128 88.6421ZM141.658 88.4961V88.6421C141.658 88.951 141.689 89.243 141.753 89.5181C141.816 89.7931 141.916 90.0343 142.051 90.2417C142.187 90.4491 142.36 90.612 142.572 90.7305C142.783 90.849 143.035 90.9082 143.327 90.9082C143.611 90.9082 143.856 90.849 144.063 90.7305C144.275 90.612 144.449 90.4491 144.584 90.2417C144.719 90.0343 144.819 89.7931 144.882 89.5181C144.95 89.243 144.984 88.951 144.984 88.6421V88.4961C144.984 88.1914 144.95 87.9036 144.882 87.6328C144.819 87.3577 144.717 87.1144 144.578 86.9028C144.442 86.6912 144.269 86.5262 144.057 86.4077C143.85 86.285 143.602 86.2236 143.314 86.2236C143.027 86.2236 142.777 86.285 142.565 86.4077C142.358 86.5262 142.187 86.6912 142.051 86.9028C141.916 87.1144 141.816 87.3577 141.753 87.6328C141.689 87.9036 141.658 88.1914 141.658 88.4961ZM149.313 86.5981V92H147.783V85.1318H149.224L149.313 86.5981ZM149.04 88.312L148.545 88.3057C148.549 87.819 148.617 87.3726 148.748 86.9663C148.883 86.5601 149.07 86.2109 149.307 85.9189C149.548 85.627 149.836 85.4027 150.17 85.2461C150.504 85.0853 150.877 85.0049 151.287 85.0049C151.617 85.0049 151.916 85.0514 152.182 85.1445C152.453 85.2334 152.684 85.3794 152.874 85.5825C153.069 85.7856 153.217 86.0501 153.318 86.376C153.42 86.6976 153.471 87.0933 153.471 87.563V92H151.935V87.5566C151.935 87.2266 151.886 86.9663 151.789 86.7759C151.695 86.5812 151.558 86.4437 151.376 86.3633C151.198 86.2786 150.976 86.2363 150.709 86.2363C150.447 86.2363 150.212 86.2913 150.005 86.4014C149.798 86.5114 149.622 86.6616 149.478 86.8521C149.338 87.0425 149.23 87.2625 149.154 87.5122C149.078 87.7619 149.04 88.0285 149.04 88.312ZM159.222 90.5781V82.25H160.758V92H159.368L159.222 90.5781ZM154.753 88.6421V88.5088C154.753 87.9883 154.814 87.5143 154.937 87.0869C155.06 86.6553 155.237 86.285 155.47 85.9761C155.703 85.6629 155.986 85.4238 156.321 85.2588C156.655 85.0895 157.032 85.0049 157.451 85.0049C157.865 85.0049 158.229 85.0853 158.542 85.2461C158.856 85.4069 159.122 85.6375 159.342 85.938C159.562 86.2342 159.738 86.5897 159.869 87.0044C160 87.4149 160.093 87.8719 160.148 88.3755V88.8008C160.093 89.2917 160 89.7402 159.869 90.1465C159.738 90.5527 159.562 90.904 159.342 91.2002C159.122 91.4964 158.854 91.7249 158.536 91.8857C158.223 92.0465 157.857 92.127 157.438 92.127C157.023 92.127 156.649 92.0402 156.314 91.8667C155.984 91.6932 155.703 91.4499 155.47 91.1367C155.237 90.8236 155.06 90.4554 154.937 90.0322C154.814 89.6048 154.753 89.1414 154.753 88.6421ZM156.283 88.5088V88.6421C156.283 88.9552 156.31 89.2472 156.365 89.5181C156.424 89.7889 156.515 90.028 156.638 90.2354C156.761 90.4385 156.92 90.5993 157.114 90.7178C157.313 90.832 157.55 90.8892 157.825 90.8892C158.172 90.8892 158.458 90.813 158.682 90.6606C158.906 90.5083 159.082 90.3031 159.209 90.0449C159.34 89.7826 159.429 89.4906 159.476 89.1689V88.02C159.45 87.7703 159.397 87.5376 159.317 87.3218C159.241 87.106 159.137 86.9176 159.006 86.7568C158.875 86.5918 158.712 86.4648 158.517 86.376C158.327 86.2829 158.1 86.2363 157.838 86.2363C157.559 86.2363 157.322 86.2956 157.127 86.4141C156.932 86.5326 156.771 86.6955 156.645 86.9028C156.522 87.1102 156.431 87.3514 156.372 87.6265C156.312 87.9015 156.283 88.1956 156.283 88.5088ZM166.229 90.6226V87.3472C166.229 87.1017 166.185 86.8901 166.096 86.7124C166.007 86.5347 165.872 86.3971 165.69 86.2998C165.512 86.2025 165.288 86.1538 165.017 86.1538C164.767 86.1538 164.552 86.1961 164.37 86.2808C164.188 86.3654 164.046 86.4797 163.944 86.6235C163.843 86.7674 163.792 86.9303 163.792 87.1123H162.269C162.269 86.8415 162.334 86.5791 162.465 86.3252C162.597 86.0713 162.787 85.8449 163.037 85.646C163.286 85.4471 163.585 85.2905 163.932 85.1763C164.279 85.062 164.668 85.0049 165.1 85.0049C165.616 85.0049 166.073 85.0916 166.471 85.2651C166.873 85.4386 167.188 85.701 167.417 86.0522C167.649 86.3993 167.766 86.8351 167.766 87.3599V90.4131C167.766 90.7262 167.787 91.0076 167.829 91.2573C167.876 91.5028 167.941 91.7165 168.026 91.8984V92H166.458C166.386 91.835 166.329 91.6255 166.287 91.3716C166.249 91.1134 166.229 90.8638 166.229 90.6226ZM166.452 87.8232L166.464 88.769H165.366C165.083 88.769 164.833 88.7965 164.617 88.8516C164.401 88.9023 164.222 88.9785 164.078 89.0801C163.934 89.1816 163.826 89.3044 163.754 89.4482C163.682 89.5921 163.646 89.755 163.646 89.937C163.646 90.119 163.688 90.2861 163.773 90.4385C163.858 90.5866 163.98 90.703 164.141 90.7876C164.306 90.8722 164.505 90.9146 164.738 90.9146C165.051 90.9146 165.324 90.8511 165.557 90.7241C165.794 90.5929 165.98 90.4342 166.115 90.248C166.251 90.0576 166.323 89.8778 166.331 89.7085L166.826 90.3877C166.775 90.5612 166.689 90.7474 166.566 90.9463C166.443 91.1452 166.282 91.3356 166.083 91.5176C165.889 91.6953 165.654 91.8413 165.379 91.9556C165.108 92.0698 164.795 92.127 164.439 92.127C163.991 92.127 163.591 92.0381 163.24 91.8604C162.889 91.6784 162.613 91.4351 162.415 91.1304C162.216 90.8215 162.116 90.4723 162.116 90.083C162.116 89.7191 162.184 89.3975 162.319 89.1182C162.459 88.8346 162.662 88.5977 162.929 88.4072C163.2 88.2168 163.53 88.0729 163.919 87.9756C164.308 87.874 164.753 87.8232 165.252 87.8232H166.452ZM170.901 86.4395V92H169.372V85.1318H170.832L170.901 86.4395ZM173.002 85.0874L172.99 86.5093C172.897 86.4924 172.795 86.4797 172.685 86.4712C172.579 86.4627 172.473 86.4585 172.368 86.4585C172.105 86.4585 171.875 86.4966 171.676 86.5728C171.477 86.6447 171.31 86.7505 171.174 86.8901C171.043 87.0256 170.942 87.1906 170.87 87.3853C170.798 87.5799 170.755 87.7979 170.743 88.0391L170.394 88.0645C170.394 87.6328 170.436 87.2329 170.521 86.8647C170.605 86.4966 170.732 86.1729 170.901 85.8936C171.075 85.6143 171.291 85.3963 171.549 85.2397C171.811 85.0832 172.114 85.0049 172.457 85.0049C172.55 85.0049 172.649 85.0133 172.755 85.0303C172.865 85.0472 172.947 85.0662 173.002 85.0874ZM176.068 91.251L177.935 85.1318H179.572L176.817 93.0474C176.754 93.2166 176.671 93.4007 176.57 93.5996C176.468 93.7985 176.335 93.9868 176.17 94.1646C176.009 94.3465 175.808 94.4925 175.567 94.6025C175.326 94.7168 175.034 94.7739 174.691 94.7739C174.556 94.7739 174.424 94.7612 174.297 94.7358C174.175 94.7147 174.058 94.6914 173.948 94.666L173.942 93.498C173.984 93.5023 174.035 93.5065 174.094 93.5107C174.158 93.515 174.208 93.5171 174.247 93.5171C174.5 93.5171 174.712 93.4854 174.881 93.4219C175.051 93.3626 175.188 93.2653 175.294 93.1299C175.404 92.9945 175.497 92.8125 175.573 92.584L176.068 91.251ZM175.015 85.1318L176.646 90.2734L176.919 91.8857L175.859 92.1587L173.364 85.1318H175.015Z" fill="white"/>
<path d="M353.705 36.4677C354.056 36.8182 354.056 37.3867 353.705 37.7372C353.354 38.0876 352.783 38.0876 352.432 37.7372L348.001 33.2848L343.538 37.7357C343.186 38.0861 342.616 38.0861 342.265 37.7357C341.913 37.3852 341.913 36.8167 342.265 36.4662L346.729 32.0168L342.264 27.5323C341.912 27.1818 341.912 26.6133 342.264 26.2628C342.615 25.9124 343.185 25.9124 343.536 26.2628L348.001 30.7489L352.464 26.298C352.815 25.9476 353.385 25.9476 353.736 26.298C354.088 26.6484 354.088 27.217 353.736 27.5674L349.272 32.0168L353.705 36.4677Z" fill="white"/>
</svg>
