<svg width="380" height="120" viewBox="0 0 380 120" fill="none" xmlns="http://www.w3.org/2000/svg">
<rect width="380" height="120" fill="#E8F8ED"/>
<path d="M18 32C18 26.4766 22.4766 22 28 22C33.5234 22 38 26.4766 38 32C38 37.5234 33.5234 42 28 42C22.4766 42 18 37.5234 18 32ZM32.5234 30.2734C32.9492 29.8477 32.9492 29.1523 32.5234 28.7266C32.0977 28.3008 31.4023 28.3008 30.9766 28.7266L26.75 32.9531L25.0234 31.2266C24.5977 30.8008 23.9023 30.8008 23.4766 31.2266C23.0508 31.6523 23.0508 32.3477 23.4766 32.7734L25.9766 35.2734C26.4023 35.6992 27.0977 35.6992 27.5234 35.2734L32.5234 30.2734Z" fill="#18BB4B"/>
<path d="M56.0933 26.7378V28.3198H50.4829V26.7378H56.0933ZM51.0322 22.3359V33H49.0181V22.3359H51.0322ZM57.5874 22.3359V33H55.5732V22.3359H57.5874ZM63.1513 33.1465C62.5507 33.1465 62.0111 33.0488 61.5326 32.8535C61.0541 32.6582 60.6464 32.3872 60.3095 32.0405C59.9774 31.689 59.7211 31.2812 59.5404 30.8174C59.3646 30.3486 59.2768 29.8457 59.2768 29.3086V29.0156C59.2768 28.4053 59.3646 27.8511 59.5404 27.353C59.7162 26.8501 59.9652 26.418 60.2875 26.0566C60.6098 25.6953 60.9955 25.417 61.4447 25.2217C61.8939 25.0264 62.3896 24.9287 62.9315 24.9287C63.4931 24.9287 63.9887 25.0239 64.4184 25.2144C64.848 25.3999 65.2069 25.6636 65.495 26.0054C65.7831 26.3472 66.0004 26.7573 66.1469 27.2358C66.2934 27.7095 66.3666 28.2344 66.3666 28.8105V29.6235H60.1557V28.2905H64.4623V28.144C64.4525 27.8364 64.3939 27.5557 64.2865 27.3018C64.1791 27.043 64.0131 26.8379 63.7885 26.6865C63.5639 26.5303 63.2733 26.4521 62.9169 26.4521C62.6288 26.4521 62.3773 26.5156 62.1625 26.6426C61.9525 26.7646 61.7768 26.9404 61.6352 27.1699C61.4984 27.3945 61.3959 27.6631 61.3275 27.9756C61.2592 28.2881 61.225 28.6348 61.225 29.0156V29.3086C61.225 29.6406 61.2689 29.9482 61.3568 30.2314C61.4496 30.5146 61.5839 30.7612 61.7597 30.9712C61.9403 31.1763 62.1552 31.3374 62.4042 31.4546C62.6581 31.5669 62.9462 31.623 63.2685 31.623C63.6737 31.623 64.0399 31.5449 64.3671 31.3887C64.6991 31.2275 64.9872 30.9907 65.2313 30.6782L66.2055 31.689C66.0395 31.9331 65.8148 32.1675 65.5316 32.3921C65.2533 32.6167 64.9164 32.7998 64.5209 32.9414C64.1254 33.0781 63.6688 33.1465 63.1513 33.1465ZM69.8138 21.75V33H67.8729V21.75H69.8138ZM73.8103 21.75V33H71.8693V21.75H73.8103ZM75.4117 29.1182V28.9644C75.4117 28.3833 75.4947 27.8486 75.6607 27.3604C75.8268 26.8672 76.0685 26.4399 76.3858 26.0786C76.7032 25.7173 77.0914 25.4365 77.5504 25.2363C78.0094 25.0312 78.5318 24.9287 79.1178 24.9287C79.7135 24.9287 80.2408 25.0312 80.6998 25.2363C81.1637 25.4365 81.5543 25.7173 81.8717 26.0786C82.1891 26.4399 82.4308 26.8672 82.5968 27.3604C82.7628 27.8486 82.8458 28.3833 82.8458 28.9644V29.1182C82.8458 29.6943 82.7628 30.229 82.5968 30.7222C82.4308 31.2104 82.1891 31.6377 81.8717 32.0039C81.5543 32.3652 81.1661 32.646 80.7071 32.8462C80.2481 33.0464 79.7232 33.1465 79.1324 33.1465C78.5465 33.1465 78.0216 33.0464 77.5577 32.8462C77.0938 32.646 76.7032 32.3652 76.3858 32.0039C76.0685 31.6377 75.8268 31.2104 75.6607 30.7222C75.4947 30.229 75.4117 29.6943 75.4117 29.1182ZM77.3453 28.9644V29.1182C77.3453 29.4648 77.3795 29.7896 77.4479 30.0923C77.5162 30.395 77.6212 30.6611 77.7628 30.8906C77.9044 31.1201 78.0875 31.3008 78.3121 31.4326C78.5416 31.5596 78.815 31.623 79.1324 31.623C79.4449 31.623 79.7135 31.5596 79.9381 31.4326C80.1627 31.3008 80.3458 31.1201 80.4874 30.8906C80.6339 30.6611 80.7413 30.395 80.8097 30.0923C80.878 29.7896 80.9122 29.4648 80.9122 29.1182V28.9644C80.9122 28.6226 80.878 28.3027 80.8097 28.0049C80.7413 27.7021 80.6339 27.436 80.4874 27.2065C80.3458 26.9722 80.1603 26.7891 79.9308 26.6572C79.7062 26.5205 79.4352 26.4521 79.1178 26.4521C78.8053 26.4521 78.5367 26.5205 78.3121 26.6572C78.0875 26.7891 77.9044 26.9722 77.7628 27.2065C77.6212 27.436 77.5162 27.7021 77.4479 28.0049C77.3795 28.3027 77.3453 28.6226 77.3453 28.9644ZM86.5566 22.3359L86.3442 29.7993H84.7109L84.4985 22.3359H86.5566ZM84.4399 32.0991C84.4399 31.811 84.5376 31.5693 84.7329 31.374C84.9331 31.1738 85.2017 31.0737 85.5386 31.0737C85.8755 31.0737 86.1416 31.1738 86.3369 31.374C86.5371 31.5693 86.6372 31.811 86.6372 32.0991C86.6372 32.3823 86.5371 32.6216 86.3369 32.8169C86.1416 33.0122 85.8755 33.1099 85.5386 33.1099C85.2017 33.1099 84.9331 33.0122 84.7329 32.8169C84.5376 32.6216 84.4399 32.3823 84.4399 32.0991ZM96.3001 22.3359V33H94.9085V22.3359H96.3001ZM99.7278 22.3359V23.4932H91.4881V22.3359H99.7278ZM102.56 21.75V33H101.205V21.75H102.56ZM102.237 28.7373L101.674 28.7153C101.678 28.1733 101.759 27.6729 101.915 27.2139C102.071 26.75 102.291 26.3472 102.574 26.0054C102.858 25.6636 103.195 25.3999 103.585 25.2144C103.981 25.0239 104.418 24.9287 104.896 24.9287C105.287 24.9287 105.638 24.9824 105.951 25.0898C106.263 25.1924 106.529 25.3584 106.749 25.5879C106.974 25.8174 107.145 26.1152 107.262 26.4814C107.379 26.8428 107.438 27.2847 107.438 27.8071V33H106.075V27.7925C106.075 27.3774 106.014 27.0454 105.892 26.7964C105.77 26.5425 105.592 26.3594 105.358 26.2471C105.123 26.1299 104.835 26.0713 104.493 26.0713C104.156 26.0713 103.849 26.1421 103.571 26.2837C103.297 26.4253 103.06 26.6206 102.86 26.8696C102.665 27.1187 102.511 27.4043 102.399 27.7266C102.291 28.0439 102.237 28.3809 102.237 28.7373ZM111.039 25.0752V33H109.676V25.0752H111.039ZM109.574 22.9731C109.574 22.7534 109.64 22.5679 109.772 22.4165C109.908 22.2651 110.108 22.1895 110.372 22.1895C110.631 22.1895 110.829 22.2651 110.965 22.4165C111.107 22.5679 111.178 22.7534 111.178 22.9731C111.178 23.1831 111.107 23.3638 110.965 23.5151C110.829 23.6616 110.631 23.7349 110.372 23.7349C110.108 23.7349 109.908 23.6616 109.772 23.5151C109.64 23.3638 109.574 23.1831 109.574 22.9731ZM117.928 30.8979C117.928 30.7026 117.884 30.522 117.796 30.356C117.713 30.1851 117.54 30.0312 117.276 29.8945C117.018 29.7529 116.627 29.6309 116.104 29.5283C115.665 29.4355 115.267 29.3257 114.911 29.1987C114.559 29.0718 114.259 28.918 114.01 28.7373C113.766 28.5566 113.578 28.3442 113.446 28.1001C113.314 27.856 113.248 27.5703 113.248 27.2432C113.248 26.9307 113.316 26.6353 113.453 26.3569C113.595 26.0786 113.792 25.832 114.046 25.6172C114.305 25.4023 114.615 25.2339 114.977 25.1118C115.338 24.9897 115.741 24.9287 116.185 24.9287C116.82 24.9287 117.362 25.041 117.811 25.2656C118.26 25.4902 118.604 25.7905 118.844 26.1665C119.083 26.5376 119.203 26.9502 119.203 27.4043H117.848C117.848 27.1846 117.782 26.9722 117.65 26.7671C117.523 26.5571 117.335 26.3838 117.086 26.2471C116.842 26.1104 116.542 26.042 116.185 26.042C115.809 26.042 115.504 26.1006 115.27 26.2178C115.04 26.3301 114.872 26.4741 114.764 26.6499C114.662 26.8257 114.61 27.0112 114.61 27.2065C114.61 27.353 114.635 27.4849 114.684 27.6021C114.737 27.7144 114.83 27.8193 114.962 27.917C115.094 28.0098 115.279 28.0977 115.519 28.1807C115.758 28.2637 116.063 28.3467 116.434 28.4297C117.083 28.5762 117.618 28.752 118.038 28.957C118.458 29.1621 118.771 29.4136 118.976 29.7114C119.181 30.0093 119.283 30.3706 119.283 30.7954C119.283 31.1421 119.21 31.4595 119.063 31.7476C118.922 32.0356 118.714 32.2847 118.441 32.4946C118.172 32.6997 117.85 32.8608 117.474 32.978C117.103 33.0903 116.686 33.1465 116.222 33.1465C115.523 33.1465 114.933 33.022 114.449 32.7729C113.966 32.5239 113.6 32.2017 113.351 31.8062C113.102 31.4106 112.977 30.9932 112.977 30.5537H114.339C114.359 30.9248 114.466 31.2202 114.662 31.4399C114.857 31.6548 115.096 31.8086 115.379 31.9014C115.663 31.9893 115.943 32.0332 116.222 32.0332C116.593 32.0332 116.903 31.9844 117.152 31.8867C117.406 31.7891 117.599 31.6548 117.73 31.4839C117.862 31.313 117.928 31.1177 117.928 30.8979ZM126.456 25.0752V33H125.094V25.0752H126.456ZM124.991 22.9731C124.991 22.7534 125.057 22.5679 125.189 22.4165C125.325 22.2651 125.526 22.1895 125.789 22.1895C126.048 22.1895 126.246 22.2651 126.383 22.4165C126.524 22.5679 126.595 22.7534 126.595 22.9731C126.595 23.1831 126.524 23.3638 126.383 23.5151C126.246 23.6616 126.048 23.7349 125.789 23.7349C125.526 23.7349 125.325 23.6616 125.189 23.5151C125.057 23.3638 124.991 23.1831 124.991 22.9731ZM133.345 30.8979C133.345 30.7026 133.301 30.522 133.214 30.356C133.131 30.1851 132.957 30.0312 132.694 29.8945C132.435 29.7529 132.044 29.6309 131.522 29.5283C131.082 29.4355 130.684 29.3257 130.328 29.1987C129.976 29.0718 129.676 28.918 129.427 28.7373C129.183 28.5566 128.995 28.3442 128.863 28.1001C128.731 27.856 128.665 27.5703 128.665 27.2432C128.665 26.9307 128.734 26.6353 128.87 26.3569C129.012 26.0786 129.21 25.832 129.464 25.6172C129.722 25.4023 130.032 25.2339 130.394 25.1118C130.755 24.9897 131.158 24.9287 131.602 24.9287C132.237 24.9287 132.779 25.041 133.228 25.2656C133.677 25.4902 134.022 25.7905 134.261 26.1665C134.5 26.5376 134.62 26.9502 134.62 27.4043H133.265C133.265 27.1846 133.199 26.9722 133.067 26.7671C132.94 26.5571 132.752 26.3838 132.503 26.2471C132.259 26.1104 131.959 26.042 131.602 26.042C131.226 26.042 130.921 26.1006 130.687 26.2178C130.457 26.3301 130.289 26.4741 130.181 26.6499C130.079 26.8257 130.028 27.0112 130.028 27.2065C130.028 27.353 130.052 27.4849 130.101 27.6021C130.154 27.7144 130.247 27.8193 130.379 27.917C130.511 28.0098 130.696 28.0977 130.936 28.1807C131.175 28.2637 131.48 28.3467 131.851 28.4297C132.501 28.5762 133.035 28.752 133.455 28.957C133.875 29.1621 134.188 29.4136 134.393 29.7114C134.598 30.0093 134.7 30.3706 134.7 30.7954C134.7 31.1421 134.627 31.4595 134.481 31.7476C134.339 32.0356 134.132 32.2847 133.858 32.4946C133.59 32.6997 133.267 32.8608 132.891 32.978C132.52 33.0903 132.103 33.1465 131.639 33.1465C130.941 33.1465 130.35 33.022 129.866 32.7729C129.383 32.5239 129.017 32.2017 128.768 31.8062C128.519 31.4106 128.394 30.9932 128.394 30.5537H129.757C129.776 30.9248 129.883 31.2202 130.079 31.4399C130.274 31.6548 130.513 31.8086 130.797 31.9014C131.08 31.9893 131.361 32.0332 131.639 32.0332C132.01 32.0332 132.32 31.9844 132.569 31.8867C132.823 31.7891 133.016 31.6548 133.148 31.4839C133.279 31.313 133.345 31.1177 133.345 30.8979ZM143.689 33.1465C143.138 33.1465 142.637 33.0537 142.188 32.8682C141.744 32.6777 141.36 32.4116 141.038 32.0698C140.721 31.728 140.477 31.3228 140.306 30.854C140.135 30.3853 140.049 29.8726 140.049 29.3159V29.0083C140.049 28.3638 140.145 27.79 140.335 27.2871C140.525 26.7793 140.784 26.3496 141.111 25.998C141.438 25.6465 141.81 25.3804 142.225 25.1997C142.64 25.019 143.069 24.9287 143.514 24.9287C144.08 24.9287 144.568 25.0264 144.979 25.2217C145.394 25.417 145.733 25.6904 145.997 26.042C146.26 26.3887 146.456 26.7988 146.583 27.2725C146.709 27.7412 146.773 28.2539 146.773 28.8105V29.4185H140.855V28.3125H145.418V28.21C145.398 27.8584 145.325 27.5166 145.198 27.1846C145.076 26.8525 144.881 26.5791 144.612 26.3643C144.344 26.1494 143.978 26.042 143.514 26.042C143.206 26.042 142.923 26.1079 142.664 26.2397C142.405 26.3667 142.183 26.5571 141.998 26.811C141.812 27.0649 141.668 27.375 141.565 27.7412C141.463 28.1074 141.412 28.5298 141.412 29.0083V29.3159C141.412 29.6919 141.463 30.0459 141.565 30.3779C141.673 30.7051 141.827 30.9932 142.027 31.2422C142.232 31.4912 142.479 31.6865 142.767 31.8281C143.06 31.9697 143.392 32.0405 143.763 32.0405C144.241 32.0405 144.646 31.9429 144.979 31.7476C145.311 31.5522 145.601 31.291 145.85 30.9639L146.67 31.6157C146.5 31.8745 146.282 32.1211 146.019 32.3555C145.755 32.5898 145.43 32.7803 145.044 32.9268C144.664 33.0732 144.212 33.1465 143.689 33.1465ZM149.371 25.0752L151.106 27.9609L152.864 25.0752H154.454L151.861 28.9863L154.534 33H152.967L151.136 30.0264L149.305 33H147.73L150.396 28.9863L147.81 25.0752H149.371ZM160.669 31.645V27.5654C160.669 27.2529 160.606 26.9819 160.479 26.7524C160.357 26.5181 160.171 26.3374 159.922 26.2104C159.673 26.0835 159.366 26.02 158.999 26.02C158.658 26.02 158.357 26.0786 158.098 26.1958C157.845 26.313 157.644 26.4668 157.498 26.6572C157.356 26.8477 157.285 27.0527 157.285 27.2725H155.93C155.93 26.9893 156.004 26.7085 156.15 26.4302C156.297 26.1519 156.507 25.9004 156.78 25.6758C157.058 25.4463 157.39 25.2656 157.776 25.1338C158.167 24.9971 158.601 24.9287 159.08 24.9287C159.656 24.9287 160.164 25.0264 160.603 25.2217C161.048 25.417 161.394 25.7124 161.643 26.1079C161.897 26.4985 162.024 26.9893 162.024 27.5801V31.2715C162.024 31.5352 162.046 31.8159 162.09 32.1138C162.139 32.4116 162.21 32.668 162.303 32.8828V33H160.889C160.821 32.8438 160.767 32.6362 160.728 32.3774C160.689 32.1138 160.669 31.8696 160.669 31.645ZM160.904 28.1953L160.918 29.1475H159.549C159.163 29.1475 158.819 29.1792 158.516 29.2427C158.213 29.3013 157.959 29.3916 157.754 29.5137C157.549 29.6357 157.393 29.7896 157.285 29.9751C157.178 30.1558 157.124 30.3682 157.124 30.6123C157.124 30.8613 157.18 31.0884 157.293 31.2935C157.405 31.4985 157.574 31.6621 157.798 31.7842C158.028 31.9014 158.308 31.96 158.64 31.96C159.055 31.96 159.422 31.8721 159.739 31.6963C160.056 31.5205 160.308 31.3057 160.493 31.0518C160.684 30.7979 160.786 30.5513 160.801 30.312L161.38 30.9639C161.346 31.1689 161.253 31.396 161.101 31.645C160.95 31.894 160.747 32.1333 160.493 32.3628C160.244 32.5874 159.947 32.7754 159.6 32.9268C159.258 33.0732 158.872 33.1465 158.443 33.1465C157.906 33.1465 157.434 33.0415 157.029 32.8315C156.629 32.6216 156.316 32.3408 156.092 31.9893C155.872 31.6328 155.762 31.2349 155.762 30.7954C155.762 30.3706 155.845 29.9971 156.011 29.6748C156.177 29.3477 156.416 29.0767 156.729 28.8618C157.041 28.6421 157.417 28.4761 157.857 28.3638C158.296 28.2515 158.787 28.1953 159.329 28.1953H160.904ZM165.603 26.6499V33H164.241V25.0752H165.53L165.603 26.6499ZM165.325 28.7373L164.695 28.7153C164.7 28.1733 164.771 27.6729 164.907 27.2139C165.044 26.75 165.247 26.3472 165.515 26.0054C165.784 25.6636 166.118 25.3999 166.519 25.2144C166.919 25.0239 167.383 24.9287 167.91 24.9287C168.281 24.9287 168.623 24.9824 168.936 25.0898C169.248 25.1924 169.519 25.356 169.749 25.5806C169.978 25.8052 170.156 26.0933 170.283 26.4448C170.41 26.7964 170.474 27.2212 170.474 27.7192V33H169.119V27.7852C169.119 27.3701 169.048 27.0381 168.906 26.7891C168.77 26.54 168.574 26.3594 168.321 26.2471C168.067 26.1299 167.769 26.0713 167.427 26.0713C167.027 26.0713 166.692 26.1421 166.424 26.2837C166.155 26.4253 165.94 26.6206 165.779 26.8696C165.618 27.1187 165.501 27.4043 165.427 27.7266C165.359 28.0439 165.325 28.3809 165.325 28.7373ZM170.459 27.9902L169.551 28.2686C169.556 27.834 169.627 27.4165 169.763 27.0161C169.905 26.6157 170.108 26.2593 170.371 25.9468C170.64 25.6343 170.969 25.3877 171.36 25.207C171.751 25.0215 172.197 24.9287 172.7 24.9287C173.125 24.9287 173.501 24.9849 173.828 25.0972C174.16 25.2095 174.439 25.3828 174.663 25.6172C174.893 25.8467 175.066 26.1421 175.183 26.5034C175.3 26.8647 175.359 27.2944 175.359 27.7925V33H173.997V27.7778C173.997 27.3335 173.926 26.9893 173.784 26.7451C173.648 26.4961 173.452 26.3228 173.198 26.2251C172.949 26.1226 172.652 26.0713 172.305 26.0713C172.007 26.0713 171.743 26.1226 171.514 26.2251C171.284 26.3276 171.092 26.4692 170.935 26.6499C170.779 26.8257 170.659 27.0283 170.576 27.2578C170.498 27.4873 170.459 27.7314 170.459 27.9902ZM178.865 26.5986V36.0469H177.503V25.0752H178.748L178.865 26.5986ZM184.204 28.9717V29.1255C184.204 29.7017 184.136 30.2363 183.999 30.7295C183.862 31.2178 183.662 31.6426 183.399 32.0039C183.14 32.3652 182.82 32.646 182.439 32.8462C182.058 33.0464 181.621 33.1465 181.128 33.1465C180.625 33.1465 180.181 33.0635 179.795 32.8975C179.409 32.7314 179.082 32.4897 178.814 32.1724C178.545 31.855 178.33 31.4741 178.169 31.0298C178.013 30.5854 177.905 30.085 177.847 29.5283V28.708C177.905 28.1221 178.015 27.5972 178.176 27.1333C178.337 26.6694 178.55 26.2739 178.814 25.9468C179.082 25.6147 179.407 25.3633 179.788 25.1924C180.169 25.0166 180.608 24.9287 181.106 24.9287C181.604 24.9287 182.046 25.0264 182.432 25.2217C182.817 25.4121 183.142 25.6855 183.406 26.042C183.67 26.3984 183.867 26.8257 183.999 27.3237C184.136 27.8169 184.204 28.3662 184.204 28.9717ZM182.842 29.1255V28.9717C182.842 28.5762 182.8 28.2051 182.717 27.8584C182.634 27.5068 182.505 27.1992 182.329 26.9355C182.158 26.667 181.939 26.457 181.67 26.3057C181.401 26.1494 181.082 26.0713 180.711 26.0713C180.369 26.0713 180.071 26.1299 179.817 26.2471C179.568 26.3643 179.356 26.5229 179.18 26.7231C179.004 26.9185 178.86 27.1431 178.748 27.397C178.64 27.646 178.56 27.9048 178.506 28.1733V30.0703C178.604 30.4121 178.74 30.7344 178.916 31.0371C179.092 31.335 179.326 31.5767 179.619 31.7622C179.912 31.9429 180.281 32.0332 180.725 32.0332C181.091 32.0332 181.406 31.9575 181.67 31.8062C181.939 31.6499 182.158 31.4375 182.329 31.1689C182.505 30.9004 182.634 30.5928 182.717 30.2461C182.8 29.8945 182.842 29.521 182.842 29.1255ZM187.505 21.75V33H186.143V21.75H187.505ZM193.069 33.1465C192.517 33.1465 192.017 33.0537 191.567 32.8682C191.123 32.6777 190.74 32.4116 190.417 32.0698C190.1 31.728 189.856 31.3228 189.685 30.854C189.514 30.3853 189.429 29.8726 189.429 29.3159V29.0083C189.429 28.3638 189.524 27.79 189.714 27.2871C189.905 26.7793 190.163 26.3496 190.491 25.998C190.818 25.6465 191.189 25.3804 191.604 25.1997C192.019 25.019 192.449 24.9287 192.893 24.9287C193.459 24.9287 193.948 25.0264 194.358 25.2217C194.773 25.417 195.112 25.6904 195.376 26.042C195.64 26.3887 195.835 26.7988 195.962 27.2725C196.089 27.7412 196.152 28.2539 196.152 28.8105V29.4185H190.234V28.3125H194.797V28.21C194.778 27.8584 194.704 27.5166 194.578 27.1846C194.455 26.8525 194.26 26.5791 193.992 26.3643C193.723 26.1494 193.357 26.042 192.893 26.042C192.585 26.042 192.302 26.1079 192.043 26.2397C191.785 26.3667 191.562 26.5571 191.377 26.811C191.191 27.0649 191.047 27.375 190.945 27.7412C190.842 28.1074 190.791 28.5298 190.791 29.0083V29.3159C190.791 29.6919 190.842 30.0459 190.945 30.3779C191.052 30.7051 191.206 30.9932 191.406 31.2422C191.611 31.4912 191.858 31.6865 192.146 31.8281C192.439 31.9697 192.771 32.0405 193.142 32.0405C193.621 32.0405 194.026 31.9429 194.358 31.7476C194.69 31.5522 194.98 31.291 195.229 30.9639L196.05 31.6157C195.879 31.8745 195.662 32.1211 195.398 32.3555C195.134 32.5898 194.809 32.7803 194.424 32.9268C194.043 33.0732 193.591 33.1465 193.069 33.1465ZM204.826 32.0332C205.149 32.0332 205.446 31.9673 205.72 31.8354C205.993 31.7036 206.218 31.5229 206.394 31.2935C206.57 31.0591 206.67 30.793 206.694 30.4951H207.983C207.959 30.9639 207.8 31.4009 207.507 31.8062C207.219 32.2065 206.841 32.5312 206.372 32.7803C205.903 33.0244 205.388 33.1465 204.826 33.1465C204.231 33.1465 203.711 33.0415 203.266 32.8315C202.827 32.6216 202.461 32.3335 202.168 31.9673C201.88 31.6011 201.662 31.1812 201.516 30.7075C201.374 30.229 201.303 29.7236 201.303 29.1914V28.8838C201.303 28.3516 201.374 27.8486 201.516 27.375C201.662 26.8965 201.88 26.4741 202.168 26.1079C202.461 25.7417 202.827 25.4536 203.266 25.2437C203.711 25.0337 204.231 24.9287 204.826 24.9287C205.446 24.9287 205.988 25.0557 206.452 25.3096C206.916 25.5586 207.28 25.9004 207.544 26.335C207.812 26.7646 207.959 27.2529 207.983 27.7998H206.694C206.67 27.4727 206.577 27.1772 206.416 26.9136C206.259 26.6499 206.045 26.4399 205.771 26.2837C205.503 26.1226 205.188 26.042 204.826 26.042C204.411 26.042 204.062 26.125 203.779 26.291C203.501 26.4521 203.279 26.6719 203.113 26.9502C202.951 27.2236 202.834 27.5288 202.761 27.8657C202.693 28.1978 202.658 28.5371 202.658 28.8838V29.1914C202.658 29.5381 202.693 29.8799 202.761 30.2168C202.829 30.5537 202.944 30.8589 203.105 31.1323C203.271 31.4058 203.493 31.6255 203.772 31.7915C204.055 31.9526 204.406 32.0332 204.826 32.0332ZM209.248 29.1255V28.957C209.248 28.3857 209.331 27.856 209.497 27.3677C209.663 26.8745 209.902 26.4473 210.214 26.0859C210.527 25.7197 210.905 25.4365 211.35 25.2363C211.794 25.0312 212.292 24.9287 212.844 24.9287C213.4 24.9287 213.901 25.0312 214.345 25.2363C214.795 25.4365 215.175 25.7197 215.488 26.0859C215.805 26.4473 216.047 26.8745 216.213 27.3677C216.379 27.856 216.462 28.3857 216.462 28.957V29.1255C216.462 29.6968 216.379 30.2266 216.213 30.7148C216.047 31.2031 215.805 31.6304 215.488 31.9966C215.175 32.3579 214.797 32.6411 214.353 32.8462C213.913 33.0464 213.415 33.1465 212.858 33.1465C212.302 33.1465 211.801 33.0464 211.357 32.8462C210.913 32.6411 210.532 32.3579 210.214 31.9966C209.902 31.6304 209.663 31.2031 209.497 30.7148C209.331 30.2266 209.248 29.6968 209.248 29.1255ZM210.603 28.957V29.1255C210.603 29.521 210.649 29.8945 210.742 30.2461C210.835 30.5928 210.974 30.9004 211.159 31.1689C211.35 31.4375 211.587 31.6499 211.87 31.8062C212.153 31.9575 212.483 32.0332 212.858 32.0332C213.23 32.0332 213.554 31.9575 213.833 31.8062C214.116 31.6499 214.35 31.4375 214.536 31.1689C214.721 30.9004 214.86 30.5928 214.953 30.2461C215.051 29.8945 215.1 29.521 215.1 29.1255V28.957C215.1 28.5664 215.051 28.1978 214.953 27.8511C214.86 27.4995 214.719 27.1895 214.528 26.9209C214.343 26.6475 214.108 26.4326 213.825 26.2764C213.547 26.1201 213.22 26.042 212.844 26.042C212.473 26.042 212.146 26.1201 211.862 26.2764C211.584 26.4326 211.35 26.6475 211.159 26.9209C210.974 27.1895 210.835 27.4995 210.742 27.8511C210.649 28.1978 210.603 28.5664 210.603 28.957ZM219.616 26.7671V33H218.261V25.0752H219.543L219.616 26.7671ZM219.294 28.7373L218.73 28.7153C218.735 28.1733 218.815 27.6729 218.972 27.2139C219.128 26.75 219.348 26.3472 219.631 26.0054C219.914 25.6636 220.251 25.3999 220.642 25.2144C221.037 25.0239 221.474 24.9287 221.953 24.9287C222.343 24.9287 222.695 24.9824 223.007 25.0898C223.32 25.1924 223.586 25.3584 223.806 25.5879C224.03 25.8174 224.201 26.1152 224.318 26.4814C224.436 26.8428 224.494 27.2847 224.494 27.8071V33H223.132V27.7925C223.132 27.3774 223.071 27.0454 222.949 26.7964C222.827 26.5425 222.648 26.3594 222.414 26.2471C222.18 26.1299 221.892 26.0713 221.55 26.0713C221.213 26.0713 220.905 26.1421 220.627 26.2837C220.354 26.4253 220.117 26.6206 219.917 26.8696C219.721 27.1187 219.567 27.4043 219.455 27.7266C219.348 28.0439 219.294 28.3809 219.294 28.7373ZM229.97 25.0752V26.1152H225.685V25.0752H229.97ZM227.136 23.1489H228.491V31.0371C228.491 31.3057 228.532 31.5083 228.615 31.645C228.698 31.7817 228.806 31.8721 228.937 31.916C229.069 31.96 229.211 31.9819 229.362 31.9819C229.475 31.9819 229.592 31.9722 229.714 31.9526C229.841 31.9282 229.936 31.9087 229.999 31.894L230.007 33C229.899 33.0342 229.758 33.0659 229.582 33.0952C229.411 33.1294 229.204 33.1465 228.959 33.1465C228.627 33.1465 228.322 33.0806 228.044 32.9487C227.766 32.8169 227.543 32.5972 227.377 32.2896C227.216 31.9771 227.136 31.5571 227.136 31.0298V23.1489ZM234.948 33.1465C234.396 33.1465 233.896 33.0537 233.447 32.8682C233.002 32.6777 232.619 32.4116 232.297 32.0698C231.979 31.728 231.735 31.3228 231.564 30.854C231.393 30.3853 231.308 29.8726 231.308 29.3159V29.0083C231.308 28.3638 231.403 27.79 231.594 27.2871C231.784 26.7793 232.043 26.3496 232.37 25.998C232.697 25.6465 233.068 25.3804 233.483 25.1997C233.898 25.019 234.328 24.9287 234.772 24.9287C235.339 24.9287 235.827 25.0264 236.237 25.2217C236.652 25.417 236.992 25.6904 237.255 26.042C237.519 26.3887 237.714 26.7988 237.841 27.2725C237.968 27.7412 238.032 28.2539 238.032 28.8105V29.4185H232.114V28.3125H236.677V28.21C236.657 27.8584 236.584 27.5166 236.457 27.1846C236.335 26.8525 236.139 26.5791 235.871 26.3643C235.602 26.1494 235.236 26.042 234.772 26.042C234.465 26.042 234.181 26.1079 233.923 26.2397C233.664 26.3667 233.442 26.5571 233.256 26.811C233.071 27.0649 232.927 27.375 232.824 27.7412C232.721 28.1074 232.67 28.5298 232.67 29.0083V29.3159C232.67 29.6919 232.721 30.0459 232.824 30.3779C232.931 30.7051 233.085 30.9932 233.285 31.2422C233.491 31.4912 233.737 31.6865 234.025 31.8281C234.318 31.9697 234.65 32.0405 235.021 32.0405C235.5 32.0405 235.905 31.9429 236.237 31.7476C236.569 31.5522 236.86 31.291 237.109 30.9639L237.929 31.6157C237.758 31.8745 237.541 32.1211 237.277 32.3555C237.013 32.5898 236.689 32.7803 236.303 32.9268C235.922 33.0732 235.471 33.1465 234.948 33.1465ZM241.069 26.7671V33H239.714V25.0752H240.995L241.069 26.7671ZM240.746 28.7373L240.182 28.7153C240.187 28.1733 240.268 27.6729 240.424 27.2139C240.58 26.75 240.8 26.3472 241.083 26.0054C241.366 25.6636 241.703 25.3999 242.094 25.2144C242.489 25.0239 242.926 24.9287 243.405 24.9287C243.796 24.9287 244.147 24.9824 244.46 25.0898C244.772 25.1924 245.038 25.3584 245.258 25.5879C245.483 25.8174 245.654 26.1152 245.771 26.4814C245.888 26.8428 245.946 27.2847 245.946 27.8071V33H244.584V27.7925C244.584 27.3774 244.523 27.0454 244.401 26.7964C244.279 26.5425 244.101 26.3594 243.866 26.2471C243.632 26.1299 243.344 26.0713 243.002 26.0713C242.665 26.0713 242.358 26.1421 242.079 26.2837C241.806 26.4253 241.569 26.6206 241.369 26.8696C241.174 27.1187 241.02 27.4043 240.907 27.7266C240.8 28.0439 240.746 28.3809 240.746 28.7373ZM251.422 25.0752V26.1152H247.138V25.0752H251.422ZM248.588 23.1489H249.943V31.0371C249.943 31.3057 249.984 31.5083 250.067 31.645C250.15 31.7817 250.258 31.8721 250.39 31.916C250.522 31.96 250.663 31.9819 250.815 31.9819C250.927 31.9819 251.044 31.9722 251.166 31.9526C251.293 31.9282 251.388 31.9087 251.452 31.894L251.459 33C251.352 33.0342 251.21 33.0659 251.034 33.0952C250.863 33.1294 250.656 33.1465 250.412 33.1465C250.08 33.1465 249.775 33.0806 249.496 32.9487C249.218 32.8169 248.996 32.5972 248.83 32.2896C248.669 31.9771 248.588 31.5571 248.588 31.0298V23.1489ZM253.134 32.2822C253.134 32.0527 253.205 31.8599 253.346 31.7036C253.493 31.5425 253.703 31.4619 253.976 31.4619C254.25 31.4619 254.457 31.5425 254.599 31.7036C254.745 31.8599 254.818 32.0527 254.818 32.2822C254.818 32.5068 254.745 32.6973 254.599 32.8535C254.457 33.0098 254.25 33.0879 253.976 33.0879C253.703 33.0879 253.493 33.0098 253.346 32.8535C253.205 32.6973 253.134 32.5068 253.134 32.2822ZM50.5049 49.0752V57H49.1426V49.0752H50.5049ZM49.04 46.9731C49.04 46.7534 49.106 46.5679 49.2378 46.4165C49.3745 46.2651 49.5747 46.1895 49.8384 46.1895C50.0972 46.1895 50.2949 46.2651 50.4316 46.4165C50.5732 46.5679 50.644 46.7534 50.644 46.9731C50.644 47.1831 50.5732 47.3638 50.4316 47.5151C50.2949 47.6616 50.0972 47.7349 49.8384 47.7349C49.5747 47.7349 49.3745 47.6616 49.2378 47.5151C49.106 47.3638 49.04 47.1831 49.04 46.9731ZM54.8017 57H53.4467V48.2402C53.4467 47.6689 53.5492 47.188 53.7543 46.7974C53.9643 46.4019 54.2646 46.104 54.6552 45.9038C55.0458 45.6987 55.5097 45.5962 56.0468 45.5962C56.203 45.5962 56.3593 45.606 56.5155 45.6255C56.6767 45.645 56.8329 45.6743 56.9843 45.7134L56.911 46.8193C56.8085 46.7949 56.6913 46.7778 56.5595 46.7681C56.4325 46.7583 56.3056 46.7534 56.1786 46.7534C55.8905 46.7534 55.6415 46.812 55.4315 46.9292C55.2265 47.0415 55.0702 47.2075 54.9628 47.4272C54.8554 47.647 54.8017 47.918 54.8017 48.2402V57ZM56.4862 49.0752V50.1152H52.1942V49.0752H56.4862ZM63.2707 50.7671V57H61.9157V49.0752H63.1975L63.2707 50.7671ZM62.9484 52.7373L62.3845 52.7153C62.3894 52.1733 62.4699 51.6729 62.6262 51.2139C62.7824 50.75 63.0021 50.3472 63.2854 50.0054C63.5686 49.6636 63.9055 49.3999 64.2961 49.2144C64.6916 49.0239 65.1286 48.9287 65.6071 48.9287C65.9978 48.9287 66.3493 48.9824 66.6618 49.0898C66.9743 49.1924 67.2404 49.3584 67.4602 49.5879C67.6848 49.8174 67.8557 50.1152 67.9729 50.4814C68.09 50.8428 68.1486 51.2847 68.1486 51.8071V57H66.7863V51.7925C66.7863 51.3774 66.7253 51.0454 66.6032 50.7964C66.4812 50.5425 66.3029 50.3594 66.0686 50.2471C65.8342 50.1299 65.5461 50.0713 65.2043 50.0713C64.8674 50.0713 64.5598 50.1421 64.2814 50.2837C64.008 50.4253 63.7712 50.6206 63.571 50.8696C63.3757 51.1187 63.2219 51.4043 63.1096 51.7266C63.0021 52.0439 62.9484 52.3809 62.9484 52.7373ZM73.5953 57.1465C73.0436 57.1465 72.5431 57.0537 72.0938 56.8682C71.6495 56.6777 71.2662 56.4116 70.9439 56.0698C70.6266 55.728 70.3824 55.3228 70.2115 54.854C70.0406 54.3853 69.9552 53.8726 69.9552 53.3159V53.0083C69.9552 52.3638 70.0504 51.79 70.2408 51.2871C70.4312 50.7793 70.69 50.3496 71.0172 49.998C71.3443 49.6465 71.7154 49.3804 72.1305 49.1997C72.5455 49.019 72.9752 48.9287 73.4195 48.9287C73.9859 48.9287 74.4742 49.0264 74.8844 49.2217C75.2994 49.417 75.6388 49.6904 75.9024 50.042C76.1661 50.3887 76.3614 50.7988 76.4884 51.2725C76.6153 51.7412 76.6788 52.2539 76.6788 52.8105V53.4185H70.7608V52.3125H75.3238V52.21C75.3043 51.8584 75.2311 51.5166 75.1041 51.1846C74.982 50.8525 74.7867 50.5791 74.5182 50.3643C74.2496 50.1494 73.8834 50.042 73.4195 50.042C73.1119 50.042 72.8287 50.1079 72.5699 50.2397C72.3111 50.3667 72.089 50.5571 71.9034 50.811C71.7179 51.0649 71.5738 51.375 71.4713 51.7412C71.3687 52.1074 71.3175 52.5298 71.3175 53.0083V53.3159C71.3175 53.6919 71.3687 54.0459 71.4713 54.3779C71.5787 54.7051 71.7325 54.9932 71.9327 55.2422C72.1378 55.4912 72.3844 55.6865 72.6725 55.8281C72.9654 55.9697 73.2975 56.0405 73.6686 56.0405C74.1471 56.0405 74.5523 55.9429 74.8844 55.7476C75.2164 55.5522 75.5069 55.291 75.756 54.9639L76.5763 55.6157C76.4054 55.8745 76.1881 56.1211 75.9244 56.3555C75.6607 56.5898 75.336 56.7803 74.9503 56.9268C74.5694 57.0732 74.1178 57.1465 73.5953 57.1465ZM81.5322 56.0332C81.8545 56.0332 82.1523 55.9673 82.4258 55.8354C82.6992 55.7036 82.9238 55.5229 83.0996 55.2935C83.2754 55.0591 83.3755 54.793 83.3999 54.4951H84.689C84.6646 54.9639 84.5059 55.4009 84.2129 55.8062C83.9248 56.2065 83.5464 56.5312 83.0776 56.7803C82.6089 57.0244 82.0938 57.1465 81.5322 57.1465C80.9365 57.1465 80.4165 57.0415 79.9722 56.8315C79.5327 56.6216 79.1665 56.3335 78.8735 55.9673C78.5854 55.6011 78.3682 55.1812 78.2217 54.7075C78.0801 54.229 78.0093 53.7236 78.0093 53.1914V52.8838C78.0093 52.3516 78.0801 51.8486 78.2217 51.375C78.3682 50.8965 78.5854 50.4741 78.8735 50.1079C79.1665 49.7417 79.5327 49.4536 79.9722 49.2437C80.4165 49.0337 80.9365 48.9287 81.5322 48.9287C82.1523 48.9287 82.6943 49.0557 83.1582 49.3096C83.6221 49.5586 83.9858 49.9004 84.2495 50.335C84.5181 50.7646 84.6646 51.2529 84.689 51.7998H83.3999C83.3755 51.4727 83.2827 51.1772 83.1216 50.9136C82.9653 50.6499 82.7505 50.4399 82.4771 50.2837C82.2085 50.1226 81.8936 50.042 81.5322 50.042C81.1172 50.042 80.7681 50.125 80.4849 50.291C80.2065 50.4521 79.9844 50.6719 79.8184 50.9502C79.6572 51.2236 79.54 51.5288 79.4668 51.8657C79.3984 52.1978 79.3643 52.5371 79.3643 52.8838V53.1914C79.3643 53.5381 79.3984 53.8799 79.4668 54.2168C79.5352 54.5537 79.6499 54.8589 79.811 55.1323C79.9771 55.4058 80.1992 55.6255 80.4775 55.7915C80.7607 55.9526 81.1123 56.0332 81.5322 56.0332ZM89.601 57.1465C89.0492 57.1465 88.5487 57.0537 88.0995 56.8682C87.6552 56.6777 87.2719 56.4116 86.9496 56.0698C86.6322 55.728 86.3881 55.3228 86.2172 54.854C86.0463 54.3853 85.9608 53.8726 85.9608 53.3159V53.0083C85.9608 52.3638 86.0561 51.79 86.2465 51.2871C86.4369 50.7793 86.6957 50.3496 87.0229 49.998C87.35 49.6465 87.7211 49.3804 88.1361 49.1997C88.5512 49.019 88.9809 48.9287 89.4252 48.9287C89.9916 48.9287 90.4799 49.0264 90.89 49.2217C91.3051 49.417 91.6444 49.6904 91.9081 50.042C92.1718 50.3887 92.3671 50.7988 92.494 51.2725C92.621 51.7412 92.6845 52.2539 92.6845 52.8105V53.4185H86.7665V52.3125H91.3295V52.21C91.31 51.8584 91.2367 51.5166 91.1098 51.1846C90.9877 50.8525 90.7924 50.5791 90.5238 50.3643C90.2553 50.1494 89.8891 50.042 89.4252 50.042C89.1176 50.042 88.8344 50.1079 88.5756 50.2397C88.3168 50.3667 88.0946 50.5571 87.9091 50.811C87.7235 51.0649 87.5795 51.375 87.477 51.7412C87.3744 52.1074 87.3231 52.5298 87.3231 53.0083V53.3159C87.3231 53.6919 87.3744 54.0459 87.477 54.3779C87.5844 54.7051 87.7382 54.9932 87.9384 55.2422C88.1435 55.4912 88.39 55.6865 88.6781 55.8281C88.9711 55.9697 89.3031 56.0405 89.6742 56.0405C90.1527 56.0405 90.558 55.9429 90.89 55.7476C91.2221 55.5522 91.5126 55.291 91.7616 54.9639L92.5819 55.6157C92.411 55.8745 92.1937 56.1211 91.9301 56.3555C91.6664 56.5898 91.3417 56.7803 90.956 56.9268C90.5751 57.0732 90.1234 57.1465 89.601 57.1465ZM98.9808 54.8979C98.9808 54.7026 98.9368 54.522 98.8489 54.356C98.7659 54.1851 98.5926 54.0312 98.3289 53.8945C98.0701 53.7529 97.6795 53.6309 97.157 53.5283C96.7176 53.4355 96.3196 53.3257 95.9632 53.1987C95.6116 53.0718 95.3113 52.918 95.0623 52.7373C94.8182 52.5566 94.6302 52.3442 94.4983 52.1001C94.3665 51.856 94.3006 51.5703 94.3006 51.2432C94.3006 50.9307 94.3689 50.6353 94.5057 50.3569C94.6473 50.0786 94.845 49.832 95.0989 49.6172C95.3577 49.4023 95.6678 49.2339 96.0291 49.1118C96.3904 48.9897 96.7933 48.9287 97.2376 48.9287C97.8724 48.9287 98.4144 49.041 98.8636 49.2656C99.3128 49.4902 99.657 49.7905 99.8963 50.1665C100.136 50.5376 100.255 50.9502 100.255 51.4043H98.9002C98.9002 51.1846 98.8343 50.9722 98.7024 50.7671C98.5755 50.5571 98.3875 50.3838 98.1385 50.2471C97.8943 50.1104 97.594 50.042 97.2376 50.042C96.8616 50.042 96.5564 50.1006 96.3221 50.2178C96.0926 50.3301 95.9241 50.4741 95.8167 50.6499C95.7142 50.8257 95.6629 51.0112 95.6629 51.2065C95.6629 51.353 95.6873 51.4849 95.7361 51.6021C95.7898 51.7144 95.8826 51.8193 96.0145 51.917C96.1463 52.0098 96.3318 52.0977 96.5711 52.1807C96.8104 52.2637 97.1155 52.3467 97.4866 52.4297C98.136 52.5762 98.6707 52.752 99.0906 52.957C99.5105 53.1621 99.823 53.4136 100.028 53.7114C100.233 54.0093 100.336 54.3706 100.336 54.7954C100.336 55.1421 100.263 55.4595 100.116 55.7476C99.9744 56.0356 99.7669 56.2847 99.4935 56.4946C99.2249 56.6997 98.9026 56.8608 98.5267 56.978C98.1556 57.0903 97.7381 57.1465 97.2742 57.1465C96.576 57.1465 95.9852 57.022 95.5018 56.7729C95.0184 56.5239 94.6521 56.2017 94.4031 55.8062C94.1541 55.4106 94.0296 54.9932 94.0296 54.5537H95.3919C95.4114 54.9248 95.5188 55.2202 95.7142 55.4399C95.9095 55.6548 96.1487 55.8086 96.4319 55.9014C96.7151 55.9893 96.9959 56.0332 97.2742 56.0332C97.6453 56.0332 97.9554 55.9844 98.2044 55.8867C98.4583 55.7891 98.6512 55.6548 98.783 55.4839C98.9148 55.313 98.9808 55.1177 98.9808 54.8979ZM106.83 54.8979C106.83 54.7026 106.786 54.522 106.698 54.356C106.615 54.1851 106.442 54.0312 106.178 53.8945C105.919 53.7529 105.529 53.6309 105.006 53.5283C104.567 53.4355 104.169 53.3257 103.812 53.1987C103.461 53.0718 103.16 52.918 102.911 52.7373C102.667 52.5566 102.479 52.3442 102.347 52.1001C102.216 51.856 102.15 51.5703 102.15 51.2432C102.15 50.9307 102.218 50.6353 102.355 50.3569C102.496 50.0786 102.694 49.832 102.948 49.6172C103.207 49.4023 103.517 49.2339 103.878 49.1118C104.239 48.9897 104.642 48.9287 105.087 48.9287C105.721 48.9287 106.263 49.041 106.713 49.2656C107.162 49.4902 107.506 49.7905 107.745 50.1665C107.985 50.5376 108.104 50.9502 108.104 51.4043H106.749C106.749 51.1846 106.683 50.9722 106.551 50.7671C106.425 50.5571 106.237 50.3838 105.987 50.2471C105.743 50.1104 105.443 50.042 105.087 50.042C104.711 50.042 104.405 50.1006 104.171 50.2178C103.942 50.3301 103.773 50.4741 103.666 50.6499C103.563 50.8257 103.512 51.0112 103.512 51.2065C103.512 51.353 103.536 51.4849 103.585 51.6021C103.639 51.7144 103.732 51.8193 103.863 51.917C103.995 52.0098 104.181 52.0977 104.42 52.1807C104.659 52.2637 104.965 52.3467 105.336 52.4297C105.985 52.5762 106.52 52.752 106.94 52.957C107.36 53.1621 107.672 53.4136 107.877 53.7114C108.082 54.0093 108.185 54.3706 108.185 54.7954C108.185 55.1421 108.112 55.4595 107.965 55.7476C107.823 56.0356 107.616 56.2847 107.342 56.4946C107.074 56.6997 106.752 56.8608 106.376 56.978C106.005 57.0903 105.587 57.1465 105.123 57.1465C104.425 57.1465 103.834 57.022 103.351 56.7729C102.867 56.5239 102.501 56.2017 102.252 55.8062C102.003 55.4106 101.879 54.9932 101.879 54.5537H103.241C103.26 54.9248 103.368 55.2202 103.563 55.4399C103.758 55.6548 103.998 55.8086 104.281 55.9014C104.564 55.9893 104.845 56.0332 105.123 56.0332C105.494 56.0332 105.804 55.9844 106.053 55.8867C106.307 55.7891 106.5 55.6548 106.632 55.4839C106.764 55.313 106.83 55.1177 106.83 54.8979ZM114.737 55.645V51.5654C114.737 51.2529 114.674 50.9819 114.547 50.7524C114.425 50.5181 114.239 50.3374 113.99 50.2104C113.741 50.0835 113.434 50.02 113.067 50.02C112.726 50.02 112.425 50.0786 112.167 50.1958C111.913 50.313 111.713 50.4668 111.566 50.6572C111.424 50.8477 111.354 51.0527 111.354 51.2725H109.999C109.999 50.9893 110.072 50.7085 110.218 50.4302C110.365 50.1519 110.575 49.9004 110.848 49.6758C111.127 49.4463 111.459 49.2656 111.844 49.1338C112.235 48.9971 112.67 48.9287 113.148 48.9287C113.724 48.9287 114.232 49.0264 114.671 49.2217C115.116 49.417 115.463 49.7124 115.712 50.1079C115.965 50.4985 116.092 50.9893 116.092 51.5801V55.2715C116.092 55.5352 116.114 55.8159 116.158 56.1138C116.207 56.4116 116.278 56.668 116.371 56.8828V57H114.957C114.889 56.8438 114.835 56.6362 114.796 56.3774C114.757 56.1138 114.737 55.8696 114.737 55.645ZM114.972 52.1953L114.986 53.1475H113.617C113.231 53.1475 112.887 53.1792 112.584 53.2427C112.281 53.3013 112.027 53.3916 111.822 53.5137C111.617 53.6357 111.461 53.7896 111.354 53.9751C111.246 54.1558 111.192 54.3682 111.192 54.6123C111.192 54.8613 111.249 55.0884 111.361 55.2935C111.473 55.4985 111.642 55.6621 111.866 55.7842C112.096 55.9014 112.377 55.96 112.709 55.96C113.124 55.96 113.49 55.8721 113.807 55.6963C114.125 55.5205 114.376 55.3057 114.562 55.0518C114.752 54.7979 114.855 54.5513 114.869 54.312L115.448 54.9639C115.414 55.1689 115.321 55.396 115.17 55.645C115.018 55.894 114.816 56.1333 114.562 56.3628C114.313 56.5874 114.015 56.7754 113.668 56.9268C113.326 57.0732 112.941 57.1465 112.511 57.1465C111.974 57.1465 111.503 57.0415 111.097 56.8315C110.697 56.6216 110.384 56.3408 110.16 55.9893C109.94 55.6328 109.83 55.2349 109.83 54.7954C109.83 54.3706 109.913 53.9971 110.079 53.6748C110.245 53.3477 110.484 53.0767 110.797 52.8618C111.109 52.6421 111.485 52.4761 111.925 52.3638C112.364 52.2515 112.855 52.1953 113.397 52.1953H114.972ZM119.679 50.3203V57H118.324V49.0752H119.642L119.679 50.3203ZM122.154 49.0312L122.147 50.291C122.035 50.2666 121.927 50.252 121.825 50.2471C121.727 50.2373 121.615 50.2324 121.488 50.2324C121.175 50.2324 120.899 50.2812 120.66 50.3789C120.421 50.4766 120.218 50.6133 120.052 50.7891C119.886 50.9648 119.754 51.1748 119.657 51.4189C119.564 51.6582 119.503 51.9219 119.474 52.21L119.093 52.4297C119.093 51.9512 119.139 51.502 119.232 51.082C119.33 50.6621 119.479 50.291 119.679 49.9688C119.879 49.6416 120.133 49.3877 120.44 49.207C120.753 49.0215 121.124 48.9287 121.554 48.9287C121.651 48.9287 121.764 48.9409 121.891 48.9653C122.018 48.9849 122.105 49.0068 122.154 49.0312ZM125.865 56.1797L128.07 49.0752H129.52L126.341 58.2231C126.268 58.4185 126.17 58.6284 126.048 58.853C125.931 59.0825 125.78 59.2998 125.594 59.5049C125.409 59.71 125.184 59.876 124.92 60.0029C124.662 60.1348 124.351 60.2007 123.99 60.2007C123.883 60.2007 123.746 60.186 123.58 60.1567C123.414 60.1274 123.297 60.103 123.228 60.0835L123.221 58.9849C123.26 58.9897 123.321 58.9946 123.404 58.9995C123.492 59.0093 123.553 59.0142 123.587 59.0142C123.895 59.0142 124.156 58.9727 124.371 58.8896C124.586 58.8115 124.767 58.6772 124.913 58.4868C125.064 58.3013 125.194 58.0449 125.301 57.7178L125.865 56.1797ZM124.246 49.0752L126.305 55.2275L126.656 56.6558L125.682 57.1538L122.767 49.0752H124.246ZM130.074 56.2822C130.074 56.0527 130.145 55.8599 130.286 55.7036C130.433 55.5425 130.643 55.4619 130.916 55.4619C131.19 55.4619 131.397 55.5425 131.539 55.7036C131.685 55.8599 131.759 56.0527 131.759 56.2822C131.759 56.5068 131.685 56.6973 131.539 56.8535C131.397 57.0098 131.19 57.0879 130.916 57.0879C130.643 57.0879 130.433 57.0098 130.286 56.8535C130.145 56.6973 130.074 56.5068 130.074 56.2822Z" fill="#1A1A1A"/>
<path d="M265.14 23.2808L261.61 33H260.167L264.232 22.3359H265.162L265.14 23.2808ZM268.099 33L264.562 23.2808L264.54 22.3359H265.47L269.55 33H268.099ZM267.916 29.0522V30.2095H261.925V29.0522H267.916ZM275.868 31.4619V21.75H277.23V33H275.985L275.868 31.4619ZM270.536 29.1255V28.9717C270.536 28.3662 270.609 27.8169 270.756 27.3237C270.907 26.8257 271.119 26.3984 271.393 26.042C271.671 25.6855 272.001 25.4121 272.382 25.2217C272.767 25.0264 273.197 24.9287 273.671 24.9287C274.169 24.9287 274.603 25.0166 274.974 25.1924C275.35 25.3633 275.668 25.6147 275.926 25.9468C276.19 26.2739 276.398 26.6694 276.549 27.1333C276.7 27.5972 276.805 28.1221 276.864 28.708V29.3818C276.81 29.9629 276.705 30.4854 276.549 30.9492C276.398 31.4131 276.19 31.8086 275.926 32.1357C275.668 32.4629 275.35 32.7144 274.974 32.8901C274.598 33.061 274.159 33.1465 273.656 33.1465C273.192 33.1465 272.767 33.0464 272.382 32.8462C272.001 32.646 271.671 32.3652 271.393 32.0039C271.119 31.6426 270.907 31.2178 270.756 30.7295C270.609 30.2363 270.536 29.7017 270.536 29.1255ZM271.898 28.9717V29.1255C271.898 29.521 271.937 29.8921 272.015 30.2388C272.098 30.5854 272.225 30.8906 272.396 31.1543C272.567 31.418 272.784 31.6255 273.048 31.7769C273.312 31.9233 273.627 31.9966 273.993 31.9966C274.442 31.9966 274.811 31.9014 275.099 31.7109C275.392 31.5205 275.626 31.269 275.802 30.9565C275.978 30.644 276.114 30.3047 276.212 29.9385V28.1733C276.154 27.9048 276.068 27.646 275.956 27.397C275.848 27.1431 275.707 26.9185 275.531 26.7231C275.36 26.5229 275.148 26.3643 274.894 26.2471C274.645 26.1299 274.349 26.0713 274.008 26.0713C273.636 26.0713 273.317 26.1494 273.048 26.3057C272.784 26.457 272.567 26.667 272.396 26.9355C272.225 27.1992 272.098 27.5068 272.015 27.8584C271.937 28.2051 271.898 28.5762 271.898 28.9717ZM284.435 31.4619V21.75H285.797V33H284.552L284.435 31.4619ZM279.103 29.1255V28.9717C279.103 28.3662 279.176 27.8169 279.322 27.3237C279.474 26.8257 279.686 26.3984 279.96 26.042C280.238 25.6855 280.567 25.4121 280.948 25.2217C281.334 25.0264 281.764 24.9287 282.237 24.9287C282.735 24.9287 283.17 25.0166 283.541 25.1924C283.917 25.3633 284.234 25.6147 284.493 25.9468C284.757 26.2739 284.964 26.6694 285.116 27.1333C285.267 27.5972 285.372 28.1221 285.431 28.708V29.3818C285.377 29.9629 285.272 30.4854 285.116 30.9492C284.964 31.4131 284.757 31.8086 284.493 32.1357C284.234 32.4629 283.917 32.7144 283.541 32.8901C283.165 33.061 282.726 33.1465 282.223 33.1465C281.759 33.1465 281.334 33.0464 280.948 32.8462C280.567 32.646 280.238 32.3652 279.96 32.0039C279.686 31.6426 279.474 31.2178 279.322 30.7295C279.176 30.2363 279.103 29.7017 279.103 29.1255ZM280.465 28.9717V29.1255C280.465 29.521 280.504 29.8921 280.582 30.2388C280.665 30.5854 280.792 30.8906 280.963 31.1543C281.134 31.418 281.351 31.6255 281.615 31.7769C281.879 31.9233 282.193 31.9966 282.56 31.9966C283.009 31.9966 283.378 31.9014 283.666 31.7109C283.959 31.5205 284.193 31.269 284.369 30.9565C284.545 30.644 284.681 30.3047 284.779 29.9385V28.1733C284.72 27.9048 284.635 27.646 284.523 27.397C284.415 27.1431 284.274 26.9185 284.098 26.7231C283.927 26.5229 283.714 26.3643 283.461 26.2471C283.212 26.1299 282.916 26.0713 282.574 26.0713C282.203 26.0713 281.883 26.1494 281.615 26.3057C281.351 26.457 281.134 26.667 280.963 26.9355C280.792 27.1992 280.665 27.5068 280.582 27.8584C280.504 28.2051 280.465 28.5762 280.465 28.9717ZM293.299 21.75V33H291.937V21.75H293.299ZM297.047 25.0752V33H295.684V25.0752H297.047ZM295.582 22.9731C295.582 22.7534 295.648 22.5679 295.78 22.4165C295.916 22.2651 296.117 22.1895 296.38 22.1895C296.639 22.1895 296.837 22.2651 296.973 22.4165C297.115 22.5679 297.186 22.7534 297.186 22.9731C297.186 23.1831 297.115 23.3638 296.973 23.5151C296.837 23.6616 296.639 23.7349 296.38 23.7349C296.117 23.7349 295.916 23.6616 295.78 23.5151C295.648 23.3638 295.582 23.1831 295.582 22.9731ZM300.677 26.7671V33H299.322V25.0752H300.604L300.677 26.7671ZM300.355 28.7373L299.791 28.7153C299.796 28.1733 299.876 27.6729 300.032 27.2139C300.189 26.75 300.408 26.3472 300.692 26.0054C300.975 25.6636 301.312 25.3999 301.702 25.2144C302.098 25.0239 302.535 24.9287 303.013 24.9287C303.404 24.9287 303.756 24.9824 304.068 25.0898C304.381 25.1924 304.647 25.3584 304.866 25.5879C305.091 25.8174 305.262 26.1152 305.379 26.4814C305.496 26.8428 305.555 27.2847 305.555 27.8071V33H304.193V27.7925C304.193 27.3774 304.132 27.0454 304.009 26.7964C303.887 26.5425 303.709 26.3594 303.475 26.2471C303.24 26.1299 302.952 26.0713 302.611 26.0713C302.274 26.0713 301.966 26.1421 301.688 26.2837C301.414 26.4253 301.177 26.6206 300.977 26.8696C300.782 27.1187 300.628 27.4043 300.516 27.7266C300.408 28.0439 300.355 28.3809 300.355 28.7373ZM309.075 21.75V33H307.713V21.75H309.075ZM313.917 25.0752L310.46 28.7739L308.526 30.7808L308.416 29.3379L309.8 27.6826L312.261 25.0752H313.917ZM312.679 33L309.852 29.2207L310.555 28.0122L314.275 33H312.679Z" fill="#286EF1"/>
<path d="M259.955 34.4648H314.383V35.1973H259.955V34.4648Z" fill="#286EF1"/>
<path d="M68.4497 88.5532H66.0439V87.29H68.4497C68.8687 87.29 69.2072 87.2223 69.4653 87.0869C69.7235 86.9515 69.9118 86.7653 70.0303 86.5283C70.153 86.2871 70.2144 86.012 70.2144 85.7031C70.2144 85.4111 70.153 85.1382 70.0303 84.8843C69.9118 84.6261 69.7235 84.4188 69.4653 84.2622C69.2072 84.1056 68.8687 84.0273 68.4497 84.0273H66.5327V92H64.9395V82.7578H68.4497C69.1649 82.7578 69.7721 82.8848 70.2715 83.1387C70.7751 83.3883 71.158 83.7354 71.4204 84.1797C71.6828 84.6198 71.814 85.1234 71.814 85.6904C71.814 86.2871 71.6828 86.7992 71.4204 87.2266C71.158 87.654 70.7751 87.9819 70.2715 88.2104C69.7721 88.439 69.1649 88.5532 68.4497 88.5532ZM74.626 86.4395V92H73.0962V85.1318H74.5562L74.626 86.4395ZM76.7271 85.0874L76.7144 86.5093C76.6213 86.4924 76.5197 86.4797 76.4097 86.4712C76.3039 86.4627 76.1981 86.4585 76.0923 86.4585C75.8299 86.4585 75.5993 86.4966 75.4004 86.5728C75.2015 86.6447 75.0343 86.7505 74.8989 86.8901C74.7677 87.0256 74.6662 87.1906 74.5942 87.3853C74.5223 87.5799 74.48 87.7979 74.4673 88.0391L74.1182 88.0645C74.1182 87.6328 74.1605 87.2329 74.2451 86.8647C74.3298 86.4966 74.4567 86.1729 74.626 85.8936C74.7995 85.6143 75.0153 85.3963 75.2734 85.2397C75.5358 85.0832 75.8384 85.0049 76.1812 85.0049C76.2743 85.0049 76.3737 85.0133 76.4795 85.0303C76.5895 85.0472 76.672 85.0662 76.7271 85.0874ZM79.3232 85.1318V92H77.7871V85.1318H79.3232ZM77.6855 83.3291C77.6855 83.0964 77.7617 82.9038 77.9141 82.7515C78.0706 82.5949 78.2865 82.5166 78.5615 82.5166C78.8324 82.5166 79.0461 82.5949 79.2026 82.7515C79.3592 82.9038 79.4375 83.0964 79.4375 83.3291C79.4375 83.5576 79.3592 83.748 79.2026 83.9004C79.0461 84.0527 78.8324 84.1289 78.5615 84.1289C78.2865 84.1289 78.0706 84.0527 77.9141 83.9004C77.7617 83.748 77.6855 83.5576 77.6855 83.3291ZM82.5288 86.5283V92H80.999V85.1318H82.4399L82.5288 86.5283ZM82.2812 88.312L81.7607 88.3057C81.7607 87.8317 81.82 87.3937 81.9385 86.9917C82.057 86.5897 82.2305 86.2406 82.459 85.9443C82.6875 85.6439 82.971 85.4132 83.3096 85.2524C83.6523 85.0874 84.048 85.0049 84.4966 85.0049C84.8097 85.0049 85.0954 85.0514 85.3535 85.1445C85.6159 85.2334 85.8423 85.3752 86.0327 85.5698C86.2274 85.7645 86.3755 86.0142 86.4771 86.3188C86.5828 86.6235 86.6357 86.9917 86.6357 87.4233V92H85.106V87.5566C85.106 87.2223 85.0552 86.96 84.9536 86.7695C84.8563 86.5791 84.7145 86.4437 84.5283 86.3633C84.3464 86.2786 84.1284 86.2363 83.8745 86.2363C83.5868 86.2363 83.3413 86.2913 83.1382 86.4014C82.9393 86.5114 82.7764 86.6616 82.6494 86.8521C82.5225 87.0425 82.4294 87.2625 82.3701 87.5122C82.3109 87.7619 82.2812 88.0285 82.2812 88.312ZM86.5405 87.9058L85.8232 88.0645C85.8232 87.6497 85.8804 87.2583 85.9946 86.8901C86.1131 86.5177 86.2845 86.1919 86.5088 85.9126C86.7373 85.6291 87.0187 85.4069 87.353 85.2461C87.6873 85.0853 88.0703 85.0049 88.502 85.0049C88.8532 85.0049 89.1663 85.0535 89.4414 85.1509C89.7207 85.244 89.9577 85.3921 90.1523 85.5952C90.347 85.7983 90.4951 86.0628 90.5967 86.3887C90.6982 86.7103 90.749 87.0996 90.749 87.5566V92H89.2129V87.5503C89.2129 87.2033 89.1621 86.9346 89.0605 86.7441C88.9632 86.5537 88.8236 86.4225 88.6416 86.3506C88.4596 86.2744 88.2417 86.2363 87.9878 86.2363C87.7508 86.2363 87.5413 86.2808 87.3594 86.3696C87.1816 86.4543 87.0314 86.5749 86.9087 86.7314C86.786 86.8838 86.6929 87.0594 86.6294 87.2583C86.5701 87.4572 86.5405 87.673 86.5405 87.9058ZM96.1953 90.6226V87.3472C96.1953 87.1017 96.1509 86.8901 96.062 86.7124C95.9731 86.5347 95.8377 86.3971 95.6558 86.2998C95.478 86.2025 95.2537 86.1538 94.9829 86.1538C94.7332 86.1538 94.5174 86.1961 94.3354 86.2808C94.1535 86.3654 94.0117 86.4797 93.9102 86.6235C93.8086 86.7674 93.7578 86.9303 93.7578 87.1123H92.2344C92.2344 86.8415 92.3 86.5791 92.4312 86.3252C92.5623 86.0713 92.7528 85.8449 93.0024 85.646C93.2521 85.4471 93.5505 85.2905 93.8975 85.1763C94.2445 85.062 94.6338 85.0049 95.0654 85.0049C95.5817 85.0049 96.0387 85.0916 96.4365 85.2651C96.8385 85.4386 97.1538 85.701 97.3823 86.0522C97.6151 86.3993 97.7314 86.8351 97.7314 87.3599V90.4131C97.7314 90.7262 97.7526 91.0076 97.7949 91.2573C97.8415 91.5028 97.9071 91.7165 97.9917 91.8984V92H96.4238C96.3519 91.835 96.2948 91.6255 96.2524 91.3716C96.2144 91.1134 96.1953 90.8638 96.1953 90.6226ZM96.4175 87.8232L96.4302 88.769H95.332C95.0485 88.769 94.7988 88.7965 94.583 88.8516C94.3672 88.9023 94.1873 88.9785 94.0435 89.0801C93.8996 89.1816 93.7917 89.3044 93.7197 89.4482C93.6478 89.5921 93.6118 89.755 93.6118 89.937C93.6118 90.119 93.6541 90.2861 93.7388 90.4385C93.8234 90.5866 93.9461 90.703 94.1069 90.7876C94.272 90.8722 94.4709 90.9146 94.7036 90.9146C95.0168 90.9146 95.2897 90.8511 95.5225 90.7241C95.7594 90.5929 95.9456 90.4342 96.0811 90.248C96.2165 90.0576 96.2884 89.8778 96.2969 89.7085L96.792 90.3877C96.7412 90.5612 96.6545 90.7474 96.5317 90.9463C96.409 91.1452 96.2482 91.3356 96.0493 91.5176C95.8547 91.6953 95.6198 91.8413 95.3447 91.9556C95.0739 92.0698 94.7607 92.127 94.4053 92.127C93.9567 92.127 93.5568 92.0381 93.2056 91.8604C92.8543 91.6784 92.5793 91.4351 92.3804 91.1304C92.1815 90.8215 92.082 90.4723 92.082 90.083C92.082 89.7191 92.1497 89.3975 92.2852 89.1182C92.4248 88.8346 92.6279 88.5977 92.8945 88.4072C93.1654 88.2168 93.4954 88.0729 93.8848 87.9756C94.2741 87.874 94.7184 87.8232 95.2178 87.8232H96.4175ZM100.867 86.4395V92H99.3374V85.1318H100.797L100.867 86.4395ZM102.968 85.0874L102.956 86.5093C102.862 86.4924 102.761 86.4797 102.651 86.4712C102.545 86.4627 102.439 86.4585 102.333 86.4585C102.071 86.4585 101.84 86.4966 101.642 86.5728C101.443 86.6447 101.276 86.7505 101.14 86.8901C101.009 87.0256 100.907 87.1906 100.835 87.3853C100.764 87.5799 100.721 87.7979 100.708 88.0391L100.359 88.0645C100.359 87.6328 100.402 87.2329 100.486 86.8647C100.571 86.4966 100.698 86.1729 100.867 85.8936C101.041 85.6143 101.257 85.3963 101.515 85.2397C101.777 85.0832 102.08 85.0049 102.422 85.0049C102.515 85.0049 102.615 85.0133 102.721 85.0303C102.831 85.0472 102.913 85.0662 102.968 85.0874ZM106.034 91.251L107.9 85.1318H109.538L106.783 93.0474C106.72 93.2166 106.637 93.4007 106.536 93.5996C106.434 93.7985 106.301 93.9868 106.136 94.1646C105.975 94.3465 105.774 94.4925 105.533 94.6025C105.292 94.7168 105 94.7739 104.657 94.7739C104.521 94.7739 104.39 94.7612 104.263 94.7358C104.14 94.7147 104.024 94.6914 103.914 94.666L103.908 93.498C103.95 93.5023 104.001 93.5065 104.06 93.5107C104.124 93.515 104.174 93.5171 104.212 93.5171C104.466 93.5171 104.678 93.4854 104.847 93.4219C105.016 93.3626 105.154 93.2653 105.26 93.1299C105.37 92.9945 105.463 92.8125 105.539 92.584L106.034 91.251ZM104.98 85.1318L106.612 90.2734L106.885 91.8857L105.825 92.1587L103.33 85.1318H104.98Z" fill="#1A1A1A"/>
<rect x="48.5" y="72.5" width="77" height="31" rx="3.5" stroke="#1A1A1A"/>
<path d="M155.802 89.6196C155.802 89.4292 155.772 89.2599 155.713 89.1118C155.658 88.9637 155.558 88.8283 155.415 88.7056C155.271 88.5828 155.068 88.4644 154.805 88.3501C154.547 88.2316 154.217 88.111 153.815 87.9883C153.375 87.8529 152.969 87.7026 152.596 87.5376C152.228 87.3683 151.906 87.1737 151.631 86.9536C151.356 86.7293 151.143 86.4733 150.99 86.1855C150.838 85.8936 150.762 85.5571 150.762 85.1763C150.762 84.7996 150.84 84.4569 150.997 84.1479C151.157 83.839 151.384 83.5724 151.676 83.3481C151.972 83.1196 152.321 82.944 152.723 82.8213C153.125 82.6943 153.569 82.6309 154.056 82.6309C154.742 82.6309 155.332 82.7578 155.827 83.0117C156.326 83.2656 156.709 83.6063 156.976 84.0337C157.247 84.4611 157.382 84.9329 157.382 85.4492H155.802C155.802 85.1445 155.736 84.8758 155.605 84.6431C155.478 84.4061 155.283 84.2199 155.021 84.0845C154.763 83.9491 154.435 83.8813 154.037 83.8813C153.66 83.8813 153.347 83.9385 153.098 84.0527C152.848 84.167 152.662 84.3215 152.539 84.5161C152.416 84.7108 152.355 84.9308 152.355 85.1763C152.355 85.3498 152.395 85.5085 152.476 85.6523C152.556 85.792 152.679 85.9232 152.844 86.0459C153.009 86.1644 153.216 86.2765 153.466 86.3823C153.715 86.4881 154.01 86.5897 154.348 86.687C154.86 86.8394 155.307 87.0086 155.688 87.1948C156.068 87.3768 156.386 87.5841 156.64 87.8169C156.894 88.0496 157.084 88.3141 157.211 88.6104C157.338 88.9023 157.401 89.2345 157.401 89.6069C157.401 89.9963 157.323 90.3475 157.167 90.6606C157.01 90.9696 156.786 91.234 156.494 91.4541C156.206 91.6699 155.859 91.8371 155.453 91.9556C155.051 92.0698 154.602 92.127 154.107 92.127C153.663 92.127 153.225 92.0677 152.793 91.9492C152.366 91.8307 151.976 91.6509 151.625 91.4097C151.274 91.1642 150.994 90.8595 150.787 90.4956C150.58 90.1274 150.476 89.6979 150.476 89.207H152.069C152.069 89.5075 152.12 89.7635 152.222 89.9751C152.327 90.1867 152.473 90.3602 152.66 90.4956C152.846 90.6268 153.062 90.7241 153.307 90.7876C153.557 90.8511 153.823 90.8828 154.107 90.8828C154.479 90.8828 154.79 90.8299 155.04 90.7241C155.294 90.6183 155.484 90.4702 155.611 90.2798C155.738 90.0894 155.802 89.8693 155.802 89.6196ZM161.686 92.127C161.178 92.127 160.719 92.0444 160.309 91.8794C159.902 91.7101 159.555 91.4753 159.268 91.1748C158.984 90.8743 158.766 90.521 158.614 90.1147C158.461 89.7085 158.385 89.2705 158.385 88.8008V88.5469C158.385 88.0094 158.464 87.5228 158.62 87.0869C158.777 86.651 158.995 86.2786 159.274 85.9697C159.553 85.6566 159.883 85.4175 160.264 85.2524C160.645 85.0874 161.058 85.0049 161.502 85.0049C161.993 85.0049 162.422 85.0874 162.791 85.2524C163.159 85.4175 163.463 85.6502 163.705 85.9507C163.95 86.2469 164.132 86.6003 164.25 87.0107C164.373 87.4212 164.435 87.874 164.435 88.3691V89.0229H159.128V87.9248H162.924V87.8042C162.915 87.5291 162.86 87.271 162.759 87.0298C162.661 86.7886 162.511 86.5939 162.308 86.4458C162.105 86.2977 161.834 86.2236 161.496 86.2236C161.242 86.2236 161.015 86.2786 160.816 86.3887C160.622 86.4945 160.459 86.6489 160.328 86.8521C160.196 87.0552 160.095 87.3006 160.023 87.5884C159.955 87.8719 159.921 88.1914 159.921 88.5469V88.8008C159.921 89.1012 159.962 89.3805 160.042 89.6387C160.127 89.8926 160.249 90.1147 160.41 90.3052C160.571 90.4956 160.766 90.6458 160.994 90.7559C161.223 90.8617 161.483 90.9146 161.775 90.9146C162.143 90.9146 162.471 90.8405 162.759 90.6924C163.047 90.5443 163.296 90.3348 163.508 90.064L164.314 90.8447C164.166 91.0605 163.973 91.2679 163.736 91.4668C163.499 91.6615 163.209 91.8201 162.867 91.9429C162.528 92.0656 162.135 92.127 161.686 92.127ZM168.434 90.9082C168.683 90.9082 168.908 90.8595 169.106 90.7622C169.31 90.6606 169.472 90.521 169.595 90.3433C169.722 90.1655 169.792 89.9603 169.805 89.7275H171.246C171.237 90.1719 171.106 90.576 170.852 90.9399C170.598 91.3039 170.262 91.5938 169.843 91.8096C169.424 92.0212 168.96 92.127 168.453 92.127C167.928 92.127 167.471 92.0381 167.082 91.8604C166.692 91.6784 166.368 91.4287 166.11 91.1113C165.852 90.7939 165.658 90.4279 165.526 90.0132C165.399 89.5985 165.336 89.1541 165.336 88.6802V88.458C165.336 87.984 165.399 87.5397 165.526 87.125C165.658 86.7061 165.852 86.3379 166.11 86.0205C166.368 85.7031 166.692 85.4556 167.082 85.2778C167.471 85.0959 167.926 85.0049 168.446 85.0049C168.996 85.0049 169.479 85.1149 169.894 85.335C170.308 85.5508 170.634 85.8534 170.871 86.2427C171.112 86.6278 171.237 87.0763 171.246 87.5884H169.805C169.792 87.3345 169.729 87.106 169.614 86.9028C169.504 86.6955 169.348 86.5304 169.145 86.4077C168.946 86.285 168.707 86.2236 168.427 86.2236C168.118 86.2236 167.862 86.2871 167.659 86.4141C167.456 86.5368 167.297 86.7061 167.183 86.9219C167.069 87.1335 166.986 87.3726 166.936 87.6392C166.889 87.9015 166.866 88.1745 166.866 88.458V88.6802C166.866 88.9637 166.889 89.2388 166.936 89.5054C166.982 89.772 167.062 90.0111 167.177 90.2227C167.295 90.43 167.456 90.5972 167.659 90.7241C167.862 90.8468 168.12 90.9082 168.434 90.9082ZM172.128 88.6421V88.4961C172.128 88.001 172.2 87.5418 172.344 87.1187C172.488 86.6912 172.695 86.321 172.966 86.0078C173.241 85.6904 173.575 85.445 173.969 85.2715C174.367 85.0938 174.815 85.0049 175.314 85.0049C175.818 85.0049 176.267 85.0938 176.66 85.2715C177.058 85.445 177.394 85.6904 177.669 86.0078C177.944 86.321 178.154 86.6912 178.298 87.1187C178.442 87.5418 178.514 88.001 178.514 88.4961V88.6421C178.514 89.1372 178.442 89.5964 178.298 90.0195C178.154 90.4427 177.944 90.813 177.669 91.1304C177.394 91.4435 177.06 91.689 176.667 91.8667C176.273 92.0402 175.826 92.127 175.327 92.127C174.824 92.127 174.373 92.0402 173.975 91.8667C173.582 91.689 173.247 91.4435 172.972 91.1304C172.697 90.813 172.488 90.4427 172.344 90.0195C172.2 89.5964 172.128 89.1372 172.128 88.6421ZM173.658 88.4961V88.6421C173.658 88.951 173.689 89.243 173.753 89.5181C173.816 89.7931 173.916 90.0343 174.051 90.2417C174.187 90.4491 174.36 90.612 174.572 90.7305C174.783 90.849 175.035 90.9082 175.327 90.9082C175.611 90.9082 175.856 90.849 176.063 90.7305C176.275 90.612 176.449 90.4491 176.584 90.2417C176.719 90.0343 176.819 89.7931 176.882 89.5181C176.95 89.243 176.984 88.951 176.984 88.6421V88.4961C176.984 88.1914 176.95 87.9036 176.882 87.6328C176.819 87.3577 176.717 87.1144 176.578 86.9028C176.442 86.6912 176.269 86.5262 176.057 86.4077C175.85 86.285 175.602 86.2236 175.314 86.2236C175.027 86.2236 174.777 86.285 174.565 86.4077C174.358 86.5262 174.187 86.6912 174.051 86.9028C173.916 87.1144 173.816 87.3577 173.753 87.6328C173.689 87.9036 173.658 88.1914 173.658 88.4961ZM181.313 86.5981V92H179.783V85.1318H181.224L181.313 86.5981ZM181.04 88.312L180.545 88.3057C180.549 87.819 180.617 87.3726 180.748 86.9663C180.883 86.5601 181.07 86.2109 181.307 85.9189C181.548 85.627 181.836 85.4027 182.17 85.2461C182.504 85.0853 182.877 85.0049 183.287 85.0049C183.617 85.0049 183.916 85.0514 184.182 85.1445C184.453 85.2334 184.684 85.3794 184.874 85.5825C185.069 85.7856 185.217 86.0501 185.318 86.376C185.42 86.6976 185.471 87.0933 185.471 87.563V92H183.935V87.5566C183.935 87.2266 183.886 86.9663 183.789 86.7759C183.695 86.5812 183.558 86.4437 183.376 86.3633C183.198 86.2786 182.976 86.2363 182.709 86.2363C182.447 86.2363 182.212 86.2913 182.005 86.4014C181.798 86.5114 181.622 86.6616 181.478 86.8521C181.338 87.0425 181.23 87.2625 181.154 87.5122C181.078 87.7619 181.04 88.0285 181.04 88.312ZM191.222 90.5781V82.25H192.758V92H191.368L191.222 90.5781ZM186.753 88.6421V88.5088C186.753 87.9883 186.814 87.5143 186.937 87.0869C187.06 86.6553 187.237 86.285 187.47 85.9761C187.703 85.6629 187.986 85.4238 188.321 85.2588C188.655 85.0895 189.032 85.0049 189.451 85.0049C189.865 85.0049 190.229 85.0853 190.542 85.2461C190.856 85.4069 191.122 85.6375 191.342 85.938C191.562 86.2342 191.738 86.5897 191.869 87.0044C192 87.4149 192.093 87.8719 192.148 88.3755V88.8008C192.093 89.2917 192 89.7402 191.869 90.1465C191.738 90.5527 191.562 90.904 191.342 91.2002C191.122 91.4964 190.854 91.7249 190.536 91.8857C190.223 92.0465 189.857 92.127 189.438 92.127C189.023 92.127 188.649 92.0402 188.314 91.8667C187.984 91.6932 187.703 91.4499 187.47 91.1367C187.237 90.8236 187.06 90.4554 186.937 90.0322C186.814 89.6048 186.753 89.1414 186.753 88.6421ZM188.283 88.5088V88.6421C188.283 88.9552 188.31 89.2472 188.365 89.5181C188.424 89.7889 188.515 90.028 188.638 90.2354C188.761 90.4385 188.92 90.5993 189.114 90.7178C189.313 90.832 189.55 90.8892 189.825 90.8892C190.172 90.8892 190.458 90.813 190.682 90.6606C190.906 90.5083 191.082 90.3031 191.209 90.0449C191.34 89.7826 191.429 89.4906 191.476 89.1689V88.02C191.45 87.7703 191.397 87.5376 191.317 87.3218C191.241 87.106 191.137 86.9176 191.006 86.7568C190.875 86.5918 190.712 86.4648 190.517 86.376C190.327 86.2829 190.1 86.2363 189.838 86.2363C189.559 86.2363 189.322 86.2956 189.127 86.4141C188.932 86.5326 188.771 86.6955 188.645 86.9028C188.522 87.1102 188.431 87.3514 188.372 87.6265C188.312 87.9015 188.283 88.1956 188.283 88.5088ZM198.229 90.6226V87.3472C198.229 87.1017 198.185 86.8901 198.096 86.7124C198.007 86.5347 197.872 86.3971 197.69 86.2998C197.512 86.2025 197.288 86.1538 197.017 86.1538C196.767 86.1538 196.552 86.1961 196.37 86.2808C196.188 86.3654 196.046 86.4797 195.944 86.6235C195.843 86.7674 195.792 86.9303 195.792 87.1123H194.269C194.269 86.8415 194.334 86.5791 194.465 86.3252C194.597 86.0713 194.787 85.8449 195.037 85.646C195.286 85.4471 195.585 85.2905 195.932 85.1763C196.279 85.062 196.668 85.0049 197.1 85.0049C197.616 85.0049 198.073 85.0916 198.471 85.2651C198.873 85.4386 199.188 85.701 199.417 86.0522C199.649 86.3993 199.766 86.8351 199.766 87.3599V90.4131C199.766 90.7262 199.787 91.0076 199.829 91.2573C199.876 91.5028 199.941 91.7165 200.026 91.8984V92H198.458C198.386 91.835 198.329 91.6255 198.287 91.3716C198.249 91.1134 198.229 90.8638 198.229 90.6226ZM198.452 87.8232L198.464 88.769H197.366C197.083 88.769 196.833 88.7965 196.617 88.8516C196.401 88.9023 196.222 88.9785 196.078 89.0801C195.934 89.1816 195.826 89.3044 195.754 89.4482C195.682 89.5921 195.646 89.755 195.646 89.937C195.646 90.119 195.688 90.2861 195.773 90.4385C195.858 90.5866 195.98 90.703 196.141 90.7876C196.306 90.8722 196.505 90.9146 196.738 90.9146C197.051 90.9146 197.324 90.8511 197.557 90.7241C197.794 90.5929 197.98 90.4342 198.115 90.248C198.251 90.0576 198.323 89.8778 198.331 89.7085L198.826 90.3877C198.775 90.5612 198.689 90.7474 198.566 90.9463C198.443 91.1452 198.282 91.3356 198.083 91.5176C197.889 91.6953 197.654 91.8413 197.379 91.9556C197.108 92.0698 196.795 92.127 196.439 92.127C195.991 92.127 195.591 92.0381 195.24 91.8604C194.889 91.6784 194.613 91.4351 194.415 91.1304C194.216 90.8215 194.116 90.4723 194.116 90.083C194.116 89.7191 194.184 89.3975 194.319 89.1182C194.459 88.8346 194.662 88.5977 194.929 88.4072C195.2 88.2168 195.53 88.0729 195.919 87.9756C196.308 87.874 196.753 87.8232 197.252 87.8232H198.452ZM202.901 86.4395V92H201.372V85.1318H202.832L202.901 86.4395ZM205.002 85.0874L204.99 86.5093C204.897 86.4924 204.795 86.4797 204.685 86.4712C204.579 86.4627 204.473 86.4585 204.368 86.4585C204.105 86.4585 203.875 86.4966 203.676 86.5728C203.477 86.6447 203.31 86.7505 203.174 86.8901C203.043 87.0256 202.942 87.1906 202.87 87.3853C202.798 87.5799 202.755 87.7979 202.743 88.0391L202.394 88.0645C202.394 87.6328 202.436 87.2329 202.521 86.8647C202.605 86.4966 202.732 86.1729 202.901 85.8936C203.075 85.6143 203.291 85.3963 203.549 85.2397C203.811 85.0832 204.114 85.0049 204.457 85.0049C204.55 85.0049 204.649 85.0133 204.755 85.0303C204.865 85.0472 204.947 85.0662 205.002 85.0874ZM208.068 91.251L209.935 85.1318H211.572L208.817 93.0474C208.754 93.2166 208.671 93.4007 208.57 93.5996C208.468 93.7985 208.335 93.9868 208.17 94.1646C208.009 94.3465 207.808 94.4925 207.567 94.6025C207.326 94.7168 207.034 94.7739 206.691 94.7739C206.556 94.7739 206.424 94.7612 206.297 94.7358C206.175 94.7147 206.058 94.6914 205.948 94.666L205.942 93.498C205.984 93.5023 206.035 93.5065 206.094 93.5107C206.158 93.515 206.208 93.5171 206.247 93.5171C206.5 93.5171 206.712 93.4854 206.881 93.4219C207.051 93.3626 207.188 93.2653 207.294 93.1299C207.404 92.9945 207.497 92.8125 207.573 92.584L208.068 91.251ZM207.015 85.1318L208.646 90.2734L208.919 91.8857L207.859 92.1587L205.364 85.1318H207.015Z" fill="#333333"/>
<path d="M353.705 36.4677C354.056 36.8182 354.056 37.3867 353.705 37.7372C353.354 38.0876 352.783 38.0876 352.432 37.7372L348.001 33.2848L343.538 37.7357C343.186 38.0861 342.616 38.0861 342.265 37.7357C341.913 37.3852 341.913 36.8167 342.265 36.4662L346.729 32.0168L342.264 27.5323C341.912 27.1818 341.912 26.6133 342.264 26.2628C342.615 25.9124 343.185 25.9124 343.536 26.2628L348.001 30.7489L352.464 26.298C352.815 25.9476 353.385 25.9476 353.736 26.298C354.088 26.6484 354.088 27.217 353.736 27.5674L349.272 32.0168L353.705 36.4677Z" fill="#1A1A1A"/>
</svg>
