<svg width="380" height="120" viewBox="0 0 380 120" fill="none" xmlns="http://www.w3.org/2000/svg">
<rect width="380" height="120" fill="#FEEFEE"/>
<path fill-rule="evenodd" clip-rule="evenodd" d="M28 18C22.4766 18 18 22.4766 18 28C18 33.5234 22.4766 38 28 38C33.5234 38 38 33.5234 38 28C38 22.4766 33.5234 18 28 18ZM28 22C28.5523 22 29 22.4477 29 23V28C29 28.5523 28.5523 29 28 29C27.4477 29 27 28.5523 27 28V23C27 22.4477 27.4477 22 28 22ZM28 33.5C28.6904 33.5 29.25 32.9404 29.25 32.25C29.25 31.5596 28.6904 31 28 31C27.3096 31 26.75 31.5596 26.75 32.25C26.75 32.9404 27.3096 33.5 28 33.5Z" fill="#F45C59"/>
<path d="M56.1299 26.7891V28.2466H50.4683V26.7891H56.1299ZM50.9224 22.3359V33H49.084V22.3359H50.9224ZM57.5435 22.3359V33H55.7124V22.3359H57.5435ZM63.0513 33.1465C62.4653 33.1465 61.9355 33.0513 61.4619 32.8608C60.9932 32.6655 60.5928 32.3945 60.2607 32.0479C59.9336 31.7012 59.6821 31.2935 59.5063 30.8247C59.3306 30.356 59.2427 29.8506 59.2427 29.3086V29.0156C59.2427 28.3955 59.333 27.834 59.5137 27.3311C59.6943 26.8281 59.9458 26.3984 60.2681 26.042C60.5903 25.6807 60.9712 25.4048 61.4106 25.2144C61.8501 25.0239 62.3262 24.9287 62.8389 24.9287C63.4053 24.9287 63.9009 25.0239 64.3257 25.2144C64.7505 25.4048 65.1021 25.6733 65.3804 26.02C65.6636 26.3618 65.8735 26.7695 66.0103 27.2432C66.1519 27.7168 66.2227 28.2393 66.2227 28.8105V29.5649H60.0996V28.2979H64.4795V28.1587C64.4697 27.8413 64.4062 27.5435 64.2891 27.2651C64.1768 26.9868 64.0034 26.7622 63.769 26.5913C63.5347 26.4204 63.2222 26.335 62.8315 26.335C62.5386 26.335 62.2773 26.3984 62.0479 26.5254C61.8232 26.6475 61.6353 26.8257 61.4839 27.0601C61.3325 27.2944 61.2153 27.5776 61.1323 27.9097C61.0542 28.2368 61.0151 28.6055 61.0151 29.0156V29.3086C61.0151 29.6553 61.0615 29.9775 61.1543 30.2754C61.252 30.5684 61.3936 30.8247 61.5791 31.0444C61.7646 31.2642 61.9893 31.4375 62.2529 31.5645C62.5166 31.6865 62.8169 31.7476 63.1538 31.7476C63.5786 31.7476 63.957 31.6621 64.2891 31.4912C64.6211 31.3203 64.9092 31.0786 65.1533 30.7661L66.0835 31.667C65.9126 31.916 65.6904 32.1553 65.417 32.3848C65.1436 32.6094 64.8091 32.7925 64.4136 32.9341C64.0229 33.0757 63.5688 33.1465 63.0513 33.1465ZM69.4893 21.75V33H67.7168V21.75H69.4893ZM73.3125 21.75V33H71.54V21.75H73.3125ZM74.9092 29.1255V28.957C74.9092 28.3857 74.9922 27.856 75.1582 27.3677C75.3242 26.8745 75.5635 26.4473 75.876 26.0859C76.1934 25.7197 76.5791 25.4365 77.0332 25.2363C77.4922 25.0312 78.0098 24.9287 78.5859 24.9287C79.167 24.9287 79.6846 25.0312 80.1387 25.2363C80.5977 25.4365 80.9858 25.7197 81.3032 26.0859C81.6206 26.4473 81.8623 26.8745 82.0283 27.3677C82.1943 27.856 82.2773 28.3857 82.2773 28.957V29.1255C82.2773 29.6968 82.1943 30.2266 82.0283 30.7148C81.8623 31.2031 81.6206 31.6304 81.3032 31.9966C80.9858 32.3579 80.6001 32.6411 80.146 32.8462C79.6919 33.0464 79.1768 33.1465 78.6006 33.1465C78.0195 33.1465 77.4995 33.0464 77.0405 32.8462C76.5864 32.6411 76.2007 32.3579 75.8833 31.9966C75.5659 31.6304 75.3242 31.2031 75.1582 30.7148C74.9922 30.2266 74.9092 29.6968 74.9092 29.1255ZM76.6743 28.957V29.1255C76.6743 29.4819 76.7109 29.8188 76.7842 30.1362C76.8574 30.4536 76.9722 30.7319 77.1284 30.9712C77.2847 31.2104 77.4849 31.3984 77.729 31.5352C77.9731 31.6719 78.2637 31.7402 78.6006 31.7402C78.9277 31.7402 79.2109 31.6719 79.4502 31.5352C79.6943 31.3984 79.8945 31.2104 80.0508 30.9712C80.207 30.7319 80.3218 30.4536 80.395 30.1362C80.4731 29.8188 80.5122 29.4819 80.5122 29.1255V28.957C80.5122 28.6055 80.4731 28.2734 80.395 27.9609C80.3218 27.6436 80.2046 27.3628 80.0435 27.1187C79.8872 26.8745 79.687 26.6841 79.4429 26.5474C79.2036 26.4058 78.918 26.335 78.5859 26.335C78.2539 26.335 77.9658 26.4058 77.7217 26.5474C77.4824 26.6841 77.2847 26.8745 77.1284 27.1187C76.9722 27.3628 76.8574 27.6436 76.7842 27.9609C76.7109 28.2734 76.6743 28.6055 76.6743 28.957ZM85.793 22.3359L85.6172 29.8579H84.1084L83.9253 22.3359H85.793ZM83.874 32.165C83.874 31.8965 83.9619 31.6719 84.1377 31.4912C84.3184 31.3057 84.5674 31.2129 84.8848 31.2129C85.1973 31.2129 85.4438 31.3057 85.6245 31.4912C85.8052 31.6719 85.8955 31.8965 85.8955 32.165C85.8955 32.4238 85.8052 32.646 85.6245 32.8315C85.4438 33.0122 85.1973 33.1025 84.8848 33.1025C84.5674 33.1025 84.3184 33.0122 84.1377 32.8315C83.9619 32.646 83.874 32.4238 83.874 32.165ZM95.8173 22.3359V33H94.4257V22.3359H95.8173ZM99.245 22.3359V23.4932H91.0053V22.3359H99.245ZM101.977 21.75V33H100.622V21.75H101.977ZM101.655 28.7373L101.091 28.7153C101.096 28.1733 101.176 27.6729 101.332 27.2139C101.489 26.75 101.708 26.3472 101.992 26.0054C102.275 25.6636 102.612 25.3999 103.002 25.2144C103.398 25.0239 103.835 24.9287 104.313 24.9287C104.704 24.9287 105.056 24.9824 105.368 25.0898C105.681 25.1924 105.947 25.3584 106.166 25.5879C106.391 25.8174 106.562 26.1152 106.679 26.4814C106.796 26.8428 106.855 27.2847 106.855 27.8071V33H105.493V27.7925C105.493 27.3774 105.432 27.0454 105.309 26.7964C105.187 26.5425 105.009 26.3594 104.775 26.2471C104.54 26.1299 104.252 26.0713 103.911 26.0713C103.574 26.0713 103.266 26.1421 102.988 26.2837C102.714 26.4253 102.477 26.6206 102.277 26.8696C102.082 27.1187 101.928 27.4043 101.816 27.7266C101.708 28.0439 101.655 28.3809 101.655 28.7373ZM110.356 25.0752V33H108.994V25.0752H110.356ZM108.891 22.9731C108.891 22.7534 108.957 22.5679 109.089 22.4165C109.225 22.2651 109.426 22.1895 109.689 22.1895C109.948 22.1895 110.146 22.2651 110.283 22.4165C110.424 22.5679 110.495 22.7534 110.495 22.9731C110.495 23.1831 110.424 23.3638 110.283 23.5151C110.146 23.6616 109.948 23.7349 109.689 23.7349C109.426 23.7349 109.225 23.6616 109.089 23.5151C108.957 23.3638 108.891 23.1831 108.891 22.9731ZM117.145 30.8979C117.145 30.7026 117.101 30.522 117.014 30.356C116.931 30.1851 116.757 30.0312 116.494 29.8945C116.235 29.7529 115.844 29.6309 115.322 29.5283C114.882 29.4355 114.484 29.3257 114.128 29.1987C113.776 29.0718 113.476 28.918 113.227 28.7373C112.983 28.5566 112.795 28.3442 112.663 28.1001C112.531 27.856 112.465 27.5703 112.465 27.2432C112.465 26.9307 112.534 26.6353 112.67 26.3569C112.812 26.0786 113.01 25.832 113.264 25.6172C113.522 25.4023 113.832 25.2339 114.194 25.1118C114.555 24.9897 114.958 24.9287 115.402 24.9287C116.037 24.9287 116.579 25.041 117.028 25.2656C117.477 25.4902 117.822 25.7905 118.061 26.1665C118.3 26.5376 118.42 26.9502 118.42 27.4043H117.065C117.065 27.1846 116.999 26.9722 116.867 26.7671C116.74 26.5571 116.552 26.3838 116.303 26.2471C116.059 26.1104 115.759 26.042 115.402 26.042C115.026 26.042 114.721 26.1006 114.487 26.2178C114.257 26.3301 114.089 26.4741 113.981 26.6499C113.879 26.8257 113.828 27.0112 113.828 27.2065C113.828 27.353 113.852 27.4849 113.901 27.6021C113.954 27.7144 114.047 27.8193 114.179 27.917C114.311 28.0098 114.496 28.0977 114.736 28.1807C114.975 28.2637 115.28 28.3467 115.651 28.4297C116.301 28.5762 116.835 28.752 117.255 28.957C117.675 29.1621 117.988 29.4136 118.193 29.7114C118.398 30.0093 118.5 30.3706 118.5 30.7954C118.5 31.1421 118.427 31.4595 118.281 31.7476C118.139 32.0356 117.932 32.2847 117.658 32.4946C117.39 32.6997 117.067 32.8608 116.691 32.978C116.32 33.0903 115.903 33.1465 115.439 33.1465C114.741 33.1465 114.15 33.022 113.666 32.7729C113.183 32.5239 112.817 32.2017 112.568 31.8062C112.319 31.4106 112.194 30.9932 112.194 30.5537H113.557C113.576 30.9248 113.683 31.2202 113.879 31.4399C114.074 31.6548 114.313 31.8086 114.597 31.9014C114.88 31.9893 115.161 32.0332 115.439 32.0332C115.81 32.0332 116.12 31.9844 116.369 31.8867C116.623 31.7891 116.816 31.6548 116.948 31.4839C117.079 31.313 117.145 31.1177 117.145 30.8979ZM125.473 25.0752V33H124.111V25.0752H125.473ZM124.008 22.9731C124.008 22.7534 124.074 22.5679 124.206 22.4165C124.343 22.2651 124.543 22.1895 124.807 22.1895C125.065 22.1895 125.263 22.2651 125.4 22.4165C125.541 22.5679 125.612 22.7534 125.612 22.9731C125.612 23.1831 125.541 23.3638 125.4 23.5151C125.263 23.6616 125.065 23.7349 124.807 23.7349C124.543 23.7349 124.343 23.6616 124.206 23.5151C124.074 23.3638 124.008 23.1831 124.008 22.9731ZM132.263 30.8979C132.263 30.7026 132.219 30.522 132.131 30.356C132.048 30.1851 131.874 30.0312 131.611 29.8945C131.352 29.7529 130.961 29.6309 130.439 29.5283C129.999 29.4355 129.601 29.3257 129.245 29.1987C128.893 29.0718 128.593 28.918 128.344 28.7373C128.1 28.5566 127.912 28.3442 127.78 28.1001C127.648 27.856 127.582 27.5703 127.582 27.2432C127.582 26.9307 127.651 26.6353 127.787 26.3569C127.929 26.0786 128.127 25.832 128.381 25.6172C128.64 25.4023 128.95 25.2339 129.311 25.1118C129.672 24.9897 130.075 24.9287 130.519 24.9287C131.154 24.9287 131.696 25.041 132.145 25.2656C132.595 25.4902 132.939 25.7905 133.178 26.1665C133.417 26.5376 133.537 26.9502 133.537 27.4043H132.182C132.182 27.1846 132.116 26.9722 131.984 26.7671C131.857 26.5571 131.669 26.3838 131.42 26.2471C131.176 26.1104 130.876 26.042 130.519 26.042C130.143 26.042 129.838 26.1006 129.604 26.2178C129.374 26.3301 129.206 26.4741 129.099 26.6499C128.996 26.8257 128.945 27.0112 128.945 27.2065C128.945 27.353 128.969 27.4849 129.018 27.6021C129.072 27.7144 129.164 27.8193 129.296 27.917C129.428 28.0098 129.614 28.0977 129.853 28.1807C130.092 28.2637 130.397 28.3467 130.768 28.4297C131.418 28.5762 131.953 28.752 132.372 28.957C132.792 29.1621 133.105 29.4136 133.31 29.7114C133.515 30.0093 133.618 30.3706 133.618 30.7954C133.618 31.1421 133.544 31.4595 133.398 31.7476C133.256 32.0356 133.049 32.2847 132.775 32.4946C132.507 32.6997 132.184 32.8608 131.808 32.978C131.437 33.0903 131.02 33.1465 130.556 33.1465C129.858 33.1465 129.267 33.022 128.784 32.7729C128.3 32.5239 127.934 32.2017 127.685 31.8062C127.436 31.4106 127.311 30.9932 127.311 30.5537H128.674C128.693 30.9248 128.801 31.2202 128.996 31.4399C129.191 31.6548 129.431 31.8086 129.714 31.9014C129.997 31.9893 130.278 32.0332 130.556 32.0332C130.927 32.0332 131.237 31.9844 131.486 31.8867C131.74 31.7891 131.933 31.6548 132.065 31.4839C132.197 31.313 132.263 31.1177 132.263 30.8979ZM142.407 33.1465C141.855 33.1465 141.354 33.0537 140.905 32.8682C140.461 32.6777 140.078 32.4116 139.755 32.0698C139.438 31.728 139.194 31.3228 139.023 30.854C138.852 30.3853 138.767 29.8726 138.767 29.3159V29.0083C138.767 28.3638 138.862 27.79 139.052 27.2871C139.243 26.7793 139.501 26.3496 139.829 25.998C140.156 25.6465 140.527 25.3804 140.942 25.1997C141.357 25.019 141.787 24.9287 142.231 24.9287C142.797 24.9287 143.286 25.0264 143.696 25.2217C144.111 25.417 144.45 25.6904 144.714 26.042C144.977 26.3887 145.173 26.7988 145.3 27.2725C145.427 27.7412 145.49 28.2539 145.49 28.8105V29.4185H139.572V28.3125H144.135V28.21C144.116 27.8584 144.042 27.5166 143.915 27.1846C143.793 26.8525 143.598 26.5791 143.329 26.3643C143.061 26.1494 142.695 26.042 142.231 26.042C141.923 26.042 141.64 26.1079 141.381 26.2397C141.122 26.3667 140.9 26.5571 140.715 26.811C140.529 27.0649 140.385 27.375 140.283 27.7412C140.18 28.1074 140.129 28.5298 140.129 29.0083V29.3159C140.129 29.6919 140.18 30.0459 140.283 30.3779C140.39 30.7051 140.544 30.9932 140.744 31.2422C140.949 31.4912 141.196 31.6865 141.484 31.8281C141.777 31.9697 142.109 32.0405 142.48 32.0405C142.958 32.0405 143.364 31.9429 143.696 31.7476C144.028 31.5522 144.318 31.291 144.567 30.9639L145.388 31.6157C145.217 31.8745 144.999 32.1211 144.736 32.3555C144.472 32.5898 144.147 32.7803 143.762 32.9268C143.381 33.0732 142.929 33.1465 142.407 33.1465ZM147.988 25.0752L149.724 27.9609L151.481 25.0752H153.071L150.478 28.9863L153.151 33H151.584L149.753 30.0264L147.922 33H146.347L149.013 28.9863L146.428 25.0752H147.988ZM159.186 31.645V27.5654C159.186 27.2529 159.123 26.9819 158.996 26.7524C158.874 26.5181 158.688 26.3374 158.439 26.2104C158.19 26.0835 157.883 26.02 157.517 26.02C157.175 26.02 156.874 26.0786 156.616 26.1958C156.362 26.313 156.162 26.4668 156.015 26.6572C155.873 26.8477 155.803 27.0527 155.803 27.2725H154.448C154.448 26.9893 154.521 26.7085 154.667 26.4302C154.814 26.1519 155.024 25.9004 155.297 25.6758C155.576 25.4463 155.908 25.2656 156.293 25.1338C156.684 24.9971 157.119 24.9287 157.597 24.9287C158.173 24.9287 158.681 25.0264 159.121 25.2217C159.565 25.417 159.912 25.7124 160.161 26.1079C160.414 26.4985 160.541 26.9893 160.541 27.5801V31.2715C160.541 31.5352 160.563 31.8159 160.607 32.1138C160.656 32.4116 160.727 32.668 160.82 32.8828V33H159.406C159.338 32.8438 159.284 32.6362 159.245 32.3774C159.206 32.1138 159.186 31.8696 159.186 31.645ZM159.421 28.1953L159.435 29.1475H158.066C157.68 29.1475 157.336 29.1792 157.033 29.2427C156.73 29.3013 156.476 29.3916 156.271 29.5137C156.066 29.6357 155.91 29.7896 155.803 29.9751C155.695 30.1558 155.642 30.3682 155.642 30.6123C155.642 30.8613 155.698 31.0884 155.81 31.2935C155.922 31.4985 156.091 31.6621 156.315 31.7842C156.545 31.9014 156.826 31.96 157.158 31.96C157.573 31.96 157.939 31.8721 158.256 31.6963C158.574 31.5205 158.825 31.3057 159.011 31.0518C159.201 30.7979 159.304 30.5513 159.318 30.312L159.897 30.9639C159.863 31.1689 159.77 31.396 159.619 31.645C159.467 31.894 159.265 32.1333 159.011 32.3628C158.762 32.5874 158.464 32.7754 158.117 32.9268C157.775 33.0732 157.39 33.1465 156.96 33.1465C156.423 33.1465 155.952 33.0415 155.546 32.8315C155.146 32.6216 154.833 32.3408 154.609 31.9893C154.389 31.6328 154.279 31.2349 154.279 30.7954C154.279 30.3706 154.362 29.9971 154.528 29.6748C154.694 29.3477 154.933 29.0767 155.246 28.8618C155.558 28.6421 155.934 28.4761 156.374 28.3638C156.813 28.2515 157.304 28.1953 157.846 28.1953H159.421ZM164.02 26.6499V33H162.658V25.0752H163.947L164.02 26.6499ZM163.742 28.7373L163.112 28.7153C163.117 28.1733 163.188 27.6729 163.325 27.2139C163.461 26.75 163.664 26.3472 163.933 26.0054C164.201 25.6636 164.536 25.3999 164.936 25.2144C165.336 25.0239 165.8 24.9287 166.328 24.9287C166.699 24.9287 167.04 24.9824 167.353 25.0898C167.665 25.1924 167.936 25.356 168.166 25.5806C168.395 25.8052 168.574 26.0933 168.701 26.4448C168.828 26.7964 168.891 27.2212 168.891 27.7192V33H167.536V27.7852C167.536 27.3701 167.465 27.0381 167.324 26.7891C167.187 26.54 166.992 26.3594 166.738 26.2471C166.484 26.1299 166.186 26.0713 165.844 26.0713C165.444 26.0713 165.109 26.1421 164.841 26.2837C164.572 26.4253 164.357 26.6206 164.196 26.8696C164.035 27.1187 163.918 27.4043 163.845 27.7266C163.776 28.0439 163.742 28.3809 163.742 28.7373ZM168.876 27.9902L167.968 28.2686C167.973 27.834 168.044 27.4165 168.181 27.0161C168.322 26.6157 168.525 26.2593 168.788 25.9468C169.057 25.6343 169.387 25.3877 169.777 25.207C170.168 25.0215 170.615 24.9287 171.118 24.9287C171.542 24.9287 171.918 24.9849 172.246 25.0972C172.578 25.2095 172.856 25.3828 173.08 25.6172C173.31 25.8467 173.483 26.1421 173.6 26.5034C173.718 26.8647 173.776 27.2944 173.776 27.7925V33H172.414V27.7778C172.414 27.3335 172.343 26.9893 172.202 26.7451C172.065 26.4961 171.87 26.3228 171.616 26.2251C171.367 26.1226 171.069 26.0713 170.722 26.0713C170.424 26.0713 170.161 26.1226 169.931 26.2251C169.702 26.3276 169.509 26.4692 169.352 26.6499C169.196 26.8257 169.077 27.0283 168.994 27.2578C168.915 27.4873 168.876 27.7314 168.876 27.9902ZM177.182 26.5986V36.0469H175.82V25.0752H177.065L177.182 26.5986ZM182.521 28.9717V29.1255C182.521 29.7017 182.453 30.2363 182.316 30.7295C182.18 31.2178 181.979 31.6426 181.716 32.0039C181.457 32.3652 181.137 32.646 180.756 32.8462C180.375 33.0464 179.938 33.1465 179.445 33.1465C178.942 33.1465 178.498 33.0635 178.112 32.8975C177.726 32.7314 177.399 32.4897 177.131 32.1724C176.862 31.855 176.647 31.4741 176.486 31.0298C176.33 30.5854 176.223 30.085 176.164 29.5283V28.708C176.223 28.1221 176.332 27.5972 176.494 27.1333C176.655 26.6694 176.867 26.2739 177.131 25.9468C177.399 25.6147 177.724 25.3633 178.105 25.1924C178.486 25.0166 178.925 24.9287 179.423 24.9287C179.921 24.9287 180.363 25.0264 180.749 25.2217C181.135 25.4121 181.459 25.6855 181.723 26.042C181.987 26.3984 182.184 26.8257 182.316 27.3237C182.453 27.8169 182.521 28.3662 182.521 28.9717ZM181.159 29.1255V28.9717C181.159 28.5762 181.118 28.2051 181.035 27.8584C180.952 27.5068 180.822 27.1992 180.646 26.9355C180.475 26.667 180.256 26.457 179.987 26.3057C179.719 26.1494 179.399 26.0713 179.028 26.0713C178.686 26.0713 178.388 26.1299 178.134 26.2471C177.885 26.3643 177.673 26.5229 177.497 26.7231C177.321 26.9185 177.177 27.1431 177.065 27.397C176.957 27.646 176.877 27.9048 176.823 28.1733V30.0703C176.921 30.4121 177.058 30.7344 177.233 31.0371C177.409 31.335 177.643 31.5767 177.936 31.7622C178.229 31.9429 178.598 32.0332 179.042 32.0332C179.409 32.0332 179.724 31.9575 179.987 31.8062C180.256 31.6499 180.475 31.4375 180.646 31.1689C180.822 30.9004 180.952 30.5928 181.035 30.2461C181.118 29.8945 181.159 29.521 181.159 29.1255ZM185.722 21.75V33H184.36V21.75H185.722ZM191.186 33.1465C190.634 33.1465 190.134 33.0537 189.684 32.8682C189.24 32.6777 188.857 32.4116 188.535 32.0698C188.217 31.728 187.973 31.3228 187.802 30.854C187.631 30.3853 187.546 29.8726 187.546 29.3159V29.0083C187.546 28.3638 187.641 27.79 187.831 27.2871C188.022 26.7793 188.281 26.3496 188.608 25.998C188.935 25.6465 189.306 25.3804 189.721 25.1997C190.136 25.019 190.566 24.9287 191.01 24.9287C191.577 24.9287 192.065 25.0264 192.475 25.2217C192.89 25.417 193.229 25.6904 193.493 26.042C193.757 26.3887 193.952 26.7988 194.079 27.2725C194.206 27.7412 194.269 28.2539 194.269 28.8105V29.4185H188.351V28.3125H192.914V28.21C192.895 27.8584 192.822 27.5166 192.695 27.1846C192.573 26.8525 192.377 26.5791 192.109 26.3643C191.84 26.1494 191.474 26.042 191.01 26.042C190.703 26.042 190.419 26.1079 190.161 26.2397C189.902 26.3667 189.68 26.5571 189.494 26.811C189.309 27.0649 189.164 27.375 189.062 27.7412C188.959 28.1074 188.908 28.5298 188.908 29.0083V29.3159C188.908 29.6919 188.959 30.0459 189.062 30.3779C189.169 30.7051 189.323 30.9932 189.523 31.2422C189.728 31.4912 189.975 31.6865 190.263 31.8281C190.556 31.9697 190.888 32.0405 191.259 32.0405C191.738 32.0405 192.143 31.9429 192.475 31.7476C192.807 31.5522 193.098 31.291 193.347 30.9639L194.167 31.6157C193.996 31.8745 193.779 32.1211 193.515 32.3555C193.251 32.5898 192.927 32.7803 192.541 32.9268C192.16 33.0732 191.708 33.1465 191.186 33.1465ZM202.744 32.0332C203.066 32.0332 203.364 31.9673 203.637 31.8354C203.911 31.7036 204.135 31.5229 204.311 31.2935C204.487 31.0591 204.587 30.793 204.611 30.4951H205.9C205.876 30.9639 205.717 31.4009 205.424 31.8062C205.136 32.2065 204.758 32.5312 204.289 32.7803C203.82 33.0244 203.305 33.1465 202.744 33.1465C202.148 33.1465 201.628 33.0415 201.184 32.8315C200.744 32.6216 200.378 32.3335 200.085 31.9673C199.797 31.6011 199.579 31.1812 199.433 30.7075C199.291 30.229 199.221 29.7236 199.221 29.1914V28.8838C199.221 28.3516 199.291 27.8486 199.433 27.375C199.579 26.8965 199.797 26.4741 200.085 26.1079C200.378 25.7417 200.744 25.4536 201.184 25.2437C201.628 25.0337 202.148 24.9287 202.744 24.9287C203.364 24.9287 203.906 25.0557 204.37 25.3096C204.833 25.5586 205.197 25.9004 205.461 26.335C205.729 26.7646 205.876 27.2529 205.9 27.7998H204.611C204.587 27.4727 204.494 27.1772 204.333 26.9136C204.177 26.6499 203.962 26.4399 203.688 26.2837C203.42 26.1226 203.105 26.042 202.744 26.042C202.329 26.042 201.979 26.125 201.696 26.291C201.418 26.4521 201.196 26.6719 201.03 26.9502C200.869 27.2236 200.751 27.5288 200.678 27.8657C200.61 28.1978 200.576 28.5371 200.576 28.8838V29.1914C200.576 29.5381 200.61 29.8799 200.678 30.2168C200.746 30.5537 200.861 30.8589 201.022 31.1323C201.188 31.4058 201.411 31.6255 201.689 31.7915C201.972 31.9526 202.324 32.0332 202.744 32.0332ZM207.065 29.1255V28.957C207.065 28.3857 207.148 27.856 207.314 27.3677C207.48 26.8745 207.719 26.4473 208.032 26.0859C208.344 25.7197 208.723 25.4365 209.167 25.2363C209.611 25.0312 210.109 24.9287 210.661 24.9287C211.218 24.9287 211.718 25.0312 212.163 25.2363C212.612 25.4365 212.993 25.7197 213.305 26.0859C213.622 26.4473 213.864 26.8745 214.03 27.3677C214.196 27.856 214.279 28.3857 214.279 28.957V29.1255C214.279 29.6968 214.196 30.2266 214.03 30.7148C213.864 31.2031 213.622 31.6304 213.305 31.9966C212.993 32.3579 212.614 32.6411 212.17 32.8462C211.73 33.0464 211.232 33.1465 210.676 33.1465C210.119 33.1465 209.619 33.0464 209.174 32.8462C208.73 32.6411 208.349 32.3579 208.032 31.9966C207.719 31.6304 207.48 31.2031 207.314 30.7148C207.148 30.2266 207.065 29.6968 207.065 29.1255ZM208.42 28.957V29.1255C208.42 29.521 208.466 29.8945 208.559 30.2461C208.652 30.5928 208.791 30.9004 208.976 31.1689C209.167 31.4375 209.404 31.6499 209.687 31.8062C209.97 31.9575 210.3 32.0332 210.676 32.0332C211.047 32.0332 211.371 31.9575 211.65 31.8062C211.933 31.6499 212.167 31.4375 212.353 31.1689C212.538 30.9004 212.678 30.5928 212.77 30.2461C212.868 29.8945 212.917 29.521 212.917 29.1255V28.957C212.917 28.5664 212.868 28.1978 212.77 27.8511C212.678 27.4995 212.536 27.1895 212.346 26.9209C212.16 26.6475 211.926 26.4326 211.642 26.2764C211.364 26.1201 211.037 26.042 210.661 26.042C210.29 26.042 209.963 26.1201 209.68 26.2764C209.401 26.4326 209.167 26.6475 208.976 26.9209C208.791 27.1895 208.652 27.4995 208.559 27.8511C208.466 28.1978 208.42 28.5664 208.42 28.957ZM217.333 26.7671V33H215.978V25.0752H217.26L217.333 26.7671ZM217.011 28.7373L216.447 28.7153C216.452 28.1733 216.533 27.6729 216.689 27.2139C216.845 26.75 217.065 26.3472 217.348 26.0054C217.631 25.6636 217.968 25.3999 218.359 25.2144C218.754 25.0239 219.191 24.9287 219.67 24.9287C220.06 24.9287 220.412 24.9824 220.725 25.0898C221.037 25.1924 221.303 25.3584 221.523 25.5879C221.747 25.8174 221.918 26.1152 222.036 26.4814C222.153 26.8428 222.211 27.2847 222.211 27.8071V33H220.849V27.7925C220.849 27.3774 220.788 27.0454 220.666 26.7964C220.544 26.5425 220.366 26.3594 220.131 26.2471C219.897 26.1299 219.609 26.0713 219.267 26.0713C218.93 26.0713 218.622 26.1421 218.344 26.2837C218.071 26.4253 217.834 26.6206 217.634 26.8696C217.438 27.1187 217.285 27.4043 217.172 27.7266C217.065 28.0439 217.011 28.3809 217.011 28.7373ZM227.587 25.0752V26.1152H223.303V25.0752H227.587ZM224.753 23.1489H226.108V31.0371C226.108 31.3057 226.149 31.5083 226.232 31.645C226.315 31.7817 226.423 31.8721 226.555 31.916C226.686 31.96 226.828 31.9819 226.979 31.9819C227.092 31.9819 227.209 31.9722 227.331 31.9526C227.458 31.9282 227.553 31.9087 227.617 31.894L227.624 33C227.517 33.0342 227.375 33.0659 227.199 33.0952C227.028 33.1294 226.821 33.1465 226.577 33.1465C226.245 33.1465 225.939 33.0806 225.661 32.9487C225.383 32.8169 225.161 32.5972 224.995 32.2896C224.833 31.9771 224.753 31.5571 224.753 31.0298V23.1489ZM232.465 33.1465C231.913 33.1465 231.413 33.0537 230.964 32.8682C230.519 32.6777 230.136 32.4116 229.814 32.0698C229.496 31.728 229.252 31.3228 229.081 30.854C228.911 30.3853 228.825 29.8726 228.825 29.3159V29.0083C228.825 28.3638 228.92 27.79 229.111 27.2871C229.301 26.7793 229.56 26.3496 229.887 25.998C230.214 25.6465 230.585 25.3804 231 25.1997C231.415 25.019 231.845 24.9287 232.289 24.9287C232.856 24.9287 233.344 25.0264 233.754 25.2217C234.169 25.417 234.509 25.6904 234.772 26.042C235.036 26.3887 235.231 26.7988 235.358 27.2725C235.485 27.7412 235.549 28.2539 235.549 28.8105V29.4185H229.631V28.3125H234.194V28.21C234.174 27.8584 234.101 27.5166 233.974 27.1846C233.852 26.8525 233.657 26.5791 233.388 26.3643C233.12 26.1494 232.753 26.042 232.289 26.042C231.982 26.042 231.699 26.1079 231.44 26.2397C231.181 26.3667 230.959 26.5571 230.773 26.811C230.588 27.0649 230.444 27.375 230.341 27.7412C230.239 28.1074 230.187 28.5298 230.187 29.0083V29.3159C230.187 29.6919 230.239 30.0459 230.341 30.3779C230.449 30.7051 230.602 30.9932 230.803 31.2422C231.008 31.4912 231.254 31.6865 231.542 31.8281C231.835 31.9697 232.167 32.0405 232.538 32.0405C233.017 32.0405 233.422 31.9429 233.754 31.7476C234.086 31.5522 234.377 31.291 234.626 30.9639L235.446 31.6157C235.275 31.8745 235.058 32.1211 234.794 32.3555C234.531 32.5898 234.206 32.7803 233.82 32.9268C233.439 33.0732 232.988 33.1465 232.465 33.1465ZM238.486 26.7671V33H237.131V25.0752H238.413L238.486 26.7671ZM238.163 28.7373L237.6 28.7153C237.604 28.1733 237.685 27.6729 237.841 27.2139C237.997 26.75 238.217 26.3472 238.5 26.0054C238.784 25.6636 239.121 25.3999 239.511 25.2144C239.907 25.0239 240.344 24.9287 240.822 24.9287C241.213 24.9287 241.564 24.9824 241.877 25.0898C242.189 25.1924 242.455 25.3584 242.675 25.5879C242.9 25.8174 243.071 26.1152 243.188 26.4814C243.305 26.8428 243.364 27.2847 243.364 27.8071V33H242.001V27.7925C242.001 27.3774 241.94 27.0454 241.818 26.7964C241.696 26.5425 241.518 26.3594 241.284 26.2471C241.049 26.1299 240.761 26.0713 240.419 26.0713C240.082 26.0713 239.775 26.1421 239.496 26.2837C239.223 26.4253 238.986 26.6206 238.786 26.8696C238.591 27.1187 238.437 27.4043 238.325 27.7266C238.217 28.0439 238.163 28.3809 238.163 28.7373ZM248.74 25.0752V26.1152H244.455V25.0752H248.74ZM245.905 23.1489H247.26V31.0371C247.26 31.3057 247.302 31.5083 247.385 31.645C247.468 31.7817 247.575 31.8721 247.707 31.916C247.839 31.96 247.98 31.9819 248.132 31.9819C248.244 31.9819 248.361 31.9722 248.483 31.9526C248.61 31.9282 248.705 31.9087 248.769 31.894L248.776 33C248.669 33.0342 248.527 33.0659 248.351 33.0952C248.181 33.1294 247.973 33.1465 247.729 33.1465C247.397 33.1465 247.092 33.0806 246.813 32.9487C246.535 32.8169 246.313 32.5972 246.147 32.2896C245.986 31.9771 245.905 31.5571 245.905 31.0298V23.1489ZM250.351 32.2822C250.351 32.0527 250.422 31.8599 250.563 31.7036C250.71 31.5425 250.92 31.4619 251.193 31.4619C251.467 31.4619 251.674 31.5425 251.816 31.7036C251.962 31.8599 252.036 32.0527 252.036 32.2822C252.036 32.5068 251.962 32.6973 251.816 32.8535C251.674 33.0098 251.467 33.0879 251.193 33.0879C250.92 33.0879 250.71 33.0098 250.563 32.8535C250.422 32.6973 250.351 32.5068 250.351 32.2822ZM316.826 25.0752V33H315.463V25.0752H316.826ZM315.361 22.9731C315.361 22.7534 315.427 22.5679 315.559 22.4165C315.695 22.2651 315.895 22.1895 316.159 22.1895C316.418 22.1895 316.616 22.2651 316.752 22.4165C316.894 22.5679 316.965 22.7534 316.965 22.9731C316.965 23.1831 316.894 23.3638 316.752 23.5151C316.616 23.6616 316.418 23.7349 316.159 23.7349C315.895 23.7349 315.695 23.6616 315.559 23.5151C315.427 23.3638 315.361 23.1831 315.361 22.9731ZM321.022 33H319.667V24.2402C319.667 23.6689 319.77 23.188 319.975 22.7974C320.185 22.4019 320.485 22.104 320.876 21.9038C321.267 21.6987 321.73 21.5962 322.267 21.5962C322.424 21.5962 322.58 21.606 322.736 21.6255C322.897 21.645 323.054 21.6743 323.205 21.7134L323.132 22.8193C323.029 22.7949 322.912 22.7778 322.78 22.7681C322.653 22.7583 322.526 22.7534 322.399 22.7534C322.111 22.7534 321.862 22.812 321.652 22.9292C321.447 23.0415 321.291 23.2075 321.184 23.4272C321.076 23.647 321.022 23.918 321.022 24.2402V33ZM322.707 25.0752V26.1152H318.415V25.0752H322.707ZM50.3877 50.7671V57H49.0327V49.0752H50.3145L50.3877 50.7671ZM50.0654 52.7373L49.5015 52.7153C49.5063 52.1733 49.5869 51.6729 49.7432 51.2139C49.8994 50.75 50.1191 50.3472 50.4023 50.0054C50.6855 49.6636 51.0225 49.3999 51.4131 49.2144C51.8086 49.0239 52.2456 48.9287 52.7241 48.9287C53.1147 48.9287 53.4663 48.9824 53.7788 49.0898C54.0913 49.1924 54.3574 49.3584 54.5771 49.5879C54.8018 49.8174 54.9727 50.1152 55.0898 50.4814C55.207 50.8428 55.2656 51.2847 55.2656 51.8071V57H53.9033V51.7925C53.9033 51.3774 53.8423 51.0454 53.7202 50.7964C53.5981 50.5425 53.4199 50.3594 53.1855 50.2471C52.9512 50.1299 52.6631 50.0713 52.3213 50.0713C51.9844 50.0713 51.6768 50.1421 51.3984 50.2837C51.125 50.4253 50.8882 50.6206 50.688 50.8696C50.4927 51.1187 50.3389 51.4043 50.2266 51.7266C50.1191 52.0439 50.0654 52.3809 50.0654 52.7373ZM60.6123 57.1465C60.0605 57.1465 59.5601 57.0537 59.1108 56.8682C58.6665 56.6777 58.2832 56.4116 57.9609 56.0698C57.6436 55.728 57.3994 55.3228 57.2285 54.854C57.0576 54.3853 56.9722 53.8726 56.9722 53.3159V53.0083C56.9722 52.3638 57.0674 51.79 57.2578 51.2871C57.4482 50.7793 57.707 50.3496 58.0342 49.998C58.3613 49.6465 58.7324 49.3804 59.1475 49.1997C59.5625 49.019 59.9922 48.9287 60.4365 48.9287C61.0029 48.9287 61.4912 49.0264 61.9014 49.2217C62.3164 49.417 62.6558 49.6904 62.9194 50.042C63.1831 50.3887 63.3784 50.7988 63.5054 51.2725C63.6323 51.7412 63.6958 52.2539 63.6958 52.8105V53.4185H57.7778V52.3125H62.3408V52.21C62.3213 51.8584 62.248 51.5166 62.1211 51.1846C61.999 50.8525 61.8037 50.5791 61.5352 50.3643C61.2666 50.1494 60.9004 50.042 60.4365 50.042C60.1289 50.042 59.8457 50.1079 59.5869 50.2397C59.3281 50.3667 59.106 50.5571 58.9204 50.811C58.7349 51.0649 58.5908 51.375 58.4883 51.7412C58.3857 52.1074 58.3345 52.5298 58.3345 53.0083V53.3159C58.3345 53.6919 58.3857 54.0459 58.4883 54.3779C58.5957 54.7051 58.7495 54.9932 58.9497 55.2422C59.1548 55.4912 59.4014 55.6865 59.6895 55.8281C59.9824 55.9697 60.3145 56.0405 60.6855 56.0405C61.1641 56.0405 61.5693 55.9429 61.9014 55.7476C62.2334 55.5522 62.5239 55.291 62.7729 54.9639L63.5933 55.6157C63.4224 55.8745 63.2051 56.1211 62.9414 56.3555C62.6777 56.5898 62.353 56.7803 61.9673 56.9268C61.5864 57.0732 61.1348 57.1465 60.6123 57.1465ZM68.4492 56.0332C68.7715 56.0332 69.0693 55.9673 69.3428 55.8354C69.6162 55.7036 69.8408 55.5229 70.0166 55.2935C70.1924 55.0591 70.2925 54.793 70.3169 54.4951H71.606C71.5815 54.9639 71.4229 55.4009 71.1299 55.8062C70.8418 56.2065 70.4634 56.5312 69.9946 56.7803C69.5259 57.0244 69.0107 57.1465 68.4492 57.1465C67.8535 57.1465 67.3335 57.0415 66.8892 56.8315C66.4497 56.6216 66.0835 56.3335 65.7905 55.9673C65.5024 55.6011 65.2852 55.1812 65.1387 54.7075C64.9971 54.229 64.9263 53.7236 64.9263 53.1914V52.8838C64.9263 52.3516 64.9971 51.8486 65.1387 51.375C65.2852 50.8965 65.5024 50.4741 65.7905 50.1079C66.0835 49.7417 66.4497 49.4536 66.8892 49.2437C67.3335 49.0337 67.8535 48.9287 68.4492 48.9287C69.0693 48.9287 69.6113 49.0557 70.0752 49.3096C70.5391 49.5586 70.9028 49.9004 71.1665 50.335C71.4351 50.7646 71.5815 51.2529 71.606 51.7998H70.3169C70.2925 51.4727 70.1997 51.1772 70.0386 50.9136C69.8823 50.6499 69.6675 50.4399 69.394 50.2837C69.1255 50.1226 68.8105 50.042 68.4492 50.042C68.0342 50.042 67.6851 50.125 67.4019 50.291C67.1235 50.4521 66.9014 50.6719 66.7354 50.9502C66.5742 51.2236 66.457 51.5288 66.3838 51.8657C66.3154 52.1978 66.2812 52.5371 66.2812 52.8838V53.1914C66.2812 53.5381 66.3154 53.8799 66.3838 54.2168C66.4521 54.5537 66.5669 54.8589 66.728 55.1323C66.894 55.4058 67.1162 55.6255 67.3945 55.7915C67.6777 55.9526 68.0293 56.0332 68.4492 56.0332ZM76.418 57.1465C75.8662 57.1465 75.3657 57.0537 74.9165 56.8682C74.4722 56.6777 74.0889 56.4116 73.7666 56.0698C73.4492 55.728 73.2051 55.3228 73.0342 54.854C72.8633 54.3853 72.7778 53.8726 72.7778 53.3159V53.0083C72.7778 52.3638 72.873 51.79 73.0635 51.2871C73.2539 50.7793 73.5127 50.3496 73.8398 49.998C74.167 49.6465 74.5381 49.3804 74.9531 49.1997C75.3682 49.019 75.7979 48.9287 76.2422 48.9287C76.8086 48.9287 77.2969 49.0264 77.707 49.2217C78.1221 49.417 78.4614 49.6904 78.7251 50.042C78.9888 50.3887 79.1841 50.7988 79.311 51.2725C79.438 51.7412 79.5015 52.2539 79.5015 52.8105V53.4185H73.5835V52.3125H78.1465V52.21C78.127 51.8584 78.0537 51.5166 77.9268 51.1846C77.8047 50.8525 77.6094 50.5791 77.3408 50.3643C77.0723 50.1494 76.7061 50.042 76.2422 50.042C75.9346 50.042 75.6514 50.1079 75.3926 50.2397C75.1338 50.3667 74.9116 50.5571 74.7261 50.811C74.5405 51.0649 74.3965 51.375 74.2939 51.7412C74.1914 52.1074 74.1401 52.5298 74.1401 53.0083V53.3159C74.1401 53.6919 74.1914 54.0459 74.2939 54.3779C74.4014 54.7051 74.5552 54.9932 74.7554 55.2422C74.9604 55.4912 75.207 55.6865 75.4951 55.8281C75.7881 55.9697 76.1201 56.0405 76.4912 56.0405C76.9697 56.0405 77.375 55.9429 77.707 55.7476C78.0391 55.5522 78.3296 55.291 78.5786 54.9639L79.3989 55.6157C79.228 55.8745 79.0107 56.1211 78.7471 56.3555C78.4834 56.5898 78.1587 56.7803 77.7729 56.9268C77.3921 57.0732 76.9404 57.1465 76.418 57.1465ZM85.6978 54.8979C85.6978 54.7026 85.6538 54.522 85.5659 54.356C85.4829 54.1851 85.3096 54.0312 85.0459 53.8945C84.7871 53.7529 84.3965 53.6309 83.874 53.5283C83.4346 53.4355 83.0366 53.3257 82.6802 53.1987C82.3286 53.0718 82.0283 52.918 81.7793 52.7373C81.5352 52.5566 81.3472 52.3442 81.2153 52.1001C81.0835 51.856 81.0176 51.5703 81.0176 51.2432C81.0176 50.9307 81.0859 50.6353 81.2227 50.3569C81.3643 50.0786 81.562 49.832 81.8159 49.6172C82.0747 49.4023 82.3848 49.2339 82.7461 49.1118C83.1074 48.9897 83.5103 48.9287 83.9546 48.9287C84.5894 48.9287 85.1313 49.041 85.5806 49.2656C86.0298 49.4902 86.374 49.7905 86.6133 50.1665C86.8525 50.5376 86.9722 50.9502 86.9722 51.4043H85.6172C85.6172 51.1846 85.5513 50.9722 85.4194 50.7671C85.2925 50.5571 85.1045 50.3838 84.8555 50.2471C84.6113 50.1104 84.311 50.042 83.9546 50.042C83.5786 50.042 83.2734 50.1006 83.0391 50.2178C82.8096 50.3301 82.6411 50.4741 82.5337 50.6499C82.4312 50.8257 82.3799 51.0112 82.3799 51.2065C82.3799 51.353 82.4043 51.4849 82.4531 51.6021C82.5068 51.7144 82.5996 51.8193 82.7314 51.917C82.8633 52.0098 83.0488 52.0977 83.2881 52.1807C83.5273 52.2637 83.8325 52.3467 84.2036 52.4297C84.853 52.5762 85.3877 52.752 85.8076 52.957C86.2275 53.1621 86.54 53.4136 86.7451 53.7114C86.9502 54.0093 87.0527 54.3706 87.0527 54.7954C87.0527 55.1421 86.9795 55.4595 86.833 55.7476C86.6914 56.0356 86.4839 56.2847 86.2104 56.4946C85.9419 56.6997 85.6196 56.8608 85.2437 56.978C84.8726 57.0903 84.4551 57.1465 83.9912 57.1465C83.293 57.1465 82.7021 57.022 82.2188 56.7729C81.7354 56.5239 81.3691 56.2017 81.1201 55.8062C80.8711 55.4106 80.7466 54.9932 80.7466 54.5537H82.1089C82.1284 54.9248 82.2358 55.2202 82.4312 55.4399C82.6265 55.6548 82.8657 55.8086 83.1489 55.9014C83.4321 55.9893 83.7129 56.0332 83.9912 56.0332C84.3623 56.0332 84.6724 55.9844 84.9214 55.8867C85.1753 55.7891 85.3682 55.6548 85.5 55.4839C85.6318 55.313 85.6978 55.1177 85.6978 54.8979ZM93.4468 54.8979C93.4468 54.7026 93.4028 54.522 93.3149 54.356C93.2319 54.1851 93.0586 54.0312 92.7949 53.8945C92.5361 53.7529 92.1455 53.6309 91.623 53.5283C91.1836 53.4355 90.7856 53.3257 90.4292 53.1987C90.0776 53.0718 89.7773 52.918 89.5283 52.7373C89.2842 52.5566 89.0962 52.3442 88.9644 52.1001C88.8325 51.856 88.7666 51.5703 88.7666 51.2432C88.7666 50.9307 88.835 50.6353 88.9717 50.3569C89.1133 50.0786 89.311 49.832 89.5649 49.6172C89.8237 49.4023 90.1338 49.2339 90.4951 49.1118C90.8564 48.9897 91.2593 48.9287 91.7036 48.9287C92.3384 48.9287 92.8804 49.041 93.3296 49.2656C93.7788 49.4902 94.123 49.7905 94.3623 50.1665C94.6016 50.5376 94.7212 50.9502 94.7212 51.4043H93.3662C93.3662 51.1846 93.3003 50.9722 93.1685 50.7671C93.0415 50.5571 92.8535 50.3838 92.6045 50.2471C92.3604 50.1104 92.0601 50.042 91.7036 50.042C91.3276 50.042 91.0225 50.1006 90.7881 50.2178C90.5586 50.3301 90.3901 50.4741 90.2827 50.6499C90.1802 50.8257 90.1289 51.0112 90.1289 51.2065C90.1289 51.353 90.1533 51.4849 90.2021 51.6021C90.2559 51.7144 90.3486 51.8193 90.4805 51.917C90.6123 52.0098 90.7979 52.0977 91.0371 52.1807C91.2764 52.2637 91.5815 52.3467 91.9526 52.4297C92.6021 52.5762 93.1367 52.752 93.5566 52.957C93.9766 53.1621 94.2891 53.4136 94.4941 53.7114C94.6992 54.0093 94.8018 54.3706 94.8018 54.7954C94.8018 55.1421 94.7285 55.4595 94.582 55.7476C94.4404 56.0356 94.2329 56.2847 93.9595 56.4946C93.6909 56.6997 93.3687 56.8608 92.9927 56.978C92.6216 57.0903 92.2041 57.1465 91.7402 57.1465C91.042 57.1465 90.4512 57.022 89.9678 56.7729C89.4844 56.5239 89.1182 56.2017 88.8691 55.8062C88.6201 55.4106 88.4956 54.9932 88.4956 54.5537H89.8579C89.8774 54.9248 89.9849 55.2202 90.1802 55.4399C90.3755 55.6548 90.6147 55.8086 90.8979 55.9014C91.1812 55.9893 91.4619 56.0332 91.7402 56.0332C92.1113 56.0332 92.4214 55.9844 92.6704 55.8867C92.9243 55.7891 93.1172 55.6548 93.249 55.4839C93.3809 55.313 93.4468 55.1177 93.4468 54.8979ZM101.254 55.645V51.5654C101.254 51.2529 101.191 50.9819 101.064 50.7524C100.942 50.5181 100.756 50.3374 100.507 50.2104C100.258 50.0835 99.9507 50.02 99.5845 50.02C99.2427 50.02 98.9424 50.0786 98.6836 50.1958C98.4297 50.313 98.2295 50.4668 98.083 50.6572C97.9414 50.8477 97.8706 51.0527 97.8706 51.2725H96.5156C96.5156 50.9893 96.5889 50.7085 96.7354 50.4302C96.8818 50.1519 97.0918 49.9004 97.3652 49.6758C97.6436 49.4463 97.9756 49.2656 98.3613 49.1338C98.752 48.9971 99.1865 48.9287 99.665 48.9287C100.241 48.9287 100.749 49.0264 101.188 49.2217C101.633 49.417 101.979 49.7124 102.229 50.1079C102.482 50.4985 102.609 50.9893 102.609 51.5801V55.2715C102.609 55.5352 102.631 55.8159 102.675 56.1138C102.724 56.4116 102.795 56.668 102.888 56.8828V57H101.474C101.406 56.8438 101.352 56.6362 101.313 56.3774C101.274 56.1138 101.254 55.8696 101.254 55.645ZM101.489 52.1953L101.503 53.1475H100.134C99.748 53.1475 99.4038 53.1792 99.1011 53.2427C98.7983 53.3013 98.5444 53.3916 98.3394 53.5137C98.1343 53.6357 97.978 53.7896 97.8706 53.9751C97.7632 54.1558 97.7095 54.3682 97.7095 54.6123C97.7095 54.8613 97.7656 55.0884 97.8779 55.2935C97.9902 55.4985 98.1587 55.6621 98.3833 55.7842C98.6128 55.9014 98.8936 55.96 99.2256 55.96C99.6406 55.96 100.007 55.8721 100.324 55.6963C100.642 55.5205 100.893 55.3057 101.079 55.0518C101.269 54.7979 101.372 54.5513 101.386 54.312L101.965 54.9639C101.931 55.1689 101.838 55.396 101.687 55.645C101.535 55.894 101.333 56.1333 101.079 56.3628C100.83 56.5874 100.532 56.7754 100.185 56.9268C99.8433 57.0732 99.4575 57.1465 99.0278 57.1465C98.4907 57.1465 98.0195 57.0415 97.6143 56.8315C97.2139 56.6216 96.9014 56.3408 96.6768 55.9893C96.457 55.6328 96.3472 55.2349 96.3472 54.7954C96.3472 54.3706 96.4302 53.9971 96.5962 53.6748C96.7622 53.3477 97.0015 53.0767 97.314 52.8618C97.6265 52.6421 98.0024 52.4761 98.4419 52.3638C98.8813 52.2515 99.3721 52.1953 99.9141 52.1953H101.489ZM106.096 50.3203V57H104.741V49.0752H106.059L106.096 50.3203ZM108.571 49.0312L108.564 50.291C108.452 50.2666 108.344 50.252 108.242 50.2471C108.144 50.2373 108.032 50.2324 107.905 50.2324C107.592 50.2324 107.316 50.2812 107.077 50.3789C106.838 50.4766 106.635 50.6133 106.469 50.7891C106.303 50.9648 106.171 51.1748 106.074 51.4189C105.981 51.6582 105.92 51.9219 105.891 52.21L105.51 52.4297C105.51 51.9512 105.556 51.502 105.649 51.082C105.747 50.6621 105.896 50.291 106.096 49.9688C106.296 49.6416 106.55 49.3877 106.857 49.207C107.17 49.0215 107.541 48.9287 107.971 48.9287C108.068 48.9287 108.181 48.9409 108.308 48.9653C108.435 48.9849 108.522 49.0068 108.571 49.0312ZM112.182 56.1797L114.387 49.0752H115.837L112.658 58.2231C112.585 58.4185 112.487 58.6284 112.365 58.853C112.248 59.0825 112.097 59.2998 111.911 59.5049C111.726 59.71 111.501 59.876 111.237 60.0029C110.979 60.1348 110.668 60.2007 110.307 60.2007C110.2 60.2007 110.063 60.186 109.897 60.1567C109.731 60.1274 109.614 60.103 109.545 60.0835L109.538 58.9849C109.577 58.9897 109.638 58.9946 109.721 58.9995C109.809 59.0093 109.87 59.0142 109.904 59.0142C110.212 59.0142 110.473 58.9727 110.688 58.8896C110.903 58.8115 111.083 58.6772 111.23 58.4868C111.381 58.3013 111.511 58.0449 111.618 57.7178L112.182 56.1797ZM110.563 49.0752L112.622 55.2275L112.973 56.6558L111.999 57.1538L109.084 49.0752H110.563ZM116.291 56.2822C116.291 56.0527 116.362 55.8599 116.503 55.7036C116.65 55.5425 116.86 55.4619 117.133 55.4619C117.407 55.4619 117.614 55.5425 117.756 55.7036C117.902 55.8599 117.976 56.0527 117.976 56.2822C117.976 56.5068 117.902 56.6973 117.756 56.8535C117.614 57.0098 117.407 57.0879 117.133 57.0879C116.86 57.0879 116.65 57.0098 116.503 56.8535C116.362 56.6973 116.291 56.5068 116.291 56.2822Z" fill="#1A1A1A"/>
<path d="M262.158 23.2808L258.627 33H257.184L261.249 22.3359H262.18L262.158 23.2808ZM265.117 33L261.579 23.2808L261.557 22.3359H262.487L266.567 33H265.117ZM264.934 29.0522V30.2095H258.942V29.0522H264.934ZM272.785 31.4619V21.75H274.147V33H272.902L272.785 31.4619ZM267.453 29.1255V28.9717C267.453 28.3662 267.526 27.8169 267.673 27.3237C267.824 26.8257 268.037 26.3984 268.31 26.042C268.588 25.6855 268.918 25.4121 269.299 25.2217C269.684 25.0264 270.114 24.9287 270.588 24.9287C271.086 24.9287 271.52 25.0166 271.892 25.1924C272.267 25.3633 272.585 25.6147 272.844 25.9468C273.107 26.2739 273.315 26.6694 273.466 27.1333C273.618 27.5972 273.723 28.1221 273.781 28.708V29.3818C273.727 29.9629 273.622 30.4854 273.466 30.9492C273.315 31.4131 273.107 31.8086 272.844 32.1357C272.585 32.4629 272.267 32.7144 271.892 32.8901C271.516 33.061 271.076 33.1465 270.573 33.1465C270.109 33.1465 269.684 33.0464 269.299 32.8462C268.918 32.646 268.588 32.3652 268.31 32.0039C268.037 31.6426 267.824 31.2178 267.673 30.7295C267.526 30.2363 267.453 29.7017 267.453 29.1255ZM268.815 28.9717V29.1255C268.815 29.521 268.854 29.8921 268.933 30.2388C269.016 30.5854 269.142 30.8906 269.313 31.1543C269.484 31.418 269.702 31.6255 269.965 31.7769C270.229 31.9233 270.544 31.9966 270.91 31.9966C271.359 31.9966 271.728 31.9014 272.016 31.7109C272.309 31.5205 272.543 31.269 272.719 30.9565C272.895 30.644 273.032 30.3047 273.129 29.9385V28.1733C273.071 27.9048 272.985 27.646 272.873 27.397C272.766 27.1431 272.624 26.9185 272.448 26.7231C272.277 26.5229 272.065 26.3643 271.811 26.2471C271.562 26.1299 271.267 26.0713 270.925 26.0713C270.554 26.0713 270.234 26.1494 269.965 26.3057C269.702 26.457 269.484 26.667 269.313 26.9355C269.142 27.1992 269.016 27.5068 268.933 27.8584C268.854 28.2051 268.815 28.5762 268.815 28.9717ZM281.252 31.4619V21.75H282.614V33H281.369L281.252 31.4619ZM275.92 29.1255V28.9717C275.92 28.3662 275.993 27.8169 276.14 27.3237C276.291 26.8257 276.503 26.3984 276.777 26.042C277.055 25.6855 277.385 25.4121 277.766 25.2217C278.151 25.0264 278.581 24.9287 279.055 24.9287C279.553 24.9287 279.987 25.0166 280.358 25.1924C280.734 25.3633 281.052 25.6147 281.31 25.9468C281.574 26.2739 281.782 26.6694 281.933 27.1333C282.084 27.5972 282.189 28.1221 282.248 28.708V29.3818C282.194 29.9629 282.089 30.4854 281.933 30.9492C281.782 31.4131 281.574 31.8086 281.31 32.1357C281.052 32.4629 280.734 32.7144 280.358 32.8901C279.982 33.061 279.543 33.1465 279.04 33.1465C278.576 33.1465 278.151 33.0464 277.766 32.8462C277.385 32.646 277.055 32.3652 276.777 32.0039C276.503 31.6426 276.291 31.2178 276.14 30.7295C275.993 30.2363 275.92 29.7017 275.92 29.1255ZM277.282 28.9717V29.1255C277.282 29.521 277.321 29.8921 277.399 30.2388C277.482 30.5854 277.609 30.8906 277.78 31.1543C277.951 31.418 278.168 31.6255 278.432 31.7769C278.696 31.9233 279.011 31.9966 279.377 31.9966C279.826 31.9966 280.195 31.9014 280.483 31.7109C280.776 31.5205 281.01 31.269 281.186 30.9565C281.362 30.644 281.498 30.3047 281.596 29.9385V28.1733C281.538 27.9048 281.452 27.646 281.34 27.397C281.232 27.1431 281.091 26.9185 280.915 26.7231C280.744 26.5229 280.532 26.3643 280.278 26.2471C280.029 26.1299 279.733 26.0713 279.392 26.0713C279.02 26.0713 278.701 26.1494 278.432 26.3057C278.168 26.457 277.951 26.667 277.78 26.9355C277.609 27.1992 277.482 27.5068 277.399 27.8584C277.321 28.2051 277.282 28.5762 277.282 28.9717ZM289.916 21.75V33H288.554V21.75H289.916ZM293.564 25.0752V33H292.202V25.0752H293.564ZM292.099 22.9731C292.099 22.7534 292.165 22.5679 292.297 22.4165C292.434 22.2651 292.634 22.1895 292.897 22.1895C293.156 22.1895 293.354 22.2651 293.491 22.4165C293.632 22.5679 293.703 22.7534 293.703 22.9731C293.703 23.1831 293.632 23.3638 293.491 23.5151C293.354 23.6616 293.156 23.7349 292.897 23.7349C292.634 23.7349 292.434 23.6616 292.297 23.5151C292.165 23.3638 292.099 23.1831 292.099 22.9731ZM297.094 26.7671V33H295.739V25.0752H297.021L297.094 26.7671ZM296.772 28.7373L296.208 28.7153C296.213 28.1733 296.293 27.6729 296.45 27.2139C296.606 26.75 296.826 26.3472 297.109 26.0054C297.392 25.6636 297.729 25.3999 298.12 25.2144C298.515 25.0239 298.952 24.9287 299.431 24.9287C299.821 24.9287 300.173 24.9824 300.485 25.0898C300.798 25.1924 301.064 25.3584 301.284 25.5879C301.508 25.8174 301.679 26.1152 301.796 26.4814C301.913 26.8428 301.972 27.2847 301.972 27.8071V33H300.61V27.7925C300.61 27.3774 300.549 27.0454 300.427 26.7964C300.305 26.5425 300.126 26.3594 299.892 26.2471C299.658 26.1299 299.37 26.0713 299.028 26.0713C298.691 26.0713 298.383 26.1421 298.105 26.2837C297.831 26.4253 297.595 26.6206 297.394 26.8696C297.199 27.1187 297.045 27.4043 296.933 27.7266C296.826 28.0439 296.772 28.3809 296.772 28.7373ZM305.392 21.75V33H304.03V21.75H305.392ZM310.234 25.0752L306.777 28.7739L304.843 30.7808L304.733 29.3379L306.118 27.6826L308.579 25.0752H310.234ZM308.996 33L306.169 29.2207L306.872 28.0122L310.593 33H308.996Z" fill="#286EF1"/>
<path d="M256.972 34.4648H310.6V35.1973H256.972V34.4648Z" fill="#286EF1"/>
<path d="M68.4497 88.5532H66.0439V87.29H68.4497C68.8687 87.29 69.2072 87.2223 69.4653 87.0869C69.7235 86.9515 69.9118 86.7653 70.0303 86.5283C70.153 86.2871 70.2144 86.012 70.2144 85.7031C70.2144 85.4111 70.153 85.1382 70.0303 84.8843C69.9118 84.6261 69.7235 84.4188 69.4653 84.2622C69.2072 84.1056 68.8687 84.0273 68.4497 84.0273H66.5327V92H64.9395V82.7578H68.4497C69.1649 82.7578 69.7721 82.8848 70.2715 83.1387C70.7751 83.3883 71.158 83.7354 71.4204 84.1797C71.6828 84.6198 71.814 85.1234 71.814 85.6904C71.814 86.2871 71.6828 86.7992 71.4204 87.2266C71.158 87.654 70.7751 87.9819 70.2715 88.2104C69.7721 88.439 69.1649 88.5532 68.4497 88.5532ZM74.626 86.4395V92H73.0962V85.1318H74.5562L74.626 86.4395ZM76.7271 85.0874L76.7144 86.5093C76.6213 86.4924 76.5197 86.4797 76.4097 86.4712C76.3039 86.4627 76.1981 86.4585 76.0923 86.4585C75.8299 86.4585 75.5993 86.4966 75.4004 86.5728C75.2015 86.6447 75.0343 86.7505 74.8989 86.8901C74.7677 87.0256 74.6662 87.1906 74.5942 87.3853C74.5223 87.5799 74.48 87.7979 74.4673 88.0391L74.1182 88.0645C74.1182 87.6328 74.1605 87.2329 74.2451 86.8647C74.3298 86.4966 74.4567 86.1729 74.626 85.8936C74.7995 85.6143 75.0153 85.3963 75.2734 85.2397C75.5358 85.0832 75.8384 85.0049 76.1812 85.0049C76.2743 85.0049 76.3737 85.0133 76.4795 85.0303C76.5895 85.0472 76.672 85.0662 76.7271 85.0874ZM79.3232 85.1318V92H77.7871V85.1318H79.3232ZM77.6855 83.3291C77.6855 83.0964 77.7617 82.9038 77.9141 82.7515C78.0706 82.5949 78.2865 82.5166 78.5615 82.5166C78.8324 82.5166 79.0461 82.5949 79.2026 82.7515C79.3592 82.9038 79.4375 83.0964 79.4375 83.3291C79.4375 83.5576 79.3592 83.748 79.2026 83.9004C79.0461 84.0527 78.8324 84.1289 78.5615 84.1289C78.2865 84.1289 78.0706 84.0527 77.9141 83.9004C77.7617 83.748 77.6855 83.5576 77.6855 83.3291ZM82.5288 86.5283V92H80.999V85.1318H82.4399L82.5288 86.5283ZM82.2812 88.312L81.7607 88.3057C81.7607 87.8317 81.82 87.3937 81.9385 86.9917C82.057 86.5897 82.2305 86.2406 82.459 85.9443C82.6875 85.6439 82.971 85.4132 83.3096 85.2524C83.6523 85.0874 84.048 85.0049 84.4966 85.0049C84.8097 85.0049 85.0954 85.0514 85.3535 85.1445C85.6159 85.2334 85.8423 85.3752 86.0327 85.5698C86.2274 85.7645 86.3755 86.0142 86.4771 86.3188C86.5828 86.6235 86.6357 86.9917 86.6357 87.4233V92H85.106V87.5566C85.106 87.2223 85.0552 86.96 84.9536 86.7695C84.8563 86.5791 84.7145 86.4437 84.5283 86.3633C84.3464 86.2786 84.1284 86.2363 83.8745 86.2363C83.5868 86.2363 83.3413 86.2913 83.1382 86.4014C82.9393 86.5114 82.7764 86.6616 82.6494 86.8521C82.5225 87.0425 82.4294 87.2625 82.3701 87.5122C82.3109 87.7619 82.2812 88.0285 82.2812 88.312ZM86.5405 87.9058L85.8232 88.0645C85.8232 87.6497 85.8804 87.2583 85.9946 86.8901C86.1131 86.5177 86.2845 86.1919 86.5088 85.9126C86.7373 85.6291 87.0187 85.4069 87.353 85.2461C87.6873 85.0853 88.0703 85.0049 88.502 85.0049C88.8532 85.0049 89.1663 85.0535 89.4414 85.1509C89.7207 85.244 89.9577 85.3921 90.1523 85.5952C90.347 85.7983 90.4951 86.0628 90.5967 86.3887C90.6982 86.7103 90.749 87.0996 90.749 87.5566V92H89.2129V87.5503C89.2129 87.2033 89.1621 86.9346 89.0605 86.7441C88.9632 86.5537 88.8236 86.4225 88.6416 86.3506C88.4596 86.2744 88.2417 86.2363 87.9878 86.2363C87.7508 86.2363 87.5413 86.2808 87.3594 86.3696C87.1816 86.4543 87.0314 86.5749 86.9087 86.7314C86.786 86.8838 86.6929 87.0594 86.6294 87.2583C86.5701 87.4572 86.5405 87.673 86.5405 87.9058ZM96.1953 90.6226V87.3472C96.1953 87.1017 96.1509 86.8901 96.062 86.7124C95.9731 86.5347 95.8377 86.3971 95.6558 86.2998C95.478 86.2025 95.2537 86.1538 94.9829 86.1538C94.7332 86.1538 94.5174 86.1961 94.3354 86.2808C94.1535 86.3654 94.0117 86.4797 93.9102 86.6235C93.8086 86.7674 93.7578 86.9303 93.7578 87.1123H92.2344C92.2344 86.8415 92.3 86.5791 92.4312 86.3252C92.5623 86.0713 92.7528 85.8449 93.0024 85.646C93.2521 85.4471 93.5505 85.2905 93.8975 85.1763C94.2445 85.062 94.6338 85.0049 95.0654 85.0049C95.5817 85.0049 96.0387 85.0916 96.4365 85.2651C96.8385 85.4386 97.1538 85.701 97.3823 86.0522C97.6151 86.3993 97.7314 86.8351 97.7314 87.3599V90.4131C97.7314 90.7262 97.7526 91.0076 97.7949 91.2573C97.8415 91.5028 97.9071 91.7165 97.9917 91.8984V92H96.4238C96.3519 91.835 96.2948 91.6255 96.2524 91.3716C96.2144 91.1134 96.1953 90.8638 96.1953 90.6226ZM96.4175 87.8232L96.4302 88.769H95.332C95.0485 88.769 94.7988 88.7965 94.583 88.8516C94.3672 88.9023 94.1873 88.9785 94.0435 89.0801C93.8996 89.1816 93.7917 89.3044 93.7197 89.4482C93.6478 89.5921 93.6118 89.755 93.6118 89.937C93.6118 90.119 93.6541 90.2861 93.7388 90.4385C93.8234 90.5866 93.9461 90.703 94.1069 90.7876C94.272 90.8722 94.4709 90.9146 94.7036 90.9146C95.0168 90.9146 95.2897 90.8511 95.5225 90.7241C95.7594 90.5929 95.9456 90.4342 96.0811 90.248C96.2165 90.0576 96.2884 89.8778 96.2969 89.7085L96.792 90.3877C96.7412 90.5612 96.6545 90.7474 96.5317 90.9463C96.409 91.1452 96.2482 91.3356 96.0493 91.5176C95.8547 91.6953 95.6198 91.8413 95.3447 91.9556C95.0739 92.0698 94.7607 92.127 94.4053 92.127C93.9567 92.127 93.5568 92.0381 93.2056 91.8604C92.8543 91.6784 92.5793 91.4351 92.3804 91.1304C92.1815 90.8215 92.082 90.4723 92.082 90.083C92.082 89.7191 92.1497 89.3975 92.2852 89.1182C92.4248 88.8346 92.6279 88.5977 92.8945 88.4072C93.1654 88.2168 93.4954 88.0729 93.8848 87.9756C94.2741 87.874 94.7184 87.8232 95.2178 87.8232H96.4175ZM100.867 86.4395V92H99.3374V85.1318H100.797L100.867 86.4395ZM102.968 85.0874L102.956 86.5093C102.862 86.4924 102.761 86.4797 102.651 86.4712C102.545 86.4627 102.439 86.4585 102.333 86.4585C102.071 86.4585 101.84 86.4966 101.642 86.5728C101.443 86.6447 101.276 86.7505 101.14 86.8901C101.009 87.0256 100.907 87.1906 100.835 87.3853C100.764 87.5799 100.721 87.7979 100.708 88.0391L100.359 88.0645C100.359 87.6328 100.402 87.2329 100.486 86.8647C100.571 86.4966 100.698 86.1729 100.867 85.8936C101.041 85.6143 101.257 85.3963 101.515 85.2397C101.777 85.0832 102.08 85.0049 102.422 85.0049C102.515 85.0049 102.615 85.0133 102.721 85.0303C102.831 85.0472 102.913 85.0662 102.968 85.0874ZM106.034 91.251L107.9 85.1318H109.538L106.783 93.0474C106.72 93.2166 106.637 93.4007 106.536 93.5996C106.434 93.7985 106.301 93.9868 106.136 94.1646C105.975 94.3465 105.774 94.4925 105.533 94.6025C105.292 94.7168 105 94.7739 104.657 94.7739C104.521 94.7739 104.39 94.7612 104.263 94.7358C104.14 94.7147 104.024 94.6914 103.914 94.666L103.908 93.498C103.95 93.5023 104.001 93.5065 104.06 93.5107C104.124 93.515 104.174 93.5171 104.212 93.5171C104.466 93.5171 104.678 93.4854 104.847 93.4219C105.016 93.3626 105.154 93.2653 105.26 93.1299C105.37 92.9945 105.463 92.8125 105.539 92.584L106.034 91.251ZM104.98 85.1318L106.612 90.2734L106.885 91.8857L105.825 92.1587L103.33 85.1318H104.98Z" fill="#1A1A1A"/>
<rect x="48.5" y="72.5" width="77" height="31" rx="3.5" stroke="#1A1A1A"/>
<path d="M155.802 89.6196C155.802 89.4292 155.772 89.2599 155.713 89.1118C155.658 88.9637 155.558 88.8283 155.415 88.7056C155.271 88.5828 155.068 88.4644 154.805 88.3501C154.547 88.2316 154.217 88.111 153.815 87.9883C153.375 87.8529 152.969 87.7026 152.596 87.5376C152.228 87.3683 151.906 87.1737 151.631 86.9536C151.356 86.7293 151.143 86.4733 150.99 86.1855C150.838 85.8936 150.762 85.5571 150.762 85.1763C150.762 84.7996 150.84 84.4569 150.997 84.1479C151.157 83.839 151.384 83.5724 151.676 83.3481C151.972 83.1196 152.321 82.944 152.723 82.8213C153.125 82.6943 153.569 82.6309 154.056 82.6309C154.742 82.6309 155.332 82.7578 155.827 83.0117C156.326 83.2656 156.709 83.6063 156.976 84.0337C157.247 84.4611 157.382 84.9329 157.382 85.4492H155.802C155.802 85.1445 155.736 84.8758 155.605 84.6431C155.478 84.4061 155.283 84.2199 155.021 84.0845C154.763 83.9491 154.435 83.8813 154.037 83.8813C153.66 83.8813 153.347 83.9385 153.098 84.0527C152.848 84.167 152.662 84.3215 152.539 84.5161C152.416 84.7108 152.355 84.9308 152.355 85.1763C152.355 85.3498 152.395 85.5085 152.476 85.6523C152.556 85.792 152.679 85.9232 152.844 86.0459C153.009 86.1644 153.216 86.2765 153.466 86.3823C153.715 86.4881 154.01 86.5897 154.348 86.687C154.86 86.8394 155.307 87.0086 155.688 87.1948C156.068 87.3768 156.386 87.5841 156.64 87.8169C156.894 88.0496 157.084 88.3141 157.211 88.6104C157.338 88.9023 157.401 89.2345 157.401 89.6069C157.401 89.9963 157.323 90.3475 157.167 90.6606C157.01 90.9696 156.786 91.234 156.494 91.4541C156.206 91.6699 155.859 91.8371 155.453 91.9556C155.051 92.0698 154.602 92.127 154.107 92.127C153.663 92.127 153.225 92.0677 152.793 91.9492C152.366 91.8307 151.976 91.6509 151.625 91.4097C151.274 91.1642 150.994 90.8595 150.787 90.4956C150.58 90.1274 150.476 89.6979 150.476 89.207H152.069C152.069 89.5075 152.12 89.7635 152.222 89.9751C152.327 90.1867 152.473 90.3602 152.66 90.4956C152.846 90.6268 153.062 90.7241 153.307 90.7876C153.557 90.8511 153.823 90.8828 154.107 90.8828C154.479 90.8828 154.79 90.8299 155.04 90.7241C155.294 90.6183 155.484 90.4702 155.611 90.2798C155.738 90.0894 155.802 89.8693 155.802 89.6196ZM161.686 92.127C161.178 92.127 160.719 92.0444 160.309 91.8794C159.902 91.7101 159.555 91.4753 159.268 91.1748C158.984 90.8743 158.766 90.521 158.614 90.1147C158.461 89.7085 158.385 89.2705 158.385 88.8008V88.5469C158.385 88.0094 158.464 87.5228 158.62 87.0869C158.777 86.651 158.995 86.2786 159.274 85.9697C159.553 85.6566 159.883 85.4175 160.264 85.2524C160.645 85.0874 161.058 85.0049 161.502 85.0049C161.993 85.0049 162.422 85.0874 162.791 85.2524C163.159 85.4175 163.463 85.6502 163.705 85.9507C163.95 86.2469 164.132 86.6003 164.25 87.0107C164.373 87.4212 164.435 87.874 164.435 88.3691V89.0229H159.128V87.9248H162.924V87.8042C162.915 87.5291 162.86 87.271 162.759 87.0298C162.661 86.7886 162.511 86.5939 162.308 86.4458C162.105 86.2977 161.834 86.2236 161.496 86.2236C161.242 86.2236 161.015 86.2786 160.816 86.3887C160.622 86.4945 160.459 86.6489 160.328 86.8521C160.196 87.0552 160.095 87.3006 160.023 87.5884C159.955 87.8719 159.921 88.1914 159.921 88.5469V88.8008C159.921 89.1012 159.962 89.3805 160.042 89.6387C160.127 89.8926 160.249 90.1147 160.41 90.3052C160.571 90.4956 160.766 90.6458 160.994 90.7559C161.223 90.8617 161.483 90.9146 161.775 90.9146C162.143 90.9146 162.471 90.8405 162.759 90.6924C163.047 90.5443 163.296 90.3348 163.508 90.064L164.314 90.8447C164.166 91.0605 163.973 91.2679 163.736 91.4668C163.499 91.6615 163.209 91.8201 162.867 91.9429C162.528 92.0656 162.135 92.127 161.686 92.127ZM168.434 90.9082C168.683 90.9082 168.908 90.8595 169.106 90.7622C169.31 90.6606 169.472 90.521 169.595 90.3433C169.722 90.1655 169.792 89.9603 169.805 89.7275H171.246C171.237 90.1719 171.106 90.576 170.852 90.9399C170.598 91.3039 170.262 91.5938 169.843 91.8096C169.424 92.0212 168.96 92.127 168.453 92.127C167.928 92.127 167.471 92.0381 167.082 91.8604C166.692 91.6784 166.368 91.4287 166.11 91.1113C165.852 90.7939 165.658 90.4279 165.526 90.0132C165.399 89.5985 165.336 89.1541 165.336 88.6802V88.458C165.336 87.984 165.399 87.5397 165.526 87.125C165.658 86.7061 165.852 86.3379 166.11 86.0205C166.368 85.7031 166.692 85.4556 167.082 85.2778C167.471 85.0959 167.926 85.0049 168.446 85.0049C168.996 85.0049 169.479 85.1149 169.894 85.335C170.308 85.5508 170.634 85.8534 170.871 86.2427C171.112 86.6278 171.237 87.0763 171.246 87.5884H169.805C169.792 87.3345 169.729 87.106 169.614 86.9028C169.504 86.6955 169.348 86.5304 169.145 86.4077C168.946 86.285 168.707 86.2236 168.427 86.2236C168.118 86.2236 167.862 86.2871 167.659 86.4141C167.456 86.5368 167.297 86.7061 167.183 86.9219C167.069 87.1335 166.986 87.3726 166.936 87.6392C166.889 87.9015 166.866 88.1745 166.866 88.458V88.6802C166.866 88.9637 166.889 89.2388 166.936 89.5054C166.982 89.772 167.062 90.0111 167.177 90.2227C167.295 90.43 167.456 90.5972 167.659 90.7241C167.862 90.8468 168.12 90.9082 168.434 90.9082ZM172.128 88.6421V88.4961C172.128 88.001 172.2 87.5418 172.344 87.1187C172.488 86.6912 172.695 86.321 172.966 86.0078C173.241 85.6904 173.575 85.445 173.969 85.2715C174.367 85.0938 174.815 85.0049 175.314 85.0049C175.818 85.0049 176.267 85.0938 176.66 85.2715C177.058 85.445 177.394 85.6904 177.669 86.0078C177.944 86.321 178.154 86.6912 178.298 87.1187C178.442 87.5418 178.514 88.001 178.514 88.4961V88.6421C178.514 89.1372 178.442 89.5964 178.298 90.0195C178.154 90.4427 177.944 90.813 177.669 91.1304C177.394 91.4435 177.06 91.689 176.667 91.8667C176.273 92.0402 175.826 92.127 175.327 92.127C174.824 92.127 174.373 92.0402 173.975 91.8667C173.582 91.689 173.247 91.4435 172.972 91.1304C172.697 90.813 172.488 90.4427 172.344 90.0195C172.2 89.5964 172.128 89.1372 172.128 88.6421ZM173.658 88.4961V88.6421C173.658 88.951 173.689 89.243 173.753 89.5181C173.816 89.7931 173.916 90.0343 174.051 90.2417C174.187 90.4491 174.36 90.612 174.572 90.7305C174.783 90.849 175.035 90.9082 175.327 90.9082C175.611 90.9082 175.856 90.849 176.063 90.7305C176.275 90.612 176.449 90.4491 176.584 90.2417C176.719 90.0343 176.819 89.7931 176.882 89.5181C176.95 89.243 176.984 88.951 176.984 88.6421V88.4961C176.984 88.1914 176.95 87.9036 176.882 87.6328C176.819 87.3577 176.717 87.1144 176.578 86.9028C176.442 86.6912 176.269 86.5262 176.057 86.4077C175.85 86.285 175.602 86.2236 175.314 86.2236C175.027 86.2236 174.777 86.285 174.565 86.4077C174.358 86.5262 174.187 86.6912 174.051 86.9028C173.916 87.1144 173.816 87.3577 173.753 87.6328C173.689 87.9036 173.658 88.1914 173.658 88.4961ZM181.313 86.5981V92H179.783V85.1318H181.224L181.313 86.5981ZM181.04 88.312L180.545 88.3057C180.549 87.819 180.617 87.3726 180.748 86.9663C180.883 86.5601 181.07 86.2109 181.307 85.9189C181.548 85.627 181.836 85.4027 182.17 85.2461C182.504 85.0853 182.877 85.0049 183.287 85.0049C183.617 85.0049 183.916 85.0514 184.182 85.1445C184.453 85.2334 184.684 85.3794 184.874 85.5825C185.069 85.7856 185.217 86.0501 185.318 86.376C185.42 86.6976 185.471 87.0933 185.471 87.563V92H183.935V87.5566C183.935 87.2266 183.886 86.9663 183.789 86.7759C183.695 86.5812 183.558 86.4437 183.376 86.3633C183.198 86.2786 182.976 86.2363 182.709 86.2363C182.447 86.2363 182.212 86.2913 182.005 86.4014C181.798 86.5114 181.622 86.6616 181.478 86.8521C181.338 87.0425 181.23 87.2625 181.154 87.5122C181.078 87.7619 181.04 88.0285 181.04 88.312ZM191.222 90.5781V82.25H192.758V92H191.368L191.222 90.5781ZM186.753 88.6421V88.5088C186.753 87.9883 186.814 87.5143 186.937 87.0869C187.06 86.6553 187.237 86.285 187.47 85.9761C187.703 85.6629 187.986 85.4238 188.321 85.2588C188.655 85.0895 189.032 85.0049 189.451 85.0049C189.865 85.0049 190.229 85.0853 190.542 85.2461C190.856 85.4069 191.122 85.6375 191.342 85.938C191.562 86.2342 191.738 86.5897 191.869 87.0044C192 87.4149 192.093 87.8719 192.148 88.3755V88.8008C192.093 89.2917 192 89.7402 191.869 90.1465C191.738 90.5527 191.562 90.904 191.342 91.2002C191.122 91.4964 190.854 91.7249 190.536 91.8857C190.223 92.0465 189.857 92.127 189.438 92.127C189.023 92.127 188.649 92.0402 188.314 91.8667C187.984 91.6932 187.703 91.4499 187.47 91.1367C187.237 90.8236 187.06 90.4554 186.937 90.0322C186.814 89.6048 186.753 89.1414 186.753 88.6421ZM188.283 88.5088V88.6421C188.283 88.9552 188.31 89.2472 188.365 89.5181C188.424 89.7889 188.515 90.028 188.638 90.2354C188.761 90.4385 188.92 90.5993 189.114 90.7178C189.313 90.832 189.55 90.8892 189.825 90.8892C190.172 90.8892 190.458 90.813 190.682 90.6606C190.906 90.5083 191.082 90.3031 191.209 90.0449C191.34 89.7826 191.429 89.4906 191.476 89.1689V88.02C191.45 87.7703 191.397 87.5376 191.317 87.3218C191.241 87.106 191.137 86.9176 191.006 86.7568C190.875 86.5918 190.712 86.4648 190.517 86.376C190.327 86.2829 190.1 86.2363 189.838 86.2363C189.559 86.2363 189.322 86.2956 189.127 86.4141C188.932 86.5326 188.771 86.6955 188.645 86.9028C188.522 87.1102 188.431 87.3514 188.372 87.6265C188.312 87.9015 188.283 88.1956 188.283 88.5088ZM198.229 90.6226V87.3472C198.229 87.1017 198.185 86.8901 198.096 86.7124C198.007 86.5347 197.872 86.3971 197.69 86.2998C197.512 86.2025 197.288 86.1538 197.017 86.1538C196.767 86.1538 196.552 86.1961 196.37 86.2808C196.188 86.3654 196.046 86.4797 195.944 86.6235C195.843 86.7674 195.792 86.9303 195.792 87.1123H194.269C194.269 86.8415 194.334 86.5791 194.465 86.3252C194.597 86.0713 194.787 85.8449 195.037 85.646C195.286 85.4471 195.585 85.2905 195.932 85.1763C196.279 85.062 196.668 85.0049 197.1 85.0049C197.616 85.0049 198.073 85.0916 198.471 85.2651C198.873 85.4386 199.188 85.701 199.417 86.0522C199.649 86.3993 199.766 86.8351 199.766 87.3599V90.4131C199.766 90.7262 199.787 91.0076 199.829 91.2573C199.876 91.5028 199.941 91.7165 200.026 91.8984V92H198.458C198.386 91.835 198.329 91.6255 198.287 91.3716C198.249 91.1134 198.229 90.8638 198.229 90.6226ZM198.452 87.8232L198.464 88.769H197.366C197.083 88.769 196.833 88.7965 196.617 88.8516C196.401 88.9023 196.222 88.9785 196.078 89.0801C195.934 89.1816 195.826 89.3044 195.754 89.4482C195.682 89.5921 195.646 89.755 195.646 89.937C195.646 90.119 195.688 90.2861 195.773 90.4385C195.858 90.5866 195.98 90.703 196.141 90.7876C196.306 90.8722 196.505 90.9146 196.738 90.9146C197.051 90.9146 197.324 90.8511 197.557 90.7241C197.794 90.5929 197.98 90.4342 198.115 90.248C198.251 90.0576 198.323 89.8778 198.331 89.7085L198.826 90.3877C198.775 90.5612 198.689 90.7474 198.566 90.9463C198.443 91.1452 198.282 91.3356 198.083 91.5176C197.889 91.6953 197.654 91.8413 197.379 91.9556C197.108 92.0698 196.795 92.127 196.439 92.127C195.991 92.127 195.591 92.0381 195.24 91.8604C194.889 91.6784 194.613 91.4351 194.415 91.1304C194.216 90.8215 194.116 90.4723 194.116 90.083C194.116 89.7191 194.184 89.3975 194.319 89.1182C194.459 88.8346 194.662 88.5977 194.929 88.4072C195.2 88.2168 195.53 88.0729 195.919 87.9756C196.308 87.874 196.753 87.8232 197.252 87.8232H198.452ZM202.901 86.4395V92H201.372V85.1318H202.832L202.901 86.4395ZM205.002 85.0874L204.99 86.5093C204.897 86.4924 204.795 86.4797 204.685 86.4712C204.579 86.4627 204.473 86.4585 204.368 86.4585C204.105 86.4585 203.875 86.4966 203.676 86.5728C203.477 86.6447 203.31 86.7505 203.174 86.8901C203.043 87.0256 202.942 87.1906 202.87 87.3853C202.798 87.5799 202.755 87.7979 202.743 88.0391L202.394 88.0645C202.394 87.6328 202.436 87.2329 202.521 86.8647C202.605 86.4966 202.732 86.1729 202.901 85.8936C203.075 85.6143 203.291 85.3963 203.549 85.2397C203.811 85.0832 204.114 85.0049 204.457 85.0049C204.55 85.0049 204.649 85.0133 204.755 85.0303C204.865 85.0472 204.947 85.0662 205.002 85.0874ZM208.068 91.251L209.935 85.1318H211.572L208.817 93.0474C208.754 93.2166 208.671 93.4007 208.57 93.5996C208.468 93.7985 208.335 93.9868 208.17 94.1646C208.009 94.3465 207.808 94.4925 207.567 94.6025C207.326 94.7168 207.034 94.7739 206.691 94.7739C206.556 94.7739 206.424 94.7612 206.297 94.7358C206.175 94.7147 206.058 94.6914 205.948 94.666L205.942 93.498C205.984 93.5023 206.035 93.5065 206.094 93.5107C206.158 93.515 206.208 93.5171 206.247 93.5171C206.5 93.5171 206.712 93.4854 206.881 93.4219C207.051 93.3626 207.188 93.2653 207.294 93.1299C207.404 92.9945 207.497 92.8125 207.573 92.584L208.068 91.251ZM207.015 85.1318L208.646 90.2734L208.919 91.8857L207.859 92.1587L205.364 85.1318H207.015Z" fill="#333333"/>
<path d="M353.705 36.4677C354.056 36.8182 354.056 37.3867 353.705 37.7372C353.354 38.0876 352.783 38.0876 352.432 37.7372L348.001 33.2848L343.538 37.7357C343.186 38.0861 342.616 38.0861 342.265 37.7357C341.913 37.3852 341.913 36.8167 342.265 36.4662L346.729 32.0168L342.264 27.5323C341.912 27.1818 341.912 26.6133 342.264 26.2628C342.615 25.9124 343.185 25.9124 343.536 26.2628L348.001 30.7489L352.464 26.298C352.815 25.9476 353.385 25.9476 353.736 26.298C354.088 26.6484 354.088 27.217 353.736 27.5674L349.272 32.0168L353.705 36.4677Z" fill="#1A1A1A"/>
</svg>
