<svg width="380" height="120" viewBox="0 0 380 120" fill="none" xmlns="http://www.w3.org/2000/svg">
<rect width="380" height="120" fill="#286EF1"/>
<path d="M21.105 28.2466H18.3804L18.3657 26.8257H20.7021C21.1025 26.8257 21.437 26.7695 21.7056 26.6572C21.9741 26.5449 22.1768 26.3813 22.3135 26.1665C22.4551 25.9517 22.5259 25.6904 22.5259 25.3828C22.5259 25.041 22.46 24.7627 22.3281 24.5479C22.2012 24.333 22.001 24.1768 21.7275 24.0791C21.4541 23.9766 21.1074 23.9253 20.6875 23.9253H19.0322V33H17.0181V22.3359H20.6875C21.293 22.3359 21.8325 22.3945 22.3062 22.5117C22.7847 22.624 23.1899 22.7998 23.522 23.0391C23.854 23.2783 24.1055 23.5786 24.2764 23.9399C24.4521 24.3013 24.54 24.731 24.54 25.229C24.54 25.6685 24.4375 26.0737 24.2324 26.4448C24.0322 26.811 23.7222 27.1089 23.3022 27.3384C22.8872 27.5679 22.3599 27.6997 21.7202 27.7339L21.105 28.2466ZM21.0171 33H17.7871L18.6294 31.418H21.0171C21.4175 31.418 21.7471 31.3521 22.0059 31.2202C22.2695 31.0884 22.4648 30.9077 22.5918 30.6782C22.7236 30.4438 22.7896 30.1753 22.7896 29.8726C22.7896 29.5405 22.731 29.2524 22.6138 29.0083C22.5015 28.7642 22.3208 28.5762 22.0718 28.4443C21.8276 28.3125 21.5054 28.2466 21.105 28.2466H19.0103L19.0249 26.8257H21.6909L22.1523 27.375C22.7676 27.3799 23.2681 27.502 23.6538 27.7412C24.0444 27.9805 24.3325 28.2881 24.5181 28.6641C24.7036 29.04 24.7964 29.4453 24.7964 29.8799C24.7964 30.5635 24.6475 31.1372 24.3496 31.6011C24.0566 32.0649 23.627 32.4141 23.0605 32.6484C22.499 32.8828 21.8179 33 21.0171 33ZM28.5438 25.0752V33H26.6029V25.0752H28.5438ZM26.4711 23.0024C26.4711 22.7144 26.5688 22.4751 26.7641 22.2847C26.9643 22.0942 27.2328 21.999 27.5697 21.999C27.9066 21.999 28.1728 22.0942 28.3681 22.2847C28.5683 22.4751 28.6684 22.7144 28.6684 23.0024C28.6684 23.2856 28.5683 23.5225 28.3681 23.7129C28.1728 23.9033 27.9066 23.9985 27.5697 23.9985C27.2328 23.9985 26.9643 23.9033 26.7641 23.7129C26.5688 23.5225 26.4711 23.2856 26.4711 23.0024ZM35.5286 25.0752H37.2864V32.7583C37.2864 33.4761 37.1302 34.084 36.8177 34.582C36.5101 35.085 36.0779 35.4658 35.5213 35.7246C34.9646 35.9883 34.3177 36.1201 33.5804 36.1201C33.263 36.1201 32.9187 36.0762 32.5477 35.9883C32.1814 35.9004 31.8274 35.7612 31.4856 35.5708C31.1487 35.3853 30.868 35.1436 30.6434 34.8457L31.5149 33.7031C31.7786 34.0107 32.0765 34.2427 32.4085 34.3989C32.7405 34.5601 33.0994 34.6406 33.4852 34.6406C33.8758 34.6406 34.2078 34.5674 34.4812 34.4209C34.7596 34.2793 34.972 34.0693 35.1185 33.791C35.2698 33.5176 35.3455 33.1807 35.3455 32.7803V26.8843L35.5286 25.0752ZM30.1746 29.1328V28.979C30.1746 28.3735 30.2479 27.8242 30.3943 27.3311C30.5408 26.833 30.7508 26.4058 31.0242 26.0493C31.3025 25.6929 31.637 25.417 32.0276 25.2217C32.4231 25.0264 32.8675 24.9287 33.3606 24.9287C33.8831 24.9287 34.3226 25.0239 34.679 25.2144C35.0403 25.4048 35.3382 25.6758 35.5726 26.0273C35.8118 26.3789 35.9974 26.7964 36.1292 27.2798C36.2659 27.7583 36.3709 28.2856 36.4441 28.8618V29.2793C36.3758 29.8408 36.2659 30.356 36.1146 30.8247C35.9681 31.2935 35.7728 31.7036 35.5286 32.0552C35.2845 32.4019 34.9817 32.6704 34.6204 32.8608C34.2591 33.0513 33.8343 33.1465 33.346 33.1465C32.8577 33.1465 32.4183 33.0464 32.0276 32.8462C31.637 32.646 31.3025 32.3652 31.0242 32.0039C30.7508 31.6426 30.5408 31.2178 30.3943 30.7295C30.2479 30.2412 30.1746 29.709 30.1746 29.1328ZM32.1082 28.979V29.1328C32.1082 29.4746 32.1424 29.7944 32.2107 30.0923C32.2791 30.3901 32.3841 30.6538 32.5257 30.8833C32.6673 31.1079 32.8455 31.2837 33.0604 31.4106C33.2752 31.5376 33.5315 31.6011 33.8294 31.6011C34.2298 31.6011 34.5569 31.5181 34.8108 31.3521C35.0696 31.1812 35.2649 30.9492 35.3968 30.6562C35.5335 30.3584 35.6214 30.0239 35.6604 29.6528V28.5029C35.636 28.21 35.5823 27.939 35.4993 27.6899C35.4212 27.4409 35.3113 27.2261 35.1697 27.0454C35.0281 26.8647 34.8475 26.7231 34.6277 26.6206C34.408 26.5181 34.1468 26.4668 33.844 26.4668C33.5511 26.4668 33.2947 26.5327 33.075 26.6646C32.8553 26.7915 32.6746 26.9697 32.533 27.1992C32.3914 27.4287 32.284 27.6948 32.2107 27.9976C32.1424 28.3003 32.1082 28.6274 32.1082 28.979ZM46.2975 33H43.9977L44.0123 31.418H46.2975C46.9176 31.418 47.4376 31.2812 47.8575 31.0078C48.2774 30.7295 48.5948 30.3315 48.8097 29.814C49.0245 29.2915 49.1319 28.6665 49.1319 27.939V27.3896C49.1319 26.8281 49.0709 26.3325 48.9488 25.9028C48.8268 25.4731 48.6461 25.1118 48.4068 24.8188C48.1725 24.5259 47.8819 24.3037 47.5353 24.1523C47.1886 24.001 46.7906 23.9253 46.3414 23.9253H43.9537V22.3359H46.3414C47.0543 22.3359 47.7037 22.4556 48.2896 22.6948C48.8805 22.9341 49.3907 23.2783 49.8204 23.7275C50.255 24.1719 50.587 24.7041 50.8165 25.3242C51.0509 25.9443 51.1681 26.6377 51.1681 27.4043V27.939C51.1681 28.7007 51.0509 29.394 50.8165 30.019C50.587 30.6392 50.255 31.1714 49.8204 31.6157C49.3907 32.0601 48.878 32.4019 48.2823 32.6411C47.6866 32.8804 47.025 33 46.2975 33ZM45.1256 22.3359V33H43.1114V22.3359H45.1256ZM57.2007 31.3154V27.6606C57.2007 27.3921 57.1543 27.1602 57.0615 26.9648C56.9688 26.7695 56.8271 26.6182 56.6367 26.5107C56.4463 26.4033 56.2046 26.3496 55.9116 26.3496C55.6528 26.3496 55.4258 26.3936 55.2305 26.4814C55.04 26.5693 54.8936 26.6938 54.791 26.855C54.6885 27.0112 54.6372 27.1919 54.6372 27.397H52.6963C52.6963 27.0698 52.7744 26.7598 52.9307 26.4668C53.0869 26.1689 53.3091 25.9053 53.5972 25.6758C53.8901 25.4414 54.2393 25.2583 54.6445 25.1265C55.0547 24.9946 55.5137 24.9287 56.0215 24.9287C56.6221 24.9287 57.1567 25.0312 57.6255 25.2363C58.0991 25.4365 58.4702 25.7393 58.7388 26.1445C59.0122 26.5498 59.1489 27.0601 59.1489 27.6753V31.1323C59.1489 31.5278 59.1733 31.8672 59.2222 32.1504C59.2759 32.4287 59.354 32.6704 59.4565 32.8755V33H57.4863C57.3936 32.7998 57.3228 32.5459 57.2739 32.2383C57.2251 31.9258 57.2007 31.6182 57.2007 31.3154ZM57.4717 28.1733L57.4863 29.3232H56.2632C55.9604 29.3232 55.6943 29.355 55.4648 29.4185C55.2354 29.4771 55.0474 29.5649 54.9009 29.6821C54.7544 29.7944 54.6445 29.9312 54.5713 30.0923C54.498 30.2485 54.4614 30.4268 54.4614 30.627C54.4614 30.8223 54.5054 30.998 54.5933 31.1543C54.686 31.3105 54.8179 31.4351 54.9888 31.5278C55.1646 31.6157 55.3696 31.6597 55.604 31.6597C55.9458 31.6597 56.2437 31.5913 56.4976 31.4546C56.7515 31.313 56.9492 31.1421 57.0908 30.9419C57.2324 30.7417 57.3081 30.5513 57.3179 30.3706L57.8745 31.2056C57.8062 31.4058 57.7036 31.6182 57.5669 31.8428C57.4302 32.0674 57.2544 32.2773 57.0396 32.4727C56.8247 32.668 56.5659 32.8291 56.2632 32.9561C55.9604 33.083 55.6089 33.1465 55.2085 33.1465C54.6958 33.1465 54.2368 33.0439 53.8315 32.8389C53.4263 32.6338 53.1064 32.353 52.8721 31.9966C52.6377 31.6401 52.5205 31.2349 52.5205 30.7808C52.5205 30.3608 52.5986 29.9897 52.7549 29.6675C52.9111 29.3452 53.1431 29.0742 53.4507 28.8545C53.7583 28.6299 54.1392 28.4614 54.5933 28.3491C55.0522 28.2319 55.5771 28.1733 56.168 28.1733H57.4717ZM63.1967 32.1211L65.3207 25.0752H67.3935L64.2147 34.2012C64.1415 34.3965 64.0463 34.6089 63.9291 34.8384C63.8168 35.0679 63.6654 35.2852 63.475 35.4902C63.2846 35.7002 63.0453 35.8711 62.7572 36.0029C62.474 36.1348 62.1298 36.2007 61.7245 36.2007C61.5487 36.2007 61.3925 36.1885 61.2558 36.1641C61.119 36.1396 60.975 36.1079 60.8236 36.0688V34.6187C60.8725 34.6235 60.9286 34.626 60.9921 34.626C61.0604 34.6309 61.119 34.6333 61.1679 34.6333C61.4511 34.6333 61.6854 34.5991 61.871 34.5308C62.0565 34.4673 62.2055 34.3623 62.3178 34.2158C62.435 34.0742 62.5326 33.8887 62.6107 33.6592L63.1967 32.1211ZM62.1493 25.0752L63.9437 30.9126L64.2587 32.9561L62.9257 33.1978L60.0619 25.0752H62.1493ZM70.6355 22.3359L70.4231 29.7993H68.7898L68.5774 22.3359H70.6355ZM68.5188 32.0991C68.5188 31.811 68.6165 31.5693 68.8118 31.374C69.012 31.1738 69.2806 31.0737 69.6175 31.0737C69.9544 31.0737 70.2205 31.1738 70.4158 31.374C70.616 31.5693 70.7161 31.811 70.7161 32.0991C70.7161 32.3823 70.616 32.6216 70.4158 32.8169C70.2205 33.0122 69.9544 33.1099 69.6175 33.1099C69.2806 33.1099 69.012 33.0122 68.8118 32.8169C68.6165 32.6216 68.5188 32.3823 68.5188 32.0991ZM79.6173 33H77.3907L77.4054 31.8501H79.6173C80.379 31.8501 81.0138 31.6914 81.5216 31.374C82.0294 31.0518 82.4103 30.6025 82.6642 30.0264C82.923 29.4453 83.0523 28.7666 83.0523 27.9902V27.3384C83.0523 26.728 82.9791 26.186 82.8326 25.7124C82.6861 25.2339 82.4713 24.8311 82.1881 24.5039C81.9049 24.1719 81.5582 23.9204 81.148 23.7495C80.7428 23.5786 80.2765 23.4932 79.7491 23.4932H77.3468V22.3359H79.7491C80.4474 22.3359 81.0846 22.4531 81.6607 22.6875C82.2369 22.917 82.7325 23.2515 83.1476 23.6909C83.5675 24.1255 83.8897 24.6528 84.1144 25.2729C84.339 25.8882 84.4513 26.5815 84.4513 27.353V27.9902C84.4513 28.7617 84.339 29.4575 84.1144 30.0776C83.8897 30.6929 83.565 31.2178 83.1402 31.6523C82.7203 32.0869 82.2125 32.4214 81.6168 32.6558C81.026 32.8853 80.3595 33 79.6173 33ZM78.1451 22.3359V33H76.7315V22.3359H78.1451ZM87.9424 25.0752V33H86.5801V25.0752H87.9424ZM86.4775 22.9731C86.4775 22.7534 86.5435 22.5679 86.6753 22.4165C86.812 22.2651 87.0122 22.1895 87.2759 22.1895C87.5347 22.1895 87.7324 22.2651 87.8691 22.4165C88.0107 22.5679 88.0815 22.7534 88.0815 22.9731C88.0815 23.1831 88.0107 23.3638 87.8691 23.5151C87.7324 23.6616 87.5347 23.7349 87.2759 23.7349C87.0122 23.7349 86.812 23.6616 86.6753 23.5151C86.5435 23.3638 86.4775 23.1831 86.4775 22.9731ZM94.8319 30.8979C94.8319 30.7026 94.788 30.522 94.7001 30.356C94.6171 30.1851 94.4437 30.0312 94.1801 29.8945C93.9213 29.7529 93.5307 29.6309 93.0082 29.5283C92.5687 29.4355 92.1708 29.3257 91.8144 29.1987C91.4628 29.0718 91.1625 28.918 90.9135 28.7373C90.6693 28.5566 90.4813 28.3442 90.3495 28.1001C90.2177 27.856 90.1518 27.5703 90.1518 27.2432C90.1518 26.9307 90.2201 26.6353 90.3568 26.3569C90.4984 26.0786 90.6962 25.832 90.9501 25.6172C91.2089 25.4023 91.5189 25.2339 91.8803 25.1118C92.2416 24.9897 92.6444 24.9287 93.0888 24.9287C93.7235 24.9287 94.2655 25.041 94.7147 25.2656C95.164 25.4902 95.5082 25.7905 95.7475 26.1665C95.9867 26.5376 96.1063 26.9502 96.1063 27.4043H94.7514C94.7514 27.1846 94.6854 26.9722 94.5536 26.7671C94.4267 26.5571 94.2387 26.3838 93.9896 26.2471C93.7455 26.1104 93.4452 26.042 93.0888 26.042C92.7128 26.042 92.4076 26.1006 92.1732 26.2178C91.9437 26.3301 91.7753 26.4741 91.6679 26.6499C91.5653 26.8257 91.5141 27.0112 91.5141 27.2065C91.5141 27.353 91.5385 27.4849 91.5873 27.6021C91.641 27.7144 91.7338 27.8193 91.8656 27.917C91.9975 28.0098 92.183 28.0977 92.4223 28.1807C92.6615 28.2637 92.9667 28.3467 93.3378 28.4297C93.9872 28.5762 94.5219 28.752 94.9418 28.957C95.3617 29.1621 95.6742 29.4136 95.8793 29.7114C96.0844 30.0093 96.1869 30.3706 96.1869 30.7954C96.1869 31.1421 96.1137 31.4595 95.9672 31.7476C95.8256 32.0356 95.6181 32.2847 95.3446 32.4946C95.0761 32.6997 94.7538 32.8608 94.3778 32.978C94.0067 33.0903 93.5893 33.1465 93.1254 33.1465C92.4271 33.1465 91.8363 33.022 91.3529 32.7729C90.8695 32.5239 90.5033 32.2017 90.2543 31.8062C90.0053 31.4106 89.8808 30.9932 89.8808 30.5537H91.2431C91.2626 30.9248 91.37 31.2202 91.5653 31.4399C91.7606 31.6548 91.9999 31.8086 92.2831 31.9014C92.5663 31.9893 92.8471 32.0332 93.1254 32.0332C93.4965 32.0332 93.8065 31.9844 94.0556 31.8867C94.3095 31.7891 94.5023 31.6548 94.6342 31.4839C94.766 31.313 94.8319 31.1177 94.8319 30.8979ZM99.4217 26.5986V36.0469H98.0594V25.0752H99.3045L99.4217 26.5986ZM104.761 28.9717V29.1255C104.761 29.7017 104.693 30.2363 104.556 30.7295C104.419 31.2178 104.219 31.6426 103.955 32.0039C103.697 32.3652 103.377 32.646 102.996 32.8462C102.615 33.0464 102.178 33.1465 101.685 33.1465C101.182 33.1465 100.738 33.0635 100.352 32.8975C99.9661 32.7314 99.639 32.4897 99.3704 32.1724C99.1019 31.855 98.887 31.4741 98.7259 31.0298C98.5696 30.5854 98.4622 30.085 98.4036 29.5283V28.708C98.4622 28.1221 98.5721 27.5972 98.7332 27.1333C98.8943 26.6694 99.1067 26.2739 99.3704 25.9468C99.639 25.6147 99.9637 25.3633 100.345 25.1924C100.725 25.0166 101.165 24.9287 101.663 24.9287C102.161 24.9287 102.603 25.0264 102.989 25.2217C103.374 25.4121 103.699 25.6855 103.963 26.042C104.226 26.3984 104.424 26.8257 104.556 27.3237C104.693 27.8169 104.761 28.3662 104.761 28.9717ZM103.399 29.1255V28.9717C103.399 28.5762 103.357 28.2051 103.274 27.8584C103.191 27.5068 103.062 27.1992 102.886 26.9355C102.715 26.667 102.495 26.457 102.227 26.3057C101.958 26.1494 101.638 26.0713 101.267 26.0713C100.926 26.0713 100.628 26.1299 100.374 26.2471C100.125 26.3643 99.9124 26.5229 99.7366 26.7231C99.5608 26.9185 99.4168 27.1431 99.3045 27.397C99.1971 27.646 99.1165 27.9048 99.0628 28.1733V30.0703C99.1604 30.4121 99.2972 30.7344 99.4729 31.0371C99.6487 31.335 99.8831 31.5767 100.176 31.7622C100.469 31.9429 100.838 32.0332 101.282 32.0332C101.648 32.0332 101.963 31.9575 102.227 31.8062C102.495 31.6499 102.715 31.4375 102.886 31.1689C103.062 30.9004 103.191 30.5928 103.274 30.2461C103.357 29.8945 103.399 29.521 103.399 29.1255ZM108.062 21.75V33H106.699V21.75H108.062ZM115.01 31.645V27.5654C115.01 27.2529 114.946 26.9819 114.819 26.7524C114.697 26.5181 114.512 26.3374 114.263 26.2104C114.014 26.0835 113.706 26.02 113.34 26.02C112.998 26.02 112.698 26.0786 112.439 26.1958C112.185 26.313 111.985 26.4668 111.838 26.6572C111.697 26.8477 111.626 27.0527 111.626 27.2725H110.271C110.271 26.9893 110.344 26.7085 110.491 26.4302C110.637 26.1519 110.847 25.9004 111.121 25.6758C111.399 25.4463 111.731 25.2656 112.117 25.1338C112.507 24.9971 112.942 24.9287 113.421 24.9287C113.997 24.9287 114.504 25.0264 114.944 25.2217C115.388 25.417 115.735 25.7124 115.984 26.1079C116.238 26.4985 116.365 26.9893 116.365 27.5801V31.2715C116.365 31.5352 116.387 31.8159 116.431 32.1138C116.48 32.4116 116.55 32.668 116.643 32.8828V33H115.23C115.161 32.8438 115.108 32.6362 115.068 32.3774C115.029 32.1138 115.01 31.8696 115.01 31.645ZM115.244 28.1953L115.259 29.1475H113.889C113.504 29.1475 113.159 29.1792 112.857 29.2427C112.554 29.3013 112.3 29.3916 112.095 29.5137C111.89 29.6357 111.733 29.7896 111.626 29.9751C111.519 30.1558 111.465 30.3682 111.465 30.6123C111.465 30.8613 111.521 31.0884 111.633 31.2935C111.746 31.4985 111.914 31.6621 112.139 31.7842C112.368 31.9014 112.649 31.96 112.981 31.96C113.396 31.96 113.762 31.8721 114.08 31.6963C114.397 31.5205 114.649 31.3057 114.834 31.0518C115.025 30.7979 115.127 30.5513 115.142 30.312L115.72 30.9639C115.686 31.1689 115.593 31.396 115.442 31.645C115.291 31.894 115.088 32.1333 114.834 32.3628C114.585 32.5874 114.287 32.7754 113.941 32.9268C113.599 33.0732 113.213 33.1465 112.783 33.1465C112.246 33.1465 111.775 33.0415 111.37 32.8315C110.969 32.6216 110.657 32.3408 110.432 31.9893C110.213 31.6328 110.103 31.2349 110.103 30.7954C110.103 30.3706 110.186 29.9971 110.352 29.6748C110.518 29.3477 110.757 29.0767 111.069 28.8618C111.382 28.6421 111.758 28.4761 112.197 28.3638C112.637 28.2515 113.128 28.1953 113.67 28.1953H115.244ZM120.706 32.1797L122.91 25.0752H124.36L121.182 34.2231C121.108 34.4185 121.011 34.6284 120.889 34.853C120.771 35.0825 120.62 35.2998 120.435 35.5049C120.249 35.71 120.024 35.876 119.761 36.0029C119.502 36.1348 119.192 36.2007 118.831 36.2007C118.723 36.2007 118.586 36.186 118.42 36.1567C118.254 36.1274 118.137 36.103 118.069 36.0835L118.062 34.9849C118.101 34.9897 118.162 34.9946 118.245 34.9995C118.333 35.0093 118.394 35.0142 118.428 35.0142C118.735 35.0142 118.997 34.9727 119.211 34.8896C119.426 34.8115 119.607 34.6772 119.753 34.4868C119.905 34.3013 120.034 34.0449 120.142 33.7178L120.706 32.1797ZM119.087 25.0752L121.145 31.2275L121.497 32.6558L120.522 33.1538L117.607 25.0752H119.087ZM132.822 25.0752V26.1152H128.537V25.0752H132.822ZM129.988 23.1489H131.343V31.0371C131.343 31.3057 131.384 31.5083 131.467 31.645C131.55 31.7817 131.658 31.8721 131.789 31.916C131.921 31.96 132.063 31.9819 132.214 31.9819C132.326 31.9819 132.444 31.9722 132.566 31.9526C132.693 31.9282 132.788 31.9087 132.851 31.894L132.859 33C132.751 33.0342 132.61 33.0659 132.434 33.0952C132.263 33.1294 132.055 33.1465 131.811 33.1465C131.479 33.1465 131.174 33.0806 130.896 32.9487C130.617 32.8169 130.395 32.5972 130.229 32.2896C130.068 31.9771 129.988 31.5571 129.988 31.0298V23.1489ZM135.866 21.75V33H134.511V21.75H135.866ZM135.544 28.7373L134.98 28.7153C134.985 28.1733 135.066 27.6729 135.222 27.2139C135.378 26.75 135.598 26.3472 135.881 26.0054C136.164 25.6636 136.501 25.3999 136.892 25.2144C137.287 25.0239 137.724 24.9287 138.203 24.9287C138.593 24.9287 138.945 24.9824 139.258 25.0898C139.57 25.1924 139.836 25.3584 140.056 25.5879C140.28 25.8174 140.451 26.1152 140.569 26.4814C140.686 26.8428 140.744 27.2847 140.744 27.8071V33H139.382V27.7925C139.382 27.3774 139.321 27.0454 139.199 26.7964C139.077 26.5425 138.899 26.3594 138.664 26.2471C138.43 26.1299 138.142 26.0713 137.8 26.0713C137.463 26.0713 137.155 26.1421 136.877 26.2837C136.604 26.4253 136.367 26.6206 136.167 26.8696C135.971 27.1187 135.818 27.4043 135.705 27.7266C135.598 28.0439 135.544 28.3809 135.544 28.7373ZM144.345 25.0752V33H142.983V25.0752H144.345ZM142.88 22.9731C142.88 22.7534 142.946 22.5679 143.078 22.4165C143.215 22.2651 143.415 22.1895 143.679 22.1895C143.938 22.1895 144.135 22.2651 144.272 22.4165C144.414 22.5679 144.484 22.7534 144.484 22.9731C144.484 23.1831 144.414 23.3638 144.272 23.5151C144.135 23.6616 143.938 23.7349 143.679 23.7349C143.415 23.7349 143.215 23.6616 143.078 23.5151C142.946 23.3638 142.88 23.1831 142.88 22.9731ZM151.235 30.8979C151.235 30.7026 151.191 30.522 151.103 30.356C151.02 30.1851 150.847 30.0312 150.583 29.8945C150.324 29.7529 149.934 29.6309 149.411 29.5283C148.972 29.4355 148.574 29.3257 148.217 29.1987C147.866 29.0718 147.565 28.918 147.316 28.7373C147.072 28.5566 146.884 28.3442 146.752 28.1001C146.621 27.856 146.555 27.5703 146.555 27.2432C146.555 26.9307 146.623 26.6353 146.76 26.3569C146.901 26.0786 147.099 25.832 147.353 25.6172C147.612 25.4023 147.922 25.2339 148.283 25.1118C148.645 24.9897 149.047 24.9287 149.492 24.9287C150.126 24.9287 150.668 25.041 151.118 25.2656C151.567 25.4902 151.911 25.7905 152.15 26.1665C152.39 26.5376 152.509 26.9502 152.509 27.4043H151.154C151.154 27.1846 151.088 26.9722 150.957 26.7671C150.83 26.5571 150.642 26.3838 150.393 26.2471C150.148 26.1104 149.848 26.042 149.492 26.042C149.116 26.042 148.811 26.1006 148.576 26.2178C148.347 26.3301 148.178 26.4741 148.071 26.6499C147.968 26.8257 147.917 27.0112 147.917 27.2065C147.917 27.353 147.941 27.4849 147.99 27.6021C148.044 27.7144 148.137 27.8193 148.269 27.917C148.4 28.0098 148.586 28.0977 148.825 28.1807C149.064 28.2637 149.37 28.3467 149.741 28.4297C150.39 28.5762 150.925 28.752 151.345 28.957C151.765 29.1621 152.077 29.4136 152.282 29.7114C152.487 30.0093 152.59 30.3706 152.59 30.7954C152.59 31.1421 152.517 31.4595 152.37 31.7476C152.229 32.0356 152.021 32.2847 151.748 32.4946C151.479 32.6997 151.157 32.8608 150.781 32.978C150.41 33.0903 149.992 33.1465 149.528 33.1465C148.83 33.1465 148.239 33.022 147.756 32.7729C147.272 32.5239 146.906 32.2017 146.657 31.8062C146.408 31.4106 146.284 30.9932 146.284 30.5537H147.646C147.666 30.9248 147.773 31.2202 147.968 31.4399C148.164 31.6548 148.403 31.8086 148.686 31.9014C148.969 31.9893 149.25 32.0332 149.528 32.0332C149.899 32.0332 150.209 31.9844 150.458 31.8867C150.712 31.7891 150.905 31.6548 151.037 31.4839C151.169 31.313 151.235 31.1177 151.235 30.8979ZM158.283 21.75H159.645V31.4619L159.528 33H158.283V21.75ZM164.999 28.9717V29.1255C164.999 29.7017 164.931 30.2363 164.794 30.7295C164.658 31.2178 164.457 31.6426 164.194 32.0039C163.93 32.3652 163.608 32.646 163.227 32.8462C162.846 33.0464 162.409 33.1465 161.916 33.1465C161.413 33.1465 160.971 33.061 160.59 32.8901C160.214 32.7144 159.897 32.4629 159.638 32.1357C159.379 31.8086 159.172 31.4131 159.015 30.9492C158.864 30.4854 158.759 29.9629 158.7 29.3818V28.708C158.759 28.1221 158.864 27.5972 159.015 27.1333C159.172 26.6694 159.379 26.2739 159.638 25.9468C159.897 25.6147 160.214 25.3633 160.59 25.1924C160.966 25.0166 161.403 24.9287 161.901 24.9287C162.399 24.9287 162.841 25.0264 163.227 25.2217C163.613 25.4121 163.935 25.6855 164.194 26.042C164.457 26.3984 164.658 26.8257 164.794 27.3237C164.931 27.8169 164.999 28.3662 164.999 28.9717ZM163.637 29.1255V28.9717C163.637 28.5762 163.6 28.2051 163.527 27.8584C163.454 27.5068 163.337 27.1992 163.176 26.9355C163.014 26.667 162.802 26.457 162.538 26.3057C162.275 26.1494 161.95 26.0713 161.564 26.0713C161.222 26.0713 160.925 26.1299 160.671 26.2471C160.422 26.3643 160.209 26.5229 160.033 26.7231C159.858 26.9185 159.714 27.1431 159.601 27.397C159.494 27.646 159.413 27.9048 159.36 28.1733V29.9385C159.438 30.2803 159.565 30.6099 159.741 30.9272C159.921 31.2397 160.16 31.4961 160.458 31.6963C160.761 31.8965 161.135 31.9966 161.579 31.9966C161.945 31.9966 162.258 31.9233 162.516 31.7769C162.78 31.6255 162.992 31.418 163.154 31.1543C163.32 30.8906 163.442 30.5854 163.52 30.2388C163.598 29.8921 163.637 29.521 163.637 29.1255ZM171.486 31.645V27.5654C171.486 27.2529 171.423 26.9819 171.296 26.7524C171.174 26.5181 170.988 26.3374 170.739 26.2104C170.49 26.0835 170.182 26.02 169.816 26.02C169.474 26.02 169.174 26.0786 168.915 26.1958C168.661 26.313 168.461 26.4668 168.315 26.6572C168.173 26.8477 168.102 27.0527 168.102 27.2725H166.747C166.747 26.9893 166.821 26.7085 166.967 26.4302C167.113 26.1519 167.323 25.9004 167.597 25.6758C167.875 25.4463 168.207 25.2656 168.593 25.1338C168.984 24.9971 169.418 24.9287 169.897 24.9287C170.473 24.9287 170.981 25.0264 171.42 25.2217C171.864 25.417 172.211 25.7124 172.46 26.1079C172.714 26.4985 172.841 26.9893 172.841 27.5801V31.2715C172.841 31.5352 172.863 31.8159 172.907 32.1138C172.956 32.4116 173.027 32.668 173.119 32.8828V33H171.706C171.637 32.8438 171.584 32.6362 171.545 32.3774C171.506 32.1138 171.486 31.8696 171.486 31.645ZM171.72 28.1953L171.735 29.1475H170.365C169.98 29.1475 169.635 29.1792 169.333 29.2427C169.03 29.3013 168.776 29.3916 168.571 29.5137C168.366 29.6357 168.21 29.7896 168.102 29.9751C167.995 30.1558 167.941 30.3682 167.941 30.6123C167.941 30.8613 167.997 31.0884 168.11 31.2935C168.222 31.4985 168.39 31.6621 168.615 31.7842C168.844 31.9014 169.125 31.96 169.457 31.96C169.872 31.96 170.238 31.8721 170.556 31.6963C170.873 31.5205 171.125 31.3057 171.31 31.0518C171.501 30.7979 171.603 30.5513 171.618 30.312L172.196 30.9639C172.162 31.1689 172.07 31.396 171.918 31.645C171.767 31.894 171.564 32.1333 171.31 32.3628C171.061 32.5874 170.763 32.7754 170.417 32.9268C170.075 33.0732 169.689 33.1465 169.259 33.1465C168.722 33.1465 168.251 33.0415 167.846 32.8315C167.446 32.6216 167.133 32.3408 166.908 31.9893C166.689 31.6328 166.579 31.2349 166.579 30.7954C166.579 30.3706 166.662 29.9971 166.828 29.6748C166.994 29.3477 167.233 29.0767 167.546 28.8618C167.858 28.6421 168.234 28.4761 168.674 28.3638C169.113 28.2515 169.604 28.1953 170.146 28.1953H171.72ZM176.427 26.7671V33H175.072V25.0752H176.354L176.427 26.7671ZM176.105 28.7373L175.541 28.7153C175.546 28.1733 175.627 27.6729 175.783 27.2139C175.939 26.75 176.159 26.3472 176.442 26.0054C176.725 25.6636 177.062 25.3999 177.453 25.2144C177.848 25.0239 178.285 24.9287 178.764 24.9287C179.154 24.9287 179.506 24.9824 179.818 25.0898C180.131 25.1924 180.397 25.3584 180.617 25.5879C180.841 25.8174 181.012 26.1152 181.129 26.4814C181.247 26.8428 181.305 27.2847 181.305 27.8071V33H179.943V27.7925C179.943 27.3774 179.882 27.0454 179.76 26.7964C179.638 26.5425 179.46 26.3594 179.225 26.2471C178.991 26.1299 178.703 26.0713 178.361 26.0713C178.024 26.0713 177.716 26.1421 177.438 26.2837C177.165 26.4253 176.928 26.6206 176.728 26.8696C176.532 27.1187 176.379 27.4043 176.266 27.7266C176.159 28.0439 176.105 28.3809 176.105 28.7373ZM184.818 26.7671V33H183.463V25.0752H184.745L184.818 26.7671ZM184.496 28.7373L183.932 28.7153C183.937 28.1733 184.018 27.6729 184.174 27.2139C184.33 26.75 184.55 26.3472 184.833 26.0054C185.116 25.6636 185.453 25.3999 185.844 25.2144C186.239 25.0239 186.676 24.9287 187.155 24.9287C187.545 24.9287 187.897 24.9824 188.209 25.0898C188.522 25.1924 188.788 25.3584 189.008 25.5879C189.232 25.8174 189.403 26.1152 189.521 26.4814C189.638 26.8428 189.696 27.2847 189.696 27.8071V33H188.334V27.7925C188.334 27.3774 188.273 27.0454 188.151 26.7964C188.029 26.5425 187.851 26.3594 187.616 26.2471C187.382 26.1299 187.094 26.0713 186.752 26.0713C186.415 26.0713 186.107 26.1421 185.829 26.2837C185.556 26.4253 185.319 26.6206 185.119 26.8696C184.923 27.1187 184.77 27.4043 184.657 27.7266C184.55 28.0439 184.496 28.3809 184.496 28.7373ZM195.143 33.1465C194.591 33.1465 194.091 33.0537 193.642 32.8682C193.197 32.6777 192.814 32.4116 192.492 32.0698C192.174 31.728 191.93 31.3228 191.759 30.854C191.588 30.3853 191.503 29.8726 191.503 29.3159V29.0083C191.503 28.3638 191.598 27.79 191.788 27.2871C191.979 26.7793 192.238 26.3496 192.565 25.998C192.892 25.6465 193.263 25.3804 193.678 25.1997C194.093 25.019 194.523 24.9287 194.967 24.9287C195.534 24.9287 196.022 25.0264 196.432 25.2217C196.847 25.417 197.186 25.6904 197.45 26.042C197.714 26.3887 197.909 26.7988 198.036 27.2725C198.163 27.7412 198.226 28.2539 198.226 28.8105V29.4185H192.309V28.3125H196.871V28.21C196.852 27.8584 196.779 27.5166 196.652 27.1846C196.53 26.8525 196.334 26.5791 196.066 26.3643C195.797 26.1494 195.431 26.042 194.967 26.042C194.66 26.042 194.376 26.1079 194.118 26.2397C193.859 26.3667 193.637 26.5571 193.451 26.811C193.266 27.0649 193.121 27.375 193.019 27.7412C192.916 28.1074 192.865 28.5298 192.865 29.0083V29.3159C192.865 29.6919 192.916 30.0459 193.019 30.3779C193.126 30.7051 193.28 30.9932 193.48 31.2422C193.685 31.4912 193.932 31.6865 194.22 31.8281C194.513 31.9697 194.845 32.0405 195.216 32.0405C195.695 32.0405 196.1 31.9429 196.432 31.7476C196.764 31.5522 197.055 31.291 197.304 30.9639L198.124 31.6157C197.953 31.8745 197.736 32.1211 197.472 32.3555C197.208 32.5898 196.884 32.7803 196.498 32.9268C196.117 33.0732 195.665 33.1465 195.143 33.1465ZM201.263 26.3203V33H199.908V25.0752H201.227L201.263 26.3203ZM203.739 25.0312L203.732 26.291C203.619 26.2666 203.512 26.252 203.409 26.2471C203.312 26.2373 203.2 26.2324 203.073 26.2324C202.76 26.2324 202.484 26.2812 202.245 26.3789C202.006 26.4766 201.803 26.6133 201.637 26.7891C201.471 26.9648 201.339 27.1748 201.242 27.4189C201.149 27.6582 201.088 27.9219 201.058 28.21L200.678 28.4297C200.678 27.9512 200.724 27.502 200.817 27.082C200.914 26.6621 201.063 26.291 201.263 25.9688C201.464 25.6416 201.718 25.3877 202.025 25.207C202.338 25.0215 202.709 24.9287 203.138 24.9287C203.236 24.9287 203.348 24.9409 203.475 24.9653C203.602 24.9849 203.69 25.0068 203.739 25.0312ZM210.934 33H209.579V24.2402C209.579 23.6689 209.681 23.188 209.886 22.7974C210.096 22.4019 210.397 22.104 210.787 21.9038C211.178 21.6987 211.642 21.5962 212.179 21.5962C212.335 21.5962 212.491 21.606 212.648 21.6255C212.809 21.645 212.965 21.6743 213.116 21.7134L213.043 22.8193C212.941 22.7949 212.823 22.7778 212.691 22.7681C212.565 22.7583 212.438 22.7534 212.311 22.7534C212.023 22.7534 211.774 22.812 211.564 22.9292C211.358 23.0415 211.202 23.2075 211.095 23.4272C210.987 23.647 210.934 23.918 210.934 24.2402V33ZM212.618 25.0752V26.1152H208.326V25.0752H212.618ZM213.868 29.1255V28.957C213.868 28.3857 213.951 27.856 214.117 27.3677C214.283 26.8745 214.522 26.4473 214.835 26.0859C215.147 25.7197 215.526 25.4365 215.97 25.2363C216.415 25.0312 216.913 24.9287 217.464 24.9287C218.021 24.9287 218.521 25.0312 218.966 25.2363C219.415 25.4365 219.796 25.7197 220.108 26.0859C220.426 26.4473 220.667 26.8745 220.833 27.3677C221 27.856 221.083 28.3857 221.083 28.957V29.1255C221.083 29.6968 221 30.2266 220.833 30.7148C220.667 31.2031 220.426 31.6304 220.108 31.9966C219.796 32.3579 219.417 32.6411 218.973 32.8462C218.534 33.0464 218.036 33.1465 217.479 33.1465C216.922 33.1465 216.422 33.0464 215.978 32.8462C215.533 32.6411 215.152 32.3579 214.835 31.9966C214.522 31.6304 214.283 31.2031 214.117 30.7148C213.951 30.2266 213.868 29.6968 213.868 29.1255ZM215.223 28.957V29.1255C215.223 29.521 215.27 29.8945 215.362 30.2461C215.455 30.5928 215.594 30.9004 215.78 31.1689C215.97 31.4375 216.207 31.6499 216.49 31.8062C216.773 31.9575 217.103 32.0332 217.479 32.0332C217.85 32.0332 218.175 31.9575 218.453 31.8062C218.736 31.6499 218.971 31.4375 219.156 31.1689C219.342 30.9004 219.481 30.5928 219.574 30.2461C219.671 29.8945 219.72 29.521 219.72 29.1255V28.957C219.72 28.5664 219.671 28.1978 219.574 27.8511C219.481 27.4995 219.339 27.1895 219.149 26.9209C218.963 26.6475 218.729 26.4326 218.446 26.2764C218.167 26.1201 217.84 26.042 217.464 26.042C217.093 26.042 216.766 26.1201 216.483 26.2764C216.205 26.4326 215.97 26.6475 215.78 26.9209C215.594 27.1895 215.455 27.4995 215.362 27.8511C215.27 28.1978 215.223 28.5664 215.223 28.957ZM224.237 26.3203V33H222.882V25.0752H224.2L224.237 26.3203ZM226.712 25.0312L226.705 26.291C226.593 26.2666 226.485 26.252 226.383 26.2471C226.285 26.2373 226.173 26.2324 226.046 26.2324C225.733 26.2324 225.457 26.2812 225.218 26.3789C224.979 26.4766 224.776 26.6133 224.61 26.7891C224.444 26.9648 224.312 27.1748 224.215 27.4189C224.122 27.6582 224.061 27.9219 224.032 28.21L223.651 28.4297C223.651 27.9512 223.697 27.502 223.79 27.082C223.888 26.6621 224.037 26.291 224.237 25.9688C224.437 25.6416 224.691 25.3877 224.998 25.207C225.311 25.0215 225.682 24.9287 226.112 24.9287C226.209 24.9287 226.322 24.9409 226.449 24.9653C226.576 24.9849 226.663 25.0068 226.712 25.0312ZM237.02 25.0752H238.25V32.8315C238.25 33.5298 238.109 34.1255 237.825 34.6187C237.542 35.1118 237.147 35.4854 236.639 35.7393C236.136 35.998 235.555 36.1274 234.896 36.1274C234.622 36.1274 234.3 36.0835 233.929 35.9956C233.563 35.9126 233.201 35.7686 232.845 35.5635C232.493 35.3633 232.198 35.0923 231.959 34.7505L232.669 33.9448C233.001 34.3452 233.348 34.6235 233.709 34.7798C234.075 34.936 234.437 35.0142 234.793 35.0142C235.223 35.0142 235.594 34.9336 235.906 34.7725C236.219 34.6113 236.461 34.3721 236.632 34.0547C236.807 33.7422 236.895 33.3564 236.895 32.8975V26.8184L237.02 25.0752ZM231.563 29.1255V28.9717C231.563 28.3662 231.634 27.8169 231.776 27.3237C231.922 26.8257 232.13 26.3984 232.398 26.042C232.672 25.6855 233.001 25.4121 233.387 25.2217C233.773 25.0264 234.207 24.9287 234.691 24.9287C235.189 24.9287 235.623 25.0166 235.994 25.1924C236.37 25.3633 236.688 25.6147 236.946 25.9468C237.21 26.2739 237.418 26.6694 237.569 27.1333C237.72 27.5972 237.825 28.1221 237.884 28.708V29.3818C237.83 29.9629 237.725 30.4854 237.569 30.9492C237.418 31.4131 237.21 31.8086 236.946 32.1357C236.688 32.4629 236.37 32.7144 235.994 32.8901C235.618 33.061 235.179 33.1465 234.676 33.1465C234.202 33.1465 233.773 33.0464 233.387 32.8462C233.006 32.646 232.679 32.3652 232.405 32.0039C232.132 31.6426 231.922 31.2178 231.776 30.7295C231.634 30.2363 231.563 29.7017 231.563 29.1255ZM232.918 28.9717V29.1255C232.918 29.521 232.957 29.8921 233.035 30.2388C233.118 30.5854 233.243 30.8906 233.409 31.1543C233.58 31.418 233.797 31.6255 234.061 31.7769C234.324 31.9233 234.639 31.9966 235.006 31.9966C235.455 31.9966 235.826 31.9014 236.119 31.7109C236.412 31.5205 236.644 31.269 236.815 30.9565C236.99 30.644 237.127 30.3047 237.225 29.9385V28.1733C237.171 27.9048 237.088 27.646 236.976 27.397C236.868 27.1431 236.727 26.9185 236.551 26.7231C236.38 26.5229 236.168 26.3643 235.914 26.2471C235.66 26.1299 235.362 26.0713 235.02 26.0713C234.649 26.0713 234.329 26.1494 234.061 26.3057C233.797 26.457 233.58 26.667 233.409 26.9355C233.243 27.1992 233.118 27.5068 233.035 27.8584C232.957 28.2051 232.918 28.5762 232.918 28.9717ZM243.697 33.1465C243.145 33.1465 242.645 33.0537 242.195 32.8682C241.751 32.6777 241.368 32.4116 241.046 32.0698C240.728 31.728 240.484 31.3228 240.313 30.854C240.142 30.3853 240.057 29.8726 240.057 29.3159V29.0083C240.057 28.3638 240.152 27.79 240.342 27.2871C240.533 26.7793 240.792 26.3496 241.119 25.998C241.446 25.6465 241.817 25.3804 242.232 25.1997C242.647 25.019 243.077 24.9287 243.521 24.9287C244.087 24.9287 244.576 25.0264 244.986 25.2217C245.401 25.417 245.74 25.6904 246.004 26.042C246.268 26.3887 246.463 26.7988 246.59 27.2725C246.717 27.7412 246.78 28.2539 246.78 28.8105V29.4185H240.862V28.3125H245.425V28.21C245.406 27.8584 245.333 27.5166 245.206 27.1846C245.084 26.8525 244.888 26.5791 244.62 26.3643C244.351 26.1494 243.985 26.042 243.521 26.042C243.213 26.042 242.93 26.1079 242.671 26.2397C242.413 26.3667 242.191 26.5571 242.005 26.811C241.819 27.0649 241.675 27.375 241.573 27.7412C241.47 28.1074 241.419 28.5298 241.419 29.0083V29.3159C241.419 29.6919 241.47 30.0459 241.573 30.3779C241.68 30.7051 241.834 30.9932 242.034 31.2422C242.239 31.4912 242.486 31.6865 242.774 31.8281C243.067 31.9697 243.399 32.0405 243.77 32.0405C244.249 32.0405 244.654 31.9429 244.986 31.7476C245.318 31.5522 245.608 31.291 245.858 30.9639L246.678 31.6157C246.507 31.8745 246.29 32.1211 246.026 32.3555C245.762 32.5898 245.438 32.7803 245.052 32.9268C244.671 33.0732 244.219 33.1465 243.697 33.1465ZM249.817 26.7671V33H248.462V25.0752H249.744L249.817 26.7671ZM249.495 28.7373L248.931 28.7153C248.936 28.1733 249.017 27.6729 249.173 27.2139C249.329 26.75 249.549 26.3472 249.832 26.0054C250.115 25.6636 250.452 25.3999 250.843 25.2144C251.238 25.0239 251.675 24.9287 252.154 24.9287C252.544 24.9287 252.896 24.9824 253.208 25.0898C253.521 25.1924 253.787 25.3584 254.007 25.5879C254.231 25.8174 254.402 26.1152 254.52 26.4814C254.637 26.8428 254.695 27.2847 254.695 27.8071V33H253.333V27.7925C253.333 27.3774 253.272 27.0454 253.15 26.7964C253.028 26.5425 252.85 26.3594 252.615 26.2471C252.381 26.1299 252.093 26.0713 251.751 26.0713C251.414 26.0713 251.106 26.1421 250.828 26.2837C250.555 26.4253 250.318 26.6206 250.118 26.8696C249.922 27.1187 249.769 27.4043 249.656 27.7266C249.549 28.0439 249.495 28.3809 249.495 28.7373ZM260.142 33.1465C259.59 33.1465 259.09 33.0537 258.641 32.8682C258.196 32.6777 257.813 32.4116 257.491 32.0698C257.173 31.728 256.929 31.3228 256.758 30.854C256.587 30.3853 256.502 29.8726 256.502 29.3159V29.0083C256.502 28.3638 256.597 27.79 256.788 27.2871C256.978 26.7793 257.237 26.3496 257.564 25.998C257.891 25.6465 258.262 25.3804 258.677 25.1997C259.092 25.019 259.522 24.9287 259.966 24.9287C260.533 24.9287 261.021 25.0264 261.431 25.2217C261.846 25.417 262.185 25.6904 262.449 26.042C262.713 26.3887 262.908 26.7988 263.035 27.2725C263.162 27.7412 263.225 28.2539 263.225 28.8105V29.4185H257.308V28.3125H261.871V28.21C261.851 27.8584 261.778 27.5166 261.651 27.1846C261.529 26.8525 261.333 26.5791 261.065 26.3643C260.796 26.1494 260.43 26.042 259.966 26.042C259.659 26.042 259.375 26.1079 259.117 26.2397C258.858 26.3667 258.636 26.5571 258.45 26.811C258.265 27.0649 258.121 27.375 258.018 27.7412C257.915 28.1074 257.864 28.5298 257.864 29.0083V29.3159C257.864 29.6919 257.915 30.0459 258.018 30.3779C258.125 30.7051 258.279 30.9932 258.479 31.2422C258.684 31.4912 258.931 31.6865 259.219 31.8281C259.512 31.9697 259.844 32.0405 260.215 32.0405C260.694 32.0405 261.099 31.9429 261.431 31.7476C261.763 31.5522 262.054 31.291 262.303 30.9639L263.123 31.6157C262.952 31.8745 262.735 32.1211 262.471 32.3555C262.207 32.5898 261.883 32.7803 261.497 32.9268C261.116 33.0732 260.664 33.1465 260.142 33.1465ZM266.262 26.3203V33H264.908V25.0752H266.226L266.262 26.3203ZM268.738 25.0312L268.731 26.291C268.618 26.2666 268.511 26.252 268.408 26.2471C268.311 26.2373 268.199 26.2324 268.072 26.2324C267.759 26.2324 267.483 26.2812 267.244 26.3789C267.005 26.4766 266.802 26.6133 266.636 26.7891C266.47 26.9648 266.338 27.1748 266.241 27.4189C266.148 27.6582 266.087 27.9219 266.057 28.21L265.677 28.4297C265.677 27.9512 265.723 27.502 265.816 27.082C265.913 26.6621 266.062 26.291 266.262 25.9688C266.463 25.6416 266.717 25.3877 267.024 25.207C267.337 25.0215 267.708 24.9287 268.137 24.9287C268.235 24.9287 268.347 24.9409 268.474 24.9653C268.601 24.9849 268.689 25.0068 268.738 25.0312ZM274.47 31.645V27.5654C274.47 27.2529 274.407 26.9819 274.28 26.7524C274.158 26.5181 273.972 26.3374 273.723 26.2104C273.474 26.0835 273.167 26.02 272.8 26.02C272.459 26.02 272.158 26.0786 271.9 26.1958C271.646 26.313 271.446 26.4668 271.299 26.6572C271.157 26.8477 271.087 27.0527 271.087 27.2725H269.732C269.732 26.9893 269.805 26.7085 269.951 26.4302C270.098 26.1519 270.308 25.9004 270.581 25.6758C270.86 25.4463 271.192 25.2656 271.577 25.1338C271.968 24.9971 272.403 24.9287 272.881 24.9287C273.457 24.9287 273.965 25.0264 274.404 25.2217C274.849 25.417 275.196 25.7124 275.445 26.1079C275.698 26.4985 275.825 26.9893 275.825 27.5801V31.2715C275.825 31.5352 275.847 31.8159 275.891 32.1138C275.94 32.4116 276.011 32.668 276.104 32.8828V33H274.69C274.622 32.8438 274.568 32.6362 274.529 32.3774C274.49 32.1138 274.47 31.8696 274.47 31.645ZM274.705 28.1953L274.719 29.1475H273.35C272.964 29.1475 272.62 29.1792 272.317 29.2427C272.014 29.3013 271.76 29.3916 271.555 29.5137C271.35 29.6357 271.194 29.7896 271.087 29.9751C270.979 30.1558 270.925 30.3682 270.925 30.6123C270.925 30.8613 270.982 31.0884 271.094 31.2935C271.206 31.4985 271.375 31.6621 271.599 31.7842C271.829 31.9014 272.11 31.96 272.442 31.96C272.857 31.96 273.223 31.8721 273.54 31.6963C273.858 31.5205 274.109 31.3057 274.295 31.0518C274.485 30.7979 274.588 30.5513 274.602 30.312L275.181 30.9639C275.147 31.1689 275.054 31.396 274.903 31.645C274.751 31.894 274.549 32.1333 274.295 32.3628C274.046 32.5874 273.748 32.7754 273.401 32.9268C273.059 33.0732 272.674 33.1465 272.244 33.1465C271.707 33.1465 271.236 33.0415 270.83 32.8315C270.43 32.6216 270.117 32.3408 269.893 31.9893C269.673 31.6328 269.563 31.2349 269.563 30.7954C269.563 30.3706 269.646 29.9971 269.812 29.6748C269.978 29.3477 270.217 29.0767 270.53 28.8618C270.842 28.6421 271.218 28.4761 271.658 28.3638C272.097 28.2515 272.588 28.1953 273.13 28.1953H274.705ZM279.529 21.75V33H278.167V21.75H279.529ZM21.7056 55.645V51.5654C21.7056 51.2529 21.6421 50.9819 21.5151 50.7524C21.3931 50.5181 21.2075 50.3374 20.9585 50.2104C20.7095 50.0835 20.4019 50.02 20.0356 50.02C19.6938 50.02 19.3936 50.0786 19.1348 50.1958C18.8809 50.313 18.6807 50.4668 18.5342 50.6572C18.3926 50.8477 18.3218 51.0527 18.3218 51.2725H16.9668C16.9668 50.9893 17.04 50.7085 17.1865 50.4302C17.333 50.1519 17.543 49.9004 17.8164 49.6758C18.0947 49.4463 18.4268 49.2656 18.8125 49.1338C19.2031 48.9971 19.6377 48.9287 20.1162 48.9287C20.6924 48.9287 21.2002 49.0264 21.6396 49.2217C22.084 49.417 22.4307 49.7124 22.6797 50.1079C22.9336 50.4985 23.0605 50.9893 23.0605 51.5801V55.2715C23.0605 55.5352 23.0825 55.8159 23.1265 56.1138C23.1753 56.4116 23.2461 56.668 23.3389 56.8828V57H21.9253C21.8569 56.8438 21.8032 56.6362 21.7642 56.3774C21.7251 56.1138 21.7056 55.8696 21.7056 55.645ZM21.9399 52.1953L21.9546 53.1475H20.585C20.1992 53.1475 19.855 53.1792 19.5522 53.2427C19.2495 53.3013 18.9956 53.3916 18.7905 53.5137C18.5854 53.6357 18.4292 53.7896 18.3218 53.9751C18.2144 54.1558 18.1606 54.3682 18.1606 54.6123C18.1606 54.8613 18.2168 55.0884 18.3291 55.2935C18.4414 55.4985 18.6099 55.6621 18.8345 55.7842C19.064 55.9014 19.3447 55.96 19.6768 55.96C20.0918 55.96 20.458 55.8721 20.7754 55.6963C21.0928 55.5205 21.3442 55.3057 21.5298 55.0518C21.7202 54.7979 21.8228 54.5513 21.8374 54.312L22.416 54.9639C22.3818 55.1689 22.2891 55.396 22.1377 55.645C21.9863 55.894 21.7837 56.1333 21.5298 56.3628C21.2808 56.5874 20.9829 56.7754 20.6362 56.9268C20.2944 57.0732 19.9087 57.1465 19.479 57.1465C18.9419 57.1465 18.4707 57.0415 18.0654 56.8315C17.665 56.6216 17.3525 56.3408 17.1279 55.9893C16.9082 55.6328 16.7983 55.2349 16.7983 54.7954C16.7983 54.3706 16.8813 53.9971 17.0474 53.6748C17.2134 53.3477 17.4526 53.0767 17.7651 52.8618C18.0776 52.6421 18.4536 52.4761 18.8931 52.3638C19.3325 52.2515 19.8232 52.1953 20.3652 52.1953H21.9399ZM26.6469 50.7671V57H25.2919V49.0752H26.5736L26.6469 50.7671ZM26.3246 52.7373L25.7606 52.7153C25.7655 52.1733 25.8461 51.6729 26.0023 51.2139C26.1586 50.75 26.3783 50.3472 26.6615 50.0054C26.9447 49.6636 27.2816 49.3999 27.6723 49.2144C28.0678 49.0239 28.5048 48.9287 28.9833 48.9287C29.3739 48.9287 29.7255 48.9824 30.038 49.0898C30.3505 49.1924 30.6166 49.3584 30.8363 49.5879C31.0609 49.8174 31.2318 50.1152 31.349 50.4814C31.4662 50.8428 31.5248 51.2847 31.5248 51.8071V57H30.1625V51.7925C30.1625 51.3774 30.1015 51.0454 29.9794 50.7964C29.8573 50.5425 29.6791 50.3594 29.4447 50.2471C29.2104 50.1299 28.9223 50.0713 28.5805 50.0713C28.2436 50.0713 27.9359 50.1421 27.6576 50.2837C27.3842 50.4253 27.1474 50.6206 26.9472 50.8696C26.7519 51.1187 26.598 51.4043 26.4857 51.7266C26.3783 52.0439 26.3246 52.3809 26.3246 52.7373ZM35.0379 50.7671V57H33.6829V49.0752H34.9646L35.0379 50.7671ZM34.7156 52.7373L34.1517 52.7153C34.1565 52.1733 34.2371 51.6729 34.3934 51.2139C34.5496 50.75 34.7693 50.3472 35.0525 50.0054C35.3357 49.6636 35.6727 49.3999 36.0633 49.2144C36.4588 49.0239 36.8958 48.9287 37.3743 48.9287C37.7649 48.9287 38.1165 48.9824 38.429 49.0898C38.7415 49.1924 39.0076 49.3584 39.2273 49.5879C39.452 49.8174 39.6229 50.1152 39.74 50.4814C39.8572 50.8428 39.9158 51.2847 39.9158 51.8071V57H38.5535V51.7925C38.5535 51.3774 38.4925 51.0454 38.3704 50.7964C38.2483 50.5425 38.0701 50.3594 37.8357 50.2471C37.6014 50.1299 37.3133 50.0713 36.9715 50.0713C36.6346 50.0713 36.327 50.1421 36.0486 50.2837C35.7752 50.4253 35.5384 50.6206 35.3382 50.8696C35.1429 51.1187 34.9891 51.4043 34.8768 51.7266C34.7693 52.0439 34.7156 52.3809 34.7156 52.7373ZM41.715 53.1255V52.957C41.715 52.3857 41.798 51.856 41.9641 51.3677C42.1301 50.8745 42.3693 50.4473 42.6818 50.0859C42.9943 49.7197 43.3728 49.4365 43.8171 49.2363C44.2614 49.0312 44.7595 48.9287 45.3112 48.9287C45.8679 48.9287 46.3684 49.0312 46.8127 49.2363C47.2619 49.4365 47.6428 49.7197 47.9553 50.0859C48.2727 50.4473 48.5144 50.8745 48.6804 51.3677C48.8464 51.856 48.9294 52.3857 48.9294 52.957V53.1255C48.9294 53.6968 48.8464 54.2266 48.6804 54.7148C48.5144 55.2031 48.2727 55.6304 47.9553 55.9966C47.6428 56.3579 47.2644 56.6411 46.82 56.8462C46.3806 57.0464 45.8825 57.1465 45.3259 57.1465C44.7692 57.1465 44.2687 57.0464 43.8244 56.8462C43.3801 56.6411 42.9992 56.3579 42.6818 55.9966C42.3693 55.6304 42.1301 55.2031 41.9641 54.7148C41.798 54.2266 41.715 53.6968 41.715 53.1255ZM43.07 52.957V53.1255C43.07 53.521 43.1164 53.8945 43.2092 54.2461C43.302 54.5928 43.4411 54.9004 43.6267 55.1689C43.8171 55.4375 44.0539 55.6499 44.3371 55.8062C44.6203 55.9575 44.9499 56.0332 45.3259 56.0332C45.697 56.0332 46.0217 55.9575 46.3 55.8062C46.5832 55.6499 46.8176 55.4375 47.0031 55.1689C47.1887 54.9004 47.3278 54.5928 47.4206 54.2461C47.5183 53.8945 47.5671 53.521 47.5671 53.1255V52.957C47.5671 52.5664 47.5183 52.1978 47.4206 51.8511C47.3278 51.4995 47.1862 51.1895 46.9958 50.9209C46.8103 50.6475 46.5759 50.4326 46.2927 50.2764C46.0144 50.1201 45.6872 50.042 45.3112 50.042C44.9401 50.042 44.613 50.1201 44.3298 50.2764C44.0515 50.4326 43.8171 50.6475 43.6267 50.9209C43.4411 51.1895 43.302 51.4995 43.2092 51.8511C43.1164 52.1978 43.07 52.5664 43.07 52.957ZM55.5772 55.1689V49.0752H56.9396V57H55.6432L55.5772 55.1689ZM55.8336 53.499L56.3976 53.4844C56.3976 54.0117 56.3414 54.5 56.2291 54.9492C56.1217 55.3936 55.9459 55.7793 55.7018 56.1064C55.4576 56.4336 55.1378 56.6899 54.7423 56.8755C54.3468 57.0562 53.8658 57.1465 53.2994 57.1465C52.9137 57.1465 52.5597 57.0903 52.2374 56.978C51.92 56.8657 51.6466 56.6924 51.4171 56.458C51.1876 56.2236 51.0094 55.9185 50.8824 55.5425C50.7604 55.1665 50.6993 54.7148 50.6993 54.1875V49.0752H52.0543V54.2021C52.0543 54.5586 52.0934 54.854 52.1715 55.0884C52.2545 55.3179 52.3644 55.501 52.5011 55.6377C52.6427 55.7695 52.7989 55.8623 52.9698 55.916C53.1456 55.9697 53.3263 55.9966 53.5118 55.9966C54.088 55.9966 54.5445 55.8867 54.8814 55.667C55.2184 55.4424 55.4601 55.1421 55.6065 54.7661C55.7579 54.3853 55.8336 53.9629 55.8336 53.499ZM60.46 50.7671V57H59.105V49.0752H60.3867L60.46 50.7671ZM60.1377 52.7373L59.5737 52.7153C59.5786 52.1733 59.6592 51.6729 59.8154 51.2139C59.9717 50.75 60.1914 50.3472 60.4746 50.0054C60.7578 49.6636 61.0947 49.3999 61.4854 49.2144C61.8809 49.0239 62.3179 48.9287 62.7964 48.9287C63.187 48.9287 63.5386 48.9824 63.8511 49.0898C64.1636 49.1924 64.4297 49.3584 64.6494 49.5879C64.874 49.8174 65.0449 50.1152 65.1621 50.4814C65.2793 50.8428 65.3379 51.2847 65.3379 51.8071V57H63.9756V51.7925C63.9756 51.3774 63.9146 51.0454 63.7925 50.7964C63.6704 50.5425 63.4922 50.3594 63.2578 50.2471C63.0234 50.1299 62.7354 50.0713 62.3936 50.0713C62.0566 50.0713 61.749 50.1421 61.4707 50.2837C61.1973 50.4253 60.9604 50.6206 60.7603 50.8696C60.5649 51.1187 60.4111 51.4043 60.2988 51.7266C60.1914 52.0439 60.1377 52.3809 60.1377 52.7373ZM70.6674 56.0332C70.9896 56.0332 71.2875 55.9673 71.5609 55.8354C71.8344 55.7036 72.059 55.5229 72.2348 55.2935C72.4105 55.0591 72.5106 54.793 72.5351 54.4951H73.8241C73.7997 54.9639 73.641 55.4009 73.348 55.8062C73.06 56.2065 72.6815 56.5312 72.2128 56.7803C71.744 57.0244 71.2289 57.1465 70.6674 57.1465C70.0717 57.1465 69.5517 57.0415 69.1073 56.8315C68.6679 56.6216 68.3017 56.3335 68.0087 55.9673C67.7206 55.6011 67.5033 55.1812 67.3568 54.7075C67.2152 54.229 67.1444 53.7236 67.1444 53.1914V52.8838C67.1444 52.3516 67.2152 51.8486 67.3568 51.375C67.5033 50.8965 67.7206 50.4741 68.0087 50.1079C68.3017 49.7417 68.6679 49.4536 69.1073 49.2437C69.5517 49.0337 70.0717 48.9287 70.6674 48.9287C71.2875 48.9287 71.8295 49.0557 72.2934 49.3096C72.7572 49.5586 73.121 49.9004 73.3847 50.335C73.6532 50.7646 73.7997 51.2529 73.8241 51.7998H72.5351C72.5106 51.4727 72.4179 51.1772 72.2567 50.9136C72.1005 50.6499 71.8856 50.4399 71.6122 50.2837C71.3437 50.1226 71.0287 50.042 70.6674 50.042C70.2523 50.042 69.9032 50.125 69.62 50.291C69.3417 50.4521 69.1195 50.6719 68.9535 50.9502C68.7924 51.2236 68.6752 51.5288 68.602 51.8657C68.5336 52.1978 68.4994 52.5371 68.4994 52.8838V53.1914C68.4994 53.5381 68.5336 53.8799 68.602 54.2168C68.6703 54.5537 68.7851 54.8589 68.9462 55.1323C69.1122 55.4058 69.3344 55.6255 69.6127 55.7915C69.8959 55.9526 70.2475 56.0332 70.6674 56.0332ZM78.7361 57.1465C78.1844 57.1465 77.6839 57.0537 77.2347 56.8682C76.7903 56.6777 76.407 56.4116 76.0848 56.0698C75.7674 55.728 75.5232 55.3228 75.3523 54.854C75.1814 54.3853 75.096 53.8726 75.096 53.3159V53.0083C75.096 52.3638 75.1912 51.79 75.3816 51.2871C75.5721 50.7793 75.8309 50.3496 76.158 49.998C76.4852 49.6465 76.8563 49.3804 77.2713 49.1997C77.6863 49.019 78.116 48.9287 78.5604 48.9287C79.1268 48.9287 79.615 49.0264 80.0252 49.2217C80.4402 49.417 80.7796 49.6904 81.0433 50.042C81.3069 50.3887 81.5022 50.7988 81.6292 51.2725C81.7562 51.7412 81.8196 52.2539 81.8196 52.8105V53.4185H75.9017V52.3125H80.4646V52.21C80.4451 51.8584 80.3719 51.5166 80.2449 51.1846C80.1229 50.8525 79.9275 50.5791 79.659 50.3643C79.3904 50.1494 79.0242 50.042 78.5604 50.042C78.2527 50.042 77.9695 50.1079 77.7107 50.2397C77.452 50.3667 77.2298 50.5571 77.0442 50.811C76.8587 51.0649 76.7146 51.375 76.6121 51.7412C76.5096 52.1074 76.4583 52.5298 76.4583 53.0083V53.3159C76.4583 53.6919 76.5096 54.0459 76.6121 54.3779C76.7195 54.7051 76.8733 54.9932 77.0735 55.2422C77.2786 55.4912 77.5252 55.6865 77.8133 55.8281C78.1063 55.9697 78.4383 56.0405 78.8094 56.0405C79.2879 56.0405 79.6932 55.9429 80.0252 55.7476C80.3572 55.5522 80.6478 55.291 80.8968 54.9639L81.7171 55.6157C81.5462 55.8745 81.3289 56.1211 81.0652 56.3555C80.8016 56.5898 80.4769 56.7803 80.0911 56.9268C79.7103 57.0732 79.2586 57.1465 78.7361 57.1465ZM84.8493 50.6499V57H83.487V49.0752H84.7761L84.8493 50.6499ZM84.571 52.7373L83.9411 52.7153C83.946 52.1733 84.0168 51.6729 84.1535 51.2139C84.2902 50.75 84.4929 50.3472 84.7614 50.0054C85.03 49.6636 85.3645 49.3999 85.7648 49.2144C86.1652 49.0239 86.6291 48.9287 87.1564 48.9287C87.5275 48.9287 87.8693 48.9824 88.1818 49.0898C88.4943 49.1924 88.7653 49.356 88.9948 49.5806C89.2243 49.8052 89.4025 50.0933 89.5295 50.4448C89.6564 50.7964 89.7199 51.2212 89.7199 51.7192V57H88.3649V51.7852C88.3649 51.3701 88.2941 51.0381 88.1525 50.7891C88.0158 50.54 87.8205 50.3594 87.5666 50.2471C87.3127 50.1299 87.0148 50.0713 86.673 50.0713C86.2727 50.0713 85.9382 50.1421 85.6696 50.2837C85.4011 50.4253 85.1862 50.6206 85.0251 50.8696C84.864 51.1187 84.7468 51.4043 84.6735 51.7266C84.6052 52.0439 84.571 52.3809 84.571 52.7373ZM89.7053 51.9902L88.7971 52.2686C88.802 51.834 88.8728 51.4165 89.0095 51.0161C89.1511 50.6157 89.3537 50.2593 89.6174 49.9468C89.8859 49.6343 90.2155 49.3877 90.6062 49.207C90.9968 49.0215 91.4436 48.9287 91.9465 48.9287C92.3713 48.9287 92.7473 48.9849 93.0744 49.0972C93.4064 49.2095 93.6848 49.3828 93.9094 49.6172C94.1389 49.8467 94.3122 50.1421 94.4294 50.5034C94.5466 50.8647 94.6052 51.2944 94.6052 51.7925V57H93.2429V51.7778C93.2429 51.3335 93.1721 50.9893 93.0305 50.7451C92.8938 50.4961 92.6984 50.3228 92.4445 50.2251C92.1955 50.1226 91.8977 50.0713 91.551 50.0713C91.2531 50.0713 90.9895 50.1226 90.76 50.2251C90.5305 50.3276 90.3376 50.4692 90.1814 50.6499C90.0251 50.8257 89.9055 51.0283 89.8225 51.2578C89.7443 51.4873 89.7053 51.7314 89.7053 51.9902ZM100.045 57.1465C99.4928 57.1465 98.9923 57.0537 98.5431 56.8682C98.0987 56.6777 97.7154 56.4116 97.3932 56.0698C97.0758 55.728 96.8316 55.3228 96.6607 54.854C96.4898 54.3853 96.4044 53.8726 96.4044 53.3159V53.0083C96.4044 52.3638 96.4996 51.79 96.69 51.2871C96.8805 50.7793 97.1393 50.3496 97.4664 49.998C97.7936 49.6465 98.1646 49.3804 98.5797 49.1997C98.9947 49.019 99.4244 48.9287 99.8688 48.9287C100.435 48.9287 100.923 49.0264 101.334 49.2217C101.749 49.417 102.088 49.6904 102.352 50.042C102.615 50.3887 102.811 50.7988 102.938 51.2725C103.065 51.7412 103.128 52.2539 103.128 52.8105V53.4185H97.2101V52.3125H101.773V52.21C101.754 51.8584 101.68 51.5166 101.553 51.1846C101.431 50.8525 101.236 50.5791 100.967 50.3643C100.699 50.1494 100.333 50.042 99.8688 50.042C99.5611 50.042 99.2779 50.1079 99.0191 50.2397C98.7604 50.3667 98.5382 50.5571 98.3526 50.811C98.1671 51.0649 98.023 51.375 97.9205 51.7412C97.818 52.1074 97.7667 52.5298 97.7667 53.0083V53.3159C97.7667 53.6919 97.818 54.0459 97.9205 54.3779C98.0279 54.7051 98.1817 54.9932 98.3819 55.2422C98.587 55.4912 98.8336 55.6865 99.1217 55.8281C99.4146 55.9697 99.7467 56.0405 100.118 56.0405C100.596 56.0405 101.002 55.9429 101.334 55.7476C101.666 55.5522 101.956 55.291 102.205 54.9639L103.025 55.6157C102.855 55.8745 102.637 56.1211 102.374 56.3555C102.11 56.5898 101.785 56.7803 101.4 56.9268C101.019 57.0732 100.567 57.1465 100.045 57.1465ZM106.165 50.7671V57H104.81V49.0752H106.092L106.165 50.7671ZM105.843 52.7373L105.279 52.7153C105.284 52.1733 105.364 51.6729 105.521 51.2139C105.677 50.75 105.896 50.3472 106.18 50.0054C106.463 49.6636 106.8 49.3999 107.19 49.2144C107.586 49.0239 108.023 48.9287 108.501 48.9287C108.892 48.9287 109.244 48.9824 109.556 49.0898C109.869 49.1924 110.135 49.3584 110.354 49.5879C110.579 49.8174 110.75 50.1152 110.867 50.4814C110.984 50.8428 111.043 51.2847 111.043 51.8071V57H109.681V51.7925C109.681 51.3774 109.62 51.0454 109.498 50.7964C109.375 50.5425 109.197 50.3594 108.963 50.2471C108.729 50.1299 108.44 50.0713 108.099 50.0713C107.762 50.0713 107.454 50.1421 107.176 50.2837C106.902 50.4253 106.666 50.6206 106.465 50.8696C106.27 51.1187 106.116 51.4043 106.004 51.7266C105.896 52.0439 105.843 52.3809 105.843 52.7373ZM116.519 49.0752V50.1152H112.234V49.0752H116.519ZM113.684 47.1489H115.039V55.0371C115.039 55.3057 115.081 55.5083 115.164 55.645C115.247 55.7817 115.354 55.8721 115.486 55.916C115.618 55.96 115.76 55.9819 115.911 55.9819C116.023 55.9819 116.141 55.9722 116.263 55.9526C116.39 55.9282 116.485 55.9087 116.548 55.894L116.556 57C116.448 57.0342 116.307 57.0659 116.131 57.0952C115.96 57.1294 115.752 57.1465 115.508 57.1465C115.176 57.1465 114.871 57.0806 114.593 56.9487C114.314 56.8169 114.092 56.5972 113.926 56.2896C113.765 55.9771 113.684 55.5571 113.684 55.0298V47.1489ZM126.702 55.645V51.5654C126.702 51.2529 126.638 50.9819 126.511 50.7524C126.389 50.5181 126.204 50.3374 125.955 50.2104C125.706 50.0835 125.398 50.02 125.032 50.02C124.69 50.02 124.39 50.0786 124.131 50.1958C123.877 50.313 123.677 50.4668 123.53 50.6572C123.389 50.8477 123.318 51.0527 123.318 51.2725H121.963C121.963 50.9893 122.036 50.7085 122.183 50.4302C122.329 50.1519 122.539 49.9004 122.813 49.6758C123.091 49.4463 123.423 49.2656 123.809 49.1338C124.199 48.9971 124.634 48.9287 125.113 48.9287C125.689 48.9287 126.196 49.0264 126.636 49.2217C127.08 49.417 127.427 49.7124 127.676 50.1079C127.93 50.4985 128.057 50.9893 128.057 51.5801V55.2715C128.057 55.5352 128.079 55.8159 128.123 56.1138C128.172 56.4116 128.242 56.668 128.335 56.8828V57H126.922C126.853 56.8438 126.8 56.6362 126.76 56.3774C126.721 56.1138 126.702 55.8696 126.702 55.645ZM126.936 52.1953L126.951 53.1475H125.581C125.196 53.1475 124.851 53.1792 124.549 53.2427C124.246 53.3013 123.992 53.3916 123.787 53.5137C123.582 53.6357 123.425 53.7896 123.318 53.9751C123.211 54.1558 123.157 54.3682 123.157 54.6123C123.157 54.8613 123.213 55.0884 123.325 55.2935C123.438 55.4985 123.606 55.6621 123.831 55.7842C124.06 55.9014 124.341 55.96 124.673 55.96C125.088 55.96 125.454 55.8721 125.772 55.6963C126.089 55.5205 126.341 55.3057 126.526 55.0518C126.717 54.7979 126.819 54.5513 126.834 54.312L127.412 54.9639C127.378 55.1689 127.285 55.396 127.134 55.645C126.983 55.894 126.78 56.1333 126.526 56.3628C126.277 56.5874 125.979 56.7754 125.633 56.9268C125.291 57.0732 124.905 57.1465 124.475 57.1465C123.938 57.1465 123.467 57.0415 123.062 56.8315C122.661 56.6216 122.349 56.3408 122.124 55.9893C121.904 55.6328 121.795 55.2349 121.795 54.7954C121.795 54.3706 121.878 53.9971 122.044 53.6748C122.21 53.3477 122.449 53.0767 122.761 52.8618C123.074 52.6421 123.45 52.4761 123.889 52.3638C124.329 52.2515 124.82 52.1953 125.362 52.1953H126.936ZM131.643 50.7671V57H130.288V49.0752H131.57L131.643 50.7671ZM131.321 52.7373L130.757 52.7153C130.762 52.1733 130.842 51.6729 130.999 51.2139C131.155 50.75 131.375 50.3472 131.658 50.0054C131.941 49.6636 132.278 49.3999 132.669 49.2144C133.064 49.0239 133.501 48.9287 133.98 48.9287C134.37 48.9287 134.722 48.9824 135.034 49.0898C135.347 49.1924 135.613 49.3584 135.833 49.5879C136.057 49.8174 136.228 50.1152 136.345 50.4814C136.463 50.8428 136.521 51.2847 136.521 51.8071V57H135.159V51.7925C135.159 51.3774 135.098 51.0454 134.976 50.7964C134.854 50.5425 134.675 50.3594 134.441 50.2471C134.207 50.1299 133.919 50.0713 133.577 50.0713C133.24 50.0713 132.932 50.1421 132.654 50.2837C132.38 50.4253 132.144 50.6206 131.943 50.8696C131.748 51.1187 131.594 51.4043 131.482 51.7266C131.375 52.0439 131.321 52.3809 131.321 52.7373ZM143.674 55.4619V45.75H145.037V57H143.792L143.674 55.4619ZM138.342 53.1255V52.9717C138.342 52.3662 138.416 51.8169 138.562 51.3237C138.713 50.8257 138.926 50.3984 139.199 50.042C139.478 49.6855 139.807 49.4121 140.188 49.2217C140.574 49.0264 141.003 48.9287 141.477 48.9287C141.975 48.9287 142.41 49.0166 142.781 49.1924C143.157 49.3633 143.474 49.6147 143.733 49.9468C143.997 50.2739 144.204 50.6694 144.355 51.1333C144.507 51.5972 144.612 52.1221 144.67 52.708V53.3818C144.617 53.9629 144.512 54.4854 144.355 54.9492C144.204 55.4131 143.997 55.8086 143.733 56.1357C143.474 56.4629 143.157 56.7144 142.781 56.8901C142.405 57.061 141.965 57.1465 141.462 57.1465C140.999 57.1465 140.574 57.0464 140.188 56.8462C139.807 56.646 139.478 56.3652 139.199 56.0039C138.926 55.6426 138.713 55.2178 138.562 54.7295C138.416 54.2363 138.342 53.7017 138.342 53.1255ZM139.705 52.9717V53.1255C139.705 53.521 139.744 53.8921 139.822 54.2388C139.905 54.5854 140.032 54.8906 140.203 55.1543C140.374 55.418 140.591 55.6255 140.854 55.7769C141.118 55.9233 141.433 55.9966 141.799 55.9966C142.249 55.9966 142.617 55.9014 142.905 55.7109C143.198 55.5205 143.433 55.269 143.608 54.9565C143.784 54.644 143.921 54.3047 144.019 53.9385V52.1733C143.96 51.9048 143.875 51.646 143.762 51.397C143.655 51.1431 143.513 50.9185 143.337 50.7231C143.167 50.5229 142.954 50.3643 142.7 50.2471C142.451 50.1299 142.156 50.0713 141.814 50.0713C141.443 50.0713 141.123 50.1494 140.854 50.3057C140.591 50.457 140.374 50.667 140.203 50.9355C140.032 51.1992 139.905 51.5068 139.822 51.8584C139.744 52.2051 139.705 52.5762 139.705 52.9717ZM155.915 55.1689V49.0752H157.278V57H155.981L155.915 55.1689ZM156.172 53.499L156.736 53.4844C156.736 54.0117 156.679 54.5 156.567 54.9492C156.46 55.3936 156.284 55.7793 156.04 56.1064C155.796 56.4336 155.476 56.6899 155.08 56.8755C154.685 57.0562 154.204 57.1465 153.637 57.1465C153.252 57.1465 152.898 57.0903 152.575 56.978C152.258 56.8657 151.985 56.6924 151.755 56.458C151.526 56.2236 151.347 55.9185 151.221 55.5425C151.098 55.1665 151.037 54.7148 151.037 54.1875V49.0752H152.392V54.2021C152.392 54.5586 152.431 54.854 152.51 55.0884C152.593 55.3179 152.702 55.501 152.839 55.6377C152.981 55.7695 153.137 55.8623 153.308 55.916C153.484 55.9697 153.664 55.9966 153.85 55.9966C154.426 55.9966 154.883 55.8867 155.22 55.667C155.556 55.4424 155.798 55.1421 155.945 54.7661C156.096 54.3853 156.172 53.9629 156.172 53.499ZM160.798 50.5986V60.0469H159.436V49.0752H160.681L160.798 50.5986ZM166.137 52.9717V53.1255C166.137 53.7017 166.069 54.2363 165.932 54.7295C165.796 55.2178 165.595 55.6426 165.332 56.0039C165.073 56.3652 164.753 56.646 164.372 56.8462C163.991 57.0464 163.554 57.1465 163.061 57.1465C162.558 57.1465 162.114 57.0635 161.728 56.8975C161.342 56.7314 161.015 56.4897 160.747 56.1724C160.478 55.855 160.263 55.4741 160.102 55.0298C159.946 54.5854 159.839 54.085 159.78 53.5283V52.708C159.839 52.1221 159.948 51.5972 160.11 51.1333C160.271 50.6694 160.483 50.2739 160.747 49.9468C161.015 49.6147 161.34 49.3633 161.721 49.1924C162.102 49.0166 162.541 48.9287 163.039 48.9287C163.537 48.9287 163.979 49.0264 164.365 49.2217C164.751 49.4121 165.075 49.6855 165.339 50.042C165.603 50.3984 165.8 50.8257 165.932 51.3237C166.069 51.8169 166.137 52.3662 166.137 52.9717ZM164.775 53.1255V52.9717C164.775 52.5762 164.734 52.2051 164.651 51.8584C164.568 51.5068 164.438 51.1992 164.262 50.9355C164.092 50.667 163.872 50.457 163.603 50.3057C163.335 50.1494 163.015 50.0713 162.644 50.0713C162.302 50.0713 162.004 50.1299 161.75 50.2471C161.501 50.3643 161.289 50.5229 161.113 50.7231C160.937 50.9185 160.793 51.1431 160.681 51.397C160.573 51.646 160.493 51.9048 160.439 52.1733V54.0703C160.537 54.4121 160.674 54.7344 160.849 55.0371C161.025 55.335 161.259 55.5767 161.552 55.7622C161.845 55.9429 162.214 56.0332 162.658 56.0332C163.025 56.0332 163.34 55.9575 163.603 55.8062C163.872 55.6499 164.092 55.4375 164.262 55.1689C164.438 54.9004 164.568 54.5928 164.651 54.2461C164.734 53.8945 164.775 53.521 164.775 53.1255ZM172.58 54.8979C172.58 54.7026 172.536 54.522 172.448 54.356C172.365 54.1851 172.192 54.0312 171.928 53.8945C171.67 53.7529 171.279 53.6309 170.756 53.5283C170.317 53.4355 169.919 53.3257 169.563 53.1987C169.211 53.0718 168.911 52.918 168.662 52.7373C168.418 52.5566 168.23 52.3442 168.098 52.1001C167.966 51.856 167.9 51.5703 167.9 51.2432C167.9 50.9307 167.968 50.6353 168.105 50.3569C168.247 50.0786 168.444 49.832 168.698 49.6172C168.957 49.4023 169.267 49.2339 169.629 49.1118C169.99 48.9897 170.393 48.9287 170.837 48.9287C171.472 48.9287 172.014 49.041 172.463 49.2656C172.912 49.4902 173.256 49.7905 173.496 50.1665C173.735 50.5376 173.855 50.9502 173.855 51.4043H172.5C172.5 51.1846 172.434 50.9722 172.302 50.7671C172.175 50.5571 171.987 50.3838 171.738 50.2471C171.494 50.1104 171.193 50.042 170.837 50.042C170.461 50.042 170.156 50.1006 169.921 50.2178C169.692 50.3301 169.524 50.4741 169.416 50.6499C169.314 50.8257 169.262 51.0112 169.262 51.2065C169.262 51.353 169.287 51.4849 169.336 51.6021C169.389 51.7144 169.482 51.8193 169.614 51.917C169.746 52.0098 169.931 52.0977 170.171 52.1807C170.41 52.2637 170.715 52.3467 171.086 52.4297C171.735 52.5762 172.27 52.752 172.69 52.957C173.11 53.1621 173.422 53.4136 173.628 53.7114C173.833 54.0093 173.935 54.3706 173.935 54.7954C173.935 55.1421 173.862 55.4595 173.715 55.7476C173.574 56.0356 173.366 56.2847 173.093 56.4946C172.824 56.6997 172.502 56.8608 172.126 56.978C171.755 57.0903 171.337 57.1465 170.874 57.1465C170.175 57.1465 169.585 57.022 169.101 56.7729C168.618 56.5239 168.252 56.2017 168.003 55.8062C167.754 55.4106 167.629 54.9932 167.629 54.5537H168.991C169.011 54.9248 169.118 55.2202 169.314 55.4399C169.509 55.6548 169.748 55.8086 170.031 55.9014C170.315 55.9893 170.595 56.0332 170.874 56.0332C171.245 56.0332 171.555 55.9844 171.804 55.8867C172.058 55.7891 172.251 55.6548 172.382 55.4839C172.514 55.313 172.58 55.1177 172.58 54.8979ZM179.104 57.1465C178.552 57.1465 178.051 57.0537 177.602 56.8682C177.158 56.6777 176.774 56.4116 176.452 56.0698C176.135 55.728 175.891 55.3228 175.72 54.854C175.549 54.3853 175.463 53.8726 175.463 53.3159V53.0083C175.463 52.3638 175.559 51.79 175.749 51.2871C175.939 50.7793 176.198 50.3496 176.525 49.998C176.853 49.6465 177.224 49.3804 177.639 49.1997C178.054 49.019 178.483 48.9287 178.928 48.9287C179.494 48.9287 179.982 49.0264 180.393 49.2217C180.808 49.417 181.147 49.6904 181.411 50.042C181.674 50.3887 181.87 50.7988 181.997 51.2725C182.124 51.7412 182.187 52.2539 182.187 52.8105V53.4185H176.269V52.3125H180.832V52.21C180.812 51.8584 180.739 51.5166 180.612 51.1846C180.49 50.8525 180.295 50.5791 180.026 50.3643C179.758 50.1494 179.392 50.042 178.928 50.042C178.62 50.042 178.337 50.1079 178.078 50.2397C177.819 50.3667 177.597 50.5571 177.412 50.811C177.226 51.0649 177.082 51.375 176.979 51.7412C176.877 52.1074 176.826 52.5298 176.826 53.0083V53.3159C176.826 53.6919 176.877 54.0459 176.979 54.3779C177.087 54.7051 177.241 54.9932 177.441 55.2422C177.646 55.4912 177.893 55.6865 178.181 55.8281C178.474 55.9697 178.806 56.0405 179.177 56.0405C179.655 56.0405 180.061 55.9429 180.393 55.7476C180.725 55.5522 181.015 55.291 181.264 54.9639L182.084 55.6157C181.914 55.8745 181.696 56.1211 181.433 56.3555C181.169 56.5898 180.844 56.7803 180.458 56.9268C180.078 57.0732 179.626 57.1465 179.104 57.1465ZM185.341 45.75V57H183.979V45.75H185.341ZM189.089 45.75V57H187.726V45.75H189.089ZM195.978 54.8979C195.978 54.7026 195.934 54.522 195.846 54.356C195.763 54.1851 195.59 54.0312 195.326 53.8945C195.068 53.7529 194.677 53.6309 194.154 53.5283C193.715 53.4355 193.317 53.3257 192.961 53.1987C192.609 53.0718 192.309 52.918 192.06 52.7373C191.816 52.5566 191.628 52.3442 191.496 52.1001C191.364 51.856 191.298 51.5703 191.298 51.2432C191.298 50.9307 191.366 50.6353 191.503 50.3569C191.645 50.0786 191.842 49.832 192.096 49.6172C192.355 49.4023 192.665 49.2339 193.027 49.1118C193.388 48.9897 193.791 48.9287 194.235 48.9287C194.87 48.9287 195.412 49.041 195.861 49.2656C196.31 49.4902 196.654 49.7905 196.894 50.1665C197.133 50.5376 197.253 50.9502 197.253 51.4043H195.898C195.898 51.1846 195.832 50.9722 195.7 50.7671C195.573 50.5571 195.385 50.3838 195.136 50.2471C194.892 50.1104 194.592 50.042 194.235 50.042C193.859 50.042 193.554 50.1006 193.32 50.2178C193.09 50.3301 192.922 50.4741 192.814 50.6499C192.712 50.8257 192.66 51.0112 192.66 51.2065C192.66 51.353 192.685 51.4849 192.734 51.6021C192.787 51.7144 192.88 51.8193 193.012 51.917C193.144 52.0098 193.329 52.0977 193.569 52.1807C193.808 52.2637 194.113 52.3467 194.484 52.4297C195.133 52.5762 195.668 52.752 196.088 52.957C196.508 53.1621 196.821 53.4136 197.026 53.7114C197.231 54.0093 197.333 54.3706 197.333 54.7954C197.333 55.1421 197.26 55.4595 197.113 55.7476C196.972 56.0356 196.764 56.2847 196.491 56.4946C196.222 56.6997 195.9 56.8608 195.524 56.978C195.153 57.0903 194.736 57.1465 194.272 57.1465C193.573 57.1465 192.983 57.022 192.499 56.7729C192.016 56.5239 191.65 56.2017 191.401 55.8062C191.152 55.4106 191.027 54.9932 191.027 54.5537H192.389C192.409 54.9248 192.516 55.2202 192.712 55.4399C192.907 55.6548 193.146 55.8086 193.429 55.9014C193.713 55.9893 193.993 56.0332 194.272 56.0332C194.643 56.0332 194.953 55.9844 195.202 55.8867C195.456 55.7891 195.649 55.6548 195.78 55.4839C195.912 55.313 195.978 55.1177 195.978 54.8979ZM205.055 57H203.7V48.2402C203.7 47.6689 203.803 47.188 204.008 46.7974C204.218 46.4019 204.518 46.104 204.909 45.9038C205.299 45.6987 205.763 45.5962 206.3 45.5962C206.457 45.5962 206.613 45.606 206.769 45.6255C206.93 45.645 207.086 45.6743 207.238 45.7134L207.165 46.8193C207.062 46.7949 206.945 46.7778 206.813 46.7681C206.686 46.7583 206.559 46.7534 206.432 46.7534C206.144 46.7534 205.895 46.812 205.685 46.9292C205.48 47.0415 205.324 47.2075 205.216 47.4272C205.109 47.647 205.055 47.918 205.055 48.2402V57ZM206.74 49.0752V50.1152H202.448V49.0752H206.74ZM207.99 53.1255V52.957C207.99 52.3857 208.073 51.856 208.239 51.3677C208.405 50.8745 208.644 50.4473 208.956 50.0859C209.269 49.7197 209.647 49.4365 210.092 49.2363C210.536 49.0312 211.034 48.9287 211.586 48.9287C212.142 48.9287 212.643 49.0312 213.087 49.2363C213.537 49.4365 213.917 49.7197 214.23 50.0859C214.547 50.4473 214.789 50.8745 214.955 51.3677C215.121 51.856 215.204 52.3857 215.204 52.957V53.1255C215.204 53.6968 215.121 54.2266 214.955 54.7148C214.789 55.2031 214.547 55.6304 214.23 55.9966C213.917 56.3579 213.539 56.6411 213.095 56.8462C212.655 57.0464 212.157 57.1465 211.6 57.1465C211.044 57.1465 210.543 57.0464 210.099 56.8462C209.655 56.6411 209.274 56.3579 208.956 55.9966C208.644 55.6304 208.405 55.2031 208.239 54.7148C208.073 54.2266 207.99 53.6968 207.99 53.1255ZM209.345 52.957V53.1255C209.345 53.521 209.391 53.8945 209.484 54.2461C209.577 54.5928 209.716 54.9004 209.901 55.1689C210.092 55.4375 210.329 55.6499 210.612 55.8062C210.895 55.9575 211.225 56.0332 211.6 56.0332C211.972 56.0332 212.296 55.9575 212.575 55.8062C212.858 55.6499 213.092 55.4375 213.278 55.1689C213.463 54.9004 213.602 54.5928 213.695 54.2461C213.793 53.8945 213.842 53.521 213.842 53.1255V52.957C213.842 52.5664 213.793 52.1978 213.695 51.8511C213.602 51.4995 213.461 51.1895 213.27 50.9209C213.085 50.6475 212.85 50.4326 212.567 50.2764C212.289 50.1201 211.962 50.042 211.586 50.042C211.215 50.042 210.888 50.1201 210.604 50.2764C210.326 50.4326 210.092 50.6475 209.901 50.9209C209.716 51.1895 209.577 51.4995 209.484 51.8511C209.391 52.1978 209.345 52.5664 209.345 52.957ZM218.358 50.3203V57H217.003V49.0752H218.322L218.358 50.3203ZM220.834 49.0312L220.826 50.291C220.714 50.2666 220.607 50.252 220.504 50.2471C220.407 50.2373 220.294 50.2324 220.167 50.2324C219.855 50.2324 219.579 50.2812 219.34 50.3789C219.1 50.4766 218.898 50.6133 218.732 50.7891C218.566 50.9648 218.434 51.1748 218.336 51.4189C218.243 51.6582 218.182 51.9219 218.153 52.21L217.772 52.4297C217.772 51.9512 217.819 51.502 217.911 51.082C218.009 50.6621 218.158 50.291 218.358 49.9688C218.558 49.6416 218.812 49.3877 219.12 49.207C219.432 49.0215 219.804 48.9287 220.233 48.9287C220.331 48.9287 220.443 48.9409 220.57 48.9653C220.697 48.9849 220.785 49.0068 220.834 49.0312ZM230.68 55.645V51.5654C230.68 51.2529 230.616 50.9819 230.489 50.7524C230.367 50.5181 230.182 50.3374 229.933 50.2104C229.684 50.0835 229.376 50.02 229.01 50.02C228.668 50.02 228.368 50.0786 228.109 50.1958C227.855 50.313 227.655 50.4668 227.508 50.6572C227.367 50.8477 227.296 51.0527 227.296 51.2725H225.941C225.941 50.9893 226.014 50.7085 226.161 50.4302C226.307 50.1519 226.517 49.9004 226.791 49.6758C227.069 49.4463 227.401 49.2656 227.787 49.1338C228.177 48.9971 228.612 48.9287 229.09 48.9287C229.667 48.9287 230.174 49.0264 230.614 49.2217C231.058 49.417 231.405 49.7124 231.654 50.1079C231.908 50.4985 232.035 50.9893 232.035 51.5801V55.2715C232.035 55.5352 232.057 55.8159 232.101 56.1138C232.15 56.4116 232.22 56.668 232.313 56.8828V57H230.9C230.831 56.8438 230.777 56.6362 230.738 56.3774C230.699 56.1138 230.68 55.8696 230.68 55.645ZM230.914 52.1953L230.929 53.1475H229.559C229.173 53.1475 228.829 53.1792 228.526 53.2427C228.224 53.3013 227.97 53.3916 227.765 53.5137C227.56 53.6357 227.403 53.7896 227.296 53.9751C227.189 54.1558 227.135 54.3682 227.135 54.6123C227.135 54.8613 227.191 55.0884 227.303 55.2935C227.416 55.4985 227.584 55.6621 227.809 55.7842C228.038 55.9014 228.319 55.96 228.651 55.96C229.066 55.96 229.432 55.8721 229.75 55.6963C230.067 55.5205 230.318 55.3057 230.504 55.0518C230.694 54.7979 230.797 54.5513 230.812 54.312L231.39 54.9639C231.356 55.1689 231.263 55.396 231.112 55.645C230.961 55.894 230.758 56.1333 230.504 56.3628C230.255 56.5874 229.957 56.7754 229.61 56.9268C229.269 57.0732 228.883 57.1465 228.453 57.1465C227.916 57.1465 227.445 57.0415 227.04 56.8315C226.639 56.6216 226.327 56.3408 226.102 55.9893C225.882 55.6328 225.773 55.2349 225.773 54.7954C225.773 54.3706 225.856 53.9971 226.022 53.6748C226.188 53.3477 226.427 53.0767 226.739 52.8618C227.052 52.6421 227.428 52.4761 227.867 52.3638C228.307 52.2515 228.797 52.1953 229.339 52.1953H230.914ZM235.738 45.75V57H234.376V45.75H235.738ZM239.486 45.75V57H238.123V45.75H239.486ZM246.937 50.5986V60.0469H245.574V49.0752H246.82L246.937 50.5986ZM252.276 52.9717V53.1255C252.276 53.7017 252.208 54.2363 252.071 54.7295C251.934 55.2178 251.734 55.6426 251.47 56.0039C251.212 56.3652 250.892 56.646 250.511 56.8462C250.13 57.0464 249.693 57.1465 249.2 57.1465C248.697 57.1465 248.253 57.0635 247.867 56.8975C247.481 56.7314 247.154 56.4897 246.885 56.1724C246.617 55.855 246.402 55.4741 246.241 55.0298C246.085 54.5854 245.977 54.085 245.919 53.5283V52.708C245.977 52.1221 246.087 51.5972 246.248 51.1333C246.409 50.6694 246.622 50.2739 246.885 49.9468C247.154 49.6147 247.479 49.3633 247.86 49.1924C248.24 49.0166 248.68 48.9287 249.178 48.9287C249.676 48.9287 250.118 49.0264 250.504 49.2217C250.889 49.4121 251.214 49.6855 251.478 50.042C251.741 50.3984 251.939 50.8257 252.071 51.3237C252.208 51.8169 252.276 52.3662 252.276 52.9717ZM250.914 53.1255V52.9717C250.914 52.5762 250.872 52.2051 250.789 51.8584C250.706 51.5068 250.577 51.1992 250.401 50.9355C250.23 50.667 250.01 50.457 249.742 50.3057C249.473 50.1494 249.154 50.0713 248.782 50.0713C248.441 50.0713 248.143 50.1299 247.889 50.2471C247.64 50.3643 247.427 50.5229 247.252 50.7231C247.076 50.9185 246.932 51.1431 246.82 51.397C246.712 51.646 246.632 51.9048 246.578 52.1733V54.0703C246.675 54.4121 246.812 54.7344 246.988 55.0371C247.164 55.335 247.398 55.5767 247.691 55.7622C247.984 55.9429 248.353 56.0332 248.797 56.0332C249.163 56.0332 249.478 55.9575 249.742 55.8062C250.01 55.6499 250.23 55.4375 250.401 55.1689C250.577 54.9004 250.706 54.5928 250.789 54.2461C250.872 53.8945 250.914 53.521 250.914 53.1255ZM255.577 45.75V57H254.214V45.75H255.577ZM262.701 55.1689V49.0752H264.063V57H262.767L262.701 55.1689ZM262.957 53.499L263.521 53.4844C263.521 54.0117 263.465 54.5 263.353 54.9492C263.245 55.3936 263.069 55.7793 262.825 56.1064C262.581 56.4336 262.261 56.6899 261.866 56.8755C261.47 57.0562 260.989 57.1465 260.423 57.1465C260.037 57.1465 259.683 57.0903 259.361 56.978C259.043 56.8657 258.77 56.6924 258.541 56.458C258.311 56.2236 258.133 55.9185 258.006 55.5425C257.884 55.1665 257.823 54.7148 257.823 54.1875V49.0752H259.178V54.2021C259.178 54.5586 259.217 54.854 259.295 55.0884C259.378 55.3179 259.488 55.501 259.625 55.6377C259.766 55.7695 259.922 55.8623 260.093 55.916C260.269 55.9697 260.45 55.9966 260.635 55.9966C261.211 55.9966 261.668 55.8867 262.005 55.667C262.342 55.4424 262.583 55.1421 262.73 54.7661C262.881 54.3853 262.957 53.9629 262.957 53.499ZM271.363 49.0752H272.593V56.8315C272.593 57.5298 272.452 58.1255 272.168 58.6187C271.885 59.1118 271.49 59.4854 270.982 59.7393C270.479 59.998 269.898 60.1274 269.239 60.1274C268.965 60.1274 268.643 60.0835 268.272 59.9956C267.906 59.9126 267.544 59.7686 267.188 59.5635C266.836 59.3633 266.541 59.0923 266.302 58.7505L267.012 57.9448C267.344 58.3452 267.691 58.6235 268.052 58.7798C268.418 58.936 268.78 59.0142 269.136 59.0142C269.566 59.0142 269.937 58.9336 270.249 58.7725C270.562 58.6113 270.804 58.3721 270.975 58.0547C271.15 57.7422 271.238 57.3564 271.238 56.8975V50.8184L271.363 49.0752ZM265.906 53.1255V52.9717C265.906 52.3662 265.977 51.8169 266.119 51.3237C266.265 50.8257 266.473 50.3984 266.741 50.042C267.015 49.6855 267.344 49.4121 267.73 49.2217C268.116 49.0264 268.55 48.9287 269.034 48.9287C269.532 48.9287 269.966 49.0166 270.337 49.1924C270.713 49.3633 271.031 49.6147 271.289 49.9468C271.553 50.2739 271.761 50.6694 271.912 51.1333C272.063 51.5972 272.168 52.1221 272.227 52.708V53.3818C272.173 53.9629 272.068 54.4854 271.912 54.9492C271.761 55.4131 271.553 55.8086 271.289 56.1357C271.031 56.4629 270.713 56.7144 270.337 56.8901C269.961 57.061 269.522 57.1465 269.019 57.1465C268.545 57.1465 268.116 57.0464 267.73 56.8462C267.349 56.646 267.022 56.3652 266.748 56.0039C266.475 55.6426 266.265 55.2178 266.119 54.7295C265.977 54.2363 265.906 53.7017 265.906 53.1255ZM267.261 52.9717V53.1255C267.261 53.521 267.3 53.8921 267.378 54.2388C267.461 54.5854 267.586 54.8906 267.752 55.1543C267.923 55.418 268.14 55.6255 268.404 55.7769C268.667 55.9233 268.982 55.9966 269.349 55.9966C269.798 55.9966 270.169 55.9014 270.462 55.7109C270.755 55.5205 270.987 55.269 271.158 54.9565C271.333 54.644 271.47 54.3047 271.568 53.9385V52.1733C271.514 51.9048 271.431 51.646 271.319 51.397C271.211 51.1431 271.07 50.9185 270.894 50.7231C270.723 50.5229 270.511 50.3643 270.257 50.2471C270.003 50.1299 269.705 50.0713 269.363 50.0713C268.992 50.0713 268.672 50.1494 268.404 50.3057C268.14 50.457 267.923 50.667 267.752 50.9355C267.586 51.1992 267.461 51.5068 267.378 51.8584C267.3 52.2051 267.261 52.5762 267.261 52.9717ZM276.223 49.0752V57H274.861V49.0752H276.223ZM274.759 46.9731C274.759 46.7534 274.825 46.5679 274.956 46.4165C275.093 46.2651 275.293 46.1895 275.557 46.1895C275.816 46.1895 276.013 46.2651 276.15 46.4165C276.292 46.5679 276.363 46.7534 276.363 46.9731C276.363 47.1831 276.292 47.3638 276.15 47.5151C276.013 47.6616 275.816 47.7349 275.557 47.7349C275.293 47.7349 275.093 47.6616 274.956 47.5151C274.825 47.3638 274.759 47.1831 274.759 46.9731ZM279.854 50.7671V57H278.499V49.0752H279.78L279.854 50.7671ZM279.531 52.7373L278.967 52.7153C278.972 52.1733 279.053 51.6729 279.209 51.2139C279.365 50.75 279.585 50.3472 279.868 50.0054C280.152 49.6636 280.488 49.3999 280.879 49.2144C281.275 49.0239 281.712 48.9287 282.19 48.9287C282.581 48.9287 282.932 48.9824 283.245 49.0898C283.557 49.1924 283.823 49.3584 284.043 49.5879C284.268 49.8174 284.439 50.1152 284.556 50.4814C284.673 50.8428 284.732 51.2847 284.732 51.8071V57H283.369V51.7925C283.369 51.3774 283.308 51.0454 283.186 50.7964C283.064 50.5425 282.886 50.3594 282.652 50.2471C282.417 50.1299 282.129 50.0713 281.787 50.0713C281.45 50.0713 281.143 50.1421 280.864 50.2837C280.591 50.4253 280.354 50.6206 280.154 50.8696C279.959 51.1187 279.805 51.4043 279.693 51.7266C279.585 52.0439 279.531 52.3809 279.531 52.7373ZM291.504 54.8979C291.504 54.7026 291.46 54.522 291.372 54.356C291.289 54.1851 291.116 54.0312 290.852 53.8945C290.593 53.7529 290.203 53.6309 289.68 53.5283C289.241 53.4355 288.843 53.3257 288.486 53.1987C288.135 53.0718 287.835 52.918 287.586 52.7373C287.341 52.5566 287.153 52.3442 287.022 52.1001C286.89 51.856 286.824 51.5703 286.824 51.2432C286.824 50.9307 286.892 50.6353 287.029 50.3569C287.171 50.0786 287.368 49.832 287.622 49.6172C287.881 49.4023 288.191 49.2339 288.552 49.1118C288.914 48.9897 289.316 48.9287 289.761 48.9287C290.396 48.9287 290.938 49.041 291.387 49.2656C291.836 49.4902 292.18 49.7905 292.42 50.1665C292.659 50.5376 292.778 50.9502 292.778 51.4043H291.423C291.423 51.1846 291.358 50.9722 291.226 50.7671C291.099 50.5571 290.911 50.3838 290.662 50.2471C290.418 50.1104 290.117 50.042 289.761 50.042C289.385 50.042 289.08 50.1006 288.845 50.2178C288.616 50.3301 288.447 50.4741 288.34 50.6499C288.237 50.8257 288.186 51.0112 288.186 51.2065C288.186 51.353 288.211 51.4849 288.259 51.6021C288.313 51.7144 288.406 51.8193 288.538 51.917C288.67 52.0098 288.855 52.0977 289.094 52.1807C289.334 52.2637 289.639 52.3467 290.01 52.4297C290.659 52.5762 291.194 52.752 291.614 52.957C292.034 53.1621 292.346 53.4136 292.551 53.7114C292.756 54.0093 292.859 54.3706 292.859 54.7954C292.859 55.1421 292.786 55.4595 292.639 55.7476C292.498 56.0356 292.29 56.2847 292.017 56.4946C291.748 56.6997 291.426 56.8608 291.05 56.978C290.679 57.0903 290.261 57.1465 289.797 57.1465C289.099 57.1465 288.508 57.022 288.025 56.7729C287.542 56.5239 287.175 56.2017 286.926 55.8062C286.677 55.4106 286.553 54.9932 286.553 54.5537H287.915C287.935 54.9248 288.042 55.2202 288.237 55.4399C288.433 55.6548 288.672 55.8086 288.955 55.9014C289.238 55.9893 289.519 56.0332 289.797 56.0332C290.169 56.0332 290.479 55.9844 290.728 55.8867C290.982 55.7891 291.174 55.6548 291.306 55.4839C291.438 55.313 291.504 55.1177 291.504 54.8979ZM294.761 56.2822C294.761 56.0527 294.832 55.8599 294.973 55.7036C295.12 55.5425 295.33 55.4619 295.603 55.4619C295.876 55.4619 296.084 55.5425 296.226 55.7036C296.372 55.8599 296.445 56.0527 296.445 56.2822C296.445 56.5068 296.372 56.6973 296.226 56.8535C296.084 57.0098 295.876 57.0879 295.603 57.0879C295.33 57.0879 295.12 57.0098 294.973 56.8535C294.832 56.6973 294.761 56.5068 294.761 56.2822Z" fill="white"/>
<rect x="16" y="72" width="78" height="32" rx="4" fill="white"/>
<path d="M36.4497 88.5532H34.0439V87.29H36.4497C36.8687 87.29 37.2072 87.2223 37.4653 87.0869C37.7235 86.9515 37.9118 86.7653 38.0303 86.5283C38.153 86.2871 38.2144 86.012 38.2144 85.7031C38.2144 85.4111 38.153 85.1382 38.0303 84.8843C37.9118 84.6261 37.7235 84.4188 37.4653 84.2622C37.2072 84.1056 36.8687 84.0273 36.4497 84.0273H34.5327V92H32.9395V82.7578H36.4497C37.1649 82.7578 37.7721 82.8848 38.2715 83.1387C38.7751 83.3883 39.158 83.7354 39.4204 84.1797C39.6828 84.6198 39.814 85.1234 39.814 85.6904C39.814 86.2871 39.6828 86.7992 39.4204 87.2266C39.158 87.654 38.7751 87.9819 38.2715 88.2104C37.7721 88.439 37.1649 88.5532 36.4497 88.5532ZM42.626 86.4395V92H41.0962V85.1318H42.5562L42.626 86.4395ZM44.7271 85.0874L44.7144 86.5093C44.6213 86.4924 44.5197 86.4797 44.4097 86.4712C44.3039 86.4627 44.1981 86.4585 44.0923 86.4585C43.8299 86.4585 43.5993 86.4966 43.4004 86.5728C43.2015 86.6447 43.0343 86.7505 42.8989 86.8901C42.7677 87.0256 42.6662 87.1906 42.5942 87.3853C42.5223 87.5799 42.48 87.7979 42.4673 88.0391L42.1182 88.0645C42.1182 87.6328 42.1605 87.2329 42.2451 86.8647C42.3298 86.4966 42.4567 86.1729 42.626 85.8936C42.7995 85.6143 43.0153 85.3963 43.2734 85.2397C43.5358 85.0832 43.8384 85.0049 44.1812 85.0049C44.2743 85.0049 44.3737 85.0133 44.4795 85.0303C44.5895 85.0472 44.672 85.0662 44.7271 85.0874ZM47.3232 85.1318V92H45.7871V85.1318H47.3232ZM45.6855 83.3291C45.6855 83.0964 45.7617 82.9038 45.9141 82.7515C46.0706 82.5949 46.2865 82.5166 46.5615 82.5166C46.8324 82.5166 47.0461 82.5949 47.2026 82.7515C47.3592 82.9038 47.4375 83.0964 47.4375 83.3291C47.4375 83.5576 47.3592 83.748 47.2026 83.9004C47.0461 84.0527 46.8324 84.1289 46.5615 84.1289C46.2865 84.1289 46.0706 84.0527 45.9141 83.9004C45.7617 83.748 45.6855 83.5576 45.6855 83.3291ZM50.5288 86.5283V92H48.999V85.1318H50.4399L50.5288 86.5283ZM50.2812 88.312L49.7607 88.3057C49.7607 87.8317 49.82 87.3937 49.9385 86.9917C50.057 86.5897 50.2305 86.2406 50.459 85.9443C50.6875 85.6439 50.971 85.4132 51.3096 85.2524C51.6523 85.0874 52.048 85.0049 52.4966 85.0049C52.8097 85.0049 53.0954 85.0514 53.3535 85.1445C53.6159 85.2334 53.8423 85.3752 54.0327 85.5698C54.2274 85.7645 54.3755 86.0142 54.4771 86.3188C54.5828 86.6235 54.6357 86.9917 54.6357 87.4233V92H53.106V87.5566C53.106 87.2223 53.0552 86.96 52.9536 86.7695C52.8563 86.5791 52.7145 86.4437 52.5283 86.3633C52.3464 86.2786 52.1284 86.2363 51.8745 86.2363C51.5868 86.2363 51.3413 86.2913 51.1382 86.4014C50.9393 86.5114 50.7764 86.6616 50.6494 86.8521C50.5225 87.0425 50.4294 87.2625 50.3701 87.5122C50.3109 87.7619 50.2812 88.0285 50.2812 88.312ZM54.5405 87.9058L53.8232 88.0645C53.8232 87.6497 53.8804 87.2583 53.9946 86.8901C54.1131 86.5177 54.2845 86.1919 54.5088 85.9126C54.7373 85.6291 55.0187 85.4069 55.353 85.2461C55.6873 85.0853 56.0703 85.0049 56.502 85.0049C56.8532 85.0049 57.1663 85.0535 57.4414 85.1509C57.7207 85.244 57.9577 85.3921 58.1523 85.5952C58.347 85.7983 58.4951 86.0628 58.5967 86.3887C58.6982 86.7103 58.749 87.0996 58.749 87.5566V92H57.2129V87.5503C57.2129 87.2033 57.1621 86.9346 57.0605 86.7441C56.9632 86.5537 56.8236 86.4225 56.6416 86.3506C56.4596 86.2744 56.2417 86.2363 55.9878 86.2363C55.7508 86.2363 55.5413 86.2808 55.3594 86.3696C55.1816 86.4543 55.0314 86.5749 54.9087 86.7314C54.786 86.8838 54.6929 87.0594 54.6294 87.2583C54.5701 87.4572 54.5405 87.673 54.5405 87.9058ZM64.1953 90.6226V87.3472C64.1953 87.1017 64.1509 86.8901 64.062 86.7124C63.9731 86.5347 63.8377 86.3971 63.6558 86.2998C63.478 86.2025 63.2537 86.1538 62.9829 86.1538C62.7332 86.1538 62.5174 86.1961 62.3354 86.2808C62.1535 86.3654 62.0117 86.4797 61.9102 86.6235C61.8086 86.7674 61.7578 86.9303 61.7578 87.1123H60.2344C60.2344 86.8415 60.3 86.5791 60.4312 86.3252C60.5623 86.0713 60.7528 85.8449 61.0024 85.646C61.2521 85.4471 61.5505 85.2905 61.8975 85.1763C62.2445 85.062 62.6338 85.0049 63.0654 85.0049C63.5817 85.0049 64.0387 85.0916 64.4365 85.2651C64.8385 85.4386 65.1538 85.701 65.3823 86.0522C65.6151 86.3993 65.7314 86.8351 65.7314 87.3599V90.4131C65.7314 90.7262 65.7526 91.0076 65.7949 91.2573C65.8415 91.5028 65.9071 91.7165 65.9917 91.8984V92H64.4238C64.3519 91.835 64.2948 91.6255 64.2524 91.3716C64.2144 91.1134 64.1953 90.8638 64.1953 90.6226ZM64.4175 87.8232L64.4302 88.769H63.332C63.0485 88.769 62.7988 88.7965 62.583 88.8516C62.3672 88.9023 62.1873 88.9785 62.0435 89.0801C61.8996 89.1816 61.7917 89.3044 61.7197 89.4482C61.6478 89.5921 61.6118 89.755 61.6118 89.937C61.6118 90.119 61.6541 90.2861 61.7388 90.4385C61.8234 90.5866 61.9461 90.703 62.1069 90.7876C62.272 90.8722 62.4709 90.9146 62.7036 90.9146C63.0168 90.9146 63.2897 90.8511 63.5225 90.7241C63.7594 90.5929 63.9456 90.4342 64.0811 90.248C64.2165 90.0576 64.2884 89.8778 64.2969 89.7085L64.792 90.3877C64.7412 90.5612 64.6545 90.7474 64.5317 90.9463C64.409 91.1452 64.2482 91.3356 64.0493 91.5176C63.8547 91.6953 63.6198 91.8413 63.3447 91.9556C63.0739 92.0698 62.7607 92.127 62.4053 92.127C61.9567 92.127 61.5568 92.0381 61.2056 91.8604C60.8543 91.6784 60.5793 91.4351 60.3804 91.1304C60.1815 90.8215 60.082 90.4723 60.082 90.083C60.082 89.7191 60.1497 89.3975 60.2852 89.1182C60.4248 88.8346 60.6279 88.5977 60.8945 88.4072C61.1654 88.2168 61.4954 88.0729 61.8848 87.9756C62.2741 87.874 62.7184 87.8232 63.2178 87.8232H64.4175ZM68.8672 86.4395V92H67.3374V85.1318H68.7974L68.8672 86.4395ZM70.9683 85.0874L70.9556 86.5093C70.8625 86.4924 70.7609 86.4797 70.6509 86.4712C70.5451 86.4627 70.4393 86.4585 70.3335 86.4585C70.0711 86.4585 69.8405 86.4966 69.6416 86.5728C69.4427 86.6447 69.2756 86.7505 69.1401 86.8901C69.009 87.0256 68.9074 87.1906 68.8354 87.3853C68.7635 87.5799 68.7212 87.7979 68.7085 88.0391L68.3594 88.0645C68.3594 87.6328 68.4017 87.2329 68.4863 86.8647C68.571 86.4966 68.6979 86.1729 68.8672 85.8936C69.0407 85.6143 69.2565 85.3963 69.5146 85.2397C69.777 85.0832 70.0796 85.0049 70.4224 85.0049C70.5155 85.0049 70.6149 85.0133 70.7207 85.0303C70.8307 85.0472 70.9132 85.0662 70.9683 85.0874ZM74.0342 91.251L75.9004 85.1318H77.5381L74.7832 93.0474C74.7197 93.2166 74.6372 93.4007 74.5356 93.5996C74.4341 93.7985 74.3008 93.9868 74.1357 94.1646C73.9749 94.3465 73.7739 94.4925 73.5327 94.6025C73.2915 94.7168 72.9995 94.7739 72.6567 94.7739C72.5213 94.7739 72.3901 94.7612 72.2632 94.7358C72.1405 94.7147 72.0241 94.6914 71.9141 94.666L71.9077 93.498C71.95 93.5023 72.0008 93.5065 72.0601 93.5107C72.1235 93.515 72.1743 93.5171 72.2124 93.5171C72.4663 93.5171 72.6779 93.4854 72.8472 93.4219C73.0164 93.3626 73.154 93.2653 73.2598 93.1299C73.3698 92.9945 73.4629 92.8125 73.5391 92.584L74.0342 91.251ZM72.9805 85.1318L74.6118 90.2734L74.8848 91.8857L73.8247 92.1587L71.3301 85.1318H72.9805Z" fill="#1A1A1A"/>
<path d="M123.802 89.6196C123.802 89.4292 123.772 89.2599 123.713 89.1118C123.658 88.9637 123.558 88.8283 123.415 88.7056C123.271 88.5828 123.068 88.4644 122.805 88.3501C122.547 88.2316 122.217 88.111 121.815 87.9883C121.375 87.8529 120.969 87.7026 120.596 87.5376C120.228 87.3683 119.906 87.1737 119.631 86.9536C119.356 86.7293 119.143 86.4733 118.99 86.1855C118.838 85.8936 118.762 85.5571 118.762 85.1763C118.762 84.7996 118.84 84.4569 118.997 84.1479C119.157 83.839 119.384 83.5724 119.676 83.3481C119.972 83.1196 120.321 82.944 120.723 82.8213C121.125 82.6943 121.569 82.6309 122.056 82.6309C122.742 82.6309 123.332 82.7578 123.827 83.0117C124.326 83.2656 124.709 83.6063 124.976 84.0337C125.247 84.4611 125.382 84.9329 125.382 85.4492H123.802C123.802 85.1445 123.736 84.8758 123.605 84.6431C123.478 84.4061 123.283 84.2199 123.021 84.0845C122.763 83.9491 122.435 83.8813 122.037 83.8813C121.66 83.8813 121.347 83.9385 121.098 84.0527C120.848 84.167 120.662 84.3215 120.539 84.5161C120.416 84.7108 120.355 84.9308 120.355 85.1763C120.355 85.3498 120.395 85.5085 120.476 85.6523C120.556 85.792 120.679 85.9232 120.844 86.0459C121.009 86.1644 121.216 86.2765 121.466 86.3823C121.715 86.4881 122.01 86.5897 122.348 86.687C122.86 86.8394 123.307 87.0086 123.688 87.1948C124.068 87.3768 124.386 87.5841 124.64 87.8169C124.894 88.0496 125.084 88.3141 125.211 88.6104C125.338 88.9023 125.401 89.2345 125.401 89.6069C125.401 89.9963 125.323 90.3475 125.167 90.6606C125.01 90.9696 124.786 91.234 124.494 91.4541C124.206 91.6699 123.859 91.8371 123.453 91.9556C123.051 92.0698 122.602 92.127 122.107 92.127C121.663 92.127 121.225 92.0677 120.793 91.9492C120.366 91.8307 119.976 91.6509 119.625 91.4097C119.274 91.1642 118.994 90.8595 118.787 90.4956C118.58 90.1274 118.476 89.6979 118.476 89.207H120.069C120.069 89.5075 120.12 89.7635 120.222 89.9751C120.327 90.1867 120.473 90.3602 120.66 90.4956C120.846 90.6268 121.062 90.7241 121.307 90.7876C121.557 90.8511 121.823 90.8828 122.107 90.8828C122.479 90.8828 122.79 90.8299 123.04 90.7241C123.294 90.6183 123.484 90.4702 123.611 90.2798C123.738 90.0894 123.802 89.8693 123.802 89.6196ZM129.686 92.127C129.178 92.127 128.719 92.0444 128.309 91.8794C127.902 91.7101 127.555 91.4753 127.268 91.1748C126.984 90.8743 126.766 90.521 126.614 90.1147C126.461 89.7085 126.385 89.2705 126.385 88.8008V88.5469C126.385 88.0094 126.464 87.5228 126.62 87.0869C126.777 86.651 126.995 86.2786 127.274 85.9697C127.553 85.6566 127.883 85.4175 128.264 85.2524C128.645 85.0874 129.058 85.0049 129.502 85.0049C129.993 85.0049 130.422 85.0874 130.791 85.2524C131.159 85.4175 131.463 85.6502 131.705 85.9507C131.95 86.2469 132.132 86.6003 132.25 87.0107C132.373 87.4212 132.435 87.874 132.435 88.3691V89.0229H127.128V87.9248H130.924V87.8042C130.915 87.5291 130.86 87.271 130.759 87.0298C130.661 86.7886 130.511 86.5939 130.308 86.4458C130.105 86.2977 129.834 86.2236 129.496 86.2236C129.242 86.2236 129.015 86.2786 128.816 86.3887C128.622 86.4945 128.459 86.6489 128.328 86.8521C128.196 87.0552 128.095 87.3006 128.023 87.5884C127.955 87.8719 127.921 88.1914 127.921 88.5469V88.8008C127.921 89.1012 127.962 89.3805 128.042 89.6387C128.127 89.8926 128.249 90.1147 128.41 90.3052C128.571 90.4956 128.766 90.6458 128.994 90.7559C129.223 90.8617 129.483 90.9146 129.775 90.9146C130.143 90.9146 130.471 90.8405 130.759 90.6924C131.047 90.5443 131.296 90.3348 131.508 90.064L132.314 90.8447C132.166 91.0605 131.973 91.2679 131.736 91.4668C131.499 91.6615 131.209 91.8201 130.867 91.9429C130.528 92.0656 130.135 92.127 129.686 92.127ZM136.434 90.9082C136.683 90.9082 136.908 90.8595 137.106 90.7622C137.31 90.6606 137.472 90.521 137.595 90.3433C137.722 90.1655 137.792 89.9603 137.805 89.7275H139.246C139.237 90.1719 139.106 90.576 138.852 90.9399C138.598 91.3039 138.262 91.5938 137.843 91.8096C137.424 92.0212 136.96 92.127 136.453 92.127C135.928 92.127 135.471 92.0381 135.082 91.8604C134.692 91.6784 134.368 91.4287 134.11 91.1113C133.852 90.7939 133.658 90.4279 133.526 90.0132C133.399 89.5985 133.336 89.1541 133.336 88.6802V88.458C133.336 87.984 133.399 87.5397 133.526 87.125C133.658 86.7061 133.852 86.3379 134.11 86.0205C134.368 85.7031 134.692 85.4556 135.082 85.2778C135.471 85.0959 135.926 85.0049 136.446 85.0049C136.996 85.0049 137.479 85.1149 137.894 85.335C138.308 85.5508 138.634 85.8534 138.871 86.2427C139.112 86.6278 139.237 87.0763 139.246 87.5884H137.805C137.792 87.3345 137.729 87.106 137.614 86.9028C137.504 86.6955 137.348 86.5304 137.145 86.4077C136.946 86.285 136.707 86.2236 136.427 86.2236C136.118 86.2236 135.862 86.2871 135.659 86.4141C135.456 86.5368 135.297 86.7061 135.183 86.9219C135.069 87.1335 134.986 87.3726 134.936 87.6392C134.889 87.9015 134.866 88.1745 134.866 88.458V88.6802C134.866 88.9637 134.889 89.2388 134.936 89.5054C134.982 89.772 135.062 90.0111 135.177 90.2227C135.295 90.43 135.456 90.5972 135.659 90.7241C135.862 90.8468 136.12 90.9082 136.434 90.9082ZM140.128 88.6421V88.4961C140.128 88.001 140.2 87.5418 140.344 87.1187C140.488 86.6912 140.695 86.321 140.966 86.0078C141.241 85.6904 141.575 85.445 141.969 85.2715C142.367 85.0938 142.815 85.0049 143.314 85.0049C143.818 85.0049 144.267 85.0938 144.66 85.2715C145.058 85.445 145.394 85.6904 145.669 86.0078C145.944 86.321 146.154 86.6912 146.298 87.1187C146.442 87.5418 146.514 88.001 146.514 88.4961V88.6421C146.514 89.1372 146.442 89.5964 146.298 90.0195C146.154 90.4427 145.944 90.813 145.669 91.1304C145.394 91.4435 145.06 91.689 144.667 91.8667C144.273 92.0402 143.826 92.127 143.327 92.127C142.824 92.127 142.373 92.0402 141.975 91.8667C141.582 91.689 141.247 91.4435 140.972 91.1304C140.697 90.813 140.488 90.4427 140.344 90.0195C140.2 89.5964 140.128 89.1372 140.128 88.6421ZM141.658 88.4961V88.6421C141.658 88.951 141.689 89.243 141.753 89.5181C141.816 89.7931 141.916 90.0343 142.051 90.2417C142.187 90.4491 142.36 90.612 142.572 90.7305C142.783 90.849 143.035 90.9082 143.327 90.9082C143.611 90.9082 143.856 90.849 144.063 90.7305C144.275 90.612 144.449 90.4491 144.584 90.2417C144.719 90.0343 144.819 89.7931 144.882 89.5181C144.95 89.243 144.984 88.951 144.984 88.6421V88.4961C144.984 88.1914 144.95 87.9036 144.882 87.6328C144.819 87.3577 144.717 87.1144 144.578 86.9028C144.442 86.6912 144.269 86.5262 144.057 86.4077C143.85 86.285 143.602 86.2236 143.314 86.2236C143.027 86.2236 142.777 86.285 142.565 86.4077C142.358 86.5262 142.187 86.6912 142.051 86.9028C141.916 87.1144 141.816 87.3577 141.753 87.6328C141.689 87.9036 141.658 88.1914 141.658 88.4961ZM149.313 86.5981V92H147.783V85.1318H149.224L149.313 86.5981ZM149.04 88.312L148.545 88.3057C148.549 87.819 148.617 87.3726 148.748 86.9663C148.883 86.5601 149.07 86.2109 149.307 85.9189C149.548 85.627 149.836 85.4027 150.17 85.2461C150.504 85.0853 150.877 85.0049 151.287 85.0049C151.617 85.0049 151.916 85.0514 152.182 85.1445C152.453 85.2334 152.684 85.3794 152.874 85.5825C153.069 85.7856 153.217 86.0501 153.318 86.376C153.42 86.6976 153.471 87.0933 153.471 87.563V92H151.935V87.5566C151.935 87.2266 151.886 86.9663 151.789 86.7759C151.695 86.5812 151.558 86.4437 151.376 86.3633C151.198 86.2786 150.976 86.2363 150.709 86.2363C150.447 86.2363 150.212 86.2913 150.005 86.4014C149.798 86.5114 149.622 86.6616 149.478 86.8521C149.338 87.0425 149.23 87.2625 149.154 87.5122C149.078 87.7619 149.04 88.0285 149.04 88.312ZM159.222 90.5781V82.25H160.758V92H159.368L159.222 90.5781ZM154.753 88.6421V88.5088C154.753 87.9883 154.814 87.5143 154.937 87.0869C155.06 86.6553 155.237 86.285 155.47 85.9761C155.703 85.6629 155.986 85.4238 156.321 85.2588C156.655 85.0895 157.032 85.0049 157.451 85.0049C157.865 85.0049 158.229 85.0853 158.542 85.2461C158.856 85.4069 159.122 85.6375 159.342 85.938C159.562 86.2342 159.738 86.5897 159.869 87.0044C160 87.4149 160.093 87.8719 160.148 88.3755V88.8008C160.093 89.2917 160 89.7402 159.869 90.1465C159.738 90.5527 159.562 90.904 159.342 91.2002C159.122 91.4964 158.854 91.7249 158.536 91.8857C158.223 92.0465 157.857 92.127 157.438 92.127C157.023 92.127 156.649 92.0402 156.314 91.8667C155.984 91.6932 155.703 91.4499 155.47 91.1367C155.237 90.8236 155.06 90.4554 154.937 90.0322C154.814 89.6048 154.753 89.1414 154.753 88.6421ZM156.283 88.5088V88.6421C156.283 88.9552 156.31 89.2472 156.365 89.5181C156.424 89.7889 156.515 90.028 156.638 90.2354C156.761 90.4385 156.92 90.5993 157.114 90.7178C157.313 90.832 157.55 90.8892 157.825 90.8892C158.172 90.8892 158.458 90.813 158.682 90.6606C158.906 90.5083 159.082 90.3031 159.209 90.0449C159.34 89.7826 159.429 89.4906 159.476 89.1689V88.02C159.45 87.7703 159.397 87.5376 159.317 87.3218C159.241 87.106 159.137 86.9176 159.006 86.7568C158.875 86.5918 158.712 86.4648 158.517 86.376C158.327 86.2829 158.1 86.2363 157.838 86.2363C157.559 86.2363 157.322 86.2956 157.127 86.4141C156.932 86.5326 156.771 86.6955 156.645 86.9028C156.522 87.1102 156.431 87.3514 156.372 87.6265C156.312 87.9015 156.283 88.1956 156.283 88.5088ZM166.229 90.6226V87.3472C166.229 87.1017 166.185 86.8901 166.096 86.7124C166.007 86.5347 165.872 86.3971 165.69 86.2998C165.512 86.2025 165.288 86.1538 165.017 86.1538C164.767 86.1538 164.552 86.1961 164.37 86.2808C164.188 86.3654 164.046 86.4797 163.944 86.6235C163.843 86.7674 163.792 86.9303 163.792 87.1123H162.269C162.269 86.8415 162.334 86.5791 162.465 86.3252C162.597 86.0713 162.787 85.8449 163.037 85.646C163.286 85.4471 163.585 85.2905 163.932 85.1763C164.279 85.062 164.668 85.0049 165.1 85.0049C165.616 85.0049 166.073 85.0916 166.471 85.2651C166.873 85.4386 167.188 85.701 167.417 86.0522C167.649 86.3993 167.766 86.8351 167.766 87.3599V90.4131C167.766 90.7262 167.787 91.0076 167.829 91.2573C167.876 91.5028 167.941 91.7165 168.026 91.8984V92H166.458C166.386 91.835 166.329 91.6255 166.287 91.3716C166.249 91.1134 166.229 90.8638 166.229 90.6226ZM166.452 87.8232L166.464 88.769H165.366C165.083 88.769 164.833 88.7965 164.617 88.8516C164.401 88.9023 164.222 88.9785 164.078 89.0801C163.934 89.1816 163.826 89.3044 163.754 89.4482C163.682 89.5921 163.646 89.755 163.646 89.937C163.646 90.119 163.688 90.2861 163.773 90.4385C163.858 90.5866 163.98 90.703 164.141 90.7876C164.306 90.8722 164.505 90.9146 164.738 90.9146C165.051 90.9146 165.324 90.8511 165.557 90.7241C165.794 90.5929 165.98 90.4342 166.115 90.248C166.251 90.0576 166.323 89.8778 166.331 89.7085L166.826 90.3877C166.775 90.5612 166.689 90.7474 166.566 90.9463C166.443 91.1452 166.282 91.3356 166.083 91.5176C165.889 91.6953 165.654 91.8413 165.379 91.9556C165.108 92.0698 164.795 92.127 164.439 92.127C163.991 92.127 163.591 92.0381 163.24 91.8604C162.889 91.6784 162.613 91.4351 162.415 91.1304C162.216 90.8215 162.116 90.4723 162.116 90.083C162.116 89.7191 162.184 89.3975 162.319 89.1182C162.459 88.8346 162.662 88.5977 162.929 88.4072C163.2 88.2168 163.53 88.0729 163.919 87.9756C164.308 87.874 164.753 87.8232 165.252 87.8232H166.452ZM170.901 86.4395V92H169.372V85.1318H170.832L170.901 86.4395ZM173.002 85.0874L172.99 86.5093C172.897 86.4924 172.795 86.4797 172.685 86.4712C172.579 86.4627 172.473 86.4585 172.368 86.4585C172.105 86.4585 171.875 86.4966 171.676 86.5728C171.477 86.6447 171.31 86.7505 171.174 86.8901C171.043 87.0256 170.942 87.1906 170.87 87.3853C170.798 87.5799 170.755 87.7979 170.743 88.0391L170.394 88.0645C170.394 87.6328 170.436 87.2329 170.521 86.8647C170.605 86.4966 170.732 86.1729 170.901 85.8936C171.075 85.6143 171.291 85.3963 171.549 85.2397C171.811 85.0832 172.114 85.0049 172.457 85.0049C172.55 85.0049 172.649 85.0133 172.755 85.0303C172.865 85.0472 172.947 85.0662 173.002 85.0874ZM176.068 91.251L177.935 85.1318H179.572L176.817 93.0474C176.754 93.2166 176.671 93.4007 176.57 93.5996C176.468 93.7985 176.335 93.9868 176.17 94.1646C176.009 94.3465 175.808 94.4925 175.567 94.6025C175.326 94.7168 175.034 94.7739 174.691 94.7739C174.556 94.7739 174.424 94.7612 174.297 94.7358C174.175 94.7147 174.058 94.6914 173.948 94.666L173.942 93.498C173.984 93.5023 174.035 93.5065 174.094 93.5107C174.158 93.515 174.208 93.5171 174.247 93.5171C174.5 93.5171 174.712 93.4854 174.881 93.4219C175.051 93.3626 175.188 93.2653 175.294 93.1299C175.404 92.9945 175.497 92.8125 175.573 92.584L176.068 91.251ZM175.015 85.1318L176.646 90.2734L176.919 91.8857L175.859 92.1587L173.364 85.1318H175.015Z" fill="white"/>
<path d="M353.705 36.4677C354.056 36.8182 354.056 37.3867 353.705 37.7372C353.354 38.0876 352.783 38.0876 352.432 37.7372L348.001 33.2848L343.538 37.7357C343.186 38.0861 342.616 38.0861 342.265 37.7357C341.913 37.3852 341.913 36.8167 342.265 36.4662L346.729 32.0168L342.264 27.5323C341.912 27.1818 341.912 26.6133 342.264 26.2628C342.615 25.9124 343.185 25.9124 343.536 26.2628L348.001 30.7489L352.464 26.298C352.815 25.9476 353.385 25.9476 353.736 26.298C354.088 26.6484 354.088 27.217 353.736 27.5674L349.272 32.0168L353.705 36.4677Z" fill="white"/>
</svg>
