<!-- Generated by IcoMoon.io -->
<svg version="1.1" xmlns="http://www.w3.org/2000/svg" width="24" height="24" viewBox="0 0 24 24">
<title>docs</title>
<path d="M21 15.75v-11.875c0-1.034-0.864-1.875-1.929-1.875h-12.857c-1.772 0-3.214 1.402-3.214 3.125v13.75c0 1.723 1.442 3.125 3.214 3.125h13.821c0.532 0 0.964-0.42 0.964-0.938s-0.432-0.938-0.964-0.938h-0.321v-2.615c0.747-0.26 1.286-0.947 1.286-1.76zM17.786 20.125h-11.571c-0.709 0-1.286-0.56-1.286-1.25s0.577-1.25 1.286-1.25h11.571v2.5zM19.071 15.75h-12.857c-0.457 0-0.892 0.093-1.286 0.261v-10.886c0-0.69 0.577-1.25 1.286-1.25h12.857v11.875zM9.107 8.25h7.071c0.534 0 0.964-0.418 0.964-0.938s-0.43-0.938-0.964-0.938h-7.071c-0.53 0-0.964 0.422-0.964 0.938s0.434 0.938 0.964 0.938zM9.107 11.375h7.071c0.534 0 0.964-0.418 0.964-0.938s-0.43-0.938-0.964-0.938h-7.071c-0.53 0-0.964 0.422-0.964 0.938s0.434 0.938 0.964 0.938z"></path>
</svg>
