<!-- Generated by IcoMoon.io -->
<svg version="1.1" xmlns="http://www.w3.org/2000/svg" width="24" height="24" viewBox="0 0 24 24">
<title>images</title>
<path d="M19.778 4h-12.222c-1.227 0-2.222 1.023-2.222 2.286v8c0 1.263 0.995 2.286 2.222 2.286h12.222c1.227 0 2.222-1.023 2.222-2.286v-8c0-1.263-0.996-2.286-2.222-2.286zM20.333 14.286c0 0.315-0.249 0.571-0.555 0.571h-0.556l-3.795-5.746c-0.104-0.157-0.278-0.254-0.465-0.254-0.186 0-0.359 0.095-0.462 0.254l-2.178 3.361-0.776-1.094c-0.104-0.15-0.271-0.236-0.448-0.236s-0.344 0.087-0.449 0.235l-2.537 3.48h-0.556c-0.306 0-0.556-0.256-0.556-0.571v-8c0-0.315 0.249-0.571 0.556-0.571h12.222c0.306 0 0.555 0.256 0.555 0.571v8zM9.778 6.857c-0.614 0-1.111 0.512-1.111 1.143s0.498 1.143 1.111 1.143c0.614 0 1.111-0.512 1.111-1.143s-0.497-1.143-1.111-1.143zM17.833 20h-11.667c-2.298 0-4.167-1.921-4.167-4.286v-8.571c0-0.471 0.373-0.857 0.833-0.857s0.833 0.386 0.833 0.857v8.571c0 1.418 1.122 2.571 2.5 2.571h11.667c0.46 0 0.833 0.384 0.833 0.857s-0.372 0.857-0.833 0.857z"></path>
</svg>
