<!-- Generated by IcoMoon.io -->
<svg version="1.1" xmlns="http://www.w3.org/2000/svg" width="24" height="24" viewBox="0 0 24 24">
<title>lock-alt</title>
<path d="M6.857 9.75v-1.688c0-2.796 2.304-5.063 5.143-5.063s5.143 2.267 5.143 5.063v1.688h0.571c1.261 0 2.286 1.009 2.286 2.25v6.75c0 1.241-1.025 2.25-2.286 2.25h-11.429c-1.263 0-2.286-1.009-2.286-2.25v-6.75c0-1.241 1.023-2.25 2.286-2.25h0.571zM9.143 9.75h5.714v-1.688c0-1.553-1.278-2.813-2.857-2.813s-2.857 1.259-2.857 2.813v1.688z"></path>
</svg>
