<svg width="48" height="48" viewBox="0 0 48 48" fill="none" xmlns="http://www.w3.org/2000/svg">
    <path d="M40 24C40 32.8366 32.8366 40 24 40C15.1634 40 8 32.8366 8 24C8 15.1634 15.1634 8 24 8C32.8366 8 40 15.1634 40 24Z" stroke="#E6E6E6" stroke-width="4"/>
    <path d="M24 6C26.3638 6 28.7044 6.46558 30.8883 7.37017C33.0722 8.27475 35.0565 9.60062 36.7279 11.2721C38.3994 12.9435 39.7252 14.9278 40.6298 17.1117C41.5344 19.2956 42 21.6362 42 24L38.004 24C38.004 22.161 37.6418 20.3399 36.938 18.6409C36.2342 16.9419 35.2027 15.3981 33.9023 14.0977C32.6019 12.7973 31.0581 11.7658 29.3591 11.062C27.6601 10.3582 25.839 9.996 24 9.996V6Z" fill="#286EF1"/>
</svg>
