<svg width="1280" height="336" viewBox="0 0 1280 336" fill="none" xmlns="http://www.w3.org/2000/svg">
<rect x="0.5" y="0.5" width="1279" height="335" rx="15.5" fill="#F8F8F8"/>
<rect x="0.5" y="0.5" width="1279" height="335" rx="15.5" stroke="#E6E6E6"/>
<g clip-path="url(#clip0_16582_2972)">
<mask id="path-4-inside-1_16582_2972" fill="white">
<path d="M480 40H800V104H480V40Z"/>
</mask>
<path d="M480 40H800V104H480V40Z" fill="white"/>
<path d="M800 104V103H480V104V105H800V104Z" fill="#E6E6E6" mask="url(#path-4-inside-1_16582_2972)"/>
<path d="M519.705 75.8501V77H514.373V75.8501H519.705ZM514.651 66.3359V77H513.238V66.3359H514.651ZM522.591 69.0752V77H521.229V69.0752H522.591ZM521.126 66.9731C521.126 66.7534 521.192 66.5679 521.324 66.4165C521.46 66.2651 521.661 66.1895 521.924 66.1895C522.183 66.1895 522.381 66.2651 522.518 66.4165C522.659 66.5679 522.73 66.7534 522.73 66.9731C522.73 67.1831 522.659 67.3638 522.518 67.5151C522.381 67.6616 522.183 67.7349 521.924 67.7349C521.661 67.7349 521.46 67.6616 521.324 67.5151C521.192 67.3638 521.126 67.1831 521.126 66.9731ZM529.38 74.8979C529.38 74.7026 529.336 74.522 529.249 74.356C529.166 74.1851 528.992 74.0312 528.729 73.8945C528.47 73.7529 528.079 73.6309 527.557 73.5283C527.117 73.4355 526.719 73.3257 526.363 73.1987C526.011 73.0718 525.711 72.918 525.462 72.7373C525.218 72.5566 525.03 72.3442 524.898 72.1001C524.766 71.856 524.7 71.5703 524.7 71.2432C524.7 70.9307 524.769 70.6353 524.905 70.3569C525.047 70.0786 525.245 69.832 525.499 69.6172C525.757 69.4023 526.067 69.2339 526.429 69.1118C526.79 68.9897 527.193 68.9287 527.637 68.9287C528.272 68.9287 528.814 69.041 529.263 69.2656C529.712 69.4902 530.057 69.7905 530.296 70.1665C530.535 70.5376 530.655 70.9502 530.655 71.4043H529.3C529.3 71.1846 529.234 70.9722 529.102 70.7671C528.975 70.5571 528.787 70.3838 528.538 70.2471C528.294 70.1104 527.994 70.042 527.637 70.042C527.261 70.042 526.956 70.1006 526.722 70.2178C526.492 70.3301 526.324 70.4741 526.216 70.6499C526.114 70.8257 526.062 71.0112 526.062 71.2065C526.062 71.353 526.087 71.4849 526.136 71.6021C526.189 71.7144 526.282 71.8193 526.414 71.917C526.546 72.0098 526.731 72.0977 526.971 72.1807C527.21 72.2637 527.515 72.3467 527.886 72.4297C528.536 72.5762 529.07 72.752 529.49 72.957C529.91 73.1621 530.223 73.4136 530.428 73.7114C530.633 74.0093 530.735 74.3706 530.735 74.7954C530.735 75.1421 530.662 75.4595 530.516 75.7476C530.374 76.0356 530.167 76.2847 529.893 76.4946C529.625 76.6997 529.302 76.8608 528.926 76.978C528.555 77.0903 528.138 77.1465 527.674 77.1465C526.976 77.1465 526.385 77.022 525.901 76.7729C525.418 76.5239 525.052 76.2017 524.803 75.8062C524.554 75.4106 524.429 74.9932 524.429 74.5537H525.792C525.811 74.9248 525.918 75.2202 526.114 75.4399C526.309 75.6548 526.548 75.8086 526.832 75.9014C527.115 75.9893 527.396 76.0332 527.674 76.0332C528.045 76.0332 528.355 75.9844 528.604 75.8867C528.858 75.7891 529.051 75.6548 529.183 75.4839C529.314 75.313 529.38 75.1177 529.38 74.8979ZM535.833 69.0752V70.1152H531.548V69.0752H535.833ZM532.999 67.1489H534.354V75.0371C534.354 75.3057 534.395 75.5083 534.478 75.645C534.561 75.7817 534.668 75.8721 534.8 75.916C534.932 75.96 535.074 75.9819 535.225 75.9819C535.337 75.9819 535.455 75.9722 535.577 75.9526C535.704 75.9282 535.799 75.9087 535.862 75.894L535.87 77C535.762 77.0342 535.621 77.0659 535.445 77.0952C535.274 77.1294 535.066 77.1465 534.822 77.1465C534.49 77.1465 534.185 77.0806 533.907 76.9487C533.628 76.8169 533.406 76.5972 533.24 76.2896C533.079 75.9771 532.999 75.5571 532.999 75.0298V67.1489ZM542.615 69.0752V77H541.253V69.0752H542.615ZM541.15 66.9731C541.15 66.7534 541.216 66.5679 541.348 66.4165C541.485 66.2651 541.685 66.1895 541.949 66.1895C542.208 66.1895 542.405 66.2651 542.542 66.4165C542.684 66.5679 542.754 66.7534 542.754 66.9731C542.754 67.1831 542.684 67.3638 542.542 67.5151C542.405 67.6616 542.208 67.7349 541.949 67.7349C541.685 67.7349 541.485 67.6616 541.348 67.5151C541.216 67.3638 541.15 67.1831 541.15 66.9731ZM548.108 69.0752V70.1152H543.824V69.0752H548.108ZM545.274 67.1489H546.629V75.0371C546.629 75.3057 546.67 75.5083 546.753 75.645C546.836 75.7817 546.944 75.8721 547.076 75.916C547.208 75.96 547.349 75.9819 547.5 75.9819C547.613 75.9819 547.73 75.9722 547.852 75.9526C547.979 75.9282 548.074 75.9087 548.138 75.894L548.145 77C548.038 77.0342 547.896 77.0659 547.72 77.0952C547.549 77.1294 547.342 77.1465 547.098 77.1465C546.766 77.1465 546.46 77.0806 546.182 76.9487C545.904 76.8169 545.682 76.5972 545.516 76.2896C545.354 75.9771 545.274 75.5571 545.274 75.0298V67.1489ZM552.986 77.1465C552.435 77.1465 551.934 77.0537 551.485 76.8682C551.041 76.6777 550.657 76.4116 550.335 76.0698C550.018 75.728 549.773 75.3228 549.603 74.854C549.432 74.3853 549.346 73.8726 549.346 73.3159V73.0083C549.346 72.3638 549.441 71.79 549.632 71.2871C549.822 70.7793 550.081 70.3496 550.408 69.998C550.735 69.6465 551.106 69.3804 551.521 69.1997C551.937 69.019 552.366 68.9287 552.811 68.9287C553.377 68.9287 553.865 69.0264 554.275 69.2217C554.69 69.417 555.03 69.6904 555.293 70.042C555.557 70.3887 555.752 70.7988 555.879 71.2725C556.006 71.7412 556.07 72.2539 556.07 72.8105V73.4185H550.152V72.3125H554.715V72.21C554.695 71.8584 554.622 71.5166 554.495 71.1846C554.373 70.8525 554.178 70.5791 553.909 70.3643C553.641 70.1494 553.274 70.042 552.811 70.042C552.503 70.042 552.22 70.1079 551.961 70.2397C551.702 70.3667 551.48 70.5571 551.294 70.811C551.109 71.0649 550.965 71.375 550.862 71.7412C550.76 72.1074 550.708 72.5298 550.708 73.0083V73.3159C550.708 73.6919 550.76 74.0459 550.862 74.3779C550.97 74.7051 551.124 74.9932 551.324 75.2422C551.529 75.4912 551.775 75.6865 552.063 75.8281C552.356 75.9697 552.688 76.0405 553.06 76.0405C553.538 76.0405 553.943 75.9429 554.275 75.7476C554.607 75.5522 554.898 75.291 555.147 74.9639L555.967 75.6157C555.796 75.8745 555.579 76.1211 555.315 76.3555C555.052 76.5898 554.727 76.7803 554.341 76.9268C553.96 77.0732 553.509 77.1465 552.986 77.1465ZM559 70.6499V77H557.637V69.0752H558.926L559 70.6499ZM558.721 72.7373L558.091 72.7153C558.096 72.1733 558.167 71.6729 558.304 71.2139C558.44 70.75 558.643 70.3472 558.912 70.0054C559.18 69.6636 559.515 69.3999 559.915 69.2144C560.315 69.0239 560.779 68.9287 561.307 68.9287C561.678 68.9287 562.02 68.9824 562.332 69.0898C562.645 69.1924 562.916 69.356 563.145 69.5806C563.375 69.8052 563.553 70.0933 563.68 70.4448C563.807 70.7964 563.87 71.2212 563.87 71.7192V77H562.515V71.7852C562.515 71.3701 562.444 71.0381 562.303 70.7891C562.166 70.54 561.971 70.3594 561.717 70.2471C561.463 70.1299 561.165 70.0713 560.823 70.0713C560.423 70.0713 560.088 70.1421 559.82 70.2837C559.551 70.4253 559.336 70.6206 559.175 70.8696C559.014 71.1187 558.897 71.4043 558.824 71.7266C558.755 72.0439 558.721 72.3809 558.721 72.7373ZM563.855 71.9902L562.947 72.2686C562.952 71.834 563.023 71.4165 563.16 71.0161C563.301 70.6157 563.504 70.2593 563.768 69.9468C564.036 69.6343 564.366 69.3877 564.756 69.207C565.147 69.0215 565.594 68.9287 566.097 68.9287C566.521 68.9287 566.897 68.9849 567.225 69.0972C567.557 69.2095 567.835 69.3828 568.06 69.6172C568.289 69.8467 568.462 70.1421 568.58 70.5034C568.697 70.8647 568.755 71.2944 568.755 71.7925V77H567.393V71.7778C567.393 71.3335 567.322 70.9893 567.181 70.7451C567.044 70.4961 566.849 70.3228 566.595 70.2251C566.346 70.1226 566.048 70.0713 565.701 70.0713C565.403 70.0713 565.14 70.1226 564.91 70.2251C564.681 70.3276 564.488 70.4692 564.332 70.6499C564.175 70.8257 564.056 71.0283 563.973 71.2578C563.895 71.4873 563.855 71.7314 563.855 71.9902ZM574.168 73.1255V72.957C574.168 72.3857 574.251 71.856 574.417 71.3677C574.583 70.8745 574.822 70.4473 575.135 70.0859C575.447 69.7197 575.826 69.4365 576.27 69.2363C576.714 69.0312 577.212 68.9287 577.764 68.9287C578.321 68.9287 578.821 69.0312 579.266 69.2363C579.715 69.4365 580.096 69.7197 580.408 70.0859C580.726 70.4473 580.967 70.8745 581.133 71.3677C581.299 71.856 581.382 72.3857 581.382 72.957V73.1255C581.382 73.6968 581.299 74.2266 581.133 74.7148C580.967 75.2031 580.726 75.6304 580.408 75.9966C580.096 76.3579 579.717 76.6411 579.273 76.8462C578.833 77.0464 578.335 77.1465 577.779 77.1465C577.222 77.1465 576.722 77.0464 576.277 76.8462C575.833 76.6411 575.452 76.3579 575.135 75.9966C574.822 75.6304 574.583 75.2031 574.417 74.7148C574.251 74.2266 574.168 73.6968 574.168 73.1255ZM575.523 72.957V73.1255C575.523 73.521 575.569 73.8945 575.662 74.2461C575.755 74.5928 575.894 74.9004 576.08 75.1689C576.27 75.4375 576.507 75.6499 576.79 75.8062C577.073 75.9575 577.403 76.0332 577.779 76.0332C578.15 76.0332 578.475 75.9575 578.753 75.8062C579.036 75.6499 579.271 75.4375 579.456 75.1689C579.642 74.9004 579.781 74.5928 579.874 74.2461C579.971 73.8945 580.02 73.521 580.02 73.1255V72.957C580.02 72.5664 579.971 72.1978 579.874 71.8511C579.781 71.4995 579.639 71.1895 579.449 70.9209C579.263 70.6475 579.029 70.4326 578.746 70.2764C578.467 70.1201 578.14 70.042 577.764 70.042C577.393 70.042 577.066 70.1201 576.783 70.2764C576.504 70.4326 576.27 70.6475 576.08 70.9209C575.894 71.1895 575.755 71.4995 575.662 71.8511C575.569 72.1978 575.523 72.5664 575.523 72.957ZM584.437 70.7671V77H583.082V69.0752H584.363L584.437 70.7671ZM584.114 72.7373L583.55 72.7153C583.555 72.1733 583.636 71.6729 583.792 71.2139C583.948 70.75 584.168 70.3472 584.451 70.0054C584.734 69.6636 585.071 69.3999 585.462 69.2144C585.857 69.0239 586.294 68.9287 586.773 68.9287C587.164 68.9287 587.515 68.9824 587.828 69.0898C588.14 69.1924 588.406 69.3584 588.626 69.5879C588.851 69.8174 589.021 70.1152 589.139 70.4814C589.256 70.8428 589.314 71.2847 589.314 71.8071V77H587.952V71.7925C587.952 71.3774 587.891 71.0454 587.769 70.7964C587.647 70.5425 587.469 70.3594 587.234 70.2471C587 70.1299 586.712 70.0713 586.37 70.0713C586.033 70.0713 585.726 70.1421 585.447 70.2837C585.174 70.4253 584.937 70.6206 584.737 70.8696C584.542 71.1187 584.388 71.4043 584.275 71.7266C584.168 72.0439 584.114 72.3809 584.114 72.7373ZM594.661 77.1465C594.109 77.1465 593.609 77.0537 593.16 76.8682C592.715 76.6777 592.332 76.4116 592.01 76.0698C591.692 75.728 591.448 75.3228 591.277 74.854C591.106 74.3853 591.021 73.8726 591.021 73.3159V73.0083C591.021 72.3638 591.116 71.79 591.307 71.2871C591.497 70.7793 591.756 70.3496 592.083 69.998C592.41 69.6465 592.781 69.3804 593.196 69.1997C593.611 69.019 594.041 68.9287 594.485 68.9287C595.052 68.9287 595.54 69.0264 595.95 69.2217C596.365 69.417 596.705 69.6904 596.968 70.042C597.232 70.3887 597.427 70.7988 597.554 71.2725C597.681 71.7412 597.745 72.2539 597.745 72.8105V73.4185H591.827V72.3125H596.39V72.21C596.37 71.8584 596.297 71.5166 596.17 71.1846C596.048 70.8525 595.853 70.5791 595.584 70.3643C595.315 70.1494 594.949 70.042 594.485 70.042C594.178 70.042 593.895 70.1079 593.636 70.2397C593.377 70.3667 593.155 70.5571 592.969 70.811C592.784 71.0649 592.64 71.375 592.537 71.7412C592.435 72.1074 592.383 72.5298 592.383 73.0083V73.3159C592.383 73.6919 592.435 74.0459 592.537 74.3779C592.645 74.7051 592.798 74.9932 592.999 75.2422C593.204 75.4912 593.45 75.6865 593.738 75.8281C594.031 75.9697 594.363 76.0405 594.734 76.0405C595.213 76.0405 595.618 75.9429 595.95 75.7476C596.282 75.5522 596.573 75.291 596.822 74.9639L597.642 75.6157C597.471 75.8745 597.254 76.1211 596.99 76.3555C596.727 76.5898 596.402 76.7803 596.016 76.9268C595.635 77.0732 595.184 77.1465 594.661 77.1465Z" fill="#4C4C4C"/>
<mask id="path-7-inside-2_16582_2972" fill="white">
<path d="M480 104H800V168H480V104Z"/>
</mask>
<path d="M480 104H800V168H480V104Z" fill="white"/>
<path d="M800 168V167H480V168V169H800V168Z" fill="#E6E6E6" mask="url(#path-7-inside-2_16582_2972)"/>
<path d="M519.705 139.85V141H514.373V139.85H519.705ZM514.651 130.336V141H513.238V130.336H514.651ZM522.591 133.075V141H521.229V133.075H522.591ZM521.126 130.973C521.126 130.753 521.192 130.568 521.324 130.417C521.46 130.265 521.661 130.189 521.924 130.189C522.183 130.189 522.381 130.265 522.518 130.417C522.659 130.568 522.73 130.753 522.73 130.973C522.73 131.183 522.659 131.364 522.518 131.515C522.381 131.662 522.183 131.735 521.924 131.735C521.661 131.735 521.46 131.662 521.324 131.515C521.192 131.364 521.126 131.183 521.126 130.973ZM529.38 138.898C529.38 138.703 529.336 138.522 529.249 138.356C529.166 138.185 528.992 138.031 528.729 137.895C528.47 137.753 528.079 137.631 527.557 137.528C527.117 137.436 526.719 137.326 526.363 137.199C526.011 137.072 525.711 136.918 525.462 136.737C525.218 136.557 525.03 136.344 524.898 136.1C524.766 135.856 524.7 135.57 524.7 135.243C524.7 134.931 524.769 134.635 524.905 134.357C525.047 134.079 525.245 133.832 525.499 133.617C525.757 133.402 526.067 133.234 526.429 133.112C526.79 132.99 527.193 132.929 527.637 132.929C528.272 132.929 528.814 133.041 529.263 133.266C529.712 133.49 530.057 133.791 530.296 134.167C530.535 134.538 530.655 134.95 530.655 135.404H529.3C529.3 135.185 529.234 134.972 529.102 134.767C528.975 134.557 528.787 134.384 528.538 134.247C528.294 134.11 527.994 134.042 527.637 134.042C527.261 134.042 526.956 134.101 526.722 134.218C526.492 134.33 526.324 134.474 526.216 134.65C526.114 134.826 526.062 135.011 526.062 135.207C526.062 135.353 526.087 135.485 526.136 135.602C526.189 135.714 526.282 135.819 526.414 135.917C526.546 136.01 526.731 136.098 526.971 136.181C527.21 136.264 527.515 136.347 527.886 136.43C528.536 136.576 529.07 136.752 529.49 136.957C529.91 137.162 530.223 137.414 530.428 137.711C530.633 138.009 530.735 138.371 530.735 138.795C530.735 139.142 530.662 139.459 530.516 139.748C530.374 140.036 530.167 140.285 529.893 140.495C529.625 140.7 529.302 140.861 528.926 140.978C528.555 141.09 528.138 141.146 527.674 141.146C526.976 141.146 526.385 141.022 525.901 140.773C525.418 140.524 525.052 140.202 524.803 139.806C524.554 139.411 524.429 138.993 524.429 138.554H525.792C525.811 138.925 525.918 139.22 526.114 139.44C526.309 139.655 526.548 139.809 526.832 139.901C527.115 139.989 527.396 140.033 527.674 140.033C528.045 140.033 528.355 139.984 528.604 139.887C528.858 139.789 529.051 139.655 529.183 139.484C529.314 139.313 529.38 139.118 529.38 138.898ZM535.833 133.075V134.115H531.548V133.075H535.833ZM532.999 131.149H534.354V139.037C534.354 139.306 534.395 139.508 534.478 139.645C534.561 139.782 534.668 139.872 534.8 139.916C534.932 139.96 535.074 139.982 535.225 139.982C535.337 139.982 535.455 139.972 535.577 139.953C535.704 139.928 535.799 139.909 535.862 139.894L535.87 141C535.762 141.034 535.621 141.066 535.445 141.095C535.274 141.129 535.066 141.146 534.822 141.146C534.49 141.146 534.185 141.081 533.907 140.949C533.628 140.817 533.406 140.597 533.24 140.29C533.079 139.977 532.999 139.557 532.999 139.03V131.149ZM542.615 133.075V141H541.253V133.075H542.615ZM541.15 130.973C541.15 130.753 541.216 130.568 541.348 130.417C541.485 130.265 541.685 130.189 541.949 130.189C542.208 130.189 542.405 130.265 542.542 130.417C542.684 130.568 542.754 130.753 542.754 130.973C542.754 131.183 542.684 131.364 542.542 131.515C542.405 131.662 542.208 131.735 541.949 131.735C541.685 131.735 541.485 131.662 541.348 131.515C541.216 131.364 541.15 131.183 541.15 130.973ZM548.108 133.075V134.115H543.824V133.075H548.108ZM545.274 131.149H546.629V139.037C546.629 139.306 546.67 139.508 546.753 139.645C546.836 139.782 546.944 139.872 547.076 139.916C547.208 139.96 547.349 139.982 547.5 139.982C547.613 139.982 547.73 139.972 547.852 139.953C547.979 139.928 548.074 139.909 548.138 139.894L548.145 141C548.038 141.034 547.896 141.066 547.72 141.095C547.549 141.129 547.342 141.146 547.098 141.146C546.766 141.146 546.46 141.081 546.182 140.949C545.904 140.817 545.682 140.597 545.516 140.29C545.354 139.977 545.274 139.557 545.274 139.03V131.149ZM552.986 141.146C552.435 141.146 551.934 141.054 551.485 140.868C551.041 140.678 550.657 140.412 550.335 140.07C550.018 139.728 549.773 139.323 549.603 138.854C549.432 138.385 549.346 137.873 549.346 137.316V137.008C549.346 136.364 549.441 135.79 549.632 135.287C549.822 134.779 550.081 134.35 550.408 133.998C550.735 133.646 551.106 133.38 551.521 133.2C551.937 133.019 552.366 132.929 552.811 132.929C553.377 132.929 553.865 133.026 554.275 133.222C554.69 133.417 555.03 133.69 555.293 134.042C555.557 134.389 555.752 134.799 555.879 135.272C556.006 135.741 556.07 136.254 556.07 136.811V137.418H550.152V136.312H554.715V136.21C554.695 135.858 554.622 135.517 554.495 135.185C554.373 134.853 554.178 134.579 553.909 134.364C553.641 134.149 553.274 134.042 552.811 134.042C552.503 134.042 552.22 134.108 551.961 134.24C551.702 134.367 551.48 134.557 551.294 134.811C551.109 135.065 550.965 135.375 550.862 135.741C550.76 136.107 550.708 136.53 550.708 137.008V137.316C550.708 137.692 550.76 138.046 550.862 138.378C550.97 138.705 551.124 138.993 551.324 139.242C551.529 139.491 551.775 139.687 552.063 139.828C552.356 139.97 552.688 140.041 553.06 140.041C553.538 140.041 553.943 139.943 554.275 139.748C554.607 139.552 554.898 139.291 555.147 138.964L555.967 139.616C555.796 139.875 555.579 140.121 555.315 140.355C555.052 140.59 554.727 140.78 554.341 140.927C553.96 141.073 553.509 141.146 552.986 141.146ZM559 134.65V141H557.637V133.075H558.926L559 134.65ZM558.721 136.737L558.091 136.715C558.096 136.173 558.167 135.673 558.304 135.214C558.44 134.75 558.643 134.347 558.912 134.005C559.18 133.664 559.515 133.4 559.915 133.214C560.315 133.024 560.779 132.929 561.307 132.929C561.678 132.929 562.02 132.982 562.332 133.09C562.645 133.192 562.916 133.356 563.145 133.581C563.375 133.805 563.553 134.093 563.68 134.445C563.807 134.796 563.87 135.221 563.87 135.719V141H562.515V135.785C562.515 135.37 562.444 135.038 562.303 134.789C562.166 134.54 561.971 134.359 561.717 134.247C561.463 134.13 561.165 134.071 560.823 134.071C560.423 134.071 560.088 134.142 559.82 134.284C559.551 134.425 559.336 134.621 559.175 134.87C559.014 135.119 558.897 135.404 558.824 135.727C558.755 136.044 558.721 136.381 558.721 136.737ZM563.855 135.99L562.947 136.269C562.952 135.834 563.023 135.417 563.16 135.016C563.301 134.616 563.504 134.259 563.768 133.947C564.036 133.634 564.366 133.388 564.756 133.207C565.147 133.021 565.594 132.929 566.097 132.929C566.521 132.929 566.897 132.985 567.225 133.097C567.557 133.209 567.835 133.383 568.06 133.617C568.289 133.847 568.462 134.142 568.58 134.503C568.697 134.865 568.755 135.294 568.755 135.792V141H567.393V135.778C567.393 135.333 567.322 134.989 567.181 134.745C567.044 134.496 566.849 134.323 566.595 134.225C566.346 134.123 566.048 134.071 565.701 134.071C565.403 134.071 565.14 134.123 564.91 134.225C564.681 134.328 564.488 134.469 564.332 134.65C564.175 134.826 564.056 135.028 563.973 135.258C563.895 135.487 563.855 135.731 563.855 135.99ZM577.845 133.075V134.115H573.56V133.075H577.845ZM575.01 131.149H576.365V139.037C576.365 139.306 576.407 139.508 576.49 139.645C576.573 139.782 576.68 139.872 576.812 139.916C576.944 139.96 577.085 139.982 577.237 139.982C577.349 139.982 577.466 139.972 577.588 139.953C577.715 139.928 577.811 139.909 577.874 139.894L577.881 141C577.774 141.034 577.632 141.066 577.457 141.095C577.286 141.129 577.078 141.146 576.834 141.146C576.502 141.146 576.197 141.081 575.918 140.949C575.64 140.817 575.418 140.597 575.252 140.29C575.091 139.977 575.01 139.557 575.01 139.03V131.149ZM581.441 139.594L583.477 133.075H584.371L584.195 134.372L582.122 141H581.25L581.441 139.594ZM580.071 133.075L581.807 139.667L581.932 141H581.016L578.716 133.075H580.071ZM586.319 139.616L587.974 133.075H589.322L587.022 141H586.114L586.319 139.616ZM584.568 133.075L586.561 139.484L586.788 141H585.923L583.792 134.357L583.616 133.075H584.568ZM590.354 137.125V136.957C590.354 136.386 590.438 135.856 590.604 135.368C590.77 134.875 591.009 134.447 591.321 134.086C591.634 133.72 592.012 133.437 592.457 133.236C592.901 133.031 593.399 132.929 593.951 132.929C594.507 132.929 595.008 133.031 595.452 133.236C595.901 133.437 596.282 133.72 596.595 134.086C596.912 134.447 597.154 134.875 597.32 135.368C597.486 135.856 597.569 136.386 597.569 136.957V137.125C597.569 137.697 597.486 138.227 597.32 138.715C597.154 139.203 596.912 139.63 596.595 139.997C596.282 140.358 595.904 140.641 595.459 140.846C595.02 141.046 594.522 141.146 593.965 141.146C593.409 141.146 592.908 141.046 592.464 140.846C592.02 140.641 591.639 140.358 591.321 139.997C591.009 139.63 590.77 139.203 590.604 138.715C590.438 138.227 590.354 137.697 590.354 137.125ZM591.709 136.957V137.125C591.709 137.521 591.756 137.895 591.849 138.246C591.941 138.593 592.081 138.9 592.266 139.169C592.457 139.438 592.693 139.65 592.977 139.806C593.26 139.958 593.589 140.033 593.965 140.033C594.336 140.033 594.661 139.958 594.939 139.806C595.223 139.65 595.457 139.438 595.643 139.169C595.828 138.9 595.967 138.593 596.06 138.246C596.158 137.895 596.207 137.521 596.207 137.125V136.957C596.207 136.566 596.158 136.198 596.06 135.851C595.967 135.5 595.826 135.189 595.635 134.921C595.45 134.647 595.215 134.433 594.932 134.276C594.654 134.12 594.327 134.042 593.951 134.042C593.58 134.042 593.252 134.12 592.969 134.276C592.691 134.433 592.457 134.647 592.266 134.921C592.081 135.189 591.941 135.5 591.849 135.851C591.756 136.198 591.709 136.566 591.709 136.957Z" fill="#4C4C4C"/>
<mask id="path-10-inside-3_16582_2972" fill="white">
<path d="M480 168H800V232H480V168Z"/>
</mask>
<path d="M480 168H800V232H480V168Z" fill="white"/>
<path d="M800 232V231H480V232V233H800V232Z" fill="#E6E6E6" mask="url(#path-10-inside-3_16582_2972)"/>
<path d="M519.705 203.85V205H514.373V203.85H519.705ZM514.651 194.336V205H513.238V194.336H514.651ZM522.591 197.075V205H521.229V197.075H522.591ZM521.126 194.973C521.126 194.753 521.192 194.568 521.324 194.417C521.46 194.265 521.661 194.189 521.924 194.189C522.183 194.189 522.381 194.265 522.518 194.417C522.659 194.568 522.73 194.753 522.73 194.973C522.73 195.183 522.659 195.364 522.518 195.515C522.381 195.662 522.183 195.735 521.924 195.735C521.661 195.735 521.46 195.662 521.324 195.515C521.192 195.364 521.126 195.183 521.126 194.973ZM529.38 202.898C529.38 202.703 529.336 202.522 529.249 202.356C529.166 202.185 528.992 202.031 528.729 201.895C528.47 201.753 528.079 201.631 527.557 201.528C527.117 201.436 526.719 201.326 526.363 201.199C526.011 201.072 525.711 200.918 525.462 200.737C525.218 200.557 525.03 200.344 524.898 200.1C524.766 199.856 524.7 199.57 524.7 199.243C524.7 198.931 524.769 198.635 524.905 198.357C525.047 198.079 525.245 197.832 525.499 197.617C525.757 197.402 526.067 197.234 526.429 197.112C526.79 196.99 527.193 196.929 527.637 196.929C528.272 196.929 528.814 197.041 529.263 197.266C529.712 197.49 530.057 197.791 530.296 198.167C530.535 198.538 530.655 198.95 530.655 199.404H529.3C529.3 199.185 529.234 198.972 529.102 198.767C528.975 198.557 528.787 198.384 528.538 198.247C528.294 198.11 527.994 198.042 527.637 198.042C527.261 198.042 526.956 198.101 526.722 198.218C526.492 198.33 526.324 198.474 526.216 198.65C526.114 198.826 526.062 199.011 526.062 199.207C526.062 199.353 526.087 199.485 526.136 199.602C526.189 199.714 526.282 199.819 526.414 199.917C526.546 200.01 526.731 200.098 526.971 200.181C527.21 200.264 527.515 200.347 527.886 200.43C528.536 200.576 529.07 200.752 529.49 200.957C529.91 201.162 530.223 201.414 530.428 201.711C530.633 202.009 530.735 202.371 530.735 202.795C530.735 203.142 530.662 203.459 530.516 203.748C530.374 204.036 530.167 204.285 529.893 204.495C529.625 204.7 529.302 204.861 528.926 204.978C528.555 205.09 528.138 205.146 527.674 205.146C526.976 205.146 526.385 205.022 525.901 204.773C525.418 204.524 525.052 204.202 524.803 203.806C524.554 203.411 524.429 202.993 524.429 202.554H525.792C525.811 202.925 525.918 203.22 526.114 203.44C526.309 203.655 526.548 203.809 526.832 203.901C527.115 203.989 527.396 204.033 527.674 204.033C528.045 204.033 528.355 203.984 528.604 203.887C528.858 203.789 529.051 203.655 529.183 203.484C529.314 203.313 529.38 203.118 529.38 202.898ZM535.833 197.075V198.115H531.548V197.075H535.833ZM532.999 195.149H534.354V203.037C534.354 203.306 534.395 203.508 534.478 203.645C534.561 203.782 534.668 203.872 534.8 203.916C534.932 203.96 535.074 203.982 535.225 203.982C535.337 203.982 535.455 203.972 535.577 203.953C535.704 203.928 535.799 203.909 535.862 203.894L535.87 205C535.762 205.034 535.621 205.066 535.445 205.095C535.274 205.129 535.066 205.146 534.822 205.146C534.49 205.146 534.185 205.081 533.907 204.949C533.628 204.817 533.406 204.597 533.24 204.29C533.079 203.977 532.999 203.557 532.999 203.03V195.149ZM542.615 197.075V205H541.253V197.075H542.615ZM541.15 194.973C541.15 194.753 541.216 194.568 541.348 194.417C541.485 194.265 541.685 194.189 541.949 194.189C542.208 194.189 542.405 194.265 542.542 194.417C542.684 194.568 542.754 194.753 542.754 194.973C542.754 195.183 542.684 195.364 542.542 195.515C542.405 195.662 542.208 195.735 541.949 195.735C541.685 195.735 541.485 195.662 541.348 195.515C541.216 195.364 541.15 195.183 541.15 194.973ZM548.108 197.075V198.115H543.824V197.075H548.108ZM545.274 195.149H546.629V203.037C546.629 203.306 546.67 203.508 546.753 203.645C546.836 203.782 546.944 203.872 547.076 203.916C547.208 203.96 547.349 203.982 547.5 203.982C547.613 203.982 547.73 203.972 547.852 203.953C547.979 203.928 548.074 203.909 548.138 203.894L548.145 205C548.038 205.034 547.896 205.066 547.72 205.095C547.549 205.129 547.342 205.146 547.098 205.146C546.766 205.146 546.46 205.081 546.182 204.949C545.904 204.817 545.682 204.597 545.516 204.29C545.354 203.977 545.274 203.557 545.274 203.03V195.149ZM552.986 205.146C552.435 205.146 551.934 205.054 551.485 204.868C551.041 204.678 550.657 204.412 550.335 204.07C550.018 203.728 549.773 203.323 549.603 202.854C549.432 202.385 549.346 201.873 549.346 201.316V201.008C549.346 200.364 549.441 199.79 549.632 199.287C549.822 198.779 550.081 198.35 550.408 197.998C550.735 197.646 551.106 197.38 551.521 197.2C551.937 197.019 552.366 196.929 552.811 196.929C553.377 196.929 553.865 197.026 554.275 197.222C554.69 197.417 555.03 197.69 555.293 198.042C555.557 198.389 555.752 198.799 555.879 199.272C556.006 199.741 556.07 200.254 556.07 200.811V201.418H550.152V200.312H554.715V200.21C554.695 199.858 554.622 199.517 554.495 199.185C554.373 198.853 554.178 198.579 553.909 198.364C553.641 198.149 553.274 198.042 552.811 198.042C552.503 198.042 552.22 198.108 551.961 198.24C551.702 198.367 551.48 198.557 551.294 198.811C551.109 199.065 550.965 199.375 550.862 199.741C550.76 200.107 550.708 200.53 550.708 201.008V201.316C550.708 201.692 550.76 202.046 550.862 202.378C550.97 202.705 551.124 202.993 551.324 203.242C551.529 203.491 551.775 203.687 552.063 203.828C552.356 203.97 552.688 204.041 553.06 204.041C553.538 204.041 553.943 203.943 554.275 203.748C554.607 203.552 554.898 203.291 555.147 202.964L555.967 203.616C555.796 203.875 555.579 204.121 555.315 204.355C555.052 204.59 554.727 204.78 554.341 204.927C553.96 205.073 553.509 205.146 552.986 205.146ZM559 198.65V205H557.637V197.075H558.926L559 198.65ZM558.721 200.737L558.091 200.715C558.096 200.173 558.167 199.673 558.304 199.214C558.44 198.75 558.643 198.347 558.912 198.005C559.18 197.664 559.515 197.4 559.915 197.214C560.315 197.024 560.779 196.929 561.307 196.929C561.678 196.929 562.02 196.982 562.332 197.09C562.645 197.192 562.916 197.356 563.145 197.581C563.375 197.805 563.553 198.093 563.68 198.445C563.807 198.796 563.87 199.221 563.87 199.719V205H562.515V199.785C562.515 199.37 562.444 199.038 562.303 198.789C562.166 198.54 561.971 198.359 561.717 198.247C561.463 198.13 561.165 198.071 560.823 198.071C560.423 198.071 560.088 198.142 559.82 198.284C559.551 198.425 559.336 198.621 559.175 198.87C559.014 199.119 558.897 199.404 558.824 199.727C558.755 200.044 558.721 200.381 558.721 200.737ZM563.855 199.99L562.947 200.269C562.952 199.834 563.023 199.417 563.16 199.016C563.301 198.616 563.504 198.259 563.768 197.947C564.036 197.634 564.366 197.388 564.756 197.207C565.147 197.021 565.594 196.929 566.097 196.929C566.521 196.929 566.897 196.985 567.225 197.097C567.557 197.209 567.835 197.383 568.06 197.617C568.289 197.847 568.462 198.142 568.58 198.503C568.697 198.865 568.755 199.294 568.755 199.792V205H567.393V199.778C567.393 199.333 567.322 198.989 567.181 198.745C567.044 198.496 566.849 198.323 566.595 198.225C566.346 198.123 566.048 198.071 565.701 198.071C565.403 198.071 565.14 198.123 564.91 198.225C564.681 198.328 564.488 198.469 564.332 198.65C564.175 198.826 564.056 199.028 563.973 199.258C563.895 199.487 563.855 199.731 563.855 199.99ZM577.845 197.075V198.115H573.56V197.075H577.845ZM575.01 195.149H576.365V203.037C576.365 203.306 576.407 203.508 576.49 203.645C576.573 203.782 576.68 203.872 576.812 203.916C576.944 203.96 577.085 203.982 577.237 203.982C577.349 203.982 577.466 203.972 577.588 203.953C577.715 203.928 577.811 203.909 577.874 203.894L577.881 205C577.774 205.034 577.632 205.066 577.457 205.095C577.286 205.129 577.078 205.146 576.834 205.146C576.502 205.146 576.197 205.081 575.918 204.949C575.64 204.817 575.418 204.597 575.252 204.29C575.091 203.977 575.01 203.557 575.01 203.03V195.149ZM580.789 193.75V205H579.434V193.75H580.789ZM580.467 200.737L579.903 200.715C579.908 200.173 579.988 199.673 580.145 199.214C580.301 198.75 580.521 198.347 580.804 198.005C581.087 197.664 581.424 197.4 581.814 197.214C582.21 197.024 582.647 196.929 583.125 196.929C583.516 196.929 583.868 196.982 584.18 197.09C584.493 197.192 584.759 197.358 584.979 197.588C585.203 197.817 585.374 198.115 585.491 198.481C585.608 198.843 585.667 199.285 585.667 199.807V205H584.305V199.792C584.305 199.377 584.244 199.045 584.122 198.796C584 198.542 583.821 198.359 583.587 198.247C583.353 198.13 583.064 198.071 582.723 198.071C582.386 198.071 582.078 198.142 581.8 198.284C581.526 198.425 581.29 198.621 581.089 198.87C580.894 199.119 580.74 199.404 580.628 199.727C580.521 200.044 580.467 200.381 580.467 200.737ZM589.051 198.32V205H587.696V197.075H589.014L589.051 198.32ZM591.526 197.031L591.519 198.291C591.407 198.267 591.299 198.252 591.197 198.247C591.099 198.237 590.987 198.232 590.86 198.232C590.547 198.232 590.271 198.281 590.032 198.379C589.793 198.477 589.59 198.613 589.424 198.789C589.258 198.965 589.126 199.175 589.029 199.419C588.936 199.658 588.875 199.922 588.846 200.21L588.465 200.43C588.465 199.951 588.511 199.502 588.604 199.082C588.702 198.662 588.851 198.291 589.051 197.969C589.251 197.642 589.505 197.388 589.812 197.207C590.125 197.021 590.496 196.929 590.926 196.929C591.023 196.929 591.136 196.941 591.263 196.965C591.39 196.985 591.478 197.007 591.526 197.031ZM595.921 205.146C595.369 205.146 594.869 205.054 594.419 204.868C593.975 204.678 593.592 204.412 593.27 204.07C592.952 203.728 592.708 203.323 592.537 202.854C592.366 202.385 592.281 201.873 592.281 201.316V201.008C592.281 200.364 592.376 199.79 592.566 199.287C592.757 198.779 593.016 198.35 593.343 197.998C593.67 197.646 594.041 197.38 594.456 197.2C594.871 197.019 595.301 196.929 595.745 196.929C596.312 196.929 596.8 197.026 597.21 197.222C597.625 197.417 597.964 197.69 598.228 198.042C598.492 198.389 598.687 198.799 598.814 199.272C598.941 199.741 599.004 200.254 599.004 200.811V201.418H593.086V200.312H597.649V200.21C597.63 199.858 597.557 199.517 597.43 199.185C597.308 198.853 597.112 198.579 596.844 198.364C596.575 198.149 596.209 198.042 595.745 198.042C595.438 198.042 595.154 198.108 594.896 198.24C594.637 198.367 594.415 198.557 594.229 198.811C594.043 199.065 593.899 199.375 593.797 199.741C593.694 200.107 593.643 200.53 593.643 201.008V201.316C593.643 201.692 593.694 202.046 593.797 202.378C593.904 202.705 594.058 202.993 594.258 203.242C594.463 203.491 594.71 203.687 594.998 203.828C595.291 203.97 595.623 204.041 595.994 204.041C596.473 204.041 596.878 203.943 597.21 203.748C597.542 203.552 597.833 203.291 598.082 202.964L598.902 203.616C598.731 203.875 598.514 204.121 598.25 204.355C597.986 204.59 597.662 204.78 597.276 204.927C596.895 205.073 596.443 205.146 595.921 205.146ZM603.875 205.146C603.323 205.146 602.823 205.054 602.374 204.868C601.929 204.678 601.546 204.412 601.224 204.07C600.906 203.728 600.662 203.323 600.491 202.854C600.32 202.385 600.235 201.873 600.235 201.316V201.008C600.235 200.364 600.33 199.79 600.521 199.287C600.711 198.779 600.97 198.35 601.297 197.998C601.624 197.646 601.995 197.38 602.41 197.2C602.825 197.019 603.255 196.929 603.699 196.929C604.266 196.929 604.754 197.026 605.164 197.222C605.579 197.417 605.918 197.69 606.182 198.042C606.446 198.389 606.641 198.799 606.768 199.272C606.895 199.741 606.958 200.254 606.958 200.811V201.418H601.041V200.312H605.604V200.21C605.584 199.858 605.511 199.517 605.384 199.185C605.262 198.853 605.066 198.579 604.798 198.364C604.529 198.149 604.163 198.042 603.699 198.042C603.392 198.042 603.108 198.108 602.85 198.24C602.591 198.367 602.369 198.557 602.183 198.811C601.998 199.065 601.854 199.375 601.751 199.741C601.648 200.107 601.597 200.53 601.597 201.008V201.316C601.597 201.692 601.648 202.046 601.751 202.378C601.858 202.705 602.012 202.993 602.212 203.242C602.417 203.491 602.664 203.687 602.952 203.828C603.245 203.97 603.577 204.041 603.948 204.041C604.427 204.041 604.832 203.943 605.164 203.748C605.496 203.552 605.787 203.291 606.036 202.964L606.856 203.616C606.685 203.875 606.468 204.121 606.204 204.355C605.94 204.59 605.616 204.78 605.23 204.927C604.849 205.073 604.397 205.146 603.875 205.146Z" fill="#4C4C4C"/>
<mask id="path-13-inside-4_16582_2972" fill="white">
<path d="M480 232H800V296H480V232Z"/>
</mask>
<path d="M480 232H800V296H480V232Z" fill="white"/>
<path d="M800 296V295H480V296V297H800V296Z" fill="#E6E6E6" mask="url(#path-13-inside-4_16582_2972)"/>
<path d="M519.705 267.85V269H514.373V267.85H519.705ZM514.651 258.336V269H513.238V258.336H514.651ZM522.591 261.075V269H521.229V261.075H522.591ZM521.126 258.973C521.126 258.753 521.192 258.568 521.324 258.417C521.46 258.265 521.661 258.189 521.924 258.189C522.183 258.189 522.381 258.265 522.518 258.417C522.659 258.568 522.73 258.753 522.73 258.973C522.73 259.183 522.659 259.364 522.518 259.515C522.381 259.662 522.183 259.735 521.924 259.735C521.661 259.735 521.46 259.662 521.324 259.515C521.192 259.364 521.126 259.183 521.126 258.973ZM529.38 266.898C529.38 266.703 529.336 266.522 529.249 266.356C529.166 266.185 528.992 266.031 528.729 265.895C528.47 265.753 528.079 265.631 527.557 265.528C527.117 265.436 526.719 265.326 526.363 265.199C526.011 265.072 525.711 264.918 525.462 264.737C525.218 264.557 525.03 264.344 524.898 264.1C524.766 263.856 524.7 263.57 524.7 263.243C524.7 262.931 524.769 262.635 524.905 262.357C525.047 262.079 525.245 261.832 525.499 261.617C525.757 261.402 526.067 261.234 526.429 261.112C526.79 260.99 527.193 260.929 527.637 260.929C528.272 260.929 528.814 261.041 529.263 261.266C529.712 261.49 530.057 261.791 530.296 262.167C530.535 262.538 530.655 262.95 530.655 263.404H529.3C529.3 263.185 529.234 262.972 529.102 262.767C528.975 262.557 528.787 262.384 528.538 262.247C528.294 262.11 527.994 262.042 527.637 262.042C527.261 262.042 526.956 262.101 526.722 262.218C526.492 262.33 526.324 262.474 526.216 262.65C526.114 262.826 526.062 263.011 526.062 263.207C526.062 263.353 526.087 263.485 526.136 263.602C526.189 263.714 526.282 263.819 526.414 263.917C526.546 264.01 526.731 264.098 526.971 264.181C527.21 264.264 527.515 264.347 527.886 264.43C528.536 264.576 529.07 264.752 529.49 264.957C529.91 265.162 530.223 265.414 530.428 265.711C530.633 266.009 530.735 266.371 530.735 266.795C530.735 267.142 530.662 267.459 530.516 267.748C530.374 268.036 530.167 268.285 529.893 268.495C529.625 268.7 529.302 268.861 528.926 268.978C528.555 269.09 528.138 269.146 527.674 269.146C526.976 269.146 526.385 269.022 525.901 268.773C525.418 268.524 525.052 268.202 524.803 267.806C524.554 267.411 524.429 266.993 524.429 266.554H525.792C525.811 266.925 525.918 267.22 526.114 267.44C526.309 267.655 526.548 267.809 526.832 267.901C527.115 267.989 527.396 268.033 527.674 268.033C528.045 268.033 528.355 267.984 528.604 267.887C528.858 267.789 529.051 267.655 529.183 267.484C529.314 267.313 529.38 267.118 529.38 266.898ZM535.833 261.075V262.115H531.548V261.075H535.833ZM532.999 259.149H534.354V267.037C534.354 267.306 534.395 267.508 534.478 267.645C534.561 267.782 534.668 267.872 534.8 267.916C534.932 267.96 535.074 267.982 535.225 267.982C535.337 267.982 535.455 267.972 535.577 267.953C535.704 267.928 535.799 267.909 535.862 267.894L535.87 269C535.762 269.034 535.621 269.066 535.445 269.095C535.274 269.129 535.066 269.146 534.822 269.146C534.49 269.146 534.185 269.081 533.907 268.949C533.628 268.817 533.406 268.597 533.24 268.29C533.079 267.977 532.999 267.557 532.999 267.03V259.149ZM542.615 261.075V269H541.253V261.075H542.615ZM541.15 258.973C541.15 258.753 541.216 258.568 541.348 258.417C541.485 258.265 541.685 258.189 541.949 258.189C542.208 258.189 542.405 258.265 542.542 258.417C542.684 258.568 542.754 258.753 542.754 258.973C542.754 259.183 542.684 259.364 542.542 259.515C542.405 259.662 542.208 259.735 541.949 259.735C541.685 259.735 541.485 259.662 541.348 259.515C541.216 259.364 541.15 259.183 541.15 258.973ZM548.108 261.075V262.115H543.824V261.075H548.108ZM545.274 259.149H546.629V267.037C546.629 267.306 546.67 267.508 546.753 267.645C546.836 267.782 546.944 267.872 547.076 267.916C547.208 267.96 547.349 267.982 547.5 267.982C547.613 267.982 547.73 267.972 547.852 267.953C547.979 267.928 548.074 267.909 548.138 267.894L548.145 269C548.038 269.034 547.896 269.066 547.72 269.095C547.549 269.129 547.342 269.146 547.098 269.146C546.766 269.146 546.46 269.081 546.182 268.949C545.904 268.817 545.682 268.597 545.516 268.29C545.354 267.977 545.274 267.557 545.274 267.03V259.149ZM552.986 269.146C552.435 269.146 551.934 269.054 551.485 268.868C551.041 268.678 550.657 268.412 550.335 268.07C550.018 267.728 549.773 267.323 549.603 266.854C549.432 266.385 549.346 265.873 549.346 265.316V265.008C549.346 264.364 549.441 263.79 549.632 263.287C549.822 262.779 550.081 262.35 550.408 261.998C550.735 261.646 551.106 261.38 551.521 261.2C551.937 261.019 552.366 260.929 552.811 260.929C553.377 260.929 553.865 261.026 554.275 261.222C554.69 261.417 555.03 261.69 555.293 262.042C555.557 262.389 555.752 262.799 555.879 263.272C556.006 263.741 556.07 264.254 556.07 264.811V265.418H550.152V264.312H554.715V264.21C554.695 263.858 554.622 263.517 554.495 263.185C554.373 262.853 554.178 262.579 553.909 262.364C553.641 262.149 553.274 262.042 552.811 262.042C552.503 262.042 552.22 262.108 551.961 262.24C551.702 262.367 551.48 262.557 551.294 262.811C551.109 263.065 550.965 263.375 550.862 263.741C550.76 264.107 550.708 264.53 550.708 265.008V265.316C550.708 265.692 550.76 266.046 550.862 266.378C550.97 266.705 551.124 266.993 551.324 267.242C551.529 267.491 551.775 267.687 552.063 267.828C552.356 267.97 552.688 268.041 553.06 268.041C553.538 268.041 553.943 267.943 554.275 267.748C554.607 267.552 554.898 267.291 555.147 266.964L555.967 267.616C555.796 267.875 555.579 268.121 555.315 268.355C555.052 268.59 554.727 268.78 554.341 268.927C553.96 269.073 553.509 269.146 552.986 269.146ZM559 262.65V269H557.637V261.075H558.926L559 262.65ZM558.721 264.737L558.091 264.715C558.096 264.173 558.167 263.673 558.304 263.214C558.44 262.75 558.643 262.347 558.912 262.005C559.18 261.664 559.515 261.4 559.915 261.214C560.315 261.024 560.779 260.929 561.307 260.929C561.678 260.929 562.02 260.982 562.332 261.09C562.645 261.192 562.916 261.356 563.145 261.581C563.375 261.805 563.553 262.093 563.68 262.445C563.807 262.796 563.87 263.221 563.87 263.719V269H562.515V263.785C562.515 263.37 562.444 263.038 562.303 262.789C562.166 262.54 561.971 262.359 561.717 262.247C561.463 262.13 561.165 262.071 560.823 262.071C560.423 262.071 560.088 262.142 559.82 262.284C559.551 262.425 559.336 262.621 559.175 262.87C559.014 263.119 558.897 263.404 558.824 263.727C558.755 264.044 558.721 264.381 558.721 264.737ZM563.855 263.99L562.947 264.269C562.952 263.834 563.023 263.417 563.16 263.016C563.301 262.616 563.504 262.259 563.768 261.947C564.036 261.634 564.366 261.388 564.756 261.207C565.147 261.021 565.594 260.929 566.097 260.929C566.521 260.929 566.897 260.985 567.225 261.097C567.557 261.209 567.835 261.383 568.06 261.617C568.289 261.847 568.462 262.142 568.58 262.503C568.697 262.865 568.755 263.294 568.755 263.792V269H567.393V263.778C567.393 263.333 567.322 262.989 567.181 262.745C567.044 262.496 566.849 262.323 566.595 262.225C566.346 262.123 566.048 262.071 565.701 262.071C565.403 262.071 565.14 262.123 564.91 262.225C564.681 262.328 564.488 262.469 564.332 262.65C564.175 262.826 564.056 263.028 563.973 263.258C563.895 263.487 563.855 263.731 563.855 263.99ZM576.548 269H575.193V260.24C575.193 259.669 575.296 259.188 575.501 258.797C575.711 258.402 576.011 258.104 576.402 257.904C576.792 257.699 577.256 257.596 577.793 257.596C577.95 257.596 578.106 257.606 578.262 257.625C578.423 257.645 578.58 257.674 578.731 257.713L578.658 258.819C578.555 258.795 578.438 258.778 578.306 258.768C578.179 258.758 578.052 258.753 577.925 258.753C577.637 258.753 577.388 258.812 577.178 258.929C576.973 259.042 576.817 259.208 576.709 259.427C576.602 259.647 576.548 259.918 576.548 260.24V269ZM578.233 261.075V262.115H573.941V261.075H578.233ZM579.383 265.125V264.957C579.383 264.386 579.466 263.856 579.632 263.368C579.798 262.875 580.037 262.447 580.35 262.086C580.662 261.72 581.041 261.437 581.485 261.236C581.929 261.031 582.427 260.929 582.979 260.929C583.536 260.929 584.036 261.031 584.48 261.236C584.93 261.437 585.311 261.72 585.623 262.086C585.94 262.447 586.182 262.875 586.348 263.368C586.514 263.856 586.597 264.386 586.597 264.957V265.125C586.597 265.697 586.514 266.227 586.348 266.715C586.182 267.203 585.94 267.63 585.623 267.997C585.311 268.358 584.932 268.641 584.488 268.846C584.048 269.046 583.55 269.146 582.994 269.146C582.437 269.146 581.937 269.046 581.492 268.846C581.048 268.641 580.667 268.358 580.35 267.997C580.037 267.63 579.798 267.203 579.632 266.715C579.466 266.227 579.383 265.697 579.383 265.125ZM580.738 264.957V265.125C580.738 265.521 580.784 265.895 580.877 266.246C580.97 266.593 581.109 266.9 581.294 267.169C581.485 267.438 581.722 267.65 582.005 267.806C582.288 267.958 582.618 268.033 582.994 268.033C583.365 268.033 583.689 267.958 583.968 267.806C584.251 267.65 584.485 267.438 584.671 267.169C584.856 266.9 584.996 266.593 585.088 266.246C585.186 265.895 585.235 265.521 585.235 265.125V264.957C585.235 264.566 585.186 264.198 585.088 263.851C584.996 263.5 584.854 263.189 584.664 262.921C584.478 262.647 584.244 262.433 583.96 262.276C583.682 262.12 583.355 262.042 582.979 262.042C582.608 262.042 582.281 262.12 581.998 262.276C581.719 262.433 581.485 262.647 581.294 262.921C581.109 263.189 580.97 263.5 580.877 263.851C580.784 264.198 580.738 264.566 580.738 264.957ZM593.145 267.169V261.075H594.507V269H593.211L593.145 267.169ZM593.401 265.499L593.965 265.484C593.965 266.012 593.909 266.5 593.797 266.949C593.689 267.394 593.514 267.779 593.27 268.106C593.025 268.434 592.706 268.69 592.31 268.875C591.915 269.056 591.434 269.146 590.867 269.146C590.481 269.146 590.127 269.09 589.805 268.978C589.488 268.866 589.214 268.692 588.985 268.458C588.755 268.224 588.577 267.918 588.45 267.542C588.328 267.167 588.267 266.715 588.267 266.188V261.075H589.622V266.202C589.622 266.559 589.661 266.854 589.739 267.088C589.822 267.318 589.932 267.501 590.069 267.638C590.21 267.77 590.367 267.862 590.538 267.916C590.713 267.97 590.894 267.997 591.08 267.997C591.656 267.997 592.112 267.887 592.449 267.667C592.786 267.442 593.028 267.142 593.174 266.766C593.326 266.385 593.401 265.963 593.401 265.499ZM597.928 262.32V269H596.573V261.075H597.891L597.928 262.32ZM600.403 261.031L600.396 262.291C600.284 262.267 600.176 262.252 600.074 262.247C599.976 262.237 599.864 262.232 599.737 262.232C599.424 262.232 599.148 262.281 598.909 262.379C598.67 262.477 598.467 262.613 598.301 262.789C598.135 262.965 598.003 263.175 597.906 263.419C597.813 263.658 597.752 263.922 597.723 264.21L597.342 264.43C597.342 263.951 597.388 263.502 597.481 263.082C597.579 262.662 597.728 262.291 597.928 261.969C598.128 261.642 598.382 261.388 598.689 261.207C599.002 261.021 599.373 260.929 599.803 260.929C599.9 260.929 600.013 260.941 600.14 260.965C600.267 260.985 600.354 261.007 600.403 261.031Z" fill="#4C4C4C"/>
</g>
<path d="M496 40.5H784C792.56 40.5 799.5 47.4396 799.5 56V280C799.5 288.56 792.56 295.5 784 295.5H496C487.44 295.5 480.5 288.56 480.5 280V56C480.5 47.4396 487.44 40.5 496 40.5Z" stroke="#E6E6E6"/>
<line x1="814" y1="139.5" x2="838" y2="139.5" stroke="#0059FF"/>
<rect x="838" y="128" width="24" height="24" rx="12" fill="#0059FF"/>
<path d="M853.199 142.781V144H847.004V142.953L850.013 139.671C850.343 139.299 850.603 138.977 850.793 138.706C850.984 138.435 851.117 138.192 851.193 137.976C851.274 137.756 851.314 137.542 851.314 137.335C851.314 137.043 851.259 136.787 851.149 136.567C851.043 136.343 850.887 136.167 850.679 136.04C850.472 135.909 850.22 135.843 849.924 135.843C849.581 135.843 849.293 135.917 849.061 136.065C848.828 136.214 848.652 136.419 848.534 136.681C848.415 136.939 848.356 137.236 848.356 137.57H846.826C846.826 137.032 846.949 136.542 847.194 136.097C847.44 135.649 847.795 135.293 848.261 135.031C848.726 134.764 849.287 134.631 849.943 134.631C850.561 134.631 851.085 134.735 851.517 134.942C851.949 135.149 852.277 135.443 852.501 135.824C852.729 136.205 852.844 136.656 852.844 137.176C852.844 137.464 852.797 137.75 852.704 138.033C852.611 138.317 852.478 138.6 852.304 138.884C852.135 139.163 851.934 139.444 851.701 139.728C851.468 140.007 851.212 140.291 850.933 140.579L848.934 142.781H853.199Z" fill="white"/>
<rect x="412" y="156" width="24" height="24" rx="12" fill="#0059FF"/>
<path d="M425.181 162.726V172H423.651V164.542L421.385 165.31V164.046L424.997 162.726H425.181Z" fill="white"/>
<line x1="436" y1="167.5" x2="460" y2="167.5" stroke="#0059FF"/>
<path d="M480 40H460V296H480" stroke="#0059FF" stroke-dasharray="3 3"/>
<path d="M790 103H814V167H790" stroke="#0059FF" stroke-dasharray="3 3"/>
<defs>
<clipPath id="clip0_16582_2972">
<path d="M480 56C480 47.1634 487.163 40 496 40H784C792.837 40 800 47.1634 800 56V280C800 288.837 792.837 296 784 296H496C487.163 296 480 288.837 480 280V56Z" fill="white"/>
</clipPath>
</defs>
</svg>
