<svg width="560" height="272" viewBox="0 0 560 272" fill="none" xmlns="http://www.w3.org/2000/svg">
<rect x="0.5" y="0.5" width="559" height="271" rx="15.5" fill="white"/>
<rect x="0.5" y="0.5" width="559" height="271" rx="15.5" stroke="#E6E6E6"/>
<g clip-path="url(#clip0_16582_3061)">
<mask id="path-4-inside-1_16582_3061" fill="white">
<path d="M120 40H440V104H120V40Z"/>
</mask>
<path d="M120 40H440V104H120V40Z" fill="white"/>
<path d="M440 104V103H120V104V105H440V104Z" fill="#E6E6E6" mask="url(#path-4-inside-1_16582_3061)"/>
<path d="M159.705 75.8501V77H154.373V75.8501H159.705ZM154.651 66.3359V77H153.238V66.3359H154.651ZM162.591 69.0752V77H161.229V69.0752H162.591ZM161.126 66.9731C161.126 66.7534 161.192 66.5679 161.324 66.4165C161.46 66.2651 161.661 66.1895 161.924 66.1895C162.183 66.1895 162.381 66.2651 162.518 66.4165C162.659 66.5679 162.73 66.7534 162.73 66.9731C162.73 67.1831 162.659 67.3638 162.518 67.5151C162.381 67.6616 162.183 67.7349 161.924 67.7349C161.661 67.7349 161.46 67.6616 161.324 67.5151C161.192 67.3638 161.126 67.1831 161.126 66.9731ZM169.38 74.8979C169.38 74.7026 169.336 74.522 169.249 74.356C169.166 74.1851 168.992 74.0312 168.729 73.8945C168.47 73.7529 168.079 73.6309 167.557 73.5283C167.117 73.4355 166.719 73.3257 166.363 73.1987C166.011 73.0718 165.711 72.918 165.462 72.7373C165.218 72.5566 165.03 72.3442 164.898 72.1001C164.766 71.856 164.7 71.5703 164.7 71.2432C164.7 70.9307 164.769 70.6353 164.905 70.3569C165.047 70.0786 165.245 69.832 165.499 69.6172C165.757 69.4023 166.067 69.2339 166.429 69.1118C166.79 68.9897 167.193 68.9287 167.637 68.9287C168.272 68.9287 168.814 69.041 169.263 69.2656C169.712 69.4902 170.057 69.7905 170.296 70.1665C170.535 70.5376 170.655 70.9502 170.655 71.4043H169.3C169.3 71.1846 169.234 70.9722 169.102 70.7671C168.975 70.5571 168.787 70.3838 168.538 70.2471C168.294 70.1104 167.994 70.042 167.637 70.042C167.261 70.042 166.956 70.1006 166.722 70.2178C166.492 70.3301 166.324 70.4741 166.216 70.6499C166.114 70.8257 166.062 71.0112 166.062 71.2065C166.062 71.353 166.087 71.4849 166.136 71.6021C166.189 71.7144 166.282 71.8193 166.414 71.917C166.546 72.0098 166.731 72.0977 166.971 72.1807C167.21 72.2637 167.515 72.3467 167.886 72.4297C168.536 72.5762 169.07 72.752 169.49 72.957C169.91 73.1621 170.223 73.4136 170.428 73.7114C170.633 74.0093 170.735 74.3706 170.735 74.7954C170.735 75.1421 170.662 75.4595 170.516 75.7476C170.374 76.0356 170.167 76.2847 169.893 76.4946C169.625 76.6997 169.302 76.8608 168.926 76.978C168.555 77.0903 168.138 77.1465 167.674 77.1465C166.976 77.1465 166.385 77.022 165.901 76.7729C165.418 76.5239 165.052 76.2017 164.803 75.8062C164.554 75.4106 164.429 74.9932 164.429 74.5537H165.792C165.811 74.9248 165.918 75.2202 166.114 75.4399C166.309 75.6548 166.548 75.8086 166.832 75.9014C167.115 75.9893 167.396 76.0332 167.674 76.0332C168.045 76.0332 168.355 75.9844 168.604 75.8867C168.858 75.7891 169.051 75.6548 169.183 75.4839C169.314 75.313 169.38 75.1177 169.38 74.8979ZM175.833 69.0752V70.1152H171.548V69.0752H175.833ZM172.999 67.1489H174.354V75.0371C174.354 75.3057 174.395 75.5083 174.478 75.645C174.561 75.7817 174.668 75.8721 174.8 75.916C174.932 75.96 175.074 75.9819 175.225 75.9819C175.337 75.9819 175.455 75.9722 175.577 75.9526C175.704 75.9282 175.799 75.9087 175.862 75.894L175.87 77C175.762 77.0342 175.621 77.0659 175.445 77.0952C175.274 77.1294 175.066 77.1465 174.822 77.1465C174.49 77.1465 174.185 77.0806 173.907 76.9487C173.628 76.8169 173.406 76.5972 173.24 76.2896C173.079 75.9771 172.999 75.5571 172.999 75.0298V67.1489ZM182.615 69.0752V77H181.253V69.0752H182.615ZM181.15 66.9731C181.15 66.7534 181.216 66.5679 181.348 66.4165C181.485 66.2651 181.685 66.1895 181.949 66.1895C182.208 66.1895 182.405 66.2651 182.542 66.4165C182.684 66.5679 182.754 66.7534 182.754 66.9731C182.754 67.1831 182.684 67.3638 182.542 67.5151C182.405 67.6616 182.208 67.7349 181.949 67.7349C181.685 67.7349 181.485 67.6616 181.348 67.5151C181.216 67.3638 181.15 67.1831 181.15 66.9731ZM188.108 69.0752V70.1152H183.824V69.0752H188.108ZM185.274 67.1489H186.629V75.0371C186.629 75.3057 186.67 75.5083 186.753 75.645C186.836 75.7817 186.944 75.8721 187.076 75.916C187.208 75.96 187.349 75.9819 187.5 75.9819C187.613 75.9819 187.73 75.9722 187.852 75.9526C187.979 75.9282 188.074 75.9087 188.138 75.894L188.145 77C188.038 77.0342 187.896 77.0659 187.72 77.0952C187.549 77.1294 187.342 77.1465 187.098 77.1465C186.766 77.1465 186.46 77.0806 186.182 76.9487C185.904 76.8169 185.682 76.5972 185.516 76.2896C185.354 75.9771 185.274 75.5571 185.274 75.0298V67.1489ZM192.986 77.1465C192.435 77.1465 191.934 77.0537 191.485 76.8682C191.041 76.6777 190.657 76.4116 190.335 76.0698C190.018 75.728 189.773 75.3228 189.603 74.854C189.432 74.3853 189.346 73.8726 189.346 73.3159V73.0083C189.346 72.3638 189.441 71.79 189.632 71.2871C189.822 70.7793 190.081 70.3496 190.408 69.998C190.735 69.6465 191.106 69.3804 191.521 69.1997C191.937 69.019 192.366 68.9287 192.811 68.9287C193.377 68.9287 193.865 69.0264 194.275 69.2217C194.69 69.417 195.03 69.6904 195.293 70.042C195.557 70.3887 195.752 70.7988 195.879 71.2725C196.006 71.7412 196.07 72.2539 196.07 72.8105V73.4185H190.152V72.3125H194.715V72.21C194.695 71.8584 194.622 71.5166 194.495 71.1846C194.373 70.8525 194.178 70.5791 193.909 70.3643C193.641 70.1494 193.274 70.042 192.811 70.042C192.503 70.042 192.22 70.1079 191.961 70.2397C191.702 70.3667 191.48 70.5571 191.294 70.811C191.109 71.0649 190.965 71.375 190.862 71.7412C190.76 72.1074 190.708 72.5298 190.708 73.0083V73.3159C190.708 73.6919 190.76 74.0459 190.862 74.3779C190.97 74.7051 191.124 74.9932 191.324 75.2422C191.529 75.4912 191.775 75.6865 192.063 75.8281C192.356 75.9697 192.688 76.0405 193.06 76.0405C193.538 76.0405 193.943 75.9429 194.275 75.7476C194.607 75.5522 194.898 75.291 195.147 74.9639L195.967 75.6157C195.796 75.8745 195.579 76.1211 195.315 76.3555C195.052 76.5898 194.727 76.7803 194.341 76.9268C193.96 77.0732 193.509 77.1465 192.986 77.1465ZM199 70.6499V77H197.637V69.0752H198.926L199 70.6499ZM198.721 72.7373L198.091 72.7153C198.096 72.1733 198.167 71.6729 198.304 71.2139C198.44 70.75 198.643 70.3472 198.912 70.0054C199.18 69.6636 199.515 69.3999 199.915 69.2144C200.315 69.0239 200.779 68.9287 201.307 68.9287C201.678 68.9287 202.02 68.9824 202.332 69.0898C202.645 69.1924 202.916 69.356 203.145 69.5806C203.375 69.8052 203.553 70.0933 203.68 70.4448C203.807 70.7964 203.87 71.2212 203.87 71.7192V77H202.515V71.7852C202.515 71.3701 202.444 71.0381 202.303 70.7891C202.166 70.54 201.971 70.3594 201.717 70.2471C201.463 70.1299 201.165 70.0713 200.823 70.0713C200.423 70.0713 200.088 70.1421 199.82 70.2837C199.551 70.4253 199.336 70.6206 199.175 70.8696C199.014 71.1187 198.897 71.4043 198.824 71.7266C198.755 72.0439 198.721 72.3809 198.721 72.7373ZM203.855 71.9902L202.947 72.2686C202.952 71.834 203.023 71.4165 203.16 71.0161C203.301 70.6157 203.504 70.2593 203.768 69.9468C204.036 69.6343 204.366 69.3877 204.756 69.207C205.147 69.0215 205.594 68.9287 206.097 68.9287C206.521 68.9287 206.897 68.9849 207.225 69.0972C207.557 69.2095 207.835 69.3828 208.06 69.6172C208.289 69.8467 208.462 70.1421 208.58 70.5034C208.697 70.8647 208.755 71.2944 208.755 71.7925V77H207.393V71.7778C207.393 71.3335 207.322 70.9893 207.181 70.7451C207.044 70.4961 206.849 70.3228 206.595 70.2251C206.346 70.1226 206.048 70.0713 205.701 70.0713C205.403 70.0713 205.14 70.1226 204.91 70.2251C204.681 70.3276 204.488 70.4692 204.332 70.6499C204.175 70.8257 204.056 71.0283 203.973 71.2578C203.895 71.4873 203.855 71.7314 203.855 71.9902ZM214.168 73.1255V72.957C214.168 72.3857 214.251 71.856 214.417 71.3677C214.583 70.8745 214.822 70.4473 215.135 70.0859C215.447 69.7197 215.826 69.4365 216.27 69.2363C216.714 69.0312 217.212 68.9287 217.764 68.9287C218.321 68.9287 218.821 69.0312 219.266 69.2363C219.715 69.4365 220.096 69.7197 220.408 70.0859C220.726 70.4473 220.967 70.8745 221.133 71.3677C221.299 71.856 221.382 72.3857 221.382 72.957V73.1255C221.382 73.6968 221.299 74.2266 221.133 74.7148C220.967 75.2031 220.726 75.6304 220.408 75.9966C220.096 76.3579 219.717 76.6411 219.273 76.8462C218.833 77.0464 218.335 77.1465 217.779 77.1465C217.222 77.1465 216.722 77.0464 216.277 76.8462C215.833 76.6411 215.452 76.3579 215.135 75.9966C214.822 75.6304 214.583 75.2031 214.417 74.7148C214.251 74.2266 214.168 73.6968 214.168 73.1255ZM215.523 72.957V73.1255C215.523 73.521 215.569 73.8945 215.662 74.2461C215.755 74.5928 215.894 74.9004 216.08 75.1689C216.27 75.4375 216.507 75.6499 216.79 75.8062C217.073 75.9575 217.403 76.0332 217.779 76.0332C218.15 76.0332 218.475 75.9575 218.753 75.8062C219.036 75.6499 219.271 75.4375 219.456 75.1689C219.642 74.9004 219.781 74.5928 219.874 74.2461C219.971 73.8945 220.02 73.521 220.02 73.1255V72.957C220.02 72.5664 219.971 72.1978 219.874 71.8511C219.781 71.4995 219.639 71.1895 219.449 70.9209C219.263 70.6475 219.029 70.4326 218.746 70.2764C218.467 70.1201 218.14 70.042 217.764 70.042C217.393 70.042 217.066 70.1201 216.783 70.2764C216.504 70.4326 216.27 70.6475 216.08 70.9209C215.894 71.1895 215.755 71.4995 215.662 71.8511C215.569 72.1978 215.523 72.5664 215.523 72.957ZM224.437 70.7671V77H223.082V69.0752H224.363L224.437 70.7671ZM224.114 72.7373L223.55 72.7153C223.555 72.1733 223.636 71.6729 223.792 71.2139C223.948 70.75 224.168 70.3472 224.451 70.0054C224.734 69.6636 225.071 69.3999 225.462 69.2144C225.857 69.0239 226.294 68.9287 226.773 68.9287C227.164 68.9287 227.515 68.9824 227.828 69.0898C228.14 69.1924 228.406 69.3584 228.626 69.5879C228.851 69.8174 229.021 70.1152 229.139 70.4814C229.256 70.8428 229.314 71.2847 229.314 71.8071V77H227.952V71.7925C227.952 71.3774 227.891 71.0454 227.769 70.7964C227.647 70.5425 227.469 70.3594 227.234 70.2471C227 70.1299 226.712 70.0713 226.37 70.0713C226.033 70.0713 225.726 70.1421 225.447 70.2837C225.174 70.4253 224.937 70.6206 224.737 70.8696C224.542 71.1187 224.388 71.4043 224.275 71.7266C224.168 72.0439 224.114 72.3809 224.114 72.7373ZM234.661 77.1465C234.109 77.1465 233.609 77.0537 233.16 76.8682C232.715 76.6777 232.332 76.4116 232.01 76.0698C231.692 75.728 231.448 75.3228 231.277 74.854C231.106 74.3853 231.021 73.8726 231.021 73.3159V73.0083C231.021 72.3638 231.116 71.79 231.307 71.2871C231.497 70.7793 231.756 70.3496 232.083 69.998C232.41 69.6465 232.781 69.3804 233.196 69.1997C233.611 69.019 234.041 68.9287 234.485 68.9287C235.052 68.9287 235.54 69.0264 235.95 69.2217C236.365 69.417 236.705 69.6904 236.968 70.042C237.232 70.3887 237.427 70.7988 237.554 71.2725C237.681 71.7412 237.745 72.2539 237.745 72.8105V73.4185H231.827V72.3125H236.39V72.21C236.37 71.8584 236.297 71.5166 236.17 71.1846C236.048 70.8525 235.853 70.5791 235.584 70.3643C235.315 70.1494 234.949 70.042 234.485 70.042C234.178 70.042 233.895 70.1079 233.636 70.2397C233.377 70.3667 233.155 70.5571 232.969 70.811C232.784 71.0649 232.64 71.375 232.537 71.7412C232.435 72.1074 232.383 72.5298 232.383 73.0083V73.3159C232.383 73.6919 232.435 74.0459 232.537 74.3779C232.645 74.7051 232.798 74.9932 232.999 75.2422C233.204 75.4912 233.45 75.6865 233.738 75.8281C234.031 75.9697 234.363 76.0405 234.734 76.0405C235.213 76.0405 235.618 75.9429 235.95 75.7476C236.282 75.5522 236.573 75.291 236.822 74.9639L237.642 75.6157C237.471 75.8745 237.254 76.1211 236.99 76.3555C236.727 76.5898 236.402 76.7803 236.016 76.9268C235.635 77.0732 235.184 77.1465 234.661 77.1465Z" fill="#4C4C4C"/>
<mask id="path-7-inside-2_16582_3061" fill="white">
<path d="M120 104H440V168H120V104Z"/>
</mask>
<path d="M120 104H440V168H120V104Z" fill="white"/>
<path d="M440 168V167H120V168V169H440V168Z" fill="#E6E6E6" mask="url(#path-7-inside-2_16582_3061)"/>
<path d="M159.705 139.85V141H154.373V139.85H159.705ZM154.651 130.336V141H153.238V130.336H154.651ZM162.591 133.075V141H161.229V133.075H162.591ZM161.126 130.973C161.126 130.753 161.192 130.568 161.324 130.417C161.46 130.265 161.661 130.189 161.924 130.189C162.183 130.189 162.381 130.265 162.518 130.417C162.659 130.568 162.73 130.753 162.73 130.973C162.73 131.183 162.659 131.364 162.518 131.515C162.381 131.662 162.183 131.735 161.924 131.735C161.661 131.735 161.46 131.662 161.324 131.515C161.192 131.364 161.126 131.183 161.126 130.973ZM169.38 138.898C169.38 138.703 169.336 138.522 169.249 138.356C169.166 138.185 168.992 138.031 168.729 137.895C168.47 137.753 168.079 137.631 167.557 137.528C167.117 137.436 166.719 137.326 166.363 137.199C166.011 137.072 165.711 136.918 165.462 136.737C165.218 136.557 165.03 136.344 164.898 136.1C164.766 135.856 164.7 135.57 164.7 135.243C164.7 134.931 164.769 134.635 164.905 134.357C165.047 134.079 165.245 133.832 165.499 133.617C165.757 133.402 166.067 133.234 166.429 133.112C166.79 132.99 167.193 132.929 167.637 132.929C168.272 132.929 168.814 133.041 169.263 133.266C169.712 133.49 170.057 133.791 170.296 134.167C170.535 134.538 170.655 134.95 170.655 135.404H169.3C169.3 135.185 169.234 134.972 169.102 134.767C168.975 134.557 168.787 134.384 168.538 134.247C168.294 134.11 167.994 134.042 167.637 134.042C167.261 134.042 166.956 134.101 166.722 134.218C166.492 134.33 166.324 134.474 166.216 134.65C166.114 134.826 166.062 135.011 166.062 135.207C166.062 135.353 166.087 135.485 166.136 135.602C166.189 135.714 166.282 135.819 166.414 135.917C166.546 136.01 166.731 136.098 166.971 136.181C167.21 136.264 167.515 136.347 167.886 136.43C168.536 136.576 169.07 136.752 169.49 136.957C169.91 137.162 170.223 137.414 170.428 137.711C170.633 138.009 170.735 138.371 170.735 138.795C170.735 139.142 170.662 139.459 170.516 139.748C170.374 140.036 170.167 140.285 169.893 140.495C169.625 140.7 169.302 140.861 168.926 140.978C168.555 141.09 168.138 141.146 167.674 141.146C166.976 141.146 166.385 141.022 165.901 140.773C165.418 140.524 165.052 140.202 164.803 139.806C164.554 139.411 164.429 138.993 164.429 138.554H165.792C165.811 138.925 165.918 139.22 166.114 139.44C166.309 139.655 166.548 139.809 166.832 139.901C167.115 139.989 167.396 140.033 167.674 140.033C168.045 140.033 168.355 139.984 168.604 139.887C168.858 139.789 169.051 139.655 169.183 139.484C169.314 139.313 169.38 139.118 169.38 138.898ZM175.833 133.075V134.115H171.548V133.075H175.833ZM172.999 131.149H174.354V139.037C174.354 139.306 174.395 139.508 174.478 139.645C174.561 139.782 174.668 139.872 174.8 139.916C174.932 139.96 175.074 139.982 175.225 139.982C175.337 139.982 175.455 139.972 175.577 139.953C175.704 139.928 175.799 139.909 175.862 139.894L175.87 141C175.762 141.034 175.621 141.066 175.445 141.095C175.274 141.129 175.066 141.146 174.822 141.146C174.49 141.146 174.185 141.081 173.907 140.949C173.628 140.817 173.406 140.597 173.24 140.29C173.079 139.977 172.999 139.557 172.999 139.03V131.149ZM182.615 133.075V141H181.253V133.075H182.615ZM181.15 130.973C181.15 130.753 181.216 130.568 181.348 130.417C181.485 130.265 181.685 130.189 181.949 130.189C182.208 130.189 182.405 130.265 182.542 130.417C182.684 130.568 182.754 130.753 182.754 130.973C182.754 131.183 182.684 131.364 182.542 131.515C182.405 131.662 182.208 131.735 181.949 131.735C181.685 131.735 181.485 131.662 181.348 131.515C181.216 131.364 181.15 131.183 181.15 130.973ZM188.108 133.075V134.115H183.824V133.075H188.108ZM185.274 131.149H186.629V139.037C186.629 139.306 186.67 139.508 186.753 139.645C186.836 139.782 186.944 139.872 187.076 139.916C187.208 139.96 187.349 139.982 187.5 139.982C187.613 139.982 187.73 139.972 187.852 139.953C187.979 139.928 188.074 139.909 188.138 139.894L188.145 141C188.038 141.034 187.896 141.066 187.72 141.095C187.549 141.129 187.342 141.146 187.098 141.146C186.766 141.146 186.46 141.081 186.182 140.949C185.904 140.817 185.682 140.597 185.516 140.29C185.354 139.977 185.274 139.557 185.274 139.03V131.149ZM192.986 141.146C192.435 141.146 191.934 141.054 191.485 140.868C191.041 140.678 190.657 140.412 190.335 140.07C190.018 139.728 189.773 139.323 189.603 138.854C189.432 138.385 189.346 137.873 189.346 137.316V137.008C189.346 136.364 189.441 135.79 189.632 135.287C189.822 134.779 190.081 134.35 190.408 133.998C190.735 133.646 191.106 133.38 191.521 133.2C191.937 133.019 192.366 132.929 192.811 132.929C193.377 132.929 193.865 133.026 194.275 133.222C194.69 133.417 195.03 133.69 195.293 134.042C195.557 134.389 195.752 134.799 195.879 135.272C196.006 135.741 196.07 136.254 196.07 136.811V137.418H190.152V136.312H194.715V136.21C194.695 135.858 194.622 135.517 194.495 135.185C194.373 134.853 194.178 134.579 193.909 134.364C193.641 134.149 193.274 134.042 192.811 134.042C192.503 134.042 192.22 134.108 191.961 134.24C191.702 134.367 191.48 134.557 191.294 134.811C191.109 135.065 190.965 135.375 190.862 135.741C190.76 136.107 190.708 136.53 190.708 137.008V137.316C190.708 137.692 190.76 138.046 190.862 138.378C190.97 138.705 191.124 138.993 191.324 139.242C191.529 139.491 191.775 139.687 192.063 139.828C192.356 139.97 192.688 140.041 193.06 140.041C193.538 140.041 193.943 139.943 194.275 139.748C194.607 139.552 194.898 139.291 195.147 138.964L195.967 139.616C195.796 139.875 195.579 140.121 195.315 140.355C195.052 140.59 194.727 140.78 194.341 140.927C193.96 141.073 193.509 141.146 192.986 141.146ZM199 134.65V141H197.637V133.075H198.926L199 134.65ZM198.721 136.737L198.091 136.715C198.096 136.173 198.167 135.673 198.304 135.214C198.44 134.75 198.643 134.347 198.912 134.005C199.18 133.664 199.515 133.4 199.915 133.214C200.315 133.024 200.779 132.929 201.307 132.929C201.678 132.929 202.02 132.982 202.332 133.09C202.645 133.192 202.916 133.356 203.145 133.581C203.375 133.805 203.553 134.093 203.68 134.445C203.807 134.796 203.87 135.221 203.87 135.719V141H202.515V135.785C202.515 135.37 202.444 135.038 202.303 134.789C202.166 134.54 201.971 134.359 201.717 134.247C201.463 134.13 201.165 134.071 200.823 134.071C200.423 134.071 200.088 134.142 199.82 134.284C199.551 134.425 199.336 134.621 199.175 134.87C199.014 135.119 198.897 135.404 198.824 135.727C198.755 136.044 198.721 136.381 198.721 136.737ZM203.855 135.99L202.947 136.269C202.952 135.834 203.023 135.417 203.16 135.016C203.301 134.616 203.504 134.259 203.768 133.947C204.036 133.634 204.366 133.388 204.756 133.207C205.147 133.021 205.594 132.929 206.097 132.929C206.521 132.929 206.897 132.985 207.225 133.097C207.557 133.209 207.835 133.383 208.06 133.617C208.289 133.847 208.462 134.142 208.58 134.503C208.697 134.865 208.755 135.294 208.755 135.792V141H207.393V135.778C207.393 135.333 207.322 134.989 207.181 134.745C207.044 134.496 206.849 134.323 206.595 134.225C206.346 134.123 206.048 134.071 205.701 134.071C205.403 134.071 205.14 134.123 204.91 134.225C204.681 134.328 204.488 134.469 204.332 134.65C204.175 134.826 204.056 135.028 203.973 135.258C203.895 135.487 203.855 135.731 203.855 135.99ZM217.845 133.075V134.115H213.56V133.075H217.845ZM215.01 131.149H216.365V139.037C216.365 139.306 216.407 139.508 216.49 139.645C216.573 139.782 216.68 139.872 216.812 139.916C216.944 139.96 217.085 139.982 217.237 139.982C217.349 139.982 217.466 139.972 217.588 139.953C217.715 139.928 217.811 139.909 217.874 139.894L217.881 141C217.774 141.034 217.632 141.066 217.457 141.095C217.286 141.129 217.078 141.146 216.834 141.146C216.502 141.146 216.197 141.081 215.918 140.949C215.64 140.817 215.418 140.597 215.252 140.29C215.091 139.977 215.01 139.557 215.01 139.03V131.149ZM221.441 139.594L223.477 133.075H224.371L224.195 134.372L222.122 141H221.25L221.441 139.594ZM220.071 133.075L221.807 139.667L221.932 141H221.016L218.716 133.075H220.071ZM226.319 139.616L227.974 133.075H229.322L227.022 141H226.114L226.319 139.616ZM224.568 133.075L226.561 139.484L226.788 141H225.923L223.792 134.357L223.616 133.075H224.568ZM230.354 137.125V136.957C230.354 136.386 230.438 135.856 230.604 135.368C230.77 134.875 231.009 134.447 231.321 134.086C231.634 133.72 232.012 133.437 232.457 133.236C232.901 133.031 233.399 132.929 233.951 132.929C234.507 132.929 235.008 133.031 235.452 133.236C235.901 133.437 236.282 133.72 236.595 134.086C236.912 134.447 237.154 134.875 237.32 135.368C237.486 135.856 237.569 136.386 237.569 136.957V137.125C237.569 137.697 237.486 138.227 237.32 138.715C237.154 139.203 236.912 139.63 236.595 139.997C236.282 140.358 235.904 140.641 235.459 140.846C235.02 141.046 234.522 141.146 233.965 141.146C233.409 141.146 232.908 141.046 232.464 140.846C232.02 140.641 231.639 140.358 231.321 139.997C231.009 139.63 230.77 139.203 230.604 138.715C230.438 138.227 230.354 137.697 230.354 137.125ZM231.709 136.957V137.125C231.709 137.521 231.756 137.895 231.849 138.246C231.941 138.593 232.081 138.9 232.266 139.169C232.457 139.438 232.693 139.65 232.977 139.806C233.26 139.958 233.589 140.033 233.965 140.033C234.336 140.033 234.661 139.958 234.939 139.806C235.223 139.65 235.457 139.438 235.643 139.169C235.828 138.9 235.967 138.593 236.06 138.246C236.158 137.895 236.207 137.521 236.207 137.125V136.957C236.207 136.566 236.158 136.198 236.06 135.851C235.967 135.5 235.826 135.189 235.635 134.921C235.45 134.647 235.215 134.433 234.932 134.276C234.654 134.12 234.327 134.042 233.951 134.042C233.58 134.042 233.252 134.12 232.969 134.276C232.691 134.433 232.457 134.647 232.266 134.921C232.081 135.189 231.941 135.5 231.849 135.851C231.756 136.198 231.709 136.566 231.709 136.957Z" fill="#4C4C4C"/>
<mask id="path-10-inside-3_16582_3061" fill="white">
<path d="M120 168H440V232H120V168Z"/>
</mask>
<path d="M120 168H440V232H120V168Z" fill="white"/>
<path d="M440 232V231H120V232V233H440V232Z" fill="#E6E6E6" mask="url(#path-10-inside-3_16582_3061)"/>
<path d="M159.705 203.85V205H154.373V203.85H159.705ZM154.651 194.336V205H153.238V194.336H154.651ZM162.591 197.075V205H161.229V197.075H162.591ZM161.126 194.973C161.126 194.753 161.192 194.568 161.324 194.417C161.46 194.265 161.661 194.189 161.924 194.189C162.183 194.189 162.381 194.265 162.518 194.417C162.659 194.568 162.73 194.753 162.73 194.973C162.73 195.183 162.659 195.364 162.518 195.515C162.381 195.662 162.183 195.735 161.924 195.735C161.661 195.735 161.46 195.662 161.324 195.515C161.192 195.364 161.126 195.183 161.126 194.973ZM169.38 202.898C169.38 202.703 169.336 202.522 169.249 202.356C169.166 202.185 168.992 202.031 168.729 201.895C168.47 201.753 168.079 201.631 167.557 201.528C167.117 201.436 166.719 201.326 166.363 201.199C166.011 201.072 165.711 200.918 165.462 200.737C165.218 200.557 165.03 200.344 164.898 200.1C164.766 199.856 164.7 199.57 164.7 199.243C164.7 198.931 164.769 198.635 164.905 198.357C165.047 198.079 165.245 197.832 165.499 197.617C165.757 197.402 166.067 197.234 166.429 197.112C166.79 196.99 167.193 196.929 167.637 196.929C168.272 196.929 168.814 197.041 169.263 197.266C169.712 197.49 170.057 197.791 170.296 198.167C170.535 198.538 170.655 198.95 170.655 199.404H169.3C169.3 199.185 169.234 198.972 169.102 198.767C168.975 198.557 168.787 198.384 168.538 198.247C168.294 198.11 167.994 198.042 167.637 198.042C167.261 198.042 166.956 198.101 166.722 198.218C166.492 198.33 166.324 198.474 166.216 198.65C166.114 198.826 166.062 199.011 166.062 199.207C166.062 199.353 166.087 199.485 166.136 199.602C166.189 199.714 166.282 199.819 166.414 199.917C166.546 200.01 166.731 200.098 166.971 200.181C167.21 200.264 167.515 200.347 167.886 200.43C168.536 200.576 169.07 200.752 169.49 200.957C169.91 201.162 170.223 201.414 170.428 201.711C170.633 202.009 170.735 202.371 170.735 202.795C170.735 203.142 170.662 203.459 170.516 203.748C170.374 204.036 170.167 204.285 169.893 204.495C169.625 204.7 169.302 204.861 168.926 204.978C168.555 205.09 168.138 205.146 167.674 205.146C166.976 205.146 166.385 205.022 165.901 204.773C165.418 204.524 165.052 204.202 164.803 203.806C164.554 203.411 164.429 202.993 164.429 202.554H165.792C165.811 202.925 165.918 203.22 166.114 203.44C166.309 203.655 166.548 203.809 166.832 203.901C167.115 203.989 167.396 204.033 167.674 204.033C168.045 204.033 168.355 203.984 168.604 203.887C168.858 203.789 169.051 203.655 169.183 203.484C169.314 203.313 169.38 203.118 169.38 202.898ZM175.833 197.075V198.115H171.548V197.075H175.833ZM172.999 195.149H174.354V203.037C174.354 203.306 174.395 203.508 174.478 203.645C174.561 203.782 174.668 203.872 174.8 203.916C174.932 203.96 175.074 203.982 175.225 203.982C175.337 203.982 175.455 203.972 175.577 203.953C175.704 203.928 175.799 203.909 175.862 203.894L175.87 205C175.762 205.034 175.621 205.066 175.445 205.095C175.274 205.129 175.066 205.146 174.822 205.146C174.49 205.146 174.185 205.081 173.907 204.949C173.628 204.817 173.406 204.597 173.24 204.29C173.079 203.977 172.999 203.557 172.999 203.03V195.149ZM182.615 197.075V205H181.253V197.075H182.615ZM181.15 194.973C181.15 194.753 181.216 194.568 181.348 194.417C181.485 194.265 181.685 194.189 181.949 194.189C182.208 194.189 182.405 194.265 182.542 194.417C182.684 194.568 182.754 194.753 182.754 194.973C182.754 195.183 182.684 195.364 182.542 195.515C182.405 195.662 182.208 195.735 181.949 195.735C181.685 195.735 181.485 195.662 181.348 195.515C181.216 195.364 181.15 195.183 181.15 194.973ZM188.108 197.075V198.115H183.824V197.075H188.108ZM185.274 195.149H186.629V203.037C186.629 203.306 186.67 203.508 186.753 203.645C186.836 203.782 186.944 203.872 187.076 203.916C187.208 203.96 187.349 203.982 187.5 203.982C187.613 203.982 187.73 203.972 187.852 203.953C187.979 203.928 188.074 203.909 188.138 203.894L188.145 205C188.038 205.034 187.896 205.066 187.72 205.095C187.549 205.129 187.342 205.146 187.098 205.146C186.766 205.146 186.46 205.081 186.182 204.949C185.904 204.817 185.682 204.597 185.516 204.29C185.354 203.977 185.274 203.557 185.274 203.03V195.149ZM192.986 205.146C192.435 205.146 191.934 205.054 191.485 204.868C191.041 204.678 190.657 204.412 190.335 204.07C190.018 203.728 189.773 203.323 189.603 202.854C189.432 202.385 189.346 201.873 189.346 201.316V201.008C189.346 200.364 189.441 199.79 189.632 199.287C189.822 198.779 190.081 198.35 190.408 197.998C190.735 197.646 191.106 197.38 191.521 197.2C191.937 197.019 192.366 196.929 192.811 196.929C193.377 196.929 193.865 197.026 194.275 197.222C194.69 197.417 195.03 197.69 195.293 198.042C195.557 198.389 195.752 198.799 195.879 199.272C196.006 199.741 196.07 200.254 196.07 200.811V201.418H190.152V200.312H194.715V200.21C194.695 199.858 194.622 199.517 194.495 199.185C194.373 198.853 194.178 198.579 193.909 198.364C193.641 198.149 193.274 198.042 192.811 198.042C192.503 198.042 192.22 198.108 191.961 198.24C191.702 198.367 191.48 198.557 191.294 198.811C191.109 199.065 190.965 199.375 190.862 199.741C190.76 200.107 190.708 200.53 190.708 201.008V201.316C190.708 201.692 190.76 202.046 190.862 202.378C190.97 202.705 191.124 202.993 191.324 203.242C191.529 203.491 191.775 203.687 192.063 203.828C192.356 203.97 192.688 204.041 193.06 204.041C193.538 204.041 193.943 203.943 194.275 203.748C194.607 203.552 194.898 203.291 195.147 202.964L195.967 203.616C195.796 203.875 195.579 204.121 195.315 204.355C195.052 204.59 194.727 204.78 194.341 204.927C193.96 205.073 193.509 205.146 192.986 205.146ZM199 198.65V205H197.637V197.075H198.926L199 198.65ZM198.721 200.737L198.091 200.715C198.096 200.173 198.167 199.673 198.304 199.214C198.44 198.75 198.643 198.347 198.912 198.005C199.18 197.664 199.515 197.4 199.915 197.214C200.315 197.024 200.779 196.929 201.307 196.929C201.678 196.929 202.02 196.982 202.332 197.09C202.645 197.192 202.916 197.356 203.145 197.581C203.375 197.805 203.553 198.093 203.68 198.445C203.807 198.796 203.87 199.221 203.87 199.719V205H202.515V199.785C202.515 199.37 202.444 199.038 202.303 198.789C202.166 198.54 201.971 198.359 201.717 198.247C201.463 198.13 201.165 198.071 200.823 198.071C200.423 198.071 200.088 198.142 199.82 198.284C199.551 198.425 199.336 198.621 199.175 198.87C199.014 199.119 198.897 199.404 198.824 199.727C198.755 200.044 198.721 200.381 198.721 200.737ZM203.855 199.99L202.947 200.269C202.952 199.834 203.023 199.417 203.16 199.016C203.301 198.616 203.504 198.259 203.768 197.947C204.036 197.634 204.366 197.388 204.756 197.207C205.147 197.021 205.594 196.929 206.097 196.929C206.521 196.929 206.897 196.985 207.225 197.097C207.557 197.209 207.835 197.383 208.06 197.617C208.289 197.847 208.462 198.142 208.58 198.503C208.697 198.865 208.755 199.294 208.755 199.792V205H207.393V199.778C207.393 199.333 207.322 198.989 207.181 198.745C207.044 198.496 206.849 198.323 206.595 198.225C206.346 198.123 206.048 198.071 205.701 198.071C205.403 198.071 205.14 198.123 204.91 198.225C204.681 198.328 204.488 198.469 204.332 198.65C204.175 198.826 204.056 199.028 203.973 199.258C203.895 199.487 203.855 199.731 203.855 199.99ZM217.845 197.075V198.115H213.56V197.075H217.845ZM215.01 195.149H216.365V203.037C216.365 203.306 216.407 203.508 216.49 203.645C216.573 203.782 216.68 203.872 216.812 203.916C216.944 203.96 217.085 203.982 217.237 203.982C217.349 203.982 217.466 203.972 217.588 203.953C217.715 203.928 217.811 203.909 217.874 203.894L217.881 205C217.774 205.034 217.632 205.066 217.457 205.095C217.286 205.129 217.078 205.146 216.834 205.146C216.502 205.146 216.197 205.081 215.918 204.949C215.64 204.817 215.418 204.597 215.252 204.29C215.091 203.977 215.01 203.557 215.01 203.03V195.149ZM220.789 193.75V205H219.434V193.75H220.789ZM220.467 200.737L219.903 200.715C219.908 200.173 219.988 199.673 220.145 199.214C220.301 198.75 220.521 198.347 220.804 198.005C221.087 197.664 221.424 197.4 221.814 197.214C222.21 197.024 222.647 196.929 223.125 196.929C223.516 196.929 223.868 196.982 224.18 197.09C224.493 197.192 224.759 197.358 224.979 197.588C225.203 197.817 225.374 198.115 225.491 198.481C225.608 198.843 225.667 199.285 225.667 199.807V205H224.305V199.792C224.305 199.377 224.244 199.045 224.122 198.796C224 198.542 223.821 198.359 223.587 198.247C223.353 198.13 223.064 198.071 222.723 198.071C222.386 198.071 222.078 198.142 221.8 198.284C221.526 198.425 221.29 198.621 221.089 198.87C220.894 199.119 220.74 199.404 220.628 199.727C220.521 200.044 220.467 200.381 220.467 200.737ZM229.051 198.32V205H227.696V197.075H229.014L229.051 198.32ZM231.526 197.031L231.519 198.291C231.407 198.267 231.299 198.252 231.197 198.247C231.099 198.237 230.987 198.232 230.86 198.232C230.547 198.232 230.271 198.281 230.032 198.379C229.793 198.477 229.59 198.613 229.424 198.789C229.258 198.965 229.126 199.175 229.029 199.419C228.936 199.658 228.875 199.922 228.846 200.21L228.465 200.43C228.465 199.951 228.511 199.502 228.604 199.082C228.702 198.662 228.851 198.291 229.051 197.969C229.251 197.642 229.505 197.388 229.812 197.207C230.125 197.021 230.496 196.929 230.926 196.929C231.023 196.929 231.136 196.941 231.263 196.965C231.39 196.985 231.478 197.007 231.526 197.031ZM235.921 205.146C235.369 205.146 234.869 205.054 234.419 204.868C233.975 204.678 233.592 204.412 233.27 204.07C232.952 203.728 232.708 203.323 232.537 202.854C232.366 202.385 232.281 201.873 232.281 201.316V201.008C232.281 200.364 232.376 199.79 232.566 199.287C232.757 198.779 233.016 198.35 233.343 197.998C233.67 197.646 234.041 197.38 234.456 197.2C234.871 197.019 235.301 196.929 235.745 196.929C236.312 196.929 236.8 197.026 237.21 197.222C237.625 197.417 237.964 197.69 238.228 198.042C238.492 198.389 238.687 198.799 238.814 199.272C238.941 199.741 239.004 200.254 239.004 200.811V201.418H233.086V200.312H237.649V200.21C237.63 199.858 237.557 199.517 237.43 199.185C237.308 198.853 237.112 198.579 236.844 198.364C236.575 198.149 236.209 198.042 235.745 198.042C235.438 198.042 235.154 198.108 234.896 198.24C234.637 198.367 234.415 198.557 234.229 198.811C234.043 199.065 233.899 199.375 233.797 199.741C233.694 200.107 233.643 200.53 233.643 201.008V201.316C233.643 201.692 233.694 202.046 233.797 202.378C233.904 202.705 234.058 202.993 234.258 203.242C234.463 203.491 234.71 203.687 234.998 203.828C235.291 203.97 235.623 204.041 235.994 204.041C236.473 204.041 236.878 203.943 237.21 203.748C237.542 203.552 237.833 203.291 238.082 202.964L238.902 203.616C238.731 203.875 238.514 204.121 238.25 204.355C237.986 204.59 237.662 204.78 237.276 204.927C236.895 205.073 236.443 205.146 235.921 205.146ZM243.875 205.146C243.323 205.146 242.823 205.054 242.374 204.868C241.929 204.678 241.546 204.412 241.224 204.07C240.906 203.728 240.662 203.323 240.491 202.854C240.32 202.385 240.235 201.873 240.235 201.316V201.008C240.235 200.364 240.33 199.79 240.521 199.287C240.711 198.779 240.97 198.35 241.297 197.998C241.624 197.646 241.995 197.38 242.41 197.2C242.825 197.019 243.255 196.929 243.699 196.929C244.266 196.929 244.754 197.026 245.164 197.222C245.579 197.417 245.918 197.69 246.182 198.042C246.446 198.389 246.641 198.799 246.768 199.272C246.895 199.741 246.958 200.254 246.958 200.811V201.418H241.041V200.312H245.604V200.21C245.584 199.858 245.511 199.517 245.384 199.185C245.262 198.853 245.066 198.579 244.798 198.364C244.529 198.149 244.163 198.042 243.699 198.042C243.392 198.042 243.108 198.108 242.85 198.24C242.591 198.367 242.369 198.557 242.183 198.811C241.998 199.065 241.854 199.375 241.751 199.741C241.648 200.107 241.597 200.53 241.597 201.008V201.316C241.597 201.692 241.648 202.046 241.751 202.378C241.858 202.705 242.012 202.993 242.212 203.242C242.417 203.491 242.664 203.687 242.952 203.828C243.245 203.97 243.577 204.041 243.948 204.041C244.427 204.041 244.832 203.943 245.164 203.748C245.496 203.552 245.787 203.291 246.036 202.964L246.856 203.616C246.685 203.875 246.468 204.121 246.204 204.355C245.94 204.59 245.616 204.78 245.23 204.927C244.849 205.073 244.397 205.146 243.875 205.146Z" fill="#4C4C4C"/>
</g>
<path d="M136 40.5H424C432.56 40.5 439.5 47.4396 439.5 56V216C439.5 224.56 432.56 231.5 424 231.5H136C127.44 231.5 120.5 224.56 120.5 216V56C120.5 47.4396 127.44 40.5 136 40.5Z" stroke="#E6E6E6"/>
<defs>
<clipPath id="clip0_16582_3061">
<path d="M120 56C120 47.1634 127.163 40 136 40H424C432.837 40 440 47.1634 440 56V216C440 224.837 432.837 232 424 232H136C127.163 232 120 224.837 120 216V56Z" fill="white"/>
</clipPath>
</defs>
</svg>
