<svg width="560" height="248" viewBox="0 0 560 248" fill="none" xmlns="http://www.w3.org/2000/svg">
<rect x="0.5" y="0.5" width="559" height="247" rx="15.5" fill="white"/>
<rect x="0.5" y="0.5" width="559" height="247" rx="15.5" stroke="#E6E6E6"/>
<g clip-path="url(#clip0_16582_3176)">
<mask id="path-4-inside-1_16582_3176" fill="white">
<path d="M61 60H501V124H61V60Z"/>
</mask>
<path d="M61 60H501V124H61V60Z" fill="white"/>
<path d="M501 124V123H61V124V125H501V124Z" fill="#E6E6E6" mask="url(#path-4-inside-1_16582_3176)"/>
<path d="M94.9531 85.625H96.7031L99.9922 94.3984L103.273 85.625H105.023L100.68 97H99.2891L94.9531 85.625ZM94.1562 85.625H95.8203L96.1094 93.2188V97H94.1562V85.625ZM104.156 85.625H105.828V97H103.867V93.2188L104.156 85.625ZM112.734 95.3047V91.2734C112.734 90.9714 112.68 90.7109 112.57 90.4922C112.461 90.2734 112.294 90.1042 112.07 89.9844C111.852 89.8646 111.576 89.8047 111.242 89.8047C110.935 89.8047 110.669 89.8568 110.445 89.9609C110.221 90.0651 110.047 90.2057 109.922 90.3828C109.797 90.5599 109.734 90.7604 109.734 90.9844H107.859C107.859 90.651 107.94 90.3281 108.102 90.0156C108.263 89.7031 108.497 89.4245 108.805 89.1797C109.112 88.9349 109.479 88.7422 109.906 88.6016C110.333 88.4609 110.812 88.3906 111.344 88.3906C111.979 88.3906 112.542 88.4974 113.031 88.7109C113.526 88.9245 113.914 89.2474 114.195 89.6797C114.482 90.1068 114.625 90.6432 114.625 91.2891V95.0469C114.625 95.4323 114.651 95.7786 114.703 96.0859C114.76 96.388 114.841 96.651 114.945 96.875V97H113.016C112.927 96.7969 112.857 96.5391 112.805 96.2266C112.758 95.9089 112.734 95.6016 112.734 95.3047ZM113.008 91.8594L113.023 93.0234H111.672C111.323 93.0234 111.016 93.0573 110.75 93.125C110.484 93.1875 110.263 93.2812 110.086 93.4062C109.909 93.5312 109.776 93.6823 109.688 93.8594C109.599 94.0365 109.555 94.237 109.555 94.4609C109.555 94.6849 109.607 94.8906 109.711 95.0781C109.815 95.2604 109.966 95.4036 110.164 95.5078C110.367 95.612 110.612 95.6641 110.898 95.6641C111.284 95.6641 111.62 95.5859 111.906 95.4297C112.198 95.2682 112.427 95.0729 112.594 94.8438C112.76 94.6094 112.849 94.388 112.859 94.1797L113.469 95.0156C113.406 95.2292 113.299 95.4583 113.148 95.7031C112.997 95.9479 112.799 96.1823 112.555 96.4062C112.315 96.625 112.026 96.8047 111.688 96.9453C111.354 97.0859 110.969 97.1562 110.531 97.1562C109.979 97.1562 109.487 97.0469 109.055 96.8281C108.622 96.6042 108.284 96.3047 108.039 95.9297C107.794 95.5495 107.672 95.1198 107.672 94.6406C107.672 94.1927 107.755 93.7969 107.922 93.4531C108.094 93.1042 108.344 92.8125 108.672 92.5781C109.005 92.3438 109.411 92.1667 109.891 92.0469C110.37 91.9219 110.917 91.8594 111.531 91.8594H113.008ZM121.336 94.7109C121.336 94.5234 121.289 94.3542 121.195 94.2031C121.102 94.0469 120.922 93.9062 120.656 93.7812C120.396 93.6562 120.01 93.5417 119.5 93.4375C119.052 93.3385 118.641 93.2214 118.266 93.0859C117.896 92.9453 117.578 92.776 117.312 92.5781C117.047 92.3802 116.841 92.1458 116.695 91.875C116.549 91.6042 116.477 91.2917 116.477 90.9375C116.477 90.5938 116.552 90.2682 116.703 89.9609C116.854 89.6536 117.07 89.3828 117.352 89.1484C117.633 88.9141 117.974 88.7292 118.375 88.5938C118.781 88.4583 119.234 88.3906 119.734 88.3906C120.443 88.3906 121.049 88.5104 121.555 88.75C122.065 88.9844 122.456 89.3047 122.727 89.7109C122.997 90.112 123.133 90.5651 123.133 91.0703H121.25C121.25 90.8464 121.193 90.638 121.078 90.4453C120.969 90.2474 120.802 90.0885 120.578 89.9688C120.354 89.8438 120.073 89.7812 119.734 89.7812C119.411 89.7812 119.143 89.8333 118.93 89.9375C118.721 90.0365 118.565 90.1667 118.461 90.3281C118.362 90.4896 118.312 90.6667 118.312 90.8594C118.312 91 118.339 91.1276 118.391 91.2422C118.448 91.3516 118.542 91.4531 118.672 91.5469C118.802 91.6354 118.979 91.7188 119.203 91.7969C119.432 91.875 119.719 91.9505 120.062 92.0234C120.708 92.1589 121.263 92.3333 121.727 92.5469C122.195 92.7552 122.555 93.026 122.805 93.3594C123.055 93.6875 123.18 94.1042 123.18 94.6094C123.18 94.9844 123.099 95.3281 122.938 95.6406C122.781 95.9479 122.552 96.2161 122.25 96.4453C121.948 96.6693 121.586 96.8438 121.164 96.9688C120.747 97.0938 120.279 97.1562 119.758 97.1562C118.992 97.1562 118.344 97.0208 117.812 96.75C117.281 96.474 116.878 96.1224 116.602 95.6953C116.331 95.263 116.195 94.8151 116.195 94.3516H118.016C118.036 94.7005 118.133 94.9792 118.305 95.1875C118.482 95.3906 118.701 95.5391 118.961 95.6328C119.227 95.7214 119.5 95.7656 119.781 95.7656C120.12 95.7656 120.404 95.7214 120.633 95.6328C120.862 95.5391 121.036 95.4141 121.156 95.2578C121.276 95.0964 121.336 94.9141 121.336 94.7109ZM126.727 85V97H124.836V85H126.727ZM131.977 88.5469L128.297 92.625L126.281 94.6875L125.789 93.0938L127.312 91.2109L129.703 88.5469H131.977ZM130.109 97L127.367 93.0312L128.555 91.7109L132.289 97H130.109ZM139.172 85V97H137.281V85H139.172ZM140.875 92.8672V92.6875C140.875 92.0781 140.964 91.513 141.141 90.9922C141.318 90.4661 141.573 90.0104 141.906 89.625C142.245 89.2344 142.656 88.9323 143.141 88.7188C143.63 88.5 144.182 88.3906 144.797 88.3906C145.417 88.3906 145.969 88.5 146.453 88.7188C146.943 88.9323 147.357 89.2344 147.695 89.625C148.034 90.0104 148.292 90.4661 148.469 90.9922C148.646 91.513 148.734 92.0781 148.734 92.6875V92.8672C148.734 93.4766 148.646 94.0417 148.469 94.5625C148.292 95.0833 148.034 95.5391 147.695 95.9297C147.357 96.3151 146.945 96.6172 146.461 96.8359C145.977 97.0495 145.427 97.1562 144.812 97.1562C144.193 97.1562 143.638 97.0495 143.148 96.8359C142.664 96.6172 142.253 96.3151 141.914 95.9297C141.576 95.5391 141.318 95.0833 141.141 94.5625C140.964 94.0417 140.875 93.4766 140.875 92.8672ZM142.758 92.6875V92.8672C142.758 93.2474 142.797 93.6068 142.875 93.9453C142.953 94.2839 143.076 94.5807 143.242 94.8359C143.409 95.0911 143.622 95.2917 143.883 95.4375C144.143 95.5833 144.453 95.6562 144.812 95.6562C145.161 95.6562 145.464 95.5833 145.719 95.4375C145.979 95.2917 146.193 95.0911 146.359 94.8359C146.526 94.5807 146.648 94.2839 146.727 93.9453C146.81 93.6068 146.852 93.2474 146.852 92.8672V92.6875C146.852 92.3125 146.81 91.9583 146.727 91.625C146.648 91.2865 146.523 90.987 146.352 90.7266C146.185 90.4661 145.971 90.263 145.711 90.1172C145.456 89.9661 145.151 89.8906 144.797 89.8906C144.443 89.8906 144.135 89.9661 143.875 90.1172C143.62 90.263 143.409 90.4661 143.242 90.7266C143.076 90.987 142.953 91.2865 142.875 91.625C142.797 91.9583 142.758 92.3125 142.758 92.6875ZM155.727 88.5469H157.438V96.7656C157.438 97.526 157.276 98.1719 156.953 98.7031C156.63 99.2344 156.18 99.638 155.602 99.9141C155.023 100.195 154.354 100.336 153.594 100.336C153.271 100.336 152.911 100.289 152.516 100.195C152.125 100.102 151.745 99.9505 151.375 99.7422C151.01 99.5391 150.706 99.2708 150.461 98.9375L151.344 97.8281C151.646 98.1875 151.979 98.4505 152.344 98.6172C152.708 98.7839 153.091 98.8672 153.492 98.8672C153.924 98.8672 154.292 98.7865 154.594 98.625C154.901 98.4688 155.138 98.237 155.305 97.9297C155.471 97.6224 155.555 97.2474 155.555 96.8047V90.4609L155.727 88.5469ZM149.984 92.8672V92.7031C149.984 92.0625 150.062 91.4792 150.219 90.9531C150.375 90.4219 150.599 89.9661 150.891 89.5859C151.182 89.2005 151.536 88.9062 151.953 88.7031C152.37 88.4948 152.841 88.3906 153.367 88.3906C153.914 88.3906 154.38 88.4896 154.766 88.6875C155.156 88.8854 155.482 89.1693 155.742 89.5391C156.003 89.9036 156.206 90.3411 156.352 90.8516C156.503 91.3568 156.615 91.9193 156.688 92.5391V93.0625C156.62 93.6667 156.505 94.2188 156.344 94.7188C156.182 95.2188 155.969 95.651 155.703 96.0156C155.438 96.3802 155.109 96.6615 154.719 96.8594C154.333 97.0573 153.878 97.1562 153.352 97.1562C152.836 97.1562 152.37 97.0495 151.953 96.8359C151.542 96.6224 151.188 96.3229 150.891 95.9375C150.599 95.5521 150.375 95.099 150.219 94.5781C150.062 94.0521 149.984 93.4818 149.984 92.8672ZM151.867 92.7031V92.8672C151.867 93.2526 151.904 93.612 151.977 93.9453C152.055 94.2786 152.172 94.5729 152.328 94.8281C152.49 95.0781 152.693 95.276 152.938 95.4219C153.188 95.5625 153.482 95.6328 153.82 95.6328C154.263 95.6328 154.625 95.5391 154.906 95.3516C155.193 95.1641 155.411 94.9115 155.562 94.5938C155.719 94.2708 155.828 93.9115 155.891 93.5156V92.1016C155.859 91.7943 155.794 91.5078 155.695 91.2422C155.602 90.9766 155.474 90.7448 155.312 90.5469C155.151 90.3438 154.948 90.1875 154.703 90.0781C154.458 89.9635 154.169 89.9062 153.836 89.9062C153.497 89.9062 153.203 89.9792 152.953 90.125C152.703 90.2708 152.497 90.4714 152.336 90.7266C152.18 90.9818 152.062 91.2786 151.984 91.6172C151.906 91.9557 151.867 92.3177 151.867 92.7031ZM161.406 88.5469V97H159.516V88.5469H161.406ZM159.391 86.3281C159.391 86.0417 159.484 85.8047 159.672 85.6172C159.865 85.4245 160.13 85.3281 160.469 85.3281C160.802 85.3281 161.065 85.4245 161.258 85.6172C161.451 85.8047 161.547 86.0417 161.547 86.3281C161.547 86.6094 161.451 86.8438 161.258 87.0312C161.065 87.2188 160.802 87.3125 160.469 87.3125C160.13 87.3125 159.865 87.2188 159.672 87.0312C159.484 86.8438 159.391 86.6094 159.391 86.3281ZM165.336 90.3516V97H163.453V88.5469H165.227L165.336 90.3516ZM165 92.4609L164.391 92.4531C164.396 91.8542 164.479 91.3047 164.641 90.8047C164.807 90.3047 165.036 89.875 165.328 89.5156C165.625 89.1562 165.979 88.8802 166.391 88.6875C166.802 88.4896 167.26 88.3906 167.766 88.3906C168.172 88.3906 168.539 88.4479 168.867 88.5625C169.201 88.6719 169.484 88.8516 169.719 89.1016C169.958 89.3516 170.141 89.6771 170.266 90.0781C170.391 90.474 170.453 90.9609 170.453 91.5391V97H168.562V91.5312C168.562 91.125 168.503 90.8047 168.383 90.5703C168.268 90.3307 168.099 90.1615 167.875 90.0625C167.656 89.9583 167.383 89.9062 167.055 89.9062C166.732 89.9062 166.443 89.974 166.188 90.1094C165.932 90.2448 165.716 90.4297 165.539 90.6641C165.367 90.8984 165.234 91.1693 165.141 91.4766C165.047 91.7839 165 92.112 165 92.4609ZM181.125 95.3047V91.2734C181.125 90.9714 181.07 90.7109 180.961 90.4922C180.852 90.2734 180.685 90.1042 180.461 89.9844C180.242 89.8646 179.966 89.8047 179.633 89.8047C179.326 89.8047 179.06 89.8568 178.836 89.9609C178.612 90.0651 178.438 90.2057 178.312 90.3828C178.188 90.5599 178.125 90.7604 178.125 90.9844H176.25C176.25 90.651 176.331 90.3281 176.492 90.0156C176.654 89.7031 176.888 89.4245 177.195 89.1797C177.503 88.9349 177.87 88.7422 178.297 88.6016C178.724 88.4609 179.203 88.3906 179.734 88.3906C180.37 88.3906 180.932 88.4974 181.422 88.7109C181.917 88.9245 182.305 89.2474 182.586 89.6797C182.872 90.1068 183.016 90.6432 183.016 91.2891V95.0469C183.016 95.4323 183.042 95.7786 183.094 96.0859C183.151 96.388 183.232 96.651 183.336 96.875V97H181.406C181.318 96.7969 181.247 96.5391 181.195 96.2266C181.148 95.9089 181.125 95.6016 181.125 95.3047ZM181.398 91.8594L181.414 93.0234H180.062C179.714 93.0234 179.406 93.0573 179.141 93.125C178.875 93.1875 178.654 93.2812 178.477 93.4062C178.299 93.5312 178.167 93.6823 178.078 93.8594C177.99 94.0365 177.945 94.237 177.945 94.4609C177.945 94.6849 177.997 94.8906 178.102 95.0781C178.206 95.2604 178.357 95.4036 178.555 95.5078C178.758 95.612 179.003 95.6641 179.289 95.6641C179.674 95.6641 180.01 95.5859 180.297 95.4297C180.589 95.2682 180.818 95.0729 180.984 94.8438C181.151 94.6094 181.24 94.388 181.25 94.1797L181.859 95.0156C181.797 95.2292 181.69 95.4583 181.539 95.7031C181.388 95.9479 181.19 96.1823 180.945 96.4062C180.706 96.625 180.417 96.8047 180.078 96.9453C179.745 97.0859 179.359 97.1562 178.922 97.1562C178.37 97.1562 177.878 97.0469 177.445 96.8281C177.013 96.6042 176.674 96.3047 176.43 95.9297C176.185 95.5495 176.062 95.1198 176.062 94.6406C176.062 94.1927 176.146 93.7969 176.312 93.4531C176.484 93.1042 176.734 92.8125 177.062 92.5781C177.396 92.3438 177.802 92.1667 178.281 92.0469C178.76 91.9219 179.307 91.8594 179.922 91.8594H181.398ZM186.875 90.1562V97H184.992V88.5469H186.789L186.875 90.1562ZM189.461 88.4922L189.445 90.2422C189.331 90.2214 189.206 90.2057 189.07 90.1953C188.94 90.1849 188.81 90.1797 188.68 90.1797C188.357 90.1797 188.073 90.2266 187.828 90.3203C187.583 90.4089 187.378 90.5391 187.211 90.7109C187.049 90.8776 186.924 91.0807 186.836 91.3203C186.747 91.5599 186.695 91.8281 186.68 92.125L186.25 92.1562C186.25 91.625 186.302 91.1328 186.406 90.6797C186.51 90.2266 186.667 89.8281 186.875 89.4844C187.089 89.1406 187.354 88.8724 187.672 88.6797C187.995 88.487 188.367 88.3906 188.789 88.3906C188.904 88.3906 189.026 88.401 189.156 88.4219C189.292 88.4427 189.393 88.4661 189.461 88.4922ZM194.211 97.1562C193.586 97.1562 193.021 97.0547 192.516 96.8516C192.016 96.6432 191.589 96.3542 191.234 95.9844C190.885 95.6146 190.617 95.1797 190.43 94.6797C190.242 94.1797 190.148 93.6406 190.148 93.0625V92.75C190.148 92.0885 190.245 91.4896 190.438 90.9531C190.63 90.4167 190.898 89.9583 191.242 89.5781C191.586 89.1927 191.992 88.8984 192.461 88.6953C192.93 88.4922 193.438 88.3906 193.984 88.3906C194.589 88.3906 195.117 88.4922 195.57 88.6953C196.023 88.8984 196.398 89.1849 196.695 89.5547C196.997 89.9193 197.221 90.3542 197.367 90.8594C197.518 91.3646 197.594 91.9219 197.594 92.5312V93.3359H191.062V91.9844H195.734V91.8359C195.724 91.4974 195.656 91.1797 195.531 90.8828C195.411 90.5859 195.227 90.3464 194.977 90.1641C194.727 89.9818 194.393 89.8906 193.977 89.8906C193.664 89.8906 193.385 89.9583 193.141 90.0938C192.901 90.224 192.701 90.4141 192.539 90.6641C192.378 90.9141 192.253 91.2161 192.164 91.5703C192.081 91.9193 192.039 92.3125 192.039 92.75V93.0625C192.039 93.4323 192.089 93.776 192.188 94.0938C192.292 94.4062 192.443 94.6797 192.641 94.9141C192.839 95.1484 193.078 95.3333 193.359 95.4688C193.641 95.599 193.961 95.6641 194.32 95.6641C194.773 95.6641 195.177 95.5729 195.531 95.3906C195.885 95.2083 196.193 94.9505 196.453 94.6172L197.445 95.5781C197.263 95.8438 197.026 96.099 196.734 96.3438C196.443 96.5833 196.086 96.7786 195.664 96.9297C195.247 97.0807 194.763 97.1562 194.211 97.1562ZM203.828 95.3047V91.2734C203.828 90.9714 203.773 90.7109 203.664 90.4922C203.555 90.2734 203.388 90.1042 203.164 89.9844C202.945 89.8646 202.669 89.8047 202.336 89.8047C202.029 89.8047 201.763 89.8568 201.539 89.9609C201.315 90.0651 201.141 90.2057 201.016 90.3828C200.891 90.5599 200.828 90.7604 200.828 90.9844H198.953C198.953 90.651 199.034 90.3281 199.195 90.0156C199.357 89.7031 199.591 89.4245 199.898 89.1797C200.206 88.9349 200.573 88.7422 201 88.6016C201.427 88.4609 201.906 88.3906 202.438 88.3906C203.073 88.3906 203.635 88.4974 204.125 88.7109C204.62 88.9245 205.008 89.2474 205.289 89.6797C205.576 90.1068 205.719 90.6432 205.719 91.2891V95.0469C205.719 95.4323 205.745 95.7786 205.797 96.0859C205.854 96.388 205.935 96.651 206.039 96.875V97H204.109C204.021 96.7969 203.951 96.5391 203.898 96.2266C203.852 95.9089 203.828 95.6016 203.828 95.3047ZM204.102 91.8594L204.117 93.0234H202.766C202.417 93.0234 202.109 93.0573 201.844 93.125C201.578 93.1875 201.357 93.2812 201.18 93.4062C201.003 93.5312 200.87 93.6823 200.781 93.8594C200.693 94.0365 200.648 94.237 200.648 94.4609C200.648 94.6849 200.701 94.8906 200.805 95.0781C200.909 95.2604 201.06 95.4036 201.258 95.5078C201.461 95.612 201.706 95.6641 201.992 95.6641C202.378 95.6641 202.714 95.5859 203 95.4297C203.292 95.2682 203.521 95.0729 203.688 94.8438C203.854 94.6094 203.943 94.388 203.953 94.1797L204.562 95.0156C204.5 95.2292 204.393 95.4583 204.242 95.7031C204.091 95.9479 203.893 96.1823 203.648 96.4062C203.409 96.625 203.12 96.8047 202.781 96.9453C202.448 97.0859 202.062 97.1562 201.625 97.1562C201.073 97.1562 200.581 97.0469 200.148 96.8281C199.716 96.6042 199.378 96.3047 199.133 95.9297C198.888 95.5495 198.766 95.1198 198.766 94.6406C198.766 94.1927 198.849 93.7969 199.016 93.4531C199.188 93.1042 199.438 92.8125 199.766 92.5781C200.099 92.3438 200.505 92.1667 200.984 92.0469C201.464 91.9219 202.01 91.8594 202.625 91.8594H204.102Z" fill="#1A1A1A"/>
<rect x="265" y="80" width="53" height="24" rx="12" fill="#138639"/>
<path d="M277.846 87.9893L275.085 96H273.416L276.894 86.7578H277.96L277.846 87.9893ZM280.157 96L277.389 87.9893L277.269 86.7578H278.341L281.833 96H280.157ZM280.023 92.5723V93.8354H274.996V92.5723H280.023ZM285.521 94.9082C285.77 94.9082 285.994 94.8595 286.193 94.7622C286.396 94.6606 286.559 94.521 286.682 94.3433C286.809 94.1655 286.879 93.9603 286.892 93.7275H288.333C288.324 94.1719 288.193 94.576 287.939 94.9399C287.685 95.3039 287.349 95.5938 286.93 95.8096C286.511 96.0212 286.047 96.127 285.54 96.127C285.015 96.127 284.558 96.0381 284.168 95.8604C283.779 95.6784 283.455 95.4287 283.197 95.1113C282.939 94.7939 282.744 94.4279 282.613 94.0132C282.486 93.5985 282.423 93.1541 282.423 92.6802V92.458C282.423 91.984 282.486 91.5397 282.613 91.125C282.744 90.7061 282.939 90.3379 283.197 90.0205C283.455 89.7031 283.779 89.4556 284.168 89.2778C284.558 89.0959 285.013 89.0049 285.533 89.0049C286.083 89.0049 286.566 89.1149 286.98 89.335C287.395 89.5508 287.721 89.8534 287.958 90.2427C288.199 90.6278 288.324 91.0763 288.333 91.5884H286.892C286.879 91.3345 286.815 91.106 286.701 90.9028C286.591 90.6955 286.435 90.5304 286.231 90.4077C286.033 90.285 285.793 90.2236 285.514 90.2236C285.205 90.2236 284.949 90.2871 284.746 90.4141C284.543 90.5368 284.384 90.7061 284.27 90.9219C284.156 91.1335 284.073 91.3726 284.022 91.6392C283.976 91.9015 283.953 92.1745 283.953 92.458V92.6802C283.953 92.9637 283.976 93.2388 284.022 93.5054C284.069 93.772 284.149 94.0111 284.264 94.2227C284.382 94.43 284.543 94.5972 284.746 94.7241C284.949 94.8468 285.207 94.9082 285.521 94.9082ZM292.655 89.1318V90.249H288.783V89.1318H292.655ZM289.9 87.4497H291.43V94.1021C291.43 94.3136 291.46 94.4766 291.519 94.5908C291.583 94.7008 291.669 94.7749 291.779 94.813C291.889 94.8511 292.018 94.8701 292.167 94.8701C292.272 94.8701 292.374 94.8638 292.471 94.8511C292.569 94.8384 292.647 94.8257 292.706 94.813L292.712 95.981C292.585 96.019 292.437 96.0529 292.268 96.0825C292.103 96.1121 291.913 96.127 291.697 96.127C291.346 96.127 291.035 96.0656 290.764 95.9429C290.493 95.8159 290.281 95.6107 290.129 95.3271C289.977 95.0436 289.9 94.667 289.9 94.1973V87.4497ZM295.474 89.1318V96H293.938V89.1318H295.474ZM293.836 87.3291C293.836 87.0964 293.912 86.9038 294.064 86.7515C294.221 86.5949 294.437 86.5166 294.712 86.5166C294.983 86.5166 295.196 86.5949 295.353 86.7515C295.51 86.9038 295.588 87.0964 295.588 87.3291C295.588 87.5576 295.51 87.748 295.353 87.9004C295.196 88.0527 294.983 88.1289 294.712 88.1289C294.437 88.1289 294.221 88.0527 294.064 87.9004C293.912 87.748 293.836 87.5576 293.836 87.3291ZM299.384 94.7876L301.066 89.1318H302.653L300.266 96H299.276L299.384 94.7876ZM298.095 89.1318L299.809 94.813L299.892 96H298.901L296.502 89.1318H298.095ZM306.538 96.127C306.03 96.127 305.571 96.0444 305.16 95.8794C304.754 95.7101 304.407 95.4753 304.119 95.1748C303.836 94.8743 303.618 94.521 303.465 94.1147C303.313 93.7085 303.237 93.2705 303.237 92.8008V92.5469C303.237 92.0094 303.315 91.5228 303.472 91.0869C303.628 90.651 303.846 90.2786 304.125 89.9697C304.405 89.6566 304.735 89.4175 305.116 89.2524C305.497 89.0874 305.909 89.0049 306.354 89.0049C306.844 89.0049 307.274 89.0874 307.642 89.2524C308.01 89.4175 308.315 89.6502 308.556 89.9507C308.802 90.2469 308.984 90.6003 309.102 91.0107C309.225 91.4212 309.286 91.874 309.286 92.3691V93.0229H303.979V91.9248H307.775V91.8042C307.767 91.5291 307.712 91.271 307.61 91.0298C307.513 90.7886 307.363 90.5939 307.16 90.4458C306.957 90.2977 306.686 90.2236 306.347 90.2236C306.093 90.2236 305.867 90.2786 305.668 90.3887C305.473 90.4945 305.31 90.6489 305.179 90.8521C305.048 91.0552 304.946 91.3006 304.875 91.5884C304.807 91.8719 304.773 92.1914 304.773 92.5469V92.8008C304.773 93.1012 304.813 93.3805 304.894 93.6387C304.978 93.8926 305.101 94.1147 305.262 94.3052C305.423 94.4956 305.617 94.6458 305.846 94.7559C306.074 94.8617 306.334 94.9146 306.626 94.9146C306.995 94.9146 307.323 94.8405 307.61 94.6924C307.898 94.5443 308.148 94.3348 308.359 94.064L309.166 94.8447C309.017 95.0605 308.825 95.2679 308.588 95.4668C308.351 95.6615 308.061 95.8201 307.718 95.9429C307.38 96.0656 306.986 96.127 306.538 96.127Z" fill="white"/>
<rect x="437.5" y="76.5" width="31" height="31" rx="3.5" stroke="#1A1A1A"/>
<path d="M450.375 92C450.393 91.2526 450.648 90.6328 451.141 90.1406C451.633 89.6484 452.253 89.3932 453 89.375C453.747 89.3932 454.367 89.6484 454.859 90.1406C455.352 90.6328 455.607 91.2526 455.625 92C455.607 92.7474 455.352 93.3672 454.859 93.8594C454.367 94.3516 453.747 94.6068 453 94.625C452.253 94.6068 451.633 94.3516 451.141 93.8594C450.648 93.3672 450.393 92.7474 450.375 92ZM453 90.6875C452.635 90.7057 452.326 90.8333 452.07 91.0703C451.833 91.3255 451.706 91.6354 451.688 92C451.706 92.3646 451.833 92.6745 452.07 92.9297C452.326 93.1667 452.635 93.2943 453 93.3125C453.365 93.2943 453.674 93.1667 453.93 92.9297C454.167 92.6745 454.294 92.3646 454.312 92C454.294 91.6354 454.167 91.3255 453.93 91.0703C453.674 90.8333 453.365 90.7057 453 90.6875ZM454.012 85C454.322 85 454.595 85.0911 454.832 85.2734C455.069 85.4557 455.224 85.7018 455.297 86.0117L455.516 86.8867C455.734 86.9961 455.953 87.1237 456.172 87.2695L457.047 87.0234C457.339 86.9323 457.621 86.9414 457.895 87.0508C458.168 87.1602 458.387 87.3516 458.551 87.625L459.562 89.375C459.708 89.6484 459.763 89.931 459.727 90.2227C459.69 90.5143 459.562 90.7695 459.344 90.9883L458.688 91.5898C458.688 91.7357 458.688 91.8724 458.688 92C458.688 92.1276 458.688 92.2552 458.688 92.3828L459.344 93.0117C459.562 93.2305 459.69 93.4857 459.727 93.7773C459.763 94.069 459.708 94.3516 459.562 94.625L458.551 96.375C458.387 96.6484 458.168 96.8398 457.895 96.9492C457.621 97.0586 457.339 97.0677 457.047 96.9766L456.172 96.7305C455.953 96.8581 455.734 96.9857 455.516 97.1133L455.297 97.9883C455.224 98.2982 455.069 98.5443 454.832 98.7266C454.595 98.9089 454.322 99 454.012 99H451.988C451.678 99 451.405 98.9089 451.168 98.7266C450.931 98.5443 450.776 98.2982 450.703 97.9883L450.484 97.1133C450.266 97.0039 450.047 96.8763 449.828 96.7305L448.926 96.9766C448.634 97.0677 448.352 97.0586 448.078 96.9492C447.823 96.8398 447.613 96.6484 447.449 96.375L446.438 94.625C446.273 94.3516 446.219 94.069 446.273 93.7773C446.31 93.4857 446.438 93.2305 446.656 93.0117L447.312 92.3828C447.312 92.2552 447.312 92.1185 447.312 91.9727C447.312 91.8633 447.312 91.7357 447.312 91.5898L446.656 90.9883C446.438 90.7695 446.31 90.5143 446.273 90.2227C446.219 89.931 446.273 89.6484 446.438 89.375L447.449 87.625C447.613 87.3516 447.823 87.1602 448.078 87.0508C448.352 86.9414 448.634 86.9323 448.926 87.0234L449.828 87.2695C450.047 87.1237 450.266 86.9961 450.484 86.8867L450.703 86.0117C450.776 85.7018 450.931 85.4557 451.168 85.2734C451.405 85.0911 451.678 85 451.988 85H454.012ZM451.633 87.8438L451.305 87.9531C450.958 88.099 450.639 88.2904 450.348 88.5273L450.074 88.7188L448.57 88.2812L447.559 90.0312L448.707 91.125L448.652 91.4531C448.634 91.6354 448.625 91.8177 448.625 92C448.625 92.1823 448.634 92.3646 448.652 92.5469L448.707 92.875L447.559 93.9688L448.57 95.7188L450.074 95.2812L450.348 95.4727C450.639 95.7096 450.958 95.901 451.305 96.0469L451.633 96.1562L451.988 97.6875H454.012L454.395 96.1562L454.695 96.0469C455.042 95.901 455.361 95.7096 455.652 95.4727L455.926 95.2812L457.43 95.7188L458.441 93.9688L457.293 92.875L457.348 92.5469C457.366 92.3646 457.375 92.1823 457.375 92C457.375 91.8177 457.366 91.6354 457.348 91.4531L457.293 91.125L458.441 90.0312L457.43 88.2812L455.926 88.7188L455.652 88.5273C455.361 88.2904 455.042 88.099 454.695 87.9531L454.395 87.8438L454.012 86.3125H451.988L451.633 87.8438Z" fill="#1A1A1A"/>
<mask id="path-11-inside-2_16582_3176" fill="white">
<path d="M61 124H501V188H61V124Z"/>
</mask>
<path d="M61 124H501V188H61V124Z" fill="white"/>
<path d="M501 188V187H61V188V189H501V188Z" fill="#E6E6E6" mask="url(#path-11-inside-2_16582_3176)"/>
<path d="M98.0547 158.922L101.047 149.625H103.211L99.1328 161H97.6719L98.0547 158.922ZM95.2891 149.625L98.2578 158.922L98.6641 161H97.1953L93.1328 149.625H95.2891ZM108.703 159.305V155.273C108.703 154.971 108.648 154.711 108.539 154.492C108.43 154.273 108.263 154.104 108.039 153.984C107.82 153.865 107.544 153.805 107.211 153.805C106.904 153.805 106.638 153.857 106.414 153.961C106.19 154.065 106.016 154.206 105.891 154.383C105.766 154.56 105.703 154.76 105.703 154.984H103.828C103.828 154.651 103.909 154.328 104.07 154.016C104.232 153.703 104.466 153.424 104.773 153.18C105.081 152.935 105.448 152.742 105.875 152.602C106.302 152.461 106.781 152.391 107.312 152.391C107.948 152.391 108.51 152.497 109 152.711C109.495 152.924 109.883 153.247 110.164 153.68C110.451 154.107 110.594 154.643 110.594 155.289V159.047C110.594 159.432 110.62 159.779 110.672 160.086C110.729 160.388 110.81 160.651 110.914 160.875V161H108.984C108.896 160.797 108.826 160.539 108.773 160.227C108.727 159.909 108.703 159.602 108.703 159.305ZM108.977 155.859L108.992 157.023H107.641C107.292 157.023 106.984 157.057 106.719 157.125C106.453 157.188 106.232 157.281 106.055 157.406C105.878 157.531 105.745 157.682 105.656 157.859C105.568 158.036 105.523 158.237 105.523 158.461C105.523 158.685 105.576 158.891 105.68 159.078C105.784 159.26 105.935 159.404 106.133 159.508C106.336 159.612 106.581 159.664 106.867 159.664C107.253 159.664 107.589 159.586 107.875 159.43C108.167 159.268 108.396 159.073 108.562 158.844C108.729 158.609 108.818 158.388 108.828 158.18L109.438 159.016C109.375 159.229 109.268 159.458 109.117 159.703C108.966 159.948 108.768 160.182 108.523 160.406C108.284 160.625 107.995 160.805 107.656 160.945C107.323 161.086 106.938 161.156 106.5 161.156C105.948 161.156 105.456 161.047 105.023 160.828C104.591 160.604 104.253 160.305 104.008 159.93C103.763 159.549 103.641 159.12 103.641 158.641C103.641 158.193 103.724 157.797 103.891 157.453C104.062 157.104 104.312 156.812 104.641 156.578C104.974 156.344 105.38 156.167 105.859 156.047C106.339 155.922 106.885 155.859 107.5 155.859H108.977ZM114.453 154.156V161H112.57V152.547H114.367L114.453 154.156ZM117.039 152.492L117.023 154.242C116.909 154.221 116.784 154.206 116.648 154.195C116.518 154.185 116.388 154.18 116.258 154.18C115.935 154.18 115.651 154.227 115.406 154.32C115.161 154.409 114.956 154.539 114.789 154.711C114.628 154.878 114.503 155.081 114.414 155.32C114.326 155.56 114.273 155.828 114.258 156.125L113.828 156.156C113.828 155.625 113.88 155.133 113.984 154.68C114.089 154.227 114.245 153.828 114.453 153.484C114.667 153.141 114.932 152.872 115.25 152.68C115.573 152.487 115.945 152.391 116.367 152.391C116.482 152.391 116.604 152.401 116.734 152.422C116.87 152.443 116.971 152.466 117.039 152.492ZM120.234 152.547V161H118.344V152.547H120.234ZM118.219 150.328C118.219 150.042 118.312 149.805 118.5 149.617C118.693 149.424 118.958 149.328 119.297 149.328C119.63 149.328 119.893 149.424 120.086 149.617C120.279 149.805 120.375 150.042 120.375 150.328C120.375 150.609 120.279 150.844 120.086 151.031C119.893 151.219 119.63 151.312 119.297 151.312C118.958 151.312 118.693 151.219 118.5 151.031C118.312 150.844 118.219 150.609 118.219 150.328ZM127.062 159.305V155.273C127.062 154.971 127.008 154.711 126.898 154.492C126.789 154.273 126.622 154.104 126.398 153.984C126.18 153.865 125.904 153.805 125.57 153.805C125.263 153.805 124.997 153.857 124.773 153.961C124.549 154.065 124.375 154.206 124.25 154.383C124.125 154.56 124.062 154.76 124.062 154.984H122.188C122.188 154.651 122.268 154.328 122.43 154.016C122.591 153.703 122.826 153.424 123.133 153.18C123.44 152.935 123.807 152.742 124.234 152.602C124.661 152.461 125.141 152.391 125.672 152.391C126.307 152.391 126.87 152.497 127.359 152.711C127.854 152.924 128.242 153.247 128.523 153.68C128.81 154.107 128.953 154.643 128.953 155.289V159.047C128.953 159.432 128.979 159.779 129.031 160.086C129.089 160.388 129.169 160.651 129.273 160.875V161H127.344C127.255 160.797 127.185 160.539 127.133 160.227C127.086 159.909 127.062 159.602 127.062 159.305ZM127.336 155.859L127.352 157.023H126C125.651 157.023 125.344 157.057 125.078 157.125C124.812 157.188 124.591 157.281 124.414 157.406C124.237 157.531 124.104 157.682 124.016 157.859C123.927 158.036 123.883 158.237 123.883 158.461C123.883 158.685 123.935 158.891 124.039 159.078C124.143 159.26 124.294 159.404 124.492 159.508C124.695 159.612 124.94 159.664 125.227 159.664C125.612 159.664 125.948 159.586 126.234 159.43C126.526 159.268 126.755 159.073 126.922 158.844C127.089 158.609 127.177 158.388 127.188 158.18L127.797 159.016C127.734 159.229 127.628 159.458 127.477 159.703C127.326 159.948 127.128 160.182 126.883 160.406C126.643 160.625 126.354 160.805 126.016 160.945C125.682 161.086 125.297 161.156 124.859 161.156C124.307 161.156 123.815 161.047 123.383 160.828C122.951 160.604 122.612 160.305 122.367 159.93C122.122 159.549 122 159.12 122 158.641C122 158.193 122.083 157.797 122.25 157.453C122.422 157.104 122.672 156.812 123 156.578C123.333 156.344 123.74 156.167 124.219 156.047C124.698 155.922 125.245 155.859 125.859 155.859H127.336ZM130.93 149H132.812V159.195L132.633 161H130.93V149ZM138.328 156.695V156.859C138.328 157.484 138.258 158.06 138.117 158.586C137.982 159.107 137.773 159.56 137.492 159.945C137.216 160.331 136.872 160.63 136.461 160.844C136.055 161.052 135.583 161.156 135.047 161.156C134.521 161.156 134.062 161.057 133.672 160.859C133.281 160.661 132.953 160.38 132.688 160.016C132.427 159.651 132.216 159.216 132.055 158.711C131.893 158.206 131.779 157.648 131.711 157.039V156.516C131.779 155.901 131.893 155.344 132.055 154.844C132.216 154.339 132.427 153.904 132.688 153.539C132.953 153.169 133.279 152.885 133.664 152.688C134.055 152.49 134.51 152.391 135.031 152.391C135.573 152.391 136.049 152.495 136.461 152.703C136.878 152.911 137.224 153.208 137.5 153.594C137.776 153.974 137.982 154.427 138.117 154.953C138.258 155.479 138.328 156.06 138.328 156.695ZM136.445 156.859V156.695C136.445 156.315 136.414 155.958 136.352 155.625C136.289 155.286 136.185 154.99 136.039 154.734C135.898 154.479 135.706 154.279 135.461 154.133C135.221 153.982 134.922 153.906 134.562 153.906C134.229 153.906 133.943 153.964 133.703 154.078C133.464 154.193 133.263 154.349 133.102 154.547C132.94 154.745 132.812 154.974 132.719 155.234C132.63 155.495 132.57 155.776 132.539 156.078V157.492C132.586 157.883 132.685 158.242 132.836 158.57C132.992 158.893 133.211 159.154 133.492 159.352C133.773 159.544 134.135 159.641 134.578 159.641C134.927 159.641 135.221 159.57 135.461 159.43C135.701 159.289 135.891 159.094 136.031 158.844C136.177 158.589 136.281 158.292 136.344 157.953C136.411 157.615 136.445 157.25 136.445 156.859ZM141.938 149V161H140.047V149H141.938ZM147.727 161.156C147.102 161.156 146.536 161.055 146.031 160.852C145.531 160.643 145.104 160.354 144.75 159.984C144.401 159.615 144.133 159.18 143.945 158.68C143.758 158.18 143.664 157.641 143.664 157.062V156.75C143.664 156.089 143.76 155.49 143.953 154.953C144.146 154.417 144.414 153.958 144.758 153.578C145.102 153.193 145.508 152.898 145.977 152.695C146.445 152.492 146.953 152.391 147.5 152.391C148.104 152.391 148.633 152.492 149.086 152.695C149.539 152.898 149.914 153.185 150.211 153.555C150.513 153.919 150.737 154.354 150.883 154.859C151.034 155.365 151.109 155.922 151.109 156.531V157.336H144.578V155.984H149.25V155.836C149.24 155.497 149.172 155.18 149.047 154.883C148.927 154.586 148.742 154.346 148.492 154.164C148.242 153.982 147.909 153.891 147.492 153.891C147.18 153.891 146.901 153.958 146.656 154.094C146.417 154.224 146.216 154.414 146.055 154.664C145.893 154.914 145.768 155.216 145.68 155.57C145.596 155.919 145.555 156.312 145.555 156.75V157.062C145.555 157.432 145.604 157.776 145.703 158.094C145.807 158.406 145.958 158.68 146.156 158.914C146.354 159.148 146.594 159.333 146.875 159.469C147.156 159.599 147.477 159.664 147.836 159.664C148.289 159.664 148.693 159.573 149.047 159.391C149.401 159.208 149.708 158.951 149.969 158.617L150.961 159.578C150.779 159.844 150.542 160.099 150.25 160.344C149.958 160.583 149.602 160.779 149.18 160.93C148.763 161.081 148.279 161.156 147.727 161.156Z" fill="#1A1A1A"/>
<path d="M270.339 150.277V161H268.984V151.969L266.252 152.965V151.742L270.127 150.277H270.339ZM281.531 157.411V158.524H273.826V157.726L278.601 150.336H279.707L278.521 152.475L275.364 157.411H281.531ZM280.044 150.336V161H278.689V150.336H280.044Z" fill="#4C4C4C"/>
<rect x="437.5" y="140.5" width="31" height="31" rx="3.5" stroke="#1A1A1A"/>
<path d="M450.375 156C450.393 155.253 450.648 154.633 451.141 154.141C451.633 153.648 452.253 153.393 453 153.375C453.747 153.393 454.367 153.648 454.859 154.141C455.352 154.633 455.607 155.253 455.625 156C455.607 156.747 455.352 157.367 454.859 157.859C454.367 158.352 453.747 158.607 453 158.625C452.253 158.607 451.633 158.352 451.141 157.859C450.648 157.367 450.393 156.747 450.375 156ZM453 154.688C452.635 154.706 452.326 154.833 452.07 155.07C451.833 155.326 451.706 155.635 451.688 156C451.706 156.365 451.833 156.674 452.07 156.93C452.326 157.167 452.635 157.294 453 157.312C453.365 157.294 453.674 157.167 453.93 156.93C454.167 156.674 454.294 156.365 454.312 156C454.294 155.635 454.167 155.326 453.93 155.07C453.674 154.833 453.365 154.706 453 154.688ZM454.012 149C454.322 149 454.595 149.091 454.832 149.273C455.069 149.456 455.224 149.702 455.297 150.012L455.516 150.887C455.734 150.996 455.953 151.124 456.172 151.27L457.047 151.023C457.339 150.932 457.621 150.941 457.895 151.051C458.168 151.16 458.387 151.352 458.551 151.625L459.562 153.375C459.708 153.648 459.763 153.931 459.727 154.223C459.69 154.514 459.562 154.77 459.344 154.988L458.688 155.59C458.688 155.736 458.688 155.872 458.688 156C458.688 156.128 458.688 156.255 458.688 156.383L459.344 157.012C459.562 157.23 459.69 157.486 459.727 157.777C459.763 158.069 459.708 158.352 459.562 158.625L458.551 160.375C458.387 160.648 458.168 160.84 457.895 160.949C457.621 161.059 457.339 161.068 457.047 160.977L456.172 160.73C455.953 160.858 455.734 160.986 455.516 161.113L455.297 161.988C455.224 162.298 455.069 162.544 454.832 162.727C454.595 162.909 454.322 163 454.012 163H451.988C451.678 163 451.405 162.909 451.168 162.727C450.931 162.544 450.776 162.298 450.703 161.988L450.484 161.113C450.266 161.004 450.047 160.876 449.828 160.73L448.926 160.977C448.634 161.068 448.352 161.059 448.078 160.949C447.823 160.84 447.613 160.648 447.449 160.375L446.438 158.625C446.273 158.352 446.219 158.069 446.273 157.777C446.31 157.486 446.438 157.23 446.656 157.012L447.312 156.383C447.312 156.255 447.312 156.118 447.312 155.973C447.312 155.863 447.312 155.736 447.312 155.59L446.656 154.988C446.438 154.77 446.31 154.514 446.273 154.223C446.219 153.931 446.273 153.648 446.438 153.375L447.449 151.625C447.613 151.352 447.823 151.16 448.078 151.051C448.352 150.941 448.634 150.932 448.926 151.023L449.828 151.27C450.047 151.124 450.266 150.996 450.484 150.887L450.703 150.012C450.776 149.702 450.931 149.456 451.168 149.273C451.405 149.091 451.678 149 451.988 149H454.012ZM451.633 151.844L451.305 151.953C450.958 152.099 450.639 152.29 450.348 152.527L450.074 152.719L448.57 152.281L447.559 154.031L448.707 155.125L448.652 155.453C448.634 155.635 448.625 155.818 448.625 156C448.625 156.182 448.634 156.365 448.652 156.547L448.707 156.875L447.559 157.969L448.57 159.719L450.074 159.281L450.348 159.473C450.639 159.71 450.958 159.901 451.305 160.047L451.633 160.156L451.988 161.688H454.012L454.395 160.156L454.695 160.047C455.042 159.901 455.361 159.71 455.652 159.473L455.926 159.281L457.43 159.719L458.441 157.969L457.293 156.875L457.348 156.547C457.366 156.365 457.375 156.182 457.375 156C457.375 155.818 457.366 155.635 457.348 155.453L457.293 155.125L458.441 154.031L457.43 152.281L455.926 152.719L455.652 152.527C455.361 152.29 455.042 152.099 454.695 151.953L454.395 151.844L454.012 150.312H451.988L451.633 151.844Z" fill="#1A1A1A"/>
</g>
<path d="M77 60.5H485C493.56 60.5 500.5 67.4396 500.5 76V172C500.5 180.56 493.56 187.5 485 187.5H77C68.4396 187.5 61.5 180.56 61.5 172V76C61.5 67.4396 68.4396 60.5 77 60.5Z" stroke="#E6E6E6"/>
<path d="M254.699 36.4512V45H253.012V38.3965L250.984 39.041V37.7109L254.518 36.4512H254.699ZM261.83 36.3809H262.076V37.7285H261.977C261.531 37.7285 261.135 37.7949 260.787 37.9277C260.439 38.0605 260.145 38.25 259.902 38.4961C259.664 38.7383 259.48 39.0312 259.352 39.375C259.227 39.7188 259.164 40.1035 259.164 40.5293V41.9473C259.164 42.252 259.193 42.5215 259.252 42.7559C259.314 42.9863 259.402 43.1797 259.516 43.3359C259.633 43.4883 259.77 43.6035 259.926 43.6816C260.082 43.7559 260.258 43.793 260.453 43.793C260.637 43.793 260.803 43.7539 260.951 43.6758C261.104 43.5977 261.232 43.4883 261.338 43.3477C261.447 43.2031 261.529 43.0352 261.584 42.8438C261.643 42.6484 261.672 42.4355 261.672 42.2051C261.672 41.9746 261.643 41.7617 261.584 41.5664C261.529 41.3711 261.447 41.2031 261.338 41.0625C261.229 40.918 261.096 40.8066 260.939 40.7285C260.783 40.6504 260.607 40.6113 260.412 40.6113C260.146 40.6113 259.912 40.6738 259.709 40.7988C259.51 40.9199 259.354 41.0762 259.24 41.2676C259.127 41.459 259.066 41.6602 259.059 41.8711L258.549 41.543C258.561 41.2422 258.623 40.957 258.736 40.6875C258.854 40.418 259.014 40.1797 259.217 39.9727C259.424 39.7617 259.672 39.5977 259.961 39.4805C260.25 39.3594 260.576 39.2988 260.939 39.2988C261.338 39.2988 261.688 39.375 261.988 39.5273C262.293 39.6797 262.547 39.8887 262.75 40.1543C262.953 40.4199 263.105 40.7266 263.207 41.0742C263.309 41.4219 263.359 41.793 263.359 42.1875C263.359 42.6016 263.291 42.9863 263.154 43.3418C263.021 43.6973 262.828 44.0078 262.574 44.2734C262.324 44.5391 262.023 44.7461 261.672 44.8945C261.32 45.043 260.926 45.1172 260.488 45.1172C260.035 45.1172 259.623 45.0352 259.252 44.8711C258.885 44.7031 258.568 44.4688 258.303 44.168C258.037 43.8672 257.832 43.5098 257.688 43.0957C257.547 42.6816 257.477 42.2285 257.477 41.7363V41.0801C257.477 40.3926 257.576 39.7637 257.775 39.1934C257.979 38.6191 258.27 38.123 258.648 37.7051C259.027 37.2832 259.484 36.957 260.02 36.7266C260.555 36.4961 261.158 36.3809 261.83 36.3809Z" fill="#E52400"/>
<rect x="249" y="52" width="1" height="144" fill="#E52400"/>
<g opacity="0.2">
<rect width="14" height="144" transform="translate(250 52)" fill="#E52400"/>
</g>
<rect x="264" y="52" width="1" height="144" fill="#E52400"/>
<path d="M426.699 36.4512V45H425.012V38.3965L422.984 39.041V37.7109L426.518 36.4512H426.699ZM433.83 36.3809H434.076V37.7285H433.977C433.531 37.7285 433.135 37.7949 432.787 37.9277C432.439 38.0605 432.145 38.25 431.902 38.4961C431.664 38.7383 431.48 39.0312 431.352 39.375C431.227 39.7188 431.164 40.1035 431.164 40.5293V41.9473C431.164 42.252 431.193 42.5215 431.252 42.7559C431.314 42.9863 431.402 43.1797 431.516 43.3359C431.633 43.4883 431.77 43.6035 431.926 43.6816C432.082 43.7559 432.258 43.793 432.453 43.793C432.637 43.793 432.803 43.7539 432.951 43.6758C433.104 43.5977 433.232 43.4883 433.338 43.3477C433.447 43.2031 433.529 43.0352 433.584 42.8438C433.643 42.6484 433.672 42.4355 433.672 42.2051C433.672 41.9746 433.643 41.7617 433.584 41.5664C433.529 41.3711 433.447 41.2031 433.338 41.0625C433.229 40.918 433.096 40.8066 432.939 40.7285C432.783 40.6504 432.607 40.6113 432.412 40.6113C432.146 40.6113 431.912 40.6738 431.709 40.7988C431.51 40.9199 431.354 41.0762 431.24 41.2676C431.127 41.459 431.066 41.6602 431.059 41.8711L430.549 41.543C430.561 41.2422 430.623 40.957 430.736 40.6875C430.854 40.418 431.014 40.1797 431.217 39.9727C431.424 39.7617 431.672 39.5977 431.961 39.4805C432.25 39.3594 432.576 39.2988 432.939 39.2988C433.338 39.2988 433.688 39.375 433.988 39.5273C434.293 39.6797 434.547 39.8887 434.75 40.1543C434.953 40.4199 435.105 40.7266 435.207 41.0742C435.309 41.4219 435.359 41.793 435.359 42.1875C435.359 42.6016 435.291 42.9863 435.154 43.3418C435.021 43.6973 434.828 44.0078 434.574 44.2734C434.324 44.5391 434.023 44.7461 433.672 44.8945C433.32 45.043 432.926 45.1172 432.488 45.1172C432.035 45.1172 431.623 45.0352 431.252 44.8711C430.885 44.7031 430.568 44.4688 430.303 44.168C430.037 43.8672 429.832 43.5098 429.688 43.0957C429.547 42.6816 429.477 42.2285 429.477 41.7363V41.0801C429.477 40.3926 429.576 39.7637 429.775 39.1934C429.979 38.6191 430.27 38.123 430.648 37.7051C431.027 37.2832 431.484 36.957 432.02 36.7266C432.555 36.4961 433.158 36.3809 433.83 36.3809Z" fill="#E52400"/>
<rect x="421" y="52" width="1" height="144" fill="#E52400"/>
<g opacity="0.2">
<rect width="14" height="144" transform="translate(422 52)" fill="#E52400"/>
</g>
<rect x="436" y="52" width="1" height="144" fill="#E52400"/>
<defs>
<clipPath id="clip0_16582_3176">
<path d="M61 76C61 67.1634 68.1634 60 77 60H485C493.837 60 501 67.1634 501 76V172C501 180.837 493.837 188 485 188H77C68.1635 188 61 180.837 61 172V76Z" fill="white"/>
</clipPath>
</defs>
</svg>
