<svg width="560" height="152" viewBox="0 0 560 152" fill="none" xmlns="http://www.w3.org/2000/svg">
<rect x="0.5" y="0.5" width="559" height="151" rx="15.5" fill="white"/>
<rect x="0.5" y="0.5" width="559" height="151" rx="15.5" stroke="#E6E6E6"/>
<path d="M169.461 54C168.732 54 167.638 53.4531 166.18 52.3594C164.721 51.2396 163.367 49.5729 162.117 47.3594C160.867 45.1198 160.203 42.3203 160.125 38.9609C160.151 38.1797 160.542 37.6198 161.297 37.2812L168.797 34.1562C169.031 34.0521 169.266 33.987 169.5 33.9609C169.76 33.9609 170.008 34.013 170.242 34.1172L177.742 37.2422C178.471 37.5807 178.849 38.1536 178.875 38.9609C178.797 42.3464 178.133 45.1589 176.883 47.3984C175.607 49.612 174.24 51.2656 172.781 52.3594C171.297 53.4531 170.19 54 169.461 54ZM169.5 35.8359L162 39C162.078 42.3333 162.846 45.1458 164.305 47.4375C165.789 49.7292 167.521 51.2917 169.5 52.125C170.75 51.6042 171.935 50.7448 173.055 49.5469C174.201 48.349 175.138 46.8646 175.867 45.0938C176.596 43.2969 176.974 41.2656 177 39L169.5 35.8359Z" fill="#4C4C4C"/>
<path d="M194.686 39.2808L191.155 49H189.712L193.777 38.3359H194.708L194.686 39.2808ZM197.645 49L194.107 39.2808L194.085 38.3359H195.015L199.095 49H197.645ZM197.461 45.0522V46.2095H191.47V45.0522H197.461ZM205.079 47.1689V41.0752H206.441V49H205.145L205.079 47.1689ZM205.335 45.499L205.899 45.4844C205.899 46.0117 205.843 46.5 205.73 46.9492C205.623 47.3936 205.447 47.7793 205.203 48.1064C204.959 48.4336 204.639 48.6899 204.244 48.8755C203.848 49.0562 203.367 49.1465 202.801 49.1465C202.415 49.1465 202.061 49.0903 201.739 48.978C201.421 48.8657 201.148 48.6924 200.918 48.458C200.689 48.2236 200.511 47.9185 200.384 47.5425C200.262 47.1665 200.201 46.7148 200.201 46.1875V41.0752H201.556V46.2021C201.556 46.5586 201.595 46.854 201.673 47.0884C201.756 47.3179 201.866 47.501 202.002 47.6377C202.144 47.7695 202.3 47.8623 202.471 47.916C202.647 47.9697 202.828 47.9966 203.013 47.9966C203.589 47.9966 204.046 47.8867 204.383 47.667C204.72 47.4424 204.961 47.1421 205.108 46.7661C205.259 46.3853 205.335 45.9629 205.335 45.499ZM211.824 41.0752V42.1152H207.54V41.0752H211.824ZM208.99 39.1489H210.345V47.0371C210.345 47.3057 210.386 47.5083 210.469 47.645C210.552 47.7817 210.66 47.8721 210.792 47.916C210.923 47.96 211.065 47.9819 211.216 47.9819C211.329 47.9819 211.446 47.9722 211.568 47.9526C211.695 47.9282 211.79 47.9087 211.854 47.894L211.861 49C211.753 49.0342 211.612 49.0659 211.436 49.0952C211.265 49.1294 211.058 49.1465 210.813 49.1465C210.481 49.1465 210.176 49.0806 209.898 48.9487C209.62 48.8169 209.397 48.5972 209.231 48.2896C209.07 47.9771 208.99 47.5571 208.99 47.0298V39.1489ZM212.908 45.1255V44.957C212.908 44.3857 212.991 43.856 213.157 43.3677C213.323 42.8745 213.562 42.4473 213.875 42.0859C214.188 41.7197 214.566 41.4365 215.01 41.2363C215.455 41.0312 215.953 40.9287 216.504 40.9287C217.061 40.9287 217.562 41.0312 218.006 41.2363C218.455 41.4365 218.836 41.7197 219.148 42.0859C219.466 42.4473 219.708 42.8745 219.874 43.3677C220.04 43.856 220.123 44.3857 220.123 44.957V45.1255C220.123 45.6968 220.04 46.2266 219.874 46.7148C219.708 47.2031 219.466 47.6304 219.148 47.9966C218.836 48.3579 218.458 48.6411 218.013 48.8462C217.574 49.0464 217.076 49.1465 216.519 49.1465C215.962 49.1465 215.462 49.0464 215.018 48.8462C214.573 48.6411 214.192 48.3579 213.875 47.9966C213.562 47.6304 213.323 47.2031 213.157 46.7148C212.991 46.2266 212.908 45.6968 212.908 45.1255ZM214.263 44.957V45.1255C214.263 45.521 214.31 45.8945 214.402 46.2461C214.495 46.5928 214.634 46.9004 214.82 47.1689C215.01 47.4375 215.247 47.6499 215.53 47.8062C215.813 47.9575 216.143 48.0332 216.519 48.0332C216.89 48.0332 217.215 47.9575 217.493 47.8062C217.776 47.6499 218.011 47.4375 218.196 47.1689C218.382 46.9004 218.521 46.5928 218.614 46.2461C218.711 45.8945 218.76 45.521 218.76 45.1255V44.957C218.76 44.5664 218.711 44.1978 218.614 43.8511C218.521 43.4995 218.379 43.1895 218.189 42.9209C218.003 42.6475 217.769 42.4326 217.486 42.2764C217.208 42.1201 216.88 42.042 216.504 42.042C216.133 42.042 215.806 42.1201 215.523 42.2764C215.245 42.4326 215.01 42.6475 214.82 42.9209C214.634 43.1895 214.495 43.4995 214.402 43.8511C214.31 44.1978 214.263 44.5664 214.263 44.957ZM223.169 42.6499V49H221.807V41.0752H223.096L223.169 42.6499ZM222.891 44.7373L222.261 44.7153C222.266 44.1733 222.337 43.6729 222.474 43.2139C222.61 42.75 222.813 42.3472 223.082 42.0054C223.35 41.6636 223.685 41.3999 224.085 41.2144C224.485 41.0239 224.949 40.9287 225.477 40.9287C225.848 40.9287 226.189 40.9824 226.502 41.0898C226.814 41.1924 227.085 41.356 227.315 41.5806C227.544 41.8052 227.723 42.0933 227.85 42.4448C227.977 42.7964 228.04 43.2212 228.04 43.7192V49H226.685V43.7852C226.685 43.3701 226.614 43.0381 226.473 42.7891C226.336 42.54 226.141 42.3594 225.887 42.2471C225.633 42.1299 225.335 42.0713 224.993 42.0713C224.593 42.0713 224.258 42.1421 223.99 42.2837C223.721 42.4253 223.506 42.6206 223.345 42.8696C223.184 43.1187 223.067 43.4043 222.994 43.7266C222.925 44.0439 222.891 44.3809 222.891 44.7373ZM228.025 43.9902L227.117 44.2686C227.122 43.834 227.193 43.4165 227.33 43.0161C227.471 42.6157 227.674 42.2593 227.938 41.9468C228.206 41.6343 228.536 41.3877 228.926 41.207C229.317 41.0215 229.764 40.9287 230.267 40.9287C230.691 40.9287 231.067 40.9849 231.395 41.0972C231.727 41.2095 232.005 41.3828 232.229 41.6172C232.459 41.8467 232.632 42.1421 232.75 42.5034C232.867 42.8647 232.925 43.2944 232.925 43.7925V49H231.563V43.7778C231.563 43.3335 231.492 42.9893 231.351 42.7451C231.214 42.4961 231.019 42.3228 230.765 42.2251C230.516 42.1226 230.218 42.0713 229.871 42.0713C229.573 42.0713 229.31 42.1226 229.08 42.2251C228.851 42.3276 228.658 42.4692 228.501 42.6499C228.345 42.8257 228.226 43.0283 228.143 43.2578C228.064 43.4873 228.025 43.7314 228.025 43.9902ZM239.649 47.645V43.5654C239.649 43.2529 239.585 42.9819 239.458 42.7524C239.336 42.5181 239.151 42.3374 238.902 42.2104C238.653 42.0835 238.345 42.02 237.979 42.02C237.637 42.02 237.337 42.0786 237.078 42.1958C236.824 42.313 236.624 42.4668 236.478 42.6572C236.336 42.8477 236.265 43.0527 236.265 43.2725H234.91C234.91 42.9893 234.983 42.7085 235.13 42.4302C235.276 42.1519 235.486 41.9004 235.76 41.6758C236.038 41.4463 236.37 41.2656 236.756 41.1338C237.146 40.9971 237.581 40.9287 238.06 40.9287C238.636 40.9287 239.144 41.0264 239.583 41.2217C240.027 41.417 240.374 41.7124 240.623 42.1079C240.877 42.4985 241.004 42.9893 241.004 43.5801V47.2715C241.004 47.5352 241.026 47.8159 241.07 48.1138C241.119 48.4116 241.189 48.668 241.282 48.8828V49H239.869C239.8 48.8438 239.747 48.6362 239.708 48.3774C239.668 48.1138 239.649 47.8696 239.649 47.645ZM239.883 44.1953L239.898 45.1475H238.528C238.143 45.1475 237.798 45.1792 237.496 45.2427C237.193 45.3013 236.939 45.3916 236.734 45.5137C236.529 45.6357 236.373 45.7896 236.265 45.9751C236.158 46.1558 236.104 46.3682 236.104 46.6123C236.104 46.8613 236.16 47.0884 236.272 47.2935C236.385 47.4985 236.553 47.6621 236.778 47.7842C237.007 47.9014 237.288 47.96 237.62 47.96C238.035 47.96 238.401 47.8721 238.719 47.6963C239.036 47.5205 239.288 47.3057 239.473 47.0518C239.664 46.7979 239.766 46.5513 239.781 46.312L240.359 46.9639C240.325 47.1689 240.232 47.396 240.081 47.645C239.93 47.894 239.727 48.1333 239.473 48.3628C239.224 48.5874 238.926 48.7754 238.58 48.9268C238.238 49.0732 237.852 49.1465 237.422 49.1465C236.885 49.1465 236.414 49.0415 236.009 48.8315C235.608 48.6216 235.296 48.3408 235.071 47.9893C234.852 47.6328 234.742 47.2349 234.742 46.7954C234.742 46.3706 234.825 45.9971 234.991 45.6748C235.157 45.3477 235.396 45.0767 235.708 44.8618C236.021 44.6421 236.397 44.4761 236.836 44.3638C237.276 44.2515 237.767 44.1953 238.309 44.1953H239.883ZM246.453 41.0752V42.1152H242.168V41.0752H246.453ZM243.619 39.1489H244.974V47.0371C244.974 47.3057 245.015 47.5083 245.098 47.645C245.181 47.7817 245.289 47.8721 245.42 47.916C245.552 47.96 245.694 47.9819 245.845 47.9819C245.958 47.9819 246.075 47.9722 246.197 47.9526C246.324 47.9282 246.419 47.9087 246.482 47.894L246.49 49C246.382 49.0342 246.241 49.0659 246.065 49.0952C245.894 49.1294 245.687 49.1465 245.442 49.1465C245.11 49.1465 244.805 49.0806 244.527 48.9487C244.249 48.8169 244.026 48.5972 243.86 48.2896C243.699 47.9771 243.619 47.5571 243.619 47.0298V39.1489ZM251.331 49.1465C250.779 49.1465 250.279 49.0537 249.83 48.8682C249.385 48.6777 249.002 48.4116 248.68 48.0698C248.362 47.728 248.118 47.3228 247.947 46.854C247.776 46.3853 247.691 45.8726 247.691 45.3159V45.0083C247.691 44.3638 247.786 43.79 247.977 43.2871C248.167 42.7793 248.426 42.3496 248.753 41.998C249.08 41.6465 249.451 41.3804 249.866 41.1997C250.281 41.019 250.711 40.9287 251.155 40.9287C251.722 40.9287 252.21 41.0264 252.62 41.2217C253.035 41.417 253.375 41.6904 253.638 42.042C253.902 42.3887 254.097 42.7988 254.224 43.2725C254.351 43.7412 254.415 44.2539 254.415 44.8105V45.4185H248.497V44.3125H253.06V44.21C253.04 43.8584 252.967 43.5166 252.84 43.1846C252.718 42.8525 252.522 42.5791 252.254 42.3643C251.985 42.1494 251.619 42.042 251.155 42.042C250.848 42.042 250.564 42.1079 250.306 42.2397C250.047 42.3667 249.825 42.5571 249.639 42.811C249.454 43.0649 249.31 43.375 249.207 43.7412C249.104 44.1074 249.053 44.5298 249.053 45.0083V45.3159C249.053 45.6919 249.104 46.0459 249.207 46.3779C249.314 46.7051 249.468 46.9932 249.668 47.2422C249.874 47.4912 250.12 47.6865 250.408 47.8281C250.701 47.9697 251.033 48.0405 251.404 48.0405C251.883 48.0405 252.288 47.9429 252.62 47.7476C252.952 47.5522 253.243 47.291 253.492 46.9639L254.312 47.6157C254.141 47.8745 253.924 48.1211 253.66 48.3555C253.396 48.5898 253.072 48.7803 252.686 48.9268C252.305 49.0732 251.854 49.1465 251.331 49.1465ZM260.992 47.4619V37.75H262.354V49H261.109L260.992 47.4619ZM255.66 45.1255V44.9717C255.66 44.3662 255.733 43.8169 255.879 43.3237C256.031 42.8257 256.243 42.3984 256.517 42.042C256.795 41.6855 257.125 41.4121 257.505 41.2217C257.891 41.0264 258.321 40.9287 258.794 40.9287C259.292 40.9287 259.727 41.0166 260.098 41.1924C260.474 41.3633 260.792 41.6147 261.05 41.9468C261.314 42.2739 261.521 42.6694 261.673 43.1333C261.824 43.5972 261.929 44.1221 261.988 44.708V45.3818C261.934 45.9629 261.829 46.4854 261.673 46.9492C261.521 47.4131 261.314 47.8086 261.05 48.1357C260.792 48.4629 260.474 48.7144 260.098 48.8901C259.722 49.061 259.283 49.1465 258.78 49.1465C258.316 49.1465 257.891 49.0464 257.505 48.8462C257.125 48.646 256.795 48.3652 256.517 48.0039C256.243 47.6426 256.031 47.2178 255.879 46.7295C255.733 46.2363 255.66 45.7017 255.66 45.1255ZM257.022 44.9717V45.1255C257.022 45.521 257.061 45.8921 257.139 46.2388C257.222 46.5854 257.349 46.8906 257.52 47.1543C257.691 47.418 257.908 47.6255 258.172 47.7769C258.436 47.9233 258.75 47.9966 259.117 47.9966C259.566 47.9966 259.935 47.9014 260.223 47.7109C260.516 47.5205 260.75 47.269 260.926 46.9565C261.102 46.644 261.238 46.3047 261.336 45.9385V44.1733C261.277 43.9048 261.192 43.646 261.08 43.397C260.972 43.1431 260.831 42.9185 260.655 42.7231C260.484 42.5229 260.271 42.3643 260.018 42.2471C259.769 42.1299 259.473 42.0713 259.131 42.0713C258.76 42.0713 258.44 42.1494 258.172 42.3057C257.908 42.457 257.691 42.667 257.52 42.9355C257.349 43.1992 257.222 43.5068 257.139 43.8584C257.061 44.2051 257.022 44.5762 257.022 44.9717ZM270.206 49H268.851V40.2402C268.851 39.6689 268.953 39.188 269.158 38.7974C269.368 38.4019 269.668 38.104 270.059 37.9038C270.45 37.6987 270.914 37.5962 271.451 37.5962C271.607 37.5962 271.763 37.606 271.919 37.6255C272.081 37.645 272.237 37.6743 272.388 37.7134L272.315 38.8193C272.212 38.7949 272.095 38.7778 271.963 38.7681C271.836 38.7583 271.709 38.7534 271.583 38.7534C271.294 38.7534 271.045 38.812 270.835 38.9292C270.63 39.0415 270.474 39.2075 270.367 39.4272C270.259 39.647 270.206 39.918 270.206 40.2402V49ZM271.89 41.0752V42.1152H267.598V41.0752H271.89ZM274.871 41.0752V49H273.509V41.0752H274.871ZM273.406 38.9731C273.406 38.7534 273.472 38.5679 273.604 38.4165C273.741 38.2651 273.941 38.1895 274.205 38.1895C274.463 38.1895 274.661 38.2651 274.798 38.4165C274.939 38.5679 275.01 38.7534 275.01 38.9731C275.01 39.1831 274.939 39.3638 274.798 39.5151C274.661 39.6616 274.463 39.7349 274.205 39.7349C273.941 39.7349 273.741 39.6616 273.604 39.5151C273.472 39.3638 273.406 39.1831 273.406 38.9731ZM278.401 42.3203V49H277.046V41.0752H278.365L278.401 42.3203ZM280.877 41.0312L280.87 42.291C280.757 42.2666 280.65 42.252 280.547 42.2471C280.45 42.2373 280.337 42.2324 280.21 42.2324C279.898 42.2324 279.622 42.2812 279.383 42.3789C279.144 42.4766 278.941 42.6133 278.775 42.7891C278.609 42.9648 278.477 43.1748 278.379 43.4189C278.287 43.6582 278.226 43.9219 278.196 44.21L277.815 44.4297C277.815 43.9512 277.862 43.502 277.955 43.082C278.052 42.6621 278.201 42.291 278.401 41.9688C278.602 41.6416 278.855 41.3877 279.163 41.207C279.476 41.0215 279.847 40.9287 280.276 40.9287C280.374 40.9287 280.486 40.9409 280.613 40.9653C280.74 40.9849 280.828 41.0068 280.877 41.0312ZM285.271 49.1465C284.72 49.1465 284.219 49.0537 283.77 48.8682C283.326 48.6777 282.942 48.4116 282.62 48.0698C282.303 47.728 282.059 47.3228 281.888 46.854C281.717 46.3853 281.631 45.8726 281.631 45.3159V45.0083C281.631 44.3638 281.727 43.79 281.917 43.2871C282.107 42.7793 282.366 42.3496 282.693 41.998C283.021 41.6465 283.392 41.3804 283.807 41.1997C284.222 41.019 284.651 40.9287 285.096 40.9287C285.662 40.9287 286.15 41.0264 286.561 41.2217C286.976 41.417 287.315 41.6904 287.579 42.042C287.842 42.3887 288.038 42.7988 288.165 43.2725C288.292 43.7412 288.355 44.2539 288.355 44.8105V45.4185H282.437V44.3125H287V44.21C286.98 43.8584 286.907 43.5166 286.78 43.1846C286.658 42.8525 286.463 42.5791 286.194 42.3643C285.926 42.1494 285.56 42.042 285.096 42.042C284.788 42.042 284.505 42.1079 284.246 42.2397C283.987 42.3667 283.765 42.5571 283.58 42.811C283.394 43.0649 283.25 43.375 283.147 43.7412C283.045 44.1074 282.994 44.5298 282.994 45.0083V45.3159C282.994 45.6919 283.045 46.0459 283.147 46.3779C283.255 46.7051 283.409 46.9932 283.609 47.2422C283.814 47.4912 284.061 47.6865 284.349 47.8281C284.642 47.9697 284.974 48.0405 285.345 48.0405C285.823 48.0405 286.229 47.9429 286.561 47.7476C286.893 47.5522 287.183 47.291 287.432 46.9639L288.252 47.6157C288.082 47.8745 287.864 48.1211 287.601 48.3555C287.337 48.5898 287.012 48.7803 286.626 48.9268C286.246 49.0732 285.794 49.1465 285.271 49.1465ZM291.944 47.5938L293.98 41.0752H294.874L294.698 42.3716L292.625 49H291.753L291.944 47.5938ZM290.574 41.0752L292.31 47.667L292.435 49H291.519L289.219 41.0752H290.574ZM296.822 47.6157L298.477 41.0752H299.825L297.525 49H296.617L296.822 47.6157ZM295.071 41.0752L297.063 47.4839L297.291 49H296.426L294.295 42.3569L294.119 41.0752H295.071ZM305.889 47.645V43.5654C305.889 43.2529 305.826 42.9819 305.699 42.7524C305.577 42.5181 305.391 42.3374 305.142 42.2104C304.893 42.0835 304.585 42.02 304.219 42.02C303.877 42.02 303.577 42.0786 303.318 42.1958C303.064 42.313 302.864 42.4668 302.718 42.6572C302.576 42.8477 302.505 43.0527 302.505 43.2725H301.15C301.15 42.9893 301.224 42.7085 301.37 42.4302C301.517 42.1519 301.727 41.9004 302 41.6758C302.278 41.4463 302.61 41.2656 302.996 41.1338C303.387 40.9971 303.821 40.9287 304.3 40.9287C304.876 40.9287 305.384 41.0264 305.823 41.2217C306.268 41.417 306.614 41.7124 306.863 42.1079C307.117 42.4985 307.244 42.9893 307.244 43.5801V47.2715C307.244 47.5352 307.266 47.8159 307.31 48.1138C307.359 48.4116 307.43 48.668 307.522 48.8828V49H306.109C306.041 48.8438 305.987 48.6362 305.948 48.3774C305.909 48.1138 305.889 47.8696 305.889 47.645ZM306.124 44.1953L306.138 45.1475H304.769C304.383 45.1475 304.039 45.1792 303.736 45.2427C303.433 45.3013 303.179 45.3916 302.974 45.5137C302.769 45.6357 302.613 45.7896 302.505 45.9751C302.398 46.1558 302.344 46.3682 302.344 46.6123C302.344 46.8613 302.4 47.0884 302.513 47.2935C302.625 47.4985 302.793 47.6621 303.018 47.7842C303.248 47.9014 303.528 47.96 303.86 47.96C304.275 47.96 304.642 47.8721 304.959 47.6963C305.276 47.5205 305.528 47.3057 305.713 47.0518C305.904 46.7979 306.006 46.5513 306.021 46.312L306.6 46.9639C306.565 47.1689 306.473 47.396 306.321 47.645C306.17 47.894 305.967 48.1333 305.713 48.3628C305.464 48.5874 305.167 48.7754 304.82 48.9268C304.478 49.0732 304.092 49.1465 303.663 49.1465C303.125 49.1465 302.654 49.0415 302.249 48.8315C301.849 48.6216 301.536 48.3408 301.312 47.9893C301.092 47.6328 300.982 47.2349 300.982 46.7954C300.982 46.3706 301.065 45.9971 301.231 45.6748C301.397 45.3477 301.636 45.0767 301.949 44.8618C302.261 44.6421 302.637 44.4761 303.077 44.3638C303.516 44.2515 304.007 44.1953 304.549 44.1953H306.124ZM310.848 37.75V49H309.485V37.75H310.848ZM314.495 37.75V49H313.133V37.75H314.495ZM321.746 42.5986V52.0469H320.384V41.0752H321.629L321.746 42.5986ZM327.085 44.9717V45.1255C327.085 45.7017 327.017 46.2363 326.88 46.7295C326.744 47.2178 326.543 47.6426 326.28 48.0039C326.021 48.3652 325.701 48.646 325.32 48.8462C324.939 49.0464 324.502 49.1465 324.009 49.1465C323.506 49.1465 323.062 49.0635 322.676 48.8975C322.291 48.7314 321.963 48.4897 321.695 48.1724C321.426 47.855 321.211 47.4741 321.05 47.0298C320.894 46.5854 320.787 46.085 320.728 45.5283V44.708C320.787 44.1221 320.896 43.5972 321.058 43.1333C321.219 42.6694 321.431 42.2739 321.695 41.9468C321.963 41.6147 322.288 41.3633 322.669 41.1924C323.05 41.0166 323.489 40.9287 323.987 40.9287C324.485 40.9287 324.927 41.0264 325.313 41.2217C325.699 41.4121 326.023 41.6855 326.287 42.042C326.551 42.3984 326.749 42.8257 326.88 43.3237C327.017 43.8169 327.085 44.3662 327.085 44.9717ZM325.723 45.1255V44.9717C325.723 44.5762 325.682 44.2051 325.599 43.8584C325.516 43.5068 325.386 43.1992 325.21 42.9355C325.04 42.667 324.82 42.457 324.551 42.3057C324.283 42.1494 323.963 42.0713 323.592 42.0713C323.25 42.0713 322.952 42.1299 322.698 42.2471C322.449 42.3643 322.237 42.5229 322.061 42.7231C321.885 42.9185 321.741 43.1431 321.629 43.397C321.521 43.646 321.441 43.9048 321.387 44.1733V46.0703C321.485 46.4121 321.622 46.7344 321.797 47.0371C321.973 47.335 322.208 47.5767 322.5 47.7622C322.793 47.9429 323.162 48.0332 323.606 48.0332C323.973 48.0332 324.288 47.9575 324.551 47.8062C324.82 47.6499 325.04 47.4375 325.21 47.1689C325.386 46.9004 325.516 46.5928 325.599 46.2461C325.682 45.8945 325.723 45.521 325.723 45.1255ZM330.169 42.3203V49H328.814V41.0752H330.132L330.169 42.3203ZM332.645 41.0312L332.637 42.291C332.525 42.2666 332.417 42.252 332.315 42.2471C332.217 42.2373 332.105 42.2324 331.978 42.2324C331.666 42.2324 331.39 42.2812 331.15 42.3789C330.911 42.4766 330.708 42.6133 330.542 42.7891C330.376 42.9648 330.245 43.1748 330.147 43.4189C330.054 43.6582 329.993 43.9219 329.964 44.21L329.583 44.4297C329.583 43.9512 329.629 43.502 329.722 43.082C329.82 42.6621 329.969 42.291 330.169 41.9688C330.369 41.6416 330.623 41.3877 330.931 41.207C331.243 41.0215 331.614 40.9287 332.044 40.9287C332.142 40.9287 332.254 40.9409 332.381 40.9653C332.508 40.9849 332.596 41.0068 332.645 41.0312ZM333.392 45.1255V44.957C333.392 44.3857 333.475 43.856 333.641 43.3677C333.807 42.8745 334.046 42.4473 334.358 42.0859C334.671 41.7197 335.049 41.4365 335.494 41.2363C335.938 41.0312 336.436 40.9287 336.988 40.9287C337.544 40.9287 338.045 41.0312 338.489 41.2363C338.938 41.4365 339.319 41.7197 339.632 42.0859C339.949 42.4473 340.191 42.8745 340.357 43.3677C340.523 43.856 340.606 44.3857 340.606 44.957V45.1255C340.606 45.6968 340.523 46.2266 340.357 46.7148C340.191 47.2031 339.949 47.6304 339.632 47.9966C339.319 48.3579 338.941 48.6411 338.497 48.8462C338.057 49.0464 337.559 49.1465 337.002 49.1465C336.446 49.1465 335.945 49.0464 335.501 48.8462C335.057 48.6411 334.676 48.3579 334.358 47.9966C334.046 47.6304 333.807 47.2031 333.641 46.7148C333.475 46.2266 333.392 45.6968 333.392 45.1255ZM334.747 44.957V45.1255C334.747 45.521 334.793 45.8945 334.886 46.2461C334.979 46.5928 335.118 46.9004 335.303 47.1689C335.494 47.4375 335.73 47.6499 336.014 47.8062C336.297 47.9575 336.626 48.0332 337.002 48.0332C337.374 48.0332 337.698 47.9575 337.977 47.8062C338.26 47.6499 338.494 47.4375 338.68 47.1689C338.865 46.9004 339.004 46.5928 339.097 46.2461C339.195 45.8945 339.244 45.521 339.244 45.1255V44.957C339.244 44.5664 339.195 44.1978 339.097 43.8511C339.004 43.4995 338.863 43.1895 338.672 42.9209C338.487 42.6475 338.252 42.4326 337.969 42.2764C337.691 42.1201 337.364 42.042 336.988 42.042C336.617 42.042 336.29 42.1201 336.006 42.2764C335.728 42.4326 335.494 42.6475 335.303 42.9209C335.118 43.1895 334.979 43.4995 334.886 43.8511C334.793 44.1978 334.747 44.5664 334.747 44.957ZM345.623 41.0752V42.1152H341.338V41.0752H345.623ZM342.789 39.1489H344.144V47.0371C344.144 47.3057 344.185 47.5083 344.268 47.645C344.351 47.7817 344.458 47.8721 344.59 47.916C344.722 47.96 344.864 47.9819 345.015 47.9819C345.127 47.9819 345.245 47.9722 345.367 47.9526C345.494 47.9282 345.589 47.9087 345.652 47.894L345.66 49C345.552 49.0342 345.411 49.0659 345.235 49.0952C345.064 49.1294 344.856 49.1465 344.612 49.1465C344.28 49.1465 343.975 49.0806 343.697 48.9487C343.418 48.8169 343.196 48.5972 343.03 48.2896C342.869 47.9771 342.789 47.5571 342.789 47.0298V39.1489ZM350.501 49.1465C349.949 49.1465 349.449 49.0537 349 48.8682C348.555 48.6777 348.172 48.4116 347.85 48.0698C347.532 47.728 347.288 47.3228 347.117 46.854C346.946 46.3853 346.861 45.8726 346.861 45.3159V45.0083C346.861 44.3638 346.956 43.79 347.146 43.2871C347.337 42.7793 347.596 42.3496 347.923 41.998C348.25 41.6465 348.621 41.3804 349.036 41.1997C349.451 41.019 349.881 40.9287 350.325 40.9287C350.892 40.9287 351.38 41.0264 351.79 41.2217C352.205 41.417 352.544 41.6904 352.808 42.042C353.072 42.3887 353.267 42.7988 353.394 43.2725C353.521 43.7412 353.584 44.2539 353.584 44.8105V45.4185H347.667V44.3125H352.229V44.21C352.21 43.8584 352.137 43.5166 352.01 43.1846C351.888 42.8525 351.692 42.5791 351.424 42.3643C351.155 42.1494 350.789 42.042 350.325 42.042C350.018 42.042 349.734 42.1079 349.476 42.2397C349.217 42.3667 348.995 42.5571 348.809 42.811C348.624 43.0649 348.479 43.375 348.377 43.7412C348.274 44.1074 348.223 44.5298 348.223 45.0083V45.3159C348.223 45.6919 348.274 46.0459 348.377 46.3779C348.484 46.7051 348.638 46.9932 348.838 47.2422C349.043 47.4912 349.29 47.6865 349.578 47.8281C349.871 47.9697 350.203 48.0405 350.574 48.0405C351.053 48.0405 351.458 47.9429 351.79 47.7476C352.122 47.5522 352.413 47.291 352.662 46.9639L353.482 47.6157C353.311 47.8745 353.094 48.1211 352.83 48.3555C352.566 48.5898 352.242 48.7803 351.856 48.9268C351.475 49.0732 351.023 49.1465 350.501 49.1465ZM358.338 48.0332C358.66 48.0332 358.958 47.9673 359.231 47.8354C359.505 47.7036 359.729 47.5229 359.905 47.2935C360.081 47.0591 360.181 46.793 360.206 46.4951H361.495C361.47 46.9639 361.312 47.4009 361.019 47.8062C360.73 48.2065 360.352 48.5312 359.883 48.7803C359.415 49.0244 358.899 49.1465 358.338 49.1465C357.742 49.1465 357.222 49.0415 356.778 48.8315C356.338 48.6216 355.972 48.3335 355.679 47.9673C355.391 47.6011 355.174 47.1812 355.027 46.7075C354.886 46.229 354.815 45.7236 354.815 45.1914V44.8838C354.815 44.3516 354.886 43.8486 355.027 43.375C355.174 42.8965 355.391 42.4741 355.679 42.1079C355.972 41.7417 356.338 41.4536 356.778 41.2437C357.222 41.0337 357.742 40.9287 358.338 40.9287C358.958 40.9287 359.5 41.0557 359.964 41.3096C360.428 41.5586 360.792 41.9004 361.055 42.335C361.324 42.7646 361.47 43.2529 361.495 43.7998H360.206C360.181 43.4727 360.088 43.1772 359.927 42.9136C359.771 42.6499 359.556 42.4399 359.283 42.2837C359.014 42.1226 358.699 42.042 358.338 42.042C357.923 42.042 357.574 42.125 357.291 42.291C357.012 42.4521 356.79 42.6719 356.624 42.9502C356.463 43.2236 356.346 43.5288 356.272 43.8657C356.204 44.1978 356.17 44.5371 356.17 44.8838V45.1914C356.17 45.5381 356.204 45.8799 356.272 46.2168C356.341 46.5537 356.456 46.8589 356.617 47.1323C356.783 47.4058 357.005 47.6255 357.283 47.7915C357.566 47.9526 357.918 48.0332 358.338 48.0332ZM366.336 41.0752V42.1152H362.051V41.0752H366.336ZM363.501 39.1489H364.856V47.0371C364.856 47.3057 364.898 47.5083 364.981 47.645C365.064 47.7817 365.171 47.8721 365.303 47.916C365.435 47.96 365.577 47.9819 365.728 47.9819C365.84 47.9819 365.958 47.9722 366.08 47.9526C366.207 47.9282 366.302 47.9087 366.365 47.894L366.373 49C366.265 49.0342 366.124 49.0659 365.948 49.0952C365.777 49.1294 365.569 49.1465 365.325 49.1465C364.993 49.1465 364.688 49.0806 364.41 48.9487C364.131 48.8169 363.909 48.5972 363.743 48.2896C363.582 47.9771 363.501 47.5571 363.501 47.0298V39.1489ZM369.397 41.0752V49H368.035V41.0752H369.397ZM367.933 38.9731C367.933 38.7534 367.999 38.5679 368.13 38.4165C368.267 38.2651 368.467 38.1895 368.731 38.1895C368.99 38.1895 369.188 38.2651 369.324 38.4165C369.466 38.5679 369.537 38.7534 369.537 38.9731C369.537 39.1831 369.466 39.3638 369.324 39.5151C369.188 39.6616 368.99 39.7349 368.731 39.7349C368.467 39.7349 368.267 39.6616 368.13 39.5151C367.999 39.3638 367.933 39.1831 367.933 38.9731ZM371.214 45.1255V44.957C371.214 44.3857 371.297 43.856 371.463 43.3677C371.629 42.8745 371.868 42.4473 372.181 42.0859C372.493 41.7197 372.872 41.4365 373.316 41.2363C373.76 41.0312 374.258 40.9287 374.81 40.9287C375.367 40.9287 375.867 41.0312 376.312 41.2363C376.761 41.4365 377.142 41.7197 377.454 42.0859C377.771 42.4473 378.013 42.8745 378.179 43.3677C378.345 43.856 378.428 44.3857 378.428 44.957V45.1255C378.428 45.6968 378.345 46.2266 378.179 46.7148C378.013 47.2031 377.771 47.6304 377.454 47.9966C377.142 48.3579 376.763 48.6411 376.319 48.8462C375.879 49.0464 375.381 49.1465 374.825 49.1465C374.268 49.1465 373.768 49.0464 373.323 48.8462C372.879 48.6411 372.498 48.3579 372.181 47.9966C371.868 47.6304 371.629 47.2031 371.463 46.7148C371.297 46.2266 371.214 45.6968 371.214 45.1255ZM372.569 44.957V45.1255C372.569 45.521 372.615 45.8945 372.708 46.2461C372.801 46.5928 372.94 46.9004 373.125 47.1689C373.316 47.4375 373.553 47.6499 373.836 47.8062C374.119 47.9575 374.449 48.0332 374.825 48.0332C375.196 48.0332 375.521 47.9575 375.799 47.8062C376.082 47.6499 376.316 47.4375 376.502 47.1689C376.688 46.9004 376.827 46.5928 376.919 46.2461C377.017 45.8945 377.066 45.521 377.066 45.1255V44.957C377.066 44.5664 377.017 44.1978 376.919 43.8511C376.827 43.4995 376.685 43.1895 376.495 42.9209C376.309 42.6475 376.075 42.4326 375.792 42.2764C375.513 42.1201 375.186 42.042 374.81 42.042C374.439 42.042 374.112 42.1201 373.829 42.2764C373.55 42.4326 373.316 42.6475 373.125 42.9209C372.94 43.1895 372.801 43.4995 372.708 43.8511C372.615 44.1978 372.569 44.5664 372.569 44.957ZM381.482 42.7671V49H380.127V41.0752H381.409L381.482 42.7671ZM381.16 44.7373L380.596 44.7153C380.601 44.1733 380.682 43.6729 380.838 43.2139C380.994 42.75 381.214 42.3472 381.497 42.0054C381.78 41.6636 382.117 41.3999 382.508 41.2144C382.903 41.0239 383.34 40.9287 383.819 40.9287C384.209 40.9287 384.561 40.9824 384.874 41.0898C385.186 41.1924 385.452 41.3584 385.672 41.5879C385.896 41.8174 386.067 42.1152 386.185 42.4814C386.302 42.8428 386.36 43.2847 386.36 43.8071V49H384.998V43.7925C384.998 43.3774 384.937 43.0454 384.815 42.7964C384.693 42.5425 384.515 42.3594 384.28 42.2471C384.046 42.1299 383.758 42.0713 383.416 42.0713C383.079 42.0713 382.771 42.1421 382.493 42.2837C382.22 42.4253 381.983 42.6206 381.783 42.8696C381.587 43.1187 381.434 43.4043 381.321 43.7266C381.214 44.0439 381.16 44.3809 381.16 44.7373Z" fill="#4C4C4C"/>
<path d="M177 67.25C177.703 67.276 178.289 67.5234 178.758 67.9922C179.227 68.4609 179.474 69.0469 179.5 69.75V72.25C179.474 72.9531 179.227 73.5391 178.758 74.0078C178.289 74.4766 177.703 74.724 177 74.75H162C161.297 74.724 160.711 74.4766 160.242 74.0078C159.773 73.5391 159.526 72.9531 159.5 72.25V69.75C159.526 69.0469 159.773 68.4609 160.242 67.9922C160.711 67.5234 161.297 67.276 162 67.25H177ZM177.625 72.25V69.75C177.599 69.3594 177.391 69.151 177 69.125H162C161.609 69.151 161.401 69.3594 161.375 69.75V72.25C161.401 72.6406 161.609 72.849 162 72.875H177C177.391 72.849 177.599 72.6406 177.625 72.25ZM177 77.25C177.703 77.276 178.289 77.5234 178.758 77.9922C179.227 78.4609 179.474 79.0469 179.5 79.75V82.25C179.474 82.9531 179.227 83.5391 178.758 84.0078C178.289 84.4766 177.703 84.724 177 84.75H162C161.297 84.724 160.711 84.4766 160.242 84.0078C159.773 83.5391 159.526 82.9531 159.5 82.25V79.75C159.526 79.0469 159.773 78.4609 160.242 77.9922C160.711 77.5234 161.297 77.276 162 77.25H177ZM177.625 82.25V79.75C177.599 79.3594 177.391 79.151 177 79.125H162C161.609 79.151 161.401 79.3594 161.375 79.75V82.25C161.401 82.6406 161.609 82.849 162 82.875H177C177.391 82.849 177.599 82.6406 177.625 82.25ZM173.25 70.0625C173.823 70.1146 174.135 70.4271 174.188 71C174.135 71.5729 173.823 71.8854 173.25 71.9375C172.677 71.8854 172.365 71.5729 172.312 71C172.365 70.4271 172.677 70.1146 173.25 70.0625ZM175.75 70.0625C176.323 70.1146 176.635 70.4271 176.688 71C176.635 71.5729 176.323 71.8854 175.75 71.9375C175.177 71.8854 174.865 71.5729 174.812 71C174.865 70.4271 175.177 70.1146 175.75 70.0625ZM173.25 80.0625C173.823 80.1146 174.135 80.4271 174.188 81C174.135 81.5729 173.823 81.8854 173.25 81.9375C172.677 81.8854 172.365 81.5729 172.312 81C172.365 80.4271 172.677 80.1146 173.25 80.0625ZM175.75 80.0625C176.323 80.1146 176.635 80.4271 176.688 81C176.635 81.5729 176.323 81.8854 175.75 81.9375C175.177 81.8854 174.865 81.5729 174.812 81C174.865 80.4271 175.177 80.1146 175.75 80.0625Z" fill="#4C4C4C"/>
<path d="M190.738 70.3359H194.268C195.069 70.3359 195.745 70.458 196.297 70.7021C196.854 70.9463 197.276 71.3076 197.564 71.7861C197.857 72.2598 198.003 72.8433 198.003 73.5366C198.003 74.0249 197.903 74.4717 197.703 74.877C197.508 75.2773 197.225 75.6191 196.854 75.9023C196.487 76.1807 196.048 76.3882 195.535 76.5249L195.14 76.6787H191.822L191.807 75.5288H194.312C194.82 75.5288 195.242 75.4409 195.579 75.2651C195.916 75.0845 196.17 74.8428 196.341 74.54C196.512 74.2373 196.597 73.9028 196.597 73.5366C196.597 73.1265 196.517 72.7676 196.355 72.46C196.194 72.1523 195.94 71.9155 195.594 71.7495C195.252 71.5786 194.81 71.4932 194.268 71.4932H192.151V81H190.738V70.3359ZM196.971 81L194.378 76.166L195.85 76.1587L198.479 80.9121V81H196.971ZM203.064 81.1465C202.513 81.1465 202.012 81.0537 201.563 80.8682C201.119 80.6777 200.735 80.4116 200.413 80.0698C200.096 79.728 199.852 79.3228 199.681 78.854C199.51 78.3853 199.424 77.8726 199.424 77.3159V77.0083C199.424 76.3638 199.52 75.79 199.71 75.2871C199.9 74.7793 200.159 74.3496 200.486 73.998C200.813 73.6465 201.185 73.3804 201.6 73.1997C202.015 73.019 202.444 72.9287 202.889 72.9287C203.455 72.9287 203.943 73.0264 204.354 73.2217C204.769 73.417 205.108 73.6904 205.372 74.042C205.635 74.3887 205.831 74.7988 205.958 75.2725C206.084 75.7412 206.148 76.2539 206.148 76.8105V77.4185H200.23V76.3125H204.793V76.21C204.773 75.8584 204.7 75.5166 204.573 75.1846C204.451 74.8525 204.256 74.5791 203.987 74.3643C203.719 74.1494 203.353 74.042 202.889 74.042C202.581 74.042 202.298 74.1079 202.039 74.2397C201.78 74.3667 201.558 74.5571 201.373 74.811C201.187 75.0649 201.043 75.375 200.94 75.7412C200.838 76.1074 200.787 76.5298 200.787 77.0083V77.3159C200.787 77.6919 200.838 78.0459 200.94 78.3779C201.048 78.7051 201.202 78.9932 201.402 79.2422C201.607 79.4912 201.854 79.6865 202.142 79.8281C202.435 79.9697 202.767 80.0405 203.138 80.0405C203.616 80.0405 204.021 79.9429 204.354 79.7476C204.686 79.5522 204.976 79.291 205.225 78.9639L206.045 79.6157C205.875 79.8745 205.657 80.1211 205.394 80.3555C205.13 80.5898 204.805 80.7803 204.419 80.9268C204.039 81.0732 203.587 81.1465 203.064 81.1465ZM212.864 73.0752H214.095V80.8315C214.095 81.5298 213.953 82.1255 213.67 82.6187C213.387 83.1118 212.991 83.4854 212.483 83.7393C211.98 83.998 211.399 84.1274 210.74 84.1274C210.467 84.1274 210.145 84.0835 209.773 83.9956C209.407 83.9126 209.046 83.7686 208.689 83.5635C208.338 83.3633 208.042 83.0923 207.803 82.7505L208.514 81.9448C208.846 82.3452 209.192 82.6235 209.554 82.7798C209.92 82.936 210.281 83.0142 210.638 83.0142C211.067 83.0142 211.438 82.9336 211.751 82.7725C212.063 82.6113 212.305 82.3721 212.476 82.0547C212.652 81.7422 212.74 81.3564 212.74 80.8975V74.8184L212.864 73.0752ZM207.408 77.1255V76.9717C207.408 76.3662 207.479 75.8169 207.62 75.3237C207.767 74.8257 207.974 74.3984 208.243 74.042C208.516 73.6855 208.846 73.4121 209.231 73.2217C209.617 73.0264 210.052 72.9287 210.535 72.9287C211.033 72.9287 211.468 73.0166 211.839 73.1924C212.215 73.3633 212.532 73.6147 212.791 73.9468C213.055 74.2739 213.262 74.6694 213.414 75.1333C213.565 75.5972 213.67 76.1221 213.729 76.708V77.3818C213.675 77.9629 213.57 78.4854 213.414 78.9492C213.262 79.4131 213.055 79.8086 212.791 80.1357C212.532 80.4629 212.215 80.7144 211.839 80.8901C211.463 81.061 211.023 81.1465 210.521 81.1465C210.047 81.1465 209.617 81.0464 209.231 80.8462C208.851 80.646 208.523 80.3652 208.25 80.0039C207.977 79.6426 207.767 79.2178 207.62 78.7295C207.479 78.2363 207.408 77.7017 207.408 77.1255ZM208.763 76.9717V77.1255C208.763 77.521 208.802 77.8921 208.88 78.2388C208.963 78.5854 209.087 78.8906 209.253 79.1543C209.424 79.418 209.642 79.6255 209.905 79.7769C210.169 79.9233 210.484 79.9966 210.85 79.9966C211.299 79.9966 211.67 79.9014 211.963 79.7109C212.256 79.5205 212.488 79.269 212.659 78.9565C212.835 78.644 212.972 78.3047 213.069 77.9385V76.1733C213.016 75.9048 212.933 75.646 212.82 75.397C212.713 75.1431 212.571 74.9185 212.396 74.7231C212.225 74.5229 212.012 74.3643 211.758 74.2471C211.504 74.1299 211.207 74.0713 210.865 74.0713C210.494 74.0713 210.174 74.1494 209.905 74.3057C209.642 74.457 209.424 74.667 209.253 74.9355C209.087 75.1992 208.963 75.5068 208.88 75.8584C208.802 76.2051 208.763 76.5762 208.763 76.9717ZM221.001 79.1689V73.0752H222.364V81H221.067L221.001 79.1689ZM221.258 77.499L221.822 77.4844C221.822 78.0117 221.766 78.5 221.653 78.9492C221.546 79.3936 221.37 79.7793 221.126 80.1064C220.882 80.4336 220.562 80.6899 220.167 80.8755C219.771 81.0562 219.29 81.1465 218.724 81.1465C218.338 81.1465 217.984 81.0903 217.662 80.978C217.344 80.8657 217.071 80.6924 216.841 80.458C216.612 80.2236 216.434 79.9185 216.307 79.5425C216.185 79.1665 216.124 78.7148 216.124 78.1875V73.0752H217.479V78.2021C217.479 78.5586 217.518 78.854 217.596 79.0884C217.679 79.3179 217.789 79.501 217.925 79.6377C218.067 79.7695 218.223 79.8623 218.394 79.916C218.57 79.9697 218.75 79.9966 218.936 79.9966C219.512 79.9966 219.969 79.8867 220.306 79.667C220.643 79.4424 220.884 79.1421 221.031 78.7661C221.182 78.3853 221.258 77.9629 221.258 77.499ZM225.901 69.75V81H224.539V69.75H225.901ZM232.75 79.645V75.5654C232.75 75.2529 232.686 74.9819 232.559 74.7524C232.437 74.5181 232.251 74.3374 232.002 74.2104C231.753 74.0835 231.446 74.02 231.08 74.02C230.738 74.02 230.438 74.0786 230.179 74.1958C229.925 74.313 229.725 74.4668 229.578 74.6572C229.437 74.8477 229.366 75.0527 229.366 75.2725H228.011C228.011 74.9893 228.084 74.7085 228.23 74.4302C228.377 74.1519 228.587 73.9004 228.86 73.6758C229.139 73.4463 229.471 73.2656 229.856 73.1338C230.247 72.9971 230.682 72.9287 231.16 72.9287C231.736 72.9287 232.244 73.0264 232.684 73.2217C233.128 73.417 233.475 73.7124 233.724 74.1079C233.978 74.4985 234.104 74.9893 234.104 75.5801V79.2715C234.104 79.5352 234.126 79.8159 234.17 80.1138C234.219 80.4116 234.29 80.668 234.383 80.8828V81H232.969C232.901 80.8438 232.847 80.6362 232.808 80.3774C232.769 80.1138 232.75 79.8696 232.75 79.645ZM232.984 76.1953L232.999 77.1475H231.629C231.243 77.1475 230.899 77.1792 230.596 77.2427C230.293 77.3013 230.04 77.3916 229.834 77.5137C229.629 77.6357 229.473 77.7896 229.366 77.9751C229.258 78.1558 229.205 78.3682 229.205 78.6123C229.205 78.8613 229.261 79.0884 229.373 79.2935C229.485 79.4985 229.654 79.6621 229.878 79.7842C230.108 79.9014 230.389 79.96 230.721 79.96C231.136 79.96 231.502 79.8721 231.819 79.6963C232.137 79.5205 232.388 79.3057 232.574 79.0518C232.764 78.7979 232.867 78.5513 232.881 78.312L233.46 78.9639C233.426 79.1689 233.333 79.396 233.182 79.645C233.03 79.894 232.828 80.1333 232.574 80.3628C232.325 80.5874 232.027 80.7754 231.68 80.9268C231.338 81.0732 230.953 81.1465 230.523 81.1465C229.986 81.1465 229.515 81.0415 229.109 80.8315C228.709 80.6216 228.396 80.3408 228.172 79.9893C227.952 79.6328 227.842 79.2349 227.842 78.7954C227.842 78.3706 227.925 77.9971 228.091 77.6748C228.257 77.3477 228.497 77.0767 228.809 76.8618C229.122 76.6421 229.498 76.4761 229.937 76.3638C230.376 76.2515 230.867 76.1953 231.409 76.1953H232.984ZM237.591 74.3203V81H236.236V73.0752H237.554L237.591 74.3203ZM240.066 73.0312L240.059 74.291C239.947 74.2666 239.839 74.252 239.737 74.2471C239.639 74.2373 239.527 74.2324 239.4 74.2324C239.087 74.2324 238.812 74.2812 238.572 74.3789C238.333 74.4766 238.13 74.6133 237.964 74.7891C237.798 74.9648 237.667 75.1748 237.569 75.4189C237.476 75.6582 237.415 75.9219 237.386 76.21L237.005 76.4297C237.005 75.9512 237.051 75.502 237.144 75.082C237.242 74.6621 237.391 74.291 237.591 73.9688C237.791 73.6416 238.045 73.3877 238.353 73.207C238.665 73.0215 239.036 72.9287 239.466 72.9287C239.563 72.9287 239.676 72.9409 239.803 72.9653C239.93 72.9849 240.018 73.0068 240.066 73.0312ZM242.791 69.75V81H241.429V69.75H242.791ZM247.193 80.1797L249.397 73.0752H250.848L247.669 82.2231C247.596 82.4185 247.498 82.6284 247.376 82.853C247.259 83.0825 247.107 83.2998 246.922 83.5049C246.736 83.71 246.512 83.876 246.248 84.0029C245.989 84.1348 245.679 84.2007 245.318 84.2007C245.21 84.2007 245.074 84.186 244.908 84.1567C244.742 84.1274 244.625 84.103 244.556 84.0835L244.549 82.9849C244.588 82.9897 244.649 82.9946 244.732 82.9995C244.82 83.0093 244.881 83.0142 244.915 83.0142C245.223 83.0142 245.484 82.9727 245.699 82.8896C245.914 82.8115 246.094 82.6772 246.241 82.4868C246.392 82.3013 246.521 82.0449 246.629 81.7178L247.193 80.1797ZM245.574 73.0752L247.632 79.2275L247.984 80.6558L247.01 81.1538L244.095 73.0752H245.574ZM255.997 70.3359H259.527C260.328 70.3359 261.004 70.458 261.556 70.7021C262.112 70.9463 262.535 71.3076 262.823 71.7861C263.116 72.2598 263.262 72.8433 263.262 73.5366C263.262 74.0249 263.162 74.4717 262.962 74.877C262.767 75.2773 262.483 75.6191 262.112 75.9023C261.746 76.1807 261.307 76.3882 260.794 76.5249L260.398 76.6787H257.081L257.066 75.5288H259.571C260.079 75.5288 260.501 75.4409 260.838 75.2651C261.175 75.0845 261.429 74.8428 261.6 74.54C261.771 74.2373 261.856 73.9028 261.856 73.5366C261.856 73.1265 261.775 72.7676 261.614 72.46C261.453 72.1523 261.199 71.9155 260.853 71.7495C260.511 71.5786 260.069 71.4932 259.527 71.4932H257.41V81H255.997V70.3359ZM262.229 81L259.637 76.166L261.109 76.1587L263.738 80.9121V81H262.229ZM268.323 81.1465C267.771 81.1465 267.271 81.0537 266.822 80.8682C266.377 80.6777 265.994 80.4116 265.672 80.0698C265.354 79.728 265.11 79.3228 264.939 78.854C264.769 78.3853 264.683 77.8726 264.683 77.3159V77.0083C264.683 76.3638 264.778 75.79 264.969 75.2871C265.159 74.7793 265.418 74.3496 265.745 73.998C266.072 73.6465 266.443 73.3804 266.858 73.1997C267.273 73.019 267.703 72.9287 268.147 72.9287C268.714 72.9287 269.202 73.0264 269.612 73.2217C270.027 73.417 270.367 73.6904 270.63 74.042C270.894 74.3887 271.089 74.7988 271.216 75.2725C271.343 75.7412 271.407 76.2539 271.407 76.8105V77.4185H265.489V76.3125H270.052V76.21C270.032 75.8584 269.959 75.5166 269.832 75.1846C269.71 74.8525 269.515 74.5791 269.246 74.3643C268.978 74.1494 268.611 74.042 268.147 74.042C267.84 74.042 267.557 74.1079 267.298 74.2397C267.039 74.3667 266.817 74.5571 266.631 74.811C266.446 75.0649 266.302 75.375 266.199 75.7412C266.097 76.1074 266.045 76.5298 266.045 77.0083V77.3159C266.045 77.6919 266.097 78.0459 266.199 78.3779C266.307 78.7051 266.46 78.9932 266.661 79.2422C266.866 79.4912 267.112 79.6865 267.4 79.8281C267.693 79.9697 268.025 80.0405 268.396 80.0405C268.875 80.0405 269.28 79.9429 269.612 79.7476C269.944 79.5522 270.235 79.291 270.484 78.9639L271.304 79.6157C271.133 79.8745 270.916 80.1211 270.652 80.3555C270.389 80.5898 270.064 80.7803 269.678 80.9268C269.297 81.0732 268.846 81.1465 268.323 81.1465ZM275.296 79.7769L277.464 73.0752H278.848L275.999 81H275.091L275.296 79.7769ZM273.487 73.0752L275.721 79.8135L275.875 81H274.966L272.095 73.0752H273.487ZM281.624 73.0752V81H280.262V73.0752H281.624ZM280.159 70.9731C280.159 70.7534 280.225 70.5679 280.357 70.4165C280.494 70.2651 280.694 70.1895 280.958 70.1895C281.216 70.1895 281.414 70.2651 281.551 70.4165C281.692 70.5679 281.763 70.7534 281.763 70.9731C281.763 71.1831 281.692 71.3638 281.551 71.5151C281.414 71.6616 281.216 71.7349 280.958 71.7349C280.694 71.7349 280.494 71.6616 280.357 71.5151C280.225 71.3638 280.159 71.1831 280.159 70.9731ZM287.088 81.1465C286.536 81.1465 286.036 81.0537 285.586 80.8682C285.142 80.6777 284.759 80.4116 284.437 80.0698C284.119 79.728 283.875 79.3228 283.704 78.854C283.533 78.3853 283.448 77.8726 283.448 77.3159V77.0083C283.448 76.3638 283.543 75.79 283.733 75.2871C283.924 74.7793 284.183 74.3496 284.51 73.998C284.837 73.6465 285.208 73.3804 285.623 73.1997C286.038 73.019 286.468 72.9287 286.912 72.9287C287.479 72.9287 287.967 73.0264 288.377 73.2217C288.792 73.417 289.131 73.6904 289.395 74.042C289.659 74.3887 289.854 74.7988 289.981 75.2725C290.108 75.7412 290.171 76.2539 290.171 76.8105V77.4185H284.253V76.3125H288.816V76.21C288.797 75.8584 288.724 75.5166 288.597 75.1846C288.475 74.8525 288.279 74.5791 288.011 74.3643C287.742 74.1494 287.376 74.042 286.912 74.042C286.604 74.042 286.321 74.1079 286.062 74.2397C285.804 74.3667 285.582 74.5571 285.396 74.811C285.21 75.0649 285.066 75.375 284.964 75.7412C284.861 76.1074 284.81 76.5298 284.81 77.0083V77.3159C284.81 77.6919 284.861 78.0459 284.964 78.3779C285.071 78.7051 285.225 78.9932 285.425 79.2422C285.63 79.4912 285.877 79.6865 286.165 79.8281C286.458 79.9697 286.79 80.0405 287.161 80.0405C287.64 80.0405 288.045 79.9429 288.377 79.7476C288.709 79.5522 289 79.291 289.249 78.9639L290.069 79.6157C289.898 79.8745 289.681 80.1211 289.417 80.3555C289.153 80.5898 288.829 80.7803 288.443 80.9268C288.062 81.0732 287.61 81.1465 287.088 81.1465ZM293.76 79.5938L295.796 73.0752H296.69L296.514 74.3716L294.441 81H293.57L293.76 79.5938ZM292.391 73.0752L294.126 79.667L294.251 81H293.335L291.036 73.0752H292.391ZM298.638 79.6157L300.293 73.0752H301.641L299.341 81H298.433L298.638 79.6157ZM296.888 73.0752L298.88 79.4839L299.107 81H298.243L296.111 74.3569L295.936 73.0752H296.888ZM306.321 81.1465C305.77 81.1465 305.269 81.0537 304.82 80.8682C304.375 80.6777 303.992 80.4116 303.67 80.0698C303.353 79.728 303.108 79.3228 302.938 78.854C302.767 78.3853 302.681 77.8726 302.681 77.3159V77.0083C302.681 76.3638 302.776 75.79 302.967 75.2871C303.157 74.7793 303.416 74.3496 303.743 73.998C304.07 73.6465 304.441 73.3804 304.856 73.1997C305.271 73.019 305.701 72.9287 306.146 72.9287C306.712 72.9287 307.2 73.0264 307.61 73.2217C308.025 73.417 308.365 73.6904 308.628 74.042C308.892 74.3887 309.087 74.7988 309.214 75.2725C309.341 75.7412 309.405 76.2539 309.405 76.8105V77.4185H303.487V76.3125H308.05V76.21C308.03 75.8584 307.957 75.5166 307.83 75.1846C307.708 74.8525 307.513 74.5791 307.244 74.3643C306.976 74.1494 306.609 74.042 306.146 74.042C305.838 74.042 305.555 74.1079 305.296 74.2397C305.037 74.3667 304.815 74.5571 304.629 74.811C304.444 75.0649 304.3 75.375 304.197 75.7412C304.095 76.1074 304.043 76.5298 304.043 77.0083V77.3159C304.043 77.6919 304.095 78.0459 304.197 78.3779C304.305 78.7051 304.458 78.9932 304.659 79.2422C304.864 79.4912 305.11 79.6865 305.398 79.8281C305.691 79.9697 306.023 80.0405 306.395 80.0405C306.873 80.0405 307.278 79.9429 307.61 79.7476C307.942 79.5522 308.233 79.291 308.482 78.9639L309.302 79.6157C309.131 79.8745 308.914 80.1211 308.65 80.3555C308.387 80.5898 308.062 80.7803 307.676 80.9268C307.295 81.0732 306.844 81.1465 306.321 81.1465ZM315.982 79.4619V69.75H317.344V81H316.099L315.982 79.4619ZM310.65 77.1255V76.9717C310.65 76.3662 310.723 75.8169 310.87 75.3237C311.021 74.8257 311.233 74.3984 311.507 74.042C311.785 73.6855 312.115 73.4121 312.496 73.2217C312.881 73.0264 313.311 72.9287 313.785 72.9287C314.283 72.9287 314.717 73.0166 315.088 73.1924C315.464 73.3633 315.782 73.6147 316.041 73.9468C316.304 74.2739 316.512 74.6694 316.663 75.1333C316.814 75.5972 316.919 76.1221 316.978 76.708V77.3818C316.924 77.9629 316.819 78.4854 316.663 78.9492C316.512 79.4131 316.304 79.8086 316.041 80.1357C315.782 80.4629 315.464 80.7144 315.088 80.8901C314.712 81.061 314.273 81.1465 313.77 81.1465C313.306 81.1465 312.881 81.0464 312.496 80.8462C312.115 80.646 311.785 80.3652 311.507 80.0039C311.233 79.6426 311.021 79.2178 310.87 78.7295C310.723 78.2363 310.65 77.7017 310.65 77.1255ZM312.012 76.9717V77.1255C312.012 77.521 312.051 77.8921 312.129 78.2388C312.212 78.5854 312.339 78.8906 312.51 79.1543C312.681 79.418 312.898 79.6255 313.162 79.7769C313.426 79.9233 313.741 79.9966 314.107 79.9966C314.556 79.9966 314.925 79.9014 315.213 79.7109C315.506 79.5205 315.74 79.269 315.916 78.9565C316.092 78.644 316.229 78.3047 316.326 77.9385V76.1733C316.268 75.9048 316.182 75.646 316.07 75.397C315.962 75.1431 315.821 74.9185 315.645 74.7231C315.474 74.5229 315.262 74.3643 315.008 74.2471C314.759 74.1299 314.463 74.0713 314.122 74.0713C313.75 74.0713 313.431 74.1494 313.162 74.3057C312.898 74.457 312.681 74.667 312.51 74.9355C312.339 75.1992 312.212 75.5068 312.129 75.8584C312.051 76.2051 312.012 76.5762 312.012 76.9717ZM324.896 70.3359V81H323.482V70.3359H324.896ZM331.399 76.8179H328.55V75.668H331.399C331.951 75.668 332.398 75.5801 332.74 75.4043C333.082 75.2285 333.331 74.9844 333.487 74.6719C333.648 74.3594 333.729 74.0029 333.729 73.6025C333.729 73.2363 333.648 72.8921 333.487 72.5698C333.331 72.2476 333.082 71.9888 332.74 71.7935C332.398 71.5933 331.951 71.4932 331.399 71.4932H328.88V81H327.466V70.3359H331.399C332.205 70.3359 332.886 70.4751 333.443 70.7534C334 71.0317 334.422 71.4175 334.71 71.9106C334.998 72.3989 335.142 72.958 335.142 73.5879C335.142 74.2715 334.998 74.855 334.71 75.3384C334.422 75.8218 334 76.1904 333.443 76.4443C332.886 76.6934 332.205 76.8179 331.399 76.8179ZM343.536 81H341.309L341.324 79.8501H343.536C344.297 79.8501 344.932 79.6914 345.44 79.374C345.948 79.0518 346.329 78.6025 346.583 78.0264C346.841 77.4453 346.971 76.7666 346.971 75.9902V75.3384C346.971 74.728 346.897 74.186 346.751 73.7124C346.604 73.2339 346.39 72.8311 346.106 72.5039C345.823 72.1719 345.477 71.9204 345.066 71.7495C344.661 71.5786 344.195 71.4932 343.667 71.4932H341.265V70.3359H343.667C344.366 70.3359 345.003 70.4531 345.579 70.6875C346.155 70.917 346.651 71.2515 347.066 71.6909C347.486 72.1255 347.808 72.6528 348.033 73.2729C348.257 73.8882 348.37 74.5815 348.37 75.353V75.9902C348.37 76.7617 348.257 77.4575 348.033 78.0776C347.808 78.6929 347.483 79.2178 347.059 79.6523C346.639 80.0869 346.131 80.4214 345.535 80.6558C344.944 80.8853 344.278 81 343.536 81ZM342.063 70.3359V81H340.65V70.3359H342.063ZM354.961 79.645V75.5654C354.961 75.2529 354.898 74.9819 354.771 74.7524C354.649 74.5181 354.463 74.3374 354.214 74.2104C353.965 74.0835 353.658 74.02 353.292 74.02C352.95 74.02 352.649 74.0786 352.391 74.1958C352.137 74.313 351.937 74.4668 351.79 74.6572C351.648 74.8477 351.578 75.0527 351.578 75.2725H350.223C350.223 74.9893 350.296 74.7085 350.442 74.4302C350.589 74.1519 350.799 73.9004 351.072 73.6758C351.351 73.4463 351.683 73.2656 352.068 73.1338C352.459 72.9971 352.894 72.9287 353.372 72.9287C353.948 72.9287 354.456 73.0264 354.896 73.2217C355.34 73.417 355.687 73.7124 355.936 74.1079C356.189 74.4985 356.316 74.9893 356.316 75.5801V79.2715C356.316 79.5352 356.338 79.8159 356.382 80.1138C356.431 80.4116 356.502 80.668 356.595 80.8828V81H355.181C355.113 80.8438 355.059 80.6362 355.02 80.3774C354.981 80.1138 354.961 79.8696 354.961 79.645ZM355.196 76.1953L355.21 77.1475H353.841C353.455 77.1475 353.111 77.1792 352.808 77.2427C352.505 77.3013 352.251 77.3916 352.046 77.5137C351.841 77.6357 351.685 77.7896 351.578 77.9751C351.47 78.1558 351.417 78.3682 351.417 78.6123C351.417 78.8613 351.473 79.0884 351.585 79.2935C351.697 79.4985 351.866 79.6621 352.09 79.7842C352.32 79.9014 352.601 79.96 352.933 79.96C353.348 79.96 353.714 79.8721 354.031 79.6963C354.349 79.5205 354.6 79.3057 354.786 79.0518C354.976 78.7979 355.079 78.5513 355.093 78.312L355.672 78.9639C355.638 79.1689 355.545 79.396 355.394 79.645C355.242 79.894 355.04 80.1333 354.786 80.3628C354.537 80.5874 354.239 80.7754 353.892 80.9268C353.55 81.0732 353.165 81.1465 352.735 81.1465C352.198 81.1465 351.727 81.0415 351.321 80.8315C350.921 80.6216 350.608 80.3408 350.384 79.9893C350.164 79.6328 350.054 79.2349 350.054 78.7954C350.054 78.3706 350.137 77.9971 350.303 77.6748C350.469 77.3477 350.708 77.0767 351.021 76.8618C351.333 76.6421 351.709 76.4761 352.149 76.3638C352.588 76.2515 353.079 76.1953 353.621 76.1953H355.196ZM361.766 73.0752V74.1152H357.481V73.0752H361.766ZM358.931 71.1489H360.286V79.0371C360.286 79.3057 360.328 79.5083 360.411 79.645C360.494 79.7817 360.601 79.8721 360.733 79.916C360.865 79.96 361.006 79.9819 361.158 79.9819C361.27 79.9819 361.387 79.9722 361.509 79.9526C361.636 79.9282 361.731 79.9087 361.795 79.894L361.802 81C361.695 81.0342 361.553 81.0659 361.377 81.0952C361.207 81.1294 360.999 81.1465 360.755 81.1465C360.423 81.1465 360.118 81.0806 359.839 80.9487C359.561 80.8169 359.339 80.5972 359.173 80.2896C359.012 79.9771 358.931 79.5571 358.931 79.0298V71.1489ZM368.028 79.645V75.5654C368.028 75.2529 367.964 74.9819 367.837 74.7524C367.715 74.5181 367.53 74.3374 367.281 74.2104C367.032 74.0835 366.724 74.02 366.358 74.02C366.016 74.02 365.716 74.0786 365.457 74.1958C365.203 74.313 365.003 74.4668 364.856 74.6572C364.715 74.8477 364.644 75.0527 364.644 75.2725H363.289C363.289 74.9893 363.362 74.7085 363.509 74.4302C363.655 74.1519 363.865 73.9004 364.139 73.6758C364.417 73.4463 364.749 73.2656 365.135 73.1338C365.525 72.9971 365.96 72.9287 366.438 72.9287C367.015 72.9287 367.522 73.0264 367.962 73.2217C368.406 73.417 368.753 73.7124 369.002 74.1079C369.256 74.4985 369.383 74.9893 369.383 75.5801V79.2715C369.383 79.5352 369.405 79.8159 369.449 80.1138C369.498 80.4116 369.568 80.668 369.661 80.8828V81H368.248C368.179 80.8438 368.125 80.6362 368.086 80.3774C368.047 80.1138 368.028 79.8696 368.028 79.645ZM368.262 76.1953L368.277 77.1475H366.907C366.521 77.1475 366.177 77.1792 365.875 77.2427C365.572 77.3013 365.318 77.3916 365.113 77.5137C364.908 77.6357 364.751 77.7896 364.644 77.9751C364.537 78.1558 364.483 78.3682 364.483 78.6123C364.483 78.8613 364.539 79.0884 364.651 79.2935C364.764 79.4985 364.932 79.6621 365.157 79.7842C365.386 79.9014 365.667 79.96 365.999 79.96C366.414 79.96 366.78 79.8721 367.098 79.6963C367.415 79.5205 367.667 79.3057 367.852 79.0518C368.042 78.7979 368.145 78.5513 368.16 78.312L368.738 78.9639C368.704 79.1689 368.611 79.396 368.46 79.645C368.309 79.894 368.106 80.1333 367.852 80.3628C367.603 80.5874 367.305 80.7754 366.958 80.9268C366.617 81.0732 366.231 81.1465 365.801 81.1465C365.264 81.1465 364.793 81.0415 364.388 80.8315C363.987 80.6216 363.675 80.3408 363.45 79.9893C363.23 79.6328 363.121 79.2349 363.121 78.7954C363.121 78.3706 363.204 77.9971 363.37 77.6748C363.536 77.3477 363.775 77.0767 364.087 76.8618C364.4 76.6421 364.776 76.4761 365.215 76.3638C365.655 76.2515 366.146 76.1953 366.688 76.1953H368.262ZM371.507 69.75H372.869V79.4619L372.752 81H371.507V69.75ZM378.223 76.9717V77.1255C378.223 77.7017 378.155 78.2363 378.018 78.7295C377.881 79.2178 377.681 79.6426 377.417 80.0039C377.154 80.3652 376.832 80.646 376.451 80.8462C376.07 81.0464 375.633 81.1465 375.14 81.1465C374.637 81.1465 374.195 81.061 373.814 80.8901C373.438 80.7144 373.121 80.4629 372.862 80.1357C372.603 79.8086 372.396 79.4131 372.239 78.9492C372.088 78.4854 371.983 77.9629 371.924 77.3818V76.708C371.983 76.1221 372.088 75.5972 372.239 75.1333C372.396 74.6694 372.603 74.2739 372.862 73.9468C373.121 73.6147 373.438 73.3633 373.814 73.1924C374.19 73.0166 374.627 72.9287 375.125 72.9287C375.623 72.9287 376.065 73.0264 376.451 73.2217C376.836 73.4121 377.159 73.6855 377.417 74.042C377.681 74.3984 377.881 74.8257 378.018 75.3237C378.155 75.8169 378.223 76.3662 378.223 76.9717ZM376.861 77.1255V76.9717C376.861 76.5762 376.824 76.2051 376.751 75.8584C376.678 75.5068 376.561 75.1992 376.399 74.9355C376.238 74.667 376.026 74.457 375.762 74.3057C375.499 74.1494 375.174 74.0713 374.788 74.0713C374.446 74.0713 374.148 74.1299 373.895 74.2471C373.646 74.3643 373.433 74.5229 373.257 74.7231C373.082 74.9185 372.938 75.1431 372.825 75.397C372.718 75.646 372.637 75.9048 372.583 76.1733V77.9385C372.662 78.2803 372.789 78.6099 372.964 78.9272C373.145 79.2397 373.384 79.4961 373.682 79.6963C373.985 79.8965 374.358 79.9966 374.803 79.9966C375.169 79.9966 375.481 79.9233 375.74 79.7769C376.004 79.6255 376.216 79.418 376.377 79.1543C376.543 78.8906 376.666 78.5854 376.744 78.2388C376.822 77.8921 376.861 77.521 376.861 77.1255ZM384.61 79.645V75.5654C384.61 75.2529 384.546 74.9819 384.419 74.7524C384.297 74.5181 384.112 74.3374 383.863 74.2104C383.614 74.0835 383.306 74.02 382.94 74.02C382.598 74.02 382.298 74.0786 382.039 74.1958C381.785 74.313 381.585 74.4668 381.438 74.6572C381.297 74.8477 381.226 75.0527 381.226 75.2725H379.871C379.871 74.9893 379.944 74.7085 380.091 74.4302C380.237 74.1519 380.447 73.9004 380.721 73.6758C380.999 73.4463 381.331 73.2656 381.717 73.1338C382.107 72.9971 382.542 72.9287 383.021 72.9287C383.597 72.9287 384.104 73.0264 384.544 73.2217C384.988 73.417 385.335 73.7124 385.584 74.1079C385.838 74.4985 385.965 74.9893 385.965 75.5801V79.2715C385.965 79.5352 385.987 79.8159 386.031 80.1138C386.08 80.4116 386.15 80.668 386.243 80.8828V81H384.83C384.761 80.8438 384.708 80.6362 384.668 80.3774C384.629 80.1138 384.61 79.8696 384.61 79.645ZM384.844 76.1953L384.859 77.1475H383.489C383.104 77.1475 382.759 77.1792 382.457 77.2427C382.154 77.3013 381.9 77.3916 381.695 77.5137C381.49 77.6357 381.333 77.7896 381.226 77.9751C381.119 78.1558 381.065 78.3682 381.065 78.6123C381.065 78.8613 381.121 79.0884 381.233 79.2935C381.346 79.4985 381.514 79.6621 381.739 79.7842C381.968 79.9014 382.249 79.96 382.581 79.96C382.996 79.96 383.362 79.8721 383.68 79.6963C383.997 79.5205 384.249 79.3057 384.434 79.0518C384.625 78.7979 384.727 78.5513 384.742 78.312L385.32 78.9639C385.286 79.1689 385.193 79.396 385.042 79.645C384.891 79.894 384.688 80.1333 384.434 80.3628C384.185 80.5874 383.887 80.7754 383.541 80.9268C383.199 81.0732 382.813 81.1465 382.383 81.1465C381.846 81.1465 381.375 81.0415 380.97 80.8315C380.569 80.6216 380.257 80.3408 380.032 79.9893C379.812 79.6328 379.703 79.2349 379.703 78.7954C379.703 78.3706 379.786 77.9971 379.952 77.6748C380.118 77.3477 380.357 77.0767 380.669 76.8618C380.982 76.6421 381.358 76.4761 381.797 76.3638C382.237 76.2515 382.728 76.1953 383.27 76.1953H384.844ZM392.71 78.8979C392.71 78.7026 392.667 78.522 392.579 78.356C392.496 78.1851 392.322 78.0312 392.059 77.8945C391.8 77.7529 391.409 77.6309 390.887 77.5283C390.447 77.4355 390.049 77.3257 389.693 77.1987C389.341 77.0718 389.041 76.918 388.792 76.7373C388.548 76.5566 388.36 76.3442 388.228 76.1001C388.096 75.856 388.03 75.5703 388.03 75.2432C388.03 74.9307 388.099 74.6353 388.235 74.3569C388.377 74.0786 388.575 73.832 388.829 73.6172C389.087 73.4023 389.397 73.2339 389.759 73.1118C390.12 72.9897 390.523 72.9287 390.967 72.9287C391.602 72.9287 392.144 73.041 392.593 73.2656C393.042 73.4902 393.387 73.7905 393.626 74.1665C393.865 74.5376 393.985 74.9502 393.985 75.4043H392.63C392.63 75.1846 392.564 74.9722 392.432 74.7671C392.305 74.5571 392.117 74.3838 391.868 74.2471C391.624 74.1104 391.324 74.042 390.967 74.042C390.591 74.042 390.286 74.1006 390.052 74.2178C389.822 74.3301 389.654 74.4741 389.546 74.6499C389.444 74.8257 389.393 75.0112 389.393 75.2065C389.393 75.353 389.417 75.4849 389.466 75.6021C389.52 75.7144 389.612 75.8193 389.744 75.917C389.876 76.0098 390.062 76.0977 390.301 76.1807C390.54 76.2637 390.845 76.3467 391.216 76.4297C391.866 76.5762 392.4 76.752 392.82 76.957C393.24 77.1621 393.553 77.4136 393.758 77.7114C393.963 78.0093 394.065 78.3706 394.065 78.7954C394.065 79.1421 393.992 79.4595 393.846 79.7476C393.704 80.0356 393.497 80.2847 393.223 80.4946C392.955 80.6997 392.632 80.8608 392.256 80.978C391.885 81.0903 391.468 81.1465 391.004 81.1465C390.306 81.1465 389.715 81.022 389.231 80.7729C388.748 80.5239 388.382 80.2017 388.133 79.8062C387.884 79.4106 387.759 78.9932 387.759 78.5537H389.122C389.141 78.9248 389.249 79.2202 389.444 79.4399C389.639 79.6548 389.878 79.8086 390.162 79.9014C390.445 79.9893 390.726 80.0332 391.004 80.0332C391.375 80.0332 391.685 79.9844 391.934 79.8867C392.188 79.7891 392.381 79.6548 392.513 79.4839C392.645 79.313 392.71 79.1177 392.71 78.8979ZM399.134 81.1465C398.582 81.1465 398.082 81.0537 397.632 80.8682C397.188 80.6777 396.805 80.4116 396.482 80.0698C396.165 79.728 395.921 79.3228 395.75 78.854C395.579 78.3853 395.494 77.8726 395.494 77.3159V77.0083C395.494 76.3638 395.589 75.79 395.779 75.2871C395.97 74.7793 396.229 74.3496 396.556 73.998C396.883 73.6465 397.254 73.3804 397.669 73.1997C398.084 73.019 398.514 72.9287 398.958 72.9287C399.524 72.9287 400.013 73.0264 400.423 73.2217C400.838 73.417 401.177 73.6904 401.441 74.042C401.705 74.3887 401.9 74.7988 402.027 75.2725C402.154 75.7412 402.217 76.2539 402.217 76.8105V77.4185H396.299V76.3125H400.862V76.21C400.843 75.8584 400.77 75.5166 400.643 75.1846C400.521 74.8525 400.325 74.5791 400.057 74.3643C399.788 74.1494 399.422 74.042 398.958 74.042C398.65 74.042 398.367 74.1079 398.108 74.2397C397.85 74.3667 397.627 74.5571 397.442 74.811C397.256 75.0649 397.112 75.375 397.01 75.7412C396.907 76.1074 396.856 76.5298 396.856 77.0083V77.3159C396.856 77.6919 396.907 78.0459 397.01 78.3779C397.117 78.7051 397.271 78.9932 397.471 79.2422C397.676 79.4912 397.923 79.6865 398.211 79.8281C398.504 79.9697 398.836 80.0405 399.207 80.0405C399.686 80.0405 400.091 79.9429 400.423 79.7476C400.755 79.5522 401.045 79.291 401.294 78.9639L402.115 79.6157C401.944 79.8745 401.727 80.1211 401.463 80.3555C401.199 80.5898 400.875 80.7803 400.489 80.9268C400.108 81.0732 399.656 81.1465 399.134 81.1465Z" fill="#4C4C4C"/>
<path d="M169.5 98C171.375 98.026 173.055 98.4818 174.539 99.3672C176.049 100.253 177.247 101.451 178.133 102.961C179.018 104.445 179.474 106.125 179.5 108C179.474 109.875 179.018 111.555 178.133 113.039C177.247 114.549 176.049 115.747 174.539 116.633C173.055 117.518 171.375 117.974 169.5 118C167.625 117.974 165.945 117.518 164.461 116.633C162.951 115.747 161.753 114.549 160.867 113.039C159.982 111.555 159.526 109.875 159.5 108C159.526 106.125 159.982 104.445 160.867 102.961C161.753 101.451 162.951 100.253 164.461 99.3672C165.945 98.4818 167.625 98.026 169.5 98ZM169.5 116.125C169.656 116.151 169.904 116.034 170.242 115.773C170.555 115.539 170.932 115.031 171.375 114.25C171.688 113.547 171.974 112.714 172.234 111.75H166.766C167 112.714 167.286 113.547 167.625 114.25C168.042 115.031 168.419 115.539 168.758 115.773C169.096 116.034 169.344 116.151 169.5 116.125ZM166.492 109.875H172.547C172.599 109.276 172.625 108.651 172.625 108C172.625 107.349 172.599 106.724 172.547 106.125H166.492C166.414 106.724 166.375 107.349 166.375 108C166.375 108.651 166.414 109.276 166.492 109.875ZM172.234 104.25C171.974 103.286 171.688 102.453 171.375 101.75C170.932 100.969 170.555 100.461 170.242 100.227C169.904 99.9661 169.656 99.849 169.5 99.875C169.344 99.849 169.096 99.9661 168.758 100.227C168.419 100.461 168.042 100.969 167.625 101.75C167.286 102.453 167 103.286 166.766 104.25H172.234ZM174.422 106.125C174.474 106.724 174.5 107.349 174.5 108C174.5 108.651 174.474 109.276 174.422 109.875H177.391C177.547 109.276 177.625 108.651 177.625 108C177.625 107.349 177.547 106.724 177.391 106.125H174.422ZM172.859 100.617C173.406 101.633 173.836 102.844 174.148 104.25H176.727C175.841 102.609 174.552 101.398 172.859 100.617ZM166.141 100.617C164.448 101.398 163.159 102.609 162.273 104.25H164.852C165.164 102.844 165.594 101.633 166.141 100.617ZM161.375 108C161.375 108.651 161.453 109.276 161.609 109.875H164.578C164.526 109.276 164.5 108.651 164.5 108C164.5 107.349 164.526 106.724 164.578 106.125H161.609C161.453 106.724 161.375 107.349 161.375 108ZM176.727 111.75H174.148C173.862 113.156 173.432 114.367 172.859 115.383C174.552 114.602 175.841 113.391 176.727 111.75ZM164.852 111.75H162.273C163.159 113.391 164.448 114.602 166.141 115.383C165.594 114.367 165.164 113.156 164.852 111.75Z" fill="#4C4C4C"/>
<path d="M191.185 102.336H192.554L196.048 111.03L199.534 102.336H200.911L196.575 113H195.506L191.185 102.336ZM190.738 102.336H191.946L192.144 108.84V113H190.738V102.336ZM200.142 102.336H201.351V113H199.944V108.84L200.142 102.336ZM205.101 105.075V113H203.738V105.075H205.101ZM203.636 102.973C203.636 102.753 203.702 102.568 203.833 102.417C203.97 102.265 204.17 102.189 204.434 102.189C204.693 102.189 204.891 102.265 205.027 102.417C205.169 102.568 205.24 102.753 205.24 102.973C205.24 103.183 205.169 103.364 205.027 103.515C204.891 103.662 204.693 103.735 204.434 103.735C204.17 103.735 203.97 103.662 203.833 103.515C203.702 103.364 203.636 103.183 203.636 102.973ZM208.748 101.75V113H207.386V101.75H208.748ZM212.396 101.75V113H211.033V101.75H212.396ZM216.043 105.075V113H214.681V105.075H216.043ZM214.578 102.973C214.578 102.753 214.644 102.568 214.776 102.417C214.913 102.265 215.113 102.189 215.376 102.189C215.635 102.189 215.833 102.265 215.97 102.417C216.111 102.568 216.182 102.753 216.182 102.973C216.182 103.183 216.111 103.364 215.97 103.515C215.833 103.662 215.635 103.735 215.376 103.735C215.113 103.735 214.913 103.662 214.776 103.515C214.644 103.364 214.578 103.183 214.578 102.973ZM217.859 109.125V108.957C217.859 108.386 217.942 107.856 218.108 107.368C218.274 106.875 218.514 106.447 218.826 106.086C219.139 105.72 219.517 105.437 219.961 105.236C220.406 105.031 220.904 104.929 221.456 104.929C222.012 104.929 222.513 105.031 222.957 105.236C223.406 105.437 223.787 105.72 224.1 106.086C224.417 106.447 224.659 106.875 224.825 107.368C224.991 107.856 225.074 108.386 225.074 108.957V109.125C225.074 109.697 224.991 110.227 224.825 110.715C224.659 111.203 224.417 111.63 224.1 111.997C223.787 112.358 223.409 112.641 222.964 112.846C222.525 113.046 222.027 113.146 221.47 113.146C220.914 113.146 220.413 113.046 219.969 112.846C219.524 112.641 219.144 112.358 218.826 111.997C218.514 111.63 218.274 111.203 218.108 110.715C217.942 110.227 217.859 109.697 217.859 109.125ZM219.214 108.957V109.125C219.214 109.521 219.261 109.895 219.354 110.246C219.446 110.593 219.585 110.9 219.771 111.169C219.961 111.438 220.198 111.65 220.481 111.806C220.765 111.958 221.094 112.033 221.47 112.033C221.841 112.033 222.166 111.958 222.444 111.806C222.728 111.65 222.962 111.438 223.147 111.169C223.333 110.9 223.472 110.593 223.565 110.246C223.663 109.895 223.711 109.521 223.711 109.125V108.957C223.711 108.566 223.663 108.198 223.565 107.851C223.472 107.5 223.331 107.189 223.14 106.921C222.955 106.647 222.72 106.433 222.437 106.276C222.159 106.12 221.832 106.042 221.456 106.042C221.084 106.042 220.757 106.12 220.474 106.276C220.196 106.433 219.961 106.647 219.771 106.921C219.585 107.189 219.446 107.5 219.354 107.851C219.261 108.198 219.214 108.566 219.214 108.957ZM228.128 106.767V113H226.773V105.075H228.055L228.128 106.767ZM227.806 108.737L227.242 108.715C227.247 108.173 227.327 107.673 227.483 107.214C227.64 106.75 227.859 106.347 228.143 106.005C228.426 105.664 228.763 105.4 229.153 105.214C229.549 105.024 229.986 104.929 230.464 104.929C230.855 104.929 231.207 104.982 231.519 105.09C231.832 105.192 232.098 105.358 232.317 105.588C232.542 105.817 232.713 106.115 232.83 106.481C232.947 106.843 233.006 107.285 233.006 107.807V113H231.644V107.792C231.644 107.377 231.583 107.045 231.46 106.796C231.338 106.542 231.16 106.359 230.926 106.247C230.691 106.13 230.403 106.071 230.062 106.071C229.725 106.071 229.417 106.142 229.139 106.284C228.865 106.425 228.628 106.621 228.428 106.87C228.233 107.119 228.079 107.404 227.967 107.727C227.859 108.044 227.806 108.381 227.806 108.737ZM239.678 110.898C239.678 110.703 239.634 110.522 239.546 110.356C239.463 110.185 239.29 110.031 239.026 109.895C238.768 109.753 238.377 109.631 237.854 109.528C237.415 109.436 237.017 109.326 236.661 109.199C236.309 109.072 236.009 108.918 235.76 108.737C235.516 108.557 235.328 108.344 235.196 108.1C235.064 107.856 234.998 107.57 234.998 107.243C234.998 106.931 235.066 106.635 235.203 106.357C235.345 106.079 235.542 105.832 235.796 105.617C236.055 105.402 236.365 105.234 236.727 105.112C237.088 104.99 237.491 104.929 237.935 104.929C238.57 104.929 239.112 105.041 239.561 105.266C240.01 105.49 240.354 105.791 240.594 106.167C240.833 106.538 240.953 106.95 240.953 107.404H239.598C239.598 107.185 239.532 106.972 239.4 106.767C239.273 106.557 239.085 106.384 238.836 106.247C238.592 106.11 238.292 106.042 237.935 106.042C237.559 106.042 237.254 106.101 237.02 106.218C236.79 106.33 236.622 106.474 236.514 106.65C236.412 106.826 236.36 107.011 236.36 107.207C236.36 107.353 236.385 107.485 236.434 107.602C236.487 107.714 236.58 107.819 236.712 107.917C236.844 108.01 237.029 108.098 237.269 108.181C237.508 108.264 237.813 108.347 238.184 108.43C238.833 108.576 239.368 108.752 239.788 108.957C240.208 109.162 240.521 109.414 240.726 109.711C240.931 110.009 241.033 110.371 241.033 110.795C241.033 111.142 240.96 111.459 240.813 111.748C240.672 112.036 240.464 112.285 240.191 112.495C239.922 112.7 239.6 112.861 239.224 112.978C238.853 113.09 238.436 113.146 237.972 113.146C237.273 113.146 236.683 113.022 236.199 112.773C235.716 112.524 235.35 112.202 235.101 111.806C234.852 111.411 234.727 110.993 234.727 110.554H236.089C236.109 110.925 236.216 111.22 236.412 111.44C236.607 111.655 236.846 111.809 237.129 111.901C237.413 111.989 237.693 112.033 237.972 112.033C238.343 112.033 238.653 111.984 238.902 111.887C239.156 111.789 239.349 111.655 239.48 111.484C239.612 111.313 239.678 111.118 239.678 110.898ZM246.175 109.125V108.957C246.175 108.386 246.258 107.856 246.424 107.368C246.59 106.875 246.829 106.447 247.142 106.086C247.454 105.72 247.833 105.437 248.277 105.236C248.721 105.031 249.219 104.929 249.771 104.929C250.328 104.929 250.828 105.031 251.272 105.236C251.722 105.437 252.103 105.72 252.415 106.086C252.732 106.447 252.974 106.875 253.14 107.368C253.306 107.856 253.389 108.386 253.389 108.957V109.125C253.389 109.697 253.306 110.227 253.14 110.715C252.974 111.203 252.732 111.63 252.415 111.997C252.103 112.358 251.724 112.641 251.28 112.846C250.84 113.046 250.342 113.146 249.786 113.146C249.229 113.146 248.729 113.046 248.284 112.846C247.84 112.641 247.459 112.358 247.142 111.997C246.829 111.63 246.59 111.203 246.424 110.715C246.258 110.227 246.175 109.697 246.175 109.125ZM247.53 108.957V109.125C247.53 109.521 247.576 109.895 247.669 110.246C247.762 110.593 247.901 110.9 248.086 111.169C248.277 111.438 248.514 111.65 248.797 111.806C249.08 111.958 249.41 112.033 249.786 112.033C250.157 112.033 250.481 111.958 250.76 111.806C251.043 111.65 251.277 111.438 251.463 111.169C251.648 110.9 251.788 110.593 251.88 110.246C251.978 109.895 252.027 109.521 252.027 109.125V108.957C252.027 108.566 251.978 108.198 251.88 107.851C251.788 107.5 251.646 107.189 251.456 106.921C251.27 106.647 251.036 106.433 250.752 106.276C250.474 106.12 250.147 106.042 249.771 106.042C249.4 106.042 249.073 106.12 248.79 106.276C248.511 106.433 248.277 106.647 248.086 106.921C247.901 107.189 247.762 107.5 247.669 107.851C247.576 108.198 247.53 108.566 247.53 108.957ZM257.11 113H255.755V104.24C255.755 103.669 255.857 103.188 256.062 102.797C256.272 102.402 256.573 102.104 256.963 101.904C257.354 101.699 257.818 101.596 258.355 101.596C258.511 101.596 258.667 101.606 258.824 101.625C258.985 101.645 259.141 101.674 259.292 101.713L259.219 102.819C259.117 102.795 259 102.778 258.868 102.768C258.741 102.758 258.614 102.753 258.487 102.753C258.199 102.753 257.95 102.812 257.74 102.929C257.535 103.042 257.378 103.208 257.271 103.427C257.164 103.647 257.11 103.918 257.11 104.24V113ZM258.794 105.075V106.115H254.502V105.075H258.794ZM265.745 102.336V113H264.332V102.336H265.745ZM272.249 108.818H269.4V107.668H272.249C272.801 107.668 273.248 107.58 273.589 107.404C273.931 107.229 274.18 106.984 274.336 106.672C274.498 106.359 274.578 106.003 274.578 105.603C274.578 105.236 274.498 104.892 274.336 104.57C274.18 104.248 273.931 103.989 273.589 103.793C273.248 103.593 272.801 103.493 272.249 103.493H269.729V113H268.316V102.336H272.249C273.055 102.336 273.736 102.475 274.292 102.753C274.849 103.032 275.271 103.417 275.56 103.911C275.848 104.399 275.992 104.958 275.992 105.588C275.992 106.271 275.848 106.855 275.56 107.338C275.271 107.822 274.849 108.19 274.292 108.444C273.736 108.693 273.055 108.818 272.249 108.818ZM282.188 110.898C282.188 110.703 282.144 110.522 282.056 110.356C281.973 110.185 281.8 110.031 281.536 109.895C281.277 109.753 280.887 109.631 280.364 109.528C279.925 109.436 279.527 109.326 279.17 109.199C278.819 109.072 278.519 108.918 278.27 108.737C278.025 108.557 277.837 108.344 277.706 108.1C277.574 107.856 277.508 107.57 277.508 107.243C277.508 106.931 277.576 106.635 277.713 106.357C277.854 106.079 278.052 105.832 278.306 105.617C278.565 105.402 278.875 105.234 279.236 105.112C279.598 104.99 280 104.929 280.445 104.929C281.08 104.929 281.622 105.041 282.071 105.266C282.52 105.49 282.864 105.791 283.104 106.167C283.343 106.538 283.462 106.95 283.462 107.404H282.107C282.107 107.185 282.042 106.972 281.91 106.767C281.783 106.557 281.595 106.384 281.346 106.247C281.102 106.11 280.801 106.042 280.445 106.042C280.069 106.042 279.764 106.101 279.529 106.218C279.3 106.33 279.131 106.474 279.024 106.65C278.921 106.826 278.87 107.011 278.87 107.207C278.87 107.353 278.895 107.485 278.943 107.602C278.997 107.714 279.09 107.819 279.222 107.917C279.354 108.01 279.539 108.098 279.778 108.181C280.018 108.264 280.323 108.347 280.694 108.43C281.343 108.576 281.878 108.752 282.298 108.957C282.718 109.162 283.03 109.414 283.235 109.711C283.44 110.009 283.543 110.371 283.543 110.795C283.543 111.142 283.47 111.459 283.323 111.748C283.182 112.036 282.974 112.285 282.701 112.495C282.432 112.7 282.11 112.861 281.734 112.978C281.363 113.09 280.945 113.146 280.481 113.146C279.783 113.146 279.192 113.022 278.709 112.773C278.226 112.524 277.859 112.202 277.61 111.806C277.361 111.411 277.237 110.993 277.237 110.554H278.599C278.619 110.925 278.726 111.22 278.921 111.44C279.117 111.655 279.356 111.809 279.639 111.901C279.922 111.989 280.203 112.033 280.481 112.033C280.853 112.033 281.163 111.984 281.412 111.887C281.666 111.789 281.858 111.655 281.99 111.484C282.122 111.313 282.188 111.118 282.188 110.898ZM295.687 109.609H297.093C297.02 110.283 296.827 110.886 296.514 111.418C296.202 111.95 295.76 112.373 295.188 112.685C294.617 112.993 293.904 113.146 293.05 113.146C292.425 113.146 291.856 113.029 291.343 112.795C290.835 112.561 290.398 112.229 290.032 111.799C289.666 111.364 289.383 110.844 289.183 110.239C288.987 109.628 288.89 108.95 288.89 108.203V107.141C288.89 106.394 288.987 105.717 289.183 105.112C289.383 104.501 289.668 103.979 290.04 103.544C290.416 103.11 290.867 102.775 291.395 102.541C291.922 102.307 292.515 102.189 293.174 102.189C293.98 102.189 294.661 102.341 295.218 102.644C295.774 102.946 296.207 103.366 296.514 103.903C296.827 104.436 297.02 105.053 297.093 105.756H295.687C295.618 105.258 295.491 104.831 295.306 104.475C295.12 104.113 294.856 103.835 294.515 103.64C294.173 103.444 293.726 103.347 293.174 103.347C292.701 103.347 292.283 103.437 291.922 103.618C291.565 103.798 291.265 104.055 291.021 104.387C290.782 104.719 290.601 105.117 290.479 105.581C290.357 106.044 290.296 106.56 290.296 107.126V108.203C290.296 108.725 290.35 109.216 290.457 109.675C290.569 110.134 290.738 110.537 290.962 110.883C291.187 111.23 291.473 111.503 291.819 111.704C292.166 111.899 292.576 111.997 293.05 111.997C293.65 111.997 294.129 111.901 294.485 111.711C294.842 111.521 295.11 111.247 295.291 110.891C295.477 110.534 295.608 110.107 295.687 109.609ZM300.169 101.75V113H298.814V101.75H300.169ZM299.847 108.737L299.283 108.715C299.288 108.173 299.368 107.673 299.524 107.214C299.681 106.75 299.9 106.347 300.184 106.005C300.467 105.664 300.804 105.4 301.194 105.214C301.59 105.024 302.027 104.929 302.505 104.929C302.896 104.929 303.248 104.982 303.56 105.09C303.873 105.192 304.139 105.358 304.358 105.588C304.583 105.817 304.754 106.115 304.871 106.481C304.988 106.843 305.047 107.285 305.047 107.807V113H303.685V107.792C303.685 107.377 303.624 107.045 303.501 106.796C303.379 106.542 303.201 106.359 302.967 106.247C302.732 106.13 302.444 106.071 302.103 106.071C301.766 106.071 301.458 106.142 301.18 106.284C300.906 106.425 300.669 106.621 300.469 106.87C300.274 107.119 300.12 107.404 300.008 107.727C299.9 108.044 299.847 108.381 299.847 108.737ZM310.364 113.146C309.812 113.146 309.312 113.054 308.863 112.868C308.418 112.678 308.035 112.412 307.713 112.07C307.396 111.728 307.151 111.323 306.98 110.854C306.81 110.385 306.724 109.873 306.724 109.316V109.008C306.724 108.364 306.819 107.79 307.01 107.287C307.2 106.779 307.459 106.35 307.786 105.998C308.113 105.646 308.484 105.38 308.899 105.2C309.314 105.019 309.744 104.929 310.188 104.929C310.755 104.929 311.243 105.026 311.653 105.222C312.068 105.417 312.408 105.69 312.671 106.042C312.935 106.389 313.13 106.799 313.257 107.272C313.384 107.741 313.448 108.254 313.448 108.811V109.418H307.53V108.312H312.093V108.21C312.073 107.858 312 107.517 311.873 107.185C311.751 106.853 311.556 106.579 311.287 106.364C311.019 106.149 310.652 106.042 310.188 106.042C309.881 106.042 309.598 106.108 309.339 106.24C309.08 106.367 308.858 106.557 308.672 106.811C308.487 107.065 308.343 107.375 308.24 107.741C308.138 108.107 308.086 108.53 308.086 109.008V109.316C308.086 109.692 308.138 110.046 308.24 110.378C308.348 110.705 308.501 110.993 308.702 111.242C308.907 111.491 309.153 111.687 309.441 111.828C309.734 111.97 310.066 112.041 310.438 112.041C310.916 112.041 311.321 111.943 311.653 111.748C311.985 111.552 312.276 111.291 312.525 110.964L313.345 111.616C313.174 111.875 312.957 112.121 312.693 112.355C312.43 112.59 312.105 112.78 311.719 112.927C311.338 113.073 310.887 113.146 310.364 113.146ZM318.201 112.033C318.523 112.033 318.821 111.967 319.095 111.835C319.368 111.704 319.593 111.523 319.769 111.293C319.944 111.059 320.044 110.793 320.069 110.495H321.358C321.333 110.964 321.175 111.401 320.882 111.806C320.594 112.207 320.215 112.531 319.747 112.78C319.278 113.024 318.763 113.146 318.201 113.146C317.605 113.146 317.085 113.042 316.641 112.832C316.202 112.622 315.835 112.333 315.542 111.967C315.254 111.601 315.037 111.181 314.891 110.708C314.749 110.229 314.678 109.724 314.678 109.191V108.884C314.678 108.352 314.749 107.849 314.891 107.375C315.037 106.896 315.254 106.474 315.542 106.108C315.835 105.742 316.202 105.454 316.641 105.244C317.085 105.034 317.605 104.929 318.201 104.929C318.821 104.929 319.363 105.056 319.827 105.31C320.291 105.559 320.655 105.9 320.918 106.335C321.187 106.765 321.333 107.253 321.358 107.8H320.069C320.044 107.473 319.952 107.177 319.791 106.914C319.634 106.65 319.419 106.44 319.146 106.284C318.877 106.123 318.562 106.042 318.201 106.042C317.786 106.042 317.437 106.125 317.154 106.291C316.875 106.452 316.653 106.672 316.487 106.95C316.326 107.224 316.209 107.529 316.136 107.866C316.067 108.198 316.033 108.537 316.033 108.884V109.191C316.033 109.538 316.067 109.88 316.136 110.217C316.204 110.554 316.319 110.859 316.48 111.132C316.646 111.406 316.868 111.625 317.146 111.792C317.43 111.953 317.781 112.033 318.201 112.033ZM324.244 101.75V113H322.881V101.75H324.244ZM329.085 105.075L325.628 108.774L323.694 110.781L323.584 109.338L324.969 107.683L327.43 105.075H329.085ZM327.847 113L325.02 109.221L325.723 108.012L329.444 113H327.847ZM333.626 113.146C333.074 113.146 332.574 113.054 332.125 112.868C331.68 112.678 331.297 112.412 330.975 112.07C330.657 111.728 330.413 111.323 330.242 110.854C330.071 110.385 329.986 109.873 329.986 109.316V109.008C329.986 108.364 330.081 107.79 330.271 107.287C330.462 106.779 330.721 106.35 331.048 105.998C331.375 105.646 331.746 105.38 332.161 105.2C332.576 105.019 333.006 104.929 333.45 104.929C334.017 104.929 334.505 105.026 334.915 105.222C335.33 105.417 335.669 105.69 335.933 106.042C336.197 106.389 336.392 106.799 336.519 107.272C336.646 107.741 336.709 108.254 336.709 108.811V109.418H330.792V108.312H335.354V108.21C335.335 107.858 335.262 107.517 335.135 107.185C335.013 106.853 334.817 106.579 334.549 106.364C334.28 106.149 333.914 106.042 333.45 106.042C333.143 106.042 332.859 106.108 332.601 106.24C332.342 106.367 332.12 106.557 331.934 106.811C331.749 107.065 331.604 107.375 331.502 107.741C331.399 108.107 331.348 108.53 331.348 109.008V109.316C331.348 109.692 331.399 110.046 331.502 110.378C331.609 110.705 331.763 110.993 331.963 111.242C332.168 111.491 332.415 111.687 332.703 111.828C332.996 111.97 333.328 112.041 333.699 112.041C334.178 112.041 334.583 111.943 334.915 111.748C335.247 111.552 335.538 111.291 335.787 110.964L336.607 111.616C336.436 111.875 336.219 112.121 335.955 112.355C335.691 112.59 335.367 112.78 334.981 112.927C334.6 113.073 334.148 113.146 333.626 113.146ZM343.287 111.462V101.75H344.649V113H343.404L343.287 111.462ZM337.955 109.125V108.972C337.955 108.366 338.028 107.817 338.174 107.324C338.326 106.826 338.538 106.398 338.812 106.042C339.09 105.686 339.419 105.412 339.8 105.222C340.186 105.026 340.616 104.929 341.089 104.929C341.587 104.929 342.022 105.017 342.393 105.192C342.769 105.363 343.086 105.615 343.345 105.947C343.609 106.274 343.816 106.669 343.968 107.133C344.119 107.597 344.224 108.122 344.283 108.708V109.382C344.229 109.963 344.124 110.485 343.968 110.949C343.816 111.413 343.609 111.809 343.345 112.136C343.086 112.463 342.769 112.714 342.393 112.89C342.017 113.061 341.578 113.146 341.075 113.146C340.611 113.146 340.186 113.046 339.8 112.846C339.419 112.646 339.09 112.365 338.812 112.004C338.538 111.643 338.326 111.218 338.174 110.729C338.028 110.236 337.955 109.702 337.955 109.125ZM339.317 108.972V109.125C339.317 109.521 339.356 109.892 339.434 110.239C339.517 110.585 339.644 110.891 339.815 111.154C339.986 111.418 340.203 111.625 340.467 111.777C340.73 111.923 341.045 111.997 341.412 111.997C341.861 111.997 342.229 111.901 342.518 111.711C342.811 111.521 343.045 111.269 343.221 110.957C343.396 110.644 343.533 110.305 343.631 109.938V108.173C343.572 107.905 343.487 107.646 343.375 107.397C343.267 107.143 343.125 106.918 342.95 106.723C342.779 106.523 342.566 106.364 342.312 106.247C342.063 106.13 341.768 106.071 341.426 106.071C341.055 106.071 340.735 106.149 340.467 106.306C340.203 106.457 339.986 106.667 339.815 106.936C339.644 107.199 339.517 107.507 339.434 107.858C339.356 108.205 339.317 108.576 339.317 108.972ZM353.57 113H351.343L351.358 111.85H353.57C354.332 111.85 354.966 111.691 355.474 111.374C355.982 111.052 356.363 110.603 356.617 110.026C356.875 109.445 357.005 108.767 357.005 107.99V107.338C357.005 106.728 356.932 106.186 356.785 105.712C356.639 105.234 356.424 104.831 356.141 104.504C355.857 104.172 355.511 103.92 355.101 103.75C354.695 103.579 354.229 103.493 353.702 103.493H351.299V102.336H353.702C354.4 102.336 355.037 102.453 355.613 102.688C356.189 102.917 356.685 103.251 357.1 103.691C357.52 104.125 357.842 104.653 358.067 105.273C358.292 105.888 358.404 106.582 358.404 107.353V107.99C358.404 108.762 358.292 109.458 358.067 110.078C357.842 110.693 357.518 111.218 357.093 111.652C356.673 112.087 356.165 112.421 355.569 112.656C354.979 112.885 354.312 113 353.57 113ZM352.098 102.336V113H350.684V102.336H352.098ZM364.996 111.645V107.565C364.996 107.253 364.932 106.982 364.805 106.752C364.683 106.518 364.498 106.337 364.249 106.21C364 106.083 363.692 106.02 363.326 106.02C362.984 106.02 362.684 106.079 362.425 106.196C362.171 106.313 361.971 106.467 361.824 106.657C361.683 106.848 361.612 107.053 361.612 107.272H360.257C360.257 106.989 360.33 106.708 360.477 106.43C360.623 106.152 360.833 105.9 361.106 105.676C361.385 105.446 361.717 105.266 362.103 105.134C362.493 104.997 362.928 104.929 363.406 104.929C363.982 104.929 364.49 105.026 364.93 105.222C365.374 105.417 365.721 105.712 365.97 106.108C366.224 106.499 366.351 106.989 366.351 107.58V111.271C366.351 111.535 366.373 111.816 366.417 112.114C366.465 112.412 366.536 112.668 366.629 112.883V113H365.215C365.147 112.844 365.093 112.636 365.054 112.377C365.015 112.114 364.996 111.87 364.996 111.645ZM365.23 108.195L365.245 109.147H363.875C363.489 109.147 363.145 109.179 362.842 109.243C362.54 109.301 362.286 109.392 362.081 109.514C361.875 109.636 361.719 109.79 361.612 109.975C361.504 110.156 361.451 110.368 361.451 110.612C361.451 110.861 361.507 111.088 361.619 111.293C361.731 111.499 361.9 111.662 362.125 111.784C362.354 111.901 362.635 111.96 362.967 111.96C363.382 111.96 363.748 111.872 364.065 111.696C364.383 111.521 364.634 111.306 364.82 111.052C365.01 110.798 365.113 110.551 365.127 110.312L365.706 110.964C365.672 111.169 365.579 111.396 365.428 111.645C365.276 111.894 365.074 112.133 364.82 112.363C364.571 112.587 364.273 112.775 363.926 112.927C363.584 113.073 363.199 113.146 362.769 113.146C362.232 113.146 361.761 113.042 361.355 112.832C360.955 112.622 360.643 112.341 360.418 111.989C360.198 111.633 360.088 111.235 360.088 110.795C360.088 110.371 360.171 109.997 360.337 109.675C360.503 109.348 360.743 109.077 361.055 108.862C361.368 108.642 361.744 108.476 362.183 108.364C362.623 108.251 363.113 108.195 363.655 108.195H365.23ZM369.954 105.075V113H368.592V105.075H369.954ZM368.489 102.973C368.489 102.753 368.555 102.568 368.687 102.417C368.824 102.265 369.024 102.189 369.288 102.189C369.546 102.189 369.744 102.265 369.881 102.417C370.022 102.568 370.093 102.753 370.093 102.973C370.093 103.183 370.022 103.364 369.881 103.515C369.744 103.662 369.546 103.735 369.288 103.735C369.024 103.735 368.824 103.662 368.687 103.515C368.555 103.364 368.489 103.183 368.489 102.973ZM373.602 101.75V113H372.239V101.75H373.602ZM378.003 112.18L380.208 105.075H381.658L378.479 114.223C378.406 114.418 378.309 114.628 378.187 114.853C378.069 115.083 377.918 115.3 377.732 115.505C377.547 115.71 377.322 115.876 377.059 116.003C376.8 116.135 376.49 116.201 376.128 116.201C376.021 116.201 375.884 116.186 375.718 116.157C375.552 116.127 375.435 116.103 375.367 116.083L375.359 114.985C375.398 114.99 375.459 114.995 375.542 115C375.63 115.009 375.691 115.014 375.726 115.014C376.033 115.014 376.294 114.973 376.509 114.89C376.724 114.812 376.905 114.677 377.051 114.487C377.203 114.301 377.332 114.045 377.439 113.718L378.003 112.18ZM376.385 105.075L378.443 111.228L378.794 112.656L377.82 113.154L374.905 105.075H376.385Z" fill="#4C4C4C"/>
</svg>
