<svg width="400" height="240" viewBox="0 0 400 240" fill="none" xmlns="http://www.w3.org/2000/svg">
<rect x="0.5" y="0.5" width="399" height="239" rx="15.5" fill="white"/>
<rect x="0.5" y="0.5" width="399" height="239" rx="15.5" stroke="#E6E6E6"/>
<path d="M141.447 82.2773V93H140.092V83.9692L137.36 84.9653V83.7422L141.234 82.2773H141.447ZM145.6 92.2822C145.6 92.0527 145.67 91.8599 145.812 91.7036C145.959 91.5425 146.169 91.4619 146.442 91.4619C146.715 91.4619 146.923 91.5425 147.065 91.7036C147.211 91.8599 147.284 92.0527 147.284 92.2822C147.284 92.5068 147.211 92.6973 147.065 92.8535C146.923 93.0098 146.715 93.0879 146.442 93.0879C146.169 93.0879 145.959 93.0098 145.812 92.8535C145.67 92.6973 145.6 92.5068 145.6 92.2822ZM161.205 91.8501V93H155.873V91.8501H161.205ZM156.151 82.3359V93H154.738V82.3359H156.151ZM164.091 85.0752V93H162.729V85.0752H164.091ZM162.626 82.9731C162.626 82.7534 162.692 82.5679 162.824 82.4165C162.96 82.2651 163.161 82.1895 163.424 82.1895C163.683 82.1895 163.881 82.2651 164.018 82.4165C164.159 82.5679 164.23 82.7534 164.23 82.9731C164.23 83.1831 164.159 83.3638 164.018 83.5151C163.881 83.6616 163.683 83.7349 163.424 83.7349C163.161 83.7349 162.96 83.6616 162.824 83.5151C162.692 83.3638 162.626 83.1831 162.626 82.9731ZM170.88 90.8979C170.88 90.7026 170.836 90.522 170.749 90.356C170.666 90.1851 170.492 90.0312 170.229 89.8945C169.97 89.7529 169.579 89.6309 169.057 89.5283C168.617 89.4355 168.219 89.3257 167.863 89.1987C167.511 89.0718 167.211 88.918 166.962 88.7373C166.718 88.5566 166.53 88.3442 166.398 88.1001C166.266 87.856 166.2 87.5703 166.2 87.2432C166.2 86.9307 166.269 86.6353 166.405 86.3569C166.547 86.0786 166.745 85.832 166.999 85.6172C167.257 85.4023 167.567 85.2339 167.929 85.1118C168.29 84.9897 168.693 84.9287 169.137 84.9287C169.772 84.9287 170.314 85.041 170.763 85.2656C171.212 85.4902 171.557 85.7905 171.796 86.1665C172.035 86.5376 172.155 86.9502 172.155 87.4043H170.8C170.8 87.1846 170.734 86.9722 170.602 86.7671C170.475 86.5571 170.287 86.3838 170.038 86.2471C169.794 86.1104 169.494 86.042 169.137 86.042C168.761 86.042 168.456 86.1006 168.222 86.2178C167.992 86.3301 167.824 86.4741 167.716 86.6499C167.614 86.8257 167.562 87.0112 167.562 87.2065C167.562 87.353 167.587 87.4849 167.636 87.6021C167.689 87.7144 167.782 87.8193 167.914 87.917C168.046 88.0098 168.231 88.0977 168.471 88.1807C168.71 88.2637 169.015 88.3467 169.386 88.4297C170.036 88.5762 170.57 88.752 170.99 88.957C171.41 89.1621 171.723 89.4136 171.928 89.7114C172.133 90.0093 172.235 90.3706 172.235 90.7954C172.235 91.1421 172.162 91.4595 172.016 91.7476C171.874 92.0356 171.667 92.2847 171.393 92.4946C171.125 92.6997 170.802 92.8608 170.426 92.978C170.055 93.0903 169.638 93.1465 169.174 93.1465C168.476 93.1465 167.885 93.022 167.401 92.7729C166.918 92.5239 166.552 92.2017 166.303 91.8062C166.054 91.4106 165.929 90.9932 165.929 90.5537H167.292C167.311 90.9248 167.418 91.2202 167.614 91.4399C167.809 91.6548 168.048 91.8086 168.332 91.9014C168.615 91.9893 168.896 92.0332 169.174 92.0332C169.545 92.0332 169.855 91.9844 170.104 91.8867C170.358 91.7891 170.551 91.6548 170.683 91.4839C170.814 91.313 170.88 91.1177 170.88 90.8979ZM177.333 85.0752V86.1152H173.048V85.0752H177.333ZM174.499 83.1489H175.854V91.0371C175.854 91.3057 175.895 91.5083 175.978 91.645C176.061 91.7817 176.168 91.8721 176.3 91.916C176.432 91.96 176.574 91.9819 176.725 91.9819C176.837 91.9819 176.955 91.9722 177.077 91.9526C177.204 91.9282 177.299 91.9087 177.362 91.894L177.37 93C177.262 93.0342 177.121 93.0659 176.945 93.0952C176.774 93.1294 176.566 93.1465 176.322 93.1465C175.99 93.1465 175.685 93.0806 175.407 92.9487C175.128 92.8169 174.906 92.5972 174.74 92.2896C174.579 91.9771 174.499 91.5571 174.499 91.0298V83.1489ZM184.115 85.0752V93H182.753V85.0752H184.115ZM182.65 82.9731C182.65 82.7534 182.716 82.5679 182.848 82.4165C182.985 82.2651 183.185 82.1895 183.449 82.1895C183.708 82.1895 183.905 82.2651 184.042 82.4165C184.184 82.5679 184.254 82.7534 184.254 82.9731C184.254 83.1831 184.184 83.3638 184.042 83.5151C183.905 83.6616 183.708 83.7349 183.449 83.7349C183.185 83.7349 182.985 83.6616 182.848 83.5151C182.716 83.3638 182.65 83.1831 182.65 82.9731ZM189.608 85.0752V86.1152H185.324V85.0752H189.608ZM186.774 83.1489H188.129V91.0371C188.129 91.3057 188.17 91.5083 188.253 91.645C188.336 91.7817 188.444 91.8721 188.576 91.916C188.708 91.96 188.849 91.9819 189 91.9819C189.113 91.9819 189.23 91.9722 189.352 91.9526C189.479 91.9282 189.574 91.9087 189.638 91.894L189.645 93C189.538 93.0342 189.396 93.0659 189.22 93.0952C189.049 93.1294 188.842 93.1465 188.598 93.1465C188.266 93.1465 187.96 93.0806 187.682 92.9487C187.404 92.8169 187.182 92.5972 187.016 92.2896C186.854 91.9771 186.774 91.5571 186.774 91.0298V83.1489ZM194.486 93.1465C193.935 93.1465 193.434 93.0537 192.985 92.8682C192.541 92.6777 192.157 92.4116 191.835 92.0698C191.518 91.728 191.273 91.3228 191.103 90.854C190.932 90.3853 190.846 89.8726 190.846 89.3159V89.0083C190.846 88.3638 190.941 87.79 191.132 87.2871C191.322 86.7793 191.581 86.3496 191.908 85.998C192.235 85.6465 192.606 85.3804 193.021 85.1997C193.437 85.019 193.866 84.9287 194.311 84.9287C194.877 84.9287 195.365 85.0264 195.775 85.2217C196.19 85.417 196.53 85.6904 196.793 86.042C197.057 86.3887 197.252 86.7988 197.379 87.2725C197.506 87.7412 197.57 88.2539 197.57 88.8105V89.4185H191.652V88.3125H196.215V88.21C196.195 87.8584 196.122 87.5166 195.995 87.1846C195.873 86.8525 195.678 86.5791 195.409 86.3643C195.141 86.1494 194.774 86.042 194.311 86.042C194.003 86.042 193.72 86.1079 193.461 86.2397C193.202 86.3667 192.98 86.5571 192.794 86.811C192.609 87.0649 192.465 87.375 192.362 87.7412C192.26 88.1074 192.208 88.5298 192.208 89.0083V89.3159C192.208 89.6919 192.26 90.0459 192.362 90.3779C192.47 90.7051 192.624 90.9932 192.824 91.2422C193.029 91.4912 193.275 91.6865 193.563 91.8281C193.856 91.9697 194.188 92.0405 194.56 92.0405C195.038 92.0405 195.443 91.9429 195.775 91.7476C196.107 91.5522 196.398 91.291 196.647 90.9639L197.467 91.6157C197.296 91.8745 197.079 92.1211 196.815 92.3555C196.552 92.5898 196.227 92.7803 195.841 92.9268C195.46 93.0732 195.009 93.1465 194.486 93.1465ZM200.5 86.6499V93H199.137V85.0752H200.426L200.5 86.6499ZM200.221 88.7373L199.591 88.7153C199.596 88.1733 199.667 87.6729 199.804 87.2139C199.94 86.75 200.143 86.3472 200.412 86.0054C200.68 85.6636 201.015 85.3999 201.415 85.2144C201.815 85.0239 202.279 84.9287 202.807 84.9287C203.178 84.9287 203.52 84.9824 203.832 85.0898C204.145 85.1924 204.416 85.356 204.645 85.5806C204.875 85.8052 205.053 86.0933 205.18 86.4448C205.307 86.7964 205.37 87.2212 205.37 87.7192V93H204.015V87.7852C204.015 87.3701 203.944 87.0381 203.803 86.7891C203.666 86.54 203.471 86.3594 203.217 86.2471C202.963 86.1299 202.665 86.0713 202.323 86.0713C201.923 86.0713 201.588 86.1421 201.32 86.2837C201.051 86.4253 200.836 86.6206 200.675 86.8696C200.514 87.1187 200.397 87.4043 200.324 87.7266C200.255 88.0439 200.221 88.3809 200.221 88.7373ZM205.355 87.9902L204.447 88.2686C204.452 87.834 204.523 87.4165 204.66 87.0161C204.801 86.6157 205.004 86.2593 205.268 85.9468C205.536 85.6343 205.866 85.3877 206.256 85.207C206.647 85.0215 207.094 84.9287 207.597 84.9287C208.021 84.9287 208.397 84.9849 208.725 85.0972C209.057 85.2095 209.335 85.3828 209.56 85.6172C209.789 85.8467 209.962 86.1421 210.08 86.5034C210.197 86.8647 210.255 87.2944 210.255 87.7925V93H208.893V87.7778C208.893 87.3335 208.822 86.9893 208.681 86.7451C208.544 86.4961 208.349 86.3228 208.095 86.2251C207.846 86.1226 207.548 86.0713 207.201 86.0713C206.903 86.0713 206.64 86.1226 206.41 86.2251C206.181 86.3276 205.988 86.4692 205.832 86.6499C205.675 86.8257 205.556 87.0283 205.473 87.2578C205.395 87.4873 205.355 87.7314 205.355 87.9902ZM220.333 82.2773V93H218.979V83.9692L216.247 84.9653V83.7422L220.121 82.2773H220.333ZM143.981 123.887V125H137.001V124.026L140.495 120.137C140.924 119.658 141.256 119.253 141.491 118.921C141.73 118.584 141.896 118.284 141.989 118.02C142.086 117.751 142.135 117.478 142.135 117.2C142.135 116.848 142.062 116.531 141.916 116.248C141.774 115.959 141.564 115.73 141.286 115.559C141.007 115.388 140.67 115.303 140.275 115.303C139.801 115.303 139.406 115.396 139.088 115.581C138.776 115.762 138.542 116.016 138.385 116.343C138.229 116.67 138.151 117.046 138.151 117.471H136.796C136.796 116.87 136.928 116.321 137.191 115.823C137.455 115.325 137.846 114.929 138.363 114.636C138.881 114.338 139.518 114.189 140.275 114.189C140.949 114.189 141.525 114.309 142.003 114.548C142.482 114.783 142.848 115.115 143.102 115.544C143.361 115.969 143.49 116.467 143.49 117.039C143.49 117.351 143.437 117.668 143.329 117.991C143.227 118.308 143.083 118.625 142.897 118.943C142.716 119.26 142.504 119.573 142.26 119.88C142.021 120.188 141.764 120.491 141.491 120.789L138.634 123.887H143.981ZM145.6 124.282C145.6 124.053 145.67 123.86 145.812 123.704C145.959 123.542 146.169 123.462 146.442 123.462C146.715 123.462 146.923 123.542 147.065 123.704C147.211 123.86 147.284 124.053 147.284 124.282C147.284 124.507 147.211 124.697 147.065 124.854C146.923 125.01 146.715 125.088 146.442 125.088C146.169 125.088 145.959 125.01 145.812 124.854C145.67 124.697 145.6 124.507 145.6 124.282ZM161.205 123.85V125H155.873V123.85H161.205ZM156.151 114.336V125H154.738V114.336H156.151ZM164.091 117.075V125H162.729V117.075H164.091ZM162.626 114.973C162.626 114.753 162.692 114.568 162.824 114.417C162.96 114.265 163.161 114.189 163.424 114.189C163.683 114.189 163.881 114.265 164.018 114.417C164.159 114.568 164.23 114.753 164.23 114.973C164.23 115.183 164.159 115.364 164.018 115.515C163.881 115.662 163.683 115.735 163.424 115.735C163.161 115.735 162.96 115.662 162.824 115.515C162.692 115.364 162.626 115.183 162.626 114.973ZM170.88 122.898C170.88 122.703 170.836 122.522 170.749 122.356C170.666 122.185 170.492 122.031 170.229 121.895C169.97 121.753 169.579 121.631 169.057 121.528C168.617 121.436 168.219 121.326 167.863 121.199C167.511 121.072 167.211 120.918 166.962 120.737C166.718 120.557 166.53 120.344 166.398 120.1C166.266 119.856 166.2 119.57 166.2 119.243C166.2 118.931 166.269 118.635 166.405 118.357C166.547 118.079 166.745 117.832 166.999 117.617C167.257 117.402 167.567 117.234 167.929 117.112C168.29 116.99 168.693 116.929 169.137 116.929C169.772 116.929 170.314 117.041 170.763 117.266C171.212 117.49 171.557 117.791 171.796 118.167C172.035 118.538 172.155 118.95 172.155 119.404H170.8C170.8 119.185 170.734 118.972 170.602 118.767C170.475 118.557 170.287 118.384 170.038 118.247C169.794 118.11 169.494 118.042 169.137 118.042C168.761 118.042 168.456 118.101 168.222 118.218C167.992 118.33 167.824 118.474 167.716 118.65C167.614 118.826 167.562 119.011 167.562 119.207C167.562 119.353 167.587 119.485 167.636 119.602C167.689 119.714 167.782 119.819 167.914 119.917C168.046 120.01 168.231 120.098 168.471 120.181C168.71 120.264 169.015 120.347 169.386 120.43C170.036 120.576 170.57 120.752 170.99 120.957C171.41 121.162 171.723 121.414 171.928 121.711C172.133 122.009 172.235 122.371 172.235 122.795C172.235 123.142 172.162 123.459 172.016 123.748C171.874 124.036 171.667 124.285 171.393 124.495C171.125 124.7 170.802 124.861 170.426 124.978C170.055 125.09 169.638 125.146 169.174 125.146C168.476 125.146 167.885 125.022 167.401 124.773C166.918 124.524 166.552 124.202 166.303 123.806C166.054 123.411 165.929 122.993 165.929 122.554H167.292C167.311 122.925 167.418 123.22 167.614 123.44C167.809 123.655 168.048 123.809 168.332 123.901C168.615 123.989 168.896 124.033 169.174 124.033C169.545 124.033 169.855 123.984 170.104 123.887C170.358 123.789 170.551 123.655 170.683 123.484C170.814 123.313 170.88 123.118 170.88 122.898ZM177.333 117.075V118.115H173.048V117.075H177.333ZM174.499 115.149H175.854V123.037C175.854 123.306 175.895 123.508 175.978 123.645C176.061 123.782 176.168 123.872 176.3 123.916C176.432 123.96 176.574 123.982 176.725 123.982C176.837 123.982 176.955 123.972 177.077 123.953C177.204 123.928 177.299 123.909 177.362 123.894L177.37 125C177.262 125.034 177.121 125.066 176.945 125.095C176.774 125.129 176.566 125.146 176.322 125.146C175.99 125.146 175.685 125.081 175.407 124.949C175.128 124.817 174.906 124.597 174.74 124.29C174.579 123.977 174.499 123.557 174.499 123.03V115.149ZM184.115 117.075V125H182.753V117.075H184.115ZM182.65 114.973C182.65 114.753 182.716 114.568 182.848 114.417C182.985 114.265 183.185 114.189 183.449 114.189C183.708 114.189 183.905 114.265 184.042 114.417C184.184 114.568 184.254 114.753 184.254 114.973C184.254 115.183 184.184 115.364 184.042 115.515C183.905 115.662 183.708 115.735 183.449 115.735C183.185 115.735 182.985 115.662 182.848 115.515C182.716 115.364 182.65 115.183 182.65 114.973ZM189.608 117.075V118.115H185.324V117.075H189.608ZM186.774 115.149H188.129V123.037C188.129 123.306 188.17 123.508 188.253 123.645C188.336 123.782 188.444 123.872 188.576 123.916C188.708 123.96 188.849 123.982 189 123.982C189.113 123.982 189.23 123.972 189.352 123.953C189.479 123.928 189.574 123.909 189.638 123.894L189.645 125C189.538 125.034 189.396 125.066 189.22 125.095C189.049 125.129 188.842 125.146 188.598 125.146C188.266 125.146 187.96 125.081 187.682 124.949C187.404 124.817 187.182 124.597 187.016 124.29C186.854 123.977 186.774 123.557 186.774 123.03V115.149ZM194.486 125.146C193.935 125.146 193.434 125.054 192.985 124.868C192.541 124.678 192.157 124.412 191.835 124.07C191.518 123.728 191.273 123.323 191.103 122.854C190.932 122.385 190.846 121.873 190.846 121.316V121.008C190.846 120.364 190.941 119.79 191.132 119.287C191.322 118.779 191.581 118.35 191.908 117.998C192.235 117.646 192.606 117.38 193.021 117.2C193.437 117.019 193.866 116.929 194.311 116.929C194.877 116.929 195.365 117.026 195.775 117.222C196.19 117.417 196.53 117.69 196.793 118.042C197.057 118.389 197.252 118.799 197.379 119.272C197.506 119.741 197.57 120.254 197.57 120.811V121.418H191.652V120.312H196.215V120.21C196.195 119.858 196.122 119.517 195.995 119.185C195.873 118.853 195.678 118.579 195.409 118.364C195.141 118.149 194.774 118.042 194.311 118.042C194.003 118.042 193.72 118.108 193.461 118.24C193.202 118.367 192.98 118.557 192.794 118.811C192.609 119.065 192.465 119.375 192.362 119.741C192.26 120.107 192.208 120.53 192.208 121.008V121.316C192.208 121.692 192.26 122.046 192.362 122.378C192.47 122.705 192.624 122.993 192.824 123.242C193.029 123.491 193.275 123.687 193.563 123.828C193.856 123.97 194.188 124.041 194.56 124.041C195.038 124.041 195.443 123.943 195.775 123.748C196.107 123.552 196.398 123.291 196.647 122.964L197.467 123.616C197.296 123.875 197.079 124.121 196.815 124.355C196.552 124.59 196.227 124.78 195.841 124.927C195.46 125.073 195.009 125.146 194.486 125.146ZM200.5 118.65V125H199.137V117.075H200.426L200.5 118.65ZM200.221 120.737L199.591 120.715C199.596 120.173 199.667 119.673 199.804 119.214C199.94 118.75 200.143 118.347 200.412 118.005C200.68 117.664 201.015 117.4 201.415 117.214C201.815 117.024 202.279 116.929 202.807 116.929C203.178 116.929 203.52 116.982 203.832 117.09C204.145 117.192 204.416 117.356 204.645 117.581C204.875 117.805 205.053 118.093 205.18 118.445C205.307 118.796 205.37 119.221 205.37 119.719V125H204.015V119.785C204.015 119.37 203.944 119.038 203.803 118.789C203.666 118.54 203.471 118.359 203.217 118.247C202.963 118.13 202.665 118.071 202.323 118.071C201.923 118.071 201.588 118.142 201.32 118.284C201.051 118.425 200.836 118.621 200.675 118.87C200.514 119.119 200.397 119.404 200.324 119.727C200.255 120.044 200.221 120.381 200.221 120.737ZM205.355 119.99L204.447 120.269C204.452 119.834 204.523 119.417 204.66 119.016C204.801 118.616 205.004 118.259 205.268 117.947C205.536 117.634 205.866 117.388 206.256 117.207C206.647 117.021 207.094 116.929 207.597 116.929C208.021 116.929 208.397 116.985 208.725 117.097C209.057 117.209 209.335 117.383 209.56 117.617C209.789 117.847 209.962 118.142 210.08 118.503C210.197 118.865 210.255 119.294 210.255 119.792V125H208.893V119.778C208.893 119.333 208.822 118.989 208.681 118.745C208.544 118.496 208.349 118.323 208.095 118.225C207.846 118.123 207.548 118.071 207.201 118.071C206.903 118.071 206.64 118.123 206.41 118.225C206.181 118.328 205.988 118.469 205.832 118.65C205.675 118.826 205.556 119.028 205.473 119.258C205.395 119.487 205.355 119.731 205.355 119.99ZM222.868 123.887V125H215.888V124.026L219.381 120.137C219.811 119.658 220.143 119.253 220.377 118.921C220.617 118.584 220.783 118.284 220.875 118.02C220.973 117.751 221.022 117.478 221.022 117.2C221.022 116.848 220.949 116.531 220.802 116.248C220.661 115.959 220.451 115.73 220.172 115.559C219.894 115.388 219.557 115.303 219.162 115.303C218.688 115.303 218.292 115.396 217.975 115.581C217.663 115.762 217.428 116.016 217.272 116.343C217.116 116.67 217.038 117.046 217.038 117.471H215.683C215.683 116.87 215.814 116.321 216.078 115.823C216.342 115.325 216.732 114.929 217.25 114.636C217.768 114.338 218.405 114.189 219.162 114.189C219.835 114.189 220.412 114.309 220.89 114.548C221.369 114.783 221.735 115.115 221.989 115.544C222.248 115.969 222.377 116.467 222.377 117.039C222.377 117.351 222.323 117.668 222.216 117.991C222.113 118.308 221.969 118.625 221.784 118.943C221.603 119.26 221.391 119.573 221.146 119.88C220.907 120.188 220.651 120.491 220.377 120.789L217.521 123.887H222.868ZM138.971 151.001H139.938C140.412 151.001 140.802 150.923 141.11 150.767C141.422 150.606 141.654 150.389 141.806 150.115C141.962 149.837 142.04 149.524 142.04 149.178C142.04 148.768 141.972 148.423 141.835 148.145C141.698 147.867 141.493 147.657 141.22 147.515C140.946 147.374 140.6 147.303 140.18 147.303C139.799 147.303 139.462 147.378 139.169 147.53C138.881 147.676 138.654 147.886 138.488 148.16C138.327 148.433 138.246 148.755 138.246 149.126H136.891C136.891 148.584 137.028 148.091 137.301 147.647C137.575 147.203 137.958 146.849 138.451 146.585C138.949 146.321 139.525 146.189 140.18 146.189C140.824 146.189 141.388 146.304 141.872 146.534C142.355 146.758 142.731 147.095 143 147.544C143.268 147.989 143.402 148.543 143.402 149.207C143.402 149.476 143.339 149.764 143.212 150.071C143.09 150.374 142.897 150.657 142.633 150.921C142.375 151.185 142.038 151.402 141.623 151.573C141.208 151.739 140.71 151.822 140.128 151.822H138.971V151.001ZM138.971 152.115V151.302H140.128C140.807 151.302 141.369 151.382 141.813 151.543C142.257 151.705 142.606 151.919 142.86 152.188C143.119 152.457 143.3 152.752 143.402 153.074C143.51 153.392 143.564 153.709 143.564 154.026C143.564 154.524 143.478 154.966 143.307 155.352C143.141 155.738 142.904 156.065 142.597 156.333C142.294 156.602 141.938 156.805 141.527 156.941C141.117 157.078 140.67 157.146 140.187 157.146C139.723 157.146 139.286 157.081 138.876 156.949C138.471 156.817 138.112 156.626 137.799 156.377C137.487 156.124 137.243 155.813 137.067 155.447C136.891 155.076 136.803 154.654 136.803 154.18H138.158C138.158 154.551 138.239 154.876 138.4 155.154C138.566 155.433 138.8 155.65 139.103 155.806C139.411 155.958 139.772 156.033 140.187 156.033C140.602 156.033 140.959 155.962 141.256 155.821C141.559 155.674 141.791 155.455 141.952 155.162C142.118 154.869 142.201 154.5 142.201 154.056C142.201 153.611 142.108 153.248 141.923 152.964C141.737 152.676 141.474 152.464 141.132 152.327C140.795 152.186 140.397 152.115 139.938 152.115H138.971ZM145.6 156.282C145.6 156.053 145.67 155.86 145.812 155.704C145.959 155.542 146.169 155.462 146.442 155.462C146.715 155.462 146.923 155.542 147.065 155.704C147.211 155.86 147.284 156.053 147.284 156.282C147.284 156.507 147.211 156.697 147.065 156.854C146.923 157.01 146.715 157.088 146.442 157.088C146.169 157.088 145.959 157.01 145.812 156.854C145.67 156.697 145.6 156.507 145.6 156.282ZM161.205 155.85V157H155.873V155.85H161.205ZM156.151 146.336V157H154.738V146.336H156.151ZM164.091 149.075V157H162.729V149.075H164.091ZM162.626 146.973C162.626 146.753 162.692 146.568 162.824 146.417C162.96 146.265 163.161 146.189 163.424 146.189C163.683 146.189 163.881 146.265 164.018 146.417C164.159 146.568 164.23 146.753 164.23 146.973C164.23 147.183 164.159 147.364 164.018 147.515C163.881 147.662 163.683 147.735 163.424 147.735C163.161 147.735 162.96 147.662 162.824 147.515C162.692 147.364 162.626 147.183 162.626 146.973ZM170.88 154.898C170.88 154.703 170.836 154.522 170.749 154.356C170.666 154.185 170.492 154.031 170.229 153.895C169.97 153.753 169.579 153.631 169.057 153.528C168.617 153.436 168.219 153.326 167.863 153.199C167.511 153.072 167.211 152.918 166.962 152.737C166.718 152.557 166.53 152.344 166.398 152.1C166.266 151.856 166.2 151.57 166.2 151.243C166.2 150.931 166.269 150.635 166.405 150.357C166.547 150.079 166.745 149.832 166.999 149.617C167.257 149.402 167.567 149.234 167.929 149.112C168.29 148.99 168.693 148.929 169.137 148.929C169.772 148.929 170.314 149.041 170.763 149.266C171.212 149.49 171.557 149.791 171.796 150.167C172.035 150.538 172.155 150.95 172.155 151.404H170.8C170.8 151.185 170.734 150.972 170.602 150.767C170.475 150.557 170.287 150.384 170.038 150.247C169.794 150.11 169.494 150.042 169.137 150.042C168.761 150.042 168.456 150.101 168.222 150.218C167.992 150.33 167.824 150.474 167.716 150.65C167.614 150.826 167.562 151.011 167.562 151.207C167.562 151.353 167.587 151.485 167.636 151.602C167.689 151.714 167.782 151.819 167.914 151.917C168.046 152.01 168.231 152.098 168.471 152.181C168.71 152.264 169.015 152.347 169.386 152.43C170.036 152.576 170.57 152.752 170.99 152.957C171.41 153.162 171.723 153.414 171.928 153.711C172.133 154.009 172.235 154.371 172.235 154.795C172.235 155.142 172.162 155.459 172.016 155.748C171.874 156.036 171.667 156.285 171.393 156.495C171.125 156.7 170.802 156.861 170.426 156.978C170.055 157.09 169.638 157.146 169.174 157.146C168.476 157.146 167.885 157.022 167.401 156.773C166.918 156.524 166.552 156.202 166.303 155.806C166.054 155.411 165.929 154.993 165.929 154.554H167.292C167.311 154.925 167.418 155.22 167.614 155.44C167.809 155.655 168.048 155.809 168.332 155.901C168.615 155.989 168.896 156.033 169.174 156.033C169.545 156.033 169.855 155.984 170.104 155.887C170.358 155.789 170.551 155.655 170.683 155.484C170.814 155.313 170.88 155.118 170.88 154.898ZM177.333 149.075V150.115H173.048V149.075H177.333ZM174.499 147.149H175.854V155.037C175.854 155.306 175.895 155.508 175.978 155.645C176.061 155.782 176.168 155.872 176.3 155.916C176.432 155.96 176.574 155.982 176.725 155.982C176.837 155.982 176.955 155.972 177.077 155.953C177.204 155.928 177.299 155.909 177.362 155.894L177.37 157C177.262 157.034 177.121 157.066 176.945 157.095C176.774 157.129 176.566 157.146 176.322 157.146C175.99 157.146 175.685 157.081 175.407 156.949C175.128 156.817 174.906 156.597 174.74 156.29C174.579 155.977 174.499 155.557 174.499 155.03V147.149ZM184.115 149.075V157H182.753V149.075H184.115ZM182.65 146.973C182.65 146.753 182.716 146.568 182.848 146.417C182.985 146.265 183.185 146.189 183.449 146.189C183.708 146.189 183.905 146.265 184.042 146.417C184.184 146.568 184.254 146.753 184.254 146.973C184.254 147.183 184.184 147.364 184.042 147.515C183.905 147.662 183.708 147.735 183.449 147.735C183.185 147.735 182.985 147.662 182.848 147.515C182.716 147.364 182.65 147.183 182.65 146.973ZM189.608 149.075V150.115H185.324V149.075H189.608ZM186.774 147.149H188.129V155.037C188.129 155.306 188.17 155.508 188.253 155.645C188.336 155.782 188.444 155.872 188.576 155.916C188.708 155.96 188.849 155.982 189 155.982C189.113 155.982 189.23 155.972 189.352 155.953C189.479 155.928 189.574 155.909 189.638 155.894L189.645 157C189.538 157.034 189.396 157.066 189.22 157.095C189.049 157.129 188.842 157.146 188.598 157.146C188.266 157.146 187.96 157.081 187.682 156.949C187.404 156.817 187.182 156.597 187.016 156.29C186.854 155.977 186.774 155.557 186.774 155.03V147.149ZM194.486 157.146C193.935 157.146 193.434 157.054 192.985 156.868C192.541 156.678 192.157 156.412 191.835 156.07C191.518 155.728 191.273 155.323 191.103 154.854C190.932 154.385 190.846 153.873 190.846 153.316V153.008C190.846 152.364 190.941 151.79 191.132 151.287C191.322 150.779 191.581 150.35 191.908 149.998C192.235 149.646 192.606 149.38 193.021 149.2C193.437 149.019 193.866 148.929 194.311 148.929C194.877 148.929 195.365 149.026 195.775 149.222C196.19 149.417 196.53 149.69 196.793 150.042C197.057 150.389 197.252 150.799 197.379 151.272C197.506 151.741 197.57 152.254 197.57 152.811V153.418H191.652V152.312H196.215V152.21C196.195 151.858 196.122 151.517 195.995 151.185C195.873 150.853 195.678 150.579 195.409 150.364C195.141 150.149 194.774 150.042 194.311 150.042C194.003 150.042 193.72 150.108 193.461 150.24C193.202 150.367 192.98 150.557 192.794 150.811C192.609 151.065 192.465 151.375 192.362 151.741C192.26 152.107 192.208 152.53 192.208 153.008V153.316C192.208 153.692 192.26 154.046 192.362 154.378C192.47 154.705 192.624 154.993 192.824 155.242C193.029 155.491 193.275 155.687 193.563 155.828C193.856 155.97 194.188 156.041 194.56 156.041C195.038 156.041 195.443 155.943 195.775 155.748C196.107 155.552 196.398 155.291 196.647 154.964L197.467 155.616C197.296 155.875 197.079 156.121 196.815 156.355C196.552 156.59 196.227 156.78 195.841 156.927C195.46 157.073 195.009 157.146 194.486 157.146ZM200.5 150.65V157H199.137V149.075H200.426L200.5 150.65ZM200.221 152.737L199.591 152.715C199.596 152.173 199.667 151.673 199.804 151.214C199.94 150.75 200.143 150.347 200.412 150.005C200.68 149.664 201.015 149.4 201.415 149.214C201.815 149.024 202.279 148.929 202.807 148.929C203.178 148.929 203.52 148.982 203.832 149.09C204.145 149.192 204.416 149.356 204.645 149.581C204.875 149.805 205.053 150.093 205.18 150.445C205.307 150.796 205.37 151.221 205.37 151.719V157H204.015V151.785C204.015 151.37 203.944 151.038 203.803 150.789C203.666 150.54 203.471 150.359 203.217 150.247C202.963 150.13 202.665 150.071 202.323 150.071C201.923 150.071 201.588 150.142 201.32 150.284C201.051 150.425 200.836 150.621 200.675 150.87C200.514 151.119 200.397 151.404 200.324 151.727C200.255 152.044 200.221 152.381 200.221 152.737ZM205.355 151.99L204.447 152.269C204.452 151.834 204.523 151.417 204.66 151.016C204.801 150.616 205.004 150.259 205.268 149.947C205.536 149.634 205.866 149.388 206.256 149.207C206.647 149.021 207.094 148.929 207.597 148.929C208.021 148.929 208.397 148.985 208.725 149.097C209.057 149.209 209.335 149.383 209.56 149.617C209.789 149.847 209.962 150.142 210.08 150.503C210.197 150.865 210.255 151.294 210.255 151.792V157H208.893V151.778C208.893 151.333 208.822 150.989 208.681 150.745C208.544 150.496 208.349 150.323 208.095 150.225C207.846 150.123 207.548 150.071 207.201 150.071C206.903 150.071 206.64 150.123 206.41 150.225C206.181 150.328 205.988 150.469 205.832 150.65C205.675 150.826 205.556 151.028 205.473 151.258C205.395 151.487 205.355 151.731 205.355 151.99ZM217.858 151.001H218.825C219.298 151.001 219.689 150.923 219.997 150.767C220.309 150.606 220.541 150.389 220.692 150.115C220.849 149.837 220.927 149.524 220.927 149.178C220.927 148.768 220.858 148.423 220.722 148.145C220.585 147.867 220.38 147.657 220.106 147.515C219.833 147.374 219.486 147.303 219.066 147.303C218.686 147.303 218.349 147.378 218.056 147.53C217.768 147.676 217.541 147.886 217.375 148.16C217.213 148.433 217.133 148.755 217.133 149.126H215.778C215.778 148.584 215.915 148.091 216.188 147.647C216.461 147.203 216.845 146.849 217.338 146.585C217.836 146.321 218.412 146.189 219.066 146.189C219.711 146.189 220.275 146.304 220.758 146.534C221.242 146.758 221.618 147.095 221.886 147.544C222.155 147.989 222.289 148.543 222.289 149.207C222.289 149.476 222.226 149.764 222.099 150.071C221.977 150.374 221.784 150.657 221.52 150.921C221.261 151.185 220.924 151.402 220.509 151.573C220.094 151.739 219.596 151.822 219.015 151.822H217.858V151.001ZM217.858 152.115V151.302H219.015C219.694 151.302 220.255 151.382 220.7 151.543C221.144 151.705 221.493 151.919 221.747 152.188C222.006 152.457 222.187 152.752 222.289 153.074C222.396 153.392 222.45 153.709 222.45 154.026C222.45 154.524 222.365 154.966 222.194 155.352C222.028 155.738 221.791 156.065 221.483 156.333C221.181 156.602 220.824 156.805 220.414 156.941C220.004 157.078 219.557 157.146 219.074 157.146C218.61 157.146 218.173 157.081 217.763 156.949C217.357 156.817 216.999 156.626 216.686 156.377C216.374 156.124 216.129 155.813 215.954 155.447C215.778 155.076 215.69 154.654 215.69 154.18H217.045C217.045 154.551 217.125 154.876 217.287 155.154C217.453 155.433 217.687 155.65 217.99 155.806C218.297 155.958 218.659 156.033 219.074 156.033C219.489 156.033 219.845 155.962 220.143 155.821C220.446 155.674 220.678 155.455 220.839 155.162C221.005 154.869 221.088 154.5 221.088 154.056C221.088 153.611 220.995 153.248 220.81 152.964C220.624 152.676 220.36 152.464 220.019 152.327C219.682 152.186 219.284 152.115 218.825 152.115H217.858Z" fill="#4C4C4C"/>
</svg>
