<svg width="1280" height="282" viewBox="0 0 1280 282" fill="none" xmlns="http://www.w3.org/2000/svg">
<rect width="1280" height="282" rx="16" fill="#F8F8F8"/>
<g clip-path="url(#clip0_16582_3132)">
<mask id="path-4-inside-1_16582_3132" fill="white">
<path d="M440 40H840V104H440V40Z"/>
</mask>
<path d="M440 40H840V104H440V40Z" fill="white"/>
<path d="M840 104V103H440V104V105H840V104Z" fill="#E6E6E6" mask="url(#path-4-inside-1_16582_3132)"/>
<path d="M479.705 75.8501V77H474.373V75.8501H479.705ZM474.651 66.3359V77H473.238V66.3359H474.651ZM482.591 69.0752V77H481.229V69.0752H482.591ZM481.126 66.9731C481.126 66.7534 481.192 66.5679 481.324 66.4165C481.46 66.2651 481.661 66.1895 481.924 66.1895C482.183 66.1895 482.381 66.2651 482.518 66.4165C482.659 66.5679 482.73 66.7534 482.73 66.9731C482.73 67.1831 482.659 67.3638 482.518 67.5151C482.381 67.6616 482.183 67.7349 481.924 67.7349C481.661 67.7349 481.46 67.6616 481.324 67.5151C481.192 67.3638 481.126 67.1831 481.126 66.9731ZM489.38 74.8979C489.38 74.7026 489.336 74.522 489.249 74.356C489.166 74.1851 488.992 74.0312 488.729 73.8945C488.47 73.7529 488.079 73.6309 487.557 73.5283C487.117 73.4355 486.719 73.3257 486.363 73.1987C486.011 73.0718 485.711 72.918 485.462 72.7373C485.218 72.5566 485.03 72.3442 484.898 72.1001C484.766 71.856 484.7 71.5703 484.7 71.2432C484.7 70.9307 484.769 70.6353 484.905 70.3569C485.047 70.0786 485.245 69.832 485.499 69.6172C485.757 69.4023 486.067 69.2339 486.429 69.1118C486.79 68.9897 487.193 68.9287 487.637 68.9287C488.272 68.9287 488.814 69.041 489.263 69.2656C489.712 69.4902 490.057 69.7905 490.296 70.1665C490.535 70.5376 490.655 70.9502 490.655 71.4043H489.3C489.3 71.1846 489.234 70.9722 489.102 70.7671C488.975 70.5571 488.787 70.3838 488.538 70.2471C488.294 70.1104 487.994 70.042 487.637 70.042C487.261 70.042 486.956 70.1006 486.722 70.2178C486.492 70.3301 486.324 70.4741 486.216 70.6499C486.114 70.8257 486.062 71.0112 486.062 71.2065C486.062 71.353 486.087 71.4849 486.136 71.6021C486.189 71.7144 486.282 71.8193 486.414 71.917C486.546 72.0098 486.731 72.0977 486.971 72.1807C487.21 72.2637 487.515 72.3467 487.886 72.4297C488.536 72.5762 489.07 72.752 489.49 72.957C489.91 73.1621 490.223 73.4136 490.428 73.7114C490.633 74.0093 490.735 74.3706 490.735 74.7954C490.735 75.1421 490.662 75.4595 490.516 75.7476C490.374 76.0356 490.167 76.2847 489.893 76.4946C489.625 76.6997 489.302 76.8608 488.926 76.978C488.555 77.0903 488.138 77.1465 487.674 77.1465C486.976 77.1465 486.385 77.022 485.901 76.7729C485.418 76.5239 485.052 76.2017 484.803 75.8062C484.554 75.4106 484.429 74.9932 484.429 74.5537H485.792C485.811 74.9248 485.918 75.2202 486.114 75.4399C486.309 75.6548 486.548 75.8086 486.832 75.9014C487.115 75.9893 487.396 76.0332 487.674 76.0332C488.045 76.0332 488.355 75.9844 488.604 75.8867C488.858 75.7891 489.051 75.6548 489.183 75.4839C489.314 75.313 489.38 75.1177 489.38 74.8979ZM495.833 69.0752V70.1152H491.548V69.0752H495.833ZM492.999 67.1489H494.354V75.0371C494.354 75.3057 494.395 75.5083 494.478 75.645C494.561 75.7817 494.668 75.8721 494.8 75.916C494.932 75.96 495.074 75.9819 495.225 75.9819C495.337 75.9819 495.455 75.9722 495.577 75.9526C495.704 75.9282 495.799 75.9087 495.862 75.894L495.87 77C495.762 77.0342 495.621 77.0659 495.445 77.0952C495.274 77.1294 495.066 77.1465 494.822 77.1465C494.49 77.1465 494.185 77.0806 493.907 76.9487C493.628 76.8169 493.406 76.5972 493.24 76.2896C493.079 75.9771 492.999 75.5571 492.999 75.0298V67.1489ZM502.615 69.0752V77H501.253V69.0752H502.615ZM501.15 66.9731C501.15 66.7534 501.216 66.5679 501.348 66.4165C501.485 66.2651 501.685 66.1895 501.949 66.1895C502.208 66.1895 502.405 66.2651 502.542 66.4165C502.684 66.5679 502.754 66.7534 502.754 66.9731C502.754 67.1831 502.684 67.3638 502.542 67.5151C502.405 67.6616 502.208 67.7349 501.949 67.7349C501.685 67.7349 501.485 67.6616 501.348 67.5151C501.216 67.3638 501.15 67.1831 501.15 66.9731ZM508.108 69.0752V70.1152H503.824V69.0752H508.108ZM505.274 67.1489H506.629V75.0371C506.629 75.3057 506.67 75.5083 506.753 75.645C506.836 75.7817 506.944 75.8721 507.076 75.916C507.208 75.96 507.349 75.9819 507.5 75.9819C507.613 75.9819 507.73 75.9722 507.852 75.9526C507.979 75.9282 508.074 75.9087 508.138 75.894L508.145 77C508.038 77.0342 507.896 77.0659 507.72 77.0952C507.549 77.1294 507.342 77.1465 507.098 77.1465C506.766 77.1465 506.46 77.0806 506.182 76.9487C505.904 76.8169 505.682 76.5972 505.516 76.2896C505.354 75.9771 505.274 75.5571 505.274 75.0298V67.1489ZM512.986 77.1465C512.435 77.1465 511.934 77.0537 511.485 76.8682C511.041 76.6777 510.657 76.4116 510.335 76.0698C510.018 75.728 509.773 75.3228 509.603 74.854C509.432 74.3853 509.346 73.8726 509.346 73.3159V73.0083C509.346 72.3638 509.441 71.79 509.632 71.2871C509.822 70.7793 510.081 70.3496 510.408 69.998C510.735 69.6465 511.106 69.3804 511.521 69.1997C511.937 69.019 512.366 68.9287 512.811 68.9287C513.377 68.9287 513.865 69.0264 514.275 69.2217C514.69 69.417 515.03 69.6904 515.293 70.042C515.557 70.3887 515.752 70.7988 515.879 71.2725C516.006 71.7412 516.07 72.2539 516.07 72.8105V73.4185H510.152V72.3125H514.715V72.21C514.695 71.8584 514.622 71.5166 514.495 71.1846C514.373 70.8525 514.178 70.5791 513.909 70.3643C513.641 70.1494 513.274 70.042 512.811 70.042C512.503 70.042 512.22 70.1079 511.961 70.2397C511.702 70.3667 511.48 70.5571 511.294 70.811C511.109 71.0649 510.965 71.375 510.862 71.7412C510.76 72.1074 510.708 72.5298 510.708 73.0083V73.3159C510.708 73.6919 510.76 74.0459 510.862 74.3779C510.97 74.7051 511.124 74.9932 511.324 75.2422C511.529 75.4912 511.775 75.6865 512.063 75.8281C512.356 75.9697 512.688 76.0405 513.06 76.0405C513.538 76.0405 513.943 75.9429 514.275 75.7476C514.607 75.5522 514.898 75.291 515.147 74.9639L515.967 75.6157C515.796 75.8745 515.579 76.1211 515.315 76.3555C515.052 76.5898 514.727 76.7803 514.341 76.9268C513.96 77.0732 513.509 77.1465 512.986 77.1465ZM519 70.6499V77H517.637V69.0752H518.926L519 70.6499ZM518.721 72.7373L518.091 72.7153C518.096 72.1733 518.167 71.6729 518.304 71.2139C518.44 70.75 518.643 70.3472 518.912 70.0054C519.18 69.6636 519.515 69.3999 519.915 69.2144C520.315 69.0239 520.779 68.9287 521.307 68.9287C521.678 68.9287 522.02 68.9824 522.332 69.0898C522.645 69.1924 522.916 69.356 523.145 69.5806C523.375 69.8052 523.553 70.0933 523.68 70.4448C523.807 70.7964 523.87 71.2212 523.87 71.7192V77H522.515V71.7852C522.515 71.3701 522.444 71.0381 522.303 70.7891C522.166 70.54 521.971 70.3594 521.717 70.2471C521.463 70.1299 521.165 70.0713 520.823 70.0713C520.423 70.0713 520.088 70.1421 519.82 70.2837C519.551 70.4253 519.336 70.6206 519.175 70.8696C519.014 71.1187 518.897 71.4043 518.824 71.7266C518.755 72.0439 518.721 72.3809 518.721 72.7373ZM523.855 71.9902L522.947 72.2686C522.952 71.834 523.023 71.4165 523.16 71.0161C523.301 70.6157 523.504 70.2593 523.768 69.9468C524.036 69.6343 524.366 69.3877 524.756 69.207C525.147 69.0215 525.594 68.9287 526.097 68.9287C526.521 68.9287 526.897 68.9849 527.225 69.0972C527.557 69.2095 527.835 69.3828 528.06 69.6172C528.289 69.8467 528.462 70.1421 528.58 70.5034C528.697 70.8647 528.755 71.2944 528.755 71.7925V77H527.393V71.7778C527.393 71.3335 527.322 70.9893 527.181 70.7451C527.044 70.4961 526.849 70.3228 526.595 70.2251C526.346 70.1226 526.048 70.0713 525.701 70.0713C525.403 70.0713 525.14 70.1226 524.91 70.2251C524.681 70.3276 524.488 70.4692 524.332 70.6499C524.175 70.8257 524.056 71.0283 523.973 71.2578C523.895 71.4873 523.855 71.7314 523.855 71.9902ZM534.168 73.1255V72.957C534.168 72.3857 534.251 71.856 534.417 71.3677C534.583 70.8745 534.822 70.4473 535.135 70.0859C535.447 69.7197 535.826 69.4365 536.27 69.2363C536.714 69.0312 537.212 68.9287 537.764 68.9287C538.321 68.9287 538.821 69.0312 539.266 69.2363C539.715 69.4365 540.096 69.7197 540.408 70.0859C540.726 70.4473 540.967 70.8745 541.133 71.3677C541.299 71.856 541.382 72.3857 541.382 72.957V73.1255C541.382 73.6968 541.299 74.2266 541.133 74.7148C540.967 75.2031 540.726 75.6304 540.408 75.9966C540.096 76.3579 539.717 76.6411 539.273 76.8462C538.833 77.0464 538.335 77.1465 537.779 77.1465C537.222 77.1465 536.722 77.0464 536.277 76.8462C535.833 76.6411 535.452 76.3579 535.135 75.9966C534.822 75.6304 534.583 75.2031 534.417 74.7148C534.251 74.2266 534.168 73.6968 534.168 73.1255ZM535.523 72.957V73.1255C535.523 73.521 535.569 73.8945 535.662 74.2461C535.755 74.5928 535.894 74.9004 536.08 75.1689C536.27 75.4375 536.507 75.6499 536.79 75.8062C537.073 75.9575 537.403 76.0332 537.779 76.0332C538.15 76.0332 538.475 75.9575 538.753 75.8062C539.036 75.6499 539.271 75.4375 539.456 75.1689C539.642 74.9004 539.781 74.5928 539.874 74.2461C539.971 73.8945 540.02 73.521 540.02 73.1255V72.957C540.02 72.5664 539.971 72.1978 539.874 71.8511C539.781 71.4995 539.639 71.1895 539.449 70.9209C539.263 70.6475 539.029 70.4326 538.746 70.2764C538.467 70.1201 538.14 70.042 537.764 70.042C537.393 70.042 537.066 70.1201 536.783 70.2764C536.504 70.4326 536.27 70.6475 536.08 70.9209C535.894 71.1895 535.755 71.4995 535.662 71.8511C535.569 72.1978 535.523 72.5664 535.523 72.957ZM544.437 70.7671V77H543.082V69.0752H544.363L544.437 70.7671ZM544.114 72.7373L543.55 72.7153C543.555 72.1733 543.636 71.6729 543.792 71.2139C543.948 70.75 544.168 70.3472 544.451 70.0054C544.734 69.6636 545.071 69.3999 545.462 69.2144C545.857 69.0239 546.294 68.9287 546.773 68.9287C547.164 68.9287 547.515 68.9824 547.828 69.0898C548.14 69.1924 548.406 69.3584 548.626 69.5879C548.851 69.8174 549.021 70.1152 549.139 70.4814C549.256 70.8428 549.314 71.2847 549.314 71.8071V77H547.952V71.7925C547.952 71.3774 547.891 71.0454 547.769 70.7964C547.647 70.5425 547.469 70.3594 547.234 70.2471C547 70.1299 546.712 70.0713 546.37 70.0713C546.033 70.0713 545.726 70.1421 545.447 70.2837C545.174 70.4253 544.937 70.6206 544.737 70.8696C544.542 71.1187 544.388 71.4043 544.275 71.7266C544.168 72.0439 544.114 72.3809 544.114 72.7373ZM554.661 77.1465C554.109 77.1465 553.609 77.0537 553.16 76.8682C552.715 76.6777 552.332 76.4116 552.01 76.0698C551.692 75.728 551.448 75.3228 551.277 74.854C551.106 74.3853 551.021 73.8726 551.021 73.3159V73.0083C551.021 72.3638 551.116 71.79 551.307 71.2871C551.497 70.7793 551.756 70.3496 552.083 69.998C552.41 69.6465 552.781 69.3804 553.196 69.1997C553.611 69.019 554.041 68.9287 554.485 68.9287C555.052 68.9287 555.54 69.0264 555.95 69.2217C556.365 69.417 556.705 69.6904 556.968 70.042C557.232 70.3887 557.427 70.7988 557.554 71.2725C557.681 71.7412 557.745 72.2539 557.745 72.8105V73.4185H551.827V72.3125H556.39V72.21C556.37 71.8584 556.297 71.5166 556.17 71.1846C556.048 70.8525 555.853 70.5791 555.584 70.3643C555.315 70.1494 554.949 70.042 554.485 70.042C554.178 70.042 553.895 70.1079 553.636 70.2397C553.377 70.3667 553.155 70.5571 552.969 70.811C552.784 71.0649 552.64 71.375 552.537 71.7412C552.435 72.1074 552.383 72.5298 552.383 73.0083V73.3159C552.383 73.6919 552.435 74.0459 552.537 74.3779C552.645 74.7051 552.798 74.9932 552.999 75.2422C553.204 75.4912 553.45 75.6865 553.738 75.8281C554.031 75.9697 554.363 76.0405 554.734 76.0405C555.213 76.0405 555.618 75.9429 555.95 75.7476C556.282 75.5522 556.573 75.291 556.822 74.9639L557.642 75.6157C557.471 75.8745 557.254 76.1211 556.99 76.3555C556.727 76.5898 556.402 76.7803 556.016 76.9268C555.635 77.0732 555.184 77.1465 554.661 77.1465Z" fill="#4C4C4C"/>
<mask id="path-7-inside-2_16582_3132" fill="white">
<path d="M440 104H840V168H440V104Z"/>
</mask>
<path d="M440 104H840V168H440V104Z" fill="white"/>
<path d="M840 168V167H440V168V169H840V168Z" fill="#E6E6E6" mask="url(#path-7-inside-2_16582_3132)"/>
<path d="M479.705 139.85V141H474.373V139.85H479.705ZM474.651 130.336V141H473.238V130.336H474.651ZM482.591 133.075V141H481.229V133.075H482.591ZM481.126 130.973C481.126 130.753 481.192 130.568 481.324 130.417C481.46 130.265 481.661 130.189 481.924 130.189C482.183 130.189 482.381 130.265 482.518 130.417C482.659 130.568 482.73 130.753 482.73 130.973C482.73 131.183 482.659 131.364 482.518 131.515C482.381 131.662 482.183 131.735 481.924 131.735C481.661 131.735 481.46 131.662 481.324 131.515C481.192 131.364 481.126 131.183 481.126 130.973ZM489.38 138.898C489.38 138.703 489.336 138.522 489.249 138.356C489.166 138.185 488.992 138.031 488.729 137.895C488.47 137.753 488.079 137.631 487.557 137.528C487.117 137.436 486.719 137.326 486.363 137.199C486.011 137.072 485.711 136.918 485.462 136.737C485.218 136.557 485.03 136.344 484.898 136.1C484.766 135.856 484.7 135.57 484.7 135.243C484.7 134.931 484.769 134.635 484.905 134.357C485.047 134.079 485.245 133.832 485.499 133.617C485.757 133.402 486.067 133.234 486.429 133.112C486.79 132.99 487.193 132.929 487.637 132.929C488.272 132.929 488.814 133.041 489.263 133.266C489.712 133.49 490.057 133.791 490.296 134.167C490.535 134.538 490.655 134.95 490.655 135.404H489.3C489.3 135.185 489.234 134.972 489.102 134.767C488.975 134.557 488.787 134.384 488.538 134.247C488.294 134.11 487.994 134.042 487.637 134.042C487.261 134.042 486.956 134.101 486.722 134.218C486.492 134.33 486.324 134.474 486.216 134.65C486.114 134.826 486.062 135.011 486.062 135.207C486.062 135.353 486.087 135.485 486.136 135.602C486.189 135.714 486.282 135.819 486.414 135.917C486.546 136.01 486.731 136.098 486.971 136.181C487.21 136.264 487.515 136.347 487.886 136.43C488.536 136.576 489.07 136.752 489.49 136.957C489.91 137.162 490.223 137.414 490.428 137.711C490.633 138.009 490.735 138.371 490.735 138.795C490.735 139.142 490.662 139.459 490.516 139.748C490.374 140.036 490.167 140.285 489.893 140.495C489.625 140.7 489.302 140.861 488.926 140.978C488.555 141.09 488.138 141.146 487.674 141.146C486.976 141.146 486.385 141.022 485.901 140.773C485.418 140.524 485.052 140.202 484.803 139.806C484.554 139.411 484.429 138.993 484.429 138.554H485.792C485.811 138.925 485.918 139.22 486.114 139.44C486.309 139.655 486.548 139.809 486.832 139.901C487.115 139.989 487.396 140.033 487.674 140.033C488.045 140.033 488.355 139.984 488.604 139.887C488.858 139.789 489.051 139.655 489.183 139.484C489.314 139.313 489.38 139.118 489.38 138.898ZM495.833 133.075V134.115H491.548V133.075H495.833ZM492.999 131.149H494.354V139.037C494.354 139.306 494.395 139.508 494.478 139.645C494.561 139.782 494.668 139.872 494.8 139.916C494.932 139.96 495.074 139.982 495.225 139.982C495.337 139.982 495.455 139.972 495.577 139.953C495.704 139.928 495.799 139.909 495.862 139.894L495.87 141C495.762 141.034 495.621 141.066 495.445 141.095C495.274 141.129 495.066 141.146 494.822 141.146C494.49 141.146 494.185 141.081 493.907 140.949C493.628 140.817 493.406 140.597 493.24 140.29C493.079 139.977 492.999 139.557 492.999 139.03V131.149ZM502.615 133.075V141H501.253V133.075H502.615ZM501.15 130.973C501.15 130.753 501.216 130.568 501.348 130.417C501.485 130.265 501.685 130.189 501.949 130.189C502.208 130.189 502.405 130.265 502.542 130.417C502.684 130.568 502.754 130.753 502.754 130.973C502.754 131.183 502.684 131.364 502.542 131.515C502.405 131.662 502.208 131.735 501.949 131.735C501.685 131.735 501.485 131.662 501.348 131.515C501.216 131.364 501.15 131.183 501.15 130.973ZM508.108 133.075V134.115H503.824V133.075H508.108ZM505.274 131.149H506.629V139.037C506.629 139.306 506.67 139.508 506.753 139.645C506.836 139.782 506.944 139.872 507.076 139.916C507.208 139.96 507.349 139.982 507.5 139.982C507.613 139.982 507.73 139.972 507.852 139.953C507.979 139.928 508.074 139.909 508.138 139.894L508.145 141C508.038 141.034 507.896 141.066 507.72 141.095C507.549 141.129 507.342 141.146 507.098 141.146C506.766 141.146 506.46 141.081 506.182 140.949C505.904 140.817 505.682 140.597 505.516 140.29C505.354 139.977 505.274 139.557 505.274 139.03V131.149ZM512.986 141.146C512.435 141.146 511.934 141.054 511.485 140.868C511.041 140.678 510.657 140.412 510.335 140.07C510.018 139.728 509.773 139.323 509.603 138.854C509.432 138.385 509.346 137.873 509.346 137.316V137.008C509.346 136.364 509.441 135.79 509.632 135.287C509.822 134.779 510.081 134.35 510.408 133.998C510.735 133.646 511.106 133.38 511.521 133.2C511.937 133.019 512.366 132.929 512.811 132.929C513.377 132.929 513.865 133.026 514.275 133.222C514.69 133.417 515.03 133.69 515.293 134.042C515.557 134.389 515.752 134.799 515.879 135.272C516.006 135.741 516.07 136.254 516.07 136.811V137.418H510.152V136.312H514.715V136.21C514.695 135.858 514.622 135.517 514.495 135.185C514.373 134.853 514.178 134.579 513.909 134.364C513.641 134.149 513.274 134.042 512.811 134.042C512.503 134.042 512.22 134.108 511.961 134.24C511.702 134.367 511.48 134.557 511.294 134.811C511.109 135.065 510.965 135.375 510.862 135.741C510.76 136.107 510.708 136.53 510.708 137.008V137.316C510.708 137.692 510.76 138.046 510.862 138.378C510.97 138.705 511.124 138.993 511.324 139.242C511.529 139.491 511.775 139.687 512.063 139.828C512.356 139.97 512.688 140.041 513.06 140.041C513.538 140.041 513.943 139.943 514.275 139.748C514.607 139.552 514.898 139.291 515.147 138.964L515.967 139.616C515.796 139.875 515.579 140.121 515.315 140.355C515.052 140.59 514.727 140.78 514.341 140.927C513.96 141.073 513.509 141.146 512.986 141.146ZM519 134.65V141H517.637V133.075H518.926L519 134.65ZM518.721 136.737L518.091 136.715C518.096 136.173 518.167 135.673 518.304 135.214C518.44 134.75 518.643 134.347 518.912 134.005C519.18 133.664 519.515 133.4 519.915 133.214C520.315 133.024 520.779 132.929 521.307 132.929C521.678 132.929 522.02 132.982 522.332 133.09C522.645 133.192 522.916 133.356 523.145 133.581C523.375 133.805 523.553 134.093 523.68 134.445C523.807 134.796 523.87 135.221 523.87 135.719V141H522.515V135.785C522.515 135.37 522.444 135.038 522.303 134.789C522.166 134.54 521.971 134.359 521.717 134.247C521.463 134.13 521.165 134.071 520.823 134.071C520.423 134.071 520.088 134.142 519.82 134.284C519.551 134.425 519.336 134.621 519.175 134.87C519.014 135.119 518.897 135.404 518.824 135.727C518.755 136.044 518.721 136.381 518.721 136.737ZM523.855 135.99L522.947 136.269C522.952 135.834 523.023 135.417 523.16 135.016C523.301 134.616 523.504 134.259 523.768 133.947C524.036 133.634 524.366 133.388 524.756 133.207C525.147 133.021 525.594 132.929 526.097 132.929C526.521 132.929 526.897 132.985 527.225 133.097C527.557 133.209 527.835 133.383 528.06 133.617C528.289 133.847 528.462 134.142 528.58 134.503C528.697 134.865 528.755 135.294 528.755 135.792V141H527.393V135.778C527.393 135.333 527.322 134.989 527.181 134.745C527.044 134.496 526.849 134.323 526.595 134.225C526.346 134.123 526.048 134.071 525.701 134.071C525.403 134.071 525.14 134.123 524.91 134.225C524.681 134.328 524.488 134.469 524.332 134.65C524.175 134.826 524.056 135.028 523.973 135.258C523.895 135.487 523.855 135.731 523.855 135.99ZM537.845 133.075V134.115H533.56V133.075H537.845ZM535.01 131.149H536.365V139.037C536.365 139.306 536.407 139.508 536.49 139.645C536.573 139.782 536.68 139.872 536.812 139.916C536.944 139.96 537.085 139.982 537.237 139.982C537.349 139.982 537.466 139.972 537.588 139.953C537.715 139.928 537.811 139.909 537.874 139.894L537.881 141C537.774 141.034 537.632 141.066 537.457 141.095C537.286 141.129 537.078 141.146 536.834 141.146C536.502 141.146 536.197 141.081 535.918 140.949C535.64 140.817 535.418 140.597 535.252 140.29C535.091 139.977 535.01 139.557 535.01 139.03V131.149ZM541.441 139.594L543.477 133.075H544.371L544.195 134.372L542.122 141H541.25L541.441 139.594ZM540.071 133.075L541.807 139.667L541.932 141H541.016L538.716 133.075H540.071ZM546.319 139.616L547.974 133.075H549.322L547.022 141H546.114L546.319 139.616ZM544.568 133.075L546.561 139.484L546.788 141H545.923L543.792 134.357L543.616 133.075H544.568ZM550.354 137.125V136.957C550.354 136.386 550.438 135.856 550.604 135.368C550.77 134.875 551.009 134.447 551.321 134.086C551.634 133.72 552.012 133.437 552.457 133.236C552.901 133.031 553.399 132.929 553.951 132.929C554.507 132.929 555.008 133.031 555.452 133.236C555.901 133.437 556.282 133.72 556.595 134.086C556.912 134.447 557.154 134.875 557.32 135.368C557.486 135.856 557.569 136.386 557.569 136.957V137.125C557.569 137.697 557.486 138.227 557.32 138.715C557.154 139.203 556.912 139.63 556.595 139.997C556.282 140.358 555.904 140.641 555.459 140.846C555.02 141.046 554.522 141.146 553.965 141.146C553.409 141.146 552.908 141.046 552.464 140.846C552.02 140.641 551.639 140.358 551.321 139.997C551.009 139.63 550.77 139.203 550.604 138.715C550.438 138.227 550.354 137.697 550.354 137.125ZM551.709 136.957V137.125C551.709 137.521 551.756 137.895 551.849 138.246C551.941 138.593 552.081 138.9 552.266 139.169C552.457 139.438 552.693 139.65 552.977 139.806C553.26 139.958 553.589 140.033 553.965 140.033C554.336 140.033 554.661 139.958 554.939 139.806C555.223 139.65 555.457 139.438 555.643 139.169C555.828 138.9 555.967 138.593 556.06 138.246C556.158 137.895 556.207 137.521 556.207 137.125V136.957C556.207 136.566 556.158 136.198 556.06 135.851C555.967 135.5 555.826 135.189 555.635 134.921C555.45 134.647 555.215 134.433 554.932 134.276C554.654 134.12 554.327 134.042 553.951 134.042C553.58 134.042 553.252 134.12 552.969 134.276C552.691 134.433 552.457 134.647 552.266 134.921C552.081 135.189 551.941 135.5 551.849 135.851C551.756 136.198 551.709 136.566 551.709 136.957Z" fill="#4C4C4C"/>
<mask id="path-10-inside-3_16582_3132" fill="white">
<path d="M440 168H840V232H440V168Z"/>
</mask>
<path d="M440 168H840V232H440V168Z" fill="white"/>
<path d="M840 232V231H440V232V233H840V232Z" fill="#E6E6E6" mask="url(#path-10-inside-3_16582_3132)"/>
<path d="M479.705 203.85V205H474.373V203.85H479.705ZM474.651 194.336V205H473.238V194.336H474.651ZM482.591 197.075V205H481.229V197.075H482.591ZM481.126 194.973C481.126 194.753 481.192 194.568 481.324 194.417C481.46 194.265 481.661 194.189 481.924 194.189C482.183 194.189 482.381 194.265 482.518 194.417C482.659 194.568 482.73 194.753 482.73 194.973C482.73 195.183 482.659 195.364 482.518 195.515C482.381 195.662 482.183 195.735 481.924 195.735C481.661 195.735 481.46 195.662 481.324 195.515C481.192 195.364 481.126 195.183 481.126 194.973ZM489.38 202.898C489.38 202.703 489.336 202.522 489.249 202.356C489.166 202.185 488.992 202.031 488.729 201.895C488.47 201.753 488.079 201.631 487.557 201.528C487.117 201.436 486.719 201.326 486.363 201.199C486.011 201.072 485.711 200.918 485.462 200.737C485.218 200.557 485.03 200.344 484.898 200.1C484.766 199.856 484.7 199.57 484.7 199.243C484.7 198.931 484.769 198.635 484.905 198.357C485.047 198.079 485.245 197.832 485.499 197.617C485.757 197.402 486.067 197.234 486.429 197.112C486.79 196.99 487.193 196.929 487.637 196.929C488.272 196.929 488.814 197.041 489.263 197.266C489.712 197.49 490.057 197.791 490.296 198.167C490.535 198.538 490.655 198.95 490.655 199.404H489.3C489.3 199.185 489.234 198.972 489.102 198.767C488.975 198.557 488.787 198.384 488.538 198.247C488.294 198.11 487.994 198.042 487.637 198.042C487.261 198.042 486.956 198.101 486.722 198.218C486.492 198.33 486.324 198.474 486.216 198.65C486.114 198.826 486.062 199.011 486.062 199.207C486.062 199.353 486.087 199.485 486.136 199.602C486.189 199.714 486.282 199.819 486.414 199.917C486.546 200.01 486.731 200.098 486.971 200.181C487.21 200.264 487.515 200.347 487.886 200.43C488.536 200.576 489.07 200.752 489.49 200.957C489.91 201.162 490.223 201.414 490.428 201.711C490.633 202.009 490.735 202.371 490.735 202.795C490.735 203.142 490.662 203.459 490.516 203.748C490.374 204.036 490.167 204.285 489.893 204.495C489.625 204.7 489.302 204.861 488.926 204.978C488.555 205.09 488.138 205.146 487.674 205.146C486.976 205.146 486.385 205.022 485.901 204.773C485.418 204.524 485.052 204.202 484.803 203.806C484.554 203.411 484.429 202.993 484.429 202.554H485.792C485.811 202.925 485.918 203.22 486.114 203.44C486.309 203.655 486.548 203.809 486.832 203.901C487.115 203.989 487.396 204.033 487.674 204.033C488.045 204.033 488.355 203.984 488.604 203.887C488.858 203.789 489.051 203.655 489.183 203.484C489.314 203.313 489.38 203.118 489.38 202.898ZM495.833 197.075V198.115H491.548V197.075H495.833ZM492.999 195.149H494.354V203.037C494.354 203.306 494.395 203.508 494.478 203.645C494.561 203.782 494.668 203.872 494.8 203.916C494.932 203.96 495.074 203.982 495.225 203.982C495.337 203.982 495.455 203.972 495.577 203.953C495.704 203.928 495.799 203.909 495.862 203.894L495.87 205C495.762 205.034 495.621 205.066 495.445 205.095C495.274 205.129 495.066 205.146 494.822 205.146C494.49 205.146 494.185 205.081 493.907 204.949C493.628 204.817 493.406 204.597 493.24 204.29C493.079 203.977 492.999 203.557 492.999 203.03V195.149ZM502.615 197.075V205H501.253V197.075H502.615ZM501.15 194.973C501.15 194.753 501.216 194.568 501.348 194.417C501.485 194.265 501.685 194.189 501.949 194.189C502.208 194.189 502.405 194.265 502.542 194.417C502.684 194.568 502.754 194.753 502.754 194.973C502.754 195.183 502.684 195.364 502.542 195.515C502.405 195.662 502.208 195.735 501.949 195.735C501.685 195.735 501.485 195.662 501.348 195.515C501.216 195.364 501.15 195.183 501.15 194.973ZM508.108 197.075V198.115H503.824V197.075H508.108ZM505.274 195.149H506.629V203.037C506.629 203.306 506.67 203.508 506.753 203.645C506.836 203.782 506.944 203.872 507.076 203.916C507.208 203.96 507.349 203.982 507.5 203.982C507.613 203.982 507.73 203.972 507.852 203.953C507.979 203.928 508.074 203.909 508.138 203.894L508.145 205C508.038 205.034 507.896 205.066 507.72 205.095C507.549 205.129 507.342 205.146 507.098 205.146C506.766 205.146 506.46 205.081 506.182 204.949C505.904 204.817 505.682 204.597 505.516 204.29C505.354 203.977 505.274 203.557 505.274 203.03V195.149ZM512.986 205.146C512.435 205.146 511.934 205.054 511.485 204.868C511.041 204.678 510.657 204.412 510.335 204.07C510.018 203.728 509.773 203.323 509.603 202.854C509.432 202.385 509.346 201.873 509.346 201.316V201.008C509.346 200.364 509.441 199.79 509.632 199.287C509.822 198.779 510.081 198.35 510.408 197.998C510.735 197.646 511.106 197.38 511.521 197.2C511.937 197.019 512.366 196.929 512.811 196.929C513.377 196.929 513.865 197.026 514.275 197.222C514.69 197.417 515.03 197.69 515.293 198.042C515.557 198.389 515.752 198.799 515.879 199.272C516.006 199.741 516.07 200.254 516.07 200.811V201.418H510.152V200.312H514.715V200.21C514.695 199.858 514.622 199.517 514.495 199.185C514.373 198.853 514.178 198.579 513.909 198.364C513.641 198.149 513.274 198.042 512.811 198.042C512.503 198.042 512.22 198.108 511.961 198.24C511.702 198.367 511.48 198.557 511.294 198.811C511.109 199.065 510.965 199.375 510.862 199.741C510.76 200.107 510.708 200.53 510.708 201.008V201.316C510.708 201.692 510.76 202.046 510.862 202.378C510.97 202.705 511.124 202.993 511.324 203.242C511.529 203.491 511.775 203.687 512.063 203.828C512.356 203.97 512.688 204.041 513.06 204.041C513.538 204.041 513.943 203.943 514.275 203.748C514.607 203.552 514.898 203.291 515.147 202.964L515.967 203.616C515.796 203.875 515.579 204.121 515.315 204.355C515.052 204.59 514.727 204.78 514.341 204.927C513.96 205.073 513.509 205.146 512.986 205.146ZM519 198.65V205H517.637V197.075H518.926L519 198.65ZM518.721 200.737L518.091 200.715C518.096 200.173 518.167 199.673 518.304 199.214C518.44 198.75 518.643 198.347 518.912 198.005C519.18 197.664 519.515 197.4 519.915 197.214C520.315 197.024 520.779 196.929 521.307 196.929C521.678 196.929 522.02 196.982 522.332 197.09C522.645 197.192 522.916 197.356 523.145 197.581C523.375 197.805 523.553 198.093 523.68 198.445C523.807 198.796 523.87 199.221 523.87 199.719V205H522.515V199.785C522.515 199.37 522.444 199.038 522.303 198.789C522.166 198.54 521.971 198.359 521.717 198.247C521.463 198.13 521.165 198.071 520.823 198.071C520.423 198.071 520.088 198.142 519.82 198.284C519.551 198.425 519.336 198.621 519.175 198.87C519.014 199.119 518.897 199.404 518.824 199.727C518.755 200.044 518.721 200.381 518.721 200.737ZM523.855 199.99L522.947 200.269C522.952 199.834 523.023 199.417 523.16 199.016C523.301 198.616 523.504 198.259 523.768 197.947C524.036 197.634 524.366 197.388 524.756 197.207C525.147 197.021 525.594 196.929 526.097 196.929C526.521 196.929 526.897 196.985 527.225 197.097C527.557 197.209 527.835 197.383 528.06 197.617C528.289 197.847 528.462 198.142 528.58 198.503C528.697 198.865 528.755 199.294 528.755 199.792V205H527.393V199.778C527.393 199.333 527.322 198.989 527.181 198.745C527.044 198.496 526.849 198.323 526.595 198.225C526.346 198.123 526.048 198.071 525.701 198.071C525.403 198.071 525.14 198.123 524.91 198.225C524.681 198.328 524.488 198.469 524.332 198.65C524.175 198.826 524.056 199.028 523.973 199.258C523.895 199.487 523.855 199.731 523.855 199.99ZM537.845 197.075V198.115H533.56V197.075H537.845ZM535.01 195.149H536.365V203.037C536.365 203.306 536.407 203.508 536.49 203.645C536.573 203.782 536.68 203.872 536.812 203.916C536.944 203.96 537.085 203.982 537.237 203.982C537.349 203.982 537.466 203.972 537.588 203.953C537.715 203.928 537.811 203.909 537.874 203.894L537.881 205C537.774 205.034 537.632 205.066 537.457 205.095C537.286 205.129 537.078 205.146 536.834 205.146C536.502 205.146 536.197 205.081 535.918 204.949C535.64 204.817 535.418 204.597 535.252 204.29C535.091 203.977 535.01 203.557 535.01 203.03V195.149ZM540.789 193.75V205H539.434V193.75H540.789ZM540.467 200.737L539.903 200.715C539.908 200.173 539.988 199.673 540.145 199.214C540.301 198.75 540.521 198.347 540.804 198.005C541.087 197.664 541.424 197.4 541.814 197.214C542.21 197.024 542.647 196.929 543.125 196.929C543.516 196.929 543.868 196.982 544.18 197.09C544.493 197.192 544.759 197.358 544.979 197.588C545.203 197.817 545.374 198.115 545.491 198.481C545.608 198.843 545.667 199.285 545.667 199.807V205H544.305V199.792C544.305 199.377 544.244 199.045 544.122 198.796C544 198.542 543.821 198.359 543.587 198.247C543.353 198.13 543.064 198.071 542.723 198.071C542.386 198.071 542.078 198.142 541.8 198.284C541.526 198.425 541.29 198.621 541.089 198.87C540.894 199.119 540.74 199.404 540.628 199.727C540.521 200.044 540.467 200.381 540.467 200.737ZM549.051 198.32V205H547.696V197.075H549.014L549.051 198.32ZM551.526 197.031L551.519 198.291C551.407 198.267 551.299 198.252 551.197 198.247C551.099 198.237 550.987 198.232 550.86 198.232C550.547 198.232 550.271 198.281 550.032 198.379C549.793 198.477 549.59 198.613 549.424 198.789C549.258 198.965 549.126 199.175 549.029 199.419C548.936 199.658 548.875 199.922 548.846 200.21L548.465 200.43C548.465 199.951 548.511 199.502 548.604 199.082C548.702 198.662 548.851 198.291 549.051 197.969C549.251 197.642 549.505 197.388 549.812 197.207C550.125 197.021 550.496 196.929 550.926 196.929C551.023 196.929 551.136 196.941 551.263 196.965C551.39 196.985 551.478 197.007 551.526 197.031ZM555.921 205.146C555.369 205.146 554.869 205.054 554.419 204.868C553.975 204.678 553.592 204.412 553.27 204.07C552.952 203.728 552.708 203.323 552.537 202.854C552.366 202.385 552.281 201.873 552.281 201.316V201.008C552.281 200.364 552.376 199.79 552.566 199.287C552.757 198.779 553.016 198.35 553.343 197.998C553.67 197.646 554.041 197.38 554.456 197.2C554.871 197.019 555.301 196.929 555.745 196.929C556.312 196.929 556.8 197.026 557.21 197.222C557.625 197.417 557.964 197.69 558.228 198.042C558.492 198.389 558.687 198.799 558.814 199.272C558.941 199.741 559.004 200.254 559.004 200.811V201.418H553.086V200.312H557.649V200.21C557.63 199.858 557.557 199.517 557.43 199.185C557.308 198.853 557.112 198.579 556.844 198.364C556.575 198.149 556.209 198.042 555.745 198.042C555.438 198.042 555.154 198.108 554.896 198.24C554.637 198.367 554.415 198.557 554.229 198.811C554.043 199.065 553.899 199.375 553.797 199.741C553.694 200.107 553.643 200.53 553.643 201.008V201.316C553.643 201.692 553.694 202.046 553.797 202.378C553.904 202.705 554.058 202.993 554.258 203.242C554.463 203.491 554.71 203.687 554.998 203.828C555.291 203.97 555.623 204.041 555.994 204.041C556.473 204.041 556.878 203.943 557.21 203.748C557.542 203.552 557.833 203.291 558.082 202.964L558.902 203.616C558.731 203.875 558.514 204.121 558.25 204.355C557.986 204.59 557.662 204.78 557.276 204.927C556.895 205.073 556.443 205.146 555.921 205.146ZM563.875 205.146C563.323 205.146 562.823 205.054 562.374 204.868C561.929 204.678 561.546 204.412 561.224 204.07C560.906 203.728 560.662 203.323 560.491 202.854C560.32 202.385 560.235 201.873 560.235 201.316V201.008C560.235 200.364 560.33 199.79 560.521 199.287C560.711 198.779 560.97 198.35 561.297 197.998C561.624 197.646 561.995 197.38 562.41 197.2C562.825 197.019 563.255 196.929 563.699 196.929C564.266 196.929 564.754 197.026 565.164 197.222C565.579 197.417 565.918 197.69 566.182 198.042C566.446 198.389 566.641 198.799 566.768 199.272C566.895 199.741 566.958 200.254 566.958 200.811V201.418H561.041V200.312H565.604V200.21C565.584 199.858 565.511 199.517 565.384 199.185C565.262 198.853 565.066 198.579 564.798 198.364C564.529 198.149 564.163 198.042 563.699 198.042C563.392 198.042 563.108 198.108 562.85 198.24C562.591 198.367 562.369 198.557 562.183 198.811C561.998 199.065 561.854 199.375 561.751 199.741C561.648 200.107 561.597 200.53 561.597 201.008V201.316C561.597 201.692 561.648 202.046 561.751 202.378C561.858 202.705 562.012 202.993 562.212 203.242C562.417 203.491 562.664 203.687 562.952 203.828C563.245 203.97 563.577 204.041 563.948 204.041C564.427 204.041 564.832 203.943 565.164 203.748C565.496 203.552 565.787 203.291 566.036 202.964L566.856 203.616C566.685 203.875 566.468 204.121 566.204 204.355C565.94 204.59 565.616 204.78 565.23 204.927C564.849 205.073 564.397 205.146 563.875 205.146Z" fill="#4C4C4C"/>
</g>
<path d="M456 40.5H824C832.56 40.5 839.5 47.4396 839.5 56V216C839.5 224.56 832.56 231.5 824 231.5H456C447.44 231.5 440.5 224.56 440.5 216V56C440.5 47.4396 447.44 40.5 456 40.5Z" stroke="#E6E6E6"/>
<path d="M840 168H864V104H840" stroke="#0059FF" stroke-dasharray="4 4"/>
<path d="M874.344 134.973V140H872.65V133.66H874.238L874.344 134.973ZM874.109 136.607H873.641C873.641 136.166 873.693 135.76 873.799 135.389C873.908 135.014 874.066 134.689 874.273 134.416C874.484 134.139 874.744 133.924 875.053 133.771C875.361 133.619 875.719 133.543 876.125 133.543C876.406 133.543 876.664 133.586 876.898 133.672C877.133 133.754 877.334 133.885 877.502 134.064C877.674 134.24 877.807 134.471 877.9 134.756C877.994 135.037 878.041 135.375 878.041 135.77V140H876.354V135.957C876.354 135.668 876.314 135.445 876.236 135.289C876.158 135.133 876.047 135.023 875.902 134.961C875.762 134.898 875.592 134.867 875.393 134.867C875.174 134.867 874.982 134.912 874.818 135.002C874.658 135.092 874.525 135.217 874.42 135.377C874.314 135.533 874.236 135.717 874.186 135.928C874.135 136.139 874.109 136.365 874.109 136.607ZM877.883 136.414L877.279 136.49C877.279 136.076 877.33 135.691 877.432 135.336C877.537 134.98 877.691 134.668 877.895 134.398C878.102 134.129 878.357 133.92 878.662 133.771C878.967 133.619 879.318 133.543 879.717 133.543C880.021 133.543 880.299 133.588 880.549 133.678C880.799 133.764 881.012 133.902 881.188 134.094C881.367 134.281 881.504 134.527 881.598 134.832C881.695 135.137 881.744 135.51 881.744 135.951V140H880.051V135.951C880.051 135.658 880.012 135.436 879.934 135.283C879.859 135.127 879.75 135.02 879.605 134.961C879.465 134.898 879.297 134.867 879.102 134.867C878.898 134.867 878.721 134.908 878.568 134.99C878.416 135.068 878.289 135.178 878.188 135.318C878.086 135.459 878.01 135.623 877.959 135.811C877.908 135.994 877.883 136.195 877.883 136.414ZM884.832 133.66V140H883.139V133.66H884.832ZM883.033 132.008C883.033 131.762 883.119 131.559 883.291 131.398C883.463 131.238 883.693 131.158 883.982 131.158C884.268 131.158 884.496 131.238 884.668 131.398C884.844 131.559 884.932 131.762 884.932 132.008C884.932 132.254 884.844 132.457 884.668 132.617C884.496 132.777 884.268 132.857 883.982 132.857C883.693 132.857 883.463 132.777 883.291 132.617C883.119 132.457 883.033 132.254 883.033 132.008ZM887.879 135.014V140H886.191V133.66H887.773L887.879 135.014ZM887.633 136.607H887.176C887.176 136.139 887.236 135.717 887.357 135.342C887.479 134.963 887.648 134.641 887.867 134.375C888.086 134.105 888.346 133.9 888.646 133.76C888.951 133.615 889.291 133.543 889.666 133.543C889.963 133.543 890.234 133.586 890.48 133.672C890.727 133.758 890.938 133.895 891.113 134.082C891.293 134.27 891.43 134.518 891.523 134.826C891.621 135.135 891.67 135.512 891.67 135.957V140H889.971V135.951C889.971 135.67 889.932 135.451 889.854 135.295C889.775 135.139 889.66 135.029 889.508 134.967C889.359 134.9 889.176 134.867 888.957 134.867C888.73 134.867 888.533 134.912 888.365 135.002C888.201 135.092 888.064 135.217 887.955 135.377C887.85 135.533 887.77 135.717 887.715 135.928C887.66 136.139 887.633 136.365 887.633 136.607ZM896.281 135.676V137H892.971V135.676H896.281ZM899.334 131V140H897.646V131H899.334ZM899.094 136.607H898.631C898.635 136.166 898.693 135.76 898.807 135.389C898.92 135.014 899.082 134.689 899.293 134.416C899.504 134.139 899.756 133.924 900.049 133.771C900.346 133.619 900.674 133.543 901.033 133.543C901.346 133.543 901.629 133.588 901.883 133.678C902.141 133.764 902.361 133.904 902.545 134.1C902.732 134.291 902.877 134.543 902.979 134.855C903.08 135.168 903.131 135.547 903.131 135.992V140H901.432V135.98C901.432 135.699 901.391 135.479 901.309 135.318C901.23 135.154 901.115 135.039 900.963 134.973C900.814 134.902 900.631 134.867 900.412 134.867C900.17 134.867 899.963 134.912 899.791 135.002C899.623 135.092 899.488 135.217 899.387 135.377C899.285 135.533 899.211 135.717 899.164 135.928C899.117 136.139 899.094 136.365 899.094 136.607ZM907.332 140.117C906.84 140.117 906.398 140.039 906.008 139.883C905.617 139.723 905.285 139.502 905.012 139.221C904.742 138.939 904.535 138.613 904.391 138.242C904.246 137.867 904.174 137.469 904.174 137.047V136.812C904.174 136.332 904.242 135.893 904.379 135.494C904.516 135.096 904.711 134.75 904.965 134.457C905.223 134.164 905.535 133.939 905.902 133.783C906.27 133.623 906.684 133.543 907.145 133.543C907.594 133.543 907.992 133.617 908.34 133.766C908.688 133.914 908.979 134.125 909.213 134.398C909.451 134.672 909.631 135 909.752 135.383C909.873 135.762 909.934 136.184 909.934 136.648V137.352H904.895V136.227H908.275V136.098C908.275 135.863 908.232 135.654 908.146 135.471C908.064 135.283 907.939 135.135 907.771 135.025C907.604 134.916 907.389 134.861 907.127 134.861C906.904 134.861 906.713 134.91 906.553 135.008C906.393 135.105 906.262 135.242 906.16 135.418C906.062 135.594 905.988 135.801 905.938 136.039C905.891 136.273 905.867 136.531 905.867 136.812V137.047C905.867 137.301 905.902 137.535 905.973 137.75C906.047 137.965 906.15 138.15 906.283 138.307C906.42 138.463 906.584 138.584 906.775 138.67C906.971 138.756 907.191 138.799 907.438 138.799C907.742 138.799 908.025 138.74 908.287 138.623C908.553 138.502 908.781 138.32 908.973 138.078L909.793 138.969C909.66 139.16 909.479 139.344 909.248 139.52C909.021 139.695 908.748 139.84 908.428 139.953C908.107 140.062 907.742 140.117 907.332 140.117ZM912.676 133.66V140H910.982V133.66H912.676ZM910.877 132.008C910.877 131.762 910.963 131.559 911.135 131.398C911.307 131.238 911.537 131.158 911.826 131.158C912.111 131.158 912.34 131.238 912.512 131.398C912.688 131.559 912.775 131.762 912.775 132.008C912.775 132.254 912.688 132.457 912.512 132.617C912.34 132.777 912.111 132.857 911.826 132.857C911.537 132.857 911.307 132.777 911.135 132.617C910.963 132.457 910.877 132.254 910.877 132.008ZM918.084 133.66H919.613V139.789C919.613 140.367 919.484 140.857 919.227 141.26C918.973 141.666 918.617 141.973 918.16 142.18C917.703 142.391 917.172 142.496 916.566 142.496C916.301 142.496 916.02 142.461 915.723 142.391C915.43 142.32 915.148 142.211 914.879 142.062C914.613 141.914 914.391 141.727 914.211 141.5L914.955 140.504C915.15 140.73 915.377 140.906 915.635 141.031C915.893 141.16 916.178 141.225 916.49 141.225C916.795 141.225 917.053 141.168 917.264 141.055C917.475 140.945 917.637 140.783 917.75 140.568C917.863 140.357 917.92 140.102 917.92 139.801V135.125L918.084 133.66ZM913.818 136.906V136.783C913.818 136.299 913.877 135.859 913.994 135.465C914.115 135.066 914.285 134.725 914.504 134.439C914.727 134.154 914.996 133.934 915.312 133.777C915.629 133.621 915.986 133.543 916.385 133.543C916.807 133.543 917.16 133.621 917.445 133.777C917.73 133.934 917.965 134.156 918.148 134.445C918.332 134.73 918.475 135.068 918.576 135.459C918.682 135.846 918.764 136.27 918.822 136.73V137C918.764 137.441 918.676 137.852 918.559 138.23C918.441 138.609 918.287 138.941 918.096 139.227C917.904 139.508 917.666 139.727 917.381 139.883C917.1 140.039 916.764 140.117 916.373 140.117C915.982 140.117 915.629 140.037 915.312 139.877C915 139.717 914.732 139.492 914.51 139.203C914.287 138.914 914.115 138.574 913.994 138.184C913.877 137.793 913.818 137.367 913.818 136.906ZM915.506 136.783V136.906C915.506 137.168 915.531 137.412 915.582 137.639C915.633 137.865 915.711 138.066 915.816 138.242C915.926 138.414 916.061 138.549 916.221 138.646C916.385 138.74 916.578 138.787 916.801 138.787C917.109 138.787 917.361 138.723 917.557 138.594C917.752 138.461 917.898 138.279 917.996 138.049C918.094 137.818 918.15 137.553 918.166 137.252V136.484C918.158 136.238 918.125 136.018 918.066 135.822C918.008 135.623 917.926 135.453 917.82 135.312C917.715 135.172 917.578 135.062 917.41 134.984C917.242 134.906 917.043 134.867 916.812 134.867C916.59 134.867 916.396 134.918 916.232 135.02C916.072 135.117 915.938 135.252 915.828 135.424C915.723 135.596 915.643 135.799 915.588 136.033C915.533 136.264 915.506 136.514 915.506 136.783ZM922.572 131V140H920.885V131H922.572ZM922.332 136.607H921.869C921.873 136.166 921.932 135.76 922.045 135.389C922.158 135.014 922.32 134.689 922.531 134.416C922.742 134.139 922.994 133.924 923.287 133.771C923.584 133.619 923.912 133.543 924.271 133.543C924.584 133.543 924.867 133.588 925.121 133.678C925.379 133.764 925.6 133.904 925.783 134.1C925.971 134.291 926.115 134.543 926.217 134.855C926.318 135.168 926.369 135.547 926.369 135.992V140H924.67V135.98C924.67 135.699 924.629 135.479 924.547 135.318C924.469 135.154 924.354 135.039 924.201 134.973C924.053 134.902 923.869 134.867 923.65 134.867C923.408 134.867 923.201 134.912 923.029 135.002C922.861 135.092 922.727 135.217 922.625 135.377C922.523 135.533 922.449 135.717 922.402 135.928C922.355 136.139 922.332 136.365 922.332 136.607ZM930.758 133.66V134.855H927.066V133.66H930.758ZM927.98 132.096H929.668V138.09C929.668 138.273 929.691 138.414 929.738 138.512C929.789 138.609 929.863 138.678 929.961 138.717C930.059 138.752 930.182 138.77 930.33 138.77C930.436 138.77 930.529 138.766 930.611 138.758C930.697 138.746 930.77 138.734 930.828 138.723L930.834 139.965C930.689 140.012 930.533 140.049 930.365 140.076C930.197 140.104 930.012 140.117 929.809 140.117C929.438 140.117 929.113 140.057 928.836 139.936C928.562 139.811 928.352 139.611 928.203 139.338C928.055 139.064 927.98 138.705 927.98 138.26V132.096ZM931.783 139.186C931.783 138.936 931.869 138.727 932.041 138.559C932.217 138.391 932.449 138.307 932.738 138.307C933.027 138.307 933.258 138.391 933.43 138.559C933.605 138.727 933.693 138.936 933.693 139.186C933.693 139.436 933.605 139.645 933.43 139.812C933.258 139.98 933.027 140.064 932.738 140.064C932.449 140.064 932.217 139.98 932.041 139.812C931.869 139.645 931.783 139.436 931.783 139.186ZM931.783 134.352C931.783 134.102 931.869 133.893 932.041 133.725C932.217 133.557 932.449 133.473 932.738 133.473C933.027 133.473 933.258 133.557 933.43 133.725C933.605 133.893 933.693 134.102 933.693 134.352C933.693 134.602 933.605 134.811 933.43 134.979C933.258 135.146 933.027 135.23 932.738 135.23C932.449 135.23 932.217 135.146 932.041 134.979C931.869 134.811 931.783 134.602 931.783 134.352ZM942.377 131.381H942.623V132.729H942.523C942.078 132.729 941.682 132.795 941.334 132.928C940.986 133.061 940.691 133.25 940.449 133.496C940.211 133.738 940.027 134.031 939.898 134.375C939.773 134.719 939.711 135.104 939.711 135.529V136.947C939.711 137.252 939.74 137.521 939.799 137.756C939.861 137.986 939.949 138.18 940.062 138.336C940.18 138.488 940.316 138.604 940.473 138.682C940.629 138.756 940.805 138.793 941 138.793C941.184 138.793 941.35 138.754 941.498 138.676C941.65 138.598 941.779 138.488 941.885 138.348C941.994 138.203 942.076 138.035 942.131 137.844C942.189 137.648 942.219 137.436 942.219 137.205C942.219 136.975 942.189 136.762 942.131 136.566C942.076 136.371 941.994 136.203 941.885 136.062C941.775 135.918 941.643 135.807 941.486 135.729C941.33 135.65 941.154 135.611 940.959 135.611C940.693 135.611 940.459 135.674 940.256 135.799C940.057 135.92 939.9 136.076 939.787 136.268C939.674 136.459 939.613 136.66 939.605 136.871L939.096 136.543C939.107 136.242 939.17 135.957 939.283 135.688C939.4 135.418 939.561 135.18 939.764 134.973C939.971 134.762 940.219 134.598 940.508 134.48C940.797 134.359 941.123 134.299 941.486 134.299C941.885 134.299 942.234 134.375 942.535 134.527C942.84 134.68 943.094 134.889 943.297 135.154C943.5 135.42 943.652 135.727 943.754 136.074C943.855 136.422 943.906 136.793 943.906 137.188C943.906 137.602 943.838 137.986 943.701 138.342C943.568 138.697 943.375 139.008 943.121 139.273C942.871 139.539 942.57 139.746 942.219 139.895C941.867 140.043 941.473 140.117 941.035 140.117C940.582 140.117 940.17 140.035 939.799 139.871C939.432 139.703 939.115 139.469 938.85 139.168C938.584 138.867 938.379 138.51 938.234 138.096C938.094 137.682 938.023 137.229 938.023 136.736V136.08C938.023 135.393 938.123 134.764 938.322 134.193C938.525 133.619 938.816 133.123 939.195 132.705C939.574 132.283 940.031 131.957 940.566 131.727C941.102 131.496 941.705 131.381 942.377 131.381ZM950.891 136.812V138.137H944.744L944.662 137.111L948.219 131.469H949.561L948.107 133.9L946.338 136.812H950.891ZM949.924 131.469V140H948.236V131.469H949.924ZM953.562 134.879V142.438H951.875V133.66H953.439L953.562 134.879ZM957.576 136.76V136.883C957.576 137.344 957.521 137.771 957.412 138.166C957.307 138.561 957.15 138.904 956.943 139.197C956.736 139.486 956.479 139.713 956.17 139.877C955.865 140.037 955.514 140.117 955.115 140.117C954.729 140.117 954.393 140.039 954.107 139.883C953.822 139.727 953.582 139.508 953.387 139.227C953.195 138.941 953.041 138.611 952.924 138.236C952.807 137.861 952.717 137.459 952.654 137.029V136.707C952.717 136.246 952.807 135.824 952.924 135.441C953.041 135.055 953.195 134.721 953.387 134.439C953.582 134.154 953.82 133.934 954.102 133.777C954.387 133.621 954.721 133.543 955.104 133.543C955.506 133.543 955.859 133.619 956.164 133.771C956.473 133.924 956.73 134.143 956.938 134.428C957.148 134.713 957.307 135.053 957.412 135.447C957.521 135.842 957.576 136.279 957.576 136.76ZM955.883 136.883V136.76C955.883 136.49 955.859 136.242 955.812 136.016C955.77 135.785 955.699 135.584 955.602 135.412C955.508 135.24 955.383 135.107 955.227 135.014C955.074 134.916 954.889 134.867 954.67 134.867C954.439 134.867 954.242 134.904 954.078 134.979C953.918 135.053 953.787 135.16 953.686 135.301C953.584 135.441 953.508 135.609 953.457 135.805C953.406 136 953.375 136.221 953.363 136.467V137.281C953.383 137.57 953.438 137.83 953.527 138.061C953.617 138.287 953.756 138.467 953.943 138.6C954.131 138.732 954.377 138.799 954.682 138.799C954.904 138.799 955.092 138.75 955.244 138.652C955.396 138.551 955.52 138.412 955.613 138.236C955.711 138.061 955.779 137.857 955.818 137.627C955.861 137.396 955.883 137.148 955.883 136.883ZM959.891 133.66L960.939 135.588L962.018 133.66H963.816L962.023 136.76L963.898 140H962.094L960.951 137.961L959.809 140H958.004L959.879 136.76L958.086 133.66H959.891Z" fill="#0059FF"/>
<path d="M418.699 106.451V115H417.012V108.396L414.984 109.041V107.711L418.518 106.451H418.699ZM425.83 106.381H426.076V107.729H425.977C425.531 107.729 425.135 107.795 424.787 107.928C424.439 108.061 424.145 108.25 423.902 108.496C423.664 108.738 423.48 109.031 423.352 109.375C423.227 109.719 423.164 110.104 423.164 110.529V111.947C423.164 112.252 423.193 112.521 423.252 112.756C423.314 112.986 423.402 113.18 423.516 113.336C423.633 113.488 423.77 113.604 423.926 113.682C424.082 113.756 424.258 113.793 424.453 113.793C424.637 113.793 424.803 113.754 424.951 113.676C425.104 113.598 425.232 113.488 425.338 113.348C425.447 113.203 425.529 113.035 425.584 112.844C425.643 112.648 425.672 112.436 425.672 112.205C425.672 111.975 425.643 111.762 425.584 111.566C425.529 111.371 425.447 111.203 425.338 111.062C425.229 110.918 425.096 110.807 424.939 110.729C424.783 110.65 424.607 110.611 424.412 110.611C424.146 110.611 423.912 110.674 423.709 110.799C423.51 110.92 423.354 111.076 423.24 111.268C423.127 111.459 423.066 111.66 423.059 111.871L422.549 111.543C422.561 111.242 422.623 110.957 422.736 110.688C422.854 110.418 423.014 110.18 423.217 109.973C423.424 109.762 423.672 109.598 423.961 109.48C424.25 109.359 424.576 109.299 424.939 109.299C425.338 109.299 425.688 109.375 425.988 109.527C426.293 109.68 426.547 109.889 426.75 110.154C426.953 110.42 427.105 110.727 427.207 111.074C427.309 111.422 427.359 111.793 427.359 112.188C427.359 112.602 427.291 112.986 427.154 113.342C427.021 113.697 426.828 114.008 426.574 114.273C426.324 114.539 426.023 114.746 425.672 114.895C425.32 115.043 424.926 115.117 424.488 115.117C424.035 115.117 423.623 115.035 423.252 114.871C422.885 114.703 422.568 114.469 422.303 114.168C422.037 113.867 421.832 113.51 421.688 113.096C421.547 112.682 421.477 112.229 421.477 111.736V111.08C421.477 110.393 421.576 109.764 421.775 109.193C421.979 108.619 422.27 108.123 422.648 107.705C423.027 107.283 423.484 106.957 424.02 106.727C424.555 106.496 425.158 106.381 425.83 106.381Z" fill="#18A847"/>
<rect x="432" y="103" width="408" height="1" fill="#18A847"/>
<g opacity="0.2">
<rect width="408" height="14" transform="translate(432 104)" fill="#18A847"/>
</g>
<rect x="432" y="118" width="408" height="1" fill="#18A847"/>
<path d="M418.699 155.451V164H417.012V157.396L414.984 158.041V156.711L418.518 155.451H418.699ZM425.83 155.381H426.076V156.729H425.977C425.531 156.729 425.135 156.795 424.787 156.928C424.439 157.061 424.145 157.25 423.902 157.496C423.664 157.738 423.48 158.031 423.352 158.375C423.227 158.719 423.164 159.104 423.164 159.529V160.947C423.164 161.252 423.193 161.521 423.252 161.756C423.314 161.986 423.402 162.18 423.516 162.336C423.633 162.488 423.77 162.604 423.926 162.682C424.082 162.756 424.258 162.793 424.453 162.793C424.637 162.793 424.803 162.754 424.951 162.676C425.104 162.598 425.232 162.488 425.338 162.348C425.447 162.203 425.529 162.035 425.584 161.844C425.643 161.648 425.672 161.436 425.672 161.205C425.672 160.975 425.643 160.762 425.584 160.566C425.529 160.371 425.447 160.203 425.338 160.062C425.229 159.918 425.096 159.807 424.939 159.729C424.783 159.65 424.607 159.611 424.412 159.611C424.146 159.611 423.912 159.674 423.709 159.799C423.51 159.92 423.354 160.076 423.24 160.268C423.127 160.459 423.066 160.66 423.059 160.871L422.549 160.543C422.561 160.242 422.623 159.957 422.736 159.688C422.854 159.418 423.014 159.18 423.217 158.973C423.424 158.762 423.672 158.598 423.961 158.48C424.25 158.359 424.576 158.299 424.939 158.299C425.338 158.299 425.688 158.375 425.988 158.527C426.293 158.68 426.547 158.889 426.75 159.154C426.953 159.42 427.105 159.727 427.207 160.074C427.309 160.422 427.359 160.793 427.359 161.188C427.359 161.602 427.291 161.986 427.154 162.342C427.021 162.697 426.828 163.008 426.574 163.273C426.324 163.539 426.023 163.746 425.672 163.895C425.32 164.043 424.926 164.117 424.488 164.117C424.035 164.117 423.623 164.035 423.252 163.871C422.885 163.703 422.568 163.469 422.303 163.168C422.037 162.867 421.832 162.51 421.688 162.096C421.547 161.682 421.477 161.229 421.477 160.736V160.08C421.477 159.393 421.576 158.764 421.775 158.193C421.979 157.619 422.27 157.123 422.648 156.705C423.027 156.283 423.484 155.957 424.02 155.727C424.555 155.496 425.158 155.381 425.83 155.381Z" fill="#18A847"/>
<rect x="432" y="152" width="408" height="1" fill="#18A847"/>
<g opacity="0.2">
<rect width="408" height="14" transform="translate(432 153)" fill="#18A847"/>
</g>
<rect x="432" y="167" width="408" height="1" fill="#18A847"/>
<rect x="808" y="32" width="1" height="208" fill="#18A847"/>
<g opacity="0.2">
<rect width="30" height="208" transform="translate(809 32)" fill="#18A847"/>
</g>
<rect x="839" y="32" width="1" height="208" fill="#18A847"/>
<path d="M819.314 250.002H820.217C820.506 250.002 820.744 249.953 820.932 249.855C821.119 249.754 821.258 249.613 821.348 249.434C821.441 249.25 821.488 249.037 821.488 248.795C821.488 248.576 821.445 248.383 821.359 248.215C821.277 248.043 821.15 247.91 820.979 247.816C820.807 247.719 820.59 247.67 820.328 247.67C820.121 247.67 819.93 247.711 819.754 247.793C819.578 247.875 819.438 247.99 819.332 248.139C819.227 248.287 819.174 248.467 819.174 248.678H817.48C817.48 248.209 817.605 247.801 817.855 247.453C818.109 247.105 818.449 246.834 818.875 246.639C819.301 246.443 819.77 246.346 820.281 246.346C820.859 246.346 821.365 246.439 821.799 246.627C822.232 246.811 822.57 247.082 822.812 247.441C823.055 247.801 823.176 248.246 823.176 248.777C823.176 249.047 823.113 249.309 822.988 249.562C822.863 249.812 822.684 250.039 822.449 250.242C822.219 250.441 821.938 250.602 821.605 250.723C821.273 250.84 820.9 250.898 820.486 250.898H819.314V250.002ZM819.314 251.285V250.412H820.486C820.951 250.412 821.359 250.465 821.711 250.57C822.062 250.676 822.357 250.828 822.596 251.027C822.834 251.223 823.014 251.455 823.135 251.725C823.256 251.99 823.316 252.285 823.316 252.609C823.316 253.008 823.24 253.363 823.088 253.676C822.936 253.984 822.721 254.246 822.443 254.461C822.17 254.676 821.85 254.84 821.482 254.953C821.115 255.062 820.715 255.117 820.281 255.117C819.922 255.117 819.568 255.068 819.221 254.971C818.877 254.869 818.564 254.719 818.283 254.52C818.006 254.316 817.783 254.062 817.615 253.758C817.451 253.449 817.369 253.084 817.369 252.662H819.062C819.062 252.881 819.117 253.076 819.227 253.248C819.336 253.42 819.486 253.555 819.678 253.652C819.873 253.75 820.09 253.799 820.328 253.799C820.598 253.799 820.828 253.75 821.02 253.652C821.215 253.551 821.363 253.41 821.465 253.23C821.57 253.047 821.623 252.834 821.623 252.592C821.623 252.279 821.566 252.029 821.453 251.842C821.34 251.65 821.178 251.51 820.967 251.42C820.756 251.33 820.506 251.285 820.217 251.285H819.314ZM830.312 253.682V255H824.477V253.875L827.236 250.916C827.514 250.607 827.732 250.336 827.893 250.102C828.053 249.863 828.168 249.65 828.238 249.463C828.312 249.271 828.35 249.09 828.35 248.918C828.35 248.66 828.307 248.439 828.221 248.256C828.135 248.068 828.008 247.924 827.84 247.822C827.676 247.721 827.473 247.67 827.23 247.67C826.973 247.67 826.75 247.732 826.562 247.857C826.379 247.982 826.238 248.156 826.141 248.379C826.047 248.602 826 248.854 826 249.135H824.307C824.307 248.627 824.428 248.162 824.67 247.74C824.912 247.314 825.254 246.977 825.695 246.727C826.137 246.473 826.66 246.346 827.266 246.346C827.863 246.346 828.367 246.443 828.777 246.639C829.191 246.83 829.504 247.107 829.715 247.471C829.93 247.83 830.037 248.26 830.037 248.76C830.037 249.041 829.992 249.316 829.902 249.586C829.812 249.852 829.684 250.117 829.516 250.383C829.352 250.645 829.152 250.91 828.918 251.18C828.684 251.449 828.424 251.729 828.139 252.018L826.656 253.682H830.312Z" fill="#18A847"/>
<rect x="440" y="32" width="1" height="208" fill="#18A847"/>
<g opacity="0.2">
<rect width="30" height="208" transform="translate(441 32)" fill="#18A847"/>
</g>
<rect x="471" y="32" width="1" height="208" fill="#18A847"/>
<path d="M451.314 250.002H452.217C452.506 250.002 452.744 249.953 452.932 249.855C453.119 249.754 453.258 249.613 453.348 249.434C453.441 249.25 453.488 249.037 453.488 248.795C453.488 248.576 453.445 248.383 453.359 248.215C453.277 248.043 453.15 247.91 452.979 247.816C452.807 247.719 452.59 247.67 452.328 247.67C452.121 247.67 451.93 247.711 451.754 247.793C451.578 247.875 451.438 247.99 451.332 248.139C451.227 248.287 451.174 248.467 451.174 248.678H449.48C449.48 248.209 449.605 247.801 449.855 247.453C450.109 247.105 450.449 246.834 450.875 246.639C451.301 246.443 451.77 246.346 452.281 246.346C452.859 246.346 453.365 246.439 453.799 246.627C454.232 246.811 454.57 247.082 454.812 247.441C455.055 247.801 455.176 248.246 455.176 248.777C455.176 249.047 455.113 249.309 454.988 249.562C454.863 249.812 454.684 250.039 454.449 250.242C454.219 250.441 453.938 250.602 453.605 250.723C453.273 250.84 452.9 250.898 452.486 250.898H451.314V250.002ZM451.314 251.285V250.412H452.486C452.951 250.412 453.359 250.465 453.711 250.57C454.062 250.676 454.357 250.828 454.596 251.027C454.834 251.223 455.014 251.455 455.135 251.725C455.256 251.99 455.316 252.285 455.316 252.609C455.316 253.008 455.24 253.363 455.088 253.676C454.936 253.984 454.721 254.246 454.443 254.461C454.17 254.676 453.85 254.84 453.482 254.953C453.115 255.062 452.715 255.117 452.281 255.117C451.922 255.117 451.568 255.068 451.221 254.971C450.877 254.869 450.564 254.719 450.283 254.52C450.006 254.316 449.783 254.062 449.615 253.758C449.451 253.449 449.369 253.084 449.369 252.662H451.062C451.062 252.881 451.117 253.076 451.227 253.248C451.336 253.42 451.486 253.555 451.678 253.652C451.873 253.75 452.09 253.799 452.328 253.799C452.598 253.799 452.828 253.75 453.02 253.652C453.215 253.551 453.363 253.41 453.465 253.23C453.57 253.047 453.623 252.834 453.623 252.592C453.623 252.279 453.566 252.029 453.453 251.842C453.34 251.65 453.178 251.51 452.967 251.42C452.756 251.33 452.506 251.285 452.217 251.285H451.314ZM462.312 253.682V255H456.477V253.875L459.236 250.916C459.514 250.607 459.732 250.336 459.893 250.102C460.053 249.863 460.168 249.65 460.238 249.463C460.312 249.271 460.35 249.09 460.35 248.918C460.35 248.66 460.307 248.439 460.221 248.256C460.135 248.068 460.008 247.924 459.84 247.822C459.676 247.721 459.473 247.67 459.23 247.67C458.973 247.67 458.75 247.732 458.562 247.857C458.379 247.982 458.238 248.156 458.141 248.379C458.047 248.602 458 248.854 458 249.135H456.307C456.307 248.627 456.428 248.162 456.67 247.74C456.912 247.314 457.254 246.977 457.695 246.727C458.137 246.473 458.66 246.346 459.266 246.346C459.863 246.346 460.367 246.443 460.777 246.639C461.191 246.83 461.504 247.107 461.715 247.471C461.93 247.83 462.037 248.26 462.037 248.76C462.037 249.041 461.992 249.316 461.902 249.586C461.812 249.852 461.684 250.117 461.516 250.383C461.352 250.645 461.152 250.91 460.918 251.18C460.684 251.449 460.424 251.729 460.139 252.018L458.656 253.682H462.312Z" fill="#18A847"/>
<defs>
<clipPath id="clip0_16582_3132">
<path d="M440 56C440 47.1634 447.163 40 456 40H824C832.837 40 840 47.1634 840 56V216C840 224.837 832.837 232 824 232H456C447.163 232 440 224.837 440 216V56Z" fill="white"/>
</clipPath>
</defs>
</svg>
