<?xml version="1.0" standalone="no"?>
<!DOCTYPE svg PUBLIC "-//W3C//DTD SVG 1.1//EN" "http://www.w3.org/Graphics/SVG/1.1/DTD/svg11.dtd" >
<svg xmlns="http://www.w3.org/2000/svg">
<metadata>Generated by IcoMoon</metadata>
<defs>
<font id="sui-icons" horiz-adv-x="1024">
<font-face units-per-em="1024" ascent="960" descent="-64" />
<missing-glyph horiz-adv-x="1024" />
<glyph unicode="&#x20;" horiz-adv-x="512" d="" />
<glyph unicode="&#xe900;" glyph-name="plugin-beehive" d="M714.671 465.451h-81.067v-193.937h81.067v193.937zM512 764.896l324.267-170.665v-335.129l-324.267-170.662-324.267 170.662v335.129l324.267 170.665zM512 853.334l-405.333-213.333v-426.667l405.333-213.333 405.333 213.333v426.667l-405.333 213.333zM390.401 349.090h-81.067v-77.577h81.067v77.577zM552.538 581.817h-81.067v-310.303h81.067v310.303z" />
<glyph unicode="&#xe901;" glyph-name="plugin-blc" d="M683.695-0c-21.918 0-43.836 2.978-65.754 8.939l-40.875 11.324c-22.511 5.956-36.139 29.197-30.212 52.437 5.922 22.643 29.026 36.352 52.13 30.391l40.875-11.324c90.044-24.431 183.642 29.798 207.932 121.566 11.844 44.096 5.922 90.577-16.589 129.907s-59.238 67.934-103.078 79.851l-100.706 25.028c-22.511 5.961-36.727 28.604-30.805 51.844 5.926 22.643 28.437 36.945 51.541 30.986l101.299-25.623c66.347-17.877 121.438-60.186 155.204-119.778 33.766-59.588 42.654-128.713 25.476-194.859-30.805-115.012-133.884-190.69-246.438-190.69zM340.7-0c-112.555 0-215.632 75.678-246.436 190.69-17.772 66.146-8.886 135.27 25.473 194.859 33.766 59.593 88.859 101.901 154.615 119.778l100.707 29.794c22.511 6.555 46.207-5.959 52.722-28.604 6.519-22.643-5.923-46.481-28.433-53.035l-101.892-30.391c-45.022-11.917-81.158-40.521-104.262-79.851-22.511-39.33-28.435-85.811-16.587-129.907 24.288-91.174 117.887-145.997 207.93-121.566l40.875 11.324c22.511 5.961 45.615-7.151 52.131-30.391 5.922-22.643-7.108-45.884-30.212-52.437l-40.875-11.324c-22.511-5.961-44.43-8.939-65.756-8.939zM258.949 234.786c-5.924 22.643 7.109 45.884 30.212 52.437l113.74 30.989c22.511 5.961 45.615-7.151 52.131-30.391 5.922-22.643-7.108-45.884-30.212-52.437l-113.74-30.989c-23.103-5.961-46.207 7.748-52.131 30.391zM713.314 204.992l-113.737 30.985c-22.511 5.961-36.139 29.201-30.212 52.442 5.922 22.643 29.026 36.348 52.13 30.391l113.741-30.989c22.511-5.956 36.134-29.197 30.212-52.437-5.926-23.241-29.623-36.949-52.134-30.391zM511.902 649.535c-23.697 0-42.654 19.069-42.654 42.905v117.989c0 23.836 18.957 42.905 42.654 42.905s42.654-19.069 42.654-42.905v-118.585c0-23.24-18.957-42.309-42.654-42.309zM667.703 605.438c-20.143 11.918-27.251 38.138-15.403 58.399l59.238 102.495c11.849 20.261 37.914 27.412 58.057 15.494 20.139-11.918 27.247-38.138 15.398-58.398l-59.831-102.496c-11.255-20.261-37.321-27.412-57.459-15.494zM301.009 620.931l-59.24 102.496c-11.848 20.261-4.739 46.48 15.402 58.398s46.207 4.767 58.055-15.494l59.239-102.495c11.848-20.261 4.739-46.481-15.402-58.399s-46.207-4.767-58.054 15.494z" />
<glyph unicode="&#xe902;" glyph-name="plugin-branda" d="M820.48 509.44l-258.56 258.56h-391.253v-388.267l292.693-260.267 357.12 389.973zM85.333 853.334h512l341.333-341.333-469.333-512-384 341.333v512zM241.777 714.547c10.525 7.032 22.899 10.787 35.557 10.787 16.974 0 33.253-6.743 45.255-18.745s18.745-28.282 18.745-45.255c0-12.658-3.754-25.033-10.787-35.557s-17.027-18.726-28.721-23.57c-11.695-4.844-24.564-6.113-36.979-3.643s-23.818 8.565-32.768 17.516c-8.951 8.951-15.046 20.353-17.516 32.768s-1.201 25.285 3.643 36.979c4.844 11.694 13.046 21.689 23.57 28.721z" />
<glyph unicode="&#xe903;" glyph-name="plugin-dashboard" d="M917.943 114.902c13.756 23.962 20.924 51.426 20.719 79.373v614.458h-110.46v-614.56c0.013-4.787-0.917-9.523-2.735-13.914s-4.48-8.341-7.825-11.605c-7.77-7.044-17.707-10.923-27.985-10.923-10.283 0-20.22 3.878-27.989 10.923-3.315 3.281-5.956 7.236-7.753 11.627-1.801 4.39-2.722 9.118-2.705 13.892v462.691c0.512 20.059-2.918 40.015-10.078 58.631-7.164 18.616-17.903 35.496-31.556 49.594-20.348 21.665-46.421 36.474-74.876 42.525s-57.988 3.068-84.809-8.565c-26.82-11.634-49.702-31.387-65.711-56.723-16.004-25.336-24.401-55.097-24.111-85.461v-462.691c0.077-4.74-0.764-9.442-2.479-13.828-1.711-4.386-4.258-8.367-7.484-11.691-3.716-3.708-8.115-6.583-12.924-8.465-4.809-1.877-9.933-2.722-15.063-2.475-5.133-0.282-10.267 0.542-15.083 2.423s-9.208 4.779-12.906 8.516c-3.343 3.264-6.006 7.215-7.823 11.605s-2.748 9.126-2.735 13.914v462.691c0.51 20.049-2.912 39.995-10.056 58.608s-17.857 35.499-31.479 49.617c-13.652 14.338-29.962 25.606-47.93 33.111s-37.213 11.090-56.554 10.533c-39.747 0.49-78.127-15.154-107.073-43.645-14.552-13.558-26.121-30.254-33.91-48.937s-11.614-38.91-11.21-59.287v-614.042h110.56v614.042c-0.078 4.737 0.765 9.442 2.477 13.828s4.258 8.364 7.483 11.692c7.769 7.043 17.707 10.921 27.988 10.921s20.219-3.878 27.988-10.921c3.329-3.278 5.983-7.232 7.798-11.62s2.755-9.118 2.76-13.9v-462.691c-0.498-20.049 2.929-39.991 10.072-58.603s17.85-35.499 31.462-49.626c13.634-14.187 29.88-25.335 47.754-32.764 17.874-7.433 37.004-10.991 56.232-10.462 39.817-0.644 78.332 14.844 107.473 43.226 14.537 13.577 26.103 30.272 33.907 48.951 7.804 18.675 11.661 38.895 11.311 59.277v462.691c0.922 8.997 4.992 17.32 11.426 23.368s14.784 9.394 23.437 9.394c8.653 0 16.998-3.346 23.433-9.394 6.438-6.048 10.505-14.371 11.426-23.368v-462.691c-0.23-27.964 6.976-55.445 20.817-79.373 13.052-23.258 32.294-42.044 55.381-54.063 22.596-11.849 47.531-18.018 72.811-18.018s50.21 6.17 72.806 18.018c23.258 11.968 42.65 30.797 55.778 54.165z" />
<glyph unicode="&#xe904;" glyph-name="plugin-defender" d="M512 853.334l-405.333-115.2v-354.133c0-174.933 200.533-384 405.333-384s405.333 209.067 405.333 384v354.133l-405.333 115.2zM827.733 384c0-123.733-157.867-298.667-315.733-298.667v341.333h-315.733v247.467l315.733 89.6v-337.067h315.733v-42.667z" />
<glyph unicode="&#xe905;" glyph-name="plugin-forminator" d="M625.638 776.587h168.435c21.376 0 41.873-8.183 56.99-22.747 15.113-14.564 23.603-34.316 23.603-54.912v-621.271c0-20.595-8.491-40.346-23.603-54.912-15.117-14.562-35.614-22.746-56.99-22.746h-564.148c-21.375 0-41.873 8.183-56.986 22.746-15.114 14.566-23.606 34.317-23.606 54.912v621.271c0 20.596 8.492 40.348 23.606 54.912s35.612 22.747 56.986 22.747h168.438c8.47 22.488 23.92 41.918 44.251 55.649s44.557 21.097 69.385 21.097c24.828 0 49.054-7.366 69.385-21.097s35.78-33.161 44.254-55.649zM534.387 770.044c-6.63 4.267-14.417 6.543-22.387 6.543-10.688 0-20.937-4.092-28.493-11.373s-11.802-17.158-11.802-27.456c0-7.68 2.359-15.186 6.788-21.571s10.722-11.364 18.086-14.303c7.36-2.939 15.467-3.707 23.279-2.209 7.817 1.498 14.997 5.196 20.634 10.627 5.632 5.43 9.472 12.349 11.029 19.881 1.553 7.532 0.755 15.339-2.295 22.434-3.046 7.095-8.213 13.16-14.839 17.426zM229.926 698.929v-621.271h564.148v621.271h-120.887v-77.658h-322.371v77.658h-120.889zM350.814 388.322h322.368c10.692 0 20.941-4.092 28.497-11.375 7.556-7.279 11.802-17.156 11.802-27.452 0-10.3-4.245-20.177-11.802-27.456-7.556-7.283-17.805-11.375-28.497-11.375h-322.368c-10.688 0-20.937 4.092-28.493 11.375-7.557 7.279-11.803 17.156-11.803 27.456 0 10.295 4.246 20.173 11.803 27.452 7.557 7.283 17.806 11.375 28.493 11.375zM673.182 504.811h-322.368c-10.688 0-20.937-4.092-28.493-11.375-7.557-7.279-11.803-17.156-11.803-27.456 0-10.295 4.246-20.173 11.803-27.452 7.557-7.283 17.806-11.375 28.493-11.375h322.368c10.692 0 20.941 4.092 28.497 11.375 7.556 7.279 11.802 17.156 11.802 27.452 0 10.3-4.245 20.177-11.802 27.456-7.556 7.283-17.805 11.375-28.497 11.375zM512 271.834h161.186c10.688 0 20.937-4.092 28.493-11.371 7.556-7.283 11.802-17.161 11.802-27.456 0-10.3-4.245-20.177-11.802-27.456-7.556-7.283-17.805-11.375-28.493-11.375h-161.186c-10.688 0-20.937 4.092-28.493 11.375-7.556 7.279-11.802 17.156-11.802 27.456 0 10.295 4.245 20.173 11.802 27.456 7.556 7.279 17.805 11.371 28.493 11.371z" />
<glyph unicode="&#xe906;" glyph-name="plugin-hummingbird" d="M634.667 716.8l50.846-36.267-28.8-263.659-104.533-142.165-3.204-16.32-18.487-93.568-82.487 36.267 95.287 121.493 3.2 18.496 62.579 375.723h25.6zM550.046 789.334l-71.113-435.2-142.223-181.333 248.889-108.8 35.554 181.333 106.667 145.067 35.558 326.4-104.179 72.533h-109.154zM353.068 561.94l158.774-12.146 11.746 72.016-421.542 32.248 381.047-274.613 13.052 79.68-143.077 102.816zM938.667 716.8h-175.369l-6.805-62.812 182.174 26.545v36.267zM476.446 789.334h-106.668v-36.267h106.668v36.267zM334.222 789.334h-35.555v-36.267h35.555v36.267zM334.222 462.934h-177.777v-36.267h177.777v36.267zM120.889 462.934h-35.555v-36.267h35.555v36.267zM369.778 281.6h-71.111v-36.267h71.111v36.267zM263.111 281.6h-35.556v-36.267h35.556v36.267z" />
<glyph unicode="&#xe907;" glyph-name="plugin-hustle" d="M451.191 414.234l146.283 97.677v-72.939l170.598 72.939-219.217-170.615v72.939l-97.664-72.939v72.939zM852.898 851.274c20.706-4.13 39.723-14.317 54.635-29.269 9.894-9.921 17.737-21.696 23.078-34.65s8.081-26.835 8.055-40.848v-638.958c0-28.284-11.234-55.403-31.228-75.405-19.998-19.998-47.117-31.232-75.396-31.232-28.275 0-55.394 11.234-75.392 31.232-19.994 20.002-31.228 47.121-31.228 75.405 0 82.748-113.446 101.943-255.893 105.783v-85.312c0.533-16.947-2.415-33.826-8.653-49.591-6.242-15.765-15.65-30.084-27.635-42.074-11.991-11.994-26.309-21.397-42.073-27.639s-32.64-9.19-49.586-8.657c-16.946-0.533-33.822 2.415-49.586 8.657s-30.082 15.646-42.071 27.639c-11.989 11.989-21.394 26.308-27.635 42.074s-9.187 32.644-8.654 49.591v95.121c-24.166 9.263-45.106 25.374-60.256 46.362-15.15 20.983-23.852 45.935-25.041 71.791v25.165c-12.545 4.288-23.436 12.39-31.147 23.172-7.712 10.786-11.857 23.71-11.857 36.971 0 13.257 4.146 26.185 11.857 36.971 7.711 10.782 18.602 18.884 31.147 23.172v25.165c1.652 33.403 15.663 65 39.308 88.648s55.238 37.661 88.638 39.313h127.946c186.803 0 341.192 8.105 341.192 106.636-0.038 21.118 6.195 41.772 17.907 59.343s28.378 31.268 47.885 39.355c19.507 8.087 40.973 10.199 61.683 6.068zM349.758 85.048c8.388 1.643 16.089 5.769 22.105 11.84v0.853c3.953 3.985 7.080 8.713 9.202 13.909s3.198 10.761 3.165 16.371v85.312h-85.297v-85.312c-0.224-8.542 2.125-16.956 6.742-24.149 4.616-7.198 11.287-12.838 19.148-16.192 7.86-3.358 16.548-4.275 24.936-2.633zM847.121 91.614c4.002 4.002 6.246 9.425 6.246 15.083v639.811c0 5.656-2.244 11.081-6.246 15.080-3.998 4-9.421 6.247-15.078 6.247-5.653 0-11.076-2.247-15.078-6.247-3.998-4-6.246-9.424-6.246-15.080 0-191.943-255.893-191.943-426.487-191.943h-127.946c-10.789-1.481-20.797-6.452-28.497-14.153s-12.67-17.711-14.152-28.5v-170.615c1.481-10.79 6.451-20.8 14.152-28.501s17.708-12.672 28.497-14.153h127.946c170.594 0 426.487 0 426.487-191.945 0-5.658 2.249-11.081 6.246-15.083 4.002-3.998 9.425-6.246 15.078-6.246 5.658 0 11.081 2.249 15.078 6.246z" />
<glyph unicode="&#xe908;" glyph-name="chart" d="M165.333 180.57c0-21.53 17.917-38.857 40-38.857h693.333c22.165 0 40-17.323 40-38.857s-17.835-38.857-40-38.857h-693.333c-66.266 0-120 52.134-120 116.57v569.907c0 21.452 17.917 38.857 40 38.857s40-17.405 40-38.857v-569.907zM645.5 348.792c-14.165-16.516-39.501-16.516-55.168 0l-133.167 126.609-131.665-126.609c-14.167-16.516-39.5-16.516-55.167 0-15.5 13.76-15.5 38.37 0 53.589l159.998 155.429c7.501 7.286 17.668 11.334 26.833 11.334 12.169 0 22.336-4.048 28.335-11.334l133.167-128.067 198.332 192.829c15.667 15.057 41.003 15.057 55.168 0 16.998-15.219 16.998-39.828 0-53.591l-226.667-220.189z" />
<glyph unicode="&#xe909;" glyph-name="plugin-ivt" d="M938.667 426.667c0-77.094-19.938-148.868-59.814-215.326-37.214-63.804-89.054-115.639-155.511-155.516-63.804-37.218-134.246-55.825-211.341-55.825s-148.868 18.607-215.327 55.825c-63.801 39.876-115.639 91.712-155.514 155.516-37.217 66.458-55.825 138.231-55.825 215.326s18.609 147.539 55.825 211.34c39.875 66.459 91.713 118.297 155.514 155.514 66.459 39.875 138.233 59.813 215.327 59.813s147.537-19.938 211.341-59.813c66.458-37.217 118.298-89.055 155.511-155.514 39.876-63.801 59.814-134.245 59.814-211.34zM850.94 426.667c0 63.799-17.28 122.284-51.836 175.452-31.902 55.825-77.094 98.359-135.578 127.601-55.825 29.242-115.639 41.205-179.439 35.888-63.801-5.317-122.285-26.584-175.452-63.801l542.304-315.017v39.876zM512 87.727c69.116 0 132.919 18.607 191.403 55.825 58.483 39.876 101.018 93.043 127.599 159.501l-119.625 67.789-390.779-223.305c55.825-39.872 119.628-59.81 191.402-59.81zM252.81 207.352l131.589 75.763v275.141l-139.564 79.751c-47.851-61.142-71.776-131.587-71.776-211.34 0-39.876 6.646-79.753 19.938-119.625 13.292-37.218 33.23-70.447 59.813-99.691zM468.139 330.966l159.501 87.727-159.501 91.712v-179.439z" />
<glyph unicode="&#xe90a;" glyph-name="plugin-shipper" d="M384.064 853.334h255.97v-116.364h127.987c46.925 0 85.321-34.909 85.321-77.576v-179.202l54.609-16.29c11.093-3.102 20.476-10.082 25.596-19.392s5.973-20.169 2.56-30.255l-80.631-259.102h-2.133c-68.258 0-128.836 34.133-170.645 77.572-41.809-43.439-102.387-77.572-170.645-77.572s-128.84 34.133-170.648 77.572c-41.809-43.439-102.388-77.572-170.647-77.572h-2.133l-81.057 259.102c-3.84 10.086-2.56 20.945 2.56 30.255s14.505 16.29 25.597 19.392l55.034 16.29v179.202c0 42.667 38.395 77.576 85.323 77.576h127.985v116.364zM554.709 775.758h-85.321v-38.788h85.321v38.788zM512.051 499.977l-229.521-67.878-102.388-30.643 48.208-153.6c23.037 11.635 40.102 27.153 48.634 36.070l64.419 66.718 64.419-66.718c14.505-15.514 54.607-51.2 106.229-51.2 51.618 0 91.721 35.686 106.227 51.2l64.418 66.718 64.418-67.102c8.533-8.922 25.6-24.828 48.636-36.463l47.782 153.988-101.965 30.255-229.517 68.655zM256.079 505.408l255.972 76.41 255.97-76.41v153.986h-511.942v-153.986zM512.051 79.126c59.298 0 118.596 16.683 170.645 49.651 52.049-32.969 111.347-51.2 170.645-51.2h85.325v-77.577h-85.325c-58.871 0-116.89 13.188-170.645 38.4-53.756-25.212-112.201-37.623-170.645-37.623-58.449 0-116.895 12.8-170.648 37.623-53.754-24.823-111.773-38.4-170.647-38.4h-85.324v77.577h85.324c59.3 0 118.599 18.231 170.647 51.2 52.047-32.969 111.346-49.651 170.648-49.651z" />
<glyph unicode="&#xe90b;" glyph-name="plugin-smartcrawl" d="M701.636 710.474c-56.132 37.506-122.125 57.526-189.636 57.526-90.527 0-177.347-35.962-241.359-99.974s-99.974-150.832-99.974-241.359c0-44.804 8.818-88.943 25.714-129.971l343.306 343.305h-70.353v42.667h170.667v-170.667h-42.667v71.002l-359.568-359.569c26.162-35.302 58.828-65.131 96.119-87.94l205.845 205.841h-70.396v42.667h170.667v-170.667h-42.667v70.959l-184.298-184.299c53.516-16.213 110.378-19.076 165.555-8.102 66.214 13.171 127.031 45.679 174.771 93.414 47.735 47.74 80.243 108.557 93.414 174.771 13.167 66.21 6.413 134.844-19.422 197.212-25.835 62.371-69.585 115.679-125.717 153.185zM274.956 781.428c70.165 46.883 152.658 71.906 237.044 71.906 113.161 0 221.683-44.953 301.696-124.969 80.017-80.016 124.971-188.539 124.971-301.698 0-84.386-25.024-166.878-71.906-237.043s-113.519-124.851-191.484-157.146c-77.961-32.29-163.75-40.742-246.515-24.282-82.766 16.465-158.789 57.101-218.459 116.774-59.671 59.669-100.308 135.693-116.771 218.458s-8.012 168.555 24.281 246.517c32.294 77.963 86.979 144.599 157.143 191.482z" />
<glyph unicode="&#xe90c;" glyph-name="plugin-smush" d="M512 853.334c-234.667 0-426.667-192-426.667-426.667s192-426.667 426.667-426.667c234.667 0 426.667 192 426.667 426.667s-192 426.667-426.667 426.667zM512 85.334c-68.267 0-128 59.733-128 128s59.733 128 128 128c68.267 0 128-59.733 128-128s-59.733-128-128-128zM742.4 273.067c-4.267-17.067-8.533-34.133-17.067-51.2-4.267 55.467-25.6 102.4-64 140.8-38.4 42.667-93.867 64-149.333 64-42.667 0-85.333-12.8-119.467-34.133s-64-55.467-76.8-93.867c-8.533-25.6-17.067-51.2-17.067-76.8-12.8 29.867-21.333 64-21.333 98.133 0 64 25.6 123.733 68.267 166.4s102.4 68.267 166.4 68.267c46.933 0 93.867-12.8 132.267-38.4s68.267-64 85.333-106.667c17.067-42.667 21.333-89.6 12.8-136.533zM827.733 307.2c0 4.267 0 8.533 0 12.8 0 85.333-34.133 166.4-93.867 226.133s-136.533 93.867-221.867 93.867c-64 0-123.733-17.067-179.2-55.467-51.2-34.133-93.867-85.333-119.467-145.067-17.067-42.667-25.6-89.6-25.6-136.533-8.533 42.667-17.067 81.067-17.067 123.733 0 89.6 34.133 179.2 98.133 243.2s153.6 98.133 243.2 98.133c68.267 0 132.267-21.333 187.733-55.467 55.467-38.4 98.133-89.6 123.733-153.6 29.867-64 38.4-132.267 21.333-200.533-4.267-17.067-8.533-34.133-17.067-51.2z" />
<glyph unicode="&#xe90d;" glyph-name="plugin-snapshot" d="M322.26 48.333c-50.579 24.759-95.719 59.465-132.753 102.071-37.034 42.603-65.213 92.245-82.874 145.993s-24.446 110.511-19.955 166.942c4.492 56.428 20.169 111.381 46.106 161.612s61.61 94.725 104.911 130.852c43.301 36.128 93.352 63.156 147.202 79.494s110.404 21.653 166.327 15.63c55.923-6.023 110.084-23.26 159.279-50.696l-38.737-75.021c-75.298 39.272-162.543 48.513-244.314 25.877-81.773-22.636-152.053-75.482-196.81-147.988s-60.7-159.336-44.641-243.155c16.059-83.819 62.935-158.455 131.27-209.007 68.335-50.556 153.1-73.306 237.37-63.714 84.271 9.596 161.843 50.829 217.233 115.469 55.39 64.636 84.523 147.93 81.574 233.237-2.756 79.849-33.425 155.967-86.302 215.086v-75.87h-42.667v170.667h170.667v-42.667h-60.843c60.16-69.111 96.538-156.247 103.236-248.358 7.334-100.809-21.372-200.939-80.93-282.325-59.563-81.382-146.061-138.662-243.891-161.502-97.826-22.839-200.545-9.737-289.619 36.949l-0.84 0.422zM686.080 564.052l-44.89-64.285-118.097 186.311-72.107-46.080 41.271-64.852h-194.019v-85.332h75.52l-107.093-153.173 69.973-48.64 141.227 201.813h68.693l41.805-65.694-43.511-62.306h-68.693l-41.813 65.707-52.907-75.52 118.187-186.453 72.107 46.080-41.271 64.853h194.018v85.333h-75.52l107.093 153.172-69.973 49.067z" />
<glyph unicode="&#xe90e;" glyph-name="logo" d="M149.333 426.658c0 200.3 162.375 362.675 362.675 362.675 200.299 0 362.675-162.375 362.675-362.675 0-200.299-162.377-362.675-362.675-362.675-200.3 0-362.675 162.377-362.675 362.675zM512.009 853.334c-235.646 0-426.675-191.029-426.675-426.675 0-235.648 191.029-426.675 426.675-426.675 235.648 0 426.675 191.027 426.675 426.675 0 235.646-191.027 426.675-426.675 426.675zM626.675 233.899c12.348-6.221 25.984-9.442 39.808-9.417 13.841-0.017 27.49 3.209 39.863 9.417 12.582 6.255 23.070 16.055 30.161 28.19 7.509 12.489 11.413 26.812 11.277 41.382v325.383h-58.185v-325.383c0.021-2.769-0.533-5.513-1.63-8.055s-2.714-4.83-4.74-6.716c-4.642-4.070-10.603-6.315-16.777-6.315-6.17 0-12.134 2.244-16.772 6.315-2.010 1.899-3.61 4.186-4.693 6.729-1.088 2.543-1.638 5.282-1.621 8.043v246.392c0.286 10.439-1.57 20.826-5.449 30.522s-9.698 18.496-17.105 25.86c-15.334 14.483-35.627 22.553-56.721 22.553-21.090 0-41.387-8.070-56.721-22.553-7.403-7.363-13.222-16.163-17.105-25.86-3.874-9.696-5.73-20.083-5.444-30.522v-246.392c0.004-2.765-0.555-5.504-1.651-8.047s-2.705-4.83-4.723-6.724c-4.638-4.070-10.598-6.315-16.772-6.315s-12.134 2.244-16.772 6.315c-2.031 1.886-3.644 4.173-4.74 6.716s-1.655 5.286-1.634 8.055v246.392c0.226 10.46-1.673 20.858-5.585 30.563s-9.755 18.513-17.172 25.894c-7.417 7.38-16.256 13.178-25.98 17.041s-20.131 5.713-30.592 5.437c-21.746 0.364-42.786-7.721-58.694-22.553-7.937-7.056-14.246-15.753-18.492-25.488-4.244-9.736-6.322-20.278-6.091-30.895v-325.381h57.735v325.381c-0.007 2.767 0.554 5.507 1.651 8.047s2.703 4.83 4.721 6.725c2.22 2.178 4.873 3.865 7.788 4.953 2.914 1.087 6.023 1.552 9.127 1.362 3.103 0.169 6.206-0.305 9.117-1.391s5.565-2.763 7.798-4.924c2.010-1.897 3.608-4.188 4.695-6.729s1.638-5.28 1.619-8.043v-246.392c-0.225-10.466 1.678-20.868 5.593-30.575 3.916-9.711 9.763-18.522 17.185-25.903 7.424-7.381 16.269-13.175 26.001-17.037 9.728-3.861 20.143-5.705 30.605-5.419 21.743-0.341 42.778 7.74 58.697 22.554 7.915 7.074 14.208 15.774 18.449 25.506 4.241 9.728 6.336 20.262 6.131 30.874v246.392c0.077 4.141 1.361 8.17 3.699 11.59s5.623 6.078 9.455 7.649c3.836 1.572 8.043 1.986 12.109 1.191s7.808-2.761 10.769-5.658c2.018-1.894 3.622-4.183 4.719-6.725s1.655-5.28 1.651-8.047v-246.392c-0.166-14.575 3.738-28.907 11.277-41.382 7.091-12.139 17.574-21.935 30.161-28.19z" />
<glyph unicode="&#xe90f;" glyph-name="chart-alt" horiz-adv-x="1067" d="M672.102 531.887c-17.51-17.46-44.356-17.984-63.863-2.619l-180.42 141.603-234.46-194.855c-23.011-20.779-56.593-16.939-74.997 8.73-18.41 22.524-14.678 57.618 8.332 76.999l266.776 223.473c19.009 15.906 45.856 16.343 65.363 1.065l180.42-141.603 234.445 196.41c23.010 19.276 56.525 15.365 73.532-8.73 19.844-24.095 16.175-59.26-8.337-78.536l-266.79-221.937zM360.691 391.109c0 30.903 23.845 55.872 53.359 55.872s53.36-24.969 53.36-55.872v-335.236c0-30.903-23.846-55.872-53.36-55.872s-53.359 24.969-53.359 55.872v335.236zM147.256 223.493c0 30.903 23.895 55.872 53.359 55.872s53.359-24.969 53.359-55.872v-167.62c0-30.903-23.895-55.872-53.359-55.872s-53.359 24.969-53.359 55.872v167.62zM680.841 279.365v-223.492c0-30.903-23.842-55.872-53.359-55.872-29.513 0-53.355 24.969-53.355 55.872v223.492c0 30.903 23.842 55.872 53.355 55.872 29.517 0 53.359-24.969 53.359-55.872zM787.558 391.109c0 30.903 23.846 55.872 53.359 55.872s53.359-24.969 53.359-55.872v-335.236c0-30.903-23.846-55.872-53.359-55.872s-53.359 24.969-53.359 55.872v335.236z" />
<glyph unicode="&#xe910;" glyph-name="video" d="M992.653 682.834c-19.644 12.343-44.092 13.985-65.22 4.48l-176.026-78.98v31.667c0 58.917-48.811 106.667-109.035 106.667h-490.668c-60.226 0-109.037-47.75-109.037-106.667v-426.667c0-58.918 48.811-106.667 109.037-106.667h490.668c60.224 0 109.035 47.748 109.035 106.667v31.701l175.991-78.933c9.105-4.092 18.795-6.123 28.437-6.123 12.83 0 25.587 3.571 36.783 10.598 19.627 12.258 31.381 33.254 31.381 57.591v398.498c0 22.833-11.755 43.667-31.347 56.167zM669.628 213.334c0-14.703-12.228-26.667-27.255-26.667h-490.668c-15.030 0-27.259 11.964-27.259 26.667v426.667c0 14.703 12.229 26.667 27.259 26.667h490.668c15.027 0 27.255-11.963 27.255-26.667v-426.667zM942.221 247.501l-190.814 85.5v187.333l190.814 85.55v-358.383zM533.333 466.667h-96.939v94.833c0 20.666-16.698 38.5-39.357 38.5s-40.889-17.833-40.889-38.5v-94.833h-96.941c-21.126 0-39.355-17.835-39.355-40 0-22.101 18.281-38.498 39.355-38.498h96.941v-93.333c0-23.667 18.23-41.502 40.889-41.502 22.591 0 39.357 17.899 39.357 38.498v96.337h95.407c24.192 0 42.419 16.333 42.419 38.498s-18.227 40-40.887 40z" />
<glyph unicode="&#xe911;" glyph-name="link" d="M303.697 596.659c78.511 75.658 208.986 75.658 287.497 0 70.605-68.050 81.054-176.524 23.014-254.779l-1.553-2.18c-14.541-19.46-42.782-24.090-62.976-10.069-20.335 14.016-25.135 41.237-10.59 60.702l1.553 2.176c32.337 43.686 27.251 103.437-12.143 141.408-44.339 42.735-116.497 42.735-160.977 0l-158.434-152.839c-44.494-41.647-44.494-112.286 0-155.157 39.255-37.969 101.386-42.871 146.572-11.703l2.259 2.722c20.334 12.791 48.575 8.303 62.978-11.298 14.545-19.597 9.885-46.818-10.449-60.834l-2.259-1.498c-82.464-55.936-192.464-46.955-263.053 20.958-79.738 76.898-79.738 201.566 0 278.327l158.56 154.064zM720.256 257.903c-79.782-76.894-208.986-76.894-288.768 0-70.602 68.053-79.781 175.3-21.745 253.555l1.553 2.179c13.274 19.462 41.516 24.090 62.978 10.071 20.335-12.792 25.135-40.014 10.59-60.703l-1.553-2.176c-32.337-42.462-27.251-103.437 12.143-141.406 44.339-42.739 116.497-42.739 160.977 0l158.434 152.841c44.48 42.87 44.48 113.506 0 155.152-39.258 37.931-101.389 42.885-146.573 11.705l-2.261-1.497c-20.331-14.018-48.572-8.302-62.976 10.099-14.545 19.571-9.886 46.778 10.449 60.755l2.257 1.524c81.195 55.922 192.465 47.050 263.070-20.986 79.782-76.842 79.782-201.511 0-278.272l-158.575-152.841z" />
<glyph unicode="&#xe912;" glyph-name="shield" d="M535.821 869.527l334.754-140.573c39.113-16.419 68.446-54.573 68.087-99.097-0.887-176.16-73.242-495.575-379.729-640.762-29.513-13.905-64.179-13.905-93.867 0-306.328 145.186-378.861 464.602-379.732 640.762-0.231 44.524 29.013 82.678 68.089 99.097l334.931 140.573c7.287 3.352 15.467 5.14 23.646 5.14 8.354 0 16.354-1.788 23.821-5.14zM512 787.732l-325.261-134.998c-10.56-5.984-16.107-15.135-16.071-23.934 0.8-161.028 68.266-438.733 331.374-563.503 6.225-2.995 13.692-2.995 20.092 0 263.108 124.77 330.487 402.475 331.196 563.503 0.179 8.799-5.508 17.95-17.6 23.934l-323.729 134.998z" />
<glyph unicode="&#xe913;" glyph-name="shield-check" d="M862.835 713.817l-320 133.333c-9.792 4.166-20.267 6.172-30.737 6.172-10.466 0-20.932-1.993-30.767-6.16l-319.981-133.345c-29.8-12.283-49.35-41.484-49.35-72.317 0-430.501 315.665-641.5 399.834-641.5 82.167 0 400.166 207.834 400.166 641.5 0 30.833-19.499 60.033-49.165 72.317zM512 80c-162.5 67.665-320 277.833-320 560l320 133.333 320-133.333c0-289.668-164.002-495.002-320-560zM418.833 441.669c-6.333 7.834-16.667 13.167-26.833 13.167-22.85 0-40-18.684-40-40 0-11.669 3.833-22.003 11.667-28.335l79.998-80c7.501-8.998 17.835-11.665 28.335-11.665 4.326 0 19.102 0.823 30.366 13.956l160 186.667c6.468 7.548 9.634 16.817 9.634 26.033 0 12.342-9.647 39.983-39.966 39.983-11.26 0-22.464-4.719-30.4-13.937l-131.802-155.372-50.999 49.502z" />
<glyph unicode="&#xe914;" glyph-name="form" d="M820.087 724.803l-132.672 136.84c-21.461 21.996-50.436 34.357-80.482 34.357h-322.489c-62.845 0-113.778-52.525-113.778-117.333l0.012-704c0-64.789 50.933-117.333 113.778-117.333h455.098c62.579 0 113.779 52.8 113.779 117.333v567.233c0 30.983-11.913 60.867-33.246 82.903zM768 74.667c0-16.201-12.736-29.333-28.446-29.333h-455.074c-15.712 0-28.445 13.133-28.445 29.333l-0.035 703.761c0 16.199 12.736 29.333 28.445 29.333h284.443v-146.428c0-32.395 25.476-58.667 56.892-58.667h140.621v-528h1.6zM341.333 382.665c0-24.38 19.2-43.998 42.667-43.998h256c23.646 0 42.667 19.618 42.667 43.998 0 24.384-19.021 44.002-42.667 44.002h-256c-23.467 0-42.667-19.802-42.667-44.002zM640 250.667h-256c-23.467 0-42.667-19.802-42.667-44.002 0-24.196 19.111-43.998 42.667-43.998h256c23.556 0 42.667 19.708 42.667 43.998 0 24.294-19.021 44.002-42.667 44.002z" />
<glyph unicode="&#xe915;" glyph-name="performance" d="M512 720c29.5 0 53.333-23.884 53.333-53.333 0-29.5-23.834-53.333-53.333-53.333s-53.333 23.833-53.333 53.333c0 29.45 23.834 53.333 53.333 53.333zM512 173.334c-51.499 0-93.333 41.835-93.333 93.333s41.835 93.333 93.333 93.333c17.165 0 33.165-4.668 47.002-12.668l183.663 125.666c18.334 12.501 43.17 7.834 55.667-10.33 12.501-18.334 7.834-43.17-10.33-55.667l-183.834-125.666c0.832-4.834 1.165-9.668 1.165-14.669 0-51.499-41.835-93.333-93.333-93.333zM672 640c29.5 0 53.333-23.833 53.333-53.333s-23.834-53.333-53.333-53.333c-29.5 0-53.333 23.833-53.333 53.333s23.834 53.333 53.333 53.333zM272 373.334c-29.45 0-53.333 23.834-53.333 53.333s23.884 53.333 53.333 53.333c29.5 0 53.333-23.834 53.333-53.333s-23.833-53.333-53.333-53.333zM352 640c29.5 0 53.333-23.833 53.333-53.333s-23.833-53.333-53.333-53.333c-29.5 0-53.333 23.833-53.333 53.333s23.833 53.333 53.333 53.333zM512-0c-235.667 0-426.667 191.002-426.667 426.667 0 235.667 191 426.667 426.667 426.667 235.665 0 426.667-191 426.667-426.667 0-235.665-191.002-426.667-426.667-426.667zM858.667 426.667c0 191.5-155.166 346.667-346.667 346.667s-346.667-155.167-346.667-346.667c0-191.501 155.167-346.667 346.667-346.667s346.667 155.166 346.667 346.667z" />
<glyph unicode="&#xe916;" glyph-name="email" d="M85.333 640c0 58.917 47.75 106.667 106.667 106.667h640c58.833 0 106.667-47.75 106.667-106.667v-426.667c0-58.833-47.834-106.667-106.667-106.667h-640c-58.917 0-106.667 47.834-106.667 106.667v426.667zM165.333 640v-36.833l287.501-235.999c34.334-28.335 83.998-28.335 118.332 0l287.501 235.999v38.333c0 13.167-11.998 26.667-26.667 26.667h-640c-14.733 0-26.667-13.5-26.667-26.667v-1.5zM165.333 499.665v-286.332c0-14.669 11.933-26.667 26.667-26.667h640c14.669 0 26.667 11.998 26.667 26.667v286.332l-236.668-194.334c-64-52.497-155.998-52.497-221.499 0l-235.167 194.334z" />
<glyph unicode="&#xe917;" glyph-name="package" d="M737.523 853.334c48.192 0 91.81-28.381 111.428-72.4l79.241-178.266c6.857-15.619 10.475-32.381 10.475-49.524v-431.24c0-67.238-54.665-121.903-121.903-121.903h-609.526c-67.333 0-121.905 54.665-121.905 121.903v431.24c0 17.143 3.579 33.905 10.507 49.524l79.227 178.266c19.562 44.038 63.219 72.4 111.409 72.4h451.047zM737.523 761.905h-179.81v-152.381h267.43l-59.81 134.286c-4.762 11.009-15.808 18.095-27.81 18.095zM847.236 518.096h-670.474v-396.192c0-16.759 13.638-30.473 30.476-30.473h609.526c16.759 0 30.473 13.713 30.473 30.473v396.192zM198.933 609.524h267.354v152.381h-179.811c-12.057 0-22.972-7.086-27.867-18.095l-59.676-134.286z" />
<glyph unicode="&#xe918;" glyph-name="package-check" d="M156.445 209.067c0-13.299 10.607-24.179 23.703-24.179h300.889c11.409-26.445 25.63-50.923 43.11-72.533h-343.999c-52.37 0-94.815 43.371-94.815 96.713v342.115c0 13.6 2.784 26.898 8.172 39.289l61.62 141.425c15.215 34.937 49.17 57.437 86.652 57.437h350.815c37.483 0 71.407-22.516 86.665-57.437l61.632-141.425c5.333-12.391 8.149-25.689 8.149-39.289v-4.684c-7.855 0.756-15.706 1.058-23.706 1.058-38.814 0-75.703-8.613-108.74-24.177h-460.148v-314.311zM592.593 716.8h-139.853v-120.889h208l-46.519 106.533c-3.703 8.734-12.297 14.356-21.628 14.356zM173.689 595.912h207.941v120.889h-139.852c-9.378 0-17.867-5.621-21.674-14.356l-46.415-106.533zM938.667 281.6c0-120.132-95.556-217.6-213.333-217.6s-213.333 97.468-213.333 217.6c0 120.132 95.556 217.6 213.333 217.6s213.333-97.468 213.333-217.6zM791.556 347.030l-89.929-91.721-42.517 43.366c-9.186 9.519-24.294 9.519-33.481 0-9.335-9.37-9.335-24.781 0-34.15l59.26-60.446c9.186-9.519 24.294-9.519 33.481 0l106.667 108.8c9.335 9.37 9.335 24.785 0 34.15-9.186 9.523-24.294 9.523-33.481 0z" />
<glyph unicode="&#xe919;" glyph-name="cloud" d="M768 128.269v-0.269h-490.667c-106.040 0-192 85.999-192 192 0 83.601 53.427 155.866 128 181.069v0.265c0 123.733 100.267 224 224 224 67.866 0 128.533-30.133 169.732-77.747 19.866 8.84 41.737 13.747 64.934 13.747 88.401 0 160-71.6 160-160 0-8.802-0.666-17.331-2.001-25.732 64-28.002 108.668-92.002 108.668-166.268 0-96.533-75.465-175.467-170.667-181.065zM589.602 569.734l-31.070 36c-29.466 34.16-72.798 55.6-121.199 55.6-88.4 0-160-71.6-160-158.801v-46.665l-43.867-15.066c-48.613-17.737-84.133-65.203-84.133-120.802 0-70.665 57.306-128 128-128l486.933 0.269c61.602 3.465 110.4 54.665 110.4 117.065 0 48-28.8 89.468-70.4 107.601l-45.466 19.866 8 48.934c0.798 5.065 1.199 10.266 1.199 15.599 0 53.067-42.935 96-96 96-13.999 0-27.2-2.933-38.933-8.267l-43.465-19.333z" />
<glyph unicode="&#xe91a;" glyph-name="hub" d="M128 687.408c0 91.639 70.792 165.926 158.118 165.926s158.119-74.287 158.119-165.926v-94.815c0-26.182-20.228-47.407-45.178-47.407s-45.176 21.225-45.176 47.407v94.815c0 39.274-30.339 71.111-67.765 71.111s-67.764-31.837-67.764-71.111v-521.481c0-39.275 30.339-71.113 67.764-71.113s67.765 31.838 67.765 71.113v71.113c0 26.18 20.226 47.407 45.176 47.407s45.178-21.227 45.178-47.407v-71.113c0-91.639-70.793-165.926-158.119-165.926s-158.118 74.287-158.118 165.926v521.481zM896 687.408c0 91.639-70.793 165.926-158.118 165.926s-158.118-74.287-158.118-165.926v-94.815c0-26.182 20.228-47.407 45.18-47.407 24.947 0 45.175 21.225 45.175 47.407v94.815c0 39.274 30.34 71.111 67.763 71.111 37.427 0 67.767-31.837 67.767-71.111v-521.481c0-39.275-30.34-71.113-67.767-71.113-37.423 0-67.763 31.838-67.763 71.113v71.113c0 130.91-101.133 237.035-225.882 237.035h-90.354c-24.95 0-45.177-21.222-45.177-47.407s20.227-47.407 45.177-47.407h90.354c74.85 0 135.526-63.676 135.526-142.221v-71.113c0-91.639 70.793-165.926 158.118-165.926s158.118 74.287 158.118 165.926v521.481z" />
<glyph unicode="&#xe91b;" glyph-name="image" d="M339.128 659.81c-44.261 0-80.141-36.84-80.141-82.286s35.88-82.287 80.141-82.287c44.261 0 80.141 36.842 80.141 82.287s-35.896 82.286-80.141 82.286zM831.829 810.667h-641.129c-57.518 0-105.367-49.114-105.367-109.714v-548.573c0-60.599 47.834-109.713 105.352-109.713h641.127c59.021 0 106.854 49.114 106.854 109.713v548.573c0.017 60.6-46.4 109.714-106.837 109.714zM858.543 163.866l-228.403 318.686c-4.173 7.885-13.692 12.685-23.876 12.685-10.206 0-19.733-4.745-25.395-12.646l-177.978-247.031-61.925 79.031c-5.745 7.334-14.916 11.669-24.66 11.669-9.754 0-18.917-4.335-24.677-11.669l-126.089-160.819c0 0.051 0-0.051 0 0l-0.067 547.182c0 15.124 11.984 27.429 26.714 27.429h641.128c14.729 0 26.714-12.305 26.714-27.429v-537.087h-1.485z" />
<glyph unicode="&#xe91c;" glyph-name="images" d="M843.853 768h-521.482c-52.37 0-94.815-43.657-94.815-97.524v-341.333c0-53.867 42.445-97.523 94.815-97.523h521.482c52.369 0 94.814 43.657 94.814 97.523v341.333c0 53.867-42.517 97.524-94.814 97.524zM867.554 329.144c0-13.444-10.633-24.38-23.701-24.38h-23.706l-161.924 245.179c-4.446 6.705-11.853 10.819-19.853 10.819-7.927 0-15.334-4.072-19.716-10.857l-92.949-143.407-33.114 46.682c-4.442 6.4-11.554 10.057-19.11 10.057-7.569 0-14.686-3.716-19.153-10.014l-108.253-148.459h-23.703c-13.070 0-23.704 10.935-23.704 24.38v341.333c0 13.443 10.634 24.381 23.704 24.381h521.482c13.069 0 23.701-10.938 23.701-24.381v-341.333zM417.185 646.096c-26.178 0-47.407-21.836-47.407-48.762s21.23-48.762 47.407-48.762c26.194 0 47.408 21.836 47.408 48.762s-21.184 48.762-47.408 48.762zM760.887 85.334h-497.776c-98.030 0-177.778 81.98-177.778 182.857v365.715c0 20.114 15.926 36.572 35.555 36.572s35.556-16.457 35.556-36.572v-365.715c0-60.493 47.852-109.713 106.667-109.713h497.776c19.631 0 35.558-16.38 35.558-36.574 0-20.19-15.855-36.57-35.558-36.57z" />
<glyph unicode="&#xe91d;" glyph-name="file" d="M819.554 698.334l-131.554 123.333c-22.519 21.111-49.779 31.667-81.779 31.667h-321.776c-32-1.111-58.667-11.667-80-31.667s-32.593-45-33.778-75v-640c1.185-29.999 12.445-55.002 33.778-74.999 21.333-20.002 48-30.558 80-31.667h455.11c32 1.109 58.667 11.665 80 31.667 21.333 19.998 32.593 45.001 33.779 74.999v515c0 30-11.26 55.556-33.779 76.667zM739.554 80h-455.11c-16.593 2.223-26.074 10.556-28.445 24.998v641.668c1.185 15.555 10.667 24.445 28.445 26.667h284.443v-133.333c0-15.555 5.333-28.333 16-38.333s24.299-15 40.892-15h140.442v-480c0-16.666-8.887-25.557-26.667-26.667z" />
<glyph unicode="&#xe91e;" glyph-name="file-check" d="M778.999 698.334l-123.332 123.333c-21.111 21.111-46.669 31.667-76.668 31.667h-301.666c-30-1.111-55-11.667-75-31.667s-30.556-45-31.667-75v-640c1.111-29.999 11.667-55.002 31.667-74.999 20-20.002 45-30.558 75-31.667h426.667c29.999 1.109 55.002 11.665 74.999 31.667 20.002 19.998 30.558 45.001 31.667 74.999v515c0 30-10.556 55.556-31.667 76.667zM730.667 106.667c-1.109-16.666-10.001-25.557-26.667-26.667h-426.667c-16.666 1.109-25.556 10.001-26.667 26.667v640c1.111 15.555 10 24.445 26.667 26.667h266.667v-133.333c0-15.555 5.001-28.333 15.002-38.333 9.997-10 22.775-15 38.332-15h131.665v-480h1.668zM448.998 311.668l-51.665 50.001c-18.889 15.552-37.778 15.552-56.666 0-15.556-18.889-15.556-37.781 0-56.67l80-80c8.888-7.778 18.889-11.665 30-11.665 0 0 0.555 0 1.668 0 11.11 1.109 20.553 5.555 28.331 13.333l160 186.667c14.447 19.998 13.333 38.891-3.332 56.666-19.998 14.447-38.891 13.333-56.666-3.332l-131.669-154.999z" />
<glyph unicode="&#xe91f;" glyph-name="file-code" d="M458.846 423.668c-13.888 13.018-36.393 13.018-50.277 0l-85.333-80c-13.888-13.022-13.888-34.167 0-47.185l85.333-80c7.076-6.647 16.143-9.813 25.21-9.813s18.185 3.23 25.135 9.737c13.888 13.022 13.888 34.167 0 47.185l-60.159 56.41 60.197 56.401c12.335 13.099 12.335 34.099-0.107 47.266zM820.087 697.7l-132.672 124.4c-21.461 19.997-50.436 31.233-80.482 31.233h-322.489c-62.845 0-113.778-47.75-113.778-106.667l0.012-640c0-58.901 50.933-106.667 113.778-106.667h455.098c62.579 0 113.779 48 113.779 106.667v515.667c0 28.166-11.913 55.333-33.246 75.366zM768 106.667c0-14.729-12.736-26.667-28.446-26.667h-455.074c-15.712 0-28.445 11.938-28.445 26.667l-0.035 639.783c0 14.727 12.736 26.667 28.445 26.667h284.443v-133.117c0-29.45 25.476-53.333 56.892-53.333h140.621v-480h1.6zM565.154 423.668c-13.888-13.022-13.888-34.167 0-47.185l60.092-56.482-60.198-56.401c-13.888-13.018-13.888-34.167 0-47.181 7.040-6.583 16.107-9.749 25.173-9.749s18.189 3.23 25.139 9.737l85.333 80c13.888 13.022 13.888 34.167 0 47.185l-85.333 80c-13.939 13.077-36.339 13.077-50.206 0.077z" />
<glyph unicode="&#xe920;" glyph-name="file-zip" d="M820.087 697.7l-132.672 124.4c-21.461 19.997-50.436 31.234-80.482 31.234h-322.489c-62.845 0-113.778-47.75-113.778-106.667l0.012-640c0-58.901 50.933-106.667 113.778-106.667h455.098c62.579 0 113.779 48 113.779 106.667v515.666c0 28.167-11.913 55.334-33.246 75.367zM768 106.667c0-14.729-12.736-26.667-28.446-26.667h-455.074c-15.712 0-28.445 11.938-28.445 26.667l-0.035 639.783c0 14.726 12.736 26.667 28.445 26.667h85.333v-26.45h113.776v26.45h85.35l-0.017-133.117c0-29.45 25.476-53.333 56.892-53.333h140.621v-480h1.6zM483.554 693.334h-113.776v-53.333h113.776v53.333zM483.554 586.667h-113.776v-53.333h113.776v53.333zM483.554 480h-113.776l-54.329-194.167c-14.097-64.998 39.573-125.833 111.751-125.833 71.573 0 125.244 60.501 111.433 125.248l-55.078 194.752zM455.113 240h-56.89c-15.708 0-28.444 11.938-28.444 26.667s12.736 26.667 28.444 26.667h56.89c15.706 0 28.442-11.938 28.442-26.667s-12.8-26.667-28.442-26.667z" />
<glyph unicode="&#xe921;" glyph-name="desktop" d="M843.853 810.667h-663.705c-52.37 0-94.815-42.975-94.815-96v-432c0-53.026 42.444-96 94.815-96h219.704l-14.223-72h-75.111c-19.556 0-35.556-16.201-35.556-35.998 0-19.802 16-36.002 35.556-36.002h402.962c19.631 0 35.558 16.124 35.558 36.002 0 19.874-15.927 35.998-35.558 35.998h-75.153l-14.178 72h219.703c52.369 0 94.814 42.974 94.814 96v432c0 53.025-42.517 96-94.814 96zM565.777 114.667h-107.554l14.221 72h79.202l14.131-72zM867.554 282.667c0-13.231-10.633-24-23.701-24h-663.705c-13.070 0-23.703 10.769-23.703 24v432c0 13.233 10.634 24 23.703 24h663.705c13.069 0 23.701-10.767 23.701-24v-432z" />
<glyph unicode="&#xe922;" glyph-name="mobile" d="M702.059 853.334h-380.119c-59.988 0-108.606-47.75-108.606-106.667v-640c0-58.918 48.618-106.667 108.606-106.667h380.119c59.989 0 108.608 47.748 108.608 106.667v640c0 58.917-48.704 106.667-108.608 106.667zM729.212 106.667c0-14.703-12.181-26.667-27.153-26.667h-380.119c-14.967 0-27.151 11.998-27.151 26.667v640c0 14.703 12.181 26.667 27.151 26.667h380.119c14.933 0 27.153-11.967 27.153-26.667v-640zM512 200c-22.485 0-40.725-17.899-40.725-40 0-22.084 18.24-40 40.725-40s40.725 17.916 40.725 40c0 22.165-18.155 40-40.725 40z" />
<glyph unicode="&#xe923;" glyph-name="folder-close" d="M832 693.334h-286.835l-81.997 75.417c-20.002 20.017-47.001 31.25-75.335 31.25h-195.833c-58.917 0-106.667-47.767-106.667-106.667v-533.333c0-58.901 47.75-106.667 106.667-106.667h640c58.918 0 106.667 47.765 106.667 106.667v426.667c0 58.833-47.834 106.667-106.667 106.667zM192 720h195.833c7.122 0 13.822-2.773 18.85-7.814l105.317-98.853h320c14.703 0 26.667-11.96 26.667-26.667v-53.333h-693.333v160c0 14.7 11.967 26.667 26.667 26.667zM832 133.334h-640c-14.703 0-26.667 11.959-26.667 26.667v293.333h693.333v-293.333c0-14.669-11.998-26.667-26.667-26.667z" />
<glyph unicode="&#xe924;" glyph-name="folder-open" d="M933.636 404.877l-142.225-292.574c-8-16.606-24.444-26.97-43.703-26.97h-567.559c-52.37 0-94.815 43.674-94.815 97.523v487.62c0 53.851 42.445 97.524 94.815 97.524h174.075c25.141 0 49.26-10.274 67.052-28.571l72.8-68.952h207.556c52.373 0 94.818-43.673 94.818-97.524v-48.762h-71.113v48.762c0 13.446-10.637 24.381-23.706 24.381h-237.039l-93.629 90.377c-4.445 4.617-10.371 7.147-16.741 7.147h-174.075c-13.067 0-23.703-10.941-23.703-24.381v-438.856l105.423 216.836c8.059 16.61 24.504 26.974 42.43 26.974h586.967c35.11 0 58.074-38.097 42.372-70.554z" />
<glyph unicode="&#xe925;" glyph-name="globe" d="M512 853.334c235.665 0 426.667-191 426.667-426.667 0-235.665-191.002-426.667-426.667-426.667-235.667 0-426.667 191.002-426.667 426.667 0 235.667 191 426.667 426.667 426.667zM512 80c12.335 0 43.499 11.998 79.334 80.666 14.665 29.5 25.83 65.335 36.668 106.001h-232.002c9.333-40.666 22-76.501 36.666-106.001 34.334-68.668 66.999-80.666 79.334-80.666zM382.833 346.667h258.331c2.667 25.502 4.169 52.335 4.169 80s-1.502 54.498-4.169 80h-258.331c-2.667-25.502-4.167-52.335-4.167-80s1.5-54.498 4.167-80zM628.002 586.667c-10.837 40.666-22.003 76.5-36.668 105.917-35.836 68.717-66.999 80.75-79.334 80.75s-45.001-12.033-79.334-80.75c-14.666-29.417-27.332-65.25-36.666-105.917h232.002zM721.668 506.667c2.33-25.835 3.665-52.668 3.665-80s-1.335-54.165-3.665-80h127.663c6.17 25.668 9.335 52.501 9.335 80s-3.166 54.332-9.335 80h-127.663zM655.501 742.317c23.501-42.75 42.167-95.817 54.332-155.65h109.833c-35.665 68.5-93.666 123.533-164.164 155.65zM368.5 742.317c-70.5-32.117-128.433-87.15-164.117-155.65h109.783c12.167 59.833 30.833 112.9 54.333 155.65zM165.333 426.667c0-27.499 3.217-54.332 9.283-80h127.717c-2.333 25.835-3.667 52.668-3.667 80s1.333 54.165 3.667 80h-127.717c-6.067-25.668-9.283-52.501-9.283-80zM819.665 266.667h-109.833c-12.164-59.831-30.831-112.832-54.332-155.665 70.498 32.166 128.499 87.164 164.164 155.665zM314.167 266.667h-109.783c35.683-68.501 93.617-123.499 164.117-155.665-23.5 42.833-42.167 95.834-54.333 155.665z" />
<glyph unicode="&#xe926;" glyph-name="like" d="M245.333 534.995h-106.667c-29.45 0-53.333-23.916-53.333-51.901v-372.335c0-29.491 23.884-51.904 53.333-51.904h106.667c29.45 0 53.333 23.915 53.333 51.904v370.833c0 28.036-23.833 53.403-53.333 53.403zM938.667 475.081c0 61.566-50.082 111.683-111.616 111.683h-166.434c15.885 41.69 24.717 77.738 24.717 98.933 0 56.409-43.665 114.787-116.766 114.787-77.683 0-98.935-54.139-116.019-97.631-52.765-134.347-100.548-110.799-100.548-155.993 0-21.428 17.267-40.036 40.033-40.036 8.76 0 17.583 2.871 24.95 8.777 127.934 102.421 96.617 204.775 151.584 204.775 26.799 0 36.766-21.278 36.766-34.697 0-12.357-12.655-66.005-42.581-119.477-3.413-6.085-5.111-12.827-5.111-19.56 0-23.231 19.051-38.552 40-38.552h229.333c17.527-1.468 31.693-15.654 31.693-33.011 0-16.371-12.945-30.089-29.449-31.223-21.103-1.434-37.269-19.025-37.269-39.953 0-25.822 18.982-26.62 18.982-48.252 0-42.338-58.381-20.591-58.381-70.345 0-18.722 10.654-21.743 10.654-37.133 0-37.815-49.617-22.963-49.617-67.823 0-7.535 1.847-9.95 1.847-15.782 0-17.438-14.191-31.625-31.616-31.625h-87.548c-42.701 0-85.035 14.127-119.168 39.735l-61.1 45.914c-7.192 5.414-15.617 8.030-23.967 8.030-23.084 0-40.050-18.995-40.050-40.124 0-12.16 5.52-24.064 15.993-31.923l61.119-45.931c47.902-35.938 107.234-55.799 167.236-55.799h87.548c58.884 0 107.268 45.879 111.334 103.808 29.615 20.407 48.051 54.255 48.051 91.503 0 5.086-0.367 10.193-1.071 15.223 29.734 20.279 48.802 54.374 48.802 92.258 0 8.866-1.067 17.591-3.127 26.103 30.626 21.41 50.795 54.618 50.795 93.338z" />
<glyph unicode="&#xe927;" glyph-name="like-alt" d="M298.578 108.037v373.487c0 29.461-23.893 51.856-53.355 51.856h-106.711c-29.462 0-53.356-23.892-53.356-51.856v-371.985c0-29.466 23.893-51.857 53.356-51.857h106.711c29.512-2.999 53.355 19.507 53.355 50.355zM938.842 479.855c0 44.187-35.814 80.002-80.030 80.002h-244.271c37.969 63.209 57.557 134.856 57.557 160.1-0.030 39.316-30.878 80.2-82.564 80.2-105.263 0-43.955-126.969-180.41-236.098l-27.178-21.676c-19.675-15.84-29.679-39.014-29.846-62.357-0.039-0.043 0 0 0 0l-0.167-266.778c0-25.178 11.86-48.905 32.013-64.013l56.924-42.667c46.118-34.714 102.31-53.389 160-53.389h97.873c44.22 0 80.034 35.797 80.034 80 0 6.063-0.802 11.908-2.078 17.591 32.090 10.453 55.433 40.132 55.433 75.814 0 15.253-4.497 29.363-11.904 41.485 37.082 6.869 65.259 39.381 65.259 78.396 0 20.843-8.158 39.65-21.21 53.892 41.553 2.799 74.564 37.146 74.564 79.497z" />
<glyph unicode="&#xe928;" glyph-name="dislike" d="M298.667 373.355v373.283c0 29.45-23.884 51.834-53.333 51.834h-106.667c-29.45 0-53.333-23.884-53.333-51.834v-371.832c0-29.453 23.884-51.836 53.333-51.836h106.667c29.5-2.948 53.333 20.885 53.333 50.385zM887.834 471.522c2.057 8.486 3.123 17.199 3.123 26.065 0 37.833-19.063 71.884-48.798 92.134 0.704 5.025 1.067 10.127 1.067 15.203 0 37.2-18.432 71-48.051 91.383-4.062 57.85-52.45 103.667-111.33 103.667h-87.552c-59.9 0-119.249-19.783-167.168-55.683l-61.124-45.82c-10.475-7.85-15.993-19.75-15.993-31.883 0-21.267 17.15-40.067 40.050-40.067 8.355 0 16.783 2.608 23.967 8.018l61.101 45.85c34.133 25.566 76.467 39.683 119.164 39.683h87.552c17.417 0 31.616-14.161 31.616-31.583 0-5.833-1.847-8.233-1.847-15.76 0-44.95 49.613-29.85 49.613-67.733 0-15.423-10.65-18.266-10.65-37.083 0-23.283 18.082-36.583 32.631-39.316 14.921-2.785 25.749-15.802 25.749-30.932 0-21.734-18.982-22.285-18.982-48.183 0-20.902 16.171-38.468 37.265-39.902 16.431 0.277 29.431-14.891 29.431-29.726 0-17.382-14.195-31.548-31.616-31.548h-229.385c-20.732 0-40-16.7-40-38.502 0-6.729 1.702-13.461 5.111-19.533 29.888-56.414 42.556-109.918 42.556-122.249 0-13.406-9.975-34.65-36.766-34.65-20.885 0-23.782 1.51-41.566 46.784-41.25 104.849-102.902 166.498-134.968 166.498-23 0-40.033-18.782-40.033-39.983 0-11.733 5.138-23.369 15.027-31.266 115.141-92.049 70.639-222.050 201.472-222.050 73.169 0 116.834 58.334 116.834 114.667 0 21.167-8.879 58.684-24.717 98.884h166.434c60.117-0.051 111.616 49.95 111.616 112.947 0 37.167-20.169 71.834-50.833 91.669z" />
<glyph unicode="&#xe929;" glyph-name="dislike-alt" d="M245.333 799.934h-106.667c-29.45 0-53.333-23.867-53.333-51.834v-371.831c0-29.453 23.884-51.836 53.333-51.836h106.667c29.45 0 53.333 23.885 53.333 51.836v370.348c0 29.45-23.833 53.317-53.333 53.317zM864.166 453.001c13.001 14.165 21.167 32.998 21.167 53.833 0 39.117-28.117 71.534-65.233 78.484 7.398 12.017 11.9 26.183 11.9 42.85 0 35.533-23.334 65.3-55.415 75.717 1.25 4.25 2.082 10.1 2.082 16.15 0 44.183-35.831 79.967-80 79.967h-97.818c-57.681 0-113.801-18.7-159.949-53.3l-56.9-42.65c-20.167-15.1-32-38.883-32-62.55l0.179-266.665c0 0-0.039 0.038 0 0 0.117-23.317 10.205-46.566 29.85-62.268l27.167-21.717c136.473-110.682 75.139-237.517 180.304-237.517 51.601 0 82.449 40.866 82.449 80.183 0 25.25-19.597 96.866-57.532 160.034h244.25c44.198 0 80 35.785 80 79.966 0 42.317-32.998 76.651-74.5 79.484z" />
<glyph unicode="&#xe92a;" glyph-name="user" d="M585.143 354.667h-146.287c-148.113 0-268.19-118.199-268.19-264 0-26.505 21.836-48 48.762-48h585.141c26.927 0 48.764 21.495 48.764 48 0 145.801-120.077 264-268.19 264zM245.318 114.667c12.038 94.652 94.187 168 193.539 168h146.287c99.29 0 181.487-73.425 193.523-168h-533.349zM512 426.667c107.716 0 195.046 85.965 195.046 192s-87.33 192-195.046 192c-107.718 0-195.048-85.965-195.048-192 0-106.050 87.314-192 195.048-192zM512 738.667c67.217 0 121.903-53.835 121.903-120s-54.686-120-121.903-120c-67.217 0-121.905 53.85-121.905 120 0 66.165 54.705 120 121.905 120z" />
<glyph unicode="&#xe92b;" glyph-name="user-alt" d="M512 666.667c-41.109-1.111-75.554-15.555-103.334-43.333-27.778-27.778-42.222-62.223-43.333-103.334 1.111-41.109 15.555-75.554 43.333-103.334 27.779-27.776 62.224-42.223 103.334-43.332 41.109 1.109 75.554 15.556 103.334 43.332 27.776 27.78 42.223 62.225 43.332 103.334-1.109 41.111-15.556 75.555-43.332 103.334-27.78 27.778-62.225 42.222-103.334 43.333zM512 453.334c-18.889 0-34.445 6.665-46.669 20.002-13.329 12.22-19.998 27.776-19.998 46.665s6.669 34.444 19.998 46.667c12.224 13.333 27.78 20 46.669 20s34.445-6.667 46.669-20c13.329-12.222 19.998-27.778 19.998-46.667s-6.669-34.445-19.998-46.665c-12.224-13.338-27.78-20.002-46.669-20.002zM512 853.334c-80-1.111-151.667-20.556-215-58.333-64.445-37.777-115.556-88.889-153.333-153.333-37.778-63.333-57.222-135-58.333-215 1.111-80 20.556-151.667 58.333-215.002 37.777-64.444 88.889-115.554 153.333-153.331 63.333-37.777 135-57.225 215-58.334 80 1.109 151.667 20.557 215.002 58.334 64.444 37.777 115.554 88.887 153.331 153.331 37.777 63.334 57.225 135.002 58.334 215.002-1.109 80-20.557 151.667-58.334 215-37.777 64.445-88.887 115.556-153.331 153.333-63.334 37.778-135.002 57.222-215.002 58.333zM512 80c-78.891 1.109-147.778 24.444-206.667 69.999 14.444 27.78 34.444 49.446 60 65.003 25.556 16.666 54.444 24.998 86.669 24.998h119.996c32.226 0 61.111-8.333 86.669-24.998 25.557-15.556 46.11-37.222 61.666-65.003-59.998-45.555-129.442-68.89-208.333-69.999zM778.667 205.001c-22.221 35.554-51.665 63.889-88.333 85.001-35.554 19.998-74.999 29.999-118.336 29.999h-119.996c-43.336 0-82.78-10.001-118.336-29.999-35.555-20.002-65-47.778-88.333-83.332-51.111 61.107-77.778 134.443-80 219.998 2.222 97.778 36.111 179.444 101.667 245s147.222 99.444 245 101.667c97.779-2.222 179.443-36.111 245.001-101.667 65.553-65.556 99.443-147.222 101.666-245-2.223-85.555-28.89-159.445-80-221.666z" />
<glyph unicode="&#xe92c;" glyph-name="edit" d="M815.735 723.508c17.771-19.034 26.658-41.576 26.658-67.623s-8.887-48.588-26.658-67.623l-72.576-73.634-192.546 195.356 72.576 73.634c18.761 18.033 40.977 27.049 66.65 27.049s47.889-9.016 66.65-27.049l59.247-60.11zM172.931 325.282l345.098 351.641 192.546-195.357-345.1-350.135c-15.799-16.030-34.559-27.554-56.282-34.564l-177.734-52.595c-13.824-4.011-25.673-0.503-35.547 10.517-9.874 9.015-12.836 20.54-8.887 34.564l51.839 180.326c6.912 22.042 18.267 40.576 34.065 55.603zM903.121 114.897c21.722-2.001 33.57-14.025 35.546-36.066-1.975-22.037-13.824-34.061-35.546-36.066h-450.261c-21.722 2.005-33.571 14.029-35.545 36.066 1.975 22.042 13.824 34.065 35.545 36.066h450.261z" />
<glyph unicode="&#xe92d;" glyph-name="tutorials" d="M913.57 825.954c-15.974 15.971-36.51 25.098-61.606 25.098h-82.138c-25.101 0-45.632-9.126-61.606-25.098-15.97-15.971-25.097-36.506-25.097-43.351v-613.762l93.547-148.305c6.844-11.409 20.535-18.253 34.223-18.253 13.692 0 25.101 6.844 34.227 18.253l93.547 148.305v613.762c0 6.845-9.126 27.38-25.097 43.351zM767.543 759.787c0 2.281 0 2.281 2.283 4.563s2.283 2.281 4.561 2.281h73.015c2.278 0 4.561 0 4.561-2.281 2.283-2.282 2.283-2.282 2.283-4.563v-77.576h-84.42v77.576h-2.283zM851.964 278.362l-11.409 11.405-31.94-34.223-31.945 34.223-11.409-11.405v317.146h84.42l2.283-317.146zM851.964 173.406l-31.94-47.915h-20.535l-31.945 47.915v29.662l11.409 11.405 31.94-31.94 31.945 31.94 11.409-11.405v-29.662h-2.283zM555.349 679.929h-257.824c-22.816 0-43.351-18.253-43.351-43.351 0-22.816 18.253-43.351 43.351-43.351h255.545c22.814 0 43.349 18.253 43.349 43.351 0 22.816-18.253 43.351-41.071 43.351zM596.42 467.738c0 22.814-18.253 43.349-43.349 43.349h-255.545c-22.816 0-43.351-18.253-43.351-43.349 0-22.818 18.253-43.354 43.351-43.354h255.545c25.097 0 43.349 18.253 43.349 43.354zM297.526 339.964c-22.816 0-43.351-18.253-43.351-43.349 0-22.818 18.253-43.354 43.351-43.354h86.703c22.816 0 43.351 18.253 43.351 43.354 0 22.814-18.254 43.349-43.351 43.349h-86.703zM660.305 84.421h-490.551v684.492h428.949c22.814 0 43.349 18.253 43.349 43.351s-20.535 41.070-43.349 41.070h-447.202c-36.506 0-66.167-29.661-66.167-66.167v-720.998c0-36.506 29.661-66.167 66.167-66.167h508.804c22.818 0 43.354 18.253 43.354 43.349-2.283 22.818-20.535 41.071-43.354 41.071z" />
<glyph unicode="&#xe92e;" glyph-name="docs" d="M896 266.667v506.667c0 44.116-36.855 80-82.287 80h-548.57c-75.617 0-137.143-59.8-137.143-133.333v-586.667c0-73.502 61.526-133.333 137.143-133.333h589.713c22.716 0 41.143 17.916 41.143 40s-18.428 40-41.143 40h-13.713v111.582c31.885 11.085 54.857 40.418 54.857 75.085zM758.857 80h-493.713c-30.24 0-54.857 23.902-54.857 53.333s24.617 53.333 54.857 53.333h493.713v-106.667zM813.713 266.667h-548.57c-19.509 0-38.057-3.959-54.857-11.145v464.478c0 29.433 24.617 53.333 54.857 53.333h548.57v-506.667zM388.571 586.667h301.716c22.797 0 41.143 17.833 41.143 40s-18.347 40-41.143 40h-301.716c-22.628 0-41.143-18-41.143-40s18.514-40 41.143-40zM388.571 453.334h301.716c22.797 0 41.143 17.835 41.143 40 0 22.167-18.347 40-41.143 40h-301.716c-22.628 0-41.143-18-41.143-40s18.514-40 41.143-40z" />
<glyph unicode="&#xe92f;" glyph-name="tools" d="M462.707 666.229l0.004-73.256 45.892-44.729c-10.317 52.409 5.239 105.766 42.735 143.34 30.37 30.436 70.673 46.788 112.478 46.788h1.69l-87.305-85.821 22.694-136.186 135.923-22.712 85.854 86.048c0.38-42.459-15.927-83.403-46.857-114.212-13.871-14.089-30.178-24.798-47.625-32.508 2.628-2.445 5.811-4.361 8.439-6.989l45.943-46.17c15.748 9.579 30.746 21.039 44.245 34.569 56.981 55.761 80.414 141.641 60.915 220.187-4.501 18.412-18.573 32.87-36.57 37.936-18.377 5.070-37.875-0.192-49.647-13.53l-88.107-88.105-48.555 8.073-8.064 48.847 87.923 87.925c13.312 12.175 18.377 31.713 13.308 49.749-4.877 18.216-19.499 32.314-37.875 36.808-79.676 19.9-161.839-3.021-219.738-60.886-15.373-15.406-27.75-32.69-38.054-49.749l1.69-1.127-1.34-24.29zM287.065 128.457c-19.124-19.162-52.873-19.162-72.177-0.004-9.562 9.579-14.999 21.193-14.999 34.718-0.001 13.713 5.247 26.483 14.995 34.718l201.625 204.565-50.848 50.953-201.591-201.702c-23.249-23.296-34.648-54.289-35.983-85.82-1.335-31.535 12.754-63.863 35.998-87.159 23.249-23.296 54.178-36.058 85.646-36.058 32.803 0.004 63.747 12.779 86.981 36.070l151.343 151.654c-14.438 23.851-22.694 50.906-23.445 78.336l-177.545-180.271zM879.689 216.081l-175.646 175.851c-34.692 34.752-86.468 41.557-128.077 20.894l-161.257 160.368v93.201l-190.641 144.272-95.995-94.839 143.993-191.031 93.056-0.012 160.042-160.22c-20.429-41.707-13.824-93.589 20.864-128.341l175.492-176c21.747-21.973 57.314-21.973 79.061 0.004l79.121 79.283c21.734 19.307 21.734 54.775-0.013 76.57z" />
<glyph unicode="&#xe930;" glyph-name="config" d="M313.905 624.762h60.952v30.476c0 25.333 20.381 45.714 45.714 45.714s45.716-20.381 45.716-45.714v-30.476h243.81c25.331 0 45.713-20.381 45.713-45.714s-20.382-45.714-45.713-45.714h-243.81v-30.477c0-25.331-20.382-45.713-45.716-45.713s-45.714 20.382-45.714 45.713v30.477h-60.952c-25.333 0-45.714 20.381-45.714 45.714s20.381 45.714 45.714 45.714zM313.905 228.57c-25.333 0-45.714 20.382-45.714 45.717 0 25.331 20.381 45.713 45.714 45.713h243.808v30.477c0 25.331 20.382 45.713 45.717 45.713 25.331 0 45.713-20.382 45.713-45.713v-30.477h60.954c25.331 0 45.713-20.382 45.713-45.713 0-25.335-20.382-45.717-45.713-45.717h-60.954v-30.473c0-25.335-20.382-45.717-45.713-45.717-25.335 0-45.717 20.382-45.717 45.717v30.473h-243.808zM85.333 731.429c0 67.333 54.572 121.905 121.905 121.905h609.526c67.238 0 121.903-54.572 121.903-121.905v-609.526c0-67.238-54.665-121.903-121.903-121.903h-609.526c-67.333 0-121.905 54.665-121.905 121.903v609.526zM207.238 91.431h609.526c16.759 0 30.473 13.713 30.473 30.473v609.526c0 16.838-13.713 30.476-30.473 30.476h-609.526c-16.838 0-30.476-13.638-30.476-30.476v-609.526c0-16.759 13.638-30.473 30.476-30.473z" />
<glyph unicode="&#xe931;" glyph-name="bell" d="M566.878 800v-29.8c124.292-19.183 219.439-123.866 219.439-250.2v-55.667c0-75.665 26.573-149.167 75.093-208.333l25.54-31.002c9.946-11.998 11.831-28.497 4.975-42.334-6.861-13.833-21.261-22.665-37.030-22.665h-685.75c-15.824 0-30.233 8.832-37.083 22.665-6.853 13.837-4.925 30.336 4.956 42.334l25.561 31.002c48.637 59.166 75.141 132.668 75.141 208.333v55.667c0 126.333 95.148 231.017 219.441 250.2v29.8c0 29.45 24.516 53.333 54.861 53.333 30.34 0 54.857-23.884 54.857-53.333zM498.304 693.334c-98.405 0-178.294-77.667-178.294-173.333v-55.667c0-79.834-23.796-157.666-68.044-224.333h520.121c-44.228 66.667-68.058 144.499-68.058 224.333v55.667c0 95.667-79.889 173.333-178.295 173.333h-27.43zM621.739 106.667c0-26.833-11.486-55.501-32.060-75.499-20.57-20.002-50.057-31.168-77.658-31.168-29.146 0-57.092 11.166-77.662 31.168-20.573 19.998-32.060 48.666-32.060 75.499h219.439z" />
<glyph unicode="&#xe932;" glyph-name="plugin" d="M352 853.334c22.167 0 40-17.917 40-40v-146.667h-80v146.667c0 22.083 17.917 40 40 40zM672 853.334c22.165 0 40-17.917 40-40v-146.667h-80v146.667c0 22.083 17.835 40 40 40zM792 613.334c22.165 0 40-17.833 40-40s-17.835-40-40-40h-13.333v-106.667c0-133.666-99.831-244.335-226.667-263.667v-162.999h-80v162.999c-128.3 19.332-226.667 130.001-226.667 263.667v106.667h-13.333c-22.083 0-40 17.833-40 40s17.917 40 40 40h560zM512 240c103.168 0 186.667 83.499 186.667 186.667v106.667h-373.333v-106.667c0-103.168 83.5-186.667 186.667-186.667z" />
<glyph unicode="&#xe933;" glyph-name="lifesaver" d="M858.833 135.002c16.998-15.667 16.998-41.003 0-55.168-14.165-16.998-39.501-16.998-55.168 0l-19.499 18.167c-74.001-61.167-168.666-98.001-272.166-98.001s-198.167 36.834-272.1 98.001l-19.617-18.167c-15.616-16.998-40.95-16.998-56.567 0-15.617 14.165-15.617 39.501 0 55.168l19.617 19.499c-61.2 74.001-98 168.666-98 272.166s36.8 198.167 98 272.1l-19.617 19.617c-15.617 15.616-15.617 40.95 0 56.567s40.95 15.617 56.567 0l19.617-19.617c73.933 61.2 168.6 98 272.1 98s198.165-36.8 272.166-98l19.499 19.617c15.667 15.617 41.003 15.617 55.168 0 16.998-15.616 16.998-40.95 0-56.567l-18.167-19.617c61.167-73.933 98.001-168.6 98.001-272.1s-36.834-198.165-98.001-272.166l18.167-19.499zM593.331 288.832c-23.829-14.165-51.665-22.165-81.331-22.165s-57.502 8-81.331 22.165l-133.836-133.999c59-46.835 133.836-74.833 215.167-74.833s156.169 27.998 215.168 74.833l-133.837 133.999zM858.667 426.667c0 81.331-27.998 156.167-74.833 215.167l-133.999-133.836c14.165-23.829 22.165-51.665 22.165-81.331s-8-57.502-22.165-81.331l133.999-133.837c46.835 58.999 74.833 133.837 74.833 215.168zM512 773.334c-81.331 0-156.167-28-215.167-74.883l133.836-133.95c23.829 14.167 51.665 22.167 81.331 22.167s57.502-8 81.331-22.167l133.837 133.95c-58.999 46.883-133.837 74.883-215.168 74.883zM374.167 345.336c-14.167 23.829-22.167 51.665-22.167 81.331s8 57.502 22.167 81.331l-133.95 133.836c-46.883-59-74.883-133.836-74.883-215.167s28-156.169 74.883-215.168l133.95 133.837zM512 506.667c-44.169 0-80-35.831-80-80s35.831-80 80-80c44.169 0 80 35.831 80 80s-35.831 80-80 80z" />
<glyph unicode="&#xe934;" glyph-name="compress-alt" d="M925.060 840.833c-16.674 16.667-43.682 16.667-60.369 0l-144.751-144.68-83.652 83.612c-10.897 10.875-25.434 16.623-40.252 16.623-7.322 0-14.72-1.408-21.773-4.29-21.291-8.806-35.127-29.565-35.127-52.553v-240.186c0-23.556 19.102-41.067 42.688-41.067h241.903c23.019 0 43.81 13.862 52.578 35.11 8.841 21.282 3.951 45.727-12.339 61.995l-83.669 83.611 144.751 144.681c18.155 13.481 18.155 40.469 0.013 57.145zM439.475 398.204h-241.903c-23.017 0-43.81-13.862-52.579-35.11-7.239-21.244-2.348-45.781 13.927-61.956l83.67-83.614-144.751-144.678c-16.675-16.67-16.675-43.665 0-60.339 16.675-16.678 43.685-16.67 60.369 0l144.751 144.678 83.653-83.61c10.898-10.876 25.417-16.657 40.25-16.657 7.326 0 14.729 1.438 21.79 4.322 21.291 8.806 35.132 29.564 35.132 52.553v241.745c-1.621 23.646-19.051 42.667-44.309 42.667z" />
<glyph unicode="&#xe935;" glyph-name="calendar" d="M388.571 746.667h246.859v66.667c0 22.083 18.342 40 41.139 40 22.801 0 41.143-17.917 41.143-40v-66.667h68.574c60.514 0 109.713-47.75 109.713-106.667v-533.333c0-58.833-49.199-106.667-109.713-106.667h-548.573c-60.6 0-109.714 47.834-109.714 106.667v533.333c0 58.917 49.114 106.667 109.714 106.667h68.571v66.667c0 22.083 18.343 40 41.143 40s41.143-17.917 41.143-40v-66.667zM210.286 106.667c0-14.669 12.274-26.667 27.429-26.667h548.573c15.083 0 27.426 11.998 27.426 26.667v426.667h-603.427v-426.667z" />
<glyph unicode="&#xe936;" glyph-name="cart" d="M228.112 810.667c17.104 0 31.828-12.285 35.1-29.265l2.231-18.735h625.698c30.191 0 54.285-30.375 45.807-60.99l-80.311-288.062c-5.803-20.698-24.542-34.948-45.807-34.948h-471.617l13.683-72h458.228c19.78 0 35.695-16.051 35.695-35.998 0-19.951-15.915-36.002-35.695-36.002h-489.164c-15.765 0-30.489 12.301-33.761 29.248l-89.623 474.752h-77.547c-19.706 0-35.695 16.125-35.695 36s15.988 36 35.695 36h107.084zM792.683 450.667l66.927 240h-579.294l45.362-240h467.005zM275.705 114.667c0 39.748 31.977 72 71.389 72s71.389-32.252 71.389-72c0-39.748-31.977-72-71.389-72s-71.389 32.252-71.389 72zM846.818 114.667c0-39.748-31.974-72-71.39-72-39.411 0-71.386 32.252-71.386 72s31.974 72 71.386 72c39.415 0 71.39-32.252 71.39-72z" />
<glyph unicode="&#xe937;" glyph-name="code" d="M638.532 726.509l-192-618.668c-6.4-16.934-23.199-26.27-39.999-21.069-16.933 6.4-26.4 23.202-21.066 40l192.001 618.698c5.197 16.886 23.198 26.323 40 21.085 16.934-5.239 26.398-23.165 21.065-40.045zM757.867 609.986l170.667-160.006c6.532-5.999 10.133-14.532 10.133-22.131 0-10.001-3.601-17.335-10.133-24.533l-170.667-160.009c-12.932-12.13-33.067-11.465-45.201 1.468-12.134 12.937-11.465 33.067 1.468 45.201l145.732 137.873-145.732 135.469c-12.932 12.134-13.602 32.268-1.468 45.201s32.269 13.6 45.201 1.467zM309.867 563.318l-145.747-135.469 145.747-137.873c12.933-12.134 13.6-32.265 1.467-45.201-12.134-12.932-32.267-13.598-45.2-1.468l-170.687 160.009c-6.452 7.198-10.113 14.532-10.113 24.533 0 7.599 3.661 16.132 10.113 22.131l170.687 160.006c12.934 12.134 33.067 11.467 45.2-1.467s11.466-33.068-1.467-45.201z" />
<glyph unicode="&#xe938;" glyph-name="rss" d="M335.429 673.524c-22.457 1.372-41.863-16.8-42.823-39.428-0.943-22.8 16.765-41.829 39.394-41.315 182.398-7.661 337.030-162.274 344.57-344.572 1.028-23.659 19.2-40.973 39.603-40.973 0.589 0 1.152 0 1.741 0.055 22.716 0.909 40.337 20.092 39.394 42.807-7.881 224.051-197.824 413.996-421.879 423.424zM336.457 508.783c-22.474 0.747-42.274-15.646-43.748-38.366-1.473-22.665 15.724-42.274 38.383-43.716 93.754-6.106 175.029-87.326 181.028-181.030 1.425-21.803 19.422-38.434 39.479-38.434 0.913 0 1.822 0.055 2.735 0.111 22.66 1.446 39.855 21.047 38.383 43.712-7.172 133.436-122.889 249.152-256.26 257.724zM347.429 316.954c-14.039 0-28.080-5.35-38.794-16.064-21.429-21.431-21.429-56.162 0-77.589 10.68-10.748 24.737-16.064 38.794-16.064s28.080 5.35 38.794 16.068c21.428 21.427 21.428 56.158 0 77.585-10.68 10.748-24.737 16.064-38.794 16.064zM786.287 810.667h-548.573c-60.6 0-109.714-49.132-109.714-109.714v-548.573c0-60.582 49.114-109.713 109.714-109.713h548.573c60.599 0 109.713 49.131 109.713 109.713v548.573c0 60.583-49.199 109.714-109.713 109.714zM813.713 152.38c0-15.117-12.305-27.426-27.426-27.426h-548.573c-15.124 0-27.429 12.309-27.429 27.426v548.573c0 15.12 12.305 27.429 27.429 27.429h548.573c15.121 0 27.426-12.308 27.426-27.429v-548.573z" />
<glyph unicode="&#xe939;" glyph-name="server" d="M832 810.667h-640c-58.917 0-106.667-49.114-106.667-109.714v-109.714c0-60.6 47.75-109.715 106.667-109.715h640c58.918 0 106.667 49.115 106.667 109.715v109.714c0 60.6-47.834 109.714-106.667 109.714zM858.667 591.238c0-15.123-11.964-27.428-26.667-27.428h-640c-14.7 0-26.667 12.343-26.667 27.428v109.714c0 15.124 11.963 27.429 26.667 27.429h640c14.703 0 26.667-12.305 26.667-27.429v-109.714zM832 371.81h-640c-58.917 0-106.667-49.114-106.667-109.713v-109.717c0-60.599 47.75-109.713 106.667-109.713h640c58.918 0 106.667 49.114 106.667 109.713v109.717c0 60.514-47.834 109.713-106.667 109.713zM858.667 152.38c0-15.121-11.964-27.426-26.667-27.426h-640c-14.703 0-26.667 12.305-26.667 27.426v109.717c0 15.121 11.963 27.426 26.667 27.426h640c14.703 0 26.667-12.305 26.667-27.426v-109.717zM672 687.238c-22.084 0-40-18.412-40-41.143 0-22.714 17.916-41.143 40-41.143s40 18.343 40 41.143c0 22.8-17.835 41.143-40 41.143zM778.667 687.238c-22.084 0-40-18.412-40-41.143 0-22.714 17.916-41.143 40-41.143s40 18.343 40 41.143c0 22.8-17.835 41.143-40 41.143zM672 248.38c-22.084 0-40-18.411-40-41.143 0-22.711 17.916-41.139 40-41.139s40 18.428 40 41.139c0 22.801-17.835 41.143-40 41.143zM778.667 248.38c-22.084 0-40-18.411-40-41.143 0-22.711 17.916-41.139 40-41.139s40 18.428 40 41.139c0 22.801-17.835 41.143-40 41.143z" />
<glyph unicode="&#xe93a;" glyph-name="search" d="M925.726 68.335l-223.394 223.33c48.346 59.17 75.021 133.67 75.021 215.002 0 191.5-155.26 346.667-346.761 346.667s-345.259-155.217-345.259-346.667c0-191.45 155.242-346.667 345.259-346.667 81.34 0 155.959 28.181 215.057 75.068l223.394-223.334c9.335-7.902 19.674-11.733 29.841-11.733 10.172 0 20.471 3.908 28.292 11.716 15.552 15.616 15.552 40.951-1.451 56.619zM165.355 506.667c0 147.033 119.665 266.667 266.739 266.667 147.072 0 266.739-119.633 266.739-266.667s-119.667-266.667-266.739-266.667c-147.073 0-266.739 119.667-266.739 266.667z" />
<glyph unicode="&#xe93b;" glyph-name="menu" d="M170.667 707.048c0 33.661 27.291 60.952 60.952 60.952h73.143c33.676 0 60.952-27.291 60.952-60.952v-73.143c0-33.676-27.276-60.952-60.952-60.952h-73.143c-33.661 0-60.952 27.276-60.952 60.952v73.143zM170.667 463.237c0 33.677 27.291 60.954 60.952 60.954h73.143c33.676 0 60.952-27.277 60.952-60.954v-73.139c0-33.677-27.276-60.954-60.952-60.954h-73.143c-33.661 0-60.952 27.277-60.952 60.954v73.139zM365.714 146.287c0-33.677-27.276-60.954-60.952-60.954h-73.143c-33.661 0-60.952 27.277-60.952 60.954v73.143c0 33.673 27.291 60.949 60.952 60.949h73.143c33.676 0 60.952-27.277 60.952-60.949v-73.143zM414.476 707.048c0 33.661 27.277 60.952 60.954 60.952h73.139c33.677 0 60.954-27.291 60.954-60.952v-73.143c0-33.676-27.277-60.952-60.954-60.952h-73.139c-33.677 0-60.954 27.276-60.954 60.952v73.143zM609.523 390.097c0-33.677-27.277-60.954-60.954-60.954h-73.139c-33.677 0-60.954 27.277-60.954 60.954v73.139c0 33.677 27.277 60.954 60.954 60.954h73.139c33.677 0 60.954-27.277 60.954-60.954v-73.139zM414.476 219.431c0 33.673 27.277 60.949 60.954 60.949h73.139c33.677 0 60.954-27.277 60.954-60.949v-73.143c0-33.677-27.277-60.954-60.954-60.954h-73.139c-33.677 0-60.954 27.277-60.954 60.954v73.143zM853.333 633.905c0-33.676-27.277-60.952-60.954-60.952h-73.143c-33.673 0-60.949 27.276-60.949 60.952v73.143c0 33.661 27.277 60.952 60.949 60.952h73.143c33.677 0 60.954-27.291 60.954-60.952v-73.143zM658.287 463.237c0 33.677 27.277 60.954 60.949 60.954h73.143c33.677 0 60.954-27.277 60.954-60.954v-73.139c0-33.677-27.277-60.954-60.954-60.954h-73.143c-33.673 0-60.949 27.277-60.949 60.954v73.139zM853.333 146.287c0-33.677-27.277-60.954-60.954-60.954h-73.143c-33.673 0-60.949 27.277-60.949 60.954v73.143c0 33.673 27.277 60.949 60.949 60.949h73.143c33.677 0 60.954-27.277 60.954-60.949v-73.143z" />
<glyph unicode="&#xe93c;" glyph-name="emoji" d="M171.199 784.185c44.084 37.018 106.287 32.987 147.446 1.785 43.799 31.366 105.447 34.943 150.296-1.455l0.448-0.42c53.999-45.464 56.7-126.447 7.799-175.345l-117.895-118.199c-21.149-20.548-56.698-22.046-78.747 0.602l-117.822 117.597c-48.885 50.249-46.234 129.986 8.475 175.435zM217.263 728.852c-21.87-18.135-22.814-50.009-3.585-69.253l106.617-106.347 105.897 106.347c19.351 19.215 18.301 51.074-2.85 69.208-18.299 14.565-47.098 12.945-65.848-5.085l-36.599-39.164-38.249 38.879c-19.049 18.644-48.494 19.634-65.173 5.58l-0.21-0.165zM895.979 548.002c0-41.1-43.051-72-96-72-52.945 0-95.996 30.899-95.996 72 0 38.399 43.051 71.998 95.996 71.998 8.252 0 16.35-2.1 24-3.6v114.342l-167.996-33.599v-197.14c0-41.097-43.046-71.996-95.996-71.996s-95.996 30.899-95.996 71.996c0 38.4 43.046 71.999 95.996 71.999 8.252 0 16.35-2.1 24-3.6v159.595c0 15.81 12.147 30.584 28.949 33.959l239.991 47.991c10.5 2.115 21.602-0.623 29.85-7.461 8.401-6.836 13.201-17.056 13.201-26.49v-227.994zM415.991 222.661c0-39.748-32.249-71.996-71.998-71.996s-71.998 32.247-71.998 71.996c0 39.748 32.249 72 71.998 72s71.998-32.252 71.998-72zM559.987 282.658v-143.996c0-52.945-43.051-95.996-95.996-95.996h-239.994c-53.023 0-95.997 43.051-95.997 95.996v143.996c0 52.949 42.974 96 94.647 96l12.090 21.449c8.13 16.35 24.749 27.9 42.929 27.9h132.626c18.15 0 34.799-11.55 42.901-27.9l10.799-21.449c52.945 0 95.996-43.051 95.996-96zM268.486 306.658h-45.839c-11.91 0-22.649-10.799-22.649-24v-143.996c0-13.197 10.74-23.996 23.999-23.996h239.994c13.197 0 24 10.799 24 23.996v143.996c0 13.201-10.803 24-24 24h-44.55l-23.999 49.348h-102.897l-24.059-49.348zM838.080 422.008c8.998-6.451 12.45-18.453 7.949-28.8l-57.6-134.545h83.55c10.048 0 18.897-6.153 21.15-15.603 4.8-9.297 2.249-19.947-5.402-26.398l-191.996-167.996c-8.397-6.148-20.847-7.949-29.845-1.348-9.003 6.451-12.301 18.449-7.953 28.8l57.6 134.545h-83.546c-10.052 0-18.901 6.148-22.502 15.599-3.447 9.301-0.9 19.951 6.75 27.75l191.996 167.996c8.401 6.148 20.847 6.596 29.85 0z" />
<glyph unicode="&#xe93d;" glyph-name="facebook" d="M697.374 373.334l22.123 154.433h-138.334v100.217c0 42.25 19.324 83.433 81.28 83.433h62.891v131.483c0 0-57.071 10.433-111.637 10.433-113.924 0-188.392-73.967-188.392-207.866v-117.7h-126.637v-154.433h126.637v-373.333h155.859v373.333h116.211z" />
<glyph unicode="&#xe93e;" glyph-name="instagram" d="M298.667 853.334h426.667c117.82 0 213.333-95.513 213.333-213.333v-426.667c0-117.82-95.514-213.333-213.333-213.333h-426.667c-117.821 0-213.333 95.514-213.333 213.333v426.667c0 117.821 95.513 213.333 213.333 213.333zM449.98 551.595c25.89 13.433 55.356 18.361 84.207 14.083 29.427-4.364 56.674-18.077 77.713-39.115 21.035-21.036 34.748-48.282 39.113-77.714 4.279-28.851-0.649-58.317-14.084-84.203-13.431-25.89-34.688-46.886-60.74-59.998s-55.578-17.677-84.373-13.043c-28.796 4.634-55.398 18.227-76.021 38.852-20.624 20.625-34.22 47.228-38.854 76.023s-0.070 58.321 13.044 84.373c13.113 26.052 34.107 47.307 59.996 60.74zM543.573 628.986c-42.167 6.253-85.231-0.949-123.070-20.583s-68.522-50.698-87.687-88.775c-19.165-38.079-25.836-81.228-19.064-123.314s26.643-80.969 56.786-111.108c30.143-30.144 69.022-50.014 111.108-56.789 42.086-6.771 85.239-0.098 123.315 19.068 38.076 19.162 69.141 49.847 88.777 87.684 19.631 37.837 26.833 80.905 20.582 123.072-6.379 43.012-26.423 82.831-57.169 113.578s-70.566 50.79-113.579 57.167z" />
<glyph unicode="&#xe93f;" glyph-name="twitter" d="M850.953 597.867c0.542-7.466 0.542-14.934 0.542-22.4 0-227.733-175.97-490.133-497.598-490.133-99.087 0-191.134 28.267-268.563 77.333 14.078-1.6 27.613-2.133 42.234-2.133 81.759 0 157.022 27.2 217.124 73.6-76.887 1.6-141.321 51.2-163.521 119.467 10.83-1.6 21.658-2.667 33.030-2.667 15.702 0 31.405 2.133 46.024 5.867-80.135 16-140.239 85.333-140.239 169.067v2.132c23.282-12.8 50.357-20.8 79.052-21.866-47.107 30.935-77.969 83.734-77.969 143.468 0 31.999 8.662 61.332 23.823 86.933 86.092-104.533 215.501-172.799 360.61-180.267-2.705 12.8-4.331 26.132-4.331 39.465 0 94.935 77.969 172.267 174.891 172.267 50.355 0 95.838-20.8 127.782-54.4 39.526 7.466 77.427 21.867 110.997 41.6-12.996-40.001-40.61-73.601-76.885-94.933 35.196 3.732 69.308 13.334 100.71 26.666-23.821-34.132-53.602-64.531-87.714-89.066z" />
<glyph unicode="&#xe940;" glyph-name="arrow-up" d="M511.991-0c-25.028 0-45.355 20.535-45.355 45.828v647.386l-239.15-253.274c-17.296-18.372-46.111-19.029-64.113-1.553-18.124 17.476-18.773 46.455-1.535 64.781l317.355 335.918c8.431 9.118 20.331 14.247 32.798 14.247s24.179-5.129 32.87-14.195l317.355-335.919c17.169-18.236 16.529-47.249-1.604-64.806-17.946-17.476-46.754-16.819-64.115 1.549l-239.151 253.277v-649.125c-0.017-25.216-20.42-44.113-45.355-44.113z" />
<glyph unicode="&#xe941;" glyph-name="arrow-down" d="M512.009 853.334c25.028 0 45.355-20.537 45.355-45.826v-647.388l239.151 253.274c17.293 18.372 46.11 19.029 64.111 1.553 18.125-17.476 18.773-46.455 1.536-64.781l-317.355-335.919c-8.431-9.118-20.331-14.246-32.798-14.246s-24.179 5.129-32.87 14.195l-317.355 335.919c-17.171 18.236-16.529 47.249 1.606 64.806 17.946 17.476 46.753 16.819 64.113-1.549l239.151-253.278v649.126c0.017 25.218 20.42 44.113 45.355 44.113z" />
<glyph unicode="&#xe942;" glyph-name="arrow-left" d="M938.667 426.658c0-25.028-20.535-45.355-45.828-45.355h-647.386l253.274-239.151c18.372-17.293 19.029-46.11 1.553-64.111-17.476-18.125-46.455-18.773-64.781-1.536l-335.918 317.355c-9.118 8.431-14.247 20.331-14.247 32.798s5.129 24.179 14.195 32.87l335.919 317.355c18.236 17.171 47.249 16.529 64.806-1.606 17.476-17.946 16.819-46.753-1.549-64.113l-253.277-239.151h649.125c25.216-0.017 44.113-20.42 44.113-45.355z" />
<glyph unicode="&#xe943;" glyph-name="arrow-right" d="M589.291 776.835l335.211-317.336c9.045-8.559 14.165-20.42 14.165-32.828 0-12.412-5.12-24.256-14.165-32.832l-335.211-317.333c-18.274-17.237-47.198-16.589-64.644 1.532-17.438 17.946-16.781 46.754 1.549 64.111l252.74 239.134h-647.873c-25.236 0-45.729 20.326-45.729 45.355s20.494 45.316 45.729 45.316h647.753l-252.74 239.134c-18.304 17.392-18.871 46.198-1.54 64.199 17.519 18.133 44.757 18.775 64.755 1.549z" />
<glyph unicode="&#xe944;" glyph-name="chevron-up" d="M877.76 170.816c-15.595 0-31.198 6.251-43.085 18.752l-322.628 338.649-322.666-338.798c-23.81-25.003-62.381-25.003-86.191 0-23.81 24.998-23.81 65.498 0 90.496l365.716 384.002c23.808 25 62.379 25 86.187 0l365.717-384.002c23.808-24.998 23.808-65.498 0-90.496-11.81-12.403-27.43-18.603-43.051-18.603z" />
<glyph unicode="&#xe945;" glyph-name="chevron-down" d="M511.97 170.667c-15.595 0-31.198 6.251-43.081 18.752l-365.7 383.998c-23.808 25-23.808 65.5 0 90.5s62.378 25 86.187 0l322.594-338.848 322.654 338.798c23.808 25 62.379 25 86.187 0s23.808-65.5 0-90.5l-365.7-383.999c-11.904-12.501-27.52-18.701-43.14-18.701z" />
<glyph unicode="&#xe946;" glyph-name="chevron-left" d="M688-0c-15.889 0-29.943 5.713-42.167 17.143l-351.999 365.713c-11 12.698-16.5 27.302-16.5 43.81s5.5 31.113 16.5 43.81l351.999 365.713c12.224 11.429 26.278 17.143 42.167 17.143s29.943-5.714 42.167-17.143c10.999-12.698 16.499-27.302 16.499-43.809s-5.5-31.111-16.499-43.81l-311.668-321.905 311.668-321.903c10.999-12.702 16.499-27.302 16.499-43.81s-5.5-31.113-16.499-43.81c-12.224-11.43-26.278-17.143-42.167-17.143z" />
<glyph unicode="&#xe947;" glyph-name="chevron-right" d="M336-0c-15.889 0-29.944 5.713-42.167 17.143-11 12.698-16.5 27.302-16.5 43.81s5.5 31.108 16.5 43.81l311.666 321.903-311.666 321.905c-11 12.698-16.5 27.302-16.5 43.81s5.5 31.111 16.5 43.809c12.222 11.429 26.278 17.143 42.167 17.143s29.944-5.714 42.167-17.143l352.001-365.713c10.999-12.698 16.499-27.302 16.499-43.81s-5.5-31.113-16.499-43.81l-352.001-365.713c-12.222-11.43-26.278-17.143-42.167-17.143z" />
<glyph unicode="&#xe948;" glyph-name="caret-up" d="M110.574 307.068l340.826 369.777c19.038 18.2 41.028 27.156 60.604 27.156s43.921-9.028 60.681-27.084l340.826-369.776c24.555-26.453 31.91-66.185 18.62-100.766-13.295-34.581-39.885-57.041-76.89-57.041h-684.063c-34.7 0-66.020 22.477-79.32 57.054s-5.873 74.389 18.717 100.681z" />
<glyph unicode="&#xe949;" glyph-name="caret-down" d="M913.425 546.267l-340.826-369.776c-19.038-18.202-41.028-27.157-60.604-27.157s-43.921 9.028-60.681 27.085l-340.827 369.776c-24.552 26.451-31.91 66.185-18.618 100.765s39.883 57.041 76.888 57.041h684.063c34.701 0 66.022-22.479 79.322-57.056s5.871-74.389-18.718-100.678z" />
<glyph unicode="&#xe94a;" glyph-name="caret-left" d="M631.599 828.093l-369.777-340.826c-18.2-19.038-27.156-41.028-27.156-60.604s9.028-43.921 27.084-60.681l369.776-340.826c26.453-24.555 66.185-31.91 100.766-18.62 34.581 13.295 57.041 39.885 57.041 76.89v684.063c0 34.7-22.477 66.020-57.054 79.32s-74.389 5.873-100.681-18.717z" />
<glyph unicode="&#xe94b;" glyph-name="caret-right" d="M392.4 828.093l369.776-340.826c18.202-19.038 27.157-41.028 27.157-60.604s-9.028-43.921-27.085-60.681l-369.776-340.826c-26.451-24.555-66.185-31.91-100.765-18.62-34.58 13.295-57.041 39.885-57.041 76.89v684.063c0 34.7 22.479 66.020 57.056 79.32s74.389 5.873 100.678-18.717z" />
<glyph unicode="&#xe94c;" glyph-name="rotate-left" d="M129.471 853.334c24.368 0 44.138-19.774 44.138-44.148v-187.811c73.011 122.38 206.528 202.324 353.286 202.324 227.127 0 411.772-184.665 411.772-411.842 0-227.174-184.644-411.857-411.772-411.857-96.201 0-189.975 33.719-263.907 95.228-18.74 15.637-21.26 43.452-5.631 62.195 15.632 18.799 43.513 21.265 62.179 5.632 58.027-48.273 131.591-74.944 207.175-74.944 178.449 0 323.678 145.263 323.678 323.746 0 178.486-145.284 323.75-323.678 323.75-122.371 0-233.194-70.415-287.815-176.59h184.827c24.46 0 44.137-19.866 44.137-44.147s-19.678-44.15-44.137-44.15h-294.253c-24.368 0-44.138 19.686-44.138 44.15v294.316c0 24.373 19.77 44.148 44.138 44.148z" />
<glyph unicode="&#xe94d;" glyph-name="rotate-right" d="M938.667 809.186v-294.321c0-24.466-19.678-44.148-44.139-44.148h-294.251c-24.277 0-44.139 19.682-44.139 44.148s19.767 44.148 44.139 44.148h184.828c-54.622 106.14-165.517 176.593-287.817 176.593-180.047 0-323.679-143.666-323.679-323.752s145.232-323.755 323.679-323.755c75.567 0 149.129 26.615 207.078 74.961 18.688 15.633 46.549 13.163 62.178-5.632 15.633-18.748 13.107-46.562-5.628-62.195-73.86-61.513-167.671-95.232-263.91-95.232-227.030-0.013-411.674 184.67-411.674 411.853 0 227.178 184.644 411.864 411.772 411.864 146.85 0 280.273-79.945 353.284-200.69v186.159c0 24.373 19.772 44.148 44.139 44.148s44.139-19.775 44.139-44.148z" />
<glyph unicode="&#xe94e;" glyph-name="exit" d="M405.451 83.81c0-22.801-17.84-41.143-40.015-41.143h-120.044c-88.399 0-160.058 73.681-160.058 164.57v438.859c0 90.892 71.66 164.571 160.058 164.571h120.044c22.175 0 40.015-18.412 40.015-41.143 0-22.714-17.84-41.143-40.015-41.143h-120.044c-44.016 0-80.029-37.029-80.029-82.286v-438.859c0-45.257 36.013-82.283 80.029-82.283h120.044c22.175 0 40.015-18.342 40.015-41.143zM928.141 454.78l-211.908 233.144c-15.164 16.608-40.482 17.349-56.538 1.768-16.102-15.535-16.875-41.571-1.719-58.132l148.288-163.75h-415.652c-20.674 0-38.514-18.513-38.514-41.143s17.923-41.143 38.514-41.143h414.15l-149.918-163.819c-15.164-16.55-14.383-42.581 1.715-58.129 9.318-7.424 19.157-11.196 27.494-11.196 10.628 0 21.257 4.339 29.129 12.966l211.908 233.139c17.557 15.838 17.557 40.525 3.051 56.294z" />
<glyph unicode="&#xe94f;" glyph-name="spinner-alt" d="M192 785.071c0 37.694 31.778 68.263 71.111 68.263 314.22 0 568.889-244.466 568.889-546.103 0-99.405-27.776-192.841-76.224-273.050-19.554-32.64-63.108-43.942-99.11-24.96-32 18.773-43.554 60.582-24 95.142 36.224 58.236 57.114 128.205 57.114 204.787 0 226.121-191.113 409.578-426.668 409.578-39.334 0-71.111 28.649-71.111 68.263v-1.92z" />
<glyph unicode="&#xe950;" glyph-name="spinner" d="M552 680c0-22.167-17.835-40-40-40s-40 17.833-40 40v133.333c0 22.083 17.835 40 40 40s40-17.917 40-40v-133.333zM552 40c0-22.165-17.835-40-40-40s-40 17.835-40 40v133.333c0 22.165 17.835 40 40 40s40-17.835 40-40v-133.333zM85.333 426.667c0 22.165 17.917 40 40 40h133.333c22.167 0 40-17.835 40-40s-17.833-40-40-40h-133.333c-22.083 0-40 17.835-40 40zM898.667 466.667c22.165 0 40-17.835 40-40s-17.835-40-40-40h-133.333c-22.165 0-40 17.835-40 40s17.835 40 40 40h133.333zM813.666 728.367c15.667-15.616 15.667-40.95 0-56.533l-94.165-94.333c-15.667-15.667-41.003-15.667-56.666 0-15.667 15.666-15.667 41 0 56.5l94.332 94.366c15.667 15.617 40.832 15.617 56.499 0zM266.833 125.001c-15.667-15.667-40.833-15.667-58 0-14.15 15.667-14.15 40.998 0 56.499l95.667 94.332c15.667 15.667 41 15.667 56.666 0 15.667-15.663 15.667-40.998 0-56.499l-94.333-94.332zM208.833 728.367c17.167 15.617 42.333 15.617 58 0l94.333-94.366c15.667-15.5 15.667-40.834 0-56.5s-41-15.667-56.666 0l-95.667 94.333c-14.15 15.584-14.15 40.917 0 56.533zM813.666 181.5c15.667-15.501 15.667-40.832 0-56.499s-40.832-15.667-56.499 0l-94.332 94.332c-15.667 15.501-15.667 40.836 0 56.499 15.663 15.667 40.998 15.667 56.666 0l94.165-94.332z" />
<glyph unicode="&#xe951;" glyph-name="grip" d="M426.667 704c0-35.346-28.654-64-64-64s-64 28.654-64 64c0 35.346 28.654 64 64 64s64-28.654 64-64zM682.667 704c0-35.346-28.655-64-64-64s-64 28.654-64 64c0 35.346 28.655 64 64 64s64-28.654 64-64zM682.667 426.667c0-35.345-28.655-64-64-64s-64 28.655-64 64c0 35.345 28.655 64 64 64s64-28.655 64-64zM426.667 426.667c0-35.345-28.654-64-64-64s-64 28.655-64 64c0 35.345 28.654 64 64 64s64-28.655 64-64zM426.667 149.334c0-35.345-28.654-64-64-64s-64 28.655-64 64c0 35.345 28.654 64 64 64s64-28.655 64-64zM682.667 149.334c0-35.345-28.655-64-64-64s-64 28.655-64 64c0 35.345 28.655 64 64 64s64-28.655 64-64z" />
<glyph unicode="&#xe952;" glyph-name="close" d="M836.548 172.502c19.989-19.934 19.989-52.279 0-72.218-19.989-19.934-52.42-19.934-72.414 0l-252.1 253.295-253.892-253.21c-19.989-19.934-52.422-19.934-72.413 0-19.991 19.938-19.989 52.279 0 72.218l253.977 253.124-254.047 255.12c-19.989 19.935-19.989 52.28 0 72.217s52.422 19.935 72.413 0l253.963-255.205 253.892 253.204c19.989 19.935 52.425 19.935 72.414 0 19.994-19.935 19.989-52.28 0-72.217l-253.978-253.12 252.186-253.21z" />
<glyph unicode="&#xe953;" glyph-name="close-alt" d="M938.667 426.667c0-235.639-191.027-426.667-426.667-426.667-235.642 0-426.667 191.027-426.667 426.667 0 235.642 191.025 426.667 426.667 426.667 235.639 0 426.667-191.025 426.667-426.667zM380.284 614.951c-15.621 15.621-40.948 15.621-56.568 0s-15.621-40.948 0-56.568l131.717-131.716-131.717-131.716c-15.621-15.62-15.621-40.947 0-56.567s40.948-15.62 56.568 0l131.716 131.716 131.716-131.716c15.62-15.62 40.947-15.62 56.567 0s15.62 40.947 0 56.567l-131.716 131.716 131.716 131.716c15.62 15.621 15.62 40.948 0 56.568s-40.947 15.621-56.567 0l-131.716-131.717-131.716 131.717z" />
<glyph unicode="&#xe954;" glyph-name="add" d="M853.333 426.667c0-29.030-23.518-52.531-52.514-52.531h-236.305v-236.305c0-29.030-23.518-52.497-52.514-52.497s-52.514 23.467-52.514 52.497v236.305h-236.306c-28.997 0-52.513 23.501-52.513 52.531s23.516 52.497 52.513 52.497h236.306v236.307c0 29.030 23.518 52.529 52.514 52.529s52.514-23.5 52.514-52.529v-236.307h236.305c29.047 0.017 52.514-23.45 52.514-52.497z" />
<glyph unicode="&#xe955;" glyph-name="upload" d="M829.333 93.137h-634.667c-25.028 0-45.333-20.497-45.333-45.751 0-26.816 20.305-47.386 45.333-47.386h634.667c25.028 0 45.333 20.493 45.333 45.747 0 25.293-20.211 47.39-45.333 47.39zM303.221 517.482l163.446 175.223v-463.961c0-25.254 20.305-45.807 45.333-45.807s45.333 20.553 45.333 45.807v463.961l163.447-175.185c9.007-9.56 20.907-14.322 32.998-14.322 11.153 0 22.306 4.109 31.053 12.448 18.24 17.271 19.115 46.225 1.946 64.623l-241.775 259.217c-17.118 18.463-48.887 18.463-66.001 0l-241.776-259.217c-17.172-18.41-16.284-47.36 1.943-64.692 18.19-17.333 46.882-14.854 64.052 1.905z" />
<glyph unicode="&#xe956;" glyph-name="compress" d="M344.381 304.764h-213.333c-25.238 0-45.714-20.382-45.714-45.717 0-25.237 20.476-45.713 45.714-45.713h167.619v-167.62c0-25.331 20.381-45.713 45.714-45.713s45.714 20.382 45.714 45.713v213.333c0 25.335-20.381 45.717-45.714 45.717zM679.62 548.572h213.333c25.331 0 45.713 20.381 45.713 45.714 0 25.257-20.476 45.714-45.713 45.714h-167.62v167.619c0 25.257-20.382 45.714-45.713 45.714-25.335 0-45.717-20.457-45.717-45.714v-213.333c0-25.333 20.382-45.714 45.717-45.714zM344.381 853.334c-25.333 0-45.714-20.457-45.714-45.714v-167.619h-167.619c-25.238 0-45.714-20.381-45.714-45.714s20.476-45.714 45.714-45.714h213.333c25.333 0 45.714 20.381 45.714 45.714v213.333c0 25.257-20.381 45.714-45.714 45.714zM892.954 304.764h-213.333c-25.335 0-45.717-20.382-45.717-45.717v-213.333c0-25.237 20.48-45.713 45.717-45.713s45.713 20.476 45.713 45.713v167.62h167.62c25.237 0 45.713 20.476 45.713 45.713 0 25.335-20.382 45.717-45.713 45.717z" />
<glyph unicode="&#xe957;" glyph-name="settings" d="M345.966 426.667c0 89.833 72.818 160 166.047 160 91.669 0 166.046-70.167 166.046-160 0-88.333-74.377-160-166.046-160-93.229 0-166.047 71.667-166.047 160zM512.013 506.667c-45.837 0-83.025-35.831-83.025-80s37.188-80 83.025-80c45.833 0 83.021 35.831 83.021 80s-37.188 80-83.021 80zM576.183 853.333c38.396 0 71.778-25.316 80.772-61.233l13.491-54.117c14.703-6.916 28.71-14.767 42.031-23.45l55.522 15.75c36.838 10.45 76.275-4.733 95.475-36.733l64.171-107.050c19.025-32 12.971-72.5-14.703-98.001l-42.031-37.001c0.521-9.165 0.866-16.998 0.866-24.832s-0.346-15.667-0.866-23.334l42.031-38.498c27.674-25.502 33.728-66.001 14.703-98.001l-64.171-106.999c-19.2-32-58.637-47.168-95.475-36.834l-55.522 15.834c-13.321-8.666-27.328-16.499-42.031-23.501l-13.491-54.165c-8.994-35.831-42.377-61.167-80.772-61.167h-128.341c-38.398 0-71.78 25.335-80.774 61.167l-13.491 54.165c-14.702 7.002-28.712 14.835-42.031 23.501l-57.078-15.834c-35.233-10.334-74.651 4.834-93.833 36.834l-64.17 106.999c-19.182 32-13.114 72.499 14.667 98.001l41.927 38.498c-0.536 7.667-0.813 15.501-0.813 24.836 0 6.332 0.277 14.165 0.813 23.33l-41.927 37.001c-27.783 25.501-33.849 66.001-14.667 98.001l64.17 107.050c19.182 32 58.6 47.183 93.833 36.733l57.078-15.75c13.318 8.683 27.328 16.533 42.031 23.45l13.491 54.117c8.994 35.933 42.376 61.233 80.774 61.233h128.341zM424.665 680.667l-19.372-7.833c-21.967-8.833-42.377-20.333-60.884-34l-16.777-12.334-95.096 27-64.187-107 71.78-65.834-2.646-19.998c-1.453-11.166-2.214-22.502-2.214-34.001s0.761-22.835 2.214-34.001l2.646-19.998-71.763-65.835 64.17-106.999 95.096 26.999 16.777-12.335c18.507-13.666 38.917-25.165 60.884-33.997l19.372-7.834 23.177-92.668h128.341l23.177 92.668 19.371 7.834c21.965 8.832 42.377 20.331 60.885 33.997l16.777 12.335 95.13-26.999 64.171 106.999-71.782 65.835 2.594 19.998c1.557 11.166 2.249 22.502 2.249 34.001s-0.691 22.835-2.249 34.001l-2.594 19.998 71.782 65.834-64.171 107-95.13-27-16.777 12.334c-18.509 13.667-38.921 25.167-60.885 34l-19.371 7.833-23.177 92.667h-128.341l-23.177-92.667z" />
<glyph unicode="&#xe958;" glyph-name="refresh" d="M865.259 369.6c-22.716 6.665-46.319-6.391-52.877-28.996-38.481-134.204-162.010-226.825-301.892-226.825-118.251 0-225.376 68.053-278.164 170.667h178.452c23.549 0 42.659 19.11 42.659 42.667s-17.421 42.667-41.059 42.667h-284.385c-23.551 0-42.658-19.11-42.658-42.667v-284.446c0-23.556 19.107-42.667 42.658-42.667s42.658 19.11 42.658 42.667v181.513c70.741-118.225 199.425-195.733 339.841-195.733 175.962 0 333.086 117.884 382.319 286.754 8.179 24.179-4.975 46.221-27.55 54.4zM896.009 853.334c-23.462 0-42.658-19.111-42.658-42.667v-181.511c-70.562 118.311-199.424 195.733-341.261 195.733-175.964 0-333.211-117.884-382.303-286.755-6.612-22.578 6.381-46.221 28.989-52.8 22.822-6.72 46.372 6.443 52.878 28.995 38.623 132.605 162.153 225.227 300.436 225.227 118.251 0 225.374-68.053 278.165-170.667h-178.633c-23.462 0-42.658-19.2-42.658-42.667 0-23.468 19.196-42.668 42.658-42.668h284.386c23.552 0 42.658 19.11 42.658 42.668v284.445c0 23.555-19.017 42.667-42.658 42.667z" />
<glyph unicode="&#xe959;" glyph-name="trash" d="M408.381 186.667c0-14.669-11.657-26.667-25.905-26.667s-25.905 11.998-25.905 26.667v346.667c0 14.667 11.657 26.667 25.905 26.667s25.905-12 25.905-26.667v-346.667zM537.903 186.667c0-14.669-11.657-26.667-25.903-26.667s-25.903 11.998-25.903 26.667v346.667c0 14.667 11.657 26.667 25.903 26.667s25.903-12 25.903-26.667v-346.667zM667.43 186.667c0-14.669-11.661-26.667-25.907-26.667s-25.903 11.998-25.903 26.667v346.667c0 14.667 11.657 26.667 25.903 26.667s25.907-12 25.907-26.667v-346.667zM663.381 811.767l59.418-91.767h113.011c21.534 0 38.857-17.917 38.857-40 0-22.167-17.323-40-38.857-40h-12.954v-506.667c0-73.668-57.963-133.333-129.523-133.333h-362.667c-71.529 0-129.524 59.665-129.524 133.333v506.667h-12.953c-21.452 0-38.857 17.833-38.857 40 0 22.083 17.405 40 38.857 40h113.042l59.387 91.767c16.838 25.972 45.171 41.567 75.447 41.567h151.868c30.276 0 58.607-15.597 75.447-41.567zM394.619 720h234.761l-30.763 47.4c-2.428 3.7-6.477 5.933-10.684 5.933h-151.868c-4.207 0-9.714-2.233-10.685-5.933l-30.762-47.4zM278.857 133.334c0-29.5 23.201-53.333 51.81-53.333h362.667c28.659 0 51.81 23.834 51.81 53.333v506.667h-466.287v-506.667z" />
<glyph unicode="&#xe95a;" glyph-name="trash-alt" d="M389.562 823.85c8.743 18.070 26.714 29.484 46.304 29.484h194.935c19.588 0 37.559-11.413 46.302-29.484l11.661-23.85h155.426c28.659 0 51.81-23.884 51.81-53.333s-23.151-53.333-51.81-53.333h-621.713c-28.609 0-51.81 23.884-51.81 53.333s23.201 53.333 51.81 53.333h155.428l11.657 23.85zM221.019 640h623.171v-533.333c0-58.833-46.464-106.667-103.62-106.667h-415.931c-55.776 0-103.619 47.834-103.619 106.667v533.333zM350.543 506.667v-373.333c0-14.669 13.114-26.667 25.905-26.667 15.705 0 25.905 11.998 25.905 26.667v373.333c0 14.667-10.2 26.667-25.905 26.667-12.791 0-25.905-12-25.905-26.667zM505.971 506.667v-373.333c0-14.669 13.116-26.667 25.903-26.667 15.706 0 27.362 11.998 27.362 26.667v373.333c0 14.667-11.657 26.667-27.362 26.667-12.787 0-25.903-12-25.903-26.667zM662.857 506.667v-373.333c0-14.669 11.657-26.667 25.907-26.667 14.246 0 25.903 11.998 25.903 26.667v373.333c0 14.667-11.657 26.667-25.903 26.667-14.251 0-25.907-12-25.907-26.667z" />
<glyph unicode="&#xe95b;" glyph-name="fullscreen" d="M312 170.667h-146.667v156.446c0 23.642-17.917 42.667-40 42.667s-40-19.025-40-42.667v-199.113c0-23.646 17.917-42.667 40-42.667h186.667c22.167 0 40 19.021 40 42.667s-17.833 42.667-40 42.667zM312 768h-186.667c-22.083 0-40-19.111-40-42.667v-199.111c0-23.643 17.917-42.668 40-42.668 22.1 0 40 19.025 40 42.668v156.445h146.667c22.167 0 40 19.022 40 42.667s-17.833 42.667-40 42.667zM898.667 768h-186.667c-22.165 0-40-19.111-40-42.667 0-23.573 17.916-42.667 40-42.667h146.667v-156.445c0-23.643 17.835-42.668 40-42.668s40 19.025 40 42.668v199.111c0 23.555-17.835 42.667-40 42.667zM898.667 369.78c-22.101 0-40-19.11-40-42.667v-156.446h-146.667c-22.101 0-40-19.11-40-42.667s17.835-42.667 40-42.667h186.667c22.084 0 40 19.11 40 42.667v199.113c0 23.642-17.835 42.667-40 42.667z" />
<glyph unicode="&#xe95c;" glyph-name="stop" d="M619.998 570.667h-215.998c-19.8 0-36-16.2-36-36v-215.998c0-19.802 16.2-36.002 36-36.002h215.998c19.802 0 36.002 16.201 36.002 36.002v215.998c0 19.8-16.201 36-36.002 36zM512 810.667c-212.1 0-384-171.9-384-384s171.9-384 384-384c212.1 0 384 171.9 384 384s-171.9 384-384 384zM512 114.667c-172.050 0-312 139.964-312 312 0 172.035 139.95 312 312 312s312-139.965 312-312c0-172.036-139.951-312-312-312z" />
<glyph unicode="&#xe95d;" glyph-name="save" d="M512 426.667c-67.046 0-121.905-54.857-121.905-121.903 0-67.051 54.858-121.907 121.905-121.907s121.903 54.857 121.903 121.907c0 67.046-54.857 121.903-121.903 121.903zM910.285 668.381l-159.808 159.809c-15.428 15.505-38.857 25.143-63.049 25.143h-480.19c-67.333 0-121.905-54.572-121.905-121.905v-609.526c0-67.332 54.572-121.903 121.905-121.903h609.526c67.332 0 121.903 54.571 121.903 121.903v480.192c0 24.19-9.715 47.619-28.382 66.286zM329.143 761.905h274.287v-152.381h-274.287v152.381zM847.236 121.903c0-16.828-13.645-30.473-30.473-30.473h-609.526c-16.83 0-30.476 13.645-30.476 30.473v609.526c0 16.834 13.646 30.476 30.476 30.476h30.476v-198.095c0-25.238 20.476-45.714 45.714-45.714h365.715c25.331 0 45.713 20.381 45.713 45.714v190.705l149.047-149.048c2.193-2.038 3.332-5.085 3.332-7.943v-475.621z" />
<glyph unicode="&#xe95e;" glyph-name="cloud-add" d="M480 266.667v85.333h-85.333c-17.734 0-32 14.268-32 32s14.266 32 32 32h85.333v85.333c0 17.734 14.268 32 32 32s32-14.266 32-32v-85.333h85.333c17.732 0 32-14.268 32-32s-14.268-32-32-32h-85.333v-85.333c0-17.732-14.268-32-32-32s-32 14.268-32 32zM277.333 128c-106.040 0-192 85.999-192 192 0 83.601 53.427 155.866 128 181.069v0.265c0 123.733 100.267 224 224 224 67.866 0 128.533-30.133 169.732-77.747 19.866 8.84 41.737 13.747 64.934 13.747 88.401 0 160-71.6 160-160 0-8.802-0.666-17.331-2.001-25.732 64-28.002 108.668-92.002 108.668-166.268 0-96.533-75.465-175.467-170.667-181.065v-0.269h-490.667zM437.333 661.334c-88.4 0-160-71.6-160-160v-45.466l-43.867-15.202c-48.613-17.6-84.133-65.067-84.133-120.666 0-70.665 57.306-128 128-128l486.933 0.269c61.602 3.465 110.4 54.665 110.4 117.065 0 48-28.8 89.468-70.4 107.601l-45.466 19.866 8 48.934c0.798 5.065 1.199 10.266 1.199 15.599 0 53.067-42.935 96-96 96-13.999 0-27.2-2.933-38.933-8.267l-43.465-19.333-31.070 36c-29.466 34.16-72.798 55.6-122.398 55.6h1.199z" />
<glyph unicode="&#xe95f;" glyph-name="more" d="M213.333 341.334c47.128 0 85.333 38.204 85.333 85.333s-38.205 85.333-85.333 85.333c-47.128 0-85.333-38.204-85.333-85.333s38.205-85.333 85.333-85.333zM512 341.334c47.13 0 85.333 38.204 85.333 85.333s-38.204 85.333-85.333 85.333c-47.13 0-85.333-38.204-85.333-85.333s38.204-85.333 85.333-85.333zM810.667 341.334c47.13 0 85.333 38.204 85.333 85.333s-38.204 85.333-85.333 85.333c-47.13 0-85.333-38.204-85.333-85.333s38.204-85.333 85.333-85.333z" />
<glyph unicode="&#xe960;" glyph-name="download" d="M832 346.667h-88.333l-80-80h168.333c16.666-1.109 25.557-10.001 26.667-26.667v-133.333c-1.109-16.666-10.001-25.557-26.667-26.667h-640c-16.666 1.109-25.556 10.001-26.667 26.667v133.333c1.111 16.666 10 25.557 26.667 26.667h170l-80 80h-90c-30-1.109-55-11.665-75-31.667-20-19.998-30.556-45.001-31.667-74.999v-133.333c1.111-29.999 11.667-55.002 31.667-74.999 20-20.002 45-30.558 75-31.667h640c29.999 1.109 55.002 11.665 74.999 31.667 20.002 19.998 30.558 45.001 31.667 74.999v133.333c-1.109 29.999-11.665 55.002-31.667 74.999-19.998 20.002-45.001 30.558-74.999 31.667zM805.333 173.334c-2.223 24.444-15.556 37.777-40 40-24.444-2.223-37.777-15.556-40-40 2.223-24.444 15.556-37.777 40-40 24.444 2.223 37.777 15.556 40 40zM483.665 240c7.778-8.887 17.225-13.333 28.335-13.333s20.557 3.887 28.335 11.665l226.667 226.667c15.552 18.889 15.552 37.781 0 56.668-18.889 15.556-37.781 15.556-56.67 0l-158.332-158.334v450.001c-2.223 24.445-15.556 37.778-40 40-24.444-2.222-37.777-15.555-40-40v-450.001l-160 158.334c-18.889 15.556-37.778 15.556-56.666 0-15.556-18.887-15.556-37.78 0-56.668l228.332-224.998z" />
<glyph unicode="&#xe961;" glyph-name="filter" d="M85.333 738.667c0 20.571 6.667 37.714 20 51.429s30 20.571 50 20.571h713.335c19.998 0 36.668-6.857 49.997-20.571 13.338-13.714 20.002-30.857 20.002-51.429 0-17.143-5.001-32-15.002-44.571l-278.332-351.431v-245.141c0-14.857-5.001-27.998-15.002-39.428-11.11-10.287-23.889-15.428-38.332-15.428-13.333 0-24.444 4.57-33.331 13.713l-155.002 123.43c-16.667 14.857-25 33.143-25 54.857v107.998l-278.333 351.431c-10 12.571-15 27.428-15 44.571zM177 728.381l273.334-344.573c5.555-8 8.333-16.572 8.333-25.711v-116.574l106.667-87.428v204.002c0 9.139 2.778 17.711 8.333 25.711l273.335 344.573h-670.001z" />
<glyph unicode="&#xe962;" glyph-name="power-off" d="M566.046 404.57c0-22.609-18.074-40.798-40.533-40.798-22.464 0-40.533 18.189-40.533 40.798v407.967c0 22.523 18.069 40.797 40.533 40.797 22.46 0 40.533-18.274 40.533-40.797v-407.967zM187.733 407.97c0-180.19 143.724-326.379 324.267-326.379 179.021 0 324.267 146.189 324.267 326.379 0 107.77-51.849 203.472-132.070 262.967-18.074 13.327-21.956 38.876-8.614 57.013 13.175 18.138 38.677 21.996 56.576 8.635 100.151-74.148 165.175-193.818 165.175-328.616 0-225.404-181.555-407.97-405.333-407.97s-405.333 182.566-405.333 407.97c0 134.798 65.056 254.468 165.173 328.616 17.902 13.361 43.404 9.502 56.578-8.635 13.342-18.138 9.458-43.686-8.613-57.013-80.155-59.495-133.591-155.198-133.591-262.967h1.52z" />
<glyph unicode="&#xe963;" glyph-name="show" d="M322.381 426.667c0 94.266 84.893 170.667 189.636 170.667 104.747 0 189.641-76.4 189.641-170.667s-84.894-170.667-189.641-170.667c-104.744 0-189.636 76.399-189.636 170.667zM512.017 320c65.485 0 118.524 47.731 118.524 106.667 0 58.931-53.039 106.667-118.524 106.667-1.037 0-1.924 0-4.297 0 3.26-6.8 4.297-14 4.297-21.333 0-47.066-42.517-85.333-94.817-85.333-8.148 0-16.149 0.934-23.705 3.866 0-2.133 0-2.931 0-2.667 0-60.134 53.037-107.866 118.522-107.866zM226.703 617.867c69.751 58.347 165.607 107.467 285.315 107.467 119.71 0 215.565-49.12 285.346-107.467 69.338-57.867 115.712-126.001 137.638-174.799 4.885-10.534 4.885-22.268 0-32.802-21.926-47.599-68.301-115.733-137.638-174.797-69.781-58.402-165.636-107.469-285.346-107.469-119.707 0-215.564 49.067-285.315 107.469-69.336 59.063-115.679 127.198-137.723 174.797-4.862 10.534-4.862 22.268 0 32.802 22.044 48.798 68.387 116.932 137.723 174.799zM512.017 661.334c-96.595 0-176.006-39.467-236.898-90.266-57.039-47.734-96.419-103.201-116.538-144.4 20.119-40 59.499-96.666 116.538-144.401 60.892-50.799 140.303-90.266 236.898-90.266 96.597 0 176.009 39.467 236.902 90.266 57.037 47.735 95.113 104.401 116.595 144.401-21.483 41.199-59.558 96.666-116.595 144.4-60.894 50.8-140.305 90.266-236.902 90.266z" />
<glyph unicode="&#xe964;" glyph-name="hide" d="M286.274 630.697c59.067 43.125 134.8 75.962 225.734 75.962 107.733 0 194.001-46.050 256.798-100.75 62.4-54.25 104.137-118.127 123.87-163.874 4.399-9.877 4.399-20.877 0-30.75-17.869-40.375-53.734-97.25-106.534-148.002l140.267-102.997c13.867-10.253 16.401-29.129 5.466-42.125-10.931-13.001-31.066-15.377-44.932-5.129l-789.34 580.014c-13.909 10.225-16.348 29.075-5.445 42.118 10.904 13.040 31.011 15.326 44.931 5.105l149.187-109.573zM338.408 592.284l61.333-45c30.002 24.5 69.332 39.375 112.268 39.375 94.268 0 170.667-71.625 170.667-160.001 0-26.5-6.801-51.375-18.935-73.374l71.735-52.749c44.668 42.624 77.734 92.25 94.665 126.123-19.332 38.626-53.598 90.626-104.93 135.376-54.801 47.625-126.268 85.75-213.201 85.75-67.332 0-126.534-23.287-173.601-55.5zM611.874 391.407c4.399 11.004 6.801 22.878 6.801 36.378 0 54.123-47.735 100-106.667 100-0.934 0-1.732-1.125-3.866-1.125 2.931-6.375 3.866-13.125 3.866-18.874 0-13.875-3.2-25.877-8.802-36.501l108.668-79.876zM624.41 228.536l55.863-41.25c-48.397-24.503-104.533-40.627-168.265-40.627-107.734 0-194.001 45.999-256.801 100.749-62.374 55.377-104.080 119.253-123.92 163.878-4.373 9.873-4.373 20.873 0 30.75 12.72 28.625 34.44 65.626 64.84 102.749l50.28-37.123c-24.934-29.129-41.387-58.001-52.467-79.876 18.093-38.626 53.533-91.75 104.867-136.499 54.8-47.625 126.267-84.625 213.201-84.625 40.934 0 78.4 8.247 112.401 21.875zM341.341 427.785c0 2.5 0.133 5.999 0.4 9.498l74.8-55.249c14-26.372 40.133-46.123 71.468-51.75l74.931-56.375c-16.132-3.622-33.199-7.249-52.13-7.249-93.069 0-170.669 71.625-170.669 161.126h1.2z" />
<glyph unicode="&#xe965;" glyph-name="lock" d="M316.952 522.667v96c0 106.035 87.314 192 195.048 192s195.046-85.965 195.046-192v-96h48.764c53.79 0 97.523-43.051 97.523-96v-288c0-52.949-43.733-96-97.523-96h-487.62c-53.867 0-97.524 43.051-97.524 96v288c0 52.949 43.657 96 97.524 96h48.762zM390.095 522.667h243.808v96c0 66.27-54.549 120-121.903 120s-121.905-53.73-121.905-120v-96zM243.81 138.667c0-13.201 10.91-24 24.381-24h487.62c13.41 0 24.38 10.799 24.38 24v288c0 13.201-10.97 24-24.38 24h-487.62c-13.47 0-24.381-10.799-24.381-24v-288z" />
<glyph unicode="&#xe966;" glyph-name="lock-alt" d="M292.571 522.667v72c0 119.295 98.286 216 219.429 216s219.43-96.705 219.43-216v-72h24.38c53.79 0 97.523-43.051 97.523-96v-288c0-52.949-43.733-96-97.523-96h-487.62c-53.867 0-97.524 43.051-97.524 96v288c0 52.949 43.657 96 97.524 96h24.381zM390.095 522.667h243.808v72c0 66.27-54.549 120-121.903 120s-121.905-53.73-121.905-120v-72z" />
<glyph unicode="&#xe967;" glyph-name="submit" d="M922.654 846.226c-14.455 8.884-28.911 9.44-43.366 1.666l-773.938-439.772c-13.344-8.883-20.016-21.099-20.016-36.646 1.112-16.657 9.452-28.318 25.020-34.982l255.199-106.611v-189.901c0-15.548 7.228-27.209 21.684-34.982 5.56-3.332 11.12-4.996 16.68-4.996 7.784 0 15.012 2.223 21.684 6.665l185.144 118.272 165.129-68.301c4.45-2.219 9.451-3.332 15.014-3.332 6.669 0 13.342 1.668 20.015 5.001 11.119 6.66 17.792 16.102 20.015 28.318l106.748 719.625c3.337 16.658-1.664 29.984-15.010 39.979zM700.813 654.659l-311.909-348.15-173.469 71.629 485.378 276.521zM443.947 113.276v81.621l78.396-31.65-78.396-49.971zM760.862 149.922l-295.232 123.268 375.292 416.451-80.060-539.719z" />
<glyph unicode="&#xe968;" glyph-name="check" d="M924.087 711.912c19.439-18.011 19.439-47.135 0-63.421l-503.138-505.835c-16.2-19.541-45.168-19.541-63.083 0l-259.137 260.582c-17.862 16.286-17.862 45.41 0 63.42 17.859 17.822 46.828 17.822 64.686 0l226.851-228.198 470.739 473.452c17.916 17.896 46.882 17.896 63.083 0z" />
<glyph unicode="&#xe969;" glyph-name="check-alt" d="M85.333 426.667c0 235.667 191 426.667 426.667 426.667 235.665 0 426.667-191 426.667-426.667 0-235.665-191.002-426.667-426.667-426.667-235.667 0-426.667 191.002-426.667 426.667zM704.998 500.335c18.167 18.165 18.167 47.832 0 65.999-18.163 18.167-47.834 18.167-65.997 0l-180.335-180.332-73.667 73.664c-18.167 18.167-47.834 18.167-66 0-18.167-18.163-18.167-47.834 0-65.997l106.667-106.667c18.165-18.167 47.835-18.167 65.999 0l213.333 213.333z" />
<glyph unicode="&#xe96a;" glyph-name="info" d="M512 768c-188.513 0-341.333-152.82-341.333-341.333s152.82-341.333 341.333-341.333c188.514 0 341.333 152.819 341.333 341.333s-152.819 341.333-341.333 341.333zM85.333 426.667c0 235.642 191.025 426.667 426.667 426.667 235.639 0 426.667-191.025 426.667-426.667 0-235.639-191.027-426.667-426.667-426.667-235.642 0-426.667 191.027-426.667 426.667zM469.333 580.267c0 23.564 19.102 42.667 42.667 42.667h0.384c23.565 0 42.667-19.102 42.667-42.667s-19.102-42.667-42.667-42.667h-0.384c-23.565 0-42.667 19.103-42.667 42.667zM512 469.334c23.565 0 42.667-19.102 42.667-42.667v-153.6c0-23.565-19.102-42.667-42.667-42.667s-42.667 19.102-42.667 42.667v153.6c0 23.565 19.102 42.667 42.667 42.667z" />
<glyph unicode="&#xe96b;" glyph-name="info-alt" d="M512 853.334c-235.667 0-426.667-191-426.667-426.667 0-235.665 191-426.667 426.667-426.667 235.665 0 426.667 191.002 426.667 426.667 0 235.667-191.002 426.667-426.667 426.667zM512 640c29.449 0 53.333-23.884 53.333-53.333s-23.885-53.333-53.333-53.333c-29.449 0-53.333 23.833-53.333 53.333s23.834 53.333 53.333 53.333zM578.667 213.334h-133.333c-22 0-40 17.835-40 40s17.917 40 40 40h26.667v106.667h-13.333c-22.084 0-40 17.916-40 40s18.001 40 40 40h53.333c22.084 0 40-17.916 40-40v-146.667h26.667c22.084 0 40-17.916 40-40s-17.835-40-40-40z" />
</font>
</defs>
</svg>
