<svg width="620" height="280" viewBox="0 0 620 280" fill="none" xmlns="http://www.w3.org/2000/svg">
<rect width="620" height="280" rx="16" fill="#F8F8F8"/>
<line x1="163.5" y1="140" x2="163.5" y2="116" stroke="#0059FF"/>
<rect x="152" y="92" width="24" height="24" rx="12" fill="#0059FF"/>
<path d="M165.181 98.7261V108H163.651V100.542L161.385 101.31V100.046L164.997 98.7261H165.181Z" fill="white"/>
<line x1="219.5" y1="140" x2="219.5" y2="116" stroke="#0059FF"/>
<rect x="208" y="92" width="24" height="24" rx="12" fill="#0059FF"/>
<path d="M223.199 106.781V108H217.004V106.953L220.013 103.671C220.343 103.299 220.603 102.977 220.793 102.706C220.984 102.435 221.117 102.192 221.193 101.976C221.274 101.756 221.314 101.542 221.314 101.335C221.314 101.043 221.259 100.787 221.149 100.567C221.043 100.343 220.887 100.167 220.679 100.04C220.472 99.9089 220.22 99.8433 219.924 99.8433C219.581 99.8433 219.293 99.9173 219.061 100.065C218.828 100.214 218.652 100.419 218.534 100.681C218.415 100.939 218.356 101.236 218.356 101.57H216.826C216.826 101.032 216.949 100.542 217.194 100.097C217.44 99.6486 217.795 99.2931 218.261 99.0308C218.726 98.7642 219.287 98.6309 219.943 98.6309C220.561 98.6309 221.085 98.7345 221.517 98.9419C221.949 99.1493 222.277 99.4434 222.501 99.8242C222.729 100.205 222.844 100.656 222.844 101.176C222.844 101.464 222.797 101.75 222.704 102.033C222.611 102.317 222.478 102.6 222.304 102.884C222.135 103.163 221.934 103.444 221.701 103.728C221.468 104.007 221.212 104.291 220.933 104.579L218.934 106.781H223.199Z" fill="white"/>
<circle cx="164" cy="148" r="7" fill="white" stroke="#0059FF" stroke-width="6"/>
<path d="M183.238 142.336H186.768C187.569 142.336 188.245 142.458 188.797 142.702C189.354 142.946 189.776 143.308 190.064 143.786C190.357 144.26 190.503 144.843 190.503 145.537C190.503 146.025 190.403 146.472 190.203 146.877C190.008 147.277 189.725 147.619 189.354 147.902C188.987 148.181 188.548 148.388 188.035 148.525L187.64 148.679H184.322L184.307 147.529H186.812C187.32 147.529 187.742 147.441 188.079 147.265C188.416 147.084 188.67 146.843 188.841 146.54C189.012 146.237 189.097 145.903 189.097 145.537C189.097 145.126 189.017 144.768 188.855 144.46C188.694 144.152 188.44 143.916 188.094 143.75C187.752 143.579 187.31 143.493 186.768 143.493H184.651V153H183.238V142.336ZM189.471 153L186.878 148.166L188.35 148.159L190.979 152.912V153H189.471ZM196.949 151.645V147.565C196.949 147.253 196.885 146.982 196.758 146.752C196.636 146.518 196.451 146.337 196.202 146.21C195.953 146.083 195.645 146.02 195.279 146.02C194.937 146.02 194.637 146.079 194.378 146.196C194.124 146.313 193.924 146.467 193.777 146.657C193.636 146.848 193.565 147.053 193.565 147.272H192.21C192.21 146.989 192.283 146.708 192.43 146.43C192.576 146.152 192.786 145.9 193.06 145.676C193.338 145.446 193.67 145.266 194.056 145.134C194.446 144.997 194.881 144.929 195.359 144.929C195.936 144.929 196.443 145.026 196.883 145.222C197.327 145.417 197.674 145.712 197.923 146.108C198.177 146.499 198.304 146.989 198.304 147.58V151.271C198.304 151.535 198.326 151.816 198.37 152.114C198.418 152.412 198.489 152.668 198.582 152.883V153H197.168C197.1 152.844 197.046 152.636 197.007 152.377C196.968 152.114 196.949 151.87 196.949 151.645ZM197.183 148.195L197.198 149.147H195.828C195.442 149.147 195.098 149.179 194.795 149.243C194.493 149.301 194.239 149.392 194.034 149.514C193.829 149.636 193.672 149.79 193.565 149.975C193.458 150.156 193.404 150.368 193.404 150.612C193.404 150.861 193.46 151.088 193.572 151.293C193.685 151.499 193.853 151.662 194.078 151.784C194.307 151.901 194.588 151.96 194.92 151.96C195.335 151.96 195.701 151.872 196.019 151.696C196.336 151.521 196.587 151.306 196.773 151.052C196.963 150.798 197.066 150.551 197.081 150.312L197.659 150.964C197.625 151.169 197.532 151.396 197.381 151.645C197.229 151.894 197.027 152.133 196.773 152.363C196.524 152.587 196.226 152.775 195.879 152.927C195.538 153.073 195.152 153.146 194.722 153.146C194.185 153.146 193.714 153.042 193.309 152.832C192.908 152.622 192.596 152.341 192.371 151.989C192.151 151.633 192.042 151.235 192.042 150.795C192.042 150.371 192.125 149.997 192.291 149.675C192.457 149.348 192.696 149.077 193.008 148.862C193.321 148.642 193.697 148.476 194.136 148.364C194.576 148.251 195.066 148.195 195.608 148.195H197.183ZM205.43 151.462V141.75H206.792V153H205.547L205.43 151.462ZM200.098 149.125V148.972C200.098 148.366 200.171 147.817 200.318 147.324C200.469 146.826 200.682 146.398 200.955 146.042C201.233 145.686 201.563 145.412 201.944 145.222C202.33 145.026 202.759 144.929 203.233 144.929C203.731 144.929 204.166 145.017 204.537 145.192C204.913 145.363 205.23 145.615 205.489 145.947C205.752 146.274 205.96 146.669 206.111 147.133C206.263 147.597 206.368 148.122 206.426 148.708V149.382C206.373 149.963 206.268 150.485 206.111 150.949C205.96 151.413 205.752 151.809 205.489 152.136C205.23 152.463 204.913 152.714 204.537 152.89C204.161 153.061 203.721 153.146 203.218 153.146C202.754 153.146 202.33 153.046 201.944 152.846C201.563 152.646 201.233 152.365 200.955 152.004C200.682 151.643 200.469 151.218 200.318 150.729C200.171 150.236 200.098 149.702 200.098 149.125ZM201.46 148.972V149.125C201.46 149.521 201.5 149.892 201.578 150.239C201.661 150.585 201.788 150.891 201.958 151.154C202.129 151.418 202.347 151.625 202.61 151.777C202.874 151.923 203.189 151.997 203.555 151.997C204.004 151.997 204.373 151.901 204.661 151.711C204.954 151.521 205.188 151.269 205.364 150.957C205.54 150.644 205.677 150.305 205.774 149.938V148.173C205.716 147.905 205.63 147.646 205.518 147.397C205.411 147.143 205.269 146.918 205.093 146.723C204.922 146.523 204.71 146.364 204.456 146.247C204.207 146.13 203.912 146.071 203.57 146.071C203.199 146.071 202.879 146.149 202.61 146.306C202.347 146.457 202.129 146.667 201.958 146.936C201.788 147.199 201.661 147.507 201.578 147.858C201.5 148.205 201.46 148.576 201.46 148.972ZM210.374 145.075V153H209.012V145.075H210.374ZM208.909 142.973C208.909 142.753 208.975 142.568 209.107 142.417C209.244 142.265 209.444 142.189 209.708 142.189C209.966 142.189 210.164 142.265 210.301 142.417C210.442 142.568 210.513 142.753 210.513 142.973C210.513 143.183 210.442 143.364 210.301 143.515C210.164 143.662 209.966 143.735 209.708 143.735C209.444 143.735 209.244 143.662 209.107 143.515C208.975 143.364 208.909 143.183 208.909 142.973ZM212.19 149.125V148.957C212.19 148.386 212.273 147.856 212.439 147.368C212.605 146.875 212.845 146.447 213.157 146.086C213.47 145.72 213.848 145.437 214.292 145.236C214.737 145.031 215.235 144.929 215.787 144.929C216.343 144.929 216.844 145.031 217.288 145.236C217.737 145.437 218.118 145.72 218.431 146.086C218.748 146.447 218.99 146.875 219.156 147.368C219.322 147.856 219.405 148.386 219.405 148.957V149.125C219.405 149.697 219.322 150.227 219.156 150.715C218.99 151.203 218.748 151.63 218.431 151.997C218.118 152.358 217.74 152.641 217.295 152.846C216.856 153.046 216.358 153.146 215.801 153.146C215.245 153.146 214.744 153.046 214.3 152.846C213.855 152.641 213.475 152.358 213.157 151.997C212.845 151.63 212.605 151.203 212.439 150.715C212.273 150.227 212.19 149.697 212.19 149.125ZM213.545 148.957V149.125C213.545 149.521 213.592 149.895 213.685 150.246C213.777 150.593 213.917 150.9 214.102 151.169C214.292 151.438 214.529 151.65 214.812 151.806C215.096 151.958 215.425 152.033 215.801 152.033C216.172 152.033 216.497 151.958 216.775 151.806C217.059 151.65 217.293 151.438 217.479 151.169C217.664 150.9 217.803 150.593 217.896 150.246C217.994 149.895 218.042 149.521 218.042 149.125V148.957C218.042 148.566 217.994 148.198 217.896 147.851C217.803 147.5 217.662 147.189 217.471 146.921C217.286 146.647 217.051 146.433 216.768 146.276C216.49 146.12 216.163 146.042 215.787 146.042C215.416 146.042 215.088 146.12 214.805 146.276C214.527 146.433 214.292 146.647 214.102 146.921C213.917 147.189 213.777 147.5 213.685 147.851C213.592 148.198 213.545 148.566 213.545 148.957ZM226.297 141.75V153H224.935V141.75H226.297ZM233.145 151.645V147.565C233.145 147.253 233.082 146.982 232.955 146.752C232.833 146.518 232.647 146.337 232.398 146.21C232.149 146.083 231.841 146.02 231.475 146.02C231.133 146.02 230.833 146.079 230.574 146.196C230.32 146.313 230.12 146.467 229.974 146.657C229.832 146.848 229.761 147.053 229.761 147.272H228.406C228.406 146.989 228.479 146.708 228.626 146.43C228.772 146.152 228.982 145.9 229.256 145.676C229.534 145.446 229.866 145.266 230.252 145.134C230.643 144.997 231.077 144.929 231.556 144.929C232.132 144.929 232.64 145.026 233.079 145.222C233.523 145.417 233.87 145.712 234.119 146.108C234.373 146.499 234.5 146.989 234.5 147.58V151.271C234.5 151.535 234.522 151.816 234.566 152.114C234.615 152.412 234.686 152.668 234.778 152.883V153H233.365C233.296 152.844 233.243 152.636 233.204 152.377C233.165 152.114 233.145 151.87 233.145 151.645ZM233.379 148.195L233.394 149.147H232.024C231.639 149.147 231.294 149.179 230.992 149.243C230.689 149.301 230.435 149.392 230.23 149.514C230.025 149.636 229.869 149.79 229.761 149.975C229.654 150.156 229.6 150.368 229.6 150.612C229.6 150.861 229.656 151.088 229.769 151.293C229.881 151.499 230.049 151.662 230.274 151.784C230.503 151.901 230.784 151.96 231.116 151.96C231.531 151.96 231.897 151.872 232.215 151.696C232.532 151.521 232.784 151.306 232.969 151.052C233.16 150.798 233.262 150.551 233.277 150.312L233.855 150.964C233.821 151.169 233.729 151.396 233.577 151.645C233.426 151.894 233.223 152.133 232.969 152.363C232.72 152.587 232.422 152.775 232.076 152.927C231.734 153.073 231.348 153.146 230.918 153.146C230.381 153.146 229.91 153.042 229.505 152.832C229.104 152.622 228.792 152.341 228.567 151.989C228.348 151.633 228.238 151.235 228.238 150.795C228.238 150.371 228.321 149.997 228.487 149.675C228.653 149.348 228.892 149.077 229.205 148.862C229.517 148.642 229.893 148.476 230.333 148.364C230.772 148.251 231.263 148.195 231.805 148.195H233.379ZM236.624 141.75H237.986V151.462L237.869 153H236.624V141.75ZM243.34 148.972V149.125C243.34 149.702 243.272 150.236 243.135 150.729C242.999 151.218 242.798 151.643 242.535 152.004C242.271 152.365 241.949 152.646 241.568 152.846C241.187 153.046 240.75 153.146 240.257 153.146C239.754 153.146 239.312 153.061 238.931 152.89C238.555 152.714 238.238 152.463 237.979 152.136C237.72 151.809 237.513 151.413 237.356 150.949C237.205 150.485 237.1 149.963 237.042 149.382V148.708C237.1 148.122 237.205 147.597 237.356 147.133C237.513 146.669 237.72 146.274 237.979 145.947C238.238 145.615 238.555 145.363 238.931 145.192C239.307 145.017 239.744 144.929 240.242 144.929C240.74 144.929 241.182 145.026 241.568 145.222C241.954 145.412 242.276 145.686 242.535 146.042C242.798 146.398 242.999 146.826 243.135 147.324C243.272 147.817 243.34 148.366 243.34 148.972ZM241.978 149.125V148.972C241.978 148.576 241.941 148.205 241.868 147.858C241.795 147.507 241.678 147.199 241.517 146.936C241.355 146.667 241.143 146.457 240.879 146.306C240.616 146.149 240.291 146.071 239.905 146.071C239.563 146.071 239.266 146.13 239.012 146.247C238.763 146.364 238.55 146.523 238.375 146.723C238.199 146.918 238.055 147.143 237.942 147.397C237.835 147.646 237.754 147.905 237.701 148.173V149.938C237.779 150.28 237.906 150.61 238.082 150.927C238.262 151.24 238.501 151.496 238.799 151.696C239.102 151.896 239.476 151.997 239.92 151.997C240.286 151.997 240.599 151.923 240.857 151.777C241.121 151.625 241.333 151.418 241.495 151.154C241.661 150.891 241.783 150.585 241.861 150.239C241.939 149.892 241.978 149.521 241.978 149.125ZM248.343 153.146C247.791 153.146 247.291 153.054 246.841 152.868C246.397 152.678 246.014 152.412 245.691 152.07C245.374 151.728 245.13 151.323 244.959 150.854C244.788 150.385 244.703 149.873 244.703 149.316V149.008C244.703 148.364 244.798 147.79 244.988 147.287C245.179 146.779 245.438 146.35 245.765 145.998C246.092 145.646 246.463 145.38 246.878 145.2C247.293 145.019 247.723 144.929 248.167 144.929C248.733 144.929 249.222 145.026 249.632 145.222C250.047 145.417 250.386 145.69 250.65 146.042C250.914 146.389 251.109 146.799 251.236 147.272C251.363 147.741 251.426 148.254 251.426 148.811V149.418H245.508V148.312H250.071V148.21C250.052 147.858 249.979 147.517 249.852 147.185C249.729 146.853 249.534 146.579 249.266 146.364C248.997 146.149 248.631 146.042 248.167 146.042C247.859 146.042 247.576 146.108 247.317 146.24C247.059 146.367 246.836 146.557 246.651 146.811C246.465 147.065 246.321 147.375 246.219 147.741C246.116 148.107 246.065 148.53 246.065 149.008V149.316C246.065 149.692 246.116 150.046 246.219 150.378C246.326 150.705 246.48 150.993 246.68 151.242C246.885 151.491 247.132 151.687 247.42 151.828C247.713 151.97 248.045 152.041 248.416 152.041C248.895 152.041 249.3 151.943 249.632 151.748C249.964 151.552 250.254 151.291 250.503 150.964L251.324 151.616C251.153 151.875 250.936 152.121 250.672 152.355C250.408 152.59 250.083 152.78 249.698 152.927C249.317 153.073 248.865 153.146 248.343 153.146ZM254.48 141.75V153H253.118V141.75H254.48Z" fill="#505050"/>
<circle cx="374" cy="148" r="7" fill="white" stroke="#0059FF" stroke-width="6"/>
<path d="M393.238 142.336H396.768C397.569 142.336 398.245 142.458 398.797 142.702C399.354 142.946 399.776 143.308 400.064 143.786C400.357 144.26 400.503 144.843 400.503 145.537C400.503 146.025 400.403 146.472 400.203 146.877C400.008 147.277 399.725 147.619 399.354 147.902C398.987 148.181 398.548 148.388 398.035 148.525L397.64 148.679H394.322L394.307 147.529H396.812C397.32 147.529 397.742 147.441 398.079 147.265C398.416 147.084 398.67 146.843 398.841 146.54C399.012 146.237 399.097 145.903 399.097 145.537C399.097 145.126 399.017 144.768 398.855 144.46C398.694 144.152 398.44 143.916 398.094 143.75C397.752 143.579 397.31 143.493 396.768 143.493H394.651V153H393.238V142.336ZM399.471 153L396.878 148.166L398.35 148.159L400.979 152.912V153H399.471ZM406.949 151.645V147.565C406.949 147.253 406.885 146.982 406.758 146.752C406.636 146.518 406.451 146.337 406.202 146.21C405.953 146.083 405.645 146.02 405.279 146.02C404.937 146.02 404.637 146.079 404.378 146.196C404.124 146.313 403.924 146.467 403.777 146.657C403.636 146.848 403.565 147.053 403.565 147.272H402.21C402.21 146.989 402.283 146.708 402.43 146.43C402.576 146.152 402.786 145.9 403.06 145.676C403.338 145.446 403.67 145.266 404.056 145.134C404.446 144.997 404.881 144.929 405.359 144.929C405.936 144.929 406.443 145.026 406.883 145.222C407.327 145.417 407.674 145.712 407.923 146.108C408.177 146.499 408.304 146.989 408.304 147.58V151.271C408.304 151.535 408.326 151.816 408.37 152.114C408.418 152.412 408.489 152.668 408.582 152.883V153H407.168C407.1 152.844 407.046 152.636 407.007 152.377C406.968 152.114 406.949 151.87 406.949 151.645ZM407.183 148.195L407.198 149.147H405.828C405.442 149.147 405.098 149.179 404.795 149.243C404.493 149.301 404.239 149.392 404.034 149.514C403.829 149.636 403.672 149.79 403.565 149.975C403.458 150.156 403.404 150.368 403.404 150.612C403.404 150.861 403.46 151.088 403.572 151.293C403.685 151.499 403.853 151.662 404.078 151.784C404.307 151.901 404.588 151.96 404.92 151.96C405.335 151.96 405.701 151.872 406.019 151.696C406.336 151.521 406.587 151.306 406.773 151.052C406.963 150.798 407.066 150.551 407.081 150.312L407.659 150.964C407.625 151.169 407.532 151.396 407.381 151.645C407.229 151.894 407.027 152.133 406.773 152.363C406.524 152.587 406.226 152.775 405.879 152.927C405.538 153.073 405.152 153.146 404.722 153.146C404.185 153.146 403.714 153.042 403.309 152.832C402.908 152.622 402.596 152.341 402.371 151.989C402.151 151.633 402.042 151.235 402.042 150.795C402.042 150.371 402.125 149.997 402.291 149.675C402.457 149.348 402.696 149.077 403.008 148.862C403.321 148.642 403.697 148.476 404.136 148.364C404.576 148.251 405.066 148.195 405.608 148.195H407.183ZM415.43 151.462V141.75H416.792V153H415.547L415.43 151.462ZM410.098 149.125V148.972C410.098 148.366 410.171 147.817 410.318 147.324C410.469 146.826 410.682 146.398 410.955 146.042C411.233 145.686 411.563 145.412 411.944 145.222C412.33 145.026 412.759 144.929 413.233 144.929C413.731 144.929 414.166 145.017 414.537 145.192C414.913 145.363 415.23 145.615 415.489 145.947C415.752 146.274 415.96 146.669 416.111 147.133C416.263 147.597 416.368 148.122 416.426 148.708V149.382C416.373 149.963 416.268 150.485 416.111 150.949C415.96 151.413 415.752 151.809 415.489 152.136C415.23 152.463 414.913 152.714 414.537 152.89C414.161 153.061 413.721 153.146 413.218 153.146C412.754 153.146 412.33 153.046 411.944 152.846C411.563 152.646 411.233 152.365 410.955 152.004C410.682 151.643 410.469 151.218 410.318 150.729C410.171 150.236 410.098 149.702 410.098 149.125ZM411.46 148.972V149.125C411.46 149.521 411.5 149.892 411.578 150.239C411.661 150.585 411.788 150.891 411.958 151.154C412.129 151.418 412.347 151.625 412.61 151.777C412.874 151.923 413.189 151.997 413.555 151.997C414.004 151.997 414.373 151.901 414.661 151.711C414.954 151.521 415.188 151.269 415.364 150.957C415.54 150.644 415.677 150.305 415.774 149.938V148.173C415.716 147.905 415.63 147.646 415.518 147.397C415.411 147.143 415.269 146.918 415.093 146.723C414.922 146.523 414.71 146.364 414.456 146.247C414.207 146.13 413.912 146.071 413.57 146.071C413.199 146.071 412.879 146.149 412.61 146.306C412.347 146.457 412.129 146.667 411.958 146.936C411.788 147.199 411.661 147.507 411.578 147.858C411.5 148.205 411.46 148.576 411.46 148.972ZM420.374 145.075V153H419.012V145.075H420.374ZM418.909 142.973C418.909 142.753 418.975 142.568 419.107 142.417C419.244 142.265 419.444 142.189 419.708 142.189C419.966 142.189 420.164 142.265 420.301 142.417C420.442 142.568 420.513 142.753 420.513 142.973C420.513 143.183 420.442 143.364 420.301 143.515C420.164 143.662 419.966 143.735 419.708 143.735C419.444 143.735 419.244 143.662 419.107 143.515C418.975 143.364 418.909 143.183 418.909 142.973ZM422.19 149.125V148.957C422.19 148.386 422.273 147.856 422.439 147.368C422.605 146.875 422.845 146.447 423.157 146.086C423.47 145.72 423.848 145.437 424.292 145.236C424.737 145.031 425.235 144.929 425.787 144.929C426.343 144.929 426.844 145.031 427.288 145.236C427.737 145.437 428.118 145.72 428.431 146.086C428.748 146.447 428.99 146.875 429.156 147.368C429.322 147.856 429.405 148.386 429.405 148.957V149.125C429.405 149.697 429.322 150.227 429.156 150.715C428.99 151.203 428.748 151.63 428.431 151.997C428.118 152.358 427.74 152.641 427.295 152.846C426.856 153.046 426.358 153.146 425.801 153.146C425.245 153.146 424.744 153.046 424.3 152.846C423.855 152.641 423.475 152.358 423.157 151.997C422.845 151.63 422.605 151.203 422.439 150.715C422.273 150.227 422.19 149.697 422.19 149.125ZM423.545 148.957V149.125C423.545 149.521 423.592 149.895 423.685 150.246C423.777 150.593 423.917 150.9 424.102 151.169C424.292 151.438 424.529 151.65 424.812 151.806C425.096 151.958 425.425 152.033 425.801 152.033C426.172 152.033 426.497 151.958 426.775 151.806C427.059 151.65 427.293 151.438 427.479 151.169C427.664 150.9 427.803 150.593 427.896 150.246C427.994 149.895 428.042 149.521 428.042 149.125V148.957C428.042 148.566 427.994 148.198 427.896 147.851C427.803 147.5 427.662 147.189 427.471 146.921C427.286 146.647 427.051 146.433 426.768 146.276C426.49 146.12 426.163 146.042 425.787 146.042C425.416 146.042 425.088 146.12 424.805 146.276C424.527 146.433 424.292 146.647 424.102 146.921C423.917 147.189 423.777 147.5 423.685 147.851C423.592 148.198 423.545 148.566 423.545 148.957ZM436.297 141.75V153H434.935V141.75H436.297ZM443.145 151.645V147.565C443.145 147.253 443.082 146.982 442.955 146.752C442.833 146.518 442.647 146.337 442.398 146.21C442.149 146.083 441.841 146.02 441.475 146.02C441.133 146.02 440.833 146.079 440.574 146.196C440.32 146.313 440.12 146.467 439.974 146.657C439.832 146.848 439.761 147.053 439.761 147.272H438.406C438.406 146.989 438.479 146.708 438.626 146.43C438.772 146.152 438.982 145.9 439.256 145.676C439.534 145.446 439.866 145.266 440.252 145.134C440.643 144.997 441.077 144.929 441.556 144.929C442.132 144.929 442.64 145.026 443.079 145.222C443.523 145.417 443.87 145.712 444.119 146.108C444.373 146.499 444.5 146.989 444.5 147.58V151.271C444.5 151.535 444.522 151.816 444.566 152.114C444.615 152.412 444.686 152.668 444.778 152.883V153H443.365C443.296 152.844 443.243 152.636 443.204 152.377C443.165 152.114 443.145 151.87 443.145 151.645ZM443.379 148.195L443.394 149.147H442.024C441.639 149.147 441.294 149.179 440.992 149.243C440.689 149.301 440.435 149.392 440.23 149.514C440.025 149.636 439.869 149.79 439.761 149.975C439.654 150.156 439.6 150.368 439.6 150.612C439.6 150.861 439.656 151.088 439.769 151.293C439.881 151.499 440.049 151.662 440.274 151.784C440.503 151.901 440.784 151.96 441.116 151.96C441.531 151.96 441.897 151.872 442.215 151.696C442.532 151.521 442.784 151.306 442.969 151.052C443.16 150.798 443.262 150.551 443.277 150.312L443.855 150.964C443.821 151.169 443.729 151.396 443.577 151.645C443.426 151.894 443.223 152.133 442.969 152.363C442.72 152.587 442.422 152.775 442.076 152.927C441.734 153.073 441.348 153.146 440.918 153.146C440.381 153.146 439.91 153.042 439.505 152.832C439.104 152.622 438.792 152.341 438.567 151.989C438.348 151.633 438.238 151.235 438.238 150.795C438.238 150.371 438.321 149.997 438.487 149.675C438.653 149.348 438.892 149.077 439.205 148.862C439.517 148.642 439.893 148.476 440.333 148.364C440.772 148.251 441.263 148.195 441.805 148.195H443.379ZM446.624 141.75H447.986V151.462L447.869 153H446.624V141.75ZM453.34 148.972V149.125C453.34 149.702 453.272 150.236 453.135 150.729C452.999 151.218 452.798 151.643 452.535 152.004C452.271 152.365 451.949 152.646 451.568 152.846C451.187 153.046 450.75 153.146 450.257 153.146C449.754 153.146 449.312 153.061 448.931 152.89C448.555 152.714 448.238 152.463 447.979 152.136C447.72 151.809 447.513 151.413 447.356 150.949C447.205 150.485 447.1 149.963 447.042 149.382V148.708C447.1 148.122 447.205 147.597 447.356 147.133C447.513 146.669 447.72 146.274 447.979 145.947C448.238 145.615 448.555 145.363 448.931 145.192C449.307 145.017 449.744 144.929 450.242 144.929C450.74 144.929 451.182 145.026 451.568 145.222C451.954 145.412 452.276 145.686 452.535 146.042C452.798 146.398 452.999 146.826 453.135 147.324C453.272 147.817 453.34 148.366 453.34 148.972ZM451.978 149.125V148.972C451.978 148.576 451.941 148.205 451.868 147.858C451.795 147.507 451.678 147.199 451.517 146.936C451.355 146.667 451.143 146.457 450.879 146.306C450.616 146.149 450.291 146.071 449.905 146.071C449.563 146.071 449.266 146.13 449.012 146.247C448.763 146.364 448.55 146.523 448.375 146.723C448.199 146.918 448.055 147.143 447.942 147.397C447.835 147.646 447.754 147.905 447.701 148.173V149.938C447.779 150.28 447.906 150.61 448.082 150.927C448.262 151.24 448.501 151.496 448.799 151.696C449.102 151.896 449.476 151.997 449.92 151.997C450.286 151.997 450.599 151.923 450.857 151.777C451.121 151.625 451.333 151.418 451.495 151.154C451.661 150.891 451.783 150.585 451.861 150.239C451.939 149.892 451.978 149.521 451.978 149.125ZM458.343 153.146C457.791 153.146 457.291 153.054 456.841 152.868C456.397 152.678 456.014 152.412 455.691 152.07C455.374 151.728 455.13 151.323 454.959 150.854C454.788 150.385 454.703 149.873 454.703 149.316V149.008C454.703 148.364 454.798 147.79 454.988 147.287C455.179 146.779 455.438 146.35 455.765 145.998C456.092 145.646 456.463 145.38 456.878 145.2C457.293 145.019 457.723 144.929 458.167 144.929C458.733 144.929 459.222 145.026 459.632 145.222C460.047 145.417 460.386 145.69 460.65 146.042C460.914 146.389 461.109 146.799 461.236 147.272C461.363 147.741 461.426 148.254 461.426 148.811V149.418H455.508V148.312H460.071V148.21C460.052 147.858 459.979 147.517 459.852 147.185C459.729 146.853 459.534 146.579 459.266 146.364C458.997 146.149 458.631 146.042 458.167 146.042C457.859 146.042 457.576 146.108 457.317 146.24C457.059 146.367 456.836 146.557 456.651 146.811C456.465 147.065 456.321 147.375 456.219 147.741C456.116 148.107 456.065 148.53 456.065 149.008V149.316C456.065 149.692 456.116 150.046 456.219 150.378C456.326 150.705 456.48 150.993 456.68 151.242C456.885 151.491 457.132 151.687 457.42 151.828C457.713 151.97 458.045 152.041 458.416 152.041C458.895 152.041 459.3 151.943 459.632 151.748C459.964 151.552 460.254 151.291 460.503 150.964L461.324 151.616C461.153 151.875 460.936 152.121 460.672 152.355C460.408 152.59 460.083 152.78 459.698 152.927C459.317 153.073 458.865 153.146 458.343 153.146ZM464.48 141.75V153H463.118V141.75H464.48Z" fill="#505050"/>
<rect x="384" y="138" width="1" height="24" fill="#F45C59"/>
<g opacity="0.2">
<rect width="6" height="24" transform="translate(385 138)" fill="#F45C59"/>
</g>
<rect x="391" y="138" width="1" height="24" fill="#F45C59"/>
<path d="M390.834 174.662C390.834 175.197 390.709 175.648 390.459 176.016C390.209 176.379 389.865 176.654 389.428 176.842C388.994 177.025 388.502 177.117 387.951 177.117C387.4 177.117 386.906 177.025 386.469 176.842C386.031 176.654 385.686 176.379 385.432 176.016C385.178 175.648 385.051 175.197 385.051 174.662C385.051 174.303 385.123 173.979 385.268 173.689C385.412 173.396 385.613 173.146 385.871 172.939C386.133 172.729 386.439 172.568 386.791 172.459C387.143 172.346 387.525 172.289 387.939 172.289C388.494 172.289 388.99 172.387 389.428 172.582C389.865 172.777 390.209 173.053 390.459 173.408C390.709 173.764 390.834 174.182 390.834 174.662ZM389.135 174.551C389.135 174.289 389.084 174.064 388.982 173.877C388.885 173.686 388.746 173.539 388.566 173.438C388.387 173.336 388.178 173.285 387.939 173.285C387.701 173.285 387.492 173.336 387.312 173.438C387.133 173.539 386.992 173.686 386.891 173.877C386.793 174.064 386.744 174.289 386.744 174.551C386.744 174.809 386.793 175.031 386.891 175.219C386.992 175.406 387.133 175.551 387.312 175.652C387.496 175.75 387.709 175.799 387.951 175.799C388.193 175.799 388.402 175.75 388.578 175.652C388.758 175.551 388.895 175.406 388.988 175.219C389.086 175.031 389.135 174.809 389.135 174.551ZM390.652 170.73C390.652 171.164 390.537 171.549 390.307 171.885C390.076 172.217 389.756 172.477 389.346 172.664C388.939 172.852 388.475 172.945 387.951 172.945C387.424 172.945 386.955 172.852 386.545 172.664C386.135 172.477 385.814 172.217 385.584 171.885C385.354 171.549 385.238 171.164 385.238 170.73C385.238 170.215 385.354 169.781 385.584 169.43C385.818 169.074 386.139 168.805 386.545 168.621C386.955 168.438 387.42 168.346 387.939 168.346C388.467 168.346 388.934 168.438 389.34 168.621C389.75 168.805 390.07 169.074 390.301 169.43C390.535 169.781 390.652 170.215 390.652 170.73ZM388.965 170.807C388.965 170.576 388.924 170.377 388.842 170.209C388.76 170.037 388.643 169.904 388.49 169.811C388.342 169.717 388.158 169.67 387.939 169.67C387.729 169.67 387.547 169.715 387.395 169.805C387.246 169.895 387.131 170.025 387.049 170.197C386.971 170.365 386.932 170.568 386.932 170.807C386.932 171.037 386.971 171.24 387.049 171.416C387.131 171.588 387.248 171.723 387.4 171.82C387.553 171.918 387.736 171.967 387.951 171.967C388.166 171.967 388.348 171.918 388.496 171.82C388.648 171.723 388.764 171.588 388.842 171.416C388.924 171.24 388.965 171.037 388.965 170.807Z" fill="#F45C59"/>
</svg>
