<svg width="792" height="404" viewBox="0 0 792 404" fill="none" xmlns="http://www.w3.org/2000/svg">
<rect width="792" height="404" rx="16" fill="#F2F2F2"/>
<g filter="url(#filter0_ddd_7306_78075)">
<rect x="256" y="76" width="280" height="288" rx="8" fill="white"/>
<path d="M283.35 107C283.066 107 282.814 106.906 282.595 106.719L276.295 100.719C276.098 100.51 276 100.271 276 100C276 99.7292 276.098 99.4896 276.295 99.2812L282.595 93.2812C282.814 93.0938 283.066 93 283.35 93C283.634 93 283.886 93.0938 284.105 93.2812C284.302 93.4896 284.4 93.7292 284.4 94C284.4 94.2708 284.302 94.5104 284.105 94.7188L278.527 100L284.105 105.281C284.302 105.49 284.4 105.729 284.4 106C284.4 106.271 284.302 106.51 284.105 106.719C283.886 106.906 283.634 107 283.35 107Z" fill="#1A1A1A"/>
<path d="M341.302 101.62C341.302 101.429 341.272 101.26 341.213 101.112C341.158 100.964 341.058 100.828 340.915 100.706C340.771 100.583 340.568 100.464 340.305 100.35C340.047 100.232 339.717 100.111 339.315 99.9883C338.875 99.8529 338.469 99.7026 338.096 99.5376C337.728 99.3683 337.406 99.1737 337.131 98.9536C336.856 98.7293 336.643 98.4733 336.49 98.1855C336.338 97.8936 336.262 97.5571 336.262 97.1763C336.262 96.7996 336.34 96.4569 336.497 96.1479C336.657 95.839 336.884 95.5724 337.176 95.3481C337.472 95.1196 337.821 94.944 338.223 94.8213C338.625 94.6943 339.069 94.6309 339.556 94.6309C340.242 94.6309 340.832 94.7578 341.327 95.0117C341.826 95.2656 342.209 95.6063 342.476 96.0337C342.747 96.4611 342.882 96.9329 342.882 97.4492H341.302C341.302 97.1445 341.236 96.8758 341.105 96.6431C340.978 96.4061 340.783 96.2199 340.521 96.0845C340.263 95.9491 339.935 95.8813 339.537 95.8813C339.16 95.8813 338.847 95.9385 338.598 96.0527C338.348 96.167 338.162 96.3215 338.039 96.5161C337.916 96.7108 337.855 96.9308 337.855 97.1763C337.855 97.3498 337.895 97.5085 337.976 97.6523C338.056 97.792 338.179 97.9232 338.344 98.0459C338.509 98.1644 338.716 98.2765 338.966 98.3823C339.215 98.4881 339.51 98.5897 339.848 98.687C340.36 98.8394 340.807 99.0086 341.188 99.1948C341.568 99.3768 341.886 99.5841 342.14 99.8169C342.394 100.05 342.584 100.314 342.711 100.61C342.838 100.902 342.901 101.235 342.901 101.607C342.901 101.996 342.823 102.347 342.667 102.661C342.51 102.97 342.286 103.234 341.994 103.454C341.706 103.67 341.359 103.837 340.953 103.956C340.551 104.07 340.102 104.127 339.607 104.127C339.163 104.127 338.725 104.068 338.293 103.949C337.866 103.831 337.476 103.651 337.125 103.41C336.774 103.164 336.494 102.86 336.287 102.496C336.08 102.127 335.976 101.698 335.976 101.207H337.569C337.569 101.507 337.62 101.764 337.722 101.975C337.827 102.187 337.973 102.36 338.16 102.496C338.346 102.627 338.562 102.724 338.807 102.788C339.057 102.851 339.323 102.883 339.607 102.883C339.979 102.883 340.29 102.83 340.54 102.724C340.794 102.618 340.984 102.47 341.111 102.28C341.238 102.089 341.302 101.869 341.302 101.62ZM347.186 104.127C346.678 104.127 346.219 104.044 345.809 103.879C345.402 103.71 345.055 103.475 344.768 103.175C344.484 102.874 344.266 102.521 344.114 102.115C343.961 101.708 343.885 101.271 343.885 100.801V100.547C343.885 100.009 343.964 99.5228 344.12 99.0869C344.277 98.651 344.495 98.2786 344.774 97.9697C345.053 97.6566 345.383 97.4175 345.764 97.2524C346.145 97.0874 346.558 97.0049 347.002 97.0049C347.493 97.0049 347.922 97.0874 348.291 97.2524C348.659 97.4175 348.963 97.6502 349.205 97.9507C349.45 98.2469 349.632 98.6003 349.75 99.0107C349.873 99.4212 349.935 99.874 349.935 100.369V101.023H344.628V99.9248H348.424V99.8042C348.415 99.5291 348.36 99.271 348.259 99.0298C348.161 98.7886 348.011 98.5939 347.808 98.4458C347.605 98.2977 347.334 98.2236 346.996 98.2236C346.742 98.2236 346.515 98.2786 346.316 98.3887C346.122 98.4945 345.959 98.6489 345.828 98.8521C345.696 99.0552 345.595 99.3006 345.523 99.5884C345.455 99.8719 345.421 100.191 345.421 100.547V100.801C345.421 101.101 345.462 101.381 345.542 101.639C345.627 101.893 345.749 102.115 345.91 102.305C346.071 102.496 346.266 102.646 346.494 102.756C346.723 102.862 346.983 102.915 347.275 102.915C347.643 102.915 347.971 102.84 348.259 102.692C348.547 102.544 348.796 102.335 349.008 102.064L349.814 102.845C349.666 103.061 349.473 103.268 349.236 103.467C348.999 103.661 348.709 103.82 348.367 103.943C348.028 104.066 347.635 104.127 347.186 104.127ZM352.664 98.4521V106.641H351.134V97.1318H352.543L352.664 98.4521ZM357.139 100.502V100.636C357.139 101.135 357.08 101.598 356.961 102.026C356.847 102.449 356.676 102.819 356.447 103.137C356.223 103.45 355.946 103.693 355.616 103.867C355.286 104.04 354.905 104.127 354.473 104.127C354.046 104.127 353.671 104.049 353.35 103.892C353.032 103.731 352.764 103.505 352.543 103.213C352.323 102.921 352.146 102.578 352.01 102.185C351.879 101.787 351.786 101.351 351.731 100.877V100.363C351.786 99.8592 351.879 99.4022 352.01 98.9917C352.146 98.5812 352.323 98.2279 352.543 97.9316C352.764 97.6354 353.032 97.4069 353.35 97.2461C353.667 97.0853 354.037 97.0049 354.46 97.0049C354.892 97.0049 355.275 97.0895 355.609 97.2588C355.944 97.4238 356.225 97.6608 356.454 97.9697C356.682 98.2744 356.854 98.6426 356.968 99.0742C357.082 99.5016 357.139 99.9777 357.139 100.502ZM355.609 100.636V100.502C355.609 100.185 355.58 99.891 355.521 99.6201C355.461 99.3451 355.368 99.1038 355.241 98.8965C355.114 98.6891 354.951 98.5283 354.752 98.4141C354.558 98.2956 354.323 98.2363 354.048 98.2363C353.777 98.2363 353.544 98.2829 353.35 98.376C353.155 98.4648 352.992 98.5897 352.861 98.7505C352.73 98.9113 352.628 99.0996 352.556 99.3154C352.484 99.527 352.433 99.7576 352.404 100.007V101.239C352.455 101.543 352.541 101.823 352.664 102.077C352.787 102.331 352.96 102.534 353.185 102.686C353.413 102.834 353.705 102.908 354.061 102.908C354.336 102.908 354.57 102.849 354.765 102.73C354.96 102.612 355.118 102.449 355.241 102.242C355.368 102.03 355.461 101.787 355.521 101.512C355.58 101.237 355.609 100.945 355.609 100.636ZM361.589 97.1318V98.249H357.717V97.1318H361.589ZM358.834 95.4497H360.364V102.102C360.364 102.314 360.393 102.477 360.453 102.591C360.516 102.701 360.603 102.775 360.713 102.813C360.823 102.851 360.952 102.87 361.1 102.87C361.206 102.87 361.307 102.864 361.405 102.851C361.502 102.838 361.58 102.826 361.64 102.813L361.646 103.981C361.519 104.019 361.371 104.053 361.202 104.083C361.037 104.112 360.846 104.127 360.63 104.127C360.279 104.127 359.968 104.066 359.697 103.943C359.426 103.816 359.215 103.611 359.062 103.327C358.91 103.044 358.834 102.667 358.834 102.197V95.4497ZM365.797 104.127C365.29 104.127 364.83 104.044 364.42 103.879C364.014 103.71 363.667 103.475 363.379 103.175C363.095 102.874 362.877 102.521 362.725 102.115C362.573 101.708 362.497 101.271 362.497 100.801V100.547C362.497 100.009 362.575 99.5228 362.731 99.0869C362.888 98.651 363.106 98.2786 363.385 97.9697C363.665 97.6566 363.995 97.4175 364.375 97.2524C364.756 97.0874 365.169 97.0049 365.613 97.0049C366.104 97.0049 366.534 97.0874 366.902 97.2524C367.27 97.4175 367.575 97.6502 367.816 97.9507C368.061 98.2469 368.243 98.6003 368.362 99.0107C368.485 99.4212 368.546 99.874 368.546 100.369V101.023H363.239V99.9248H367.035V99.8042C367.027 99.5291 366.972 99.271 366.87 99.0298C366.773 98.7886 366.623 98.5939 366.419 98.4458C366.216 98.2977 365.945 98.2236 365.607 98.2236C365.353 98.2236 365.127 98.2786 364.928 98.3887C364.733 98.4945 364.57 98.6489 364.439 98.8521C364.308 99.0552 364.206 99.3006 364.134 99.5884C364.067 99.8719 364.033 100.191 364.033 100.547V100.801C364.033 101.101 364.073 101.381 364.153 101.639C364.238 101.893 364.361 102.115 364.521 102.305C364.682 102.496 364.877 102.646 365.105 102.756C365.334 102.862 365.594 102.915 365.886 102.915C366.254 102.915 366.582 102.84 366.87 102.692C367.158 102.544 367.408 102.335 367.619 102.064L368.425 102.845C368.277 103.061 368.085 103.268 367.848 103.467C367.611 103.661 367.321 103.82 366.978 103.943C366.639 104.066 366.246 104.127 365.797 104.127ZM371.269 98.5283V104H369.739V97.1318H371.18L371.269 98.5283ZM371.021 100.312L370.501 100.306C370.501 99.8317 370.56 99.3937 370.679 98.9917C370.797 98.5897 370.971 98.2406 371.199 97.9443C371.428 97.6439 371.711 97.4132 372.05 97.2524C372.393 97.0874 372.788 97.0049 373.237 97.0049C373.55 97.0049 373.836 97.0514 374.094 97.1445C374.356 97.2334 374.583 97.3752 374.773 97.5698C374.968 97.7645 375.116 98.0142 375.217 98.3188C375.323 98.6235 375.376 98.9917 375.376 99.4233V104H373.846V99.5566C373.846 99.2223 373.795 98.96 373.694 98.7695C373.597 98.5791 373.455 98.4437 373.269 98.3633C373.087 98.2786 372.869 98.2363 372.615 98.2363C372.327 98.2363 372.082 98.2913 371.878 98.4014C371.68 98.5114 371.517 98.6616 371.39 98.8521C371.263 99.0425 371.17 99.2625 371.11 99.5122C371.051 99.7619 371.021 100.028 371.021 100.312ZM375.281 99.9058L374.563 100.064C374.563 99.6497 374.621 99.2583 374.735 98.8901C374.853 98.5177 375.025 98.1919 375.249 97.9126C375.478 97.6291 375.759 97.4069 376.093 97.2461C376.428 97.0853 376.811 97.0049 377.242 97.0049C377.593 97.0049 377.907 97.0535 378.182 97.1509C378.461 97.244 378.698 97.3921 378.893 97.5952C379.087 97.7983 379.235 98.0628 379.337 98.3887C379.438 98.7103 379.489 99.0996 379.489 99.5566V104H377.953V99.5503C377.953 99.2033 377.902 98.9346 377.801 98.7441C377.703 98.5537 377.564 98.4225 377.382 98.3506C377.2 98.2744 376.982 98.2363 376.728 98.2363C376.491 98.2363 376.282 98.2808 376.1 98.3696C375.922 98.4543 375.772 98.5749 375.649 98.7314C375.526 98.8838 375.433 99.0594 375.37 99.2583C375.31 99.4572 375.281 99.673 375.281 99.9058ZM381.07 94.25H382.6V102.534L382.454 104H381.07V94.25ZM387.081 100.502V100.636C387.081 101.144 387.024 101.611 386.91 102.039C386.8 102.462 386.63 102.83 386.402 103.143C386.178 103.456 385.898 103.7 385.564 103.873C385.234 104.042 384.851 104.127 384.415 104.127C383.988 104.127 383.615 104.047 383.298 103.886C382.98 103.725 382.714 103.496 382.498 103.2C382.286 102.904 382.115 102.551 381.984 102.14C381.853 101.73 381.76 101.277 381.705 100.782V100.356C381.76 99.8571 381.853 99.4043 381.984 98.998C382.115 98.5876 382.286 98.2342 382.498 97.938C382.714 97.6375 382.978 97.4069 383.292 97.2461C383.609 97.0853 383.979 97.0049 384.402 97.0049C384.842 97.0049 385.23 97.0895 385.564 97.2588C385.903 97.4281 386.184 97.6693 386.408 97.9824C386.632 98.2913 386.8 98.6595 386.91 99.0869C387.024 99.5143 387.081 99.9862 387.081 100.502ZM385.551 100.636V100.502C385.551 100.194 385.526 99.9036 385.475 99.6328C385.424 99.3577 385.34 99.1165 385.221 98.9092C385.107 98.7018 384.95 98.5389 384.751 98.4204C384.557 98.2977 384.313 98.2363 384.021 98.2363C383.751 98.2363 383.518 98.2829 383.323 98.376C383.129 98.4691 382.966 98.596 382.834 98.7568C382.703 98.9176 382.6 99.1038 382.523 99.3154C382.451 99.527 382.403 99.7555 382.377 100.001V101.15C382.416 101.467 382.496 101.759 382.619 102.026C382.746 102.288 382.923 102.5 383.152 102.661C383.38 102.817 383.674 102.896 384.034 102.896C384.318 102.896 384.557 102.838 384.751 102.724C384.946 102.61 385.101 102.451 385.215 102.248C385.333 102.041 385.418 101.799 385.469 101.524C385.524 101.249 385.551 100.953 385.551 100.636ZM391.404 104.127C390.896 104.127 390.437 104.044 390.026 103.879C389.62 103.71 389.273 103.475 388.985 103.175C388.702 102.874 388.484 102.521 388.332 102.115C388.179 101.708 388.103 101.271 388.103 100.801V100.547C388.103 100.009 388.181 99.5228 388.338 99.0869C388.494 98.651 388.712 98.2786 388.992 97.9697C389.271 97.6566 389.601 97.4175 389.982 97.2524C390.363 97.0874 390.775 97.0049 391.22 97.0049C391.711 97.0049 392.14 97.0874 392.508 97.2524C392.876 97.4175 393.181 97.6502 393.422 97.9507C393.668 98.2469 393.85 98.6003 393.968 99.0107C394.091 99.4212 394.152 99.874 394.152 100.369V101.023H388.846V99.9248H392.642V99.8042C392.633 99.5291 392.578 99.271 392.477 99.0298C392.379 98.7886 392.229 98.5939 392.026 98.4458C391.823 98.2977 391.552 98.2236 391.213 98.2236C390.959 98.2236 390.733 98.2786 390.534 98.3887C390.34 98.4945 390.177 98.6489 390.045 98.8521C389.914 99.0552 389.813 99.3006 389.741 99.5884C389.673 99.8719 389.639 100.191 389.639 100.547V100.801C389.639 101.101 389.679 101.381 389.76 101.639C389.844 101.893 389.967 102.115 390.128 102.305C390.289 102.496 390.483 102.646 390.712 102.756C390.94 102.862 391.201 102.915 391.493 102.915C391.861 102.915 392.189 102.84 392.477 102.692C392.764 102.544 393.014 102.335 393.226 102.064L394.032 102.845C393.884 103.061 393.691 103.268 393.454 103.467C393.217 103.661 392.927 103.82 392.584 103.943C392.246 104.066 391.852 104.127 391.404 104.127ZM396.882 98.4395V104H395.352V97.1318H396.812L396.882 98.4395ZM398.983 97.0874L398.97 98.5093C398.877 98.4924 398.776 98.4797 398.666 98.4712C398.56 98.4627 398.454 98.4585 398.348 98.4585C398.086 98.4585 397.855 98.4966 397.656 98.5728C397.457 98.6447 397.29 98.7505 397.155 98.8901C397.024 99.0256 396.922 99.1906 396.85 99.3853C396.778 99.5799 396.736 99.7979 396.723 100.039L396.374 100.064C396.374 99.6328 396.416 99.2329 396.501 98.8647C396.586 98.4966 396.713 98.1729 396.882 97.8936C397.055 97.6143 397.271 97.3963 397.529 97.2397C397.792 97.0832 398.094 97.0049 398.437 97.0049C398.53 97.0049 398.63 97.0133 398.735 97.0303C398.845 97.0472 398.928 97.0662 398.983 97.0874ZM409.285 102.781V104H403.09V102.953L406.099 99.6709C406.429 99.2985 406.689 98.9769 406.879 98.7061C407.07 98.4352 407.203 98.1919 407.279 97.9761C407.36 97.756 407.4 97.5423 407.4 97.335C407.4 97.043 407.345 96.7869 407.235 96.5669C407.129 96.3426 406.972 96.167 406.765 96.04C406.558 95.9089 406.306 95.8433 406.01 95.8433C405.667 95.8433 405.379 95.9173 405.146 96.0654C404.914 96.2135 404.738 96.4188 404.62 96.6812C404.501 96.9393 404.442 97.2355 404.442 97.5698H402.912C402.912 97.0324 403.035 96.5415 403.28 96.0972C403.526 95.6486 403.881 95.2931 404.347 95.0308C404.812 94.7642 405.373 94.6309 406.029 94.6309C406.647 94.6309 407.171 94.7345 407.603 94.9419C408.035 95.1493 408.363 95.4434 408.587 95.8242C408.815 96.2051 408.93 96.6558 408.93 97.1763C408.93 97.464 408.883 97.7497 408.79 98.0332C408.697 98.3167 408.564 98.6003 408.39 98.8838C408.221 99.1631 408.02 99.4445 407.787 99.728C407.554 100.007 407.298 100.291 407.019 100.579L405.02 102.781H409.285ZM416.502 98.6045V100.115C416.502 100.839 416.431 101.457 416.287 101.969C416.147 102.477 415.944 102.889 415.677 103.207C415.411 103.524 415.091 103.757 414.719 103.905C414.351 104.053 413.938 104.127 413.481 104.127C413.117 104.127 412.778 104.08 412.465 103.987C412.156 103.894 411.877 103.748 411.627 103.549C411.378 103.35 411.164 103.094 410.986 102.781C410.813 102.464 410.677 102.085 410.58 101.645C410.487 101.205 410.44 100.695 410.44 100.115V98.6045C410.44 97.8766 410.512 97.263 410.656 96.7637C410.8 96.2601 411.005 95.8517 411.272 95.5386C411.539 95.2212 411.856 94.9906 412.224 94.8467C412.597 94.7028 413.011 94.6309 413.468 94.6309C413.836 94.6309 414.175 94.6774 414.484 94.7705C414.797 94.8594 415.076 95.0011 415.322 95.1958C415.571 95.3905 415.783 95.6444 415.957 95.9575C416.134 96.2664 416.27 96.641 416.363 97.0811C416.456 97.5169 416.502 98.0247 416.502 98.6045ZM414.973 100.331V98.376C414.973 98.0078 414.951 97.6841 414.909 97.4048C414.867 97.1213 414.803 96.8822 414.719 96.6875C414.638 96.4886 414.537 96.3278 414.414 96.2051C414.291 96.0781 414.152 95.9871 413.995 95.9321C413.839 95.8729 413.663 95.8433 413.468 95.8433C413.231 95.8433 413.02 95.8898 412.833 95.9829C412.647 96.0718 412.491 96.2157 412.364 96.4146C412.237 96.6134 412.139 96.8758 412.072 97.2017C412.008 97.5233 411.977 97.9147 411.977 98.376V100.331C411.977 100.703 411.998 101.031 412.04 101.315C412.082 101.598 412.146 101.842 412.23 102.045C412.315 102.244 412.417 102.409 412.535 102.54C412.658 102.667 412.798 102.76 412.954 102.819C413.115 102.879 413.291 102.908 413.481 102.908C413.722 102.908 413.936 102.862 414.122 102.769C414.308 102.675 414.465 102.527 414.592 102.324C414.719 102.117 414.814 101.848 414.877 101.518C414.941 101.188 414.973 100.792 414.973 100.331ZM424.062 102.781V104H417.867V102.953L420.876 99.6709C421.206 99.2985 421.466 98.9769 421.657 98.7061C421.847 98.4352 421.98 98.1919 422.057 97.9761C422.137 97.756 422.177 97.5423 422.177 97.335C422.177 97.043 422.122 96.7869 422.012 96.5669C421.906 96.3426 421.75 96.167 421.542 96.04C421.335 95.9089 421.083 95.8433 420.787 95.8433C420.444 95.8433 420.157 95.9173 419.924 96.0654C419.691 96.2135 419.515 96.4188 419.397 96.6812C419.278 96.9393 419.219 97.2355 419.219 97.5698H417.689C417.689 97.0324 417.812 96.5415 418.058 96.0972C418.303 95.6486 418.659 95.2931 419.124 95.0308C419.59 94.7642 420.15 94.6309 420.806 94.6309C421.424 94.6309 421.949 94.7345 422.38 94.9419C422.812 95.1493 423.14 95.4434 423.364 95.8242C423.593 96.2051 423.707 96.6558 423.707 97.1763C423.707 97.464 423.66 97.7497 423.567 98.0332C423.474 98.3167 423.341 98.6003 423.167 98.8838C422.998 99.1631 422.797 99.4445 422.564 99.728C422.332 100.007 422.076 100.291 421.796 100.579L419.797 102.781H424.062ZM427.052 98.687H427.966C428.322 98.687 428.616 98.6257 428.849 98.5029C429.086 98.3802 429.261 98.2109 429.375 97.9951C429.49 97.7793 429.547 97.5317 429.547 97.2524C429.547 96.9604 429.494 96.7108 429.388 96.5034C429.287 96.2918 429.13 96.1289 428.918 96.0146C428.711 95.9004 428.447 95.8433 428.125 95.8433C427.854 95.8433 427.609 95.8983 427.389 96.0083C427.173 96.1141 427.001 96.2664 426.875 96.4653C426.748 96.66 426.684 96.8927 426.684 97.1636H425.148C425.148 96.6727 425.277 96.2368 425.535 95.856C425.793 95.4751 426.145 95.1768 426.589 94.9609C427.037 94.7409 427.541 94.6309 428.1 94.6309C428.696 94.6309 429.217 94.7303 429.661 94.9292C430.11 95.1239 430.459 95.4159 430.708 95.8052C430.958 96.1945 431.083 96.6769 431.083 97.2524C431.083 97.5148 431.022 97.7814 430.899 98.0522C430.776 98.3231 430.594 98.5706 430.353 98.7949C430.112 99.015 429.811 99.1948 429.452 99.3345C429.092 99.4699 428.675 99.5376 428.201 99.5376H427.052V98.687ZM427.052 99.8804V99.0425H428.201C428.743 99.0425 429.204 99.106 429.585 99.2329C429.97 99.3599 430.283 99.5355 430.524 99.7598C430.766 99.9798 430.941 100.232 431.051 100.515C431.166 100.799 431.223 101.099 431.223 101.417C431.223 101.848 431.144 102.233 430.988 102.572C430.835 102.906 430.618 103.19 430.334 103.422C430.05 103.655 429.718 103.831 429.337 103.949C428.961 104.068 428.55 104.127 428.106 104.127C427.708 104.127 427.327 104.072 426.963 103.962C426.599 103.852 426.274 103.689 425.986 103.473C425.698 103.253 425.47 102.98 425.3 102.654C425.135 102.324 425.053 101.943 425.053 101.512H426.583C426.583 101.787 426.646 102.03 426.773 102.242C426.904 102.449 427.086 102.612 427.319 102.73C427.556 102.849 427.827 102.908 428.131 102.908C428.453 102.908 428.73 102.851 428.963 102.737C429.196 102.623 429.373 102.453 429.496 102.229C429.623 102.005 429.687 101.734 429.687 101.417C429.687 101.057 429.617 100.765 429.477 100.541C429.337 100.316 429.139 100.151 428.88 100.045C428.622 99.9354 428.318 99.8804 427.966 99.8804H427.052Z" fill="#1A1A1A"/>
<path d="M455.086 98.0594L449.494 104.059C449.182 104.355 448.821 104.5 448.5 104.5C448.179 104.5 447.779 104.354 447.504 104.061L441.913 98.0605C441.51 97.6314 441.389 96.9866 441.607 96.4255C441.825 95.8645 442.262 95.5 442.869 95.5H454.092C454.661 95.5 455.175 95.8647 455.393 96.4258C455.611 96.9868 455.489 97.6328 455.086 98.0594Z" fill="#1A1A1A"/>
<path d="M509.05 107C508.766 107 508.514 106.906 508.295 106.719C508.098 106.51 508 106.271 508 106C508 105.729 508.098 105.49 508.295 105.281L513.873 100L508.295 94.7188C508.098 94.5104 508 94.2708 508 94C508 93.7292 508.098 93.4896 508.295 93.2812C508.514 93.0938 508.766 93 509.05 93C509.334 93 509.586 93.0938 509.805 93.2812L516.105 99.2812C516.302 99.4896 516.4 99.7292 516.4 100C516.4 100.271 516.302 100.51 516.105 100.719L509.805 106.719C509.586 106.906 509.334 107 509.05 107Z" fill="#1A1A1A"/>
<g clip-path="url(#clip0_7306_78075)">
<rect width="280" height="40" transform="translate(256 124)" fill="#F8F8F8"/>
<path d="M273.613 145.62C273.613 145.429 273.584 145.26 273.524 145.112C273.469 144.964 273.37 144.828 273.226 144.706C273.082 144.583 272.879 144.464 272.617 144.35C272.359 144.232 272.028 144.111 271.626 143.988C271.186 143.853 270.78 143.703 270.408 143.538C270.04 143.368 269.718 143.174 269.443 142.954C269.168 142.729 268.954 142.473 268.802 142.186C268.649 141.894 268.573 141.557 268.573 141.176C268.573 140.8 268.652 140.457 268.808 140.148C268.969 139.839 269.195 139.572 269.487 139.348C269.784 139.12 270.133 138.944 270.535 138.821C270.937 138.694 271.381 138.631 271.868 138.631C272.553 138.631 273.144 138.758 273.639 139.012C274.138 139.266 274.521 139.606 274.788 140.034C275.058 140.461 275.194 140.933 275.194 141.449H273.613C273.613 141.145 273.548 140.876 273.417 140.643C273.29 140.406 273.095 140.22 272.833 140.084C272.574 139.949 272.246 139.881 271.849 139.881C271.472 139.881 271.159 139.938 270.909 140.053C270.66 140.167 270.473 140.321 270.351 140.516C270.228 140.711 270.167 140.931 270.167 141.176C270.167 141.35 270.207 141.508 270.287 141.652C270.368 141.792 270.49 141.923 270.655 142.046C270.82 142.164 271.028 142.277 271.277 142.382C271.527 142.488 271.821 142.59 272.16 142.687C272.672 142.839 273.118 143.009 273.499 143.195C273.88 143.377 274.197 143.584 274.451 143.817C274.705 144.05 274.896 144.314 275.022 144.61C275.149 144.902 275.213 145.235 275.213 145.607C275.213 145.996 275.135 146.347 274.978 146.661C274.821 146.97 274.597 147.234 274.305 147.454C274.017 147.67 273.67 147.837 273.264 147.956C272.862 148.07 272.414 148.127 271.918 148.127C271.474 148.127 271.036 148.068 270.604 147.949C270.177 147.831 269.788 147.651 269.437 147.41C269.085 147.164 268.806 146.86 268.599 146.496C268.391 146.127 268.288 145.698 268.288 145.207H269.881C269.881 145.507 269.932 145.764 270.033 145.975C270.139 146.187 270.285 146.36 270.471 146.496C270.657 146.627 270.873 146.724 271.119 146.788C271.368 146.851 271.635 146.883 271.918 146.883C272.291 146.883 272.602 146.83 272.852 146.724C273.105 146.618 273.296 146.47 273.423 146.28C273.55 146.089 273.613 145.869 273.613 145.62ZM281.808 138.758H283.395V144.934C283.395 145.637 283.243 146.225 282.938 146.699C282.633 147.173 282.219 147.53 281.694 147.771C281.173 148.008 280.591 148.127 279.948 148.127C279.284 148.127 278.691 148.008 278.171 147.771C277.65 147.53 277.24 147.173 276.939 146.699C276.643 146.225 276.495 145.637 276.495 144.934V138.758H278.082V144.934C278.082 145.378 278.158 145.744 278.311 146.032C278.463 146.316 278.679 146.525 278.958 146.661C279.237 146.796 279.567 146.864 279.948 146.864C280.329 146.864 280.657 146.796 280.932 146.661C281.211 146.525 281.427 146.316 281.58 146.032C281.732 145.744 281.808 145.378 281.808 144.934V138.758Z" fill="#737373"/>
<path d="M307.418 138.758H308.84L311.512 145.886L314.178 138.758H315.6L312.071 148H310.941L307.418 138.758ZM306.771 138.758H308.123L308.357 144.928V148H306.771V138.758ZM314.896 138.758H316.254V148H314.661V144.928L314.896 138.758ZM325.515 143.125V143.633C325.515 144.331 325.424 144.957 325.242 145.512C325.06 146.066 324.8 146.538 324.461 146.927C324.127 147.317 323.725 147.615 323.255 147.822C322.786 148.025 322.265 148.127 321.694 148.127C321.127 148.127 320.608 148.025 320.139 147.822C319.673 147.615 319.269 147.317 318.926 146.927C318.583 146.538 318.317 146.066 318.126 145.512C317.94 144.957 317.847 144.331 317.847 143.633V143.125C317.847 142.427 317.94 141.803 318.126 141.252C318.313 140.698 318.575 140.226 318.914 139.837C319.256 139.443 319.66 139.145 320.126 138.942C320.596 138.735 321.114 138.631 321.681 138.631C322.252 138.631 322.773 138.735 323.243 138.942C323.712 139.145 324.117 139.443 324.455 139.837C324.794 140.226 325.054 140.698 325.236 141.252C325.422 141.803 325.515 142.427 325.515 143.125ZM323.922 143.633V143.112C323.922 142.596 323.871 142.141 323.77 141.748C323.672 141.35 323.526 141.018 323.332 140.751C323.141 140.48 322.906 140.277 322.627 140.142C322.348 140.002 322.032 139.932 321.681 139.932C321.33 139.932 321.017 140.002 320.742 140.142C320.467 140.277 320.232 140.48 320.037 140.751C319.847 141.018 319.701 141.35 319.599 141.748C319.498 142.141 319.447 142.596 319.447 143.112V143.633C319.447 144.149 319.498 144.606 319.599 145.004C319.701 145.402 319.849 145.738 320.043 146.013C320.242 146.284 320.479 146.489 320.754 146.629C321.029 146.764 321.343 146.832 321.694 146.832C322.049 146.832 322.365 146.764 322.64 146.629C322.915 146.489 323.147 146.284 323.338 146.013C323.528 145.738 323.672 145.402 323.77 145.004C323.871 144.606 323.922 144.149 323.922 143.633Z" fill="#737373"/>
<path d="M352.528 138.758V148H350.947V138.758H352.528ZM355.429 138.758V140.027H348.072V138.758H355.429ZM361.833 138.758H363.42V144.934C363.42 145.637 363.268 146.225 362.963 146.699C362.659 147.173 362.244 147.53 361.719 147.771C361.199 148.008 360.617 148.127 359.974 148.127C359.309 148.127 358.717 148.008 358.196 147.771C357.676 147.53 357.265 147.173 356.965 146.699C356.669 146.225 356.521 145.637 356.521 144.934V138.758H358.107V144.934C358.107 145.378 358.184 145.744 358.336 146.032C358.488 146.316 358.704 146.525 358.983 146.661C359.263 146.796 359.593 146.864 359.974 146.864C360.354 146.864 360.682 146.796 360.958 146.661C361.237 146.525 361.453 146.316 361.605 146.032C361.757 145.744 361.833 145.378 361.833 144.934V138.758Z" fill="#737373"/>
<path d="M389.855 145.924L391.696 138.758H392.661L392.553 140.605L390.585 148H389.583L389.855 145.924ZM388.478 138.758L389.97 145.867L390.103 148H389.037L386.897 138.758H388.478ZM394.75 145.848L396.222 138.758H397.809L395.67 148H394.604L394.75 145.848ZM393.036 138.758L394.857 145.943L395.124 148H394.121L392.185 140.605L392.083 138.758H393.036ZM405.039 146.737V148H400.132V146.737H405.039ZM400.583 138.758V148H398.99V138.758H400.583ZM404.398 142.617V143.861H400.132V142.617H404.398ZM405.007 138.758V140.027H400.132V138.758H405.007Z" fill="#737373"/>
<path d="M432.166 138.758V148H430.585V138.758H432.166ZM435.067 138.758V140.027H427.71V138.758H435.067ZM442.392 142.617V143.88H437.485V142.617H442.392ZM437.879 138.758V148H436.286V138.758H437.879ZM443.617 138.758V148H442.03V138.758H443.617Z" fill="#737373"/>
<path d="M470.858 138.758V148H469.265V138.758H470.858ZM474.629 142.801V144.064H470.452V142.801H474.629ZM475.156 138.758V140.027H470.452V138.758H475.156ZM476.425 138.758H479.694C480.397 138.758 480.996 138.864 481.491 139.075C481.986 139.287 482.365 139.6 482.627 140.015C482.894 140.425 483.027 140.933 483.027 141.538C483.027 141.999 482.942 142.406 482.773 142.757C482.604 143.108 482.365 143.404 482.056 143.646C481.747 143.882 481.379 144.067 480.951 144.198L480.469 144.433H477.53L477.517 143.169H479.72C480.101 143.169 480.418 143.102 480.672 142.966C480.926 142.831 481.116 142.647 481.243 142.414C481.374 142.177 481.44 141.91 481.44 141.614C481.44 141.293 481.376 141.013 481.25 140.776C481.127 140.535 480.936 140.351 480.678 140.224C480.42 140.093 480.092 140.027 479.694 140.027H478.019V148H476.425V138.758ZM481.7 148L479.529 143.849L481.199 143.842L483.401 147.917V148H481.7Z" fill="#737373"/>
<path d="M513.556 145.62C513.556 145.429 513.527 145.26 513.467 145.112C513.412 144.964 513.313 144.828 513.169 144.706C513.025 144.583 512.822 144.464 512.56 144.35C512.301 144.232 511.971 144.111 511.569 143.988C511.129 143.853 510.723 143.703 510.351 143.538C509.982 143.368 509.661 143.174 509.386 142.954C509.111 142.729 508.897 142.473 508.745 142.186C508.592 141.894 508.516 141.557 508.516 141.176C508.516 140.8 508.594 140.457 508.751 140.148C508.912 139.839 509.138 139.572 509.43 139.348C509.726 139.12 510.076 138.944 510.478 138.821C510.88 138.694 511.324 138.631 511.811 138.631C512.496 138.631 513.086 138.758 513.582 139.012C514.081 139.266 514.464 139.606 514.73 140.034C515.001 140.461 515.137 140.933 515.137 141.449H513.556C513.556 141.145 513.491 140.876 513.359 140.643C513.232 140.406 513.038 140.22 512.775 140.084C512.517 139.949 512.189 139.881 511.792 139.881C511.415 139.881 511.102 139.938 510.852 140.053C510.602 140.167 510.416 140.321 510.293 140.516C510.171 140.711 510.109 140.931 510.109 141.176C510.109 141.35 510.15 141.508 510.23 141.652C510.31 141.792 510.433 141.923 510.598 142.046C510.763 142.164 510.971 142.277 511.22 142.382C511.47 142.488 511.764 142.59 512.103 142.687C512.615 142.839 513.061 143.009 513.442 143.195C513.823 143.377 514.14 143.584 514.394 143.817C514.648 144.05 514.838 144.314 514.965 144.61C515.092 144.902 515.156 145.235 515.156 145.607C515.156 145.996 515.077 146.347 514.921 146.661C514.764 146.97 514.54 147.234 514.248 147.454C513.96 147.67 513.613 147.837 513.207 147.956C512.805 148.07 512.356 148.127 511.861 148.127C511.417 148.127 510.979 148.068 510.547 147.949C510.12 147.831 509.731 147.651 509.379 147.41C509.028 147.164 508.749 146.86 508.542 146.496C508.334 146.127 508.23 145.698 508.23 145.207H509.824C509.824 145.507 509.875 145.764 509.976 145.975C510.082 146.187 510.228 146.36 510.414 146.496C510.6 146.627 510.816 146.724 511.062 146.788C511.311 146.851 511.578 146.883 511.861 146.883C512.234 146.883 512.545 146.83 512.794 146.724C513.048 146.618 513.239 146.47 513.366 146.28C513.493 146.089 513.556 145.869 513.556 145.62ZM520.164 139.989L517.403 148H515.733L519.212 138.758H520.278L520.164 139.989ZM522.475 148L519.707 139.989L519.586 138.758H520.659L524.15 148H522.475ZM522.341 144.572V145.835H517.314V144.572H522.341Z" fill="#737373"/>
</g>
<path d="M271.106 182.687H272.02C272.375 182.687 272.67 182.626 272.902 182.503C273.139 182.38 273.315 182.211 273.429 181.995C273.543 181.779 273.601 181.532 273.601 181.252C273.601 180.96 273.548 180.711 273.442 180.503C273.34 180.292 273.184 180.129 272.972 180.015C272.765 179.9 272.5 179.843 272.179 179.843C271.908 179.843 271.662 179.898 271.442 180.008C271.227 180.114 271.055 180.266 270.928 180.465C270.801 180.66 270.738 180.893 270.738 181.164H269.202C269.202 180.673 269.331 180.237 269.589 179.856C269.847 179.475 270.198 179.177 270.643 178.961C271.091 178.741 271.595 178.631 272.153 178.631C272.75 178.631 273.271 178.73 273.715 178.929C274.163 179.124 274.513 179.416 274.762 179.805C275.012 180.194 275.137 180.677 275.137 181.252C275.137 181.515 275.075 181.781 274.953 182.052C274.83 182.323 274.648 182.571 274.407 182.795C274.166 183.015 273.865 183.195 273.505 183.334C273.146 183.47 272.729 183.538 272.255 183.538H271.106V182.687ZM271.106 183.88V183.042H272.255C272.797 183.042 273.258 183.106 273.639 183.233C274.024 183.36 274.337 183.535 274.578 183.76C274.819 183.98 274.995 184.232 275.105 184.515C275.219 184.799 275.276 185.099 275.276 185.417C275.276 185.848 275.198 186.233 275.042 186.572C274.889 186.906 274.671 187.19 274.388 187.422C274.104 187.655 273.772 187.831 273.391 187.949C273.014 188.068 272.604 188.127 272.16 188.127C271.762 188.127 271.381 188.072 271.017 187.962C270.653 187.852 270.327 187.689 270.04 187.473C269.752 187.253 269.523 186.98 269.354 186.654C269.189 186.324 269.106 185.943 269.106 185.512H270.636C270.636 185.787 270.7 186.03 270.827 186.242C270.958 186.449 271.14 186.612 271.373 186.73C271.61 186.849 271.88 186.908 272.185 186.908C272.507 186.908 272.784 186.851 273.017 186.737C273.249 186.623 273.427 186.453 273.55 186.229C273.677 186.005 273.74 185.734 273.74 185.417C273.74 185.057 273.67 184.765 273.531 184.541C273.391 184.316 273.192 184.151 272.934 184.045C272.676 183.935 272.371 183.88 272.02 183.88H271.106ZM282.722 182.604V184.115C282.722 184.839 282.65 185.457 282.506 185.969C282.367 186.477 282.164 186.889 281.897 187.207C281.63 187.524 281.311 187.757 280.938 187.905C280.57 188.053 280.158 188.127 279.701 188.127C279.337 188.127 278.998 188.08 278.685 187.987C278.376 187.894 278.097 187.748 277.847 187.549C277.597 187.35 277.384 187.094 277.206 186.781C277.033 186.464 276.897 186.085 276.8 185.645C276.707 185.205 276.66 184.695 276.66 184.115V182.604C276.66 181.877 276.732 181.263 276.876 180.764C277.02 180.26 277.225 179.852 277.492 179.539C277.758 179.221 278.076 178.991 278.444 178.847C278.816 178.703 279.231 178.631 279.688 178.631C280.056 178.631 280.395 178.677 280.704 178.771C281.017 178.859 281.296 179.001 281.542 179.196C281.791 179.39 282.003 179.644 282.176 179.958C282.354 180.266 282.489 180.641 282.583 181.081C282.676 181.517 282.722 182.025 282.722 182.604ZM281.192 184.331V182.376C281.192 182.008 281.171 181.684 281.129 181.405C281.087 181.121 281.023 180.882 280.938 180.688C280.858 180.489 280.757 180.328 280.634 180.205C280.511 180.078 280.371 179.987 280.215 179.932C280.058 179.873 279.883 179.843 279.688 179.843C279.451 179.843 279.239 179.89 279.053 179.983C278.867 180.072 278.71 180.216 278.583 180.415C278.457 180.613 278.359 180.876 278.292 181.202C278.228 181.523 278.196 181.915 278.196 182.376V184.331C278.196 184.703 278.217 185.031 278.26 185.315C278.302 185.598 278.366 185.842 278.45 186.045C278.535 186.244 278.636 186.409 278.755 186.54C278.878 186.667 279.017 186.76 279.174 186.819C279.335 186.879 279.51 186.908 279.701 186.908C279.942 186.908 280.156 186.862 280.342 186.769C280.528 186.675 280.685 186.527 280.812 186.324C280.938 186.117 281.034 185.848 281.097 185.518C281.161 185.188 281.192 184.792 281.192 184.331Z" fill="#AAAAAA"/>
<path d="M311.106 182.687H312.02C312.375 182.687 312.67 182.626 312.902 182.503C313.139 182.38 313.315 182.211 313.429 181.995C313.543 181.779 313.601 181.532 313.601 181.252C313.601 180.96 313.548 180.711 313.442 180.503C313.34 180.292 313.184 180.129 312.972 180.015C312.765 179.9 312.5 179.843 312.179 179.843C311.908 179.843 311.662 179.898 311.442 180.008C311.227 180.114 311.055 180.266 310.928 180.465C310.801 180.66 310.738 180.893 310.738 181.164H309.202C309.202 180.673 309.331 180.237 309.589 179.856C309.847 179.475 310.198 179.177 310.643 178.961C311.091 178.741 311.595 178.631 312.153 178.631C312.75 178.631 313.271 178.73 313.715 178.929C314.163 179.124 314.513 179.416 314.762 179.805C315.012 180.194 315.137 180.677 315.137 181.252C315.137 181.515 315.075 181.781 314.953 182.052C314.83 182.323 314.648 182.571 314.407 182.795C314.166 183.015 313.865 183.195 313.505 183.334C313.146 183.47 312.729 183.538 312.255 183.538H311.106V182.687ZM311.106 183.88V183.042H312.255C312.797 183.042 313.258 183.106 313.639 183.233C314.024 183.36 314.337 183.535 314.578 183.76C314.819 183.98 314.995 184.232 315.105 184.515C315.219 184.799 315.276 185.099 315.276 185.417C315.276 185.848 315.198 186.233 315.042 186.572C314.889 186.906 314.671 187.19 314.388 187.422C314.104 187.655 313.772 187.831 313.391 187.949C313.014 188.068 312.604 188.127 312.16 188.127C311.762 188.127 311.381 188.072 311.017 187.962C310.653 187.852 310.327 187.689 310.04 187.473C309.752 187.253 309.523 186.98 309.354 186.654C309.189 186.324 309.106 185.943 309.106 185.512H310.636C310.636 185.787 310.7 186.03 310.827 186.242C310.958 186.449 311.14 186.612 311.373 186.73C311.61 186.849 311.88 186.908 312.185 186.908C312.507 186.908 312.784 186.851 313.017 186.737C313.249 186.623 313.427 186.453 313.55 186.229C313.677 186.005 313.74 185.734 313.74 185.417C313.74 185.057 313.67 184.765 313.531 184.541C313.391 184.316 313.192 184.151 312.934 184.045C312.676 183.935 312.371 183.88 312.02 183.88H311.106ZM320.875 178.726V188H319.345V180.542L317.079 181.31V180.046L320.691 178.726H320.875Z" fill="#AAAAAA"/>
<path d="M357.181 178.726V188H355.651V180.542L353.385 181.31V180.046L356.997 178.726H357.181Z" fill="#505050"/>
<path d="M399.199 186.781V188H393.004V186.953L396.013 183.671C396.343 183.299 396.603 182.977 396.793 182.706C396.984 182.435 397.117 182.192 397.193 181.976C397.274 181.756 397.314 181.542 397.314 181.335C397.314 181.043 397.259 180.787 397.149 180.567C397.043 180.343 396.887 180.167 396.679 180.04C396.472 179.909 396.22 179.843 395.924 179.843C395.581 179.843 395.293 179.917 395.061 180.065C394.828 180.214 394.652 180.419 394.534 180.681C394.415 180.939 394.356 181.236 394.356 181.57H392.826C392.826 181.032 392.949 180.542 393.194 180.097C393.44 179.649 393.795 179.293 394.261 179.031C394.726 178.764 395.287 178.631 395.943 178.631C396.561 178.631 397.085 178.735 397.517 178.942C397.949 179.149 398.277 179.443 398.501 179.824C398.729 180.205 398.844 180.656 398.844 181.176C398.844 181.464 398.797 181.75 398.704 182.033C398.611 182.317 398.478 182.6 398.304 182.884C398.135 183.163 397.934 183.444 397.701 183.728C397.468 184.007 397.212 184.291 396.933 184.579L394.934 186.781H399.199Z" fill="#505050"/>
<path d="M434.8 182.687H435.714C436.07 182.687 436.364 182.626 436.597 182.503C436.834 182.38 437.009 182.211 437.124 181.995C437.238 181.779 437.295 181.532 437.295 181.252C437.295 180.96 437.242 180.711 437.136 180.503C437.035 180.292 436.878 180.129 436.667 180.015C436.459 179.9 436.195 179.843 435.873 179.843C435.602 179.843 435.357 179.898 435.137 180.008C434.921 180.114 434.75 180.266 434.623 180.465C434.496 180.66 434.432 180.893 434.432 181.164H432.896C432.896 180.673 433.025 180.237 433.283 179.856C433.541 179.475 433.893 179.177 434.337 178.961C434.785 178.741 435.289 178.631 435.848 178.631C436.444 178.631 436.965 178.73 437.409 178.929C437.858 179.124 438.207 179.416 438.457 179.805C438.706 180.194 438.831 180.677 438.831 181.252C438.831 181.515 438.77 181.781 438.647 182.052C438.524 182.323 438.342 182.571 438.101 182.795C437.86 183.015 437.559 183.195 437.2 183.334C436.84 183.47 436.423 183.538 435.949 183.538H434.8V182.687ZM434.8 183.88V183.042H435.949C436.491 183.042 436.952 183.106 437.333 183.233C437.718 183.36 438.031 183.535 438.272 183.76C438.514 183.98 438.689 184.232 438.799 184.515C438.914 184.799 438.971 185.099 438.971 185.417C438.971 185.848 438.892 186.233 438.736 186.572C438.583 186.906 438.366 187.19 438.082 187.422C437.799 187.655 437.466 187.831 437.085 187.949C436.709 188.068 436.298 188.127 435.854 188.127C435.456 188.127 435.075 188.072 434.711 187.962C434.347 187.852 434.022 187.689 433.734 187.473C433.446 187.253 433.218 186.98 433.048 186.654C432.883 186.324 432.801 185.943 432.801 185.512H434.331C434.331 185.787 434.394 186.03 434.521 186.242C434.652 186.449 434.834 186.612 435.067 186.73C435.304 186.849 435.575 186.908 435.879 186.908C436.201 186.908 436.478 186.851 436.711 186.737C436.944 186.623 437.121 186.453 437.244 186.229C437.371 186.005 437.435 185.734 437.435 185.417C437.435 185.057 437.365 184.765 437.225 184.541C437.085 184.316 436.887 184.151 436.628 184.045C436.37 183.935 436.066 183.88 435.714 183.88H434.8Z" fill="#505050"/>
<path d="M479.371 184.706V185.924H472.706L472.655 185.004L476.641 178.758H477.866L476.54 181.03L474.248 184.706H479.371ZM478.215 178.758V188H476.686V178.758H478.215Z" fill="#505050"/>
<path d="M514.61 183.703L513.391 183.404L513.893 178.758H518.875V180.053H515.162L514.908 182.319C515.052 182.234 515.251 182.152 515.505 182.071C515.759 181.987 516.049 181.944 516.375 181.944C516.81 181.944 517.2 182.016 517.542 182.16C517.889 182.3 518.184 182.505 518.425 182.776C518.666 183.042 518.85 183.368 518.977 183.753C519.104 184.134 519.167 184.564 519.167 185.042C519.167 185.469 519.104 185.869 518.977 186.242C518.854 186.614 518.668 186.942 518.418 187.226C518.169 187.509 517.854 187.731 517.473 187.892C517.096 188.049 516.65 188.127 516.133 188.127C515.748 188.127 515.378 188.072 515.022 187.962C514.671 187.848 514.356 187.681 514.077 187.46C513.797 187.236 513.573 186.961 513.404 186.635C513.235 186.305 513.137 185.926 513.112 185.499H514.61C514.648 185.799 514.73 186.056 514.857 186.267C514.989 186.474 515.162 186.633 515.378 186.743C515.594 186.853 515.843 186.908 516.127 186.908C516.385 186.908 516.607 186.864 516.793 186.775C516.98 186.682 517.134 186.551 517.257 186.381C517.384 186.208 517.477 186.005 517.536 185.772C517.6 185.539 517.631 185.281 517.631 184.998C517.631 184.727 517.595 184.479 517.523 184.255C517.456 184.031 517.352 183.836 517.212 183.671C517.077 183.506 516.906 183.379 516.698 183.29C516.491 183.197 516.252 183.15 515.981 183.15C515.617 183.15 515.338 183.203 515.143 183.309C514.953 183.415 514.775 183.546 514.61 183.703Z" fill="#505050"/>
<path d="M277.625 218.701H277.815V219.951H277.708C277.162 219.951 276.69 220.036 276.292 220.205C275.898 220.374 275.575 220.607 275.321 220.903C275.067 221.2 274.876 221.547 274.75 221.944C274.627 222.338 274.565 222.757 274.565 223.201V224.655C274.565 225.023 274.606 225.349 274.686 225.632C274.766 225.912 274.879 226.146 275.022 226.337C275.171 226.523 275.34 226.665 275.53 226.762C275.721 226.86 275.926 226.908 276.146 226.908C276.375 226.908 276.582 226.862 276.768 226.769C276.954 226.671 277.113 226.538 277.244 226.369C277.375 226.199 277.475 225.998 277.542 225.766C277.61 225.533 277.644 225.279 277.644 225.004C277.644 224.742 277.61 224.496 277.542 224.268C277.479 224.035 277.384 223.832 277.257 223.658C277.13 223.48 276.971 223.343 276.781 223.246C276.595 223.144 276.379 223.093 276.133 223.093C275.829 223.093 275.551 223.165 275.302 223.309C275.056 223.453 274.857 223.641 274.705 223.874C274.557 224.103 274.477 224.346 274.464 224.604L273.88 224.414C273.914 224.02 274 223.667 274.14 223.354C274.284 223.04 274.472 222.774 274.705 222.554C274.938 222.334 275.207 222.167 275.511 222.052C275.82 221.934 276.159 221.875 276.527 221.875C276.975 221.875 277.365 221.959 277.695 222.128C278.025 222.298 278.298 222.528 278.514 222.82C278.734 223.108 278.897 223.438 279.002 223.811C279.112 224.179 279.167 224.564 279.167 224.966C279.167 225.41 279.1 225.825 278.964 226.21C278.829 226.591 278.63 226.925 278.368 227.213C278.11 227.501 277.794 227.725 277.422 227.886C277.054 228.047 276.635 228.127 276.165 228.127C275.67 228.127 275.228 228.032 274.838 227.841C274.453 227.651 274.125 227.389 273.854 227.054C273.588 226.72 273.385 226.335 273.245 225.899C273.105 225.463 273.036 225.002 273.036 224.515V223.88C273.036 223.178 273.125 222.516 273.302 221.894C273.48 221.267 273.753 220.715 274.121 220.237C274.493 219.759 274.97 219.384 275.549 219.113C276.129 218.838 276.821 218.701 277.625 218.701Z" fill="#505050"/>
<path d="M319.142 218.758V219.596L315.448 228H313.835L317.523 219.977H312.737V218.758H319.142Z" fill="#505050"/>
<path d="M359.047 225.48C359.047 226.056 358.914 226.54 358.647 226.934C358.38 227.327 358.016 227.625 357.555 227.829C357.098 228.028 356.582 228.127 356.006 228.127C355.431 228.127 354.912 228.028 354.451 227.829C353.99 227.625 353.626 227.327 353.359 226.934C353.093 226.54 352.959 226.056 352.959 225.48C352.959 225.099 353.034 224.754 353.182 224.445C353.33 224.132 353.539 223.863 353.81 223.639C354.085 223.411 354.407 223.235 354.775 223.112C355.147 222.99 355.554 222.928 355.994 222.928C356.578 222.928 357.1 223.036 357.562 223.252C358.023 223.468 358.385 223.766 358.647 224.147C358.914 224.528 359.047 224.972 359.047 225.48ZM357.511 225.404C357.511 225.095 357.447 224.824 357.32 224.591C357.193 224.359 357.016 224.179 356.787 224.052C356.559 223.925 356.294 223.861 355.994 223.861C355.689 223.861 355.424 223.925 355.2 224.052C354.976 224.179 354.8 224.359 354.673 224.591C354.551 224.824 354.489 225.095 354.489 225.404C354.489 225.717 354.551 225.988 354.673 226.216C354.796 226.441 354.972 226.612 355.2 226.73C355.429 226.849 355.697 226.908 356.006 226.908C356.315 226.908 356.582 226.849 356.806 226.73C357.03 226.612 357.204 226.441 357.327 226.216C357.449 225.988 357.511 225.717 357.511 225.404ZM358.837 221.189C358.837 221.65 358.715 222.061 358.469 222.42C358.228 222.78 357.894 223.064 357.466 223.271C357.039 223.474 356.552 223.576 356.006 223.576C355.456 223.576 354.965 223.474 354.534 223.271C354.106 223.064 353.77 222.78 353.524 222.42C353.283 222.061 353.163 221.65 353.163 221.189C353.163 220.639 353.283 220.175 353.524 219.799C353.77 219.418 354.106 219.128 354.534 218.929C354.961 218.73 355.45 218.631 356 218.631C356.55 218.631 357.039 218.73 357.466 218.929C357.894 219.128 358.228 219.418 358.469 219.799C358.715 220.175 358.837 220.639 358.837 221.189ZM357.308 221.24C357.308 220.965 357.253 220.723 357.143 220.516C357.037 220.305 356.887 220.139 356.692 220.021C356.497 219.903 356.267 219.843 356 219.843C355.733 219.843 355.503 219.9 355.308 220.015C355.113 220.129 354.963 220.29 354.857 220.497C354.752 220.704 354.699 220.952 354.699 221.24C354.699 221.523 354.752 221.771 354.857 221.982C354.963 222.19 355.113 222.353 355.308 222.471C355.507 222.59 355.74 222.649 356.006 222.649C356.273 222.649 356.504 222.59 356.698 222.471C356.893 222.353 357.043 222.19 357.149 221.982C357.255 221.771 357.308 221.523 357.308 221.24Z" fill="#505050"/>
<path d="M394.235 226.794H394.362C394.946 226.794 395.433 226.718 395.822 226.565C396.216 226.409 396.529 226.193 396.762 225.918C396.994 225.643 397.162 225.319 397.263 224.947C397.365 224.574 397.416 224.17 397.416 223.734V222.141C397.416 221.764 397.375 221.434 397.295 221.151C397.219 220.863 397.109 220.624 396.965 220.434C396.825 220.239 396.662 220.093 396.476 219.996C396.294 219.898 396.097 219.85 395.886 219.85C395.653 219.85 395.444 219.903 395.257 220.008C395.075 220.11 394.921 220.252 394.794 220.434C394.671 220.611 394.576 220.821 394.508 221.062C394.445 221.299 394.413 221.553 394.413 221.824C394.413 222.078 394.443 222.323 394.502 222.56C394.565 222.793 394.659 223 394.781 223.182C394.904 223.364 395.058 223.508 395.245 223.614C395.431 223.72 395.649 223.772 395.898 223.772C396.135 223.772 396.353 223.728 396.552 223.639C396.751 223.546 396.925 223.421 397.073 223.265C397.221 223.108 397.337 222.932 397.422 222.738C397.507 222.543 397.553 222.344 397.562 222.141L398.146 222.319C398.146 222.64 398.078 222.958 397.942 223.271C397.811 223.58 397.627 223.863 397.39 224.122C397.157 224.375 396.884 224.579 396.571 224.731C396.262 224.883 395.926 224.959 395.562 224.959C395.122 224.959 394.733 224.877 394.394 224.712C394.06 224.543 393.78 224.314 393.556 224.026C393.336 223.739 393.171 223.409 393.061 223.036C392.951 222.664 392.896 222.272 392.896 221.862C392.896 221.417 392.964 221.001 393.099 220.611C393.235 220.222 393.431 219.879 393.689 219.583C393.948 219.283 394.261 219.05 394.629 218.885C395.001 218.715 395.422 218.631 395.892 218.631C396.391 218.631 396.829 218.728 397.206 218.923C397.583 219.118 397.9 219.386 398.158 219.729C398.416 220.072 398.611 220.47 398.742 220.922C398.873 221.375 398.939 221.862 398.939 222.382V222.922C398.939 223.468 398.89 223.995 398.793 224.502C398.696 225.006 398.537 225.474 398.317 225.905C398.101 226.333 397.815 226.709 397.46 227.035C397.109 227.357 396.677 227.609 396.165 227.791C395.657 227.968 395.061 228.057 394.375 228.057H394.235V226.794Z" fill="#505050"/>
<path d="M433.486 218.726V228H431.957V220.542L429.69 221.31V220.046L433.302 218.726H433.486ZM442.722 222.604V224.115C442.722 224.839 442.65 225.457 442.506 225.969C442.367 226.477 442.164 226.889 441.897 227.207C441.63 227.524 441.311 227.757 440.938 227.905C440.57 228.053 440.158 228.127 439.701 228.127C439.337 228.127 438.998 228.08 438.685 227.987C438.376 227.894 438.097 227.748 437.847 227.549C437.597 227.35 437.384 227.094 437.206 226.781C437.033 226.464 436.897 226.085 436.8 225.645C436.707 225.205 436.66 224.695 436.66 224.115V222.604C436.66 221.877 436.732 221.263 436.876 220.764C437.02 220.26 437.225 219.852 437.492 219.539C437.758 219.221 438.076 218.991 438.444 218.847C438.816 218.703 439.231 218.631 439.688 218.631C440.056 218.631 440.395 218.677 440.704 218.771C441.017 218.859 441.296 219.001 441.542 219.196C441.791 219.39 442.003 219.644 442.176 219.958C442.354 220.266 442.489 220.641 442.583 221.081C442.676 221.517 442.722 222.025 442.722 222.604ZM441.192 224.331V222.376C441.192 222.008 441.171 221.684 441.129 221.405C441.087 221.121 441.023 220.882 440.938 220.688C440.858 220.489 440.757 220.328 440.634 220.205C440.511 220.078 440.371 219.987 440.215 219.932C440.058 219.873 439.883 219.843 439.688 219.843C439.451 219.843 439.239 219.89 439.053 219.983C438.867 220.072 438.71 220.216 438.583 220.415C438.457 220.613 438.359 220.876 438.292 221.202C438.228 221.523 438.196 221.915 438.196 222.376V224.331C438.196 224.703 438.217 225.031 438.26 225.315C438.302 225.598 438.366 225.842 438.45 226.045C438.535 226.244 438.636 226.409 438.755 226.54C438.878 226.667 439.017 226.76 439.174 226.819C439.335 226.879 439.51 226.908 439.701 226.908C439.942 226.908 440.156 226.862 440.342 226.769C440.528 226.675 440.685 226.527 440.812 226.324C440.938 226.117 441.034 225.848 441.097 225.518C441.161 225.188 441.192 224.792 441.192 224.331Z" fill="#505050"/>
<path d="M473.486 218.726V228H471.957V220.542L469.69 221.31V220.046L473.302 218.726H473.486ZM480.875 218.726V228H479.345V220.542L477.079 221.31V220.046L480.691 218.726H480.875Z" fill="#286EF1"/>
<rect x="460.5" y="208.5" width="31" height="31" rx="15.5" stroke="#286EF1"/>
<path d="M513.486 218.726V228H511.957V220.542L509.69 221.31V220.046L513.302 218.726H513.486ZM522.894 226.781V228H516.698V226.953L519.707 223.671C520.037 223.299 520.297 222.977 520.488 222.706C520.678 222.435 520.812 222.192 520.888 221.976C520.968 221.756 521.008 221.542 521.008 221.335C521.008 221.043 520.953 220.787 520.843 220.567C520.737 220.343 520.581 220.167 520.374 220.04C520.166 219.909 519.914 219.843 519.618 219.843C519.275 219.843 518.988 219.917 518.755 220.065C518.522 220.214 518.347 220.419 518.228 220.681C518.11 220.939 518.05 221.236 518.05 221.57H516.521C516.521 221.032 516.643 220.542 516.889 220.097C517.134 219.649 517.49 219.293 517.955 219.031C518.421 218.764 518.981 218.631 519.637 218.631C520.255 218.631 520.78 218.735 521.211 218.942C521.643 219.149 521.971 219.443 522.195 219.824C522.424 220.205 522.538 220.656 522.538 221.176C522.538 221.464 522.492 221.75 522.398 222.033C522.305 222.317 522.172 222.6 521.999 222.884C521.829 223.163 521.628 223.444 521.396 223.728C521.163 224.007 520.907 224.291 520.627 224.579L518.628 226.781H522.894Z" fill="#505050"/>
<path d="M273.486 258.726V268H271.957V260.542L269.69 261.31V260.046L273.302 258.726H273.486ZM278.495 262.687H279.409C279.764 262.687 280.058 262.626 280.291 262.503C280.528 262.38 280.704 262.211 280.818 261.995C280.932 261.779 280.989 261.532 280.989 261.252C280.989 260.96 280.936 260.711 280.831 260.503C280.729 260.292 280.572 260.129 280.361 260.015C280.153 259.9 279.889 259.843 279.567 259.843C279.297 259.843 279.051 259.898 278.831 260.008C278.615 260.114 278.444 260.266 278.317 260.465C278.19 260.66 278.126 260.893 278.126 261.164H276.59C276.59 260.673 276.719 260.237 276.978 259.856C277.236 259.475 277.587 259.177 278.031 258.961C278.48 258.741 278.983 258.631 279.542 258.631C280.139 258.631 280.659 258.73 281.104 258.929C281.552 259.124 281.901 259.416 282.151 259.805C282.401 260.194 282.525 260.677 282.525 261.252C282.525 261.515 282.464 261.781 282.341 262.052C282.219 262.323 282.037 262.571 281.795 262.795C281.554 263.015 281.254 263.195 280.894 263.334C280.534 263.47 280.118 263.538 279.644 263.538H278.495V262.687ZM278.495 263.88V263.042H279.644C280.185 263.042 280.646 263.106 281.027 263.233C281.412 263.36 281.726 263.535 281.967 263.76C282.208 263.98 282.384 264.232 282.494 264.515C282.608 264.799 282.665 265.099 282.665 265.417C282.665 265.848 282.587 266.233 282.43 266.572C282.278 266.906 282.06 267.19 281.776 267.422C281.493 267.655 281.161 267.831 280.78 267.949C280.403 268.068 279.993 268.127 279.548 268.127C279.151 268.127 278.77 268.072 278.406 267.962C278.042 267.852 277.716 267.689 277.428 267.473C277.14 267.253 276.912 266.98 276.743 266.654C276.578 266.324 276.495 265.943 276.495 265.512H278.025C278.025 265.787 278.088 266.03 278.215 266.242C278.347 266.449 278.528 266.612 278.761 266.73C278.998 266.849 279.269 266.908 279.574 266.908C279.895 266.908 280.173 266.851 280.405 266.737C280.638 266.623 280.816 266.453 280.938 266.229C281.065 266.005 281.129 265.734 281.129 265.417C281.129 265.057 281.059 264.765 280.919 264.541C280.78 264.316 280.581 264.151 280.323 264.045C280.065 263.935 279.76 263.88 279.409 263.88H278.495Z" fill="#505050"/>
<path d="M313.486 258.726V268H311.957V260.542L309.69 261.31V260.046L313.302 258.726H313.486ZM323.065 264.706V265.924H316.4L316.349 265.004L320.335 258.758H321.561L320.234 261.03L317.942 264.706H323.065ZM321.91 258.758V268H320.38V258.758H321.91Z" fill="#505050"/>
<path d="M353.486 258.726V268H351.957V260.542L349.69 261.31V260.046L353.302 258.726H353.486ZM358.304 263.703L357.085 263.404L357.587 258.758H362.57V260.053H358.856L358.603 262.319C358.746 262.234 358.945 262.152 359.199 262.071C359.453 261.987 359.743 261.944 360.069 261.944C360.505 261.944 360.894 262.016 361.237 262.16C361.584 262.3 361.878 262.505 362.119 262.776C362.36 263.042 362.544 263.368 362.671 263.753C362.798 264.134 362.862 264.564 362.862 265.042C362.862 265.469 362.798 265.869 362.671 266.242C362.549 266.614 362.362 266.942 362.113 267.226C361.863 267.509 361.548 267.731 361.167 267.892C360.79 268.049 360.344 268.127 359.828 268.127C359.443 268.127 359.072 268.072 358.717 267.962C358.366 267.848 358.05 267.681 357.771 267.46C357.492 267.236 357.267 266.961 357.098 266.635C356.929 266.305 356.832 265.926 356.806 265.499H358.304C358.342 265.799 358.425 266.056 358.552 266.267C358.683 266.474 358.856 266.633 359.072 266.743C359.288 266.853 359.538 266.908 359.821 266.908C360.079 266.908 360.302 266.864 360.488 266.775C360.674 266.682 360.828 266.551 360.951 266.381C361.078 266.208 361.171 266.005 361.23 265.772C361.294 265.539 361.326 265.281 361.326 264.998C361.326 264.727 361.29 264.479 361.218 264.255C361.15 264.031 361.046 263.836 360.907 263.671C360.771 263.506 360.6 263.379 360.393 263.29C360.185 263.197 359.946 263.15 359.675 263.15C359.311 263.15 359.032 263.203 358.837 263.309C358.647 263.415 358.469 263.546 358.304 263.703Z" fill="#505050"/>
<path d="M393.486 258.726V268H391.957V260.542L389.69 261.31V260.046L393.302 258.726H393.486ZM401.319 258.701H401.51V259.951H401.402C400.856 259.951 400.384 260.036 399.986 260.205C399.593 260.374 399.269 260.607 399.015 260.903C398.761 261.2 398.571 261.547 398.444 261.944C398.321 262.338 398.26 262.757 398.26 263.201V264.655C398.26 265.023 398.3 265.349 398.38 265.632C398.461 265.912 398.573 266.146 398.717 266.337C398.865 266.523 399.034 266.665 399.225 266.762C399.415 266.86 399.62 266.908 399.84 266.908C400.069 266.908 400.276 266.862 400.462 266.769C400.649 266.671 400.807 266.538 400.938 266.369C401.07 266.199 401.169 265.998 401.237 265.766C401.305 265.533 401.338 265.279 401.338 265.004C401.338 264.742 401.305 264.496 401.237 264.268C401.173 264.035 401.078 263.832 400.951 263.658C400.824 263.48 400.666 263.343 400.475 263.246C400.289 263.144 400.073 263.093 399.828 263.093C399.523 263.093 399.246 263.165 398.996 263.309C398.751 263.453 398.552 263.641 398.399 263.874C398.251 264.103 398.171 264.346 398.158 264.604L397.574 264.414C397.608 264.02 397.695 263.667 397.834 263.354C397.978 263.04 398.167 262.774 398.399 262.554C398.632 262.334 398.901 262.167 399.206 262.052C399.514 261.934 399.853 261.875 400.221 261.875C400.67 261.875 401.059 261.959 401.389 262.128C401.719 262.298 401.992 262.528 402.208 262.82C402.428 263.108 402.591 263.438 402.697 263.811C402.807 264.179 402.862 264.564 402.862 264.966C402.862 265.41 402.794 265.825 402.659 266.21C402.523 266.591 402.324 266.925 402.062 267.213C401.804 267.501 401.489 267.725 401.116 267.886C400.748 268.047 400.329 268.127 399.859 268.127C399.364 268.127 398.922 268.032 398.533 267.841C398.148 267.651 397.82 267.389 397.549 267.054C397.282 266.72 397.079 266.335 396.939 265.899C396.8 265.463 396.73 265.002 396.73 264.515V263.88C396.73 263.178 396.819 262.516 396.997 261.894C397.174 261.267 397.447 260.715 397.815 260.237C398.188 259.759 398.664 259.384 399.244 259.113C399.823 258.838 400.515 258.701 401.319 258.701Z" fill="#505050"/>
<path d="M433.486 258.726V268H431.957V260.542L429.69 261.31V260.046L433.302 258.726H433.486ZM442.836 258.758V259.596L439.142 268H437.53L441.218 259.977H436.432V258.758H442.836Z" fill="#505050"/>
<path d="M473.486 258.726V268H471.957V260.542L469.69 261.31V260.046L473.302 258.726H473.486ZM482.741 265.48C482.741 266.056 482.608 266.54 482.341 266.934C482.075 267.327 481.711 267.625 481.25 267.829C480.792 268.028 480.276 268.127 479.701 268.127C479.125 268.127 478.607 268.028 478.146 267.829C477.684 267.625 477.32 267.327 477.054 266.934C476.787 266.54 476.654 266.056 476.654 265.48C476.654 265.099 476.728 264.754 476.876 264.445C477.024 264.132 477.234 263.863 477.504 263.639C477.779 263.411 478.101 263.235 478.469 263.112C478.842 262.99 479.248 262.928 479.688 262.928C480.272 262.928 480.795 263.036 481.256 263.252C481.717 263.468 482.079 263.766 482.341 264.147C482.608 264.528 482.741 264.972 482.741 265.48ZM481.205 265.404C481.205 265.095 481.142 264.824 481.015 264.591C480.888 264.359 480.71 264.179 480.481 264.052C480.253 263.925 479.988 263.861 479.688 263.861C479.383 263.861 479.119 263.925 478.895 264.052C478.67 264.179 478.495 264.359 478.368 264.591C478.245 264.824 478.184 265.095 478.184 265.404C478.184 265.717 478.245 265.988 478.368 266.216C478.49 266.441 478.666 266.612 478.895 266.73C479.123 266.849 479.392 266.908 479.701 266.908C480.01 266.908 480.276 266.849 480.5 266.73C480.725 266.612 480.898 266.441 481.021 266.216C481.144 265.988 481.205 265.717 481.205 265.404ZM482.532 261.189C482.532 261.65 482.409 262.061 482.164 262.42C481.922 262.78 481.588 263.064 481.161 263.271C480.733 263.474 480.247 263.576 479.701 263.576C479.151 263.576 478.66 263.474 478.228 263.271C477.801 263.064 477.464 262.78 477.219 262.42C476.978 262.061 476.857 261.65 476.857 261.189C476.857 260.639 476.978 260.175 477.219 259.799C477.464 259.418 477.801 259.128 478.228 258.929C478.655 258.73 479.144 258.631 479.694 258.631C480.244 258.631 480.733 258.73 481.161 258.929C481.588 259.128 481.922 259.418 482.164 259.799C482.409 260.175 482.532 260.639 482.532 261.189ZM481.002 261.24C481.002 260.965 480.947 260.723 480.837 260.516C480.731 260.305 480.581 260.139 480.386 260.021C480.192 259.903 479.961 259.843 479.694 259.843C479.428 259.843 479.197 259.9 479.002 260.015C478.808 260.129 478.658 260.29 478.552 260.497C478.446 260.704 478.393 260.952 478.393 261.24C478.393 261.523 478.446 261.771 478.552 261.982C478.658 262.19 478.808 262.353 479.002 262.471C479.201 262.59 479.434 262.649 479.701 262.649C479.967 262.649 480.198 262.59 480.393 262.471C480.587 262.353 480.737 262.19 480.843 261.982C480.949 261.771 481.002 261.523 481.002 261.24Z" fill="#505050"/>
<path d="M513.486 258.726V268H511.957V260.542L509.69 261.31V260.046L513.302 258.726H513.486ZM517.93 266.794H518.057C518.641 266.794 519.127 266.718 519.517 266.565C519.91 266.409 520.223 266.193 520.456 265.918C520.689 265.643 520.856 265.319 520.958 264.947C521.059 264.574 521.11 264.17 521.11 263.734V262.141C521.11 261.764 521.07 261.434 520.989 261.151C520.913 260.863 520.803 260.624 520.659 260.434C520.52 260.239 520.357 260.093 520.17 259.996C519.988 259.898 519.792 259.85 519.58 259.85C519.347 259.85 519.138 259.903 518.952 260.008C518.77 260.11 518.615 260.252 518.488 260.434C518.366 260.611 518.27 260.821 518.203 261.062C518.139 261.299 518.107 261.553 518.107 261.824C518.107 262.078 518.137 262.323 518.196 262.56C518.26 262.793 518.353 263 518.476 263.182C518.598 263.364 518.753 263.508 518.939 263.614C519.125 263.72 519.343 263.772 519.593 263.772C519.83 263.772 520.048 263.728 520.247 263.639C520.445 263.546 520.619 263.421 520.767 263.265C520.915 263.108 521.032 262.932 521.116 262.738C521.201 262.543 521.247 262.344 521.256 262.141L521.84 262.319C521.84 262.64 521.772 262.958 521.637 263.271C521.506 263.58 521.321 263.863 521.084 264.122C520.852 264.375 520.579 264.579 520.266 264.731C519.957 264.883 519.62 264.959 519.256 264.959C518.816 264.959 518.427 264.877 518.088 264.712C517.754 264.543 517.475 264.314 517.25 264.026C517.03 263.739 516.865 263.409 516.755 263.036C516.645 262.664 516.59 262.272 516.59 261.862C516.59 261.417 516.658 261.001 516.793 260.611C516.929 260.222 517.126 259.879 517.384 259.583C517.642 259.283 517.955 259.05 518.323 258.885C518.696 258.715 519.117 258.631 519.586 258.631C520.086 258.631 520.524 258.728 520.9 258.923C521.277 259.118 521.594 259.386 521.853 259.729C522.111 260.072 522.305 260.47 522.437 260.922C522.568 261.375 522.633 261.862 522.633 262.382V262.922C522.633 263.468 522.585 263.995 522.487 264.502C522.39 265.006 522.231 265.474 522.011 265.905C521.795 266.333 521.51 266.709 521.154 267.035C520.803 267.357 520.371 267.609 519.859 267.791C519.352 267.968 518.755 268.057 518.069 268.057H517.93V266.794Z" fill="#505050"/>
<path d="M275.505 306.781V308H269.31V306.953L272.318 303.671C272.648 303.299 272.909 302.977 273.099 302.706C273.29 302.435 273.423 302.192 273.499 301.976C273.579 301.756 273.62 301.542 273.62 301.335C273.62 301.043 273.565 300.787 273.455 300.567C273.349 300.343 273.192 300.167 272.985 300.04C272.778 299.909 272.526 299.843 272.229 299.843C271.887 299.843 271.599 299.917 271.366 300.065C271.133 300.214 270.958 300.419 270.839 300.681C270.721 300.939 270.662 301.236 270.662 301.57H269.132C269.132 301.032 269.255 300.542 269.5 300.097C269.745 299.649 270.101 299.293 270.566 299.031C271.032 298.764 271.593 298.631 272.249 298.631C272.866 298.631 273.391 298.735 273.823 298.942C274.254 299.149 274.582 299.443 274.807 299.824C275.035 300.205 275.149 300.656 275.149 301.176C275.149 301.464 275.103 301.75 275.01 302.033C274.917 302.317 274.783 302.6 274.61 302.884C274.441 303.163 274.24 303.444 274.007 303.728C273.774 304.007 273.518 304.291 273.239 304.579L271.239 306.781H275.505ZM282.722 302.604V304.115C282.722 304.839 282.65 305.457 282.506 305.969C282.367 306.477 282.164 306.889 281.897 307.207C281.63 307.524 281.311 307.757 280.938 307.905C280.57 308.053 280.158 308.127 279.701 308.127C279.337 308.127 278.998 308.08 278.685 307.987C278.376 307.894 278.097 307.748 277.847 307.549C277.597 307.35 277.384 307.094 277.206 306.781C277.033 306.464 276.897 306.085 276.8 305.645C276.707 305.205 276.66 304.695 276.66 304.115V302.604C276.66 301.877 276.732 301.263 276.876 300.764C277.02 300.26 277.225 299.852 277.492 299.539C277.758 299.221 278.076 298.991 278.444 298.847C278.816 298.703 279.231 298.631 279.688 298.631C280.056 298.631 280.395 298.677 280.704 298.771C281.017 298.859 281.296 299.001 281.542 299.196C281.791 299.39 282.003 299.644 282.176 299.958C282.354 300.266 282.489 300.641 282.583 301.081C282.676 301.517 282.722 302.025 282.722 302.604ZM281.192 304.331V302.376C281.192 302.008 281.171 301.684 281.129 301.405C281.087 301.121 281.023 300.882 280.938 300.688C280.858 300.489 280.757 300.328 280.634 300.205C280.511 300.078 280.371 299.987 280.215 299.932C280.058 299.873 279.883 299.843 279.688 299.843C279.451 299.843 279.239 299.89 279.053 299.983C278.867 300.072 278.71 300.216 278.583 300.415C278.457 300.613 278.359 300.876 278.292 301.202C278.228 301.523 278.196 301.915 278.196 302.376V304.331C278.196 304.703 278.217 305.031 278.26 305.315C278.302 305.598 278.366 305.842 278.45 306.045C278.535 306.244 278.636 306.409 278.755 306.54C278.878 306.667 279.017 306.76 279.174 306.819C279.335 306.879 279.51 306.908 279.701 306.908C279.942 306.908 280.156 306.862 280.342 306.769C280.528 306.675 280.685 306.527 280.812 306.324C280.938 306.117 281.034 305.848 281.097 305.518C281.161 305.188 281.192 304.792 281.192 304.331Z" fill="#505050"/>
<path d="M315.505 306.781V308H309.31V306.953L312.318 303.671C312.648 303.299 312.909 302.977 313.099 302.706C313.29 302.435 313.423 302.192 313.499 301.976C313.579 301.756 313.62 301.542 313.62 301.335C313.62 301.043 313.565 300.787 313.455 300.567C313.349 300.343 313.192 300.167 312.985 300.04C312.778 299.909 312.526 299.843 312.229 299.843C311.887 299.843 311.599 299.917 311.366 300.065C311.133 300.214 310.958 300.419 310.839 300.681C310.721 300.939 310.662 301.236 310.662 301.57H309.132C309.132 301.032 309.255 300.542 309.5 300.097C309.745 299.649 310.101 299.293 310.566 299.031C311.032 298.764 311.593 298.631 312.249 298.631C312.866 298.631 313.391 298.735 313.823 298.942C314.254 299.149 314.582 299.443 314.807 299.824C315.035 300.205 315.149 300.656 315.149 301.176C315.149 301.464 315.103 301.75 315.01 302.033C314.917 302.317 314.783 302.6 314.61 302.884C314.441 303.163 314.24 303.444 314.007 303.728C313.774 304.007 313.518 304.291 313.239 304.579L311.239 306.781H315.505ZM320.875 298.726V308H319.345V300.542L317.079 301.31V300.046L320.691 298.726H320.875Z" fill="#505050"/>
<path d="M355.505 306.781V308H349.31V306.953L352.318 303.671C352.648 303.299 352.909 302.977 353.099 302.706C353.29 302.435 353.423 302.192 353.499 301.976C353.579 301.756 353.62 301.542 353.62 301.335C353.62 301.043 353.565 300.787 353.455 300.567C353.349 300.343 353.192 300.167 352.985 300.04C352.778 299.909 352.526 299.843 352.229 299.843C351.887 299.843 351.599 299.917 351.366 300.065C351.133 300.214 350.958 300.419 350.839 300.681C350.721 300.939 350.662 301.236 350.662 301.57H349.132C349.132 301.032 349.255 300.542 349.5 300.097C349.745 299.649 350.101 299.293 350.566 299.031C351.032 298.764 351.593 298.631 352.249 298.631C352.866 298.631 353.391 298.735 353.823 298.942C354.254 299.149 354.582 299.443 354.807 299.824C355.035 300.205 355.149 300.656 355.149 301.176C355.149 301.464 355.103 301.75 355.01 302.033C354.917 302.317 354.783 302.6 354.61 302.884C354.441 303.163 354.24 303.444 354.007 303.728C353.774 304.007 353.518 304.291 353.239 304.579L351.239 306.781H355.505ZM362.894 306.781V308H356.698V306.953L359.707 303.671C360.037 303.299 360.297 302.977 360.488 302.706C360.678 302.435 360.812 302.192 360.888 301.976C360.968 301.756 361.008 301.542 361.008 301.335C361.008 301.043 360.953 300.787 360.843 300.567C360.737 300.343 360.581 300.167 360.374 300.04C360.166 299.909 359.914 299.843 359.618 299.843C359.275 299.843 358.988 299.917 358.755 300.065C358.522 300.214 358.347 300.419 358.228 300.681C358.11 300.939 358.05 301.236 358.05 301.57H356.521C356.521 301.032 356.643 300.542 356.889 300.097C357.134 299.649 357.49 299.293 357.955 299.031C358.421 298.764 358.981 298.631 359.637 298.631C360.255 298.631 360.78 298.735 361.211 298.942C361.643 299.149 361.971 299.443 362.195 299.824C362.424 300.205 362.538 300.656 362.538 301.176C362.538 301.464 362.492 301.75 362.398 302.033C362.305 302.317 362.172 302.6 361.999 302.884C361.829 303.163 361.628 303.444 361.396 303.728C361.163 304.007 360.907 304.291 360.627 304.579L358.628 306.781H362.894Z" fill="#505050"/>
<path d="M395.505 306.781V308H389.31V306.953L392.318 303.671C392.648 303.299 392.909 302.977 393.099 302.706C393.29 302.435 393.423 302.192 393.499 301.976C393.579 301.756 393.62 301.542 393.62 301.335C393.62 301.043 393.565 300.787 393.455 300.567C393.349 300.343 393.192 300.167 392.985 300.04C392.778 299.909 392.526 299.843 392.229 299.843C391.887 299.843 391.599 299.917 391.366 300.065C391.133 300.214 390.958 300.419 390.839 300.681C390.721 300.939 390.662 301.236 390.662 301.57H389.132C389.132 301.032 389.255 300.542 389.5 300.097C389.745 299.649 390.101 299.293 390.566 299.031C391.032 298.764 391.593 298.631 392.249 298.631C392.866 298.631 393.391 298.735 393.823 298.942C394.254 299.149 394.582 299.443 394.807 299.824C395.035 300.205 395.149 300.656 395.149 301.176C395.149 301.464 395.103 301.75 395.01 302.033C394.917 302.317 394.783 302.6 394.61 302.884C394.441 303.163 394.24 303.444 394.007 303.728C393.774 304.007 393.518 304.291 393.239 304.579L391.239 306.781H395.505ZM398.495 302.687H399.409C399.764 302.687 400.058 302.626 400.291 302.503C400.528 302.38 400.704 302.211 400.818 301.995C400.932 301.779 400.989 301.532 400.989 301.252C400.989 300.96 400.936 300.711 400.831 300.503C400.729 300.292 400.572 300.129 400.361 300.015C400.153 299.9 399.889 299.843 399.567 299.843C399.297 299.843 399.051 299.898 398.831 300.008C398.615 300.114 398.444 300.266 398.317 300.465C398.19 300.66 398.126 300.893 398.126 301.164H396.59C396.59 300.673 396.719 300.237 396.978 299.856C397.236 299.475 397.587 299.177 398.031 298.961C398.48 298.741 398.983 298.631 399.542 298.631C400.139 298.631 400.659 298.73 401.104 298.929C401.552 299.124 401.901 299.416 402.151 299.805C402.401 300.194 402.525 300.677 402.525 301.252C402.525 301.515 402.464 301.781 402.341 302.052C402.219 302.323 402.037 302.571 401.795 302.795C401.554 303.015 401.254 303.195 400.894 303.334C400.534 303.47 400.118 303.538 399.644 303.538H398.495V302.687ZM398.495 303.88V303.042H399.644C400.185 303.042 400.646 303.106 401.027 303.233C401.412 303.36 401.726 303.535 401.967 303.76C402.208 303.98 402.384 304.232 402.494 304.515C402.608 304.799 402.665 305.099 402.665 305.417C402.665 305.848 402.587 306.233 402.43 306.572C402.278 306.906 402.06 307.19 401.776 307.422C401.493 307.655 401.161 307.831 400.78 307.949C400.403 308.068 399.993 308.127 399.548 308.127C399.151 308.127 398.77 308.072 398.406 307.962C398.042 307.852 397.716 307.689 397.428 307.473C397.14 307.253 396.912 306.98 396.743 306.654C396.578 306.324 396.495 305.943 396.495 305.512H398.025C398.025 305.787 398.088 306.03 398.215 306.242C398.347 306.449 398.528 306.612 398.761 306.73C398.998 306.849 399.269 306.908 399.574 306.908C399.895 306.908 400.173 306.851 400.405 306.737C400.638 306.623 400.816 306.453 400.938 306.229C401.065 306.005 401.129 305.734 401.129 305.417C401.129 305.057 401.059 304.765 400.919 304.541C400.78 304.316 400.581 304.151 400.323 304.045C400.065 303.935 399.76 303.88 399.409 303.88H398.495Z" fill="#505050"/>
<path d="M435.505 306.781V308H429.31V306.953L432.318 303.671C432.648 303.299 432.909 302.977 433.099 302.706C433.29 302.435 433.423 302.192 433.499 301.976C433.579 301.756 433.62 301.542 433.62 301.335C433.62 301.043 433.565 300.787 433.455 300.567C433.349 300.343 433.192 300.167 432.985 300.04C432.778 299.909 432.526 299.843 432.229 299.843C431.887 299.843 431.599 299.917 431.366 300.065C431.133 300.214 430.958 300.419 430.839 300.681C430.721 300.939 430.662 301.236 430.662 301.57H429.132C429.132 301.032 429.255 300.542 429.5 300.097C429.745 299.649 430.101 299.293 430.566 299.031C431.032 298.764 431.593 298.631 432.249 298.631C432.866 298.631 433.391 298.735 433.823 298.942C434.254 299.149 434.582 299.443 434.807 299.824C435.035 300.205 435.149 300.656 435.149 301.176C435.149 301.464 435.103 301.75 435.01 302.033C434.917 302.317 434.783 302.6 434.61 302.884C434.441 303.163 434.24 303.444 434.007 303.728C433.774 304.007 433.518 304.291 433.239 304.579L431.239 306.781H435.505ZM443.065 304.706V305.924H436.4L436.349 305.004L440.335 298.758H441.561L440.234 301.03L437.942 304.706H443.065ZM441.91 298.758V308H440.38V298.758H441.91Z" fill="#505050"/>
<path d="M475.505 306.781V308H469.31V306.953L472.318 303.671C472.648 303.299 472.909 302.977 473.099 302.706C473.29 302.435 473.423 302.192 473.499 301.976C473.579 301.756 473.62 301.542 473.62 301.335C473.62 301.043 473.565 300.787 473.455 300.567C473.349 300.343 473.192 300.167 472.985 300.04C472.778 299.909 472.526 299.843 472.229 299.843C471.887 299.843 471.599 299.917 471.366 300.065C471.133 300.214 470.958 300.419 470.839 300.681C470.721 300.939 470.662 301.236 470.662 301.57H469.132C469.132 301.032 469.255 300.542 469.5 300.097C469.745 299.649 470.101 299.293 470.566 299.031C471.032 298.764 471.593 298.631 472.249 298.631C472.866 298.631 473.391 298.735 473.823 298.942C474.254 299.149 474.582 299.443 474.807 299.824C475.035 300.205 475.149 300.656 475.149 301.176C475.149 301.464 475.103 301.75 475.01 302.033C474.917 302.317 474.783 302.6 474.61 302.884C474.441 303.163 474.24 303.444 474.007 303.728C473.774 304.007 473.518 304.291 473.239 304.579L471.239 306.781H475.505ZM478.304 303.703L477.085 303.404L477.587 298.758H482.57V300.053H478.856L478.603 302.319C478.746 302.234 478.945 302.152 479.199 302.071C479.453 301.987 479.743 301.944 480.069 301.944C480.505 301.944 480.894 302.016 481.237 302.16C481.584 302.3 481.878 302.505 482.119 302.776C482.36 303.042 482.544 303.368 482.671 303.753C482.798 304.134 482.862 304.564 482.862 305.042C482.862 305.469 482.798 305.869 482.671 306.242C482.549 306.614 482.362 306.942 482.113 307.226C481.863 307.509 481.548 307.731 481.167 307.892C480.79 308.049 480.344 308.127 479.828 308.127C479.443 308.127 479.072 308.072 478.717 307.962C478.366 307.848 478.05 307.681 477.771 307.46C477.492 307.236 477.267 306.961 477.098 306.635C476.929 306.305 476.832 305.926 476.806 305.499H478.304C478.342 305.799 478.425 306.056 478.552 306.267C478.683 306.474 478.856 306.633 479.072 306.743C479.288 306.853 479.538 306.908 479.821 306.908C480.079 306.908 480.302 306.864 480.488 306.775C480.674 306.682 480.828 306.551 480.951 306.381C481.078 306.208 481.171 306.005 481.23 305.772C481.294 305.539 481.326 305.281 481.326 304.998C481.326 304.727 481.29 304.479 481.218 304.255C481.15 304.031 481.046 303.836 480.907 303.671C480.771 303.506 480.6 303.379 480.393 303.29C480.185 303.197 479.946 303.15 479.675 303.15C479.311 303.15 479.032 303.203 478.837 303.309C478.647 303.415 478.469 303.546 478.304 303.703Z" fill="#505050"/>
<path d="M515.505 306.781V308H509.31V306.953L512.318 303.671C512.648 303.299 512.909 302.977 513.099 302.706C513.29 302.435 513.423 302.192 513.499 301.976C513.579 301.756 513.62 301.542 513.62 301.335C513.62 301.043 513.565 300.787 513.455 300.567C513.349 300.343 513.192 300.167 512.985 300.04C512.778 299.909 512.526 299.843 512.229 299.843C511.887 299.843 511.599 299.917 511.366 300.065C511.133 300.214 510.958 300.419 510.839 300.681C510.721 300.939 510.662 301.236 510.662 301.57H509.132C509.132 301.032 509.255 300.542 509.5 300.097C509.745 299.649 510.101 299.293 510.566 299.031C511.032 298.764 511.593 298.631 512.249 298.631C512.866 298.631 513.391 298.735 513.823 298.942C514.254 299.149 514.582 299.443 514.807 299.824C515.035 300.205 515.149 300.656 515.149 301.176C515.149 301.464 515.103 301.75 515.01 302.033C514.917 302.317 514.783 302.6 514.61 302.884C514.441 303.163 514.24 303.444 514.007 303.728C513.774 304.007 513.518 304.291 513.239 304.579L511.239 306.781H515.505ZM521.319 298.701H521.51V299.951H521.402C520.856 299.951 520.384 300.036 519.986 300.205C519.593 300.374 519.269 300.607 519.015 300.903C518.761 301.2 518.571 301.547 518.444 301.944C518.321 302.338 518.26 302.757 518.26 303.201V304.655C518.26 305.023 518.3 305.349 518.38 305.632C518.461 305.912 518.573 306.146 518.717 306.337C518.865 306.523 519.034 306.665 519.225 306.762C519.415 306.86 519.62 306.908 519.84 306.908C520.069 306.908 520.276 306.862 520.462 306.769C520.649 306.671 520.807 306.538 520.938 306.369C521.07 306.199 521.169 305.998 521.237 305.766C521.305 305.533 521.338 305.279 521.338 305.004C521.338 304.742 521.305 304.496 521.237 304.268C521.173 304.035 521.078 303.832 520.951 303.658C520.824 303.48 520.666 303.343 520.475 303.246C520.289 303.144 520.073 303.093 519.828 303.093C519.523 303.093 519.246 303.165 518.996 303.309C518.751 303.453 518.552 303.641 518.399 303.874C518.251 304.103 518.171 304.346 518.158 304.604L517.574 304.414C517.608 304.02 517.695 303.667 517.834 303.354C517.978 303.04 518.167 302.774 518.399 302.554C518.632 302.334 518.901 302.167 519.206 302.052C519.514 301.934 519.853 301.875 520.221 301.875C520.67 301.875 521.059 301.959 521.389 302.128C521.719 302.298 521.992 302.528 522.208 302.82C522.428 303.108 522.591 303.438 522.697 303.811C522.807 304.179 522.862 304.564 522.862 304.966C522.862 305.41 522.794 305.825 522.659 306.21C522.523 306.591 522.324 306.925 522.062 307.213C521.804 307.501 521.489 307.725 521.116 307.886C520.748 308.047 520.329 308.127 519.859 308.127C519.364 308.127 518.922 308.032 518.533 307.841C518.148 307.651 517.82 307.389 517.549 307.054C517.282 306.72 517.079 306.335 516.939 305.899C516.8 305.463 516.73 305.002 516.73 304.515V303.88C516.73 303.178 516.819 302.516 516.997 301.894C517.174 301.267 517.447 300.715 517.815 300.237C518.188 299.759 518.664 299.384 519.244 299.113C519.823 298.838 520.515 298.701 521.319 298.701Z" fill="#505050"/>
<path d="M275.505 346.781V348H269.31V346.953L272.318 343.671C272.648 343.299 272.909 342.977 273.099 342.706C273.29 342.435 273.423 342.192 273.499 341.976C273.579 341.756 273.62 341.542 273.62 341.335C273.62 341.043 273.565 340.787 273.455 340.567C273.349 340.343 273.192 340.167 272.985 340.04C272.778 339.909 272.526 339.843 272.229 339.843C271.887 339.843 271.599 339.917 271.366 340.065C271.133 340.214 270.958 340.419 270.839 340.681C270.721 340.939 270.662 341.236 270.662 341.57H269.132C269.132 341.032 269.255 340.542 269.5 340.097C269.745 339.649 270.101 339.293 270.566 339.031C271.032 338.764 271.593 338.631 272.249 338.631C272.866 338.631 273.391 338.735 273.823 338.942C274.254 339.149 274.582 339.443 274.807 339.824C275.035 340.205 275.149 340.656 275.149 341.176C275.149 341.464 275.103 341.75 275.01 342.033C274.917 342.317 274.783 342.6 274.61 342.884C274.441 343.163 274.24 343.444 274.007 343.728C273.774 344.007 273.518 344.291 273.239 344.579L271.239 346.781H275.505ZM282.836 338.758V339.596L279.142 348H277.53L281.218 339.977H276.432V338.758H282.836Z" fill="#505050"/>
<path d="M315.505 346.781V348H309.31V346.953L312.318 343.671C312.648 343.299 312.909 342.977 313.099 342.706C313.29 342.435 313.423 342.192 313.499 341.976C313.579 341.756 313.62 341.542 313.62 341.335C313.62 341.043 313.565 340.787 313.455 340.567C313.349 340.343 313.192 340.167 312.985 340.04C312.778 339.909 312.526 339.843 312.229 339.843C311.887 339.843 311.599 339.917 311.366 340.065C311.133 340.214 310.958 340.419 310.839 340.681C310.721 340.939 310.662 341.236 310.662 341.57H309.132C309.132 341.032 309.255 340.542 309.5 340.097C309.745 339.649 310.101 339.293 310.566 339.031C311.032 338.764 311.593 338.631 312.249 338.631C312.866 338.631 313.391 338.735 313.823 338.942C314.254 339.149 314.582 339.443 314.807 339.824C315.035 340.205 315.149 340.656 315.149 341.176C315.149 341.464 315.103 341.75 315.01 342.033C314.917 342.317 314.783 342.6 314.61 342.884C314.441 343.163 314.24 343.444 314.007 343.728C313.774 344.007 313.518 344.291 313.239 344.579L311.239 346.781H315.505ZM322.741 345.48C322.741 346.056 322.608 346.54 322.341 346.934C322.075 347.327 321.711 347.625 321.25 347.829C320.792 348.028 320.276 348.127 319.701 348.127C319.125 348.127 318.607 348.028 318.146 347.829C317.684 347.625 317.32 347.327 317.054 346.934C316.787 346.54 316.654 346.056 316.654 345.48C316.654 345.099 316.728 344.754 316.876 344.445C317.024 344.132 317.234 343.863 317.504 343.639C317.779 343.411 318.101 343.235 318.469 343.112C318.842 342.99 319.248 342.928 319.688 342.928C320.272 342.928 320.795 343.036 321.256 343.252C321.717 343.468 322.079 343.766 322.341 344.147C322.608 344.528 322.741 344.972 322.741 345.48ZM321.205 345.404C321.205 345.095 321.142 344.824 321.015 344.591C320.888 344.359 320.71 344.179 320.481 344.052C320.253 343.925 319.988 343.861 319.688 343.861C319.383 343.861 319.119 343.925 318.895 344.052C318.67 344.179 318.495 344.359 318.368 344.591C318.245 344.824 318.184 345.095 318.184 345.404C318.184 345.717 318.245 345.988 318.368 346.216C318.49 346.441 318.666 346.612 318.895 346.73C319.123 346.849 319.392 346.908 319.701 346.908C320.01 346.908 320.276 346.849 320.5 346.73C320.725 346.612 320.898 346.441 321.021 346.216C321.144 345.988 321.205 345.717 321.205 345.404ZM322.532 341.189C322.532 341.65 322.409 342.061 322.164 342.42C321.922 342.78 321.588 343.064 321.161 343.271C320.733 343.474 320.247 343.576 319.701 343.576C319.151 343.576 318.66 343.474 318.228 343.271C317.801 343.064 317.464 342.78 317.219 342.42C316.978 342.061 316.857 341.65 316.857 341.189C316.857 340.639 316.978 340.175 317.219 339.799C317.464 339.418 317.801 339.128 318.228 338.929C318.655 338.73 319.144 338.631 319.694 338.631C320.244 338.631 320.733 338.73 321.161 338.929C321.588 339.128 321.922 339.418 322.164 339.799C322.409 340.175 322.532 340.639 322.532 341.189ZM321.002 341.24C321.002 340.965 320.947 340.723 320.837 340.516C320.731 340.305 320.581 340.139 320.386 340.021C320.192 339.903 319.961 339.843 319.694 339.843C319.428 339.843 319.197 339.9 319.002 340.015C318.808 340.129 318.658 340.29 318.552 340.497C318.446 340.704 318.393 340.952 318.393 341.24C318.393 341.523 318.446 341.771 318.552 341.982C318.658 342.19 318.808 342.353 319.002 342.471C319.201 342.59 319.434 342.649 319.701 342.649C319.967 342.649 320.198 342.59 320.393 342.471C320.587 342.353 320.737 342.19 320.843 341.982C320.949 341.771 321.002 341.523 321.002 341.24Z" fill="#505050"/>
<path d="M355.505 346.781V348H349.31V346.953L352.318 343.671C352.648 343.299 352.909 342.977 353.099 342.706C353.29 342.435 353.423 342.192 353.499 341.976C353.579 341.756 353.62 341.542 353.62 341.335C353.62 341.043 353.565 340.787 353.455 340.567C353.349 340.343 353.192 340.167 352.985 340.04C352.778 339.909 352.526 339.843 352.229 339.843C351.887 339.843 351.599 339.917 351.366 340.065C351.133 340.214 350.958 340.419 350.839 340.681C350.721 340.939 350.662 341.236 350.662 341.57H349.132C349.132 341.032 349.255 340.542 349.5 340.097C349.745 339.649 350.101 339.293 350.566 339.031C351.032 338.764 351.593 338.631 352.249 338.631C352.866 338.631 353.391 338.735 353.823 338.942C354.254 339.149 354.582 339.443 354.807 339.824C355.035 340.205 355.149 340.656 355.149 341.176C355.149 341.464 355.103 341.75 355.01 342.033C354.917 342.317 354.783 342.6 354.61 342.884C354.441 343.163 354.24 343.444 354.007 343.728C353.774 344.007 353.518 344.291 353.239 344.579L351.239 346.781H355.505ZM357.93 346.794H358.057C358.641 346.794 359.127 346.718 359.517 346.565C359.91 346.409 360.223 346.193 360.456 345.918C360.689 345.643 360.856 345.319 360.958 344.947C361.059 344.574 361.11 344.17 361.11 343.734V342.141C361.11 341.764 361.07 341.434 360.989 341.151C360.913 340.863 360.803 340.624 360.659 340.434C360.52 340.239 360.357 340.093 360.17 339.996C359.988 339.898 359.792 339.85 359.58 339.85C359.347 339.85 359.138 339.903 358.952 340.008C358.77 340.11 358.615 340.252 358.488 340.434C358.366 340.611 358.27 340.821 358.203 341.062C358.139 341.299 358.107 341.553 358.107 341.824C358.107 342.078 358.137 342.323 358.196 342.56C358.26 342.793 358.353 343 358.476 343.182C358.598 343.364 358.753 343.508 358.939 343.614C359.125 343.72 359.343 343.772 359.593 343.772C359.83 343.772 360.048 343.728 360.247 343.639C360.445 343.546 360.619 343.421 360.767 343.265C360.915 343.108 361.032 342.932 361.116 342.738C361.201 342.543 361.247 342.344 361.256 342.141L361.84 342.319C361.84 342.64 361.772 342.958 361.637 343.271C361.506 343.58 361.321 343.863 361.084 344.122C360.852 344.375 360.579 344.579 360.266 344.731C359.957 344.883 359.62 344.959 359.256 344.959C358.816 344.959 358.427 344.877 358.088 344.712C357.754 344.543 357.475 344.314 357.25 344.026C357.03 343.739 356.865 343.409 356.755 343.036C356.645 342.664 356.59 342.272 356.59 341.862C356.59 341.417 356.658 341.001 356.793 340.611C356.929 340.222 357.126 339.879 357.384 339.583C357.642 339.283 357.955 339.05 358.323 338.885C358.696 338.715 359.117 338.631 359.586 338.631C360.086 338.631 360.524 338.728 360.9 338.923C361.277 339.118 361.594 339.386 361.853 339.729C362.111 340.072 362.305 340.47 362.437 340.922C362.568 341.375 362.633 341.862 362.633 342.382V342.922C362.633 343.468 362.585 343.995 362.487 344.502C362.39 345.006 362.231 345.474 362.011 345.905C361.795 346.333 361.51 346.709 361.154 347.035C360.803 347.357 360.371 347.609 359.859 347.791C359.352 347.968 358.755 348.057 358.069 348.057H357.93V346.794Z" fill="#505050"/>
<path d="M391.106 342.687H392.02C392.375 342.687 392.67 342.626 392.902 342.503C393.139 342.38 393.315 342.211 393.429 341.995C393.543 341.779 393.601 341.532 393.601 341.252C393.601 340.96 393.548 340.711 393.442 340.503C393.34 340.292 393.184 340.129 392.972 340.015C392.765 339.9 392.5 339.843 392.179 339.843C391.908 339.843 391.662 339.898 391.442 340.008C391.227 340.114 391.055 340.266 390.928 340.465C390.801 340.66 390.738 340.893 390.738 341.164H389.202C389.202 340.673 389.331 340.237 389.589 339.856C389.847 339.475 390.198 339.177 390.643 338.961C391.091 338.741 391.595 338.631 392.153 338.631C392.75 338.631 393.271 338.73 393.715 338.929C394.163 339.124 394.513 339.416 394.762 339.805C395.012 340.194 395.137 340.677 395.137 341.252C395.137 341.515 395.075 341.781 394.953 342.052C394.83 342.323 394.648 342.571 394.407 342.795C394.166 343.015 393.865 343.195 393.505 343.334C393.146 343.47 392.729 343.538 392.255 343.538H391.106V342.687ZM391.106 343.88V343.042H392.255C392.797 343.042 393.258 343.106 393.639 343.233C394.024 343.36 394.337 343.535 394.578 343.76C394.819 343.98 394.995 344.232 395.105 344.515C395.219 344.799 395.276 345.099 395.276 345.417C395.276 345.848 395.198 346.233 395.042 346.572C394.889 346.906 394.671 347.19 394.388 347.422C394.104 347.655 393.772 347.831 393.391 347.949C393.014 348.068 392.604 348.127 392.16 348.127C391.762 348.127 391.381 348.072 391.017 347.962C390.653 347.852 390.327 347.689 390.04 347.473C389.752 347.253 389.523 346.98 389.354 346.654C389.189 346.324 389.106 345.943 389.106 345.512H390.636C390.636 345.787 390.7 346.03 390.827 346.242C390.958 346.449 391.14 346.612 391.373 346.73C391.61 346.849 391.88 346.908 392.185 346.908C392.507 346.908 392.784 346.851 393.017 346.737C393.249 346.623 393.427 346.453 393.55 346.229C393.677 346.005 393.74 345.734 393.74 345.417C393.74 345.057 393.67 344.765 393.531 344.541C393.391 344.316 393.192 344.151 392.934 344.045C392.676 343.935 392.371 343.88 392.02 343.88H391.106ZM402.722 342.604V344.115C402.722 344.839 402.65 345.457 402.506 345.969C402.367 346.477 402.164 346.889 401.897 347.207C401.63 347.524 401.311 347.757 400.938 347.905C400.57 348.053 400.158 348.127 399.701 348.127C399.337 348.127 398.998 348.08 398.685 347.987C398.376 347.894 398.097 347.748 397.847 347.549C397.597 347.35 397.384 347.094 397.206 346.781C397.033 346.464 396.897 346.085 396.8 345.645C396.707 345.205 396.66 344.695 396.66 344.115V342.604C396.66 341.877 396.732 341.263 396.876 340.764C397.02 340.26 397.225 339.852 397.492 339.539C397.758 339.221 398.076 338.991 398.444 338.847C398.816 338.703 399.231 338.631 399.688 338.631C400.056 338.631 400.395 338.677 400.704 338.771C401.017 338.859 401.296 339.001 401.542 339.196C401.791 339.39 402.003 339.644 402.176 339.958C402.354 340.266 402.489 340.641 402.583 341.081C402.676 341.517 402.722 342.025 402.722 342.604ZM401.192 344.331V342.376C401.192 342.008 401.171 341.684 401.129 341.405C401.087 341.121 401.023 340.882 400.938 340.688C400.858 340.489 400.757 340.328 400.634 340.205C400.511 340.078 400.371 339.987 400.215 339.932C400.058 339.873 399.883 339.843 399.688 339.843C399.451 339.843 399.239 339.89 399.053 339.983C398.867 340.072 398.71 340.216 398.583 340.415C398.457 340.613 398.359 340.876 398.292 341.202C398.228 341.523 398.196 341.915 398.196 342.376V344.331C398.196 344.703 398.217 345.031 398.26 345.315C398.302 345.598 398.366 345.842 398.45 346.045C398.535 346.244 398.636 346.409 398.755 346.54C398.878 346.667 399.017 346.76 399.174 346.819C399.335 346.879 399.51 346.908 399.701 346.908C399.942 346.908 400.156 346.862 400.342 346.769C400.528 346.675 400.685 346.527 400.812 346.324C400.938 346.117 401.034 345.848 401.097 345.518C401.161 345.188 401.192 344.792 401.192 344.331Z" fill="#505050"/>
<path d="M431.106 342.687H432.02C432.375 342.687 432.67 342.626 432.902 342.503C433.139 342.38 433.315 342.211 433.429 341.995C433.543 341.779 433.601 341.532 433.601 341.252C433.601 340.96 433.548 340.711 433.442 340.503C433.34 340.292 433.184 340.129 432.972 340.015C432.765 339.9 432.5 339.843 432.179 339.843C431.908 339.843 431.662 339.898 431.442 340.008C431.227 340.114 431.055 340.266 430.928 340.465C430.801 340.66 430.738 340.893 430.738 341.164H429.202C429.202 340.673 429.331 340.237 429.589 339.856C429.847 339.475 430.198 339.177 430.643 338.961C431.091 338.741 431.595 338.631 432.153 338.631C432.75 338.631 433.271 338.73 433.715 338.929C434.163 339.124 434.513 339.416 434.762 339.805C435.012 340.194 435.137 340.677 435.137 341.252C435.137 341.515 435.075 341.781 434.953 342.052C434.83 342.323 434.648 342.571 434.407 342.795C434.166 343.015 433.865 343.195 433.505 343.334C433.146 343.47 432.729 343.538 432.255 343.538H431.106V342.687ZM431.106 343.88V343.042H432.255C432.797 343.042 433.258 343.106 433.639 343.233C434.024 343.36 434.337 343.535 434.578 343.76C434.819 343.98 434.995 344.232 435.105 344.515C435.219 344.799 435.276 345.099 435.276 345.417C435.276 345.848 435.198 346.233 435.042 346.572C434.889 346.906 434.671 347.19 434.388 347.422C434.104 347.655 433.772 347.831 433.391 347.949C433.014 348.068 432.604 348.127 432.16 348.127C431.762 348.127 431.381 348.072 431.017 347.962C430.653 347.852 430.327 347.689 430.04 347.473C429.752 347.253 429.523 346.98 429.354 346.654C429.189 346.324 429.106 345.943 429.106 345.512H430.636C430.636 345.787 430.7 346.03 430.827 346.242C430.958 346.449 431.14 346.612 431.373 346.73C431.61 346.849 431.88 346.908 432.185 346.908C432.507 346.908 432.784 346.851 433.017 346.737C433.249 346.623 433.427 346.453 433.55 346.229C433.677 346.005 433.74 345.734 433.74 345.417C433.74 345.057 433.67 344.765 433.531 344.541C433.391 344.316 433.192 344.151 432.934 344.045C432.676 343.935 432.371 343.88 432.02 343.88H431.106ZM440.875 338.726V348H439.345V340.542L437.079 341.31V340.046L440.691 338.726H440.875Z" fill="#505050"/>
<path d="M477.181 338.726V348H475.651V340.542L473.385 341.31V340.046L476.997 338.726H477.181Z" fill="#AAAAAA"/>
<path d="M519.199 346.781V348H513.004V346.953L516.013 343.671C516.343 343.299 516.603 342.977 516.793 342.706C516.984 342.435 517.117 342.192 517.193 341.976C517.274 341.756 517.314 341.542 517.314 341.335C517.314 341.043 517.259 340.787 517.149 340.567C517.043 340.343 516.887 340.167 516.679 340.04C516.472 339.909 516.22 339.843 515.924 339.843C515.581 339.843 515.293 339.917 515.061 340.065C514.828 340.214 514.652 340.419 514.534 340.681C514.415 340.939 514.356 341.236 514.356 341.57H512.826C512.826 341.032 512.949 340.542 513.194 340.097C513.44 339.649 513.795 339.293 514.261 339.031C514.726 338.764 515.287 338.631 515.943 338.631C516.561 338.631 517.085 338.735 517.517 338.942C517.949 339.149 518.277 339.443 518.501 339.824C518.729 340.205 518.844 340.656 518.844 341.176C518.844 341.464 518.797 341.75 518.704 342.033C518.611 342.317 518.478 342.6 518.304 342.884C518.135 343.163 517.934 343.444 517.701 343.728C517.468 344.007 517.212 344.291 516.933 344.579L514.934 346.781H519.199Z" fill="#AAAAAA"/>
</g>
<rect x="201" y="88" width="24" height="24" rx="12" fill="#0059FF"/>
<path d="M216.199 102.781V104H210.004V102.953L213.013 99.6709C213.343 99.2985 213.603 98.9769 213.793 98.7061C213.984 98.4352 214.117 98.1919 214.193 97.9761C214.274 97.756 214.314 97.5423 214.314 97.335C214.314 97.043 214.259 96.7869 214.149 96.5669C214.043 96.3426 213.887 96.167 213.679 96.04C213.472 95.9089 213.22 95.8433 212.924 95.8433C212.581 95.8433 212.293 95.9173 212.061 96.0654C211.828 96.2135 211.652 96.4188 211.534 96.6812C211.415 96.9393 211.356 97.2355 211.356 97.5698H209.826C209.826 97.0324 209.949 96.5415 210.194 96.0972C210.44 95.6486 210.795 95.2931 211.261 95.0308C211.726 94.7642 212.287 94.6309 212.943 94.6309C213.561 94.6309 214.085 94.7345 214.517 94.9419C214.949 95.1493 215.277 95.4434 215.501 95.8242C215.729 96.2051 215.844 96.6558 215.844 97.1763C215.844 97.464 215.797 97.7497 215.704 98.0332C215.611 98.3167 215.478 98.6003 215.304 98.8838C215.135 99.1631 214.934 99.4445 214.701 99.728C214.468 100.007 214.212 100.291 213.933 100.579L211.934 102.781H216.199Z" fill="white"/>
<line x1="225" y1="99.5" x2="265" y2="99.5" stroke="#0059FF"/>
<rect x="193" y="132" width="24" height="24" rx="12" fill="#0059FF"/>
<path d="M203.8 142.687H204.714C205.07 142.687 205.364 142.626 205.597 142.503C205.834 142.38 206.009 142.211 206.124 141.995C206.238 141.779 206.295 141.532 206.295 141.252C206.295 140.96 206.242 140.711 206.136 140.503C206.035 140.292 205.878 140.129 205.667 140.015C205.459 139.9 205.195 139.843 204.873 139.843C204.602 139.843 204.357 139.898 204.137 140.008C203.921 140.114 203.75 140.266 203.623 140.465C203.496 140.66 203.432 140.893 203.432 141.164H201.896C201.896 140.673 202.025 140.237 202.283 139.856C202.541 139.475 202.893 139.177 203.337 138.961C203.785 138.741 204.289 138.631 204.848 138.631C205.444 138.631 205.965 138.73 206.409 138.929C206.858 139.124 207.207 139.416 207.457 139.805C207.706 140.194 207.831 140.677 207.831 141.252C207.831 141.515 207.77 141.781 207.647 142.052C207.524 142.323 207.342 142.571 207.101 142.795C206.86 143.015 206.559 143.195 206.2 143.334C205.84 143.47 205.423 143.538 204.949 143.538H203.8V142.687ZM203.8 143.88V143.042H204.949C205.491 143.042 205.952 143.106 206.333 143.233C206.718 143.36 207.031 143.535 207.272 143.76C207.514 143.98 207.689 144.232 207.799 144.515C207.914 144.799 207.971 145.099 207.971 145.417C207.971 145.848 207.892 146.233 207.736 146.572C207.583 146.906 207.366 147.19 207.082 147.422C206.799 147.655 206.466 147.831 206.085 147.949C205.709 148.068 205.298 148.127 204.854 148.127C204.456 148.127 204.075 148.072 203.711 147.962C203.347 147.852 203.022 147.689 202.734 147.473C202.446 147.253 202.218 146.98 202.048 146.654C201.883 146.324 201.801 145.943 201.801 145.512H203.331C203.331 145.787 203.394 146.03 203.521 146.242C203.652 146.449 203.834 146.612 204.067 146.73C204.304 146.849 204.575 146.908 204.879 146.908C205.201 146.908 205.478 146.851 205.711 146.737C205.944 146.623 206.121 146.453 206.244 146.229C206.371 146.005 206.435 145.734 206.435 145.417C206.435 145.057 206.365 144.765 206.225 144.541C206.085 144.316 205.887 144.151 205.628 144.045C205.37 143.935 205.066 143.88 204.714 143.88H203.8Z" fill="white"/>
<line x1="217" y1="143.5" x2="257" y2="143.5" stroke="#0059FF"/>
<rect x="201" y="212" width="24" height="24" rx="12" fill="#0059FF"/>
<path d="M216.371 224.706V225.924H209.706L209.655 225.004L213.641 218.758H214.866L213.54 221.03L211.248 224.706H216.371ZM215.215 218.758V228H213.686V218.758H215.215Z" fill="white"/>
<line x1="225" y1="223.5" x2="265" y2="223.5" stroke="#0059FF"/>
<rect x="385" y="20" width="24" height="24" rx="12" fill="#0059FF"/>
<path d="M398.181 26.7261V36H396.651V28.5415L394.385 29.3096V28.0464L397.997 26.7261H398.181Z" fill="white"/>
<line x1="396.5" y1="84" x2="396.5" y2="44" stroke="#0059FF"/>
<defs>
<filter id="filter0_ddd_7306_78075" x="240" y="61" width="312" height="321" filterUnits="userSpaceOnUse" color-interpolation-filters="sRGB">
<feFlood flood-opacity="0" result="BackgroundImageFix"/>
<feColorMatrix in="SourceAlpha" type="matrix" values="0 0 0 0 0 0 0 0 0 0 0 0 0 0 0 0 0 0 127 0" result="hardAlpha"/>
<feOffset dy="2"/>
<feGaussianBlur stdDeviation="2"/>
<feColorMatrix type="matrix" values="0 0 0 0 0.45098 0 0 0 0 0.45098 0 0 0 0 0.45098 0 0 0 0.1 0"/>
<feBlend mode="normal" in2="BackgroundImageFix" result="effect1_dropShadow_7306_78075"/>
<feColorMatrix in="SourceAlpha" type="matrix" values="0 0 0 0 0 0 0 0 0 0 0 0 0 0 0 0 0 0 127 0" result="hardAlpha"/>
<feOffset dy="1"/>
<feGaussianBlur stdDeviation="8"/>
<feColorMatrix type="matrix" values="0 0 0 0 0.45098 0 0 0 0 0.45098 0 0 0 0 0.45098 0 0 0 0.05 0"/>
<feBlend mode="normal" in2="effect1_dropShadow_7306_78075" result="effect2_dropShadow_7306_78075"/>
<feColorMatrix in="SourceAlpha" type="matrix" values="0 0 0 0 0 0 0 0 0 0 0 0 0 0 0 0 0 0 127 0" result="hardAlpha"/>
<feOffset dy="6"/>
<feGaussianBlur stdDeviation="6"/>
<feColorMatrix type="matrix" values="0 0 0 0 0.45098 0 0 0 0 0.45098 0 0 0 0 0.45098 0 0 0 0.08 0"/>
<feBlend mode="normal" in2="effect2_dropShadow_7306_78075" result="effect3_dropShadow_7306_78075"/>
<feBlend mode="normal" in="SourceGraphic" in2="effect3_dropShadow_7306_78075" result="shape"/>
</filter>
<clipPath id="clip0_7306_78075">
<rect width="280" height="40" fill="white" transform="translate(256 124)"/>
</clipPath>
</defs>
</svg>
