<svg width="1280" height="236" viewBox="0 0 1280 236" fill="none" xmlns="http://www.w3.org/2000/svg">
<g clip-path="url(#clip0_7327_84037)">
<rect width="1280" height="236" rx="16" fill="white"/>
<g clip-path="url(#clip1_7327_84037)">
<rect width="640" height="64" fill="#F8F8F8"/>
<path d="M45.4219 31.8594H42.5234L42.5078 30.4297H45.0391C45.4661 30.4297 45.8281 30.3672 46.125 30.2422C46.4271 30.112 46.6562 29.9271 46.8125 29.6875C46.9688 29.4427 47.0469 29.1484 47.0469 28.8047C47.0469 28.4245 46.974 28.1146 46.8281 27.875C46.6823 27.6354 46.4583 27.4609 46.1562 27.3516C45.8594 27.2422 45.4792 27.1875 45.0156 27.1875H43.1172V37H41.1562V25.625H45.0156C45.6406 25.625 46.1979 25.6849 46.6875 25.8047C47.1823 25.9245 47.6016 26.112 47.9453 26.3672C48.2943 26.6172 48.5573 26.9349 48.7344 27.3203C48.9167 27.7057 49.0078 28.1641 49.0078 28.6953C49.0078 29.1641 48.8958 29.5938 48.6719 29.9844C48.4479 30.3698 48.1172 30.6849 47.6797 30.9297C47.2422 31.1745 46.6979 31.3203 46.0469 31.3672L45.4219 31.8594ZM45.3359 37H41.9062L42.7891 35.4453H45.3359C45.7786 35.4453 46.1484 35.3724 46.4453 35.2266C46.7422 35.0755 46.9635 34.8698 47.1094 34.6094C47.2604 34.3438 47.3359 34.0339 47.3359 33.6797C47.3359 33.3099 47.2708 32.9896 47.1406 32.7188C47.0104 32.4427 46.8047 32.2318 46.5234 32.0859C46.2422 31.9349 45.875 31.8594 45.4219 31.8594H43.2188L43.2344 30.4297H46.1016L46.5469 30.9688C47.1719 30.9896 47.6849 31.1276 48.0859 31.3828C48.4922 31.638 48.7943 31.9688 48.9922 32.375C49.1901 32.7812 49.2891 33.2188 49.2891 33.6875C49.2891 34.4115 49.1302 35.0182 48.8125 35.5078C48.5 35.9974 48.0495 36.3698 47.4609 36.625C46.8724 36.875 46.1641 37 45.3359 37ZM56.1641 35.0078V28.5469H58.0547V37H56.2734L56.1641 35.0078ZM56.4297 33.25L57.0625 33.2344C57.0625 33.8021 57 34.3255 56.875 34.8047C56.75 35.2786 56.5573 35.6927 56.2969 36.0469C56.0365 36.3958 55.7031 36.6693 55.2969 36.8672C54.8906 37.0599 54.4036 37.1562 53.8359 37.1562C53.4245 37.1562 53.0469 37.0964 52.7031 36.9766C52.3594 36.8568 52.0625 36.6719 51.8125 36.4219C51.5677 36.1719 51.3776 35.8464 51.2422 35.4453C51.1068 35.0443 51.0391 34.5651 51.0391 34.0078V28.5469H52.9219V34.0234C52.9219 34.3307 52.9583 34.5885 53.0312 34.7969C53.1042 35 53.2031 35.1641 53.3281 35.2891C53.4531 35.4141 53.599 35.5026 53.7656 35.5547C53.9323 35.6068 54.1094 35.6328 54.2969 35.6328C54.8333 35.6328 55.2552 35.5286 55.5625 35.3203C55.875 35.1068 56.0964 34.8203 56.2266 34.4609C56.362 34.1016 56.4297 33.6979 56.4297 33.25ZM63.8594 28.5469V29.9219H59.0938V28.5469H63.8594ZM60.4688 26.4766H62.3516V34.6641C62.3516 34.9245 62.388 35.125 62.4609 35.2656C62.5391 35.401 62.6458 35.4922 62.7812 35.5391C62.9167 35.5859 63.0755 35.6094 63.2578 35.6094C63.388 35.6094 63.513 35.6016 63.6328 35.5859C63.7526 35.5703 63.849 35.5547 63.9219 35.5391L63.9297 36.9766C63.7734 37.0234 63.5911 37.0651 63.3828 37.1016C63.1797 37.138 62.9453 37.1562 62.6797 37.1562C62.2474 37.1562 61.8646 37.0807 61.5312 36.9297C61.1979 36.7734 60.9375 36.5208 60.75 36.1719C60.5625 35.8229 60.4688 35.3594 60.4688 34.7812V26.4766ZM69.1875 28.5469V29.9219H64.4219V28.5469H69.1875ZM65.7969 26.4766H67.6797V34.6641C67.6797 34.9245 67.7161 35.125 67.7891 35.2656C67.8672 35.401 67.974 35.4922 68.1094 35.5391C68.2448 35.5859 68.4036 35.6094 68.5859 35.6094C68.7161 35.6094 68.8411 35.6016 68.9609 35.5859C69.0807 35.5703 69.1771 35.5547 69.25 35.5391L69.2578 36.9766C69.1016 37.0234 68.9193 37.0651 68.7109 37.1016C68.5078 37.138 68.2734 37.1562 68.0078 37.1562C67.5755 37.1562 67.1927 37.0807 66.8594 36.9297C66.526 36.7734 66.2656 36.5208 66.0781 36.1719C65.8906 35.8229 65.7969 35.3594 65.7969 34.7812V26.4766ZM70.0938 32.8672V32.6875C70.0938 32.0781 70.1823 31.513 70.3594 30.9922C70.5365 30.4661 70.7917 30.0104 71.125 29.625C71.4635 29.2344 71.875 28.9323 72.3594 28.7188C72.849 28.5 73.401 28.3906 74.0156 28.3906C74.6354 28.3906 75.1875 28.5 75.6719 28.7188C76.1615 28.9323 76.5755 29.2344 76.9141 29.625C77.2526 30.0104 77.5104 30.4661 77.6875 30.9922C77.8646 31.513 77.9531 32.0781 77.9531 32.6875V32.8672C77.9531 33.4766 77.8646 34.0417 77.6875 34.5625C77.5104 35.0833 77.2526 35.5391 76.9141 35.9297C76.5755 36.3151 76.1641 36.6172 75.6797 36.8359C75.1953 37.0495 74.6458 37.1562 74.0312 37.1562C73.4115 37.1562 72.8568 37.0495 72.3672 36.8359C71.8828 36.6172 71.4714 36.3151 71.1328 35.9297C70.7943 35.5391 70.5365 35.0833 70.3594 34.5625C70.1823 34.0417 70.0938 33.4766 70.0938 32.8672ZM71.9766 32.6875V32.8672C71.9766 33.2474 72.0156 33.6068 72.0938 33.9453C72.1719 34.2839 72.2943 34.5807 72.4609 34.8359C72.6276 35.0911 72.8411 35.2917 73.1016 35.4375C73.362 35.5833 73.6719 35.6562 74.0312 35.6562C74.3802 35.6562 74.6823 35.5833 74.9375 35.4375C75.1979 35.2917 75.4115 35.0911 75.5781 34.8359C75.7448 34.5807 75.8672 34.2839 75.9453 33.9453C76.0286 33.6068 76.0703 33.2474 76.0703 32.8672V32.6875C76.0703 32.3125 76.0286 31.9583 75.9453 31.625C75.8672 31.2865 75.7422 30.987 75.5703 30.7266C75.4036 30.4661 75.1901 30.263 74.9297 30.1172C74.6745 29.9661 74.3698 29.8906 74.0156 29.8906C73.6615 29.8906 73.3542 29.9661 73.0938 30.1172C72.8385 30.263 72.6276 30.4661 72.4609 30.7266C72.2943 30.987 72.1719 31.2865 72.0938 31.625C72.0156 31.9583 71.9766 32.3125 71.9766 32.6875ZM81.3984 30.3516V37H79.5156V28.5469H81.2891L81.3984 30.3516ZM81.0625 32.4609L80.4531 32.4531C80.4583 31.8542 80.5417 31.3047 80.7031 30.8047C80.8698 30.3047 81.099 29.875 81.3906 29.5156C81.6875 29.1562 82.0417 28.8802 82.4531 28.6875C82.8646 28.4896 83.3229 28.3906 83.8281 28.3906C84.2344 28.3906 84.6016 28.4479 84.9297 28.5625C85.263 28.6719 85.5469 28.8516 85.7812 29.1016C86.0208 29.3516 86.2031 29.6771 86.3281 30.0781C86.4531 30.474 86.5156 30.9609 86.5156 31.5391V37H84.625V31.5312C84.625 31.125 84.5651 30.8047 84.4453 30.5703C84.3307 30.3307 84.1615 30.1615 83.9375 30.0625C83.7188 29.9583 83.4453 29.9062 83.1172 29.9062C82.7943 29.9062 82.5052 29.974 82.25 30.1094C81.9948 30.2448 81.7786 30.4297 81.6016 30.6641C81.4297 30.8984 81.2969 31.1693 81.2031 31.4766C81.1094 31.7839 81.0625 32.112 81.0625 32.4609ZM98.9922 25.625H100.945V33.2266C100.945 34.0911 100.758 34.8151 100.383 35.3984C100.008 35.9818 99.4974 36.4219 98.8516 36.7188C98.2109 37.0104 97.4948 37.1562 96.7031 37.1562C95.8854 37.1562 95.1562 37.0104 94.5156 36.7188C93.875 36.4219 93.3698 35.9818 93 35.3984C92.6354 34.8151 92.4531 34.0911 92.4531 33.2266V25.625H94.4062V33.2266C94.4062 33.7734 94.5 34.224 94.6875 34.5781C94.875 34.9271 95.1406 35.1849 95.4844 35.3516C95.8281 35.5182 96.2344 35.6016 96.7031 35.6016C97.1719 35.6016 97.5755 35.5182 97.9141 35.3516C98.2578 35.1849 98.5234 34.9271 98.7109 34.5781C98.8984 34.224 98.9922 33.7734 98.9922 33.2266V25.625ZM104.781 30.1719V40.25H102.898V28.5469H104.633L104.781 30.1719ZM110.289 32.6953V32.8594C110.289 33.474 110.216 34.0443 110.07 34.5703C109.93 35.0911 109.719 35.5469 109.438 35.9375C109.161 36.3229 108.82 36.6224 108.414 36.8359C108.008 37.0495 107.539 37.1562 107.008 37.1562C106.482 37.1562 106.021 37.0599 105.625 36.8672C105.234 36.6693 104.904 36.3906 104.633 36.0312C104.362 35.6719 104.143 35.25 103.977 34.7656C103.815 34.276 103.701 33.7396 103.633 33.1562V32.5234C103.701 31.9036 103.815 31.3411 103.977 30.8359C104.143 30.3307 104.362 29.8958 104.633 29.5312C104.904 29.1667 105.234 28.8854 105.625 28.6875C106.016 28.4896 106.471 28.3906 106.992 28.3906C107.523 28.3906 107.995 28.4948 108.406 28.7031C108.818 28.9062 109.164 29.1979 109.445 29.5781C109.727 29.9531 109.938 30.4062 110.078 30.9375C110.219 31.4635 110.289 32.0495 110.289 32.6953ZM108.406 32.8594V32.6953C108.406 32.3047 108.37 31.9427 108.297 31.6094C108.224 31.2708 108.109 30.974 107.953 30.7188C107.797 30.4635 107.596 30.2656 107.352 30.125C107.112 29.9792 106.823 29.9062 106.484 29.9062C106.151 29.9062 105.865 29.9635 105.625 30.0781C105.385 30.1875 105.185 30.3411 105.023 30.5391C104.862 30.737 104.737 30.9688 104.648 31.2344C104.56 31.4948 104.497 31.7786 104.461 32.0859V33.6016C104.523 33.9766 104.63 34.3203 104.781 34.6328C104.932 34.9453 105.146 35.1953 105.422 35.3828C105.703 35.5651 106.062 35.6562 106.5 35.6562C106.839 35.6562 107.128 35.5833 107.367 35.4375C107.607 35.2917 107.802 35.0911 107.953 34.8359C108.109 34.5755 108.224 34.276 108.297 33.9375C108.37 33.599 108.406 33.2396 108.406 32.8594ZM113.906 25V37H112.016V25H113.906ZM115.609 32.8672V32.6875C115.609 32.0781 115.698 31.513 115.875 30.9922C116.052 30.4661 116.307 30.0104 116.641 29.625C116.979 29.2344 117.391 28.9323 117.875 28.7188C118.365 28.5 118.917 28.3906 119.531 28.3906C120.151 28.3906 120.703 28.5 121.188 28.7188C121.677 28.9323 122.091 29.2344 122.43 29.625C122.768 30.0104 123.026 30.4661 123.203 30.9922C123.38 31.513 123.469 32.0781 123.469 32.6875V32.8672C123.469 33.4766 123.38 34.0417 123.203 34.5625C123.026 35.0833 122.768 35.5391 122.43 35.9297C122.091 36.3151 121.68 36.6172 121.195 36.8359C120.711 37.0495 120.161 37.1562 119.547 37.1562C118.927 37.1562 118.372 37.0495 117.883 36.8359C117.398 36.6172 116.987 36.3151 116.648 35.9297C116.31 35.5391 116.052 35.0833 115.875 34.5625C115.698 34.0417 115.609 33.4766 115.609 32.8672ZM117.492 32.6875V32.8672C117.492 33.2474 117.531 33.6068 117.609 33.9453C117.688 34.2839 117.81 34.5807 117.977 34.8359C118.143 35.0911 118.357 35.2917 118.617 35.4375C118.878 35.5833 119.188 35.6562 119.547 35.6562C119.896 35.6562 120.198 35.5833 120.453 35.4375C120.714 35.2917 120.927 35.0911 121.094 34.8359C121.26 34.5807 121.383 34.2839 121.461 33.9453C121.544 33.6068 121.586 33.2474 121.586 32.8672V32.6875C121.586 32.3125 121.544 31.9583 121.461 31.625C121.383 31.2865 121.258 30.987 121.086 30.7266C120.919 30.4661 120.706 30.263 120.445 30.1172C120.19 29.9661 119.885 29.8906 119.531 29.8906C119.177 29.8906 118.87 29.9661 118.609 30.1172C118.354 30.263 118.143 30.4661 117.977 30.7266C117.81 30.987 117.688 31.2865 117.609 31.625C117.531 31.9583 117.492 32.3125 117.492 32.6875ZM129.812 35.3047V31.2734C129.812 30.9714 129.758 30.7109 129.648 30.4922C129.539 30.2734 129.372 30.1042 129.148 29.9844C128.93 29.8646 128.654 29.8047 128.32 29.8047C128.013 29.8047 127.747 29.8568 127.523 29.9609C127.299 30.0651 127.125 30.2057 127 30.3828C126.875 30.5599 126.812 30.7604 126.812 30.9844H124.938C124.938 30.651 125.018 30.3281 125.18 30.0156C125.341 29.7031 125.576 29.4245 125.883 29.1797C126.19 28.9349 126.557 28.7422 126.984 28.6016C127.411 28.4609 127.891 28.3906 128.422 28.3906C129.057 28.3906 129.62 28.4974 130.109 28.7109C130.604 28.9245 130.992 29.2474 131.273 29.6797C131.56 30.1068 131.703 30.6432 131.703 31.2891V35.0469C131.703 35.4323 131.729 35.7786 131.781 36.0859C131.839 36.388 131.919 36.651 132.023 36.875V37H130.094C130.005 36.7969 129.935 36.5391 129.883 36.2266C129.836 35.9089 129.812 35.6016 129.812 35.3047ZM130.086 31.8594L130.102 33.0234H128.75C128.401 33.0234 128.094 33.0573 127.828 33.125C127.562 33.1875 127.341 33.2812 127.164 33.4062C126.987 33.5312 126.854 33.6823 126.766 33.8594C126.677 34.0365 126.633 34.237 126.633 34.4609C126.633 34.6849 126.685 34.8906 126.789 35.0781C126.893 35.2604 127.044 35.4036 127.242 35.5078C127.445 35.612 127.69 35.6641 127.977 35.6641C128.362 35.6641 128.698 35.5859 128.984 35.4297C129.276 35.2682 129.505 35.0729 129.672 34.8438C129.839 34.6094 129.927 34.388 129.938 34.1797L130.547 35.0156C130.484 35.2292 130.378 35.4583 130.227 35.7031C130.076 35.9479 129.878 36.1823 129.633 36.4062C129.393 36.625 129.104 36.8047 128.766 36.9453C128.432 37.0859 128.047 37.1562 127.609 37.1562C127.057 37.1562 126.565 37.0469 126.133 36.8281C125.701 36.6042 125.362 36.3047 125.117 35.9297C124.872 35.5495 124.75 35.1198 124.75 34.6406C124.75 34.1927 124.833 33.7969 125 33.4531C125.172 33.1042 125.422 32.8125 125.75 32.5781C126.083 32.3438 126.49 32.1667 126.969 32.0469C127.448 31.9219 127.995 31.8594 128.609 31.8594H130.086ZM138.828 35.25V25H140.719V37H139.008L138.828 35.25ZM133.328 32.8672V32.7031C133.328 32.0625 133.404 31.4792 133.555 30.9531C133.706 30.4219 133.924 29.9661 134.211 29.5859C134.497 29.2005 134.846 28.9062 135.258 28.7031C135.669 28.4948 136.133 28.3906 136.648 28.3906C137.159 28.3906 137.607 28.4896 137.992 28.6875C138.378 28.8854 138.706 29.1693 138.977 29.5391C139.247 29.9036 139.464 30.3411 139.625 30.8516C139.786 31.3568 139.901 31.9193 139.969 32.5391V33.0625C139.901 33.6667 139.786 34.2188 139.625 34.7188C139.464 35.2188 139.247 35.651 138.977 36.0156C138.706 36.3802 138.375 36.6615 137.984 36.8594C137.599 37.0573 137.148 37.1562 136.633 37.1562C136.122 37.1562 135.661 37.0495 135.25 36.8359C134.844 36.6224 134.497 36.3229 134.211 35.9375C133.924 35.5521 133.706 35.099 133.555 34.5781C133.404 34.0521 133.328 33.4818 133.328 32.8672ZM135.211 32.7031V32.8672C135.211 33.2526 135.245 33.612 135.312 33.9453C135.385 34.2786 135.497 34.5729 135.648 34.8281C135.799 35.0781 135.995 35.276 136.234 35.4219C136.479 35.5625 136.771 35.6328 137.109 35.6328C137.536 35.6328 137.888 35.5391 138.164 35.3516C138.44 35.1641 138.656 34.9115 138.812 34.5938C138.974 34.2708 139.083 33.9115 139.141 33.5156V32.1016C139.109 31.7943 139.044 31.5078 138.945 31.2422C138.852 30.9766 138.724 30.7448 138.562 30.5469C138.401 30.3438 138.201 30.1875 137.961 30.0781C137.727 29.9635 137.448 29.9062 137.125 29.9062C136.781 29.9062 136.49 29.9792 136.25 30.125C136.01 30.2708 135.812 30.4714 135.656 30.7266C135.505 30.9818 135.393 31.2786 135.32 31.6172C135.247 31.9557 135.211 32.3177 135.211 32.7031Z" fill="#1A1A1A"/>
<path d="M47.7637 119.542V121H42.4097V119.542H47.7637ZM42.9224 110.336V121H41.084V110.336H42.9224ZM53.4766 119.411V115.631C53.4766 115.348 53.4253 115.104 53.3228 114.899C53.2202 114.694 53.064 114.535 52.854 114.423C52.6489 114.311 52.3901 114.254 52.0776 114.254C51.7896 114.254 51.5405 114.303 51.3306 114.401C51.1206 114.499 50.957 114.63 50.8398 114.796C50.7227 114.962 50.6641 115.15 50.6641 115.36H48.9062C48.9062 115.048 48.9819 114.745 49.1333 114.452C49.2847 114.159 49.5044 113.898 49.7925 113.668C50.0806 113.439 50.4248 113.258 50.8252 113.126C51.2256 112.995 51.6748 112.929 52.1729 112.929C52.7686 112.929 53.2959 113.029 53.7549 113.229C54.2188 113.429 54.5825 113.732 54.8462 114.137C55.1147 114.538 55.249 115.041 55.249 115.646V119.169C55.249 119.53 55.2734 119.855 55.3223 120.143C55.376 120.426 55.4517 120.673 55.5493 120.883V121H53.7402C53.6572 120.81 53.5913 120.568 53.5425 120.275C53.4985 119.977 53.4766 119.689 53.4766 119.411ZM53.7329 116.181L53.7476 117.272H52.4805C52.1533 117.272 51.8652 117.304 51.6162 117.367C51.3672 117.426 51.1597 117.514 50.9937 117.631C50.8276 117.748 50.7031 117.89 50.6201 118.056C50.5371 118.222 50.4956 118.41 50.4956 118.62C50.4956 118.83 50.5444 119.022 50.6421 119.198C50.7397 119.369 50.8813 119.503 51.0669 119.601C51.2573 119.699 51.4868 119.748 51.7554 119.748C52.1167 119.748 52.4316 119.674 52.7002 119.528C52.9736 119.376 53.1885 119.193 53.3447 118.979C53.501 118.759 53.584 118.551 53.5938 118.356L54.165 119.14C54.1064 119.34 54.0063 119.555 53.8647 119.784C53.7231 120.014 53.5376 120.233 53.3081 120.443C53.0835 120.648 52.8125 120.817 52.4951 120.949C52.1826 121.081 51.8213 121.146 51.4111 121.146C50.8936 121.146 50.4321 121.044 50.0269 120.839C49.6216 120.629 49.3042 120.348 49.0747 119.997C48.8452 119.64 48.7305 119.237 48.7305 118.788C48.7305 118.368 48.8086 117.997 48.9648 117.675C49.126 117.348 49.3604 117.074 49.668 116.854C49.9805 116.635 50.3613 116.469 50.8105 116.356C51.2598 116.239 51.7725 116.181 52.3486 116.181H53.7329ZM57.1021 109.75H58.8672V119.308L58.6987 121H57.1021V109.75ZM64.0381 116.964V117.118C64.0381 117.704 63.9722 118.244 63.8403 118.737C63.7134 119.225 63.5181 119.65 63.2544 120.011C62.9956 120.373 62.6733 120.653 62.2876 120.854C61.9067 121.049 61.4648 121.146 60.9619 121.146C60.4688 121.146 60.0391 121.054 59.6729 120.868C59.3066 120.683 58.999 120.419 58.75 120.077C58.5059 119.735 58.3081 119.328 58.1567 118.854C58.0054 118.38 57.8979 117.858 57.8345 117.287V116.796C57.8979 116.22 58.0054 115.697 58.1567 115.229C58.3081 114.755 58.5059 114.347 58.75 114.005C58.999 113.659 59.3042 113.393 59.6655 113.207C60.0317 113.021 60.459 112.929 60.9473 112.929C61.4551 112.929 61.9019 113.026 62.2876 113.222C62.6782 113.417 63.0029 113.695 63.2617 114.057C63.5205 114.413 63.7134 114.838 63.8403 115.331C63.9722 115.824 64.0381 116.369 64.0381 116.964ZM62.2729 117.118V116.964C62.2729 116.608 62.2437 116.273 62.1851 115.961C62.1265 115.644 62.0288 115.365 61.8921 115.126C61.7603 114.887 61.5796 114.699 61.3501 114.562C61.1255 114.42 60.8447 114.35 60.5078 114.35C60.1953 114.35 59.9268 114.403 59.7021 114.511C59.4775 114.618 59.2896 114.765 59.1382 114.95C58.9868 115.136 58.8672 115.351 58.7793 115.595C58.6963 115.839 58.6401 116.103 58.6108 116.386V117.711C58.6548 118.078 58.7476 118.415 58.8892 118.722C59.0356 119.025 59.2407 119.269 59.5044 119.455C59.7681 119.635 60.1074 119.726 60.5225 119.726C60.8496 119.726 61.1255 119.66 61.3501 119.528C61.5747 119.396 61.7529 119.213 61.8848 118.979C62.0215 118.739 62.1191 118.461 62.1777 118.144C62.2412 117.826 62.2729 117.484 62.2729 117.118ZM69.0259 121.146C68.4399 121.146 67.9102 121.051 67.4365 120.861C66.9678 120.666 66.5674 120.395 66.2354 120.048C65.9082 119.701 65.6567 119.293 65.481 118.825C65.3052 118.356 65.2173 117.851 65.2173 117.309V117.016C65.2173 116.396 65.3076 115.834 65.4883 115.331C65.6689 114.828 65.9204 114.398 66.2427 114.042C66.5649 113.681 66.9458 113.405 67.3853 113.214C67.8247 113.024 68.3008 112.929 68.8135 112.929C69.3799 112.929 69.8755 113.024 70.3003 113.214C70.7251 113.405 71.0767 113.673 71.355 114.02C71.6382 114.362 71.8481 114.77 71.9849 115.243C72.1265 115.717 72.1973 116.239 72.1973 116.811V117.565H66.0742V116.298H70.4541V116.159C70.4443 115.841 70.3809 115.543 70.2637 115.265C70.1514 114.987 69.978 114.762 69.7437 114.591C69.5093 114.42 69.1968 114.335 68.8062 114.335C68.5132 114.335 68.252 114.398 68.0225 114.525C67.7979 114.647 67.6099 114.826 67.4585 115.06C67.3071 115.294 67.1899 115.578 67.1069 115.91C67.0288 116.237 66.9897 116.605 66.9897 117.016V117.309C66.9897 117.655 67.0361 117.978 67.1289 118.275C67.2266 118.568 67.3682 118.825 67.5537 119.044C67.7393 119.264 67.9639 119.438 68.2275 119.564C68.4912 119.687 68.7915 119.748 69.1284 119.748C69.5532 119.748 69.9316 119.662 70.2637 119.491C70.5957 119.32 70.8838 119.079 71.1279 118.766L72.0581 119.667C71.8872 119.916 71.665 120.155 71.3916 120.385C71.1182 120.609 70.7837 120.792 70.3882 120.934C69.9976 121.076 69.5435 121.146 69.0259 121.146ZM75.4639 109.75V121H73.6914V109.75H75.4639Z" fill="#505050"/>
<rect x="40" y="132" width="124" height="40" rx="4" fill="#286EF1"/>
<path d="M65.25 157.472H54.75C54.3359 157.472 54 157.808 54 158.223C54 158.663 54.3359 159 54.75 159H65.25C65.6641 159 66 158.664 66 158.249C66 157.834 65.6656 157.472 65.25 157.472ZM56.5459 150.509L59.25 147.634V155.247C59.25 155.661 59.5859 155.998 60 155.998C60.4141 155.998 60.75 155.661 60.75 155.247V147.634L63.4541 150.509C63.6031 150.666 63.8 150.744 64 150.744C64.1846 150.744 64.3691 150.676 64.5138 150.54C64.8155 150.256 64.83 149.781 64.546 149.479L60.546 145.226C60.2628 144.923 59.7372 144.923 59.4541 145.226L55.4541 149.479C55.17 149.781 55.1847 150.256 55.4863 150.541C55.7872 150.825 56.2619 150.784 56.5459 150.509Z" fill="white"/>
<path d="M83.0679 146.336H84.8989V153.462C84.8989 154.273 84.7231 154.952 84.3716 155.499C84.02 156.045 83.5415 156.458 82.936 156.736C82.3354 157.01 81.6641 157.146 80.9219 157.146C80.1553 157.146 79.4717 157.01 78.8711 156.736C78.2705 156.458 77.7969 156.045 77.4502 155.499C77.1084 154.952 76.9375 154.273 76.9375 153.462V146.336H78.7686V153.462C78.7686 153.975 78.8564 154.397 79.0322 154.729C79.208 155.057 79.457 155.298 79.7793 155.455C80.1016 155.611 80.4824 155.689 80.9219 155.689C81.3613 155.689 81.7397 155.611 82.0571 155.455C82.3794 155.298 82.6284 155.057 82.8042 154.729C82.98 154.397 83.0679 153.975 83.0679 153.462V146.336ZM88.4951 150.599V160.047H86.73V149.075H88.356L88.4951 150.599ZM93.6587 152.964V153.118C93.6587 153.694 93.5903 154.229 93.4536 154.722C93.3218 155.21 93.124 155.638 92.8604 156.004C92.6016 156.365 92.2817 156.646 91.9009 156.846C91.52 157.046 91.0806 157.146 90.5825 157.146C90.0894 157.146 89.6572 157.056 89.2861 156.875C88.9199 156.69 88.6099 156.429 88.356 156.092C88.1021 155.755 87.897 155.359 87.7407 154.905C87.5894 154.446 87.4819 153.943 87.4185 153.396V152.803C87.4819 152.222 87.5894 151.695 87.7407 151.221C87.897 150.748 88.1021 150.34 88.356 149.998C88.6099 149.656 88.9199 149.393 89.2861 149.207C89.6523 149.021 90.0796 148.929 90.5679 148.929C91.0659 148.929 91.5078 149.026 91.8936 149.222C92.2793 149.412 92.604 149.686 92.8677 150.042C93.1313 150.394 93.3291 150.818 93.4609 151.316C93.5928 151.81 93.6587 152.359 93.6587 152.964ZM91.8936 153.118V152.964C91.8936 152.598 91.8594 152.259 91.791 151.946C91.7227 151.629 91.6152 151.351 91.4688 151.111C91.3223 150.872 91.1343 150.687 90.9048 150.555C90.6802 150.418 90.4092 150.35 90.0918 150.35C89.7793 150.35 89.5107 150.403 89.2861 150.511C89.0615 150.613 88.8735 150.757 88.7222 150.943C88.5708 151.128 88.4536 151.346 88.3706 151.595C88.2876 151.839 88.229 152.105 88.1948 152.393V153.814C88.2534 154.166 88.3535 154.488 88.4951 154.781C88.6367 155.074 88.8369 155.308 89.0957 155.484C89.3594 155.655 89.6963 155.74 90.1064 155.74C90.4238 155.74 90.6948 155.672 90.9194 155.535C91.144 155.398 91.3271 155.21 91.4688 154.971C91.6152 154.727 91.7227 154.446 91.791 154.129C91.8594 153.812 91.8936 153.475 91.8936 153.118ZM97.0498 145.75V157H95.2773V145.75H97.0498ZM98.6465 153.125V152.957C98.6465 152.386 98.7295 151.856 98.8955 151.368C99.0615 150.875 99.3008 150.447 99.6133 150.086C99.9307 149.72 100.316 149.437 100.771 149.236C101.229 149.031 101.747 148.929 102.323 148.929C102.904 148.929 103.422 149.031 103.876 149.236C104.335 149.437 104.723 149.72 105.041 150.086C105.358 150.447 105.6 150.875 105.766 151.368C105.932 151.856 106.015 152.386 106.015 152.957V153.125C106.015 153.697 105.932 154.227 105.766 154.715C105.6 155.203 105.358 155.63 105.041 155.997C104.723 156.358 104.337 156.641 103.883 156.846C103.429 157.046 102.914 157.146 102.338 157.146C101.757 157.146 101.237 157.046 100.778 156.846C100.324 156.641 99.938 156.358 99.6206 155.997C99.3032 155.63 99.0615 155.203 98.8955 154.715C98.7295 154.227 98.6465 153.697 98.6465 153.125ZM100.412 152.957V153.125C100.412 153.482 100.448 153.819 100.521 154.136C100.595 154.454 100.709 154.732 100.866 154.971C101.022 155.21 101.222 155.398 101.466 155.535C101.71 155.672 102.001 155.74 102.338 155.74C102.665 155.74 102.948 155.672 103.188 155.535C103.432 155.398 103.632 155.21 103.788 154.971C103.944 154.732 104.059 154.454 104.132 154.136C104.21 153.819 104.25 153.482 104.25 153.125V152.957C104.25 152.605 104.21 152.273 104.132 151.961C104.059 151.644 103.942 151.363 103.781 151.119C103.625 150.875 103.424 150.684 103.18 150.547C102.941 150.406 102.655 150.335 102.323 150.335C101.991 150.335 101.703 150.406 101.459 150.547C101.22 150.684 101.022 150.875 100.866 151.119C100.709 151.363 100.595 151.644 100.521 151.961C100.448 152.273 100.412 152.605 100.412 152.957ZM111.962 155.411V151.631C111.962 151.348 111.911 151.104 111.808 150.899C111.706 150.694 111.549 150.535 111.339 150.423C111.134 150.311 110.875 150.254 110.563 150.254C110.275 150.254 110.026 150.303 109.816 150.401C109.606 150.499 109.442 150.63 109.325 150.796C109.208 150.962 109.149 151.15 109.149 151.36H107.392C107.392 151.048 107.467 150.745 107.619 150.452C107.77 150.159 107.99 149.898 108.278 149.668C108.566 149.439 108.91 149.258 109.311 149.126C109.711 148.995 110.16 148.929 110.658 148.929C111.254 148.929 111.781 149.029 112.24 149.229C112.704 149.429 113.068 149.732 113.332 150.137C113.6 150.538 113.734 151.041 113.734 151.646V155.169C113.734 155.53 113.759 155.855 113.808 156.143C113.861 156.426 113.937 156.673 114.035 156.883V157H112.226C112.143 156.81 112.077 156.568 112.028 156.275C111.984 155.977 111.962 155.689 111.962 155.411ZM112.218 152.181L112.233 153.272H110.966C110.639 153.272 110.351 153.304 110.102 153.367C109.853 153.426 109.645 153.514 109.479 153.631C109.313 153.748 109.188 153.89 109.105 154.056C109.022 154.222 108.981 154.41 108.981 154.62C108.981 154.83 109.03 155.022 109.127 155.198C109.225 155.369 109.367 155.503 109.552 155.601C109.743 155.699 109.972 155.748 110.241 155.748C110.602 155.748 110.917 155.674 111.186 155.528C111.459 155.376 111.674 155.193 111.83 154.979C111.986 154.759 112.069 154.551 112.079 154.356L112.65 155.14C112.592 155.34 112.492 155.555 112.35 155.784C112.208 156.014 112.023 156.233 111.793 156.443C111.569 156.648 111.298 156.817 110.98 156.949C110.668 157.081 110.307 157.146 109.896 157.146C109.379 157.146 108.917 157.044 108.512 156.839C108.107 156.629 107.79 156.348 107.56 155.997C107.331 155.64 107.216 155.237 107.216 154.788C107.216 154.368 107.294 153.997 107.45 153.675C107.611 153.348 107.846 153.074 108.153 152.854C108.466 152.635 108.847 152.469 109.296 152.356C109.745 152.239 110.258 152.181 110.834 152.181H112.218ZM120.414 155.359V145.75H122.187V157H120.583L120.414 155.359ZM115.258 153.125V152.972C115.258 152.371 115.329 151.824 115.47 151.331C115.612 150.833 115.817 150.406 116.085 150.049C116.354 149.688 116.681 149.412 117.067 149.222C117.453 149.026 117.887 148.929 118.371 148.929C118.849 148.929 119.269 149.021 119.63 149.207C119.992 149.393 120.299 149.659 120.553 150.005C120.807 150.347 121.01 150.757 121.161 151.236C121.312 151.709 121.42 152.237 121.483 152.818V153.309C121.42 153.875 121.312 154.393 121.161 154.861C121.01 155.33 120.807 155.735 120.553 156.077C120.299 156.419 119.989 156.683 119.623 156.868C119.262 157.054 118.839 157.146 118.356 157.146C117.877 157.146 117.445 157.046 117.06 156.846C116.679 156.646 116.354 156.365 116.085 156.004C115.817 155.643 115.612 155.218 115.47 154.729C115.329 154.236 115.258 153.702 115.258 153.125ZM117.023 152.972V153.125C117.023 153.487 117.055 153.824 117.118 154.136C117.187 154.449 117.292 154.725 117.433 154.964C117.575 155.198 117.758 155.384 117.982 155.521C118.212 155.652 118.485 155.718 118.803 155.718C119.203 155.718 119.533 155.63 119.792 155.455C120.05 155.279 120.253 155.042 120.399 154.744C120.551 154.441 120.653 154.104 120.707 153.733V152.408C120.678 152.12 120.617 151.851 120.524 151.602C120.436 151.353 120.316 151.136 120.165 150.95C120.014 150.76 119.826 150.613 119.601 150.511C119.381 150.403 119.12 150.35 118.817 150.35C118.495 150.35 118.222 150.418 117.997 150.555C117.772 150.691 117.587 150.879 117.44 151.119C117.299 151.358 117.194 151.636 117.125 151.954C117.057 152.271 117.023 152.61 117.023 152.972ZM130.155 157H128.39V148.313C128.39 147.723 128.5 147.227 128.72 146.827C128.944 146.421 129.264 146.116 129.679 145.911C130.094 145.701 130.585 145.596 131.151 145.596C131.327 145.596 131.5 145.608 131.671 145.633C131.842 145.652 132.008 145.684 132.169 145.728L132.125 147.09C132.028 147.066 131.92 147.049 131.803 147.039C131.691 147.029 131.569 147.024 131.437 147.024C131.168 147.024 130.937 147.076 130.741 147.178C130.551 147.276 130.404 147.42 130.302 147.61C130.204 147.801 130.155 148.035 130.155 148.313V157ZM131.789 149.075V150.364H127.174V149.075H131.789ZM134.96 149.075V157H133.188V149.075H134.96ZM133.07 146.995C133.07 146.727 133.158 146.504 133.334 146.329C133.515 146.148 133.764 146.058 134.081 146.058C134.394 146.058 134.64 146.148 134.821 146.329C135.001 146.504 135.092 146.727 135.092 146.995C135.092 147.259 135.001 147.479 134.821 147.654C134.64 147.83 134.394 147.918 134.081 147.918C133.764 147.918 133.515 147.83 133.334 147.654C133.158 147.479 133.07 147.259 133.07 146.995ZM138.783 145.75V157H137.011V145.75H138.783ZM144.21 157.146C143.625 157.146 143.095 157.051 142.621 156.861C142.152 156.666 141.752 156.395 141.42 156.048C141.093 155.701 140.841 155.293 140.666 154.825C140.49 154.356 140.402 153.851 140.402 153.309V153.016C140.402 152.396 140.492 151.834 140.673 151.331C140.854 150.828 141.105 150.398 141.427 150.042C141.75 149.681 142.13 149.405 142.57 149.214C143.009 149.024 143.485 148.929 143.998 148.929C144.564 148.929 145.06 149.024 145.485 149.214C145.91 149.405 146.261 149.673 146.54 150.02C146.823 150.362 147.033 150.77 147.169 151.243C147.311 151.717 147.382 152.239 147.382 152.811V153.565H141.259V152.298H145.639V152.159C145.629 151.841 145.565 151.543 145.448 151.265C145.336 150.987 145.163 150.762 144.928 150.591C144.694 150.42 144.381 150.335 143.991 150.335C143.698 150.335 143.437 150.398 143.207 150.525C142.982 150.647 142.794 150.826 142.643 151.06C142.492 151.294 142.375 151.578 142.292 151.91C142.213 152.237 142.174 152.605 142.174 153.016V153.309C142.174 153.655 142.221 153.978 142.313 154.275C142.411 154.568 142.553 154.825 142.738 155.044C142.924 155.264 143.148 155.438 143.412 155.564C143.676 155.687 143.976 155.748 144.313 155.748C144.738 155.748 145.116 155.662 145.448 155.491C145.78 155.32 146.068 155.079 146.312 154.766L147.243 155.667C147.072 155.916 146.85 156.155 146.576 156.385C146.303 156.609 145.968 156.792 145.573 156.934C145.182 157.076 144.728 157.146 144.21 157.146Z" fill="white"/>
<path d="M47.1094 184.731V185.728H42.1074V184.731H47.1094ZM42.2979 180.758V190H41.0728V180.758H42.2979ZM48.1758 180.758V190H46.957V180.758H48.1758ZM53.0254 190.127C52.5472 190.127 52.1134 190.047 51.7241 189.886C51.339 189.721 51.0068 189.49 50.7275 189.194C50.4525 188.898 50.2409 188.546 50.0928 188.14C49.9447 187.734 49.8706 187.29 49.8706 186.807V186.541C49.8706 185.982 49.9531 185.485 50.1182 185.049C50.2832 184.609 50.5075 184.236 50.791 183.932C51.0745 183.627 51.3962 183.396 51.7559 183.24C52.1156 183.083 52.488 183.005 52.873 183.005C53.3639 183.005 53.7871 183.09 54.1426 183.259C54.5023 183.428 54.7964 183.665 55.0249 183.97C55.2534 184.27 55.4227 184.626 55.5327 185.036C55.6427 185.442 55.6978 185.887 55.6978 186.369V186.896H50.5688V185.938H54.5234V185.849C54.5065 185.544 54.443 185.248 54.333 184.96C54.2272 184.672 54.0579 184.435 53.8252 184.249C53.5924 184.063 53.2751 183.97 52.873 183.97C52.6064 183.97 52.361 184.027 52.1367 184.141C51.9124 184.251 51.7199 184.416 51.5591 184.636C51.3983 184.856 51.2734 185.125 51.1846 185.442C51.0957 185.76 51.0513 186.126 51.0513 186.541V186.807C51.0513 187.133 51.0957 187.44 51.1846 187.728C51.2777 188.011 51.411 188.261 51.5845 188.477C51.7622 188.692 51.9759 188.862 52.2256 188.984C52.4795 189.107 52.7673 189.168 53.0889 189.168C53.5036 189.168 53.8548 189.084 54.1426 188.915C54.4303 188.745 54.6821 188.519 54.8979 188.235L55.6089 188.8C55.4608 189.025 55.2725 189.238 55.0439 189.441C54.8154 189.645 54.534 189.81 54.1997 189.937C53.8696 190.063 53.4782 190.127 53.0254 190.127ZM58.3447 180.25V190H57.1641V180.25H58.3447ZM61.4043 184.452V192.641H60.2236V183.132H61.3027L61.4043 184.452ZM66.0317 186.509V186.642C66.0317 187.141 65.9725 187.605 65.854 188.032C65.7355 188.455 65.562 188.824 65.3335 189.137C65.1092 189.45 64.832 189.693 64.502 189.867C64.1719 190.04 63.7931 190.127 63.3657 190.127C62.9299 190.127 62.5448 190.055 62.2104 189.911C61.8761 189.767 61.5926 189.558 61.3599 189.283C61.1271 189.008 60.9409 188.678 60.8013 188.292C60.6659 187.907 60.5728 187.474 60.522 186.991V186.28C60.5728 185.772 60.668 185.318 60.8076 184.916C60.9473 184.514 61.1313 184.171 61.3599 183.887C61.5926 183.599 61.874 183.382 62.2041 183.233C62.5342 183.081 62.915 183.005 63.3467 183.005C63.7783 183.005 64.1613 183.09 64.4956 183.259C64.8299 183.424 65.1113 183.661 65.3398 183.97C65.5684 184.279 65.7397 184.649 65.854 185.081C65.9725 185.508 66.0317 185.984 66.0317 186.509ZM64.8511 186.642V186.509C64.8511 186.166 64.8151 185.844 64.7432 185.544C64.6712 185.239 64.5591 184.973 64.4067 184.744C64.2586 184.511 64.0682 184.329 63.8354 184.198C63.6027 184.063 63.3255 183.995 63.0039 183.995C62.7077 183.995 62.4495 184.046 62.2295 184.147C62.0137 184.249 61.8296 184.387 61.6772 184.56C61.5249 184.729 61.4001 184.924 61.3027 185.144C61.2096 185.36 61.1398 185.584 61.0933 185.817V187.461C61.1779 187.757 61.2964 188.036 61.4487 188.299C61.6011 188.557 61.8042 188.766 62.0581 188.927C62.312 189.084 62.6315 189.162 63.0166 189.162C63.334 189.162 63.6069 189.097 63.8354 188.965C64.0682 188.83 64.2586 188.646 64.4067 188.413C64.5591 188.18 64.6712 187.914 64.7432 187.613C64.8151 187.309 64.8511 186.985 64.8511 186.642ZM73.6299 183.132V184.033H69.9165V183.132H73.6299ZM71.1733 181.462H72.3477V188.299C72.3477 188.532 72.3836 188.707 72.4556 188.826C72.5275 188.944 72.6206 189.022 72.7349 189.061C72.8491 189.099 72.9718 189.118 73.103 189.118C73.2004 189.118 73.3019 189.109 73.4077 189.092C73.5177 189.071 73.6003 189.054 73.6553 189.042L73.6616 190C73.5685 190.03 73.4458 190.057 73.2935 190.083C73.1453 190.112 72.9655 190.127 72.7539 190.127C72.4661 190.127 72.2017 190.07 71.9604 189.956C71.7192 189.841 71.5267 189.651 71.3828 189.384C71.2432 189.113 71.1733 188.75 71.1733 188.292V181.462ZM77.8574 190.127C77.3792 190.127 76.9455 190.047 76.5562 189.886C76.1711 189.721 75.8389 189.49 75.5596 189.194C75.2845 188.898 75.0729 188.546 74.9248 188.14C74.7767 187.734 74.7026 187.29 74.7026 186.807V186.541C74.7026 185.982 74.7852 185.485 74.9502 185.049C75.1152 184.609 75.3395 184.236 75.623 183.932C75.9066 183.627 76.2282 183.396 76.5879 183.24C76.9476 183.083 77.32 183.005 77.7051 183.005C78.196 183.005 78.6191 183.09 78.9746 183.259C79.3343 183.428 79.6284 183.665 79.8569 183.97C80.0854 184.27 80.2547 184.626 80.3647 185.036C80.4748 185.442 80.5298 185.887 80.5298 186.369V186.896H75.4009V185.938H79.3555V185.849C79.3385 185.544 79.2751 185.248 79.165 184.96C79.0592 184.672 78.89 184.435 78.6572 184.249C78.4245 184.063 78.1071 183.97 77.7051 183.97C77.4385 183.97 77.193 184.027 76.9688 184.141C76.7445 184.251 76.5519 184.416 76.3911 184.636C76.2303 184.856 76.1055 185.125 76.0166 185.442C75.9277 185.76 75.8833 186.126 75.8833 186.541V186.807C75.8833 187.133 75.9277 187.44 76.0166 187.728C76.1097 188.011 76.243 188.261 76.4165 188.477C76.5942 188.692 76.8079 188.862 77.0576 188.984C77.3115 189.107 77.5993 189.168 77.9209 189.168C78.3356 189.168 78.6868 189.084 78.9746 188.915C79.2624 188.745 79.5142 188.519 79.73 188.235L80.4409 188.8C80.2928 189.025 80.1045 189.238 79.876 189.441C79.6475 189.645 79.366 189.81 79.0317 189.937C78.7017 190.063 78.3102 190.127 77.8574 190.127ZM82.6943 183.132L84.1987 185.633L85.7222 183.132H87.0996L84.8525 186.521L87.1694 190H85.811L84.2241 187.423L82.6372 190H81.2725L83.583 186.521L81.3423 183.132H82.6943ZM91.2256 183.132V184.033H87.5122V183.132H91.2256ZM88.769 181.462H89.9434V188.299C89.9434 188.532 89.9793 188.707 90.0513 188.826C90.1232 188.944 90.2163 189.022 90.3306 189.061C90.4448 189.099 90.5675 189.118 90.6987 189.118C90.7961 189.118 90.8976 189.109 91.0034 189.092C91.1134 189.071 91.196 189.054 91.251 189.042L91.2573 190C91.1642 190.03 91.0415 190.057 90.8892 190.083C90.741 190.112 90.5612 190.127 90.3496 190.127C90.0618 190.127 89.7974 190.07 89.5562 189.956C89.3149 189.841 89.1224 189.651 88.9785 189.384C88.8389 189.113 88.769 188.75 88.769 188.292V181.462Z" fill="#505050"/>
</g>
<path d="M639 0V236H641V0H639Z" fill="#E6E6E6" mask="url(#path-3-inside-1_7327_84037)"/>
<rect width="640" height="64" transform="translate(640)" fill="#F8F8F8"/>
<path d="M684.461 37H682.031L682.047 35.4453H684.461C685.164 35.4453 685.753 35.2917 686.227 34.9844C686.706 34.6771 687.065 34.237 687.305 33.6641C687.549 33.0911 687.672 32.4089 687.672 31.6172V31C687.672 30.3854 687.602 29.8411 687.461 29.3672C687.326 28.8932 687.122 28.4948 686.852 28.1719C686.586 27.849 686.258 27.6042 685.867 27.4375C685.482 27.2708 685.036 27.1875 684.531 27.1875H681.984V25.625H684.531C685.286 25.625 685.977 25.7526 686.602 26.0078C687.227 26.2578 687.766 26.6198 688.219 27.0938C688.677 27.5677 689.029 28.1354 689.273 28.7969C689.518 29.4583 689.641 30.1979 689.641 31.0156V31.6172C689.641 32.4349 689.518 33.1745 689.273 33.8359C689.029 34.4974 688.677 35.0651 688.219 35.5391C687.76 36.0078 687.214 36.3698 686.578 36.625C685.948 36.875 685.242 37 684.461 37ZM683.117 25.625V37H681.156V25.625H683.117ZM693.312 30.1562V37H691.43V28.5469H693.227L693.312 30.1562ZM695.898 28.4922L695.883 30.2422C695.768 30.2214 695.643 30.2057 695.508 30.1953C695.378 30.1849 695.247 30.1797 695.117 30.1797C694.794 30.1797 694.51 30.2266 694.266 30.3203C694.021 30.4089 693.815 30.5391 693.648 30.7109C693.487 30.8776 693.362 31.0807 693.273 31.3203C693.185 31.5599 693.133 31.8281 693.117 32.125L692.688 32.1562C692.688 31.625 692.74 31.1328 692.844 30.6797C692.948 30.2266 693.104 29.8281 693.312 29.4844C693.526 29.1406 693.792 28.8724 694.109 28.6797C694.432 28.487 694.805 28.3906 695.227 28.3906C695.341 28.3906 695.464 28.401 695.594 28.4219C695.729 28.4427 695.831 28.4661 695.898 28.4922ZM701.562 35.3047V31.2734C701.562 30.9714 701.508 30.7109 701.398 30.4922C701.289 30.2734 701.122 30.1042 700.898 29.9844C700.68 29.8646 700.404 29.8047 700.07 29.8047C699.763 29.8047 699.497 29.8568 699.273 29.9609C699.049 30.0651 698.875 30.2057 698.75 30.3828C698.625 30.5599 698.562 30.7604 698.562 30.9844H696.688C696.688 30.651 696.768 30.3281 696.93 30.0156C697.091 29.7031 697.326 29.4245 697.633 29.1797C697.94 28.9349 698.307 28.7422 698.734 28.6016C699.161 28.4609 699.641 28.3906 700.172 28.3906C700.807 28.3906 701.37 28.4974 701.859 28.7109C702.354 28.9245 702.742 29.2474 703.023 29.6797C703.31 30.1068 703.453 30.6432 703.453 31.2891V35.0469C703.453 35.4323 703.479 35.7786 703.531 36.0859C703.589 36.388 703.669 36.651 703.773 36.875V37H701.844C701.755 36.7969 701.685 36.5391 701.633 36.2266C701.586 35.9089 701.562 35.6016 701.562 35.3047ZM701.836 31.8594L701.852 33.0234H700.5C700.151 33.0234 699.844 33.0573 699.578 33.125C699.312 33.1875 699.091 33.2812 698.914 33.4062C698.737 33.5312 698.604 33.6823 698.516 33.8594C698.427 34.0365 698.383 34.237 698.383 34.4609C698.383 34.6849 698.435 34.8906 698.539 35.0781C698.643 35.2604 698.794 35.4036 698.992 35.5078C699.195 35.612 699.44 35.6641 699.727 35.6641C700.112 35.6641 700.448 35.5859 700.734 35.4297C701.026 35.2682 701.255 35.0729 701.422 34.8438C701.589 34.6094 701.677 34.388 701.688 34.1797L702.297 35.0156C702.234 35.2292 702.128 35.4583 701.977 35.7031C701.826 35.9479 701.628 36.1823 701.383 36.4062C701.143 36.625 700.854 36.8047 700.516 36.9453C700.182 37.0859 699.797 37.1562 699.359 37.1562C698.807 37.1562 698.315 37.0469 697.883 36.8281C697.451 36.6042 697.112 36.3047 696.867 35.9297C696.622 35.5495 696.5 35.1198 696.5 34.6406C696.5 34.1927 696.583 33.7969 696.75 33.4531C696.922 33.1042 697.172 32.8125 697.5 32.5781C697.833 32.3438 698.24 32.1667 698.719 32.0469C699.198 31.9219 699.745 31.8594 700.359 31.8594H701.836ZM710.836 28.5469H712.547V36.7656C712.547 37.526 712.385 38.1719 712.062 38.7031C711.74 39.2344 711.289 39.638 710.711 39.9141C710.133 40.1953 709.464 40.3359 708.703 40.3359C708.38 40.3359 708.021 40.2891 707.625 40.1953C707.234 40.1016 706.854 39.9505 706.484 39.7422C706.12 39.5391 705.815 39.2708 705.57 38.9375L706.453 37.8281C706.755 38.1875 707.089 38.4505 707.453 38.6172C707.818 38.7839 708.201 38.8672 708.602 38.8672C709.034 38.8672 709.401 38.7865 709.703 38.625C710.01 38.4688 710.247 38.237 710.414 37.9297C710.581 37.6224 710.664 37.2474 710.664 36.8047V30.4609L710.836 28.5469ZM705.094 32.8672V32.7031C705.094 32.0625 705.172 31.4792 705.328 30.9531C705.484 30.4219 705.708 29.9661 706 29.5859C706.292 29.2005 706.646 28.9062 707.062 28.7031C707.479 28.4948 707.951 28.3906 708.477 28.3906C709.023 28.3906 709.49 28.4896 709.875 28.6875C710.266 28.8854 710.591 29.1693 710.852 29.5391C711.112 29.9036 711.315 30.3411 711.461 30.8516C711.612 31.3568 711.724 31.9193 711.797 32.5391V33.0625C711.729 33.6667 711.615 34.2188 711.453 34.7188C711.292 35.2188 711.078 35.651 710.812 36.0156C710.547 36.3802 710.219 36.6615 709.828 36.8594C709.443 37.0573 708.987 37.1562 708.461 37.1562C707.945 37.1562 707.479 37.0495 707.062 36.8359C706.651 36.6224 706.297 36.3229 706 35.9375C705.708 35.5521 705.484 35.099 705.328 34.5781C705.172 34.0521 705.094 33.4818 705.094 32.8672ZM706.977 32.7031V32.8672C706.977 33.2526 707.013 33.612 707.086 33.9453C707.164 34.2786 707.281 34.5729 707.438 34.8281C707.599 35.0781 707.802 35.276 708.047 35.4219C708.297 35.5625 708.591 35.6328 708.93 35.6328C709.372 35.6328 709.734 35.5391 710.016 35.3516C710.302 35.1641 710.521 34.9115 710.672 34.5938C710.828 34.2708 710.938 33.9115 711 33.5156V32.1016C710.969 31.7943 710.904 31.5078 710.805 31.2422C710.711 30.9766 710.583 30.7448 710.422 30.5469C710.26 30.3438 710.057 30.1875 709.812 30.0781C709.568 29.9635 709.279 29.9062 708.945 29.9062C708.607 29.9062 708.312 29.9792 708.062 30.125C707.812 30.2708 707.607 30.4714 707.445 30.7266C707.289 30.9818 707.172 31.2786 707.094 31.6172C707.016 31.9557 706.977 32.3177 706.977 32.7031ZM723.25 35.3047V31.2734C723.25 30.9714 723.195 30.7109 723.086 30.4922C722.977 30.2734 722.81 30.1042 722.586 29.9844C722.367 29.8646 722.091 29.8047 721.758 29.8047C721.451 29.8047 721.185 29.8568 720.961 29.9609C720.737 30.0651 720.562 30.2057 720.438 30.3828C720.312 30.5599 720.25 30.7604 720.25 30.9844H718.375C718.375 30.651 718.456 30.3281 718.617 30.0156C718.779 29.7031 719.013 29.4245 719.32 29.1797C719.628 28.9349 719.995 28.7422 720.422 28.6016C720.849 28.4609 721.328 28.3906 721.859 28.3906C722.495 28.3906 723.057 28.4974 723.547 28.7109C724.042 28.9245 724.43 29.2474 724.711 29.6797C724.997 30.1068 725.141 30.6432 725.141 31.2891V35.0469C725.141 35.4323 725.167 35.7786 725.219 36.0859C725.276 36.388 725.357 36.651 725.461 36.875V37H723.531C723.443 36.7969 723.372 36.5391 723.32 36.2266C723.273 35.9089 723.25 35.6016 723.25 35.3047ZM723.523 31.8594L723.539 33.0234H722.188C721.839 33.0234 721.531 33.0573 721.266 33.125C721 33.1875 720.779 33.2812 720.602 33.4062C720.424 33.5312 720.292 33.6823 720.203 33.8594C720.115 34.0365 720.07 34.237 720.07 34.4609C720.07 34.6849 720.122 34.8906 720.227 35.0781C720.331 35.2604 720.482 35.4036 720.68 35.5078C720.883 35.612 721.128 35.6641 721.414 35.6641C721.799 35.6641 722.135 35.5859 722.422 35.4297C722.714 35.2682 722.943 35.0729 723.109 34.8438C723.276 34.6094 723.365 34.388 723.375 34.1797L723.984 35.0156C723.922 35.2292 723.815 35.4583 723.664 35.7031C723.513 35.9479 723.315 36.1823 723.07 36.4062C722.831 36.625 722.542 36.8047 722.203 36.9453C721.87 37.0859 721.484 37.1562 721.047 37.1562C720.495 37.1562 720.003 37.0469 719.57 36.8281C719.138 36.6042 718.799 36.3047 718.555 35.9297C718.31 35.5495 718.188 35.1198 718.188 34.6406C718.188 34.1927 718.271 33.7969 718.438 33.4531C718.609 33.1042 718.859 32.8125 719.188 32.5781C719.521 32.3438 719.927 32.1667 720.406 32.0469C720.885 31.9219 721.432 31.8594 722.047 31.8594H723.523ZM728.977 30.3516V37H727.094V28.5469H728.867L728.977 30.3516ZM728.641 32.4609L728.031 32.4531C728.036 31.8542 728.12 31.3047 728.281 30.8047C728.448 30.3047 728.677 29.875 728.969 29.5156C729.266 29.1562 729.62 28.8802 730.031 28.6875C730.443 28.4896 730.901 28.3906 731.406 28.3906C731.812 28.3906 732.18 28.4479 732.508 28.5625C732.841 28.6719 733.125 28.8516 733.359 29.1016C733.599 29.3516 733.781 29.6771 733.906 30.0781C734.031 30.474 734.094 30.9609 734.094 31.5391V37H732.203V31.5312C732.203 31.125 732.143 30.8047 732.023 30.5703C731.909 30.3307 731.74 30.1615 731.516 30.0625C731.297 29.9583 731.023 29.9062 730.695 29.9062C730.372 29.9062 730.083 29.974 729.828 30.1094C729.573 30.2448 729.357 30.4297 729.18 30.6641C729.008 30.8984 728.875 31.1693 728.781 31.4766C728.688 31.7839 728.641 32.112 728.641 32.4609ZM741.172 35.25V25H743.062V37H741.352L741.172 35.25ZM735.672 32.8672V32.7031C735.672 32.0625 735.747 31.4792 735.898 30.9531C736.049 30.4219 736.268 29.9661 736.555 29.5859C736.841 29.2005 737.19 28.9062 737.602 28.7031C738.013 28.4948 738.477 28.3906 738.992 28.3906C739.503 28.3906 739.951 28.4896 740.336 28.6875C740.721 28.8854 741.049 29.1693 741.32 29.5391C741.591 29.9036 741.807 30.3411 741.969 30.8516C742.13 31.3568 742.245 31.9193 742.312 32.5391V33.0625C742.245 33.6667 742.13 34.2188 741.969 34.7188C741.807 35.2188 741.591 35.651 741.32 36.0156C741.049 36.3802 740.719 36.6615 740.328 36.8594C739.943 37.0573 739.492 37.1562 738.977 37.1562C738.466 37.1562 738.005 37.0495 737.594 36.8359C737.188 36.6224 736.841 36.3229 736.555 35.9375C736.268 35.5521 736.049 35.099 735.898 34.5781C735.747 34.0521 735.672 33.4818 735.672 32.8672ZM737.555 32.7031V32.8672C737.555 33.2526 737.589 33.612 737.656 33.9453C737.729 34.2786 737.841 34.5729 737.992 34.8281C738.143 35.0781 738.339 35.276 738.578 35.4219C738.823 35.5625 739.115 35.6328 739.453 35.6328C739.88 35.6328 740.232 35.5391 740.508 35.3516C740.784 35.1641 741 34.9115 741.156 34.5938C741.318 34.2708 741.427 33.9115 741.484 33.5156V32.1016C741.453 31.7943 741.388 31.5078 741.289 31.2422C741.195 30.9766 741.068 30.7448 740.906 30.5469C740.745 30.3438 740.544 30.1875 740.305 30.0781C740.07 29.9635 739.792 29.9062 739.469 29.9062C739.125 29.9062 738.833 29.9792 738.594 30.125C738.354 30.2708 738.156 30.4714 738 30.7266C737.849 30.9818 737.737 31.2786 737.664 31.6172C737.591 31.9557 737.555 32.3177 737.555 32.7031ZM754.172 35.25V25H756.062V37H754.352L754.172 35.25ZM748.672 32.8672V32.7031C748.672 32.0625 748.747 31.4792 748.898 30.9531C749.049 30.4219 749.268 29.9661 749.555 29.5859C749.841 29.2005 750.19 28.9062 750.602 28.7031C751.013 28.4948 751.477 28.3906 751.992 28.3906C752.503 28.3906 752.951 28.4896 753.336 28.6875C753.721 28.8854 754.049 29.1693 754.32 29.5391C754.591 29.9036 754.807 30.3411 754.969 30.8516C755.13 31.3568 755.245 31.9193 755.312 32.5391V33.0625C755.245 33.6667 755.13 34.2188 754.969 34.7188C754.807 35.2188 754.591 35.651 754.32 36.0156C754.049 36.3802 753.719 36.6615 753.328 36.8594C752.943 37.0573 752.492 37.1562 751.977 37.1562C751.466 37.1562 751.005 37.0495 750.594 36.8359C750.188 36.6224 749.841 36.3229 749.555 35.9375C749.268 35.5521 749.049 35.099 748.898 34.5781C748.747 34.0521 748.672 33.4818 748.672 32.8672ZM750.555 32.7031V32.8672C750.555 33.2526 750.589 33.612 750.656 33.9453C750.729 34.2786 750.841 34.5729 750.992 34.8281C751.143 35.0781 751.339 35.276 751.578 35.4219C751.823 35.5625 752.115 35.6328 752.453 35.6328C752.88 35.6328 753.232 35.5391 753.508 35.3516C753.784 35.1641 754 34.9115 754.156 34.5938C754.318 34.2708 754.427 33.9115 754.484 33.5156V32.1016C754.453 31.7943 754.388 31.5078 754.289 31.2422C754.195 30.9766 754.068 30.7448 753.906 30.5469C753.745 30.3438 753.544 30.1875 753.305 30.0781C753.07 29.9635 752.792 29.9062 752.469 29.9062C752.125 29.9062 751.833 29.9792 751.594 30.125C751.354 30.2708 751.156 30.4714 751 30.7266C750.849 30.9818 750.737 31.2786 750.664 31.6172C750.591 31.9557 750.555 32.3177 750.555 32.7031ZM759.922 30.1562V37H758.039V28.5469H759.836L759.922 30.1562ZM762.508 28.4922L762.492 30.2422C762.378 30.2214 762.253 30.2057 762.117 30.1953C761.987 30.1849 761.857 30.1797 761.727 30.1797C761.404 30.1797 761.12 30.2266 760.875 30.3203C760.63 30.4089 760.424 30.5391 760.258 30.7109C760.096 30.8776 759.971 31.0807 759.883 31.3203C759.794 31.5599 759.742 31.8281 759.727 32.125L759.297 32.1562C759.297 31.625 759.349 31.1328 759.453 30.6797C759.557 30.2266 759.714 29.8281 759.922 29.4844C760.135 29.1406 760.401 28.8724 760.719 28.6797C761.042 28.487 761.414 28.3906 761.836 28.3906C761.951 28.3906 762.073 28.401 762.203 28.4219C762.339 28.4427 762.44 28.4661 762.508 28.4922ZM763.125 32.8672V32.6875C763.125 32.0781 763.214 31.513 763.391 30.9922C763.568 30.4661 763.823 30.0104 764.156 29.625C764.495 29.2344 764.906 28.9323 765.391 28.7188C765.88 28.5 766.432 28.3906 767.047 28.3906C767.667 28.3906 768.219 28.5 768.703 28.7188C769.193 28.9323 769.607 29.2344 769.945 29.625C770.284 30.0104 770.542 30.4661 770.719 30.9922C770.896 31.513 770.984 32.0781 770.984 32.6875V32.8672C770.984 33.4766 770.896 34.0417 770.719 34.5625C770.542 35.0833 770.284 35.5391 769.945 35.9297C769.607 36.3151 769.195 36.6172 768.711 36.8359C768.227 37.0495 767.677 37.1562 767.062 37.1562C766.443 37.1562 765.888 37.0495 765.398 36.8359C764.914 36.6172 764.503 36.3151 764.164 35.9297C763.826 35.5391 763.568 35.0833 763.391 34.5625C763.214 34.0417 763.125 33.4766 763.125 32.8672ZM765.008 32.6875V32.8672C765.008 33.2474 765.047 33.6068 765.125 33.9453C765.203 34.2839 765.326 34.5807 765.492 34.8359C765.659 35.0911 765.872 35.2917 766.133 35.4375C766.393 35.5833 766.703 35.6562 767.062 35.6562C767.411 35.6562 767.714 35.5833 767.969 35.4375C768.229 35.2917 768.443 35.0911 768.609 34.8359C768.776 34.5807 768.898 34.2839 768.977 33.9453C769.06 33.6068 769.102 33.2474 769.102 32.8672V32.6875C769.102 32.3125 769.06 31.9583 768.977 31.625C768.898 31.2865 768.773 30.987 768.602 30.7266C768.435 30.4661 768.221 30.263 767.961 30.1172C767.706 29.9661 767.401 29.8906 767.047 29.8906C766.693 29.8906 766.385 29.9661 766.125 30.1172C765.87 30.263 765.659 30.4661 765.492 30.7266C765.326 30.987 765.203 31.2865 765.125 31.625C765.047 31.9583 765.008 32.3125 765.008 32.6875ZM774.453 30.1719V40.25H772.57V28.5469H774.305L774.453 30.1719ZM779.961 32.6953V32.8594C779.961 33.474 779.888 34.0443 779.742 34.5703C779.602 35.0911 779.391 35.5469 779.109 35.9375C778.833 36.3229 778.492 36.6224 778.086 36.8359C777.68 37.0495 777.211 37.1562 776.68 37.1562C776.154 37.1562 775.693 37.0599 775.297 36.8672C774.906 36.6693 774.576 36.3906 774.305 36.0312C774.034 35.6719 773.815 35.25 773.648 34.7656C773.487 34.276 773.372 33.7396 773.305 33.1562V32.5234C773.372 31.9036 773.487 31.3411 773.648 30.8359C773.815 30.3307 774.034 29.8958 774.305 29.5312C774.576 29.1667 774.906 28.8854 775.297 28.6875C775.688 28.4896 776.143 28.3906 776.664 28.3906C777.195 28.3906 777.667 28.4948 778.078 28.7031C778.49 28.9062 778.836 29.1979 779.117 29.5781C779.398 29.9531 779.609 30.4062 779.75 30.9375C779.891 31.4635 779.961 32.0495 779.961 32.6953ZM778.078 32.8594V32.6953C778.078 32.3047 778.042 31.9427 777.969 31.6094C777.896 31.2708 777.781 30.974 777.625 30.7188C777.469 30.4635 777.268 30.2656 777.023 30.125C776.784 29.9792 776.495 29.9062 776.156 29.9062C775.823 29.9062 775.536 29.9635 775.297 30.0781C775.057 30.1875 774.857 30.3411 774.695 30.5391C774.534 30.737 774.409 30.9688 774.32 31.2344C774.232 31.4948 774.169 31.7786 774.133 32.0859V33.6016C774.195 33.9766 774.302 34.3203 774.453 34.6328C774.604 34.9453 774.818 35.1953 775.094 35.3828C775.375 35.5651 775.734 35.6562 776.172 35.6562C776.51 35.6562 776.799 35.5833 777.039 35.4375C777.279 35.2917 777.474 35.0911 777.625 34.8359C777.781 34.5755 777.896 34.276 777.969 33.9375C778.042 33.599 778.078 33.2396 778.078 32.8594ZM790.633 35.0078V28.5469H792.523V37H790.742L790.633 35.0078ZM790.898 33.25L791.531 33.2344C791.531 33.8021 791.469 34.3255 791.344 34.8047C791.219 35.2786 791.026 35.6927 790.766 36.0469C790.505 36.3958 790.172 36.6693 789.766 36.8672C789.359 37.0599 788.872 37.1562 788.305 37.1562C787.893 37.1562 787.516 37.0964 787.172 36.9766C786.828 36.8568 786.531 36.6719 786.281 36.4219C786.036 36.1719 785.846 35.8464 785.711 35.4453C785.576 35.0443 785.508 34.5651 785.508 34.0078V28.5469H787.391V34.0234C787.391 34.3307 787.427 34.5885 787.5 34.7969C787.573 35 787.672 35.1641 787.797 35.2891C787.922 35.4141 788.068 35.5026 788.234 35.5547C788.401 35.6068 788.578 35.6328 788.766 35.6328C789.302 35.6328 789.724 35.5286 790.031 35.3203C790.344 35.1068 790.565 34.8203 790.695 34.4609C790.831 34.1016 790.898 33.6979 790.898 33.25ZM796.344 30.1719V40.25H794.461V28.5469H796.195L796.344 30.1719ZM801.852 32.6953V32.8594C801.852 33.474 801.779 34.0443 801.633 34.5703C801.492 35.0911 801.281 35.5469 801 35.9375C800.724 36.3229 800.383 36.6224 799.977 36.8359C799.57 37.0495 799.102 37.1562 798.57 37.1562C798.044 37.1562 797.583 37.0599 797.188 36.8672C796.797 36.6693 796.466 36.3906 796.195 36.0312C795.924 35.6719 795.706 35.25 795.539 34.7656C795.378 34.276 795.263 33.7396 795.195 33.1562V32.5234C795.263 31.9036 795.378 31.3411 795.539 30.8359C795.706 30.3307 795.924 29.8958 796.195 29.5312C796.466 29.1667 796.797 28.8854 797.188 28.6875C797.578 28.4896 798.034 28.3906 798.555 28.3906C799.086 28.3906 799.557 28.4948 799.969 28.7031C800.38 28.9062 800.727 29.1979 801.008 29.5781C801.289 29.9531 801.5 30.4062 801.641 30.9375C801.781 31.4635 801.852 32.0495 801.852 32.6953ZM799.969 32.8594V32.6953C799.969 32.3047 799.932 31.9427 799.859 31.6094C799.786 31.2708 799.672 30.974 799.516 30.7188C799.359 30.4635 799.159 30.2656 798.914 30.125C798.674 29.9792 798.385 29.9062 798.047 29.9062C797.714 29.9062 797.427 29.9635 797.188 30.0781C796.948 30.1875 796.747 30.3411 796.586 30.5391C796.424 30.737 796.299 30.9688 796.211 31.2344C796.122 31.4948 796.06 31.7786 796.023 32.0859V33.6016C796.086 33.9766 796.193 34.3203 796.344 34.6328C796.495 34.9453 796.708 35.1953 796.984 35.3828C797.266 35.5651 797.625 35.6562 798.062 35.6562C798.401 35.6562 798.69 35.5833 798.93 35.4375C799.169 35.2917 799.365 35.0911 799.516 34.8359C799.672 34.5755 799.786 34.276 799.859 33.9375C799.932 33.599 799.969 33.2396 799.969 32.8594ZM805.469 25V37H803.578V25H805.469ZM807.172 32.8672V32.6875C807.172 32.0781 807.26 31.513 807.438 30.9922C807.615 30.4661 807.87 30.0104 808.203 29.625C808.542 29.2344 808.953 28.9323 809.438 28.7188C809.927 28.5 810.479 28.3906 811.094 28.3906C811.714 28.3906 812.266 28.5 812.75 28.7188C813.24 28.9323 813.654 29.2344 813.992 29.625C814.331 30.0104 814.589 30.4661 814.766 30.9922C814.943 31.513 815.031 32.0781 815.031 32.6875V32.8672C815.031 33.4766 814.943 34.0417 814.766 34.5625C814.589 35.0833 814.331 35.5391 813.992 35.9297C813.654 36.3151 813.242 36.6172 812.758 36.8359C812.273 37.0495 811.724 37.1562 811.109 37.1562C810.49 37.1562 809.935 37.0495 809.445 36.8359C808.961 36.6172 808.549 36.3151 808.211 35.9297C807.872 35.5391 807.615 35.0833 807.438 34.5625C807.26 34.0417 807.172 33.4766 807.172 32.8672ZM809.055 32.6875V32.8672C809.055 33.2474 809.094 33.6068 809.172 33.9453C809.25 34.2839 809.372 34.5807 809.539 34.8359C809.706 35.0911 809.919 35.2917 810.18 35.4375C810.44 35.5833 810.75 35.6562 811.109 35.6562C811.458 35.6562 811.76 35.5833 812.016 35.4375C812.276 35.2917 812.49 35.0911 812.656 34.8359C812.823 34.5807 812.945 34.2839 813.023 33.9453C813.107 33.6068 813.148 33.2474 813.148 32.8672V32.6875C813.148 32.3125 813.107 31.9583 813.023 31.625C812.945 31.2865 812.82 30.987 812.648 30.7266C812.482 30.4661 812.268 30.263 812.008 30.1172C811.753 29.9661 811.448 29.8906 811.094 29.8906C810.74 29.8906 810.432 29.9661 810.172 30.1172C809.917 30.263 809.706 30.4661 809.539 30.7266C809.372 30.987 809.25 31.2865 809.172 31.625C809.094 31.9583 809.055 32.3125 809.055 32.6875ZM821.375 35.3047V31.2734C821.375 30.9714 821.32 30.7109 821.211 30.4922C821.102 30.2734 820.935 30.1042 820.711 29.9844C820.492 29.8646 820.216 29.8047 819.883 29.8047C819.576 29.8047 819.31 29.8568 819.086 29.9609C818.862 30.0651 818.688 30.2057 818.562 30.3828C818.438 30.5599 818.375 30.7604 818.375 30.9844H816.5C816.5 30.651 816.581 30.3281 816.742 30.0156C816.904 29.7031 817.138 29.4245 817.445 29.1797C817.753 28.9349 818.12 28.7422 818.547 28.6016C818.974 28.4609 819.453 28.3906 819.984 28.3906C820.62 28.3906 821.182 28.4974 821.672 28.7109C822.167 28.9245 822.555 29.2474 822.836 29.6797C823.122 30.1068 823.266 30.6432 823.266 31.2891V35.0469C823.266 35.4323 823.292 35.7786 823.344 36.0859C823.401 36.388 823.482 36.651 823.586 36.875V37H821.656C821.568 36.7969 821.497 36.5391 821.445 36.2266C821.398 35.9089 821.375 35.6016 821.375 35.3047ZM821.648 31.8594L821.664 33.0234H820.312C819.964 33.0234 819.656 33.0573 819.391 33.125C819.125 33.1875 818.904 33.2812 818.727 33.4062C818.549 33.5312 818.417 33.6823 818.328 33.8594C818.24 34.0365 818.195 34.237 818.195 34.4609C818.195 34.6849 818.247 34.8906 818.352 35.0781C818.456 35.2604 818.607 35.4036 818.805 35.5078C819.008 35.612 819.253 35.6641 819.539 35.6641C819.924 35.6641 820.26 35.5859 820.547 35.4297C820.839 35.2682 821.068 35.0729 821.234 34.8438C821.401 34.6094 821.49 34.388 821.5 34.1797L822.109 35.0156C822.047 35.2292 821.94 35.4583 821.789 35.7031C821.638 35.9479 821.44 36.1823 821.195 36.4062C820.956 36.625 820.667 36.8047 820.328 36.9453C819.995 37.0859 819.609 37.1562 819.172 37.1562C818.62 37.1562 818.128 37.0469 817.695 36.8281C817.263 36.6042 816.924 36.3047 816.68 35.9297C816.435 35.5495 816.312 35.1198 816.312 34.6406C816.312 34.1927 816.396 33.7969 816.562 33.4531C816.734 33.1042 816.984 32.8125 817.312 32.5781C817.646 32.3438 818.052 32.1667 818.531 32.0469C819.01 31.9219 819.557 31.8594 820.172 31.8594H821.648ZM830.391 35.25V25H832.281V37H830.57L830.391 35.25ZM824.891 32.8672V32.7031C824.891 32.0625 824.966 31.4792 825.117 30.9531C825.268 30.4219 825.487 29.9661 825.773 29.5859C826.06 29.2005 826.409 28.9062 826.82 28.7031C827.232 28.4948 827.695 28.3906 828.211 28.3906C828.721 28.3906 829.169 28.4896 829.555 28.6875C829.94 28.8854 830.268 29.1693 830.539 29.5391C830.81 29.9036 831.026 30.3411 831.188 30.8516C831.349 31.3568 831.464 31.9193 831.531 32.5391V33.0625C831.464 33.6667 831.349 34.2188 831.188 34.7188C831.026 35.2188 830.81 35.651 830.539 36.0156C830.268 36.3802 829.938 36.6615 829.547 36.8594C829.161 37.0573 828.711 37.1562 828.195 37.1562C827.685 37.1562 827.224 37.0495 826.812 36.8359C826.406 36.6224 826.06 36.3229 825.773 35.9375C825.487 35.5521 825.268 35.099 825.117 34.5781C824.966 34.0521 824.891 33.4818 824.891 32.8672ZM826.773 32.7031V32.8672C826.773 33.2526 826.807 33.612 826.875 33.9453C826.948 34.2786 827.06 34.5729 827.211 34.8281C827.362 35.0781 827.557 35.276 827.797 35.4219C828.042 35.5625 828.333 35.6328 828.672 35.6328C829.099 35.6328 829.451 35.5391 829.727 35.3516C830.003 35.1641 830.219 34.9115 830.375 34.5938C830.536 34.2708 830.646 33.9115 830.703 33.5156V32.1016C830.672 31.7943 830.607 31.5078 830.508 31.2422C830.414 30.9766 830.286 30.7448 830.125 30.5469C829.964 30.3438 829.763 30.1875 829.523 30.0781C829.289 29.9635 829.01 29.9062 828.688 29.9062C828.344 29.9062 828.052 29.9792 827.812 30.125C827.573 30.2708 827.375 30.4714 827.219 30.7266C827.068 30.9818 826.956 31.2786 826.883 31.6172C826.81 31.9557 826.773 32.3177 826.773 32.7031Z" fill="#1A1A1A"/>
<path d="M687.764 119.542V121H682.41V119.542H687.764ZM682.922 110.336V121H681.084V110.336H682.922ZM693.477 119.411V115.631C693.477 115.348 693.425 115.104 693.323 114.899C693.22 114.694 693.064 114.535 692.854 114.423C692.649 114.311 692.39 114.254 692.078 114.254C691.79 114.254 691.541 114.303 691.331 114.401C691.121 114.499 690.957 114.63 690.84 114.796C690.723 114.962 690.664 115.15 690.664 115.36H688.906C688.906 115.048 688.982 114.745 689.133 114.452C689.285 114.159 689.504 113.898 689.792 113.668C690.081 113.439 690.425 113.258 690.825 113.126C691.226 112.995 691.675 112.929 692.173 112.929C692.769 112.929 693.296 113.029 693.755 113.229C694.219 113.429 694.583 113.732 694.846 114.137C695.115 114.538 695.249 115.041 695.249 115.646V119.169C695.249 119.53 695.273 119.855 695.322 120.143C695.376 120.426 695.452 120.673 695.549 120.883V121H693.74C693.657 120.81 693.591 120.568 693.542 120.275C693.499 119.977 693.477 119.689 693.477 119.411ZM693.733 116.181L693.748 117.272H692.48C692.153 117.272 691.865 117.304 691.616 117.367C691.367 117.426 691.16 117.514 690.994 117.631C690.828 117.748 690.703 117.89 690.62 118.056C690.537 118.222 690.496 118.41 690.496 118.62C690.496 118.83 690.544 119.022 690.642 119.198C690.74 119.369 690.881 119.503 691.067 119.601C691.257 119.699 691.487 119.748 691.755 119.748C692.117 119.748 692.432 119.674 692.7 119.528C692.974 119.376 693.188 119.193 693.345 118.979C693.501 118.759 693.584 118.551 693.594 118.356L694.165 119.14C694.106 119.34 694.006 119.555 693.865 119.784C693.723 120.014 693.538 120.233 693.308 120.443C693.083 120.648 692.812 120.817 692.495 120.949C692.183 121.081 691.821 121.146 691.411 121.146C690.894 121.146 690.432 121.044 690.027 120.839C689.622 120.629 689.304 120.348 689.075 119.997C688.845 119.64 688.73 119.237 688.73 118.788C688.73 118.368 688.809 117.997 688.965 117.675C689.126 117.348 689.36 117.074 689.668 116.854C689.98 116.635 690.361 116.469 690.811 116.356C691.26 116.239 691.772 116.181 692.349 116.181H693.733ZM697.102 109.75H698.867V119.308L698.699 121H697.102V109.75ZM704.038 116.964V117.118C704.038 117.704 703.972 118.244 703.84 118.737C703.713 119.225 703.518 119.65 703.254 120.011C702.996 120.373 702.673 120.653 702.288 120.854C701.907 121.049 701.465 121.146 700.962 121.146C700.469 121.146 700.039 121.054 699.673 120.868C699.307 120.683 698.999 120.419 698.75 120.077C698.506 119.735 698.308 119.328 698.157 118.854C698.005 118.38 697.898 117.858 697.834 117.287V116.796C697.898 116.22 698.005 115.697 698.157 115.229C698.308 114.755 698.506 114.347 698.75 114.005C698.999 113.659 699.304 113.393 699.666 113.207C700.032 113.021 700.459 112.929 700.947 112.929C701.455 112.929 701.902 113.026 702.288 113.222C702.678 113.417 703.003 113.695 703.262 114.057C703.521 114.413 703.713 114.838 703.84 115.331C703.972 115.824 704.038 116.369 704.038 116.964ZM702.273 117.118V116.964C702.273 116.608 702.244 116.273 702.185 115.961C702.126 115.644 702.029 115.365 701.892 115.126C701.76 114.887 701.58 114.699 701.35 114.562C701.125 114.42 700.845 114.35 700.508 114.35C700.195 114.35 699.927 114.403 699.702 114.511C699.478 114.618 699.29 114.765 699.138 114.95C698.987 115.136 698.867 115.351 698.779 115.595C698.696 115.839 698.64 116.103 698.611 116.386V117.711C698.655 118.078 698.748 118.415 698.889 118.722C699.036 119.025 699.241 119.269 699.504 119.455C699.768 119.635 700.107 119.726 700.522 119.726C700.85 119.726 701.125 119.66 701.35 119.528C701.575 119.396 701.753 119.213 701.885 118.979C702.021 118.739 702.119 118.461 702.178 118.144C702.241 117.826 702.273 117.484 702.273 117.118ZM709.026 121.146C708.44 121.146 707.91 121.051 707.437 120.861C706.968 120.666 706.567 120.395 706.235 120.048C705.908 119.701 705.657 119.293 705.481 118.825C705.305 118.356 705.217 117.851 705.217 117.309V117.016C705.217 116.396 705.308 115.834 705.488 115.331C705.669 114.828 705.92 114.398 706.243 114.042C706.565 113.681 706.946 113.405 707.385 113.214C707.825 113.024 708.301 112.929 708.813 112.929C709.38 112.929 709.875 113.024 710.3 113.214C710.725 113.405 711.077 113.673 711.355 114.02C711.638 114.362 711.848 114.77 711.985 115.243C712.126 115.717 712.197 116.239 712.197 116.811V117.565H706.074V116.298H710.454V116.159C710.444 115.841 710.381 115.543 710.264 115.265C710.151 114.987 709.978 114.762 709.744 114.591C709.509 114.42 709.197 114.335 708.806 114.335C708.513 114.335 708.252 114.398 708.022 114.525C707.798 114.647 707.61 114.826 707.458 115.06C707.307 115.294 707.19 115.578 707.107 115.91C707.029 116.237 706.99 116.605 706.99 117.016V117.309C706.99 117.655 707.036 117.978 707.129 118.275C707.227 118.568 707.368 118.825 707.554 119.044C707.739 119.264 707.964 119.438 708.228 119.564C708.491 119.687 708.792 119.748 709.128 119.748C709.553 119.748 709.932 119.662 710.264 119.491C710.596 119.32 710.884 119.079 711.128 118.766L712.058 119.667C711.887 119.916 711.665 120.155 711.392 120.385C711.118 120.609 710.784 120.792 710.388 120.934C709.998 121.076 709.543 121.146 709.026 121.146ZM715.464 109.75V121H713.691V109.75H715.464Z" fill="#505050"/>
<rect x="680.5" y="132.5" width="123" height="39" rx="3.5" fill="#F8F8F8"/>
<path d="M705.25 157.472H694.75C694.336 157.472 694 157.808 694 158.223C694 158.663 694.336 159 694.75 159H705.25C705.664 159 706 158.664 706 158.249C706 157.834 705.666 157.472 705.25 157.472ZM696.546 150.509L699.25 147.634V155.247C699.25 155.661 699.586 155.998 700 155.998C700.414 155.998 700.75 155.661 700.75 155.247V147.634L703.454 150.509C703.603 150.666 703.8 150.744 704 150.744C704.185 150.744 704.369 150.676 704.514 150.54C704.816 150.256 704.83 149.781 704.546 149.479L700.546 145.226C700.263 144.923 699.737 144.923 699.454 145.226L695.454 149.479C695.17 149.781 695.185 150.256 695.486 150.541C695.787 150.825 696.262 150.784 696.546 150.509Z" fill="#737373"/>
<path d="M723.068 146.336H724.899V153.462C724.899 154.273 724.723 154.952 724.372 155.499C724.02 156.045 723.542 156.458 722.936 156.736C722.335 157.01 721.664 157.146 720.922 157.146C720.155 157.146 719.472 157.01 718.871 156.736C718.271 156.458 717.797 156.045 717.45 155.499C717.108 154.952 716.938 154.273 716.938 153.462V146.336H718.769V153.462C718.769 153.975 718.856 154.397 719.032 154.729C719.208 155.057 719.457 155.298 719.779 155.455C720.102 155.611 720.482 155.689 720.922 155.689C721.361 155.689 721.74 155.611 722.057 155.455C722.379 155.298 722.628 155.057 722.804 154.729C722.98 154.397 723.068 153.975 723.068 153.462V146.336ZM728.495 150.599V160.047H726.73V149.075H728.356L728.495 150.599ZM733.659 152.964V153.118C733.659 153.694 733.59 154.229 733.454 154.722C733.322 155.21 733.124 155.638 732.86 156.004C732.602 156.365 732.282 156.646 731.901 156.846C731.52 157.046 731.081 157.146 730.583 157.146C730.089 157.146 729.657 157.056 729.286 156.875C728.92 156.69 728.61 156.429 728.356 156.092C728.102 155.755 727.897 155.359 727.741 154.905C727.589 154.446 727.482 153.943 727.418 153.396V152.803C727.482 152.222 727.589 151.695 727.741 151.221C727.897 150.748 728.102 150.34 728.356 149.998C728.61 149.656 728.92 149.393 729.286 149.207C729.652 149.021 730.08 148.929 730.568 148.929C731.066 148.929 731.508 149.026 731.894 149.222C732.279 149.412 732.604 149.686 732.868 150.042C733.131 150.394 733.329 150.818 733.461 151.316C733.593 151.81 733.659 152.359 733.659 152.964ZM731.894 153.118V152.964C731.894 152.598 731.859 152.259 731.791 151.946C731.723 151.629 731.615 151.351 731.469 151.111C731.322 150.872 731.134 150.687 730.905 150.555C730.68 150.418 730.409 150.35 730.092 150.35C729.779 150.35 729.511 150.403 729.286 150.511C729.062 150.613 728.874 150.757 728.722 150.943C728.571 151.128 728.454 151.346 728.371 151.595C728.288 151.839 728.229 152.105 728.195 152.393V153.814C728.253 154.166 728.354 154.488 728.495 154.781C728.637 155.074 728.837 155.308 729.096 155.484C729.359 155.655 729.696 155.74 730.106 155.74C730.424 155.74 730.695 155.672 730.919 155.535C731.144 155.398 731.327 155.21 731.469 154.971C731.615 154.727 731.723 154.446 731.791 154.129C731.859 153.812 731.894 153.475 731.894 153.118ZM737.05 145.75V157H735.277V145.75H737.05ZM738.646 153.125V152.957C738.646 152.386 738.729 151.856 738.896 151.368C739.062 150.875 739.301 150.447 739.613 150.086C739.931 149.72 740.316 149.437 740.771 149.236C741.229 149.031 741.747 148.929 742.323 148.929C742.904 148.929 743.422 149.031 743.876 149.236C744.335 149.437 744.723 149.72 745.041 150.086C745.358 150.447 745.6 150.875 745.766 151.368C745.932 151.856 746.015 152.386 746.015 152.957V153.125C746.015 153.697 745.932 154.227 745.766 154.715C745.6 155.203 745.358 155.63 745.041 155.997C744.723 156.358 744.337 156.641 743.883 156.846C743.429 157.046 742.914 157.146 742.338 157.146C741.757 157.146 741.237 157.046 740.778 156.846C740.324 156.641 739.938 156.358 739.621 155.997C739.303 155.63 739.062 155.203 738.896 154.715C738.729 154.227 738.646 153.697 738.646 153.125ZM740.412 152.957V153.125C740.412 153.482 740.448 153.819 740.521 154.136C740.595 154.454 740.709 154.732 740.866 154.971C741.022 155.21 741.222 155.398 741.466 155.535C741.71 155.672 742.001 155.74 742.338 155.74C742.665 155.74 742.948 155.672 743.188 155.535C743.432 155.398 743.632 155.21 743.788 154.971C743.944 154.732 744.059 154.454 744.132 154.136C744.21 153.819 744.25 153.482 744.25 153.125V152.957C744.25 152.605 744.21 152.273 744.132 151.961C744.059 151.644 743.942 151.363 743.781 151.119C743.625 150.875 743.424 150.684 743.18 150.547C742.941 150.406 742.655 150.335 742.323 150.335C741.991 150.335 741.703 150.406 741.459 150.547C741.22 150.684 741.022 150.875 740.866 151.119C740.709 151.363 740.595 151.644 740.521 151.961C740.448 152.273 740.412 152.605 740.412 152.957ZM751.962 155.411V151.631C751.962 151.348 751.911 151.104 751.808 150.899C751.706 150.694 751.549 150.535 751.339 150.423C751.134 150.311 750.875 150.254 750.563 150.254C750.275 150.254 750.026 150.303 749.816 150.401C749.606 150.499 749.442 150.63 749.325 150.796C749.208 150.962 749.149 151.15 749.149 151.36H747.392C747.392 151.048 747.467 150.745 747.619 150.452C747.77 150.159 747.99 149.898 748.278 149.668C748.566 149.439 748.91 149.258 749.311 149.126C749.711 148.995 750.16 148.929 750.658 148.929C751.254 148.929 751.781 149.029 752.24 149.229C752.704 149.429 753.068 149.732 753.332 150.137C753.6 150.538 753.734 151.041 753.734 151.646V155.169C753.734 155.53 753.759 155.855 753.808 156.143C753.861 156.426 753.937 156.673 754.035 156.883V157H752.226C752.143 156.81 752.077 156.568 752.028 156.275C751.984 155.977 751.962 155.689 751.962 155.411ZM752.218 152.181L752.233 153.272H750.966C750.639 153.272 750.351 153.304 750.102 153.367C749.853 153.426 749.645 153.514 749.479 153.631C749.313 153.748 749.188 153.89 749.105 154.056C749.022 154.222 748.981 154.41 748.981 154.62C748.981 154.83 749.03 155.022 749.127 155.198C749.225 155.369 749.367 155.503 749.552 155.601C749.743 155.699 749.972 155.748 750.241 155.748C750.602 155.748 750.917 155.674 751.186 155.528C751.459 155.376 751.674 155.193 751.83 154.979C751.986 154.759 752.069 154.551 752.079 154.356L752.65 155.14C752.592 155.34 752.492 155.555 752.35 155.784C752.208 156.014 752.023 156.233 751.793 156.443C751.569 156.648 751.298 156.817 750.98 156.949C750.668 157.081 750.307 157.146 749.896 157.146C749.379 157.146 748.917 157.044 748.512 156.839C748.107 156.629 747.79 156.348 747.56 155.997C747.331 155.64 747.216 155.237 747.216 154.788C747.216 154.368 747.294 153.997 747.45 153.675C747.611 153.348 747.846 153.074 748.153 152.854C748.466 152.635 748.847 152.469 749.296 152.356C749.745 152.239 750.258 152.181 750.834 152.181H752.218ZM760.414 155.359V145.75H762.187V157H760.583L760.414 155.359ZM755.258 153.125V152.972C755.258 152.371 755.329 151.824 755.47 151.331C755.612 150.833 755.817 150.406 756.085 150.049C756.354 149.688 756.681 149.412 757.067 149.222C757.453 149.026 757.887 148.929 758.371 148.929C758.849 148.929 759.269 149.021 759.63 149.207C759.992 149.393 760.299 149.659 760.553 150.005C760.807 150.347 761.01 150.757 761.161 151.236C761.312 151.709 761.42 152.237 761.483 152.818V153.309C761.42 153.875 761.312 154.393 761.161 154.861C761.01 155.33 760.807 155.735 760.553 156.077C760.299 156.419 759.989 156.683 759.623 156.868C759.262 157.054 758.839 157.146 758.356 157.146C757.877 157.146 757.445 157.046 757.06 156.846C756.679 156.646 756.354 156.365 756.085 156.004C755.817 155.643 755.612 155.218 755.47 154.729C755.329 154.236 755.258 153.702 755.258 153.125ZM757.023 152.972V153.125C757.023 153.487 757.055 153.824 757.118 154.136C757.187 154.449 757.292 154.725 757.433 154.964C757.575 155.198 757.758 155.384 757.982 155.521C758.212 155.652 758.485 155.718 758.803 155.718C759.203 155.718 759.533 155.63 759.792 155.455C760.05 155.279 760.253 155.042 760.399 154.744C760.551 154.441 760.653 154.104 760.707 153.733V152.408C760.678 152.12 760.617 151.851 760.524 151.602C760.436 151.353 760.316 151.136 760.165 150.95C760.014 150.76 759.826 150.613 759.601 150.511C759.381 150.403 759.12 150.35 758.817 150.35C758.495 150.35 758.222 150.418 757.997 150.555C757.772 150.691 757.587 150.879 757.44 151.119C757.299 151.358 757.194 151.636 757.125 151.954C757.057 152.271 757.023 152.61 757.023 152.972ZM770.155 157H768.39V148.313C768.39 147.723 768.5 147.227 768.72 146.827C768.944 146.421 769.264 146.116 769.679 145.911C770.094 145.701 770.585 145.596 771.151 145.596C771.327 145.596 771.5 145.608 771.671 145.633C771.842 145.652 772.008 145.684 772.169 145.728L772.125 147.09C772.028 147.066 771.92 147.049 771.803 147.039C771.691 147.029 771.569 147.024 771.437 147.024C771.168 147.024 770.937 147.076 770.741 147.178C770.551 147.276 770.404 147.42 770.302 147.61C770.204 147.801 770.155 148.035 770.155 148.313V157ZM771.789 149.075V150.364H767.174V149.075H771.789ZM774.96 149.075V157H773.188V149.075H774.96ZM773.07 146.995C773.07 146.727 773.158 146.504 773.334 146.329C773.515 146.148 773.764 146.058 774.081 146.058C774.394 146.058 774.64 146.148 774.821 146.329C775.001 146.504 775.092 146.727 775.092 146.995C775.092 147.259 775.001 147.479 774.821 147.654C774.64 147.83 774.394 147.918 774.081 147.918C773.764 147.918 773.515 147.83 773.334 147.654C773.158 147.479 773.07 147.259 773.07 146.995ZM778.783 145.75V157H777.011V145.75H778.783ZM784.21 157.146C783.625 157.146 783.095 157.051 782.621 156.861C782.152 156.666 781.752 156.395 781.42 156.048C781.093 155.701 780.841 155.293 780.666 154.825C780.49 154.356 780.402 153.851 780.402 153.309V153.016C780.402 152.396 780.492 151.834 780.673 151.331C780.854 150.828 781.105 150.398 781.427 150.042C781.75 149.681 782.13 149.405 782.57 149.214C783.009 149.024 783.485 148.929 783.998 148.929C784.564 148.929 785.06 149.024 785.485 149.214C785.91 149.405 786.261 149.673 786.54 150.02C786.823 150.362 787.033 150.77 787.169 151.243C787.311 151.717 787.382 152.239 787.382 152.811V153.565H781.259V152.298H785.639V152.159C785.629 151.841 785.565 151.543 785.448 151.265C785.336 150.987 785.163 150.762 784.928 150.591C784.694 150.42 784.381 150.335 783.991 150.335C783.698 150.335 783.437 150.398 783.207 150.525C782.982 150.647 782.794 150.826 782.643 151.06C782.492 151.294 782.375 151.578 782.292 151.91C782.213 152.237 782.174 152.605 782.174 153.016V153.309C782.174 153.655 782.221 153.978 782.313 154.275C782.411 154.568 782.553 154.825 782.738 155.044C782.924 155.264 783.148 155.438 783.412 155.564C783.676 155.687 783.976 155.748 784.313 155.748C784.738 155.748 785.116 155.662 785.448 155.491C785.78 155.32 786.068 155.079 786.312 154.766L787.243 155.667C787.072 155.916 786.85 156.155 786.576 156.385C786.303 156.609 785.968 156.792 785.573 156.934C785.182 157.076 784.728 157.146 784.21 157.146Z" fill="#737373"/>
<rect x="680.5" y="132.5" width="123" height="39" rx="3.5" stroke="#E6E6E6" stroke-dasharray="4 3"/>
<path d="M687.109 184.731V185.728H682.107V184.731H687.109ZM682.298 180.758V190H681.073V180.758H682.298ZM688.176 180.758V190H686.957V180.758H688.176ZM693.025 190.127C692.547 190.127 692.113 190.047 691.724 189.886C691.339 189.721 691.007 189.49 690.728 189.194C690.452 188.898 690.241 188.546 690.093 188.14C689.945 187.734 689.871 187.29 689.871 186.807V186.541C689.871 185.982 689.953 185.485 690.118 185.049C690.283 184.609 690.507 184.236 690.791 183.932C691.075 183.627 691.396 183.396 691.756 183.24C692.116 183.083 692.488 183.005 692.873 183.005C693.364 183.005 693.787 183.09 694.143 183.259C694.502 183.428 694.796 183.665 695.025 183.97C695.253 184.27 695.423 184.626 695.533 185.036C695.643 185.442 695.698 185.887 695.698 186.369V186.896H690.569V185.938H694.523V185.849C694.507 185.544 694.443 185.248 694.333 184.96C694.227 184.672 694.058 184.435 693.825 184.249C693.592 184.063 693.275 183.97 692.873 183.97C692.606 183.97 692.361 184.027 692.137 184.141C691.912 184.251 691.72 184.416 691.559 184.636C691.398 184.856 691.273 185.125 691.185 185.442C691.096 185.76 691.051 186.126 691.051 186.541V186.807C691.051 187.133 691.096 187.44 691.185 187.728C691.278 188.011 691.411 188.261 691.584 188.477C691.762 188.692 691.976 188.862 692.226 188.984C692.479 189.107 692.767 189.168 693.089 189.168C693.504 189.168 693.855 189.084 694.143 188.915C694.43 188.745 694.682 188.519 694.898 188.235L695.609 188.8C695.461 189.025 695.272 189.238 695.044 189.441C694.815 189.645 694.534 189.81 694.2 189.937C693.87 190.063 693.478 190.127 693.025 190.127ZM698.345 180.25V190H697.164V180.25H698.345ZM701.404 184.452V192.641H700.224V183.132H701.303L701.404 184.452ZM706.032 186.509V186.642C706.032 187.141 705.972 187.605 705.854 188.032C705.736 188.455 705.562 188.824 705.333 189.137C705.109 189.45 704.832 189.693 704.502 189.867C704.172 190.04 703.793 190.127 703.366 190.127C702.93 190.127 702.545 190.055 702.21 189.911C701.876 189.767 701.593 189.558 701.36 189.283C701.127 189.008 700.941 188.678 700.801 188.292C700.666 187.907 700.573 187.474 700.522 186.991V186.28C700.573 185.772 700.668 185.318 700.808 184.916C700.947 184.514 701.131 184.171 701.36 183.887C701.593 183.599 701.874 183.382 702.204 183.233C702.534 183.081 702.915 183.005 703.347 183.005C703.778 183.005 704.161 183.09 704.496 183.259C704.83 183.424 705.111 183.661 705.34 183.97C705.568 184.279 705.74 184.649 705.854 185.081C705.972 185.508 706.032 185.984 706.032 186.509ZM704.851 186.642V186.509C704.851 186.166 704.815 185.844 704.743 185.544C704.671 185.239 704.559 184.973 704.407 184.744C704.259 184.511 704.068 184.329 703.835 184.198C703.603 184.063 703.326 183.995 703.004 183.995C702.708 183.995 702.45 184.046 702.229 184.147C702.014 184.249 701.83 184.387 701.677 184.56C701.525 184.729 701.4 184.924 701.303 185.144C701.21 185.36 701.14 185.584 701.093 185.817V187.461C701.178 187.757 701.296 188.036 701.449 188.299C701.601 188.557 701.804 188.766 702.058 188.927C702.312 189.084 702.632 189.162 703.017 189.162C703.334 189.162 703.607 189.097 703.835 188.965C704.068 188.83 704.259 188.646 704.407 188.413C704.559 188.18 704.671 187.914 704.743 187.613C704.815 187.309 704.851 186.985 704.851 186.642ZM713.63 183.132V184.033H709.917V183.132H713.63ZM711.173 181.462H712.348V188.299C712.348 188.532 712.384 188.707 712.456 188.826C712.528 188.944 712.621 189.022 712.735 189.061C712.849 189.099 712.972 189.118 713.103 189.118C713.2 189.118 713.302 189.109 713.408 189.092C713.518 189.071 713.6 189.054 713.655 189.042L713.662 190C713.569 190.03 713.446 190.057 713.293 190.083C713.145 190.112 712.965 190.127 712.754 190.127C712.466 190.127 712.202 190.07 711.96 189.956C711.719 189.841 711.527 189.651 711.383 189.384C711.243 189.113 711.173 188.75 711.173 188.292V181.462ZM717.857 190.127C717.379 190.127 716.945 190.047 716.556 189.886C716.171 189.721 715.839 189.49 715.56 189.194C715.285 188.898 715.073 188.546 714.925 188.14C714.777 187.734 714.703 187.29 714.703 186.807V186.541C714.703 185.982 714.785 185.485 714.95 185.049C715.115 184.609 715.34 184.236 715.623 183.932C715.907 183.627 716.228 183.396 716.588 183.24C716.948 183.083 717.32 183.005 717.705 183.005C718.196 183.005 718.619 183.09 718.975 183.259C719.334 183.428 719.628 183.665 719.857 183.97C720.085 184.27 720.255 184.626 720.365 185.036C720.475 185.442 720.53 185.887 720.53 186.369V186.896H715.401V185.938H719.355V185.849C719.339 185.544 719.275 185.248 719.165 184.96C719.059 184.672 718.89 184.435 718.657 184.249C718.424 184.063 718.107 183.97 717.705 183.97C717.438 183.97 717.193 184.027 716.969 184.141C716.744 184.251 716.552 184.416 716.391 184.636C716.23 184.856 716.105 185.125 716.017 185.442C715.928 185.76 715.883 186.126 715.883 186.541V186.807C715.883 187.133 715.928 187.44 716.017 187.728C716.11 188.011 716.243 188.261 716.417 188.477C716.594 188.692 716.808 188.862 717.058 188.984C717.312 189.107 717.599 189.168 717.921 189.168C718.336 189.168 718.687 189.084 718.975 188.915C719.262 188.745 719.514 188.519 719.73 188.235L720.441 188.8C720.293 189.025 720.104 189.238 719.876 189.441C719.647 189.645 719.366 189.81 719.032 189.937C718.702 190.063 718.31 190.127 717.857 190.127ZM722.694 183.132L724.199 185.633L725.722 183.132H727.1L724.853 186.521L727.169 190H725.811L724.224 187.423L722.637 190H721.272L723.583 186.521L721.342 183.132H722.694ZM731.226 183.132V184.033H727.512V183.132H731.226ZM728.769 181.462H729.943V188.299C729.943 188.532 729.979 188.707 730.051 188.826C730.123 188.944 730.216 189.022 730.331 189.061C730.445 189.099 730.568 189.118 730.699 189.118C730.796 189.118 730.898 189.109 731.003 189.092C731.113 189.071 731.196 189.054 731.251 189.042L731.257 190C731.164 190.03 731.042 190.057 730.889 190.083C730.741 190.112 730.561 190.127 730.35 190.127C730.062 190.127 729.797 190.07 729.556 189.956C729.315 189.841 729.122 189.651 728.979 189.384C728.839 189.113 728.769 188.75 728.769 188.292V181.462Z" fill="#505050"/>
</g>
<rect x="0.5" y="0.5" width="1279" height="235" rx="15.5" stroke="#E6E6E6"/>
<defs>
<clipPath id="clip0_7327_84037">
<rect width="1280" height="236" rx="16" fill="white"/>
</clipPath>
<clipPath id="clip1_7327_84037">
<path d="M0 0H640V236H0V0Z" fill="white"/>
</clipPath>
</defs>
</svg>
