<svg width="602" height="376" viewBox="0 0 602 376" fill="none" xmlns="http://www.w3.org/2000/svg">
<g clip-path="url(#clip0_9569_2502)">
<rect width="602" height="376" rx="16" fill="#F8F8F8"/>
<g clip-path="url(#clip1_9569_2502)">
<path d="M40 -28C40 -32.4183 43.5817 -36 48 -36H554C558.418 -36 562 -32.4183 562 -28V292C562 296.418 558.418 300 554 300H48C43.5817 300 40 296.418 40 292V-28Z" fill="white"/>
<g filter="url(#filter0_dd_9569_2502)">
<rect width="522" height="64" transform="translate(40 -36)" fill="white"/>
<rect x="72" y="-14" width="20" height="20" rx="4" fill="url(#paint0_linear_9569_2502)"/>
<rect x="124" y="-14" width="68" height="20" rx="4" fill="url(#paint1_linear_9569_2502)"/>
<rect x="224" y="-14" width="202" height="20" rx="4" fill="url(#paint2_linear_9569_2502)"/>
<rect x="458" y="-20" width="32" height="32" rx="4" fill="url(#paint3_linear_9569_2502)"/>
<rect x="498" y="-20" width="32" height="32" rx="4" fill="url(#paint4_linear_9569_2502)"/>
</g>
<g filter="url(#filter1_dd_9569_2502)">
<rect width="522" height="64" transform="translate(40 28)" fill="white"/>
<rect x="72" y="50" width="20" height="20" rx="4" fill="url(#paint5_linear_9569_2502)"/>
<rect x="124" y="50" width="68" height="20" rx="4" fill="url(#paint6_linear_9569_2502)"/>
<rect x="224" y="50" width="202" height="20" rx="4" fill="url(#paint7_linear_9569_2502)"/>
<rect x="458" y="44" width="32" height="32" rx="4" fill="url(#paint8_linear_9569_2502)"/>
<rect x="498" y="44" width="32" height="32" rx="4" fill="url(#paint9_linear_9569_2502)"/>
</g>
<g filter="url(#filter2_dd_9569_2502)">
<rect width="522" height="64" transform="translate(40 92)" fill="white"/>
<rect x="72" y="114" width="20" height="20" rx="4" fill="url(#paint10_linear_9569_2502)"/>
<rect x="124" y="114" width="68" height="20" rx="4" fill="url(#paint11_linear_9569_2502)"/>
<rect x="224" y="114" width="202" height="20" rx="4" fill="url(#paint12_linear_9569_2502)"/>
<rect x="458" y="108" width="32" height="32" rx="4" fill="url(#paint13_linear_9569_2502)"/>
<rect x="498" y="108" width="32" height="32" rx="4" fill="url(#paint14_linear_9569_2502)"/>
</g>
<g filter="url(#filter3_dd_9569_2502)">
<rect width="522" height="64" transform="translate(40 156)" fill="white"/>
<rect x="72" y="178" width="20" height="20" rx="4" fill="url(#paint15_linear_9569_2502)"/>
<rect x="124" y="178" width="68" height="20" rx="4" fill="url(#paint16_linear_9569_2502)"/>
<rect x="224" y="178" width="202" height="20" rx="4" fill="url(#paint17_linear_9569_2502)"/>
<rect x="458" y="172" width="32" height="32" rx="4" fill="url(#paint18_linear_9569_2502)"/>
<rect x="498" y="172" width="32" height="32" rx="4" fill="url(#paint19_linear_9569_2502)"/>
</g>
<rect x="64" y="250" width="80" height="20" rx="4" fill="url(#paint20_linear_9569_2502)"/>
<path d="M308.25 265C308.047 265 307.867 264.933 307.711 264.799L303.211 260.513C303.07 260.365 303 260.193 303 260C303 259.807 303.07 259.635 303.211 259.487L307.711 255.201C307.867 255.067 308.047 255 308.25 255C308.453 255 308.633 255.067 308.789 255.201C308.93 255.35 309 255.521 309 255.714C309 255.908 308.93 256.079 308.789 256.228L304.805 260L308.789 263.772C308.93 263.921 309 264.092 309 264.286C309 264.479 308.93 264.65 308.789 264.799C308.633 264.933 308.453 265 308.25 265Z" fill="#AAAAAA"/>
<rect x="326" y="244" width="32" height="32" rx="4" fill="#F2F2F2"/>
<path d="M343.181 254.726V264H341.651V256.542L339.385 257.31V256.046L342.997 254.726H343.181Z" fill="#1A1A1A"/>
<path d="M381.199 262.781V264H375.004V262.953L378.013 259.671C378.343 259.299 378.603 258.977 378.793 258.706C378.984 258.435 379.117 258.192 379.193 257.976C379.274 257.756 379.314 257.542 379.314 257.335C379.314 257.043 379.259 256.787 379.149 256.567C379.043 256.343 378.887 256.167 378.679 256.04C378.472 255.909 378.22 255.843 377.924 255.843C377.581 255.843 377.293 255.917 377.061 256.065C376.828 256.214 376.652 256.419 376.534 256.681C376.415 256.939 376.356 257.236 376.356 257.57H374.826C374.826 257.032 374.949 256.542 375.194 256.097C375.44 255.649 375.795 255.293 376.261 255.031C376.726 254.764 377.287 254.631 377.943 254.631C378.561 254.631 379.085 254.735 379.517 254.942C379.949 255.149 380.277 255.443 380.501 255.824C380.729 256.205 380.844 256.656 380.844 257.176C380.844 257.464 380.797 257.75 380.704 258.033C380.611 258.317 380.478 258.6 380.304 258.884C380.135 259.163 379.934 259.444 379.701 259.728C379.468 260.007 379.212 260.291 378.933 260.579L376.934 262.781H381.199Z" fill="#505050"/>
<path d="M412.8 258.687H413.714C414.07 258.687 414.364 258.626 414.597 258.503C414.834 258.38 415.009 258.211 415.124 257.995C415.238 257.779 415.295 257.532 415.295 257.252C415.295 256.96 415.242 256.711 415.136 256.503C415.035 256.292 414.878 256.129 414.667 256.015C414.459 255.9 414.195 255.843 413.873 255.843C413.602 255.843 413.357 255.898 413.137 256.008C412.921 256.114 412.75 256.266 412.623 256.465C412.496 256.66 412.432 256.893 412.432 257.164H410.896C410.896 256.673 411.025 256.237 411.283 255.856C411.541 255.475 411.893 255.177 412.337 254.961C412.785 254.741 413.289 254.631 413.848 254.631C414.444 254.631 414.965 254.73 415.409 254.929C415.858 255.124 416.207 255.416 416.457 255.805C416.706 256.194 416.831 256.677 416.831 257.252C416.831 257.515 416.77 257.781 416.647 258.052C416.524 258.323 416.342 258.571 416.101 258.795C415.86 259.015 415.559 259.195 415.2 259.334C414.84 259.47 414.423 259.538 413.949 259.538H412.8V258.687ZM412.8 259.88V259.042H413.949C414.491 259.042 414.952 259.106 415.333 259.233C415.718 259.36 416.031 259.535 416.272 259.76C416.514 259.98 416.689 260.232 416.799 260.515C416.914 260.799 416.971 261.099 416.971 261.417C416.971 261.848 416.892 262.233 416.736 262.572C416.583 262.906 416.366 263.19 416.082 263.422C415.799 263.655 415.466 263.831 415.085 263.949C414.709 264.068 414.298 264.127 413.854 264.127C413.456 264.127 413.075 264.072 412.711 263.962C412.347 263.852 412.022 263.689 411.734 263.473C411.446 263.253 411.218 262.98 411.048 262.654C410.883 262.324 410.801 261.943 410.801 261.512H412.331C412.331 261.787 412.394 262.03 412.521 262.242C412.652 262.449 412.834 262.612 413.067 262.73C413.304 262.849 413.575 262.908 413.879 262.908C414.201 262.908 414.478 262.851 414.711 262.737C414.944 262.623 415.121 262.453 415.244 262.229C415.371 262.005 415.435 261.734 415.435 261.417C415.435 261.057 415.365 260.765 415.225 260.541C415.085 260.316 414.887 260.151 414.628 260.045C414.37 259.935 414.066 259.88 413.714 259.88H412.8Z" fill="#505050"/>
<path d="M445.423 263.238C445.423 263.001 445.504 262.802 445.665 262.642C445.825 262.477 446.043 262.394 446.318 262.394C446.598 262.394 446.816 262.477 446.972 262.642C447.133 262.802 447.213 263.001 447.213 263.238C447.213 263.475 447.133 263.674 446.972 263.835C446.816 263.996 446.598 264.076 446.318 264.076C446.043 264.076 445.825 263.996 445.665 263.835C445.504 263.674 445.423 263.475 445.423 263.238ZM449.042 263.238C449.042 263.001 449.122 262.802 449.283 262.642C449.444 262.477 449.661 262.394 449.937 262.394C450.216 262.394 450.434 262.477 450.59 262.642C450.751 262.802 450.832 263.001 450.832 263.238C450.832 263.475 450.751 263.674 450.59 263.835C450.434 263.996 450.216 264.076 449.937 264.076C449.661 264.076 449.444 263.996 449.283 263.835C449.122 263.674 449.042 263.475 449.042 263.238ZM452.66 263.238C452.66 263.001 452.74 262.802 452.901 262.642C453.062 262.477 453.28 262.394 453.555 262.394C453.834 262.394 454.052 262.477 454.208 262.642C454.369 262.802 454.45 263.001 454.45 263.238C454.45 263.475 454.369 263.674 454.208 263.835C454.052 263.996 453.834 264.076 453.555 264.076C453.28 264.076 453.062 263.996 452.901 263.835C452.74 263.674 452.66 263.475 452.66 263.238Z" fill="#505050"/>
<path d="M485.505 262.781V264H479.31V262.953L482.318 259.671C482.648 259.299 482.909 258.977 483.099 258.706C483.29 258.435 483.423 258.192 483.499 257.976C483.579 257.756 483.62 257.542 483.62 257.335C483.62 257.043 483.565 256.787 483.455 256.567C483.349 256.343 483.192 256.167 482.985 256.04C482.778 255.909 482.526 255.843 482.229 255.843C481.887 255.843 481.599 255.917 481.366 256.065C481.133 256.214 480.958 256.419 480.839 256.681C480.721 256.939 480.662 257.236 480.662 257.57H479.132C479.132 257.032 479.255 256.542 479.5 256.097C479.745 255.649 480.101 255.293 480.566 255.031C481.032 254.764 481.593 254.631 482.249 254.631C482.866 254.631 483.391 254.735 483.823 254.942C484.254 255.149 484.582 255.443 484.807 255.824C485.035 256.205 485.149 256.656 485.149 257.176C485.149 257.464 485.103 257.75 485.01 258.033C484.917 258.317 484.783 258.6 484.61 258.884C484.441 259.163 484.24 259.444 484.007 259.728C483.774 260.007 483.518 260.291 483.239 260.579L481.239 262.781H485.505ZM490.875 254.726V264H489.345V256.542L487.079 257.31V256.046L490.691 254.726H490.875Z" fill="#505050"/>
<path d="M519.75 265C519.547 265 519.367 264.933 519.211 264.799C519.07 264.65 519 264.479 519 264.286C519 264.092 519.07 263.921 519.211 263.772L523.195 260L519.211 256.228C519.07 256.079 519 255.908 519 255.714C519 255.521 519.07 255.35 519.211 255.201C519.367 255.067 519.547 255 519.75 255C519.953 255 520.133 255.067 520.289 255.201L524.789 259.487C524.93 259.635 525 259.807 525 260C525 260.193 524.93 260.365 524.789 260.513L520.289 264.799C520.133 264.933 519.953 265 519.75 265Z" fill="#505050"/>
</g>
<path d="M48 -35.5H554C558.142 -35.5 561.5 -32.1421 561.5 -28V292C561.5 296.142 558.142 299.5 554 299.5H48C43.8579 299.5 40.5 296.142 40.5 292V-28C40.5 -32.1421 43.8579 -35.5 48 -35.5Z" stroke="#E6E6E6"/>
<line x1="305.5" y1="312" x2="305.5" y2="276" stroke="#0059FF"/>
<rect x="294" y="312" width="24" height="24" rx="12" fill="#0059FF"/>
<path d="M307.181 318.726V328H305.651V320.542L303.385 321.31V320.046L306.997 318.726H307.181Z" fill="white"/>
<line x1="342.5" y1="276" x2="342.5" y2="312" stroke="#0059FF"/>
<rect x="330" y="312" width="24" height="24" rx="12" fill="#0059FF"/>
<path d="M340.8 322.687H341.714C342.07 322.687 342.364 322.626 342.597 322.503C342.834 322.38 343.009 322.211 343.124 321.995C343.238 321.779 343.295 321.532 343.295 321.252C343.295 320.96 343.242 320.711 343.136 320.503C343.035 320.292 342.878 320.129 342.667 320.015C342.459 319.9 342.195 319.843 341.873 319.843C341.602 319.843 341.357 319.898 341.137 320.008C340.921 320.114 340.75 320.266 340.623 320.465C340.496 320.66 340.432 320.893 340.432 321.164H338.896C338.896 320.673 339.025 320.237 339.283 319.856C339.541 319.475 339.893 319.177 340.337 318.961C340.785 318.741 341.289 318.631 341.848 318.631C342.444 318.631 342.965 318.73 343.409 318.929C343.858 319.124 344.207 319.416 344.457 319.805C344.706 320.194 344.831 320.677 344.831 321.252C344.831 321.515 344.77 321.781 344.647 322.052C344.524 322.323 344.342 322.571 344.101 322.795C343.86 323.015 343.559 323.195 343.2 323.334C342.84 323.47 342.423 323.538 341.949 323.538H340.8V322.687ZM340.8 323.88V323.042H341.949C342.491 323.042 342.952 323.106 343.333 323.233C343.718 323.36 344.031 323.535 344.272 323.76C344.514 323.98 344.689 324.232 344.799 324.515C344.914 324.799 344.971 325.099 344.971 325.417C344.971 325.848 344.892 326.233 344.736 326.572C344.583 326.906 344.366 327.19 344.082 327.422C343.799 327.655 343.466 327.831 343.085 327.949C342.709 328.068 342.298 328.127 341.854 328.127C341.456 328.127 341.075 328.072 340.711 327.962C340.347 327.852 340.022 327.689 339.734 327.473C339.446 327.253 339.218 326.98 339.048 326.654C338.883 326.324 338.801 325.943 338.801 325.512H340.331C340.331 325.787 340.394 326.03 340.521 326.242C340.652 326.449 340.834 326.612 341.067 326.73C341.304 326.849 341.575 326.908 341.879 326.908C342.201 326.908 342.478 326.851 342.711 326.737C342.944 326.623 343.121 326.453 343.244 326.229C343.371 326.005 343.435 325.734 343.435 325.417C343.435 325.057 343.365 324.765 343.225 324.541C343.085 324.316 342.887 324.151 342.628 324.045C342.37 323.935 342.066 323.88 341.714 323.88H340.8Z" fill="white"/>
<line x1="414.5" y1="276" x2="414.5" y2="312" stroke="#0059FF"/>
<rect x="402" y="312" width="24" height="24" rx="12" fill="#0059FF"/>
<path d="M417.371 324.706V325.924H410.706L410.655 325.004L414.641 318.758H415.866L414.54 321.03L412.248 324.706H417.371ZM416.215 318.758V328H414.686V318.758H416.215Z" fill="white"/>
<line x1="450.5" y1="276" x2="450.5" y2="312" stroke="#0059FF"/>
<rect x="438" y="312" width="24" height="24" rx="12" fill="#0059FF"/>
<path d="M448.61 323.703L447.391 323.404L447.893 318.758H452.875V320.053H449.162L448.908 322.319C449.052 322.234 449.251 322.152 449.505 322.071C449.759 321.987 450.049 321.944 450.375 321.944C450.81 321.944 451.2 322.016 451.542 322.16C451.889 322.3 452.184 322.505 452.425 322.776C452.666 323.042 452.85 323.368 452.977 323.753C453.104 324.134 453.167 324.564 453.167 325.042C453.167 325.469 453.104 325.869 452.977 326.242C452.854 326.614 452.668 326.942 452.418 327.226C452.169 327.509 451.854 327.731 451.473 327.892C451.096 328.049 450.65 328.127 450.133 328.127C449.748 328.127 449.378 328.072 449.022 327.962C448.671 327.848 448.356 327.681 448.077 327.46C447.797 327.236 447.573 326.961 447.404 326.635C447.235 326.305 447.137 325.926 447.112 325.499H448.61C448.648 325.799 448.73 326.056 448.857 326.267C448.989 326.474 449.162 326.633 449.378 326.743C449.594 326.853 449.843 326.908 450.127 326.908C450.385 326.908 450.607 326.864 450.793 326.775C450.98 326.682 451.134 326.551 451.257 326.381C451.384 326.208 451.477 326.005 451.536 325.772C451.6 325.539 451.631 325.281 451.631 324.998C451.631 324.727 451.595 324.479 451.523 324.255C451.456 324.031 451.352 323.836 451.212 323.671C451.077 323.506 450.906 323.379 450.698 323.29C450.491 323.197 450.252 323.15 449.981 323.15C449.617 323.15 449.338 323.203 449.143 323.309C448.953 323.415 448.775 323.546 448.61 323.703Z" fill="white"/>
<line x1="522.5" y1="276" x2="522.5" y2="312" stroke="#0059FF"/>
<rect x="510" y="312" width="24" height="24" rx="12" fill="#0059FF"/>
<path d="M525.199 326.781V328H519.004V326.953L522.013 323.671C522.343 323.299 522.603 322.977 522.793 322.706C522.984 322.435 523.117 322.192 523.193 321.976C523.274 321.756 523.314 321.542 523.314 321.335C523.314 321.043 523.259 320.787 523.149 320.567C523.043 320.343 522.887 320.167 522.679 320.04C522.472 319.909 522.22 319.843 521.924 319.843C521.581 319.843 521.293 319.917 521.061 320.065C520.828 320.214 520.652 320.419 520.534 320.681C520.415 320.939 520.356 321.236 520.356 321.57H518.826C518.826 321.032 518.949 320.542 519.194 320.097C519.44 319.649 519.795 319.293 520.261 319.031C520.726 318.764 521.287 318.631 521.943 318.631C522.561 318.631 523.085 318.735 523.517 318.942C523.949 319.149 524.277 319.443 524.501 319.824C524.729 320.205 524.844 320.656 524.844 321.176C524.844 321.464 524.797 321.75 524.704 322.033C524.611 322.317 524.478 322.6 524.304 322.884C524.135 323.163 523.934 323.444 523.701 323.728C523.468 324.007 523.212 324.291 522.933 324.579L520.934 326.781H525.199Z" fill="white"/>
</g>
<rect x="0.5" y="0.5" width="601" height="375" rx="15.5" stroke="#E6E6E6"/>
<defs>
<filter id="filter0_dd_9569_2502" x="40" y="-37" width="522" height="66" filterUnits="userSpaceOnUse" color-interpolation-filters="sRGB">
<feFlood flood-opacity="0" result="BackgroundImageFix"/>
<feColorMatrix in="SourceAlpha" type="matrix" values="0 0 0 0 0 0 0 0 0 0 0 0 0 0 0 0 0 0 127 0" result="hardAlpha"/>
<feOffset dy="1"/>
<feComposite in2="hardAlpha" operator="out"/>
<feColorMatrix type="matrix" values="0 0 0 0 0.901961 0 0 0 0 0.901961 0 0 0 0 0.901961 0 0 0 1 0"/>
<feBlend mode="normal" in2="BackgroundImageFix" result="effect1_dropShadow_9569_2502"/>
<feColorMatrix in="SourceAlpha" type="matrix" values="0 0 0 0 0 0 0 0 0 0 0 0 0 0 0 0 0 0 127 0" result="hardAlpha"/>
<feOffset dy="-1"/>
<feComposite in2="hardAlpha" operator="out"/>
<feColorMatrix type="matrix" values="0 0 0 0 0.901961 0 0 0 0 0.901961 0 0 0 0 0.901961 0 0 0 1 0"/>
<feBlend mode="normal" in2="effect1_dropShadow_9569_2502" result="effect2_dropShadow_9569_2502"/>
<feBlend mode="normal" in="SourceGraphic" in2="effect2_dropShadow_9569_2502" result="shape"/>
</filter>
<filter id="filter1_dd_9569_2502" x="40" y="27" width="522" height="66" filterUnits="userSpaceOnUse" color-interpolation-filters="sRGB">
<feFlood flood-opacity="0" result="BackgroundImageFix"/>
<feColorMatrix in="SourceAlpha" type="matrix" values="0 0 0 0 0 0 0 0 0 0 0 0 0 0 0 0 0 0 127 0" result="hardAlpha"/>
<feOffset dy="1"/>
<feComposite in2="hardAlpha" operator="out"/>
<feColorMatrix type="matrix" values="0 0 0 0 0.901961 0 0 0 0 0.901961 0 0 0 0 0.901961 0 0 0 1 0"/>
<feBlend mode="normal" in2="BackgroundImageFix" result="effect1_dropShadow_9569_2502"/>
<feColorMatrix in="SourceAlpha" type="matrix" values="0 0 0 0 0 0 0 0 0 0 0 0 0 0 0 0 0 0 127 0" result="hardAlpha"/>
<feOffset dy="-1"/>
<feComposite in2="hardAlpha" operator="out"/>
<feColorMatrix type="matrix" values="0 0 0 0 0.901961 0 0 0 0 0.901961 0 0 0 0 0.901961 0 0 0 1 0"/>
<feBlend mode="normal" in2="effect1_dropShadow_9569_2502" result="effect2_dropShadow_9569_2502"/>
<feBlend mode="normal" in="SourceGraphic" in2="effect2_dropShadow_9569_2502" result="shape"/>
</filter>
<filter id="filter2_dd_9569_2502" x="40" y="91" width="522" height="66" filterUnits="userSpaceOnUse" color-interpolation-filters="sRGB">
<feFlood flood-opacity="0" result="BackgroundImageFix"/>
<feColorMatrix in="SourceAlpha" type="matrix" values="0 0 0 0 0 0 0 0 0 0 0 0 0 0 0 0 0 0 127 0" result="hardAlpha"/>
<feOffset dy="1"/>
<feComposite in2="hardAlpha" operator="out"/>
<feColorMatrix type="matrix" values="0 0 0 0 0.901961 0 0 0 0 0.901961 0 0 0 0 0.901961 0 0 0 1 0"/>
<feBlend mode="normal" in2="BackgroundImageFix" result="effect1_dropShadow_9569_2502"/>
<feColorMatrix in="SourceAlpha" type="matrix" values="0 0 0 0 0 0 0 0 0 0 0 0 0 0 0 0 0 0 127 0" result="hardAlpha"/>
<feOffset dy="-1"/>
<feComposite in2="hardAlpha" operator="out"/>
<feColorMatrix type="matrix" values="0 0 0 0 0.901961 0 0 0 0 0.901961 0 0 0 0 0.901961 0 0 0 1 0"/>
<feBlend mode="normal" in2="effect1_dropShadow_9569_2502" result="effect2_dropShadow_9569_2502"/>
<feBlend mode="normal" in="SourceGraphic" in2="effect2_dropShadow_9569_2502" result="shape"/>
</filter>
<filter id="filter3_dd_9569_2502" x="40" y="155" width="522" height="66" filterUnits="userSpaceOnUse" color-interpolation-filters="sRGB">
<feFlood flood-opacity="0" result="BackgroundImageFix"/>
<feColorMatrix in="SourceAlpha" type="matrix" values="0 0 0 0 0 0 0 0 0 0 0 0 0 0 0 0 0 0 127 0" result="hardAlpha"/>
<feOffset dy="1"/>
<feComposite in2="hardAlpha" operator="out"/>
<feColorMatrix type="matrix" values="0 0 0 0 0.901961 0 0 0 0 0.901961 0 0 0 0 0.901961 0 0 0 1 0"/>
<feBlend mode="normal" in2="BackgroundImageFix" result="effect1_dropShadow_9569_2502"/>
<feColorMatrix in="SourceAlpha" type="matrix" values="0 0 0 0 0 0 0 0 0 0 0 0 0 0 0 0 0 0 127 0" result="hardAlpha"/>
<feOffset dy="-1"/>
<feComposite in2="hardAlpha" operator="out"/>
<feColorMatrix type="matrix" values="0 0 0 0 0.901961 0 0 0 0 0.901961 0 0 0 0 0.901961 0 0 0 1 0"/>
<feBlend mode="normal" in2="effect1_dropShadow_9569_2502" result="effect2_dropShadow_9569_2502"/>
<feBlend mode="normal" in="SourceGraphic" in2="effect2_dropShadow_9569_2502" result="shape"/>
</filter>
<linearGradient id="paint0_linear_9569_2502" x1="70.5973" y1="-26.0833" x2="95.902" y2="-24.4173" gradientUnits="userSpaceOnUse">
<stop stop-color="#E6E6E6"/>
<stop offset="0.0452461" stop-color="#F5F5F5"/>
</linearGradient>
<linearGradient id="paint1_linear_9569_2502" x1="119.231" y1="-26.0833" x2="201.516" y2="-7.66358" gradientUnits="userSpaceOnUse">
<stop stop-color="#E6E6E6"/>
<stop offset="0.0452461" stop-color="#F5F5F5"/>
</linearGradient>
<linearGradient id="paint2_linear_9569_2502" x1="209.833" y1="-26.0833" x2="387.816" y2="92.2704" gradientUnits="userSpaceOnUse">
<stop stop-color="#E6E6E6"/>
<stop offset="0.0452461" stop-color="#F5F5F5"/>
</linearGradient>
<linearGradient id="paint3_linear_9569_2502" x1="455.756" y1="-39.3334" x2="496.243" y2="-36.6677" gradientUnits="userSpaceOnUse">
<stop stop-color="#E6E6E6"/>
<stop offset="0.0452461" stop-color="#F5F5F5"/>
</linearGradient>
<linearGradient id="paint4_linear_9569_2502" x1="495.756" y1="-39.3334" x2="536.243" y2="-36.6677" gradientUnits="userSpaceOnUse">
<stop stop-color="#E6E6E6"/>
<stop offset="0.0452461" stop-color="#F5F5F5"/>
</linearGradient>
<linearGradient id="paint5_linear_9569_2502" x1="70.5973" y1="37.9167" x2="95.902" y2="39.5827" gradientUnits="userSpaceOnUse">
<stop stop-color="#E6E6E6"/>
<stop offset="0.0452461" stop-color="#F5F5F5"/>
</linearGradient>
<linearGradient id="paint6_linear_9569_2502" x1="119.231" y1="37.9167" x2="201.516" y2="56.3364" gradientUnits="userSpaceOnUse">
<stop stop-color="#E6E6E6"/>
<stop offset="0.0452461" stop-color="#F5F5F5"/>
</linearGradient>
<linearGradient id="paint7_linear_9569_2502" x1="209.833" y1="37.9167" x2="387.816" y2="156.27" gradientUnits="userSpaceOnUse">
<stop stop-color="#E6E6E6"/>
<stop offset="0.0452461" stop-color="#F5F5F5"/>
</linearGradient>
<linearGradient id="paint8_linear_9569_2502" x1="455.756" y1="24.6666" x2="496.243" y2="27.3323" gradientUnits="userSpaceOnUse">
<stop stop-color="#E6E6E6"/>
<stop offset="0.0452461" stop-color="#F5F5F5"/>
</linearGradient>
<linearGradient id="paint9_linear_9569_2502" x1="495.756" y1="24.6666" x2="536.243" y2="27.3323" gradientUnits="userSpaceOnUse">
<stop stop-color="#E6E6E6"/>
<stop offset="0.0452461" stop-color="#F5F5F5"/>
</linearGradient>
<linearGradient id="paint10_linear_9569_2502" x1="70.5973" y1="101.917" x2="95.902" y2="103.583" gradientUnits="userSpaceOnUse">
<stop stop-color="#E6E6E6"/>
<stop offset="0.0452461" stop-color="#F5F5F5"/>
</linearGradient>
<linearGradient id="paint11_linear_9569_2502" x1="119.231" y1="101.917" x2="201.516" y2="120.336" gradientUnits="userSpaceOnUse">
<stop stop-color="#E6E6E6"/>
<stop offset="0.0452461" stop-color="#F5F5F5"/>
</linearGradient>
<linearGradient id="paint12_linear_9569_2502" x1="209.833" y1="101.917" x2="387.816" y2="220.27" gradientUnits="userSpaceOnUse">
<stop stop-color="#E6E6E6"/>
<stop offset="0.0452461" stop-color="#F5F5F5"/>
</linearGradient>
<linearGradient id="paint13_linear_9569_2502" x1="455.756" y1="88.6666" x2="496.243" y2="91.3323" gradientUnits="userSpaceOnUse">
<stop stop-color="#E6E6E6"/>
<stop offset="0.0452461" stop-color="#F5F5F5"/>
</linearGradient>
<linearGradient id="paint14_linear_9569_2502" x1="495.756" y1="88.6666" x2="536.243" y2="91.3323" gradientUnits="userSpaceOnUse">
<stop stop-color="#E6E6E6"/>
<stop offset="0.0452461" stop-color="#F5F5F5"/>
</linearGradient>
<linearGradient id="paint15_linear_9569_2502" x1="70.5973" y1="165.917" x2="95.902" y2="167.583" gradientUnits="userSpaceOnUse">
<stop stop-color="#E6E6E6"/>
<stop offset="0.0452461" stop-color="#F5F5F5"/>
</linearGradient>
<linearGradient id="paint16_linear_9569_2502" x1="119.231" y1="165.917" x2="201.516" y2="184.336" gradientUnits="userSpaceOnUse">
<stop stop-color="#E6E6E6"/>
<stop offset="0.0452461" stop-color="#F5F5F5"/>
</linearGradient>
<linearGradient id="paint17_linear_9569_2502" x1="209.833" y1="165.917" x2="387.816" y2="284.27" gradientUnits="userSpaceOnUse">
<stop stop-color="#E6E6E6"/>
<stop offset="0.0452461" stop-color="#F5F5F5"/>
</linearGradient>
<linearGradient id="paint18_linear_9569_2502" x1="455.756" y1="152.667" x2="496.243" y2="155.332" gradientUnits="userSpaceOnUse">
<stop stop-color="#E6E6E6"/>
<stop offset="0.0452461" stop-color="#F5F5F5"/>
</linearGradient>
<linearGradient id="paint19_linear_9569_2502" x1="495.756" y1="152.667" x2="536.243" y2="155.332" gradientUnits="userSpaceOnUse">
<stop stop-color="#E6E6E6"/>
<stop offset="0.0452461" stop-color="#F5F5F5"/>
</linearGradient>
<linearGradient id="paint20_linear_9569_2502" x1="58.3891" y1="237.917" x2="153.453" y2="262.952" gradientUnits="userSpaceOnUse">
<stop stop-color="#E6E6E6"/>
<stop offset="0.0452461" stop-color="#F5F5F5"/>
</linearGradient>
<clipPath id="clip0_9569_2502">
<rect width="602" height="376" rx="16" fill="white"/>
</clipPath>
<clipPath id="clip1_9569_2502">
<path d="M40 -28C40 -32.4183 43.5817 -36 48 -36H554C558.418 -36 562 -32.4183 562 -28V292C562 296.418 558.418 300 554 300H48C43.5817 300 40 296.418 40 292V-28Z" fill="white"/>
</clipPath>
</defs>
</svg>
