<svg width="1240" height="272" viewBox="0 0 1240 272" fill="none" xmlns="http://www.w3.org/2000/svg">
<rect x="0.5" y="0.5" width="1239" height="271" rx="15.5" fill="#F8F8F8"/>
<rect x="172" y="84" width="417" height="148" rx="16" fill="white"/>
<path d="M215.625 138H213.65L213.663 136.737H215.625C216.196 136.737 216.674 136.612 217.059 136.362C217.448 136.113 217.74 135.755 217.935 135.29C218.134 134.824 218.233 134.27 218.233 133.626V133.125C218.233 132.626 218.176 132.183 218.062 131.798C217.952 131.413 217.787 131.09 217.567 130.827C217.351 130.565 217.084 130.366 216.767 130.23C216.454 130.095 216.092 130.027 215.682 130.027H213.612V128.758H215.682C216.295 128.758 216.856 128.861 217.364 129.069C217.872 129.272 218.31 129.566 218.678 129.951C219.05 130.336 219.336 130.798 219.535 131.335C219.734 131.872 219.833 132.473 219.833 133.138V133.626C219.833 134.291 219.734 134.892 219.535 135.429C219.336 135.967 219.05 136.428 218.678 136.813C218.305 137.194 217.861 137.488 217.345 137.695C216.833 137.898 216.259 138 215.625 138ZM214.533 128.758V138H212.939V128.758H214.533ZM228.482 136.737V138H223.575V136.737H228.482ZM224.026 128.758V138H222.433V128.758H224.026ZM227.841 132.617V133.861H223.575V132.617H227.841ZM228.45 128.758V130.027H223.575V128.758H228.45ZM232.376 128.758V138H230.783V128.758H232.376ZM236.147 132.801V134.064H231.97V132.801H236.147ZM236.674 128.758V130.027H231.97V128.758H236.674ZM241.413 129.989L238.651 138H236.982L240.46 128.758H241.527L241.413 129.989ZM243.723 138L240.956 129.989L240.835 128.758H241.908L245.399 138H243.723ZM243.59 134.572V135.835H238.562V134.572H243.59ZM252.505 128.758H254.092V134.934C254.092 135.637 253.94 136.225 253.635 136.699C253.331 137.173 252.916 137.53 252.391 137.771C251.871 138.008 251.289 138.127 250.646 138.127C249.981 138.127 249.389 138.008 248.868 137.771C248.348 137.53 247.937 137.173 247.637 136.699C247.34 136.225 247.192 135.637 247.192 134.934V128.758H248.779V134.934C248.779 135.378 248.855 135.744 249.008 136.032C249.16 136.316 249.376 136.525 249.655 136.661C249.935 136.796 250.265 136.864 250.646 136.864C251.026 136.864 251.354 136.796 251.629 136.661C251.909 136.525 252.125 136.316 252.277 136.032C252.429 135.744 252.505 135.378 252.505 134.934V128.758ZM262.614 136.737V138H257.974V136.737H262.614ZM258.418 128.758V138H256.825V128.758H258.418ZM267.061 128.758V138H265.48V128.758H267.061ZM269.962 128.758V130.027H262.605V128.758H269.962Z" fill="#737373"/>
<path d="M230.25 181C230.047 181 229.867 180.933 229.711 180.799L225.211 176.513C225.07 176.365 225 176.193 225 176C225 175.807 225.07 175.635 225.211 175.487L229.711 171.201C229.867 171.067 230.047 171 230.25 171C230.453 171 230.633 171.067 230.789 171.201C230.93 171.35 231 171.521 231 171.714C231 171.908 230.93 172.079 230.789 172.228L226.805 176L230.789 179.772C230.93 179.921 231 180.092 231 180.286C231 180.479 230.93 180.65 230.789 180.799C230.633 180.933 230.453 181 230.25 181Z" fill="#505050"/>
<path d="M318.046 132.617V133.88H313.139V132.617H318.046ZM313.533 128.758V138H311.939V128.758H313.533ZM319.271 128.758V138H317.684V128.758H319.271ZM329.539 133.125V133.633C329.539 134.331 329.448 134.957 329.266 135.512C329.084 136.066 328.823 136.538 328.485 136.927C328.151 137.317 327.749 137.615 327.279 137.822C326.809 138.025 326.289 138.127 325.717 138.127C325.15 138.127 324.632 138.025 324.162 137.822C323.697 137.615 323.292 137.317 322.95 136.927C322.607 136.538 322.34 136.066 322.15 135.512C321.964 134.957 321.871 134.331 321.871 133.633V133.125C321.871 132.427 321.964 131.803 322.15 131.252C322.336 130.698 322.598 130.226 322.937 129.837C323.28 129.443 323.684 129.145 324.149 128.942C324.619 128.735 325.138 128.631 325.705 128.631C326.276 128.631 326.796 128.735 327.266 128.942C327.736 129.145 328.14 129.443 328.479 129.837C328.817 130.226 329.077 130.698 329.259 131.252C329.445 131.803 329.539 132.427 329.539 133.125ZM327.945 133.633V133.112C327.945 132.596 327.895 132.141 327.793 131.748C327.696 131.35 327.55 131.018 327.355 130.751C327.165 130.48 326.93 130.277 326.65 130.142C326.371 130.002 326.056 129.932 325.705 129.932C325.353 129.932 325.04 130.002 324.765 130.142C324.49 130.277 324.255 130.48 324.061 130.751C323.87 131.018 323.724 131.35 323.623 131.748C323.521 132.141 323.47 132.596 323.47 133.112V133.633C323.47 134.149 323.521 134.606 323.623 135.004C323.724 135.402 323.872 135.738 324.067 136.013C324.266 136.284 324.503 136.489 324.778 136.629C325.053 136.764 325.366 136.832 325.717 136.832C326.073 136.832 326.388 136.764 326.663 136.629C326.938 136.489 327.171 136.284 327.361 136.013C327.552 135.738 327.696 135.402 327.793 135.004C327.895 134.606 327.945 134.149 327.945 133.633ZM335.16 136.312L337.591 128.758H339.349L336.036 138H334.849L335.16 136.312ZM332.913 128.758L335.325 136.312L335.655 138H334.461L331.161 128.758H332.913ZM347.433 136.737V138H342.526V136.737H347.433ZM342.977 128.758V138H341.384V128.758H342.977ZM346.792 132.617V133.861H342.526V132.617H346.792ZM347.401 128.758V130.027H342.526V128.758H347.401ZM349.734 128.758H353.003C353.706 128.758 354.305 128.864 354.8 129.075C355.295 129.287 355.674 129.6 355.936 130.015C356.203 130.425 356.336 130.933 356.336 131.538C356.336 131.999 356.251 132.406 356.082 132.757C355.913 133.108 355.674 133.404 355.365 133.646C355.056 133.882 354.688 134.067 354.26 134.198L353.778 134.433H350.839L350.826 133.169H353.029C353.41 133.169 353.727 133.102 353.981 132.966C354.235 132.831 354.425 132.647 354.552 132.414C354.683 132.177 354.749 131.91 354.749 131.614C354.749 131.293 354.686 131.013 354.559 130.776C354.436 130.535 354.245 130.351 353.987 130.224C353.729 130.093 353.401 130.027 353.003 130.027H351.328V138H349.734V128.758ZM355.009 138L352.838 133.849L354.508 133.842L356.71 137.917V138H355.009Z" fill="#737373"/>
<rect x="311" y="160" width="32" height="32" rx="4" fill="#F8F8F8"/>
<path d="M329.25 181C329.047 181 328.867 180.933 328.711 180.799L324.211 176.513C324.07 176.365 324 176.193 324 176C324 175.807 324.07 175.635 324.211 175.487L328.711 171.201C328.867 171.067 329.047 171 329.25 171C329.453 171 329.633 171.067 329.789 171.201C329.93 171.35 330 171.521 330 171.714C330 171.908 329.93 172.079 329.789 172.228L325.805 176L329.789 179.772C329.93 179.921 330 180.092 330 180.286C330 180.479 329.93 180.65 329.789 180.799C329.633 180.933 329.453 181 329.25 181Z" fill="#1A1A1A"/>
<path d="M399.533 128.758V138H397.939V128.758H399.533ZM403.303 132.801V134.064H399.126V132.801H403.303ZM403.83 128.758V130.027H399.126V128.758H403.83ZM413.469 133.125V133.633C413.469 134.331 413.378 134.957 413.196 135.512C413.014 136.066 412.754 136.538 412.416 136.927C412.081 137.317 411.679 137.615 411.209 137.822C410.74 138.025 410.219 138.127 409.648 138.127C409.081 138.127 408.562 138.025 408.093 137.822C407.627 137.615 407.223 137.317 406.88 136.927C406.538 136.538 406.271 136.066 406.081 135.512C405.894 134.957 405.801 134.331 405.801 133.633V133.125C405.801 132.427 405.894 131.803 406.081 131.252C406.267 130.698 406.529 130.226 406.868 129.837C407.21 129.443 407.615 129.145 408.08 128.942C408.55 128.735 409.068 128.631 409.635 128.631C410.207 128.631 410.727 128.735 411.197 128.942C411.667 129.145 412.071 129.443 412.409 129.837C412.748 130.226 413.008 130.698 413.19 131.252C413.376 131.803 413.469 132.427 413.469 133.125ZM411.876 133.633V133.112C411.876 132.596 411.825 132.141 411.724 131.748C411.626 131.35 411.48 131.018 411.286 130.751C411.095 130.48 410.86 130.277 410.581 130.142C410.302 130.002 409.986 129.932 409.635 129.932C409.284 129.932 408.971 130.002 408.696 130.142C408.421 130.277 408.186 130.48 407.991 130.751C407.801 131.018 407.655 131.35 407.553 131.748C407.452 132.141 407.401 132.596 407.401 133.112V133.633C407.401 134.149 407.452 134.606 407.553 135.004C407.655 135.402 407.803 135.738 407.998 136.013C408.196 136.284 408.433 136.489 408.708 136.629C408.984 136.764 409.297 136.832 409.648 136.832C410.003 136.832 410.319 136.764 410.594 136.629C410.869 136.489 411.102 136.284 411.292 136.013C411.482 135.738 411.626 135.402 411.724 135.004C411.825 134.606 411.876 134.149 411.876 133.633ZM421.521 134.991H423.108C423.058 135.596 422.888 136.136 422.601 136.61C422.313 137.08 421.909 137.45 421.388 137.721C420.868 137.992 420.235 138.127 419.49 138.127C418.919 138.127 418.405 138.025 417.948 137.822C417.491 137.615 417.099 137.323 416.773 136.946C416.448 136.565 416.198 136.106 416.024 135.569C415.855 135.031 415.771 134.431 415.771 133.766V132.998C415.771 132.334 415.857 131.733 416.031 131.195C416.208 130.658 416.462 130.199 416.792 129.818C417.123 129.433 417.518 129.139 417.979 128.936C418.445 128.732 418.968 128.631 419.547 128.631C420.284 128.631 420.906 128.766 421.414 129.037C421.921 129.308 422.315 129.682 422.594 130.161C422.878 130.639 423.051 131.187 423.115 131.805H421.528C421.486 131.407 421.392 131.066 421.249 130.783C421.109 130.499 420.902 130.283 420.626 130.135C420.351 129.983 419.992 129.907 419.547 129.907C419.183 129.907 418.866 129.974 418.595 130.11C418.324 130.245 418.098 130.444 417.916 130.707C417.734 130.969 417.597 131.293 417.503 131.678C417.415 132.059 417.37 132.494 417.37 132.985V133.766C417.37 134.232 417.41 134.655 417.491 135.036C417.575 135.412 417.702 135.736 417.872 136.007C418.045 136.278 418.265 136.487 418.532 136.635C418.798 136.783 419.118 136.857 419.49 136.857C419.943 136.857 420.309 136.785 420.588 136.642C420.872 136.498 421.086 136.288 421.229 136.013C421.378 135.734 421.475 135.393 421.521 134.991ZM430.742 128.758H432.329V134.934C432.329 135.637 432.176 136.225 431.872 136.699C431.567 137.173 431.152 137.53 430.627 137.771C430.107 138.008 429.525 138.127 428.882 138.127C428.217 138.127 427.625 138.008 427.104 137.771C426.584 137.53 426.174 137.173 425.873 136.699C425.577 136.225 425.429 135.637 425.429 134.934V128.758H427.016V134.934C427.016 135.378 427.092 135.744 427.244 136.032C427.396 136.316 427.612 136.525 427.892 136.661C428.171 136.796 428.501 136.864 428.882 136.864C429.263 136.864 429.591 136.796 429.866 136.661C430.145 136.525 430.361 136.316 430.513 136.032C430.666 135.744 430.742 135.378 430.742 134.934V128.758ZM439.924 135.62C439.924 135.429 439.894 135.26 439.835 135.112C439.78 134.964 439.681 134.828 439.537 134.706C439.393 134.583 439.19 134.464 438.927 134.35C438.669 134.232 438.339 134.111 437.937 133.988C437.497 133.853 437.091 133.703 436.718 133.538C436.35 133.368 436.028 133.174 435.753 132.954C435.478 132.729 435.265 132.473 435.112 132.186C434.96 131.894 434.884 131.557 434.884 131.176C434.884 130.8 434.962 130.457 435.119 130.148C435.279 129.839 435.506 129.572 435.798 129.348C436.094 129.12 436.443 128.944 436.845 128.821C437.247 128.694 437.692 128.631 438.178 128.631C438.864 128.631 439.454 128.758 439.949 129.012C440.449 129.266 440.832 129.606 441.098 130.034C441.369 130.461 441.504 130.933 441.504 131.449H439.924C439.924 131.145 439.858 130.876 439.727 130.643C439.6 130.406 439.405 130.22 439.143 130.084C438.885 129.949 438.557 129.881 438.159 129.881C437.783 129.881 437.469 129.938 437.22 130.053C436.97 130.167 436.784 130.321 436.661 130.516C436.538 130.711 436.477 130.931 436.477 131.176C436.477 131.35 436.517 131.508 436.598 131.652C436.678 131.792 436.801 131.923 436.966 132.046C437.131 132.164 437.338 132.277 437.588 132.382C437.838 132.488 438.132 132.59 438.47 132.687C438.982 132.839 439.429 133.009 439.81 133.195C440.19 133.377 440.508 133.584 440.762 133.817C441.016 134.05 441.206 134.314 441.333 134.61C441.46 134.902 441.523 135.235 441.523 135.607C441.523 135.996 441.445 136.347 441.289 136.661C441.132 136.97 440.908 137.234 440.616 137.454C440.328 137.67 439.981 137.837 439.575 137.956C439.173 138.07 438.724 138.127 438.229 138.127C437.785 138.127 437.347 138.068 436.915 137.949C436.488 137.831 436.098 137.651 435.747 137.41C435.396 137.164 435.117 136.86 434.909 136.496C434.702 136.127 434.598 135.698 434.598 135.207H436.191C436.191 135.507 436.242 135.764 436.344 135.975C436.45 136.187 436.596 136.36 436.782 136.496C436.968 136.627 437.184 136.724 437.429 136.788C437.679 136.851 437.945 136.883 438.229 136.883C438.601 136.883 438.912 136.83 439.162 136.724C439.416 136.618 439.606 136.47 439.733 136.28C439.86 136.089 439.924 135.869 439.924 135.62Z" fill="#737373"/>
<g filter="url(#filter0_d_9569_2559)">
<rect x="397" y="160" width="32" height="32" rx="4" fill="white"/>
<path d="M415.25 181C415.047 181 414.867 180.933 414.711 180.799L410.211 176.513C410.07 176.365 410 176.193 410 176C410 175.807 410.07 175.635 410.211 175.487L414.711 171.201C414.867 171.067 415.047 171 415.25 171C415.453 171 415.633 171.067 415.789 171.201C415.93 171.35 416 171.521 416 171.714C416 171.908 415.93 172.079 415.789 172.228L411.805 176L415.789 179.772C415.93 179.921 416 180.092 416 180.286C416 180.479 415.93 180.65 415.789 180.799C415.633 180.933 415.453 181 415.25 181Z" fill="#1A1A1A"/>
</g>
<path d="M485.625 138H483.65L483.663 136.737H485.625C486.196 136.737 486.674 136.612 487.059 136.362C487.448 136.113 487.74 135.755 487.935 135.29C488.134 134.824 488.233 134.27 488.233 133.626V133.125C488.233 132.626 488.176 132.183 488.062 131.798C487.952 131.413 487.787 131.09 487.567 130.827C487.351 130.565 487.084 130.366 486.767 130.23C486.454 130.095 486.092 130.027 485.682 130.027H483.612V128.758H485.682C486.295 128.758 486.856 128.861 487.364 129.069C487.872 129.272 488.31 129.566 488.678 129.951C489.05 130.336 489.336 130.798 489.535 131.335C489.734 131.872 489.833 132.473 489.833 133.138V133.626C489.833 134.291 489.734 134.892 489.535 135.429C489.336 135.967 489.05 136.428 488.678 136.813C488.305 137.194 487.861 137.488 487.345 137.695C486.833 137.898 486.259 138 485.625 138ZM484.533 128.758V138H482.939V128.758H484.533ZM494.134 128.758V138H492.541V128.758H494.134ZM501.977 135.62C501.977 135.429 501.947 135.26 501.888 135.112C501.833 134.964 501.733 134.828 501.589 134.706C501.445 134.583 501.242 134.464 500.98 134.35C500.722 134.232 500.392 134.111 499.99 133.988C499.55 133.853 499.143 133.703 498.771 133.538C498.403 133.368 498.081 133.174 497.806 132.954C497.531 132.729 497.317 132.473 497.165 132.186C497.013 131.894 496.937 131.557 496.937 131.176C496.937 130.8 497.015 130.457 497.171 130.148C497.332 129.839 497.559 129.572 497.851 129.348C498.147 129.12 498.496 128.944 498.898 128.821C499.3 128.694 499.744 128.631 500.231 128.631C500.917 128.631 501.507 128.758 502.002 129.012C502.501 129.266 502.884 129.606 503.151 130.034C503.422 130.461 503.557 130.933 503.557 131.449H501.977C501.977 131.145 501.911 130.876 501.78 130.643C501.653 130.406 501.458 130.22 501.196 130.084C500.938 129.949 500.61 129.881 500.212 129.881C499.835 129.881 499.522 129.938 499.272 130.053C499.023 130.167 498.837 130.321 498.714 130.516C498.591 130.711 498.53 130.931 498.53 131.176C498.53 131.35 498.57 131.508 498.65 131.652C498.731 131.792 498.854 131.923 499.019 132.046C499.184 132.164 499.391 132.277 499.641 132.382C499.89 132.488 500.184 132.59 500.523 132.687C501.035 132.839 501.481 133.009 501.862 133.195C502.243 133.377 502.561 133.584 502.814 133.817C503.068 134.05 503.259 134.314 503.386 134.61C503.513 134.902 503.576 135.235 503.576 135.607C503.576 135.996 503.498 136.347 503.341 136.661C503.185 136.97 502.96 137.234 502.668 137.454C502.381 137.67 502.034 137.837 501.627 137.956C501.225 138.07 500.777 138.127 500.282 138.127C499.837 138.127 499.399 138.068 498.968 137.949C498.54 137.831 498.151 137.651 497.8 137.41C497.449 137.164 497.169 136.86 496.962 136.496C496.755 136.127 496.651 135.698 496.651 135.207H498.244C498.244 135.507 498.295 135.764 498.396 135.975C498.502 136.187 498.648 136.36 498.834 136.496C499.021 136.627 499.236 136.724 499.482 136.788C499.732 136.851 499.998 136.883 500.282 136.883C500.654 136.883 500.965 136.83 501.215 136.724C501.469 136.618 501.659 136.47 501.786 136.28C501.913 136.089 501.977 135.869 501.977 135.62ZM509.584 129.989L506.823 138H505.154L508.632 128.758H509.699L509.584 129.989ZM511.895 138L509.127 129.989L509.007 128.758H510.08L513.571 138H511.895ZM511.762 134.572V135.835H506.734V134.572H511.762ZM519.071 133.823H516.716L516.704 132.662H518.76C519.107 132.662 519.401 132.611 519.643 132.509C519.888 132.403 520.074 132.253 520.201 132.059C520.328 131.86 520.392 131.621 520.392 131.341C520.392 131.032 520.332 130.781 520.214 130.586C520.095 130.391 519.913 130.25 519.668 130.161C519.427 130.072 519.118 130.027 518.741 130.027H517.199V138H515.605V128.758H518.741C519.249 128.758 519.702 128.806 520.1 128.904C520.502 129.001 520.842 129.153 521.122 129.361C521.405 129.564 521.619 129.822 521.763 130.135C521.911 130.448 521.985 130.821 521.985 131.252C521.985 131.633 521.894 131.982 521.712 132.3C521.53 132.613 521.261 132.869 520.906 133.068C520.55 133.267 520.108 133.385 519.579 133.423L519.071 133.823ZM519.001 138H516.215L516.932 136.737H519.001C519.361 136.737 519.662 136.678 519.903 136.559C520.144 136.436 520.324 136.269 520.442 136.058C520.565 135.842 520.626 135.59 520.626 135.302C520.626 135.002 520.574 134.742 520.468 134.521C520.362 134.297 520.195 134.126 519.966 134.007C519.738 133.885 519.439 133.823 519.071 133.823H517.281L517.294 132.662H519.624L519.985 133.1C520.493 133.117 520.91 133.229 521.236 133.436C521.566 133.643 521.811 133.912 521.972 134.242C522.133 134.572 522.213 134.928 522.213 135.309C522.213 135.897 522.084 136.39 521.826 136.788C521.572 137.185 521.206 137.488 520.728 137.695C520.25 137.898 519.674 138 519.001 138ZM530.608 136.737V138H525.968V136.737H530.608ZM526.413 128.758V138H524.819V128.758H526.413ZM538.889 136.737V138H533.982V136.737H538.889ZM534.433 128.758V138H532.84V128.758H534.433ZM538.248 132.617V133.861H533.982V132.617H538.248ZM538.857 128.758V130.027H533.982V128.758H538.857ZM543.875 138H541.901L541.914 136.737H543.875C544.447 136.737 544.925 136.612 545.31 136.362C545.699 136.113 545.991 135.755 546.186 135.29C546.385 134.824 546.484 134.27 546.484 133.626V133.125C546.484 132.626 546.427 132.183 546.313 131.798C546.203 131.413 546.038 131.09 545.818 130.827C545.602 130.565 545.335 130.366 545.018 130.23C544.705 130.095 544.343 130.027 543.933 130.027H541.863V128.758H543.933C544.546 128.758 545.107 128.861 545.615 129.069C546.123 129.272 546.561 129.566 546.929 129.951C547.301 130.336 547.587 130.798 547.786 131.335C547.985 131.872 548.084 132.473 548.084 133.138V133.626C548.084 134.291 547.985 134.892 547.786 135.429C547.587 135.967 547.301 136.428 546.929 136.813C546.556 137.194 546.112 137.488 545.596 137.695C545.084 137.898 544.51 138 543.875 138ZM542.784 128.758V138H541.19V128.758H542.784Z" fill="#737373"/>
<path d="M500.25 181C500.047 181 499.867 180.933 499.711 180.799L495.211 176.513C495.07 176.365 495 176.193 495 176C495 175.807 495.07 175.635 495.211 175.487L499.711 171.201C499.867 171.067 500.047 171 500.25 171C500.453 171 500.633 171.067 500.789 171.201C500.93 171.35 501 171.521 501 171.714C501 171.908 500.93 172.079 500.789 172.228L496.805 176L500.789 179.772C500.93 179.921 501 180.092 501 180.286C501 180.479 500.93 180.65 500.789 180.799C500.633 180.933 500.453 181 500.25 181Z" fill="#AAAAAA"/>
<rect x="669" y="84" width="400" height="148" rx="16" fill="white"/>
<path d="M712.625 138H710.65L710.663 136.737H712.625C713.196 136.737 713.674 136.612 714.059 136.362C714.448 136.113 714.74 135.755 714.935 135.29C715.134 134.824 715.233 134.27 715.233 133.626V133.125C715.233 132.626 715.176 132.183 715.062 131.798C714.952 131.413 714.787 131.09 714.567 130.827C714.351 130.565 714.084 130.366 713.767 130.23C713.454 130.095 713.092 130.027 712.682 130.027H710.612V128.758H712.682C713.295 128.758 713.856 128.861 714.364 129.069C714.872 129.272 715.31 129.566 715.678 129.951C716.05 130.336 716.336 130.798 716.535 131.335C716.734 131.872 716.833 132.473 716.833 133.138V133.626C716.833 134.291 716.734 134.892 716.535 135.429C716.336 135.967 716.05 136.428 715.678 136.813C715.305 137.194 714.861 137.488 714.345 137.695C713.833 137.898 713.259 138 712.625 138ZM711.533 128.758V138H709.939V128.758H711.533ZM725.482 136.737V138H720.575V136.737H725.482ZM721.026 128.758V138H719.433V128.758H721.026ZM724.841 132.617V133.861H720.575V132.617H724.841ZM725.45 128.758V130.027H720.575V128.758H725.45ZM729.376 128.758V138H727.783V128.758H729.376ZM733.147 132.801V134.064H728.97V132.801H733.147ZM733.674 128.758V130.027H728.97V128.758H733.674ZM738.413 129.989L735.651 138H733.982L737.46 128.758H738.527L738.413 129.989ZM740.723 138L737.956 129.989L737.835 128.758H738.908L742.399 138H740.723ZM740.59 134.572V135.835H735.562V134.572H740.59ZM749.505 128.758H751.092V134.934C751.092 135.637 750.94 136.225 750.635 136.699C750.331 137.173 749.916 137.53 749.391 137.771C748.871 138.008 748.289 138.127 747.646 138.127C746.981 138.127 746.389 138.008 745.868 137.771C745.348 137.53 744.937 137.173 744.637 136.699C744.34 136.225 744.192 135.637 744.192 134.934V128.758H745.779V134.934C745.779 135.378 745.855 135.744 746.008 136.032C746.16 136.316 746.376 136.525 746.655 136.661C746.935 136.796 747.265 136.864 747.646 136.864C748.026 136.864 748.354 136.796 748.629 136.661C748.909 136.525 749.125 136.316 749.277 136.032C749.429 135.744 749.505 135.378 749.505 134.934V128.758ZM759.614 136.737V138H754.974V136.737H759.614ZM755.418 128.758V138H753.825V128.758H755.418ZM764.061 128.758V138H762.48V128.758H764.061ZM766.962 128.758V130.027H759.605V128.758H766.962Z" fill="#737373"/>
<path d="M726.181 170.726V180H724.651V172.542L722.385 173.31V172.046L725.997 170.726H726.181Z" fill="#505050"/>
<path d="M815.046 132.617V133.88H810.139V132.617H815.046ZM810.533 128.758V138H808.939V128.758H810.533ZM816.271 128.758V138H814.684V128.758H816.271ZM826.539 133.125V133.633C826.539 134.331 826.448 134.957 826.266 135.512C826.084 136.066 825.823 136.538 825.485 136.927C825.151 137.317 824.749 137.615 824.279 137.822C823.809 138.025 823.289 138.127 822.717 138.127C822.15 138.127 821.632 138.025 821.162 137.822C820.697 137.615 820.292 137.317 819.95 136.927C819.607 136.538 819.34 136.066 819.15 135.512C818.964 134.957 818.871 134.331 818.871 133.633V133.125C818.871 132.427 818.964 131.803 819.15 131.252C819.336 130.698 819.598 130.226 819.937 129.837C820.28 129.443 820.684 129.145 821.149 128.942C821.619 128.735 822.138 128.631 822.705 128.631C823.276 128.631 823.796 128.735 824.266 128.942C824.736 129.145 825.14 129.443 825.479 129.837C825.817 130.226 826.077 130.698 826.259 131.252C826.445 131.803 826.539 132.427 826.539 133.125ZM824.945 133.633V133.112C824.945 132.596 824.895 132.141 824.793 131.748C824.696 131.35 824.55 131.018 824.355 130.751C824.165 130.48 823.93 130.277 823.65 130.142C823.371 130.002 823.056 129.932 822.705 129.932C822.353 129.932 822.04 130.002 821.765 130.142C821.49 130.277 821.255 130.48 821.061 130.751C820.87 131.018 820.724 131.35 820.623 131.748C820.521 132.141 820.47 132.596 820.47 133.112V133.633C820.47 134.149 820.521 134.606 820.623 135.004C820.724 135.402 820.872 135.738 821.067 136.013C821.266 136.284 821.503 136.489 821.778 136.629C822.053 136.764 822.366 136.832 822.717 136.832C823.073 136.832 823.388 136.764 823.663 136.629C823.938 136.489 824.171 136.284 824.361 136.013C824.552 135.738 824.696 135.402 824.793 135.004C824.895 134.606 824.945 134.149 824.945 133.633ZM832.16 136.312L834.591 128.758H836.349L833.036 138H831.849L832.16 136.312ZM829.913 128.758L832.325 136.312L832.655 138H831.461L828.161 128.758H829.913ZM844.433 136.737V138H839.526V136.737H844.433ZM839.977 128.758V138H838.384V128.758H839.977ZM843.792 132.617V133.861H839.526V132.617H843.792ZM844.401 128.758V130.027H839.526V128.758H844.401ZM846.734 128.758H850.003C850.706 128.758 851.305 128.864 851.8 129.075C852.295 129.287 852.674 129.6 852.936 130.015C853.203 130.425 853.336 130.933 853.336 131.538C853.336 131.999 853.251 132.406 853.082 132.757C852.913 133.108 852.674 133.404 852.365 133.646C852.056 133.882 851.688 134.067 851.26 134.198L850.778 134.433H847.839L847.826 133.169H850.029C850.41 133.169 850.727 133.102 850.981 132.966C851.235 132.831 851.425 132.647 851.552 132.414C851.683 132.177 851.749 131.91 851.749 131.614C851.749 131.293 851.686 131.013 851.559 130.776C851.436 130.535 851.245 130.351 850.987 130.224C850.729 130.093 850.401 130.027 850.003 130.027H848.328V138H846.734V128.758ZM852.009 138L849.838 133.849L851.508 133.842L853.71 137.917V138H852.009Z" fill="#737373"/>
<rect x="808" y="160" width="32" height="32" rx="4" fill="#F8F8F8"/>
<path d="M825.181 170.726V180H823.651V172.542L821.385 173.31V172.046L824.997 170.726H825.181Z" fill="#1A1A1A"/>
<path d="M896.533 128.758V138H894.939V128.758H896.533ZM900.303 132.801V134.064H896.126V132.801H900.303ZM900.83 128.758V130.027H896.126V128.758H900.83ZM910.469 133.125V133.633C910.469 134.331 910.378 134.957 910.196 135.512C910.014 136.066 909.754 136.538 909.416 136.927C909.081 137.317 908.679 137.615 908.209 137.822C907.74 138.025 907.219 138.127 906.648 138.127C906.081 138.127 905.562 138.025 905.093 137.822C904.627 137.615 904.223 137.317 903.88 136.927C903.538 136.538 903.271 136.066 903.081 135.512C902.894 134.957 902.801 134.331 902.801 133.633V133.125C902.801 132.427 902.894 131.803 903.081 131.252C903.267 130.698 903.529 130.226 903.868 129.837C904.21 129.443 904.615 129.145 905.08 128.942C905.55 128.735 906.068 128.631 906.635 128.631C907.207 128.631 907.727 128.735 908.197 128.942C908.667 129.145 909.071 129.443 909.409 129.837C909.748 130.226 910.008 130.698 910.19 131.252C910.376 131.803 910.469 132.427 910.469 133.125ZM908.876 133.633V133.112C908.876 132.596 908.825 132.141 908.724 131.748C908.626 131.35 908.48 131.018 908.286 130.751C908.095 130.48 907.86 130.277 907.581 130.142C907.302 130.002 906.986 129.932 906.635 129.932C906.284 129.932 905.971 130.002 905.696 130.142C905.421 130.277 905.186 130.48 904.991 130.751C904.801 131.018 904.655 131.35 904.553 131.748C904.452 132.141 904.401 132.596 904.401 133.112V133.633C904.401 134.149 904.452 134.606 904.553 135.004C904.655 135.402 904.803 135.738 904.998 136.013C905.196 136.284 905.433 136.489 905.708 136.629C905.984 136.764 906.297 136.832 906.648 136.832C907.003 136.832 907.319 136.764 907.594 136.629C907.869 136.489 908.102 136.284 908.292 136.013C908.482 135.738 908.626 135.402 908.724 135.004C908.825 134.606 908.876 134.149 908.876 133.633ZM918.521 134.991H920.108C920.058 135.596 919.888 136.136 919.601 136.61C919.313 137.08 918.909 137.45 918.388 137.721C917.868 137.992 917.235 138.127 916.49 138.127C915.919 138.127 915.405 138.025 914.948 137.822C914.491 137.615 914.099 137.323 913.773 136.946C913.448 136.565 913.198 136.106 913.024 135.569C912.855 135.031 912.771 134.431 912.771 133.766V132.998C912.771 132.334 912.857 131.733 913.031 131.195C913.208 130.658 913.462 130.199 913.792 129.818C914.123 129.433 914.518 129.139 914.979 128.936C915.445 128.732 915.968 128.631 916.547 128.631C917.284 128.631 917.906 128.766 918.414 129.037C918.921 129.308 919.315 129.682 919.594 130.161C919.878 130.639 920.051 131.187 920.115 131.805H918.528C918.486 131.407 918.392 131.066 918.249 130.783C918.109 130.499 917.902 130.283 917.626 130.135C917.351 129.983 916.992 129.907 916.547 129.907C916.183 129.907 915.866 129.974 915.595 130.11C915.324 130.245 915.098 130.444 914.916 130.707C914.734 130.969 914.597 131.293 914.503 131.678C914.415 132.059 914.37 132.494 914.37 132.985V133.766C914.37 134.232 914.41 134.655 914.491 135.036C914.575 135.412 914.702 135.736 914.872 136.007C915.045 136.278 915.265 136.487 915.532 136.635C915.798 136.783 916.118 136.857 916.49 136.857C916.943 136.857 917.309 136.785 917.588 136.642C917.872 136.498 918.086 136.288 918.229 136.013C918.378 135.734 918.475 135.393 918.521 134.991ZM927.742 128.758H929.329V134.934C929.329 135.637 929.176 136.225 928.872 136.699C928.567 137.173 928.152 137.53 927.627 137.771C927.107 138.008 926.525 138.127 925.882 138.127C925.217 138.127 924.625 138.008 924.104 137.771C923.584 137.53 923.174 137.173 922.873 136.699C922.577 136.225 922.429 135.637 922.429 134.934V128.758H924.016V134.934C924.016 135.378 924.092 135.744 924.244 136.032C924.396 136.316 924.612 136.525 924.892 136.661C925.171 136.796 925.501 136.864 925.882 136.864C926.263 136.864 926.591 136.796 926.866 136.661C927.145 136.525 927.361 136.316 927.513 136.032C927.666 135.744 927.742 135.378 927.742 134.934V128.758ZM936.924 135.62C936.924 135.429 936.894 135.26 936.835 135.112C936.78 134.964 936.681 134.828 936.537 134.706C936.393 134.583 936.19 134.464 935.927 134.35C935.669 134.232 935.339 134.111 934.937 133.988C934.497 133.853 934.091 133.703 933.718 133.538C933.35 133.368 933.028 133.174 932.753 132.954C932.478 132.729 932.265 132.473 932.112 132.186C931.96 131.894 931.884 131.557 931.884 131.176C931.884 130.8 931.962 130.457 932.119 130.148C932.279 129.839 932.506 129.572 932.798 129.348C933.094 129.12 933.443 128.944 933.845 128.821C934.247 128.694 934.692 128.631 935.178 128.631C935.864 128.631 936.454 128.758 936.949 129.012C937.449 129.266 937.832 129.606 938.098 130.034C938.369 130.461 938.504 130.933 938.504 131.449H936.924C936.924 131.145 936.858 130.876 936.727 130.643C936.6 130.406 936.405 130.22 936.143 130.084C935.885 129.949 935.557 129.881 935.159 129.881C934.783 129.881 934.469 129.938 934.22 130.053C933.97 130.167 933.784 130.321 933.661 130.516C933.538 130.711 933.477 130.931 933.477 131.176C933.477 131.35 933.517 131.508 933.598 131.652C933.678 131.792 933.801 131.923 933.966 132.046C934.131 132.164 934.338 132.277 934.588 132.382C934.838 132.488 935.132 132.59 935.47 132.687C935.982 132.839 936.429 133.009 936.81 133.195C937.19 133.377 937.508 133.584 937.762 133.817C938.016 134.05 938.206 134.314 938.333 134.61C938.46 134.902 938.523 135.235 938.523 135.607C938.523 135.996 938.445 136.347 938.289 136.661C938.132 136.97 937.908 137.234 937.616 137.454C937.328 137.67 936.981 137.837 936.575 137.956C936.173 138.07 935.724 138.127 935.229 138.127C934.785 138.127 934.347 138.068 933.915 137.949C933.488 137.831 933.098 137.651 932.747 137.41C932.396 137.164 932.117 136.86 931.909 136.496C931.702 136.127 931.598 135.698 931.598 135.207H933.191C933.191 135.507 933.242 135.764 933.344 135.975C933.45 136.187 933.596 136.36 933.782 136.496C933.968 136.627 934.184 136.724 934.429 136.788C934.679 136.851 934.945 136.883 935.229 136.883C935.601 136.883 935.912 136.83 936.162 136.724C936.416 136.618 936.606 136.47 936.733 136.28C936.86 136.089 936.924 135.869 936.924 135.62Z" fill="#737373"/>
<g filter="url(#filter1_d_9569_2559)">
<g clip-path="url(#clip0_9569_2559)">
<rect x="894" y="160" width="32" height="32" rx="4" fill="white"/>
<path d="M911.181 170.726V180H909.651V172.542L907.385 173.31V172.046L910.997 170.726H911.181Z" fill="#1A1A1A"/>
</g>
</g>
<path d="M983.539 129.989L980.777 138H979.108L982.586 128.758H983.653L983.539 129.989ZM985.849 138L983.082 129.989L982.961 128.758H984.034L987.525 138H985.849ZM985.716 134.572V135.835H980.688V134.572H985.716ZM994.917 134.991H996.504C996.453 135.596 996.284 136.136 995.996 136.61C995.708 137.08 995.304 137.45 994.784 137.721C994.263 137.992 993.631 138.127 992.886 138.127C992.314 138.127 991.8 138.025 991.343 137.822C990.886 137.615 990.495 137.323 990.169 136.946C989.843 136.565 989.593 136.106 989.42 135.569C989.251 135.031 989.166 134.431 989.166 133.766V132.998C989.166 132.334 989.253 131.733 989.426 131.195C989.604 130.658 989.858 130.199 990.188 129.818C990.518 129.433 990.914 129.139 991.375 128.936C991.84 128.732 992.363 128.631 992.943 128.631C993.679 128.631 994.301 128.766 994.809 129.037C995.317 129.308 995.71 129.682 995.99 130.161C996.273 130.639 996.447 131.187 996.51 131.805H994.923C994.881 131.407 994.788 131.066 994.644 130.783C994.504 130.499 994.297 130.283 994.022 130.135C993.747 129.983 993.387 129.907 992.943 129.907C992.579 129.907 992.262 129.974 991.991 130.11C991.72 130.245 991.493 130.444 991.312 130.707C991.13 130.969 990.992 131.293 990.899 131.678C990.81 132.059 990.766 132.494 990.766 132.985V133.766C990.766 134.232 990.806 134.655 990.886 135.036C990.971 135.412 991.098 135.736 991.267 136.007C991.441 136.278 991.661 136.487 991.927 136.635C992.194 136.783 992.513 136.857 992.886 136.857C993.339 136.857 993.705 136.785 993.984 136.642C994.267 136.498 994.481 136.288 994.625 136.013C994.773 135.734 994.87 135.393 994.917 134.991ZM1002.56 128.758V138H1000.98V128.758H1002.56ZM1005.46 128.758V130.027H998.107V128.758H1005.46ZM1009.38 128.758V138H1007.79V128.758H1009.38ZM1015.53 136.312L1017.96 128.758H1019.72L1016.41 138H1015.22L1015.53 136.312ZM1013.28 128.758L1015.7 136.312L1016.03 138H1014.83L1011.53 128.758H1013.28ZM1027.81 136.737V138H1022.9V136.737H1027.81ZM1023.35 128.758V138H1021.76V128.758H1023.35ZM1027.16 132.617V133.861H1022.9V132.617H1027.16ZM1027.77 128.758V130.027H1022.9V128.758H1027.77Z" fill="#737373"/>
<rect x="979" y="160" width="32" height="32" rx="4" fill="#F2F2F2"/>
<path d="M996.181 170.726V180H994.651V172.542L992.385 173.31V172.046L995.997 170.726H996.181Z" fill="#1A1A1A"/>
<path d="M177.477 52.7578H174.516V51.2031H177.477C177.992 51.2031 178.409 51.1198 178.727 50.9531C179.044 50.7865 179.276 50.5573 179.422 50.2656C179.573 49.9688 179.648 49.6302 179.648 49.25C179.648 48.8906 179.573 48.5547 179.422 48.2422C179.276 47.9245 179.044 47.6693 178.727 47.4766C178.409 47.2839 177.992 47.1875 177.477 47.1875H175.117V57H173.156V45.625H177.477C178.357 45.625 179.104 45.7812 179.719 46.0938C180.339 46.401 180.81 46.8281 181.133 47.375C181.456 47.9167 181.617 48.5365 181.617 49.2344C181.617 49.9688 181.456 50.599 181.133 51.125C180.81 51.651 180.339 52.0547 179.719 52.3359C179.104 52.6172 178.357 52.7578 177.477 52.7578ZM187.859 55.3047V51.2734C187.859 50.9714 187.805 50.7109 187.695 50.4922C187.586 50.2734 187.419 50.1042 187.195 49.9844C186.977 49.8646 186.701 49.8047 186.367 49.8047C186.06 49.8047 185.794 49.8568 185.57 49.9609C185.346 50.0651 185.172 50.2057 185.047 50.3828C184.922 50.5599 184.859 50.7604 184.859 50.9844H182.984C182.984 50.651 183.065 50.3281 183.227 50.0156C183.388 49.7031 183.622 49.4245 183.93 49.1797C184.237 48.9349 184.604 48.7422 185.031 48.6016C185.458 48.4609 185.938 48.3906 186.469 48.3906C187.104 48.3906 187.667 48.4974 188.156 48.7109C188.651 48.9245 189.039 49.2474 189.32 49.6797C189.607 50.1068 189.75 50.6432 189.75 51.2891V55.0469C189.75 55.4323 189.776 55.7786 189.828 56.0859C189.885 56.388 189.966 56.651 190.07 56.875V57H188.141C188.052 56.7969 187.982 56.5391 187.93 56.2266C187.883 55.9089 187.859 55.6016 187.859 55.3047ZM188.133 51.8594L188.148 53.0234H186.797C186.448 53.0234 186.141 53.0573 185.875 53.125C185.609 53.1875 185.388 53.2812 185.211 53.4062C185.034 53.5312 184.901 53.6823 184.812 53.8594C184.724 54.0365 184.68 54.237 184.68 54.4609C184.68 54.6849 184.732 54.8906 184.836 55.0781C184.94 55.2604 185.091 55.4036 185.289 55.5078C185.492 55.612 185.737 55.6641 186.023 55.6641C186.409 55.6641 186.745 55.5859 187.031 55.4297C187.323 55.2682 187.552 55.0729 187.719 54.8438C187.885 54.6094 187.974 54.388 187.984 54.1797L188.594 55.0156C188.531 55.2292 188.424 55.4583 188.273 55.7031C188.122 55.9479 187.924 56.1823 187.68 56.4062C187.44 56.625 187.151 56.8047 186.812 56.9453C186.479 57.0859 186.094 57.1562 185.656 57.1562C185.104 57.1562 184.612 57.0469 184.18 56.8281C183.747 56.6042 183.409 56.3047 183.164 55.9297C182.919 55.5495 182.797 55.1198 182.797 54.6406C182.797 54.1927 182.88 53.7969 183.047 53.4531C183.219 53.1042 183.469 52.8125 183.797 52.5781C184.13 52.3438 184.536 52.1667 185.016 52.0469C185.495 51.9219 186.042 51.8594 186.656 51.8594H188.133ZM197.133 48.5469H198.844V56.7656C198.844 57.526 198.682 58.1719 198.359 58.7031C198.036 59.2344 197.586 59.638 197.008 59.9141C196.43 60.1953 195.76 60.3359 195 60.3359C194.677 60.3359 194.318 60.2891 193.922 60.1953C193.531 60.1016 193.151 59.9505 192.781 59.7422C192.417 59.5391 192.112 59.2708 191.867 58.9375L192.75 57.8281C193.052 58.1875 193.385 58.4505 193.75 58.6172C194.115 58.7839 194.497 58.8672 194.898 58.8672C195.331 58.8672 195.698 58.7865 196 58.625C196.307 58.4688 196.544 58.237 196.711 57.9297C196.878 57.6224 196.961 57.2474 196.961 56.8047V50.4609L197.133 48.5469ZM191.391 52.8672V52.7031C191.391 52.0625 191.469 51.4792 191.625 50.9531C191.781 50.4219 192.005 49.9661 192.297 49.5859C192.589 49.2005 192.943 48.9062 193.359 48.7031C193.776 48.4948 194.247 48.3906 194.773 48.3906C195.32 48.3906 195.786 48.4896 196.172 48.6875C196.562 48.8854 196.888 49.1693 197.148 49.5391C197.409 49.9036 197.612 50.3411 197.758 50.8516C197.909 51.3568 198.021 51.9193 198.094 52.5391V53.0625C198.026 53.6667 197.911 54.2188 197.75 54.7188C197.589 55.2188 197.375 55.651 197.109 56.0156C196.844 56.3802 196.516 56.6615 196.125 56.8594C195.74 57.0573 195.284 57.1562 194.758 57.1562C194.242 57.1562 193.776 57.0495 193.359 56.8359C192.948 56.6224 192.594 56.3229 192.297 55.9375C192.005 55.5521 191.781 55.099 191.625 54.5781C191.469 54.0521 191.391 53.4818 191.391 52.8672ZM193.273 52.7031V52.8672C193.273 53.2526 193.31 53.612 193.383 53.9453C193.461 54.2786 193.578 54.5729 193.734 54.8281C193.896 55.0781 194.099 55.276 194.344 55.4219C194.594 55.5625 194.888 55.6328 195.227 55.6328C195.669 55.6328 196.031 55.5391 196.312 55.3516C196.599 55.1641 196.818 54.9115 196.969 54.5938C197.125 54.2708 197.234 53.9115 197.297 53.5156V52.1016C197.266 51.7943 197.201 51.5078 197.102 51.2422C197.008 50.9766 196.88 50.7448 196.719 50.5469C196.557 50.3438 196.354 50.1875 196.109 50.0781C195.865 49.9635 195.576 49.9062 195.242 49.9062C194.904 49.9062 194.609 49.9792 194.359 50.125C194.109 50.2708 193.904 50.4714 193.742 50.7266C193.586 50.9818 193.469 51.2786 193.391 51.6172C193.312 51.9557 193.273 52.3177 193.273 52.7031ZM202.812 48.5469V57H200.922V48.5469H202.812ZM200.797 46.3281C200.797 46.0417 200.891 45.8047 201.078 45.6172C201.271 45.4245 201.536 45.3281 201.875 45.3281C202.208 45.3281 202.471 45.4245 202.664 45.6172C202.857 45.8047 202.953 46.0417 202.953 46.3281C202.953 46.6094 202.857 46.8438 202.664 47.0312C202.471 47.2188 202.208 47.3125 201.875 47.3125C201.536 47.3125 201.271 47.2188 201.078 47.0312C200.891 46.8438 200.797 46.6094 200.797 46.3281ZM206.742 50.3516V57H204.859V48.5469H206.633L206.742 50.3516ZM206.406 52.4609L205.797 52.4531C205.802 51.8542 205.885 51.3047 206.047 50.8047C206.214 50.3047 206.443 49.875 206.734 49.5156C207.031 49.1562 207.385 48.8802 207.797 48.6875C208.208 48.4896 208.667 48.3906 209.172 48.3906C209.578 48.3906 209.945 48.4479 210.273 48.5625C210.607 48.6719 210.891 48.8516 211.125 49.1016C211.365 49.3516 211.547 49.6771 211.672 50.0781C211.797 50.474 211.859 50.9609 211.859 51.5391V57H209.969V51.5312C209.969 51.125 209.909 50.8047 209.789 50.5703C209.674 50.3307 209.505 50.1615 209.281 50.0625C209.062 49.9583 208.789 49.9062 208.461 49.9062C208.138 49.9062 207.849 49.974 207.594 50.1094C207.339 50.2448 207.122 50.4297 206.945 50.6641C206.773 50.8984 206.641 51.1693 206.547 51.4766C206.453 51.7839 206.406 52.112 206.406 52.4609ZM218.547 55.3047V51.2734C218.547 50.9714 218.492 50.7109 218.383 50.4922C218.273 50.2734 218.107 50.1042 217.883 49.9844C217.664 49.8646 217.388 49.8047 217.055 49.8047C216.747 49.8047 216.482 49.8568 216.258 49.9609C216.034 50.0651 215.859 50.2057 215.734 50.3828C215.609 50.5599 215.547 50.7604 215.547 50.9844H213.672C213.672 50.651 213.753 50.3281 213.914 50.0156C214.076 49.7031 214.31 49.4245 214.617 49.1797C214.924 48.9349 215.292 48.7422 215.719 48.6016C216.146 48.4609 216.625 48.3906 217.156 48.3906C217.792 48.3906 218.354 48.4974 218.844 48.7109C219.339 48.9245 219.727 49.2474 220.008 49.6797C220.294 50.1068 220.438 50.6432 220.438 51.2891V55.0469C220.438 55.4323 220.464 55.7786 220.516 56.0859C220.573 56.388 220.654 56.651 220.758 56.875V57H218.828C218.74 56.7969 218.669 56.5391 218.617 56.2266C218.57 55.9089 218.547 55.6016 218.547 55.3047ZM218.82 51.8594L218.836 53.0234H217.484C217.135 53.0234 216.828 53.0573 216.562 53.125C216.297 53.1875 216.076 53.2812 215.898 53.4062C215.721 53.5312 215.589 53.6823 215.5 53.8594C215.411 54.0365 215.367 54.237 215.367 54.4609C215.367 54.6849 215.419 54.8906 215.523 55.0781C215.628 55.2604 215.779 55.4036 215.977 55.5078C216.18 55.612 216.424 55.6641 216.711 55.6641C217.096 55.6641 217.432 55.5859 217.719 55.4297C218.01 55.2682 218.24 55.0729 218.406 54.8438C218.573 54.6094 218.661 54.388 218.672 54.1797L219.281 55.0156C219.219 55.2292 219.112 55.4583 218.961 55.7031C218.81 55.9479 218.612 56.1823 218.367 56.4062C218.128 56.625 217.839 56.8047 217.5 56.9453C217.167 57.0859 216.781 57.1562 216.344 57.1562C215.792 57.1562 215.299 57.0469 214.867 56.8281C214.435 56.6042 214.096 56.3047 213.852 55.9297C213.607 55.5495 213.484 55.1198 213.484 54.6406C213.484 54.1927 213.568 53.7969 213.734 53.4531C213.906 53.1042 214.156 52.8125 214.484 52.5781C214.818 52.3438 215.224 52.1667 215.703 52.0469C216.182 51.9219 216.729 51.8594 217.344 51.8594H218.82ZM226.281 48.5469V49.9219H221.516V48.5469H226.281ZM222.891 46.4766H224.773V54.6641C224.773 54.9245 224.81 55.125 224.883 55.2656C224.961 55.401 225.068 55.4922 225.203 55.5391C225.339 55.5859 225.497 55.6094 225.68 55.6094C225.81 55.6094 225.935 55.6016 226.055 55.5859C226.174 55.5703 226.271 55.5547 226.344 55.5391L226.352 56.9766C226.195 57.0234 226.013 57.0651 225.805 57.1016C225.602 57.138 225.367 57.1562 225.102 57.1562C224.669 57.1562 224.286 57.0807 223.953 56.9297C223.62 56.7734 223.359 56.5208 223.172 56.1719C222.984 55.8229 222.891 55.3594 222.891 54.7812V46.4766ZM229.75 48.5469V57H227.859V48.5469H229.75ZM227.734 46.3281C227.734 46.0417 227.828 45.8047 228.016 45.6172C228.208 45.4245 228.474 45.3281 228.812 45.3281C229.146 45.3281 229.409 45.4245 229.602 45.6172C229.794 45.8047 229.891 46.0417 229.891 46.3281C229.891 46.6094 229.794 46.8438 229.602 47.0312C229.409 47.2188 229.146 47.3125 228.812 47.3125C228.474 47.3125 228.208 47.2188 228.016 47.0312C227.828 46.8438 227.734 46.6094 227.734 46.3281ZM231.453 52.8672V52.6875C231.453 52.0781 231.542 51.513 231.719 50.9922C231.896 50.4661 232.151 50.0104 232.484 49.625C232.823 49.2344 233.234 48.9323 233.719 48.7188C234.208 48.5 234.76 48.3906 235.375 48.3906C235.995 48.3906 236.547 48.5 237.031 48.7188C237.521 48.9323 237.935 49.2344 238.273 49.625C238.612 50.0104 238.87 50.4661 239.047 50.9922C239.224 51.513 239.312 52.0781 239.312 52.6875V52.8672C239.312 53.4766 239.224 54.0417 239.047 54.5625C238.87 55.0833 238.612 55.5391 238.273 55.9297C237.935 56.3151 237.523 56.6172 237.039 56.8359C236.555 57.0495 236.005 57.1562 235.391 57.1562C234.771 57.1562 234.216 57.0495 233.727 56.8359C233.242 56.6172 232.831 56.3151 232.492 55.9297C232.154 55.5391 231.896 55.0833 231.719 54.5625C231.542 54.0417 231.453 53.4766 231.453 52.8672ZM233.336 52.6875V52.8672C233.336 53.2474 233.375 53.6068 233.453 53.9453C233.531 54.2839 233.654 54.5807 233.82 54.8359C233.987 55.0911 234.201 55.2917 234.461 55.4375C234.721 55.5833 235.031 55.6562 235.391 55.6562C235.74 55.6562 236.042 55.5833 236.297 55.4375C236.557 55.2917 236.771 55.0911 236.938 54.8359C237.104 54.5807 237.227 54.2839 237.305 53.9453C237.388 53.6068 237.43 53.2474 237.43 52.8672V52.6875C237.43 52.3125 237.388 51.9583 237.305 51.625C237.227 51.2865 237.102 50.987 236.93 50.7266C236.763 50.4661 236.549 50.263 236.289 50.1172C236.034 49.9661 235.729 49.8906 235.375 49.8906C235.021 49.8906 234.714 49.9661 234.453 50.1172C234.198 50.263 233.987 50.4661 233.82 50.7266C233.654 50.987 233.531 51.2865 233.453 51.625C233.375 51.9583 233.336 52.3125 233.336 52.6875ZM242.758 50.3516V57H240.875V48.5469H242.648L242.758 50.3516ZM242.422 52.4609L241.812 52.4531C241.818 51.8542 241.901 51.3047 242.062 50.8047C242.229 50.3047 242.458 49.875 242.75 49.5156C243.047 49.1562 243.401 48.8802 243.812 48.6875C244.224 48.4896 244.682 48.3906 245.188 48.3906C245.594 48.3906 245.961 48.4479 246.289 48.5625C246.622 48.6719 246.906 48.8516 247.141 49.1016C247.38 49.3516 247.562 49.6771 247.688 50.0781C247.812 50.474 247.875 50.9609 247.875 51.5391V57H245.984V51.5312C245.984 51.125 245.924 50.8047 245.805 50.5703C245.69 50.3307 245.521 50.1615 245.297 50.0625C245.078 49.9583 244.805 49.9062 244.477 49.9062C244.154 49.9062 243.865 49.974 243.609 50.1094C243.354 50.2448 243.138 50.4297 242.961 50.6641C242.789 50.8984 242.656 51.1693 242.562 51.4766C242.469 51.7839 242.422 52.112 242.422 52.4609ZM258.523 54.7109C258.523 54.5234 258.477 54.3542 258.383 54.2031C258.289 54.0469 258.109 53.9062 257.844 53.7812C257.583 53.6562 257.198 53.5417 256.688 53.4375C256.24 53.3385 255.828 53.2214 255.453 53.0859C255.083 52.9453 254.766 52.776 254.5 52.5781C254.234 52.3802 254.029 52.1458 253.883 51.875C253.737 51.6042 253.664 51.2917 253.664 50.9375C253.664 50.5938 253.74 50.2682 253.891 49.9609C254.042 49.6536 254.258 49.3828 254.539 49.1484C254.82 48.9141 255.161 48.7292 255.562 48.5938C255.969 48.4583 256.422 48.3906 256.922 48.3906C257.63 48.3906 258.237 48.5104 258.742 48.75C259.253 48.9844 259.643 49.3047 259.914 49.7109C260.185 50.112 260.32 50.5651 260.32 51.0703H258.438C258.438 50.8464 258.38 50.638 258.266 50.4453C258.156 50.2474 257.99 50.0885 257.766 49.9688C257.542 49.8438 257.26 49.7812 256.922 49.7812C256.599 49.7812 256.331 49.8333 256.117 49.9375C255.909 50.0365 255.753 50.1667 255.648 50.3281C255.549 50.4896 255.5 50.6667 255.5 50.8594C255.5 51 255.526 51.1276 255.578 51.2422C255.635 51.3516 255.729 51.4531 255.859 51.5469C255.99 51.6354 256.167 51.7188 256.391 51.7969C256.62 51.875 256.906 51.9505 257.25 52.0234C257.896 52.1589 258.451 52.3333 258.914 52.5469C259.383 52.7552 259.742 53.026 259.992 53.3594C260.242 53.6875 260.367 54.1042 260.367 54.6094C260.367 54.9844 260.286 55.3281 260.125 55.6406C259.969 55.9479 259.74 56.2161 259.438 56.4453C259.135 56.6693 258.773 56.8438 258.352 56.9688C257.935 57.0938 257.466 57.1562 256.945 57.1562C256.18 57.1562 255.531 57.0208 255 56.75C254.469 56.474 254.065 56.1224 253.789 55.6953C253.518 55.263 253.383 54.8151 253.383 54.3516H255.203C255.224 54.7005 255.32 54.9792 255.492 55.1875C255.669 55.3906 255.888 55.5391 256.148 55.6328C256.414 55.7214 256.688 55.7656 256.969 55.7656C257.307 55.7656 257.591 55.7214 257.82 55.6328C258.049 55.5391 258.224 55.4141 258.344 55.2578C258.464 55.0964 258.523 54.9141 258.523 54.7109ZM265.891 48.5469V49.9219H261.125V48.5469H265.891ZM262.5 46.4766H264.383V54.6641C264.383 54.9245 264.419 55.125 264.492 55.2656C264.57 55.401 264.677 55.4922 264.812 55.5391C264.948 55.5859 265.107 55.6094 265.289 55.6094C265.419 55.6094 265.544 55.6016 265.664 55.5859C265.784 55.5703 265.88 55.5547 265.953 55.5391L265.961 56.9766C265.805 57.0234 265.622 57.0651 265.414 57.1016C265.211 57.138 264.977 57.1562 264.711 57.1562C264.279 57.1562 263.896 57.0807 263.562 56.9297C263.229 56.7734 262.969 56.5208 262.781 56.1719C262.594 55.8229 262.5 55.3594 262.5 54.7812V46.4766ZM272.109 55.3047V51.2734C272.109 50.9714 272.055 50.7109 271.945 50.4922C271.836 50.2734 271.669 50.1042 271.445 49.9844C271.227 49.8646 270.951 49.8047 270.617 49.8047C270.31 49.8047 270.044 49.8568 269.82 49.9609C269.596 50.0651 269.422 50.2057 269.297 50.3828C269.172 50.5599 269.109 50.7604 269.109 50.9844H267.234C267.234 50.651 267.315 50.3281 267.477 50.0156C267.638 49.7031 267.872 49.4245 268.18 49.1797C268.487 48.9349 268.854 48.7422 269.281 48.6016C269.708 48.4609 270.188 48.3906 270.719 48.3906C271.354 48.3906 271.917 48.4974 272.406 48.7109C272.901 48.9245 273.289 49.2474 273.57 49.6797C273.857 50.1068 274 50.6432 274 51.2891V55.0469C274 55.4323 274.026 55.7786 274.078 56.0859C274.135 56.388 274.216 56.651 274.32 56.875V57H272.391C272.302 56.7969 272.232 56.5391 272.18 56.2266C272.133 55.9089 272.109 55.6016 272.109 55.3047ZM272.383 51.8594L272.398 53.0234H271.047C270.698 53.0234 270.391 53.0573 270.125 53.125C269.859 53.1875 269.638 53.2812 269.461 53.4062C269.284 53.5312 269.151 53.6823 269.062 53.8594C268.974 54.0365 268.93 54.237 268.93 54.4609C268.93 54.6849 268.982 54.8906 269.086 55.0781C269.19 55.2604 269.341 55.4036 269.539 55.5078C269.742 55.612 269.987 55.6641 270.273 55.6641C270.659 55.6641 270.995 55.5859 271.281 55.4297C271.573 55.2682 271.802 55.0729 271.969 54.8438C272.135 54.6094 272.224 54.388 272.234 54.1797L272.844 55.0156C272.781 55.2292 272.674 55.4583 272.523 55.7031C272.372 55.9479 272.174 56.1823 271.93 56.4062C271.69 56.625 271.401 56.8047 271.062 56.9453C270.729 57.0859 270.344 57.1562 269.906 57.1562C269.354 57.1562 268.862 57.0469 268.43 56.8281C267.997 56.6042 267.659 56.3047 267.414 55.9297C267.169 55.5495 267.047 55.1198 267.047 54.6406C267.047 54.1927 267.13 53.7969 267.297 53.4531C267.469 53.1042 267.719 52.8125 268.047 52.5781C268.38 52.3438 268.786 52.1667 269.266 52.0469C269.745 51.9219 270.292 51.8594 270.906 51.8594H272.383ZM279.844 48.5469V49.9219H275.078V48.5469H279.844ZM276.453 46.4766H278.336V54.6641C278.336 54.9245 278.372 55.125 278.445 55.2656C278.523 55.401 278.63 55.4922 278.766 55.5391C278.901 55.5859 279.06 55.6094 279.242 55.6094C279.372 55.6094 279.497 55.6016 279.617 55.5859C279.737 55.5703 279.833 55.5547 279.906 55.5391L279.914 56.9766C279.758 57.0234 279.576 57.0651 279.367 57.1016C279.164 57.138 278.93 57.1562 278.664 57.1562C278.232 57.1562 277.849 57.0807 277.516 56.9297C277.182 56.7734 276.922 56.5208 276.734 56.1719C276.547 55.8229 276.453 55.3594 276.453 54.7812V46.4766ZM285.023 57.1562C284.398 57.1562 283.833 57.0547 283.328 56.8516C282.828 56.6432 282.401 56.3542 282.047 55.9844C281.698 55.6146 281.43 55.1797 281.242 54.6797C281.055 54.1797 280.961 53.6406 280.961 53.0625V52.75C280.961 52.0885 281.057 51.4896 281.25 50.9531C281.443 50.4167 281.711 49.9583 282.055 49.5781C282.398 49.1927 282.805 48.8984 283.273 48.6953C283.742 48.4922 284.25 48.3906 284.797 48.3906C285.401 48.3906 285.93 48.4922 286.383 48.6953C286.836 48.8984 287.211 49.1849 287.508 49.5547C287.81 49.9193 288.034 50.3542 288.18 50.8594C288.331 51.3646 288.406 51.9219 288.406 52.5312V53.3359H281.875V51.9844H286.547V51.8359C286.536 51.4974 286.469 51.1797 286.344 50.8828C286.224 50.5859 286.039 50.3464 285.789 50.1641C285.539 49.9818 285.206 49.8906 284.789 49.8906C284.477 49.8906 284.198 49.9583 283.953 50.0938C283.714 50.224 283.513 50.4141 283.352 50.6641C283.19 50.9141 283.065 51.2161 282.977 51.5703C282.893 51.9193 282.852 52.3125 282.852 52.75V53.0625C282.852 53.4323 282.901 53.776 283 54.0938C283.104 54.4062 283.255 54.6797 283.453 54.9141C283.651 55.1484 283.891 55.3333 284.172 55.4688C284.453 55.599 284.773 55.6641 285.133 55.6641C285.586 55.6641 285.99 55.5729 286.344 55.3906C286.698 55.2083 287.005 54.9505 287.266 54.6172L288.258 55.5781C288.076 55.8438 287.839 56.099 287.547 56.3438C287.255 56.5833 286.898 56.7786 286.477 56.9297C286.06 57.0807 285.576 57.1562 285.023 57.1562ZM294.617 54.7109C294.617 54.5234 294.57 54.3542 294.477 54.2031C294.383 54.0469 294.203 53.9062 293.938 53.7812C293.677 53.6562 293.292 53.5417 292.781 53.4375C292.333 53.3385 291.922 53.2214 291.547 53.0859C291.177 52.9453 290.859 52.776 290.594 52.5781C290.328 52.3802 290.122 52.1458 289.977 51.875C289.831 51.6042 289.758 51.2917 289.758 50.9375C289.758 50.5938 289.833 50.2682 289.984 49.9609C290.135 49.6536 290.352 49.3828 290.633 49.1484C290.914 48.9141 291.255 48.7292 291.656 48.5938C292.062 48.4583 292.516 48.3906 293.016 48.3906C293.724 48.3906 294.331 48.5104 294.836 48.75C295.346 48.9844 295.737 49.3047 296.008 49.7109C296.279 50.112 296.414 50.5651 296.414 51.0703H294.531C294.531 50.8464 294.474 50.638 294.359 50.4453C294.25 50.2474 294.083 50.0885 293.859 49.9688C293.635 49.8438 293.354 49.7812 293.016 49.7812C292.693 49.7812 292.424 49.8333 292.211 49.9375C292.003 50.0365 291.846 50.1667 291.742 50.3281C291.643 50.4896 291.594 50.6667 291.594 50.8594C291.594 51 291.62 51.1276 291.672 51.2422C291.729 51.3516 291.823 51.4531 291.953 51.5469C292.083 51.6354 292.26 51.7188 292.484 51.7969C292.714 51.875 293 51.9505 293.344 52.0234C293.99 52.1589 294.544 52.3333 295.008 52.5469C295.477 52.7552 295.836 53.026 296.086 53.3594C296.336 53.6875 296.461 54.1042 296.461 54.6094C296.461 54.9844 296.38 55.3281 296.219 55.6406C296.062 55.9479 295.833 56.2161 295.531 56.4453C295.229 56.6693 294.867 56.8438 294.445 56.9688C294.029 57.0938 293.56 57.1562 293.039 57.1562C292.273 57.1562 291.625 57.0208 291.094 56.75C290.562 56.474 290.159 56.1224 289.883 55.6953C289.612 55.263 289.477 54.8151 289.477 54.3516H291.297C291.318 54.7005 291.414 54.9792 291.586 55.1875C291.763 55.3906 291.982 55.5391 292.242 55.6328C292.508 55.7214 292.781 55.7656 293.062 55.7656C293.401 55.7656 293.685 55.7214 293.914 55.6328C294.143 55.5391 294.318 55.4141 294.438 55.2578C294.557 55.0964 294.617 54.9141 294.617 54.7109Z" fill="#1A1A1A"/>
<path d="M674.477 52.7578H671.516V51.2031H674.477C674.992 51.2031 675.409 51.1198 675.727 50.9531C676.044 50.7865 676.276 50.5573 676.422 50.2656C676.573 49.9688 676.648 49.6302 676.648 49.25C676.648 48.8906 676.573 48.5547 676.422 48.2422C676.276 47.9245 676.044 47.6693 675.727 47.4766C675.409 47.2839 674.992 47.1875 674.477 47.1875H672.117V57H670.156V45.625H674.477C675.357 45.625 676.104 45.7812 676.719 46.0938C677.339 46.401 677.81 46.8281 678.133 47.375C678.456 47.9167 678.617 48.5365 678.617 49.2344C678.617 49.9688 678.456 50.599 678.133 51.125C677.81 51.651 677.339 52.0547 676.719 52.3359C676.104 52.6172 675.357 52.7578 674.477 52.7578ZM684.859 55.3047V51.2734C684.859 50.9714 684.805 50.7109 684.695 50.4922C684.586 50.2734 684.419 50.1042 684.195 49.9844C683.977 49.8646 683.701 49.8047 683.367 49.8047C683.06 49.8047 682.794 49.8568 682.57 49.9609C682.346 50.0651 682.172 50.2057 682.047 50.3828C681.922 50.5599 681.859 50.7604 681.859 50.9844H679.984C679.984 50.651 680.065 50.3281 680.227 50.0156C680.388 49.7031 680.622 49.4245 680.93 49.1797C681.237 48.9349 681.604 48.7422 682.031 48.6016C682.458 48.4609 682.938 48.3906 683.469 48.3906C684.104 48.3906 684.667 48.4974 685.156 48.7109C685.651 48.9245 686.039 49.2474 686.32 49.6797C686.607 50.1068 686.75 50.6432 686.75 51.2891V55.0469C686.75 55.4323 686.776 55.7786 686.828 56.0859C686.885 56.388 686.966 56.651 687.07 56.875V57H685.141C685.052 56.7969 684.982 56.5391 684.93 56.2266C684.883 55.9089 684.859 55.6016 684.859 55.3047ZM685.133 51.8594L685.148 53.0234H683.797C683.448 53.0234 683.141 53.0573 682.875 53.125C682.609 53.1875 682.388 53.2812 682.211 53.4062C682.034 53.5312 681.901 53.6823 681.812 53.8594C681.724 54.0365 681.68 54.237 681.68 54.4609C681.68 54.6849 681.732 54.8906 681.836 55.0781C681.94 55.2604 682.091 55.4036 682.289 55.5078C682.492 55.612 682.737 55.6641 683.023 55.6641C683.409 55.6641 683.745 55.5859 684.031 55.4297C684.323 55.2682 684.552 55.0729 684.719 54.8438C684.885 54.6094 684.974 54.388 684.984 54.1797L685.594 55.0156C685.531 55.2292 685.424 55.4583 685.273 55.7031C685.122 55.9479 684.924 56.1823 684.68 56.4062C684.44 56.625 684.151 56.8047 683.812 56.9453C683.479 57.0859 683.094 57.1562 682.656 57.1562C682.104 57.1562 681.612 57.0469 681.18 56.8281C680.747 56.6042 680.409 56.3047 680.164 55.9297C679.919 55.5495 679.797 55.1198 679.797 54.6406C679.797 54.1927 679.88 53.7969 680.047 53.4531C680.219 53.1042 680.469 52.8125 680.797 52.5781C681.13 52.3438 681.536 52.1667 682.016 52.0469C682.495 51.9219 683.042 51.8594 683.656 51.8594H685.133ZM694.133 48.5469H695.844V56.7656C695.844 57.526 695.682 58.1719 695.359 58.7031C695.036 59.2344 694.586 59.638 694.008 59.9141C693.43 60.1953 692.76 60.3359 692 60.3359C691.677 60.3359 691.318 60.2891 690.922 60.1953C690.531 60.1016 690.151 59.9505 689.781 59.7422C689.417 59.5391 689.112 59.2708 688.867 58.9375L689.75 57.8281C690.052 58.1875 690.385 58.4505 690.75 58.6172C691.115 58.7839 691.497 58.8672 691.898 58.8672C692.331 58.8672 692.698 58.7865 693 58.625C693.307 58.4688 693.544 58.237 693.711 57.9297C693.878 57.6224 693.961 57.2474 693.961 56.8047V50.4609L694.133 48.5469ZM688.391 52.8672V52.7031C688.391 52.0625 688.469 51.4792 688.625 50.9531C688.781 50.4219 689.005 49.9661 689.297 49.5859C689.589 49.2005 689.943 48.9062 690.359 48.7031C690.776 48.4948 691.247 48.3906 691.773 48.3906C692.32 48.3906 692.786 48.4896 693.172 48.6875C693.562 48.8854 693.888 49.1693 694.148 49.5391C694.409 49.9036 694.612 50.3411 694.758 50.8516C694.909 51.3568 695.021 51.9193 695.094 52.5391V53.0625C695.026 53.6667 694.911 54.2188 694.75 54.7188C694.589 55.2188 694.375 55.651 694.109 56.0156C693.844 56.3802 693.516 56.6615 693.125 56.8594C692.74 57.0573 692.284 57.1562 691.758 57.1562C691.242 57.1562 690.776 57.0495 690.359 56.8359C689.948 56.6224 689.594 56.3229 689.297 55.9375C689.005 55.5521 688.781 55.099 688.625 54.5781C688.469 54.0521 688.391 53.4818 688.391 52.8672ZM690.273 52.7031V52.8672C690.273 53.2526 690.31 53.612 690.383 53.9453C690.461 54.2786 690.578 54.5729 690.734 54.8281C690.896 55.0781 691.099 55.276 691.344 55.4219C691.594 55.5625 691.888 55.6328 692.227 55.6328C692.669 55.6328 693.031 55.5391 693.312 55.3516C693.599 55.1641 693.818 54.9115 693.969 54.5938C694.125 54.2708 694.234 53.9115 694.297 53.5156V52.1016C694.266 51.7943 694.201 51.5078 694.102 51.2422C694.008 50.9766 693.88 50.7448 693.719 50.5469C693.557 50.3438 693.354 50.1875 693.109 50.0781C692.865 49.9635 692.576 49.9062 692.242 49.9062C691.904 49.9062 691.609 49.9792 691.359 50.125C691.109 50.2708 690.904 50.4714 690.742 50.7266C690.586 50.9818 690.469 51.2786 690.391 51.6172C690.312 51.9557 690.273 52.3177 690.273 52.7031ZM701.523 57.1562C700.898 57.1562 700.333 57.0547 699.828 56.8516C699.328 56.6432 698.901 56.3542 698.547 55.9844C698.198 55.6146 697.93 55.1797 697.742 54.6797C697.555 54.1797 697.461 53.6406 697.461 53.0625V52.75C697.461 52.0885 697.557 51.4896 697.75 50.9531C697.943 50.4167 698.211 49.9583 698.555 49.5781C698.898 49.1927 699.305 48.8984 699.773 48.6953C700.242 48.4922 700.75 48.3906 701.297 48.3906C701.901 48.3906 702.43 48.4922 702.883 48.6953C703.336 48.8984 703.711 49.1849 704.008 49.5547C704.31 49.9193 704.534 50.3542 704.68 50.8594C704.831 51.3646 704.906 51.9219 704.906 52.5312V53.3359H698.375V51.9844H703.047V51.8359C703.036 51.4974 702.969 51.1797 702.844 50.8828C702.724 50.5859 702.539 50.3464 702.289 50.1641C702.039 49.9818 701.706 49.8906 701.289 49.8906C700.977 49.8906 700.698 49.9583 700.453 50.0938C700.214 50.224 700.013 50.4141 699.852 50.6641C699.69 50.9141 699.565 51.2161 699.477 51.5703C699.393 51.9193 699.352 52.3125 699.352 52.75V53.0625C699.352 53.4323 699.401 53.776 699.5 54.0938C699.604 54.4062 699.755 54.6797 699.953 54.9141C700.151 55.1484 700.391 55.3333 700.672 55.4688C700.953 55.599 701.273 55.6641 701.633 55.6641C702.086 55.6641 702.49 55.5729 702.844 55.3906C703.198 55.2083 703.505 54.9505 703.766 54.6172L704.758 55.5781C704.576 55.8438 704.339 56.099 704.047 56.3438C703.755 56.5833 703.398 56.7786 702.977 56.9297C702.56 57.0807 702.076 57.1562 701.523 57.1562ZM711.117 54.7109C711.117 54.5234 711.07 54.3542 710.977 54.2031C710.883 54.0469 710.703 53.9062 710.438 53.7812C710.177 53.6562 709.792 53.5417 709.281 53.4375C708.833 53.3385 708.422 53.2214 708.047 53.0859C707.677 52.9453 707.359 52.776 707.094 52.5781C706.828 52.3802 706.622 52.1458 706.477 51.875C706.331 51.6042 706.258 51.2917 706.258 50.9375C706.258 50.5938 706.333 50.2682 706.484 49.9609C706.635 49.6536 706.852 49.3828 707.133 49.1484C707.414 48.9141 707.755 48.7292 708.156 48.5938C708.562 48.4583 709.016 48.3906 709.516 48.3906C710.224 48.3906 710.831 48.5104 711.336 48.75C711.846 48.9844 712.237 49.3047 712.508 49.7109C712.779 50.112 712.914 50.5651 712.914 51.0703H711.031C711.031 50.8464 710.974 50.638 710.859 50.4453C710.75 50.2474 710.583 50.0885 710.359 49.9688C710.135 49.8438 709.854 49.7812 709.516 49.7812C709.193 49.7812 708.924 49.8333 708.711 49.9375C708.503 50.0365 708.346 50.1667 708.242 50.3281C708.143 50.4896 708.094 50.6667 708.094 50.8594C708.094 51 708.12 51.1276 708.172 51.2422C708.229 51.3516 708.323 51.4531 708.453 51.5469C708.583 51.6354 708.76 51.7188 708.984 51.7969C709.214 51.875 709.5 51.9505 709.844 52.0234C710.49 52.1589 711.044 52.3333 711.508 52.5469C711.977 52.7552 712.336 53.026 712.586 53.3594C712.836 53.6875 712.961 54.1042 712.961 54.6094C712.961 54.9844 712.88 55.3281 712.719 55.6406C712.562 55.9479 712.333 56.2161 712.031 56.4453C711.729 56.6693 711.367 56.8438 710.945 56.9688C710.529 57.0938 710.06 57.1562 709.539 57.1562C708.773 57.1562 708.125 57.0208 707.594 56.75C707.062 56.474 706.659 56.1224 706.383 55.6953C706.112 55.263 705.977 54.8151 705.977 54.3516H707.797C707.818 54.7005 707.914 54.9792 708.086 55.1875C708.263 55.3906 708.482 55.5391 708.742 55.6328C709.008 55.7214 709.281 55.7656 709.562 55.7656C709.901 55.7656 710.185 55.7214 710.414 55.6328C710.643 55.5391 710.818 55.4141 710.938 55.2578C711.057 55.0964 711.117 54.9141 711.117 54.7109ZM723.336 54.7109C723.336 54.5234 723.289 54.3542 723.195 54.2031C723.102 54.0469 722.922 53.9062 722.656 53.7812C722.396 53.6562 722.01 53.5417 721.5 53.4375C721.052 53.3385 720.641 53.2214 720.266 53.0859C719.896 52.9453 719.578 52.776 719.312 52.5781C719.047 52.3802 718.841 52.1458 718.695 51.875C718.549 51.6042 718.477 51.2917 718.477 50.9375C718.477 50.5938 718.552 50.2682 718.703 49.9609C718.854 49.6536 719.07 49.3828 719.352 49.1484C719.633 48.9141 719.974 48.7292 720.375 48.5938C720.781 48.4583 721.234 48.3906 721.734 48.3906C722.443 48.3906 723.049 48.5104 723.555 48.75C724.065 48.9844 724.456 49.3047 724.727 49.7109C724.997 50.112 725.133 50.5651 725.133 51.0703H723.25C723.25 50.8464 723.193 50.638 723.078 50.4453C722.969 50.2474 722.802 50.0885 722.578 49.9688C722.354 49.8438 722.073 49.7812 721.734 49.7812C721.411 49.7812 721.143 49.8333 720.93 49.9375C720.721 50.0365 720.565 50.1667 720.461 50.3281C720.362 50.4896 720.312 50.6667 720.312 50.8594C720.312 51 720.339 51.1276 720.391 51.2422C720.448 51.3516 720.542 51.4531 720.672 51.5469C720.802 51.6354 720.979 51.7188 721.203 51.7969C721.432 51.875 721.719 51.9505 722.062 52.0234C722.708 52.1589 723.263 52.3333 723.727 52.5469C724.195 52.7552 724.555 53.026 724.805 53.3594C725.055 53.6875 725.18 54.1042 725.18 54.6094C725.18 54.9844 725.099 55.3281 724.938 55.6406C724.781 55.9479 724.552 56.2161 724.25 56.4453C723.948 56.6693 723.586 56.8438 723.164 56.9688C722.747 57.0938 722.279 57.1562 721.758 57.1562C720.992 57.1562 720.344 57.0208 719.812 56.75C719.281 56.474 718.878 56.1224 718.602 55.6953C718.331 55.263 718.195 54.8151 718.195 54.3516H720.016C720.036 54.7005 720.133 54.9792 720.305 55.1875C720.482 55.3906 720.701 55.5391 720.961 55.6328C721.227 55.7214 721.5 55.7656 721.781 55.7656C722.12 55.7656 722.404 55.7214 722.633 55.6328C722.862 55.5391 723.036 55.4141 723.156 55.2578C723.276 55.0964 723.336 54.9141 723.336 54.7109ZM730.703 48.5469V49.9219H725.938V48.5469H730.703ZM727.312 46.4766H729.195V54.6641C729.195 54.9245 729.232 55.125 729.305 55.2656C729.383 55.401 729.49 55.4922 729.625 55.5391C729.76 55.5859 729.919 55.6094 730.102 55.6094C730.232 55.6094 730.357 55.6016 730.477 55.5859C730.596 55.5703 730.693 55.5547 730.766 55.5391L730.773 56.9766C730.617 57.0234 730.435 57.0651 730.227 57.1016C730.023 57.138 729.789 57.1562 729.523 57.1562C729.091 57.1562 728.708 57.0807 728.375 56.9297C728.042 56.7734 727.781 56.5208 727.594 56.1719C727.406 55.8229 727.312 55.3594 727.312 54.7812V46.4766ZM736.922 55.3047V51.2734C736.922 50.9714 736.867 50.7109 736.758 50.4922C736.648 50.2734 736.482 50.1042 736.258 49.9844C736.039 49.8646 735.763 49.8047 735.43 49.8047C735.122 49.8047 734.857 49.8568 734.633 49.9609C734.409 50.0651 734.234 50.2057 734.109 50.3828C733.984 50.5599 733.922 50.7604 733.922 50.9844H732.047C732.047 50.651 732.128 50.3281 732.289 50.0156C732.451 49.7031 732.685 49.4245 732.992 49.1797C733.299 48.9349 733.667 48.7422 734.094 48.6016C734.521 48.4609 735 48.3906 735.531 48.3906C736.167 48.3906 736.729 48.4974 737.219 48.7109C737.714 48.9245 738.102 49.2474 738.383 49.6797C738.669 50.1068 738.812 50.6432 738.812 51.2891V55.0469C738.812 55.4323 738.839 55.7786 738.891 56.0859C738.948 56.388 739.029 56.651 739.133 56.875V57H737.203C737.115 56.7969 737.044 56.5391 736.992 56.2266C736.945 55.9089 736.922 55.6016 736.922 55.3047ZM737.195 51.8594L737.211 53.0234H735.859C735.51 53.0234 735.203 53.0573 734.938 53.125C734.672 53.1875 734.451 53.2812 734.273 53.4062C734.096 53.5312 733.964 53.6823 733.875 53.8594C733.786 54.0365 733.742 54.237 733.742 54.4609C733.742 54.6849 733.794 54.8906 733.898 55.0781C734.003 55.2604 734.154 55.4036 734.352 55.5078C734.555 55.612 734.799 55.6641 735.086 55.6641C735.471 55.6641 735.807 55.5859 736.094 55.4297C736.385 55.2682 736.615 55.0729 736.781 54.8438C736.948 54.6094 737.036 54.388 737.047 54.1797L737.656 55.0156C737.594 55.2292 737.487 55.4583 737.336 55.7031C737.185 55.9479 736.987 56.1823 736.742 56.4062C736.503 56.625 736.214 56.8047 735.875 56.9453C735.542 57.0859 735.156 57.1562 734.719 57.1562C734.167 57.1562 733.674 57.0469 733.242 56.8281C732.81 56.6042 732.471 56.3047 732.227 55.9297C731.982 55.5495 731.859 55.1198 731.859 54.6406C731.859 54.1927 731.943 53.7969 732.109 53.4531C732.281 53.1042 732.531 52.8125 732.859 52.5781C733.193 52.3438 733.599 52.1667 734.078 52.0469C734.557 51.9219 735.104 51.8594 735.719 51.8594H737.195ZM744.656 48.5469V49.9219H739.891V48.5469H744.656ZM741.266 46.4766H743.148V54.6641C743.148 54.9245 743.185 55.125 743.258 55.2656C743.336 55.401 743.443 55.4922 743.578 55.5391C743.714 55.5859 743.872 55.6094 744.055 55.6094C744.185 55.6094 744.31 55.6016 744.43 55.5859C744.549 55.5703 744.646 55.5547 744.719 55.5391L744.727 56.9766C744.57 57.0234 744.388 57.0651 744.18 57.1016C743.977 57.138 743.742 57.1562 743.477 57.1562C743.044 57.1562 742.661 57.0807 742.328 56.9297C741.995 56.7734 741.734 56.5208 741.547 56.1719C741.359 55.8229 741.266 55.3594 741.266 54.7812V46.4766ZM749.836 57.1562C749.211 57.1562 748.646 57.0547 748.141 56.8516C747.641 56.6432 747.214 56.3542 746.859 55.9844C746.51 55.6146 746.242 55.1797 746.055 54.6797C745.867 54.1797 745.773 53.6406 745.773 53.0625V52.75C745.773 52.0885 745.87 51.4896 746.062 50.9531C746.255 50.4167 746.523 49.9583 746.867 49.5781C747.211 49.1927 747.617 48.8984 748.086 48.6953C748.555 48.4922 749.062 48.3906 749.609 48.3906C750.214 48.3906 750.742 48.4922 751.195 48.6953C751.648 48.8984 752.023 49.1849 752.32 49.5547C752.622 49.9193 752.846 50.3542 752.992 50.8594C753.143 51.3646 753.219 51.9219 753.219 52.5312V53.3359H746.688V51.9844H751.359V51.8359C751.349 51.4974 751.281 51.1797 751.156 50.8828C751.036 50.5859 750.852 50.3464 750.602 50.1641C750.352 49.9818 750.018 49.8906 749.602 49.8906C749.289 49.8906 749.01 49.9583 748.766 50.0938C748.526 50.224 748.326 50.4141 748.164 50.6641C748.003 50.9141 747.878 51.2161 747.789 51.5703C747.706 51.9193 747.664 52.3125 747.664 52.75V53.0625C747.664 53.4323 747.714 53.776 747.812 54.0938C747.917 54.4062 748.068 54.6797 748.266 54.9141C748.464 55.1484 748.703 55.3333 748.984 55.4688C749.266 55.599 749.586 55.6641 749.945 55.6641C750.398 55.6641 750.802 55.5729 751.156 55.3906C751.51 55.2083 751.818 54.9505 752.078 54.6172L753.07 55.5781C752.888 55.8438 752.651 56.099 752.359 56.3438C752.068 56.5833 751.711 56.7786 751.289 56.9297C750.872 57.0807 750.388 57.1562 749.836 57.1562ZM759.43 54.7109C759.43 54.5234 759.383 54.3542 759.289 54.2031C759.195 54.0469 759.016 53.9062 758.75 53.7812C758.49 53.6562 758.104 53.5417 757.594 53.4375C757.146 53.3385 756.734 53.2214 756.359 53.0859C755.99 52.9453 755.672 52.776 755.406 52.5781C755.141 52.3802 754.935 52.1458 754.789 51.875C754.643 51.6042 754.57 51.2917 754.57 50.9375C754.57 50.5938 754.646 50.2682 754.797 49.9609C754.948 49.6536 755.164 49.3828 755.445 49.1484C755.727 48.9141 756.068 48.7292 756.469 48.5938C756.875 48.4583 757.328 48.3906 757.828 48.3906C758.536 48.3906 759.143 48.5104 759.648 48.75C760.159 48.9844 760.549 49.3047 760.82 49.7109C761.091 50.112 761.227 50.5651 761.227 51.0703H759.344C759.344 50.8464 759.286 50.638 759.172 50.4453C759.062 50.2474 758.896 50.0885 758.672 49.9688C758.448 49.8438 758.167 49.7812 757.828 49.7812C757.505 49.7812 757.237 49.8333 757.023 49.9375C756.815 50.0365 756.659 50.1667 756.555 50.3281C756.456 50.4896 756.406 50.6667 756.406 50.8594C756.406 51 756.432 51.1276 756.484 51.2422C756.542 51.3516 756.635 51.4531 756.766 51.5469C756.896 51.6354 757.073 51.7188 757.297 51.7969C757.526 51.875 757.812 51.9505 758.156 52.0234C758.802 52.1589 759.357 52.3333 759.82 52.5469C760.289 52.7552 760.648 53.026 760.898 53.3594C761.148 53.6875 761.273 54.1042 761.273 54.6094C761.273 54.9844 761.193 55.3281 761.031 55.6406C760.875 55.9479 760.646 56.2161 760.344 56.4453C760.042 56.6693 759.68 56.8438 759.258 56.9688C758.841 57.0938 758.372 57.1562 757.852 57.1562C757.086 57.1562 756.438 57.0208 755.906 56.75C755.375 56.474 754.971 56.1224 754.695 55.6953C754.424 55.263 754.289 54.8151 754.289 54.3516H756.109C756.13 54.7005 756.227 54.9792 756.398 55.1875C756.576 55.3906 756.794 55.5391 757.055 55.6328C757.32 55.7214 757.594 55.7656 757.875 55.7656C758.214 55.7656 758.497 55.7214 758.727 55.6328C758.956 55.5391 759.13 55.4141 759.25 55.2578C759.37 55.0964 759.43 54.9141 759.43 54.7109Z" fill="#1A1A1A"/>
<rect x="0.5" y="0.5" width="1239" height="271" rx="15.5" stroke="#E6E6E6"/>
<defs>
<filter id="filter0_d_9569_2559" x="395" y="158" width="36" height="36" filterUnits="userSpaceOnUse" color-interpolation-filters="sRGB">
<feFlood flood-opacity="0" result="BackgroundImageFix"/>
<feColorMatrix in="SourceAlpha" type="matrix" values="0 0 0 0 0 0 0 0 0 0 0 0 0 0 0 0 0 0 127 0" result="hardAlpha"/>
<feMorphology radius="2" operator="dilate" in="SourceAlpha" result="effect1_dropShadow_9569_2559"/>
<feOffset/>
<feColorMatrix type="matrix" values="0 0 0 0 0.313726 0 0 0 0 0.313726 0 0 0 0 0.313726 0 0 0 1 0"/>
<feBlend mode="normal" in2="BackgroundImageFix" result="effect1_dropShadow_9569_2559"/>
<feBlend mode="normal" in="SourceGraphic" in2="effect1_dropShadow_9569_2559" result="shape"/>
</filter>
<filter id="filter1_d_9569_2559" x="892" y="158" width="36" height="36" filterUnits="userSpaceOnUse" color-interpolation-filters="sRGB">
<feFlood flood-opacity="0" result="BackgroundImageFix"/>
<feColorMatrix in="SourceAlpha" type="matrix" values="0 0 0 0 0 0 0 0 0 0 0 0 0 0 0 0 0 0 127 0" result="hardAlpha"/>
<feMorphology radius="2" operator="dilate" in="SourceAlpha" result="effect1_dropShadow_9569_2559"/>
<feOffset/>
<feColorMatrix type="matrix" values="0 0 0 0 0.313726 0 0 0 0 0.313726 0 0 0 0 0.313726 0 0 0 1 0"/>
<feBlend mode="normal" in2="BackgroundImageFix" result="effect1_dropShadow_9569_2559"/>
<feBlend mode="normal" in="SourceGraphic" in2="effect1_dropShadow_9569_2559" result="shape"/>
</filter>
<clipPath id="clip0_9569_2559">
<rect x="894" y="160" width="32" height="32" rx="4" fill="white"/>
</clipPath>
</defs>
</svg>
