<svg width="1240" height="380" viewBox="0 0 1240 380" fill="none" xmlns="http://www.w3.org/2000/svg">
<g clip-path="url(#clip0_10033_98109)">
<rect width="1240" height="380" rx="16" fill="#F8F8F8"/>
<g clip-path="url(#clip1_10033_98109)">
<path d="M40 -28C40 -32.4183 43.5817 -36 48 -36H392C396.418 -36 400 -32.4183 400 -28V292C400 296.418 396.418 300 392 300H48C43.5817 300 40 296.418 40 292V-28Z" fill="white"/>
<g filter="url(#filter0_dd_10033_98109)">
<rect width="522" height="64" transform="translate(-122 -36)" fill="white"/>
<rect x="62" y="-14" width="202" height="20" rx="4" fill="url(#paint0_linear_10033_98109)"/>
<rect x="296" y="-20" width="32" height="32" rx="4" fill="url(#paint1_linear_10033_98109)"/>
<rect x="336" y="-20" width="32" height="32" rx="4" fill="url(#paint2_linear_10033_98109)"/>
</g>
<g filter="url(#filter1_dd_10033_98109)">
<rect width="522" height="64" transform="translate(-122 28)" fill="white"/>
<rect x="62" y="50" width="202" height="20" rx="4" fill="url(#paint3_linear_10033_98109)"/>
<rect x="296" y="44" width="32" height="32" rx="4" fill="url(#paint4_linear_10033_98109)"/>
<rect x="336" y="44" width="32" height="32" rx="4" fill="url(#paint5_linear_10033_98109)"/>
</g>
<g filter="url(#filter2_dd_10033_98109)">
<rect width="522" height="64" transform="translate(-122 92)" fill="white"/>
<rect x="62" y="114" width="202" height="20" rx="4" fill="url(#paint6_linear_10033_98109)"/>
<rect x="296" y="108" width="32" height="32" rx="4" fill="url(#paint7_linear_10033_98109)"/>
<rect x="336" y="108" width="32" height="32" rx="4" fill="url(#paint8_linear_10033_98109)"/>
</g>
<g filter="url(#filter3_dd_10033_98109)">
<rect width="522" height="64" transform="translate(-122 156)" fill="white"/>
<rect x="62" y="178" width="202" height="20" rx="4" fill="url(#paint9_linear_10033_98109)"/>
<rect x="296" y="172" width="32" height="32" rx="4" fill="url(#paint10_linear_10033_98109)"/>
<rect x="336" y="172" width="32" height="32" rx="4" fill="url(#paint11_linear_10033_98109)"/>
</g>
<path d="M218.25 265C218.047 265 217.867 264.933 217.711 264.799L213.211 260.513C213.07 260.365 213 260.193 213 260C213 259.807 213.07 259.635 213.211 259.487L217.711 255.201C217.867 255.067 218.047 255 218.25 255C218.453 255 218.633 255.067 218.789 255.201C218.93 255.35 219 255.521 219 255.714C219 255.908 218.93 256.079 218.789 256.228L214.805 260L218.789 263.772C218.93 263.921 219 264.092 219 264.286C219 264.479 218.93 264.65 218.789 264.799C218.633 264.933 218.453 265 218.25 265Z" fill="#AAAAAA"/>
<rect x="236" y="244" width="32" height="32" rx="4" fill="#F2F2F2"/>
<path d="M253.181 254.726V264H251.651V256.542L249.385 257.31V256.046L252.997 254.726H253.181Z" fill="#1A1A1A"/>
<path d="M291.199 262.781V264H285.004V262.953L288.013 259.671C288.343 259.299 288.603 258.977 288.793 258.706C288.984 258.435 289.117 258.192 289.193 257.976C289.274 257.756 289.314 257.542 289.314 257.335C289.314 257.043 289.259 256.787 289.149 256.567C289.043 256.343 288.887 256.167 288.679 256.04C288.472 255.909 288.22 255.843 287.924 255.843C287.581 255.843 287.293 255.917 287.061 256.065C286.828 256.214 286.652 256.419 286.534 256.681C286.415 256.939 286.356 257.236 286.356 257.57H284.826C284.826 257.032 284.949 256.542 285.194 256.097C285.44 255.649 285.795 255.293 286.261 255.031C286.726 254.764 287.287 254.631 287.943 254.631C288.561 254.631 289.085 254.735 289.517 254.942C289.949 255.149 290.277 255.443 290.501 255.824C290.729 256.205 290.844 256.656 290.844 257.176C290.844 257.464 290.797 257.75 290.704 258.033C290.611 258.317 290.478 258.6 290.304 258.884C290.135 259.163 289.934 259.444 289.701 259.728C289.468 260.007 289.212 260.291 288.933 260.579L286.934 262.781H291.199Z" fill="#505050"/>
<path d="M322.8 258.687H323.714C324.07 258.687 324.364 258.626 324.597 258.503C324.834 258.38 325.009 258.211 325.124 257.995C325.238 257.779 325.295 257.532 325.295 257.252C325.295 256.96 325.242 256.711 325.136 256.503C325.035 256.292 324.878 256.129 324.667 256.015C324.459 255.9 324.195 255.843 323.873 255.843C323.602 255.843 323.357 255.898 323.137 256.008C322.921 256.114 322.75 256.266 322.623 256.465C322.496 256.66 322.432 256.893 322.432 257.164H320.896C320.896 256.673 321.025 256.237 321.283 255.856C321.541 255.475 321.893 255.177 322.337 254.961C322.785 254.741 323.289 254.631 323.848 254.631C324.444 254.631 324.965 254.73 325.409 254.929C325.858 255.124 326.207 255.416 326.457 255.805C326.706 256.194 326.831 256.677 326.831 257.252C326.831 257.515 326.77 257.781 326.647 258.052C326.524 258.323 326.342 258.571 326.101 258.795C325.86 259.015 325.559 259.195 325.2 259.334C324.84 259.47 324.423 259.538 323.949 259.538H322.8V258.687ZM322.8 259.88V259.042H323.949C324.491 259.042 324.952 259.106 325.333 259.233C325.718 259.36 326.031 259.535 326.272 259.76C326.514 259.98 326.689 260.232 326.799 260.515C326.914 260.799 326.971 261.099 326.971 261.417C326.971 261.848 326.892 262.233 326.736 262.572C326.583 262.906 326.366 263.19 326.082 263.422C325.799 263.655 325.466 263.831 325.085 263.949C324.709 264.068 324.298 264.127 323.854 264.127C323.456 264.127 323.075 264.072 322.711 263.962C322.347 263.852 322.022 263.689 321.734 263.473C321.446 263.253 321.218 262.98 321.048 262.654C320.883 262.324 320.801 261.943 320.801 261.512H322.331C322.331 261.787 322.394 262.03 322.521 262.242C322.652 262.449 322.834 262.612 323.067 262.73C323.304 262.849 323.575 262.908 323.879 262.908C324.201 262.908 324.478 262.851 324.711 262.737C324.944 262.623 325.121 262.453 325.244 262.229C325.371 262.005 325.435 261.734 325.435 261.417C325.435 261.057 325.365 260.765 325.225 260.541C325.085 260.316 324.887 260.151 324.628 260.045C324.37 259.935 324.066 259.88 323.714 259.88H322.8Z" fill="#505050"/>
<path d="M357.75 265C357.547 265 357.367 264.933 357.211 264.799C357.07 264.65 357 264.479 357 264.286C357 264.092 357.07 263.921 357.211 263.772L361.195 260L357.211 256.228C357.07 256.079 357 255.908 357 255.714C357 255.521 357.07 255.35 357.211 255.201C357.367 255.067 357.547 255 357.75 255C357.953 255 358.133 255.067 358.289 255.201L362.789 259.487C362.93 259.635 363 259.807 363 260C363 260.193 362.93 260.365 362.789 260.513L358.289 264.799C358.133 264.933 357.953 265 357.75 265Z" fill="#505050"/>
</g>
<path d="M48 -35.5H392C396.142 -35.5 399.5 -32.1421 399.5 -28V292C399.5 296.142 396.142 299.5 392 299.5H48C43.8579 299.5 40.5 296.142 40.5 292V-28C40.5 -32.1421 43.8579 -35.5 48 -35.5Z" stroke="#E6E6E6"/>
<g clip-path="url(#clip2_10033_98109)">
<path d="M440 -28C440 -32.4183 443.582 -36 448 -36H792C796.418 -36 800 -32.4183 800 -28V292C800 296.418 796.418 300 792 300H448C443.582 300 440 296.418 440 292V-28Z" fill="white"/>
<g filter="url(#filter4_dd_10033_98109)">
<rect width="522" height="64" transform="translate(278 -36)" fill="white"/>
<rect x="462" y="-14" width="202" height="20" rx="4" fill="url(#paint12_linear_10033_98109)"/>
<rect x="696" y="-20" width="32" height="32" rx="4" fill="url(#paint13_linear_10033_98109)"/>
<rect x="736" y="-20" width="32" height="32" rx="4" fill="url(#paint14_linear_10033_98109)"/>
</g>
<g filter="url(#filter5_dd_10033_98109)">
<rect width="522" height="64" transform="translate(278 28)" fill="white"/>
<rect x="462" y="50" width="202" height="20" rx="4" fill="url(#paint15_linear_10033_98109)"/>
<rect x="696" y="44" width="32" height="32" rx="4" fill="url(#paint16_linear_10033_98109)"/>
<rect x="736" y="44" width="32" height="32" rx="4" fill="url(#paint17_linear_10033_98109)"/>
</g>
<g filter="url(#filter6_dd_10033_98109)">
<rect width="522" height="64" transform="translate(278 92)" fill="white"/>
<rect x="462" y="114" width="202" height="20" rx="4" fill="url(#paint18_linear_10033_98109)"/>
<rect x="696" y="108" width="32" height="32" rx="4" fill="url(#paint19_linear_10033_98109)"/>
<rect x="736" y="108" width="32" height="32" rx="4" fill="url(#paint20_linear_10033_98109)"/>
</g>
<g filter="url(#filter7_dd_10033_98109)">
<rect width="522" height="64" transform="translate(278 156)" fill="white"/>
<rect x="462" y="178" width="202" height="20" rx="4" fill="url(#paint21_linear_10033_98109)"/>
<rect x="696" y="172" width="32" height="32" rx="4" fill="url(#paint22_linear_10033_98109)"/>
<rect x="736" y="172" width="32" height="32" rx="4" fill="url(#paint23_linear_10033_98109)"/>
</g>
<path d="M546.25 265C546.047 265 545.867 264.933 545.711 264.799L541.211 260.513C541.07 260.365 541 260.193 541 260C541 259.807 541.07 259.635 541.211 259.487L545.711 255.201C545.867 255.067 546.047 255 546.25 255C546.453 255 546.633 255.067 546.789 255.201C546.93 255.35 547 255.521 547 255.714C547 255.908 546.93 256.079 546.789 256.228L542.805 260L546.789 263.772C546.93 263.921 547 264.092 547 264.286C547 264.479 546.93 264.65 546.789 264.799C546.633 264.933 546.453 265 546.25 265Z" fill="#AAAAAA"/>
<rect x="564" y="244" width="32" height="32" rx="4" fill="#F2F2F2"/>
<path d="M581.181 254.726V264H579.651V256.542L577.385 257.31V256.046L580.997 254.726H581.181Z" fill="#1A1A1A"/>
<path d="M619.199 262.781V264H613.004V262.953L616.013 259.671C616.343 259.299 616.603 258.977 616.793 258.706C616.984 258.435 617.117 258.192 617.193 257.976C617.274 257.756 617.314 257.542 617.314 257.335C617.314 257.043 617.259 256.787 617.149 256.567C617.043 256.343 616.887 256.167 616.679 256.04C616.472 255.909 616.22 255.843 615.924 255.843C615.581 255.843 615.293 255.917 615.061 256.065C614.828 256.214 614.652 256.419 614.534 256.681C614.415 256.939 614.356 257.236 614.356 257.57H612.826C612.826 257.032 612.949 256.542 613.194 256.097C613.44 255.649 613.795 255.293 614.261 255.031C614.726 254.764 615.287 254.631 615.943 254.631C616.561 254.631 617.085 254.735 617.517 254.942C617.949 255.149 618.277 255.443 618.501 255.824C618.729 256.205 618.844 256.656 618.844 257.176C618.844 257.464 618.797 257.75 618.704 258.033C618.611 258.317 618.478 258.6 618.304 258.884C618.135 259.163 617.934 259.444 617.701 259.728C617.468 260.007 617.212 260.291 616.933 260.579L614.934 262.781H619.199Z" fill="#505050"/>
<path d="M650.8 258.687H651.714C652.07 258.687 652.364 258.626 652.597 258.503C652.834 258.38 653.009 258.211 653.124 257.995C653.238 257.779 653.295 257.532 653.295 257.252C653.295 256.96 653.242 256.711 653.136 256.503C653.035 256.292 652.878 256.129 652.667 256.015C652.459 255.9 652.195 255.843 651.873 255.843C651.602 255.843 651.357 255.898 651.137 256.008C650.921 256.114 650.75 256.266 650.623 256.465C650.496 256.66 650.432 256.893 650.432 257.164H648.896C648.896 256.673 649.025 256.237 649.283 255.856C649.541 255.475 649.893 255.177 650.337 254.961C650.785 254.741 651.289 254.631 651.848 254.631C652.444 254.631 652.965 254.73 653.409 254.929C653.858 255.124 654.207 255.416 654.457 255.805C654.706 256.194 654.831 256.677 654.831 257.252C654.831 257.515 654.77 257.781 654.647 258.052C654.524 258.323 654.342 258.571 654.101 258.795C653.86 259.015 653.559 259.195 653.2 259.334C652.84 259.47 652.423 259.538 651.949 259.538H650.8V258.687ZM650.8 259.88V259.042H651.949C652.491 259.042 652.952 259.106 653.333 259.233C653.718 259.36 654.031 259.535 654.272 259.76C654.514 259.98 654.689 260.232 654.799 260.515C654.914 260.799 654.971 261.099 654.971 261.417C654.971 261.848 654.892 262.233 654.736 262.572C654.583 262.906 654.366 263.19 654.082 263.422C653.799 263.655 653.466 263.831 653.085 263.949C652.709 264.068 652.298 264.127 651.854 264.127C651.456 264.127 651.075 264.072 650.711 263.962C650.347 263.852 650.022 263.689 649.734 263.473C649.446 263.253 649.218 262.98 649.048 262.654C648.883 262.324 648.801 261.943 648.801 261.512H650.331C650.331 261.787 650.394 262.03 650.521 262.242C650.652 262.449 650.834 262.612 651.067 262.73C651.304 262.849 651.575 262.908 651.879 262.908C652.201 262.908 652.478 262.851 652.711 262.737C652.944 262.623 653.121 262.453 653.244 262.229C653.371 262.005 653.435 261.734 653.435 261.417C653.435 261.057 653.365 260.765 653.225 260.541C653.085 260.316 652.887 260.151 652.628 260.045C652.37 259.935 652.066 259.88 651.714 259.88H650.8Z" fill="#505050"/>
<path d="M691.371 260.706V261.924H684.706L684.655 261.004L688.641 254.758H689.866L688.54 257.03L686.248 260.706H691.371ZM690.215 254.758V264H688.686V254.758H690.215Z" fill="#505050"/>
<path d="M722.61 259.703L721.391 259.404L721.893 254.758H726.875V256.053H723.162L722.908 258.319C723.052 258.234 723.251 258.152 723.505 258.071C723.759 257.987 724.049 257.944 724.375 257.944C724.81 257.944 725.2 258.016 725.542 258.16C725.889 258.3 726.184 258.505 726.425 258.776C726.666 259.042 726.85 259.368 726.977 259.753C727.104 260.134 727.167 260.564 727.167 261.042C727.167 261.469 727.104 261.869 726.977 262.242C726.854 262.614 726.668 262.942 726.418 263.226C726.169 263.509 725.854 263.731 725.473 263.892C725.096 264.049 724.65 264.127 724.133 264.127C723.748 264.127 723.378 264.072 723.022 263.962C722.671 263.848 722.356 263.681 722.077 263.46C721.797 263.236 721.573 262.961 721.404 262.635C721.235 262.305 721.137 261.926 721.112 261.499H722.61C722.648 261.799 722.73 262.056 722.857 262.267C722.989 262.474 723.162 262.633 723.378 262.743C723.594 262.853 723.843 262.908 724.127 262.908C724.385 262.908 724.607 262.864 724.793 262.775C724.98 262.682 725.134 262.551 725.257 262.381C725.384 262.208 725.477 262.005 725.536 261.772C725.6 261.539 725.631 261.281 725.631 260.998C725.631 260.727 725.595 260.479 725.523 260.255C725.456 260.031 725.352 259.836 725.212 259.671C725.077 259.506 724.906 259.379 724.698 259.29C724.491 259.197 724.252 259.15 723.981 259.15C723.617 259.15 723.338 259.203 723.143 259.309C722.953 259.415 722.775 259.546 722.61 259.703Z" fill="#505050"/>
<path d="M757.75 265C757.547 265 757.367 264.933 757.211 264.799C757.07 264.65 757 264.479 757 264.286C757 264.092 757.07 263.921 757.211 263.772L761.195 260L757.211 256.228C757.07 256.079 757 255.908 757 255.714C757 255.521 757.07 255.35 757.211 255.201C757.367 255.067 757.547 255 757.75 255C757.953 255 758.133 255.067 758.289 255.201L762.789 259.487C762.93 259.635 763 259.807 763 260C763 260.193 762.93 260.365 762.789 260.513L758.289 264.799C758.133 264.933 757.953 265 757.75 265Z" fill="#505050"/>
</g>
<path d="M448 -35.5H792C796.142 -35.5 799.5 -32.1421 799.5 -28V292C799.5 296.142 796.142 299.5 792 299.5H448C443.858 299.5 440.5 296.142 440.5 292V-28C440.5 -32.1421 443.858 -35.5 448 -35.5Z" stroke="#E6E6E6"/>
<g clip-path="url(#clip3_10033_98109)">
<path d="M840 -28C840 -32.4183 843.582 -36 848 -36H1192C1196.42 -36 1200 -32.4183 1200 -28V292C1200 296.418 1196.42 300 1192 300H848C843.582 300 840 296.418 840 292V-28Z" fill="white"/>
<g filter="url(#filter8_dd_10033_98109)">
<rect width="522" height="64" transform="translate(678 -36)" fill="white"/>
<rect x="862" y="-14" width="202" height="20" rx="4" fill="url(#paint24_linear_10033_98109)"/>
<rect x="1096" y="-20" width="32" height="32" rx="4" fill="url(#paint25_linear_10033_98109)"/>
<rect x="1136" y="-20" width="32" height="32" rx="4" fill="url(#paint26_linear_10033_98109)"/>
</g>
<g filter="url(#filter9_dd_10033_98109)">
<rect width="522" height="64" transform="translate(678 28)" fill="white"/>
<rect x="862" y="50" width="202" height="20" rx="4" fill="url(#paint27_linear_10033_98109)"/>
<rect x="1096" y="44" width="32" height="32" rx="4" fill="url(#paint28_linear_10033_98109)"/>
<rect x="1136" y="44" width="32" height="32" rx="4" fill="url(#paint29_linear_10033_98109)"/>
</g>
<g filter="url(#filter10_dd_10033_98109)">
<rect width="522" height="64" transform="translate(678 92)" fill="white"/>
<rect x="862" y="114" width="202" height="20" rx="4" fill="url(#paint30_linear_10033_98109)"/>
<rect x="1096" y="108" width="32" height="32" rx="4" fill="url(#paint31_linear_10033_98109)"/>
<rect x="1136" y="108" width="32" height="32" rx="4" fill="url(#paint32_linear_10033_98109)"/>
</g>
<g filter="url(#filter11_dd_10033_98109)">
<rect width="522" height="64" transform="translate(678 156)" fill="white"/>
<rect x="862" y="178" width="202" height="20" rx="4" fill="url(#paint33_linear_10033_98109)"/>
<rect x="1096" y="172" width="32" height="32" rx="4" fill="url(#paint34_linear_10033_98109)"/>
<rect x="1136" y="172" width="32" height="32" rx="4" fill="url(#paint35_linear_10033_98109)"/>
</g>
<path d="M946.25 265C946.047 265 945.867 264.933 945.711 264.799L941.211 260.513C941.07 260.365 941 260.193 941 260C941 259.807 941.07 259.635 941.211 259.487L945.711 255.201C945.867 255.067 946.047 255 946.25 255C946.453 255 946.633 255.067 946.789 255.201C946.93 255.35 947 255.521 947 255.714C947 255.908 946.93 256.079 946.789 256.228L942.805 260L946.789 263.772C946.93 263.921 947 264.092 947 264.286C947 264.479 946.93 264.65 946.789 264.799C946.633 264.933 946.453 265 946.25 265Z" fill="#AAAAAA"/>
<rect x="964" y="244" width="32" height="32" rx="4" fill="#F2F2F2"/>
<path d="M981.181 254.726V264H979.651V256.542L977.385 257.31V256.046L980.997 254.726H981.181Z" fill="#1A1A1A"/>
<path d="M1019.2 262.781V264H1013V262.953L1016.01 259.671C1016.34 259.299 1016.6 258.977 1016.79 258.706C1016.98 258.435 1017.12 258.192 1017.19 257.976C1017.27 257.756 1017.31 257.542 1017.31 257.335C1017.31 257.043 1017.26 256.787 1017.15 256.567C1017.04 256.343 1016.89 256.167 1016.68 256.04C1016.47 255.909 1016.22 255.843 1015.92 255.843C1015.58 255.843 1015.29 255.917 1015.06 256.065C1014.83 256.214 1014.65 256.419 1014.53 256.681C1014.42 256.939 1014.36 257.236 1014.36 257.57H1012.83C1012.83 257.032 1012.95 256.542 1013.19 256.097C1013.44 255.649 1013.8 255.293 1014.26 255.031C1014.73 254.764 1015.29 254.631 1015.94 254.631C1016.56 254.631 1017.09 254.735 1017.52 254.942C1017.95 255.149 1018.28 255.443 1018.5 255.824C1018.73 256.205 1018.84 256.656 1018.84 257.176C1018.84 257.464 1018.8 257.75 1018.7 258.033C1018.61 258.317 1018.48 258.6 1018.3 258.884C1018.13 259.163 1017.93 259.444 1017.7 259.728C1017.47 260.007 1017.21 260.291 1016.93 260.579L1014.93 262.781H1019.2Z" fill="#505050"/>
<path d="M1050.8 258.687H1051.71C1052.07 258.687 1052.36 258.626 1052.6 258.503C1052.83 258.38 1053.01 258.211 1053.12 257.995C1053.24 257.779 1053.29 257.532 1053.29 257.252C1053.29 256.96 1053.24 256.711 1053.14 256.503C1053.03 256.292 1052.88 256.129 1052.67 256.015C1052.46 255.9 1052.19 255.843 1051.87 255.843C1051.6 255.843 1051.36 255.898 1051.14 256.008C1050.92 256.114 1050.75 256.266 1050.62 256.465C1050.5 256.66 1050.43 256.893 1050.43 257.164H1048.9C1048.9 256.673 1049.03 256.237 1049.28 255.856C1049.54 255.475 1049.89 255.177 1050.34 254.961C1050.79 254.741 1051.29 254.631 1051.85 254.631C1052.44 254.631 1052.96 254.73 1053.41 254.929C1053.86 255.124 1054.21 255.416 1054.46 255.805C1054.71 256.194 1054.83 256.677 1054.83 257.252C1054.83 257.515 1054.77 257.781 1054.65 258.052C1054.52 258.323 1054.34 258.571 1054.1 258.795C1053.86 259.015 1053.56 259.195 1053.2 259.334C1052.84 259.47 1052.42 259.538 1051.95 259.538H1050.8V258.687ZM1050.8 259.88V259.042H1051.95C1052.49 259.042 1052.95 259.106 1053.33 259.233C1053.72 259.36 1054.03 259.535 1054.27 259.76C1054.51 259.98 1054.69 260.232 1054.8 260.515C1054.91 260.799 1054.97 261.099 1054.97 261.417C1054.97 261.848 1054.89 262.233 1054.74 262.572C1054.58 262.906 1054.37 263.19 1054.08 263.422C1053.8 263.655 1053.47 263.831 1053.09 263.949C1052.71 264.068 1052.3 264.127 1051.85 264.127C1051.46 264.127 1051.08 264.072 1050.71 263.962C1050.35 263.852 1050.02 263.689 1049.73 263.473C1049.45 263.253 1049.22 262.98 1049.05 262.654C1048.88 262.324 1048.8 261.943 1048.8 261.512H1050.33C1050.33 261.787 1050.39 262.03 1050.52 262.242C1050.65 262.449 1050.83 262.612 1051.07 262.73C1051.3 262.849 1051.57 262.908 1051.88 262.908C1052.2 262.908 1052.48 262.851 1052.71 262.737C1052.94 262.623 1053.12 262.453 1053.24 262.229C1053.37 262.005 1053.43 261.734 1053.43 261.417C1053.43 261.057 1053.36 260.765 1053.23 260.541C1053.09 260.316 1052.89 260.151 1052.63 260.045C1052.37 259.935 1052.07 259.88 1051.71 259.88H1050.8Z" fill="#505050"/>
<path d="M1083.42 263.238C1083.42 263.001 1083.5 262.802 1083.66 262.642C1083.83 262.477 1084.04 262.394 1084.32 262.394C1084.6 262.394 1084.82 262.477 1084.97 262.642C1085.13 262.802 1085.21 263.001 1085.21 263.238C1085.21 263.475 1085.13 263.674 1084.97 263.835C1084.82 263.996 1084.6 264.076 1084.32 264.076C1084.04 264.076 1083.83 263.996 1083.66 263.835C1083.5 263.674 1083.42 263.475 1083.42 263.238ZM1087.04 263.238C1087.04 263.001 1087.12 262.802 1087.28 262.642C1087.44 262.477 1087.66 262.394 1087.94 262.394C1088.22 262.394 1088.43 262.477 1088.59 262.642C1088.75 262.802 1088.83 263.001 1088.83 263.238C1088.83 263.475 1088.75 263.674 1088.59 263.835C1088.43 263.996 1088.22 264.076 1087.94 264.076C1087.66 264.076 1087.44 263.996 1087.28 263.835C1087.12 263.674 1087.04 263.475 1087.04 263.238ZM1090.66 263.238C1090.66 263.001 1090.74 262.802 1090.9 262.642C1091.06 262.477 1091.28 262.394 1091.55 262.394C1091.83 262.394 1092.05 262.477 1092.21 262.642C1092.37 262.802 1092.45 263.001 1092.45 263.238C1092.45 263.475 1092.37 263.674 1092.21 263.835C1092.05 263.996 1091.83 264.076 1091.55 264.076C1091.28 264.076 1091.06 263.996 1090.9 263.835C1090.74 263.674 1090.66 263.475 1090.66 263.238Z" fill="#505050"/>
<path d="M1123.5 262.781V264H1117.31V262.953L1120.32 259.671C1120.65 259.299 1120.91 258.977 1121.1 258.706C1121.29 258.435 1121.42 258.192 1121.5 257.976C1121.58 257.756 1121.62 257.542 1121.62 257.335C1121.62 257.043 1121.56 256.787 1121.45 256.567C1121.35 256.343 1121.19 256.167 1120.98 256.04C1120.78 255.909 1120.53 255.843 1120.23 255.843C1119.89 255.843 1119.6 255.917 1119.37 256.065C1119.13 256.214 1118.96 256.419 1118.84 256.681C1118.72 256.939 1118.66 257.236 1118.66 257.57H1117.13C1117.13 257.032 1117.25 256.542 1117.5 256.097C1117.75 255.649 1118.1 255.293 1118.57 255.031C1119.03 254.764 1119.59 254.631 1120.25 254.631C1120.87 254.631 1121.39 254.735 1121.82 254.942C1122.25 255.149 1122.58 255.443 1122.81 255.824C1123.04 256.205 1123.15 256.656 1123.15 257.176C1123.15 257.464 1123.1 257.75 1123.01 258.033C1122.92 258.317 1122.78 258.6 1122.61 258.884C1122.44 259.163 1122.24 259.444 1122.01 259.728C1121.77 260.007 1121.52 260.291 1121.24 260.579L1119.24 262.781H1123.5ZM1128.88 254.726V264H1127.35V256.542L1125.08 257.31V256.046L1128.69 254.726H1128.88Z" fill="#505050"/>
<path d="M1157.75 265C1157.55 265 1157.37 264.933 1157.21 264.799C1157.07 264.65 1157 264.479 1157 264.286C1157 264.092 1157.07 263.921 1157.21 263.772L1161.2 260L1157.21 256.228C1157.07 256.079 1157 255.908 1157 255.714C1157 255.521 1157.07 255.35 1157.21 255.201C1157.37 255.067 1157.55 255 1157.75 255C1157.95 255 1158.13 255.067 1158.29 255.201L1162.79 259.487C1162.93 259.635 1163 259.807 1163 260C1163 260.193 1162.93 260.365 1162.79 260.513L1158.29 264.799C1158.13 264.933 1157.95 265 1157.75 265Z" fill="#505050"/>
</g>
<path d="M848 -35.5H1192C1196.14 -35.5 1199.5 -32.1421 1199.5 -28V292C1199.5 296.142 1196.14 299.5 1192 299.5H848C843.858 299.5 840.5 296.142 840.5 292V-28C840.5 -32.1421 843.858 -35.5 848 -35.5Z" stroke="#E6E6E6"/>
<path d="M51.1198 321.586V333H49.237V323.82L46.448 324.766V323.211L50.8933 321.586H51.1198ZM55.2605 332.062C55.2605 331.771 55.3594 331.526 55.5573 331.328C55.7553 331.125 56.0235 331.023 56.362 331.023C56.7058 331.023 56.974 331.125 57.1667 331.328C57.3646 331.526 57.4636 331.771 57.4636 332.062C57.4636 332.354 57.3646 332.599 57.1667 332.797C56.974 332.995 56.7058 333.094 56.362 333.094C56.0235 333.094 55.7553 332.995 55.5573 332.797C55.3594 332.599 55.2605 332.354 55.2605 332.062ZM69.4219 327.859H66.5234L66.5078 326.43H69.0391C69.4661 326.43 69.8281 326.367 70.125 326.242C70.4271 326.112 70.6562 325.927 70.8125 325.688C70.9688 325.443 71.0469 325.148 71.0469 324.805C71.0469 324.424 70.974 324.115 70.8281 323.875C70.6823 323.635 70.4583 323.461 70.1562 323.352C69.8594 323.242 69.4792 323.188 69.0156 323.188H67.1172V333H65.1562V321.625H69.0156C69.6406 321.625 70.1979 321.685 70.6875 321.805C71.1823 321.924 71.6016 322.112 71.9453 322.367C72.2943 322.617 72.5573 322.935 72.7344 323.32C72.9167 323.706 73.0078 324.164 73.0078 324.695C73.0078 325.164 72.8958 325.594 72.6719 325.984C72.4479 326.37 72.1172 326.685 71.6797 326.93C71.2422 327.174 70.6979 327.32 70.0469 327.367L69.4219 327.859ZM69.3359 333H65.9062L66.7891 331.445H69.3359C69.7786 331.445 70.1484 331.372 70.4453 331.227C70.7422 331.076 70.9635 330.87 71.1094 330.609C71.2604 330.344 71.3359 330.034 71.3359 329.68C71.3359 329.31 71.2708 328.99 71.1406 328.719C71.0104 328.443 70.8047 328.232 70.5234 328.086C70.2422 327.935 69.875 327.859 69.4219 327.859H67.2188L67.2344 326.43H70.1016L70.5469 326.969C71.1719 326.99 71.6849 327.128 72.0859 327.383C72.4922 327.638 72.7943 327.969 72.9922 328.375C73.1901 328.781 73.2891 329.219 73.2891 329.688C73.2891 330.411 73.1302 331.018 72.8125 331.508C72.5 331.997 72.0495 332.37 71.4609 332.625C70.8724 332.875 70.1641 333 69.3359 333ZM78.8047 333.156C78.1797 333.156 77.6146 333.055 77.1094 332.852C76.6094 332.643 76.1823 332.354 75.8281 331.984C75.4792 331.615 75.2109 331.18 75.0234 330.68C74.8359 330.18 74.7422 329.641 74.7422 329.062V328.75C74.7422 328.089 74.8385 327.49 75.0312 326.953C75.224 326.417 75.4922 325.958 75.8359 325.578C76.1797 325.193 76.5859 324.898 77.0547 324.695C77.5234 324.492 78.0312 324.391 78.5781 324.391C79.1823 324.391 79.7109 324.492 80.1641 324.695C80.6172 324.898 80.9922 325.185 81.2891 325.555C81.5911 325.919 81.8151 326.354 81.9609 326.859C82.112 327.365 82.1875 327.922 82.1875 328.531V329.336H75.6562V327.984H80.3281V327.836C80.3177 327.497 80.25 327.18 80.125 326.883C80.0052 326.586 79.8203 326.346 79.5703 326.164C79.3203 325.982 78.987 325.891 78.5703 325.891C78.2578 325.891 77.9792 325.958 77.7344 326.094C77.4948 326.224 77.2943 326.414 77.1328 326.664C76.9714 326.914 76.8464 327.216 76.7578 327.57C76.6745 327.919 76.6328 328.312 76.6328 328.75V329.062C76.6328 329.432 76.6823 329.776 76.7812 330.094C76.8854 330.406 77.0365 330.68 77.2344 330.914C77.4323 331.148 77.6719 331.333 77.9531 331.469C78.2344 331.599 78.5547 331.664 78.9141 331.664C79.3672 331.664 79.7708 331.573 80.125 331.391C80.4792 331.208 80.7865 330.951 81.0469 330.617L82.0391 331.578C81.8568 331.844 81.6198 332.099 81.3281 332.344C81.0365 332.583 80.6797 332.779 80.2578 332.93C79.8411 333.081 79.3568 333.156 78.8047 333.156ZM85.6719 321V333H83.7812V321H85.6719ZM87.375 328.867V328.688C87.375 328.078 87.4635 327.513 87.6406 326.992C87.8177 326.466 88.0729 326.01 88.4062 325.625C88.7448 325.234 89.1562 324.932 89.6406 324.719C90.1302 324.5 90.6823 324.391 91.2969 324.391C91.9167 324.391 92.4688 324.5 92.9531 324.719C93.4427 324.932 93.8568 325.234 94.1953 325.625C94.5339 326.01 94.7917 326.466 94.9688 326.992C95.1458 327.513 95.2344 328.078 95.2344 328.688V328.867C95.2344 329.477 95.1458 330.042 94.9688 330.562C94.7917 331.083 94.5339 331.539 94.1953 331.93C93.8568 332.315 93.4453 332.617 92.9609 332.836C92.4766 333.049 91.9271 333.156 91.3125 333.156C90.6927 333.156 90.138 333.049 89.6484 332.836C89.1641 332.617 88.7526 332.315 88.4141 331.93C88.0755 331.539 87.8177 331.083 87.6406 330.562C87.4635 330.042 87.375 329.477 87.375 328.867ZM89.2578 328.688V328.867C89.2578 329.247 89.2969 329.607 89.375 329.945C89.4531 330.284 89.5755 330.581 89.7422 330.836C89.9089 331.091 90.1224 331.292 90.3828 331.438C90.6432 331.583 90.9531 331.656 91.3125 331.656C91.6615 331.656 91.9635 331.583 92.2188 331.438C92.4792 331.292 92.6927 331.091 92.8594 330.836C93.026 330.581 93.1484 330.284 93.2266 329.945C93.3099 329.607 93.3516 329.247 93.3516 328.867V328.688C93.3516 328.312 93.3099 327.958 93.2266 327.625C93.1484 327.286 93.0234 326.987 92.8516 326.727C92.6849 326.466 92.4714 326.263 92.2109 326.117C91.9557 325.966 91.651 325.891 91.2969 325.891C90.9427 325.891 90.6354 325.966 90.375 326.117C90.1198 326.263 89.9089 326.466 89.7422 326.727C89.5755 326.987 89.4531 327.286 89.375 327.625C89.2969 327.958 89.2578 328.312 89.2578 328.688ZM99.1094 331.125L101.062 324.547H102.266L101.938 326.516L99.9688 333H98.8906L99.1094 331.125ZM97.9609 324.547L99.4844 331.156L99.6094 333H98.4062L96.1172 324.547H97.9609ZM104.094 331.078L105.57 324.547H107.406L105.125 333H103.922L104.094 331.078ZM102.469 324.547L104.398 331.047L104.641 333H103.562L101.57 326.508L101.242 324.547H102.469ZM114.539 327.711L113.039 327.344L113.656 321.625H119.789V323.219H115.219L114.906 326.008C115.083 325.904 115.328 325.802 115.641 325.703C115.953 325.599 116.31 325.547 116.711 325.547C117.247 325.547 117.727 325.635 118.148 325.812C118.576 325.984 118.938 326.237 119.234 326.57C119.531 326.898 119.758 327.299 119.914 327.773C120.07 328.242 120.148 328.771 120.148 329.359C120.148 329.885 120.07 330.378 119.914 330.836C119.763 331.294 119.534 331.698 119.227 332.047C118.919 332.396 118.531 332.669 118.062 332.867C117.599 333.06 117.049 333.156 116.414 333.156C115.94 333.156 115.484 333.089 115.047 332.953C114.615 332.812 114.227 332.607 113.883 332.336C113.539 332.06 113.263 331.721 113.055 331.32C112.846 330.914 112.727 330.448 112.695 329.922H114.539C114.586 330.292 114.688 330.607 114.844 330.867C115.005 331.122 115.219 331.318 115.484 331.453C115.75 331.589 116.057 331.656 116.406 331.656C116.724 331.656 116.997 331.602 117.227 331.492C117.456 331.378 117.646 331.216 117.797 331.008C117.953 330.794 118.068 330.544 118.141 330.258C118.219 329.971 118.258 329.654 118.258 329.305C118.258 328.971 118.214 328.667 118.125 328.391C118.042 328.115 117.914 327.875 117.742 327.672C117.576 327.469 117.365 327.312 117.109 327.203C116.854 327.089 116.56 327.031 116.227 327.031C115.779 327.031 115.435 327.096 115.195 327.227C114.961 327.357 114.742 327.518 114.539 327.711ZM127.641 326.172V336.25H125.758V324.547H127.492L127.641 326.172ZM133.148 328.695V328.859C133.148 329.474 133.076 330.044 132.93 330.57C132.789 331.091 132.578 331.547 132.297 331.938C132.021 332.323 131.68 332.622 131.273 332.836C130.867 333.049 130.398 333.156 129.867 333.156C129.341 333.156 128.88 333.06 128.484 332.867C128.094 332.669 127.763 332.391 127.492 332.031C127.221 331.672 127.003 331.25 126.836 330.766C126.674 330.276 126.56 329.74 126.492 329.156V328.523C126.56 327.904 126.674 327.341 126.836 326.836C127.003 326.331 127.221 325.896 127.492 325.531C127.763 325.167 128.094 324.885 128.484 324.688C128.875 324.49 129.331 324.391 129.852 324.391C130.383 324.391 130.854 324.495 131.266 324.703C131.677 324.906 132.023 325.198 132.305 325.578C132.586 325.953 132.797 326.406 132.938 326.938C133.078 327.464 133.148 328.049 133.148 328.695ZM131.266 328.859V328.695C131.266 328.305 131.229 327.943 131.156 327.609C131.083 327.271 130.969 326.974 130.812 326.719C130.656 326.464 130.456 326.266 130.211 326.125C129.971 325.979 129.682 325.906 129.344 325.906C129.01 325.906 128.724 325.964 128.484 326.078C128.245 326.188 128.044 326.341 127.883 326.539C127.721 326.737 127.596 326.969 127.508 327.234C127.419 327.495 127.357 327.779 127.32 328.086V329.602C127.383 329.977 127.49 330.32 127.641 330.633C127.792 330.945 128.005 331.195 128.281 331.383C128.562 331.565 128.922 331.656 129.359 331.656C129.698 331.656 129.987 331.583 130.227 331.438C130.466 331.292 130.661 331.091 130.812 330.836C130.969 330.576 131.083 330.276 131.156 329.938C131.229 329.599 131.266 329.24 131.266 328.859ZM139.516 331.305V327.273C139.516 326.971 139.461 326.711 139.352 326.492C139.242 326.273 139.076 326.104 138.852 325.984C138.633 325.865 138.357 325.805 138.023 325.805C137.716 325.805 137.451 325.857 137.227 325.961C137.003 326.065 136.828 326.206 136.703 326.383C136.578 326.56 136.516 326.76 136.516 326.984H134.641C134.641 326.651 134.721 326.328 134.883 326.016C135.044 325.703 135.279 325.424 135.586 325.18C135.893 324.935 136.26 324.742 136.688 324.602C137.115 324.461 137.594 324.391 138.125 324.391C138.76 324.391 139.323 324.497 139.812 324.711C140.307 324.924 140.695 325.247 140.977 325.68C141.263 326.107 141.406 326.643 141.406 327.289V331.047C141.406 331.432 141.432 331.779 141.484 332.086C141.542 332.388 141.622 332.651 141.727 332.875V333H139.797C139.708 332.797 139.638 332.539 139.586 332.227C139.539 331.909 139.516 331.602 139.516 331.305ZM139.789 327.859L139.805 329.023H138.453C138.104 329.023 137.797 329.057 137.531 329.125C137.266 329.188 137.044 329.281 136.867 329.406C136.69 329.531 136.557 329.682 136.469 329.859C136.38 330.036 136.336 330.237 136.336 330.461C136.336 330.685 136.388 330.891 136.492 331.078C136.596 331.26 136.747 331.404 136.945 331.508C137.148 331.612 137.393 331.664 137.68 331.664C138.065 331.664 138.401 331.586 138.688 331.43C138.979 331.268 139.208 331.073 139.375 330.844C139.542 330.609 139.63 330.388 139.641 330.18L140.25 331.016C140.188 331.229 140.081 331.458 139.93 331.703C139.779 331.948 139.581 332.182 139.336 332.406C139.096 332.625 138.807 332.805 138.469 332.945C138.135 333.086 137.75 333.156 137.312 333.156C136.76 333.156 136.268 333.047 135.836 332.828C135.404 332.604 135.065 332.305 134.82 331.93C134.576 331.549 134.453 331.12 134.453 330.641C134.453 330.193 134.536 329.797 134.703 329.453C134.875 329.104 135.125 328.812 135.453 328.578C135.786 328.344 136.193 328.167 136.672 328.047C137.151 327.922 137.698 327.859 138.312 327.859H139.789ZM148.789 324.547H150.5V332.766C150.5 333.526 150.339 334.172 150.016 334.703C149.693 335.234 149.242 335.638 148.664 335.914C148.086 336.195 147.417 336.336 146.656 336.336C146.333 336.336 145.974 336.289 145.578 336.195C145.188 336.102 144.807 335.951 144.438 335.742C144.073 335.539 143.768 335.271 143.523 334.938L144.406 333.828C144.708 334.188 145.042 334.451 145.406 334.617C145.771 334.784 146.154 334.867 146.555 334.867C146.987 334.867 147.354 334.786 147.656 334.625C147.964 334.469 148.201 334.237 148.367 333.93C148.534 333.622 148.617 333.247 148.617 332.805V326.461L148.789 324.547ZM143.047 328.867V328.703C143.047 328.062 143.125 327.479 143.281 326.953C143.438 326.422 143.661 325.966 143.953 325.586C144.245 325.201 144.599 324.906 145.016 324.703C145.432 324.495 145.904 324.391 146.43 324.391C146.977 324.391 147.443 324.49 147.828 324.688C148.219 324.885 148.544 325.169 148.805 325.539C149.065 325.904 149.268 326.341 149.414 326.852C149.565 327.357 149.677 327.919 149.75 328.539V329.062C149.682 329.667 149.568 330.219 149.406 330.719C149.245 331.219 149.031 331.651 148.766 332.016C148.5 332.38 148.172 332.661 147.781 332.859C147.396 333.057 146.94 333.156 146.414 333.156C145.898 333.156 145.432 333.049 145.016 332.836C144.604 332.622 144.25 332.323 143.953 331.938C143.661 331.552 143.438 331.099 143.281 330.578C143.125 330.052 143.047 329.482 143.047 328.867ZM144.93 328.703V328.867C144.93 329.253 144.966 329.612 145.039 329.945C145.117 330.279 145.234 330.573 145.391 330.828C145.552 331.078 145.755 331.276 146 331.422C146.25 331.562 146.544 331.633 146.883 331.633C147.326 331.633 147.688 331.539 147.969 331.352C148.255 331.164 148.474 330.911 148.625 330.594C148.781 330.271 148.891 329.911 148.953 329.516V328.102C148.922 327.794 148.857 327.508 148.758 327.242C148.664 326.977 148.536 326.745 148.375 326.547C148.214 326.344 148.01 326.188 147.766 326.078C147.521 325.964 147.232 325.906 146.898 325.906C146.56 325.906 146.266 325.979 146.016 326.125C145.766 326.271 145.56 326.471 145.398 326.727C145.242 326.982 145.125 327.279 145.047 327.617C144.969 327.956 144.93 328.318 144.93 328.703ZM156.18 333.156C155.555 333.156 154.99 333.055 154.484 332.852C153.984 332.643 153.557 332.354 153.203 331.984C152.854 331.615 152.586 331.18 152.398 330.68C152.211 330.18 152.117 329.641 152.117 329.062V328.75C152.117 328.089 152.214 327.49 152.406 326.953C152.599 326.417 152.867 325.958 153.211 325.578C153.555 325.193 153.961 324.898 154.43 324.695C154.898 324.492 155.406 324.391 155.953 324.391C156.557 324.391 157.086 324.492 157.539 324.695C157.992 324.898 158.367 325.185 158.664 325.555C158.966 325.919 159.19 326.354 159.336 326.859C159.487 327.365 159.562 327.922 159.562 328.531V329.336H153.031V327.984H157.703V327.836C157.693 327.497 157.625 327.18 157.5 326.883C157.38 326.586 157.195 326.346 156.945 326.164C156.695 325.982 156.362 325.891 155.945 325.891C155.633 325.891 155.354 325.958 155.109 326.094C154.87 326.224 154.669 326.414 154.508 326.664C154.346 326.914 154.221 327.216 154.133 327.57C154.049 327.919 154.008 328.312 154.008 328.75V329.062C154.008 329.432 154.057 329.776 154.156 330.094C154.26 330.406 154.411 330.68 154.609 330.914C154.807 331.148 155.047 331.333 155.328 331.469C155.609 331.599 155.93 331.664 156.289 331.664C156.742 331.664 157.146 331.573 157.5 331.391C157.854 331.208 158.161 330.951 158.422 330.617L159.414 331.578C159.232 331.844 158.995 332.099 158.703 332.344C158.411 332.583 158.055 332.779 157.633 332.93C157.216 333.081 156.732 333.156 156.18 333.156ZM165.773 330.711C165.773 330.523 165.727 330.354 165.633 330.203C165.539 330.047 165.359 329.906 165.094 329.781C164.833 329.656 164.448 329.542 163.938 329.438C163.49 329.339 163.078 329.221 162.703 329.086C162.333 328.945 162.016 328.776 161.75 328.578C161.484 328.38 161.279 328.146 161.133 327.875C160.987 327.604 160.914 327.292 160.914 326.938C160.914 326.594 160.99 326.268 161.141 325.961C161.292 325.654 161.508 325.383 161.789 325.148C162.07 324.914 162.411 324.729 162.812 324.594C163.219 324.458 163.672 324.391 164.172 324.391C164.88 324.391 165.487 324.51 165.992 324.75C166.503 324.984 166.893 325.305 167.164 325.711C167.435 326.112 167.57 326.565 167.57 327.07H165.688C165.688 326.846 165.63 326.638 165.516 326.445C165.406 326.247 165.24 326.089 165.016 325.969C164.792 325.844 164.51 325.781 164.172 325.781C163.849 325.781 163.581 325.833 163.367 325.938C163.159 326.036 163.003 326.167 162.898 326.328C162.799 326.49 162.75 326.667 162.75 326.859C162.75 327 162.776 327.128 162.828 327.242C162.885 327.352 162.979 327.453 163.109 327.547C163.24 327.635 163.417 327.719 163.641 327.797C163.87 327.875 164.156 327.951 164.5 328.023C165.146 328.159 165.701 328.333 166.164 328.547C166.633 328.755 166.992 329.026 167.242 329.359C167.492 329.688 167.617 330.104 167.617 330.609C167.617 330.984 167.536 331.328 167.375 331.641C167.219 331.948 166.99 332.216 166.688 332.445C166.385 332.669 166.023 332.844 165.602 332.969C165.185 333.094 164.716 333.156 164.195 333.156C163.43 333.156 162.781 333.021 162.25 332.75C161.719 332.474 161.315 332.122 161.039 331.695C160.768 331.263 160.633 330.815 160.633 330.352H162.453C162.474 330.701 162.57 330.979 162.742 331.188C162.919 331.391 163.138 331.539 163.398 331.633C163.664 331.721 163.938 331.766 164.219 331.766C164.557 331.766 164.841 331.721 165.07 331.633C165.299 331.539 165.474 331.414 165.594 331.258C165.714 331.096 165.773 330.914 165.773 330.711Z" fill="#1A1A1A"/>
<path d="M453.604 331.5V333H445.979V331.711L449.682 327.672C450.089 327.214 450.409 326.818 450.643 326.484C450.878 326.151 451.042 325.852 451.135 325.586C451.234 325.315 451.284 325.052 451.284 324.797C451.284 324.438 451.216 324.122 451.081 323.852C450.951 323.576 450.758 323.359 450.503 323.203C450.247 323.042 449.938 322.961 449.573 322.961C449.151 322.961 448.797 323.052 448.51 323.234C448.224 323.417 448.008 323.669 447.862 323.992C447.716 324.31 447.643 324.674 447.643 325.086H445.76C445.76 324.424 445.912 323.82 446.214 323.273C446.516 322.721 446.953 322.284 447.526 321.961C448.099 321.633 448.789 321.469 449.596 321.469C450.357 321.469 451.003 321.596 451.534 321.852C452.065 322.107 452.469 322.469 452.745 322.938C453.026 323.406 453.167 323.961 453.167 324.602C453.167 324.956 453.109 325.307 452.995 325.656C452.88 326.005 452.716 326.354 452.503 326.703C452.294 327.047 452.047 327.393 451.76 327.742C451.474 328.086 451.159 328.435 450.815 328.789L448.354 331.5H453.604ZM455.26 332.062C455.26 331.771 455.359 331.526 455.557 331.328C455.755 331.125 456.023 331.023 456.362 331.023C456.706 331.023 456.974 331.125 457.167 331.328C457.365 331.526 457.464 331.771 457.464 332.062C457.464 332.354 457.365 332.599 457.167 332.797C456.974 332.995 456.706 333.094 456.362 333.094C456.023 333.094 455.755 332.995 455.557 332.797C455.359 332.599 455.26 332.354 455.26 332.062ZM471.539 321.625H473.492V329.227C473.492 330.091 473.305 330.815 472.93 331.398C472.555 331.982 472.044 332.422 471.398 332.719C470.758 333.01 470.042 333.156 469.25 333.156C468.432 333.156 467.703 333.01 467.062 332.719C466.422 332.422 465.917 331.982 465.547 331.398C465.182 330.815 465 330.091 465 329.227V321.625H466.953V329.227C466.953 329.773 467.047 330.224 467.234 330.578C467.422 330.927 467.688 331.185 468.031 331.352C468.375 331.518 468.781 331.602 469.25 331.602C469.719 331.602 470.122 331.518 470.461 331.352C470.805 331.185 471.07 330.927 471.258 330.578C471.445 330.224 471.539 329.773 471.539 329.227V321.625ZM477.328 326.172V336.25H475.445V324.547H477.18L477.328 326.172ZM482.836 328.695V328.859C482.836 329.474 482.763 330.044 482.617 330.57C482.477 331.091 482.266 331.547 481.984 331.938C481.708 332.323 481.367 332.622 480.961 332.836C480.555 333.049 480.086 333.156 479.555 333.156C479.029 333.156 478.568 333.06 478.172 332.867C477.781 332.669 477.451 332.391 477.18 332.031C476.909 331.672 476.69 331.25 476.523 330.766C476.362 330.276 476.247 329.74 476.18 329.156V328.523C476.247 327.904 476.362 327.341 476.523 326.836C476.69 326.331 476.909 325.896 477.18 325.531C477.451 325.167 477.781 324.885 478.172 324.688C478.562 324.49 479.018 324.391 479.539 324.391C480.07 324.391 480.542 324.495 480.953 324.703C481.365 324.906 481.711 325.198 481.992 325.578C482.273 325.953 482.484 326.406 482.625 326.938C482.766 327.464 482.836 328.049 482.836 328.695ZM480.953 328.859V328.695C480.953 328.305 480.917 327.943 480.844 327.609C480.771 327.271 480.656 326.974 480.5 326.719C480.344 326.464 480.143 326.266 479.898 326.125C479.659 325.979 479.37 325.906 479.031 325.906C478.698 325.906 478.411 325.964 478.172 326.078C477.932 326.188 477.732 326.341 477.57 326.539C477.409 326.737 477.284 326.969 477.195 327.234C477.107 327.495 477.044 327.779 477.008 328.086V329.602C477.07 329.977 477.177 330.32 477.328 330.633C477.479 330.945 477.693 331.195 477.969 331.383C478.25 331.565 478.609 331.656 479.047 331.656C479.385 331.656 479.674 331.583 479.914 331.438C480.154 331.292 480.349 331.091 480.5 330.836C480.656 330.576 480.771 330.276 480.844 329.938C480.917 329.599 480.953 329.24 480.953 328.859ZM488.227 327.391V328.891H484.094V327.391H488.227ZM493.75 324.547V325.922H488.984V324.547H493.75ZM490.359 322.477H492.242V330.664C492.242 330.924 492.279 331.125 492.352 331.266C492.43 331.401 492.536 331.492 492.672 331.539C492.807 331.586 492.966 331.609 493.148 331.609C493.279 331.609 493.404 331.602 493.523 331.586C493.643 331.57 493.74 331.555 493.812 331.539L493.82 332.977C493.664 333.023 493.482 333.065 493.273 333.102C493.07 333.138 492.836 333.156 492.57 333.156C492.138 333.156 491.755 333.081 491.422 332.93C491.089 332.773 490.828 332.521 490.641 332.172C490.453 331.823 490.359 331.359 490.359 330.781V322.477ZM494.656 328.867V328.688C494.656 328.078 494.745 327.513 494.922 326.992C495.099 326.466 495.354 326.01 495.688 325.625C496.026 325.234 496.438 324.932 496.922 324.719C497.411 324.5 497.964 324.391 498.578 324.391C499.198 324.391 499.75 324.5 500.234 324.719C500.724 324.932 501.138 325.234 501.477 325.625C501.815 326.01 502.073 326.466 502.25 326.992C502.427 327.513 502.516 328.078 502.516 328.688V328.867C502.516 329.477 502.427 330.042 502.25 330.562C502.073 331.083 501.815 331.539 501.477 331.93C501.138 332.315 500.727 332.617 500.242 332.836C499.758 333.049 499.208 333.156 498.594 333.156C497.974 333.156 497.419 333.049 496.93 332.836C496.445 332.617 496.034 332.315 495.695 331.93C495.357 331.539 495.099 331.083 494.922 330.562C494.745 330.042 494.656 329.477 494.656 328.867ZM496.539 328.688V328.867C496.539 329.247 496.578 329.607 496.656 329.945C496.734 330.284 496.857 330.581 497.023 330.836C497.19 331.091 497.404 331.292 497.664 331.438C497.924 331.583 498.234 331.656 498.594 331.656C498.943 331.656 499.245 331.583 499.5 331.438C499.76 331.292 499.974 331.091 500.141 330.836C500.307 330.581 500.43 330.284 500.508 329.945C500.591 329.607 500.633 329.247 500.633 328.867V328.688C500.633 328.312 500.591 327.958 500.508 327.625C500.43 327.286 500.305 326.987 500.133 326.727C499.966 326.466 499.753 326.263 499.492 326.117C499.237 325.966 498.932 325.891 498.578 325.891C498.224 325.891 497.917 325.966 497.656 326.117C497.401 326.263 497.19 326.466 497.023 326.727C496.857 326.987 496.734 327.286 496.656 327.625C496.578 327.958 496.539 328.312 496.539 328.688ZM509.945 327.711L508.445 327.344L509.062 321.625H515.195V323.219H510.625L510.312 326.008C510.49 325.904 510.734 325.802 511.047 325.703C511.359 325.599 511.716 325.547 512.117 325.547C512.654 325.547 513.133 325.635 513.555 325.812C513.982 325.984 514.344 326.237 514.641 326.57C514.938 326.898 515.164 327.299 515.32 327.773C515.477 328.242 515.555 328.771 515.555 329.359C515.555 329.885 515.477 330.378 515.32 330.836C515.169 331.294 514.94 331.698 514.633 332.047C514.326 332.396 513.938 332.669 513.469 332.867C513.005 333.06 512.456 333.156 511.82 333.156C511.346 333.156 510.891 333.089 510.453 332.953C510.021 332.812 509.633 332.607 509.289 332.336C508.945 332.06 508.669 331.721 508.461 331.32C508.253 330.914 508.133 330.448 508.102 329.922H509.945C509.992 330.292 510.094 330.607 510.25 330.867C510.411 331.122 510.625 331.318 510.891 331.453C511.156 331.589 511.464 331.656 511.812 331.656C512.13 331.656 512.404 331.602 512.633 331.492C512.862 331.378 513.052 331.216 513.203 331.008C513.359 330.794 513.474 330.544 513.547 330.258C513.625 329.971 513.664 329.654 513.664 329.305C513.664 328.971 513.62 328.667 513.531 328.391C513.448 328.115 513.32 327.875 513.148 327.672C512.982 327.469 512.771 327.312 512.516 327.203C512.26 327.089 511.966 327.031 511.633 327.031C511.185 327.031 510.841 327.096 510.602 327.227C510.367 327.357 510.148 327.518 509.945 327.711ZM523.047 326.172V336.25H521.164V324.547H522.898L523.047 326.172ZM528.555 328.695V328.859C528.555 329.474 528.482 330.044 528.336 330.57C528.195 331.091 527.984 331.547 527.703 331.938C527.427 332.323 527.086 332.622 526.68 332.836C526.273 333.049 525.805 333.156 525.273 333.156C524.747 333.156 524.286 333.06 523.891 332.867C523.5 332.669 523.169 332.391 522.898 332.031C522.628 331.672 522.409 331.25 522.242 330.766C522.081 330.276 521.966 329.74 521.898 329.156V328.523C521.966 327.904 522.081 327.341 522.242 326.836C522.409 326.331 522.628 325.896 522.898 325.531C523.169 325.167 523.5 324.885 523.891 324.688C524.281 324.49 524.737 324.391 525.258 324.391C525.789 324.391 526.26 324.495 526.672 324.703C527.083 324.906 527.43 325.198 527.711 325.578C527.992 325.953 528.203 326.406 528.344 326.938C528.484 327.464 528.555 328.049 528.555 328.695ZM526.672 328.859V328.695C526.672 328.305 526.635 327.943 526.562 327.609C526.49 327.271 526.375 326.974 526.219 326.719C526.062 326.464 525.862 326.266 525.617 326.125C525.378 325.979 525.089 325.906 524.75 325.906C524.417 325.906 524.13 325.964 523.891 326.078C523.651 326.188 523.451 326.341 523.289 326.539C523.128 326.737 523.003 326.969 522.914 327.234C522.826 327.495 522.763 327.779 522.727 328.086V329.602C522.789 329.977 522.896 330.32 523.047 330.633C523.198 330.945 523.411 331.195 523.688 331.383C523.969 331.565 524.328 331.656 524.766 331.656C525.104 331.656 525.393 331.583 525.633 331.438C525.872 331.292 526.068 331.091 526.219 330.836C526.375 330.576 526.49 330.276 526.562 329.938C526.635 329.599 526.672 329.24 526.672 328.859ZM534.922 331.305V327.273C534.922 326.971 534.867 326.711 534.758 326.492C534.648 326.273 534.482 326.104 534.258 325.984C534.039 325.865 533.763 325.805 533.43 325.805C533.122 325.805 532.857 325.857 532.633 325.961C532.409 326.065 532.234 326.206 532.109 326.383C531.984 326.56 531.922 326.76 531.922 326.984H530.047C530.047 326.651 530.128 326.328 530.289 326.016C530.451 325.703 530.685 325.424 530.992 325.18C531.299 324.935 531.667 324.742 532.094 324.602C532.521 324.461 533 324.391 533.531 324.391C534.167 324.391 534.729 324.497 535.219 324.711C535.714 324.924 536.102 325.247 536.383 325.68C536.669 326.107 536.812 326.643 536.812 327.289V331.047C536.812 331.432 536.839 331.779 536.891 332.086C536.948 332.388 537.029 332.651 537.133 332.875V333H535.203C535.115 332.797 535.044 332.539 534.992 332.227C534.945 331.909 534.922 331.602 534.922 331.305ZM535.195 327.859L535.211 329.023H533.859C533.51 329.023 533.203 329.057 532.938 329.125C532.672 329.188 532.451 329.281 532.273 329.406C532.096 329.531 531.964 329.682 531.875 329.859C531.786 330.036 531.742 330.237 531.742 330.461C531.742 330.685 531.794 330.891 531.898 331.078C532.003 331.26 532.154 331.404 532.352 331.508C532.555 331.612 532.799 331.664 533.086 331.664C533.471 331.664 533.807 331.586 534.094 331.43C534.385 331.268 534.615 331.073 534.781 330.844C534.948 330.609 535.036 330.388 535.047 330.18L535.656 331.016C535.594 331.229 535.487 331.458 535.336 331.703C535.185 331.948 534.987 332.182 534.742 332.406C534.503 332.625 534.214 332.805 533.875 332.945C533.542 333.086 533.156 333.156 532.719 333.156C532.167 333.156 531.674 333.047 531.242 332.828C530.81 332.604 530.471 332.305 530.227 331.93C529.982 331.549 529.859 331.12 529.859 330.641C529.859 330.193 529.943 329.797 530.109 329.453C530.281 329.104 530.531 328.812 530.859 328.578C531.193 328.344 531.599 328.167 532.078 328.047C532.557 327.922 533.104 327.859 533.719 327.859H535.195ZM544.195 324.547H545.906V332.766C545.906 333.526 545.745 334.172 545.422 334.703C545.099 335.234 544.648 335.638 544.07 335.914C543.492 336.195 542.823 336.336 542.062 336.336C541.74 336.336 541.38 336.289 540.984 336.195C540.594 336.102 540.214 335.951 539.844 335.742C539.479 335.539 539.174 335.271 538.93 334.938L539.812 333.828C540.115 334.188 540.448 334.451 540.812 334.617C541.177 334.784 541.56 334.867 541.961 334.867C542.393 334.867 542.76 334.786 543.062 334.625C543.37 334.469 543.607 334.237 543.773 333.93C543.94 333.622 544.023 333.247 544.023 332.805V326.461L544.195 324.547ZM538.453 328.867V328.703C538.453 328.062 538.531 327.479 538.688 326.953C538.844 326.422 539.068 325.966 539.359 325.586C539.651 325.201 540.005 324.906 540.422 324.703C540.839 324.495 541.31 324.391 541.836 324.391C542.383 324.391 542.849 324.49 543.234 324.688C543.625 324.885 543.951 325.169 544.211 325.539C544.471 325.904 544.674 326.341 544.82 326.852C544.971 327.357 545.083 327.919 545.156 328.539V329.062C545.089 329.667 544.974 330.219 544.812 330.719C544.651 331.219 544.438 331.651 544.172 332.016C543.906 332.38 543.578 332.661 543.188 332.859C542.802 333.057 542.346 333.156 541.82 333.156C541.305 333.156 540.839 333.049 540.422 332.836C540.01 332.622 539.656 332.323 539.359 331.938C539.068 331.552 538.844 331.099 538.688 330.578C538.531 330.052 538.453 329.482 538.453 328.867ZM540.336 328.703V328.867C540.336 329.253 540.372 329.612 540.445 329.945C540.523 330.279 540.641 330.573 540.797 330.828C540.958 331.078 541.161 331.276 541.406 331.422C541.656 331.562 541.951 331.633 542.289 331.633C542.732 331.633 543.094 331.539 543.375 331.352C543.661 331.164 543.88 330.911 544.031 330.594C544.188 330.271 544.297 329.911 544.359 329.516V328.102C544.328 327.794 544.263 327.508 544.164 327.242C544.07 326.977 543.943 326.745 543.781 326.547C543.62 326.344 543.417 326.188 543.172 326.078C542.927 325.964 542.638 325.906 542.305 325.906C541.966 325.906 541.672 325.979 541.422 326.125C541.172 326.271 540.966 326.471 540.805 326.727C540.648 326.982 540.531 327.279 540.453 327.617C540.375 327.956 540.336 328.318 540.336 328.703ZM551.586 333.156C550.961 333.156 550.396 333.055 549.891 332.852C549.391 332.643 548.964 332.354 548.609 331.984C548.26 331.615 547.992 331.18 547.805 330.68C547.617 330.18 547.523 329.641 547.523 329.062V328.75C547.523 328.089 547.62 327.49 547.812 326.953C548.005 326.417 548.273 325.958 548.617 325.578C548.961 325.193 549.367 324.898 549.836 324.695C550.305 324.492 550.812 324.391 551.359 324.391C551.964 324.391 552.492 324.492 552.945 324.695C553.398 324.898 553.773 325.185 554.07 325.555C554.372 325.919 554.596 326.354 554.742 326.859C554.893 327.365 554.969 327.922 554.969 328.531V329.336H548.438V327.984H553.109V327.836C553.099 327.497 553.031 327.18 552.906 326.883C552.786 326.586 552.602 326.346 552.352 326.164C552.102 325.982 551.768 325.891 551.352 325.891C551.039 325.891 550.76 325.958 550.516 326.094C550.276 326.224 550.076 326.414 549.914 326.664C549.753 326.914 549.628 327.216 549.539 327.57C549.456 327.919 549.414 328.312 549.414 328.75V329.062C549.414 329.432 549.464 329.776 549.562 330.094C549.667 330.406 549.818 330.68 550.016 330.914C550.214 331.148 550.453 331.333 550.734 331.469C551.016 331.599 551.336 331.664 551.695 331.664C552.148 331.664 552.552 331.573 552.906 331.391C553.26 331.208 553.568 330.951 553.828 330.617L554.82 331.578C554.638 331.844 554.401 332.099 554.109 332.344C553.818 332.583 553.461 332.779 553.039 332.93C552.622 333.081 552.138 333.156 551.586 333.156ZM561.18 330.711C561.18 330.523 561.133 330.354 561.039 330.203C560.945 330.047 560.766 329.906 560.5 329.781C560.24 329.656 559.854 329.542 559.344 329.438C558.896 329.339 558.484 329.221 558.109 329.086C557.74 328.945 557.422 328.776 557.156 328.578C556.891 328.38 556.685 328.146 556.539 327.875C556.393 327.604 556.32 327.292 556.32 326.938C556.32 326.594 556.396 326.268 556.547 325.961C556.698 325.654 556.914 325.383 557.195 325.148C557.477 324.914 557.818 324.729 558.219 324.594C558.625 324.458 559.078 324.391 559.578 324.391C560.286 324.391 560.893 324.51 561.398 324.75C561.909 324.984 562.299 325.305 562.57 325.711C562.841 326.112 562.977 326.565 562.977 327.07H561.094C561.094 326.846 561.036 326.638 560.922 326.445C560.812 326.247 560.646 326.089 560.422 325.969C560.198 325.844 559.917 325.781 559.578 325.781C559.255 325.781 558.987 325.833 558.773 325.938C558.565 326.036 558.409 326.167 558.305 326.328C558.206 326.49 558.156 326.667 558.156 326.859C558.156 327 558.182 327.128 558.234 327.242C558.292 327.352 558.385 327.453 558.516 327.547C558.646 327.635 558.823 327.719 559.047 327.797C559.276 327.875 559.562 327.951 559.906 328.023C560.552 328.159 561.107 328.333 561.57 328.547C562.039 328.755 562.398 329.026 562.648 329.359C562.898 329.688 563.023 330.104 563.023 330.609C563.023 330.984 562.943 331.328 562.781 331.641C562.625 331.948 562.396 332.216 562.094 332.445C561.792 332.669 561.43 332.844 561.008 332.969C560.591 333.094 560.122 333.156 559.602 333.156C558.836 333.156 558.188 333.021 557.656 332.75C557.125 332.474 556.721 332.122 556.445 331.695C556.174 331.263 556.039 330.815 556.039 330.352H557.859C557.88 330.701 557.977 330.979 558.148 331.188C558.326 331.391 558.544 331.539 558.805 331.633C559.07 331.721 559.344 331.766 559.625 331.766C559.964 331.766 560.247 331.721 560.477 331.633C560.706 331.539 560.88 331.414 561 331.258C561.12 331.096 561.18 330.914 561.18 330.711Z" fill="#1A1A1A"/>
<path d="M848.19 326.461H849.315C849.753 326.461 850.115 326.385 850.401 326.234C850.693 326.083 850.909 325.875 851.05 325.609C851.19 325.344 851.26 325.039 851.26 324.695C851.26 324.336 851.195 324.029 851.065 323.773C850.94 323.513 850.747 323.312 850.487 323.172C850.232 323.031 849.906 322.961 849.51 322.961C849.177 322.961 848.875 323.029 848.604 323.164C848.339 323.294 848.128 323.482 847.971 323.727C847.815 323.966 847.737 324.253 847.737 324.586H845.846C845.846 323.982 846.005 323.445 846.323 322.977C846.641 322.508 847.073 322.141 847.62 321.875C848.172 321.604 848.792 321.469 849.479 321.469C850.214 321.469 850.854 321.591 851.401 321.836C851.953 322.076 852.383 322.435 852.69 322.914C852.997 323.393 853.151 323.987 853.151 324.695C853.151 325.018 853.076 325.346 852.925 325.68C852.773 326.013 852.55 326.318 852.253 326.594C851.956 326.865 851.586 327.086 851.143 327.258C850.701 327.424 850.188 327.508 849.604 327.508H848.19V326.461ZM848.19 327.93V326.898H849.604C850.271 326.898 850.839 326.977 851.307 327.133C851.781 327.289 852.167 327.505 852.464 327.781C852.76 328.052 852.977 328.362 853.112 328.711C853.253 329.06 853.323 329.43 853.323 329.82C853.323 330.352 853.227 330.826 853.034 331.242C852.846 331.654 852.578 332.003 852.229 332.289C851.88 332.576 851.471 332.792 851.003 332.938C850.539 333.083 850.034 333.156 849.487 333.156C848.997 333.156 848.529 333.089 848.081 332.953C847.633 332.818 847.232 332.617 846.878 332.352C846.523 332.081 846.242 331.745 846.034 331.344C845.831 330.938 845.729 330.469 845.729 329.938H847.612C847.612 330.276 847.69 330.576 847.846 330.836C848.008 331.091 848.232 331.292 848.518 331.438C848.81 331.583 849.143 331.656 849.518 331.656C849.914 331.656 850.255 331.586 850.542 331.445C850.828 331.305 851.047 331.096 851.198 330.82C851.354 330.544 851.432 330.211 851.432 329.82C851.432 329.378 851.346 329.018 851.175 328.742C851.003 328.466 850.758 328.263 850.44 328.133C850.122 327.997 849.747 327.93 849.315 327.93H848.19ZM855.26 332.062C855.26 331.771 855.359 331.526 855.557 331.328C855.755 331.125 856.023 331.023 856.362 331.023C856.706 331.023 856.974 331.125 857.167 331.328C857.365 331.526 857.464 331.771 857.464 332.062C857.464 332.354 857.365 332.599 857.167 332.797C856.974 332.995 856.706 333.094 856.362 333.094C856.023 333.094 855.755 332.995 855.557 332.797C855.359 332.599 855.26 332.354 855.26 332.062ZM865.953 321.625H867.703L870.992 330.398L874.273 321.625H876.023L871.68 333H870.289L865.953 321.625ZM865.156 321.625H866.82L867.109 329.219V333H865.156V321.625ZM875.156 321.625H876.828V333H874.867V329.219L875.156 321.625ZM878.609 328.867V328.688C878.609 328.078 878.698 327.513 878.875 326.992C879.052 326.466 879.307 326.01 879.641 325.625C879.979 325.234 880.391 324.932 880.875 324.719C881.365 324.5 881.917 324.391 882.531 324.391C883.151 324.391 883.703 324.5 884.188 324.719C884.677 324.932 885.091 325.234 885.43 325.625C885.768 326.01 886.026 326.466 886.203 326.992C886.38 327.513 886.469 328.078 886.469 328.688V328.867C886.469 329.477 886.38 330.042 886.203 330.562C886.026 331.083 885.768 331.539 885.43 331.93C885.091 332.315 884.68 332.617 884.195 332.836C883.711 333.049 883.161 333.156 882.547 333.156C881.927 333.156 881.372 333.049 880.883 332.836C880.398 332.617 879.987 332.315 879.648 331.93C879.31 331.539 879.052 331.083 878.875 330.562C878.698 330.042 878.609 329.477 878.609 328.867ZM880.492 328.688V328.867C880.492 329.247 880.531 329.607 880.609 329.945C880.688 330.284 880.81 330.581 880.977 330.836C881.143 331.091 881.357 331.292 881.617 331.438C881.878 331.583 882.188 331.656 882.547 331.656C882.896 331.656 883.198 331.583 883.453 331.438C883.714 331.292 883.927 331.091 884.094 330.836C884.26 330.581 884.383 330.284 884.461 329.945C884.544 329.607 884.586 329.247 884.586 328.867V328.688C884.586 328.312 884.544 327.958 884.461 327.625C884.383 327.286 884.258 326.987 884.086 326.727C883.919 326.466 883.706 326.263 883.445 326.117C883.19 325.966 882.885 325.891 882.531 325.891C882.177 325.891 881.87 325.966 881.609 326.117C881.354 326.263 881.143 326.466 880.977 326.727C880.81 326.987 880.688 327.286 880.609 327.625C880.531 327.958 880.492 328.312 880.492 328.688ZM889.938 326.156V333H888.055V324.547H889.852L889.938 326.156ZM892.523 324.492L892.508 326.242C892.393 326.221 892.268 326.206 892.133 326.195C892.003 326.185 891.872 326.18 891.742 326.18C891.419 326.18 891.135 326.227 890.891 326.32C890.646 326.409 890.44 326.539 890.273 326.711C890.112 326.878 889.987 327.081 889.898 327.32C889.81 327.56 889.758 327.828 889.742 328.125L889.312 328.156C889.312 327.625 889.365 327.133 889.469 326.68C889.573 326.227 889.729 325.828 889.938 325.484C890.151 325.141 890.417 324.872 890.734 324.68C891.057 324.487 891.43 324.391 891.852 324.391C891.966 324.391 892.089 324.401 892.219 324.422C892.354 324.443 892.456 324.466 892.523 324.492ZM897.273 333.156C896.648 333.156 896.083 333.055 895.578 332.852C895.078 332.643 894.651 332.354 894.297 331.984C893.948 331.615 893.68 331.18 893.492 330.68C893.305 330.18 893.211 329.641 893.211 329.062V328.75C893.211 328.089 893.307 327.49 893.5 326.953C893.693 326.417 893.961 325.958 894.305 325.578C894.648 325.193 895.055 324.898 895.523 324.695C895.992 324.492 896.5 324.391 897.047 324.391C897.651 324.391 898.18 324.492 898.633 324.695C899.086 324.898 899.461 325.185 899.758 325.555C900.06 325.919 900.284 326.354 900.43 326.859C900.581 327.365 900.656 327.922 900.656 328.531V329.336H894.125V327.984H898.797V327.836C898.786 327.497 898.719 327.18 898.594 326.883C898.474 326.586 898.289 326.346 898.039 326.164C897.789 325.982 897.456 325.891 897.039 325.891C896.727 325.891 896.448 325.958 896.203 326.094C895.964 326.224 895.763 326.414 895.602 326.664C895.44 326.914 895.315 327.216 895.227 327.57C895.143 327.919 895.102 328.312 895.102 328.75V329.062C895.102 329.432 895.151 329.776 895.25 330.094C895.354 330.406 895.505 330.68 895.703 330.914C895.901 331.148 896.141 331.333 896.422 331.469C896.703 331.599 897.023 331.664 897.383 331.664C897.836 331.664 898.24 331.573 898.594 331.391C898.948 331.208 899.255 330.951 899.516 330.617L900.508 331.578C900.326 331.844 900.089 332.099 899.797 332.344C899.505 332.583 899.148 332.779 898.727 332.93C898.31 333.081 897.826 333.156 897.273 333.156ZM909.984 324.547V325.922H905.219V324.547H909.984ZM906.594 322.477H908.477V330.664C908.477 330.924 908.513 331.125 908.586 331.266C908.664 331.401 908.771 331.492 908.906 331.539C909.042 331.586 909.201 331.609 909.383 331.609C909.513 331.609 909.638 331.602 909.758 331.586C909.878 331.57 909.974 331.555 910.047 331.539L910.055 332.977C909.898 333.023 909.716 333.065 909.508 333.102C909.305 333.138 909.07 333.156 908.805 333.156C908.372 333.156 907.99 333.081 907.656 332.93C907.323 332.773 907.062 332.521 906.875 332.172C906.688 331.823 906.594 331.359 906.594 330.781V322.477ZM913.297 321V333H911.422V321H913.297ZM912.969 328.461L912.359 328.453C912.365 327.87 912.445 327.331 912.602 326.836C912.763 326.341 912.987 325.911 913.273 325.547C913.565 325.177 913.914 324.893 914.32 324.695C914.727 324.492 915.177 324.391 915.672 324.391C916.089 324.391 916.464 324.448 916.797 324.562C917.135 324.677 917.427 324.862 917.672 325.117C917.917 325.367 918.102 325.695 918.227 326.102C918.357 326.503 918.422 326.992 918.422 327.57V333H916.531V327.555C916.531 327.148 916.471 326.826 916.352 326.586C916.237 326.346 916.068 326.174 915.844 326.07C915.62 325.961 915.346 325.906 915.023 325.906C914.685 325.906 914.385 325.974 914.125 326.109C913.87 326.245 913.656 326.43 913.484 326.664C913.312 326.898 913.182 327.169 913.094 327.477C913.01 327.784 912.969 328.112 912.969 328.461ZM925.094 331.305V327.273C925.094 326.971 925.039 326.711 924.93 326.492C924.82 326.273 924.654 326.104 924.43 325.984C924.211 325.865 923.935 325.805 923.602 325.805C923.294 325.805 923.029 325.857 922.805 325.961C922.581 326.065 922.406 326.206 922.281 326.383C922.156 326.56 922.094 326.76 922.094 326.984H920.219C920.219 326.651 920.299 326.328 920.461 326.016C920.622 325.703 920.857 325.424 921.164 325.18C921.471 324.935 921.839 324.742 922.266 324.602C922.693 324.461 923.172 324.391 923.703 324.391C924.339 324.391 924.901 324.497 925.391 324.711C925.885 324.924 926.273 325.247 926.555 325.68C926.841 326.107 926.984 326.643 926.984 327.289V331.047C926.984 331.432 927.01 331.779 927.062 332.086C927.12 332.388 927.201 332.651 927.305 332.875V333H925.375C925.286 332.797 925.216 332.539 925.164 332.227C925.117 331.909 925.094 331.602 925.094 331.305ZM925.367 327.859L925.383 329.023H924.031C923.682 329.023 923.375 329.057 923.109 329.125C922.844 329.188 922.622 329.281 922.445 329.406C922.268 329.531 922.135 329.682 922.047 329.859C921.958 330.036 921.914 330.237 921.914 330.461C921.914 330.685 921.966 330.891 922.07 331.078C922.174 331.26 922.326 331.404 922.523 331.508C922.727 331.612 922.971 331.664 923.258 331.664C923.643 331.664 923.979 331.586 924.266 331.43C924.557 331.268 924.786 331.073 924.953 330.844C925.12 330.609 925.208 330.388 925.219 330.18L925.828 331.016C925.766 331.229 925.659 331.458 925.508 331.703C925.357 331.948 925.159 332.182 924.914 332.406C924.674 332.625 924.385 332.805 924.047 332.945C923.714 333.086 923.328 333.156 922.891 333.156C922.339 333.156 921.846 333.047 921.414 332.828C920.982 332.604 920.643 332.305 920.398 331.93C920.154 331.549 920.031 331.12 920.031 330.641C920.031 330.193 920.115 329.797 920.281 329.453C920.453 329.104 920.703 328.812 921.031 328.578C921.365 328.344 921.771 328.167 922.25 328.047C922.729 327.922 923.276 327.859 923.891 327.859H925.367ZM930.82 326.352V333H928.938V324.547H930.711L930.82 326.352ZM930.484 328.461L929.875 328.453C929.88 327.854 929.964 327.305 930.125 326.805C930.292 326.305 930.521 325.875 930.812 325.516C931.109 325.156 931.464 324.88 931.875 324.688C932.286 324.49 932.745 324.391 933.25 324.391C933.656 324.391 934.023 324.448 934.352 324.562C934.685 324.672 934.969 324.852 935.203 325.102C935.443 325.352 935.625 325.677 935.75 326.078C935.875 326.474 935.938 326.961 935.938 327.539V333H934.047V327.531C934.047 327.125 933.987 326.805 933.867 326.57C933.753 326.331 933.583 326.161 933.359 326.062C933.141 325.958 932.867 325.906 932.539 325.906C932.216 325.906 931.927 325.974 931.672 326.109C931.417 326.245 931.201 326.43 931.023 326.664C930.852 326.898 930.719 327.169 930.625 327.477C930.531 327.784 930.484 328.112 930.484 328.461ZM943.711 327.711L942.211 327.344L942.828 321.625H948.961V323.219H944.391L944.078 326.008C944.255 325.904 944.5 325.802 944.812 325.703C945.125 325.599 945.482 325.547 945.883 325.547C946.419 325.547 946.898 325.635 947.32 325.812C947.747 325.984 948.109 326.237 948.406 326.57C948.703 326.898 948.93 327.299 949.086 327.773C949.242 328.242 949.32 328.771 949.32 329.359C949.32 329.885 949.242 330.378 949.086 330.836C948.935 331.294 948.706 331.698 948.398 332.047C948.091 332.396 947.703 332.669 947.234 332.867C946.771 333.06 946.221 333.156 945.586 333.156C945.112 333.156 944.656 333.089 944.219 332.953C943.786 332.812 943.398 332.607 943.055 332.336C942.711 332.06 942.435 331.721 942.227 331.32C942.018 330.914 941.898 330.448 941.867 329.922H943.711C943.758 330.292 943.859 330.607 944.016 330.867C944.177 331.122 944.391 331.318 944.656 331.453C944.922 331.589 945.229 331.656 945.578 331.656C945.896 331.656 946.169 331.602 946.398 331.492C946.628 331.378 946.818 331.216 946.969 331.008C947.125 330.794 947.24 330.544 947.312 330.258C947.391 329.971 947.43 329.654 947.43 329.305C947.43 328.971 947.385 328.667 947.297 328.391C947.214 328.115 947.086 327.875 946.914 327.672C946.747 327.469 946.536 327.312 946.281 327.203C946.026 327.089 945.732 327.031 945.398 327.031C944.951 327.031 944.607 327.096 944.367 327.227C944.133 327.357 943.914 327.518 943.711 327.711ZM956.812 326.172V336.25H954.93V324.547H956.664L956.812 326.172ZM962.32 328.695V328.859C962.32 329.474 962.247 330.044 962.102 330.57C961.961 331.091 961.75 331.547 961.469 331.938C961.193 332.323 960.852 332.622 960.445 332.836C960.039 333.049 959.57 333.156 959.039 333.156C958.513 333.156 958.052 333.06 957.656 332.867C957.266 332.669 956.935 332.391 956.664 332.031C956.393 331.672 956.174 331.25 956.008 330.766C955.846 330.276 955.732 329.74 955.664 329.156V328.523C955.732 327.904 955.846 327.341 956.008 326.836C956.174 326.331 956.393 325.896 956.664 325.531C956.935 325.167 957.266 324.885 957.656 324.688C958.047 324.49 958.503 324.391 959.023 324.391C959.555 324.391 960.026 324.495 960.438 324.703C960.849 324.906 961.195 325.198 961.477 325.578C961.758 325.953 961.969 326.406 962.109 326.938C962.25 327.464 962.32 328.049 962.32 328.695ZM960.438 328.859V328.695C960.438 328.305 960.401 327.943 960.328 327.609C960.255 327.271 960.141 326.974 959.984 326.719C959.828 326.464 959.628 326.266 959.383 326.125C959.143 325.979 958.854 325.906 958.516 325.906C958.182 325.906 957.896 325.964 957.656 326.078C957.417 326.188 957.216 326.341 957.055 326.539C956.893 326.737 956.768 326.969 956.68 327.234C956.591 327.495 956.529 327.779 956.492 328.086V329.602C956.555 329.977 956.661 330.32 956.812 330.633C956.964 330.945 957.177 331.195 957.453 331.383C957.734 331.565 958.094 331.656 958.531 331.656C958.87 331.656 959.159 331.583 959.398 331.438C959.638 331.292 959.833 331.091 959.984 330.836C960.141 330.576 960.255 330.276 960.328 329.938C960.401 329.599 960.438 329.24 960.438 328.859ZM968.688 331.305V327.273C968.688 326.971 968.633 326.711 968.523 326.492C968.414 326.273 968.247 326.104 968.023 325.984C967.805 325.865 967.529 325.805 967.195 325.805C966.888 325.805 966.622 325.857 966.398 325.961C966.174 326.065 966 326.206 965.875 326.383C965.75 326.56 965.688 326.76 965.688 326.984H963.812C963.812 326.651 963.893 326.328 964.055 326.016C964.216 325.703 964.451 325.424 964.758 325.18C965.065 324.935 965.432 324.742 965.859 324.602C966.286 324.461 966.766 324.391 967.297 324.391C967.932 324.391 968.495 324.497 968.984 324.711C969.479 324.924 969.867 325.247 970.148 325.68C970.435 326.107 970.578 326.643 970.578 327.289V331.047C970.578 331.432 970.604 331.779 970.656 332.086C970.714 332.388 970.794 332.651 970.898 332.875V333H968.969C968.88 332.797 968.81 332.539 968.758 332.227C968.711 331.909 968.688 331.602 968.688 331.305ZM968.961 327.859L968.977 329.023H967.625C967.276 329.023 966.969 329.057 966.703 329.125C966.438 329.188 966.216 329.281 966.039 329.406C965.862 329.531 965.729 329.682 965.641 329.859C965.552 330.036 965.508 330.237 965.508 330.461C965.508 330.685 965.56 330.891 965.664 331.078C965.768 331.26 965.919 331.404 966.117 331.508C966.32 331.612 966.565 331.664 966.852 331.664C967.237 331.664 967.573 331.586 967.859 331.43C968.151 331.268 968.38 331.073 968.547 330.844C968.714 330.609 968.802 330.388 968.812 330.18L969.422 331.016C969.359 331.229 969.253 331.458 969.102 331.703C968.951 331.948 968.753 332.182 968.508 332.406C968.268 332.625 967.979 332.805 967.641 332.945C967.307 333.086 966.922 333.156 966.484 333.156C965.932 333.156 965.44 333.047 965.008 332.828C964.576 332.604 964.237 332.305 963.992 331.93C963.747 331.549 963.625 331.12 963.625 330.641C963.625 330.193 963.708 329.797 963.875 329.453C964.047 329.104 964.297 328.812 964.625 328.578C964.958 328.344 965.365 328.167 965.844 328.047C966.323 327.922 966.87 327.859 967.484 327.859H968.961ZM977.961 324.547H979.672V332.766C979.672 333.526 979.51 334.172 979.188 334.703C978.865 335.234 978.414 335.638 977.836 335.914C977.258 336.195 976.589 336.336 975.828 336.336C975.505 336.336 975.146 336.289 974.75 336.195C974.359 336.102 973.979 335.951 973.609 335.742C973.245 335.539 972.94 335.271 972.695 334.938L973.578 333.828C973.88 334.188 974.214 334.451 974.578 334.617C974.943 334.784 975.326 334.867 975.727 334.867C976.159 334.867 976.526 334.786 976.828 334.625C977.135 334.469 977.372 334.237 977.539 333.93C977.706 333.622 977.789 333.247 977.789 332.805V326.461L977.961 324.547ZM972.219 328.867V328.703C972.219 328.062 972.297 327.479 972.453 326.953C972.609 326.422 972.833 325.966 973.125 325.586C973.417 325.201 973.771 324.906 974.188 324.703C974.604 324.495 975.076 324.391 975.602 324.391C976.148 324.391 976.615 324.49 977 324.688C977.391 324.885 977.716 325.169 977.977 325.539C978.237 325.904 978.44 326.341 978.586 326.852C978.737 327.357 978.849 327.919 978.922 328.539V329.062C978.854 329.667 978.74 330.219 978.578 330.719C978.417 331.219 978.203 331.651 977.938 332.016C977.672 332.38 977.344 332.661 976.953 332.859C976.568 333.057 976.112 333.156 975.586 333.156C975.07 333.156 974.604 333.049 974.188 332.836C973.776 332.622 973.422 332.323 973.125 331.938C972.833 331.552 972.609 331.099 972.453 330.578C972.297 330.052 972.219 329.482 972.219 328.867ZM974.102 328.703V328.867C974.102 329.253 974.138 329.612 974.211 329.945C974.289 330.279 974.406 330.573 974.562 330.828C974.724 331.078 974.927 331.276 975.172 331.422C975.422 331.562 975.716 331.633 976.055 331.633C976.497 331.633 976.859 331.539 977.141 331.352C977.427 331.164 977.646 330.911 977.797 330.594C977.953 330.271 978.062 329.911 978.125 329.516V328.102C978.094 327.794 978.029 327.508 977.93 327.242C977.836 326.977 977.708 326.745 977.547 326.547C977.385 326.344 977.182 326.188 976.938 326.078C976.693 325.964 976.404 325.906 976.07 325.906C975.732 325.906 975.438 325.979 975.188 326.125C974.938 326.271 974.732 326.471 974.57 326.727C974.414 326.982 974.297 327.279 974.219 327.617C974.141 327.956 974.102 328.318 974.102 328.703ZM985.352 333.156C984.727 333.156 984.161 333.055 983.656 332.852C983.156 332.643 982.729 332.354 982.375 331.984C982.026 331.615 981.758 331.18 981.57 330.68C981.383 330.18 981.289 329.641 981.289 329.062V328.75C981.289 328.089 981.385 327.49 981.578 326.953C981.771 326.417 982.039 325.958 982.383 325.578C982.727 325.193 983.133 324.898 983.602 324.695C984.07 324.492 984.578 324.391 985.125 324.391C985.729 324.391 986.258 324.492 986.711 324.695C987.164 324.898 987.539 325.185 987.836 325.555C988.138 325.919 988.362 326.354 988.508 326.859C988.659 327.365 988.734 327.922 988.734 328.531V329.336H982.203V327.984H986.875V327.836C986.865 327.497 986.797 327.18 986.672 326.883C986.552 326.586 986.367 326.346 986.117 326.164C985.867 325.982 985.534 325.891 985.117 325.891C984.805 325.891 984.526 325.958 984.281 326.094C984.042 326.224 983.841 326.414 983.68 326.664C983.518 326.914 983.393 327.216 983.305 327.57C983.221 327.919 983.18 328.312 983.18 328.75V329.062C983.18 329.432 983.229 329.776 983.328 330.094C983.432 330.406 983.583 330.68 983.781 330.914C983.979 331.148 984.219 331.333 984.5 331.469C984.781 331.599 985.102 331.664 985.461 331.664C985.914 331.664 986.318 331.573 986.672 331.391C987.026 331.208 987.333 330.951 987.594 330.617L988.586 331.578C988.404 331.844 988.167 332.099 987.875 332.344C987.583 332.583 987.227 332.779 986.805 332.93C986.388 333.081 985.904 333.156 985.352 333.156ZM994.945 330.711C994.945 330.523 994.898 330.354 994.805 330.203C994.711 330.047 994.531 329.906 994.266 329.781C994.005 329.656 993.62 329.542 993.109 329.438C992.661 329.339 992.25 329.221 991.875 329.086C991.505 328.945 991.188 328.776 990.922 328.578C990.656 328.38 990.451 328.146 990.305 327.875C990.159 327.604 990.086 327.292 990.086 326.938C990.086 326.594 990.161 326.268 990.312 325.961C990.464 325.654 990.68 325.383 990.961 325.148C991.242 324.914 991.583 324.729 991.984 324.594C992.391 324.458 992.844 324.391 993.344 324.391C994.052 324.391 994.659 324.51 995.164 324.75C995.674 324.984 996.065 325.305 996.336 325.711C996.607 326.112 996.742 326.565 996.742 327.07H994.859C994.859 326.846 994.802 326.638 994.688 326.445C994.578 326.247 994.411 326.089 994.188 325.969C993.964 325.844 993.682 325.781 993.344 325.781C993.021 325.781 992.753 325.833 992.539 325.938C992.331 326.036 992.174 326.167 992.07 326.328C991.971 326.49 991.922 326.667 991.922 326.859C991.922 327 991.948 327.128 992 327.242C992.057 327.352 992.151 327.453 992.281 327.547C992.411 327.635 992.589 327.719 992.812 327.797C993.042 327.875 993.328 327.951 993.672 328.023C994.318 328.159 994.872 328.333 995.336 328.547C995.805 328.755 996.164 329.026 996.414 329.359C996.664 329.688 996.789 330.104 996.789 330.609C996.789 330.984 996.708 331.328 996.547 331.641C996.391 331.948 996.161 332.216 995.859 332.445C995.557 332.669 995.195 332.844 994.773 332.969C994.357 333.094 993.888 333.156 993.367 333.156C992.602 333.156 991.953 333.021 991.422 332.75C990.891 332.474 990.487 332.122 990.211 331.695C989.94 331.263 989.805 330.815 989.805 330.352H991.625C991.646 330.701 991.742 330.979 991.914 331.188C992.091 331.391 992.31 331.539 992.57 331.633C992.836 331.721 993.109 331.766 993.391 331.766C993.729 331.766 994.013 331.721 994.242 331.633C994.471 331.539 994.646 331.414 994.766 331.258C994.885 331.096 994.945 330.914 994.945 330.711Z" fill="#1A1A1A"/>
</g>
<rect x="0.5" y="0.5" width="1239" height="379" rx="15.5" stroke="#E6E6E6"/>
<defs>
<filter id="filter0_dd_10033_98109" x="-122" y="-37" width="522" height="66" filterUnits="userSpaceOnUse" color-interpolation-filters="sRGB">
<feFlood flood-opacity="0" result="BackgroundImageFix"/>
<feColorMatrix in="SourceAlpha" type="matrix" values="0 0 0 0 0 0 0 0 0 0 0 0 0 0 0 0 0 0 127 0" result="hardAlpha"/>
<feOffset dy="1"/>
<feComposite in2="hardAlpha" operator="out"/>
<feColorMatrix type="matrix" values="0 0 0 0 0.901961 0 0 0 0 0.901961 0 0 0 0 0.901961 0 0 0 1 0"/>
<feBlend mode="normal" in2="BackgroundImageFix" result="effect1_dropShadow_10033_98109"/>
<feColorMatrix in="SourceAlpha" type="matrix" values="0 0 0 0 0 0 0 0 0 0 0 0 0 0 0 0 0 0 127 0" result="hardAlpha"/>
<feOffset dy="-1"/>
<feComposite in2="hardAlpha" operator="out"/>
<feColorMatrix type="matrix" values="0 0 0 0 0.901961 0 0 0 0 0.901961 0 0 0 0 0.901961 0 0 0 1 0"/>
<feBlend mode="normal" in2="effect1_dropShadow_10033_98109" result="effect2_dropShadow_10033_98109"/>
<feBlend mode="normal" in="SourceGraphic" in2="effect2_dropShadow_10033_98109" result="shape"/>
</filter>
<filter id="filter1_dd_10033_98109" x="-122" y="27" width="522" height="66" filterUnits="userSpaceOnUse" color-interpolation-filters="sRGB">
<feFlood flood-opacity="0" result="BackgroundImageFix"/>
<feColorMatrix in="SourceAlpha" type="matrix" values="0 0 0 0 0 0 0 0 0 0 0 0 0 0 0 0 0 0 127 0" result="hardAlpha"/>
<feOffset dy="1"/>
<feComposite in2="hardAlpha" operator="out"/>
<feColorMatrix type="matrix" values="0 0 0 0 0.901961 0 0 0 0 0.901961 0 0 0 0 0.901961 0 0 0 1 0"/>
<feBlend mode="normal" in2="BackgroundImageFix" result="effect1_dropShadow_10033_98109"/>
<feColorMatrix in="SourceAlpha" type="matrix" values="0 0 0 0 0 0 0 0 0 0 0 0 0 0 0 0 0 0 127 0" result="hardAlpha"/>
<feOffset dy="-1"/>
<feComposite in2="hardAlpha" operator="out"/>
<feColorMatrix type="matrix" values="0 0 0 0 0.901961 0 0 0 0 0.901961 0 0 0 0 0.901961 0 0 0 1 0"/>
<feBlend mode="normal" in2="effect1_dropShadow_10033_98109" result="effect2_dropShadow_10033_98109"/>
<feBlend mode="normal" in="SourceGraphic" in2="effect2_dropShadow_10033_98109" result="shape"/>
</filter>
<filter id="filter2_dd_10033_98109" x="-122" y="91" width="522" height="66" filterUnits="userSpaceOnUse" color-interpolation-filters="sRGB">
<feFlood flood-opacity="0" result="BackgroundImageFix"/>
<feColorMatrix in="SourceAlpha" type="matrix" values="0 0 0 0 0 0 0 0 0 0 0 0 0 0 0 0 0 0 127 0" result="hardAlpha"/>
<feOffset dy="1"/>
<feComposite in2="hardAlpha" operator="out"/>
<feColorMatrix type="matrix" values="0 0 0 0 0.901961 0 0 0 0 0.901961 0 0 0 0 0.901961 0 0 0 1 0"/>
<feBlend mode="normal" in2="BackgroundImageFix" result="effect1_dropShadow_10033_98109"/>
<feColorMatrix in="SourceAlpha" type="matrix" values="0 0 0 0 0 0 0 0 0 0 0 0 0 0 0 0 0 0 127 0" result="hardAlpha"/>
<feOffset dy="-1"/>
<feComposite in2="hardAlpha" operator="out"/>
<feColorMatrix type="matrix" values="0 0 0 0 0.901961 0 0 0 0 0.901961 0 0 0 0 0.901961 0 0 0 1 0"/>
<feBlend mode="normal" in2="effect1_dropShadow_10033_98109" result="effect2_dropShadow_10033_98109"/>
<feBlend mode="normal" in="SourceGraphic" in2="effect2_dropShadow_10033_98109" result="shape"/>
</filter>
<filter id="filter3_dd_10033_98109" x="-122" y="155" width="522" height="66" filterUnits="userSpaceOnUse" color-interpolation-filters="sRGB">
<feFlood flood-opacity="0" result="BackgroundImageFix"/>
<feColorMatrix in="SourceAlpha" type="matrix" values="0 0 0 0 0 0 0 0 0 0 0 0 0 0 0 0 0 0 127 0" result="hardAlpha"/>
<feOffset dy="1"/>
<feComposite in2="hardAlpha" operator="out"/>
<feColorMatrix type="matrix" values="0 0 0 0 0.901961 0 0 0 0 0.901961 0 0 0 0 0.901961 0 0 0 1 0"/>
<feBlend mode="normal" in2="BackgroundImageFix" result="effect1_dropShadow_10033_98109"/>
<feColorMatrix in="SourceAlpha" type="matrix" values="0 0 0 0 0 0 0 0 0 0 0 0 0 0 0 0 0 0 127 0" result="hardAlpha"/>
<feOffset dy="-1"/>
<feComposite in2="hardAlpha" operator="out"/>
<feColorMatrix type="matrix" values="0 0 0 0 0.901961 0 0 0 0 0.901961 0 0 0 0 0.901961 0 0 0 1 0"/>
<feBlend mode="normal" in2="effect1_dropShadow_10033_98109" result="effect2_dropShadow_10033_98109"/>
<feBlend mode="normal" in="SourceGraphic" in2="effect2_dropShadow_10033_98109" result="shape"/>
</filter>
<filter id="filter4_dd_10033_98109" x="278" y="-37" width="522" height="66" filterUnits="userSpaceOnUse" color-interpolation-filters="sRGB">
<feFlood flood-opacity="0" result="BackgroundImageFix"/>
<feColorMatrix in="SourceAlpha" type="matrix" values="0 0 0 0 0 0 0 0 0 0 0 0 0 0 0 0 0 0 127 0" result="hardAlpha"/>
<feOffset dy="1"/>
<feComposite in2="hardAlpha" operator="out"/>
<feColorMatrix type="matrix" values="0 0 0 0 0.901961 0 0 0 0 0.901961 0 0 0 0 0.901961 0 0 0 1 0"/>
<feBlend mode="normal" in2="BackgroundImageFix" result="effect1_dropShadow_10033_98109"/>
<feColorMatrix in="SourceAlpha" type="matrix" values="0 0 0 0 0 0 0 0 0 0 0 0 0 0 0 0 0 0 127 0" result="hardAlpha"/>
<feOffset dy="-1"/>
<feComposite in2="hardAlpha" operator="out"/>
<feColorMatrix type="matrix" values="0 0 0 0 0.901961 0 0 0 0 0.901961 0 0 0 0 0.901961 0 0 0 1 0"/>
<feBlend mode="normal" in2="effect1_dropShadow_10033_98109" result="effect2_dropShadow_10033_98109"/>
<feBlend mode="normal" in="SourceGraphic" in2="effect2_dropShadow_10033_98109" result="shape"/>
</filter>
<filter id="filter5_dd_10033_98109" x="278" y="27" width="522" height="66" filterUnits="userSpaceOnUse" color-interpolation-filters="sRGB">
<feFlood flood-opacity="0" result="BackgroundImageFix"/>
<feColorMatrix in="SourceAlpha" type="matrix" values="0 0 0 0 0 0 0 0 0 0 0 0 0 0 0 0 0 0 127 0" result="hardAlpha"/>
<feOffset dy="1"/>
<feComposite in2="hardAlpha" operator="out"/>
<feColorMatrix type="matrix" values="0 0 0 0 0.901961 0 0 0 0 0.901961 0 0 0 0 0.901961 0 0 0 1 0"/>
<feBlend mode="normal" in2="BackgroundImageFix" result="effect1_dropShadow_10033_98109"/>
<feColorMatrix in="SourceAlpha" type="matrix" values="0 0 0 0 0 0 0 0 0 0 0 0 0 0 0 0 0 0 127 0" result="hardAlpha"/>
<feOffset dy="-1"/>
<feComposite in2="hardAlpha" operator="out"/>
<feColorMatrix type="matrix" values="0 0 0 0 0.901961 0 0 0 0 0.901961 0 0 0 0 0.901961 0 0 0 1 0"/>
<feBlend mode="normal" in2="effect1_dropShadow_10033_98109" result="effect2_dropShadow_10033_98109"/>
<feBlend mode="normal" in="SourceGraphic" in2="effect2_dropShadow_10033_98109" result="shape"/>
</filter>
<filter id="filter6_dd_10033_98109" x="278" y="91" width="522" height="66" filterUnits="userSpaceOnUse" color-interpolation-filters="sRGB">
<feFlood flood-opacity="0" result="BackgroundImageFix"/>
<feColorMatrix in="SourceAlpha" type="matrix" values="0 0 0 0 0 0 0 0 0 0 0 0 0 0 0 0 0 0 127 0" result="hardAlpha"/>
<feOffset dy="1"/>
<feComposite in2="hardAlpha" operator="out"/>
<feColorMatrix type="matrix" values="0 0 0 0 0.901961 0 0 0 0 0.901961 0 0 0 0 0.901961 0 0 0 1 0"/>
<feBlend mode="normal" in2="BackgroundImageFix" result="effect1_dropShadow_10033_98109"/>
<feColorMatrix in="SourceAlpha" type="matrix" values="0 0 0 0 0 0 0 0 0 0 0 0 0 0 0 0 0 0 127 0" result="hardAlpha"/>
<feOffset dy="-1"/>
<feComposite in2="hardAlpha" operator="out"/>
<feColorMatrix type="matrix" values="0 0 0 0 0.901961 0 0 0 0 0.901961 0 0 0 0 0.901961 0 0 0 1 0"/>
<feBlend mode="normal" in2="effect1_dropShadow_10033_98109" result="effect2_dropShadow_10033_98109"/>
<feBlend mode="normal" in="SourceGraphic" in2="effect2_dropShadow_10033_98109" result="shape"/>
</filter>
<filter id="filter7_dd_10033_98109" x="278" y="155" width="522" height="66" filterUnits="userSpaceOnUse" color-interpolation-filters="sRGB">
<feFlood flood-opacity="0" result="BackgroundImageFix"/>
<feColorMatrix in="SourceAlpha" type="matrix" values="0 0 0 0 0 0 0 0 0 0 0 0 0 0 0 0 0 0 127 0" result="hardAlpha"/>
<feOffset dy="1"/>
<feComposite in2="hardAlpha" operator="out"/>
<feColorMatrix type="matrix" values="0 0 0 0 0.901961 0 0 0 0 0.901961 0 0 0 0 0.901961 0 0 0 1 0"/>
<feBlend mode="normal" in2="BackgroundImageFix" result="effect1_dropShadow_10033_98109"/>
<feColorMatrix in="SourceAlpha" type="matrix" values="0 0 0 0 0 0 0 0 0 0 0 0 0 0 0 0 0 0 127 0" result="hardAlpha"/>
<feOffset dy="-1"/>
<feComposite in2="hardAlpha" operator="out"/>
<feColorMatrix type="matrix" values="0 0 0 0 0.901961 0 0 0 0 0.901961 0 0 0 0 0.901961 0 0 0 1 0"/>
<feBlend mode="normal" in2="effect1_dropShadow_10033_98109" result="effect2_dropShadow_10033_98109"/>
<feBlend mode="normal" in="SourceGraphic" in2="effect2_dropShadow_10033_98109" result="shape"/>
</filter>
<filter id="filter8_dd_10033_98109" x="678" y="-37" width="522" height="66" filterUnits="userSpaceOnUse" color-interpolation-filters="sRGB">
<feFlood flood-opacity="0" result="BackgroundImageFix"/>
<feColorMatrix in="SourceAlpha" type="matrix" values="0 0 0 0 0 0 0 0 0 0 0 0 0 0 0 0 0 0 127 0" result="hardAlpha"/>
<feOffset dy="1"/>
<feComposite in2="hardAlpha" operator="out"/>
<feColorMatrix type="matrix" values="0 0 0 0 0.901961 0 0 0 0 0.901961 0 0 0 0 0.901961 0 0 0 1 0"/>
<feBlend mode="normal" in2="BackgroundImageFix" result="effect1_dropShadow_10033_98109"/>
<feColorMatrix in="SourceAlpha" type="matrix" values="0 0 0 0 0 0 0 0 0 0 0 0 0 0 0 0 0 0 127 0" result="hardAlpha"/>
<feOffset dy="-1"/>
<feComposite in2="hardAlpha" operator="out"/>
<feColorMatrix type="matrix" values="0 0 0 0 0.901961 0 0 0 0 0.901961 0 0 0 0 0.901961 0 0 0 1 0"/>
<feBlend mode="normal" in2="effect1_dropShadow_10033_98109" result="effect2_dropShadow_10033_98109"/>
<feBlend mode="normal" in="SourceGraphic" in2="effect2_dropShadow_10033_98109" result="shape"/>
</filter>
<filter id="filter9_dd_10033_98109" x="678" y="27" width="522" height="66" filterUnits="userSpaceOnUse" color-interpolation-filters="sRGB">
<feFlood flood-opacity="0" result="BackgroundImageFix"/>
<feColorMatrix in="SourceAlpha" type="matrix" values="0 0 0 0 0 0 0 0 0 0 0 0 0 0 0 0 0 0 127 0" result="hardAlpha"/>
<feOffset dy="1"/>
<feComposite in2="hardAlpha" operator="out"/>
<feColorMatrix type="matrix" values="0 0 0 0 0.901961 0 0 0 0 0.901961 0 0 0 0 0.901961 0 0 0 1 0"/>
<feBlend mode="normal" in2="BackgroundImageFix" result="effect1_dropShadow_10033_98109"/>
<feColorMatrix in="SourceAlpha" type="matrix" values="0 0 0 0 0 0 0 0 0 0 0 0 0 0 0 0 0 0 127 0" result="hardAlpha"/>
<feOffset dy="-1"/>
<feComposite in2="hardAlpha" operator="out"/>
<feColorMatrix type="matrix" values="0 0 0 0 0.901961 0 0 0 0 0.901961 0 0 0 0 0.901961 0 0 0 1 0"/>
<feBlend mode="normal" in2="effect1_dropShadow_10033_98109" result="effect2_dropShadow_10033_98109"/>
<feBlend mode="normal" in="SourceGraphic" in2="effect2_dropShadow_10033_98109" result="shape"/>
</filter>
<filter id="filter10_dd_10033_98109" x="678" y="91" width="522" height="66" filterUnits="userSpaceOnUse" color-interpolation-filters="sRGB">
<feFlood flood-opacity="0" result="BackgroundImageFix"/>
<feColorMatrix in="SourceAlpha" type="matrix" values="0 0 0 0 0 0 0 0 0 0 0 0 0 0 0 0 0 0 127 0" result="hardAlpha"/>
<feOffset dy="1"/>
<feComposite in2="hardAlpha" operator="out"/>
<feColorMatrix type="matrix" values="0 0 0 0 0.901961 0 0 0 0 0.901961 0 0 0 0 0.901961 0 0 0 1 0"/>
<feBlend mode="normal" in2="BackgroundImageFix" result="effect1_dropShadow_10033_98109"/>
<feColorMatrix in="SourceAlpha" type="matrix" values="0 0 0 0 0 0 0 0 0 0 0 0 0 0 0 0 0 0 127 0" result="hardAlpha"/>
<feOffset dy="-1"/>
<feComposite in2="hardAlpha" operator="out"/>
<feColorMatrix type="matrix" values="0 0 0 0 0.901961 0 0 0 0 0.901961 0 0 0 0 0.901961 0 0 0 1 0"/>
<feBlend mode="normal" in2="effect1_dropShadow_10033_98109" result="effect2_dropShadow_10033_98109"/>
<feBlend mode="normal" in="SourceGraphic" in2="effect2_dropShadow_10033_98109" result="shape"/>
</filter>
<filter id="filter11_dd_10033_98109" x="678" y="155" width="522" height="66" filterUnits="userSpaceOnUse" color-interpolation-filters="sRGB">
<feFlood flood-opacity="0" result="BackgroundImageFix"/>
<feColorMatrix in="SourceAlpha" type="matrix" values="0 0 0 0 0 0 0 0 0 0 0 0 0 0 0 0 0 0 127 0" result="hardAlpha"/>
<feOffset dy="1"/>
<feComposite in2="hardAlpha" operator="out"/>
<feColorMatrix type="matrix" values="0 0 0 0 0.901961 0 0 0 0 0.901961 0 0 0 0 0.901961 0 0 0 1 0"/>
<feBlend mode="normal" in2="BackgroundImageFix" result="effect1_dropShadow_10033_98109"/>
<feColorMatrix in="SourceAlpha" type="matrix" values="0 0 0 0 0 0 0 0 0 0 0 0 0 0 0 0 0 0 127 0" result="hardAlpha"/>
<feOffset dy="-1"/>
<feComposite in2="hardAlpha" operator="out"/>
<feColorMatrix type="matrix" values="0 0 0 0 0.901961 0 0 0 0 0.901961 0 0 0 0 0.901961 0 0 0 1 0"/>
<feBlend mode="normal" in2="effect1_dropShadow_10033_98109" result="effect2_dropShadow_10033_98109"/>
<feBlend mode="normal" in="SourceGraphic" in2="effect2_dropShadow_10033_98109" result="shape"/>
</filter>
<linearGradient id="paint0_linear_10033_98109" x1="47.8326" y1="-26.0833" x2="225.816" y2="92.2704" gradientUnits="userSpaceOnUse">
<stop stop-color="#E6E6E6"/>
<stop offset="0.0452461" stop-color="#F5F5F5"/>
</linearGradient>
<linearGradient id="paint1_linear_10033_98109" x1="293.756" y1="-39.3334" x2="334.243" y2="-36.6677" gradientUnits="userSpaceOnUse">
<stop stop-color="#E6E6E6"/>
<stop offset="0.0452461" stop-color="#F5F5F5"/>
</linearGradient>
<linearGradient id="paint2_linear_10033_98109" x1="333.756" y1="-39.3334" x2="374.243" y2="-36.6677" gradientUnits="userSpaceOnUse">
<stop stop-color="#E6E6E6"/>
<stop offset="0.0452461" stop-color="#F5F5F5"/>
</linearGradient>
<linearGradient id="paint3_linear_10033_98109" x1="47.8326" y1="37.9167" x2="225.816" y2="156.27" gradientUnits="userSpaceOnUse">
<stop stop-color="#E6E6E6"/>
<stop offset="0.0452461" stop-color="#F5F5F5"/>
</linearGradient>
<linearGradient id="paint4_linear_10033_98109" x1="293.756" y1="24.6666" x2="334.243" y2="27.3323" gradientUnits="userSpaceOnUse">
<stop stop-color="#E6E6E6"/>
<stop offset="0.0452461" stop-color="#F5F5F5"/>
</linearGradient>
<linearGradient id="paint5_linear_10033_98109" x1="333.756" y1="24.6666" x2="374.243" y2="27.3323" gradientUnits="userSpaceOnUse">
<stop stop-color="#E6E6E6"/>
<stop offset="0.0452461" stop-color="#F5F5F5"/>
</linearGradient>
<linearGradient id="paint6_linear_10033_98109" x1="47.8326" y1="101.917" x2="225.816" y2="220.27" gradientUnits="userSpaceOnUse">
<stop stop-color="#E6E6E6"/>
<stop offset="0.0452461" stop-color="#F5F5F5"/>
</linearGradient>
<linearGradient id="paint7_linear_10033_98109" x1="293.756" y1="88.6666" x2="334.243" y2="91.3323" gradientUnits="userSpaceOnUse">
<stop stop-color="#E6E6E6"/>
<stop offset="0.0452461" stop-color="#F5F5F5"/>
</linearGradient>
<linearGradient id="paint8_linear_10033_98109" x1="333.756" y1="88.6666" x2="374.243" y2="91.3323" gradientUnits="userSpaceOnUse">
<stop stop-color="#E6E6E6"/>
<stop offset="0.0452461" stop-color="#F5F5F5"/>
</linearGradient>
<linearGradient id="paint9_linear_10033_98109" x1="47.8326" y1="165.917" x2="225.816" y2="284.27" gradientUnits="userSpaceOnUse">
<stop stop-color="#E6E6E6"/>
<stop offset="0.0452461" stop-color="#F5F5F5"/>
</linearGradient>
<linearGradient id="paint10_linear_10033_98109" x1="293.756" y1="152.667" x2="334.243" y2="155.332" gradientUnits="userSpaceOnUse">
<stop stop-color="#E6E6E6"/>
<stop offset="0.0452461" stop-color="#F5F5F5"/>
</linearGradient>
<linearGradient id="paint11_linear_10033_98109" x1="333.756" y1="152.667" x2="374.243" y2="155.332" gradientUnits="userSpaceOnUse">
<stop stop-color="#E6E6E6"/>
<stop offset="0.0452461" stop-color="#F5F5F5"/>
</linearGradient>
<linearGradient id="paint12_linear_10033_98109" x1="447.833" y1="-26.0833" x2="625.816" y2="92.2704" gradientUnits="userSpaceOnUse">
<stop stop-color="#E6E6E6"/>
<stop offset="0.0452461" stop-color="#F5F5F5"/>
</linearGradient>
<linearGradient id="paint13_linear_10033_98109" x1="693.756" y1="-39.3334" x2="734.243" y2="-36.6677" gradientUnits="userSpaceOnUse">
<stop stop-color="#E6E6E6"/>
<stop offset="0.0452461" stop-color="#F5F5F5"/>
</linearGradient>
<linearGradient id="paint14_linear_10033_98109" x1="733.756" y1="-39.3334" x2="774.243" y2="-36.6677" gradientUnits="userSpaceOnUse">
<stop stop-color="#E6E6E6"/>
<stop offset="0.0452461" stop-color="#F5F5F5"/>
</linearGradient>
<linearGradient id="paint15_linear_10033_98109" x1="447.833" y1="37.9167" x2="625.816" y2="156.27" gradientUnits="userSpaceOnUse">
<stop stop-color="#E6E6E6"/>
<stop offset="0.0452461" stop-color="#F5F5F5"/>
</linearGradient>
<linearGradient id="paint16_linear_10033_98109" x1="693.756" y1="24.6666" x2="734.243" y2="27.3323" gradientUnits="userSpaceOnUse">
<stop stop-color="#E6E6E6"/>
<stop offset="0.0452461" stop-color="#F5F5F5"/>
</linearGradient>
<linearGradient id="paint17_linear_10033_98109" x1="733.756" y1="24.6666" x2="774.243" y2="27.3323" gradientUnits="userSpaceOnUse">
<stop stop-color="#E6E6E6"/>
<stop offset="0.0452461" stop-color="#F5F5F5"/>
</linearGradient>
<linearGradient id="paint18_linear_10033_98109" x1="447.833" y1="101.917" x2="625.816" y2="220.27" gradientUnits="userSpaceOnUse">
<stop stop-color="#E6E6E6"/>
<stop offset="0.0452461" stop-color="#F5F5F5"/>
</linearGradient>
<linearGradient id="paint19_linear_10033_98109" x1="693.756" y1="88.6666" x2="734.243" y2="91.3323" gradientUnits="userSpaceOnUse">
<stop stop-color="#E6E6E6"/>
<stop offset="0.0452461" stop-color="#F5F5F5"/>
</linearGradient>
<linearGradient id="paint20_linear_10033_98109" x1="733.756" y1="88.6666" x2="774.243" y2="91.3323" gradientUnits="userSpaceOnUse">
<stop stop-color="#E6E6E6"/>
<stop offset="0.0452461" stop-color="#F5F5F5"/>
</linearGradient>
<linearGradient id="paint21_linear_10033_98109" x1="447.833" y1="165.917" x2="625.816" y2="284.27" gradientUnits="userSpaceOnUse">
<stop stop-color="#E6E6E6"/>
<stop offset="0.0452461" stop-color="#F5F5F5"/>
</linearGradient>
<linearGradient id="paint22_linear_10033_98109" x1="693.756" y1="152.667" x2="734.243" y2="155.332" gradientUnits="userSpaceOnUse">
<stop stop-color="#E6E6E6"/>
<stop offset="0.0452461" stop-color="#F5F5F5"/>
</linearGradient>
<linearGradient id="paint23_linear_10033_98109" x1="733.756" y1="152.667" x2="774.243" y2="155.332" gradientUnits="userSpaceOnUse">
<stop stop-color="#E6E6E6"/>
<stop offset="0.0452461" stop-color="#F5F5F5"/>
</linearGradient>
<linearGradient id="paint24_linear_10033_98109" x1="847.833" y1="-26.0833" x2="1025.82" y2="92.2704" gradientUnits="userSpaceOnUse">
<stop stop-color="#E6E6E6"/>
<stop offset="0.0452461" stop-color="#F5F5F5"/>
</linearGradient>
<linearGradient id="paint25_linear_10033_98109" x1="1093.76" y1="-39.3334" x2="1134.24" y2="-36.6677" gradientUnits="userSpaceOnUse">
<stop stop-color="#E6E6E6"/>
<stop offset="0.0452461" stop-color="#F5F5F5"/>
</linearGradient>
<linearGradient id="paint26_linear_10033_98109" x1="1133.76" y1="-39.3334" x2="1174.24" y2="-36.6677" gradientUnits="userSpaceOnUse">
<stop stop-color="#E6E6E6"/>
<stop offset="0.0452461" stop-color="#F5F5F5"/>
</linearGradient>
<linearGradient id="paint27_linear_10033_98109" x1="847.833" y1="37.9167" x2="1025.82" y2="156.27" gradientUnits="userSpaceOnUse">
<stop stop-color="#E6E6E6"/>
<stop offset="0.0452461" stop-color="#F5F5F5"/>
</linearGradient>
<linearGradient id="paint28_linear_10033_98109" x1="1093.76" y1="24.6666" x2="1134.24" y2="27.3323" gradientUnits="userSpaceOnUse">
<stop stop-color="#E6E6E6"/>
<stop offset="0.0452461" stop-color="#F5F5F5"/>
</linearGradient>
<linearGradient id="paint29_linear_10033_98109" x1="1133.76" y1="24.6666" x2="1174.24" y2="27.3323" gradientUnits="userSpaceOnUse">
<stop stop-color="#E6E6E6"/>
<stop offset="0.0452461" stop-color="#F5F5F5"/>
</linearGradient>
<linearGradient id="paint30_linear_10033_98109" x1="847.833" y1="101.917" x2="1025.82" y2="220.27" gradientUnits="userSpaceOnUse">
<stop stop-color="#E6E6E6"/>
<stop offset="0.0452461" stop-color="#F5F5F5"/>
</linearGradient>
<linearGradient id="paint31_linear_10033_98109" x1="1093.76" y1="88.6666" x2="1134.24" y2="91.3323" gradientUnits="userSpaceOnUse">
<stop stop-color="#E6E6E6"/>
<stop offset="0.0452461" stop-color="#F5F5F5"/>
</linearGradient>
<linearGradient id="paint32_linear_10033_98109" x1="1133.76" y1="88.6666" x2="1174.24" y2="91.3323" gradientUnits="userSpaceOnUse">
<stop stop-color="#E6E6E6"/>
<stop offset="0.0452461" stop-color="#F5F5F5"/>
</linearGradient>
<linearGradient id="paint33_linear_10033_98109" x1="847.833" y1="165.917" x2="1025.82" y2="284.27" gradientUnits="userSpaceOnUse">
<stop stop-color="#E6E6E6"/>
<stop offset="0.0452461" stop-color="#F5F5F5"/>
</linearGradient>
<linearGradient id="paint34_linear_10033_98109" x1="1093.76" y1="152.667" x2="1134.24" y2="155.332" gradientUnits="userSpaceOnUse">
<stop stop-color="#E6E6E6"/>
<stop offset="0.0452461" stop-color="#F5F5F5"/>
</linearGradient>
<linearGradient id="paint35_linear_10033_98109" x1="1133.76" y1="152.667" x2="1174.24" y2="155.332" gradientUnits="userSpaceOnUse">
<stop stop-color="#E6E6E6"/>
<stop offset="0.0452461" stop-color="#F5F5F5"/>
</linearGradient>
<clipPath id="clip0_10033_98109">
<rect width="1240" height="380" rx="16" fill="white"/>
</clipPath>
<clipPath id="clip1_10033_98109">
<path d="M40 -28C40 -32.4183 43.5817 -36 48 -36H392C396.418 -36 400 -32.4183 400 -28V292C400 296.418 396.418 300 392 300H48C43.5817 300 40 296.418 40 292V-28Z" fill="white"/>
</clipPath>
<clipPath id="clip2_10033_98109">
<path d="M440 -28C440 -32.4183 443.582 -36 448 -36H792C796.418 -36 800 -32.4183 800 -28V292C800 296.418 796.418 300 792 300H448C443.582 300 440 296.418 440 292V-28Z" fill="white"/>
</clipPath>
<clipPath id="clip3_10033_98109">
<path d="M840 -28C840 -32.4183 843.582 -36 848 -36H1192C1196.42 -36 1200 -32.4183 1200 -28V292C1200 296.418 1196.42 300 1192 300H848C843.582 300 840 296.418 840 292V-28Z" fill="white"/>
</clipPath>
</defs>
</svg>
