<svg width="1280" height="176" viewBox="0 0 1280 176" fill="none" xmlns="http://www.w3.org/2000/svg">
<g clip-path="url(#clip0_13264_3073)">
<rect x="-0.5" y="-0.5" width="641" height="177" fill="white"/>
<rect x="-0.5" y="-0.5" width="641" height="177" stroke="#E6E6E6"/>
<rect width="640" height="44" fill="#F8F8F8"/>
<path d="M37.8018 23.6196C37.8018 23.4292 37.7721 23.2599 37.7129 23.1118C37.6579 22.9637 37.5584 22.8283 37.4146 22.7056C37.2707 22.5828 37.0675 22.4644 36.8052 22.3501C36.547 22.2316 36.217 22.111 35.8149 21.9883C35.3748 21.8529 34.9686 21.7026 34.5962 21.5376C34.228 21.3683 33.9064 21.1737 33.6313 20.9536C33.3563 20.7293 33.1426 20.4733 32.9902 20.1855C32.8379 19.8936 32.7617 19.5571 32.7617 19.1763C32.7617 18.7996 32.84 18.4569 32.9966 18.1479C33.1574 17.839 33.3838 17.5724 33.6758 17.3481C33.972 17.1196 34.3211 16.944 34.7231 16.8213C35.1252 16.6943 35.5695 16.6309 36.0562 16.6309C36.7417 16.6309 37.332 16.7578 37.8271 17.0117C38.3265 17.2656 38.7095 17.6063 38.9761 18.0337C39.2469 18.4611 39.3823 18.9329 39.3823 19.4492H37.8018C37.8018 19.1445 37.7362 18.8758 37.605 18.6431C37.478 18.4061 37.2834 18.2199 37.021 18.0845C36.7629 17.9491 36.4349 17.8813 36.0371 17.8813C35.6605 17.8813 35.3473 17.9385 35.0977 18.0527C34.848 18.167 34.6618 18.3215 34.5391 18.5161C34.4163 18.7108 34.355 18.9308 34.355 19.1763C34.355 19.3498 34.3952 19.5085 34.4756 19.6523C34.556 19.792 34.6787 19.9232 34.8438 20.0459C35.0088 20.1644 35.2161 20.2765 35.4658 20.3823C35.7155 20.4881 36.0096 20.5897 36.3481 20.687C36.8602 20.8394 37.3066 21.0086 37.6875 21.1948C38.0684 21.3768 38.3857 21.5841 38.6396 21.8169C38.8936 22.0496 39.084 22.3141 39.2109 22.6104C39.3379 22.9023 39.4014 23.2345 39.4014 23.6069C39.4014 23.9963 39.3231 24.3475 39.1665 24.6606C39.0099 24.9696 38.7856 25.234 38.4937 25.4541C38.2059 25.6699 37.8589 25.8371 37.4526 25.9556C37.0506 26.0698 36.6021 26.127 36.1069 26.127C35.6626 26.127 35.2246 26.0677 34.793 25.9492C34.3656 25.8307 33.9762 25.6509 33.625 25.4097C33.2738 25.1642 32.9945 24.8595 32.7871 24.4956C32.5798 24.1274 32.4761 23.6979 32.4761 23.207H34.0693C34.0693 23.5075 34.1201 23.7635 34.2217 23.9751C34.3275 24.1867 34.4735 24.3602 34.6597 24.4956C34.8459 24.6268 35.0617 24.7241 35.3071 24.7876C35.5568 24.8511 35.8234 24.8828 36.1069 24.8828C36.4793 24.8828 36.7904 24.8299 37.04 24.7241C37.2939 24.6183 37.4844 24.4702 37.6113 24.2798C37.7383 24.0894 37.8018 23.8693 37.8018 23.6196ZM43.5117 16.7578V26H41.9185V16.7578H43.5117ZM53.8237 16.7578V26H52.2305L48.0854 19.3794V26H46.4922V16.7578H48.0854L52.2432 23.3911V16.7578H53.8237ZM63.8184 21.2773V24.8066C63.6872 24.9801 63.4819 25.1706 63.2026 25.3779C62.9276 25.5811 62.5615 25.7567 62.1045 25.9048C61.6475 26.0529 61.0783 26.127 60.397 26.127C59.8172 26.127 59.2861 26.0296 58.8037 25.835C58.3213 25.6361 57.9045 25.3462 57.5532 24.9653C57.2062 24.5845 56.9375 24.1211 56.7471 23.5752C56.5566 23.0251 56.4614 22.3988 56.4614 21.6963V21.0552C56.4614 20.3569 56.5482 19.7349 56.7217 19.189C56.8994 18.6388 57.1533 18.1733 57.4834 17.7925C57.8135 17.4116 58.2113 17.1239 58.6768 16.9292C59.1465 16.7303 59.6776 16.6309 60.27 16.6309C61.0275 16.6309 61.6538 16.7578 62.1489 17.0117C62.6483 17.2614 63.0334 17.6084 63.3042 18.0527C63.575 18.4971 63.7464 19.0049 63.8184 19.5762H62.2568C62.2061 19.2546 62.1066 18.9668 61.9585 18.7129C61.8146 18.459 61.6073 18.2601 61.3364 18.1162C61.0698 17.9681 60.7228 17.894 60.2954 17.894C59.9272 17.894 59.6035 17.9639 59.3242 18.1035C59.0449 18.2432 58.8122 18.4484 58.626 18.7192C58.444 18.9901 58.3065 19.3201 58.2134 19.7095C58.1203 20.0988 58.0737 20.5431 58.0737 21.0425V21.6963C58.0737 22.2041 58.1266 22.6548 58.2324 23.0483C58.3424 23.4419 58.499 23.7741 58.7021 24.0449C58.9095 24.3158 59.1613 24.521 59.4575 24.6606C59.7537 24.7961 60.0881 24.8638 60.4604 24.8638C60.8244 24.8638 61.1227 24.8341 61.3555 24.7749C61.5882 24.7114 61.7723 24.6374 61.9077 24.5527C62.0474 24.4639 62.1553 24.3792 62.2314 24.2988V22.4644H60.3081V21.2773H63.8184ZM72.3721 24.7368V26H67.7319V24.7368H72.3721ZM68.1763 16.7578V26H66.583V16.7578H68.1763ZM80.6528 24.7368V26H75.7461V24.7368H80.6528ZM76.1968 16.7578V26H74.6035V16.7578H76.1968ZM80.0117 20.6172V21.8613H75.7461V20.6172H80.0117ZM80.6211 16.7578V18.0273H75.7461V16.7578H80.6211ZM92.0537 23.6196C92.0537 23.4292 92.0241 23.2599 91.9648 23.1118C91.9098 22.9637 91.8104 22.8283 91.6665 22.7056C91.5226 22.5828 91.3195 22.4644 91.0571 22.3501C90.799 22.2316 90.4689 22.111 90.0669 21.9883C89.6268 21.8529 89.2205 21.7026 88.8481 21.5376C88.48 21.3683 88.1584 21.1737 87.8833 20.9536C87.6082 20.7293 87.3945 20.4733 87.2422 20.1855C87.0898 19.8936 87.0137 19.5571 87.0137 19.1763C87.0137 18.7996 87.092 18.4569 87.2485 18.1479C87.4093 17.839 87.6357 17.5724 87.9277 17.3481C88.224 17.1196 88.5731 16.944 88.9751 16.8213C89.3771 16.6943 89.8215 16.6309 90.3081 16.6309C90.9937 16.6309 91.584 16.7578 92.0791 17.0117C92.5785 17.2656 92.9614 17.6063 93.228 18.0337C93.4989 18.4611 93.6343 18.9329 93.6343 19.4492H92.0537C92.0537 19.1445 91.9881 18.8758 91.8569 18.6431C91.73 18.4061 91.5353 18.2199 91.2729 18.0845C91.0148 17.9491 90.6868 17.8813 90.2891 17.8813C89.9124 17.8813 89.5993 17.9385 89.3496 18.0527C89.0999 18.167 88.9137 18.3215 88.791 18.5161C88.6683 18.7108 88.6069 18.9308 88.6069 19.1763C88.6069 19.3498 88.6471 19.5085 88.7275 19.6523C88.8079 19.792 88.9307 19.9232 89.0957 20.0459C89.2607 20.1644 89.4681 20.2765 89.7178 20.3823C89.9674 20.4881 90.2616 20.5897 90.6001 20.687C91.1121 20.8394 91.5586 21.0086 91.9395 21.1948C92.3203 21.3768 92.6377 21.5841 92.8916 21.8169C93.1455 22.0496 93.3359 22.3141 93.4629 22.6104C93.5898 22.9023 93.6533 23.2345 93.6533 23.6069C93.6533 23.9963 93.575 24.3475 93.4185 24.6606C93.2619 24.9696 93.0376 25.234 92.7456 25.4541C92.4578 25.6699 92.1108 25.8371 91.7046 25.9556C91.3026 26.0698 90.854 26.127 90.3589 26.127C89.9146 26.127 89.4766 26.0677 89.0449 25.9492C88.6175 25.8307 88.2282 25.6509 87.877 25.4097C87.5257 25.1642 87.2464 24.8595 87.0391 24.4956C86.8317 24.1274 86.728 23.6979 86.728 23.207H88.3213C88.3213 23.5075 88.3721 23.7635 88.4736 23.9751C88.5794 24.1867 88.7254 24.3602 88.9116 24.4956C89.0978 24.6268 89.3136 24.7241 89.5591 24.7876C89.8088 24.8511 90.0754 24.8828 90.3589 24.8828C90.7313 24.8828 91.0423 24.8299 91.292 24.7241C91.5459 24.6183 91.7363 24.4702 91.8633 24.2798C91.9902 24.0894 92.0537 23.8693 92.0537 23.6196ZM102.112 24.7368V26H97.2051V24.7368H102.112ZM97.6558 16.7578V26H96.0625V16.7578H97.6558ZM101.471 20.6172V21.8613H97.2051V20.6172H101.471ZM102.08 16.7578V18.0273H97.2051V16.7578H102.08ZM110.202 24.7368V26H105.562V24.7368H110.202ZM106.006 16.7578V26H104.413V16.7578H106.006ZM118.483 24.7368V26H113.576V24.7368H118.483ZM114.027 16.7578V26H112.434V16.7578H114.027ZM117.842 20.6172V21.8613H113.576V20.6172H117.842ZM118.451 16.7578V18.0273H113.576V16.7578H118.451ZM126.243 22.9912H127.83C127.779 23.5964 127.61 24.1359 127.322 24.6099C127.035 25.0796 126.63 25.4499 126.11 25.7207C125.589 25.9915 124.957 26.127 124.212 26.127C123.641 26.127 123.126 26.0254 122.669 25.8223C122.212 25.6149 121.821 25.3229 121.495 24.9463C121.169 24.5654 120.92 24.1063 120.746 23.5688C120.577 23.0314 120.492 22.4305 120.492 21.7661V20.998C120.492 20.3337 120.579 19.7327 120.752 19.1953C120.93 18.6579 121.184 18.1987 121.514 17.8179C121.844 17.4328 122.24 17.1387 122.701 16.9355C123.167 16.7324 123.689 16.6309 124.269 16.6309C125.005 16.6309 125.627 16.7663 126.135 17.0371C126.643 17.3079 127.037 17.6825 127.316 18.1606C127.599 18.6388 127.773 19.1868 127.836 19.8047H126.25C126.207 19.4069 126.114 19.0662 125.97 18.7827C125.831 18.4992 125.623 18.2834 125.348 18.1353C125.073 17.9829 124.713 17.9067 124.269 17.9067C123.905 17.9067 123.588 17.9744 123.317 18.1099C123.046 18.2453 122.82 18.4442 122.638 18.7065C122.456 18.9689 122.318 19.2926 122.225 19.6777C122.136 20.0586 122.092 20.4945 122.092 20.9854V21.7661C122.092 22.2316 122.132 22.6548 122.212 23.0356C122.297 23.4123 122.424 23.736 122.593 24.0068C122.767 24.2777 122.987 24.4871 123.253 24.6353C123.52 24.7834 123.84 24.8574 124.212 24.8574C124.665 24.8574 125.031 24.7855 125.31 24.6416C125.594 24.4977 125.807 24.2882 125.951 24.0132C126.099 23.7339 126.197 23.3932 126.243 22.9912ZM133.889 16.7578V26H132.309V16.7578H133.889ZM136.79 16.7578V18.0273H129.433V16.7578H136.79ZM145.868 21.4424V22.6611H142.51V21.4424H145.868ZM158.056 22.9912H159.643C159.592 23.5964 159.423 24.1359 159.135 24.6099C158.847 25.0796 158.443 25.4499 157.922 25.7207C157.402 25.9915 156.769 26.127 156.024 26.127C155.453 26.127 154.939 26.0254 154.482 25.8223C154.025 25.6149 153.633 25.3229 153.308 24.9463C152.982 24.5654 152.732 24.1063 152.559 23.5688C152.389 23.0314 152.305 22.4305 152.305 21.7661V20.998C152.305 20.3337 152.391 19.7327 152.565 19.1953C152.743 18.6579 152.997 18.1987 153.327 17.8179C153.657 17.4328 154.052 17.1387 154.514 16.9355C154.979 16.7324 155.502 16.6309 156.082 16.6309C156.818 16.6309 157.44 16.7663 157.948 17.0371C158.456 17.3079 158.849 17.6825 159.128 18.1606C159.412 18.6388 159.585 19.1868 159.649 19.8047H158.062C158.02 19.4069 157.927 19.0662 157.783 18.7827C157.643 18.4992 157.436 18.2834 157.161 18.1353C156.886 17.9829 156.526 17.9067 156.082 17.9067C155.718 17.9067 155.4 17.9744 155.129 18.1099C154.859 18.2453 154.632 18.4442 154.45 18.7065C154.268 18.9689 154.131 19.2926 154.038 19.6777C153.949 20.0586 153.904 20.4945 153.904 20.9854V21.7661C153.904 22.2316 153.944 22.6548 154.025 23.0356C154.11 23.4123 154.236 23.736 154.406 24.0068C154.579 24.2777 154.799 24.4871 155.066 24.6353C155.333 24.7834 155.652 24.8574 156.024 24.8574C156.477 24.8574 156.843 24.7855 157.123 24.6416C157.406 24.4977 157.62 24.2882 157.764 24.0132C157.912 23.7339 158.009 23.3932 158.056 22.9912ZM167.879 24.7368V26H163.239V24.7368H167.879ZM163.683 16.7578V26H162.09V16.7578H163.683ZM176.16 24.7368V26H171.253V24.7368H176.16ZM171.704 16.7578V26H170.11V16.7578H171.704ZM175.519 20.6172V21.8613H171.253V20.6172H175.519ZM176.128 16.7578V18.0273H171.253V16.7578H176.128ZM182.06 17.9893L179.299 26H177.629L181.108 16.7578H182.174L182.06 17.9893ZM184.371 26L181.603 17.9893L181.482 16.7578H182.555L186.046 26H184.371ZM184.237 22.5723V23.8354H179.21V22.5723H184.237ZM188.081 16.7578H191.35C192.053 16.7578 192.651 16.8636 193.146 17.0752C193.642 17.2868 194.02 17.5999 194.283 18.0146C194.549 18.4251 194.683 18.9329 194.683 19.5381C194.683 19.9993 194.598 20.4056 194.429 20.7568C194.259 21.1081 194.02 21.4043 193.711 21.6455C193.403 21.8825 193.034 22.0666 192.607 22.1978L192.125 22.4326H189.186L189.173 21.1694H191.375C191.756 21.1694 192.074 21.1017 192.328 20.9663C192.582 20.8309 192.772 20.6468 192.899 20.4141C193.03 20.1771 193.096 19.9105 193.096 19.6143C193.096 19.2926 193.032 19.0133 192.905 18.7764C192.783 18.5352 192.592 18.3511 192.334 18.2241C192.076 18.0929 191.748 18.0273 191.35 18.0273H189.674V26H188.081V16.7578ZM193.356 26L191.185 21.8486L192.854 21.8423L195.057 25.9175V26H193.356Z" fill="#505050"/>
<path d="M38.6943 90.2534C38.6943 90.0337 38.6602 89.8384 38.5918 89.6675C38.5283 89.4966 38.4136 89.3403 38.2476 89.1987C38.0815 89.0571 37.8472 88.9204 37.5444 88.7886C37.2466 88.6519 36.8657 88.5127 36.4019 88.3711C35.894 88.2148 35.4253 88.0415 34.9956 87.8511C34.5708 87.6558 34.1997 87.4312 33.8823 87.1772C33.5649 86.9185 33.3184 86.623 33.1426 86.291C32.9668 85.9541 32.8789 85.5659 32.8789 85.1265C32.8789 84.6919 32.9692 84.2964 33.1499 83.9399C33.3354 83.5835 33.5967 83.2759 33.9336 83.0171C34.2754 82.7534 34.6782 82.5508 35.1421 82.4092C35.606 82.2627 36.1187 82.1895 36.6802 82.1895C37.4712 82.1895 38.1523 82.3359 38.7236 82.6289C39.2998 82.9219 39.7417 83.3149 40.0493 83.8081C40.3618 84.3013 40.5181 84.8457 40.5181 85.4414H38.6943C38.6943 85.0898 38.6187 84.7798 38.4673 84.5112C38.3208 84.2378 38.0962 84.0229 37.7935 83.8667C37.4956 83.7104 37.1172 83.6323 36.6582 83.6323C36.2236 83.6323 35.8623 83.6982 35.5742 83.8301C35.2861 83.9619 35.0713 84.1401 34.9297 84.3647C34.7881 84.5894 34.7173 84.8433 34.7173 85.1265C34.7173 85.3267 34.7637 85.5098 34.8564 85.6758C34.9492 85.8369 35.0908 85.9883 35.2812 86.1299C35.4717 86.2666 35.7109 86.396 35.999 86.5181C36.2871 86.6401 36.6265 86.7573 37.0171 86.8696C37.6079 87.0454 38.123 87.2407 38.5625 87.4556C39.002 87.6655 39.3682 87.9048 39.6611 88.1733C39.9541 88.4419 40.1738 88.7471 40.3203 89.0889C40.4668 89.4258 40.54 89.8091 40.54 90.2388C40.54 90.688 40.4497 91.0933 40.269 91.4546C40.0884 91.811 39.8296 92.1162 39.4927 92.3701C39.1606 92.6191 38.7603 92.812 38.2915 92.9487C37.8276 93.0806 37.3101 93.1465 36.7388 93.1465C36.2261 93.1465 35.7207 93.0781 35.2227 92.9414C34.7295 92.8047 34.2803 92.5972 33.875 92.3188C33.4697 92.0356 33.1475 91.6841 32.9082 91.2642C32.6689 90.8394 32.5493 90.3438 32.5493 89.7773H34.3877C34.3877 90.124 34.4463 90.4194 34.5635 90.6636C34.6855 90.9077 34.854 91.1079 35.0688 91.2642C35.2837 91.4155 35.5327 91.5278 35.8159 91.6011C36.104 91.6743 36.4116 91.7109 36.7388 91.7109C37.1685 91.7109 37.5273 91.6499 37.8154 91.5278C38.1084 91.4058 38.3281 91.2349 38.4746 91.0151C38.6211 90.7954 38.6943 90.5415 38.6943 90.2534ZM45.4839 93.1465C44.8979 93.1465 44.3682 93.0513 43.8945 92.8608C43.4258 92.6655 43.0254 92.3945 42.6934 92.0479C42.3662 91.7012 42.1147 91.2935 41.939 90.8247C41.7632 90.356 41.6753 89.8506 41.6753 89.3086V89.0156C41.6753 88.3955 41.7656 87.834 41.9463 87.3311C42.127 86.8281 42.3784 86.3984 42.7007 86.042C43.0229 85.6807 43.4038 85.4048 43.8433 85.2144C44.2827 85.0239 44.7588 84.9287 45.2715 84.9287C45.8379 84.9287 46.3335 85.0239 46.7583 85.2144C47.1831 85.4048 47.5347 85.6733 47.813 86.02C48.0962 86.3618 48.3062 86.7695 48.4429 87.2432C48.5845 87.7168 48.6553 88.2393 48.6553 88.8105V89.5649H42.5322V88.2979H46.9121V88.1587C46.9023 87.8413 46.8389 87.5435 46.7217 87.2651C46.6094 86.9868 46.436 86.7622 46.2017 86.5913C45.9673 86.4204 45.6548 86.335 45.2642 86.335C44.9712 86.335 44.71 86.3984 44.4805 86.5254C44.2559 86.6475 44.0679 86.8257 43.9165 87.0601C43.7651 87.2944 43.6479 87.5776 43.5649 87.9097C43.4868 88.2368 43.4478 88.6055 43.4478 89.0156V89.3086C43.4478 89.6553 43.4941 89.9775 43.5869 90.2754C43.6846 90.5684 43.8262 90.8247 44.0117 91.0444C44.1973 91.2642 44.4219 91.4375 44.6855 91.5645C44.9492 91.6865 45.2495 91.7476 45.5864 91.7476C46.0112 91.7476 46.3896 91.6621 46.7217 91.4912C47.0537 91.3203 47.3418 91.0786 47.5859 90.7661L48.5161 91.667C48.3452 91.916 48.123 92.1553 47.8496 92.3848C47.5762 92.6094 47.2417 92.7925 46.8462 92.9341C46.4556 93.0757 46.0015 93.1465 45.4839 93.1465ZM51.9219 81.75V93H50.1494V81.75H51.9219ZM57.3491 93.1465C56.7632 93.1465 56.2334 93.0513 55.7598 92.8608C55.291 92.6655 54.8906 92.3945 54.5586 92.0479C54.2314 91.7012 53.98 91.2935 53.8042 90.8247C53.6284 90.356 53.5405 89.8506 53.5405 89.3086V89.0156C53.5405 88.3955 53.6309 87.834 53.8115 87.3311C53.9922 86.8281 54.2437 86.3984 54.5659 86.042C54.8882 85.6807 55.269 85.4048 55.7085 85.2144C56.1479 85.0239 56.624 84.9287 57.1367 84.9287C57.7031 84.9287 58.1987 85.0239 58.6235 85.2144C59.0483 85.4048 59.3999 85.6733 59.6782 86.02C59.9614 86.3618 60.1714 86.7695 60.3081 87.2432C60.4497 87.7168 60.5205 88.2393 60.5205 88.8105V89.5649H54.3975V88.2979H58.7773V88.1587C58.7676 87.8413 58.7041 87.5435 58.5869 87.2651C58.4746 86.9868 58.3013 86.7622 58.0669 86.5913C57.8325 86.4204 57.52 86.335 57.1294 86.335C56.8364 86.335 56.5752 86.3984 56.3457 86.5254C56.1211 86.6475 55.9331 86.8257 55.7817 87.0601C55.6304 87.2944 55.5132 87.5776 55.4302 87.9097C55.3521 88.2368 55.313 88.6055 55.313 89.0156V89.3086C55.313 89.6553 55.3594 89.9775 55.4521 90.2754C55.5498 90.5684 55.6914 90.8247 55.877 91.0444C56.0625 91.2642 56.2871 91.4375 56.5508 91.5645C56.8145 91.6865 57.1147 91.7476 57.4517 91.7476C57.8765 91.7476 58.2549 91.6621 58.5869 91.4912C58.9189 91.3203 59.207 91.0786 59.4512 90.7661L60.3813 91.667C60.2104 91.916 59.9883 92.1553 59.7148 92.3848C59.4414 92.6094 59.1069 92.7925 58.7114 92.9341C58.3208 93.0757 57.8667 93.1465 57.3491 93.1465ZM65.1348 91.7402C65.4229 91.7402 65.6816 91.6841 65.9111 91.5718C66.1455 91.4546 66.3335 91.2935 66.4751 91.0884C66.6216 90.8833 66.7021 90.6465 66.7168 90.3779H68.3794C68.3696 90.8906 68.2183 91.3569 67.9253 91.7769C67.6323 92.1968 67.2441 92.5312 66.7607 92.7803C66.2773 93.0244 65.7427 93.1465 65.1567 93.1465C64.5513 93.1465 64.0239 93.0439 63.5747 92.8389C63.1255 92.6289 62.752 92.3408 62.4541 91.9746C62.1562 91.6084 61.9316 91.186 61.7803 90.7075C61.6338 90.229 61.5605 89.7163 61.5605 89.1694V88.9131C61.5605 88.3662 61.6338 87.8535 61.7803 87.375C61.9316 86.8916 62.1562 86.4668 62.4541 86.1006C62.752 85.7344 63.1255 85.4487 63.5747 85.2437C64.0239 85.0337 64.5488 84.9287 65.1494 84.9287C65.7842 84.9287 66.3408 85.0557 66.8193 85.3096C67.2979 85.5586 67.6738 85.9077 67.9473 86.3569C68.2256 86.8013 68.3696 87.3188 68.3794 87.9097H66.7168C66.7021 87.6167 66.6289 87.353 66.4971 87.1187C66.3701 86.8794 66.1895 86.689 65.9551 86.5474C65.7256 86.4058 65.4497 86.335 65.1274 86.335C64.771 86.335 64.4756 86.4082 64.2412 86.5547C64.0068 86.6963 63.8237 86.8916 63.6919 87.1406C63.5601 87.3848 63.4648 87.6606 63.4062 87.9683C63.3525 88.271 63.3257 88.5859 63.3257 88.9131V89.1694C63.3257 89.4966 63.3525 89.814 63.4062 90.1216C63.46 90.4292 63.5527 90.7051 63.6846 90.9492C63.8213 91.1885 64.0068 91.3813 64.2412 91.5278C64.4756 91.6694 64.7734 91.7402 65.1348 91.7402ZM73.3672 85.0752V86.3643H68.8994V85.0752H73.3672ZM70.1885 83.1343H71.9536V90.8101C71.9536 91.0542 71.9878 91.2422 72.0562 91.374C72.1294 91.501 72.2295 91.5864 72.3564 91.6304C72.4834 91.6743 72.6323 91.6963 72.8032 91.6963C72.9253 91.6963 73.0425 91.689 73.1548 91.6743C73.2671 91.6597 73.3574 91.645 73.4258 91.6304L73.4331 92.978C73.2866 93.022 73.1157 93.061 72.9204 93.0952C72.73 93.1294 72.5103 93.1465 72.2612 93.1465C71.856 93.1465 71.4971 93.0757 71.1846 92.9341C70.8721 92.7876 70.6279 92.5508 70.4521 92.2236C70.2764 91.8965 70.1885 91.4619 70.1885 90.9199V83.1343ZM81.7021 91.7402C81.9902 91.7402 82.249 91.6841 82.4785 91.5718C82.7129 91.4546 82.9009 91.2935 83.0425 91.0884C83.189 90.8833 83.2695 90.6465 83.2842 90.3779H84.9468C84.937 90.8906 84.7856 91.3569 84.4927 91.7769C84.1997 92.1968 83.8115 92.5312 83.3281 92.7803C82.8447 93.0244 82.3101 93.1465 81.7241 93.1465C81.1187 93.1465 80.5913 93.0439 80.1421 92.8389C79.6929 92.6289 79.3193 92.3408 79.0215 91.9746C78.7236 91.6084 78.499 91.186 78.3477 90.7075C78.2012 90.229 78.1279 89.7163 78.1279 89.1694V88.9131C78.1279 88.3662 78.2012 87.8535 78.3477 87.375C78.499 86.8916 78.7236 86.4668 79.0215 86.1006C79.3193 85.7344 79.6929 85.4487 80.1421 85.2437C80.5913 85.0337 81.1162 84.9287 81.7168 84.9287C82.3516 84.9287 82.9082 85.0557 83.3867 85.3096C83.8652 85.5586 84.2412 85.9077 84.5146 86.3569C84.793 86.8013 84.937 87.3188 84.9468 87.9097H83.2842C83.2695 87.6167 83.1963 87.353 83.0645 87.1187C82.9375 86.8794 82.7568 86.689 82.5225 86.5474C82.293 86.4058 82.0171 86.335 81.6948 86.335C81.3384 86.335 81.043 86.4082 80.8086 86.5547C80.5742 86.6963 80.3911 86.8916 80.2593 87.1406C80.1274 87.3848 80.0322 87.6606 79.9736 87.9683C79.9199 88.271 79.8931 88.5859 79.8931 88.9131V89.1694C79.8931 89.4966 79.9199 89.814 79.9736 90.1216C80.0273 90.4292 80.1201 90.7051 80.252 90.9492C80.3887 91.1885 80.5742 91.3813 80.8086 91.5278C81.043 91.6694 81.3408 91.7402 81.7021 91.7402ZM85.9648 89.1255V88.957C85.9648 88.3857 86.0479 87.856 86.2139 87.3677C86.3799 86.8745 86.6191 86.4473 86.9316 86.0859C87.249 85.7197 87.6348 85.4365 88.0889 85.2363C88.5479 85.0312 89.0654 84.9287 89.6416 84.9287C90.2227 84.9287 90.7402 85.0312 91.1943 85.2363C91.6533 85.4365 92.0415 85.7197 92.3589 86.0859C92.6763 86.4473 92.918 86.8745 93.084 87.3677C93.25 87.856 93.333 88.3857 93.333 88.957V89.1255C93.333 89.6968 93.25 90.2266 93.084 90.7148C92.918 91.2031 92.6763 91.6304 92.3589 91.9966C92.0415 92.3579 91.6558 92.6411 91.2017 92.8462C90.7476 93.0464 90.2324 93.1465 89.6562 93.1465C89.0752 93.1465 88.5552 93.0464 88.0962 92.8462C87.6421 92.6411 87.2563 92.3579 86.939 91.9966C86.6216 91.6304 86.3799 91.2031 86.2139 90.7148C86.0479 90.2266 85.9648 89.6968 85.9648 89.1255ZM87.73 88.957V89.1255C87.73 89.4819 87.7666 89.8188 87.8398 90.1362C87.9131 90.4536 88.0278 90.7319 88.1841 90.9712C88.3403 91.2104 88.5405 91.3984 88.7847 91.5352C89.0288 91.6719 89.3193 91.7402 89.6562 91.7402C89.9834 91.7402 90.2666 91.6719 90.5059 91.5352C90.75 91.3984 90.9502 91.2104 91.1064 90.9712C91.2627 90.7319 91.3774 90.4536 91.4507 90.1362C91.5288 89.8188 91.5679 89.4819 91.5679 89.1255V88.957C91.5679 88.6055 91.5288 88.2734 91.4507 87.9609C91.3774 87.6436 91.2603 87.3628 91.0991 87.1187C90.9429 86.8745 90.7427 86.6841 90.4985 86.5474C90.2593 86.4058 89.9736 86.335 89.6416 86.335C89.3096 86.335 89.0215 86.4058 88.7773 86.5474C88.5381 86.6841 88.3403 86.8745 88.1841 87.1187C88.0278 87.3628 87.9131 87.6436 87.8398 87.9609C87.7666 88.2734 87.73 88.6055 87.73 88.957ZM99.5806 91.1323V85.0752H101.353V93H99.6831L99.5806 91.1323ZM99.8296 89.4844L100.423 89.4697C100.423 90.002 100.364 90.4927 100.247 90.9419C100.13 91.3862 99.9492 91.7744 99.7051 92.1064C99.4609 92.4336 99.1484 92.6899 98.7676 92.8755C98.3867 93.0562 97.9302 93.1465 97.3979 93.1465C97.0122 93.1465 96.6582 93.0903 96.3359 92.978C96.0137 92.8657 95.7354 92.6924 95.501 92.458C95.2715 92.2236 95.0933 91.9185 94.9663 91.5425C94.8394 91.1665 94.7759 90.7173 94.7759 90.1948V85.0752H96.541V90.2095C96.541 90.4976 96.5752 90.7393 96.6436 90.9346C96.7119 91.125 96.8047 91.2788 96.9219 91.396C97.0391 91.5132 97.1758 91.5962 97.332 91.645C97.4883 91.6938 97.6543 91.7183 97.8301 91.7183C98.333 91.7183 98.7285 91.6206 99.0166 91.4253C99.3096 91.2251 99.5171 90.9565 99.6392 90.6196C99.7661 90.2827 99.8296 89.9043 99.8296 89.4844ZM104.913 86.7671V93H103.147V85.0752H104.81L104.913 86.7671ZM104.598 88.7446L104.026 88.7373C104.031 88.1758 104.109 87.6606 104.261 87.1919C104.417 86.7231 104.632 86.3203 104.905 85.9834C105.184 85.6465 105.516 85.3877 105.901 85.207C106.287 85.0215 106.717 84.9287 107.19 84.9287C107.571 84.9287 107.916 84.9824 108.223 85.0898C108.536 85.1924 108.802 85.3608 109.021 85.5952C109.246 85.8296 109.417 86.1348 109.534 86.5107C109.651 86.8818 109.71 87.3384 109.71 87.8804V93H107.938V87.873C107.938 87.4922 107.881 87.1919 107.769 86.9722C107.662 86.7476 107.503 86.5889 107.293 86.4961C107.088 86.3984 106.832 86.3496 106.524 86.3496C106.221 86.3496 105.95 86.4131 105.711 86.54C105.472 86.667 105.269 86.8403 105.103 87.0601C104.942 87.2798 104.817 87.5337 104.729 87.8218C104.642 88.1099 104.598 88.4175 104.598 88.7446ZM115.145 85.0752V86.3643H110.677V85.0752H115.145ZM111.966 83.1343H113.731V90.8101C113.731 91.0542 113.765 91.2422 113.833 91.374C113.907 91.501 114.007 91.5864 114.134 91.6304C114.261 91.6743 114.41 91.6963 114.581 91.6963C114.703 91.6963 114.82 91.689 114.932 91.6743C115.044 91.6597 115.135 91.645 115.203 91.6304L115.21 92.978C115.064 93.022 114.893 93.061 114.698 93.0952C114.507 93.1294 114.288 93.1465 114.039 93.1465C113.633 93.1465 113.274 93.0757 112.962 92.9341C112.649 92.7876 112.405 92.5508 112.229 92.2236C112.054 91.8965 111.966 91.4619 111.966 90.9199V83.1343ZM118.279 86.584V93H116.514V85.0752H118.199L118.279 86.584ZM120.704 85.0239L120.689 86.6646C120.582 86.645 120.464 86.6304 120.337 86.6206C120.215 86.6108 120.093 86.606 119.971 86.606C119.668 86.606 119.402 86.6499 119.173 86.7378C118.943 86.8208 118.75 86.9429 118.594 87.104C118.443 87.2603 118.326 87.4507 118.243 87.6753C118.16 87.8999 118.111 88.1514 118.096 88.4297L117.693 88.459C117.693 87.9609 117.742 87.4995 117.84 87.0747C117.938 86.6499 118.084 86.2764 118.279 85.9541C118.479 85.6318 118.729 85.3804 119.026 85.1997C119.329 85.019 119.678 84.9287 120.074 84.9287C120.181 84.9287 120.296 84.9385 120.418 84.958C120.545 84.9775 120.64 84.9995 120.704 85.0239ZM124.241 92.1357L126.395 85.0752H128.284L125.105 94.2085C125.032 94.4038 124.937 94.6162 124.82 94.8457C124.703 95.0752 124.549 95.2925 124.358 95.4976C124.173 95.7075 123.941 95.876 123.663 96.0029C123.384 96.1348 123.047 96.2007 122.652 96.2007C122.496 96.2007 122.344 96.186 122.198 96.1567C122.056 96.1323 121.922 96.1055 121.795 96.0762L121.788 94.7285C121.836 94.7334 121.895 94.7383 121.963 94.7432C122.037 94.748 122.095 94.7505 122.139 94.7505C122.432 94.7505 122.676 94.7139 122.872 94.6406C123.067 94.5723 123.226 94.46 123.348 94.3037C123.475 94.1475 123.582 93.9375 123.67 93.6738L124.241 92.1357ZM123.025 85.0752L124.908 91.0078L125.223 92.8682L124 93.1831L121.121 85.0752H123.025Z" fill="#505050"/>
<path d="M32.5 108C32.5 106.067 34.067 104.5 36 104.5H604C605.933 104.5 607.5 106.067 607.5 108V140C607.5 141.933 605.933 143.5 604 143.5H36C34.067 143.5 32.5 141.933 32.5 140V108Z" fill="white"/>
<path d="M32.5 108C32.5 106.067 34.067 104.5 36 104.5H604C605.933 104.5 607.5 106.067 607.5 108V140C607.5 141.933 605.933 143.5 604 143.5H36C34.067 143.5 32.5 141.933 32.5 140V108Z" stroke="#AAAAAA"/>
<path d="M55.6758 125.609H57.082C57.0088 126.283 56.8159 126.886 56.5034 127.418C56.1909 127.95 55.749 128.373 55.1777 128.685C54.6064 128.993 53.8936 129.146 53.0391 129.146C52.4141 129.146 51.8452 129.029 51.3325 128.795C50.8247 128.561 50.3877 128.229 50.0215 127.799C49.6553 127.364 49.3721 126.844 49.1719 126.239C48.9766 125.628 48.8789 124.95 48.8789 124.203V123.141C48.8789 122.394 48.9766 121.717 49.1719 121.112C49.3721 120.501 49.6577 119.979 50.0288 119.544C50.4048 119.11 50.8564 118.775 51.3838 118.541C51.9111 118.307 52.5044 118.189 53.1636 118.189C53.9692 118.189 54.6504 118.341 55.207 118.644C55.7637 118.946 56.1958 119.366 56.5034 119.903C56.8159 120.436 57.0088 121.053 57.082 121.756H55.6758C55.6074 121.258 55.4805 120.831 55.2949 120.475C55.1094 120.113 54.8457 119.835 54.5039 119.64C54.1621 119.444 53.7153 119.347 53.1636 119.347C52.6899 119.347 52.2725 119.437 51.9111 119.618C51.5547 119.798 51.2544 120.055 51.0103 120.387C50.771 120.719 50.5903 121.117 50.4683 121.581C50.3462 122.044 50.2852 122.56 50.2852 123.126V124.203C50.2852 124.725 50.3389 125.216 50.4463 125.675C50.5586 126.134 50.7271 126.537 50.9517 126.883C51.1763 127.23 51.4619 127.503 51.8086 127.704C52.1553 127.899 52.5654 127.997 53.0391 127.997C53.6396 127.997 54.1182 127.901 54.4746 127.711C54.8311 127.521 55.0996 127.247 55.2803 126.891C55.4658 126.534 55.5977 126.107 55.6758 125.609ZM63.4761 127.645V123.565C63.4761 123.253 63.4126 122.982 63.2856 122.752C63.1636 122.518 62.978 122.337 62.729 122.21C62.48 122.083 62.1724 122.02 61.8062 122.02C61.4644 122.02 61.1641 122.079 60.9053 122.196C60.6514 122.313 60.4512 122.467 60.3047 122.657C60.1631 122.848 60.0923 123.053 60.0923 123.272H58.7373C58.7373 122.989 58.8105 122.708 58.957 122.43C59.1035 122.152 59.3135 121.9 59.5869 121.676C59.8652 121.446 60.1973 121.266 60.583 121.134C60.9736 120.997 61.4082 120.929 61.8867 120.929C62.4629 120.929 62.9707 121.026 63.4102 121.222C63.8545 121.417 64.2012 121.712 64.4502 122.108C64.7041 122.499 64.8311 122.989 64.8311 123.58V127.271C64.8311 127.535 64.853 127.816 64.897 128.114C64.9458 128.412 65.0166 128.668 65.1094 128.883V129H63.6958C63.6274 128.844 63.5737 128.636 63.5347 128.377C63.4956 128.114 63.4761 127.87 63.4761 127.645ZM63.7104 124.195L63.7251 125.147H62.3555C61.9697 125.147 61.6255 125.179 61.3228 125.243C61.02 125.301 60.7661 125.392 60.561 125.514C60.356 125.636 60.1997 125.79 60.0923 125.975C59.9849 126.156 59.9312 126.368 59.9312 126.612C59.9312 126.861 59.9873 127.088 60.0996 127.293C60.2119 127.499 60.3804 127.662 60.605 127.784C60.8345 127.901 61.1152 127.96 61.4473 127.96C61.8623 127.96 62.2285 127.872 62.5459 127.696C62.8633 127.521 63.1147 127.306 63.3003 127.052C63.4907 126.798 63.5933 126.551 63.6079 126.312L64.1865 126.964C64.1523 127.169 64.0596 127.396 63.9082 127.645C63.7568 127.894 63.5542 128.133 63.3003 128.363C63.0513 128.587 62.7534 128.775 62.4067 128.927C62.0649 129.073 61.6792 129.146 61.2495 129.146C60.7124 129.146 60.2412 129.042 59.8359 128.832C59.4355 128.622 59.123 128.341 58.8984 127.989C58.6787 127.633 58.5688 127.235 58.5688 126.795C58.5688 126.371 58.6519 125.997 58.8179 125.675C58.9839 125.348 59.2231 125.077 59.5356 124.862C59.8481 124.642 60.2241 124.476 60.6636 124.364C61.103 124.251 61.5938 124.195 62.1357 124.195H63.7104ZM68.3174 122.767V129H66.9624V121.075H68.2441L68.3174 122.767ZM67.9951 124.737L67.4312 124.715C67.436 124.173 67.5166 123.673 67.6729 123.214C67.8291 122.75 68.0488 122.347 68.332 122.005C68.6152 121.664 68.9521 121.4 69.3428 121.214C69.7383 121.024 70.1753 120.929 70.6538 120.929C71.0444 120.929 71.396 120.982 71.7085 121.09C72.021 121.192 72.2871 121.358 72.5068 121.588C72.7314 121.817 72.9023 122.115 73.0195 122.481C73.1367 122.843 73.1953 123.285 73.1953 123.807V129H71.833V123.792C71.833 123.377 71.772 123.045 71.6499 122.796C71.5278 122.542 71.3496 122.359 71.1152 122.247C70.8809 122.13 70.5928 122.071 70.251 122.071C69.9141 122.071 69.6064 122.142 69.3281 122.284C69.0547 122.425 68.8179 122.621 68.6177 122.87C68.4224 123.119 68.2686 123.404 68.1562 123.727C68.0488 124.044 67.9951 124.381 67.9951 124.737ZM79.9263 127.645V123.565C79.9263 123.253 79.8628 122.982 79.7358 122.752C79.6138 122.518 79.4282 122.337 79.1792 122.21C78.9302 122.083 78.6226 122.02 78.2563 122.02C77.9146 122.02 77.6143 122.079 77.3555 122.196C77.1016 122.313 76.9014 122.467 76.7549 122.657C76.6133 122.848 76.5425 123.053 76.5425 123.272H75.1875C75.1875 122.989 75.2607 122.708 75.4072 122.43C75.5537 122.152 75.7637 121.9 76.0371 121.676C76.3154 121.446 76.6475 121.266 77.0332 121.134C77.4238 120.997 77.8584 120.929 78.3369 120.929C78.9131 120.929 79.4209 121.026 79.8604 121.222C80.3047 121.417 80.6514 121.712 80.9004 122.108C81.1543 122.499 81.2812 122.989 81.2812 123.58V127.271C81.2812 127.535 81.3032 127.816 81.3472 128.114C81.396 128.412 81.4668 128.668 81.5596 128.883V129H80.146C80.0776 128.844 80.0239 128.636 79.9849 128.377C79.9458 128.114 79.9263 127.87 79.9263 127.645ZM80.1606 124.195L80.1753 125.147H78.8057C78.4199 125.147 78.0757 125.179 77.7729 125.243C77.4702 125.301 77.2163 125.392 77.0112 125.514C76.8062 125.636 76.6499 125.79 76.5425 125.975C76.4351 126.156 76.3813 126.368 76.3813 126.612C76.3813 126.861 76.4375 127.088 76.5498 127.293C76.6621 127.499 76.8306 127.662 77.0552 127.784C77.2847 127.901 77.5654 127.96 77.8975 127.96C78.3125 127.96 78.6787 127.872 78.9961 127.696C79.3135 127.521 79.5649 127.306 79.7505 127.052C79.9409 126.798 80.0435 126.551 80.0581 126.312L80.6367 126.964C80.6025 127.169 80.5098 127.396 80.3584 127.645C80.207 127.894 80.0044 128.133 79.7505 128.363C79.5015 128.587 79.2036 128.775 78.8569 128.927C78.5151 129.073 78.1294 129.146 77.6997 129.146C77.1626 129.146 76.6914 129.042 76.2861 128.832C75.8857 128.622 75.5732 128.341 75.3486 127.989C75.1289 127.633 75.019 127.235 75.019 126.795C75.019 126.371 75.1021 125.997 75.2681 125.675C75.4341 125.348 75.6733 125.077 75.9858 124.862C76.2983 124.642 76.6743 124.476 77.1138 124.364C77.5532 124.251 78.0439 124.195 78.5859 124.195H80.1606ZM88.4077 127.462V117.75H89.77V129H88.5249L88.4077 127.462ZM83.0757 125.125V124.972C83.0757 124.366 83.1489 123.817 83.2954 123.324C83.4468 122.826 83.6592 122.398 83.9326 122.042C84.2109 121.686 84.5405 121.412 84.9214 121.222C85.3071 121.026 85.7368 120.929 86.2104 120.929C86.7085 120.929 87.1431 121.017 87.5142 121.192C87.8901 121.363 88.2075 121.615 88.4663 121.947C88.73 122.274 88.9375 122.669 89.0889 123.133C89.2402 123.597 89.3452 124.122 89.4038 124.708V125.382C89.3501 125.963 89.2451 126.485 89.0889 126.949C88.9375 127.413 88.73 127.809 88.4663 128.136C88.2075 128.463 87.8901 128.714 87.5142 128.89C87.1382 129.061 86.6987 129.146 86.1958 129.146C85.7319 129.146 85.3071 129.046 84.9214 128.846C84.5405 128.646 84.2109 128.365 83.9326 128.004C83.6592 127.643 83.4468 127.218 83.2954 126.729C83.1489 126.236 83.0757 125.702 83.0757 125.125ZM84.438 124.972V125.125C84.438 125.521 84.4771 125.892 84.5552 126.239C84.6382 126.585 84.7651 126.891 84.936 127.154C85.1069 127.418 85.3242 127.625 85.5879 127.777C85.8516 127.923 86.1665 127.997 86.5327 127.997C86.9819 127.997 87.3506 127.901 87.6387 127.711C87.9316 127.521 88.166 127.269 88.3418 126.957C88.5176 126.644 88.6543 126.305 88.752 125.938V124.173C88.6934 123.905 88.6079 123.646 88.4956 123.397C88.3882 123.143 88.2466 122.918 88.0708 122.723C87.8999 122.523 87.6875 122.364 87.4336 122.247C87.1846 122.13 86.8892 122.071 86.5474 122.071C86.1763 122.071 85.8564 122.149 85.5879 122.306C85.3242 122.457 85.1069 122.667 84.936 122.936C84.7651 123.199 84.6382 123.507 84.5552 123.858C84.4771 124.205 84.438 124.576 84.438 124.972ZM96.5522 127.645V123.565C96.5522 123.253 96.4888 122.982 96.3618 122.752C96.2397 122.518 96.0542 122.337 95.8052 122.21C95.5562 122.083 95.2485 122.02 94.8823 122.02C94.5405 122.02 94.2402 122.079 93.9814 122.196C93.7275 122.313 93.5273 122.467 93.3809 122.657C93.2393 122.848 93.1685 123.053 93.1685 123.272H91.8135C91.8135 122.989 91.8867 122.708 92.0332 122.43C92.1797 122.152 92.3896 121.9 92.6631 121.676C92.9414 121.446 93.2734 121.266 93.6592 121.134C94.0498 120.997 94.4844 120.929 94.9629 120.929C95.5391 120.929 96.0469 121.026 96.4863 121.222C96.9307 121.417 97.2773 121.712 97.5264 122.108C97.7803 122.499 97.9072 122.989 97.9072 123.58V127.271C97.9072 127.535 97.9292 127.816 97.9731 128.114C98.022 128.412 98.0928 128.668 98.1855 128.883V129H96.772C96.7036 128.844 96.6499 128.636 96.6108 128.377C96.5718 128.114 96.5522 127.87 96.5522 127.645ZM96.7866 124.195L96.8013 125.147H95.4316C95.0459 125.147 94.7017 125.179 94.3989 125.243C94.0962 125.301 93.8423 125.392 93.6372 125.514C93.4321 125.636 93.2759 125.79 93.1685 125.975C93.061 126.156 93.0073 126.368 93.0073 126.612C93.0073 126.861 93.0635 127.088 93.1758 127.293C93.2881 127.499 93.4565 127.662 93.6812 127.784C93.9106 127.901 94.1914 127.96 94.5234 127.96C94.9385 127.96 95.3047 127.872 95.6221 127.696C95.9395 127.521 96.1909 127.306 96.3765 127.052C96.5669 126.798 96.6694 126.551 96.6841 126.312L97.2627 126.964C97.2285 127.169 97.1357 127.396 96.9844 127.645C96.833 127.894 96.6304 128.133 96.3765 128.363C96.1274 128.587 95.8296 128.775 95.4829 128.927C95.1411 129.073 94.7554 129.146 94.3257 129.146C93.7886 129.146 93.3174 129.042 92.9121 128.832C92.5117 128.622 92.1992 128.341 91.9746 127.989C91.7549 127.633 91.645 127.235 91.645 126.795C91.645 126.371 91.728 125.997 91.894 125.675C92.0601 125.348 92.2993 125.077 92.6118 124.862C92.9243 124.642 93.3003 124.476 93.7397 124.364C94.1792 124.251 94.6699 124.195 95.2119 124.195H96.7866Z" fill="#1A1A1A"/>
<path d="M557 124C557.018 122.688 557.337 121.512 557.957 120.473C558.577 119.415 559.415 118.577 560.473 117.957C561.512 117.337 562.688 117.018 564 117C565.312 117.018 566.488 117.337 567.527 117.957C568.585 118.577 569.423 119.415 570.043 120.473C570.663 121.512 570.982 122.688 571 124C570.982 125.312 570.663 126.488 570.043 127.527C569.423 128.585 568.585 129.423 567.527 130.043C566.488 130.663 565.312 130.982 564 131C562.688 130.982 561.512 130.663 560.473 130.043C559.415 129.423 558.577 128.585 557.957 127.527C557.337 126.488 557.018 125.312 557 124ZM561.785 122.688L563.07 123.973L561.785 125.285C561.53 125.595 561.53 125.896 561.785 126.188C562.095 126.461 562.396 126.461 562.688 126.188L563.973 124.93L565.285 126.188C565.595 126.461 565.896 126.461 566.188 126.188C566.461 125.896 566.461 125.595 566.188 125.285L564.93 123.973L566.188 122.688C566.461 122.396 566.461 122.095 566.188 121.785C565.896 121.53 565.595 121.53 565.285 121.785L563.973 123.07L562.688 121.785C562.396 121.53 562.095 121.53 561.785 121.785C561.53 122.095 561.53 122.396 561.785 122.688Z" fill="#AAAAAA"/>
<path d="M593.715 122.715L588.492 127.719C588.31 127.865 588.146 127.938 588 127.938C587.836 127.938 587.681 127.874 587.535 127.746L582.285 122.715C582.158 122.587 582.094 122.432 582.094 122.25C582.094 122.068 582.158 121.913 582.285 121.785C582.577 121.53 582.887 121.53 583.215 121.785L588 126.379L592.785 121.785C593.113 121.53 593.423 121.539 593.715 121.812C593.842 121.922 593.906 122.068 593.906 122.25C593.906 122.432 593.842 122.587 593.715 122.715Z" fill="#737373"/>
<rect x="639.5" y="-0.5" width="641" height="177" fill="white"/>
<rect x="639.5" y="-0.5" width="641" height="177" stroke="#E6E6E6"/>
<rect width="640" height="44" transform="translate(640)" fill="#F8F8F8"/>
<path d="M673.587 16.7578H675.009L677.681 23.8862L680.347 16.7578H681.769L678.24 26H677.11L673.587 16.7578ZM672.939 16.7578H674.292L674.526 22.9277V26H672.939V16.7578ZM681.064 16.7578H682.423V26H680.83V22.9277L681.064 16.7578ZM690.5 16.7578H692.087V22.9341C692.087 23.6366 691.935 24.2248 691.63 24.6987C691.326 25.1727 690.911 25.5303 690.386 25.7715C689.866 26.0085 689.284 26.127 688.641 26.127C687.976 26.127 687.384 26.0085 686.863 25.7715C686.343 25.5303 685.932 25.1727 685.632 24.6987C685.336 24.2248 685.188 23.6366 685.188 22.9341V16.7578H686.774V22.9341C686.774 23.3784 686.851 23.7445 687.003 24.0322C687.155 24.3158 687.371 24.5252 687.65 24.6606C687.93 24.7961 688.26 24.8638 688.641 24.8638C689.021 24.8638 689.349 24.7961 689.625 24.6606C689.904 24.5252 690.12 24.3158 690.272 24.0322C690.424 23.7445 690.5 23.3784 690.5 22.9341V16.7578ZM700.609 24.7368V26H695.969V24.7368H700.609ZM696.414 16.7578V26H694.82V16.7578H696.414ZM705.056 16.7578V26H703.476V16.7578H705.056ZM707.957 16.7578V18.0273H700.6V16.7578H707.957ZM711.877 16.7578V26H710.284V16.7578H711.877ZM718.368 22.5532H715.962V21.29H718.368C718.787 21.29 719.125 21.2223 719.383 21.0869C719.641 20.9515 719.83 20.7653 719.948 20.5283C720.071 20.2871 720.132 20.012 720.132 19.7031C720.132 19.4111 720.071 19.1382 719.948 18.8843C719.83 18.6261 719.641 18.4188 719.383 18.2622C719.125 18.1056 718.787 18.0273 718.368 18.0273H716.451V26H714.857V16.7578H718.368C719.083 16.7578 719.69 16.8848 720.189 17.1387C720.693 17.3883 721.076 17.7354 721.338 18.1797C721.601 18.6198 721.732 19.1234 721.732 19.6904C721.732 20.2871 721.601 20.7992 721.338 21.2266C721.076 21.654 720.693 21.9819 720.189 22.2104C719.69 22.439 719.083 22.5532 718.368 22.5532ZM729.949 24.7368V26H725.309V24.7368H729.949ZM725.753 16.7578V26H724.16V16.7578H725.753ZM738.23 24.7368V26H733.323V24.7368H738.23ZM733.774 16.7578V26H732.181V16.7578H733.774ZM737.589 20.6172V21.8613H733.323V20.6172H737.589ZM738.198 16.7578V18.0273H733.323V16.7578H738.198ZM749.631 23.6196C749.631 23.4292 749.601 23.2599 749.542 23.1118C749.487 22.9637 749.388 22.8283 749.244 22.7056C749.1 22.5828 748.897 22.4644 748.634 22.3501C748.376 22.2316 748.046 22.111 747.644 21.9883C747.204 21.8529 746.798 21.7026 746.425 21.5376C746.057 21.3683 745.736 21.1737 745.46 20.9536C745.185 20.7293 744.972 20.4733 744.819 20.1855C744.667 19.8936 744.591 19.5571 744.591 19.1763C744.591 18.7996 744.669 18.4569 744.826 18.1479C744.986 17.839 745.213 17.5724 745.505 17.3481C745.801 17.1196 746.15 16.944 746.552 16.8213C746.954 16.6943 747.399 16.6309 747.885 16.6309C748.571 16.6309 749.161 16.7578 749.656 17.0117C750.156 17.2656 750.539 17.6063 750.805 18.0337C751.076 18.4611 751.211 18.9329 751.211 19.4492H749.631C749.631 19.1445 749.565 18.8758 749.434 18.6431C749.307 18.4061 749.112 18.2199 748.85 18.0845C748.592 17.9491 748.264 17.8813 747.866 17.8813C747.49 17.8813 747.176 17.9385 746.927 18.0527C746.677 18.167 746.491 18.3215 746.368 18.5161C746.245 18.7108 746.184 18.9308 746.184 19.1763C746.184 19.3498 746.224 19.5085 746.305 19.6523C746.385 19.792 746.508 19.9232 746.673 20.0459C746.838 20.1644 747.045 20.2765 747.295 20.3823C747.545 20.4881 747.839 20.5897 748.177 20.687C748.689 20.8394 749.136 21.0086 749.517 21.1948C749.897 21.3768 750.215 21.5841 750.469 21.8169C750.723 22.0496 750.913 22.3141 751.04 22.6104C751.167 22.9023 751.23 23.2345 751.23 23.6069C751.23 23.9963 751.152 24.3475 750.996 24.6606C750.839 24.9696 750.615 25.234 750.323 25.4541C750.035 25.6699 749.688 25.8371 749.282 25.9556C748.88 26.0698 748.431 26.127 747.936 26.127C747.492 26.127 747.054 26.0677 746.622 25.9492C746.195 25.8307 745.805 25.6509 745.454 25.4097C745.103 25.1642 744.824 24.8595 744.616 24.4956C744.409 24.1274 744.305 23.6979 744.305 23.207H745.898C745.898 23.5075 745.949 23.7635 746.051 23.9751C746.157 24.1867 746.303 24.3602 746.489 24.4956C746.675 24.6268 746.891 24.7241 747.136 24.7876C747.386 24.8511 747.653 24.8828 747.936 24.8828C748.308 24.8828 748.619 24.8299 748.869 24.7241C749.123 24.6183 749.313 24.4702 749.44 24.2798C749.567 24.0894 749.631 23.8693 749.631 23.6196ZM759.689 24.7368V26H754.782V24.7368H759.689ZM755.233 16.7578V26H753.64V16.7578H755.233ZM759.048 20.6172V21.8613H754.782V20.6172H759.048ZM759.657 16.7578V18.0273H754.782V16.7578H759.657ZM767.779 24.7368V26H763.139V24.7368H767.779ZM763.583 16.7578V26H761.99V16.7578H763.583ZM776.06 24.7368V26H771.153V24.7368H776.06ZM771.604 16.7578V26H770.011V16.7578H771.604ZM775.419 20.6172V21.8613H771.153V20.6172H775.419ZM776.028 16.7578V18.0273H771.153V16.7578H776.028ZM783.82 22.9912H785.407C785.356 23.5964 785.187 24.1359 784.899 24.6099C784.612 25.0796 784.208 25.4499 783.687 25.7207C783.167 25.9915 782.534 26.127 781.789 26.127C781.218 26.127 780.704 26.0254 780.247 25.8223C779.79 25.6149 779.398 25.3229 779.072 24.9463C778.746 24.5654 778.497 24.1063 778.323 23.5688C778.154 23.0314 778.069 22.4305 778.069 21.7661V20.998C778.069 20.3337 778.156 19.7327 778.33 19.1953C778.507 18.6579 778.761 18.1987 779.091 17.8179C779.421 17.4328 779.817 17.1387 780.278 16.9355C780.744 16.7324 781.266 16.6309 781.846 16.6309C782.583 16.6309 783.205 16.7663 783.712 17.0371C784.22 17.3079 784.614 17.6825 784.893 18.1606C785.177 18.6388 785.35 19.1868 785.414 19.8047H783.827C783.784 19.4069 783.691 19.0662 783.547 18.7827C783.408 18.4992 783.2 18.2834 782.925 18.1353C782.65 17.9829 782.291 17.9067 781.846 17.9067C781.482 17.9067 781.165 17.9744 780.894 18.1099C780.623 18.2453 780.397 18.4442 780.215 18.7065C780.033 18.9689 779.895 19.2926 779.802 19.6777C779.713 20.0586 779.669 20.4945 779.669 20.9854V21.7661C779.669 22.2316 779.709 22.6548 779.79 23.0356C779.874 23.4123 780.001 23.736 780.17 24.0068C780.344 24.2777 780.564 24.4871 780.831 24.6353C781.097 24.7834 781.417 24.8574 781.789 24.8574C782.242 24.8574 782.608 24.7855 782.887 24.6416C783.171 24.4977 783.384 24.2882 783.528 24.0132C783.676 23.7339 783.774 23.3932 783.82 22.9912ZM791.466 16.7578V26H789.886V16.7578H791.466ZM794.367 16.7578V18.0273H787.01V16.7578H794.367ZM803.445 21.4424V22.6611H800.087V21.4424H803.445ZM815.036 23.6196C815.036 23.4292 815.007 23.2599 814.947 23.1118C814.892 22.9637 814.793 22.8283 814.649 22.7056C814.505 22.5828 814.302 22.4644 814.04 22.3501C813.781 22.2316 813.451 22.111 813.049 21.9883C812.609 21.8529 812.203 21.7026 811.831 21.5376C811.462 21.3683 811.141 21.1737 810.866 20.9536C810.591 20.7293 810.377 20.4733 810.225 20.1855C810.072 19.8936 809.996 19.5571 809.996 19.1763C809.996 18.7996 810.074 18.4569 810.231 18.1479C810.392 17.839 810.618 17.5724 810.91 17.3481C811.206 17.1196 811.556 16.944 811.958 16.8213C812.36 16.6943 812.804 16.6309 813.291 16.6309C813.976 16.6309 814.566 16.7578 815.062 17.0117C815.561 17.2656 815.944 17.6063 816.21 18.0337C816.481 18.4611 816.617 18.9329 816.617 19.4492H815.036C815.036 19.1445 814.971 18.8758 814.839 18.6431C814.712 18.4061 814.518 18.2199 814.255 18.0845C813.997 17.9491 813.669 17.8813 813.271 17.8813C812.895 17.8813 812.582 17.9385 812.332 18.0527C812.082 18.167 811.896 18.3215 811.773 18.5161C811.651 18.7108 811.589 18.9308 811.589 19.1763C811.589 19.3498 811.63 19.5085 811.71 19.6523C811.79 19.792 811.913 19.9232 812.078 20.0459C812.243 20.1644 812.451 20.2765 812.7 20.3823C812.95 20.4881 813.244 20.5897 813.583 20.687C814.095 20.8394 814.541 21.0086 814.922 21.1948C815.303 21.3768 815.62 21.5841 815.874 21.8169C816.128 22.0496 816.318 22.3141 816.445 22.6104C816.572 22.9023 816.636 23.2345 816.636 23.6069C816.636 23.9963 816.557 24.3475 816.401 24.6606C816.244 24.9696 816.02 25.234 815.728 25.4541C815.44 25.6699 815.093 25.8371 814.687 25.9556C814.285 26.0698 813.836 26.127 813.341 26.127C812.897 26.127 812.459 26.0677 812.027 25.9492C811.6 25.8307 811.211 25.6509 810.859 25.4097C810.508 25.1642 810.229 24.8595 810.021 24.4956C809.814 24.1274 809.71 23.6979 809.71 23.207H811.304C811.304 23.5075 811.354 23.7635 811.456 23.9751C811.562 24.1867 811.708 24.3602 811.894 24.4956C812.08 24.6268 812.296 24.7241 812.542 24.7876C812.791 24.8511 813.058 24.8828 813.341 24.8828C813.714 24.8828 814.025 24.8299 814.274 24.7241C814.528 24.6183 814.719 24.4702 814.846 24.2798C814.973 24.0894 815.036 23.8693 815.036 23.6196ZM825.094 24.7368V26H820.188V24.7368H825.094ZM820.638 16.7578V26H819.045V16.7578H820.638ZM824.453 20.6172V21.8613H820.188V20.6172H824.453ZM825.062 16.7578V18.0273H820.188V16.7578H825.062ZM833.185 24.7368V26H828.544V24.7368H833.185ZM828.989 16.7578V26H827.396V16.7578H828.989ZM841.465 24.7368V26H836.559V24.7368H841.465ZM837.009 16.7578V26H835.416V16.7578H837.009ZM840.824 20.6172V21.8613H836.559V20.6172H840.824ZM841.434 16.7578V18.0273H836.559V16.7578H841.434ZM849.226 22.9912H850.812C850.762 23.5964 850.592 24.1359 850.305 24.6099C850.017 25.0796 849.613 25.4499 849.092 25.7207C848.572 25.9915 847.939 26.127 847.194 26.127C846.623 26.127 846.109 26.0254 845.652 25.8223C845.195 25.6149 844.803 25.3229 844.478 24.9463C844.152 24.5654 843.902 24.1063 843.729 23.5688C843.559 23.0314 843.475 22.4305 843.475 21.7661V20.998C843.475 20.3337 843.561 19.7327 843.735 19.1953C843.913 18.6579 844.167 18.1987 844.497 17.8179C844.827 17.4328 845.222 17.1387 845.684 16.9355C846.149 16.7324 846.672 16.6309 847.251 16.6309C847.988 16.6309 848.61 16.7663 849.118 17.0371C849.625 17.3079 850.019 17.6825 850.298 18.1606C850.582 18.6388 850.755 19.1868 850.819 19.8047H849.232C849.19 19.4069 849.097 19.0662 848.953 18.7827C848.813 18.4992 848.606 18.2834 848.331 18.1353C848.056 17.9829 847.696 17.9067 847.251 17.9067C846.888 17.9067 846.57 17.9744 846.299 18.1099C846.028 18.2453 845.802 18.4442 845.62 18.7065C845.438 18.9689 845.301 19.2926 845.208 19.6777C845.119 20.0586 845.074 20.4945 845.074 20.9854V21.7661C845.074 22.2316 845.114 22.6548 845.195 23.0356C845.279 23.4123 845.406 23.736 845.576 24.0068C845.749 24.2777 845.969 24.4871 846.236 24.6353C846.502 24.7834 846.822 24.8574 847.194 24.8574C847.647 24.8574 848.013 24.7855 848.292 24.6416C848.576 24.4977 848.79 24.2882 848.934 24.0132C849.082 23.7339 849.179 23.3932 849.226 22.9912ZM856.872 16.7578V26H855.291V16.7578H856.872ZM859.772 16.7578V18.0273H852.416V16.7578H859.772ZM868.041 24.7368V26H863.134V24.7368H868.041ZM863.584 16.7578V26H861.991V16.7578H863.584ZM867.399 20.6172V21.8613H863.134V20.6172H867.399ZM868.009 16.7578V18.0273H863.134V16.7578H868.009ZM873.027 26H871.053L871.065 24.7368H873.027C873.598 24.7368 874.076 24.612 874.461 24.3623C874.851 24.1126 875.143 23.755 875.337 23.2896C875.536 22.8241 875.636 22.2697 875.636 21.6265V21.125C875.636 20.6257 875.579 20.1834 875.464 19.7983C875.354 19.4132 875.189 19.0895 874.969 18.8271C874.753 18.5648 874.487 18.3659 874.169 18.2305C873.856 18.0951 873.494 18.0273 873.084 18.0273H871.015V16.7578H873.084C873.698 16.7578 874.258 16.8615 874.766 17.0688C875.274 17.272 875.712 17.5661 876.08 17.9512C876.452 18.3363 876.738 18.7975 876.937 19.335C877.136 19.8724 877.235 20.4733 877.235 21.1377V21.6265C877.235 22.2909 877.136 22.8918 876.937 23.4292C876.738 23.9666 876.452 24.4279 876.08 24.813C875.708 25.1938 875.263 25.488 874.747 25.6953C874.235 25.8984 873.662 26 873.027 26ZM871.935 16.7578V26H870.342V16.7578H871.935Z" fill="#505050"/>
<path d="M678.694 90.2534C678.694 90.0337 678.66 89.8384 678.592 89.6675C678.528 89.4966 678.414 89.3403 678.248 89.1987C678.082 89.0571 677.847 88.9204 677.544 88.7886C677.247 88.6519 676.866 88.5127 676.402 88.3711C675.894 88.2148 675.425 88.0415 674.996 87.8511C674.571 87.6558 674.2 87.4312 673.882 87.1772C673.565 86.9185 673.318 86.623 673.143 86.291C672.967 85.9541 672.879 85.5659 672.879 85.1265C672.879 84.6919 672.969 84.2964 673.15 83.9399C673.335 83.5835 673.597 83.2759 673.934 83.0171C674.275 82.7534 674.678 82.5508 675.142 82.4092C675.606 82.2627 676.119 82.1895 676.68 82.1895C677.471 82.1895 678.152 82.3359 678.724 82.6289C679.3 82.9219 679.742 83.3149 680.049 83.8081C680.362 84.3013 680.518 84.8457 680.518 85.4414H678.694C678.694 85.0898 678.619 84.7798 678.467 84.5112C678.321 84.2378 678.096 84.0229 677.793 83.8667C677.496 83.7104 677.117 83.6323 676.658 83.6323C676.224 83.6323 675.862 83.6982 675.574 83.8301C675.286 83.9619 675.071 84.1401 674.93 84.3647C674.788 84.5894 674.717 84.8433 674.717 85.1265C674.717 85.3267 674.764 85.5098 674.856 85.6758C674.949 85.8369 675.091 85.9883 675.281 86.1299C675.472 86.2666 675.711 86.396 675.999 86.5181C676.287 86.6401 676.626 86.7573 677.017 86.8696C677.608 87.0454 678.123 87.2407 678.562 87.4556C679.002 87.6655 679.368 87.9048 679.661 88.1733C679.954 88.4419 680.174 88.7471 680.32 89.0889C680.467 89.4258 680.54 89.8091 680.54 90.2388C680.54 90.688 680.45 91.0933 680.269 91.4546C680.088 91.811 679.83 92.1162 679.493 92.3701C679.161 92.6191 678.76 92.812 678.292 92.9487C677.828 93.0806 677.31 93.1465 676.739 93.1465C676.226 93.1465 675.721 93.0781 675.223 92.9414C674.729 92.8047 674.28 92.5972 673.875 92.3188C673.47 92.0356 673.147 91.6841 672.908 91.2642C672.669 90.8394 672.549 90.3438 672.549 89.7773H674.388C674.388 90.124 674.446 90.4194 674.563 90.6636C674.686 90.9077 674.854 91.1079 675.069 91.2642C675.284 91.4155 675.533 91.5278 675.816 91.6011C676.104 91.6743 676.412 91.7109 676.739 91.7109C677.168 91.7109 677.527 91.6499 677.815 91.5278C678.108 91.4058 678.328 91.2349 678.475 91.0151C678.621 90.7954 678.694 90.5415 678.694 90.2534ZM685.484 93.1465C684.898 93.1465 684.368 93.0513 683.895 92.8608C683.426 92.6655 683.025 92.3945 682.693 92.0479C682.366 91.7012 682.115 91.2935 681.939 90.8247C681.763 90.356 681.675 89.8506 681.675 89.3086V89.0156C681.675 88.3955 681.766 87.834 681.946 87.3311C682.127 86.8281 682.378 86.3984 682.701 86.042C683.023 85.6807 683.404 85.4048 683.843 85.2144C684.283 85.0239 684.759 84.9287 685.271 84.9287C685.838 84.9287 686.333 85.0239 686.758 85.2144C687.183 85.4048 687.535 85.6733 687.813 86.02C688.096 86.3618 688.306 86.7695 688.443 87.2432C688.584 87.7168 688.655 88.2393 688.655 88.8105V89.5649H682.532V88.2979H686.912V88.1587C686.902 87.8413 686.839 87.5435 686.722 87.2651C686.609 86.9868 686.436 86.7622 686.202 86.5913C685.967 86.4204 685.655 86.335 685.264 86.335C684.971 86.335 684.71 86.3984 684.48 86.5254C684.256 86.6475 684.068 86.8257 683.917 87.0601C683.765 87.2944 683.648 87.5776 683.565 87.9097C683.487 88.2368 683.448 88.6055 683.448 89.0156V89.3086C683.448 89.6553 683.494 89.9775 683.587 90.2754C683.685 90.5684 683.826 90.8247 684.012 91.0444C684.197 91.2642 684.422 91.4375 684.686 91.5645C684.949 91.6865 685.25 91.7476 685.586 91.7476C686.011 91.7476 686.39 91.6621 686.722 91.4912C687.054 91.3203 687.342 91.0786 687.586 90.7661L688.516 91.667C688.345 91.916 688.123 92.1553 687.85 92.3848C687.576 92.6094 687.242 92.7925 686.846 92.9341C686.456 93.0757 686.001 93.1465 685.484 93.1465ZM691.922 81.75V93H690.149V81.75H691.922ZM697.349 93.1465C696.763 93.1465 696.233 93.0513 695.76 92.8608C695.291 92.6655 694.891 92.3945 694.559 92.0479C694.231 91.7012 693.98 91.2935 693.804 90.8247C693.628 90.356 693.541 89.8506 693.541 89.3086V89.0156C693.541 88.3955 693.631 87.834 693.812 87.3311C693.992 86.8281 694.244 86.3984 694.566 86.042C694.888 85.6807 695.269 85.4048 695.708 85.2144C696.148 85.0239 696.624 84.9287 697.137 84.9287C697.703 84.9287 698.199 85.0239 698.624 85.2144C699.048 85.4048 699.4 85.6733 699.678 86.02C699.961 86.3618 700.171 86.7695 700.308 87.2432C700.45 87.7168 700.521 88.2393 700.521 88.8105V89.5649H694.397V88.2979H698.777V88.1587C698.768 87.8413 698.704 87.5435 698.587 87.2651C698.475 86.9868 698.301 86.7622 698.067 86.5913C697.833 86.4204 697.52 86.335 697.129 86.335C696.836 86.335 696.575 86.3984 696.346 86.5254C696.121 86.6475 695.933 86.8257 695.782 87.0601C695.63 87.2944 695.513 87.5776 695.43 87.9097C695.352 88.2368 695.313 88.6055 695.313 89.0156V89.3086C695.313 89.6553 695.359 89.9775 695.452 90.2754C695.55 90.5684 695.691 90.8247 695.877 91.0444C696.062 91.2642 696.287 91.4375 696.551 91.5645C696.814 91.6865 697.115 91.7476 697.452 91.7476C697.876 91.7476 698.255 91.6621 698.587 91.4912C698.919 91.3203 699.207 91.0786 699.451 90.7661L700.381 91.667C700.21 91.916 699.988 92.1553 699.715 92.3848C699.441 92.6094 699.107 92.7925 698.711 92.9341C698.321 93.0757 697.867 93.1465 697.349 93.1465ZM705.135 91.7402C705.423 91.7402 705.682 91.6841 705.911 91.5718C706.146 91.4546 706.333 91.2935 706.475 91.0884C706.622 90.8833 706.702 90.6465 706.717 90.3779H708.379C708.37 90.8906 708.218 91.3569 707.925 91.7769C707.632 92.1968 707.244 92.5312 706.761 92.7803C706.277 93.0244 705.743 93.1465 705.157 93.1465C704.551 93.1465 704.024 93.0439 703.575 92.8389C703.125 92.6289 702.752 92.3408 702.454 91.9746C702.156 91.6084 701.932 91.186 701.78 90.7075C701.634 90.229 701.561 89.7163 701.561 89.1694V88.9131C701.561 88.3662 701.634 87.8535 701.78 87.375C701.932 86.8916 702.156 86.4668 702.454 86.1006C702.752 85.7344 703.125 85.4487 703.575 85.2437C704.024 85.0337 704.549 84.9287 705.149 84.9287C705.784 84.9287 706.341 85.0557 706.819 85.3096C707.298 85.5586 707.674 85.9077 707.947 86.3569C708.226 86.8013 708.37 87.3188 708.379 87.9097H706.717C706.702 87.6167 706.629 87.353 706.497 87.1187C706.37 86.8794 706.189 86.689 705.955 86.5474C705.726 86.4058 705.45 86.335 705.127 86.335C704.771 86.335 704.476 86.4082 704.241 86.5547C704.007 86.6963 703.824 86.8916 703.692 87.1406C703.56 87.3848 703.465 87.6606 703.406 87.9683C703.353 88.271 703.326 88.5859 703.326 88.9131V89.1694C703.326 89.4966 703.353 89.814 703.406 90.1216C703.46 90.4292 703.553 90.7051 703.685 90.9492C703.821 91.1885 704.007 91.3813 704.241 91.5278C704.476 91.6694 704.773 91.7402 705.135 91.7402ZM713.367 85.0752V86.3643H708.899V85.0752H713.367ZM710.188 83.1343H711.954V90.8101C711.954 91.0542 711.988 91.2422 712.056 91.374C712.129 91.501 712.229 91.5864 712.356 91.6304C712.483 91.6743 712.632 91.6963 712.803 91.6963C712.925 91.6963 713.042 91.689 713.155 91.6743C713.267 91.6597 713.357 91.645 713.426 91.6304L713.433 92.978C713.287 93.022 713.116 93.061 712.92 93.0952C712.73 93.1294 712.51 93.1465 712.261 93.1465C711.856 93.1465 711.497 93.0757 711.185 92.9341C710.872 92.7876 710.628 92.5508 710.452 92.2236C710.276 91.8965 710.188 91.4619 710.188 90.9199V83.1343ZM721.702 91.7402C721.99 91.7402 722.249 91.6841 722.479 91.5718C722.713 91.4546 722.901 91.2935 723.042 91.0884C723.189 90.8833 723.27 90.6465 723.284 90.3779H724.947C724.937 90.8906 724.786 91.3569 724.493 91.7769C724.2 92.1968 723.812 92.5312 723.328 92.7803C722.845 93.0244 722.31 93.1465 721.724 93.1465C721.119 93.1465 720.591 93.0439 720.142 92.8389C719.693 92.6289 719.319 92.3408 719.021 91.9746C718.724 91.6084 718.499 91.186 718.348 90.7075C718.201 90.229 718.128 89.7163 718.128 89.1694V88.9131C718.128 88.3662 718.201 87.8535 718.348 87.375C718.499 86.8916 718.724 86.4668 719.021 86.1006C719.319 85.7344 719.693 85.4487 720.142 85.2437C720.591 85.0337 721.116 84.9287 721.717 84.9287C722.352 84.9287 722.908 85.0557 723.387 85.3096C723.865 85.5586 724.241 85.9077 724.515 86.3569C724.793 86.8013 724.937 87.3188 724.947 87.9097H723.284C723.27 87.6167 723.196 87.353 723.064 87.1187C722.938 86.8794 722.757 86.689 722.522 86.5474C722.293 86.4058 722.017 86.335 721.695 86.335C721.338 86.335 721.043 86.4082 720.809 86.5547C720.574 86.6963 720.391 86.8916 720.259 87.1406C720.127 87.3848 720.032 87.6606 719.974 87.9683C719.92 88.271 719.893 88.5859 719.893 88.9131V89.1694C719.893 89.4966 719.92 89.814 719.974 90.1216C720.027 90.4292 720.12 90.7051 720.252 90.9492C720.389 91.1885 720.574 91.3813 720.809 91.5278C721.043 91.6694 721.341 91.7402 721.702 91.7402ZM725.965 89.1255V88.957C725.965 88.3857 726.048 87.856 726.214 87.3677C726.38 86.8745 726.619 86.4473 726.932 86.0859C727.249 85.7197 727.635 85.4365 728.089 85.2363C728.548 85.0312 729.065 84.9287 729.642 84.9287C730.223 84.9287 730.74 85.0312 731.194 85.2363C731.653 85.4365 732.042 85.7197 732.359 86.0859C732.676 86.4473 732.918 86.8745 733.084 87.3677C733.25 87.856 733.333 88.3857 733.333 88.957V89.1255C733.333 89.6968 733.25 90.2266 733.084 90.7148C732.918 91.2031 732.676 91.6304 732.359 91.9966C732.042 92.3579 731.656 92.6411 731.202 92.8462C730.748 93.0464 730.232 93.1465 729.656 93.1465C729.075 93.1465 728.555 93.0464 728.096 92.8462C727.642 92.6411 727.256 92.3579 726.939 91.9966C726.622 91.6304 726.38 91.2031 726.214 90.7148C726.048 90.2266 725.965 89.6968 725.965 89.1255ZM727.73 88.957V89.1255C727.73 89.4819 727.767 89.8188 727.84 90.1362C727.913 90.4536 728.028 90.7319 728.184 90.9712C728.34 91.2104 728.541 91.3984 728.785 91.5352C729.029 91.6719 729.319 91.7402 729.656 91.7402C729.983 91.7402 730.267 91.6719 730.506 91.5352C730.75 91.3984 730.95 91.2104 731.106 90.9712C731.263 90.7319 731.377 90.4536 731.451 90.1362C731.529 89.8188 731.568 89.4819 731.568 89.1255V88.957C731.568 88.6055 731.529 88.2734 731.451 87.9609C731.377 87.6436 731.26 87.3628 731.099 87.1187C730.943 86.8745 730.743 86.6841 730.499 86.5474C730.259 86.4058 729.974 86.335 729.642 86.335C729.31 86.335 729.021 86.4058 728.777 86.5474C728.538 86.6841 728.34 86.8745 728.184 87.1187C728.028 87.3628 727.913 87.6436 727.84 87.9609C727.767 88.2734 727.73 88.6055 727.73 88.957ZM739.581 91.1323V85.0752H741.353V93H739.683L739.581 91.1323ZM739.83 89.4844L740.423 89.4697C740.423 90.002 740.364 90.4927 740.247 90.9419C740.13 91.3862 739.949 91.7744 739.705 92.1064C739.461 92.4336 739.148 92.6899 738.768 92.8755C738.387 93.0562 737.93 93.1465 737.398 93.1465C737.012 93.1465 736.658 93.0903 736.336 92.978C736.014 92.8657 735.735 92.6924 735.501 92.458C735.271 92.2236 735.093 91.9185 734.966 91.5425C734.839 91.1665 734.776 90.7173 734.776 90.1948V85.0752H736.541V90.2095C736.541 90.4976 736.575 90.7393 736.644 90.9346C736.712 91.125 736.805 91.2788 736.922 91.396C737.039 91.5132 737.176 91.5962 737.332 91.645C737.488 91.6938 737.654 91.7183 737.83 91.7183C738.333 91.7183 738.729 91.6206 739.017 91.4253C739.31 91.2251 739.517 90.9565 739.639 90.6196C739.766 90.2827 739.83 89.9043 739.83 89.4844ZM744.913 86.7671V93H743.147V85.0752H744.81L744.913 86.7671ZM744.598 88.7446L744.026 88.7373C744.031 88.1758 744.109 87.6606 744.261 87.1919C744.417 86.7231 744.632 86.3203 744.905 85.9834C745.184 85.6465 745.516 85.3877 745.901 85.207C746.287 85.0215 746.717 84.9287 747.19 84.9287C747.571 84.9287 747.916 84.9824 748.223 85.0898C748.536 85.1924 748.802 85.3608 749.021 85.5952C749.246 85.8296 749.417 86.1348 749.534 86.5107C749.651 86.8818 749.71 87.3384 749.71 87.8804V93H747.938V87.873C747.938 87.4922 747.881 87.1919 747.769 86.9722C747.662 86.7476 747.503 86.5889 747.293 86.4961C747.088 86.3984 746.832 86.3496 746.524 86.3496C746.221 86.3496 745.95 86.4131 745.711 86.54C745.472 86.667 745.269 86.8403 745.103 87.0601C744.942 87.2798 744.817 87.5337 744.729 87.8218C744.642 88.1099 744.598 88.4175 744.598 88.7446ZM755.145 85.0752V86.3643H750.677V85.0752H755.145ZM751.966 83.1343H753.731V90.8101C753.731 91.0542 753.765 91.2422 753.833 91.374C753.907 91.501 754.007 91.5864 754.134 91.6304C754.261 91.6743 754.41 91.6963 754.581 91.6963C754.703 91.6963 754.82 91.689 754.932 91.6743C755.044 91.6597 755.135 91.645 755.203 91.6304L755.21 92.978C755.064 93.022 754.893 93.061 754.698 93.0952C754.507 93.1294 754.288 93.1465 754.039 93.1465C753.633 93.1465 753.274 93.0757 752.962 92.9341C752.649 92.7876 752.405 92.5508 752.229 92.2236C752.054 91.8965 751.966 91.4619 751.966 90.9199V83.1343ZM758.279 86.584V93H756.514V85.0752H758.199L758.279 86.584ZM760.704 85.0239L760.689 86.6646C760.582 86.645 760.464 86.6304 760.337 86.6206C760.215 86.6108 760.093 86.606 759.971 86.606C759.668 86.606 759.402 86.6499 759.173 86.7378C758.943 86.8208 758.75 86.9429 758.594 87.104C758.443 87.2603 758.326 87.4507 758.243 87.6753C758.16 87.8999 758.111 88.1514 758.096 88.4297L757.693 88.459C757.693 87.9609 757.742 87.4995 757.84 87.0747C757.938 86.6499 758.084 86.2764 758.279 85.9541C758.479 85.6318 758.729 85.3804 759.026 85.1997C759.329 85.019 759.678 84.9287 760.074 84.9287C760.181 84.9287 760.296 84.9385 760.418 84.958C760.545 84.9775 760.64 84.9995 760.704 85.0239ZM763.699 85.0752V93H761.927V85.0752H763.699ZM761.81 82.9951C761.81 82.7266 761.897 82.5044 762.073 82.3286C762.254 82.1479 762.503 82.0576 762.82 82.0576C763.133 82.0576 763.379 82.1479 763.56 82.3286C763.741 82.5044 763.831 82.7266 763.831 82.9951C763.831 83.2588 763.741 83.4785 763.56 83.6543C763.379 83.8301 763.133 83.918 762.82 83.918C762.503 83.918 762.254 83.8301 762.073 83.6543C761.897 83.4785 761.81 83.2588 761.81 82.9951ZM769.126 93.1465C768.541 93.1465 768.011 93.0513 767.537 92.8608C767.068 92.6655 766.668 92.3945 766.336 92.0479C766.009 91.7012 765.757 91.2935 765.582 90.8247C765.406 90.356 765.318 89.8506 765.318 89.3086V89.0156C765.318 88.3955 765.408 87.834 765.589 87.3311C765.77 86.8281 766.021 86.3984 766.343 86.042C766.666 85.6807 767.046 85.4048 767.486 85.2144C767.925 85.0239 768.401 84.9287 768.914 84.9287C769.48 84.9287 769.976 85.0239 770.401 85.2144C770.826 85.4048 771.177 85.6733 771.456 86.02C771.739 86.3618 771.949 86.7695 772.085 87.2432C772.227 87.7168 772.298 88.2393 772.298 88.8105V89.5649H766.175V88.2979H770.555V88.1587C770.545 87.8413 770.481 87.5435 770.364 87.2651C770.252 86.9868 770.079 86.7622 769.844 86.5913C769.61 86.4204 769.297 86.335 768.907 86.335C768.614 86.335 768.353 86.3984 768.123 86.5254C767.898 86.6475 767.71 86.8257 767.559 87.0601C767.408 87.2944 767.291 87.5776 767.208 87.9097C767.129 88.2368 767.09 88.6055 767.09 89.0156V89.3086C767.09 89.6553 767.137 89.9775 767.229 90.2754C767.327 90.5684 767.469 90.8247 767.654 91.0444C767.84 91.2642 768.064 91.4375 768.328 91.5645C768.592 91.6865 768.892 91.7476 769.229 91.7476C769.654 91.7476 770.032 91.6621 770.364 91.4912C770.696 91.3203 770.984 91.0786 771.229 90.7661L772.159 91.667C771.988 91.916 771.766 92.1553 771.492 92.3848C771.219 92.6094 770.884 92.7925 770.489 92.9341C770.098 93.0757 769.644 93.1465 769.126 93.1465ZM778.509 91.3594V81.75H780.281V93H778.677L778.509 91.3594ZM773.353 89.1255V88.9717C773.353 88.3711 773.423 87.8242 773.565 87.3311C773.707 86.833 773.912 86.4058 774.18 86.0493C774.449 85.688 774.776 85.4121 775.162 85.2217C775.547 85.0264 775.982 84.9287 776.465 84.9287C776.944 84.9287 777.364 85.0215 777.725 85.207C778.086 85.3926 778.394 85.6587 778.648 86.0054C778.902 86.3472 779.104 86.7573 779.256 87.2358C779.407 87.7095 779.515 88.2368 779.578 88.8179V89.3086C779.515 89.875 779.407 90.3926 779.256 90.8613C779.104 91.3301 778.902 91.7354 778.648 92.0771C778.394 92.4189 778.084 92.6826 777.718 92.8682C777.356 93.0537 776.934 93.1465 776.451 93.1465C775.972 93.1465 775.54 93.0464 775.154 92.8462C774.773 92.646 774.449 92.3652 774.18 92.0039C773.912 91.6426 773.707 91.2178 773.565 90.7295C773.423 90.2363 773.353 89.7017 773.353 89.1255ZM775.118 88.9717V89.1255C775.118 89.4868 775.149 89.8237 775.213 90.1362C775.281 90.4487 775.386 90.7246 775.528 90.9639C775.669 91.1982 775.853 91.3838 776.077 91.5205C776.307 91.6523 776.58 91.7183 776.897 91.7183C777.298 91.7183 777.627 91.6304 777.886 91.4546C778.145 91.2788 778.348 91.042 778.494 90.7441C778.646 90.4414 778.748 90.1045 778.802 89.7334V88.4077C778.772 88.1196 778.711 87.8511 778.619 87.6021C778.531 87.353 778.411 87.1357 778.26 86.9502C778.108 86.7598 777.92 86.6133 777.696 86.5107C777.476 86.4033 777.215 86.3496 776.912 86.3496C776.59 86.3496 776.316 86.418 776.092 86.5547C775.867 86.6914 775.682 86.8794 775.535 87.1187C775.394 87.3579 775.289 87.6362 775.22 87.9536C775.152 88.271 775.118 88.6104 775.118 88.9717ZM786.573 90.854C786.573 90.6782 786.529 90.5195 786.441 90.3779C786.353 90.2314 786.185 90.0996 785.936 89.9824C785.691 89.8652 785.33 89.7578 784.852 89.6602C784.432 89.5674 784.046 89.4575 783.694 89.3306C783.348 89.1987 783.05 89.04 782.801 88.8545C782.552 88.6689 782.359 88.4492 782.222 88.1953C782.085 87.9414 782.017 87.6484 782.017 87.3164C782.017 86.9941 782.088 86.689 782.229 86.4009C782.371 86.1128 782.574 85.8589 782.837 85.6392C783.101 85.4194 783.421 85.2461 783.797 85.1191C784.178 84.9922 784.603 84.9287 785.071 84.9287C785.735 84.9287 786.304 85.041 786.778 85.2656C787.256 85.4854 787.623 85.7856 787.876 86.1665C788.13 86.5425 788.257 86.9673 788.257 87.4409H786.492C786.492 87.231 786.438 87.0356 786.331 86.855C786.229 86.6694 786.072 86.5205 785.862 86.4082C785.652 86.291 785.389 86.2324 785.071 86.2324C784.769 86.2324 784.517 86.2812 784.317 86.3789C784.122 86.4717 783.975 86.5938 783.877 86.7451C783.785 86.8965 783.738 87.0625 783.738 87.2432C783.738 87.375 783.763 87.4946 783.812 87.6021C783.865 87.7046 783.953 87.7998 784.075 87.8877C784.197 87.9707 784.363 88.0488 784.573 88.1221C784.788 88.1953 785.057 88.2661 785.379 88.3345C785.984 88.4614 786.504 88.625 786.939 88.8252C787.378 89.0205 787.715 89.2744 787.95 89.5869C788.184 89.8945 788.301 90.2852 788.301 90.7588C788.301 91.1104 788.226 91.4326 788.074 91.7256C787.928 92.0137 787.713 92.2651 787.43 92.48C787.146 92.6899 786.807 92.8535 786.412 92.9707C786.021 93.0879 785.582 93.1465 785.093 93.1465C784.375 93.1465 783.768 93.0195 783.27 92.7656C782.771 92.5068 782.393 92.1772 782.134 91.7769C781.88 91.3716 781.753 90.9517 781.753 90.5171H783.46C783.479 90.8442 783.57 91.1055 783.731 91.3008C783.897 91.4912 784.102 91.6304 784.346 91.7183C784.595 91.8013 784.852 91.8428 785.115 91.8428C785.433 91.8428 785.699 91.8013 785.914 91.7183C786.128 91.6304 786.292 91.5132 786.404 91.3667C786.517 91.2153 786.573 91.0444 786.573 90.854Z" fill="#505050"/>
<rect x="672.5" y="104.5" width="575" height="39" rx="3.5" fill="white"/>
<rect x="672.5" y="104.5" width="575" height="39" rx="3.5" stroke="#AAAAAA"/>
<rect x="680" y="112" width="57" height="24" rx="4" fill="#EBF2FF"/>
<path d="M694.125 118.758H695.712V124.934C695.712 125.637 695.56 126.225 695.255 126.699C694.951 127.173 694.536 127.53 694.011 127.771C693.491 128.008 692.909 128.127 692.266 128.127C691.601 128.127 691.009 128.008 690.488 127.771C689.968 127.53 689.557 127.173 689.257 126.699C688.961 126.225 688.812 125.637 688.812 124.934V118.758H690.399V124.934C690.399 125.378 690.476 125.744 690.628 126.032C690.78 126.316 690.996 126.525 691.275 126.661C691.555 126.796 691.885 126.864 692.266 126.864C692.646 126.864 692.974 126.796 693.25 126.661C693.529 126.525 693.745 126.316 693.897 126.032C694.049 125.744 694.125 125.378 694.125 124.934V118.758ZM702.308 125.62C702.308 125.429 702.278 125.26 702.219 125.112C702.164 124.964 702.064 124.828 701.92 124.706C701.777 124.583 701.573 124.464 701.311 124.35C701.053 124.232 700.723 124.111 700.321 123.988C699.881 123.853 699.474 123.703 699.102 123.538C698.734 123.368 698.412 123.174 698.137 122.954C697.862 122.729 697.648 122.473 697.496 122.186C697.344 121.894 697.268 121.557 697.268 121.176C697.268 120.8 697.346 120.457 697.502 120.148C697.663 119.839 697.89 119.572 698.182 119.348C698.478 119.12 698.827 118.944 699.229 118.821C699.631 118.694 700.075 118.631 700.562 118.631C701.248 118.631 701.838 118.758 702.333 119.012C702.832 119.266 703.215 119.606 703.482 120.034C703.753 120.461 703.888 120.933 703.888 121.449H702.308C702.308 121.145 702.242 120.876 702.111 120.643C701.984 120.406 701.789 120.22 701.527 120.084C701.269 119.949 700.941 119.881 700.543 119.881C700.166 119.881 699.853 119.938 699.604 120.053C699.354 120.167 699.168 120.321 699.045 120.516C698.922 120.711 698.861 120.931 698.861 121.176C698.861 121.35 698.901 121.508 698.981 121.652C699.062 121.792 699.185 121.923 699.35 122.046C699.515 122.164 699.722 122.277 699.972 122.382C700.221 122.488 700.515 122.59 700.854 122.687C701.366 122.839 701.812 123.009 702.193 123.195C702.574 123.377 702.892 123.584 703.146 123.817C703.399 124.05 703.59 124.314 703.717 124.61C703.844 124.902 703.907 125.235 703.907 125.607C703.907 125.996 703.829 126.347 703.672 126.661C703.516 126.97 703.292 127.234 703 127.454C702.712 127.67 702.365 127.837 701.958 127.956C701.556 128.07 701.108 128.127 700.613 128.127C700.168 128.127 699.73 128.068 699.299 127.949C698.871 127.831 698.482 127.651 698.131 127.41C697.78 127.164 697.5 126.86 697.293 126.496C697.086 126.127 696.982 125.698 696.982 125.207H698.575C698.575 125.507 698.626 125.764 698.728 125.975C698.833 126.187 698.979 126.36 699.166 126.496C699.352 126.627 699.568 126.724 699.813 126.788C700.063 126.851 700.329 126.883 700.613 126.883C700.985 126.883 701.296 126.83 701.546 126.724C701.8 126.618 701.99 126.47 702.117 126.28C702.244 126.089 702.308 125.869 702.308 125.62ZM708.916 119.989L706.154 128H704.485L707.963 118.758H709.03L708.916 119.989ZM711.226 128L708.458 119.989L708.338 118.758H709.411L712.902 128H711.226ZM711.093 124.572V125.835H706.065V124.572H711.093Z" fill="#0059FF"/>
<path d="M730.117 126.44C730.309 126.673 730.309 126.905 730.117 127.138C729.885 127.329 729.652 127.329 729.42 127.138L727 124.697L724.56 127.138C724.327 127.329 724.095 127.329 723.862 127.138C723.671 126.905 723.671 126.673 723.862 126.44L726.303 124L723.862 121.539C723.671 121.307 723.671 121.074 723.862 120.842C724.095 120.65 724.327 120.65 724.56 120.842L727 123.303L729.44 120.862C729.673 120.671 729.905 120.671 730.138 120.862C730.329 121.095 730.329 121.327 730.138 121.56L727.697 124L730.117 126.44Z" fill="#0059FF"/>
<rect x="741" y="112" width="77" height="24" rx="4" fill="#EBF2FF"/>
<path d="M755.398 124.991H756.985C756.935 125.596 756.765 126.136 756.478 126.61C756.19 127.08 755.786 127.45 755.265 127.721C754.745 127.992 754.112 128.127 753.367 128.127C752.796 128.127 752.282 128.025 751.825 127.822C751.368 127.615 750.976 127.323 750.65 126.946C750.325 126.565 750.075 126.106 749.901 125.569C749.732 125.031 749.647 124.431 749.647 123.766V122.998C749.647 122.334 749.734 121.733 749.908 121.195C750.085 120.658 750.339 120.199 750.669 119.818C751 119.433 751.395 119.139 751.856 118.936C752.322 118.732 752.845 118.631 753.424 118.631C754.161 118.631 754.783 118.766 755.291 119.037C755.798 119.308 756.192 119.682 756.471 120.161C756.755 120.639 756.928 121.187 756.992 121.805H755.405C755.362 121.407 755.269 121.066 755.125 120.783C754.986 120.499 754.778 120.283 754.503 120.135C754.228 119.983 753.869 119.907 753.424 119.907C753.06 119.907 752.743 119.974 752.472 120.11C752.201 120.245 751.975 120.444 751.793 120.707C751.611 120.969 751.473 121.293 751.38 121.678C751.292 122.059 751.247 122.494 751.247 122.985V123.766C751.247 124.232 751.287 124.655 751.368 125.036C751.452 125.412 751.579 125.736 751.749 126.007C751.922 126.278 752.142 126.487 752.409 126.635C752.675 126.783 752.995 126.857 753.367 126.857C753.82 126.857 754.186 126.785 754.465 126.642C754.749 126.498 754.963 126.288 755.106 126.013C755.255 125.734 755.352 125.393 755.398 124.991ZM762.152 126.623V123.347C762.152 123.102 762.108 122.89 762.019 122.712C761.93 122.535 761.795 122.397 761.613 122.3C761.435 122.202 761.211 122.154 760.94 122.154C760.69 122.154 760.474 122.196 760.292 122.281C760.111 122.365 759.969 122.48 759.867 122.624C759.766 122.767 759.715 122.93 759.715 123.112H758.191C758.191 122.841 758.257 122.579 758.388 122.325C758.519 122.071 758.71 121.845 758.959 121.646C759.209 121.447 759.507 121.291 759.854 121.176C760.201 121.062 760.591 121.005 761.022 121.005C761.539 121.005 761.996 121.092 762.394 121.265C762.796 121.439 763.111 121.701 763.339 122.052C763.572 122.399 763.688 122.835 763.688 123.36V126.413C763.688 126.726 763.71 127.008 763.752 127.257C763.799 127.503 763.864 127.716 763.949 127.898V128H762.381C762.309 127.835 762.252 127.625 762.209 127.372C762.171 127.113 762.152 126.864 762.152 126.623ZM762.375 123.823L762.387 124.769H761.289C761.006 124.769 760.756 124.797 760.54 124.852C760.324 124.902 760.144 124.979 760 125.08C759.857 125.182 759.749 125.304 759.677 125.448C759.605 125.592 759.569 125.755 759.569 125.937C759.569 126.119 759.611 126.286 759.696 126.438C759.78 126.587 759.903 126.703 760.064 126.788C760.229 126.872 760.428 126.915 760.661 126.915C760.974 126.915 761.247 126.851 761.479 126.724C761.716 126.593 761.903 126.434 762.038 126.248C762.174 126.058 762.245 125.878 762.254 125.708L762.749 126.388C762.698 126.561 762.611 126.747 762.489 126.946C762.366 127.145 762.205 127.336 762.006 127.518C761.812 127.695 761.577 127.841 761.302 127.956C761.031 128.07 760.718 128.127 760.362 128.127C759.914 128.127 759.514 128.038 759.163 127.86C758.811 127.678 758.536 127.435 758.337 127.13C758.139 126.821 758.039 126.472 758.039 126.083C758.039 125.719 758.107 125.397 758.242 125.118C758.382 124.835 758.585 124.598 758.852 124.407C759.122 124.217 759.452 124.073 759.842 123.976C760.231 123.874 760.675 123.823 761.175 123.823H762.375ZM766.805 122.598V128H765.275V121.132H766.716L766.805 122.598ZM766.532 124.312L766.037 124.306C766.041 123.819 766.109 123.373 766.24 122.966C766.376 122.56 766.562 122.211 766.799 121.919C767.04 121.627 767.328 121.403 767.662 121.246C767.996 121.085 768.369 121.005 768.779 121.005C769.109 121.005 769.408 121.051 769.674 121.145C769.945 121.233 770.176 121.379 770.366 121.583C770.561 121.786 770.709 122.05 770.811 122.376C770.912 122.698 770.963 123.093 770.963 123.563V128H769.427V123.557C769.427 123.227 769.378 122.966 769.281 122.776C769.188 122.581 769.05 122.444 768.868 122.363C768.69 122.279 768.468 122.236 768.202 122.236C767.939 122.236 767.704 122.291 767.497 122.401C767.29 122.511 767.114 122.662 766.97 122.852C766.831 123.042 766.723 123.263 766.646 123.512C766.57 123.762 766.532 124.028 766.532 124.312ZM776.396 126.623V123.347C776.396 123.102 776.352 122.89 776.263 122.712C776.174 122.535 776.039 122.397 775.857 122.3C775.679 122.202 775.455 122.154 775.184 122.154C774.934 122.154 774.719 122.196 774.537 122.281C774.355 122.365 774.213 122.48 774.111 122.624C774.01 122.767 773.959 122.93 773.959 123.112H772.436C772.436 122.841 772.501 122.579 772.632 122.325C772.764 122.071 772.954 121.845 773.204 121.646C773.453 121.447 773.752 121.291 774.099 121.176C774.446 121.062 774.835 121.005 775.267 121.005C775.783 121.005 776.24 121.092 776.638 121.265C777.04 121.439 777.355 121.701 777.583 122.052C777.816 122.399 777.933 122.835 777.933 123.36V126.413C777.933 126.726 777.954 127.008 777.996 127.257C778.043 127.503 778.108 127.716 778.193 127.898V128H776.625C776.553 127.835 776.496 127.625 776.454 127.372C776.416 127.113 776.396 126.864 776.396 126.623ZM776.619 123.823L776.631 124.769H775.533C775.25 124.769 775 124.797 774.784 124.852C774.568 124.902 774.389 124.979 774.245 125.08C774.101 125.182 773.993 125.304 773.921 125.448C773.849 125.592 773.813 125.755 773.813 125.937C773.813 126.119 773.855 126.286 773.94 126.438C774.025 126.587 774.147 126.703 774.308 126.788C774.473 126.872 774.672 126.915 774.905 126.915C775.218 126.915 775.491 126.851 775.724 126.724C775.961 126.593 776.147 126.434 776.282 126.248C776.418 126.058 776.49 125.878 776.498 125.708L776.993 126.388C776.942 126.561 776.856 126.747 776.733 126.946C776.61 127.145 776.449 127.336 776.25 127.518C776.056 127.695 775.821 127.841 775.546 127.956C775.275 128.07 774.962 128.127 774.606 128.127C774.158 128.127 773.758 128.038 773.407 127.86C773.056 127.678 772.78 127.435 772.582 127.13C772.383 126.821 772.283 126.472 772.283 126.083C772.283 125.719 772.351 125.397 772.486 125.118C772.626 124.835 772.829 124.598 773.096 124.407C773.367 124.217 773.697 124.073 774.086 123.976C774.475 123.874 774.92 123.823 775.419 123.823H776.619ZM783.722 126.578V118.25H785.258V128H783.868L783.722 126.578ZM779.253 124.642V124.509C779.253 123.988 779.314 123.514 779.437 123.087C779.56 122.655 779.737 122.285 779.97 121.976C780.203 121.663 780.486 121.424 780.821 121.259C781.155 121.09 781.532 121.005 781.951 121.005C782.365 121.005 782.729 121.085 783.042 121.246C783.356 121.407 783.622 121.638 783.842 121.938C784.062 122.234 784.238 122.59 784.369 123.004C784.5 123.415 784.593 123.872 784.648 124.375V124.801C784.593 125.292 784.5 125.74 784.369 126.146C784.238 126.553 784.062 126.904 783.842 127.2C783.622 127.496 783.354 127.725 783.036 127.886C782.723 128.047 782.357 128.127 781.938 128.127C781.523 128.127 781.149 128.04 780.814 127.867C780.484 127.693 780.203 127.45 779.97 127.137C779.737 126.824 779.56 126.455 779.437 126.032C779.314 125.605 779.253 125.141 779.253 124.642ZM780.783 124.509V124.642C780.783 124.955 780.81 125.247 780.865 125.518C780.924 125.789 781.015 126.028 781.138 126.235C781.261 126.438 781.42 126.599 781.614 126.718C781.813 126.832 782.05 126.889 782.325 126.889C782.672 126.889 782.958 126.813 783.182 126.661C783.406 126.508 783.582 126.303 783.709 126.045C783.84 125.783 783.929 125.491 783.976 125.169V124.02C783.95 123.77 783.897 123.538 783.817 123.322C783.741 123.106 783.637 122.918 783.506 122.757C783.375 122.592 783.212 122.465 783.017 122.376C782.827 122.283 782.6 122.236 782.338 122.236C782.059 122.236 781.822 122.296 781.627 122.414C781.432 122.533 781.271 122.695 781.145 122.903C781.022 123.11 780.931 123.351 780.872 123.626C780.812 123.902 780.783 124.196 780.783 124.509ZM790.729 126.623V123.347C790.729 123.102 790.685 122.89 790.596 122.712C790.507 122.535 790.372 122.397 790.19 122.3C790.012 122.202 789.788 122.154 789.517 122.154C789.267 122.154 789.052 122.196 788.87 122.281C788.688 122.365 788.546 122.48 788.444 122.624C788.343 122.767 788.292 122.93 788.292 123.112H786.769C786.769 122.841 786.834 122.579 786.965 122.325C787.097 122.071 787.287 121.845 787.537 121.646C787.786 121.447 788.085 121.291 788.432 121.176C788.779 121.062 789.168 121.005 789.6 121.005C790.116 121.005 790.573 121.092 790.971 121.265C791.373 121.439 791.688 121.701 791.917 122.052C792.149 122.399 792.266 122.835 792.266 123.36V126.413C792.266 126.726 792.287 127.008 792.329 127.257C792.376 127.503 792.441 127.716 792.526 127.898V128H790.958C790.886 127.835 790.829 127.625 790.787 127.372C790.749 127.113 790.729 126.864 790.729 126.623ZM790.952 123.823L790.964 124.769H789.866C789.583 124.769 789.333 124.797 789.117 124.852C788.901 124.902 788.722 124.979 788.578 125.08C788.434 125.182 788.326 125.304 788.254 125.448C788.182 125.592 788.146 125.755 788.146 125.937C788.146 126.119 788.188 126.286 788.273 126.438C788.358 126.587 788.48 126.703 788.641 126.788C788.806 126.872 789.005 126.915 789.238 126.915C789.551 126.915 789.824 126.851 790.057 126.724C790.294 126.593 790.48 126.434 790.615 126.248C790.751 126.058 790.823 125.878 790.831 125.708L791.326 126.388C791.275 126.561 791.189 126.747 791.066 126.946C790.943 127.145 790.782 127.336 790.583 127.518C790.389 127.695 790.154 127.841 789.879 127.956C789.608 128.07 789.295 128.127 788.939 128.127C788.491 128.127 788.091 128.038 787.74 127.86C787.389 127.678 787.113 127.435 786.915 127.13C786.716 126.821 786.616 126.472 786.616 126.083C786.616 125.719 786.684 125.397 786.819 125.118C786.959 124.835 787.162 124.598 787.429 124.407C787.7 124.217 788.03 124.073 788.419 123.976C788.808 123.874 789.253 123.823 789.752 123.823H790.952Z" fill="#0059FF"/>
<path d="M811.117 126.44C811.309 126.673 811.309 126.905 811.117 127.138C810.885 127.329 810.652 127.329 810.42 127.138L808 124.697L805.56 127.138C805.327 127.329 805.095 127.329 804.862 127.138C804.671 126.905 804.671 126.673 804.862 126.44L807.303 124L804.862 121.539C804.671 121.307 804.671 121.074 804.862 120.842C805.095 120.65 805.327 120.65 805.56 120.842L808 123.303L810.44 120.862C810.673 120.671 810.905 120.671 811.138 120.862C811.329 121.095 811.329 121.327 811.138 121.56L808.697 124L811.117 126.44Z" fill="#0059FF"/>
<path d="M1197 124C1197.02 122.688 1197.34 121.512 1197.96 120.473C1198.58 119.415 1199.42 118.577 1200.47 117.957C1201.51 117.337 1202.69 117.018 1204 117C1205.31 117.018 1206.49 117.337 1207.53 117.957C1208.58 118.577 1209.42 119.415 1210.04 120.473C1210.66 121.512 1210.98 122.688 1211 124C1210.98 125.312 1210.66 126.488 1210.04 127.527C1209.42 128.585 1208.58 129.423 1207.53 130.043C1206.49 130.663 1205.31 130.982 1204 131C1202.69 130.982 1201.51 130.663 1200.47 130.043C1199.42 129.423 1198.58 128.585 1197.96 127.527C1197.34 126.488 1197.02 125.312 1197 124ZM1201.79 122.688L1203.07 123.973L1201.79 125.285C1201.53 125.595 1201.53 125.896 1201.79 126.188C1202.1 126.461 1202.4 126.461 1202.69 126.188L1203.97 124.93L1205.29 126.188C1205.6 126.461 1205.9 126.461 1206.19 126.188C1206.46 125.896 1206.46 125.595 1206.19 125.285L1204.93 123.973L1206.19 122.688C1206.46 122.396 1206.46 122.095 1206.19 121.785C1205.9 121.53 1205.6 121.53 1205.29 121.785L1203.97 123.07L1202.69 121.785C1202.4 121.53 1202.1 121.53 1201.79 121.785C1201.53 122.095 1201.53 122.396 1201.79 122.688Z" fill="#AAAAAA"/>
<path d="M1233.71 122.715L1228.49 127.719C1228.31 127.865 1228.15 127.938 1228 127.938C1227.84 127.938 1227.68 127.874 1227.54 127.746L1222.29 122.715C1222.16 122.587 1222.09 122.432 1222.09 122.25C1222.09 122.068 1222.16 121.913 1222.29 121.785C1222.58 121.53 1222.89 121.53 1223.21 121.785L1228 126.379L1232.79 121.785C1233.11 121.53 1233.42 121.539 1233.71 121.812C1233.84 121.922 1233.91 122.068 1233.91 122.25C1233.91 122.432 1233.84 122.587 1233.71 122.715Z" fill="#737373"/>
</g>
<path d="M0.5 16C0.5 7.43958 7.43959 0.5 16 0.5H1264C1272.56 0.5 1279.5 7.43959 1279.5 16V160C1279.5 168.56 1272.56 175.5 1264 175.5H16C7.43957 175.5 0.5 168.56 0.5 160V16Z" stroke="#E6E6E6"/>
<defs>
<clipPath id="clip0_13264_3073">
<path d="M0 16C0 7.16344 7.16344 0 16 0H1264C1272.84 0 1280 7.16344 1280 16V160C1280 168.837 1272.84 176 1264 176H16C7.16343 176 0 168.837 0 160V16Z" fill="white"/>
</clipPath>
</defs>
</svg>
