<svg width="803" height="406" viewBox="0 0 803 406" fill="none" xmlns="http://www.w3.org/2000/svg">
<g clip-path="url(#clip0_2851_47256)">
<rect width="803" height="406" rx="4" fill="#F8F8F8"/>
<g opacity="0.33" filter="url(#filter0_dddddd_2851_47256)">
<rect x="90.7126" y="40.6021" width="593.242" height="324.931" rx="8" fill="white"/>
</g>
<rect width="480" height="245" transform="translate(138.002 83)" fill="white"/>
<mask id="path-3-inside-1_2851_47256" fill="white">
<path d="M138.002 87C138.002 84.7909 139.793 83 142.002 83H614.002C616.211 83 618.002 84.7909 618.002 87V123H138.002V87Z"/>
</mask>
<path d="M138.002 87C138.002 84.7909 139.793 83 142.002 83H614.002C616.211 83 618.002 84.7909 618.002 87V123H138.002V87Z" fill="white"/>
<rect x="146.002" y="91" width="79" height="24" rx="4" fill="#EAF1FE"/>
<path d="M158.54 98.9893L155.779 107H154.11L157.588 97.7578H158.655L158.54 98.9893ZM160.851 107L158.083 98.9893L157.963 97.7578H159.035L162.527 107H160.851ZM160.718 103.572V104.835H155.69V103.572H160.718ZM164.812 101.598V107H163.282V100.132H164.723L164.812 101.598ZM164.539 103.312L164.044 103.306C164.048 102.819 164.116 102.373 164.247 101.966C164.382 101.56 164.568 101.211 164.805 100.919C165.047 100.627 165.334 100.403 165.669 100.246C166.003 100.085 166.375 100.005 166.786 100.005C167.116 100.005 167.414 100.051 167.681 100.145C167.952 100.233 168.182 100.379 168.373 100.583C168.567 100.786 168.716 101.05 168.817 101.376C168.919 101.698 168.969 102.093 168.969 102.563V107H167.433V102.557C167.433 102.227 167.385 101.966 167.287 101.776C167.194 101.581 167.057 101.444 166.875 101.363C166.697 101.279 166.475 101.236 166.208 101.236C165.946 101.236 165.711 101.291 165.504 101.401C165.296 101.511 165.121 101.662 164.977 101.852C164.837 102.042 164.729 102.263 164.653 102.512C164.577 102.762 164.539 103.028 164.539 103.312ZM174.72 105.578V97.25H176.257V107H174.866L174.72 105.578ZM170.252 103.642V103.509C170.252 102.988 170.313 102.514 170.436 102.087C170.559 101.655 170.736 101.285 170.969 100.976C171.202 100.663 171.485 100.424 171.82 100.259C172.154 100.09 172.531 100.005 172.949 100.005C173.364 100.005 173.728 100.085 174.041 100.246C174.354 100.407 174.621 100.638 174.841 100.938C175.061 101.234 175.237 101.59 175.368 102.004C175.499 102.415 175.592 102.872 175.647 103.375V103.801C175.592 104.292 175.499 104.74 175.368 105.146C175.237 105.553 175.061 105.904 174.841 106.2C174.621 106.496 174.352 106.725 174.035 106.886C173.722 107.047 173.356 107.127 172.937 107.127C172.522 107.127 172.148 107.04 171.813 106.867C171.483 106.693 171.202 106.45 170.969 106.137C170.736 105.824 170.559 105.455 170.436 105.032C170.313 104.605 170.252 104.141 170.252 103.642ZM171.781 103.509V103.642C171.781 103.955 171.809 104.247 171.864 104.518C171.923 104.789 172.014 105.028 172.137 105.235C172.26 105.438 172.418 105.599 172.613 105.718C172.812 105.832 173.049 105.889 173.324 105.889C173.671 105.889 173.957 105.813 174.181 105.661C174.405 105.508 174.581 105.303 174.708 105.045C174.839 104.783 174.928 104.491 174.974 104.169V103.02C174.949 102.77 174.896 102.538 174.816 102.322C174.74 102.106 174.636 101.918 174.505 101.757C174.373 101.592 174.211 101.465 174.016 101.376C173.825 101.283 173.599 101.236 173.337 101.236C173.057 101.236 172.82 101.296 172.626 101.414C172.431 101.533 172.27 101.695 172.143 101.903C172.021 102.11 171.93 102.351 171.87 102.626C171.811 102.902 171.781 103.196 171.781 103.509ZM177.564 103.642V103.496C177.564 103.001 177.636 102.542 177.78 102.119C177.924 101.691 178.131 101.321 178.402 101.008C178.677 100.69 179.011 100.445 179.405 100.271C179.803 100.094 180.251 100.005 180.751 100.005C181.254 100.005 181.703 100.094 182.096 100.271C182.494 100.445 182.831 100.69 183.106 101.008C183.381 101.321 183.59 101.691 183.734 102.119C183.878 102.542 183.95 103.001 183.95 103.496V103.642C183.95 104.137 183.878 104.596 183.734 105.02C183.59 105.443 183.381 105.813 183.106 106.13C182.831 106.444 182.496 106.689 182.103 106.867C181.709 107.04 181.263 107.127 180.763 107.127C180.26 107.127 179.809 107.04 179.411 106.867C179.018 106.689 178.684 106.444 178.408 106.13C178.133 105.813 177.924 105.443 177.78 105.02C177.636 104.596 177.564 104.137 177.564 103.642ZM179.094 103.496V103.642C179.094 103.951 179.126 104.243 179.189 104.518C179.253 104.793 179.352 105.034 179.488 105.242C179.623 105.449 179.796 105.612 180.008 105.73C180.22 105.849 180.471 105.908 180.763 105.908C181.047 105.908 181.292 105.849 181.5 105.73C181.711 105.612 181.885 105.449 182.02 105.242C182.156 105.034 182.255 104.793 182.319 104.518C182.386 104.243 182.42 103.951 182.42 103.642V103.496C182.42 103.191 182.386 102.904 182.319 102.633C182.255 102.358 182.154 102.114 182.014 101.903C181.878 101.691 181.705 101.526 181.493 101.408C181.286 101.285 181.038 101.224 180.751 101.224C180.463 101.224 180.213 101.285 180.002 101.408C179.794 101.526 179.623 101.691 179.488 101.903C179.352 102.114 179.253 102.358 179.189 102.633C179.126 102.904 179.094 103.191 179.094 103.496ZM186.768 101.439V107H185.239V100.132H186.698L186.768 101.439ZM188.869 100.087L188.857 101.509C188.764 101.492 188.662 101.48 188.552 101.471C188.446 101.463 188.34 101.458 188.235 101.458C187.972 101.458 187.742 101.497 187.543 101.573C187.344 101.645 187.177 101.75 187.041 101.89C186.91 102.026 186.809 102.191 186.737 102.385C186.665 102.58 186.622 102.798 186.61 103.039L186.26 103.064C186.26 102.633 186.303 102.233 186.387 101.865C186.472 101.497 186.599 101.173 186.768 100.894C186.942 100.614 187.158 100.396 187.416 100.24C187.678 100.083 187.981 100.005 188.323 100.005C188.417 100.005 188.516 100.013 188.622 100.03C188.732 100.047 188.814 100.066 188.869 100.087ZM191.364 101.439V107H189.834V100.132H191.294L191.364 101.439ZM193.465 100.087L193.452 101.509C193.359 101.492 193.258 101.48 193.148 101.471C193.042 101.463 192.936 101.458 192.83 101.458C192.568 101.458 192.337 101.497 192.138 101.573C191.94 101.645 191.772 101.75 191.637 101.89C191.506 102.026 191.404 102.191 191.332 102.385C191.26 102.58 191.218 102.798 191.205 103.039L190.856 103.064C190.856 102.633 190.899 102.233 190.983 101.865C191.068 101.497 191.195 101.173 191.364 100.894C191.538 100.614 191.753 100.396 192.011 100.24C192.274 100.083 192.576 100.005 192.919 100.005C193.012 100.005 193.112 100.013 193.218 100.03C193.328 100.047 193.41 100.066 193.465 100.087ZM198.067 105.623V102.347C198.067 102.102 198.023 101.89 197.934 101.712C197.845 101.535 197.71 101.397 197.528 101.3C197.35 101.202 197.126 101.154 196.855 101.154C196.605 101.154 196.389 101.196 196.207 101.281C196.025 101.365 195.884 101.48 195.782 101.624C195.68 101.767 195.63 101.93 195.63 102.112H194.106C194.106 101.841 194.172 101.579 194.303 101.325C194.434 101.071 194.625 100.845 194.874 100.646C195.124 100.447 195.422 100.291 195.769 100.176C196.116 100.062 196.506 100.005 196.937 100.005C197.454 100.005 197.911 100.092 198.308 100.265C198.71 100.439 199.026 100.701 199.254 101.052C199.487 101.399 199.603 101.835 199.603 102.36V105.413C199.603 105.726 199.624 106.008 199.667 106.257C199.713 106.503 199.779 106.716 199.864 106.898V107H198.296C198.224 106.835 198.167 106.625 198.124 106.372C198.086 106.113 198.067 105.864 198.067 105.623ZM198.289 102.823L198.302 103.769H197.204C196.92 103.769 196.671 103.797 196.455 103.852C196.239 103.902 196.059 103.979 195.915 104.08C195.771 104.182 195.663 104.304 195.592 104.448C195.52 104.592 195.484 104.755 195.484 104.937C195.484 105.119 195.526 105.286 195.611 105.438C195.695 105.587 195.818 105.703 195.979 105.788C196.144 105.872 196.343 105.915 196.575 105.915C196.889 105.915 197.162 105.851 197.394 105.724C197.631 105.593 197.817 105.434 197.953 105.248C198.088 105.058 198.16 104.878 198.169 104.708L198.664 105.388C198.613 105.561 198.526 105.747 198.404 105.946C198.281 106.145 198.12 106.336 197.921 106.518C197.726 106.695 197.492 106.841 197.217 106.956C196.946 107.07 196.633 107.127 196.277 107.127C195.829 107.127 195.429 107.038 195.077 106.86C194.726 106.678 194.451 106.435 194.252 106.13C194.053 105.821 193.954 105.472 193.954 105.083C193.954 104.719 194.022 104.397 194.157 104.118C194.297 103.835 194.5 103.598 194.766 103.407C195.037 103.217 195.367 103.073 195.757 102.976C196.146 102.874 196.59 102.823 197.09 102.823H198.289Z" fill="#286EF1"/>
<path d="M219.756 106.723C220.049 107.015 220.049 107.489 219.756 107.781C219.463 108.073 218.988 108.073 218.695 107.781L215.002 104.071L211.283 107.78C210.99 108.072 210.515 108.072 210.222 107.78C209.93 107.488 209.93 107.014 210.222 106.722L213.943 103.014L210.221 99.2769C209.929 98.9849 209.929 98.5111 210.221 98.219C210.514 97.927 210.989 97.927 211.282 98.219L215.002 101.957L218.721 98.2483C219.014 97.9563 219.489 97.9563 219.782 98.2483C220.075 98.5403 220.075 99.0141 219.782 99.3062L216.062 103.014L219.756 106.723Z" fill="#286EF1"/>
<rect x="229.002" y="91" width="73" height="24" rx="4" fill="#EAF1FE"/>
<path d="M241.54 98.9893L238.779 107H237.11L240.588 97.7578H241.655L241.54 98.9893ZM243.851 107L241.083 98.9893L240.963 97.7578H242.035L245.527 107H243.851ZM243.718 103.572V104.835H238.69V103.572H243.718ZM247.812 101.598V107H246.282V100.132H247.723L247.812 101.598ZM247.539 103.312L247.044 103.306C247.048 102.819 247.116 102.373 247.247 101.966C247.382 101.56 247.568 101.211 247.805 100.919C248.047 100.627 248.334 100.403 248.669 100.246C249.003 100.085 249.375 100.005 249.786 100.005C250.116 100.005 250.414 100.051 250.681 100.145C250.952 100.233 251.182 100.379 251.373 100.583C251.567 100.786 251.716 101.05 251.817 101.376C251.919 101.698 251.969 102.093 251.969 102.563V107H250.433V102.557C250.433 102.227 250.385 101.966 250.287 101.776C250.194 101.581 250.057 101.444 249.875 101.363C249.697 101.279 249.475 101.236 249.208 101.236C248.946 101.236 248.711 101.291 248.504 101.401C248.296 101.511 248.121 101.662 247.977 101.852C247.837 102.042 247.729 102.263 247.653 102.512C247.577 102.762 247.539 103.028 247.539 103.312ZM257.93 100.132H259.32V106.81C259.32 107.427 259.189 107.952 258.927 108.384C258.664 108.815 258.298 109.143 257.828 109.368C257.359 109.596 256.815 109.71 256.197 109.71C255.935 109.71 255.643 109.672 255.321 109.596C255.004 109.52 254.695 109.397 254.394 109.228C254.098 109.063 253.851 108.845 253.652 108.574L254.369 107.673C254.614 107.965 254.885 108.179 255.181 108.314C255.478 108.449 255.789 108.517 256.115 108.517C256.466 108.517 256.764 108.451 257.01 108.32C257.259 108.193 257.452 108.005 257.587 107.755C257.723 107.506 257.79 107.201 257.79 106.841V101.687L257.93 100.132ZM253.264 103.642V103.509C253.264 102.988 253.328 102.514 253.455 102.087C253.582 101.655 253.764 101.285 254.001 100.976C254.238 100.663 254.525 100.424 254.864 100.259C255.203 100.09 255.586 100.005 256.013 100.005C256.457 100.005 256.836 100.085 257.149 100.246C257.467 100.407 257.731 100.638 257.943 100.938C258.154 101.234 258.319 101.59 258.438 102.004C258.56 102.415 258.651 102.872 258.711 103.375V103.801C258.656 104.292 258.563 104.74 258.431 105.146C258.3 105.553 258.127 105.904 257.911 106.2C257.695 106.496 257.428 106.725 257.111 106.886C256.798 107.047 256.428 107.127 256 107.127C255.581 107.127 255.203 107.04 254.864 106.867C254.53 106.693 254.242 106.45 254.001 106.137C253.764 105.824 253.582 105.455 253.455 105.032C253.328 104.605 253.264 104.141 253.264 103.642ZM254.794 103.509V103.642C254.794 103.955 254.824 104.247 254.883 104.518C254.947 104.789 255.042 105.028 255.169 105.235C255.3 105.438 255.465 105.599 255.664 105.718C255.867 105.832 256.106 105.889 256.381 105.889C256.741 105.889 257.035 105.813 257.263 105.661C257.496 105.508 257.674 105.303 257.797 105.045C257.924 104.783 258.012 104.491 258.063 104.169V103.02C258.038 102.77 257.985 102.538 257.905 102.322C257.828 102.106 257.725 101.918 257.594 101.757C257.462 101.592 257.297 101.465 257.098 101.376C256.899 101.283 256.665 101.236 256.394 101.236C256.119 101.236 255.88 101.296 255.677 101.414C255.473 101.533 255.306 101.695 255.175 101.903C255.048 102.11 254.953 102.351 254.889 102.626C254.826 102.902 254.794 103.196 254.794 103.509ZM260.615 103.642V103.496C260.615 103.001 260.687 102.542 260.831 102.119C260.975 101.691 261.182 101.321 261.453 101.008C261.728 100.69 262.062 100.445 262.456 100.271C262.854 100.094 263.302 100.005 263.802 100.005C264.305 100.005 264.754 100.094 265.147 100.271C265.545 100.445 265.881 100.69 266.156 101.008C266.432 101.321 266.641 101.691 266.785 102.119C266.929 102.542 267.001 103.001 267.001 103.496V103.642C267.001 104.137 266.929 104.596 266.785 105.02C266.641 105.443 266.432 105.813 266.156 106.13C265.881 106.444 265.547 106.689 265.154 106.867C264.76 107.04 264.314 107.127 263.814 107.127C263.311 107.127 262.86 107.04 262.462 106.867C262.069 106.689 261.734 106.444 261.459 106.13C261.184 105.813 260.975 105.443 260.831 105.02C260.687 104.596 260.615 104.137 260.615 103.642ZM262.145 103.496V103.642C262.145 103.951 262.177 104.243 262.24 104.518C262.303 104.793 262.403 105.034 262.538 105.242C262.674 105.449 262.847 105.612 263.059 105.73C263.27 105.849 263.522 105.908 263.814 105.908C264.098 105.908 264.343 105.849 264.551 105.73C264.762 105.612 264.936 105.449 265.071 105.242C265.206 105.034 265.306 104.793 265.369 104.518C265.437 104.243 265.471 103.951 265.471 103.642V103.496C265.471 103.191 265.437 102.904 265.369 102.633C265.306 102.358 265.204 102.114 265.065 101.903C264.929 101.691 264.756 101.526 264.544 101.408C264.337 101.285 264.089 101.224 263.802 101.224C263.514 101.224 263.264 101.285 263.052 101.408C262.845 101.526 262.674 101.691 262.538 101.903C262.403 102.114 262.303 102.358 262.24 102.633C262.177 102.904 262.145 103.191 262.145 103.496ZM269.921 97.25V107H268.385V97.25H269.921ZM275.469 105.623V102.347C275.469 102.102 275.424 101.89 275.335 101.712C275.246 101.535 275.111 101.397 274.929 101.3C274.751 101.202 274.527 101.154 274.256 101.154C274.006 101.154 273.791 101.196 273.609 101.281C273.427 101.365 273.285 101.48 273.183 101.624C273.082 101.767 273.031 101.93 273.031 102.112H271.508C271.508 101.841 271.573 101.579 271.704 101.325C271.836 101.071 272.026 100.845 272.276 100.646C272.525 100.447 272.824 100.291 273.171 100.176C273.518 100.062 273.907 100.005 274.339 100.005C274.855 100.005 275.312 100.092 275.71 100.265C276.112 100.439 276.427 100.701 276.656 101.052C276.888 101.399 277.005 101.835 277.005 102.36V105.413C277.005 105.726 277.026 106.008 277.068 106.257C277.115 106.503 277.18 106.716 277.265 106.898V107H275.697C275.625 106.835 275.568 106.625 275.526 106.372C275.488 106.113 275.469 105.864 275.469 105.623ZM275.691 102.823L275.703 103.769H274.605C274.322 103.769 274.072 103.797 273.856 103.852C273.64 103.902 273.461 103.979 273.317 104.08C273.173 104.182 273.065 104.304 272.993 104.448C272.921 104.592 272.885 104.755 272.885 104.937C272.885 105.119 272.927 105.286 273.012 105.438C273.097 105.587 273.219 105.703 273.38 105.788C273.545 105.872 273.744 105.915 273.977 105.915C274.29 105.915 274.563 105.851 274.796 105.724C275.033 105.593 275.219 105.434 275.354 105.248C275.49 105.058 275.562 104.878 275.57 104.708L276.065 105.388C276.014 105.561 275.928 105.747 275.805 105.946C275.682 106.145 275.521 106.336 275.323 106.518C275.128 106.695 274.893 106.841 274.618 106.956C274.347 107.07 274.034 107.127 273.678 107.127C273.23 107.127 272.83 107.038 272.479 106.86C272.128 106.678 271.852 106.435 271.654 106.13C271.455 105.821 271.355 105.472 271.355 105.083C271.355 104.719 271.423 104.397 271.558 104.118C271.698 103.835 271.901 103.598 272.168 103.407C272.439 103.217 272.769 103.073 273.158 102.976C273.547 102.874 273.992 102.823 274.491 102.823H275.691Z" fill="#286EF1"/>
<path d="M296.756 106.723C297.049 107.015 297.049 107.489 296.756 107.781C296.463 108.073 295.988 108.073 295.695 107.781L292.002 104.071L288.283 107.78C287.99 108.072 287.515 108.072 287.222 107.78C286.93 107.488 286.93 107.014 287.222 106.722L290.943 103.014L287.221 99.2769C286.929 98.9849 286.929 98.5111 287.221 98.219C287.514 97.927 287.989 97.927 288.282 98.219L292.002 101.957L295.721 98.2483C296.014 97.9563 296.489 97.9563 296.782 98.2483C297.075 98.5403 297.075 99.0141 296.782 99.3062L293.062 103.014L296.756 106.723Z" fill="#286EF1"/>
<rect x="306.002" y="91" width="88" height="24" rx="4" fill="#EAF1FE"/>
<path d="M320.4 103.991H321.987C321.936 104.596 321.767 105.136 321.479 105.61C321.191 106.08 320.787 106.45 320.267 106.721C319.746 106.992 319.114 107.127 318.369 107.127C317.798 107.127 317.283 107.025 316.826 106.822C316.369 106.615 315.978 106.323 315.652 105.946C315.326 105.565 315.077 105.106 314.903 104.569C314.734 104.031 314.649 103.431 314.649 102.766V101.998C314.649 101.334 314.736 100.733 314.909 100.195C315.087 99.6579 315.341 99.1987 315.671 98.8179C316.001 98.4328 316.397 98.1387 316.858 97.9355C317.324 97.7324 317.846 97.6309 318.426 97.6309C319.162 97.6309 319.784 97.7663 320.292 98.0371C320.8 98.3079 321.194 98.6825 321.473 99.1606C321.756 99.6388 321.93 100.187 321.993 100.805H320.406C320.364 100.407 320.271 100.066 320.127 99.7827C319.988 99.4992 319.78 99.2834 319.505 99.1353C319.23 98.9829 318.87 98.9067 318.426 98.9067C318.062 98.9067 317.745 98.9744 317.474 99.1099C317.203 99.2453 316.977 99.4442 316.795 99.7065C316.613 99.9689 316.475 100.293 316.382 100.678C316.293 101.059 316.249 101.494 316.249 101.985V102.766C316.249 103.232 316.289 103.655 316.369 104.036C316.454 104.412 316.581 104.736 316.75 105.007C316.924 105.278 317.144 105.487 317.41 105.635C317.677 105.783 317.997 105.857 318.369 105.857C318.822 105.857 319.188 105.785 319.467 105.642C319.751 105.498 319.964 105.288 320.108 105.013C320.256 104.734 320.354 104.393 320.4 103.991ZM327.154 105.623V102.347C327.154 102.102 327.11 101.89 327.021 101.712C326.932 101.535 326.796 101.397 326.615 101.3C326.437 101.202 326.212 101.154 325.942 101.154C325.692 101.154 325.476 101.196 325.294 101.281C325.112 101.365 324.97 101.48 324.869 101.624C324.767 101.767 324.717 101.93 324.717 102.112H323.193C323.193 101.841 323.259 101.579 323.39 101.325C323.521 101.071 323.712 100.845 323.961 100.646C324.211 100.447 324.509 100.291 324.856 100.176C325.203 100.062 325.593 100.005 326.024 100.005C326.54 100.005 326.997 100.092 327.395 100.265C327.797 100.439 328.113 100.701 328.341 101.052C328.574 101.399 328.69 101.835 328.69 102.36V105.413C328.69 105.726 328.711 106.008 328.754 106.257C328.8 106.503 328.866 106.716 328.95 106.898V107H327.383C327.311 106.835 327.253 106.625 327.211 106.372C327.173 106.113 327.154 105.864 327.154 105.623ZM327.376 102.823L327.389 103.769H326.291C326.007 103.769 325.758 103.797 325.542 103.852C325.326 103.902 325.146 103.979 325.002 104.08C324.858 104.182 324.75 104.304 324.678 104.448C324.607 104.592 324.571 104.755 324.571 104.937C324.571 105.119 324.613 105.286 324.698 105.438C324.782 105.587 324.905 105.703 325.066 105.788C325.231 105.872 325.43 105.915 325.662 105.915C325.976 105.915 326.248 105.851 326.481 105.724C326.718 105.593 326.904 105.434 327.04 105.248C327.175 105.058 327.247 104.878 327.256 104.708L327.751 105.388C327.7 105.561 327.613 105.747 327.49 105.946C327.368 106.145 327.207 106.336 327.008 106.518C326.813 106.695 326.579 106.841 326.303 106.956C326.033 107.07 325.719 107.127 325.364 107.127C324.915 107.127 324.516 107.038 324.164 106.86C323.813 106.678 323.538 106.435 323.339 106.13C323.14 105.821 323.041 105.472 323.041 105.083C323.041 104.719 323.108 104.397 323.244 104.118C323.384 103.835 323.587 103.598 323.853 103.407C324.124 103.217 324.454 103.073 324.844 102.976C325.233 102.874 325.677 102.823 326.177 102.823H327.376ZM333.438 100.132V101.249H329.566V100.132H333.438ZM330.683 98.4497H332.213V105.102C332.213 105.314 332.243 105.477 332.302 105.591C332.365 105.701 332.452 105.775 332.562 105.813C332.672 105.851 332.801 105.87 332.949 105.87C333.055 105.87 333.157 105.864 333.254 105.851C333.351 105.838 333.43 105.826 333.489 105.813L333.495 106.981C333.368 107.019 333.22 107.053 333.051 107.083C332.886 107.112 332.696 107.127 332.48 107.127C332.128 107.127 331.817 107.066 331.547 106.943C331.276 106.816 331.064 106.611 330.912 106.327C330.76 106.044 330.683 105.667 330.683 105.197V98.4497ZM338.491 105.623V102.347C338.491 102.102 338.447 101.89 338.358 101.712C338.269 101.535 338.133 101.397 337.951 101.3C337.774 101.202 337.549 101.154 337.279 101.154C337.029 101.154 336.813 101.196 336.631 101.281C336.449 101.365 336.307 101.48 336.206 101.624C336.104 101.767 336.053 101.93 336.053 102.112H334.53C334.53 101.841 334.596 101.579 334.727 101.325C334.858 101.071 335.048 100.845 335.298 100.646C335.548 100.447 335.846 100.291 336.193 100.176C336.54 100.062 336.929 100.005 337.361 100.005C337.877 100.005 338.334 100.092 338.732 100.265C339.134 100.439 339.449 100.701 339.678 101.052C339.911 101.399 340.027 101.835 340.027 102.36V105.413C340.027 105.726 340.048 106.008 340.091 106.257C340.137 106.503 340.203 106.716 340.287 106.898V107H338.719C338.648 106.835 338.59 106.625 338.548 106.372C338.51 106.113 338.491 105.864 338.491 105.623ZM338.713 102.823L338.726 103.769H337.628C337.344 103.769 337.094 103.797 336.879 103.852C336.663 103.902 336.483 103.979 336.339 104.08C336.195 104.182 336.087 104.304 336.015 104.448C335.943 104.592 335.907 104.755 335.907 104.937C335.907 105.119 335.95 105.286 336.034 105.438C336.119 105.587 336.242 105.703 336.403 105.788C336.568 105.872 336.767 105.915 336.999 105.915C337.312 105.915 337.585 105.851 337.818 105.724C338.055 105.593 338.241 105.434 338.377 105.248C338.512 105.058 338.584 104.878 338.593 104.708L339.088 105.388C339.037 105.561 338.95 105.747 338.827 105.946C338.705 106.145 338.544 106.336 338.345 106.518C338.15 106.695 337.915 106.841 337.64 106.956C337.37 107.07 337.056 107.127 336.701 107.127C336.252 107.127 335.852 107.038 335.501 106.86C335.15 106.678 334.875 106.435 334.676 106.13C334.477 105.821 334.378 105.472 334.378 105.083C334.378 104.719 334.445 104.397 334.581 104.118C334.72 103.835 334.924 103.598 335.19 103.407C335.461 103.217 335.791 103.073 336.18 102.976C336.57 102.874 337.014 102.823 337.513 102.823H338.713ZM343.264 97.25V107H341.728V97.25H343.264ZM344.648 103.642V103.496C344.648 103.001 344.72 102.542 344.864 102.119C345.008 101.691 345.215 101.321 345.486 101.008C345.761 100.69 346.095 100.445 346.489 100.271C346.887 100.094 347.335 100.005 347.835 100.005C348.338 100.005 348.787 100.094 349.18 100.271C349.578 100.445 349.915 100.69 350.19 101.008C350.465 101.321 350.674 101.691 350.818 102.119C350.962 102.542 351.034 103.001 351.034 103.496V103.642C351.034 104.137 350.962 104.596 350.818 105.02C350.674 105.443 350.465 105.813 350.19 106.13C349.915 106.444 349.58 106.689 349.187 106.867C348.793 107.04 348.347 107.127 347.847 107.127C347.344 107.127 346.893 107.04 346.495 106.867C346.102 106.689 345.767 106.444 345.492 106.13C345.217 105.813 345.008 105.443 344.864 105.02C344.72 104.596 344.648 104.137 344.648 103.642ZM346.178 103.496V103.642C346.178 103.951 346.21 104.243 346.273 104.518C346.337 104.793 346.436 105.034 346.572 105.242C346.707 105.449 346.88 105.612 347.092 105.73C347.304 105.849 347.555 105.908 347.847 105.908C348.131 105.908 348.376 105.849 348.584 105.73C348.795 105.612 348.969 105.449 349.104 105.242C349.24 105.034 349.339 104.793 349.403 104.518C349.47 104.243 349.504 103.951 349.504 103.642V103.496C349.504 103.191 349.47 102.904 349.403 102.633C349.339 102.358 349.238 102.114 349.098 101.903C348.962 101.691 348.789 101.526 348.577 101.408C348.37 101.285 348.122 101.224 347.835 101.224C347.547 101.224 347.297 101.285 347.086 101.408C346.878 101.526 346.707 101.691 346.572 101.903C346.436 102.114 346.337 102.358 346.273 102.633C346.21 102.904 346.178 103.191 346.178 103.496ZM353.833 101.598V107H352.303V100.132H353.744L353.833 101.598ZM353.56 103.312L353.065 103.306C353.069 102.819 353.137 102.373 353.268 101.966C353.404 101.56 353.59 101.211 353.827 100.919C354.068 100.627 354.356 100.403 354.69 100.246C355.024 100.085 355.397 100.005 355.807 100.005C356.137 100.005 356.436 100.051 356.702 100.145C356.973 100.233 357.204 100.379 357.394 100.583C357.589 100.786 357.737 101.05 357.839 101.376C357.94 101.698 357.991 102.093 357.991 102.563V107H356.455V102.557C356.455 102.227 356.406 101.966 356.309 101.776C356.216 101.581 356.078 101.444 355.896 101.363C355.719 101.279 355.496 101.236 355.23 101.236C354.967 101.236 354.733 101.291 354.525 101.401C354.318 101.511 354.142 101.662 353.998 101.852C353.859 102.042 353.751 102.263 353.675 102.512C353.598 102.762 353.56 103.028 353.56 103.312ZM361.19 100.132V107H359.654V100.132H361.19ZM359.552 98.3291C359.552 98.0964 359.629 97.9038 359.781 97.7515C359.938 97.5949 360.153 97.5166 360.428 97.5166C360.699 97.5166 360.913 97.5949 361.07 97.7515C361.226 97.9038 361.304 98.0964 361.304 98.3291C361.304 98.5576 361.226 98.748 361.07 98.9004C360.913 99.0527 360.699 99.1289 360.428 99.1289C360.153 99.1289 359.938 99.0527 359.781 98.9004C359.629 98.748 359.552 98.5576 359.552 98.3291ZM366.738 105.623V102.347C366.738 102.102 366.694 101.89 366.605 101.712C366.516 101.535 366.38 101.397 366.198 101.3C366.021 101.202 365.796 101.154 365.526 101.154C365.276 101.154 365.06 101.196 364.878 101.281C364.696 101.365 364.554 101.48 364.453 101.624C364.351 101.767 364.301 101.93 364.301 102.112H362.777C362.777 101.841 362.843 101.579 362.974 101.325C363.105 101.071 363.295 100.845 363.545 100.646C363.795 100.447 364.093 100.291 364.44 100.176C364.787 100.062 365.177 100.005 365.608 100.005C366.124 100.005 366.581 100.092 366.979 100.265C367.381 100.439 367.697 100.701 367.925 101.052C368.158 101.399 368.274 101.835 368.274 102.36V105.413C368.274 105.726 368.295 106.008 368.338 106.257C368.384 106.503 368.45 106.716 368.534 106.898V107H366.967C366.895 106.835 366.837 106.625 366.795 106.372C366.757 106.113 366.738 105.864 366.738 105.623ZM366.96 102.823L366.973 103.769H365.875C365.591 103.769 365.342 103.797 365.126 103.852C364.91 103.902 364.73 103.979 364.586 104.08C364.442 104.182 364.334 104.304 364.262 104.448C364.191 104.592 364.155 104.755 364.155 104.937C364.155 105.119 364.197 105.286 364.281 105.438C364.366 105.587 364.489 105.703 364.65 105.788C364.815 105.872 365.014 105.915 365.246 105.915C365.559 105.915 365.832 105.851 366.065 105.724C366.302 105.593 366.488 105.434 366.624 105.248C366.759 105.058 366.831 104.878 366.84 104.708L367.335 105.388C367.284 105.561 367.197 105.747 367.074 105.946C366.952 106.145 366.791 106.336 366.592 106.518C366.397 106.695 366.163 106.841 365.887 106.956C365.617 107.07 365.303 107.127 364.948 107.127C364.499 107.127 364.1 107.038 363.748 106.86C363.397 106.678 363.122 106.435 362.923 106.13C362.724 105.821 362.625 105.472 362.625 105.083C362.625 104.719 362.692 104.397 362.828 104.118C362.968 103.835 363.171 103.598 363.437 103.407C363.708 103.217 364.038 103.073 364.427 102.976C364.817 102.874 365.261 102.823 365.76 102.823H366.96Z" fill="#286EF1"/>
<path d="M388.756 106.723C389.049 107.015 389.049 107.489 388.756 107.781C388.463 108.073 387.988 108.073 387.695 107.781L384.002 104.071L380.283 107.78C379.99 108.072 379.515 108.072 379.222 107.78C378.93 107.488 378.93 107.014 379.222 106.722L382.943 103.014L379.221 99.2769C378.929 98.9849 378.929 98.5111 379.221 98.219C379.514 97.927 379.989 97.927 380.282 98.219L384.002 101.957L387.721 98.2483C388.014 97.9563 388.489 97.9563 388.782 98.2483C389.075 98.5403 389.075 99.0141 388.782 99.3062L385.062 103.014L388.756 106.723Z" fill="#286EF1"/>
<rect x="398.002" y="91" width="73" height="24" rx="4" fill="#EAF1FE"/>
<path d="M408.642 97.7578V107H407.049V97.7578H408.642ZM412.007 101.439V107H410.477V100.132H411.937L412.007 101.439ZM414.108 100.087L414.095 101.509C414.002 101.492 413.9 101.48 413.79 101.471C413.684 101.463 413.579 101.458 413.473 101.458C413.211 101.458 412.98 101.497 412.781 101.573C412.582 101.645 412.415 101.75 412.28 101.89C412.148 102.026 412.047 102.191 411.975 102.385C411.903 102.58 411.861 102.798 411.848 103.039L411.499 103.064C411.499 102.633 411.541 102.233 411.626 101.865C411.71 101.497 411.837 101.173 412.007 100.894C412.18 100.614 412.396 100.396 412.654 100.24C412.916 100.083 413.219 100.005 413.562 100.005C413.655 100.005 413.754 100.013 413.86 100.03C413.97 100.047 414.053 100.066 414.108 100.087ZM417.967 107.127C417.459 107.127 417 107.044 416.59 106.879C416.183 106.71 415.836 106.475 415.549 106.175C415.265 105.874 415.047 105.521 414.895 105.115C414.742 104.708 414.666 104.271 414.666 103.801V103.547C414.666 103.009 414.745 102.523 414.901 102.087C415.058 101.651 415.276 101.279 415.555 100.97C415.834 100.657 416.164 100.417 416.545 100.252C416.926 100.087 417.339 100.005 417.783 100.005C418.274 100.005 418.703 100.087 419.072 100.252C419.44 100.417 419.744 100.65 419.986 100.951C420.231 101.247 420.413 101.6 420.531 102.011C420.654 102.421 420.716 102.874 420.716 103.369V104.023H415.409V102.925H419.205V102.804C419.196 102.529 419.141 102.271 419.04 102.03C418.942 101.789 418.792 101.594 418.589 101.446C418.386 101.298 418.115 101.224 417.777 101.224C417.523 101.224 417.296 101.279 417.097 101.389C416.903 101.494 416.74 101.649 416.609 101.852C416.477 102.055 416.376 102.301 416.304 102.588C416.236 102.872 416.202 103.191 416.202 103.547V103.801C416.202 104.101 416.243 104.381 416.323 104.639C416.408 104.893 416.53 105.115 416.691 105.305C416.852 105.496 417.047 105.646 417.275 105.756C417.504 105.862 417.764 105.915 418.056 105.915C418.424 105.915 418.752 105.84 419.04 105.692C419.328 105.544 419.577 105.335 419.789 105.064L420.595 105.845C420.447 106.061 420.254 106.268 420.017 106.467C419.78 106.661 419.49 106.82 419.148 106.943C418.809 107.066 418.416 107.127 417.967 107.127ZM423.547 97.25V107H422.01V97.25H423.547ZM429.094 105.623V102.347C429.094 102.102 429.05 101.89 428.961 101.712C428.872 101.535 428.737 101.397 428.555 101.3C428.377 101.202 428.153 101.154 427.882 101.154C427.632 101.154 427.417 101.196 427.235 101.281C427.053 101.365 426.911 101.48 426.809 101.624C426.708 101.767 426.657 101.93 426.657 102.112H425.134C425.134 101.841 425.199 101.579 425.33 101.325C425.462 101.071 425.652 100.845 425.902 100.646C426.151 100.447 426.45 100.291 426.797 100.176C427.144 100.062 427.533 100.005 427.965 100.005C428.481 100.005 428.938 100.092 429.336 100.265C429.738 100.439 430.053 100.701 430.281 101.052C430.514 101.399 430.631 101.835 430.631 102.36V105.413C430.631 105.726 430.652 106.008 430.694 106.257C430.741 106.503 430.806 106.716 430.891 106.898V107H429.323C429.251 106.835 429.194 106.625 429.152 106.372C429.114 106.113 429.094 105.864 429.094 105.623ZM429.317 102.823L429.329 103.769H428.231C427.948 103.769 427.698 103.797 427.482 103.852C427.266 103.902 427.087 103.979 426.943 104.08C426.799 104.182 426.691 104.304 426.619 104.448C426.547 104.592 426.511 104.755 426.511 104.937C426.511 105.119 426.553 105.286 426.638 105.438C426.723 105.587 426.845 105.703 427.006 105.788C427.171 105.872 427.37 105.915 427.603 105.915C427.916 105.915 428.189 105.851 428.422 105.724C428.659 105.593 428.845 105.434 428.98 105.248C429.116 105.058 429.188 104.878 429.196 104.708L429.691 105.388C429.64 105.561 429.554 105.747 429.431 105.946C429.308 106.145 429.147 106.336 428.948 106.518C428.754 106.695 428.519 106.841 428.244 106.956C427.973 107.07 427.66 107.127 427.304 107.127C426.856 107.127 426.456 107.038 426.105 106.86C425.753 106.678 425.478 106.435 425.28 106.13C425.081 105.821 424.981 105.472 424.981 105.083C424.981 104.719 425.049 104.397 425.184 104.118C425.324 103.835 425.527 103.598 425.794 103.407C426.065 103.217 426.395 103.073 426.784 102.976C427.173 102.874 427.618 102.823 428.117 102.823H429.317ZM433.747 101.598V107H432.218V100.132H433.658L433.747 101.598ZM433.474 103.312L432.979 103.306C432.983 102.819 433.051 102.373 433.182 101.966C433.318 101.56 433.504 101.211 433.741 100.919C433.982 100.627 434.27 100.403 434.604 100.246C434.939 100.085 435.311 100.005 435.721 100.005C436.052 100.005 436.35 100.051 436.616 100.145C436.887 100.233 437.118 100.379 437.308 100.583C437.503 100.786 437.651 101.05 437.753 101.376C437.854 101.698 437.905 102.093 437.905 102.563V107H436.369V102.557C436.369 102.227 436.32 101.966 436.223 101.776C436.13 101.581 435.992 101.444 435.81 101.363C435.633 101.279 435.41 101.236 435.144 101.236C434.881 101.236 434.647 101.291 434.439 101.401C434.232 101.511 434.056 101.662 433.912 101.852C433.773 102.042 433.665 102.263 433.589 102.512C433.512 102.762 433.474 103.028 433.474 103.312ZM443.656 105.578V97.25H445.192V107H443.802L443.656 105.578ZM439.187 103.642V103.509C439.187 102.988 439.249 102.514 439.371 102.087C439.494 101.655 439.672 101.285 439.905 100.976C440.137 100.663 440.421 100.424 440.755 100.259C441.089 100.09 441.466 100.005 441.885 100.005C442.3 100.005 442.664 100.085 442.977 100.246C443.29 100.407 443.557 100.638 443.777 100.938C443.997 101.234 444.172 101.59 444.303 102.004C444.435 102.415 444.528 102.872 444.583 103.375V103.801C444.528 104.292 444.435 104.74 444.303 105.146C444.172 105.553 443.997 105.904 443.777 106.2C443.557 106.496 443.288 106.725 442.97 106.886C442.657 107.047 442.291 107.127 441.872 107.127C441.458 107.127 441.083 107.04 440.749 106.867C440.419 106.693 440.137 106.45 439.905 106.137C439.672 105.824 439.494 105.455 439.371 105.032C439.249 104.605 439.187 104.141 439.187 103.642ZM440.717 103.509V103.642C440.717 103.955 440.745 104.247 440.8 104.518C440.859 104.789 440.95 105.028 441.073 105.235C441.195 105.438 441.354 105.599 441.549 105.718C441.747 105.832 441.984 105.889 442.26 105.889C442.607 105.889 442.892 105.813 443.116 105.661C443.341 105.508 443.516 105.303 443.643 105.045C443.774 104.783 443.863 104.491 443.91 104.169V103.02C443.885 102.77 443.832 102.538 443.751 102.322C443.675 102.106 443.571 101.918 443.44 101.757C443.309 101.592 443.146 101.465 442.951 101.376C442.761 101.283 442.535 101.236 442.272 101.236C441.993 101.236 441.756 101.296 441.561 101.414C441.367 101.533 441.206 101.695 441.079 101.903C440.956 102.11 440.865 102.351 440.806 102.626C440.747 102.902 440.717 103.196 440.717 103.509Z" fill="#286EF1"/>
<path d="M465.756 106.723C466.049 107.015 466.049 107.489 465.756 107.781C465.463 108.073 464.988 108.073 464.695 107.781L461.002 104.071L457.283 107.78C456.99 108.072 456.515 108.072 456.222 107.78C455.93 107.488 455.93 107.014 456.222 106.722L459.943 103.014L456.221 99.2769C455.929 98.9849 455.929 98.5111 456.221 98.219C456.514 97.927 456.989 97.927 457.282 98.219L461.002 101.957L464.721 98.2483C465.014 97.9563 465.489 97.9563 465.782 98.2483C466.075 98.5403 466.075 99.0141 465.782 99.3062L462.062 103.014L465.756 106.723Z" fill="#286EF1"/>
<path fill-rule="evenodd" clip-rule="evenodd" d="M581.002 103C581.002 106.866 577.868 110 574.002 110C570.136 110 567.002 106.866 567.002 103C567.002 99.134 570.136 96 574.002 96C577.868 96 581.002 99.134 581.002 103ZM576.954 100.048C577.295 100.39 577.295 100.944 576.954 101.285L575.239 103L576.954 104.715C577.295 105.056 577.295 105.61 576.954 105.952C576.612 106.294 576.058 106.294 575.716 105.952L574.002 104.237L572.287 105.952C571.945 106.294 571.391 106.294 571.05 105.952C570.708 105.61 570.708 105.056 571.05 104.715L572.764 103L571.05 101.285C570.708 100.944 570.708 100.39 571.05 100.048C571.391 99.7062 571.945 99.7062 572.287 100.048L574.002 101.763L575.716 100.048C576.058 99.7062 576.612 99.7062 576.954 100.048Z" fill="#AAAAAA"/>
<path d="M598.001 107.4C597.745 107.4 597.489 107.297 597.294 107.092L591.295 100.792C590.904 100.382 590.904 99.7178 591.295 99.3076C591.685 98.8975 592.318 98.8975 592.709 99.3076L598.001 104.867L603.295 99.3084C603.685 98.8983 604.318 98.8983 604.709 99.3084C605.099 99.7186 605.099 100.383 604.709 100.793L598.709 107.093C598.514 107.298 598.257 107.4 598.001 107.4Z" fill="#737373"/>
<path d="M136.002 87C136.002 83.6863 138.688 81 142.002 81H614.002C617.315 81 620.002 83.6863 620.002 87H616.002C616.002 85.8954 615.106 85 614.002 85H142.002C140.897 85 140.002 85.8954 140.002 87H136.002ZM618.002 123H138.002H618.002ZM136.002 123V87C136.002 83.6863 138.688 81 142.002 81V85C140.897 85 140.002 85.8954 140.002 87V123H136.002ZM614.002 81C617.315 81 620.002 83.6863 620.002 87V123H616.002V87C616.002 85.8954 615.106 85 614.002 85V81Z" fill="#286EF1" mask="url(#path-3-inside-1_2851_47256)"/>
<mask id="path-19-inside-2_2851_47256" fill="white">
<path d="M138.002 123H618.002V124H138.002V123Z"/>
</mask>
<path d="M138.002 123H618.002V124H138.002V123Z" fill="#D5E3FD"/>
<path d="M616.002 123V124H620.002V123H616.002ZM140.002 124V123H136.002V124H140.002Z" fill="#286EF1" mask="url(#path-19-inside-2_2851_47256)"/>
<mask id="path-21-inside-3_2851_47256" fill="white">
<path d="M138.002 124H618.002V324C618.002 326.209 616.211 328 614.002 328H142.002C139.793 328 138.002 326.209 138.002 324V124Z"/>
</mask>
<path d="M138.002 124H618.002V324C618.002 326.209 616.211 328 614.002 328H142.002C139.793 328 138.002 326.209 138.002 324V124Z" fill="white"/>
<rect x="146.502" y="132.5" width="463" height="31" rx="2.5" fill="white" stroke="#E6E6E6"/>
<path d="M184 149.664C184 149.448 183.966 149.258 183.899 149.093C183.835 148.924 183.721 148.771 183.556 148.636C183.395 148.5 183.171 148.371 182.883 148.249C182.6 148.126 182.24 148.001 181.804 147.874C181.347 147.739 180.934 147.588 180.566 147.423C180.198 147.254 179.883 147.062 179.62 146.846C179.358 146.63 179.157 146.382 179.017 146.103C178.878 145.824 178.808 145.504 178.808 145.145C178.808 144.785 178.882 144.453 179.03 144.148C179.178 143.843 179.39 143.579 179.665 143.354C179.944 143.126 180.276 142.948 180.661 142.821C181.046 142.694 181.476 142.631 181.95 142.631C182.644 142.631 183.232 142.764 183.715 143.031C184.201 143.293 184.572 143.638 184.825 144.065C185.079 144.489 185.206 144.941 185.206 145.424H183.988C183.988 145.077 183.913 144.77 183.765 144.503C183.617 144.233 183.393 144.021 183.093 143.869C182.792 143.712 182.411 143.634 181.95 143.634C181.514 143.634 181.154 143.699 180.871 143.831C180.587 143.962 180.376 144.139 180.236 144.364C180.101 144.588 180.033 144.844 180.033 145.132C180.033 145.326 180.073 145.504 180.154 145.665C180.238 145.822 180.367 145.968 180.541 146.103C180.719 146.238 180.943 146.363 181.214 146.478C181.489 146.592 181.817 146.702 182.198 146.808C182.722 146.956 183.175 147.121 183.556 147.303C183.937 147.485 184.25 147.69 184.495 147.918C184.745 148.143 184.929 148.399 185.048 148.687C185.17 148.97 185.232 149.292 185.232 149.651C185.232 150.028 185.156 150.369 185.003 150.673C184.851 150.978 184.633 151.238 184.349 151.454C184.066 151.67 183.725 151.837 183.327 151.956C182.934 152.07 182.494 152.127 182.007 152.127C181.58 152.127 181.159 152.068 180.744 151.949C180.333 151.831 179.959 151.653 179.62 151.416C179.286 151.179 179.017 150.887 178.814 150.54C178.615 150.189 178.516 149.783 178.516 149.321H179.735C179.735 149.639 179.796 149.912 179.919 150.14C180.041 150.364 180.209 150.551 180.42 150.699C180.636 150.847 180.879 150.957 181.15 151.029C181.425 151.097 181.711 151.13 182.007 151.13C182.434 151.13 182.796 151.071 183.093 150.953C183.389 150.834 183.613 150.665 183.765 150.445C183.922 150.225 184 149.965 184 149.664ZM189.466 152.127C188.987 152.127 188.554 152.047 188.164 151.886C187.779 151.721 187.447 151.49 187.168 151.194C186.893 150.898 186.681 150.546 186.533 150.14C186.385 149.734 186.311 149.29 186.311 148.807V148.541C186.311 147.982 186.393 147.485 186.558 147.049C186.723 146.609 186.948 146.236 187.231 145.932C187.515 145.627 187.836 145.396 188.196 145.24C188.556 145.083 188.928 145.005 189.313 145.005C189.804 145.005 190.227 145.09 190.583 145.259C190.942 145.428 191.237 145.665 191.465 145.97C191.694 146.27 191.863 146.626 191.973 147.036C192.083 147.442 192.138 147.887 192.138 148.369V148.896H187.009V147.938H190.964V147.849C190.947 147.544 190.883 147.248 190.773 146.96C190.667 146.672 190.498 146.435 190.265 146.249C190.033 146.063 189.715 145.97 189.313 145.97C189.047 145.97 188.801 146.027 188.577 146.141C188.353 146.251 188.16 146.416 187.999 146.636C187.838 146.856 187.714 147.125 187.625 147.442C187.536 147.76 187.491 148.126 187.491 148.541V148.807C187.491 149.133 187.536 149.44 187.625 149.728C187.718 150.011 187.851 150.261 188.025 150.477C188.202 150.692 188.416 150.862 188.666 150.984C188.92 151.107 189.207 151.168 189.529 151.168C189.944 151.168 190.295 151.084 190.583 150.915C190.871 150.745 191.122 150.519 191.338 150.235L192.049 150.8C191.901 151.025 191.713 151.238 191.484 151.441C191.256 151.645 190.974 151.81 190.64 151.937C190.31 152.063 189.918 152.127 189.466 152.127ZM197.559 150.826V147.29C197.559 147.019 197.504 146.784 197.394 146.585C197.288 146.382 197.127 146.226 196.911 146.116C196.696 146.006 196.429 145.951 196.112 145.951C195.815 145.951 195.555 146.001 195.331 146.103C195.111 146.205 194.937 146.338 194.81 146.503C194.688 146.668 194.626 146.846 194.626 147.036H193.452C193.452 146.791 193.515 146.547 193.642 146.306C193.769 146.065 193.951 145.847 194.188 145.652C194.429 145.453 194.717 145.297 195.052 145.183C195.39 145.064 195.767 145.005 196.181 145.005C196.681 145.005 197.121 145.09 197.502 145.259C197.887 145.428 198.187 145.684 198.403 146.027C198.623 146.365 198.733 146.791 198.733 147.303V150.502C198.733 150.73 198.752 150.974 198.79 151.232C198.833 151.49 198.894 151.712 198.974 151.898V152H197.749C197.69 151.865 197.643 151.685 197.61 151.46C197.576 151.232 197.559 151.02 197.559 150.826ZM197.762 147.836L197.775 148.661H196.588C196.253 148.661 195.955 148.689 195.693 148.744C195.43 148.794 195.21 148.873 195.032 148.979C194.855 149.084 194.719 149.218 194.626 149.378C194.533 149.535 194.487 149.719 194.487 149.931C194.487 150.146 194.535 150.343 194.633 150.521C194.73 150.699 194.876 150.84 195.071 150.946C195.269 151.048 195.513 151.099 195.801 151.099C196.16 151.099 196.478 151.022 196.753 150.87C197.028 150.718 197.246 150.532 197.406 150.312C197.572 150.091 197.66 149.878 197.673 149.67L198.175 150.235C198.145 150.413 198.065 150.61 197.933 150.826C197.802 151.042 197.627 151.249 197.406 151.448C197.191 151.642 196.933 151.805 196.632 151.937C196.336 152.063 196.002 152.127 195.629 152.127C195.164 152.127 194.755 152.036 194.404 151.854C194.057 151.672 193.786 151.429 193.592 151.124C193.401 150.815 193.306 150.47 193.306 150.089C193.306 149.721 193.378 149.397 193.522 149.118C193.666 148.835 193.873 148.6 194.144 148.414C194.415 148.223 194.74 148.079 195.121 147.982C195.502 147.885 195.927 147.836 196.397 147.836H197.762ZM201.755 146.211V152H200.58V145.132H201.723L201.755 146.211ZM203.9 145.094L203.894 146.186C203.796 146.164 203.703 146.152 203.615 146.147C203.53 146.139 203.433 146.135 203.323 146.135C203.052 146.135 202.813 146.177 202.605 146.262C202.398 146.346 202.222 146.465 202.078 146.617C201.934 146.77 201.82 146.951 201.736 147.163C201.655 147.37 201.602 147.599 201.577 147.849L201.247 148.039C201.247 147.624 201.287 147.235 201.367 146.871C201.452 146.507 201.581 146.186 201.755 145.906C201.928 145.623 202.148 145.403 202.415 145.246C202.686 145.085 203.007 145.005 203.38 145.005C203.464 145.005 203.562 145.015 203.672 145.037C203.782 145.054 203.858 145.073 203.9 145.094ZM207.607 151.162C207.886 151.162 208.145 151.105 208.382 150.991C208.619 150.876 208.813 150.72 208.966 150.521C209.118 150.318 209.205 150.087 209.226 149.829H210.343C210.322 150.235 210.184 150.614 209.93 150.965C209.681 151.312 209.353 151.594 208.947 151.81C208.54 152.021 208.094 152.127 207.607 152.127C207.091 152.127 206.64 152.036 206.255 151.854C205.874 151.672 205.557 151.422 205.303 151.105C205.053 150.788 204.865 150.424 204.738 150.013C204.615 149.598 204.554 149.16 204.554 148.699V148.433C204.554 147.971 204.615 147.535 204.738 147.125C204.865 146.71 205.053 146.344 205.303 146.027C205.557 145.709 205.874 145.46 206.255 145.278C206.64 145.096 207.091 145.005 207.607 145.005C208.145 145.005 208.614 145.115 209.016 145.335C209.418 145.551 209.734 145.847 209.962 146.224C210.195 146.596 210.322 147.019 210.343 147.493H209.226C209.205 147.21 209.124 146.954 208.985 146.725C208.849 146.497 208.663 146.315 208.426 146.179C208.193 146.04 207.92 145.97 207.607 145.97C207.247 145.97 206.945 146.042 206.699 146.186C206.458 146.325 206.266 146.516 206.122 146.757C205.982 146.994 205.881 147.258 205.817 147.55C205.758 147.838 205.728 148.132 205.728 148.433V148.699C205.728 149 205.758 149.296 205.817 149.588C205.876 149.88 205.976 150.144 206.115 150.381C206.259 150.618 206.452 150.809 206.693 150.953C206.939 151.092 207.243 151.162 207.607 151.162ZM212.838 142.25V152H211.663V142.25H212.838ZM212.558 148.306L212.07 148.287C212.074 147.817 212.144 147.383 212.279 146.985C212.414 146.583 212.605 146.234 212.85 145.938C213.096 145.642 213.388 145.413 213.726 145.252C214.069 145.087 214.448 145.005 214.863 145.005C215.201 145.005 215.506 145.051 215.777 145.145C216.047 145.233 216.278 145.377 216.469 145.576C216.663 145.775 216.811 146.033 216.913 146.351C217.014 146.664 217.065 147.047 217.065 147.5V152H215.885V147.487C215.885 147.127 215.832 146.839 215.726 146.624C215.62 146.403 215.466 146.245 215.262 146.147C215.059 146.046 214.81 145.995 214.513 145.995C214.221 145.995 213.955 146.056 213.714 146.179C213.477 146.302 213.271 146.471 213.098 146.687C212.929 146.903 212.795 147.15 212.698 147.43C212.605 147.705 212.558 147.997 212.558 148.306Z" fill="#737373"/>
<path d="M169.72 152.906C169.908 153.094 170.002 153.312 170.002 153.562C170.002 153.812 169.908 154.031 169.72 154.219C169.533 154.406 169.314 154.5 169.064 154.5C168.814 154.5 168.595 154.406 168.408 154.219L165.595 151.43C164.627 152.086 163.494 152.344 162.197 152.203C161.103 152.047 160.181 151.578 159.431 150.797C158.666 150.031 158.205 149.102 158.049 148.008C157.924 146.93 158.095 145.953 158.564 145.078C159.049 144.219 159.72 143.547 160.58 143.062C161.455 142.594 162.431 142.422 163.51 142.547C164.603 142.703 165.533 143.164 166.299 143.93C167.064 144.68 167.533 145.602 167.705 146.695C167.845 147.992 167.588 149.125 166.931 150.094L169.72 152.906ZM159.853 147.375C159.869 148.219 160.166 148.922 160.744 149.484C161.306 150.062 162.01 150.359 162.853 150.375C163.697 150.359 164.408 150.062 164.986 149.484C165.549 148.922 165.838 148.219 165.853 147.375C165.838 146.531 165.549 145.828 164.986 145.266C164.408 144.688 163.697 144.391 162.853 144.375C162.01 144.391 161.306 144.688 160.744 145.266C160.166 145.828 159.869 146.531 159.853 147.375Z" fill="#737373"/>
<rect x="154.502" y="184.5" width="15" height="15" rx="3.5" fill="white"/>
<rect x="154.502" y="184.5" width="15" height="15" rx="3.5" stroke="#AAAAAA"/>
<path d="M184.923 194.305C184.923 194.056 184.884 193.836 184.806 193.646C184.733 193.45 184.601 193.274 184.41 193.118C184.225 192.962 183.966 192.813 183.634 192.671C183.307 192.53 182.892 192.386 182.389 192.239C181.862 192.083 181.385 191.91 180.961 191.719C180.536 191.524 180.172 191.302 179.869 191.053C179.567 190.804 179.335 190.518 179.174 190.196C179.012 189.874 178.932 189.505 178.932 189.09C178.932 188.675 179.017 188.292 179.188 187.94C179.359 187.588 179.603 187.283 179.921 187.024C180.243 186.761 180.626 186.556 181.071 186.409C181.515 186.263 182.01 186.189 182.557 186.189C183.358 186.189 184.037 186.343 184.594 186.651C185.155 186.954 185.582 187.352 185.875 187.845C186.168 188.333 186.315 188.855 186.315 189.412H184.908C184.908 189.012 184.823 188.658 184.652 188.35C184.481 188.038 184.222 187.793 183.876 187.618C183.529 187.437 183.09 187.347 182.557 187.347C182.054 187.347 181.639 187.422 181.312 187.574C180.985 187.725 180.741 187.93 180.58 188.189C180.424 188.448 180.345 188.743 180.345 189.075C180.345 189.3 180.392 189.505 180.485 189.69C180.582 189.871 180.731 190.04 180.931 190.196C181.136 190.352 181.395 190.496 181.708 190.628C182.025 190.76 182.404 190.887 182.843 191.009C183.448 191.18 183.971 191.37 184.41 191.58C184.85 191.79 185.211 192.027 185.494 192.291C185.782 192.549 185.995 192.845 186.132 193.177C186.273 193.504 186.344 193.875 186.344 194.29C186.344 194.725 186.256 195.118 186.08 195.469C185.905 195.821 185.653 196.121 185.326 196.37C184.999 196.619 184.606 196.812 184.147 196.949C183.693 197.081 183.185 197.146 182.623 197.146C182.13 197.146 181.644 197.078 181.166 196.941C180.692 196.805 180.26 196.6 179.869 196.326C179.484 196.053 179.174 195.716 178.939 195.315C178.71 194.91 178.595 194.441 178.595 193.909H180.001C180.001 194.275 180.072 194.59 180.214 194.854C180.355 195.113 180.548 195.328 180.792 195.499C181.041 195.669 181.322 195.796 181.635 195.879C181.952 195.958 182.281 195.997 182.623 195.997C183.116 195.997 183.534 195.928 183.876 195.792C184.218 195.655 184.476 195.459 184.652 195.206C184.833 194.952 184.923 194.651 184.923 194.305ZM191.229 197.146C190.677 197.146 190.177 197.054 189.728 196.868C189.283 196.678 188.9 196.412 188.578 196.07C188.26 195.728 188.016 195.323 187.845 194.854C187.675 194.385 187.589 193.873 187.589 193.316V193.008C187.589 192.364 187.684 191.79 187.875 191.287C188.065 190.779 188.324 190.35 188.651 189.998C188.978 189.646 189.349 189.38 189.764 189.2C190.179 189.019 190.609 188.929 191.053 188.929C191.62 188.929 192.108 189.026 192.518 189.222C192.933 189.417 193.273 189.69 193.536 190.042C193.8 190.389 193.995 190.799 194.122 191.272C194.249 191.741 194.313 192.254 194.313 192.811V193.418H188.395V192.312H192.958V192.21C192.938 191.858 192.865 191.517 192.738 191.185C192.616 190.853 192.421 190.579 192.152 190.364C191.884 190.149 191.517 190.042 191.053 190.042C190.746 190.042 190.463 190.108 190.204 190.24C189.945 190.367 189.723 190.557 189.537 190.811C189.352 191.065 189.208 191.375 189.105 191.741C189.003 192.107 188.951 192.53 188.951 193.008V193.316C188.951 193.692 189.003 194.046 189.105 194.378C189.213 194.705 189.366 194.993 189.567 195.242C189.772 195.491 190.018 195.687 190.306 195.828C190.599 195.97 190.931 196.041 191.302 196.041C191.781 196.041 192.186 195.943 192.518 195.748C192.85 195.552 193.141 195.291 193.39 194.964L194.21 195.616C194.039 195.875 193.822 196.121 193.558 196.355C193.295 196.59 192.97 196.78 192.584 196.927C192.203 197.073 191.752 197.146 191.229 197.146ZM197.367 185.75V197H196.005V185.75H197.367ZM202.831 197.146C202.279 197.146 201.779 197.054 201.329 196.868C200.885 196.678 200.502 196.412 200.179 196.07C199.862 195.728 199.618 195.323 199.447 194.854C199.276 194.385 199.191 193.873 199.191 193.316V193.008C199.191 192.364 199.286 191.79 199.476 191.287C199.667 190.779 199.926 190.35 200.253 189.998C200.58 189.646 200.951 189.38 201.366 189.2C201.781 189.019 202.211 188.929 202.655 188.929C203.221 188.929 203.71 189.026 204.12 189.222C204.535 189.417 204.874 189.69 205.138 190.042C205.402 190.389 205.597 190.799 205.724 191.272C205.851 191.741 205.914 192.254 205.914 192.811V193.418H199.996V192.312H204.559V192.21C204.54 191.858 204.467 191.517 204.34 191.185C204.218 190.853 204.022 190.579 203.754 190.364C203.485 190.149 203.119 190.042 202.655 190.042C202.347 190.042 202.064 190.108 201.805 190.24C201.547 190.367 201.324 190.557 201.139 190.811C200.953 191.065 200.809 191.375 200.707 191.741C200.604 192.107 200.553 192.53 200.553 193.008V193.316C200.553 193.692 200.604 194.046 200.707 194.378C200.814 194.705 200.968 194.993 201.168 195.242C201.373 195.491 201.62 195.687 201.908 195.828C202.201 195.97 202.533 196.041 202.904 196.041C203.383 196.041 203.788 195.943 204.12 195.748C204.452 195.552 204.742 195.291 204.991 194.964L205.812 195.616C205.641 195.875 205.424 196.121 205.16 196.355C204.896 196.59 204.572 196.78 204.186 196.927C203.805 197.073 203.353 197.146 202.831 197.146ZM210.668 196.033C210.99 196.033 211.288 195.967 211.561 195.835C211.835 195.704 212.059 195.523 212.235 195.293C212.411 195.059 212.511 194.793 212.535 194.495H213.824C213.8 194.964 213.641 195.401 213.348 195.806C213.06 196.207 212.682 196.531 212.213 196.78C211.744 197.024 211.229 197.146 210.668 197.146C210.072 197.146 209.552 197.042 209.108 196.832C208.668 196.622 208.302 196.333 208.009 195.967C207.721 195.601 207.504 195.181 207.357 194.708C207.216 194.229 207.145 193.724 207.145 193.191V192.884C207.145 192.352 207.216 191.849 207.357 191.375C207.504 190.896 207.721 190.474 208.009 190.108C208.302 189.742 208.668 189.454 209.108 189.244C209.552 189.034 210.072 188.929 210.668 188.929C211.288 188.929 211.83 189.056 212.294 189.31C212.758 189.559 213.121 189.9 213.385 190.335C213.654 190.765 213.8 191.253 213.824 191.8H212.535C212.511 191.473 212.418 191.177 212.257 190.914C212.101 190.65 211.886 190.44 211.613 190.284C211.344 190.123 211.029 190.042 210.668 190.042C210.253 190.042 209.904 190.125 209.62 190.291C209.342 190.452 209.12 190.672 208.954 190.95C208.793 191.224 208.676 191.529 208.602 191.866C208.534 192.198 208.5 192.537 208.5 192.884V193.191C208.5 193.538 208.534 193.88 208.602 194.217C208.671 194.554 208.785 194.859 208.947 195.132C209.113 195.406 209.335 195.625 209.613 195.792C209.896 195.953 210.248 196.033 210.668 196.033ZM218.666 189.075V190.115H214.381V189.075H218.666ZM215.831 187.149H217.186V195.037C217.186 195.306 217.228 195.508 217.311 195.645C217.394 195.782 217.501 195.872 217.633 195.916C217.765 195.96 217.906 195.982 218.058 195.982C218.17 195.982 218.287 195.972 218.409 195.953C218.536 195.928 218.632 195.909 218.695 195.894L218.702 197C218.595 197.034 218.453 197.066 218.278 197.095C218.107 197.129 217.899 197.146 217.655 197.146C217.323 197.146 217.018 197.081 216.74 196.949C216.461 196.817 216.239 196.597 216.073 196.29C215.912 195.977 215.831 195.557 215.831 195.03V187.149ZM228.129 187.281L224.598 197H223.156L227.22 186.336H228.151L228.129 187.281ZM231.088 197L227.55 187.281L227.528 186.336H228.458L232.538 197H231.088ZM230.905 193.052V194.209H224.913V193.052H230.905ZM235.233 185.75V197H233.871V185.75H235.233ZM238.881 185.75V197H237.518V185.75H238.881Z" fill="#1A1A1A"/>
<rect x="154.002" y="220" width="16" height="16" rx="4" fill="#286EF1"/>
<path d="M160.24 232.088L156.34 228.166C156.105 227.93 156.105 227.548 156.34 227.312L157.188 226.459C157.422 226.223 157.802 226.223 158.037 226.459L160.664 229.101L165.967 223.912C166.201 223.676 166.581 223.676 166.815 223.912L167.664 224.765C167.898 225.001 167.898 225.383 167.664 225.618L161.088 232.088C160.854 232.324 160.474 232.324 160.24 232.088Z" fill="white"/>
<path d="M182.496 225.577L179.436 234H178.186L181.709 224.758H182.515L182.496 225.577ZM185.06 234L181.994 225.577L181.975 224.758H182.781L186.317 234H185.06ZM184.902 230.579V231.582H179.709V230.579H184.902ZM188.552 228.598V234H187.377V227.132H188.488L188.552 228.598ZM188.272 230.306L187.783 230.287C187.788 229.817 187.858 229.383 187.993 228.985C188.128 228.583 188.319 228.234 188.564 227.938C188.81 227.642 189.102 227.413 189.44 227.252C189.783 227.087 190.162 227.005 190.576 227.005C190.915 227.005 191.22 227.051 191.49 227.145C191.761 227.233 191.992 227.377 192.182 227.576C192.377 227.775 192.525 228.033 192.627 228.351C192.728 228.664 192.779 229.047 192.779 229.5V234H191.598V229.487C191.598 229.127 191.545 228.839 191.44 228.624C191.334 228.403 191.179 228.245 190.976 228.147C190.773 228.046 190.524 227.995 190.227 227.995C189.935 227.995 189.669 228.056 189.427 228.179C189.191 228.302 188.985 228.471 188.812 228.687C188.642 228.903 188.509 229.15 188.412 229.43C188.319 229.705 188.272 229.997 188.272 230.306ZM198.892 232.667V224.25H200.073V234H198.993L198.892 232.667ZM194.271 230.642V230.509C194.271 229.984 194.334 229.508 194.461 229.081C194.592 228.649 194.776 228.279 195.013 227.97C195.255 227.661 195.54 227.424 195.87 227.259C196.205 227.09 196.577 227.005 196.988 227.005C197.419 227.005 197.796 227.081 198.117 227.233C198.443 227.382 198.718 227.599 198.943 227.887C199.171 228.171 199.351 228.514 199.482 228.916C199.613 229.318 199.704 229.772 199.755 230.28V230.864C199.709 231.368 199.618 231.821 199.482 232.223C199.351 232.625 199.171 232.967 198.943 233.251C198.718 233.535 198.443 233.752 198.117 233.905C197.792 234.053 197.411 234.127 196.975 234.127C196.573 234.127 196.205 234.04 195.87 233.867C195.54 233.693 195.255 233.45 195.013 233.137C194.776 232.824 194.592 232.455 194.461 232.032C194.334 231.605 194.271 231.141 194.271 230.642ZM195.451 230.509V230.642C195.451 230.985 195.485 231.306 195.553 231.607C195.625 231.907 195.735 232.172 195.883 232.4C196.031 232.629 196.219 232.809 196.448 232.94C196.677 233.067 196.949 233.13 197.267 233.13C197.656 233.13 197.976 233.048 198.225 232.883C198.479 232.718 198.682 232.5 198.835 232.229C198.987 231.958 199.106 231.664 199.19 231.347V229.817C199.139 229.584 199.065 229.36 198.968 229.144C198.875 228.924 198.752 228.729 198.6 228.56C198.452 228.387 198.268 228.249 198.048 228.147C197.832 228.046 197.576 227.995 197.28 227.995C196.958 227.995 196.681 228.063 196.448 228.198C196.219 228.329 196.031 228.511 195.883 228.744C195.735 228.973 195.625 229.239 195.553 229.544C195.485 229.844 195.451 230.166 195.451 230.509ZM201.59 230.642V230.496C201.59 230.001 201.662 229.542 201.805 229.119C201.949 228.691 202.157 228.321 202.427 228.008C202.698 227.69 203.026 227.445 203.411 227.271C203.796 227.094 204.228 227.005 204.706 227.005C205.189 227.005 205.622 227.094 206.008 227.271C206.397 227.445 206.727 227.69 206.998 228.008C207.273 228.321 207.482 228.691 207.626 229.119C207.77 229.542 207.842 230.001 207.842 230.496V230.642C207.842 231.137 207.77 231.596 207.626 232.02C207.482 232.443 207.273 232.813 206.998 233.13C206.727 233.444 206.399 233.689 206.014 233.867C205.633 234.04 205.201 234.127 204.719 234.127C204.237 234.127 203.803 234.04 203.418 233.867C203.033 233.689 202.703 233.444 202.427 233.13C202.157 232.813 201.949 232.443 201.805 232.02C201.662 231.596 201.59 231.137 201.59 230.642ZM202.764 230.496V230.642C202.764 230.985 202.804 231.309 202.885 231.613C202.965 231.914 203.086 232.18 203.246 232.413C203.411 232.646 203.617 232.83 203.862 232.965C204.108 233.097 204.393 233.162 204.719 233.162C205.041 233.162 205.322 233.097 205.563 232.965C205.809 232.83 206.012 232.646 206.173 232.413C206.333 232.18 206.454 231.914 206.534 231.613C206.619 231.309 206.661 230.985 206.661 230.642V230.496C206.661 230.158 206.619 229.838 206.534 229.538C206.454 229.233 206.331 228.964 206.166 228.731C206.005 228.494 205.802 228.308 205.557 228.173C205.316 228.037 205.032 227.97 204.706 227.97C204.385 227.97 204.101 228.037 203.856 228.173C203.615 228.308 203.411 228.494 203.246 228.731C203.086 228.964 202.965 229.233 202.885 229.538C202.804 229.838 202.764 230.158 202.764 230.496ZM210.489 228.211V234H209.315V227.132H210.457L210.489 228.211ZM212.635 227.094L212.628 228.186C212.531 228.164 212.438 228.152 212.349 228.147C212.264 228.139 212.167 228.135 212.057 228.135C211.786 228.135 211.547 228.177 211.34 228.262C211.132 228.346 210.957 228.465 210.813 228.617C210.669 228.77 210.555 228.951 210.47 229.163C210.39 229.37 210.337 229.599 210.311 229.849L209.981 230.039C209.981 229.624 210.021 229.235 210.102 228.871C210.186 228.507 210.316 228.186 210.489 227.906C210.663 227.623 210.883 227.403 211.149 227.246C211.42 227.085 211.742 227.005 212.114 227.005C212.199 227.005 212.296 227.015 212.406 227.037C212.516 227.054 212.592 227.073 212.635 227.094ZM214.894 228.211V234H213.72V227.132H214.863L214.894 228.211ZM217.04 227.094L217.033 228.186C216.936 228.164 216.843 228.152 216.754 228.147C216.67 228.139 216.572 228.135 216.462 228.135C216.191 228.135 215.952 228.177 215.745 228.262C215.538 228.346 215.362 228.465 215.218 228.617C215.074 228.77 214.96 228.951 214.875 229.163C214.795 229.37 214.742 229.599 214.717 229.849L214.386 230.039C214.386 229.624 214.427 229.235 214.507 228.871C214.592 228.507 214.721 228.186 214.894 227.906C215.068 227.623 215.288 227.403 215.554 227.246C215.825 227.085 216.147 227.005 216.519 227.005C216.604 227.005 216.701 227.015 216.811 227.037C216.921 227.054 216.997 227.073 217.04 227.094ZM221.921 232.826V229.29C221.921 229.019 221.866 228.784 221.756 228.585C221.65 228.382 221.49 228.226 221.274 228.116C221.058 228.006 220.791 227.951 220.474 227.951C220.178 227.951 219.917 228.001 219.693 228.103C219.473 228.205 219.3 228.338 219.173 228.503C219.05 228.668 218.989 228.846 218.989 229.036H217.814C217.814 228.791 217.878 228.547 218.005 228.306C218.132 228.065 218.314 227.847 218.551 227.652C218.792 227.453 219.08 227.297 219.414 227.183C219.752 227.064 220.129 227.005 220.544 227.005C221.043 227.005 221.483 227.09 221.864 227.259C222.249 227.428 222.55 227.684 222.765 228.027C222.985 228.365 223.095 228.791 223.095 229.303V232.502C223.095 232.73 223.115 232.974 223.153 233.232C223.195 233.49 223.256 233.712 223.337 233.898V234H222.112C222.052 233.865 222.006 233.685 221.972 233.46C221.938 233.232 221.921 233.02 221.921 232.826ZM222.124 229.836L222.137 230.661H220.95C220.616 230.661 220.317 230.689 220.055 230.744C219.793 230.794 219.573 230.873 219.395 230.979C219.217 231.084 219.082 231.218 218.989 231.378C218.895 231.535 218.849 231.719 218.849 231.931C218.849 232.146 218.898 232.343 218.995 232.521C219.092 232.699 219.238 232.84 219.433 232.946C219.632 233.048 219.875 233.099 220.163 233.099C220.523 233.099 220.84 233.022 221.115 232.87C221.39 232.718 221.608 232.532 221.769 232.312C221.934 232.091 222.023 231.878 222.035 231.67L222.537 232.235C222.507 232.413 222.427 232.61 222.296 232.826C222.164 233.042 221.989 233.249 221.769 233.448C221.553 233.642 221.295 233.805 220.994 233.937C220.698 234.063 220.364 234.127 219.991 234.127C219.526 234.127 219.118 234.036 218.766 233.854C218.419 233.672 218.149 233.429 217.954 233.124C217.763 232.815 217.668 232.47 217.668 232.089C217.668 231.721 217.74 231.397 217.884 231.118C218.028 230.835 218.235 230.6 218.506 230.414C218.777 230.223 219.103 230.079 219.484 229.982C219.865 229.885 220.29 229.836 220.76 229.836H222.124Z" fill="#1A1A1A"/>
<rect x="154.002" y="256" width="16" height="16" rx="4" fill="#286EF1"/>
<path d="M160.24 268.088L156.34 264.166C156.105 263.93 156.105 263.548 156.34 263.312L157.188 262.459C157.422 262.223 157.802 262.223 158.037 262.459L160.664 265.101L165.967 259.912C166.201 259.676 166.581 259.676 166.815 259.912L167.664 260.765C167.898 261.001 167.898 261.383 167.664 261.618L161.088 268.088C160.854 268.324 160.474 268.324 160.24 268.088Z" fill="white"/>
<path d="M182.496 261.577L179.436 270H178.186L181.709 260.758H182.515L182.496 261.577ZM185.06 270L181.994 261.577L181.975 260.758H182.781L186.317 270H185.06ZM184.902 266.579V267.582H179.709V266.579H184.902ZM188.552 264.598V270H187.377V263.132H188.488L188.552 264.598ZM188.272 266.306L187.783 266.287C187.788 265.817 187.858 265.383 187.993 264.985C188.128 264.583 188.319 264.234 188.564 263.938C188.81 263.642 189.102 263.413 189.44 263.252C189.783 263.087 190.162 263.005 190.576 263.005C190.915 263.005 191.22 263.051 191.49 263.145C191.761 263.233 191.992 263.377 192.182 263.576C192.377 263.775 192.525 264.033 192.627 264.351C192.728 264.664 192.779 265.047 192.779 265.5V270H191.598V265.487C191.598 265.127 191.545 264.839 191.44 264.624C191.334 264.403 191.179 264.245 190.976 264.147C190.773 264.046 190.524 263.995 190.227 263.995C189.935 263.995 189.669 264.056 189.427 264.179C189.191 264.302 188.985 264.471 188.812 264.687C188.642 264.903 188.509 265.15 188.412 265.43C188.319 265.705 188.272 265.997 188.272 266.306ZM199.012 263.132H200.079V269.854C200.079 270.459 199.956 270.975 199.711 271.403C199.465 271.83 199.122 272.154 198.682 272.374C198.247 272.598 197.743 272.71 197.172 272.71C196.935 272.71 196.655 272.672 196.334 272.596C196.016 272.524 195.703 272.399 195.394 272.222C195.09 272.048 194.834 271.813 194.626 271.517L195.242 270.819C195.53 271.166 195.83 271.407 196.143 271.542C196.461 271.678 196.774 271.746 197.083 271.746C197.455 271.746 197.777 271.676 198.048 271.536C198.318 271.396 198.528 271.189 198.676 270.914C198.828 270.643 198.905 270.309 198.905 269.911V264.643L199.012 263.132ZM194.283 266.642V266.509C194.283 265.984 194.345 265.508 194.468 265.081C194.594 264.649 194.774 264.279 195.007 263.97C195.244 263.661 195.53 263.424 195.864 263.259C196.198 263.09 196.575 263.005 196.994 263.005C197.426 263.005 197.802 263.081 198.124 263.233C198.45 263.382 198.725 263.599 198.949 263.887C199.177 264.171 199.357 264.514 199.489 264.916C199.62 265.318 199.711 265.772 199.761 266.28V266.864C199.715 267.368 199.624 267.821 199.489 268.223C199.357 268.625 199.177 268.967 198.949 269.251C198.725 269.535 198.45 269.752 198.124 269.905C197.798 270.053 197.417 270.127 196.981 270.127C196.571 270.127 196.198 270.04 195.864 269.867C195.534 269.693 195.25 269.45 195.013 269.137C194.776 268.824 194.594 268.455 194.468 268.032C194.345 267.605 194.283 267.141 194.283 266.642ZM195.458 266.509V266.642C195.458 266.985 195.492 267.306 195.559 267.607C195.631 267.907 195.739 268.172 195.883 268.4C196.031 268.629 196.219 268.809 196.448 268.94C196.677 269.067 196.949 269.13 197.267 269.13C197.656 269.13 197.978 269.048 198.232 268.883C198.486 268.718 198.687 268.5 198.835 268.229C198.987 267.958 199.106 267.664 199.19 267.347V265.817C199.144 265.584 199.072 265.36 198.974 265.144C198.881 264.924 198.759 264.729 198.606 264.56C198.458 264.387 198.274 264.249 198.054 264.147C197.834 264.046 197.576 263.995 197.28 263.995C196.958 263.995 196.681 264.063 196.448 264.198C196.219 264.329 196.031 264.511 195.883 264.744C195.739 264.973 195.631 265.239 195.559 265.544C195.492 265.844 195.458 266.166 195.458 266.509ZM201.552 266.642V266.496C201.552 266.001 201.623 265.542 201.767 265.119C201.911 264.691 202.119 264.321 202.389 264.008C202.66 263.69 202.988 263.445 203.373 263.271C203.758 263.094 204.19 263.005 204.668 263.005C205.151 263.005 205.584 263.094 205.969 263.271C206.359 263.445 206.689 263.69 206.96 264.008C207.235 264.321 207.444 264.691 207.588 265.119C207.732 265.542 207.804 266.001 207.804 266.496V266.642C207.804 267.137 207.732 267.596 207.588 268.02C207.444 268.443 207.235 268.813 206.96 269.13C206.689 269.444 206.361 269.689 205.976 269.867C205.595 270.04 205.163 270.127 204.681 270.127C204.198 270.127 203.765 270.04 203.38 269.867C202.995 269.689 202.664 269.444 202.389 269.13C202.119 268.813 201.911 268.443 201.767 268.02C201.623 267.596 201.552 267.137 201.552 266.642ZM202.726 266.496V266.642C202.726 266.985 202.766 267.309 202.846 267.613C202.927 267.914 203.047 268.18 203.208 268.413C203.373 268.646 203.579 268.83 203.824 268.965C204.069 269.097 204.355 269.162 204.681 269.162C205.003 269.162 205.284 269.097 205.525 268.965C205.771 268.83 205.974 268.646 206.135 268.413C206.295 268.18 206.416 267.914 206.496 267.613C206.581 267.309 206.623 266.985 206.623 266.642V266.496C206.623 266.158 206.581 265.838 206.496 265.538C206.416 265.233 206.293 264.964 206.128 264.731C205.967 264.494 205.764 264.308 205.519 264.173C205.278 264.037 204.994 263.97 204.668 263.97C204.347 263.97 204.063 264.037 203.818 264.173C203.576 264.308 203.373 264.494 203.208 264.731C203.047 264.964 202.927 265.233 202.846 265.538C202.766 265.838 202.726 266.158 202.726 266.496ZM210.552 260.25V270H209.372V260.25H210.552ZM216.488 268.826V265.29C216.488 265.019 216.433 264.784 216.323 264.585C216.217 264.382 216.056 264.226 215.84 264.116C215.624 264.006 215.358 263.951 215.04 263.951C214.744 263.951 214.484 264.001 214.26 264.103C214.039 264.205 213.866 264.338 213.739 264.503C213.616 264.668 213.555 264.846 213.555 265.036H212.381C212.381 264.791 212.444 264.547 212.571 264.306C212.698 264.065 212.88 263.847 213.117 263.652C213.358 263.453 213.646 263.297 213.98 263.183C214.319 263.064 214.695 263.005 215.11 263.005C215.609 263.005 216.05 263.09 216.43 263.259C216.816 263.428 217.116 263.684 217.332 264.027C217.552 264.365 217.662 264.791 217.662 265.303V268.502C217.662 268.73 217.681 268.974 217.719 269.232C217.761 269.49 217.823 269.712 217.903 269.898V270H216.678C216.619 269.865 216.572 269.685 216.538 269.46C216.504 269.232 216.488 269.02 216.488 268.826ZM216.691 265.836L216.703 266.661H215.516C215.182 266.661 214.884 266.689 214.621 266.744C214.359 266.794 214.139 266.873 213.961 266.979C213.783 267.084 213.648 267.218 213.555 267.378C213.462 267.535 213.415 267.719 213.415 267.931C213.415 268.146 213.464 268.343 213.561 268.521C213.659 268.699 213.805 268.84 213.999 268.946C214.198 269.048 214.441 269.099 214.729 269.099C215.089 269.099 215.406 269.022 215.681 268.87C215.956 268.718 216.174 268.532 216.335 268.312C216.5 268.091 216.589 267.878 216.602 267.67L217.103 268.235C217.074 268.413 216.993 268.61 216.862 268.826C216.731 269.042 216.555 269.249 216.335 269.448C216.119 269.642 215.861 269.805 215.561 269.937C215.265 270.063 214.93 270.127 214.558 270.127C214.092 270.127 213.684 270.036 213.333 269.854C212.986 269.672 212.715 269.429 212.52 269.124C212.33 268.815 212.235 268.47 212.235 268.089C212.235 267.721 212.307 267.397 212.45 267.118C212.594 266.835 212.802 266.6 213.073 266.414C213.343 266.223 213.669 266.079 214.05 265.982C214.431 265.885 214.856 265.836 215.326 265.836H216.691Z" fill="#1A1A1A"/>
<rect x="154.502" y="292.5" width="15" height="15" rx="3.5" fill="white"/>
<rect x="154.502" y="292.5" width="15" height="15" rx="3.5" stroke="#AAAAAA"/>
<path d="M182.496 297.577L179.436 306H178.186L181.709 296.758H182.515L182.496 297.577ZM185.06 306L181.994 297.577L181.975 296.758H182.781L186.317 306H185.06ZM184.902 302.579V303.582H179.709V302.579H184.902ZM188.552 300.211V306H187.377V299.132H188.52L188.552 300.211ZM190.697 299.094L190.691 300.186C190.593 300.164 190.5 300.152 190.411 300.147C190.327 300.139 190.229 300.135 190.119 300.135C189.849 300.135 189.609 300.177 189.402 300.262C189.195 300.346 189.019 300.465 188.875 300.617C188.731 300.77 188.617 300.951 188.532 301.163C188.452 301.37 188.399 301.599 188.374 301.849L188.044 302.039C188.044 301.624 188.084 301.235 188.164 300.871C188.249 300.507 188.378 300.186 188.552 299.906C188.725 299.623 188.945 299.403 189.212 299.246C189.483 299.085 189.804 299.005 190.177 299.005C190.261 299.005 190.358 299.015 190.469 299.037C190.579 299.054 190.655 299.073 190.697 299.094ZM196.105 299.132H197.172V305.854C197.172 306.459 197.049 306.975 196.803 307.403C196.558 307.83 196.215 308.154 195.775 308.374C195.339 308.598 194.836 308.71 194.264 308.71C194.027 308.71 193.748 308.672 193.427 308.596C193.109 308.524 192.796 308.399 192.487 308.222C192.182 308.048 191.926 307.813 191.719 307.517L192.335 306.819C192.622 307.166 192.923 307.407 193.236 307.542C193.553 307.678 193.867 307.746 194.176 307.746C194.548 307.746 194.87 307.676 195.14 307.536C195.411 307.396 195.621 307.189 195.769 306.914C195.921 306.643 195.997 306.309 195.997 305.911V300.643L196.105 299.132ZM191.376 302.642V302.509C191.376 301.984 191.438 301.508 191.56 301.081C191.687 300.649 191.867 300.279 192.1 299.97C192.337 299.661 192.622 299.424 192.957 299.259C193.291 299.09 193.668 299.005 194.087 299.005C194.518 299.005 194.895 299.081 195.217 299.233C195.542 299.382 195.817 299.599 196.042 299.887C196.27 300.171 196.45 300.514 196.581 300.916C196.712 301.318 196.803 301.772 196.854 302.28V302.864C196.808 303.368 196.717 303.821 196.581 304.223C196.45 304.625 196.27 304.967 196.042 305.251C195.817 305.535 195.542 305.752 195.217 305.905C194.891 306.053 194.51 306.127 194.074 306.127C193.663 306.127 193.291 306.04 192.957 305.867C192.627 305.693 192.343 305.45 192.106 305.137C191.869 304.824 191.687 304.455 191.56 304.032C191.438 303.605 191.376 303.141 191.376 302.642ZM192.551 302.509V302.642C192.551 302.985 192.584 303.306 192.652 303.607C192.724 303.907 192.832 304.172 192.976 304.4C193.124 304.629 193.312 304.809 193.541 304.94C193.769 305.067 194.042 305.13 194.36 305.13C194.749 305.13 195.071 305.048 195.324 304.883C195.578 304.718 195.779 304.5 195.927 304.229C196.08 303.958 196.198 303.664 196.283 303.347V301.817C196.236 301.584 196.164 301.36 196.067 301.144C195.974 300.924 195.851 300.729 195.699 300.56C195.551 300.387 195.367 300.249 195.147 300.147C194.927 300.046 194.669 299.995 194.372 299.995C194.051 299.995 193.774 300.063 193.541 300.198C193.312 300.329 193.124 300.511 192.976 300.744C192.832 300.973 192.724 301.239 192.652 301.544C192.584 301.844 192.551 302.166 192.551 302.509ZM201.805 306.127C201.327 306.127 200.893 306.047 200.504 305.886C200.119 305.721 199.787 305.49 199.508 305.194C199.233 304.898 199.021 304.546 198.873 304.14C198.725 303.734 198.651 303.29 198.651 302.807V302.541C198.651 301.982 198.733 301.485 198.898 301.049C199.063 300.609 199.288 300.236 199.571 299.932C199.855 299.627 200.176 299.396 200.536 299.24C200.896 299.083 201.268 299.005 201.653 299.005C202.144 299.005 202.567 299.09 202.923 299.259C203.282 299.428 203.576 299.665 203.805 299.97C204.033 300.27 204.203 300.626 204.313 301.036C204.423 301.442 204.478 301.887 204.478 302.369V302.896H199.349V301.938H203.303V301.849C203.287 301.544 203.223 301.248 203.113 300.96C203.007 300.672 202.838 300.435 202.605 300.249C202.372 300.063 202.055 299.97 201.653 299.97C201.386 299.97 201.141 300.027 200.917 300.141C200.692 300.251 200.5 300.416 200.339 300.636C200.178 300.856 200.053 301.125 199.965 301.442C199.876 301.76 199.831 302.126 199.831 302.541V302.807C199.831 303.133 199.876 303.44 199.965 303.728C200.058 304.011 200.191 304.261 200.365 304.477C200.542 304.692 200.756 304.862 201.006 304.984C201.26 305.107 201.547 305.168 201.869 305.168C202.284 305.168 202.635 305.084 202.923 304.915C203.21 304.745 203.462 304.519 203.678 304.235L204.389 304.8C204.241 305.025 204.052 305.238 203.824 305.441C203.595 305.645 203.314 305.81 202.98 305.937C202.65 306.063 202.258 306.127 201.805 306.127ZM207.023 300.598V306H205.849V299.132H206.96L207.023 300.598ZM206.744 302.306L206.255 302.287C206.259 301.817 206.329 301.383 206.465 300.985C206.6 300.583 206.79 300.234 207.036 299.938C207.281 299.642 207.573 299.413 207.912 299.252C208.255 299.087 208.633 299.005 209.048 299.005C209.387 299.005 209.691 299.051 209.962 299.145C210.233 299.233 210.464 299.377 210.654 299.576C210.849 299.775 210.997 300.033 211.098 300.351C211.2 300.664 211.251 301.047 211.251 301.5V306H210.07V301.487C210.07 301.127 210.017 300.839 209.911 300.624C209.806 300.403 209.651 300.245 209.448 300.147C209.245 300.046 208.995 299.995 208.699 299.995C208.407 299.995 208.14 300.056 207.899 300.179C207.662 300.302 207.457 300.471 207.283 300.687C207.114 300.903 206.981 301.15 206.884 301.43C206.79 301.705 206.744 301.997 206.744 302.306ZM215.91 299.132V300.033H212.197V299.132H215.91ZM213.453 297.462H214.628V304.299C214.628 304.532 214.664 304.707 214.736 304.826C214.808 304.944 214.901 305.022 215.015 305.061C215.129 305.099 215.252 305.118 215.383 305.118C215.48 305.118 215.582 305.109 215.688 305.092C215.798 305.071 215.88 305.054 215.935 305.042L215.942 306C215.849 306.03 215.726 306.057 215.573 306.083C215.425 306.112 215.246 306.127 215.034 306.127C214.746 306.127 214.482 306.07 214.24 305.956C213.999 305.841 213.807 305.651 213.663 305.384C213.523 305.113 213.453 304.75 213.453 304.292V297.462ZM218.563 299.132V306H217.383V299.132H218.563ZM217.294 297.31C217.294 297.12 217.351 296.959 217.465 296.828C217.584 296.696 217.757 296.631 217.986 296.631C218.21 296.631 218.381 296.696 218.5 296.828C218.622 296.959 218.684 297.12 218.684 297.31C218.684 297.492 218.622 297.649 218.5 297.78C218.381 297.907 218.21 297.97 217.986 297.97C217.757 297.97 217.584 297.907 217.465 297.78C217.351 297.649 217.294 297.492 217.294 297.31ZM221.623 300.598V306H220.448V299.132H221.559L221.623 300.598ZM221.344 302.306L220.855 302.287C220.859 301.817 220.929 301.383 221.064 300.985C221.2 300.583 221.39 300.234 221.635 299.938C221.881 299.642 222.173 299.413 222.511 299.252C222.854 299.087 223.233 299.005 223.648 299.005C223.986 299.005 224.291 299.051 224.562 299.145C224.833 299.233 225.063 299.377 225.254 299.576C225.448 299.775 225.596 300.033 225.698 300.351C225.8 300.664 225.85 301.047 225.85 301.5V306H224.67V301.487C224.67 301.127 224.617 300.839 224.511 300.624C224.405 300.403 224.251 300.245 224.048 300.147C223.844 300.046 223.595 299.995 223.299 299.995C223.007 299.995 222.74 300.056 222.499 300.179C222.262 300.302 222.057 300.471 221.883 300.687C221.714 300.903 221.58 301.15 221.483 301.43C221.39 301.705 221.344 301.997 221.344 302.306ZM231.684 304.826V301.29C231.684 301.019 231.629 300.784 231.519 300.585C231.413 300.382 231.252 300.226 231.036 300.116C230.821 300.006 230.554 299.951 230.237 299.951C229.94 299.951 229.68 300.001 229.456 300.103C229.236 300.205 229.062 300.338 228.935 300.503C228.813 300.668 228.751 300.846 228.751 301.036H227.577C227.577 300.791 227.64 300.547 227.767 300.306C227.894 300.065 228.076 299.847 228.313 299.652C228.554 299.453 228.842 299.297 229.177 299.183C229.515 299.064 229.892 299.005 230.306 299.005C230.806 299.005 231.246 299.09 231.627 299.259C232.012 299.428 232.312 299.684 232.528 300.027C232.748 300.365 232.858 300.791 232.858 301.303V304.502C232.858 304.73 232.877 304.974 232.915 305.232C232.958 305.49 233.019 305.712 233.099 305.898V306H231.874C231.815 305.865 231.768 305.685 231.735 305.46C231.701 305.232 231.684 305.02 231.684 304.826ZM231.887 301.836L231.9 302.661H230.713C230.378 302.661 230.08 302.689 229.818 302.744C229.555 302.794 229.335 302.873 229.157 302.979C228.98 303.084 228.844 303.218 228.751 303.378C228.658 303.535 228.612 303.719 228.612 303.931C228.612 304.146 228.66 304.343 228.758 304.521C228.855 304.699 229.001 304.84 229.196 304.946C229.394 305.048 229.638 305.099 229.926 305.099C230.285 305.099 230.603 305.022 230.878 304.87C231.153 304.718 231.371 304.532 231.531 304.312C231.697 304.091 231.785 303.878 231.798 303.67L232.3 304.235C232.27 304.413 232.19 304.61 232.058 304.826C231.927 305.042 231.752 305.249 231.531 305.448C231.316 305.642 231.058 305.805 230.757 305.937C230.461 306.063 230.127 306.127 229.754 306.127C229.289 306.127 228.88 306.036 228.529 305.854C228.182 305.672 227.911 305.429 227.717 305.124C227.526 304.815 227.431 304.47 227.431 304.089C227.431 303.721 227.503 303.397 227.647 303.118C227.791 302.835 227.998 302.6 228.269 302.414C228.54 302.223 228.865 302.079 229.246 301.982C229.627 301.885 230.052 301.836 230.522 301.836H231.887Z" fill="#1A1A1A"/>
<rect x="606.002" y="180" width="8" height="64" rx="4" fill="#E6E6E6"/>
<path d="M138.002 124H618.002H138.002ZM620.002 324C620.002 327.314 617.315 330 614.002 330H142.002C138.688 330 136.002 327.314 136.002 324H140.002C140.002 325.105 140.897 326 142.002 326H614.002C615.106 326 616.002 325.105 616.002 324H620.002ZM142.002 330C138.688 330 136.002 327.314 136.002 324V124H140.002V324C140.002 325.105 140.897 326 142.002 326V330ZM620.002 124V324C620.002 327.314 617.315 330 614.002 330V326C615.106 326 616.002 325.105 616.002 324V124H620.002Z" fill="#286EF1" mask="url(#path-21-inside-3_2851_47256)"/>
<path d="M648.75 176.499L633.794 176.499" stroke="#737373"/>
<path d="M649.266 310.372L634.31 310.372" stroke="#737373"/>
<path d="M648.75 310.372V175.966" stroke="#737373"/>
<path d="M689.159 201.43L648.75 201.43" stroke="#737373"/>
<rect x="692.75" y="190.5" width="26" height="26" rx="4" fill="#333333"/>
<path d="M709.174 207.188V208.5H702.502V207.372L705.742 203.838C706.098 203.437 706.378 203.09 706.583 202.799C706.788 202.507 706.932 202.245 707.014 202.013C707.1 201.776 707.144 201.546 707.144 201.322C707.144 201.008 707.084 200.732 706.966 200.495C706.852 200.254 706.683 200.064 706.46 199.928C706.237 199.786 705.965 199.716 705.646 199.716C705.277 199.716 704.967 199.796 704.717 199.955C704.466 200.115 704.277 200.336 704.149 200.618C704.022 200.896 703.958 201.215 703.958 201.575H702.311C702.311 200.996 702.443 200.468 702.707 199.989C702.971 199.506 703.354 199.123 703.855 198.841C704.357 198.554 704.961 198.41 705.667 198.41C706.332 198.41 706.897 198.522 707.362 198.745C707.827 198.968 708.18 199.285 708.422 199.695C708.668 200.105 708.791 200.591 708.791 201.151C708.791 201.461 708.741 201.769 708.641 202.074C708.54 202.38 708.397 202.685 708.21 202.99C708.028 203.291 707.811 203.594 707.561 203.899C707.31 204.2 707.034 204.506 706.733 204.815L704.58 207.188H709.174Z" fill="white"/>
<path d="M628.646 152.076C628.451 152.271 628.451 152.588 628.646 152.783L631.828 155.965C632.024 156.16 632.34 156.16 632.536 155.965C632.731 155.77 632.731 155.453 632.536 155.258L629.707 152.43L632.536 149.601C632.731 149.406 632.731 149.089 632.536 148.894C632.34 148.699 632.024 148.699 631.828 148.894L628.646 152.076ZM669.409 151.93L629 151.93L629 152.93L669.409 152.93L669.409 151.93Z" fill="#737373"/>
<rect x="694" y="141.5" width="26" height="26" rx="4" fill="#333333"/>
<path d="M705.687 153.778H706.671C707.054 153.778 707.37 153.712 707.621 153.58C707.876 153.448 708.065 153.266 708.188 153.033C708.312 152.801 708.373 152.534 708.373 152.233C708.373 151.919 708.316 151.65 708.202 151.427C708.093 151.199 707.924 151.023 707.696 150.9C707.473 150.777 707.188 150.716 706.842 150.716C706.55 150.716 706.286 150.775 706.049 150.894C705.816 151.007 705.632 151.172 705.495 151.386C705.358 151.595 705.29 151.846 705.29 152.138H703.636C703.636 151.609 703.775 151.14 704.053 150.729C704.331 150.319 704.709 149.998 705.188 149.766C705.671 149.529 706.213 149.41 706.814 149.41C707.457 149.41 708.018 149.517 708.496 149.731C708.979 149.941 709.355 150.256 709.624 150.675C709.893 151.094 710.027 151.614 710.027 152.233C710.027 152.516 709.961 152.803 709.829 153.095C709.697 153.386 709.501 153.653 709.241 153.895C708.981 154.132 708.658 154.325 708.271 154.476C707.883 154.621 707.434 154.694 706.924 154.694H705.687V153.778ZM705.687 155.063V154.161H706.924C707.507 154.161 708.004 154.229 708.414 154.366C708.829 154.503 709.166 154.692 709.426 154.934C709.686 155.171 709.875 155.442 709.993 155.747C710.116 156.052 710.178 156.376 710.178 156.718C710.178 157.183 710.093 157.597 709.925 157.962C709.761 158.322 709.526 158.627 709.221 158.878C708.915 159.129 708.558 159.318 708.147 159.445C707.742 159.573 707.3 159.637 706.821 159.637C706.393 159.637 705.983 159.577 705.591 159.459C705.199 159.34 704.848 159.165 704.538 158.933C704.228 158.696 703.982 158.402 703.8 158.051C703.622 157.695 703.533 157.285 703.533 156.82H705.181C705.181 157.117 705.249 157.379 705.386 157.606C705.527 157.83 705.723 158.005 705.974 158.133C706.229 158.26 706.521 158.324 706.849 158.324C707.195 158.324 707.493 158.263 707.744 158.14C707.995 158.017 708.186 157.834 708.318 157.593C708.455 157.351 708.523 157.06 708.523 156.718C708.523 156.33 708.448 156.016 708.298 155.774C708.147 155.533 707.933 155.355 707.655 155.241C707.377 155.123 707.049 155.063 706.671 155.063H705.687Z" fill="white"/>
<path d="M669.41 40.4297L572.701 40.4297" stroke="#737373"/>
<path d="M572.813 91.3335C573.008 91.5288 573.325 91.5288 573.52 91.3335L576.702 88.1516C576.897 87.9563 576.897 87.6397 576.702 87.4444C576.507 87.2492 576.19 87.2492 575.995 87.4444L573.167 90.2729L570.338 87.4444C570.143 87.2492 569.826 87.2492 569.631 87.4444C569.436 87.6397 569.436 87.9563 569.631 88.1516L572.813 91.3335ZM573.667 90.98L573.667 40.4298L572.667 40.4298L572.667 90.98L573.667 90.98Z" fill="#737373"/>
<rect x="694" y="29.5" width="26" height="26" rx="4" fill="#333333"/>
<path d="M710.608 43.9521V45.2646H703.431L703.376 44.2734L707.669 37.5469H708.988L707.56 39.9941L705.092 43.9521H710.608ZM709.364 37.5469V47.5H707.717V37.5469H709.364Z" fill="white"/>
<rect x="29" y="91" width="26" height="26" rx="4" fill="#333333"/>
<path d="M43.25 99.0127V109H41.6025V100.968L39.1621 101.795V100.435L43.0518 99.0127H43.25Z" fill="white"/>
<path d="M131 104L126 101.113V106.887L131 104ZM126.5 103.5L59 103.5V104.5L126.5 104.5V103.5Z" fill="#737373"/>
</g>
<defs>
<filter id="filter0_dddddd_2851_47256" x="10.7126" y="40.6021" width="753.242" height="504.931" filterUnits="userSpaceOnUse" color-interpolation-filters="sRGB">
<feFlood flood-opacity="0" result="BackgroundImageFix"/>
<feColorMatrix in="SourceAlpha" type="matrix" values="0 0 0 0 0 0 0 0 0 0 0 0 0 0 0 0 0 0 127 0" result="hardAlpha"/>
<feOffset dy="2.76726"/>
<feGaussianBlur stdDeviation="1.1069"/>
<feColorMatrix type="matrix" values="0 0 0 0 0 0 0 0 0 0 0 0 0 0 0 0 0 0 0.0196802 0"/>
<feBlend mode="normal" in2="BackgroundImageFix" result="effect1_dropShadow_2851_47256"/>
<feColorMatrix in="SourceAlpha" type="matrix" values="0 0 0 0 0 0 0 0 0 0 0 0 0 0 0 0 0 0 127 0" result="hardAlpha"/>
<feOffset dy="6.6501"/>
<feGaussianBlur stdDeviation="2.66004"/>
<feColorMatrix type="matrix" values="0 0 0 0 0 0 0 0 0 0 0 0 0 0 0 0 0 0 0.0282725 0"/>
<feBlend mode="normal" in2="effect1_dropShadow_2851_47256" result="effect2_dropShadow_2851_47256"/>
<feColorMatrix in="SourceAlpha" type="matrix" values="0 0 0 0 0 0 0 0 0 0 0 0 0 0 0 0 0 0 127 0" result="hardAlpha"/>
<feOffset dy="12.5216"/>
<feGaussianBlur stdDeviation="5.00862"/>
<feColorMatrix type="matrix" values="0 0 0 0 0 0 0 0 0 0 0 0 0 0 0 0 0 0 0.035 0"/>
<feBlend mode="normal" in2="effect2_dropShadow_2851_47256" result="effect3_dropShadow_2851_47256"/>
<feColorMatrix in="SourceAlpha" type="matrix" values="0 0 0 0 0 0 0 0 0 0 0 0 0 0 0 0 0 0 127 0" result="hardAlpha"/>
<feOffset dy="22.3363"/>
<feGaussianBlur stdDeviation="8.93452"/>
<feColorMatrix type="matrix" values="0 0 0 0 0 0 0 0 0 0 0 0 0 0 0 0 0 0 0.0417275 0"/>
<feBlend mode="normal" in2="effect3_dropShadow_2851_47256" result="effect4_dropShadow_2851_47256"/>
<feColorMatrix in="SourceAlpha" type="matrix" values="0 0 0 0 0 0 0 0 0 0 0 0 0 0 0 0 0 0 127 0" result="hardAlpha"/>
<feOffset dy="41.7776"/>
<feGaussianBlur stdDeviation="16.711"/>
<feColorMatrix type="matrix" values="0 0 0 0 0 0 0 0 0 0 0 0 0 0 0 0 0 0 0.0503198 0"/>
<feBlend mode="normal" in2="effect4_dropShadow_2851_47256" result="effect5_dropShadow_2851_47256"/>
<feColorMatrix in="SourceAlpha" type="matrix" values="0 0 0 0 0 0 0 0 0 0 0 0 0 0 0 0 0 0 127 0" result="hardAlpha"/>
<feOffset dy="100"/>
<feGaussianBlur stdDeviation="40"/>
<feColorMatrix type="matrix" values="0 0 0 0 0 0 0 0 0 0 0 0 0 0 0 0 0 0 0.07 0"/>
<feBlend mode="normal" in2="effect5_dropShadow_2851_47256" result="effect6_dropShadow_2851_47256"/>
<feBlend mode="normal" in="SourceGraphic" in2="effect6_dropShadow_2851_47256" result="shape"/>
</filter>
<clipPath id="clip0_2851_47256">
<rect width="803" height="406" rx="4" fill="white"/>
</clipPath>
</defs>
</svg>
