<svg width="1630" height="352" viewBox="0 0 1630 352" fill="none" xmlns="http://www.w3.org/2000/svg">
<rect width="1630" height="352" rx="4" fill="#F8F8F8"/>
<path d="M100.461 81H98.0312L98.0469 79.4453H100.461C101.164 79.4453 101.753 79.2917 102.227 78.9844C102.706 78.6771 103.065 78.237 103.305 77.6641C103.549 77.0911 103.672 76.4089 103.672 75.6172V75C103.672 74.3854 103.602 73.8411 103.461 73.3672C103.326 72.8932 103.122 72.4948 102.852 72.1719C102.586 71.849 102.258 71.6042 101.867 71.4375C101.482 71.2708 101.036 71.1875 100.531 71.1875H97.9844V69.625H100.531C101.286 69.625 101.977 69.7526 102.602 70.0078C103.227 70.2578 103.766 70.6198 104.219 71.0938C104.677 71.5677 105.029 72.1354 105.273 72.7969C105.518 73.4583 105.641 74.1979 105.641 75.0156V75.6172C105.641 76.4349 105.518 77.1745 105.273 77.8359C105.029 78.4974 104.677 79.0651 104.219 79.5391C103.76 80.0078 103.214 80.3698 102.578 80.625C101.948 80.875 101.242 81 100.461 81ZM99.1172 69.625V81H97.1562V69.625H99.1172ZM111.148 81.1562C110.523 81.1562 109.958 81.0547 109.453 80.8516C108.953 80.6432 108.526 80.3542 108.172 79.9844C107.823 79.6146 107.555 79.1797 107.367 78.6797C107.18 78.1797 107.086 77.6406 107.086 77.0625V76.75C107.086 76.0885 107.182 75.4896 107.375 74.9531C107.568 74.4167 107.836 73.9583 108.18 73.5781C108.523 73.1927 108.93 72.8984 109.398 72.6953C109.867 72.4922 110.375 72.3906 110.922 72.3906C111.526 72.3906 112.055 72.4922 112.508 72.6953C112.961 72.8984 113.336 73.1849 113.633 73.5547C113.935 73.9193 114.159 74.3542 114.305 74.8594C114.456 75.3646 114.531 75.9219 114.531 76.5312V77.3359H108V75.9844H112.672V75.8359C112.661 75.4974 112.594 75.1797 112.469 74.8828C112.349 74.5859 112.164 74.3464 111.914 74.1641C111.664 73.9818 111.331 73.8906 110.914 73.8906C110.602 73.8906 110.323 73.9583 110.078 74.0938C109.839 74.224 109.638 74.4141 109.477 74.6641C109.315 74.9141 109.19 75.2161 109.102 75.5703C109.018 75.9193 108.977 76.3125 108.977 76.75V77.0625C108.977 77.4323 109.026 77.776 109.125 78.0938C109.229 78.4062 109.38 78.6797 109.578 78.9141C109.776 79.1484 110.016 79.3333 110.297 79.4688C110.578 79.599 110.898 79.6641 111.258 79.6641C111.711 79.6641 112.115 79.5729 112.469 79.3906C112.823 79.2083 113.13 78.9505 113.391 78.6172L114.383 79.5781C114.201 79.8438 113.964 80.099 113.672 80.3438C113.38 80.5833 113.023 80.7786 112.602 80.9297C112.185 81.0807 111.701 81.1562 111.148 81.1562ZM118.547 81H116.664V71.7344C116.664 71.1042 116.781 70.5755 117.016 70.1484C117.255 69.7161 117.596 69.3906 118.039 69.1719C118.482 68.9479 119.005 68.8359 119.609 68.8359C119.797 68.8359 119.982 68.849 120.164 68.875C120.346 68.8958 120.523 68.9297 120.695 68.9766L120.648 70.4297C120.544 70.4036 120.43 70.3854 120.305 70.375C120.185 70.3646 120.055 70.3594 119.914 70.3594C119.628 70.3594 119.38 70.4141 119.172 70.5234C118.969 70.6276 118.812 70.7812 118.703 70.9844C118.599 71.1875 118.547 71.4375 118.547 71.7344V81ZM120.289 72.5469V73.9219H115.367V72.5469H120.289ZM126.422 79.3047V75.2734C126.422 74.9714 126.367 74.7109 126.258 74.4922C126.148 74.2734 125.982 74.1042 125.758 73.9844C125.539 73.8646 125.263 73.8047 124.93 73.8047C124.622 73.8047 124.357 73.8568 124.133 73.9609C123.909 74.0651 123.734 74.2057 123.609 74.3828C123.484 74.5599 123.422 74.7604 123.422 74.9844H121.547C121.547 74.651 121.628 74.3281 121.789 74.0156C121.951 73.7031 122.185 73.4245 122.492 73.1797C122.799 72.9349 123.167 72.7422 123.594 72.6016C124.021 72.4609 124.5 72.3906 125.031 72.3906C125.667 72.3906 126.229 72.4974 126.719 72.7109C127.214 72.9245 127.602 73.2474 127.883 73.6797C128.169 74.1068 128.312 74.6432 128.312 75.2891V79.0469C128.312 79.4323 128.339 79.7786 128.391 80.0859C128.448 80.388 128.529 80.651 128.633 80.875V81H126.703C126.615 80.7969 126.544 80.5391 126.492 80.2266C126.445 79.9089 126.422 79.6016 126.422 79.3047ZM126.695 75.8594L126.711 77.0234H125.359C125.01 77.0234 124.703 77.0573 124.438 77.125C124.172 77.1875 123.951 77.2812 123.773 77.4062C123.596 77.5312 123.464 77.6823 123.375 77.8594C123.286 78.0365 123.242 78.237 123.242 78.4609C123.242 78.6849 123.294 78.8906 123.398 79.0781C123.503 79.2604 123.654 79.4036 123.852 79.5078C124.055 79.612 124.299 79.6641 124.586 79.6641C124.971 79.6641 125.307 79.5859 125.594 79.4297C125.885 79.2682 126.115 79.0729 126.281 78.8438C126.448 78.6094 126.536 78.388 126.547 78.1797L127.156 79.0156C127.094 79.2292 126.987 79.4583 126.836 79.7031C126.685 79.9479 126.487 80.1823 126.242 80.4062C126.003 80.625 125.714 80.8047 125.375 80.9453C125.042 81.0859 124.656 81.1562 124.219 81.1562C123.667 81.1562 123.174 81.0469 122.742 80.8281C122.31 80.6042 121.971 80.3047 121.727 79.9297C121.482 79.5495 121.359 79.1198 121.359 78.6406C121.359 78.1927 121.443 77.7969 121.609 77.4531C121.781 77.1042 122.031 76.8125 122.359 76.5781C122.693 76.3438 123.099 76.1667 123.578 76.0469C124.057 75.9219 124.604 75.8594 125.219 75.8594H126.695ZM135.367 79.0078V72.5469H137.258V81H135.477L135.367 79.0078ZM135.633 77.25L136.266 77.2344C136.266 77.8021 136.203 78.3255 136.078 78.8047C135.953 79.2786 135.76 79.6927 135.5 80.0469C135.24 80.3958 134.906 80.6693 134.5 80.8672C134.094 81.0599 133.607 81.1562 133.039 81.1562C132.628 81.1562 132.25 81.0964 131.906 80.9766C131.562 80.8568 131.266 80.6719 131.016 80.4219C130.771 80.1719 130.581 79.8464 130.445 79.4453C130.31 79.0443 130.242 78.5651 130.242 78.0078V72.5469H132.125V78.0234C132.125 78.3307 132.161 78.5885 132.234 78.7969C132.307 79 132.406 79.1641 132.531 79.2891C132.656 79.4141 132.802 79.5026 132.969 79.5547C133.135 79.6068 133.312 79.6328 133.5 79.6328C134.036 79.6328 134.458 79.5286 134.766 79.3203C135.078 79.1068 135.299 78.8203 135.43 78.4609C135.565 78.1016 135.633 77.6979 135.633 77.25ZM141.203 69V81H139.312V69H141.203ZM147.141 72.5469V73.9219H142.375V72.5469H147.141ZM143.75 70.4766H145.633V78.6641C145.633 78.9245 145.669 79.125 145.742 79.2656C145.82 79.401 145.927 79.4922 146.062 79.5391C146.198 79.5859 146.357 79.6094 146.539 79.6094C146.669 79.6094 146.794 79.6016 146.914 79.5859C147.034 79.5703 147.13 79.5547 147.203 79.5391L147.211 80.9766C147.055 81.0234 146.872 81.0651 146.664 81.1016C146.461 81.138 146.227 81.1562 145.961 81.1562C145.529 81.1562 145.146 81.0807 144.812 80.9297C144.479 80.7734 144.219 80.5208 144.031 80.1719C143.844 79.8229 143.75 79.3594 143.75 78.7812V70.4766Z" fill="#737373"/>
<path d="M404.672 74.375V75.9297H398.633V74.375H404.672ZM399.117 69.625V81H397.156V69.625H399.117ZM406.18 69.625V81H404.227V69.625H406.18ZM407.969 76.8672V76.6875C407.969 76.0781 408.057 75.513 408.234 74.9922C408.411 74.4661 408.667 74.0104 409 73.625C409.339 73.2344 409.75 72.9323 410.234 72.7188C410.724 72.5 411.276 72.3906 411.891 72.3906C412.51 72.3906 413.062 72.5 413.547 72.7188C414.036 72.9323 414.451 73.2344 414.789 73.625C415.128 74.0104 415.385 74.4661 415.562 74.9922C415.74 75.513 415.828 76.0781 415.828 76.6875V76.8672C415.828 77.4766 415.74 78.0417 415.562 78.5625C415.385 79.0833 415.128 79.5391 414.789 79.9297C414.451 80.3151 414.039 80.6172 413.555 80.8359C413.07 81.0495 412.521 81.1562 411.906 81.1562C411.286 81.1562 410.732 81.0495 410.242 80.8359C409.758 80.6172 409.346 80.3151 409.008 79.9297C408.669 79.5391 408.411 79.0833 408.234 78.5625C408.057 78.0417 407.969 77.4766 407.969 76.8672ZM409.852 76.6875V76.8672C409.852 77.2474 409.891 77.6068 409.969 77.9453C410.047 78.2839 410.169 78.5807 410.336 78.8359C410.503 79.0911 410.716 79.2917 410.977 79.4375C411.237 79.5833 411.547 79.6562 411.906 79.6562C412.255 79.6562 412.557 79.5833 412.812 79.4375C413.073 79.2917 413.286 79.0911 413.453 78.8359C413.62 78.5807 413.742 78.2839 413.82 77.9453C413.904 77.6068 413.945 77.2474 413.945 76.8672V76.6875C413.945 76.3125 413.904 75.9583 413.82 75.625C413.742 75.2865 413.617 74.987 413.445 74.7266C413.279 74.4661 413.065 74.263 412.805 74.1172C412.549 73.9661 412.245 73.8906 411.891 73.8906C411.536 73.8906 411.229 73.9661 410.969 74.1172C410.714 74.263 410.503 74.4661 410.336 74.7266C410.169 74.987 410.047 75.2865 409.969 75.625C409.891 75.9583 409.852 76.3125 409.852 76.6875ZM420.031 79.5078L422.102 72.5469H424.055L421.117 81H419.898L420.031 79.5078ZM418.445 72.5469L420.555 79.5391L420.656 81H419.438L416.484 72.5469H418.445ZM428.836 81.1562C428.211 81.1562 427.646 81.0547 427.141 80.8516C426.641 80.6432 426.214 80.3542 425.859 79.9844C425.51 79.6146 425.242 79.1797 425.055 78.6797C424.867 78.1797 424.773 77.6406 424.773 77.0625V76.75C424.773 76.0885 424.87 75.4896 425.062 74.9531C425.255 74.4167 425.523 73.9583 425.867 73.5781C426.211 73.1927 426.617 72.8984 427.086 72.6953C427.555 72.4922 428.062 72.3906 428.609 72.3906C429.214 72.3906 429.742 72.4922 430.195 72.6953C430.648 72.8984 431.023 73.1849 431.32 73.5547C431.622 73.9193 431.846 74.3542 431.992 74.8594C432.143 75.3646 432.219 75.9219 432.219 76.5312V77.3359H425.688V75.9844H430.359V75.8359C430.349 75.4974 430.281 75.1797 430.156 74.8828C430.036 74.5859 429.852 74.3464 429.602 74.1641C429.352 73.9818 429.018 73.8906 428.602 73.8906C428.289 73.8906 428.01 73.9583 427.766 74.0938C427.526 74.224 427.326 74.4141 427.164 74.6641C427.003 74.9141 426.878 75.2161 426.789 75.5703C426.706 75.9193 426.664 76.3125 426.664 76.75V77.0625C426.664 77.4323 426.714 77.776 426.812 78.0938C426.917 78.4062 427.068 78.6797 427.266 78.9141C427.464 79.1484 427.703 79.3333 427.984 79.4688C428.266 79.599 428.586 79.6641 428.945 79.6641C429.398 79.6641 429.802 79.5729 430.156 79.3906C430.51 79.2083 430.818 78.9505 431.078 78.6172L432.07 79.5781C431.888 79.8438 431.651 80.099 431.359 80.3438C431.068 80.5833 430.711 80.7786 430.289 80.9297C429.872 81.0807 429.388 81.1562 428.836 81.1562ZM435.578 74.1562V81H433.695V72.5469H435.492L435.578 74.1562ZM438.164 72.4922L438.148 74.2422C438.034 74.2214 437.909 74.2057 437.773 74.1953C437.643 74.1849 437.513 74.1797 437.383 74.1797C437.06 74.1797 436.776 74.2266 436.531 74.3203C436.286 74.4089 436.081 74.5391 435.914 74.7109C435.753 74.8776 435.628 75.0807 435.539 75.3203C435.451 75.5599 435.398 75.8281 435.383 76.125L434.953 76.1562C434.953 75.625 435.005 75.1328 435.109 74.6797C435.214 74.2266 435.37 73.8281 435.578 73.4844C435.792 73.1406 436.057 72.8724 436.375 72.6797C436.698 72.487 437.07 72.3906 437.492 72.3906C437.607 72.3906 437.729 72.401 437.859 72.4219C437.995 72.4427 438.096 72.4661 438.164 72.4922Z" fill="#737373"/>
<path d="M699.117 69.625V81H697.156V69.625H699.117ZM703.758 74.6016V76.1562H698.617V74.6016H703.758ZM704.406 69.625V71.1875H698.617V69.625H704.406ZM705.25 76.8672V76.6875C705.25 76.0781 705.339 75.513 705.516 74.9922C705.693 74.4661 705.948 74.0104 706.281 73.625C706.62 73.2344 707.031 72.9323 707.516 72.7188C708.005 72.5 708.557 72.3906 709.172 72.3906C709.792 72.3906 710.344 72.5 710.828 72.7188C711.318 72.9323 711.732 73.2344 712.07 73.625C712.409 74.0104 712.667 74.4661 712.844 74.9922C713.021 75.513 713.109 76.0781 713.109 76.6875V76.8672C713.109 77.4766 713.021 78.0417 712.844 78.5625C712.667 79.0833 712.409 79.5391 712.07 79.9297C711.732 80.3151 711.32 80.6172 710.836 80.8359C710.352 81.0495 709.802 81.1562 709.188 81.1562C708.568 81.1562 708.013 81.0495 707.523 80.8359C707.039 80.6172 706.628 80.3151 706.289 79.9297C705.951 79.5391 705.693 79.0833 705.516 78.5625C705.339 78.0417 705.25 77.4766 705.25 76.8672ZM707.133 76.6875V76.8672C707.133 77.2474 707.172 77.6068 707.25 77.9453C707.328 78.2839 707.451 78.5807 707.617 78.8359C707.784 79.0911 707.997 79.2917 708.258 79.4375C708.518 79.5833 708.828 79.6562 709.188 79.6562C709.536 79.6562 709.839 79.5833 710.094 79.4375C710.354 79.2917 710.568 79.0911 710.734 78.8359C710.901 78.5807 711.023 78.2839 711.102 77.9453C711.185 77.6068 711.227 77.2474 711.227 76.8672V76.6875C711.227 76.3125 711.185 75.9583 711.102 75.625C711.023 75.2865 710.898 74.987 710.727 74.7266C710.56 74.4661 710.346 74.263 710.086 74.1172C709.831 73.9661 709.526 73.8906 709.172 73.8906C708.818 73.8906 708.51 73.9661 708.25 74.1172C707.995 74.263 707.784 74.4661 707.617 74.7266C707.451 74.987 707.328 75.2865 707.25 75.625C707.172 75.9583 707.133 76.3125 707.133 76.6875ZM718.141 79.6562C718.448 79.6562 718.724 79.5964 718.969 79.4766C719.219 79.3516 719.419 79.1797 719.57 78.9609C719.727 78.7422 719.812 78.4896 719.828 78.2031H721.602C721.591 78.75 721.43 79.2474 721.117 79.6953C720.805 80.1432 720.391 80.5 719.875 80.7656C719.359 81.026 718.789 81.1562 718.164 81.1562C717.518 81.1562 716.956 81.0469 716.477 80.8281C715.997 80.6042 715.599 80.2969 715.281 79.9062C714.964 79.5156 714.724 79.0651 714.562 78.5547C714.406 78.0443 714.328 77.4974 714.328 76.9141V76.6406C714.328 76.0573 714.406 75.5104 714.562 75C714.724 74.4844 714.964 74.0312 715.281 73.6406C715.599 73.25 715.997 72.9453 716.477 72.7266C716.956 72.5026 717.516 72.3906 718.156 72.3906C718.833 72.3906 719.427 72.526 719.938 72.7969C720.448 73.0625 720.849 73.4349 721.141 73.9141C721.438 74.388 721.591 74.9401 721.602 75.5703H719.828C719.812 75.2578 719.734 74.9766 719.594 74.7266C719.458 74.4714 719.266 74.2682 719.016 74.1172C718.771 73.9661 718.477 73.8906 718.133 73.8906C717.753 73.8906 717.438 73.9688 717.188 74.125C716.938 74.276 716.742 74.4844 716.602 74.75C716.461 75.0104 716.359 75.3047 716.297 75.6328C716.24 75.9557 716.211 76.2917 716.211 76.6406V76.9141C716.211 77.263 716.24 77.6016 716.297 77.9297C716.354 78.2578 716.453 78.5521 716.594 78.8125C716.74 79.0677 716.938 79.2734 717.188 79.4297C717.438 79.5807 717.755 79.6562 718.141 79.6562ZM728.133 79.0078V72.5469H730.023V81H728.242L728.133 79.0078ZM728.398 77.25L729.031 77.2344C729.031 77.8021 728.969 78.3255 728.844 78.8047C728.719 79.2786 728.526 79.6927 728.266 80.0469C728.005 80.3958 727.672 80.6693 727.266 80.8672C726.859 81.0599 726.372 81.1562 725.805 81.1562C725.393 81.1562 725.016 81.0964 724.672 80.9766C724.328 80.8568 724.031 80.6719 723.781 80.4219C723.536 80.1719 723.346 79.8464 723.211 79.4453C723.076 79.0443 723.008 78.5651 723.008 78.0078V72.5469H724.891V78.0234C724.891 78.3307 724.927 78.5885 725 78.7969C725.073 79 725.172 79.1641 725.297 79.2891C725.422 79.4141 725.568 79.5026 725.734 79.5547C725.901 79.6068 726.078 79.6328 726.266 79.6328C726.802 79.6328 727.224 79.5286 727.531 79.3203C727.844 79.1068 728.065 78.8203 728.195 78.4609C728.331 78.1016 728.398 77.6979 728.398 77.25ZM736.695 78.7109C736.695 78.5234 736.648 78.3542 736.555 78.2031C736.461 78.0469 736.281 77.9062 736.016 77.7812C735.755 77.6562 735.37 77.5417 734.859 77.4375C734.411 77.3385 734 77.2214 733.625 77.0859C733.255 76.9453 732.938 76.776 732.672 76.5781C732.406 76.3802 732.201 76.1458 732.055 75.875C731.909 75.6042 731.836 75.2917 731.836 74.9375C731.836 74.5938 731.911 74.2682 732.062 73.9609C732.214 73.6536 732.43 73.3828 732.711 73.1484C732.992 72.9141 733.333 72.7292 733.734 72.5938C734.141 72.4583 734.594 72.3906 735.094 72.3906C735.802 72.3906 736.409 72.5104 736.914 72.75C737.424 72.9844 737.815 73.3047 738.086 73.7109C738.357 74.112 738.492 74.5651 738.492 75.0703H736.609C736.609 74.8464 736.552 74.638 736.438 74.4453C736.328 74.2474 736.161 74.0885 735.938 73.9688C735.714 73.8438 735.432 73.7812 735.094 73.7812C734.771 73.7812 734.503 73.8333 734.289 73.9375C734.081 74.0365 733.924 74.1667 733.82 74.3281C733.721 74.4896 733.672 74.6667 733.672 74.8594C733.672 75 733.698 75.1276 733.75 75.2422C733.807 75.3516 733.901 75.4531 734.031 75.5469C734.161 75.6354 734.339 75.7188 734.562 75.7969C734.792 75.875 735.078 75.9505 735.422 76.0234C736.068 76.1589 736.622 76.3333 737.086 76.5469C737.555 76.7552 737.914 77.026 738.164 77.3594C738.414 77.6875 738.539 78.1042 738.539 78.6094C738.539 78.9844 738.458 79.3281 738.297 79.6406C738.141 79.9479 737.911 80.2161 737.609 80.4453C737.307 80.6693 736.945 80.8438 736.523 80.9688C736.107 81.0938 735.638 81.1562 735.117 81.1562C734.352 81.1562 733.703 81.0208 733.172 80.75C732.641 80.474 732.237 80.1224 731.961 79.6953C731.69 79.263 731.555 78.8151 731.555 78.3516H733.375C733.396 78.7005 733.492 78.9792 733.664 79.1875C733.841 79.3906 734.06 79.5391 734.32 79.6328C734.586 79.7214 734.859 79.7656 735.141 79.7656C735.479 79.7656 735.763 79.7214 735.992 79.6328C736.221 79.5391 736.396 79.4141 736.516 79.2578C736.635 79.0964 736.695 78.9141 736.695 78.7109Z" fill="#737373"/>
<path d="M1000.46 81H998.031L998.047 79.4453H1000.46C1001.16 79.4453 1001.75 79.2917 1002.23 78.9844C1002.71 78.6771 1003.07 78.237 1003.3 77.6641C1003.55 77.0911 1003.67 76.4089 1003.67 75.6172V75C1003.67 74.3854 1003.6 73.8411 1003.46 73.3672C1003.33 72.8932 1003.12 72.4948 1002.85 72.1719C1002.59 71.849 1002.26 71.6042 1001.87 71.4375C1001.48 71.2708 1001.04 71.1875 1000.53 71.1875H997.984V69.625H1000.53C1001.29 69.625 1001.98 69.7526 1002.6 70.0078C1003.23 70.2578 1003.77 70.6198 1004.22 71.0938C1004.68 71.5677 1005.03 72.1354 1005.27 72.7969C1005.52 73.4583 1005.64 74.1979 1005.64 75.0156V75.6172C1005.64 76.4349 1005.52 77.1745 1005.27 77.8359C1005.03 78.4974 1004.68 79.0651 1004.22 79.5391C1003.76 80.0078 1003.21 80.3698 1002.58 80.625C1001.95 80.875 1001.24 81 1000.46 81ZM999.117 69.625V81H997.156V69.625H999.117ZM1009.44 72.5469V81H1007.55V72.5469H1009.44ZM1007.42 70.3281C1007.42 70.0417 1007.52 69.8047 1007.7 69.6172C1007.9 69.4245 1008.16 69.3281 1008.5 69.3281C1008.83 69.3281 1009.1 69.4245 1009.29 69.6172C1009.48 69.8047 1009.58 70.0417 1009.58 70.3281C1009.58 70.6094 1009.48 70.8438 1009.29 71.0312C1009.1 71.2188 1008.83 71.3125 1008.5 71.3125C1008.16 71.3125 1007.9 71.2188 1007.7 71.0312C1007.52 70.8438 1007.42 70.6094 1007.42 70.3281ZM1016.24 78.7109C1016.24 78.5234 1016.2 78.3542 1016.1 78.2031C1016.01 78.0469 1015.83 77.9062 1015.56 77.7812C1015.3 77.6562 1014.92 77.5417 1014.41 77.4375C1013.96 77.3385 1013.55 77.2214 1013.17 77.0859C1012.8 76.9453 1012.48 76.776 1012.22 76.5781C1011.95 76.3802 1011.75 76.1458 1011.6 75.875C1011.46 75.6042 1011.38 75.2917 1011.38 74.9375C1011.38 74.5938 1011.46 74.2682 1011.61 73.9609C1011.76 73.6536 1011.98 73.3828 1012.26 73.1484C1012.54 72.9141 1012.88 72.7292 1013.28 72.5938C1013.69 72.4583 1014.14 72.3906 1014.64 72.3906C1015.35 72.3906 1015.96 72.5104 1016.46 72.75C1016.97 72.9844 1017.36 73.3047 1017.63 73.7109C1017.9 74.112 1018.04 74.5651 1018.04 75.0703H1016.16C1016.16 74.8464 1016.1 74.638 1015.98 74.4453C1015.88 74.2474 1015.71 74.0885 1015.48 73.9688C1015.26 73.8438 1014.98 73.7812 1014.64 73.7812C1014.32 73.7812 1014.05 73.8333 1013.84 73.9375C1013.63 74.0365 1013.47 74.1667 1013.37 74.3281C1013.27 74.4896 1013.22 74.6667 1013.22 74.8594C1013.22 75 1013.24 75.1276 1013.3 75.2422C1013.35 75.3516 1013.45 75.4531 1013.58 75.5469C1013.71 75.6354 1013.89 75.7188 1014.11 75.7969C1014.34 75.875 1014.62 75.9505 1014.97 76.0234C1015.61 76.1589 1016.17 76.3333 1016.63 76.5469C1017.1 76.7552 1017.46 77.026 1017.71 77.3594C1017.96 77.6875 1018.09 78.1042 1018.09 78.6094C1018.09 78.9844 1018.01 79.3281 1017.84 79.6406C1017.69 79.9479 1017.46 80.2161 1017.16 80.4453C1016.85 80.6693 1016.49 80.8438 1016.07 80.9688C1015.65 81.0938 1015.18 81.1562 1014.66 81.1562C1013.9 81.1562 1013.25 81.0208 1012.72 80.75C1012.19 80.474 1011.78 80.1224 1011.51 79.6953C1011.24 79.263 1011.1 78.8151 1011.1 78.3516H1012.92C1012.94 78.7005 1013.04 78.9792 1013.21 79.1875C1013.39 79.3906 1013.61 79.5391 1013.87 79.6328C1014.13 79.7214 1014.41 79.7656 1014.69 79.7656C1015.03 79.7656 1015.31 79.7214 1015.54 79.6328C1015.77 79.5391 1015.94 79.4141 1016.06 79.2578C1016.18 79.0964 1016.24 78.9141 1016.24 78.7109ZM1024.5 79.3047V75.2734C1024.5 74.9714 1024.45 74.7109 1024.34 74.4922C1024.23 74.2734 1024.06 74.1042 1023.84 73.9844C1023.62 73.8646 1023.34 73.8047 1023.01 73.8047C1022.7 73.8047 1022.43 73.8568 1022.21 73.9609C1021.99 74.0651 1021.81 74.2057 1021.69 74.3828C1021.56 74.5599 1021.5 74.7604 1021.5 74.9844H1019.62C1019.62 74.651 1019.71 74.3281 1019.87 74.0156C1020.03 73.7031 1020.26 73.4245 1020.57 73.1797C1020.88 72.9349 1021.24 72.7422 1021.67 72.6016C1022.1 72.4609 1022.58 72.3906 1023.11 72.3906C1023.74 72.3906 1024.31 72.4974 1024.8 72.7109C1025.29 72.9245 1025.68 73.2474 1025.96 73.6797C1026.25 74.1068 1026.39 74.6432 1026.39 75.2891V79.0469C1026.39 79.4323 1026.42 79.7786 1026.47 80.0859C1026.53 80.388 1026.61 80.651 1026.71 80.875V81H1024.78C1024.69 80.7969 1024.62 80.5391 1024.57 80.2266C1024.52 79.9089 1024.5 79.6016 1024.5 79.3047ZM1024.77 75.8594L1024.79 77.0234H1023.44C1023.09 77.0234 1022.78 77.0573 1022.52 77.125C1022.25 77.1875 1022.03 77.2812 1021.85 77.4062C1021.67 77.5312 1021.54 77.6823 1021.45 77.8594C1021.36 78.0365 1021.32 78.237 1021.32 78.4609C1021.32 78.6849 1021.37 78.8906 1021.48 79.0781C1021.58 79.2604 1021.73 79.4036 1021.93 79.5078C1022.13 79.612 1022.38 79.6641 1022.66 79.6641C1023.05 79.6641 1023.39 79.5859 1023.67 79.4297C1023.96 79.2682 1024.19 79.0729 1024.36 78.8438C1024.53 78.6094 1024.61 78.388 1024.62 78.1797L1025.23 79.0156C1025.17 79.2292 1025.07 79.4583 1024.91 79.7031C1024.76 79.9479 1024.57 80.1823 1024.32 80.4062C1024.08 80.625 1023.79 80.8047 1023.45 80.9453C1023.12 81.0859 1022.73 81.1562 1022.3 81.1562C1021.74 81.1562 1021.25 81.0469 1020.82 80.8281C1020.39 80.6042 1020.05 80.3047 1019.8 79.9297C1019.56 79.5495 1019.44 79.1198 1019.44 78.6406C1019.44 78.1927 1019.52 77.7969 1019.69 77.4531C1019.86 77.1042 1020.11 76.8125 1020.44 76.5781C1020.77 76.3438 1021.18 76.1667 1021.66 76.0469C1022.14 75.9219 1022.68 75.8594 1023.3 75.8594H1024.77ZM1028.37 69H1030.25V79.1953L1030.07 81H1028.37V69ZM1035.77 76.6953V76.8594C1035.77 77.4844 1035.7 78.0599 1035.55 78.5859C1035.42 79.1068 1035.21 79.5599 1034.93 79.9453C1034.65 80.3307 1034.31 80.6302 1033.9 80.8438C1033.49 81.0521 1033.02 81.1562 1032.48 81.1562C1031.96 81.1562 1031.5 81.0573 1031.11 80.8594C1030.72 80.6615 1030.39 80.3802 1030.12 80.0156C1029.86 79.651 1029.65 79.2161 1029.49 78.7109C1029.33 78.2057 1029.22 77.6484 1029.15 77.0391V76.5156C1029.22 75.901 1029.33 75.3438 1029.49 74.8438C1029.65 74.3385 1029.86 73.9036 1030.12 73.5391C1030.39 73.1693 1030.72 72.8854 1031.1 72.6875C1031.49 72.4896 1031.95 72.3906 1032.47 72.3906C1033.01 72.3906 1033.49 72.4948 1033.9 72.7031C1034.32 72.9115 1034.66 73.2083 1034.94 73.5938C1035.21 73.974 1035.42 74.4271 1035.55 74.9531C1035.7 75.4792 1035.77 76.0599 1035.77 76.6953ZM1033.88 76.8594V76.6953C1033.88 76.3151 1033.85 75.9583 1033.79 75.625C1033.73 75.2865 1033.62 74.9896 1033.48 74.7344C1033.34 74.4792 1033.14 74.2786 1032.9 74.1328C1032.66 73.9818 1032.36 73.9062 1032 73.9062C1031.67 73.9062 1031.38 73.9635 1031.14 74.0781C1030.9 74.1927 1030.7 74.349 1030.54 74.5469C1030.38 74.7448 1030.25 74.974 1030.16 75.2344C1030.07 75.4948 1030.01 75.776 1029.98 76.0781V77.4922C1030.02 77.8828 1030.12 78.2422 1030.27 78.5703C1030.43 78.8932 1030.65 79.1536 1030.93 79.3516C1031.21 79.5443 1031.57 79.6406 1032.02 79.6406C1032.36 79.6406 1032.66 79.5703 1032.9 79.4297C1033.14 79.2891 1033.33 79.0938 1033.47 78.8438C1033.61 78.5885 1033.72 78.2917 1033.78 77.9531C1033.85 77.6146 1033.88 77.25 1033.88 76.8594ZM1039.38 69V81H1037.48V69H1039.38ZM1045.16 81.1562C1044.54 81.1562 1043.97 81.0547 1043.47 80.8516C1042.97 80.6432 1042.54 80.3542 1042.19 79.9844C1041.84 79.6146 1041.57 79.1797 1041.38 78.6797C1041.2 78.1797 1041.1 77.6406 1041.1 77.0625V76.75C1041.1 76.0885 1041.2 75.4896 1041.39 74.9531C1041.58 74.4167 1041.85 73.9583 1042.2 73.5781C1042.54 73.1927 1042.95 72.8984 1043.41 72.6953C1043.88 72.4922 1044.39 72.3906 1044.94 72.3906C1045.54 72.3906 1046.07 72.4922 1046.52 72.6953C1046.98 72.8984 1047.35 73.1849 1047.65 73.5547C1047.95 73.9193 1048.17 74.3542 1048.32 74.8594C1048.47 75.3646 1048.55 75.9219 1048.55 76.5312V77.3359H1042.02V75.9844H1046.69V75.8359C1046.68 75.4974 1046.61 75.1797 1046.48 74.8828C1046.36 74.5859 1046.18 74.3464 1045.93 74.1641C1045.68 73.9818 1045.35 73.8906 1044.93 73.8906C1044.62 73.8906 1044.34 73.9583 1044.09 74.0938C1043.85 74.224 1043.65 74.4141 1043.49 74.6641C1043.33 74.9141 1043.21 75.2161 1043.12 75.5703C1043.03 75.9193 1042.99 76.3125 1042.99 76.75V77.0625C1042.99 77.4323 1043.04 77.776 1043.14 78.0938C1043.24 78.4062 1043.4 78.6797 1043.59 78.9141C1043.79 79.1484 1044.03 79.3333 1044.31 79.4688C1044.59 79.599 1044.91 79.6641 1045.27 79.6641C1045.73 79.6641 1046.13 79.5729 1046.48 79.3906C1046.84 79.2083 1047.15 78.9505 1047.41 78.6172L1048.4 79.5781C1048.22 79.8438 1047.98 80.099 1047.69 80.3438C1047.4 80.5833 1047.04 80.7786 1046.62 80.9297C1046.2 81.0807 1045.72 81.1562 1045.16 81.1562ZM1055.17 79.25V69H1057.06V81H1055.35L1055.17 79.25ZM1049.67 76.8672V76.7031C1049.67 76.0625 1049.75 75.4792 1049.9 74.9531C1050.05 74.4219 1050.27 73.9661 1050.55 73.5859C1050.84 73.2005 1051.19 72.9062 1051.6 72.7031C1052.01 72.4948 1052.48 72.3906 1052.99 72.3906C1053.5 72.3906 1053.95 72.4896 1054.34 72.6875C1054.72 72.8854 1055.05 73.1693 1055.32 73.5391C1055.59 73.9036 1055.81 74.3411 1055.97 74.8516C1056.13 75.3568 1056.24 75.9193 1056.31 76.5391V77.0625C1056.24 77.6667 1056.13 78.2188 1055.97 78.7188C1055.81 79.2188 1055.59 79.651 1055.32 80.0156C1055.05 80.3802 1054.72 80.6615 1054.33 80.8594C1053.94 81.0573 1053.49 81.1562 1052.98 81.1562C1052.47 81.1562 1052.01 81.0495 1051.59 80.8359C1051.19 80.6224 1050.84 80.3229 1050.55 79.9375C1050.27 79.5521 1050.05 79.099 1049.9 78.5781C1049.75 78.0521 1049.67 77.4818 1049.67 76.8672ZM1051.55 76.7031V76.8672C1051.55 77.2526 1051.59 77.612 1051.66 77.9453C1051.73 78.2786 1051.84 78.5729 1051.99 78.8281C1052.14 79.0781 1052.34 79.276 1052.58 79.4219C1052.82 79.5625 1053.11 79.6328 1053.45 79.6328C1053.88 79.6328 1054.23 79.5391 1054.51 79.3516C1054.78 79.1641 1055 78.9115 1055.16 78.5938C1055.32 78.2708 1055.43 77.9115 1055.48 77.5156V76.1016C1055.45 75.7943 1055.39 75.5078 1055.29 75.2422C1055.2 74.9766 1055.07 74.7448 1054.91 74.5469C1054.74 74.3438 1054.54 74.1875 1054.3 74.0781C1054.07 73.9635 1053.79 73.9062 1053.47 73.9062C1053.12 73.9062 1052.83 73.9792 1052.59 74.125C1052.35 74.2708 1052.16 74.4714 1052 74.7266C1051.85 74.9818 1051.74 75.2786 1051.66 75.6172C1051.59 75.9557 1051.55 76.3177 1051.55 76.7031Z" fill="#737373"/>
<path d="M1304.6 79.4453V81H1298.56V79.4453H1304.6ZM1299.12 69.625V81H1297.16V69.625H1299.12ZM1303.81 74.375V75.9062H1298.56V74.375H1303.81ZM1304.56 69.625V71.1875H1298.56V69.625H1304.56ZM1307.91 74.1562V81H1306.02V72.5469H1307.82L1307.91 74.1562ZM1310.49 72.4922L1310.48 74.2422C1310.36 74.2214 1310.24 74.2057 1310.1 74.1953C1309.97 74.1849 1309.84 74.1797 1309.71 74.1797C1309.39 74.1797 1309.1 74.2266 1308.86 74.3203C1308.61 74.4089 1308.41 74.5391 1308.24 74.7109C1308.08 74.8776 1307.96 75.0807 1307.87 75.3203C1307.78 75.5599 1307.73 75.8281 1307.71 76.125L1307.28 76.1562C1307.28 75.625 1307.33 75.1328 1307.44 74.6797C1307.54 74.2266 1307.7 73.8281 1307.91 73.4844C1308.12 73.1406 1308.39 72.8724 1308.7 72.6797C1309.03 72.487 1309.4 72.3906 1309.82 72.3906C1309.93 72.3906 1310.06 72.401 1310.19 72.4219C1310.32 72.4427 1310.42 72.4661 1310.49 72.4922ZM1313.56 74.1562V81H1311.68V72.5469H1313.48L1313.56 74.1562ZM1316.15 72.4922L1316.13 74.2422C1316.02 74.2214 1315.89 74.2057 1315.76 74.1953C1315.63 74.1849 1315.5 74.1797 1315.37 74.1797C1315.04 74.1797 1314.76 74.2266 1314.52 74.3203C1314.27 74.4089 1314.07 74.5391 1313.9 74.7109C1313.74 74.8776 1313.61 75.0807 1313.52 75.3203C1313.43 75.5599 1313.38 75.8281 1313.37 76.125L1312.94 76.1562C1312.94 75.625 1312.99 75.1328 1313.09 74.6797C1313.2 74.2266 1313.35 73.8281 1313.56 73.4844C1313.78 73.1406 1314.04 72.8724 1314.36 72.6797C1314.68 72.487 1315.05 72.3906 1315.48 72.3906C1315.59 72.3906 1315.71 72.401 1315.84 72.4219C1315.98 72.4427 1316.08 72.4661 1316.15 72.4922ZM1316.77 76.8672V76.6875C1316.77 76.0781 1316.85 75.513 1317.03 74.9922C1317.21 74.4661 1317.46 74.0104 1317.8 73.625C1318.14 73.2344 1318.55 72.9323 1319.03 72.7188C1319.52 72.5 1320.07 72.3906 1320.69 72.3906C1321.31 72.3906 1321.86 72.5 1322.34 72.7188C1322.83 72.9323 1323.25 73.2344 1323.59 73.625C1323.92 74.0104 1324.18 74.4661 1324.36 74.9922C1324.54 75.513 1324.62 76.0781 1324.62 76.6875V76.8672C1324.62 77.4766 1324.54 78.0417 1324.36 78.5625C1324.18 79.0833 1323.92 79.5391 1323.59 79.9297C1323.25 80.3151 1322.84 80.6172 1322.35 80.8359C1321.87 81.0495 1321.32 81.1562 1320.7 81.1562C1320.08 81.1562 1319.53 81.0495 1319.04 80.8359C1318.55 80.6172 1318.14 80.3151 1317.8 79.9297C1317.47 79.5391 1317.21 79.0833 1317.03 78.5625C1316.85 78.0417 1316.77 77.4766 1316.77 76.8672ZM1318.65 76.6875V76.8672C1318.65 77.2474 1318.69 77.6068 1318.77 77.9453C1318.84 78.2839 1318.97 78.5807 1319.13 78.8359C1319.3 79.0911 1319.51 79.2917 1319.77 79.4375C1320.03 79.5833 1320.34 79.6562 1320.7 79.6562C1321.05 79.6562 1321.35 79.5833 1321.61 79.4375C1321.87 79.2917 1322.08 79.0911 1322.25 78.8359C1322.42 78.5807 1322.54 78.2839 1322.62 77.9453C1322.7 77.6068 1322.74 77.2474 1322.74 76.8672V76.6875C1322.74 76.3125 1322.7 75.9583 1322.62 75.625C1322.54 75.2865 1322.41 74.987 1322.24 74.7266C1322.08 74.4661 1321.86 74.263 1321.6 74.1172C1321.35 73.9661 1321.04 73.8906 1320.69 73.8906C1320.33 73.8906 1320.03 73.9661 1319.77 74.1172C1319.51 74.263 1319.3 74.4661 1319.13 74.7266C1318.97 74.987 1318.84 75.2865 1318.77 75.625C1318.69 75.9583 1318.65 76.3125 1318.65 76.6875ZM1328.09 74.1562V81H1326.21V72.5469H1328.01L1328.09 74.1562ZM1330.68 72.4922L1330.66 74.2422C1330.55 74.2214 1330.42 74.2057 1330.29 74.1953C1330.16 74.1849 1330.03 74.1797 1329.9 74.1797C1329.58 74.1797 1329.29 74.2266 1329.05 74.3203C1328.8 74.4089 1328.6 74.5391 1328.43 74.7109C1328.27 74.8776 1328.14 75.0807 1328.05 75.3203C1327.97 75.5599 1327.91 75.8281 1327.9 76.125L1327.47 76.1562C1327.47 75.625 1327.52 75.1328 1327.62 74.6797C1327.73 74.2266 1327.89 73.8281 1328.09 73.4844C1328.31 73.1406 1328.57 72.8724 1328.89 72.6797C1329.21 72.487 1329.59 72.3906 1330.01 72.3906C1330.12 72.3906 1330.24 72.401 1330.38 72.4219C1330.51 72.4427 1330.61 72.4661 1330.68 72.4922Z" fill="#737373"/>
<rect x="48" y="110" width="1534" height="177" rx="8" fill="white"/>
<rect x="996" y="169" width="240" height="40" rx="4" fill="#F2F2F2"/>
<path d="M1018.92 191.305C1018.92 191.056 1018.88 190.836 1018.8 190.646C1018.73 190.45 1018.6 190.274 1018.41 190.118C1018.22 189.962 1017.96 189.813 1017.63 189.671C1017.31 189.53 1016.89 189.386 1016.39 189.239C1015.86 189.083 1015.38 188.91 1014.96 188.719C1014.53 188.524 1014.17 188.302 1013.87 188.053C1013.56 187.804 1013.33 187.518 1013.17 187.196C1013.01 186.874 1012.93 186.505 1012.93 186.09C1012.93 185.675 1013.02 185.292 1013.19 184.94C1013.36 184.588 1013.6 184.283 1013.92 184.024C1014.24 183.761 1014.62 183.556 1015.07 183.409C1015.51 183.263 1016.01 183.189 1016.56 183.189C1017.36 183.189 1018.04 183.343 1018.59 183.651C1019.15 183.954 1019.58 184.352 1019.87 184.845C1020.17 185.333 1020.31 185.855 1020.31 186.412H1018.91C1018.91 186.012 1018.82 185.658 1018.65 185.35C1018.48 185.038 1018.22 184.793 1017.87 184.618C1017.53 184.437 1017.09 184.347 1016.56 184.347C1016.05 184.347 1015.64 184.422 1015.31 184.574C1014.98 184.725 1014.74 184.93 1014.58 185.189C1014.42 185.448 1014.34 185.743 1014.34 186.075C1014.34 186.3 1014.39 186.505 1014.48 186.69C1014.58 186.871 1014.73 187.04 1014.93 187.196C1015.13 187.352 1015.39 187.496 1015.71 187.628C1016.02 187.76 1016.4 187.887 1016.84 188.009C1017.45 188.18 1017.97 188.37 1018.41 188.58C1018.85 188.79 1019.21 189.027 1019.49 189.291C1019.78 189.549 1019.99 189.845 1020.13 190.177C1020.27 190.504 1020.34 190.875 1020.34 191.29C1020.34 191.725 1020.25 192.118 1020.08 192.469C1019.9 192.821 1019.65 193.121 1019.32 193.37C1019 193.619 1018.6 193.812 1018.15 193.949C1017.69 194.081 1017.18 194.146 1016.62 194.146C1016.13 194.146 1015.64 194.078 1015.16 193.941C1014.69 193.805 1014.26 193.6 1013.87 193.326C1013.48 193.053 1013.17 192.716 1012.94 192.315C1012.71 191.91 1012.59 191.441 1012.59 190.909H1014C1014 191.275 1014.07 191.59 1014.21 191.854C1014.35 192.113 1014.55 192.328 1014.79 192.499C1015.04 192.669 1015.32 192.796 1015.63 192.879C1015.95 192.958 1016.28 192.997 1016.62 192.997C1017.11 192.997 1017.53 192.928 1017.87 192.792C1018.22 192.655 1018.47 192.459 1018.65 192.206C1018.83 191.952 1018.92 191.651 1018.92 191.305ZM1025.23 194.146C1024.68 194.146 1024.18 194.054 1023.73 193.868C1023.28 193.678 1022.9 193.412 1022.58 193.07C1022.26 192.728 1022.01 192.323 1021.84 191.854C1021.67 191.385 1021.59 190.873 1021.59 190.316V190.008C1021.59 189.364 1021.68 188.79 1021.87 188.287C1022.06 187.779 1022.32 187.35 1022.65 186.998C1022.98 186.646 1023.35 186.38 1023.76 186.2C1024.18 186.019 1024.61 185.929 1025.05 185.929C1025.62 185.929 1026.11 186.026 1026.52 186.222C1026.93 186.417 1027.27 186.69 1027.53 187.042C1027.8 187.389 1027.99 187.799 1028.12 188.272C1028.25 188.741 1028.31 189.254 1028.31 189.811V190.418H1022.39V189.312H1026.96V189.21C1026.94 188.858 1026.86 188.517 1026.74 188.185C1026.61 187.853 1026.42 187.579 1026.15 187.364C1025.88 187.149 1025.52 187.042 1025.05 187.042C1024.74 187.042 1024.46 187.108 1024.2 187.24C1023.94 187.367 1023.72 187.557 1023.54 187.811C1023.35 188.065 1023.21 188.375 1023.1 188.741C1023 189.107 1022.95 189.53 1022.95 190.008V190.316C1022.95 190.692 1023 191.046 1023.1 191.378C1023.21 191.705 1023.36 191.993 1023.56 192.242C1023.77 192.491 1024.02 192.687 1024.3 192.828C1024.6 192.97 1024.93 193.041 1025.3 193.041C1025.78 193.041 1026.18 192.943 1026.52 192.748C1026.85 192.552 1027.14 192.291 1027.39 191.964L1028.21 192.616C1028.04 192.875 1027.82 193.121 1027.56 193.355C1027.29 193.59 1026.97 193.78 1026.58 193.927C1026.2 194.073 1025.75 194.146 1025.23 194.146ZM1031.37 182.75V194H1030V182.75H1031.37ZM1036.83 194.146C1036.28 194.146 1035.78 194.054 1035.33 193.868C1034.88 193.678 1034.5 193.412 1034.18 193.07C1033.86 192.728 1033.62 192.323 1033.45 191.854C1033.27 191.385 1033.19 190.873 1033.19 190.316V190.008C1033.19 189.364 1033.28 188.79 1033.47 188.287C1033.67 187.779 1033.92 187.35 1034.25 186.998C1034.58 186.646 1034.95 186.38 1035.36 186.2C1035.78 186.019 1036.21 185.929 1036.65 185.929C1037.22 185.929 1037.71 186.026 1038.12 186.222C1038.53 186.417 1038.87 186.69 1039.14 187.042C1039.4 187.389 1039.6 187.799 1039.72 188.272C1039.85 188.741 1039.91 189.254 1039.91 189.811V190.418H1033.99V189.312H1038.56V189.21C1038.54 188.858 1038.46 188.517 1038.34 188.185C1038.22 187.853 1038.02 187.579 1037.75 187.364C1037.48 187.149 1037.12 187.042 1036.65 187.042C1036.35 187.042 1036.06 187.108 1035.8 187.24C1035.54 187.367 1035.32 187.557 1035.14 187.811C1034.95 188.065 1034.81 188.375 1034.71 188.741C1034.6 189.107 1034.55 189.53 1034.55 190.008V190.316C1034.55 190.692 1034.6 191.046 1034.71 191.378C1034.81 191.705 1034.97 191.993 1035.17 192.242C1035.37 192.491 1035.62 192.687 1035.91 192.828C1036.2 192.97 1036.53 193.041 1036.9 193.041C1037.38 193.041 1037.79 192.943 1038.12 192.748C1038.45 192.552 1038.74 192.291 1038.99 191.964L1039.81 192.616C1039.64 192.875 1039.42 193.121 1039.16 193.355C1038.89 193.59 1038.57 193.78 1038.18 193.927C1037.8 194.073 1037.35 194.146 1036.83 194.146ZM1044.67 193.033C1044.99 193.033 1045.29 192.967 1045.56 192.835C1045.83 192.704 1046.06 192.523 1046.23 192.293C1046.41 192.059 1046.51 191.793 1046.53 191.495H1047.82C1047.8 191.964 1047.64 192.401 1047.35 192.806C1047.06 193.207 1046.68 193.531 1046.21 193.78C1045.74 194.024 1045.23 194.146 1044.67 194.146C1044.07 194.146 1043.55 194.042 1043.11 193.832C1042.67 193.622 1042.3 193.333 1042.01 192.967C1041.72 192.601 1041.5 192.181 1041.36 191.708C1041.21 191.229 1041.14 190.724 1041.14 190.191V189.884C1041.14 189.352 1041.21 188.849 1041.36 188.375C1041.5 187.896 1041.72 187.474 1042.01 187.108C1042.3 186.742 1042.67 186.454 1043.11 186.244C1043.55 186.034 1044.07 185.929 1044.67 185.929C1045.29 185.929 1045.83 186.056 1046.29 186.31C1046.76 186.559 1047.12 186.9 1047.38 187.335C1047.65 187.765 1047.8 188.253 1047.82 188.8H1046.53C1046.51 188.473 1046.42 188.177 1046.26 187.914C1046.1 187.65 1045.88 187.44 1045.61 187.284C1045.34 187.123 1045.03 187.042 1044.67 187.042C1044.25 187.042 1043.9 187.125 1043.62 187.291C1043.34 187.452 1043.12 187.672 1042.95 187.95C1042.79 188.224 1042.67 188.529 1042.6 188.866C1042.53 189.198 1042.5 189.537 1042.5 189.884V190.191C1042.5 190.538 1042.53 190.88 1042.6 191.217C1042.67 191.554 1042.78 191.859 1042.94 192.132C1043.11 192.406 1043.33 192.625 1043.61 192.792C1043.89 192.953 1044.25 193.033 1044.67 193.033ZM1052.66 186.075V187.115H1048.38V186.075H1052.66ZM1049.83 184.149H1051.18V192.037C1051.18 192.306 1051.23 192.508 1051.31 192.645C1051.39 192.782 1051.5 192.872 1051.63 192.916C1051.76 192.96 1051.9 192.982 1052.06 192.982C1052.17 192.982 1052.29 192.972 1052.41 192.953C1052.53 192.928 1052.63 192.909 1052.69 192.894L1052.7 194C1052.59 194.034 1052.45 194.066 1052.28 194.095C1052.1 194.129 1051.9 194.146 1051.65 194.146C1051.32 194.146 1051.02 194.081 1050.74 193.949C1050.46 193.817 1050.24 193.597 1050.07 193.29C1049.91 192.977 1049.83 192.557 1049.83 192.03V184.149Z" fill="#AAAAAA"/>
<path d="M1216 193.4C1215.74 193.4 1215.49 193.297 1215.29 193.092L1209.29 186.792C1208.9 186.382 1208.9 185.718 1209.29 185.308C1209.68 184.897 1210.32 184.897 1210.71 185.308L1216 190.867L1221.29 185.308C1221.68 184.898 1222.32 184.898 1222.71 185.308C1223.1 185.719 1223.1 186.383 1222.71 186.793L1216.71 193.093C1216.51 193.298 1216.26 193.4 1216 193.4Z" fill="#AAAAAA"/>
<rect x="1296.5" y="169.5" width="239" height="39" rx="3.5" fill="white"/>
<path d="M1318.92 191.305C1318.92 191.056 1318.88 190.836 1318.8 190.646C1318.73 190.45 1318.6 190.274 1318.41 190.118C1318.22 189.962 1317.96 189.813 1317.63 189.671C1317.31 189.53 1316.89 189.386 1316.39 189.239C1315.86 189.083 1315.38 188.91 1314.96 188.719C1314.53 188.524 1314.17 188.302 1313.87 188.053C1313.56 187.804 1313.33 187.518 1313.17 187.196C1313.01 186.874 1312.93 186.505 1312.93 186.09C1312.93 185.675 1313.02 185.292 1313.19 184.94C1313.36 184.588 1313.6 184.283 1313.92 184.024C1314.24 183.761 1314.62 183.556 1315.07 183.409C1315.51 183.263 1316.01 183.189 1316.56 183.189C1317.36 183.189 1318.04 183.343 1318.59 183.651C1319.15 183.954 1319.58 184.352 1319.87 184.845C1320.17 185.333 1320.31 185.855 1320.31 186.412H1318.91C1318.91 186.012 1318.82 185.658 1318.65 185.35C1318.48 185.038 1318.22 184.793 1317.87 184.618C1317.53 184.437 1317.09 184.347 1316.56 184.347C1316.05 184.347 1315.64 184.422 1315.31 184.574C1314.98 184.725 1314.74 184.93 1314.58 185.189C1314.42 185.448 1314.34 185.743 1314.34 186.075C1314.34 186.3 1314.39 186.505 1314.48 186.69C1314.58 186.871 1314.73 187.04 1314.93 187.196C1315.13 187.352 1315.39 187.496 1315.71 187.628C1316.02 187.76 1316.4 187.887 1316.84 188.009C1317.45 188.18 1317.97 188.37 1318.41 188.58C1318.85 188.79 1319.21 189.027 1319.49 189.291C1319.78 189.549 1319.99 189.845 1320.13 190.177C1320.27 190.504 1320.34 190.875 1320.34 191.29C1320.34 191.725 1320.25 192.118 1320.08 192.469C1319.9 192.821 1319.65 193.121 1319.32 193.37C1319 193.619 1318.6 193.812 1318.15 193.949C1317.69 194.081 1317.18 194.146 1316.62 194.146C1316.13 194.146 1315.64 194.078 1315.16 193.941C1314.69 193.805 1314.26 193.6 1313.87 193.326C1313.48 193.053 1313.17 192.716 1312.94 192.315C1312.71 191.91 1312.59 191.441 1312.59 190.909H1314C1314 191.275 1314.07 191.59 1314.21 191.854C1314.35 192.113 1314.55 192.328 1314.79 192.499C1315.04 192.669 1315.32 192.796 1315.63 192.879C1315.95 192.958 1316.28 192.997 1316.62 192.997C1317.11 192.997 1317.53 192.928 1317.87 192.792C1318.22 192.655 1318.47 192.459 1318.65 192.206C1318.83 191.952 1318.92 191.651 1318.92 191.305ZM1325.23 194.146C1324.68 194.146 1324.18 194.054 1323.73 193.868C1323.28 193.678 1322.9 193.412 1322.58 193.07C1322.26 192.728 1322.01 192.323 1321.84 191.854C1321.67 191.385 1321.59 190.873 1321.59 190.316V190.008C1321.59 189.364 1321.68 188.79 1321.87 188.287C1322.06 187.779 1322.32 187.35 1322.65 186.998C1322.98 186.646 1323.35 186.38 1323.76 186.2C1324.18 186.019 1324.61 185.929 1325.05 185.929C1325.62 185.929 1326.11 186.026 1326.52 186.222C1326.93 186.417 1327.27 186.69 1327.53 187.042C1327.8 187.389 1327.99 187.799 1328.12 188.272C1328.25 188.741 1328.31 189.254 1328.31 189.811V190.418H1322.39V189.312H1326.96V189.21C1326.94 188.858 1326.86 188.517 1326.74 188.185C1326.61 187.853 1326.42 187.579 1326.15 187.364C1325.88 187.149 1325.52 187.042 1325.05 187.042C1324.74 187.042 1324.46 187.108 1324.2 187.24C1323.94 187.367 1323.72 187.557 1323.54 187.811C1323.35 188.065 1323.21 188.375 1323.1 188.741C1323 189.107 1322.95 189.53 1322.95 190.008V190.316C1322.95 190.692 1323 191.046 1323.1 191.378C1323.21 191.705 1323.36 191.993 1323.56 192.242C1323.77 192.491 1324.02 192.687 1324.3 192.828C1324.6 192.97 1324.93 193.041 1325.3 193.041C1325.78 193.041 1326.18 192.943 1326.52 192.748C1326.85 192.552 1327.14 192.291 1327.39 191.964L1328.21 192.616C1328.04 192.875 1327.82 193.121 1327.56 193.355C1327.29 193.59 1326.97 193.78 1326.58 193.927C1326.2 194.073 1325.75 194.146 1325.23 194.146ZM1331.37 182.75V194H1330V182.75H1331.37ZM1336.83 194.146C1336.28 194.146 1335.78 194.054 1335.33 193.868C1334.88 193.678 1334.5 193.412 1334.18 193.07C1333.86 192.728 1333.62 192.323 1333.45 191.854C1333.27 191.385 1333.19 190.873 1333.19 190.316V190.008C1333.19 189.364 1333.28 188.79 1333.47 188.287C1333.67 187.779 1333.92 187.35 1334.25 186.998C1334.58 186.646 1334.95 186.38 1335.36 186.2C1335.78 186.019 1336.21 185.929 1336.65 185.929C1337.22 185.929 1337.71 186.026 1338.12 186.222C1338.53 186.417 1338.87 186.69 1339.14 187.042C1339.4 187.389 1339.6 187.799 1339.72 188.272C1339.85 188.741 1339.91 189.254 1339.91 189.811V190.418H1333.99V189.312H1338.56V189.21C1338.54 188.858 1338.46 188.517 1338.34 188.185C1338.22 187.853 1338.02 187.579 1337.75 187.364C1337.48 187.149 1337.12 187.042 1336.65 187.042C1336.35 187.042 1336.06 187.108 1335.8 187.24C1335.54 187.367 1335.32 187.557 1335.14 187.811C1334.95 188.065 1334.81 188.375 1334.71 188.741C1334.6 189.107 1334.55 189.53 1334.55 190.008V190.316C1334.55 190.692 1334.6 191.046 1334.71 191.378C1334.81 191.705 1334.97 191.993 1335.17 192.242C1335.37 192.491 1335.62 192.687 1335.91 192.828C1336.2 192.97 1336.53 193.041 1336.9 193.041C1337.38 193.041 1337.79 192.943 1338.12 192.748C1338.45 192.552 1338.74 192.291 1338.99 191.964L1339.81 192.616C1339.64 192.875 1339.42 193.121 1339.16 193.355C1338.89 193.59 1338.57 193.78 1338.18 193.927C1337.8 194.073 1337.35 194.146 1336.83 194.146ZM1344.67 193.033C1344.99 193.033 1345.29 192.967 1345.56 192.835C1345.83 192.704 1346.06 192.523 1346.23 192.293C1346.41 192.059 1346.51 191.793 1346.53 191.495H1347.82C1347.8 191.964 1347.64 192.401 1347.35 192.806C1347.06 193.207 1346.68 193.531 1346.21 193.78C1345.74 194.024 1345.23 194.146 1344.67 194.146C1344.07 194.146 1343.55 194.042 1343.11 193.832C1342.67 193.622 1342.3 193.333 1342.01 192.967C1341.72 192.601 1341.5 192.181 1341.36 191.708C1341.21 191.229 1341.14 190.724 1341.14 190.191V189.884C1341.14 189.352 1341.21 188.849 1341.36 188.375C1341.5 187.896 1341.72 187.474 1342.01 187.108C1342.3 186.742 1342.67 186.454 1343.11 186.244C1343.55 186.034 1344.07 185.929 1344.67 185.929C1345.29 185.929 1345.83 186.056 1346.29 186.31C1346.76 186.559 1347.12 186.9 1347.38 187.335C1347.65 187.765 1347.8 188.253 1347.82 188.8H1346.53C1346.51 188.473 1346.42 188.177 1346.26 187.914C1346.1 187.65 1345.88 187.44 1345.61 187.284C1345.34 187.123 1345.03 187.042 1344.67 187.042C1344.25 187.042 1343.9 187.125 1343.62 187.291C1343.34 187.452 1343.12 187.672 1342.95 187.95C1342.79 188.224 1342.67 188.529 1342.6 188.866C1342.53 189.198 1342.5 189.537 1342.5 189.884V190.191C1342.5 190.538 1342.53 190.88 1342.6 191.217C1342.67 191.554 1342.78 191.859 1342.94 192.132C1343.11 192.406 1343.33 192.625 1343.61 192.792C1343.89 192.953 1344.25 193.033 1344.67 193.033ZM1352.66 186.075V187.115H1348.38V186.075H1352.66ZM1349.83 184.149H1351.18V192.037C1351.18 192.306 1351.23 192.508 1351.31 192.645C1351.39 192.782 1351.5 192.872 1351.63 192.916C1351.76 192.96 1351.9 192.982 1352.06 192.982C1352.17 192.982 1352.29 192.972 1352.41 192.953C1352.53 192.928 1352.63 192.909 1352.69 192.894L1352.7 194C1352.59 194.034 1352.45 194.066 1352.28 194.095C1352.1 194.129 1351.9 194.146 1351.65 194.146C1351.32 194.146 1351.02 194.081 1350.74 193.949C1350.46 193.817 1350.24 193.597 1350.07 193.29C1349.91 192.977 1349.83 192.557 1349.83 192.03V184.149Z" fill="#1A1A1A"/>
<path d="M1516 193.4C1515.74 193.4 1515.49 193.297 1515.29 193.092L1509.29 186.792C1508.9 186.382 1508.9 185.718 1509.29 185.308C1509.68 184.897 1510.32 184.897 1510.71 185.308L1516 190.867L1521.29 185.308C1521.68 184.898 1522.32 184.898 1522.71 185.308C1523.1 185.719 1523.1 186.383 1522.71 186.793L1516.71 193.093C1516.51 193.298 1516.26 193.4 1516 193.4Z" fill="#737373"/>
<rect x="1296.5" y="169.5" width="239" height="39" rx="3.5" stroke="#F45C59"/>
<path d="M1302.41 224.08V225H1297.89V224.08H1302.41ZM1298.12 216.469V225H1296.99V216.469H1298.12ZM1301.81 220.137V221.057H1297.89V220.137H1301.81ZM1302.35 216.469V217.395H1297.89V216.469H1302.35ZM1304.73 219.656V225H1303.65V218.66H1304.7L1304.73 219.656ZM1306.71 218.625L1306.71 219.633C1306.62 219.613 1306.53 219.602 1306.45 219.598C1306.37 219.59 1306.28 219.586 1306.18 219.586C1305.93 219.586 1305.71 219.625 1305.52 219.703C1305.32 219.781 1305.16 219.891 1305.03 220.031C1304.9 220.172 1304.79 220.34 1304.71 220.535C1304.64 220.727 1304.59 220.938 1304.57 221.168L1304.26 221.344C1304.26 220.961 1304.3 220.602 1304.37 220.266C1304.45 219.93 1304.57 219.633 1304.73 219.375C1304.89 219.113 1305.09 218.91 1305.34 218.766C1305.59 218.617 1305.89 218.543 1306.23 218.543C1306.31 218.543 1306.4 218.553 1306.5 218.572C1306.6 218.588 1306.67 218.605 1306.71 218.625ZM1308.8 219.656V225H1307.71V218.66H1308.77L1308.8 219.656ZM1310.78 218.625L1310.77 219.633C1310.68 219.613 1310.6 219.602 1310.51 219.598C1310.44 219.59 1310.35 219.586 1310.24 219.586C1309.99 219.586 1309.77 219.625 1309.58 219.703C1309.39 219.781 1309.23 219.891 1309.1 220.031C1308.96 220.172 1308.86 220.34 1308.78 220.535C1308.71 220.727 1308.66 220.938 1308.63 221.168L1308.33 221.344C1308.33 220.961 1308.37 220.602 1308.44 220.266C1308.52 219.93 1308.64 219.633 1308.8 219.375C1308.96 219.113 1309.16 218.91 1309.41 218.766C1309.66 218.617 1309.95 218.543 1310.3 218.543C1310.38 218.543 1310.46 218.553 1310.57 218.572C1310.67 218.588 1310.74 218.605 1310.78 218.625ZM1311.38 221.9V221.766C1311.38 221.309 1311.44 220.885 1311.57 220.494C1311.71 220.1 1311.9 219.758 1312.15 219.469C1312.4 219.176 1312.7 218.949 1313.06 218.789C1313.41 218.625 1313.81 218.543 1314.25 218.543C1314.7 218.543 1315.1 218.625 1315.45 218.789C1315.81 218.949 1316.12 219.176 1316.37 219.469C1316.62 219.758 1316.81 220.1 1316.95 220.494C1317.08 220.885 1317.15 221.309 1317.15 221.766V221.9C1317.15 222.357 1317.08 222.781 1316.95 223.172C1316.81 223.562 1316.62 223.904 1316.37 224.197C1316.12 224.486 1315.81 224.713 1315.46 224.877C1315.11 225.037 1314.71 225.117 1314.26 225.117C1313.82 225.117 1313.42 225.037 1313.06 224.877C1312.71 224.713 1312.4 224.486 1312.15 224.197C1311.9 223.904 1311.71 223.562 1311.57 223.172C1311.44 222.781 1311.38 222.357 1311.38 221.9ZM1312.46 221.766V221.9C1312.46 222.217 1312.5 222.516 1312.57 222.797C1312.64 223.074 1312.76 223.32 1312.9 223.535C1313.06 223.75 1313.25 223.92 1313.47 224.045C1313.7 224.166 1313.96 224.227 1314.26 224.227C1314.56 224.227 1314.82 224.166 1315.04 224.045C1315.27 223.92 1315.46 223.75 1315.61 223.535C1315.75 223.32 1315.87 223.074 1315.94 222.797C1316.02 222.516 1316.06 222.217 1316.06 221.9V221.766C1316.06 221.453 1316.02 221.158 1315.94 220.881C1315.87 220.6 1315.75 220.352 1315.6 220.137C1315.45 219.918 1315.26 219.746 1315.04 219.621C1314.81 219.496 1314.55 219.434 1314.25 219.434C1313.96 219.434 1313.69 219.496 1313.47 219.621C1313.24 219.746 1313.06 219.918 1312.9 220.137C1312.76 220.352 1312.64 220.6 1312.57 220.881C1312.5 221.158 1312.46 221.453 1312.46 221.766ZM1319.59 219.656V225H1318.51V218.66H1319.56L1319.59 219.656ZM1321.57 218.625L1321.56 219.633C1321.47 219.613 1321.39 219.602 1321.31 219.598C1321.23 219.59 1321.14 219.586 1321.04 219.586C1320.79 219.586 1320.57 219.625 1320.38 219.703C1320.18 219.781 1320.02 219.891 1319.89 220.031C1319.76 220.172 1319.65 220.34 1319.57 220.535C1319.5 220.727 1319.45 220.938 1319.43 221.168L1319.12 221.344C1319.12 220.961 1319.16 220.602 1319.23 220.266C1319.31 219.93 1319.43 219.633 1319.59 219.375C1319.75 219.113 1319.95 218.91 1320.2 218.766C1320.45 218.617 1320.75 218.543 1321.09 218.543C1321.17 218.543 1321.26 218.553 1321.36 218.572C1321.46 218.588 1321.53 218.605 1321.57 218.625ZM1326.07 216.469H1327.17L1329.96 223.424L1332.75 216.469H1333.85L1330.38 225H1329.53L1326.07 216.469ZM1325.71 216.469H1326.68L1326.84 221.672V225H1325.71V216.469ZM1333.24 216.469H1334.2V225H1333.08V221.672L1333.24 216.469ZM1338.66 225.117C1338.21 225.117 1337.81 225.043 1337.46 224.895C1337.1 224.742 1336.79 224.529 1336.54 224.256C1336.28 223.982 1336.09 223.658 1335.95 223.283C1335.81 222.908 1335.74 222.498 1335.74 222.053V221.807C1335.74 221.291 1335.82 220.832 1335.97 220.43C1336.12 220.023 1336.33 219.68 1336.59 219.398C1336.86 219.117 1337.15 218.904 1337.48 218.76C1337.82 218.615 1338.16 218.543 1338.52 218.543C1338.97 218.543 1339.36 218.621 1339.69 218.777C1340.02 218.934 1340.29 219.152 1340.5 219.434C1340.71 219.711 1340.87 220.039 1340.97 220.418C1341.07 220.793 1341.12 221.203 1341.12 221.648V222.135H1336.39V221.25H1340.04V221.168C1340.02 220.887 1339.96 220.613 1339.86 220.348C1339.77 220.082 1339.61 219.863 1339.39 219.691C1339.18 219.52 1338.89 219.434 1338.52 219.434C1338.27 219.434 1338.04 219.486 1337.84 219.592C1337.63 219.693 1337.45 219.846 1337.3 220.049C1337.15 220.252 1337.04 220.5 1336.96 220.793C1336.88 221.086 1336.83 221.424 1336.83 221.807V222.053C1336.83 222.354 1336.88 222.637 1336.96 222.902C1337.04 223.164 1337.17 223.395 1337.33 223.594C1337.49 223.793 1337.69 223.949 1337.92 224.062C1338.15 224.176 1338.42 224.232 1338.71 224.232C1339.1 224.232 1339.42 224.154 1339.69 223.998C1339.95 223.842 1340.19 223.633 1340.38 223.371L1341.04 223.893C1340.9 224.1 1340.73 224.297 1340.52 224.484C1340.31 224.672 1340.05 224.824 1339.74 224.941C1339.44 225.059 1339.07 225.117 1338.66 225.117ZM1346.08 223.318C1346.08 223.162 1346.04 223.018 1345.97 222.885C1345.91 222.748 1345.77 222.625 1345.56 222.516C1345.35 222.402 1345.04 222.305 1344.62 222.223C1344.27 222.148 1343.95 222.061 1343.67 221.959C1343.38 221.857 1343.14 221.734 1342.95 221.59C1342.75 221.445 1342.6 221.275 1342.49 221.08C1342.39 220.885 1342.34 220.656 1342.34 220.395C1342.34 220.145 1342.39 219.908 1342.5 219.686C1342.61 219.463 1342.77 219.266 1342.97 219.094C1343.18 218.922 1343.43 218.787 1343.72 218.689C1344.01 218.592 1344.33 218.543 1344.69 218.543C1345.19 218.543 1345.63 218.633 1345.99 218.812C1346.35 218.992 1346.62 219.232 1346.81 219.533C1347 219.83 1347.1 220.16 1347.1 220.523H1346.02C1346.02 220.348 1345.96 220.178 1345.86 220.014C1345.76 219.846 1345.61 219.707 1345.41 219.598C1345.21 219.488 1344.97 219.434 1344.69 219.434C1344.38 219.434 1344.14 219.48 1343.95 219.574C1343.77 219.664 1343.63 219.779 1343.55 219.92C1343.47 220.061 1343.43 220.209 1343.43 220.365C1343.43 220.482 1343.45 220.588 1343.48 220.682C1343.53 220.771 1343.6 220.855 1343.71 220.934C1343.81 221.008 1343.96 221.078 1344.15 221.145C1344.34 221.211 1344.59 221.277 1344.88 221.344C1345.4 221.461 1345.83 221.602 1346.17 221.766C1346.5 221.93 1346.75 222.131 1346.92 222.369C1347.08 222.607 1347.16 222.896 1347.16 223.236C1347.16 223.514 1347.11 223.768 1346.99 223.998C1346.88 224.229 1346.71 224.428 1346.49 224.596C1346.28 224.76 1346.02 224.889 1345.72 224.982C1345.42 225.072 1345.09 225.117 1344.71 225.117C1344.16 225.117 1343.68 225.018 1343.3 224.818C1342.91 224.619 1342.62 224.361 1342.42 224.045C1342.22 223.729 1342.12 223.395 1342.12 223.043H1343.21C1343.22 223.34 1343.31 223.576 1343.47 223.752C1343.62 223.924 1343.81 224.047 1344.04 224.121C1344.27 224.191 1344.49 224.227 1344.71 224.227C1345.01 224.227 1345.26 224.188 1345.46 224.109C1345.66 224.031 1345.82 223.924 1345.92 223.787C1346.03 223.65 1346.08 223.494 1346.08 223.318ZM1352.28 223.318C1352.28 223.162 1352.24 223.018 1352.17 222.885C1352.11 222.748 1351.97 222.625 1351.76 222.516C1351.55 222.402 1351.24 222.305 1350.82 222.223C1350.47 222.148 1350.15 222.061 1349.87 221.959C1349.58 221.857 1349.34 221.734 1349.14 221.59C1348.95 221.445 1348.8 221.275 1348.69 221.08C1348.59 220.885 1348.54 220.656 1348.54 220.395C1348.54 220.145 1348.59 219.908 1348.7 219.686C1348.81 219.463 1348.97 219.266 1349.17 219.094C1349.38 218.922 1349.63 218.787 1349.92 218.689C1350.21 218.592 1350.53 218.543 1350.88 218.543C1351.39 218.543 1351.83 218.633 1352.19 218.812C1352.54 218.992 1352.82 219.232 1353.01 219.533C1353.2 219.83 1353.3 220.16 1353.3 220.523H1352.21C1352.21 220.348 1352.16 220.178 1352.06 220.014C1351.96 219.846 1351.8 219.707 1351.61 219.598C1351.41 219.488 1351.17 219.434 1350.88 219.434C1350.58 219.434 1350.34 219.48 1350.15 219.574C1349.97 219.664 1349.83 219.779 1349.75 219.92C1349.67 220.061 1349.62 220.209 1349.62 220.365C1349.62 220.482 1349.64 220.588 1349.68 220.682C1349.73 220.771 1349.8 220.855 1349.91 220.934C1350.01 221.008 1350.16 221.078 1350.35 221.145C1350.54 221.211 1350.79 221.277 1351.08 221.344C1351.6 221.461 1352.03 221.602 1352.37 221.766C1352.7 221.93 1352.95 222.131 1353.12 222.369C1353.28 222.607 1353.36 222.896 1353.36 223.236C1353.36 223.514 1353.3 223.768 1353.19 223.998C1353.07 224.229 1352.91 224.428 1352.69 224.596C1352.47 224.76 1352.22 224.889 1351.92 224.982C1351.62 225.072 1351.29 225.117 1350.91 225.117C1350.36 225.117 1349.88 225.018 1349.5 224.818C1349.11 224.619 1348.82 224.361 1348.62 224.045C1348.42 223.729 1348.32 223.395 1348.32 223.043H1349.41C1349.42 223.34 1349.51 223.576 1349.67 223.752C1349.82 223.924 1350.01 224.047 1350.24 224.121C1350.47 224.191 1350.69 224.227 1350.91 224.227C1351.21 224.227 1351.46 224.188 1351.66 224.109C1351.86 224.031 1352.02 223.924 1352.12 223.787C1352.23 223.65 1352.28 223.494 1352.28 223.318ZM1358.53 223.916V220.652C1358.53 220.402 1358.47 220.186 1358.37 220.002C1358.28 219.814 1358.13 219.67 1357.93 219.568C1357.73 219.467 1357.48 219.416 1357.19 219.416C1356.92 219.416 1356.68 219.463 1356.47 219.557C1356.27 219.65 1356.11 219.773 1355.99 219.926C1355.88 220.078 1355.82 220.242 1355.82 220.418H1354.73C1354.73 220.191 1354.79 219.967 1354.91 219.744C1355.03 219.521 1355.2 219.32 1355.41 219.141C1355.64 218.957 1355.9 218.812 1356.21 218.707C1356.52 218.598 1356.87 218.543 1357.25 218.543C1357.71 218.543 1358.12 218.621 1358.47 218.777C1358.83 218.934 1359.11 219.17 1359.3 219.486C1359.51 219.799 1359.61 220.191 1359.61 220.664V223.617C1359.61 223.828 1359.63 224.053 1359.66 224.291C1359.7 224.529 1359.76 224.734 1359.83 224.906V225H1358.7C1358.65 224.875 1358.6 224.709 1358.57 224.502C1358.54 224.291 1358.53 224.096 1358.53 223.916ZM1358.71 221.156L1358.72 221.918H1357.63C1357.32 221.918 1357.04 221.943 1356.8 221.994C1356.56 222.041 1356.36 222.113 1356.19 222.211C1356.03 222.309 1355.9 222.432 1355.82 222.58C1355.73 222.725 1355.69 222.895 1355.69 223.09C1355.69 223.289 1355.73 223.471 1355.82 223.635C1355.91 223.799 1356.05 223.93 1356.23 224.027C1356.41 224.121 1356.64 224.168 1356.9 224.168C1357.23 224.168 1357.53 224.098 1357.78 223.957C1358.04 223.816 1358.24 223.645 1358.38 223.441C1358.54 223.238 1358.62 223.041 1358.63 222.85L1359.09 223.371C1359.07 223.535 1358.99 223.717 1358.87 223.916C1358.75 224.115 1358.59 224.307 1358.38 224.49C1358.19 224.67 1357.95 224.82 1357.67 224.941C1357.4 225.059 1357.09 225.117 1356.74 225.117C1356.31 225.117 1355.94 225.033 1355.61 224.865C1355.29 224.697 1355.04 224.473 1354.86 224.191C1354.69 223.906 1354.6 223.588 1354.6 223.236C1354.6 222.896 1354.67 222.598 1354.8 222.34C1354.93 222.078 1355.12 221.861 1355.37 221.689C1355.62 221.514 1355.92 221.381 1356.28 221.291C1356.63 221.201 1357.02 221.156 1357.45 221.156H1358.71ZM1365.42 218.66H1366.41V224.865C1366.41 225.424 1366.29 225.9 1366.07 226.295C1365.84 226.689 1365.52 226.988 1365.12 227.191C1364.71 227.398 1364.25 227.502 1363.72 227.502C1363.5 227.502 1363.25 227.467 1362.95 227.396C1362.66 227.33 1362.37 227.215 1362.08 227.051C1361.8 226.891 1361.56 226.674 1361.37 226.4L1361.94 225.756C1362.21 226.076 1362.48 226.299 1362.77 226.424C1363.07 226.549 1363.36 226.611 1363.64 226.611C1363.98 226.611 1364.28 226.547 1364.53 226.418C1364.78 226.289 1364.97 226.098 1365.11 225.844C1365.25 225.594 1365.32 225.285 1365.32 224.918V220.055L1365.42 218.66ZM1361.06 221.9V221.777C1361.06 221.293 1361.11 220.854 1361.23 220.459C1361.34 220.061 1361.51 219.719 1361.72 219.434C1361.94 219.148 1362.21 218.93 1362.52 218.777C1362.82 218.621 1363.17 218.543 1363.56 218.543C1363.96 218.543 1364.3 218.613 1364.6 218.754C1364.9 218.891 1365.16 219.092 1365.36 219.357C1365.57 219.619 1365.74 219.936 1365.86 220.307C1365.98 220.678 1366.07 221.098 1366.11 221.566V222.105C1366.07 222.57 1365.99 222.988 1365.86 223.359C1365.74 223.73 1365.57 224.047 1365.36 224.309C1365.16 224.57 1364.9 224.771 1364.6 224.912C1364.3 225.049 1363.95 225.117 1363.55 225.117C1363.17 225.117 1362.82 225.037 1362.52 224.877C1362.21 224.717 1361.95 224.492 1361.73 224.203C1361.51 223.914 1361.34 223.574 1361.23 223.184C1361.11 222.789 1361.06 222.361 1361.06 221.9ZM1362.14 221.777V221.9C1362.14 222.217 1362.17 222.514 1362.23 222.791C1362.3 223.068 1362.4 223.312 1362.53 223.523C1362.67 223.734 1362.84 223.9 1363.05 224.021C1363.27 224.139 1363.52 224.197 1363.81 224.197C1364.17 224.197 1364.47 224.121 1364.7 223.969C1364.94 223.816 1365.12 223.615 1365.26 223.365C1365.4 223.115 1365.51 222.844 1365.59 222.551V221.139C1365.54 220.924 1365.48 220.717 1365.39 220.518C1365.3 220.314 1365.19 220.135 1365.05 219.979C1364.91 219.818 1364.74 219.691 1364.54 219.598C1364.33 219.504 1364.1 219.457 1363.82 219.457C1363.53 219.457 1363.27 219.52 1363.05 219.645C1362.84 219.766 1362.67 219.934 1362.53 220.148C1362.4 220.359 1362.3 220.605 1362.23 220.887C1362.17 221.164 1362.14 221.461 1362.14 221.777ZM1370.68 225.117C1370.24 225.117 1369.84 225.043 1369.48 224.895C1369.13 224.742 1368.82 224.529 1368.56 224.256C1368.31 223.982 1368.11 223.658 1367.98 223.283C1367.84 222.908 1367.77 222.498 1367.77 222.053V221.807C1367.77 221.291 1367.85 220.832 1368 220.43C1368.15 220.023 1368.36 219.68 1368.62 219.398C1368.88 219.117 1369.18 218.904 1369.51 218.76C1369.84 218.615 1370.19 218.543 1370.54 218.543C1371 218.543 1371.39 218.621 1371.71 218.777C1372.05 218.934 1372.32 219.152 1372.53 219.434C1372.74 219.711 1372.9 220.039 1373 220.418C1373.1 220.793 1373.15 221.203 1373.15 221.648V222.135H1368.42V221.25H1372.07V221.168C1372.05 220.887 1371.99 220.613 1371.89 220.348C1371.79 220.082 1371.64 219.863 1371.42 219.691C1371.21 219.52 1370.91 219.434 1370.54 219.434C1370.3 219.434 1370.07 219.486 1369.86 219.592C1369.66 219.693 1369.48 219.846 1369.33 220.049C1369.18 220.252 1369.07 220.5 1368.98 220.793C1368.9 221.086 1368.86 221.424 1368.86 221.807V222.053C1368.86 222.354 1368.9 222.637 1368.98 222.902C1369.07 223.164 1369.19 223.395 1369.35 223.594C1369.52 223.793 1369.71 223.949 1369.95 224.062C1370.18 224.176 1370.45 224.232 1370.74 224.232C1371.12 224.232 1371.45 224.154 1371.71 223.998C1371.98 223.842 1372.21 223.633 1372.41 223.371L1373.07 223.893C1372.93 224.1 1372.76 224.297 1372.55 224.484C1372.34 224.672 1372.08 224.824 1371.77 224.941C1371.46 225.059 1371.1 225.117 1370.68 225.117Z" fill="#F45C59"/>
<rect x="96.5" y="167.5" width="239" height="39" rx="3.5" fill="white"/>
<path d="M118.921 189.305C118.921 189.056 118.882 188.836 118.804 188.646C118.731 188.45 118.599 188.274 118.409 188.118C118.223 187.962 117.964 187.813 117.632 187.671C117.305 187.53 116.89 187.386 116.387 187.239C115.86 187.083 115.384 186.91 114.959 186.719C114.534 186.524 114.17 186.302 113.868 186.053C113.565 185.804 113.333 185.518 113.172 185.196C113.011 184.874 112.93 184.505 112.93 184.09C112.93 183.675 113.016 183.292 113.187 182.94C113.357 182.588 113.602 182.283 113.919 182.024C114.241 181.761 114.625 181.556 115.069 181.409C115.513 181.263 116.009 181.189 116.556 181.189C117.356 181.189 118.035 181.343 118.592 181.651C119.153 181.954 119.581 182.352 119.874 182.845C120.167 183.333 120.313 183.855 120.313 184.412H118.907C118.907 184.012 118.821 183.658 118.65 183.35C118.479 183.038 118.221 182.793 117.874 182.618C117.527 182.437 117.088 182.347 116.556 182.347C116.053 182.347 115.638 182.422 115.311 182.574C114.983 182.725 114.739 182.93 114.578 183.189C114.422 183.448 114.344 183.743 114.344 184.075C114.344 184.3 114.39 184.505 114.483 184.69C114.581 184.871 114.729 185.04 114.93 185.196C115.135 185.352 115.394 185.496 115.706 185.628C116.023 185.76 116.402 185.887 116.841 186.009C117.447 186.18 117.969 186.37 118.409 186.58C118.848 186.79 119.209 187.027 119.493 187.291C119.781 187.549 119.993 187.845 120.13 188.177C120.271 188.504 120.342 188.875 120.342 189.29C120.342 189.725 120.254 190.118 120.079 190.469C119.903 190.821 119.651 191.121 119.324 191.37C118.997 191.619 118.604 191.812 118.145 191.949C117.691 192.081 117.183 192.146 116.622 192.146C116.128 192.146 115.643 192.078 115.164 191.941C114.69 191.805 114.258 191.6 113.868 191.326C113.482 191.053 113.172 190.716 112.938 190.315C112.708 189.91 112.593 189.441 112.593 188.909H114C114 189.275 114.07 189.59 114.212 189.854C114.354 190.113 114.546 190.328 114.791 190.499C115.04 190.669 115.32 190.796 115.633 190.879C115.95 190.958 116.28 190.997 116.622 190.997C117.115 190.997 117.532 190.928 117.874 190.792C118.216 190.655 118.475 190.459 118.65 190.206C118.831 189.952 118.921 189.651 118.921 189.305ZM125.228 192.146C124.676 192.146 124.175 192.054 123.726 191.868C123.282 191.678 122.898 191.412 122.576 191.07C122.259 190.728 122.015 190.323 121.844 189.854C121.673 189.385 121.587 188.873 121.587 188.316V188.008C121.587 187.364 121.683 186.79 121.873 186.287C122.063 185.779 122.322 185.35 122.649 184.998C122.977 184.646 123.348 184.38 123.763 184.2C124.178 184.019 124.607 183.929 125.052 183.929C125.618 183.929 126.106 184.026 126.517 184.222C126.932 184.417 127.271 184.69 127.535 185.042C127.798 185.389 127.994 185.799 128.121 186.272C128.248 186.741 128.311 187.254 128.311 187.811V188.418H122.393V187.312H126.956V187.21C126.937 186.858 126.863 186.517 126.736 186.185C126.614 185.853 126.419 185.579 126.15 185.364C125.882 185.149 125.516 185.042 125.052 185.042C124.744 185.042 124.461 185.108 124.202 185.24C123.943 185.367 123.721 185.557 123.536 185.811C123.35 186.065 123.206 186.375 123.104 186.741C123.001 187.107 122.95 187.53 122.95 188.008V188.316C122.95 188.692 123.001 189.046 123.104 189.378C123.211 189.705 123.365 189.993 123.565 190.242C123.77 190.491 124.017 190.687 124.305 190.828C124.598 190.97 124.93 191.041 125.301 191.041C125.779 191.041 126.185 190.943 126.517 190.748C126.849 190.552 127.139 190.291 127.388 189.964L128.208 190.616C128.038 190.875 127.82 191.121 127.557 191.355C127.293 191.59 126.968 191.78 126.583 191.927C126.202 192.073 125.75 192.146 125.228 192.146ZM131.365 180.75V192H130.003V180.75H131.365ZM136.829 192.146C136.277 192.146 135.777 192.054 135.328 191.868C134.883 191.678 134.5 191.412 134.178 191.07C133.86 190.728 133.616 190.323 133.445 189.854C133.274 189.385 133.189 188.873 133.189 188.316V188.008C133.189 187.364 133.284 186.79 133.475 186.287C133.665 185.779 133.924 185.35 134.251 184.998C134.578 184.646 134.949 184.38 135.364 184.2C135.779 184.019 136.209 183.929 136.653 183.929C137.22 183.929 137.708 184.026 138.118 184.222C138.533 184.417 138.873 184.69 139.136 185.042C139.4 185.389 139.595 185.799 139.722 186.272C139.849 186.741 139.913 187.254 139.913 187.811V188.418H133.995V187.312H138.558V187.21C138.538 186.858 138.465 186.517 138.338 186.185C138.216 185.853 138.021 185.579 137.752 185.364C137.483 185.149 137.117 185.042 136.653 185.042C136.346 185.042 136.062 185.108 135.804 185.24C135.545 185.367 135.323 185.557 135.137 185.811C134.952 186.065 134.808 186.375 134.705 186.741C134.603 187.107 134.551 187.53 134.551 188.008V188.316C134.551 188.692 134.603 189.046 134.705 189.378C134.812 189.705 134.966 189.993 135.167 190.242C135.372 190.491 135.618 190.687 135.906 190.828C136.199 190.97 136.531 191.041 136.902 191.041C137.381 191.041 137.786 190.943 138.118 190.748C138.45 190.552 138.741 190.291 138.99 189.964L139.81 190.616C139.639 190.875 139.422 191.121 139.158 191.355C138.895 191.59 138.57 191.78 138.184 191.927C137.803 192.073 137.352 192.146 136.829 192.146ZM144.666 191.033C144.988 191.033 145.286 190.967 145.56 190.835C145.833 190.704 146.058 190.523 146.233 190.293C146.409 190.059 146.509 189.793 146.534 189.495H147.823C147.798 189.964 147.64 190.401 147.347 190.806C147.059 191.207 146.68 191.531 146.211 191.78C145.743 192.024 145.228 192.146 144.666 192.146C144.07 192.146 143.55 192.042 143.106 191.832C142.667 191.622 142.3 191.333 142.007 190.967C141.719 190.601 141.502 190.181 141.355 189.708C141.214 189.229 141.143 188.724 141.143 188.191V187.884C141.143 187.352 141.214 186.849 141.355 186.375C141.502 185.896 141.719 185.474 142.007 185.108C142.3 184.742 142.667 184.454 143.106 184.244C143.55 184.034 144.07 183.929 144.666 183.929C145.286 183.929 145.828 184.056 146.292 184.31C146.756 184.559 147.12 184.9 147.383 185.335C147.652 185.765 147.798 186.253 147.823 186.8H146.534C146.509 186.473 146.417 186.177 146.255 185.914C146.099 185.65 145.884 185.44 145.611 185.284C145.342 185.123 145.027 185.042 144.666 185.042C144.251 185.042 143.902 185.125 143.619 185.291C143.34 185.452 143.118 185.672 142.952 185.95C142.791 186.224 142.674 186.529 142.601 186.866C142.532 187.198 142.498 187.537 142.498 187.884V188.191C142.498 188.538 142.532 188.88 142.601 189.217C142.669 189.554 142.784 189.859 142.945 190.132C143.111 190.406 143.333 190.625 143.611 190.792C143.895 190.953 144.246 191.033 144.666 191.033ZM152.664 184.075V185.115H148.379V184.075H152.664ZM149.83 182.149H151.185V190.037C151.185 190.306 151.226 190.508 151.309 190.645C151.392 190.782 151.5 190.872 151.631 190.916C151.763 190.96 151.905 190.982 152.056 190.982C152.168 190.982 152.286 190.972 152.408 190.953C152.535 190.928 152.63 190.909 152.693 190.894L152.701 192C152.593 192.034 152.452 192.066 152.276 192.095C152.105 192.129 151.897 192.146 151.653 192.146C151.321 192.146 151.016 192.081 150.738 191.949C150.459 191.817 150.237 191.597 150.071 191.29C149.91 190.977 149.83 190.557 149.83 190.03V182.149Z" fill="#1A1A1A"/>
<path d="M316 191.4C315.744 191.4 315.488 191.297 315.293 191.092L309.293 184.792C308.902 184.382 308.902 183.718 309.293 183.308C309.684 182.897 310.316 182.897 310.707 183.308L316 188.867L321.293 183.308C321.684 182.898 322.316 182.898 322.707 183.308C323.098 183.719 323.098 184.383 322.707 184.793L316.707 191.093C316.512 191.298 316.256 191.4 316 191.4Z" fill="#737373"/>
<rect x="96.5" y="167.5" width="239" height="39" rx="3.5" stroke="#AAAAAA"/>
<rect x="396.5" y="167.5" width="239" height="39" rx="3.5" fill="white"/>
<path d="M418.921 189.305C418.921 189.056 418.882 188.836 418.804 188.646C418.731 188.45 418.599 188.274 418.409 188.118C418.223 187.962 417.964 187.813 417.632 187.671C417.305 187.53 416.89 187.386 416.387 187.239C415.86 187.083 415.384 186.91 414.959 186.719C414.534 186.524 414.17 186.302 413.868 186.053C413.565 185.804 413.333 185.518 413.172 185.196C413.011 184.874 412.93 184.505 412.93 184.09C412.93 183.675 413.016 183.292 413.187 182.94C413.357 182.588 413.602 182.283 413.919 182.024C414.241 181.761 414.625 181.556 415.069 181.409C415.513 181.263 416.009 181.189 416.556 181.189C417.356 181.189 418.035 181.343 418.592 181.651C419.153 181.954 419.581 182.352 419.874 182.845C420.167 183.333 420.313 183.855 420.313 184.412H418.907C418.907 184.012 418.821 183.658 418.65 183.35C418.479 183.038 418.221 182.793 417.874 182.618C417.527 182.437 417.088 182.347 416.556 182.347C416.053 182.347 415.638 182.422 415.311 182.574C414.983 182.725 414.739 182.93 414.578 183.189C414.422 183.448 414.344 183.743 414.344 184.075C414.344 184.3 414.39 184.505 414.483 184.69C414.581 184.871 414.729 185.04 414.93 185.196C415.135 185.352 415.394 185.496 415.706 185.628C416.023 185.76 416.402 185.887 416.841 186.009C417.447 186.18 417.969 186.37 418.409 186.58C418.848 186.79 419.209 187.027 419.493 187.291C419.781 187.549 419.993 187.845 420.13 188.177C420.271 188.504 420.342 188.875 420.342 189.29C420.342 189.725 420.254 190.118 420.079 190.469C419.903 190.821 419.651 191.121 419.324 191.37C418.997 191.619 418.604 191.812 418.145 191.949C417.691 192.081 417.183 192.146 416.622 192.146C416.128 192.146 415.643 192.078 415.164 191.941C414.69 191.805 414.258 191.6 413.868 191.326C413.482 191.053 413.172 190.716 412.938 190.315C412.708 189.91 412.593 189.441 412.593 188.909H414C414 189.275 414.07 189.59 414.212 189.854C414.354 190.113 414.546 190.328 414.791 190.499C415.04 190.669 415.32 190.796 415.633 190.879C415.95 190.958 416.28 190.997 416.622 190.997C417.115 190.997 417.532 190.928 417.874 190.792C418.216 190.655 418.475 190.459 418.65 190.206C418.831 189.952 418.921 189.651 418.921 189.305ZM425.228 192.146C424.676 192.146 424.175 192.054 423.726 191.868C423.282 191.678 422.898 191.412 422.576 191.07C422.259 190.728 422.015 190.323 421.844 189.854C421.673 189.385 421.587 188.873 421.587 188.316V188.008C421.587 187.364 421.683 186.79 421.873 186.287C422.063 185.779 422.322 185.35 422.649 184.998C422.977 184.646 423.348 184.38 423.763 184.2C424.178 184.019 424.607 183.929 425.052 183.929C425.618 183.929 426.106 184.026 426.517 184.222C426.932 184.417 427.271 184.69 427.535 185.042C427.798 185.389 427.994 185.799 428.121 186.272C428.248 186.741 428.311 187.254 428.311 187.811V188.418H422.393V187.312H426.956V187.21C426.937 186.858 426.863 186.517 426.736 186.185C426.614 185.853 426.419 185.579 426.15 185.364C425.882 185.149 425.516 185.042 425.052 185.042C424.744 185.042 424.461 185.108 424.202 185.24C423.943 185.367 423.721 185.557 423.536 185.811C423.35 186.065 423.206 186.375 423.104 186.741C423.001 187.107 422.95 187.53 422.95 188.008V188.316C422.95 188.692 423.001 189.046 423.104 189.378C423.211 189.705 423.365 189.993 423.565 190.242C423.77 190.491 424.017 190.687 424.305 190.828C424.598 190.97 424.93 191.041 425.301 191.041C425.779 191.041 426.185 190.943 426.517 190.748C426.849 190.552 427.139 190.291 427.388 189.964L428.208 190.616C428.038 190.875 427.82 191.121 427.557 191.355C427.293 191.59 426.968 191.78 426.583 191.927C426.202 192.073 425.75 192.146 425.228 192.146ZM431.365 180.75V192H430.003V180.75H431.365ZM436.829 192.146C436.277 192.146 435.777 192.054 435.328 191.868C434.883 191.678 434.5 191.412 434.178 191.07C433.86 190.728 433.616 190.323 433.445 189.854C433.274 189.385 433.189 188.873 433.189 188.316V188.008C433.189 187.364 433.284 186.79 433.475 186.287C433.665 185.779 433.924 185.35 434.251 184.998C434.578 184.646 434.949 184.38 435.364 184.2C435.779 184.019 436.209 183.929 436.653 183.929C437.22 183.929 437.708 184.026 438.118 184.222C438.533 184.417 438.873 184.69 439.136 185.042C439.4 185.389 439.595 185.799 439.722 186.272C439.849 186.741 439.913 187.254 439.913 187.811V188.418H433.995V187.312H438.558V187.21C438.538 186.858 438.465 186.517 438.338 186.185C438.216 185.853 438.021 185.579 437.752 185.364C437.483 185.149 437.117 185.042 436.653 185.042C436.346 185.042 436.062 185.108 435.804 185.24C435.545 185.367 435.323 185.557 435.137 185.811C434.952 186.065 434.808 186.375 434.705 186.741C434.603 187.107 434.551 187.53 434.551 188.008V188.316C434.551 188.692 434.603 189.046 434.705 189.378C434.812 189.705 434.966 189.993 435.167 190.242C435.372 190.491 435.618 190.687 435.906 190.828C436.199 190.97 436.531 191.041 436.902 191.041C437.381 191.041 437.786 190.943 438.118 190.748C438.45 190.552 438.741 190.291 438.99 189.964L439.81 190.616C439.639 190.875 439.422 191.121 439.158 191.355C438.895 191.59 438.57 191.78 438.184 191.927C437.803 192.073 437.352 192.146 436.829 192.146ZM444.666 191.033C444.988 191.033 445.286 190.967 445.56 190.835C445.833 190.704 446.058 190.523 446.233 190.293C446.409 190.059 446.509 189.793 446.534 189.495H447.823C447.798 189.964 447.64 190.401 447.347 190.806C447.059 191.207 446.68 191.531 446.211 191.78C445.743 192.024 445.228 192.146 444.666 192.146C444.07 192.146 443.55 192.042 443.106 191.832C442.667 191.622 442.3 191.333 442.007 190.967C441.719 190.601 441.502 190.181 441.355 189.708C441.214 189.229 441.143 188.724 441.143 188.191V187.884C441.143 187.352 441.214 186.849 441.355 186.375C441.502 185.896 441.719 185.474 442.007 185.108C442.3 184.742 442.667 184.454 443.106 184.244C443.55 184.034 444.07 183.929 444.666 183.929C445.286 183.929 445.828 184.056 446.292 184.31C446.756 184.559 447.12 184.9 447.383 185.335C447.652 185.765 447.798 186.253 447.823 186.8H446.534C446.509 186.473 446.417 186.177 446.255 185.914C446.099 185.65 445.884 185.44 445.611 185.284C445.342 185.123 445.027 185.042 444.666 185.042C444.251 185.042 443.902 185.125 443.619 185.291C443.34 185.452 443.118 185.672 442.952 185.95C442.791 186.224 442.674 186.529 442.601 186.866C442.532 187.198 442.498 187.537 442.498 187.884V188.191C442.498 188.538 442.532 188.88 442.601 189.217C442.669 189.554 442.784 189.859 442.945 190.132C443.111 190.406 443.333 190.625 443.611 190.792C443.895 190.953 444.246 191.033 444.666 191.033ZM452.664 184.075V185.115H448.379V184.075H452.664ZM449.83 182.149H451.185V190.037C451.185 190.306 451.226 190.508 451.309 190.645C451.392 190.782 451.5 190.872 451.631 190.916C451.763 190.96 451.905 190.982 452.056 190.982C452.168 190.982 452.286 190.972 452.408 190.953C452.535 190.928 452.63 190.909 452.693 190.894L452.701 192C452.593 192.034 452.452 192.066 452.276 192.095C452.105 192.129 451.897 192.146 451.653 192.146C451.321 192.146 451.016 192.081 450.738 191.949C450.459 191.817 450.237 191.597 450.071 191.29C449.91 190.977 449.83 190.557 449.83 190.03V182.149Z" fill="#1A1A1A"/>
<path d="M616 191.4C615.744 191.4 615.488 191.297 615.293 191.092L609.293 184.792C608.902 184.382 608.902 183.718 609.293 183.308C609.684 182.897 610.316 182.897 610.707 183.308L616 188.867L621.293 183.308C621.684 182.898 622.316 182.898 622.707 183.308C623.098 183.719 623.098 184.383 622.707 184.793L616.707 191.093C616.512 191.298 616.256 191.4 616 191.4Z" fill="#737373"/>
<rect x="396.5" y="167.5" width="239" height="39" rx="3.5" stroke="#286EF1"/>
<rect x="697" y="168" width="238" height="38" rx="3" fill="white"/>
<path d="M718.921 189.305C718.921 189.056 718.882 188.836 718.804 188.646C718.731 188.45 718.599 188.274 718.409 188.118C718.223 187.962 717.964 187.813 717.632 187.671C717.305 187.53 716.89 187.386 716.387 187.239C715.86 187.083 715.384 186.91 714.959 186.719C714.534 186.524 714.17 186.302 713.868 186.053C713.565 185.804 713.333 185.518 713.172 185.196C713.011 184.874 712.93 184.505 712.93 184.09C712.93 183.675 713.016 183.292 713.187 182.94C713.357 182.588 713.602 182.283 713.919 182.024C714.241 181.761 714.625 181.556 715.069 181.409C715.513 181.263 716.009 181.189 716.556 181.189C717.356 181.189 718.035 181.343 718.592 181.651C719.153 181.954 719.581 182.352 719.874 182.845C720.167 183.333 720.313 183.855 720.313 184.412H718.907C718.907 184.012 718.821 183.658 718.65 183.35C718.479 183.038 718.221 182.793 717.874 182.618C717.527 182.437 717.088 182.347 716.556 182.347C716.053 182.347 715.638 182.422 715.311 182.574C714.983 182.725 714.739 182.93 714.578 183.189C714.422 183.448 714.344 183.743 714.344 184.075C714.344 184.3 714.39 184.505 714.483 184.69C714.581 184.871 714.729 185.04 714.93 185.196C715.135 185.352 715.394 185.496 715.706 185.628C716.023 185.76 716.402 185.887 716.841 186.009C717.447 186.18 717.969 186.37 718.409 186.58C718.848 186.79 719.209 187.027 719.493 187.291C719.781 187.549 719.993 187.845 720.13 188.177C720.271 188.504 720.342 188.875 720.342 189.29C720.342 189.725 720.254 190.118 720.079 190.469C719.903 190.821 719.651 191.121 719.324 191.37C718.997 191.619 718.604 191.812 718.145 191.949C717.691 192.081 717.183 192.146 716.622 192.146C716.128 192.146 715.643 192.078 715.164 191.941C714.69 191.805 714.258 191.6 713.868 191.326C713.482 191.053 713.172 190.716 712.938 190.315C712.708 189.91 712.593 189.441 712.593 188.909H714C714 189.275 714.07 189.59 714.212 189.854C714.354 190.113 714.546 190.328 714.791 190.499C715.04 190.669 715.32 190.796 715.633 190.879C715.95 190.958 716.28 190.997 716.622 190.997C717.115 190.997 717.532 190.928 717.874 190.792C718.216 190.655 718.475 190.459 718.65 190.206C718.831 189.952 718.921 189.651 718.921 189.305ZM725.228 192.146C724.676 192.146 724.175 192.054 723.726 191.868C723.282 191.678 722.898 191.412 722.576 191.07C722.259 190.728 722.015 190.323 721.844 189.854C721.673 189.385 721.587 188.873 721.587 188.316V188.008C721.587 187.364 721.683 186.79 721.873 186.287C722.063 185.779 722.322 185.35 722.649 184.998C722.977 184.646 723.348 184.38 723.763 184.2C724.178 184.019 724.607 183.929 725.052 183.929C725.618 183.929 726.106 184.026 726.517 184.222C726.932 184.417 727.271 184.69 727.535 185.042C727.798 185.389 727.994 185.799 728.121 186.272C728.248 186.741 728.311 187.254 728.311 187.811V188.418H722.393V187.312H726.956V187.21C726.937 186.858 726.863 186.517 726.736 186.185C726.614 185.853 726.419 185.579 726.15 185.364C725.882 185.149 725.516 185.042 725.052 185.042C724.744 185.042 724.461 185.108 724.202 185.24C723.943 185.367 723.721 185.557 723.536 185.811C723.35 186.065 723.206 186.375 723.104 186.741C723.001 187.107 722.95 187.53 722.95 188.008V188.316C722.95 188.692 723.001 189.046 723.104 189.378C723.211 189.705 723.365 189.993 723.565 190.242C723.77 190.491 724.017 190.687 724.305 190.828C724.598 190.97 724.93 191.041 725.301 191.041C725.779 191.041 726.185 190.943 726.517 190.748C726.849 190.552 727.139 190.291 727.388 189.964L728.208 190.616C728.038 190.875 727.82 191.121 727.557 191.355C727.293 191.59 726.968 191.78 726.583 191.927C726.202 192.073 725.75 192.146 725.228 192.146ZM731.365 180.75V192H730.003V180.75H731.365ZM736.829 192.146C736.277 192.146 735.777 192.054 735.328 191.868C734.883 191.678 734.5 191.412 734.178 191.07C733.86 190.728 733.616 190.323 733.445 189.854C733.274 189.385 733.189 188.873 733.189 188.316V188.008C733.189 187.364 733.284 186.79 733.475 186.287C733.665 185.779 733.924 185.35 734.251 184.998C734.578 184.646 734.949 184.38 735.364 184.2C735.779 184.019 736.209 183.929 736.653 183.929C737.22 183.929 737.708 184.026 738.118 184.222C738.533 184.417 738.873 184.69 739.136 185.042C739.4 185.389 739.595 185.799 739.722 186.272C739.849 186.741 739.913 187.254 739.913 187.811V188.418H733.995V187.312H738.558V187.21C738.538 186.858 738.465 186.517 738.338 186.185C738.216 185.853 738.021 185.579 737.752 185.364C737.483 185.149 737.117 185.042 736.653 185.042C736.346 185.042 736.062 185.108 735.804 185.24C735.545 185.367 735.323 185.557 735.137 185.811C734.952 186.065 734.808 186.375 734.705 186.741C734.603 187.107 734.551 187.53 734.551 188.008V188.316C734.551 188.692 734.603 189.046 734.705 189.378C734.812 189.705 734.966 189.993 735.167 190.242C735.372 190.491 735.618 190.687 735.906 190.828C736.199 190.97 736.531 191.041 736.902 191.041C737.381 191.041 737.786 190.943 738.118 190.748C738.45 190.552 738.741 190.291 738.99 189.964L739.81 190.616C739.639 190.875 739.422 191.121 739.158 191.355C738.895 191.59 738.57 191.78 738.184 191.927C737.803 192.073 737.352 192.146 736.829 192.146ZM744.666 191.033C744.988 191.033 745.286 190.967 745.56 190.835C745.833 190.704 746.058 190.523 746.233 190.293C746.409 190.059 746.509 189.793 746.534 189.495H747.823C747.798 189.964 747.64 190.401 747.347 190.806C747.059 191.207 746.68 191.531 746.211 191.78C745.743 192.024 745.228 192.146 744.666 192.146C744.07 192.146 743.55 192.042 743.106 191.832C742.667 191.622 742.3 191.333 742.007 190.967C741.719 190.601 741.502 190.181 741.355 189.708C741.214 189.229 741.143 188.724 741.143 188.191V187.884C741.143 187.352 741.214 186.849 741.355 186.375C741.502 185.896 741.719 185.474 742.007 185.108C742.3 184.742 742.667 184.454 743.106 184.244C743.55 184.034 744.07 183.929 744.666 183.929C745.286 183.929 745.828 184.056 746.292 184.31C746.756 184.559 747.12 184.9 747.383 185.335C747.652 185.765 747.798 186.253 747.823 186.8H746.534C746.509 186.473 746.417 186.177 746.255 185.914C746.099 185.65 745.884 185.44 745.611 185.284C745.342 185.123 745.027 185.042 744.666 185.042C744.251 185.042 743.902 185.125 743.619 185.291C743.34 185.452 743.118 185.672 742.952 185.95C742.791 186.224 742.674 186.529 742.601 186.866C742.532 187.198 742.498 187.537 742.498 187.884V188.191C742.498 188.538 742.532 188.88 742.601 189.217C742.669 189.554 742.784 189.859 742.945 190.132C743.111 190.406 743.333 190.625 743.611 190.792C743.895 190.953 744.246 191.033 744.666 191.033ZM752.664 184.075V185.115H748.379V184.075H752.664ZM749.83 182.149H751.185V190.037C751.185 190.306 751.226 190.508 751.309 190.645C751.392 190.782 751.5 190.872 751.631 190.916C751.763 190.96 751.905 190.982 752.056 190.982C752.168 190.982 752.286 190.972 752.408 190.953C752.535 190.928 752.63 190.909 752.693 190.894L752.701 192C752.593 192.034 752.452 192.066 752.276 192.095C752.105 192.129 751.897 192.146 751.653 192.146C751.321 192.146 751.016 192.081 750.738 191.949C750.459 191.817 750.237 191.597 750.071 191.29C749.91 190.977 749.83 190.557 749.83 190.03V182.149Z" fill="#1A1A1A"/>
<path d="M916 191.4C915.744 191.4 915.488 191.297 915.293 191.092L909.293 184.792C908.902 184.382 908.902 183.718 909.293 183.308C909.684 182.897 910.316 182.897 910.707 183.308L916 188.867L921.293 183.308C921.684 182.898 922.316 182.898 922.707 183.308C923.098 183.719 923.098 184.383 922.707 184.793L916.707 191.093C916.512 191.298 916.256 191.4 916 191.4Z" fill="#737373"/>
<rect x="697" y="168" width="238" height="38" rx="3" stroke="#286EF1" stroke-width="2"/>
</svg>
