<svg width="486" height="406" viewBox="0 0 486 406" fill="none" xmlns="http://www.w3.org/2000/svg">
<rect width="486" height="406" rx="4" fill="#F8F8F8"/>
<rect x="116" y="88" width="328.615" height="230" rx="8" fill="white"/>
<rect x="151.5" y="187.5" width="239" height="39" rx="3.5" fill="white"/>
<path d="M184.697 215.398L179.461 210.164C180.594 208.777 181.219 207.031 181.219 205.125C181.219 200.637 177.58 197 173.092 197C168.604 197 165 200.638 165 205.125C165 209.612 168.638 213.25 173.092 213.25C174.998 213.25 176.747 212.589 178.132 211.491L183.368 216.725C183.587 216.91 183.829 217 184.068 217C184.306 217 184.547 216.908 184.731 216.725C185.095 216.359 185.095 215.766 184.697 215.398ZM166.876 205.125C166.876 201.679 169.68 198.875 173.127 198.875C176.574 198.875 179.379 201.679 179.379 205.125C179.379 208.571 176.574 211.375 173.127 211.375C169.68 211.375 166.876 208.57 166.876 205.125Z" fill="#737373"/>
<path d="M201.921 209.305C201.921 209.056 201.882 208.836 201.804 208.646C201.731 208.45 201.599 208.274 201.409 208.118C201.223 207.962 200.964 207.813 200.632 207.671C200.305 207.53 199.89 207.386 199.387 207.239C198.86 207.083 198.384 206.91 197.959 206.719C197.534 206.524 197.17 206.302 196.868 206.053C196.565 205.804 196.333 205.518 196.172 205.196C196.011 204.874 195.93 204.505 195.93 204.09C195.93 203.675 196.016 203.292 196.187 202.94C196.357 202.588 196.602 202.283 196.919 202.024C197.241 201.761 197.625 201.556 198.069 201.409C198.513 201.263 199.009 201.189 199.556 201.189C200.356 201.189 201.035 201.343 201.592 201.651C202.153 201.954 202.581 202.352 202.874 202.845C203.167 203.333 203.313 203.855 203.313 204.412H201.907C201.907 204.012 201.821 203.658 201.65 203.35C201.479 203.038 201.221 202.793 200.874 202.618C200.527 202.437 200.088 202.347 199.556 202.347C199.053 202.347 198.638 202.422 198.311 202.574C197.983 202.725 197.739 202.93 197.578 203.189C197.422 203.448 197.344 203.743 197.344 204.075C197.344 204.3 197.39 204.505 197.483 204.69C197.581 204.871 197.729 205.04 197.93 205.196C198.135 205.352 198.394 205.496 198.706 205.628C199.023 205.76 199.402 205.887 199.841 206.009C200.447 206.18 200.969 206.37 201.409 206.58C201.848 206.79 202.209 207.027 202.493 207.291C202.781 207.549 202.993 207.845 203.13 208.177C203.271 208.504 203.342 208.875 203.342 209.29C203.342 209.725 203.254 210.118 203.079 210.469C202.903 210.821 202.651 211.121 202.324 211.37C201.997 211.619 201.604 211.812 201.145 211.949C200.691 212.081 200.183 212.146 199.622 212.146C199.128 212.146 198.643 212.078 198.164 211.941C197.69 211.805 197.258 211.6 196.868 211.326C196.482 211.053 196.172 210.716 195.938 210.315C195.708 209.91 195.593 209.441 195.593 208.909H197C197 209.275 197.07 209.59 197.212 209.854C197.354 210.113 197.546 210.328 197.791 210.499C198.04 210.669 198.32 210.796 198.633 210.879C198.95 210.958 199.28 210.997 199.622 210.997C200.115 210.997 200.532 210.928 200.874 210.792C201.216 210.655 201.475 210.459 201.65 210.206C201.831 209.952 201.921 209.651 201.921 209.305ZM208.228 212.146C207.676 212.146 207.175 212.054 206.726 211.868C206.282 211.678 205.898 211.412 205.576 211.07C205.259 210.728 205.015 210.323 204.844 209.854C204.673 209.385 204.587 208.873 204.587 208.316V208.008C204.587 207.364 204.683 206.79 204.873 206.287C205.063 205.779 205.322 205.35 205.649 204.998C205.977 204.646 206.348 204.38 206.763 204.2C207.178 204.019 207.607 203.929 208.052 203.929C208.618 203.929 209.106 204.026 209.517 204.222C209.932 204.417 210.271 204.69 210.535 205.042C210.798 205.389 210.994 205.799 211.121 206.272C211.248 206.741 211.311 207.254 211.311 207.811V208.418H205.393V207.312H209.956V207.21C209.937 206.858 209.863 206.517 209.736 206.185C209.614 205.853 209.419 205.579 209.15 205.364C208.882 205.149 208.516 205.042 208.052 205.042C207.744 205.042 207.461 205.108 207.202 205.24C206.943 205.367 206.721 205.557 206.536 205.811C206.35 206.065 206.206 206.375 206.104 206.741C206.001 207.107 205.95 207.53 205.95 208.008V208.316C205.95 208.692 206.001 209.046 206.104 209.378C206.211 209.705 206.365 209.993 206.565 210.242C206.77 210.491 207.017 210.687 207.305 210.828C207.598 210.97 207.93 211.041 208.301 211.041C208.779 211.041 209.185 210.943 209.517 210.748C209.849 210.552 210.139 210.291 210.388 209.964L211.208 210.616C211.038 210.875 210.82 211.121 210.557 211.355C210.293 211.59 209.968 211.78 209.583 211.927C209.202 212.073 208.75 212.146 208.228 212.146ZM217.566 210.645V206.565C217.566 206.253 217.502 205.982 217.375 205.752C217.253 205.518 217.068 205.337 216.819 205.21C216.57 205.083 216.262 205.02 215.896 205.02C215.554 205.02 215.254 205.079 214.995 205.196C214.741 205.313 214.541 205.467 214.395 205.657C214.253 205.848 214.182 206.053 214.182 206.272H212.827C212.827 205.989 212.9 205.708 213.047 205.43C213.193 205.152 213.403 204.9 213.677 204.676C213.955 204.446 214.287 204.266 214.673 204.134C215.063 203.997 215.498 203.929 215.977 203.929C216.553 203.929 217.061 204.026 217.5 204.222C217.944 204.417 218.291 204.712 218.54 205.108C218.794 205.499 218.921 205.989 218.921 206.58V210.271C218.921 210.535 218.943 210.816 218.987 211.114C219.036 211.412 219.106 211.668 219.199 211.883V212H217.786C217.717 211.844 217.664 211.636 217.625 211.377C217.585 211.114 217.566 210.87 217.566 210.645ZM217.8 207.195L217.815 208.147H216.445C216.06 208.147 215.715 208.179 215.413 208.243C215.11 208.301 214.856 208.392 214.651 208.514C214.446 208.636 214.29 208.79 214.182 208.975C214.075 209.156 214.021 209.368 214.021 209.612C214.021 209.861 214.077 210.088 214.189 210.293C214.302 210.499 214.47 210.662 214.695 210.784C214.924 210.901 215.205 210.96 215.537 210.96C215.952 210.96 216.318 210.872 216.636 210.696C216.953 210.521 217.205 210.306 217.39 210.052C217.581 209.798 217.683 209.551 217.698 209.312L218.276 209.964C218.242 210.169 218.149 210.396 217.998 210.645C217.847 210.894 217.644 211.133 217.39 211.363C217.141 211.587 216.843 211.775 216.497 211.927C216.155 212.073 215.769 212.146 215.339 212.146C214.802 212.146 214.331 212.042 213.926 211.832C213.525 211.622 213.213 211.341 212.988 210.989C212.769 210.633 212.659 210.235 212.659 209.795C212.659 209.371 212.742 208.997 212.908 208.675C213.074 208.348 213.313 208.077 213.625 207.862C213.938 207.642 214.314 207.476 214.753 207.364C215.193 207.251 215.684 207.195 216.226 207.195H217.8ZM222.407 205.32V212H221.052V204.075H222.371L222.407 205.32ZM224.883 204.031L224.875 205.291C224.763 205.267 224.656 205.252 224.553 205.247C224.456 205.237 224.343 205.232 224.216 205.232C223.904 205.232 223.628 205.281 223.389 205.379C223.149 205.477 222.947 205.613 222.781 205.789C222.615 205.965 222.483 206.175 222.385 206.419C222.292 206.658 222.231 206.922 222.202 207.21L221.821 207.43C221.821 206.951 221.868 206.502 221.96 206.082C222.058 205.662 222.207 205.291 222.407 204.969C222.607 204.642 222.861 204.388 223.169 204.207C223.481 204.021 223.853 203.929 224.282 203.929C224.38 203.929 224.492 203.941 224.619 203.965C224.746 203.985 224.834 204.007 224.883 204.031ZM229.16 211.033C229.482 211.033 229.78 210.967 230.054 210.835C230.327 210.704 230.552 210.523 230.728 210.293C230.903 210.059 231.003 209.793 231.028 209.495H232.317C232.292 209.964 232.134 210.401 231.841 210.806C231.553 211.207 231.174 211.531 230.706 211.78C230.237 212.024 229.722 212.146 229.16 212.146C228.564 212.146 228.044 212.042 227.6 211.832C227.161 211.622 226.794 211.333 226.501 210.967C226.213 210.601 225.996 210.181 225.85 209.708C225.708 209.229 225.637 208.724 225.637 208.191V207.884C225.637 207.352 225.708 206.849 225.85 206.375C225.996 205.896 226.213 205.474 226.501 205.108C226.794 204.742 227.161 204.454 227.6 204.244C228.044 204.034 228.564 203.929 229.16 203.929C229.78 203.929 230.322 204.056 230.786 204.31C231.25 204.559 231.614 204.9 231.877 205.335C232.146 205.765 232.292 206.253 232.317 206.8H231.028C231.003 206.473 230.911 206.177 230.75 205.914C230.593 205.65 230.378 205.44 230.105 205.284C229.836 205.123 229.521 205.042 229.16 205.042C228.745 205.042 228.396 205.125 228.113 205.291C227.834 205.452 227.612 205.672 227.446 205.95C227.285 206.224 227.168 206.529 227.095 206.866C227.026 207.198 226.992 207.537 226.992 207.884V208.191C226.992 208.538 227.026 208.88 227.095 209.217C227.163 209.554 227.278 209.859 227.439 210.132C227.605 210.406 227.827 210.625 228.105 210.792C228.389 210.953 228.74 211.033 229.16 211.033ZM235.195 200.75V212H233.84V200.75H235.195ZM234.873 207.737L234.309 207.715C234.314 207.173 234.395 206.673 234.551 206.214C234.707 205.75 234.927 205.347 235.21 205.005C235.493 204.664 235.83 204.4 236.221 204.214C236.616 204.024 237.053 203.929 237.532 203.929C237.922 203.929 238.274 203.982 238.586 204.09C238.899 204.192 239.165 204.358 239.385 204.588C239.609 204.817 239.78 205.115 239.897 205.481C240.015 205.843 240.073 206.285 240.073 206.807V212H238.711V206.792C238.711 206.377 238.65 206.045 238.528 205.796C238.406 205.542 238.228 205.359 237.993 205.247C237.759 205.13 237.471 205.071 237.129 205.071C236.792 205.071 236.484 205.142 236.206 205.284C235.933 205.425 235.696 205.621 235.496 205.87C235.3 206.119 235.146 206.404 235.034 206.727C234.927 207.044 234.873 207.381 234.873 207.737Z" fill="#737373"/>
<rect x="151.5" y="187.5" width="239" height="39" rx="3.5" stroke="#AAAAAA"/>
<rect x="260" y="33" width="26" height="26" rx="4" fill="#333333"/>
<path d="M276.424 49.6875V51H269.752V49.8721L272.992 46.3379C273.348 45.9368 273.628 45.5905 273.833 45.2988C274.038 45.0072 274.182 44.7451 274.264 44.5127C274.35 44.2757 274.394 44.0456 274.394 43.8223C274.394 43.5078 274.334 43.2321 274.216 42.9951C274.102 42.7536 273.933 42.5645 273.71 42.4277C273.487 42.2865 273.215 42.2158 272.896 42.2158C272.527 42.2158 272.217 42.2956 271.967 42.4551C271.716 42.6146 271.527 42.8356 271.399 43.1182C271.272 43.3962 271.208 43.7152 271.208 44.0752H269.561C269.561 43.4964 269.693 42.9678 269.957 42.4893C270.221 42.0062 270.604 41.6234 271.105 41.3408C271.607 41.0537 272.211 40.9102 272.917 40.9102C273.582 40.9102 274.147 41.0218 274.612 41.2451C275.077 41.4684 275.43 41.7852 275.672 42.1953C275.918 42.6055 276.041 43.0908 276.041 43.6514C276.041 43.9613 275.991 44.2689 275.891 44.5742C275.79 44.8796 275.647 45.1849 275.46 45.4902C275.278 45.791 275.061 46.0941 274.811 46.3994C274.56 46.7002 274.284 47.0055 273.983 47.3154L271.83 49.6875H276.424Z" fill="white"/>
<path d="M273 184L275.887 179L270.113 179L273 184ZM273.5 179.5L273.5 63L272.5 63L272.5 179.5L273.5 179.5Z" fill="#737373"/>
<rect x="57" y="190" width="26" height="26" rx="4" fill="#333333"/>
<path d="M71.25 198.013V208H69.6025V199.968L67.1621 200.795V199.435L71.0518 198.013H71.25Z" fill="white"/>
<path d="M159 203L154 200.113V205.887L159 203ZM154.5 202.5H87V203.5H154.5V202.5Z" fill="#737373"/>
</svg>
