<svg width="800" height="298" viewBox="0 0 800 298" fill="none" xmlns="http://www.w3.org/2000/svg">
<rect width="800" height="298" rx="4" fill="#F8F8F8"/>
<g filter="url(#filter0_d_1965_36438)">
<g clip-path="url(#clip0_1965_36438)">
<rect x="220" y="90" width="360" height="120" rx="8" fill="white"/>
<rect x="220" y="90" width="4" height="120" fill="#286EF1"/>
<path d="M252 104C246.477 104 242 108.477 242 114C242 119.523 246.477 124 252 124C257.523 124 262 119.523 262 114C262 108.477 257.523 104 252 104ZM252 109C252.69 109 253.25 109.56 253.25 110.25C253.25 110.94 252.69 111.5 252 111.5C251.31 111.5 250.75 110.941 250.75 110.25C250.75 109.559 251.309 109 252 109ZM253.562 119H250.438C249.922 119 249.5 118.582 249.5 118.062C249.5 117.543 249.92 117.125 250.438 117.125H251.062V114.625H250.75C250.232 114.625 249.812 114.205 249.812 113.688C249.812 113.17 250.234 112.75 250.75 112.75H252C252.518 112.75 252.938 113.17 252.938 113.688V117.125H253.562C254.08 117.125 254.5 117.545 254.5 118.062C254.5 118.58 254.082 119 253.562 119Z" fill="#286EF1"/>
<path d="M282.18 107.625V119H280.219L275.117 110.852V119H273.156V107.625H275.117L280.234 115.789V107.625H282.18ZM283.969 114.867V114.688C283.969 114.078 284.057 113.513 284.234 112.992C284.411 112.466 284.667 112.01 285 111.625C285.339 111.234 285.75 110.932 286.234 110.719C286.724 110.5 287.276 110.391 287.891 110.391C288.51 110.391 289.062 110.5 289.547 110.719C290.036 110.932 290.451 111.234 290.789 111.625C291.128 112.01 291.385 112.466 291.562 112.992C291.74 113.513 291.828 114.078 291.828 114.688V114.867C291.828 115.477 291.74 116.042 291.562 116.562C291.385 117.083 291.128 117.539 290.789 117.93C290.451 118.315 290.039 118.617 289.555 118.836C289.07 119.049 288.521 119.156 287.906 119.156C287.286 119.156 286.732 119.049 286.242 118.836C285.758 118.617 285.346 118.315 285.008 117.93C284.669 117.539 284.411 117.083 284.234 116.562C284.057 116.042 283.969 115.477 283.969 114.867ZM285.852 114.688V114.867C285.852 115.247 285.891 115.607 285.969 115.945C286.047 116.284 286.169 116.581 286.336 116.836C286.503 117.091 286.716 117.292 286.977 117.438C287.237 117.583 287.547 117.656 287.906 117.656C288.255 117.656 288.557 117.583 288.812 117.438C289.073 117.292 289.286 117.091 289.453 116.836C289.62 116.581 289.742 116.284 289.82 115.945C289.904 115.607 289.945 115.247 289.945 114.867V114.688C289.945 114.312 289.904 113.958 289.82 113.625C289.742 113.286 289.617 112.987 289.445 112.727C289.279 112.466 289.065 112.263 288.805 112.117C288.549 111.966 288.245 111.891 287.891 111.891C287.536 111.891 287.229 111.966 286.969 112.117C286.714 112.263 286.503 112.466 286.336 112.727C286.169 112.987 286.047 113.286 285.969 113.625C285.891 113.958 285.852 114.312 285.852 114.688ZM297.281 110.547V111.922H292.516V110.547H297.281ZM293.891 108.477H295.773V116.664C295.773 116.924 295.81 117.125 295.883 117.266C295.961 117.401 296.068 117.492 296.203 117.539C296.339 117.586 296.497 117.609 296.68 117.609C296.81 117.609 296.935 117.602 297.055 117.586C297.174 117.57 297.271 117.555 297.344 117.539L297.352 118.977C297.195 119.023 297.013 119.065 296.805 119.102C296.602 119.138 296.367 119.156 296.102 119.156C295.669 119.156 295.286 119.081 294.953 118.93C294.62 118.773 294.359 118.521 294.172 118.172C293.984 117.823 293.891 117.359 293.891 116.781V108.477ZM300.75 110.547V119H298.859V110.547H300.75ZM298.734 108.328C298.734 108.042 298.828 107.805 299.016 107.617C299.208 107.424 299.474 107.328 299.812 107.328C300.146 107.328 300.409 107.424 300.602 107.617C300.794 107.805 300.891 108.042 300.891 108.328C300.891 108.609 300.794 108.844 300.602 109.031C300.409 109.219 300.146 109.312 299.812 109.312C299.474 109.312 299.208 109.219 299.016 109.031C298.828 108.844 298.734 108.609 298.734 108.328ZM305.359 119H303.477V109.734C303.477 109.104 303.594 108.576 303.828 108.148C304.068 107.716 304.409 107.391 304.852 107.172C305.294 106.948 305.818 106.836 306.422 106.836C306.609 106.836 306.794 106.849 306.977 106.875C307.159 106.896 307.336 106.93 307.508 106.977L307.461 108.43C307.357 108.404 307.242 108.385 307.117 108.375C306.997 108.365 306.867 108.359 306.727 108.359C306.44 108.359 306.193 108.414 305.984 108.523C305.781 108.628 305.625 108.781 305.516 108.984C305.411 109.188 305.359 109.438 305.359 109.734V119ZM307.102 110.547V111.922H302.18V110.547H307.102ZM310.484 110.547V119H308.594V110.547H310.484ZM308.469 108.328C308.469 108.042 308.562 107.805 308.75 107.617C308.943 107.424 309.208 107.328 309.547 107.328C309.88 107.328 310.143 107.424 310.336 107.617C310.529 107.805 310.625 108.042 310.625 108.328C310.625 108.609 310.529 108.844 310.336 109.031C310.143 109.219 309.88 109.312 309.547 109.312C309.208 109.312 308.943 109.219 308.75 109.031C308.562 108.844 308.469 108.609 308.469 108.328ZM316 117.656C316.307 117.656 316.583 117.596 316.828 117.477C317.078 117.352 317.279 117.18 317.43 116.961C317.586 116.742 317.672 116.49 317.688 116.203H319.461C319.451 116.75 319.289 117.247 318.977 117.695C318.664 118.143 318.25 118.5 317.734 118.766C317.219 119.026 316.648 119.156 316.023 119.156C315.378 119.156 314.815 119.047 314.336 118.828C313.857 118.604 313.458 118.297 313.141 117.906C312.823 117.516 312.583 117.065 312.422 116.555C312.266 116.044 312.188 115.497 312.188 114.914V114.641C312.188 114.057 312.266 113.51 312.422 113C312.583 112.484 312.823 112.031 313.141 111.641C313.458 111.25 313.857 110.945 314.336 110.727C314.815 110.503 315.375 110.391 316.016 110.391C316.693 110.391 317.286 110.526 317.797 110.797C318.307 111.062 318.708 111.435 319 111.914C319.297 112.388 319.451 112.94 319.461 113.57H317.688C317.672 113.258 317.594 112.977 317.453 112.727C317.318 112.471 317.125 112.268 316.875 112.117C316.63 111.966 316.336 111.891 315.992 111.891C315.612 111.891 315.297 111.969 315.047 112.125C314.797 112.276 314.602 112.484 314.461 112.75C314.32 113.01 314.219 113.305 314.156 113.633C314.099 113.956 314.07 114.292 314.07 114.641V114.914C314.07 115.263 314.099 115.602 314.156 115.93C314.214 116.258 314.312 116.552 314.453 116.812C314.599 117.068 314.797 117.273 315.047 117.43C315.297 117.581 315.615 117.656 316 117.656ZM325.672 117.305V113.273C325.672 112.971 325.617 112.711 325.508 112.492C325.398 112.273 325.232 112.104 325.008 111.984C324.789 111.865 324.513 111.805 324.18 111.805C323.872 111.805 323.607 111.857 323.383 111.961C323.159 112.065 322.984 112.206 322.859 112.383C322.734 112.56 322.672 112.76 322.672 112.984H320.797C320.797 112.651 320.878 112.328 321.039 112.016C321.201 111.703 321.435 111.424 321.742 111.18C322.049 110.935 322.417 110.742 322.844 110.602C323.271 110.461 323.75 110.391 324.281 110.391C324.917 110.391 325.479 110.497 325.969 110.711C326.464 110.924 326.852 111.247 327.133 111.68C327.419 112.107 327.562 112.643 327.562 113.289V117.047C327.562 117.432 327.589 117.779 327.641 118.086C327.698 118.388 327.779 118.651 327.883 118.875V119H325.953C325.865 118.797 325.794 118.539 325.742 118.227C325.695 117.909 325.672 117.602 325.672 117.305ZM325.945 113.859L325.961 115.023H324.609C324.26 115.023 323.953 115.057 323.688 115.125C323.422 115.188 323.201 115.281 323.023 115.406C322.846 115.531 322.714 115.682 322.625 115.859C322.536 116.036 322.492 116.237 322.492 116.461C322.492 116.685 322.544 116.891 322.648 117.078C322.753 117.26 322.904 117.404 323.102 117.508C323.305 117.612 323.549 117.664 323.836 117.664C324.221 117.664 324.557 117.586 324.844 117.43C325.135 117.268 325.365 117.073 325.531 116.844C325.698 116.609 325.786 116.388 325.797 116.18L326.406 117.016C326.344 117.229 326.237 117.458 326.086 117.703C325.935 117.948 325.737 118.182 325.492 118.406C325.253 118.625 324.964 118.805 324.625 118.945C324.292 119.086 323.906 119.156 323.469 119.156C322.917 119.156 322.424 119.047 321.992 118.828C321.56 118.604 321.221 118.305 320.977 117.93C320.732 117.549 320.609 117.12 320.609 116.641C320.609 116.193 320.693 115.797 320.859 115.453C321.031 115.104 321.281 114.812 321.609 114.578C321.943 114.344 322.349 114.167 322.828 114.047C323.307 113.922 323.854 113.859 324.469 113.859H325.945ZM333.406 110.547V111.922H328.641V110.547H333.406ZM330.016 108.477H331.898V116.664C331.898 116.924 331.935 117.125 332.008 117.266C332.086 117.401 332.193 117.492 332.328 117.539C332.464 117.586 332.622 117.609 332.805 117.609C332.935 117.609 333.06 117.602 333.18 117.586C333.299 117.57 333.396 117.555 333.469 117.539L333.477 118.977C333.32 119.023 333.138 119.065 332.93 119.102C332.727 119.138 332.492 119.156 332.227 119.156C331.794 119.156 331.411 119.081 331.078 118.93C330.745 118.773 330.484 118.521 330.297 118.172C330.109 117.823 330.016 117.359 330.016 116.781V108.477ZM336.875 110.547V119H334.984V110.547H336.875ZM334.859 108.328C334.859 108.042 334.953 107.805 335.141 107.617C335.333 107.424 335.599 107.328 335.938 107.328C336.271 107.328 336.534 107.424 336.727 107.617C336.919 107.805 337.016 108.042 337.016 108.328C337.016 108.609 336.919 108.844 336.727 109.031C336.534 109.219 336.271 109.312 335.938 109.312C335.599 109.312 335.333 109.219 335.141 109.031C334.953 108.844 334.859 108.609 334.859 108.328ZM338.578 114.867V114.688C338.578 114.078 338.667 113.513 338.844 112.992C339.021 112.466 339.276 112.01 339.609 111.625C339.948 111.234 340.359 110.932 340.844 110.719C341.333 110.5 341.885 110.391 342.5 110.391C343.12 110.391 343.672 110.5 344.156 110.719C344.646 110.932 345.06 111.234 345.398 111.625C345.737 112.01 345.995 112.466 346.172 112.992C346.349 113.513 346.438 114.078 346.438 114.688V114.867C346.438 115.477 346.349 116.042 346.172 116.562C345.995 117.083 345.737 117.539 345.398 117.93C345.06 118.315 344.648 118.617 344.164 118.836C343.68 119.049 343.13 119.156 342.516 119.156C341.896 119.156 341.341 119.049 340.852 118.836C340.367 118.617 339.956 118.315 339.617 117.93C339.279 117.539 339.021 117.083 338.844 116.562C338.667 116.042 338.578 115.477 338.578 114.867ZM340.461 114.688V114.867C340.461 115.247 340.5 115.607 340.578 115.945C340.656 116.284 340.779 116.581 340.945 116.836C341.112 117.091 341.326 117.292 341.586 117.438C341.846 117.583 342.156 117.656 342.516 117.656C342.865 117.656 343.167 117.583 343.422 117.438C343.682 117.292 343.896 117.091 344.062 116.836C344.229 116.581 344.352 116.284 344.43 115.945C344.513 115.607 344.555 115.247 344.555 114.867V114.688C344.555 114.312 344.513 113.958 344.43 113.625C344.352 113.286 344.227 112.987 344.055 112.727C343.888 112.466 343.674 112.263 343.414 112.117C343.159 111.966 342.854 111.891 342.5 111.891C342.146 111.891 341.839 111.966 341.578 112.117C341.323 112.263 341.112 112.466 340.945 112.727C340.779 112.987 340.656 113.286 340.578 113.625C340.5 113.958 340.461 114.312 340.461 114.688ZM349.883 112.352V119H348V110.547H349.773L349.883 112.352ZM349.547 114.461L348.938 114.453C348.943 113.854 349.026 113.305 349.188 112.805C349.354 112.305 349.583 111.875 349.875 111.516C350.172 111.156 350.526 110.88 350.938 110.688C351.349 110.49 351.807 110.391 352.312 110.391C352.719 110.391 353.086 110.448 353.414 110.562C353.747 110.672 354.031 110.852 354.266 111.102C354.505 111.352 354.688 111.677 354.812 112.078C354.938 112.474 355 112.961 355 113.539V119H353.109V113.531C353.109 113.125 353.049 112.805 352.93 112.57C352.815 112.331 352.646 112.161 352.422 112.062C352.203 111.958 351.93 111.906 351.602 111.906C351.279 111.906 350.99 111.974 350.734 112.109C350.479 112.245 350.263 112.43 350.086 112.664C349.914 112.898 349.781 113.169 349.688 113.477C349.594 113.784 349.547 114.112 349.547 114.461ZM365.398 107.625V119H363.453V107.625H365.398ZM368.969 107.625V109.188H359.914V107.625H368.969ZM372.297 110.547V119H370.406V110.547H372.297ZM370.281 108.328C370.281 108.042 370.375 107.805 370.562 107.617C370.755 107.424 371.021 107.328 371.359 107.328C371.693 107.328 371.956 107.424 372.148 107.617C372.341 107.805 372.438 108.042 372.438 108.328C372.438 108.609 372.341 108.844 372.148 109.031C371.956 109.219 371.693 109.312 371.359 109.312C371.021 109.312 370.755 109.219 370.562 109.031C370.375 108.844 370.281 108.609 370.281 108.328ZM378.234 110.547V111.922H373.469V110.547H378.234ZM374.844 108.477H376.727V116.664C376.727 116.924 376.763 117.125 376.836 117.266C376.914 117.401 377.021 117.492 377.156 117.539C377.292 117.586 377.451 117.609 377.633 117.609C377.763 117.609 377.888 117.602 378.008 117.586C378.128 117.57 378.224 117.555 378.297 117.539L378.305 118.977C378.148 119.023 377.966 119.065 377.758 119.102C377.555 119.138 377.32 119.156 377.055 119.156C376.622 119.156 376.24 119.081 375.906 118.93C375.573 118.773 375.312 118.521 375.125 118.172C374.938 117.823 374.844 117.359 374.844 116.781V108.477ZM381.703 107V119H379.812V107H381.703ZM387.492 119.156C386.867 119.156 386.302 119.055 385.797 118.852C385.297 118.643 384.87 118.354 384.516 117.984C384.167 117.615 383.898 117.18 383.711 116.68C383.523 116.18 383.43 115.641 383.43 115.062V114.75C383.43 114.089 383.526 113.49 383.719 112.953C383.911 112.417 384.18 111.958 384.523 111.578C384.867 111.193 385.273 110.898 385.742 110.695C386.211 110.492 386.719 110.391 387.266 110.391C387.87 110.391 388.398 110.492 388.852 110.695C389.305 110.898 389.68 111.185 389.977 111.555C390.279 111.919 390.503 112.354 390.648 112.859C390.799 113.365 390.875 113.922 390.875 114.531V115.336H384.344V113.984H389.016V113.836C389.005 113.497 388.938 113.18 388.812 112.883C388.693 112.586 388.508 112.346 388.258 112.164C388.008 111.982 387.674 111.891 387.258 111.891C386.945 111.891 386.667 111.958 386.422 112.094C386.182 112.224 385.982 112.414 385.82 112.664C385.659 112.914 385.534 113.216 385.445 113.57C385.362 113.919 385.32 114.312 385.32 114.75V115.062C385.32 115.432 385.37 115.776 385.469 116.094C385.573 116.406 385.724 116.68 385.922 116.914C386.12 117.148 386.359 117.333 386.641 117.469C386.922 117.599 387.242 117.664 387.602 117.664C388.055 117.664 388.458 117.573 388.812 117.391C389.167 117.208 389.474 116.951 389.734 116.617L390.727 117.578C390.544 117.844 390.307 118.099 390.016 118.344C389.724 118.583 389.367 118.779 388.945 118.93C388.529 119.081 388.044 119.156 387.492 119.156Z" fill="#1A1A1A"/>
<path d="M277.178 136.336V147H275.787V136.336H277.178ZM280.606 136.336V137.493H272.366V136.336H280.606ZM283.338 135.75V147H281.983V135.75H283.338ZM283.016 142.737L282.452 142.715C282.457 142.173 282.537 141.673 282.693 141.214C282.85 140.75 283.069 140.347 283.353 140.005C283.636 139.664 283.973 139.4 284.363 139.214C284.759 139.024 285.196 138.929 285.674 138.929C286.065 138.929 286.417 138.982 286.729 139.09C287.042 139.192 287.308 139.358 287.527 139.588C287.752 139.817 287.923 140.115 288.04 140.481C288.157 140.843 288.216 141.285 288.216 141.807V147H286.854V141.792C286.854 141.377 286.792 141.045 286.67 140.796C286.548 140.542 286.37 140.359 286.136 140.247C285.901 140.13 285.613 140.071 285.271 140.071C284.935 140.071 284.627 140.142 284.349 140.284C284.075 140.425 283.838 140.621 283.638 140.87C283.443 141.119 283.289 141.404 283.177 141.727C283.069 142.044 283.016 142.381 283.016 142.737ZM291.717 139.075V147H290.354V139.075H291.717ZM290.252 136.973C290.252 136.753 290.318 136.568 290.45 136.417C290.586 136.265 290.787 136.189 291.05 136.189C291.309 136.189 291.507 136.265 291.644 136.417C291.785 136.568 291.856 136.753 291.856 136.973C291.856 137.183 291.785 137.364 291.644 137.515C291.507 137.662 291.309 137.735 291.05 137.735C290.787 137.735 290.586 137.662 290.45 137.515C290.318 137.364 290.252 137.183 290.252 136.973ZM298.506 144.898C298.506 144.703 298.462 144.522 298.375 144.356C298.292 144.185 298.118 144.031 297.854 143.895C297.596 143.753 297.205 143.631 296.683 143.528C296.243 143.436 295.845 143.326 295.489 143.199C295.137 143.072 294.837 142.918 294.588 142.737C294.344 142.557 294.156 142.344 294.024 142.1C293.892 141.856 293.826 141.57 293.826 141.243C293.826 140.931 293.895 140.635 294.031 140.357C294.173 140.079 294.371 139.832 294.625 139.617C294.883 139.402 295.193 139.234 295.555 139.112C295.916 138.99 296.319 138.929 296.763 138.929C297.398 138.929 297.94 139.041 298.389 139.266C298.838 139.49 299.183 139.791 299.422 140.167C299.661 140.538 299.781 140.95 299.781 141.404H298.426C298.426 141.185 298.36 140.972 298.228 140.767C298.101 140.557 297.913 140.384 297.664 140.247C297.42 140.11 297.12 140.042 296.763 140.042C296.387 140.042 296.082 140.101 295.848 140.218C295.618 140.33 295.45 140.474 295.342 140.65C295.24 140.826 295.188 141.011 295.188 141.207C295.188 141.353 295.213 141.485 295.262 141.602C295.315 141.714 295.408 141.819 295.54 141.917C295.672 142.01 295.857 142.098 296.097 142.181C296.336 142.264 296.641 142.347 297.012 142.43C297.662 142.576 298.196 142.752 298.616 142.957C299.036 143.162 299.349 143.414 299.554 143.711C299.759 144.009 299.861 144.371 299.861 144.795C299.861 145.142 299.788 145.459 299.642 145.748C299.5 146.036 299.292 146.285 299.019 146.495C298.75 146.7 298.428 146.861 298.052 146.978C297.681 147.09 297.264 147.146 296.8 147.146C296.102 147.146 295.511 147.022 295.027 146.773C294.544 146.524 294.178 146.202 293.929 145.806C293.68 145.411 293.555 144.993 293.555 144.554H294.917C294.937 144.925 295.044 145.22 295.24 145.44C295.435 145.655 295.674 145.809 295.958 145.901C296.241 145.989 296.521 146.033 296.8 146.033C297.171 146.033 297.481 145.984 297.73 145.887C297.984 145.789 298.177 145.655 298.309 145.484C298.44 145.313 298.506 145.118 298.506 144.898ZM306.834 139.075V147H305.472V139.075H306.834ZM305.369 136.973C305.369 136.753 305.435 136.568 305.567 136.417C305.704 136.265 305.904 136.189 306.167 136.189C306.426 136.189 306.624 136.265 306.761 136.417C306.902 136.568 306.973 136.753 306.973 136.973C306.973 137.183 306.902 137.364 306.761 137.515C306.624 137.662 306.426 137.735 306.167 137.735C305.904 137.735 305.704 137.662 305.567 137.515C305.435 137.364 305.369 137.183 305.369 136.973ZM313.624 144.898C313.624 144.703 313.58 144.522 313.492 144.356C313.409 144.185 313.235 144.031 312.972 143.895C312.713 143.753 312.322 143.631 311.8 143.528C311.36 143.436 310.962 143.326 310.606 143.199C310.254 143.072 309.954 142.918 309.705 142.737C309.461 142.557 309.273 142.344 309.141 142.1C309.009 141.856 308.943 141.57 308.943 141.243C308.943 140.931 309.012 140.635 309.148 140.357C309.29 140.079 309.488 139.832 309.742 139.617C310 139.402 310.311 139.234 310.672 139.112C311.033 138.99 311.436 138.929 311.88 138.929C312.515 138.929 313.057 139.041 313.506 139.266C313.956 139.49 314.3 139.791 314.539 140.167C314.778 140.538 314.898 140.95 314.898 141.404H313.543C313.543 141.185 313.477 140.972 313.345 140.767C313.218 140.557 313.03 140.384 312.781 140.247C312.537 140.11 312.237 140.042 311.88 140.042C311.504 140.042 311.199 140.101 310.965 140.218C310.735 140.33 310.567 140.474 310.459 140.65C310.357 140.826 310.306 141.011 310.306 141.207C310.306 141.353 310.33 141.485 310.379 141.602C310.433 141.714 310.525 141.819 310.657 141.917C310.789 142.01 310.975 142.098 311.214 142.181C311.453 142.264 311.758 142.347 312.129 142.43C312.779 142.576 313.313 142.752 313.733 142.957C314.153 143.162 314.466 143.414 314.671 143.711C314.876 144.009 314.979 144.371 314.979 144.795C314.979 145.142 314.905 145.459 314.759 145.748C314.617 146.036 314.41 146.285 314.136 146.495C313.868 146.7 313.545 146.861 313.169 146.978C312.798 147.09 312.381 147.146 311.917 147.146C311.219 147.146 310.628 147.022 310.145 146.773C309.661 146.524 309.295 146.202 309.046 145.806C308.797 145.411 308.672 144.993 308.672 144.554H310.035C310.054 144.925 310.162 145.22 310.357 145.44C310.552 145.655 310.792 145.809 311.075 145.901C311.358 145.989 311.639 146.033 311.917 146.033C312.288 146.033 312.598 145.984 312.847 145.887C313.101 145.789 313.294 145.655 313.426 145.484C313.558 145.313 313.624 145.118 313.624 144.898ZM323.797 139.075V140.115H319.512V139.075H323.797ZM320.962 137.149H322.317V145.037C322.317 145.306 322.359 145.508 322.442 145.645C322.525 145.782 322.632 145.872 322.764 145.916C322.896 145.96 323.038 145.982 323.189 145.982C323.301 145.982 323.418 145.972 323.541 145.953C323.667 145.928 323.763 145.909 323.826 145.894L323.833 147C323.726 147.034 323.584 147.066 323.409 147.095C323.238 147.129 323.03 147.146 322.786 147.146C322.454 147.146 322.149 147.081 321.871 146.949C321.592 146.817 321.37 146.597 321.204 146.29C321.043 145.977 320.962 145.557 320.962 145.03V137.149ZM324.881 143.125V142.957C324.881 142.386 324.964 141.856 325.13 141.368C325.296 140.875 325.535 140.447 325.848 140.086C326.16 139.72 326.539 139.437 326.983 139.236C327.427 139.031 327.925 138.929 328.477 138.929C329.034 138.929 329.534 139.031 329.979 139.236C330.428 139.437 330.809 139.72 331.121 140.086C331.438 140.447 331.68 140.875 331.846 141.368C332.012 141.856 332.095 142.386 332.095 142.957V143.125C332.095 143.697 332.012 144.227 331.846 144.715C331.68 145.203 331.438 145.63 331.121 145.997C330.809 146.358 330.43 146.641 329.986 146.846C329.546 147.046 329.048 147.146 328.492 147.146C327.935 147.146 327.435 147.046 326.99 146.846C326.546 146.641 326.165 146.358 325.848 145.997C325.535 145.63 325.296 145.203 325.13 144.715C324.964 144.227 324.881 143.697 324.881 143.125ZM326.236 142.957V143.125C326.236 143.521 326.282 143.895 326.375 144.246C326.468 144.593 326.607 144.9 326.792 145.169C326.983 145.438 327.22 145.65 327.503 145.806C327.786 145.958 328.116 146.033 328.492 146.033C328.863 146.033 329.188 145.958 329.466 145.806C329.749 145.65 329.983 145.438 330.169 145.169C330.354 144.9 330.494 144.593 330.586 144.246C330.684 143.895 330.733 143.521 330.733 143.125V142.957C330.733 142.566 330.684 142.198 330.586 141.851C330.494 141.5 330.352 141.189 330.162 140.921C329.976 140.647 329.742 140.433 329.458 140.276C329.18 140.12 328.853 140.042 328.477 140.042C328.106 140.042 327.779 140.12 327.496 140.276C327.217 140.433 326.983 140.647 326.792 140.921C326.607 141.189 326.468 141.5 326.375 141.851C326.282 142.198 326.236 142.566 326.236 142.957ZM338.467 145.645V141.565C338.467 141.253 338.404 140.982 338.277 140.752C338.155 140.518 337.969 140.337 337.72 140.21C337.471 140.083 337.164 140.02 336.797 140.02C336.456 140.02 336.155 140.079 335.896 140.196C335.643 140.313 335.442 140.467 335.296 140.657C335.154 140.848 335.083 141.053 335.083 141.272H333.729C333.729 140.989 333.802 140.708 333.948 140.43C334.095 140.152 334.305 139.9 334.578 139.676C334.856 139.446 335.188 139.266 335.574 139.134C335.965 138.997 336.399 138.929 336.878 138.929C337.454 138.929 337.962 139.026 338.401 139.222C338.846 139.417 339.192 139.712 339.441 140.108C339.695 140.499 339.822 140.989 339.822 141.58V145.271C339.822 145.535 339.844 145.816 339.888 146.114C339.937 146.412 340.008 146.668 340.101 146.883V147H338.687C338.619 146.844 338.565 146.636 338.526 146.377C338.487 146.114 338.467 145.87 338.467 145.645ZM338.702 142.195L338.716 143.147H337.347C336.961 143.147 336.617 143.179 336.314 143.243C336.011 143.301 335.757 143.392 335.552 143.514C335.347 143.636 335.191 143.79 335.083 143.975C334.976 144.156 334.922 144.368 334.922 144.612C334.922 144.861 334.979 145.088 335.091 145.293C335.203 145.499 335.372 145.662 335.596 145.784C335.826 145.901 336.106 145.96 336.438 145.96C336.854 145.96 337.22 145.872 337.537 145.696C337.854 145.521 338.106 145.306 338.292 145.052C338.482 144.798 338.584 144.551 338.599 144.312L339.178 144.964C339.144 145.169 339.051 145.396 338.899 145.645C338.748 145.894 338.545 146.133 338.292 146.363C338.042 146.587 337.745 146.775 337.398 146.927C337.056 147.073 336.67 147.146 336.241 147.146C335.704 147.146 335.232 147.042 334.827 146.832C334.427 146.622 334.114 146.341 333.89 145.989C333.67 145.633 333.56 145.235 333.56 144.795C333.56 144.371 333.643 143.997 333.809 143.675C333.975 143.348 334.214 143.077 334.527 142.862C334.839 142.642 335.215 142.476 335.655 142.364C336.094 142.251 336.585 142.195 337.127 142.195H338.702ZM346.568 144.898C346.568 144.703 346.524 144.522 346.436 144.356C346.353 144.185 346.18 144.031 345.916 143.895C345.657 143.753 345.267 143.631 344.744 143.528C344.305 143.436 343.907 143.326 343.55 143.199C343.199 143.072 342.898 142.918 342.649 142.737C342.405 142.557 342.217 142.344 342.085 142.1C341.954 141.856 341.888 141.57 341.888 141.243C341.888 140.931 341.956 140.635 342.093 140.357C342.234 140.079 342.432 139.832 342.686 139.617C342.945 139.402 343.255 139.234 343.616 139.112C343.978 138.99 344.38 138.929 344.825 138.929C345.459 138.929 346.001 139.041 346.451 139.266C346.9 139.49 347.244 139.791 347.483 140.167C347.723 140.538 347.842 140.95 347.842 141.404H346.487C346.487 141.185 346.421 140.972 346.29 140.767C346.163 140.557 345.975 140.384 345.726 140.247C345.481 140.11 345.181 140.042 344.825 140.042C344.449 140.042 344.144 140.101 343.909 140.218C343.68 140.33 343.511 140.474 343.404 140.65C343.301 140.826 343.25 141.011 343.25 141.207C343.25 141.353 343.274 141.485 343.323 141.602C343.377 141.714 343.47 141.819 343.602 141.917C343.733 142.01 343.919 142.098 344.158 142.181C344.397 142.264 344.703 142.347 345.074 142.43C345.723 142.576 346.258 142.752 346.678 142.957C347.098 143.162 347.41 143.414 347.615 143.711C347.82 144.009 347.923 144.371 347.923 144.795C347.923 145.142 347.85 145.459 347.703 145.748C347.562 146.036 347.354 146.285 347.081 146.495C346.812 146.7 346.49 146.861 346.114 146.978C345.743 147.09 345.325 147.146 344.861 147.146C344.163 147.146 343.572 147.022 343.089 146.773C342.605 146.524 342.239 146.202 341.99 145.806C341.741 145.411 341.617 144.993 341.617 144.554H342.979C342.999 144.925 343.106 145.22 343.301 145.44C343.497 145.655 343.736 145.809 344.019 145.901C344.302 145.989 344.583 146.033 344.861 146.033C345.232 146.033 345.542 145.984 345.792 145.887C346.045 145.789 346.238 145.655 346.37 145.484C346.502 145.313 346.568 145.118 346.568 144.898ZM353.021 139.075V140.115H348.736V139.075H353.021ZM350.186 137.149H351.541V145.037C351.541 145.306 351.583 145.508 351.666 145.645C351.749 145.782 351.856 145.872 351.988 145.916C352.12 145.96 352.261 145.982 352.413 145.982C352.525 145.982 352.642 145.972 352.764 145.953C352.891 145.928 352.986 145.909 353.05 145.894L353.057 147C352.95 147.034 352.808 147.066 352.632 147.095C352.461 147.129 352.254 147.146 352.01 147.146C351.678 147.146 351.373 147.081 351.094 146.949C350.816 146.817 350.594 146.597 350.428 146.29C350.267 145.977 350.186 145.557 350.186 145.03V137.149ZM359.678 140.65V147H358.316V139.075H359.605L359.678 140.65ZM359.4 142.737L358.77 142.715C358.775 142.173 358.846 141.673 358.982 141.214C359.119 140.75 359.322 140.347 359.59 140.005C359.859 139.664 360.193 139.4 360.594 139.214C360.994 139.024 361.458 138.929 361.985 138.929C362.356 138.929 362.698 138.982 363.011 139.09C363.323 139.192 363.594 139.356 363.824 139.581C364.053 139.805 364.231 140.093 364.358 140.445C364.485 140.796 364.549 141.221 364.549 141.719V147H363.194V141.785C363.194 141.37 363.123 141.038 362.981 140.789C362.845 140.54 362.649 140.359 362.396 140.247C362.142 140.13 361.844 140.071 361.502 140.071C361.102 140.071 360.767 140.142 360.499 140.284C360.23 140.425 360.015 140.621 359.854 140.87C359.693 141.119 359.576 141.404 359.502 141.727C359.434 142.044 359.4 142.381 359.4 142.737ZM364.534 141.99L363.626 142.269C363.631 141.834 363.702 141.417 363.838 141.016C363.98 140.616 364.183 140.259 364.446 139.947C364.715 139.634 365.044 139.388 365.435 139.207C365.826 139.021 366.272 138.929 366.775 138.929C367.2 138.929 367.576 138.985 367.903 139.097C368.235 139.209 368.514 139.383 368.738 139.617C368.968 139.847 369.141 140.142 369.258 140.503C369.375 140.865 369.434 141.294 369.434 141.792V147H368.072V141.778C368.072 141.333 368.001 140.989 367.859 140.745C367.723 140.496 367.527 140.323 367.273 140.225C367.024 140.123 366.727 140.071 366.38 140.071C366.082 140.071 365.818 140.123 365.589 140.225C365.359 140.328 365.167 140.469 365.01 140.65C364.854 140.826 364.734 141.028 364.651 141.258C364.573 141.487 364.534 141.731 364.534 141.99ZM374.773 147.146C374.222 147.146 373.721 147.054 373.272 146.868C372.828 146.678 372.444 146.412 372.122 146.07C371.805 145.728 371.561 145.323 371.39 144.854C371.219 144.385 371.133 143.873 371.133 143.316V143.008C371.133 142.364 371.229 141.79 371.419 141.287C371.609 140.779 371.868 140.35 372.195 139.998C372.522 139.646 372.894 139.38 373.309 139.2C373.724 139.019 374.153 138.929 374.598 138.929C375.164 138.929 375.652 139.026 376.062 139.222C376.478 139.417 376.817 139.69 377.081 140.042C377.344 140.389 377.54 140.799 377.667 141.272C377.793 141.741 377.857 142.254 377.857 142.811V143.418H371.939V142.312H376.502V142.21C376.482 141.858 376.409 141.517 376.282 141.185C376.16 140.853 375.965 140.579 375.696 140.364C375.428 140.149 375.062 140.042 374.598 140.042C374.29 140.042 374.007 140.108 373.748 140.24C373.489 140.367 373.267 140.557 373.082 140.811C372.896 141.065 372.752 141.375 372.649 141.741C372.547 142.107 372.496 142.53 372.496 143.008V143.316C372.496 143.692 372.547 144.046 372.649 144.378C372.757 144.705 372.911 144.993 373.111 145.242C373.316 145.491 373.562 145.687 373.851 145.828C374.144 145.97 374.476 146.041 374.847 146.041C375.325 146.041 375.73 145.943 376.062 145.748C376.395 145.552 376.685 145.291 376.934 144.964L377.754 145.616C377.583 145.875 377.366 146.121 377.103 146.355C376.839 146.59 376.514 146.78 376.128 146.927C375.748 147.073 375.296 147.146 374.773 147.146ZM384.053 144.898C384.053 144.703 384.009 144.522 383.921 144.356C383.838 144.185 383.665 144.031 383.401 143.895C383.143 143.753 382.752 143.631 382.229 143.528C381.79 143.436 381.392 143.326 381.036 143.199C380.684 143.072 380.384 142.918 380.135 142.737C379.891 142.557 379.703 142.344 379.571 142.1C379.439 141.856 379.373 141.57 379.373 141.243C379.373 140.931 379.441 140.635 379.578 140.357C379.72 140.079 379.917 139.832 380.171 139.617C380.43 139.402 380.74 139.234 381.102 139.112C381.463 138.99 381.866 138.929 382.31 138.929C382.945 138.929 383.487 139.041 383.936 139.266C384.385 139.49 384.729 139.791 384.969 140.167C385.208 140.538 385.328 140.95 385.328 141.404H383.973C383.973 141.185 383.907 140.972 383.775 140.767C383.648 140.557 383.46 140.384 383.211 140.247C382.967 140.11 382.667 140.042 382.31 140.042C381.934 140.042 381.629 140.101 381.395 140.218C381.165 140.33 380.997 140.474 380.889 140.65C380.787 140.826 380.735 141.011 380.735 141.207C380.735 141.353 380.76 141.485 380.809 141.602C380.862 141.714 380.955 141.819 381.087 141.917C381.219 142.01 381.404 142.098 381.644 142.181C381.883 142.264 382.188 142.347 382.559 142.43C383.208 142.576 383.743 142.752 384.163 142.957C384.583 143.162 384.896 143.414 385.101 143.711C385.306 144.009 385.408 144.371 385.408 144.795C385.408 145.142 385.335 145.459 385.188 145.748C385.047 146.036 384.839 146.285 384.566 146.495C384.297 146.7 383.975 146.861 383.599 146.978C383.228 147.09 382.811 147.146 382.347 147.146C381.648 147.146 381.058 147.022 380.574 146.773C380.091 146.524 379.725 146.202 379.476 145.806C379.227 145.411 379.102 144.993 379.102 144.554H380.464C380.484 144.925 380.591 145.22 380.787 145.44C380.982 145.655 381.221 145.809 381.504 145.901C381.788 145.989 382.068 146.033 382.347 146.033C382.718 146.033 383.028 145.984 383.277 145.887C383.531 145.789 383.724 145.655 383.855 145.484C383.987 145.313 384.053 145.118 384.053 144.898ZM391.802 144.898C391.802 144.703 391.758 144.522 391.67 144.356C391.587 144.185 391.414 144.031 391.15 143.895C390.892 143.753 390.501 143.631 389.979 143.528C389.539 143.436 389.141 143.326 388.785 143.199C388.433 143.072 388.133 142.918 387.884 142.737C387.64 142.557 387.452 142.344 387.32 142.1C387.188 141.856 387.122 141.57 387.122 141.243C387.122 140.931 387.19 140.635 387.327 140.357C387.469 140.079 387.667 139.832 387.92 139.617C388.179 139.402 388.489 139.234 388.851 139.112C389.212 138.99 389.615 138.929 390.059 138.929C390.694 138.929 391.236 139.041 391.685 139.266C392.134 139.49 392.479 139.791 392.718 140.167C392.957 140.538 393.077 140.95 393.077 141.404H391.722C391.722 141.185 391.656 140.972 391.524 140.767C391.397 140.557 391.209 140.384 390.96 140.247C390.716 140.11 390.416 140.042 390.059 140.042C389.683 140.042 389.378 140.101 389.144 140.218C388.914 140.33 388.746 140.474 388.638 140.65C388.536 140.826 388.484 141.011 388.484 141.207C388.484 141.353 388.509 141.485 388.558 141.602C388.611 141.714 388.704 141.819 388.836 141.917C388.968 142.01 389.153 142.098 389.393 142.181C389.632 142.264 389.937 142.347 390.308 142.43C390.958 142.576 391.492 142.752 391.912 142.957C392.332 143.162 392.645 143.414 392.85 143.711C393.055 144.009 393.157 144.371 393.157 144.795C393.157 145.142 393.084 145.459 392.938 145.748C392.796 146.036 392.588 146.285 392.315 146.495C392.046 146.7 391.724 146.861 391.348 146.978C390.977 147.09 390.56 147.146 390.096 147.146C389.397 147.146 388.807 147.022 388.323 146.773C387.84 146.524 387.474 146.202 387.225 145.806C386.976 145.411 386.851 144.993 386.851 144.554H388.213C388.233 144.925 388.34 145.22 388.536 145.44C388.731 145.655 388.97 145.809 389.253 145.901C389.537 145.989 389.817 146.033 390.096 146.033C390.467 146.033 390.777 145.984 391.026 145.887C391.28 145.789 391.473 145.655 391.604 145.484C391.736 145.313 391.802 145.118 391.802 144.898ZM399.61 145.645V141.565C399.61 141.253 399.546 140.982 399.419 140.752C399.297 140.518 399.112 140.337 398.863 140.21C398.614 140.083 398.306 140.02 397.94 140.02C397.598 140.02 397.298 140.079 397.039 140.196C396.785 140.313 396.585 140.467 396.438 140.657C396.297 140.848 396.226 141.053 396.226 141.272H394.871C394.871 140.989 394.944 140.708 395.091 140.43C395.237 140.152 395.447 139.9 395.721 139.676C395.999 139.446 396.331 139.266 396.717 139.134C397.107 138.997 397.542 138.929 398.021 138.929C398.597 138.929 399.104 139.026 399.544 139.222C399.988 139.417 400.335 139.712 400.584 140.108C400.838 140.499 400.965 140.989 400.965 141.58V145.271C400.965 145.535 400.987 145.816 401.031 146.114C401.08 146.412 401.15 146.668 401.243 146.883V147H399.83C399.761 146.844 399.708 146.636 399.668 146.377C399.629 146.114 399.61 145.87 399.61 145.645ZM399.844 142.195L399.859 143.147H398.489C398.104 143.147 397.759 143.179 397.457 143.243C397.154 143.301 396.9 143.392 396.695 143.514C396.49 143.636 396.333 143.79 396.226 143.975C396.119 144.156 396.065 144.368 396.065 144.612C396.065 144.861 396.121 145.088 396.233 145.293C396.346 145.499 396.514 145.662 396.739 145.784C396.968 145.901 397.249 145.96 397.581 145.96C397.996 145.96 398.362 145.872 398.68 145.696C398.997 145.521 399.249 145.306 399.434 145.052C399.625 144.798 399.727 144.551 399.742 144.312L400.32 144.964C400.286 145.169 400.193 145.396 400.042 145.645C399.891 145.894 399.688 146.133 399.434 146.363C399.185 146.587 398.887 146.775 398.541 146.927C398.199 147.073 397.813 147.146 397.383 147.146C396.846 147.146 396.375 147.042 395.97 146.832C395.569 146.622 395.257 146.341 395.032 145.989C394.812 145.633 394.703 145.235 394.703 144.795C394.703 144.371 394.786 143.997 394.952 143.675C395.118 143.348 395.357 143.077 395.669 142.862C395.982 142.642 396.358 142.476 396.797 142.364C397.237 142.251 397.728 142.195 398.27 142.195H399.844ZM408.23 139.075H409.461V146.832C409.461 147.53 409.319 148.125 409.036 148.619C408.753 149.112 408.357 149.485 407.85 149.739C407.347 149.998 406.766 150.127 406.106 150.127C405.833 150.127 405.511 150.083 405.14 149.996C404.773 149.913 404.412 149.769 404.056 149.563C403.704 149.363 403.409 149.092 403.169 148.75L403.88 147.945C404.212 148.345 404.559 148.624 404.92 148.78C405.286 148.936 405.647 149.014 406.004 149.014C406.434 149.014 406.805 148.934 407.117 148.772C407.43 148.611 407.671 148.372 407.842 148.055C408.018 147.742 408.106 147.356 408.106 146.897V140.818L408.23 139.075ZM402.774 143.125V142.972C402.774 142.366 402.845 141.817 402.986 141.324C403.133 140.826 403.34 140.398 403.609 140.042C403.882 139.686 404.212 139.412 404.598 139.222C404.983 139.026 405.418 138.929 405.901 138.929C406.399 138.929 406.834 139.017 407.205 139.192C407.581 139.363 407.898 139.615 408.157 139.947C408.421 140.274 408.628 140.669 408.78 141.133C408.931 141.597 409.036 142.122 409.095 142.708V143.382C409.041 143.963 408.936 144.485 408.78 144.949C408.628 145.413 408.421 145.809 408.157 146.136C407.898 146.463 407.581 146.714 407.205 146.89C406.829 147.061 406.39 147.146 405.887 147.146C405.413 147.146 404.983 147.046 404.598 146.846C404.217 146.646 403.89 146.365 403.616 146.004C403.343 145.643 403.133 145.218 402.986 144.729C402.845 144.236 402.774 143.702 402.774 143.125ZM404.129 142.972V143.125C404.129 143.521 404.168 143.892 404.246 144.239C404.329 144.585 404.454 144.891 404.62 145.154C404.791 145.418 405.008 145.625 405.271 145.777C405.535 145.923 405.85 145.997 406.216 145.997C406.666 145.997 407.037 145.901 407.33 145.711C407.623 145.521 407.854 145.269 408.025 144.957C408.201 144.644 408.338 144.305 408.436 143.938V142.173C408.382 141.905 408.299 141.646 408.187 141.397C408.079 141.143 407.938 140.918 407.762 140.723C407.591 140.523 407.378 140.364 407.125 140.247C406.871 140.13 406.573 140.071 406.231 140.071C405.86 140.071 405.54 140.149 405.271 140.306C405.008 140.457 404.791 140.667 404.62 140.936C404.454 141.199 404.329 141.507 404.246 141.858C404.168 142.205 404.129 142.576 404.129 142.972ZM414.808 147.146C414.256 147.146 413.755 147.054 413.306 146.868C412.862 146.678 412.479 146.412 412.156 146.07C411.839 145.728 411.595 145.323 411.424 144.854C411.253 144.385 411.167 143.873 411.167 143.316V143.008C411.167 142.364 411.263 141.79 411.453 141.287C411.644 140.779 411.902 140.35 412.229 139.998C412.557 139.646 412.928 139.38 413.343 139.2C413.758 139.019 414.188 138.929 414.632 138.929C415.198 138.929 415.687 139.026 416.097 139.222C416.512 139.417 416.851 139.69 417.115 140.042C417.378 140.389 417.574 140.799 417.701 141.272C417.828 141.741 417.891 142.254 417.891 142.811V143.418H411.973V142.312H416.536V142.21C416.517 141.858 416.443 141.517 416.316 141.185C416.194 140.853 415.999 140.579 415.73 140.364C415.462 140.149 415.096 140.042 414.632 140.042C414.324 140.042 414.041 140.108 413.782 140.24C413.523 140.367 413.301 140.557 413.116 140.811C412.93 141.065 412.786 141.375 412.684 141.741C412.581 142.107 412.53 142.53 412.53 143.008V143.316C412.53 143.692 412.581 144.046 412.684 144.378C412.791 144.705 412.945 144.993 413.145 145.242C413.35 145.491 413.597 145.687 413.885 145.828C414.178 145.97 414.51 146.041 414.881 146.041C415.359 146.041 415.765 145.943 416.097 145.748C416.429 145.552 416.719 145.291 416.968 144.964L417.789 145.616C417.618 145.875 417.4 146.121 417.137 146.355C416.873 146.59 416.548 146.78 416.163 146.927C415.782 147.073 415.33 147.146 414.808 147.146ZM419.495 146.282C419.495 146.053 419.566 145.86 419.708 145.704C419.854 145.542 420.064 145.462 420.337 145.462C420.611 145.462 420.818 145.542 420.96 145.704C421.106 145.86 421.18 146.053 421.18 146.282C421.18 146.507 421.106 146.697 420.96 146.854C420.818 147.01 420.611 147.088 420.337 147.088C420.064 147.088 419.854 147.01 419.708 146.854C419.566 146.697 419.495 146.507 419.495 146.282Z" fill="#505050"/>
<path d="M292.539 173.989L289.777 182H288.108L291.586 172.758H292.653L292.539 173.989ZM294.849 182L292.082 173.989L291.961 172.758H293.034L296.525 182H294.849ZM294.716 178.572V179.835H289.688V178.572H294.716ZM300.213 180.908C300.463 180.908 300.687 180.86 300.886 180.762C301.089 180.661 301.252 180.521 301.375 180.343C301.501 180.166 301.571 179.96 301.584 179.728H303.025C303.016 180.172 302.885 180.576 302.631 180.94C302.377 181.304 302.041 181.594 301.622 181.81C301.203 182.021 300.74 182.127 300.232 182.127C299.707 182.127 299.25 182.038 298.861 181.86C298.472 181.678 298.148 181.429 297.89 181.111C297.632 180.794 297.437 180.428 297.306 180.013C297.179 179.598 297.115 179.154 297.115 178.68V178.458C297.115 177.984 297.179 177.54 297.306 177.125C297.437 176.706 297.632 176.338 297.89 176.021C298.148 175.703 298.472 175.456 298.861 175.278C299.25 175.096 299.705 175.005 300.226 175.005C300.776 175.005 301.258 175.115 301.673 175.335C302.088 175.551 302.413 175.853 302.65 176.243C302.892 176.628 303.016 177.076 303.025 177.588H301.584C301.571 177.334 301.508 177.106 301.394 176.903C301.284 176.695 301.127 176.53 300.924 176.408C300.725 176.285 300.486 176.224 300.207 176.224C299.898 176.224 299.642 176.287 299.438 176.414C299.235 176.537 299.077 176.706 298.962 176.922C298.848 177.133 298.766 177.373 298.715 177.639C298.668 177.902 298.645 178.174 298.645 178.458V178.68C298.645 178.964 298.668 179.239 298.715 179.505C298.761 179.772 298.842 180.011 298.956 180.223C299.075 180.43 299.235 180.597 299.438 180.724C299.642 180.847 299.9 180.908 300.213 180.908ZM307.348 175.132V176.249H303.476V175.132H307.348ZM304.593 173.45H306.123V180.102C306.123 180.314 306.152 180.477 306.211 180.591C306.275 180.701 306.362 180.775 306.472 180.813C306.582 180.851 306.711 180.87 306.859 180.87C306.965 180.87 307.066 180.864 307.164 180.851C307.261 180.838 307.339 180.826 307.398 180.813L307.405 181.981C307.278 182.019 307.13 182.053 306.96 182.083C306.795 182.112 306.605 182.127 306.389 182.127C306.038 182.127 305.727 182.066 305.456 181.943C305.185 181.816 304.974 181.611 304.821 181.327C304.669 181.044 304.593 180.667 304.593 180.197V173.45ZM310.166 175.132V182H308.63V175.132H310.166ZM308.528 173.329C308.528 173.096 308.604 172.904 308.757 172.751C308.913 172.595 309.129 172.517 309.404 172.517C309.675 172.517 309.889 172.595 310.045 172.751C310.202 172.904 310.28 173.096 310.28 173.329C310.28 173.558 310.202 173.748 310.045 173.9C309.889 174.053 309.675 174.129 309.404 174.129C309.129 174.129 308.913 174.053 308.757 173.9C308.604 173.748 308.528 173.558 308.528 173.329ZM311.55 178.642V178.496C311.55 178.001 311.622 177.542 311.766 177.119C311.91 176.691 312.117 176.321 312.388 176.008C312.663 175.69 312.997 175.445 313.391 175.271C313.788 175.094 314.237 175.005 314.736 175.005C315.24 175.005 315.688 175.094 316.082 175.271C316.48 175.445 316.816 175.69 317.091 176.008C317.366 176.321 317.576 176.691 317.72 177.119C317.864 177.542 317.936 178.001 317.936 178.496V178.642C317.936 179.137 317.864 179.596 317.72 180.02C317.576 180.443 317.366 180.813 317.091 181.13C316.816 181.444 316.482 181.689 316.088 181.867C315.695 182.04 315.248 182.127 314.749 182.127C314.245 182.127 313.795 182.04 313.397 181.867C313.003 181.689 312.669 181.444 312.394 181.13C312.119 180.813 311.91 180.443 311.766 180.02C311.622 179.596 311.55 179.137 311.55 178.642ZM313.08 178.496V178.642C313.08 178.951 313.111 179.243 313.175 179.518C313.238 179.793 313.338 180.034 313.473 180.242C313.609 180.449 313.782 180.612 313.994 180.73C314.205 180.849 314.457 180.908 314.749 180.908C315.033 180.908 315.278 180.849 315.485 180.73C315.697 180.612 315.87 180.449 316.006 180.242C316.141 180.034 316.241 179.793 316.304 179.518C316.372 179.243 316.406 178.951 316.406 178.642V178.496C316.406 178.191 316.372 177.904 316.304 177.633C316.241 177.358 316.139 177.114 316 176.903C315.864 176.691 315.691 176.526 315.479 176.408C315.272 176.285 315.024 176.224 314.736 176.224C314.449 176.224 314.199 176.285 313.987 176.408C313.78 176.526 313.609 176.691 313.473 176.903C313.338 177.114 313.238 177.358 313.175 177.633C313.111 177.904 313.08 178.191 313.08 178.496ZM320.735 176.598V182H319.205V175.132H320.646L320.735 176.598ZM320.462 178.312L319.967 178.306C319.971 177.819 320.039 177.373 320.17 176.966C320.305 176.56 320.492 176.211 320.729 175.919C320.97 175.627 321.257 175.403 321.592 175.246C321.926 175.085 322.299 175.005 322.709 175.005C323.039 175.005 323.337 175.051 323.604 175.145C323.875 175.233 324.105 175.379 324.296 175.583C324.491 175.786 324.639 176.05 324.74 176.376C324.842 176.698 324.893 177.093 324.893 177.563V182H323.356V177.557C323.356 177.227 323.308 176.966 323.21 176.776C323.117 176.581 322.98 176.444 322.798 176.363C322.62 176.279 322.398 176.236 322.131 176.236C321.869 176.236 321.634 176.291 321.427 176.401C321.219 176.511 321.044 176.662 320.9 176.852C320.76 177.042 320.652 177.263 320.576 177.512C320.5 177.762 320.462 178.028 320.462 178.312Z" fill="#286EF1"/>
<rect x="272.5" y="162.5" width="69" height="31" rx="3.5" stroke="#286EF1"/>
<path d="M553.705 118.468C554.056 118.818 554.056 119.387 553.705 119.737C553.354 120.088 552.783 120.088 552.432 119.737L548.001 115.285L543.538 119.736C543.186 120.086 542.616 120.086 542.265 119.736C541.913 119.385 541.913 118.817 542.265 118.466L546.729 114.017L542.264 109.532C541.912 109.182 541.912 108.613 542.264 108.263C542.615 107.912 543.185 107.912 543.536 108.263L548.001 112.749L552.464 108.298C552.815 107.948 553.385 107.948 553.736 108.298C554.088 108.648 554.088 109.217 553.736 109.567L549.272 114.017L553.705 118.468Z" fill="#1A1A1A"/>
</g>
</g>
<line x1="252.5" y1="68" x2="252.5" y2="100" stroke="#0045C4"/>
<line x1="356.5" y1="68" x2="356.5" y2="100" stroke="#0045C4"/>
<line x1="548.5" y1="68" x2="548.5" y2="100" stroke="#0045C4"/>
<line x1="307.5" y1="198" x2="307.5" y2="230" stroke="#0045C4"/>
<rect x="240" y="40" width="24" height="24" rx="4" fill="#000714"/>
<rect x="344" y="40" width="24" height="24" rx="4" fill="#000714"/>
<rect x="536" y="40" width="24" height="24" rx="4" fill="#000714"/>
<rect x="295" y="234" width="24" height="24" rx="4" fill="#000714"/>
<path d="M253.271 47.0127V57H251.624V48.9678L249.184 49.7949V48.4346L253.073 47.0127H253.271Z" fill="white"/>
<path d="M359.445 55.6875V57H352.773V55.8721L356.014 52.3379C356.369 51.9368 356.649 51.5905 356.854 51.2988C357.06 51.0072 357.203 50.7451 357.285 50.5127C357.372 50.2757 357.415 50.0456 357.415 49.8223C357.415 49.5078 357.356 49.2321 357.237 48.9951C357.123 48.7536 356.955 48.5645 356.731 48.4277C356.508 48.2865 356.237 48.2158 355.918 48.2158C355.549 48.2158 355.239 48.2956 354.988 48.4551C354.738 48.6146 354.549 48.8356 354.421 49.1182C354.293 49.3962 354.229 49.7152 354.229 50.0752H352.582C352.582 49.4964 352.714 48.9678 352.979 48.4893C353.243 48.0062 353.626 47.6234 354.127 47.3408C354.628 47.0537 355.232 46.9102 355.938 46.9102C356.604 46.9102 357.169 47.0218 357.634 47.2451C358.099 47.4684 358.452 47.7852 358.693 48.1953C358.939 48.6055 359.062 49.0908 359.062 49.6514C359.062 49.9613 359.012 50.2689 358.912 50.5742C358.812 50.8796 358.668 51.1849 358.481 51.4902C358.299 51.791 358.083 52.0941 357.832 52.3994C357.581 52.7002 357.306 53.0055 357.005 53.3154L354.852 55.6875H359.445Z" fill="white"/>
<path d="M551.63 53.4521V54.7646H544.452L544.397 53.7734L548.69 47.0469H550.01L548.581 49.4941L546.113 53.4521H551.63ZM550.386 47.0469V57H548.738V47.0469H550.386Z" fill="white"/>
<path d="M305.708 245.278H306.692C307.075 245.278 307.392 245.212 307.643 245.08C307.898 244.948 308.087 244.766 308.21 244.533C308.333 244.301 308.395 244.034 308.395 243.733C308.395 243.419 308.338 243.15 308.224 242.927C308.114 242.699 307.946 242.523 307.718 242.4C307.494 242.277 307.21 242.216 306.863 242.216C306.572 242.216 306.307 242.275 306.07 242.394C305.838 242.507 305.653 242.672 305.517 242.886C305.38 243.095 305.312 243.346 305.312 243.638H303.657C303.657 243.109 303.796 242.64 304.074 242.229C304.352 241.819 304.73 241.498 305.209 241.266C305.692 241.029 306.234 240.91 306.836 240.91C307.479 240.91 308.039 241.017 308.518 241.231C309.001 241.441 309.377 241.756 309.646 242.175C309.914 242.594 310.049 243.114 310.049 243.733C310.049 244.016 309.983 244.303 309.851 244.595C309.718 244.886 309.522 245.153 309.263 245.395C309.003 245.632 308.679 245.825 308.292 245.976C307.905 246.121 307.456 246.194 306.945 246.194H305.708V245.278ZM305.708 246.563V245.661H306.945C307.529 245.661 308.025 245.729 308.436 245.866C308.85 246.003 309.188 246.192 309.447 246.434C309.707 246.671 309.896 246.942 310.015 247.247C310.138 247.552 310.199 247.876 310.199 248.218C310.199 248.683 310.115 249.097 309.946 249.462C309.782 249.822 309.548 250.127 309.242 250.378C308.937 250.629 308.579 250.818 308.169 250.945C307.763 251.073 307.321 251.137 306.843 251.137C306.414 251.137 306.004 251.077 305.612 250.959C305.22 250.84 304.869 250.665 304.56 250.433C304.25 250.196 304.004 249.902 303.821 249.551C303.644 249.195 303.555 248.785 303.555 248.32H305.202C305.202 248.617 305.271 248.879 305.407 249.106C305.549 249.33 305.744 249.505 305.995 249.633C306.25 249.76 306.542 249.824 306.87 249.824C307.216 249.824 307.515 249.763 307.766 249.64C308.016 249.517 308.208 249.334 308.34 249.093C308.477 248.851 308.545 248.56 308.545 248.218C308.545 247.83 308.47 247.516 308.319 247.274C308.169 247.033 307.955 246.855 307.677 246.741C307.399 246.623 307.071 246.563 306.692 246.563H305.708Z" fill="white"/>
<defs>
<filter id="filter0_d_1965_36438" x="219" y="89" width="362" height="122" filterUnits="userSpaceOnUse" color-interpolation-filters="sRGB">
<feFlood flood-opacity="0" result="BackgroundImageFix"/>
<feColorMatrix in="SourceAlpha" type="matrix" values="0 0 0 0 0 0 0 0 0 0 0 0 0 0 0 0 0 0 127 0" result="hardAlpha"/>
<feMorphology radius="1" operator="dilate" in="SourceAlpha" result="effect1_dropShadow_1965_36438"/>
<feOffset/>
<feComposite in2="hardAlpha" operator="out"/>
<feColorMatrix type="matrix" values="0 0 0 0 0.901961 0 0 0 0 0.901961 0 0 0 0 0.901961 0 0 0 1 0"/>
<feBlend mode="normal" in2="BackgroundImageFix" result="effect1_dropShadow_1965_36438"/>
<feBlend mode="normal" in="SourceGraphic" in2="effect1_dropShadow_1965_36438" result="shape"/>
</filter>
<clipPath id="clip0_1965_36438">
<rect x="220" y="90" width="360" height="120" rx="8" fill="white"/>
</clipPath>
</defs>
</svg>
