<svg width="1240" height="456" viewBox="0 0 1240 456" fill="none" xmlns="http://www.w3.org/2000/svg">
<g clip-path="url(#clip0_11639_5027)">
<rect width="1240" height="456" rx="16" fill="#F2F2F2"/>
<rect width="140" height="716" fill="#1D2327"/>
<rect x="100" width="1180" height="32" fill="#1D2327"/>
<rect x="172.5" y="136.5" width="1035" height="287" rx="7.5" fill="white"/>
<rect x="172.5" y="136.5" width="1035" height="287" rx="7.5" stroke="#E6E6E6"/>
<rect x="204" y="175" width="120" height="18" rx="4" fill="#F2F2F2"/>
<rect x="1000" y="168" width="80" height="32" rx="4" fill="#F2F2F2"/>
<rect x="1096" y="168" width="80" height="32" rx="4" fill="#F2F2F2"/>
<rect x="204" y="224" width="474" height="168" rx="8" fill="#F2F2F2"/>
<rect x="702" y="224" width="474" height="40" rx="8" fill="#F2F2F2"/>
<rect x="702" y="288" width="474" height="40" rx="8" fill="#F2F2F2"/>
<rect x="702" y="352" width="474" height="40" rx="8" fill="#F2F2F2"/>
<rect width="1100" height="72" transform="translate(140 32)" fill="white"/>
<rect x="172" y="48" width="40" height="40" rx="8" fill="#F2F2F2"/>
<rect x="220" y="56" width="60" height="8" rx="4" fill="#F2F2F2"/>
<rect x="220" y="72" width="36" height="8" rx="4" fill="#F2F2F2"/>
<rect x="820" y="62" width="60" height="12" rx="4" fill="#F2F2F2"/>
<rect x="904" y="62" width="60" height="12" rx="4" fill="#F2F2F2"/>
<rect x="988" y="62" width="60" height="12" rx="4" fill="#F2F2F2"/>
<rect x="1072" y="52" width="80" height="32" rx="4" fill="#F2F2F2"/>
<circle cx="1192" cy="68" r="16" fill="#F2F2F2"/>
<g filter="url(#filter0_ddd_11639_5027)">
<g clip-path="url(#clip1_11639_5027)">
<rect x="510" y="48" width="360" height="48" rx="8" fill="white"/>
<rect x="510" y="48" width="4" height="48" fill="#18BB4B"/>
<path d="M532 72C532 66.4766 536.477 62 542 62C547.523 62 552 66.4766 552 72C552 77.5234 547.523 82 542 82C536.477 82 532 77.5234 532 72ZM546.523 70.2734C546.949 69.8477 546.949 69.1523 546.523 68.7266C546.098 68.3008 545.402 68.3008 544.977 68.7266L540.75 72.9531L539.023 71.2266C538.598 70.8008 537.902 70.8008 537.477 71.2266C537.051 71.6523 537.051 72.3477 537.477 72.7734L539.977 75.2734C540.402 75.6992 541.098 75.6992 541.523 75.2734L546.523 70.2734Z" fill="#18BB4B"/>
<path d="M567.178 66.3359V77H565.787V66.3359H567.178ZM570.606 66.3359V67.4932H562.366V66.3359H570.606ZM573.338 65.75V77H571.983V65.75H573.338ZM573.016 72.7373L572.452 72.7153C572.457 72.1733 572.537 71.6729 572.693 71.2139C572.85 70.75 573.069 70.3472 573.353 70.0054C573.636 69.6636 573.973 69.3999 574.363 69.2144C574.759 69.0239 575.196 68.9287 575.674 68.9287C576.065 68.9287 576.417 68.9824 576.729 69.0898C577.042 69.1924 577.308 69.3584 577.527 69.5879C577.752 69.8174 577.923 70.1152 578.04 70.4814C578.157 70.8428 578.216 71.2847 578.216 71.8071V77H576.854V71.7925C576.854 71.3774 576.792 71.0454 576.67 70.7964C576.548 70.5425 576.37 70.3594 576.136 70.2471C575.901 70.1299 575.613 70.0713 575.271 70.0713C574.935 70.0713 574.627 70.1421 574.349 70.2837C574.075 70.4253 573.838 70.6206 573.638 70.8696C573.443 71.1187 573.289 71.4043 573.177 71.7266C573.069 72.0439 573.016 72.3809 573.016 72.7373ZM581.717 69.0752V77H580.354V69.0752H581.717ZM580.252 66.9731C580.252 66.7534 580.318 66.5679 580.45 66.4165C580.586 66.2651 580.787 66.1895 581.05 66.1895C581.309 66.1895 581.507 66.2651 581.644 66.4165C581.785 66.5679 581.856 66.7534 581.856 66.9731C581.856 67.1831 581.785 67.3638 581.644 67.5151C581.507 67.6616 581.309 67.7349 581.05 67.7349C580.787 67.7349 580.586 67.6616 580.45 67.5151C580.318 67.3638 580.252 67.1831 580.252 66.9731ZM588.506 74.8979C588.506 74.7026 588.462 74.522 588.375 74.356C588.292 74.1851 588.118 74.0312 587.854 73.8945C587.596 73.7529 587.205 73.6309 586.683 73.5283C586.243 73.4355 585.845 73.3257 585.489 73.1987C585.137 73.0718 584.837 72.918 584.588 72.7373C584.344 72.5566 584.156 72.3442 584.024 72.1001C583.892 71.856 583.826 71.5703 583.826 71.2432C583.826 70.9307 583.895 70.6353 584.031 70.3569C584.173 70.0786 584.371 69.832 584.625 69.6172C584.883 69.4023 585.193 69.2339 585.555 69.1118C585.916 68.9897 586.319 68.9287 586.763 68.9287C587.398 68.9287 587.94 69.041 588.389 69.2656C588.838 69.4902 589.183 69.7905 589.422 70.1665C589.661 70.5376 589.781 70.9502 589.781 71.4043H588.426C588.426 71.1846 588.36 70.9722 588.228 70.7671C588.101 70.5571 587.913 70.3838 587.664 70.2471C587.42 70.1104 587.12 70.042 586.763 70.042C586.387 70.042 586.082 70.1006 585.848 70.2178C585.618 70.3301 585.45 70.4741 585.342 70.6499C585.24 70.8257 585.188 71.0112 585.188 71.2065C585.188 71.353 585.213 71.4849 585.262 71.6021C585.315 71.7144 585.408 71.8193 585.54 71.917C585.672 72.0098 585.857 72.0977 586.097 72.1807C586.336 72.2637 586.641 72.3467 587.012 72.4297C587.662 72.5762 588.196 72.752 588.616 72.957C589.036 73.1621 589.349 73.4136 589.554 73.7114C589.759 74.0093 589.861 74.3706 589.861 74.7954C589.861 75.1421 589.788 75.4595 589.642 75.7476C589.5 76.0356 589.292 76.2847 589.019 76.4946C588.75 76.6997 588.428 76.8608 588.052 76.978C587.681 77.0903 587.264 77.1465 586.8 77.1465C586.102 77.1465 585.511 77.022 585.027 76.7729C584.544 76.5239 584.178 76.2017 583.929 75.8062C583.68 75.4106 583.555 74.9932 583.555 74.5537H584.917C584.937 74.9248 585.044 75.2202 585.24 75.4399C585.435 75.6548 585.674 75.8086 585.958 75.9014C586.241 75.9893 586.521 76.0332 586.8 76.0332C587.171 76.0332 587.481 75.9844 587.73 75.8867C587.984 75.7891 588.177 75.6548 588.309 75.4839C588.44 75.313 588.506 75.1177 588.506 74.8979ZM596.834 69.0752V77H595.472V69.0752H596.834ZM595.369 66.9731C595.369 66.7534 595.435 66.5679 595.567 66.4165C595.704 66.2651 595.904 66.1895 596.167 66.1895C596.426 66.1895 596.624 66.2651 596.761 66.4165C596.902 66.5679 596.973 66.7534 596.973 66.9731C596.973 67.1831 596.902 67.3638 596.761 67.5151C596.624 67.6616 596.426 67.7349 596.167 67.7349C595.904 67.7349 595.704 67.6616 595.567 67.5151C595.435 67.3638 595.369 67.1831 595.369 66.9731ZM603.624 74.8979C603.624 74.7026 603.58 74.522 603.492 74.356C603.409 74.1851 603.235 74.0312 602.972 73.8945C602.713 73.7529 602.322 73.6309 601.8 73.5283C601.36 73.4355 600.962 73.3257 600.606 73.1987C600.254 73.0718 599.954 72.918 599.705 72.7373C599.461 72.5566 599.273 72.3442 599.141 72.1001C599.009 71.856 598.943 71.5703 598.943 71.2432C598.943 70.9307 599.012 70.6353 599.148 70.3569C599.29 70.0786 599.488 69.832 599.742 69.6172C600 69.4023 600.311 69.2339 600.672 69.1118C601.033 68.9897 601.436 68.9287 601.88 68.9287C602.515 68.9287 603.057 69.041 603.506 69.2656C603.956 69.4902 604.3 69.7905 604.539 70.1665C604.778 70.5376 604.898 70.9502 604.898 71.4043H603.543C603.543 71.1846 603.477 70.9722 603.345 70.7671C603.218 70.5571 603.03 70.3838 602.781 70.2471C602.537 70.1104 602.237 70.042 601.88 70.042C601.504 70.042 601.199 70.1006 600.965 70.2178C600.735 70.3301 600.567 70.4741 600.459 70.6499C600.357 70.8257 600.306 71.0112 600.306 71.2065C600.306 71.353 600.33 71.4849 600.379 71.6021C600.433 71.7144 600.525 71.8193 600.657 71.917C600.789 72.0098 600.975 72.0977 601.214 72.1807C601.453 72.2637 601.758 72.3467 602.129 72.4297C602.779 72.5762 603.313 72.752 603.733 72.957C604.153 73.1621 604.466 73.4136 604.671 73.7114C604.876 74.0093 604.979 74.3706 604.979 74.7954C604.979 75.1421 604.905 75.4595 604.759 75.7476C604.617 76.0356 604.41 76.2847 604.136 76.4946C603.868 76.6997 603.545 76.8608 603.169 76.978C602.798 77.0903 602.381 77.1465 601.917 77.1465C601.219 77.1465 600.628 77.022 600.145 76.7729C599.661 76.5239 599.295 76.2017 599.046 75.8062C598.797 75.4106 598.672 74.9932 598.672 74.5537H600.035C600.054 74.9248 600.162 75.2202 600.357 75.4399C600.552 75.6548 600.792 75.8086 601.075 75.9014C601.358 75.9893 601.639 76.0332 601.917 76.0332C602.288 76.0332 602.598 75.9844 602.847 75.8867C603.101 75.7891 603.294 75.6548 603.426 75.4839C603.558 75.313 603.624 75.1177 603.624 74.8979ZM613.797 69.0752V70.1152H609.512V69.0752H613.797ZM610.962 67.1489H612.317V75.0371C612.317 75.3057 612.359 75.5083 612.442 75.645C612.525 75.7817 612.632 75.8721 612.764 75.916C612.896 75.96 613.038 75.9819 613.189 75.9819C613.301 75.9819 613.418 75.9722 613.541 75.9526C613.667 75.9282 613.763 75.9087 613.826 75.894L613.833 77C613.726 77.0342 613.584 77.0659 613.409 77.0952C613.238 77.1294 613.03 77.1465 612.786 77.1465C612.454 77.1465 612.149 77.0806 611.871 76.9487C611.592 76.8169 611.37 76.5972 611.204 76.2896C611.043 75.9771 610.962 75.5571 610.962 75.0298V67.1489ZM614.881 73.1255V72.957C614.881 72.3857 614.964 71.856 615.13 71.3677C615.296 70.8745 615.535 70.4473 615.848 70.0859C616.16 69.7197 616.539 69.4365 616.983 69.2363C617.427 69.0312 617.925 68.9287 618.477 68.9287C619.034 68.9287 619.534 69.0312 619.979 69.2363C620.428 69.4365 620.809 69.7197 621.121 70.0859C621.438 70.4473 621.68 70.8745 621.846 71.3677C622.012 71.856 622.095 72.3857 622.095 72.957V73.1255C622.095 73.6968 622.012 74.2266 621.846 74.7148C621.68 75.2031 621.438 75.6304 621.121 75.9966C620.809 76.3579 620.43 76.6411 619.986 76.8462C619.546 77.0464 619.048 77.1465 618.492 77.1465C617.935 77.1465 617.435 77.0464 616.99 76.8462C616.546 76.6411 616.165 76.3579 615.848 75.9966C615.535 75.6304 615.296 75.2031 615.13 74.7148C614.964 74.2266 614.881 73.6968 614.881 73.1255ZM616.236 72.957V73.1255C616.236 73.521 616.282 73.8945 616.375 74.2461C616.468 74.5928 616.607 74.9004 616.792 75.1689C616.983 75.4375 617.22 75.6499 617.503 75.8062C617.786 75.9575 618.116 76.0332 618.492 76.0332C618.863 76.0332 619.188 75.9575 619.466 75.8062C619.749 75.6499 619.983 75.4375 620.169 75.1689C620.354 74.9004 620.494 74.5928 620.586 74.2461C620.684 73.8945 620.733 73.521 620.733 73.1255V72.957C620.733 72.5664 620.684 72.1978 620.586 71.8511C620.494 71.4995 620.352 71.1895 620.162 70.9209C619.976 70.6475 619.742 70.4326 619.458 70.2764C619.18 70.1201 618.853 70.042 618.477 70.042C618.106 70.042 617.779 70.1201 617.496 70.2764C617.217 70.4326 616.983 70.6475 616.792 70.9209C616.607 71.1895 616.468 71.4995 616.375 71.8511C616.282 72.1978 616.236 72.5664 616.236 72.957ZM628.467 75.645V71.5654C628.467 71.2529 628.404 70.9819 628.277 70.7524C628.155 70.5181 627.969 70.3374 627.72 70.2104C627.471 70.0835 627.164 70.02 626.797 70.02C626.456 70.02 626.155 70.0786 625.896 70.1958C625.643 70.313 625.442 70.4668 625.296 70.6572C625.154 70.8477 625.083 71.0527 625.083 71.2725H623.729C623.729 70.9893 623.802 70.7085 623.948 70.4302C624.095 70.1519 624.305 69.9004 624.578 69.6758C624.856 69.4463 625.188 69.2656 625.574 69.1338C625.965 68.9971 626.399 68.9287 626.878 68.9287C627.454 68.9287 627.962 69.0264 628.401 69.2217C628.846 69.417 629.192 69.7124 629.441 70.1079C629.695 70.4985 629.822 70.9893 629.822 71.5801V75.2715C629.822 75.5352 629.844 75.8159 629.888 76.1138C629.937 76.4116 630.008 76.668 630.101 76.8828V77H628.687C628.619 76.8438 628.565 76.6362 628.526 76.3774C628.487 76.1138 628.467 75.8696 628.467 75.645ZM628.702 72.1953L628.716 73.1475H627.347C626.961 73.1475 626.617 73.1792 626.314 73.2427C626.011 73.3013 625.757 73.3916 625.552 73.5137C625.347 73.6357 625.191 73.7896 625.083 73.9751C624.976 74.1558 624.922 74.3682 624.922 74.6123C624.922 74.8613 624.979 75.0884 625.091 75.2935C625.203 75.4985 625.372 75.6621 625.596 75.7842C625.826 75.9014 626.106 75.96 626.438 75.96C626.854 75.96 627.22 75.8721 627.537 75.6963C627.854 75.5205 628.106 75.3057 628.292 75.0518C628.482 74.7979 628.584 74.5513 628.599 74.312L629.178 74.9639C629.144 75.1689 629.051 75.396 628.899 75.645C628.748 75.894 628.545 76.1333 628.292 76.3628C628.042 76.5874 627.745 76.7754 627.398 76.9268C627.056 77.0732 626.67 77.1465 626.241 77.1465C625.704 77.1465 625.232 77.0415 624.827 76.8315C624.427 76.6216 624.114 76.3408 623.89 75.9893C623.67 75.6328 623.56 75.2349 623.56 74.7954C623.56 74.3706 623.643 73.9971 623.809 73.6748C623.975 73.3477 624.214 73.0767 624.527 72.8618C624.839 72.6421 625.215 72.4761 625.655 72.3638C626.094 72.2515 626.585 72.1953 627.127 72.1953H628.702ZM636.568 74.8979C636.568 74.7026 636.524 74.522 636.436 74.356C636.353 74.1851 636.18 74.0312 635.916 73.8945C635.657 73.7529 635.267 73.6309 634.744 73.5283C634.305 73.4355 633.907 73.3257 633.55 73.1987C633.199 73.0718 632.898 72.918 632.649 72.7373C632.405 72.5566 632.217 72.3442 632.085 72.1001C631.954 71.856 631.888 71.5703 631.888 71.2432C631.888 70.9307 631.956 70.6353 632.093 70.3569C632.234 70.0786 632.432 69.832 632.686 69.6172C632.945 69.4023 633.255 69.2339 633.616 69.1118C633.978 68.9897 634.38 68.9287 634.825 68.9287C635.459 68.9287 636.001 69.041 636.451 69.2656C636.9 69.4902 637.244 69.7905 637.483 70.1665C637.723 70.5376 637.842 70.9502 637.842 71.4043H636.487C636.487 71.1846 636.421 70.9722 636.29 70.7671C636.163 70.5571 635.975 70.3838 635.726 70.2471C635.481 70.1104 635.181 70.042 634.825 70.042C634.449 70.042 634.144 70.1006 633.909 70.2178C633.68 70.3301 633.511 70.4741 633.404 70.6499C633.301 70.8257 633.25 71.0112 633.25 71.2065C633.25 71.353 633.274 71.4849 633.323 71.6021C633.377 71.7144 633.47 71.8193 633.602 71.917C633.733 72.0098 633.919 72.0977 634.158 72.1807C634.397 72.2637 634.703 72.3467 635.074 72.4297C635.723 72.5762 636.258 72.752 636.678 72.957C637.098 73.1621 637.41 73.4136 637.615 73.7114C637.82 74.0093 637.923 74.3706 637.923 74.7954C637.923 75.1421 637.85 75.4595 637.703 75.7476C637.562 76.0356 637.354 76.2847 637.081 76.4946C636.812 76.6997 636.49 76.8608 636.114 76.978C635.743 77.0903 635.325 77.1465 634.861 77.1465C634.163 77.1465 633.572 77.022 633.089 76.7729C632.605 76.5239 632.239 76.2017 631.99 75.8062C631.741 75.4106 631.617 74.9932 631.617 74.5537H632.979C632.999 74.9248 633.106 75.2202 633.301 75.4399C633.497 75.6548 633.736 75.8086 634.019 75.9014C634.302 75.9893 634.583 76.0332 634.861 76.0332C635.232 76.0332 635.542 75.9844 635.792 75.8867C636.045 75.7891 636.238 75.6548 636.37 75.4839C636.502 75.313 636.568 75.1177 636.568 74.8979ZM643.021 69.0752V70.1152H638.736V69.0752H643.021ZM640.186 67.1489H641.541V75.0371C641.541 75.3057 641.583 75.5083 641.666 75.645C641.749 75.7817 641.856 75.8721 641.988 75.916C642.12 75.96 642.261 75.9819 642.413 75.9819C642.525 75.9819 642.642 75.9722 642.764 75.9526C642.891 75.9282 642.986 75.9087 643.05 75.894L643.057 77C642.95 77.0342 642.808 77.0659 642.632 77.0952C642.461 77.1294 642.254 77.1465 642.01 77.1465C641.678 77.1465 641.373 77.0806 641.094 76.9487C640.816 76.8169 640.594 76.5972 640.428 76.2896C640.267 75.9771 640.186 75.5571 640.186 75.0298V67.1489ZM649.678 70.6499V77H648.316V69.0752H649.605L649.678 70.6499ZM649.4 72.7373L648.77 72.7153C648.775 72.1733 648.846 71.6729 648.982 71.2139C649.119 70.75 649.322 70.3472 649.59 70.0054C649.859 69.6636 650.193 69.3999 650.594 69.2144C650.994 69.0239 651.458 68.9287 651.985 68.9287C652.356 68.9287 652.698 68.9824 653.011 69.0898C653.323 69.1924 653.594 69.356 653.824 69.5806C654.053 69.8052 654.231 70.0933 654.358 70.4448C654.485 70.7964 654.549 71.2212 654.549 71.7192V77H653.194V71.7852C653.194 71.3701 653.123 71.0381 652.981 70.7891C652.845 70.54 652.649 70.3594 652.396 70.2471C652.142 70.1299 651.844 70.0713 651.502 70.0713C651.102 70.0713 650.767 70.1421 650.499 70.2837C650.23 70.4253 650.015 70.6206 649.854 70.8696C649.693 71.1187 649.576 71.4043 649.502 71.7266C649.434 72.0439 649.4 72.3809 649.4 72.7373ZM654.534 71.9902L653.626 72.2686C653.631 71.834 653.702 71.4165 653.838 71.0161C653.98 70.6157 654.183 70.2593 654.446 69.9468C654.715 69.6343 655.044 69.3877 655.435 69.207C655.826 69.0215 656.272 68.9287 656.775 68.9287C657.2 68.9287 657.576 68.9849 657.903 69.0972C658.235 69.2095 658.514 69.3828 658.738 69.6172C658.968 69.8467 659.141 70.1421 659.258 70.5034C659.375 70.8647 659.434 71.2944 659.434 71.7925V77H658.072V71.7778C658.072 71.3335 658.001 70.9893 657.859 70.7451C657.723 70.4961 657.527 70.3228 657.273 70.2251C657.024 70.1226 656.727 70.0713 656.38 70.0713C656.082 70.0713 655.818 70.1226 655.589 70.2251C655.359 70.3276 655.167 70.4692 655.01 70.6499C654.854 70.8257 654.734 71.0283 654.651 71.2578C654.573 71.4873 654.534 71.7314 654.534 71.9902ZM664.773 77.1465C664.222 77.1465 663.721 77.0537 663.272 76.8682C662.828 76.6777 662.444 76.4116 662.122 76.0698C661.805 75.728 661.561 75.3228 661.39 74.854C661.219 74.3853 661.133 73.8726 661.133 73.3159V73.0083C661.133 72.3638 661.229 71.79 661.419 71.2871C661.609 70.7793 661.868 70.3496 662.195 69.998C662.522 69.6465 662.894 69.3804 663.309 69.1997C663.724 69.019 664.153 68.9287 664.598 68.9287C665.164 68.9287 665.652 69.0264 666.062 69.2217C666.478 69.417 666.817 69.6904 667.081 70.042C667.344 70.3887 667.54 70.7988 667.667 71.2725C667.793 71.7412 667.857 72.2539 667.857 72.8105V73.4185H661.939V72.3125H666.502V72.21C666.482 71.8584 666.409 71.5166 666.282 71.1846C666.16 70.8525 665.965 70.5791 665.696 70.3643C665.428 70.1494 665.062 70.042 664.598 70.042C664.29 70.042 664.007 70.1079 663.748 70.2397C663.489 70.3667 663.267 70.5571 663.082 70.811C662.896 71.0649 662.752 71.375 662.649 71.7412C662.547 72.1074 662.496 72.5298 662.496 73.0083V73.3159C662.496 73.6919 662.547 74.0459 662.649 74.3779C662.757 74.7051 662.911 74.9932 663.111 75.2422C663.316 75.4912 663.562 75.6865 663.851 75.8281C664.144 75.9697 664.476 76.0405 664.847 76.0405C665.325 76.0405 665.73 75.9429 666.062 75.7476C666.395 75.5522 666.685 75.291 666.934 74.9639L667.754 75.6157C667.583 75.8745 667.366 76.1211 667.103 76.3555C666.839 76.5898 666.514 76.7803 666.128 76.9268C665.748 77.0732 665.296 77.1465 664.773 77.1465ZM674.053 74.8979C674.053 74.7026 674.009 74.522 673.921 74.356C673.838 74.1851 673.665 74.0312 673.401 73.8945C673.143 73.7529 672.752 73.6309 672.229 73.5283C671.79 73.4355 671.392 73.3257 671.036 73.1987C670.684 73.0718 670.384 72.918 670.135 72.7373C669.891 72.5566 669.703 72.3442 669.571 72.1001C669.439 71.856 669.373 71.5703 669.373 71.2432C669.373 70.9307 669.441 70.6353 669.578 70.3569C669.72 70.0786 669.917 69.832 670.171 69.6172C670.43 69.4023 670.74 69.2339 671.102 69.1118C671.463 68.9897 671.866 68.9287 672.31 68.9287C672.945 68.9287 673.487 69.041 673.936 69.2656C674.385 69.4902 674.729 69.7905 674.969 70.1665C675.208 70.5376 675.328 70.9502 675.328 71.4043H673.973C673.973 71.1846 673.907 70.9722 673.775 70.7671C673.648 70.5571 673.46 70.3838 673.211 70.2471C672.967 70.1104 672.667 70.042 672.31 70.042C671.934 70.042 671.629 70.1006 671.395 70.2178C671.165 70.3301 670.997 70.4741 670.889 70.6499C670.787 70.8257 670.735 71.0112 670.735 71.2065C670.735 71.353 670.76 71.4849 670.809 71.6021C670.862 71.7144 670.955 71.8193 671.087 71.917C671.219 72.0098 671.404 72.0977 671.644 72.1807C671.883 72.2637 672.188 72.3467 672.559 72.4297C673.208 72.5762 673.743 72.752 674.163 72.957C674.583 73.1621 674.896 73.4136 675.101 73.7114C675.306 74.0093 675.408 74.3706 675.408 74.7954C675.408 75.1421 675.335 75.4595 675.188 75.7476C675.047 76.0356 674.839 76.2847 674.566 76.4946C674.297 76.6997 673.975 76.8608 673.599 76.978C673.228 77.0903 672.811 77.1465 672.347 77.1465C671.648 77.1465 671.058 77.022 670.574 76.7729C670.091 76.5239 669.725 76.2017 669.476 75.8062C669.227 75.4106 669.102 74.9932 669.102 74.5537H670.464C670.484 74.9248 670.591 75.2202 670.787 75.4399C670.982 75.6548 671.221 75.8086 671.504 75.9014C671.788 75.9893 672.068 76.0332 672.347 76.0332C672.718 76.0332 673.028 75.9844 673.277 75.8867C673.531 75.7891 673.724 75.6548 673.855 75.4839C673.987 75.313 674.053 75.1177 674.053 74.8979ZM681.802 74.8979C681.802 74.7026 681.758 74.522 681.67 74.356C681.587 74.1851 681.414 74.0312 681.15 73.8945C680.892 73.7529 680.501 73.6309 679.979 73.5283C679.539 73.4355 679.141 73.3257 678.785 73.1987C678.433 73.0718 678.133 72.918 677.884 72.7373C677.64 72.5566 677.452 72.3442 677.32 72.1001C677.188 71.856 677.122 71.5703 677.122 71.2432C677.122 70.9307 677.19 70.6353 677.327 70.3569C677.469 70.0786 677.667 69.832 677.92 69.6172C678.179 69.4023 678.489 69.2339 678.851 69.1118C679.212 68.9897 679.615 68.9287 680.059 68.9287C680.694 68.9287 681.236 69.041 681.685 69.2656C682.134 69.4902 682.479 69.7905 682.718 70.1665C682.957 70.5376 683.077 70.9502 683.077 71.4043H681.722C681.722 71.1846 681.656 70.9722 681.524 70.7671C681.397 70.5571 681.209 70.3838 680.96 70.2471C680.716 70.1104 680.416 70.042 680.059 70.042C679.683 70.042 679.378 70.1006 679.144 70.2178C678.914 70.3301 678.746 70.4741 678.638 70.6499C678.536 70.8257 678.484 71.0112 678.484 71.2065C678.484 71.353 678.509 71.4849 678.558 71.6021C678.611 71.7144 678.704 71.8193 678.836 71.917C678.968 72.0098 679.153 72.0977 679.393 72.1807C679.632 72.2637 679.937 72.3467 680.308 72.4297C680.958 72.5762 681.492 72.752 681.912 72.957C682.332 73.1621 682.645 73.4136 682.85 73.7114C683.055 74.0093 683.157 74.3706 683.157 74.7954C683.157 75.1421 683.084 75.4595 682.938 75.7476C682.796 76.0356 682.588 76.2847 682.315 76.4946C682.046 76.6997 681.724 76.8608 681.348 76.978C680.977 77.0903 680.56 77.1465 680.096 77.1465C679.397 77.1465 678.807 77.022 678.323 76.7729C677.84 76.5239 677.474 76.2017 677.225 75.8062C676.976 75.4106 676.851 74.9932 676.851 74.5537H678.213C678.233 74.9248 678.34 75.2202 678.536 75.4399C678.731 75.6548 678.97 75.8086 679.253 75.9014C679.537 75.9893 679.817 76.0332 680.096 76.0332C680.467 76.0332 680.777 75.9844 681.026 75.8867C681.28 75.7891 681.473 75.6548 681.604 75.4839C681.736 75.313 681.802 75.1177 681.802 74.8979ZM689.61 75.645V71.5654C689.61 71.2529 689.546 70.9819 689.419 70.7524C689.297 70.5181 689.112 70.3374 688.863 70.2104C688.614 70.0835 688.306 70.02 687.94 70.02C687.598 70.02 687.298 70.0786 687.039 70.1958C686.785 70.313 686.585 70.4668 686.438 70.6572C686.297 70.8477 686.226 71.0527 686.226 71.2725H684.871C684.871 70.9893 684.944 70.7085 685.091 70.4302C685.237 70.1519 685.447 69.9004 685.721 69.6758C685.999 69.4463 686.331 69.2656 686.717 69.1338C687.107 68.9971 687.542 68.9287 688.021 68.9287C688.597 68.9287 689.104 69.0264 689.544 69.2217C689.988 69.417 690.335 69.7124 690.584 70.1079C690.838 70.4985 690.965 70.9893 690.965 71.5801V75.2715C690.965 75.5352 690.987 75.8159 691.031 76.1138C691.08 76.4116 691.15 76.668 691.243 76.8828V77H689.83C689.761 76.8438 689.708 76.6362 689.668 76.3774C689.629 76.1138 689.61 75.8696 689.61 75.645ZM689.844 72.1953L689.859 73.1475H688.489C688.104 73.1475 687.759 73.1792 687.457 73.2427C687.154 73.3013 686.9 73.3916 686.695 73.5137C686.49 73.6357 686.333 73.7896 686.226 73.9751C686.119 74.1558 686.065 74.3682 686.065 74.6123C686.065 74.8613 686.121 75.0884 686.233 75.2935C686.346 75.4985 686.514 75.6621 686.739 75.7842C686.968 75.9014 687.249 75.96 687.581 75.96C687.996 75.96 688.362 75.8721 688.68 75.6963C688.997 75.5205 689.249 75.3057 689.434 75.0518C689.625 74.7979 689.727 74.5513 689.742 74.312L690.32 74.9639C690.286 75.1689 690.193 75.396 690.042 75.645C689.891 75.894 689.688 76.1333 689.434 76.3628C689.185 76.5874 688.887 76.7754 688.541 76.9268C688.199 77.0732 687.813 77.1465 687.383 77.1465C686.846 77.1465 686.375 77.0415 685.97 76.8315C685.569 76.6216 685.257 76.3408 685.032 75.9893C684.812 75.6328 684.703 75.2349 684.703 74.7954C684.703 74.3706 684.786 73.9971 684.952 73.6748C685.118 73.3477 685.357 73.0767 685.669 72.8618C685.982 72.6421 686.358 72.4761 686.797 72.3638C687.237 72.2515 687.728 72.1953 688.27 72.1953H689.844ZM698.23 69.0752H699.461V76.8315C699.461 77.5298 699.319 78.1255 699.036 78.6187C698.753 79.1118 698.357 79.4854 697.85 79.7393C697.347 79.998 696.766 80.1274 696.106 80.1274C695.833 80.1274 695.511 80.0835 695.14 79.9956C694.773 79.9126 694.412 79.7686 694.056 79.5635C693.704 79.3633 693.409 79.0923 693.169 78.7505L693.88 77.9448C694.212 78.3452 694.559 78.6235 694.92 78.7798C695.286 78.936 695.647 79.0142 696.004 79.0142C696.434 79.0142 696.805 78.9336 697.117 78.7725C697.43 78.6113 697.671 78.3721 697.842 78.0547C698.018 77.7422 698.106 77.3564 698.106 76.8975V70.8184L698.23 69.0752ZM692.774 73.1255V72.9717C692.774 72.3662 692.845 71.8169 692.986 71.3237C693.133 70.8257 693.34 70.3984 693.609 70.042C693.882 69.6855 694.212 69.4121 694.598 69.2217C694.983 69.0264 695.418 68.9287 695.901 68.9287C696.399 68.9287 696.834 69.0166 697.205 69.1924C697.581 69.3633 697.898 69.6147 698.157 69.9468C698.421 70.2739 698.628 70.6694 698.78 71.1333C698.931 71.5972 699.036 72.1221 699.095 72.708V73.3818C699.041 73.9629 698.936 74.4854 698.78 74.9492C698.628 75.4131 698.421 75.8086 698.157 76.1357C697.898 76.4629 697.581 76.7144 697.205 76.8901C696.829 77.061 696.39 77.1465 695.887 77.1465C695.413 77.1465 694.983 77.0464 694.598 76.8462C694.217 76.646 693.89 76.3652 693.616 76.0039C693.343 75.6426 693.133 75.2178 692.986 74.7295C692.845 74.2363 692.774 73.7017 692.774 73.1255ZM694.129 72.9717V73.1255C694.129 73.521 694.168 73.8921 694.246 74.2388C694.329 74.5854 694.454 74.8906 694.62 75.1543C694.791 75.418 695.008 75.6255 695.271 75.7769C695.535 75.9233 695.85 75.9966 696.216 75.9966C696.666 75.9966 697.037 75.9014 697.33 75.7109C697.623 75.5205 697.854 75.269 698.025 74.9565C698.201 74.644 698.338 74.3047 698.436 73.9385V72.1733C698.382 71.9048 698.299 71.646 698.187 71.397C698.079 71.1431 697.938 70.9185 697.762 70.7231C697.591 70.5229 697.378 70.3643 697.125 70.2471C696.871 70.1299 696.573 70.0713 696.231 70.0713C695.86 70.0713 695.54 70.1494 695.271 70.3057C695.008 70.457 694.791 70.667 694.62 70.9355C694.454 71.1992 694.329 71.5068 694.246 71.8584C694.168 72.2051 694.129 72.5762 694.129 72.9717ZM704.808 77.1465C704.256 77.1465 703.755 77.0537 703.306 76.8682C702.862 76.6777 702.479 76.4116 702.156 76.0698C701.839 75.728 701.595 75.3228 701.424 74.854C701.253 74.3853 701.167 73.8726 701.167 73.3159V73.0083C701.167 72.3638 701.263 71.79 701.453 71.2871C701.644 70.7793 701.902 70.3496 702.229 69.998C702.557 69.6465 702.928 69.3804 703.343 69.1997C703.758 69.019 704.188 68.9287 704.632 68.9287C705.198 68.9287 705.687 69.0264 706.097 69.2217C706.512 69.417 706.851 69.6904 707.115 70.042C707.378 70.3887 707.574 70.7988 707.701 71.2725C707.828 71.7412 707.891 72.2539 707.891 72.8105V73.4185H701.973V72.3125H706.536V72.21C706.517 71.8584 706.443 71.5166 706.316 71.1846C706.194 70.8525 705.999 70.5791 705.73 70.3643C705.462 70.1494 705.096 70.042 704.632 70.042C704.324 70.042 704.041 70.1079 703.782 70.2397C703.523 70.3667 703.301 70.5571 703.116 70.811C702.93 71.0649 702.786 71.375 702.684 71.7412C702.581 72.1074 702.53 72.5298 702.53 73.0083V73.3159C702.53 73.6919 702.581 74.0459 702.684 74.3779C702.791 74.7051 702.945 74.9932 703.145 75.2422C703.35 75.4912 703.597 75.6865 703.885 75.8281C704.178 75.9697 704.51 76.0405 704.881 76.0405C705.359 76.0405 705.765 75.9429 706.097 75.7476C706.429 75.5522 706.719 75.291 706.968 74.9639L707.789 75.6157C707.618 75.8745 707.4 76.1211 707.137 76.3555C706.873 76.5898 706.548 76.7803 706.163 76.9268C705.782 77.0732 705.33 77.1465 704.808 77.1465ZM709.495 76.2822C709.495 76.0527 709.566 75.8599 709.708 75.7036C709.854 75.5425 710.064 75.4619 710.337 75.4619C710.611 75.4619 710.818 75.5425 710.96 75.7036C711.106 75.8599 711.18 76.0527 711.18 76.2822C711.18 76.5068 711.106 76.6973 710.96 76.8535C710.818 77.0098 710.611 77.0879 710.337 77.0879C710.064 77.0879 709.854 77.0098 709.708 76.8535C709.566 76.6973 709.495 76.5068 709.495 76.2822Z" fill="#505050"/>
</g>
</g>
<path d="M139.646 71.6464C139.451 71.8417 139.451 72.1583 139.646 72.3536L142.828 75.5355C143.024 75.7308 143.34 75.7308 143.536 75.5355C143.731 75.3403 143.731 75.0237 143.536 74.8284L140.707 72L143.536 69.1716C143.731 68.9763 143.731 68.6597 143.536 68.4645C143.34 68.2692 143.024 68.2692 142.828 68.4645L139.646 71.6464ZM140 72.5L510 72.5L510 71.5L140 71.5L140 72.5Z" fill="#0059FF"/>
<line x1="509.5" y1="32" x2="509.5" y2="104" stroke="#0059FF" stroke-dasharray="4 4"/>
<line x1="870.5" y1="32" x2="870.5" y2="104" stroke="#0059FF" stroke-dasharray="4 4"/>
<path d="M1240.35 72.3535C1240.55 72.1583 1240.55 71.8417 1240.35 71.6464L1237.17 68.4644C1236.98 68.2692 1236.66 68.2692 1236.46 68.4644C1236.27 68.6597 1236.27 68.9763 1236.46 69.1715L1239.29 72L1236.46 74.8284C1236.27 75.0237 1236.27 75.3402 1236.46 75.5355C1236.66 75.7308 1236.98 75.7308 1237.17 75.5355L1240.35 72.3535ZM870 72.5L1240 72.5L1240 71.5L870 71.5L870 72.5Z" fill="#0059FF"/>
<path d="M480.699 35.4512V44H479.012V37.3965L476.984 38.041V36.7109L480.518 35.4512H480.699ZM487.83 35.3809H488.076V36.7285H487.977C487.531 36.7285 487.135 36.7949 486.787 36.9277C486.439 37.0605 486.145 37.25 485.902 37.4961C485.664 37.7383 485.48 38.0312 485.352 38.375C485.227 38.7188 485.164 39.1035 485.164 39.5293V40.9473C485.164 41.252 485.193 41.5215 485.252 41.7559C485.314 41.9863 485.402 42.1797 485.516 42.3359C485.633 42.4883 485.77 42.6035 485.926 42.6816C486.082 42.7559 486.258 42.793 486.453 42.793C486.637 42.793 486.803 42.7539 486.951 42.6758C487.104 42.5977 487.232 42.4883 487.338 42.3477C487.447 42.2031 487.529 42.0352 487.584 41.8438C487.643 41.6484 487.672 41.4355 487.672 41.2051C487.672 40.9746 487.643 40.7617 487.584 40.5664C487.529 40.3711 487.447 40.2031 487.338 40.0625C487.229 39.918 487.096 39.8066 486.939 39.7285C486.783 39.6504 486.607 39.6113 486.412 39.6113C486.146 39.6113 485.912 39.6738 485.709 39.7988C485.51 39.9199 485.354 40.0762 485.24 40.2676C485.127 40.459 485.066 40.6602 485.059 40.8711L484.549 40.543C484.561 40.2422 484.623 39.957 484.736 39.6875C484.854 39.418 485.014 39.1797 485.217 38.9727C485.424 38.7617 485.672 38.5977 485.961 38.4805C486.25 38.3594 486.576 38.2988 486.939 38.2988C487.338 38.2988 487.688 38.375 487.988 38.5273C488.293 38.6797 488.547 38.8887 488.75 39.1543C488.953 39.4199 489.105 39.7266 489.207 40.0742C489.309 40.4219 489.359 40.793 489.359 41.1875C489.359 41.6016 489.291 41.9863 489.154 42.3418C489.021 42.6973 488.828 43.0078 488.574 43.2734C488.324 43.5391 488.023 43.7461 487.672 43.8945C487.32 44.043 486.926 44.1172 486.488 44.1172C486.035 44.1172 485.623 44.0352 485.252 43.8711C484.885 43.7031 484.568 43.4688 484.303 43.168C484.037 42.8672 483.832 42.5098 483.688 42.0957C483.547 41.6816 483.477 41.2285 483.477 40.7363V40.0801C483.477 39.3926 483.576 38.7637 483.775 38.1934C483.979 37.6191 484.27 37.123 484.648 36.7051C485.027 36.2832 485.484 35.957 486.02 35.7266C486.555 35.4961 487.158 35.3809 487.83 35.3809Z" fill="#F45C59"/>
<rect x="494" y="32" width="393" height="1" fill="#F45C59"/>
<g opacity="0.9">
<rect width="393" height="14" transform="translate(494 33)" fill="#F45C59" fill-opacity="0.2"/>
</g>
<rect x="494" y="47" width="393" height="1" fill="#F45C59"/>
</g>
<defs>
<filter id="filter0_ddd_11639_5027" x="490" y="32" width="400" height="92" filterUnits="userSpaceOnUse" color-interpolation-filters="sRGB">
<feFlood flood-opacity="0" result="BackgroundImageFix"/>
<feColorMatrix in="SourceAlpha" type="matrix" values="0 0 0 0 0 0 0 0 0 0 0 0 0 0 0 0 0 0 127 0" result="hardAlpha"/>
<feOffset dy="4"/>
<feGaussianBlur stdDeviation="4"/>
<feColorMatrix type="matrix" values="0 0 0 0 0.45098 0 0 0 0 0.45098 0 0 0 0 0.45098 0 0 0 0.05 0"/>
<feBlend mode="normal" in2="BackgroundImageFix" result="effect1_dropShadow_11639_5027"/>
<feColorMatrix in="SourceAlpha" type="matrix" values="0 0 0 0 0 0 0 0 0 0 0 0 0 0 0 0 0 0 127 0" result="hardAlpha"/>
<feOffset dy="4"/>
<feGaussianBlur stdDeviation="10"/>
<feColorMatrix type="matrix" values="0 0 0 0 0.45098 0 0 0 0 0.45098 0 0 0 0 0.45098 0 0 0 0.1 0"/>
<feBlend mode="normal" in2="effect1_dropShadow_11639_5027" result="effect2_dropShadow_11639_5027"/>
<feColorMatrix in="SourceAlpha" type="matrix" values="0 0 0 0 0 0 0 0 0 0 0 0 0 0 0 0 0 0 127 0" result="hardAlpha"/>
<feOffset dy="12"/>
<feGaussianBlur stdDeviation="8"/>
<feColorMatrix type="matrix" values="0 0 0 0 0.45098 0 0 0 0 0.45098 0 0 0 0 0.45098 0 0 0 0.08 0"/>
<feBlend mode="normal" in2="effect2_dropShadow_11639_5027" result="effect3_dropShadow_11639_5027"/>
<feBlend mode="normal" in="SourceGraphic" in2="effect3_dropShadow_11639_5027" result="shape"/>
</filter>
<clipPath id="clip0_11639_5027">
<rect width="1240" height="456" rx="16" fill="white"/>
</clipPath>
<clipPath id="clip1_11639_5027">
<rect x="510" y="48" width="360" height="48" rx="8" fill="white"/>
</clipPath>
</defs>
</svg>
