<svg width="800" height="210" viewBox="0 0 800 210" fill="none" xmlns="http://www.w3.org/2000/svg">
<rect width="800" height="210" rx="4" fill="#F8F8F8"/>
<g filter="url(#filter0_ddd_1962_36381)">
<g clip-path="url(#clip0_1962_36381)">
<rect x="220" y="90" width="360" height="80" rx="8" fill="white"/>
<rect x="220" y="90" width="4" height="80" fill="#286EF1"/>
<path d="M252 104C246.477 104 242 108.477 242 114C242 119.523 246.477 124 252 124C257.523 124 262 119.523 262 114C262 108.477 257.523 104 252 104ZM252 109C252.69 109 253.25 109.56 253.25 110.25C253.25 110.94 252.69 111.5 252 111.5C251.31 111.5 250.75 110.941 250.75 110.25C250.75 109.559 251.309 109 252 109ZM253.562 119H250.438C249.922 119 249.5 118.582 249.5 118.062C249.5 117.543 249.92 117.125 250.438 117.125H251.062V114.625H250.75C250.232 114.625 249.812 114.205 249.812 113.688C249.812 113.17 250.234 112.75 250.75 112.75H252C252.518 112.75 252.938 113.17 252.938 113.688V117.125H253.562C254.08 117.125 254.5 117.545 254.5 118.062C254.5 118.58 254.082 119 253.562 119Z" fill="#286EF1"/>
<path d="M277.836 107.625V119H275.891V107.625H277.836ZM281.406 107.625V109.188H272.352V107.625H281.406ZM281.266 114.867V114.688C281.266 114.078 281.354 113.513 281.531 112.992C281.708 112.466 281.964 112.01 282.297 111.625C282.635 111.234 283.047 110.932 283.531 110.719C284.021 110.5 284.573 110.391 285.188 110.391C285.807 110.391 286.359 110.5 286.844 110.719C287.333 110.932 287.747 111.234 288.086 111.625C288.424 112.01 288.682 112.466 288.859 112.992C289.036 113.513 289.125 114.078 289.125 114.688V114.867C289.125 115.477 289.036 116.042 288.859 116.562C288.682 117.083 288.424 117.539 288.086 117.93C287.747 118.315 287.336 118.617 286.852 118.836C286.367 119.049 285.818 119.156 285.203 119.156C284.583 119.156 284.029 119.049 283.539 118.836C283.055 118.617 282.643 118.315 282.305 117.93C281.966 117.539 281.708 117.083 281.531 116.562C281.354 116.042 281.266 115.477 281.266 114.867ZM283.148 114.688V114.867C283.148 115.247 283.188 115.607 283.266 115.945C283.344 116.284 283.466 116.581 283.633 116.836C283.799 117.091 284.013 117.292 284.273 117.438C284.534 117.583 284.844 117.656 285.203 117.656C285.552 117.656 285.854 117.583 286.109 117.438C286.37 117.292 286.583 117.091 286.75 116.836C286.917 116.581 287.039 116.284 287.117 115.945C287.201 115.607 287.242 115.247 287.242 114.867V114.688C287.242 114.312 287.201 113.958 287.117 113.625C287.039 113.286 286.914 112.987 286.742 112.727C286.576 112.466 286.362 112.263 286.102 112.117C285.846 111.966 285.542 111.891 285.188 111.891C284.833 111.891 284.526 111.966 284.266 112.117C284.01 112.263 283.799 112.466 283.633 112.727C283.466 112.987 283.344 113.286 283.266 113.625C283.188 113.958 283.148 114.312 283.148 114.688ZM295.469 117.305V113.273C295.469 112.971 295.414 112.711 295.305 112.492C295.195 112.273 295.029 112.104 294.805 111.984C294.586 111.865 294.31 111.805 293.977 111.805C293.669 111.805 293.404 111.857 293.18 111.961C292.956 112.065 292.781 112.206 292.656 112.383C292.531 112.56 292.469 112.76 292.469 112.984H290.594C290.594 112.651 290.674 112.328 290.836 112.016C290.997 111.703 291.232 111.424 291.539 111.18C291.846 110.935 292.214 110.742 292.641 110.602C293.068 110.461 293.547 110.391 294.078 110.391C294.714 110.391 295.276 110.497 295.766 110.711C296.26 110.924 296.648 111.247 296.93 111.68C297.216 112.107 297.359 112.643 297.359 113.289V117.047C297.359 117.432 297.385 117.779 297.438 118.086C297.495 118.388 297.576 118.651 297.68 118.875V119H295.75C295.661 118.797 295.591 118.539 295.539 118.227C295.492 117.909 295.469 117.602 295.469 117.305ZM295.742 113.859L295.758 115.023H294.406C294.057 115.023 293.75 115.057 293.484 115.125C293.219 115.188 292.997 115.281 292.82 115.406C292.643 115.531 292.51 115.682 292.422 115.859C292.333 116.036 292.289 116.237 292.289 116.461C292.289 116.685 292.341 116.891 292.445 117.078C292.549 117.26 292.701 117.404 292.898 117.508C293.102 117.612 293.346 117.664 293.633 117.664C294.018 117.664 294.354 117.586 294.641 117.43C294.932 117.268 295.161 117.073 295.328 116.844C295.495 116.609 295.583 116.388 295.594 116.18L296.203 117.016C296.141 117.229 296.034 117.458 295.883 117.703C295.732 117.948 295.534 118.182 295.289 118.406C295.049 118.625 294.76 118.805 294.422 118.945C294.089 119.086 293.703 119.156 293.266 119.156C292.714 119.156 292.221 119.047 291.789 118.828C291.357 118.604 291.018 118.305 290.773 117.93C290.529 117.549 290.406 117.12 290.406 116.641C290.406 116.193 290.49 115.797 290.656 115.453C290.828 115.104 291.078 114.812 291.406 114.578C291.74 114.344 292.146 114.167 292.625 114.047C293.104 113.922 293.651 113.859 294.266 113.859H295.742ZM304.07 116.711C304.07 116.523 304.023 116.354 303.93 116.203C303.836 116.047 303.656 115.906 303.391 115.781C303.13 115.656 302.745 115.542 302.234 115.438C301.786 115.339 301.375 115.221 301 115.086C300.63 114.945 300.312 114.776 300.047 114.578C299.781 114.38 299.576 114.146 299.43 113.875C299.284 113.604 299.211 113.292 299.211 112.938C299.211 112.594 299.286 112.268 299.438 111.961C299.589 111.654 299.805 111.383 300.086 111.148C300.367 110.914 300.708 110.729 301.109 110.594C301.516 110.458 301.969 110.391 302.469 110.391C303.177 110.391 303.784 110.51 304.289 110.75C304.799 110.984 305.19 111.305 305.461 111.711C305.732 112.112 305.867 112.565 305.867 113.07H303.984C303.984 112.846 303.927 112.638 303.812 112.445C303.703 112.247 303.536 112.089 303.312 111.969C303.089 111.844 302.807 111.781 302.469 111.781C302.146 111.781 301.878 111.833 301.664 111.938C301.456 112.036 301.299 112.167 301.195 112.328C301.096 112.49 301.047 112.667 301.047 112.859C301.047 113 301.073 113.128 301.125 113.242C301.182 113.352 301.276 113.453 301.406 113.547C301.536 113.635 301.714 113.719 301.938 113.797C302.167 113.875 302.453 113.951 302.797 114.023C303.443 114.159 303.997 114.333 304.461 114.547C304.93 114.755 305.289 115.026 305.539 115.359C305.789 115.688 305.914 116.104 305.914 116.609C305.914 116.984 305.833 117.328 305.672 117.641C305.516 117.948 305.286 118.216 304.984 118.445C304.682 118.669 304.32 118.844 303.898 118.969C303.482 119.094 303.013 119.156 302.492 119.156C301.727 119.156 301.078 119.021 300.547 118.75C300.016 118.474 299.612 118.122 299.336 117.695C299.065 117.263 298.93 116.815 298.93 116.352H300.75C300.771 116.701 300.867 116.979 301.039 117.188C301.216 117.391 301.435 117.539 301.695 117.633C301.961 117.721 302.234 117.766 302.516 117.766C302.854 117.766 303.138 117.721 303.367 117.633C303.596 117.539 303.771 117.414 303.891 117.258C304.01 117.096 304.07 116.914 304.07 116.711ZM311.438 110.547V111.922H306.672V110.547H311.438ZM308.047 108.477H309.93V116.664C309.93 116.924 309.966 117.125 310.039 117.266C310.117 117.401 310.224 117.492 310.359 117.539C310.495 117.586 310.654 117.609 310.836 117.609C310.966 117.609 311.091 117.602 311.211 117.586C311.331 117.57 311.427 117.555 311.5 117.539L311.508 118.977C311.352 119.023 311.169 119.065 310.961 119.102C310.758 119.138 310.523 119.156 310.258 119.156C309.826 119.156 309.443 119.081 309.109 118.93C308.776 118.773 308.516 118.521 308.328 118.172C308.141 117.823 308.047 117.359 308.047 116.781V108.477ZM320.75 110.547V111.922H315.984V110.547H320.75ZM317.359 108.477H319.242V116.664C319.242 116.924 319.279 117.125 319.352 117.266C319.43 117.401 319.536 117.492 319.672 117.539C319.807 117.586 319.966 117.609 320.148 117.609C320.279 117.609 320.404 117.602 320.523 117.586C320.643 117.57 320.74 117.555 320.812 117.539L320.82 118.977C320.664 119.023 320.482 119.065 320.273 119.102C320.07 119.138 319.836 119.156 319.57 119.156C319.138 119.156 318.755 119.081 318.422 118.93C318.089 118.773 317.828 118.521 317.641 118.172C317.453 117.823 317.359 117.359 317.359 116.781V108.477ZM324.219 110.547V119H322.328V110.547H324.219ZM322.203 108.328C322.203 108.042 322.297 107.805 322.484 107.617C322.677 107.424 322.943 107.328 323.281 107.328C323.615 107.328 323.878 107.424 324.07 107.617C324.263 107.805 324.359 108.042 324.359 108.328C324.359 108.609 324.263 108.844 324.07 109.031C323.878 109.219 323.615 109.312 323.281 109.312C322.943 109.312 322.677 109.219 322.484 109.031C322.297 108.844 322.203 108.609 322.203 108.328ZM330.156 110.547V111.922H325.391V110.547H330.156ZM326.766 108.477H328.648V116.664C328.648 116.924 328.685 117.125 328.758 117.266C328.836 117.401 328.943 117.492 329.078 117.539C329.214 117.586 329.372 117.609 329.555 117.609C329.685 117.609 329.81 117.602 329.93 117.586C330.049 117.57 330.146 117.555 330.219 117.539L330.227 118.977C330.07 119.023 329.888 119.065 329.68 119.102C329.477 119.138 329.242 119.156 328.977 119.156C328.544 119.156 328.161 119.081 327.828 118.93C327.495 118.773 327.234 118.521 327.047 118.172C326.859 117.823 326.766 117.359 326.766 116.781V108.477ZM333.625 107V119H331.734V107H333.625ZM339.414 119.156C338.789 119.156 338.224 119.055 337.719 118.852C337.219 118.643 336.792 118.354 336.438 117.984C336.089 117.615 335.82 117.18 335.633 116.68C335.445 116.18 335.352 115.641 335.352 115.062V114.75C335.352 114.089 335.448 113.49 335.641 112.953C335.833 112.417 336.102 111.958 336.445 111.578C336.789 111.193 337.195 110.898 337.664 110.695C338.133 110.492 338.641 110.391 339.188 110.391C339.792 110.391 340.32 110.492 340.773 110.695C341.227 110.898 341.602 111.185 341.898 111.555C342.201 111.919 342.424 112.354 342.57 112.859C342.721 113.365 342.797 113.922 342.797 114.531V115.336H336.266V113.984H340.938V113.836C340.927 113.497 340.859 113.18 340.734 112.883C340.615 112.586 340.43 112.346 340.18 112.164C339.93 111.982 339.596 111.891 339.18 111.891C338.867 111.891 338.589 111.958 338.344 112.094C338.104 112.224 337.904 112.414 337.742 112.664C337.581 112.914 337.456 113.216 337.367 113.57C337.284 113.919 337.242 114.312 337.242 114.75V115.062C337.242 115.432 337.292 115.776 337.391 116.094C337.495 116.406 337.646 116.68 337.844 116.914C338.042 117.148 338.281 117.333 338.562 117.469C338.844 117.599 339.164 117.664 339.523 117.664C339.977 117.664 340.38 117.573 340.734 117.391C341.089 117.208 341.396 116.951 341.656 116.617L342.648 117.578C342.466 117.844 342.229 118.099 341.938 118.344C341.646 118.583 341.289 118.779 340.867 118.93C340.451 119.081 339.966 119.156 339.414 119.156Z" fill="#1A1A1A"/>
<path d="M277.178 136.336V147H275.787V136.336H277.178ZM280.606 136.336V137.493H272.366V136.336H280.606ZM283.338 135.75V147H281.983V135.75H283.338ZM283.016 142.737L282.452 142.715C282.457 142.173 282.537 141.673 282.693 141.214C282.85 140.75 283.069 140.347 283.353 140.005C283.636 139.664 283.973 139.4 284.363 139.214C284.759 139.024 285.196 138.929 285.674 138.929C286.065 138.929 286.417 138.982 286.729 139.09C287.042 139.192 287.308 139.358 287.527 139.588C287.752 139.817 287.923 140.115 288.04 140.481C288.157 140.843 288.216 141.285 288.216 141.807V147H286.854V141.792C286.854 141.377 286.792 141.045 286.67 140.796C286.548 140.542 286.37 140.359 286.136 140.247C285.901 140.13 285.613 140.071 285.271 140.071C284.935 140.071 284.627 140.142 284.349 140.284C284.075 140.425 283.838 140.621 283.638 140.87C283.443 141.119 283.289 141.404 283.177 141.727C283.069 142.044 283.016 142.381 283.016 142.737ZM291.717 139.075V147H290.354V139.075H291.717ZM290.252 136.973C290.252 136.753 290.318 136.568 290.45 136.417C290.586 136.265 290.787 136.189 291.05 136.189C291.309 136.189 291.507 136.265 291.644 136.417C291.785 136.568 291.856 136.753 291.856 136.973C291.856 137.183 291.785 137.364 291.644 137.515C291.507 137.662 291.309 137.735 291.05 137.735C290.787 137.735 290.586 137.662 290.45 137.515C290.318 137.364 290.252 137.183 290.252 136.973ZM298.506 144.898C298.506 144.703 298.462 144.522 298.375 144.356C298.292 144.185 298.118 144.031 297.854 143.895C297.596 143.753 297.205 143.631 296.683 143.528C296.243 143.436 295.845 143.326 295.489 143.199C295.137 143.072 294.837 142.918 294.588 142.737C294.344 142.557 294.156 142.344 294.024 142.1C293.892 141.856 293.826 141.57 293.826 141.243C293.826 140.931 293.895 140.635 294.031 140.357C294.173 140.079 294.371 139.832 294.625 139.617C294.883 139.402 295.193 139.234 295.555 139.112C295.916 138.99 296.319 138.929 296.763 138.929C297.398 138.929 297.94 139.041 298.389 139.266C298.838 139.49 299.183 139.791 299.422 140.167C299.661 140.538 299.781 140.95 299.781 141.404H298.426C298.426 141.185 298.36 140.972 298.228 140.767C298.101 140.557 297.913 140.384 297.664 140.247C297.42 140.11 297.12 140.042 296.763 140.042C296.387 140.042 296.082 140.101 295.848 140.218C295.618 140.33 295.45 140.474 295.342 140.65C295.24 140.826 295.188 141.011 295.188 141.207C295.188 141.353 295.213 141.485 295.262 141.602C295.315 141.714 295.408 141.819 295.54 141.917C295.672 142.01 295.857 142.098 296.097 142.181C296.336 142.264 296.641 142.347 297.012 142.43C297.662 142.576 298.196 142.752 298.616 142.957C299.036 143.162 299.349 143.414 299.554 143.711C299.759 144.009 299.861 144.371 299.861 144.795C299.861 145.142 299.788 145.459 299.642 145.748C299.5 146.036 299.292 146.285 299.019 146.495C298.75 146.7 298.428 146.861 298.052 146.978C297.681 147.09 297.264 147.146 296.8 147.146C296.102 147.146 295.511 147.022 295.027 146.773C294.544 146.524 294.178 146.202 293.929 145.806C293.68 145.411 293.555 144.993 293.555 144.554H294.917C294.937 144.925 295.044 145.22 295.24 145.44C295.435 145.655 295.674 145.809 295.958 145.901C296.241 145.989 296.521 146.033 296.8 146.033C297.171 146.033 297.481 145.984 297.73 145.887C297.984 145.789 298.177 145.655 298.309 145.484C298.44 145.313 298.506 145.118 298.506 144.898ZM306.834 139.075V147H305.472V139.075H306.834ZM305.369 136.973C305.369 136.753 305.435 136.568 305.567 136.417C305.704 136.265 305.904 136.189 306.167 136.189C306.426 136.189 306.624 136.265 306.761 136.417C306.902 136.568 306.973 136.753 306.973 136.973C306.973 137.183 306.902 137.364 306.761 137.515C306.624 137.662 306.426 137.735 306.167 137.735C305.904 137.735 305.704 137.662 305.567 137.515C305.435 137.364 305.369 137.183 305.369 136.973ZM313.624 144.898C313.624 144.703 313.58 144.522 313.492 144.356C313.409 144.185 313.235 144.031 312.972 143.895C312.713 143.753 312.322 143.631 311.8 143.528C311.36 143.436 310.962 143.326 310.606 143.199C310.254 143.072 309.954 142.918 309.705 142.737C309.461 142.557 309.273 142.344 309.141 142.1C309.009 141.856 308.943 141.57 308.943 141.243C308.943 140.931 309.012 140.635 309.148 140.357C309.29 140.079 309.488 139.832 309.742 139.617C310 139.402 310.311 139.234 310.672 139.112C311.033 138.99 311.436 138.929 311.88 138.929C312.515 138.929 313.057 139.041 313.506 139.266C313.956 139.49 314.3 139.791 314.539 140.167C314.778 140.538 314.898 140.95 314.898 141.404H313.543C313.543 141.185 313.477 140.972 313.345 140.767C313.218 140.557 313.03 140.384 312.781 140.247C312.537 140.11 312.237 140.042 311.88 140.042C311.504 140.042 311.199 140.101 310.965 140.218C310.735 140.33 310.567 140.474 310.459 140.65C310.357 140.826 310.306 141.011 310.306 141.207C310.306 141.353 310.33 141.485 310.379 141.602C310.433 141.714 310.525 141.819 310.657 141.917C310.789 142.01 310.975 142.098 311.214 142.181C311.453 142.264 311.758 142.347 312.129 142.43C312.779 142.576 313.313 142.752 313.733 142.957C314.153 143.162 314.466 143.414 314.671 143.711C314.876 144.009 314.979 144.371 314.979 144.795C314.979 145.142 314.905 145.459 314.759 145.748C314.617 146.036 314.41 146.285 314.136 146.495C313.868 146.7 313.545 146.861 313.169 146.978C312.798 147.09 312.381 147.146 311.917 147.146C311.219 147.146 310.628 147.022 310.145 146.773C309.661 146.524 309.295 146.202 309.046 145.806C308.797 145.411 308.672 144.993 308.672 144.554H310.035C310.054 144.925 310.162 145.22 310.357 145.44C310.552 145.655 310.792 145.809 311.075 145.901C311.358 145.989 311.639 146.033 311.917 146.033C312.288 146.033 312.598 145.984 312.847 145.887C313.101 145.789 313.294 145.655 313.426 145.484C313.558 145.313 313.624 145.118 313.624 144.898ZM323.797 139.075V140.115H319.512V139.075H323.797ZM320.962 137.149H322.317V145.037C322.317 145.306 322.359 145.508 322.442 145.645C322.525 145.782 322.632 145.872 322.764 145.916C322.896 145.96 323.038 145.982 323.189 145.982C323.301 145.982 323.418 145.972 323.541 145.953C323.667 145.928 323.763 145.909 323.826 145.894L323.833 147C323.726 147.034 323.584 147.066 323.409 147.095C323.238 147.129 323.03 147.146 322.786 147.146C322.454 147.146 322.149 147.081 321.871 146.949C321.592 146.817 321.37 146.597 321.204 146.29C321.043 145.977 320.962 145.557 320.962 145.03V137.149ZM324.881 143.125V142.957C324.881 142.386 324.964 141.856 325.13 141.368C325.296 140.875 325.535 140.447 325.848 140.086C326.16 139.72 326.539 139.437 326.983 139.236C327.427 139.031 327.925 138.929 328.477 138.929C329.034 138.929 329.534 139.031 329.979 139.236C330.428 139.437 330.809 139.72 331.121 140.086C331.438 140.447 331.68 140.875 331.846 141.368C332.012 141.856 332.095 142.386 332.095 142.957V143.125C332.095 143.697 332.012 144.227 331.846 144.715C331.68 145.203 331.438 145.63 331.121 145.997C330.809 146.358 330.43 146.641 329.986 146.846C329.546 147.046 329.048 147.146 328.492 147.146C327.935 147.146 327.435 147.046 326.99 146.846C326.546 146.641 326.165 146.358 325.848 145.997C325.535 145.63 325.296 145.203 325.13 144.715C324.964 144.227 324.881 143.697 324.881 143.125ZM326.236 142.957V143.125C326.236 143.521 326.282 143.895 326.375 144.246C326.468 144.593 326.607 144.9 326.792 145.169C326.983 145.438 327.22 145.65 327.503 145.806C327.786 145.958 328.116 146.033 328.492 146.033C328.863 146.033 329.188 145.958 329.466 145.806C329.749 145.65 329.983 145.438 330.169 145.169C330.354 144.9 330.494 144.593 330.586 144.246C330.684 143.895 330.733 143.521 330.733 143.125V142.957C330.733 142.566 330.684 142.198 330.586 141.851C330.494 141.5 330.352 141.189 330.162 140.921C329.976 140.647 329.742 140.433 329.458 140.276C329.18 140.12 328.853 140.042 328.477 140.042C328.106 140.042 327.779 140.12 327.496 140.276C327.217 140.433 326.983 140.647 326.792 140.921C326.607 141.189 326.468 141.5 326.375 141.851C326.282 142.198 326.236 142.566 326.236 142.957ZM338.467 145.645V141.565C338.467 141.253 338.404 140.982 338.277 140.752C338.155 140.518 337.969 140.337 337.72 140.21C337.471 140.083 337.164 140.02 336.797 140.02C336.456 140.02 336.155 140.079 335.896 140.196C335.643 140.313 335.442 140.467 335.296 140.657C335.154 140.848 335.083 141.053 335.083 141.272H333.729C333.729 140.989 333.802 140.708 333.948 140.43C334.095 140.152 334.305 139.9 334.578 139.676C334.856 139.446 335.188 139.266 335.574 139.134C335.965 138.997 336.399 138.929 336.878 138.929C337.454 138.929 337.962 139.026 338.401 139.222C338.846 139.417 339.192 139.712 339.441 140.108C339.695 140.499 339.822 140.989 339.822 141.58V145.271C339.822 145.535 339.844 145.816 339.888 146.114C339.937 146.412 340.008 146.668 340.101 146.883V147H338.687C338.619 146.844 338.565 146.636 338.526 146.377C338.487 146.114 338.467 145.87 338.467 145.645ZM338.702 142.195L338.716 143.147H337.347C336.961 143.147 336.617 143.179 336.314 143.243C336.011 143.301 335.757 143.392 335.552 143.514C335.347 143.636 335.191 143.79 335.083 143.975C334.976 144.156 334.922 144.368 334.922 144.612C334.922 144.861 334.979 145.088 335.091 145.293C335.203 145.499 335.372 145.662 335.596 145.784C335.826 145.901 336.106 145.96 336.438 145.96C336.854 145.96 337.22 145.872 337.537 145.696C337.854 145.521 338.106 145.306 338.292 145.052C338.482 144.798 338.584 144.551 338.599 144.312L339.178 144.964C339.144 145.169 339.051 145.396 338.899 145.645C338.748 145.894 338.545 146.133 338.292 146.363C338.042 146.587 337.745 146.775 337.398 146.927C337.056 147.073 336.67 147.146 336.241 147.146C335.704 147.146 335.232 147.042 334.827 146.832C334.427 146.622 334.114 146.341 333.89 145.989C333.67 145.633 333.56 145.235 333.56 144.795C333.56 144.371 333.643 143.997 333.809 143.675C333.975 143.348 334.214 143.077 334.527 142.862C334.839 142.642 335.215 142.476 335.655 142.364C336.094 142.251 336.585 142.195 337.127 142.195H338.702ZM346.568 144.898C346.568 144.703 346.524 144.522 346.436 144.356C346.353 144.185 346.18 144.031 345.916 143.895C345.657 143.753 345.267 143.631 344.744 143.528C344.305 143.436 343.907 143.326 343.55 143.199C343.199 143.072 342.898 142.918 342.649 142.737C342.405 142.557 342.217 142.344 342.085 142.1C341.954 141.856 341.888 141.57 341.888 141.243C341.888 140.931 341.956 140.635 342.093 140.357C342.234 140.079 342.432 139.832 342.686 139.617C342.945 139.402 343.255 139.234 343.616 139.112C343.978 138.99 344.38 138.929 344.825 138.929C345.459 138.929 346.001 139.041 346.451 139.266C346.9 139.49 347.244 139.791 347.483 140.167C347.723 140.538 347.842 140.95 347.842 141.404H346.487C346.487 141.185 346.421 140.972 346.29 140.767C346.163 140.557 345.975 140.384 345.726 140.247C345.481 140.11 345.181 140.042 344.825 140.042C344.449 140.042 344.144 140.101 343.909 140.218C343.68 140.33 343.511 140.474 343.404 140.65C343.301 140.826 343.25 141.011 343.25 141.207C343.25 141.353 343.274 141.485 343.323 141.602C343.377 141.714 343.47 141.819 343.602 141.917C343.733 142.01 343.919 142.098 344.158 142.181C344.397 142.264 344.703 142.347 345.074 142.43C345.723 142.576 346.258 142.752 346.678 142.957C347.098 143.162 347.41 143.414 347.615 143.711C347.82 144.009 347.923 144.371 347.923 144.795C347.923 145.142 347.85 145.459 347.703 145.748C347.562 146.036 347.354 146.285 347.081 146.495C346.812 146.7 346.49 146.861 346.114 146.978C345.743 147.09 345.325 147.146 344.861 147.146C344.163 147.146 343.572 147.022 343.089 146.773C342.605 146.524 342.239 146.202 341.99 145.806C341.741 145.411 341.617 144.993 341.617 144.554H342.979C342.999 144.925 343.106 145.22 343.301 145.44C343.497 145.655 343.736 145.809 344.019 145.901C344.302 145.989 344.583 146.033 344.861 146.033C345.232 146.033 345.542 145.984 345.792 145.887C346.045 145.789 346.238 145.655 346.37 145.484C346.502 145.313 346.568 145.118 346.568 144.898ZM353.021 139.075V140.115H348.736V139.075H353.021ZM350.186 137.149H351.541V145.037C351.541 145.306 351.583 145.508 351.666 145.645C351.749 145.782 351.856 145.872 351.988 145.916C352.12 145.96 352.261 145.982 352.413 145.982C352.525 145.982 352.642 145.972 352.764 145.953C352.891 145.928 352.986 145.909 353.05 145.894L353.057 147C352.95 147.034 352.808 147.066 352.632 147.095C352.461 147.129 352.254 147.146 352.01 147.146C351.678 147.146 351.373 147.081 351.094 146.949C350.816 146.817 350.594 146.597 350.428 146.29C350.267 145.977 350.186 145.557 350.186 145.03V137.149ZM359.678 140.65V147H358.316V139.075H359.605L359.678 140.65ZM359.4 142.737L358.77 142.715C358.775 142.173 358.846 141.673 358.982 141.214C359.119 140.75 359.322 140.347 359.59 140.005C359.859 139.664 360.193 139.4 360.594 139.214C360.994 139.024 361.458 138.929 361.985 138.929C362.356 138.929 362.698 138.982 363.011 139.09C363.323 139.192 363.594 139.356 363.824 139.581C364.053 139.805 364.231 140.093 364.358 140.445C364.485 140.796 364.549 141.221 364.549 141.719V147H363.194V141.785C363.194 141.37 363.123 141.038 362.981 140.789C362.845 140.54 362.649 140.359 362.396 140.247C362.142 140.13 361.844 140.071 361.502 140.071C361.102 140.071 360.767 140.142 360.499 140.284C360.23 140.425 360.015 140.621 359.854 140.87C359.693 141.119 359.576 141.404 359.502 141.727C359.434 142.044 359.4 142.381 359.4 142.737ZM364.534 141.99L363.626 142.269C363.631 141.834 363.702 141.417 363.838 141.016C363.98 140.616 364.183 140.259 364.446 139.947C364.715 139.634 365.044 139.388 365.435 139.207C365.826 139.021 366.272 138.929 366.775 138.929C367.2 138.929 367.576 138.985 367.903 139.097C368.235 139.209 368.514 139.383 368.738 139.617C368.968 139.847 369.141 140.142 369.258 140.503C369.375 140.865 369.434 141.294 369.434 141.792V147H368.072V141.778C368.072 141.333 368.001 140.989 367.859 140.745C367.723 140.496 367.527 140.323 367.273 140.225C367.024 140.123 366.727 140.071 366.38 140.071C366.082 140.071 365.818 140.123 365.589 140.225C365.359 140.328 365.167 140.469 365.01 140.65C364.854 140.826 364.734 141.028 364.651 141.258C364.573 141.487 364.534 141.731 364.534 141.99ZM374.773 147.146C374.222 147.146 373.721 147.054 373.272 146.868C372.828 146.678 372.444 146.412 372.122 146.07C371.805 145.728 371.561 145.323 371.39 144.854C371.219 144.385 371.133 143.873 371.133 143.316V143.008C371.133 142.364 371.229 141.79 371.419 141.287C371.609 140.779 371.868 140.35 372.195 139.998C372.522 139.646 372.894 139.38 373.309 139.2C373.724 139.019 374.153 138.929 374.598 138.929C375.164 138.929 375.652 139.026 376.062 139.222C376.478 139.417 376.817 139.69 377.081 140.042C377.344 140.389 377.54 140.799 377.667 141.272C377.793 141.741 377.857 142.254 377.857 142.811V143.418H371.939V142.312H376.502V142.21C376.482 141.858 376.409 141.517 376.282 141.185C376.16 140.853 375.965 140.579 375.696 140.364C375.428 140.149 375.062 140.042 374.598 140.042C374.29 140.042 374.007 140.108 373.748 140.24C373.489 140.367 373.267 140.557 373.082 140.811C372.896 141.065 372.752 141.375 372.649 141.741C372.547 142.107 372.496 142.53 372.496 143.008V143.316C372.496 143.692 372.547 144.046 372.649 144.378C372.757 144.705 372.911 144.993 373.111 145.242C373.316 145.491 373.562 145.687 373.851 145.828C374.144 145.97 374.476 146.041 374.847 146.041C375.325 146.041 375.73 145.943 376.062 145.748C376.395 145.552 376.685 145.291 376.934 144.964L377.754 145.616C377.583 145.875 377.366 146.121 377.103 146.355C376.839 146.59 376.514 146.78 376.128 146.927C375.748 147.073 375.296 147.146 374.773 147.146ZM384.053 144.898C384.053 144.703 384.009 144.522 383.921 144.356C383.838 144.185 383.665 144.031 383.401 143.895C383.143 143.753 382.752 143.631 382.229 143.528C381.79 143.436 381.392 143.326 381.036 143.199C380.684 143.072 380.384 142.918 380.135 142.737C379.891 142.557 379.703 142.344 379.571 142.1C379.439 141.856 379.373 141.57 379.373 141.243C379.373 140.931 379.441 140.635 379.578 140.357C379.72 140.079 379.917 139.832 380.171 139.617C380.43 139.402 380.74 139.234 381.102 139.112C381.463 138.99 381.866 138.929 382.31 138.929C382.945 138.929 383.487 139.041 383.936 139.266C384.385 139.49 384.729 139.791 384.969 140.167C385.208 140.538 385.328 140.95 385.328 141.404H383.973C383.973 141.185 383.907 140.972 383.775 140.767C383.648 140.557 383.46 140.384 383.211 140.247C382.967 140.11 382.667 140.042 382.31 140.042C381.934 140.042 381.629 140.101 381.395 140.218C381.165 140.33 380.997 140.474 380.889 140.65C380.787 140.826 380.735 141.011 380.735 141.207C380.735 141.353 380.76 141.485 380.809 141.602C380.862 141.714 380.955 141.819 381.087 141.917C381.219 142.01 381.404 142.098 381.644 142.181C381.883 142.264 382.188 142.347 382.559 142.43C383.208 142.576 383.743 142.752 384.163 142.957C384.583 143.162 384.896 143.414 385.101 143.711C385.306 144.009 385.408 144.371 385.408 144.795C385.408 145.142 385.335 145.459 385.188 145.748C385.047 146.036 384.839 146.285 384.566 146.495C384.297 146.7 383.975 146.861 383.599 146.978C383.228 147.09 382.811 147.146 382.347 147.146C381.648 147.146 381.058 147.022 380.574 146.773C380.091 146.524 379.725 146.202 379.476 145.806C379.227 145.411 379.102 144.993 379.102 144.554H380.464C380.484 144.925 380.591 145.22 380.787 145.44C380.982 145.655 381.221 145.809 381.504 145.901C381.788 145.989 382.068 146.033 382.347 146.033C382.718 146.033 383.028 145.984 383.277 145.887C383.531 145.789 383.724 145.655 383.855 145.484C383.987 145.313 384.053 145.118 384.053 144.898ZM391.802 144.898C391.802 144.703 391.758 144.522 391.67 144.356C391.587 144.185 391.414 144.031 391.15 143.895C390.892 143.753 390.501 143.631 389.979 143.528C389.539 143.436 389.141 143.326 388.785 143.199C388.433 143.072 388.133 142.918 387.884 142.737C387.64 142.557 387.452 142.344 387.32 142.1C387.188 141.856 387.122 141.57 387.122 141.243C387.122 140.931 387.19 140.635 387.327 140.357C387.469 140.079 387.667 139.832 387.92 139.617C388.179 139.402 388.489 139.234 388.851 139.112C389.212 138.99 389.615 138.929 390.059 138.929C390.694 138.929 391.236 139.041 391.685 139.266C392.134 139.49 392.479 139.791 392.718 140.167C392.957 140.538 393.077 140.95 393.077 141.404H391.722C391.722 141.185 391.656 140.972 391.524 140.767C391.397 140.557 391.209 140.384 390.96 140.247C390.716 140.11 390.416 140.042 390.059 140.042C389.683 140.042 389.378 140.101 389.144 140.218C388.914 140.33 388.746 140.474 388.638 140.65C388.536 140.826 388.484 141.011 388.484 141.207C388.484 141.353 388.509 141.485 388.558 141.602C388.611 141.714 388.704 141.819 388.836 141.917C388.968 142.01 389.153 142.098 389.393 142.181C389.632 142.264 389.937 142.347 390.308 142.43C390.958 142.576 391.492 142.752 391.912 142.957C392.332 143.162 392.645 143.414 392.85 143.711C393.055 144.009 393.157 144.371 393.157 144.795C393.157 145.142 393.084 145.459 392.938 145.748C392.796 146.036 392.588 146.285 392.315 146.495C392.046 146.7 391.724 146.861 391.348 146.978C390.977 147.09 390.56 147.146 390.096 147.146C389.397 147.146 388.807 147.022 388.323 146.773C387.84 146.524 387.474 146.202 387.225 145.806C386.976 145.411 386.851 144.993 386.851 144.554H388.213C388.233 144.925 388.34 145.22 388.536 145.44C388.731 145.655 388.97 145.809 389.253 145.901C389.537 145.989 389.817 146.033 390.096 146.033C390.467 146.033 390.777 145.984 391.026 145.887C391.28 145.789 391.473 145.655 391.604 145.484C391.736 145.313 391.802 145.118 391.802 144.898ZM399.61 145.645V141.565C399.61 141.253 399.546 140.982 399.419 140.752C399.297 140.518 399.112 140.337 398.863 140.21C398.614 140.083 398.306 140.02 397.94 140.02C397.598 140.02 397.298 140.079 397.039 140.196C396.785 140.313 396.585 140.467 396.438 140.657C396.297 140.848 396.226 141.053 396.226 141.272H394.871C394.871 140.989 394.944 140.708 395.091 140.43C395.237 140.152 395.447 139.9 395.721 139.676C395.999 139.446 396.331 139.266 396.717 139.134C397.107 138.997 397.542 138.929 398.021 138.929C398.597 138.929 399.104 139.026 399.544 139.222C399.988 139.417 400.335 139.712 400.584 140.108C400.838 140.499 400.965 140.989 400.965 141.58V145.271C400.965 145.535 400.987 145.816 401.031 146.114C401.08 146.412 401.15 146.668 401.243 146.883V147H399.83C399.761 146.844 399.708 146.636 399.668 146.377C399.629 146.114 399.61 145.87 399.61 145.645ZM399.844 142.195L399.859 143.147H398.489C398.104 143.147 397.759 143.179 397.457 143.243C397.154 143.301 396.9 143.392 396.695 143.514C396.49 143.636 396.333 143.79 396.226 143.975C396.119 144.156 396.065 144.368 396.065 144.612C396.065 144.861 396.121 145.088 396.233 145.293C396.346 145.499 396.514 145.662 396.739 145.784C396.968 145.901 397.249 145.96 397.581 145.96C397.996 145.96 398.362 145.872 398.68 145.696C398.997 145.521 399.249 145.306 399.434 145.052C399.625 144.798 399.727 144.551 399.742 144.312L400.32 144.964C400.286 145.169 400.193 145.396 400.042 145.645C399.891 145.894 399.688 146.133 399.434 146.363C399.185 146.587 398.887 146.775 398.541 146.927C398.199 147.073 397.813 147.146 397.383 147.146C396.846 147.146 396.375 147.042 395.97 146.832C395.569 146.622 395.257 146.341 395.032 145.989C394.812 145.633 394.703 145.235 394.703 144.795C394.703 144.371 394.786 143.997 394.952 143.675C395.118 143.348 395.357 143.077 395.669 142.862C395.982 142.642 396.358 142.476 396.797 142.364C397.237 142.251 397.728 142.195 398.27 142.195H399.844ZM408.23 139.075H409.461V146.832C409.461 147.53 409.319 148.125 409.036 148.619C408.753 149.112 408.357 149.485 407.85 149.739C407.347 149.998 406.766 150.127 406.106 150.127C405.833 150.127 405.511 150.083 405.14 149.996C404.773 149.913 404.412 149.769 404.056 149.563C403.704 149.363 403.409 149.092 403.169 148.75L403.88 147.945C404.212 148.345 404.559 148.624 404.92 148.78C405.286 148.936 405.647 149.014 406.004 149.014C406.434 149.014 406.805 148.934 407.117 148.772C407.43 148.611 407.671 148.372 407.842 148.055C408.018 147.742 408.106 147.356 408.106 146.897V140.818L408.23 139.075ZM402.774 143.125V142.972C402.774 142.366 402.845 141.817 402.986 141.324C403.133 140.826 403.34 140.398 403.609 140.042C403.882 139.686 404.212 139.412 404.598 139.222C404.983 139.026 405.418 138.929 405.901 138.929C406.399 138.929 406.834 139.017 407.205 139.192C407.581 139.363 407.898 139.615 408.157 139.947C408.421 140.274 408.628 140.669 408.78 141.133C408.931 141.597 409.036 142.122 409.095 142.708V143.382C409.041 143.963 408.936 144.485 408.78 144.949C408.628 145.413 408.421 145.809 408.157 146.136C407.898 146.463 407.581 146.714 407.205 146.89C406.829 147.061 406.39 147.146 405.887 147.146C405.413 147.146 404.983 147.046 404.598 146.846C404.217 146.646 403.89 146.365 403.616 146.004C403.343 145.643 403.133 145.218 402.986 144.729C402.845 144.236 402.774 143.702 402.774 143.125ZM404.129 142.972V143.125C404.129 143.521 404.168 143.892 404.246 144.239C404.329 144.585 404.454 144.891 404.62 145.154C404.791 145.418 405.008 145.625 405.271 145.777C405.535 145.923 405.85 145.997 406.216 145.997C406.666 145.997 407.037 145.901 407.33 145.711C407.623 145.521 407.854 145.269 408.025 144.957C408.201 144.644 408.338 144.305 408.436 143.938V142.173C408.382 141.905 408.299 141.646 408.187 141.397C408.079 141.143 407.938 140.918 407.762 140.723C407.591 140.523 407.378 140.364 407.125 140.247C406.871 140.13 406.573 140.071 406.231 140.071C405.86 140.071 405.54 140.149 405.271 140.306C405.008 140.457 404.791 140.667 404.62 140.936C404.454 141.199 404.329 141.507 404.246 141.858C404.168 142.205 404.129 142.576 404.129 142.972ZM414.808 147.146C414.256 147.146 413.755 147.054 413.306 146.868C412.862 146.678 412.479 146.412 412.156 146.07C411.839 145.728 411.595 145.323 411.424 144.854C411.253 144.385 411.167 143.873 411.167 143.316V143.008C411.167 142.364 411.263 141.79 411.453 141.287C411.644 140.779 411.902 140.35 412.229 139.998C412.557 139.646 412.928 139.38 413.343 139.2C413.758 139.019 414.188 138.929 414.632 138.929C415.198 138.929 415.687 139.026 416.097 139.222C416.512 139.417 416.851 139.69 417.115 140.042C417.378 140.389 417.574 140.799 417.701 141.272C417.828 141.741 417.891 142.254 417.891 142.811V143.418H411.973V142.312H416.536V142.21C416.517 141.858 416.443 141.517 416.316 141.185C416.194 140.853 415.999 140.579 415.73 140.364C415.462 140.149 415.096 140.042 414.632 140.042C414.324 140.042 414.041 140.108 413.782 140.24C413.523 140.367 413.301 140.557 413.116 140.811C412.93 141.065 412.786 141.375 412.684 141.741C412.581 142.107 412.53 142.53 412.53 143.008V143.316C412.53 143.692 412.581 144.046 412.684 144.378C412.791 144.705 412.945 144.993 413.145 145.242C413.35 145.491 413.597 145.687 413.885 145.828C414.178 145.97 414.51 146.041 414.881 146.041C415.359 146.041 415.765 145.943 416.097 145.748C416.429 145.552 416.719 145.291 416.968 144.964L417.789 145.616C417.618 145.875 417.4 146.121 417.137 146.355C416.873 146.59 416.548 146.78 416.163 146.927C415.782 147.073 415.33 147.146 414.808 147.146ZM419.495 146.282C419.495 146.053 419.566 145.86 419.708 145.704C419.854 145.542 420.064 145.462 420.337 145.462C420.611 145.462 420.818 145.542 420.96 145.704C421.106 145.86 421.18 146.053 421.18 146.282C421.18 146.507 421.106 146.697 420.96 146.854C420.818 147.01 420.611 147.088 420.337 147.088C420.064 147.088 419.854 147.01 419.708 146.854C419.566 146.697 419.495 146.507 419.495 146.282Z" fill="#505050"/>
<path d="M553.705 118.468C554.056 118.818 554.056 119.387 553.705 119.737C553.354 120.088 552.783 120.088 552.432 119.737L548.001 115.285L543.538 119.736C543.186 120.086 542.616 120.086 542.265 119.736C541.913 119.385 541.913 118.817 542.265 118.466L546.729 114.017L542.264 109.532C541.912 109.182 541.912 108.613 542.264 108.263C542.615 107.912 543.185 107.912 543.536 108.263L548.001 112.749L552.464 108.298C552.815 107.948 553.385 107.948 553.736 108.298C554.088 108.648 554.088 109.217 553.736 109.567L549.272 114.017L553.705 118.468Z" fill="#1A1A1A"/>
</g>
</g>
<line x1="252.5" y1="68" x2="252.5" y2="100" stroke="#0045C4"/>
<line x1="356.5" y1="68" x2="356.5" y2="100" stroke="#0045C4"/>
<line x1="548.5" y1="68" x2="548.5" y2="100" stroke="#0045C4"/>
<rect x="240" y="40" width="24" height="24" rx="4" fill="#000714"/>
<rect x="344" y="40" width="24" height="24" rx="4" fill="#000714"/>
<rect x="536" y="40" width="24" height="24" rx="4" fill="#000714"/>
<path d="M253.271 47.0127V57H251.624V48.9678L249.184 49.7949V48.4346L253.073 47.0127H253.271Z" fill="white"/>
<path d="M359.445 55.6875V57H352.773V55.8721L356.014 52.3379C356.369 51.9368 356.649 51.5905 356.854 51.2988C357.06 51.0072 357.203 50.7451 357.285 50.5127C357.372 50.2757 357.415 50.0456 357.415 49.8223C357.415 49.5078 357.356 49.2321 357.237 48.9951C357.123 48.7536 356.955 48.5645 356.731 48.4277C356.508 48.2865 356.237 48.2158 355.918 48.2158C355.549 48.2158 355.239 48.2956 354.988 48.4551C354.738 48.6146 354.549 48.8356 354.421 49.1182C354.293 49.3962 354.229 49.7152 354.229 50.0752H352.582C352.582 49.4964 352.714 48.9678 352.979 48.4893C353.243 48.0062 353.626 47.6234 354.127 47.3408C354.628 47.0537 355.232 46.9102 355.938 46.9102C356.604 46.9102 357.169 47.0218 357.634 47.2451C358.099 47.4684 358.452 47.7852 358.693 48.1953C358.939 48.6055 359.062 49.0908 359.062 49.6514C359.062 49.9613 359.012 50.2689 358.912 50.5742C358.812 50.8796 358.668 51.1849 358.481 51.4902C358.299 51.791 358.083 52.0941 357.832 52.3994C357.581 52.7002 357.306 53.0055 357.005 53.3154L354.852 55.6875H359.445Z" fill="white"/>
<path d="M546.708 51.2783H547.692C548.075 51.2783 548.392 51.2122 548.643 51.0801C548.898 50.9479 549.087 50.7656 549.21 50.5332C549.333 50.3008 549.395 50.0342 549.395 49.7334C549.395 49.4189 549.338 49.1501 549.224 48.9268C549.114 48.6989 548.946 48.5234 548.718 48.4004C548.494 48.2773 548.21 48.2158 547.863 48.2158C547.572 48.2158 547.307 48.2751 547.07 48.3936C546.838 48.5075 546.653 48.6715 546.517 48.8857C546.38 49.0954 546.312 49.346 546.312 49.6377H544.657C544.657 49.109 544.796 48.6396 545.074 48.2295C545.352 47.8193 545.73 47.498 546.209 47.2656C546.692 47.0286 547.234 46.9102 547.836 46.9102C548.479 46.9102 549.039 47.0173 549.518 47.2314C550.001 47.4411 550.377 47.7555 550.646 48.1748C550.914 48.5941 551.049 49.1136 551.049 49.7334C551.049 50.016 550.983 50.3031 550.851 50.5947C550.718 50.8864 550.522 51.153 550.263 51.3945C550.003 51.6315 549.679 51.8252 549.292 51.9756C548.905 52.1214 548.456 52.1943 547.945 52.1943H546.708V51.2783ZM546.708 52.5635V51.6611H547.945C548.529 51.6611 549.025 51.7295 549.436 51.8662C549.85 52.0029 550.188 52.1921 550.447 52.4336C550.707 52.6706 550.896 52.9417 551.015 53.2471C551.138 53.5524 551.199 53.876 551.199 54.2178C551.199 54.6826 551.115 55.0973 550.946 55.4619C550.782 55.8219 550.548 56.1273 550.242 56.3779C549.937 56.6286 549.579 56.8177 549.169 56.9453C548.763 57.0729 548.321 57.1367 547.843 57.1367C547.414 57.1367 547.004 57.0775 546.612 56.959C546.22 56.8405 545.869 56.665 545.56 56.4326C545.25 56.1956 545.004 55.9017 544.821 55.5508C544.644 55.1953 544.555 54.7852 544.555 54.3203H546.202C546.202 54.6165 546.271 54.8786 546.407 55.1064C546.549 55.3298 546.744 55.5052 546.995 55.6328C547.25 55.7604 547.542 55.8242 547.87 55.8242C548.216 55.8242 548.515 55.7627 548.766 55.6396C549.016 55.5166 549.208 55.3343 549.34 55.0928C549.477 54.8512 549.545 54.5596 549.545 54.2178C549.545 53.8304 549.47 53.516 549.319 53.2744C549.169 53.0329 548.955 52.8551 548.677 52.7412C548.399 52.6227 548.071 52.5635 547.692 52.5635H546.708Z" fill="white"/>
<defs>
<filter id="filter0_ddd_1962_36381" x="200" y="74" width="400" height="124" filterUnits="userSpaceOnUse" color-interpolation-filters="sRGB">
<feFlood flood-opacity="0" result="BackgroundImageFix"/>
<feColorMatrix in="SourceAlpha" type="matrix" values="0 0 0 0 0 0 0 0 0 0 0 0 0 0 0 0 0 0 127 0" result="hardAlpha"/>
<feOffset dy="4"/>
<feGaussianBlur stdDeviation="4"/>
<feColorMatrix type="matrix" values="0 0 0 0 0.45098 0 0 0 0 0.45098 0 0 0 0 0.45098 0 0 0 0.05 0"/>
<feBlend mode="normal" in2="BackgroundImageFix" result="effect1_dropShadow_1962_36381"/>
<feColorMatrix in="SourceAlpha" type="matrix" values="0 0 0 0 0 0 0 0 0 0 0 0 0 0 0 0 0 0 127 0" result="hardAlpha"/>
<feOffset dy="4"/>
<feGaussianBlur stdDeviation="10"/>
<feColorMatrix type="matrix" values="0 0 0 0 0.45098 0 0 0 0 0.45098 0 0 0 0 0.45098 0 0 0 0.1 0"/>
<feBlend mode="normal" in2="effect1_dropShadow_1962_36381" result="effect2_dropShadow_1962_36381"/>
<feColorMatrix in="SourceAlpha" type="matrix" values="0 0 0 0 0 0 0 0 0 0 0 0 0 0 0 0 0 0 127 0" result="hardAlpha"/>
<feOffset dy="12"/>
<feGaussianBlur stdDeviation="8"/>
<feColorMatrix type="matrix" values="0 0 0 0 0.45098 0 0 0 0 0.45098 0 0 0 0 0.45098 0 0 0 0.08 0"/>
<feBlend mode="normal" in2="effect2_dropShadow_1962_36381" result="effect3_dropShadow_1962_36381"/>
<feBlend mode="normal" in="SourceGraphic" in2="effect3_dropShadow_1962_36381" result="shape"/>
</filter>
<clipPath id="clip0_1962_36381">
<rect x="220" y="90" width="360" height="80" rx="8" fill="white"/>
</clipPath>
</defs>
</svg>
