<svg width="592" height="232" viewBox="0 0 592 232" fill="none" xmlns="http://www.w3.org/2000/svg">
<rect width="592" height="232" rx="4" fill="#F8F8F8"/>
<rect opacity="0.1" x="116" y="40" width="360" height="160" fill="#0059FF"/>
<rect x="132" y="40" width="12.6667" height="160" fill="#B4CBF5"/>
<rect x="160.667" y="40" width="12.6667" height="160" fill="#B4CBF5"/>
<rect x="189.333" y="40" width="12.6667" height="160" fill="#B4CBF5"/>
<rect x="218" y="40" width="12.6667" height="160" fill="#B4CBF5"/>
<rect x="246.667" y="40" width="12.6667" height="160" fill="#B4CBF5"/>
<rect x="275.333" y="40" width="12.6667" height="160" fill="#B4CBF5"/>
<rect x="304" y="40" width="12.6667" height="160" fill="#B4CBF5"/>
<rect x="332.667" y="40" width="12.6667" height="160" fill="#B4CBF5"/>
<rect x="361.333" y="40" width="12.6667" height="160" fill="#B4CBF5"/>
<rect x="390" y="40" width="12.6667" height="160" fill="#B4CBF5"/>
<rect x="418.667" y="40" width="12.6667" height="160" fill="#B4CBF5"/>
<rect x="447.333" y="40" width="12.6667" height="160" fill="#B4CBF5"/>
<line x1="116" y1="171.5" x2="269.5" y2="171.5" stroke="#0059FF"/>
<path d="M282.839 166.277V177H281.484V167.969L278.752 168.965V167.742L282.627 166.277H282.839ZM293.518 170.818V172.444C293.518 173.318 293.44 174.056 293.284 174.656C293.127 175.257 292.903 175.74 292.61 176.106C292.317 176.473 291.963 176.739 291.548 176.905C291.138 177.066 290.674 177.146 290.156 177.146C289.746 177.146 289.368 177.095 289.021 176.993C288.674 176.89 288.362 176.727 288.083 176.502C287.81 176.272 287.576 175.975 287.38 175.608C287.185 175.242 287.036 174.798 286.934 174.275C286.831 173.753 286.78 173.143 286.78 172.444V170.818C286.78 169.944 286.858 169.212 287.014 168.621C287.175 168.03 287.402 167.557 287.695 167.2C287.988 166.839 288.34 166.58 288.75 166.424C289.165 166.268 289.629 166.189 290.142 166.189C290.557 166.189 290.938 166.241 291.284 166.343C291.636 166.441 291.948 166.6 292.222 166.819C292.495 167.034 292.727 167.322 292.917 167.684C293.113 168.04 293.262 168.477 293.364 168.995C293.467 169.512 293.518 170.12 293.518 170.818ZM292.156 172.664V170.591C292.156 170.113 292.126 169.693 292.068 169.332C292.014 168.965 291.934 168.653 291.826 168.394C291.719 168.135 291.582 167.925 291.416 167.764C291.255 167.603 291.067 167.486 290.852 167.413C290.642 167.334 290.405 167.295 290.142 167.295C289.819 167.295 289.534 167.356 289.285 167.479C289.036 167.596 288.826 167.784 288.655 168.042C288.489 168.301 288.362 168.641 288.274 169.061C288.186 169.48 288.142 169.991 288.142 170.591V172.664C288.142 173.143 288.169 173.565 288.223 173.931C288.281 174.297 288.367 174.615 288.479 174.883C288.591 175.147 288.728 175.364 288.889 175.535C289.05 175.706 289.236 175.833 289.446 175.916C289.661 175.994 289.897 176.033 290.156 176.033C290.488 176.033 290.779 175.97 291.028 175.843C291.277 175.716 291.484 175.518 291.65 175.25C291.821 174.976 291.948 174.627 292.031 174.202C292.114 173.772 292.156 173.26 292.156 172.664ZM301.956 170.818V172.444C301.956 173.318 301.877 174.056 301.721 174.656C301.565 175.257 301.34 175.74 301.047 176.106C300.754 176.473 300.4 176.739 299.985 176.905C299.575 177.066 299.111 177.146 298.594 177.146C298.184 177.146 297.805 177.095 297.458 176.993C297.112 176.89 296.799 176.727 296.521 176.502C296.248 176.272 296.013 175.975 295.818 175.608C295.623 175.242 295.474 174.798 295.371 174.275C295.269 173.753 295.217 173.143 295.217 172.444V170.818C295.217 169.944 295.295 169.212 295.452 168.621C295.613 168.03 295.84 167.557 296.133 167.2C296.426 166.839 296.777 166.58 297.188 166.424C297.603 166.268 298.066 166.189 298.579 166.189C298.994 166.189 299.375 166.241 299.722 166.343C300.073 166.441 300.386 166.6 300.659 166.819C300.933 167.034 301.165 167.322 301.355 167.684C301.55 168.04 301.699 168.477 301.802 168.995C301.904 169.512 301.956 170.12 301.956 170.818ZM300.593 172.664V170.591C300.593 170.113 300.564 169.693 300.505 169.332C300.452 168.965 300.371 168.653 300.264 168.394C300.156 168.135 300.02 167.925 299.854 167.764C299.692 167.603 299.504 167.486 299.29 167.413C299.08 167.334 298.843 167.295 298.579 167.295C298.257 167.295 297.971 167.356 297.722 167.479C297.473 167.596 297.263 167.784 297.092 168.042C296.926 168.301 296.799 168.641 296.711 169.061C296.624 169.48 296.58 169.991 296.58 170.591V172.664C296.58 173.143 296.606 173.565 296.66 173.931C296.719 174.297 296.804 174.615 296.917 174.883C297.029 175.147 297.166 175.364 297.327 175.535C297.488 175.706 297.673 175.833 297.883 175.916C298.098 175.994 298.335 176.033 298.594 176.033C298.926 176.033 299.216 175.97 299.465 175.843C299.714 175.716 299.922 175.518 300.088 175.25C300.259 174.976 300.386 174.627 300.469 174.202C300.552 173.772 300.593 173.26 300.593 172.664ZM303.582 168.951V168.387C303.582 167.981 303.669 167.613 303.845 167.281C304.021 166.949 304.272 166.683 304.6 166.482C304.927 166.282 305.315 166.182 305.764 166.182C306.223 166.182 306.614 166.282 306.936 166.482C307.263 166.683 307.515 166.949 307.69 167.281C307.866 167.613 307.954 167.981 307.954 168.387V168.951C307.954 169.346 307.866 169.71 307.69 170.042C307.52 170.374 307.271 170.64 306.943 170.84C306.621 171.041 306.233 171.141 305.779 171.141C305.325 171.141 304.932 171.041 304.6 170.84C304.272 170.64 304.021 170.374 303.845 170.042C303.669 169.71 303.582 169.346 303.582 168.951ZM304.6 168.387V168.951C304.6 169.175 304.641 169.388 304.724 169.588C304.812 169.788 304.944 169.952 305.12 170.079C305.295 170.201 305.515 170.262 305.779 170.262C306.042 170.262 306.26 170.201 306.431 170.079C306.602 169.952 306.729 169.788 306.812 169.588C306.895 169.388 306.936 169.175 306.936 168.951V168.387C306.936 168.157 306.892 167.942 306.804 167.742C306.721 167.537 306.592 167.374 306.416 167.251C306.245 167.125 306.028 167.061 305.764 167.061C305.505 167.061 305.288 167.125 305.112 167.251C304.941 167.374 304.812 167.537 304.724 167.742C304.641 167.942 304.6 168.157 304.6 168.387ZM308.774 174.957V174.385C308.774 173.985 308.862 173.619 309.038 173.287C309.214 172.955 309.465 172.688 309.792 172.488C310.12 172.288 310.508 172.188 310.957 172.188C311.416 172.188 311.807 172.288 312.129 172.488C312.456 172.688 312.708 172.955 312.883 173.287C313.059 173.619 313.147 173.985 313.147 174.385V174.957C313.147 175.357 313.059 175.723 312.883 176.055C312.712 176.387 312.463 176.653 312.136 176.854C311.814 177.054 311.426 177.154 310.972 177.154C310.518 177.154 310.127 177.054 309.8 176.854C309.473 176.653 309.219 176.387 309.038 176.055C308.862 175.723 308.774 175.357 308.774 174.957ZM309.792 174.385V174.957C309.792 175.181 309.834 175.396 309.917 175.601C310.005 175.801 310.137 175.965 310.312 176.092C310.488 176.214 310.708 176.275 310.972 176.275C311.235 176.275 311.453 176.214 311.624 176.092C311.799 175.965 311.929 175.801 312.012 175.601C312.095 175.401 312.136 175.186 312.136 174.957V174.385C312.136 174.156 312.092 173.941 312.004 173.741C311.921 173.541 311.792 173.379 311.616 173.257C311.445 173.13 311.226 173.067 310.957 173.067C310.698 173.067 310.481 173.13 310.305 173.257C310.134 173.379 310.005 173.541 309.917 173.741C309.834 173.941 309.792 174.156 309.792 174.385ZM311.294 167.852L306.086 176.187L305.325 175.704L310.532 167.369L311.294 167.852Z" fill="#333333"/>
<line x1="322.5" y1="171.5" x2="476" y2="171.5" stroke="#0059FF"/>
<path d="M114.991 20.707V30H113.817V22.1733L111.449 23.0366V21.9766L114.807 20.707H114.991ZM122.951 20.7451H123.053V21.7417H122.951C122.329 21.7417 121.809 21.8433 121.39 22.0464C120.971 22.2453 120.639 22.514 120.393 22.8525C120.148 23.1868 119.97 23.5635 119.86 23.9824C119.754 24.4014 119.701 24.8267 119.701 25.2583V26.6167C119.701 27.0272 119.75 27.3911 119.847 27.7085C119.944 28.0216 120.078 28.2861 120.247 28.502C120.416 28.7178 120.607 28.8807 120.818 28.9907C121.034 29.1007 121.258 29.1558 121.491 29.1558C121.762 29.1558 122.003 29.105 122.215 29.0034C122.426 28.8976 122.604 28.7516 122.748 28.5654C122.896 28.375 123.008 28.1507 123.084 27.8926C123.161 27.6344 123.199 27.3509 123.199 27.042C123.199 26.7669 123.165 26.5024 123.097 26.2485C123.029 25.9904 122.926 25.7619 122.786 25.563C122.646 25.3599 122.471 25.2012 122.259 25.0869C122.052 24.9684 121.804 24.9092 121.517 24.9092C121.191 24.9092 120.886 24.9896 120.603 25.1504C120.323 25.307 120.093 25.5143 119.911 25.7725C119.733 26.0264 119.631 26.3035 119.606 26.604L118.984 26.5977C119.043 26.1237 119.153 25.7196 119.314 25.3853C119.479 25.0467 119.682 24.7716 119.923 24.5601C120.169 24.3442 120.442 24.1877 120.742 24.0903C121.047 23.9888 121.368 23.938 121.707 23.938C122.168 23.938 122.566 24.0247 122.9 24.1982C123.235 24.3717 123.51 24.6045 123.726 24.8965C123.941 25.1842 124.1 25.5101 124.202 25.874C124.307 26.2337 124.36 26.604 124.36 26.9849C124.36 27.4207 124.299 27.8291 124.176 28.21C124.054 28.5908 123.869 28.9251 123.624 29.2129C123.383 29.5007 123.084 29.7249 122.729 29.8857C122.374 30.0465 121.961 30.127 121.491 30.127C120.992 30.127 120.556 30.0254 120.184 29.8223C119.811 29.6149 119.502 29.3398 119.257 28.9971C119.011 28.6543 118.827 28.2734 118.705 27.8545C118.582 27.4355 118.521 27.0103 118.521 26.5786V26.0264C118.521 25.3747 118.586 24.7357 118.717 24.1094C118.848 23.4831 119.075 22.916 119.396 22.4082C119.722 21.9004 120.173 21.4963 120.749 21.1958C121.324 20.8953 122.058 20.7451 122.951 20.7451ZM127.058 24.4521V32.6406H125.877V23.1318H126.957L127.058 24.4521ZM131.686 26.5088V26.6421C131.686 27.1414 131.626 27.6048 131.508 28.0322C131.389 28.4554 131.216 28.8236 130.987 29.1367C130.763 29.4499 130.486 29.6932 130.156 29.8667C129.826 30.0402 129.447 30.127 129.02 30.127C128.584 30.127 128.199 30.055 127.864 29.9111C127.53 29.7673 127.246 29.5578 127.014 29.2827C126.781 29.0076 126.595 28.6776 126.455 28.2925C126.32 27.9074 126.227 27.4736 126.176 26.9912V26.2803C126.227 25.7725 126.322 25.3175 126.461 24.9155C126.601 24.5135 126.785 24.1707 127.014 23.8872C127.246 23.5994 127.528 23.3815 127.858 23.2334C128.188 23.0811 128.569 23.0049 129 23.0049C129.432 23.0049 129.815 23.0895 130.149 23.2588C130.484 23.4238 130.765 23.6608 130.994 23.9697C131.222 24.2786 131.394 24.6489 131.508 25.0806C131.626 25.508 131.686 25.984 131.686 26.5088ZM130.505 26.6421V26.5088C130.505 26.166 130.469 25.8444 130.397 25.5439C130.325 25.2393 130.213 24.9727 130.061 24.7441C129.912 24.5114 129.722 24.3294 129.489 24.1982C129.257 24.0628 128.979 23.9951 128.658 23.9951C128.361 23.9951 128.103 24.0459 127.883 24.1475C127.667 24.249 127.483 24.3866 127.331 24.5601C127.179 24.7293 127.054 24.924 126.957 25.144C126.863 25.3599 126.794 25.5841 126.747 25.8169V27.4609C126.832 27.7572 126.95 28.0365 127.103 28.2988C127.255 28.557 127.458 28.7664 127.712 28.9272C127.966 29.0838 128.285 29.1621 128.67 29.1621C128.988 29.1621 129.261 29.0965 129.489 28.9653C129.722 28.8299 129.912 28.6458 130.061 28.4131C130.213 28.1803 130.325 27.9137 130.397 27.6133C130.469 27.3086 130.505 26.9849 130.505 26.6421ZM133.875 23.1318L135.38 25.6328L136.903 23.1318H138.281L136.034 26.5215L138.351 30H136.992L135.405 27.4229L133.818 30H132.454L134.764 26.5215L132.523 23.1318H133.875Z" fill="#333333"/>
<path d="M200.991 20.707V30H199.817V22.1733L197.449 23.0366V21.9766L200.807 20.707H200.991ZM208.951 20.7451H209.053V21.7417H208.951C208.329 21.7417 207.809 21.8433 207.39 22.0464C206.971 22.2453 206.639 22.514 206.393 22.8525C206.148 23.1868 205.97 23.5635 205.86 23.9824C205.754 24.4014 205.701 24.8267 205.701 25.2583V26.6167C205.701 27.0272 205.75 27.3911 205.847 27.7085C205.944 28.0216 206.078 28.2861 206.247 28.502C206.416 28.7178 206.607 28.8807 206.818 28.9907C207.034 29.1007 207.258 29.1558 207.491 29.1558C207.762 29.1558 208.003 29.105 208.215 29.0034C208.426 28.8976 208.604 28.7516 208.748 28.5654C208.896 28.375 209.008 28.1507 209.084 27.8926C209.161 27.6344 209.199 27.3509 209.199 27.042C209.199 26.7669 209.165 26.5024 209.097 26.2485C209.029 25.9904 208.926 25.7619 208.786 25.563C208.646 25.3599 208.471 25.2012 208.259 25.0869C208.052 24.9684 207.804 24.9092 207.517 24.9092C207.191 24.9092 206.886 24.9896 206.603 25.1504C206.323 25.307 206.093 25.5143 205.911 25.7725C205.733 26.0264 205.631 26.3035 205.606 26.604L204.984 26.5977C205.043 26.1237 205.153 25.7196 205.314 25.3853C205.479 25.0467 205.682 24.7716 205.923 24.5601C206.169 24.3442 206.442 24.1877 206.742 24.0903C207.047 23.9888 207.368 23.938 207.707 23.938C208.168 23.938 208.566 24.0247 208.9 24.1982C209.235 24.3717 209.51 24.6045 209.726 24.8965C209.941 25.1842 210.1 25.5101 210.202 25.874C210.307 26.2337 210.36 26.604 210.36 26.9849C210.36 27.4207 210.299 27.8291 210.176 28.21C210.054 28.5908 209.869 28.9251 209.624 29.2129C209.383 29.5007 209.084 29.7249 208.729 29.8857C208.374 30.0465 207.961 30.127 207.491 30.127C206.992 30.127 206.556 30.0254 206.184 29.8223C205.811 29.6149 205.502 29.3398 205.257 28.9971C205.011 28.6543 204.827 28.2734 204.705 27.8545C204.582 27.4355 204.521 27.0103 204.521 26.5786V26.0264C204.521 25.3747 204.586 24.7357 204.717 24.1094C204.848 23.4831 205.075 22.916 205.396 22.4082C205.722 21.9004 206.173 21.4963 206.749 21.1958C207.324 20.8953 208.058 20.7451 208.951 20.7451ZM213.058 24.4521V32.6406H211.877V23.1318H212.957L213.058 24.4521ZM217.686 26.5088V26.6421C217.686 27.1414 217.626 27.6048 217.508 28.0322C217.389 28.4554 217.216 28.8236 216.987 29.1367C216.763 29.4499 216.486 29.6932 216.156 29.8667C215.826 30.0402 215.447 30.127 215.02 30.127C214.584 30.127 214.199 30.055 213.864 29.9111C213.53 29.7673 213.246 29.5578 213.014 29.2827C212.781 29.0076 212.595 28.6776 212.455 28.2925C212.32 27.9074 212.227 27.4736 212.176 26.9912V26.2803C212.227 25.7725 212.322 25.3175 212.461 24.9155C212.601 24.5135 212.785 24.1707 213.014 23.8872C213.246 23.5994 213.528 23.3815 213.858 23.2334C214.188 23.0811 214.569 23.0049 215 23.0049C215.432 23.0049 215.815 23.0895 216.149 23.2588C216.484 23.4238 216.765 23.6608 216.994 23.9697C217.222 24.2786 217.394 24.6489 217.508 25.0806C217.626 25.508 217.686 25.984 217.686 26.5088ZM216.505 26.6421V26.5088C216.505 26.166 216.469 25.8444 216.397 25.5439C216.325 25.2393 216.213 24.9727 216.061 24.7441C215.912 24.5114 215.722 24.3294 215.489 24.1982C215.257 24.0628 214.979 23.9951 214.658 23.9951C214.361 23.9951 214.103 24.0459 213.883 24.1475C213.667 24.249 213.483 24.3866 213.331 24.5601C213.179 24.7293 213.054 24.924 212.957 25.144C212.863 25.3599 212.794 25.5841 212.747 25.8169V27.4609C212.832 27.7572 212.95 28.0365 213.103 28.2988C213.255 28.557 213.458 28.7664 213.712 28.9272C213.966 29.0838 214.285 29.1621 214.67 29.1621C214.988 29.1621 215.261 29.0965 215.489 28.9653C215.722 28.8299 215.912 28.6458 216.061 28.4131C216.213 28.1803 216.325 27.9137 216.397 27.6133C216.469 27.3086 216.505 26.9849 216.505 26.6421ZM219.875 23.1318L221.38 25.6328L222.903 23.1318H224.281L222.034 26.5215L224.351 30H222.992L221.405 27.4229L219.818 30H218.454L220.764 26.5215L218.523 23.1318H219.875Z" fill="#333333"/>
<path d="M116 40.5H132M116 40.5V36M116 40.5V45M132 40.5V36M132 40.5V45" stroke="#0059FF"/>
<path d="M202 40.5H218M202 40.5V36M202 40.5V45M218 40.5V36M218 40.5V45" stroke="#0059FF"/>
</svg>
