<svg width="592" height="232" viewBox="0 0 592 232" fill="none" xmlns="http://www.w3.org/2000/svg">
<rect width="592" height="232" rx="4" fill="#F8F8F8"/>
<rect opacity="0.1" x="41" y="40" width="519" height="160" fill="#0059FF"/>
<g opacity="0.25">
<rect x="57" y="40" width="25.9167" height="160" fill="#0059FF"/>
<rect x="98.9167" y="40" width="25.9167" height="160" fill="#0059FF"/>
<rect x="140.833" y="40" width="25.9167" height="160" fill="#0059FF"/>
<rect x="182.75" y="40" width="25.9167" height="160" fill="#0059FF"/>
<rect x="224.667" y="40" width="25.9167" height="160" fill="#0059FF"/>
<rect x="266.583" y="40" width="25.9167" height="160" fill="#0059FF"/>
<rect x="308.5" y="40" width="25.9167" height="160" fill="#0059FF"/>
<rect x="350.417" y="40" width="25.9167" height="160" fill="#0059FF"/>
<rect x="392.333" y="40" width="25.9167" height="160" fill="#0059FF"/>
<rect x="434.25" y="40" width="25.9167" height="160" fill="#0059FF"/>
<rect x="476.167" y="40" width="25.9167" height="160" fill="#0059FF"/>
<rect x="518.083" y="40" width="25.9167" height="160" fill="#0059FF"/>
</g>
<line x1="41" y1="171.5" x2="274" y2="171.5" stroke="#0059FF"/>
<path d="M287.339 166.277V177H285.984V167.969L283.252 168.965V167.742L287.127 166.277H287.339ZM298.018 170.818V172.444C298.018 173.318 297.94 174.056 297.784 174.656C297.627 175.257 297.403 175.74 297.11 176.106C296.817 176.473 296.463 176.739 296.048 176.905C295.638 177.066 295.174 177.146 294.656 177.146C294.246 177.146 293.868 177.095 293.521 176.993C293.174 176.89 292.862 176.727 292.583 176.502C292.31 176.272 292.076 175.975 291.88 175.608C291.685 175.242 291.536 174.798 291.434 174.275C291.331 173.753 291.28 173.143 291.28 172.444V170.818C291.28 169.944 291.358 169.212 291.514 168.621C291.675 168.03 291.902 167.557 292.195 167.2C292.488 166.839 292.84 166.58 293.25 166.424C293.665 166.268 294.129 166.189 294.642 166.189C295.057 166.189 295.438 166.241 295.784 166.343C296.136 166.441 296.448 166.6 296.722 166.819C296.995 167.034 297.227 167.322 297.417 167.684C297.613 168.04 297.762 168.477 297.864 168.995C297.967 169.512 298.018 170.12 298.018 170.818ZM296.656 172.664V170.591C296.656 170.113 296.626 169.693 296.568 169.332C296.514 168.965 296.434 168.653 296.326 168.394C296.219 168.135 296.082 167.925 295.916 167.764C295.755 167.603 295.567 167.486 295.352 167.413C295.142 167.334 294.905 167.295 294.642 167.295C294.319 167.295 294.034 167.356 293.785 167.479C293.536 167.596 293.326 167.784 293.155 168.042C292.989 168.301 292.862 168.641 292.774 169.061C292.686 169.48 292.642 169.991 292.642 170.591V172.664C292.642 173.143 292.669 173.565 292.723 173.931C292.781 174.297 292.867 174.615 292.979 174.883C293.091 175.147 293.228 175.364 293.389 175.535C293.55 175.706 293.736 175.833 293.946 175.916C294.161 175.994 294.397 176.033 294.656 176.033C294.988 176.033 295.279 175.97 295.528 175.843C295.777 175.716 295.984 175.518 296.15 175.25C296.321 174.976 296.448 174.627 296.531 174.202C296.614 173.772 296.656 173.26 296.656 172.664ZM306.456 170.818V172.444C306.456 173.318 306.377 174.056 306.221 174.656C306.065 175.257 305.84 175.74 305.547 176.106C305.254 176.473 304.9 176.739 304.485 176.905C304.075 177.066 303.611 177.146 303.094 177.146C302.684 177.146 302.305 177.095 301.958 176.993C301.612 176.89 301.299 176.727 301.021 176.502C300.748 176.272 300.513 175.975 300.318 175.608C300.123 175.242 299.974 174.798 299.871 174.275C299.769 173.753 299.717 173.143 299.717 172.444V170.818C299.717 169.944 299.795 169.212 299.952 168.621C300.113 168.03 300.34 167.557 300.633 167.2C300.926 166.839 301.277 166.58 301.688 166.424C302.103 166.268 302.566 166.189 303.079 166.189C303.494 166.189 303.875 166.241 304.222 166.343C304.573 166.441 304.886 166.6 305.159 166.819C305.433 167.034 305.665 167.322 305.855 167.684C306.05 168.04 306.199 168.477 306.302 168.995C306.404 169.512 306.456 170.12 306.456 170.818ZM305.093 172.664V170.591C305.093 170.113 305.064 169.693 305.005 169.332C304.952 168.965 304.871 168.653 304.764 168.394C304.656 168.135 304.52 167.925 304.354 167.764C304.192 167.603 304.004 167.486 303.79 167.413C303.58 167.334 303.343 167.295 303.079 167.295C302.757 167.295 302.471 167.356 302.222 167.479C301.973 167.596 301.763 167.784 301.592 168.042C301.426 168.301 301.299 168.641 301.211 169.061C301.124 169.48 301.08 169.991 301.08 170.591V172.664C301.08 173.143 301.106 173.565 301.16 173.931C301.219 174.297 301.304 174.615 301.417 174.883C301.529 175.147 301.666 175.364 301.827 175.535C301.988 175.706 302.173 175.833 302.383 175.916C302.598 175.994 302.835 176.033 303.094 176.033C303.426 176.033 303.716 175.97 303.965 175.843C304.214 175.716 304.422 175.518 304.588 175.25C304.759 174.976 304.886 174.627 304.969 174.202C305.052 173.772 305.093 173.26 305.093 172.664ZM308.082 168.951V168.387C308.082 167.981 308.169 167.613 308.345 167.281C308.521 166.949 308.772 166.683 309.1 166.482C309.427 166.282 309.815 166.182 310.264 166.182C310.723 166.182 311.114 166.282 311.436 166.482C311.763 166.683 312.015 166.949 312.19 167.281C312.366 167.613 312.454 167.981 312.454 168.387V168.951C312.454 169.346 312.366 169.71 312.19 170.042C312.02 170.374 311.771 170.64 311.443 170.84C311.121 171.041 310.733 171.141 310.279 171.141C309.825 171.141 309.432 171.041 309.1 170.84C308.772 170.64 308.521 170.374 308.345 170.042C308.169 169.71 308.082 169.346 308.082 168.951ZM309.1 168.387V168.951C309.1 169.175 309.141 169.388 309.224 169.588C309.312 169.788 309.444 169.952 309.62 170.079C309.795 170.201 310.015 170.262 310.279 170.262C310.542 170.262 310.76 170.201 310.931 170.079C311.102 169.952 311.229 169.788 311.312 169.588C311.395 169.388 311.436 169.175 311.436 168.951V168.387C311.436 168.157 311.392 167.942 311.304 167.742C311.221 167.537 311.092 167.374 310.916 167.251C310.745 167.125 310.528 167.061 310.264 167.061C310.005 167.061 309.788 167.125 309.612 167.251C309.441 167.374 309.312 167.537 309.224 167.742C309.141 167.942 309.1 168.157 309.1 168.387ZM313.274 174.957V174.385C313.274 173.985 313.362 173.619 313.538 173.287C313.714 172.955 313.965 172.688 314.292 172.488C314.62 172.288 315.008 172.188 315.457 172.188C315.916 172.188 316.307 172.288 316.629 172.488C316.956 172.688 317.208 172.955 317.383 173.287C317.559 173.619 317.647 173.985 317.647 174.385V174.957C317.647 175.357 317.559 175.723 317.383 176.055C317.212 176.387 316.963 176.653 316.636 176.854C316.314 177.054 315.926 177.154 315.472 177.154C315.018 177.154 314.627 177.054 314.3 176.854C313.973 176.653 313.719 176.387 313.538 176.055C313.362 175.723 313.274 175.357 313.274 174.957ZM314.292 174.385V174.957C314.292 175.181 314.334 175.396 314.417 175.601C314.505 175.801 314.637 175.965 314.812 176.092C314.988 176.214 315.208 176.275 315.472 176.275C315.735 176.275 315.953 176.214 316.124 176.092C316.299 175.965 316.429 175.801 316.512 175.601C316.595 175.401 316.636 175.186 316.636 174.957V174.385C316.636 174.156 316.592 173.941 316.504 173.741C316.421 173.541 316.292 173.379 316.116 173.257C315.945 173.13 315.726 173.067 315.457 173.067C315.198 173.067 314.981 173.13 314.805 173.257C314.634 173.379 314.505 173.541 314.417 173.741C314.334 173.941 314.292 174.156 314.292 174.385ZM315.794 167.852L310.586 176.187L309.825 175.704L315.032 167.369L315.794 167.852Z" fill="#333333"/>
<line x1="327" y1="171.5" x2="560" y2="171.5" stroke="#0059FF"/>
<path d="M246.482 24.8013H247.32C247.73 24.8013 248.069 24.7336 248.335 24.5981C248.606 24.4585 248.807 24.2702 248.938 24.0332C249.074 23.792 249.142 23.5212 249.142 23.2207C249.142 22.8652 249.082 22.5669 248.964 22.3257C248.845 22.0845 248.668 21.9025 248.431 21.7798C248.194 21.6571 247.893 21.5957 247.529 21.5957C247.199 21.5957 246.907 21.6613 246.653 21.7925C246.404 21.9194 246.207 22.1014 246.063 22.3384C245.923 22.5754 245.854 22.8547 245.854 23.1763H244.679C244.679 22.7065 244.798 22.2791 245.035 21.894C245.272 21.509 245.604 21.2021 246.031 20.9736C246.463 20.7451 246.962 20.6309 247.529 20.6309C248.088 20.6309 248.577 20.7303 248.996 20.9292C249.415 21.1239 249.74 21.4159 249.973 21.8052C250.206 22.1903 250.322 22.6706 250.322 23.2461C250.322 23.4788 250.267 23.7285 250.157 23.9951C250.051 24.2575 249.884 24.5029 249.656 24.7314C249.431 24.96 249.139 25.1483 248.78 25.2964C248.42 25.4403 247.988 25.5122 247.485 25.5122H246.482V24.8013ZM246.482 25.7661V25.0615H247.485C248.073 25.0615 248.56 25.1313 248.945 25.271C249.33 25.4106 249.632 25.5968 249.853 25.8296C250.077 26.0623 250.233 26.3184 250.322 26.5977C250.415 26.8727 250.462 27.1478 250.462 27.4229C250.462 27.8545 250.388 28.2375 250.24 28.5718C250.096 28.9061 249.891 29.1896 249.624 29.4224C249.362 29.6551 249.053 29.8307 248.697 29.9492C248.342 30.0677 247.955 30.127 247.536 30.127C247.134 30.127 246.755 30.0698 246.399 29.9556C246.048 29.8413 245.737 29.6763 245.466 29.4604C245.195 29.2404 244.984 28.9717 244.832 28.6543C244.679 28.3327 244.603 27.9666 244.603 27.5562H245.777C245.777 27.8778 245.847 28.1592 245.987 28.4004C246.131 28.6416 246.334 28.8299 246.596 28.9653C246.863 29.0965 247.176 29.1621 247.536 29.1621C247.895 29.1621 248.204 29.1007 248.462 28.978C248.725 28.8511 248.926 28.6606 249.065 28.4067C249.209 28.1528 249.281 27.8333 249.281 27.4482C249.281 27.0632 249.201 26.7479 249.04 26.5024C248.879 26.2528 248.651 26.0687 248.354 25.9502C248.062 25.8275 247.718 25.7661 247.32 25.7661H246.482ZM258.136 29.0352V30H252.087V29.1558L255.115 25.7852C255.487 25.3704 255.775 25.0192 255.978 24.7314C256.185 24.4395 256.329 24.1792 256.41 23.9507C256.494 23.7179 256.537 23.481 256.537 23.2397C256.537 22.9351 256.473 22.66 256.346 22.4146C256.223 22.1649 256.042 21.966 255.8 21.8179C255.559 21.6698 255.267 21.5957 254.924 21.5957C254.514 21.5957 254.171 21.6761 253.896 21.8369C253.625 21.9935 253.422 22.2135 253.287 22.4971C253.151 22.7806 253.083 23.1064 253.083 23.4746H251.909C251.909 22.9541 252.023 22.478 252.252 22.0464C252.48 21.6147 252.819 21.272 253.268 21.0181C253.716 20.7599 254.268 20.6309 254.924 20.6309C255.508 20.6309 256.008 20.7345 256.422 20.9419C256.837 21.145 257.154 21.4328 257.375 21.8052C257.599 22.1733 257.711 22.605 257.711 23.1001C257.711 23.3709 257.664 23.646 257.571 23.9253C257.482 24.2004 257.358 24.4754 257.197 24.7505C257.04 25.0256 256.856 25.2964 256.645 25.563C256.437 25.8296 256.215 26.092 255.978 26.3501L253.502 29.0352H258.136ZM260.694 24.4521V32.6406H259.514V23.1318H260.593L260.694 24.4521ZM265.322 26.5088V26.6421C265.322 27.1414 265.263 27.6048 265.144 28.0322C265.026 28.4554 264.852 28.8236 264.624 29.1367C264.399 29.4499 264.122 29.6932 263.792 29.8667C263.462 30.0402 263.083 30.127 262.656 30.127C262.22 30.127 261.835 30.055 261.5 29.9111C261.166 29.7673 260.883 29.5578 260.65 29.2827C260.417 29.0076 260.231 28.6776 260.091 28.2925C259.956 27.9074 259.863 27.4736 259.812 26.9912V26.2803C259.863 25.7725 259.958 25.3175 260.098 24.9155C260.237 24.5135 260.421 24.1707 260.65 23.8872C260.883 23.5994 261.164 23.3815 261.494 23.2334C261.824 23.0811 262.205 23.0049 262.637 23.0049C263.068 23.0049 263.451 23.0895 263.786 23.2588C264.12 23.4238 264.401 23.6608 264.63 23.9697C264.858 24.2786 265.03 24.6489 265.144 25.0806C265.263 25.508 265.322 25.984 265.322 26.5088ZM264.141 26.6421V26.5088C264.141 26.166 264.105 25.8444 264.033 25.5439C263.961 25.2393 263.849 24.9727 263.697 24.7441C263.549 24.5114 263.358 24.3294 263.125 24.1982C262.893 24.0628 262.616 23.9951 262.294 23.9951C261.998 23.9951 261.74 24.0459 261.52 24.1475C261.304 24.249 261.12 24.3866 260.967 24.5601C260.815 24.7293 260.69 24.924 260.593 25.144C260.5 25.3599 260.43 25.5841 260.383 25.8169V27.4609C260.468 27.7572 260.586 28.0365 260.739 28.2988C260.891 28.557 261.094 28.7664 261.348 28.9272C261.602 29.0838 261.922 29.1621 262.307 29.1621C262.624 29.1621 262.897 29.0965 263.125 28.9653C263.358 28.8299 263.549 28.6458 263.697 28.4131C263.849 28.1803 263.961 27.9137 264.033 27.6133C264.105 27.3086 264.141 26.9849 264.141 26.6421ZM267.512 23.1318L269.016 25.6328L270.54 23.1318H271.917L269.67 26.5215L271.987 30H270.628L269.042 27.4229L267.455 30H266.09L268.4 26.5215L266.16 23.1318H267.512Z" fill="#333333"/>
<path d="M39.6274 20.707V30H38.4531V22.1733L36.0854 23.0366V21.9766L39.4434 20.707H39.6274ZM47.5874 20.7451H47.689V21.7417H47.5874C46.9653 21.7417 46.4448 21.8433 46.0259 22.0464C45.6069 22.2453 45.2747 22.514 45.0293 22.8525C44.7839 23.1868 44.6061 23.5635 44.4961 23.9824C44.3903 24.4014 44.3374 24.8267 44.3374 25.2583V26.6167C44.3374 27.0272 44.3861 27.3911 44.4834 27.7085C44.5807 28.0216 44.714 28.2861 44.8833 28.502C45.0526 28.7178 45.243 28.8807 45.4546 28.9907C45.6704 29.1007 45.8947 29.1558 46.1274 29.1558C46.3983 29.1558 46.6395 29.105 46.8511 29.0034C47.0627 28.8976 47.2404 28.7516 47.3843 28.5654C47.5324 28.375 47.6445 28.1507 47.7207 27.8926C47.7969 27.6344 47.835 27.3509 47.835 27.042C47.835 26.7669 47.8011 26.5024 47.7334 26.2485C47.6657 25.9904 47.562 25.7619 47.4224 25.563C47.2827 25.3599 47.1071 25.2012 46.8955 25.0869C46.6882 24.9684 46.4406 24.9092 46.1528 24.9092C45.827 24.9092 45.5223 24.9896 45.2388 25.1504C44.9595 25.307 44.7288 25.5143 44.5469 25.7725C44.3691 26.0264 44.2676 26.3035 44.2422 26.604L43.6201 26.5977C43.6794 26.1237 43.7894 25.7196 43.9502 25.3853C44.1152 25.0467 44.3184 24.7716 44.5596 24.5601C44.805 24.3442 45.078 24.1877 45.3784 24.0903C45.6831 23.9888 46.0047 23.938 46.3433 23.938C46.8045 23.938 47.2023 24.0247 47.5366 24.1982C47.8709 24.3717 48.146 24.6045 48.3618 24.8965C48.5776 25.1842 48.7363 25.5101 48.8379 25.874C48.9437 26.2337 48.9966 26.604 48.9966 26.9849C48.9966 27.4207 48.9352 27.8291 48.8125 28.21C48.6898 28.5908 48.5057 28.9251 48.2603 29.2129C48.019 29.5007 47.7207 29.7249 47.3652 29.8857C47.0098 30.0465 46.5972 30.127 46.1274 30.127C45.6281 30.127 45.1922 30.0254 44.8198 29.8223C44.4474 29.6149 44.1385 29.3398 43.8931 28.9971C43.6476 28.6543 43.4635 28.2734 43.3408 27.8545C43.2181 27.4355 43.1567 27.0103 43.1567 26.5786V26.0264C43.1567 25.3747 43.2223 24.7357 43.3535 24.1094C43.4847 23.4831 43.7111 22.916 44.0327 22.4082C44.3586 21.9004 44.8092 21.4963 45.3848 21.1958C45.9603 20.8953 46.6945 20.7451 47.5874 20.7451ZM51.6943 24.4521V32.6406H50.5137V23.1318H51.5928L51.6943 24.4521ZM56.3218 26.5088V26.6421C56.3218 27.1414 56.2625 27.6048 56.144 28.0322C56.0256 28.4554 55.8521 28.8236 55.6235 29.1367C55.3993 29.4499 55.1221 29.6932 54.792 29.8667C54.4619 30.0402 54.0832 30.127 53.6558 30.127C53.2199 30.127 52.8348 30.055 52.5005 29.9111C52.1662 29.7673 51.8826 29.5578 51.6499 29.2827C51.4172 29.0076 51.231 28.6776 51.0913 28.2925C50.9559 27.9074 50.8628 27.4736 50.812 26.9912V26.2803C50.8628 25.7725 50.958 25.3175 51.0977 24.9155C51.2373 24.5135 51.4214 24.1707 51.6499 23.8872C51.8826 23.5994 52.1641 23.3815 52.4941 23.2334C52.8242 23.0811 53.2051 23.0049 53.6367 23.0049C54.0684 23.0049 54.4513 23.0895 54.7856 23.2588C55.12 23.4238 55.4014 23.6608 55.6299 23.9697C55.8584 24.2786 56.0298 24.6489 56.144 25.0806C56.2625 25.508 56.3218 25.984 56.3218 26.5088ZM55.1411 26.6421V26.5088C55.1411 26.166 55.1051 25.8444 55.0332 25.5439C54.9613 25.2393 54.8491 24.9727 54.6968 24.7441C54.5487 24.5114 54.3582 24.3294 54.1255 24.1982C53.8927 24.0628 53.6156 23.9951 53.2939 23.9951C52.9977 23.9951 52.7396 24.0459 52.5195 24.1475C52.3037 24.249 52.1196 24.3866 51.9673 24.5601C51.8149 24.7293 51.6901 24.924 51.5928 25.144C51.4997 25.3599 51.4299 25.5841 51.3833 25.8169V27.4609C51.4679 27.7572 51.5864 28.0365 51.7388 28.2988C51.8911 28.557 52.0942 28.7664 52.3481 28.9272C52.6021 29.0838 52.9215 29.1621 53.3066 29.1621C53.624 29.1621 53.897 29.0965 54.1255 28.9653C54.3582 28.8299 54.5487 28.6458 54.6968 28.4131C54.8491 28.1803 54.9613 27.9137 55.0332 27.6133C55.1051 27.3086 55.1411 26.9849 55.1411 26.6421ZM58.5117 23.1318L60.0161 25.6328L61.5396 23.1318H62.917L60.6699 26.5215L62.9868 30H61.6284L60.0415 27.4229L58.4546 30H57.0898L59.4004 26.5215L57.1597 23.1318H58.5117Z" fill="#333333"/>
<path d="M250 40.5H267M250 40.5V36M250 40.5V45M267 40.5V36M267 40.5V45" stroke="#0059FF"/>
<path d="M41 40.5H57M41 40.5V36M41 40.5V45M57 40.5V36M57 40.5V45" stroke="#0059FF"/>
</svg>
