<svg width="592" height="232" viewBox="0 0 592 232" fill="none" xmlns="http://www.w3.org/2000/svg">
<rect width="592" height="232" rx="4" fill="#F8F8F8"/>
<rect opacity="0.1" x="41" y="48" width="519" height="160" fill="#0059FF"/>
<rect x="41" y="48" width="16" height="160" fill="#FCCECD"/>
<rect x="544" y="48" width="16" height="160" fill="#FCCECD"/>
<g opacity="0.25">
<rect x="57" y="48" width="25.9167" height="160" fill="#0059FF"/>
<rect x="98.9167" y="48" width="25.9167" height="160" fill="#0059FF"/>
<rect x="140.833" y="48" width="25.9167" height="160" fill="#0059FF"/>
<rect x="182.75" y="48" width="25.9167" height="160" fill="#0059FF"/>
<rect x="224.667" y="48" width="25.9167" height="160" fill="#0059FF"/>
<rect x="266.583" y="48" width="25.9167" height="160" fill="#0059FF"/>
<rect x="308.5" y="48" width="25.9167" height="160" fill="#0059FF"/>
<rect x="350.417" y="48" width="25.9167" height="160" fill="#0059FF"/>
<rect x="392.333" y="48" width="25.9167" height="160" fill="#0059FF"/>
<rect x="434.25" y="48" width="25.9167" height="160" fill="#0059FF"/>
<rect x="476.167" y="48" width="25.9167" height="160" fill="#0059FF"/>
<rect x="518.083" y="48" width="25.9167" height="160" fill="#0059FF"/>
</g>
<path d="M94.6523 31.061H95.8711C95.8076 31.645 95.6405 32.1676 95.3696 32.6289C95.0988 33.0902 94.7158 33.4562 94.2207 33.7271C93.7256 33.9937 93.1077 34.127 92.3672 34.127C91.8255 34.127 91.3325 34.0254 90.8882 33.8223C90.4481 33.6191 90.0693 33.3314 89.752 32.959C89.4346 32.5824 89.1891 32.1317 89.0156 31.6069C88.8464 31.078 88.7617 30.4897 88.7617 29.8423V28.9219C88.7617 28.2744 88.8464 27.6883 89.0156 27.1636C89.1891 26.6346 89.4367 26.1818 89.7583 25.8052C90.0841 25.4285 90.4756 25.1387 90.9326 24.9355C91.3896 24.7324 91.9038 24.6309 92.4751 24.6309C93.1733 24.6309 93.7637 24.762 94.2461 25.0244C94.7285 25.2868 95.103 25.6507 95.3696 26.1162C95.6405 26.5775 95.8076 27.1128 95.8711 27.7222H94.6523C94.5931 27.2905 94.4831 26.9202 94.3223 26.6113C94.1615 26.2982 93.9329 26.057 93.6367 25.8877C93.3405 25.7184 92.9533 25.6338 92.4751 25.6338C92.0646 25.6338 91.7028 25.7121 91.3896 25.8687C91.0807 26.0252 90.8205 26.2474 90.6089 26.5352C90.4015 26.8229 90.245 27.1678 90.1392 27.5698C90.0334 27.9718 89.9805 28.4183 89.9805 28.9092V29.8423C89.9805 30.2951 90.027 30.7204 90.1201 31.1182C90.2174 31.516 90.3634 31.8651 90.5581 32.1655C90.7528 32.466 91.0003 32.703 91.3008 32.8765C91.6012 33.0457 91.9567 33.1304 92.3672 33.1304C92.8877 33.1304 93.3024 33.0479 93.6113 32.8828C93.9202 32.7178 94.153 32.4808 94.3096 32.1719C94.4704 31.863 94.5846 31.4927 94.6523 31.061ZM97.0518 30.6421V30.4961C97.0518 30.001 97.1237 29.5418 97.2676 29.1187C97.4115 28.6912 97.6188 28.321 97.8896 28.0078C98.1605 27.6904 98.4884 27.445 98.8735 27.2715C99.2586 27.0938 99.6903 27.0049 100.168 27.0049C100.651 27.0049 101.085 27.0938 101.47 27.2715C101.859 27.445 102.189 27.6904 102.46 28.0078C102.735 28.321 102.944 28.6912 103.088 29.1187C103.232 29.5418 103.304 30.001 103.304 30.4961V30.6421C103.304 31.1372 103.232 31.5964 103.088 32.0195C102.944 32.4427 102.735 32.813 102.46 33.1304C102.189 33.4435 101.861 33.689 101.476 33.8667C101.095 34.0402 100.664 34.127 100.181 34.127C99.6987 34.127 99.265 34.0402 98.8799 33.8667C98.4948 33.689 98.1647 33.4435 97.8896 33.1304C97.6188 32.813 97.4115 32.4427 97.2676 32.0195C97.1237 31.5964 97.0518 31.1372 97.0518 30.6421ZM98.2261 30.4961V30.6421C98.2261 30.9849 98.2663 31.3086 98.3467 31.6133C98.4271 31.9137 98.5477 32.1803 98.7085 32.4131C98.8735 32.6458 99.0788 32.8299 99.3242 32.9653C99.5697 33.0965 99.8553 33.1621 100.181 33.1621C100.503 33.1621 100.784 33.0965 101.025 32.9653C101.271 32.8299 101.474 32.6458 101.635 32.4131C101.796 32.1803 101.916 31.9137 101.997 31.6133C102.081 31.3086 102.124 30.9849 102.124 30.6421V30.4961C102.124 30.1576 102.081 29.8381 101.997 29.5376C101.916 29.2329 101.793 28.9642 101.628 28.7314C101.468 28.4945 101.264 28.3083 101.019 28.1729C100.778 28.0374 100.494 27.9697 100.168 27.9697C99.8468 27.9697 99.5633 28.0374 99.3179 28.1729C99.0767 28.3083 98.8735 28.4945 98.7085 28.7314C98.5477 28.9642 98.4271 29.2329 98.3467 29.5376C98.2663 29.8381 98.2261 30.1576 98.2261 30.4961ZM106.053 24.25V34H104.872V24.25H106.053ZM112.14 32.4131V27.1318H113.321V34H112.197L112.14 32.4131ZM112.362 30.9658L112.851 30.9531C112.851 31.4102 112.802 31.8333 112.705 32.2227C112.612 32.6077 112.46 32.9421 112.248 33.2256C112.036 33.5091 111.759 33.7313 111.417 33.8921C111.074 34.0487 110.657 34.127 110.166 34.127C109.832 34.127 109.525 34.0783 109.246 33.981C108.971 33.8836 108.734 33.7334 108.535 33.5303C108.336 33.3271 108.181 33.0627 108.071 32.7368C107.965 32.411 107.913 32.0195 107.913 31.5625V27.1318H109.087V31.5752C109.087 31.8841 109.121 32.1401 109.188 32.3433C109.26 32.5422 109.356 32.7008 109.474 32.8193C109.597 32.9336 109.732 33.014 109.88 33.0605C110.033 33.1071 110.189 33.1304 110.35 33.1304C110.849 33.1304 111.245 33.0352 111.537 32.8447C111.829 32.6501 112.039 32.3898 112.166 32.064C112.297 31.7339 112.362 31.3678 112.362 30.9658ZM116.279 28.4966V34H115.098V27.1318H116.215L116.279 28.4966ZM116.038 30.3057L115.492 30.2866C115.496 29.8169 115.557 29.3831 115.676 28.9854C115.794 28.5833 115.97 28.2342 116.203 27.938C116.435 27.6418 116.725 27.4132 117.072 27.2524C117.419 27.0874 117.821 27.0049 118.278 27.0049C118.6 27.0049 118.896 27.0514 119.167 27.1445C119.438 27.2334 119.673 27.3752 119.872 27.5698C120.07 27.7645 120.225 28.0142 120.335 28.3188C120.445 28.6235 120.5 28.9917 120.5 29.4233V34H119.326V29.4805C119.326 29.1208 119.264 28.833 119.142 28.6172C119.023 28.4014 118.854 28.2448 118.634 28.1475C118.414 28.0459 118.156 27.9951 117.859 27.9951C117.512 27.9951 117.222 28.0565 116.99 28.1792C116.757 28.3019 116.571 28.4712 116.431 28.687C116.292 28.9028 116.19 29.1504 116.126 29.4297C116.067 29.7048 116.038 29.9967 116.038 30.3057ZM120.487 29.6582L119.7 29.8994C119.704 29.5228 119.766 29.161 119.884 28.814C120.007 28.467 120.183 28.158 120.411 27.8872C120.644 27.6164 120.93 27.4027 121.268 27.2461C121.607 27.0853 121.994 27.0049 122.43 27.0049C122.798 27.0049 123.124 27.0535 123.407 27.1509C123.695 27.2482 123.936 27.3984 124.131 27.6016C124.33 27.8005 124.48 28.0565 124.582 28.3696C124.683 28.6828 124.734 29.0552 124.734 29.4868V34H123.553V29.4741C123.553 29.089 123.492 28.7907 123.369 28.5791C123.251 28.3633 123.081 28.2131 122.861 28.1284C122.646 28.0396 122.387 27.9951 122.087 27.9951C121.829 27.9951 121.6 28.0396 121.401 28.1284C121.202 28.2173 121.035 28.34 120.9 28.4966C120.764 28.6489 120.661 28.8245 120.589 29.0234C120.521 29.2223 120.487 29.4339 120.487 29.6582ZM127.686 28.5981V34H126.511V27.1318H127.622L127.686 28.5981ZM127.406 30.3057L126.917 30.2866C126.922 29.8169 126.992 29.3831 127.127 28.9854C127.262 28.5833 127.453 28.2342 127.698 27.938C127.944 27.6418 128.236 27.4132 128.574 27.2524C128.917 27.0874 129.296 27.0049 129.71 27.0049C130.049 27.0049 130.354 27.0514 130.625 27.1445C130.895 27.2334 131.126 27.3773 131.316 27.5762C131.511 27.7751 131.659 28.0332 131.761 28.3506C131.862 28.6637 131.913 29.0467 131.913 29.4995V34H130.732V29.4868C130.732 29.1271 130.68 28.8394 130.574 28.6235C130.468 28.4035 130.313 28.2448 130.11 28.1475C129.907 28.0459 129.658 27.9951 129.361 27.9951C129.069 27.9951 128.803 28.0565 128.562 28.1792C128.325 28.3019 128.119 28.4712 127.946 28.687C127.777 28.9028 127.643 29.1504 127.546 29.4297C127.453 29.7048 127.406 29.9967 127.406 30.3057Z" fill="#333333"/>
<path d="M246.903 29.3979V32.7812C246.789 32.9505 246.607 33.141 246.357 33.3525C246.107 33.5599 245.762 33.7419 245.322 33.8984C244.886 34.0508 244.324 34.127 243.634 34.127C243.071 34.127 242.553 34.0296 242.079 33.835C241.609 33.6361 241.201 33.3483 240.854 32.9717C240.511 32.5908 240.244 32.1296 240.054 31.5879C239.868 31.042 239.774 30.4242 239.774 29.7344V29.0171C239.774 28.3273 239.855 27.7116 240.016 27.1699C240.181 26.6283 240.422 26.1691 240.739 25.7925C241.057 25.4116 241.446 25.1239 241.907 24.9292C242.368 24.7303 242.897 24.6309 243.494 24.6309C244.201 24.6309 244.791 24.7536 245.265 24.999C245.743 25.2402 246.116 25.5745 246.382 26.002C246.653 26.4294 246.827 26.916 246.903 27.4619H245.678C245.623 27.1276 245.513 26.8229 245.348 26.5479C245.187 26.2728 244.956 26.0527 244.656 25.8877C244.355 25.7184 243.968 25.6338 243.494 25.6338C243.067 25.6338 242.696 25.7121 242.383 25.8687C242.07 26.0252 241.812 26.2495 241.609 26.5415C241.406 26.8335 241.253 27.1868 241.152 27.6016C241.055 28.0163 241.006 28.4839 241.006 29.0044V29.7344C241.006 30.2676 241.067 30.7437 241.19 31.1626C241.317 31.5815 241.497 31.9391 241.729 32.2354C241.962 32.5273 242.239 32.7495 242.561 32.9019C242.887 33.0542 243.247 33.1304 243.64 33.1304C244.076 33.1304 244.429 33.0944 244.7 33.0225C244.971 32.9463 245.183 32.8574 245.335 32.7559C245.487 32.6501 245.604 32.5506 245.684 32.4575V30.3882H243.545V29.3979H246.903ZM252.958 32.4131V27.1318H254.139V34H253.016L252.958 32.4131ZM253.181 30.9658L253.669 30.9531C253.669 31.4102 253.621 31.8333 253.523 32.2227C253.43 32.6077 253.278 32.9421 253.066 33.2256C252.855 33.5091 252.578 33.7313 252.235 33.8921C251.892 34.0487 251.475 34.127 250.984 34.127C250.65 34.127 250.343 34.0783 250.064 33.981C249.789 33.8836 249.552 33.7334 249.353 33.5303C249.154 33.3271 249 33.0627 248.89 32.7368C248.784 32.411 248.731 32.0195 248.731 31.5625V27.1318H249.905V31.5752C249.905 31.8841 249.939 32.1401 250.007 32.3433C250.079 32.5422 250.174 32.7008 250.292 32.8193C250.415 32.9336 250.551 33.014 250.699 33.0605C250.851 33.1071 251.008 33.1304 251.168 33.1304C251.668 33.1304 252.063 33.0352 252.355 32.8447C252.647 32.6501 252.857 32.3898 252.984 32.064C253.115 31.7339 253.181 31.3678 253.181 30.9658ZM258.805 27.1318V28.0332H255.091V27.1318H258.805ZM256.348 25.4624H257.522V32.2988C257.522 32.5316 257.558 32.7072 257.63 32.8257C257.702 32.9442 257.795 33.0225 257.91 33.0605C258.024 33.0986 258.147 33.1177 258.278 33.1177C258.375 33.1177 258.477 33.1092 258.583 33.0923C258.693 33.0711 258.775 33.0542 258.83 33.0415L258.836 34C258.743 34.0296 258.621 34.0571 258.468 34.0825C258.32 34.1121 258.14 34.127 257.929 34.127C257.641 34.127 257.376 34.0698 257.135 33.9556C256.894 33.8413 256.701 33.6509 256.558 33.3843C256.418 33.1134 256.348 32.7495 256.348 32.2925V25.4624ZM263.058 27.1318V28.0332H259.344V27.1318H263.058ZM260.601 25.4624H261.775V32.2988C261.775 32.5316 261.811 32.7072 261.883 32.8257C261.955 32.9442 262.048 33.0225 262.163 33.0605C262.277 33.0986 262.4 33.1177 262.531 33.1177C262.628 33.1177 262.73 33.1092 262.835 33.0923C262.945 33.0711 263.028 33.0542 263.083 33.0415L263.089 34C262.996 34.0296 262.874 34.0571 262.721 34.0825C262.573 34.1121 262.393 34.127 262.182 34.127C261.894 34.127 261.629 34.0698 261.388 33.9556C261.147 33.8413 260.954 33.6509 260.811 33.3843C260.671 33.1134 260.601 32.7495 260.601 32.2925V25.4624ZM267.285 34.127C266.807 34.127 266.373 34.0465 265.984 33.8857C265.599 33.7207 265.267 33.4901 264.987 33.1938C264.712 32.8976 264.501 32.5464 264.353 32.1401C264.204 31.7339 264.13 31.2896 264.13 30.8071V30.5405C264.13 29.9819 264.213 29.4847 264.378 29.0488C264.543 28.6087 264.767 28.2363 265.051 27.9316C265.334 27.627 265.656 27.3963 266.016 27.2397C266.375 27.0832 266.748 27.0049 267.133 27.0049C267.624 27.0049 268.047 27.0895 268.402 27.2588C268.762 27.4281 269.056 27.665 269.285 27.9697C269.513 28.2702 269.682 28.6257 269.792 29.0361C269.903 29.4424 269.958 29.8867 269.958 30.3691V30.896H264.829V29.9375H268.783V29.8486C268.766 29.5439 268.703 29.2477 268.593 28.96C268.487 28.6722 268.318 28.4352 268.085 28.249C267.852 28.0628 267.535 27.9697 267.133 27.9697C266.866 27.9697 266.621 28.0269 266.396 28.1411C266.172 28.2511 265.98 28.4162 265.819 28.6362C265.658 28.8563 265.533 29.125 265.444 29.4424C265.355 29.7598 265.311 30.1258 265.311 30.5405V30.8071C265.311 31.133 265.355 31.4398 265.444 31.7275C265.537 32.0111 265.671 32.2607 265.844 32.4766C266.022 32.6924 266.236 32.8617 266.485 32.9844C266.739 33.1071 267.027 33.1685 267.349 33.1685C267.763 33.1685 268.115 33.0838 268.402 32.9146C268.69 32.7453 268.942 32.5189 269.158 32.2354L269.869 32.8003C269.721 33.0246 269.532 33.2383 269.304 33.4414C269.075 33.6445 268.794 33.8096 268.459 33.9365C268.129 34.0635 267.738 34.127 267.285 34.127ZM272.503 28.2109V34H271.329V27.1318H272.471L272.503 28.2109ZM274.648 27.0938L274.642 28.1855C274.545 28.1644 274.452 28.1517 274.363 28.1475C274.278 28.139 274.181 28.1348 274.071 28.1348C273.8 28.1348 273.561 28.1771 273.354 28.2617C273.146 28.3464 272.971 28.4648 272.827 28.6172C272.683 28.7695 272.569 28.9515 272.484 29.1631C272.403 29.3704 272.351 29.599 272.325 29.8486L271.995 30.0391C271.995 29.6243 272.035 29.235 272.116 28.8711C272.2 28.5072 272.329 28.1855 272.503 27.9062C272.676 27.6227 272.896 27.4027 273.163 27.2461C273.434 27.0853 273.756 27.0049 274.128 27.0049C274.213 27.0049 274.31 27.0155 274.42 27.0366C274.53 27.0535 274.606 27.0726 274.648 27.0938Z" fill="#333333"/>
<path d="M530.46 24.7578H531.647L534.675 32.2925L537.696 24.7578H538.89L535.132 34H534.205L530.46 24.7578ZM530.073 24.7578H531.12L531.292 30.3945V34H530.073V24.7578ZM538.223 24.7578H539.271V34H538.052V30.3945L538.223 24.7578ZM545.294 32.8257V29.29C545.294 29.0192 545.239 28.7843 545.129 28.5854C545.024 28.3823 544.863 28.2257 544.647 28.1157C544.431 28.0057 544.165 27.9507 543.847 27.9507C543.551 27.9507 543.291 28.0015 543.066 28.103C542.846 28.2046 542.673 28.3379 542.546 28.5029C542.423 28.668 542.362 28.8457 542.362 29.0361H541.188C541.188 28.7907 541.251 28.5474 541.378 28.3062C541.505 28.0649 541.687 27.847 541.924 27.6523C542.165 27.4535 542.453 27.2969 542.787 27.1826C543.126 27.0641 543.502 27.0049 543.917 27.0049C544.416 27.0049 544.856 27.0895 545.237 27.2588C545.622 27.4281 545.923 27.6841 546.139 28.0269C546.359 28.3654 546.469 28.7907 546.469 29.3027V32.502C546.469 32.7305 546.488 32.9738 546.526 33.2319C546.568 33.4901 546.63 33.7122 546.71 33.8984V34H545.485C545.426 33.8646 545.379 33.6847 545.345 33.4604C545.311 33.2319 545.294 33.0203 545.294 32.8257ZM545.498 29.8359L545.51 30.6611H544.323C543.989 30.6611 543.691 30.6886 543.428 30.7437C543.166 30.7944 542.946 30.8727 542.768 30.9785C542.59 31.0843 542.455 31.2176 542.362 31.3784C542.269 31.535 542.222 31.7191 542.222 31.9307C542.222 32.1465 542.271 32.3433 542.368 32.521C542.465 32.6987 542.611 32.8405 542.806 32.9463C543.005 33.0479 543.248 33.0986 543.536 33.0986C543.896 33.0986 544.213 33.0225 544.488 32.8701C544.763 32.7178 544.981 32.5316 545.142 32.3115C545.307 32.0915 545.396 31.8778 545.409 31.6704L545.91 32.2354C545.881 32.4131 545.8 32.6099 545.669 32.8257C545.538 33.0415 545.362 33.2489 545.142 33.4478C544.926 33.6424 544.668 33.8053 544.368 33.9365C544.071 34.0635 543.737 34.127 543.365 34.127C542.899 34.127 542.491 34.036 542.14 33.854C541.793 33.672 541.522 33.4287 541.327 33.124C541.137 32.8151 541.042 32.4702 541.042 32.0894C541.042 31.7212 541.113 31.3975 541.257 31.1182C541.401 30.8346 541.609 30.5998 541.879 30.4136C542.15 30.2231 542.476 30.0793 542.857 29.9819C543.238 29.8846 543.663 29.8359 544.133 29.8359H545.498ZM549.49 28.2109V34H548.316V27.1318H549.458L549.49 28.2109ZM551.636 27.0938L551.629 28.1855C551.532 28.1644 551.439 28.1517 551.35 28.1475C551.265 28.139 551.168 28.1348 551.058 28.1348C550.787 28.1348 550.548 28.1771 550.341 28.2617C550.133 28.3464 549.958 28.4648 549.814 28.6172C549.67 28.7695 549.556 28.9515 549.471 29.1631C549.391 29.3704 549.338 29.599 549.312 29.8486L548.982 30.0391C548.982 29.6243 549.023 29.235 549.103 28.8711C549.188 28.5072 549.317 28.1855 549.49 27.9062C549.664 27.6227 549.884 27.4027 550.15 27.2461C550.421 27.0853 550.743 27.0049 551.115 27.0049C551.2 27.0049 551.297 27.0155 551.407 27.0366C551.517 27.0535 551.593 27.0726 551.636 27.0938ZM557.044 27.1318H558.11V33.854C558.11 34.4591 557.988 34.9754 557.742 35.4028C557.497 35.8302 557.154 36.154 556.714 36.374C556.278 36.5983 555.774 36.7104 555.203 36.7104C554.966 36.7104 554.687 36.6724 554.365 36.5962C554.048 36.5243 553.735 36.3994 553.426 36.2217C553.121 36.0482 552.865 35.8133 552.658 35.5171L553.273 34.8188C553.561 35.1659 553.862 35.4071 554.175 35.5425C554.492 35.6779 554.805 35.7456 555.114 35.7456C555.487 35.7456 555.808 35.6758 556.079 35.5361C556.35 35.3965 556.559 35.1891 556.708 34.9141C556.86 34.6432 556.936 34.3089 556.936 33.9111V28.6426L557.044 27.1318ZM552.315 30.6421V30.5088C552.315 29.984 552.376 29.508 552.499 29.0806C552.626 28.6489 552.806 28.2786 553.039 27.9697C553.276 27.6608 553.561 27.4238 553.896 27.2588C554.23 27.0895 554.606 27.0049 555.025 27.0049C555.457 27.0049 555.834 27.0811 556.155 27.2334C556.481 27.3815 556.756 27.5994 556.98 27.8872C557.209 28.1707 557.389 28.5135 557.52 28.9155C557.651 29.3175 557.742 29.7725 557.793 30.2803V30.8643C557.746 31.3678 557.655 31.8206 557.52 32.2227C557.389 32.6247 557.209 32.9674 556.98 33.251C556.756 33.5345 556.481 33.7524 556.155 33.9048C555.829 34.0529 555.449 34.127 555.013 34.127C554.602 34.127 554.23 34.0402 553.896 33.8667C553.565 33.6932 553.282 33.4499 553.045 33.1367C552.808 32.8236 552.626 32.4554 552.499 32.0322C552.376 31.6048 552.315 31.1414 552.315 30.6421ZM553.489 30.5088V30.6421C553.489 30.9849 553.523 31.3065 553.591 31.6069C553.663 31.9074 553.771 32.1719 553.915 32.4004C554.063 32.6289 554.251 32.8088 554.479 32.9399C554.708 33.0669 554.981 33.1304 555.298 33.1304C555.688 33.1304 556.009 33.0479 556.263 32.8828C556.517 32.7178 556.718 32.4998 556.866 32.229C557.019 31.9582 557.137 31.6641 557.222 31.3467V29.8169C557.175 29.5841 557.103 29.3599 557.006 29.144C556.913 28.924 556.79 28.7293 556.638 28.5601C556.49 28.3866 556.306 28.249 556.085 28.1475C555.865 28.0459 555.607 27.9951 555.311 27.9951C554.989 27.9951 554.712 28.0628 554.479 28.1982C554.251 28.3294 554.063 28.5114 553.915 28.7441C553.771 28.9727 553.663 29.2393 553.591 29.5439C553.523 29.8444 553.489 30.166 553.489 30.5088ZM561.17 27.1318V34H559.989V27.1318H561.17ZM559.9 25.3101C559.9 25.1196 559.958 24.9588 560.072 24.8276C560.19 24.6965 560.364 24.6309 560.592 24.6309C560.817 24.6309 560.988 24.6965 561.106 24.8276C561.229 24.9588 561.291 25.1196 561.291 25.3101C561.291 25.492 561.229 25.6486 561.106 25.7798C560.988 25.9067 560.817 25.9702 560.592 25.9702C560.364 25.9702 560.19 25.9067 560.072 25.7798C559.958 25.6486 559.9 25.492 559.9 25.3101ZM564.229 28.5981V34H563.055V27.1318H564.166L564.229 28.5981ZM563.95 30.3057L563.461 30.2866C563.466 29.8169 563.535 29.3831 563.671 28.9854C563.806 28.5833 563.997 28.2342 564.242 27.938C564.488 27.6418 564.78 27.4132 565.118 27.2524C565.461 27.0874 565.84 27.0049 566.254 27.0049C566.593 27.0049 566.898 27.0514 567.168 27.1445C567.439 27.2334 567.67 27.3773 567.86 27.5762C568.055 27.7751 568.203 28.0332 568.305 28.3506C568.406 28.6637 568.457 29.0467 568.457 29.4995V34H567.276V29.4868C567.276 29.1271 567.223 28.8394 567.118 28.6235C567.012 28.4035 566.857 28.2448 566.654 28.1475C566.451 28.0459 566.201 27.9951 565.905 27.9951C565.613 27.9951 565.347 28.0565 565.105 28.1792C564.868 28.3019 564.663 28.4712 564.49 28.687C564.32 28.9028 564.187 29.1504 564.09 29.4297C563.997 29.7048 563.95 29.9967 563.95 30.3057Z" fill="#333333"/>
<path d="M111 60.8868L113.887 58L111 55.1132L108.113 58L111 60.8868ZM110.5 42L110.5 58L111.5 58L111.5 42L110.5 42Z" fill="#0059FF"/>
<path d="M258 60.8868L260.887 58L258 55.1132L255.113 58L258 60.8868ZM257.5 42L257.5 58L258.5 58L258.5 42L257.5 42Z" fill="#0059FF"/>
<path d="M552 60.8868L554.887 58L552 55.1132L549.113 58L552 60.8868ZM551.5 42L551.5 58L552.5 58L552.5 42L551.5 42Z" fill="#0059FF"/>
</svg>
