<svg width="592" height="232" viewBox="0 0 592 232" fill="none" xmlns="http://www.w3.org/2000/svg">
<rect width="592" height="232" rx="4" fill="#F8F8F8"/>
<rect x="88.5" y="32.5" width="443" height="173" fill="#F2F2F2" stroke="#E6E6E6"/>
<rect x="89" y="33" width="442" height="40" fill="white"/>
<rect x="104" y="41" width="24" height="24" rx="6" fill="#AAAAAA"/>
<rect x="307" y="49" width="56" height="8" rx="4" fill="#AAAAAA"/>
<rect x="379" y="49" width="56" height="8" rx="4" fill="#AAAAAA"/>
<rect x="451" y="41" width="64" height="24" rx="4" fill="#AAAAAA"/>
<path d="M104.5 91C104.5 90.1716 105.172 89.5 106 89.5H371C371.828 89.5 372.5 90.1716 372.5 91V205.5H104.5V91Z" fill="white" stroke="#E6E6E6"/>
<path d="M389.5 91C389.5 90.1716 390.172 89.5 391 89.5H514C514.828 89.5 515.5 90.1716 515.5 91V205.5H389.5V91Z" fill="white" stroke="#E6E6E6"/>
<line x1="84" y1="32.5" x2="536" y2="32.5" stroke="#0059FF"/>
<line x1="84" y1="40.5" x2="536" y2="40.5" stroke="#0059FF"/>
<line x1="84" y1="89.5" x2="536" y2="89.5" stroke="#0059FF"/>
<line x1="84" y1="72.5" x2="536" y2="72.5" stroke="#0059FF"/>
<path d="M42.6274 28.707V38H41.4531V30.1733L39.0854 31.0366V29.9766L42.4434 28.707H42.6274ZM50.5874 28.7451H50.689V29.7417H50.5874C49.9653 29.7417 49.4448 29.8433 49.0259 30.0464C48.6069 30.2453 48.2747 30.514 48.0293 30.8525C47.7839 31.1868 47.6061 31.5635 47.4961 31.9824C47.3903 32.4014 47.3374 32.8267 47.3374 33.2583V34.6167C47.3374 35.0272 47.3861 35.3911 47.4834 35.7085C47.5807 36.0216 47.714 36.2861 47.8833 36.502C48.0526 36.7178 48.243 36.8807 48.4546 36.9907C48.6704 37.1007 48.8947 37.1558 49.1274 37.1558C49.3983 37.1558 49.6395 37.105 49.8511 37.0034C50.0627 36.8976 50.2404 36.7516 50.3843 36.5654C50.5324 36.375 50.6445 36.1507 50.7207 35.8926C50.7969 35.6344 50.835 35.3509 50.835 35.042C50.835 34.7669 50.8011 34.5024 50.7334 34.2485C50.6657 33.9904 50.562 33.7619 50.4224 33.563C50.2827 33.3599 50.1071 33.2012 49.8955 33.0869C49.6882 32.9684 49.4406 32.9092 49.1528 32.9092C48.827 32.9092 48.5223 32.9896 48.2388 33.1504C47.9595 33.307 47.7288 33.5143 47.5469 33.7725C47.3691 34.0264 47.2676 34.3035 47.2422 34.604L46.6201 34.5977C46.6794 34.1237 46.7894 33.7196 46.9502 33.3853C47.1152 33.0467 47.3184 32.7716 47.5596 32.5601C47.805 32.3442 48.078 32.1877 48.3784 32.0903C48.6831 31.9888 49.0047 31.938 49.3433 31.938C49.8045 31.938 50.2023 32.0247 50.5366 32.1982C50.8709 32.3717 51.146 32.6045 51.3618 32.8965C51.5776 33.1842 51.7363 33.5101 51.8379 33.874C51.9437 34.2337 51.9966 34.604 51.9966 34.9849C51.9966 35.4207 51.9352 35.8291 51.8125 36.21C51.6898 36.5908 51.5057 36.9251 51.2603 37.2129C51.019 37.5007 50.7207 37.7249 50.3652 37.8857C50.0098 38.0465 49.5972 38.127 49.1274 38.127C48.6281 38.127 48.1922 38.0254 47.8198 37.8223C47.4474 37.6149 47.1385 37.3398 46.8931 36.9971C46.6476 36.6543 46.4635 36.2734 46.3408 35.8545C46.2181 35.4355 46.1567 35.0103 46.1567 34.5786V34.0264C46.1567 33.3747 46.2223 32.7357 46.3535 32.1094C46.4847 31.4831 46.7111 30.916 47.0327 30.4082C47.3586 29.9004 47.8092 29.4963 48.3848 29.1958C48.9603 28.8953 49.6945 28.7451 50.5874 28.7451ZM54.6943 32.4521V40.6406H53.5137V31.1318H54.5928L54.6943 32.4521ZM59.3218 34.5088V34.6421C59.3218 35.1414 59.2625 35.6048 59.144 36.0322C59.0256 36.4554 58.8521 36.8236 58.6235 37.1367C58.3993 37.4499 58.1221 37.6932 57.792 37.8667C57.4619 38.0402 57.0832 38.127 56.6558 38.127C56.2199 38.127 55.8348 38.055 55.5005 37.9111C55.1662 37.7673 54.8826 37.5578 54.6499 37.2827C54.4172 37.0076 54.231 36.6776 54.0913 36.2925C53.9559 35.9074 53.8628 35.4736 53.812 34.9912V34.2803C53.8628 33.7725 53.958 33.3175 54.0977 32.9155C54.2373 32.5135 54.4214 32.1707 54.6499 31.8872C54.8826 31.5994 55.1641 31.3815 55.4941 31.2334C55.8242 31.0811 56.2051 31.0049 56.6367 31.0049C57.0684 31.0049 57.4513 31.0895 57.7856 31.2588C58.12 31.4238 58.4014 31.6608 58.6299 31.9697C58.8584 32.2786 59.0298 32.6489 59.144 33.0806C59.2625 33.508 59.3218 33.984 59.3218 34.5088ZM58.1411 34.6421V34.5088C58.1411 34.166 58.1051 33.8444 58.0332 33.5439C57.9613 33.2393 57.8491 32.9727 57.6968 32.7441C57.5487 32.5114 57.3582 32.3294 57.1255 32.1982C56.8927 32.0628 56.6156 31.9951 56.2939 31.9951C55.9977 31.9951 55.7396 32.0459 55.5195 32.1475C55.3037 32.249 55.1196 32.3866 54.9673 32.5601C54.8149 32.7293 54.6901 32.924 54.5928 33.144C54.4997 33.3599 54.4299 33.5841 54.3833 33.8169V35.4609C54.4679 35.7572 54.5864 36.0365 54.7388 36.2988C54.8911 36.557 55.0942 36.7664 55.3481 36.9272C55.6021 37.0838 55.9215 37.1621 56.3066 37.1621C56.624 37.1621 56.897 37.0965 57.1255 36.9653C57.3582 36.8299 57.5487 36.6458 57.6968 36.4131C57.8491 36.1803 57.9613 35.9137 58.0332 35.6133C58.1051 35.3086 58.1411 34.9849 58.1411 34.6421ZM61.5117 31.1318L63.0161 33.6328L64.5396 31.1318H65.917L63.6699 34.5215L65.9868 38H64.6284L63.0415 35.4229L61.4546 38H60.0898L62.4004 34.5215L60.1597 31.1318H61.5117Z" fill="#333333"/>
<path d="M40.4819 77.8013H41.3198C41.7303 77.8013 42.0688 77.7336 42.3354 77.5981C42.6063 77.4585 42.8073 77.2702 42.9385 77.0332C43.0739 76.792 43.1416 76.5212 43.1416 76.2207C43.1416 75.8652 43.0824 75.5669 42.9639 75.3257C42.8454 75.0845 42.6676 74.9025 42.4307 74.7798C42.1937 74.6571 41.8932 74.5957 41.5293 74.5957C41.1992 74.5957 40.9072 74.6613 40.6533 74.7925C40.4036 74.9194 40.2069 75.1014 40.063 75.3384C39.9233 75.5754 39.8535 75.8547 39.8535 76.1763H38.6792C38.6792 75.7065 38.7977 75.2791 39.0347 74.894C39.2716 74.509 39.6038 74.2021 40.0312 73.9736C40.4629 73.7451 40.9622 73.6309 41.5293 73.6309C42.0879 73.6309 42.5767 73.7303 42.9956 73.9292C43.4146 74.1239 43.7404 74.4159 43.9731 74.8052C44.2059 75.1903 44.3223 75.6706 44.3223 76.2461C44.3223 76.4788 44.2673 76.7285 44.1572 76.9951C44.0514 77.2575 43.8843 77.5029 43.6558 77.7314C43.4315 77.96 43.1395 78.1483 42.7798 78.2964C42.4201 78.4403 41.9884 78.5122 41.4849 78.5122H40.4819V77.8013ZM40.4819 78.7661V78.0615H41.4849C42.0731 78.0615 42.5597 78.1313 42.9448 78.271C43.3299 78.4106 43.6325 78.5968 43.8525 78.8296C44.0768 79.0623 44.2334 79.3184 44.3223 79.5977C44.4154 79.8727 44.4619 80.1478 44.4619 80.4229C44.4619 80.8545 44.3879 81.2375 44.2397 81.5718C44.0959 81.9061 43.8906 82.1896 43.624 82.4224C43.3617 82.6551 43.0527 82.8307 42.6973 82.9492C42.3418 83.0677 41.9546 83.127 41.5356 83.127C41.1336 83.127 40.7549 83.0698 40.3994 82.9556C40.0482 82.8413 39.7371 82.6763 39.4663 82.4604C39.1955 82.2404 38.9839 81.9717 38.8315 81.6543C38.6792 81.3327 38.603 80.9666 38.603 80.5562H39.7773C39.7773 80.8778 39.8472 81.1592 39.9868 81.4004C40.1307 81.6416 40.3338 81.8299 40.5962 81.9653C40.8628 82.0965 41.1759 82.1621 41.5356 82.1621C41.8953 82.1621 42.2043 82.1007 42.4624 81.978C42.7248 81.8511 42.9258 81.6606 43.0654 81.4067C43.2093 81.1528 43.2812 80.8333 43.2812 80.4482C43.2812 80.0632 43.2008 79.7479 43.04 79.5024C42.8792 79.2528 42.6507 79.0687 42.3545 78.9502C42.0625 78.8275 41.7176 78.7661 41.3198 78.7661H40.4819ZM52.1362 82.0352V83H46.0869V82.1558L49.1147 78.7852C49.4871 78.3704 49.7749 78.0192 49.978 77.7314C50.1854 77.4395 50.3293 77.1792 50.4097 76.9507C50.4943 76.7179 50.5366 76.481 50.5366 76.2397C50.5366 75.9351 50.4731 75.66 50.3462 75.4146C50.2235 75.1649 50.0415 74.966 49.8003 74.8179C49.5591 74.6698 49.2671 74.5957 48.9243 74.5957C48.5138 74.5957 48.1711 74.6761 47.896 74.8369C47.6252 74.9935 47.422 75.2135 47.2866 75.4971C47.1512 75.7806 47.0835 76.1064 47.0835 76.4746H45.9092C45.9092 75.9541 46.0234 75.478 46.252 75.0464C46.4805 74.6147 46.819 74.272 47.2676 74.0181C47.7161 73.7599 48.2684 73.6309 48.9243 73.6309C49.5083 73.6309 50.0076 73.7345 50.4224 73.9419C50.8371 74.145 51.1545 74.4328 51.3745 74.8052C51.5988 75.1733 51.7109 75.605 51.7109 76.1001C51.7109 76.3709 51.6644 76.646 51.5713 76.9253C51.4824 77.2004 51.3576 77.4754 51.1968 77.7505C51.0402 78.0256 50.8561 78.2964 50.6445 78.563C50.4372 78.8296 50.215 79.092 49.978 79.3501L47.5024 82.0352H52.1362ZM54.6943 77.4521V85.6406H53.5137V76.1318H54.5928L54.6943 77.4521ZM59.3218 79.5088V79.6421C59.3218 80.1414 59.2625 80.6048 59.144 81.0322C59.0256 81.4554 58.8521 81.8236 58.6235 82.1367C58.3993 82.4499 58.1221 82.6932 57.792 82.8667C57.4619 83.0402 57.0832 83.127 56.6558 83.127C56.2199 83.127 55.8348 83.055 55.5005 82.9111C55.1662 82.7673 54.8826 82.5578 54.6499 82.2827C54.4172 82.0076 54.231 81.6776 54.0913 81.2925C53.9559 80.9074 53.8628 80.4736 53.812 79.9912V79.2803C53.8628 78.7725 53.958 78.3175 54.0977 77.9155C54.2373 77.5135 54.4214 77.1707 54.6499 76.8872C54.8826 76.5994 55.1641 76.3815 55.4941 76.2334C55.8242 76.0811 56.2051 76.0049 56.6367 76.0049C57.0684 76.0049 57.4513 76.0895 57.7856 76.2588C58.12 76.4238 58.4014 76.6608 58.6299 76.9697C58.8584 77.2786 59.0298 77.6489 59.144 78.0806C59.2625 78.508 59.3218 78.984 59.3218 79.5088ZM58.1411 79.6421V79.5088C58.1411 79.166 58.1051 78.8444 58.0332 78.5439C57.9613 78.2393 57.8491 77.9727 57.6968 77.7441C57.5487 77.5114 57.3582 77.3294 57.1255 77.1982C56.8927 77.0628 56.6156 76.9951 56.2939 76.9951C55.9977 76.9951 55.7396 77.0459 55.5195 77.1475C55.3037 77.249 55.1196 77.3866 54.9673 77.5601C54.8149 77.7293 54.6901 77.924 54.5928 78.144C54.4997 78.3599 54.4299 78.5841 54.3833 78.8169V80.4609C54.4679 80.7572 54.5864 81.0365 54.7388 81.2988C54.8911 81.557 55.0942 81.7664 55.3481 81.9272C55.6021 82.0838 55.9215 82.1621 56.3066 82.1621C56.624 82.1621 56.897 82.0965 57.1255 81.9653C57.3582 81.8299 57.5487 81.6458 57.6968 81.4131C57.8491 81.1803 57.9613 80.9137 58.0332 80.6133C58.1051 80.3086 58.1411 79.9849 58.1411 79.6421ZM61.5117 76.1318L63.0161 78.6328L64.5396 76.1318H65.917L63.6699 79.5215L65.9868 83H64.6284L63.0415 80.4229L61.4546 83H60.0898L62.4004 79.5215L60.1597 76.1318H61.5117Z" fill="#333333"/>
<path d="M362.824 67.0352V68H356.774V67.1558L359.802 63.7852C360.175 63.3704 360.462 63.0192 360.666 62.7314C360.873 62.4395 361.017 62.1792 361.097 61.9507C361.182 61.7179 361.224 61.481 361.224 61.2397C361.224 60.9351 361.161 60.66 361.034 60.4146C360.911 60.1649 360.729 59.966 360.488 59.8179C360.247 59.6698 359.955 59.5957 359.612 59.5957C359.201 59.5957 358.859 59.6761 358.583 59.8369C358.313 59.9935 358.11 60.2135 357.974 60.4971C357.839 60.7806 357.771 61.1064 357.771 61.4746H356.597C356.597 60.9541 356.711 60.478 356.939 60.0464C357.168 59.6147 357.507 59.272 357.955 59.0181C358.404 58.7599 358.956 58.6309 359.612 58.6309C360.196 58.6309 360.695 58.7345 361.11 58.9419C361.525 59.145 361.842 59.4328 362.062 59.8052C362.286 60.1733 362.398 60.605 362.398 61.1001C362.398 61.3709 362.352 61.646 362.259 61.9253C362.17 62.2004 362.045 62.4754 361.884 62.7505C361.728 63.0256 361.544 63.2964 361.332 63.563C361.125 63.8296 360.903 64.092 360.666 64.3501L358.19 67.0352H362.824ZM370.327 64.8896V65.8545H363.649V65.1626L367.788 58.7578H368.746L367.718 60.6113L364.982 64.8896H370.327ZM369.038 58.7578V68H367.864V58.7578H369.038ZM372.694 62.4521V70.6406H371.514V61.1318H372.593L372.694 62.4521ZM377.322 64.5088V64.6421C377.322 65.1414 377.263 65.6048 377.144 66.0322C377.026 66.4554 376.852 66.8236 376.624 67.1367C376.399 67.4499 376.122 67.6932 375.792 67.8667C375.462 68.0402 375.083 68.127 374.656 68.127C374.22 68.127 373.835 68.055 373.5 67.9111C373.166 67.7673 372.883 67.5578 372.65 67.2827C372.417 67.0076 372.231 66.6776 372.091 66.2925C371.956 65.9074 371.863 65.4736 371.812 64.9912V64.2803C371.863 63.7725 371.958 63.3175 372.098 62.9155C372.237 62.5135 372.421 62.1707 372.65 61.8872C372.883 61.5994 373.164 61.3815 373.494 61.2334C373.824 61.0811 374.205 61.0049 374.637 61.0049C375.068 61.0049 375.451 61.0895 375.786 61.2588C376.12 61.4238 376.401 61.6608 376.63 61.9697C376.858 62.2786 377.03 62.6489 377.144 63.0806C377.263 63.508 377.322 63.984 377.322 64.5088ZM376.141 64.6421V64.5088C376.141 64.166 376.105 63.8444 376.033 63.5439C375.961 63.2393 375.849 62.9727 375.697 62.7441C375.549 62.5114 375.358 62.3294 375.125 62.1982C374.893 62.0628 374.616 61.9951 374.294 61.9951C373.998 61.9951 373.74 62.0459 373.52 62.1475C373.304 62.249 373.12 62.3866 372.967 62.5601C372.815 62.7293 372.69 62.924 372.593 63.144C372.5 63.3599 372.43 63.5841 372.383 63.8169V65.4609C372.468 65.7572 372.586 66.0365 372.739 66.2988C372.891 66.557 373.094 66.7664 373.348 66.9272C373.602 67.0838 373.922 67.1621 374.307 67.1621C374.624 67.1621 374.897 67.0965 375.125 66.9653C375.358 66.8299 375.549 66.6458 375.697 66.4131C375.849 66.1803 375.961 65.9137 376.033 65.6133C376.105 65.3086 376.141 64.9849 376.141 64.6421ZM379.512 61.1318L381.016 63.6328L382.54 61.1318H383.917L381.67 64.5215L383.987 68H382.628L381.042 65.4229L379.455 68H378.09L380.4 64.5215L378.16 61.1318H379.512Z" fill="#333333"/>
<path d="M368.482 113.801H369.32C369.73 113.801 370.069 113.734 370.335 113.598C370.606 113.458 370.807 113.27 370.938 113.033C371.074 112.792 371.142 112.521 371.142 112.221C371.142 111.865 371.082 111.567 370.964 111.326C370.845 111.084 370.668 110.903 370.431 110.78C370.194 110.657 369.893 110.596 369.529 110.596C369.199 110.596 368.907 110.661 368.653 110.792C368.404 110.919 368.207 111.101 368.063 111.338C367.923 111.575 367.854 111.855 367.854 112.176H366.679C366.679 111.707 366.798 111.279 367.035 110.894C367.272 110.509 367.604 110.202 368.031 109.974C368.463 109.745 368.962 109.631 369.529 109.631C370.088 109.631 370.577 109.73 370.996 109.929C371.415 110.124 371.74 110.416 371.973 110.805C372.206 111.19 372.322 111.671 372.322 112.246C372.322 112.479 372.267 112.729 372.157 112.995C372.051 113.257 371.884 113.503 371.656 113.731C371.431 113.96 371.139 114.148 370.78 114.296C370.42 114.44 369.988 114.512 369.485 114.512H368.482V113.801ZM368.482 114.766V114.062H369.485C370.073 114.062 370.56 114.131 370.945 114.271C371.33 114.411 371.632 114.597 371.853 114.83C372.077 115.062 372.233 115.318 372.322 115.598C372.415 115.873 372.462 116.148 372.462 116.423C372.462 116.854 372.388 117.237 372.24 117.572C372.096 117.906 371.891 118.19 371.624 118.422C371.362 118.655 371.053 118.831 370.697 118.949C370.342 119.068 369.955 119.127 369.536 119.127C369.134 119.127 368.755 119.07 368.399 118.956C368.048 118.841 367.737 118.676 367.466 118.46C367.195 118.24 366.984 117.972 366.832 117.654C366.679 117.333 366.603 116.967 366.603 116.556H367.777C367.777 116.878 367.847 117.159 367.987 117.4C368.131 117.642 368.334 117.83 368.596 117.965C368.863 118.097 369.176 118.162 369.536 118.162C369.895 118.162 370.204 118.101 370.462 117.978C370.725 117.851 370.926 117.661 371.065 117.407C371.209 117.153 371.281 116.833 371.281 116.448C371.281 116.063 371.201 115.748 371.04 115.502C370.879 115.253 370.651 115.069 370.354 114.95C370.062 114.827 369.718 114.766 369.32 114.766H368.482ZM380.136 118.035V119H374.087V118.156L377.115 114.785C377.487 114.37 377.775 114.019 377.978 113.731C378.185 113.439 378.329 113.179 378.41 112.951C378.494 112.718 378.537 112.481 378.537 112.24C378.537 111.935 378.473 111.66 378.346 111.415C378.223 111.165 378.042 110.966 377.8 110.818C377.559 110.67 377.267 110.596 376.924 110.596C376.514 110.596 376.171 110.676 375.896 110.837C375.625 110.993 375.422 111.214 375.287 111.497C375.151 111.781 375.083 112.106 375.083 112.475H373.909C373.909 111.954 374.023 111.478 374.252 111.046C374.48 110.615 374.819 110.272 375.268 110.018C375.716 109.76 376.268 109.631 376.924 109.631C377.508 109.631 378.008 109.735 378.422 109.942C378.837 110.145 379.154 110.433 379.375 110.805C379.599 111.173 379.711 111.605 379.711 112.1C379.711 112.371 379.664 112.646 379.571 112.925C379.482 113.2 379.358 113.475 379.197 113.75C379.04 114.026 378.856 114.296 378.645 114.563C378.437 114.83 378.215 115.092 377.978 115.35L375.502 118.035H380.136ZM382.694 113.452V121.641H381.514V112.132H382.593L382.694 113.452ZM387.322 115.509V115.642C387.322 116.141 387.263 116.605 387.144 117.032C387.026 117.455 386.852 117.824 386.624 118.137C386.399 118.45 386.122 118.693 385.792 118.867C385.462 119.04 385.083 119.127 384.656 119.127C384.22 119.127 383.835 119.055 383.5 118.911C383.166 118.767 382.883 118.558 382.65 118.283C382.417 118.008 382.231 117.678 382.091 117.292C381.956 116.907 381.863 116.474 381.812 115.991V115.28C381.863 114.772 381.958 114.318 382.098 113.916C382.237 113.514 382.421 113.171 382.65 112.887C382.883 112.599 383.164 112.382 383.494 112.233C383.824 112.081 384.205 112.005 384.637 112.005C385.068 112.005 385.451 112.09 385.786 112.259C386.12 112.424 386.401 112.661 386.63 112.97C386.858 113.279 387.03 113.649 387.144 114.081C387.263 114.508 387.322 114.984 387.322 115.509ZM386.141 115.642V115.509C386.141 115.166 386.105 114.844 386.033 114.544C385.961 114.239 385.849 113.973 385.697 113.744C385.549 113.511 385.358 113.329 385.125 113.198C384.893 113.063 384.616 112.995 384.294 112.995C383.998 112.995 383.74 113.046 383.52 113.147C383.304 113.249 383.12 113.387 382.967 113.56C382.815 113.729 382.69 113.924 382.593 114.144C382.5 114.36 382.43 114.584 382.383 114.817V116.461C382.468 116.757 382.586 117.036 382.739 117.299C382.891 117.557 383.094 117.766 383.348 117.927C383.602 118.084 383.922 118.162 384.307 118.162C384.624 118.162 384.897 118.097 385.125 117.965C385.358 117.83 385.549 117.646 385.697 117.413C385.849 117.18 385.961 116.914 386.033 116.613C386.105 116.309 386.141 115.985 386.141 115.642ZM389.512 112.132L391.016 114.633L392.54 112.132H393.917L391.67 115.521L393.987 119H392.628L391.042 116.423L389.455 119H388.09L390.4 115.521L388.16 112.132H389.512Z" fill="#333333"/>
<path d="M363 53.5H379M363 53.5V49M363 53.5V58M379 53.5V49M379 53.5V58" stroke="#0059FF"/>
<path d="M372.5 129.5H389.5M372.5 129.5V125M372.5 129.5V134M389.5 129.5V125M389.5 129.5V134" stroke="#0059FF"/>
<path d="M75.5 40.5L75.5 32.5M75.5 40.5L71 40.5M75.5 40.5L80 40.5M75.5 32.5L71 32.5M75.5 32.5L80 32.5" stroke="#0059FF"/>
<path d="M75.5 89.5L75.5 72.5M75.5 89.5L71 89.5M75.5 89.5L80 89.5M75.5 72.5L71 72.5M75.5 72.5L80 72.5" stroke="#0059FF"/>
</svg>
