<svg width="620" height="235" viewBox="0 0 620 235" fill="none" xmlns="http://www.w3.org/2000/svg">
<rect width="620" height="235" rx="16" fill="#F8F8F8"/>
<rect x="110.5" y="124.5" width="399" height="39" rx="3.5" fill="white"/>
<path d="M143.697 152.398L138.461 147.164C139.594 145.777 140.219 144.031 140.219 142.125C140.219 137.637 136.58 134 132.092 134C127.604 134 124 137.638 124 142.125C124 146.612 127.638 150.25 132.092 150.25C133.998 150.25 135.747 149.589 137.132 148.491L142.368 153.725C142.587 153.91 142.829 154 143.068 154C143.306 154 143.547 153.908 143.731 153.725C144.095 153.359 144.095 152.766 143.697 152.398ZM125.876 142.125C125.876 138.679 128.68 135.875 132.127 135.875C135.574 135.875 138.379 138.679 138.379 142.125C138.379 145.571 135.574 148.375 132.127 148.375C128.68 148.375 125.876 145.57 125.876 142.125Z" fill="#737373"/>
<path d="M160.921 146.305C160.921 146.056 160.882 145.836 160.804 145.646C160.731 145.45 160.599 145.274 160.409 145.118C160.223 144.962 159.964 144.813 159.632 144.671C159.305 144.53 158.89 144.386 158.387 144.239C157.86 144.083 157.384 143.91 156.959 143.719C156.534 143.524 156.17 143.302 155.868 143.053C155.565 142.804 155.333 142.518 155.172 142.196C155.011 141.874 154.93 141.505 154.93 141.09C154.93 140.675 155.016 140.292 155.187 139.94C155.357 139.588 155.602 139.283 155.919 139.024C156.241 138.761 156.625 138.556 157.069 138.409C157.513 138.263 158.009 138.189 158.556 138.189C159.356 138.189 160.035 138.343 160.592 138.651C161.153 138.954 161.581 139.352 161.874 139.845C162.167 140.333 162.313 140.855 162.313 141.412H160.907C160.907 141.012 160.821 140.658 160.65 140.35C160.479 140.038 160.221 139.793 159.874 139.618C159.527 139.437 159.088 139.347 158.556 139.347C158.053 139.347 157.638 139.422 157.311 139.574C156.983 139.725 156.739 139.93 156.578 140.189C156.422 140.448 156.344 140.743 156.344 141.075C156.344 141.3 156.39 141.505 156.483 141.69C156.581 141.871 156.729 142.04 156.93 142.196C157.135 142.352 157.394 142.496 157.706 142.628C158.023 142.76 158.402 142.887 158.841 143.009C159.447 143.18 159.969 143.37 160.409 143.58C160.848 143.79 161.209 144.027 161.493 144.291C161.781 144.549 161.993 144.845 162.13 145.177C162.271 145.504 162.342 145.875 162.342 146.29C162.342 146.725 162.254 147.118 162.079 147.469C161.903 147.821 161.651 148.121 161.324 148.37C160.997 148.619 160.604 148.812 160.145 148.949C159.691 149.081 159.183 149.146 158.622 149.146C158.128 149.146 157.643 149.078 157.164 148.941C156.69 148.805 156.258 148.6 155.868 148.326C155.482 148.053 155.172 147.716 154.938 147.315C154.708 146.91 154.593 146.441 154.593 145.909H156C156 146.275 156.07 146.59 156.212 146.854C156.354 147.113 156.546 147.328 156.791 147.499C157.04 147.669 157.32 147.796 157.633 147.879C157.95 147.958 158.28 147.997 158.622 147.997C159.115 147.997 159.532 147.928 159.874 147.792C160.216 147.655 160.475 147.459 160.65 147.206C160.831 146.952 160.921 146.651 160.921 146.305ZM167.228 149.146C166.676 149.146 166.175 149.054 165.726 148.868C165.282 148.678 164.898 148.412 164.576 148.07C164.259 147.728 164.015 147.323 163.844 146.854C163.673 146.385 163.587 145.873 163.587 145.316V145.008C163.587 144.364 163.683 143.79 163.873 143.287C164.063 142.779 164.322 142.35 164.649 141.998C164.977 141.646 165.348 141.38 165.763 141.2C166.178 141.019 166.607 140.929 167.052 140.929C167.618 140.929 168.106 141.026 168.517 141.222C168.932 141.417 169.271 141.69 169.535 142.042C169.798 142.389 169.994 142.799 170.121 143.272C170.248 143.741 170.311 144.254 170.311 144.811V145.418H164.393V144.312H168.956V144.21C168.937 143.858 168.863 143.517 168.736 143.185C168.614 142.853 168.419 142.579 168.15 142.364C167.882 142.149 167.516 142.042 167.052 142.042C166.744 142.042 166.461 142.108 166.202 142.24C165.943 142.367 165.721 142.557 165.536 142.811C165.35 143.065 165.206 143.375 165.104 143.741C165.001 144.107 164.95 144.53 164.95 145.008V145.316C164.95 145.692 165.001 146.046 165.104 146.378C165.211 146.705 165.365 146.993 165.565 147.242C165.77 147.491 166.017 147.687 166.305 147.828C166.598 147.97 166.93 148.041 167.301 148.041C167.779 148.041 168.185 147.943 168.517 147.748C168.849 147.552 169.139 147.291 169.388 146.964L170.208 147.616C170.038 147.875 169.82 148.121 169.557 148.355C169.293 148.59 168.968 148.78 168.583 148.927C168.202 149.073 167.75 149.146 167.228 149.146ZM176.566 147.645V143.565C176.566 143.253 176.502 142.982 176.375 142.752C176.253 142.518 176.068 142.337 175.819 142.21C175.57 142.083 175.262 142.02 174.896 142.02C174.554 142.02 174.254 142.079 173.995 142.196C173.741 142.313 173.541 142.467 173.395 142.657C173.253 142.848 173.182 143.053 173.182 143.272H171.827C171.827 142.989 171.9 142.708 172.047 142.43C172.193 142.152 172.403 141.9 172.677 141.676C172.955 141.446 173.287 141.266 173.673 141.134C174.063 140.997 174.498 140.929 174.977 140.929C175.553 140.929 176.061 141.026 176.5 141.222C176.944 141.417 177.291 141.712 177.54 142.108C177.794 142.499 177.921 142.989 177.921 143.58V147.271C177.921 147.535 177.943 147.816 177.987 148.114C178.036 148.412 178.106 148.668 178.199 148.883V149H176.786C176.717 148.844 176.664 148.636 176.625 148.377C176.585 148.114 176.566 147.87 176.566 147.645ZM176.8 144.195L176.815 145.147H175.445C175.06 145.147 174.715 145.179 174.413 145.243C174.11 145.301 173.856 145.392 173.651 145.514C173.446 145.636 173.29 145.79 173.182 145.975C173.075 146.156 173.021 146.368 173.021 146.612C173.021 146.861 173.077 147.088 173.189 147.293C173.302 147.499 173.47 147.662 173.695 147.784C173.924 147.901 174.205 147.96 174.537 147.96C174.952 147.96 175.318 147.872 175.636 147.696C175.953 147.521 176.205 147.306 176.39 147.052C176.581 146.798 176.683 146.551 176.698 146.312L177.276 146.964C177.242 147.169 177.149 147.396 176.998 147.645C176.847 147.894 176.644 148.133 176.39 148.363C176.141 148.587 175.843 148.775 175.497 148.927C175.155 149.073 174.769 149.146 174.339 149.146C173.802 149.146 173.331 149.042 172.926 148.832C172.525 148.622 172.213 148.341 171.988 147.989C171.769 147.633 171.659 147.235 171.659 146.795C171.659 146.371 171.742 145.997 171.908 145.675C172.074 145.348 172.313 145.077 172.625 144.862C172.938 144.642 173.314 144.476 173.753 144.364C174.193 144.251 174.684 144.195 175.226 144.195H176.8ZM181.407 142.32V149H180.052V141.075H181.371L181.407 142.32ZM183.883 141.031L183.875 142.291C183.763 142.267 183.656 142.252 183.553 142.247C183.456 142.237 183.343 142.232 183.216 142.232C182.904 142.232 182.628 142.281 182.389 142.379C182.149 142.477 181.947 142.613 181.781 142.789C181.615 142.965 181.483 143.175 181.385 143.419C181.292 143.658 181.231 143.922 181.202 144.21L180.821 144.43C180.821 143.951 180.868 143.502 180.96 143.082C181.058 142.662 181.207 142.291 181.407 141.969C181.607 141.642 181.861 141.388 182.169 141.207C182.481 141.021 182.853 140.929 183.282 140.929C183.38 140.929 183.492 140.941 183.619 140.965C183.746 140.985 183.834 141.007 183.883 141.031ZM188.16 148.033C188.482 148.033 188.78 147.967 189.054 147.835C189.327 147.704 189.552 147.523 189.728 147.293C189.903 147.059 190.003 146.793 190.028 146.495H191.317C191.292 146.964 191.134 147.401 190.841 147.806C190.553 148.207 190.174 148.531 189.706 148.78C189.237 149.024 188.722 149.146 188.16 149.146C187.564 149.146 187.044 149.042 186.6 148.832C186.161 148.622 185.794 148.333 185.501 147.967C185.213 147.601 184.996 147.181 184.85 146.708C184.708 146.229 184.637 145.724 184.637 145.191V144.884C184.637 144.352 184.708 143.849 184.85 143.375C184.996 142.896 185.213 142.474 185.501 142.108C185.794 141.742 186.161 141.454 186.6 141.244C187.044 141.034 187.564 140.929 188.16 140.929C188.78 140.929 189.322 141.056 189.786 141.31C190.25 141.559 190.614 141.9 190.877 142.335C191.146 142.765 191.292 143.253 191.317 143.8H190.028C190.003 143.473 189.911 143.177 189.75 142.914C189.593 142.65 189.378 142.44 189.105 142.284C188.836 142.123 188.521 142.042 188.16 142.042C187.745 142.042 187.396 142.125 187.113 142.291C186.834 142.452 186.612 142.672 186.446 142.95C186.285 143.224 186.168 143.529 186.095 143.866C186.026 144.198 185.992 144.537 185.992 144.884V145.191C185.992 145.538 186.026 145.88 186.095 146.217C186.163 146.554 186.278 146.859 186.439 147.132C186.605 147.406 186.827 147.625 187.105 147.792C187.389 147.953 187.74 148.033 188.16 148.033ZM194.195 137.75V149H192.84V137.75H194.195ZM193.873 144.737L193.309 144.715C193.314 144.173 193.395 143.673 193.551 143.214C193.707 142.75 193.927 142.347 194.21 142.005C194.493 141.664 194.83 141.4 195.221 141.214C195.616 141.024 196.053 140.929 196.532 140.929C196.922 140.929 197.274 140.982 197.586 141.09C197.899 141.192 198.165 141.358 198.385 141.588C198.609 141.817 198.78 142.115 198.897 142.481C199.015 142.843 199.073 143.285 199.073 143.807V149H197.711V143.792C197.711 143.377 197.65 143.045 197.528 142.796C197.406 142.542 197.228 142.359 196.993 142.247C196.759 142.13 196.471 142.071 196.129 142.071C195.792 142.071 195.484 142.142 195.206 142.284C194.933 142.425 194.696 142.621 194.496 142.87C194.3 143.119 194.146 143.404 194.034 143.727C193.927 144.044 193.873 144.381 193.873 144.737Z" fill="#737373"/>
<rect x="110.5" y="124.5" width="399" height="39" rx="3.5" stroke="#AAAAAA"/>
<rect x="166" y="84" width="24" height="24" rx="12" fill="#0059FF"/>
<path d="M181.199 98.7812V100H175.004V98.9526L178.013 95.6709C178.343 95.2985 178.603 94.9769 178.793 94.7061C178.984 94.4352 179.117 94.1919 179.193 93.9761C179.274 93.756 179.314 93.5423 179.314 93.335C179.314 93.043 179.259 92.7869 179.149 92.5669C179.043 92.3426 178.887 92.167 178.679 92.04C178.472 91.9089 178.22 91.8433 177.924 91.8433C177.581 91.8433 177.293 91.9173 177.061 92.0654C176.828 92.2135 176.652 92.4188 176.534 92.6812C176.415 92.9393 176.356 93.2355 176.356 93.5698H174.826C174.826 93.0324 174.949 92.5415 175.194 92.0972C175.44 91.6486 175.795 91.2931 176.261 91.0308C176.726 90.7642 177.287 90.6309 177.943 90.6309C178.561 90.6309 179.085 90.7345 179.517 90.9419C179.949 91.1493 180.277 91.4434 180.501 91.8242C180.729 92.2051 180.844 92.6558 180.844 93.1763C180.844 93.464 180.797 93.7497 180.704 94.0332C180.611 94.3167 180.478 94.6003 180.304 94.8838C180.135 95.1631 179.934 95.4445 179.701 95.728C179.468 96.0073 179.212 96.2909 178.933 96.5786L176.934 98.7812H181.199Z" fill="white"/>
<line x1="178.5" y1="108" x2="178.5" y2="132" stroke="#0059FF"/>
<rect x="120" y="84" width="24" height="24" rx="12" fill="#0059FF"/>
<path d="M133.181 90.7261V100H131.651V92.5415L129.385 93.3096V92.0464L132.997 90.7261H133.181Z" fill="white"/>
<line x1="132.5" y1="108" x2="132.5" y2="132" stroke="#0059FF"/>
</svg>
