<svg width="1280" height="428" viewBox="0 0 1280 428" fill="none" xmlns="http://www.w3.org/2000/svg">
<rect x="0.5" y="0.5" width="1279" height="427" rx="15.5" fill="#F8F8F8"/>
<rect x="255" y="69" width="770" height="70" rx="7" fill="#1A1A1A" fill-opacity="0.01"/>
<path d="M598 104C598 104.51 597.587 104.923 597.077 104.923H592.923V109.077C592.923 109.588 592.51 110 592 110C591.49 110 591.077 109.588 591.077 109.077V104.923H586.923C586.413 104.923 586 104.51 586 104C586 103.49 586.413 103.077 586.923 103.077H591.077V98.9234C591.077 98.4131 591.49 98 592 98C592.51 98 592.923 98.4131 592.923 98.9234V103.077H597.077C597.588 103.077 598 103.489 598 104Z" fill="#505050"/>
<path d="M611.047 98.3359V109H609.208V98.3359H611.047ZM614.907 102.767V109H613.142V101.075H614.804L614.907 102.767ZM614.592 104.745L614.021 104.737C614.025 104.176 614.104 103.661 614.255 103.192C614.411 102.723 614.626 102.32 614.899 101.983C615.178 101.646 615.51 101.388 615.896 101.207C616.281 101.021 616.711 100.929 617.185 100.929C617.565 100.929 617.91 100.982 618.217 101.09C618.53 101.192 618.796 101.361 619.016 101.595C619.24 101.83 619.411 102.135 619.528 102.511C619.646 102.882 619.704 103.338 619.704 103.88V109H617.932V103.873C617.932 103.492 617.875 103.192 617.763 102.972C617.656 102.748 617.497 102.589 617.287 102.496C617.082 102.398 616.826 102.35 616.518 102.35C616.215 102.35 615.944 102.413 615.705 102.54C615.466 102.667 615.263 102.84 615.097 103.06C614.936 103.28 614.812 103.534 614.724 103.822C614.636 104.11 614.592 104.417 614.592 104.745ZM625.952 106.854C625.952 106.678 625.908 106.52 625.82 106.378C625.732 106.231 625.563 106.1 625.314 105.982C625.07 105.865 624.709 105.758 624.23 105.66C623.811 105.567 623.425 105.458 623.073 105.331C622.727 105.199 622.429 105.04 622.18 104.854C621.931 104.669 621.738 104.449 621.601 104.195C621.464 103.941 621.396 103.648 621.396 103.316C621.396 102.994 621.467 102.689 621.608 102.401C621.75 102.113 621.953 101.859 622.216 101.639C622.48 101.419 622.8 101.246 623.176 101.119C623.557 100.992 623.981 100.929 624.45 100.929C625.114 100.929 625.683 101.041 626.157 101.266C626.635 101.485 627.001 101.786 627.255 102.167C627.509 102.542 627.636 102.967 627.636 103.441H625.871C625.871 103.231 625.817 103.036 625.71 102.855C625.607 102.669 625.451 102.521 625.241 102.408C625.031 102.291 624.768 102.232 624.45 102.232C624.147 102.232 623.896 102.281 623.696 102.379C623.5 102.472 623.354 102.594 623.256 102.745C623.164 102.896 623.117 103.062 623.117 103.243C623.117 103.375 623.142 103.495 623.19 103.602C623.244 103.705 623.332 103.8 623.454 103.888C623.576 103.971 623.742 104.049 623.952 104.122C624.167 104.195 624.436 104.266 624.758 104.334C625.363 104.461 625.883 104.625 626.318 104.825C626.757 105.021 627.094 105.274 627.329 105.587C627.563 105.895 627.68 106.285 627.68 106.759C627.68 107.11 627.604 107.433 627.453 107.726C627.307 108.014 627.092 108.265 626.809 108.48C626.525 108.69 626.186 108.854 625.791 108.971C625.4 109.088 624.96 109.146 624.472 109.146C623.754 109.146 623.146 109.02 622.648 108.766C622.15 108.507 621.772 108.177 621.513 107.777C621.259 107.372 621.132 106.952 621.132 106.517H622.839C622.858 106.844 622.949 107.105 623.11 107.301C623.276 107.491 623.481 107.63 623.725 107.718C623.974 107.801 624.23 107.843 624.494 107.843C624.812 107.843 625.078 107.801 625.292 107.718C625.507 107.63 625.671 107.513 625.783 107.367C625.896 107.215 625.952 107.044 625.952 106.854ZM632.719 109.146C632.133 109.146 631.604 109.051 631.13 108.861C630.661 108.666 630.261 108.395 629.929 108.048C629.602 107.701 629.35 107.293 629.174 106.825C628.999 106.356 628.911 105.851 628.911 105.309V105.016C628.911 104.396 629.001 103.834 629.182 103.331C629.362 102.828 629.614 102.398 629.936 102.042C630.258 101.681 630.639 101.405 631.079 101.214C631.518 101.024 631.994 100.929 632.507 100.929C633.073 100.929 633.569 101.024 633.994 101.214C634.418 101.405 634.77 101.673 635.048 102.02C635.332 102.362 635.542 102.77 635.678 103.243C635.82 103.717 635.891 104.239 635.891 104.811V105.565H629.768V104.298H634.147V104.159C634.138 103.841 634.074 103.543 633.957 103.265C633.845 102.987 633.671 102.762 633.437 102.591C633.203 102.42 632.89 102.335 632.5 102.335C632.207 102.335 631.945 102.398 631.716 102.525C631.491 102.647 631.303 102.826 631.152 103.06C631 103.294 630.883 103.578 630.8 103.91C630.722 104.237 630.683 104.605 630.683 105.016V105.309C630.683 105.655 630.729 105.978 630.822 106.275C630.92 106.568 631.062 106.825 631.247 107.044C631.433 107.264 631.657 107.438 631.921 107.564C632.185 107.687 632.485 107.748 632.822 107.748C633.247 107.748 633.625 107.662 633.957 107.491C634.289 107.32 634.577 107.079 634.821 106.766L635.751 107.667C635.581 107.916 635.358 108.155 635.085 108.385C634.812 108.609 634.477 108.792 634.082 108.934C633.691 109.076 633.237 109.146 632.719 109.146ZM639.04 102.584V109H637.275V101.075H638.959L639.04 102.584ZM641.464 101.024L641.45 102.665C641.342 102.645 641.225 102.63 641.098 102.621C640.976 102.611 640.854 102.606 640.732 102.606C640.429 102.606 640.163 102.65 639.934 102.738C639.704 102.821 639.511 102.943 639.355 103.104C639.204 103.26 639.086 103.451 639.003 103.675C638.92 103.9 638.872 104.151 638.857 104.43L638.454 104.459C638.454 103.961 638.503 103.5 638.601 103.075C638.698 102.65 638.845 102.276 639.04 101.954C639.24 101.632 639.489 101.38 639.787 101.2C640.09 101.019 640.439 100.929 640.834 100.929C640.942 100.929 641.057 100.938 641.179 100.958C641.306 100.978 641.401 101 641.464 101.024ZM646.569 101.075V102.364H642.102V101.075H646.569ZM643.391 99.1343H645.156V106.81C645.156 107.054 645.19 107.242 645.258 107.374C645.332 107.501 645.432 107.586 645.559 107.63C645.686 107.674 645.834 107.696 646.005 107.696C646.127 107.696 646.245 107.689 646.357 107.674C646.469 107.66 646.56 107.645 646.628 107.63L646.635 108.978C646.489 109.022 646.318 109.061 646.123 109.095C645.932 109.129 645.712 109.146 645.463 109.146C645.058 109.146 644.699 109.076 644.387 108.934C644.074 108.788 643.83 108.551 643.654 108.224C643.479 107.896 643.391 107.462 643.391 106.92V99.1343ZM655.842 104.181H653.125L653.11 102.84H655.483C655.883 102.84 656.223 102.782 656.501 102.665C656.784 102.542 656.999 102.369 657.146 102.145C657.292 101.915 657.365 101.639 657.365 101.317C657.365 100.96 657.297 100.67 657.16 100.445C657.023 100.221 656.813 100.057 656.53 99.9546C656.252 99.8521 655.896 99.8008 655.461 99.8008H653.681V109H651.843V98.3359H655.461C656.047 98.3359 656.569 98.3921 657.028 98.5044C657.492 98.6167 657.885 98.7925 658.208 99.0317C658.535 99.2661 658.781 99.564 658.947 99.9253C659.118 100.287 659.204 100.716 659.204 101.214C659.204 101.654 659.099 102.057 658.889 102.423C658.679 102.784 658.369 103.08 657.958 103.309C657.548 103.539 657.038 103.675 656.428 103.719L655.842 104.181ZM655.761 109H652.546L653.374 107.542H655.761C656.176 107.542 656.523 107.474 656.801 107.337C657.08 107.196 657.287 107.003 657.424 106.759C657.565 106.51 657.636 106.219 657.636 105.887C657.636 105.541 657.575 105.24 657.453 104.986C657.331 104.728 657.138 104.53 656.875 104.393C656.611 104.251 656.267 104.181 655.842 104.181H653.776L653.791 102.84H656.479L656.896 103.346C657.482 103.365 657.963 103.495 658.339 103.734C658.72 103.973 659.003 104.283 659.189 104.664C659.375 105.045 659.467 105.455 659.467 105.895C659.467 106.573 659.318 107.142 659.021 107.601C658.728 108.06 658.305 108.409 657.753 108.648C657.202 108.883 656.538 109 655.761 109ZM665.913 107.132V101.075H667.685V109H666.015L665.913 107.132ZM666.162 105.484L666.755 105.47C666.755 106.002 666.696 106.493 666.579 106.942C666.462 107.386 666.281 107.774 666.037 108.106C665.793 108.434 665.48 108.69 665.1 108.875C664.719 109.056 664.262 109.146 663.73 109.146C663.344 109.146 662.99 109.09 662.668 108.978C662.346 108.866 662.067 108.692 661.833 108.458C661.604 108.224 661.425 107.918 661.298 107.542C661.171 107.167 661.108 106.717 661.108 106.195V101.075H662.873V106.209C662.873 106.498 662.907 106.739 662.976 106.935C663.044 107.125 663.137 107.279 663.254 107.396C663.371 107.513 663.508 107.596 663.664 107.645C663.82 107.694 663.986 107.718 664.162 107.718C664.665 107.718 665.061 107.621 665.349 107.425C665.642 107.225 665.849 106.957 665.971 106.62C666.098 106.283 666.162 105.904 666.162 105.484ZM673.127 101.075V102.364H668.659V101.075H673.127ZM669.948 99.1343H671.713V106.81C671.713 107.054 671.748 107.242 671.816 107.374C671.889 107.501 671.989 107.586 672.116 107.63C672.243 107.674 672.392 107.696 672.563 107.696C672.685 107.696 672.802 107.689 672.915 107.674C673.027 107.66 673.117 107.645 673.186 107.63L673.193 108.978C673.046 109.022 672.875 109.061 672.68 109.095C672.49 109.129 672.27 109.146 672.021 109.146C671.616 109.146 671.257 109.076 670.944 108.934C670.632 108.788 670.388 108.551 670.212 108.224C670.036 107.896 669.948 107.462 669.948 106.92V99.1343ZM678.122 101.075V102.364H673.654V101.075H678.122ZM674.943 99.1343H676.708V106.81C676.708 107.054 676.743 107.242 676.811 107.374C676.884 107.501 676.984 107.586 677.111 107.63C677.238 107.674 677.387 107.696 677.558 107.696C677.68 107.696 677.797 107.689 677.91 107.674C678.022 107.66 678.112 107.645 678.181 107.63L678.188 108.978C678.042 109.022 677.871 109.061 677.675 109.095C677.485 109.129 677.265 109.146 677.016 109.146C676.611 109.146 676.252 109.076 675.939 108.934C675.627 108.788 675.383 108.551 675.207 108.224C675.031 107.896 674.943 107.462 674.943 106.92V99.1343ZM678.972 105.125V104.957C678.972 104.386 679.055 103.856 679.221 103.368C679.387 102.875 679.626 102.447 679.938 102.086C680.256 101.72 680.642 101.437 681.096 101.236C681.555 101.031 682.072 100.929 682.648 100.929C683.229 100.929 683.747 101.031 684.201 101.236C684.66 101.437 685.048 101.72 685.366 102.086C685.683 102.447 685.925 102.875 686.091 103.368C686.257 103.856 686.34 104.386 686.34 104.957V105.125C686.34 105.697 686.257 106.227 686.091 106.715C685.925 107.203 685.683 107.63 685.366 107.997C685.048 108.358 684.663 108.641 684.208 108.846C683.754 109.046 683.239 109.146 682.663 109.146C682.082 109.146 681.562 109.046 681.103 108.846C680.649 108.641 680.263 108.358 679.946 107.997C679.628 107.63 679.387 107.203 679.221 106.715C679.055 106.227 678.972 105.697 678.972 105.125ZM680.737 104.957V105.125C680.737 105.482 680.773 105.819 680.847 106.136C680.92 106.454 681.035 106.732 681.191 106.971C681.347 107.21 681.547 107.398 681.792 107.535C682.036 107.672 682.326 107.74 682.663 107.74C682.99 107.74 683.273 107.672 683.513 107.535C683.757 107.398 683.957 107.21 684.113 106.971C684.27 106.732 684.384 106.454 684.458 106.136C684.536 105.819 684.575 105.482 684.575 105.125V104.957C684.575 104.605 684.536 104.273 684.458 103.961C684.384 103.644 684.267 103.363 684.106 103.119C683.95 102.875 683.75 102.684 683.505 102.547C683.266 102.406 682.98 102.335 682.648 102.335C682.316 102.335 682.028 102.406 681.784 102.547C681.545 102.684 681.347 102.875 681.191 103.119C681.035 103.363 680.92 103.644 680.847 103.961C680.773 104.273 680.737 104.605 680.737 104.957ZM689.57 102.767V109H687.805V101.075H689.467L689.57 102.767ZM689.255 104.745L688.684 104.737C688.688 104.176 688.767 103.661 688.918 103.192C689.074 102.723 689.289 102.32 689.562 101.983C689.841 101.646 690.173 101.388 690.559 101.207C690.944 101.021 691.374 100.929 691.848 100.929C692.229 100.929 692.573 100.982 692.88 101.09C693.193 101.192 693.459 101.361 693.679 101.595C693.903 101.83 694.074 102.135 694.191 102.511C694.309 102.882 694.367 103.338 694.367 103.88V109H692.595V103.873C692.595 103.492 692.539 103.192 692.426 102.972C692.319 102.748 692.16 102.589 691.95 102.496C691.745 102.398 691.489 102.35 691.181 102.35C690.878 102.35 690.607 102.413 690.368 102.54C690.129 102.667 689.926 102.84 689.76 103.06C689.599 103.28 689.475 103.534 689.387 103.822C689.299 104.11 689.255 104.417 689.255 104.745Z" fill="#505050"/>
<rect x="255" y="69" width="770" height="70" rx="7" stroke="#AAAAAA" stroke-width="2" stroke-dasharray="4 4"/>
<rect x="255" y="193" width="770" height="70" rx="7" fill="#1A1A1A" fill-opacity="0.01"/>
<path d="M598 228C598 228.51 597.587 228.923 597.077 228.923H592.923V233.077C592.923 233.588 592.51 234 592 234C591.49 234 591.077 233.588 591.077 233.077V228.923H586.923C586.413 228.923 586 228.51 586 228C586 227.49 586.413 227.077 586.923 227.077H591.077V222.923C591.077 222.413 591.49 222 592 222C592.51 222 592.923 222.413 592.923 222.923V227.077H597.077C597.588 227.077 598 227.489 598 228Z" fill="#1A1A1A"/>
<path d="M611.047 222.336V233H609.208V222.336H611.047ZM614.907 226.767V233H613.142V225.075H614.804L614.907 226.767ZM614.592 228.745L614.021 228.737C614.025 228.176 614.104 227.661 614.255 227.192C614.411 226.723 614.626 226.32 614.899 225.983C615.178 225.646 615.51 225.388 615.896 225.207C616.281 225.021 616.711 224.929 617.185 224.929C617.565 224.929 617.91 224.982 618.217 225.09C618.53 225.192 618.796 225.361 619.016 225.595C619.24 225.83 619.411 226.135 619.528 226.511C619.646 226.882 619.704 227.338 619.704 227.88V233H617.932V227.873C617.932 227.492 617.875 227.192 617.763 226.972C617.656 226.748 617.497 226.589 617.287 226.496C617.082 226.398 616.826 226.35 616.518 226.35C616.215 226.35 615.944 226.413 615.705 226.54C615.466 226.667 615.263 226.84 615.097 227.06C614.936 227.28 614.812 227.534 614.724 227.822C614.636 228.11 614.592 228.417 614.592 228.745ZM625.952 230.854C625.952 230.678 625.908 230.52 625.82 230.378C625.732 230.231 625.563 230.1 625.314 229.982C625.07 229.865 624.709 229.758 624.23 229.66C623.811 229.567 623.425 229.458 623.073 229.331C622.727 229.199 622.429 229.04 622.18 228.854C621.931 228.669 621.738 228.449 621.601 228.195C621.464 227.941 621.396 227.648 621.396 227.316C621.396 226.994 621.467 226.689 621.608 226.401C621.75 226.113 621.953 225.859 622.216 225.639C622.48 225.419 622.8 225.246 623.176 225.119C623.557 224.992 623.981 224.929 624.45 224.929C625.114 224.929 625.683 225.041 626.157 225.266C626.635 225.485 627.001 225.786 627.255 226.167C627.509 226.542 627.636 226.967 627.636 227.441H625.871C625.871 227.231 625.817 227.036 625.71 226.855C625.607 226.669 625.451 226.521 625.241 226.408C625.031 226.291 624.768 226.232 624.45 226.232C624.147 226.232 623.896 226.281 623.696 226.379C623.5 226.472 623.354 226.594 623.256 226.745C623.164 226.896 623.117 227.062 623.117 227.243C623.117 227.375 623.142 227.495 623.19 227.602C623.244 227.705 623.332 227.8 623.454 227.888C623.576 227.971 623.742 228.049 623.952 228.122C624.167 228.195 624.436 228.266 624.758 228.334C625.363 228.461 625.883 228.625 626.318 228.825C626.757 229.021 627.094 229.274 627.329 229.587C627.563 229.895 627.68 230.285 627.68 230.759C627.68 231.11 627.604 231.433 627.453 231.726C627.307 232.014 627.092 232.265 626.809 232.48C626.525 232.69 626.186 232.854 625.791 232.971C625.4 233.088 624.96 233.146 624.472 233.146C623.754 233.146 623.146 233.02 622.648 232.766C622.15 232.507 621.772 232.177 621.513 231.777C621.259 231.372 621.132 230.952 621.132 230.517H622.839C622.858 230.844 622.949 231.105 623.11 231.301C623.276 231.491 623.481 231.63 623.725 231.718C623.974 231.801 624.23 231.843 624.494 231.843C624.812 231.843 625.078 231.801 625.292 231.718C625.507 231.63 625.671 231.513 625.783 231.367C625.896 231.215 625.952 231.044 625.952 230.854ZM632.719 233.146C632.133 233.146 631.604 233.051 631.13 232.861C630.661 232.666 630.261 232.395 629.929 232.048C629.602 231.701 629.35 231.293 629.174 230.825C628.999 230.356 628.911 229.851 628.911 229.309V229.016C628.911 228.396 629.001 227.834 629.182 227.331C629.362 226.828 629.614 226.398 629.936 226.042C630.258 225.681 630.639 225.405 631.079 225.214C631.518 225.024 631.994 224.929 632.507 224.929C633.073 224.929 633.569 225.024 633.994 225.214C634.418 225.405 634.77 225.673 635.048 226.02C635.332 226.362 635.542 226.77 635.678 227.243C635.82 227.717 635.891 228.239 635.891 228.811V229.565H629.768V228.298H634.147V228.159C634.138 227.841 634.074 227.543 633.957 227.265C633.845 226.987 633.671 226.762 633.437 226.591C633.203 226.42 632.89 226.335 632.5 226.335C632.207 226.335 631.945 226.398 631.716 226.525C631.491 226.647 631.303 226.826 631.152 227.06C631 227.294 630.883 227.578 630.8 227.91C630.722 228.237 630.683 228.605 630.683 229.016V229.309C630.683 229.655 630.729 229.978 630.822 230.275C630.92 230.568 631.062 230.825 631.247 231.044C631.433 231.264 631.657 231.438 631.921 231.564C632.185 231.687 632.485 231.748 632.822 231.748C633.247 231.748 633.625 231.662 633.957 231.491C634.289 231.32 634.577 231.079 634.821 230.766L635.751 231.667C635.581 231.916 635.358 232.155 635.085 232.385C634.812 232.609 634.477 232.792 634.082 232.934C633.691 233.076 633.237 233.146 632.719 233.146ZM639.04 226.584V233H637.275V225.075H638.959L639.04 226.584ZM641.464 225.024L641.45 226.665C641.342 226.645 641.225 226.63 641.098 226.621C640.976 226.611 640.854 226.606 640.732 226.606C640.429 226.606 640.163 226.65 639.934 226.738C639.704 226.821 639.511 226.943 639.355 227.104C639.204 227.26 639.086 227.451 639.003 227.675C638.92 227.9 638.872 228.151 638.857 228.43L638.454 228.459C638.454 227.961 638.503 227.5 638.601 227.075C638.698 226.65 638.845 226.276 639.04 225.954C639.24 225.632 639.489 225.38 639.787 225.2C640.09 225.019 640.439 224.929 640.834 224.929C640.942 224.929 641.057 224.938 641.179 224.958C641.306 224.978 641.401 225 641.464 225.024ZM646.569 225.075V226.364H642.102V225.075H646.569ZM643.391 223.134H645.156V230.81C645.156 231.054 645.19 231.242 645.258 231.374C645.332 231.501 645.432 231.586 645.559 231.63C645.686 231.674 645.834 231.696 646.005 231.696C646.127 231.696 646.245 231.689 646.357 231.674C646.469 231.66 646.56 231.645 646.628 231.63L646.635 232.978C646.489 233.022 646.318 233.061 646.123 233.095C645.932 233.129 645.712 233.146 645.463 233.146C645.058 233.146 644.699 233.076 644.387 232.934C644.074 232.788 643.83 232.551 643.654 232.224C643.479 231.896 643.391 231.462 643.391 230.92V223.134ZM655.842 228.181H653.125L653.11 226.84H655.483C655.883 226.84 656.223 226.782 656.501 226.665C656.784 226.542 656.999 226.369 657.146 226.145C657.292 225.915 657.365 225.639 657.365 225.317C657.365 224.96 657.297 224.67 657.16 224.445C657.023 224.221 656.813 224.057 656.53 223.955C656.252 223.852 655.896 223.801 655.461 223.801H653.681V233H651.843V222.336H655.461C656.047 222.336 656.569 222.392 657.028 222.504C657.492 222.617 657.885 222.792 658.208 223.032C658.535 223.266 658.781 223.564 658.947 223.925C659.118 224.287 659.204 224.716 659.204 225.214C659.204 225.654 659.099 226.057 658.889 226.423C658.679 226.784 658.369 227.08 657.958 227.309C657.548 227.539 657.038 227.675 656.428 227.719L655.842 228.181ZM655.761 233H652.546L653.374 231.542H655.761C656.176 231.542 656.523 231.474 656.801 231.337C657.08 231.196 657.287 231.003 657.424 230.759C657.565 230.51 657.636 230.219 657.636 229.887C657.636 229.541 657.575 229.24 657.453 228.986C657.331 228.728 657.138 228.53 656.875 228.393C656.611 228.251 656.267 228.181 655.842 228.181H653.776L653.791 226.84H656.479L656.896 227.346C657.482 227.365 657.963 227.495 658.339 227.734C658.72 227.973 659.003 228.283 659.189 228.664C659.375 229.045 659.467 229.455 659.467 229.895C659.467 230.573 659.318 231.142 659.021 231.601C658.728 232.06 658.305 232.409 657.753 232.648C657.202 232.883 656.538 233 655.761 233ZM665.913 231.132V225.075H667.685V233H666.015L665.913 231.132ZM666.162 229.484L666.755 229.47C666.755 230.002 666.696 230.493 666.579 230.942C666.462 231.386 666.281 231.774 666.037 232.106C665.793 232.434 665.48 232.69 665.1 232.875C664.719 233.056 664.262 233.146 663.73 233.146C663.344 233.146 662.99 233.09 662.668 232.978C662.346 232.866 662.067 232.692 661.833 232.458C661.604 232.224 661.425 231.918 661.298 231.542C661.171 231.167 661.108 230.717 661.108 230.195V225.075H662.873V230.209C662.873 230.498 662.907 230.739 662.976 230.935C663.044 231.125 663.137 231.279 663.254 231.396C663.371 231.513 663.508 231.596 663.664 231.645C663.82 231.694 663.986 231.718 664.162 231.718C664.665 231.718 665.061 231.621 665.349 231.425C665.642 231.225 665.849 230.957 665.971 230.62C666.098 230.283 666.162 229.904 666.162 229.484ZM673.127 225.075V226.364H668.659V225.075H673.127ZM669.948 223.134H671.713V230.81C671.713 231.054 671.748 231.242 671.816 231.374C671.889 231.501 671.989 231.586 672.116 231.63C672.243 231.674 672.392 231.696 672.563 231.696C672.685 231.696 672.802 231.689 672.915 231.674C673.027 231.66 673.117 231.645 673.186 231.63L673.193 232.978C673.046 233.022 672.875 233.061 672.68 233.095C672.49 233.129 672.27 233.146 672.021 233.146C671.616 233.146 671.257 233.076 670.944 232.934C670.632 232.788 670.388 232.551 670.212 232.224C670.036 231.896 669.948 231.462 669.948 230.92V223.134ZM678.122 225.075V226.364H673.654V225.075H678.122ZM674.943 223.134H676.708V230.81C676.708 231.054 676.743 231.242 676.811 231.374C676.884 231.501 676.984 231.586 677.111 231.63C677.238 231.674 677.387 231.696 677.558 231.696C677.68 231.696 677.797 231.689 677.91 231.674C678.022 231.66 678.112 231.645 678.181 231.63L678.188 232.978C678.042 233.022 677.871 233.061 677.675 233.095C677.485 233.129 677.265 233.146 677.016 233.146C676.611 233.146 676.252 233.076 675.939 232.934C675.627 232.788 675.383 232.551 675.207 232.224C675.031 231.896 674.943 231.462 674.943 230.92V223.134ZM678.972 229.125V228.957C678.972 228.386 679.055 227.856 679.221 227.368C679.387 226.875 679.626 226.447 679.938 226.086C680.256 225.72 680.642 225.437 681.096 225.236C681.555 225.031 682.072 224.929 682.648 224.929C683.229 224.929 683.747 225.031 684.201 225.236C684.66 225.437 685.048 225.72 685.366 226.086C685.683 226.447 685.925 226.875 686.091 227.368C686.257 227.856 686.34 228.386 686.34 228.957V229.125C686.34 229.697 686.257 230.227 686.091 230.715C685.925 231.203 685.683 231.63 685.366 231.997C685.048 232.358 684.663 232.641 684.208 232.846C683.754 233.046 683.239 233.146 682.663 233.146C682.082 233.146 681.562 233.046 681.103 232.846C680.649 232.641 680.263 232.358 679.946 231.997C679.628 231.63 679.387 231.203 679.221 230.715C679.055 230.227 678.972 229.697 678.972 229.125ZM680.737 228.957V229.125C680.737 229.482 680.773 229.819 680.847 230.136C680.92 230.454 681.035 230.732 681.191 230.971C681.347 231.21 681.547 231.398 681.792 231.535C682.036 231.672 682.326 231.74 682.663 231.74C682.99 231.74 683.273 231.672 683.513 231.535C683.757 231.398 683.957 231.21 684.113 230.971C684.27 230.732 684.384 230.454 684.458 230.136C684.536 229.819 684.575 229.482 684.575 229.125V228.957C684.575 228.605 684.536 228.273 684.458 227.961C684.384 227.644 684.267 227.363 684.106 227.119C683.95 226.875 683.75 226.684 683.505 226.547C683.266 226.406 682.98 226.335 682.648 226.335C682.316 226.335 682.028 226.406 681.784 226.547C681.545 226.684 681.347 226.875 681.191 227.119C681.035 227.363 680.92 227.644 680.847 227.961C680.773 228.273 680.737 228.605 680.737 228.957ZM689.57 226.767V233H687.805V225.075H689.467L689.57 226.767ZM689.255 228.745L688.684 228.737C688.688 228.176 688.767 227.661 688.918 227.192C689.074 226.723 689.289 226.32 689.562 225.983C689.841 225.646 690.173 225.388 690.559 225.207C690.944 225.021 691.374 224.929 691.848 224.929C692.229 224.929 692.573 224.982 692.88 225.09C693.193 225.192 693.459 225.361 693.679 225.595C693.903 225.83 694.074 226.135 694.191 226.511C694.309 226.882 694.367 227.338 694.367 227.88V233H692.595V227.873C692.595 227.492 692.539 227.192 692.426 226.972C692.319 226.748 692.16 226.589 691.95 226.496C691.745 226.398 691.489 226.35 691.181 226.35C690.878 226.35 690.607 226.413 690.368 226.54C690.129 226.667 689.926 226.84 689.76 227.06C689.599 227.28 689.475 227.534 689.387 227.822C689.299 228.11 689.255 228.417 689.255 228.745Z" fill="#1A1A1A"/>
<rect x="255" y="193" width="770" height="70" rx="7" stroke="#737373" stroke-width="2" stroke-dasharray="4 4"/>
<rect x="255" y="317" width="770" height="70" rx="7" fill="#1A1A1A" fill-opacity="0.1"/>
<path d="M598 352C598 352.51 597.587 352.923 597.077 352.923H592.923V357.077C592.923 357.588 592.51 358 592 358C591.49 358 591.077 357.588 591.077 357.077V352.923H586.923C586.413 352.923 586 352.51 586 352C586 351.49 586.413 351.077 586.923 351.077H591.077V346.923C591.077 346.413 591.49 346 592 346C592.51 346 592.923 346.413 592.923 346.923V351.077H597.077C597.588 351.077 598 351.489 598 352Z" fill="#1A1A1A"/>
<path d="M611.047 346.336V357H609.208V346.336H611.047ZM614.907 350.767V357H613.142V349.075H614.804L614.907 350.767ZM614.592 352.745L614.021 352.737C614.025 352.176 614.104 351.661 614.255 351.192C614.411 350.723 614.626 350.32 614.899 349.983C615.178 349.646 615.51 349.388 615.896 349.207C616.281 349.021 616.711 348.929 617.185 348.929C617.565 348.929 617.91 348.982 618.217 349.09C618.53 349.192 618.796 349.361 619.016 349.595C619.24 349.83 619.411 350.135 619.528 350.511C619.646 350.882 619.704 351.338 619.704 351.88V357H617.932V351.873C617.932 351.492 617.875 351.192 617.763 350.972C617.656 350.748 617.497 350.589 617.287 350.496C617.082 350.398 616.826 350.35 616.518 350.35C616.215 350.35 615.944 350.413 615.705 350.54C615.466 350.667 615.263 350.84 615.097 351.06C614.936 351.28 614.812 351.534 614.724 351.822C614.636 352.11 614.592 352.417 614.592 352.745ZM625.952 354.854C625.952 354.678 625.908 354.52 625.82 354.378C625.732 354.231 625.563 354.1 625.314 353.982C625.07 353.865 624.709 353.758 624.23 353.66C623.811 353.567 623.425 353.458 623.073 353.331C622.727 353.199 622.429 353.04 622.18 352.854C621.931 352.669 621.738 352.449 621.601 352.195C621.464 351.941 621.396 351.648 621.396 351.316C621.396 350.994 621.467 350.689 621.608 350.401C621.75 350.113 621.953 349.859 622.216 349.639C622.48 349.419 622.8 349.246 623.176 349.119C623.557 348.992 623.981 348.929 624.45 348.929C625.114 348.929 625.683 349.041 626.157 349.266C626.635 349.485 627.001 349.786 627.255 350.167C627.509 350.542 627.636 350.967 627.636 351.441H625.871C625.871 351.231 625.817 351.036 625.71 350.855C625.607 350.669 625.451 350.521 625.241 350.408C625.031 350.291 624.768 350.232 624.45 350.232C624.147 350.232 623.896 350.281 623.696 350.379C623.5 350.472 623.354 350.594 623.256 350.745C623.164 350.896 623.117 351.062 623.117 351.243C623.117 351.375 623.142 351.495 623.19 351.602C623.244 351.705 623.332 351.8 623.454 351.888C623.576 351.971 623.742 352.049 623.952 352.122C624.167 352.195 624.436 352.266 624.758 352.334C625.363 352.461 625.883 352.625 626.318 352.825C626.757 353.021 627.094 353.274 627.329 353.587C627.563 353.895 627.68 354.285 627.68 354.759C627.68 355.11 627.604 355.433 627.453 355.726C627.307 356.014 627.092 356.265 626.809 356.48C626.525 356.69 626.186 356.854 625.791 356.971C625.4 357.088 624.96 357.146 624.472 357.146C623.754 357.146 623.146 357.02 622.648 356.766C622.15 356.507 621.772 356.177 621.513 355.777C621.259 355.372 621.132 354.952 621.132 354.517H622.839C622.858 354.844 622.949 355.105 623.11 355.301C623.276 355.491 623.481 355.63 623.725 355.718C623.974 355.801 624.23 355.843 624.494 355.843C624.812 355.843 625.078 355.801 625.292 355.718C625.507 355.63 625.671 355.513 625.783 355.367C625.896 355.215 625.952 355.044 625.952 354.854ZM632.719 357.146C632.133 357.146 631.604 357.051 631.13 356.861C630.661 356.666 630.261 356.395 629.929 356.048C629.602 355.701 629.35 355.293 629.174 354.825C628.999 354.356 628.911 353.851 628.911 353.309V353.016C628.911 352.396 629.001 351.834 629.182 351.331C629.362 350.828 629.614 350.398 629.936 350.042C630.258 349.681 630.639 349.405 631.079 349.214C631.518 349.024 631.994 348.929 632.507 348.929C633.073 348.929 633.569 349.024 633.994 349.214C634.418 349.405 634.77 349.673 635.048 350.02C635.332 350.362 635.542 350.77 635.678 351.243C635.82 351.717 635.891 352.239 635.891 352.811V353.565H629.768V352.298H634.147V352.159C634.138 351.841 634.074 351.543 633.957 351.265C633.845 350.987 633.671 350.762 633.437 350.591C633.203 350.42 632.89 350.335 632.5 350.335C632.207 350.335 631.945 350.398 631.716 350.525C631.491 350.647 631.303 350.826 631.152 351.06C631 351.294 630.883 351.578 630.8 351.91C630.722 352.237 630.683 352.605 630.683 353.016V353.309C630.683 353.655 630.729 353.978 630.822 354.275C630.92 354.568 631.062 354.825 631.247 355.044C631.433 355.264 631.657 355.438 631.921 355.564C632.185 355.687 632.485 355.748 632.822 355.748C633.247 355.748 633.625 355.662 633.957 355.491C634.289 355.32 634.577 355.079 634.821 354.766L635.751 355.667C635.581 355.916 635.358 356.155 635.085 356.385C634.812 356.609 634.477 356.792 634.082 356.934C633.691 357.076 633.237 357.146 632.719 357.146ZM639.04 350.584V357H637.275V349.075H638.959L639.04 350.584ZM641.464 349.024L641.45 350.665C641.342 350.645 641.225 350.63 641.098 350.621C640.976 350.611 640.854 350.606 640.732 350.606C640.429 350.606 640.163 350.65 639.934 350.738C639.704 350.821 639.511 350.943 639.355 351.104C639.204 351.26 639.086 351.451 639.003 351.675C638.92 351.9 638.872 352.151 638.857 352.43L638.454 352.459C638.454 351.961 638.503 351.5 638.601 351.075C638.698 350.65 638.845 350.276 639.04 349.954C639.24 349.632 639.489 349.38 639.787 349.2C640.09 349.019 640.439 348.929 640.834 348.929C640.942 348.929 641.057 348.938 641.179 348.958C641.306 348.978 641.401 349 641.464 349.024ZM646.569 349.075V350.364H642.102V349.075H646.569ZM643.391 347.134H645.156V354.81C645.156 355.054 645.19 355.242 645.258 355.374C645.332 355.501 645.432 355.586 645.559 355.63C645.686 355.674 645.834 355.696 646.005 355.696C646.127 355.696 646.245 355.689 646.357 355.674C646.469 355.66 646.56 355.645 646.628 355.63L646.635 356.978C646.489 357.022 646.318 357.061 646.123 357.095C645.932 357.129 645.712 357.146 645.463 357.146C645.058 357.146 644.699 357.076 644.387 356.934C644.074 356.788 643.83 356.551 643.654 356.224C643.479 355.896 643.391 355.462 643.391 354.92V347.134ZM655.842 352.181H653.125L653.11 350.84H655.483C655.883 350.84 656.223 350.782 656.501 350.665C656.784 350.542 656.999 350.369 657.146 350.145C657.292 349.915 657.365 349.639 657.365 349.317C657.365 348.96 657.297 348.67 657.16 348.445C657.023 348.221 656.813 348.057 656.53 347.955C656.252 347.852 655.896 347.801 655.461 347.801H653.681V357H651.843V346.336H655.461C656.047 346.336 656.569 346.392 657.028 346.504C657.492 346.617 657.885 346.792 658.208 347.032C658.535 347.266 658.781 347.564 658.947 347.925C659.118 348.287 659.204 348.716 659.204 349.214C659.204 349.654 659.099 350.057 658.889 350.423C658.679 350.784 658.369 351.08 657.958 351.309C657.548 351.539 657.038 351.675 656.428 351.719L655.842 352.181ZM655.761 357H652.546L653.374 355.542H655.761C656.176 355.542 656.523 355.474 656.801 355.337C657.08 355.196 657.287 355.003 657.424 354.759C657.565 354.51 657.636 354.219 657.636 353.887C657.636 353.541 657.575 353.24 657.453 352.986C657.331 352.728 657.138 352.53 656.875 352.393C656.611 352.251 656.267 352.181 655.842 352.181H653.776L653.791 350.84H656.479L656.896 351.346C657.482 351.365 657.963 351.495 658.339 351.734C658.72 351.973 659.003 352.283 659.189 352.664C659.375 353.045 659.467 353.455 659.467 353.895C659.467 354.573 659.318 355.142 659.021 355.601C658.728 356.06 658.305 356.409 657.753 356.648C657.202 356.883 656.538 357 655.761 357ZM665.913 355.132V349.075H667.685V357H666.015L665.913 355.132ZM666.162 353.484L666.755 353.47C666.755 354.002 666.696 354.493 666.579 354.942C666.462 355.386 666.281 355.774 666.037 356.106C665.793 356.434 665.48 356.69 665.1 356.875C664.719 357.056 664.262 357.146 663.73 357.146C663.344 357.146 662.99 357.09 662.668 356.978C662.346 356.866 662.067 356.692 661.833 356.458C661.604 356.224 661.425 355.918 661.298 355.542C661.171 355.167 661.108 354.717 661.108 354.195V349.075H662.873V354.209C662.873 354.498 662.907 354.739 662.976 354.935C663.044 355.125 663.137 355.279 663.254 355.396C663.371 355.513 663.508 355.596 663.664 355.645C663.82 355.694 663.986 355.718 664.162 355.718C664.665 355.718 665.061 355.621 665.349 355.425C665.642 355.225 665.849 354.957 665.971 354.62C666.098 354.283 666.162 353.904 666.162 353.484ZM673.127 349.075V350.364H668.659V349.075H673.127ZM669.948 347.134H671.713V354.81C671.713 355.054 671.748 355.242 671.816 355.374C671.889 355.501 671.989 355.586 672.116 355.63C672.243 355.674 672.392 355.696 672.563 355.696C672.685 355.696 672.802 355.689 672.915 355.674C673.027 355.66 673.117 355.645 673.186 355.63L673.193 356.978C673.046 357.022 672.875 357.061 672.68 357.095C672.49 357.129 672.27 357.146 672.021 357.146C671.616 357.146 671.257 357.076 670.944 356.934C670.632 356.788 670.388 356.551 670.212 356.224C670.036 355.896 669.948 355.462 669.948 354.92V347.134ZM678.122 349.075V350.364H673.654V349.075H678.122ZM674.943 347.134H676.708V354.81C676.708 355.054 676.743 355.242 676.811 355.374C676.884 355.501 676.984 355.586 677.111 355.63C677.238 355.674 677.387 355.696 677.558 355.696C677.68 355.696 677.797 355.689 677.91 355.674C678.022 355.66 678.112 355.645 678.181 355.63L678.188 356.978C678.042 357.022 677.871 357.061 677.675 357.095C677.485 357.129 677.265 357.146 677.016 357.146C676.611 357.146 676.252 357.076 675.939 356.934C675.627 356.788 675.383 356.551 675.207 356.224C675.031 355.896 674.943 355.462 674.943 354.92V347.134ZM678.972 353.125V352.957C678.972 352.386 679.055 351.856 679.221 351.368C679.387 350.875 679.626 350.447 679.938 350.086C680.256 349.72 680.642 349.437 681.096 349.236C681.555 349.031 682.072 348.929 682.648 348.929C683.229 348.929 683.747 349.031 684.201 349.236C684.66 349.437 685.048 349.72 685.366 350.086C685.683 350.447 685.925 350.875 686.091 351.368C686.257 351.856 686.34 352.386 686.34 352.957V353.125C686.34 353.697 686.257 354.227 686.091 354.715C685.925 355.203 685.683 355.63 685.366 355.997C685.048 356.358 684.663 356.641 684.208 356.846C683.754 357.046 683.239 357.146 682.663 357.146C682.082 357.146 681.562 357.046 681.103 356.846C680.649 356.641 680.263 356.358 679.946 355.997C679.628 355.63 679.387 355.203 679.221 354.715C679.055 354.227 678.972 353.697 678.972 353.125ZM680.737 352.957V353.125C680.737 353.482 680.773 353.819 680.847 354.136C680.92 354.454 681.035 354.732 681.191 354.971C681.347 355.21 681.547 355.398 681.792 355.535C682.036 355.672 682.326 355.74 682.663 355.74C682.99 355.74 683.273 355.672 683.513 355.535C683.757 355.398 683.957 355.21 684.113 354.971C684.27 354.732 684.384 354.454 684.458 354.136C684.536 353.819 684.575 353.482 684.575 353.125V352.957C684.575 352.605 684.536 352.273 684.458 351.961C684.384 351.644 684.267 351.363 684.106 351.119C683.95 350.875 683.75 350.684 683.505 350.547C683.266 350.406 682.98 350.335 682.648 350.335C682.316 350.335 682.028 350.406 681.784 350.547C681.545 350.684 681.347 350.875 681.191 351.119C681.035 351.363 680.92 351.644 680.847 351.961C680.773 352.273 680.737 352.605 680.737 352.957ZM689.57 350.767V357H687.805V349.075H689.467L689.57 350.767ZM689.255 352.745L688.684 352.737C688.688 352.176 688.767 351.661 688.918 351.192C689.074 350.723 689.289 350.32 689.562 349.983C689.841 349.646 690.173 349.388 690.559 349.207C690.944 349.021 691.374 348.929 691.848 348.929C692.229 348.929 692.573 348.982 692.88 349.09C693.193 349.192 693.459 349.361 693.679 349.595C693.903 349.83 694.074 350.135 694.191 350.511C694.309 350.882 694.367 351.338 694.367 351.88V357H692.595V351.873C692.595 351.492 692.539 351.192 692.426 350.972C692.319 350.748 692.16 350.589 691.95 350.496C691.745 350.398 691.489 350.35 691.181 350.35C690.878 350.35 690.607 350.413 690.368 350.54C690.129 350.667 689.926 350.84 689.76 351.06C689.599 351.28 689.475 351.534 689.387 351.822C689.299 352.11 689.255 352.417 689.255 352.745Z" fill="#1A1A1A"/>
<rect x="255" y="317" width="770" height="70" rx="7" stroke="#505050" stroke-width="2" stroke-dasharray="4 4"/>
<path d="M257.625 54H255.65L255.663 52.7368H257.625C258.196 52.7368 258.674 52.612 259.059 52.3623C259.448 52.1126 259.74 51.755 259.935 51.2896C260.134 50.8241 260.233 50.2697 260.233 49.6265V49.125C260.233 48.6257 260.176 48.1834 260.062 47.7983C259.952 47.4132 259.787 47.0895 259.567 46.8271C259.351 46.5648 259.084 46.3659 258.767 46.2305C258.454 46.0951 258.092 46.0273 257.682 46.0273H255.612V44.7578H257.682C258.295 44.7578 258.856 44.8615 259.364 45.0688C259.872 45.272 260.31 45.5661 260.678 45.9512C261.05 46.3363 261.336 46.7975 261.535 47.335C261.734 47.8724 261.833 48.4733 261.833 49.1377V49.6265C261.833 50.2909 261.734 50.8918 261.535 51.4292C261.336 51.9666 261.05 52.4279 260.678 52.813C260.305 53.1938 259.861 53.488 259.345 53.6953C258.833 53.8984 258.259 54 257.625 54ZM256.533 44.7578V54H254.939V44.7578H256.533ZM270.482 52.7368V54H265.575V52.7368H270.482ZM266.026 44.7578V54H264.433V44.7578H266.026ZM269.841 48.6172V49.8613H265.575V48.6172H269.841ZM270.45 44.7578V46.0273H265.575V44.7578H270.45ZM274.376 44.7578V54H272.783V44.7578H274.376ZM278.147 48.8013V50.0645H273.97V48.8013H278.147ZM278.674 44.7578V46.0273H273.97V44.7578H278.674ZM283.413 45.9893L280.651 54H278.982L282.46 44.7578H283.527L283.413 45.9893ZM285.723 54L282.956 45.9893L282.835 44.7578H283.908L287.399 54H285.723ZM285.59 50.5723V51.8354H280.562V50.5723H285.59ZM294.505 44.7578H296.092V50.9341C296.092 51.6366 295.94 52.2248 295.635 52.6987C295.331 53.1727 294.916 53.5303 294.391 53.7715C293.871 54.0085 293.289 54.127 292.646 54.127C291.981 54.127 291.389 54.0085 290.868 53.7715C290.348 53.5303 289.937 53.1727 289.637 52.6987C289.34 52.2248 289.192 51.6366 289.192 50.9341V44.7578H290.779V50.9341C290.779 51.3784 290.855 51.7445 291.008 52.0322C291.16 52.3158 291.376 52.5252 291.655 52.6606C291.935 52.7961 292.265 52.8638 292.646 52.8638C293.026 52.8638 293.354 52.7961 293.629 52.6606C293.909 52.5252 294.125 52.3158 294.277 52.0322C294.429 51.7445 294.505 51.3784 294.505 50.9341V44.7578ZM304.614 52.7368V54H299.974V52.7368H304.614ZM300.418 44.7578V54H298.825V44.7578H300.418ZM309.061 44.7578V54H307.48V44.7578H309.061ZM311.962 44.7578V46.0273H304.605V44.7578H311.962Z" fill="#737373"/>
<path d="M261.046 172.617V173.88H256.139V172.617H261.046ZM256.533 168.758V178H254.939V168.758H256.533ZM262.271 168.758V178H260.684V168.758H262.271ZM272.539 173.125V173.633C272.539 174.331 272.448 174.957 272.266 175.512C272.084 176.066 271.823 176.538 271.485 176.927C271.151 177.317 270.749 177.615 270.279 177.822C269.809 178.025 269.289 178.127 268.717 178.127C268.15 178.127 267.632 178.025 267.162 177.822C266.697 177.615 266.292 177.317 265.95 176.927C265.607 176.538 265.34 176.066 265.15 175.512C264.964 174.957 264.871 174.331 264.871 173.633V173.125C264.871 172.427 264.964 171.803 265.15 171.252C265.336 170.698 265.598 170.226 265.937 169.837C266.28 169.443 266.684 169.145 267.149 168.942C267.619 168.735 268.138 168.631 268.705 168.631C269.276 168.631 269.796 168.735 270.266 168.942C270.736 169.145 271.14 169.443 271.479 169.837C271.817 170.226 272.077 170.698 272.259 171.252C272.445 171.803 272.539 172.427 272.539 173.125ZM270.945 173.633V173.112C270.945 172.596 270.895 172.141 270.793 171.748C270.696 171.35 270.55 171.018 270.355 170.751C270.165 170.48 269.93 170.277 269.65 170.142C269.371 170.002 269.056 169.932 268.705 169.932C268.353 169.932 268.04 170.002 267.765 170.142C267.49 170.277 267.255 170.48 267.061 170.751C266.87 171.018 266.724 171.35 266.623 171.748C266.521 172.141 266.47 172.596 266.47 173.112V173.633C266.47 174.149 266.521 174.606 266.623 175.004C266.724 175.402 266.872 175.738 267.067 176.013C267.266 176.284 267.503 176.489 267.778 176.629C268.053 176.764 268.366 176.832 268.717 176.832C269.073 176.832 269.388 176.764 269.663 176.629C269.938 176.489 270.171 176.284 270.361 176.013C270.552 175.738 270.696 175.402 270.793 175.004C270.895 174.606 270.945 174.149 270.945 173.633ZM278.16 176.312L280.591 168.758H282.349L279.036 178H277.849L278.16 176.312ZM275.913 168.758L278.325 176.312L278.655 178H277.461L274.161 168.758H275.913ZM290.433 176.737V178H285.526V176.737H290.433ZM285.977 168.758V178H284.384V168.758H285.977ZM289.792 172.617V173.861H285.526V172.617H289.792ZM290.401 168.758V170.027H285.526V168.758H290.401ZM292.734 168.758H296.003C296.706 168.758 297.305 168.864 297.8 169.075C298.295 169.287 298.674 169.6 298.936 170.015C299.203 170.425 299.336 170.933 299.336 171.538C299.336 171.999 299.251 172.406 299.082 172.757C298.913 173.108 298.674 173.404 298.365 173.646C298.056 173.882 297.688 174.067 297.26 174.198L296.778 174.433H293.839L293.826 173.169H296.029C296.41 173.169 296.727 173.102 296.981 172.966C297.235 172.831 297.425 172.647 297.552 172.414C297.683 172.177 297.749 171.91 297.749 171.614C297.749 171.293 297.686 171.013 297.559 170.776C297.436 170.535 297.245 170.351 296.987 170.224C296.729 170.093 296.401 170.027 296.003 170.027H294.328V178H292.734V168.758ZM298.009 178L295.838 173.849L297.508 173.842L299.71 177.917V178H298.009Z" fill="#737373"/>
<path d="M260.398 298.991H261.985C261.935 299.596 261.765 300.136 261.478 300.61C261.19 301.08 260.786 301.45 260.265 301.721C259.745 301.992 259.112 302.127 258.367 302.127C257.796 302.127 257.282 302.025 256.825 301.822C256.368 301.615 255.976 301.323 255.65 300.946C255.325 300.565 255.075 300.106 254.901 299.569C254.732 299.031 254.647 298.431 254.647 297.766V296.998C254.647 296.334 254.734 295.733 254.908 295.195C255.085 294.658 255.339 294.199 255.669 293.818C256 293.433 256.395 293.139 256.856 292.936C257.322 292.732 257.845 292.631 258.424 292.631C259.161 292.631 259.783 292.766 260.291 293.037C260.798 293.308 261.192 293.682 261.471 294.161C261.755 294.639 261.928 295.187 261.992 295.805H260.405C260.362 295.407 260.269 295.066 260.125 294.783C259.986 294.499 259.778 294.283 259.503 294.135C259.228 293.983 258.869 293.907 258.424 293.907C258.06 293.907 257.743 293.974 257.472 294.11C257.201 294.245 256.975 294.444 256.793 294.707C256.611 294.969 256.473 295.293 256.38 295.678C256.292 296.059 256.247 296.494 256.247 296.985V297.766C256.247 298.232 256.287 298.655 256.368 299.036C256.452 299.412 256.579 299.736 256.749 300.007C256.922 300.278 257.142 300.487 257.409 300.635C257.675 300.783 257.995 300.857 258.367 300.857C258.82 300.857 259.186 300.785 259.465 300.642C259.749 300.498 259.963 300.288 260.106 300.013C260.255 299.734 260.352 299.393 260.398 298.991ZM270.222 300.737V302H265.582V300.737H270.222ZM266.026 292.758V302H264.433V292.758H266.026ZM274.154 292.758V302H272.561V292.758H274.154ZM282.594 298.991H284.181C284.13 299.596 283.961 300.136 283.673 300.61C283.385 301.08 282.981 301.45 282.46 301.721C281.94 301.992 281.307 302.127 280.562 302.127C279.991 302.127 279.477 302.025 279.02 301.822C278.563 301.615 278.172 301.323 277.846 300.946C277.52 300.565 277.27 300.106 277.097 299.569C276.927 299.031 276.843 298.431 276.843 297.766V296.998C276.843 296.334 276.93 295.733 277.103 295.195C277.281 294.658 277.535 294.199 277.865 293.818C278.195 293.433 278.59 293.139 279.052 292.936C279.517 292.732 280.04 292.631 280.62 292.631C281.356 292.631 281.978 292.766 282.486 293.037C282.994 293.308 283.387 293.682 283.667 294.161C283.95 294.639 284.124 295.187 284.187 295.805H282.6C282.558 295.407 282.465 295.066 282.321 294.783C282.181 294.499 281.974 294.283 281.699 294.135C281.424 293.983 281.064 293.907 280.62 293.907C280.256 293.907 279.938 293.974 279.667 294.11C279.397 294.245 279.17 294.444 278.988 294.707C278.806 294.969 278.669 295.293 278.576 295.678C278.487 296.059 278.442 296.494 278.442 296.985V297.766C278.442 298.232 278.483 298.655 278.563 299.036C278.648 299.412 278.775 299.736 278.944 300.007C279.117 300.278 279.337 300.487 279.604 300.635C279.871 300.783 280.19 300.857 280.562 300.857C281.015 300.857 281.381 300.785 281.661 300.642C281.944 300.498 282.158 300.288 282.302 300.013C282.45 299.734 282.547 299.393 282.594 298.991ZM288.221 292.758V302H286.628V292.758H288.221ZM293.775 292.758L290.03 297.208L287.897 299.467L287.618 297.887L289.142 296.008L291.833 292.758H293.775ZM292.062 302L289.021 297.62L290.119 296.535L293.953 302H292.062ZM301.891 300.737V302H296.984V300.737H301.891ZM297.435 292.758V302H295.842V292.758H297.435ZM301.25 296.617V297.861H296.984V296.617H301.25ZM301.859 292.758V294.027H296.984V292.758H301.859ZM306.877 302H304.903L304.916 300.737H306.877C307.449 300.737 307.927 300.612 308.312 300.362C308.701 300.113 308.993 299.755 309.188 299.29C309.387 298.824 309.486 298.27 309.486 297.626V297.125C309.486 296.626 309.429 296.183 309.315 295.798C309.205 295.413 309.04 295.09 308.82 294.827C308.604 294.565 308.337 294.366 308.02 294.23C307.707 294.095 307.345 294.027 306.935 294.027H304.865V292.758H306.935C307.548 292.758 308.109 292.861 308.617 293.069C309.125 293.272 309.562 293.566 309.931 293.951C310.303 294.336 310.589 294.798 310.788 295.335C310.986 295.872 311.086 296.473 311.086 297.138V297.626C311.086 298.291 310.986 298.892 310.788 299.429C310.589 299.967 310.303 300.428 309.931 300.813C309.558 301.194 309.114 301.488 308.598 301.695C308.086 301.898 307.512 302 306.877 302ZM305.786 292.758V302H304.192V292.758H305.786Z" fill="#737373"/>
<rect x="0.5" y="0.5" width="1279" height="427" rx="15.5" stroke="#E6E6E6"/>
</svg>
