<svg width="800" height="212" viewBox="0 0 800 212" fill="none" xmlns="http://www.w3.org/2000/svg">
<rect width="800" height="212" rx="4" fill="#F8F8F8"/>
<path d="M254 46H266L260 40L254 46Z" fill="#1A1A1A"/>
<rect x="246" y="46" width="68" height="40" rx="4" fill="#1A1A1A"/>
<path d="M262.544 60.7578V70H261.338V60.7578H262.544ZM265.515 60.7578V61.7607H258.374V60.7578H265.515ZM265.762 66.6421V66.4961C265.762 66.001 265.834 65.5418 265.978 65.1187C266.122 64.6912 266.329 64.321 266.6 64.0078C266.871 63.6904 267.199 63.445 267.584 63.2715C267.969 63.0938 268.401 63.0049 268.879 63.0049C269.361 63.0049 269.795 63.0938 270.18 63.2715C270.569 63.445 270.9 63.6904 271.17 64.0078C271.445 64.321 271.655 64.6912 271.799 65.1187C271.943 65.5418 272.015 66.001 272.015 66.4961V66.6421C272.015 67.1372 271.943 67.5964 271.799 68.0195C271.655 68.4427 271.445 68.813 271.17 69.1304C270.9 69.4435 270.572 69.689 270.187 69.8667C269.806 70.0402 269.374 70.127 268.892 70.127C268.409 70.127 267.975 70.0402 267.59 69.8667C267.205 69.689 266.875 69.4435 266.6 69.1304C266.329 68.813 266.122 68.4427 265.978 68.0195C265.834 67.5964 265.762 67.1372 265.762 66.6421ZM266.937 66.4961V66.6421C266.937 66.9849 266.977 67.3086 267.057 67.6133C267.138 67.9137 267.258 68.1803 267.419 68.4131C267.584 68.6458 267.789 68.8299 268.035 68.9653C268.28 69.0965 268.566 69.1621 268.892 69.1621C269.213 69.1621 269.495 69.0965 269.736 68.9653C269.981 68.8299 270.184 68.6458 270.345 68.4131C270.506 68.1803 270.627 67.9137 270.707 67.6133C270.792 67.3086 270.834 66.9849 270.834 66.6421V66.4961C270.834 66.1576 270.792 65.8381 270.707 65.5376C270.627 65.2329 270.504 64.9642 270.339 64.7314C270.178 64.4945 269.975 64.3083 269.729 64.1729C269.488 64.0374 269.205 63.9697 268.879 63.9697C268.557 63.9697 268.274 64.0374 268.028 64.1729C267.787 64.3083 267.584 64.4945 267.419 64.7314C267.258 64.9642 267.138 65.2329 267.057 65.5376C266.977 65.8381 266.937 66.1576 266.937 66.4961ZM274.662 64.4521V72.6406H273.481V63.1318H274.56L274.662 64.4521ZM279.289 66.5088V66.6421C279.289 67.1414 279.23 67.6048 279.111 68.0322C278.993 68.4554 278.819 68.8236 278.591 69.1367C278.367 69.4499 278.089 69.6932 277.759 69.8667C277.429 70.0402 277.05 70.127 276.623 70.127C276.187 70.127 275.802 70.055 275.468 69.9111C275.133 69.7673 274.85 69.5578 274.617 69.2827C274.384 69.0076 274.198 68.6776 274.059 68.2925C273.923 67.9074 273.83 67.4736 273.779 66.9912V66.2803C273.83 65.7725 273.925 65.3175 274.065 64.9155C274.205 64.5135 274.389 64.1707 274.617 63.8872C274.85 63.5994 275.131 63.3815 275.461 63.2334C275.792 63.0811 276.172 63.0049 276.604 63.0049C277.036 63.0049 277.419 63.0895 277.753 63.2588C278.087 63.4238 278.369 63.6608 278.597 63.9697C278.826 64.2786 278.997 64.6489 279.111 65.0806C279.23 65.508 279.289 65.984 279.289 66.5088ZM278.108 66.6421V66.5088C278.108 66.166 278.072 65.8444 278 65.5439C277.929 65.2393 277.816 64.9727 277.664 64.7441C277.516 64.5114 277.326 64.3294 277.093 64.1982C276.86 64.0628 276.583 63.9951 276.261 63.9951C275.965 63.9951 275.707 64.0459 275.487 64.1475C275.271 64.249 275.087 64.3866 274.935 64.5601C274.782 64.7293 274.657 64.924 274.56 65.144C274.467 65.3599 274.397 65.5841 274.351 65.8169V67.4609C274.435 67.7572 274.554 68.0365 274.706 68.2988C274.858 68.557 275.062 68.7664 275.315 68.9272C275.569 69.0838 275.889 69.1621 276.274 69.1621C276.591 69.1621 276.864 69.0965 277.093 68.9653C277.326 68.8299 277.516 68.6458 277.664 68.4131C277.816 68.1803 277.929 67.9137 278 67.6133C278.072 67.3086 278.108 66.9849 278.108 66.6421ZM285.288 60.25V70H284.107V60.25H285.288ZM290.023 70.127C289.545 70.127 289.111 70.0465 288.722 69.8857C288.337 69.7207 288.004 69.4901 287.725 69.1938C287.45 68.8976 287.238 68.5464 287.09 68.1401C286.942 67.7339 286.868 67.2896 286.868 66.8071V66.5405C286.868 65.9819 286.951 65.4847 287.116 65.0488C287.281 64.6087 287.505 64.2363 287.789 63.9316C288.072 63.627 288.394 63.3963 288.753 63.2397C289.113 63.0832 289.486 63.0049 289.871 63.0049C290.361 63.0049 290.785 63.0895 291.14 63.2588C291.5 63.4281 291.794 63.665 292.022 63.9697C292.251 64.2702 292.42 64.6257 292.53 65.0361C292.64 65.4424 292.695 65.8867 292.695 66.3691V66.896H287.566V65.9375H291.521V65.8486C291.504 65.5439 291.441 65.2477 291.331 64.96C291.225 64.6722 291.056 64.4352 290.823 64.249C290.59 64.0628 290.273 63.9697 289.871 63.9697C289.604 63.9697 289.359 64.0269 289.134 64.1411C288.91 64.2511 288.717 64.4162 288.557 64.6362C288.396 64.8563 288.271 65.125 288.182 65.4424C288.093 65.7598 288.049 66.1258 288.049 66.5405V66.8071C288.049 67.133 288.093 67.4398 288.182 67.7275C288.275 68.0111 288.409 68.2607 288.582 68.4766C288.76 68.6924 288.973 68.8617 289.223 68.9844C289.477 69.1071 289.765 69.1685 290.086 69.1685C290.501 69.1685 290.852 69.0838 291.14 68.9146C291.428 68.7453 291.68 68.5189 291.896 68.2354L292.606 68.8003C292.458 69.0246 292.27 69.2383 292.042 69.4414C291.813 69.6445 291.532 69.8096 291.197 69.9365C290.867 70.0635 290.476 70.127 290.023 70.127ZM295.818 70H294.644V62.4082C294.644 61.9131 294.733 61.4963 294.911 61.1577C295.093 60.8149 295.353 60.5568 295.691 60.3833C296.03 60.2056 296.432 60.1167 296.897 60.1167C297.033 60.1167 297.168 60.1252 297.304 60.1421C297.443 60.159 297.579 60.1844 297.71 60.2183L297.646 61.1768C297.558 61.1556 297.456 61.1408 297.342 61.1323C297.232 61.1239 297.122 61.1196 297.012 61.1196C296.762 61.1196 296.546 61.1704 296.364 61.272C296.187 61.3693 296.051 61.5132 295.958 61.7036C295.865 61.894 295.818 62.1289 295.818 62.4082V70ZM297.278 63.1318V64.0332H293.559V63.1318H297.278ZM301.461 63.1318V64.0332H297.748V63.1318H301.461ZM299.005 61.4624H300.179V68.2988C300.179 68.5316 300.215 68.7072 300.287 68.8257C300.359 68.9442 300.452 69.0225 300.566 69.0605C300.681 69.0986 300.803 69.1177 300.935 69.1177C301.032 69.1177 301.133 69.1092 301.239 69.0923C301.349 69.0711 301.432 69.0542 301.487 69.0415L301.493 70C301.4 70.0296 301.277 70.0571 301.125 70.0825C300.977 70.1121 300.797 70.127 300.585 70.127C300.298 70.127 300.033 70.0698 299.792 69.9556C299.551 69.8413 299.358 69.6509 299.214 69.3843C299.075 69.1134 299.005 68.7495 299.005 68.2925V61.4624Z" fill="white"/>
<path d="M391 46H403L397 40L391 46Z" fill="#1A1A1A"/>
<rect x="354" y="46" width="86" height="40" rx="4" fill="#1A1A1A"/>
<path d="M370.74 60.7578V70H369.534V60.7578H370.74ZM373.71 60.7578V61.7607H366.569V60.7578H373.71ZM373.958 66.6421V66.4961C373.958 66.001 374.03 65.5418 374.174 65.1187C374.318 64.6912 374.525 64.321 374.796 64.0078C375.067 63.6904 375.395 63.445 375.78 63.2715C376.165 63.0938 376.597 63.0049 377.075 63.0049C377.557 63.0049 377.991 63.0938 378.376 63.2715C378.765 63.445 379.095 63.6904 379.366 64.0078C379.641 64.321 379.851 64.6912 379.995 65.1187C380.139 65.5418 380.21 66.001 380.21 66.4961V66.6421C380.21 67.1372 380.139 67.5964 379.995 68.0195C379.851 68.4427 379.641 68.813 379.366 69.1304C379.095 69.4435 378.767 69.689 378.382 69.8667C378.001 70.0402 377.57 70.127 377.087 70.127C376.605 70.127 376.171 70.0402 375.786 69.8667C375.401 69.689 375.071 69.4435 374.796 69.1304C374.525 68.813 374.318 68.4427 374.174 68.0195C374.03 67.5964 373.958 67.1372 373.958 66.6421ZM375.132 66.4961V66.6421C375.132 66.9849 375.173 67.3086 375.253 67.6133C375.333 67.9137 375.454 68.1803 375.615 68.4131C375.78 68.6458 375.985 68.8299 376.23 68.9653C376.476 69.0965 376.762 69.1621 377.087 69.1621C377.409 69.1621 377.69 69.0965 377.932 68.9653C378.177 68.8299 378.38 68.6458 378.541 68.4131C378.702 68.1803 378.822 67.9137 378.903 67.6133C378.987 67.3086 379.03 66.9849 379.03 66.6421V66.4961C379.03 66.1576 378.987 65.8381 378.903 65.5376C378.822 65.2329 378.7 64.9642 378.535 64.7314C378.374 64.4945 378.171 64.3083 377.925 64.1729C377.684 64.0374 377.401 63.9697 377.075 63.9697C376.753 63.9697 376.47 64.0374 376.224 64.1729C375.983 64.3083 375.78 64.4945 375.615 64.7314C375.454 64.9642 375.333 65.2329 375.253 65.5376C375.173 65.8381 375.132 66.1576 375.132 66.4961ZM382.857 64.4521V72.6406H381.677V63.1318H382.756L382.857 64.4521ZM387.485 66.5088V66.6421C387.485 67.1414 387.426 67.6048 387.307 68.0322C387.189 68.4554 387.015 68.8236 386.787 69.1367C386.562 69.4499 386.285 69.6932 385.955 69.8667C385.625 70.0402 385.246 70.127 384.819 70.127C384.383 70.127 383.998 70.055 383.664 69.9111C383.329 69.7673 383.046 69.5578 382.813 69.2827C382.58 69.0076 382.394 68.6776 382.254 68.2925C382.119 67.9074 382.026 67.4736 381.975 66.9912V66.2803C382.026 65.7725 382.121 65.3175 382.261 64.9155C382.4 64.5135 382.584 64.1707 382.813 63.8872C383.046 63.5994 383.327 63.3815 383.657 63.2334C383.987 63.0811 384.368 63.0049 384.8 63.0049C385.231 63.0049 385.614 63.0895 385.949 63.2588C386.283 63.4238 386.564 63.6608 386.793 63.9697C387.021 64.2786 387.193 64.6489 387.307 65.0806C387.426 65.508 387.485 65.984 387.485 66.5088ZM386.304 66.6421V66.5088C386.304 66.166 386.268 65.8444 386.196 65.5439C386.124 65.2393 386.012 64.9727 385.86 64.7441C385.712 64.5114 385.521 64.3294 385.289 64.1982C385.056 64.0628 384.779 63.9951 384.457 63.9951C384.161 63.9951 383.903 64.0459 383.683 64.1475C383.467 64.249 383.283 64.3866 383.13 64.5601C382.978 64.7293 382.853 64.924 382.756 65.144C382.663 65.3599 382.593 65.5841 382.546 65.8169V67.4609C382.631 67.7572 382.75 68.0365 382.902 68.2988C383.054 68.557 383.257 68.7664 383.511 68.9272C383.765 69.0838 384.085 69.1621 384.47 69.1621C384.787 69.1621 385.06 69.0965 385.289 68.9653C385.521 68.8299 385.712 68.6458 385.86 68.4131C386.012 68.1803 386.124 67.9137 386.196 67.6133C386.268 67.3086 386.304 66.9849 386.304 66.6421ZM394.956 69.1621C395.235 69.1621 395.493 69.105 395.73 68.9907C395.967 68.8765 396.162 68.7199 396.314 68.521C396.467 68.3179 396.554 68.0872 396.575 67.8291H397.692C397.671 68.2354 397.533 68.6141 397.279 68.9653C397.03 69.3123 396.702 69.5938 396.295 69.8096C395.889 70.0212 395.443 70.127 394.956 70.127C394.44 70.127 393.989 70.036 393.604 69.854C393.223 69.672 392.906 69.4224 392.652 69.105C392.402 68.7876 392.214 68.4237 392.087 68.0132C391.964 67.5985 391.903 67.1605 391.903 66.6992V66.4326C391.903 65.9714 391.964 65.5355 392.087 65.125C392.214 64.7103 392.402 64.3442 392.652 64.0269C392.906 63.7095 393.223 63.4598 393.604 63.2778C393.989 63.0959 394.44 63.0049 394.956 63.0049C395.493 63.0049 395.963 63.1149 396.365 63.335C396.767 63.5508 397.083 63.847 397.311 64.2236C397.544 64.596 397.671 65.0192 397.692 65.4932H396.575C396.554 65.2096 396.473 64.9536 396.333 64.7251C396.198 64.4966 396.012 64.3146 395.775 64.1792C395.542 64.0396 395.269 63.9697 394.956 63.9697C394.596 63.9697 394.294 64.0417 394.048 64.1855C393.807 64.3252 393.615 64.5156 393.471 64.7568C393.331 64.9938 393.229 65.2583 393.166 65.5503C393.107 65.8381 393.077 66.1322 393.077 66.4326V66.6992C393.077 66.9997 393.107 67.2959 393.166 67.5879C393.225 67.8799 393.325 68.1444 393.464 68.3813C393.608 68.6183 393.801 68.8088 394.042 68.9526C394.287 69.0923 394.592 69.1621 394.956 69.1621ZM401.862 70.127C401.384 70.127 400.95 70.0465 400.561 69.8857C400.176 69.7207 399.844 69.4901 399.564 69.1938C399.289 68.8976 399.078 68.5464 398.93 68.1401C398.782 67.7339 398.708 67.2896 398.708 66.8071V66.5405C398.708 65.9819 398.79 65.4847 398.955 65.0488C399.12 64.6087 399.344 64.2363 399.628 63.9316C399.911 63.627 400.233 63.3963 400.593 63.2397C400.952 63.0832 401.325 63.0049 401.71 63.0049C402.201 63.0049 402.624 63.0895 402.979 63.2588C403.339 63.4281 403.633 63.665 403.862 63.9697C404.09 64.2702 404.26 64.6257 404.37 65.0361C404.48 65.4424 404.535 65.8867 404.535 66.3691V66.896H399.406V65.9375H403.36V65.8486C403.343 65.5439 403.28 65.2477 403.17 64.96C403.064 64.6722 402.895 64.4352 402.662 64.249C402.429 64.0628 402.112 63.9697 401.71 63.9697C401.443 63.9697 401.198 64.0269 400.974 64.1411C400.749 64.2511 400.557 64.4162 400.396 64.6362C400.235 64.8563 400.11 65.125 400.021 65.4424C399.933 65.7598 399.888 66.1258 399.888 66.5405V66.8071C399.888 67.133 399.933 67.4398 400.021 67.7275C400.115 68.0111 400.248 68.2607 400.421 68.4766C400.599 68.6924 400.813 68.8617 401.062 68.9844C401.316 69.1071 401.604 69.1685 401.926 69.1685C402.34 69.1685 402.692 69.0838 402.979 68.9146C403.267 68.7453 403.519 68.5189 403.735 68.2354L404.446 68.8003C404.298 69.0246 404.109 69.2383 403.881 69.4414C403.652 69.6445 403.371 69.8096 403.037 69.9365C402.707 70.0635 402.315 70.127 401.862 70.127ZM407.08 64.5981V70H405.906V63.1318H407.017L407.08 64.5981ZM406.801 66.3057L406.312 66.2866C406.316 65.8169 406.386 65.3831 406.521 64.9854C406.657 64.5833 406.847 64.2342 407.093 63.938C407.338 63.6418 407.63 63.4132 407.969 63.2524C408.312 63.0874 408.69 63.0049 409.105 63.0049C409.444 63.0049 409.748 63.0514 410.019 63.1445C410.29 63.2334 410.521 63.3773 410.711 63.5762C410.906 63.7751 411.054 64.0332 411.155 64.3506C411.257 64.6637 411.308 65.0467 411.308 65.4995V70H410.127V65.4868C410.127 65.1271 410.074 64.8394 409.968 64.6235C409.862 64.4035 409.708 64.2448 409.505 64.1475C409.302 64.0459 409.052 63.9951 408.756 63.9951C408.464 63.9951 408.197 64.0565 407.956 64.1792C407.719 64.3019 407.514 64.4712 407.34 64.687C407.171 64.9028 407.038 65.1504 406.94 65.4297C406.847 65.7048 406.801 65.9967 406.801 66.3057ZM415.967 63.1318V64.0332H412.253V63.1318H415.967ZM413.51 61.4624H414.685V68.2988C414.685 68.5316 414.721 68.7072 414.792 68.8257C414.864 68.9442 414.958 69.0225 415.072 69.0605C415.186 69.0986 415.309 69.1177 415.44 69.1177C415.537 69.1177 415.639 69.1092 415.745 69.0923C415.855 69.0711 415.937 69.0542 415.992 69.0415L415.999 70C415.905 70.0296 415.783 70.0571 415.63 70.0825C415.482 70.1121 415.302 70.127 415.091 70.127C414.803 70.127 414.539 70.0698 414.297 69.9556C414.056 69.8413 413.864 69.6509 413.72 69.3843C413.58 69.1134 413.51 68.7495 413.51 68.2925V61.4624ZM420.194 70.127C419.716 70.127 419.282 70.0465 418.893 69.8857C418.508 69.7207 418.176 69.4901 417.896 69.1938C417.621 68.8976 417.41 68.5464 417.262 68.1401C417.114 67.7339 417.04 67.2896 417.04 66.8071V66.5405C417.04 65.9819 417.122 65.4847 417.287 65.0488C417.452 64.6087 417.676 64.2363 417.96 63.9316C418.243 63.627 418.565 63.3963 418.925 63.2397C419.285 63.0832 419.657 63.0049 420.042 63.0049C420.533 63.0049 420.956 63.0895 421.312 63.2588C421.671 63.4281 421.965 63.665 422.194 63.9697C422.422 64.2702 422.592 64.6257 422.702 65.0361C422.812 65.4424 422.867 65.8867 422.867 66.3691V66.896H417.738V65.9375H421.692V65.8486C421.675 65.5439 421.612 65.2477 421.502 64.96C421.396 64.6722 421.227 64.4352 420.994 64.249C420.761 64.0628 420.444 63.9697 420.042 63.9697C419.775 63.9697 419.53 64.0269 419.306 64.1411C419.081 64.2511 418.889 64.4162 418.728 64.6362C418.567 64.8563 418.442 65.125 418.354 65.4424C418.265 65.7598 418.22 66.1258 418.22 66.5405V66.8071C418.22 67.133 418.265 67.4398 418.354 67.7275C418.447 68.0111 418.58 68.2607 418.753 68.4766C418.931 68.6924 419.145 68.8617 419.395 68.9844C419.648 69.1071 419.936 69.1685 420.258 69.1685C420.673 69.1685 421.024 69.0838 421.312 68.9146C421.599 68.7453 421.851 68.5189 422.067 68.2354L422.778 68.8003C422.63 69.0246 422.441 69.2383 422.213 69.4414C421.984 69.6445 421.703 69.8096 421.369 69.9365C421.039 70.0635 420.647 70.127 420.194 70.127ZM425.412 64.2109V70H424.238V63.1318H425.38L425.412 64.2109ZM427.558 63.0938L427.551 64.1855C427.454 64.1644 427.361 64.1517 427.272 64.1475C427.187 64.139 427.09 64.1348 426.98 64.1348C426.709 64.1348 426.47 64.1771 426.263 64.2617C426.055 64.3464 425.88 64.4648 425.736 64.6172C425.592 64.7695 425.478 64.9515 425.393 65.1631C425.313 65.3704 425.26 65.599 425.234 65.8486L424.904 66.0391C424.904 65.6243 424.944 65.235 425.025 64.8711C425.11 64.5072 425.239 64.1855 425.412 63.9062C425.586 63.6227 425.806 63.4027 426.072 63.2461C426.343 63.0853 426.665 63.0049 427.037 63.0049C427.122 63.0049 427.219 63.0155 427.329 63.0366C427.439 63.0535 427.515 63.0726 427.558 63.0938Z" fill="white"/>
<path d="M536 46H548L542 40L536 46Z" fill="#1A1A1A"/>
<rect x="480" y="46" width="76" height="40" rx="4" fill="#1A1A1A"/>
<path d="M496.818 60.7578V70H495.612V60.7578H496.818ZM499.789 60.7578V61.7607H492.647V60.7578H499.789ZM500.036 66.6421V66.4961C500.036 66.001 500.108 65.5418 500.252 65.1187C500.396 64.6912 500.603 64.321 500.874 64.0078C501.145 63.6904 501.473 63.445 501.858 63.2715C502.243 63.0938 502.675 63.0049 503.153 63.0049C503.635 63.0049 504.069 63.0938 504.454 63.2715C504.843 63.445 505.174 63.6904 505.444 64.0078C505.719 64.321 505.929 64.6912 506.073 65.1187C506.217 65.5418 506.289 66.001 506.289 66.4961V66.6421C506.289 67.1372 506.217 67.5964 506.073 68.0195C505.929 68.4427 505.719 68.813 505.444 69.1304C505.174 69.4435 504.846 69.689 504.46 69.8667C504.08 70.0402 503.648 70.127 503.166 70.127C502.683 70.127 502.249 70.0402 501.864 69.8667C501.479 69.689 501.149 69.4435 500.874 69.1304C500.603 68.813 500.396 68.4427 500.252 68.0195C500.108 67.5964 500.036 67.1372 500.036 66.6421ZM501.21 66.4961V66.6421C501.21 66.9849 501.251 67.3086 501.331 67.6133C501.411 67.9137 501.532 68.1803 501.693 68.4131C501.858 68.6458 502.063 68.8299 502.309 68.9653C502.554 69.0965 502.84 69.1621 503.166 69.1621C503.487 69.1621 503.769 69.0965 504.01 68.9653C504.255 68.8299 504.458 68.6458 504.619 68.4131C504.78 68.1803 504.901 67.9137 504.981 67.6133C505.066 67.3086 505.108 66.9849 505.108 66.6421V66.4961C505.108 66.1576 505.066 65.8381 504.981 65.5376C504.901 65.2329 504.778 64.9642 504.613 64.7314C504.452 64.4945 504.249 64.3083 504.003 64.1729C503.762 64.0374 503.479 63.9697 503.153 63.9697C502.831 63.9697 502.548 64.0374 502.302 64.1729C502.061 64.3083 501.858 64.4945 501.693 64.7314C501.532 64.9642 501.411 65.2329 501.331 65.5376C501.251 65.8381 501.21 66.1576 501.21 66.4961ZM508.936 64.4521V72.6406H507.755V63.1318H508.834L508.936 64.4521ZM513.563 66.5088V66.6421C513.563 67.1414 513.504 67.6048 513.385 68.0322C513.267 68.4554 513.093 68.8236 512.865 69.1367C512.64 69.4499 512.363 69.6932 512.033 69.8667C511.703 70.0402 511.324 70.127 510.897 70.127C510.461 70.127 510.076 70.055 509.742 69.9111C509.407 69.7673 509.124 69.5578 508.891 69.2827C508.658 69.0076 508.472 68.6776 508.333 68.2925C508.197 67.9074 508.104 67.4736 508.053 66.9912V66.2803C508.104 65.7725 508.199 65.3175 508.339 64.9155C508.479 64.5135 508.663 64.1707 508.891 63.8872C509.124 63.5994 509.405 63.3815 509.735 63.2334C510.065 63.0811 510.446 63.0049 510.878 63.0049C511.31 63.0049 511.693 63.0895 512.027 63.2588C512.361 63.4238 512.643 63.6608 512.871 63.9697C513.1 64.2786 513.271 64.6489 513.385 65.0806C513.504 65.508 513.563 65.984 513.563 66.5088ZM512.382 66.6421V66.5088C512.382 66.166 512.346 65.8444 512.274 65.5439C512.202 65.2393 512.09 64.9727 511.938 64.7441C511.79 64.5114 511.599 64.3294 511.367 64.1982C511.134 64.0628 510.857 63.9951 510.535 63.9951C510.239 63.9951 509.981 64.0459 509.761 64.1475C509.545 64.249 509.361 64.3866 509.208 64.5601C509.056 64.7293 508.931 64.924 508.834 65.144C508.741 65.3599 508.671 65.5841 508.625 65.8169V67.4609C508.709 67.7572 508.828 68.0365 508.98 68.2988C509.132 68.557 509.335 68.7664 509.589 68.9272C509.843 69.0838 510.163 69.1621 510.548 69.1621C510.865 69.1621 511.138 69.0965 511.367 68.9653C511.599 68.8299 511.79 68.6458 511.938 68.4131C512.09 68.1803 512.202 67.9137 512.274 67.6133C512.346 67.3086 512.382 66.9849 512.382 66.6421ZM519.46 64.2109V70H518.286V63.1318H519.428L519.46 64.2109ZM521.605 63.0938L521.599 64.1855C521.502 64.1644 521.409 64.1517 521.32 64.1475C521.235 64.139 521.138 64.1348 521.028 64.1348C520.757 64.1348 520.518 64.1771 520.311 64.2617C520.103 64.3464 519.928 64.4648 519.784 64.6172C519.64 64.7695 519.526 64.9515 519.441 65.1631C519.361 65.3704 519.308 65.599 519.282 65.8486L518.952 66.0391C518.952 65.6243 518.992 65.235 519.073 64.8711C519.157 64.5072 519.286 64.1855 519.46 63.9062C519.633 63.6227 519.854 63.4027 520.12 63.2461C520.391 63.0853 520.713 63.0049 521.085 63.0049C521.17 63.0049 521.267 63.0155 521.377 63.0366C521.487 63.0535 521.563 63.0726 521.605 63.0938ZM523.967 63.1318V70H522.786V63.1318H523.967ZM522.697 61.3101C522.697 61.1196 522.754 60.9588 522.869 60.8276C522.987 60.6965 523.161 60.6309 523.389 60.6309C523.613 60.6309 523.785 60.6965 523.903 60.8276C524.026 60.9588 524.087 61.1196 524.087 61.3101C524.087 61.492 524.026 61.6486 523.903 61.7798C523.785 61.9067 523.613 61.9702 523.389 61.9702C523.161 61.9702 522.987 61.9067 522.869 61.7798C522.754 61.6486 522.697 61.492 522.697 61.3101ZM530.302 63.1318H531.368V69.854C531.368 70.4591 531.245 70.9754 531 71.4028C530.755 71.8302 530.412 72.154 529.972 72.374C529.536 72.5983 529.032 72.7104 528.461 72.7104C528.224 72.7104 527.945 72.6724 527.623 72.5962C527.306 72.5243 526.993 72.3994 526.684 72.2217C526.379 72.0482 526.123 71.8133 525.916 71.5171L526.531 70.8188C526.819 71.1659 527.119 71.4071 527.433 71.5425C527.75 71.6779 528.063 71.7456 528.372 71.7456C528.744 71.7456 529.066 71.6758 529.337 71.5361C529.608 71.3965 529.817 71.1891 529.965 70.9141C530.118 70.6432 530.194 70.3089 530.194 69.9111V64.6426L530.302 63.1318ZM525.573 66.6421V66.5088C525.573 65.984 525.634 65.508 525.757 65.0806C525.884 64.6489 526.064 64.2786 526.296 63.9697C526.533 63.6608 526.819 63.4238 527.153 63.2588C527.488 63.0895 527.864 63.0049 528.283 63.0049C528.715 63.0049 529.091 63.0811 529.413 63.2334C529.739 63.3815 530.014 63.5994 530.238 63.8872C530.467 64.1707 530.647 64.5135 530.778 64.9155C530.909 65.3175 531 65.7725 531.051 66.2803V66.8643C531.004 67.3678 530.913 67.8206 530.778 68.2227C530.647 68.6247 530.467 68.9674 530.238 69.251C530.014 69.5345 529.739 69.7524 529.413 69.9048C529.087 70.0529 528.706 70.127 528.271 70.127C527.86 70.127 527.488 70.0402 527.153 69.8667C526.823 69.6932 526.54 69.4499 526.303 69.1367C526.066 68.8236 525.884 68.4554 525.757 68.0322C525.634 67.6048 525.573 67.1414 525.573 66.6421ZM526.747 66.5088V66.6421C526.747 66.9849 526.781 67.3065 526.849 67.6069C526.921 67.9074 527.028 68.1719 527.172 68.4004C527.32 68.6289 527.509 68.8088 527.737 68.9399C527.966 69.0669 528.239 69.1304 528.556 69.1304C528.945 69.1304 529.267 69.0479 529.521 68.8828C529.775 68.7178 529.976 68.4998 530.124 68.229C530.276 67.9582 530.395 67.6641 530.479 67.3467V65.8169C530.433 65.5841 530.361 65.3599 530.264 65.144C530.171 64.924 530.048 64.7293 529.896 64.5601C529.747 64.3866 529.563 64.249 529.343 64.1475C529.123 64.0459 528.865 63.9951 528.569 63.9951C528.247 63.9951 527.97 64.0628 527.737 64.1982C527.509 64.3294 527.32 64.5114 527.172 64.7441C527.028 64.9727 526.921 65.2393 526.849 65.5439C526.781 65.8444 526.747 66.166 526.747 66.5088ZM534.326 60.25V70H533.152V60.25H534.326ZM534.047 66.3057L533.558 66.2866C533.562 65.8169 533.632 65.3831 533.768 64.9854C533.903 64.5833 534.093 64.2342 534.339 63.938C534.584 63.6418 534.876 63.4132 535.215 63.2524C535.558 63.0874 535.936 63.0049 536.351 63.0049C536.69 63.0049 536.994 63.0514 537.265 63.1445C537.536 63.2334 537.767 63.3773 537.957 63.5762C538.152 63.7751 538.3 64.0332 538.401 64.3506C538.503 64.6637 538.554 65.0467 538.554 65.4995V70H537.373V65.4868C537.373 65.1271 537.32 64.8394 537.214 64.6235C537.109 64.4035 536.954 64.2448 536.751 64.1475C536.548 64.0459 536.298 63.9951 536.002 63.9951C535.71 63.9951 535.443 64.0565 535.202 64.1792C534.965 64.3019 534.76 64.4712 534.586 64.687C534.417 64.9028 534.284 65.1504 534.187 65.4297C534.093 65.7048 534.047 65.9967 534.047 66.3057ZM543.188 63.1318V64.0332H539.474V63.1318H543.188ZM540.731 61.4624H541.905V68.2988C541.905 68.5316 541.941 68.7072 542.013 68.8257C542.085 68.9442 542.178 69.0225 542.292 69.0605C542.407 69.0986 542.529 69.1177 542.661 69.1177C542.758 69.1177 542.86 69.1092 542.965 69.0923C543.075 69.0711 543.158 69.0542 543.213 69.0415L543.219 70C543.126 70.0296 543.003 70.0571 542.851 70.0825C542.703 70.1121 542.523 70.127 542.312 70.127C542.024 70.127 541.759 70.0698 541.518 69.9556C541.277 69.8413 541.084 69.6509 540.94 69.3843C540.801 69.1134 540.731 68.7495 540.731 68.2925V61.4624Z" fill="white"/>
<rect x="214" y="126" width="89" height="40" rx="4" fill="#1A1A1A"/>
<path d="M230.488 145.677H228.146L228.133 144.693H230.259C230.611 144.693 230.917 144.634 231.18 144.516C231.442 144.397 231.645 144.228 231.789 144.008C231.937 143.784 232.011 143.517 232.011 143.208C232.011 142.869 231.946 142.594 231.814 142.383C231.688 142.167 231.491 142.01 231.224 141.913C230.962 141.812 230.627 141.761 230.221 141.761H228.418V150H227.193V140.758H230.221C230.695 140.758 231.118 140.806 231.491 140.904C231.863 140.997 232.178 141.145 232.437 141.348C232.699 141.547 232.898 141.801 233.033 142.11C233.169 142.419 233.236 142.789 233.236 143.221C233.236 143.602 233.139 143.946 232.944 144.255C232.75 144.56 232.479 144.81 232.132 145.004C231.789 145.199 231.387 145.324 230.926 145.379L230.488 145.677ZM230.431 150H227.663L228.355 149.003H230.431C230.82 149.003 231.15 148.936 231.421 148.8C231.696 148.665 231.905 148.474 232.049 148.229C232.193 147.979 232.265 147.685 232.265 147.347C232.265 147.004 232.204 146.708 232.081 146.458C231.958 146.208 231.766 146.016 231.503 145.88C231.241 145.745 230.903 145.677 230.488 145.677H228.742L228.755 144.693H231.142L231.402 145.049C231.846 145.087 232.223 145.214 232.532 145.43C232.841 145.641 233.076 145.912 233.236 146.242C233.401 146.572 233.484 146.936 233.484 147.334C233.484 147.91 233.357 148.396 233.103 148.794C232.853 149.188 232.5 149.488 232.043 149.695C231.586 149.898 231.049 150 230.431 150ZM234.804 146.642V146.496C234.804 146.001 234.876 145.542 235.02 145.119C235.164 144.691 235.371 144.321 235.642 144.008C235.913 143.69 236.241 143.445 236.626 143.271C237.011 143.094 237.443 143.005 237.921 143.005C238.403 143.005 238.837 143.094 239.222 143.271C239.611 143.445 239.942 143.69 240.212 144.008C240.487 144.321 240.697 144.691 240.841 145.119C240.985 145.542 241.057 146.001 241.057 146.496V146.642C241.057 147.137 240.985 147.596 240.841 148.02C240.697 148.443 240.487 148.813 240.212 149.13C239.942 149.444 239.614 149.689 239.229 149.867C238.848 150.04 238.416 150.127 237.934 150.127C237.451 150.127 237.017 150.04 236.632 149.867C236.247 149.689 235.917 149.444 235.642 149.13C235.371 148.813 235.164 148.443 235.02 148.02C234.876 147.596 234.804 147.137 234.804 146.642ZM235.979 146.496V146.642C235.979 146.985 236.019 147.309 236.099 147.613C236.18 147.914 236.3 148.18 236.461 148.413C236.626 148.646 236.831 148.83 237.077 148.965C237.322 149.097 237.608 149.162 237.934 149.162C238.255 149.162 238.537 149.097 238.778 148.965C239.023 148.83 239.226 148.646 239.387 148.413C239.548 148.18 239.669 147.914 239.749 147.613C239.834 147.309 239.876 146.985 239.876 146.642V146.496C239.876 146.158 239.834 145.838 239.749 145.538C239.669 145.233 239.546 144.964 239.381 144.731C239.22 144.494 239.017 144.308 238.771 144.173C238.53 144.037 238.247 143.97 237.921 143.97C237.599 143.97 237.316 144.037 237.07 144.173C236.829 144.308 236.626 144.494 236.461 144.731C236.3 144.964 236.18 145.233 236.099 145.538C236.019 145.838 235.979 146.158 235.979 146.496ZM245.405 143.132V144.033H241.691V143.132H245.405ZM242.948 141.462H244.123V148.299C244.123 148.532 244.159 148.707 244.23 148.826C244.302 148.944 244.396 149.022 244.51 149.061C244.624 149.099 244.747 149.118 244.878 149.118C244.975 149.118 245.077 149.109 245.183 149.092C245.293 149.071 245.375 149.054 245.43 149.042L245.437 150C245.343 150.03 245.221 150.057 245.068 150.083C244.92 150.112 244.74 150.127 244.529 150.127C244.241 150.127 243.977 150.07 243.735 149.956C243.494 149.841 243.302 149.651 243.158 149.384C243.018 149.113 242.948 148.75 242.948 148.292V141.462ZM249.658 143.132V144.033H245.944V143.132H249.658ZM247.201 141.462H248.375V148.299C248.375 148.532 248.411 148.707 248.483 148.826C248.555 148.944 248.648 149.022 248.763 149.061C248.877 149.099 249 149.118 249.131 149.118C249.228 149.118 249.33 149.109 249.436 149.092C249.546 149.071 249.628 149.054 249.683 149.042L249.689 150C249.596 150.03 249.474 150.057 249.321 150.083C249.173 150.112 248.993 150.127 248.782 150.127C248.494 150.127 248.229 150.07 247.988 149.956C247.747 149.841 247.555 149.651 247.411 149.384C247.271 149.113 247.201 148.75 247.201 148.292V141.462ZM250.597 146.642V146.496C250.597 146.001 250.669 145.542 250.813 145.119C250.957 144.691 251.164 144.321 251.435 144.008C251.706 143.69 252.034 143.445 252.419 143.271C252.804 143.094 253.236 143.005 253.714 143.005C254.196 143.005 254.63 143.094 255.015 143.271C255.404 143.445 255.735 143.69 256.005 144.008C256.28 144.321 256.49 144.691 256.634 145.119C256.778 145.542 256.85 146.001 256.85 146.496V146.642C256.85 147.137 256.778 147.596 256.634 148.02C256.49 148.443 256.28 148.813 256.005 149.13C255.735 149.444 255.407 149.689 255.021 149.867C254.641 150.04 254.209 150.127 253.727 150.127C253.244 150.127 252.81 150.04 252.425 149.867C252.04 149.689 251.71 149.444 251.435 149.13C251.164 148.813 250.957 148.443 250.813 148.02C250.669 147.596 250.597 147.137 250.597 146.642ZM251.771 146.496V146.642C251.771 146.985 251.812 147.309 251.892 147.613C251.972 147.914 252.093 148.18 252.254 148.413C252.419 148.646 252.624 148.83 252.87 148.965C253.115 149.097 253.401 149.162 253.727 149.162C254.048 149.162 254.33 149.097 254.571 148.965C254.816 148.83 255.019 148.646 255.18 148.413C255.341 148.18 255.462 147.914 255.542 147.613C255.627 147.309 255.669 146.985 255.669 146.642V146.496C255.669 146.158 255.627 145.838 255.542 145.538C255.462 145.233 255.339 144.964 255.174 144.731C255.013 144.494 254.81 144.308 254.564 144.173C254.323 144.037 254.04 143.97 253.714 143.97C253.392 143.97 253.109 144.037 252.863 144.173C252.622 144.308 252.419 144.494 252.254 144.731C252.093 144.964 251.972 145.233 251.892 145.538C251.812 145.838 251.771 146.158 251.771 146.496ZM259.49 144.497V150H258.31V143.132H259.427L259.49 144.497ZM259.249 146.306L258.703 146.287C258.707 145.817 258.769 145.383 258.887 144.985C259.006 144.583 259.181 144.234 259.414 143.938C259.647 143.642 259.937 143.413 260.284 143.252C260.631 143.087 261.033 143.005 261.49 143.005C261.811 143.005 262.108 143.051 262.378 143.145C262.649 143.233 262.884 143.375 263.083 143.57C263.282 143.764 263.436 144.014 263.546 144.319C263.656 144.624 263.711 144.992 263.711 145.423V150H262.537V145.48C262.537 145.121 262.476 144.833 262.353 144.617C262.235 144.401 262.065 144.245 261.845 144.147C261.625 144.046 261.367 143.995 261.071 143.995C260.724 143.995 260.434 144.056 260.201 144.179C259.968 144.302 259.782 144.471 259.643 144.687C259.503 144.903 259.401 145.15 259.338 145.43C259.279 145.705 259.249 145.997 259.249 146.306ZM263.699 145.658L262.912 145.899C262.916 145.523 262.977 145.161 263.096 144.814C263.218 144.467 263.394 144.158 263.623 143.887C263.855 143.616 264.141 143.403 264.479 143.246C264.818 143.085 265.205 143.005 265.641 143.005C266.009 143.005 266.335 143.054 266.619 143.151C266.906 143.248 267.148 143.398 267.342 143.602C267.541 143.8 267.691 144.056 267.793 144.37C267.895 144.683 267.945 145.055 267.945 145.487V150H266.765V145.474C266.765 145.089 266.703 144.791 266.581 144.579C266.462 144.363 266.293 144.213 266.073 144.128C265.857 144.04 265.599 143.995 265.298 143.995C265.04 143.995 264.812 144.04 264.613 144.128C264.414 144.217 264.247 144.34 264.111 144.497C263.976 144.649 263.872 144.825 263.8 145.023C263.733 145.222 263.699 145.434 263.699 145.658ZM274.223 140.25V150H273.042V140.25H274.223ZM278.958 150.127C278.48 150.127 278.047 150.047 277.657 149.886C277.272 149.721 276.94 149.49 276.661 149.194C276.386 148.898 276.174 148.546 276.026 148.14C275.878 147.734 275.804 147.29 275.804 146.807V146.541C275.804 145.982 275.886 145.485 276.051 145.049C276.216 144.609 276.441 144.236 276.724 143.932C277.008 143.627 277.329 143.396 277.689 143.24C278.049 143.083 278.421 143.005 278.806 143.005C279.297 143.005 279.72 143.09 280.076 143.259C280.435 143.428 280.729 143.665 280.958 143.97C281.187 144.27 281.356 144.626 281.466 145.036C281.576 145.442 281.631 145.887 281.631 146.369V146.896H276.502V145.938H280.457V145.849C280.44 145.544 280.376 145.248 280.266 144.96C280.16 144.672 279.991 144.435 279.758 144.249C279.526 144.063 279.208 143.97 278.806 143.97C278.54 143.97 278.294 144.027 278.07 144.141C277.846 144.251 277.653 144.416 277.492 144.636C277.331 144.856 277.207 145.125 277.118 145.442C277.029 145.76 276.984 146.126 276.984 146.541V146.807C276.984 147.133 277.029 147.44 277.118 147.728C277.211 148.011 277.344 148.261 277.518 148.477C277.695 148.692 277.909 148.862 278.159 148.984C278.413 149.107 278.7 149.168 279.022 149.168C279.437 149.168 279.788 149.084 280.076 148.915C280.363 148.745 280.615 148.519 280.831 148.235L281.542 148.8C281.394 149.025 281.206 149.238 280.977 149.441C280.749 149.645 280.467 149.81 280.133 149.937C279.803 150.063 279.411 150.127 278.958 150.127ZM284.754 150H283.58V142.408C283.58 141.913 283.668 141.496 283.846 141.158C284.028 140.815 284.288 140.557 284.627 140.383C284.965 140.206 285.368 140.117 285.833 140.117C285.968 140.117 286.104 140.125 286.239 140.142C286.379 140.159 286.514 140.184 286.646 140.218L286.582 141.177C286.493 141.156 286.392 141.141 286.277 141.132C286.167 141.124 286.057 141.12 285.947 141.12C285.698 141.12 285.482 141.17 285.3 141.272C285.122 141.369 284.987 141.513 284.894 141.704C284.8 141.894 284.754 142.129 284.754 142.408V150ZM286.214 143.132V144.033H282.494V143.132H286.214ZM290.397 143.132V144.033H286.684V143.132H290.397ZM287.94 141.462H289.115V148.299C289.115 148.532 289.151 148.707 289.223 148.826C289.295 148.944 289.388 149.022 289.502 149.061C289.616 149.099 289.739 149.118 289.87 149.118C289.967 149.118 290.069 149.109 290.175 149.092C290.285 149.071 290.367 149.054 290.422 149.042L290.429 150C290.336 150.03 290.213 150.057 290.061 150.083C289.912 150.112 289.733 150.127 289.521 150.127C289.233 150.127 288.969 150.07 288.728 149.956C288.486 149.841 288.294 149.651 288.15 149.384C288.01 149.113 287.94 148.75 287.94 148.292V141.462Z" fill="white"/>
<path d="M222 166H234L228 172L222 166Z" fill="#1A1A1A"/>
<rect x="343" y="126" width="107" height="40" rx="4" fill="#1A1A1A"/>
<path d="M359.684 145.677H357.341L357.329 144.693H359.455C359.806 144.693 360.113 144.634 360.375 144.516C360.638 144.397 360.841 144.228 360.985 144.008C361.133 143.784 361.207 143.517 361.207 143.208C361.207 142.869 361.141 142.594 361.01 142.383C360.883 142.167 360.687 142.01 360.42 141.913C360.158 141.812 359.823 141.761 359.417 141.761H357.614V150H356.389V140.758H359.417C359.891 140.758 360.314 140.806 360.687 140.904C361.059 140.997 361.374 141.145 361.632 141.348C361.895 141.547 362.094 141.801 362.229 142.11C362.364 142.419 362.432 142.789 362.432 143.221C362.432 143.602 362.335 143.946 362.14 144.255C361.945 144.56 361.675 144.81 361.328 145.004C360.985 145.199 360.583 145.324 360.122 145.379L359.684 145.677ZM359.626 150H356.859L357.551 149.003H359.626C360.016 149.003 360.346 148.936 360.617 148.8C360.892 148.665 361.101 148.474 361.245 148.229C361.389 147.979 361.461 147.685 361.461 147.347C361.461 147.004 361.4 146.708 361.277 146.458C361.154 146.208 360.962 146.016 360.699 145.88C360.437 145.745 360.098 145.677 359.684 145.677H357.938L357.951 144.693H360.337L360.598 145.049C361.042 145.087 361.419 145.214 361.728 145.43C362.036 145.641 362.271 145.912 362.432 146.242C362.597 146.572 362.68 146.936 362.68 147.334C362.68 147.91 362.553 148.396 362.299 148.794C362.049 149.188 361.696 149.488 361.239 149.695C360.782 149.898 360.244 150 359.626 150ZM364 146.642V146.496C364 146.001 364.072 145.542 364.216 145.119C364.36 144.691 364.567 144.321 364.838 144.008C365.109 143.69 365.437 143.445 365.822 143.271C366.207 143.094 366.639 143.005 367.117 143.005C367.599 143.005 368.033 143.094 368.418 143.271C368.807 143.445 369.137 143.69 369.408 144.008C369.683 144.321 369.893 144.691 370.037 145.119C370.181 145.542 370.252 146.001 370.252 146.496V146.642C370.252 147.137 370.181 147.596 370.037 148.02C369.893 148.443 369.683 148.813 369.408 149.13C369.137 149.444 368.809 149.689 368.424 149.867C368.043 150.04 367.612 150.127 367.129 150.127C366.647 150.127 366.213 150.04 365.828 149.867C365.443 149.689 365.113 149.444 364.838 149.13C364.567 148.813 364.36 148.443 364.216 148.02C364.072 147.596 364 147.137 364 146.642ZM365.174 146.496V146.642C365.174 146.985 365.215 147.309 365.295 147.613C365.375 147.914 365.496 148.18 365.657 148.413C365.822 148.646 366.027 148.83 366.272 148.965C366.518 149.097 366.804 149.162 367.129 149.162C367.451 149.162 367.732 149.097 367.974 148.965C368.219 148.83 368.422 148.646 368.583 148.413C368.744 148.18 368.864 147.914 368.945 147.613C369.029 147.309 369.072 146.985 369.072 146.642V146.496C369.072 146.158 369.029 145.838 368.945 145.538C368.864 145.233 368.742 144.964 368.577 144.731C368.416 144.494 368.213 144.308 367.967 144.173C367.726 144.037 367.443 143.97 367.117 143.97C366.795 143.97 366.512 144.037 366.266 144.173C366.025 144.308 365.822 144.494 365.657 144.731C365.496 144.964 365.375 145.233 365.295 145.538C365.215 145.838 365.174 146.158 365.174 146.496ZM374.601 143.132V144.033H370.887V143.132H374.601ZM372.144 141.462H373.318V148.299C373.318 148.532 373.354 148.707 373.426 148.826C373.498 148.944 373.591 149.022 373.706 149.061C373.82 149.099 373.943 149.118 374.074 149.118C374.171 149.118 374.273 149.109 374.378 149.092C374.488 149.071 374.571 149.054 374.626 149.042L374.632 150C374.539 150.03 374.417 150.057 374.264 150.083C374.116 150.112 373.936 150.127 373.725 150.127C373.437 150.127 373.172 150.07 372.931 149.956C372.69 149.841 372.497 149.651 372.354 149.384C372.214 149.113 372.144 148.75 372.144 148.292V141.462ZM378.854 143.132V144.033H375.14V143.132H378.854ZM376.397 141.462H377.571V148.299C377.571 148.532 377.607 148.707 377.679 148.826C377.751 148.944 377.844 149.022 377.958 149.061C378.073 149.099 378.195 149.118 378.327 149.118C378.424 149.118 378.526 149.109 378.631 149.092C378.741 149.071 378.824 149.054 378.879 149.042L378.885 150C378.792 150.03 378.669 150.057 378.517 150.083C378.369 150.112 378.189 150.127 377.978 150.127C377.69 150.127 377.425 150.07 377.184 149.956C376.943 149.841 376.75 149.651 376.606 149.384C376.467 149.113 376.397 148.75 376.397 148.292V141.462ZM379.793 146.642V146.496C379.793 146.001 379.865 145.542 380.009 145.119C380.153 144.691 380.36 144.321 380.631 144.008C380.902 143.69 381.23 143.445 381.615 143.271C382 143.094 382.431 143.005 382.91 143.005C383.392 143.005 383.826 143.094 384.211 143.271C384.6 143.445 384.93 143.69 385.201 144.008C385.476 144.321 385.686 144.691 385.83 145.119C385.973 145.542 386.045 146.001 386.045 146.496V146.642C386.045 147.137 385.973 147.596 385.83 148.02C385.686 148.443 385.476 148.813 385.201 149.13C384.93 149.444 384.602 149.689 384.217 149.867C383.836 150.04 383.405 150.127 382.922 150.127C382.44 150.127 382.006 150.04 381.621 149.867C381.236 149.689 380.906 149.444 380.631 149.13C380.36 148.813 380.153 148.443 380.009 148.02C379.865 147.596 379.793 147.137 379.793 146.642ZM380.967 146.496V146.642C380.967 146.985 381.007 147.309 381.088 147.613C381.168 147.914 381.289 148.18 381.45 148.413C381.615 148.646 381.82 148.83 382.065 148.965C382.311 149.097 382.597 149.162 382.922 149.162C383.244 149.162 383.525 149.097 383.767 148.965C384.012 148.83 384.215 148.646 384.376 148.413C384.537 148.18 384.657 147.914 384.738 147.613C384.822 147.309 384.865 146.985 384.865 146.642V146.496C384.865 146.158 384.822 145.838 384.738 145.538C384.657 145.233 384.535 144.964 384.37 144.731C384.209 144.494 384.006 144.308 383.76 144.173C383.519 144.037 383.236 143.97 382.91 143.97C382.588 143.97 382.305 144.037 382.059 144.173C381.818 144.308 381.615 144.494 381.45 144.731C381.289 144.964 381.168 145.233 381.088 145.538C381.007 145.838 380.967 146.158 380.967 146.496ZM388.686 144.497V150H387.505V143.132H388.623L388.686 144.497ZM388.445 146.306L387.899 146.287C387.903 145.817 387.965 145.383 388.083 144.985C388.201 144.583 388.377 144.234 388.61 143.938C388.843 143.642 389.132 143.413 389.479 143.252C389.826 143.087 390.229 143.005 390.686 143.005C391.007 143.005 391.303 143.051 391.574 143.145C391.845 143.233 392.08 143.375 392.279 143.57C392.478 143.764 392.632 144.014 392.742 144.319C392.852 144.624 392.907 144.992 392.907 145.423V150H391.733V145.48C391.733 145.121 391.672 144.833 391.549 144.617C391.43 144.401 391.261 144.245 391.041 144.147C390.821 144.046 390.563 143.995 390.267 143.995C389.92 143.995 389.63 144.056 389.397 144.179C389.164 144.302 388.978 144.471 388.838 144.687C388.699 144.903 388.597 145.15 388.534 145.43C388.474 145.705 388.445 145.997 388.445 146.306ZM392.895 145.658L392.107 145.899C392.112 145.523 392.173 145.161 392.292 144.814C392.414 144.467 392.59 144.158 392.818 143.887C393.051 143.616 393.337 143.403 393.675 143.246C394.014 143.085 394.401 143.005 394.837 143.005C395.205 143.005 395.531 143.054 395.814 143.151C396.102 143.248 396.343 143.398 396.538 143.602C396.737 143.8 396.887 144.056 396.989 144.37C397.09 144.683 397.141 145.055 397.141 145.487V150H395.96V145.474C395.96 145.089 395.899 144.791 395.776 144.579C395.658 144.363 395.489 144.213 395.269 144.128C395.053 144.04 394.795 143.995 394.494 143.995C394.236 143.995 394.007 144.04 393.809 144.128C393.61 144.217 393.443 144.34 393.307 144.497C393.172 144.649 393.068 144.825 392.996 145.023C392.928 145.222 392.895 145.434 392.895 145.658ZM404.892 149.162C405.171 149.162 405.429 149.105 405.666 148.991C405.903 148.876 406.098 148.72 406.25 148.521C406.402 148.318 406.489 148.087 406.51 147.829H407.627C407.606 148.235 407.469 148.614 407.215 148.965C406.965 149.312 406.637 149.594 406.231 149.81C405.825 150.021 405.378 150.127 404.892 150.127C404.375 150.127 403.925 150.036 403.54 149.854C403.159 149.672 402.841 149.422 402.587 149.105C402.338 148.788 402.149 148.424 402.022 148.013C401.9 147.598 401.838 147.16 401.838 146.699V146.433C401.838 145.971 401.9 145.535 402.022 145.125C402.149 144.71 402.338 144.344 402.587 144.027C402.841 143.709 403.159 143.46 403.54 143.278C403.925 143.096 404.375 143.005 404.892 143.005C405.429 143.005 405.899 143.115 406.301 143.335C406.703 143.551 407.018 143.847 407.247 144.224C407.479 144.596 407.606 145.019 407.627 145.493H406.51C406.489 145.21 406.409 144.954 406.269 144.725C406.134 144.497 405.947 144.315 405.71 144.179C405.478 144.04 405.205 143.97 404.892 143.97C404.532 143.97 404.229 144.042 403.984 144.186C403.743 144.325 403.55 144.516 403.406 144.757C403.267 144.994 403.165 145.258 403.102 145.55C403.042 145.838 403.013 146.132 403.013 146.433V146.699C403.013 147 403.042 147.296 403.102 147.588C403.161 147.88 403.26 148.144 403.4 148.381C403.544 148.618 403.736 148.809 403.978 148.953C404.223 149.092 404.528 149.162 404.892 149.162ZM411.798 150.127C411.32 150.127 410.886 150.047 410.497 149.886C410.111 149.721 409.779 149.49 409.5 149.194C409.225 148.898 409.013 148.546 408.865 148.14C408.717 147.734 408.643 147.29 408.643 146.807V146.541C408.643 145.982 408.726 145.485 408.891 145.049C409.056 144.609 409.28 144.236 409.563 143.932C409.847 143.627 410.169 143.396 410.528 143.24C410.888 143.083 411.26 143.005 411.646 143.005C412.136 143.005 412.56 143.09 412.915 143.259C413.275 143.428 413.569 143.665 413.797 143.97C414.026 144.27 414.195 144.626 414.305 145.036C414.415 145.442 414.47 145.887 414.47 146.369V146.896H409.341V145.938H413.296V145.849C413.279 145.544 413.215 145.248 413.105 144.96C413 144.672 412.83 144.435 412.598 144.249C412.365 144.063 412.048 143.97 411.646 143.97C411.379 143.97 411.133 144.027 410.909 144.141C410.685 144.251 410.492 144.416 410.332 144.636C410.171 144.856 410.046 145.125 409.957 145.442C409.868 145.76 409.824 146.126 409.824 146.541V146.807C409.824 147.133 409.868 147.44 409.957 147.728C410.05 148.011 410.183 148.261 410.357 148.477C410.535 148.692 410.748 148.862 410.998 148.984C411.252 149.107 411.54 149.168 411.861 149.168C412.276 149.168 412.627 149.084 412.915 148.915C413.203 148.745 413.455 148.519 413.67 148.235L414.381 148.8C414.233 149.025 414.045 149.238 413.816 149.441C413.588 149.645 413.306 149.81 412.972 149.937C412.642 150.063 412.251 150.127 411.798 150.127ZM417.016 144.598V150H415.841V143.132H416.952L417.016 144.598ZM416.736 146.306L416.248 146.287C416.252 145.817 416.322 145.383 416.457 144.985C416.592 144.583 416.783 144.234 417.028 143.938C417.274 143.642 417.566 143.413 417.904 143.252C418.247 143.087 418.626 143.005 419.041 143.005C419.379 143.005 419.684 143.051 419.955 143.145C420.225 143.233 420.456 143.377 420.646 143.576C420.841 143.775 420.989 144.033 421.091 144.351C421.192 144.664 421.243 145.047 421.243 145.5V150H420.062V145.487C420.062 145.127 420.01 144.839 419.904 144.624C419.798 144.403 419.644 144.245 419.44 144.147C419.237 144.046 418.988 143.995 418.691 143.995C418.399 143.995 418.133 144.056 417.892 144.179C417.655 144.302 417.449 144.471 417.276 144.687C417.107 144.903 416.973 145.15 416.876 145.43C416.783 145.705 416.736 145.997 416.736 146.306ZM425.902 143.132V144.033H422.189V143.132H425.902ZM423.446 141.462H424.62V148.299C424.62 148.532 424.656 148.707 424.728 148.826C424.8 148.944 424.893 149.022 425.007 149.061C425.122 149.099 425.244 149.118 425.375 149.118C425.473 149.118 425.574 149.109 425.68 149.092C425.79 149.071 425.873 149.054 425.928 149.042L425.934 150C425.841 150.03 425.718 150.057 425.566 150.083C425.418 150.112 425.238 150.127 425.026 150.127C424.739 150.127 424.474 150.07 424.233 149.956C423.992 149.841 423.799 149.651 423.655 149.384C423.516 149.113 423.446 148.75 423.446 148.292V141.462ZM430.13 150.127C429.652 150.127 429.218 150.047 428.829 149.886C428.444 149.721 428.111 149.49 427.832 149.194C427.557 148.898 427.345 148.546 427.197 148.14C427.049 147.734 426.975 147.29 426.975 146.807V146.541C426.975 145.982 427.058 145.485 427.223 145.049C427.388 144.609 427.612 144.236 427.896 143.932C428.179 143.627 428.501 143.396 428.86 143.24C429.22 143.083 429.592 143.005 429.978 143.005C430.468 143.005 430.892 143.09 431.247 143.259C431.607 143.428 431.901 143.665 432.129 143.97C432.358 144.27 432.527 144.626 432.637 145.036C432.747 145.442 432.802 145.887 432.802 146.369V146.896H427.673V145.938H431.628V145.849C431.611 145.544 431.548 145.248 431.438 144.96C431.332 144.672 431.162 144.435 430.93 144.249C430.697 144.063 430.38 143.97 429.978 143.97C429.711 143.97 429.465 144.027 429.241 144.141C429.017 144.251 428.824 144.416 428.664 144.636C428.503 144.856 428.378 145.125 428.289 145.442C428.2 145.76 428.156 146.126 428.156 146.541V146.807C428.156 147.133 428.2 147.44 428.289 147.728C428.382 148.011 428.515 148.261 428.689 148.477C428.867 148.692 429.08 148.862 429.33 148.984C429.584 149.107 429.872 149.168 430.193 149.168C430.608 149.168 430.959 149.084 431.247 148.915C431.535 148.745 431.787 148.519 432.002 148.235L432.713 148.8C432.565 149.025 432.377 149.238 432.148 149.441C431.92 149.645 431.639 149.81 431.304 149.937C430.974 150.063 430.583 150.127 430.13 150.127ZM435.348 144.211V150H434.173V143.132H435.316L435.348 144.211ZM437.493 143.094L437.487 144.186C437.389 144.164 437.296 144.152 437.208 144.147C437.123 144.139 437.026 144.135 436.916 144.135C436.645 144.135 436.406 144.177 436.198 144.262C435.991 144.346 435.815 144.465 435.671 144.617C435.528 144.77 435.413 144.951 435.329 145.163C435.248 145.37 435.195 145.599 435.17 145.849L434.84 146.039C434.84 145.624 434.88 145.235 434.96 144.871C435.045 144.507 435.174 144.186 435.348 143.906C435.521 143.623 435.741 143.403 436.008 143.246C436.279 143.085 436.6 143.005 436.973 143.005C437.057 143.005 437.155 143.015 437.265 143.037C437.375 143.054 437.451 143.073 437.493 143.094Z" fill="white"/>
<path d="M390.5 166H402.5L396.5 172L390.5 166Z" fill="#1A1A1A"/>
<rect x="490" y="126" width="97" height="40" rx="4" fill="#1A1A1A"/>
<path d="M506.762 145.677H504.419L504.407 144.693H506.533C506.884 144.693 507.191 144.634 507.454 144.516C507.716 144.397 507.919 144.228 508.063 144.008C508.211 143.784 508.285 143.517 508.285 143.208C508.285 142.869 508.22 142.594 508.088 142.383C507.961 142.167 507.765 142.01 507.498 141.913C507.236 141.812 506.901 141.761 506.495 141.761H504.692V150H503.467V140.758H506.495C506.969 140.758 507.392 140.806 507.765 140.904C508.137 140.997 508.452 141.145 508.71 141.348C508.973 141.547 509.172 141.801 509.307 142.11C509.443 142.419 509.51 142.789 509.51 143.221C509.51 143.602 509.413 143.946 509.218 144.255C509.024 144.56 508.753 144.81 508.406 145.004C508.063 145.199 507.661 145.324 507.2 145.379L506.762 145.677ZM506.705 150H503.937L504.629 149.003H506.705C507.094 149.003 507.424 148.936 507.695 148.8C507.97 148.665 508.179 148.474 508.323 148.229C508.467 147.979 508.539 147.685 508.539 147.347C508.539 147.004 508.478 146.708 508.355 146.458C508.232 146.208 508.04 146.016 507.777 145.88C507.515 145.745 507.176 145.677 506.762 145.677H505.016L505.029 144.693H507.416L507.676 145.049C508.12 145.087 508.497 145.214 508.806 145.43C509.115 145.641 509.349 145.912 509.51 146.242C509.675 146.572 509.758 146.936 509.758 147.334C509.758 147.91 509.631 148.396 509.377 148.794C509.127 149.188 508.774 149.488 508.317 149.695C507.86 149.898 507.322 150 506.705 150ZM511.078 146.642V146.496C511.078 146.001 511.15 145.542 511.294 145.119C511.438 144.691 511.645 144.321 511.916 144.008C512.187 143.69 512.515 143.445 512.9 143.271C513.285 143.094 513.717 143.005 514.195 143.005C514.677 143.005 515.111 143.094 515.496 143.271C515.885 143.445 516.215 143.69 516.486 144.008C516.761 144.321 516.971 144.691 517.115 145.119C517.259 145.542 517.331 146.001 517.331 146.496V146.642C517.331 147.137 517.259 147.596 517.115 148.02C516.971 148.443 516.761 148.813 516.486 149.13C516.215 149.444 515.888 149.689 515.502 149.867C515.122 150.04 514.69 150.127 514.208 150.127C513.725 150.127 513.291 150.04 512.906 149.867C512.521 149.689 512.191 149.444 511.916 149.13C511.645 148.813 511.438 148.443 511.294 148.02C511.15 147.596 511.078 147.137 511.078 146.642ZM512.252 146.496V146.642C512.252 146.985 512.293 147.309 512.373 147.613C512.453 147.914 512.574 148.18 512.735 148.413C512.9 148.646 513.105 148.83 513.351 148.965C513.596 149.097 513.882 149.162 514.208 149.162C514.529 149.162 514.811 149.097 515.052 148.965C515.297 148.83 515.5 148.646 515.661 148.413C515.822 148.18 515.943 147.914 516.023 147.613C516.108 147.309 516.15 146.985 516.15 146.642V146.496C516.15 146.158 516.108 145.838 516.023 145.538C515.943 145.233 515.82 144.964 515.655 144.731C515.494 144.494 515.291 144.308 515.045 144.173C514.804 144.037 514.521 143.97 514.195 143.97C513.873 143.97 513.59 144.037 513.344 144.173C513.103 144.308 512.9 144.494 512.735 144.731C512.574 144.964 512.453 145.233 512.373 145.538C512.293 145.838 512.252 146.158 512.252 146.496ZM521.679 143.132V144.033H517.965V143.132H521.679ZM519.222 141.462H520.396V148.299C520.396 148.532 520.432 148.707 520.504 148.826C520.576 148.944 520.669 149.022 520.784 149.061C520.898 149.099 521.021 149.118 521.152 149.118C521.249 149.118 521.351 149.109 521.457 149.092C521.567 149.071 521.649 149.054 521.704 149.042L521.71 150C521.617 150.03 521.495 150.057 521.342 150.083C521.194 150.112 521.014 150.127 520.803 150.127C520.515 150.127 520.25 150.07 520.009 149.956C519.768 149.841 519.576 149.651 519.432 149.384C519.292 149.113 519.222 148.75 519.222 148.292V141.462ZM525.932 143.132V144.033H522.218V143.132H525.932ZM523.475 141.462H524.649V148.299C524.649 148.532 524.685 148.707 524.757 148.826C524.829 148.944 524.922 149.022 525.037 149.061C525.151 149.099 525.274 149.118 525.405 149.118C525.502 149.118 525.604 149.109 525.709 149.092C525.819 149.071 525.902 149.054 525.957 149.042L525.963 150C525.87 150.03 525.748 150.057 525.595 150.083C525.447 150.112 525.267 150.127 525.056 150.127C524.768 150.127 524.503 150.07 524.262 149.956C524.021 149.841 523.828 149.651 523.685 149.384C523.545 149.113 523.475 148.75 523.475 148.292V141.462ZM526.871 146.642V146.496C526.871 146.001 526.943 145.542 527.087 145.119C527.231 144.691 527.438 144.321 527.709 144.008C527.98 143.69 528.308 143.445 528.693 143.271C529.078 143.094 529.51 143.005 529.988 143.005C530.47 143.005 530.904 143.094 531.289 143.271C531.678 143.445 532.008 143.69 532.279 144.008C532.554 144.321 532.764 144.691 532.908 145.119C533.052 145.542 533.124 146.001 533.124 146.496V146.642C533.124 147.137 533.052 147.596 532.908 148.02C532.764 148.443 532.554 148.813 532.279 149.13C532.008 149.444 531.681 149.689 531.295 149.867C530.915 150.04 530.483 150.127 530 150.127C529.518 150.127 529.084 150.04 528.699 149.867C528.314 149.689 527.984 149.444 527.709 149.13C527.438 148.813 527.231 148.443 527.087 148.02C526.943 147.596 526.871 147.137 526.871 146.642ZM528.045 146.496V146.642C528.045 146.985 528.086 147.309 528.166 147.613C528.246 147.914 528.367 148.18 528.528 148.413C528.693 148.646 528.898 148.83 529.144 148.965C529.389 149.097 529.675 149.162 530 149.162C530.322 149.162 530.604 149.097 530.845 148.965C531.09 148.83 531.293 148.646 531.454 148.413C531.615 148.18 531.736 147.914 531.816 147.613C531.901 147.309 531.943 146.985 531.943 146.642V146.496C531.943 146.158 531.901 145.838 531.816 145.538C531.736 145.233 531.613 144.964 531.448 144.731C531.287 144.494 531.084 144.308 530.838 144.173C530.597 144.037 530.314 143.97 529.988 143.97C529.666 143.97 529.383 144.037 529.137 144.173C528.896 144.308 528.693 144.494 528.528 144.731C528.367 144.964 528.246 145.233 528.166 145.538C528.086 145.838 528.045 146.158 528.045 146.496ZM535.764 144.497V150H534.583V143.132H535.701L535.764 144.497ZM535.523 146.306L534.977 146.287C534.981 145.817 535.043 145.383 535.161 144.985C535.28 144.583 535.455 144.234 535.688 143.938C535.921 143.642 536.211 143.413 536.558 143.252C536.905 143.087 537.307 143.005 537.764 143.005C538.085 143.005 538.382 143.051 538.652 143.145C538.923 143.233 539.158 143.375 539.357 143.57C539.556 143.764 539.71 144.014 539.82 144.319C539.93 144.624 539.985 144.992 539.985 145.423V150H538.811V145.48C538.811 145.121 538.75 144.833 538.627 144.617C538.508 144.401 538.339 144.245 538.119 144.147C537.899 144.046 537.641 143.995 537.345 143.995C536.998 143.995 536.708 144.056 536.475 144.179C536.242 144.302 536.056 144.471 535.917 144.687C535.777 144.903 535.675 145.15 535.612 145.43C535.553 145.705 535.523 145.997 535.523 146.306ZM539.973 145.658L539.186 145.899C539.19 145.523 539.251 145.161 539.37 144.814C539.492 144.467 539.668 144.158 539.896 143.887C540.129 143.616 540.415 143.403 540.753 143.246C541.092 143.085 541.479 143.005 541.915 143.005C542.283 143.005 542.609 143.054 542.893 143.151C543.18 143.248 543.422 143.398 543.616 143.602C543.815 143.8 543.965 144.056 544.067 144.37C544.168 144.683 544.219 145.055 544.219 145.487V150H543.039V145.474C543.039 145.089 542.977 144.791 542.854 144.579C542.736 144.363 542.567 144.213 542.347 144.128C542.131 144.04 541.873 143.995 541.572 143.995C541.314 143.995 541.086 144.04 540.887 144.128C540.688 144.217 540.521 144.34 540.385 144.497C540.25 144.649 540.146 144.825 540.074 145.023C540.007 145.222 539.973 145.434 539.973 145.658ZM550.396 144.211V150H549.221V143.132H550.364L550.396 144.211ZM552.541 143.094L552.535 144.186C552.437 144.164 552.344 144.152 552.255 144.147C552.171 144.139 552.073 144.135 551.963 144.135C551.693 144.135 551.453 144.177 551.246 144.262C551.039 144.346 550.863 144.465 550.719 144.617C550.575 144.77 550.461 144.951 550.376 145.163C550.296 145.37 550.243 145.599 550.218 145.849L549.888 146.039C549.888 145.624 549.928 145.235 550.008 144.871C550.093 144.507 550.222 144.186 550.396 143.906C550.569 143.623 550.789 143.403 551.056 143.246C551.326 143.085 551.648 143.005 552.021 143.005C552.105 143.005 552.202 143.015 552.312 143.037C552.423 143.054 552.499 143.073 552.541 143.094ZM554.902 143.132V150H553.722V143.132H554.902ZM553.633 141.31C553.633 141.12 553.69 140.959 553.804 140.828C553.923 140.696 554.096 140.631 554.325 140.631C554.549 140.631 554.72 140.696 554.839 140.828C554.962 140.959 555.023 141.12 555.023 141.31C555.023 141.492 554.962 141.649 554.839 141.78C554.72 141.907 554.549 141.97 554.325 141.97C554.096 141.97 553.923 141.907 553.804 141.78C553.69 141.649 553.633 141.492 553.633 141.31ZM561.237 143.132H562.304V149.854C562.304 150.459 562.181 150.975 561.936 151.403C561.69 151.83 561.347 152.154 560.907 152.374C560.471 152.598 559.968 152.71 559.396 152.71C559.16 152.71 558.88 152.672 558.559 152.596C558.241 152.524 557.928 152.399 557.619 152.222C557.314 152.048 557.058 151.813 556.851 151.517L557.467 150.819C557.755 151.166 558.055 151.407 558.368 151.542C558.686 151.678 558.999 151.746 559.308 151.746C559.68 151.746 560.002 151.676 560.272 151.536C560.543 151.396 560.753 151.189 560.901 150.914C561.053 150.643 561.129 150.309 561.129 149.911V144.643L561.237 143.132ZM556.508 146.642V146.509C556.508 145.984 556.57 145.508 556.692 145.081C556.819 144.649 556.999 144.279 557.232 143.97C557.469 143.661 557.755 143.424 558.089 143.259C558.423 143.09 558.8 143.005 559.219 143.005C559.65 143.005 560.027 143.081 560.349 143.233C560.674 143.382 560.95 143.599 561.174 143.887C561.402 144.171 561.582 144.514 561.713 144.916C561.845 145.318 561.936 145.772 561.986 146.28V146.864C561.94 147.368 561.849 147.821 561.713 148.223C561.582 148.625 561.402 148.967 561.174 149.251C560.95 149.535 560.674 149.752 560.349 149.905C560.023 150.053 559.642 150.127 559.206 150.127C558.796 150.127 558.423 150.04 558.089 149.867C557.759 149.693 557.475 149.45 557.238 149.137C557.001 148.824 556.819 148.455 556.692 148.032C556.57 147.605 556.508 147.141 556.508 146.642ZM557.683 146.509V146.642C557.683 146.985 557.716 147.306 557.784 147.607C557.856 147.907 557.964 148.172 558.108 148.4C558.256 148.629 558.444 148.809 558.673 148.94C558.901 149.067 559.174 149.13 559.492 149.13C559.881 149.13 560.203 149.048 560.457 148.883C560.71 148.718 560.911 148.5 561.06 148.229C561.212 147.958 561.33 147.664 561.415 147.347V145.817C561.368 145.584 561.297 145.36 561.199 145.144C561.106 144.924 560.983 144.729 560.831 144.56C560.683 144.387 560.499 144.249 560.279 144.147C560.059 144.046 559.801 143.995 559.504 143.995C559.183 143.995 558.906 144.063 558.673 144.198C558.444 144.329 558.256 144.511 558.108 144.744C557.964 144.973 557.856 145.239 557.784 145.544C557.716 145.844 557.683 146.166 557.683 146.509ZM565.262 140.25V150H564.087V140.25H565.262ZM564.982 146.306L564.494 146.287C564.498 145.817 564.568 145.383 564.703 144.985C564.839 144.583 565.029 144.234 565.274 143.938C565.52 143.642 565.812 143.413 566.15 143.252C566.493 143.087 566.872 143.005 567.287 143.005C567.625 143.005 567.93 143.051 568.201 143.145C568.472 143.233 568.702 143.377 568.893 143.576C569.087 143.775 569.235 144.033 569.337 144.351C569.438 144.664 569.489 145.047 569.489 145.5V150H568.309V145.487C568.309 145.127 568.256 144.839 568.15 144.624C568.044 144.403 567.89 144.245 567.687 144.147C567.483 144.046 567.234 143.995 566.938 143.995C566.646 143.995 566.379 144.056 566.138 144.179C565.901 144.302 565.695 144.471 565.522 144.687C565.353 144.903 565.219 145.15 565.122 145.43C565.029 145.705 564.982 145.997 564.982 146.306ZM574.123 143.132V144.033H570.41V143.132H574.123ZM571.667 141.462H572.841V148.299C572.841 148.532 572.877 148.707 572.949 148.826C573.021 148.944 573.114 149.022 573.228 149.061C573.342 149.099 573.465 149.118 573.596 149.118C573.694 149.118 573.795 149.109 573.901 149.092C574.011 149.071 574.093 149.054 574.148 149.042L574.155 150C574.062 150.03 573.939 150.057 573.787 150.083C573.639 150.112 573.459 150.127 573.247 150.127C572.959 150.127 572.695 150.07 572.454 149.956C572.212 149.841 572.02 149.651 571.876 149.384C571.736 149.113 571.667 148.75 571.667 148.292V141.462Z" fill="white"/>
<path d="M567 166H579L573 172L567 166Z" fill="#1A1A1A"/>
</svg>
