<svg width="1280" height="476" viewBox="0 0 1280 476" fill="none" xmlns="http://www.w3.org/2000/svg">
<g clip-path="url(#clip0_14025_3870)">
<path d="M0 16C0 7.16344 7.16344 0 16 0H1264C1272.84 0 1280 7.16344 1280 16V460C1280 468.837 1272.84 476 1264 476H16C7.16343 476 0 468.837 0 460V16Z" fill="#F2F2F2"/>
<g clip-path="url(#clip1_14025_3870)">
<path d="M49 82C49 77.5817 52.5817 74 57 74H809C813.418 74 817 77.5817 817 82V726C817 730.418 813.418 734 809 734H57C52.5817 734 49 730.418 49 726V82Z" fill="#F8F8F8"/>
<rect x="49" y="74" width="768" height="40" fill="#23282D"/>
<rect x="73.5" y="210.5" width="719" height="194" rx="15.5" fill="white" stroke="#E6E6E6"/>
<rect x="73.5" y="421.5" width="719" height="194" rx="15.5" fill="white" stroke="#E6E6E6"/>
<rect width="768" height="72" transform="translate(49 114)" fill="white"/>
<rect x="73" y="130" width="40" height="40" rx="14" fill="#2DC4E0"/>
<path d="M92.9999 141.667C94.6481 141.667 96.2593 142.155 97.6297 143.071C99.0001 143.987 100.068 145.288 100.699 146.811C101.33 148.334 101.495 150.009 101.173 151.626C100.852 153.242 100.058 154.727 98.8925 155.892C97.7271 157.058 96.2422 157.852 94.6257 158.173C93.0092 158.495 91.3336 158.33 89.8109 157.699C88.2882 157.068 86.9867 156 86.071 154.63C85.1553 153.259 84.6666 151.648 84.6666 150C84.6666 147.79 85.5446 145.67 87.1074 144.107C88.6702 142.545 90.7898 141.667 92.9999 141.667ZM92.9999 139.583C90.9397 139.583 88.9258 140.194 87.2127 141.339C85.4997 142.483 84.1646 144.11 83.3762 146.014C82.5878 147.917 82.3815 150.012 82.7834 152.032C83.1853 154.053 84.1774 155.909 85.6342 157.366C87.091 158.822 88.9471 159.815 90.9677 160.216C92.9884 160.618 95.0828 160.412 96.9862 159.624C98.8896 158.835 100.516 157.5 101.661 155.787C102.806 154.074 103.417 152.06 103.417 150C103.417 147.237 102.319 144.588 100.366 142.634C98.4121 140.681 95.7626 139.583 92.9999 139.583Z" fill="white" fill-opacity="0.25"/>
<path d="M93 146.875C94.1331 146.875 95.2408 147.211 96.183 147.841C97.1251 148.47 97.8594 149.365 98.2931 150.412C98.7267 151.459 98.8402 152.611 98.6191 153.722C98.398 154.833 97.8524 155.854 97.0511 156.655C96.2499 157.457 95.2291 158.002 94.1177 158.223C93.0064 158.444 91.8544 158.331 90.8075 157.897C89.7607 157.464 88.8659 156.729 88.2364 155.787C87.6068 154.845 87.2708 153.737 87.2708 152.604C87.2736 151.086 87.8781 149.63 88.9519 148.556C90.0257 147.482 91.4814 146.878 93 146.875ZM93 144.792C91.4548 144.792 89.9444 145.25 88.6596 146.108C87.3749 146.967 86.3735 148.187 85.7822 149.615C85.1909 151.042 85.0362 152.613 85.3376 154.128C85.6391 155.644 86.3831 157.036 87.4757 158.129C88.5683 159.221 89.9604 159.965 91.4758 160.267C92.9913 160.568 94.5622 160.413 95.9897 159.822C97.4173 159.231 98.6374 158.229 99.4959 156.945C100.354 155.66 100.813 154.149 100.813 152.604C100.813 150.532 99.9894 148.545 98.5243 147.08C97.0591 145.615 95.072 144.792 93 144.792Z" fill="#99E1EE"/>
<path d="M93.0001 152.083C93.6182 152.083 94.2224 152.267 94.7363 152.61C95.2502 152.953 95.6507 153.441 95.8872 154.012C96.1237 154.584 96.1856 155.212 96.065 155.818C95.9445 156.424 95.6468 156.981 95.2098 157.418C94.7727 157.855 94.2159 158.153 93.6097 158.273C93.0036 158.394 92.3752 158.332 91.8042 158.095C91.2332 157.859 90.7451 157.458 90.4017 156.945C90.0584 156.431 89.8751 155.826 89.8751 155.208C89.8751 154.38 90.2043 153.585 90.7904 152.999C91.3764 152.413 92.1713 152.083 93.0001 152.083ZM93.0001 150C91.97 150 90.963 150.305 90.1065 150.878C89.25 151.45 88.5824 152.264 88.1882 153.215C87.794 154.167 87.6909 155.214 87.8918 156.224C88.0928 157.235 88.5888 158.163 89.3172 158.891C90.0456 159.62 90.9737 160.116 91.984 160.317C92.9943 160.518 94.0415 160.414 94.9932 160.02C95.9449 159.626 96.7584 158.958 97.3307 158.102C97.903 157.245 98.2084 156.238 98.2084 155.208C98.2084 153.827 97.6597 152.502 96.6829 151.525C95.7062 150.549 94.3814 150 93.0001 150Z" fill="white"/>
<path d="M128.312 152.07C128.312 151.836 128.276 151.628 128.203 151.445C128.135 151.263 128.013 151.096 127.836 150.945C127.659 150.794 127.409 150.648 127.086 150.508C126.768 150.362 126.362 150.214 125.867 150.062C125.326 149.896 124.826 149.711 124.367 149.508C123.914 149.299 123.518 149.06 123.18 148.789C122.841 148.513 122.578 148.198 122.391 147.844C122.203 147.484 122.109 147.07 122.109 146.602C122.109 146.138 122.206 145.716 122.398 145.336C122.596 144.956 122.875 144.628 123.234 144.352C123.599 144.07 124.029 143.854 124.523 143.703C125.018 143.547 125.565 143.469 126.164 143.469C127.008 143.469 127.734 143.625 128.344 143.938C128.958 144.25 129.43 144.669 129.758 145.195C130.091 145.721 130.258 146.302 130.258 146.938H128.312C128.312 146.562 128.232 146.232 128.07 145.945C127.914 145.654 127.674 145.424 127.352 145.258C127.034 145.091 126.63 145.008 126.141 145.008C125.677 145.008 125.292 145.078 124.984 145.219C124.677 145.359 124.448 145.549 124.297 145.789C124.146 146.029 124.07 146.299 124.07 146.602C124.07 146.815 124.12 147.01 124.219 147.188C124.318 147.359 124.469 147.521 124.672 147.672C124.875 147.818 125.13 147.956 125.438 148.086C125.745 148.216 126.107 148.341 126.523 148.461C127.154 148.648 127.703 148.857 128.172 149.086C128.641 149.31 129.031 149.565 129.344 149.852C129.656 150.138 129.891 150.464 130.047 150.828C130.203 151.188 130.281 151.596 130.281 152.055C130.281 152.534 130.185 152.966 129.992 153.352C129.799 153.732 129.523 154.057 129.164 154.328C128.81 154.594 128.383 154.799 127.883 154.945C127.388 155.086 126.836 155.156 126.227 155.156C125.68 155.156 125.141 155.083 124.609 154.938C124.083 154.792 123.604 154.57 123.172 154.273C122.74 153.971 122.396 153.596 122.141 153.148C121.885 152.695 121.758 152.167 121.758 151.562H123.719C123.719 151.932 123.781 152.247 123.906 152.508C124.036 152.768 124.216 152.982 124.445 153.148C124.674 153.31 124.94 153.43 125.242 153.508C125.549 153.586 125.878 153.625 126.227 153.625C126.685 153.625 127.068 153.56 127.375 153.43C127.688 153.299 127.922 153.117 128.078 152.883C128.234 152.648 128.312 152.378 128.312 152.07ZM133.711 148.266V155H131.828V146.547H133.602L133.711 148.266ZM133.406 150.461L132.766 150.453C132.766 149.87 132.839 149.331 132.984 148.836C133.13 148.341 133.344 147.911 133.625 147.547C133.906 147.177 134.255 146.893 134.672 146.695C135.094 146.492 135.581 146.391 136.133 146.391C136.518 146.391 136.87 146.448 137.188 146.562C137.51 146.672 137.789 146.846 138.023 147.086C138.263 147.326 138.445 147.633 138.57 148.008C138.701 148.383 138.766 148.836 138.766 149.367V155H136.883V149.531C136.883 149.12 136.82 148.797 136.695 148.562C136.576 148.328 136.401 148.161 136.172 148.062C135.948 147.958 135.68 147.906 135.367 147.906C135.013 147.906 134.711 147.974 134.461 148.109C134.216 148.245 134.016 148.43 133.859 148.664C133.703 148.898 133.589 149.169 133.516 149.477C133.443 149.784 133.406 150.112 133.406 150.461ZM138.648 149.961L137.766 150.156C137.766 149.646 137.836 149.164 137.977 148.711C138.122 148.253 138.333 147.852 138.609 147.508C138.891 147.159 139.237 146.885 139.648 146.688C140.06 146.49 140.531 146.391 141.062 146.391C141.495 146.391 141.88 146.451 142.219 146.57C142.562 146.685 142.854 146.867 143.094 147.117C143.333 147.367 143.516 147.693 143.641 148.094C143.766 148.49 143.828 148.969 143.828 149.531V155H141.938V149.523C141.938 149.096 141.875 148.766 141.75 148.531C141.63 148.297 141.458 148.135 141.234 148.047C141.01 147.953 140.742 147.906 140.43 147.906C140.138 147.906 139.88 147.961 139.656 148.07C139.438 148.174 139.253 148.323 139.102 148.516C138.951 148.703 138.836 148.919 138.758 149.164C138.685 149.409 138.648 149.674 138.648 149.961ZM150.852 153.008V146.547H152.742V155H150.961L150.852 153.008ZM151.117 151.25L151.75 151.234C151.75 151.802 151.688 152.326 151.562 152.805C151.438 153.279 151.245 153.693 150.984 154.047C150.724 154.396 150.391 154.669 149.984 154.867C149.578 155.06 149.091 155.156 148.523 155.156C148.112 155.156 147.734 155.096 147.391 154.977C147.047 154.857 146.75 154.672 146.5 154.422C146.255 154.172 146.065 153.846 145.93 153.445C145.794 153.044 145.727 152.565 145.727 152.008V146.547H147.609V152.023C147.609 152.331 147.646 152.589 147.719 152.797C147.792 153 147.891 153.164 148.016 153.289C148.141 153.414 148.286 153.503 148.453 153.555C148.62 153.607 148.797 153.633 148.984 153.633C149.521 153.633 149.943 153.529 150.25 153.32C150.562 153.107 150.784 152.82 150.914 152.461C151.049 152.102 151.117 151.698 151.117 151.25ZM159.414 152.711C159.414 152.523 159.367 152.354 159.273 152.203C159.18 152.047 159 151.906 158.734 151.781C158.474 151.656 158.089 151.542 157.578 151.438C157.13 151.339 156.719 151.221 156.344 151.086C155.974 150.945 155.656 150.776 155.391 150.578C155.125 150.38 154.919 150.146 154.773 149.875C154.628 149.604 154.555 149.292 154.555 148.938C154.555 148.594 154.63 148.268 154.781 147.961C154.932 147.654 155.148 147.383 155.43 147.148C155.711 146.914 156.052 146.729 156.453 146.594C156.859 146.458 157.312 146.391 157.812 146.391C158.521 146.391 159.128 146.51 159.633 146.75C160.143 146.984 160.534 147.305 160.805 147.711C161.076 148.112 161.211 148.565 161.211 149.07H159.328C159.328 148.846 159.271 148.638 159.156 148.445C159.047 148.247 158.88 148.089 158.656 147.969C158.432 147.844 158.151 147.781 157.812 147.781C157.49 147.781 157.221 147.833 157.008 147.938C156.799 148.036 156.643 148.167 156.539 148.328C156.44 148.49 156.391 148.667 156.391 148.859C156.391 149 156.417 149.128 156.469 149.242C156.526 149.352 156.62 149.453 156.75 149.547C156.88 149.635 157.057 149.719 157.281 149.797C157.51 149.875 157.797 149.951 158.141 150.023C158.786 150.159 159.341 150.333 159.805 150.547C160.273 150.755 160.633 151.026 160.883 151.359C161.133 151.688 161.258 152.104 161.258 152.609C161.258 152.984 161.177 153.328 161.016 153.641C160.859 153.948 160.63 154.216 160.328 154.445C160.026 154.669 159.664 154.844 159.242 154.969C158.826 155.094 158.357 155.156 157.836 155.156C157.07 155.156 156.422 155.021 155.891 154.75C155.359 154.474 154.956 154.122 154.68 153.695C154.409 153.263 154.273 152.815 154.273 152.352H156.094C156.115 152.701 156.211 152.979 156.383 153.188C156.56 153.391 156.779 153.539 157.039 153.633C157.305 153.721 157.578 153.766 157.859 153.766C158.198 153.766 158.482 153.721 158.711 153.633C158.94 153.539 159.115 153.414 159.234 153.258C159.354 153.096 159.414 152.914 159.414 152.711ZM164.766 143V155H162.891V143H164.766ZM164.438 150.461L163.828 150.453C163.833 149.87 163.914 149.331 164.07 148.836C164.232 148.341 164.456 147.911 164.742 147.547C165.034 147.177 165.383 146.893 165.789 146.695C166.195 146.492 166.646 146.391 167.141 146.391C167.557 146.391 167.932 146.448 168.266 146.562C168.604 146.677 168.896 146.862 169.141 147.117C169.385 147.367 169.57 147.695 169.695 148.102C169.826 148.503 169.891 148.992 169.891 149.57V155H168V149.555C168 149.148 167.94 148.826 167.82 148.586C167.706 148.346 167.536 148.174 167.312 148.07C167.089 147.961 166.815 147.906 166.492 147.906C166.154 147.906 165.854 147.974 165.594 148.109C165.339 148.245 165.125 148.43 164.953 148.664C164.781 148.898 164.651 149.169 164.562 149.477C164.479 149.784 164.438 150.112 164.438 150.461Z" fill="#1A1A1A"/>
<rect x="529.5" y="130.5" width="207" height="39" rx="3.5" stroke="#1A1A1A"/>
<path fill-rule="evenodd" clip-rule="evenodd" d="M546.5 150.002C546.5 146.411 549.411 143.5 553.002 143.5C556.592 143.5 559.503 146.411 559.503 150.002C559.503 153.592 556.592 156.503 553.002 156.503C549.411 156.503 546.5 153.592 546.5 150.002ZM553.002 142C548.582 142 545 145.582 545 150.002C545 154.421 548.582 158.003 553.002 158.003C557.421 158.003 561.003 154.421 561.003 150.002C561.003 145.582 557.421 142 553.002 142ZM555.149 153.629C555.383 153.746 555.641 153.807 555.903 153.807C556.165 153.807 556.424 153.746 556.658 153.629C556.897 153.51 557.096 153.324 557.23 153.094C557.372 152.858 557.446 152.586 557.444 152.31V146.146H556.341V152.31C556.342 152.363 556.331 152.415 556.31 152.463C556.29 152.511 556.259 152.555 556.22 152.59C556.133 152.667 556.02 152.71 555.903 152.71C555.786 152.71 555.673 152.667 555.585 152.59C555.547 152.554 555.517 152.511 555.496 152.463C555.475 152.415 555.465 152.363 555.465 152.31V147.642C555.471 147.444 555.436 147.248 555.362 147.064C555.289 146.88 555.178 146.713 555.038 146.574C554.747 146.3 554.363 146.147 553.963 146.147C553.564 146.147 553.179 146.3 552.889 146.574C552.748 146.713 552.638 146.88 552.565 147.064C552.491 147.248 552.456 147.444 552.461 147.642V152.31C552.462 152.363 552.451 152.415 552.43 152.463C552.409 152.511 552.379 152.554 552.341 152.59C552.253 152.667 552.14 152.71 552.023 152.71C551.906 152.71 551.793 152.667 551.705 152.59C551.667 152.555 551.636 152.511 551.615 152.463C551.594 152.415 551.584 152.363 551.584 152.31V147.642C551.589 147.444 551.553 147.247 551.479 147.063C551.404 146.879 551.294 146.712 551.153 146.573C551.013 146.433 550.845 146.323 550.661 146.25C550.477 146.176 550.28 146.141 550.081 146.147C549.669 146.14 549.271 146.293 548.969 146.574C548.819 146.708 548.699 146.872 548.619 147.057C548.539 147.241 548.499 147.441 548.504 147.642V153.807H549.597V147.642C549.597 147.59 549.608 147.538 549.629 147.49C549.649 147.442 549.68 147.398 549.718 147.362C549.76 147.321 549.81 147.289 549.866 147.268C549.921 147.248 549.98 147.239 550.039 147.243C550.097 147.239 550.156 147.248 550.211 147.269C550.267 147.29 550.317 147.321 550.359 147.362C550.397 147.398 550.427 147.442 550.448 147.49C550.469 147.538 550.479 147.59 550.479 147.642V152.31C550.474 152.509 550.511 152.706 550.585 152.89C550.659 153.074 550.77 153.241 550.91 153.38C551.051 153.52 551.219 153.63 551.403 153.703C551.587 153.776 551.785 153.811 551.983 153.806C552.395 153.812 552.793 153.659 553.095 153.379C553.245 153.245 553.364 153.08 553.444 152.895C553.525 152.711 553.564 152.511 553.561 152.31V147.642C553.562 147.564 553.586 147.487 553.631 147.423C553.675 147.358 553.737 147.307 553.81 147.278C553.882 147.248 553.962 147.24 554.039 147.255C554.116 147.27 554.187 147.307 554.243 147.362C554.281 147.398 554.312 147.442 554.333 147.49C554.353 147.538 554.364 147.59 554.364 147.642V152.31C554.361 152.587 554.435 152.858 554.578 153.094C554.712 153.324 554.911 153.51 555.149 153.629Z" fill="#1A1A1A"/>
<path d="M570.831 144.336H572.472L575.555 152.561L578.631 144.336H580.272L576.2 155H574.896L570.831 144.336ZM570.084 144.336H571.644L571.915 151.455V155H570.084V144.336ZM579.459 144.336H581.026V155H579.188V151.455L579.459 144.336ZM582.696 151.125V150.957C582.696 150.386 582.779 149.856 582.945 149.368C583.111 148.875 583.351 148.447 583.663 148.086C583.98 147.72 584.366 147.437 584.82 147.236C585.279 147.031 585.797 146.929 586.373 146.929C586.954 146.929 587.472 147.031 587.926 147.236C588.385 147.437 588.773 147.72 589.09 148.086C589.408 148.447 589.649 148.875 589.815 149.368C589.981 149.856 590.064 150.386 590.064 150.957V151.125C590.064 151.697 589.981 152.227 589.815 152.715C589.649 153.203 589.408 153.63 589.09 153.997C588.773 154.358 588.387 154.641 587.933 154.846C587.479 155.046 586.964 155.146 586.388 155.146C585.807 155.146 585.287 155.046 584.828 154.846C584.374 154.641 583.988 154.358 583.67 153.997C583.353 153.63 583.111 153.203 582.945 152.715C582.779 152.227 582.696 151.697 582.696 151.125ZM584.461 150.957V151.125C584.461 151.482 584.498 151.819 584.571 152.136C584.645 152.454 584.759 152.732 584.916 152.971C585.072 153.21 585.272 153.398 585.516 153.535C585.76 153.672 586.051 153.74 586.388 153.74C586.715 153.74 586.998 153.672 587.237 153.535C587.481 153.398 587.682 153.21 587.838 152.971C587.994 152.732 588.109 152.454 588.182 152.136C588.26 151.819 588.299 151.482 588.299 151.125V150.957C588.299 150.605 588.26 150.273 588.182 149.961C588.109 149.644 587.992 149.363 587.831 149.119C587.674 148.875 587.474 148.684 587.23 148.547C586.991 148.406 586.705 148.335 586.373 148.335C586.041 148.335 585.753 148.406 585.509 148.547C585.27 148.684 585.072 148.875 584.916 149.119C584.759 149.363 584.645 149.644 584.571 149.961C584.498 150.273 584.461 150.605 584.461 150.957ZM593.316 148.584V155H591.551V147.075H593.236L593.316 148.584ZM595.741 147.024L595.726 148.665C595.619 148.645 595.501 148.63 595.375 148.621C595.252 148.611 595.13 148.606 595.008 148.606C594.706 148.606 594.439 148.65 594.21 148.738C593.98 148.821 593.788 148.943 593.631 149.104C593.48 149.26 593.363 149.451 593.28 149.675C593.197 149.9 593.148 150.151 593.133 150.43L592.73 150.459C592.73 149.961 592.779 149.5 592.877 149.075C592.975 148.65 593.121 148.276 593.316 147.954C593.517 147.632 593.766 147.38 594.063 147.2C594.366 147.019 594.715 146.929 595.111 146.929C595.218 146.929 595.333 146.938 595.455 146.958C595.582 146.978 595.677 147 595.741 147.024ZM600.194 155.146C599.608 155.146 599.078 155.051 598.604 154.861C598.136 154.666 597.735 154.395 597.403 154.048C597.076 153.701 596.825 153.293 596.649 152.825C596.473 152.356 596.385 151.851 596.385 151.309V151.016C596.385 150.396 596.476 149.834 596.656 149.331C596.837 148.828 597.088 148.398 597.411 148.042C597.733 147.681 598.114 147.405 598.553 147.214C598.993 147.024 599.469 146.929 599.981 146.929C600.548 146.929 601.043 147.024 601.468 147.214C601.893 147.405 602.245 147.673 602.523 148.02C602.806 148.362 603.016 148.77 603.153 149.243C603.294 149.717 603.365 150.239 603.365 150.811V151.565H597.242V150.298H601.622V150.159C601.612 149.841 601.549 149.543 601.432 149.265C601.319 148.987 601.146 148.762 600.912 148.591C600.677 148.42 600.365 148.335 599.974 148.335C599.681 148.335 599.42 148.398 599.19 148.525C598.966 148.647 598.778 148.826 598.626 149.06C598.475 149.294 598.358 149.578 598.275 149.91C598.197 150.237 598.158 150.605 598.158 151.016V151.309C598.158 151.655 598.204 151.978 598.297 152.275C598.395 152.568 598.536 152.825 598.722 153.044C598.907 153.264 599.132 153.438 599.396 153.564C599.659 153.687 599.959 153.748 600.296 153.748C600.721 153.748 601.1 153.662 601.432 153.491C601.764 153.32 602.052 153.079 602.296 152.766L603.226 153.667C603.055 153.916 602.833 154.155 602.56 154.385C602.286 154.609 601.952 154.792 601.556 154.934C601.166 155.076 600.711 155.146 600.194 155.146ZM610.865 155H609.1V146.313C609.1 145.723 609.21 145.227 609.43 144.827C609.654 144.421 609.974 144.116 610.389 143.911C610.804 143.701 611.295 143.596 611.861 143.596C612.037 143.596 612.21 143.608 612.381 143.633C612.552 143.652 612.718 143.684 612.879 143.728L612.835 145.09C612.738 145.066 612.63 145.049 612.513 145.039C612.401 145.029 612.279 145.024 612.147 145.024C611.878 145.024 611.646 145.076 611.451 145.178C611.261 145.276 611.114 145.42 611.012 145.61C610.914 145.801 610.865 146.035 610.865 146.313V155ZM612.499 147.075V148.364H607.884V147.075H612.499ZM615.553 148.584V155H613.788V147.075H615.472L615.553 148.584ZM617.977 147.024L617.962 148.665C617.855 148.645 617.738 148.63 617.611 148.621C617.489 148.611 617.367 148.606 617.245 148.606C616.942 148.606 616.676 148.65 616.446 148.738C616.217 148.821 616.024 148.943 615.868 149.104C615.716 149.26 615.599 149.451 615.516 149.675C615.433 149.9 615.384 150.151 615.37 150.43L614.967 150.459C614.967 149.961 615.016 149.5 615.113 149.075C615.211 148.65 615.357 148.276 615.553 147.954C615.753 147.632 616.002 147.38 616.3 147.2C616.603 147.019 616.952 146.929 617.347 146.929C617.455 146.929 617.569 146.938 617.691 146.958C617.818 146.978 617.914 147 617.977 147.024ZM618.556 151.125V150.957C618.556 150.386 618.639 149.856 618.805 149.368C618.971 148.875 619.21 148.447 619.522 148.086C619.84 147.72 620.226 147.437 620.68 147.236C621.139 147.031 621.656 146.929 622.232 146.929C622.813 146.929 623.331 147.031 623.785 147.236C624.244 147.437 624.632 147.72 624.95 148.086C625.267 148.447 625.509 148.875 625.675 149.368C625.841 149.856 625.924 150.386 625.924 150.957V151.125C625.924 151.697 625.841 152.227 625.675 152.715C625.509 153.203 625.267 153.63 624.95 153.997C624.632 154.358 624.247 154.641 623.792 154.846C623.338 155.046 622.823 155.146 622.247 155.146C621.666 155.146 621.146 155.046 620.687 154.846C620.233 154.641 619.847 154.358 619.53 153.997C619.212 153.63 618.971 153.203 618.805 152.715C618.639 152.227 618.556 151.697 618.556 151.125ZM620.321 150.957V151.125C620.321 151.482 620.357 151.819 620.431 152.136C620.504 152.454 620.619 152.732 620.775 152.971C620.931 153.21 621.131 153.398 621.375 153.535C621.62 153.672 621.91 153.74 622.247 153.74C622.574 153.74 622.857 153.672 623.097 153.535C623.341 153.398 623.541 153.21 623.697 152.971C623.854 152.732 623.968 152.454 624.042 152.136C624.12 151.819 624.159 151.482 624.159 151.125V150.957C624.159 150.605 624.12 150.273 624.042 149.961C623.968 149.644 623.851 149.363 623.69 149.119C623.534 148.875 623.333 148.684 623.089 148.547C622.85 148.406 622.564 148.335 622.232 148.335C621.9 148.335 621.612 148.406 621.368 148.547C621.129 148.684 620.931 148.875 620.775 149.119C620.619 149.363 620.504 149.644 620.431 149.961C620.357 150.273 620.321 150.605 620.321 150.957ZM629.168 148.687V155H627.403V147.075H629.066L629.168 148.687ZM628.883 150.745L628.282 150.737C628.282 150.19 628.351 149.685 628.487 149.221C628.624 148.757 628.824 148.354 629.088 148.013C629.352 147.666 629.679 147.4 630.069 147.214C630.465 147.024 630.921 146.929 631.439 146.929C631.8 146.929 632.13 146.982 632.428 147.09C632.73 147.192 632.992 147.356 633.211 147.581C633.436 147.805 633.607 148.093 633.724 148.445C633.846 148.796 633.907 149.221 633.907 149.719V155H632.142V149.873C632.142 149.487 632.083 149.185 631.966 148.965C631.854 148.745 631.69 148.589 631.476 148.496C631.266 148.398 631.014 148.35 630.721 148.35C630.389 148.35 630.106 148.413 629.872 148.54C629.642 148.667 629.454 148.84 629.308 149.06C629.161 149.28 629.054 149.534 628.985 149.822C628.917 150.11 628.883 150.417 628.883 150.745ZM633.797 150.276L632.97 150.459C632.97 149.98 633.036 149.529 633.167 149.104C633.304 148.674 633.502 148.298 633.761 147.976C634.024 147.649 634.349 147.393 634.735 147.207C635.121 147.021 635.562 146.929 636.061 146.929C636.466 146.929 636.827 146.985 637.145 147.097C637.467 147.205 637.74 147.375 637.965 147.61C638.189 147.844 638.36 148.149 638.478 148.525C638.595 148.896 638.653 149.346 638.653 149.873V155H636.881V149.866C636.881 149.465 636.822 149.155 636.705 148.936C636.593 148.716 636.432 148.564 636.222 148.481C636.012 148.394 635.76 148.35 635.467 148.35C635.194 148.35 634.952 148.401 634.742 148.503C634.537 148.601 634.364 148.74 634.222 148.921C634.081 149.097 633.973 149.299 633.9 149.529C633.832 149.758 633.797 150.007 633.797 150.276ZM647.054 152.605L649.178 144.336H650.292L650.167 146.467L647.896 155H646.739L647.054 152.605ZM645.465 144.336L647.186 152.539L647.34 155H646.109L643.641 144.336H645.465ZM652.701 152.517L654.4 144.336H656.231L653.763 155H652.533L652.701 152.517ZM650.724 144.336L652.826 152.627L653.133 155H651.976L649.742 146.467L649.625 144.336H650.724ZM661.644 151.023H658.868V149.565H661.644C662.127 149.565 662.518 149.487 662.816 149.331C663.114 149.175 663.331 148.96 663.468 148.687C663.609 148.408 663.68 148.091 663.68 147.734C663.68 147.397 663.609 147.083 663.468 146.79C663.331 146.492 663.114 146.252 662.816 146.072C662.518 145.891 662.127 145.801 661.644 145.801H659.432V155H657.594V144.336H661.644C662.469 144.336 663.17 144.482 663.746 144.775C664.327 145.063 664.769 145.464 665.072 145.977C665.375 146.484 665.526 147.065 665.526 147.72C665.526 148.408 665.375 148.999 665.072 149.492C664.769 149.985 664.327 150.364 663.746 150.627C663.17 150.891 662.469 151.023 661.644 151.023ZM667.921 144.336H669.562L672.645 152.561L675.721 144.336H677.362L673.29 155H671.986L667.921 144.336ZM667.174 144.336H668.734L669.005 151.455V155H667.174V144.336ZM676.549 144.336H678.116V155H676.278V151.455L676.549 144.336ZM686.283 144.336H688.114V151.462C688.114 152.273 687.938 152.952 687.586 153.499C687.235 154.045 686.756 154.458 686.151 154.736C685.55 155.01 684.879 155.146 684.137 155.146C683.37 155.146 682.687 155.01 682.086 154.736C681.485 154.458 681.012 154.045 680.665 153.499C680.323 152.952 680.152 152.273 680.152 151.462V144.336H681.983V151.462C681.983 151.975 682.071 152.397 682.247 152.729C682.423 153.057 682.672 153.298 682.994 153.455C683.316 153.611 683.697 153.689 684.137 153.689C684.576 153.689 684.955 153.611 685.272 153.455C685.594 153.298 685.843 153.057 686.019 152.729C686.195 152.397 686.283 151.975 686.283 151.462V144.336ZM696.947 155H694.669L694.684 153.542H696.947C697.606 153.542 698.158 153.398 698.602 153.11C699.051 152.822 699.388 152.41 699.613 151.873C699.842 151.335 699.957 150.696 699.957 149.954V149.375C699.957 148.799 699.891 148.289 699.759 147.844C699.632 147.4 699.442 147.026 699.188 146.724C698.939 146.421 698.631 146.191 698.265 146.035C697.904 145.879 697.486 145.801 697.013 145.801H694.625V144.336H697.013C697.721 144.336 698.368 144.456 698.954 144.695C699.54 144.929 700.045 145.269 700.47 145.713C700.899 146.157 701.229 146.689 701.458 147.31C701.688 147.93 701.803 148.623 701.803 149.39V149.954C701.803 150.72 701.688 151.414 701.458 152.034C701.229 152.654 700.899 153.186 700.47 153.63C700.04 154.07 699.527 154.409 698.932 154.648C698.341 154.883 697.679 155 696.947 155ZM695.687 144.336V155H693.849V144.336H695.687ZM710.628 153.542V155H704.967V153.542H710.628ZM705.487 144.336V155H703.648V144.336H705.487ZM709.889 148.789V150.225H704.967V148.789H709.889ZM710.592 144.336V145.801H704.967V144.336H710.592ZM715.785 153.052L718.59 144.336H720.619L716.795 155H715.426L715.785 153.052ZM713.192 144.336L715.975 153.052L716.356 155H714.979L711.17 144.336H713.192Z" fill="#1A1A1A"/>
<path d="M766.875 145.656C766.911 145.255 767.13 145.036 767.531 145H778.469C778.87 145.036 779.089 145.255 779.125 145.656C779.089 146.057 778.87 146.276 778.469 146.312H767.531C767.13 146.276 766.911 146.057 766.875 145.656ZM766.875 150.031C766.911 149.63 767.13 149.411 767.531 149.375H778.469C778.87 149.411 779.089 149.63 779.125 150.031C779.089 150.432 778.87 150.651 778.469 150.688H767.531C767.13 150.651 766.911 150.432 766.875 150.031ZM778.469 155.062H767.531C767.13 155.026 766.911 154.807 766.875 154.406C766.911 154.005 767.13 153.786 767.531 153.75H778.469C778.87 153.786 779.089 154.005 779.125 154.406C779.089 154.807 778.87 155.026 778.469 155.062Z" fill="#1A1A1A"/>
</g>
<g clip-path="url(#clip2_14025_3870)">
<path d="M857 82C857 77.5817 860.582 74 865 74H1224C1228.42 74 1232 77.5817 1232 82V726C1232 730.418 1228.42 734 1224 734H865C860.582 734 857 730.418 857 726V82Z" fill="#F8F8F8"/>
<rect x="857" y="74" width="375" height="40" fill="#23282D"/>
<rect x="873.5" y="202.5" width="342" height="194" rx="15.5" fill="white" stroke="#E6E6E6"/>
<rect x="873.5" y="413.5" width="342" height="194" rx="15.5" fill="white" stroke="#E6E6E6"/>
<rect width="375" height="72" transform="translate(857 114)" fill="white"/>
<rect x="873" y="130" width="40" height="40" rx="14" fill="#2DC4E0"/>
<path d="M893 141.667C894.648 141.667 896.259 142.155 897.63 143.071C899 143.987 900.068 145.288 900.699 146.811C901.33 148.334 901.495 150.009 901.173 151.626C900.852 153.242 900.058 154.727 898.892 155.892C897.727 157.058 896.242 157.852 894.626 158.173C893.009 158.495 891.334 158.33 889.811 157.699C888.288 157.068 886.987 156 886.071 154.63C885.155 153.259 884.667 151.648 884.667 150C884.667 147.79 885.545 145.67 887.107 144.107C888.67 142.545 890.79 141.667 893 141.667ZM893 139.583C890.94 139.583 888.926 140.194 887.213 141.339C885.5 142.483 884.165 144.11 883.376 146.014C882.588 147.917 882.381 150.012 882.783 152.032C883.185 154.053 884.177 155.909 885.634 157.366C887.091 158.822 888.947 159.815 890.968 160.216C892.988 160.618 895.083 160.412 896.986 159.624C898.89 158.835 900.516 157.5 901.661 155.787C902.806 154.074 903.417 152.06 903.417 150C903.417 147.237 902.319 144.588 900.366 142.634C898.412 140.681 895.763 139.583 893 139.583Z" fill="white" fill-opacity="0.25"/>
<path d="M893 146.875C894.133 146.875 895.241 147.211 896.183 147.841C897.125 148.47 897.859 149.365 898.293 150.412C898.727 151.459 898.84 152.611 898.619 153.722C898.398 154.833 897.852 155.854 897.051 156.655C896.25 157.457 895.229 158.002 894.118 158.223C893.006 158.444 891.854 158.331 890.808 157.897C889.761 157.464 888.866 156.729 888.236 155.787C887.607 154.845 887.271 153.737 887.271 152.604C887.274 151.086 887.878 149.63 888.952 148.556C890.026 147.482 891.481 146.878 893 146.875ZM893 144.792C891.455 144.792 889.944 145.25 888.66 146.108C887.375 146.967 886.374 148.187 885.782 149.615C885.191 151.042 885.036 152.613 885.338 154.128C885.639 155.644 886.383 157.036 887.476 158.129C888.568 159.221 889.96 159.965 891.476 160.267C892.991 160.568 894.562 160.413 895.99 159.822C897.417 159.231 898.637 158.229 899.496 156.945C900.354 155.66 900.813 154.149 900.813 152.604C900.813 150.532 899.989 148.545 898.524 147.08C897.059 145.615 895.072 144.792 893 144.792Z" fill="#99E1EE"/>
<path d="M893 152.083C893.618 152.083 894.222 152.267 894.736 152.61C895.25 152.953 895.651 153.441 895.887 154.012C896.124 154.584 896.186 155.212 896.065 155.818C895.944 156.424 895.647 156.981 895.21 157.418C894.773 157.855 894.216 158.153 893.61 158.273C893.004 158.394 892.375 158.332 891.804 158.095C891.233 157.859 890.745 157.458 890.402 156.945C890.058 156.431 889.875 155.826 889.875 155.208C889.875 154.38 890.204 153.585 890.79 152.999C891.376 152.413 892.171 152.083 893 152.083ZM893 150C891.97 150 890.963 150.305 890.106 150.878C889.25 151.45 888.582 152.264 888.188 153.215C887.794 154.167 887.691 155.214 887.892 156.224C888.093 157.235 888.589 158.163 889.317 158.891C890.046 159.62 890.974 160.116 891.984 160.317C892.994 160.518 894.042 160.414 894.993 160.02C895.945 159.626 896.758 158.958 897.331 158.102C897.903 157.245 898.208 156.238 898.208 155.208C898.208 153.827 897.66 152.502 896.683 151.525C895.706 150.549 894.381 150 893 150Z" fill="white"/>
<path d="M928.312 152.07C928.312 151.836 928.276 151.628 928.203 151.445C928.135 151.263 928.013 151.096 927.836 150.945C927.659 150.794 927.409 150.648 927.086 150.508C926.768 150.362 926.362 150.214 925.867 150.062C925.326 149.896 924.826 149.711 924.367 149.508C923.914 149.299 923.518 149.06 923.18 148.789C922.841 148.513 922.578 148.198 922.391 147.844C922.203 147.484 922.109 147.07 922.109 146.602C922.109 146.138 922.206 145.716 922.398 145.336C922.596 144.956 922.875 144.628 923.234 144.352C923.599 144.07 924.029 143.854 924.523 143.703C925.018 143.547 925.565 143.469 926.164 143.469C927.008 143.469 927.734 143.625 928.344 143.938C928.958 144.25 929.43 144.669 929.758 145.195C930.091 145.721 930.258 146.302 930.258 146.938H928.312C928.312 146.562 928.232 146.232 928.07 145.945C927.914 145.654 927.674 145.424 927.352 145.258C927.034 145.091 926.63 145.008 926.141 145.008C925.677 145.008 925.292 145.078 924.984 145.219C924.677 145.359 924.448 145.549 924.297 145.789C924.146 146.029 924.07 146.299 924.07 146.602C924.07 146.815 924.12 147.01 924.219 147.188C924.318 147.359 924.469 147.521 924.672 147.672C924.875 147.818 925.13 147.956 925.438 148.086C925.745 148.216 926.107 148.341 926.523 148.461C927.154 148.648 927.703 148.857 928.172 149.086C928.641 149.31 929.031 149.565 929.344 149.852C929.656 150.138 929.891 150.464 930.047 150.828C930.203 151.188 930.281 151.596 930.281 152.055C930.281 152.534 930.185 152.966 929.992 153.352C929.799 153.732 929.523 154.057 929.164 154.328C928.81 154.594 928.383 154.799 927.883 154.945C927.388 155.086 926.836 155.156 926.227 155.156C925.68 155.156 925.141 155.083 924.609 154.938C924.083 154.792 923.604 154.57 923.172 154.273C922.74 153.971 922.396 153.596 922.141 153.148C921.885 152.695 921.758 152.167 921.758 151.562H923.719C923.719 151.932 923.781 152.247 923.906 152.508C924.036 152.768 924.216 152.982 924.445 153.148C924.674 153.31 924.94 153.43 925.242 153.508C925.549 153.586 925.878 153.625 926.227 153.625C926.685 153.625 927.068 153.56 927.375 153.43C927.688 153.299 927.922 153.117 928.078 152.883C928.234 152.648 928.312 152.378 928.312 152.07ZM933.711 148.266V155H931.828V146.547H933.602L933.711 148.266ZM933.406 150.461L932.766 150.453C932.766 149.87 932.839 149.331 932.984 148.836C933.13 148.341 933.344 147.911 933.625 147.547C933.906 147.177 934.255 146.893 934.672 146.695C935.094 146.492 935.581 146.391 936.133 146.391C936.518 146.391 936.87 146.448 937.188 146.562C937.51 146.672 937.789 146.846 938.023 147.086C938.263 147.326 938.445 147.633 938.57 148.008C938.701 148.383 938.766 148.836 938.766 149.367V155H936.883V149.531C936.883 149.12 936.82 148.797 936.695 148.562C936.576 148.328 936.401 148.161 936.172 148.062C935.948 147.958 935.68 147.906 935.367 147.906C935.013 147.906 934.711 147.974 934.461 148.109C934.216 148.245 934.016 148.43 933.859 148.664C933.703 148.898 933.589 149.169 933.516 149.477C933.443 149.784 933.406 150.112 933.406 150.461ZM938.648 149.961L937.766 150.156C937.766 149.646 937.836 149.164 937.977 148.711C938.122 148.253 938.333 147.852 938.609 147.508C938.891 147.159 939.237 146.885 939.648 146.688C940.06 146.49 940.531 146.391 941.062 146.391C941.495 146.391 941.88 146.451 942.219 146.57C942.562 146.685 942.854 146.867 943.094 147.117C943.333 147.367 943.516 147.693 943.641 148.094C943.766 148.49 943.828 148.969 943.828 149.531V155H941.938V149.523C941.938 149.096 941.875 148.766 941.75 148.531C941.63 148.297 941.458 148.135 941.234 148.047C941.01 147.953 940.742 147.906 940.43 147.906C940.138 147.906 939.88 147.961 939.656 148.07C939.438 148.174 939.253 148.323 939.102 148.516C938.951 148.703 938.836 148.919 938.758 149.164C938.685 149.409 938.648 149.674 938.648 149.961ZM950.852 153.008V146.547H952.742V155H950.961L950.852 153.008ZM951.117 151.25L951.75 151.234C951.75 151.802 951.688 152.326 951.562 152.805C951.438 153.279 951.245 153.693 950.984 154.047C950.724 154.396 950.391 154.669 949.984 154.867C949.578 155.06 949.091 155.156 948.523 155.156C948.112 155.156 947.734 155.096 947.391 154.977C947.047 154.857 946.75 154.672 946.5 154.422C946.255 154.172 946.065 153.846 945.93 153.445C945.794 153.044 945.727 152.565 945.727 152.008V146.547H947.609V152.023C947.609 152.331 947.646 152.589 947.719 152.797C947.792 153 947.891 153.164 948.016 153.289C948.141 153.414 948.286 153.503 948.453 153.555C948.62 153.607 948.797 153.633 948.984 153.633C949.521 153.633 949.943 153.529 950.25 153.32C950.562 153.107 950.784 152.82 950.914 152.461C951.049 152.102 951.117 151.698 951.117 151.25ZM959.414 152.711C959.414 152.523 959.367 152.354 959.273 152.203C959.18 152.047 959 151.906 958.734 151.781C958.474 151.656 958.089 151.542 957.578 151.438C957.13 151.339 956.719 151.221 956.344 151.086C955.974 150.945 955.656 150.776 955.391 150.578C955.125 150.38 954.919 150.146 954.773 149.875C954.628 149.604 954.555 149.292 954.555 148.938C954.555 148.594 954.63 148.268 954.781 147.961C954.932 147.654 955.148 147.383 955.43 147.148C955.711 146.914 956.052 146.729 956.453 146.594C956.859 146.458 957.312 146.391 957.812 146.391C958.521 146.391 959.128 146.51 959.633 146.75C960.143 146.984 960.534 147.305 960.805 147.711C961.076 148.112 961.211 148.565 961.211 149.07H959.328C959.328 148.846 959.271 148.638 959.156 148.445C959.047 148.247 958.88 148.089 958.656 147.969C958.432 147.844 958.151 147.781 957.812 147.781C957.49 147.781 957.221 147.833 957.008 147.938C956.799 148.036 956.643 148.167 956.539 148.328C956.44 148.49 956.391 148.667 956.391 148.859C956.391 149 956.417 149.128 956.469 149.242C956.526 149.352 956.62 149.453 956.75 149.547C956.88 149.635 957.057 149.719 957.281 149.797C957.51 149.875 957.797 149.951 958.141 150.023C958.786 150.159 959.341 150.333 959.805 150.547C960.273 150.755 960.633 151.026 960.883 151.359C961.133 151.688 961.258 152.104 961.258 152.609C961.258 152.984 961.177 153.328 961.016 153.641C960.859 153.948 960.63 154.216 960.328 154.445C960.026 154.669 959.664 154.844 959.242 154.969C958.826 155.094 958.357 155.156 957.836 155.156C957.07 155.156 956.422 155.021 955.891 154.75C955.359 154.474 954.956 154.122 954.68 153.695C954.409 153.263 954.273 152.815 954.273 152.352H956.094C956.115 152.701 956.211 152.979 956.383 153.188C956.56 153.391 956.779 153.539 957.039 153.633C957.305 153.721 957.578 153.766 957.859 153.766C958.198 153.766 958.482 153.721 958.711 153.633C958.94 153.539 959.115 153.414 959.234 153.258C959.354 153.096 959.414 152.914 959.414 152.711ZM964.766 143V155H962.891V143H964.766ZM964.438 150.461L963.828 150.453C963.833 149.87 963.914 149.331 964.07 148.836C964.232 148.341 964.456 147.911 964.742 147.547C965.034 147.177 965.383 146.893 965.789 146.695C966.195 146.492 966.646 146.391 967.141 146.391C967.557 146.391 967.932 146.448 968.266 146.562C968.604 146.677 968.896 146.862 969.141 147.117C969.385 147.367 969.57 147.695 969.695 148.102C969.826 148.503 969.891 148.992 969.891 149.57V155H968V149.555C968 149.148 967.94 148.826 967.82 148.586C967.706 148.346 967.536 148.174 967.312 148.07C967.089 147.961 966.815 147.906 966.492 147.906C966.154 147.906 965.854 147.974 965.594 148.109C965.339 148.245 965.125 148.43 964.953 148.664C964.781 148.898 964.651 149.169 964.562 149.477C964.479 149.784 964.438 150.112 964.438 150.461Z" fill="#1A1A1A"/>
<rect x="1120.5" y="130.5" width="39" height="39" rx="3.5" stroke="#1A1A1A"/>
<path d="M1142.15 153.629C1142.38 153.746 1142.64 153.807 1142.9 153.807C1143.17 153.807 1143.42 153.746 1143.66 153.629C1143.9 153.51 1144.1 153.324 1144.23 153.094C1144.37 152.858 1144.45 152.586 1144.44 152.31V146.146H1143.34V152.31C1143.34 152.363 1143.33 152.415 1143.31 152.463C1143.29 152.511 1143.26 152.555 1143.22 152.59C1143.13 152.667 1143.02 152.71 1142.9 152.71C1142.79 152.71 1142.67 152.667 1142.58 152.59C1142.55 152.554 1142.52 152.511 1142.5 152.463C1142.48 152.415 1142.46 152.363 1142.47 152.31V147.642C1142.47 147.444 1142.44 147.248 1142.36 147.064C1142.29 146.88 1142.18 146.713 1142.04 146.574C1141.75 146.3 1141.36 146.147 1140.96 146.147C1140.56 146.147 1140.18 146.3 1139.89 146.574C1139.75 146.713 1139.64 146.88 1139.56 147.064C1139.49 147.248 1139.46 147.444 1139.46 147.642V152.31C1139.46 152.363 1139.45 152.415 1139.43 152.463C1139.41 152.511 1139.38 152.554 1139.34 152.59C1139.25 152.667 1139.14 152.71 1139.02 152.71C1138.91 152.71 1138.79 152.667 1138.71 152.59C1138.67 152.555 1138.64 152.511 1138.62 152.463C1138.59 152.415 1138.58 152.363 1138.58 152.31V147.642C1138.59 147.444 1138.55 147.247 1138.48 147.063C1138.4 146.879 1138.29 146.712 1138.15 146.573C1138.01 146.433 1137.85 146.323 1137.66 146.25C1137.48 146.176 1137.28 146.141 1137.08 146.147C1136.67 146.14 1136.27 146.293 1135.97 146.574C1135.82 146.708 1135.7 146.872 1135.62 147.057C1135.54 147.241 1135.5 147.441 1135.5 147.642V153.807H1136.6V147.642C1136.6 147.59 1136.61 147.538 1136.63 147.49C1136.65 147.442 1136.68 147.398 1136.72 147.362C1136.76 147.321 1136.81 147.289 1136.87 147.268C1136.92 147.248 1136.98 147.239 1137.04 147.243C1137.1 147.239 1137.16 147.248 1137.21 147.269C1137.27 147.29 1137.32 147.321 1137.36 147.362C1137.4 147.398 1137.43 147.442 1137.45 147.49C1137.47 147.538 1137.48 147.59 1137.48 147.642V152.31C1137.47 152.509 1137.51 152.706 1137.58 152.89C1137.66 153.074 1137.77 153.241 1137.91 153.38C1138.05 153.52 1138.22 153.63 1138.4 153.703C1138.59 153.776 1138.78 153.811 1138.98 153.806C1139.39 153.812 1139.79 153.659 1140.09 153.379C1140.24 153.245 1140.36 153.08 1140.44 152.895C1140.52 152.711 1140.56 152.511 1140.56 152.31V147.642C1140.56 147.564 1140.59 147.487 1140.63 147.423C1140.67 147.358 1140.74 147.307 1140.81 147.278C1140.88 147.248 1140.96 147.24 1141.04 147.255C1141.12 147.27 1141.19 147.307 1141.24 147.362C1141.28 147.398 1141.31 147.442 1141.33 147.49C1141.35 147.538 1141.36 147.59 1141.36 147.642V152.31C1141.36 152.587 1141.43 152.858 1141.58 153.094C1141.71 153.324 1141.91 153.51 1142.15 153.629Z" fill="#1A1A1A"/>
<path fill-rule="evenodd" clip-rule="evenodd" d="M1140 142C1135.58 142 1132 145.582 1132 150.002C1132 154.421 1135.58 158.003 1140 158.003C1144.42 158.003 1148 154.421 1148 150.002C1148 145.582 1144.42 142 1140 142ZM1133.5 150.002C1133.5 146.411 1136.41 143.5 1140 143.5C1143.59 143.5 1146.5 146.411 1146.5 150.002C1146.5 153.592 1143.59 156.503 1140 156.503C1136.41 156.503 1133.5 153.592 1133.5 150.002Z" fill="#1A1A1A"/>
<path d="M1189.88 145.656C1189.91 145.255 1190.13 145.036 1190.53 145H1201.47C1201.87 145.036 1202.09 145.255 1202.12 145.656C1202.09 146.057 1201.87 146.276 1201.47 146.312H1190.53C1190.13 146.276 1189.91 146.057 1189.88 145.656ZM1189.88 150.031C1189.91 149.63 1190.13 149.411 1190.53 149.375H1201.47C1201.87 149.411 1202.09 149.63 1202.12 150.031C1202.09 150.432 1201.87 150.651 1201.47 150.688H1190.53C1190.13 150.651 1189.91 150.432 1189.88 150.031ZM1201.47 155.062H1190.53C1190.13 155.026 1189.91 154.807 1189.88 154.406C1189.91 154.005 1190.13 153.786 1190.53 153.75H1201.47C1201.87 153.786 1202.09 154.005 1202.12 154.406C1202.09 154.807 1201.87 155.026 1201.47 155.062Z" fill="#1A1A1A"/>
</g>
<path d="M53.5869 44.7578H55.0088L57.6812 51.8862L60.3472 44.7578H61.769L58.2397 54H57.1099L53.5869 44.7578ZM52.9395 44.7578H54.2915L54.5264 50.9277V54H52.9395V44.7578ZM61.0645 44.7578H62.4229V54H60.8296V50.9277L61.0645 44.7578ZM71.3638 52.7368V54H66.457V52.7368H71.3638ZM66.9077 44.7578V54H65.3145V44.7578H66.9077ZM70.7227 48.6172V49.8613H66.457V48.6172H70.7227ZM71.332 44.7578V46.0273H66.457V44.7578H71.332ZM76.3501 54H74.376L74.3887 52.7368H76.3501C76.9214 52.7368 77.3996 52.612 77.7847 52.3623C78.174 52.1126 78.466 51.755 78.6606 51.2896C78.8595 50.8241 78.959 50.2697 78.959 49.6265V49.125C78.959 48.6257 78.9019 48.1834 78.7876 47.7983C78.6776 47.4132 78.5125 47.0895 78.2925 46.8271C78.0767 46.5648 77.8101 46.3659 77.4927 46.2305C77.1795 46.0951 76.8177 46.0273 76.4072 46.0273H74.3379V44.7578H76.4072C77.0208 44.7578 77.5815 44.8615 78.0894 45.0688C78.5972 45.272 79.0352 45.5661 79.4033 45.9512C79.7757 46.3363 80.0614 46.7975 80.2603 47.335C80.4591 47.8724 80.5586 48.4733 80.5586 49.1377V49.6265C80.5586 50.2909 80.4591 50.8918 80.2603 51.4292C80.0614 51.9666 79.7757 52.4279 79.4033 52.813C79.0309 53.1938 78.5866 53.488 78.0703 53.6953C77.5583 53.8984 76.9849 54 76.3501 54ZM75.2583 44.7578V54H73.665V44.7578H75.2583ZM84.8594 44.7578V54H83.2661V44.7578H84.8594ZM93.0259 44.7578H94.6128V50.9341C94.6128 51.6366 94.4604 52.2248 94.1558 52.6987C93.8511 53.1727 93.4364 53.5303 92.9116 53.7715C92.3911 54.0085 91.8092 54.127 91.166 54.127C90.5016 54.127 89.9092 54.0085 89.3887 53.7715C88.8682 53.5303 88.4577 53.1727 88.1572 52.6987C87.861 52.2248 87.7129 51.6366 87.7129 50.9341V44.7578H89.2998V50.9341C89.2998 51.3784 89.376 51.7445 89.5283 52.0322C89.6807 52.3158 89.8965 52.5252 90.1758 52.6606C90.4551 52.7961 90.7852 52.8638 91.166 52.8638C91.5469 52.8638 91.8748 52.7961 92.1499 52.6606C92.4292 52.5252 92.645 52.3158 92.7974 52.0322C92.9497 51.7445 93.0259 51.3784 93.0259 50.9341V44.7578ZM97.9932 44.7578H99.415L102.087 51.8862L104.753 44.7578H106.175L102.646 54H101.516L97.9932 44.7578ZM97.3457 44.7578H98.6978L98.9326 50.9277V54H97.3457V44.7578ZM105.471 44.7578H106.829V54H105.236V50.9277L105.471 44.7578ZM118.82 51.6196C118.82 51.4292 118.791 51.2599 118.731 51.1118C118.676 50.9637 118.577 50.8283 118.433 50.7056C118.289 50.5828 118.086 50.4644 117.824 50.3501C117.566 50.2316 117.236 50.111 116.833 49.9883C116.393 49.8529 115.987 49.7026 115.615 49.5376C115.247 49.3683 114.925 49.1737 114.65 48.9536C114.375 48.7293 114.161 48.4733 114.009 48.1855C113.856 47.8936 113.78 47.5571 113.78 47.1763C113.78 46.7996 113.859 46.4569 114.015 46.1479C114.176 45.839 114.402 45.5724 114.694 45.3481C114.991 45.1196 115.34 44.944 115.742 44.8213C116.144 44.6943 116.588 44.6309 117.075 44.6309C117.76 44.6309 118.351 44.7578 118.846 45.0117C119.345 45.2656 119.728 45.6063 119.995 46.0337C120.265 46.4611 120.401 46.9329 120.401 47.4492H118.82C118.82 47.1445 118.755 46.8758 118.624 46.6431C118.497 46.4061 118.302 46.2199 118.04 46.0845C117.781 45.9491 117.453 45.8813 117.056 45.8813C116.679 45.8813 116.366 45.9385 116.116 46.0527C115.867 46.167 115.68 46.3215 115.558 46.5161C115.435 46.7108 115.374 46.9308 115.374 47.1763C115.374 47.3498 115.414 47.5085 115.494 47.6523C115.575 47.792 115.697 47.9232 115.862 48.0459C116.027 48.1644 116.235 48.2765 116.484 48.3823C116.734 48.4881 117.028 48.5897 117.367 48.687C117.879 48.8394 118.325 49.0086 118.706 49.1948C119.087 49.3768 119.404 49.5841 119.658 49.8169C119.912 50.0496 120.103 50.3141 120.229 50.6104C120.356 50.9023 120.42 51.2345 120.42 51.6069C120.42 51.9963 120.342 52.3475 120.185 52.6606C120.028 52.9696 119.804 53.234 119.512 53.4541C119.224 53.6699 118.877 53.8371 118.471 53.9556C118.069 54.0698 117.621 54.127 117.125 54.127C116.681 54.127 116.243 54.0677 115.812 53.9492C115.384 53.8307 114.995 53.6509 114.644 53.4097C114.292 53.1642 114.013 52.8595 113.806 52.4956C113.598 52.1274 113.495 51.6979 113.495 51.207H115.088C115.088 51.5075 115.139 51.7635 115.24 51.9751C115.346 52.1867 115.492 52.3602 115.678 52.4956C115.864 52.6268 116.08 52.7241 116.326 52.7876C116.575 52.8511 116.842 52.8828 117.125 52.8828C117.498 52.8828 117.809 52.8299 118.059 52.7241C118.312 52.6183 118.503 52.4702 118.63 52.2798C118.757 52.0894 118.82 51.8693 118.82 51.6196ZM128.288 50.9912H129.875C129.824 51.5964 129.655 52.1359 129.367 52.6099C129.079 53.0796 128.675 53.4499 128.155 53.7207C127.634 53.9915 127.002 54.127 126.257 54.127C125.686 54.127 125.171 54.0254 124.714 53.8223C124.257 53.6149 123.866 53.3229 123.54 52.9463C123.214 52.5654 122.965 52.1063 122.791 51.5688C122.622 51.0314 122.537 50.4305 122.537 49.7661V48.998C122.537 48.3337 122.624 47.7327 122.797 47.1953C122.975 46.6579 123.229 46.1987 123.559 45.8179C123.889 45.4328 124.285 45.1387 124.746 44.9355C125.212 44.7324 125.734 44.6309 126.314 44.6309C127.05 44.6309 127.672 44.7663 128.18 45.0371C128.688 45.3079 129.082 45.6825 129.361 46.1606C129.644 46.6388 129.818 47.1868 129.881 47.8047H128.294C128.252 47.4069 128.159 47.0662 128.015 46.7827C127.875 46.4992 127.668 46.2834 127.393 46.1353C127.118 45.9829 126.758 45.9067 126.314 45.9067C125.95 45.9067 125.633 45.9744 125.362 46.1099C125.091 46.2453 124.865 46.4442 124.683 46.7065C124.501 46.9689 124.363 47.2926 124.27 47.6777C124.181 48.0586 124.137 48.4945 124.137 48.9854V49.7661C124.137 50.2316 124.177 50.6548 124.257 51.0356C124.342 51.4123 124.469 51.736 124.638 52.0068C124.812 52.2777 125.032 52.4871 125.298 52.6353C125.565 52.7834 125.884 52.8574 126.257 52.8574C126.71 52.8574 127.076 52.7855 127.355 52.6416C127.639 52.4977 127.852 52.2882 127.996 52.0132C128.144 51.7339 128.242 51.3932 128.288 50.9912ZM132.322 44.7578H135.591C136.294 44.7578 136.893 44.8636 137.388 45.0752C137.883 45.2868 138.262 45.5999 138.524 46.0146C138.791 46.4251 138.924 46.9329 138.924 47.5381C138.924 47.9993 138.839 48.4056 138.67 48.7568C138.501 49.1081 138.262 49.4043 137.953 49.6455C137.644 49.8825 137.276 50.0666 136.848 50.1978L136.366 50.4326H133.427L133.414 49.1694H135.617C135.998 49.1694 136.315 49.1017 136.569 48.9663C136.823 48.8309 137.013 48.6468 137.14 48.4141C137.271 48.1771 137.337 47.9105 137.337 47.6143C137.337 47.2926 137.273 47.0133 137.146 46.7764C137.024 46.5352 136.833 46.3511 136.575 46.2241C136.317 46.0929 135.989 46.0273 135.591 46.0273H133.916V54H132.322V44.7578ZM137.597 54L135.426 49.8486L137.096 49.8423L139.298 53.9175V54H137.597ZM147.56 52.7368V54H142.653V52.7368H147.56ZM143.104 44.7578V54H141.511V44.7578H143.104ZM146.919 48.6172V49.8613H142.653V48.6172H146.919ZM147.528 44.7578V46.0273H142.653V44.7578H147.528ZM155.911 52.7368V54H151.004V52.7368H155.911ZM151.455 44.7578V54H149.861V44.7578H151.455ZM155.27 48.6172V49.8613H151.004V48.6172H155.27ZM155.879 44.7578V46.0273H151.004V44.7578H155.879ZM165.543 44.7578V54H163.95L159.805 47.3794V54H158.212V44.7578H159.805L163.963 51.3911V44.7578H165.543ZM173.304 51.6196C173.304 51.4292 173.274 51.2599 173.215 51.1118C173.16 50.9637 173.06 50.8283 172.917 50.7056C172.773 50.5828 172.569 50.4644 172.307 50.3501C172.049 50.2316 171.719 50.111 171.317 49.9883C170.877 49.8529 170.471 49.7026 170.098 49.5376C169.73 49.3683 169.408 49.1737 169.133 48.9536C168.858 48.7293 168.645 48.4733 168.492 48.1855C168.34 47.8936 168.264 47.5571 168.264 47.1763C168.264 46.7996 168.342 46.4569 168.499 46.1479C168.659 45.839 168.886 45.5724 169.178 45.3481C169.474 45.1196 169.823 44.944 170.225 44.8213C170.627 44.6943 171.071 44.6309 171.558 44.6309C172.244 44.6309 172.834 44.7578 173.329 45.0117C173.828 45.2656 174.211 45.6063 174.478 46.0337C174.749 46.4611 174.884 46.9329 174.884 47.4492H173.304C173.304 47.1445 173.238 46.8758 173.107 46.6431C172.98 46.4061 172.785 46.2199 172.523 46.0845C172.265 45.9491 171.937 45.8813 171.539 45.8813C171.162 45.8813 170.849 45.9385 170.6 46.0527C170.35 46.167 170.164 46.3215 170.041 46.5161C169.918 46.7108 169.857 46.9308 169.857 47.1763C169.857 47.3498 169.897 47.5085 169.978 47.6523C170.058 47.792 170.181 47.9232 170.346 48.0459C170.511 48.1644 170.718 48.2765 170.968 48.3823C171.217 48.4881 171.512 48.5897 171.85 48.687C172.362 48.8394 172.809 49.0086 173.189 49.1948C173.57 49.3768 173.888 49.5841 174.142 49.8169C174.396 50.0496 174.586 50.3141 174.713 50.6104C174.84 50.9023 174.903 51.2345 174.903 51.6069C174.903 51.9963 174.825 52.3475 174.668 52.6606C174.512 52.9696 174.288 53.234 173.996 53.4541C173.708 53.6699 173.361 53.8371 172.955 53.9556C172.553 54.0698 172.104 54.127 171.609 54.127C171.165 54.127 170.727 54.0677 170.295 53.9492C169.868 53.8307 169.478 53.6509 169.127 53.4097C168.776 53.1642 168.496 52.8595 168.289 52.4956C168.082 52.1274 167.978 51.6979 167.978 51.207H169.571C169.571 51.5075 169.622 51.7635 169.724 51.9751C169.829 52.1867 169.975 52.3602 170.162 52.4956C170.348 52.6268 170.564 52.7241 170.809 52.7876C171.059 52.8511 171.325 52.8828 171.609 52.8828C171.981 52.8828 172.292 52.8299 172.542 52.7241C172.796 52.6183 172.986 52.4702 173.113 52.2798C173.24 52.0894 173.304 51.8693 173.304 51.6196ZM181.429 50.3501V50.2422C181.429 49.3366 181.527 48.5156 181.721 47.7793C181.92 47.0387 182.178 46.3913 182.496 45.8369C182.813 45.2783 183.152 44.8171 183.511 44.4531C183.875 44.085 184.224 43.8205 184.559 43.6597L184.863 44.5356C184.618 44.7176 184.372 44.9694 184.127 45.291C183.886 45.6126 183.664 46.0083 183.46 46.478C183.262 46.9435 183.101 47.4894 182.978 48.1157C182.86 48.7378 182.8 49.4424 182.8 50.2295V50.3628C182.8 51.1499 182.86 51.8566 182.978 52.4829C183.101 53.105 183.262 53.6509 183.46 54.1206C183.664 54.5903 183.886 54.9881 184.127 55.314C184.372 55.644 184.618 55.9064 184.863 56.1011L184.559 56.939C184.224 56.7739 183.875 56.5073 183.511 56.1392C183.152 55.7752 182.813 55.314 182.496 54.7554C182.178 54.201 181.92 53.5557 181.721 52.8193C181.527 52.0788 181.429 51.2557 181.429 50.3501ZM187.666 49.8296L191.862 51.4355V52.9399L186.511 50.5786V49.582L187.666 49.8296ZM191.862 48.5156L187.666 50.147L186.511 50.3691V49.3726L191.862 47.0176V48.5156ZM198.606 44.7261V54H197.077V46.5415L194.811 47.3096V46.0464L198.422 44.7261H198.606ZM209.014 52.7812V54H202.818V52.9526L205.827 49.6709C206.157 49.2985 206.417 48.9769 206.608 48.7061C206.798 48.4352 206.932 48.1919 207.008 47.9761C207.088 47.756 207.128 47.5423 207.128 47.335C207.128 47.043 207.073 46.7869 206.963 46.5669C206.858 46.3426 206.701 46.167 206.494 46.04C206.286 45.9089 206.035 45.8433 205.738 45.8433C205.396 45.8433 205.108 45.9173 204.875 46.0654C204.642 46.2135 204.467 46.4188 204.348 46.6812C204.23 46.9393 204.17 47.2355 204.17 47.5698H202.641C202.641 47.0324 202.763 46.5415 203.009 46.0972C203.254 45.6486 203.61 45.2931 204.075 45.0308C204.541 44.7642 205.101 44.6309 205.757 44.6309C206.375 44.6309 206.9 44.7345 207.332 44.9419C207.763 45.1493 208.091 45.4434 208.315 45.8242C208.544 46.2051 208.658 46.6558 208.658 47.1763C208.658 47.464 208.612 47.7497 208.519 48.0332C208.425 48.3167 208.292 48.6003 208.119 48.8838C207.949 49.1631 207.748 49.4445 207.516 49.728C207.283 50.0073 207.027 50.2909 206.748 50.5786L204.748 52.7812H209.014ZM217.231 48.6045V50.1152C217.231 50.8389 217.159 51.4567 217.015 51.9688C216.875 52.4766 216.672 52.8892 216.406 53.2065C216.139 53.5239 215.82 53.7567 215.447 53.9048C215.079 54.0529 214.667 54.127 214.209 54.127C213.846 54.127 213.507 54.0804 213.194 53.9873C212.885 53.8942 212.606 53.7482 212.356 53.5493C212.106 53.3504 211.893 53.0944 211.715 52.7812C211.541 52.4639 211.406 52.0851 211.309 51.645C211.215 51.2049 211.169 50.695 211.169 50.1152V48.6045C211.169 47.8766 211.241 47.263 211.385 46.7637C211.529 46.2601 211.734 45.8517 212 45.5386C212.267 45.2212 212.584 44.9906 212.953 44.8467C213.325 44.7028 213.74 44.6309 214.197 44.6309C214.565 44.6309 214.903 44.6774 215.212 44.7705C215.526 44.8594 215.805 45.0011 216.05 45.1958C216.3 45.3905 216.512 45.6444 216.685 45.9575C216.863 46.2664 216.998 46.641 217.091 47.0811C217.184 47.5169 217.231 48.0247 217.231 48.6045ZM215.701 50.3311V48.376C215.701 48.0078 215.68 47.6841 215.638 47.4048C215.595 47.1213 215.532 46.8822 215.447 46.6875C215.367 46.4886 215.265 46.3278 215.143 46.2051C215.02 46.0781 214.88 45.9871 214.724 45.9321C214.567 45.8729 214.391 45.8433 214.197 45.8433C213.96 45.8433 213.748 45.8898 213.562 45.9829C213.376 46.0718 213.219 46.2157 213.092 46.4146C212.965 46.6134 212.868 46.8758 212.8 47.2017C212.737 47.5233 212.705 47.9147 212.705 48.376V50.3311C212.705 50.7035 212.726 51.0314 212.769 51.3149C212.811 51.5985 212.874 51.8418 212.959 52.0449C213.044 52.2438 213.145 52.4089 213.264 52.54C213.386 52.667 213.526 52.7601 213.683 52.8193C213.843 52.8786 214.019 52.9082 214.209 52.9082C214.451 52.9082 214.664 52.8617 214.851 52.7686C215.037 52.6755 215.193 52.5273 215.32 52.3242C215.447 52.1169 215.542 51.8481 215.606 51.5181C215.669 51.188 215.701 50.7923 215.701 50.3311ZM225.62 48.6045V50.1152C225.62 50.8389 225.548 51.4567 225.404 51.9688C225.264 52.4766 225.061 52.8892 224.794 53.2065C224.528 53.5239 224.208 53.7567 223.836 53.9048C223.468 54.0529 223.055 54.127 222.598 54.127C222.234 54.127 221.896 54.0804 221.583 53.9873C221.274 53.8942 220.994 53.7482 220.745 53.5493C220.495 53.3504 220.281 53.0944 220.104 52.7812C219.93 52.4639 219.795 52.0851 219.697 51.645C219.604 51.2049 219.558 50.695 219.558 50.1152V48.6045C219.558 47.8766 219.63 47.263 219.773 46.7637C219.917 46.2601 220.123 45.8517 220.389 45.5386C220.656 45.2212 220.973 44.9906 221.341 44.8467C221.714 44.7028 222.128 44.6309 222.585 44.6309C222.954 44.6309 223.292 44.6774 223.601 44.7705C223.914 44.8594 224.194 45.0011 224.439 45.1958C224.689 45.3905 224.9 45.6444 225.074 45.9575C225.251 46.2664 225.387 46.641 225.48 47.0811C225.573 47.5169 225.62 48.0247 225.62 48.6045ZM224.09 50.3311V48.376C224.09 48.0078 224.069 47.6841 224.026 47.4048C223.984 47.1213 223.921 46.8822 223.836 46.6875C223.756 46.4886 223.654 46.3278 223.531 46.2051C223.409 46.0781 223.269 45.9871 223.112 45.9321C222.956 45.8729 222.78 45.8433 222.585 45.8433C222.348 45.8433 222.137 45.8898 221.951 45.9829C221.764 46.0718 221.608 46.2157 221.481 46.4146C221.354 46.6134 221.257 46.8758 221.189 47.2017C221.125 47.5233 221.094 47.9147 221.094 48.376V50.3311C221.094 50.7035 221.115 51.0314 221.157 51.3149C221.2 51.5985 221.263 51.8418 221.348 52.0449C221.432 52.2438 221.534 52.4089 221.652 52.54C221.775 52.667 221.915 52.7601 222.071 52.8193C222.232 52.8786 222.408 52.9082 222.598 52.9082C222.839 52.9082 223.053 52.8617 223.239 52.7686C223.425 52.6755 223.582 52.5273 223.709 52.3242C223.836 52.1169 223.931 51.8481 223.995 51.5181C224.058 51.188 224.09 50.7923 224.09 50.3311ZM231.736 50.5532H229.33V49.29H231.736C232.155 49.29 232.493 49.2223 232.751 49.0869C233.01 48.9515 233.198 48.7653 233.316 48.5283C233.439 48.2871 233.5 48.012 233.5 47.7031C233.5 47.4111 233.439 47.1382 233.316 46.8843C233.198 46.6261 233.01 46.4188 232.751 46.2622C232.493 46.1056 232.155 46.0273 231.736 46.0273H229.819V54H228.226V44.7578H231.736C232.451 44.7578 233.058 44.8848 233.558 45.1387C234.061 45.3883 234.444 45.7354 234.707 46.1797C234.969 46.6198 235.1 47.1234 235.1 47.6904C235.1 48.2871 234.969 48.7992 234.707 49.2266C234.444 49.654 234.061 49.9819 233.558 50.2104C233.058 50.439 232.451 50.5532 231.736 50.5532ZM238.487 44.7578L240.448 48.1284L242.41 44.7578H244.244L241.451 49.3345L244.314 54H242.46L240.448 50.5659L238.436 54H236.576L239.445 49.3345L236.646 44.7578H238.487ZM249.288 50.2422V50.3501C249.288 51.243 249.186 52.0576 248.983 52.7939C248.784 53.5303 248.524 54.1777 248.202 54.7363C247.885 55.2949 247.54 55.7604 247.167 56.1328C246.799 56.5052 246.446 56.7739 246.107 56.939L245.796 56.1011C246.042 55.9149 246.285 55.6589 246.526 55.333C246.772 55.0114 246.994 54.6115 247.193 54.1333C247.396 53.6593 247.557 53.1092 247.675 52.4829C247.798 51.8566 247.859 51.1499 247.859 50.3628V50.2295C247.859 49.4424 247.796 48.7357 247.669 48.1094C247.546 47.4788 247.381 46.9287 247.174 46.459C246.966 45.985 246.742 45.5851 246.501 45.2593C246.26 44.9334 246.025 44.6795 245.796 44.4976L246.107 43.6597C246.446 43.8205 246.799 44.0871 247.167 44.4595C247.54 44.8319 247.885 45.2995 248.202 45.8623C248.524 46.4209 248.784 47.0684 248.983 47.8047C249.186 48.541 249.288 49.3535 249.288 50.2422Z" fill="#737373"/>
<path d="M865.802 51.6196C865.802 51.4292 865.772 51.2599 865.713 51.1118C865.658 50.9637 865.558 50.8283 865.415 50.7056C865.271 50.5828 865.068 50.4644 864.805 50.3501C864.547 50.2316 864.217 50.111 863.815 49.9883C863.375 49.8529 862.969 49.7026 862.596 49.5376C862.228 49.3683 861.906 49.1737 861.631 48.9536C861.356 48.7293 861.143 48.4733 860.99 48.1855C860.838 47.8936 860.762 47.5571 860.762 47.1763C860.762 46.7996 860.84 46.4569 860.997 46.1479C861.157 45.839 861.384 45.5724 861.676 45.3481C861.972 45.1196 862.321 44.944 862.723 44.8213C863.125 44.6943 863.569 44.6309 864.056 44.6309C864.742 44.6309 865.332 44.7578 865.827 45.0117C866.326 45.2656 866.709 45.6063 866.976 46.0337C867.247 46.4611 867.382 46.9329 867.382 47.4492H865.802C865.802 47.1445 865.736 46.8758 865.605 46.6431C865.478 46.4061 865.283 46.2199 865.021 46.0845C864.763 45.9491 864.435 45.8813 864.037 45.8813C863.66 45.8813 863.347 45.9385 863.098 46.0527C862.848 46.167 862.662 46.3215 862.539 46.5161C862.416 46.7108 862.355 46.9308 862.355 47.1763C862.355 47.3498 862.395 47.5085 862.476 47.6523C862.556 47.792 862.679 47.9232 862.844 48.0459C863.009 48.1644 863.216 48.2765 863.466 48.3823C863.715 48.4881 864.01 48.5897 864.348 48.687C864.86 48.8394 865.307 49.0086 865.688 49.1948C866.068 49.3768 866.386 49.5841 866.64 49.8169C866.894 50.0496 867.084 50.3141 867.211 50.6104C867.338 50.9023 867.401 51.2345 867.401 51.6069C867.401 51.9963 867.323 52.3475 867.167 52.6606C867.01 52.9696 866.786 53.234 866.494 53.4541C866.206 53.6699 865.859 53.8371 865.453 53.9556C865.051 54.0698 864.602 54.127 864.107 54.127C863.663 54.127 863.225 54.0677 862.793 53.9492C862.366 53.8307 861.976 53.6509 861.625 53.4097C861.274 53.1642 860.994 52.8595 860.787 52.4956C860.58 52.1274 860.476 51.6979 860.476 51.207H862.069C862.069 51.5075 862.12 51.7635 862.222 51.9751C862.327 52.1867 862.473 52.3602 862.66 52.4956C862.846 52.6268 863.062 52.7241 863.307 52.7876C863.557 52.8511 863.823 52.8828 864.107 52.8828C864.479 52.8828 864.79 52.8299 865.04 52.7241C865.294 52.6183 865.484 52.4702 865.611 52.2798C865.738 52.0894 865.802 51.8693 865.802 51.6196ZM870.458 44.7578H871.88L874.552 51.8862L877.218 44.7578H878.64L875.111 54H873.981L870.458 44.7578ZM869.811 44.7578H871.163L871.397 50.9277V54H869.811V44.7578ZM877.936 44.7578H879.294V54H877.701V50.9277L877.936 44.7578ZM885.899 45.9893L883.138 54H881.468L884.947 44.7578H886.013L885.899 45.9893ZM888.209 54L885.442 45.9893L885.321 44.7578H886.394L889.885 54H888.209ZM888.076 50.5723V51.8354H883.049V50.5723H888.076ZM897.709 52.7368V54H893.069V52.7368H897.709ZM893.513 44.7578V54H891.92V44.7578H893.513ZM905.729 52.7368V54H901.089V52.7368H905.729ZM901.534 44.7578V54H899.94V44.7578H901.534ZM917.061 51.6196C917.061 51.4292 917.031 51.2599 916.972 51.1118C916.917 50.9637 916.817 50.8283 916.673 50.7056C916.529 50.5828 916.326 50.4644 916.064 50.3501C915.806 50.2316 915.476 50.111 915.074 49.9883C914.634 49.8529 914.227 49.7026 913.855 49.5376C913.487 49.3683 913.165 49.1737 912.89 48.9536C912.615 48.7293 912.401 48.4733 912.249 48.1855C912.097 47.8936 912.021 47.5571 912.021 47.1763C912.021 46.7996 912.099 46.4569 912.255 46.1479C912.416 45.839 912.643 45.5724 912.935 45.3481C913.231 45.1196 913.58 44.944 913.982 44.8213C914.384 44.6943 914.828 44.6309 915.315 44.6309C916 44.6309 916.591 44.7578 917.086 45.0117C917.585 45.2656 917.968 45.6063 918.235 46.0337C918.506 46.4611 918.641 46.9329 918.641 47.4492H917.061C917.061 47.1445 916.995 46.8758 916.864 46.6431C916.737 46.4061 916.542 46.2199 916.28 46.0845C916.022 45.9491 915.694 45.8813 915.296 45.8813C914.919 45.8813 914.606 45.9385 914.356 46.0527C914.107 46.167 913.921 46.3215 913.798 46.5161C913.675 46.7108 913.614 46.9308 913.614 47.1763C913.614 47.3498 913.654 47.5085 913.734 47.6523C913.815 47.792 913.938 47.9232 914.103 48.0459C914.268 48.1644 914.475 48.2765 914.725 48.3823C914.974 48.4881 915.268 48.5897 915.607 48.687C916.119 48.8394 916.565 49.0086 916.946 49.1948C917.327 49.3768 917.645 49.5841 917.898 49.8169C918.152 50.0496 918.343 50.3141 918.47 50.6104C918.597 50.9023 918.66 51.2345 918.66 51.6069C918.66 51.9963 918.582 52.3475 918.425 52.6606C918.269 52.9696 918.044 53.234 917.752 53.4541C917.465 53.6699 917.118 53.8371 916.711 53.9556C916.309 54.0698 915.861 54.127 915.366 54.127C914.921 54.127 914.483 54.0677 914.052 53.9492C913.624 53.8307 913.235 53.6509 912.884 53.4097C912.533 53.1642 912.253 52.8595 912.046 52.4956C911.839 52.1274 911.735 51.6979 911.735 51.207H913.328C913.328 51.5075 913.379 51.7635 913.48 51.9751C913.586 52.1867 913.732 52.3602 913.918 52.4956C914.105 52.6268 914.32 52.7241 914.566 52.7876C914.816 52.8511 915.082 52.8828 915.366 52.8828C915.738 52.8828 916.049 52.8299 916.299 52.7241C916.553 52.6183 916.743 52.4702 916.87 52.2798C916.997 52.0894 917.061 51.8693 917.061 51.6196ZM926.528 50.9912H928.115C928.064 51.5964 927.895 52.1359 927.607 52.6099C927.32 53.0796 926.916 53.4499 926.395 53.7207C925.875 53.9915 925.242 54.127 924.497 54.127C923.926 54.127 923.412 54.0254 922.955 53.8223C922.498 53.6149 922.106 53.3229 921.78 52.9463C921.454 52.5654 921.205 52.1063 921.031 51.5688C920.862 51.0314 920.777 50.4305 920.777 49.7661V48.998C920.777 48.3337 920.864 47.7327 921.038 47.1953C921.215 46.6579 921.469 46.1987 921.799 45.8179C922.129 45.4328 922.525 45.1387 922.986 44.9355C923.452 44.7324 923.974 44.6309 924.554 44.6309C925.291 44.6309 925.913 44.7663 926.42 45.0371C926.928 45.3079 927.322 45.6825 927.601 46.1606C927.885 46.6388 928.058 47.1868 928.122 47.8047H926.535C926.492 47.4069 926.399 47.0662 926.255 46.7827C926.116 46.4992 925.908 46.2834 925.633 46.1353C925.358 45.9829 924.999 45.9067 924.554 45.9067C924.19 45.9067 923.873 45.9744 923.602 46.1099C923.331 46.2453 923.105 46.4442 922.923 46.7065C922.741 46.9689 922.603 47.2926 922.51 47.6777C922.421 48.0586 922.377 48.4945 922.377 48.9854V49.7661C922.377 50.2316 922.417 50.6548 922.498 51.0356C922.582 51.4123 922.709 51.736 922.878 52.0068C923.052 52.2777 923.272 52.4871 923.539 52.6353C923.805 52.7834 924.125 52.8574 924.497 52.8574C924.95 52.8574 925.316 52.7855 925.595 52.6416C925.879 52.4977 926.092 52.2882 926.236 52.0132C926.384 51.7339 926.482 51.3932 926.528 50.9912ZM930.562 44.7578H933.832C934.534 44.7578 935.133 44.8636 935.628 45.0752C936.123 45.2868 936.502 45.5999 936.764 46.0146C937.031 46.4251 937.164 46.9329 937.164 47.5381C937.164 47.9993 937.079 48.4056 936.91 48.7568C936.741 49.1081 936.502 49.4043 936.193 49.6455C935.884 49.8825 935.516 50.0666 935.088 50.1978L934.606 50.4326H931.667L931.654 49.1694H933.857C934.238 49.1694 934.555 49.1017 934.809 48.9663C935.063 48.8309 935.253 48.6468 935.38 48.4141C935.512 48.1771 935.577 47.9105 935.577 47.6143C935.577 47.2926 935.514 47.0133 935.387 46.7764C935.264 46.5352 935.074 46.3511 934.815 46.2241C934.557 46.0929 934.229 46.0273 933.832 46.0273H932.156V54H930.562V44.7578ZM935.837 54L933.667 49.8486L935.336 49.8423L937.539 53.9175V54H935.837ZM945.8 52.7368V54H940.894V52.7368H945.8ZM941.344 44.7578V54H939.751V44.7578H941.344ZM945.159 48.6172V49.8613H940.894V48.6172H945.159ZM945.769 44.7578V46.0273H940.894V44.7578H945.769ZM954.151 52.7368V54H949.244V52.7368H954.151ZM949.695 44.7578V54H948.102V44.7578H949.695ZM953.51 48.6172V49.8613H949.244V48.6172H953.51ZM954.119 44.7578V46.0273H949.244V44.7578H954.119ZM963.784 44.7578V54H962.19L958.045 47.3794V54H956.452V44.7578H958.045L962.203 51.3911V44.7578H963.784ZM971.544 51.6196C971.544 51.4292 971.514 51.2599 971.455 51.1118C971.4 50.9637 971.301 50.8283 971.157 50.7056C971.013 50.5828 970.81 50.4644 970.547 50.3501C970.289 50.2316 969.959 50.111 969.557 49.9883C969.117 49.8529 968.711 49.7026 968.338 49.5376C967.97 49.3683 967.649 49.1737 967.374 48.9536C967.098 48.7293 966.885 48.4733 966.732 48.1855C966.58 47.8936 966.504 47.5571 966.504 47.1763C966.504 46.7996 966.582 46.4569 966.739 46.1479C966.9 45.839 967.126 45.5724 967.418 45.3481C967.714 45.1196 968.063 44.944 968.465 44.8213C968.867 44.6943 969.312 44.6309 969.798 44.6309C970.484 44.6309 971.074 44.7578 971.569 45.0117C972.069 45.2656 972.452 45.6063 972.718 46.0337C972.989 46.4611 973.125 46.9329 973.125 47.4492H971.544C971.544 47.1445 971.478 46.8758 971.347 46.6431C971.22 46.4061 971.026 46.2199 970.763 46.0845C970.505 45.9491 970.177 45.8813 969.779 45.8813C969.403 45.8813 969.09 45.9385 968.84 46.0527C968.59 46.167 968.404 46.3215 968.281 46.5161C968.159 46.7108 968.097 46.9308 968.097 47.1763C968.097 47.3498 968.137 47.5085 968.218 47.6523C968.298 47.792 968.421 47.9232 968.586 48.0459C968.751 48.1644 968.958 48.2765 969.208 48.3823C969.458 48.4881 969.752 48.5897 970.09 48.687C970.602 48.8394 971.049 49.0086 971.43 49.1948C971.811 49.3768 972.128 49.5841 972.382 49.8169C972.636 50.0496 972.826 50.3141 972.953 50.6104C973.08 50.9023 973.144 51.2345 973.144 51.6069C973.144 51.9963 973.065 52.3475 972.909 52.6606C972.752 52.9696 972.528 53.234 972.236 53.4541C971.948 53.6699 971.601 53.8371 971.195 53.9556C970.793 54.0698 970.344 54.127 969.849 54.127C969.405 54.127 968.967 54.0677 968.535 53.9492C968.108 53.8307 967.718 53.6509 967.367 53.4097C967.016 53.1642 966.737 52.8595 966.529 52.4956C966.322 52.1274 966.218 51.6979 966.218 51.207H967.812C967.812 51.5075 967.862 51.7635 967.964 51.9751C968.07 52.1867 968.216 52.3602 968.402 52.4956C968.588 52.6268 968.804 52.7241 969.049 52.7876C969.299 52.8511 969.566 52.8828 969.849 52.8828C970.222 52.8828 970.533 52.8299 970.782 52.7241C971.036 52.6183 971.227 52.4702 971.354 52.2798C971.48 52.0894 971.544 51.8693 971.544 51.6196ZM979.669 50.3501V50.2422C979.669 49.3366 979.767 48.5156 979.961 47.7793C980.16 47.0387 980.418 46.3913 980.736 45.8369C981.053 45.2783 981.392 44.8171 981.751 44.4531C982.115 44.085 982.465 43.8205 982.799 43.6597L983.104 44.5356C982.858 44.7176 982.613 44.9694 982.367 45.291C982.126 45.6126 981.904 46.0083 981.701 46.478C981.502 46.9435 981.341 47.4894 981.218 48.1157C981.1 48.7378 981.041 49.4424 981.041 50.2295V50.3628C981.041 51.1499 981.1 51.8566 981.218 52.4829C981.341 53.105 981.502 53.6509 981.701 54.1206C981.904 54.5903 982.126 54.9881 982.367 55.314C982.613 55.644 982.858 55.9064 983.104 56.1011L982.799 56.939C982.465 56.7739 982.115 56.5073 981.751 56.1392C981.392 55.7752 981.053 55.314 980.736 54.7554C980.418 54.201 980.16 53.5557 979.961 52.8193C979.767 52.0788 979.669 51.2557 979.669 50.3501ZM985.906 49.8296L990.102 51.4355V52.9399L984.751 50.5786V49.582L985.906 49.8296ZM990.102 48.5156L985.906 50.147L984.751 50.3691V49.3726L990.102 47.0176V48.5156ZM997.291 44.7007H997.481V45.9512H997.374C996.828 45.9512 996.356 46.0358 995.958 46.2051C995.564 46.3743 995.241 46.6071 994.987 46.9033C994.733 47.1995 994.542 47.5465 994.416 47.9443C994.293 48.3379 994.231 48.7568 994.231 49.2012V50.6548C994.231 51.0229 994.272 51.3488 994.352 51.6323C994.432 51.9116 994.545 52.1465 994.688 52.3369C994.837 52.5231 995.006 52.6649 995.196 52.7622C995.387 52.8595 995.592 52.9082 995.812 52.9082C996.041 52.9082 996.248 52.8617 996.434 52.7686C996.62 52.6712 996.779 52.5379 996.91 52.3687C997.041 52.1994 997.141 51.9984 997.208 51.7656C997.276 51.5329 997.31 51.279 997.31 51.0039C997.31 50.7415 997.276 50.4961 997.208 50.2676C997.145 50.0348 997.05 49.8317 996.923 49.6582C996.796 49.4805 996.637 49.3429 996.447 49.2456C996.261 49.144 996.045 49.0933 995.799 49.0933C995.495 49.0933 995.217 49.1652 994.968 49.3091C994.722 49.453 994.523 49.6413 994.371 49.874C994.223 50.1025 994.143 50.3459 994.13 50.604L993.546 50.4136C993.58 50.02 993.667 49.6667 993.806 49.3535C993.95 49.0404 994.138 48.7738 994.371 48.5537C994.604 48.3337 994.873 48.1665 995.177 48.0522C995.486 47.9338 995.825 47.8745 996.193 47.8745C996.641 47.8745 997.031 47.9591 997.361 48.1284C997.691 48.2977 997.964 48.5283 998.18 48.8203C998.4 49.1081 998.563 49.4382 998.668 49.8105C998.778 50.1787 998.833 50.5638 998.833 50.9658C998.833 51.4102 998.766 51.8249 998.63 52.21C998.495 52.5908 998.296 52.9251 998.034 53.2129C997.776 53.5007 997.46 53.7249 997.088 53.8857C996.72 54.0465 996.301 54.127 995.831 54.127C995.336 54.127 994.894 54.0317 994.504 53.8413C994.119 53.6509 993.791 53.3885 993.521 53.0542C993.254 52.7199 993.051 52.3348 992.911 51.8989C992.771 51.4631 992.702 51.0018 992.702 50.5151V49.8804C992.702 49.1779 992.791 48.5156 992.968 47.8936C993.146 47.2673 993.419 46.715 993.787 46.2368C994.16 45.7586 994.636 45.3841 995.215 45.1133C995.795 44.8382 996.487 44.7007 997.291 44.7007ZM1007.08 48.6045V50.1152C1007.08 50.8389 1007.01 51.4567 1006.87 51.9688C1006.73 52.4766 1006.52 52.8892 1006.26 53.2065C1005.99 53.5239 1005.67 53.7567 1005.3 53.9048C1004.93 54.0529 1004.52 54.127 1004.06 54.127C1003.7 54.127 1003.36 54.0804 1003.05 53.9873C1002.74 53.8942 1002.46 53.7482 1002.21 53.5493C1001.96 53.3504 1001.74 53.0944 1001.57 52.7812C1001.39 52.4639 1001.26 52.0851 1001.16 51.645C1001.07 51.2049 1001.02 50.695 1001.02 50.1152V48.6045C1001.02 47.8766 1001.09 47.263 1001.24 46.7637C1001.38 46.2601 1001.59 45.8517 1001.85 45.5386C1002.12 45.2212 1002.44 44.9906 1002.8 44.8467C1003.18 44.7028 1003.59 44.6309 1004.05 44.6309C1004.42 44.6309 1004.76 44.6774 1005.06 44.7705C1005.38 44.8594 1005.66 45.0011 1005.9 45.1958C1006.15 45.3905 1006.36 45.6444 1006.54 45.9575C1006.71 46.2664 1006.85 46.641 1006.94 47.0811C1007.04 47.5169 1007.08 48.0247 1007.08 48.6045ZM1005.55 50.3311V48.376C1005.55 48.0078 1005.53 47.6841 1005.49 47.4048C1005.45 47.1213 1005.38 46.8822 1005.3 46.6875C1005.22 46.4886 1005.12 46.3278 1004.99 46.2051C1004.87 46.0781 1004.73 45.9871 1004.58 45.9321C1004.42 45.8729 1004.24 45.8433 1004.05 45.8433C1003.81 45.8433 1003.6 45.8898 1003.41 45.9829C1003.23 46.0718 1003.07 46.2157 1002.94 46.4146C1002.82 46.6134 1002.72 46.8758 1002.65 47.2017C1002.59 47.5233 1002.56 47.9147 1002.56 48.376V50.3311C1002.56 50.7035 1002.58 51.0314 1002.62 51.3149C1002.66 51.5985 1002.73 51.8418 1002.81 52.0449C1002.9 52.2438 1003 52.4089 1003.12 52.54C1003.24 52.667 1003.38 52.7601 1003.53 52.8193C1003.69 52.8786 1003.87 52.9082 1004.06 52.9082C1004.3 52.9082 1004.52 52.8617 1004.7 52.7686C1004.89 52.6755 1005.04 52.5273 1005.17 52.3242C1005.3 52.1169 1005.39 51.8481 1005.46 51.5181C1005.52 51.188 1005.55 50.7923 1005.55 50.3311ZM1015.47 48.6045V50.1152C1015.47 50.8389 1015.4 51.4567 1015.26 51.9688C1015.12 52.4766 1014.91 52.8892 1014.65 53.2065C1014.38 53.5239 1014.06 53.7567 1013.69 53.9048C1013.32 54.0529 1012.91 54.127 1012.45 54.127C1012.09 54.127 1011.75 54.0804 1011.43 53.9873C1011.13 53.8942 1010.85 53.7482 1010.6 53.5493C1010.35 53.3504 1010.13 53.0944 1009.96 52.7812C1009.78 52.4639 1009.65 52.0851 1009.55 51.645C1009.46 51.2049 1009.41 50.695 1009.41 50.1152V48.6045C1009.41 47.8766 1009.48 47.263 1009.62 46.7637C1009.77 46.2601 1009.97 45.8517 1010.24 45.5386C1010.51 45.2212 1010.82 44.9906 1011.19 44.8467C1011.57 44.7028 1011.98 44.6309 1012.44 44.6309C1012.81 44.6309 1013.14 44.6774 1013.45 44.7705C1013.77 44.8594 1014.05 45.0011 1014.29 45.1958C1014.54 45.3905 1014.75 45.6444 1014.93 45.9575C1015.1 46.2664 1015.24 46.641 1015.33 47.0811C1015.42 47.5169 1015.47 48.0247 1015.47 48.6045ZM1013.94 50.3311V48.376C1013.94 48.0078 1013.92 47.6841 1013.88 47.4048C1013.84 47.1213 1013.77 46.8822 1013.69 46.6875C1013.61 46.4886 1013.51 46.3278 1013.38 46.2051C1013.26 46.0781 1013.12 45.9871 1012.96 45.9321C1012.81 45.8729 1012.63 45.8433 1012.44 45.8433C1012.2 45.8433 1011.99 45.8898 1011.8 45.9829C1011.62 46.0718 1011.46 46.2157 1011.33 46.4146C1011.21 46.6134 1011.11 46.8758 1011.04 47.2017C1010.98 47.5233 1010.95 47.9147 1010.95 48.376V50.3311C1010.95 50.7035 1010.97 51.0314 1011.01 51.3149C1011.05 51.5985 1011.11 51.8418 1011.2 52.0449C1011.28 52.2438 1011.39 52.4089 1011.5 52.54C1011.63 52.667 1011.77 52.7601 1011.92 52.8193C1012.08 52.8786 1012.26 52.9082 1012.45 52.9082C1012.69 52.9082 1012.9 52.8617 1013.09 52.7686C1013.28 52.6755 1013.43 52.5273 1013.56 52.3242C1013.69 52.1169 1013.78 51.8481 1013.85 51.5181C1013.91 51.188 1013.94 50.7923 1013.94 50.3311ZM1020.88 50.2422V50.3501C1020.88 51.243 1020.77 52.0576 1020.57 52.7939C1020.37 53.5303 1020.11 54.1777 1019.79 54.7363C1019.47 55.2949 1019.13 55.7604 1018.76 56.1328C1018.39 56.5052 1018.03 56.7739 1017.7 56.939L1017.39 56.1011C1017.63 55.9149 1017.87 55.6589 1018.12 55.333C1018.36 55.0114 1018.58 54.6115 1018.78 54.1333C1018.98 53.6593 1019.15 53.1092 1019.26 52.4829C1019.39 51.8566 1019.45 51.1499 1019.45 50.3628V50.2295C1019.45 49.4424 1019.38 48.7357 1019.26 48.1094C1019.14 47.4788 1018.97 46.9287 1018.76 46.459C1018.56 45.985 1018.33 45.5851 1018.09 45.2593C1017.85 44.9334 1017.61 44.6795 1017.39 44.4976L1017.7 43.6597C1018.03 43.8205 1018.39 44.0871 1018.76 44.4595C1019.13 44.8319 1019.47 45.2995 1019.79 45.8623C1020.11 46.4209 1020.37 47.0684 1020.57 47.8047C1020.77 48.541 1020.88 49.3535 1020.88 50.2422Z" fill="#737373"/>
</g>
<path d="M0.5 16C0.5 7.43959 7.43959 0.5 16 0.5H1264C1272.56 0.5 1279.5 7.43959 1279.5 16V460C1279.5 468.56 1272.56 475.5 1264 475.5H16C7.43957 475.5 0.5 468.56 0.5 460V16Z" stroke="#E6E6E6"/>
<defs>
<clipPath id="clip0_14025_3870">
<path d="M0 16C0 7.16344 7.16344 0 16 0H1264C1272.84 0 1280 7.16344 1280 16V460C1280 468.837 1272.84 476 1264 476H16C7.16343 476 0 468.837 0 460V16Z" fill="white"/>
</clipPath>
<clipPath id="clip1_14025_3870">
<path d="M49 82C49 77.5817 52.5817 74 57 74H809C813.418 74 817 77.5817 817 82V726C817 730.418 813.418 734 809 734H57C52.5817 734 49 730.418 49 726V82Z" fill="white"/>
</clipPath>
<clipPath id="clip2_14025_3870">
<path d="M857 82C857 77.5817 860.582 74 865 74H1224C1228.42 74 1232 77.5817 1232 82V726C1232 730.418 1228.42 734 1224 734H865C860.582 734 857 730.418 857 726V82Z" fill="white"/>
</clipPath>
</defs>
</svg>
