<svg width="1280" height="288" viewBox="0 0 1280 288" fill="none" xmlns="http://www.w3.org/2000/svg">
<rect x="0.5" y="0.5" width="1279" height="287" rx="15.5" fill="white"/>
<rect x="0.5" y="0.5" width="1279" height="287" rx="15.5" stroke="#E6E6E6"/>
<path d="M403.109 120.731V121.728H398.107V120.731H403.109ZM398.298 116.758V126H397.073V116.758H398.298ZM404.176 116.758V126H402.957V116.758H404.176ZM409.025 126.127C408.547 126.127 408.113 126.047 407.724 125.886C407.339 125.721 407.007 125.49 406.728 125.194C406.452 124.898 406.241 124.546 406.093 124.14C405.945 123.734 405.871 123.29 405.871 122.807V122.541C405.871 121.982 405.953 121.485 406.118 121.049C406.283 120.609 406.507 120.236 406.791 119.932C407.075 119.627 407.396 119.396 407.756 119.24C408.116 119.083 408.488 119.005 408.873 119.005C409.364 119.005 409.787 119.09 410.143 119.259C410.502 119.428 410.796 119.665 411.025 119.97C411.253 120.27 411.423 120.626 411.533 121.036C411.643 121.442 411.698 121.887 411.698 122.369V122.896H406.569V121.938H410.523V121.849C410.507 121.544 410.443 121.248 410.333 120.96C410.227 120.672 410.058 120.435 409.825 120.249C409.592 120.063 409.275 119.97 408.873 119.97C408.606 119.97 408.361 120.027 408.137 120.141C407.912 120.251 407.72 120.416 407.559 120.636C407.398 120.856 407.273 121.125 407.185 121.442C407.096 121.76 407.051 122.126 407.051 122.541V122.807C407.051 123.133 407.096 123.44 407.185 123.728C407.278 124.011 407.411 124.261 407.584 124.477C407.762 124.692 407.976 124.862 408.226 124.984C408.479 125.107 408.767 125.168 409.089 125.168C409.504 125.168 409.855 125.084 410.143 124.915C410.43 124.745 410.682 124.519 410.898 124.235L411.609 124.8C411.461 125.025 411.272 125.238 411.044 125.441C410.815 125.645 410.534 125.81 410.2 125.937C409.87 126.063 409.478 126.127 409.025 126.127ZM414.345 116.25V126H413.164V116.25H414.345ZM417.404 120.452V128.641H416.224V119.132H417.303L417.404 120.452ZM422.032 122.509V122.642C422.032 123.141 421.972 123.605 421.854 124.032C421.736 124.455 421.562 124.824 421.333 125.137C421.109 125.45 420.832 125.693 420.502 125.867C420.172 126.04 419.793 126.127 419.366 126.127C418.93 126.127 418.545 126.055 418.21 125.911C417.876 125.767 417.593 125.558 417.36 125.283C417.127 125.008 416.941 124.678 416.801 124.292C416.666 123.907 416.573 123.474 416.522 122.991V122.28C416.573 121.772 416.668 121.318 416.808 120.916C416.947 120.514 417.131 120.171 417.36 119.887C417.593 119.599 417.874 119.382 418.204 119.233C418.534 119.081 418.915 119.005 419.347 119.005C419.778 119.005 420.161 119.09 420.496 119.259C420.83 119.424 421.111 119.661 421.34 119.97C421.568 120.279 421.74 120.649 421.854 121.081C421.972 121.508 422.032 121.984 422.032 122.509ZM420.851 122.642V122.509C420.851 122.166 420.815 121.844 420.743 121.544C420.671 121.239 420.559 120.973 420.407 120.744C420.259 120.511 420.068 120.329 419.835 120.198C419.603 120.063 419.326 119.995 419.004 119.995C418.708 119.995 418.45 120.046 418.229 120.147C418.014 120.249 417.83 120.387 417.677 120.56C417.525 120.729 417.4 120.924 417.303 121.144C417.21 121.36 417.14 121.584 417.093 121.817V123.461C417.178 123.757 417.296 124.036 417.449 124.299C417.601 124.557 417.804 124.766 418.058 124.927C418.312 125.084 418.632 125.162 419.017 125.162C419.334 125.162 419.607 125.097 419.835 124.965C420.068 124.83 420.259 124.646 420.407 124.413C420.559 124.18 420.671 123.914 420.743 123.613C420.815 123.309 420.851 122.985 420.851 122.642ZM429.63 119.132V120.033H425.917V119.132H429.63ZM427.173 117.462H428.348V124.299C428.348 124.532 428.384 124.707 428.456 124.826C428.528 124.944 428.621 125.022 428.735 125.061C428.849 125.099 428.972 125.118 429.103 125.118C429.2 125.118 429.302 125.109 429.408 125.092C429.518 125.071 429.6 125.054 429.655 125.042L429.662 126C429.569 126.03 429.446 126.057 429.293 126.083C429.145 126.112 428.965 126.127 428.754 126.127C428.466 126.127 428.202 126.07 427.96 125.956C427.719 125.841 427.527 125.651 427.383 125.384C427.243 125.113 427.173 124.75 427.173 124.292V117.462ZM433.857 126.127C433.379 126.127 432.945 126.047 432.556 125.886C432.171 125.721 431.839 125.49 431.56 125.194C431.285 124.898 431.073 124.546 430.925 124.14C430.777 123.734 430.703 123.29 430.703 122.807V122.541C430.703 121.982 430.785 121.485 430.95 121.049C431.115 120.609 431.34 120.236 431.623 119.932C431.907 119.627 432.228 119.396 432.588 119.24C432.948 119.083 433.32 119.005 433.705 119.005C434.196 119.005 434.619 119.09 434.975 119.259C435.334 119.428 435.628 119.665 435.857 119.97C436.085 120.27 436.255 120.626 436.365 121.036C436.475 121.442 436.53 121.887 436.53 122.369V122.896H431.401V121.938H435.355V121.849C435.339 121.544 435.275 121.248 435.165 120.96C435.059 120.672 434.89 120.435 434.657 120.249C434.424 120.063 434.107 119.97 433.705 119.97C433.438 119.97 433.193 120.027 432.969 120.141C432.744 120.251 432.552 120.416 432.391 120.636C432.23 120.856 432.105 121.125 432.017 121.442C431.928 121.76 431.883 122.126 431.883 122.541V122.807C431.883 123.133 431.928 123.44 432.017 123.728C432.11 124.011 432.243 124.261 432.417 124.477C432.594 124.692 432.808 124.862 433.058 124.984C433.312 125.107 433.599 125.168 433.921 125.168C434.336 125.168 434.687 125.084 434.975 124.915C435.262 124.745 435.514 124.519 435.73 124.235L436.441 124.8C436.293 125.025 436.104 125.238 435.876 125.441C435.647 125.645 435.366 125.81 435.032 125.937C434.702 126.063 434.31 126.127 433.857 126.127ZM438.694 119.132L440.199 121.633L441.722 119.132H443.1L440.853 122.521L443.169 126H441.811L440.224 123.423L438.637 126H437.272L439.583 122.521L437.342 119.132H438.694ZM447.226 119.132V120.033H443.512V119.132H447.226ZM444.769 117.462H445.943V124.299C445.943 124.532 445.979 124.707 446.051 124.826C446.123 124.944 446.216 125.022 446.331 125.061C446.445 125.099 446.568 125.118 446.699 125.118C446.796 125.118 446.898 125.109 447.003 125.092C447.113 125.071 447.196 125.054 447.251 125.042L447.257 126C447.164 126.03 447.042 126.057 446.889 126.083C446.741 126.112 446.561 126.127 446.35 126.127C446.062 126.127 445.797 126.07 445.556 125.956C445.315 125.841 445.122 125.651 444.979 125.384C444.839 125.113 444.769 124.75 444.769 124.292V117.462Z" fill="#505050"/>
<rect x="396" y="68" width="240" height="40" rx="4" fill="white"/>
<path d="M397 72C397 70.3431 398.343 69 400 69H632C633.657 69 635 70.3431 635 72V104C635 105.657 633.657 107 632 107H400C398.343 107 397 105.657 397 104V72Z" fill="white"/>
<path d="M397 72C397 70.3431 398.343 69 400 69H632C633.657 69 635 70.3431 635 72V104C635 105.657 633.657 107 632 107H400C398.343 107 397 105.657 397 104V72Z" stroke="#0059FF" stroke-width="2"/>
<path d="M418.921 90.3047C418.921 90.0557 418.882 89.8359 418.804 89.6455C418.731 89.4502 418.599 89.2744 418.409 89.1182C418.223 88.9619 417.964 88.813 417.632 88.6714C417.305 88.5298 416.89 88.3857 416.387 88.2393C415.86 88.083 415.384 87.9097 414.959 87.7192C414.534 87.5239 414.17 87.3018 413.868 87.0527C413.565 86.8037 413.333 86.5181 413.172 86.1958C413.011 85.8735 412.93 85.5049 412.93 85.0898C412.93 84.6748 413.016 84.2915 413.187 83.9399C413.357 83.5884 413.602 83.2832 413.919 83.0244C414.241 82.7607 414.625 82.5557 415.069 82.4092C415.513 82.2627 416.009 82.1895 416.556 82.1895C417.356 82.1895 418.035 82.3433 418.592 82.6509C419.153 82.9536 419.581 83.3516 419.874 83.8447C420.167 84.333 420.313 84.8555 420.313 85.4121H418.907C418.907 85.0117 418.821 84.6577 418.65 84.3501C418.479 84.0376 418.221 83.7935 417.874 83.6177C417.527 83.437 417.088 83.3467 416.556 83.3467C416.053 83.3467 415.638 83.4224 415.311 83.5737C414.983 83.7251 414.739 83.9302 414.578 84.189C414.422 84.4478 414.344 84.7432 414.344 85.0752C414.344 85.2998 414.39 85.5049 414.483 85.6904C414.581 85.8711 414.729 86.0396 414.93 86.1958C415.135 86.3521 415.394 86.4961 415.706 86.6279C416.023 86.7598 416.402 86.8867 416.841 87.0088C417.447 87.1797 417.969 87.3701 418.409 87.5801C418.848 87.79 419.209 88.0269 419.493 88.2905C419.781 88.5493 419.993 88.8447 420.13 89.1768C420.271 89.5039 420.342 89.875 420.342 90.29C420.342 90.7246 420.254 91.1177 420.079 91.4692C419.903 91.8208 419.651 92.1211 419.324 92.3701C418.997 92.6191 418.604 92.812 418.145 92.9487C417.691 93.0806 417.183 93.1465 416.622 93.1465C416.128 93.1465 415.643 93.0781 415.164 92.9414C414.69 92.8047 414.258 92.5996 413.868 92.3262C413.482 92.0527 413.172 91.7158 412.938 91.3154C412.708 90.9102 412.593 90.4414 412.593 89.9092H414C414 90.2754 414.07 90.5903 414.212 90.854C414.354 91.1128 414.546 91.3276 414.791 91.4985C415.04 91.6694 415.32 91.7964 415.633 91.8794C415.95 91.9575 416.28 91.9966 416.622 91.9966C417.115 91.9966 417.532 91.9282 417.874 91.7915C418.216 91.6548 418.475 91.4595 418.65 91.2056C418.831 90.9517 418.921 90.6514 418.921 90.3047ZM425.228 93.1465C424.676 93.1465 424.175 93.0537 423.726 92.8682C423.282 92.6777 422.898 92.4116 422.576 92.0698C422.259 91.728 422.015 91.3228 421.844 90.854C421.673 90.3853 421.587 89.8726 421.587 89.3159V89.0083C421.587 88.3638 421.683 87.79 421.873 87.2871C422.063 86.7793 422.322 86.3496 422.649 85.998C422.977 85.6465 423.348 85.3804 423.763 85.1997C424.178 85.019 424.607 84.9287 425.052 84.9287C425.618 84.9287 426.106 85.0264 426.517 85.2217C426.932 85.417 427.271 85.6904 427.535 86.042C427.798 86.3887 427.994 86.7988 428.121 87.2725C428.248 87.7412 428.311 88.2539 428.311 88.8105V89.4185H422.393V88.3125H426.956V88.21C426.937 87.8584 426.863 87.5166 426.736 87.1846C426.614 86.8525 426.419 86.5791 426.15 86.3643C425.882 86.1494 425.516 86.042 425.052 86.042C424.744 86.042 424.461 86.1079 424.202 86.2397C423.943 86.3667 423.721 86.5571 423.536 86.811C423.35 87.0649 423.206 87.375 423.104 87.7412C423.001 88.1074 422.95 88.5298 422.95 89.0083V89.3159C422.95 89.6919 423.001 90.0459 423.104 90.3779C423.211 90.7051 423.365 90.9932 423.565 91.2422C423.77 91.4912 424.017 91.6865 424.305 91.8281C424.598 91.9697 424.93 92.0405 425.301 92.0405C425.779 92.0405 426.185 91.9429 426.517 91.7476C426.849 91.5522 427.139 91.291 427.388 90.9639L428.208 91.6157C428.038 91.8745 427.82 92.1211 427.557 92.3555C427.293 92.5898 426.968 92.7803 426.583 92.9268C426.202 93.0732 425.75 93.1465 425.228 93.1465ZM431.365 81.75V93H430.003V81.75H431.365ZM436.829 93.1465C436.277 93.1465 435.777 93.0537 435.328 92.8682C434.883 92.6777 434.5 92.4116 434.178 92.0698C433.86 91.728 433.616 91.3228 433.445 90.854C433.274 90.3853 433.189 89.8726 433.189 89.3159V89.0083C433.189 88.3638 433.284 87.79 433.475 87.2871C433.665 86.7793 433.924 86.3496 434.251 85.998C434.578 85.6465 434.949 85.3804 435.364 85.1997C435.779 85.019 436.209 84.9287 436.653 84.9287C437.22 84.9287 437.708 85.0264 438.118 85.2217C438.533 85.417 438.873 85.6904 439.136 86.042C439.4 86.3887 439.595 86.7988 439.722 87.2725C439.849 87.7412 439.913 88.2539 439.913 88.8105V89.4185H433.995V88.3125H438.558V88.21C438.538 87.8584 438.465 87.5166 438.338 87.1846C438.216 86.8525 438.021 86.5791 437.752 86.3643C437.483 86.1494 437.117 86.042 436.653 86.042C436.346 86.042 436.062 86.1079 435.804 86.2397C435.545 86.3667 435.323 86.5571 435.137 86.811C434.952 87.0649 434.808 87.375 434.705 87.7412C434.603 88.1074 434.551 88.5298 434.551 89.0083V89.3159C434.551 89.6919 434.603 90.0459 434.705 90.3779C434.812 90.7051 434.966 90.9932 435.167 91.2422C435.372 91.4912 435.618 91.6865 435.906 91.8281C436.199 91.9697 436.531 92.0405 436.902 92.0405C437.381 92.0405 437.786 91.9429 438.118 91.7476C438.45 91.5522 438.741 91.291 438.99 90.9639L439.81 91.6157C439.639 91.8745 439.422 92.1211 439.158 92.3555C438.895 92.5898 438.57 92.7803 438.184 92.9268C437.803 93.0732 437.352 93.1465 436.829 93.1465ZM444.666 92.0332C444.988 92.0332 445.286 91.9673 445.56 91.8354C445.833 91.7036 446.058 91.5229 446.233 91.2935C446.409 91.0591 446.509 90.793 446.534 90.4951H447.823C447.798 90.9639 447.64 91.4009 447.347 91.8062C447.059 92.2065 446.68 92.5312 446.211 92.7803C445.743 93.0244 445.228 93.1465 444.666 93.1465C444.07 93.1465 443.55 93.0415 443.106 92.8315C442.667 92.6216 442.3 92.3335 442.007 91.9673C441.719 91.6011 441.502 91.1812 441.355 90.7075C441.214 90.229 441.143 89.7236 441.143 89.1914V88.8838C441.143 88.3516 441.214 87.8486 441.355 87.375C441.502 86.8965 441.719 86.4741 442.007 86.1079C442.3 85.7417 442.667 85.4536 443.106 85.2437C443.55 85.0337 444.07 84.9287 444.666 84.9287C445.286 84.9287 445.828 85.0557 446.292 85.3096C446.756 85.5586 447.12 85.9004 447.383 86.335C447.652 86.7646 447.798 87.2529 447.823 87.7998H446.534C446.509 87.4727 446.417 87.1772 446.255 86.9136C446.099 86.6499 445.884 86.4399 445.611 86.2837C445.342 86.1226 445.027 86.042 444.666 86.042C444.251 86.042 443.902 86.125 443.619 86.291C443.34 86.4521 443.118 86.6719 442.952 86.9502C442.791 87.2236 442.674 87.5288 442.601 87.8657C442.532 88.1978 442.498 88.5371 442.498 88.8838V89.1914C442.498 89.5381 442.532 89.8799 442.601 90.2168C442.669 90.5537 442.784 90.8589 442.945 91.1323C443.111 91.4058 443.333 91.6255 443.611 91.7915C443.895 91.9526 444.246 92.0332 444.666 92.0332ZM452.664 85.0752V86.1152H448.379V85.0752H452.664ZM449.83 83.1489H451.185V91.0371C451.185 91.3057 451.226 91.5083 451.309 91.645C451.392 91.7817 451.5 91.8721 451.631 91.916C451.763 91.96 451.905 91.9819 452.056 91.9819C452.168 91.9819 452.286 91.9722 452.408 91.9526C452.535 91.9282 452.63 91.9087 452.693 91.894L452.701 93C452.593 93.0342 452.452 93.0659 452.276 93.0952C452.105 93.1294 451.897 93.1465 451.653 93.1465C451.321 93.1465 451.016 93.0806 450.738 92.9487C450.459 92.8169 450.237 92.5972 450.071 92.2896C449.91 91.9771 449.83 91.5571 449.83 91.0298V83.1489Z" fill="#1A1A1A"/>
<path d="M610.285 89.2852L615.535 84.2812C615.681 84.1172 615.836 84.0352 616 84.0352C616.164 84.0352 616.319 84.099 616.465 84.2266L621.688 89.2305C621.943 89.5404 621.943 89.8503 621.688 90.1602C621.396 90.4154 621.086 90.4245 620.758 90.1875L616 85.6211L611.215 90.2148C610.887 90.4701 610.577 90.4609 610.285 90.1875C610.03 89.8776 610.03 89.5768 610.285 89.2852Z" fill="#737373"/>
<g filter="url(#filter0_ddd_13346_62186)">
<path d="M396 116C396 111.582 399.582 108 404 108H628C632.418 108 636 111.582 636 116V180C636 184.418 632.418 188 628 188H404C399.582 188 396 184.418 396 180V116Z" fill="white"/>
<path d="M417.375 132C417.393 131.253 417.648 130.633 418.141 130.141C418.633 129.648 419.253 129.393 420 129.375C420.747 129.393 421.367 129.648 421.859 130.141C422.352 130.633 422.607 131.253 422.625 132C422.607 132.747 422.352 133.367 421.859 133.859C421.367 134.352 420.747 134.607 420 134.625C419.253 134.607 418.633 134.352 418.141 133.859C417.648 133.367 417.393 132.747 417.375 132ZM420 130.688C419.635 130.706 419.326 130.833 419.07 131.07C418.833 131.326 418.706 131.635 418.688 132C418.706 132.365 418.833 132.674 419.07 132.93C419.326 133.167 419.635 133.294 420 133.312C420.365 133.294 420.674 133.167 420.93 132.93C421.167 132.674 421.294 132.365 421.312 132C421.294 131.635 421.167 131.326 420.93 131.07C420.674 130.833 420.365 130.706 420 130.688ZM421.012 125C421.322 125 421.595 125.091 421.832 125.273C422.069 125.456 422.224 125.702 422.297 126.012L422.516 126.887C422.734 126.996 422.953 127.124 423.172 127.27L424.047 127.023C424.339 126.932 424.621 126.941 424.895 127.051C425.168 127.16 425.387 127.352 425.551 127.625L426.562 129.375C426.708 129.648 426.763 129.931 426.727 130.223C426.69 130.514 426.562 130.77 426.344 130.988L425.688 131.59C425.688 131.736 425.688 131.872 425.688 132C425.688 132.128 425.688 132.255 425.688 132.383L426.344 133.012C426.562 133.23 426.69 133.486 426.727 133.777C426.763 134.069 426.708 134.352 426.562 134.625L425.551 136.375C425.387 136.648 425.168 136.84 424.895 136.949C424.621 137.059 424.339 137.068 424.047 136.977L423.172 136.73C422.953 136.858 422.734 136.986 422.516 137.113L422.297 137.988C422.224 138.298 422.069 138.544 421.832 138.727C421.595 138.909 421.322 139 421.012 139H418.988C418.678 139 418.405 138.909 418.168 138.727C417.931 138.544 417.776 138.298 417.703 137.988L417.484 137.113C417.266 137.004 417.047 136.876 416.828 136.73L415.926 136.977C415.634 137.068 415.352 137.059 415.078 136.949C414.823 136.84 414.613 136.648 414.449 136.375L413.438 134.625C413.273 134.352 413.219 134.069 413.273 133.777C413.31 133.486 413.438 133.23 413.656 133.012L414.312 132.383C414.312 132.255 414.312 132.118 414.312 131.973C414.312 131.863 414.312 131.736 414.312 131.59L413.656 130.988C413.438 130.77 413.31 130.514 413.273 130.223C413.219 129.931 413.273 129.648 413.438 129.375L414.449 127.625C414.613 127.352 414.823 127.16 415.078 127.051C415.352 126.941 415.634 126.932 415.926 127.023L416.828 127.27C417.047 127.124 417.266 126.996 417.484 126.887L417.703 126.012C417.776 125.702 417.931 125.456 418.168 125.273C418.405 125.091 418.678 125 418.988 125H421.012ZM418.633 127.844L418.305 127.953C417.958 128.099 417.639 128.29 417.348 128.527L417.074 128.719L415.57 128.281L414.559 130.031L415.707 131.125L415.652 131.453C415.634 131.635 415.625 131.818 415.625 132C415.625 132.182 415.634 132.365 415.652 132.547L415.707 132.875L414.559 133.969L415.57 135.719L417.074 135.281L417.348 135.473C417.639 135.71 417.958 135.901 418.305 136.047L418.633 136.156L418.988 137.688H421.012L421.395 136.156L421.695 136.047C422.042 135.901 422.361 135.71 422.652 135.473L422.926 135.281L424.43 135.719L425.441 133.969L424.293 132.875L424.348 132.547C424.366 132.365 424.375 132.182 424.375 132C424.375 131.818 424.366 131.635 424.348 131.453L424.293 131.125L425.441 130.031L424.43 128.281L422.926 128.719L422.652 128.527C422.361 128.29 422.042 128.099 421.695 127.953L421.395 127.844L421.012 126.312H418.988L418.633 127.844Z" fill="#505050"/>
<path d="M444.188 131.087V131.671C444.188 132.365 444.102 132.987 443.928 133.537C443.755 134.087 443.505 134.555 443.179 134.94C442.853 135.325 442.462 135.619 442.005 135.822C441.552 136.025 441.044 136.127 440.481 136.127C439.936 136.127 439.434 136.025 438.977 135.822C438.524 135.619 438.131 135.325 437.796 134.94C437.466 134.555 437.21 134.087 437.028 133.537C436.846 132.987 436.755 132.365 436.755 131.671V131.087C436.755 130.393 436.844 129.773 437.022 129.227C437.204 128.677 437.46 128.209 437.79 127.824C438.12 127.435 438.512 127.139 438.964 126.936C439.421 126.732 439.923 126.631 440.469 126.631C441.032 126.631 441.539 126.732 441.992 126.936C442.449 127.139 442.841 127.435 443.167 127.824C443.497 128.209 443.748 128.677 443.922 129.227C444.1 129.773 444.188 130.393 444.188 131.087ZM442.976 131.671V131.074C442.976 130.524 442.919 130.037 442.805 129.614C442.695 129.191 442.532 128.836 442.316 128.548C442.1 128.26 441.836 128.042 441.522 127.894C441.214 127.746 440.862 127.672 440.469 127.672C440.088 127.672 439.743 127.746 439.434 127.894C439.129 128.042 438.867 128.26 438.647 128.548C438.431 128.836 438.264 129.191 438.146 129.614C438.027 130.037 437.968 130.524 437.968 131.074V131.671C437.968 132.225 438.027 132.716 438.146 133.144C438.264 133.567 438.433 133.924 438.653 134.216C438.878 134.504 439.142 134.722 439.447 134.87C439.756 135.018 440.101 135.092 440.481 135.092C440.879 135.092 441.233 135.018 441.542 134.87C441.85 134.722 442.111 134.504 442.322 134.216C442.538 133.924 442.701 133.567 442.811 133.144C442.921 132.716 442.976 132.225 442.976 131.671ZM447.02 130.452V138.641H445.839V129.132H446.918L447.02 130.452ZM451.647 132.509V132.642C451.647 133.141 451.588 133.605 451.469 134.032C451.351 134.455 451.177 134.824 450.949 135.137C450.724 135.45 450.447 135.693 450.117 135.867C449.787 136.04 449.408 136.127 448.981 136.127C448.545 136.127 448.16 136.055 447.826 135.911C447.491 135.767 447.208 135.558 446.975 135.283C446.742 135.008 446.556 134.678 446.417 134.292C446.281 133.907 446.188 133.474 446.137 132.991V132.28C446.188 131.772 446.283 131.318 446.423 130.916C446.562 130.514 446.747 130.171 446.975 129.887C447.208 129.599 447.489 129.382 447.819 129.233C448.149 129.081 448.53 129.005 448.962 129.005C449.394 129.005 449.777 129.09 450.111 129.259C450.445 129.424 450.727 129.661 450.955 129.97C451.184 130.279 451.355 130.649 451.469 131.081C451.588 131.508 451.647 131.984 451.647 132.509ZM450.466 132.642V132.509C450.466 132.166 450.43 131.844 450.358 131.544C450.286 131.239 450.174 130.973 450.022 130.744C449.874 130.511 449.683 130.329 449.451 130.198C449.218 130.063 448.941 129.995 448.619 129.995C448.323 129.995 448.065 130.046 447.845 130.147C447.629 130.249 447.445 130.387 447.292 130.56C447.14 130.729 447.015 130.924 446.918 131.144C446.825 131.36 446.755 131.584 446.708 131.817V133.461C446.793 133.757 446.912 134.036 447.064 134.299C447.216 134.557 447.419 134.766 447.673 134.927C447.927 135.084 448.247 135.162 448.632 135.162C448.949 135.162 449.222 135.097 449.451 134.965C449.683 134.83 449.874 134.646 450.022 134.413C450.174 134.18 450.286 133.914 450.358 133.613C450.43 133.309 450.466 132.985 450.466 132.642ZM456.021 129.132V130.033H452.307V129.132H456.021ZM453.564 127.462H454.738V134.299C454.738 134.532 454.774 134.707 454.846 134.826C454.918 134.944 455.011 135.022 455.125 135.061C455.24 135.099 455.362 135.118 455.494 135.118C455.591 135.118 455.693 135.109 455.798 135.092C455.908 135.071 455.991 135.054 456.046 135.042L456.052 136C455.959 136.03 455.836 136.057 455.684 136.083C455.536 136.112 455.356 136.127 455.145 136.127C454.857 136.127 454.592 136.07 454.351 135.956C454.11 135.841 453.917 135.651 453.773 135.384C453.634 135.113 453.564 134.75 453.564 134.292V127.462ZM458.674 129.132V136H457.493V129.132H458.674ZM457.404 127.31C457.404 127.12 457.461 126.959 457.576 126.828C457.694 126.696 457.868 126.631 458.096 126.631C458.32 126.631 458.492 126.696 458.61 126.828C458.733 126.959 458.794 127.12 458.794 127.31C458.794 127.492 458.733 127.649 458.61 127.78C458.492 127.907 458.32 127.97 458.096 127.97C457.868 127.97 457.694 127.907 457.576 127.78C457.461 127.649 457.404 127.492 457.404 127.31ZM460.248 132.642V132.496C460.248 132.001 460.32 131.542 460.464 131.119C460.608 130.691 460.815 130.321 461.086 130.008C461.357 129.69 461.685 129.445 462.07 129.271C462.455 129.094 462.887 129.005 463.365 129.005C463.847 129.005 464.281 129.094 464.666 129.271C465.055 129.445 465.385 129.69 465.656 130.008C465.931 130.321 466.141 130.691 466.285 131.119C466.429 131.542 466.5 132.001 466.5 132.496V132.642C466.5 133.137 466.429 133.596 466.285 134.02C466.141 134.443 465.931 134.813 465.656 135.13C465.385 135.444 465.057 135.689 464.672 135.867C464.292 136.04 463.86 136.127 463.377 136.127C462.895 136.127 462.461 136.04 462.076 135.867C461.691 135.689 461.361 135.444 461.086 135.13C460.815 134.813 460.608 134.443 460.464 134.02C460.32 133.596 460.248 133.137 460.248 132.642ZM461.422 132.496V132.642C461.422 132.985 461.463 133.309 461.543 133.613C461.623 133.914 461.744 134.18 461.905 134.413C462.07 134.646 462.275 134.83 462.521 134.965C462.766 135.097 463.052 135.162 463.377 135.162C463.699 135.162 463.98 135.097 464.222 134.965C464.467 134.83 464.67 134.646 464.831 134.413C464.992 134.18 465.112 133.914 465.193 133.613C465.278 133.309 465.32 132.985 465.32 132.642V132.496C465.32 132.158 465.278 131.838 465.193 131.538C465.112 131.233 464.99 130.964 464.825 130.731C464.664 130.494 464.461 130.308 464.215 130.173C463.974 130.037 463.691 129.97 463.365 129.97C463.043 129.97 462.76 130.037 462.514 130.173C462.273 130.308 462.07 130.494 461.905 130.731C461.744 130.964 461.623 131.233 461.543 131.538C461.463 131.838 461.422 132.158 461.422 132.496ZM469.147 130.598V136H467.973V129.132H469.084L469.147 130.598ZM468.868 132.306L468.379 132.287C468.384 131.817 468.453 131.383 468.589 130.985C468.724 130.583 468.915 130.234 469.16 129.938C469.406 129.642 469.698 129.413 470.036 129.252C470.379 129.087 470.758 129.005 471.172 129.005C471.511 129.005 471.816 129.051 472.086 129.145C472.357 129.233 472.588 129.377 472.778 129.576C472.973 129.775 473.121 130.033 473.223 130.351C473.324 130.664 473.375 131.047 473.375 131.5V136H472.194V131.487C472.194 131.127 472.141 130.839 472.036 130.624C471.93 130.403 471.775 130.245 471.572 130.147C471.369 130.046 471.119 129.995 470.823 129.995C470.531 129.995 470.265 130.056 470.023 130.179C469.786 130.302 469.581 130.471 469.408 130.687C469.238 130.903 469.105 131.15 469.008 131.43C468.915 131.705 468.868 131.997 468.868 132.306ZM485.677 131.087V131.671C485.677 132.365 485.59 132.987 485.417 133.537C485.243 134.087 484.993 134.555 484.667 134.94C484.342 135.325 483.95 135.619 483.493 135.822C483.04 136.025 482.533 136.127 481.97 136.127C481.424 136.127 480.922 136.025 480.465 135.822C480.013 135.619 479.619 135.325 479.285 134.94C478.955 134.555 478.699 134.087 478.517 133.537C478.335 132.987 478.244 132.365 478.244 131.671V131.087C478.244 130.393 478.333 129.773 478.51 129.227C478.692 128.677 478.948 128.209 479.278 127.824C479.608 127.435 480 127.139 480.453 126.936C480.91 126.732 481.411 126.631 481.957 126.631C482.52 126.631 483.028 126.732 483.48 126.936C483.938 127.139 484.329 127.435 484.655 127.824C484.985 128.209 485.237 128.677 485.41 129.227C485.588 129.773 485.677 130.393 485.677 131.087ZM484.464 131.671V131.074C484.464 130.524 484.407 130.037 484.293 129.614C484.183 129.191 484.02 128.836 483.804 128.548C483.588 128.26 483.324 128.042 483.011 127.894C482.702 127.746 482.351 127.672 481.957 127.672C481.576 127.672 481.231 127.746 480.922 127.894C480.618 128.042 480.355 128.26 480.135 128.548C479.919 128.836 479.752 129.191 479.634 129.614C479.515 130.037 479.456 130.524 479.456 131.074V131.671C479.456 132.225 479.515 132.716 479.634 133.144C479.752 133.567 479.922 133.924 480.142 134.216C480.366 134.504 480.63 134.722 480.935 134.87C481.244 135.018 481.589 135.092 481.97 135.092C482.368 135.092 482.721 135.018 483.03 134.87C483.339 134.722 483.599 134.504 483.811 134.216C484.026 133.924 484.189 133.567 484.299 133.144C484.409 132.716 484.464 132.225 484.464 131.671ZM488.508 130.598V136H487.333V129.132H488.444L488.508 130.598ZM488.229 132.306L487.74 132.287C487.744 131.817 487.814 131.383 487.949 130.985C488.085 130.583 488.275 130.234 488.521 129.938C488.766 129.642 489.058 129.413 489.396 129.252C489.739 129.087 490.118 129.005 490.533 129.005C490.871 129.005 491.176 129.051 491.447 129.145C491.718 129.233 491.948 129.377 492.139 129.576C492.333 129.775 492.481 130.033 492.583 130.351C492.685 130.664 492.735 131.047 492.735 131.5V136H491.555V131.487C491.555 131.127 491.502 130.839 491.396 130.624C491.29 130.403 491.136 130.245 490.933 130.147C490.729 130.046 490.48 129.995 490.184 129.995C489.892 129.995 489.625 130.056 489.384 130.179C489.147 130.302 488.942 130.471 488.768 130.687C488.599 130.903 488.465 131.15 488.368 131.43C488.275 131.705 488.229 131.997 488.229 132.306ZM497.369 136.127C496.891 136.127 496.457 136.047 496.068 135.886C495.683 135.721 495.351 135.49 495.071 135.194C494.796 134.898 494.585 134.546 494.437 134.14C494.288 133.734 494.214 133.29 494.214 132.807V132.541C494.214 131.982 494.297 131.485 494.462 131.049C494.627 130.609 494.851 130.236 495.135 129.932C495.418 129.627 495.74 129.396 496.1 129.24C496.459 129.083 496.832 129.005 497.217 129.005C497.708 129.005 498.131 129.09 498.486 129.259C498.846 129.428 499.14 129.665 499.369 129.97C499.597 130.27 499.766 130.626 499.876 131.036C499.986 131.442 500.042 131.887 500.042 132.369V132.896H494.913V131.938H498.867V131.849C498.85 131.544 498.787 131.248 498.677 130.96C498.571 130.672 498.402 130.435 498.169 130.249C497.936 130.063 497.619 129.97 497.217 129.97C496.95 129.97 496.705 130.027 496.48 130.141C496.256 130.251 496.064 130.416 495.903 130.636C495.742 130.856 495.617 131.125 495.528 131.442C495.439 131.76 495.395 132.126 495.395 132.541V132.807C495.395 133.133 495.439 133.44 495.528 133.728C495.621 134.011 495.755 134.261 495.928 134.477C496.106 134.692 496.32 134.862 496.569 134.984C496.823 135.107 497.111 135.168 497.433 135.168C497.847 135.168 498.199 135.084 498.486 134.915C498.774 134.745 499.026 134.519 499.242 134.235L499.953 134.8C499.805 135.025 499.616 135.238 499.388 135.441C499.159 135.645 498.878 135.81 498.543 135.937C498.213 136.063 497.822 136.127 497.369 136.127Z" fill="#505050"/>
<path d="M417.375 164C417.393 163.253 417.648 162.633 418.141 162.141C418.633 161.648 419.253 161.393 420 161.375C420.747 161.393 421.367 161.648 421.859 162.141C422.352 162.633 422.607 163.253 422.625 164C422.607 164.747 422.352 165.367 421.859 165.859C421.367 166.352 420.747 166.607 420 166.625C419.253 166.607 418.633 166.352 418.141 165.859C417.648 165.367 417.393 164.747 417.375 164ZM420 162.688C419.635 162.706 419.326 162.833 419.07 163.07C418.833 163.326 418.706 163.635 418.688 164C418.706 164.365 418.833 164.674 419.07 164.93C419.326 165.167 419.635 165.294 420 165.312C420.365 165.294 420.674 165.167 420.93 164.93C421.167 164.674 421.294 164.365 421.312 164C421.294 163.635 421.167 163.326 420.93 163.07C420.674 162.833 420.365 162.706 420 162.688ZM421.012 157C421.322 157 421.595 157.091 421.832 157.273C422.069 157.456 422.224 157.702 422.297 158.012L422.516 158.887C422.734 158.996 422.953 159.124 423.172 159.27L424.047 159.023C424.339 158.932 424.621 158.941 424.895 159.051C425.168 159.16 425.387 159.352 425.551 159.625L426.562 161.375C426.708 161.648 426.763 161.931 426.727 162.223C426.69 162.514 426.562 162.77 426.344 162.988L425.688 163.59C425.688 163.736 425.688 163.872 425.688 164C425.688 164.128 425.688 164.255 425.688 164.383L426.344 165.012C426.562 165.23 426.69 165.486 426.727 165.777C426.763 166.069 426.708 166.352 426.562 166.625L425.551 168.375C425.387 168.648 425.168 168.84 424.895 168.949C424.621 169.059 424.339 169.068 424.047 168.977L423.172 168.73C422.953 168.858 422.734 168.986 422.516 169.113L422.297 169.988C422.224 170.298 422.069 170.544 421.832 170.727C421.595 170.909 421.322 171 421.012 171H418.988C418.678 171 418.405 170.909 418.168 170.727C417.931 170.544 417.776 170.298 417.703 169.988L417.484 169.113C417.266 169.004 417.047 168.876 416.828 168.73L415.926 168.977C415.634 169.068 415.352 169.059 415.078 168.949C414.823 168.84 414.613 168.648 414.449 168.375L413.438 166.625C413.273 166.352 413.219 166.069 413.273 165.777C413.31 165.486 413.438 165.23 413.656 165.012L414.312 164.383C414.312 164.255 414.312 164.118 414.312 163.973C414.312 163.863 414.312 163.736 414.312 163.59L413.656 162.988C413.438 162.77 413.31 162.514 413.273 162.223C413.219 161.931 413.273 161.648 413.438 161.375L414.449 159.625C414.613 159.352 414.823 159.16 415.078 159.051C415.352 158.941 415.634 158.932 415.926 159.023L416.828 159.27C417.047 159.124 417.266 158.996 417.484 158.887L417.703 158.012C417.776 157.702 417.931 157.456 418.168 157.273C418.405 157.091 418.678 157 418.988 157H421.012ZM418.633 159.844L418.305 159.953C417.958 160.099 417.639 160.29 417.348 160.527L417.074 160.719L415.57 160.281L414.559 162.031L415.707 163.125L415.652 163.453C415.634 163.635 415.625 163.818 415.625 164C415.625 164.182 415.634 164.365 415.652 164.547L415.707 164.875L414.559 165.969L415.57 167.719L417.074 167.281L417.348 167.473C417.639 167.71 417.958 167.901 418.305 168.047L418.633 168.156L418.988 169.688H421.012L421.395 168.156L421.695 168.047C422.042 167.901 422.361 167.71 422.652 167.473L422.926 167.281L424.43 167.719L425.441 165.969L424.293 164.875L424.348 164.547C424.366 164.365 424.375 164.182 424.375 164C424.375 163.818 424.366 163.635 424.348 163.453L424.293 163.125L425.441 162.031L424.43 160.281L422.926 160.719L422.652 160.527C422.361 160.29 422.042 160.099 421.695 159.953L421.395 159.844L421.012 158.312H418.988L418.633 159.844Z" fill="#505050"/>
<path d="M444.188 163.087V163.671C444.188 164.365 444.102 164.987 443.928 165.537C443.755 166.087 443.505 166.555 443.179 166.94C442.853 167.325 442.462 167.619 442.005 167.822C441.552 168.025 441.044 168.127 440.481 168.127C439.936 168.127 439.434 168.025 438.977 167.822C438.524 167.619 438.131 167.325 437.796 166.94C437.466 166.555 437.21 166.087 437.028 165.537C436.846 164.987 436.755 164.365 436.755 163.671V163.087C436.755 162.393 436.844 161.773 437.022 161.227C437.204 160.677 437.46 160.209 437.79 159.824C438.12 159.435 438.512 159.139 438.964 158.936C439.421 158.732 439.923 158.631 440.469 158.631C441.032 158.631 441.539 158.732 441.992 158.936C442.449 159.139 442.841 159.435 443.167 159.824C443.497 160.209 443.748 160.677 443.922 161.227C444.1 161.773 444.188 162.393 444.188 163.087ZM442.976 163.671V163.074C442.976 162.524 442.919 162.037 442.805 161.614C442.695 161.191 442.532 160.836 442.316 160.548C442.1 160.26 441.836 160.042 441.522 159.894C441.214 159.746 440.862 159.672 440.469 159.672C440.088 159.672 439.743 159.746 439.434 159.894C439.129 160.042 438.867 160.26 438.647 160.548C438.431 160.836 438.264 161.191 438.146 161.614C438.027 162.037 437.968 162.524 437.968 163.074V163.671C437.968 164.225 438.027 164.716 438.146 165.144C438.264 165.567 438.433 165.924 438.653 166.216C438.878 166.504 439.142 166.722 439.447 166.87C439.756 167.018 440.101 167.092 440.481 167.092C440.879 167.092 441.233 167.018 441.542 166.87C441.85 166.722 442.111 166.504 442.322 166.216C442.538 165.924 442.701 165.567 442.811 165.144C442.921 164.716 442.976 164.225 442.976 163.671ZM447.02 162.452V170.641H445.839V161.132H446.918L447.02 162.452ZM451.647 164.509V164.642C451.647 165.141 451.588 165.605 451.469 166.032C451.351 166.455 451.177 166.824 450.949 167.137C450.724 167.45 450.447 167.693 450.117 167.867C449.787 168.04 449.408 168.127 448.981 168.127C448.545 168.127 448.16 168.055 447.826 167.911C447.491 167.767 447.208 167.558 446.975 167.283C446.742 167.008 446.556 166.678 446.417 166.292C446.281 165.907 446.188 165.474 446.137 164.991V164.28C446.188 163.772 446.283 163.318 446.423 162.916C446.562 162.514 446.747 162.171 446.975 161.887C447.208 161.599 447.489 161.382 447.819 161.233C448.149 161.081 448.53 161.005 448.962 161.005C449.394 161.005 449.777 161.09 450.111 161.259C450.445 161.424 450.727 161.661 450.955 161.97C451.184 162.279 451.355 162.649 451.469 163.081C451.588 163.508 451.647 163.984 451.647 164.509ZM450.466 164.642V164.509C450.466 164.166 450.43 163.844 450.358 163.544C450.286 163.239 450.174 162.973 450.022 162.744C449.874 162.511 449.683 162.329 449.451 162.198C449.218 162.063 448.941 161.995 448.619 161.995C448.323 161.995 448.065 162.046 447.845 162.147C447.629 162.249 447.445 162.387 447.292 162.56C447.14 162.729 447.015 162.924 446.918 163.144C446.825 163.36 446.755 163.584 446.708 163.817V165.461C446.793 165.757 446.912 166.036 447.064 166.299C447.216 166.557 447.419 166.766 447.673 166.927C447.927 167.084 448.247 167.162 448.632 167.162C448.949 167.162 449.222 167.097 449.451 166.965C449.683 166.83 449.874 166.646 450.022 166.413C450.174 166.18 450.286 165.914 450.358 165.613C450.43 165.309 450.466 164.985 450.466 164.642ZM456.021 161.132V162.033H452.307V161.132H456.021ZM453.564 159.462H454.738V166.299C454.738 166.532 454.774 166.707 454.846 166.826C454.918 166.944 455.011 167.022 455.125 167.061C455.24 167.099 455.362 167.118 455.494 167.118C455.591 167.118 455.693 167.109 455.798 167.092C455.908 167.071 455.991 167.054 456.046 167.042L456.052 168C455.959 168.03 455.836 168.057 455.684 168.083C455.536 168.112 455.356 168.127 455.145 168.127C454.857 168.127 454.592 168.07 454.351 167.956C454.11 167.841 453.917 167.651 453.773 167.384C453.634 167.113 453.564 166.75 453.564 166.292V159.462ZM458.674 161.132V168H457.493V161.132H458.674ZM457.404 159.31C457.404 159.12 457.461 158.959 457.576 158.828C457.694 158.696 457.868 158.631 458.096 158.631C458.32 158.631 458.492 158.696 458.61 158.828C458.733 158.959 458.794 159.12 458.794 159.31C458.794 159.492 458.733 159.649 458.61 159.78C458.492 159.907 458.32 159.97 458.096 159.97C457.868 159.97 457.694 159.907 457.576 159.78C457.461 159.649 457.404 159.492 457.404 159.31ZM460.248 164.642V164.496C460.248 164.001 460.32 163.542 460.464 163.119C460.608 162.691 460.815 162.321 461.086 162.008C461.357 161.69 461.685 161.445 462.07 161.271C462.455 161.094 462.887 161.005 463.365 161.005C463.847 161.005 464.281 161.094 464.666 161.271C465.055 161.445 465.385 161.69 465.656 162.008C465.931 162.321 466.141 162.691 466.285 163.119C466.429 163.542 466.5 164.001 466.5 164.496V164.642C466.5 165.137 466.429 165.596 466.285 166.02C466.141 166.443 465.931 166.813 465.656 167.13C465.385 167.444 465.057 167.689 464.672 167.867C464.292 168.04 463.86 168.127 463.377 168.127C462.895 168.127 462.461 168.04 462.076 167.867C461.691 167.689 461.361 167.444 461.086 167.13C460.815 166.813 460.608 166.443 460.464 166.02C460.32 165.596 460.248 165.137 460.248 164.642ZM461.422 164.496V164.642C461.422 164.985 461.463 165.309 461.543 165.613C461.623 165.914 461.744 166.18 461.905 166.413C462.07 166.646 462.275 166.83 462.521 166.965C462.766 167.097 463.052 167.162 463.377 167.162C463.699 167.162 463.98 167.097 464.222 166.965C464.467 166.83 464.67 166.646 464.831 166.413C464.992 166.18 465.112 165.914 465.193 165.613C465.278 165.309 465.32 164.985 465.32 164.642V164.496C465.32 164.158 465.278 163.838 465.193 163.538C465.112 163.233 464.99 162.964 464.825 162.731C464.664 162.494 464.461 162.308 464.215 162.173C463.974 162.037 463.691 161.97 463.365 161.97C463.043 161.97 462.76 162.037 462.514 162.173C462.273 162.308 462.07 162.494 461.905 162.731C461.744 162.964 461.623 163.233 461.543 163.538C461.463 163.838 461.422 164.158 461.422 164.496ZM469.147 162.598V168H467.973V161.132H469.084L469.147 162.598ZM468.868 164.306L468.379 164.287C468.384 163.817 468.453 163.383 468.589 162.985C468.724 162.583 468.915 162.234 469.16 161.938C469.406 161.642 469.698 161.413 470.036 161.252C470.379 161.087 470.758 161.005 471.172 161.005C471.511 161.005 471.816 161.051 472.086 161.145C472.357 161.233 472.588 161.377 472.778 161.576C472.973 161.775 473.121 162.033 473.223 162.351C473.324 162.664 473.375 163.047 473.375 163.5V168H472.194V163.487C472.194 163.127 472.141 162.839 472.036 162.624C471.93 162.403 471.775 162.245 471.572 162.147C471.369 162.046 471.119 161.995 470.823 161.995C470.531 161.995 470.265 162.056 470.023 162.179C469.786 162.302 469.581 162.471 469.408 162.687C469.238 162.903 469.105 163.15 469.008 163.43C468.915 163.705 468.868 163.997 468.868 164.306ZM481.722 158.758V168H480.516V158.758H481.722ZM484.693 158.758V159.761H477.552V158.758H484.693ZM487.257 166.781L489.022 161.132H489.796L489.644 162.255L487.848 168H487.092L487.257 166.781ZM486.07 161.132L487.575 166.845L487.683 168H486.889L484.896 161.132H486.07ZM491.485 166.8L492.919 161.132H494.087L492.094 168H491.307L491.485 166.8ZM489.968 161.132L491.694 166.686L491.891 168H491.142L489.295 162.243L489.143 161.132H489.968ZM494.982 164.642V164.496C494.982 164.001 495.054 163.542 495.198 163.119C495.342 162.691 495.549 162.321 495.82 162.008C496.091 161.69 496.419 161.445 496.804 161.271C497.189 161.094 497.621 161.005 498.099 161.005C498.582 161.005 499.015 161.094 499.4 161.271C499.79 161.445 500.12 161.69 500.391 162.008C500.666 162.321 500.875 162.691 501.019 163.119C501.163 163.542 501.235 164.001 501.235 164.496V164.642C501.235 165.137 501.163 165.596 501.019 166.02C500.875 166.443 500.666 166.813 500.391 167.13C500.12 167.444 499.792 167.689 499.407 167.867C499.026 168.04 498.594 168.127 498.112 168.127C497.629 168.127 497.196 168.04 496.811 167.867C496.425 167.689 496.095 167.444 495.82 167.13C495.549 166.813 495.342 166.443 495.198 166.02C495.054 165.596 494.982 165.137 494.982 164.642ZM496.157 164.496V164.642C496.157 164.985 496.197 165.309 496.277 165.613C496.358 165.914 496.478 166.18 496.639 166.413C496.804 166.646 497.009 166.83 497.255 166.965C497.5 167.097 497.786 167.162 498.112 167.162C498.433 167.162 498.715 167.097 498.956 166.965C499.201 166.83 499.405 166.646 499.565 166.413C499.726 166.18 499.847 165.914 499.927 165.613C500.012 165.309 500.054 164.985 500.054 164.642V164.496C500.054 164.158 500.012 163.838 499.927 163.538C499.847 163.233 499.724 162.964 499.559 162.731C499.398 162.494 499.195 162.308 498.95 162.173C498.708 162.037 498.425 161.97 498.099 161.97C497.778 161.97 497.494 162.037 497.249 162.173C497.007 162.308 496.804 162.494 496.639 162.731C496.478 162.964 496.358 163.233 496.277 163.538C496.197 163.838 496.157 164.158 496.157 164.496Z" fill="#505050"/>
</g>
<path d="M403.764 55.5425V57H398.41V55.5425H403.764ZM398.922 46.3359V57H397.084V46.3359H398.922ZM409.477 55.4106V51.6313C409.477 51.3481 409.425 51.104 409.323 50.8989C409.22 50.6938 409.064 50.5352 408.854 50.4229C408.649 50.3105 408.39 50.2544 408.078 50.2544C407.79 50.2544 407.541 50.3032 407.331 50.4009C407.121 50.4985 406.957 50.6304 406.84 50.7964C406.723 50.9624 406.664 51.1504 406.664 51.3604H404.906C404.906 51.0479 404.982 50.7451 405.133 50.4521C405.285 50.1592 405.504 49.8979 405.792 49.6685C406.081 49.439 406.425 49.2583 406.825 49.1265C407.226 48.9946 407.675 48.9287 408.173 48.9287C408.769 48.9287 409.296 49.0288 409.755 49.229C410.219 49.4292 410.583 49.7319 410.846 50.1372C411.115 50.5376 411.249 51.0405 411.249 51.646V55.1689C411.249 55.5303 411.273 55.855 411.322 56.1431C411.376 56.4263 411.452 56.6729 411.549 56.8828V57H409.74C409.657 56.8096 409.591 56.5679 409.542 56.2749C409.499 55.9771 409.477 55.689 409.477 55.4106ZM409.733 52.1807L409.748 53.272H408.48C408.153 53.272 407.865 53.3037 407.616 53.3672C407.367 53.4258 407.16 53.5137 406.994 53.6309C406.828 53.748 406.703 53.8896 406.62 54.0557C406.537 54.2217 406.496 54.4097 406.496 54.6196C406.496 54.8296 406.544 55.0225 406.642 55.1982C406.74 55.3691 406.881 55.5034 407.067 55.6011C407.257 55.6987 407.487 55.7476 407.755 55.7476C408.117 55.7476 408.432 55.6743 408.7 55.5278C408.974 55.3765 409.188 55.1934 409.345 54.9785C409.501 54.7588 409.584 54.5513 409.594 54.356L410.165 55.1396C410.106 55.3398 410.006 55.5547 409.865 55.7842C409.723 56.0137 409.538 56.2334 409.308 56.4434C409.083 56.6484 408.812 56.8169 408.495 56.9487C408.183 57.0806 407.821 57.1465 407.411 57.1465C406.894 57.1465 406.432 57.0439 406.027 56.8389C405.622 56.6289 405.304 56.3481 405.075 55.9966C404.845 55.6401 404.73 55.2373 404.73 54.7881C404.73 54.3682 404.809 53.9971 404.965 53.6748C405.126 53.3477 405.36 53.0742 405.668 52.8545C405.98 52.6348 406.361 52.4688 406.811 52.3564C407.26 52.2393 407.772 52.1807 408.349 52.1807H409.733ZM413.102 45.75H414.867V55.3081L414.699 57H413.102V45.75ZM420.038 52.9644V53.1182C420.038 53.7041 419.972 54.2437 419.84 54.7368C419.713 55.2251 419.518 55.6499 419.254 56.0112C418.996 56.3726 418.673 56.6533 418.288 56.8535C417.907 57.0488 417.465 57.1465 416.962 57.1465C416.469 57.1465 416.039 57.0537 415.673 56.8682C415.307 56.6826 414.999 56.4189 414.75 56.0771C414.506 55.7354 414.308 55.3276 414.157 54.854C414.005 54.3804 413.898 53.8579 413.834 53.2866V52.7959C413.898 52.2197 414.005 51.6973 414.157 51.2285C414.308 50.7549 414.506 50.3472 414.75 50.0054C414.999 49.6587 415.304 49.3926 415.666 49.207C416.032 49.0215 416.459 48.9287 416.947 48.9287C417.455 48.9287 417.902 49.0264 418.288 49.2217C418.678 49.417 419.003 49.6953 419.262 50.0566C419.521 50.4131 419.713 50.8379 419.84 51.3311C419.972 51.8242 420.038 52.3687 420.038 52.9644ZM418.273 53.1182V52.9644C418.273 52.6079 418.244 52.2734 418.185 51.9609C418.126 51.6436 418.029 51.3652 417.892 51.126C417.76 50.8867 417.58 50.6987 417.35 50.562C417.125 50.4204 416.845 50.3496 416.508 50.3496C416.195 50.3496 415.927 50.4033 415.702 50.5107C415.478 50.6182 415.29 50.7646 415.138 50.9502C414.987 51.1357 414.867 51.3506 414.779 51.5947C414.696 51.8389 414.64 52.1025 414.611 52.3857V53.7114C414.655 54.0776 414.748 54.4146 414.889 54.7222C415.036 55.0249 415.241 55.269 415.504 55.4546C415.768 55.6353 416.107 55.7256 416.522 55.7256C416.85 55.7256 417.125 55.6597 417.35 55.5278C417.575 55.396 417.753 55.2129 417.885 54.9785C418.021 54.7393 418.119 54.4609 418.178 54.1436C418.241 53.8262 418.273 53.4844 418.273 53.1182ZM425.026 57.1465C424.44 57.1465 423.91 57.0513 423.437 56.8608C422.968 56.6655 422.567 56.3945 422.235 56.0479C421.908 55.7012 421.657 55.2935 421.481 54.8247C421.305 54.356 421.217 53.8506 421.217 53.3086V53.0156C421.217 52.3955 421.308 51.834 421.488 51.3311C421.669 50.8281 421.92 50.3984 422.243 50.042C422.565 49.6807 422.946 49.4048 423.385 49.2144C423.825 49.0239 424.301 48.9287 424.813 48.9287C425.38 48.9287 425.875 49.0239 426.3 49.2144C426.725 49.4048 427.077 49.6733 427.355 50.02C427.638 50.3618 427.848 50.7695 427.985 51.2432C428.126 51.7168 428.197 52.2393 428.197 52.8105V53.5649H422.074V52.2979H426.454V52.1587C426.444 51.8413 426.381 51.5435 426.264 51.2651C426.151 50.9868 425.978 50.7622 425.744 50.5913C425.509 50.4204 425.197 50.335 424.806 50.335C424.513 50.335 424.252 50.3984 424.022 50.5254C423.798 50.6475 423.61 50.8257 423.458 51.0601C423.307 51.2944 423.19 51.5776 423.107 51.9097C423.029 52.2368 422.99 52.6055 422.99 53.0156V53.3086C422.99 53.6553 423.036 53.9775 423.129 54.2754C423.227 54.5684 423.368 54.8247 423.554 55.0444C423.739 55.2642 423.964 55.4375 424.228 55.5645C424.491 55.6865 424.792 55.7476 425.128 55.7476C425.553 55.7476 425.932 55.6621 426.264 55.4912C426.596 55.3203 426.884 55.0786 427.128 54.7661L428.058 55.667C427.887 55.916 427.665 56.1553 427.392 56.3848C427.118 56.6094 426.784 56.7925 426.388 56.9341C425.998 57.0757 425.543 57.1465 425.026 57.1465ZM431.464 45.75V57H429.691V45.75H431.464Z" fill="#505050"/>
<g filter="url(#filter1_ddd_13346_62186)">
<rect x="724" y="104" width="160" height="144" rx="8" fill="white"/>
<path fill-rule="evenodd" clip-rule="evenodd" d="M744 131.068C745.684 131.068 747.049 129.703 747.049 128.019C747.049 126.335 745.684 124.969 744 124.969C742.316 124.969 740.951 126.335 740.951 128.019C740.951 129.703 742.316 131.068 744 131.068ZM744 129.849C745.01 129.849 745.83 129.029 745.83 128.019C745.83 127.008 745.01 126.189 744 126.189H743.995C743.998 126.234 744 126.279 744 126.325C744 127.26 743.242 128.019 742.306 128.019C742.26 128.019 742.215 128.017 742.17 128.014V128.019C742.17 129.029 742.99 129.849 744 129.849Z" fill="#505050"/>
<path fill-rule="evenodd" clip-rule="evenodd" d="M744.012 122.75L744 122.75L743.988 122.75C743.048 122.769 742.178 122.961 741.388 123.336C740.623 123.681 739.941 124.142 739.345 124.718C738.806 125.219 738.345 125.745 737.965 126.296L737.963 126.3C737.614 126.815 737.331 127.303 737.119 127.765L737 128.024L737.123 128.282C737.332 128.719 737.612 129.203 737.957 129.73L737.961 129.736L737.965 129.742C738.345 130.293 738.806 130.818 739.345 131.32C739.941 131.896 740.623 132.357 741.388 132.702C742.178 133.076 743.048 133.268 743.988 133.288L744 133.288L744.012 133.288C744.952 133.268 745.822 133.076 746.612 132.702C747.377 132.357 748.059 131.896 748.655 131.32C749.194 130.818 749.648 130.29 750.012 129.736C750.375 129.209 750.666 128.724 750.877 128.282L751 128.024L750.881 127.765C750.668 127.3 750.375 126.811 750.009 126.298C749.646 125.745 749.193 125.219 748.655 124.718C748.059 124.142 747.377 123.681 746.612 123.336C745.822 122.961 744.952 122.769 744.012 122.75ZM741.906 124.44C742.522 124.147 743.217 123.988 744 123.97C744.783 123.988 745.478 124.147 746.094 124.44L746.1 124.443L746.106 124.446C746.748 124.735 747.316 125.119 747.811 125.598L747.815 125.602L747.82 125.606C748.301 126.054 748.691 126.511 748.996 126.977L749.003 126.987L749.01 126.997C749.272 127.364 749.483 127.703 749.645 128.014C749.481 128.321 749.268 128.666 749.004 129.049L749 129.055L748.996 129.061C748.691 129.527 748.301 129.984 747.82 130.431L747.815 130.435L747.811 130.44C747.316 130.919 746.748 131.303 746.106 131.592L746.1 131.595L746.094 131.598C745.478 131.89 744.783 132.05 744 132.068C743.217 132.05 742.522 131.89 741.906 131.598L741.9 131.595L741.894 131.592C741.252 131.303 740.684 130.919 740.189 130.44L740.185 130.435L740.18 130.431C739.699 129.983 739.298 129.524 738.974 129.055C738.723 128.671 738.517 128.325 738.354 128.014C738.515 127.699 738.72 127.356 738.971 126.987C739.296 126.516 739.698 126.056 740.18 125.606L740.185 125.602L740.189 125.598C740.684 125.119 741.252 124.735 741.894 124.446L741.9 124.443L741.906 124.44Z" fill="#505050"/>
<path d="M764.056 130.597L766.779 122.758H768.106L764.685 132H763.739L764.056 130.597ZM761.511 122.758L764.208 130.597L764.545 132H763.599L760.184 122.758H761.511ZM770.448 125.132V132H769.268V125.132H770.448ZM769.179 123.31C769.179 123.12 769.236 122.959 769.35 122.828C769.469 122.696 769.642 122.631 769.871 122.631C770.095 122.631 770.266 122.696 770.385 122.828C770.507 122.959 770.569 123.12 770.569 123.31C770.569 123.492 770.507 123.649 770.385 123.78C770.266 123.907 770.095 123.97 769.871 123.97C769.642 123.97 769.469 123.907 769.35 123.78C769.236 123.649 769.179 123.492 769.179 123.31ZM775.184 132.127C774.705 132.127 774.272 132.047 773.882 131.886C773.497 131.721 773.165 131.49 772.886 131.194C772.611 130.898 772.399 130.546 772.251 130.14C772.103 129.734 772.029 129.29 772.029 128.807V128.541C772.029 127.982 772.111 127.485 772.276 127.049C772.441 126.609 772.666 126.236 772.949 125.932C773.233 125.627 773.554 125.396 773.914 125.24C774.274 125.083 774.646 125.005 775.031 125.005C775.522 125.005 775.945 125.09 776.301 125.259C776.66 125.428 776.955 125.665 777.183 125.97C777.412 126.27 777.581 126.626 777.691 127.036C777.801 127.442 777.856 127.887 777.856 128.369V128.896H772.727V127.938H776.682V127.849C776.665 127.544 776.601 127.248 776.491 126.96C776.385 126.672 776.216 126.435 775.983 126.249C775.751 126.063 775.433 125.97 775.031 125.97C774.765 125.97 774.519 126.027 774.295 126.141C774.071 126.251 773.878 126.416 773.717 126.636C773.556 126.856 773.432 127.125 773.343 127.442C773.254 127.76 773.209 128.126 773.209 128.541V128.807C773.209 129.133 773.254 129.44 773.343 129.728C773.436 130.011 773.569 130.261 773.743 130.477C773.92 130.692 774.134 130.862 774.384 130.984C774.638 131.107 774.925 131.168 775.247 131.168C775.662 131.168 776.013 131.084 776.301 130.915C776.589 130.745 776.84 130.519 777.056 130.235L777.767 130.8C777.619 131.025 777.431 131.238 777.202 131.441C776.974 131.645 776.692 131.81 776.358 131.937C776.028 132.063 775.636 132.127 775.184 132.127ZM780.966 130.781L782.731 125.132H783.505L783.353 126.255L781.557 132H780.801L780.966 130.781ZM779.779 125.132L781.284 130.845L781.392 132H780.598L778.605 125.132H779.779ZM785.194 130.8L786.628 125.132H787.796L785.803 132H785.016L785.194 130.8ZM783.677 125.132L785.403 130.686L785.6 132H784.851L783.004 126.243L782.852 125.132H783.677ZM793.979 132H792.805V124.408C792.805 123.913 792.894 123.496 793.071 123.158C793.253 122.815 793.514 122.557 793.852 122.383C794.191 122.206 794.593 122.117 795.058 122.117C795.194 122.117 795.329 122.125 795.464 122.142C795.604 122.159 795.739 122.184 795.871 122.218L795.807 123.177C795.718 123.156 795.617 123.141 795.502 123.132C795.392 123.124 795.282 123.12 795.172 123.12C794.923 123.12 794.707 123.17 794.525 123.272C794.347 123.369 794.212 123.513 794.119 123.704C794.026 123.894 793.979 124.129 793.979 124.408V132ZM795.439 125.132V126.033H791.719V125.132H795.439ZM796.436 128.642V128.496C796.436 128.001 796.507 127.542 796.651 127.119C796.795 126.691 797.003 126.321 797.273 126.008C797.544 125.69 797.872 125.445 798.257 125.271C798.642 125.094 799.074 125.005 799.552 125.005C800.035 125.005 800.468 125.094 800.854 125.271C801.243 125.445 801.573 125.69 801.844 126.008C802.119 126.321 802.328 126.691 802.472 127.119C802.616 127.542 802.688 128.001 802.688 128.496V128.642C802.688 129.137 802.616 129.596 802.472 130.02C802.328 130.443 802.119 130.813 801.844 131.13C801.573 131.444 801.245 131.689 800.86 131.867C800.479 132.04 800.047 132.127 799.565 132.127C799.083 132.127 798.649 132.04 798.264 131.867C797.879 131.689 797.549 131.444 797.273 131.13C797.003 130.813 796.795 130.443 796.651 130.02C796.507 129.596 796.436 129.137 796.436 128.642ZM797.61 128.496V128.642C797.61 128.985 797.65 129.309 797.73 129.613C797.811 129.914 797.931 130.18 798.092 130.413C798.257 130.646 798.463 130.83 798.708 130.965C798.953 131.097 799.239 131.162 799.565 131.162C799.887 131.162 800.168 131.097 800.409 130.965C800.655 130.83 800.858 130.646 801.019 130.413C801.179 130.18 801.3 129.914 801.38 129.613C801.465 129.309 801.507 128.985 801.507 128.642V128.496C801.507 128.158 801.465 127.838 801.38 127.538C801.3 127.233 801.177 126.964 801.012 126.731C800.851 126.494 800.648 126.308 800.403 126.173C800.162 126.037 799.878 125.97 799.552 125.97C799.231 125.97 798.947 126.037 798.702 126.173C798.46 126.308 798.257 126.494 798.092 126.731C797.931 126.964 797.811 127.233 797.73 127.538C797.65 127.838 797.61 128.158 797.61 128.496ZM805.335 126.211V132H804.161V125.132H805.303L805.335 126.211ZM807.48 125.094L807.474 126.186C807.377 126.164 807.284 126.152 807.195 126.147C807.11 126.139 807.013 126.135 806.903 126.135C806.632 126.135 806.393 126.177 806.186 126.262C805.978 126.346 805.803 126.465 805.659 126.617C805.515 126.77 805.401 126.951 805.316 127.163C805.236 127.37 805.183 127.599 805.157 127.849L804.827 128.039C804.827 127.624 804.867 127.235 804.948 126.871C805.032 126.507 805.161 126.186 805.335 125.906C805.508 125.623 805.729 125.403 805.995 125.246C806.266 125.085 806.588 125.005 806.96 125.005C807.045 125.005 807.142 125.015 807.252 125.037C807.362 125.054 807.438 125.073 807.48 125.094ZM809.734 126.497V132H808.553V125.132H809.67L809.734 126.497ZM809.493 128.306L808.947 128.287C808.951 127.817 809.012 127.383 809.131 126.985C809.249 126.583 809.425 126.234 809.658 125.938C809.89 125.642 810.18 125.413 810.527 125.252C810.874 125.087 811.276 125.005 811.733 125.005C812.055 125.005 812.351 125.051 812.622 125.145C812.893 125.233 813.128 125.375 813.327 125.57C813.526 125.764 813.68 126.014 813.79 126.319C813.9 126.624 813.955 126.992 813.955 127.423V132H812.781V127.48C812.781 127.121 812.719 126.833 812.597 126.617C812.478 126.401 812.309 126.245 812.089 126.147C811.869 126.046 811.611 125.995 811.314 125.995C810.967 125.995 810.678 126.056 810.445 126.179C810.212 126.302 810.026 126.471 809.886 126.687C809.747 126.903 809.645 127.15 809.582 127.43C809.522 127.705 809.493 127.997 809.493 128.306ZM813.942 127.658L813.155 127.899C813.16 127.523 813.221 127.161 813.339 126.814C813.462 126.467 813.638 126.158 813.866 125.887C814.099 125.616 814.385 125.403 814.723 125.246C815.062 125.085 815.449 125.005 815.885 125.005C816.253 125.005 816.579 125.054 816.862 125.151C817.15 125.248 817.391 125.398 817.586 125.602C817.785 125.8 817.935 126.056 818.037 126.37C818.138 126.683 818.189 127.055 818.189 127.487V132H817.008V127.474C817.008 127.089 816.947 126.791 816.824 126.579C816.706 126.363 816.536 126.213 816.316 126.128C816.101 126.04 815.842 125.995 815.542 125.995C815.284 125.995 815.055 126.04 814.856 126.128C814.658 126.217 814.49 126.34 814.355 126.497C814.22 126.649 814.116 126.825 814.044 127.023C813.976 127.222 813.942 127.434 813.942 127.658Z" fill="#505050"/>
<path d="M737.109 162.871C737.237 162.47 737.447 162.133 737.738 161.859L746.051 153.52C746.397 153.191 746.807 153.027 747.281 153.027C747.755 153.027 748.165 153.191 748.512 153.52L749.605 154.613C749.678 154.686 749.751 154.777 749.824 154.887C750.043 155.233 750.134 155.607 750.098 156.008C750.061 156.409 749.897 156.764 749.605 157.074L741.293 165.387C741.275 165.405 741.257 165.423 741.238 165.441C741.22 165.441 741.202 165.46 741.184 165.496C740.91 165.715 740.6 165.888 740.254 166.016L736.973 166.973C736.717 167.046 736.499 166.982 736.316 166.781C736.134 166.617 736.079 166.408 736.152 166.152L737.109 162.871ZM737.738 165.387L739.898 164.758C740.062 164.703 740.217 164.612 740.363 164.484L746.598 158.223L744.875 156.5L738.668 162.762C738.65 162.78 738.632 162.798 738.613 162.816C738.504 162.944 738.422 163.081 738.367 163.227L737.738 165.387ZM751.219 165.688C751.62 165.724 751.839 165.943 751.875 166.344C751.839 166.745 751.62 166.964 751.219 167H742.906C742.505 166.964 742.286 166.745 742.25 166.344C742.286 165.943 742.505 165.724 742.906 165.688H751.219Z" fill="#505050"/>
<path d="M766.944 163.003V164H762.05V163.003H766.944ZM762.298 154.758V164H761.073V154.758H762.298ZM766.297 158.731V159.728H762.05V158.731H766.297ZM766.881 154.758V155.761H762.05V154.758H766.881ZM772.486 162.667V154.25H773.667V164H772.587L772.486 162.667ZM767.865 160.642V160.509C767.865 159.984 767.928 159.508 768.055 159.081C768.186 158.649 768.37 158.279 768.607 157.97C768.849 157.661 769.134 157.424 769.464 157.259C769.799 157.09 770.171 157.005 770.582 157.005C771.013 157.005 771.39 157.081 771.711 157.233C772.037 157.382 772.312 157.599 772.537 157.887C772.765 158.171 772.945 158.514 773.076 158.916C773.207 159.318 773.298 159.772 773.349 160.28V160.864C773.303 161.368 773.212 161.821 773.076 162.223C772.945 162.625 772.765 162.967 772.537 163.251C772.312 163.535 772.037 163.752 771.711 163.905C771.386 164.053 771.005 164.127 770.569 164.127C770.167 164.127 769.799 164.04 769.464 163.867C769.134 163.693 768.849 163.45 768.607 163.137C768.37 162.824 768.186 162.455 768.055 162.032C767.928 161.605 767.865 161.141 767.865 160.642ZM769.045 160.509V160.642C769.045 160.985 769.079 161.306 769.147 161.607C769.219 161.907 769.329 162.172 769.477 162.4C769.625 162.629 769.813 162.809 770.042 162.94C770.271 163.067 770.543 163.13 770.861 163.13C771.25 163.13 771.57 163.048 771.819 162.883C772.073 162.718 772.276 162.5 772.429 162.229C772.581 161.958 772.7 161.664 772.784 161.347V159.817C772.733 159.584 772.659 159.36 772.562 159.144C772.469 158.924 772.346 158.729 772.194 158.56C772.046 158.387 771.862 158.249 771.642 158.147C771.426 158.046 771.17 157.995 770.874 157.995C770.552 157.995 770.275 158.063 770.042 158.198C769.813 158.329 769.625 158.511 769.477 158.744C769.329 158.973 769.219 159.239 769.147 159.544C769.079 159.844 769.045 160.166 769.045 160.509ZM776.771 157.132V164H775.59V157.132H776.771ZM775.501 155.31C775.501 155.12 775.558 154.959 775.672 154.828C775.791 154.696 775.964 154.631 776.193 154.631C776.417 154.631 776.589 154.696 776.707 154.828C776.83 154.959 776.891 155.12 776.891 155.31C776.891 155.492 776.83 155.649 776.707 155.78C776.589 155.907 776.417 155.97 776.193 155.97C775.964 155.97 775.791 155.907 775.672 155.78C775.558 155.649 775.501 155.492 775.501 155.31ZM781.531 157.132V158.033H777.818V157.132H781.531ZM779.075 155.462H780.249V162.299C780.249 162.532 780.285 162.707 780.357 162.826C780.429 162.944 780.522 163.022 780.636 163.061C780.75 163.099 780.873 163.118 781.004 163.118C781.102 163.118 781.203 163.109 781.309 163.092C781.419 163.071 781.502 163.054 781.557 163.042L781.563 164C781.47 164.03 781.347 164.057 781.195 164.083C781.047 164.112 780.867 164.127 780.655 164.127C780.368 164.127 780.103 164.07 779.862 163.956C779.621 163.841 779.428 163.651 779.284 163.384C779.145 163.113 779.075 162.75 779.075 162.292V155.462ZM787.885 164H786.711V156.408C786.711 155.913 786.8 155.496 786.978 155.158C787.16 154.815 787.42 154.557 787.758 154.383C788.097 154.206 788.499 154.117 788.964 154.117C789.1 154.117 789.235 154.125 789.371 154.142C789.51 154.159 789.646 154.184 789.777 154.218L789.713 155.177C789.625 155.156 789.523 155.141 789.409 155.132C789.299 155.124 789.189 155.12 789.079 155.12C788.829 155.12 788.613 155.17 788.431 155.272C788.253 155.369 788.118 155.513 788.025 155.704C787.932 155.894 787.885 156.129 787.885 156.408V164ZM789.345 157.132V158.033H785.625V157.132H789.345ZM790.342 160.642V160.496C790.342 160.001 790.414 159.542 790.558 159.119C790.701 158.691 790.909 158.321 791.18 158.008C791.451 157.69 791.778 157.445 792.164 157.271C792.549 157.094 792.98 157.005 793.458 157.005C793.941 157.005 794.375 157.094 794.76 157.271C795.149 157.445 795.479 157.69 795.75 158.008C796.025 158.321 796.235 158.691 796.378 159.119C796.522 159.542 796.594 160.001 796.594 160.496V160.642C796.594 161.137 796.522 161.596 796.378 162.02C796.235 162.443 796.025 162.813 795.75 163.13C795.479 163.444 795.151 163.689 794.766 163.867C794.385 164.04 793.954 164.127 793.471 164.127C792.989 164.127 792.555 164.04 792.17 163.867C791.785 163.689 791.455 163.444 791.18 163.13C790.909 162.813 790.701 162.443 790.558 162.02C790.414 161.596 790.342 161.137 790.342 160.642ZM791.516 160.496V160.642C791.516 160.985 791.556 161.309 791.637 161.613C791.717 161.914 791.838 162.18 791.999 162.413C792.164 162.646 792.369 162.83 792.614 162.965C792.86 163.097 793.145 163.162 793.471 163.162C793.793 163.162 794.074 163.097 794.315 162.965C794.561 162.83 794.764 162.646 794.925 162.413C795.086 162.18 795.206 161.914 795.287 161.613C795.371 161.309 795.414 160.985 795.414 160.642V160.496C795.414 160.158 795.371 159.838 795.287 159.538C795.206 159.233 795.083 158.964 794.918 158.731C794.758 158.494 794.555 158.308 794.309 158.173C794.068 158.037 793.784 157.97 793.458 157.97C793.137 157.97 792.853 158.037 792.608 158.173C792.367 158.308 792.164 158.494 791.999 158.731C791.838 158.964 791.717 159.233 791.637 159.538C791.556 159.838 791.516 160.158 791.516 160.496ZM799.241 158.211V164H798.067V157.132H799.209L799.241 158.211ZM801.387 157.094L801.38 158.186C801.283 158.164 801.19 158.152 801.101 158.147C801.016 158.139 800.919 158.135 800.809 158.135C800.538 158.135 800.299 158.177 800.092 158.262C799.884 158.346 799.709 158.465 799.565 158.617C799.421 158.77 799.307 158.951 799.222 159.163C799.142 159.37 799.089 159.599 799.063 159.849L798.733 160.039C798.733 159.624 798.774 159.235 798.854 158.871C798.939 158.507 799.068 158.186 799.241 157.906C799.415 157.623 799.635 157.403 799.901 157.246C800.172 157.085 800.494 157.005 800.866 157.005C800.951 157.005 801.048 157.015 801.158 157.037C801.268 157.054 801.344 157.073 801.387 157.094ZM803.64 158.497V164H802.459V157.132H803.577L803.64 158.497ZM803.399 160.306L802.853 160.287C802.857 159.817 802.919 159.383 803.037 158.985C803.156 158.583 803.331 158.234 803.564 157.938C803.797 157.642 804.087 157.413 804.434 157.252C804.781 157.087 805.183 157.005 805.64 157.005C805.961 157.005 806.257 157.051 806.528 157.145C806.799 157.233 807.034 157.375 807.233 157.57C807.432 157.764 807.586 158.014 807.696 158.319C807.806 158.624 807.861 158.992 807.861 159.423V164H806.687V159.48C806.687 159.121 806.626 158.833 806.503 158.617C806.384 158.401 806.215 158.245 805.995 158.147C805.775 158.046 805.517 157.995 805.221 157.995C804.874 157.995 804.584 158.056 804.351 158.179C804.118 158.302 803.932 158.471 803.792 158.687C803.653 158.903 803.551 159.15 803.488 159.43C803.429 159.705 803.399 159.997 803.399 160.306ZM807.849 159.658L807.062 159.899C807.066 159.523 807.127 159.161 807.246 158.814C807.368 158.467 807.544 158.158 807.772 157.887C808.005 157.616 808.291 157.403 808.629 157.246C808.968 157.085 809.355 157.005 809.791 157.005C810.159 157.005 810.485 157.054 810.769 157.151C811.056 157.248 811.298 157.398 811.492 157.602C811.691 157.8 811.841 158.056 811.943 158.37C812.044 158.683 812.095 159.055 812.095 159.487V164H810.915V159.474C810.915 159.089 810.853 158.791 810.73 158.579C810.612 158.363 810.443 158.213 810.223 158.128C810.007 158.04 809.749 157.995 809.448 157.995C809.19 157.995 808.962 158.04 808.763 158.128C808.564 158.217 808.397 158.34 808.261 158.497C808.126 158.649 808.022 158.825 807.95 159.023C807.882 159.222 807.849 159.434 807.849 159.658Z" fill="#505050"/>
<path d="M750.754 186.941C750.918 187.105 751 187.306 751 187.543V193.75C750.982 194.242 750.809 194.652 750.48 194.98C750.152 195.309 749.742 195.482 749.25 195.5H744C743.508 195.482 743.098 195.309 742.77 194.98C742.423 194.652 742.241 194.242 742.223 193.75V186.75C742.241 186.258 742.414 185.848 742.742 185.52C743.07 185.191 743.48 185.018 743.973 185H748.457C748.694 185 748.895 185.082 749.059 185.246L750.754 186.941ZM749.688 193.75H749.66V188.5H748.375C748.12 188.5 747.91 188.418 747.746 188.254C747.582 188.09 747.5 187.88 747.5 187.625L747.473 186.312H743.973C743.699 186.349 743.553 186.495 743.535 186.75V193.75C743.553 194.023 743.699 194.169 743.973 194.188H749.25C749.523 194.169 749.669 194.023 749.688 193.75ZM744.438 197.25L744.465 196.375H745.75V197.25C745.732 197.742 745.559 198.152 745.23 198.48C744.902 198.809 744.492 198.982 744 199H738.75C738.258 198.982 737.848 198.809 737.52 198.48C737.191 198.152 737.018 197.742 737 197.25V190.25C737.018 189.758 737.191 189.348 737.52 189.02C737.848 188.691 738.258 188.518 738.75 188.5H741.375V189.812H738.75C738.477 189.831 738.331 189.977 738.312 190.25L738.285 197.25C738.303 197.523 738.449 197.669 738.723 197.688H744C744.273 197.669 744.419 197.523 744.438 197.25Z" fill="#505050"/>
<path d="M763.574 196H761.644L761.657 195.003H763.574C764.234 195.003 764.784 194.866 765.224 194.591C765.664 194.312 765.994 193.922 766.214 193.423C766.439 192.919 766.551 192.331 766.551 191.658V191.093C766.551 190.564 766.487 190.095 766.36 189.684C766.233 189.269 766.047 188.92 765.802 188.637C765.556 188.349 765.256 188.131 764.9 187.983C764.549 187.835 764.145 187.761 763.688 187.761H761.606V186.758H763.688C764.293 186.758 764.845 186.859 765.345 187.062C765.844 187.261 766.274 187.551 766.633 187.932C766.997 188.309 767.277 188.766 767.471 189.303C767.666 189.836 767.763 190.437 767.763 191.106V191.658C767.763 192.327 767.666 192.93 767.471 193.467C767.277 194 766.995 194.455 766.627 194.832C766.263 195.209 765.823 195.499 765.307 195.702C764.795 195.901 764.217 196 763.574 196ZM762.298 186.758V196H761.073V186.758H762.298ZM773.628 194.413V189.132H774.809V196H773.686L773.628 194.413ZM773.851 192.966L774.339 192.953C774.339 193.41 774.291 193.833 774.193 194.223C774.1 194.608 773.948 194.942 773.736 195.226C773.525 195.509 773.248 195.731 772.905 195.892C772.562 196.049 772.145 196.127 771.654 196.127C771.32 196.127 771.013 196.078 770.734 195.981C770.459 195.884 770.222 195.733 770.023 195.53C769.824 195.327 769.67 195.063 769.56 194.737C769.454 194.411 769.401 194.02 769.401 193.562V189.132H770.575V193.575C770.575 193.884 770.609 194.14 770.677 194.343C770.749 194.542 770.844 194.701 770.962 194.819C771.085 194.934 771.221 195.014 771.369 195.061C771.521 195.107 771.678 195.13 771.838 195.13C772.338 195.13 772.733 195.035 773.025 194.845C773.317 194.65 773.527 194.39 773.654 194.064C773.785 193.734 773.851 193.368 773.851 192.966ZM777.773 190.452V198.641H776.593V189.132H777.672L777.773 190.452ZM782.401 192.509V192.642C782.401 193.141 782.342 193.605 782.223 194.032C782.105 194.455 781.931 194.824 781.703 195.137C781.478 195.45 781.201 195.693 780.871 195.867C780.541 196.04 780.162 196.127 779.735 196.127C779.299 196.127 778.914 196.055 778.58 195.911C778.245 195.767 777.962 195.558 777.729 195.283C777.496 195.008 777.31 194.678 777.17 194.292C777.035 193.907 776.942 193.474 776.891 192.991V192.28C776.942 191.772 777.037 191.318 777.177 190.916C777.316 190.514 777.5 190.171 777.729 189.887C777.962 189.599 778.243 189.382 778.573 189.233C778.903 189.081 779.284 189.005 779.716 189.005C780.147 189.005 780.53 189.09 780.865 189.259C781.199 189.424 781.48 189.661 781.709 189.97C781.938 190.279 782.109 190.649 782.223 191.081C782.342 191.508 782.401 191.984 782.401 192.509ZM781.22 192.642V192.509C781.22 192.166 781.184 191.844 781.112 191.544C781.04 191.239 780.928 190.973 780.776 190.744C780.628 190.511 780.437 190.329 780.205 190.198C779.972 190.063 779.695 189.995 779.373 189.995C779.077 189.995 778.819 190.046 778.599 190.147C778.383 190.249 778.199 190.387 778.046 190.56C777.894 190.729 777.769 190.924 777.672 191.144C777.579 191.36 777.509 191.584 777.462 191.817V193.461C777.547 193.757 777.666 194.036 777.818 194.299C777.97 194.557 778.173 194.766 778.427 194.927C778.681 195.084 779.001 195.162 779.386 195.162C779.703 195.162 779.976 195.097 780.205 194.965C780.437 194.83 780.628 194.646 780.776 194.413C780.928 194.18 781.04 193.914 781.112 193.613C781.184 193.309 781.22 192.985 781.22 192.642ZM785.175 186.25V196H783.994V186.25H785.175ZM788.336 189.132V196H787.155V189.132H788.336ZM787.066 187.31C787.066 187.12 787.124 186.959 787.238 186.828C787.356 186.696 787.53 186.631 787.758 186.631C787.983 186.631 788.154 186.696 788.272 186.828C788.395 186.959 788.457 187.12 788.457 187.31C788.457 187.492 788.395 187.649 788.272 187.78C788.154 187.907 787.983 187.97 787.758 187.97C787.53 187.97 787.356 187.907 787.238 187.78C787.124 187.649 787.066 187.492 787.066 187.31ZM792.97 195.162C793.249 195.162 793.507 195.105 793.744 194.991C793.981 194.876 794.176 194.72 794.328 194.521C794.48 194.318 794.567 194.087 794.588 193.829H795.706C795.684 194.235 795.547 194.614 795.293 194.965C795.043 195.312 794.715 195.594 794.309 195.81C793.903 196.021 793.456 196.127 792.97 196.127C792.453 196.127 792.003 196.036 791.618 195.854C791.237 195.672 790.919 195.422 790.666 195.105C790.416 194.788 790.228 194.424 790.101 194.013C789.978 193.598 789.917 193.16 789.917 192.699V192.433C789.917 191.971 789.978 191.535 790.101 191.125C790.228 190.71 790.416 190.344 790.666 190.027C790.919 189.709 791.237 189.46 791.618 189.278C792.003 189.096 792.453 189.005 792.97 189.005C793.507 189.005 793.977 189.115 794.379 189.335C794.781 189.551 795.096 189.847 795.325 190.224C795.557 190.596 795.684 191.019 795.706 191.493H794.588C794.567 191.21 794.487 190.954 794.347 190.725C794.212 190.497 794.026 190.315 793.789 190.179C793.556 190.04 793.283 189.97 792.97 189.97C792.61 189.97 792.307 190.042 792.062 190.186C791.821 190.325 791.628 190.516 791.484 190.757C791.345 190.994 791.243 191.258 791.18 191.55C791.12 191.838 791.091 192.132 791.091 192.433V192.699C791.091 193 791.12 193.296 791.18 193.588C791.239 193.88 791.338 194.144 791.478 194.381C791.622 194.618 791.814 194.809 792.056 194.953C792.301 195.092 792.606 195.162 792.97 195.162ZM801.076 194.826V191.29C801.076 191.019 801.021 190.784 800.911 190.585C800.805 190.382 800.644 190.226 800.428 190.116C800.212 190.006 799.946 189.951 799.628 189.951C799.332 189.951 799.072 190.001 798.848 190.103C798.628 190.205 798.454 190.338 798.327 190.503C798.204 190.668 798.143 190.846 798.143 191.036H796.969C796.969 190.791 797.032 190.547 797.159 190.306C797.286 190.065 797.468 189.847 797.705 189.652C797.946 189.453 798.234 189.297 798.568 189.183C798.907 189.064 799.284 189.005 799.698 189.005C800.198 189.005 800.638 189.09 801.019 189.259C801.404 189.428 801.704 189.684 801.92 190.027C802.14 190.365 802.25 190.791 802.25 191.303V194.502C802.25 194.73 802.269 194.974 802.307 195.232C802.349 195.49 802.411 195.712 802.491 195.898V196H801.266C801.207 195.865 801.16 195.685 801.126 195.46C801.093 195.232 801.076 195.02 801.076 194.826ZM801.279 191.836L801.292 192.661H800.104C799.77 192.661 799.472 192.689 799.209 192.744C798.947 192.794 798.727 192.873 798.549 192.979C798.372 193.084 798.236 193.218 798.143 193.378C798.05 193.535 798.003 193.719 798.003 193.931C798.003 194.146 798.052 194.343 798.149 194.521C798.247 194.699 798.393 194.84 798.587 194.946C798.786 195.048 799.03 195.099 799.317 195.099C799.677 195.099 799.994 195.022 800.27 194.87C800.545 194.718 800.763 194.532 800.923 194.312C801.088 194.091 801.177 193.878 801.19 193.67L801.691 194.235C801.662 194.413 801.581 194.61 801.45 194.826C801.319 195.042 801.143 195.249 800.923 195.448C800.708 195.642 800.449 195.805 800.149 195.937C799.853 196.063 799.518 196.127 799.146 196.127C798.681 196.127 798.272 196.036 797.921 195.854C797.574 195.672 797.303 195.429 797.108 195.124C796.918 194.815 796.823 194.47 796.823 194.089C796.823 193.721 796.895 193.397 797.039 193.118C797.182 192.835 797.39 192.6 797.661 192.414C797.931 192.223 798.257 192.079 798.638 191.982C799.019 191.885 799.444 191.836 799.914 191.836H801.279ZM806.973 189.132V190.033H803.259V189.132H806.973ZM804.516 187.462H805.69V194.299C805.69 194.532 805.726 194.707 805.798 194.826C805.87 194.944 805.963 195.022 806.078 195.061C806.192 195.099 806.315 195.118 806.446 195.118C806.543 195.118 806.645 195.109 806.75 195.092C806.861 195.071 806.943 195.054 806.998 195.042L807.004 196C806.911 196.03 806.789 196.057 806.636 196.083C806.488 196.112 806.308 196.127 806.097 196.127C805.809 196.127 805.544 196.07 805.303 195.956C805.062 195.841 804.869 195.651 804.726 195.384C804.586 195.113 804.516 194.75 804.516 194.292V187.462ZM811.2 196.127C810.722 196.127 810.288 196.047 809.899 195.886C809.514 195.721 809.182 195.49 808.902 195.194C808.627 194.898 808.416 194.546 808.268 194.14C808.119 193.734 808.045 193.29 808.045 192.807V192.541C808.045 191.982 808.128 191.485 808.293 191.049C808.458 190.609 808.682 190.236 808.966 189.932C809.249 189.627 809.571 189.396 809.931 189.24C810.29 189.083 810.663 189.005 811.048 189.005C811.539 189.005 811.962 189.09 812.317 189.259C812.677 189.428 812.971 189.665 813.2 189.97C813.428 190.27 813.597 190.626 813.708 191.036C813.818 191.442 813.873 191.887 813.873 192.369V192.896H808.744V191.938H812.698V191.849C812.681 191.544 812.618 191.248 812.508 190.96C812.402 190.672 812.233 190.435 812 190.249C811.767 190.063 811.45 189.97 811.048 189.97C810.781 189.97 810.536 190.027 810.312 190.141C810.087 190.251 809.895 190.416 809.734 190.636C809.573 190.856 809.448 191.125 809.359 191.442C809.271 191.76 809.226 192.126 809.226 192.541V192.807C809.226 193.133 809.271 193.44 809.359 193.728C809.452 194.011 809.586 194.261 809.759 194.477C809.937 194.692 810.151 194.862 810.4 194.984C810.654 195.107 810.942 195.168 811.264 195.168C811.678 195.168 812.03 195.084 812.317 194.915C812.605 194.745 812.857 194.519 813.073 194.235L813.784 194.8C813.636 195.025 813.447 195.238 813.219 195.441C812.99 195.645 812.709 195.81 812.375 195.937C812.044 196.063 811.653 196.127 811.2 196.127ZM820.22 196H819.046V188.408C819.046 187.913 819.135 187.496 819.312 187.158C819.494 186.815 819.755 186.557 820.093 186.383C820.432 186.206 820.834 186.117 821.299 186.117C821.435 186.117 821.57 186.125 821.706 186.142C821.845 186.159 821.981 186.184 822.112 186.218L822.048 187.177C821.959 187.156 821.858 187.141 821.744 187.132C821.634 187.124 821.524 187.12 821.414 187.12C821.164 187.12 820.948 187.17 820.766 187.272C820.588 187.369 820.453 187.513 820.36 187.704C820.267 187.894 820.22 188.129 820.22 188.408V196ZM821.68 189.132V190.033H817.96V189.132H821.68ZM822.677 192.642V192.496C822.677 192.001 822.749 191.542 822.893 191.119C823.036 190.691 823.244 190.321 823.515 190.008C823.785 189.69 824.113 189.445 824.499 189.271C824.884 189.094 825.315 189.005 825.793 189.005C826.276 189.005 826.71 189.094 827.095 189.271C827.484 189.445 827.814 189.69 828.085 190.008C828.36 190.321 828.569 190.691 828.713 191.119C828.857 191.542 828.929 192.001 828.929 192.496V192.642C828.929 193.137 828.857 193.596 828.713 194.02C828.569 194.443 828.36 194.813 828.085 195.13C827.814 195.444 827.486 195.689 827.101 195.867C826.72 196.04 826.289 196.127 825.806 196.127C825.324 196.127 824.89 196.04 824.505 195.867C824.12 195.689 823.79 195.444 823.515 195.13C823.244 194.813 823.036 194.443 822.893 194.02C822.749 193.596 822.677 193.137 822.677 192.642ZM823.851 192.496V192.642C823.851 192.985 823.891 193.309 823.972 193.613C824.052 193.914 824.173 194.18 824.333 194.413C824.499 194.646 824.704 194.83 824.949 194.965C825.195 195.097 825.48 195.162 825.806 195.162C826.128 195.162 826.409 195.097 826.65 194.965C826.896 194.83 827.099 194.646 827.26 194.413C827.421 194.18 827.541 193.914 827.622 193.613C827.706 193.309 827.749 192.985 827.749 192.642V192.496C827.749 192.158 827.706 191.838 827.622 191.538C827.541 191.233 827.418 190.964 827.253 190.731C827.093 190.494 826.889 190.308 826.644 190.173C826.403 190.037 826.119 189.97 825.793 189.97C825.472 189.97 825.188 190.037 824.943 190.173C824.702 190.308 824.499 190.494 824.333 190.731C824.173 190.964 824.052 191.233 823.972 191.538C823.891 191.838 823.851 192.158 823.851 192.496ZM831.576 190.211V196H830.402V189.132H831.544L831.576 190.211ZM833.722 189.094L833.715 190.186C833.618 190.164 833.525 190.152 833.436 190.147C833.351 190.139 833.254 190.135 833.144 190.135C832.873 190.135 832.634 190.177 832.427 190.262C832.219 190.346 832.044 190.465 831.9 190.617C831.756 190.77 831.642 190.951 831.557 191.163C831.477 191.37 831.424 191.599 831.398 191.849L831.068 192.039C831.068 191.624 831.109 191.235 831.189 190.871C831.274 190.507 831.403 190.186 831.576 189.906C831.75 189.623 831.97 189.403 832.236 189.246C832.507 189.085 832.829 189.005 833.201 189.005C833.286 189.005 833.383 189.015 833.493 189.037C833.603 189.054 833.679 189.073 833.722 189.094ZM835.975 190.497V196H834.794V189.132H835.912L835.975 190.497ZM835.734 192.306L835.188 192.287C835.192 191.817 835.254 191.383 835.372 190.985C835.491 190.583 835.666 190.234 835.899 189.938C836.132 189.642 836.422 189.413 836.769 189.252C837.116 189.087 837.518 189.005 837.975 189.005C838.296 189.005 838.592 189.051 838.863 189.145C839.134 189.233 839.369 189.375 839.568 189.57C839.767 189.764 839.921 190.014 840.031 190.319C840.141 190.624 840.196 190.992 840.196 191.423V196H839.022V191.48C839.022 191.121 838.961 190.833 838.838 190.617C838.719 190.401 838.55 190.245 838.33 190.147C838.11 190.046 837.852 189.995 837.556 189.995C837.209 189.995 836.919 190.056 836.686 190.179C836.453 190.302 836.267 190.471 836.127 190.687C835.988 190.903 835.886 191.15 835.823 191.43C835.764 191.705 835.734 191.997 835.734 192.306ZM840.184 191.658L839.396 191.899C839.401 191.523 839.462 191.161 839.581 190.814C839.703 190.467 839.879 190.158 840.107 189.887C840.34 189.616 840.626 189.403 840.964 189.246C841.303 189.085 841.69 189.005 842.126 189.005C842.494 189.005 842.82 189.054 843.104 189.151C843.391 189.248 843.632 189.398 843.827 189.602C844.026 189.8 844.176 190.056 844.278 190.37C844.379 190.683 844.43 191.055 844.43 191.487V196H843.25V191.474C843.25 191.089 843.188 190.791 843.065 190.579C842.947 190.363 842.778 190.213 842.558 190.128C842.342 190.04 842.084 189.995 841.783 189.995C841.525 189.995 841.297 190.04 841.098 190.128C840.899 190.217 840.732 190.34 840.596 190.497C840.461 190.649 840.357 190.825 840.285 191.023C840.217 191.222 840.184 191.434 840.184 191.658Z" fill="#505050"/>
<path d="M741.566 217.492C741.73 217.182 741.995 217.018 742.359 217H745.641C746.005 217.018 746.27 217.182 746.434 217.492L746.625 217.875H749.25C749.505 217.875 749.715 217.957 749.879 218.121C750.043 218.285 750.125 218.495 750.125 218.75C750.125 219.005 750.043 219.215 749.879 219.379C749.715 219.543 749.505 219.625 749.25 219.625H738.75C738.495 219.625 738.285 219.543 738.121 219.379C737.957 219.215 737.875 219.005 737.875 218.75C737.875 218.495 737.957 218.285 738.121 218.121C738.285 217.957 738.495 217.875 738.75 217.875H741.375L741.566 217.492ZM738.723 220.5H749.25V229.25C749.232 229.742 749.059 230.152 748.73 230.48C748.402 230.809 747.992 230.982 747.5 231H740.473C739.98 230.982 739.57 230.809 739.242 230.48C738.914 230.152 738.741 229.742 738.723 229.25V220.5ZM740.91 222.688V228.812C740.947 229.086 741.092 229.232 741.348 229.25C741.621 229.232 741.767 229.086 741.785 228.812V222.688C741.767 222.414 741.621 222.268 741.348 222.25C741.092 222.268 740.947 222.414 740.91 222.688ZM743.535 222.688V228.812C743.572 229.086 743.717 229.232 743.973 229.25C744.264 229.232 744.419 229.086 744.438 228.812V222.688C744.419 222.414 744.264 222.268 743.973 222.25C743.717 222.268 743.572 222.414 743.535 222.688ZM746.188 222.688V228.812C746.206 229.086 746.352 229.232 746.625 229.25C746.898 229.232 747.044 229.086 747.062 228.812V222.688C747.044 222.414 746.898 222.268 746.625 222.25C746.352 222.268 746.206 222.414 746.188 222.688Z" fill="#F45C59"/>
<path d="M763.574 228H761.644L761.657 227.003H763.574C764.234 227.003 764.784 226.866 765.224 226.591C765.664 226.312 765.994 225.922 766.214 225.423C766.439 224.919 766.551 224.331 766.551 223.658V223.093C766.551 222.564 766.487 222.095 766.36 221.684C766.233 221.269 766.047 220.92 765.802 220.637C765.556 220.349 765.256 220.131 764.9 219.983C764.549 219.835 764.145 219.761 763.688 219.761H761.606V218.758H763.688C764.293 218.758 764.845 218.859 765.345 219.062C765.844 219.261 766.274 219.551 766.633 219.932C766.997 220.309 767.277 220.766 767.471 221.303C767.666 221.836 767.763 222.437 767.763 223.106V223.658C767.763 224.327 767.666 224.93 767.471 225.467C767.277 226 766.995 226.455 766.627 226.832C766.263 227.209 765.823 227.499 765.307 227.702C764.795 227.901 764.217 228 763.574 228ZM762.298 218.758V228H761.073V218.758H762.298ZM772.276 228.127C771.798 228.127 771.364 228.047 770.975 227.886C770.59 227.721 770.258 227.49 769.979 227.194C769.703 226.898 769.492 226.546 769.344 226.14C769.196 225.734 769.122 225.29 769.122 224.807V224.541C769.122 223.982 769.204 223.485 769.369 223.049C769.534 222.609 769.758 222.236 770.042 221.932C770.326 221.627 770.647 221.396 771.007 221.24C771.367 221.083 771.739 221.005 772.124 221.005C772.615 221.005 773.038 221.09 773.394 221.259C773.753 221.428 774.047 221.665 774.276 221.97C774.504 222.27 774.674 222.626 774.784 223.036C774.894 223.442 774.949 223.887 774.949 224.369V224.896H769.82V223.938H773.774V223.849C773.757 223.544 773.694 223.248 773.584 222.96C773.478 222.672 773.309 222.435 773.076 222.249C772.843 222.063 772.526 221.97 772.124 221.97C771.857 221.97 771.612 222.027 771.388 222.141C771.163 222.251 770.971 222.416 770.81 222.636C770.649 222.856 770.524 223.125 770.436 223.442C770.347 223.76 770.302 224.126 770.302 224.541V224.807C770.302 225.133 770.347 225.44 770.436 225.728C770.529 226.011 770.662 226.261 770.835 226.477C771.013 226.692 771.227 226.862 771.477 226.984C771.73 227.107 772.018 227.168 772.34 227.168C772.755 227.168 773.106 227.084 773.394 226.915C773.681 226.745 773.933 226.519 774.149 226.235L774.86 226.8C774.712 227.025 774.523 227.238 774.295 227.441C774.066 227.645 773.785 227.81 773.451 227.937C773.121 228.063 772.729 228.127 772.276 228.127ZM777.596 218.25V228H776.415V218.25H777.596ZM782.331 228.127C781.853 228.127 781.419 228.047 781.03 227.886C780.645 227.721 780.312 227.49 780.033 227.194C779.758 226.898 779.547 226.546 779.398 226.14C779.25 225.734 779.176 225.29 779.176 224.807V224.541C779.176 223.982 779.259 223.485 779.424 223.049C779.589 222.609 779.813 222.236 780.097 221.932C780.38 221.627 780.702 221.396 781.062 221.24C781.421 221.083 781.794 221.005 782.179 221.005C782.67 221.005 783.093 221.09 783.448 221.259C783.808 221.428 784.102 221.665 784.331 221.97C784.559 222.27 784.728 222.626 784.838 223.036C784.948 223.442 785.003 223.887 785.003 224.369V224.896H779.875V223.938H783.829V223.849C783.812 223.544 783.749 223.248 783.639 222.96C783.533 222.672 783.364 222.435 783.131 222.249C782.898 222.063 782.581 221.97 782.179 221.97C781.912 221.97 781.667 222.027 781.442 222.141C781.218 222.251 781.026 222.416 780.865 222.636C780.704 222.856 780.579 223.125 780.49 223.442C780.401 223.76 780.357 224.126 780.357 224.541V224.807C780.357 225.133 780.401 225.44 780.49 225.728C780.583 226.011 780.717 226.261 780.89 226.477C781.068 226.692 781.282 226.862 781.531 226.984C781.785 227.107 782.073 227.168 782.395 227.168C782.809 227.168 783.16 227.084 783.448 226.915C783.736 226.745 783.988 226.519 784.204 226.235L784.915 226.8C784.766 227.025 784.578 227.238 784.35 227.441C784.121 227.645 783.84 227.81 783.505 227.937C783.175 228.063 782.784 228.127 782.331 228.127ZM789.25 221.132V222.033H785.537V221.132H789.25ZM786.793 219.462H787.968V226.299C787.968 226.532 788.004 226.707 788.076 226.826C788.148 226.944 788.241 227.022 788.355 227.061C788.469 227.099 788.592 227.118 788.723 227.118C788.82 227.118 788.922 227.109 789.028 227.092C789.138 227.071 789.22 227.054 789.275 227.042L789.282 228C789.189 228.03 789.066 228.057 788.914 228.083C788.765 228.112 788.586 228.127 788.374 228.127C788.086 228.127 787.822 228.07 787.581 227.956C787.339 227.841 787.147 227.651 787.003 227.384C786.863 227.113 786.793 226.75 786.793 226.292V219.462ZM793.478 228.127C792.999 228.127 792.566 228.047 792.176 227.886C791.791 227.721 791.459 227.49 791.18 227.194C790.905 226.898 790.693 226.546 790.545 226.14C790.397 225.734 790.323 225.29 790.323 224.807V224.541C790.323 223.982 790.405 223.485 790.57 223.049C790.735 222.609 790.96 222.236 791.243 221.932C791.527 221.627 791.848 221.396 792.208 221.24C792.568 221.083 792.94 221.005 793.325 221.005C793.816 221.005 794.239 221.09 794.595 221.259C794.954 221.428 795.249 221.665 795.477 221.97C795.706 222.27 795.875 222.626 795.985 223.036C796.095 223.442 796.15 223.887 796.15 224.369V224.896H791.021V223.938H794.976V223.849C794.959 223.544 794.895 223.248 794.785 222.96C794.679 222.672 794.51 222.435 794.277 222.249C794.045 222.063 793.727 221.97 793.325 221.97C793.059 221.97 792.813 222.027 792.589 222.141C792.365 222.251 792.172 222.416 792.011 222.636C791.85 222.856 791.726 223.125 791.637 223.442C791.548 223.76 791.503 224.126 791.503 224.541V224.807C791.503 225.133 791.548 225.44 791.637 225.728C791.73 226.011 791.863 226.261 792.037 226.477C792.214 226.692 792.428 226.862 792.678 226.984C792.932 227.107 793.219 227.168 793.541 227.168C793.956 227.168 794.307 227.084 794.595 226.915C794.882 226.745 795.134 226.519 795.35 226.235L796.061 226.8C795.913 227.025 795.725 227.238 795.496 227.441C795.268 227.645 794.986 227.81 794.652 227.937C794.322 228.063 793.93 228.127 793.478 228.127ZM802.498 228H801.323V220.408C801.323 219.913 801.412 219.496 801.59 219.158C801.772 218.815 802.032 218.557 802.371 218.383C802.709 218.206 803.111 218.117 803.577 218.117C803.712 218.117 803.847 218.125 803.983 218.142C804.123 218.159 804.258 218.184 804.389 218.218L804.326 219.177C804.237 219.156 804.135 219.141 804.021 219.132C803.911 219.124 803.801 219.12 803.691 219.12C803.441 219.12 803.225 219.17 803.043 219.272C802.866 219.369 802.73 219.513 802.637 219.704C802.544 219.894 802.498 220.129 802.498 220.408V228ZM803.958 221.132V222.033H800.238V221.132H803.958ZM804.954 224.642V224.496C804.954 224.001 805.026 223.542 805.17 223.119C805.314 222.691 805.521 222.321 805.792 222.008C806.063 221.69 806.391 221.445 806.776 221.271C807.161 221.094 807.593 221.005 808.071 221.005C808.553 221.005 808.987 221.094 809.372 221.271C809.761 221.445 810.091 221.69 810.362 222.008C810.637 222.321 810.847 222.691 810.991 223.119C811.135 223.542 811.207 224.001 811.207 224.496V224.642C811.207 225.137 811.135 225.596 810.991 226.02C810.847 226.443 810.637 226.813 810.362 227.13C810.091 227.444 809.764 227.689 809.378 227.867C808.998 228.04 808.566 228.127 808.083 228.127C807.601 228.127 807.167 228.04 806.782 227.867C806.397 227.689 806.067 227.444 805.792 227.13C805.521 226.813 805.314 226.443 805.17 226.02C805.026 225.596 804.954 225.137 804.954 224.642ZM806.128 224.496V224.642C806.128 224.985 806.169 225.309 806.249 225.613C806.329 225.914 806.45 226.18 806.611 226.413C806.776 226.646 806.981 226.83 807.227 226.965C807.472 227.097 807.758 227.162 808.083 227.162C808.405 227.162 808.687 227.097 808.928 226.965C809.173 226.83 809.376 226.646 809.537 226.413C809.698 226.18 809.819 225.914 809.899 225.613C809.984 225.309 810.026 224.985 810.026 224.642V224.496C810.026 224.158 809.984 223.838 809.899 223.538C809.819 223.233 809.696 222.964 809.531 222.731C809.37 222.494 809.167 222.308 808.921 222.173C808.68 222.037 808.397 221.97 808.071 221.97C807.749 221.97 807.466 222.037 807.22 222.173C806.979 222.308 806.776 222.494 806.611 222.731C806.45 222.964 806.329 223.233 806.249 223.538C806.169 223.838 806.128 224.158 806.128 224.496ZM813.854 222.211V228H812.679V221.132H813.822L813.854 222.211ZM815.999 221.094L815.993 222.186C815.895 222.164 815.802 222.152 815.713 222.147C815.629 222.139 815.531 222.135 815.421 222.135C815.151 222.135 814.911 222.177 814.704 222.262C814.497 222.346 814.321 222.465 814.177 222.617C814.033 222.77 813.919 222.951 813.834 223.163C813.754 223.37 813.701 223.599 813.676 223.849L813.346 224.039C813.346 223.624 813.386 223.235 813.466 222.871C813.551 222.507 813.68 222.186 813.854 221.906C814.027 221.623 814.247 221.403 814.514 221.246C814.785 221.085 815.106 221.005 815.479 221.005C815.563 221.005 815.66 221.015 815.771 221.037C815.881 221.054 815.957 221.073 815.999 221.094ZM818.252 222.497V228H817.072V221.132H818.189L818.252 222.497ZM818.011 224.306L817.465 224.287C817.47 223.817 817.531 223.383 817.649 222.985C817.768 222.583 817.944 222.234 818.176 221.938C818.409 221.642 818.699 221.413 819.046 221.252C819.393 221.087 819.795 221.005 820.252 221.005C820.574 221.005 820.87 221.051 821.141 221.145C821.411 221.233 821.646 221.375 821.845 221.57C822.044 221.764 822.199 222.014 822.309 222.319C822.419 222.624 822.474 222.992 822.474 223.423V228H821.299V223.48C821.299 223.121 821.238 222.833 821.115 222.617C820.997 222.401 820.827 222.245 820.607 222.147C820.387 222.046 820.129 221.995 819.833 221.995C819.486 221.995 819.196 222.056 818.963 222.179C818.731 222.302 818.544 222.471 818.405 222.687C818.265 222.903 818.164 223.15 818.1 223.43C818.041 223.705 818.011 223.997 818.011 224.306ZM822.461 223.658L821.674 223.899C821.678 223.523 821.739 223.161 821.858 222.814C821.981 222.467 822.156 222.158 822.385 221.887C822.618 221.616 822.903 221.403 823.242 221.246C823.58 221.085 823.967 221.005 824.403 221.005C824.771 221.005 825.097 221.054 825.381 221.151C825.669 221.248 825.91 221.398 826.104 221.602C826.303 221.8 826.454 222.056 826.555 222.37C826.657 222.683 826.708 223.055 826.708 223.487V228H825.527V223.474C825.527 223.089 825.465 222.791 825.343 222.579C825.224 222.363 825.055 222.213 824.835 222.128C824.619 222.04 824.361 221.995 824.061 221.995C823.802 221.995 823.574 222.04 823.375 222.128C823.176 222.217 823.009 222.34 822.874 222.497C822.738 222.649 822.634 222.825 822.562 223.023C822.495 223.222 822.461 223.434 822.461 223.658Z" fill="#F45C59"/>
</g>
<rect x="851" y="68" width="32" height="32" rx="4" fill="#F2F2F2"/>
<rect x="851" y="68" width="32" height="32" rx="4" stroke="#1A1A1A" stroke-width="2"/>
<path d="M870.062 84C870.081 83.6354 870.208 83.3255 870.445 83.0703C870.701 82.8333 871.01 82.7057 871.375 82.6875C871.74 82.7057 872.049 82.8333 872.305 83.0703C872.542 83.3255 872.669 83.6354 872.688 84C872.669 84.3646 872.542 84.6745 872.305 84.9297C872.049 85.1667 871.74 85.2943 871.375 85.3125C871.01 85.2943 870.701 85.1667 870.445 84.9297C870.208 84.6745 870.081 84.3646 870.062 84ZM865.688 84C865.706 83.6354 865.833 83.3255 866.07 83.0703C866.326 82.8333 866.635 82.7057 867 82.6875C867.365 82.7057 867.674 82.8333 867.93 83.0703C868.167 83.3255 868.294 83.6354 868.312 84C868.294 84.3646 868.167 84.6745 867.93 84.9297C867.674 85.1667 867.365 85.2943 867 85.3125C866.635 85.2943 866.326 85.1667 866.07 84.9297C865.833 84.6745 865.706 84.3646 865.688 84ZM863.938 84C863.919 84.3646 863.792 84.6745 863.555 84.9297C863.299 85.1667 862.99 85.2943 862.625 85.3125C862.26 85.2943 861.951 85.1667 861.695 84.9297C861.458 84.6745 861.331 84.3646 861.312 84C861.331 83.6354 861.458 83.3255 861.695 83.0703C861.951 82.8333 862.26 82.7057 862.625 82.6875C862.99 82.7057 863.299 82.8333 863.555 83.0703C863.792 83.3255 863.919 83.6354 863.938 84Z" fill="#1A1A1A"/>
<defs>
<filter id="filter0_ddd_13346_62186" x="380" y="93" width="272" height="113" filterUnits="userSpaceOnUse" color-interpolation-filters="sRGB">
<feFlood flood-opacity="0" result="BackgroundImageFix"/>
<feColorMatrix in="SourceAlpha" type="matrix" values="0 0 0 0 0 0 0 0 0 0 0 0 0 0 0 0 0 0 127 0" result="hardAlpha"/>
<feOffset dy="2"/>
<feGaussianBlur stdDeviation="2"/>
<feColorMatrix type="matrix" values="0 0 0 0 0.45098 0 0 0 0 0.45098 0 0 0 0 0.45098 0 0 0 0.1 0"/>
<feBlend mode="normal" in2="BackgroundImageFix" result="effect1_dropShadow_13346_62186"/>
<feColorMatrix in="SourceAlpha" type="matrix" values="0 0 0 0 0 0 0 0 0 0 0 0 0 0 0 0 0 0 127 0" result="hardAlpha"/>
<feOffset dy="1"/>
<feGaussianBlur stdDeviation="8"/>
<feColorMatrix type="matrix" values="0 0 0 0 0.45098 0 0 0 0 0.45098 0 0 0 0 0.45098 0 0 0 0.05 0"/>
<feBlend mode="normal" in2="effect1_dropShadow_13346_62186" result="effect2_dropShadow_13346_62186"/>
<feColorMatrix in="SourceAlpha" type="matrix" values="0 0 0 0 0 0 0 0 0 0 0 0 0 0 0 0 0 0 127 0" result="hardAlpha"/>
<feOffset dy="6"/>
<feGaussianBlur stdDeviation="6"/>
<feColorMatrix type="matrix" values="0 0 0 0 0.45098 0 0 0 0 0.45098 0 0 0 0 0.45098 0 0 0 0.08 0"/>
<feBlend mode="normal" in2="effect2_dropShadow_13346_62186" result="effect3_dropShadow_13346_62186"/>
<feBlend mode="normal" in="SourceGraphic" in2="effect3_dropShadow_13346_62186" result="shape"/>
</filter>
<filter id="filter1_ddd_13346_62186" x="708" y="89" width="192" height="177" filterUnits="userSpaceOnUse" color-interpolation-filters="sRGB">
<feFlood flood-opacity="0" result="BackgroundImageFix"/>
<feColorMatrix in="SourceAlpha" type="matrix" values="0 0 0 0 0 0 0 0 0 0 0 0 0 0 0 0 0 0 127 0" result="hardAlpha"/>
<feOffset dy="2"/>
<feGaussianBlur stdDeviation="2"/>
<feColorMatrix type="matrix" values="0 0 0 0 0.45098 0 0 0 0 0.45098 0 0 0 0 0.45098 0 0 0 0.1 0"/>
<feBlend mode="normal" in2="BackgroundImageFix" result="effect1_dropShadow_13346_62186"/>
<feColorMatrix in="SourceAlpha" type="matrix" values="0 0 0 0 0 0 0 0 0 0 0 0 0 0 0 0 0 0 127 0" result="hardAlpha"/>
<feOffset dy="1"/>
<feGaussianBlur stdDeviation="8"/>
<feColorMatrix type="matrix" values="0 0 0 0 0.45098 0 0 0 0 0.45098 0 0 0 0 0.45098 0 0 0 0.05 0"/>
<feBlend mode="normal" in2="effect1_dropShadow_13346_62186" result="effect2_dropShadow_13346_62186"/>
<feColorMatrix in="SourceAlpha" type="matrix" values="0 0 0 0 0 0 0 0 0 0 0 0 0 0 0 0 0 0 127 0" result="hardAlpha"/>
<feOffset dy="6"/>
<feGaussianBlur stdDeviation="6"/>
<feColorMatrix type="matrix" values="0 0 0 0 0.45098 0 0 0 0 0.45098 0 0 0 0 0.45098 0 0 0 0.08 0"/>
<feBlend mode="normal" in2="effect2_dropShadow_13346_62186" result="effect3_dropShadow_13346_62186"/>
<feBlend mode="normal" in="SourceGraphic" in2="effect3_dropShadow_13346_62186" result="shape"/>
</filter>
</defs>
</svg>
