<svg width="390" height="264" viewBox="0 0 390 264" fill="none" xmlns="http://www.w3.org/2000/svg">
<rect width="390" height="264" rx="4" fill="#F8F8F8"/>
<rect x="243" y="40" width="32" height="32" rx="4" fill="#F2F2F2"/>
<path d="M265 56C265 56.5103 264.587 56.9234 264.077 56.9234H259.923V61.0772C259.923 61.5875 259.51 62 259 62C258.49 62 258.077 61.5875 258.077 61.0772V56.9234H253.923C253.413 56.9234 253 56.5103 253 56C253 55.4897 253.413 55.0772 253.923 55.0772H258.077V50.9234C258.077 50.4131 258.49 50 259 50C259.51 50 259.923 50.4131 259.923 50.9234V55.0772H264.077C264.588 55.0769 265 55.4894 265 56Z" fill="#1A1A1A"/>
<rect x="243" y="40" width="32" height="32" rx="4" stroke="#1A1A1A" stroke-width="2"/>
<g filter="url(#filter0_ddd_1709_35236)">
<rect x="115" y="80" width="160" height="156" rx="8" fill="white"/>
<path d="M132.276 104C132.276 102.526 133.471 101.375 135 101.375C136.504 101.375 137.724 102.526 137.724 104C137.724 105.449 136.504 106.625 135 106.625C133.471 106.625 132.276 105.449 132.276 104ZM135 102.688C134.248 102.688 133.638 103.275 133.638 104C133.638 104.725 134.248 105.312 135 105.312C135.752 105.312 136.362 104.725 136.362 104C136.362 103.275 135.752 102.688 135 102.688ZM136.053 97C136.683 97 137.231 97.4154 137.378 98.0046L137.6 98.8925C137.841 99.0059 138.071 99.1347 138.289 99.2772L139.2 99.0188C139.804 98.8473 140.451 99.0964 140.766 99.6214L141.819 101.378C142.131 101.903 142.032 102.567 141.578 102.986L140.888 103.593C140.897 103.743 140.903 103.871 140.903 104C140.903 104.129 140.897 104.257 140.888 104.383L141.578 105.014C142.032 105.433 142.131 106.097 141.819 106.622L140.766 108.378C140.451 108.903 139.804 109.152 139.2 108.982L138.289 108.722C138.071 108.864 137.841 108.993 137.6 109.108L137.378 109.996C137.231 110.584 136.683 111 136.053 111H133.947C133.317 111 132.77 110.584 132.622 109.996L132.401 109.108C132.16 108.993 131.93 108.864 131.711 108.722L130.775 108.982C130.197 109.152 129.55 108.903 129.235 108.378L128.183 106.622C127.868 106.097 127.967 105.433 128.423 105.014L129.111 104.383C129.102 104.257 129.098 104.129 129.098 103.975C129.098 103.871 129.102 103.743 129.111 103.593L128.423 102.986C127.967 102.567 127.868 101.903 128.183 101.378L129.235 99.6214C129.55 99.0964 130.197 98.8473 130.775 99.0188L131.711 99.2772C131.93 99.1347 132.16 99.0059 132.401 98.8925L132.622 98.0046C132.77 97.4151 133.317 97 133.947 97L136.053 97ZM133.567 99.8328L133.249 99.9613C132.889 100.106 132.554 100.295 132.25 100.519L131.975 100.721L130.415 100.279L129.362 102.034L130.54 103.114L130.496 103.442C130.472 103.625 130.46 103.811 130.46 104C130.46 104.189 130.472 104.375 130.496 104.558L130.54 104.886L129.362 105.966L130.415 107.721L131.975 107.279L132.25 107.481C132.554 107.705 132.889 107.894 133.249 108.039L133.567 108.167L133.947 109.688H136.053L136.433 108.167L136.751 108.039C137.111 107.894 137.446 107.705 137.75 107.481L138.025 107.279L139.586 107.721L140.639 105.966L139.461 104.886L139.504 104.558C139.529 104.375 139.541 104.189 139.541 104C139.541 103.811 139.529 103.625 139.504 103.442L139.461 103.114L140.639 102.034L139.586 100.279L138.025 100.721L137.75 100.519C137.446 100.295 137.111 100.106 136.751 99.9613L136.433 99.8328L136.053 98.3125H133.947L133.567 99.8328Z" fill="#505050"/>
<path d="M159.188 103.087V103.671C159.188 104.365 159.102 104.987 158.928 105.537C158.755 106.087 158.505 106.555 158.179 106.94C157.853 107.325 157.462 107.619 157.005 107.822C156.552 108.025 156.044 108.127 155.481 108.127C154.936 108.127 154.434 108.025 153.977 107.822C153.524 107.619 153.131 107.325 152.796 106.94C152.466 106.555 152.21 106.087 152.028 105.537C151.846 104.987 151.755 104.365 151.755 103.671V103.087C151.755 102.393 151.844 101.773 152.022 101.227C152.204 100.677 152.46 100.209 152.79 99.8242C153.12 99.4349 153.512 99.1387 153.964 98.9355C154.421 98.7324 154.923 98.6309 155.469 98.6309C156.032 98.6309 156.539 98.7324 156.992 98.9355C157.449 99.1387 157.841 99.4349 158.167 99.8242C158.497 100.209 158.748 100.677 158.922 101.227C159.1 101.773 159.188 102.393 159.188 103.087ZM157.976 103.671V103.074C157.976 102.524 157.919 102.037 157.805 101.614C157.695 101.191 157.532 100.836 157.316 100.548C157.1 100.26 156.836 100.042 156.522 99.894C156.214 99.7459 155.862 99.6719 155.469 99.6719C155.088 99.6719 154.743 99.7459 154.434 99.894C154.129 100.042 153.867 100.26 153.647 100.548C153.431 100.836 153.264 101.191 153.146 101.614C153.027 102.037 152.968 102.524 152.968 103.074V103.671C152.968 104.225 153.027 104.716 153.146 105.144C153.264 105.567 153.433 105.924 153.653 106.216C153.878 106.504 154.142 106.722 154.447 106.87C154.756 107.018 155.101 107.092 155.481 107.092C155.879 107.092 156.233 107.018 156.542 106.87C156.85 106.722 157.111 106.504 157.322 106.216C157.538 105.924 157.701 105.567 157.811 105.144C157.921 104.716 157.976 104.225 157.976 103.671ZM162.02 102.452V110.641H160.839V101.132H161.918L162.02 102.452ZM166.647 104.509V104.642C166.647 105.141 166.588 105.605 166.469 106.032C166.351 106.455 166.177 106.824 165.949 107.137C165.724 107.45 165.447 107.693 165.117 107.867C164.787 108.04 164.408 108.127 163.981 108.127C163.545 108.127 163.16 108.055 162.826 107.911C162.491 107.767 162.208 107.558 161.975 107.283C161.742 107.008 161.556 106.678 161.417 106.292C161.281 105.907 161.188 105.474 161.137 104.991V104.28C161.188 103.772 161.283 103.318 161.423 102.916C161.562 102.514 161.747 102.171 161.975 101.887C162.208 101.599 162.489 101.382 162.819 101.233C163.149 101.081 163.53 101.005 163.962 101.005C164.394 101.005 164.777 101.09 165.111 101.259C165.445 101.424 165.727 101.661 165.955 101.97C166.184 102.279 166.355 102.649 166.469 103.081C166.588 103.508 166.647 103.984 166.647 104.509ZM165.466 104.642V104.509C165.466 104.166 165.43 103.844 165.358 103.544C165.286 103.239 165.174 102.973 165.022 102.744C164.874 102.511 164.683 102.329 164.451 102.198C164.218 102.063 163.941 101.995 163.619 101.995C163.323 101.995 163.065 102.046 162.845 102.147C162.629 102.249 162.445 102.387 162.292 102.56C162.14 102.729 162.015 102.924 161.918 103.144C161.825 103.36 161.755 103.584 161.708 103.817V105.461C161.793 105.757 161.912 106.036 162.064 106.299C162.216 106.557 162.419 106.766 162.673 106.927C162.927 107.084 163.247 107.162 163.632 107.162C163.949 107.162 164.222 107.097 164.451 106.965C164.683 106.83 164.874 106.646 165.022 106.413C165.174 106.18 165.286 105.914 165.358 105.613C165.43 105.309 165.466 104.985 165.466 104.642ZM171.021 101.132V102.033H167.307V101.132H171.021ZM168.564 99.4624H169.738V106.299C169.738 106.532 169.774 106.707 169.846 106.826C169.918 106.944 170.011 107.022 170.125 107.061C170.24 107.099 170.362 107.118 170.494 107.118C170.591 107.118 170.693 107.109 170.798 107.092C170.908 107.071 170.991 107.054 171.046 107.042L171.052 108C170.959 108.03 170.836 108.057 170.684 108.083C170.536 108.112 170.356 108.127 170.145 108.127C169.857 108.127 169.592 108.07 169.351 107.956C169.11 107.841 168.917 107.651 168.773 107.384C168.634 107.113 168.564 106.75 168.564 106.292V99.4624ZM173.674 101.132V108H172.493V101.132H173.674ZM172.404 99.3101C172.404 99.1196 172.461 98.9588 172.576 98.8276C172.694 98.6965 172.868 98.6309 173.096 98.6309C173.32 98.6309 173.492 98.6965 173.61 98.8276C173.733 98.9588 173.794 99.1196 173.794 99.3101C173.794 99.492 173.733 99.6486 173.61 99.7798C173.492 99.9067 173.32 99.9702 173.096 99.9702C172.868 99.9702 172.694 99.9067 172.576 99.7798C172.461 99.6486 172.404 99.492 172.404 99.3101ZM175.248 104.642V104.496C175.248 104.001 175.32 103.542 175.464 103.119C175.608 102.691 175.815 102.321 176.086 102.008C176.357 101.69 176.685 101.445 177.07 101.271C177.455 101.094 177.887 101.005 178.365 101.005C178.847 101.005 179.281 101.094 179.666 101.271C180.055 101.445 180.385 101.69 180.656 102.008C180.931 102.321 181.141 102.691 181.285 103.119C181.429 103.542 181.5 104.001 181.5 104.496V104.642C181.5 105.137 181.429 105.596 181.285 106.02C181.141 106.443 180.931 106.813 180.656 107.13C180.385 107.444 180.057 107.689 179.672 107.867C179.292 108.04 178.86 108.127 178.377 108.127C177.895 108.127 177.461 108.04 177.076 107.867C176.691 107.689 176.361 107.444 176.086 107.13C175.815 106.813 175.608 106.443 175.464 106.02C175.32 105.596 175.248 105.137 175.248 104.642ZM176.422 104.496V104.642C176.422 104.985 176.463 105.309 176.543 105.613C176.623 105.914 176.744 106.18 176.905 106.413C177.07 106.646 177.275 106.83 177.521 106.965C177.766 107.097 178.052 107.162 178.377 107.162C178.699 107.162 178.98 107.097 179.222 106.965C179.467 106.83 179.67 106.646 179.831 106.413C179.992 106.18 180.112 105.914 180.193 105.613C180.278 105.309 180.32 104.985 180.32 104.642V104.496C180.32 104.158 180.278 103.838 180.193 103.538C180.112 103.233 179.99 102.964 179.825 102.731C179.664 102.494 179.461 102.308 179.215 102.173C178.974 102.037 178.691 101.97 178.365 101.97C178.043 101.97 177.76 102.037 177.514 102.173C177.273 102.308 177.07 102.494 176.905 102.731C176.744 102.964 176.623 103.233 176.543 103.538C176.463 103.838 176.422 104.158 176.422 104.496ZM184.147 102.598V108H182.973V101.132H184.084L184.147 102.598ZM183.868 104.306L183.379 104.287C183.384 103.817 183.453 103.383 183.589 102.985C183.724 102.583 183.915 102.234 184.16 101.938C184.406 101.642 184.698 101.413 185.036 101.252C185.379 101.087 185.758 101.005 186.172 101.005C186.511 101.005 186.816 101.051 187.086 101.145C187.357 101.233 187.588 101.377 187.778 101.576C187.973 101.775 188.121 102.033 188.223 102.351C188.324 102.664 188.375 103.047 188.375 103.5V108H187.194V103.487C187.194 103.127 187.141 102.839 187.036 102.624C186.93 102.403 186.775 102.245 186.572 102.147C186.369 102.046 186.119 101.995 185.823 101.995C185.531 101.995 185.265 102.056 185.023 102.179C184.786 102.302 184.581 102.471 184.408 102.687C184.238 102.903 184.105 103.15 184.008 103.43C183.915 103.705 183.868 103.997 183.868 104.306ZM200.677 103.087V103.671C200.677 104.365 200.59 104.987 200.417 105.537C200.243 106.087 199.993 106.555 199.667 106.94C199.342 107.325 198.95 107.619 198.493 107.822C198.04 108.025 197.533 108.127 196.97 108.127C196.424 108.127 195.922 108.025 195.465 107.822C195.013 107.619 194.619 107.325 194.285 106.94C193.955 106.555 193.699 106.087 193.517 105.537C193.335 104.987 193.244 104.365 193.244 103.671V103.087C193.244 102.393 193.333 101.773 193.51 101.227C193.692 100.677 193.948 100.209 194.278 99.8242C194.608 99.4349 195 99.1387 195.453 98.9355C195.91 98.7324 196.411 98.6309 196.957 98.6309C197.52 98.6309 198.028 98.7324 198.48 98.9355C198.938 99.1387 199.329 99.4349 199.655 99.8242C199.985 100.209 200.237 100.677 200.41 101.227C200.588 101.773 200.677 102.393 200.677 103.087ZM199.464 103.671V103.074C199.464 102.524 199.407 102.037 199.293 101.614C199.183 101.191 199.02 100.836 198.804 100.548C198.588 100.26 198.324 100.042 198.011 99.894C197.702 99.7459 197.351 99.6719 196.957 99.6719C196.576 99.6719 196.231 99.7459 195.922 99.894C195.618 100.042 195.355 100.26 195.135 100.548C194.919 100.836 194.752 101.191 194.634 101.614C194.515 102.037 194.456 102.524 194.456 103.074V103.671C194.456 104.225 194.515 104.716 194.634 105.144C194.752 105.567 194.922 105.924 195.142 106.216C195.366 106.504 195.63 106.722 195.935 106.87C196.244 107.018 196.589 107.092 196.97 107.092C197.368 107.092 197.721 107.018 198.03 106.87C198.339 106.722 198.599 106.504 198.811 106.216C199.026 105.924 199.189 105.567 199.299 105.144C199.409 104.716 199.464 104.225 199.464 103.671ZM203.508 102.598V108H202.333V101.132H203.444L203.508 102.598ZM203.229 104.306L202.74 104.287C202.744 103.817 202.814 103.383 202.949 102.985C203.085 102.583 203.275 102.234 203.521 101.938C203.766 101.642 204.058 101.413 204.396 101.252C204.739 101.087 205.118 101.005 205.533 101.005C205.871 101.005 206.176 101.051 206.447 101.145C206.718 101.233 206.948 101.377 207.139 101.576C207.333 101.775 207.481 102.033 207.583 102.351C207.685 102.664 207.735 103.047 207.735 103.5V108H206.555V103.487C206.555 103.127 206.502 102.839 206.396 102.624C206.29 102.403 206.136 102.245 205.933 102.147C205.729 102.046 205.48 101.995 205.184 101.995C204.892 101.995 204.625 102.056 204.384 102.179C204.147 102.302 203.942 102.471 203.768 102.687C203.599 102.903 203.465 103.15 203.368 103.43C203.275 103.705 203.229 103.997 203.229 104.306ZM212.369 108.127C211.891 108.127 211.457 108.047 211.068 107.886C210.683 107.721 210.351 107.49 210.071 107.194C209.796 106.898 209.585 106.546 209.437 106.14C209.288 105.734 209.214 105.29 209.214 104.807V104.541C209.214 103.982 209.297 103.485 209.462 103.049C209.627 102.609 209.851 102.236 210.135 101.932C210.418 101.627 210.74 101.396 211.1 101.24C211.459 101.083 211.832 101.005 212.217 101.005C212.708 101.005 213.131 101.09 213.486 101.259C213.846 101.428 214.14 101.665 214.369 101.97C214.597 102.27 214.766 102.626 214.876 103.036C214.986 103.442 215.042 103.887 215.042 104.369V104.896H209.913V103.938H213.867V103.849C213.85 103.544 213.787 103.248 213.677 102.96C213.571 102.672 213.402 102.435 213.169 102.249C212.936 102.063 212.619 101.97 212.217 101.97C211.95 101.97 211.705 102.027 211.48 102.141C211.256 102.251 211.064 102.416 210.903 102.636C210.742 102.856 210.617 103.125 210.528 103.442C210.439 103.76 210.395 104.126 210.395 104.541V104.807C210.395 105.133 210.439 105.44 210.528 105.728C210.621 106.011 210.755 106.261 210.928 106.477C211.106 106.692 211.32 106.862 211.569 106.984C211.823 107.107 212.111 107.168 212.433 107.168C212.847 107.168 213.199 107.084 213.486 106.915C213.774 106.745 214.026 106.519 214.242 106.235L214.953 106.8C214.805 107.025 214.616 107.238 214.388 107.441C214.159 107.645 213.878 107.81 213.543 107.937C213.213 108.063 212.822 108.127 212.369 108.127Z" fill="#505050"/>
<rect width="160" height="32" transform="translate(115 124)" fill="#F2F2F2"/>
<path d="M132.276 140C132.276 138.526 133.471 137.375 135 137.375C136.504 137.375 137.724 138.526 137.724 140C137.724 141.449 136.504 142.625 135 142.625C133.471 142.625 132.276 141.449 132.276 140ZM135 138.688C134.248 138.688 133.638 139.275 133.638 140C133.638 140.725 134.248 141.312 135 141.312C135.752 141.312 136.362 140.725 136.362 140C136.362 139.275 135.752 138.688 135 138.688ZM136.053 133C136.683 133 137.231 133.415 137.378 134.005L137.6 134.892C137.841 135.006 138.071 135.135 138.289 135.277L139.2 135.019C139.804 134.847 140.451 135.096 140.766 135.621L141.819 137.378C142.131 137.903 142.032 138.567 141.578 138.986L140.888 139.593C140.897 139.743 140.903 139.871 140.903 140C140.903 140.129 140.897 140.257 140.888 140.383L141.578 141.014C142.032 141.433 142.131 142.097 141.819 142.622L140.766 144.378C140.451 144.903 139.804 145.152 139.2 144.982L138.289 144.722C138.071 144.864 137.841 144.993 137.6 145.108L137.378 145.996C137.231 146.584 136.683 147 136.053 147H133.947C133.317 147 132.77 146.584 132.622 145.996L132.401 145.108C132.16 144.993 131.93 144.864 131.711 144.722L130.775 144.982C130.197 145.152 129.55 144.903 129.235 144.378L128.183 142.622C127.868 142.097 127.967 141.433 128.423 141.014L129.111 140.383C129.102 140.257 129.098 140.129 129.098 139.975C129.098 139.871 129.102 139.743 129.111 139.593L128.423 138.986C127.967 138.567 127.868 137.903 128.183 137.378L129.235 135.621C129.55 135.096 130.197 134.847 130.775 135.019L131.711 135.277C131.93 135.135 132.16 135.006 132.401 134.892L132.622 134.005C132.77 133.415 133.317 133 133.947 133L136.053 133ZM133.567 135.833L133.249 135.961C132.889 136.106 132.554 136.295 132.25 136.519L131.975 136.721L130.415 136.279L129.362 138.034L130.54 139.114L130.496 139.442C130.472 139.625 130.46 139.811 130.46 140C130.46 140.189 130.472 140.375 130.496 140.558L130.54 140.886L129.362 141.966L130.415 143.721L131.975 143.279L132.25 143.481C132.554 143.705 132.889 143.894 133.249 144.039L133.567 144.167L133.947 145.688H136.053L136.433 144.167L136.751 144.039C137.111 143.894 137.446 143.705 137.75 143.481L138.025 143.279L139.586 143.721L140.639 141.966L139.461 140.886L139.504 140.558C139.529 140.375 139.541 140.189 139.541 140C139.541 139.811 139.529 139.625 139.504 139.442L139.461 139.114L140.639 138.034L139.586 136.279L138.025 136.721L137.75 136.519C137.446 136.295 137.111 136.106 136.751 135.961L136.433 135.833L136.053 134.312H133.947L133.567 135.833Z" fill="#505050"/>
<path d="M159.188 139.087V139.671C159.188 140.365 159.102 140.987 158.928 141.537C158.755 142.087 158.505 142.555 158.179 142.94C157.853 143.325 157.462 143.619 157.005 143.822C156.552 144.025 156.044 144.127 155.481 144.127C154.936 144.127 154.434 144.025 153.977 143.822C153.524 143.619 153.131 143.325 152.796 142.94C152.466 142.555 152.21 142.087 152.028 141.537C151.846 140.987 151.755 140.365 151.755 139.671V139.087C151.755 138.393 151.844 137.773 152.022 137.227C152.204 136.677 152.46 136.209 152.79 135.824C153.12 135.435 153.512 135.139 153.964 134.936C154.421 134.732 154.923 134.631 155.469 134.631C156.032 134.631 156.539 134.732 156.992 134.936C157.449 135.139 157.841 135.435 158.167 135.824C158.497 136.209 158.748 136.677 158.922 137.227C159.1 137.773 159.188 138.393 159.188 139.087ZM157.976 139.671V139.074C157.976 138.524 157.919 138.037 157.805 137.614C157.695 137.191 157.532 136.836 157.316 136.548C157.1 136.26 156.836 136.042 156.522 135.894C156.214 135.746 155.862 135.672 155.469 135.672C155.088 135.672 154.743 135.746 154.434 135.894C154.129 136.042 153.867 136.26 153.647 136.548C153.431 136.836 153.264 137.191 153.146 137.614C153.027 138.037 152.968 138.524 152.968 139.074V139.671C152.968 140.225 153.027 140.716 153.146 141.144C153.264 141.567 153.433 141.924 153.653 142.216C153.878 142.504 154.142 142.722 154.447 142.87C154.756 143.018 155.101 143.092 155.481 143.092C155.879 143.092 156.233 143.018 156.542 142.87C156.85 142.722 157.111 142.504 157.322 142.216C157.538 141.924 157.701 141.567 157.811 141.144C157.921 140.716 157.976 140.225 157.976 139.671ZM162.02 138.452V146.641H160.839V137.132H161.918L162.02 138.452ZM166.647 140.509V140.642C166.647 141.141 166.588 141.605 166.469 142.032C166.351 142.455 166.177 142.824 165.949 143.137C165.724 143.45 165.447 143.693 165.117 143.867C164.787 144.04 164.408 144.127 163.981 144.127C163.545 144.127 163.16 144.055 162.826 143.911C162.491 143.767 162.208 143.558 161.975 143.283C161.742 143.008 161.556 142.678 161.417 142.292C161.281 141.907 161.188 141.474 161.137 140.991V140.28C161.188 139.772 161.283 139.318 161.423 138.916C161.562 138.514 161.747 138.171 161.975 137.887C162.208 137.599 162.489 137.382 162.819 137.233C163.149 137.081 163.53 137.005 163.962 137.005C164.394 137.005 164.777 137.09 165.111 137.259C165.445 137.424 165.727 137.661 165.955 137.97C166.184 138.279 166.355 138.649 166.469 139.081C166.588 139.508 166.647 139.984 166.647 140.509ZM165.466 140.642V140.509C165.466 140.166 165.43 139.844 165.358 139.544C165.286 139.239 165.174 138.973 165.022 138.744C164.874 138.511 164.683 138.329 164.451 138.198C164.218 138.063 163.941 137.995 163.619 137.995C163.323 137.995 163.065 138.046 162.845 138.147C162.629 138.249 162.445 138.387 162.292 138.56C162.14 138.729 162.015 138.924 161.918 139.144C161.825 139.36 161.755 139.584 161.708 139.817V141.461C161.793 141.757 161.912 142.036 162.064 142.299C162.216 142.557 162.419 142.766 162.673 142.927C162.927 143.084 163.247 143.162 163.632 143.162C163.949 143.162 164.222 143.097 164.451 142.965C164.683 142.83 164.874 142.646 165.022 142.413C165.174 142.18 165.286 141.914 165.358 141.613C165.43 141.309 165.466 140.985 165.466 140.642ZM171.021 137.132V138.033H167.307V137.132H171.021ZM168.564 135.462H169.738V142.299C169.738 142.532 169.774 142.707 169.846 142.826C169.918 142.944 170.011 143.022 170.125 143.061C170.24 143.099 170.362 143.118 170.494 143.118C170.591 143.118 170.693 143.109 170.798 143.092C170.908 143.071 170.991 143.054 171.046 143.042L171.052 144C170.959 144.03 170.836 144.057 170.684 144.083C170.536 144.112 170.356 144.127 170.145 144.127C169.857 144.127 169.592 144.07 169.351 143.956C169.11 143.841 168.917 143.651 168.773 143.384C168.634 143.113 168.564 142.75 168.564 142.292V135.462ZM173.674 137.132V144H172.493V137.132H173.674ZM172.404 135.31C172.404 135.12 172.461 134.959 172.576 134.828C172.694 134.696 172.868 134.631 173.096 134.631C173.32 134.631 173.492 134.696 173.61 134.828C173.733 134.959 173.794 135.12 173.794 135.31C173.794 135.492 173.733 135.649 173.61 135.78C173.492 135.907 173.32 135.97 173.096 135.97C172.868 135.97 172.694 135.907 172.576 135.78C172.461 135.649 172.404 135.492 172.404 135.31ZM175.248 140.642V140.496C175.248 140.001 175.32 139.542 175.464 139.119C175.608 138.691 175.815 138.321 176.086 138.008C176.357 137.69 176.685 137.445 177.07 137.271C177.455 137.094 177.887 137.005 178.365 137.005C178.847 137.005 179.281 137.094 179.666 137.271C180.055 137.445 180.385 137.69 180.656 138.008C180.931 138.321 181.141 138.691 181.285 139.119C181.429 139.542 181.5 140.001 181.5 140.496V140.642C181.5 141.137 181.429 141.596 181.285 142.02C181.141 142.443 180.931 142.813 180.656 143.13C180.385 143.444 180.057 143.689 179.672 143.867C179.292 144.04 178.86 144.127 178.377 144.127C177.895 144.127 177.461 144.04 177.076 143.867C176.691 143.689 176.361 143.444 176.086 143.13C175.815 142.813 175.608 142.443 175.464 142.02C175.32 141.596 175.248 141.137 175.248 140.642ZM176.422 140.496V140.642C176.422 140.985 176.463 141.309 176.543 141.613C176.623 141.914 176.744 142.18 176.905 142.413C177.07 142.646 177.275 142.83 177.521 142.965C177.766 143.097 178.052 143.162 178.377 143.162C178.699 143.162 178.98 143.097 179.222 142.965C179.467 142.83 179.67 142.646 179.831 142.413C179.992 142.18 180.112 141.914 180.193 141.613C180.278 141.309 180.32 140.985 180.32 140.642V140.496C180.32 140.158 180.278 139.838 180.193 139.538C180.112 139.233 179.99 138.964 179.825 138.731C179.664 138.494 179.461 138.308 179.215 138.173C178.974 138.037 178.691 137.97 178.365 137.97C178.043 137.97 177.76 138.037 177.514 138.173C177.273 138.308 177.07 138.494 176.905 138.731C176.744 138.964 176.623 139.233 176.543 139.538C176.463 139.838 176.422 140.158 176.422 140.496ZM184.147 138.598V144H182.973V137.132H184.084L184.147 138.598ZM183.868 140.306L183.379 140.287C183.384 139.817 183.453 139.383 183.589 138.985C183.724 138.583 183.915 138.234 184.16 137.938C184.406 137.642 184.698 137.413 185.036 137.252C185.379 137.087 185.758 137.005 186.172 137.005C186.511 137.005 186.816 137.051 187.086 137.145C187.357 137.233 187.588 137.377 187.778 137.576C187.973 137.775 188.121 138.033 188.223 138.351C188.324 138.664 188.375 139.047 188.375 139.5V144H187.194V139.487C187.194 139.127 187.141 138.839 187.036 138.624C186.93 138.403 186.775 138.245 186.572 138.147C186.369 138.046 186.119 137.995 185.823 137.995C185.531 137.995 185.265 138.056 185.023 138.179C184.786 138.302 184.581 138.471 184.408 138.687C184.238 138.903 184.105 139.15 184.008 139.43C183.915 139.705 183.868 139.997 183.868 140.306ZM196.722 134.758V144H195.516V134.758H196.722ZM199.693 134.758V135.761H192.552V134.758H199.693ZM202.257 142.781L204.022 137.132H204.796L204.644 138.255L202.848 144H202.092L202.257 142.781ZM201.07 137.132L202.575 142.845L202.683 144H201.889L199.896 137.132H201.07ZM206.485 142.8L207.919 137.132H209.087L207.094 144H206.307L206.485 142.8ZM204.968 137.132L206.694 142.686L206.891 144H206.142L204.295 138.243L204.143 137.132H204.968ZM209.982 140.642V140.496C209.982 140.001 210.054 139.542 210.198 139.119C210.342 138.691 210.549 138.321 210.82 138.008C211.091 137.69 211.419 137.445 211.804 137.271C212.189 137.094 212.621 137.005 213.099 137.005C213.582 137.005 214.015 137.094 214.4 137.271C214.79 137.445 215.12 137.69 215.391 138.008C215.666 138.321 215.875 138.691 216.019 139.119C216.163 139.542 216.235 140.001 216.235 140.496V140.642C216.235 141.137 216.163 141.596 216.019 142.02C215.875 142.443 215.666 142.813 215.391 143.13C215.12 143.444 214.792 143.689 214.407 143.867C214.026 144.04 213.594 144.127 213.112 144.127C212.629 144.127 212.196 144.04 211.811 143.867C211.425 143.689 211.095 143.444 210.82 143.13C210.549 142.813 210.342 142.443 210.198 142.02C210.054 141.596 209.982 141.137 209.982 140.642ZM211.157 140.496V140.642C211.157 140.985 211.197 141.309 211.277 141.613C211.358 141.914 211.478 142.18 211.639 142.413C211.804 142.646 212.009 142.83 212.255 142.965C212.5 143.097 212.786 143.162 213.112 143.162C213.433 143.162 213.715 143.097 213.956 142.965C214.201 142.83 214.405 142.646 214.565 142.413C214.726 142.18 214.847 141.914 214.927 141.613C215.012 141.309 215.054 140.985 215.054 140.642V140.496C215.054 140.158 215.012 139.838 214.927 139.538C214.847 139.233 214.724 138.964 214.559 138.731C214.398 138.494 214.195 138.308 213.95 138.173C213.708 138.037 213.425 137.97 213.099 137.97C212.778 137.97 212.494 138.037 212.249 138.173C212.007 138.308 211.804 138.494 211.639 138.731C211.478 138.964 211.358 139.233 211.277 139.538C211.197 139.838 211.157 140.158 211.157 140.496Z" fill="#1A1A1A"/>
<path d="M132.276 176C132.276 174.526 133.471 173.375 135 173.375C136.504 173.375 137.724 174.526 137.724 176C137.724 177.449 136.504 178.625 135 178.625C133.471 178.625 132.276 177.449 132.276 176ZM135 174.688C134.248 174.688 133.638 175.275 133.638 176C133.638 176.725 134.248 177.312 135 177.312C135.752 177.312 136.362 176.725 136.362 176C136.362 175.275 135.752 174.688 135 174.688ZM136.053 169C136.683 169 137.231 169.415 137.378 170.005L137.6 170.892C137.841 171.006 138.071 171.135 138.289 171.277L139.2 171.019C139.804 170.847 140.451 171.096 140.766 171.621L141.819 173.378C142.131 173.903 142.032 174.567 141.578 174.986L140.888 175.593C140.897 175.743 140.903 175.871 140.903 176C140.903 176.129 140.897 176.257 140.888 176.383L141.578 177.014C142.032 177.433 142.131 178.097 141.819 178.622L140.766 180.378C140.451 180.903 139.804 181.152 139.2 180.982L138.289 180.722C138.071 180.864 137.841 180.993 137.6 181.108L137.378 181.996C137.231 182.584 136.683 183 136.053 183H133.947C133.317 183 132.77 182.584 132.622 181.996L132.401 181.108C132.16 180.993 131.93 180.864 131.711 180.722L130.775 180.982C130.197 181.152 129.55 180.903 129.235 180.378L128.183 178.622C127.868 178.097 127.967 177.433 128.423 177.014L129.111 176.383C129.102 176.257 129.098 176.129 129.098 175.975C129.098 175.871 129.102 175.743 129.111 175.593L128.423 174.986C127.967 174.567 127.868 173.903 128.183 173.378L129.235 171.621C129.55 171.096 130.197 170.847 130.775 171.019L131.711 171.277C131.93 171.135 132.16 171.006 132.401 170.892L132.622 170.005C132.77 169.415 133.317 169 133.947 169L136.053 169ZM133.567 171.833L133.249 171.961C132.889 172.106 132.554 172.295 132.25 172.519L131.975 172.721L130.415 172.279L129.362 174.034L130.54 175.114L130.496 175.442C130.472 175.625 130.46 175.811 130.46 176C130.46 176.189 130.472 176.375 130.496 176.558L130.54 176.886L129.362 177.966L130.415 179.721L131.975 179.279L132.25 179.481C132.554 179.705 132.889 179.894 133.249 180.039L133.567 180.167L133.947 181.688H136.053L136.433 180.167L136.751 180.039C137.111 179.894 137.446 179.705 137.75 179.481L138.025 179.279L139.586 179.721L140.639 177.966L139.461 176.886L139.504 176.558C139.529 176.375 139.541 176.189 139.541 176C139.541 175.811 139.529 175.625 139.504 175.442L139.461 175.114L140.639 174.034L139.586 172.279L138.025 172.721L137.75 172.519C137.446 172.295 137.111 172.106 136.751 171.961L136.433 171.833L136.053 170.312H133.947L133.567 171.833Z" fill="#505050"/>
<path d="M159.188 175.087V175.671C159.188 176.365 159.102 176.987 158.928 177.537C158.755 178.087 158.505 178.555 158.179 178.94C157.853 179.325 157.462 179.619 157.005 179.822C156.552 180.025 156.044 180.127 155.481 180.127C154.936 180.127 154.434 180.025 153.977 179.822C153.524 179.619 153.131 179.325 152.796 178.94C152.466 178.555 152.21 178.087 152.028 177.537C151.846 176.987 151.755 176.365 151.755 175.671V175.087C151.755 174.393 151.844 173.773 152.022 173.227C152.204 172.677 152.46 172.209 152.79 171.824C153.12 171.435 153.512 171.139 153.964 170.936C154.421 170.732 154.923 170.631 155.469 170.631C156.032 170.631 156.539 170.732 156.992 170.936C157.449 171.139 157.841 171.435 158.167 171.824C158.497 172.209 158.748 172.677 158.922 173.227C159.1 173.773 159.188 174.393 159.188 175.087ZM157.976 175.671V175.074C157.976 174.524 157.919 174.037 157.805 173.614C157.695 173.191 157.532 172.836 157.316 172.548C157.1 172.26 156.836 172.042 156.522 171.894C156.214 171.746 155.862 171.672 155.469 171.672C155.088 171.672 154.743 171.746 154.434 171.894C154.129 172.042 153.867 172.26 153.647 172.548C153.431 172.836 153.264 173.191 153.146 173.614C153.027 174.037 152.968 174.524 152.968 175.074V175.671C152.968 176.225 153.027 176.716 153.146 177.144C153.264 177.567 153.433 177.924 153.653 178.216C153.878 178.504 154.142 178.722 154.447 178.87C154.756 179.018 155.101 179.092 155.481 179.092C155.879 179.092 156.233 179.018 156.542 178.87C156.85 178.722 157.111 178.504 157.322 178.216C157.538 177.924 157.701 177.567 157.811 177.144C157.921 176.716 157.976 176.225 157.976 175.671ZM162.02 174.452V182.641H160.839V173.132H161.918L162.02 174.452ZM166.647 176.509V176.642C166.647 177.141 166.588 177.605 166.469 178.032C166.351 178.455 166.177 178.824 165.949 179.137C165.724 179.45 165.447 179.693 165.117 179.867C164.787 180.04 164.408 180.127 163.981 180.127C163.545 180.127 163.16 180.055 162.826 179.911C162.491 179.767 162.208 179.558 161.975 179.283C161.742 179.008 161.556 178.678 161.417 178.292C161.281 177.907 161.188 177.474 161.137 176.991V176.28C161.188 175.772 161.283 175.318 161.423 174.916C161.562 174.514 161.747 174.171 161.975 173.887C162.208 173.599 162.489 173.382 162.819 173.233C163.149 173.081 163.53 173.005 163.962 173.005C164.394 173.005 164.777 173.09 165.111 173.259C165.445 173.424 165.727 173.661 165.955 173.97C166.184 174.279 166.355 174.649 166.469 175.081C166.588 175.508 166.647 175.984 166.647 176.509ZM165.466 176.642V176.509C165.466 176.166 165.43 175.844 165.358 175.544C165.286 175.239 165.174 174.973 165.022 174.744C164.874 174.511 164.683 174.329 164.451 174.198C164.218 174.063 163.941 173.995 163.619 173.995C163.323 173.995 163.065 174.046 162.845 174.147C162.629 174.249 162.445 174.387 162.292 174.56C162.14 174.729 162.015 174.924 161.918 175.144C161.825 175.36 161.755 175.584 161.708 175.817V177.461C161.793 177.757 161.912 178.036 162.064 178.299C162.216 178.557 162.419 178.766 162.673 178.927C162.927 179.084 163.247 179.162 163.632 179.162C163.949 179.162 164.222 179.097 164.451 178.965C164.683 178.83 164.874 178.646 165.022 178.413C165.174 178.18 165.286 177.914 165.358 177.613C165.43 177.309 165.466 176.985 165.466 176.642ZM171.021 173.132V174.033H167.307V173.132H171.021ZM168.564 171.462H169.738V178.299C169.738 178.532 169.774 178.707 169.846 178.826C169.918 178.944 170.011 179.022 170.125 179.061C170.24 179.099 170.362 179.118 170.494 179.118C170.591 179.118 170.693 179.109 170.798 179.092C170.908 179.071 170.991 179.054 171.046 179.042L171.052 180C170.959 180.03 170.836 180.057 170.684 180.083C170.536 180.112 170.356 180.127 170.145 180.127C169.857 180.127 169.592 180.07 169.351 179.956C169.11 179.841 168.917 179.651 168.773 179.384C168.634 179.113 168.564 178.75 168.564 178.292V171.462ZM173.674 173.132V180H172.493V173.132H173.674ZM172.404 171.31C172.404 171.12 172.461 170.959 172.576 170.828C172.694 170.696 172.868 170.631 173.096 170.631C173.32 170.631 173.492 170.696 173.61 170.828C173.733 170.959 173.794 171.12 173.794 171.31C173.794 171.492 173.733 171.649 173.61 171.78C173.492 171.907 173.32 171.97 173.096 171.97C172.868 171.97 172.694 171.907 172.576 171.78C172.461 171.649 172.404 171.492 172.404 171.31ZM175.248 176.642V176.496C175.248 176.001 175.32 175.542 175.464 175.119C175.608 174.691 175.815 174.321 176.086 174.008C176.357 173.69 176.685 173.445 177.07 173.271C177.455 173.094 177.887 173.005 178.365 173.005C178.847 173.005 179.281 173.094 179.666 173.271C180.055 173.445 180.385 173.69 180.656 174.008C180.931 174.321 181.141 174.691 181.285 175.119C181.429 175.542 181.5 176.001 181.5 176.496V176.642C181.5 177.137 181.429 177.596 181.285 178.02C181.141 178.443 180.931 178.813 180.656 179.13C180.385 179.444 180.057 179.689 179.672 179.867C179.292 180.04 178.86 180.127 178.377 180.127C177.895 180.127 177.461 180.04 177.076 179.867C176.691 179.689 176.361 179.444 176.086 179.13C175.815 178.813 175.608 178.443 175.464 178.02C175.32 177.596 175.248 177.137 175.248 176.642ZM176.422 176.496V176.642C176.422 176.985 176.463 177.309 176.543 177.613C176.623 177.914 176.744 178.18 176.905 178.413C177.07 178.646 177.275 178.83 177.521 178.965C177.766 179.097 178.052 179.162 178.377 179.162C178.699 179.162 178.98 179.097 179.222 178.965C179.467 178.83 179.67 178.646 179.831 178.413C179.992 178.18 180.112 177.914 180.193 177.613C180.278 177.309 180.32 176.985 180.32 176.642V176.496C180.32 176.158 180.278 175.838 180.193 175.538C180.112 175.233 179.99 174.964 179.825 174.731C179.664 174.494 179.461 174.308 179.215 174.173C178.974 174.037 178.691 173.97 178.365 173.97C178.043 173.97 177.76 174.037 177.514 174.173C177.273 174.308 177.07 174.494 176.905 174.731C176.744 174.964 176.623 175.233 176.543 175.538C176.463 175.838 176.422 176.158 176.422 176.496ZM184.147 174.598V180H182.973V173.132H184.084L184.147 174.598ZM183.868 176.306L183.379 176.287C183.384 175.817 183.453 175.383 183.589 174.985C183.724 174.583 183.915 174.234 184.16 173.938C184.406 173.642 184.698 173.413 185.036 173.252C185.379 173.087 185.758 173.005 186.172 173.005C186.511 173.005 186.816 173.051 187.086 173.145C187.357 173.233 187.588 173.377 187.778 173.576C187.973 173.775 188.121 174.033 188.223 174.351C188.324 174.664 188.375 175.047 188.375 175.5V180H187.194V175.487C187.194 175.127 187.141 174.839 187.036 174.624C186.93 174.403 186.775 174.245 186.572 174.147C186.369 174.046 186.119 173.995 185.823 173.995C185.531 173.995 185.265 174.056 185.023 174.179C184.786 174.302 184.581 174.471 184.408 174.687C184.238 174.903 184.105 175.15 184.008 175.43C183.915 175.705 183.868 175.997 183.868 176.306ZM196.722 170.758V180H195.516V170.758H196.722ZM199.693 170.758V171.761H192.552V170.758H199.693ZM202.061 170.25V180H200.886V170.25H202.061ZM201.781 176.306L201.292 176.287C201.297 175.817 201.367 175.383 201.502 174.985C201.637 174.583 201.828 174.234 202.073 173.938C202.319 173.642 202.611 173.413 202.949 173.252C203.292 173.087 203.671 173.005 204.085 173.005C204.424 173.005 204.729 173.051 205 173.145C205.27 173.233 205.501 173.377 205.691 173.576C205.886 173.775 206.034 174.033 206.136 174.351C206.237 174.664 206.288 175.047 206.288 175.5V180H205.107V175.487C205.107 175.127 205.055 174.839 204.949 174.624C204.843 174.403 204.688 174.245 204.485 174.147C204.282 174.046 204.033 173.995 203.736 173.995C203.444 173.995 203.178 174.056 202.937 174.179C202.7 174.302 202.494 174.471 202.321 174.687C202.152 174.903 202.018 175.15 201.921 175.43C201.828 175.705 201.781 175.997 201.781 176.306ZM209.221 174.211V180H208.046V173.132H209.189L209.221 174.211ZM211.366 173.094L211.36 174.186C211.263 174.164 211.169 174.152 211.081 174.147C210.996 174.139 210.899 174.135 210.789 174.135C210.518 174.135 210.279 174.177 210.071 174.262C209.864 174.346 209.688 174.465 209.544 174.617C209.401 174.77 209.286 174.951 209.202 175.163C209.121 175.37 209.068 175.599 209.043 175.849L208.713 176.039C208.713 175.624 208.753 175.235 208.833 174.871C208.918 174.507 209.047 174.186 209.221 173.906C209.394 173.623 209.614 173.403 209.881 173.246C210.152 173.085 210.473 173.005 210.846 173.005C210.93 173.005 211.028 173.015 211.138 173.037C211.248 173.054 211.324 173.073 211.366 173.094ZM215.175 180.127C214.697 180.127 214.263 180.047 213.874 179.886C213.488 179.721 213.156 179.49 212.877 179.194C212.602 178.898 212.39 178.546 212.242 178.14C212.094 177.734 212.02 177.29 212.02 176.807V176.541C212.02 175.982 212.103 175.485 212.268 175.049C212.433 174.609 212.657 174.236 212.94 173.932C213.224 173.627 213.546 173.396 213.905 173.24C214.265 173.083 214.637 173.005 215.022 173.005C215.513 173.005 215.937 173.09 216.292 173.259C216.652 173.428 216.946 173.665 217.174 173.97C217.403 174.27 217.572 174.626 217.682 175.036C217.792 175.442 217.847 175.887 217.847 176.369V176.896H212.718V175.938H216.673V175.849C216.656 175.544 216.592 175.248 216.482 174.96C216.377 174.672 216.207 174.435 215.975 174.249C215.742 174.063 215.424 173.97 215.022 173.97C214.756 173.97 214.51 174.027 214.286 174.141C214.062 174.251 213.869 174.416 213.708 174.636C213.548 174.856 213.423 175.125 213.334 175.442C213.245 175.76 213.201 176.126 213.201 176.541V176.807C213.201 177.133 213.245 177.44 213.334 177.728C213.427 178.011 213.56 178.261 213.734 178.477C213.912 178.692 214.125 178.862 214.375 178.984C214.629 179.107 214.917 179.168 215.238 179.168C215.653 179.168 216.004 179.084 216.292 178.915C216.58 178.745 216.832 178.519 217.047 178.235L217.758 178.8C217.61 179.025 217.422 179.238 217.193 179.441C216.965 179.645 216.683 179.81 216.349 179.937C216.019 180.063 215.628 180.127 215.175 180.127ZM222.068 180.127C221.59 180.127 221.156 180.047 220.767 179.886C220.382 179.721 220.05 179.49 219.771 179.194C219.495 178.898 219.284 178.546 219.136 178.14C218.988 177.734 218.914 177.29 218.914 176.807V176.541C218.914 175.982 218.996 175.485 219.161 175.049C219.326 174.609 219.55 174.236 219.834 173.932C220.118 173.627 220.439 173.396 220.799 173.24C221.159 173.083 221.531 173.005 221.916 173.005C222.407 173.005 222.83 173.09 223.186 173.259C223.545 173.428 223.839 173.665 224.068 173.97C224.296 174.27 224.466 174.626 224.576 175.036C224.686 175.442 224.741 175.887 224.741 176.369V176.896H219.612V175.938H223.566V175.849C223.549 175.544 223.486 175.248 223.376 174.96C223.27 174.672 223.101 174.435 222.868 174.249C222.635 174.063 222.318 173.97 221.916 173.97C221.649 173.97 221.404 174.027 221.18 174.141C220.955 174.251 220.763 174.416 220.602 174.636C220.441 174.856 220.316 175.125 220.228 175.442C220.139 175.76 220.094 176.126 220.094 176.541V176.807C220.094 177.133 220.139 177.44 220.228 177.728C220.321 178.011 220.454 178.261 220.627 178.477C220.805 178.692 221.019 178.862 221.269 178.984C221.522 179.107 221.81 179.168 222.132 179.168C222.547 179.168 222.898 179.084 223.186 178.915C223.473 178.745 223.725 178.519 223.941 178.235L224.652 178.8C224.504 179.025 224.315 179.238 224.087 179.441C223.858 179.645 223.577 179.81 223.243 179.937C222.913 180.063 222.521 180.127 222.068 180.127Z" fill="#505050"/>
<path d="M132.276 212C132.276 210.526 133.471 209.375 135 209.375C136.504 209.375 137.724 210.526 137.724 212C137.724 213.449 136.504 214.625 135 214.625C133.471 214.625 132.276 213.449 132.276 212ZM135 210.688C134.248 210.688 133.638 211.275 133.638 212C133.638 212.725 134.248 213.312 135 213.312C135.752 213.312 136.362 212.725 136.362 212C136.362 211.275 135.752 210.688 135 210.688ZM136.053 205C136.683 205 137.231 205.415 137.378 206.005L137.6 206.892C137.841 207.006 138.071 207.135 138.289 207.277L139.2 207.019C139.804 206.847 140.451 207.096 140.766 207.621L141.819 209.378C142.131 209.903 142.032 210.567 141.578 210.986L140.888 211.593C140.897 211.743 140.903 211.871 140.903 212C140.903 212.129 140.897 212.257 140.888 212.383L141.578 213.014C142.032 213.433 142.131 214.097 141.819 214.622L140.766 216.378C140.451 216.903 139.804 217.152 139.2 216.982L138.289 216.722C138.071 216.864 137.841 216.993 137.6 217.108L137.378 217.996C137.231 218.584 136.683 219 136.053 219H133.947C133.317 219 132.77 218.584 132.622 217.996L132.401 217.108C132.16 216.993 131.93 216.864 131.711 216.722L130.775 216.982C130.197 217.152 129.55 216.903 129.235 216.378L128.183 214.622C127.868 214.097 127.967 213.433 128.423 213.014L129.111 212.383C129.102 212.257 129.098 212.129 129.098 211.975C129.098 211.871 129.102 211.743 129.111 211.593L128.423 210.986C127.967 210.567 127.868 209.903 128.183 209.378L129.235 207.621C129.55 207.096 130.197 206.847 130.775 207.019L131.711 207.277C131.93 207.135 132.16 207.006 132.401 206.892L132.622 206.005C132.77 205.415 133.317 205 133.947 205L136.053 205ZM133.567 207.833L133.249 207.961C132.889 208.106 132.554 208.295 132.25 208.519L131.975 208.721L130.415 208.279L129.362 210.034L130.54 211.114L130.496 211.442C130.472 211.625 130.46 211.811 130.46 212C130.46 212.189 130.472 212.375 130.496 212.558L130.54 212.886L129.362 213.966L130.415 215.721L131.975 215.279L132.25 215.481C132.554 215.705 132.889 215.894 133.249 216.039L133.567 216.167L133.947 217.688H136.053L136.433 216.167L136.751 216.039C137.111 215.894 137.446 215.705 137.75 215.481L138.025 215.279L139.586 215.721L140.639 213.966L139.461 212.886L139.504 212.558C139.529 212.375 139.541 212.189 139.541 212C139.541 211.811 139.529 211.625 139.504 211.442L139.461 211.114L140.639 210.034L139.586 208.279L138.025 208.721L137.75 208.519C137.446 208.295 137.111 208.106 136.751 207.961L136.433 207.833L136.053 206.312H133.947L133.567 207.833Z" fill="#505050"/>
<path d="M159.188 211.087V211.671C159.188 212.365 159.102 212.987 158.928 213.537C158.755 214.087 158.505 214.555 158.179 214.94C157.853 215.325 157.462 215.619 157.005 215.822C156.552 216.025 156.044 216.127 155.481 216.127C154.936 216.127 154.434 216.025 153.977 215.822C153.524 215.619 153.131 215.325 152.796 214.94C152.466 214.555 152.21 214.087 152.028 213.537C151.846 212.987 151.755 212.365 151.755 211.671V211.087C151.755 210.393 151.844 209.773 152.022 209.227C152.204 208.677 152.46 208.209 152.79 207.824C153.12 207.435 153.512 207.139 153.964 206.936C154.421 206.732 154.923 206.631 155.469 206.631C156.032 206.631 156.539 206.732 156.992 206.936C157.449 207.139 157.841 207.435 158.167 207.824C158.497 208.209 158.748 208.677 158.922 209.227C159.1 209.773 159.188 210.393 159.188 211.087ZM157.976 211.671V211.074C157.976 210.524 157.919 210.037 157.805 209.614C157.695 209.191 157.532 208.836 157.316 208.548C157.1 208.26 156.836 208.042 156.522 207.894C156.214 207.746 155.862 207.672 155.469 207.672C155.088 207.672 154.743 207.746 154.434 207.894C154.129 208.042 153.867 208.26 153.647 208.548C153.431 208.836 153.264 209.191 153.146 209.614C153.027 210.037 152.968 210.524 152.968 211.074V211.671C152.968 212.225 153.027 212.716 153.146 213.144C153.264 213.567 153.433 213.924 153.653 214.216C153.878 214.504 154.142 214.722 154.447 214.87C154.756 215.018 155.101 215.092 155.481 215.092C155.879 215.092 156.233 215.018 156.542 214.87C156.85 214.722 157.111 214.504 157.322 214.216C157.538 213.924 157.701 213.567 157.811 213.144C157.921 212.716 157.976 212.225 157.976 211.671ZM162.02 210.452V218.641H160.839V209.132H161.918L162.02 210.452ZM166.647 212.509V212.642C166.647 213.141 166.588 213.605 166.469 214.032C166.351 214.455 166.177 214.824 165.949 215.137C165.724 215.45 165.447 215.693 165.117 215.867C164.787 216.04 164.408 216.127 163.981 216.127C163.545 216.127 163.16 216.055 162.826 215.911C162.491 215.767 162.208 215.558 161.975 215.283C161.742 215.008 161.556 214.678 161.417 214.292C161.281 213.907 161.188 213.474 161.137 212.991V212.28C161.188 211.772 161.283 211.318 161.423 210.916C161.562 210.514 161.747 210.171 161.975 209.887C162.208 209.599 162.489 209.382 162.819 209.233C163.149 209.081 163.53 209.005 163.962 209.005C164.394 209.005 164.777 209.09 165.111 209.259C165.445 209.424 165.727 209.661 165.955 209.97C166.184 210.279 166.355 210.649 166.469 211.081C166.588 211.508 166.647 211.984 166.647 212.509ZM165.466 212.642V212.509C165.466 212.166 165.43 211.844 165.358 211.544C165.286 211.239 165.174 210.973 165.022 210.744C164.874 210.511 164.683 210.329 164.451 210.198C164.218 210.063 163.941 209.995 163.619 209.995C163.323 209.995 163.065 210.046 162.845 210.147C162.629 210.249 162.445 210.387 162.292 210.56C162.14 210.729 162.015 210.924 161.918 211.144C161.825 211.36 161.755 211.584 161.708 211.817V213.461C161.793 213.757 161.912 214.036 162.064 214.299C162.216 214.557 162.419 214.766 162.673 214.927C162.927 215.084 163.247 215.162 163.632 215.162C163.949 215.162 164.222 215.097 164.451 214.965C164.683 214.83 164.874 214.646 165.022 214.413C165.174 214.18 165.286 213.914 165.358 213.613C165.43 213.309 165.466 212.985 165.466 212.642ZM171.021 209.132V210.033H167.307V209.132H171.021ZM168.564 207.462H169.738V214.299C169.738 214.532 169.774 214.707 169.846 214.826C169.918 214.944 170.011 215.022 170.125 215.061C170.24 215.099 170.362 215.118 170.494 215.118C170.591 215.118 170.693 215.109 170.798 215.092C170.908 215.071 170.991 215.054 171.046 215.042L171.052 216C170.959 216.03 170.836 216.057 170.684 216.083C170.536 216.112 170.356 216.127 170.145 216.127C169.857 216.127 169.592 216.07 169.351 215.956C169.11 215.841 168.917 215.651 168.773 215.384C168.634 215.113 168.564 214.75 168.564 214.292V207.462ZM173.674 209.132V216H172.493V209.132H173.674ZM172.404 207.31C172.404 207.12 172.461 206.959 172.576 206.828C172.694 206.696 172.868 206.631 173.096 206.631C173.32 206.631 173.492 206.696 173.61 206.828C173.733 206.959 173.794 207.12 173.794 207.31C173.794 207.492 173.733 207.649 173.61 207.78C173.492 207.907 173.32 207.97 173.096 207.97C172.868 207.97 172.694 207.907 172.576 207.78C172.461 207.649 172.404 207.492 172.404 207.31ZM175.248 212.642V212.496C175.248 212.001 175.32 211.542 175.464 211.119C175.608 210.691 175.815 210.321 176.086 210.008C176.357 209.69 176.685 209.445 177.07 209.271C177.455 209.094 177.887 209.005 178.365 209.005C178.847 209.005 179.281 209.094 179.666 209.271C180.055 209.445 180.385 209.69 180.656 210.008C180.931 210.321 181.141 210.691 181.285 211.119C181.429 211.542 181.5 212.001 181.5 212.496V212.642C181.5 213.137 181.429 213.596 181.285 214.02C181.141 214.443 180.931 214.813 180.656 215.13C180.385 215.444 180.057 215.689 179.672 215.867C179.292 216.04 178.86 216.127 178.377 216.127C177.895 216.127 177.461 216.04 177.076 215.867C176.691 215.689 176.361 215.444 176.086 215.13C175.815 214.813 175.608 214.443 175.464 214.02C175.32 213.596 175.248 213.137 175.248 212.642ZM176.422 212.496V212.642C176.422 212.985 176.463 213.309 176.543 213.613C176.623 213.914 176.744 214.18 176.905 214.413C177.07 214.646 177.275 214.83 177.521 214.965C177.766 215.097 178.052 215.162 178.377 215.162C178.699 215.162 178.98 215.097 179.222 214.965C179.467 214.83 179.67 214.646 179.831 214.413C179.992 214.18 180.112 213.914 180.193 213.613C180.278 213.309 180.32 212.985 180.32 212.642V212.496C180.32 212.158 180.278 211.838 180.193 211.538C180.112 211.233 179.99 210.964 179.825 210.731C179.664 210.494 179.461 210.308 179.215 210.173C178.974 210.037 178.691 209.97 178.365 209.97C178.043 209.97 177.76 210.037 177.514 210.173C177.273 210.308 177.07 210.494 176.905 210.731C176.744 210.964 176.623 211.233 176.543 211.538C176.463 211.838 176.422 212.158 176.422 212.496ZM184.147 210.598V216H182.973V209.132H184.084L184.147 210.598ZM183.868 212.306L183.379 212.287C183.384 211.817 183.453 211.383 183.589 210.985C183.724 210.583 183.915 210.234 184.16 209.938C184.406 209.642 184.698 209.413 185.036 209.252C185.379 209.087 185.758 209.005 186.172 209.005C186.511 209.005 186.816 209.051 187.086 209.145C187.357 209.233 187.588 209.377 187.778 209.576C187.973 209.775 188.121 210.033 188.223 210.351C188.324 210.664 188.375 211.047 188.375 211.5V216H187.194V211.487C187.194 211.127 187.141 210.839 187.036 210.624C186.93 210.403 186.775 210.245 186.572 210.147C186.369 210.046 186.119 209.995 185.823 209.995C185.531 209.995 185.265 210.056 185.023 210.179C184.786 210.302 184.581 210.471 184.408 210.687C184.238 210.903 184.105 211.15 184.008 211.43C183.915 211.705 183.868 211.997 183.868 212.306ZM194.786 206.758V216H193.561V206.758H194.786ZM198.658 210.916V211.918H194.52V210.916H198.658ZM199.287 206.758V207.761H194.52V206.758H199.287ZM200.118 212.642V212.496C200.118 212.001 200.19 211.542 200.334 211.119C200.478 210.691 200.685 210.321 200.956 210.008C201.227 209.69 201.555 209.445 201.94 209.271C202.325 209.094 202.757 209.005 203.235 209.005C203.717 209.005 204.151 209.094 204.536 209.271C204.925 209.445 205.256 209.69 205.526 210.008C205.801 210.321 206.011 210.691 206.155 211.119C206.299 211.542 206.371 212.001 206.371 212.496V212.642C206.371 213.137 206.299 213.596 206.155 214.02C206.011 214.443 205.801 214.813 205.526 215.13C205.256 215.444 204.928 215.689 204.542 215.867C204.162 216.04 203.73 216.127 203.248 216.127C202.765 216.127 202.331 216.04 201.946 215.867C201.561 215.689 201.231 215.444 200.956 215.13C200.685 214.813 200.478 214.443 200.334 214.02C200.19 213.596 200.118 213.137 200.118 212.642ZM201.292 212.496V212.642C201.292 212.985 201.333 213.309 201.413 213.613C201.493 213.914 201.614 214.18 201.775 214.413C201.94 214.646 202.145 214.83 202.391 214.965C202.636 215.097 202.922 215.162 203.248 215.162C203.569 215.162 203.851 215.097 204.092 214.965C204.337 214.83 204.54 214.646 204.701 214.413C204.862 214.18 204.983 213.914 205.063 213.613C205.148 213.309 205.19 212.985 205.19 212.642V212.496C205.19 212.158 205.148 211.838 205.063 211.538C204.983 211.233 204.86 210.964 204.695 210.731C204.534 210.494 204.331 210.308 204.085 210.173C203.844 210.037 203.561 209.97 203.235 209.97C202.913 209.97 202.63 210.037 202.384 210.173C202.143 210.308 201.94 210.494 201.775 210.731C201.614 210.964 201.493 211.233 201.413 211.538C201.333 211.838 201.292 212.158 201.292 212.496ZM212.045 214.413V209.132H213.226V216H212.103L212.045 214.413ZM212.268 212.966L212.756 212.953C212.756 213.41 212.708 213.833 212.61 214.223C212.517 214.608 212.365 214.942 212.153 215.226C211.942 215.509 211.665 215.731 211.322 215.892C210.979 216.049 210.562 216.127 210.071 216.127C209.737 216.127 209.43 216.078 209.151 215.981C208.876 215.884 208.639 215.733 208.44 215.53C208.241 215.327 208.087 215.063 207.977 214.737C207.871 214.411 207.818 214.02 207.818 213.562V209.132H208.992V213.575C208.992 213.884 209.026 214.14 209.094 214.343C209.166 214.542 209.261 214.701 209.379 214.819C209.502 214.934 209.638 215.014 209.786 215.061C209.938 215.107 210.095 215.13 210.255 215.13C210.755 215.13 211.15 215.035 211.442 214.845C211.734 214.65 211.944 214.39 212.071 214.064C212.202 213.734 212.268 213.368 212.268 212.966ZM216.19 210.211V216H215.016V209.132H216.159L216.19 210.211ZM218.336 209.094L218.33 210.186C218.232 210.164 218.139 210.152 218.05 210.147C217.966 210.139 217.868 210.135 217.758 210.135C217.487 210.135 217.248 210.177 217.041 210.262C216.834 210.346 216.658 210.465 216.514 210.617C216.37 210.77 216.256 210.951 216.171 211.163C216.091 211.37 216.038 211.599 216.013 211.849L215.683 212.039C215.683 211.624 215.723 211.235 215.803 210.871C215.888 210.507 216.017 210.186 216.19 209.906C216.364 209.623 216.584 209.403 216.851 209.246C217.121 209.085 217.443 209.005 217.815 209.005C217.9 209.005 217.997 209.015 218.107 209.037C218.217 209.054 218.294 209.073 218.336 209.094Z" fill="#505050"/>
</g>
<defs>
<filter id="filter0_ddd_1709_35236" x="99" y="65" width="192" height="189" filterUnits="userSpaceOnUse" color-interpolation-filters="sRGB">
<feFlood flood-opacity="0" result="BackgroundImageFix"/>
<feColorMatrix in="SourceAlpha" type="matrix" values="0 0 0 0 0 0 0 0 0 0 0 0 0 0 0 0 0 0 127 0" result="hardAlpha"/>
<feOffset dy="2"/>
<feGaussianBlur stdDeviation="2"/>
<feColorMatrix type="matrix" values="0 0 0 0 0.45098 0 0 0 0 0.45098 0 0 0 0 0.45098 0 0 0 0.1 0"/>
<feBlend mode="normal" in2="BackgroundImageFix" result="effect1_dropShadow_1709_35236"/>
<feColorMatrix in="SourceAlpha" type="matrix" values="0 0 0 0 0 0 0 0 0 0 0 0 0 0 0 0 0 0 127 0" result="hardAlpha"/>
<feOffset dy="1"/>
<feGaussianBlur stdDeviation="8"/>
<feColorMatrix type="matrix" values="0 0 0 0 0.45098 0 0 0 0 0.45098 0 0 0 0 0.45098 0 0 0 0.05 0"/>
<feBlend mode="normal" in2="effect1_dropShadow_1709_35236" result="effect2_dropShadow_1709_35236"/>
<feColorMatrix in="SourceAlpha" type="matrix" values="0 0 0 0 0 0 0 0 0 0 0 0 0 0 0 0 0 0 127 0" result="hardAlpha"/>
<feOffset dy="6"/>
<feGaussianBlur stdDeviation="6"/>
<feColorMatrix type="matrix" values="0 0 0 0 0.45098 0 0 0 0 0.45098 0 0 0 0 0.45098 0 0 0 0.08 0"/>
<feBlend mode="normal" in2="effect2_dropShadow_1709_35236" result="effect3_dropShadow_1709_35236"/>
<feBlend mode="normal" in="SourceGraphic" in2="effect3_dropShadow_1709_35236" result="shape"/>
</filter>
</defs>
</svg>
