<svg width="620" height="320" viewBox="0 0 620 320" fill="none" xmlns="http://www.w3.org/2000/svg">
<rect width="620" height="320" rx="16" fill="#F8F8F8"/>
<rect x="246" y="54" width="20" height="20" rx="4" fill="#0059FF"/>
<path d="M260.7 63H251.3C251.134 63 251 63.1343 251 63.3V64.7C251 64.8657 251.134 65 251.3 65H260.7C260.866 65 261 64.8657 261 64.7V63.3C261 63.1343 260.866 63 260.7 63Z" fill="white"/>
<path d="M279.178 58.3359V69H277.787V58.3359H279.178ZM282.606 58.3359V59.4932H274.366V58.3359H282.606ZM285.682 68.1797L287.887 61.0752H289.337L286.158 70.2231C286.085 70.4185 285.987 70.6284 285.865 70.853C285.748 71.0825 285.597 71.2998 285.411 71.5049C285.226 71.71 285.001 71.876 284.737 72.0029C284.479 72.1348 284.168 72.2007 283.807 72.2007C283.7 72.2007 283.563 72.186 283.397 72.1567C283.231 72.1274 283.114 72.103 283.045 72.0835L283.038 70.9849C283.077 70.9897 283.138 70.9946 283.221 70.9995C283.309 71.0093 283.37 71.0142 283.404 71.0142C283.712 71.0142 283.973 70.9727 284.188 70.8896C284.403 70.8115 284.583 70.6772 284.73 70.4868C284.881 70.3013 285.011 70.0449 285.118 69.7178L285.682 68.1797ZM284.063 61.0752L286.122 67.2275L286.473 68.6558L285.499 69.1538L282.584 61.0752H284.063ZM291.915 62.5986V72.0469H290.553V61.0752H291.798L291.915 62.5986ZM297.254 64.9717V65.1255C297.254 65.7017 297.186 66.2363 297.049 66.7295C296.913 67.2178 296.712 67.6426 296.449 68.0039C296.19 68.3652 295.87 68.646 295.489 68.8462C295.108 69.0464 294.671 69.1465 294.178 69.1465C293.675 69.1465 293.231 69.0635 292.845 68.8975C292.459 68.7314 292.132 68.4897 291.864 68.1724C291.595 67.855 291.38 67.4741 291.219 67.0298C291.063 66.5854 290.956 66.085 290.897 65.5283V64.708C290.956 64.1221 291.065 63.5972 291.227 63.1333C291.388 62.6694 291.6 62.2739 291.864 61.9468C292.132 61.6147 292.457 61.3633 292.838 61.1924C293.219 61.0166 293.658 60.9287 294.156 60.9287C294.654 60.9287 295.096 61.0264 295.482 61.2217C295.868 61.4121 296.192 61.6855 296.456 62.042C296.72 62.3984 296.917 62.8257 297.049 63.3237C297.186 63.8169 297.254 64.3662 297.254 64.9717ZM295.892 65.1255V64.9717C295.892 64.5762 295.851 64.2051 295.768 63.8584C295.685 63.5068 295.555 63.1992 295.379 62.9355C295.208 62.667 294.989 62.457 294.72 62.3057C294.452 62.1494 294.132 62.0713 293.761 62.0713C293.419 62.0713 293.121 62.1299 292.867 62.2471C292.618 62.3643 292.406 62.5229 292.23 62.7231C292.054 62.9185 291.91 63.1431 291.798 63.397C291.69 63.646 291.61 63.9048 291.556 64.1733V66.0703C291.654 66.4121 291.791 66.7344 291.966 67.0371C292.142 67.335 292.376 67.5767 292.669 67.7622C292.962 67.9429 293.331 68.0332 293.775 68.0332C294.142 68.0332 294.457 67.9575 294.72 67.8062C294.989 67.6499 295.208 67.4375 295.379 67.1689C295.555 66.9004 295.685 66.5928 295.768 66.2461C295.851 65.8945 295.892 65.521 295.892 65.1255ZM298.624 65.1255V64.957C298.624 64.3857 298.707 63.856 298.873 63.3677C299.039 62.8745 299.278 62.4473 299.591 62.0859C299.903 61.7197 300.282 61.4365 300.726 61.2363C301.17 61.0312 301.668 60.9287 302.22 60.9287C302.777 60.9287 303.277 61.0312 303.722 61.2363C304.171 61.4365 304.552 61.7197 304.864 62.0859C305.182 62.4473 305.423 62.8745 305.589 63.3677C305.755 63.856 305.838 64.3857 305.838 64.957V65.1255C305.838 65.6968 305.755 66.2266 305.589 66.7148C305.423 67.2031 305.182 67.6304 304.864 67.9966C304.552 68.3579 304.173 68.6411 303.729 68.8462C303.29 69.0464 302.792 69.1465 302.235 69.1465C301.678 69.1465 301.178 69.0464 300.733 68.8462C300.289 68.6411 299.908 68.3579 299.591 67.9966C299.278 67.6304 299.039 67.2031 298.873 66.7148C298.707 66.2266 298.624 65.6968 298.624 65.1255ZM299.979 64.957V65.1255C299.979 65.521 300.025 65.8945 300.118 66.2461C300.211 66.5928 300.35 66.9004 300.536 67.1689C300.726 67.4375 300.963 67.6499 301.246 67.8062C301.529 67.9575 301.859 68.0332 302.235 68.0332C302.606 68.0332 302.931 67.9575 303.209 67.8062C303.492 67.6499 303.727 67.4375 303.912 67.1689C304.098 66.9004 304.237 66.5928 304.33 66.2461C304.427 65.8945 304.476 65.521 304.476 65.1255V64.957C304.476 64.5664 304.427 64.1978 304.33 63.8511C304.237 63.4995 304.095 63.1895 303.905 62.9209C303.719 62.6475 303.485 62.4326 303.202 62.2764C302.923 62.1201 302.596 62.042 302.22 62.042C301.849 62.042 301.522 62.1201 301.239 62.2764C300.96 62.4326 300.726 62.6475 300.536 62.9209C300.35 63.1895 300.211 63.4995 300.118 63.8511C300.025 64.1978 299.979 64.5664 299.979 64.957ZM312.672 61.0752H313.902V68.8315C313.902 69.5298 313.761 70.1255 313.478 70.6187C313.194 71.1118 312.799 71.4854 312.291 71.7393C311.788 71.998 311.207 72.1274 310.548 72.1274C310.274 72.1274 309.952 72.0835 309.581 71.9956C309.215 71.9126 308.854 71.7686 308.497 71.5635C308.146 71.3633 307.85 71.0923 307.611 70.7505L308.321 69.9448C308.653 70.3452 309 70.6235 309.361 70.7798C309.728 70.936 310.089 71.0142 310.445 71.0142C310.875 71.0142 311.246 70.9336 311.559 70.7725C311.871 70.6113 312.113 70.3721 312.284 70.0547C312.459 69.7422 312.547 69.3564 312.547 68.8975V62.8184L312.672 61.0752ZM307.215 65.1255V64.9717C307.215 64.3662 307.286 63.8169 307.428 63.3237C307.574 62.8257 307.782 62.3984 308.05 62.042C308.324 61.6855 308.653 61.4121 309.039 61.2217C309.425 61.0264 309.859 60.9287 310.343 60.9287C310.841 60.9287 311.275 61.0166 311.646 61.1924C312.022 61.3633 312.34 61.6147 312.599 61.9468C312.862 62.2739 313.07 62.6694 313.221 63.1333C313.373 63.5972 313.478 64.1221 313.536 64.708V65.3818C313.482 65.9629 313.377 66.4854 313.221 66.9492C313.07 67.4131 312.862 67.8086 312.599 68.1357C312.34 68.4629 312.022 68.7144 311.646 68.8901C311.271 69.061 310.831 69.1465 310.328 69.1465C309.854 69.1465 309.425 69.0464 309.039 68.8462C308.658 68.646 308.331 68.3652 308.058 68.0039C307.784 67.6426 307.574 67.2178 307.428 66.7295C307.286 66.2363 307.215 65.7017 307.215 65.1255ZM308.57 64.9717V65.1255C308.57 65.521 308.609 65.8921 308.688 66.2388C308.771 66.5854 308.895 66.8906 309.061 67.1543C309.232 67.418 309.449 67.6255 309.713 67.7769C309.977 67.9233 310.292 67.9966 310.658 67.9966C311.107 67.9966 311.478 67.9014 311.771 67.7109C312.064 67.5205 312.296 67.269 312.467 66.9565C312.643 66.644 312.779 66.3047 312.877 65.9385V64.1733C312.823 63.9048 312.74 63.646 312.628 63.397C312.521 63.1431 312.379 62.9185 312.203 62.7231C312.032 62.5229 311.82 62.3643 311.566 62.2471C311.312 62.1299 311.014 62.0713 310.672 62.0713C310.301 62.0713 309.981 62.1494 309.713 62.3057C309.449 62.457 309.232 62.667 309.061 62.9355C308.895 63.1992 308.771 63.5068 308.688 63.8584C308.609 64.2051 308.57 64.5762 308.57 64.9717ZM317.315 62.3203V69H315.96V61.0752H317.279L317.315 62.3203ZM319.791 61.0312L319.784 62.291C319.671 62.2666 319.564 62.252 319.461 62.2471C319.364 62.2373 319.251 62.2324 319.125 62.2324C318.812 62.2324 318.536 62.2812 318.297 62.3789C318.058 62.4766 317.855 62.6133 317.689 62.7891C317.523 62.9648 317.391 63.1748 317.293 63.4189C317.201 63.6582 317.14 63.9219 317.11 64.21L316.729 64.4297C316.729 63.9512 316.776 63.502 316.869 63.082C316.966 62.6621 317.115 62.291 317.315 61.9688C317.516 61.6416 317.77 61.3877 318.077 61.207C318.39 61.0215 318.761 60.9287 319.19 60.9287C319.288 60.9287 319.4 60.9409 319.527 60.9653C319.654 60.9849 319.742 61.0068 319.791 61.0312ZM325.423 67.645V63.5654C325.423 63.2529 325.36 62.9819 325.233 62.7524C325.111 62.5181 324.925 62.3374 324.676 62.2104C324.427 62.0835 324.12 62.02 323.753 62.02C323.412 62.02 323.111 62.0786 322.853 62.1958C322.599 62.313 322.398 62.4668 322.252 62.6572C322.11 62.8477 322.04 63.0527 322.04 63.2725H320.685C320.685 62.9893 320.758 62.7085 320.904 62.4302C321.051 62.1519 321.261 61.9004 321.534 61.6758C321.812 61.4463 322.145 61.2656 322.53 61.1338C322.921 60.9971 323.355 60.9287 323.834 60.9287C324.41 60.9287 324.918 61.0264 325.357 61.2217C325.802 61.417 326.148 61.7124 326.397 62.1079C326.651 62.4985 326.778 62.9893 326.778 63.5801V67.2715C326.778 67.5352 326.8 67.8159 326.844 68.1138C326.893 68.4116 326.964 68.668 327.057 68.8828V69H325.643C325.575 68.8438 325.521 68.6362 325.482 68.3774C325.443 68.1138 325.423 67.8696 325.423 67.645ZM325.658 64.1953L325.672 65.1475H324.303C323.917 65.1475 323.573 65.1792 323.27 65.2427C322.967 65.3013 322.713 65.3916 322.508 65.5137C322.303 65.6357 322.147 65.7896 322.04 65.9751C321.932 66.1558 321.878 66.3682 321.878 66.6123C321.878 66.8613 321.935 67.0884 322.047 67.2935C322.159 67.4985 322.328 67.6621 322.552 67.7842C322.782 67.9014 323.062 67.96 323.395 67.96C323.81 67.96 324.176 67.8721 324.493 67.6963C324.811 67.5205 325.062 67.3057 325.248 67.0518C325.438 66.7979 325.541 66.5513 325.555 66.312L326.134 66.9639C326.1 67.1689 326.007 67.396 325.855 67.645C325.704 67.894 325.501 68.1333 325.248 68.3628C324.999 68.5874 324.701 68.7754 324.354 68.9268C324.012 69.0732 323.626 69.1465 323.197 69.1465C322.66 69.1465 322.188 69.0415 321.783 68.8315C321.383 68.6216 321.07 68.3408 320.846 67.9893C320.626 67.6328 320.516 67.2349 320.516 66.7954C320.516 66.3706 320.599 65.9971 320.765 65.6748C320.931 65.3477 321.17 65.0767 321.483 64.8618C321.795 64.6421 322.171 64.4761 322.611 64.3638C323.05 64.2515 323.541 64.1953 324.083 64.1953H325.658ZM330.265 62.5986V72.0469H328.902V61.0752H330.147L330.265 62.5986ZM335.604 64.9717V65.1255C335.604 65.7017 335.536 66.2363 335.399 66.7295C335.262 67.2178 335.062 67.6426 334.798 68.0039C334.54 68.3652 334.22 68.646 333.839 68.8462C333.458 69.0464 333.021 69.1465 332.528 69.1465C332.025 69.1465 331.581 69.0635 331.195 68.8975C330.809 68.7314 330.482 68.4897 330.213 68.1724C329.945 67.855 329.73 67.4741 329.569 67.0298C329.413 66.5854 329.305 66.085 329.247 65.5283V64.708C329.305 64.1221 329.415 63.5972 329.576 63.1333C329.737 62.6694 329.95 62.2739 330.213 61.9468C330.482 61.6147 330.807 61.3633 331.188 61.1924C331.568 61.0166 332.008 60.9287 332.506 60.9287C333.004 60.9287 333.446 61.0264 333.832 61.2217C334.217 61.4121 334.542 61.6855 334.806 62.042C335.069 62.3984 335.267 62.8257 335.399 63.3237C335.536 63.8169 335.604 64.3662 335.604 64.9717ZM334.242 65.1255V64.9717C334.242 64.5762 334.2 64.2051 334.117 63.8584C334.034 63.5068 333.905 63.1992 333.729 62.9355C333.558 62.667 333.338 62.457 333.07 62.3057C332.801 62.1494 332.481 62.0713 332.11 62.0713C331.769 62.0713 331.471 62.1299 331.217 62.2471C330.968 62.3643 330.755 62.5229 330.58 62.7231C330.404 62.9185 330.26 63.1431 330.147 63.397C330.04 63.646 329.959 63.9048 329.906 64.1733V66.0703C330.003 66.4121 330.14 66.7344 330.316 67.0371C330.492 67.335 330.726 67.5767 331.019 67.7622C331.312 67.9429 331.681 68.0332 332.125 68.0332C332.491 68.0332 332.806 67.9575 333.07 67.8062C333.338 67.6499 333.558 67.4375 333.729 67.1689C333.905 66.9004 334.034 66.5928 334.117 66.2461C334.2 65.8945 334.242 65.521 334.242 65.1255ZM338.688 57.75V69H337.333V57.75H338.688ZM338.365 64.7373L337.801 64.7153C337.806 64.1733 337.887 63.6729 338.043 63.2139C338.199 62.75 338.419 62.3472 338.702 62.0054C338.985 61.6636 339.322 61.3999 339.713 61.2144C340.108 61.0239 340.545 60.9287 341.024 60.9287C341.415 60.9287 341.766 60.9824 342.079 61.0898C342.391 61.1924 342.657 61.3584 342.877 61.5879C343.102 61.8174 343.272 62.1152 343.39 62.4814C343.507 62.8428 343.565 63.2847 343.565 63.8071V69H342.203V63.7925C342.203 63.3774 342.142 63.0454 342.02 62.7964C341.898 62.5425 341.72 62.3594 341.485 62.2471C341.251 62.1299 340.963 62.0713 340.621 62.0713C340.284 62.0713 339.977 62.1421 339.698 62.2837C339.425 62.4253 339.188 62.6206 338.988 62.8696C338.792 63.1187 338.639 63.4043 338.526 63.7266C338.419 64.0439 338.365 64.3809 338.365 64.7373ZM347.821 68.1797L350.025 61.0752H351.476L348.297 70.2231C348.224 70.4185 348.126 70.6284 348.004 70.853C347.887 71.0825 347.735 71.2998 347.55 71.5049C347.364 71.71 347.14 71.876 346.876 72.0029C346.617 72.1348 346.307 72.2007 345.946 72.2007C345.838 72.2007 345.702 72.186 345.536 72.1567C345.37 72.1274 345.252 72.103 345.184 72.0835L345.177 70.9849C345.216 70.9897 345.277 70.9946 345.36 70.9995C345.448 71.0093 345.509 71.0142 345.543 71.0142C345.851 71.0142 346.112 70.9727 346.327 70.8896C346.542 70.8115 346.722 70.6772 346.869 70.4868C347.02 70.3013 347.149 70.0449 347.257 69.7178L347.821 68.1797ZM346.202 61.0752L348.26 67.2275L348.612 68.6558L347.638 69.1538L344.723 61.0752H346.202Z" fill="#505050"/>
<rect x="273" y="86" width="20" height="20" rx="4" fill="#0059FF"/>
<path d="M281.238 100.088L277.338 96.1659C277.104 95.9303 277.104 95.5482 277.338 95.3125L278.186 94.4591C278.421 94.2234 278.801 94.2234 279.035 94.4591L281.662 97.1014L286.965 91.9117C287.199 91.6761 287.579 91.6761 287.814 91.9117L288.662 92.7651C288.896 93.0008 288.896 93.3829 288.662 93.6185L282.086 100.088C281.852 100.324 281.472 100.324 281.238 100.088Z" fill="white"/>
<path d="M307.921 98.3047C307.921 98.0557 307.882 97.8359 307.804 97.6455C307.731 97.4502 307.599 97.2744 307.409 97.1182C307.223 96.9619 306.964 96.813 306.632 96.6714C306.305 96.5298 305.89 96.3857 305.387 96.2393C304.86 96.083 304.384 95.9097 303.959 95.7192C303.534 95.5239 303.17 95.3018 302.868 95.0527C302.565 94.8037 302.333 94.5181 302.172 94.1958C302.011 93.8735 301.93 93.5049 301.93 93.0898C301.93 92.6748 302.016 92.2915 302.187 91.9399C302.357 91.5884 302.602 91.2832 302.919 91.0244C303.241 90.7607 303.625 90.5557 304.069 90.4092C304.513 90.2627 305.009 90.1895 305.556 90.1895C306.356 90.1895 307.035 90.3433 307.592 90.6509C308.153 90.9536 308.581 91.3516 308.874 91.8447C309.167 92.333 309.313 92.8555 309.313 93.4121H307.907C307.907 93.0117 307.821 92.6577 307.65 92.3501C307.479 92.0376 307.221 91.7935 306.874 91.6177C306.527 91.437 306.088 91.3467 305.556 91.3467C305.053 91.3467 304.638 91.4224 304.311 91.5737C303.983 91.7251 303.739 91.9302 303.578 92.189C303.422 92.4478 303.344 92.7432 303.344 93.0752C303.344 93.2998 303.39 93.5049 303.483 93.6904C303.581 93.8711 303.729 94.0396 303.93 94.1958C304.135 94.3521 304.394 94.4961 304.706 94.6279C305.023 94.7598 305.402 94.8867 305.841 95.0088C306.447 95.1797 306.969 95.3701 307.409 95.5801C307.848 95.79 308.209 96.0269 308.493 96.2905C308.781 96.5493 308.993 96.8447 309.13 97.1768C309.271 97.5039 309.342 97.875 309.342 98.29C309.342 98.7246 309.254 99.1177 309.079 99.4692C308.903 99.8208 308.651 100.121 308.324 100.37C307.997 100.619 307.604 100.812 307.145 100.949C306.691 101.081 306.183 101.146 305.622 101.146C305.128 101.146 304.643 101.078 304.164 100.941C303.69 100.805 303.258 100.6 302.868 100.326C302.482 100.053 302.172 99.7158 301.938 99.3154C301.708 98.9102 301.593 98.4414 301.593 97.9092H303C303 98.2754 303.07 98.5903 303.212 98.854C303.354 99.1128 303.546 99.3276 303.791 99.4985C304.04 99.6694 304.32 99.7964 304.633 99.8794C304.95 99.9575 305.28 99.9966 305.622 99.9966C306.115 99.9966 306.532 99.9282 306.874 99.7915C307.216 99.6548 307.475 99.4595 307.65 99.2056C307.831 98.9517 307.921 98.6514 307.921 98.3047ZM312.294 94.5986V104.047H310.932V93.0752H312.177L312.294 94.5986ZM317.633 96.9717V97.1255C317.633 97.7017 317.565 98.2363 317.428 98.7295C317.292 99.2178 317.091 99.6426 316.828 100.004C316.569 100.365 316.249 100.646 315.868 100.846C315.487 101.046 315.05 101.146 314.557 101.146C314.054 101.146 313.61 101.063 313.224 100.897C312.838 100.731 312.511 100.49 312.243 100.172C311.974 99.855 311.759 99.4741 311.598 99.0298C311.442 98.5854 311.334 98.085 311.276 97.5283V96.708C311.334 96.1221 311.444 95.5972 311.605 95.1333C311.767 94.6694 311.979 94.2739 312.243 93.9468C312.511 93.6147 312.836 93.3633 313.217 93.1924C313.598 93.0166 314.037 92.9287 314.535 92.9287C315.033 92.9287 315.475 93.0264 315.861 93.2217C316.247 93.4121 316.571 93.6855 316.835 94.042C317.099 94.3984 317.296 94.8257 317.428 95.3237C317.565 95.8169 317.633 96.3662 317.633 96.9717ZM316.271 97.1255V96.9717C316.271 96.5762 316.229 96.2051 316.146 95.8584C316.063 95.5068 315.934 95.1992 315.758 94.9355C315.587 94.667 315.368 94.457 315.099 94.3057C314.831 94.1494 314.511 94.0713 314.14 94.0713C313.798 94.0713 313.5 94.1299 313.246 94.2471C312.997 94.3643 312.785 94.5229 312.609 94.7231C312.433 94.9185 312.289 95.1431 312.177 95.397C312.069 95.646 311.989 95.9048 311.935 96.1733V98.0703C312.033 98.4121 312.169 98.7344 312.345 99.0371C312.521 99.335 312.755 99.5767 313.048 99.7622C313.341 99.9429 313.71 100.033 314.154 100.033C314.521 100.033 314.835 99.9575 315.099 99.8062C315.368 99.6499 315.587 99.4375 315.758 99.1689C315.934 98.9004 316.063 98.5928 316.146 98.2461C316.229 97.8945 316.271 97.521 316.271 97.1255ZM324.035 99.645V95.5654C324.035 95.2529 323.971 94.9819 323.844 94.7524C323.722 94.5181 323.537 94.3374 323.288 94.2104C323.039 94.0835 322.731 94.02 322.365 94.02C322.023 94.02 321.723 94.0786 321.464 94.1958C321.21 94.313 321.01 94.4668 320.863 94.6572C320.722 94.8477 320.651 95.0527 320.651 95.2725H319.296C319.296 94.9893 319.369 94.7085 319.516 94.4302C319.662 94.1519 319.872 93.9004 320.146 93.6758C320.424 93.4463 320.756 93.2656 321.142 93.1338C321.532 92.9971 321.967 92.9287 322.445 92.9287C323.021 92.9287 323.529 93.0264 323.969 93.2217C324.413 93.417 324.76 93.7124 325.009 94.1079C325.263 94.4985 325.39 94.9893 325.39 95.5801V99.2715C325.39 99.5352 325.412 99.8159 325.456 100.114C325.504 100.412 325.575 100.668 325.668 100.883V101H324.254C324.186 100.844 324.132 100.636 324.093 100.377C324.054 100.114 324.035 99.8696 324.035 99.645ZM324.269 96.1953L324.284 97.1475H322.914C322.528 97.1475 322.184 97.1792 321.881 97.2427C321.579 97.3013 321.325 97.3916 321.12 97.5137C320.915 97.6357 320.758 97.7896 320.651 97.9751C320.543 98.1558 320.49 98.3682 320.49 98.6123C320.49 98.8613 320.546 99.0884 320.658 99.2935C320.771 99.4985 320.939 99.6621 321.164 99.7842C321.393 99.9014 321.674 99.96 322.006 99.96C322.421 99.96 322.787 99.8721 323.104 99.6963C323.422 99.5205 323.673 99.3057 323.859 99.0518C324.049 98.7979 324.152 98.5513 324.167 98.312L324.745 98.9639C324.711 99.1689 324.618 99.396 324.467 99.645C324.315 99.894 324.113 100.133 323.859 100.363C323.61 100.587 323.312 100.775 322.965 100.927C322.624 101.073 322.238 101.146 321.808 101.146C321.271 101.146 320.8 101.042 320.395 100.832C319.994 100.622 319.682 100.341 319.457 99.9893C319.237 99.6328 319.127 99.2349 319.127 98.7954C319.127 98.3706 319.21 97.9971 319.376 97.6748C319.542 97.3477 319.782 97.0767 320.094 96.8618C320.407 96.6421 320.783 96.4761 321.222 96.3638C321.662 96.2515 322.152 96.1953 322.694 96.1953H324.269ZM330.692 100.033C331.015 100.033 331.312 99.9673 331.586 99.8354C331.859 99.7036 332.084 99.5229 332.26 99.2935C332.436 99.0591 332.536 98.793 332.56 98.4951H333.849C333.825 98.9639 333.666 99.4009 333.373 99.8062C333.085 100.207 332.707 100.531 332.238 100.78C331.769 101.024 331.254 101.146 330.692 101.146C330.097 101.146 329.577 101.042 329.132 100.832C328.693 100.622 328.327 100.333 328.034 99.9673C327.746 99.6011 327.528 99.1812 327.382 98.7075C327.24 98.229 327.169 97.7236 327.169 97.1914V96.8838C327.169 96.3516 327.24 95.8486 327.382 95.375C327.528 94.8965 327.746 94.4741 328.034 94.1079C328.327 93.7417 328.693 93.4536 329.132 93.2437C329.577 93.0337 330.097 92.9287 330.692 92.9287C331.312 92.9287 331.854 93.0557 332.318 93.3096C332.782 93.5586 333.146 93.9004 333.41 94.335C333.678 94.7646 333.825 95.2529 333.849 95.7998H332.56C332.536 95.4727 332.443 95.1772 332.282 94.9136C332.125 94.6499 331.911 94.4399 331.637 94.2837C331.369 94.1226 331.054 94.042 330.692 94.042C330.277 94.042 329.928 94.125 329.645 94.291C329.367 94.4521 329.145 94.6719 328.979 94.9502C328.817 95.2236 328.7 95.5288 328.627 95.8657C328.559 96.1978 328.524 96.5371 328.524 96.8838V97.1914C328.524 97.5381 328.559 97.8799 328.627 98.2168C328.695 98.5537 328.81 98.8589 328.971 99.1323C329.137 99.4058 329.359 99.6255 329.638 99.7915C329.921 99.9526 330.272 100.033 330.692 100.033ZM336.845 93.0752V101H335.482V93.0752H336.845ZM335.38 90.9731C335.38 90.7534 335.446 90.5679 335.578 90.4165C335.714 90.2651 335.915 90.1895 336.178 90.1895C336.437 90.1895 336.635 90.2651 336.771 90.4165C336.913 90.5679 336.984 90.7534 336.984 90.9731C336.984 91.1831 336.913 91.3638 336.771 91.5151C336.635 91.6616 336.437 91.7349 336.178 91.7349C335.915 91.7349 335.714 91.6616 335.578 91.5151C335.446 91.3638 335.38 91.1831 335.38 90.9731ZM340.375 94.7671V101H339.02V93.0752H340.302L340.375 94.7671ZM340.053 96.7373L339.489 96.7153C339.494 96.1733 339.574 95.6729 339.73 95.2139C339.887 94.75 340.106 94.3472 340.39 94.0054C340.673 93.6636 341.01 93.3999 341.4 93.2144C341.796 93.0239 342.233 92.9287 342.711 92.9287C343.102 92.9287 343.454 92.9824 343.766 93.0898C344.079 93.1924 344.345 93.3584 344.564 93.5879C344.789 93.8174 344.96 94.1152 345.077 94.4814C345.194 94.8428 345.253 95.2847 345.253 95.8071V101H343.891V95.7925C343.891 95.3774 343.83 95.0454 343.708 94.7964C343.585 94.5425 343.407 94.3594 343.173 94.2471C342.938 94.1299 342.65 94.0713 342.309 94.0713C341.972 94.0713 341.664 94.1421 341.386 94.2837C341.112 94.4253 340.875 94.6206 340.675 94.8696C340.48 95.1187 340.326 95.4043 340.214 95.7266C340.106 96.0439 340.053 96.3809 340.053 96.7373ZM352.445 93.0752H353.676V100.832C353.676 101.53 353.534 102.125 353.251 102.619C352.968 103.112 352.572 103.485 352.064 103.739C351.562 103.998 350.98 104.127 350.321 104.127C350.048 104.127 349.726 104.083 349.354 103.996C348.988 103.913 348.627 103.769 348.271 103.563C347.919 103.363 347.624 103.092 347.384 102.75L348.095 101.945C348.427 102.345 348.773 102.624 349.135 102.78C349.501 102.936 349.862 103.014 350.219 103.014C350.648 103.014 351.02 102.934 351.332 102.772C351.645 102.611 351.886 102.372 352.057 102.055C352.233 101.742 352.321 101.356 352.321 100.897V94.8184L352.445 93.0752ZM346.989 97.1255V96.9717C346.989 96.3662 347.06 95.8169 347.201 95.3237C347.348 94.8257 347.555 94.3984 347.824 94.042C348.097 93.6855 348.427 93.4121 348.812 93.2217C349.198 93.0264 349.633 92.9287 350.116 92.9287C350.614 92.9287 351.049 93.0166 351.42 93.1924C351.796 93.3633 352.113 93.6147 352.372 93.9468C352.636 94.2739 352.843 94.6694 352.995 95.1333C353.146 95.5972 353.251 96.1221 353.31 96.708V97.3818C353.256 97.9629 353.151 98.4854 352.995 98.9492C352.843 99.4131 352.636 99.8086 352.372 100.136C352.113 100.463 351.796 100.714 351.42 100.89C351.044 101.061 350.604 101.146 350.102 101.146C349.628 101.146 349.198 101.046 348.812 100.846C348.432 100.646 348.104 100.365 347.831 100.004C347.558 99.6426 347.348 99.2178 347.201 98.7295C347.06 98.2363 346.989 97.7017 346.989 97.1255ZM348.344 96.9717V97.1255C348.344 97.521 348.383 97.8921 348.461 98.2388C348.544 98.5854 348.668 98.8906 348.834 99.1543C349.005 99.418 349.223 99.6255 349.486 99.7769C349.75 99.9233 350.065 99.9966 350.431 99.9966C350.88 99.9966 351.251 99.9014 351.544 99.7109C351.837 99.5205 352.069 99.269 352.24 98.9565C352.416 98.644 352.553 98.3047 352.65 97.9385V96.1733C352.597 95.9048 352.514 95.646 352.401 95.397C352.294 95.1431 352.152 94.9185 351.977 94.7231C351.806 94.5229 351.593 94.3643 351.339 94.2471C351.085 94.1299 350.788 94.0713 350.446 94.0713C350.075 94.0713 349.755 94.1494 349.486 94.3057C349.223 94.457 349.005 94.667 348.834 94.9355C348.668 95.1992 348.544 95.5068 348.461 95.8584C348.383 96.2051 348.344 96.5762 348.344 96.9717Z" fill="#505050"/>
<rect x="273.5" y="118.5" width="19" height="19" rx="3.5" fill="white"/>
<rect x="273.5" y="118.5" width="19" height="19" rx="3.5" stroke="#AAAAAA"/>
<path d="M302.238 122.336H305.768C306.569 122.336 307.245 122.458 307.797 122.702C308.354 122.946 308.776 123.308 309.064 123.786C309.357 124.26 309.503 124.843 309.503 125.537C309.503 126.025 309.403 126.472 309.203 126.877C309.008 127.277 308.725 127.619 308.354 127.902C307.987 128.181 307.548 128.388 307.035 128.525L306.64 128.679H303.322L303.307 127.529H305.812C306.32 127.529 306.742 127.441 307.079 127.265C307.416 127.084 307.67 126.843 307.841 126.54C308.012 126.237 308.097 125.903 308.097 125.537C308.097 125.126 308.017 124.768 307.855 124.46C307.694 124.152 307.44 123.916 307.094 123.75C306.752 123.579 306.31 123.493 305.768 123.493H303.651V133H302.238V122.336ZM308.471 133L305.878 128.166L307.35 128.159L309.979 132.912V133H308.471ZM314.564 133.146C314.013 133.146 313.512 133.054 313.063 132.868C312.619 132.678 312.235 132.412 311.913 132.07C311.596 131.728 311.352 131.323 311.181 130.854C311.01 130.385 310.924 129.873 310.924 129.316V129.008C310.924 128.364 311.02 127.79 311.21 127.287C311.4 126.779 311.659 126.35 311.986 125.998C312.313 125.646 312.685 125.38 313.1 125.2C313.515 125.019 313.944 124.929 314.389 124.929C314.955 124.929 315.443 125.026 315.854 125.222C316.269 125.417 316.608 125.69 316.872 126.042C317.135 126.389 317.331 126.799 317.458 127.272C317.584 127.741 317.648 128.254 317.648 128.811V129.418H311.73V128.312H316.293V128.21C316.273 127.858 316.2 127.517 316.073 127.185C315.951 126.853 315.756 126.579 315.487 126.364C315.219 126.149 314.853 126.042 314.389 126.042C314.081 126.042 313.798 126.108 313.539 126.24C313.28 126.367 313.058 126.557 312.873 126.811C312.687 127.065 312.543 127.375 312.44 127.741C312.338 128.107 312.287 128.53 312.287 129.008V129.316C312.287 129.692 312.338 130.046 312.44 130.378C312.548 130.705 312.702 130.993 312.902 131.242C313.107 131.491 313.354 131.687 313.642 131.828C313.935 131.97 314.267 132.041 314.638 132.041C315.116 132.041 315.521 131.943 315.854 131.748C316.186 131.552 316.476 131.291 316.725 130.964L317.545 131.616C317.375 131.875 317.157 132.121 316.894 132.355C316.63 132.59 316.305 132.78 315.919 132.927C315.539 133.073 315.087 133.146 314.564 133.146ZM323.903 131.645V127.565C323.903 127.253 323.839 126.982 323.712 126.752C323.59 126.518 323.405 126.337 323.156 126.21C322.907 126.083 322.599 126.02 322.233 126.02C321.891 126.02 321.591 126.079 321.332 126.196C321.078 126.313 320.878 126.467 320.731 126.657C320.59 126.848 320.519 127.053 320.519 127.272H319.164C319.164 126.989 319.237 126.708 319.384 126.43C319.53 126.152 319.74 125.9 320.014 125.676C320.292 125.446 320.624 125.266 321.01 125.134C321.4 124.997 321.835 124.929 322.313 124.929C322.89 124.929 323.397 125.026 323.837 125.222C324.281 125.417 324.628 125.712 324.877 126.108C325.131 126.499 325.258 126.989 325.258 127.58V131.271C325.258 131.535 325.28 131.816 325.324 132.114C325.373 132.412 325.443 132.668 325.536 132.883V133H324.123C324.054 132.844 324 132.636 323.961 132.377C323.922 132.114 323.903 131.87 323.903 131.645ZM324.137 128.195L324.152 129.147H322.782C322.396 129.147 322.052 129.179 321.75 129.243C321.447 129.301 321.193 129.392 320.988 129.514C320.783 129.636 320.626 129.79 320.519 129.975C320.412 130.156 320.358 130.368 320.358 130.612C320.358 130.861 320.414 131.088 320.526 131.293C320.639 131.499 320.807 131.662 321.032 131.784C321.261 131.901 321.542 131.96 321.874 131.96C322.289 131.96 322.655 131.872 322.973 131.696C323.29 131.521 323.542 131.306 323.727 131.052C323.917 130.798 324.02 130.551 324.035 130.312L324.613 130.964C324.579 131.169 324.486 131.396 324.335 131.645C324.184 131.894 323.981 132.133 323.727 132.363C323.478 132.587 323.18 132.775 322.833 132.927C322.492 133.073 322.106 133.146 321.676 133.146C321.139 133.146 320.668 133.042 320.263 132.832C319.862 132.622 319.55 132.341 319.325 131.989C319.105 131.633 318.996 131.235 318.996 130.795C318.996 130.371 319.079 129.997 319.245 129.675C319.411 129.348 319.65 129.077 319.962 128.862C320.275 128.642 320.651 128.476 321.09 128.364C321.53 128.251 322.021 128.195 322.562 128.195H324.137ZM332.384 131.462V121.75H333.747V133H332.501L332.384 131.462ZM327.052 129.125V128.972C327.052 128.366 327.125 127.817 327.272 127.324C327.423 126.826 327.636 126.398 327.909 126.042C328.188 125.686 328.517 125.412 328.898 125.222C329.284 125.026 329.713 124.929 330.187 124.929C330.685 124.929 331.12 125.017 331.491 125.192C331.867 125.363 332.184 125.615 332.443 125.947C332.707 126.274 332.914 126.669 333.065 127.133C333.217 127.597 333.322 128.122 333.38 128.708V129.382C333.327 129.963 333.222 130.485 333.065 130.949C332.914 131.413 332.707 131.809 332.443 132.136C332.184 132.463 331.867 132.714 331.491 132.89C331.115 133.061 330.675 133.146 330.172 133.146C329.708 133.146 329.284 133.046 328.898 132.846C328.517 132.646 328.188 132.365 327.909 132.004C327.636 131.643 327.423 131.218 327.272 130.729C327.125 130.236 327.052 129.702 327.052 129.125ZM328.415 128.972V129.125C328.415 129.521 328.454 129.892 328.532 130.239C328.615 130.585 328.742 130.891 328.913 131.154C329.083 131.418 329.301 131.625 329.564 131.777C329.828 131.923 330.143 131.997 330.509 131.997C330.958 131.997 331.327 131.901 331.615 131.711C331.908 131.521 332.143 131.269 332.318 130.957C332.494 130.644 332.631 130.305 332.729 129.938V128.173C332.67 127.905 332.584 127.646 332.472 127.397C332.365 127.143 332.223 126.918 332.047 126.723C331.876 126.523 331.664 126.364 331.41 126.247C331.161 126.13 330.866 126.071 330.524 126.071C330.153 126.071 329.833 126.149 329.564 126.306C329.301 126.457 329.083 126.667 328.913 126.936C328.742 127.199 328.615 127.507 328.532 127.858C328.454 128.205 328.415 128.576 328.415 128.972ZM340.529 131.645V127.565C340.529 127.253 340.465 126.982 340.338 126.752C340.216 126.518 340.031 126.337 339.782 126.21C339.533 126.083 339.225 126.02 338.859 126.02C338.517 126.02 338.217 126.079 337.958 126.196C337.704 126.313 337.504 126.467 337.357 126.657C337.216 126.848 337.145 127.053 337.145 127.272H335.79C335.79 126.989 335.863 126.708 336.01 126.43C336.156 126.152 336.366 125.9 336.64 125.676C336.918 125.446 337.25 125.266 337.636 125.134C338.026 124.997 338.461 124.929 338.939 124.929C339.516 124.929 340.023 125.026 340.463 125.222C340.907 125.417 341.254 125.712 341.503 126.108C341.757 126.499 341.884 126.989 341.884 127.58V131.271C341.884 131.535 341.906 131.816 341.95 132.114C341.999 132.412 342.069 132.668 342.162 132.883V133H340.749C340.68 132.844 340.626 132.636 340.587 132.377C340.548 132.114 340.529 131.87 340.529 131.645ZM340.763 128.195L340.778 129.147H339.408C339.022 129.147 338.678 129.179 338.375 129.243C338.073 129.301 337.819 129.392 337.614 129.514C337.409 129.636 337.252 129.79 337.145 129.975C337.038 130.156 336.984 130.368 336.984 130.612C336.984 130.861 337.04 131.088 337.152 131.293C337.265 131.499 337.433 131.662 337.658 131.784C337.887 131.901 338.168 131.96 338.5 131.96C338.915 131.96 339.281 131.872 339.599 131.696C339.916 131.521 340.167 131.306 340.353 131.052C340.543 130.798 340.646 130.551 340.661 130.312L341.239 130.964C341.205 131.169 341.112 131.396 340.961 131.645C340.81 131.894 340.607 132.133 340.353 132.363C340.104 132.587 339.806 132.775 339.459 132.927C339.118 133.073 338.732 133.146 338.302 133.146C337.765 133.146 337.294 133.042 336.889 132.832C336.488 132.622 336.176 132.341 335.951 131.989C335.731 131.633 335.622 131.235 335.622 130.795C335.622 130.371 335.705 129.997 335.871 129.675C336.037 129.348 336.276 129.077 336.588 128.862C336.901 128.642 337.277 128.476 337.716 128.364C338.156 128.251 338.646 128.195 339.188 128.195H340.763ZM344.008 121.75H345.37V131.462L345.253 133H344.008V121.75ZM350.724 128.972V129.125C350.724 129.702 350.656 130.236 350.519 130.729C350.382 131.218 350.182 131.643 349.918 132.004C349.655 132.365 349.333 132.646 348.952 132.846C348.571 133.046 348.134 133.146 347.641 133.146C347.138 133.146 346.696 133.061 346.315 132.89C345.939 132.714 345.622 132.463 345.363 132.136C345.104 131.809 344.896 131.413 344.74 130.949C344.589 130.485 344.484 129.963 344.425 129.382V128.708C344.484 128.122 344.589 127.597 344.74 127.133C344.896 126.669 345.104 126.274 345.363 125.947C345.622 125.615 345.939 125.363 346.315 125.192C346.691 125.017 347.128 124.929 347.626 124.929C348.124 124.929 348.566 125.026 348.952 125.222C349.337 125.412 349.66 125.686 349.918 126.042C350.182 126.398 350.382 126.826 350.519 127.324C350.656 127.817 350.724 128.366 350.724 128.972ZM349.362 129.125V128.972C349.362 128.576 349.325 128.205 349.252 127.858C349.179 127.507 349.062 127.199 348.9 126.936C348.739 126.667 348.527 126.457 348.263 126.306C348 126.149 347.675 126.071 347.289 126.071C346.947 126.071 346.649 126.13 346.396 126.247C346.146 126.364 345.934 126.523 345.758 126.723C345.583 126.918 345.438 127.143 345.326 127.397C345.219 127.646 345.138 127.905 345.084 128.173V129.938C345.163 130.28 345.29 130.61 345.465 130.927C345.646 131.24 345.885 131.496 346.183 131.696C346.486 131.896 346.859 131.997 347.304 131.997C347.67 131.997 347.982 131.923 348.241 131.777C348.505 131.625 348.717 131.418 348.878 131.154C349.044 130.891 349.167 130.585 349.245 130.239C349.323 129.892 349.362 129.521 349.362 129.125ZM353.91 125.075V133H352.548V125.075H353.91ZM352.445 122.973C352.445 122.753 352.511 122.568 352.643 122.417C352.78 122.265 352.98 122.189 353.244 122.189C353.502 122.189 353.7 122.265 353.837 122.417C353.979 122.568 354.049 122.753 354.049 122.973C354.049 123.183 353.979 123.364 353.837 123.515C353.7 123.662 353.502 123.735 353.244 123.735C352.98 123.735 352.78 123.662 352.643 123.515C352.511 123.364 352.445 123.183 352.445 122.973ZM357.558 121.75V133H356.195V121.75H357.558ZM361.205 125.075V133H359.843V125.075H361.205ZM359.74 122.973C359.74 122.753 359.806 122.568 359.938 122.417C360.075 122.265 360.275 122.189 360.539 122.189C360.797 122.189 360.995 122.265 361.132 122.417C361.273 122.568 361.344 122.753 361.344 122.973C361.344 123.183 361.273 123.364 361.132 123.515C360.995 123.662 360.797 123.735 360.539 123.735C360.275 123.735 360.075 123.662 359.938 123.515C359.806 123.364 359.74 123.183 359.74 122.973ZM366.698 125.075V126.115H362.414V125.075H366.698ZM363.864 123.149H365.219V131.037C365.219 131.306 365.26 131.508 365.343 131.645C365.426 131.782 365.534 131.872 365.666 131.916C365.797 131.96 365.939 131.982 366.09 131.982C366.203 131.982 366.32 131.972 366.442 131.953C366.569 131.928 366.664 131.909 366.728 131.894L366.735 133C366.627 133.034 366.486 133.066 366.31 133.095C366.139 133.129 365.932 133.146 365.688 133.146C365.355 133.146 365.05 133.081 364.772 132.949C364.494 132.817 364.271 132.597 364.105 132.29C363.944 131.977 363.864 131.557 363.864 131.03V123.149ZM370.514 132.18L372.719 125.075H374.169L370.99 134.223C370.917 134.418 370.819 134.628 370.697 134.853C370.58 135.083 370.429 135.3 370.243 135.505C370.058 135.71 369.833 135.876 369.569 136.003C369.311 136.135 369 136.201 368.639 136.201C368.532 136.201 368.395 136.186 368.229 136.157C368.063 136.127 367.946 136.103 367.877 136.083L367.87 134.985C367.909 134.99 367.97 134.995 368.053 135C368.141 135.009 368.202 135.014 368.236 135.014C368.544 135.014 368.805 134.973 369.02 134.89C369.235 134.812 369.416 134.677 369.562 134.487C369.713 134.301 369.843 134.045 369.95 133.718L370.514 132.18ZM368.896 125.075L370.954 131.228L371.305 132.656L370.331 133.154L367.416 125.075H368.896Z" fill="#505050"/>
<rect x="246" y="150" width="20" height="20" rx="4" fill="#0059FF"/>
<path d="M254.238 164.088L250.338 160.166C250.104 159.93 250.104 159.548 250.338 159.313L251.186 158.459C251.421 158.223 251.801 158.223 252.035 158.459L254.662 161.101L259.965 155.912C260.199 155.676 260.579 155.676 260.814 155.912L261.662 156.765C261.896 157.001 261.896 157.383 261.662 157.619L255.086 164.088C254.852 164.324 254.472 164.324 254.238 164.088Z" fill="white"/>
<path d="M281.676 161.609H283.082C283.009 162.283 282.816 162.886 282.503 163.418C282.191 163.95 281.749 164.373 281.178 164.685C280.606 164.993 279.894 165.146 279.039 165.146C278.414 165.146 277.845 165.029 277.333 164.795C276.825 164.561 276.388 164.229 276.021 163.799C275.655 163.364 275.372 162.844 275.172 162.239C274.977 161.628 274.879 160.95 274.879 160.203V159.141C274.879 158.394 274.977 157.717 275.172 157.112C275.372 156.501 275.658 155.979 276.029 155.544C276.405 155.11 276.856 154.775 277.384 154.541C277.911 154.307 278.504 154.189 279.164 154.189C279.969 154.189 280.65 154.341 281.207 154.644C281.764 154.946 282.196 155.366 282.503 155.903C282.816 156.436 283.009 157.053 283.082 157.756H281.676C281.607 157.258 281.48 156.831 281.295 156.475C281.109 156.113 280.846 155.835 280.504 155.64C280.162 155.444 279.715 155.347 279.164 155.347C278.69 155.347 278.272 155.437 277.911 155.618C277.555 155.798 277.254 156.055 277.01 156.387C276.771 156.719 276.59 157.117 276.468 157.581C276.346 158.044 276.285 158.56 276.285 159.126V160.203C276.285 160.725 276.339 161.216 276.446 161.675C276.559 162.134 276.727 162.537 276.952 162.883C277.176 163.23 277.462 163.503 277.809 163.704C278.155 163.899 278.565 163.997 279.039 163.997C279.64 163.997 280.118 163.901 280.475 163.711C280.831 163.521 281.1 163.247 281.28 162.891C281.466 162.534 281.598 162.107 281.676 161.609ZM284.444 161.125V160.957C284.444 160.386 284.527 159.856 284.693 159.368C284.859 158.875 285.099 158.447 285.411 158.086C285.724 157.72 286.102 157.437 286.546 157.236C286.991 157.031 287.489 156.929 288.041 156.929C288.597 156.929 289.098 157.031 289.542 157.236C289.991 157.437 290.372 157.72 290.685 158.086C291.002 158.447 291.244 158.875 291.41 159.368C291.576 159.856 291.659 160.386 291.659 160.957V161.125C291.659 161.697 291.576 162.227 291.41 162.715C291.244 163.203 291.002 163.63 290.685 163.997C290.372 164.358 289.994 164.641 289.549 164.846C289.11 165.046 288.612 165.146 288.055 165.146C287.499 165.146 286.998 165.046 286.554 164.846C286.109 164.641 285.729 164.358 285.411 163.997C285.099 163.63 284.859 163.203 284.693 162.715C284.527 162.227 284.444 161.697 284.444 161.125ZM285.799 160.957V161.125C285.799 161.521 285.846 161.895 285.938 162.246C286.031 162.593 286.17 162.9 286.356 163.169C286.546 163.438 286.783 163.65 287.066 163.806C287.35 163.958 287.679 164.033 288.055 164.033C288.426 164.033 288.751 163.958 289.029 163.806C289.312 163.65 289.547 163.438 289.732 163.169C289.918 162.9 290.057 162.593 290.15 162.246C290.248 161.895 290.296 161.521 290.296 161.125V160.957C290.296 160.566 290.248 160.198 290.15 159.851C290.057 159.5 289.916 159.189 289.725 158.921C289.54 158.647 289.305 158.433 289.022 158.276C288.744 158.12 288.417 158.042 288.041 158.042C287.669 158.042 287.342 158.12 287.059 158.276C286.781 158.433 286.546 158.647 286.356 158.921C286.17 159.189 286.031 159.5 285.938 159.851C285.846 160.198 285.799 160.566 285.799 160.957ZM298.353 163.462V153.75H299.715V165H298.47L298.353 163.462ZM293.021 161.125V160.972C293.021 160.366 293.094 159.817 293.241 159.324C293.392 158.826 293.604 158.398 293.878 158.042C294.156 157.686 294.486 157.412 294.867 157.222C295.252 157.026 295.682 156.929 296.156 156.929C296.654 156.929 297.088 157.017 297.459 157.192C297.835 157.363 298.153 157.615 298.412 157.947C298.675 158.274 298.883 158.669 299.034 159.133C299.186 159.597 299.291 160.122 299.349 160.708V161.382C299.295 161.963 299.19 162.485 299.034 162.949C298.883 163.413 298.675 163.809 298.412 164.136C298.153 164.463 297.835 164.714 297.459 164.89C297.083 165.061 296.644 165.146 296.141 165.146C295.677 165.146 295.252 165.046 294.867 164.846C294.486 164.646 294.156 164.365 293.878 164.004C293.604 163.643 293.392 163.218 293.241 162.729C293.094 162.236 293.021 161.702 293.021 161.125ZM294.383 160.972V161.125C294.383 161.521 294.422 161.892 294.5 162.239C294.583 162.585 294.71 162.891 294.881 163.154C295.052 163.418 295.27 163.625 295.533 163.777C295.797 163.923 296.112 163.997 296.478 163.997C296.927 163.997 297.296 163.901 297.584 163.711C297.877 163.521 298.111 163.269 298.287 162.957C298.463 162.644 298.6 162.305 298.697 161.938V160.173C298.639 159.905 298.553 159.646 298.441 159.397C298.333 159.143 298.192 158.918 298.016 158.723C297.845 158.523 297.633 158.364 297.379 158.247C297.13 158.13 296.834 158.071 296.493 158.071C296.122 158.071 295.802 158.149 295.533 158.306C295.27 158.457 295.052 158.667 294.881 158.936C294.71 159.199 294.583 159.507 294.5 159.858C294.422 160.205 294.383 160.576 294.383 160.972ZM303.297 157.075V165H301.935V157.075H303.297ZM301.832 154.973C301.832 154.753 301.898 154.568 302.03 154.417C302.167 154.265 302.367 154.189 302.63 154.189C302.889 154.189 303.087 154.265 303.224 154.417C303.365 154.568 303.436 154.753 303.436 154.973C303.436 155.183 303.365 155.364 303.224 155.515C303.087 155.662 302.889 155.735 302.63 155.735C302.367 155.735 302.167 155.662 302.03 155.515C301.898 155.364 301.832 155.183 301.832 154.973ZM306.827 158.767V165H305.472V157.075H306.754L306.827 158.767ZM306.505 160.737L305.941 160.715C305.946 160.173 306.026 159.673 306.183 159.214C306.339 158.75 306.559 158.347 306.842 158.005C307.125 157.664 307.462 157.4 307.853 157.214C308.248 157.024 308.685 156.929 309.164 156.929C309.554 156.929 309.906 156.982 310.218 157.09C310.531 157.192 310.797 157.358 311.017 157.588C311.241 157.817 311.412 158.115 311.529 158.481C311.646 158.843 311.705 159.285 311.705 159.807V165H310.343V159.792C310.343 159.377 310.282 159.045 310.16 158.796C310.038 158.542 309.859 158.359 309.625 158.247C309.391 158.13 309.103 158.071 308.761 158.071C308.424 158.071 308.116 158.142 307.838 158.284C307.564 158.425 307.328 158.621 307.127 158.87C306.932 159.119 306.778 159.404 306.666 159.727C306.559 160.044 306.505 160.381 306.505 160.737ZM318.897 157.075H320.128V164.832C320.128 165.53 319.986 166.125 319.703 166.619C319.42 167.112 319.024 167.485 318.517 167.739C318.014 167.998 317.433 168.127 316.773 168.127C316.5 168.127 316.178 168.083 315.807 167.996C315.44 167.913 315.079 167.769 314.723 167.563C314.371 167.363 314.076 167.092 313.836 166.75L314.547 165.945C314.879 166.345 315.226 166.624 315.587 166.78C315.953 166.936 316.314 167.014 316.671 167.014C317.101 167.014 317.472 166.934 317.784 166.772C318.097 166.611 318.338 166.372 318.509 166.055C318.685 165.742 318.773 165.356 318.773 164.897V158.818L318.897 157.075ZM313.441 161.125V160.972C313.441 160.366 313.512 159.817 313.653 159.324C313.8 158.826 314.007 158.398 314.276 158.042C314.549 157.686 314.879 157.412 315.265 157.222C315.65 157.026 316.085 156.929 316.568 156.929C317.066 156.929 317.501 157.017 317.872 157.192C318.248 157.363 318.565 157.615 318.824 157.947C319.088 158.274 319.295 158.669 319.447 159.133C319.598 159.597 319.703 160.122 319.762 160.708V161.382C319.708 161.963 319.603 162.485 319.447 162.949C319.295 163.413 319.088 163.809 318.824 164.136C318.565 164.463 318.248 164.714 317.872 164.89C317.496 165.061 317.057 165.146 316.554 165.146C316.08 165.146 315.65 165.046 315.265 164.846C314.884 164.646 314.557 164.365 314.283 164.004C314.01 163.643 313.8 163.218 313.653 162.729C313.512 162.236 313.441 161.702 313.441 161.125ZM314.796 160.972V161.125C314.796 161.521 314.835 161.892 314.913 162.239C314.996 162.585 315.121 162.891 315.287 163.154C315.458 163.418 315.675 163.625 315.938 163.777C316.202 163.923 316.517 163.997 316.883 163.997C317.333 163.997 317.704 163.901 317.997 163.711C318.29 163.521 318.521 163.269 318.692 162.957C318.868 162.644 319.005 162.305 319.103 161.938V160.173C319.049 159.905 318.966 159.646 318.854 159.397C318.746 159.143 318.604 158.918 318.429 158.723C318.258 158.523 318.045 158.364 317.792 158.247C317.538 158.13 317.24 158.071 316.898 158.071C316.527 158.071 316.207 158.149 315.938 158.306C315.675 158.457 315.458 158.667 315.287 158.936C315.121 159.199 314.996 159.507 314.913 159.858C314.835 160.205 314.796 160.576 314.796 160.972Z" fill="#505050"/>
<rect x="273" y="182" width="20" height="20" rx="4" fill="#0059FF"/>
<path d="M281.238 196.088L277.338 192.166C277.104 191.93 277.104 191.548 277.338 191.313L278.186 190.459C278.421 190.223 278.801 190.223 279.035 190.459L281.662 193.101L286.965 187.912C287.199 187.676 287.579 187.676 287.814 187.912L288.662 188.765C288.896 189.001 288.896 189.383 288.662 189.619L282.086 196.088C281.852 196.324 281.472 196.324 281.238 196.088Z" fill="white"/>
<path d="M309.203 190.921V192.071H303.432V190.921H309.203ZM303.651 186.336V197H302.238V186.336H303.651ZM310.434 186.336V197H309.027V186.336H310.434ZM316.667 186.336V197H315.275V186.336H316.667ZM320.094 186.336V187.493H311.854V186.336H320.094ZM322.123 186.336H323.493L326.986 195.03L330.473 186.336H331.85L327.514 197H326.444L322.123 186.336ZM321.676 186.336H322.885L323.083 192.84V197H321.676V186.336ZM331.081 186.336H332.289V197H330.883V192.84L331.081 186.336ZM341.239 195.85V197H335.907V195.85H341.239ZM336.186 186.336V197H334.772V186.336H336.186Z" fill="#505050"/>
<rect x="273" y="214" width="20" height="20" rx="4" fill="#0059FF"/>
<path d="M281.238 228.088L277.338 224.166C277.104 223.93 277.104 223.548 277.338 223.313L278.186 222.459C278.421 222.223 278.801 222.223 279.035 222.459L281.662 225.101L286.965 219.912C287.199 219.676 287.579 219.676 287.814 219.912L288.662 220.765C288.896 221.001 288.896 221.383 288.662 221.619L282.086 228.088C281.852 228.324 281.472 228.324 281.238 228.088Z" fill="white"/>
<path d="M307.921 226.305C307.921 226.056 307.882 225.836 307.804 225.646C307.731 225.45 307.599 225.274 307.409 225.118C307.223 224.962 306.964 224.813 306.632 224.671C306.305 224.53 305.89 224.386 305.387 224.239C304.86 224.083 304.384 223.91 303.959 223.719C303.534 223.524 303.17 223.302 302.868 223.053C302.565 222.804 302.333 222.518 302.172 222.196C302.011 221.874 301.93 221.505 301.93 221.09C301.93 220.675 302.016 220.292 302.187 219.94C302.357 219.588 302.602 219.283 302.919 219.024C303.241 218.761 303.625 218.556 304.069 218.409C304.513 218.263 305.009 218.189 305.556 218.189C306.356 218.189 307.035 218.343 307.592 218.651C308.153 218.954 308.581 219.352 308.874 219.845C309.167 220.333 309.313 220.855 309.313 221.412H307.907C307.907 221.012 307.821 220.658 307.65 220.35C307.479 220.038 307.221 219.793 306.874 219.618C306.527 219.437 306.088 219.347 305.556 219.347C305.053 219.347 304.638 219.422 304.311 219.574C303.983 219.725 303.739 219.93 303.578 220.189C303.422 220.448 303.344 220.743 303.344 221.075C303.344 221.3 303.39 221.505 303.483 221.69C303.581 221.871 303.729 222.04 303.93 222.196C304.135 222.352 304.394 222.496 304.706 222.628C305.023 222.76 305.402 222.887 305.841 223.009C306.447 223.18 306.969 223.37 307.409 223.58C307.848 223.79 308.209 224.027 308.493 224.291C308.781 224.549 308.993 224.845 309.13 225.177C309.271 225.504 309.342 225.875 309.342 226.29C309.342 226.725 309.254 227.118 309.079 227.469C308.903 227.821 308.651 228.121 308.324 228.37C307.997 228.619 307.604 228.812 307.145 228.949C306.691 229.081 306.183 229.146 305.622 229.146C305.128 229.146 304.643 229.078 304.164 228.941C303.69 228.805 303.258 228.6 302.868 228.326C302.482 228.053 302.172 227.716 301.938 227.315C301.708 226.91 301.593 226.441 301.593 225.909H303C303 226.275 303.07 226.59 303.212 226.854C303.354 227.113 303.546 227.328 303.791 227.499C304.04 227.669 304.32 227.796 304.633 227.879C304.95 227.958 305.28 227.997 305.622 227.997C306.115 227.997 306.532 227.928 306.874 227.792C307.216 227.655 307.475 227.459 307.65 227.206C307.831 226.952 307.921 226.651 307.921 226.305ZM315.612 227.645V223.565C315.612 223.253 315.548 222.982 315.421 222.752C315.299 222.518 315.114 222.337 314.865 222.21C314.616 222.083 314.308 222.02 313.942 222.02C313.6 222.02 313.3 222.079 313.041 222.196C312.787 222.313 312.587 222.467 312.44 222.657C312.299 222.848 312.228 223.053 312.228 223.272H310.873C310.873 222.989 310.946 222.708 311.093 222.43C311.239 222.152 311.449 221.9 311.723 221.676C312.001 221.446 312.333 221.266 312.719 221.134C313.109 220.997 313.544 220.929 314.022 220.929C314.599 220.929 315.106 221.026 315.546 221.222C315.99 221.417 316.337 221.712 316.586 222.108C316.84 222.499 316.967 222.989 316.967 223.58V227.271C316.967 227.535 316.989 227.816 317.033 228.114C317.082 228.412 317.152 228.668 317.245 228.883V229H315.832C315.763 228.844 315.709 228.636 315.67 228.377C315.631 228.114 315.612 227.87 315.612 227.645ZM315.846 224.195L315.861 225.147H314.491C314.105 225.147 313.761 225.179 313.458 225.243C313.156 225.301 312.902 225.392 312.697 225.514C312.492 225.636 312.335 225.79 312.228 225.975C312.121 226.156 312.067 226.368 312.067 226.612C312.067 226.861 312.123 227.088 312.235 227.293C312.348 227.499 312.516 227.662 312.741 227.784C312.97 227.901 313.251 227.96 313.583 227.96C313.998 227.96 314.364 227.872 314.682 227.696C314.999 227.521 315.25 227.306 315.436 227.052C315.626 226.798 315.729 226.551 315.744 226.312L316.322 226.964C316.288 227.169 316.195 227.396 316.044 227.645C315.893 227.894 315.69 228.133 315.436 228.363C315.187 228.587 314.889 228.775 314.542 228.927C314.201 229.073 313.815 229.146 313.385 229.146C312.848 229.146 312.377 229.042 311.972 228.832C311.571 228.622 311.259 228.341 311.034 227.989C310.814 227.633 310.705 227.235 310.705 226.795C310.705 226.371 310.788 225.997 310.954 225.675C311.12 225.348 311.359 225.077 311.671 224.862C311.984 224.642 312.36 224.476 312.799 224.364C313.239 224.251 313.729 224.195 314.271 224.195H315.846ZM323.712 226.898C323.712 226.703 323.668 226.522 323.581 226.356C323.498 226.185 323.324 226.031 323.061 225.895C322.802 225.753 322.411 225.631 321.889 225.528C321.449 225.436 321.051 225.326 320.695 225.199C320.343 225.072 320.043 224.918 319.794 224.737C319.55 224.557 319.362 224.344 319.23 224.1C319.098 223.856 319.032 223.57 319.032 223.243C319.032 222.931 319.101 222.635 319.237 222.357C319.379 222.079 319.577 221.832 319.831 221.617C320.089 221.402 320.399 221.234 320.761 221.112C321.122 220.99 321.525 220.929 321.969 220.929C322.604 220.929 323.146 221.041 323.595 221.266C324.044 221.49 324.389 221.791 324.628 222.167C324.867 222.538 324.987 222.95 324.987 223.404H323.632C323.632 223.185 323.566 222.972 323.434 222.767C323.307 222.557 323.119 222.384 322.87 222.247C322.626 222.11 322.326 222.042 321.969 222.042C321.593 222.042 321.288 222.101 321.054 222.218C320.824 222.33 320.656 222.474 320.548 222.65C320.446 222.826 320.395 223.011 320.395 223.207C320.395 223.353 320.419 223.485 320.468 223.602C320.521 223.714 320.614 223.819 320.746 223.917C320.878 224.01 321.063 224.098 321.303 224.181C321.542 224.264 321.847 224.347 322.218 224.43C322.868 224.576 323.402 224.752 323.822 224.957C324.242 225.162 324.555 225.414 324.76 225.711C324.965 226.009 325.067 226.371 325.067 226.795C325.067 227.142 324.994 227.459 324.848 227.748C324.706 228.036 324.499 228.285 324.225 228.495C323.957 228.7 323.634 228.861 323.258 228.978C322.887 229.09 322.47 229.146 322.006 229.146C321.308 229.146 320.717 229.022 320.233 228.773C319.75 228.524 319.384 228.202 319.135 227.806C318.886 227.411 318.761 226.993 318.761 226.554H320.124C320.143 226.925 320.25 227.22 320.446 227.44C320.641 227.655 320.88 227.809 321.164 227.901C321.447 227.989 321.728 228.033 322.006 228.033C322.377 228.033 322.687 227.984 322.936 227.887C323.19 227.789 323.383 227.655 323.515 227.484C323.646 227.313 323.712 227.118 323.712 226.898ZM331.461 226.898C331.461 226.703 331.417 226.522 331.33 226.356C331.247 226.185 331.073 226.031 330.81 225.895C330.551 225.753 330.16 225.631 329.638 225.528C329.198 225.436 328.8 225.326 328.444 225.199C328.092 225.072 327.792 224.918 327.543 224.737C327.299 224.557 327.111 224.344 326.979 224.1C326.847 223.856 326.781 223.57 326.781 223.243C326.781 222.931 326.85 222.635 326.986 222.357C327.128 222.079 327.326 221.832 327.58 221.617C327.838 221.402 328.148 221.234 328.51 221.112C328.871 220.99 329.274 220.929 329.718 220.929C330.353 220.929 330.895 221.041 331.344 221.266C331.793 221.49 332.138 221.791 332.377 222.167C332.616 222.538 332.736 222.95 332.736 223.404H331.381C331.381 223.185 331.315 222.972 331.183 222.767C331.056 222.557 330.868 222.384 330.619 222.247C330.375 222.11 330.075 222.042 329.718 222.042C329.342 222.042 329.037 222.101 328.803 222.218C328.573 222.33 328.405 222.474 328.297 222.65C328.195 222.826 328.144 223.011 328.144 223.207C328.144 223.353 328.168 223.485 328.217 223.602C328.271 223.714 328.363 223.819 328.495 223.917C328.627 224.01 328.812 224.098 329.052 224.181C329.291 224.264 329.596 224.347 329.967 224.43C330.617 224.576 331.151 224.752 331.571 224.957C331.991 225.162 332.304 225.414 332.509 225.711C332.714 226.009 332.816 226.371 332.816 226.795C332.816 227.142 332.743 227.459 332.597 227.748C332.455 228.036 332.248 228.285 331.974 228.495C331.706 228.7 331.383 228.861 331.007 228.978C330.636 229.09 330.219 229.146 329.755 229.146C329.057 229.146 328.466 229.022 327.982 228.773C327.499 228.524 327.133 228.202 326.884 227.806C326.635 227.411 326.51 226.993 326.51 226.554H327.873C327.892 226.925 328 227.22 328.195 227.44C328.39 227.655 328.629 227.809 328.913 227.901C329.196 227.989 329.477 228.033 329.755 228.033C330.126 228.033 330.436 227.984 330.685 227.887C330.939 227.789 331.132 227.655 331.264 227.484C331.396 227.313 331.461 227.118 331.461 226.898Z" fill="#505050"/>
<rect x="273" y="246" width="20" height="20" rx="4" fill="#0059FF"/>
<path d="M281.238 260.088L277.338 256.166C277.104 255.93 277.104 255.548 277.338 255.313L278.186 254.459C278.421 254.223 278.801 254.223 279.035 254.459L281.662 257.101L286.965 251.912C287.199 251.676 287.579 251.676 287.814 251.912L288.662 252.765C288.896 253.001 288.896 253.383 288.662 253.619L282.086 260.088C281.852 260.324 281.472 260.324 281.238 260.088Z" fill="white"/>
<path d="M306.713 257.887V250.336H308.119V257.887C308.119 258.59 307.975 259.184 307.687 259.667C307.399 260.15 307.001 260.519 306.493 260.773C305.99 261.022 305.412 261.146 304.757 261.146C304.103 261.146 303.522 261.034 303.014 260.81C302.506 260.585 302.108 260.243 301.82 259.784C301.532 259.325 301.388 258.747 301.388 258.048H302.802C302.802 258.498 302.885 258.866 303.051 259.154C303.217 259.442 303.446 259.655 303.739 259.792C304.037 259.928 304.376 259.997 304.757 259.997C305.128 259.997 305.46 259.918 305.753 259.762C306.051 259.601 306.286 259.364 306.457 259.052C306.627 258.734 306.713 258.346 306.713 257.887ZM316.198 258.305C316.198 258.056 316.159 257.836 316.081 257.646C316.007 257.45 315.875 257.274 315.685 257.118C315.5 256.962 315.241 256.813 314.909 256.671C314.582 256.53 314.167 256.386 313.664 256.239C313.136 256.083 312.66 255.91 312.235 255.719C311.811 255.524 311.447 255.302 311.144 255.053C310.841 254.804 310.609 254.518 310.448 254.196C310.287 253.874 310.207 253.505 310.207 253.09C310.207 252.675 310.292 252.292 310.463 251.94C310.634 251.588 310.878 251.283 311.195 251.024C311.518 250.761 311.901 250.556 312.345 250.409C312.79 250.263 313.285 250.189 313.832 250.189C314.633 250.189 315.312 250.343 315.868 250.651C316.43 250.954 316.857 251.352 317.15 251.845C317.443 252.333 317.589 252.855 317.589 253.412H316.183C316.183 253.012 316.098 252.658 315.927 252.35C315.756 252.038 315.497 251.793 315.15 251.618C314.804 251.437 314.364 251.347 313.832 251.347C313.329 251.347 312.914 251.422 312.587 251.574C312.26 251.725 312.016 251.93 311.854 252.189C311.698 252.448 311.62 252.743 311.62 253.075C311.62 253.3 311.667 253.505 311.759 253.69C311.857 253.871 312.006 254.04 312.206 254.196C312.411 254.352 312.67 254.496 312.982 254.628C313.3 254.76 313.678 254.887 314.118 255.009C314.723 255.18 315.246 255.37 315.685 255.58C316.125 255.79 316.486 256.027 316.769 256.291C317.057 256.549 317.27 256.845 317.406 257.177C317.548 257.504 317.619 257.875 317.619 258.29C317.619 258.725 317.531 259.118 317.355 259.469C317.179 259.821 316.928 260.121 316.601 260.37C316.273 260.619 315.88 260.812 315.421 260.949C314.967 261.081 314.459 261.146 313.898 261.146C313.405 261.146 312.919 261.078 312.44 260.941C311.967 260.805 311.535 260.6 311.144 260.326C310.758 260.053 310.448 259.716 310.214 259.315C309.984 258.91 309.87 258.441 309.87 257.909H311.276C311.276 258.275 311.347 258.59 311.488 258.854C311.63 259.113 311.823 259.328 312.067 259.499C312.316 259.669 312.597 259.796 312.909 259.879C313.227 259.958 313.556 259.997 313.898 259.997C314.391 259.997 314.809 259.928 315.15 259.792C315.492 259.655 315.751 259.459 315.927 259.206C316.107 258.952 316.198 258.651 316.198 258.305Z" fill="#505050"/>
</svg>
