<svg width="1216" height="257" viewBox="0 0 1216 257" fill="none" xmlns="http://www.w3.org/2000/svg">
<g clip-path="url(#clip0_3378_49327)">
<rect width="1216" height="257" rx="4" fill="#F8F8F8"/>
<g filter="url(#filter0_ddd_3378_49327)">
<rect x="40" y="40" width="1136" height="177" rx="4" fill="white"/>
<rect x="40.5" y="40.5" width="1135" height="176" rx="3.5" stroke="#E6E6E6"/>
</g>
<mask id="path-4-inside-1_3378_49327" fill="white">
<path d="M41 45C41 42.7909 42.7909 41 45 41H1171C1173.21 41 1175 42.7909 1175 45V121H41V45Z"/>
</mask>
<path d="M41 45C41 42.7909 42.7909 41 45 41H1171C1173.21 41 1175 42.7909 1175 45V121H41V45Z" fill="white"/>
<mask id="path-6-inside-2_3378_49327" fill="white">
<path d="M41 41H228V121H41V41Z"/>
</mask>
<path d="M41 41H228V121H41V41Z" fill="white"/>
<path d="M62.1638 77.3571C61.4377 77.3571 60.849 77.9328 60.849 78.6429C60.849 79.3529 61.4377 79.9286 62.1638 79.9286C62.89 79.9286 63.4786 79.3529 63.4786 78.6429C63.4786 77.9328 62.8897 77.3571 62.1638 77.3571ZM70.2472 75H59.7287C58.785 75 58 75.7674 58 76.7143V85.2857C58 86.2326 58.7848 87 59.7284 87H70.2469C71.2152 87 72 86.2326 72 85.2857V76.7143C72.0002 75.7674 71.2388 75 70.2472 75ZM70.6854 85.1062L66.9382 80.1268C66.8697 80.0036 66.7136 79.9286 66.5465 79.9286C66.3791 79.9286 66.2227 80.0027 66.1299 80.1262L63.2099 83.986L62.1939 82.7512C62.0997 82.6366 61.9492 82.5688 61.7894 82.5688C61.6293 82.5688 61.479 82.6366 61.3845 82.7512L59.3159 85.264C59.3159 85.2632 59.3159 85.2648 59.3159 85.264L59.3148 76.7143C59.3148 76.478 59.5114 76.2857 59.7531 76.2857H70.2715C70.5132 76.2857 70.7098 76.478 70.7098 76.7143V85.1062H70.6854Z" fill="#0059FF"/>
<path d="M80.0469 75.3359V86H78.2085V75.3359H80.0469ZM83.9214 79.6865V86H82.1562V78.0752H83.8188L83.9214 79.6865ZM83.6357 81.7446L83.0352 81.7373C83.0352 81.1904 83.1035 80.6851 83.2402 80.2212C83.377 79.7573 83.5771 79.3545 83.8408 79.0127C84.1045 78.666 84.4316 78.3999 84.8223 78.2144C85.2178 78.0239 85.6743 77.9287 86.1919 77.9287C86.5532 77.9287 86.8828 77.9824 87.1807 78.0898C87.4834 78.1924 87.7446 78.356 87.9644 78.5806C88.189 78.8052 88.3599 79.0933 88.4771 79.4448C88.5991 79.7964 88.6602 80.2212 88.6602 80.7192V86H86.895V80.873C86.895 80.4873 86.8364 80.1846 86.7192 79.9648C86.6069 79.7451 86.4434 79.5889 86.2285 79.4961C86.0186 79.3984 85.7671 79.3496 85.4741 79.3496C85.1421 79.3496 84.8589 79.4131 84.6245 79.54C84.395 79.667 84.207 79.8403 84.0605 80.0601C83.9141 80.2798 83.8066 80.5337 83.7383 80.8218C83.6699 81.1099 83.6357 81.4175 83.6357 81.7446ZM88.5503 81.2759L87.7227 81.459C87.7227 80.9805 87.7886 80.5288 87.9204 80.104C88.0571 79.6743 88.2549 79.2983 88.5137 78.9761C88.7773 78.6489 89.1021 78.3926 89.4878 78.207C89.8735 78.0215 90.3154 77.9287 90.8135 77.9287C91.2188 77.9287 91.5801 77.9849 91.8975 78.0972C92.2197 78.2046 92.4932 78.3755 92.7178 78.6099C92.9424 78.8442 93.1133 79.1494 93.2305 79.5254C93.3477 79.8965 93.4062 80.3457 93.4062 80.873V86H91.6338V80.8657C91.6338 80.4653 91.5752 80.1553 91.458 79.9355C91.3457 79.7158 91.1846 79.5645 90.9746 79.4814C90.7646 79.3936 90.5132 79.3496 90.2202 79.3496C89.9468 79.3496 89.7051 79.4009 89.4951 79.5034C89.29 79.6011 89.1167 79.7402 88.9751 79.9209C88.8335 80.0967 88.7261 80.2993 88.6528 80.5288C88.5845 80.7583 88.5503 81.0073 88.5503 81.2759ZM99.6904 84.4106V80.6313C99.6904 80.3481 99.6392 80.104 99.5366 79.8989C99.4341 79.6938 99.2778 79.5352 99.0679 79.4229C98.8628 79.3105 98.604 79.2544 98.2915 79.2544C98.0034 79.2544 97.7544 79.3032 97.5444 79.4009C97.3345 79.4985 97.1709 79.6304 97.0537 79.7964C96.9365 79.9624 96.8779 80.1504 96.8779 80.3604H95.1201C95.1201 80.0479 95.1958 79.7451 95.3472 79.4521C95.4985 79.1592 95.7183 78.8979 96.0063 78.6685C96.2944 78.439 96.6387 78.2583 97.0391 78.1265C97.4395 77.9946 97.8887 77.9287 98.3867 77.9287C98.9824 77.9287 99.5098 78.0288 99.9688 78.229C100.433 78.4292 100.796 78.7319 101.06 79.1372C101.329 79.5376 101.463 80.0405 101.463 80.646V84.1689C101.463 84.5303 101.487 84.855 101.536 85.1431C101.59 85.4263 101.666 85.6729 101.763 85.8828V86H99.9541C99.8711 85.8096 99.8052 85.5679 99.7563 85.2749C99.7124 84.9771 99.6904 84.689 99.6904 84.4106ZM99.9468 81.1807L99.9614 82.272H98.6943C98.3672 82.272 98.0791 82.3037 97.8301 82.3672C97.5811 82.4258 97.3735 82.5137 97.2075 82.6309C97.0415 82.748 96.917 82.8896 96.834 83.0557C96.751 83.2217 96.7095 83.4097 96.7095 83.6196C96.7095 83.8296 96.7583 84.0225 96.856 84.1982C96.9536 84.3691 97.0952 84.5034 97.2808 84.6011C97.4712 84.6987 97.7007 84.7476 97.9692 84.7476C98.3306 84.7476 98.6455 84.6743 98.9141 84.5278C99.1875 84.3765 99.4023 84.1934 99.5586 83.9785C99.7148 83.7588 99.7979 83.5513 99.8076 83.356L100.379 84.1396C100.32 84.3398 100.22 84.5547 100.079 84.7842C99.937 85.0137 99.7515 85.2334 99.522 85.4434C99.2974 85.6484 99.0264 85.8169 98.709 85.9487C98.3965 86.0806 98.0352 86.1465 97.625 86.1465C97.1074 86.1465 96.646 86.0439 96.2407 85.8389C95.8354 85.6289 95.5181 85.3481 95.2886 84.9966C95.0591 84.6401 94.9443 84.2373 94.9443 83.7881C94.9443 83.3682 95.0225 82.9971 95.1787 82.6748C95.3398 82.3477 95.5742 82.0742 95.8818 81.8545C96.1943 81.6348 96.5752 81.4688 97.0244 81.3564C97.4736 81.2393 97.9863 81.1807 98.5625 81.1807H99.9468ZM108.384 78.0752H109.988V85.7803C109.988 86.4932 109.837 87.0986 109.534 87.5967C109.231 88.0947 108.809 88.4731 108.267 88.7319C107.725 88.9956 107.098 89.1274 106.385 89.1274C106.082 89.1274 105.745 89.0835 105.374 88.9956C105.008 88.9077 104.651 88.7661 104.305 88.5708C103.963 88.3804 103.677 88.1289 103.448 87.8164L104.275 86.7764C104.559 87.1133 104.871 87.3599 105.213 87.5161C105.555 87.6724 105.914 87.7505 106.29 87.7505C106.695 87.7505 107.039 87.6748 107.322 87.5234C107.61 87.377 107.833 87.1597 107.989 86.8716C108.145 86.5835 108.223 86.2319 108.223 85.8169V79.8696L108.384 78.0752ZM103.001 82.1255V81.9717C103.001 81.3711 103.074 80.8242 103.221 80.3311C103.367 79.833 103.577 79.4058 103.851 79.0493C104.124 78.688 104.456 78.4121 104.847 78.2217C105.237 78.0264 105.679 77.9287 106.172 77.9287C106.685 77.9287 107.122 78.0215 107.483 78.207C107.85 78.3926 108.155 78.6587 108.399 79.0054C108.643 79.3472 108.833 79.7573 108.97 80.2358C109.112 80.7095 109.217 81.2368 109.285 81.8179V82.3086C109.222 82.875 109.114 83.3926 108.963 83.8613C108.812 84.3301 108.611 84.7354 108.362 85.0771C108.113 85.4189 107.806 85.6826 107.439 85.8682C107.078 86.0537 106.651 86.1465 106.158 86.1465C105.674 86.1465 105.237 86.0464 104.847 85.8462C104.461 85.646 104.129 85.3652 103.851 85.0039C103.577 84.6426 103.367 84.2178 103.221 83.7295C103.074 83.2363 103.001 82.7017 103.001 82.1255ZM104.766 81.9717V82.1255C104.766 82.4868 104.8 82.8237 104.869 83.1362C104.942 83.4487 105.052 83.7246 105.198 83.9639C105.35 84.1982 105.54 84.3838 105.77 84.5205C106.004 84.6523 106.28 84.7183 106.597 84.7183C107.012 84.7183 107.352 84.6304 107.615 84.4546C107.884 84.2788 108.089 84.042 108.23 83.7441C108.377 83.4414 108.479 83.1045 108.538 82.7334V81.4077C108.509 81.1196 108.448 80.8511 108.355 80.6021C108.267 80.353 108.147 80.1357 107.996 79.9502C107.845 79.7598 107.654 79.6133 107.425 79.5107C107.195 79.4033 106.924 79.3496 106.612 79.3496C106.294 79.3496 106.019 79.418 105.784 79.5547C105.55 79.6914 105.357 79.8794 105.206 80.1187C105.059 80.3579 104.949 80.6362 104.876 80.9536C104.803 81.271 104.766 81.6104 104.766 81.9717ZM115.313 86.1465C114.727 86.1465 114.197 86.0513 113.724 85.8608C113.255 85.6655 112.854 85.3945 112.522 85.0479C112.195 84.7012 111.944 84.2935 111.768 83.8247C111.592 83.356 111.504 82.8506 111.504 82.3086V82.0156C111.504 81.3955 111.595 80.834 111.775 80.3311C111.956 79.8281 112.208 79.3984 112.53 79.042C112.852 78.6807 113.233 78.4048 113.672 78.2144C114.112 78.0239 114.588 77.9287 115.101 77.9287C115.667 77.9287 116.163 78.0239 116.587 78.2144C117.012 78.4048 117.364 78.6733 117.642 79.02C117.925 79.3618 118.135 79.7695 118.272 80.2432C118.414 80.7168 118.484 81.2393 118.484 81.8105V82.5649H112.361V81.2979H116.741V81.1587C116.731 80.8413 116.668 80.5435 116.551 80.2651C116.438 79.9868 116.265 79.7622 116.031 79.5913C115.796 79.4204 115.484 79.335 115.093 79.335C114.8 79.335 114.539 79.3984 114.31 79.5254C114.085 79.6475 113.897 79.8257 113.746 80.0601C113.594 80.2944 113.477 80.5776 113.394 80.9097C113.316 81.2368 113.277 81.6055 113.277 82.0156V82.3086C113.277 82.6553 113.323 82.9775 113.416 83.2754C113.514 83.5684 113.655 83.8247 113.841 84.0444C114.026 84.2642 114.251 84.4375 114.515 84.5645C114.778 84.6865 115.079 84.7476 115.416 84.7476C115.84 84.7476 116.219 84.6621 116.551 84.4912C116.883 84.3203 117.171 84.0786 117.415 83.7661L118.345 84.667C118.174 84.916 117.952 85.1553 117.679 85.3848C117.405 85.6094 117.071 85.7925 116.675 85.9341C116.285 86.0757 115.831 86.1465 115.313 86.1465ZM130.071 82.5283H131.902C131.844 83.2266 131.648 83.8491 131.316 84.396C130.984 84.938 130.518 85.3652 129.917 85.6777C129.317 85.9902 128.587 86.1465 127.728 86.1465C127.068 86.1465 126.475 86.0293 125.948 85.7949C125.42 85.5557 124.969 85.2188 124.593 84.7842C124.217 84.3447 123.929 83.8149 123.729 83.1948C123.533 82.5747 123.436 81.8813 123.436 81.1147V80.2285C123.436 79.4619 123.536 78.7686 123.736 78.1484C123.941 77.5283 124.234 76.9985 124.615 76.5591C124.996 76.1147 125.452 75.7754 125.984 75.541C126.521 75.3066 127.125 75.1895 127.793 75.1895C128.643 75.1895 129.361 75.3457 129.947 75.6582C130.533 75.9707 130.987 76.4028 131.309 76.9546C131.636 77.5063 131.836 78.1387 131.91 78.8516H130.079C130.03 78.3926 129.922 77.9995 129.756 77.6724C129.595 77.3452 129.356 77.0962 129.039 76.9253C128.721 76.7495 128.306 76.6616 127.793 76.6616C127.374 76.6616 127.007 76.7397 126.695 76.896C126.382 77.0522 126.121 77.2817 125.911 77.5845C125.701 77.8872 125.542 78.2607 125.435 78.7051C125.333 79.1445 125.281 79.6475 125.281 80.2139V81.1147C125.281 81.6519 125.328 82.1401 125.42 82.5796C125.518 83.0142 125.665 83.3877 125.86 83.7002C126.06 84.0127 126.314 84.2544 126.622 84.4253C126.929 84.5962 127.298 84.6816 127.728 84.6816C128.25 84.6816 128.672 84.5986 128.995 84.4326C129.322 84.2666 129.568 84.0249 129.734 83.7075C129.905 83.3853 130.018 82.9922 130.071 82.5283ZM133.06 82.1255V81.957C133.06 81.3857 133.143 80.856 133.309 80.3677C133.475 79.8745 133.714 79.4473 134.026 79.0859C134.344 78.7197 134.729 78.4365 135.184 78.2363C135.643 78.0312 136.16 77.9287 136.736 77.9287C137.317 77.9287 137.835 78.0312 138.289 78.2363C138.748 78.4365 139.136 78.7197 139.454 79.0859C139.771 79.4473 140.013 79.8745 140.179 80.3677C140.345 80.856 140.428 81.3857 140.428 81.957V82.1255C140.428 82.6968 140.345 83.2266 140.179 83.7148C140.013 84.2031 139.771 84.6304 139.454 84.9966C139.136 85.3579 138.75 85.6411 138.296 85.8462C137.842 86.0464 137.327 86.1465 136.751 86.1465C136.17 86.1465 135.65 86.0464 135.191 85.8462C134.737 85.6411 134.351 85.3579 134.034 84.9966C133.716 84.6304 133.475 84.2031 133.309 83.7148C133.143 83.2266 133.06 82.6968 133.06 82.1255ZM134.825 81.957V82.1255C134.825 82.4819 134.861 82.8188 134.935 83.1362C135.008 83.4536 135.123 83.7319 135.279 83.9712C135.435 84.2104 135.635 84.3984 135.879 84.5352C136.124 84.6719 136.414 84.7402 136.751 84.7402C137.078 84.7402 137.361 84.6719 137.601 84.5352C137.845 84.3984 138.045 84.2104 138.201 83.9712C138.357 83.7319 138.472 83.4536 138.545 83.1362C138.624 82.8188 138.663 82.4819 138.663 82.1255V81.957C138.663 81.6055 138.624 81.2734 138.545 80.9609C138.472 80.6436 138.355 80.3628 138.194 80.1187C138.038 79.8745 137.837 79.6841 137.593 79.5474C137.354 79.4058 137.068 79.335 136.736 79.335C136.404 79.335 136.116 79.4058 135.872 79.5474C135.633 79.6841 135.435 79.8745 135.279 80.1187C135.123 80.3628 135.008 80.6436 134.935 80.9609C134.861 81.2734 134.825 81.6055 134.825 81.957ZM143.672 79.6865V86H141.907V78.0752H143.57L143.672 79.6865ZM143.387 81.7446L142.786 81.7373C142.786 81.1904 142.854 80.6851 142.991 80.2212C143.128 79.7573 143.328 79.3545 143.592 79.0127C143.855 78.666 144.183 78.3999 144.573 78.2144C144.969 78.0239 145.425 77.9287 145.943 77.9287C146.304 77.9287 146.634 77.9824 146.932 78.0898C147.234 78.1924 147.496 78.356 147.715 78.5806C147.94 78.8052 148.111 79.0933 148.228 79.4448C148.35 79.7964 148.411 80.2212 148.411 80.7192V86H146.646V80.873C146.646 80.4873 146.587 80.1846 146.47 79.9648C146.358 79.7451 146.194 79.5889 145.979 79.4961C145.77 79.3984 145.518 79.3496 145.225 79.3496C144.893 79.3496 144.61 79.4131 144.375 79.54C144.146 79.667 143.958 79.8403 143.812 80.0601C143.665 80.2798 143.558 80.5337 143.489 80.8218C143.421 81.1099 143.387 81.4175 143.387 81.7446ZM148.301 81.2759L147.474 81.459C147.474 80.9805 147.54 80.5288 147.671 80.104C147.808 79.6743 148.006 79.2983 148.265 78.9761C148.528 78.6489 148.853 78.3926 149.239 78.207C149.625 78.0215 150.066 77.9287 150.564 77.9287C150.97 77.9287 151.331 77.9849 151.648 78.0972C151.971 78.2046 152.244 78.3755 152.469 78.6099C152.693 78.8442 152.864 79.1494 152.981 79.5254C153.099 79.8965 153.157 80.3457 153.157 80.873V86H151.385V80.8657C151.385 80.4653 151.326 80.1553 151.209 79.9355C151.097 79.7158 150.936 79.5645 150.726 79.4814C150.516 79.3936 150.264 79.3496 149.971 79.3496C149.698 79.3496 149.456 79.4009 149.246 79.5034C149.041 79.6011 148.868 79.7402 148.726 79.9209C148.584 80.0967 148.477 80.2993 148.404 80.5288C148.335 80.7583 148.301 81.0073 148.301 81.2759ZM156.746 79.5986V89.0469H154.981V78.0752H156.607L156.746 79.5986ZM161.91 81.9644V82.1182C161.91 82.6943 161.841 83.229 161.705 83.7222C161.573 84.2104 161.375 84.6377 161.111 85.0039C160.853 85.3652 160.533 85.646 160.152 85.8462C159.771 86.0464 159.332 86.1465 158.833 86.1465C158.34 86.1465 157.908 86.0562 157.537 85.8755C157.171 85.6899 156.861 85.4287 156.607 85.0918C156.353 84.7549 156.148 84.3594 155.992 83.9053C155.84 83.4463 155.733 82.9434 155.669 82.3965V81.8032C155.733 81.2222 155.84 80.6948 155.992 80.2212C156.148 79.7476 156.353 79.3398 156.607 78.998C156.861 78.6562 157.171 78.3926 157.537 78.207C157.903 78.0215 158.331 77.9287 158.819 77.9287C159.317 77.9287 159.759 78.0264 160.145 78.2217C160.53 78.4121 160.855 78.6855 161.119 79.042C161.382 79.3936 161.58 79.8184 161.712 80.3164C161.844 80.8096 161.91 81.3589 161.91 81.9644ZM160.145 82.1182V81.9644C160.145 81.5981 160.11 81.2588 160.042 80.9463C159.974 80.6289 159.866 80.3506 159.72 80.1113C159.573 79.8721 159.385 79.6865 159.156 79.5547C158.931 79.418 158.66 79.3496 158.343 79.3496C158.03 79.3496 157.762 79.4033 157.537 79.5107C157.312 79.6133 157.125 79.7573 156.973 79.9429C156.822 80.1284 156.705 80.3457 156.622 80.5947C156.539 80.8389 156.48 81.105 156.446 81.3931V82.814C156.504 83.1655 156.604 83.4878 156.746 83.7808C156.888 84.0737 157.088 84.3081 157.347 84.4839C157.61 84.6548 157.947 84.7402 158.357 84.7402C158.675 84.7402 158.946 84.6719 159.17 84.5352C159.395 84.3984 159.578 84.2104 159.72 83.9712C159.866 83.7271 159.974 83.4463 160.042 83.1289C160.11 82.8115 160.145 82.4746 160.145 82.1182ZM165.184 79.584V86H163.418V78.0752H165.103L165.184 79.584ZM167.608 78.0239L167.593 79.6646C167.486 79.645 167.369 79.6304 167.242 79.6206C167.12 79.6108 166.998 79.606 166.875 79.606C166.573 79.606 166.307 79.6499 166.077 79.7378C165.848 79.8208 165.655 79.9429 165.499 80.104C165.347 80.2603 165.23 80.4507 165.147 80.6753C165.064 80.8999 165.015 81.1514 165 81.4297L164.598 81.459C164.598 80.9609 164.646 80.4995 164.744 80.0747C164.842 79.6499 164.988 79.2764 165.184 78.9541C165.384 78.6318 165.633 78.3804 165.931 78.1997C166.233 78.019 166.583 77.9287 166.978 77.9287C167.085 77.9287 167.2 77.9385 167.322 77.958C167.449 77.9775 167.544 77.9995 167.608 78.0239ZM172.061 86.1465C171.475 86.1465 170.945 86.0513 170.472 85.8608C170.003 85.6655 169.603 85.3945 169.271 85.0479C168.943 84.7012 168.692 84.2935 168.516 83.8247C168.34 83.356 168.252 82.8506 168.252 82.3086V82.0156C168.252 81.3955 168.343 80.834 168.523 80.3311C168.704 79.8281 168.956 79.3984 169.278 79.042C169.6 78.6807 169.981 78.4048 170.42 78.2144C170.86 78.0239 171.336 77.9287 171.849 77.9287C172.415 77.9287 172.911 78.0239 173.335 78.2144C173.76 78.4048 174.112 78.6733 174.39 79.02C174.673 79.3618 174.883 79.7695 175.02 80.2432C175.162 80.7168 175.232 81.2393 175.232 81.8105V82.5649H169.109V81.2979H173.489V81.1587C173.479 80.8413 173.416 80.5435 173.299 80.2651C173.187 79.9868 173.013 79.7622 172.779 79.5913C172.544 79.4204 172.232 79.335 171.841 79.335C171.548 79.335 171.287 79.3984 171.058 79.5254C170.833 79.6475 170.645 79.8257 170.494 80.0601C170.342 80.2944 170.225 80.5776 170.142 80.9097C170.064 81.2368 170.025 81.6055 170.025 82.0156V82.3086C170.025 82.6553 170.071 82.9775 170.164 83.2754C170.262 83.5684 170.403 83.8247 170.589 84.0444C170.774 84.2642 170.999 84.4375 171.263 84.5645C171.526 84.6865 171.827 84.7476 172.164 84.7476C172.588 84.7476 172.967 84.6621 173.299 84.4912C173.631 84.3203 173.919 84.0786 174.163 83.7661L175.093 84.667C174.922 84.916 174.7 85.1553 174.427 85.3848C174.153 85.6094 173.819 85.7925 173.423 85.9341C173.033 86.0757 172.579 86.1465 172.061 86.1465ZM181.055 83.854C181.055 83.6782 181.011 83.5195 180.923 83.3779C180.835 83.2314 180.667 83.0996 180.418 82.9824C180.174 82.8652 179.812 82.7578 179.334 82.6602C178.914 82.5674 178.528 82.4575 178.177 82.3306C177.83 82.1987 177.532 82.04 177.283 81.8545C177.034 81.6689 176.841 81.4492 176.705 81.1953C176.568 80.9414 176.5 80.6484 176.5 80.3164C176.5 79.9941 176.57 79.689 176.712 79.4009C176.854 79.1128 177.056 78.8589 177.32 78.6392C177.583 78.4194 177.903 78.2461 178.279 78.1191C178.66 77.9922 179.085 77.9287 179.554 77.9287C180.218 77.9287 180.787 78.041 181.26 78.2656C181.739 78.4854 182.105 78.7856 182.359 79.1665C182.613 79.5425 182.74 79.9673 182.74 80.4409H180.975C180.975 80.231 180.921 80.0356 180.813 79.855C180.711 79.6694 180.555 79.5205 180.345 79.4082C180.135 79.291 179.871 79.2324 179.554 79.2324C179.251 79.2324 179 79.2812 178.799 79.3789C178.604 79.4717 178.458 79.5938 178.36 79.7451C178.267 79.8965 178.221 80.0625 178.221 80.2432C178.221 80.375 178.245 80.4946 178.294 80.6021C178.348 80.7046 178.436 80.7998 178.558 80.8877C178.68 80.9707 178.846 81.0488 179.056 81.1221C179.271 81.1953 179.539 81.2661 179.861 81.3345C180.467 81.4614 180.987 81.625 181.421 81.8252C181.861 82.0205 182.198 82.2744 182.432 82.5869C182.667 82.8945 182.784 83.2852 182.784 83.7588C182.784 84.1104 182.708 84.4326 182.557 84.7256C182.41 85.0137 182.195 85.2651 181.912 85.48C181.629 85.6899 181.29 85.8535 180.894 85.9707C180.503 86.0879 180.064 86.1465 179.576 86.1465C178.858 86.1465 178.25 86.0195 177.752 85.7656C177.254 85.5068 176.875 85.1772 176.617 84.7769C176.363 84.3716 176.236 83.9517 176.236 83.5171H177.942C177.962 83.8442 178.052 84.1055 178.213 84.3008C178.379 84.4912 178.584 84.6304 178.829 84.7183C179.078 84.8013 179.334 84.8428 179.598 84.8428C179.915 84.8428 180.181 84.8013 180.396 84.7183C180.611 84.6304 180.774 84.5132 180.887 84.3667C180.999 84.2153 181.055 84.0444 181.055 83.854ZM188.775 83.854C188.775 83.6782 188.731 83.5195 188.643 83.3779C188.555 83.2314 188.387 83.0996 188.138 82.9824C187.894 82.8652 187.532 82.7578 187.054 82.6602C186.634 82.5674 186.248 82.4575 185.896 82.3306C185.55 82.1987 185.252 82.04 185.003 81.8545C184.754 81.6689 184.561 81.4492 184.424 81.1953C184.288 80.9414 184.219 80.6484 184.219 80.3164C184.219 79.9941 184.29 79.689 184.432 79.4009C184.573 79.1128 184.776 78.8589 185.04 78.6392C185.303 78.4194 185.623 78.2461 185.999 78.1191C186.38 77.9922 186.805 77.9287 187.273 77.9287C187.938 77.9287 188.506 78.041 188.98 78.2656C189.458 78.4854 189.825 78.7856 190.079 79.1665C190.333 79.5425 190.459 79.9673 190.459 80.4409H188.694C188.694 80.231 188.641 80.0356 188.533 79.855C188.431 79.6694 188.274 79.5205 188.064 79.4082C187.854 79.291 187.591 79.2324 187.273 79.2324C186.971 79.2324 186.719 79.2812 186.519 79.3789C186.324 79.4717 186.177 79.5938 186.08 79.7451C185.987 79.8965 185.94 80.0625 185.94 80.2432C185.94 80.375 185.965 80.4946 186.014 80.6021C186.067 80.7046 186.155 80.7998 186.277 80.8877C186.399 80.9707 186.565 81.0488 186.775 81.1221C186.99 81.1953 187.259 81.2661 187.581 81.3345C188.187 81.4614 188.707 81.625 189.141 81.8252C189.581 82.0205 189.917 82.2744 190.152 82.5869C190.386 82.8945 190.503 83.2852 190.503 83.7588C190.503 84.1104 190.428 84.4326 190.276 84.7256C190.13 85.0137 189.915 85.2651 189.632 85.48C189.349 85.6899 189.009 85.8535 188.614 85.9707C188.223 86.0879 187.784 86.1465 187.295 86.1465C186.578 86.1465 185.97 86.0195 185.472 85.7656C184.974 85.5068 184.595 85.1772 184.336 84.7769C184.083 84.3716 183.956 83.9517 183.956 83.5171H185.662C185.682 83.8442 185.772 84.1055 185.933 84.3008C186.099 84.4912 186.304 84.6304 186.548 84.7183C186.797 84.8013 187.054 84.8428 187.317 84.8428C187.635 84.8428 187.901 84.8013 188.116 84.7183C188.331 84.6304 188.494 84.5132 188.606 84.3667C188.719 84.2153 188.775 84.0444 188.775 83.854ZM193.938 78.0752V86H192.166V78.0752H193.938ZM192.049 75.9951C192.049 75.7266 192.137 75.5044 192.312 75.3286C192.493 75.1479 192.742 75.0576 193.06 75.0576C193.372 75.0576 193.619 75.1479 193.799 75.3286C193.98 75.5044 194.07 75.7266 194.07 75.9951C194.07 76.2588 193.98 76.4785 193.799 76.6543C193.619 76.8301 193.372 76.918 193.06 76.918C192.742 76.918 192.493 76.8301 192.312 76.6543C192.137 76.4785 192.049 76.2588 192.049 75.9951ZM195.535 82.1255V81.957C195.535 81.3857 195.618 80.856 195.784 80.3677C195.95 79.8745 196.189 79.4473 196.502 79.0859C196.819 78.7197 197.205 78.4365 197.659 78.2363C198.118 78.0312 198.636 77.9287 199.212 77.9287C199.793 77.9287 200.311 78.0312 200.765 78.2363C201.224 78.4365 201.612 78.7197 201.929 79.0859C202.247 79.4473 202.488 79.8745 202.654 80.3677C202.82 80.856 202.903 81.3857 202.903 81.957V82.1255C202.903 82.6968 202.82 83.2266 202.654 83.7148C202.488 84.2031 202.247 84.6304 201.929 84.9966C201.612 85.3579 201.226 85.6411 200.772 85.8462C200.318 86.0464 199.803 86.1465 199.227 86.1465C198.646 86.1465 198.125 86.0464 197.667 85.8462C197.212 85.6411 196.827 85.3579 196.509 84.9966C196.192 84.6304 195.95 84.2031 195.784 83.7148C195.618 83.2266 195.535 82.6968 195.535 82.1255ZM197.3 81.957V82.1255C197.3 82.4819 197.337 82.8188 197.41 83.1362C197.483 83.4536 197.598 83.7319 197.754 83.9712C197.911 84.2104 198.111 84.3984 198.355 84.5352C198.599 84.6719 198.89 84.7402 199.227 84.7402C199.554 84.7402 199.837 84.6719 200.076 84.5352C200.32 84.3984 200.521 84.2104 200.677 83.9712C200.833 83.7319 200.948 83.4536 201.021 83.1362C201.099 82.8188 201.138 82.4819 201.138 82.1255V81.957C201.138 81.6055 201.099 81.2734 201.021 80.9609C200.948 80.6436 200.831 80.3628 200.669 80.1187C200.513 79.8745 200.313 79.6841 200.069 79.5474C199.83 79.4058 199.544 79.335 199.212 79.335C198.88 79.335 198.592 79.4058 198.348 79.5474C198.108 79.6841 197.911 79.8745 197.754 80.1187C197.598 80.3628 197.483 80.6436 197.41 80.9609C197.337 81.2734 197.3 81.6055 197.3 81.957ZM206.133 79.7671V86H204.368V78.0752H206.031L206.133 79.7671ZM205.818 81.7446L205.247 81.7373C205.252 81.1758 205.33 80.6606 205.481 80.1919C205.638 79.7231 205.853 79.3203 206.126 78.9834C206.404 78.6465 206.736 78.3877 207.122 78.207C207.508 78.0215 207.938 77.9287 208.411 77.9287C208.792 77.9287 209.136 77.9824 209.444 78.0898C209.756 78.1924 210.022 78.3608 210.242 78.5952C210.467 78.8296 210.638 79.1348 210.755 79.5107C210.872 79.8818 210.931 80.3384 210.931 80.8804V86H209.158V80.873C209.158 80.4922 209.102 80.1919 208.99 79.9722C208.882 79.7476 208.724 79.5889 208.514 79.4961C208.309 79.3984 208.052 79.3496 207.745 79.3496C207.442 79.3496 207.171 79.4131 206.932 79.54C206.692 79.667 206.49 79.8403 206.324 80.0601C206.163 80.2798 206.038 80.5337 205.95 80.8218C205.862 81.1099 205.818 81.4175 205.818 81.7446Z" fill="#286EF1"/>
<path d="M228 117H41V125H228V117Z" fill="#286EF1" mask="url(#path-6-inside-2_3378_49327)"/>
<rect width="162" height="80" transform="translate(228 41)" fill="white" fill-opacity="0.01"/>
<path d="M249.276 81C249.276 79.5262 250.471 78.375 252 78.375C253.504 78.375 254.724 79.5262 254.724 81C254.724 82.4492 253.504 83.625 252 83.625C250.471 83.625 249.276 82.4492 249.276 81ZM252 79.6875C251.248 79.6875 250.638 80.2754 250.638 81C250.638 81.7246 251.248 82.3125 252 82.3125C252.752 82.3125 253.362 81.7246 253.362 81C253.362 80.2754 252.752 79.6875 252 79.6875ZM253.053 74C253.683 74 254.231 74.4154 254.378 75.0046L254.6 75.8925C254.841 76.0059 255.071 76.1347 255.289 76.2772L256.2 76.0188C256.804 75.8473 257.451 76.0964 257.766 76.6214L258.819 78.3777C259.131 78.9027 259.032 79.5672 258.578 79.9855L257.888 80.5926C257.897 80.743 257.903 80.8715 257.903 81C257.903 81.1285 257.897 81.257 257.888 81.3828L258.578 82.0145C259.032 82.4328 259.131 83.0973 258.819 83.6223L257.766 85.3777C257.451 85.9027 256.804 86.1516 256.2 85.982L255.289 85.7223C255.071 85.8645 254.841 85.993 254.6 86.1078L254.378 86.9965C254.231 87.5844 253.683 88 253.053 88H250.947C250.317 88 249.77 87.5844 249.622 86.9965L249.401 86.1078C249.16 85.993 248.93 85.8645 248.711 85.7223L247.775 85.982C247.197 86.1516 246.55 85.9027 246.235 85.3777L245.183 83.6223C244.868 83.0973 244.967 82.4328 245.423 82.0145L246.111 81.3828C246.102 81.257 246.098 81.1285 246.098 80.9754C246.098 80.8715 246.102 80.743 246.111 80.5926L245.423 79.9855C244.967 79.5672 244.868 78.9027 245.183 78.3777L246.235 76.6214C246.55 76.0964 247.197 75.8473 247.775 76.0188L248.711 76.2772C248.93 76.1347 249.16 76.0059 249.401 75.8925L249.622 75.0046C249.77 74.4151 250.317 74 250.947 74L253.053 74ZM250.567 76.8328L250.249 76.9613C249.889 77.1063 249.554 77.2949 249.25 77.5191L248.975 77.7215L247.415 77.2785L246.362 79.034L247.54 80.1141L247.496 80.4422C247.472 80.6254 247.46 80.8113 247.46 81C247.46 81.1887 247.472 81.3746 247.496 81.5578L247.54 81.8859L246.362 82.966L247.415 84.7215L248.975 84.2785L249.25 84.4809C249.554 84.7051 249.889 84.8938 250.249 85.0387L250.567 85.1672L250.947 86.6875H253.053L253.433 85.1672L253.751 85.0387C254.111 84.8938 254.446 84.7051 254.75 84.4809L255.025 84.2785L256.586 84.7215L257.639 82.966L256.461 81.8859L256.504 81.5578C256.529 81.3746 256.541 81.1887 256.541 81C256.541 80.8113 256.529 80.6254 256.504 80.4422L256.461 80.1141L257.639 79.034L256.586 77.2785L255.025 77.7215L254.75 77.5191C254.446 77.2949 254.111 77.1063 253.751 76.9613L253.433 76.8328L253.053 75.3125H250.947L250.567 76.8328Z" fill="#505050"/>
<path d="M269.471 75.3359V86H267.647V75.3359H269.471ZM272.818 75.3359V76.8008H264.33V75.3359H272.818ZM272.687 82.1255V81.957C272.687 81.3857 272.77 80.856 272.936 80.3677C273.102 79.8745 273.341 79.4473 273.653 79.0859C273.971 78.7197 274.356 78.4365 274.811 78.2363C275.27 78.0312 275.787 77.9287 276.363 77.9287C276.944 77.9287 277.462 78.0312 277.916 78.2363C278.375 78.4365 278.763 78.7197 279.081 79.0859C279.398 79.4473 279.64 79.8745 279.806 80.3677C279.972 80.856 280.055 81.3857 280.055 81.957V82.1255C280.055 82.6968 279.972 83.2266 279.806 83.7148C279.64 84.2031 279.398 84.6304 279.081 84.9966C278.763 85.3579 278.377 85.6411 277.923 85.8462C277.469 86.0464 276.954 86.1465 276.378 86.1465C275.797 86.1465 275.277 86.0464 274.818 85.8462C274.364 85.6411 273.978 85.3579 273.661 84.9966C273.343 84.6304 273.102 84.2031 272.936 83.7148C272.77 83.2266 272.687 82.6968 272.687 82.1255ZM274.452 81.957V82.1255C274.452 82.4819 274.488 82.8188 274.562 83.1362C274.635 83.4536 274.75 83.7319 274.906 83.9712C275.062 84.2104 275.262 84.3984 275.506 84.5352C275.75 84.6719 276.041 84.7402 276.378 84.7402C276.705 84.7402 276.988 84.6719 277.228 84.5352C277.472 84.3984 277.672 84.2104 277.828 83.9712C277.984 83.7319 278.099 83.4536 278.172 83.1362C278.25 82.8188 278.29 82.4819 278.29 82.1255V81.957C278.29 81.6055 278.25 81.2734 278.172 80.9609C278.099 80.6436 277.982 80.3628 277.821 80.1187C277.665 79.8745 277.464 79.6841 277.22 79.5474C276.981 79.4058 276.695 79.335 276.363 79.335C276.031 79.335 275.743 79.4058 275.499 79.5474C275.26 79.6841 275.062 79.8745 274.906 80.1187C274.75 80.3628 274.635 80.6436 274.562 80.9609C274.488 81.2734 274.452 81.6055 274.452 81.957ZM281.197 82.1255V81.957C281.197 81.3857 281.28 80.856 281.446 80.3677C281.612 79.8745 281.852 79.4473 282.164 79.0859C282.481 78.7197 282.867 78.4365 283.321 78.2363C283.78 78.0312 284.298 77.9287 284.874 77.9287C285.455 77.9287 285.973 78.0312 286.427 78.2363C286.886 78.4365 287.274 78.7197 287.591 79.0859C287.909 79.4473 288.15 79.8745 288.316 80.3677C288.482 80.856 288.565 81.3857 288.565 81.957V82.1255C288.565 82.6968 288.482 83.2266 288.316 83.7148C288.15 84.2031 287.909 84.6304 287.591 84.9966C287.274 85.3579 286.888 85.6411 286.434 85.8462C285.98 86.0464 285.465 86.1465 284.889 86.1465C284.308 86.1465 283.788 86.0464 283.329 85.8462C282.875 85.6411 282.489 85.3579 282.171 84.9966C281.854 84.6304 281.612 84.2031 281.446 83.7148C281.28 83.2266 281.197 82.6968 281.197 82.1255ZM282.962 81.957V82.1255C282.962 82.4819 282.999 82.8188 283.072 83.1362C283.146 83.4536 283.26 83.7319 283.417 83.9712C283.573 84.2104 283.773 84.3984 284.017 84.5352C284.261 84.6719 284.552 84.7402 284.889 84.7402C285.216 84.7402 285.499 84.6719 285.738 84.5352C285.982 84.3984 286.183 84.2104 286.339 83.9712C286.495 83.7319 286.61 83.4536 286.683 83.1362C286.761 82.8188 286.8 82.4819 286.8 82.1255V81.957C286.8 81.6055 286.761 81.2734 286.683 80.9609C286.61 80.6436 286.493 80.3628 286.332 80.1187C286.175 79.8745 285.975 79.6841 285.731 79.5474C285.492 79.4058 285.206 79.335 284.874 79.335C284.542 79.335 284.254 79.4058 284.01 79.5474C283.771 79.6841 283.573 79.8745 283.417 80.1187C283.26 80.3628 283.146 80.6436 283.072 80.9609C282.999 81.2734 282.962 81.6055 282.962 81.957ZM291.935 74.75V86H290.162V74.75H291.935ZM298.314 83.854C298.314 83.6782 298.27 83.5195 298.182 83.3779C298.094 83.2314 297.926 83.0996 297.677 82.9824C297.433 82.8652 297.071 82.7578 296.593 82.6602C296.173 82.5674 295.787 82.4575 295.436 82.3306C295.089 82.1987 294.791 82.04 294.542 81.8545C294.293 81.6689 294.1 81.4492 293.963 81.1953C293.827 80.9414 293.758 80.6484 293.758 80.3164C293.758 79.9941 293.829 79.689 293.971 79.4009C294.112 79.1128 294.315 78.8589 294.579 78.6392C294.842 78.4194 295.162 78.2461 295.538 78.1191C295.919 77.9922 296.344 77.9287 296.812 77.9287C297.477 77.9287 298.045 78.041 298.519 78.2656C298.998 78.4854 299.364 78.7856 299.618 79.1665C299.872 79.5425 299.999 79.9673 299.999 80.4409H298.233C298.233 80.231 298.18 80.0356 298.072 79.855C297.97 79.6694 297.813 79.5205 297.604 79.4082C297.394 79.291 297.13 79.2324 296.812 79.2324C296.51 79.2324 296.258 79.2812 296.058 79.3789C295.863 79.4717 295.716 79.5938 295.619 79.7451C295.526 79.8965 295.479 80.0625 295.479 80.2432C295.479 80.375 295.504 80.4946 295.553 80.6021C295.606 80.7046 295.694 80.7998 295.816 80.8877C295.938 80.9707 296.104 81.0488 296.314 81.1221C296.529 81.1953 296.798 81.2661 297.12 81.3345C297.726 81.4614 298.246 81.625 298.68 81.8252C299.12 82.0205 299.457 82.2744 299.691 82.5869C299.925 82.8945 300.042 83.2852 300.042 83.7588C300.042 84.1104 299.967 84.4326 299.815 84.7256C299.669 85.0137 299.454 85.2651 299.171 85.48C298.888 85.6899 298.548 85.8535 298.153 85.9707C297.762 86.0879 297.323 86.1465 296.834 86.1465C296.117 86.1465 295.509 86.0195 295.011 85.7656C294.513 85.5068 294.134 85.1772 293.875 84.7769C293.622 84.3716 293.495 83.9517 293.495 83.5171H295.201C295.221 83.8442 295.311 84.1055 295.472 84.3008C295.638 84.4912 295.843 84.6304 296.087 84.7183C296.336 84.8013 296.593 84.8428 296.856 84.8428C297.174 84.8428 297.44 84.8013 297.655 84.7183C297.87 84.6304 298.033 84.5132 298.146 84.3667C298.258 84.2153 298.314 84.0444 298.314 83.854ZM307.147 80.1992L308.985 78.9614C309.293 78.7563 309.513 78.5562 309.645 78.3608C309.776 78.1606 309.842 77.9116 309.842 77.6138C309.842 77.3599 309.745 77.1255 309.549 76.9106C309.354 76.6958 309.078 76.5884 308.722 76.5884C308.473 76.5884 308.263 76.647 308.092 76.7642C307.921 76.8765 307.792 77.0278 307.704 77.2183C307.621 77.4038 307.579 77.6113 307.579 77.8408C307.579 78.0605 307.635 78.2876 307.748 78.522C307.86 78.7515 308.014 78.9932 308.209 79.2471C308.404 79.4961 308.624 79.7646 308.868 80.0527L313.907 86H311.864L307.748 81.1587C307.391 80.729 307.076 80.3359 306.803 79.9795C306.529 79.6182 306.317 79.269 306.166 78.9321C306.014 78.5903 305.938 78.2388 305.938 77.8774C305.938 77.3208 306.053 76.8423 306.283 76.4419C306.512 76.0415 306.837 75.7339 307.257 75.519C307.677 75.2993 308.167 75.1895 308.729 75.1895C309.271 75.1895 309.737 75.2993 310.128 75.519C310.523 75.7339 310.826 76.0195 311.036 76.376C311.251 76.7324 311.358 77.123 311.358 77.5479C311.358 77.8848 311.297 78.1924 311.175 78.4707C311.053 78.749 310.885 79.0029 310.67 79.2324C310.455 79.4619 310.206 79.6792 309.923 79.8843L307.689 81.5103C307.43 81.7202 307.237 81.9229 307.11 82.1182C306.988 82.3086 306.908 82.4844 306.869 82.6455C306.83 82.8066 306.81 82.9482 306.81 83.0703C306.81 83.3828 306.876 83.666 307.008 83.9199C307.145 84.1738 307.342 84.3765 307.601 84.5278C307.865 84.6743 308.185 84.7476 308.561 84.7476C308.966 84.7476 309.359 84.6572 309.74 84.4766C310.121 84.291 310.462 84.0298 310.765 83.6929C311.068 83.356 311.307 82.9531 311.483 82.4844C311.664 82.0156 311.754 81.4956 311.754 80.9243H313.277C313.277 81.4419 313.226 81.9326 313.124 82.3965C313.026 82.8604 312.867 83.29 312.647 83.6855C312.433 84.0811 312.149 84.4351 311.798 84.7476C311.764 84.7817 311.725 84.8257 311.681 84.8794C311.642 84.9282 311.603 84.9697 311.563 85.0039C311.144 85.3896 310.672 85.6777 310.15 85.8682C309.632 86.0537 309.081 86.1465 308.495 86.1465C307.787 86.1465 307.174 86.0171 306.656 85.7583C306.139 85.4995 305.738 85.1431 305.455 84.689C305.177 84.2349 305.038 83.7148 305.038 83.1289C305.038 82.6943 305.128 82.3135 305.309 81.9863C305.489 81.6543 305.736 81.3467 306.048 81.0635C306.366 80.7754 306.732 80.4873 307.147 80.1992ZM324.469 83.2534C324.469 83.0337 324.435 82.8384 324.366 82.6675C324.303 82.4966 324.188 82.3403 324.022 82.1987C323.856 82.0571 323.622 81.9204 323.319 81.7886C323.021 81.6519 322.64 81.5127 322.176 81.3711C321.668 81.2148 321.2 81.0415 320.77 80.8511C320.345 80.6558 319.974 80.4312 319.657 80.1772C319.339 79.9185 319.093 79.623 318.917 79.291C318.741 78.9541 318.653 78.5659 318.653 78.1265C318.653 77.6919 318.744 77.2964 318.924 76.9399C319.11 76.5835 319.371 76.2759 319.708 76.0171C320.05 75.7534 320.453 75.5508 320.917 75.4092C321.38 75.2627 321.893 75.1895 322.455 75.1895C323.246 75.1895 323.927 75.3359 324.498 75.6289C325.074 75.9219 325.516 76.3149 325.824 76.8081C326.136 77.3013 326.292 77.8457 326.292 78.4414H324.469C324.469 78.0898 324.393 77.7798 324.242 77.5112C324.095 77.2378 323.871 77.0229 323.568 76.8667C323.27 76.7104 322.892 76.6323 322.433 76.6323C321.998 76.6323 321.637 76.6982 321.349 76.8301C321.061 76.9619 320.846 77.1401 320.704 77.3647C320.562 77.5894 320.492 77.8433 320.492 78.1265C320.492 78.3267 320.538 78.5098 320.631 78.6758C320.724 78.8369 320.865 78.9883 321.056 79.1299C321.246 79.2666 321.485 79.396 321.773 79.5181C322.062 79.6401 322.401 79.7573 322.792 79.8696C323.382 80.0454 323.897 80.2407 324.337 80.4556C324.776 80.6655 325.143 80.9048 325.436 81.1733C325.729 81.4419 325.948 81.7471 326.095 82.0889C326.241 82.4258 326.314 82.8091 326.314 83.2388C326.314 83.688 326.224 84.0933 326.043 84.4546C325.863 84.811 325.604 85.1162 325.267 85.3701C324.935 85.6191 324.535 85.812 324.066 85.9487C323.602 86.0806 323.084 86.1465 322.513 86.1465C322 86.1465 321.495 86.0781 320.997 85.9414C320.504 85.8047 320.055 85.5972 319.649 85.3188C319.244 85.0356 318.922 84.6841 318.683 84.2642C318.443 83.8394 318.324 83.3438 318.324 82.7773H320.162C320.162 83.124 320.221 83.4194 320.338 83.6636C320.46 83.9077 320.628 84.1079 320.843 84.2642C321.058 84.4155 321.307 84.5278 321.59 84.6011C321.878 84.6743 322.186 84.7109 322.513 84.7109C322.943 84.7109 323.302 84.6499 323.59 84.5278C323.883 84.4058 324.103 84.2349 324.249 84.0151C324.396 83.7954 324.469 83.5415 324.469 83.2534ZM331.258 86.1465C330.672 86.1465 330.143 86.0513 329.669 85.8608C329.2 85.6655 328.8 85.3945 328.468 85.0479C328.141 84.7012 327.889 84.2935 327.713 83.8247C327.538 83.356 327.45 82.8506 327.45 82.3086V82.0156C327.45 81.3955 327.54 80.834 327.721 80.3311C327.901 79.8281 328.153 79.3984 328.475 79.042C328.797 78.6807 329.178 78.4048 329.618 78.2144C330.057 78.0239 330.533 77.9287 331.046 77.9287C331.612 77.9287 332.108 78.0239 332.533 78.2144C332.958 78.4048 333.309 78.6733 333.587 79.02C333.871 79.3618 334.081 79.7695 334.217 80.2432C334.359 80.7168 334.43 81.2393 334.43 81.8105V82.5649H328.307V81.2979H332.687V81.1587C332.677 80.8413 332.613 80.5435 332.496 80.2651C332.384 79.9868 332.21 79.7622 331.976 79.5913C331.742 79.4204 331.429 79.335 331.039 79.335C330.746 79.335 330.484 79.3984 330.255 79.5254C330.03 79.6475 329.842 79.8257 329.691 80.0601C329.54 80.2944 329.422 80.5776 329.339 80.9097C329.261 81.2368 329.222 81.6055 329.222 82.0156V82.3086C329.222 82.6553 329.269 82.9775 329.361 83.2754C329.459 83.5684 329.601 83.8247 329.786 84.0444C329.972 84.2642 330.196 84.4375 330.46 84.5645C330.724 84.6865 331.024 84.7476 331.361 84.7476C331.786 84.7476 332.164 84.6621 332.496 84.4912C332.828 84.3203 333.116 84.0786 333.36 83.7661L334.291 84.667C334.12 84.916 333.897 85.1553 333.624 85.3848C333.351 85.6094 333.016 85.7925 332.621 85.9341C332.23 86.0757 331.776 86.1465 331.258 86.1465ZM339.439 78.0752V79.3643H334.972V78.0752H339.439ZM336.261 76.1343H338.026V83.8101C338.026 84.0542 338.06 84.2422 338.128 84.374C338.202 84.501 338.302 84.5864 338.429 84.6304C338.556 84.6743 338.705 84.6963 338.875 84.6963C338.998 84.6963 339.115 84.689 339.227 84.6743C339.339 84.6597 339.43 84.645 339.498 84.6304L339.505 85.978C339.359 86.022 339.188 86.061 338.993 86.0952C338.802 86.1294 338.583 86.1465 338.333 86.1465C337.928 86.1465 337.569 86.0757 337.257 85.9341C336.944 85.7876 336.7 85.5508 336.524 85.2236C336.349 84.8965 336.261 84.4619 336.261 83.9199V76.1343ZM344.435 78.0752V79.3643H339.967V78.0752H344.435ZM341.256 76.1343H343.021V83.8101C343.021 84.0542 343.055 84.2422 343.124 84.374C343.197 84.501 343.297 84.5864 343.424 84.6304C343.551 84.6743 343.7 84.6963 343.871 84.6963C343.993 84.6963 344.11 84.689 344.222 84.6743C344.334 84.6597 344.425 84.645 344.493 84.6304L344.5 85.978C344.354 86.022 344.183 86.061 343.988 86.0952C343.797 86.1294 343.578 86.1465 343.329 86.1465C342.923 86.1465 342.564 86.0757 342.252 85.9341C341.939 85.7876 341.695 85.5508 341.52 85.2236C341.344 84.8965 341.256 84.4619 341.256 83.9199V76.1343ZM347.687 78.0752V86H345.914V78.0752H347.687ZM345.797 75.9951C345.797 75.7266 345.885 75.5044 346.061 75.3286C346.241 75.1479 346.49 75.0576 346.808 75.0576C347.12 75.0576 347.367 75.1479 347.547 75.3286C347.728 75.5044 347.818 75.7266 347.818 75.9951C347.818 76.2588 347.728 76.4785 347.547 76.6543C347.367 76.8301 347.12 76.918 346.808 76.918C346.49 76.918 346.241 76.8301 346.061 76.6543C345.885 76.4785 345.797 76.2588 345.797 75.9951ZM351.371 79.7671V86H349.605V78.0752H351.268L351.371 79.7671ZM351.056 81.7446L350.484 81.7373C350.489 81.1758 350.567 80.6606 350.719 80.1919C350.875 79.7231 351.09 79.3203 351.363 78.9834C351.642 78.6465 351.974 78.3877 352.359 78.207C352.745 78.0215 353.175 77.9287 353.648 77.9287C354.029 77.9287 354.374 77.9824 354.681 78.0898C354.994 78.1924 355.26 78.3608 355.479 78.5952C355.704 78.8296 355.875 79.1348 355.992 79.5107C356.109 79.8818 356.168 80.3384 356.168 80.8804V86H354.396V80.873C354.396 80.4922 354.339 80.1919 354.227 79.9722C354.12 79.7476 353.961 79.5889 353.751 79.4961C353.546 79.3984 353.29 79.3496 352.982 79.3496C352.679 79.3496 352.408 79.4131 352.169 79.54C351.93 79.667 351.727 79.8403 351.561 80.0601C351.4 80.2798 351.275 80.5337 351.188 80.8218C351.1 81.1099 351.056 81.4175 351.056 81.7446ZM363.045 78.0752H364.649V85.7803C364.649 86.4932 364.498 87.0986 364.195 87.5967C363.893 88.0947 363.47 88.4731 362.928 88.7319C362.386 88.9956 361.759 89.1274 361.046 89.1274C360.743 89.1274 360.406 89.0835 360.035 88.9956C359.669 88.9077 359.312 88.7661 358.966 88.5708C358.624 88.3804 358.338 88.1289 358.109 87.8164L358.937 86.7764C359.22 87.1133 359.532 87.3599 359.874 87.5161C360.216 87.6724 360.575 87.7505 360.951 87.7505C361.356 87.7505 361.7 87.6748 361.983 87.5234C362.271 87.377 362.494 87.1597 362.65 86.8716C362.806 86.5835 362.884 86.2319 362.884 85.8169V79.8696L363.045 78.0752ZM357.662 82.1255V81.9717C357.662 81.3711 357.735 80.8242 357.882 80.3311C358.028 79.833 358.238 79.4058 358.512 79.0493C358.785 78.688 359.117 78.4121 359.508 78.2217C359.898 78.0264 360.34 77.9287 360.833 77.9287C361.346 77.9287 361.783 78.0215 362.145 78.207C362.511 78.3926 362.816 78.6587 363.06 79.0054C363.304 79.3472 363.495 79.7573 363.631 80.2358C363.773 80.7095 363.878 81.2368 363.946 81.8179V82.3086C363.883 82.875 363.775 83.3926 363.624 83.8613C363.473 84.3301 363.272 84.7354 363.023 85.0771C362.774 85.4189 362.467 85.6826 362.101 85.8682C361.739 86.0537 361.312 86.1465 360.819 86.1465C360.335 86.1465 359.898 86.0464 359.508 85.8462C359.122 85.646 358.79 85.3652 358.512 85.0039C358.238 84.6426 358.028 84.2178 357.882 83.7295C357.735 83.2363 357.662 82.7017 357.662 82.1255ZM359.427 81.9717V82.1255C359.427 82.4868 359.461 82.8237 359.53 83.1362C359.603 83.4487 359.713 83.7246 359.859 83.9639C360.011 84.1982 360.201 84.3838 360.431 84.5205C360.665 84.6523 360.941 84.7183 361.258 84.7183C361.673 84.7183 362.013 84.6304 362.276 84.4546C362.545 84.2788 362.75 84.042 362.892 83.7441C363.038 83.4414 363.141 83.1045 363.199 82.7334V81.4077C363.17 81.1196 363.109 80.8511 363.016 80.6021C362.928 80.353 362.809 80.1357 362.657 79.9502C362.506 79.7598 362.315 79.6133 362.086 79.5107C361.856 79.4033 361.585 79.3496 361.273 79.3496C360.956 79.3496 360.68 79.418 360.445 79.5547C360.211 79.6914 360.018 79.8794 359.867 80.1187C359.72 80.3579 359.61 80.6362 359.537 80.9536C359.464 81.271 359.427 81.6104 359.427 81.9717ZM370.926 83.854C370.926 83.6782 370.882 83.5195 370.794 83.3779C370.707 83.2314 370.538 83.0996 370.289 82.9824C370.045 82.8652 369.684 82.7578 369.205 82.6602C368.785 82.5674 368.399 82.4575 368.048 82.3306C367.701 82.1987 367.403 82.04 367.154 81.8545C366.905 81.6689 366.712 81.4492 366.576 81.1953C366.439 80.9414 366.371 80.6484 366.371 80.3164C366.371 79.9941 366.441 79.689 366.583 79.4009C366.725 79.1128 366.927 78.8589 367.191 78.6392C367.455 78.4194 367.774 78.2461 368.15 78.1191C368.531 77.9922 368.956 77.9287 369.425 77.9287C370.089 77.9287 370.658 78.041 371.131 78.2656C371.61 78.4854 371.976 78.7856 372.23 79.1665C372.484 79.5425 372.611 79.9673 372.611 80.4409H370.846C370.846 80.231 370.792 80.0356 370.685 79.855C370.582 79.6694 370.426 79.5205 370.216 79.4082C370.006 79.291 369.742 79.2324 369.425 79.2324C369.122 79.2324 368.871 79.2812 368.67 79.3789C368.475 79.4717 368.329 79.5938 368.231 79.7451C368.138 79.8965 368.092 80.0625 368.092 80.2432C368.092 80.375 368.116 80.4946 368.165 80.6021C368.219 80.7046 368.307 80.7998 368.429 80.8877C368.551 80.9707 368.717 81.0488 368.927 81.1221C369.142 81.1953 369.41 81.2661 369.732 81.3345C370.338 81.4614 370.858 81.625 371.292 81.8252C371.732 82.0205 372.069 82.2744 372.303 82.5869C372.538 82.8945 372.655 83.2852 372.655 83.7588C372.655 84.1104 372.579 84.4326 372.428 84.7256C372.281 85.0137 372.066 85.2651 371.783 85.48C371.5 85.6899 371.161 85.8535 370.765 85.9707C370.375 86.0879 369.935 86.1465 369.447 86.1465C368.729 86.1465 368.121 86.0195 367.623 85.7656C367.125 85.5068 366.747 85.1772 366.488 84.7769C366.234 84.3716 366.107 83.9517 366.107 83.5171H367.813C367.833 83.8442 367.923 84.1055 368.084 84.3008C368.25 84.4912 368.456 84.6304 368.7 84.7183C368.949 84.8013 369.205 84.8428 369.469 84.8428C369.786 84.8428 370.052 84.8013 370.267 84.7183C370.482 84.6304 370.646 84.5132 370.758 84.3667C370.87 84.2153 370.926 84.0444 370.926 83.854Z" fill="#505050"/>
<rect width="146" height="80" transform="translate(390 41)" fill="white" fill-opacity="0.01"/>
<path d="M414 74C410.15 74 407 77.15 407 81C407 84.85 410.15 88 414 88C417.85 88 421 84.85 421 81C421 77.15 417.85 74 414 74ZM414 86.6C412.88 86.6 411.9 85.62 411.9 84.5C411.9 83.38 412.88 82.4 414 82.4C415.12 82.4 416.1 83.38 416.1 84.5C416.1 85.62 415.12 86.6 414 86.6ZM417.78 83.52C417.71 83.8 417.64 84.08 417.5 84.36C417.43 83.45 417.08 82.68 416.45 82.05C415.82 81.35 414.91 81 414 81C413.3 81 412.6 81.21 412.04 81.56C411.48 81.91 410.99 82.47 410.78 83.1C410.64 83.52 410.5 83.94 410.5 84.36C410.29 83.87 410.15 83.31 410.15 82.75C410.15 81.7 410.57 80.72 411.27 80.02C411.97 79.32 412.95 78.9 414 78.9C414.77 78.9 415.54 79.11 416.17 79.53C416.8 79.95 417.29 80.58 417.57 81.28C417.85 81.98 417.92 82.75 417.78 83.52ZM419.18 82.96C419.18 82.89 419.18 82.82 419.18 82.75C419.18 81.35 418.62 80.02 417.64 79.04C416.66 78.06 415.4 77.5 414 77.5C412.95 77.5 411.97 77.78 411.06 78.41C410.22 78.97 409.52 79.81 409.1 80.79C408.82 81.49 408.68 82.26 408.68 83.03C408.54 82.33 408.4 81.7 408.4 81C408.4 79.53 408.96 78.06 410.01 77.01C411.06 75.96 412.53 75.4 414 75.4C415.12 75.4 416.17 75.75 417.08 76.31C417.99 76.94 418.69 77.78 419.11 78.83C419.6 79.88 419.74 81 419.46 82.12C419.39 82.4 419.32 82.68 419.18 82.96Z" fill="#505050"/>
<path d="M432.694 83.2534C432.694 83.0337 432.66 82.8384 432.592 82.6675C432.528 82.4966 432.414 82.3403 432.248 82.1987C432.082 82.0571 431.847 81.9204 431.544 81.7886C431.247 81.6519 430.866 81.5127 430.402 81.3711C429.894 81.2148 429.425 81.0415 428.996 80.8511C428.571 80.6558 428.2 80.4312 427.882 80.1772C427.565 79.9185 427.318 79.623 427.143 79.291C426.967 78.9541 426.879 78.5659 426.879 78.1265C426.879 77.6919 426.969 77.2964 427.15 76.9399C427.335 76.5835 427.597 76.2759 427.934 76.0171C428.275 75.7534 428.678 75.5508 429.142 75.4092C429.606 75.2627 430.119 75.1895 430.68 75.1895C431.471 75.1895 432.152 75.3359 432.724 75.6289C433.3 75.9219 433.742 76.3149 434.049 76.8081C434.362 77.3013 434.518 77.8457 434.518 78.4414H432.694C432.694 78.0898 432.619 77.7798 432.467 77.5112C432.321 77.2378 432.096 77.0229 431.793 76.8667C431.496 76.7104 431.117 76.6323 430.658 76.6323C430.224 76.6323 429.862 76.6982 429.574 76.8301C429.286 76.9619 429.071 77.1401 428.93 77.3647C428.788 77.5894 428.717 77.8433 428.717 78.1265C428.717 78.3267 428.764 78.5098 428.856 78.6758C428.949 78.8369 429.091 78.9883 429.281 79.1299C429.472 79.2666 429.711 79.396 429.999 79.5181C430.287 79.6401 430.626 79.7573 431.017 79.8696C431.608 80.0454 432.123 80.2407 432.562 80.4556C433.002 80.6655 433.368 80.9048 433.661 81.1733C433.954 81.4419 434.174 81.7471 434.32 82.0889C434.467 82.4258 434.54 82.8091 434.54 83.2388C434.54 83.688 434.45 84.0933 434.269 84.4546C434.088 84.811 433.83 85.1162 433.493 85.3701C433.161 85.6191 432.76 85.812 432.292 85.9487C431.828 86.0806 431.31 86.1465 430.739 86.1465C430.226 86.1465 429.721 86.0781 429.223 85.9414C428.729 85.8047 428.28 85.5972 427.875 85.3188C427.47 85.0356 427.147 84.6841 426.908 84.2642C426.669 83.8394 426.549 83.3438 426.549 82.7773H428.388C428.388 83.124 428.446 83.4194 428.563 83.6636C428.686 83.9077 428.854 84.1079 429.069 84.2642C429.284 84.4155 429.533 84.5278 429.816 84.6011C430.104 84.6743 430.412 84.7109 430.739 84.7109C431.168 84.7109 431.527 84.6499 431.815 84.5278C432.108 84.4058 432.328 84.2349 432.475 84.0151C432.621 83.7954 432.694 83.5415 432.694 83.2534ZM437.755 79.6865V86H435.99V78.0752H437.653L437.755 79.6865ZM437.47 81.7446L436.869 81.7373C436.869 81.1904 436.938 80.6851 437.074 80.2212C437.211 79.7573 437.411 79.3545 437.675 79.0127C437.938 78.666 438.266 78.3999 438.656 78.2144C439.052 78.0239 439.508 77.9287 440.026 77.9287C440.387 77.9287 440.717 77.9824 441.015 78.0898C441.317 78.1924 441.579 78.356 441.798 78.5806C442.023 78.8052 442.194 79.0933 442.311 79.4448C442.433 79.7964 442.494 80.2212 442.494 80.7192V86H440.729V80.873C440.729 80.4873 440.67 80.1846 440.553 79.9648C440.441 79.7451 440.277 79.5889 440.062 79.4961C439.853 79.3984 439.601 79.3496 439.308 79.3496C438.976 79.3496 438.693 79.4131 438.458 79.54C438.229 79.667 438.041 79.8403 437.895 80.0601C437.748 80.2798 437.641 80.5337 437.572 80.8218C437.504 81.1099 437.47 81.4175 437.47 81.7446ZM442.384 81.2759L441.557 81.459C441.557 80.9805 441.623 80.5288 441.754 80.104C441.891 79.6743 442.089 79.2983 442.348 78.9761C442.611 78.6489 442.936 78.3926 443.322 78.207C443.708 78.0215 444.149 77.9287 444.647 77.9287C445.053 77.9287 445.414 77.9849 445.731 78.0972C446.054 78.2046 446.327 78.3755 446.552 78.6099C446.776 78.8442 446.947 79.1494 447.064 79.5254C447.182 79.8965 447.24 80.3457 447.24 80.873V86H445.468V80.8657C445.468 80.4653 445.409 80.1553 445.292 79.9355C445.18 79.7158 445.019 79.5645 444.809 79.4814C444.599 79.3936 444.347 79.3496 444.054 79.3496C443.781 79.3496 443.539 79.4009 443.329 79.5034C443.124 79.6011 442.951 79.7402 442.809 79.9209C442.667 80.0967 442.56 80.2993 442.487 80.5288C442.418 80.7583 442.384 81.0073 442.384 81.2759ZM453.825 84.1323V78.0752H455.597V86H453.927L453.825 84.1323ZM454.074 82.4844L454.667 82.4697C454.667 83.002 454.608 83.4927 454.491 83.9419C454.374 84.3862 454.193 84.7744 453.949 85.1064C453.705 85.4336 453.393 85.6899 453.012 85.8755C452.631 86.0562 452.174 86.1465 451.642 86.1465C451.256 86.1465 450.902 86.0903 450.58 85.978C450.258 85.8657 449.979 85.6924 449.745 85.458C449.516 85.2236 449.337 84.9185 449.21 84.5425C449.083 84.1665 449.02 83.7173 449.02 83.1948V78.0752H450.785V83.2095C450.785 83.4976 450.819 83.7393 450.888 83.9346C450.956 84.125 451.049 84.2788 451.166 84.396C451.283 84.5132 451.42 84.5962 451.576 84.645C451.732 84.6938 451.898 84.7183 452.074 84.7183C452.577 84.7183 452.973 84.6206 453.261 84.4253C453.554 84.2251 453.761 83.9565 453.883 83.6196C454.01 83.2827 454.074 82.9043 454.074 82.4844ZM461.852 83.854C461.852 83.6782 461.808 83.5195 461.72 83.3779C461.632 83.2314 461.464 83.0996 461.215 82.9824C460.971 82.8652 460.609 82.7578 460.131 82.6602C459.711 82.5674 459.325 82.4575 458.974 82.3306C458.627 82.1987 458.329 82.04 458.08 81.8545C457.831 81.6689 457.638 81.4492 457.501 81.1953C457.365 80.9414 457.296 80.6484 457.296 80.3164C457.296 79.9941 457.367 79.689 457.509 79.4009C457.65 79.1128 457.853 78.8589 458.117 78.6392C458.38 78.4194 458.7 78.2461 459.076 78.1191C459.457 77.9922 459.882 77.9287 460.351 77.9287C461.015 77.9287 461.583 78.041 462.057 78.2656C462.536 78.4854 462.902 78.7856 463.156 79.1665C463.41 79.5425 463.537 79.9673 463.537 80.4409H461.771C461.771 80.231 461.718 80.0356 461.61 79.855C461.508 79.6694 461.352 79.5205 461.142 79.4082C460.932 79.291 460.668 79.2324 460.351 79.2324C460.048 79.2324 459.796 79.2812 459.596 79.3789C459.401 79.4717 459.254 79.5938 459.157 79.7451C459.064 79.8965 459.018 80.0625 459.018 80.2432C459.018 80.375 459.042 80.4946 459.091 80.6021C459.145 80.7046 459.232 80.7998 459.354 80.8877C459.477 80.9707 459.643 81.0488 459.853 81.1221C460.067 81.1953 460.336 81.2661 460.658 81.3345C461.264 81.4614 461.784 81.625 462.218 81.8252C462.658 82.0205 462.995 82.2744 463.229 82.5869C463.463 82.8945 463.581 83.2852 463.581 83.7588C463.581 84.1104 463.505 84.4326 463.354 84.7256C463.207 85.0137 462.992 85.2651 462.709 85.48C462.426 85.6899 462.086 85.8535 461.691 85.9707C461.3 86.0879 460.861 86.1465 460.373 86.1465C459.655 86.1465 459.047 86.0195 458.549 85.7656C458.051 85.5068 457.672 85.1772 457.414 84.7769C457.16 84.3716 457.033 83.9517 457.033 83.5171H458.739C458.759 83.8442 458.849 84.1055 459.01 84.3008C459.176 84.4912 459.381 84.6304 459.625 84.7183C459.875 84.8013 460.131 84.8428 460.395 84.8428C460.712 84.8428 460.978 84.8013 461.193 84.7183C461.408 84.6304 461.571 84.5132 461.684 84.3667C461.796 84.2153 461.852 84.0444 461.852 83.854ZM466.869 74.75V86H465.111V74.75H466.869ZM466.562 81.7446L465.99 81.7373C465.995 81.1904 466.071 80.6851 466.217 80.2212C466.369 79.7573 466.579 79.3545 466.847 79.0127C467.121 78.666 467.448 78.3999 467.829 78.2144C468.209 78.0239 468.632 77.9287 469.096 77.9287C469.486 77.9287 469.838 77.9824 470.15 78.0898C470.468 78.1973 470.741 78.3706 470.971 78.6099C471.2 78.8442 471.374 79.1519 471.491 79.5327C471.613 79.9087 471.674 80.3677 471.674 80.9097V86H469.901V80.895C469.901 80.5142 469.845 80.2114 469.733 79.9868C469.625 79.7622 469.467 79.6011 469.257 79.5034C469.047 79.4009 468.791 79.3496 468.488 79.3496C468.17 79.3496 467.89 79.4131 467.646 79.54C467.406 79.667 467.206 79.8403 467.045 80.0601C466.884 80.2798 466.762 80.5337 466.679 80.8218C466.601 81.1099 466.562 81.4175 466.562 81.7446ZM481.422 82.0229H478.646V80.5654H481.422C481.906 80.5654 482.296 80.4873 482.594 80.3311C482.892 80.1748 483.109 79.96 483.246 79.6865C483.388 79.4082 483.458 79.0908 483.458 78.7344C483.458 78.3975 483.388 78.0825 483.246 77.7896C483.109 77.4917 482.892 77.2524 482.594 77.0718C482.296 76.8911 481.906 76.8008 481.422 76.8008H479.21V86H477.372V75.3359H481.422C482.248 75.3359 482.948 75.4824 483.524 75.7754C484.105 76.0635 484.547 76.4639 484.85 76.9766C485.153 77.4844 485.304 78.0654 485.304 78.7197C485.304 79.4082 485.153 79.999 484.85 80.4922C484.547 80.9854 484.105 81.3638 483.524 81.6274C482.948 81.8911 482.248 82.0229 481.422 82.0229ZM488.549 79.584V86H486.784V78.0752H488.468L488.549 79.584ZM490.973 78.0239L490.958 79.6646C490.851 79.645 490.734 79.6304 490.607 79.6206C490.485 79.6108 490.363 79.606 490.241 79.606C489.938 79.606 489.672 79.6499 489.442 79.7378C489.213 79.8208 489.02 79.9429 488.864 80.104C488.712 80.2603 488.595 80.4507 488.512 80.6753C488.429 80.8999 488.38 81.1514 488.366 81.4297L487.963 81.459C487.963 80.9609 488.012 80.4995 488.109 80.0747C488.207 79.6499 488.354 79.2764 488.549 78.9541C488.749 78.6318 488.998 78.3804 489.296 78.1997C489.599 78.019 489.948 77.9287 490.343 77.9287C490.451 77.9287 490.565 77.9385 490.688 77.958C490.814 77.9775 490.91 77.9995 490.973 78.0239ZM491.552 82.1255V81.957C491.552 81.3857 491.635 80.856 491.801 80.3677C491.967 79.8745 492.206 79.4473 492.519 79.0859C492.836 78.7197 493.222 78.4365 493.676 78.2363C494.135 78.0312 494.652 77.9287 495.229 77.9287C495.81 77.9287 496.327 78.0312 496.781 78.2363C497.24 78.4365 497.628 78.7197 497.946 79.0859C498.263 79.4473 498.505 79.8745 498.671 80.3677C498.837 80.856 498.92 81.3857 498.92 81.957V82.1255C498.92 82.6968 498.837 83.2266 498.671 83.7148C498.505 84.2031 498.263 84.6304 497.946 84.9966C497.628 85.3579 497.243 85.6411 496.789 85.8462C496.334 86.0464 495.819 86.1465 495.243 86.1465C494.662 86.1465 494.142 86.0464 493.683 85.8462C493.229 85.6411 492.843 85.3579 492.526 84.9966C492.208 84.6304 491.967 84.2031 491.801 83.7148C491.635 83.2266 491.552 82.6968 491.552 82.1255ZM493.317 81.957V82.1255C493.317 82.4819 493.354 82.8188 493.427 83.1362C493.5 83.4536 493.615 83.7319 493.771 83.9712C493.927 84.2104 494.127 84.3984 494.372 84.5352C494.616 84.6719 494.906 84.7402 495.243 84.7402C495.57 84.7402 495.854 84.6719 496.093 84.5352C496.337 84.3984 496.537 84.2104 496.693 83.9712C496.85 83.7319 496.964 83.4536 497.038 83.1362C497.116 82.8188 497.155 82.4819 497.155 82.1255V81.957C497.155 81.6055 497.116 81.2734 497.038 80.9609C496.964 80.6436 496.847 80.3628 496.686 80.1187C496.53 79.8745 496.33 79.6841 496.085 79.5474C495.846 79.4058 495.561 79.335 495.229 79.335C494.896 79.335 494.608 79.4058 494.364 79.5474C494.125 79.6841 493.927 79.8745 493.771 80.1187C493.615 80.3628 493.5 80.6436 493.427 80.9609C493.354 81.2734 493.317 81.6055 493.317 81.957Z" fill="#505050"/>
<path d="M505 81C505 77.1336 508.134 74 512 74C515.866 74 519 77.1336 519 81C519 84.8664 515.866 88 512 88C508.134 88 505 84.8664 505 81ZM515.166 79.7914C515.464 79.4934 515.464 79.0066 515.166 78.7086C514.868 78.4105 514.382 78.4105 514.084 78.7086L511.125 81.6672L509.916 80.4586C509.618 80.1605 509.132 80.1605 508.834 80.4586C508.536 80.7566 508.536 81.2434 508.834 81.5414L510.584 83.2914C510.882 83.5895 511.368 83.5895 511.666 83.2914L515.166 79.7914Z" fill="#18BB4B"/>
<rect width="103" height="80" transform="translate(536 41)" fill="white" fill-opacity="0.01"/>
<path d="M560 74C563.866 74 567 77.1336 567 81C567 84.8664 563.866 88 560 88C556.134 88 553 84.8664 553 81C553 77.1336 556.134 74 560 74ZM560 86.6875C560.202 86.6875 560.714 86.4906 561.302 85.3641C561.542 84.8801 561.725 84.2922 561.903 83.625H558.097C558.25 84.2922 558.458 84.8801 558.698 85.3641C559.262 86.4906 559.798 86.6875 560 86.6875ZM557.881 82.3125H562.119C562.163 81.8941 562.188 81.4539 562.188 81C562.188 80.5461 562.163 80.1059 562.119 79.6875H557.881C557.837 80.1059 557.812 80.5461 557.812 81C557.812 81.4539 557.837 81.8941 557.881 82.3125ZM561.903 78.375C561.725 77.7078 561.542 77.1199 561.302 76.6373C560.714 75.5099 560.202 75.3125 560 75.3125C559.798 75.3125 559.262 75.5099 558.698 76.6373C558.458 77.1199 558.25 77.7078 558.097 78.375H561.903ZM563.44 79.6875C563.478 80.1113 563.5 80.5516 563.5 81C563.5 81.4484 563.478 81.8887 563.44 82.3125H565.534C565.636 81.8914 565.688 81.4512 565.688 81C565.688 80.5488 565.636 80.1086 565.534 79.6875H563.44ZM562.354 75.8214C562.74 76.5227 563.046 77.3934 563.246 78.375H565.048C564.463 77.2512 563.511 76.3483 562.354 75.8214ZM557.646 75.8214C556.489 76.3483 555.539 77.2512 554.953 78.375H556.754C556.954 77.3934 557.26 76.5227 557.646 75.8214ZM554.312 81C554.312 81.4512 554.365 81.8914 554.465 82.3125H556.56C556.522 81.8887 556.5 81.4484 556.5 81C556.5 80.5516 556.522 80.1113 556.56 79.6875H554.465C554.365 80.1086 554.312 80.5488 554.312 81ZM565.048 83.625H563.246C563.046 84.6066 562.74 85.4762 562.354 86.1789C563.511 85.6512 564.463 84.7488 565.048 83.625ZM556.754 83.625H554.953C555.539 84.7488 556.489 85.6512 557.646 86.1789C557.26 85.4762 556.954 84.6066 556.754 83.625Z" fill="#505050"/>
<path d="M579.383 82.5283H581.214C581.155 83.2266 580.96 83.8491 580.628 84.396C580.296 84.938 579.83 85.3652 579.229 85.6777C578.628 85.9902 577.898 86.1465 577.039 86.1465C576.38 86.1465 575.787 86.0293 575.259 85.7949C574.732 85.5557 574.28 85.2188 573.904 84.7842C573.528 84.3447 573.24 83.8149 573.04 83.1948C572.845 82.5747 572.747 81.8813 572.747 81.1147V80.2285C572.747 79.4619 572.847 78.7686 573.047 78.1484C573.252 77.5283 573.545 76.9985 573.926 76.5591C574.307 76.1147 574.764 75.7754 575.296 75.541C575.833 75.3066 576.436 75.1895 577.105 75.1895C577.955 75.1895 578.672 75.3457 579.258 75.6582C579.844 75.9707 580.298 76.4028 580.621 76.9546C580.948 77.5063 581.148 78.1387 581.221 78.8516H579.39C579.341 78.3926 579.234 77.9995 579.068 77.6724C578.907 77.3452 578.667 77.0962 578.35 76.9253C578.033 76.7495 577.618 76.6616 577.105 76.6616C576.685 76.6616 576.319 76.7397 576.006 76.896C575.694 77.0522 575.433 77.2817 575.223 77.5845C575.013 77.8872 574.854 78.2607 574.747 78.7051C574.644 79.1445 574.593 79.6475 574.593 80.2139V81.1147C574.593 81.6519 574.639 82.1401 574.732 82.5796C574.83 83.0142 574.976 83.3877 575.171 83.7002C575.372 84.0127 575.625 84.2544 575.933 84.4253C576.241 84.5962 576.609 84.6816 577.039 84.6816C577.562 84.6816 577.984 84.5986 578.306 84.4326C578.633 84.2666 578.88 84.0249 579.046 83.7075C579.217 83.3853 579.329 82.9922 579.383 82.5283ZM585.982 86H583.704L583.719 84.5425H585.982C586.641 84.5425 587.193 84.3984 587.637 84.1104C588.086 83.8223 588.423 83.4097 588.648 82.8726C588.877 82.3354 588.992 81.6958 588.992 80.9536V80.375C588.992 79.7988 588.926 79.2886 588.794 78.8442C588.667 78.3999 588.477 78.0264 588.223 77.7236C587.974 77.4209 587.667 77.1914 587.3 77.0352C586.939 76.8789 586.521 76.8008 586.048 76.8008H583.66V75.3359H586.048C586.756 75.3359 587.403 75.4556 587.989 75.6948C588.575 75.9292 589.08 76.2686 589.505 76.7129C589.935 77.1572 590.264 77.6895 590.494 78.3096C590.723 78.9297 590.838 79.623 590.838 80.3896V80.9536C590.838 81.7202 590.723 82.4136 590.494 83.0337C590.264 83.6538 589.935 84.186 589.505 84.6304C589.075 85.0698 588.562 85.4092 587.967 85.6484C587.376 85.8828 586.714 86 585.982 86ZM584.722 75.3359V86H582.884V75.3359H584.722ZM601.143 75.3359V86H599.305L594.522 78.3608V86H592.684V75.3359H594.522L599.319 82.9897V75.3359H601.143Z" fill="#505050"/>
<path d="M615 74C611.134 74 608 77.1336 608 81C608 84.8664 611.134 88 615 88C618.866 88 622 84.8664 622 81C622 77.1336 618.866 74 615 74ZM614.344 78.1562C614.344 77.7953 614.639 77.5 615 77.5C615.361 77.5 615.656 77.7939 615.656 78.1562V81.6562C615.656 82.0186 615.362 82.3125 615 82.3125C614.638 82.3125 614.344 82.0199 614.344 81.6562V78.1562ZM615 84.9375C614.525 84.9375 614.14 84.5525 614.14 84.0778C614.14 83.6031 614.525 83.2181 615 83.2181C615.475 83.2181 615.86 83.6031 615.86 84.0778C615.859 84.552 615.476 84.9375 615 84.9375Z" fill="#FFCC20"/>
<rect width="150" height="80" transform="translate(639 41)" fill="white" fill-opacity="0.01"/>
<path d="M660.164 77.3571C659.438 77.3571 658.849 77.9328 658.849 78.6429C658.849 79.3529 659.438 79.9286 660.164 79.9286C660.89 79.9286 661.479 79.3529 661.479 78.6429C661.479 77.9328 660.89 77.3571 660.164 77.3571ZM668.247 75H657.729C656.785 75 656 75.7674 656 76.7143V85.2857C656 86.2326 656.785 87 657.728 87H668.247C669.215 87 670 86.2326 670 85.2857V76.7143C670 75.7674 669.239 75 668.247 75ZM668.685 85.1062L664.938 80.1268C664.87 80.0036 664.714 79.9286 664.547 79.9286C664.379 79.9286 664.223 80.0027 664.13 80.1262L661.21 83.986L660.194 82.7512C660.1 82.6366 659.949 82.5688 659.789 82.5688C659.629 82.5688 659.479 82.6366 659.385 82.7512L657.316 85.264C657.316 85.2632 657.316 85.2648 657.316 85.264L657.315 76.7143C657.315 76.478 657.511 76.2857 657.753 76.2857H668.272C668.513 76.2857 668.71 76.478 668.71 76.7143V85.1062H668.685Z" fill="#505050"/>
<path d="M682.764 84.5425V86H677.41V84.5425H682.764ZM677.922 75.3359V86H676.084V75.3359H677.922ZM683.672 82.1255V81.957C683.672 81.3857 683.755 80.856 683.921 80.3677C684.087 79.8745 684.326 79.4473 684.639 79.0859C684.956 78.7197 685.342 78.4365 685.796 78.2363C686.255 78.0312 686.772 77.9287 687.349 77.9287C687.93 77.9287 688.447 78.0312 688.901 78.2363C689.36 78.4365 689.749 78.7197 690.066 79.0859C690.383 79.4473 690.625 79.8745 690.791 80.3677C690.957 80.856 691.04 81.3857 691.04 81.957V82.1255C691.04 82.6968 690.957 83.2266 690.791 83.7148C690.625 84.2031 690.383 84.6304 690.066 84.9966C689.749 85.3579 689.363 85.6411 688.909 85.8462C688.455 86.0464 687.939 86.1465 687.363 86.1465C686.782 86.1465 686.262 86.0464 685.803 85.8462C685.349 85.6411 684.963 85.3579 684.646 84.9966C684.329 84.6304 684.087 84.2031 683.921 83.7148C683.755 83.2266 683.672 82.6968 683.672 82.1255ZM685.437 81.957V82.1255C685.437 82.4819 685.474 82.8188 685.547 83.1362C685.62 83.4536 685.735 83.7319 685.891 83.9712C686.047 84.2104 686.248 84.3984 686.492 84.5352C686.736 84.6719 687.026 84.7402 687.363 84.7402C687.69 84.7402 687.974 84.6719 688.213 84.5352C688.457 84.3984 688.657 84.2104 688.813 83.9712C688.97 83.7319 689.084 83.4536 689.158 83.1362C689.236 82.8188 689.275 82.4819 689.275 82.1255V81.957C689.275 81.6055 689.236 81.2734 689.158 80.9609C689.084 80.6436 688.967 80.3628 688.806 80.1187C688.65 79.8745 688.45 79.6841 688.206 79.5474C687.966 79.4058 687.681 79.335 687.349 79.335C687.017 79.335 686.729 79.4058 686.484 79.5474C686.245 79.6841 686.047 79.8745 685.891 80.1187C685.735 80.3628 685.62 80.6436 685.547 80.9609C685.474 81.2734 685.437 81.6055 685.437 81.957ZM695.757 84.7402C696.045 84.7402 696.304 84.6841 696.533 84.5718C696.768 84.4546 696.956 84.2935 697.097 84.0884C697.244 83.8833 697.324 83.6465 697.339 83.3779H699.001C698.992 83.8906 698.84 84.3569 698.547 84.7769C698.254 85.1968 697.866 85.5312 697.383 85.7803C696.899 86.0244 696.365 86.1465 695.779 86.1465C695.173 86.1465 694.646 86.0439 694.197 85.8389C693.748 85.6289 693.374 85.3408 693.076 84.9746C692.778 84.6084 692.554 84.186 692.402 83.7075C692.256 83.229 692.183 82.7163 692.183 82.1694V81.9131C692.183 81.3662 692.256 80.8535 692.402 80.375C692.554 79.8916 692.778 79.4668 693.076 79.1006C693.374 78.7344 693.748 78.4487 694.197 78.2437C694.646 78.0337 695.171 77.9287 695.771 77.9287C696.406 77.9287 696.963 78.0557 697.441 78.3096C697.92 78.5586 698.296 78.9077 698.569 79.3569C698.848 79.8013 698.992 80.3188 699.001 80.9097H697.339C697.324 80.6167 697.251 80.353 697.119 80.1187C696.992 79.8794 696.812 79.689 696.577 79.5474C696.348 79.4058 696.072 79.335 695.75 79.335C695.393 79.335 695.098 79.4082 694.863 79.5547C694.629 79.6963 694.446 79.8916 694.314 80.1406C694.182 80.3848 694.087 80.6606 694.028 80.9683C693.975 81.271 693.948 81.5859 693.948 81.9131V82.1694C693.948 82.4966 693.975 82.814 694.028 83.1216C694.082 83.4292 694.175 83.7051 694.307 83.9492C694.443 84.1885 694.629 84.3813 694.863 84.5278C695.098 84.6694 695.396 84.7402 695.757 84.7402ZM704.824 84.4106V80.6313C704.824 80.3481 704.773 80.104 704.67 79.8989C704.568 79.6938 704.412 79.5352 704.202 79.4229C703.997 79.3105 703.738 79.2544 703.425 79.2544C703.137 79.2544 702.888 79.3032 702.678 79.4009C702.468 79.4985 702.305 79.6304 702.188 79.7964C702.07 79.9624 702.012 80.1504 702.012 80.3604H700.254C700.254 80.0479 700.33 79.7451 700.481 79.4521C700.632 79.1592 700.852 78.8979 701.14 78.6685C701.428 78.439 701.772 78.2583 702.173 78.1265C702.573 77.9946 703.022 77.9287 703.521 77.9287C704.116 77.9287 704.644 78.0288 705.103 78.229C705.566 78.4292 705.93 78.7319 706.194 79.1372C706.462 79.5376 706.597 80.0405 706.597 80.646V84.1689C706.597 84.5303 706.621 84.855 706.67 85.1431C706.724 85.4263 706.799 85.6729 706.897 85.8828V86H705.088C705.005 85.8096 704.939 85.5679 704.89 85.2749C704.846 84.9771 704.824 84.689 704.824 84.4106ZM705.081 81.1807L705.095 82.272H703.828C703.501 82.272 703.213 82.3037 702.964 82.3672C702.715 82.4258 702.507 82.5137 702.341 82.6309C702.175 82.748 702.051 82.8896 701.968 83.0557C701.885 83.2217 701.843 83.4097 701.843 83.6196C701.843 83.8296 701.892 84.0225 701.99 84.1982C702.087 84.3691 702.229 84.5034 702.415 84.6011C702.605 84.6987 702.834 84.7476 703.103 84.7476C703.464 84.7476 703.779 84.6743 704.048 84.5278C704.321 84.3765 704.536 84.1934 704.692 83.9785C704.849 83.7588 704.932 83.5513 704.941 83.356L705.513 84.1396C705.454 84.3398 705.354 84.5547 705.212 84.7842C705.071 85.0137 704.885 85.2334 704.656 85.4434C704.431 85.6484 704.16 85.8169 703.843 85.9487C703.53 86.0806 703.169 86.1465 702.759 86.1465C702.241 86.1465 701.78 86.0439 701.375 85.8389C700.969 85.6289 700.652 85.3481 700.422 84.9966C700.193 84.6401 700.078 84.2373 700.078 83.7881C700.078 83.3682 700.156 82.9971 700.312 82.6748C700.474 82.3477 700.708 82.0742 701.016 81.8545C701.328 81.6348 701.709 81.4688 702.158 81.3564C702.607 81.2393 703.12 81.1807 703.696 81.1807H705.081ZM710.332 74.75V86H708.56V74.75H710.332ZM718.85 83.605L720.974 75.3359H722.087L721.963 77.4673L719.692 86H718.535L718.85 83.605ZM717.261 75.3359L718.982 83.5391L719.136 86H717.905L715.437 75.3359H717.261ZM724.497 83.5171L726.196 75.3359H728.027L725.559 86H724.329L724.497 83.5171ZM722.52 75.3359L724.622 83.627L724.929 86H723.772L721.538 77.4673L721.421 75.3359H722.52ZM732.473 86.1465C731.887 86.1465 731.357 86.0513 730.884 85.8608C730.415 85.6655 730.015 85.3945 729.683 85.0479C729.355 84.7012 729.104 84.2935 728.928 83.8247C728.752 83.356 728.665 82.8506 728.665 82.3086V82.0156C728.665 81.3955 728.755 80.834 728.936 80.3311C729.116 79.8281 729.368 79.3984 729.69 79.042C730.012 78.6807 730.393 78.4048 730.833 78.2144C731.272 78.0239 731.748 77.9287 732.261 77.9287C732.827 77.9287 733.323 78.0239 733.748 78.2144C734.172 78.4048 734.524 78.6733 734.802 79.02C735.085 79.3618 735.295 79.7695 735.432 80.2432C735.574 80.7168 735.645 81.2393 735.645 81.8105V82.5649H729.521V81.2979H733.901V81.1587C733.892 80.8413 733.828 80.5435 733.711 80.2651C733.599 79.9868 733.425 79.7622 733.191 79.5913C732.957 79.4204 732.644 79.335 732.253 79.335C731.96 79.335 731.699 79.3984 731.47 79.5254C731.245 79.6475 731.057 79.8257 730.906 80.0601C730.754 80.2944 730.637 80.5776 730.554 80.9097C730.476 81.2368 730.437 81.6055 730.437 82.0156V82.3086C730.437 82.6553 730.483 82.9775 730.576 83.2754C730.674 83.5684 730.815 83.8247 731.001 84.0444C731.187 84.2642 731.411 84.4375 731.675 84.5645C731.938 84.6865 732.239 84.7476 732.576 84.7476C733 84.7476 733.379 84.6621 733.711 84.4912C734.043 84.3203 734.331 84.0786 734.575 83.7661L735.505 84.667C735.334 84.916 735.112 85.1553 734.839 85.3848C734.565 85.6094 734.231 85.7925 733.835 85.9341C733.445 86.0757 732.991 86.1465 732.473 86.1465ZM737.029 74.75H738.794V84.3081L738.625 86H737.029V74.75ZM743.965 81.9644V82.1182C743.965 82.7041 743.899 83.2437 743.767 83.7368C743.64 84.2251 743.445 84.6499 743.181 85.0112C742.922 85.3726 742.6 85.6533 742.214 85.8535C741.833 86.0488 741.392 86.1465 740.889 86.1465C740.396 86.1465 739.966 86.0537 739.6 85.8682C739.233 85.6826 738.926 85.4189 738.677 85.0771C738.433 84.7354 738.235 84.3276 738.083 83.854C737.932 83.3804 737.825 82.8579 737.761 82.2866V81.7959C737.825 81.2197 737.932 80.6973 738.083 80.2285C738.235 79.7549 738.433 79.3472 738.677 79.0054C738.926 78.6587 739.231 78.3926 739.592 78.207C739.958 78.0215 740.386 77.9287 740.874 77.9287C741.382 77.9287 741.829 78.0264 742.214 78.2217C742.605 78.417 742.93 78.6953 743.188 79.0566C743.447 79.4131 743.64 79.8379 743.767 80.3311C743.899 80.8242 743.965 81.3687 743.965 81.9644ZM742.2 82.1182V81.9644C742.2 81.6079 742.17 81.2734 742.112 80.9609C742.053 80.6436 741.956 80.3652 741.819 80.126C741.687 79.8867 741.506 79.6987 741.277 79.562C741.052 79.4204 740.771 79.3496 740.435 79.3496C740.122 79.3496 739.854 79.4033 739.629 79.5107C739.404 79.6182 739.216 79.7646 739.065 79.9502C738.914 80.1357 738.794 80.3506 738.706 80.5947C738.623 80.8389 738.567 81.1025 738.538 81.3857V82.7114C738.582 83.0776 738.674 83.4146 738.816 83.7222C738.962 84.0249 739.167 84.269 739.431 84.4546C739.695 84.6353 740.034 84.7256 740.449 84.7256C740.776 84.7256 741.052 84.6597 741.277 84.5278C741.501 84.396 741.68 84.2129 741.812 83.9785C741.948 83.7393 742.046 83.4609 742.104 83.1436C742.168 82.8262 742.2 82.4844 742.2 82.1182ZM747.231 79.5986V89.0469H745.466V78.0752H747.092L747.231 79.5986ZM752.395 81.9644V82.1182C752.395 82.6943 752.327 83.229 752.19 83.7222C752.058 84.2104 751.86 84.6377 751.597 85.0039C751.338 85.3652 751.018 85.646 750.637 85.8462C750.256 86.0464 749.817 86.1465 749.319 86.1465C748.826 86.1465 748.394 86.0562 748.022 85.8755C747.656 85.6899 747.346 85.4287 747.092 85.0918C746.838 84.7549 746.633 84.3594 746.477 83.9053C746.326 83.4463 746.218 82.9434 746.155 82.3965V81.8032C746.218 81.2222 746.326 80.6948 746.477 80.2212C746.633 79.7476 746.838 79.3398 747.092 78.998C747.346 78.6562 747.656 78.3926 748.022 78.207C748.389 78.0215 748.816 77.9287 749.304 77.9287C749.802 77.9287 750.244 78.0264 750.63 78.2217C751.016 78.4121 751.34 78.6855 751.604 79.042C751.868 79.3936 752.065 79.8184 752.197 80.3164C752.329 80.8096 752.395 81.3589 752.395 81.9644ZM750.63 82.1182V81.9644C750.63 81.5981 750.596 81.2588 750.527 80.9463C750.459 80.6289 750.352 80.3506 750.205 80.1113C750.059 79.8721 749.871 79.6865 749.641 79.5547C749.417 79.418 749.146 79.3496 748.828 79.3496C748.516 79.3496 748.247 79.4033 748.022 79.5107C747.798 79.6133 747.61 79.7573 747.458 79.9429C747.307 80.1284 747.19 80.3457 747.107 80.5947C747.024 80.8389 746.965 81.105 746.931 81.3931V82.814C746.99 83.1655 747.09 83.4878 747.231 83.7808C747.373 84.0737 747.573 84.3081 747.832 84.4839C748.096 84.6548 748.433 84.7402 748.843 84.7402C749.16 84.7402 749.431 84.6719 749.656 84.5352C749.88 84.3984 750.063 84.2104 750.205 83.9712C750.352 83.7271 750.459 83.4463 750.527 83.1289C750.596 82.8115 750.63 82.4746 750.63 82.1182Z" fill="#505050"/>
<path d="M765 74C761.134 74 758 77.1336 758 81C758 84.8664 761.134 88 765 88C768.866 88 772 84.8664 772 81C772 77.1336 768.866 74 765 74ZM764.344 78.1562C764.344 77.7953 764.639 77.5 765 77.5C765.361 77.5 765.656 77.7939 765.656 78.1562V81.6562C765.656 82.0186 765.362 82.3125 765 82.3125C764.638 82.3125 764.344 82.0199 764.344 81.6562V78.1562ZM765 84.9375C764.525 84.9375 764.14 84.5525 764.14 84.0778C764.14 83.6031 764.525 83.2181 765 83.2181C765.475 83.2181 765.86 83.6031 765.86 84.0778C765.859 84.552 765.476 84.9375 765 84.9375Z" fill="#F45C59"/>
<path d="M41 41H1175H41ZM1175 122H41V120H1175V122ZM41 121V41V121ZM1175 41V121V41Z" fill="#E6E6E6" mask="url(#path-4-inside-1_3378_49327)"/>
</g>
<defs>
<filter id="filter0_ddd_3378_49327" x="-40" y="-4" width="1296" height="337" filterUnits="userSpaceOnUse" color-interpolation-filters="sRGB">
<feFlood flood-opacity="0" result="BackgroundImageFix"/>
<feColorMatrix in="SourceAlpha" type="matrix" values="0 0 0 0 0 0 0 0 0 0 0 0 0 0 0 0 0 0 127 0" result="hardAlpha"/>
<feOffset dy="2.39404"/>
<feGaussianBlur stdDeviation="2.66004"/>
<feColorMatrix type="matrix" values="0 0 0 0 0 0 0 0 0 0 0 0 0 0 0 0 0 0 0.0201946 0"/>
<feBlend mode="normal" in2="BackgroundImageFix" result="effect1_dropShadow_3378_49327"/>
<feColorMatrix in="SourceAlpha" type="matrix" values="0 0 0 0 0 0 0 0 0 0 0 0 0 0 0 0 0 0 127 0" result="hardAlpha"/>
<feOffset dy="8.04107"/>
<feGaussianBlur stdDeviation="8.93452"/>
<feColorMatrix type="matrix" values="0 0 0 0 0 0 0 0 0 0 0 0 0 0 0 0 0 0 0.0298054 0"/>
<feBlend mode="normal" in2="effect1_dropShadow_3378_49327" result="effect2_dropShadow_3378_49327"/>
<feColorMatrix in="SourceAlpha" type="matrix" values="0 0 0 0 0 0 0 0 0 0 0 0 0 0 0 0 0 0 127 0" result="hardAlpha"/>
<feOffset dy="36"/>
<feGaussianBlur stdDeviation="40"/>
<feColorMatrix type="matrix" values="0 0 0 0 0 0 0 0 0 0 0 0 0 0 0 0 0 0 0.05 0"/>
<feBlend mode="normal" in2="effect2_dropShadow_3378_49327" result="effect3_dropShadow_3378_49327"/>
<feBlend mode="normal" in="SourceGraphic" in2="effect3_dropShadow_3378_49327" result="shape"/>
</filter>
<clipPath id="clip0_3378_49327">
<rect width="1216" height="257" rx="4" fill="white"/>
</clipPath>
</defs>
</svg>
