<svg width="935" height="424" viewBox="0 0 935 424" fill="none" xmlns="http://www.w3.org/2000/svg">
<rect width="904" height="348" rx="4" fill="#F8F8F8"/>
<path d="M535.586 47.1406L532.188 57H530.133L534.414 45.625H535.727L535.586 47.1406ZM538.43 57L535.023 47.1406L534.875 45.625H536.195L540.492 57H538.43ZM538.266 52.7812V54.3359H532.078V52.7812H538.266ZM545.031 55.6562C545.339 55.6562 545.615 55.5964 545.859 55.4766C546.109 55.3516 546.31 55.1797 546.461 54.9609C546.617 54.7422 546.703 54.4896 546.719 54.2031H548.492C548.482 54.75 548.32 55.2474 548.008 55.6953C547.695 56.1432 547.281 56.5 546.766 56.7656C546.25 57.026 545.68 57.1562 545.055 57.1562C544.409 57.1562 543.846 57.0469 543.367 56.8281C542.888 56.6042 542.49 56.2969 542.172 55.9062C541.854 55.5156 541.615 55.0651 541.453 54.5547C541.297 54.0443 541.219 53.4974 541.219 52.9141V52.6406C541.219 52.0573 541.297 51.5104 541.453 51C541.615 50.4844 541.854 50.0312 542.172 49.6406C542.49 49.25 542.888 48.9453 543.367 48.7266C543.846 48.5026 544.406 48.3906 545.047 48.3906C545.724 48.3906 546.318 48.526 546.828 48.7969C547.339 49.0625 547.74 49.4349 548.031 49.9141C548.328 50.388 548.482 50.9401 548.492 51.5703H546.719C546.703 51.2578 546.625 50.9766 546.484 50.7266C546.349 50.4714 546.156 50.2682 545.906 50.1172C545.661 49.9661 545.367 49.8906 545.023 49.8906C544.643 49.8906 544.328 49.9688 544.078 50.125C543.828 50.276 543.633 50.4844 543.492 50.75C543.352 51.0104 543.25 51.3047 543.188 51.6328C543.13 51.9557 543.102 52.2917 543.102 52.6406V52.9141C543.102 53.263 543.13 53.6016 543.188 53.9297C543.245 54.2578 543.344 54.5521 543.484 54.8125C543.63 55.0677 543.828 55.2734 544.078 55.4297C544.328 55.5807 544.646 55.6562 545.031 55.6562ZM553.812 48.5469V49.9219H549.047V48.5469H553.812ZM550.422 46.4766H552.305V54.6641C552.305 54.9245 552.341 55.125 552.414 55.2656C552.492 55.401 552.599 55.4922 552.734 55.5391C552.87 55.5859 553.029 55.6094 553.211 55.6094C553.341 55.6094 553.466 55.6016 553.586 55.5859C553.706 55.5703 553.802 55.5547 553.875 55.5391L553.883 56.9766C553.727 57.0234 553.544 57.0651 553.336 57.1016C553.133 57.138 552.898 57.1562 552.633 57.1562C552.201 57.1562 551.818 57.0807 551.484 56.9297C551.151 56.7734 550.891 56.5208 550.703 56.1719C550.516 55.8229 550.422 55.3594 550.422 54.7812V46.4766ZM557.281 48.5469V57H555.391V48.5469H557.281ZM555.266 46.3281C555.266 46.0417 555.359 45.8047 555.547 45.6172C555.74 45.4245 556.005 45.3281 556.344 45.3281C556.677 45.3281 556.94 45.4245 557.133 45.6172C557.326 45.8047 557.422 46.0417 557.422 46.3281C557.422 46.6094 557.326 46.8438 557.133 47.0312C556.94 47.2188 556.677 47.3125 556.344 47.3125C556.005 47.3125 555.74 47.2188 555.547 47.0312C555.359 46.8438 555.266 46.6094 555.266 46.3281ZM562.094 55.5078L564.164 48.5469H566.117L563.18 57H561.961L562.094 55.5078ZM560.508 48.5469L562.617 55.5391L562.719 57H561.5L558.547 48.5469H560.508ZM570.898 57.1562C570.273 57.1562 569.708 57.0547 569.203 56.8516C568.703 56.6432 568.276 56.3542 567.922 55.9844C567.573 55.6146 567.305 55.1797 567.117 54.6797C566.93 54.1797 566.836 53.6406 566.836 53.0625V52.75C566.836 52.0885 566.932 51.4896 567.125 50.9531C567.318 50.4167 567.586 49.9583 567.93 49.5781C568.273 49.1927 568.68 48.8984 569.148 48.6953C569.617 48.4922 570.125 48.3906 570.672 48.3906C571.276 48.3906 571.805 48.4922 572.258 48.6953C572.711 48.8984 573.086 49.1849 573.383 49.5547C573.685 49.9193 573.909 50.3542 574.055 50.8594C574.206 51.3646 574.281 51.9219 574.281 52.5312V53.3359H567.75V51.9844H572.422V51.8359C572.411 51.4974 572.344 51.1797 572.219 50.8828C572.099 50.5859 571.914 50.3464 571.664 50.1641C571.414 49.9818 571.081 49.8906 570.664 49.8906C570.352 49.8906 570.073 49.9583 569.828 50.0938C569.589 50.224 569.388 50.4141 569.227 50.6641C569.065 50.9141 568.94 51.2161 568.852 51.5703C568.768 51.9193 568.727 52.3125 568.727 52.75V53.0625C568.727 53.4323 568.776 53.776 568.875 54.0938C568.979 54.4062 569.13 54.6797 569.328 54.9141C569.526 55.1484 569.766 55.3333 570.047 55.4688C570.328 55.599 570.648 55.6641 571.008 55.6641C571.461 55.6641 571.865 55.5729 572.219 55.3906C572.573 55.2083 572.88 54.9505 573.141 54.6172L574.133 55.5781C573.951 55.8438 573.714 56.099 573.422 56.3438C573.13 56.5833 572.773 56.7786 572.352 56.9297C571.935 57.0807 571.451 57.1562 570.898 57.1562Z" fill="#737373"/>
<path d="M56.1406 266.07C56.1406 265.836 56.1042 265.628 56.0312 265.445C55.9635 265.263 55.8411 265.096 55.6641 264.945C55.487 264.794 55.237 264.648 54.9141 264.508C54.5964 264.362 54.1901 264.214 53.6953 264.062C53.1536 263.896 52.6536 263.711 52.1953 263.508C51.7422 263.299 51.3464 263.06 51.0078 262.789C50.6693 262.513 50.4062 262.198 50.2188 261.844C50.0312 261.484 49.9375 261.07 49.9375 260.602C49.9375 260.138 50.0339 259.716 50.2266 259.336C50.4245 258.956 50.7031 258.628 51.0625 258.352C51.4271 258.07 51.8568 257.854 52.3516 257.703C52.8464 257.547 53.3932 257.469 53.9922 257.469C54.8359 257.469 55.5625 257.625 56.1719 257.938C56.7865 258.25 57.2578 258.669 57.5859 259.195C57.9193 259.721 58.0859 260.302 58.0859 260.938H56.1406C56.1406 260.562 56.0599 260.232 55.8984 259.945C55.7422 259.654 55.5026 259.424 55.1797 259.258C54.862 259.091 54.4583 259.008 53.9688 259.008C53.5052 259.008 53.1198 259.078 52.8125 259.219C52.5052 259.359 52.276 259.549 52.125 259.789C51.974 260.029 51.8984 260.299 51.8984 260.602C51.8984 260.815 51.9479 261.01 52.0469 261.188C52.1458 261.359 52.2969 261.521 52.5 261.672C52.7031 261.818 52.9583 261.956 53.2656 262.086C53.5729 262.216 53.9349 262.341 54.3516 262.461C54.9818 262.648 55.5312 262.857 56 263.086C56.4688 263.31 56.8594 263.565 57.1719 263.852C57.4844 264.138 57.7188 264.464 57.875 264.828C58.0312 265.188 58.1094 265.596 58.1094 266.055C58.1094 266.534 58.013 266.966 57.8203 267.352C57.6276 267.732 57.3516 268.057 56.9922 268.328C56.638 268.594 56.2109 268.799 55.7109 268.945C55.2161 269.086 54.6641 269.156 54.0547 269.156C53.5078 269.156 52.9688 269.083 52.4375 268.938C51.9115 268.792 51.4323 268.57 51 268.273C50.5677 267.971 50.224 267.596 49.9688 267.148C49.7135 266.695 49.5859 266.167 49.5859 265.562H51.5469C51.5469 265.932 51.6094 266.247 51.7344 266.508C51.8646 266.768 52.0443 266.982 52.2734 267.148C52.5026 267.31 52.7682 267.43 53.0703 267.508C53.3776 267.586 53.7057 267.625 54.0547 267.625C54.513 267.625 54.8958 267.56 55.2031 267.43C55.5156 267.299 55.75 267.117 55.9062 266.883C56.0625 266.648 56.1406 266.378 56.1406 266.07ZM61.5391 262.266V269H59.6562V260.547H61.4297L61.5391 262.266ZM61.2344 264.461L60.5938 264.453C60.5938 263.87 60.6667 263.331 60.8125 262.836C60.9583 262.341 61.1719 261.911 61.4531 261.547C61.7344 261.177 62.0833 260.893 62.5 260.695C62.9219 260.492 63.4089 260.391 63.9609 260.391C64.3464 260.391 64.6979 260.448 65.0156 260.562C65.3385 260.672 65.6172 260.846 65.8516 261.086C66.0911 261.326 66.2734 261.633 66.3984 262.008C66.5286 262.383 66.5938 262.836 66.5938 263.367V269H64.7109V263.531C64.7109 263.12 64.6484 262.797 64.5234 262.562C64.4036 262.328 64.2292 262.161 64 262.062C63.776 261.958 63.5078 261.906 63.1953 261.906C62.8411 261.906 62.5391 261.974 62.2891 262.109C62.0443 262.245 61.8438 262.43 61.6875 262.664C61.5312 262.898 61.4167 263.169 61.3438 263.477C61.2708 263.784 61.2344 264.112 61.2344 264.461ZM66.4766 263.961L65.5938 264.156C65.5938 263.646 65.6641 263.164 65.8047 262.711C65.9505 262.253 66.1615 261.852 66.4375 261.508C66.7188 261.159 67.0651 260.885 67.4766 260.688C67.888 260.49 68.3594 260.391 68.8906 260.391C69.3229 260.391 69.7083 260.451 70.0469 260.57C70.3906 260.685 70.6823 260.867 70.9219 261.117C71.1615 261.367 71.3438 261.693 71.4688 262.094C71.5938 262.49 71.6562 262.969 71.6562 263.531V269H69.7656V263.523C69.7656 263.096 69.7031 262.766 69.5781 262.531C69.4583 262.297 69.2865 262.135 69.0625 262.047C68.8385 261.953 68.5703 261.906 68.2578 261.906C67.9661 261.906 67.7083 261.961 67.4844 262.07C67.2656 262.174 67.0807 262.323 66.9297 262.516C66.7786 262.703 66.6641 262.919 66.5859 263.164C66.513 263.409 66.4766 263.674 66.4766 263.961ZM78.3594 267.305V263.273C78.3594 262.971 78.3047 262.711 78.1953 262.492C78.0859 262.273 77.9193 262.104 77.6953 261.984C77.4766 261.865 77.2005 261.805 76.8672 261.805C76.5599 261.805 76.2943 261.857 76.0703 261.961C75.8464 262.065 75.6719 262.206 75.5469 262.383C75.4219 262.56 75.3594 262.76 75.3594 262.984H73.4844C73.4844 262.651 73.5651 262.328 73.7266 262.016C73.888 261.703 74.1224 261.424 74.4297 261.18C74.737 260.935 75.1042 260.742 75.5312 260.602C75.9583 260.461 76.4375 260.391 76.9688 260.391C77.6042 260.391 78.1667 260.497 78.6562 260.711C79.151 260.924 79.5391 261.247 79.8203 261.68C80.1068 262.107 80.25 262.643 80.25 263.289V267.047C80.25 267.432 80.276 267.779 80.3281 268.086C80.3854 268.388 80.4661 268.651 80.5703 268.875V269H78.6406C78.5521 268.797 78.4818 268.539 78.4297 268.227C78.3828 267.909 78.3594 267.602 78.3594 267.305ZM78.6328 263.859L78.6484 265.023H77.2969C76.9479 265.023 76.6406 265.057 76.375 265.125C76.1094 265.188 75.888 265.281 75.7109 265.406C75.5339 265.531 75.401 265.682 75.3125 265.859C75.224 266.036 75.1797 266.237 75.1797 266.461C75.1797 266.685 75.2318 266.891 75.3359 267.078C75.4401 267.26 75.5911 267.404 75.7891 267.508C75.9922 267.612 76.237 267.664 76.5234 267.664C76.9089 267.664 77.2448 267.586 77.5312 267.43C77.8229 267.268 78.0521 267.073 78.2188 266.844C78.3854 266.609 78.474 266.388 78.4844 266.18L79.0938 267.016C79.0312 267.229 78.9245 267.458 78.7734 267.703C78.6224 267.948 78.4245 268.182 78.1797 268.406C77.9401 268.625 77.651 268.805 77.3125 268.945C76.9792 269.086 76.5938 269.156 76.1562 269.156C75.6042 269.156 75.112 269.047 74.6797 268.828C74.2474 268.604 73.9089 268.305 73.6641 267.93C73.4193 267.549 73.2969 267.12 73.2969 266.641C73.2969 266.193 73.3802 265.797 73.5469 265.453C73.7188 265.104 73.9688 264.812 74.2969 264.578C74.6302 264.344 75.0365 264.167 75.5156 264.047C75.9948 263.922 76.5417 263.859 77.1562 263.859H78.6328ZM84.2344 257V269H82.3438V257H84.2344ZM88.3125 257V269H86.4219V257H88.3125Z" fill="#737373"/>
<path d="M53.4609 153H51.0312L51.0469 151.445H53.4609C54.1641 151.445 54.7526 151.292 55.2266 150.984C55.7057 150.677 56.0651 150.237 56.3047 149.664C56.5495 149.091 56.6719 148.409 56.6719 147.617V147C56.6719 146.385 56.6016 145.841 56.4609 145.367C56.3255 144.893 56.1224 144.495 55.8516 144.172C55.5859 143.849 55.2578 143.604 54.8672 143.438C54.4818 143.271 54.0365 143.188 53.5312 143.188H50.9844V141.625H53.5312C54.2865 141.625 54.9766 141.753 55.6016 142.008C56.2266 142.258 56.7656 142.62 57.2188 143.094C57.6771 143.568 58.0286 144.135 58.2734 144.797C58.5182 145.458 58.6406 146.198 58.6406 147.016V147.617C58.6406 148.435 58.5182 149.174 58.2734 149.836C58.0286 150.497 57.6771 151.065 57.2188 151.539C56.7604 152.008 56.2135 152.37 55.5781 152.625C54.9479 152.875 54.2422 153 53.4609 153ZM52.1172 141.625V153H50.1562V141.625H52.1172ZM64.1484 153.156C63.5234 153.156 62.9583 153.055 62.4531 152.852C61.9531 152.643 61.526 152.354 61.1719 151.984C60.8229 151.615 60.5547 151.18 60.3672 150.68C60.1797 150.18 60.0859 149.641 60.0859 149.062V148.75C60.0859 148.089 60.1823 147.49 60.375 146.953C60.5677 146.417 60.8359 145.958 61.1797 145.578C61.5234 145.193 61.9297 144.898 62.3984 144.695C62.8672 144.492 63.375 144.391 63.9219 144.391C64.526 144.391 65.0547 144.492 65.5078 144.695C65.9609 144.898 66.3359 145.185 66.6328 145.555C66.9349 145.919 67.1589 146.354 67.3047 146.859C67.4557 147.365 67.5312 147.922 67.5312 148.531V149.336H61V147.984H65.6719V147.836C65.6615 147.497 65.5938 147.18 65.4688 146.883C65.349 146.586 65.1641 146.346 64.9141 146.164C64.6641 145.982 64.3307 145.891 63.9141 145.891C63.6016 145.891 63.3229 145.958 63.0781 146.094C62.8385 146.224 62.638 146.414 62.4766 146.664C62.3151 146.914 62.1901 147.216 62.1016 147.57C62.0182 147.919 61.9766 148.312 61.9766 148.75V149.062C61.9766 149.432 62.026 149.776 62.125 150.094C62.2292 150.406 62.3802 150.68 62.5781 150.914C62.776 151.148 63.0156 151.333 63.2969 151.469C63.5781 151.599 63.8984 151.664 64.2578 151.664C64.7109 151.664 65.1146 151.573 65.4688 151.391C65.8229 151.208 66.1302 150.951 66.3906 150.617L67.3828 151.578C67.2005 151.844 66.9635 152.099 66.6719 152.344C66.3802 152.583 66.0234 152.779 65.6016 152.93C65.1849 153.081 64.7005 153.156 64.1484 153.156ZM71.5469 153H69.6641V143.734C69.6641 143.104 69.7812 142.576 70.0156 142.148C70.2552 141.716 70.5964 141.391 71.0391 141.172C71.4818 140.948 72.0052 140.836 72.6094 140.836C72.7969 140.836 72.9818 140.849 73.1641 140.875C73.3464 140.896 73.5234 140.93 73.6953 140.977L73.6484 142.43C73.5443 142.404 73.4297 142.385 73.3047 142.375C73.1849 142.365 73.0547 142.359 72.9141 142.359C72.6276 142.359 72.3802 142.414 72.1719 142.523C71.9688 142.628 71.8125 142.781 71.7031 142.984C71.599 143.188 71.5469 143.438 71.5469 143.734V153ZM73.2891 144.547V145.922H68.3672V144.547H73.2891ZM79.4219 151.305V147.273C79.4219 146.971 79.3672 146.711 79.2578 146.492C79.1484 146.273 78.9818 146.104 78.7578 145.984C78.5391 145.865 78.263 145.805 77.9297 145.805C77.6224 145.805 77.3568 145.857 77.1328 145.961C76.9089 146.065 76.7344 146.206 76.6094 146.383C76.4844 146.56 76.4219 146.76 76.4219 146.984H74.5469C74.5469 146.651 74.6276 146.328 74.7891 146.016C74.9505 145.703 75.1849 145.424 75.4922 145.18C75.7995 144.935 76.1667 144.742 76.5938 144.602C77.0208 144.461 77.5 144.391 78.0312 144.391C78.6667 144.391 79.2292 144.497 79.7188 144.711C80.2135 144.924 80.6016 145.247 80.8828 145.68C81.1693 146.107 81.3125 146.643 81.3125 147.289V151.047C81.3125 151.432 81.3385 151.779 81.3906 152.086C81.4479 152.388 81.5286 152.651 81.6328 152.875V153H79.7031C79.6146 152.797 79.5443 152.539 79.4922 152.227C79.4453 151.909 79.4219 151.602 79.4219 151.305ZM79.6953 147.859L79.7109 149.023H78.3594C78.0104 149.023 77.7031 149.057 77.4375 149.125C77.1719 149.188 76.9505 149.281 76.7734 149.406C76.5964 149.531 76.4635 149.682 76.375 149.859C76.2865 150.036 76.2422 150.237 76.2422 150.461C76.2422 150.685 76.2943 150.891 76.3984 151.078C76.5026 151.26 76.6536 151.404 76.8516 151.508C77.0547 151.612 77.2995 151.664 77.5859 151.664C77.9714 151.664 78.3073 151.586 78.5938 151.43C78.8854 151.268 79.1146 151.073 79.2812 150.844C79.4479 150.609 79.5365 150.388 79.5469 150.18L80.1562 151.016C80.0938 151.229 79.987 151.458 79.8359 151.703C79.6849 151.948 79.487 152.182 79.2422 152.406C79.0026 152.625 78.7135 152.805 78.375 152.945C78.0417 153.086 77.6562 153.156 77.2188 153.156C76.6667 153.156 76.1745 153.047 75.7422 152.828C75.3099 152.604 74.9714 152.305 74.7266 151.93C74.4818 151.549 74.3594 151.12 74.3594 150.641C74.3594 150.193 74.4427 149.797 74.6094 149.453C74.7812 149.104 75.0312 148.812 75.3594 148.578C75.6927 148.344 76.099 148.167 76.5781 148.047C77.0573 147.922 77.6042 147.859 78.2188 147.859H79.6953ZM88.3672 151.008V144.547H90.2578V153H88.4766L88.3672 151.008ZM88.6328 149.25L89.2656 149.234C89.2656 149.802 89.2031 150.326 89.0781 150.805C88.9531 151.279 88.7604 151.693 88.5 152.047C88.2396 152.396 87.9062 152.669 87.5 152.867C87.0938 153.06 86.6068 153.156 86.0391 153.156C85.6276 153.156 85.25 153.096 84.9062 152.977C84.5625 152.857 84.2656 152.672 84.0156 152.422C83.7708 152.172 83.5807 151.846 83.4453 151.445C83.3099 151.044 83.2422 150.565 83.2422 150.008V144.547H85.125V150.023C85.125 150.331 85.1615 150.589 85.2344 150.797C85.3073 151 85.4062 151.164 85.5312 151.289C85.6562 151.414 85.8021 151.503 85.9688 151.555C86.1354 151.607 86.3125 151.633 86.5 151.633C87.0365 151.633 87.4583 151.529 87.7656 151.32C88.0781 151.107 88.2995 150.82 88.4297 150.461C88.5651 150.102 88.6328 149.698 88.6328 149.25ZM94.2031 141V153H92.3125V141H94.2031ZM100.141 144.547V145.922H95.375V144.547H100.141ZM96.75 142.477H98.6328V150.664C98.6328 150.924 98.6693 151.125 98.7422 151.266C98.8203 151.401 98.9271 151.492 99.0625 151.539C99.1979 151.586 99.3568 151.609 99.5391 151.609C99.6693 151.609 99.7943 151.602 99.9141 151.586C100.034 151.57 100.13 151.555 100.203 151.539L100.211 152.977C100.055 153.023 99.8724 153.065 99.6641 153.102C99.4609 153.138 99.2266 153.156 98.9609 153.156C98.5286 153.156 98.1458 153.081 97.8125 152.93C97.4792 152.773 97.2188 152.521 97.0312 152.172C96.8438 151.823 96.75 151.359 96.75 150.781V142.477Z" fill="#737373"/>
<path d="M171.461 57H169.031L169.047 55.4453H171.461C172.164 55.4453 172.753 55.2917 173.227 54.9844C173.706 54.6771 174.065 54.237 174.305 53.6641C174.549 53.0911 174.672 52.4089 174.672 51.6172V51C174.672 50.3854 174.602 49.8411 174.461 49.3672C174.326 48.8932 174.122 48.4948 173.852 48.1719C173.586 47.849 173.258 47.6042 172.867 47.4375C172.482 47.2708 172.036 47.1875 171.531 47.1875H168.984V45.625H171.531C172.286 45.625 172.977 45.7526 173.602 46.0078C174.227 46.2578 174.766 46.6198 175.219 47.0938C175.677 47.5677 176.029 48.1354 176.273 48.7969C176.518 49.4583 176.641 50.1979 176.641 51.0156V51.6172C176.641 52.4349 176.518 53.1745 176.273 53.8359C176.029 54.4974 175.677 55.0651 175.219 55.5391C174.76 56.0078 174.214 56.3698 173.578 56.625C172.948 56.875 172.242 57 171.461 57ZM170.117 45.625V57H168.156V45.625H170.117ZM182.148 57.1562C181.523 57.1562 180.958 57.0547 180.453 56.8516C179.953 56.6432 179.526 56.3542 179.172 55.9844C178.823 55.6146 178.555 55.1797 178.367 54.6797C178.18 54.1797 178.086 53.6406 178.086 53.0625V52.75C178.086 52.0885 178.182 51.4896 178.375 50.9531C178.568 50.4167 178.836 49.9583 179.18 49.5781C179.523 49.1927 179.93 48.8984 180.398 48.6953C180.867 48.4922 181.375 48.3906 181.922 48.3906C182.526 48.3906 183.055 48.4922 183.508 48.6953C183.961 48.8984 184.336 49.1849 184.633 49.5547C184.935 49.9193 185.159 50.3542 185.305 50.8594C185.456 51.3646 185.531 51.9219 185.531 52.5312V53.3359H179V51.9844H183.672V51.8359C183.661 51.4974 183.594 51.1797 183.469 50.8828C183.349 50.5859 183.164 50.3464 182.914 50.1641C182.664 49.9818 182.331 49.8906 181.914 49.8906C181.602 49.8906 181.323 49.9583 181.078 50.0938C180.839 50.224 180.638 50.4141 180.477 50.6641C180.315 50.9141 180.19 51.2161 180.102 51.5703C180.018 51.9193 179.977 52.3125 179.977 52.75V53.0625C179.977 53.4323 180.026 53.776 180.125 54.0938C180.229 54.4062 180.38 54.6797 180.578 54.9141C180.776 55.1484 181.016 55.3333 181.297 55.4688C181.578 55.599 181.898 55.6641 182.258 55.6641C182.711 55.6641 183.115 55.5729 183.469 55.3906C183.823 55.2083 184.13 54.9505 184.391 54.6172L185.383 55.5781C185.201 55.8438 184.964 56.099 184.672 56.3438C184.38 56.5833 184.023 56.7786 183.602 56.9297C183.185 57.0807 182.701 57.1562 182.148 57.1562ZM189.547 57H187.664V47.7344C187.664 47.1042 187.781 46.5755 188.016 46.1484C188.255 45.7161 188.596 45.3906 189.039 45.1719C189.482 44.9479 190.005 44.8359 190.609 44.8359C190.797 44.8359 190.982 44.849 191.164 44.875C191.346 44.8958 191.523 44.9297 191.695 44.9766L191.648 46.4297C191.544 46.4036 191.43 46.3854 191.305 46.375C191.185 46.3646 191.055 46.3594 190.914 46.3594C190.628 46.3594 190.38 46.4141 190.172 46.5234C189.969 46.6276 189.812 46.7812 189.703 46.9844C189.599 47.1875 189.547 47.4375 189.547 47.7344V57ZM191.289 48.5469V49.9219H186.367V48.5469H191.289ZM197.422 55.3047V51.2734C197.422 50.9714 197.367 50.7109 197.258 50.4922C197.148 50.2734 196.982 50.1042 196.758 49.9844C196.539 49.8646 196.263 49.8047 195.93 49.8047C195.622 49.8047 195.357 49.8568 195.133 49.9609C194.909 50.0651 194.734 50.2057 194.609 50.3828C194.484 50.5599 194.422 50.7604 194.422 50.9844H192.547C192.547 50.651 192.628 50.3281 192.789 50.0156C192.951 49.7031 193.185 49.4245 193.492 49.1797C193.799 48.9349 194.167 48.7422 194.594 48.6016C195.021 48.4609 195.5 48.3906 196.031 48.3906C196.667 48.3906 197.229 48.4974 197.719 48.7109C198.214 48.9245 198.602 49.2474 198.883 49.6797C199.169 50.1068 199.312 50.6432 199.312 51.2891V55.0469C199.312 55.4323 199.339 55.7786 199.391 56.0859C199.448 56.388 199.529 56.651 199.633 56.875V57H197.703C197.615 56.7969 197.544 56.5391 197.492 56.2266C197.445 55.9089 197.422 55.6016 197.422 55.3047ZM197.695 51.8594L197.711 53.0234H196.359C196.01 53.0234 195.703 53.0573 195.438 53.125C195.172 53.1875 194.951 53.2812 194.773 53.4062C194.596 53.5312 194.464 53.6823 194.375 53.8594C194.286 54.0365 194.242 54.237 194.242 54.4609C194.242 54.6849 194.294 54.8906 194.398 55.0781C194.503 55.2604 194.654 55.4036 194.852 55.5078C195.055 55.612 195.299 55.6641 195.586 55.6641C195.971 55.6641 196.307 55.5859 196.594 55.4297C196.885 55.2682 197.115 55.0729 197.281 54.8438C197.448 54.6094 197.536 54.388 197.547 54.1797L198.156 55.0156C198.094 55.2292 197.987 55.4583 197.836 55.7031C197.685 55.9479 197.487 56.1823 197.242 56.4062C197.003 56.625 196.714 56.8047 196.375 56.9453C196.042 57.0859 195.656 57.1562 195.219 57.1562C194.667 57.1562 194.174 57.0469 193.742 56.8281C193.31 56.6042 192.971 56.3047 192.727 55.9297C192.482 55.5495 192.359 55.1198 192.359 54.6406C192.359 54.1927 192.443 53.7969 192.609 53.4531C192.781 53.1042 193.031 52.8125 193.359 52.5781C193.693 52.3438 194.099 52.1667 194.578 52.0469C195.057 51.9219 195.604 51.8594 196.219 51.8594H197.695ZM206.367 55.0078V48.5469H208.258V57H206.477L206.367 55.0078ZM206.633 53.25L207.266 53.2344C207.266 53.8021 207.203 54.3255 207.078 54.8047C206.953 55.2786 206.76 55.6927 206.5 56.0469C206.24 56.3958 205.906 56.6693 205.5 56.8672C205.094 57.0599 204.607 57.1562 204.039 57.1562C203.628 57.1562 203.25 57.0964 202.906 56.9766C202.562 56.8568 202.266 56.6719 202.016 56.4219C201.771 56.1719 201.581 55.8464 201.445 55.4453C201.31 55.0443 201.242 54.5651 201.242 54.0078V48.5469H203.125V54.0234C203.125 54.3307 203.161 54.5885 203.234 54.7969C203.307 55 203.406 55.1641 203.531 55.2891C203.656 55.4141 203.802 55.5026 203.969 55.5547C204.135 55.6068 204.312 55.6328 204.5 55.6328C205.036 55.6328 205.458 55.5286 205.766 55.3203C206.078 55.1068 206.299 54.8203 206.43 54.4609C206.565 54.1016 206.633 53.6979 206.633 53.25ZM212.203 45V57H210.312V45H212.203ZM218.141 48.5469V49.9219H213.375V48.5469H218.141ZM214.75 46.4766H216.633V54.6641C216.633 54.9245 216.669 55.125 216.742 55.2656C216.82 55.401 216.927 55.4922 217.062 55.5391C217.198 55.5859 217.357 55.6094 217.539 55.6094C217.669 55.6094 217.794 55.6016 217.914 55.5859C218.034 55.5703 218.13 55.5547 218.203 55.5391L218.211 56.9766C218.055 57.0234 217.872 57.0651 217.664 57.1016C217.461 57.138 217.227 57.1562 216.961 57.1562C216.529 57.1562 216.146 57.0807 215.812 56.9297C215.479 56.7734 215.219 56.5208 215.031 56.1719C214.844 55.8229 214.75 55.3594 214.75 54.7812V46.4766Z" fill="#737373"/>
<path d="M361.672 50.375V51.9297H355.633V50.375H361.672ZM356.117 45.625V57H354.156V45.625H356.117ZM363.18 45.625V57H361.227V45.625H363.18ZM364.969 52.8672V52.6875C364.969 52.0781 365.057 51.513 365.234 50.9922C365.411 50.4661 365.667 50.0104 366 49.625C366.339 49.2344 366.75 48.9323 367.234 48.7188C367.724 48.5 368.276 48.3906 368.891 48.3906C369.51 48.3906 370.062 48.5 370.547 48.7188C371.036 48.9323 371.451 49.2344 371.789 49.625C372.128 50.0104 372.385 50.4661 372.562 50.9922C372.74 51.513 372.828 52.0781 372.828 52.6875V52.8672C372.828 53.4766 372.74 54.0417 372.562 54.5625C372.385 55.0833 372.128 55.5391 371.789 55.9297C371.451 56.3151 371.039 56.6172 370.555 56.8359C370.07 57.0495 369.521 57.1562 368.906 57.1562C368.286 57.1562 367.732 57.0495 367.242 56.8359C366.758 56.6172 366.346 56.3151 366.008 55.9297C365.669 55.5391 365.411 55.0833 365.234 54.5625C365.057 54.0417 364.969 53.4766 364.969 52.8672ZM366.852 52.6875V52.8672C366.852 53.2474 366.891 53.6068 366.969 53.9453C367.047 54.2839 367.169 54.5807 367.336 54.8359C367.503 55.0911 367.716 55.2917 367.977 55.4375C368.237 55.5833 368.547 55.6562 368.906 55.6562C369.255 55.6562 369.557 55.5833 369.812 55.4375C370.073 55.2917 370.286 55.0911 370.453 54.8359C370.62 54.5807 370.742 54.2839 370.82 53.9453C370.904 53.6068 370.945 53.2474 370.945 52.8672V52.6875C370.945 52.3125 370.904 51.9583 370.82 51.625C370.742 51.2865 370.617 50.987 370.445 50.7266C370.279 50.4661 370.065 50.263 369.805 50.1172C369.549 49.9661 369.245 49.8906 368.891 49.8906C368.536 49.8906 368.229 49.9661 367.969 50.1172C367.714 50.263 367.503 50.4661 367.336 50.7266C367.169 50.987 367.047 51.2865 366.969 51.625C366.891 51.9583 366.852 52.3125 366.852 52.6875ZM377.031 55.5078L379.102 48.5469H381.055L378.117 57H376.898L377.031 55.5078ZM375.445 48.5469L377.555 55.5391L377.656 57H376.438L373.484 48.5469H375.445ZM385.836 57.1562C385.211 57.1562 384.646 57.0547 384.141 56.8516C383.641 56.6432 383.214 56.3542 382.859 55.9844C382.51 55.6146 382.242 55.1797 382.055 54.6797C381.867 54.1797 381.773 53.6406 381.773 53.0625V52.75C381.773 52.0885 381.87 51.4896 382.062 50.9531C382.255 50.4167 382.523 49.9583 382.867 49.5781C383.211 49.1927 383.617 48.8984 384.086 48.6953C384.555 48.4922 385.062 48.3906 385.609 48.3906C386.214 48.3906 386.742 48.4922 387.195 48.6953C387.648 48.8984 388.023 49.1849 388.32 49.5547C388.622 49.9193 388.846 50.3542 388.992 50.8594C389.143 51.3646 389.219 51.9219 389.219 52.5312V53.3359H382.688V51.9844H387.359V51.8359C387.349 51.4974 387.281 51.1797 387.156 50.8828C387.036 50.5859 386.852 50.3464 386.602 50.1641C386.352 49.9818 386.018 49.8906 385.602 49.8906C385.289 49.8906 385.01 49.9583 384.766 50.0938C384.526 50.224 384.326 50.4141 384.164 50.6641C384.003 50.9141 383.878 51.2161 383.789 51.5703C383.706 51.9193 383.664 52.3125 383.664 52.75V53.0625C383.664 53.4323 383.714 53.776 383.812 54.0938C383.917 54.4062 384.068 54.6797 384.266 54.9141C384.464 55.1484 384.703 55.3333 384.984 55.4688C385.266 55.599 385.586 55.6641 385.945 55.6641C386.398 55.6641 386.802 55.5729 387.156 55.3906C387.51 55.2083 387.818 54.9505 388.078 54.6172L389.07 55.5781C388.888 55.8438 388.651 56.099 388.359 56.3438C388.068 56.5833 387.711 56.7786 387.289 56.9297C386.872 57.0807 386.388 57.1562 385.836 57.1562ZM392.578 50.1562V57H390.695V48.5469H392.492L392.578 50.1562ZM395.164 48.4922L395.148 50.2422C395.034 50.2214 394.909 50.2057 394.773 50.1953C394.643 50.1849 394.513 50.1797 394.383 50.1797C394.06 50.1797 393.776 50.2266 393.531 50.3203C393.286 50.4089 393.081 50.5391 392.914 50.7109C392.753 50.8776 392.628 51.0807 392.539 51.3203C392.451 51.5599 392.398 51.8281 392.383 52.125L391.953 52.1562C391.953 51.625 392.005 51.1328 392.109 50.6797C392.214 50.2266 392.37 49.8281 392.578 49.4844C392.792 49.1406 393.057 48.8724 393.375 48.6797C393.698 48.487 394.07 48.3906 394.492 48.3906C394.607 48.3906 394.729 48.401 394.859 48.4219C394.995 48.4427 395.096 48.4661 395.164 48.4922Z" fill="#737373"/>
<path d="M712.25 45.625V57H710.289V45.625H712.25ZM716.367 50.3516V57H714.484V48.5469H716.258L716.367 50.3516ZM716.031 52.4609L715.422 52.4531C715.427 51.8542 715.51 51.3047 715.672 50.8047C715.839 50.3047 716.068 49.875 716.359 49.5156C716.656 49.1562 717.01 48.8802 717.422 48.6875C717.833 48.4896 718.292 48.3906 718.797 48.3906C719.203 48.3906 719.57 48.4479 719.898 48.5625C720.232 48.6719 720.516 48.8516 720.75 49.1016C720.99 49.3516 721.172 49.6771 721.297 50.0781C721.422 50.474 721.484 50.9609 721.484 51.5391V57H719.594V51.5312C719.594 51.125 719.534 50.8047 719.414 50.5703C719.299 50.3307 719.13 50.1615 718.906 50.0625C718.688 49.9583 718.414 49.9062 718.086 49.9062C717.763 49.9062 717.474 49.974 717.219 50.1094C716.964 50.2448 716.747 50.4297 716.57 50.6641C716.398 50.8984 716.266 51.1693 716.172 51.4766C716.078 51.7839 716.031 52.112 716.031 52.4609ZM728.172 55.3047V51.2734C728.172 50.9714 728.117 50.7109 728.008 50.4922C727.898 50.2734 727.732 50.1042 727.508 49.9844C727.289 49.8646 727.013 49.8047 726.68 49.8047C726.372 49.8047 726.107 49.8568 725.883 49.9609C725.659 50.0651 725.484 50.2057 725.359 50.3828C725.234 50.5599 725.172 50.7604 725.172 50.9844H723.297C723.297 50.651 723.378 50.3281 723.539 50.0156C723.701 49.7031 723.935 49.4245 724.242 49.1797C724.549 48.9349 724.917 48.7422 725.344 48.6016C725.771 48.4609 726.25 48.3906 726.781 48.3906C727.417 48.3906 727.979 48.4974 728.469 48.7109C728.964 48.9245 729.352 49.2474 729.633 49.6797C729.919 50.1068 730.062 50.6432 730.062 51.2891V55.0469C730.062 55.4323 730.089 55.7786 730.141 56.0859C730.198 56.388 730.279 56.651 730.383 56.875V57H728.453C728.365 56.7969 728.294 56.5391 728.242 56.2266C728.195 55.9089 728.172 55.6016 728.172 55.3047ZM728.445 51.8594L728.461 53.0234H727.109C726.76 53.0234 726.453 53.0573 726.188 53.125C725.922 53.1875 725.701 53.2812 725.523 53.4062C725.346 53.5312 725.214 53.6823 725.125 53.8594C725.036 54.0365 724.992 54.237 724.992 54.4609C724.992 54.6849 725.044 54.8906 725.148 55.0781C725.253 55.2604 725.404 55.4036 725.602 55.5078C725.805 55.612 726.049 55.6641 726.336 55.6641C726.721 55.6641 727.057 55.5859 727.344 55.4297C727.635 55.2682 727.865 55.0729 728.031 54.8438C728.198 54.6094 728.286 54.388 728.297 54.1797L728.906 55.0156C728.844 55.2292 728.737 55.4583 728.586 55.7031C728.435 55.9479 728.237 56.1823 727.992 56.4062C727.753 56.625 727.464 56.8047 727.125 56.9453C726.792 57.0859 726.406 57.1562 725.969 57.1562C725.417 57.1562 724.924 57.0469 724.492 56.8281C724.06 56.6042 723.721 56.3047 723.477 55.9297C723.232 55.5495 723.109 55.1198 723.109 54.6406C723.109 54.1927 723.193 53.7969 723.359 53.4531C723.531 53.1042 723.781 52.8125 724.109 52.5781C724.443 52.3438 724.849 52.1667 725.328 52.0469C725.807 51.9219 726.354 51.8594 726.969 51.8594H728.445ZM735.484 55.6562C735.792 55.6562 736.068 55.5964 736.312 55.4766C736.562 55.3516 736.763 55.1797 736.914 54.9609C737.07 54.7422 737.156 54.4896 737.172 54.2031H738.945C738.935 54.75 738.773 55.2474 738.461 55.6953C738.148 56.1432 737.734 56.5 737.219 56.7656C736.703 57.026 736.133 57.1562 735.508 57.1562C734.862 57.1562 734.299 57.0469 733.82 56.8281C733.341 56.6042 732.943 56.2969 732.625 55.9062C732.307 55.5156 732.068 55.0651 731.906 54.5547C731.75 54.0443 731.672 53.4974 731.672 52.9141V52.6406C731.672 52.0573 731.75 51.5104 731.906 51C732.068 50.4844 732.307 50.0312 732.625 49.6406C732.943 49.25 733.341 48.9453 733.82 48.7266C734.299 48.5026 734.859 48.3906 735.5 48.3906C736.177 48.3906 736.771 48.526 737.281 48.7969C737.792 49.0625 738.193 49.4349 738.484 49.9141C738.781 50.388 738.935 50.9401 738.945 51.5703H737.172C737.156 51.2578 737.078 50.9766 736.938 50.7266C736.802 50.4714 736.609 50.2682 736.359 50.1172C736.115 49.9661 735.82 49.8906 735.477 49.8906C735.096 49.8906 734.781 49.9688 734.531 50.125C734.281 50.276 734.086 50.4844 733.945 50.75C733.805 51.0104 733.703 51.3047 733.641 51.6328C733.583 51.9557 733.555 52.2917 733.555 52.6406V52.9141C733.555 53.263 733.583 53.6016 733.641 53.9297C733.698 54.2578 733.797 54.5521 733.938 54.8125C734.083 55.0677 734.281 55.2734 734.531 55.4297C734.781 55.5807 735.099 55.6562 735.484 55.6562ZM744.266 48.5469V49.9219H739.5V48.5469H744.266ZM740.875 46.4766H742.758V54.6641C742.758 54.9245 742.794 55.125 742.867 55.2656C742.945 55.401 743.052 55.4922 743.188 55.5391C743.323 55.5859 743.482 55.6094 743.664 55.6094C743.794 55.6094 743.919 55.6016 744.039 55.5859C744.159 55.5703 744.255 55.5547 744.328 55.5391L744.336 56.9766C744.18 57.0234 743.997 57.0651 743.789 57.1016C743.586 57.138 743.352 57.1562 743.086 57.1562C742.654 57.1562 742.271 57.0807 741.938 56.9297C741.604 56.7734 741.344 56.5208 741.156 56.1719C740.969 55.8229 740.875 55.3594 740.875 54.7812V46.4766ZM747.734 48.5469V57H745.844V48.5469H747.734ZM745.719 46.3281C745.719 46.0417 745.812 45.8047 746 45.6172C746.193 45.4245 746.458 45.3281 746.797 45.3281C747.13 45.3281 747.393 45.4245 747.586 45.6172C747.779 45.8047 747.875 46.0417 747.875 46.3281C747.875 46.6094 747.779 46.8438 747.586 47.0312C747.393 47.2188 747.13 47.3125 746.797 47.3125C746.458 47.3125 746.193 47.2188 746 47.0312C745.812 46.8438 745.719 46.6094 745.719 46.3281ZM752.547 55.5078L754.617 48.5469H756.57L753.633 57H752.414L752.547 55.5078ZM750.961 48.5469L753.07 55.5391L753.172 57H751.953L749 48.5469H750.961ZM761.352 57.1562C760.727 57.1562 760.161 57.0547 759.656 56.8516C759.156 56.6432 758.729 56.3542 758.375 55.9844C758.026 55.6146 757.758 55.1797 757.57 54.6797C757.383 54.1797 757.289 53.6406 757.289 53.0625V52.75C757.289 52.0885 757.385 51.4896 757.578 50.9531C757.771 50.4167 758.039 49.9583 758.383 49.5781C758.727 49.1927 759.133 48.8984 759.602 48.6953C760.07 48.4922 760.578 48.3906 761.125 48.3906C761.729 48.3906 762.258 48.4922 762.711 48.6953C763.164 48.8984 763.539 49.1849 763.836 49.5547C764.138 49.9193 764.362 50.3542 764.508 50.8594C764.659 51.3646 764.734 51.9219 764.734 52.5312V53.3359H758.203V51.9844H762.875V51.8359C762.865 51.4974 762.797 51.1797 762.672 50.8828C762.552 50.5859 762.367 50.3464 762.117 50.1641C761.867 49.9818 761.534 49.8906 761.117 49.8906C760.805 49.8906 760.526 49.9583 760.281 50.0938C760.042 50.224 759.841 50.4141 759.68 50.6641C759.518 50.9141 759.393 51.2161 759.305 51.5703C759.221 51.9193 759.18 52.3125 759.18 52.75V53.0625C759.18 53.4323 759.229 53.776 759.328 54.0938C759.432 54.4062 759.583 54.6797 759.781 54.9141C759.979 55.1484 760.219 55.3333 760.5 55.4688C760.781 55.599 761.102 55.6641 761.461 55.6641C761.914 55.6641 762.318 55.5729 762.672 55.3906C763.026 55.2083 763.333 54.9505 763.594 54.6172L764.586 55.5781C764.404 55.8438 764.167 56.099 763.875 56.3438C763.583 56.5833 763.227 56.7786 762.805 56.9297C762.388 57.0807 761.904 57.1562 761.352 57.1562Z" fill="#737373"/>
<g filter="url(#filter0_ddd_3378_49321)">
<rect x="127" y="84" width="728" height="224" rx="4" fill="white"/>
</g>
<mask id="path-9-inside-1_3378_49321" fill="white">
<path d="M530 228H624V284H530V228Z"/>
</mask>
<path d="M530 228H624V284H530V228Z" fill="white" fill-opacity="0.01"/>
<path d="M624 280H530V288H624V280Z" fill="#0059FF" mask="url(#path-9-inside-1_3378_49321)"/>
<path d="M551.276 256C551.276 254.526 552.471 253.375 554 253.375C555.504 253.375 556.724 254.526 556.724 256C556.724 257.449 555.504 258.625 554 258.625C552.471 258.625 551.276 257.449 551.276 256ZM554 254.688C553.248 254.688 552.638 255.275 552.638 256C552.638 256.725 553.248 257.312 554 257.312C554.752 257.312 555.362 256.725 555.362 256C555.362 255.275 554.752 254.688 554 254.688ZM555.053 249C555.683 249 556.231 249.415 556.378 250.005L556.6 250.892C556.841 251.006 557.071 251.135 557.289 251.277L558.2 251.019C558.804 250.847 559.451 251.096 559.766 251.621L560.819 253.378C561.131 253.903 561.032 254.567 560.578 254.986L559.888 255.593C559.897 255.743 559.903 255.871 559.903 256C559.903 256.129 559.897 256.257 559.888 256.383L560.578 257.014C561.032 257.433 561.131 258.097 560.819 258.622L559.766 260.378C559.451 260.903 558.804 261.152 558.2 260.982L557.289 260.722C557.071 260.864 556.841 260.993 556.6 261.108L556.378 261.996C556.231 262.584 555.683 263 555.053 263H552.947C552.317 263 551.77 262.584 551.622 261.996L551.401 261.108C551.16 260.993 550.93 260.864 550.711 260.722L549.775 260.982C549.197 261.152 548.55 260.903 548.235 260.378L547.183 258.622C546.868 258.097 546.967 257.433 547.423 257.014L548.111 256.383C548.102 256.257 548.098 256.129 548.098 255.975C548.098 255.871 548.102 255.743 548.111 255.593L547.423 254.986C546.967 254.567 546.868 253.903 547.183 253.378L548.235 251.621C548.55 251.096 549.197 250.847 549.775 251.019L550.711 251.277C550.93 251.135 551.16 251.006 551.401 250.892L551.622 250.005C551.77 249.415 552.317 249 552.947 249L555.053 249ZM552.567 251.833L552.249 251.961C551.889 252.106 551.554 252.295 551.25 252.519L550.975 252.721L549.415 252.279L548.362 254.034L549.54 255.114L549.496 255.442C549.472 255.625 549.46 255.811 549.46 256C549.46 256.189 549.472 256.375 549.496 256.558L549.54 256.886L548.362 257.966L549.415 259.721L550.975 259.279L551.25 259.481C551.554 259.705 551.889 259.894 552.249 260.039L552.567 260.167L552.947 261.688H555.053L555.433 260.167L555.751 260.039C556.111 259.894 556.446 259.705 556.75 259.481L557.025 259.279L558.586 259.721L559.639 257.966L558.461 256.886L558.504 256.558C558.529 256.375 558.541 256.189 558.541 256C558.541 255.811 558.529 255.625 558.504 255.442L558.461 255.114L559.639 254.034L558.586 252.279L557.025 252.721L556.75 252.519C556.446 252.295 556.111 252.106 555.751 251.961L555.433 251.833L555.053 250.312H552.947L552.567 251.833Z" fill="#0059FF"/>
<path d="M571.237 251.757L568.051 261H566.125L570.138 250.336H571.369L571.237 251.757ZM573.903 261L570.709 251.757L570.57 250.336H571.808L575.836 261H573.903ZM573.749 257.045V258.502H567.948V257.045H573.749ZM580.092 259.74C580.38 259.74 580.639 259.684 580.868 259.572C581.103 259.455 581.291 259.293 581.432 259.088C581.579 258.883 581.659 258.646 581.674 258.378H583.336C583.327 258.891 583.175 259.357 582.882 259.777C582.589 260.197 582.201 260.531 581.718 260.78C581.234 261.024 580.7 261.146 580.114 261.146C579.508 261.146 578.981 261.044 578.532 260.839C578.083 260.629 577.709 260.341 577.411 259.975C577.113 259.608 576.889 259.186 576.737 258.708C576.591 258.229 576.518 257.716 576.518 257.169V256.913C576.518 256.366 576.591 255.854 576.737 255.375C576.889 254.892 577.113 254.467 577.411 254.101C577.709 253.734 578.083 253.449 578.532 253.244C578.981 253.034 579.506 252.929 580.106 252.929C580.741 252.929 581.298 253.056 581.776 253.31C582.255 253.559 582.631 253.908 582.904 254.357C583.183 254.801 583.327 255.319 583.336 255.91H581.674C581.659 255.617 581.586 255.353 581.454 255.119C581.327 254.879 581.146 254.689 580.912 254.547C580.683 254.406 580.407 254.335 580.084 254.335C579.728 254.335 579.433 254.408 579.198 254.555C578.964 254.696 578.781 254.892 578.649 255.141C578.517 255.385 578.422 255.661 578.363 255.968C578.31 256.271 578.283 256.586 578.283 256.913V257.169C578.283 257.497 578.31 257.814 578.363 258.122C578.417 258.429 578.51 258.705 578.642 258.949C578.778 259.188 578.964 259.381 579.198 259.528C579.433 259.669 579.73 259.74 580.092 259.74ZM588.324 253.075V254.364H583.856V253.075H588.324ZM585.146 251.134H586.911V258.81C586.911 259.054 586.945 259.242 587.013 259.374C587.086 259.501 587.187 259.586 587.313 259.63C587.44 259.674 587.589 259.696 587.76 259.696C587.882 259.696 588 259.689 588.112 259.674C588.224 259.66 588.314 259.645 588.383 259.63L588.39 260.978C588.244 261.022 588.073 261.061 587.877 261.095C587.687 261.129 587.467 261.146 587.218 261.146C586.813 261.146 586.454 261.076 586.142 260.934C585.829 260.788 585.585 260.551 585.409 260.224C585.233 259.896 585.146 259.462 585.146 258.92V251.134ZM591.576 253.075V261H589.804V253.075H591.576ZM589.687 250.995C589.687 250.727 589.774 250.504 589.95 250.329C590.131 250.148 590.38 250.058 590.697 250.058C591.01 250.058 591.256 250.148 591.437 250.329C591.618 250.504 591.708 250.727 591.708 250.995C591.708 251.259 591.618 251.479 591.437 251.654C591.256 251.83 591.01 251.918 590.697 251.918C590.38 251.918 590.131 251.83 589.95 251.654C589.774 251.479 589.687 251.259 589.687 250.995ZM596.088 259.601L598.029 253.075H599.86L597.106 261H595.963L596.088 259.601ZM594.601 253.075L596.579 259.63L596.674 261H595.531L592.763 253.075H594.601ZM604.342 261.146C603.756 261.146 603.227 261.051 602.753 260.861C602.284 260.666 601.884 260.395 601.552 260.048C601.225 259.701 600.973 259.293 600.797 258.825C600.622 258.356 600.534 257.851 600.534 257.309V257.016C600.534 256.396 600.624 255.834 600.805 255.331C600.985 254.828 601.237 254.398 601.559 254.042C601.881 253.681 602.262 253.405 602.702 253.214C603.141 253.024 603.617 252.929 604.13 252.929C604.696 252.929 605.192 253.024 605.617 253.214C606.042 253.405 606.393 253.673 606.671 254.02C606.955 254.362 607.165 254.77 607.301 255.243C607.443 255.717 607.514 256.239 607.514 256.811V257.565H601.391V256.298H605.771V256.159C605.761 255.841 605.697 255.543 605.58 255.265C605.468 254.987 605.294 254.762 605.06 254.591C604.826 254.42 604.513 254.335 604.123 254.335C603.83 254.335 603.568 254.398 603.339 254.525C603.114 254.647 602.926 254.826 602.775 255.06C602.624 255.294 602.506 255.578 602.423 255.91C602.345 256.237 602.306 256.605 602.306 257.016V257.309C602.306 257.655 602.353 257.978 602.445 258.275C602.543 258.568 602.685 258.825 602.87 259.044C603.056 259.264 603.28 259.438 603.544 259.564C603.808 259.687 604.108 259.748 604.445 259.748C604.87 259.748 605.248 259.662 605.58 259.491C605.912 259.32 606.2 259.079 606.444 258.766L607.375 259.667C607.204 259.916 606.981 260.155 606.708 260.385C606.435 260.609 606.1 260.792 605.705 260.934C605.314 261.076 604.86 261.146 604.342 261.146Z" fill="#0059FF"/>
<rect width="101" height="56" transform="translate(167 228)" fill="white" fill-opacity="0.01"/>
<path d="M188.276 256C188.276 254.526 189.471 253.375 191 253.375C192.504 253.375 193.724 254.526 193.724 256C193.724 257.449 192.504 258.625 191 258.625C189.471 258.625 188.276 257.449 188.276 256ZM191 254.688C190.248 254.688 189.638 255.275 189.638 256C189.638 256.725 190.248 257.312 191 257.312C191.752 257.312 192.362 256.725 192.362 256C192.362 255.275 191.752 254.688 191 254.688ZM192.053 249C192.683 249 193.231 249.415 193.378 250.005L193.6 250.892C193.841 251.006 194.071 251.135 194.289 251.277L195.2 251.019C195.804 250.847 196.451 251.096 196.766 251.621L197.819 253.378C198.131 253.903 198.032 254.567 197.578 254.986L196.888 255.593C196.897 255.743 196.903 255.871 196.903 256C196.903 256.129 196.897 256.257 196.888 256.383L197.578 257.014C198.032 257.433 198.131 258.097 197.819 258.622L196.766 260.378C196.451 260.903 195.804 261.152 195.2 260.982L194.289 260.722C194.071 260.864 193.841 260.993 193.6 261.108L193.378 261.996C193.231 262.584 192.683 263 192.053 263H189.947C189.317 263 188.77 262.584 188.622 261.996L188.401 261.108C188.16 260.993 187.93 260.864 187.711 260.722L186.775 260.982C186.197 261.152 185.55 260.903 185.235 260.378L184.183 258.622C183.868 258.097 183.967 257.433 184.423 257.014L185.111 256.383C185.102 256.257 185.098 256.129 185.098 255.975C185.098 255.871 185.102 255.743 185.111 255.593L184.423 254.986C183.967 254.567 183.868 253.903 184.183 253.378L185.235 251.621C185.55 251.096 186.197 250.847 186.775 251.019L187.711 251.277C187.93 251.135 188.16 251.006 188.401 250.892L188.622 250.005C188.77 249.415 189.317 249 189.947 249L192.053 249ZM189.567 251.833L189.249 251.961C188.889 252.106 188.554 252.295 188.25 252.519L187.975 252.721L186.415 252.279L185.362 254.034L186.54 255.114L186.496 255.442C186.472 255.625 186.46 255.811 186.46 256C186.46 256.189 186.472 256.375 186.496 256.558L186.54 256.886L185.362 257.966L186.415 259.721L187.975 259.279L188.25 259.481C188.554 259.705 188.889 259.894 189.249 260.039L189.567 260.167L189.947 261.688H192.053L192.433 260.167L192.751 260.039C193.111 259.894 193.446 259.705 193.75 259.481L194.025 259.279L195.586 259.721L196.639 257.966L195.461 256.886L195.504 256.558C195.529 256.375 195.541 256.189 195.541 256C195.541 255.811 195.529 255.625 195.504 255.442L195.461 255.114L196.639 254.034L195.586 252.279L194.025 252.721L193.75 252.519C193.446 252.295 193.111 252.106 192.751 251.961L192.433 251.833L192.053 250.312H189.947L189.567 251.833Z" fill="#505050"/>
<path d="M207.182 261H204.904L204.919 259.542H207.182C207.841 259.542 208.393 259.398 208.837 259.11C209.287 258.822 209.624 258.41 209.848 257.873C210.078 257.335 210.192 256.696 210.192 255.954V255.375C210.192 254.799 210.126 254.289 209.995 253.844C209.868 253.4 209.677 253.026 209.423 252.724C209.174 252.421 208.867 252.191 208.5 252.035C208.139 251.879 207.722 251.801 207.248 251.801H204.86V250.336H207.248C207.956 250.336 208.603 250.456 209.189 250.695C209.775 250.929 210.28 251.269 210.705 251.713C211.135 252.157 211.464 252.689 211.694 253.31C211.923 253.93 212.038 254.623 212.038 255.39V255.954C212.038 256.72 211.923 257.414 211.694 258.034C211.464 258.654 211.135 259.186 210.705 259.63C210.275 260.07 209.763 260.409 209.167 260.648C208.576 260.883 207.915 261 207.182 261ZM205.922 250.336V261H204.084V250.336H205.922ZM217.202 261.146C216.616 261.146 216.086 261.051 215.612 260.861C215.144 260.666 214.743 260.395 214.411 260.048C214.084 259.701 213.833 259.293 213.657 258.825C213.481 258.356 213.393 257.851 213.393 257.309V257.016C213.393 256.396 213.483 255.834 213.664 255.331C213.845 254.828 214.096 254.398 214.418 254.042C214.741 253.681 215.122 253.405 215.561 253.214C216 253.024 216.477 252.929 216.989 252.929C217.556 252.929 218.051 253.024 218.476 253.214C218.901 253.405 219.252 253.673 219.531 254.02C219.814 254.362 220.024 254.77 220.161 255.243C220.302 255.717 220.373 256.239 220.373 256.811V257.565H214.25V256.298H218.63V256.159C218.62 255.841 218.557 255.543 218.439 255.265C218.327 254.987 218.154 254.762 217.919 254.591C217.685 254.42 217.373 254.335 216.982 254.335C216.689 254.335 216.428 254.398 216.198 254.525C215.974 254.647 215.786 254.826 215.634 255.06C215.483 255.294 215.366 255.578 215.283 255.91C215.205 256.237 215.166 256.605 215.166 257.016V257.309C215.166 257.655 215.212 257.978 215.305 258.275C215.402 258.568 215.544 258.825 215.729 259.044C215.915 259.264 216.14 259.438 216.403 259.564C216.667 259.687 216.967 259.748 217.304 259.748C217.729 259.748 218.107 259.662 218.439 259.491C218.771 259.32 219.06 259.079 219.304 258.766L220.234 259.667C220.063 259.916 219.841 260.155 219.567 260.385C219.294 260.609 218.959 260.792 218.564 260.934C218.173 261.076 217.719 261.146 217.202 261.146ZM224.138 261H222.373V252.313C222.373 251.723 222.482 251.227 222.702 250.827C222.927 250.421 223.247 250.116 223.662 249.911C224.077 249.701 224.567 249.596 225.134 249.596C225.31 249.596 225.483 249.608 225.654 249.633C225.825 249.652 225.991 249.684 226.152 249.728L226.108 251.09C226.01 251.066 225.903 251.049 225.786 251.039C225.673 251.029 225.551 251.024 225.419 251.024C225.151 251.024 224.919 251.076 224.724 251.178C224.533 251.276 224.387 251.42 224.284 251.61C224.187 251.801 224.138 252.035 224.138 252.313V261ZM225.771 253.075V254.364H221.157V253.075H225.771ZM231.521 259.411V255.631C231.521 255.348 231.469 255.104 231.367 254.899C231.264 254.694 231.108 254.535 230.898 254.423C230.693 254.311 230.434 254.254 230.122 254.254C229.833 254.254 229.584 254.303 229.375 254.401C229.165 254.499 229.001 254.63 228.884 254.796C228.767 254.962 228.708 255.15 228.708 255.36H226.95C226.95 255.048 227.026 254.745 227.177 254.452C227.329 254.159 227.548 253.898 227.836 253.668C228.125 253.439 228.469 253.258 228.869 253.126C229.27 252.995 229.719 252.929 230.217 252.929C230.812 252.929 231.34 253.029 231.799 253.229C232.263 253.429 232.626 253.732 232.89 254.137C233.159 254.538 233.293 255.041 233.293 255.646V259.169C233.293 259.53 233.317 259.855 233.366 260.143C233.42 260.426 233.496 260.673 233.593 260.883V261H231.784C231.701 260.81 231.635 260.568 231.586 260.275C231.542 259.977 231.521 259.689 231.521 259.411ZM231.777 256.181L231.792 257.272H230.524C230.197 257.272 229.909 257.304 229.66 257.367C229.411 257.426 229.204 257.514 229.038 257.631C228.872 257.748 228.747 257.89 228.664 258.056C228.581 258.222 228.54 258.41 228.54 258.62C228.54 258.83 228.588 259.022 228.686 259.198C228.784 259.369 228.925 259.503 229.111 259.601C229.301 259.699 229.531 259.748 229.799 259.748C230.161 259.748 230.476 259.674 230.744 259.528C231.018 259.376 231.232 259.193 231.389 258.979C231.545 258.759 231.628 258.551 231.638 258.356L232.209 259.14C232.15 259.34 232.05 259.555 231.909 259.784C231.767 260.014 231.582 260.233 231.352 260.443C231.127 260.648 230.856 260.817 230.539 260.949C230.227 261.081 229.865 261.146 229.455 261.146C228.938 261.146 228.476 261.044 228.071 260.839C227.666 260.629 227.348 260.348 227.119 259.997C226.889 259.64 226.774 259.237 226.774 258.788C226.774 258.368 226.853 257.997 227.009 257.675C227.17 257.348 227.404 257.074 227.712 256.854C228.024 256.635 228.405 256.469 228.854 256.356C229.304 256.239 229.816 256.181 230.393 256.181H231.777ZM239.907 259.132V253.075H241.679V261H240.009L239.907 259.132ZM240.156 257.484L240.749 257.47C240.749 258.002 240.69 258.493 240.573 258.942C240.456 259.386 240.275 259.774 240.031 260.106C239.787 260.434 239.475 260.69 239.094 260.875C238.713 261.056 238.256 261.146 237.724 261.146C237.338 261.146 236.984 261.09 236.662 260.978C236.34 260.866 236.062 260.692 235.827 260.458C235.598 260.224 235.419 259.918 235.292 259.542C235.166 259.167 235.102 258.717 235.102 258.195V253.075H236.867V258.209C236.867 258.498 236.901 258.739 236.97 258.935C237.038 259.125 237.131 259.279 237.248 259.396C237.365 259.513 237.502 259.596 237.658 259.645C237.814 259.694 237.98 259.718 238.156 259.718C238.659 259.718 239.055 259.621 239.343 259.425C239.636 259.225 239.843 258.957 239.965 258.62C240.092 258.283 240.156 257.904 240.156 257.484ZM245.378 249.75V261H243.605V249.75H245.378ZM250.944 253.075V254.364H246.477V253.075H250.944ZM247.766 251.134H249.531V258.81C249.531 259.054 249.565 259.242 249.633 259.374C249.707 259.501 249.807 259.586 249.934 259.63C250.061 259.674 250.209 259.696 250.38 259.696C250.502 259.696 250.62 259.689 250.732 259.674C250.844 259.66 250.935 259.645 251.003 259.63L251.01 260.978C250.864 261.022 250.693 261.061 250.498 261.095C250.307 261.129 250.087 261.146 249.838 261.146C249.433 261.146 249.074 261.076 248.762 260.934C248.449 260.788 248.205 260.551 248.029 260.224C247.854 259.896 247.766 259.462 247.766 258.92V251.134Z" fill="#505050"/>
<rect width="105" height="56" transform="translate(709 228)" fill="#F8F8F8" fill-opacity="0.01"/>
<path d="M730.276 256C730.276 254.526 731.471 253.375 733 253.375C734.504 253.375 735.724 254.526 735.724 256C735.724 257.449 734.504 258.625 733 258.625C731.471 258.625 730.276 257.449 730.276 256ZM733 254.688C732.248 254.688 731.638 255.275 731.638 256C731.638 256.725 732.248 257.312 733 257.312C733.752 257.312 734.362 256.725 734.362 256C734.362 255.275 733.752 254.688 733 254.688ZM734.053 249C734.683 249 735.231 249.415 735.378 250.005L735.6 250.892C735.841 251.006 736.071 251.135 736.289 251.277L737.2 251.019C737.804 250.847 738.451 251.096 738.766 251.621L739.819 253.378C740.131 253.903 740.032 254.567 739.578 254.986L738.888 255.593C738.897 255.743 738.903 255.871 738.903 256C738.903 256.129 738.897 256.257 738.888 256.383L739.578 257.014C740.032 257.433 740.131 258.097 739.819 258.622L738.766 260.378C738.451 260.903 737.804 261.152 737.2 260.982L736.289 260.722C736.071 260.864 735.841 260.993 735.6 261.108L735.378 261.996C735.231 262.584 734.683 263 734.053 263H731.947C731.317 263 730.77 262.584 730.622 261.996L730.401 261.108C730.16 260.993 729.93 260.864 729.711 260.722L728.775 260.982C728.197 261.152 727.55 260.903 727.235 260.378L726.183 258.622C725.868 258.097 725.967 257.433 726.423 257.014L727.111 256.383C727.102 256.257 727.098 256.129 727.098 255.975C727.098 255.871 727.102 255.743 727.111 255.593L726.423 254.986C725.967 254.567 725.868 253.903 726.183 253.378L727.235 251.621C727.55 251.096 728.197 250.847 728.775 251.019L729.711 251.277C729.93 251.135 730.16 251.006 730.401 250.892L730.622 250.005C730.77 249.415 731.317 249 731.947 249L734.053 249ZM731.567 251.833L731.249 251.961C730.889 252.106 730.554 252.295 730.25 252.519L729.975 252.721L728.415 252.279L727.362 254.034L728.54 255.114L728.496 255.442C728.472 255.625 728.46 255.811 728.46 256C728.46 256.189 728.472 256.375 728.496 256.558L728.54 256.886L727.362 257.966L728.415 259.721L729.975 259.279L730.25 259.481C730.554 259.705 730.889 259.894 731.249 260.039L731.567 260.167L731.947 261.688H734.053L734.433 260.167L734.751 260.039C735.111 259.894 735.446 259.705 735.75 259.481L736.025 259.279L737.586 259.721L738.639 257.966L737.461 256.886L737.504 256.558C737.529 256.375 737.541 256.189 737.541 256C737.541 255.811 737.529 255.625 737.504 255.442L737.461 255.114L738.639 254.034L737.586 252.279L736.025 252.721L735.75 252.519C735.446 252.295 735.111 252.106 734.751 251.961L734.433 251.833L734.053 250.312H731.947L731.567 251.833Z" fill="#AAAAAA"/>
<path d="M748.047 250.336V261H746.208V250.336H748.047ZM751.907 254.767V261H750.142V253.075H751.804L751.907 254.767ZM751.592 256.745L751.021 256.737C751.025 256.176 751.104 255.661 751.255 255.192C751.411 254.723 751.626 254.32 751.899 253.983C752.178 253.646 752.51 253.388 752.896 253.207C753.281 253.021 753.711 252.929 754.185 252.929C754.565 252.929 754.91 252.982 755.217 253.09C755.53 253.192 755.796 253.361 756.016 253.595C756.24 253.83 756.411 254.135 756.528 254.511C756.646 254.882 756.704 255.338 756.704 255.88V261H754.932V255.873C754.932 255.492 754.875 255.192 754.763 254.972C754.656 254.748 754.497 254.589 754.287 254.496C754.082 254.398 753.826 254.35 753.518 254.35C753.215 254.35 752.944 254.413 752.705 254.54C752.466 254.667 752.263 254.84 752.097 255.06C751.936 255.28 751.812 255.534 751.724 255.822C751.636 256.11 751.592 256.417 751.592 256.745ZM762.974 259.411V255.631C762.974 255.348 762.922 255.104 762.82 254.899C762.717 254.694 762.561 254.535 762.351 254.423C762.146 254.311 761.887 254.254 761.575 254.254C761.287 254.254 761.038 254.303 760.828 254.401C760.618 254.499 760.454 254.63 760.337 254.796C760.22 254.962 760.161 255.15 760.161 255.36H758.403C758.403 255.048 758.479 254.745 758.63 254.452C758.782 254.159 759.001 253.898 759.29 253.668C759.578 253.439 759.922 253.258 760.322 253.126C760.723 252.995 761.172 252.929 761.67 252.929C762.266 252.929 762.793 253.029 763.252 253.229C763.716 253.429 764.08 253.732 764.343 254.137C764.612 254.538 764.746 255.041 764.746 255.646V259.169C764.746 259.53 764.771 259.855 764.819 260.143C764.873 260.426 764.949 260.673 765.046 260.883V261H763.237C763.154 260.81 763.088 260.568 763.04 260.275C762.996 259.977 762.974 259.689 762.974 259.411ZM763.23 256.181L763.245 257.272H761.978C761.65 257.272 761.362 257.304 761.113 257.367C760.864 257.426 760.657 257.514 760.491 257.631C760.325 257.748 760.2 257.89 760.117 258.056C760.034 258.222 759.993 258.41 759.993 258.62C759.993 258.83 760.042 259.022 760.139 259.198C760.237 259.369 760.378 259.503 760.564 259.601C760.754 259.699 760.984 259.748 761.252 259.748C761.614 259.748 761.929 259.674 762.197 259.528C762.471 259.376 762.686 259.193 762.842 258.979C762.998 258.759 763.081 258.551 763.091 258.356L763.662 259.14C763.604 259.34 763.503 259.555 763.362 259.784C763.22 260.014 763.035 260.233 762.805 260.443C762.581 260.648 762.31 260.817 761.992 260.949C761.68 261.081 761.318 261.146 760.908 261.146C760.391 261.146 759.929 261.044 759.524 260.839C759.119 260.629 758.801 260.348 758.572 259.997C758.342 259.64 758.228 259.237 758.228 258.788C758.228 258.368 758.306 257.997 758.462 257.675C758.623 257.348 758.857 257.074 759.165 256.854C759.478 256.635 759.858 256.469 760.308 256.356C760.757 256.239 761.27 256.181 761.846 256.181H763.23ZM769.829 259.74C770.117 259.74 770.376 259.684 770.605 259.572C770.84 259.455 771.028 259.293 771.169 259.088C771.316 258.883 771.396 258.646 771.411 258.378H773.074C773.064 258.891 772.913 259.357 772.62 259.777C772.327 260.197 771.938 260.531 771.455 260.78C770.972 261.024 770.437 261.146 769.851 261.146C769.246 261.146 768.718 261.044 768.269 260.839C767.82 260.629 767.446 260.341 767.148 259.975C766.851 259.608 766.626 259.186 766.475 258.708C766.328 258.229 766.255 257.716 766.255 257.169V256.913C766.255 256.366 766.328 255.854 766.475 255.375C766.626 254.892 766.851 254.467 767.148 254.101C767.446 253.734 767.82 253.449 768.269 253.244C768.718 253.034 769.243 252.929 769.844 252.929C770.479 252.929 771.035 253.056 771.514 253.31C771.992 253.559 772.368 253.908 772.642 254.357C772.92 254.801 773.064 255.319 773.074 255.91H771.411C771.396 255.617 771.323 255.353 771.191 255.119C771.064 254.879 770.884 254.689 770.649 254.547C770.42 254.406 770.144 254.335 769.822 254.335C769.465 254.335 769.17 254.408 768.936 254.555C768.701 254.696 768.518 254.892 768.386 255.141C768.254 255.385 768.159 255.661 768.101 255.968C768.047 256.271 768.02 256.586 768.02 256.913V257.169C768.02 257.497 768.047 257.814 768.101 258.122C768.154 258.429 768.247 258.705 768.379 258.949C768.516 259.188 768.701 259.381 768.936 259.528C769.17 259.669 769.468 259.74 769.829 259.74ZM778.062 253.075V254.364H773.594V253.075H778.062ZM774.883 251.134H776.648V258.81C776.648 259.054 776.682 259.242 776.75 259.374C776.824 259.501 776.924 259.586 777.051 259.63C777.178 259.674 777.327 259.696 777.498 259.696C777.62 259.696 777.737 259.689 777.849 259.674C777.961 259.66 778.052 259.645 778.12 259.63L778.127 260.978C777.981 261.022 777.81 261.061 777.615 261.095C777.424 261.129 777.205 261.146 776.956 261.146C776.55 261.146 776.191 261.076 775.879 260.934C775.566 260.788 775.322 260.551 775.146 260.224C774.971 259.896 774.883 259.462 774.883 258.92V251.134ZM781.313 253.075V261H779.541V253.075H781.313ZM779.424 250.995C779.424 250.727 779.512 250.504 779.688 250.329C779.868 250.148 780.117 250.058 780.435 250.058C780.747 250.058 780.994 250.148 781.174 250.329C781.355 250.504 781.445 250.727 781.445 250.995C781.445 251.259 781.355 251.479 781.174 251.654C780.994 251.83 780.747 251.918 780.435 251.918C780.117 251.918 779.868 251.83 779.688 251.654C779.512 251.479 779.424 251.259 779.424 250.995ZM785.825 259.601L787.766 253.075H789.597L786.843 261H785.701L785.825 259.601ZM784.338 253.075L786.316 259.63L786.411 261H785.269L782.5 253.075H784.338ZM794.08 261.146C793.494 261.146 792.964 261.051 792.49 260.861C792.021 260.666 791.621 260.395 791.289 260.048C790.962 259.701 790.71 259.293 790.535 258.825C790.359 258.356 790.271 257.851 790.271 257.309V257.016C790.271 256.396 790.361 255.834 790.542 255.331C790.723 254.828 790.974 254.398 791.296 254.042C791.619 253.681 792 253.405 792.439 253.214C792.878 253.024 793.354 252.929 793.867 252.929C794.434 252.929 794.929 253.024 795.354 253.214C795.779 253.405 796.13 253.673 796.409 254.02C796.692 254.362 796.902 254.77 797.039 255.243C797.18 255.717 797.251 256.239 797.251 256.811V257.565H791.128V256.298H795.508V256.159C795.498 255.841 795.435 255.543 795.317 255.265C795.205 254.987 795.032 254.762 794.797 254.591C794.563 254.42 794.25 254.335 793.86 254.335C793.567 254.335 793.306 254.398 793.076 254.525C792.852 254.647 792.664 254.826 792.512 255.06C792.361 255.294 792.244 255.578 792.161 255.91C792.083 256.237 792.043 256.605 792.043 257.016V257.309C792.043 257.655 792.09 257.978 792.183 258.275C792.28 258.568 792.422 258.825 792.607 259.044C792.793 259.264 793.018 259.438 793.281 259.564C793.545 259.687 793.845 259.748 794.182 259.748C794.607 259.748 794.985 259.662 795.317 259.491C795.649 259.32 795.938 259.079 796.182 258.766L797.112 259.667C796.941 259.916 796.719 260.155 796.445 260.385C796.172 260.609 795.837 260.792 795.442 260.934C795.051 261.076 794.597 261.146 794.08 261.146Z" fill="#AAAAAA"/>
<mask id="path-17-inside-2_3378_49321" fill="white">
<path d="M353 228H445V284H353V228Z"/>
</mask>
<path d="M353 228H445V284H353V228Z" fill="#EBF2FF"/>
<path d="M445 280H353V288H445V280Z" fill="#B0CCFF" mask="url(#path-17-inside-2_3378_49321)"/>
<path d="M374.276 256C374.276 254.526 375.471 253.375 377 253.375C378.504 253.375 379.724 254.526 379.724 256C379.724 257.449 378.504 258.625 377 258.625C375.471 258.625 374.276 257.449 374.276 256ZM377 254.688C376.248 254.688 375.638 255.275 375.638 256C375.638 256.725 376.248 257.312 377 257.312C377.752 257.312 378.362 256.725 378.362 256C378.362 255.275 377.752 254.688 377 254.688ZM378.053 249C378.683 249 379.231 249.415 379.378 250.005L379.6 250.892C379.841 251.006 380.071 251.135 380.289 251.277L381.2 251.019C381.804 250.847 382.451 251.096 382.766 251.621L383.819 253.378C384.131 253.903 384.032 254.567 383.578 254.986L382.888 255.593C382.897 255.743 382.903 255.871 382.903 256C382.903 256.129 382.897 256.257 382.888 256.383L383.578 257.014C384.032 257.433 384.131 258.097 383.819 258.622L382.766 260.378C382.451 260.903 381.804 261.152 381.2 260.982L380.289 260.722C380.071 260.864 379.841 260.993 379.6 261.108L379.378 261.996C379.231 262.584 378.683 263 378.053 263H375.947C375.317 263 374.77 262.584 374.622 261.996L374.401 261.108C374.16 260.993 373.93 260.864 373.711 260.722L372.775 260.982C372.197 261.152 371.55 260.903 371.235 260.378L370.183 258.622C369.868 258.097 369.967 257.433 370.423 257.014L371.111 256.383C371.102 256.257 371.098 256.129 371.098 255.975C371.098 255.871 371.102 255.743 371.111 255.593L370.423 254.986C369.967 254.567 369.868 253.903 370.183 253.378L371.235 251.621C371.55 251.096 372.197 250.847 372.775 251.019L373.711 251.277C373.93 251.135 374.16 251.006 374.401 250.892L374.622 250.005C374.77 249.415 375.317 249 375.947 249L378.053 249ZM375.567 251.833L375.249 251.961C374.889 252.106 374.554 252.295 374.25 252.519L373.975 252.721L372.415 252.279L371.362 254.034L372.54 255.114L372.496 255.442C372.472 255.625 372.46 255.811 372.46 256C372.46 256.189 372.472 256.375 372.496 256.558L372.54 256.886L371.362 257.966L372.415 259.721L373.975 259.279L374.25 259.481C374.554 259.705 374.889 259.894 375.249 260.039L375.567 260.167L375.947 261.688H378.053L378.433 260.167L378.751 260.039C379.111 259.894 379.446 259.705 379.75 259.481L380.025 259.279L381.586 259.721L382.639 257.966L381.461 256.886L381.504 256.558C381.529 256.375 381.541 256.189 381.541 256C381.541 255.811 381.529 255.625 381.504 255.442L381.461 255.114L382.639 254.034L381.586 252.279L380.025 252.721L379.75 252.519C379.446 252.295 379.111 252.106 378.751 251.961L378.433 251.833L378.053 250.312H375.947L375.567 251.833Z" fill="#1A1A1A"/>
<path d="M397.13 254.789V256.247H391.468V254.789H397.13ZM391.922 250.336V261H390.084V250.336H391.922ZM398.543 250.336V261H396.712V250.336H398.543ZM400.221 257.125V256.957C400.221 256.386 400.304 255.856 400.47 255.368C400.636 254.875 400.875 254.447 401.188 254.086C401.505 253.72 401.891 253.437 402.345 253.236C402.804 253.031 403.321 252.929 403.897 252.929C404.479 252.929 404.996 253.031 405.45 253.236C405.909 253.437 406.297 253.72 406.615 254.086C406.932 254.447 407.174 254.875 407.34 255.368C407.506 255.856 407.589 256.386 407.589 256.957V257.125C407.589 257.697 407.506 258.227 407.34 258.715C407.174 259.203 406.932 259.63 406.615 259.997C406.297 260.358 405.912 260.641 405.458 260.846C405.003 261.046 404.488 261.146 403.912 261.146C403.331 261.146 402.811 261.046 402.352 260.846C401.898 260.641 401.512 260.358 401.195 259.997C400.877 259.63 400.636 259.203 400.47 258.715C400.304 258.227 400.221 257.697 400.221 257.125ZM401.986 256.957V257.125C401.986 257.482 402.022 257.819 402.096 258.136C402.169 258.454 402.284 258.732 402.44 258.971C402.596 259.21 402.796 259.398 403.041 259.535C403.285 259.672 403.575 259.74 403.912 259.74C404.239 259.74 404.522 259.672 404.762 259.535C405.006 259.398 405.206 259.21 405.362 258.971C405.519 258.732 405.633 258.454 405.707 258.136C405.785 257.819 405.824 257.482 405.824 257.125V256.957C405.824 256.605 405.785 256.273 405.707 255.961C405.633 255.644 405.516 255.363 405.355 255.119C405.199 254.875 404.999 254.684 404.754 254.547C404.515 254.406 404.229 254.335 403.897 254.335C403.565 254.335 403.277 254.406 403.033 254.547C402.794 254.684 402.596 254.875 402.44 255.119C402.284 255.363 402.169 255.644 402.096 255.961C402.022 256.273 401.986 256.605 401.986 256.957ZM411.529 259.601L413.47 253.075H415.301L412.547 261H411.405L411.529 259.601ZM410.042 253.075L412.02 259.63L412.115 261H410.973L408.204 253.075H410.042ZM419.784 261.146C419.198 261.146 418.668 261.051 418.194 260.861C417.726 260.666 417.325 260.395 416.993 260.048C416.666 259.701 416.415 259.293 416.239 258.825C416.063 258.356 415.975 257.851 415.975 257.309V257.016C415.975 256.396 416.065 255.834 416.246 255.331C416.427 254.828 416.678 254.398 417 254.042C417.323 253.681 417.704 253.405 418.143 253.214C418.583 253.024 419.059 252.929 419.571 252.929C420.138 252.929 420.633 253.024 421.058 253.214C421.483 253.405 421.834 253.673 422.113 254.02C422.396 254.362 422.606 254.77 422.743 255.243C422.884 255.717 422.955 256.239 422.955 256.811V257.565H416.832V256.298H421.212V256.159C421.202 255.841 421.139 255.543 421.021 255.265C420.909 254.987 420.736 254.762 420.501 254.591C420.267 254.42 419.955 254.335 419.564 254.335C419.271 254.335 419.01 254.398 418.78 254.525C418.556 254.647 418.368 254.826 418.216 255.06C418.065 255.294 417.948 255.578 417.865 255.91C417.787 256.237 417.748 256.605 417.748 257.016V257.309C417.748 257.655 417.794 257.978 417.887 258.275C417.984 258.568 418.126 258.825 418.312 259.044C418.497 259.264 418.722 259.438 418.985 259.564C419.249 259.687 419.549 259.748 419.886 259.748C420.311 259.748 420.689 259.662 421.021 259.491C421.354 259.32 421.642 259.079 421.886 258.766L422.816 259.667C422.645 259.916 422.423 260.155 422.149 260.385C421.876 260.609 421.542 260.792 421.146 260.934C420.755 261.076 420.301 261.146 419.784 261.146ZM426.104 254.584V261H424.339V253.075H426.024L426.104 254.584ZM428.529 253.024L428.514 254.665C428.407 254.645 428.29 254.63 428.163 254.621C428.041 254.611 427.918 254.606 427.796 254.606C427.494 254.606 427.228 254.65 426.998 254.738C426.769 254.821 426.576 254.943 426.419 255.104C426.268 255.26 426.151 255.451 426.068 255.675C425.985 255.9 425.936 256.151 425.921 256.43L425.519 256.459C425.519 255.961 425.567 255.5 425.665 255.075C425.763 254.65 425.909 254.276 426.104 253.954C426.305 253.632 426.554 253.38 426.852 253.2C427.154 253.019 427.503 252.929 427.899 252.929C428.006 252.929 428.121 252.938 428.243 252.958C428.37 252.978 428.465 253 428.529 253.024Z" fill="#1A1A1A"/>
<mask id="path-21-inside-3_3378_49321" fill="white">
<path d="M530 108H624V188H530V108Z"/>
</mask>
<path d="M530 108H624V188H530V108Z" fill="white" fill-opacity="0.01"/>
<path d="M624 184H530V192H624V184Z" fill="#286EF1" mask="url(#path-21-inside-3_3378_49321)"/>
<path d="M551.276 148C551.276 146.526 552.471 145.375 554 145.375C555.504 145.375 556.724 146.526 556.724 148C556.724 149.449 555.504 150.625 554 150.625C552.471 150.625 551.276 149.449 551.276 148ZM554 146.688C553.248 146.688 552.638 147.275 552.638 148C552.638 148.725 553.248 149.312 554 149.312C554.752 149.312 555.362 148.725 555.362 148C555.362 147.275 554.752 146.688 554 146.688ZM555.053 141C555.683 141 556.231 141.415 556.378 142.005L556.6 142.892C556.841 143.006 557.071 143.135 557.289 143.277L558.2 143.019C558.804 142.847 559.451 143.096 559.766 143.621L560.819 145.378C561.131 145.903 561.032 146.567 560.578 146.986L559.888 147.593C559.897 147.743 559.903 147.871 559.903 148C559.903 148.129 559.897 148.257 559.888 148.383L560.578 149.014C561.032 149.433 561.131 150.097 560.819 150.622L559.766 152.378C559.451 152.903 558.804 153.152 558.2 152.982L557.289 152.722C557.071 152.864 556.841 152.993 556.6 153.108L556.378 153.996C556.231 154.584 555.683 155 555.053 155H552.947C552.317 155 551.77 154.584 551.622 153.996L551.401 153.108C551.16 152.993 550.93 152.864 550.711 152.722L549.775 152.982C549.197 153.152 548.55 152.903 548.235 152.378L547.183 150.622C546.868 150.097 546.967 149.433 547.423 149.014L548.111 148.383C548.102 148.257 548.098 148.129 548.098 147.975C548.098 147.871 548.102 147.743 548.111 147.593L547.423 146.986C546.967 146.567 546.868 145.903 547.183 145.378L548.235 143.621C548.55 143.096 549.197 142.847 549.775 143.019L550.711 143.277C550.93 143.135 551.16 143.006 551.401 142.892L551.622 142.005C551.77 141.415 552.317 141 552.947 141L555.053 141ZM552.567 143.833L552.249 143.961C551.889 144.106 551.554 144.295 551.25 144.519L550.975 144.721L549.415 144.279L548.362 146.034L549.54 147.114L549.496 147.442C549.472 147.625 549.46 147.811 549.46 148C549.46 148.189 549.472 148.375 549.496 148.558L549.54 148.886L548.362 149.966L549.415 151.721L550.975 151.279L551.25 151.481C551.554 151.705 551.889 151.894 552.249 152.039L552.567 152.167L552.947 153.688H555.053L555.433 152.167L555.751 152.039C556.111 151.894 556.446 151.705 556.75 151.481L557.025 151.279L558.586 151.721L559.639 149.966L558.461 148.886L558.504 148.558C558.529 148.375 558.541 148.189 558.541 148C558.541 147.811 558.529 147.625 558.504 147.442L558.461 147.114L559.639 146.034L558.586 144.279L557.025 144.721L556.75 144.519C556.446 144.295 556.111 144.106 555.751 143.961L555.433 143.833L555.053 142.312H552.947L552.567 143.833Z" fill="#286EF1"/>
<path d="M571.237 143.757L568.051 153H566.125L570.138 142.336H571.369L571.237 143.757ZM573.903 153L570.709 143.757L570.57 142.336H571.808L575.836 153H573.903ZM573.749 149.045V150.502H567.948V149.045H573.749ZM580.092 151.74C580.38 151.74 580.639 151.684 580.868 151.572C581.103 151.455 581.291 151.293 581.432 151.088C581.579 150.883 581.659 150.646 581.674 150.378H583.336C583.327 150.891 583.175 151.357 582.882 151.777C582.589 152.197 582.201 152.531 581.718 152.78C581.234 153.024 580.7 153.146 580.114 153.146C579.508 153.146 578.981 153.044 578.532 152.839C578.083 152.629 577.709 152.341 577.411 151.975C577.113 151.608 576.889 151.186 576.737 150.708C576.591 150.229 576.518 149.716 576.518 149.169V148.913C576.518 148.366 576.591 147.854 576.737 147.375C576.889 146.892 577.113 146.467 577.411 146.101C577.709 145.734 578.083 145.449 578.532 145.244C578.981 145.034 579.506 144.929 580.106 144.929C580.741 144.929 581.298 145.056 581.776 145.31C582.255 145.559 582.631 145.908 582.904 146.357C583.183 146.801 583.327 147.319 583.336 147.91H581.674C581.659 147.617 581.586 147.353 581.454 147.119C581.327 146.879 581.146 146.689 580.912 146.547C580.683 146.406 580.407 146.335 580.084 146.335C579.728 146.335 579.433 146.408 579.198 146.555C578.964 146.696 578.781 146.892 578.649 147.141C578.517 147.385 578.422 147.661 578.363 147.968C578.31 148.271 578.283 148.586 578.283 148.913V149.169C578.283 149.497 578.31 149.814 578.363 150.122C578.417 150.429 578.51 150.705 578.642 150.949C578.778 151.188 578.964 151.381 579.198 151.528C579.433 151.669 579.73 151.74 580.092 151.74ZM588.324 145.075V146.364H583.856V145.075H588.324ZM585.146 143.134H586.911V150.81C586.911 151.054 586.945 151.242 587.013 151.374C587.086 151.501 587.187 151.586 587.313 151.63C587.44 151.674 587.589 151.696 587.76 151.696C587.882 151.696 588 151.689 588.112 151.674C588.224 151.66 588.314 151.645 588.383 151.63L588.39 152.978C588.244 153.022 588.073 153.061 587.877 153.095C587.687 153.129 587.467 153.146 587.218 153.146C586.813 153.146 586.454 153.076 586.142 152.934C585.829 152.788 585.585 152.551 585.409 152.224C585.233 151.896 585.146 151.462 585.146 150.92V143.134ZM591.576 145.075V153H589.804V145.075H591.576ZM589.687 142.995C589.687 142.727 589.774 142.504 589.95 142.329C590.131 142.148 590.38 142.058 590.697 142.058C591.01 142.058 591.256 142.148 591.437 142.329C591.618 142.504 591.708 142.727 591.708 142.995C591.708 143.259 591.618 143.479 591.437 143.654C591.256 143.83 591.01 143.918 590.697 143.918C590.38 143.918 590.131 143.83 589.95 143.654C589.774 143.479 589.687 143.259 589.687 142.995ZM596.088 151.601L598.029 145.075H599.86L597.106 153H595.963L596.088 151.601ZM594.601 145.075L596.579 151.63L596.674 153H595.531L592.763 145.075H594.601ZM604.342 153.146C603.756 153.146 603.227 153.051 602.753 152.861C602.284 152.666 601.884 152.395 601.552 152.048C601.225 151.701 600.973 151.293 600.797 150.825C600.622 150.356 600.534 149.851 600.534 149.309V149.016C600.534 148.396 600.624 147.834 600.805 147.331C600.985 146.828 601.237 146.398 601.559 146.042C601.881 145.681 602.262 145.405 602.702 145.214C603.141 145.024 603.617 144.929 604.13 144.929C604.696 144.929 605.192 145.024 605.617 145.214C606.042 145.405 606.393 145.673 606.671 146.02C606.955 146.362 607.165 146.77 607.301 147.243C607.443 147.717 607.514 148.239 607.514 148.811V149.565H601.391V148.298H605.771V148.159C605.761 147.841 605.697 147.543 605.58 147.265C605.468 146.987 605.294 146.762 605.06 146.591C604.826 146.42 604.513 146.335 604.123 146.335C603.83 146.335 603.568 146.398 603.339 146.525C603.114 146.647 602.926 146.826 602.775 147.06C602.624 147.294 602.506 147.578 602.423 147.91C602.345 148.237 602.306 148.605 602.306 149.016V149.309C602.306 149.655 602.353 149.978 602.445 150.275C602.543 150.568 602.685 150.825 602.87 151.044C603.056 151.264 603.28 151.438 603.544 151.564C603.808 151.687 604.108 151.748 604.445 151.748C604.87 151.748 605.248 151.662 605.58 151.491C605.912 151.32 606.2 151.079 606.444 150.766L607.375 151.667C607.204 151.916 606.981 152.155 606.708 152.385C606.435 152.609 606.1 152.792 605.705 152.934C605.314 153.076 604.86 153.146 604.342 153.146Z" fill="#286EF1"/>
<mask id="path-25-inside-4_3378_49321" fill="white">
<path d="M353 108H445V188H353V108Z"/>
</mask>
<path d="M353 108H445V188H353V108Z" fill="#EAF1FE"/>
<path d="M445 184H353V192H445V184Z" fill="#D5E3FD" mask="url(#path-25-inside-4_3378_49321)"/>
<path d="M374.276 148C374.276 146.526 375.471 145.375 377 145.375C378.504 145.375 379.724 146.526 379.724 148C379.724 149.449 378.504 150.625 377 150.625C375.471 150.625 374.276 149.449 374.276 148ZM377 146.688C376.248 146.688 375.638 147.275 375.638 148C375.638 148.725 376.248 149.312 377 149.312C377.752 149.312 378.362 148.725 378.362 148C378.362 147.275 377.752 146.688 377 146.688ZM378.053 141C378.683 141 379.231 141.415 379.378 142.005L379.6 142.892C379.841 143.006 380.071 143.135 380.289 143.277L381.2 143.019C381.804 142.847 382.451 143.096 382.766 143.621L383.819 145.378C384.131 145.903 384.032 146.567 383.578 146.986L382.888 147.593C382.897 147.743 382.903 147.871 382.903 148C382.903 148.129 382.897 148.257 382.888 148.383L383.578 149.014C384.032 149.433 384.131 150.097 383.819 150.622L382.766 152.378C382.451 152.903 381.804 153.152 381.2 152.982L380.289 152.722C380.071 152.864 379.841 152.993 379.6 153.108L379.378 153.996C379.231 154.584 378.683 155 378.053 155H375.947C375.317 155 374.77 154.584 374.622 153.996L374.401 153.108C374.16 152.993 373.93 152.864 373.711 152.722L372.775 152.982C372.197 153.152 371.55 152.903 371.235 152.378L370.183 150.622C369.868 150.097 369.967 149.433 370.423 149.014L371.111 148.383C371.102 148.257 371.098 148.129 371.098 147.975C371.098 147.871 371.102 147.743 371.111 147.593L370.423 146.986C369.967 146.567 369.868 145.903 370.183 145.378L371.235 143.621C371.55 143.096 372.197 142.847 372.775 143.019L373.711 143.277C373.93 143.135 374.16 143.006 374.401 142.892L374.622 142.005C374.77 141.415 375.317 141 375.947 141L378.053 141ZM375.567 143.833L375.249 143.961C374.889 144.106 374.554 144.295 374.25 144.519L373.975 144.721L372.415 144.279L371.362 146.034L372.54 147.114L372.496 147.442C372.472 147.625 372.46 147.811 372.46 148C372.46 148.189 372.472 148.375 372.496 148.558L372.54 148.886L371.362 149.966L372.415 151.721L373.975 151.279L374.25 151.481C374.554 151.705 374.889 151.894 375.249 152.039L375.567 152.167L375.947 153.688H378.053L378.433 152.167L378.751 152.039C379.111 151.894 379.446 151.705 379.75 151.481L380.025 151.279L381.586 151.721L382.639 149.966L381.461 148.886L381.504 148.558C381.529 148.375 381.541 148.189 381.541 148C381.541 147.811 381.529 147.625 381.504 147.442L381.461 147.114L382.639 146.034L381.586 144.279L380.025 144.721L379.75 144.519C379.446 144.295 379.111 144.106 378.751 143.961L378.433 143.833L378.053 142.312H375.947L375.567 143.833Z" fill="#505050"/>
<path d="M397.13 146.789V148.247H391.468V146.789H397.13ZM391.922 142.336V153H390.084V142.336H391.922ZM398.543 142.336V153H396.712V142.336H398.543ZM400.221 149.125V148.957C400.221 148.386 400.304 147.856 400.47 147.368C400.636 146.875 400.875 146.447 401.188 146.086C401.505 145.72 401.891 145.437 402.345 145.236C402.804 145.031 403.321 144.929 403.897 144.929C404.479 144.929 404.996 145.031 405.45 145.236C405.909 145.437 406.297 145.72 406.615 146.086C406.932 146.447 407.174 146.875 407.34 147.368C407.506 147.856 407.589 148.386 407.589 148.957V149.125C407.589 149.697 407.506 150.227 407.34 150.715C407.174 151.203 406.932 151.63 406.615 151.997C406.297 152.358 405.912 152.641 405.458 152.846C405.003 153.046 404.488 153.146 403.912 153.146C403.331 153.146 402.811 153.046 402.352 152.846C401.898 152.641 401.512 152.358 401.195 151.997C400.877 151.63 400.636 151.203 400.47 150.715C400.304 150.227 400.221 149.697 400.221 149.125ZM401.986 148.957V149.125C401.986 149.482 402.022 149.819 402.096 150.136C402.169 150.454 402.284 150.732 402.44 150.971C402.596 151.21 402.796 151.398 403.041 151.535C403.285 151.672 403.575 151.74 403.912 151.74C404.239 151.74 404.522 151.672 404.762 151.535C405.006 151.398 405.206 151.21 405.362 150.971C405.519 150.732 405.633 150.454 405.707 150.136C405.785 149.819 405.824 149.482 405.824 149.125V148.957C405.824 148.605 405.785 148.273 405.707 147.961C405.633 147.644 405.516 147.363 405.355 147.119C405.199 146.875 404.999 146.684 404.754 146.547C404.515 146.406 404.229 146.335 403.897 146.335C403.565 146.335 403.277 146.406 403.033 146.547C402.794 146.684 402.596 146.875 402.44 147.119C402.284 147.363 402.169 147.644 402.096 147.961C402.022 148.273 401.986 148.605 401.986 148.957ZM411.529 151.601L413.47 145.075H415.301L412.547 153H411.405L411.529 151.601ZM410.042 145.075L412.02 151.63L412.115 153H410.973L408.204 145.075H410.042ZM419.784 153.146C419.198 153.146 418.668 153.051 418.194 152.861C417.726 152.666 417.325 152.395 416.993 152.048C416.666 151.701 416.415 151.293 416.239 150.825C416.063 150.356 415.975 149.851 415.975 149.309V149.016C415.975 148.396 416.065 147.834 416.246 147.331C416.427 146.828 416.678 146.398 417 146.042C417.323 145.681 417.704 145.405 418.143 145.214C418.583 145.024 419.059 144.929 419.571 144.929C420.138 144.929 420.633 145.024 421.058 145.214C421.483 145.405 421.834 145.673 422.113 146.02C422.396 146.362 422.606 146.77 422.743 147.243C422.884 147.717 422.955 148.239 422.955 148.811V149.565H416.832V148.298H421.212V148.159C421.202 147.841 421.139 147.543 421.021 147.265C420.909 146.987 420.736 146.762 420.501 146.591C420.267 146.42 419.955 146.335 419.564 146.335C419.271 146.335 419.01 146.398 418.78 146.525C418.556 146.647 418.368 146.826 418.216 147.06C418.065 147.294 417.948 147.578 417.865 147.91C417.787 148.237 417.748 148.605 417.748 149.016V149.309C417.748 149.655 417.794 149.978 417.887 150.275C417.984 150.568 418.126 150.825 418.312 151.044C418.497 151.264 418.722 151.438 418.985 151.564C419.249 151.687 419.549 151.748 419.886 151.748C420.311 151.748 420.689 151.662 421.021 151.491C421.354 151.32 421.642 151.079 421.886 150.766L422.816 151.667C422.645 151.916 422.423 152.155 422.149 152.385C421.876 152.609 421.542 152.792 421.146 152.934C420.755 153.076 420.301 153.146 419.784 153.146ZM426.104 146.584V153H424.339V145.075H426.024L426.104 146.584ZM428.529 145.024L428.514 146.665C428.407 146.645 428.29 146.63 428.163 146.621C428.041 146.611 427.918 146.606 427.796 146.606C427.494 146.606 427.228 146.65 426.998 146.738C426.769 146.821 426.576 146.943 426.419 147.104C426.268 147.26 426.151 147.451 426.068 147.675C425.985 147.9 425.936 148.151 425.921 148.43L425.519 148.459C425.519 147.961 425.567 147.5 425.665 147.075C425.763 146.65 425.909 146.276 426.104 145.954C426.305 145.632 426.554 145.38 426.852 145.2C427.154 145.019 427.503 144.929 427.899 144.929C428.006 144.929 428.121 144.938 428.243 144.958C428.37 144.978 428.465 145 428.529 145.024Z" fill="#505050"/>
<rect width="101" height="80" transform="translate(167 108)" fill="white" fill-opacity="0.01"/>
<path d="M188.276 148C188.276 146.526 189.471 145.375 191 145.375C192.504 145.375 193.724 146.526 193.724 148C193.724 149.449 192.504 150.625 191 150.625C189.471 150.625 188.276 149.449 188.276 148ZM191 146.688C190.248 146.688 189.638 147.275 189.638 148C189.638 148.725 190.248 149.312 191 149.312C191.752 149.312 192.362 148.725 192.362 148C192.362 147.275 191.752 146.688 191 146.688ZM192.053 141C192.683 141 193.231 141.415 193.378 142.005L193.6 142.892C193.841 143.006 194.071 143.135 194.289 143.277L195.2 143.019C195.804 142.847 196.451 143.096 196.766 143.621L197.819 145.378C198.131 145.903 198.032 146.567 197.578 146.986L196.888 147.593C196.897 147.743 196.903 147.871 196.903 148C196.903 148.129 196.897 148.257 196.888 148.383L197.578 149.014C198.032 149.433 198.131 150.097 197.819 150.622L196.766 152.378C196.451 152.903 195.804 153.152 195.2 152.982L194.289 152.722C194.071 152.864 193.841 152.993 193.6 153.108L193.378 153.996C193.231 154.584 192.683 155 192.053 155H189.947C189.317 155 188.77 154.584 188.622 153.996L188.401 153.108C188.16 152.993 187.93 152.864 187.711 152.722L186.775 152.982C186.197 153.152 185.55 152.903 185.235 152.378L184.183 150.622C183.868 150.097 183.967 149.433 184.423 149.014L185.111 148.383C185.102 148.257 185.098 148.129 185.098 147.975C185.098 147.871 185.102 147.743 185.111 147.593L184.423 146.986C183.967 146.567 183.868 145.903 184.183 145.378L185.235 143.621C185.55 143.096 186.197 142.847 186.775 143.019L187.711 143.277C187.93 143.135 188.16 143.006 188.401 142.892L188.622 142.005C188.77 141.415 189.317 141 189.947 141L192.053 141ZM189.567 143.833L189.249 143.961C188.889 144.106 188.554 144.295 188.25 144.519L187.975 144.721L186.415 144.279L185.362 146.034L186.54 147.114L186.496 147.442C186.472 147.625 186.46 147.811 186.46 148C186.46 148.189 186.472 148.375 186.496 148.558L186.54 148.886L185.362 149.966L186.415 151.721L187.975 151.279L188.25 151.481C188.554 151.705 188.889 151.894 189.249 152.039L189.567 152.167L189.947 153.688H192.053L192.433 152.167L192.751 152.039C193.111 151.894 193.446 151.705 193.75 151.481L194.025 151.279L195.586 151.721L196.639 149.966L195.461 148.886L195.504 148.558C195.529 148.375 195.541 148.189 195.541 148C195.541 147.811 195.529 147.625 195.504 147.442L195.461 147.114L196.639 146.034L195.586 144.279L194.025 144.721L193.75 144.519C193.446 144.295 193.111 144.106 192.751 143.961L192.433 143.833L192.053 142.312H189.947L189.567 143.833Z" fill="#505050"/>
<path d="M207.182 153H204.904L204.919 151.542H207.182C207.841 151.542 208.393 151.398 208.837 151.11C209.287 150.822 209.624 150.41 209.848 149.873C210.078 149.335 210.192 148.696 210.192 147.954V147.375C210.192 146.799 210.126 146.289 209.995 145.844C209.868 145.4 209.677 145.026 209.423 144.724C209.174 144.421 208.867 144.191 208.5 144.035C208.139 143.879 207.722 143.801 207.248 143.801H204.86V142.336H207.248C207.956 142.336 208.603 142.456 209.189 142.695C209.775 142.929 210.28 143.269 210.705 143.713C211.135 144.157 211.464 144.689 211.694 145.31C211.923 145.93 212.038 146.623 212.038 147.39V147.954C212.038 148.72 211.923 149.414 211.694 150.034C211.464 150.654 211.135 151.186 210.705 151.63C210.275 152.07 209.763 152.409 209.167 152.648C208.576 152.883 207.915 153 207.182 153ZM205.922 142.336V153H204.084V142.336H205.922ZM217.202 153.146C216.616 153.146 216.086 153.051 215.612 152.861C215.144 152.666 214.743 152.395 214.411 152.048C214.084 151.701 213.833 151.293 213.657 150.825C213.481 150.356 213.393 149.851 213.393 149.309V149.016C213.393 148.396 213.483 147.834 213.664 147.331C213.845 146.828 214.096 146.398 214.418 146.042C214.741 145.681 215.122 145.405 215.561 145.214C216 145.024 216.477 144.929 216.989 144.929C217.556 144.929 218.051 145.024 218.476 145.214C218.901 145.405 219.252 145.673 219.531 146.02C219.814 146.362 220.024 146.77 220.161 147.243C220.302 147.717 220.373 148.239 220.373 148.811V149.565H214.25V148.298H218.63V148.159C218.62 147.841 218.557 147.543 218.439 147.265C218.327 146.987 218.154 146.762 217.919 146.591C217.685 146.42 217.373 146.335 216.982 146.335C216.689 146.335 216.428 146.398 216.198 146.525C215.974 146.647 215.786 146.826 215.634 147.06C215.483 147.294 215.366 147.578 215.283 147.91C215.205 148.237 215.166 148.605 215.166 149.016V149.309C215.166 149.655 215.212 149.978 215.305 150.275C215.402 150.568 215.544 150.825 215.729 151.044C215.915 151.264 216.14 151.438 216.403 151.564C216.667 151.687 216.967 151.748 217.304 151.748C217.729 151.748 218.107 151.662 218.439 151.491C218.771 151.32 219.06 151.079 219.304 150.766L220.234 151.667C220.063 151.916 219.841 152.155 219.567 152.385C219.294 152.609 218.959 152.792 218.564 152.934C218.173 153.076 217.719 153.146 217.202 153.146ZM224.138 153H222.373V144.313C222.373 143.723 222.482 143.227 222.702 142.827C222.927 142.421 223.247 142.116 223.662 141.911C224.077 141.701 224.567 141.596 225.134 141.596C225.31 141.596 225.483 141.608 225.654 141.633C225.825 141.652 225.991 141.684 226.152 141.728L226.108 143.09C226.01 143.066 225.903 143.049 225.786 143.039C225.673 143.029 225.551 143.024 225.419 143.024C225.151 143.024 224.919 143.076 224.724 143.178C224.533 143.276 224.387 143.42 224.284 143.61C224.187 143.801 224.138 144.035 224.138 144.313V153ZM225.771 145.075V146.364H221.157V145.075H225.771ZM231.521 151.411V147.631C231.521 147.348 231.469 147.104 231.367 146.899C231.264 146.694 231.108 146.535 230.898 146.423C230.693 146.311 230.434 146.254 230.122 146.254C229.833 146.254 229.584 146.303 229.375 146.401C229.165 146.499 229.001 146.63 228.884 146.796C228.767 146.962 228.708 147.15 228.708 147.36H226.95C226.95 147.048 227.026 146.745 227.177 146.452C227.329 146.159 227.548 145.898 227.836 145.668C228.125 145.439 228.469 145.258 228.869 145.126C229.27 144.995 229.719 144.929 230.217 144.929C230.812 144.929 231.34 145.029 231.799 145.229C232.263 145.429 232.626 145.732 232.89 146.137C233.159 146.538 233.293 147.041 233.293 147.646V151.169C233.293 151.53 233.317 151.855 233.366 152.143C233.42 152.426 233.496 152.673 233.593 152.883V153H231.784C231.701 152.81 231.635 152.568 231.586 152.275C231.542 151.977 231.521 151.689 231.521 151.411ZM231.777 148.181L231.792 149.272H230.524C230.197 149.272 229.909 149.304 229.66 149.367C229.411 149.426 229.204 149.514 229.038 149.631C228.872 149.748 228.747 149.89 228.664 150.056C228.581 150.222 228.54 150.41 228.54 150.62C228.54 150.83 228.588 151.022 228.686 151.198C228.784 151.369 228.925 151.503 229.111 151.601C229.301 151.699 229.531 151.748 229.799 151.748C230.161 151.748 230.476 151.674 230.744 151.528C231.018 151.376 231.232 151.193 231.389 150.979C231.545 150.759 231.628 150.551 231.638 150.356L232.209 151.14C232.15 151.34 232.05 151.555 231.909 151.784C231.767 152.014 231.582 152.233 231.352 152.443C231.127 152.648 230.856 152.817 230.539 152.949C230.227 153.081 229.865 153.146 229.455 153.146C228.938 153.146 228.476 153.044 228.071 152.839C227.666 152.629 227.348 152.348 227.119 151.997C226.889 151.64 226.774 151.237 226.774 150.788C226.774 150.368 226.853 149.997 227.009 149.675C227.17 149.348 227.404 149.074 227.712 148.854C228.024 148.635 228.405 148.469 228.854 148.356C229.304 148.239 229.816 148.181 230.393 148.181H231.777ZM239.907 151.132V145.075H241.679V153H240.009L239.907 151.132ZM240.156 149.484L240.749 149.47C240.749 150.002 240.69 150.493 240.573 150.942C240.456 151.386 240.275 151.774 240.031 152.106C239.787 152.434 239.475 152.69 239.094 152.875C238.713 153.056 238.256 153.146 237.724 153.146C237.338 153.146 236.984 153.09 236.662 152.978C236.34 152.866 236.062 152.692 235.827 152.458C235.598 152.224 235.419 151.918 235.292 151.542C235.166 151.167 235.102 150.717 235.102 150.195V145.075H236.867V150.209C236.867 150.498 236.901 150.739 236.97 150.935C237.038 151.125 237.131 151.279 237.248 151.396C237.365 151.513 237.502 151.596 237.658 151.645C237.814 151.694 237.98 151.718 238.156 151.718C238.659 151.718 239.055 151.621 239.343 151.425C239.636 151.225 239.843 150.957 239.965 150.62C240.092 150.283 240.156 149.904 240.156 149.484ZM245.378 141.75V153H243.605V141.75H245.378ZM250.944 145.075V146.364H246.477V145.075H250.944ZM247.766 143.134H249.531V150.81C249.531 151.054 249.565 151.242 249.633 151.374C249.707 151.501 249.807 151.586 249.934 151.63C250.061 151.674 250.209 151.696 250.38 151.696C250.502 151.696 250.62 151.689 250.732 151.674C250.844 151.66 250.935 151.645 251.003 151.63L251.01 152.978C250.864 153.022 250.693 153.061 250.498 153.095C250.307 153.129 250.087 153.146 249.838 153.146C249.433 153.146 249.074 153.076 248.762 152.934C248.449 152.788 248.205 152.551 248.029 152.224C247.854 151.896 247.766 151.462 247.766 150.92V143.134Z" fill="#505050"/>
<rect width="105" height="80" transform="translate(709 108)" fill="white" fill-opacity="0.01"/>
<path d="M730.276 148C730.276 146.526 731.471 145.375 733 145.375C734.504 145.375 735.724 146.526 735.724 148C735.724 149.449 734.504 150.625 733 150.625C731.471 150.625 730.276 149.449 730.276 148ZM733 146.688C732.248 146.688 731.638 147.275 731.638 148C731.638 148.725 732.248 149.312 733 149.312C733.752 149.312 734.362 148.725 734.362 148C734.362 147.275 733.752 146.688 733 146.688ZM734.053 141C734.683 141 735.231 141.415 735.378 142.005L735.6 142.892C735.841 143.006 736.071 143.135 736.289 143.277L737.2 143.019C737.804 142.847 738.451 143.096 738.766 143.621L739.819 145.378C740.131 145.903 740.032 146.567 739.578 146.986L738.888 147.593C738.897 147.743 738.903 147.871 738.903 148C738.903 148.129 738.897 148.257 738.888 148.383L739.578 149.014C740.032 149.433 740.131 150.097 739.819 150.622L738.766 152.378C738.451 152.903 737.804 153.152 737.2 152.982L736.289 152.722C736.071 152.864 735.841 152.993 735.6 153.108L735.378 153.996C735.231 154.584 734.683 155 734.053 155H731.947C731.317 155 730.77 154.584 730.622 153.996L730.401 153.108C730.16 152.993 729.93 152.864 729.711 152.722L728.775 152.982C728.197 153.152 727.55 152.903 727.235 152.378L726.183 150.622C725.868 150.097 725.967 149.433 726.423 149.014L727.111 148.383C727.102 148.257 727.098 148.129 727.098 147.975C727.098 147.871 727.102 147.743 727.111 147.593L726.423 146.986C725.967 146.567 725.868 145.903 726.183 145.378L727.235 143.621C727.55 143.096 728.197 142.847 728.775 143.019L729.711 143.277C729.93 143.135 730.16 143.006 730.401 142.892L730.622 142.005C730.77 141.415 731.317 141 731.947 141L734.053 141ZM731.567 143.833L731.249 143.961C730.889 144.106 730.554 144.295 730.25 144.519L729.975 144.721L728.415 144.279L727.362 146.034L728.54 147.114L728.496 147.442C728.472 147.625 728.46 147.811 728.46 148C728.46 148.189 728.472 148.375 728.496 148.558L728.54 148.886L727.362 149.966L728.415 151.721L729.975 151.279L730.25 151.481C730.554 151.705 730.889 151.894 731.249 152.039L731.567 152.167L731.947 153.688H734.053L734.433 152.167L734.751 152.039C735.111 151.894 735.446 151.705 735.75 151.481L736.025 151.279L737.586 151.721L738.639 149.966L737.461 148.886L737.504 148.558C737.529 148.375 737.541 148.189 737.541 148C737.541 147.811 737.529 147.625 737.504 147.442L737.461 147.114L738.639 146.034L737.586 144.279L736.025 144.721L735.75 144.519C735.446 144.295 735.111 144.106 734.751 143.961L734.433 143.833L734.053 142.312H731.947L731.567 143.833Z" fill="#AAAAAA"/>
<path d="M748.047 142.336V153H746.208V142.336H748.047ZM751.907 146.767V153H750.142V145.075H751.804L751.907 146.767ZM751.592 148.745L751.021 148.737C751.025 148.176 751.104 147.661 751.255 147.192C751.411 146.723 751.626 146.32 751.899 145.983C752.178 145.646 752.51 145.388 752.896 145.207C753.281 145.021 753.711 144.929 754.185 144.929C754.565 144.929 754.91 144.982 755.217 145.09C755.53 145.192 755.796 145.361 756.016 145.595C756.24 145.83 756.411 146.135 756.528 146.511C756.646 146.882 756.704 147.338 756.704 147.88V153H754.932V147.873C754.932 147.492 754.875 147.192 754.763 146.972C754.656 146.748 754.497 146.589 754.287 146.496C754.082 146.398 753.826 146.35 753.518 146.35C753.215 146.35 752.944 146.413 752.705 146.54C752.466 146.667 752.263 146.84 752.097 147.06C751.936 147.28 751.812 147.534 751.724 147.822C751.636 148.11 751.592 148.417 751.592 148.745ZM762.974 151.411V147.631C762.974 147.348 762.922 147.104 762.82 146.899C762.717 146.694 762.561 146.535 762.351 146.423C762.146 146.311 761.887 146.254 761.575 146.254C761.287 146.254 761.038 146.303 760.828 146.401C760.618 146.499 760.454 146.63 760.337 146.796C760.22 146.962 760.161 147.15 760.161 147.36H758.403C758.403 147.048 758.479 146.745 758.63 146.452C758.782 146.159 759.001 145.898 759.29 145.668C759.578 145.439 759.922 145.258 760.322 145.126C760.723 144.995 761.172 144.929 761.67 144.929C762.266 144.929 762.793 145.029 763.252 145.229C763.716 145.429 764.08 145.732 764.343 146.137C764.612 146.538 764.746 147.041 764.746 147.646V151.169C764.746 151.53 764.771 151.855 764.819 152.143C764.873 152.426 764.949 152.673 765.046 152.883V153H763.237C763.154 152.81 763.088 152.568 763.04 152.275C762.996 151.977 762.974 151.689 762.974 151.411ZM763.23 148.181L763.245 149.272H761.978C761.65 149.272 761.362 149.304 761.113 149.367C760.864 149.426 760.657 149.514 760.491 149.631C760.325 149.748 760.2 149.89 760.117 150.056C760.034 150.222 759.993 150.41 759.993 150.62C759.993 150.83 760.042 151.022 760.139 151.198C760.237 151.369 760.378 151.503 760.564 151.601C760.754 151.699 760.984 151.748 761.252 151.748C761.614 151.748 761.929 151.674 762.197 151.528C762.471 151.376 762.686 151.193 762.842 150.979C762.998 150.759 763.081 150.551 763.091 150.356L763.662 151.14C763.604 151.34 763.503 151.555 763.362 151.784C763.22 152.014 763.035 152.233 762.805 152.443C762.581 152.648 762.31 152.817 761.992 152.949C761.68 153.081 761.318 153.146 760.908 153.146C760.391 153.146 759.929 153.044 759.524 152.839C759.119 152.629 758.801 152.348 758.572 151.997C758.342 151.64 758.228 151.237 758.228 150.788C758.228 150.368 758.306 149.997 758.462 149.675C758.623 149.348 758.857 149.074 759.165 148.854C759.478 148.635 759.858 148.469 760.308 148.356C760.757 148.239 761.27 148.181 761.846 148.181H763.23ZM769.829 151.74C770.117 151.74 770.376 151.684 770.605 151.572C770.84 151.455 771.028 151.293 771.169 151.088C771.316 150.883 771.396 150.646 771.411 150.378H773.074C773.064 150.891 772.913 151.357 772.62 151.777C772.327 152.197 771.938 152.531 771.455 152.78C770.972 153.024 770.437 153.146 769.851 153.146C769.246 153.146 768.718 153.044 768.269 152.839C767.82 152.629 767.446 152.341 767.148 151.975C766.851 151.608 766.626 151.186 766.475 150.708C766.328 150.229 766.255 149.716 766.255 149.169V148.913C766.255 148.366 766.328 147.854 766.475 147.375C766.626 146.892 766.851 146.467 767.148 146.101C767.446 145.734 767.82 145.449 768.269 145.244C768.718 145.034 769.243 144.929 769.844 144.929C770.479 144.929 771.035 145.056 771.514 145.31C771.992 145.559 772.368 145.908 772.642 146.357C772.92 146.801 773.064 147.319 773.074 147.91H771.411C771.396 147.617 771.323 147.353 771.191 147.119C771.064 146.879 770.884 146.689 770.649 146.547C770.42 146.406 770.144 146.335 769.822 146.335C769.465 146.335 769.17 146.408 768.936 146.555C768.701 146.696 768.518 146.892 768.386 147.141C768.254 147.385 768.159 147.661 768.101 147.968C768.047 148.271 768.02 148.586 768.02 148.913V149.169C768.02 149.497 768.047 149.814 768.101 150.122C768.154 150.429 768.247 150.705 768.379 150.949C768.516 151.188 768.701 151.381 768.936 151.528C769.17 151.669 769.468 151.74 769.829 151.74ZM778.062 145.075V146.364H773.594V145.075H778.062ZM774.883 143.134H776.648V150.81C776.648 151.054 776.682 151.242 776.75 151.374C776.824 151.501 776.924 151.586 777.051 151.63C777.178 151.674 777.327 151.696 777.498 151.696C777.62 151.696 777.737 151.689 777.849 151.674C777.961 151.66 778.052 151.645 778.12 151.63L778.127 152.978C777.981 153.022 777.81 153.061 777.615 153.095C777.424 153.129 777.205 153.146 776.956 153.146C776.55 153.146 776.191 153.076 775.879 152.934C775.566 152.788 775.322 152.551 775.146 152.224C774.971 151.896 774.883 151.462 774.883 150.92V143.134ZM781.313 145.075V153H779.541V145.075H781.313ZM779.424 142.995C779.424 142.727 779.512 142.504 779.688 142.329C779.868 142.148 780.117 142.058 780.435 142.058C780.747 142.058 780.994 142.148 781.174 142.329C781.355 142.504 781.445 142.727 781.445 142.995C781.445 143.259 781.355 143.479 781.174 143.654C780.994 143.83 780.747 143.918 780.435 143.918C780.117 143.918 779.868 143.83 779.688 143.654C779.512 143.479 779.424 143.259 779.424 142.995ZM785.825 151.601L787.766 145.075H789.597L786.843 153H785.701L785.825 151.601ZM784.338 145.075L786.316 151.63L786.411 153H785.269L782.5 145.075H784.338ZM794.08 153.146C793.494 153.146 792.964 153.051 792.49 152.861C792.021 152.666 791.621 152.395 791.289 152.048C790.962 151.701 790.71 151.293 790.535 150.825C790.359 150.356 790.271 149.851 790.271 149.309V149.016C790.271 148.396 790.361 147.834 790.542 147.331C790.723 146.828 790.974 146.398 791.296 146.042C791.619 145.681 792 145.405 792.439 145.214C792.878 145.024 793.354 144.929 793.867 144.929C794.434 144.929 794.929 145.024 795.354 145.214C795.779 145.405 796.13 145.673 796.409 146.02C796.692 146.362 796.902 146.77 797.039 147.243C797.18 147.717 797.251 148.239 797.251 148.811V149.565H791.128V148.298H795.508V148.159C795.498 147.841 795.435 147.543 795.317 147.265C795.205 146.987 795.032 146.762 794.797 146.591C794.563 146.42 794.25 146.335 793.86 146.335C793.567 146.335 793.306 146.398 793.076 146.525C792.852 146.647 792.664 146.826 792.512 147.06C792.361 147.294 792.244 147.578 792.161 147.91C792.083 148.237 792.043 148.605 792.043 149.016V149.309C792.043 149.655 792.09 149.978 792.183 150.275C792.28 150.568 792.422 150.825 792.607 151.044C792.793 151.264 793.018 151.438 793.281 151.564C793.545 151.687 793.845 151.748 794.182 151.748C794.607 151.748 794.985 151.662 795.317 151.491C795.649 151.32 795.938 151.079 796.182 150.766L797.112 151.667C796.941 151.916 796.719 152.155 796.445 152.385C796.172 152.609 795.837 152.792 795.442 152.934C795.051 153.076 794.597 153.146 794.08 153.146Z" fill="#AAAAAA"/>
<defs>
<filter id="filter0_ddd_3378_49321" x="47" y="40" width="888" height="384" filterUnits="userSpaceOnUse" color-interpolation-filters="sRGB">
<feFlood flood-opacity="0" result="BackgroundImageFix"/>
<feColorMatrix in="SourceAlpha" type="matrix" values="0 0 0 0 0 0 0 0 0 0 0 0 0 0 0 0 0 0 127 0" result="hardAlpha"/>
<feOffset dy="2.39404"/>
<feGaussianBlur stdDeviation="2.66004"/>
<feColorMatrix type="matrix" values="0 0 0 0 0 0 0 0 0 0 0 0 0 0 0 0 0 0 0.0201946 0"/>
<feBlend mode="normal" in2="BackgroundImageFix" result="effect1_dropShadow_3378_49321"/>
<feColorMatrix in="SourceAlpha" type="matrix" values="0 0 0 0 0 0 0 0 0 0 0 0 0 0 0 0 0 0 127 0" result="hardAlpha"/>
<feOffset dy="8.04107"/>
<feGaussianBlur stdDeviation="8.93452"/>
<feColorMatrix type="matrix" values="0 0 0 0 0 0 0 0 0 0 0 0 0 0 0 0 0 0 0.0298054 0"/>
<feBlend mode="normal" in2="effect1_dropShadow_3378_49321" result="effect2_dropShadow_3378_49321"/>
<feColorMatrix in="SourceAlpha" type="matrix" values="0 0 0 0 0 0 0 0 0 0 0 0 0 0 0 0 0 0 127 0" result="hardAlpha"/>
<feOffset dy="36"/>
<feGaussianBlur stdDeviation="40"/>
<feColorMatrix type="matrix" values="0 0 0 0 0 0 0 0 0 0 0 0 0 0 0 0 0 0 0.05 0"/>
<feBlend mode="normal" in2="effect2_dropShadow_3378_49321" result="effect3_dropShadow_3378_49321"/>
<feBlend mode="normal" in="SourceGraphic" in2="effect3_dropShadow_3378_49321" result="shape"/>
</filter>
</defs>
</svg>
