<svg width="1200" height="624" viewBox="0 0 1200 624" fill="none" xmlns="http://www.w3.org/2000/svg">
<g filter="url(#filter0_i_8300_7611)">
<g clip-path="url(#clip0_8300_7611)">
<rect width="1200" height="624" rx="16" fill="#F2F2F2"/>
<path d="M192.5 94C192.5 89.8579 195.858 86.5 200 86.5H560C564.142 86.5 567.5 89.8579 567.5 94V669.5H192.5V94Z" fill="white" stroke="#E6E6E6"/>
<rect x="193" y="231" width="374" height="438" fill="#F8F8F8"/>
<rect x="208.5" y="255.5" width="342" height="47" rx="7.5" fill="white"/>
<path d="M233.272 278.551V282.623C233.121 282.823 232.884 283.043 232.562 283.282C232.245 283.517 231.822 283.719 231.295 283.89C230.768 284.061 230.111 284.146 229.325 284.146C228.656 284.146 228.043 284.034 227.486 283.81C226.93 283.58 226.449 283.246 226.043 282.806C225.643 282.367 225.333 281.832 225.113 281.202C224.894 280.567 224.784 279.845 224.784 279.034V278.294C224.784 277.489 224.884 276.771 225.084 276.141C225.289 275.506 225.582 274.969 225.963 274.53C226.344 274.09 226.803 273.758 227.34 273.534C227.882 273.304 228.495 273.189 229.178 273.189C230.052 273.189 230.775 273.336 231.346 273.629C231.922 273.917 232.367 274.317 232.679 274.83C232.992 275.343 233.189 275.929 233.272 276.588H231.471C231.412 276.217 231.297 275.885 231.126 275.592C230.96 275.299 230.721 275.069 230.409 274.903C230.101 274.732 229.701 274.647 229.208 274.647C228.783 274.647 228.409 274.728 228.087 274.889C227.765 275.05 227.496 275.287 227.281 275.599C227.071 275.912 226.913 276.292 226.805 276.742C226.698 277.191 226.644 277.704 226.644 278.28V279.034C226.644 279.62 226.705 280.14 226.827 280.594C226.954 281.048 227.135 281.432 227.369 281.744C227.608 282.057 227.899 282.293 228.241 282.455C228.583 282.611 228.968 282.689 229.398 282.689C229.818 282.689 230.162 282.655 230.431 282.586C230.699 282.513 230.912 282.428 231.068 282.33C231.229 282.228 231.354 282.13 231.441 282.037V279.92H229.222V278.551H233.272ZM238.626 284.146C238.041 284.146 237.511 284.051 237.037 283.861C236.568 283.666 236.168 283.395 235.836 283.048C235.509 282.701 235.257 282.293 235.082 281.825C234.906 281.356 234.818 280.851 234.818 280.309V280.016C234.818 279.396 234.908 278.834 235.089 278.331C235.27 277.828 235.521 277.398 235.843 277.042C236.166 276.681 236.546 276.405 236.986 276.214C237.425 276.024 237.901 275.929 238.414 275.929C238.98 275.929 239.476 276.024 239.901 276.214C240.326 276.405 240.677 276.673 240.956 277.02C241.239 277.362 241.449 277.77 241.585 278.243C241.727 278.717 241.798 279.239 241.798 279.811V280.565H235.675V279.298H240.055V279.159C240.045 278.841 239.981 278.543 239.864 278.265C239.752 277.987 239.579 277.762 239.344 277.591C239.11 277.42 238.797 277.335 238.407 277.335C238.114 277.335 237.853 277.398 237.623 277.525C237.398 277.647 237.21 277.826 237.059 278.06C236.908 278.294 236.791 278.578 236.708 278.91C236.629 279.237 236.59 279.605 236.59 280.016V280.309C236.59 280.655 236.637 280.978 236.729 281.275C236.827 281.568 236.969 281.825 237.154 282.044C237.34 282.264 237.564 282.438 237.828 282.564C238.092 282.687 238.392 282.748 238.729 282.748C239.154 282.748 239.532 282.662 239.864 282.491C240.196 282.32 240.484 282.079 240.729 281.766L241.659 282.667C241.488 282.916 241.266 283.155 240.992 283.385C240.719 283.609 240.384 283.792 239.989 283.934C239.598 284.076 239.144 284.146 238.626 284.146ZM244.925 277.767V284H243.16V276.075H244.823L244.925 277.767ZM244.61 279.745L244.039 279.737C244.044 279.176 244.122 278.661 244.273 278.192C244.43 277.723 244.645 277.32 244.918 276.983C245.196 276.646 245.528 276.388 245.914 276.207C246.3 276.021 246.729 275.929 247.203 275.929C247.584 275.929 247.928 275.982 248.236 276.09C248.548 276.192 248.814 276.361 249.034 276.595C249.259 276.83 249.43 277.135 249.547 277.511C249.664 277.882 249.723 278.338 249.723 278.88V284H247.95V278.873C247.95 278.492 247.894 278.192 247.782 277.972C247.674 277.748 247.516 277.589 247.306 277.496C247.101 277.398 246.844 277.35 246.537 277.35C246.234 277.35 245.963 277.413 245.724 277.54C245.484 277.667 245.282 277.84 245.116 278.06C244.955 278.28 244.83 278.534 244.742 278.822C244.654 279.11 244.61 279.417 244.61 279.745ZM255.018 284.146C254.432 284.146 253.902 284.051 253.429 283.861C252.96 283.666 252.56 283.395 252.228 283.048C251.9 282.701 251.649 282.293 251.473 281.825C251.297 281.356 251.209 280.851 251.209 280.309V280.016C251.209 279.396 251.3 278.834 251.48 278.331C251.661 277.828 251.913 277.398 252.235 277.042C252.557 276.681 252.938 276.405 253.377 276.214C253.817 276.024 254.293 275.929 254.806 275.929C255.372 275.929 255.868 276.024 256.292 276.214C256.717 276.405 257.069 276.673 257.347 277.02C257.63 277.362 257.84 277.77 257.977 278.243C258.119 278.717 258.189 279.239 258.189 279.811V280.565H252.066V279.298H256.446V279.159C256.437 278.841 256.373 278.543 256.256 278.265C256.144 277.987 255.97 277.762 255.736 277.591C255.501 277.42 255.189 277.335 254.798 277.335C254.505 277.335 254.244 277.398 254.015 277.525C253.79 277.647 253.602 277.826 253.451 278.06C253.299 278.294 253.182 278.578 253.099 278.91C253.021 279.237 252.982 279.605 252.982 280.016V280.309C252.982 280.655 253.028 280.978 253.121 281.275C253.219 281.568 253.36 281.825 253.546 282.044C253.731 282.264 253.956 282.438 254.22 282.564C254.483 282.687 254.784 282.748 255.121 282.748C255.545 282.748 255.924 282.662 256.256 282.491C256.588 282.32 256.876 282.079 257.12 281.766L258.05 282.667C257.879 282.916 257.657 283.155 257.384 283.385C257.11 283.609 256.776 283.792 256.38 283.934C255.99 284.076 255.536 284.146 255.018 284.146ZM261.339 277.584V284H259.574V276.075H261.258L261.339 277.584ZM263.763 276.024L263.749 277.665C263.641 277.645 263.524 277.63 263.397 277.621C263.275 277.611 263.153 277.606 263.031 277.606C262.728 277.606 262.462 277.65 262.232 277.738C262.003 277.821 261.81 277.943 261.654 278.104C261.502 278.26 261.385 278.451 261.302 278.675C261.219 278.9 261.17 279.151 261.156 279.43L260.753 279.459C260.753 278.961 260.802 278.5 260.899 278.075C260.997 277.65 261.144 277.276 261.339 276.954C261.539 276.632 261.788 276.38 262.086 276.2C262.389 276.019 262.738 275.929 263.133 275.929C263.241 275.929 263.355 275.938 263.478 275.958C263.604 275.978 263.7 276 263.763 276.024ZM269.073 282.411V278.631C269.073 278.348 269.022 278.104 268.919 277.899C268.817 277.694 268.661 277.535 268.451 277.423C268.246 277.311 267.987 277.254 267.674 277.254C267.386 277.254 267.137 277.303 266.927 277.401C266.717 277.499 266.554 277.63 266.437 277.796C266.319 277.962 266.261 278.15 266.261 278.36H264.503C264.503 278.048 264.579 277.745 264.73 277.452C264.881 277.159 265.101 276.898 265.389 276.668C265.677 276.439 266.021 276.258 266.422 276.126C266.822 275.995 267.271 275.929 267.77 275.929C268.365 275.929 268.893 276.029 269.352 276.229C269.815 276.429 270.179 276.732 270.443 277.137C270.711 277.538 270.846 278.041 270.846 278.646V282.169C270.846 282.53 270.87 282.855 270.919 283.143C270.973 283.426 271.048 283.673 271.146 283.883V284H269.337C269.254 283.81 269.188 283.568 269.139 283.275C269.095 282.977 269.073 282.689 269.073 282.411ZM269.33 279.181L269.344 280.272H268.077C267.75 280.272 267.462 280.304 267.213 280.367C266.964 280.426 266.756 280.514 266.59 280.631C266.424 280.748 266.3 280.89 266.217 281.056C266.134 281.222 266.092 281.41 266.092 281.62C266.092 281.83 266.141 282.022 266.239 282.198C266.336 282.369 266.478 282.503 266.664 282.601C266.854 282.699 267.083 282.748 267.352 282.748C267.713 282.748 268.028 282.674 268.297 282.528C268.57 282.376 268.785 282.193 268.941 281.979C269.098 281.759 269.181 281.551 269.19 281.356L269.762 282.14C269.703 282.34 269.603 282.555 269.461 282.784C269.32 283.014 269.134 283.233 268.905 283.443C268.68 283.648 268.409 283.817 268.092 283.949C267.779 284.081 267.418 284.146 267.008 284.146C266.49 284.146 266.029 284.044 265.624 283.839C265.218 283.629 264.901 283.348 264.671 282.997C264.442 282.64 264.327 282.237 264.327 281.788C264.327 281.368 264.405 280.997 264.562 280.675C264.723 280.348 264.957 280.074 265.265 279.854C265.577 279.635 265.958 279.469 266.407 279.356C266.856 279.239 267.369 279.181 267.945 279.181H269.33ZM274.581 272.75V284H272.809V272.75H274.581Z" fill="#1A1A1A"/>
<path d="M513 272.043C513 271.465 513.478 271 514.071 271H531.929C532.522 271 533 271.465 533 272.043C533 272.622 532.522 273.087 531.929 273.087H514.071C513.478 273.087 513 272.622 513 272.043ZM513 279C513 278.422 513.478 277.957 514.071 277.957H531.929C532.522 277.957 533 278.422 533 279C533 279.578 532.522 280.043 531.929 280.043H514.071C513.478 280.043 513 279.578 513 279ZM533 285.957C533 286.535 532.522 287 531.929 287H514.071C513.478 287 513 286.535 513 285.957C513 285.378 513.478 284.913 514.071 284.913H531.929C532.522 284.913 533 285.378 533 285.957Z" fill="#1A1A1A"/>
<rect x="208.5" y="255.5" width="342" height="47" rx="7.5" stroke="#E6E6E6"/>
<path d="M209.5 327C209.5 322.858 212.858 319.5 217 319.5H543C547.142 319.5 550.5 322.858 550.5 327V726.5H209.5V327Z" fill="white" stroke="#E6E6E6"/>
<path d="M193 94C193 90.134 196.134 87 200 87H561C564.866 87 568 90.134 568 94V135H193V94Z" fill="#F8F8F8"/>
<mask id="path-11-inside-2_8300_7611" fill="white">
<path d="M193 93C193 89.134 196.134 86 200 86H301V135H193V93Z"/>
</mask>
<path d="M193 93C193 89.134 196.134 86 200 86H301V135H193V93Z" fill="white"/>
<path d="M193 93C193 88.0294 197.029 84 202 84H301V88H200C196.134 88 193 90.2386 193 93ZM301 135H193H301ZM193 135V86V135ZM301 86V135V86Z" fill="#0059FF" mask="url(#path-11-inside-2_8300_7611)"/>
<rect opacity="0.5" x="217" y="107" width="60" height="8" rx="2" fill="#AAAAAA"/>
<rect x="208" y="159" width="185" height="16" rx="4" fill="#E6E6E6"/>
<rect x="225" y="343" width="185" height="16" rx="4" fill="#E6E6E6"/>
<rect x="208" y="191" width="325" height="16" rx="4" fill="#E6E6E6"/>
<rect x="225" y="375" width="310" height="16" rx="4" fill="#E6E6E6"/>
<rect x="225" y="407" width="230" height="16" rx="4" fill="#E6E6E6"/>
<rect opacity="0.5" x="325" y="107" width="60" height="8" rx="2" fill="#AAAAAA"/>
<rect opacity="0.5" x="433" y="107" width="60" height="8" rx="2" fill="#AAAAAA"/>
<path d="M176 64C176 50.7452 186.745 40 200 40H560C573.255 40 584 50.7452 584 64L552 132H208L176 64ZM584 662C584 675.255 573.255 686 560 686H200C186.745 686 176 675.255 176 662L208 654H552L584 662ZM200 686C186.745 686 176 675.255 176 662V64C176 50.7452 186.745 40 200 40L208 132V654L200 686ZM560 40C573.255 40 584 50.7452 584 64V662C584 675.255 573.255 686 560 686L552 654V132L560 40Z" fill="#333333" mask="url(#path-2-outside-1_8300_7611)"/>
<path d="M632.5 94C632.5 89.8579 635.858 86.5 640 86.5H1000C1004.14 86.5 1007.5 89.8579 1007.5 94V669.5H632.5V94Z" fill="white" stroke="#E6E6E6"/>
<rect x="633" y="231" width="374" height="438" fill="#F8F8F8"/>
<g filter="url(#filter1_d_8300_7611)">
<rect x="648" y="255" width="343" height="48" rx="8" fill="white"/>
<path d="M673.272 278.551V282.623C673.121 282.823 672.884 283.043 672.562 283.282C672.245 283.517 671.822 283.719 671.295 283.89C670.768 284.061 670.111 284.146 669.325 284.146C668.656 284.146 668.043 284.034 667.486 283.81C666.93 283.58 666.449 283.246 666.043 282.806C665.643 282.367 665.333 281.832 665.113 281.202C664.894 280.567 664.784 279.845 664.784 279.034V278.294C664.784 277.489 664.884 276.771 665.084 276.141C665.289 275.506 665.582 274.969 665.963 274.53C666.344 274.09 666.803 273.758 667.34 273.534C667.882 273.304 668.495 273.189 669.178 273.189C670.052 273.189 670.775 273.336 671.346 273.629C671.922 273.917 672.367 274.317 672.679 274.83C672.992 275.343 673.189 275.929 673.272 276.588H671.471C671.412 276.217 671.297 275.885 671.126 275.592C670.96 275.299 670.721 275.069 670.409 274.903C670.101 274.732 669.701 274.647 669.208 274.647C668.783 274.647 668.409 274.728 668.087 274.889C667.765 275.05 667.496 275.287 667.281 275.599C667.071 275.912 666.913 276.292 666.805 276.742C666.698 277.191 666.644 277.704 666.644 278.28V279.034C666.644 279.62 666.705 280.14 666.827 280.594C666.954 281.048 667.135 281.432 667.369 281.744C667.608 282.057 667.899 282.293 668.241 282.455C668.583 282.611 668.968 282.689 669.398 282.689C669.818 282.689 670.162 282.655 670.431 282.586C670.699 282.513 670.912 282.428 671.068 282.33C671.229 282.228 671.354 282.13 671.441 282.037V279.92H669.222V278.551H673.272ZM678.626 284.146C678.041 284.146 677.511 284.051 677.037 283.861C676.568 283.666 676.168 283.395 675.836 283.048C675.509 282.701 675.257 282.293 675.082 281.825C674.906 281.356 674.818 280.851 674.818 280.309V280.016C674.818 279.396 674.908 278.834 675.089 278.331C675.27 277.828 675.521 277.398 675.843 277.042C676.166 276.681 676.546 276.405 676.986 276.214C677.425 276.024 677.901 275.929 678.414 275.929C678.98 275.929 679.476 276.024 679.901 276.214C680.326 276.405 680.677 276.673 680.956 277.02C681.239 277.362 681.449 277.77 681.585 278.243C681.727 278.717 681.798 279.239 681.798 279.811V280.565H675.675V279.298H680.055V279.159C680.045 278.841 679.981 278.543 679.864 278.265C679.752 277.987 679.579 277.762 679.344 277.591C679.11 277.42 678.797 277.335 678.407 277.335C678.114 277.335 677.853 277.398 677.623 277.525C677.398 277.647 677.21 277.826 677.059 278.06C676.908 278.294 676.791 278.578 676.708 278.91C676.629 279.237 676.59 279.605 676.59 280.016V280.309C676.59 280.655 676.637 280.978 676.729 281.275C676.827 281.568 676.969 281.825 677.154 282.044C677.34 282.264 677.564 282.438 677.828 282.564C678.092 282.687 678.392 282.748 678.729 282.748C679.154 282.748 679.532 282.662 679.864 282.491C680.196 282.32 680.484 282.079 680.729 281.766L681.659 282.667C681.488 282.916 681.266 283.155 680.992 283.385C680.719 283.609 680.384 283.792 679.989 283.934C679.598 284.076 679.144 284.146 678.626 284.146ZM684.925 277.767V284H683.16V276.075H684.823L684.925 277.767ZM684.61 279.745L684.039 279.737C684.044 279.176 684.122 278.661 684.273 278.192C684.43 277.723 684.645 277.32 684.918 276.983C685.196 276.646 685.528 276.388 685.914 276.207C686.3 276.021 686.729 275.929 687.203 275.929C687.584 275.929 687.928 275.982 688.236 276.09C688.548 276.192 688.814 276.361 689.034 276.595C689.259 276.83 689.43 277.135 689.547 277.511C689.664 277.882 689.723 278.338 689.723 278.88V284H687.95V278.873C687.95 278.492 687.894 278.192 687.782 277.972C687.674 277.748 687.516 277.589 687.306 277.496C687.101 277.398 686.844 277.35 686.537 277.35C686.234 277.35 685.963 277.413 685.724 277.54C685.484 277.667 685.282 277.84 685.116 278.06C684.955 278.28 684.83 278.534 684.742 278.822C684.654 279.11 684.61 279.417 684.61 279.745ZM695.018 284.146C694.432 284.146 693.902 284.051 693.429 283.861C692.96 283.666 692.56 283.395 692.228 283.048C691.9 282.701 691.649 282.293 691.473 281.825C691.297 281.356 691.209 280.851 691.209 280.309V280.016C691.209 279.396 691.3 278.834 691.48 278.331C691.661 277.828 691.913 277.398 692.235 277.042C692.557 276.681 692.938 276.405 693.377 276.214C693.817 276.024 694.293 275.929 694.806 275.929C695.372 275.929 695.868 276.024 696.292 276.214C696.717 276.405 697.069 276.673 697.347 277.02C697.63 277.362 697.84 277.77 697.977 278.243C698.119 278.717 698.189 279.239 698.189 279.811V280.565H692.066V279.298H696.446V279.159C696.437 278.841 696.373 278.543 696.256 278.265C696.144 277.987 695.97 277.762 695.736 277.591C695.501 277.42 695.189 277.335 694.798 277.335C694.505 277.335 694.244 277.398 694.015 277.525C693.79 277.647 693.602 277.826 693.451 278.06C693.299 278.294 693.182 278.578 693.099 278.91C693.021 279.237 692.982 279.605 692.982 280.016V280.309C692.982 280.655 693.028 280.978 693.121 281.275C693.219 281.568 693.36 281.825 693.546 282.044C693.731 282.264 693.956 282.438 694.22 282.564C694.483 282.687 694.784 282.748 695.121 282.748C695.545 282.748 695.924 282.662 696.256 282.491C696.588 282.32 696.876 282.079 697.12 281.766L698.05 282.667C697.879 282.916 697.657 283.155 697.384 283.385C697.11 283.609 696.776 283.792 696.38 283.934C695.99 284.076 695.536 284.146 695.018 284.146ZM701.339 277.584V284H699.574V276.075H701.258L701.339 277.584ZM703.763 276.024L703.749 277.665C703.641 277.645 703.524 277.63 703.397 277.621C703.275 277.611 703.153 277.606 703.031 277.606C702.728 277.606 702.462 277.65 702.232 277.738C702.003 277.821 701.81 277.943 701.654 278.104C701.502 278.26 701.385 278.451 701.302 278.675C701.219 278.9 701.17 279.151 701.156 279.43L700.753 279.459C700.753 278.961 700.802 278.5 700.899 278.075C700.997 277.65 701.144 277.276 701.339 276.954C701.539 276.632 701.788 276.38 702.086 276.2C702.389 276.019 702.738 275.929 703.133 275.929C703.241 275.929 703.355 275.938 703.478 275.958C703.604 275.978 703.7 276 703.763 276.024ZM709.073 282.411V278.631C709.073 278.348 709.022 278.104 708.919 277.899C708.817 277.694 708.661 277.535 708.451 277.423C708.246 277.311 707.987 277.254 707.674 277.254C707.386 277.254 707.137 277.303 706.927 277.401C706.717 277.499 706.554 277.63 706.437 277.796C706.319 277.962 706.261 278.15 706.261 278.36H704.503C704.503 278.048 704.579 277.745 704.73 277.452C704.881 277.159 705.101 276.898 705.389 276.668C705.677 276.439 706.021 276.258 706.422 276.126C706.822 275.995 707.271 275.929 707.77 275.929C708.365 275.929 708.893 276.029 709.352 276.229C709.815 276.429 710.179 276.732 710.443 277.137C710.711 277.538 710.846 278.041 710.846 278.646V282.169C710.846 282.53 710.87 282.855 710.919 283.143C710.973 283.426 711.048 283.673 711.146 283.883V284H709.337C709.254 283.81 709.188 283.568 709.139 283.275C709.095 282.977 709.073 282.689 709.073 282.411ZM709.33 279.181L709.344 280.272H708.077C707.75 280.272 707.462 280.304 707.213 280.367C706.964 280.426 706.756 280.514 706.59 280.631C706.424 280.748 706.3 280.89 706.217 281.056C706.134 281.222 706.092 281.41 706.092 281.62C706.092 281.83 706.141 282.022 706.239 282.198C706.336 282.369 706.478 282.503 706.664 282.601C706.854 282.699 707.083 282.748 707.352 282.748C707.713 282.748 708.028 282.674 708.297 282.528C708.57 282.376 708.785 282.193 708.941 281.979C709.098 281.759 709.181 281.551 709.19 281.356L709.762 282.14C709.703 282.34 709.603 282.555 709.461 282.784C709.32 283.014 709.134 283.233 708.905 283.443C708.68 283.648 708.409 283.817 708.092 283.949C707.779 284.081 707.418 284.146 707.008 284.146C706.49 284.146 706.029 284.044 705.624 283.839C705.218 283.629 704.901 283.348 704.671 282.997C704.442 282.64 704.327 282.237 704.327 281.788C704.327 281.368 704.405 280.997 704.562 280.675C704.723 280.348 704.957 280.074 705.265 279.854C705.577 279.635 705.958 279.469 706.407 279.356C706.856 279.239 707.369 279.181 707.945 279.181H709.33ZM714.581 272.75V284H712.809V272.75H714.581Z" fill="#1A1A1A"/>
<path d="M953 272.043C953 271.465 953.478 271 954.071 271H971.929C972.522 271 973 271.465 973 272.043C973 272.622 972.522 273.087 971.929 273.087H954.071C953.478 273.087 953 272.622 953 272.043ZM953 279C953 278.422 953.478 277.957 954.071 277.957H971.929C972.522 277.957 973 278.422 973 279C973 279.578 972.522 280.043 971.929 280.043H954.071C953.478 280.043 953 279.578 953 279ZM973 285.957C973 286.535 972.522 287 971.929 287H954.071C953.478 287 953 286.535 953 285.957C953 285.378 953.478 284.913 954.071 284.913H971.929C972.522 284.913 973 285.378 973 285.957Z" fill="#1A1A1A"/>
</g>
<path d="M649.5 327C649.5 322.858 652.858 319.5 657 319.5H983C987.142 319.5 990.5 322.858 990.5 327V726.5H649.5V327Z" fill="white" stroke="#E6E6E6"/>
<path d="M633 94C633 90.134 636.134 87 640 87H1001C1004.87 87 1008 90.134 1008 94V135H633V94Z" fill="#F8F8F8"/>
<mask id="path-30-inside-4_8300_7611" fill="white">
<path d="M633 93C633 89.134 636.134 86 640 86H741V135H633V93Z"/>
</mask>
<path d="M633 93C633 89.134 636.134 86 640 86H741V135H633V93Z" fill="white"/>
<path d="M633 93C633 88.0294 637.029 84 642 84H741V88H640C636.134 88 633 90.2386 633 93ZM741 135H633H741ZM633 135V86V135ZM741 86V135V86Z" fill="#0059FF" mask="url(#path-30-inside-4_8300_7611)"/>
<rect opacity="0.5" x="657" y="107" width="60" height="8" rx="2" fill="#AAAAAA"/>
<rect x="648" y="159" width="185" height="16" rx="4" fill="#E6E6E6"/>
<rect x="665" y="343" width="185" height="16" rx="4" fill="#E6E6E6"/>
<rect x="648" y="191" width="325" height="16" rx="4" fill="#E6E6E6"/>
<rect x="665" y="375" width="310" height="16" rx="4" fill="#E6E6E6"/>
<rect x="665" y="407" width="230" height="16" rx="4" fill="#E6E6E6"/>
<rect opacity="0.5" x="765" y="107" width="60" height="8" rx="2" fill="#AAAAAA"/>
<rect opacity="0.5" x="873" y="107" width="60" height="8" rx="2" fill="#AAAAAA"/>
<g filter="url(#filter2_ddd_8300_7611)">
<rect x="648" y="305" width="343" height="172" rx="8" fill="white"/>
<path d="M668.188 330.087V330.671C668.188 331.365 668.102 331.987 667.928 332.537C667.755 333.087 667.505 333.555 667.179 333.94C666.853 334.325 666.462 334.619 666.005 334.822C665.552 335.025 665.044 335.127 664.481 335.127C663.936 335.127 663.434 335.025 662.977 334.822C662.524 334.619 662.131 334.325 661.796 333.94C661.466 333.555 661.21 333.087 661.028 332.537C660.846 331.987 660.755 331.365 660.755 330.671V330.087C660.755 329.393 660.844 328.773 661.022 328.227C661.204 327.677 661.46 327.209 661.79 326.824C662.12 326.435 662.512 326.139 662.964 325.936C663.421 325.732 663.923 325.631 664.469 325.631C665.032 325.631 665.539 325.732 665.992 325.936C666.449 326.139 666.841 326.435 667.167 326.824C667.497 327.209 667.748 327.677 667.922 328.227C668.1 328.773 668.188 329.393 668.188 330.087ZM666.976 330.671V330.074C666.976 329.524 666.919 329.037 666.805 328.614C666.695 328.191 666.532 327.836 666.316 327.548C666.1 327.26 665.836 327.042 665.522 326.894C665.214 326.746 664.862 326.672 664.469 326.672C664.088 326.672 663.743 326.746 663.434 326.894C663.129 327.042 662.867 327.26 662.647 327.548C662.431 327.836 662.264 328.191 662.146 328.614C662.027 329.037 661.968 329.524 661.968 330.074V330.671C661.968 331.225 662.027 331.716 662.146 332.144C662.264 332.567 662.433 332.924 662.653 333.216C662.878 333.504 663.142 333.722 663.447 333.87C663.756 334.018 664.101 334.092 664.481 334.092C664.879 334.092 665.233 334.018 665.542 333.87C665.85 333.722 666.111 333.504 666.322 333.216C666.538 332.924 666.701 332.567 666.811 332.144C666.921 331.716 666.976 331.225 666.976 330.671ZM671.02 329.452V337.641H669.839V328.132H670.918L671.02 329.452ZM675.647 331.509V331.642C675.647 332.141 675.588 332.605 675.469 333.032C675.351 333.455 675.177 333.824 674.949 334.137C674.724 334.45 674.447 334.693 674.117 334.867C673.787 335.04 673.408 335.127 672.981 335.127C672.545 335.127 672.16 335.055 671.826 334.911C671.491 334.767 671.208 334.558 670.975 334.283C670.742 334.008 670.556 333.678 670.417 333.292C670.281 332.907 670.188 332.474 670.137 331.991V331.28C670.188 330.772 670.283 330.318 670.423 329.916C670.562 329.514 670.747 329.171 670.975 328.887C671.208 328.599 671.489 328.382 671.819 328.233C672.149 328.081 672.53 328.005 672.962 328.005C673.394 328.005 673.777 328.09 674.111 328.259C674.445 328.424 674.727 328.661 674.955 328.97C675.184 329.279 675.355 329.649 675.469 330.081C675.588 330.508 675.647 330.984 675.647 331.509ZM674.466 331.642V331.509C674.466 331.166 674.43 330.844 674.358 330.544C674.286 330.239 674.174 329.973 674.022 329.744C673.874 329.511 673.683 329.329 673.451 329.198C673.218 329.063 672.941 328.995 672.619 328.995C672.323 328.995 672.065 329.046 671.845 329.147C671.629 329.249 671.445 329.387 671.292 329.56C671.14 329.729 671.015 329.924 670.918 330.144C670.825 330.36 670.755 330.584 670.708 330.817V332.461C670.793 332.757 670.912 333.036 671.064 333.299C671.216 333.557 671.419 333.766 671.673 333.927C671.927 334.084 672.247 334.162 672.632 334.162C672.949 334.162 673.222 334.097 673.451 333.965C673.683 333.83 673.874 333.646 674.022 333.413C674.174 333.18 674.286 332.914 674.358 332.613C674.43 332.309 674.466 331.985 674.466 331.642ZM680.021 328.132V329.033H676.307V328.132H680.021ZM677.564 326.462H678.738V333.299C678.738 333.532 678.774 333.707 678.846 333.826C678.918 333.944 679.011 334.022 679.125 334.061C679.24 334.099 679.362 334.118 679.494 334.118C679.591 334.118 679.693 334.109 679.798 334.092C679.908 334.071 679.991 334.054 680.046 334.042L680.052 335C679.959 335.03 679.836 335.057 679.684 335.083C679.536 335.112 679.356 335.127 679.145 335.127C678.857 335.127 678.592 335.07 678.351 334.956C678.11 334.841 677.917 334.651 677.773 334.384C677.634 334.113 677.564 333.75 677.564 333.292V326.462ZM682.674 328.132V335H681.493V328.132H682.674ZM681.404 326.31C681.404 326.12 681.461 325.959 681.576 325.828C681.694 325.696 681.868 325.631 682.096 325.631C682.32 325.631 682.492 325.696 682.61 325.828C682.733 325.959 682.794 326.12 682.794 326.31C682.794 326.492 682.733 326.649 682.61 326.78C682.492 326.907 682.32 326.97 682.096 326.97C681.868 326.97 681.694 326.907 681.576 326.78C681.461 326.649 681.404 326.492 681.404 326.31ZM684.248 331.642V331.496C684.248 331.001 684.32 330.542 684.464 330.119C684.608 329.691 684.815 329.321 685.086 329.008C685.357 328.69 685.685 328.445 686.07 328.271C686.455 328.094 686.887 328.005 687.365 328.005C687.847 328.005 688.281 328.094 688.666 328.271C689.055 328.445 689.385 328.69 689.656 329.008C689.931 329.321 690.141 329.691 690.285 330.119C690.429 330.542 690.5 331.001 690.5 331.496V331.642C690.5 332.137 690.429 332.596 690.285 333.02C690.141 333.443 689.931 333.813 689.656 334.13C689.385 334.444 689.057 334.689 688.672 334.867C688.292 335.04 687.86 335.127 687.377 335.127C686.895 335.127 686.461 335.04 686.076 334.867C685.691 334.689 685.361 334.444 685.086 334.13C684.815 333.813 684.608 333.443 684.464 333.02C684.32 332.596 684.248 332.137 684.248 331.642ZM685.422 331.496V331.642C685.422 331.985 685.463 332.309 685.543 332.613C685.623 332.914 685.744 333.18 685.905 333.413C686.07 333.646 686.275 333.83 686.521 333.965C686.766 334.097 687.052 334.162 687.377 334.162C687.699 334.162 687.98 334.097 688.222 333.965C688.467 333.83 688.67 333.646 688.831 333.413C688.992 333.18 689.112 332.914 689.193 332.613C689.278 332.309 689.32 331.985 689.32 331.642V331.496C689.32 331.158 689.278 330.838 689.193 330.538C689.112 330.233 688.99 329.964 688.825 329.731C688.664 329.494 688.461 329.308 688.215 329.173C687.974 329.037 687.691 328.97 687.365 328.97C687.043 328.97 686.76 329.037 686.514 329.173C686.273 329.308 686.07 329.494 685.905 329.731C685.744 329.964 685.623 330.233 685.543 330.538C685.463 330.838 685.422 331.158 685.422 331.496ZM693.147 329.598V335H691.973V328.132H693.084L693.147 329.598ZM692.868 331.306L692.379 331.287C692.384 330.817 692.453 330.383 692.589 329.985C692.724 329.583 692.915 329.234 693.16 328.938C693.406 328.642 693.698 328.413 694.036 328.252C694.379 328.087 694.758 328.005 695.172 328.005C695.511 328.005 695.816 328.051 696.086 328.145C696.357 328.233 696.588 328.377 696.778 328.576C696.973 328.775 697.121 329.033 697.223 329.351C697.324 329.664 697.375 330.047 697.375 330.5V335H696.194V330.487C696.194 330.127 696.141 329.839 696.036 329.624C695.93 329.403 695.775 329.245 695.572 329.147C695.369 329.046 695.119 328.995 694.823 328.995C694.531 328.995 694.265 329.056 694.023 329.179C693.786 329.302 693.581 329.471 693.408 329.687C693.238 329.903 693.105 330.15 693.008 330.43C692.915 330.705 692.868 330.997 692.868 331.306ZM709.677 330.087V330.671C709.677 331.365 709.59 331.987 709.417 332.537C709.243 333.087 708.993 333.555 708.667 333.94C708.342 334.325 707.95 334.619 707.493 334.822C707.04 335.025 706.533 335.127 705.97 335.127C705.424 335.127 704.922 335.025 704.465 334.822C704.013 334.619 703.619 334.325 703.285 333.94C702.955 333.555 702.699 333.087 702.517 332.537C702.335 331.987 702.244 331.365 702.244 330.671V330.087C702.244 329.393 702.333 328.773 702.51 328.227C702.692 327.677 702.948 327.209 703.278 326.824C703.608 326.435 704 326.139 704.453 325.936C704.91 325.732 705.411 325.631 705.957 325.631C706.52 325.631 707.028 325.732 707.48 325.936C707.938 326.139 708.329 326.435 708.655 326.824C708.985 327.209 709.237 327.677 709.41 328.227C709.588 328.773 709.677 329.393 709.677 330.087ZM708.464 330.671V330.074C708.464 329.524 708.407 329.037 708.293 328.614C708.183 328.191 708.02 327.836 707.804 327.548C707.588 327.26 707.324 327.042 707.011 326.894C706.702 326.746 706.351 326.672 705.957 326.672C705.576 326.672 705.231 326.746 704.922 326.894C704.618 327.042 704.355 327.26 704.135 327.548C703.919 327.836 703.752 328.191 703.634 328.614C703.515 329.037 703.456 329.524 703.456 330.074V330.671C703.456 331.225 703.515 331.716 703.634 332.144C703.752 332.567 703.922 332.924 704.142 333.216C704.366 333.504 704.63 333.722 704.935 333.87C705.244 334.018 705.589 334.092 705.97 334.092C706.368 334.092 706.721 334.018 707.03 333.87C707.339 333.722 707.599 333.504 707.811 333.216C708.026 332.924 708.189 332.567 708.299 332.144C708.409 331.716 708.464 331.225 708.464 330.671ZM712.508 329.598V335H711.333V328.132H712.444L712.508 329.598ZM712.229 331.306L711.74 331.287C711.744 330.817 711.814 330.383 711.949 329.985C712.085 329.583 712.275 329.234 712.521 328.938C712.766 328.642 713.058 328.413 713.396 328.252C713.739 328.087 714.118 328.005 714.533 328.005C714.871 328.005 715.176 328.051 715.447 328.145C715.718 328.233 715.948 328.377 716.139 328.576C716.333 328.775 716.481 329.033 716.583 329.351C716.685 329.664 716.735 330.047 716.735 330.5V335H715.555V330.487C715.555 330.127 715.502 329.839 715.396 329.624C715.29 329.403 715.136 329.245 714.933 329.147C714.729 329.046 714.48 328.995 714.184 328.995C713.892 328.995 713.625 329.056 713.384 329.179C713.147 329.302 712.942 329.471 712.768 329.687C712.599 329.903 712.465 330.15 712.368 330.43C712.275 330.705 712.229 330.997 712.229 331.306ZM721.369 335.127C720.891 335.127 720.457 335.047 720.068 334.886C719.683 334.721 719.351 334.49 719.071 334.194C718.796 333.898 718.585 333.546 718.437 333.14C718.288 332.734 718.214 332.29 718.214 331.807V331.541C718.214 330.982 718.297 330.485 718.462 330.049C718.627 329.609 718.851 329.236 719.135 328.932C719.418 328.627 719.74 328.396 720.1 328.24C720.459 328.083 720.832 328.005 721.217 328.005C721.708 328.005 722.131 328.09 722.486 328.259C722.846 328.428 723.14 328.665 723.369 328.97C723.597 329.27 723.766 329.626 723.876 330.036C723.986 330.442 724.042 330.887 724.042 331.369V331.896H718.913V330.938H722.867V330.849C722.85 330.544 722.787 330.248 722.677 329.96C722.571 329.672 722.402 329.435 722.169 329.249C721.936 329.063 721.619 328.97 721.217 328.97C720.95 328.97 720.705 329.027 720.48 329.141C720.256 329.251 720.064 329.416 719.903 329.636C719.742 329.856 719.617 330.125 719.528 330.442C719.439 330.76 719.395 331.126 719.395 331.541V331.807C719.395 332.133 719.439 332.44 719.528 332.728C719.621 333.011 719.755 333.261 719.928 333.477C720.106 333.692 720.32 333.862 720.569 333.984C720.823 334.107 721.111 334.168 721.433 334.168C721.847 334.168 722.199 334.084 722.486 333.915C722.774 333.745 723.026 333.519 723.242 333.235L723.953 333.8C723.805 334.025 723.616 334.238 723.388 334.441C723.159 334.645 722.878 334.81 722.543 334.937C722.213 335.063 721.822 335.127 721.369 335.127Z" fill="#505050"/>
<path d="M668.188 370.087V370.671C668.188 371.365 668.102 371.987 667.928 372.537C667.755 373.087 667.505 373.555 667.179 373.94C666.853 374.325 666.462 374.619 666.005 374.822C665.552 375.025 665.044 375.127 664.481 375.127C663.936 375.127 663.434 375.025 662.977 374.822C662.524 374.619 662.131 374.325 661.796 373.94C661.466 373.555 661.21 373.087 661.028 372.537C660.846 371.987 660.755 371.365 660.755 370.671V370.087C660.755 369.393 660.844 368.773 661.022 368.227C661.204 367.677 661.46 367.209 661.79 366.824C662.12 366.435 662.512 366.139 662.964 365.936C663.421 365.732 663.923 365.631 664.469 365.631C665.032 365.631 665.539 365.732 665.992 365.936C666.449 366.139 666.841 366.435 667.167 366.824C667.497 367.209 667.748 367.677 667.922 368.227C668.1 368.773 668.188 369.393 668.188 370.087ZM666.976 370.671V370.074C666.976 369.524 666.919 369.037 666.805 368.614C666.695 368.191 666.532 367.836 666.316 367.548C666.1 367.26 665.836 367.042 665.522 366.894C665.214 366.746 664.862 366.672 664.469 366.672C664.088 366.672 663.743 366.746 663.434 366.894C663.129 367.042 662.867 367.26 662.647 367.548C662.431 367.836 662.264 368.191 662.146 368.614C662.027 369.037 661.968 369.524 661.968 370.074V370.671C661.968 371.225 662.027 371.716 662.146 372.144C662.264 372.567 662.433 372.924 662.653 373.216C662.878 373.504 663.142 373.722 663.447 373.87C663.756 374.018 664.101 374.092 664.481 374.092C664.879 374.092 665.233 374.018 665.542 373.87C665.85 373.722 666.111 373.504 666.322 373.216C666.538 372.924 666.701 372.567 666.811 372.144C666.921 371.716 666.976 371.225 666.976 370.671ZM671.02 369.452V377.641H669.839V368.132H670.918L671.02 369.452ZM675.647 371.509V371.642C675.647 372.141 675.588 372.605 675.469 373.032C675.351 373.455 675.177 373.824 674.949 374.137C674.724 374.45 674.447 374.693 674.117 374.867C673.787 375.04 673.408 375.127 672.981 375.127C672.545 375.127 672.16 375.055 671.826 374.911C671.491 374.767 671.208 374.558 670.975 374.283C670.742 374.008 670.556 373.678 670.417 373.292C670.281 372.907 670.188 372.474 670.137 371.991V371.28C670.188 370.772 670.283 370.318 670.423 369.916C670.562 369.514 670.747 369.171 670.975 368.887C671.208 368.599 671.489 368.382 671.819 368.233C672.149 368.081 672.53 368.005 672.962 368.005C673.394 368.005 673.777 368.09 674.111 368.259C674.445 368.424 674.727 368.661 674.955 368.97C675.184 369.279 675.355 369.649 675.469 370.081C675.588 370.508 675.647 370.984 675.647 371.509ZM674.466 371.642V371.509C674.466 371.166 674.43 370.844 674.358 370.544C674.286 370.239 674.174 369.973 674.022 369.744C673.874 369.511 673.683 369.329 673.451 369.198C673.218 369.063 672.941 368.995 672.619 368.995C672.323 368.995 672.065 369.046 671.845 369.147C671.629 369.249 671.445 369.387 671.292 369.56C671.14 369.729 671.015 369.924 670.918 370.144C670.825 370.36 670.755 370.584 670.708 370.817V372.461C670.793 372.757 670.912 373.036 671.064 373.299C671.216 373.557 671.419 373.766 671.673 373.927C671.927 374.084 672.247 374.162 672.632 374.162C672.949 374.162 673.222 374.097 673.451 373.965C673.683 373.83 673.874 373.646 674.022 373.413C674.174 373.18 674.286 372.914 674.358 372.613C674.43 372.309 674.466 371.985 674.466 371.642ZM680.021 368.132V369.033H676.307V368.132H680.021ZM677.564 366.462H678.738V373.299C678.738 373.532 678.774 373.707 678.846 373.826C678.918 373.944 679.011 374.022 679.125 374.061C679.24 374.099 679.362 374.118 679.494 374.118C679.591 374.118 679.693 374.109 679.798 374.092C679.908 374.071 679.991 374.054 680.046 374.042L680.052 375C679.959 375.03 679.836 375.057 679.684 375.083C679.536 375.112 679.356 375.127 679.145 375.127C678.857 375.127 678.592 375.07 678.351 374.956C678.11 374.841 677.917 374.651 677.773 374.384C677.634 374.113 677.564 373.75 677.564 373.292V366.462ZM682.674 368.132V375H681.493V368.132H682.674ZM681.404 366.31C681.404 366.12 681.461 365.959 681.576 365.828C681.694 365.696 681.868 365.631 682.096 365.631C682.32 365.631 682.492 365.696 682.61 365.828C682.733 365.959 682.794 366.12 682.794 366.31C682.794 366.492 682.733 366.649 682.61 366.78C682.492 366.907 682.32 366.97 682.096 366.97C681.868 366.97 681.694 366.907 681.576 366.78C681.461 366.649 681.404 366.492 681.404 366.31ZM684.248 371.642V371.496C684.248 371.001 684.32 370.542 684.464 370.119C684.608 369.691 684.815 369.321 685.086 369.008C685.357 368.69 685.685 368.445 686.07 368.271C686.455 368.094 686.887 368.005 687.365 368.005C687.847 368.005 688.281 368.094 688.666 368.271C689.055 368.445 689.385 368.69 689.656 369.008C689.931 369.321 690.141 369.691 690.285 370.119C690.429 370.542 690.5 371.001 690.5 371.496V371.642C690.5 372.137 690.429 372.596 690.285 373.02C690.141 373.443 689.931 373.813 689.656 374.13C689.385 374.444 689.057 374.689 688.672 374.867C688.292 375.04 687.86 375.127 687.377 375.127C686.895 375.127 686.461 375.04 686.076 374.867C685.691 374.689 685.361 374.444 685.086 374.13C684.815 373.813 684.608 373.443 684.464 373.02C684.32 372.596 684.248 372.137 684.248 371.642ZM685.422 371.496V371.642C685.422 371.985 685.463 372.309 685.543 372.613C685.623 372.914 685.744 373.18 685.905 373.413C686.07 373.646 686.275 373.83 686.521 373.965C686.766 374.097 687.052 374.162 687.377 374.162C687.699 374.162 687.98 374.097 688.222 373.965C688.467 373.83 688.67 373.646 688.831 373.413C688.992 373.18 689.112 372.914 689.193 372.613C689.278 372.309 689.32 371.985 689.32 371.642V371.496C689.32 371.158 689.278 370.838 689.193 370.538C689.112 370.233 688.99 369.964 688.825 369.731C688.664 369.494 688.461 369.308 688.215 369.173C687.974 369.037 687.691 368.97 687.365 368.97C687.043 368.97 686.76 369.037 686.514 369.173C686.273 369.308 686.07 369.494 685.905 369.731C685.744 369.964 685.623 370.233 685.543 370.538C685.463 370.838 685.422 371.158 685.422 371.496ZM693.147 369.598V375H691.973V368.132H693.084L693.147 369.598ZM692.868 371.306L692.379 371.287C692.384 370.817 692.453 370.383 692.589 369.985C692.724 369.583 692.915 369.234 693.16 368.938C693.406 368.642 693.698 368.413 694.036 368.252C694.379 368.087 694.758 368.005 695.172 368.005C695.511 368.005 695.816 368.051 696.086 368.145C696.357 368.233 696.588 368.377 696.778 368.576C696.973 368.775 697.121 369.033 697.223 369.351C697.324 369.664 697.375 370.047 697.375 370.5V375H696.194V370.487C696.194 370.127 696.141 369.839 696.036 369.624C695.93 369.403 695.775 369.245 695.572 369.147C695.369 369.046 695.119 368.995 694.823 368.995C694.531 368.995 694.265 369.056 694.023 369.179C693.786 369.302 693.581 369.471 693.408 369.687C693.238 369.903 693.105 370.15 693.008 370.43C692.915 370.705 692.868 370.997 692.868 371.306ZM705.722 365.758V375H704.516V365.758H705.722ZM708.693 365.758V366.761H701.552V365.758H708.693ZM711.257 373.781L713.022 368.132H713.796L713.644 369.255L711.848 375H711.092L711.257 373.781ZM710.07 368.132L711.575 373.845L711.683 375H710.889L708.896 368.132H710.07ZM715.485 373.8L716.919 368.132H718.087L716.094 375H715.307L715.485 373.8ZM713.968 368.132L715.694 373.686L715.891 375H715.142L713.295 369.243L713.143 368.132H713.968ZM718.982 371.642V371.496C718.982 371.001 719.054 370.542 719.198 370.119C719.342 369.691 719.549 369.321 719.82 369.008C720.091 368.69 720.419 368.445 720.804 368.271C721.189 368.094 721.621 368.005 722.099 368.005C722.582 368.005 723.015 368.094 723.4 368.271C723.79 368.445 724.12 368.69 724.391 369.008C724.666 369.321 724.875 369.691 725.019 370.119C725.163 370.542 725.235 371.001 725.235 371.496V371.642C725.235 372.137 725.163 372.596 725.019 373.02C724.875 373.443 724.666 373.813 724.391 374.13C724.12 374.444 723.792 374.689 723.407 374.867C723.026 375.04 722.594 375.127 722.112 375.127C721.629 375.127 721.196 375.04 720.811 374.867C720.425 374.689 720.095 374.444 719.82 374.13C719.549 373.813 719.342 373.443 719.198 373.02C719.054 372.596 718.982 372.137 718.982 371.642ZM720.157 371.496V371.642C720.157 371.985 720.197 372.309 720.277 372.613C720.358 372.914 720.478 373.18 720.639 373.413C720.804 373.646 721.009 373.83 721.255 373.965C721.5 374.097 721.786 374.162 722.112 374.162C722.433 374.162 722.715 374.097 722.956 373.965C723.201 373.83 723.405 373.646 723.565 373.413C723.726 373.18 723.847 372.914 723.927 372.613C724.012 372.309 724.054 371.985 724.054 371.642V371.496C724.054 371.158 724.012 370.838 723.927 370.538C723.847 370.233 723.724 369.964 723.559 369.731C723.398 369.494 723.195 369.308 722.95 369.173C722.708 369.037 722.425 368.97 722.099 368.97C721.778 368.97 721.494 369.037 721.249 369.173C721.007 369.308 720.804 369.494 720.639 369.731C720.478 369.964 720.358 370.233 720.277 370.538C720.197 370.838 720.157 371.158 720.157 371.496Z" fill="#505050"/>
<path d="M668.188 410.087V410.671C668.188 411.365 668.102 411.987 667.928 412.537C667.755 413.087 667.505 413.555 667.179 413.94C666.853 414.325 666.462 414.619 666.005 414.822C665.552 415.025 665.044 415.127 664.481 415.127C663.936 415.127 663.434 415.025 662.977 414.822C662.524 414.619 662.131 414.325 661.796 413.94C661.466 413.555 661.21 413.087 661.028 412.537C660.846 411.987 660.755 411.365 660.755 410.671V410.087C660.755 409.393 660.844 408.773 661.022 408.227C661.204 407.677 661.46 407.209 661.79 406.824C662.12 406.435 662.512 406.139 662.964 405.936C663.421 405.732 663.923 405.631 664.469 405.631C665.032 405.631 665.539 405.732 665.992 405.936C666.449 406.139 666.841 406.435 667.167 406.824C667.497 407.209 667.748 407.677 667.922 408.227C668.1 408.773 668.188 409.393 668.188 410.087ZM666.976 410.671V410.074C666.976 409.524 666.919 409.037 666.805 408.614C666.695 408.191 666.532 407.836 666.316 407.548C666.1 407.26 665.836 407.042 665.522 406.894C665.214 406.746 664.862 406.672 664.469 406.672C664.088 406.672 663.743 406.746 663.434 406.894C663.129 407.042 662.867 407.26 662.647 407.548C662.431 407.836 662.264 408.191 662.146 408.614C662.027 409.037 661.968 409.524 661.968 410.074V410.671C661.968 411.225 662.027 411.716 662.146 412.144C662.264 412.567 662.433 412.924 662.653 413.216C662.878 413.504 663.142 413.722 663.447 413.87C663.756 414.018 664.101 414.092 664.481 414.092C664.879 414.092 665.233 414.018 665.542 413.87C665.85 413.722 666.111 413.504 666.322 413.216C666.538 412.924 666.701 412.567 666.811 412.144C666.921 411.716 666.976 411.225 666.976 410.671ZM671.02 409.452V417.641H669.839V408.132H670.918L671.02 409.452ZM675.647 411.509V411.642C675.647 412.141 675.588 412.605 675.469 413.032C675.351 413.455 675.177 413.824 674.949 414.137C674.724 414.45 674.447 414.693 674.117 414.867C673.787 415.04 673.408 415.127 672.981 415.127C672.545 415.127 672.16 415.055 671.826 414.911C671.491 414.767 671.208 414.558 670.975 414.283C670.742 414.008 670.556 413.678 670.417 413.292C670.281 412.907 670.188 412.474 670.137 411.991V411.28C670.188 410.772 670.283 410.318 670.423 409.916C670.562 409.514 670.747 409.171 670.975 408.887C671.208 408.599 671.489 408.382 671.819 408.233C672.149 408.081 672.53 408.005 672.962 408.005C673.394 408.005 673.777 408.09 674.111 408.259C674.445 408.424 674.727 408.661 674.955 408.97C675.184 409.279 675.355 409.649 675.469 410.081C675.588 410.508 675.647 410.984 675.647 411.509ZM674.466 411.642V411.509C674.466 411.166 674.43 410.844 674.358 410.544C674.286 410.239 674.174 409.973 674.022 409.744C673.874 409.511 673.683 409.329 673.451 409.198C673.218 409.063 672.941 408.995 672.619 408.995C672.323 408.995 672.065 409.046 671.845 409.147C671.629 409.249 671.445 409.387 671.292 409.56C671.14 409.729 671.015 409.924 670.918 410.144C670.825 410.36 670.755 410.584 670.708 410.817V412.461C670.793 412.757 670.912 413.036 671.064 413.299C671.216 413.557 671.419 413.766 671.673 413.927C671.927 414.084 672.247 414.162 672.632 414.162C672.949 414.162 673.222 414.097 673.451 413.965C673.683 413.83 673.874 413.646 674.022 413.413C674.174 413.18 674.286 412.914 674.358 412.613C674.43 412.309 674.466 411.985 674.466 411.642ZM680.021 408.132V409.033H676.307V408.132H680.021ZM677.564 406.462H678.738V413.299C678.738 413.532 678.774 413.707 678.846 413.826C678.918 413.944 679.011 414.022 679.125 414.061C679.24 414.099 679.362 414.118 679.494 414.118C679.591 414.118 679.693 414.109 679.798 414.092C679.908 414.071 679.991 414.054 680.046 414.042L680.052 415C679.959 415.03 679.836 415.057 679.684 415.083C679.536 415.112 679.356 415.127 679.145 415.127C678.857 415.127 678.592 415.07 678.351 414.956C678.11 414.841 677.917 414.651 677.773 414.384C677.634 414.113 677.564 413.75 677.564 413.292V406.462ZM682.674 408.132V415H681.493V408.132H682.674ZM681.404 406.31C681.404 406.12 681.461 405.959 681.576 405.828C681.694 405.696 681.868 405.631 682.096 405.631C682.32 405.631 682.492 405.696 682.61 405.828C682.733 405.959 682.794 406.12 682.794 406.31C682.794 406.492 682.733 406.649 682.61 406.78C682.492 406.907 682.32 406.97 682.096 406.97C681.868 406.97 681.694 406.907 681.576 406.78C681.461 406.649 681.404 406.492 681.404 406.31ZM684.248 411.642V411.496C684.248 411.001 684.32 410.542 684.464 410.119C684.608 409.691 684.815 409.321 685.086 409.008C685.357 408.69 685.685 408.445 686.07 408.271C686.455 408.094 686.887 408.005 687.365 408.005C687.847 408.005 688.281 408.094 688.666 408.271C689.055 408.445 689.385 408.69 689.656 409.008C689.931 409.321 690.141 409.691 690.285 410.119C690.429 410.542 690.5 411.001 690.5 411.496V411.642C690.5 412.137 690.429 412.596 690.285 413.02C690.141 413.443 689.931 413.813 689.656 414.13C689.385 414.444 689.057 414.689 688.672 414.867C688.292 415.04 687.86 415.127 687.377 415.127C686.895 415.127 686.461 415.04 686.076 414.867C685.691 414.689 685.361 414.444 685.086 414.13C684.815 413.813 684.608 413.443 684.464 413.02C684.32 412.596 684.248 412.137 684.248 411.642ZM685.422 411.496V411.642C685.422 411.985 685.463 412.309 685.543 412.613C685.623 412.914 685.744 413.18 685.905 413.413C686.07 413.646 686.275 413.83 686.521 413.965C686.766 414.097 687.052 414.162 687.377 414.162C687.699 414.162 687.98 414.097 688.222 413.965C688.467 413.83 688.67 413.646 688.831 413.413C688.992 413.18 689.112 412.914 689.193 412.613C689.278 412.309 689.32 411.985 689.32 411.642V411.496C689.32 411.158 689.278 410.838 689.193 410.538C689.112 410.233 688.99 409.964 688.825 409.731C688.664 409.494 688.461 409.308 688.215 409.173C687.974 409.037 687.691 408.97 687.365 408.97C687.043 408.97 686.76 409.037 686.514 409.173C686.273 409.308 686.07 409.494 685.905 409.731C685.744 409.964 685.623 410.233 685.543 410.538C685.463 410.838 685.422 411.158 685.422 411.496ZM693.147 409.598V415H691.973V408.132H693.084L693.147 409.598ZM692.868 411.306L692.379 411.287C692.384 410.817 692.453 410.383 692.589 409.985C692.724 409.583 692.915 409.234 693.16 408.938C693.406 408.642 693.698 408.413 694.036 408.252C694.379 408.087 694.758 408.005 695.172 408.005C695.511 408.005 695.816 408.051 696.086 408.145C696.357 408.233 696.588 408.377 696.778 408.576C696.973 408.775 697.121 409.033 697.223 409.351C697.324 409.664 697.375 410.047 697.375 410.5V415H696.194V410.487C696.194 410.127 696.141 409.839 696.036 409.624C695.93 409.403 695.775 409.245 695.572 409.147C695.369 409.046 695.119 408.995 694.823 408.995C694.531 408.995 694.265 409.056 694.023 409.179C693.786 409.302 693.581 409.471 693.408 409.687C693.238 409.903 693.105 410.15 693.008 410.43C692.915 410.705 692.868 410.997 692.868 411.306ZM705.722 405.758V415H704.516V405.758H705.722ZM708.693 405.758V406.761H701.552V405.758H708.693ZM711.061 405.25V415H709.886V405.25H711.061ZM710.781 411.306L710.292 411.287C710.297 410.817 710.367 410.383 710.502 409.985C710.637 409.583 710.828 409.234 711.073 408.938C711.319 408.642 711.611 408.413 711.949 408.252C712.292 408.087 712.671 408.005 713.085 408.005C713.424 408.005 713.729 408.051 714 408.145C714.27 408.233 714.501 408.377 714.691 408.576C714.886 408.775 715.034 409.033 715.136 409.351C715.237 409.664 715.288 410.047 715.288 410.5V415H714.107V410.487C714.107 410.127 714.055 409.839 713.949 409.624C713.843 409.403 713.688 409.245 713.485 409.147C713.282 409.046 713.033 408.995 712.736 408.995C712.444 408.995 712.178 409.056 711.937 409.179C711.7 409.302 711.494 409.471 711.321 409.687C711.152 409.903 711.018 410.15 710.921 410.43C710.828 410.705 710.781 410.997 710.781 411.306ZM718.221 409.211V415H717.046V408.132H718.189L718.221 409.211ZM720.366 408.094L720.36 409.186C720.263 409.164 720.169 409.152 720.081 409.147C719.996 409.139 719.899 409.135 719.789 409.135C719.518 409.135 719.279 409.177 719.071 409.262C718.864 409.346 718.688 409.465 718.544 409.617C718.401 409.77 718.286 409.951 718.202 410.163C718.121 410.37 718.068 410.599 718.043 410.849L717.713 411.039C717.713 410.624 717.753 410.235 717.833 409.871C717.918 409.507 718.047 409.186 718.221 408.906C718.394 408.623 718.614 408.403 718.881 408.246C719.152 408.085 719.473 408.005 719.846 408.005C719.93 408.005 720.028 408.015 720.138 408.037C720.248 408.054 720.324 408.073 720.366 408.094ZM724.175 415.127C723.697 415.127 723.263 415.047 722.874 414.886C722.488 414.721 722.156 414.49 721.877 414.194C721.602 413.898 721.39 413.546 721.242 413.14C721.094 412.734 721.02 412.29 721.02 411.807V411.541C721.02 410.982 721.103 410.485 721.268 410.049C721.433 409.609 721.657 409.236 721.94 408.932C722.224 408.627 722.546 408.396 722.905 408.24C723.265 408.083 723.637 408.005 724.022 408.005C724.513 408.005 724.937 408.09 725.292 408.259C725.652 408.428 725.946 408.665 726.174 408.97C726.403 409.27 726.572 409.626 726.682 410.036C726.792 410.442 726.847 410.887 726.847 411.369V411.896H721.718V410.938H725.673V410.849C725.656 410.544 725.592 410.248 725.482 409.96C725.377 409.672 725.207 409.435 724.975 409.249C724.742 409.063 724.424 408.97 724.022 408.97C723.756 408.97 723.51 409.027 723.286 409.141C723.062 409.251 722.869 409.416 722.708 409.636C722.548 409.856 722.423 410.125 722.334 410.442C722.245 410.76 722.201 411.126 722.201 411.541V411.807C722.201 412.133 722.245 412.44 722.334 412.728C722.427 413.011 722.56 413.261 722.734 413.477C722.912 413.692 723.125 413.862 723.375 413.984C723.629 414.107 723.917 414.168 724.238 414.168C724.653 414.168 725.004 414.084 725.292 413.915C725.58 413.745 725.832 413.519 726.047 413.235L726.758 413.8C726.61 414.025 726.422 414.238 726.193 414.441C725.965 414.645 725.683 414.81 725.349 414.937C725.019 415.063 724.628 415.127 724.175 415.127ZM731.068 415.127C730.59 415.127 730.156 415.047 729.767 414.886C729.382 414.721 729.05 414.49 728.771 414.194C728.495 413.898 728.284 413.546 728.136 413.14C727.988 412.734 727.914 412.29 727.914 411.807V411.541C727.914 410.982 727.996 410.485 728.161 410.049C728.326 409.609 728.55 409.236 728.834 408.932C729.118 408.627 729.439 408.396 729.799 408.24C730.159 408.083 730.531 408.005 730.916 408.005C731.407 408.005 731.83 408.09 732.186 408.259C732.545 408.428 732.839 408.665 733.068 408.97C733.296 409.27 733.466 409.626 733.576 410.036C733.686 410.442 733.741 410.887 733.741 411.369V411.896H728.612V410.938H732.566V410.849C732.549 410.544 732.486 410.248 732.376 409.96C732.27 409.672 732.101 409.435 731.868 409.249C731.635 409.063 731.318 408.97 730.916 408.97C730.649 408.97 730.404 409.027 730.18 409.141C729.955 409.251 729.763 409.416 729.602 409.636C729.441 409.856 729.316 410.125 729.228 410.442C729.139 410.76 729.094 411.126 729.094 411.541V411.807C729.094 412.133 729.139 412.44 729.228 412.728C729.321 413.011 729.454 413.261 729.627 413.477C729.805 413.692 730.019 413.862 730.269 413.984C730.522 414.107 730.81 414.168 731.132 414.168C731.547 414.168 731.898 414.084 732.186 413.915C732.473 413.745 732.725 413.519 732.941 413.235L733.652 413.8C733.504 414.025 733.315 414.238 733.087 414.441C732.858 414.645 732.577 414.81 732.243 414.937C731.913 415.063 731.521 415.127 731.068 415.127Z" fill="#505050"/>
<path d="M668.188 450.087V450.671C668.188 451.365 668.102 451.987 667.928 452.537C667.755 453.087 667.505 453.555 667.179 453.94C666.853 454.325 666.462 454.619 666.005 454.822C665.552 455.025 665.044 455.127 664.481 455.127C663.936 455.127 663.434 455.025 662.977 454.822C662.524 454.619 662.131 454.325 661.796 453.94C661.466 453.555 661.21 453.087 661.028 452.537C660.846 451.987 660.755 451.365 660.755 450.671V450.087C660.755 449.393 660.844 448.773 661.022 448.227C661.204 447.677 661.46 447.209 661.79 446.824C662.12 446.435 662.512 446.139 662.964 445.936C663.421 445.732 663.923 445.631 664.469 445.631C665.032 445.631 665.539 445.732 665.992 445.936C666.449 446.139 666.841 446.435 667.167 446.824C667.497 447.209 667.748 447.677 667.922 448.227C668.1 448.773 668.188 449.393 668.188 450.087ZM666.976 450.671V450.074C666.976 449.524 666.919 449.037 666.805 448.614C666.695 448.191 666.532 447.836 666.316 447.548C666.1 447.26 665.836 447.042 665.522 446.894C665.214 446.746 664.862 446.672 664.469 446.672C664.088 446.672 663.743 446.746 663.434 446.894C663.129 447.042 662.867 447.26 662.647 447.548C662.431 447.836 662.264 448.191 662.146 448.614C662.027 449.037 661.968 449.524 661.968 450.074V450.671C661.968 451.225 662.027 451.716 662.146 452.144C662.264 452.567 662.433 452.924 662.653 453.216C662.878 453.504 663.142 453.722 663.447 453.87C663.756 454.018 664.101 454.092 664.481 454.092C664.879 454.092 665.233 454.018 665.542 453.87C665.85 453.722 666.111 453.504 666.322 453.216C666.538 452.924 666.701 452.567 666.811 452.144C666.921 451.716 666.976 451.225 666.976 450.671ZM671.02 449.452V457.641H669.839V448.132H670.918L671.02 449.452ZM675.647 451.509V451.642C675.647 452.141 675.588 452.605 675.469 453.032C675.351 453.455 675.177 453.824 674.949 454.137C674.724 454.45 674.447 454.693 674.117 454.867C673.787 455.04 673.408 455.127 672.981 455.127C672.545 455.127 672.16 455.055 671.826 454.911C671.491 454.767 671.208 454.558 670.975 454.283C670.742 454.008 670.556 453.678 670.417 453.292C670.281 452.907 670.188 452.474 670.137 451.991V451.28C670.188 450.772 670.283 450.318 670.423 449.916C670.562 449.514 670.747 449.171 670.975 448.887C671.208 448.599 671.489 448.382 671.819 448.233C672.149 448.081 672.53 448.005 672.962 448.005C673.394 448.005 673.777 448.09 674.111 448.259C674.445 448.424 674.727 448.661 674.955 448.97C675.184 449.279 675.355 449.649 675.469 450.081C675.588 450.508 675.647 450.984 675.647 451.509ZM674.466 451.642V451.509C674.466 451.166 674.43 450.844 674.358 450.544C674.286 450.239 674.174 449.973 674.022 449.744C673.874 449.511 673.683 449.329 673.451 449.198C673.218 449.063 672.941 448.995 672.619 448.995C672.323 448.995 672.065 449.046 671.845 449.147C671.629 449.249 671.445 449.387 671.292 449.56C671.14 449.729 671.015 449.924 670.918 450.144C670.825 450.36 670.755 450.584 670.708 450.817V452.461C670.793 452.757 670.912 453.036 671.064 453.299C671.216 453.557 671.419 453.766 671.673 453.927C671.927 454.084 672.247 454.162 672.632 454.162C672.949 454.162 673.222 454.097 673.451 453.965C673.683 453.83 673.874 453.646 674.022 453.413C674.174 453.18 674.286 452.914 674.358 452.613C674.43 452.309 674.466 451.985 674.466 451.642ZM680.021 448.132V449.033H676.307V448.132H680.021ZM677.564 446.462H678.738V453.299C678.738 453.532 678.774 453.707 678.846 453.826C678.918 453.944 679.011 454.022 679.125 454.061C679.24 454.099 679.362 454.118 679.494 454.118C679.591 454.118 679.693 454.109 679.798 454.092C679.908 454.071 679.991 454.054 680.046 454.042L680.052 455C679.959 455.03 679.836 455.057 679.684 455.083C679.536 455.112 679.356 455.127 679.145 455.127C678.857 455.127 678.592 455.07 678.351 454.956C678.11 454.841 677.917 454.651 677.773 454.384C677.634 454.113 677.564 453.75 677.564 453.292V446.462ZM682.674 448.132V455H681.493V448.132H682.674ZM681.404 446.31C681.404 446.12 681.461 445.959 681.576 445.828C681.694 445.696 681.868 445.631 682.096 445.631C682.32 445.631 682.492 445.696 682.61 445.828C682.733 445.959 682.794 446.12 682.794 446.31C682.794 446.492 682.733 446.649 682.61 446.78C682.492 446.907 682.32 446.97 682.096 446.97C681.868 446.97 681.694 446.907 681.576 446.78C681.461 446.649 681.404 446.492 681.404 446.31ZM684.248 451.642V451.496C684.248 451.001 684.32 450.542 684.464 450.119C684.608 449.691 684.815 449.321 685.086 449.008C685.357 448.69 685.685 448.445 686.07 448.271C686.455 448.094 686.887 448.005 687.365 448.005C687.847 448.005 688.281 448.094 688.666 448.271C689.055 448.445 689.385 448.69 689.656 449.008C689.931 449.321 690.141 449.691 690.285 450.119C690.429 450.542 690.5 451.001 690.5 451.496V451.642C690.5 452.137 690.429 452.596 690.285 453.02C690.141 453.443 689.931 453.813 689.656 454.13C689.385 454.444 689.057 454.689 688.672 454.867C688.292 455.04 687.86 455.127 687.377 455.127C686.895 455.127 686.461 455.04 686.076 454.867C685.691 454.689 685.361 454.444 685.086 454.13C684.815 453.813 684.608 453.443 684.464 453.02C684.32 452.596 684.248 452.137 684.248 451.642ZM685.422 451.496V451.642C685.422 451.985 685.463 452.309 685.543 452.613C685.623 452.914 685.744 453.18 685.905 453.413C686.07 453.646 686.275 453.83 686.521 453.965C686.766 454.097 687.052 454.162 687.377 454.162C687.699 454.162 687.98 454.097 688.222 453.965C688.467 453.83 688.67 453.646 688.831 453.413C688.992 453.18 689.112 452.914 689.193 452.613C689.278 452.309 689.32 451.985 689.32 451.642V451.496C689.32 451.158 689.278 450.838 689.193 450.538C689.112 450.233 688.99 449.964 688.825 449.731C688.664 449.494 688.461 449.308 688.215 449.173C687.974 449.037 687.691 448.97 687.365 448.97C687.043 448.97 686.76 449.037 686.514 449.173C686.273 449.308 686.07 449.494 685.905 449.731C685.744 449.964 685.623 450.233 685.543 450.538C685.463 450.838 685.422 451.158 685.422 451.496ZM693.147 449.598V455H691.973V448.132H693.084L693.147 449.598ZM692.868 451.306L692.379 451.287C692.384 450.817 692.453 450.383 692.589 449.985C692.724 449.583 692.915 449.234 693.16 448.938C693.406 448.642 693.698 448.413 694.036 448.252C694.379 448.087 694.758 448.005 695.172 448.005C695.511 448.005 695.816 448.051 696.086 448.145C696.357 448.233 696.588 448.377 696.778 448.576C696.973 448.775 697.121 449.033 697.223 449.351C697.324 449.664 697.375 450.047 697.375 450.5V455H696.194V450.487C696.194 450.127 696.141 449.839 696.036 449.624C695.93 449.403 695.775 449.245 695.572 449.147C695.369 449.046 695.119 448.995 694.823 448.995C694.531 448.995 694.265 449.056 694.023 449.179C693.786 449.302 693.581 449.471 693.408 449.687C693.238 449.903 693.105 450.15 693.008 450.43C692.915 450.705 692.868 450.997 692.868 451.306ZM703.786 445.758V455H702.561V445.758H703.786ZM707.658 449.916V450.918H703.52V449.916H707.658ZM708.287 445.758V446.761H703.52V445.758H708.287ZM709.118 451.642V451.496C709.118 451.001 709.19 450.542 709.334 450.119C709.478 449.691 709.685 449.321 709.956 449.008C710.227 448.69 710.555 448.445 710.94 448.271C711.325 448.094 711.757 448.005 712.235 448.005C712.717 448.005 713.151 448.094 713.536 448.271C713.925 448.445 714.256 448.69 714.526 449.008C714.801 449.321 715.011 449.691 715.155 450.119C715.299 450.542 715.371 451.001 715.371 451.496V451.642C715.371 452.137 715.299 452.596 715.155 453.02C715.011 453.443 714.801 453.813 714.526 454.13C714.256 454.444 713.928 454.689 713.542 454.867C713.162 455.04 712.73 455.127 712.248 455.127C711.765 455.127 711.331 455.04 710.946 454.867C710.561 454.689 710.231 454.444 709.956 454.13C709.685 453.813 709.478 453.443 709.334 453.02C709.19 452.596 709.118 452.137 709.118 451.642ZM710.292 451.496V451.642C710.292 451.985 710.333 452.309 710.413 452.613C710.493 452.914 710.614 453.18 710.775 453.413C710.94 453.646 711.145 453.83 711.391 453.965C711.636 454.097 711.922 454.162 712.248 454.162C712.569 454.162 712.851 454.097 713.092 453.965C713.337 453.83 713.54 453.646 713.701 453.413C713.862 453.18 713.983 452.914 714.063 452.613C714.148 452.309 714.19 451.985 714.19 451.642V451.496C714.19 451.158 714.148 450.838 714.063 450.538C713.983 450.233 713.86 449.964 713.695 449.731C713.534 449.494 713.331 449.308 713.085 449.173C712.844 449.037 712.561 448.97 712.235 448.97C711.913 448.97 711.63 449.037 711.384 449.173C711.143 449.308 710.94 449.494 710.775 449.731C710.614 449.964 710.493 450.233 710.413 450.538C710.333 450.838 710.292 451.158 710.292 451.496ZM721.045 453.413V448.132H722.226V455H721.103L721.045 453.413ZM721.268 451.966L721.756 451.953C721.756 452.41 721.708 452.833 721.61 453.223C721.517 453.608 721.365 453.942 721.153 454.226C720.942 454.509 720.665 454.731 720.322 454.892C719.979 455.049 719.562 455.127 719.071 455.127C718.737 455.127 718.43 455.078 718.151 454.981C717.876 454.884 717.639 454.733 717.44 454.53C717.241 454.327 717.087 454.063 716.977 453.737C716.871 453.411 716.818 453.02 716.818 452.562V448.132H717.992V452.575C717.992 452.884 718.026 453.14 718.094 453.343C718.166 453.542 718.261 453.701 718.379 453.819C718.502 453.934 718.638 454.014 718.786 454.061C718.938 454.107 719.095 454.13 719.255 454.13C719.755 454.13 720.15 454.035 720.442 453.845C720.734 453.65 720.944 453.39 721.071 453.064C721.202 452.734 721.268 452.368 721.268 451.966ZM725.19 449.211V455H724.016V448.132H725.159L725.19 449.211ZM727.336 448.094L727.33 449.186C727.232 449.164 727.139 449.152 727.05 449.147C726.966 449.139 726.868 449.135 726.758 449.135C726.487 449.135 726.248 449.177 726.041 449.262C725.834 449.346 725.658 449.465 725.514 449.617C725.37 449.77 725.256 449.951 725.171 450.163C725.091 450.37 725.038 450.599 725.013 450.849L724.683 451.039C724.683 450.624 724.723 450.235 724.803 449.871C724.888 449.507 725.017 449.186 725.19 448.906C725.364 448.623 725.584 448.403 725.851 448.246C726.121 448.085 726.443 448.005 726.815 448.005C726.9 448.005 726.997 448.015 727.107 448.037C727.217 448.054 727.294 448.073 727.336 448.094Z" fill="#505050"/>
</g>
<path d="M616 64C616 50.7452 626.745 40 640 40H1000C1013.25 40 1024 50.7452 1024 64L992 132H648L616 64ZM1024 662C1024 675.255 1013.25 686 1000 686H640C626.745 686 616 675.255 616 662L648 654H992L1024 662ZM640 686C626.745 686 616 675.255 616 662V64C616 50.7452 626.745 40 640 40L648 132V654L640 686ZM1000 40C1013.25 40 1024 50.7452 1024 64V662C1024 675.255 1013.25 686 1000 686L992 654V132L1000 40Z" fill="#333333" mask="url(#path-21-outside-3_8300_7611)"/>
</g>
</g>
<defs>
<filter id="filter0_i_8300_7611" x="0" y="-10" width="1200" height="634" filterUnits="userSpaceOnUse" color-interpolation-filters="sRGB">
<feFlood flood-opacity="0" result="BackgroundImageFix"/>
<feBlend mode="normal" in="SourceGraphic" in2="BackgroundImageFix" result="shape"/>
<feColorMatrix in="SourceAlpha" type="matrix" values="0 0 0 0 0 0 0 0 0 0 0 0 0 0 0 0 0 0 127 0" result="hardAlpha"/>
<feMorphology radius="30" operator="dilate" in="SourceAlpha" result="effect1_innerShadow_8300_7611"/>
<feOffset dy="-36"/>
<feGaussianBlur stdDeviation="20"/>
<feComposite in2="hardAlpha" operator="arithmetic" k2="-1" k3="1"/>
<feColorMatrix type="matrix" values="0 0 0 0 0 0 0 0 0 0 0 0 0 0 0 0 0 0 0.05 0"/>
<feBlend mode="normal" in2="shape" result="effect1_innerShadow_8300_7611"/>
</filter>
<filter id="filter1_d_8300_7611" x="646" y="253" width="347" height="52" filterUnits="userSpaceOnUse" color-interpolation-filters="sRGB">
<feFlood flood-opacity="0" result="BackgroundImageFix"/>
<feColorMatrix in="SourceAlpha" type="matrix" values="0 0 0 0 0 0 0 0 0 0 0 0 0 0 0 0 0 0 127 0" result="hardAlpha"/>
<feMorphology radius="2" operator="dilate" in="SourceAlpha" result="effect1_dropShadow_8300_7611"/>
<feOffset/>
<feColorMatrix type="matrix" values="0 0 0 0 0.156863 0 0 0 0 0.431373 0 0 0 0 0.945098 0 0 0 1 0"/>
<feBlend mode="normal" in2="BackgroundImageFix" result="effect1_dropShadow_8300_7611"/>
<feBlend mode="normal" in="SourceGraphic" in2="effect1_dropShadow_8300_7611" result="shape"/>
</filter>
<filter id="filter2_ddd_8300_7611" x="632" y="290" width="375" height="205" filterUnits="userSpaceOnUse" color-interpolation-filters="sRGB">
<feFlood flood-opacity="0" result="BackgroundImageFix"/>
<feColorMatrix in="SourceAlpha" type="matrix" values="0 0 0 0 0 0 0 0 0 0 0 0 0 0 0 0 0 0 127 0" result="hardAlpha"/>
<feOffset dy="2"/>
<feGaussianBlur stdDeviation="2"/>
<feColorMatrix type="matrix" values="0 0 0 0 0.45098 0 0 0 0 0.45098 0 0 0 0 0.45098 0 0 0 0.1 0"/>
<feBlend mode="normal" in2="BackgroundImageFix" result="effect1_dropShadow_8300_7611"/>
<feColorMatrix in="SourceAlpha" type="matrix" values="0 0 0 0 0 0 0 0 0 0 0 0 0 0 0 0 0 0 127 0" result="hardAlpha"/>
<feOffset dy="1"/>
<feGaussianBlur stdDeviation="8"/>
<feColorMatrix type="matrix" values="0 0 0 0 0.45098 0 0 0 0 0.45098 0 0 0 0 0.45098 0 0 0 0.05 0"/>
<feBlend mode="normal" in2="effect1_dropShadow_8300_7611" result="effect2_dropShadow_8300_7611"/>
<feColorMatrix in="SourceAlpha" type="matrix" values="0 0 0 0 0 0 0 0 0 0 0 0 0 0 0 0 0 0 127 0" result="hardAlpha"/>
<feOffset dy="6"/>
<feGaussianBlur stdDeviation="6"/>
<feColorMatrix type="matrix" values="0 0 0 0 0.45098 0 0 0 0 0.45098 0 0 0 0 0.45098 0 0 0 0.08 0"/>
<feBlend mode="normal" in2="effect2_dropShadow_8300_7611" result="effect3_dropShadow_8300_7611"/>
<feBlend mode="normal" in="SourceGraphic" in2="effect3_dropShadow_8300_7611" result="shape"/>
</filter>
<clipPath id="clip0_8300_7611">
<rect width="1200" height="624" rx="16" fill="white"/>
</clipPath>
</defs>
</svg>
