<svg width="320" height="320" viewBox="0 0 320 320" fill="none" xmlns="http://www.w3.org/2000/svg">
<rect width="320" height="320" rx="4" fill="#F8F8F8"/>
<rect x="129" y="122" width="95" height="40" rx="4" fill="#1A1A1A"/>
<path d="M145.669 136.758V146H144.463V136.758H145.669ZM148.64 136.758V137.761H141.499V136.758H148.64ZM148.888 142.642V142.496C148.888 142.001 148.96 141.542 149.104 141.119C149.247 140.691 149.455 140.321 149.726 140.008C149.996 139.69 150.324 139.445 150.709 139.271C151.095 139.094 151.526 139.005 152.004 139.005C152.487 139.005 152.921 139.094 153.306 139.271C153.695 139.445 154.025 139.69 154.296 140.008C154.571 140.321 154.78 140.691 154.924 141.119C155.068 141.542 155.14 142.001 155.14 142.496V142.642C155.14 143.137 155.068 143.596 154.924 144.02C154.78 144.443 154.571 144.813 154.296 145.13C154.025 145.444 153.697 145.689 153.312 145.867C152.931 146.04 152.5 146.127 152.017 146.127C151.535 146.127 151.101 146.04 150.716 145.867C150.331 145.689 150.001 145.444 149.726 145.13C149.455 144.813 149.247 144.443 149.104 144.02C148.96 143.596 148.888 143.137 148.888 142.642ZM150.062 142.496V142.642C150.062 142.985 150.102 143.309 150.183 143.613C150.263 143.914 150.384 144.18 150.544 144.413C150.709 144.646 150.915 144.83 151.16 144.965C151.406 145.097 151.691 145.162 152.017 145.162C152.339 145.162 152.62 145.097 152.861 144.965C153.107 144.83 153.31 144.646 153.471 144.413C153.632 144.18 153.752 143.914 153.833 143.613C153.917 143.309 153.959 142.985 153.959 142.642V142.496C153.959 142.158 153.917 141.838 153.833 141.538C153.752 141.233 153.629 140.964 153.464 140.731C153.304 140.494 153.1 140.308 152.855 140.173C152.614 140.037 152.33 139.97 152.004 139.97C151.683 139.97 151.399 140.037 151.154 140.173C150.913 140.308 150.709 140.494 150.544 140.731C150.384 140.964 150.263 141.233 150.183 141.538C150.102 141.838 150.062 142.158 150.062 142.496ZM156.302 142.642V142.496C156.302 142.001 156.374 141.542 156.518 141.119C156.661 140.691 156.869 140.321 157.14 140.008C157.41 139.69 157.738 139.445 158.124 139.271C158.509 139.094 158.94 139.005 159.418 139.005C159.901 139.005 160.335 139.094 160.72 139.271C161.109 139.445 161.439 139.69 161.71 140.008C161.985 140.321 162.194 140.691 162.338 141.119C162.482 141.542 162.554 142.001 162.554 142.496V142.642C162.554 143.137 162.482 143.596 162.338 144.02C162.194 144.443 161.985 144.813 161.71 145.13C161.439 145.444 161.111 145.689 160.726 145.867C160.345 146.04 159.914 146.127 159.431 146.127C158.949 146.127 158.515 146.04 158.13 145.867C157.745 145.689 157.415 145.444 157.14 145.13C156.869 144.813 156.661 144.443 156.518 144.02C156.374 143.596 156.302 143.137 156.302 142.642ZM157.476 142.496V142.642C157.476 142.985 157.516 143.309 157.597 143.613C157.677 143.914 157.798 144.18 157.958 144.413C158.124 144.646 158.329 144.83 158.574 144.965C158.82 145.097 159.105 145.162 159.431 145.162C159.753 145.162 160.034 145.097 160.275 144.965C160.521 144.83 160.724 144.646 160.885 144.413C161.046 144.18 161.166 143.914 161.247 143.613C161.331 143.309 161.374 142.985 161.374 142.642V142.496C161.374 142.158 161.331 141.838 161.247 141.538C161.166 141.233 161.043 140.964 160.878 140.731C160.718 140.494 160.514 140.308 160.269 140.173C160.028 140.037 159.744 139.97 159.418 139.97C159.097 139.97 158.813 140.037 158.568 140.173C158.327 140.308 158.124 140.494 157.958 140.731C157.798 140.964 157.677 141.233 157.597 141.538C157.516 141.838 157.476 142.158 157.476 142.496ZM165.303 136.25V146H164.122V136.25H165.303ZM170.063 139.132V140.033H166.35V139.132H170.063ZM167.607 137.462H168.781V144.299C168.781 144.532 168.817 144.707 168.889 144.826C168.961 144.944 169.054 145.022 169.168 145.061C169.283 145.099 169.405 145.118 169.537 145.118C169.634 145.118 169.736 145.109 169.841 145.092C169.951 145.071 170.034 145.054 170.089 145.042L170.095 146C170.002 146.03 169.879 146.057 169.727 146.083C169.579 146.112 169.399 146.127 169.188 146.127C168.9 146.127 168.635 146.07 168.394 145.956C168.153 145.841 167.96 145.651 167.816 145.384C167.677 145.113 167.607 144.75 167.607 144.292V137.462ZM172.717 139.132V146H171.536V139.132H172.717ZM171.447 137.31C171.447 137.12 171.504 136.959 171.619 136.828C171.737 136.696 171.911 136.631 172.139 136.631C172.363 136.631 172.535 136.696 172.653 136.828C172.776 136.959 172.837 137.12 172.837 137.31C172.837 137.492 172.776 137.649 172.653 137.78C172.535 137.907 172.363 137.97 172.139 137.97C171.911 137.97 171.737 137.907 171.619 137.78C171.504 137.649 171.447 137.492 171.447 137.31ZM175.776 140.452V148.641H174.596V139.132H175.675L175.776 140.452ZM180.404 142.509V142.642C180.404 143.141 180.345 143.605 180.226 144.032C180.108 144.455 179.934 144.824 179.706 145.137C179.481 145.45 179.204 145.693 178.874 145.867C178.544 146.04 178.165 146.127 177.738 146.127C177.302 146.127 176.917 146.055 176.583 145.911C176.248 145.767 175.965 145.558 175.732 145.283C175.499 145.008 175.313 144.678 175.173 144.292C175.038 143.907 174.945 143.474 174.894 142.991V142.28C174.945 141.772 175.04 141.318 175.18 140.916C175.319 140.514 175.503 140.171 175.732 139.887C175.965 139.599 176.246 139.382 176.576 139.233C176.906 139.081 177.287 139.005 177.719 139.005C178.15 139.005 178.533 139.09 178.868 139.259C179.202 139.424 179.483 139.661 179.712 139.97C179.94 140.279 180.112 140.649 180.226 141.081C180.345 141.508 180.404 141.984 180.404 142.509ZM179.223 142.642V142.509C179.223 142.166 179.187 141.844 179.115 141.544C179.043 141.239 178.931 140.973 178.779 140.744C178.631 140.511 178.44 140.329 178.208 140.198C177.975 140.063 177.698 139.995 177.376 139.995C177.08 139.995 176.822 140.046 176.602 140.147C176.386 140.249 176.202 140.387 176.049 140.56C175.897 140.729 175.772 140.924 175.675 141.144C175.582 141.36 175.512 141.584 175.465 141.817V143.461C175.55 143.757 175.668 144.036 175.821 144.299C175.973 144.557 176.176 144.766 176.43 144.927C176.684 145.084 177.004 145.162 177.389 145.162C177.706 145.162 177.979 145.097 178.208 144.965C178.44 144.83 178.631 144.646 178.779 144.413C178.931 144.18 179.043 143.914 179.115 143.613C179.187 143.309 179.223 142.985 179.223 142.642ZM186.402 136.25V146H185.222V136.25H186.402ZM192.337 144.826V141.29C192.337 141.019 192.282 140.784 192.172 140.585C192.067 140.382 191.906 140.226 191.69 140.116C191.474 140.006 191.208 139.951 190.89 139.951C190.594 139.951 190.334 140.001 190.109 140.103C189.889 140.205 189.716 140.338 189.589 140.503C189.466 140.668 189.405 140.846 189.405 141.036H188.23C188.23 140.791 188.294 140.547 188.421 140.306C188.548 140.065 188.73 139.847 188.967 139.652C189.208 139.453 189.496 139.297 189.83 139.183C190.169 139.064 190.545 139.005 190.96 139.005C191.459 139.005 191.899 139.09 192.28 139.259C192.665 139.428 192.966 139.684 193.182 140.027C193.402 140.365 193.512 140.791 193.512 141.303V144.502C193.512 144.73 193.531 144.974 193.569 145.232C193.611 145.49 193.673 145.712 193.753 145.898V146H192.528C192.469 145.865 192.422 145.685 192.388 145.46C192.354 145.232 192.337 145.02 192.337 144.826ZM192.541 141.836L192.553 142.661H191.366C191.032 142.661 190.734 142.689 190.471 142.744C190.209 142.794 189.989 142.873 189.811 142.979C189.633 143.084 189.498 143.218 189.405 143.378C189.312 143.535 189.265 143.719 189.265 143.931C189.265 144.146 189.314 144.343 189.411 144.521C189.508 144.699 189.654 144.84 189.849 144.946C190.048 145.048 190.291 145.099 190.579 145.099C190.939 145.099 191.256 145.022 191.531 144.87C191.806 144.718 192.024 144.532 192.185 144.312C192.35 144.091 192.439 143.878 192.452 143.67L192.953 144.235C192.924 144.413 192.843 144.61 192.712 144.826C192.581 145.042 192.405 145.249 192.185 145.448C191.969 145.642 191.711 145.805 191.411 145.937C191.114 146.063 190.78 146.127 190.408 146.127C189.942 146.127 189.534 146.036 189.183 145.854C188.836 145.672 188.565 145.429 188.37 145.124C188.18 144.815 188.084 144.47 188.084 144.089C188.084 143.721 188.156 143.397 188.3 143.118C188.444 142.835 188.652 142.6 188.922 142.414C189.193 142.223 189.519 142.079 189.9 141.982C190.281 141.885 190.706 141.836 191.176 141.836H192.541ZM195.353 136.25H196.533V144.667L196.432 146H195.353V136.25ZM201.173 142.509V142.642C201.173 143.141 201.114 143.605 200.996 144.032C200.877 144.455 200.704 144.824 200.475 145.137C200.247 145.45 199.967 145.693 199.637 145.867C199.307 146.04 198.928 146.127 198.501 146.127C198.065 146.127 197.682 146.053 197.352 145.905C197.026 145.752 196.751 145.535 196.527 145.251C196.303 144.967 196.123 144.625 195.987 144.223C195.856 143.821 195.765 143.368 195.714 142.864V142.28C195.765 141.772 195.856 141.318 195.987 140.916C196.123 140.514 196.303 140.171 196.527 139.887C196.751 139.599 197.026 139.382 197.352 139.233C197.678 139.081 198.057 139.005 198.488 139.005C198.92 139.005 199.303 139.09 199.637 139.259C199.972 139.424 200.251 139.661 200.475 139.97C200.704 140.279 200.877 140.649 200.996 141.081C201.114 141.508 201.173 141.984 201.173 142.509ZM199.993 142.642V142.509C199.993 142.166 199.961 141.844 199.897 141.544C199.834 141.239 199.732 140.973 199.593 140.744C199.453 140.511 199.269 140.329 199.041 140.198C198.812 140.063 198.531 139.995 198.196 139.995C197.9 139.995 197.642 140.046 197.422 140.147C197.206 140.249 197.022 140.387 196.87 140.56C196.717 140.729 196.592 140.924 196.495 141.144C196.402 141.36 196.332 141.584 196.286 141.817V143.347C196.353 143.643 196.463 143.929 196.616 144.204C196.772 144.474 196.98 144.697 197.238 144.87C197.5 145.044 197.824 145.13 198.209 145.13C198.526 145.13 198.797 145.067 199.021 144.94C199.25 144.809 199.434 144.629 199.574 144.4C199.718 144.172 199.823 143.907 199.891 143.607C199.959 143.306 199.993 142.985 199.993 142.642ZM205.509 146.127C205.031 146.127 204.597 146.047 204.208 145.886C203.822 145.721 203.49 145.49 203.211 145.194C202.936 144.898 202.724 144.546 202.576 144.14C202.428 143.734 202.354 143.29 202.354 142.807V142.541C202.354 141.982 202.437 141.485 202.602 141.049C202.767 140.609 202.991 140.236 203.274 139.932C203.558 139.627 203.88 139.396 204.239 139.24C204.599 139.083 204.971 139.005 205.356 139.005C205.847 139.005 206.271 139.09 206.626 139.259C206.986 139.428 207.28 139.665 207.508 139.97C207.737 140.27 207.906 140.626 208.016 141.036C208.126 141.442 208.181 141.887 208.181 142.369V142.896H203.052V141.938H207.007V141.849C206.99 141.544 206.926 141.248 206.816 140.96C206.711 140.672 206.541 140.435 206.309 140.249C206.076 140.063 205.758 139.97 205.356 139.97C205.09 139.97 204.844 140.027 204.62 140.141C204.396 140.251 204.203 140.416 204.042 140.636C203.882 140.856 203.757 141.125 203.668 141.442C203.579 141.76 203.535 142.126 203.535 142.541V142.807C203.535 143.133 203.579 143.44 203.668 143.728C203.761 144.011 203.894 144.261 204.068 144.477C204.246 144.692 204.459 144.862 204.709 144.984C204.963 145.107 205.251 145.168 205.572 145.168C205.987 145.168 206.338 145.084 206.626 144.915C206.914 144.745 207.166 144.519 207.381 144.235L208.092 144.8C207.944 145.025 207.756 145.238 207.527 145.441C207.299 145.645 207.017 145.81 206.683 145.937C206.353 146.063 205.962 146.127 205.509 146.127ZM210.828 136.25V146H209.647V136.25H210.828Z" fill="white"/>
<path d="M137 162H149L143 168L137 162Z" fill="#1A1A1A"/>
<rect opacity="0.3" x="121" y="122" width="111" height="8" fill="#F45C59"/>
<rect opacity="0.3" x="121" y="154" width="111" height="8" fill="#F45C59"/>
<path d="M129.5 178V110M141.5 178V110" stroke="#0045C4" stroke-linecap="round" stroke-dasharray="4 4"/>
<rect x="89" y="114" width="24" height="24" rx="4" fill="#0059FF"/>
<path d="M104.281 128.286C104.281 128.906 104.138 129.428 103.851 129.852C103.563 130.275 103.172 130.597 102.675 130.815C102.183 131.03 101.627 131.137 101.007 131.137C100.387 131.137 99.8288 131.03 99.332 130.815C98.8353 130.597 98.4434 130.275 98.1562 129.852C97.8691 129.428 97.7256 128.906 97.7256 128.286C97.7256 127.876 97.8053 127.505 97.9648 127.172C98.1243 126.835 98.3499 126.545 98.6416 126.304C98.9378 126.058 99.2842 125.868 99.6807 125.736C100.082 125.604 100.519 125.538 100.993 125.538C101.622 125.538 102.185 125.654 102.682 125.887C103.178 126.119 103.568 126.44 103.851 126.851C104.138 127.261 104.281 127.739 104.281 128.286ZM102.627 128.204C102.627 127.871 102.559 127.58 102.422 127.329C102.285 127.078 102.094 126.885 101.848 126.748C101.602 126.611 101.317 126.543 100.993 126.543C100.665 126.543 100.38 126.611 100.139 126.748C99.8971 126.885 99.708 127.078 99.5713 127.329C99.4391 127.58 99.373 127.871 99.373 128.204C99.373 128.541 99.4391 128.833 99.5713 129.079C99.7035 129.321 99.8926 129.505 100.139 129.633C100.385 129.76 100.674 129.824 101.007 129.824C101.34 129.824 101.627 129.76 101.868 129.633C102.11 129.505 102.297 129.321 102.429 129.079C102.561 128.833 102.627 128.541 102.627 128.204ZM104.056 123.665C104.056 124.162 103.924 124.604 103.659 124.991C103.399 125.379 103.039 125.684 102.579 125.907C102.119 126.126 101.595 126.235 101.007 126.235C100.414 126.235 99.8857 126.126 99.4209 125.907C98.9606 125.684 98.5983 125.379 98.334 124.991C98.0742 124.604 97.9443 124.162 97.9443 123.665C97.9443 123.073 98.0742 122.574 98.334 122.168C98.5983 121.758 98.9606 121.446 99.4209 121.231C99.8812 121.017 100.408 120.91 101 120.91C101.592 120.91 102.119 121.017 102.579 121.231C103.039 121.446 103.399 121.758 103.659 122.168C103.924 122.574 104.056 123.073 104.056 123.665ZM102.408 123.72C102.408 123.424 102.349 123.164 102.23 122.94C102.117 122.713 101.955 122.535 101.745 122.407C101.535 122.28 101.287 122.216 101 122.216C100.713 122.216 100.465 122.277 100.255 122.4C100.045 122.523 99.8835 122.697 99.7695 122.92C99.6556 123.143 99.5986 123.41 99.5986 123.72C99.5986 124.025 99.6556 124.292 99.7695 124.52C99.8835 124.743 100.045 124.918 100.255 125.046C100.469 125.174 100.72 125.237 101.007 125.237C101.294 125.237 101.542 125.174 101.752 125.046C101.962 124.918 102.123 124.743 102.237 124.52C102.351 124.292 102.408 124.025 102.408 123.72Z" fill="white"/>
<rect x="89" y="146" width="24" height="24" rx="4" fill="#0059FF"/>
<path d="M104.281 160.286C104.281 160.906 104.138 161.428 103.851 161.852C103.563 162.275 103.172 162.597 102.675 162.815C102.183 163.03 101.627 163.137 101.007 163.137C100.387 163.137 99.8288 163.03 99.332 162.815C98.8353 162.597 98.4434 162.275 98.1562 161.852C97.8691 161.428 97.7256 160.906 97.7256 160.286C97.7256 159.876 97.8053 159.505 97.9648 159.172C98.1243 158.835 98.3499 158.545 98.6416 158.304C98.9378 158.058 99.2842 157.868 99.6807 157.736C100.082 157.604 100.519 157.538 100.993 157.538C101.622 157.538 102.185 157.654 102.682 157.887C103.178 158.119 103.568 158.44 103.851 158.851C104.138 159.261 104.281 159.739 104.281 160.286ZM102.627 160.204C102.627 159.871 102.559 159.58 102.422 159.329C102.285 159.078 102.094 158.885 101.848 158.748C101.602 158.611 101.317 158.543 100.993 158.543C100.665 158.543 100.38 158.611 100.139 158.748C99.8971 158.885 99.708 159.078 99.5713 159.329C99.4391 159.58 99.373 159.871 99.373 160.204C99.373 160.541 99.4391 160.833 99.5713 161.079C99.7035 161.321 99.8926 161.505 100.139 161.633C100.385 161.76 100.674 161.824 101.007 161.824C101.34 161.824 101.627 161.76 101.868 161.633C102.11 161.505 102.297 161.321 102.429 161.079C102.561 160.833 102.627 160.541 102.627 160.204ZM104.056 155.665C104.056 156.162 103.924 156.604 103.659 156.991C103.399 157.379 103.039 157.684 102.579 157.907C102.119 158.126 101.595 158.235 101.007 158.235C100.414 158.235 99.8857 158.126 99.4209 157.907C98.9606 157.684 98.5983 157.379 98.334 156.991C98.0742 156.604 97.9443 156.162 97.9443 155.665C97.9443 155.073 98.0742 154.574 98.334 154.168C98.5983 153.758 98.9606 153.446 99.4209 153.231C99.8812 153.017 100.408 152.91 101 152.91C101.592 152.91 102.119 153.017 102.579 153.231C103.039 153.446 103.399 153.758 103.659 154.168C103.924 154.574 104.056 155.073 104.056 155.665ZM102.408 155.72C102.408 155.424 102.349 155.164 102.23 154.94C102.117 154.713 101.955 154.535 101.745 154.407C101.535 154.28 101.287 154.216 101 154.216C100.713 154.216 100.465 154.277 100.255 154.4C100.045 154.523 99.8835 154.697 99.7695 154.92C99.6556 155.143 99.5986 155.41 99.5986 155.72C99.5986 156.025 99.6556 156.292 99.7695 156.52C99.8835 156.743 100.045 156.918 100.255 157.046C100.469 157.174 100.72 157.237 101.007 157.237C101.294 157.237 101.542 157.174 101.752 157.046C101.962 156.918 102.123 156.743 102.237 156.52C102.351 156.292 102.408 156.025 102.408 155.72Z" fill="white"/>
<rect x="206" y="186" width="24" height="24" rx="4" fill="#0059FF"/>
<path d="M215.293 193.013V203H213.646V194.968L211.205 195.795V194.435L215.095 193.013H215.293ZM225.424 201.688V203H218.752V201.872L221.992 198.338C222.348 197.937 222.628 197.59 222.833 197.299C223.038 197.007 223.182 196.745 223.264 196.513C223.35 196.276 223.394 196.046 223.394 195.822C223.394 195.508 223.334 195.232 223.216 194.995C223.102 194.754 222.933 194.564 222.71 194.428C222.487 194.286 222.215 194.216 221.896 194.216C221.527 194.216 221.217 194.296 220.967 194.455C220.716 194.615 220.527 194.836 220.399 195.118C220.272 195.396 220.208 195.715 220.208 196.075H218.561C218.561 195.496 218.693 194.968 218.957 194.489C219.221 194.006 219.604 193.623 220.105 193.341C220.607 193.054 221.211 192.91 221.917 192.91C222.582 192.91 223.147 193.022 223.612 193.245C224.077 193.468 224.43 193.785 224.672 194.195C224.918 194.605 225.041 195.091 225.041 195.651C225.041 195.961 224.991 196.269 224.891 196.574C224.79 196.88 224.647 197.185 224.46 197.49C224.278 197.791 224.061 198.094 223.811 198.399C223.56 198.7 223.284 199.006 222.983 199.315L220.83 201.688H225.424Z" fill="white"/>
<rect x="123" y="186" width="24" height="24" rx="4" fill="#0059FF"/>
<path d="M132.293 193.013V203H130.646V194.968L128.205 195.795V194.435L132.095 193.013H132.293ZM142.424 201.688V203H135.752V201.872L138.992 198.338C139.348 197.937 139.628 197.59 139.833 197.299C140.038 197.007 140.182 196.745 140.264 196.513C140.35 196.276 140.394 196.046 140.394 195.822C140.394 195.508 140.334 195.232 140.216 194.995C140.102 194.754 139.933 194.564 139.71 194.428C139.487 194.286 139.215 194.216 138.896 194.216C138.527 194.216 138.217 194.296 137.967 194.455C137.716 194.615 137.527 194.836 137.399 195.118C137.272 195.396 137.208 195.715 137.208 196.075H135.561C135.561 195.496 135.693 194.968 135.957 194.489C136.221 194.006 136.604 193.623 137.105 193.341C137.607 193.054 138.211 192.91 138.917 192.91C139.582 192.91 140.147 193.022 140.612 193.245C141.077 193.468 141.43 193.785 141.672 194.195C141.918 194.605 142.041 195.091 142.041 195.651C142.041 195.961 141.991 196.269 141.891 196.574C141.79 196.88 141.647 197.185 141.46 197.49C141.278 197.791 141.061 198.094 140.811 198.399C140.56 198.7 140.284 199.006 139.983 199.315L137.83 201.688H142.424Z" fill="white"/>
<path d="M211.5 178V110M223.5 178V110" stroke="#0045C4" stroke-linecap="round" stroke-dasharray="4 4"/>
</svg>
