<svg width="640" height="500" viewBox="0 0 640 500" fill="none" xmlns="http://www.w3.org/2000/svg">
<rect width="640" height="500" rx="16" fill="#F8F8F8"/>
<rect width="278" height="210" transform="translate(41 40)" fill="white"/>
<path d="M154.125 70H152.15L152.163 68.7368H154.125C154.696 68.7368 155.174 68.612 155.559 68.3623C155.948 68.1126 156.24 67.755 156.435 67.2896C156.634 66.8241 156.733 66.2697 156.733 65.6265V65.125C156.733 64.6257 156.676 64.1834 156.562 63.7983C156.452 63.4132 156.287 63.0895 156.067 62.8271C155.851 62.5648 155.584 62.3659 155.267 62.2305C154.954 62.0951 154.592 62.0273 154.182 62.0273H152.112V60.7578H154.182C154.795 60.7578 155.356 60.8615 155.864 61.0688C156.372 61.272 156.81 61.5661 157.178 61.9512C157.55 62.3363 157.836 62.7975 158.035 63.335C158.234 63.8724 158.333 64.4733 158.333 65.1377V65.6265C158.333 66.2909 158.234 66.8918 158.035 67.4292C157.836 67.9666 157.55 68.4279 157.178 68.813C156.805 69.1938 156.361 69.488 155.845 69.6953C155.333 69.8984 154.759 70 154.125 70ZM153.033 60.7578V70H151.439V60.7578H153.033ZM166.982 68.7368V70H162.075V68.7368H166.982ZM162.526 60.7578V70H160.933V60.7578H162.526ZM166.341 64.6172V65.8613H162.075V64.6172H166.341ZM166.95 60.7578V62.0273H162.075V60.7578H166.95ZM170.876 60.7578V70H169.283V60.7578H170.876ZM174.647 64.8013V66.0645H170.47V64.8013H174.647ZM175.174 60.7578V62.0273H170.47V60.7578H175.174ZM179.913 61.9893L177.151 70H175.482L178.96 60.7578H180.027L179.913 61.9893ZM182.223 70L179.456 61.9893L179.335 60.7578H180.408L183.899 70H182.223ZM182.09 66.5723V67.8354H177.062V66.5723H182.09ZM191.005 60.7578H192.592V66.9341C192.592 67.6366 192.44 68.2248 192.135 68.6987C191.831 69.1727 191.416 69.5303 190.891 69.7715C190.371 70.0085 189.789 70.127 189.146 70.127C188.481 70.127 187.889 70.0085 187.368 69.7715C186.848 69.5303 186.437 69.1727 186.137 68.6987C185.84 68.2248 185.692 67.6366 185.692 66.9341V60.7578H187.279V66.9341C187.279 67.3784 187.355 67.7445 187.508 68.0322C187.66 68.3158 187.876 68.5252 188.155 68.6606C188.435 68.7961 188.765 68.8638 189.146 68.8638C189.526 68.8638 189.854 68.7961 190.129 68.6606C190.409 68.5252 190.625 68.3158 190.777 68.0322C190.929 67.7445 191.005 67.3784 191.005 66.9341V60.7578ZM201.114 68.7368V70H196.474V68.7368H201.114ZM196.918 60.7578V70H195.325V60.7578H196.918ZM205.561 60.7578V70H203.98V60.7578H205.561ZM208.462 60.7578V62.0273H201.105V60.7578H208.462Z" fill="#737373"/>
<path d="M255 159C255 200.421 221.421 234 180 234C138.579 234 105 200.421 105 159C105 117.579 138.579 84 180 84C221.421 84 255 117.579 255 159ZM120 159C120 192.137 146.863 219 180 219C213.137 219 240 192.137 240 159C240 125.863 213.137 99 180 99C146.863 99 120 125.863 120 159Z" fill="#F2F2F2"/>
<path d="M180 84C195.838 84 211.27 89.0141 224.084 98.3237C236.897 107.633 246.435 120.76 251.329 135.824C256.224 150.887 256.224 167.113 251.329 182.176C246.435 197.24 236.897 210.367 224.084 219.676C211.27 228.986 195.838 234 180 234C164.162 234 148.73 228.986 135.916 219.676C123.103 210.367 113.565 197.24 108.671 182.176C103.776 167.113 103.776 150.887 108.671 135.824L122.937 140.459C119.021 152.51 119.021 165.49 122.937 177.541C126.852 189.592 134.482 200.093 144.733 207.541C154.984 214.989 167.329 219 180 219C192.671 219 205.016 214.989 215.267 207.541C225.518 200.093 233.148 189.592 237.063 177.541C240.979 165.49 240.979 152.51 237.063 140.459C233.148 128.408 225.518 117.907 215.267 110.459C205.016 103.011 192.671 99 180 99V84Z" fill="#286EF1"/>
<path d="M169.145 165.207C169.145 166.991 168.728 168.495 167.895 169.719C167.061 170.93 165.915 171.848 164.457 172.473C163.012 173.085 161.371 173.391 159.535 173.391C157.699 173.391 156.052 173.085 154.594 172.473C153.135 171.848 151.983 170.93 151.137 169.719C150.29 168.495 149.867 166.991 149.867 165.207C149.867 164.009 150.108 162.928 150.59 161.965C151.072 160.988 151.742 160.155 152.602 159.465C153.474 158.762 154.496 158.228 155.668 157.863C156.84 157.486 158.116 157.297 159.496 157.297C161.345 157.297 162.999 157.622 164.457 158.273C165.915 158.924 167.061 159.842 167.895 161.027C168.728 162.212 169.145 163.605 169.145 165.207ZM163.48 164.836C163.48 163.964 163.311 163.215 162.973 162.59C162.647 161.952 162.185 161.464 161.586 161.125C160.987 160.786 160.29 160.617 159.496 160.617C158.702 160.617 158.005 160.786 157.406 161.125C156.807 161.464 156.339 161.952 156 162.59C155.674 163.215 155.512 163.964 155.512 164.836C155.512 165.695 155.674 166.438 156 167.062C156.339 167.688 156.807 168.169 157.406 168.508C158.018 168.833 158.728 168.996 159.535 168.996C160.342 168.996 161.039 168.833 161.625 168.508C162.224 168.169 162.68 167.688 162.992 167.062C163.318 166.438 163.48 165.695 163.48 164.836ZM168.539 152.102C168.539 153.547 168.155 154.829 167.387 155.949C166.618 157.056 165.551 157.922 164.184 158.547C162.829 159.172 161.28 159.484 159.535 159.484C157.777 159.484 156.215 159.172 154.848 158.547C153.48 157.922 152.413 157.056 151.645 155.949C150.876 154.829 150.492 153.547 150.492 152.102C150.492 150.383 150.876 148.938 151.645 147.766C152.426 146.581 153.493 145.682 154.848 145.07C156.215 144.458 157.764 144.152 159.496 144.152C161.254 144.152 162.81 144.458 164.164 145.07C165.531 145.682 166.599 146.581 167.367 147.766C168.148 148.938 168.539 150.383 168.539 152.102ZM162.914 152.355C162.914 151.587 162.777 150.923 162.504 150.363C162.23 149.79 161.84 149.348 161.332 149.035C160.837 148.723 160.225 148.566 159.496 148.566C158.793 148.566 158.188 148.716 157.68 149.016C157.185 149.315 156.801 149.751 156.527 150.324C156.267 150.884 156.137 151.561 156.137 152.355C156.137 153.124 156.267 153.801 156.527 154.387C156.801 154.96 157.191 155.409 157.699 155.734C158.207 156.06 158.819 156.223 159.535 156.223C160.251 156.223 160.857 156.06 161.352 155.734C161.859 155.409 162.243 154.96 162.504 154.387C162.777 153.801 162.914 153.124 162.914 152.355ZM192.094 156.281V161.203C192.094 163.339 191.866 165.181 191.41 166.73C190.954 168.267 190.297 169.53 189.438 170.52C188.591 171.496 187.582 172.219 186.41 172.688C185.238 173.156 183.936 173.391 182.504 173.391C181.358 173.391 180.29 173.247 179.301 172.961C178.311 172.661 177.419 172.199 176.625 171.574C175.844 170.949 175.167 170.161 174.594 169.211C174.034 168.247 173.604 167.102 173.305 165.773C173.005 164.445 172.855 162.922 172.855 161.203V156.281C172.855 154.146 173.083 152.316 173.539 150.793C174.008 149.257 174.665 148 175.512 147.023C176.371 146.047 177.387 145.331 178.559 144.875C179.73 144.406 181.033 144.172 182.465 144.172C183.611 144.172 184.672 144.322 185.648 144.621C186.638 144.908 187.53 145.357 188.324 145.969C189.118 146.581 189.796 147.368 190.355 148.332C190.915 149.283 191.345 150.422 191.645 151.75C191.944 153.065 192.094 154.576 192.094 156.281ZM186.449 161.945V155.52C186.449 154.491 186.391 153.592 186.273 152.824C186.169 152.056 186.007 151.405 185.785 150.871C185.564 150.324 185.29 149.882 184.965 149.543C184.639 149.204 184.268 148.957 183.852 148.801C183.435 148.645 182.973 148.566 182.465 148.566C181.827 148.566 181.26 148.69 180.766 148.938C180.284 149.185 179.874 149.582 179.535 150.129C179.197 150.663 178.936 151.379 178.754 152.277C178.585 153.163 178.5 154.243 178.5 155.52V161.945C178.5 162.974 178.552 163.879 178.656 164.66C178.773 165.441 178.943 166.112 179.164 166.672C179.398 167.219 179.672 167.668 179.984 168.02C180.31 168.358 180.681 168.605 181.098 168.762C181.527 168.918 181.996 168.996 182.504 168.996C183.129 168.996 183.682 168.872 184.164 168.625C184.659 168.365 185.076 167.961 185.414 167.414C185.766 166.854 186.026 166.125 186.195 165.227C186.365 164.328 186.449 163.234 186.449 161.945Z" fill="#1A1A1A"/>
<path d="M195.254 160.121V159.219C195.254 158.57 195.395 157.98 195.676 157.449C195.957 156.918 196.371 156.492 196.918 156.172C197.465 155.852 198.137 155.691 198.934 155.691C199.754 155.691 200.438 155.852 200.984 156.172C201.539 156.492 201.953 156.918 202.227 157.449C202.508 157.98 202.648 158.57 202.648 159.219V160.121C202.648 160.754 202.508 161.336 202.227 161.867C201.953 162.398 201.543 162.824 200.996 163.145C200.449 163.465 199.773 163.625 198.969 163.625C198.156 163.625 197.473 163.465 196.918 163.145C196.371 162.824 195.957 162.398 195.676 161.867C195.395 161.336 195.254 160.754 195.254 160.121ZM197.492 159.219V160.121C197.492 160.395 197.543 160.656 197.645 160.906C197.754 161.148 197.918 161.348 198.137 161.504C198.363 161.652 198.637 161.727 198.957 161.727C199.293 161.727 199.566 161.652 199.777 161.504C199.988 161.348 200.145 161.148 200.246 160.906C200.348 160.656 200.398 160.395 200.398 160.121V159.219C200.398 158.93 200.344 158.664 200.234 158.422C200.133 158.172 199.973 157.973 199.754 157.824C199.543 157.668 199.27 157.59 198.934 157.59C198.621 157.59 198.355 157.668 198.137 157.824C197.918 157.973 197.754 158.172 197.645 158.422C197.543 158.664 197.492 158.93 197.492 159.219ZM203.41 169.719V168.816C203.41 168.176 203.551 167.59 203.832 167.059C204.121 166.527 204.539 166.102 205.086 165.781C205.641 165.461 206.32 165.301 207.125 165.301C207.938 165.301 208.617 165.461 209.164 165.781C209.711 166.102 210.125 166.527 210.406 167.059C210.688 167.59 210.828 168.176 210.828 168.816V169.719C210.828 170.359 210.688 170.945 210.406 171.477C210.133 172.008 209.723 172.434 209.176 172.754C208.629 173.074 207.953 173.234 207.148 173.234C206.336 173.234 205.652 173.074 205.098 172.754C204.543 172.434 204.121 172.008 203.832 171.477C203.551 170.945 203.41 170.359 203.41 169.719ZM205.66 168.816V169.719C205.66 170 205.723 170.266 205.848 170.516C205.973 170.766 206.145 170.965 206.363 171.113C206.59 171.262 206.852 171.336 207.148 171.336C207.523 171.336 207.816 171.262 208.027 171.113C208.238 170.965 208.383 170.766 208.461 170.516C208.547 170.266 208.59 170 208.59 169.719V168.816C208.59 168.535 208.535 168.273 208.426 168.031C208.316 167.781 208.152 167.582 207.934 167.434C207.723 167.277 207.453 167.199 207.125 167.199C206.797 167.199 206.523 167.277 206.305 167.434C206.094 167.582 205.934 167.781 205.824 168.031C205.715 168.273 205.66 168.535 205.66 168.816ZM207.957 158.375L199.625 171.711L197.984 170.844L206.316 157.508L207.957 158.375Z" fill="#1A1A1A"/>
<rect width="278" height="210" transform="translate(321 40)" fill="white"/>
<path d="M434.302 67.6196C434.302 67.4292 434.272 67.2599 434.213 67.1118C434.158 66.9637 434.058 66.8283 433.915 66.7056C433.771 66.5828 433.568 66.4644 433.305 66.3501C433.047 66.2316 432.717 66.111 432.315 65.9883C431.875 65.8529 431.469 65.7026 431.096 65.5376C430.728 65.3683 430.406 65.1737 430.131 64.9536C429.856 64.7293 429.643 64.4733 429.49 64.1855C429.338 63.8936 429.262 63.5571 429.262 63.1763C429.262 62.7996 429.34 62.4569 429.497 62.1479C429.657 61.839 429.884 61.5724 430.176 61.3481C430.472 61.1196 430.821 60.944 431.223 60.8213C431.625 60.6943 432.069 60.6309 432.556 60.6309C433.242 60.6309 433.832 60.7578 434.327 61.0117C434.826 61.2656 435.209 61.6063 435.476 62.0337C435.747 62.4611 435.882 62.9329 435.882 63.4492H434.302C434.302 63.1445 434.236 62.8758 434.105 62.6431C433.978 62.4061 433.783 62.2199 433.521 62.0845C433.263 61.9491 432.935 61.8813 432.537 61.8813C432.16 61.8813 431.847 61.9385 431.598 62.0527C431.348 62.167 431.162 62.3215 431.039 62.5161C430.916 62.7108 430.855 62.9308 430.855 63.1763C430.855 63.3498 430.895 63.5085 430.976 63.6523C431.056 63.792 431.179 63.9232 431.344 64.0459C431.509 64.1644 431.716 64.2765 431.966 64.3823C432.215 64.4881 432.51 64.5897 432.848 64.687C433.36 64.8394 433.807 65.0086 434.188 65.1948C434.568 65.3768 434.886 65.5841 435.14 65.8169C435.394 66.0496 435.584 66.3141 435.711 66.6104C435.838 66.9023 435.901 67.2345 435.901 67.6069C435.901 67.9963 435.823 68.3475 435.667 68.6606C435.51 68.9696 435.286 69.234 434.994 69.4541C434.706 69.6699 434.359 69.8371 433.953 69.9556C433.551 70.0698 433.102 70.127 432.607 70.127C432.163 70.127 431.725 70.0677 431.293 69.9492C430.866 69.8307 430.476 69.6509 430.125 69.4097C429.774 69.1642 429.494 68.8595 429.287 68.4956C429.08 68.1274 428.976 67.6979 428.976 67.207H430.569C430.569 67.5075 430.62 67.7635 430.722 67.9751C430.827 68.1867 430.973 68.3602 431.16 68.4956C431.346 68.6268 431.562 68.7241 431.807 68.7876C432.057 68.8511 432.323 68.8828 432.607 68.8828C432.979 68.8828 433.29 68.8299 433.54 68.7241C433.794 68.6183 433.984 68.4702 434.111 68.2798C434.238 68.0894 434.302 67.8693 434.302 67.6196ZM443.497 60.7578H445.083V66.9341C445.083 67.6366 444.931 68.2248 444.626 68.6987C444.322 69.1727 443.907 69.5303 443.382 69.7715C442.862 70.0085 442.28 70.127 441.637 70.127C440.972 70.127 440.38 70.0085 439.859 69.7715C439.339 69.5303 438.928 69.1727 438.628 68.6987C438.332 68.2248 438.184 67.6366 438.184 66.9341V60.7578H439.771V66.9341C439.771 67.3784 439.847 67.7445 439.999 68.0322C440.151 68.3158 440.367 68.5252 440.646 68.6606C440.926 68.7961 441.256 68.8638 441.637 68.8638C442.018 68.8638 442.346 68.7961 442.621 68.6606C442.9 68.5252 443.116 68.3158 443.268 68.0322C443.42 67.7445 443.497 67.3784 443.497 66.9341V60.7578ZM453.275 66.9912H454.862C454.812 67.5964 454.642 68.1359 454.354 68.6099C454.067 69.0796 453.663 69.4499 453.142 69.7207C452.622 69.9915 451.989 70.127 451.244 70.127C450.673 70.127 450.159 70.0254 449.702 69.8223C449.245 69.6149 448.853 69.3229 448.527 68.9463C448.201 68.5654 447.952 68.1063 447.778 67.5688C447.609 67.0314 447.524 66.4305 447.524 65.7661V64.998C447.524 64.3337 447.611 63.7327 447.785 63.1953C447.962 62.6579 448.216 62.1987 448.546 61.8179C448.876 61.4328 449.272 61.1387 449.733 60.9355C450.199 60.7324 450.722 60.6309 451.301 60.6309C452.038 60.6309 452.66 60.7663 453.167 61.0371C453.675 61.3079 454.069 61.6825 454.348 62.1606C454.632 62.6388 454.805 63.1868 454.869 63.8047H453.282C453.239 63.4069 453.146 63.0662 453.002 62.7827C452.863 62.4992 452.655 62.2834 452.38 62.1353C452.105 61.9829 451.746 61.9067 451.301 61.9067C450.937 61.9067 450.62 61.9744 450.349 62.1099C450.078 62.2453 449.852 62.4442 449.67 62.7065C449.488 62.9689 449.35 63.2926 449.257 63.6777C449.168 64.0586 449.124 64.4945 449.124 64.9854V65.7661C449.124 66.2316 449.164 66.6548 449.245 67.0356C449.329 67.4123 449.456 67.736 449.625 68.0068C449.799 68.2777 450.019 68.4871 450.286 68.6353C450.552 68.7834 450.872 68.8574 451.244 68.8574C451.697 68.8574 452.063 68.7855 452.342 68.6416C452.626 68.4977 452.84 68.2882 452.983 68.0132C453.132 67.7339 453.229 67.3932 453.275 66.9912ZM462.769 66.9912H464.355C464.305 67.5964 464.135 68.1359 463.848 68.6099C463.56 69.0796 463.156 69.4499 462.635 69.7207C462.115 69.9915 461.482 70.127 460.737 70.127C460.166 70.127 459.652 70.0254 459.195 69.8223C458.738 69.6149 458.346 69.3229 458.021 68.9463C457.695 68.5654 457.445 68.1063 457.271 67.5688C457.102 67.0314 457.018 66.4305 457.018 65.7661V64.998C457.018 64.3337 457.104 63.7327 457.278 63.1953C457.456 62.6579 457.709 62.1987 458.04 61.8179C458.37 61.4328 458.765 61.1387 459.227 60.9355C459.692 60.7324 460.215 60.6309 460.794 60.6309C461.531 60.6309 462.153 60.7663 462.661 61.0371C463.168 61.3079 463.562 61.6825 463.841 62.1606C464.125 62.6388 464.298 63.1868 464.362 63.8047H462.775C462.733 63.4069 462.639 63.0662 462.496 62.7827C462.356 62.4992 462.149 62.2834 461.874 62.1353C461.598 61.9829 461.239 61.9067 460.794 61.9067C460.431 61.9067 460.113 61.9744 459.842 62.1099C459.571 62.2453 459.345 62.4442 459.163 62.7065C458.981 62.9689 458.844 63.2926 458.75 63.6777C458.662 64.0586 458.617 64.4945 458.617 64.9854V65.7661C458.617 66.2316 458.657 66.6548 458.738 67.0356C458.822 67.4123 458.949 67.736 459.119 68.0068C459.292 68.2777 459.512 68.4871 459.779 68.6353C460.045 68.7834 460.365 68.8574 460.737 68.8574C461.19 68.8574 461.556 68.7855 461.835 68.6416C462.119 68.4977 462.333 68.2882 462.477 68.0132C462.625 67.7339 462.722 67.3932 462.769 66.9912ZM472.852 68.7368V70H467.945V68.7368H472.852ZM468.396 60.7578V70H466.803V60.7578H468.396ZM472.211 64.6172V65.8613H467.945V64.6172H472.211ZM472.82 60.7578V62.0273H467.945V60.7578H472.82ZM480.016 67.6196C480.016 67.4292 479.986 67.2599 479.927 67.1118C479.872 66.9637 479.772 66.8283 479.628 66.7056C479.485 66.5828 479.281 66.4644 479.019 66.3501C478.761 66.2316 478.431 66.111 478.029 65.9883C477.589 65.8529 477.182 65.7026 476.81 65.5376C476.442 65.3683 476.12 65.1737 475.845 64.9536C475.57 64.7293 475.356 64.4733 475.204 64.1855C475.052 63.8936 474.976 63.5571 474.976 63.1763C474.976 62.7996 475.054 62.4569 475.21 62.1479C475.371 61.839 475.598 61.5724 475.89 61.3481C476.186 61.1196 476.535 60.944 476.937 60.8213C477.339 60.6943 477.783 60.6309 478.27 60.6309C478.956 60.6309 479.546 60.7578 480.041 61.0117C480.54 61.2656 480.923 61.6063 481.19 62.0337C481.461 62.4611 481.596 62.9329 481.596 63.4492H480.016C480.016 63.1445 479.95 62.8758 479.819 62.6431C479.692 62.4061 479.497 62.2199 479.235 62.0845C478.977 61.9491 478.649 61.8813 478.251 61.8813C477.874 61.8813 477.561 61.9385 477.312 62.0527C477.062 62.167 476.876 62.3215 476.753 62.5161C476.63 62.7108 476.569 62.9308 476.569 63.1763C476.569 63.3498 476.609 63.5085 476.689 63.6523C476.77 63.792 476.893 63.9232 477.058 64.0459C477.223 64.1644 477.43 64.2765 477.68 64.3823C477.929 64.4881 478.223 64.5897 478.562 64.687C479.074 64.8394 479.521 65.0086 479.901 65.1948C480.282 65.3768 480.6 65.5841 480.854 65.8169C481.107 66.0496 481.298 66.3141 481.425 66.6104C481.552 66.9023 481.615 67.2345 481.615 67.6069C481.615 67.9963 481.537 68.3475 481.38 68.6606C481.224 68.9696 481 69.234 480.708 69.4541C480.42 69.6699 480.073 69.8371 479.667 69.9556C479.264 70.0698 478.816 70.127 478.321 70.127C477.876 70.127 477.438 70.0677 477.007 69.9492C476.579 69.8307 476.19 69.6509 475.839 69.4097C475.488 69.1642 475.208 68.8595 475.001 68.4956C474.794 68.1274 474.69 67.6979 474.69 67.207H476.283C476.283 67.5075 476.334 67.7635 476.436 67.9751C476.541 68.1867 476.687 68.3602 476.874 68.4956C477.06 68.6268 477.276 68.7241 477.521 68.7876C477.771 68.8511 478.037 68.8828 478.321 68.8828C478.693 68.8828 479.004 68.8299 479.254 68.7241C479.508 68.6183 479.698 68.4702 479.825 68.2798C479.952 68.0894 480.016 67.8693 480.016 67.6196ZM488.887 67.6196C488.887 67.4292 488.857 67.2599 488.798 67.1118C488.743 66.9637 488.643 66.8283 488.5 66.7056C488.356 66.5828 488.153 66.4644 487.89 66.3501C487.632 66.2316 487.302 66.111 486.9 65.9883C486.46 65.8529 486.054 65.7026 485.681 65.5376C485.313 65.3683 484.991 65.1737 484.716 64.9536C484.441 64.7293 484.228 64.4733 484.075 64.1855C483.923 63.8936 483.847 63.5571 483.847 63.1763C483.847 62.7996 483.925 62.4569 484.082 62.1479C484.242 61.839 484.469 61.5724 484.761 61.3481C485.057 61.1196 485.406 60.944 485.808 60.8213C486.21 60.6943 486.654 60.6309 487.141 60.6309C487.827 60.6309 488.417 60.7578 488.912 61.0117C489.411 61.2656 489.794 61.6063 490.061 62.0337C490.332 62.4611 490.467 62.9329 490.467 63.4492H488.887C488.887 63.1445 488.821 62.8758 488.69 62.6431C488.563 62.4061 488.368 62.2199 488.106 62.0845C487.848 61.9491 487.52 61.8813 487.122 61.8813C486.745 61.8813 486.432 61.9385 486.183 62.0527C485.933 62.167 485.747 62.3215 485.624 62.5161C485.501 62.7108 485.44 62.9308 485.44 63.1763C485.44 63.3498 485.48 63.5085 485.561 63.6523C485.641 63.792 485.764 63.9232 485.929 64.0459C486.094 64.1644 486.301 64.2765 486.551 64.3823C486.8 64.4881 487.095 64.5897 487.433 64.687C487.945 64.8394 488.392 65.0086 488.772 65.1948C489.153 65.3768 489.471 65.5841 489.725 65.8169C489.979 66.0496 490.169 66.3141 490.296 66.6104C490.423 66.9023 490.486 67.2345 490.486 67.6069C490.486 67.9963 490.408 68.3475 490.251 68.6606C490.095 68.9696 489.871 69.234 489.579 69.4541C489.291 69.6699 488.944 69.8371 488.538 69.9556C488.136 70.0698 487.687 70.127 487.192 70.127C486.748 70.127 486.31 70.0677 485.878 69.9492C485.451 69.8307 485.061 69.6509 484.71 69.4097C484.359 69.1642 484.079 68.8595 483.872 68.4956C483.665 68.1274 483.561 67.6979 483.561 67.207H485.154C485.154 67.5075 485.205 67.7635 485.307 67.9751C485.412 68.1867 485.558 68.3602 485.745 68.4956C485.931 68.6268 486.147 68.7241 486.392 68.7876C486.642 68.8511 486.908 68.8828 487.192 68.8828C487.564 68.8828 487.875 68.8299 488.125 68.7241C488.379 68.6183 488.569 68.4702 488.696 68.2798C488.823 68.0894 488.887 67.8693 488.887 67.6196Z" fill="#737373"/>
<path d="M535 159C535 200.421 501.421 234 460 234C418.579 234 385 200.421 385 159C385 117.579 418.579 84 460 84C501.421 84 535 117.579 535 159ZM400 159C400 192.137 426.863 219 460 219C493.137 219 520 192.137 520 159C520 125.863 493.137 99 460 99C426.863 99 400 125.863 400 159Z" fill="#F2F2F2"/>
<path d="M460 84C478.263 84 495.899 90.664 509.598 102.742C523.298 114.819 532.12 131.481 534.409 149.6C536.698 167.719 532.297 186.051 522.031 201.156C511.766 216.261 496.341 227.102 478.652 231.644C460.962 236.186 442.223 234.117 425.951 225.825C409.678 217.534 396.99 203.59 390.267 186.609C383.544 169.629 383.247 150.778 389.434 133.595C395.62 116.411 407.864 102.075 423.869 93.277L431.095 106.422C418.291 113.46 408.496 124.929 403.547 138.676C398.598 152.423 398.835 167.503 404.213 181.087C409.592 194.672 419.742 205.827 432.761 212.46C445.779 219.093 460.77 220.749 474.921 217.115C489.073 213.481 501.412 204.809 509.625 192.725C517.837 180.641 521.358 165.975 519.527 151.48C517.696 136.985 510.638 123.655 499.679 113.993C488.719 104.331 474.611 99 460 99V84Z" fill="#18BB4B"/>
<path d="M434 168.723H434.371C435.934 168.723 437.275 168.534 438.395 168.156C439.527 167.766 440.458 167.206 441.188 166.477C441.917 165.747 442.457 164.855 442.809 163.801C443.16 162.733 443.336 161.522 443.336 160.168V154.777C443.336 153.749 443.232 152.844 443.023 152.062C442.828 151.281 442.542 150.637 442.164 150.129C441.799 149.608 441.37 149.217 440.875 148.957C440.393 148.697 439.859 148.566 439.273 148.566C438.648 148.566 438.095 148.723 437.613 149.035C437.132 149.335 436.721 149.745 436.383 150.266C436.057 150.786 435.803 151.385 435.621 152.062C435.452 152.727 435.367 153.423 435.367 154.152C435.367 154.882 435.452 155.578 435.621 156.242C435.79 156.893 436.044 157.473 436.383 157.98C436.721 158.475 437.145 158.872 437.652 159.172C438.16 159.458 438.759 159.602 439.449 159.602C440.113 159.602 440.706 159.478 441.227 159.23C441.76 158.97 442.21 158.632 442.574 158.215C442.952 157.798 443.238 157.336 443.434 156.828C443.642 156.32 443.746 155.806 443.746 155.285L445.602 156.301C445.602 157.212 445.406 158.111 445.016 158.996C444.625 159.882 444.078 160.689 443.375 161.418C442.685 162.134 441.884 162.707 440.973 163.137C440.061 163.566 439.085 163.781 438.043 163.781C436.715 163.781 435.536 163.54 434.508 163.059C433.479 162.564 432.607 161.887 431.891 161.027C431.188 160.155 430.654 159.139 430.289 157.98C429.924 156.822 429.742 155.565 429.742 154.211C429.742 152.831 429.964 151.535 430.406 150.324C430.862 149.113 431.507 148.046 432.34 147.121C433.186 146.197 434.195 145.474 435.367 144.953C436.552 144.419 437.867 144.152 439.312 144.152C440.758 144.152 442.073 144.432 443.258 144.992C444.443 145.552 445.458 146.346 446.305 147.375C447.151 148.391 447.802 149.608 448.258 151.027C448.727 152.447 448.961 154.022 448.961 155.754V157.707C448.961 159.556 448.759 161.275 448.355 162.863C447.965 164.452 447.372 165.891 446.578 167.18C445.797 168.456 444.82 169.549 443.648 170.461C442.49 171.372 441.142 172.069 439.605 172.551C438.069 173.033 436.35 173.273 434.449 173.273H434V168.723ZM472.145 165.207C472.145 166.991 471.728 168.495 470.895 169.719C470.061 170.93 468.915 171.848 467.457 172.473C466.012 173.085 464.371 173.391 462.535 173.391C460.699 173.391 459.052 173.085 457.594 172.473C456.135 171.848 454.983 170.93 454.137 169.719C453.29 168.495 452.867 166.991 452.867 165.207C452.867 164.009 453.108 162.928 453.59 161.965C454.072 160.988 454.742 160.155 455.602 159.465C456.474 158.762 457.496 158.228 458.668 157.863C459.84 157.486 461.116 157.297 462.496 157.297C464.345 157.297 465.999 157.622 467.457 158.273C468.915 158.924 470.061 159.842 470.895 161.027C471.728 162.212 472.145 163.605 472.145 165.207ZM466.48 164.836C466.48 163.964 466.311 163.215 465.973 162.59C465.647 161.952 465.185 161.464 464.586 161.125C463.987 160.786 463.29 160.617 462.496 160.617C461.702 160.617 461.005 160.786 460.406 161.125C459.807 161.464 459.339 161.952 459 162.59C458.674 163.215 458.512 163.964 458.512 164.836C458.512 165.695 458.674 166.438 459 167.062C459.339 167.688 459.807 168.169 460.406 168.508C461.018 168.833 461.728 168.996 462.535 168.996C463.342 168.996 464.039 168.833 464.625 168.508C465.224 168.169 465.68 167.688 465.992 167.062C466.318 166.438 466.48 165.695 466.48 164.836ZM471.539 152.102C471.539 153.547 471.155 154.829 470.387 155.949C469.618 157.056 468.551 157.922 467.184 158.547C465.829 159.172 464.28 159.484 462.535 159.484C460.777 159.484 459.215 159.172 457.848 158.547C456.48 157.922 455.413 157.056 454.645 155.949C453.876 154.829 453.492 153.547 453.492 152.102C453.492 150.383 453.876 148.938 454.645 147.766C455.426 146.581 456.493 145.682 457.848 145.07C459.215 144.458 460.764 144.152 462.496 144.152C464.254 144.152 465.81 144.458 467.164 145.07C468.531 145.682 469.599 146.581 470.367 147.766C471.148 148.938 471.539 150.383 471.539 152.102ZM465.914 152.355C465.914 151.587 465.777 150.923 465.504 150.363C465.23 149.79 464.84 149.348 464.332 149.035C463.837 148.723 463.225 148.566 462.496 148.566C461.793 148.566 461.188 148.716 460.68 149.016C460.185 149.315 459.801 149.751 459.527 150.324C459.267 150.884 459.137 151.561 459.137 152.355C459.137 153.124 459.267 153.801 459.527 154.387C459.801 154.96 460.191 155.409 460.699 155.734C461.207 156.06 461.819 156.223 462.535 156.223C463.251 156.223 463.857 156.06 464.352 155.734C464.859 155.409 465.243 154.96 465.504 154.387C465.777 153.801 465.914 153.124 465.914 152.355Z" fill="#1A1A1A"/>
<path d="M475.125 160.121V159.219C475.125 158.57 475.266 157.98 475.547 157.449C475.828 156.918 476.242 156.492 476.789 156.172C477.336 155.852 478.008 155.691 478.805 155.691C479.625 155.691 480.309 155.852 480.855 156.172C481.41 156.492 481.824 156.918 482.098 157.449C482.379 157.98 482.52 158.57 482.52 159.219V160.121C482.52 160.754 482.379 161.336 482.098 161.867C481.824 162.398 481.414 162.824 480.867 163.145C480.32 163.465 479.645 163.625 478.84 163.625C478.027 163.625 477.344 163.465 476.789 163.145C476.242 162.824 475.828 162.398 475.547 161.867C475.266 161.336 475.125 160.754 475.125 160.121ZM477.363 159.219V160.121C477.363 160.395 477.414 160.656 477.516 160.906C477.625 161.148 477.789 161.348 478.008 161.504C478.234 161.652 478.508 161.727 478.828 161.727C479.164 161.727 479.438 161.652 479.648 161.504C479.859 161.348 480.016 161.148 480.117 160.906C480.219 160.656 480.27 160.395 480.27 160.121V159.219C480.27 158.93 480.215 158.664 480.105 158.422C480.004 158.172 479.844 157.973 479.625 157.824C479.414 157.668 479.141 157.59 478.805 157.59C478.492 157.59 478.227 157.668 478.008 157.824C477.789 157.973 477.625 158.172 477.516 158.422C477.414 158.664 477.363 158.93 477.363 159.219ZM483.281 169.719V168.816C483.281 168.176 483.422 167.59 483.703 167.059C483.992 166.527 484.41 166.102 484.957 165.781C485.512 165.461 486.191 165.301 486.996 165.301C487.809 165.301 488.488 165.461 489.035 165.781C489.582 166.102 489.996 166.527 490.277 167.059C490.559 167.59 490.699 168.176 490.699 168.816V169.719C490.699 170.359 490.559 170.945 490.277 171.477C490.004 172.008 489.594 172.434 489.047 172.754C488.5 173.074 487.824 173.234 487.02 173.234C486.207 173.234 485.523 173.074 484.969 172.754C484.414 172.434 483.992 172.008 483.703 171.477C483.422 170.945 483.281 170.359 483.281 169.719ZM485.531 168.816V169.719C485.531 170 485.594 170.266 485.719 170.516C485.844 170.766 486.016 170.965 486.234 171.113C486.461 171.262 486.723 171.336 487.02 171.336C487.395 171.336 487.688 171.262 487.898 171.113C488.109 170.965 488.254 170.766 488.332 170.516C488.418 170.266 488.461 170 488.461 169.719V168.816C488.461 168.535 488.406 168.273 488.297 168.031C488.188 167.781 488.023 167.582 487.805 167.434C487.594 167.277 487.324 167.199 486.996 167.199C486.668 167.199 486.395 167.277 486.176 167.434C485.965 167.582 485.805 167.781 485.695 168.031C485.586 168.273 485.531 168.535 485.531 168.816ZM487.828 158.375L479.496 171.711L477.855 170.844L486.188 157.508L487.828 158.375Z" fill="#1A1A1A"/>
<rect width="278" height="210" transform="translate(41 252)" fill="white"/>
<path d="M150.756 279.924L152.597 272.758H153.562L153.454 274.605L151.486 282H150.483L150.756 279.924ZM149.379 272.758L150.871 279.867L151.004 282H149.938L147.798 272.758H149.379ZM155.65 279.848L157.123 272.758H158.71L156.571 282H155.504L155.65 279.848ZM153.937 272.758L155.758 279.943L156.025 282H155.022L153.086 274.605L152.984 272.758H153.937ZM164.21 273.989L161.449 282H159.78L163.258 272.758H164.325L164.21 273.989ZM166.521 282L163.753 273.989L163.633 272.758H164.706L168.197 282H166.521ZM166.388 278.572V279.835H161.36V278.572H166.388ZM170.231 272.758H173.5C174.203 272.758 174.802 272.864 175.297 273.075C175.792 273.287 176.171 273.6 176.433 274.015C176.7 274.425 176.833 274.933 176.833 275.538C176.833 275.999 176.748 276.406 176.579 276.757C176.41 277.108 176.171 277.404 175.862 277.646C175.553 277.882 175.185 278.067 174.757 278.198L174.275 278.433H171.336L171.323 277.169H173.526C173.907 277.169 174.224 277.102 174.478 276.966C174.732 276.831 174.922 276.647 175.049 276.414C175.181 276.177 175.246 275.91 175.246 275.614C175.246 275.293 175.183 275.013 175.056 274.776C174.933 274.535 174.743 274.351 174.484 274.224C174.226 274.093 173.898 274.027 173.5 274.027H171.825V282H170.231V272.758ZM175.506 282L173.335 277.849L175.005 277.842L177.208 281.917V282H175.506ZM186.751 272.758V282H185.158L181.013 275.379V282H179.42V272.758H181.013L185.171 279.391V272.758H186.751ZM191.351 272.758V282H189.757V272.758H191.351ZM201.663 272.758V282H200.069L195.924 275.379V282H194.331V272.758H195.924L200.082 279.391V272.758H201.663ZM211.657 277.277V280.807C211.526 280.98 211.321 281.171 211.042 281.378C210.766 281.581 210.4 281.757 209.943 281.905C209.486 282.053 208.917 282.127 208.236 282.127C207.656 282.127 207.125 282.03 206.643 281.835C206.16 281.636 205.743 281.346 205.392 280.965C205.045 280.584 204.776 280.121 204.586 279.575C204.396 279.025 204.3 278.399 204.3 277.696V277.055C204.3 276.357 204.387 275.735 204.561 275.189C204.738 274.639 204.992 274.173 205.322 273.792C205.652 273.412 206.05 273.124 206.516 272.929C206.985 272.73 207.516 272.631 208.109 272.631C208.866 272.631 209.493 272.758 209.988 273.012C210.487 273.261 210.872 273.608 211.143 274.053C211.414 274.497 211.585 275.005 211.657 275.576H210.096C210.045 275.255 209.945 274.967 209.797 274.713C209.653 274.459 209.446 274.26 209.175 274.116C208.909 273.968 208.562 273.894 208.134 273.894C207.766 273.894 207.442 273.964 207.163 274.104C206.884 274.243 206.651 274.448 206.465 274.719C206.283 274.99 206.145 275.32 206.052 275.709C205.959 276.099 205.913 276.543 205.913 277.042V277.696C205.913 278.204 205.965 278.655 206.071 279.048C206.181 279.442 206.338 279.774 206.541 280.045C206.748 280.316 207 280.521 207.296 280.661C207.593 280.796 207.927 280.864 208.299 280.864C208.663 280.864 208.962 280.834 209.194 280.775C209.427 280.711 209.611 280.637 209.747 280.553C209.886 280.464 209.994 280.379 210.07 280.299V278.464H208.147V277.277H211.657Z" fill="#737373"/>
<path d="M255 371C255 412.421 221.421 446 180 446C138.579 446 105 412.421 105 371C105 329.579 138.579 296 180 296C221.421 296 255 329.579 255 371ZM120 371C120 404.137 146.863 431 180 431C213.137 431 240 404.137 240 371C240 337.863 213.137 311 180 311C146.863 311 120 337.863 120 371Z" fill="#F2F2F2"/>
<path d="M180 296C191.836 296 203.504 298.801 214.049 304.175C224.595 309.548 233.719 317.341 240.676 326.916C247.633 336.491 252.225 347.577 254.077 359.267C255.928 370.957 254.987 382.92 251.329 394.176C247.672 405.433 241.402 415.664 233.033 424.033C224.664 432.402 214.433 438.672 203.176 442.329C191.92 445.987 179.957 446.928 168.267 445.077C156.577 443.225 145.491 438.633 135.916 431.676L144.733 419.541C152.393 425.107 161.262 428.78 170.614 430.261C179.966 431.743 189.536 430.989 198.541 428.063C207.546 425.137 215.731 420.122 222.426 413.426C229.122 406.731 234.137 398.546 237.063 389.541C239.989 380.536 240.743 370.966 239.261 361.614C237.78 352.262 234.107 343.393 228.541 335.733C222.976 328.073 215.676 321.838 207.239 317.54C198.803 313.241 189.469 311 180 311V296Z" fill="#FFCC20"/>
<path d="M162.996 356.27H163.816V360.762H163.484C162 360.762 160.678 360.983 159.52 361.426C158.361 361.868 157.378 362.5 156.57 363.32C155.776 364.128 155.164 365.104 154.734 366.25C154.318 367.396 154.109 368.678 154.109 370.098V374.824C154.109 375.84 154.207 376.738 154.402 377.52C154.611 378.288 154.904 378.932 155.281 379.453C155.672 379.961 156.128 380.345 156.648 380.605C157.169 380.853 157.755 380.977 158.406 380.977C159.018 380.977 159.572 380.846 160.066 380.586C160.574 380.326 161.004 379.961 161.355 379.492C161.72 379.01 161.993 378.451 162.176 377.812C162.371 377.161 162.469 376.452 162.469 375.684C162.469 374.915 162.371 374.206 162.176 373.555C161.993 372.904 161.72 372.344 161.355 371.875C160.991 371.393 160.548 371.022 160.027 370.762C159.507 370.501 158.921 370.371 158.27 370.371C157.384 370.371 156.603 370.579 155.926 370.996C155.262 371.4 154.741 371.921 154.363 372.559C153.986 373.197 153.784 373.867 153.758 374.57L152.059 373.477C152.098 372.474 152.306 371.523 152.684 370.625C153.074 369.727 153.608 368.932 154.285 368.242C154.975 367.539 155.802 366.992 156.766 366.602C157.729 366.198 158.816 365.996 160.027 365.996C161.355 365.996 162.521 366.25 163.523 366.758C164.539 367.266 165.385 367.962 166.062 368.848C166.74 369.733 167.247 370.755 167.586 371.914C167.924 373.073 168.094 374.31 168.094 375.625C168.094 377.005 167.866 378.288 167.41 379.473C166.967 380.658 166.323 381.693 165.477 382.578C164.643 383.464 163.641 384.154 162.469 384.648C161.297 385.143 159.982 385.391 158.523 385.391C157.013 385.391 155.639 385.117 154.402 384.57C153.178 384.01 152.124 383.229 151.238 382.227C150.353 381.224 149.669 380.033 149.188 378.652C148.719 377.272 148.484 375.762 148.484 374.121V371.934C148.484 369.642 148.816 367.546 149.48 365.645C150.158 363.73 151.128 362.077 152.391 360.684C153.654 359.277 155.177 358.19 156.961 357.422C158.745 356.654 160.757 356.27 162.996 356.27ZM190.594 368.281V373.203C190.594 375.339 190.366 377.181 189.91 378.73C189.454 380.267 188.797 381.53 187.938 382.52C187.091 383.496 186.082 384.219 184.91 384.688C183.738 385.156 182.436 385.391 181.004 385.391C179.858 385.391 178.79 385.247 177.801 384.961C176.811 384.661 175.919 384.199 175.125 383.574C174.344 382.949 173.667 382.161 173.094 381.211C172.534 380.247 172.104 379.102 171.805 377.773C171.505 376.445 171.355 374.922 171.355 373.203V368.281C171.355 366.146 171.583 364.316 172.039 362.793C172.508 361.257 173.165 360 174.012 359.023C174.871 358.047 175.887 357.331 177.059 356.875C178.23 356.406 179.533 356.172 180.965 356.172C182.111 356.172 183.172 356.322 184.148 356.621C185.138 356.908 186.03 357.357 186.824 357.969C187.618 358.581 188.296 359.368 188.855 360.332C189.415 361.283 189.845 362.422 190.145 363.75C190.444 365.065 190.594 366.576 190.594 368.281ZM184.949 373.945V367.52C184.949 366.491 184.891 365.592 184.773 364.824C184.669 364.056 184.507 363.405 184.285 362.871C184.064 362.324 183.79 361.882 183.465 361.543C183.139 361.204 182.768 360.957 182.352 360.801C181.935 360.645 181.473 360.566 180.965 360.566C180.327 360.566 179.76 360.69 179.266 360.938C178.784 361.185 178.374 361.582 178.035 362.129C177.697 362.663 177.436 363.379 177.254 364.277C177.085 365.163 177 366.243 177 367.52V373.945C177 374.974 177.052 375.879 177.156 376.66C177.273 377.441 177.443 378.112 177.664 378.672C177.898 379.219 178.172 379.668 178.484 380.02C178.81 380.358 179.181 380.605 179.598 380.762C180.027 380.918 180.496 380.996 181.004 380.996C181.629 380.996 182.182 380.872 182.664 380.625C183.159 380.365 183.576 379.961 183.914 379.414C184.266 378.854 184.526 378.125 184.695 377.227C184.865 376.328 184.949 375.234 184.949 373.945Z" fill="#1A1A1A"/>
<path d="M196.625 372.121V371.219C196.625 370.57 196.766 369.98 197.047 369.449C197.328 368.918 197.742 368.492 198.289 368.172C198.836 367.852 199.508 367.691 200.305 367.691C201.125 367.691 201.809 367.852 202.355 368.172C202.91 368.492 203.324 368.918 203.598 369.449C203.879 369.98 204.02 370.57 204.02 371.219V372.121C204.02 372.754 203.879 373.336 203.598 373.867C203.324 374.398 202.914 374.824 202.367 375.145C201.82 375.465 201.145 375.625 200.34 375.625C199.527 375.625 198.844 375.465 198.289 375.145C197.742 374.824 197.328 374.398 197.047 373.867C196.766 373.336 196.625 372.754 196.625 372.121ZM198.863 371.219V372.121C198.863 372.395 198.914 372.656 199.016 372.906C199.125 373.148 199.289 373.348 199.508 373.504C199.734 373.652 200.008 373.727 200.328 373.727C200.664 373.727 200.938 373.652 201.148 373.504C201.359 373.348 201.516 373.148 201.617 372.906C201.719 372.656 201.77 372.395 201.77 372.121V371.219C201.77 370.93 201.715 370.664 201.605 370.422C201.504 370.172 201.344 369.973 201.125 369.824C200.914 369.668 200.641 369.59 200.305 369.59C199.992 369.59 199.727 369.668 199.508 369.824C199.289 369.973 199.125 370.172 199.016 370.422C198.914 370.664 198.863 370.93 198.863 371.219ZM204.781 381.719V380.816C204.781 380.176 204.922 379.59 205.203 379.059C205.492 378.527 205.91 378.102 206.457 377.781C207.012 377.461 207.691 377.301 208.496 377.301C209.309 377.301 209.988 377.461 210.535 377.781C211.082 378.102 211.496 378.527 211.777 379.059C212.059 379.59 212.199 380.176 212.199 380.816V381.719C212.199 382.359 212.059 382.945 211.777 383.477C211.504 384.008 211.094 384.434 210.547 384.754C210 385.074 209.324 385.234 208.52 385.234C207.707 385.234 207.023 385.074 206.469 384.754C205.914 384.434 205.492 384.008 205.203 383.477C204.922 382.945 204.781 382.359 204.781 381.719ZM207.031 380.816V381.719C207.031 382 207.094 382.266 207.219 382.516C207.344 382.766 207.516 382.965 207.734 383.113C207.961 383.262 208.223 383.336 208.52 383.336C208.895 383.336 209.188 383.262 209.398 383.113C209.609 382.965 209.754 382.766 209.832 382.516C209.918 382.266 209.961 382 209.961 381.719V380.816C209.961 380.535 209.906 380.273 209.797 380.031C209.688 379.781 209.523 379.582 209.305 379.434C209.094 379.277 208.824 379.199 208.496 379.199C208.168 379.199 207.895 379.277 207.676 379.434C207.465 379.582 207.305 379.781 207.195 380.031C207.086 380.273 207.031 380.535 207.031 380.816ZM209.328 370.375L200.996 383.711L199.355 382.844L207.688 369.508L209.328 370.375Z" fill="#1A1A1A"/>
<rect width="278" height="210" transform="translate(321 252)" fill="white"/>
<path d="M444.489 280.737V282H439.582V280.737H444.489ZM440.033 272.758V282H438.439V272.758H440.033ZM443.848 276.617V277.861H439.582V276.617H443.848ZM444.457 272.758V274.027H439.582V272.758H444.457ZM446.79 272.758H450.059C450.762 272.758 451.36 272.864 451.855 273.075C452.351 273.287 452.729 273.6 452.992 274.015C453.258 274.425 453.392 274.933 453.392 275.538C453.392 275.999 453.307 276.406 453.138 276.757C452.968 277.108 452.729 277.404 452.42 277.646C452.111 277.882 451.743 278.067 451.316 278.198L450.833 278.433H447.895L447.882 277.169H450.084C450.465 277.169 450.783 277.102 451.037 276.966C451.291 276.831 451.481 276.647 451.608 276.414C451.739 276.177 451.805 275.91 451.805 275.614C451.805 275.293 451.741 275.013 451.614 274.776C451.492 274.535 451.301 274.351 451.043 274.224C450.785 274.093 450.457 274.027 450.059 274.027H448.383V282H446.79V272.758ZM452.065 282L449.894 277.849L451.563 277.842L453.766 281.917V282H452.065ZM455.979 272.758H459.248C459.95 272.758 460.549 272.864 461.044 273.075C461.539 273.287 461.918 273.6 462.18 274.015C462.447 274.425 462.58 274.933 462.58 275.538C462.58 275.999 462.495 276.406 462.326 276.757C462.157 277.108 461.918 277.404 461.609 277.646C461.3 277.882 460.932 278.067 460.504 278.198L460.022 278.433H457.083L457.07 277.169H459.273C459.654 277.169 459.971 277.102 460.225 276.966C460.479 276.831 460.669 276.647 460.796 276.414C460.928 276.177 460.993 275.91 460.993 275.614C460.993 275.293 460.93 275.013 460.803 274.776C460.68 274.535 460.49 274.351 460.231 274.224C459.973 274.093 459.645 274.027 459.248 274.027H457.572V282H455.979V272.758ZM461.253 282L459.083 277.849L460.752 277.842L462.955 281.917V282H461.253ZM472.537 277.125V277.633C472.537 278.331 472.446 278.957 472.264 279.512C472.082 280.066 471.821 280.538 471.483 280.927C471.149 281.317 470.747 281.615 470.277 281.822C469.807 282.025 469.287 282.127 468.715 282.127C468.148 282.127 467.63 282.025 467.16 281.822C466.695 281.615 466.291 281.317 465.948 280.927C465.605 280.538 465.338 280.066 465.148 279.512C464.962 278.957 464.869 278.331 464.869 277.633V277.125C464.869 276.427 464.962 275.803 465.148 275.252C465.334 274.698 465.597 274.226 465.935 273.837C466.278 273.443 466.682 273.145 467.147 272.942C467.617 272.735 468.136 272.631 468.703 272.631C469.274 272.631 469.794 272.735 470.264 272.942C470.734 273.145 471.138 273.443 471.477 273.837C471.815 274.226 472.075 274.698 472.257 275.252C472.444 275.803 472.537 276.427 472.537 277.125ZM470.943 277.633V277.112C470.943 276.596 470.893 276.141 470.791 275.748C470.694 275.35 470.548 275.018 470.353 274.751C470.163 274.48 469.928 274.277 469.648 274.142C469.369 274.002 469.054 273.932 468.703 273.932C468.351 273.932 468.038 274.002 467.763 274.142C467.488 274.277 467.253 274.48 467.059 274.751C466.868 275.018 466.722 275.35 466.621 275.748C466.519 276.141 466.468 276.596 466.468 277.112V277.633C466.468 278.149 466.519 278.606 466.621 279.004C466.722 279.402 466.87 279.738 467.065 280.013C467.264 280.284 467.501 280.489 467.776 280.629C468.051 280.764 468.364 280.832 468.715 280.832C469.071 280.832 469.386 280.764 469.661 280.629C469.936 280.489 470.169 280.284 470.359 280.013C470.55 279.738 470.694 279.402 470.791 279.004C470.893 278.606 470.943 278.149 470.943 277.633ZM475.13 272.758H478.399C479.101 272.758 479.7 272.864 480.195 273.075C480.69 273.287 481.069 273.6 481.332 274.015C481.598 274.425 481.731 274.933 481.731 275.538C481.731 275.999 481.647 276.406 481.478 276.757C481.308 277.108 481.069 277.404 480.76 277.646C480.451 277.882 480.083 278.067 479.656 278.198L479.173 278.433H476.234L476.222 277.169H478.424C478.805 277.169 479.123 277.102 479.376 276.966C479.63 276.831 479.821 276.647 479.948 276.414C480.079 276.177 480.145 275.91 480.145 275.614C480.145 275.293 480.081 275.013 479.954 274.776C479.831 274.535 479.641 274.351 479.383 274.224C479.125 274.093 478.797 274.027 478.399 274.027H476.723V282H475.13V272.758ZM480.405 282L478.234 277.849L479.903 277.842L482.106 281.917V282H480.405Z" fill="#737373"/>
<path d="M535 371C535 412.421 501.421 446 460 446C418.579 446 385 412.421 385 371C385 329.579 418.579 296 460 296C501.421 296 535 329.579 535 371ZM400 371C400 404.137 426.863 431 460 431C493.137 431 520 404.137 520 371C520 337.863 493.137 311 460 311C426.863 311 400 337.863 400 371Z" fill="#F2F2F2"/>
<path d="M460 296C473.432 296 486.617 299.607 498.178 306.444C509.739 313.282 519.252 323.098 525.723 334.868C532.194 346.639 535.385 359.931 534.963 373.356C534.541 386.781 530.522 399.846 523.325 411.187L510.66 403.15C516.417 394.077 519.633 383.625 519.97 372.885C520.308 362.145 517.755 351.511 512.578 342.095C507.402 332.679 499.791 324.825 490.542 319.355C481.294 313.886 470.745 311 460 311V296Z" fill="#F45C59"/>
<path d="M434.246 368.34H437.254C438.217 368.34 439.012 368.177 439.637 367.852C440.262 367.513 440.724 367.044 441.023 366.445C441.336 365.833 441.492 365.124 441.492 364.316C441.492 363.587 441.349 362.943 441.062 362.383C440.789 361.81 440.366 361.367 439.793 361.055C439.22 360.729 438.497 360.566 437.625 360.566C436.935 360.566 436.297 360.703 435.711 360.977C435.125 361.25 434.656 361.634 434.305 362.129C433.953 362.624 433.777 363.223 433.777 363.926H428.133C428.133 362.363 428.549 361.003 429.383 359.844C430.229 358.685 431.362 357.78 432.781 357.129C434.201 356.478 435.763 356.152 437.469 356.152C439.396 356.152 441.082 356.465 442.527 357.09C443.973 357.702 445.099 358.607 445.906 359.805C446.714 361.003 447.117 362.487 447.117 364.258C447.117 365.156 446.909 366.029 446.492 366.875C446.076 367.708 445.477 368.464 444.695 369.141C443.927 369.805 442.99 370.339 441.883 370.742C440.776 371.133 439.533 371.328 438.152 371.328H434.246V368.34ZM434.246 372.617V369.707H438.152C439.702 369.707 441.062 369.883 442.234 370.234C443.406 370.586 444.389 371.094 445.184 371.758C445.978 372.409 446.577 373.184 446.98 374.082C447.384 374.967 447.586 375.951 447.586 377.031C447.586 378.359 447.332 379.544 446.824 380.586C446.316 381.615 445.6 382.487 444.676 383.203C443.764 383.919 442.697 384.466 441.473 384.844C440.249 385.208 438.914 385.391 437.469 385.391C436.271 385.391 435.092 385.228 433.934 384.902C432.788 384.564 431.746 384.062 430.809 383.398C429.884 382.721 429.142 381.875 428.582 380.859C428.035 379.831 427.762 378.613 427.762 377.207H433.406C433.406 377.936 433.589 378.587 433.953 379.16C434.318 379.733 434.819 380.182 435.457 380.508C436.108 380.833 436.831 380.996 437.625 380.996C438.523 380.996 439.292 380.833 439.93 380.508C440.581 380.169 441.076 379.701 441.414 379.102C441.766 378.49 441.941 377.78 441.941 376.973C441.941 375.931 441.753 375.098 441.375 374.473C440.997 373.835 440.457 373.366 439.754 373.066C439.051 372.767 438.217 372.617 437.254 372.617H434.246ZM471.375 374.375V378.789H450.887L450.613 375.371L462.469 356.562H466.941L462.098 364.668L456.199 374.375H471.375ZM468.152 356.562V385H462.527V356.562H468.152Z" fill="#1A1A1A"/>
<path d="M476.625 372.121V371.219C476.625 370.57 476.766 369.98 477.047 369.449C477.328 368.918 477.742 368.492 478.289 368.172C478.836 367.852 479.508 367.691 480.305 367.691C481.125 367.691 481.809 367.852 482.355 368.172C482.91 368.492 483.324 368.918 483.598 369.449C483.879 369.98 484.02 370.57 484.02 371.219V372.121C484.02 372.754 483.879 373.336 483.598 373.867C483.324 374.398 482.914 374.824 482.367 375.145C481.82 375.465 481.145 375.625 480.34 375.625C479.527 375.625 478.844 375.465 478.289 375.145C477.742 374.824 477.328 374.398 477.047 373.867C476.766 373.336 476.625 372.754 476.625 372.121ZM478.863 371.219V372.121C478.863 372.395 478.914 372.656 479.016 372.906C479.125 373.148 479.289 373.348 479.508 373.504C479.734 373.652 480.008 373.727 480.328 373.727C480.664 373.727 480.938 373.652 481.148 373.504C481.359 373.348 481.516 373.148 481.617 372.906C481.719 372.656 481.77 372.395 481.77 372.121V371.219C481.77 370.93 481.715 370.664 481.605 370.422C481.504 370.172 481.344 369.973 481.125 369.824C480.914 369.668 480.641 369.59 480.305 369.59C479.992 369.59 479.727 369.668 479.508 369.824C479.289 369.973 479.125 370.172 479.016 370.422C478.914 370.664 478.863 370.93 478.863 371.219ZM484.781 381.719V380.816C484.781 380.176 484.922 379.59 485.203 379.059C485.492 378.527 485.91 378.102 486.457 377.781C487.012 377.461 487.691 377.301 488.496 377.301C489.309 377.301 489.988 377.461 490.535 377.781C491.082 378.102 491.496 378.527 491.777 379.059C492.059 379.59 492.199 380.176 492.199 380.816V381.719C492.199 382.359 492.059 382.945 491.777 383.477C491.504 384.008 491.094 384.434 490.547 384.754C490 385.074 489.324 385.234 488.52 385.234C487.707 385.234 487.023 385.074 486.469 384.754C485.914 384.434 485.492 384.008 485.203 383.477C484.922 382.945 484.781 382.359 484.781 381.719ZM487.031 380.816V381.719C487.031 382 487.094 382.266 487.219 382.516C487.344 382.766 487.516 382.965 487.734 383.113C487.961 383.262 488.223 383.336 488.52 383.336C488.895 383.336 489.188 383.262 489.398 383.113C489.609 382.965 489.754 382.766 489.832 382.516C489.918 382.266 489.961 382 489.961 381.719V380.816C489.961 380.535 489.906 380.273 489.797 380.031C489.688 379.781 489.523 379.582 489.305 379.434C489.094 379.277 488.824 379.199 488.496 379.199C488.168 379.199 487.895 379.277 487.676 379.434C487.465 379.582 487.305 379.781 487.195 380.031C487.086 380.273 487.031 380.535 487.031 380.816ZM489.328 370.375L480.996 383.711L479.355 382.844L487.688 369.508L489.328 370.375Z" fill="#1A1A1A"/>
</svg>
