<svg width="800" height="128" viewBox="0 0 800 128" fill="none" xmlns="http://www.w3.org/2000/svg">
<rect width="800" height="128" rx="4" fill="#F8F8F8"/>
<path d="M216.471 64.1445H214.297L214.285 63.0723H216.184C216.504 63.0723 216.775 63.0254 216.998 62.9316C217.225 62.834 217.396 62.6953 217.514 62.5156C217.631 62.332 217.689 62.1113 217.689 61.8535C217.689 61.5684 217.635 61.3359 217.525 61.1562C217.416 60.9766 217.248 60.8457 217.021 60.7637C216.799 60.6816 216.514 60.6406 216.166 60.6406H214.742V68H213.271V59.4688H216.166C216.635 59.4688 217.053 59.5137 217.42 59.6035C217.791 59.6934 218.105 59.834 218.363 60.0254C218.625 60.2129 218.822 60.4512 218.955 60.7402C219.092 61.0293 219.16 61.373 219.16 61.7715C219.16 62.123 219.076 62.4453 218.908 62.7383C218.74 63.0273 218.492 63.2637 218.164 63.4473C217.836 63.6309 217.428 63.7402 216.939 63.7754L216.471 64.1445ZM216.406 68H213.834L214.496 66.834H216.406C216.738 66.834 217.016 66.7793 217.238 66.6699C217.461 66.5566 217.627 66.4023 217.736 66.207C217.85 66.0078 217.906 65.7754 217.906 65.5098C217.906 65.2324 217.857 64.9922 217.76 64.7891C217.662 64.582 217.508 64.4238 217.297 64.3145C217.086 64.2012 216.811 64.1445 216.471 64.1445H214.818L214.83 63.0723H216.98L217.314 63.4766C217.783 63.4922 218.168 63.5957 218.469 63.7871C218.773 63.9785 219 64.2266 219.148 64.5312C219.297 64.8359 219.371 65.1641 219.371 65.5156C219.371 66.0586 219.252 66.5137 219.014 66.8809C218.779 67.248 218.441 67.5273 218 67.7188C217.559 67.9062 217.027 68 216.406 68ZM226.438 66.834V68H221.908V66.834H226.438ZM222.324 59.4688V68H220.854V59.4688H222.324ZM225.846 63.0312V64.1797H221.908V63.0312H225.846ZM226.408 59.4688V60.6406H221.908V59.4688H226.408ZM231.266 59.4688V68H229.807V59.4688H231.266ZM233.943 59.4688V60.6406H227.152V59.4688H233.943ZM237.828 60.6055L235.279 68H233.738L236.949 59.4688H237.934L237.828 60.6055ZM239.961 68L237.406 60.6055L237.295 59.4688H238.285L241.508 68H239.961ZM239.838 64.8359V66.002H235.197V64.8359H239.838Z" fill="#184291"/>
<rect x="204.5" y="52.5" width="45" height="23" rx="11.5" stroke="#184291"/>
<path d="M312.391 65.2227H313.855C313.809 65.7812 313.652 66.2793 313.387 66.7168C313.121 67.1504 312.748 67.4922 312.268 67.7422C311.787 67.9922 311.203 68.1172 310.516 68.1172C309.988 68.1172 309.514 68.0234 309.092 67.8359C308.67 67.6445 308.309 67.375 308.008 67.0273C307.707 66.6758 307.477 66.252 307.316 65.7559C307.16 65.2598 307.082 64.7051 307.082 64.0918V63.3828C307.082 62.7695 307.162 62.2148 307.322 61.7188C307.486 61.2227 307.721 60.7988 308.025 60.4473C308.33 60.0918 308.695 59.8203 309.121 59.6328C309.551 59.4453 310.033 59.3516 310.568 59.3516C311.248 59.3516 311.822 59.4766 312.291 59.7266C312.76 59.9766 313.123 60.3223 313.381 60.7637C313.643 61.2051 313.803 61.7109 313.861 62.2812H312.396C312.357 61.9141 312.271 61.5996 312.139 61.3379C312.01 61.0762 311.818 60.877 311.564 60.7402C311.311 60.5996 310.979 60.5293 310.568 60.5293C310.232 60.5293 309.939 60.5918 309.689 60.7168C309.439 60.8418 309.23 61.0254 309.062 61.2676C308.895 61.5098 308.768 61.8086 308.682 62.1641C308.6 62.5156 308.559 62.918 308.559 63.3711V64.0918C308.559 64.5215 308.596 64.9121 308.67 65.2637C308.748 65.6113 308.865 65.9102 309.021 66.1602C309.182 66.4102 309.385 66.6035 309.631 66.7402C309.877 66.877 310.172 66.9453 310.516 66.9453C310.934 66.9453 311.271 66.8789 311.529 66.7461C311.791 66.6133 311.988 66.4199 312.121 66.166C312.258 65.9082 312.348 65.5938 312.391 65.2227ZM321.994 63.5V63.9688C321.994 64.6133 321.91 65.1914 321.742 65.7031C321.574 66.2148 321.334 66.6504 321.021 67.0098C320.713 67.3691 320.342 67.6445 319.908 67.8359C319.475 68.0234 318.994 68.1172 318.467 68.1172C317.943 68.1172 317.465 68.0234 317.031 67.8359C316.602 67.6445 316.229 67.3691 315.912 67.0098C315.596 66.6504 315.35 66.2148 315.174 65.7031C315.002 65.1914 314.916 64.6133 314.916 63.9688V63.5C314.916 62.8555 315.002 62.2793 315.174 61.7715C315.346 61.2598 315.588 60.8242 315.9 60.4648C316.217 60.1016 316.59 59.8262 317.02 59.6387C317.453 59.4473 317.932 59.3516 318.455 59.3516C318.982 59.3516 319.463 59.4473 319.896 59.6387C320.33 59.8262 320.703 60.1016 321.016 60.4648C321.328 60.8242 321.568 61.2598 321.736 61.7715C321.908 62.2793 321.994 62.8555 321.994 63.5ZM320.523 63.9688V63.4883C320.523 63.0117 320.477 62.5918 320.383 62.2285C320.293 61.8613 320.158 61.5547 319.979 61.3086C319.803 61.0586 319.586 60.8711 319.328 60.7461C319.07 60.6172 318.779 60.5527 318.455 60.5527C318.131 60.5527 317.842 60.6172 317.588 60.7461C317.334 60.8711 317.117 61.0586 316.938 61.3086C316.762 61.5547 316.627 61.8613 316.533 62.2285C316.439 62.5918 316.393 63.0117 316.393 63.4883V63.9688C316.393 64.4453 316.439 64.8672 316.533 65.2344C316.627 65.6016 316.764 65.9121 316.943 66.166C317.127 66.416 317.346 66.6055 317.6 66.7344C317.854 66.8594 318.143 66.9219 318.467 66.9219C318.795 66.9219 319.086 66.8594 319.34 66.7344C319.594 66.6055 319.809 66.416 319.984 66.166C320.16 65.9121 320.293 65.6016 320.383 65.2344C320.477 64.8672 320.523 64.4453 320.523 63.9688ZM324.062 59.4688H325.375L327.842 66.0488L330.303 59.4688H331.615L328.357 68H327.314L324.062 59.4688ZM323.465 59.4688H324.713L324.93 65.1641V68H323.465V59.4688ZM330.965 59.4688H332.219V68H330.748V65.1641L330.965 59.4688ZM335.535 59.4688V68H334.064V59.4688H335.535ZM344.131 59.4688V68H342.66L338.834 61.8887V68H337.363V59.4688H338.834L342.672 65.5918V59.4688H344.131ZM352.434 63.6406V66.8984C352.312 67.0586 352.123 67.2344 351.865 67.4258C351.611 67.6133 351.273 67.7754 350.852 67.9121C350.43 68.0488 349.904 68.1172 349.275 68.1172C348.74 68.1172 348.25 68.0273 347.805 67.8477C347.359 67.6641 346.975 67.3965 346.65 67.0449C346.33 66.6934 346.082 66.2656 345.906 65.7617C345.73 65.2539 345.643 64.6758 345.643 64.0273V63.4355C345.643 62.791 345.723 62.2168 345.883 61.7129C346.047 61.2051 346.281 60.7754 346.586 60.4238C346.891 60.0723 347.258 59.8066 347.688 59.627C348.121 59.4434 348.611 59.3516 349.158 59.3516C349.857 59.3516 350.436 59.4688 350.893 59.7031C351.354 59.9336 351.709 60.2539 351.959 60.6641C352.209 61.0742 352.367 61.543 352.434 62.0703H350.992C350.945 61.7734 350.854 61.5078 350.717 61.2734C350.584 61.0391 350.393 60.8555 350.143 60.7227C349.896 60.5859 349.576 60.5176 349.182 60.5176C348.842 60.5176 348.543 60.582 348.285 60.7109C348.027 60.8398 347.812 61.0293 347.641 61.2793C347.473 61.5293 347.346 61.834 347.26 62.1934C347.174 62.5527 347.131 62.9629 347.131 63.4238V64.0273C347.131 64.4961 347.18 64.9121 347.277 65.2754C347.379 65.6387 347.523 65.9453 347.711 66.1953C347.902 66.4453 348.135 66.6348 348.408 66.7637C348.682 66.8887 348.99 66.9512 349.334 66.9512C349.67 66.9512 349.945 66.9238 350.16 66.8691C350.375 66.8105 350.545 66.7422 350.67 66.6641C350.799 66.582 350.898 66.5039 350.969 66.4297V64.7363H349.193V63.6406H352.434ZM361.539 65.8027C361.539 65.627 361.512 65.4707 361.457 65.334C361.406 65.1973 361.314 65.0723 361.182 64.959C361.049 64.8457 360.861 64.7363 360.619 64.6309C360.381 64.5215 360.076 64.4102 359.705 64.2969C359.299 64.1719 358.924 64.0332 358.58 63.8809C358.24 63.7246 357.943 63.5449 357.689 63.3418C357.436 63.1348 357.238 62.8984 357.098 62.6328C356.957 62.3633 356.887 62.0527 356.887 61.7012C356.887 61.3535 356.959 61.0371 357.104 60.752C357.252 60.4668 357.461 60.2207 357.73 60.0137C358.004 59.8027 358.326 59.6406 358.697 59.5273C359.068 59.4102 359.479 59.3516 359.928 59.3516C360.561 59.3516 361.105 59.4688 361.562 59.7031C362.023 59.9375 362.377 60.252 362.623 60.6465C362.873 61.041 362.998 61.4766 362.998 61.9531H361.539C361.539 61.6719 361.479 61.4238 361.357 61.209C361.24 60.9902 361.061 60.8184 360.818 60.6934C360.58 60.5684 360.277 60.5059 359.91 60.5059C359.562 60.5059 359.273 60.5586 359.043 60.6641C358.812 60.7695 358.641 60.9121 358.527 61.0918C358.414 61.2715 358.357 61.4746 358.357 61.7012C358.357 61.8613 358.395 62.0078 358.469 62.1406C358.543 62.2695 358.656 62.3906 358.809 62.5039C358.961 62.6133 359.152 62.7168 359.383 62.8145C359.613 62.9121 359.885 63.0059 360.197 63.0957C360.67 63.2363 361.082 63.3926 361.434 63.5645C361.785 63.7324 362.078 63.9238 362.312 64.1387C362.547 64.3535 362.723 64.5977 362.84 64.8711C362.957 65.1406 363.016 65.4473 363.016 65.791C363.016 66.1504 362.943 66.4746 362.799 66.7637C362.654 67.0488 362.447 67.293 362.178 67.4961C361.912 67.6953 361.592 67.8496 361.217 67.959C360.846 68.0645 360.432 68.1172 359.975 68.1172C359.564 68.1172 359.16 68.0625 358.762 67.9531C358.367 67.8438 358.008 67.6777 357.684 67.4551C357.359 67.2285 357.102 66.9473 356.91 66.6113C356.719 66.2715 356.623 65.875 356.623 65.4219H358.094C358.094 65.6992 358.141 65.9355 358.234 66.1309C358.332 66.3262 358.467 66.4863 358.639 66.6113C358.811 66.7324 359.01 66.8223 359.236 66.8809C359.467 66.9395 359.713 66.9688 359.975 66.9688C360.318 66.9688 360.605 66.9199 360.836 66.8223C361.07 66.7246 361.246 66.5879 361.363 66.4121C361.48 66.2363 361.539 66.0332 361.539 65.8027ZM371.119 63.5V63.9688C371.119 64.6133 371.035 65.1914 370.867 65.7031C370.699 66.2148 370.459 66.6504 370.146 67.0098C369.838 67.3691 369.467 67.6445 369.033 67.8359C368.6 68.0234 368.119 68.1172 367.592 68.1172C367.068 68.1172 366.59 68.0234 366.156 67.8359C365.727 67.6445 365.354 67.3691 365.037 67.0098C364.721 66.6504 364.475 66.2148 364.299 65.7031C364.127 65.1914 364.041 64.6133 364.041 63.9688V63.5C364.041 62.8555 364.127 62.2793 364.299 61.7715C364.471 61.2598 364.713 60.8242 365.025 60.4648C365.342 60.1016 365.715 59.8262 366.145 59.6387C366.578 59.4473 367.057 59.3516 367.58 59.3516C368.107 59.3516 368.588 59.4473 369.021 59.6387C369.455 59.8262 369.828 60.1016 370.141 60.4648C370.453 60.8242 370.693 61.2598 370.861 61.7715C371.033 62.2793 371.119 62.8555 371.119 63.5ZM369.648 63.9688V63.4883C369.648 63.0117 369.602 62.5918 369.508 62.2285C369.418 61.8613 369.283 61.5547 369.104 61.3086C368.928 61.0586 368.711 60.8711 368.453 60.7461C368.195 60.6172 367.904 60.5527 367.58 60.5527C367.256 60.5527 366.967 60.6172 366.713 60.7461C366.459 60.8711 366.242 61.0586 366.062 61.3086C365.887 61.5547 365.752 61.8613 365.658 62.2285C365.564 62.5918 365.518 63.0117 365.518 63.4883V63.9688C365.518 64.4453 365.564 64.8672 365.658 65.2344C365.752 65.6016 365.889 65.9121 366.068 66.166C366.252 66.416 366.471 66.6055 366.725 66.7344C366.979 66.8594 367.268 66.9219 367.592 66.9219C367.92 66.9219 368.211 66.8594 368.465 66.7344C368.719 66.6055 368.934 66.416 369.109 66.166C369.285 65.9121 369.418 65.6016 369.508 65.2344C369.602 64.8672 369.648 64.4453 369.648 63.9688ZM379.393 63.5V63.9688C379.393 64.6133 379.309 65.1914 379.141 65.7031C378.973 66.2148 378.732 66.6504 378.42 67.0098C378.111 67.3691 377.74 67.6445 377.307 67.8359C376.873 68.0234 376.393 68.1172 375.865 68.1172C375.342 68.1172 374.863 68.0234 374.43 67.8359C374 67.6445 373.627 67.3691 373.311 67.0098C372.994 66.6504 372.748 66.2148 372.572 65.7031C372.4 65.1914 372.314 64.6133 372.314 63.9688V63.5C372.314 62.8555 372.4 62.2793 372.572 61.7715C372.744 61.2598 372.986 60.8242 373.299 60.4648C373.615 60.1016 373.988 59.8262 374.418 59.6387C374.852 59.4473 375.33 59.3516 375.854 59.3516C376.381 59.3516 376.861 59.4473 377.295 59.6387C377.729 59.8262 378.102 60.1016 378.414 60.4648C378.727 60.8242 378.967 61.2598 379.135 61.7715C379.307 62.2793 379.393 62.8555 379.393 63.5ZM377.922 63.9688V63.4883C377.922 63.0117 377.875 62.5918 377.781 62.2285C377.691 61.8613 377.557 61.5547 377.377 61.3086C377.201 61.0586 376.984 60.8711 376.727 60.7461C376.469 60.6172 376.178 60.5527 375.854 60.5527C375.529 60.5527 375.24 60.6172 374.986 60.7461C374.732 60.8711 374.516 61.0586 374.336 61.3086C374.16 61.5547 374.025 61.8613 373.932 62.2285C373.838 62.5918 373.791 63.0117 373.791 63.4883V63.9688C373.791 64.4453 373.838 64.8672 373.932 65.2344C374.025 65.6016 374.162 65.9121 374.342 66.166C374.525 66.416 374.744 66.6055 374.998 66.7344C375.252 66.8594 375.541 66.9219 375.865 66.9219C376.193 66.9219 376.484 66.8594 376.738 66.7344C376.992 66.6055 377.207 66.416 377.383 66.166C377.559 65.9121 377.691 65.6016 377.781 65.2344C377.875 64.8672 377.922 64.4453 377.922 63.9688ZM387.631 59.4688V68H386.16L382.334 61.8887V68H380.863V59.4688H382.334L386.172 65.5918V59.4688H387.631Z" fill="#184291"/>
<rect x="298.5" y="52.5" width="98" height="23" rx="11.5" stroke="#184291"/>
<path d="M455.613 59.4688V68H454.143V59.4688H455.613ZM459.094 63.2012V64.3672H455.238V63.2012H459.094ZM459.58 59.4688V60.6406H455.238V59.4688H459.58ZM461.877 62.8672V68H460.465V61.6602H461.812L461.877 62.8672ZM463.816 61.6191L463.805 62.9316C463.719 62.916 463.625 62.9043 463.523 62.8965C463.426 62.8887 463.328 62.8848 463.23 62.8848C462.988 62.8848 462.775 62.9199 462.592 62.9902C462.408 63.0566 462.254 63.1543 462.129 63.2832C462.008 63.4082 461.914 63.5605 461.848 63.7402C461.781 63.9199 461.742 64.1211 461.73 64.3438L461.408 64.3672C461.408 63.9688 461.447 63.5996 461.525 63.2598C461.604 62.9199 461.721 62.6211 461.877 62.3633C462.037 62.1055 462.236 61.9043 462.475 61.7598C462.717 61.6152 462.996 61.543 463.312 61.543C463.398 61.543 463.49 61.5508 463.588 61.5664C463.689 61.582 463.766 61.5996 463.816 61.6191ZM467.379 68.1172C466.91 68.1172 466.486 68.041 466.107 67.8887C465.732 67.7324 465.412 67.5156 465.146 67.2383C464.885 66.9609 464.684 66.6348 464.543 66.2598C464.402 65.8848 464.332 65.4805 464.332 65.0469V64.8125C464.332 64.3164 464.404 63.8672 464.549 63.4648C464.693 63.0625 464.895 62.7188 465.152 62.4336C465.41 62.1445 465.715 61.9238 466.066 61.7715C466.418 61.6191 466.799 61.543 467.209 61.543C467.662 61.543 468.059 61.6191 468.398 61.7715C468.738 61.9238 469.02 62.1387 469.242 62.416C469.469 62.6895 469.637 63.0156 469.746 63.3945C469.859 63.7734 469.916 64.1914 469.916 64.6484V65.252H465.018V64.2383H468.521V64.127C468.514 63.873 468.463 63.6348 468.369 63.4121C468.279 63.1895 468.141 63.0098 467.953 62.873C467.766 62.7363 467.516 62.668 467.203 62.668C466.969 62.668 466.76 62.7188 466.576 62.8203C466.396 62.918 466.246 63.0605 466.125 63.248C466.004 63.4355 465.91 63.6621 465.844 63.9277C465.781 64.1895 465.75 64.4844 465.75 64.8125V65.0469C465.75 65.3242 465.787 65.582 465.861 65.8203C465.939 66.0547 466.053 66.2598 466.201 66.4355C466.35 66.6113 466.529 66.75 466.74 66.8516C466.951 66.9492 467.191 66.998 467.461 66.998C467.801 66.998 468.104 66.9297 468.369 66.793C468.635 66.6562 468.865 66.4629 469.061 66.2129L469.805 66.9336C469.668 67.1328 469.49 67.3242 469.271 67.5078C469.053 67.6875 468.785 67.834 468.469 67.9473C468.156 68.0605 467.793 68.1172 467.379 68.1172ZM473.812 68.1172C473.344 68.1172 472.92 68.041 472.541 67.8887C472.166 67.7324 471.846 67.5156 471.58 67.2383C471.318 66.9609 471.117 66.6348 470.977 66.2598C470.836 65.8848 470.766 65.4805 470.766 65.0469V64.8125C470.766 64.3164 470.838 63.8672 470.982 63.4648C471.127 63.0625 471.328 62.7188 471.586 62.4336C471.844 62.1445 472.148 61.9238 472.5 61.7715C472.852 61.6191 473.232 61.543 473.643 61.543C474.096 61.543 474.492 61.6191 474.832 61.7715C475.172 61.9238 475.453 62.1387 475.676 62.416C475.902 62.6895 476.07 63.0156 476.18 63.3945C476.293 63.7734 476.35 64.1914 476.35 64.6484V65.252H471.451V64.2383H474.955V64.127C474.947 63.873 474.896 63.6348 474.803 63.4121C474.713 63.1895 474.574 63.0098 474.387 62.873C474.199 62.7363 473.949 62.668 473.637 62.668C473.402 62.668 473.193 62.7188 473.01 62.8203C472.83 62.918 472.68 63.0605 472.559 63.248C472.438 63.4355 472.344 63.6621 472.277 63.9277C472.215 64.1895 472.184 64.4844 472.184 64.8125V65.0469C472.184 65.3242 472.221 65.582 472.295 65.8203C472.373 66.0547 472.486 66.2598 472.635 66.4355C472.783 66.6113 472.963 66.75 473.174 66.8516C473.385 66.9492 473.625 66.998 473.895 66.998C474.234 66.998 474.537 66.9297 474.803 66.793C475.068 66.6562 475.299 66.4629 475.494 66.2129L476.238 66.9336C476.102 67.1328 475.924 67.3242 475.705 67.5078C475.486 67.6875 475.219 67.834 474.902 67.9473C474.59 68.0605 474.227 68.1172 473.812 68.1172Z" fill="#184291"/>
<rect x="445.5" y="52.5" width="39" height="23" rx="11.5" stroke="#184291"/>
<path d="M547.656 63.0312V64.1973H543.127V63.0312H547.656ZM543.49 59.4688V68H542.02V59.4688H543.49ZM548.787 59.4688V68H547.322V59.4688H548.787ZM550.129 64.9004V64.7656C550.129 64.3086 550.195 63.8848 550.328 63.4941C550.461 63.0996 550.652 62.7578 550.902 62.4688C551.156 62.1758 551.465 61.9492 551.828 61.7891C552.195 61.625 552.609 61.543 553.07 61.543C553.535 61.543 553.949 61.625 554.312 61.7891C554.68 61.9492 554.99 62.1758 555.244 62.4688C555.498 62.7578 555.691 63.0996 555.824 63.4941C555.957 63.8848 556.023 64.3086 556.023 64.7656V64.9004C556.023 65.3574 555.957 65.7812 555.824 66.1719C555.691 66.5625 555.498 66.9043 555.244 67.1973C554.99 67.4863 554.682 67.7129 554.318 67.877C553.955 68.0371 553.543 68.1172 553.082 68.1172C552.617 68.1172 552.201 68.0371 551.834 67.877C551.471 67.7129 551.162 67.4863 550.908 67.1973C550.654 66.9043 550.461 66.5625 550.328 66.1719C550.195 65.7812 550.129 65.3574 550.129 64.9004ZM551.541 64.7656V64.9004C551.541 65.1855 551.57 65.4551 551.629 65.709C551.688 65.9629 551.779 66.1855 551.904 66.377C552.029 66.5684 552.189 66.7188 552.385 66.8281C552.58 66.9375 552.812 66.9922 553.082 66.9922C553.344 66.9922 553.57 66.9375 553.762 66.8281C553.957 66.7188 554.117 66.5684 554.242 66.377C554.367 66.1855 554.459 65.9629 554.518 65.709C554.58 65.4551 554.611 65.1855 554.611 64.9004V64.7656C554.611 64.4844 554.58 64.2188 554.518 63.9688C554.459 63.7148 554.365 63.4902 554.236 63.2949C554.111 63.0996 553.951 62.9473 553.756 62.8379C553.564 62.7246 553.336 62.668 553.07 62.668C552.805 62.668 552.574 62.7246 552.379 62.8379C552.188 62.9473 552.029 63.0996 551.904 63.2949C551.779 63.4902 551.688 63.7148 551.629 63.9688C551.57 64.2188 551.541 64.4844 551.541 64.7656ZM560.764 66.2832C560.764 66.1426 560.729 66.0156 560.658 65.9023C560.588 65.7852 560.453 65.6797 560.254 65.5859C560.059 65.4922 559.77 65.4062 559.387 65.3281C559.051 65.2539 558.742 65.166 558.461 65.0645C558.184 64.959 557.945 64.832 557.746 64.6836C557.547 64.5352 557.393 64.3594 557.283 64.1562C557.174 63.9531 557.119 63.7188 557.119 63.4531C557.119 63.1953 557.176 62.9512 557.289 62.7207C557.402 62.4902 557.564 62.2871 557.775 62.1113C557.986 61.9355 558.242 61.7969 558.543 61.6953C558.848 61.5938 559.188 61.543 559.562 61.543C560.094 61.543 560.549 61.6328 560.928 61.8125C561.311 61.9883 561.604 62.2285 561.807 62.5332C562.01 62.834 562.111 63.1738 562.111 63.5527H560.699C560.699 63.3848 560.656 63.2285 560.57 63.084C560.488 62.9355 560.363 62.8164 560.195 62.7266C560.027 62.6328 559.816 62.5859 559.562 62.5859C559.32 62.5859 559.119 62.625 558.959 62.7031C558.803 62.7773 558.686 62.875 558.607 62.9961C558.533 63.1172 558.496 63.25 558.496 63.3945C558.496 63.5 558.516 63.5957 558.555 63.6816C558.598 63.7637 558.668 63.8398 558.766 63.9102C558.863 63.9766 558.996 64.0391 559.164 64.0977C559.336 64.1562 559.551 64.2129 559.809 64.2676C560.293 64.3691 560.709 64.5 561.057 64.6602C561.408 64.8164 561.678 65.0195 561.865 65.2695C562.053 65.5156 562.146 65.8281 562.146 66.207C562.146 66.4883 562.086 66.7461 561.965 66.9805C561.848 67.2109 561.676 67.4121 561.449 67.584C561.223 67.752 560.951 67.8828 560.635 67.9766C560.322 68.0703 559.971 68.1172 559.58 68.1172C559.006 68.1172 558.52 68.0156 558.121 67.8125C557.723 67.6055 557.42 67.3418 557.213 67.0215C557.01 66.6973 556.908 66.3613 556.908 66.0137H558.273C558.289 66.2754 558.361 66.4844 558.49 66.6406C558.623 66.793 558.787 66.9043 558.982 66.9746C559.182 67.041 559.387 67.0742 559.598 67.0742C559.852 67.0742 560.064 67.041 560.236 66.9746C560.408 66.9043 560.539 66.8105 560.629 66.6934C560.719 66.5723 560.764 66.4355 560.764 66.2832ZM566.289 61.6602V62.6914H562.715V61.6602H566.289ZM563.746 60.1074H565.158V66.248C565.158 66.4434 565.186 66.5938 565.24 66.6992C565.299 66.8008 565.379 66.8691 565.48 66.9043C565.582 66.9395 565.701 66.957 565.838 66.957C565.936 66.957 566.029 66.9512 566.119 66.9395C566.209 66.9277 566.281 66.916 566.336 66.9043L566.342 67.9824C566.225 68.0176 566.088 68.0488 565.932 68.0762C565.779 68.1035 565.604 68.1172 565.404 68.1172C565.08 68.1172 564.793 68.0605 564.543 67.9473C564.293 67.8301 564.098 67.6406 563.957 67.3789C563.816 67.1172 563.746 66.7695 563.746 66.3359V60.1074ZM570.174 68.1172C569.705 68.1172 569.281 68.041 568.902 67.8887C568.527 67.7324 568.207 67.5156 567.941 67.2383C567.68 66.9609 567.479 66.6348 567.338 66.2598C567.197 65.8848 567.127 65.4805 567.127 65.0469V64.8125C567.127 64.3164 567.199 63.8672 567.344 63.4648C567.488 63.0625 567.689 62.7188 567.947 62.4336C568.205 62.1445 568.51 61.9238 568.861 61.7715C569.213 61.6191 569.594 61.543 570.004 61.543C570.457 61.543 570.854 61.6191 571.193 61.7715C571.533 61.9238 571.814 62.1387 572.037 62.416C572.264 62.6895 572.432 63.0156 572.541 63.3945C572.654 63.7734 572.711 64.1914 572.711 64.6484V65.252H567.812V64.2383H571.316V64.127C571.309 63.873 571.258 63.6348 571.164 63.4121C571.074 63.1895 570.936 63.0098 570.748 62.873C570.561 62.7363 570.311 62.668 569.998 62.668C569.764 62.668 569.555 62.7188 569.371 62.8203C569.191 62.918 569.041 63.0605 568.92 63.248C568.799 63.4355 568.705 63.6621 568.639 63.9277C568.576 64.1895 568.545 64.4844 568.545 64.8125V65.0469C568.545 65.3242 568.582 65.582 568.656 65.8203C568.734 66.0547 568.848 66.2598 568.996 66.4355C569.145 66.6113 569.324 66.75 569.535 66.8516C569.746 66.9492 569.986 66.998 570.256 66.998C570.596 66.998 570.898 66.9297 571.164 66.793C571.43 66.6562 571.66 66.4629 571.855 66.2129L572.6 66.9336C572.463 67.1328 572.285 67.3242 572.066 67.5078C571.848 67.6875 571.58 67.834 571.264 67.9473C570.951 68.0605 570.588 68.1172 570.174 68.1172ZM577.68 66.6875V59H579.098V68H577.814L577.68 66.6875ZM573.555 64.9004V64.7773C573.555 64.2969 573.611 63.8594 573.725 63.4648C573.838 63.0664 574.002 62.7246 574.217 62.4395C574.432 62.1504 574.693 61.9297 575.002 61.7773C575.311 61.6211 575.658 61.543 576.045 61.543C576.428 61.543 576.764 61.6172 577.053 61.7656C577.342 61.9141 577.588 62.127 577.791 62.4043C577.994 62.6777 578.156 63.0059 578.277 63.3887C578.398 63.7676 578.484 64.1895 578.535 64.6543V65.0469C578.484 65.5 578.398 65.9141 578.277 66.2891C578.156 66.6641 577.994 66.9883 577.791 67.2617C577.588 67.5352 577.34 67.7461 577.047 67.8945C576.758 68.043 576.42 68.1172 576.033 68.1172C575.65 68.1172 575.305 68.0371 574.996 67.877C574.691 67.7168 574.432 67.4922 574.217 67.2031C574.002 66.9141 573.838 66.5742 573.725 66.1836C573.611 65.7891 573.555 65.3613 573.555 64.9004ZM574.967 64.7773V64.9004C574.967 65.1895 574.992 65.459 575.043 65.709C575.098 65.959 575.182 66.1797 575.295 66.3711C575.408 66.5586 575.555 66.707 575.734 66.8164C575.918 66.9219 576.137 66.9746 576.391 66.9746C576.711 66.9746 576.975 66.9043 577.182 66.7637C577.389 66.623 577.551 66.4336 577.668 66.1953C577.789 65.9531 577.871 65.6836 577.914 65.3867V64.3262C577.891 64.0957 577.842 63.8809 577.768 63.6816C577.697 63.4824 577.602 63.3086 577.48 63.1602C577.359 63.0078 577.209 62.8906 577.029 62.8086C576.854 62.7227 576.645 62.6797 576.402 62.6797C576.145 62.6797 575.926 62.7344 575.746 62.8438C575.566 62.9531 575.418 63.1035 575.301 63.2949C575.188 63.4863 575.104 63.709 575.049 63.9629C574.994 64.2168 574.967 64.4883 574.967 64.7773Z" fill="#184291"/>
<rect x="533.5" y="52.5" width="54" height="23" rx="11.5" stroke="#184291"/>
</svg>
