<svg width="800" height="144" viewBox="0 0 800 144" fill="none" xmlns="http://www.w3.org/2000/svg">
<rect width="800" height="144" rx="4" fill="#F8F8F8"/>
<rect x="244" y="64" width="48" height="24" rx="12" fill="#737373"/>
<path d="M258.917 78.7368V80H254.276V78.7368H258.917ZM254.721 70.7578V80H253.127V70.7578H254.721ZM263.868 78.6226V75.3472C263.868 75.1017 263.823 74.8901 263.734 74.7124C263.646 74.5347 263.51 74.3971 263.328 74.2998C263.15 74.2025 262.926 74.1538 262.655 74.1538C262.406 74.1538 262.19 74.1961 262.008 74.2808C261.826 74.3654 261.684 74.4797 261.583 74.6235C261.481 74.7674 261.43 74.9303 261.43 75.1123H259.907C259.907 74.8415 259.972 74.5791 260.104 74.3252C260.235 74.0713 260.425 73.8449 260.675 73.646C260.924 73.4471 261.223 73.2905 261.57 73.1763C261.917 73.062 262.306 73.0049 262.738 73.0049C263.254 73.0049 263.711 73.0916 264.109 73.2651C264.511 73.4386 264.826 73.701 265.055 74.0522C265.287 74.3993 265.404 74.8351 265.404 75.3599V78.4131C265.404 78.7262 265.425 79.0076 265.467 79.2573C265.514 79.5028 265.579 79.7165 265.664 79.8984V80H264.096C264.024 79.835 263.967 79.6255 263.925 79.3716C263.887 79.1134 263.868 78.8638 263.868 78.6226ZM264.09 75.8232L264.103 76.769H263.004C262.721 76.769 262.471 76.7965 262.255 76.8516C262.04 76.9023 261.86 76.9785 261.716 77.0801C261.572 77.1816 261.464 77.3044 261.392 77.4482C261.32 77.5921 261.284 77.755 261.284 77.937C261.284 78.119 261.326 78.2861 261.411 78.4385C261.496 78.5866 261.618 78.703 261.779 78.7876C261.944 78.8722 262.143 78.9146 262.376 78.9146C262.689 78.9146 262.962 78.8511 263.195 78.7241C263.432 78.5929 263.618 78.4342 263.753 78.248C263.889 78.0576 263.961 77.8778 263.969 77.7085L264.464 78.3877C264.414 78.5612 264.327 78.7474 264.204 78.9463C264.081 79.1452 263.921 79.3356 263.722 79.5176C263.527 79.6953 263.292 79.8413 263.017 79.9556C262.746 80.0698 262.433 80.127 262.078 80.127C261.629 80.127 261.229 80.0381 260.878 79.8604C260.527 79.6784 260.252 79.4351 260.053 79.1304C259.854 78.8215 259.754 78.4723 259.754 78.083C259.754 77.7191 259.822 77.3975 259.958 77.1182C260.097 76.8346 260.3 76.5977 260.567 76.4072C260.838 76.2168 261.168 76.0729 261.557 75.9756C261.946 75.874 262.391 75.8232 262.89 75.8232H264.09ZM267.01 70.25H268.54V78.5337L268.394 80H267.01V70.25ZM273.021 76.5024V76.6357C273.021 77.1436 272.964 77.6112 272.85 78.0386C272.74 78.4618 272.57 78.8299 272.342 79.1431C272.118 79.4562 271.838 79.6995 271.504 79.873C271.174 80.0423 270.791 80.127 270.355 80.127C269.928 80.127 269.555 80.0465 269.238 79.8857C268.92 79.7249 268.654 79.4964 268.438 79.2002C268.226 78.904 268.055 78.5506 267.924 78.1401C267.793 77.7297 267.7 77.2769 267.645 76.7817V76.3564C267.7 75.8571 267.793 75.4043 267.924 74.998C268.055 74.5876 268.226 74.2342 268.438 73.938C268.654 73.6375 268.918 73.4069 269.231 73.2461C269.549 73.0853 269.919 73.0049 270.342 73.0049C270.782 73.0049 271.17 73.0895 271.504 73.2588C271.842 73.4281 272.124 73.6693 272.348 73.9824C272.572 74.2913 272.74 74.6595 272.85 75.0869C272.964 75.5143 273.021 75.9862 273.021 76.5024ZM271.491 76.6357V76.5024C271.491 76.1935 271.466 75.9036 271.415 75.6328C271.364 75.3577 271.28 75.1165 271.161 74.9092C271.047 74.7018 270.89 74.5389 270.691 74.4204C270.497 74.2977 270.253 74.2363 269.961 74.2363C269.691 74.2363 269.458 74.2829 269.263 74.376C269.069 74.4691 268.906 74.596 268.774 74.7568C268.643 74.9176 268.54 75.1038 268.463 75.3154C268.391 75.527 268.343 75.7555 268.317 76.001V77.1499C268.355 77.4673 268.436 77.7593 268.559 78.0259C268.686 78.2882 268.863 78.4998 269.092 78.6606C269.32 78.8172 269.614 78.8955 269.974 78.8955C270.258 78.8955 270.497 78.8384 270.691 78.7241C270.886 78.6099 271.041 78.4512 271.155 78.248C271.273 78.0407 271.358 77.7995 271.409 77.5244C271.464 77.2493 271.491 76.9531 271.491 76.6357ZM277.344 80.127C276.836 80.127 276.377 80.0444 275.966 79.8794C275.56 79.7101 275.213 79.4753 274.925 79.1748C274.642 78.8743 274.424 78.521 274.271 78.1147C274.119 77.7085 274.043 77.2705 274.043 76.8008V76.5469C274.043 76.0094 274.121 75.5228 274.278 75.0869C274.434 74.651 274.652 74.2786 274.932 73.9697C275.211 73.6566 275.541 73.4175 275.922 73.2524C276.303 73.0874 276.715 73.0049 277.16 73.0049C277.651 73.0049 278.08 73.0874 278.448 73.2524C278.816 73.4175 279.121 73.6502 279.362 73.9507C279.608 74.2469 279.79 74.6003 279.908 75.0107C280.031 75.4212 280.092 75.874 280.092 76.3691V77.0229H274.786V75.9248H278.582V75.8042C278.573 75.5291 278.518 75.271 278.417 75.0298C278.319 74.7886 278.169 74.5939 277.966 74.4458C277.763 74.2977 277.492 74.2236 277.153 74.2236C276.899 74.2236 276.673 74.2786 276.474 74.3887C276.279 74.4945 276.117 74.6489 275.985 74.8521C275.854 75.0552 275.753 75.3006 275.681 75.5884C275.613 75.8719 275.579 76.1914 275.579 76.5469V76.8008C275.579 77.1012 275.619 77.3805 275.7 77.6387C275.784 77.8926 275.907 78.1147 276.068 78.3052C276.229 78.4956 276.423 78.6458 276.652 78.7559C276.88 78.8617 277.141 78.9146 277.433 78.9146C277.801 78.9146 278.129 78.8405 278.417 78.6924C278.704 78.5443 278.954 78.3348 279.166 78.064L279.972 78.8447C279.824 79.0605 279.631 79.2679 279.394 79.4668C279.157 79.6615 278.867 79.8201 278.524 79.9429C278.186 80.0656 277.792 80.127 277.344 80.127ZM282.923 70.25V80H281.387V70.25H282.923Z" fill="white"/>
<rect x="338" y="64" width="90" height="40" rx="12" fill="#737373"/>
<path d="M348.97 70.7578H350.392L353.064 77.8862L355.73 70.7578H357.152L353.623 80H352.493L348.97 70.7578ZM348.323 70.7578H349.675L349.91 76.9277V80H348.323V70.7578ZM356.448 70.7578H357.806V80H356.213V76.9277L356.448 70.7578ZM363.678 78.3813V73.1318H365.214V80H363.767L363.678 78.3813ZM363.894 76.9531L364.408 76.9404C364.408 77.4017 364.357 77.827 364.255 78.2163C364.154 78.6014 363.997 78.9378 363.786 79.2256C363.574 79.5091 363.303 79.7313 362.973 79.8921C362.643 80.0487 362.247 80.127 361.786 80.127C361.452 80.127 361.145 80.0783 360.866 79.981C360.586 79.8836 360.345 79.7334 360.142 79.5303C359.943 79.3271 359.789 79.0627 359.679 78.7368C359.569 78.411 359.514 78.0216 359.514 77.5688V73.1318H361.043V77.5815C361.043 77.8312 361.073 78.0407 361.132 78.21C361.192 78.375 361.272 78.5083 361.374 78.6099C361.475 78.7114 361.594 78.7834 361.729 78.8257C361.864 78.868 362.008 78.8892 362.161 78.8892C362.597 78.8892 362.939 78.8045 363.189 78.6353C363.443 78.4618 363.623 78.229 363.729 77.937C363.839 77.645 363.894 77.3171 363.894 76.9531ZM368.419 70.25V80H366.883V70.25H368.419ZM373.244 73.1318V74.249H369.372V73.1318H373.244ZM370.489 71.4497H372.019V78.1021C372.019 78.3136 372.048 78.4766 372.107 78.5908C372.171 78.7008 372.258 78.7749 372.368 78.813C372.478 78.8511 372.607 78.8701 372.755 78.8701C372.861 78.8701 372.962 78.8638 373.06 78.8511C373.157 78.8384 373.235 78.8257 373.294 78.813L373.301 79.981C373.174 80.019 373.026 80.0529 372.856 80.0825C372.691 80.1121 372.501 80.127 372.285 80.127C371.934 80.127 371.623 80.0656 371.352 79.9429C371.081 79.8159 370.87 79.6107 370.717 79.3271C370.565 79.0436 370.489 78.667 370.489 78.1973V71.4497ZM376.062 73.1318V80H374.526V73.1318H376.062ZM374.424 71.3291C374.424 71.0964 374.5 70.9038 374.653 70.7515C374.809 70.5949 375.025 70.5166 375.3 70.5166C375.571 70.5166 375.785 70.5949 375.941 70.7515C376.098 70.9038 376.176 71.0964 376.176 71.3291C376.176 71.5576 376.098 71.748 375.941 71.9004C375.785 72.0527 375.571 72.1289 375.3 72.1289C375.025 72.1289 374.809 72.0527 374.653 71.9004C374.5 71.748 374.424 71.5576 374.424 71.3291ZM379.274 74.4521V82.6406H377.744V73.1318H379.153L379.274 74.4521ZM383.749 76.5024V76.6357C383.749 77.1351 383.69 77.5985 383.571 78.0259C383.457 78.4491 383.286 78.8193 383.057 79.1367C382.833 79.4499 382.556 79.6932 382.226 79.8667C381.896 80.0402 381.515 80.127 381.083 80.127C380.656 80.127 380.281 80.0487 379.959 79.8921C379.642 79.7313 379.373 79.5049 379.153 79.2129C378.933 78.9209 378.756 78.5781 378.62 78.1846C378.489 77.7868 378.396 77.3509 378.341 76.877V76.3628C378.396 75.8592 378.489 75.4022 378.62 74.9917C378.756 74.5812 378.933 74.2279 379.153 73.9316C379.373 73.6354 379.642 73.4069 379.959 73.2461C380.277 73.0853 380.647 73.0049 381.07 73.0049C381.502 73.0049 381.885 73.0895 382.219 73.2588C382.554 73.4238 382.835 73.6608 383.063 73.9697C383.292 74.2744 383.463 74.6426 383.578 75.0742C383.692 75.5016 383.749 75.9777 383.749 76.5024ZM382.219 76.6357V76.5024C382.219 76.1851 382.19 75.891 382.13 75.6201C382.071 75.3451 381.978 75.1038 381.851 74.8965C381.724 74.6891 381.561 74.5283 381.362 74.4141C381.168 74.2956 380.933 74.2363 380.658 74.2363C380.387 74.2363 380.154 74.2829 379.959 74.376C379.765 74.4648 379.602 74.5897 379.471 74.7505C379.34 74.9113 379.238 75.0996 379.166 75.3154C379.094 75.527 379.043 75.7576 379.014 76.0073V77.2388C379.064 77.5435 379.151 77.8228 379.274 78.0767C379.397 78.3306 379.57 78.5337 379.794 78.686C380.023 78.8341 380.315 78.9082 380.67 78.9082C380.945 78.9082 381.18 78.849 381.375 78.7305C381.57 78.612 381.728 78.4491 381.851 78.2417C381.978 78.0301 382.071 77.7868 382.13 77.5117C382.19 77.2367 382.219 76.9447 382.219 76.6357ZM386.688 70.25V80H385.152V70.25H386.688ZM391.392 80.127C390.884 80.127 390.425 80.0444 390.014 79.8794C389.608 79.7101 389.261 79.4753 388.973 79.1748C388.69 78.8743 388.472 78.521 388.319 78.1147C388.167 77.7085 388.091 77.2705 388.091 76.8008V76.5469C388.091 76.0094 388.169 75.5228 388.326 75.0869C388.482 74.651 388.7 74.2786 388.979 73.9697C389.259 73.6566 389.589 73.4175 389.97 73.2524C390.351 73.0874 390.763 73.0049 391.208 73.0049C391.698 73.0049 392.128 73.0874 392.496 73.2524C392.864 73.4175 393.169 73.6502 393.41 73.9507C393.656 74.2469 393.838 74.6003 393.956 75.0107C394.079 75.4212 394.14 75.874 394.14 76.3691V77.0229H388.833V75.9248H392.629V75.8042C392.621 75.5291 392.566 75.271 392.464 75.0298C392.367 74.7886 392.217 74.5939 392.014 74.4458C391.811 74.2977 391.54 74.2236 391.201 74.2236C390.947 74.2236 390.721 74.2786 390.522 74.3887C390.327 74.4945 390.164 74.6489 390.033 74.8521C389.902 75.0552 389.8 75.3006 389.729 75.5884C389.661 75.8719 389.627 76.1914 389.627 76.5469V76.8008C389.627 77.1012 389.667 77.3805 389.748 77.6387C389.832 77.8926 389.955 78.1147 390.116 78.3052C390.277 78.4956 390.471 78.6458 390.7 78.7559C390.928 78.8617 391.188 78.9146 391.48 78.9146C391.849 78.9146 392.177 78.8405 392.464 78.6924C392.752 78.5443 393.002 78.3348 393.213 78.064L394.02 78.8447C393.871 79.0605 393.679 79.2679 393.442 79.4668C393.205 79.6615 392.915 79.8201 392.572 79.9429C392.234 80.0656 391.84 80.127 391.392 80.127ZM400.208 70.25V80H398.672V70.25H400.208ZM403.522 73.1318V80H401.986V73.1318H403.522ZM401.884 71.3291C401.884 71.0964 401.96 70.9038 402.113 70.7515C402.269 70.5949 402.485 70.5166 402.76 70.5166C403.031 70.5166 403.245 70.5949 403.401 70.7515C403.558 70.9038 403.636 71.0964 403.636 71.3291C403.636 71.5576 403.558 71.748 403.401 71.9004C403.245 72.0527 403.031 72.1289 402.76 72.1289C402.485 72.1289 402.269 72.0527 402.113 71.9004C401.96 71.748 401.884 71.5576 401.884 71.3291ZM406.715 74.5981V80H405.185V73.1318H406.626L406.715 74.5981ZM406.442 76.312L405.947 76.3057C405.951 75.819 406.019 75.3726 406.15 74.9663C406.285 74.5601 406.472 74.2109 406.708 73.9189C406.95 73.627 407.237 73.4027 407.572 73.2461C407.906 73.0853 408.278 73.0049 408.689 73.0049C409.019 73.0049 409.317 73.0514 409.584 73.1445C409.855 73.2334 410.085 73.3794 410.276 73.5825C410.471 73.7856 410.619 74.0501 410.72 74.376C410.822 74.6976 410.873 75.0933 410.873 75.563V80H409.336V75.5566C409.336 75.2266 409.288 74.9663 409.19 74.7759C409.097 74.5812 408.96 74.4437 408.778 74.3633C408.6 74.2786 408.378 74.2363 408.111 74.2363C407.849 74.2363 407.614 74.2913 407.407 74.4014C407.199 74.5114 407.024 74.6616 406.88 74.8521C406.74 75.0425 406.632 75.2625 406.556 75.5122C406.48 75.7619 406.442 76.0285 406.442 76.312ZM415.462 80.127C414.954 80.127 414.495 80.0444 414.084 79.8794C413.678 79.7101 413.331 79.4753 413.043 79.1748C412.76 78.8743 412.542 78.521 412.39 78.1147C412.237 77.7085 412.161 77.2705 412.161 76.8008V76.5469C412.161 76.0094 412.239 75.5228 412.396 75.0869C412.553 74.651 412.771 74.2786 413.05 73.9697C413.329 73.6566 413.659 73.4175 414.04 73.2524C414.421 73.0874 414.833 73.0049 415.278 73.0049C415.769 73.0049 416.198 73.0874 416.566 73.2524C416.935 73.4175 417.239 73.6502 417.48 73.9507C417.726 74.2469 417.908 74.6003 418.026 75.0107C418.149 75.4212 418.21 75.874 418.21 76.3691V77.0229H412.904V75.9248H416.7V75.8042C416.691 75.5291 416.636 75.271 416.535 75.0298C416.437 74.7886 416.287 74.5939 416.084 74.4458C415.881 74.2977 415.61 74.2236 415.271 74.2236C415.018 74.2236 414.791 74.2786 414.592 74.3887C414.398 74.4945 414.235 74.6489 414.104 74.8521C413.972 75.0552 413.871 75.3006 413.799 75.5884C413.731 75.8719 413.697 76.1914 413.697 76.5469V76.8008C413.697 77.1012 413.737 77.3805 413.818 77.6387C413.903 77.8926 414.025 78.1147 414.186 78.3052C414.347 78.4956 414.542 78.6458 414.77 78.7559C414.999 78.8617 415.259 78.9146 415.551 78.9146C415.919 78.9146 416.247 78.8405 416.535 78.6924C416.822 78.5443 417.072 78.3348 417.284 78.064L418.09 78.8447C417.942 79.0605 417.749 79.2679 417.512 79.4668C417.275 79.6615 416.985 79.8201 416.643 79.9429C416.304 80.0656 415.91 80.127 415.462 80.127ZM375.853 89.1318V90.249H371.98V89.1318H375.853ZM373.098 87.4497H374.627V94.1021C374.627 94.3136 374.657 94.4766 374.716 94.5908C374.78 94.7008 374.867 94.7749 374.977 94.813C375.087 94.8511 375.216 94.8701 375.364 94.8701C375.47 94.8701 375.571 94.8638 375.668 94.8511C375.766 94.8384 375.844 94.8257 375.903 94.813L375.91 95.981C375.783 96.019 375.635 96.0529 375.465 96.0825C375.3 96.1121 375.11 96.127 374.894 96.127C374.543 96.127 374.232 96.0656 373.961 95.9429C373.69 95.8159 373.479 95.6107 373.326 95.3271C373.174 95.0436 373.098 94.667 373.098 94.1973V87.4497ZM380.061 96.127C379.553 96.127 379.094 96.0444 378.684 95.8794C378.277 95.7101 377.93 95.4753 377.643 95.1748C377.359 94.8743 377.141 94.521 376.989 94.1147C376.836 93.7085 376.76 93.2705 376.76 92.8008V92.5469C376.76 92.0094 376.839 91.5228 376.995 91.0869C377.152 90.651 377.37 90.2786 377.649 89.9697C377.928 89.6566 378.258 89.4175 378.639 89.2524C379.02 89.0874 379.433 89.0049 379.877 89.0049C380.368 89.0049 380.797 89.0874 381.166 89.2524C381.534 89.4175 381.838 89.6502 382.08 89.9507C382.325 90.2469 382.507 90.6003 382.625 91.0107C382.748 91.4212 382.81 91.874 382.81 92.3691V93.0229H377.503V91.9248H381.299V91.8042C381.29 91.5291 381.235 91.271 381.134 91.0298C381.036 90.7886 380.886 90.5939 380.683 90.4458C380.48 90.2977 380.209 90.2236 379.871 90.2236C379.617 90.2236 379.39 90.2786 379.191 90.3887C378.997 90.4945 378.834 90.6489 378.703 90.8521C378.571 91.0552 378.47 91.3006 378.398 91.5884C378.33 91.8719 378.296 92.1914 378.296 92.5469V92.8008C378.296 93.1012 378.337 93.3805 378.417 93.6387C378.502 93.8926 378.624 94.1147 378.785 94.3052C378.946 94.4956 379.141 94.6458 379.369 94.7559C379.598 94.8617 379.858 94.9146 380.15 94.9146C380.518 94.9146 380.846 94.8405 381.134 94.6924C381.422 94.5443 381.671 94.3348 381.883 94.064L382.689 94.8447C382.541 95.0605 382.348 95.2679 382.111 95.4668C381.874 95.6615 381.584 95.8201 381.242 95.9429C380.903 96.0656 380.51 96.127 380.061 96.127ZM385.171 89.1318L386.479 91.4106L387.812 89.1318H389.494L387.412 92.5024L389.576 96H387.894L386.498 93.626L385.101 96H383.413L385.571 92.5024L383.495 89.1318H385.171ZM393.689 89.1318V90.249H389.817V89.1318H393.689ZM390.935 87.4497H392.464V94.1021C392.464 94.3136 392.494 94.4766 392.553 94.5908C392.617 94.7008 392.703 94.7749 392.813 94.813C392.924 94.8511 393.053 94.8701 393.201 94.8701C393.306 94.8701 393.408 94.8638 393.505 94.8511C393.603 94.8384 393.681 94.8257 393.74 94.813L393.747 95.981C393.62 96.019 393.472 96.0529 393.302 96.0825C393.137 96.1121 392.947 96.127 392.731 96.127C392.38 96.127 392.069 96.0656 391.798 95.9429C391.527 95.8159 391.315 95.6107 391.163 95.3271C391.011 95.0436 390.935 94.667 390.935 94.1973V87.4497Z" fill="white"/>
<rect x="468" y="64" width="86" height="24" rx="12" fill="#737373"/>
<path d="M480.836 70.7578V80H479.255V70.7578H480.836ZM483.737 70.7578V72.0273H476.38V70.7578H483.737ZM485.882 74.4395V80H484.353V73.1318H485.812L485.882 74.4395ZM487.983 73.0874L487.971 74.5093C487.878 74.4924 487.776 74.4797 487.666 74.4712C487.56 74.4627 487.454 74.4585 487.349 74.4585C487.086 74.4585 486.856 74.4966 486.657 74.5728C486.458 74.6447 486.291 74.7505 486.155 74.8901C486.024 75.0256 485.923 75.1906 485.851 75.3853C485.779 75.5799 485.736 75.7979 485.724 76.0391L485.375 76.0645C485.375 75.6328 485.417 75.2329 485.501 74.8647C485.586 74.4966 485.713 74.1729 485.882 73.8936C486.056 73.6143 486.272 73.3963 486.53 73.2397C486.792 73.0832 487.095 73.0049 487.438 73.0049C487.531 73.0049 487.63 73.0133 487.736 73.0303C487.846 73.0472 487.928 73.0662 487.983 73.0874ZM493.074 78.3813V73.1318H494.61V80H493.163L493.074 78.3813ZM493.29 76.9531L493.804 76.9404C493.804 77.4017 493.753 77.827 493.652 78.2163C493.55 78.6014 493.394 78.9378 493.182 79.2256C492.971 79.5091 492.7 79.7313 492.37 79.8921C492.04 80.0487 491.644 80.127 491.183 80.127C490.848 80.127 490.542 80.0783 490.262 79.981C489.983 79.8836 489.742 79.7334 489.539 79.5303C489.34 79.3271 489.185 79.0627 489.075 78.7368C488.965 78.411 488.91 78.0216 488.91 77.5688V73.1318H490.44V77.5815C490.44 77.8312 490.47 78.0407 490.529 78.21C490.588 78.375 490.668 78.5083 490.77 78.6099C490.872 78.7114 490.99 78.7834 491.125 78.8257C491.261 78.868 491.405 78.8892 491.557 78.8892C491.993 78.8892 492.336 78.8045 492.585 78.6353C492.839 78.4618 493.019 78.229 493.125 77.937C493.235 77.645 493.29 77.3171 493.29 76.9531ZM497.695 74.5981V80H496.166V73.1318H497.606L497.695 74.5981ZM497.422 76.312L496.927 76.3057C496.931 75.819 496.999 75.3726 497.13 74.9663C497.266 74.5601 497.452 74.2109 497.689 73.9189C497.93 73.627 498.218 73.4027 498.552 73.2461C498.887 73.0853 499.259 73.0049 499.669 73.0049C500 73.0049 500.298 73.0514 500.564 73.1445C500.835 73.2334 501.066 73.3794 501.256 73.5825C501.451 73.7856 501.599 74.0501 501.701 74.376C501.802 74.6976 501.853 75.0933 501.853 75.563V80H500.317V75.5566C500.317 75.2266 500.268 74.9663 500.171 74.7759C500.078 74.5812 499.94 74.4437 499.758 74.3633C499.581 74.2786 499.358 74.2363 499.092 74.2363C498.829 74.2363 498.595 74.2913 498.387 74.4014C498.18 74.5114 498.004 74.6616 497.86 74.8521C497.721 75.0425 497.613 75.2625 497.537 75.5122C497.46 75.7619 497.422 76.0285 497.422 76.312ZM506.22 78.9082C506.47 78.9082 506.694 78.8595 506.893 78.7622C507.096 78.6606 507.259 78.521 507.382 78.3433C507.509 78.1655 507.579 77.9603 507.591 77.7275H509.032C509.024 78.1719 508.893 78.576 508.639 78.9399C508.385 79.3039 508.048 79.5938 507.629 79.8096C507.21 80.0212 506.747 80.127 506.239 80.127C505.715 80.127 505.257 80.0381 504.868 79.8604C504.479 79.6784 504.155 79.4287 503.897 79.1113C503.639 78.7939 503.444 78.4279 503.313 78.0132C503.186 77.5985 503.123 77.1541 503.123 76.6802V76.458C503.123 75.984 503.186 75.5397 503.313 75.125C503.444 74.7061 503.639 74.3379 503.897 74.0205C504.155 73.7031 504.479 73.4556 504.868 73.2778C505.257 73.0959 505.712 73.0049 506.233 73.0049C506.783 73.0049 507.265 73.1149 507.68 73.335C508.095 73.5508 508.421 73.8534 508.658 74.2427C508.899 74.6278 509.024 75.0763 509.032 75.5884H507.591C507.579 75.3345 507.515 75.106 507.401 74.9028C507.291 74.6955 507.134 74.5304 506.931 74.4077C506.732 74.285 506.493 74.2236 506.214 74.2236C505.905 74.2236 505.649 74.2871 505.446 74.4141C505.243 74.5368 505.084 74.7061 504.97 74.9219C504.855 75.1335 504.773 75.3726 504.722 75.6392C504.676 75.9015 504.652 76.1745 504.652 76.458V76.6802C504.652 76.9637 504.676 77.2388 504.722 77.5054C504.769 77.772 504.849 78.0111 504.963 78.2227C505.082 78.43 505.243 78.5972 505.446 78.7241C505.649 78.8468 505.907 78.9082 506.22 78.9082ZM514.079 78.6226V75.3472C514.079 75.1017 514.034 74.8901 513.945 74.7124C513.856 74.5347 513.721 74.3971 513.539 74.2998C513.361 74.2025 513.137 74.1538 512.866 74.1538C512.617 74.1538 512.401 74.1961 512.219 74.2808C512.037 74.3654 511.895 74.4797 511.793 74.6235C511.692 74.7674 511.641 74.9303 511.641 75.1123H510.118C510.118 74.8415 510.183 74.5791 510.314 74.3252C510.446 74.0713 510.636 73.8449 510.886 73.646C511.135 73.4471 511.434 73.2905 511.781 73.1763C512.128 73.062 512.517 73.0049 512.949 73.0049C513.465 73.0049 513.922 73.0916 514.32 73.2651C514.722 73.4386 515.037 73.701 515.266 74.0522C515.498 74.3993 515.615 74.8351 515.615 75.3599V78.4131C515.615 78.7262 515.636 79.0076 515.678 79.2573C515.725 79.5028 515.79 79.7165 515.875 79.8984V80H514.307C514.235 79.835 514.178 79.6255 514.136 79.3716C514.098 79.1134 514.079 78.8638 514.079 78.6226ZM514.301 75.8232L514.313 76.769H513.215C512.932 76.769 512.682 76.7965 512.466 76.8516C512.25 76.9023 512.071 76.9785 511.927 77.0801C511.783 77.1816 511.675 77.3044 511.603 77.4482C511.531 77.5921 511.495 77.755 511.495 77.937C511.495 78.119 511.537 78.2861 511.622 78.4385C511.707 78.5866 511.829 78.703 511.99 78.7876C512.155 78.8722 512.354 78.9146 512.587 78.9146C512.9 78.9146 513.173 78.8511 513.406 78.7241C513.643 78.5929 513.829 78.4342 513.964 78.248C514.1 78.0576 514.172 77.8778 514.18 77.7085L514.675 78.3877C514.625 78.5612 514.538 78.7474 514.415 78.9463C514.292 79.1452 514.132 79.3356 513.933 79.5176C513.738 79.6953 513.503 79.8413 513.228 79.9556C512.957 80.0698 512.644 80.127 512.289 80.127C511.84 80.127 511.44 80.0381 511.089 79.8604C510.738 79.6784 510.463 79.4351 510.264 79.1304C510.065 78.8215 509.965 78.4723 509.965 78.083C509.965 77.7191 510.033 77.3975 510.168 77.1182C510.308 76.8346 510.511 76.5977 510.778 76.4072C511.049 76.2168 511.379 76.0729 511.768 75.9756C512.157 75.874 512.602 75.8232 513.101 75.8232H514.301ZM520.363 73.1318V74.249H516.491V73.1318H520.363ZM517.608 71.4497H519.138V78.1021C519.138 78.3136 519.167 78.4766 519.227 78.5908C519.29 78.7008 519.377 78.7749 519.487 78.813C519.597 78.8511 519.726 78.8701 519.874 78.8701C519.98 78.8701 520.081 78.8638 520.179 78.8511C520.276 78.8384 520.354 78.8257 520.414 78.813L520.42 79.981C520.293 80.019 520.145 80.0529 519.976 80.0825C519.811 80.1121 519.62 80.127 519.404 80.127C519.053 80.127 518.742 80.0656 518.471 79.9429C518.2 79.8159 517.989 79.6107 517.836 79.3271C517.684 79.0436 517.608 78.667 517.608 78.1973V71.4497ZM524.571 80.127C524.063 80.127 523.604 80.0444 523.194 79.8794C522.788 79.7101 522.441 79.4753 522.153 79.1748C521.869 78.8743 521.651 78.521 521.499 78.1147C521.347 77.7085 521.271 77.2705 521.271 76.8008V76.5469C521.271 76.0094 521.349 75.5228 521.505 75.0869C521.662 74.651 521.88 74.2786 522.159 73.9697C522.438 73.6566 522.769 73.4175 523.149 73.2524C523.53 73.0874 523.943 73.0049 524.387 73.0049C524.878 73.0049 525.308 73.0874 525.676 73.2524C526.044 73.4175 526.349 73.6502 526.59 73.9507C526.835 74.2469 527.017 74.6003 527.136 75.0107C527.258 75.4212 527.32 75.874 527.32 76.3691V77.0229H522.013V75.9248H525.809V75.8042C525.801 75.5291 525.746 75.271 525.644 75.0298C525.547 74.7886 525.396 74.5939 525.193 74.4458C524.99 74.2977 524.719 74.2236 524.381 74.2236C524.127 74.2236 523.901 74.2786 523.702 74.3887C523.507 74.4945 523.344 74.6489 523.213 74.8521C523.082 75.0552 522.98 75.3006 522.908 75.5884C522.84 75.8719 522.807 76.1914 522.807 76.5469V76.8008C522.807 77.1012 522.847 77.3805 522.927 77.6387C523.012 77.8926 523.135 78.1147 523.295 78.3052C523.456 78.4956 523.651 78.6458 523.879 78.7559C524.108 78.8617 524.368 78.9146 524.66 78.9146C525.028 78.9146 525.356 78.8405 525.644 78.6924C525.932 78.5443 526.181 78.3348 526.393 78.064L527.199 78.8447C527.051 79.0605 526.859 79.2679 526.622 79.4668C526.385 79.6615 526.095 79.8201 525.752 79.9429C525.413 80.0656 525.02 80.127 524.571 80.127ZM532.703 78.5781V70.25H534.239V80H532.849L532.703 78.5781ZM528.234 76.6421V76.5088C528.234 75.9883 528.295 75.5143 528.418 75.0869C528.541 74.6553 528.718 74.285 528.951 73.9761C529.184 73.6629 529.467 73.4238 529.802 73.2588C530.136 73.0895 530.513 73.0049 530.932 73.0049C531.346 73.0049 531.71 73.0853 532.023 73.2461C532.337 73.4069 532.603 73.6375 532.823 73.938C533.043 74.2342 533.219 74.5897 533.35 75.0044C533.481 75.4149 533.574 75.8719 533.629 76.3755V76.8008C533.574 77.2917 533.481 77.7402 533.35 78.1465C533.219 78.5527 533.043 78.904 532.823 79.2002C532.603 79.4964 532.334 79.7249 532.017 79.8857C531.704 80.0465 531.338 80.127 530.919 80.127C530.504 80.127 530.13 80.0402 529.795 79.8667C529.465 79.6932 529.184 79.4499 528.951 79.1367C528.718 78.8236 528.541 78.4554 528.418 78.0322C528.295 77.6048 528.234 77.1414 528.234 76.6421ZM529.764 76.5088V76.6421C529.764 76.9552 529.791 77.2472 529.846 77.5181C529.905 77.7889 529.996 78.028 530.119 78.2354C530.242 78.4385 530.401 78.5993 530.595 78.7178C530.794 78.832 531.031 78.8892 531.306 78.8892C531.653 78.8892 531.939 78.813 532.163 78.6606C532.387 78.5083 532.563 78.3031 532.69 78.0449C532.821 77.7826 532.91 77.4906 532.957 77.1689V76.02C532.931 75.7703 532.878 75.5376 532.798 75.3218C532.722 75.106 532.618 74.9176 532.487 74.7568C532.356 74.5918 532.193 74.4648 531.998 74.376C531.808 74.2829 531.581 74.2363 531.319 74.2363C531.04 74.2363 530.803 74.2956 530.608 74.4141C530.413 74.5326 530.252 74.6955 530.125 74.9028C530.003 75.1102 529.912 75.3514 529.853 75.6265C529.793 75.9015 529.764 76.1956 529.764 76.5088ZM535.902 79.2383C535.902 79.0013 535.982 78.8024 536.143 78.6416C536.304 78.4766 536.522 78.394 536.797 78.394C537.076 78.394 537.294 78.4766 537.451 78.6416C537.611 78.8024 537.692 79.0013 537.692 79.2383C537.692 79.4753 537.611 79.6742 537.451 79.835C537.294 79.9958 537.076 80.0762 536.797 80.0762C536.522 80.0762 536.304 79.9958 536.143 79.835C535.982 79.6742 535.902 79.4753 535.902 79.2383ZM539.52 79.2383C539.52 79.0013 539.6 78.8024 539.761 78.6416C539.922 78.4766 540.14 78.394 540.415 78.394C540.694 78.394 540.912 78.4766 541.069 78.6416C541.23 78.8024 541.31 79.0013 541.31 79.2383C541.31 79.4753 541.23 79.6742 541.069 79.835C540.912 79.9958 540.694 80.0762 540.415 80.0762C540.14 80.0762 539.922 79.9958 539.761 79.835C539.6 79.6742 539.52 79.4753 539.52 79.2383ZM543.138 79.2383C543.138 79.0013 543.219 78.8024 543.379 78.6416C543.54 78.4766 543.758 78.394 544.033 78.394C544.312 78.394 544.53 78.4766 544.687 78.6416C544.848 78.8024 544.928 79.0013 544.928 79.2383C544.928 79.4753 544.848 79.6742 544.687 79.835C544.53 79.9958 544.312 80.0762 544.033 80.0762C543.758 80.0762 543.54 79.9958 543.379 79.835C543.219 79.6742 543.138 79.4753 543.138 79.2383Z" fill="white"/>
<path d="M247.067 52H245.396L245.407 50.9312H247.067C247.55 50.9312 247.955 50.8255 248.281 50.6143C248.61 50.403 248.857 50.1004 249.022 49.7065C249.19 49.3127 249.274 48.8436 249.274 48.2993V47.875C249.274 47.4525 249.226 47.0783 249.129 46.7524C249.036 46.4266 248.897 46.1527 248.71 45.9307C248.528 45.7087 248.302 45.5404 248.034 45.4258C247.769 45.3112 247.463 45.2539 247.115 45.2539H245.364V44.1797H247.115C247.634 44.1797 248.109 44.2674 248.539 44.4429C248.968 44.6147 249.339 44.8636 249.65 45.1895C249.965 45.5153 250.207 45.9056 250.375 46.3604C250.544 46.8151 250.628 47.3236 250.628 47.8857V48.2993C250.628 48.8615 250.544 49.37 250.375 49.8247C250.207 50.2795 249.965 50.6698 249.65 50.9956C249.335 51.3179 248.959 51.5667 248.522 51.7422C248.089 51.9141 247.604 52 247.067 52ZM246.143 44.1797V52H244.795V44.1797H246.143ZM257.3 50.9312V52H253.148V50.9312H257.3ZM253.53 44.1797V52H252.181V44.1797H253.53ZM256.758 47.4453V48.498H253.148V47.4453H256.758ZM257.273 44.1797V45.2539H253.148V44.1797H257.273ZM259.949 44.1797V52H258.601V44.1797H259.949ZM263.14 47.6011V48.6699H259.606V47.6011H263.14ZM263.586 44.1797V45.2539H259.606V44.1797H263.586ZM266.949 45.2217L264.613 52H263.2L266.143 44.1797H267.046L266.949 45.2217ZM268.904 52L266.562 45.2217L266.46 44.1797H267.368L270.322 52H268.904ZM268.791 49.0996V50.1685H264.538V49.0996H268.791ZM275.689 44.1797H277.032V49.4058C277.032 50.0002 276.903 50.4979 276.645 50.8989C276.387 51.3 276.036 51.6025 275.592 51.8066C275.152 52.0072 274.66 52.1074 274.115 52.1074C273.553 52.1074 273.052 52.0072 272.612 51.8066C272.171 51.6025 271.824 51.3 271.57 50.8989C271.319 50.4979 271.194 50.0002 271.194 49.4058V44.1797H272.536V49.4058C272.536 49.7817 272.601 50.0915 272.73 50.335C272.859 50.5749 273.041 50.7521 273.278 50.8667C273.514 50.9813 273.793 51.0386 274.115 51.0386C274.438 51.0386 274.715 50.9813 274.948 50.8667C275.184 50.7521 275.367 50.5749 275.496 50.335C275.625 50.0915 275.689 49.7817 275.689 49.4058V44.1797ZM283.597 50.9312V52H279.67V50.9312H283.597ZM280.046 44.1797V52H278.698V44.1797H280.046ZM286.713 44.1797V52H285.376V44.1797H286.713ZM289.168 44.1797V45.2539H282.943V44.1797H289.168Z" fill="#AAAAAA"/>
<path d="M339.343 44.1797H340.546L342.807 50.2114L345.063 44.1797H346.266L343.28 52H342.324L339.343 44.1797ZM338.795 44.1797H339.939L340.138 49.4004V52H338.795V44.1797ZM345.67 44.1797H346.819V52H345.471V49.4004L345.67 44.1797ZM353.008 44.1797H354.351V49.4058C354.351 50.0002 354.222 50.4979 353.964 50.8989C353.706 51.3 353.355 51.6025 352.911 51.8066C352.471 52.0072 351.979 52.1074 351.434 52.1074C350.872 52.1074 350.371 52.0072 349.93 51.8066C349.49 51.6025 349.143 51.3 348.888 50.8989C348.638 50.4979 348.512 50.0002 348.512 49.4058V44.1797H349.855V49.4058C349.855 49.7817 349.92 50.0915 350.049 50.335C350.178 50.5749 350.36 50.7521 350.596 50.8667C350.833 50.9813 351.112 51.0386 351.434 51.0386C351.757 51.0386 352.034 50.9813 352.267 50.8667C352.503 50.7521 352.686 50.5749 352.815 50.335C352.944 50.0915 353.008 49.7817 353.008 49.4058V44.1797ZM360.916 50.9312V52H356.989V50.9312H360.916ZM357.365 44.1797V52H356.017V44.1797H357.365ZM364.032 44.1797V52H362.695V44.1797H364.032ZM366.487 44.1797V45.2539H360.262V44.1797H366.487ZM369.157 44.1797V52H367.809V44.1797H369.157ZM374.003 49.0835H371.968V48.0146H374.003C374.358 48.0146 374.644 47.9574 374.863 47.8428C375.081 47.7282 375.241 47.5706 375.341 47.3701C375.445 47.166 375.497 46.9333 375.497 46.6719C375.497 46.4248 375.445 46.1938 375.341 45.979C375.241 45.7606 375.081 45.5851 374.863 45.4526C374.644 45.3201 374.358 45.2539 374.003 45.2539H372.381V52H371.033V44.1797H374.003C374.609 44.1797 375.122 44.2871 375.545 44.502C375.971 44.7132 376.295 45.0068 376.517 45.3828C376.739 45.7552 376.85 46.1813 376.85 46.6611C376.85 47.166 376.739 47.5993 376.517 47.9609C376.295 48.3226 375.971 48.6001 375.545 48.7935C375.122 48.9868 374.609 49.0835 374.003 49.0835ZM383.157 50.9312V52H379.231V50.9312H383.157ZM379.607 44.1797V52H378.259V44.1797H379.607ZM389.518 50.9312V52H385.366V50.9312H389.518ZM385.747 44.1797V52H384.399V44.1797H385.747ZM388.975 47.4453V48.498H385.366V47.4453H388.975ZM389.491 44.1797V45.2539H385.366V44.1797H389.491ZM398.656 50.9312V52H394.73V50.9312H398.656ZM395.106 44.1797V52H393.758V44.1797H395.106ZM401.338 44.1797V52H399.99V44.1797H401.338ZM409.417 44.1797V52H408.069L404.562 46.3979V52H403.214V44.1797H404.562L408.08 49.7925V44.1797H409.417ZM416.342 50.9312V52H412.19V50.9312H416.342ZM412.571 44.1797V52H411.223V44.1797H412.571ZM415.799 47.4453V48.498H412.19V47.4453H415.799ZM416.315 44.1797V45.2539H412.19V44.1797H416.315Z" fill="#AAAAAA"/>
<path d="M472.012 44.1797V52H470.675V44.1797H472.012ZM474.467 44.1797V45.2539H468.242V44.1797H474.467ZM475.698 44.1797H478.464C479.059 44.1797 479.565 44.2692 479.984 44.4482C480.403 44.6273 480.724 44.8923 480.946 45.2432C481.171 45.5905 481.284 46.0202 481.284 46.5322C481.284 46.9225 481.212 47.2663 481.069 47.5635C480.926 47.8607 480.724 48.1113 480.462 48.3154C480.201 48.516 479.889 48.6717 479.528 48.7827L479.119 48.9814H476.633L476.622 47.9126H478.486C478.808 47.9126 479.076 47.8553 479.291 47.7407C479.506 47.6261 479.667 47.4704 479.775 47.2734C479.886 47.0729 479.941 46.8473 479.941 46.5967C479.941 46.3245 479.887 46.0882 479.78 45.8877C479.676 45.6836 479.515 45.5278 479.297 45.4204C479.078 45.3094 478.801 45.2539 478.464 45.2539H477.046V52H475.698V44.1797ZM480.161 52L478.325 48.4873L479.737 48.4819L481.601 51.9302V52H480.161ZM487.215 44.1797H488.558V49.4058C488.558 50.0002 488.429 50.4979 488.171 50.8989C487.913 51.3 487.562 51.6025 487.118 51.8066C486.678 52.0072 486.185 52.1074 485.641 52.1074C485.079 52.1074 484.578 52.0072 484.137 51.8066C483.697 51.6025 483.35 51.3 483.095 50.8989C482.845 50.4979 482.719 50.0002 482.719 49.4058V44.1797H484.062V49.4058C484.062 49.7817 484.127 50.0915 484.255 50.335C484.384 50.5749 484.567 50.7521 484.803 50.8667C485.04 50.9813 485.319 51.0386 485.641 51.0386C485.963 51.0386 486.241 50.9813 486.474 50.8667C486.71 50.7521 486.893 50.5749 487.022 50.335C487.15 50.0915 487.215 49.7817 487.215 49.4058V44.1797ZM496.428 44.1797V52H495.079L491.572 46.3979V52H490.224V44.1797H491.572L495.09 49.7925V44.1797H496.428ZM502.853 49.4541H504.196C504.153 49.9661 504.009 50.4227 503.766 50.8237C503.522 51.2212 503.18 51.5345 502.74 51.7637C502.3 51.9928 501.764 52.1074 501.134 52.1074C500.651 52.1074 500.216 52.0215 499.829 51.8496C499.442 51.6742 499.111 51.4271 498.835 51.1084C498.559 50.7861 498.348 50.3976 498.201 49.9429C498.058 49.4881 497.987 48.9797 497.987 48.4175V47.7676C497.987 47.2054 498.06 46.6969 498.207 46.2422C498.357 45.7874 498.572 45.3989 498.851 45.0767C499.131 44.7508 499.465 44.502 499.856 44.3301C500.25 44.1582 500.692 44.0723 501.182 44.0723C501.805 44.0723 502.332 44.1868 502.761 44.416C503.191 44.6452 503.524 44.9621 503.76 45.3667C504 45.7713 504.147 46.235 504.201 46.7578H502.858C502.822 46.4212 502.744 46.133 502.622 45.8931C502.504 45.6532 502.328 45.4705 502.095 45.3452C501.863 45.2163 501.558 45.1519 501.182 45.1519C500.874 45.1519 500.606 45.2091 500.377 45.3237C500.147 45.4383 499.956 45.6066 499.802 45.8286C499.648 46.0506 499.532 46.3245 499.453 46.6504C499.378 46.9727 499.34 47.3415 499.34 47.7568V48.4175C499.34 48.8114 499.374 49.1694 499.442 49.4917C499.514 49.8104 499.621 50.0843 499.764 50.3135C499.911 50.5426 500.097 50.7199 500.323 50.8452C500.549 50.9705 500.819 51.0332 501.134 51.0332C501.517 51.0332 501.827 50.9723 502.063 50.8506C502.303 50.7288 502.484 50.5516 502.606 50.3188C502.731 50.0825 502.813 49.7943 502.853 49.4541ZM508.666 45.2217L506.329 52H504.917L507.86 44.1797H508.762L508.666 45.2217ZM510.621 52L508.279 45.2217L508.177 44.1797H509.084L512.039 52H510.621ZM510.508 49.0996V50.1685H506.254V49.0996H510.508ZM515.655 44.1797V52H514.317V44.1797H515.655ZM518.109 44.1797V45.2539H511.884V44.1797H518.109ZM524.459 50.9312V52H520.307V50.9312H524.459ZM520.689 44.1797V52H519.34V44.1797H520.689ZM523.917 47.4453V48.498H520.307V47.4453H523.917ZM524.432 44.1797V45.2539H520.307V44.1797H524.432ZM528.032 52H526.362L526.372 50.9312H528.032C528.516 50.9312 528.92 50.8255 529.246 50.6143C529.575 50.403 529.822 50.1004 529.987 49.7065C530.155 49.3127 530.24 48.8436 530.24 48.2993V47.875C530.24 47.4525 530.191 47.0783 530.095 46.7524C530.002 46.4266 529.862 46.1527 529.676 45.9307C529.493 45.7087 529.267 45.5404 528.999 45.4258C528.734 45.3112 528.428 45.2539 528.08 45.2539H526.329V44.1797H528.08C528.6 44.1797 529.074 44.2674 529.504 44.4429C529.933 44.6147 530.304 44.8636 530.616 45.1895C530.931 45.5153 531.172 45.9056 531.341 46.3604C531.509 46.8151 531.593 47.3236 531.593 47.8857V48.2993C531.593 48.8615 531.509 49.37 531.341 49.8247C531.172 50.2795 530.931 50.6698 530.616 50.9956C530.301 51.3179 529.925 51.5667 529.488 51.7422C529.054 51.9141 528.569 52 528.032 52ZM527.108 44.1797V52H525.76V44.1797H527.108Z" fill="#AAAAAA"/>
</svg>
