<svg width="640" height="243" viewBox="0 0 640 243" fill="none" xmlns="http://www.w3.org/2000/svg">
<rect width="640" height="243" rx="16" fill="#F8F8F8"/>
<g filter="url(#filter0_dd_9202_4452)">
<rect x="40" y="40" width="560" height="72" rx="8" fill="white"/>
<path d="M74 69.5C74 70.3284 73.3284 71 72.5 71C71.6716 71 71 70.3284 71 69.5C71 68.6716 71.6716 68 72.5 68C73.3284 68 74 68.6716 74 69.5Z" fill="#AAAAAA"/>
<path d="M80 69.5C80 70.3284 79.3284 71 78.5 71C77.6716 71 77 70.3284 77 69.5C77 68.6716 77.6716 68 78.5 68C79.3284 68 80 68.6716 80 69.5Z" fill="#AAAAAA"/>
<path d="M80 76C80 76.8284 79.3284 77.5 78.5 77.5C77.6716 77.5 77 76.8284 77 76C77 75.1716 77.6716 74.5 78.5 74.5C79.3284 74.5 80 75.1716 80 76Z" fill="#AAAAAA"/>
<path d="M74 76C74 76.8284 73.3284 77.5 72.5 77.5C71.6716 77.5 71 76.8284 71 76C71 75.1716 71.6716 74.5 72.5 74.5C73.3284 74.5 74 75.1716 74 76Z" fill="#AAAAAA"/>
<path d="M74 82.5C74 83.3284 73.3284 84 72.5 84C71.6716 84 71 83.3284 71 82.5C71 81.6716 71.6716 81 72.5 81C73.3284 81 74 81.6716 74 82.5Z" fill="#AAAAAA"/>
<path d="M80 82.5C80 83.3284 79.3284 84 78.5 84C77.6716 84 77 83.3284 77 82.5C77 81.6716 77.6716 81 78.5 81C79.3284 81 80 81.6716 80 82.5Z" fill="#AAAAAA"/>
<path d="M101 72.3333C101 71.3207 101.783 70.5 102.75 70.5H113.25C114.215 70.5 115 71.3207 115 72.3333V79.6667C115 80.6779 114.215 81.5 113.25 81.5H102.75C101.783 81.5 101 80.6779 101 79.6667V72.3333ZM102.312 72.3333V72.9664L107.029 77.0227C107.593 77.5096 108.407 77.5096 108.971 77.0227L113.688 72.9664V72.3076C113.688 72.0812 113.491 71.8492 113.25 71.8492H102.75C102.508 71.8492 102.312 72.0812 102.312 72.3076V72.3333ZM102.312 74.7453V79.6667C102.312 79.9188 102.508 80.125 102.75 80.125H113.25C113.491 80.125 113.688 79.9188 113.688 79.6667V74.7453L109.805 78.0854C108.755 78.9878 107.245 78.9878 106.171 78.0854L102.312 74.7453Z" fill="#1A1A1A"/>
<path d="M130.922 70.3359V81H129.084V70.3359H130.922ZM135.273 75.0015V76.459H130.454V75.0015H135.273ZM135.881 70.3359V71.8008H130.454V70.3359H135.881ZM139.06 73.0752V81H137.287V73.0752H139.06ZM137.17 70.9951C137.17 70.7266 137.258 70.5044 137.434 70.3286C137.614 70.1479 137.863 70.0576 138.181 70.0576C138.493 70.0576 138.74 70.1479 138.92 70.3286C139.101 70.5044 139.191 70.7266 139.191 70.9951C139.191 71.2588 139.101 71.4785 138.92 71.6543C138.74 71.8301 138.493 71.918 138.181 71.918C137.863 71.918 137.614 71.8301 137.434 71.6543C137.258 71.4785 137.17 71.2588 137.17 70.9951ZM144.487 81.1465C143.901 81.1465 143.371 81.0513 142.897 80.8608C142.429 80.6655 142.028 80.3945 141.696 80.0479C141.369 79.7012 141.118 79.2935 140.942 78.8247C140.766 78.356 140.678 77.8506 140.678 77.3086V77.0156C140.678 76.3955 140.769 75.834 140.949 75.3311C141.13 74.8281 141.381 74.3984 141.704 74.042C142.026 73.6807 142.407 73.4048 142.846 73.2144C143.286 73.0239 143.762 72.9287 144.274 72.9287C144.841 72.9287 145.336 73.0239 145.761 73.2144C146.186 73.4048 146.538 73.6733 146.816 74.02C147.099 74.3618 147.309 74.7695 147.446 75.2432C147.587 75.7168 147.658 76.2393 147.658 76.8105V77.5649H141.535V76.2979H145.915V76.1587C145.905 75.8413 145.842 75.5435 145.725 75.2651C145.612 74.9868 145.439 74.7622 145.205 74.5913C144.97 74.4204 144.658 74.335 144.267 74.335C143.974 74.335 143.713 74.3984 143.483 74.5254C143.259 74.6475 143.071 74.8257 142.919 75.0601C142.768 75.2944 142.651 75.5776 142.568 75.9097C142.49 76.2368 142.451 76.6055 142.451 77.0156V77.3086C142.451 77.6553 142.497 77.9775 142.59 78.2754C142.688 78.5684 142.829 78.8247 143.015 79.0444C143.2 79.2642 143.425 79.4375 143.688 79.5645C143.952 79.6865 144.252 79.7476 144.589 79.7476C145.014 79.7476 145.393 79.6621 145.725 79.4912C146.057 79.3203 146.345 79.0786 146.589 78.7661L147.519 79.667C147.348 79.916 147.126 80.1553 146.853 80.3848C146.579 80.6094 146.245 80.7925 145.849 80.9341C145.458 81.0757 145.004 81.1465 144.487 81.1465ZM150.925 69.75V81H149.152V69.75H150.925ZM157.692 79.3594V69.75H159.465V81H157.861L157.692 79.3594ZM152.536 77.1255V76.9717C152.536 76.3711 152.607 75.8242 152.749 75.3311C152.89 74.833 153.095 74.4058 153.364 74.0493C153.632 73.688 153.959 73.4121 154.345 73.2217C154.731 73.0264 155.166 72.9287 155.649 72.9287C156.127 72.9287 156.547 73.0215 156.909 73.207C157.27 73.3926 157.578 73.6587 157.832 74.0054C158.085 74.3472 158.288 74.7573 158.439 75.2358C158.591 75.7095 158.698 76.2368 158.762 76.8179V77.3086C158.698 77.875 158.591 78.3926 158.439 78.8613C158.288 79.3301 158.085 79.7354 157.832 80.0771C157.578 80.4189 157.268 80.6826 156.901 80.8682C156.54 81.0537 156.118 81.1465 155.634 81.1465C155.156 81.1465 154.724 81.0464 154.338 80.8462C153.957 80.646 153.632 80.3652 153.364 80.0039C153.095 79.6426 152.89 79.2178 152.749 78.7295C152.607 78.2363 152.536 77.7017 152.536 77.1255ZM154.301 76.9717V77.1255C154.301 77.4868 154.333 77.8237 154.396 78.1362C154.465 78.4487 154.57 78.7246 154.711 78.9639C154.853 79.1982 155.036 79.3838 155.261 79.5205C155.49 79.6523 155.764 79.7183 156.081 79.7183C156.481 79.7183 156.811 79.6304 157.07 79.4546C157.329 79.2788 157.531 79.042 157.678 78.7441C157.829 78.4414 157.932 78.1045 157.985 77.7334V76.4077C157.956 76.1196 157.895 75.8511 157.802 75.6021C157.714 75.353 157.595 75.1357 157.443 74.9502C157.292 74.7598 157.104 74.6133 156.879 74.5107C156.66 74.4033 156.398 74.3496 156.096 74.3496C155.773 74.3496 155.5 74.418 155.275 74.5547C155.051 74.6914 154.865 74.8794 154.719 75.1187C154.577 75.3579 154.472 75.6362 154.404 75.9536C154.335 76.271 154.301 76.6104 154.301 76.9717ZM165.053 69.75H166.818V79.3081L166.65 81H165.053V69.75ZM171.989 76.9644V77.1182C171.989 77.7041 171.923 78.2437 171.792 78.7368C171.665 79.2251 171.469 79.6499 171.206 80.0112C170.947 80.3726 170.625 80.6533 170.239 80.8535C169.858 81.0488 169.416 81.1465 168.913 81.1465C168.42 81.1465 167.99 81.0537 167.624 80.8682C167.258 80.6826 166.95 80.4189 166.701 80.0771C166.457 79.7354 166.259 79.3276 166.108 78.854C165.957 78.3804 165.849 77.8579 165.786 77.2866V76.7959C165.849 76.2197 165.957 75.6973 166.108 75.2285C166.259 74.7549 166.457 74.3472 166.701 74.0054C166.95 73.6587 167.255 73.3926 167.617 73.207C167.983 73.0215 168.41 72.9287 168.898 72.9287C169.406 72.9287 169.853 73.0264 170.239 73.2217C170.629 73.417 170.954 73.6953 171.213 74.0566C171.472 74.4131 171.665 74.8379 171.792 75.3311C171.923 75.8242 171.989 76.3687 171.989 76.9644ZM170.224 77.1182V76.9644C170.224 76.6079 170.195 76.2734 170.136 75.9609C170.078 75.6436 169.98 75.3652 169.843 75.126C169.711 74.8867 169.531 74.6987 169.301 74.562C169.077 74.4204 168.796 74.3496 168.459 74.3496C168.146 74.3496 167.878 74.4033 167.653 74.5107C167.429 74.6182 167.241 74.7646 167.089 74.9502C166.938 75.1357 166.818 75.3506 166.73 75.5947C166.647 75.8389 166.591 76.1025 166.562 76.3857V77.7114C166.606 78.0776 166.699 78.4146 166.84 78.7222C166.987 79.0249 167.192 79.269 167.456 79.4546C167.719 79.6353 168.059 79.7256 168.474 79.7256C168.801 79.7256 169.077 79.6597 169.301 79.5278C169.526 79.396 169.704 79.2129 169.836 78.9785C169.973 78.7393 170.07 78.4609 170.129 78.1436C170.192 77.8262 170.224 77.4844 170.224 77.1182ZM175.373 69.75V81H173.601V69.75H175.373ZM176.97 77.1255V76.957C176.97 76.3857 177.053 75.856 177.219 75.3677C177.385 74.8745 177.624 74.4473 177.937 74.0859C178.254 73.7197 178.64 73.4365 179.094 73.2363C179.553 73.0312 180.07 72.9287 180.646 72.9287C181.228 72.9287 181.745 73.0312 182.199 73.2363C182.658 73.4365 183.046 73.7197 183.364 74.0859C183.681 74.4473 183.923 74.8745 184.089 75.3677C184.255 75.856 184.338 76.3857 184.338 76.957V77.1255C184.338 77.6968 184.255 78.2266 184.089 78.7148C183.923 79.2031 183.681 79.6304 183.364 79.9966C183.046 80.3579 182.661 80.6411 182.207 80.8462C181.752 81.0464 181.237 81.1465 180.661 81.1465C180.08 81.1465 179.56 81.0464 179.101 80.8462C178.647 80.6411 178.261 80.3579 177.944 79.9966C177.626 79.6304 177.385 79.2031 177.219 78.7148C177.053 78.2266 176.97 77.6968 176.97 77.1255ZM178.735 76.957V77.1255C178.735 77.4819 178.771 77.8188 178.845 78.1362C178.918 78.4536 179.033 78.7319 179.189 78.9712C179.345 79.2104 179.545 79.3984 179.79 79.5352C180.034 79.6719 180.324 79.7402 180.661 79.7402C180.988 79.7402 181.271 79.6719 181.511 79.5352C181.755 79.3984 181.955 79.2104 182.111 78.9712C182.268 78.7319 182.382 78.4536 182.456 78.1362C182.534 77.8188 182.573 77.4819 182.573 77.1255V76.957C182.573 76.6055 182.534 76.2734 182.456 75.9609C182.382 75.6436 182.265 75.3628 182.104 75.1187C181.948 74.8745 181.748 74.6841 181.503 74.5474C181.264 74.4058 180.979 74.335 180.646 74.335C180.314 74.335 180.026 74.4058 179.782 74.5474C179.543 74.6841 179.345 74.8745 179.189 75.1187C179.033 75.3628 178.918 75.6436 178.845 75.9609C178.771 76.2734 178.735 76.6055 178.735 76.957ZM189.055 79.7402C189.343 79.7402 189.602 79.6841 189.831 79.5718C190.065 79.4546 190.253 79.2935 190.395 79.0884C190.542 78.8833 190.622 78.6465 190.637 78.3779H192.299C192.29 78.8906 192.138 79.3569 191.845 79.7769C191.552 80.1968 191.164 80.5312 190.681 80.7803C190.197 81.0244 189.663 81.1465 189.077 81.1465C188.471 81.1465 187.944 81.0439 187.495 80.8389C187.045 80.6289 186.672 80.3408 186.374 79.9746C186.076 79.6084 185.852 79.186 185.7 78.7075C185.554 78.229 185.48 77.7163 185.48 77.1694V76.9131C185.48 76.3662 185.554 75.8535 185.7 75.375C185.852 74.8916 186.076 74.4668 186.374 74.1006C186.672 73.7344 187.045 73.4487 187.495 73.2437C187.944 73.0337 188.469 72.9287 189.069 72.9287C189.704 72.9287 190.261 73.0557 190.739 73.3096C191.218 73.5586 191.594 73.9077 191.867 74.3569C192.146 74.8013 192.29 75.3188 192.299 75.9097H190.637C190.622 75.6167 190.549 75.353 190.417 75.1187C190.29 74.8794 190.109 74.689 189.875 74.5474C189.646 74.4058 189.37 74.335 189.047 74.335C188.691 74.335 188.396 74.4082 188.161 74.5547C187.927 74.6963 187.744 74.8916 187.612 75.1406C187.48 75.3848 187.385 75.6606 187.326 75.9683C187.272 76.271 187.246 76.5859 187.246 76.9131V77.1694C187.246 77.4966 187.272 77.814 187.326 78.1216C187.38 78.4292 187.473 78.7051 187.604 78.9492C187.741 79.1885 187.927 79.3813 188.161 79.5278C188.396 79.6694 188.693 79.7402 189.055 79.7402ZM195.434 69.75V81H193.662V69.75H195.434ZM200.356 73.0752L196.906 76.8984L195.017 78.832L194.555 77.3379L195.983 75.5728L198.225 73.0752H200.356ZM198.605 81L196.035 77.2793L197.148 76.0415L200.649 81H198.605ZM207.102 69.75V81H205.329V69.75H207.102ZM213.503 79.4106V75.6313C213.503 75.3481 213.452 75.104 213.349 74.8989C213.247 74.6938 213.09 74.5352 212.88 74.4229C212.675 74.3105 212.417 74.2544 212.104 74.2544C211.816 74.2544 211.567 74.3032 211.357 74.4009C211.147 74.4985 210.983 74.6304 210.866 74.7964C210.749 74.9624 210.69 75.1504 210.69 75.3604H208.933C208.933 75.0479 209.008 74.7451 209.16 74.4521C209.311 74.1592 209.531 73.8979 209.819 73.6685C210.107 73.439 210.451 73.2583 210.852 73.1265C211.252 72.9946 211.701 72.9287 212.199 72.9287C212.795 72.9287 213.322 73.0288 213.781 73.229C214.245 73.4292 214.609 73.7319 214.873 74.1372C215.141 74.5376 215.275 75.0405 215.275 75.646V79.1689C215.275 79.5303 215.3 79.855 215.349 80.1431C215.402 80.4263 215.478 80.6729 215.576 80.8828V81H213.767C213.684 80.8096 213.618 80.5679 213.569 80.2749C213.525 79.9771 213.503 79.689 213.503 79.4106ZM213.759 76.1807L213.774 77.272H212.507C212.18 77.272 211.892 77.3037 211.643 77.3672C211.394 77.4258 211.186 77.5137 211.02 77.6309C210.854 77.748 210.729 77.8896 210.646 78.0557C210.563 78.2217 210.522 78.4097 210.522 78.6196C210.522 78.8296 210.571 79.0225 210.668 79.1982C210.766 79.3691 210.908 79.5034 211.093 79.6011C211.284 79.6987 211.513 79.7476 211.782 79.7476C212.143 79.7476 212.458 79.6743 212.727 79.5278C213 79.3765 213.215 79.1934 213.371 78.9785C213.527 78.7588 213.61 78.5513 213.62 78.356L214.191 79.1396C214.133 79.3398 214.033 79.5547 213.891 79.7842C213.75 80.0137 213.564 80.2334 213.334 80.4434C213.11 80.6484 212.839 80.8169 212.521 80.9487C212.209 81.0806 211.848 81.1465 211.438 81.1465C210.92 81.1465 210.458 81.0439 210.053 80.8389C209.648 80.6289 209.331 80.3481 209.101 79.9966C208.872 79.6401 208.757 79.2373 208.757 78.7881C208.757 78.3682 208.835 77.9971 208.991 77.6748C209.152 77.3477 209.387 77.0742 209.694 76.8545C210.007 76.6348 210.388 76.4688 210.837 76.3564C211.286 76.2393 211.799 76.1807 212.375 76.1807H213.759ZM217.128 69.75H218.894V79.3081L218.725 81H217.128V69.75ZM224.064 76.9644V77.1182C224.064 77.7041 223.999 78.2437 223.867 78.7368C223.74 79.2251 223.544 79.6499 223.281 80.0112C223.022 80.3726 222.7 80.6533 222.314 80.8535C221.933 81.0488 221.491 81.1465 220.988 81.1465C220.495 81.1465 220.065 81.0537 219.699 80.8682C219.333 80.6826 219.025 80.4189 218.776 80.0771C218.532 79.7354 218.334 79.3276 218.183 78.854C218.032 78.3804 217.924 77.8579 217.861 77.2866V76.7959C217.924 76.2197 218.032 75.6973 218.183 75.2285C218.334 74.7549 218.532 74.3472 218.776 74.0054C219.025 73.6587 219.331 73.3926 219.692 73.207C220.058 73.0215 220.485 72.9287 220.974 72.9287C221.481 72.9287 221.928 73.0264 222.314 73.2217C222.705 73.417 223.029 73.6953 223.288 74.0566C223.547 74.4131 223.74 74.8379 223.867 75.3311C223.999 75.8242 224.064 76.3687 224.064 76.9644ZM222.299 77.1182V76.9644C222.299 76.6079 222.27 76.2734 222.211 75.9609C222.153 75.6436 222.055 75.3652 221.918 75.126C221.787 74.8867 221.606 74.6987 221.376 74.562C221.152 74.4204 220.871 74.3496 220.534 74.3496C220.222 74.3496 219.953 74.4033 219.729 74.5107C219.504 74.6182 219.316 74.7646 219.165 74.9502C219.013 75.1357 218.894 75.3506 218.806 75.5947C218.723 75.8389 218.667 76.1025 218.637 76.3857V77.7114C218.681 78.0776 218.774 78.4146 218.916 78.7222C219.062 79.0249 219.267 79.269 219.531 79.4546C219.794 79.6353 220.134 79.7256 220.549 79.7256C220.876 79.7256 221.152 79.6597 221.376 79.5278C221.601 79.396 221.779 79.2129 221.911 78.9785C222.048 78.7393 222.146 78.4609 222.204 78.1436C222.268 77.8262 222.299 77.4844 222.299 77.1182ZM229.052 81.1465C228.466 81.1465 227.937 81.0513 227.463 80.8608C226.994 80.6655 226.594 80.3945 226.262 80.0479C225.935 79.7012 225.683 79.2935 225.507 78.8247C225.332 78.356 225.244 77.8506 225.244 77.3086V77.0156C225.244 76.3955 225.334 75.834 225.515 75.3311C225.695 74.8281 225.947 74.3984 226.269 74.042C226.591 73.6807 226.972 73.4048 227.412 73.2144C227.851 73.0239 228.327 72.9287 228.84 72.9287C229.406 72.9287 229.902 73.0239 230.327 73.2144C230.751 73.4048 231.103 73.6733 231.381 74.02C231.665 74.3618 231.875 74.7695 232.011 75.2432C232.153 75.7168 232.224 76.2393 232.224 76.8105V77.5649H226.101V76.2979H230.48V76.1587C230.471 75.8413 230.407 75.5435 230.29 75.2651C230.178 74.9868 230.004 74.7622 229.77 74.5913C229.536 74.4204 229.223 74.335 228.833 74.335C228.54 74.335 228.278 74.3984 228.049 74.5254C227.824 74.6475 227.636 74.8257 227.485 75.0601C227.333 75.2944 227.216 75.5776 227.133 75.9097C227.055 76.2368 227.016 76.6055 227.016 77.0156V77.3086C227.016 77.6553 227.062 77.9775 227.155 78.2754C227.253 78.5684 227.395 78.8247 227.58 79.0444C227.766 79.2642 227.99 79.4375 228.254 79.5645C228.518 79.6865 228.818 79.7476 229.155 79.7476C229.58 79.7476 229.958 79.6621 230.29 79.4912C230.622 79.3203 230.91 79.0786 231.154 78.7661L232.084 79.667C231.914 79.916 231.691 80.1553 231.418 80.3848C231.145 80.6094 230.81 80.7925 230.415 80.9341C230.024 81.0757 229.57 81.1465 229.052 81.1465ZM235.49 69.75V81H233.718V69.75H235.49Z" fill="#1A1A1A"/>
<path d="M318.298 70.7578V80H317.073V70.7578H318.298ZM322.17 74.9155V75.9185H318.031V74.9155H322.17ZM322.798 70.7578V71.7607H318.031V70.7578H322.798ZM325.356 73.1318V80H324.176V73.1318H325.356ZM324.087 71.3101C324.087 71.1196 324.144 70.9588 324.258 70.8276C324.377 70.6965 324.55 70.6309 324.779 70.6309C325.003 70.6309 325.174 70.6965 325.293 70.8276C325.416 70.9588 325.477 71.1196 325.477 71.3101C325.477 71.492 325.416 71.6486 325.293 71.7798C325.174 71.9067 325.003 71.9702 324.779 71.9702C324.55 71.9702 324.377 71.9067 324.258 71.7798C324.144 71.6486 324.087 71.492 324.087 71.3101ZM330.092 80.127C329.614 80.127 329.18 80.0465 328.791 79.8857C328.405 79.7207 328.073 79.4901 327.794 79.1938C327.519 78.8976 327.307 78.5464 327.159 78.1401C327.011 77.7339 326.937 77.2896 326.937 76.8071V76.5405C326.937 75.9819 327.02 75.4847 327.185 75.0488C327.35 74.6087 327.574 74.2363 327.857 73.9316C328.141 73.627 328.463 73.3963 328.822 73.2397C329.182 73.0832 329.554 73.0049 329.939 73.0049C330.43 73.0049 330.854 73.0895 331.209 73.2588C331.569 73.4281 331.863 73.665 332.091 73.9697C332.32 74.2702 332.489 74.6257 332.599 75.0361C332.709 75.4424 332.764 75.8867 332.764 76.3691V76.896H327.635V75.9375H331.59V75.8486C331.573 75.5439 331.509 75.2477 331.399 74.96C331.294 74.6722 331.124 74.4352 330.892 74.249C330.659 74.0628 330.341 73.9697 329.939 73.9697C329.673 73.9697 329.427 74.0269 329.203 74.1411C328.979 74.2511 328.786 74.4162 328.625 74.6362C328.465 74.8563 328.34 75.125 328.251 75.4424C328.162 75.7598 328.118 76.1258 328.118 76.5405V76.8071C328.118 77.133 328.162 77.4398 328.251 77.7275C328.344 78.0111 328.477 78.2607 328.651 78.4766C328.829 78.6924 329.042 78.8617 329.292 78.9844C329.546 79.1071 329.834 79.1685 330.155 79.1685C330.57 79.1685 330.921 79.0838 331.209 78.9146C331.497 78.7453 331.749 78.5189 331.964 78.2354L332.675 78.8003C332.527 79.0246 332.339 79.2383 332.11 79.4414C331.882 79.6445 331.6 79.8096 331.266 79.9365C330.936 80.0635 330.545 80.127 330.092 80.127ZM335.411 70.25V80H334.23V70.25H335.411ZM341.625 78.667V70.25H342.806V80H341.727L341.625 78.667ZM337.004 76.6421V76.5088C337.004 75.984 337.068 75.508 337.195 75.0806C337.326 74.6489 337.51 74.2786 337.747 73.9697C337.988 73.6608 338.274 73.4238 338.604 73.2588C338.938 73.0895 339.311 73.0049 339.721 73.0049C340.153 73.0049 340.529 73.0811 340.851 73.2334C341.177 73.3815 341.452 73.5994 341.676 73.8872C341.905 74.1707 342.085 74.5135 342.216 74.9155C342.347 75.3175 342.438 75.7725 342.489 76.2803V76.8643C342.442 77.3678 342.351 77.8206 342.216 78.2227C342.085 78.6247 341.905 78.9674 341.676 79.251C341.452 79.5345 341.177 79.7524 340.851 79.9048C340.525 80.0529 340.144 80.127 339.708 80.127C339.306 80.127 338.938 80.0402 338.604 79.8667C338.274 79.6932 337.988 79.4499 337.747 79.1367C337.51 78.8236 337.326 78.4554 337.195 78.0322C337.068 77.6048 337.004 77.1414 337.004 76.6421ZM338.185 76.5088V76.6421C338.185 76.9849 338.219 77.3065 338.287 77.6069C338.359 77.9074 338.469 78.1719 338.617 78.4004C338.765 78.6289 338.953 78.8088 339.182 78.9399C339.41 79.0669 339.683 79.1304 340 79.1304C340.39 79.1304 340.709 79.0479 340.959 78.8828C341.213 78.7178 341.416 78.4998 341.568 78.229C341.721 77.9582 341.839 77.6641 341.924 77.3467V75.8169C341.873 75.5841 341.799 75.3599 341.702 75.144C341.609 74.924 341.486 74.7293 341.333 74.5601C341.185 74.3866 341.001 74.249 340.781 74.1475C340.565 74.0459 340.309 73.9951 340.013 73.9951C339.692 73.9951 339.414 74.0628 339.182 74.1982C338.953 74.3294 338.765 74.5114 338.617 74.7441C338.469 74.9727 338.359 75.2393 338.287 75.5439C338.219 75.8444 338.185 76.166 338.185 76.5088ZM347.853 70.25H349.033V78.667L348.932 80H347.853V70.25ZM353.673 76.5088V76.6421C353.673 77.1414 353.614 77.6048 353.496 78.0322C353.377 78.4554 353.204 78.8236 352.975 79.1367C352.747 79.4499 352.467 79.6932 352.137 79.8667C351.807 80.0402 351.428 80.127 351.001 80.127C350.565 80.127 350.182 80.0529 349.852 79.9048C349.526 79.7524 349.251 79.5345 349.027 79.251C348.803 78.9674 348.623 78.6247 348.487 78.2227C348.356 77.8206 348.265 77.3678 348.214 76.8643V76.2803C348.265 75.7725 348.356 75.3175 348.487 74.9155C348.623 74.5135 348.803 74.1707 349.027 73.8872C349.251 73.5994 349.526 73.3815 349.852 73.2334C350.178 73.0811 350.557 73.0049 350.988 73.0049C351.42 73.0049 351.803 73.0895 352.137 73.2588C352.472 73.4238 352.751 73.6608 352.975 73.9697C353.204 74.2786 353.377 74.6489 353.496 75.0806C353.614 75.508 353.673 75.984 353.673 76.5088ZM352.493 76.6421V76.5088C352.493 76.166 352.461 75.8444 352.397 75.5439C352.334 75.2393 352.232 74.9727 352.093 74.7441C351.953 74.5114 351.769 74.3294 351.541 74.1982C351.312 74.0628 351.031 73.9951 350.696 73.9951C350.4 73.9951 350.142 74.0459 349.922 74.1475C349.706 74.249 349.522 74.3866 349.37 74.5601C349.217 74.7293 349.092 74.924 348.995 75.144C348.902 75.3599 348.832 75.5841 348.786 75.8169V77.3467C348.853 77.6429 348.963 77.9285 349.116 78.2036C349.272 78.4744 349.48 78.6966 349.738 78.8701C350 79.0436 350.324 79.1304 350.709 79.1304C351.026 79.1304 351.297 79.0669 351.521 78.9399C351.75 78.8088 351.934 78.6289 352.074 78.4004C352.218 78.1719 352.323 77.9074 352.391 77.6069C352.459 77.3065 352.493 76.9849 352.493 76.6421ZM356.435 70.25V80H355.254V70.25H356.435ZM358.009 76.6421V76.4961C358.009 76.001 358.081 75.5418 358.225 75.1187C358.368 74.6912 358.576 74.321 358.847 74.0078C359.118 73.6904 359.445 73.445 359.831 73.2715C360.216 73.0938 360.647 73.0049 361.125 73.0049C361.608 73.0049 362.042 73.0938 362.427 73.2715C362.816 73.445 363.146 73.6904 363.417 74.0078C363.692 74.321 363.902 74.6912 364.045 75.1187C364.189 75.5418 364.261 76.001 364.261 76.4961V76.6421C364.261 77.1372 364.189 77.5964 364.045 78.0195C363.902 78.4427 363.692 78.813 363.417 79.1304C363.146 79.4435 362.818 79.689 362.433 79.8667C362.052 80.0402 361.621 80.127 361.138 80.127C360.656 80.127 360.222 80.0402 359.837 79.8667C359.452 79.689 359.122 79.4435 358.847 79.1304C358.576 78.813 358.368 78.4427 358.225 78.0195C358.081 77.5964 358.009 77.1372 358.009 76.6421ZM359.183 76.4961V76.6421C359.183 76.9849 359.223 77.3086 359.304 77.6133C359.384 77.9137 359.505 78.1803 359.666 78.4131C359.831 78.6458 360.036 78.8299 360.281 78.9653C360.527 79.0965 360.812 79.1621 361.138 79.1621C361.46 79.1621 361.741 79.0965 361.982 78.9653C362.228 78.8299 362.431 78.6458 362.592 78.4131C362.753 78.1803 362.873 77.9137 362.954 77.6133C363.038 77.3086 363.081 76.9849 363.081 76.6421V76.4961C363.081 76.1576 363.038 75.8381 362.954 75.5376C362.873 75.2329 362.75 74.9642 362.585 74.7314C362.425 74.4945 362.222 74.3083 361.976 74.1729C361.735 74.0374 361.451 73.9697 361.125 73.9697C360.804 73.9697 360.52 74.0374 360.275 74.1729C360.034 74.3083 359.831 74.4945 359.666 74.7314C359.505 74.9642 359.384 75.2329 359.304 75.5376C359.223 75.8381 359.183 76.1576 359.183 76.4961ZM368.482 79.1621C368.762 79.1621 369.02 79.105 369.257 78.9907C369.494 78.8765 369.688 78.7199 369.841 78.521C369.993 78.3179 370.08 78.0872 370.101 77.8291H371.218C371.197 78.2354 371.06 78.6141 370.806 78.9653C370.556 79.3123 370.228 79.5938 369.822 79.8096C369.416 80.0212 368.969 80.127 368.482 80.127C367.966 80.127 367.515 80.036 367.13 79.854C366.75 79.672 366.432 79.4224 366.178 79.105C365.929 78.7876 365.74 78.4237 365.613 78.0132C365.491 77.5985 365.429 77.1605 365.429 76.6992V76.4326C365.429 75.9714 365.491 75.5355 365.613 75.125C365.74 74.7103 365.929 74.3442 366.178 74.0269C366.432 73.7095 366.75 73.4598 367.13 73.2778C367.515 73.0959 367.966 73.0049 368.482 73.0049C369.02 73.0049 369.49 73.1149 369.892 73.335C370.294 73.5508 370.609 73.847 370.837 74.2236C371.07 74.596 371.197 75.0192 371.218 75.4932H370.101C370.08 75.2096 370 74.9536 369.86 74.7251C369.724 74.4966 369.538 74.3146 369.301 74.1792C369.069 74.0396 368.796 73.9697 368.482 73.9697C368.123 73.9697 367.82 74.0417 367.575 74.1855C367.333 74.3252 367.141 74.5156 366.997 74.7568C366.857 74.9938 366.756 75.2583 366.692 75.5503C366.633 75.8381 366.604 76.1322 366.604 76.4326V76.6992C366.604 76.9997 366.633 77.2959 366.692 77.5879C366.752 77.8799 366.851 78.1444 366.991 78.3813C367.135 78.6183 367.327 78.8088 367.568 78.9526C367.814 79.0923 368.118 79.1621 368.482 79.1621ZM373.719 70.25V80H372.539V70.25H373.719ZM377.915 73.1318L374.919 76.3374L373.243 78.0767L373.148 76.8262L374.348 75.3916L376.48 73.1318H377.915ZM376.842 80L374.392 76.7246L375.001 75.6772L378.226 80H376.842ZM383.526 70.25V80H382.352V70.25H383.526ZM383.247 76.3057L382.758 76.2866C382.763 75.8169 382.832 75.3831 382.968 74.9854C383.103 74.5833 383.294 74.2342 383.539 73.938C383.785 73.6418 384.076 73.4132 384.415 73.2524C384.758 73.0874 385.137 73.0049 385.551 73.0049C385.89 73.0049 386.194 73.0514 386.465 73.1445C386.736 73.2334 386.967 73.3773 387.157 73.5762C387.352 73.7751 387.5 74.0332 387.602 74.3506C387.703 74.6637 387.754 75.0467 387.754 75.4995V80H386.573V75.4868C386.573 75.1271 386.52 74.8394 386.415 74.6235C386.309 74.4035 386.154 74.2448 385.951 74.1475C385.748 74.0459 385.498 73.9951 385.202 73.9951C384.91 73.9951 384.644 74.0565 384.402 74.1792C384.165 74.3019 383.96 74.4712 383.787 74.687C383.617 74.9028 383.484 75.1504 383.387 75.4297C383.294 75.7048 383.247 75.9967 383.247 76.3057ZM392.362 80.127C391.884 80.127 391.45 80.0465 391.061 79.8857C390.676 79.7207 390.344 79.4901 390.064 79.1938C389.789 78.8976 389.578 78.5464 389.43 78.1401C389.282 77.7339 389.208 77.2896 389.208 76.8071V76.5405C389.208 75.9819 389.29 75.4847 389.455 75.0488C389.62 74.6087 389.844 74.2363 390.128 73.9316C390.411 73.627 390.733 73.3963 391.093 73.2397C391.452 73.0832 391.825 73.0049 392.21 73.0049C392.701 73.0049 393.124 73.0895 393.479 73.2588C393.839 73.4281 394.133 73.665 394.362 73.9697C394.59 74.2702 394.76 74.6257 394.87 75.0361C394.98 75.4424 395.035 75.8867 395.035 76.3691V76.896H389.906V75.9375H393.86V75.8486C393.843 75.5439 393.78 75.2477 393.67 74.96C393.564 74.6722 393.395 74.4352 393.162 74.249C392.929 74.0628 392.612 73.9697 392.21 73.9697C391.943 73.9697 391.698 74.0269 391.474 74.1411C391.249 74.2511 391.057 74.4162 390.896 74.6362C390.735 74.8563 390.61 75.125 390.521 75.4424C390.433 75.7598 390.388 76.1258 390.388 76.5405V76.8071C390.388 77.133 390.433 77.4398 390.521 77.7275C390.615 78.0111 390.748 78.2607 390.921 78.4766C391.099 78.6924 391.313 78.8617 391.562 78.9844C391.816 79.1071 392.104 79.1685 392.426 79.1685C392.84 79.1685 393.192 79.0838 393.479 78.9146C393.767 78.7453 394.019 78.5189 394.235 78.2354L394.946 78.8003C394.798 79.0246 394.609 79.2383 394.381 79.4414C394.152 79.6445 393.871 79.8096 393.537 79.9365C393.207 80.0635 392.815 80.127 392.362 80.127ZM397.58 74.4521V82.6406H396.399V73.1318H397.479L397.58 74.4521ZM402.208 76.5088V76.6421C402.208 77.1414 402.148 77.6048 402.03 78.0322C401.911 78.4554 401.738 78.8236 401.509 79.1367C401.285 79.4499 401.008 79.6932 400.678 79.8667C400.348 80.0402 399.969 80.127 399.542 80.127C399.106 80.127 398.721 80.055 398.386 79.9111C398.052 79.7673 397.768 79.5578 397.536 79.2827C397.303 79.0076 397.117 78.6776 396.977 78.2925C396.842 77.9074 396.749 77.4736 396.698 76.9912V76.2803C396.749 75.7725 396.844 75.3175 396.983 74.9155C397.123 74.5135 397.307 74.1707 397.536 73.8872C397.768 73.5994 398.05 73.3815 398.38 73.2334C398.71 73.0811 399.091 73.0049 399.522 73.0049C399.954 73.0049 400.337 73.0895 400.671 73.2588C401.006 73.4238 401.287 73.6608 401.516 73.9697C401.744 74.2786 401.916 74.6489 402.03 75.0806C402.148 75.508 402.208 75.984 402.208 76.5088ZM401.027 76.6421V76.5088C401.027 76.166 400.991 75.8444 400.919 75.5439C400.847 75.2393 400.735 74.9727 400.583 74.7441C400.434 74.5114 400.244 74.3294 400.011 74.1982C399.778 74.0628 399.501 73.9951 399.18 73.9951C398.883 73.9951 398.625 74.0459 398.405 74.1475C398.189 74.249 398.005 74.3866 397.853 74.5601C397.701 74.7293 397.576 74.924 397.479 75.144C397.385 75.3599 397.316 75.5841 397.269 75.8169V77.4609C397.354 77.7572 397.472 78.0365 397.625 78.2988C397.777 78.557 397.98 78.7664 398.234 78.9272C398.488 79.0838 398.807 79.1621 399.192 79.1621C399.51 79.1621 399.783 79.0965 400.011 78.9653C400.244 78.8299 400.434 78.6458 400.583 78.4131C400.735 78.1803 400.847 77.9137 400.919 77.6133C400.991 77.3086 401.027 76.9849 401.027 76.6421ZM409.806 73.1318V74.0332H406.092V73.1318H409.806ZM407.349 71.4624H408.523V78.2988C408.523 78.5316 408.559 78.7072 408.631 78.8257C408.703 78.9442 408.796 79.0225 408.911 79.0605C409.025 79.0986 409.148 79.1177 409.279 79.1177C409.376 79.1177 409.478 79.1092 409.583 79.0923C409.694 79.0711 409.776 79.0542 409.831 79.0415L409.837 80C409.744 80.0296 409.622 80.0571 409.469 80.0825C409.321 80.1121 409.141 80.127 408.93 80.127C408.642 80.127 408.377 80.0698 408.136 79.9556C407.895 79.8413 407.702 79.6509 407.559 79.3843C407.419 79.1134 407.349 78.7495 407.349 78.2925V71.4624ZM414.033 80.127C413.555 80.127 413.121 80.0465 412.732 79.8857C412.347 79.7207 412.015 79.4901 411.735 79.1938C411.46 78.8976 411.249 78.5464 411.101 78.1401C410.952 77.7339 410.878 77.2896 410.878 76.8071V76.5405C410.878 75.9819 410.961 75.4847 411.126 75.0488C411.291 74.6087 411.515 74.2363 411.799 73.9316C412.082 73.627 412.404 73.3963 412.764 73.2397C413.123 73.0832 413.496 73.0049 413.881 73.0049C414.372 73.0049 414.795 73.0895 415.15 73.2588C415.51 73.4281 415.804 73.665 416.033 73.9697C416.261 74.2702 416.431 74.6257 416.541 75.0361C416.651 75.4424 416.706 75.8867 416.706 76.3691V76.896H411.577V75.9375H415.531V75.8486C415.514 75.5439 415.451 75.2477 415.341 74.96C415.235 74.6722 415.066 74.4352 414.833 74.249C414.6 74.0628 414.283 73.9697 413.881 73.9697C413.614 73.9697 413.369 74.0269 413.145 74.1411C412.92 74.2511 412.728 74.4162 412.567 74.6362C412.406 74.8563 412.281 75.125 412.192 75.4424C412.104 75.7598 412.059 76.1258 412.059 76.5405V76.8071C412.059 77.133 412.104 77.4398 412.192 77.7275C412.285 78.0111 412.419 78.2607 412.592 78.4766C412.77 78.6924 412.984 78.8617 413.233 78.9844C413.487 79.1071 413.775 79.1685 414.097 79.1685C414.511 79.1685 414.863 79.0838 415.15 78.9146C415.438 78.7453 415.69 78.5189 415.906 78.2354L416.617 78.8003C416.469 79.0246 416.28 79.2383 416.052 79.4414C415.823 79.6445 415.542 79.8096 415.208 79.9365C414.877 80.0635 414.486 80.127 414.033 80.127ZM418.87 73.1318L420.375 75.6328L421.898 73.1318H423.275L421.028 76.5215L423.345 80H421.987L420.4 77.4229L418.813 80H417.448L419.759 76.5215L417.518 73.1318H418.87ZM427.401 73.1318V74.0332H423.688V73.1318H427.401ZM424.945 71.4624H426.119V78.2988C426.119 78.5316 426.155 78.7072 426.227 78.8257C426.299 78.9442 426.392 79.0225 426.506 79.0605C426.621 79.0986 426.743 79.1177 426.875 79.1177C426.972 79.1177 427.073 79.1092 427.179 79.0923C427.289 79.0711 427.372 79.0542 427.427 79.0415L427.433 80C427.34 80.0296 427.217 80.0571 427.065 80.0825C426.917 80.1121 426.737 80.127 426.525 80.127C426.238 80.127 425.973 80.0698 425.732 79.9556C425.491 79.8413 425.298 79.6509 425.154 79.3843C425.015 79.1134 424.945 78.7495 424.945 78.2925V71.4624Z" fill="#737373"/>
<path d="M553.276 76C553.276 74.5262 554.471 73.375 556 73.375C557.504 73.375 558.724 74.5262 558.724 76C558.724 77.4492 557.504 78.625 556 78.625C554.471 78.625 553.276 77.4492 553.276 76ZM556 74.6875C555.248 74.6875 554.638 75.2754 554.638 76C554.638 76.7246 555.248 77.3125 556 77.3125C556.752 77.3125 557.362 76.7246 557.362 76C557.362 75.2754 556.752 74.6875 556 74.6875ZM557.053 69C557.683 69 558.231 69.4154 558.378 70.0046L558.6 70.8925C558.841 71.0059 559.071 71.1347 559.289 71.2772L560.2 71.0188C560.804 70.8473 561.451 71.0964 561.766 71.6214L562.819 73.3777C563.131 73.9027 563.032 74.5672 562.578 74.9855L561.888 75.5926C561.897 75.743 561.903 75.8715 561.903 76C561.903 76.1285 561.897 76.257 561.888 76.3828L562.578 77.0145C563.032 77.4328 563.131 78.0973 562.819 78.6223L561.766 80.3777C561.451 80.9027 560.804 81.1516 560.2 80.982L559.289 80.7223C559.071 80.8645 558.841 80.993 558.6 81.1078L558.378 81.9965C558.231 82.5844 557.683 83 557.053 83H554.947C554.317 83 553.77 82.5844 553.622 81.9965L553.401 81.1078C553.16 80.993 552.93 80.8645 552.711 80.7223L551.775 80.982C551.197 81.1516 550.55 80.9027 550.235 80.3777L549.183 78.6223C548.868 78.0973 548.967 77.4328 549.423 77.0145L550.111 76.3828C550.102 76.257 550.098 76.1285 550.098 75.9754C550.098 75.8715 550.102 75.743 550.111 75.5926L549.423 74.9855C548.967 74.5672 548.868 73.9027 549.183 73.3777L550.235 71.6214C550.55 71.0964 551.197 70.8473 551.775 71.0188L552.711 71.2772C552.93 71.1347 553.16 71.0059 553.401 70.8925L553.622 70.0046C553.77 69.4151 554.317 69 554.947 69L557.053 69ZM554.567 71.8328L554.249 71.9613C553.889 72.1063 553.554 72.2949 553.25 72.5191L552.975 72.7215L551.415 72.2785L550.362 74.034L551.54 75.1141L551.496 75.4422C551.472 75.6254 551.46 75.8113 551.46 76C551.46 76.1887 551.472 76.3746 551.496 76.5578L551.54 76.8859L550.362 77.966L551.415 79.7215L552.975 79.2785L553.25 79.4809C553.554 79.7051 553.889 79.8938 554.249 80.0387L554.567 80.1672L554.947 81.6875H557.053L557.433 80.1672L557.751 80.0387C558.111 79.8938 558.446 79.7051 558.75 79.4809L559.025 79.2785L560.586 79.7215L561.639 77.966L560.461 76.8859L560.504 76.5578C560.529 76.3746 560.541 76.1887 560.541 76C560.541 75.8113 560.529 75.6254 560.504 75.4422L560.461 75.1141L561.639 74.034L560.586 72.2785L559.025 72.7215L558.75 72.5191C558.446 72.2949 558.111 72.1063 557.751 71.9613L557.433 71.8328L557.053 70.3125H554.947L554.567 71.8328Z" fill="#1A1A1A"/>
</g>
<rect x="39.5" y="130.5" width="561" height="73" rx="8.5" fill="white"/>
<path d="M69 163.333C69 162.321 69.7834 161.5 70.75 161.5H81.25C82.2152 161.5 83 162.321 83 163.333V170.667C83 171.678 82.2152 172.5 81.25 172.5H70.75C69.7834 172.5 69 171.678 69 170.667V163.333ZM70.3125 163.333V163.966L75.0293 168.023C75.5926 168.51 76.4074 168.51 76.9707 168.023L81.6875 163.966V163.308C81.6875 163.081 81.4906 162.849 81.25 162.849H70.75C70.5083 162.849 70.3125 163.081 70.3125 163.308V163.333ZM70.3125 165.745V170.667C70.3125 170.919 70.5083 171.125 70.75 171.125H81.25C81.4906 171.125 81.6875 170.919 81.6875 170.667V165.745L77.8047 169.085C76.7547 169.988 75.2453 169.988 74.1707 169.085L70.3125 165.745Z" fill="#1A1A1A"/>
<path d="M98.9224 161.336V172H97.084V161.336H98.9224ZM103.273 166.001V167.459H98.4536V166.001H103.273ZM103.881 161.336V162.801H98.4536V161.336H103.881ZM107.06 164.075V172H105.287V164.075H107.06ZM105.17 161.995C105.17 161.727 105.258 161.504 105.434 161.329C105.614 161.148 105.863 161.058 106.181 161.058C106.493 161.058 106.74 161.148 106.92 161.329C107.101 161.504 107.191 161.727 107.191 161.995C107.191 162.259 107.101 162.479 106.92 162.654C106.74 162.83 106.493 162.918 106.181 162.918C105.863 162.918 105.614 162.83 105.434 162.654C105.258 162.479 105.17 162.259 105.17 161.995ZM112.487 172.146C111.901 172.146 111.371 172.051 110.897 171.861C110.429 171.666 110.028 171.395 109.696 171.048C109.369 170.701 109.118 170.293 108.942 169.825C108.766 169.356 108.678 168.851 108.678 168.309V168.016C108.678 167.396 108.769 166.834 108.949 166.331C109.13 165.828 109.381 165.398 109.704 165.042C110.026 164.681 110.407 164.405 110.846 164.214C111.286 164.024 111.762 163.929 112.274 163.929C112.841 163.929 113.336 164.024 113.761 164.214C114.186 164.405 114.538 164.673 114.816 165.02C115.099 165.362 115.309 165.77 115.446 166.243C115.587 166.717 115.658 167.239 115.658 167.811V168.565H109.535V167.298H113.915V167.159C113.905 166.841 113.842 166.543 113.725 166.265C113.612 165.987 113.439 165.762 113.205 165.591C112.97 165.42 112.658 165.335 112.267 165.335C111.974 165.335 111.713 165.398 111.483 165.525C111.259 165.647 111.071 165.826 110.919 166.06C110.768 166.294 110.651 166.578 110.568 166.91C110.49 167.237 110.451 167.605 110.451 168.016V168.309C110.451 168.655 110.497 168.978 110.59 169.275C110.688 169.568 110.829 169.825 111.015 170.044C111.2 170.264 111.425 170.438 111.688 170.564C111.952 170.687 112.252 170.748 112.589 170.748C113.014 170.748 113.393 170.662 113.725 170.491C114.057 170.32 114.345 170.079 114.589 169.766L115.519 170.667C115.348 170.916 115.126 171.155 114.853 171.385C114.579 171.609 114.245 171.792 113.849 171.934C113.458 172.076 113.004 172.146 112.487 172.146ZM118.925 160.75V172H117.152V160.75H118.925ZM125.692 170.359V160.75H127.465V172H125.861L125.692 170.359ZM120.536 168.125V167.972C120.536 167.371 120.607 166.824 120.749 166.331C120.89 165.833 121.095 165.406 121.364 165.049C121.632 164.688 121.959 164.412 122.345 164.222C122.731 164.026 123.166 163.929 123.649 163.929C124.127 163.929 124.547 164.021 124.909 164.207C125.27 164.393 125.578 164.659 125.832 165.005C126.085 165.347 126.288 165.757 126.439 166.236C126.591 166.709 126.698 167.237 126.762 167.818V168.309C126.698 168.875 126.591 169.393 126.439 169.861C126.288 170.33 126.085 170.735 125.832 171.077C125.578 171.419 125.268 171.683 124.901 171.868C124.54 172.054 124.118 172.146 123.634 172.146C123.156 172.146 122.724 172.046 122.338 171.846C121.957 171.646 121.632 171.365 121.364 171.004C121.095 170.643 120.89 170.218 120.749 169.729C120.607 169.236 120.536 168.702 120.536 168.125ZM122.301 167.972V168.125C122.301 168.487 122.333 168.824 122.396 169.136C122.465 169.449 122.57 169.725 122.711 169.964C122.853 170.198 123.036 170.384 123.261 170.521C123.49 170.652 123.764 170.718 124.081 170.718C124.481 170.718 124.811 170.63 125.07 170.455C125.329 170.279 125.531 170.042 125.678 169.744C125.829 169.441 125.932 169.104 125.985 168.733V167.408C125.956 167.12 125.895 166.851 125.802 166.602C125.714 166.353 125.595 166.136 125.443 165.95C125.292 165.76 125.104 165.613 124.879 165.511C124.66 165.403 124.398 165.35 124.096 165.35C123.773 165.35 123.5 165.418 123.275 165.555C123.051 165.691 122.865 165.879 122.719 166.119C122.577 166.358 122.472 166.636 122.404 166.954C122.335 167.271 122.301 167.61 122.301 167.972ZM133.053 160.75H134.818V170.308L134.65 172H133.053V160.75ZM139.989 167.964V168.118C139.989 168.704 139.923 169.244 139.792 169.737C139.665 170.225 139.469 170.65 139.206 171.011C138.947 171.373 138.625 171.653 138.239 171.854C137.858 172.049 137.416 172.146 136.913 172.146C136.42 172.146 135.99 172.054 135.624 171.868C135.258 171.683 134.95 171.419 134.701 171.077C134.457 170.735 134.259 170.328 134.108 169.854C133.957 169.38 133.849 168.858 133.786 168.287V167.796C133.849 167.22 133.957 166.697 134.108 166.229C134.259 165.755 134.457 165.347 134.701 165.005C134.95 164.659 135.255 164.393 135.617 164.207C135.983 164.021 136.41 163.929 136.898 163.929C137.406 163.929 137.853 164.026 138.239 164.222C138.629 164.417 138.954 164.695 139.213 165.057C139.472 165.413 139.665 165.838 139.792 166.331C139.923 166.824 139.989 167.369 139.989 167.964ZM138.224 168.118V167.964C138.224 167.608 138.195 167.273 138.136 166.961C138.078 166.644 137.98 166.365 137.843 166.126C137.711 165.887 137.531 165.699 137.301 165.562C137.077 165.42 136.796 165.35 136.459 165.35C136.146 165.35 135.878 165.403 135.653 165.511C135.429 165.618 135.241 165.765 135.089 165.95C134.938 166.136 134.818 166.351 134.73 166.595C134.647 166.839 134.591 167.103 134.562 167.386V168.711C134.606 169.078 134.699 169.415 134.84 169.722C134.987 170.025 135.192 170.269 135.456 170.455C135.719 170.635 136.059 170.726 136.474 170.726C136.801 170.726 137.077 170.66 137.301 170.528C137.526 170.396 137.704 170.213 137.836 169.979C137.973 169.739 138.07 169.461 138.129 169.144C138.192 168.826 138.224 168.484 138.224 168.118ZM143.373 160.75V172H141.601V160.75H143.373ZM144.97 168.125V167.957C144.97 167.386 145.053 166.856 145.219 166.368C145.385 165.875 145.624 165.447 145.937 165.086C146.254 164.72 146.64 164.437 147.094 164.236C147.553 164.031 148.07 163.929 148.646 163.929C149.228 163.929 149.745 164.031 150.199 164.236C150.658 164.437 151.046 164.72 151.364 165.086C151.681 165.447 151.923 165.875 152.089 166.368C152.255 166.856 152.338 167.386 152.338 167.957V168.125C152.338 168.697 152.255 169.227 152.089 169.715C151.923 170.203 151.681 170.63 151.364 170.997C151.046 171.358 150.661 171.641 150.207 171.846C149.752 172.046 149.237 172.146 148.661 172.146C148.08 172.146 147.56 172.046 147.101 171.846C146.647 171.641 146.261 171.358 145.944 170.997C145.626 170.63 145.385 170.203 145.219 169.715C145.053 169.227 144.97 168.697 144.97 168.125ZM146.735 167.957V168.125C146.735 168.482 146.771 168.819 146.845 169.136C146.918 169.454 147.033 169.732 147.189 169.971C147.345 170.21 147.545 170.398 147.79 170.535C148.034 170.672 148.324 170.74 148.661 170.74C148.988 170.74 149.271 170.672 149.511 170.535C149.755 170.398 149.955 170.21 150.111 169.971C150.268 169.732 150.382 169.454 150.456 169.136C150.534 168.819 150.573 168.482 150.573 168.125V167.957C150.573 167.605 150.534 167.273 150.456 166.961C150.382 166.644 150.265 166.363 150.104 166.119C149.948 165.875 149.748 165.684 149.503 165.547C149.264 165.406 148.979 165.335 148.646 165.335C148.314 165.335 148.026 165.406 147.782 165.547C147.543 165.684 147.345 165.875 147.189 166.119C147.033 166.363 146.918 166.644 146.845 166.961C146.771 167.273 146.735 167.605 146.735 167.957ZM157.055 170.74C157.343 170.74 157.602 170.684 157.831 170.572C158.065 170.455 158.253 170.293 158.395 170.088C158.542 169.883 158.622 169.646 158.637 169.378H160.299C160.29 169.891 160.138 170.357 159.845 170.777C159.552 171.197 159.164 171.531 158.681 171.78C158.197 172.024 157.663 172.146 157.077 172.146C156.471 172.146 155.944 172.044 155.495 171.839C155.045 171.629 154.672 171.341 154.374 170.975C154.076 170.608 153.852 170.186 153.7 169.708C153.554 169.229 153.48 168.716 153.48 168.169V167.913C153.48 167.366 153.554 166.854 153.7 166.375C153.852 165.892 154.076 165.467 154.374 165.101C154.672 164.734 155.045 164.449 155.495 164.244C155.944 164.034 156.469 163.929 157.069 163.929C157.704 163.929 158.261 164.056 158.739 164.31C159.218 164.559 159.594 164.908 159.867 165.357C160.146 165.801 160.29 166.319 160.299 166.91H158.637C158.622 166.617 158.549 166.353 158.417 166.119C158.29 165.879 158.109 165.689 157.875 165.547C157.646 165.406 157.37 165.335 157.047 165.335C156.691 165.335 156.396 165.408 156.161 165.555C155.927 165.696 155.744 165.892 155.612 166.141C155.48 166.385 155.385 166.661 155.326 166.968C155.272 167.271 155.246 167.586 155.246 167.913V168.169C155.246 168.497 155.272 168.814 155.326 169.122C155.38 169.429 155.473 169.705 155.604 169.949C155.741 170.188 155.927 170.381 156.161 170.528C156.396 170.669 156.693 170.74 157.055 170.74ZM163.434 160.75V172H161.662V160.75H163.434ZM168.356 164.075L164.906 167.898L163.017 169.832L162.555 168.338L163.983 166.573L166.225 164.075H168.356ZM166.605 172L164.035 168.279L165.148 167.042L168.649 172H166.605ZM175.102 160.75V172H173.329V160.75H175.102ZM181.503 170.411V166.631C181.503 166.348 181.452 166.104 181.349 165.899C181.247 165.694 181.09 165.535 180.88 165.423C180.675 165.311 180.417 165.254 180.104 165.254C179.816 165.254 179.567 165.303 179.357 165.401C179.147 165.499 178.983 165.63 178.866 165.796C178.749 165.962 178.69 166.15 178.69 166.36H176.933C176.933 166.048 177.008 165.745 177.16 165.452C177.311 165.159 177.531 164.898 177.819 164.668C178.107 164.439 178.451 164.258 178.852 164.126C179.252 163.995 179.701 163.929 180.199 163.929C180.795 163.929 181.322 164.029 181.781 164.229C182.245 164.429 182.609 164.732 182.873 165.137C183.141 165.538 183.275 166.041 183.275 166.646V170.169C183.275 170.53 183.3 170.855 183.349 171.143C183.402 171.426 183.478 171.673 183.576 171.883V172H181.767C181.684 171.81 181.618 171.568 181.569 171.275C181.525 170.977 181.503 170.689 181.503 170.411ZM181.759 167.181L181.774 168.272H180.507C180.18 168.272 179.892 168.304 179.643 168.367C179.394 168.426 179.186 168.514 179.02 168.631C178.854 168.748 178.729 168.89 178.646 169.056C178.563 169.222 178.522 169.41 178.522 169.62C178.522 169.83 178.571 170.022 178.668 170.198C178.766 170.369 178.908 170.503 179.093 170.601C179.284 170.699 179.513 170.748 179.782 170.748C180.143 170.748 180.458 170.674 180.727 170.528C181 170.376 181.215 170.193 181.371 169.979C181.527 169.759 181.61 169.551 181.62 169.356L182.191 170.14C182.133 170.34 182.033 170.555 181.891 170.784C181.75 171.014 181.564 171.233 181.334 171.443C181.11 171.648 180.839 171.817 180.521 171.949C180.209 172.081 179.848 172.146 179.438 172.146C178.92 172.146 178.458 172.044 178.053 171.839C177.648 171.629 177.331 171.348 177.101 170.997C176.872 170.64 176.757 170.237 176.757 169.788C176.757 169.368 176.835 168.997 176.991 168.675C177.152 168.348 177.387 168.074 177.694 167.854C178.007 167.635 178.388 167.469 178.837 167.356C179.286 167.239 179.799 167.181 180.375 167.181H181.759ZM185.128 160.75H186.894V170.308L186.725 172H185.128V160.75ZM192.064 167.964V168.118C192.064 168.704 191.999 169.244 191.867 169.737C191.74 170.225 191.544 170.65 191.281 171.011C191.022 171.373 190.7 171.653 190.314 171.854C189.933 172.049 189.491 172.146 188.988 172.146C188.495 172.146 188.065 172.054 187.699 171.868C187.333 171.683 187.025 171.419 186.776 171.077C186.532 170.735 186.334 170.328 186.183 169.854C186.032 169.38 185.924 168.858 185.861 168.287V167.796C185.924 167.22 186.032 166.697 186.183 166.229C186.334 165.755 186.532 165.347 186.776 165.005C187.025 164.659 187.331 164.393 187.692 164.207C188.058 164.021 188.485 163.929 188.974 163.929C189.481 163.929 189.928 164.026 190.314 164.222C190.705 164.417 191.029 164.695 191.288 165.057C191.547 165.413 191.74 165.838 191.867 166.331C191.999 166.824 192.064 167.369 192.064 167.964ZM190.299 168.118V167.964C190.299 167.608 190.27 167.273 190.211 166.961C190.153 166.644 190.055 166.365 189.918 166.126C189.787 165.887 189.606 165.699 189.376 165.562C189.152 165.42 188.871 165.35 188.534 165.35C188.222 165.35 187.953 165.403 187.729 165.511C187.504 165.618 187.316 165.765 187.165 165.95C187.013 166.136 186.894 166.351 186.806 166.595C186.723 166.839 186.667 167.103 186.637 167.386V168.711C186.681 169.078 186.774 169.415 186.916 169.722C187.062 170.025 187.267 170.269 187.531 170.455C187.794 170.635 188.134 170.726 188.549 170.726C188.876 170.726 189.152 170.66 189.376 170.528C189.601 170.396 189.779 170.213 189.911 169.979C190.048 169.739 190.146 169.461 190.204 169.144C190.268 168.826 190.299 168.484 190.299 168.118ZM197.052 172.146C196.466 172.146 195.937 172.051 195.463 171.861C194.994 171.666 194.594 171.395 194.262 171.048C193.935 170.701 193.683 170.293 193.507 169.825C193.332 169.356 193.244 168.851 193.244 168.309V168.016C193.244 167.396 193.334 166.834 193.515 166.331C193.695 165.828 193.947 165.398 194.269 165.042C194.591 164.681 194.972 164.405 195.412 164.214C195.851 164.024 196.327 163.929 196.84 163.929C197.406 163.929 197.902 164.024 198.327 164.214C198.751 164.405 199.103 164.673 199.381 165.02C199.665 165.362 199.875 165.77 200.011 166.243C200.153 166.717 200.224 167.239 200.224 167.811V168.565H194.101V167.298H198.48V167.159C198.471 166.841 198.407 166.543 198.29 166.265C198.178 165.987 198.004 165.762 197.77 165.591C197.536 165.42 197.223 165.335 196.833 165.335C196.54 165.335 196.278 165.398 196.049 165.525C195.824 165.647 195.636 165.826 195.485 166.06C195.333 166.294 195.216 166.578 195.133 166.91C195.055 167.237 195.016 167.605 195.016 168.016V168.309C195.016 168.655 195.062 168.978 195.155 169.275C195.253 169.568 195.395 169.825 195.58 170.044C195.766 170.264 195.99 170.438 196.254 170.564C196.518 170.687 196.818 170.748 197.155 170.748C197.58 170.748 197.958 170.662 198.29 170.491C198.622 170.32 198.91 170.079 199.154 169.766L200.084 170.667C199.914 170.916 199.691 171.155 199.418 171.385C199.145 171.609 198.81 171.792 198.415 171.934C198.024 172.076 197.57 172.146 197.052 172.146ZM203.49 160.75V172H201.718V160.75H203.49Z" fill="#1A1A1A"/>
<path d="M316.856 161.758V171H315.631V161.758H316.856ZM320.728 165.916V166.918H316.589V165.916H320.728ZM321.356 161.758V162.761H316.589V161.758H321.356ZM323.915 164.132V171H322.734V164.132H323.915ZM322.645 162.31C322.645 162.12 322.702 161.959 322.816 161.828C322.935 161.696 323.108 161.631 323.337 161.631C323.561 161.631 323.733 161.696 323.851 161.828C323.974 161.959 324.035 162.12 324.035 162.31C324.035 162.492 323.974 162.649 323.851 162.78C323.733 162.907 323.561 162.97 323.337 162.97C323.108 162.97 322.935 162.907 322.816 162.78C322.702 162.649 322.645 162.492 322.645 162.31ZM328.65 171.127C328.172 171.127 327.738 171.047 327.349 170.886C326.964 170.721 326.631 170.49 326.352 170.194C326.077 169.898 325.865 169.546 325.717 169.14C325.569 168.734 325.495 168.29 325.495 167.807V167.541C325.495 166.982 325.578 166.485 325.743 166.049C325.908 165.609 326.132 165.236 326.416 164.932C326.699 164.627 327.021 164.396 327.38 164.24C327.74 164.083 328.112 164.005 328.498 164.005C328.988 164.005 329.412 164.09 329.767 164.259C330.127 164.428 330.421 164.665 330.649 164.97C330.878 165.27 331.047 165.626 331.157 166.036C331.267 166.442 331.322 166.887 331.322 167.369V167.896H326.193V166.938H330.148V166.849C330.131 166.544 330.068 166.248 329.958 165.96C329.852 165.672 329.682 165.435 329.45 165.249C329.217 165.063 328.9 164.97 328.498 164.97C328.231 164.97 327.986 165.027 327.761 165.141C327.537 165.251 327.344 165.416 327.184 165.636C327.023 165.856 326.898 166.125 326.809 166.442C326.72 166.76 326.676 167.126 326.676 167.541V167.807C326.676 168.133 326.72 168.44 326.809 168.728C326.902 169.011 327.035 169.261 327.209 169.477C327.387 169.692 327.6 169.862 327.85 169.984C328.104 170.107 328.392 170.168 328.713 170.168C329.128 170.168 329.479 170.084 329.767 169.915C330.055 169.745 330.307 169.519 330.522 169.235L331.233 169.8C331.085 170.025 330.897 170.238 330.668 170.441C330.44 170.645 330.159 170.81 329.824 170.937C329.494 171.063 329.103 171.127 328.65 171.127ZM333.969 161.25V171H332.789V161.25H333.969ZM340.184 169.667V161.25H341.364V171H340.285L340.184 169.667ZM335.562 167.642V167.509C335.562 166.984 335.626 166.508 335.753 166.081C335.884 165.649 336.068 165.279 336.305 164.97C336.546 164.661 336.832 164.424 337.162 164.259C337.496 164.09 337.869 164.005 338.279 164.005C338.711 164.005 339.088 164.081 339.409 164.233C339.735 164.382 340.01 164.599 340.234 164.887C340.463 165.171 340.643 165.514 340.774 165.916C340.905 166.318 340.996 166.772 341.047 167.28V167.864C341 168.368 340.909 168.821 340.774 169.223C340.643 169.625 340.463 169.967 340.234 170.251C340.01 170.535 339.735 170.752 339.409 170.905C339.083 171.053 338.702 171.127 338.267 171.127C337.865 171.127 337.496 171.04 337.162 170.867C336.832 170.693 336.546 170.45 336.305 170.137C336.068 169.824 335.884 169.455 335.753 169.032C335.626 168.605 335.562 168.141 335.562 167.642ZM336.743 167.509V167.642C336.743 167.985 336.777 168.306 336.845 168.607C336.917 168.907 337.027 169.172 337.175 169.4C337.323 169.629 337.511 169.809 337.74 169.94C337.968 170.067 338.241 170.13 338.559 170.13C338.948 170.13 339.267 170.048 339.517 169.883C339.771 169.718 339.974 169.5 340.126 169.229C340.279 168.958 340.397 168.664 340.482 168.347V166.817C340.431 166.584 340.357 166.36 340.26 166.144C340.167 165.924 340.044 165.729 339.892 165.56C339.743 165.387 339.559 165.249 339.339 165.147C339.124 165.046 338.868 164.995 338.571 164.995C338.25 164.995 337.972 165.063 337.74 165.198C337.511 165.329 337.323 165.511 337.175 165.744C337.027 165.973 336.917 166.239 336.845 166.544C336.777 166.844 336.743 167.166 336.743 167.509ZM346.411 161.25H347.591V169.667L347.49 171H346.411V161.25ZM352.231 167.509V167.642C352.231 168.141 352.172 168.605 352.054 169.032C351.935 169.455 351.762 169.824 351.533 170.137C351.305 170.45 351.025 170.693 350.695 170.867C350.365 171.04 349.986 171.127 349.559 171.127C349.123 171.127 348.74 171.053 348.41 170.905C348.084 170.752 347.809 170.535 347.585 170.251C347.361 169.967 347.181 169.625 347.045 169.223C346.914 168.821 346.823 168.368 346.772 167.864V167.28C346.823 166.772 346.914 166.318 347.045 165.916C347.181 165.514 347.361 165.171 347.585 164.887C347.809 164.599 348.084 164.382 348.41 164.233C348.736 164.081 349.115 164.005 349.546 164.005C349.978 164.005 350.361 164.09 350.695 164.259C351.03 164.424 351.309 164.661 351.533 164.97C351.762 165.279 351.935 165.649 352.054 166.081C352.172 166.508 352.231 166.984 352.231 167.509ZM351.051 167.642V167.509C351.051 167.166 351.019 166.844 350.956 166.544C350.892 166.239 350.791 165.973 350.651 165.744C350.511 165.511 350.327 165.329 350.099 165.198C349.87 165.063 349.589 164.995 349.254 164.995C348.958 164.995 348.7 165.046 348.48 165.147C348.264 165.249 348.08 165.387 347.928 165.56C347.775 165.729 347.651 165.924 347.553 166.144C347.46 166.36 347.39 166.584 347.344 166.817V168.347C347.411 168.643 347.521 168.929 347.674 169.204C347.83 169.474 348.038 169.697 348.296 169.87C348.558 170.044 348.882 170.13 349.267 170.13C349.584 170.13 349.855 170.067 350.08 169.94C350.308 169.809 350.492 169.629 350.632 169.4C350.776 169.172 350.882 168.907 350.949 168.607C351.017 168.306 351.051 167.985 351.051 167.642ZM354.993 161.25V171H353.812V161.25H354.993ZM356.567 167.642V167.496C356.567 167.001 356.639 166.542 356.783 166.119C356.927 165.691 357.134 165.321 357.405 165.008C357.676 164.69 358.004 164.445 358.389 164.271C358.774 164.094 359.205 164.005 359.684 164.005C360.166 164.005 360.6 164.094 360.985 164.271C361.374 164.445 361.704 164.69 361.975 165.008C362.25 165.321 362.46 165.691 362.604 166.119C362.747 166.542 362.819 167.001 362.819 167.496V167.642C362.819 168.137 362.747 168.596 362.604 169.02C362.46 169.443 362.25 169.813 361.975 170.13C361.704 170.444 361.376 170.689 360.991 170.867C360.61 171.04 360.179 171.127 359.696 171.127C359.214 171.127 358.78 171.04 358.395 170.867C358.01 170.689 357.68 170.444 357.405 170.13C357.134 169.813 356.927 169.443 356.783 169.02C356.639 168.596 356.567 168.137 356.567 167.642ZM357.741 167.496V167.642C357.741 167.985 357.781 168.309 357.862 168.613C357.942 168.914 358.063 169.18 358.224 169.413C358.389 169.646 358.594 169.83 358.839 169.965C359.085 170.097 359.37 170.162 359.696 170.162C360.018 170.162 360.299 170.097 360.541 169.965C360.786 169.83 360.989 169.646 361.15 169.413C361.311 169.18 361.431 168.914 361.512 168.613C361.596 168.309 361.639 167.985 361.639 167.642V167.496C361.639 167.158 361.596 166.838 361.512 166.538C361.431 166.233 361.309 165.964 361.144 165.731C360.983 165.494 360.78 165.308 360.534 165.173C360.293 165.037 360.009 164.97 359.684 164.97C359.362 164.97 359.078 165.037 358.833 165.173C358.592 165.308 358.389 165.494 358.224 165.731C358.063 165.964 357.942 166.233 357.862 166.538C357.781 166.838 357.741 167.158 357.741 167.496ZM367.041 170.162C367.32 170.162 367.578 170.105 367.815 169.991C368.052 169.876 368.247 169.72 368.399 169.521C368.551 169.318 368.638 169.087 368.659 168.829H369.776C369.755 169.235 369.618 169.614 369.364 169.965C369.114 170.312 368.786 170.594 368.38 170.81C367.974 171.021 367.527 171.127 367.041 171.127C366.524 171.127 366.074 171.036 365.688 170.854C365.308 170.672 364.99 170.422 364.736 170.105C364.487 169.788 364.298 169.424 364.171 169.013C364.049 168.598 363.987 168.16 363.987 167.699V167.433C363.987 166.971 364.049 166.535 364.171 166.125C364.298 165.71 364.487 165.344 364.736 165.027C364.99 164.709 365.308 164.46 365.688 164.278C366.074 164.096 366.524 164.005 367.041 164.005C367.578 164.005 368.048 164.115 368.45 164.335C368.852 164.551 369.167 164.847 369.396 165.224C369.628 165.596 369.755 166.019 369.776 166.493H368.659C368.638 166.21 368.558 165.954 368.418 165.725C368.283 165.497 368.096 165.315 367.859 165.179C367.627 165.04 367.354 164.97 367.041 164.97C366.681 164.97 366.378 165.042 366.133 165.186C365.892 165.325 365.699 165.516 365.555 165.757C365.416 165.994 365.314 166.258 365.25 166.55C365.191 166.838 365.162 167.132 365.162 167.433V167.699C365.162 168 365.191 168.296 365.25 168.588C365.31 168.88 365.409 169.144 365.549 169.381C365.693 169.618 365.885 169.809 366.126 169.953C366.372 170.092 366.677 170.162 367.041 170.162ZM372.277 161.25V171H371.097V161.25H372.277ZM376.473 164.132L373.477 167.337L371.801 169.077L371.706 167.826L372.906 166.392L375.039 164.132H376.473ZM375.4 171L372.95 167.725L373.56 166.677L376.784 171H375.4ZM382.084 161.25V171H380.91V161.25H382.084ZM381.805 167.306L381.316 167.287C381.321 166.817 381.39 166.383 381.526 165.985C381.661 165.583 381.852 165.234 382.097 164.938C382.343 164.642 382.635 164.413 382.973 164.252C383.316 164.087 383.695 164.005 384.109 164.005C384.448 164.005 384.753 164.051 385.023 164.145C385.294 164.233 385.525 164.377 385.715 164.576C385.91 164.775 386.058 165.033 386.16 165.351C386.261 165.664 386.312 166.047 386.312 166.5V171H385.131V166.487C385.131 166.127 385.078 165.839 384.973 165.624C384.867 165.403 384.712 165.245 384.509 165.147C384.306 165.046 384.056 164.995 383.76 164.995C383.468 164.995 383.202 165.056 382.96 165.179C382.723 165.302 382.518 165.471 382.345 165.687C382.175 165.903 382.042 166.15 381.945 166.43C381.852 166.705 381.805 166.997 381.805 167.306ZM390.92 171.127C390.442 171.127 390.008 171.047 389.619 170.886C389.234 170.721 388.902 170.49 388.623 170.194C388.347 169.898 388.136 169.546 387.988 169.14C387.84 168.734 387.766 168.29 387.766 167.807V167.541C387.766 166.982 387.848 166.485 388.013 166.049C388.178 165.609 388.403 165.236 388.686 164.932C388.97 164.627 389.291 164.396 389.651 164.24C390.011 164.083 390.383 164.005 390.768 164.005C391.259 164.005 391.682 164.09 392.038 164.259C392.397 164.428 392.691 164.665 392.92 164.97C393.148 165.27 393.318 165.626 393.428 166.036C393.538 166.442 393.593 166.887 393.593 167.369V167.896H388.464V166.938H392.418V166.849C392.402 166.544 392.338 166.248 392.228 165.96C392.122 165.672 391.953 165.435 391.72 165.249C391.487 165.063 391.17 164.97 390.768 164.97C390.501 164.97 390.256 165.027 390.032 165.141C389.807 165.251 389.615 165.416 389.454 165.636C389.293 165.856 389.168 166.125 389.08 166.442C388.991 166.76 388.946 167.126 388.946 167.541V167.807C388.946 168.133 388.991 168.44 389.08 168.728C389.173 169.011 389.306 169.261 389.479 169.477C389.657 169.692 389.871 169.862 390.121 169.984C390.375 170.107 390.662 170.168 390.984 170.168C391.399 170.168 391.75 170.084 392.038 169.915C392.325 169.745 392.577 169.519 392.793 169.235L393.504 169.8C393.356 170.025 393.167 170.238 392.939 170.441C392.71 170.645 392.429 170.81 392.095 170.937C391.765 171.063 391.373 171.127 390.92 171.127ZM396.138 165.452V173.641H394.958V164.132H396.037L396.138 165.452ZM400.766 167.509V167.642C400.766 168.141 400.706 168.605 400.588 169.032C400.469 169.455 400.296 169.824 400.067 170.137C399.843 170.45 399.566 170.693 399.236 170.867C398.906 171.04 398.527 171.127 398.1 171.127C397.664 171.127 397.279 171.055 396.944 170.911C396.61 170.767 396.326 170.558 396.094 170.283C395.861 170.008 395.675 169.678 395.535 169.292C395.4 168.907 395.307 168.474 395.256 167.991V167.28C395.307 166.772 395.402 166.318 395.542 165.916C395.681 165.514 395.865 165.171 396.094 164.887C396.326 164.599 396.608 164.382 396.938 164.233C397.268 164.081 397.649 164.005 398.081 164.005C398.512 164.005 398.895 164.09 399.229 164.259C399.564 164.424 399.845 164.661 400.074 164.97C400.302 165.279 400.474 165.649 400.588 166.081C400.706 166.508 400.766 166.984 400.766 167.509ZM399.585 167.642V167.509C399.585 167.166 399.549 166.844 399.477 166.544C399.405 166.239 399.293 165.973 399.141 165.744C398.993 165.511 398.802 165.329 398.569 165.198C398.337 165.063 398.059 164.995 397.738 164.995C397.442 164.995 397.183 165.046 396.963 165.147C396.748 165.249 396.563 165.387 396.411 165.56C396.259 165.729 396.134 165.924 396.037 166.144C395.944 166.36 395.874 166.584 395.827 166.817V168.461C395.912 168.757 396.03 169.036 396.183 169.299C396.335 169.557 396.538 169.766 396.792 169.927C397.046 170.084 397.365 170.162 397.75 170.162C398.068 170.162 398.341 170.097 398.569 169.965C398.802 169.83 398.993 169.646 399.141 169.413C399.293 169.18 399.405 168.914 399.477 168.613C399.549 168.309 399.585 167.985 399.585 167.642ZM408.364 164.132V165.033H404.65V164.132H408.364ZM405.907 162.462H407.082V169.299C407.082 169.532 407.118 169.707 407.189 169.826C407.261 169.944 407.354 170.022 407.469 170.061C407.583 170.099 407.706 170.118 407.837 170.118C407.934 170.118 408.036 170.109 408.142 170.092C408.252 170.071 408.334 170.054 408.389 170.042L408.396 171C408.302 171.03 408.18 171.057 408.027 171.083C407.879 171.112 407.699 171.127 407.488 171.127C407.2 171.127 406.936 171.07 406.694 170.956C406.453 170.841 406.261 170.651 406.117 170.384C405.977 170.113 405.907 169.75 405.907 169.292V162.462ZM412.591 171.127C412.113 171.127 411.679 171.047 411.29 170.886C410.905 170.721 410.573 170.49 410.293 170.194C410.018 169.898 409.807 169.546 409.659 169.14C409.511 168.734 409.437 168.29 409.437 167.807V167.541C409.437 166.982 409.519 166.485 409.684 166.049C409.849 165.609 410.073 165.236 410.357 164.932C410.64 164.627 410.962 164.396 411.322 164.24C411.681 164.083 412.054 164.005 412.439 164.005C412.93 164.005 413.353 164.09 413.708 164.259C414.068 164.428 414.362 164.665 414.591 164.97C414.819 165.27 414.989 165.626 415.099 166.036C415.209 166.442 415.264 166.887 415.264 167.369V167.896H410.135V166.938H414.089V166.849C414.072 166.544 414.009 166.248 413.899 165.96C413.793 165.672 413.624 165.435 413.391 165.249C413.158 165.063 412.841 164.97 412.439 164.97C412.172 164.97 411.927 165.027 411.703 165.141C411.478 165.251 411.286 165.416 411.125 165.636C410.964 165.856 410.839 166.125 410.75 166.442C410.662 166.76 410.617 167.126 410.617 167.541V167.807C410.617 168.133 410.662 168.44 410.75 168.728C410.844 169.011 410.977 169.261 411.15 169.477C411.328 169.692 411.542 169.862 411.792 169.984C412.045 170.107 412.333 170.168 412.655 170.168C413.069 170.168 413.421 170.084 413.708 169.915C413.996 169.745 414.248 169.519 414.464 169.235L415.175 169.8C415.027 170.025 414.838 170.238 414.61 170.441C414.381 170.645 414.1 170.81 413.766 170.937C413.436 171.063 413.044 171.127 412.591 171.127ZM417.428 164.132L418.933 166.633L420.456 164.132H421.833L419.586 167.521L421.903 171H420.545L418.958 168.423L417.371 171H416.006L418.317 167.521L416.076 164.132H417.428ZM425.959 164.132V165.033H422.246V164.132H425.959ZM423.503 162.462H424.677V169.299C424.677 169.532 424.713 169.707 424.785 169.826C424.857 169.944 424.95 170.022 425.064 170.061C425.179 170.099 425.301 170.118 425.433 170.118C425.53 170.118 425.632 170.109 425.737 170.092C425.847 170.071 425.93 170.054 425.985 170.042L425.991 171C425.898 171.03 425.775 171.057 425.623 171.083C425.475 171.112 425.295 171.127 425.083 171.127C424.796 171.127 424.531 171.07 424.29 170.956C424.049 170.841 423.856 170.651 423.712 170.384C423.573 170.113 423.503 169.75 423.503 169.292V162.462Z" fill="#737373"/>
<path d="M553.276 167C553.276 165.526 554.471 164.375 556 164.375C557.504 164.375 558.724 165.526 558.724 167C558.724 168.449 557.504 169.625 556 169.625C554.471 169.625 553.276 168.449 553.276 167ZM556 165.688C555.248 165.688 554.638 166.275 554.638 167C554.638 167.725 555.248 168.312 556 168.312C556.752 168.312 557.362 167.725 557.362 167C557.362 166.275 556.752 165.688 556 165.688ZM557.053 160C557.683 160 558.231 160.415 558.378 161.005L558.6 161.892C558.841 162.006 559.071 162.135 559.289 162.277L560.2 162.019C560.804 161.847 561.451 162.096 561.766 162.621L562.819 164.378C563.131 164.903 563.032 165.567 562.578 165.986L561.888 166.593C561.897 166.743 561.903 166.871 561.903 167C561.903 167.129 561.897 167.257 561.888 167.383L562.578 168.014C563.032 168.433 563.131 169.097 562.819 169.622L561.766 171.378C561.451 171.903 560.804 172.152 560.2 171.982L559.289 171.722C559.071 171.864 558.841 171.993 558.6 172.108L558.378 172.996C558.231 173.584 557.683 174 557.053 174H554.947C554.317 174 553.77 173.584 553.622 172.996L553.401 172.108C553.16 171.993 552.93 171.864 552.711 171.722L551.775 171.982C551.197 172.152 550.55 171.903 550.235 171.378L549.183 169.622C548.868 169.097 548.967 168.433 549.423 168.014L550.111 167.383C550.102 167.257 550.098 167.129 550.098 166.975C550.098 166.871 550.102 166.743 550.111 166.593L549.423 165.986C548.967 165.567 548.868 164.903 549.183 164.378L550.235 162.621C550.55 162.096 551.197 161.847 551.775 162.019L552.711 162.277C552.93 162.135 553.16 162.006 553.401 161.892L553.622 161.005C553.77 160.415 554.317 160 554.947 160L557.053 160ZM554.567 162.833L554.249 162.961C553.889 163.106 553.554 163.295 553.25 163.519L552.975 163.721L551.415 163.279L550.362 165.034L551.54 166.114L551.496 166.442C551.472 166.625 551.46 166.811 551.46 167C551.46 167.189 551.472 167.375 551.496 167.558L551.54 167.886L550.362 168.966L551.415 170.721L552.975 170.279L553.25 170.481C553.554 170.705 553.889 170.894 554.249 171.039L554.567 171.167L554.947 172.688H557.053L557.433 171.167L557.751 171.039C558.111 170.894 558.446 170.705 558.75 170.481L559.025 170.279L560.586 170.721L561.639 168.966L560.461 167.886L560.504 167.558C560.529 167.375 560.541 167.189 560.541 167C560.541 166.811 560.529 166.625 560.504 166.442L560.461 166.114L561.639 165.034L560.586 163.279L559.025 163.721L558.75 163.519C558.446 163.295 558.111 163.106 557.751 162.961L557.433 162.833L557.053 161.312H554.947L554.567 162.833Z" fill="#1A1A1A"/>
<rect x="39.5" y="130.5" width="561" height="73" rx="8.5" stroke="#E6E6E6"/>
<defs>
<filter id="filter0_dd_9202_4452" x="38" y="39" width="564" height="76" filterUnits="userSpaceOnUse" color-interpolation-filters="sRGB">
<feFlood flood-opacity="0" result="BackgroundImageFix"/>
<feColorMatrix in="SourceAlpha" type="matrix" values="0 0 0 0 0 0 0 0 0 0 0 0 0 0 0 0 0 0 127 0" result="hardAlpha"/>
<feOffset dy="2"/>
<feGaussianBlur stdDeviation="0.5"/>
<feColorMatrix type="matrix" values="0 0 0 0 0.45098 0 0 0 0 0.45098 0 0 0 0 0.45098 0 0 0 0.05 0"/>
<feBlend mode="normal" in2="BackgroundImageFix" result="effect1_dropShadow_9202_4452"/>
<feColorMatrix in="SourceAlpha" type="matrix" values="0 0 0 0 0 0 0 0 0 0 0 0 0 0 0 0 0 0 127 0" result="hardAlpha"/>
<feOffset dy="1"/>
<feGaussianBlur stdDeviation="1"/>
<feColorMatrix type="matrix" values="0 0 0 0 0.45098 0 0 0 0 0.45098 0 0 0 0 0.45098 0 0 0 0.05 0"/>
<feBlend mode="normal" in2="effect1_dropShadow_9202_4452" result="effect2_dropShadow_9202_4452"/>
<feBlend mode="normal" in="SourceGraphic" in2="effect2_dropShadow_9202_4452" result="shape"/>
</filter>
</defs>
</svg>
