<svg width="852" height="436" viewBox="0 0 852 436" fill="none" xmlns="http://www.w3.org/2000/svg">
<rect width="852" height="436" rx="16" fill="#F8F8F8"/>
<path d="M98 94.5H764C768.142 94.5 771.5 97.8579 771.5 102V150C771.5 154.142 768.142 157.5 764 157.5H98C93.8579 157.5 90.5 154.142 90.5 150V102C90.5 97.8579 93.8579 94.5 98 94.5Z" fill="white"/>
<circle cx="130" cy="126" r="16" fill="#F2F2F2"/>
<path d="M130 120.375C129.036 120.401 128.229 120.74 127.578 121.391C126.927 122.042 126.589 122.849 126.562 123.812C126.589 124.776 126.927 125.583 127.578 126.234C128.229 126.885 129.036 127.224 130 127.25C130.964 127.224 131.771 126.885 132.422 126.234C133.073 125.583 133.411 124.776 133.438 123.812C133.411 122.849 133.073 122.042 132.422 121.391C131.771 120.74 130.964 120.401 130 120.375ZM130 125.375C129.557 125.375 129.193 125.219 128.906 124.906C128.594 124.62 128.438 124.255 128.438 123.812C128.438 123.37 128.594 123.005 128.906 122.719C129.193 122.406 129.557 122.25 130 122.25C130.443 122.25 130.807 122.406 131.094 122.719C131.406 123.005 131.562 123.37 131.562 123.812C131.562 124.255 131.406 124.62 131.094 124.906C130.807 125.219 130.443 125.375 130 125.375ZM130 116C128.125 116.026 126.445 116.482 124.961 117.367C123.451 118.253 122.253 119.451 121.367 120.961C120.482 122.445 120.026 124.125 120 126C120.026 127.875 120.482 129.555 121.367 131.039C122.253 132.549 123.451 133.747 124.961 134.633C126.445 135.518 128.125 135.974 130 136C131.875 135.974 133.555 135.518 135.039 134.633C136.549 133.747 137.747 132.549 138.633 131.039C139.518 129.555 139.974 127.875 140 126C139.974 124.125 139.518 122.445 138.633 120.961C137.747 119.451 136.549 118.253 135.039 117.367C133.555 116.482 131.875 116.026 130 116ZM130 134.125C128.151 134.099 126.536 133.552 125.156 132.484C125.495 131.833 125.964 131.326 126.562 130.961C127.161 130.57 127.839 130.375 128.594 130.375H131.406C132.161 130.375 132.839 130.57 133.438 130.961C134.036 131.326 134.518 131.833 134.883 132.484C133.477 133.552 131.849 134.099 130 134.125ZM136.25 131.195C135.729 130.362 135.039 129.698 134.18 129.203C133.346 128.734 132.422 128.5 131.406 128.5H128.594C127.578 128.5 126.654 128.734 125.82 129.203C124.987 129.672 124.297 130.323 123.75 131.156C122.552 129.724 121.927 128.005 121.875 126C121.927 123.708 122.721 121.794 124.258 120.258C125.794 118.721 127.708 117.927 130 117.875C132.292 117.927 134.206 118.721 135.742 120.258C137.279 121.794 138.073 123.708 138.125 126C138.073 128.005 137.448 129.737 136.25 131.195Z" fill="#1A1A1A"/>
<path d="M155.084 120.336H158.856C159.667 120.336 160.357 120.458 160.929 120.702C161.5 120.946 161.937 121.308 162.24 121.786C162.547 122.26 162.701 122.846 162.701 123.544C162.701 124.076 162.604 124.545 162.408 124.95C162.213 125.355 161.937 125.697 161.581 125.976C161.224 126.249 160.799 126.461 160.306 126.613L159.75 126.884H156.358L156.344 125.426H158.885C159.325 125.426 159.691 125.348 159.984 125.192C160.277 125.036 160.497 124.823 160.643 124.555C160.794 124.281 160.87 123.974 160.87 123.632C160.87 123.261 160.797 122.938 160.65 122.665C160.509 122.387 160.289 122.174 159.991 122.028C159.693 121.876 159.315 121.801 158.856 121.801H156.922V131H155.084V120.336ZM161.17 131L158.666 126.21L160.592 126.203L163.133 130.905V131H161.17ZM167.85 131.146C167.264 131.146 166.734 131.051 166.261 130.861C165.792 130.666 165.392 130.395 165.06 130.048C164.732 129.701 164.481 129.293 164.305 128.825C164.129 128.356 164.042 127.851 164.042 127.309V127.016C164.042 126.396 164.132 125.834 164.312 125.331C164.493 124.828 164.745 124.398 165.067 124.042C165.389 123.681 165.77 123.405 166.209 123.214C166.649 123.024 167.125 122.929 167.638 122.929C168.204 122.929 168.7 123.024 169.125 123.214C169.549 123.405 169.901 123.673 170.179 124.02C170.462 124.362 170.672 124.77 170.809 125.243C170.951 125.717 171.021 126.239 171.021 126.811V127.565H164.898V126.298H169.278V126.159C169.269 125.841 169.205 125.543 169.088 125.265C168.976 124.987 168.802 124.762 168.568 124.591C168.333 124.42 168.021 124.335 167.63 124.335C167.337 124.335 167.076 124.398 166.847 124.525C166.622 124.647 166.434 124.826 166.283 125.06C166.131 125.294 166.014 125.578 165.931 125.91C165.853 126.237 165.814 126.605 165.814 127.016V127.309C165.814 127.655 165.86 127.978 165.953 128.275C166.051 128.568 166.192 128.825 166.378 129.044C166.563 129.264 166.788 129.438 167.052 129.564C167.315 129.687 167.616 129.748 167.953 129.748C168.377 129.748 168.756 129.662 169.088 129.491C169.42 129.32 169.708 129.079 169.952 128.766L170.882 129.667C170.711 129.916 170.489 130.155 170.216 130.385C169.942 130.609 169.608 130.792 169.212 130.934C168.822 131.076 168.368 131.146 167.85 131.146ZM175.636 129.74C175.924 129.74 176.183 129.684 176.412 129.572C176.646 129.455 176.834 129.293 176.976 129.088C177.123 128.883 177.203 128.646 177.218 128.378H178.88C178.871 128.891 178.719 129.357 178.426 129.777C178.133 130.197 177.745 130.531 177.262 130.78C176.778 131.024 176.244 131.146 175.658 131.146C175.052 131.146 174.525 131.044 174.076 130.839C173.626 130.629 173.253 130.341 172.955 129.975C172.657 129.608 172.433 129.186 172.281 128.708C172.135 128.229 172.062 127.716 172.062 127.169V126.913C172.062 126.366 172.135 125.854 172.281 125.375C172.433 124.892 172.657 124.467 172.955 124.101C173.253 123.734 173.626 123.449 174.076 123.244C174.525 123.034 175.05 122.929 175.65 122.929C176.285 122.929 176.842 123.056 177.32 123.31C177.799 123.559 178.175 123.908 178.448 124.357C178.727 124.801 178.871 125.319 178.88 125.91H177.218C177.203 125.617 177.13 125.353 176.998 125.119C176.871 124.879 176.69 124.689 176.456 124.547C176.227 124.406 175.951 124.335 175.628 124.335C175.272 124.335 174.977 124.408 174.742 124.555C174.508 124.696 174.325 124.892 174.193 125.141C174.061 125.385 173.966 125.661 173.907 125.968C173.854 126.271 173.827 126.586 173.827 126.913V127.169C173.827 127.497 173.854 127.814 173.907 128.122C173.961 128.429 174.054 128.705 174.186 128.949C174.322 129.188 174.508 129.381 174.742 129.528C174.977 129.669 175.274 129.74 175.636 129.74ZM182.125 123.075V131H180.353V123.075H182.125ZM180.235 120.995C180.235 120.727 180.323 120.504 180.499 120.329C180.68 120.148 180.929 120.058 181.246 120.058C181.559 120.058 181.805 120.148 181.986 120.329C182.167 120.504 182.257 120.727 182.257 120.995C182.257 121.259 182.167 121.479 181.986 121.654C181.805 121.83 181.559 121.918 181.246 121.918C180.929 121.918 180.68 121.83 180.499 121.654C180.323 121.479 180.235 121.259 180.235 120.995ZM185.831 124.599V134.047H184.066V123.075H185.692L185.831 124.599ZM190.995 126.964V127.118C190.995 127.694 190.926 128.229 190.79 128.722C190.658 129.21 190.46 129.638 190.196 130.004C189.938 130.365 189.618 130.646 189.237 130.846C188.856 131.046 188.417 131.146 187.918 131.146C187.425 131.146 186.993 131.056 186.622 130.875C186.256 130.69 185.946 130.429 185.692 130.092C185.438 129.755 185.233 129.359 185.077 128.905C184.925 128.446 184.818 127.943 184.754 127.396V126.803C184.818 126.222 184.925 125.695 185.077 125.221C185.233 124.748 185.438 124.34 185.692 123.998C185.946 123.656 186.256 123.393 186.622 123.207C186.988 123.021 187.416 122.929 187.904 122.929C188.402 122.929 188.844 123.026 189.229 123.222C189.615 123.412 189.94 123.686 190.204 124.042C190.467 124.394 190.665 124.818 190.797 125.316C190.929 125.81 190.995 126.359 190.995 126.964ZM189.229 127.118V126.964C189.229 126.598 189.195 126.259 189.127 125.946C189.059 125.629 188.951 125.351 188.805 125.111C188.658 124.872 188.47 124.687 188.241 124.555C188.016 124.418 187.745 124.35 187.428 124.35C187.115 124.35 186.847 124.403 186.622 124.511C186.397 124.613 186.209 124.757 186.058 124.943C185.907 125.128 185.79 125.346 185.707 125.595C185.624 125.839 185.565 126.105 185.531 126.393V127.814C185.589 128.166 185.689 128.488 185.831 128.781C185.973 129.074 186.173 129.308 186.432 129.484C186.695 129.655 187.032 129.74 187.442 129.74C187.76 129.74 188.031 129.672 188.255 129.535C188.48 129.398 188.663 129.21 188.805 128.971C188.951 128.727 189.059 128.446 189.127 128.129C189.195 127.812 189.229 127.475 189.229 127.118ZM194.386 123.075V131H192.613V123.075H194.386ZM192.496 120.995C192.496 120.727 192.584 120.504 192.76 120.329C192.94 120.148 193.189 120.058 193.507 120.058C193.819 120.058 194.066 120.148 194.247 120.329C194.427 120.504 194.518 120.727 194.518 120.995C194.518 121.259 194.427 121.479 194.247 121.654C194.066 121.83 193.819 121.918 193.507 121.918C193.189 121.918 192.94 121.83 192.76 121.654C192.584 121.479 192.496 121.259 192.496 120.995ZM199.813 131.146C199.227 131.146 198.697 131.051 198.224 130.861C197.755 130.666 197.354 130.395 197.022 130.048C196.695 129.701 196.444 129.293 196.268 128.825C196.092 128.356 196.004 127.851 196.004 127.309V127.016C196.004 126.396 196.095 125.834 196.275 125.331C196.456 124.828 196.708 124.398 197.03 124.042C197.352 123.681 197.733 123.405 198.172 123.214C198.612 123.024 199.088 122.929 199.601 122.929C200.167 122.929 200.663 123.024 201.087 123.214C201.512 123.405 201.864 123.673 202.142 124.02C202.425 124.362 202.635 124.77 202.772 125.243C202.914 125.717 202.984 126.239 202.984 126.811V127.565H196.861V126.298H201.241V126.159C201.231 125.841 201.168 125.543 201.051 125.265C200.938 124.987 200.765 124.762 200.531 124.591C200.296 124.42 199.984 124.335 199.593 124.335C199.3 124.335 199.039 124.398 198.81 124.525C198.585 124.647 198.397 124.826 198.246 125.06C198.094 125.294 197.977 125.578 197.894 125.91C197.816 126.237 197.777 126.605 197.777 127.016V127.309C197.777 127.655 197.823 127.978 197.916 128.275C198.014 128.568 198.155 128.825 198.341 129.044C198.526 129.264 198.751 129.438 199.015 129.564C199.278 129.687 199.579 129.748 199.916 129.748C200.34 129.748 200.719 129.662 201.051 129.491C201.383 129.32 201.671 129.079 201.915 128.766L202.845 129.667C202.674 129.916 202.452 130.155 202.179 130.385C201.905 130.609 201.571 130.792 201.175 130.934C200.785 131.076 200.331 131.146 199.813 131.146ZM206.112 124.767V131H204.347V123.075H206.009L206.112 124.767ZM205.797 126.745L205.226 126.737C205.23 126.176 205.309 125.661 205.46 125.192C205.616 124.723 205.831 124.32 206.104 123.983C206.383 123.646 206.715 123.388 207.101 123.207C207.486 123.021 207.916 122.929 208.39 122.929C208.771 122.929 209.115 122.982 209.422 123.09C209.735 123.192 210.001 123.361 210.221 123.595C210.445 123.83 210.616 124.135 210.733 124.511C210.851 124.882 210.909 125.338 210.909 125.88V131H209.137V125.873C209.137 125.492 209.081 125.192 208.968 124.972C208.861 124.748 208.702 124.589 208.492 124.496C208.287 124.398 208.031 124.35 207.723 124.35C207.42 124.35 207.149 124.413 206.91 124.54C206.671 124.667 206.468 124.84 206.302 125.06C206.141 125.28 206.017 125.534 205.929 125.822C205.841 126.11 205.797 126.417 205.797 126.745ZM216.344 123.075V124.364H211.876V123.075H216.344ZM213.165 121.134H214.93V128.81C214.93 129.054 214.964 129.242 215.033 129.374C215.106 129.501 215.206 129.586 215.333 129.63C215.46 129.674 215.609 129.696 215.78 129.696C215.902 129.696 216.019 129.689 216.131 129.674C216.244 129.66 216.334 129.645 216.402 129.63L216.41 130.978C216.263 131.022 216.092 131.061 215.897 131.095C215.707 131.129 215.487 131.146 215.238 131.146C214.833 131.146 214.474 131.076 214.161 130.934C213.849 130.788 213.604 130.551 213.429 130.224C213.253 129.896 213.165 129.462 213.165 128.92V121.134ZM230.077 120.336V131H228.238L223.456 123.361V131H221.617V120.336H223.456L228.253 127.99V120.336H230.077ZM236.559 129.411V125.631C236.559 125.348 236.507 125.104 236.405 124.899C236.302 124.694 236.146 124.535 235.936 124.423C235.731 124.311 235.472 124.254 235.16 124.254C234.872 124.254 234.623 124.303 234.413 124.401C234.203 124.499 234.039 124.63 233.922 124.796C233.805 124.962 233.746 125.15 233.746 125.36H231.988C231.988 125.048 232.064 124.745 232.215 124.452C232.367 124.159 232.586 123.898 232.875 123.668C233.163 123.439 233.507 123.258 233.907 123.126C234.308 122.995 234.757 122.929 235.255 122.929C235.851 122.929 236.378 123.029 236.837 123.229C237.301 123.429 237.665 123.732 237.928 124.137C238.197 124.538 238.331 125.041 238.331 125.646V129.169C238.331 129.53 238.355 129.855 238.404 130.143C238.458 130.426 238.534 130.673 238.631 130.883V131H236.822C236.739 130.81 236.673 130.568 236.625 130.275C236.581 129.977 236.559 129.689 236.559 129.411ZM236.815 126.181L236.83 127.272H235.562C235.235 127.272 234.947 127.304 234.698 127.367C234.449 127.426 234.242 127.514 234.076 127.631C233.91 127.748 233.785 127.89 233.702 128.056C233.619 128.222 233.578 128.41 233.578 128.62C233.578 128.83 233.626 129.022 233.724 129.198C233.822 129.369 233.963 129.503 234.149 129.601C234.339 129.699 234.569 129.748 234.837 129.748C235.199 129.748 235.514 129.674 235.782 129.528C236.056 129.376 236.271 129.193 236.427 128.979C236.583 128.759 236.666 128.551 236.676 128.356L237.247 129.14C237.188 129.34 237.088 129.555 236.947 129.784C236.805 130.014 236.62 130.233 236.39 130.443C236.166 130.648 235.895 130.817 235.577 130.949C235.265 131.081 234.903 131.146 234.493 131.146C233.976 131.146 233.514 131.044 233.109 130.839C232.704 130.629 232.386 130.348 232.157 129.997C231.927 129.64 231.812 129.237 231.812 128.788C231.812 128.368 231.891 127.997 232.047 127.675C232.208 127.348 232.442 127.074 232.75 126.854C233.062 126.635 233.443 126.469 233.893 126.356C234.342 126.239 234.854 126.181 235.431 126.181H236.815ZM241.942 124.687V131H240.177V123.075H241.839L241.942 124.687ZM241.656 126.745L241.056 126.737C241.056 126.19 241.124 125.685 241.261 125.221C241.397 124.757 241.598 124.354 241.861 124.013C242.125 123.666 242.452 123.4 242.843 123.214C243.238 123.024 243.695 122.929 244.212 122.929C244.574 122.929 244.903 122.982 245.201 123.09C245.504 123.192 245.765 123.356 245.985 123.581C246.209 123.805 246.38 124.093 246.498 124.445C246.62 124.796 246.681 125.221 246.681 125.719V131H244.916V125.873C244.916 125.487 244.857 125.185 244.74 124.965C244.627 124.745 244.464 124.589 244.249 124.496C244.039 124.398 243.788 124.35 243.495 124.35C243.163 124.35 242.879 124.413 242.645 124.54C242.416 124.667 242.228 124.84 242.081 125.06C241.935 125.28 241.827 125.534 241.759 125.822C241.69 126.11 241.656 126.417 241.656 126.745ZM246.571 126.276L245.743 126.459C245.743 125.98 245.809 125.529 245.941 125.104C246.078 124.674 246.275 124.298 246.534 123.976C246.798 123.649 247.123 123.393 247.508 123.207C247.894 123.021 248.336 122.929 248.834 122.929C249.239 122.929 249.601 122.985 249.918 123.097C250.24 123.205 250.514 123.375 250.738 123.61C250.963 123.844 251.134 124.149 251.251 124.525C251.368 124.896 251.427 125.346 251.427 125.873V131H249.654V125.866C249.654 125.465 249.596 125.155 249.479 124.936C249.366 124.716 249.205 124.564 248.995 124.481C248.785 124.394 248.534 124.35 248.241 124.35C247.967 124.35 247.726 124.401 247.516 124.503C247.311 124.601 247.137 124.74 246.996 124.921C246.854 125.097 246.747 125.299 246.673 125.529C246.605 125.758 246.571 126.007 246.571 126.276ZM256.737 131.146C256.151 131.146 255.621 131.051 255.147 130.861C254.679 130.666 254.278 130.395 253.946 130.048C253.619 129.701 253.368 129.293 253.192 128.825C253.016 128.356 252.928 127.851 252.928 127.309V127.016C252.928 126.396 253.019 125.834 253.199 125.331C253.38 124.828 253.631 124.398 253.954 124.042C254.276 123.681 254.657 123.405 255.096 123.214C255.536 123.024 256.012 122.929 256.524 122.929C257.091 122.929 257.586 123.024 258.011 123.214C258.436 123.405 258.788 123.673 259.066 124.02C259.349 124.362 259.559 124.77 259.696 125.243C259.837 125.717 259.908 126.239 259.908 126.811V127.565H253.785V126.298H258.165V126.159C258.155 125.841 258.092 125.543 257.975 125.265C257.862 124.987 257.689 124.762 257.455 124.591C257.22 124.42 256.908 124.335 256.517 124.335C256.224 124.335 255.963 124.398 255.733 124.525C255.509 124.647 255.321 124.826 255.169 125.06C255.018 125.294 254.901 125.578 254.818 125.91C254.74 126.237 254.701 126.605 254.701 127.016V127.309C254.701 127.655 254.747 127.978 254.84 128.275C254.938 128.568 255.079 128.825 255.265 129.044C255.45 129.264 255.675 129.438 255.938 129.564C256.202 129.687 256.502 129.748 256.839 129.748C257.264 129.748 257.643 129.662 257.975 129.491C258.307 129.32 258.595 129.079 258.839 128.766L259.769 129.667C259.598 129.916 259.376 130.155 259.103 130.385C258.829 130.609 258.495 130.792 258.099 130.934C257.708 131.076 257.254 131.146 256.737 131.146Z" fill="#1A1A1A"/>
<path d="M366.321 131.146C365.77 131.146 365.269 131.054 364.82 130.868C364.375 130.678 363.992 130.412 363.67 130.07C363.353 129.728 363.108 129.323 362.938 128.854C362.767 128.385 362.681 127.873 362.681 127.316V127.008C362.681 126.364 362.776 125.79 362.967 125.287C363.157 124.779 363.416 124.35 363.743 123.998C364.07 123.646 364.441 123.38 364.856 123.2C365.271 123.019 365.701 122.929 366.146 122.929C366.712 122.929 367.2 123.026 367.61 123.222C368.025 123.417 368.365 123.69 368.628 124.042C368.892 124.389 369.087 124.799 369.214 125.272C369.341 125.741 369.405 126.254 369.405 126.811V127.418H363.487V126.312H368.05V126.21C368.03 125.858 367.957 125.517 367.83 125.185C367.708 124.853 367.513 124.579 367.244 124.364C366.976 124.149 366.609 124.042 366.146 124.042C365.838 124.042 365.555 124.108 365.296 124.24C365.037 124.367 364.815 124.557 364.629 124.811C364.444 125.065 364.3 125.375 364.197 125.741C364.095 126.107 364.043 126.53 364.043 127.008V127.316C364.043 127.692 364.095 128.046 364.197 128.378C364.305 128.705 364.458 128.993 364.659 129.242C364.864 129.491 365.11 129.687 365.398 129.828C365.691 129.97 366.023 130.041 366.395 130.041C366.873 130.041 367.278 129.943 367.61 129.748C367.942 129.552 368.233 129.291 368.482 128.964L369.302 129.616C369.131 129.875 368.914 130.121 368.65 130.355C368.387 130.59 368.062 130.78 367.676 130.927C367.295 131.073 366.844 131.146 366.321 131.146ZM371.902 123.075L373.638 125.961L375.396 123.075H376.985L374.393 126.986L377.066 131H375.499L373.667 128.026L371.836 131H370.262L372.928 126.986L370.342 123.075H371.902ZM383.101 129.645V125.565C383.101 125.253 383.038 124.982 382.911 124.752C382.789 124.518 382.603 124.337 382.354 124.21C382.105 124.083 381.797 124.02 381.431 124.02C381.089 124.02 380.789 124.079 380.53 124.196C380.276 124.313 380.076 124.467 379.93 124.657C379.788 124.848 379.717 125.053 379.717 125.272H378.362C378.362 124.989 378.436 124.708 378.582 124.43C378.729 124.152 378.938 123.9 379.212 123.676C379.49 123.446 379.822 123.266 380.208 123.134C380.599 122.997 381.033 122.929 381.512 122.929C382.088 122.929 382.596 123.026 383.035 123.222C383.479 123.417 383.826 123.712 384.075 124.108C384.329 124.499 384.456 124.989 384.456 125.58V129.271C384.456 129.535 384.478 129.816 384.522 130.114C384.571 130.412 384.642 130.668 384.734 130.883V131H383.321C383.252 130.844 383.199 130.636 383.16 130.377C383.121 130.114 383.101 129.87 383.101 129.645ZM383.335 126.195L383.35 127.147H381.98C381.595 127.147 381.25 127.179 380.948 127.243C380.645 127.301 380.391 127.392 380.186 127.514C379.981 127.636 379.825 127.79 379.717 127.975C379.61 128.156 379.556 128.368 379.556 128.612C379.556 128.861 379.612 129.088 379.725 129.293C379.837 129.499 380.005 129.662 380.23 129.784C380.459 129.901 380.74 129.96 381.072 129.96C381.487 129.96 381.854 129.872 382.171 129.696C382.488 129.521 382.74 129.306 382.925 129.052C383.116 128.798 383.218 128.551 383.233 128.312L383.812 128.964C383.777 129.169 383.685 129.396 383.533 129.645C383.382 129.894 383.179 130.133 382.925 130.363C382.676 130.587 382.378 130.775 382.032 130.927C381.69 131.073 381.304 131.146 380.875 131.146C380.337 131.146 379.866 131.042 379.461 130.832C379.061 130.622 378.748 130.341 378.523 129.989C378.304 129.633 378.194 129.235 378.194 128.795C378.194 128.371 378.277 127.997 378.443 127.675C378.609 127.348 378.848 127.077 379.161 126.862C379.473 126.642 379.849 126.476 380.289 126.364C380.728 126.251 381.219 126.195 381.761 126.195H383.335ZM387.935 124.65V131H386.573V123.075H387.862L387.935 124.65ZM387.657 126.737L387.027 126.715C387.032 126.173 387.103 125.673 387.239 125.214C387.376 124.75 387.579 124.347 387.847 124.005C388.116 123.664 388.45 123.4 388.851 123.214C389.251 123.024 389.715 122.929 390.242 122.929C390.613 122.929 390.955 122.982 391.268 123.09C391.58 123.192 391.851 123.356 392.081 123.581C392.31 123.805 392.488 124.093 392.615 124.445C392.742 124.796 392.806 125.221 392.806 125.719V131H391.451V125.785C391.451 125.37 391.38 125.038 391.238 124.789C391.102 124.54 390.906 124.359 390.652 124.247C390.398 124.13 390.101 124.071 389.759 124.071C389.358 124.071 389.024 124.142 388.755 124.284C388.487 124.425 388.272 124.621 388.111 124.87C387.95 125.119 387.833 125.404 387.759 125.727C387.691 126.044 387.657 126.381 387.657 126.737ZM392.791 125.99L391.883 126.269C391.888 125.834 391.958 125.417 392.095 125.016C392.237 124.616 392.439 124.259 392.703 123.947C392.972 123.634 393.301 123.388 393.692 123.207C394.083 123.021 394.529 122.929 395.032 122.929C395.457 122.929 395.833 122.985 396.16 123.097C396.492 123.209 396.771 123.383 396.995 123.617C397.225 123.847 397.398 124.142 397.515 124.503C397.632 124.865 397.691 125.294 397.691 125.792V131H396.329V125.778C396.329 125.333 396.258 124.989 396.116 124.745C395.979 124.496 395.784 124.323 395.53 124.225C395.281 124.123 394.983 124.071 394.637 124.071C394.339 124.071 394.075 124.123 393.846 124.225C393.616 124.328 393.423 124.469 393.267 124.65C393.111 124.826 392.991 125.028 392.908 125.258C392.83 125.487 392.791 125.731 392.791 125.99ZM401.097 124.599V134.047H399.734V123.075H400.979L401.097 124.599ZM406.436 126.972V127.125C406.436 127.702 406.368 128.236 406.231 128.729C406.094 129.218 405.894 129.643 405.63 130.004C405.372 130.365 405.052 130.646 404.671 130.846C404.29 131.046 403.853 131.146 403.36 131.146C402.857 131.146 402.413 131.063 402.027 130.897C401.641 130.731 401.314 130.49 401.045 130.172C400.777 129.855 400.562 129.474 400.401 129.03C400.245 128.585 400.137 128.085 400.079 127.528V126.708C400.137 126.122 400.247 125.597 400.408 125.133C400.569 124.669 400.782 124.274 401.045 123.947C401.314 123.615 401.639 123.363 402.02 123.192C402.4 123.017 402.84 122.929 403.338 122.929C403.836 122.929 404.278 123.026 404.664 123.222C405.049 123.412 405.374 123.686 405.638 124.042C405.901 124.398 406.099 124.826 406.231 125.324C406.368 125.817 406.436 126.366 406.436 126.972ZM405.074 127.125V126.972C405.074 126.576 405.032 126.205 404.949 125.858C404.866 125.507 404.737 125.199 404.561 124.936C404.39 124.667 404.17 124.457 403.902 124.306C403.633 124.149 403.313 124.071 402.942 124.071C402.601 124.071 402.303 124.13 402.049 124.247C401.8 124.364 401.587 124.523 401.412 124.723C401.236 124.918 401.092 125.143 400.979 125.397C400.872 125.646 400.792 125.905 400.738 126.173V128.07C400.835 128.412 400.972 128.734 401.148 129.037C401.324 129.335 401.558 129.577 401.851 129.762C402.144 129.943 402.513 130.033 402.957 130.033C403.323 130.033 403.638 129.958 403.902 129.806C404.17 129.65 404.39 129.438 404.561 129.169C404.737 128.9 404.866 128.593 404.949 128.246C405.032 127.895 405.074 127.521 405.074 127.125ZM409.637 119.75V131H408.274V119.75H409.637ZM415.101 131.146C414.549 131.146 414.048 131.054 413.599 130.868C413.155 130.678 412.771 130.412 412.449 130.07C412.132 129.728 411.888 129.323 411.717 128.854C411.546 128.385 411.46 127.873 411.46 127.316V127.008C411.46 126.364 411.556 125.79 411.746 125.287C411.937 124.779 412.195 124.35 412.522 123.998C412.85 123.646 413.221 123.38 413.636 123.2C414.051 123.019 414.48 122.929 414.925 122.929C415.491 122.929 415.979 123.026 416.39 123.222C416.805 123.417 417.144 123.69 417.408 124.042C417.671 124.389 417.867 124.799 417.994 125.272C418.121 125.741 418.184 126.254 418.184 126.811V127.418H412.266V126.312H416.829V126.21C416.81 125.858 416.736 125.517 416.609 125.185C416.487 124.853 416.292 124.579 416.023 124.364C415.755 124.149 415.389 124.042 414.925 124.042C414.617 124.042 414.334 124.108 414.075 124.24C413.816 124.367 413.594 124.557 413.409 124.811C413.223 125.065 413.079 125.375 412.977 125.741C412.874 126.107 412.823 126.53 412.823 127.008V127.316C412.823 127.692 412.874 128.046 412.977 128.378C413.084 128.705 413.238 128.993 413.438 129.242C413.643 129.491 413.89 129.687 414.178 129.828C414.471 129.97 414.803 130.041 415.174 130.041C415.652 130.041 416.058 129.943 416.39 129.748C416.722 129.552 417.012 129.291 417.261 128.964L418.082 129.616C417.911 129.875 417.693 130.121 417.43 130.355C417.166 130.59 416.841 130.78 416.456 130.927C416.075 131.073 415.623 131.146 415.101 131.146ZM431.448 127.316C431.429 127.765 431.36 128.217 431.243 128.671C431.126 129.12 430.95 129.533 430.716 129.909C430.481 130.285 430.176 130.587 429.8 130.817C429.429 131.042 428.98 131.154 428.453 131.154C428.116 131.154 427.82 131.095 427.566 130.978C427.317 130.856 427.112 130.683 426.951 130.458C426.795 130.233 426.685 129.962 426.622 129.645C426.563 129.328 426.553 128.974 426.592 128.583L426.966 124.525H428.042L427.669 128.583C427.64 128.939 427.647 129.23 427.691 129.455C427.74 129.679 427.813 129.853 427.911 129.975C428.008 130.092 428.118 130.172 428.24 130.216C428.367 130.26 428.489 130.282 428.606 130.282C428.899 130.282 429.161 130.207 429.39 130.055C429.62 129.899 429.812 129.687 429.969 129.418C430.13 129.145 430.254 128.83 430.342 128.473C430.43 128.112 430.484 127.726 430.503 127.316C430.538 126.588 430.503 125.919 430.401 125.309C430.303 124.699 430.135 124.157 429.896 123.683C429.661 123.209 429.354 122.809 428.973 122.482C428.592 122.155 428.138 121.906 427.61 121.735C427.083 121.564 426.48 121.479 425.801 121.479C425.186 121.479 424.617 121.574 424.095 121.764C423.577 121.95 423.111 122.218 422.696 122.57C422.286 122.921 421.932 123.344 421.634 123.837C421.341 124.33 421.109 124.887 420.938 125.507C420.772 126.122 420.674 126.786 420.645 127.499C420.611 128.231 420.65 128.905 420.762 129.521C420.875 130.131 421.055 130.675 421.304 131.154C421.558 131.637 421.878 132.045 422.264 132.377C422.649 132.714 423.096 132.968 423.604 133.139C424.112 133.314 424.678 133.402 425.303 133.402C425.733 133.402 426.167 133.351 426.607 133.249C427.051 133.146 427.422 133.007 427.72 132.831L427.999 133.666C427.657 133.886 427.229 134.049 426.717 134.157C426.209 134.264 425.728 134.318 425.274 134.318C424.532 134.318 423.853 134.215 423.238 134.01C422.627 133.81 422.085 133.515 421.612 133.124C421.143 132.738 420.752 132.267 420.44 131.71C420.127 131.159 419.898 130.529 419.751 129.821C419.605 129.113 419.549 128.339 419.583 127.499C419.617 126.698 419.737 125.944 419.942 125.236C420.152 124.528 420.438 123.886 420.799 123.31C421.16 122.733 421.59 122.238 422.088 121.823C422.591 121.403 423.155 121.081 423.78 120.856C424.41 120.631 425.093 120.519 425.831 120.519C426.583 120.519 427.264 120.622 427.874 120.827C428.484 121.032 429.019 121.327 429.478 121.713C429.942 122.099 430.325 122.57 430.628 123.126C430.931 123.683 431.15 124.313 431.287 125.016C431.429 125.719 431.482 126.486 431.448 127.316ZM423.926 127.938C423.892 128.28 423.892 128.585 423.926 128.854C423.96 129.123 424.026 129.35 424.124 129.535C424.222 129.721 424.349 129.862 424.505 129.96C424.666 130.053 424.854 130.099 425.069 130.099C425.21 130.099 425.359 130.065 425.516 129.997C425.672 129.923 425.826 129.811 425.977 129.66C426.128 129.508 426.27 129.311 426.402 129.066C426.534 128.822 426.644 128.529 426.731 128.188L427.215 128.715C427.103 129.115 426.956 129.467 426.775 129.77C426.6 130.072 426.402 130.326 426.182 130.531C425.962 130.736 425.728 130.893 425.479 131C425.235 131.103 424.986 131.154 424.732 131.154C424.375 131.154 424.063 131.078 423.794 130.927C423.526 130.771 423.309 130.551 423.143 130.268C422.977 129.984 422.859 129.647 422.791 129.257C422.728 128.861 422.718 128.422 422.762 127.938C422.806 127.426 422.896 126.952 423.033 126.518C423.169 126.083 423.338 125.695 423.538 125.353C423.743 125.011 423.973 124.721 424.227 124.481C424.485 124.242 424.759 124.062 425.047 123.939C425.335 123.812 425.63 123.749 425.933 123.749C426.46 123.749 426.875 123.827 427.178 123.983C427.481 124.135 427.769 124.315 428.042 124.525L427.42 125.25C427.278 125.114 427.093 124.987 426.863 124.87C426.634 124.752 426.363 124.694 426.05 124.694C425.782 124.694 425.53 124.762 425.296 124.899C425.062 125.036 424.849 125.241 424.659 125.514C424.473 125.788 424.317 126.127 424.19 126.532C424.063 126.933 423.975 127.401 423.926 127.938ZM436.531 131.146C435.979 131.146 435.479 131.054 435.03 130.868C434.585 130.678 434.202 130.412 433.88 130.07C433.562 129.728 433.318 129.323 433.147 128.854C432.977 128.385 432.891 127.873 432.891 127.316V127.008C432.891 126.364 432.986 125.79 433.177 125.287C433.367 124.779 433.626 124.35 433.953 123.998C434.28 123.646 434.651 123.38 435.066 123.2C435.481 123.019 435.911 122.929 436.355 122.929C436.922 122.929 437.41 123.026 437.82 123.222C438.235 123.417 438.575 123.69 438.838 124.042C439.102 124.389 439.297 124.799 439.424 125.272C439.551 125.741 439.615 126.254 439.615 126.811V127.418H433.697V126.312H438.26V126.21C438.24 125.858 438.167 125.517 438.04 125.185C437.918 124.853 437.723 124.579 437.454 124.364C437.186 124.149 436.819 124.042 436.355 124.042C436.048 124.042 435.765 124.108 435.506 124.24C435.247 124.367 435.025 124.557 434.839 124.811C434.654 125.065 434.51 125.375 434.407 125.741C434.305 126.107 434.253 126.53 434.253 127.008V127.316C434.253 127.692 434.305 128.046 434.407 128.378C434.515 128.705 434.668 128.993 434.869 129.242C435.074 129.491 435.32 129.687 435.608 129.828C435.901 129.97 436.233 130.041 436.604 130.041C437.083 130.041 437.488 129.943 437.82 129.748C438.152 129.552 438.443 129.291 438.692 128.964L439.512 129.616C439.341 129.875 439.124 130.121 438.86 130.355C438.597 130.59 438.272 130.78 437.886 130.927C437.505 131.073 437.054 131.146 436.531 131.146ZM442.544 124.65V131H441.182V123.075H442.471L442.544 124.65ZM442.266 126.737L441.636 126.715C441.641 126.173 441.712 125.673 441.849 125.214C441.985 124.75 442.188 124.347 442.457 124.005C442.725 123.664 443.06 123.4 443.46 123.214C443.86 123.024 444.324 122.929 444.852 122.929C445.223 122.929 445.564 122.982 445.877 123.09C446.189 123.192 446.46 123.356 446.69 123.581C446.919 123.805 447.098 124.093 447.225 124.445C447.352 124.796 447.415 125.221 447.415 125.719V131H446.06V125.785C446.06 125.37 445.989 125.038 445.848 124.789C445.711 124.54 445.516 124.359 445.262 124.247C445.008 124.13 444.71 124.071 444.368 124.071C443.968 124.071 443.633 124.142 443.365 124.284C443.096 124.425 442.881 124.621 442.72 124.87C442.559 125.119 442.442 125.404 442.369 125.727C442.3 126.044 442.266 126.381 442.266 126.737ZM447.4 125.99L446.492 126.269C446.497 125.834 446.568 125.417 446.705 125.016C446.846 124.616 447.049 124.259 447.312 123.947C447.581 123.634 447.911 123.388 448.301 123.207C448.692 123.021 449.139 122.929 449.642 122.929C450.066 122.929 450.442 122.985 450.77 123.097C451.102 123.209 451.38 123.383 451.604 123.617C451.834 123.847 452.007 124.142 452.125 124.503C452.242 124.865 452.3 125.294 452.3 125.792V131H450.938V125.778C450.938 125.333 450.867 124.989 450.726 124.745C450.589 124.496 450.394 124.323 450.14 124.225C449.891 124.123 449.593 124.071 449.246 124.071C448.948 124.071 448.685 124.123 448.455 124.225C448.226 124.328 448.033 124.469 447.876 124.65C447.72 124.826 447.601 125.028 447.518 125.258C447.439 125.487 447.4 125.731 447.4 125.99ZM459.024 129.645V125.565C459.024 125.253 458.96 124.982 458.833 124.752C458.711 124.518 458.526 124.337 458.277 124.21C458.028 124.083 457.72 124.02 457.354 124.02C457.012 124.02 456.712 124.079 456.453 124.196C456.199 124.313 455.999 124.467 455.853 124.657C455.711 124.848 455.64 125.053 455.64 125.272H454.285C454.285 124.989 454.358 124.708 454.505 124.43C454.651 124.152 454.861 123.9 455.135 123.676C455.413 123.446 455.745 123.266 456.131 123.134C456.521 122.997 456.956 122.929 457.435 122.929C458.011 122.929 458.519 123.026 458.958 123.222C459.402 123.417 459.749 123.712 459.998 124.108C460.252 124.499 460.379 124.989 460.379 125.58V129.271C460.379 129.535 460.401 129.816 460.445 130.114C460.494 130.412 460.564 130.668 460.657 130.883V131H459.244C459.175 130.844 459.122 130.636 459.083 130.377C459.043 130.114 459.024 129.87 459.024 129.645ZM459.258 126.195L459.273 127.147H457.903C457.518 127.147 457.173 127.179 456.871 127.243C456.568 127.301 456.314 127.392 456.109 127.514C455.904 127.636 455.748 127.79 455.64 127.975C455.533 128.156 455.479 128.368 455.479 128.612C455.479 128.861 455.535 129.088 455.647 129.293C455.76 129.499 455.928 129.662 456.153 129.784C456.382 129.901 456.663 129.96 456.995 129.96C457.41 129.96 457.776 129.872 458.094 129.696C458.411 129.521 458.663 129.306 458.848 129.052C459.039 128.798 459.141 128.551 459.156 128.312L459.734 128.964C459.7 129.169 459.607 129.396 459.456 129.645C459.305 129.894 459.102 130.133 458.848 130.363C458.599 130.587 458.301 130.775 457.955 130.927C457.613 131.073 457.227 131.146 456.797 131.146C456.26 131.146 455.789 131.042 455.384 130.832C454.983 130.622 454.671 130.341 454.446 129.989C454.227 129.633 454.117 129.235 454.117 128.795C454.117 128.371 454.2 127.997 454.366 127.675C454.532 127.348 454.771 127.077 455.083 126.862C455.396 126.642 455.772 126.476 456.211 126.364C456.651 126.251 457.142 126.195 457.684 126.195H459.258ZM463.982 123.075V131H462.62V123.075H463.982ZM462.518 120.973C462.518 120.753 462.583 120.568 462.715 120.417C462.852 120.265 463.052 120.189 463.316 120.189C463.575 120.189 463.772 120.265 463.909 120.417C464.051 120.568 464.122 120.753 464.122 120.973C464.122 121.183 464.051 121.364 463.909 121.515C463.772 121.662 463.575 121.735 463.316 121.735C463.052 121.735 462.852 121.662 462.715 121.515C462.583 121.364 462.518 121.183 462.518 120.973ZM467.63 119.75V131H466.268V119.75H467.63ZM469.827 130.282C469.827 130.053 469.898 129.86 470.04 129.704C470.186 129.542 470.396 129.462 470.669 129.462C470.943 129.462 471.15 129.542 471.292 129.704C471.438 129.86 471.512 130.053 471.512 130.282C471.512 130.507 471.438 130.697 471.292 130.854C471.15 131.01 470.943 131.088 470.669 131.088C470.396 131.088 470.186 131.01 470.04 130.854C469.898 130.697 469.827 130.507 469.827 130.282ZM476.932 130.033C477.254 130.033 477.552 129.967 477.825 129.835C478.099 129.704 478.323 129.523 478.499 129.293C478.675 129.059 478.775 128.793 478.799 128.495H480.088C480.064 128.964 479.905 129.401 479.612 129.806C479.324 130.207 478.946 130.531 478.477 130.78C478.008 131.024 477.493 131.146 476.932 131.146C476.336 131.146 475.816 131.042 475.372 130.832C474.932 130.622 474.566 130.333 474.273 129.967C473.985 129.601 473.768 129.181 473.621 128.708C473.479 128.229 473.409 127.724 473.409 127.191V126.884C473.409 126.352 473.479 125.849 473.621 125.375C473.768 124.896 473.985 124.474 474.273 124.108C474.566 123.742 474.932 123.454 475.372 123.244C475.816 123.034 476.336 122.929 476.932 122.929C477.552 122.929 478.094 123.056 478.558 123.31C479.021 123.559 479.385 123.9 479.649 124.335C479.917 124.765 480.064 125.253 480.088 125.8H478.799C478.775 125.473 478.682 125.177 478.521 124.914C478.365 124.65 478.15 124.44 477.876 124.284C477.608 124.123 477.293 124.042 476.932 124.042C476.517 124.042 476.167 124.125 475.884 124.291C475.606 124.452 475.384 124.672 475.218 124.95C475.057 125.224 474.939 125.529 474.866 125.866C474.798 126.198 474.764 126.537 474.764 126.884V127.191C474.764 127.538 474.798 127.88 474.866 128.217C474.935 128.554 475.049 128.859 475.21 129.132C475.376 129.406 475.599 129.625 475.877 129.792C476.16 129.953 476.512 130.033 476.932 130.033ZM481.253 127.125V126.957C481.253 126.386 481.336 125.856 481.502 125.368C481.668 124.875 481.907 124.447 482.22 124.086C482.532 123.72 482.911 123.437 483.355 123.236C483.799 123.031 484.297 122.929 484.849 122.929C485.406 122.929 485.906 123.031 486.351 123.236C486.8 123.437 487.181 123.72 487.493 124.086C487.811 124.447 488.052 124.875 488.218 125.368C488.384 125.856 488.467 126.386 488.467 126.957V127.125C488.467 127.697 488.384 128.227 488.218 128.715C488.052 129.203 487.811 129.63 487.493 129.997C487.181 130.358 486.802 130.641 486.358 130.846C485.918 131.046 485.42 131.146 484.864 131.146C484.307 131.146 483.807 131.046 483.362 130.846C482.918 130.641 482.537 130.358 482.22 129.997C481.907 129.63 481.668 129.203 481.502 128.715C481.336 128.227 481.253 127.697 481.253 127.125ZM482.608 126.957V127.125C482.608 127.521 482.654 127.895 482.747 128.246C482.84 128.593 482.979 128.9 483.165 129.169C483.355 129.438 483.592 129.65 483.875 129.806C484.158 129.958 484.488 130.033 484.864 130.033C485.235 130.033 485.56 129.958 485.838 129.806C486.121 129.65 486.355 129.438 486.541 129.169C486.727 128.9 486.866 128.593 486.958 128.246C487.056 127.895 487.105 127.521 487.105 127.125V126.957C487.105 126.566 487.056 126.198 486.958 125.851C486.866 125.5 486.724 125.189 486.534 124.921C486.348 124.647 486.114 124.433 485.831 124.276C485.552 124.12 485.225 124.042 484.849 124.042C484.478 124.042 484.151 124.12 483.868 124.276C483.589 124.433 483.355 124.647 483.165 124.921C482.979 125.189 482.84 125.5 482.747 125.851C482.654 126.198 482.608 126.566 482.608 126.957ZM491.514 124.65V131H490.152V123.075H491.441L491.514 124.65ZM491.236 126.737L490.606 126.715C490.611 126.173 490.682 125.673 490.818 125.214C490.955 124.75 491.158 124.347 491.426 124.005C491.695 123.664 492.029 123.4 492.43 123.214C492.83 123.024 493.294 122.929 493.821 122.929C494.192 122.929 494.534 122.982 494.847 123.09C495.159 123.192 495.43 123.356 495.66 123.581C495.889 123.805 496.067 124.093 496.194 124.445C496.321 124.796 496.385 125.221 496.385 125.719V131H495.03V125.785C495.03 125.37 494.959 125.038 494.817 124.789C494.681 124.54 494.485 124.359 494.231 124.247C493.978 124.13 493.68 124.071 493.338 124.071C492.938 124.071 492.603 124.142 492.334 124.284C492.066 124.425 491.851 124.621 491.69 124.87C491.529 125.119 491.412 125.404 491.338 125.727C491.27 126.044 491.236 126.381 491.236 126.737ZM496.37 125.99L495.462 126.269C495.467 125.834 495.538 125.417 495.674 125.016C495.816 124.616 496.019 124.259 496.282 123.947C496.551 123.634 496.88 123.388 497.271 123.207C497.662 123.021 498.108 122.929 498.611 122.929C499.036 122.929 499.412 122.985 499.739 123.097C500.071 123.209 500.35 123.383 500.574 123.617C500.804 123.847 500.977 124.142 501.094 124.503C501.211 124.865 501.27 125.294 501.27 125.792V131H499.908V125.778C499.908 125.333 499.837 124.989 499.695 124.745C499.559 124.496 499.363 124.323 499.109 124.225C498.86 124.123 498.562 124.071 498.216 124.071C497.918 124.071 497.654 124.123 497.425 124.225C497.195 124.328 497.002 124.469 496.846 124.65C496.69 124.826 496.57 125.028 496.487 125.258C496.409 125.487 496.37 125.731 496.37 125.99Z" fill="#505050"/>
<path d="M738 126C738 126.51 737.587 126.923 737.077 126.923H732.923V131.077C732.923 131.588 732.51 132 732 132C731.49 132 731.077 131.588 731.077 131.077V126.923H726.923C726.413 126.923 726 126.51 726 126C726 125.49 726.413 125.077 726.923 125.077H731.077V120.923C731.077 120.413 731.49 120 732 120C732.51 120 732.923 120.413 732.923 120.923V125.077H737.077C737.588 125.077 738 125.489 738 126Z" fill="#1A1A1A"/>
<path d="M98 94.5H764C768.142 94.5 771.5 97.8579 771.5 102V150C771.5 154.142 768.142 157.5 764 157.5H98C93.8579 157.5 90.5 154.142 90.5 150V102C90.5 97.8579 93.8579 94.5 98 94.5Z" stroke="#E6E6E6"/>
<rect x="50.5" y="54.5" width="761" height="143" stroke="#E6E6E6"/>
<rect width="762" height="144" transform="translate(50 198)" fill="white"/>
<path d="M90 246C90 241.582 93.5817 238 98 238H764C768.418 238 772 241.582 772 246V294C772 298.418 768.418 302 764 302H98C93.5817 302 90 298.418 90 294V246Z" fill="#F8F8F8"/>
<circle cx="130" cy="270" r="16" fill="#F2F2F2"/>
<path d="M130 264.375C129.036 264.401 128.229 264.74 127.578 265.391C126.927 266.042 126.589 266.849 126.562 267.812C126.589 268.776 126.927 269.583 127.578 270.234C128.229 270.885 129.036 271.224 130 271.25C130.964 271.224 131.771 270.885 132.422 270.234C133.073 269.583 133.411 268.776 133.438 267.812C133.411 266.849 133.073 266.042 132.422 265.391C131.771 264.74 130.964 264.401 130 264.375ZM130 269.375C129.557 269.375 129.193 269.219 128.906 268.906C128.594 268.62 128.438 268.255 128.438 267.812C128.438 267.37 128.594 267.005 128.906 266.719C129.193 266.406 129.557 266.25 130 266.25C130.443 266.25 130.807 266.406 131.094 266.719C131.406 267.005 131.562 267.37 131.562 267.812C131.562 268.255 131.406 268.62 131.094 268.906C130.807 269.219 130.443 269.375 130 269.375ZM130 260C128.125 260.026 126.445 260.482 124.961 261.367C123.451 262.253 122.253 263.451 121.367 264.961C120.482 266.445 120.026 268.125 120 270C120.026 271.875 120.482 273.555 121.367 275.039C122.253 276.549 123.451 277.747 124.961 278.633C126.445 279.518 128.125 279.974 130 280C131.875 279.974 133.555 279.518 135.039 278.633C136.549 277.747 137.747 276.549 138.633 275.039C139.518 273.555 139.974 271.875 140 270C139.974 268.125 139.518 266.445 138.633 264.961C137.747 263.451 136.549 262.253 135.039 261.367C133.555 260.482 131.875 260.026 130 260ZM130 278.125C128.151 278.099 126.536 277.552 125.156 276.484C125.495 275.833 125.964 275.326 126.562 274.961C127.161 274.57 127.839 274.375 128.594 274.375H131.406C132.161 274.375 132.839 274.57 133.438 274.961C134.036 275.326 134.518 275.833 134.883 276.484C133.477 277.552 131.849 278.099 130 278.125ZM136.25 275.195C135.729 274.362 135.039 273.698 134.18 273.203C133.346 272.734 132.422 272.5 131.406 272.5H128.594C127.578 272.5 126.654 272.734 125.82 273.203C124.987 273.672 124.297 274.323 123.75 275.156C122.552 273.724 121.927 272.005 121.875 270C121.927 267.708 122.721 265.794 124.258 264.258C125.794 262.721 127.708 261.927 130 261.875C132.292 261.927 134.206 262.721 135.742 264.258C137.279 265.794 138.073 267.708 138.125 270C138.073 272.005 137.448 273.737 136.25 275.195Z" fill="#1A1A1A"/>
<path d="M155.084 264.336H158.856C159.667 264.336 160.357 264.458 160.929 264.702C161.5 264.946 161.937 265.308 162.24 265.786C162.547 266.26 162.701 266.846 162.701 267.544C162.701 268.076 162.604 268.545 162.408 268.95C162.213 269.355 161.937 269.697 161.581 269.976C161.224 270.249 160.799 270.461 160.306 270.613L159.75 270.884H156.358L156.344 269.426H158.885C159.325 269.426 159.691 269.348 159.984 269.192C160.277 269.036 160.497 268.823 160.643 268.555C160.794 268.281 160.87 267.974 160.87 267.632C160.87 267.261 160.797 266.938 160.65 266.665C160.509 266.387 160.289 266.174 159.991 266.028C159.693 265.876 159.315 265.801 158.856 265.801H156.922V275H155.084V264.336ZM161.17 275L158.666 270.21L160.592 270.203L163.133 274.905V275H161.17ZM167.85 275.146C167.264 275.146 166.734 275.051 166.261 274.861C165.792 274.666 165.392 274.395 165.06 274.048C164.732 273.701 164.481 273.293 164.305 272.825C164.129 272.356 164.042 271.851 164.042 271.309V271.016C164.042 270.396 164.132 269.834 164.312 269.331C164.493 268.828 164.745 268.398 165.067 268.042C165.389 267.681 165.77 267.405 166.209 267.214C166.649 267.024 167.125 266.929 167.638 266.929C168.204 266.929 168.7 267.024 169.125 267.214C169.549 267.405 169.901 267.673 170.179 268.02C170.462 268.362 170.672 268.77 170.809 269.243C170.951 269.717 171.021 270.239 171.021 270.811V271.565H164.898V270.298H169.278V270.159C169.269 269.841 169.205 269.543 169.088 269.265C168.976 268.987 168.802 268.762 168.568 268.591C168.333 268.42 168.021 268.335 167.63 268.335C167.337 268.335 167.076 268.398 166.847 268.525C166.622 268.647 166.434 268.826 166.283 269.06C166.131 269.294 166.014 269.578 165.931 269.91C165.853 270.237 165.814 270.605 165.814 271.016V271.309C165.814 271.655 165.86 271.978 165.953 272.275C166.051 272.568 166.192 272.825 166.378 273.044C166.563 273.264 166.788 273.438 167.052 273.564C167.315 273.687 167.616 273.748 167.953 273.748C168.377 273.748 168.756 273.662 169.088 273.491C169.42 273.32 169.708 273.079 169.952 272.766L170.882 273.667C170.711 273.916 170.489 274.155 170.216 274.385C169.942 274.609 169.608 274.792 169.212 274.934C168.822 275.076 168.368 275.146 167.85 275.146ZM175.636 273.74C175.924 273.74 176.183 273.684 176.412 273.572C176.646 273.455 176.834 273.293 176.976 273.088C177.123 272.883 177.203 272.646 177.218 272.378H178.88C178.871 272.891 178.719 273.357 178.426 273.777C178.133 274.197 177.745 274.531 177.262 274.78C176.778 275.024 176.244 275.146 175.658 275.146C175.052 275.146 174.525 275.044 174.076 274.839C173.626 274.629 173.253 274.341 172.955 273.975C172.657 273.608 172.433 273.186 172.281 272.708C172.135 272.229 172.062 271.716 172.062 271.169V270.913C172.062 270.366 172.135 269.854 172.281 269.375C172.433 268.892 172.657 268.467 172.955 268.101C173.253 267.734 173.626 267.449 174.076 267.244C174.525 267.034 175.05 266.929 175.65 266.929C176.285 266.929 176.842 267.056 177.32 267.31C177.799 267.559 178.175 267.908 178.448 268.357C178.727 268.801 178.871 269.319 178.88 269.91H177.218C177.203 269.617 177.13 269.353 176.998 269.119C176.871 268.879 176.69 268.689 176.456 268.547C176.227 268.406 175.951 268.335 175.628 268.335C175.272 268.335 174.977 268.408 174.742 268.555C174.508 268.696 174.325 268.892 174.193 269.141C174.061 269.385 173.966 269.661 173.907 269.968C173.854 270.271 173.827 270.586 173.827 270.913V271.169C173.827 271.497 173.854 271.814 173.907 272.122C173.961 272.429 174.054 272.705 174.186 272.949C174.322 273.188 174.508 273.381 174.742 273.528C174.977 273.669 175.274 273.74 175.636 273.74ZM182.125 267.075V275H180.353V267.075H182.125ZM180.235 264.995C180.235 264.727 180.323 264.504 180.499 264.329C180.68 264.148 180.929 264.058 181.246 264.058C181.559 264.058 181.805 264.148 181.986 264.329C182.167 264.504 182.257 264.727 182.257 264.995C182.257 265.259 182.167 265.479 181.986 265.654C181.805 265.83 181.559 265.918 181.246 265.918C180.929 265.918 180.68 265.83 180.499 265.654C180.323 265.479 180.235 265.259 180.235 264.995ZM185.831 268.599V278.047H184.066V267.075H185.692L185.831 268.599ZM190.995 270.964V271.118C190.995 271.694 190.926 272.229 190.79 272.722C190.658 273.21 190.46 273.638 190.196 274.004C189.938 274.365 189.618 274.646 189.237 274.846C188.856 275.046 188.417 275.146 187.918 275.146C187.425 275.146 186.993 275.056 186.622 274.875C186.256 274.69 185.946 274.429 185.692 274.092C185.438 273.755 185.233 273.359 185.077 272.905C184.925 272.446 184.818 271.943 184.754 271.396V270.803C184.818 270.222 184.925 269.695 185.077 269.221C185.233 268.748 185.438 268.34 185.692 267.998C185.946 267.656 186.256 267.393 186.622 267.207C186.988 267.021 187.416 266.929 187.904 266.929C188.402 266.929 188.844 267.026 189.229 267.222C189.615 267.412 189.94 267.686 190.204 268.042C190.467 268.394 190.665 268.818 190.797 269.316C190.929 269.81 190.995 270.359 190.995 270.964ZM189.229 271.118V270.964C189.229 270.598 189.195 270.259 189.127 269.946C189.059 269.629 188.951 269.351 188.805 269.111C188.658 268.872 188.47 268.687 188.241 268.555C188.016 268.418 187.745 268.35 187.428 268.35C187.115 268.35 186.847 268.403 186.622 268.511C186.397 268.613 186.209 268.757 186.058 268.943C185.907 269.128 185.79 269.346 185.707 269.595C185.624 269.839 185.565 270.105 185.531 270.393V271.814C185.589 272.166 185.689 272.488 185.831 272.781C185.973 273.074 186.173 273.308 186.432 273.484C186.695 273.655 187.032 273.74 187.442 273.74C187.76 273.74 188.031 273.672 188.255 273.535C188.48 273.398 188.663 273.21 188.805 272.971C188.951 272.727 189.059 272.446 189.127 272.129C189.195 271.812 189.229 271.475 189.229 271.118ZM194.386 267.075V275H192.613V267.075H194.386ZM192.496 264.995C192.496 264.727 192.584 264.504 192.76 264.329C192.94 264.148 193.189 264.058 193.507 264.058C193.819 264.058 194.066 264.148 194.247 264.329C194.427 264.504 194.518 264.727 194.518 264.995C194.518 265.259 194.427 265.479 194.247 265.654C194.066 265.83 193.819 265.918 193.507 265.918C193.189 265.918 192.94 265.83 192.76 265.654C192.584 265.479 192.496 265.259 192.496 264.995ZM199.813 275.146C199.227 275.146 198.697 275.051 198.224 274.861C197.755 274.666 197.354 274.395 197.022 274.048C196.695 273.701 196.444 273.293 196.268 272.825C196.092 272.356 196.004 271.851 196.004 271.309V271.016C196.004 270.396 196.095 269.834 196.275 269.331C196.456 268.828 196.708 268.398 197.03 268.042C197.352 267.681 197.733 267.405 198.172 267.214C198.612 267.024 199.088 266.929 199.601 266.929C200.167 266.929 200.663 267.024 201.087 267.214C201.512 267.405 201.864 267.673 202.142 268.02C202.425 268.362 202.635 268.77 202.772 269.243C202.914 269.717 202.984 270.239 202.984 270.811V271.565H196.861V270.298H201.241V270.159C201.231 269.841 201.168 269.543 201.051 269.265C200.938 268.987 200.765 268.762 200.531 268.591C200.296 268.42 199.984 268.335 199.593 268.335C199.3 268.335 199.039 268.398 198.81 268.525C198.585 268.647 198.397 268.826 198.246 269.06C198.094 269.294 197.977 269.578 197.894 269.91C197.816 270.237 197.777 270.605 197.777 271.016V271.309C197.777 271.655 197.823 271.978 197.916 272.275C198.014 272.568 198.155 272.825 198.341 273.044C198.526 273.264 198.751 273.438 199.015 273.564C199.278 273.687 199.579 273.748 199.916 273.748C200.34 273.748 200.719 273.662 201.051 273.491C201.383 273.32 201.671 273.079 201.915 272.766L202.845 273.667C202.674 273.916 202.452 274.155 202.179 274.385C201.905 274.609 201.571 274.792 201.175 274.934C200.785 275.076 200.331 275.146 199.813 275.146ZM206.112 268.767V275H204.347V267.075H206.009L206.112 268.767ZM205.797 270.745L205.226 270.737C205.23 270.176 205.309 269.661 205.46 269.192C205.616 268.723 205.831 268.32 206.104 267.983C206.383 267.646 206.715 267.388 207.101 267.207C207.486 267.021 207.916 266.929 208.39 266.929C208.771 266.929 209.115 266.982 209.422 267.09C209.735 267.192 210.001 267.361 210.221 267.595C210.445 267.83 210.616 268.135 210.733 268.511C210.851 268.882 210.909 269.338 210.909 269.88V275H209.137V269.873C209.137 269.492 209.081 269.192 208.968 268.972C208.861 268.748 208.702 268.589 208.492 268.496C208.287 268.398 208.031 268.35 207.723 268.35C207.42 268.35 207.149 268.413 206.91 268.54C206.671 268.667 206.468 268.84 206.302 269.06C206.141 269.28 206.017 269.534 205.929 269.822C205.841 270.11 205.797 270.417 205.797 270.745ZM216.344 267.075V268.364H211.876V267.075H216.344ZM213.165 265.134H214.93V272.81C214.93 273.054 214.964 273.242 215.033 273.374C215.106 273.501 215.206 273.586 215.333 273.63C215.46 273.674 215.609 273.696 215.78 273.696C215.902 273.696 216.019 273.689 216.131 273.674C216.244 273.66 216.334 273.645 216.402 273.63L216.41 274.978C216.263 275.022 216.092 275.061 215.897 275.095C215.707 275.129 215.487 275.146 215.238 275.146C214.833 275.146 214.474 275.076 214.161 274.934C213.849 274.788 213.604 274.551 213.429 274.224C213.253 273.896 213.165 273.462 213.165 272.92V265.134ZM230.077 264.336V275H228.238L223.456 267.361V275H221.617V264.336H223.456L228.253 271.99V264.336H230.077ZM236.559 273.411V269.631C236.559 269.348 236.507 269.104 236.405 268.899C236.302 268.694 236.146 268.535 235.936 268.423C235.731 268.311 235.472 268.254 235.16 268.254C234.872 268.254 234.623 268.303 234.413 268.401C234.203 268.499 234.039 268.63 233.922 268.796C233.805 268.962 233.746 269.15 233.746 269.36H231.988C231.988 269.048 232.064 268.745 232.215 268.452C232.367 268.159 232.586 267.898 232.875 267.668C233.163 267.439 233.507 267.258 233.907 267.126C234.308 266.995 234.757 266.929 235.255 266.929C235.851 266.929 236.378 267.029 236.837 267.229C237.301 267.429 237.665 267.732 237.928 268.137C238.197 268.538 238.331 269.041 238.331 269.646V273.169C238.331 273.53 238.355 273.855 238.404 274.143C238.458 274.426 238.534 274.673 238.631 274.883V275H236.822C236.739 274.81 236.673 274.568 236.625 274.275C236.581 273.977 236.559 273.689 236.559 273.411ZM236.815 270.181L236.83 271.272H235.562C235.235 271.272 234.947 271.304 234.698 271.367C234.449 271.426 234.242 271.514 234.076 271.631C233.91 271.748 233.785 271.89 233.702 272.056C233.619 272.222 233.578 272.41 233.578 272.62C233.578 272.83 233.626 273.022 233.724 273.198C233.822 273.369 233.963 273.503 234.149 273.601C234.339 273.699 234.569 273.748 234.837 273.748C235.199 273.748 235.514 273.674 235.782 273.528C236.056 273.376 236.271 273.193 236.427 272.979C236.583 272.759 236.666 272.551 236.676 272.356L237.247 273.14C237.188 273.34 237.088 273.555 236.947 273.784C236.805 274.014 236.62 274.233 236.39 274.443C236.166 274.648 235.895 274.817 235.577 274.949C235.265 275.081 234.903 275.146 234.493 275.146C233.976 275.146 233.514 275.044 233.109 274.839C232.704 274.629 232.386 274.348 232.157 273.997C231.927 273.64 231.812 273.237 231.812 272.788C231.812 272.368 231.891 271.997 232.047 271.675C232.208 271.348 232.442 271.074 232.75 270.854C233.062 270.635 233.443 270.469 233.893 270.356C234.342 270.239 234.854 270.181 235.431 270.181H236.815ZM241.942 268.687V275H240.177V267.075H241.839L241.942 268.687ZM241.656 270.745L241.056 270.737C241.056 270.19 241.124 269.685 241.261 269.221C241.397 268.757 241.598 268.354 241.861 268.013C242.125 267.666 242.452 267.4 242.843 267.214C243.238 267.024 243.695 266.929 244.212 266.929C244.574 266.929 244.903 266.982 245.201 267.09C245.504 267.192 245.765 267.356 245.985 267.581C246.209 267.805 246.38 268.093 246.498 268.445C246.62 268.796 246.681 269.221 246.681 269.719V275H244.916V269.873C244.916 269.487 244.857 269.185 244.74 268.965C244.627 268.745 244.464 268.589 244.249 268.496C244.039 268.398 243.788 268.35 243.495 268.35C243.163 268.35 242.879 268.413 242.645 268.54C242.416 268.667 242.228 268.84 242.081 269.06C241.935 269.28 241.827 269.534 241.759 269.822C241.69 270.11 241.656 270.417 241.656 270.745ZM246.571 270.276L245.743 270.459C245.743 269.98 245.809 269.529 245.941 269.104C246.078 268.674 246.275 268.298 246.534 267.976C246.798 267.649 247.123 267.393 247.508 267.207C247.894 267.021 248.336 266.929 248.834 266.929C249.239 266.929 249.601 266.985 249.918 267.097C250.24 267.205 250.514 267.375 250.738 267.61C250.963 267.844 251.134 268.149 251.251 268.525C251.368 268.896 251.427 269.346 251.427 269.873V275H249.654V269.866C249.654 269.465 249.596 269.155 249.479 268.936C249.366 268.716 249.205 268.564 248.995 268.481C248.785 268.394 248.534 268.35 248.241 268.35C247.967 268.35 247.726 268.401 247.516 268.503C247.311 268.601 247.137 268.74 246.996 268.921C246.854 269.097 246.747 269.299 246.673 269.529C246.605 269.758 246.571 270.007 246.571 270.276ZM256.737 275.146C256.151 275.146 255.621 275.051 255.147 274.861C254.679 274.666 254.278 274.395 253.946 274.048C253.619 273.701 253.368 273.293 253.192 272.825C253.016 272.356 252.928 271.851 252.928 271.309V271.016C252.928 270.396 253.019 269.834 253.199 269.331C253.38 268.828 253.631 268.398 253.954 268.042C254.276 267.681 254.657 267.405 255.096 267.214C255.536 267.024 256.012 266.929 256.524 266.929C257.091 266.929 257.586 267.024 258.011 267.214C258.436 267.405 258.788 267.673 259.066 268.02C259.349 268.362 259.559 268.77 259.696 269.243C259.837 269.717 259.908 270.239 259.908 270.811V271.565H253.785V270.298H258.165V270.159C258.155 269.841 258.092 269.543 257.975 269.265C257.862 268.987 257.689 268.762 257.455 268.591C257.22 268.42 256.908 268.335 256.517 268.335C256.224 268.335 255.963 268.398 255.733 268.525C255.509 268.647 255.321 268.826 255.169 269.06C255.018 269.294 254.901 269.578 254.818 269.91C254.74 270.237 254.701 270.605 254.701 271.016V271.309C254.701 271.655 254.747 271.978 254.84 272.275C254.938 272.568 255.079 272.825 255.265 273.044C255.45 273.264 255.675 273.438 255.938 273.564C256.202 273.687 256.502 273.748 256.839 273.748C257.264 273.748 257.643 273.662 257.975 273.491C258.307 273.32 258.595 273.079 258.839 272.766L259.769 273.667C259.598 273.916 259.376 274.155 259.103 274.385C258.829 274.609 258.495 274.792 258.099 274.934C257.708 275.076 257.254 275.146 256.737 275.146Z" fill="#1A1A1A"/>
<path d="M366.321 275.146C365.77 275.146 365.269 275.054 364.82 274.868C364.375 274.678 363.992 274.412 363.67 274.07C363.353 273.728 363.108 273.323 362.938 272.854C362.767 272.385 362.681 271.873 362.681 271.316V271.008C362.681 270.364 362.776 269.79 362.967 269.287C363.157 268.779 363.416 268.35 363.743 267.998C364.07 267.646 364.441 267.38 364.856 267.2C365.271 267.019 365.701 266.929 366.146 266.929C366.712 266.929 367.2 267.026 367.61 267.222C368.025 267.417 368.365 267.69 368.628 268.042C368.892 268.389 369.087 268.799 369.214 269.272C369.341 269.741 369.405 270.254 369.405 270.811V271.418H363.487V270.312H368.05V270.21C368.03 269.858 367.957 269.517 367.83 269.185C367.708 268.853 367.513 268.579 367.244 268.364C366.976 268.149 366.609 268.042 366.146 268.042C365.838 268.042 365.555 268.108 365.296 268.24C365.037 268.367 364.815 268.557 364.629 268.811C364.444 269.065 364.3 269.375 364.197 269.741C364.095 270.107 364.043 270.53 364.043 271.008V271.316C364.043 271.692 364.095 272.046 364.197 272.378C364.305 272.705 364.458 272.993 364.659 273.242C364.864 273.491 365.11 273.687 365.398 273.828C365.691 273.97 366.023 274.041 366.395 274.041C366.873 274.041 367.278 273.943 367.61 273.748C367.942 273.552 368.233 273.291 368.482 272.964L369.302 273.616C369.131 273.875 368.914 274.121 368.65 274.355C368.387 274.59 368.062 274.78 367.676 274.927C367.295 275.073 366.844 275.146 366.321 275.146ZM371.902 267.075L373.638 269.961L375.396 267.075H376.985L374.393 270.986L377.066 275H375.499L373.667 272.026L371.836 275H370.262L372.928 270.986L370.342 267.075H371.902ZM383.101 273.645V269.565C383.101 269.253 383.038 268.982 382.911 268.752C382.789 268.518 382.603 268.337 382.354 268.21C382.105 268.083 381.797 268.02 381.431 268.02C381.089 268.02 380.789 268.079 380.53 268.196C380.276 268.313 380.076 268.467 379.93 268.657C379.788 268.848 379.717 269.053 379.717 269.272H378.362C378.362 268.989 378.436 268.708 378.582 268.43C378.729 268.152 378.938 267.9 379.212 267.676C379.49 267.446 379.822 267.266 380.208 267.134C380.599 266.997 381.033 266.929 381.512 266.929C382.088 266.929 382.596 267.026 383.035 267.222C383.479 267.417 383.826 267.712 384.075 268.108C384.329 268.499 384.456 268.989 384.456 269.58V273.271C384.456 273.535 384.478 273.816 384.522 274.114C384.571 274.412 384.642 274.668 384.734 274.883V275H383.321C383.252 274.844 383.199 274.636 383.16 274.377C383.121 274.114 383.101 273.87 383.101 273.645ZM383.335 270.195L383.35 271.147H381.98C381.595 271.147 381.25 271.179 380.948 271.243C380.645 271.301 380.391 271.392 380.186 271.514C379.981 271.636 379.825 271.79 379.717 271.975C379.61 272.156 379.556 272.368 379.556 272.612C379.556 272.861 379.612 273.088 379.725 273.293C379.837 273.499 380.005 273.662 380.23 273.784C380.459 273.901 380.74 273.96 381.072 273.96C381.487 273.96 381.854 273.872 382.171 273.696C382.488 273.521 382.74 273.306 382.925 273.052C383.116 272.798 383.218 272.551 383.233 272.312L383.812 272.964C383.777 273.169 383.685 273.396 383.533 273.645C383.382 273.894 383.179 274.133 382.925 274.363C382.676 274.587 382.378 274.775 382.032 274.927C381.69 275.073 381.304 275.146 380.875 275.146C380.337 275.146 379.866 275.042 379.461 274.832C379.061 274.622 378.748 274.341 378.523 273.989C378.304 273.633 378.194 273.235 378.194 272.795C378.194 272.371 378.277 271.997 378.443 271.675C378.609 271.348 378.848 271.077 379.161 270.862C379.473 270.642 379.849 270.476 380.289 270.364C380.728 270.251 381.219 270.195 381.761 270.195H383.335ZM387.935 268.65V275H386.573V267.075H387.862L387.935 268.65ZM387.657 270.737L387.027 270.715C387.032 270.173 387.103 269.673 387.239 269.214C387.376 268.75 387.579 268.347 387.847 268.005C388.116 267.664 388.45 267.4 388.851 267.214C389.251 267.024 389.715 266.929 390.242 266.929C390.613 266.929 390.955 266.982 391.268 267.09C391.58 267.192 391.851 267.356 392.081 267.581C392.31 267.805 392.488 268.093 392.615 268.445C392.742 268.796 392.806 269.221 392.806 269.719V275H391.451V269.785C391.451 269.37 391.38 269.038 391.238 268.789C391.102 268.54 390.906 268.359 390.652 268.247C390.398 268.13 390.101 268.071 389.759 268.071C389.358 268.071 389.024 268.142 388.755 268.284C388.487 268.425 388.272 268.621 388.111 268.87C387.95 269.119 387.833 269.404 387.759 269.727C387.691 270.044 387.657 270.381 387.657 270.737ZM392.791 269.99L391.883 270.269C391.888 269.834 391.958 269.417 392.095 269.016C392.237 268.616 392.439 268.259 392.703 267.947C392.972 267.634 393.301 267.388 393.692 267.207C394.083 267.021 394.529 266.929 395.032 266.929C395.457 266.929 395.833 266.985 396.16 267.097C396.492 267.209 396.771 267.383 396.995 267.617C397.225 267.847 397.398 268.142 397.515 268.503C397.632 268.865 397.691 269.294 397.691 269.792V275H396.329V269.778C396.329 269.333 396.258 268.989 396.116 268.745C395.979 268.496 395.784 268.323 395.53 268.225C395.281 268.123 394.983 268.071 394.637 268.071C394.339 268.071 394.075 268.123 393.846 268.225C393.616 268.328 393.423 268.469 393.267 268.65C393.111 268.826 392.991 269.028 392.908 269.258C392.83 269.487 392.791 269.731 392.791 269.99ZM401.097 268.599V278.047H399.734V267.075H400.979L401.097 268.599ZM406.436 270.972V271.125C406.436 271.702 406.368 272.236 406.231 272.729C406.094 273.218 405.894 273.643 405.63 274.004C405.372 274.365 405.052 274.646 404.671 274.846C404.29 275.046 403.853 275.146 403.36 275.146C402.857 275.146 402.413 275.063 402.027 274.897C401.641 274.731 401.314 274.49 401.045 274.172C400.777 273.855 400.562 273.474 400.401 273.03C400.245 272.585 400.137 272.085 400.079 271.528V270.708C400.137 270.122 400.247 269.597 400.408 269.133C400.569 268.669 400.782 268.274 401.045 267.947C401.314 267.615 401.639 267.363 402.02 267.192C402.4 267.017 402.84 266.929 403.338 266.929C403.836 266.929 404.278 267.026 404.664 267.222C405.049 267.412 405.374 267.686 405.638 268.042C405.901 268.398 406.099 268.826 406.231 269.324C406.368 269.817 406.436 270.366 406.436 270.972ZM405.074 271.125V270.972C405.074 270.576 405.032 270.205 404.949 269.858C404.866 269.507 404.737 269.199 404.561 268.936C404.39 268.667 404.17 268.457 403.902 268.306C403.633 268.149 403.313 268.071 402.942 268.071C402.601 268.071 402.303 268.13 402.049 268.247C401.8 268.364 401.587 268.523 401.412 268.723C401.236 268.918 401.092 269.143 400.979 269.397C400.872 269.646 400.792 269.905 400.738 270.173V272.07C400.835 272.412 400.972 272.734 401.148 273.037C401.324 273.335 401.558 273.577 401.851 273.762C402.144 273.943 402.513 274.033 402.957 274.033C403.323 274.033 403.638 273.958 403.902 273.806C404.17 273.65 404.39 273.438 404.561 273.169C404.737 272.9 404.866 272.593 404.949 272.246C405.032 271.895 405.074 271.521 405.074 271.125ZM409.637 263.75V275H408.274V263.75H409.637ZM415.101 275.146C414.549 275.146 414.048 275.054 413.599 274.868C413.155 274.678 412.771 274.412 412.449 274.07C412.132 273.728 411.888 273.323 411.717 272.854C411.546 272.385 411.46 271.873 411.46 271.316V271.008C411.46 270.364 411.556 269.79 411.746 269.287C411.937 268.779 412.195 268.35 412.522 267.998C412.85 267.646 413.221 267.38 413.636 267.2C414.051 267.019 414.48 266.929 414.925 266.929C415.491 266.929 415.979 267.026 416.39 267.222C416.805 267.417 417.144 267.69 417.408 268.042C417.671 268.389 417.867 268.799 417.994 269.272C418.121 269.741 418.184 270.254 418.184 270.811V271.418H412.266V270.312H416.829V270.21C416.81 269.858 416.736 269.517 416.609 269.185C416.487 268.853 416.292 268.579 416.023 268.364C415.755 268.149 415.389 268.042 414.925 268.042C414.617 268.042 414.334 268.108 414.075 268.24C413.816 268.367 413.594 268.557 413.409 268.811C413.223 269.065 413.079 269.375 412.977 269.741C412.874 270.107 412.823 270.53 412.823 271.008V271.316C412.823 271.692 412.874 272.046 412.977 272.378C413.084 272.705 413.238 272.993 413.438 273.242C413.643 273.491 413.89 273.687 414.178 273.828C414.471 273.97 414.803 274.041 415.174 274.041C415.652 274.041 416.058 273.943 416.39 273.748C416.722 273.552 417.012 273.291 417.261 272.964L418.082 273.616C417.911 273.875 417.693 274.121 417.43 274.355C417.166 274.59 416.841 274.78 416.456 274.927C416.075 275.073 415.623 275.146 415.101 275.146ZM431.448 271.316C431.429 271.765 431.36 272.217 431.243 272.671C431.126 273.12 430.95 273.533 430.716 273.909C430.481 274.285 430.176 274.587 429.8 274.817C429.429 275.042 428.98 275.154 428.453 275.154C428.116 275.154 427.82 275.095 427.566 274.978C427.317 274.856 427.112 274.683 426.951 274.458C426.795 274.233 426.685 273.962 426.622 273.645C426.563 273.328 426.553 272.974 426.592 272.583L426.966 268.525H428.042L427.669 272.583C427.64 272.939 427.647 273.23 427.691 273.455C427.74 273.679 427.813 273.853 427.911 273.975C428.008 274.092 428.118 274.172 428.24 274.216C428.367 274.26 428.489 274.282 428.606 274.282C428.899 274.282 429.161 274.207 429.39 274.055C429.62 273.899 429.812 273.687 429.969 273.418C430.13 273.145 430.254 272.83 430.342 272.473C430.43 272.112 430.484 271.726 430.503 271.316C430.538 270.588 430.503 269.919 430.401 269.309C430.303 268.699 430.135 268.157 429.896 267.683C429.661 267.209 429.354 266.809 428.973 266.482C428.592 266.155 428.138 265.906 427.61 265.735C427.083 265.564 426.48 265.479 425.801 265.479C425.186 265.479 424.617 265.574 424.095 265.764C423.577 265.95 423.111 266.218 422.696 266.57C422.286 266.921 421.932 267.344 421.634 267.837C421.341 268.33 421.109 268.887 420.938 269.507C420.772 270.122 420.674 270.786 420.645 271.499C420.611 272.231 420.65 272.905 420.762 273.521C420.875 274.131 421.055 274.675 421.304 275.154C421.558 275.637 421.878 276.045 422.264 276.377C422.649 276.714 423.096 276.968 423.604 277.139C424.112 277.314 424.678 277.402 425.303 277.402C425.733 277.402 426.167 277.351 426.607 277.249C427.051 277.146 427.422 277.007 427.72 276.831L427.999 277.666C427.657 277.886 427.229 278.049 426.717 278.157C426.209 278.264 425.728 278.318 425.274 278.318C424.532 278.318 423.853 278.215 423.238 278.01C422.627 277.81 422.085 277.515 421.612 277.124C421.143 276.738 420.752 276.267 420.44 275.71C420.127 275.159 419.898 274.529 419.751 273.821C419.605 273.113 419.549 272.339 419.583 271.499C419.617 270.698 419.737 269.944 419.942 269.236C420.152 268.528 420.438 267.886 420.799 267.31C421.16 266.733 421.59 266.238 422.088 265.823C422.591 265.403 423.155 265.081 423.78 264.856C424.41 264.631 425.093 264.519 425.831 264.519C426.583 264.519 427.264 264.622 427.874 264.827C428.484 265.032 429.019 265.327 429.478 265.713C429.942 266.099 430.325 266.57 430.628 267.126C430.931 267.683 431.15 268.313 431.287 269.016C431.429 269.719 431.482 270.486 431.448 271.316ZM423.926 271.938C423.892 272.28 423.892 272.585 423.926 272.854C423.96 273.123 424.026 273.35 424.124 273.535C424.222 273.721 424.349 273.862 424.505 273.96C424.666 274.053 424.854 274.099 425.069 274.099C425.21 274.099 425.359 274.065 425.516 273.997C425.672 273.923 425.826 273.811 425.977 273.66C426.128 273.508 426.27 273.311 426.402 273.066C426.534 272.822 426.644 272.529 426.731 272.188L427.215 272.715C427.103 273.115 426.956 273.467 426.775 273.77C426.6 274.072 426.402 274.326 426.182 274.531C425.962 274.736 425.728 274.893 425.479 275C425.235 275.103 424.986 275.154 424.732 275.154C424.375 275.154 424.063 275.078 423.794 274.927C423.526 274.771 423.309 274.551 423.143 274.268C422.977 273.984 422.859 273.647 422.791 273.257C422.728 272.861 422.718 272.422 422.762 271.938C422.806 271.426 422.896 270.952 423.033 270.518C423.169 270.083 423.338 269.695 423.538 269.353C423.743 269.011 423.973 268.721 424.227 268.481C424.485 268.242 424.759 268.062 425.047 267.939C425.335 267.812 425.63 267.749 425.933 267.749C426.46 267.749 426.875 267.827 427.178 267.983C427.481 268.135 427.769 268.315 428.042 268.525L427.42 269.25C427.278 269.114 427.093 268.987 426.863 268.87C426.634 268.752 426.363 268.694 426.05 268.694C425.782 268.694 425.53 268.762 425.296 268.899C425.062 269.036 424.849 269.241 424.659 269.514C424.473 269.788 424.317 270.127 424.19 270.532C424.063 270.933 423.975 271.401 423.926 271.938ZM436.531 275.146C435.979 275.146 435.479 275.054 435.03 274.868C434.585 274.678 434.202 274.412 433.88 274.07C433.562 273.728 433.318 273.323 433.147 272.854C432.977 272.385 432.891 271.873 432.891 271.316V271.008C432.891 270.364 432.986 269.79 433.177 269.287C433.367 268.779 433.626 268.35 433.953 267.998C434.28 267.646 434.651 267.38 435.066 267.2C435.481 267.019 435.911 266.929 436.355 266.929C436.922 266.929 437.41 267.026 437.82 267.222C438.235 267.417 438.575 267.69 438.838 268.042C439.102 268.389 439.297 268.799 439.424 269.272C439.551 269.741 439.615 270.254 439.615 270.811V271.418H433.697V270.312H438.26V270.21C438.24 269.858 438.167 269.517 438.04 269.185C437.918 268.853 437.723 268.579 437.454 268.364C437.186 268.149 436.819 268.042 436.355 268.042C436.048 268.042 435.765 268.108 435.506 268.24C435.247 268.367 435.025 268.557 434.839 268.811C434.654 269.065 434.51 269.375 434.407 269.741C434.305 270.107 434.253 270.53 434.253 271.008V271.316C434.253 271.692 434.305 272.046 434.407 272.378C434.515 272.705 434.668 272.993 434.869 273.242C435.074 273.491 435.32 273.687 435.608 273.828C435.901 273.97 436.233 274.041 436.604 274.041C437.083 274.041 437.488 273.943 437.82 273.748C438.152 273.552 438.443 273.291 438.692 272.964L439.512 273.616C439.341 273.875 439.124 274.121 438.86 274.355C438.597 274.59 438.272 274.78 437.886 274.927C437.505 275.073 437.054 275.146 436.531 275.146ZM442.544 268.65V275H441.182V267.075H442.471L442.544 268.65ZM442.266 270.737L441.636 270.715C441.641 270.173 441.712 269.673 441.849 269.214C441.985 268.75 442.188 268.347 442.457 268.005C442.725 267.664 443.06 267.4 443.46 267.214C443.86 267.024 444.324 266.929 444.852 266.929C445.223 266.929 445.564 266.982 445.877 267.09C446.189 267.192 446.46 267.356 446.69 267.581C446.919 267.805 447.098 268.093 447.225 268.445C447.352 268.796 447.415 269.221 447.415 269.719V275H446.06V269.785C446.06 269.37 445.989 269.038 445.848 268.789C445.711 268.54 445.516 268.359 445.262 268.247C445.008 268.13 444.71 268.071 444.368 268.071C443.968 268.071 443.633 268.142 443.365 268.284C443.096 268.425 442.881 268.621 442.72 268.87C442.559 269.119 442.442 269.404 442.369 269.727C442.3 270.044 442.266 270.381 442.266 270.737ZM447.4 269.99L446.492 270.269C446.497 269.834 446.568 269.417 446.705 269.016C446.846 268.616 447.049 268.259 447.312 267.947C447.581 267.634 447.911 267.388 448.301 267.207C448.692 267.021 449.139 266.929 449.642 266.929C450.066 266.929 450.442 266.985 450.77 267.097C451.102 267.209 451.38 267.383 451.604 267.617C451.834 267.847 452.007 268.142 452.125 268.503C452.242 268.865 452.3 269.294 452.3 269.792V275H450.938V269.778C450.938 269.333 450.867 268.989 450.726 268.745C450.589 268.496 450.394 268.323 450.14 268.225C449.891 268.123 449.593 268.071 449.246 268.071C448.948 268.071 448.685 268.123 448.455 268.225C448.226 268.328 448.033 268.469 447.876 268.65C447.72 268.826 447.601 269.028 447.518 269.258C447.439 269.487 447.4 269.731 447.4 269.99ZM459.024 273.645V269.565C459.024 269.253 458.96 268.982 458.833 268.752C458.711 268.518 458.526 268.337 458.277 268.21C458.028 268.083 457.72 268.02 457.354 268.02C457.012 268.02 456.712 268.079 456.453 268.196C456.199 268.313 455.999 268.467 455.853 268.657C455.711 268.848 455.64 269.053 455.64 269.272H454.285C454.285 268.989 454.358 268.708 454.505 268.43C454.651 268.152 454.861 267.9 455.135 267.676C455.413 267.446 455.745 267.266 456.131 267.134C456.521 266.997 456.956 266.929 457.435 266.929C458.011 266.929 458.519 267.026 458.958 267.222C459.402 267.417 459.749 267.712 459.998 268.108C460.252 268.499 460.379 268.989 460.379 269.58V273.271C460.379 273.535 460.401 273.816 460.445 274.114C460.494 274.412 460.564 274.668 460.657 274.883V275H459.244C459.175 274.844 459.122 274.636 459.083 274.377C459.043 274.114 459.024 273.87 459.024 273.645ZM459.258 270.195L459.273 271.147H457.903C457.518 271.147 457.173 271.179 456.871 271.243C456.568 271.301 456.314 271.392 456.109 271.514C455.904 271.636 455.748 271.79 455.64 271.975C455.533 272.156 455.479 272.368 455.479 272.612C455.479 272.861 455.535 273.088 455.647 273.293C455.76 273.499 455.928 273.662 456.153 273.784C456.382 273.901 456.663 273.96 456.995 273.96C457.41 273.96 457.776 273.872 458.094 273.696C458.411 273.521 458.663 273.306 458.848 273.052C459.039 272.798 459.141 272.551 459.156 272.312L459.734 272.964C459.7 273.169 459.607 273.396 459.456 273.645C459.305 273.894 459.102 274.133 458.848 274.363C458.599 274.587 458.301 274.775 457.955 274.927C457.613 275.073 457.227 275.146 456.797 275.146C456.26 275.146 455.789 275.042 455.384 274.832C454.983 274.622 454.671 274.341 454.446 273.989C454.227 273.633 454.117 273.235 454.117 272.795C454.117 272.371 454.2 271.997 454.366 271.675C454.532 271.348 454.771 271.077 455.083 270.862C455.396 270.642 455.772 270.476 456.211 270.364C456.651 270.251 457.142 270.195 457.684 270.195H459.258ZM463.982 267.075V275H462.62V267.075H463.982ZM462.518 264.973C462.518 264.753 462.583 264.568 462.715 264.417C462.852 264.265 463.052 264.189 463.316 264.189C463.575 264.189 463.772 264.265 463.909 264.417C464.051 264.568 464.122 264.753 464.122 264.973C464.122 265.183 464.051 265.364 463.909 265.515C463.772 265.662 463.575 265.735 463.316 265.735C463.052 265.735 462.852 265.662 462.715 265.515C462.583 265.364 462.518 265.183 462.518 264.973ZM467.63 263.75V275H466.268V263.75H467.63ZM469.827 274.282C469.827 274.053 469.898 273.86 470.04 273.704C470.186 273.542 470.396 273.462 470.669 273.462C470.943 273.462 471.15 273.542 471.292 273.704C471.438 273.86 471.512 274.053 471.512 274.282C471.512 274.507 471.438 274.697 471.292 274.854C471.15 275.01 470.943 275.088 470.669 275.088C470.396 275.088 470.186 275.01 470.04 274.854C469.898 274.697 469.827 274.507 469.827 274.282ZM476.932 274.033C477.254 274.033 477.552 273.967 477.825 273.835C478.099 273.704 478.323 273.523 478.499 273.293C478.675 273.059 478.775 272.793 478.799 272.495H480.088C480.064 272.964 479.905 273.401 479.612 273.806C479.324 274.207 478.946 274.531 478.477 274.78C478.008 275.024 477.493 275.146 476.932 275.146C476.336 275.146 475.816 275.042 475.372 274.832C474.932 274.622 474.566 274.333 474.273 273.967C473.985 273.601 473.768 273.181 473.621 272.708C473.479 272.229 473.409 271.724 473.409 271.191V270.884C473.409 270.352 473.479 269.849 473.621 269.375C473.768 268.896 473.985 268.474 474.273 268.108C474.566 267.742 474.932 267.454 475.372 267.244C475.816 267.034 476.336 266.929 476.932 266.929C477.552 266.929 478.094 267.056 478.558 267.31C479.021 267.559 479.385 267.9 479.649 268.335C479.917 268.765 480.064 269.253 480.088 269.8H478.799C478.775 269.473 478.682 269.177 478.521 268.914C478.365 268.65 478.15 268.44 477.876 268.284C477.608 268.123 477.293 268.042 476.932 268.042C476.517 268.042 476.167 268.125 475.884 268.291C475.606 268.452 475.384 268.672 475.218 268.95C475.057 269.224 474.939 269.529 474.866 269.866C474.798 270.198 474.764 270.537 474.764 270.884V271.191C474.764 271.538 474.798 271.88 474.866 272.217C474.935 272.554 475.049 272.859 475.21 273.132C475.376 273.406 475.599 273.625 475.877 273.792C476.16 273.953 476.512 274.033 476.932 274.033ZM481.253 271.125V270.957C481.253 270.386 481.336 269.856 481.502 269.368C481.668 268.875 481.907 268.447 482.22 268.086C482.532 267.72 482.911 267.437 483.355 267.236C483.799 267.031 484.297 266.929 484.849 266.929C485.406 266.929 485.906 267.031 486.351 267.236C486.8 267.437 487.181 267.72 487.493 268.086C487.811 268.447 488.052 268.875 488.218 269.368C488.384 269.856 488.467 270.386 488.467 270.957V271.125C488.467 271.697 488.384 272.227 488.218 272.715C488.052 273.203 487.811 273.63 487.493 273.997C487.181 274.358 486.802 274.641 486.358 274.846C485.918 275.046 485.42 275.146 484.864 275.146C484.307 275.146 483.807 275.046 483.362 274.846C482.918 274.641 482.537 274.358 482.22 273.997C481.907 273.63 481.668 273.203 481.502 272.715C481.336 272.227 481.253 271.697 481.253 271.125ZM482.608 270.957V271.125C482.608 271.521 482.654 271.895 482.747 272.246C482.84 272.593 482.979 272.9 483.165 273.169C483.355 273.438 483.592 273.65 483.875 273.806C484.158 273.958 484.488 274.033 484.864 274.033C485.235 274.033 485.56 273.958 485.838 273.806C486.121 273.65 486.355 273.438 486.541 273.169C486.727 272.9 486.866 272.593 486.958 272.246C487.056 271.895 487.105 271.521 487.105 271.125V270.957C487.105 270.566 487.056 270.198 486.958 269.851C486.866 269.5 486.724 269.189 486.534 268.921C486.348 268.647 486.114 268.433 485.831 268.276C485.552 268.12 485.225 268.042 484.849 268.042C484.478 268.042 484.151 268.12 483.868 268.276C483.589 268.433 483.355 268.647 483.165 268.921C482.979 269.189 482.84 269.5 482.747 269.851C482.654 270.198 482.608 270.566 482.608 270.957ZM491.514 268.65V275H490.152V267.075H491.441L491.514 268.65ZM491.236 270.737L490.606 270.715C490.611 270.173 490.682 269.673 490.818 269.214C490.955 268.75 491.158 268.347 491.426 268.005C491.695 267.664 492.029 267.4 492.43 267.214C492.83 267.024 493.294 266.929 493.821 266.929C494.192 266.929 494.534 266.982 494.847 267.09C495.159 267.192 495.43 267.356 495.66 267.581C495.889 267.805 496.067 268.093 496.194 268.445C496.321 268.796 496.385 269.221 496.385 269.719V275H495.03V269.785C495.03 269.37 494.959 269.038 494.817 268.789C494.681 268.54 494.485 268.359 494.231 268.247C493.978 268.13 493.68 268.071 493.338 268.071C492.938 268.071 492.603 268.142 492.334 268.284C492.066 268.425 491.851 268.621 491.69 268.87C491.529 269.119 491.412 269.404 491.338 269.727C491.27 270.044 491.236 270.381 491.236 270.737ZM496.37 269.99L495.462 270.269C495.467 269.834 495.538 269.417 495.674 269.016C495.816 268.616 496.019 268.259 496.282 267.947C496.551 267.634 496.88 267.388 497.271 267.207C497.662 267.021 498.108 266.929 498.611 266.929C499.036 266.929 499.412 266.985 499.739 267.097C500.071 267.209 500.35 267.383 500.574 267.617C500.804 267.847 500.977 268.142 501.094 268.503C501.211 268.865 501.27 269.294 501.27 269.792V275H499.908V269.778C499.908 269.333 499.837 268.989 499.695 268.745C499.559 268.496 499.363 268.323 499.109 268.225C498.86 268.123 498.562 268.071 498.216 268.071C497.918 268.071 497.654 268.123 497.425 268.225C497.195 268.328 497.002 268.469 496.846 268.65C496.69 268.826 496.57 269.028 496.487 269.258C496.409 269.487 496.37 269.731 496.37 269.99Z" fill="#505050"/>
<path d="M738 270C738 270.51 737.587 270.923 737.077 270.923H732.923V275.077C732.923 275.588 732.51 276 732 276C731.49 276 731.077 275.588 731.077 275.077V270.923H726.923C726.413 270.923 726 270.51 726 270C726 269.49 726.413 269.077 726.923 269.077H731.077V264.923C731.077 264.413 731.49 264 732 264C732.51 264 732.923 264.413 732.923 264.923V269.077H737.077C737.588 269.077 738 269.489 738 270Z" fill="#1A1A1A"/>
</svg>
