<svg width="620" height="320" viewBox="0 0 620 320" fill="none" xmlns="http://www.w3.org/2000/svg">
<rect width="620" height="320" rx="16" fill="#F8F8F8"/>
<line x1="150.5" y1="160" x2="150.5" y2="136" stroke="#0059FF"/>
<rect x="139" y="112" width="24" height="24" rx="12" fill="#0059FF"/>
<path d="M152.181 118.726V128H150.651V120.542L148.385 121.31V120.046L151.997 118.726H152.181Z" fill="white"/>
<line x1="219.5" y1="160" x2="219.5" y2="136" stroke="#0059FF"/>
<rect x="208" y="112" width="24" height="24" rx="12" fill="#0059FF"/>
<path d="M223.199 126.781V128H217.004V126.953L220.013 123.671C220.343 123.299 220.603 122.977 220.793 122.706C220.984 122.435 221.117 122.192 221.193 121.976C221.274 121.756 221.314 121.542 221.314 121.335C221.314 121.043 221.259 120.787 221.149 120.567C221.043 120.343 220.887 120.167 220.679 120.04C220.472 119.909 220.22 119.843 219.924 119.843C219.581 119.843 219.293 119.917 219.061 120.065C218.828 120.214 218.652 120.419 218.534 120.681C218.415 120.939 218.356 121.236 218.356 121.57H216.826C216.826 121.032 216.949 120.542 217.194 120.097C217.44 119.649 217.795 119.293 218.261 119.031C218.726 118.764 219.287 118.631 219.943 118.631C220.561 118.631 221.085 118.735 221.517 118.942C221.949 119.149 222.277 119.443 222.501 119.824C222.729 120.205 222.844 120.656 222.844 121.176C222.844 121.464 222.797 121.75 222.704 122.033C222.611 122.317 222.478 122.6 222.304 122.884C222.135 123.163 221.934 123.444 221.701 123.728C221.468 124.007 221.212 124.291 220.933 124.579L218.934 126.781H223.199Z" fill="white"/>
<rect x="140" y="160" width="20" height="20" rx="4" fill="#0059FF"/>
<path d="M148.238 174.088L144.338 170.166C144.104 169.93 144.104 169.548 144.338 169.312L145.186 168.459C145.421 168.223 145.801 168.223 146.035 168.459L148.662 171.101L153.965 165.912C154.199 165.676 154.579 165.676 154.814 165.912L155.662 166.765C155.896 167.001 155.896 167.383 155.662 167.618L149.086 174.088C148.852 174.324 148.472 174.324 148.238 174.088Z" fill="white"/>
<path d="M175.676 171.609H177.082C177.009 172.283 176.816 172.886 176.503 173.418C176.191 173.95 175.749 174.373 175.178 174.685C174.606 174.993 173.894 175.146 173.039 175.146C172.414 175.146 171.845 175.029 171.333 174.795C170.825 174.561 170.388 174.229 170.021 173.799C169.655 173.364 169.372 172.844 169.172 172.239C168.977 171.628 168.879 170.95 168.879 170.203V169.141C168.879 168.394 168.977 167.717 169.172 167.112C169.372 166.501 169.658 165.979 170.029 165.544C170.405 165.11 170.856 164.775 171.384 164.541C171.911 164.307 172.504 164.189 173.164 164.189C173.969 164.189 174.65 164.341 175.207 164.644C175.764 164.946 176.196 165.366 176.503 165.903C176.816 166.436 177.009 167.053 177.082 167.756H175.676C175.607 167.258 175.48 166.831 175.295 166.475C175.109 166.113 174.846 165.835 174.504 165.64C174.162 165.444 173.715 165.347 173.164 165.347C172.69 165.347 172.272 165.437 171.911 165.618C171.555 165.798 171.254 166.055 171.01 166.387C170.771 166.719 170.59 167.117 170.468 167.581C170.346 168.044 170.285 168.56 170.285 169.126V170.203C170.285 170.725 170.339 171.216 170.446 171.675C170.559 172.134 170.727 172.537 170.952 172.883C171.176 173.23 171.462 173.503 171.809 173.704C172.155 173.899 172.565 173.997 173.039 173.997C173.64 173.997 174.118 173.901 174.475 173.711C174.831 173.521 175.1 173.247 175.28 172.891C175.466 172.534 175.598 172.107 175.676 171.609ZM180.158 163.75V175H178.803V163.75H180.158ZM179.836 170.737L179.272 170.715C179.277 170.173 179.357 169.673 179.514 169.214C179.67 168.75 179.89 168.347 180.173 168.005C180.456 167.664 180.793 167.4 181.184 167.214C181.579 167.024 182.016 166.929 182.495 166.929C182.885 166.929 183.237 166.982 183.549 167.09C183.862 167.192 184.128 167.358 184.348 167.588C184.572 167.817 184.743 168.115 184.86 168.481C184.978 168.843 185.036 169.285 185.036 169.807V175H183.674V169.792C183.674 169.377 183.613 169.045 183.491 168.796C183.369 168.542 183.19 168.359 182.956 168.247C182.722 168.13 182.434 168.071 182.092 168.071C181.755 168.071 181.447 168.142 181.169 168.284C180.896 168.425 180.659 168.621 180.458 168.87C180.263 169.119 180.109 169.404 179.997 169.727C179.89 170.044 179.836 170.381 179.836 170.737ZM190.354 175.146C189.802 175.146 189.301 175.054 188.852 174.868C188.408 174.678 188.024 174.412 187.702 174.07C187.385 173.728 187.141 173.323 186.97 172.854C186.799 172.385 186.713 171.873 186.713 171.316V171.008C186.713 170.364 186.809 169.79 186.999 169.287C187.189 168.779 187.448 168.35 187.775 167.998C188.103 167.646 188.474 167.38 188.889 167.2C189.304 167.019 189.733 166.929 190.178 166.929C190.744 166.929 191.232 167.026 191.643 167.222C192.058 167.417 192.397 167.69 192.661 168.042C192.924 168.389 193.12 168.799 193.247 169.272C193.374 169.741 193.437 170.254 193.437 170.811V171.418H187.519V170.312H192.082V170.21C192.062 169.858 191.989 169.517 191.862 169.185C191.74 168.853 191.545 168.579 191.276 168.364C191.008 168.149 190.642 168.042 190.178 168.042C189.87 168.042 189.587 168.108 189.328 168.24C189.069 168.367 188.847 168.557 188.662 168.811C188.476 169.065 188.332 169.375 188.229 169.741C188.127 170.107 188.076 170.53 188.076 171.008V171.316C188.076 171.692 188.127 172.046 188.229 172.378C188.337 172.705 188.491 172.993 188.691 173.242C188.896 173.491 189.143 173.687 189.431 173.828C189.724 173.97 190.056 174.041 190.427 174.041C190.905 174.041 191.311 173.943 191.643 173.748C191.975 173.552 192.265 173.291 192.514 172.964L193.334 173.616C193.164 173.875 192.946 174.121 192.683 174.355C192.419 174.59 192.094 174.78 191.708 174.927C191.328 175.073 190.876 175.146 190.354 175.146ZM198.19 174.033C198.513 174.033 198.811 173.967 199.084 173.835C199.357 173.704 199.582 173.523 199.758 173.293C199.934 173.059 200.034 172.793 200.058 172.495H201.347C201.323 172.964 201.164 173.401 200.871 173.806C200.583 174.207 200.205 174.531 199.736 174.78C199.267 175.024 198.752 175.146 198.19 175.146C197.595 175.146 197.075 175.042 196.63 174.832C196.191 174.622 195.825 174.333 195.532 173.967C195.244 173.601 195.026 173.181 194.88 172.708C194.738 172.229 194.667 171.724 194.667 171.191V170.884C194.667 170.352 194.738 169.849 194.88 169.375C195.026 168.896 195.244 168.474 195.532 168.108C195.825 167.742 196.191 167.454 196.63 167.244C197.075 167.034 197.595 166.929 198.19 166.929C198.811 166.929 199.353 167.056 199.816 167.31C200.28 167.559 200.644 167.9 200.908 168.335C201.176 168.765 201.323 169.253 201.347 169.8H200.058C200.034 169.473 199.941 169.177 199.78 168.914C199.624 168.65 199.409 168.44 199.135 168.284C198.867 168.123 198.552 168.042 198.19 168.042C197.775 168.042 197.426 168.125 197.143 168.291C196.865 168.452 196.643 168.672 196.477 168.95C196.315 169.224 196.198 169.529 196.125 169.866C196.057 170.198 196.022 170.537 196.022 170.884V171.191C196.022 171.538 196.057 171.88 196.125 172.217C196.193 172.554 196.308 172.859 196.469 173.132C196.635 173.406 196.857 173.625 197.136 173.792C197.419 173.953 197.771 174.033 198.19 174.033ZM204.233 163.75V175H202.871V163.75H204.233ZM209.074 167.075L205.617 170.774L203.684 172.781L203.574 171.338L204.958 169.683L207.419 167.075H209.074ZM207.836 175L205.009 171.221L205.712 170.012L209.433 175H207.836ZM210.466 163.75H211.828V173.462L211.711 175H210.466V163.75ZM217.182 170.972V171.125C217.182 171.702 217.114 172.236 216.977 172.729C216.84 173.218 216.64 173.643 216.376 174.004C216.113 174.365 215.791 174.646 215.41 174.846C215.029 175.046 214.592 175.146 214.099 175.146C213.596 175.146 213.154 175.061 212.773 174.89C212.397 174.714 212.08 174.463 211.821 174.136C211.562 173.809 211.354 173.413 211.198 172.949C211.047 172.485 210.942 171.963 210.883 171.382V170.708C210.942 170.122 211.047 169.597 211.198 169.133C211.354 168.669 211.562 168.274 211.821 167.947C212.08 167.615 212.397 167.363 212.773 167.192C213.149 167.017 213.586 166.929 214.084 166.929C214.582 166.929 215.024 167.026 215.41 167.222C215.795 167.412 216.118 167.686 216.376 168.042C216.64 168.398 216.84 168.826 216.977 169.324C217.114 169.817 217.182 170.366 217.182 170.972ZM215.82 171.125V170.972C215.82 170.576 215.783 170.205 215.71 169.858C215.637 169.507 215.52 169.199 215.358 168.936C215.197 168.667 214.985 168.457 214.721 168.306C214.458 168.149 214.133 168.071 213.747 168.071C213.405 168.071 213.107 168.13 212.854 168.247C212.604 168.364 212.392 168.523 212.216 168.723C212.041 168.918 211.896 169.143 211.784 169.397C211.677 169.646 211.596 169.905 211.542 170.173V171.938C211.621 172.28 211.748 172.61 211.923 172.927C212.104 173.24 212.343 173.496 212.641 173.696C212.944 173.896 213.317 173.997 213.762 173.997C214.128 173.997 214.44 173.923 214.699 173.777C214.963 173.625 215.175 173.418 215.336 173.154C215.502 172.891 215.625 172.585 215.703 172.239C215.781 171.892 215.82 171.521 215.82 171.125ZM218.537 171.125V170.957C218.537 170.386 218.62 169.856 218.786 169.368C218.952 168.875 219.191 168.447 219.504 168.086C219.816 167.72 220.195 167.437 220.639 167.236C221.083 167.031 221.582 166.929 222.133 166.929C222.69 166.929 223.19 167.031 223.635 167.236C224.084 167.437 224.465 167.72 224.777 168.086C225.095 168.447 225.336 168.875 225.502 169.368C225.668 169.856 225.751 170.386 225.751 170.957V171.125C225.751 171.697 225.668 172.227 225.502 172.715C225.336 173.203 225.095 173.63 224.777 173.997C224.465 174.358 224.086 174.641 223.642 174.846C223.203 175.046 222.705 175.146 222.148 175.146C221.591 175.146 221.091 175.046 220.646 174.846C220.202 174.641 219.821 174.358 219.504 173.997C219.191 173.63 218.952 173.203 218.786 172.715C218.62 172.227 218.537 171.697 218.537 171.125ZM219.892 170.957V171.125C219.892 171.521 219.938 171.895 220.031 172.246C220.124 172.593 220.263 172.9 220.449 173.169C220.639 173.438 220.876 173.65 221.159 173.806C221.442 173.958 221.772 174.033 222.148 174.033C222.519 174.033 222.844 173.958 223.122 173.806C223.405 173.65 223.64 173.438 223.825 173.169C224.011 172.9 224.15 172.593 224.243 172.246C224.34 171.895 224.389 171.521 224.389 171.125V170.957C224.389 170.566 224.34 170.198 224.243 169.851C224.15 169.5 224.008 169.189 223.818 168.921C223.632 168.647 223.398 168.433 223.115 168.276C222.836 168.12 222.509 168.042 222.133 168.042C221.762 168.042 221.435 168.12 221.152 168.276C220.874 168.433 220.639 168.647 220.449 168.921C220.263 169.189 220.124 169.5 220.031 169.851C219.938 170.198 219.892 170.566 219.892 170.957ZM228.205 167.075L229.941 169.961L231.699 167.075H233.288L230.695 170.986L233.369 175H231.801L229.97 172.026L228.139 175H226.564L229.23 170.986L226.645 167.075H228.205ZM239.924 163.75V175H238.562V163.75H239.924ZM246.772 173.645V169.565C246.772 169.253 246.708 168.982 246.582 168.752C246.459 168.518 246.274 168.337 246.025 168.21C245.776 168.083 245.468 168.02 245.102 168.02C244.76 168.02 244.46 168.079 244.201 168.196C243.947 168.313 243.747 168.467 243.601 168.657C243.459 168.848 243.388 169.053 243.388 169.272H242.033C242.033 168.989 242.106 168.708 242.253 168.43C242.399 168.152 242.609 167.9 242.883 167.676C243.161 167.446 243.493 167.266 243.879 167.134C244.27 166.997 244.704 166.929 245.183 166.929C245.759 166.929 246.267 167.026 246.706 167.222C247.15 167.417 247.497 167.712 247.746 168.108C248 168.499 248.127 168.989 248.127 169.58V173.271C248.127 173.535 248.149 173.816 248.193 174.114C248.242 174.412 248.312 174.668 248.405 174.883V175H246.992C246.923 174.844 246.87 174.636 246.831 174.377C246.792 174.114 246.772 173.87 246.772 173.645ZM247.006 170.195L247.021 171.147H245.651C245.266 171.147 244.921 171.179 244.619 171.243C244.316 171.301 244.062 171.392 243.857 171.514C243.652 171.636 243.496 171.79 243.388 171.975C243.281 172.156 243.227 172.368 243.227 172.612C243.227 172.861 243.283 173.088 243.396 173.293C243.508 173.499 243.676 173.662 243.901 173.784C244.13 173.901 244.411 173.96 244.743 173.96C245.158 173.96 245.524 173.872 245.842 173.696C246.159 173.521 246.411 173.306 246.596 173.052C246.787 172.798 246.889 172.551 246.904 172.312L247.482 172.964C247.448 173.169 247.355 173.396 247.204 173.645C247.053 173.894 246.85 174.133 246.596 174.363C246.347 174.587 246.049 174.775 245.703 174.927C245.361 175.073 244.975 175.146 244.545 175.146C244.008 175.146 243.537 175.042 243.132 174.832C242.731 174.622 242.419 174.341 242.194 173.989C241.975 173.633 241.865 173.235 241.865 172.795C241.865 172.371 241.948 171.997 242.114 171.675C242.28 171.348 242.519 171.077 242.832 170.862C243.144 170.642 243.52 170.476 243.959 170.364C244.399 170.251 244.89 170.195 245.432 170.195H247.006ZM250.251 163.75H251.613V173.462L251.496 175H250.251V163.75ZM256.967 170.972V171.125C256.967 171.702 256.899 172.236 256.762 172.729C256.625 173.218 256.425 173.643 256.162 174.004C255.898 174.365 255.576 174.646 255.195 174.846C254.814 175.046 254.377 175.146 253.884 175.146C253.381 175.146 252.939 175.061 252.558 174.89C252.182 174.714 251.865 174.463 251.606 174.136C251.347 173.809 251.14 173.413 250.983 172.949C250.832 172.485 250.727 171.963 250.668 171.382V170.708C250.727 170.122 250.832 169.597 250.983 169.133C251.14 168.669 251.347 168.274 251.606 167.947C251.865 167.615 252.182 167.363 252.558 167.192C252.934 167.017 253.371 166.929 253.869 166.929C254.367 166.929 254.809 167.026 255.195 167.222C255.581 167.412 255.903 167.686 256.162 168.042C256.425 168.398 256.625 168.826 256.762 169.324C256.899 169.817 256.967 170.366 256.967 170.972ZM255.605 171.125V170.972C255.605 170.576 255.568 170.205 255.495 169.858C255.422 169.507 255.305 169.199 255.144 168.936C254.982 168.667 254.77 168.457 254.506 168.306C254.243 168.149 253.918 168.071 253.532 168.071C253.19 168.071 252.893 168.13 252.639 168.247C252.39 168.364 252.177 168.523 252.001 168.723C251.826 168.918 251.682 169.143 251.569 169.397C251.462 169.646 251.381 169.905 251.328 170.173V171.938C251.406 172.28 251.533 172.61 251.708 172.927C251.889 173.24 252.128 173.496 252.426 173.696C252.729 173.896 253.103 173.997 253.547 173.997C253.913 173.997 254.226 173.923 254.484 173.777C254.748 173.625 254.96 173.418 255.122 173.154C255.288 172.891 255.41 172.585 255.488 172.239C255.566 171.892 255.605 171.521 255.605 171.125ZM261.97 175.146C261.418 175.146 260.917 175.054 260.468 174.868C260.024 174.678 259.641 174.412 259.318 174.07C259.001 173.728 258.757 173.323 258.586 172.854C258.415 172.385 258.33 171.873 258.33 171.316V171.008C258.33 170.364 258.425 169.79 258.615 169.287C258.806 168.779 259.064 168.35 259.392 167.998C259.719 167.646 260.09 167.38 260.505 167.2C260.92 167.019 261.35 166.929 261.794 166.929C262.36 166.929 262.849 167.026 263.259 167.222C263.674 167.417 264.013 167.69 264.277 168.042C264.541 168.389 264.736 168.799 264.863 169.272C264.99 169.741 265.053 170.254 265.053 170.811V171.418H259.135V170.312H263.698V170.21C263.679 169.858 263.605 169.517 263.479 169.185C263.356 168.853 263.161 168.579 262.893 168.364C262.624 168.149 262.258 168.042 261.794 168.042C261.486 168.042 261.203 168.108 260.944 168.24C260.686 168.367 260.463 168.557 260.278 168.811C260.092 169.065 259.948 169.375 259.846 169.741C259.743 170.107 259.692 170.53 259.692 171.008V171.316C259.692 171.692 259.743 172.046 259.846 172.378C259.953 172.705 260.107 172.993 260.307 173.242C260.512 173.491 260.759 173.687 261.047 173.828C261.34 173.97 261.672 174.041 262.043 174.041C262.521 174.041 262.927 173.943 263.259 173.748C263.591 173.552 263.881 173.291 264.13 172.964L264.951 173.616C264.78 173.875 264.562 174.121 264.299 174.355C264.035 174.59 263.71 174.78 263.325 174.927C262.944 175.073 262.492 175.146 261.97 175.146ZM268.107 163.75V175H266.745V163.75H268.107Z" fill="#505050"/>
<rect x="350" y="160" width="20" height="20" rx="4" fill="#0059FF"/>
<path d="M358.238 174.088L354.338 170.166C354.104 169.93 354.104 169.548 354.338 169.312L355.186 168.459C355.421 168.223 355.801 168.223 356.035 168.459L358.662 171.101L363.965 165.912C364.199 165.676 364.579 165.676 364.814 165.912L365.662 166.765C365.896 167.001 365.896 167.383 365.662 167.618L359.086 174.088C358.852 174.324 358.472 174.324 358.238 174.088Z" fill="white"/>
<path d="M385.676 171.609H387.082C387.009 172.283 386.816 172.886 386.503 173.418C386.191 173.95 385.749 174.373 385.178 174.685C384.606 174.993 383.894 175.146 383.039 175.146C382.414 175.146 381.845 175.029 381.333 174.795C380.825 174.561 380.388 174.229 380.021 173.799C379.655 173.364 379.372 172.844 379.172 172.239C378.977 171.628 378.879 170.95 378.879 170.203V169.141C378.879 168.394 378.977 167.717 379.172 167.112C379.372 166.501 379.658 165.979 380.029 165.544C380.405 165.11 380.856 164.775 381.384 164.541C381.911 164.307 382.504 164.189 383.164 164.189C383.969 164.189 384.65 164.341 385.207 164.644C385.764 164.946 386.196 165.366 386.503 165.903C386.816 166.436 387.009 167.053 387.082 167.756H385.676C385.607 167.258 385.48 166.831 385.295 166.475C385.109 166.113 384.846 165.835 384.504 165.64C384.162 165.444 383.715 165.347 383.164 165.347C382.69 165.347 382.272 165.437 381.911 165.618C381.555 165.798 381.254 166.055 381.01 166.387C380.771 166.719 380.59 167.117 380.468 167.581C380.346 168.044 380.285 168.56 380.285 169.126V170.203C380.285 170.725 380.339 171.216 380.446 171.675C380.559 172.134 380.727 172.537 380.952 172.883C381.176 173.23 381.462 173.503 381.809 173.704C382.155 173.899 382.565 173.997 383.039 173.997C383.64 173.997 384.118 173.901 384.475 173.711C384.831 173.521 385.1 173.247 385.28 172.891C385.466 172.534 385.598 172.107 385.676 171.609ZM390.158 163.75V175H388.803V163.75H390.158ZM389.836 170.737L389.272 170.715C389.277 170.173 389.357 169.673 389.514 169.214C389.67 168.75 389.89 168.347 390.173 168.005C390.456 167.664 390.793 167.4 391.184 167.214C391.579 167.024 392.016 166.929 392.495 166.929C392.885 166.929 393.237 166.982 393.549 167.09C393.862 167.192 394.128 167.358 394.348 167.588C394.572 167.817 394.743 168.115 394.86 168.481C394.978 168.843 395.036 169.285 395.036 169.807V175H393.674V169.792C393.674 169.377 393.613 169.045 393.491 168.796C393.369 168.542 393.19 168.359 392.956 168.247C392.722 168.13 392.434 168.071 392.092 168.071C391.755 168.071 391.447 168.142 391.169 168.284C390.896 168.425 390.659 168.621 390.458 168.87C390.263 169.119 390.109 169.404 389.997 169.727C389.89 170.044 389.836 170.381 389.836 170.737ZM400.354 175.146C399.802 175.146 399.301 175.054 398.852 174.868C398.408 174.678 398.024 174.412 397.702 174.07C397.385 173.728 397.141 173.323 396.97 172.854C396.799 172.385 396.713 171.873 396.713 171.316V171.008C396.713 170.364 396.809 169.79 396.999 169.287C397.189 168.779 397.448 168.35 397.775 167.998C398.103 167.646 398.474 167.38 398.889 167.2C399.304 167.019 399.733 166.929 400.178 166.929C400.744 166.929 401.232 167.026 401.643 167.222C402.058 167.417 402.397 167.69 402.661 168.042C402.924 168.389 403.12 168.799 403.247 169.272C403.374 169.741 403.437 170.254 403.437 170.811V171.418H397.519V170.312H402.082V170.21C402.062 169.858 401.989 169.517 401.862 169.185C401.74 168.853 401.545 168.579 401.276 168.364C401.008 168.149 400.642 168.042 400.178 168.042C399.87 168.042 399.587 168.108 399.328 168.24C399.069 168.367 398.847 168.557 398.662 168.811C398.476 169.065 398.332 169.375 398.229 169.741C398.127 170.107 398.076 170.53 398.076 171.008V171.316C398.076 171.692 398.127 172.046 398.229 172.378C398.337 172.705 398.491 172.993 398.691 173.242C398.896 173.491 399.143 173.687 399.431 173.828C399.724 173.97 400.056 174.041 400.427 174.041C400.905 174.041 401.311 173.943 401.643 173.748C401.975 173.552 402.265 173.291 402.514 172.964L403.334 173.616C403.164 173.875 402.946 174.121 402.683 174.355C402.419 174.59 402.094 174.78 401.708 174.927C401.328 175.073 400.876 175.146 400.354 175.146ZM408.19 174.033C408.513 174.033 408.811 173.967 409.084 173.835C409.357 173.704 409.582 173.523 409.758 173.293C409.934 173.059 410.034 172.793 410.058 172.495H411.347C411.323 172.964 411.164 173.401 410.871 173.806C410.583 174.207 410.205 174.531 409.736 174.78C409.267 175.024 408.752 175.146 408.19 175.146C407.595 175.146 407.075 175.042 406.63 174.832C406.191 174.622 405.825 174.333 405.532 173.967C405.244 173.601 405.026 173.181 404.88 172.708C404.738 172.229 404.667 171.724 404.667 171.191V170.884C404.667 170.352 404.738 169.849 404.88 169.375C405.026 168.896 405.244 168.474 405.532 168.108C405.825 167.742 406.191 167.454 406.63 167.244C407.075 167.034 407.595 166.929 408.19 166.929C408.811 166.929 409.353 167.056 409.816 167.31C410.28 167.559 410.644 167.9 410.908 168.335C411.176 168.765 411.323 169.253 411.347 169.8H410.058C410.034 169.473 409.941 169.177 409.78 168.914C409.624 168.65 409.409 168.44 409.135 168.284C408.867 168.123 408.552 168.042 408.19 168.042C407.775 168.042 407.426 168.125 407.143 168.291C406.865 168.452 406.643 168.672 406.477 168.95C406.315 169.224 406.198 169.529 406.125 169.866C406.057 170.198 406.022 170.537 406.022 170.884V171.191C406.022 171.538 406.057 171.88 406.125 172.217C406.193 172.554 406.308 172.859 406.469 173.132C406.635 173.406 406.857 173.625 407.136 173.792C407.419 173.953 407.771 174.033 408.19 174.033ZM414.233 163.75V175H412.871V163.75H414.233ZM419.074 167.075L415.617 170.774L413.684 172.781L413.574 171.338L414.958 169.683L417.419 167.075H419.074ZM417.836 175L415.009 171.221L415.712 170.012L419.433 175H417.836ZM420.466 163.75H421.828V173.462L421.711 175H420.466V163.75ZM427.182 170.972V171.125C427.182 171.702 427.114 172.236 426.977 172.729C426.84 173.218 426.64 173.643 426.376 174.004C426.113 174.365 425.791 174.646 425.41 174.846C425.029 175.046 424.592 175.146 424.099 175.146C423.596 175.146 423.154 175.061 422.773 174.89C422.397 174.714 422.08 174.463 421.821 174.136C421.562 173.809 421.354 173.413 421.198 172.949C421.047 172.485 420.942 171.963 420.883 171.382V170.708C420.942 170.122 421.047 169.597 421.198 169.133C421.354 168.669 421.562 168.274 421.821 167.947C422.08 167.615 422.397 167.363 422.773 167.192C423.149 167.017 423.586 166.929 424.084 166.929C424.582 166.929 425.024 167.026 425.41 167.222C425.795 167.412 426.118 167.686 426.376 168.042C426.64 168.398 426.84 168.826 426.977 169.324C427.114 169.817 427.182 170.366 427.182 170.972ZM425.82 171.125V170.972C425.82 170.576 425.783 170.205 425.71 169.858C425.637 169.507 425.52 169.199 425.358 168.936C425.197 168.667 424.985 168.457 424.721 168.306C424.458 168.149 424.133 168.071 423.747 168.071C423.405 168.071 423.107 168.13 422.854 168.247C422.604 168.364 422.392 168.523 422.216 168.723C422.041 168.918 421.896 169.143 421.784 169.397C421.677 169.646 421.596 169.905 421.542 170.173V171.938C421.621 172.28 421.748 172.61 421.923 172.927C422.104 173.24 422.343 173.496 422.641 173.696C422.944 173.896 423.317 173.997 423.762 173.997C424.128 173.997 424.44 173.923 424.699 173.777C424.963 173.625 425.175 173.418 425.336 173.154C425.502 172.891 425.625 172.585 425.703 172.239C425.781 171.892 425.82 171.521 425.82 171.125ZM428.537 171.125V170.957C428.537 170.386 428.62 169.856 428.786 169.368C428.952 168.875 429.191 168.447 429.504 168.086C429.816 167.72 430.195 167.437 430.639 167.236C431.083 167.031 431.582 166.929 432.133 166.929C432.69 166.929 433.19 167.031 433.635 167.236C434.084 167.437 434.465 167.72 434.777 168.086C435.095 168.447 435.336 168.875 435.502 169.368C435.668 169.856 435.751 170.386 435.751 170.957V171.125C435.751 171.697 435.668 172.227 435.502 172.715C435.336 173.203 435.095 173.63 434.777 173.997C434.465 174.358 434.086 174.641 433.642 174.846C433.203 175.046 432.705 175.146 432.148 175.146C431.591 175.146 431.091 175.046 430.646 174.846C430.202 174.641 429.821 174.358 429.504 173.997C429.191 173.63 428.952 173.203 428.786 172.715C428.62 172.227 428.537 171.697 428.537 171.125ZM429.892 170.957V171.125C429.892 171.521 429.938 171.895 430.031 172.246C430.124 172.593 430.263 172.9 430.449 173.169C430.639 173.438 430.876 173.65 431.159 173.806C431.442 173.958 431.772 174.033 432.148 174.033C432.519 174.033 432.844 173.958 433.122 173.806C433.405 173.65 433.64 173.438 433.825 173.169C434.011 172.9 434.15 172.593 434.243 172.246C434.34 171.895 434.389 171.521 434.389 171.125V170.957C434.389 170.566 434.34 170.198 434.243 169.851C434.15 169.5 434.008 169.189 433.818 168.921C433.632 168.647 433.398 168.433 433.115 168.276C432.836 168.12 432.509 168.042 432.133 168.042C431.762 168.042 431.435 168.12 431.152 168.276C430.874 168.433 430.639 168.647 430.449 168.921C430.263 169.189 430.124 169.5 430.031 169.851C429.938 170.198 429.892 170.566 429.892 170.957ZM438.205 167.075L439.941 169.961L441.699 167.075H443.288L440.695 170.986L443.369 175H441.801L439.97 172.026L438.139 175H436.564L439.23 170.986L436.645 167.075H438.205ZM449.924 163.75V175H448.562V163.75H449.924ZM456.772 173.645V169.565C456.772 169.253 456.708 168.982 456.582 168.752C456.459 168.518 456.274 168.337 456.025 168.21C455.776 168.083 455.468 168.02 455.102 168.02C454.76 168.02 454.46 168.079 454.201 168.196C453.947 168.313 453.747 168.467 453.601 168.657C453.459 168.848 453.388 169.053 453.388 169.272H452.033C452.033 168.989 452.106 168.708 452.253 168.43C452.399 168.152 452.609 167.9 452.883 167.676C453.161 167.446 453.493 167.266 453.879 167.134C454.27 166.997 454.704 166.929 455.183 166.929C455.759 166.929 456.267 167.026 456.706 167.222C457.15 167.417 457.497 167.712 457.746 168.108C458 168.499 458.127 168.989 458.127 169.58V173.271C458.127 173.535 458.149 173.816 458.193 174.114C458.242 174.412 458.312 174.668 458.405 174.883V175H456.992C456.923 174.844 456.87 174.636 456.831 174.377C456.792 174.114 456.772 173.87 456.772 173.645ZM457.006 170.195L457.021 171.147H455.651C455.266 171.147 454.921 171.179 454.619 171.243C454.316 171.301 454.062 171.392 453.857 171.514C453.652 171.636 453.496 171.79 453.388 171.975C453.281 172.156 453.227 172.368 453.227 172.612C453.227 172.861 453.283 173.088 453.396 173.293C453.508 173.499 453.676 173.662 453.901 173.784C454.13 173.901 454.411 173.96 454.743 173.96C455.158 173.96 455.524 173.872 455.842 173.696C456.159 173.521 456.411 173.306 456.596 173.052C456.787 172.798 456.889 172.551 456.904 172.312L457.482 172.964C457.448 173.169 457.355 173.396 457.204 173.645C457.053 173.894 456.85 174.133 456.596 174.363C456.347 174.587 456.049 174.775 455.703 174.927C455.361 175.073 454.975 175.146 454.545 175.146C454.008 175.146 453.537 175.042 453.132 174.832C452.731 174.622 452.419 174.341 452.194 173.989C451.975 173.633 451.865 173.235 451.865 172.795C451.865 172.371 451.948 171.997 452.114 171.675C452.28 171.348 452.519 171.077 452.832 170.862C453.144 170.642 453.52 170.476 453.959 170.364C454.399 170.251 454.89 170.195 455.432 170.195H457.006ZM460.251 163.75H461.613V173.462L461.496 175H460.251V163.75ZM466.967 170.972V171.125C466.967 171.702 466.899 172.236 466.762 172.729C466.625 173.218 466.425 173.643 466.162 174.004C465.898 174.365 465.576 174.646 465.195 174.846C464.814 175.046 464.377 175.146 463.884 175.146C463.381 175.146 462.939 175.061 462.558 174.89C462.182 174.714 461.865 174.463 461.606 174.136C461.347 173.809 461.14 173.413 460.983 172.949C460.832 172.485 460.727 171.963 460.668 171.382V170.708C460.727 170.122 460.832 169.597 460.983 169.133C461.14 168.669 461.347 168.274 461.606 167.947C461.865 167.615 462.182 167.363 462.558 167.192C462.934 167.017 463.371 166.929 463.869 166.929C464.367 166.929 464.809 167.026 465.195 167.222C465.581 167.412 465.903 167.686 466.162 168.042C466.425 168.398 466.625 168.826 466.762 169.324C466.899 169.817 466.967 170.366 466.967 170.972ZM465.605 171.125V170.972C465.605 170.576 465.568 170.205 465.495 169.858C465.422 169.507 465.305 169.199 465.144 168.936C464.982 168.667 464.77 168.457 464.506 168.306C464.243 168.149 463.918 168.071 463.532 168.071C463.19 168.071 462.893 168.13 462.639 168.247C462.39 168.364 462.177 168.523 462.001 168.723C461.826 168.918 461.682 169.143 461.569 169.397C461.462 169.646 461.381 169.905 461.328 170.173V171.938C461.406 172.28 461.533 172.61 461.708 172.927C461.889 173.24 462.128 173.496 462.426 173.696C462.729 173.896 463.103 173.997 463.547 173.997C463.913 173.997 464.226 173.923 464.484 173.777C464.748 173.625 464.96 173.418 465.122 173.154C465.288 172.891 465.41 172.585 465.488 172.239C465.566 171.892 465.605 171.521 465.605 171.125ZM471.97 175.146C471.418 175.146 470.917 175.054 470.468 174.868C470.024 174.678 469.641 174.412 469.318 174.07C469.001 173.728 468.757 173.323 468.586 172.854C468.415 172.385 468.33 171.873 468.33 171.316V171.008C468.33 170.364 468.425 169.79 468.615 169.287C468.806 168.779 469.064 168.35 469.392 167.998C469.719 167.646 470.09 167.38 470.505 167.2C470.92 167.019 471.35 166.929 471.794 166.929C472.36 166.929 472.849 167.026 473.259 167.222C473.674 167.417 474.013 167.69 474.277 168.042C474.541 168.389 474.736 168.799 474.863 169.272C474.99 169.741 475.053 170.254 475.053 170.811V171.418H469.135V170.312H473.698V170.21C473.679 169.858 473.605 169.517 473.479 169.185C473.356 168.853 473.161 168.579 472.893 168.364C472.624 168.149 472.258 168.042 471.794 168.042C471.486 168.042 471.203 168.108 470.944 168.24C470.686 168.367 470.463 168.557 470.278 168.811C470.092 169.065 469.948 169.375 469.846 169.741C469.743 170.107 469.692 170.53 469.692 171.008V171.316C469.692 171.692 469.743 172.046 469.846 172.378C469.953 172.705 470.107 172.993 470.307 173.242C470.512 173.491 470.759 173.687 471.047 173.828C471.34 173.97 471.672 174.041 472.043 174.041C472.521 174.041 472.927 173.943 473.259 173.748C473.591 173.552 473.881 173.291 474.13 172.964L474.951 173.616C474.78 173.875 474.562 174.121 474.299 174.355C474.035 174.59 473.71 174.78 473.325 174.927C472.944 175.073 472.492 175.146 471.97 175.146ZM478.107 163.75V175H476.745V163.75H478.107Z" fill="#505050"/>
<rect x="370" y="158" width="1" height="24" fill="#F45C59"/>
<g opacity="0.2">
<rect width="6" height="24" transform="translate(371 158)" fill="#F45C59"/>
</g>
<rect x="377" y="158" width="1" height="24" fill="#F45C59"/>
<path d="M376.834 194.662C376.834 195.197 376.709 195.648 376.459 196.016C376.209 196.379 375.865 196.654 375.428 196.842C374.994 197.025 374.502 197.117 373.951 197.117C373.4 197.117 372.906 197.025 372.469 196.842C372.031 196.654 371.686 196.379 371.432 196.016C371.178 195.648 371.051 195.197 371.051 194.662C371.051 194.303 371.123 193.979 371.268 193.689C371.412 193.396 371.613 193.146 371.871 192.939C372.133 192.729 372.439 192.568 372.791 192.459C373.143 192.346 373.525 192.289 373.939 192.289C374.494 192.289 374.99 192.387 375.428 192.582C375.865 192.777 376.209 193.053 376.459 193.408C376.709 193.764 376.834 194.182 376.834 194.662ZM375.135 194.551C375.135 194.289 375.084 194.064 374.982 193.877C374.885 193.686 374.746 193.539 374.566 193.438C374.387 193.336 374.178 193.285 373.939 193.285C373.701 193.285 373.492 193.336 373.312 193.438C373.133 193.539 372.992 193.686 372.891 193.877C372.793 194.064 372.744 194.289 372.744 194.551C372.744 194.809 372.793 195.031 372.891 195.219C372.992 195.406 373.133 195.551 373.312 195.652C373.496 195.75 373.709 195.799 373.951 195.799C374.193 195.799 374.402 195.75 374.578 195.652C374.758 195.551 374.895 195.406 374.988 195.219C375.086 195.031 375.135 194.809 375.135 194.551ZM376.652 190.73C376.652 191.164 376.537 191.549 376.307 191.885C376.076 192.217 375.756 192.477 375.346 192.664C374.939 192.852 374.475 192.945 373.951 192.945C373.424 192.945 372.955 192.852 372.545 192.664C372.135 192.477 371.814 192.217 371.584 191.885C371.354 191.549 371.238 191.164 371.238 190.73C371.238 190.215 371.354 189.781 371.584 189.43C371.818 189.074 372.139 188.805 372.545 188.621C372.955 188.438 373.42 188.346 373.939 188.346C374.467 188.346 374.934 188.438 375.34 188.621C375.75 188.805 376.07 189.074 376.301 189.43C376.535 189.781 376.652 190.215 376.652 190.73ZM374.965 190.807C374.965 190.576 374.924 190.377 374.842 190.209C374.76 190.037 374.643 189.904 374.49 189.811C374.342 189.717 374.158 189.67 373.939 189.67C373.729 189.67 373.547 189.715 373.395 189.805C373.246 189.895 373.131 190.025 373.049 190.197C372.971 190.365 372.932 190.568 372.932 190.807C372.932 191.037 372.971 191.24 373.049 191.416C373.131 191.588 373.248 191.723 373.4 191.82C373.553 191.918 373.736 191.967 373.951 191.967C374.166 191.967 374.348 191.918 374.496 191.82C374.648 191.723 374.764 191.588 374.842 191.416C374.924 191.24 374.965 191.037 374.965 190.807Z" fill="#F45C59"/>
</svg>
