<svg width="620" height="320" viewBox="0 0 620 320" fill="none" xmlns="http://www.w3.org/2000/svg">
<rect width="620" height="320" rx="16" fill="#F8F8F8"/>
<rect x="216.5" y="106.5" width="19" height="19" rx="3.5" fill="#E6E6E6"/>
<rect x="216.5" y="106.5" width="19" height="19" rx="3.5" stroke="#E6E6E6"/>
<path d="M251.339 110.336H252.745V117.55C252.745 118.351 252.567 119.018 252.21 119.55C251.854 120.082 251.38 120.482 250.79 120.751C250.204 121.015 249.566 121.146 248.878 121.146C248.155 121.146 247.501 121.015 246.915 120.751C246.334 120.482 245.873 120.082 245.531 119.55C245.194 119.018 245.025 118.351 245.025 117.55V110.336H246.424V117.55C246.424 118.107 246.527 118.566 246.732 118.927C246.937 119.289 247.223 119.557 247.589 119.733C247.96 119.909 248.39 119.997 248.878 119.997C249.371 119.997 249.801 119.909 250.167 119.733C250.538 119.557 250.826 119.289 251.031 118.927C251.236 118.566 251.339 118.107 251.339 117.55V110.336ZM256.114 114.767V121H254.759V113.075H256.041L256.114 114.767ZM255.792 116.737L255.228 116.715C255.233 116.173 255.313 115.673 255.47 115.214C255.626 114.75 255.846 114.347 256.129 114.005C256.412 113.664 256.749 113.4 257.14 113.214C257.535 113.024 257.972 112.929 258.451 112.929C258.841 112.929 259.193 112.982 259.505 113.09C259.818 113.192 260.084 113.358 260.304 113.588C260.528 113.817 260.699 114.115 260.816 114.481C260.934 114.843 260.992 115.285 260.992 115.807V121H259.63V115.792C259.63 115.377 259.569 115.045 259.447 114.796C259.325 114.542 259.146 114.359 258.912 114.247C258.678 114.13 258.39 114.071 258.048 114.071C257.711 114.071 257.403 114.142 257.125 114.284C256.852 114.425 256.615 114.621 256.415 114.87C256.219 115.119 256.065 115.404 255.953 115.727C255.846 116.044 255.792 116.381 255.792 116.737ZM266.222 120.033C266.544 120.033 266.842 119.967 267.115 119.835C267.389 119.704 267.613 119.523 267.789 119.293C267.965 119.059 268.065 118.793 268.089 118.495H269.378C269.354 118.964 269.195 119.401 268.902 119.806C268.614 120.207 268.236 120.531 267.767 120.78C267.298 121.024 266.783 121.146 266.222 121.146C265.626 121.146 265.106 121.042 264.662 120.832C264.222 120.622 263.856 120.333 263.563 119.967C263.275 119.601 263.058 119.181 262.911 118.708C262.77 118.229 262.699 117.724 262.699 117.191V116.884C262.699 116.352 262.77 115.849 262.911 115.375C263.058 114.896 263.275 114.474 263.563 114.108C263.856 113.742 264.222 113.454 264.662 113.244C265.106 113.034 265.626 112.929 266.222 112.929C266.842 112.929 267.384 113.056 267.848 113.31C268.312 113.559 268.675 113.9 268.939 114.335C269.208 114.765 269.354 115.253 269.378 115.8H268.089C268.065 115.473 267.972 115.177 267.811 114.914C267.655 114.65 267.44 114.44 267.167 114.284C266.898 114.123 266.583 114.042 266.222 114.042C265.807 114.042 265.458 114.125 265.174 114.291C264.896 114.452 264.674 114.672 264.508 114.95C264.347 115.224 264.229 115.529 264.156 115.866C264.088 116.198 264.054 116.537 264.054 116.884V117.191C264.054 117.538 264.088 117.88 264.156 118.217C264.225 118.554 264.339 118.859 264.5 119.132C264.667 119.406 264.889 119.625 265.167 119.792C265.45 119.953 265.802 120.033 266.222 120.033ZM272.257 109.75V121H270.902V109.75H272.257ZM271.935 116.737L271.371 116.715C271.375 116.173 271.456 115.673 271.612 115.214C271.769 114.75 271.988 114.347 272.271 114.005C272.555 113.664 272.892 113.4 273.282 113.214C273.678 113.024 274.115 112.929 274.593 112.929C274.984 112.929 275.335 112.982 275.648 113.09C275.96 113.192 276.227 113.358 276.446 113.588C276.671 113.817 276.842 114.115 276.959 114.481C277.076 114.843 277.135 115.285 277.135 115.807V121H275.772V115.792C275.772 115.377 275.711 115.045 275.589 114.796C275.467 114.542 275.289 114.359 275.055 114.247C274.82 114.13 274.532 114.071 274.19 114.071C273.854 114.071 273.546 114.142 273.268 114.284C272.994 114.425 272.757 114.621 272.557 114.87C272.362 115.119 272.208 115.404 272.096 115.727C271.988 116.044 271.935 116.381 271.935 116.737ZM282.452 121.146C281.9 121.146 281.4 121.054 280.951 120.868C280.506 120.678 280.123 120.412 279.801 120.07C279.483 119.728 279.239 119.323 279.068 118.854C278.897 118.385 278.812 117.873 278.812 117.316V117.008C278.812 116.364 278.907 115.79 279.098 115.287C279.288 114.779 279.547 114.35 279.874 113.998C280.201 113.646 280.572 113.38 280.987 113.2C281.402 113.019 281.832 112.929 282.276 112.929C282.843 112.929 283.331 113.026 283.741 113.222C284.156 113.417 284.496 113.69 284.759 114.042C285.023 114.389 285.218 114.799 285.345 115.272C285.472 115.741 285.536 116.254 285.536 116.811V117.418H279.618V116.312H284.181V116.21C284.161 115.858 284.088 115.517 283.961 115.185C283.839 114.853 283.644 114.579 283.375 114.364C283.106 114.149 282.74 114.042 282.276 114.042C281.969 114.042 281.686 114.108 281.427 114.24C281.168 114.367 280.946 114.557 280.76 114.811C280.575 115.065 280.431 115.375 280.328 115.741C280.226 116.107 280.174 116.53 280.174 117.008V117.316C280.174 117.692 280.226 118.046 280.328 118.378C280.436 118.705 280.589 118.993 280.79 119.242C280.995 119.491 281.241 119.687 281.529 119.828C281.822 119.97 282.154 120.041 282.525 120.041C283.004 120.041 283.409 119.943 283.741 119.748C284.073 119.552 284.364 119.291 284.613 118.964L285.433 119.616C285.262 119.875 285.045 120.121 284.781 120.355C284.518 120.59 284.193 120.78 283.807 120.927C283.426 121.073 282.975 121.146 282.452 121.146ZM290.289 120.033C290.611 120.033 290.909 119.967 291.183 119.835C291.456 119.704 291.681 119.523 291.856 119.293C292.032 119.059 292.132 118.793 292.157 118.495H293.446C293.421 118.964 293.263 119.401 292.97 119.806C292.682 120.207 292.303 120.531 291.834 120.78C291.366 121.024 290.851 121.146 290.289 121.146C289.693 121.146 289.173 121.042 288.729 120.832C288.29 120.622 287.923 120.333 287.63 119.967C287.342 119.601 287.125 119.181 286.979 118.708C286.837 118.229 286.766 117.724 286.766 117.191V116.884C286.766 116.352 286.837 115.849 286.979 115.375C287.125 114.896 287.342 114.474 287.63 114.108C287.923 113.742 288.29 113.454 288.729 113.244C289.173 113.034 289.693 112.929 290.289 112.929C290.909 112.929 291.451 113.056 291.915 113.31C292.379 113.559 292.743 113.9 293.006 114.335C293.275 114.765 293.421 115.253 293.446 115.8H292.157C292.132 115.473 292.04 115.177 291.878 114.914C291.722 114.65 291.507 114.44 291.234 114.284C290.965 114.123 290.65 114.042 290.289 114.042C289.874 114.042 289.525 114.125 289.242 114.291C288.963 114.452 288.741 114.672 288.575 114.95C288.414 115.224 288.297 115.529 288.224 115.866C288.155 116.198 288.121 116.537 288.121 116.884V117.191C288.121 117.538 288.155 117.88 288.224 118.217C288.292 118.554 288.407 118.859 288.568 119.132C288.734 119.406 288.956 119.625 289.234 119.792C289.518 119.953 289.869 120.033 290.289 120.033ZM296.332 109.75V121H294.969V109.75H296.332ZM301.173 113.075L297.716 116.774L295.782 118.781L295.672 117.338L297.057 115.683L299.518 113.075H301.173ZM299.935 121L297.108 117.221L297.811 116.012L301.532 121H299.935ZM305.714 121.146C305.162 121.146 304.662 121.054 304.212 120.868C303.768 120.678 303.385 120.412 303.062 120.07C302.745 119.728 302.501 119.323 302.33 118.854C302.159 118.385 302.074 117.873 302.074 117.316V117.008C302.074 116.364 302.169 115.79 302.359 115.287C302.55 114.779 302.809 114.35 303.136 113.998C303.463 113.646 303.834 113.38 304.249 113.2C304.664 113.019 305.094 112.929 305.538 112.929C306.104 112.929 306.593 113.026 307.003 113.222C307.418 113.417 307.757 113.69 308.021 114.042C308.285 114.389 308.48 114.799 308.607 115.272C308.734 115.741 308.797 116.254 308.797 116.811V117.418H302.879V116.312H307.442V116.21C307.423 115.858 307.35 115.517 307.223 115.185C307.101 114.853 306.905 114.579 306.637 114.364C306.368 114.149 306.002 114.042 305.538 114.042C305.23 114.042 304.947 114.108 304.688 114.24C304.43 114.367 304.208 114.557 304.022 114.811C303.836 115.065 303.692 115.375 303.59 115.741C303.487 116.107 303.436 116.53 303.436 117.008V117.316C303.436 117.692 303.487 118.046 303.59 118.378C303.697 118.705 303.851 118.993 304.051 119.242C304.256 119.491 304.503 119.687 304.791 119.828C305.084 119.97 305.416 120.041 305.787 120.041C306.266 120.041 306.671 119.943 307.003 119.748C307.335 119.552 307.625 119.291 307.875 118.964L308.695 119.616C308.524 119.875 308.307 120.121 308.043 120.355C307.779 120.59 307.455 120.78 307.069 120.927C306.688 121.073 306.236 121.146 305.714 121.146ZM315.375 119.462V109.75H316.737V121H315.492L315.375 119.462ZM310.042 117.125V116.972C310.042 116.366 310.116 115.817 310.262 115.324C310.414 114.826 310.626 114.398 310.899 114.042C311.178 113.686 311.507 113.412 311.888 113.222C312.274 113.026 312.704 112.929 313.177 112.929C313.675 112.929 314.11 113.017 314.481 113.192C314.857 113.363 315.174 113.615 315.433 113.947C315.697 114.274 315.904 114.669 316.056 115.133C316.207 115.597 316.312 116.122 316.371 116.708V117.382C316.317 117.963 316.212 118.485 316.056 118.949C315.904 119.413 315.697 119.809 315.433 120.136C315.174 120.463 314.857 120.714 314.481 120.89C314.105 121.061 313.666 121.146 313.163 121.146C312.699 121.146 312.274 121.046 311.888 120.846C311.507 120.646 311.178 120.365 310.899 120.004C310.626 119.643 310.414 119.218 310.262 118.729C310.116 118.236 310.042 117.702 310.042 117.125ZM311.405 116.972V117.125C311.405 117.521 311.444 117.892 311.522 118.239C311.605 118.585 311.732 118.891 311.903 119.154C312.074 119.418 312.291 119.625 312.555 119.777C312.818 119.923 313.133 119.997 313.5 119.997C313.949 119.997 314.317 119.901 314.605 119.711C314.898 119.521 315.133 119.269 315.309 118.957C315.484 118.644 315.621 118.305 315.719 117.938V116.173C315.66 115.905 315.575 115.646 315.462 115.397C315.355 115.143 315.213 114.918 315.038 114.723C314.867 114.523 314.654 114.364 314.4 114.247C314.151 114.13 313.856 114.071 313.514 114.071C313.143 114.071 312.823 114.149 312.555 114.306C312.291 114.457 312.074 114.667 311.903 114.936C311.732 115.199 311.605 115.507 311.522 115.858C311.444 116.205 311.405 116.576 311.405 116.972ZM325.738 120.033C326.061 120.033 326.358 119.967 326.632 119.835C326.905 119.704 327.13 119.523 327.306 119.293C327.481 119.059 327.582 118.793 327.606 118.495H328.895C328.871 118.964 328.712 119.401 328.419 119.806C328.131 120.207 327.752 120.531 327.284 120.78C326.815 121.024 326.3 121.146 325.738 121.146C325.143 121.146 324.623 121.042 324.178 120.832C323.739 120.622 323.373 120.333 323.08 119.967C322.792 119.601 322.574 119.181 322.428 118.708C322.286 118.229 322.215 117.724 322.215 117.191V116.884C322.215 116.352 322.286 115.849 322.428 115.375C322.574 114.896 322.792 114.474 323.08 114.108C323.373 113.742 323.739 113.454 324.178 113.244C324.623 113.034 325.143 112.929 325.738 112.929C326.358 112.929 326.9 113.056 327.364 113.31C327.828 113.559 328.192 113.9 328.456 114.335C328.724 114.765 328.871 115.253 328.895 115.8H327.606C327.582 115.473 327.489 115.177 327.328 114.914C327.171 114.65 326.957 114.44 326.683 114.284C326.415 114.123 326.1 114.042 325.738 114.042C325.323 114.042 324.974 114.125 324.691 114.291C324.413 114.452 324.19 114.672 324.024 114.95C323.863 115.224 323.746 115.529 323.673 115.866C323.604 116.198 323.57 116.537 323.57 116.884V117.191C323.57 117.538 323.604 117.88 323.673 118.217C323.741 118.554 323.856 118.859 324.017 119.132C324.183 119.406 324.405 119.625 324.684 119.792C324.967 119.953 325.318 120.033 325.738 120.033ZM331.773 109.75V121H330.418V109.75H331.773ZM331.451 116.737L330.887 116.715C330.892 116.173 330.973 115.673 331.129 115.214C331.285 114.75 331.505 114.347 331.788 114.005C332.071 113.664 332.408 113.4 332.799 113.214C333.194 113.024 333.631 112.929 334.11 112.929C334.5 112.929 334.852 112.982 335.165 113.09C335.477 113.192 335.743 113.358 335.963 113.588C336.188 113.817 336.358 114.115 336.476 114.481C336.593 114.843 336.651 115.285 336.651 115.807V121H335.289V115.792C335.289 115.377 335.228 115.045 335.106 114.796C334.984 114.542 334.806 114.359 334.571 114.247C334.337 114.13 334.049 114.071 333.707 114.071C333.37 114.071 333.062 114.142 332.784 114.284C332.511 114.425 332.274 114.621 332.074 114.87C331.878 115.119 331.725 115.404 331.612 115.727C331.505 116.044 331.451 116.381 331.451 116.737ZM341.969 121.146C341.417 121.146 340.917 121.054 340.467 120.868C340.023 120.678 339.64 120.412 339.317 120.07C339 119.728 338.756 119.323 338.585 118.854C338.414 118.385 338.329 117.873 338.329 117.316V117.008C338.329 116.364 338.424 115.79 338.614 115.287C338.805 114.779 339.063 114.35 339.391 113.998C339.718 113.646 340.089 113.38 340.504 113.2C340.919 113.019 341.349 112.929 341.793 112.929C342.359 112.929 342.848 113.026 343.258 113.222C343.673 113.417 344.012 113.69 344.276 114.042C344.54 114.389 344.735 114.799 344.862 115.272C344.989 115.741 345.052 116.254 345.052 116.811V117.418H339.134V116.312H343.697V116.21C343.678 115.858 343.604 115.517 343.478 115.185C343.355 114.853 343.16 114.579 342.892 114.364C342.623 114.149 342.257 114.042 341.793 114.042C341.485 114.042 341.202 114.108 340.943 114.24C340.685 114.367 340.462 114.557 340.277 114.811C340.091 115.065 339.947 115.375 339.845 115.741C339.742 116.107 339.691 116.53 339.691 117.008V117.316C339.691 117.692 339.742 118.046 339.845 118.378C339.952 118.705 340.106 118.993 340.306 119.242C340.511 119.491 340.758 119.687 341.046 119.828C341.339 119.97 341.671 120.041 342.042 120.041C342.521 120.041 342.926 119.943 343.258 119.748C343.59 119.552 343.88 119.291 344.129 118.964L344.95 119.616C344.779 119.875 344.562 120.121 344.298 120.355C344.034 120.59 343.709 120.78 343.324 120.927C342.943 121.073 342.491 121.146 341.969 121.146ZM349.806 120.033C350.128 120.033 350.426 119.967 350.699 119.835C350.973 119.704 351.197 119.523 351.373 119.293C351.549 119.059 351.649 118.793 351.673 118.495H352.962C352.938 118.964 352.779 119.401 352.486 119.806C352.198 120.207 351.82 120.531 351.351 120.78C350.882 121.024 350.367 121.146 349.806 121.146C349.21 121.146 348.69 121.042 348.246 120.832C347.806 120.622 347.44 120.333 347.147 119.967C346.859 119.601 346.642 119.181 346.495 118.708C346.354 118.229 346.283 117.724 346.283 117.191V116.884C346.283 116.352 346.354 115.849 346.495 115.375C346.642 114.896 346.859 114.474 347.147 114.108C347.44 113.742 347.806 113.454 348.246 113.244C348.69 113.034 349.21 112.929 349.806 112.929C350.426 112.929 350.968 113.056 351.432 113.31C351.896 113.559 352.259 113.9 352.523 114.335C352.792 114.765 352.938 115.253 352.962 115.8H351.673C351.649 115.473 351.556 115.177 351.395 114.914C351.239 114.65 351.024 114.44 350.75 114.284C350.482 114.123 350.167 114.042 349.806 114.042C349.391 114.042 349.042 114.125 348.758 114.291C348.48 114.452 348.258 114.672 348.092 114.95C347.931 115.224 347.813 115.529 347.74 115.866C347.672 116.198 347.638 116.537 347.638 116.884V117.191C347.638 117.538 347.672 117.88 347.74 118.217C347.809 118.554 347.923 118.859 348.084 119.132C348.25 119.406 348.473 119.625 348.751 119.792C349.034 119.953 349.386 120.033 349.806 120.033ZM355.848 109.75V121H354.486V109.75H355.848ZM360.689 113.075L357.232 116.774L355.299 118.781L355.189 117.338L356.573 115.683L359.034 113.075H360.689ZM359.452 121L356.625 117.221L357.328 116.012L361.048 121H359.452ZM362.081 109.75H363.443V119.462L363.326 121H362.081V109.75ZM368.797 116.972V117.125C368.797 117.702 368.729 118.236 368.592 118.729C368.456 119.218 368.255 119.643 367.992 120.004C367.728 120.365 367.406 120.646 367.025 120.846C366.644 121.046 366.207 121.146 365.714 121.146C365.211 121.146 364.769 121.061 364.388 120.89C364.012 120.714 363.695 120.463 363.436 120.136C363.177 119.809 362.97 119.413 362.813 118.949C362.662 118.485 362.557 117.963 362.499 117.382V116.708C362.557 116.122 362.662 115.597 362.813 115.133C362.97 114.669 363.177 114.274 363.436 113.947C363.695 113.615 364.012 113.363 364.388 113.192C364.764 113.017 365.201 112.929 365.699 112.929C366.197 112.929 366.639 113.026 367.025 113.222C367.411 113.412 367.733 113.686 367.992 114.042C368.255 114.398 368.456 114.826 368.592 115.324C368.729 115.817 368.797 116.366 368.797 116.972ZM367.435 117.125V116.972C367.435 116.576 367.398 116.205 367.325 115.858C367.252 115.507 367.135 115.199 366.974 114.936C366.812 114.667 366.6 114.457 366.336 114.306C366.073 114.149 365.748 114.071 365.362 114.071C365.021 114.071 364.723 114.13 364.469 114.247C364.22 114.364 364.007 114.523 363.832 114.723C363.656 114.918 363.512 115.143 363.399 115.397C363.292 115.646 363.211 115.905 363.158 116.173V117.938C363.236 118.28 363.363 118.61 363.539 118.927C363.719 119.24 363.958 119.496 364.256 119.696C364.559 119.896 364.933 119.997 365.377 119.997C365.743 119.997 366.056 119.923 366.314 119.777C366.578 119.625 366.791 119.418 366.952 119.154C367.118 118.891 367.24 118.585 367.318 118.239C367.396 117.892 367.435 117.521 367.435 117.125ZM370.152 117.125V116.957C370.152 116.386 370.235 115.856 370.401 115.368C370.567 114.875 370.807 114.447 371.119 114.086C371.432 113.72 371.81 113.437 372.254 113.236C372.699 113.031 373.197 112.929 373.749 112.929C374.305 112.929 374.806 113.031 375.25 113.236C375.699 113.437 376.08 113.72 376.393 114.086C376.71 114.447 376.952 114.875 377.118 115.368C377.284 115.856 377.367 116.386 377.367 116.957V117.125C377.367 117.697 377.284 118.227 377.118 118.715C376.952 119.203 376.71 119.63 376.393 119.997C376.08 120.358 375.702 120.641 375.257 120.846C374.818 121.046 374.32 121.146 373.763 121.146C373.207 121.146 372.706 121.046 372.262 120.846C371.817 120.641 371.437 120.358 371.119 119.997C370.807 119.63 370.567 119.203 370.401 118.715C370.235 118.227 370.152 117.697 370.152 117.125ZM371.507 116.957V117.125C371.507 117.521 371.554 117.895 371.646 118.246C371.739 118.593 371.878 118.9 372.064 119.169C372.254 119.438 372.491 119.65 372.774 119.806C373.058 119.958 373.387 120.033 373.763 120.033C374.134 120.033 374.459 119.958 374.737 119.806C375.021 119.65 375.255 119.438 375.44 119.169C375.626 118.9 375.765 118.593 375.858 118.246C375.956 117.895 376.004 117.521 376.004 117.125V116.957C376.004 116.566 375.956 116.198 375.858 115.851C375.765 115.5 375.624 115.189 375.433 114.921C375.248 114.647 375.013 114.433 374.73 114.276C374.452 114.12 374.125 114.042 373.749 114.042C373.377 114.042 373.05 114.12 372.767 114.276C372.489 114.433 372.254 114.647 372.064 114.921C371.878 115.189 371.739 115.5 371.646 115.851C371.554 116.198 371.507 116.566 371.507 116.957ZM379.82 113.075L381.556 115.961L383.314 113.075H384.903L382.311 116.986L384.984 121H383.417L381.585 118.026L379.754 121H378.18L380.846 116.986L378.26 113.075H379.82Z" fill="#AAAAAA"/>
<rect x="216" y="194" width="20" height="20" rx="4" fill="#E6E6E6"/>
<path d="M230.7 203H221.3C221.134 203 221 203.134 221 203.3V204.7C221 204.866 221.134 205 221.3 205H230.7C230.866 205 231 204.866 231 204.7V203.3C231 203.134 230.866 203 230.7 203Z" fill="#AAAAAA"/>
<path d="M246.754 198.336V209H245.34V198.336H246.754ZM250.475 202.767V209H249.12V201.075H250.401L250.475 202.767ZM250.152 204.737L249.588 204.715C249.593 204.173 249.674 203.673 249.83 203.214C249.986 202.75 250.206 202.347 250.489 202.005C250.772 201.664 251.109 201.4 251.5 201.214C251.896 201.024 252.333 200.929 252.811 200.929C253.202 200.929 253.553 200.982 253.866 201.09C254.178 201.192 254.444 201.358 254.664 201.588C254.889 201.817 255.06 202.115 255.177 202.481C255.294 202.843 255.353 203.285 255.353 203.807V209H253.99V203.792C253.99 203.377 253.929 203.045 253.807 202.796C253.685 202.542 253.507 202.359 253.272 202.247C253.038 202.13 252.75 202.071 252.408 202.071C252.071 202.071 251.764 202.142 251.485 202.284C251.212 202.425 250.975 202.621 250.775 202.87C250.58 203.119 250.426 203.404 250.313 203.727C250.206 204.044 250.152 204.381 250.152 204.737ZM262.406 207.462V197.75H263.768V209H262.523L262.406 207.462ZM257.074 205.125V204.972C257.074 204.366 257.147 203.817 257.293 203.324C257.445 202.826 257.657 202.398 257.931 202.042C258.209 201.686 258.539 201.412 258.919 201.222C259.305 201.026 259.735 200.929 260.208 200.929C260.707 200.929 261.141 201.017 261.512 201.192C261.888 201.363 262.206 201.615 262.464 201.947C262.728 202.274 262.936 202.669 263.087 203.133C263.238 203.597 263.343 204.122 263.402 204.708V205.382C263.348 205.963 263.243 206.485 263.087 206.949C262.936 207.413 262.728 207.809 262.464 208.136C262.206 208.463 261.888 208.714 261.512 208.89C261.136 209.061 260.697 209.146 260.194 209.146C259.73 209.146 259.305 209.046 258.919 208.846C258.539 208.646 258.209 208.365 257.931 208.004C257.657 207.643 257.445 207.218 257.293 206.729C257.147 206.236 257.074 205.702 257.074 205.125ZM258.436 204.972V205.125C258.436 205.521 258.475 205.892 258.553 206.239C258.636 206.585 258.763 206.891 258.934 207.154C259.105 207.418 259.322 207.625 259.586 207.777C259.85 207.923 260.165 207.997 260.531 207.997C260.98 207.997 261.349 207.901 261.637 207.711C261.93 207.521 262.164 207.269 262.34 206.957C262.516 206.644 262.652 206.305 262.75 205.938V204.173C262.691 203.905 262.606 203.646 262.494 203.397C262.386 203.143 262.245 202.918 262.069 202.723C261.898 202.523 261.686 202.364 261.432 202.247C261.183 202.13 260.887 202.071 260.545 202.071C260.174 202.071 259.854 202.149 259.586 202.306C259.322 202.457 259.105 202.667 258.934 202.936C258.763 203.199 258.636 203.507 258.553 203.858C258.475 204.205 258.436 204.576 258.436 204.972ZM269.166 209.146C268.614 209.146 268.114 209.054 267.665 208.868C267.22 208.678 266.837 208.412 266.515 208.07C266.197 207.728 265.953 207.323 265.782 206.854C265.611 206.385 265.526 205.873 265.526 205.316V205.008C265.526 204.364 265.621 203.79 265.812 203.287C266.002 202.779 266.261 202.35 266.588 201.998C266.915 201.646 267.286 201.38 267.701 201.2C268.116 201.019 268.546 200.929 268.99 200.929C269.557 200.929 270.045 201.026 270.455 201.222C270.87 201.417 271.209 201.69 271.473 202.042C271.737 202.389 271.932 202.799 272.059 203.272C272.186 203.741 272.25 204.254 272.25 204.811V205.418H266.332V204.312H270.895V204.21C270.875 203.858 270.802 203.517 270.675 203.185C270.553 202.853 270.357 202.579 270.089 202.364C269.82 202.149 269.454 202.042 268.99 202.042C268.683 202.042 268.399 202.108 268.141 202.24C267.882 202.367 267.66 202.557 267.474 202.811C267.289 203.065 267.145 203.375 267.042 203.741C266.939 204.107 266.888 204.53 266.888 205.008V205.316C266.888 205.692 266.939 206.046 267.042 206.378C267.149 206.705 267.303 206.993 267.503 207.242C267.708 207.491 267.955 207.687 268.243 207.828C268.536 207.97 268.868 208.041 269.239 208.041C269.718 208.041 270.123 207.943 270.455 207.748C270.787 207.552 271.078 207.291 271.327 206.964L272.147 207.616C271.976 207.875 271.759 208.121 271.495 208.355C271.231 208.59 270.907 208.78 270.521 208.927C270.14 209.073 269.688 209.146 269.166 209.146ZM277.149 201.075V202.115H272.865V201.075H277.149ZM274.315 199.149H275.67V207.037C275.67 207.306 275.711 207.508 275.794 207.645C275.877 207.782 275.985 207.872 276.117 207.916C276.249 207.96 276.39 207.982 276.542 207.982C276.654 207.982 276.771 207.972 276.893 207.953C277.02 207.928 277.115 207.909 277.179 207.894L277.186 209C277.079 209.034 276.937 209.066 276.761 209.095C276.59 209.129 276.383 209.146 276.139 209.146C275.807 209.146 275.501 209.081 275.223 208.949C274.945 208.817 274.723 208.597 274.557 208.29C274.396 207.977 274.315 207.557 274.315 207.03V199.149ZM282.027 209.146C281.476 209.146 280.975 209.054 280.526 208.868C280.082 208.678 279.698 208.412 279.376 208.07C279.059 207.728 278.814 207.323 278.644 206.854C278.473 206.385 278.387 205.873 278.387 205.316V205.008C278.387 204.364 278.482 203.79 278.673 203.287C278.863 202.779 279.122 202.35 279.449 201.998C279.776 201.646 280.147 201.38 280.562 201.2C280.978 201.019 281.407 200.929 281.852 200.929C282.418 200.929 282.906 201.026 283.316 201.222C283.731 201.417 284.071 201.69 284.334 202.042C284.598 202.389 284.793 202.799 284.92 203.272C285.047 203.741 285.111 204.254 285.111 204.811V205.418H279.193V204.312H283.756V204.21C283.736 203.858 283.663 203.517 283.536 203.185C283.414 202.853 283.219 202.579 282.95 202.364C282.682 202.149 282.315 202.042 281.852 202.042C281.544 202.042 281.261 202.108 281.002 202.24C280.743 202.367 280.521 202.557 280.335 202.811C280.15 203.065 280.006 203.375 279.903 203.741C279.801 204.107 279.75 204.53 279.75 205.008V205.316C279.75 205.692 279.801 206.046 279.903 206.378C280.011 206.705 280.165 206.993 280.365 207.242C280.57 207.491 280.816 207.687 281.104 207.828C281.397 207.97 281.729 208.041 282.101 208.041C282.579 208.041 282.984 207.943 283.316 207.748C283.648 207.552 283.939 207.291 284.188 206.964L285.008 207.616C284.837 207.875 284.62 208.121 284.356 208.355C284.093 208.59 283.768 208.78 283.382 208.927C283.001 209.073 282.55 209.146 282.027 209.146ZM288.048 202.32V209H286.693V201.075H288.011L288.048 202.32ZM290.523 201.031L290.516 202.291C290.404 202.267 290.296 202.252 290.194 202.247C290.096 202.237 289.984 202.232 289.857 202.232C289.544 202.232 289.269 202.281 289.029 202.379C288.79 202.477 288.587 202.613 288.421 202.789C288.255 202.965 288.124 203.175 288.026 203.419C287.933 203.658 287.872 203.922 287.843 204.21L287.462 204.43C287.462 203.951 287.508 203.502 287.601 203.082C287.699 202.662 287.848 202.291 288.048 201.969C288.248 201.642 288.502 201.388 288.81 201.207C289.122 201.021 289.493 200.929 289.923 200.929C290.021 200.929 290.133 200.941 290.26 200.965C290.387 200.985 290.475 201.007 290.523 201.031ZM293.124 202.65V209H291.761V201.075H293.05L293.124 202.65ZM292.845 204.737L292.215 204.715C292.22 204.173 292.291 203.673 292.428 203.214C292.564 202.75 292.767 202.347 293.036 202.005C293.304 201.664 293.639 201.4 294.039 201.214C294.439 201.024 294.903 200.929 295.431 200.929C295.802 200.929 296.144 200.982 296.456 201.09C296.769 201.192 297.04 201.356 297.269 201.581C297.499 201.805 297.677 202.093 297.804 202.445C297.931 202.796 297.994 203.221 297.994 203.719V209H296.639V203.785C296.639 203.37 296.568 203.038 296.427 202.789C296.29 202.54 296.095 202.359 295.841 202.247C295.587 202.13 295.289 202.071 294.947 202.071C294.547 202.071 294.212 202.142 293.944 202.284C293.675 202.425 293.46 202.621 293.299 202.87C293.138 203.119 293.021 203.404 292.948 203.727C292.879 204.044 292.845 204.381 292.845 204.737ZM297.979 203.99L297.071 204.269C297.076 203.834 297.147 203.417 297.284 203.016C297.425 202.616 297.628 202.259 297.892 201.947C298.16 201.634 298.49 201.388 298.88 201.207C299.271 201.021 299.718 200.929 300.221 200.929C300.646 200.929 301.021 200.985 301.349 201.097C301.681 201.209 301.959 201.383 302.184 201.617C302.413 201.847 302.586 202.142 302.704 202.503C302.821 202.865 302.879 203.294 302.879 203.792V209H301.517V203.778C301.517 203.333 301.446 202.989 301.305 202.745C301.168 202.496 300.973 202.323 300.719 202.225C300.47 202.123 300.172 202.071 299.825 202.071C299.527 202.071 299.264 202.123 299.034 202.225C298.805 202.328 298.612 202.469 298.456 202.65C298.299 202.826 298.18 203.028 298.097 203.258C298.019 203.487 297.979 203.731 297.979 203.99ZM306.402 201.075V209H305.04V201.075H306.402ZM304.938 198.973C304.938 198.753 305.003 198.568 305.135 198.417C305.272 198.265 305.472 198.189 305.736 198.189C305.995 198.189 306.192 198.265 306.329 198.417C306.471 198.568 306.542 198.753 306.542 198.973C306.542 199.183 306.471 199.364 306.329 199.515C306.192 199.662 305.995 199.735 305.736 199.735C305.472 199.735 305.272 199.662 305.135 199.515C305.003 199.364 304.938 199.183 304.938 198.973ZM309.933 202.767V209H308.578V201.075H309.859L309.933 202.767ZM309.61 204.737L309.046 204.715C309.051 204.173 309.132 203.673 309.288 203.214C309.444 202.75 309.664 202.347 309.947 202.005C310.23 201.664 310.567 201.4 310.958 201.214C311.354 201.024 311.791 200.929 312.269 200.929C312.66 200.929 313.011 200.982 313.324 201.09C313.636 201.192 313.902 201.358 314.122 201.588C314.347 201.817 314.518 202.115 314.635 202.481C314.752 202.843 314.811 203.285 314.811 203.807V209H313.448V203.792C313.448 203.377 313.387 203.045 313.265 202.796C313.143 202.542 312.965 202.359 312.73 202.247C312.496 202.13 312.208 202.071 311.866 202.071C311.529 202.071 311.222 202.142 310.943 202.284C310.67 202.425 310.433 202.621 310.233 202.87C310.038 203.119 309.884 203.404 309.771 203.727C309.664 204.044 309.61 204.381 309.61 204.737ZM321.542 207.645V203.565C321.542 203.253 321.478 202.982 321.351 202.752C321.229 202.518 321.043 202.337 320.794 202.21C320.545 202.083 320.238 202.02 319.872 202.02C319.53 202.02 319.229 202.079 318.971 202.196C318.717 202.313 318.517 202.467 318.37 202.657C318.229 202.848 318.158 203.053 318.158 203.272H316.803C316.803 202.989 316.876 202.708 317.022 202.43C317.169 202.152 317.379 201.9 317.652 201.676C317.931 201.446 318.263 201.266 318.648 201.134C319.039 200.997 319.474 200.929 319.952 200.929C320.528 200.929 321.036 201.026 321.476 201.222C321.92 201.417 322.267 201.712 322.516 202.108C322.77 202.499 322.896 202.989 322.896 203.58V207.271C322.896 207.535 322.918 207.816 322.962 208.114C323.011 208.412 323.082 208.668 323.175 208.883V209H321.761C321.693 208.844 321.639 208.636 321.6 208.377C321.561 208.114 321.542 207.87 321.542 207.645ZM321.776 204.195L321.791 205.147H320.421C320.035 205.147 319.691 205.179 319.388 205.243C319.085 205.301 318.832 205.392 318.626 205.514C318.421 205.636 318.265 205.79 318.158 205.975C318.05 206.156 317.997 206.368 317.997 206.612C317.997 206.861 318.053 207.088 318.165 207.293C318.277 207.499 318.446 207.662 318.67 207.784C318.9 207.901 319.181 207.96 319.513 207.96C319.928 207.96 320.294 207.872 320.611 207.696C320.929 207.521 321.18 207.306 321.366 207.052C321.556 206.798 321.659 206.551 321.673 206.312L322.252 206.964C322.218 207.169 322.125 207.396 321.974 207.645C321.822 207.894 321.62 208.133 321.366 208.363C321.117 208.587 320.819 208.775 320.472 208.927C320.13 209.073 319.745 209.146 319.315 209.146C318.778 209.146 318.307 209.042 317.901 208.832C317.501 208.622 317.188 208.341 316.964 207.989C316.744 207.633 316.634 207.235 316.634 206.795C316.634 206.371 316.717 205.997 316.883 205.675C317.049 205.348 317.289 205.077 317.601 204.862C317.914 204.642 318.29 204.476 318.729 204.364C319.168 204.251 319.659 204.195 320.201 204.195H321.776ZM328.346 201.075V202.115H324.061V201.075H328.346ZM325.511 199.149H326.866V207.037C326.866 207.306 326.908 207.508 326.991 207.645C327.074 207.782 327.181 207.872 327.313 207.916C327.445 207.96 327.586 207.982 327.738 207.982C327.85 207.982 327.967 207.972 328.089 207.953C328.216 207.928 328.312 207.909 328.375 207.894L328.382 209C328.275 209.034 328.133 209.066 327.958 209.095C327.787 209.129 327.579 209.146 327.335 209.146C327.003 209.146 326.698 209.081 326.419 208.949C326.141 208.817 325.919 208.597 325.753 208.29C325.592 207.977 325.511 207.557 325.511 207.03V199.149ZM333.224 209.146C332.672 209.146 332.171 209.054 331.722 208.868C331.278 208.678 330.895 208.412 330.572 208.07C330.255 207.728 330.011 207.323 329.84 206.854C329.669 206.385 329.583 205.873 329.583 205.316V205.008C329.583 204.364 329.679 203.79 329.869 203.287C330.06 202.779 330.318 202.35 330.646 201.998C330.973 201.646 331.344 201.38 331.759 201.2C332.174 201.019 332.604 200.929 333.048 200.929C333.614 200.929 334.103 201.026 334.513 201.222C334.928 201.417 335.267 201.69 335.531 202.042C335.794 202.389 335.99 202.799 336.117 203.272C336.244 203.741 336.307 204.254 336.307 204.811V205.418H330.389V204.312H334.952V204.21C334.933 203.858 334.859 203.517 334.732 203.185C334.61 202.853 334.415 202.579 334.146 202.364C333.878 202.149 333.512 202.042 333.048 202.042C332.74 202.042 332.457 202.108 332.198 202.24C331.939 202.367 331.717 202.557 331.532 202.811C331.346 203.065 331.202 203.375 331.1 203.741C330.997 204.107 330.946 204.53 330.946 205.008V205.316C330.946 205.692 330.997 206.046 331.1 206.378C331.207 206.705 331.361 206.993 331.561 207.242C331.766 207.491 332.013 207.687 332.301 207.828C332.594 207.97 332.926 208.041 333.297 208.041C333.775 208.041 334.181 207.943 334.513 207.748C334.845 207.552 335.135 207.291 335.384 206.964L336.205 207.616C336.034 207.875 335.816 208.121 335.553 208.355C335.289 208.59 334.964 208.78 334.579 208.927C334.198 209.073 333.746 209.146 333.224 209.146ZM344.781 208.033C345.104 208.033 345.401 207.967 345.675 207.835C345.948 207.704 346.173 207.523 346.349 207.293C346.524 207.059 346.625 206.793 346.649 206.495H347.938C347.914 206.964 347.755 207.401 347.462 207.806C347.174 208.207 346.795 208.531 346.327 208.78C345.858 209.024 345.343 209.146 344.781 209.146C344.186 209.146 343.666 209.042 343.221 208.832C342.782 208.622 342.416 208.333 342.123 207.967C341.834 207.601 341.617 207.181 341.471 206.708C341.329 206.229 341.258 205.724 341.258 205.191V204.884C341.258 204.352 341.329 203.849 341.471 203.375C341.617 202.896 341.834 202.474 342.123 202.108C342.416 201.742 342.782 201.454 343.221 201.244C343.666 201.034 344.186 200.929 344.781 200.929C345.401 200.929 345.943 201.056 346.407 201.31C346.871 201.559 347.235 201.9 347.499 202.335C347.767 202.765 347.914 203.253 347.938 203.8H346.649C346.625 203.473 346.532 203.177 346.371 202.914C346.214 202.65 346 202.44 345.726 202.284C345.458 202.123 345.143 202.042 344.781 202.042C344.366 202.042 344.017 202.125 343.734 202.291C343.456 202.452 343.233 202.672 343.067 202.95C342.906 203.224 342.789 203.529 342.716 203.866C342.647 204.198 342.613 204.537 342.613 204.884V205.191C342.613 205.538 342.647 205.88 342.716 206.217C342.784 206.554 342.899 206.859 343.06 207.132C343.226 207.406 343.448 207.625 343.727 207.792C344.01 207.953 344.361 208.033 344.781 208.033ZM350.816 197.75V209H349.461V197.75H350.816ZM350.494 204.737L349.93 204.715C349.935 204.173 350.016 203.673 350.172 203.214C350.328 202.75 350.548 202.347 350.831 202.005C351.114 201.664 351.451 201.4 351.842 201.214C352.237 201.024 352.674 200.929 353.153 200.929C353.543 200.929 353.895 200.982 354.208 201.09C354.52 201.192 354.786 201.358 355.006 201.588C355.23 201.817 355.401 202.115 355.519 202.481C355.636 202.843 355.694 203.285 355.694 203.807V209H354.332V203.792C354.332 203.377 354.271 203.045 354.149 202.796C354.027 202.542 353.849 202.359 353.614 202.247C353.38 202.13 353.092 202.071 352.75 202.071C352.413 202.071 352.105 202.142 351.827 202.284C351.554 202.425 351.317 202.621 351.117 202.87C350.921 203.119 350.768 203.404 350.655 203.727C350.548 204.044 350.494 204.381 350.494 204.737ZM361.012 209.146C360.46 209.146 359.959 209.054 359.51 208.868C359.066 208.678 358.683 208.412 358.36 208.07C358.043 207.728 357.799 207.323 357.628 206.854C357.457 206.385 357.372 205.873 357.372 205.316V205.008C357.372 204.364 357.467 203.79 357.657 203.287C357.848 202.779 358.106 202.35 358.434 201.998C358.761 201.646 359.132 201.38 359.547 201.2C359.962 201.019 360.392 200.929 360.836 200.929C361.402 200.929 361.891 201.026 362.301 201.222C362.716 201.417 363.055 201.69 363.319 202.042C363.583 202.389 363.778 202.799 363.905 203.272C364.032 203.741 364.095 204.254 364.095 204.811V205.418H358.177V204.312H362.74V204.21C362.721 203.858 362.647 203.517 362.521 203.185C362.398 202.853 362.203 202.579 361.935 202.364C361.666 202.149 361.3 202.042 360.836 202.042C360.528 202.042 360.245 202.108 359.986 202.24C359.728 202.367 359.505 202.557 359.32 202.811C359.134 203.065 358.99 203.375 358.888 203.741C358.785 204.107 358.734 204.53 358.734 205.008V205.316C358.734 205.692 358.785 206.046 358.888 206.378C358.995 206.705 359.149 206.993 359.349 207.242C359.554 207.491 359.801 207.687 360.089 207.828C360.382 207.97 360.714 208.041 361.085 208.041C361.563 208.041 361.969 207.943 362.301 207.748C362.633 207.552 362.923 207.291 363.172 206.964L363.993 207.616C363.822 207.875 363.604 208.121 363.341 208.355C363.077 208.59 362.752 208.78 362.367 208.927C361.986 209.073 361.534 209.146 361.012 209.146ZM368.849 208.033C369.171 208.033 369.469 207.967 369.742 207.835C370.016 207.704 370.24 207.523 370.416 207.293C370.592 207.059 370.692 206.793 370.716 206.495H372.005C371.981 206.964 371.822 207.401 371.529 207.806C371.241 208.207 370.863 208.531 370.394 208.78C369.925 209.024 369.41 209.146 368.849 209.146C368.253 209.146 367.733 209.042 367.289 208.832C366.849 208.622 366.483 208.333 366.19 207.967C365.902 207.601 365.685 207.181 365.538 206.708C365.396 206.229 365.326 205.724 365.326 205.191V204.884C365.326 204.352 365.396 203.849 365.538 203.375C365.685 202.896 365.902 202.474 366.19 202.108C366.483 201.742 366.849 201.454 367.289 201.244C367.733 201.034 368.253 200.929 368.849 200.929C369.469 200.929 370.011 201.056 370.475 201.31C370.938 201.559 371.302 201.9 371.566 202.335C371.834 202.765 371.981 203.253 372.005 203.8H370.716C370.692 203.473 370.599 203.177 370.438 202.914C370.282 202.65 370.067 202.44 369.793 202.284C369.525 202.123 369.21 202.042 368.849 202.042C368.434 202.042 368.084 202.125 367.801 202.291C367.523 202.452 367.301 202.672 367.135 202.95C366.974 203.224 366.856 203.529 366.783 203.866C366.715 204.198 366.681 204.537 366.681 204.884V205.191C366.681 205.538 366.715 205.88 366.783 206.217C366.852 206.554 366.966 206.859 367.127 207.132C367.293 207.406 367.516 207.625 367.794 207.792C368.077 207.953 368.429 208.033 368.849 208.033ZM374.891 197.75V209H373.529V197.75H374.891ZM379.732 201.075L376.275 204.774L374.342 206.781L374.232 205.338L375.616 203.683L378.077 201.075H379.732ZM378.495 209L375.667 205.221L376.371 204.012L380.091 209H378.495ZM381.124 197.75H382.486V207.462L382.369 209H381.124V197.75ZM387.84 204.972V205.125C387.84 205.702 387.772 206.236 387.635 206.729C387.499 207.218 387.298 207.643 387.035 208.004C386.771 208.365 386.449 208.646 386.068 208.846C385.687 209.046 385.25 209.146 384.757 209.146C384.254 209.146 383.812 209.061 383.431 208.89C383.055 208.714 382.738 208.463 382.479 208.136C382.22 207.809 382.013 207.413 381.856 206.949C381.705 206.485 381.6 205.963 381.542 205.382V204.708C381.6 204.122 381.705 203.597 381.856 203.133C382.013 202.669 382.22 202.274 382.479 201.947C382.738 201.615 383.055 201.363 383.431 201.192C383.807 201.017 384.244 200.929 384.742 200.929C385.24 200.929 385.682 201.026 386.068 201.222C386.454 201.412 386.776 201.686 387.035 202.042C387.298 202.398 387.499 202.826 387.635 203.324C387.772 203.817 387.84 204.366 387.84 204.972ZM386.478 205.125V204.972C386.478 204.576 386.441 204.205 386.368 203.858C386.295 203.507 386.178 203.199 386.017 202.936C385.855 202.667 385.643 202.457 385.379 202.306C385.116 202.149 384.791 202.071 384.405 202.071C384.063 202.071 383.766 202.13 383.512 202.247C383.263 202.364 383.05 202.523 382.875 202.723C382.699 202.918 382.555 203.143 382.442 203.397C382.335 203.646 382.254 203.905 382.201 204.173V205.938C382.279 206.28 382.406 206.61 382.582 206.927C382.762 207.24 383.001 207.496 383.299 207.696C383.602 207.896 383.976 207.997 384.42 207.997C384.786 207.997 385.099 207.923 385.357 207.777C385.621 207.625 385.833 207.418 385.995 207.154C386.161 206.891 386.283 206.585 386.361 206.239C386.439 205.892 386.478 205.521 386.478 205.125ZM389.195 205.125V204.957C389.195 204.386 389.278 203.856 389.444 203.368C389.61 202.875 389.85 202.447 390.162 202.086C390.475 201.72 390.853 201.437 391.297 201.236C391.742 201.031 392.24 200.929 392.792 200.929C393.348 200.929 393.849 201.031 394.293 201.236C394.742 201.437 395.123 201.72 395.436 202.086C395.753 202.447 395.995 202.875 396.161 203.368C396.327 203.856 396.41 204.386 396.41 204.957V205.125C396.41 205.697 396.327 206.227 396.161 206.715C395.995 207.203 395.753 207.63 395.436 207.997C395.123 208.358 394.745 208.641 394.3 208.846C393.861 209.046 393.363 209.146 392.806 209.146C392.25 209.146 391.749 209.046 391.305 208.846C390.86 208.641 390.479 208.358 390.162 207.997C389.85 207.63 389.61 207.203 389.444 206.715C389.278 206.227 389.195 205.697 389.195 205.125ZM390.55 204.957V205.125C390.55 205.521 390.597 205.895 390.689 206.246C390.782 206.593 390.921 206.9 391.107 207.169C391.297 207.438 391.534 207.65 391.817 207.806C392.101 207.958 392.43 208.033 392.806 208.033C393.177 208.033 393.502 207.958 393.78 207.806C394.063 207.65 394.298 207.438 394.483 207.169C394.669 206.9 394.808 206.593 394.901 206.246C394.999 205.895 395.047 205.521 395.047 205.125V204.957C395.047 204.566 394.999 204.198 394.901 203.851C394.808 203.5 394.667 203.189 394.476 202.921C394.291 202.647 394.056 202.433 393.773 202.276C393.495 202.12 393.167 202.042 392.792 202.042C392.42 202.042 392.093 202.12 391.81 202.276C391.532 202.433 391.297 202.647 391.107 202.921C390.921 203.189 390.782 203.5 390.689 203.851C390.597 204.198 390.55 204.566 390.55 204.957ZM398.863 201.075L400.599 203.961L402.357 201.075H403.946L401.354 204.986L404.027 209H402.459L400.628 206.026L398.797 209H397.223L399.889 204.986L397.303 201.075H398.863Z" fill="#AAAAAA"/>
<rect x="216" y="150" width="20" height="20" rx="4" fill="#E6E6E6"/>
<path d="M224.238 164.088L220.338 160.166C220.104 159.93 220.104 159.548 220.338 159.313L221.186 158.459C221.421 158.223 221.801 158.223 222.035 158.459L224.662 161.101L229.965 155.912C230.199 155.676 230.579 155.676 230.814 155.912L231.662 156.765C231.896 157.001 231.896 157.383 231.662 157.619L225.086 164.088C224.852 164.324 224.472 164.324 224.238 164.088Z" fill="#AAAAAA"/>
<path d="M251.676 161.609H253.082C253.009 162.283 252.816 162.886 252.503 163.418C252.191 163.95 251.749 164.373 251.178 164.685C250.606 164.993 249.894 165.146 249.039 165.146C248.414 165.146 247.845 165.029 247.333 164.795C246.825 164.561 246.388 164.229 246.021 163.799C245.655 163.364 245.372 162.844 245.172 162.239C244.977 161.628 244.879 160.95 244.879 160.203V159.141C244.879 158.394 244.977 157.717 245.172 157.112C245.372 156.501 245.658 155.979 246.029 155.544C246.405 155.11 246.856 154.775 247.384 154.541C247.911 154.307 248.504 154.189 249.164 154.189C249.969 154.189 250.65 154.341 251.207 154.644C251.764 154.946 252.196 155.366 252.503 155.903C252.816 156.436 253.009 157.053 253.082 157.756H251.676C251.607 157.258 251.48 156.831 251.295 156.475C251.109 156.113 250.846 155.835 250.504 155.64C250.162 155.444 249.715 155.347 249.164 155.347C248.69 155.347 248.272 155.437 247.911 155.618C247.555 155.798 247.254 156.055 247.01 156.387C246.771 156.719 246.59 157.117 246.468 157.581C246.346 158.044 246.285 158.56 246.285 159.126V160.203C246.285 160.725 246.339 161.216 246.446 161.675C246.559 162.134 246.727 162.537 246.952 162.883C247.176 163.23 247.462 163.503 247.809 163.704C248.155 163.899 248.565 163.997 249.039 163.997C249.64 163.997 250.118 163.901 250.475 163.711C250.831 163.521 251.1 163.247 251.28 162.891C251.466 162.534 251.598 162.107 251.676 161.609ZM256.158 153.75V165H254.803V153.75H256.158ZM255.836 160.737L255.272 160.715C255.277 160.173 255.357 159.673 255.514 159.214C255.67 158.75 255.89 158.347 256.173 158.005C256.456 157.664 256.793 157.4 257.184 157.214C257.579 157.024 258.016 156.929 258.495 156.929C258.885 156.929 259.237 156.982 259.549 157.09C259.862 157.192 260.128 157.358 260.348 157.588C260.572 157.817 260.743 158.115 260.86 158.481C260.978 158.843 261.036 159.285 261.036 159.807V165H259.674V159.792C259.674 159.377 259.613 159.045 259.491 158.796C259.369 158.542 259.19 158.359 258.956 158.247C258.722 158.13 258.434 158.071 258.092 158.071C257.755 158.071 257.447 158.142 257.169 158.284C256.896 158.425 256.659 158.621 256.458 158.87C256.263 159.119 256.109 159.404 255.997 159.727C255.89 160.044 255.836 160.381 255.836 160.737ZM266.354 165.146C265.802 165.146 265.301 165.054 264.852 164.868C264.408 164.678 264.024 164.412 263.702 164.07C263.385 163.728 263.141 163.323 262.97 162.854C262.799 162.385 262.713 161.873 262.713 161.316V161.008C262.713 160.364 262.809 159.79 262.999 159.287C263.189 158.779 263.448 158.35 263.775 157.998C264.103 157.646 264.474 157.38 264.889 157.2C265.304 157.019 265.733 156.929 266.178 156.929C266.744 156.929 267.232 157.026 267.643 157.222C268.058 157.417 268.397 157.69 268.661 158.042C268.924 158.389 269.12 158.799 269.247 159.272C269.374 159.741 269.437 160.254 269.437 160.811V161.418H263.519V160.312H268.082V160.21C268.062 159.858 267.989 159.517 267.862 159.185C267.74 158.853 267.545 158.579 267.276 158.364C267.008 158.149 266.642 158.042 266.178 158.042C265.87 158.042 265.587 158.108 265.328 158.24C265.069 158.367 264.847 158.557 264.662 158.811C264.476 159.065 264.332 159.375 264.229 159.741C264.127 160.107 264.076 160.53 264.076 161.008V161.316C264.076 161.692 264.127 162.046 264.229 162.378C264.337 162.705 264.491 162.993 264.691 163.242C264.896 163.491 265.143 163.687 265.431 163.828C265.724 163.97 266.056 164.041 266.427 164.041C266.905 164.041 267.311 163.943 267.643 163.748C267.975 163.552 268.265 163.291 268.514 162.964L269.334 163.616C269.164 163.875 268.946 164.121 268.683 164.355C268.419 164.59 268.094 164.78 267.708 164.927C267.328 165.073 266.876 165.146 266.354 165.146ZM274.19 164.033C274.513 164.033 274.811 163.967 275.084 163.835C275.357 163.704 275.582 163.523 275.758 163.293C275.934 163.059 276.034 162.793 276.058 162.495H277.347C277.323 162.964 277.164 163.401 276.871 163.806C276.583 164.207 276.205 164.531 275.736 164.78C275.267 165.024 274.752 165.146 274.19 165.146C273.595 165.146 273.075 165.042 272.63 164.832C272.191 164.622 271.825 164.333 271.532 163.967C271.244 163.601 271.026 163.181 270.88 162.708C270.738 162.229 270.667 161.724 270.667 161.191V160.884C270.667 160.352 270.738 159.849 270.88 159.375C271.026 158.896 271.244 158.474 271.532 158.108C271.825 157.742 272.191 157.454 272.63 157.244C273.075 157.034 273.595 156.929 274.19 156.929C274.811 156.929 275.353 157.056 275.816 157.31C276.28 157.559 276.644 157.9 276.908 158.335C277.176 158.765 277.323 159.253 277.347 159.8H276.058C276.034 159.473 275.941 159.177 275.78 158.914C275.624 158.65 275.409 158.44 275.135 158.284C274.867 158.123 274.552 158.042 274.19 158.042C273.775 158.042 273.426 158.125 273.143 158.291C272.865 158.452 272.643 158.672 272.477 158.95C272.315 159.224 272.198 159.529 272.125 159.866C272.057 160.198 272.022 160.537 272.022 160.884V161.191C272.022 161.538 272.057 161.88 272.125 162.217C272.193 162.554 272.308 162.859 272.469 163.132C272.635 163.406 272.857 163.625 273.136 163.792C273.419 163.953 273.771 164.033 274.19 164.033ZM280.233 153.75V165H278.871V153.75H280.233ZM285.074 157.075L281.617 160.774L279.684 162.781L279.574 161.338L280.958 159.683L283.419 157.075H285.074ZM283.836 165L281.009 161.221L281.712 160.012L285.433 165H283.836ZM289.615 165.146C289.063 165.146 288.563 165.054 288.114 164.868C287.669 164.678 287.286 164.412 286.964 164.07C286.646 163.728 286.402 163.323 286.231 162.854C286.061 162.385 285.975 161.873 285.975 161.316V161.008C285.975 160.364 286.07 159.79 286.261 159.287C286.451 158.779 286.71 158.35 287.037 157.998C287.364 157.646 287.735 157.38 288.15 157.2C288.565 157.019 288.995 156.929 289.439 156.929C290.006 156.929 290.494 157.026 290.904 157.222C291.319 157.417 291.659 157.69 291.922 158.042C292.186 158.389 292.381 158.799 292.508 159.272C292.635 159.741 292.699 160.254 292.699 160.811V161.418H286.781V160.312H291.344V160.21C291.324 159.858 291.251 159.517 291.124 159.185C291.002 158.853 290.807 158.579 290.538 158.364C290.27 158.149 289.903 158.042 289.439 158.042C289.132 158.042 288.849 158.108 288.59 158.24C288.331 158.367 288.109 158.557 287.923 158.811C287.738 159.065 287.594 159.375 287.491 159.741C287.389 160.107 287.337 160.53 287.337 161.008V161.316C287.337 161.692 287.389 162.046 287.491 162.378C287.599 162.705 287.752 162.993 287.953 163.242C288.158 163.491 288.404 163.687 288.692 163.828C288.985 163.97 289.317 164.041 289.688 164.041C290.167 164.041 290.572 163.943 290.904 163.748C291.236 163.552 291.527 163.291 291.776 162.964L292.596 163.616C292.425 163.875 292.208 164.121 291.944 164.355C291.681 164.59 291.356 164.78 290.97 164.927C290.589 165.073 290.138 165.146 289.615 165.146ZM299.276 163.462V153.75H300.638V165H299.393L299.276 163.462ZM293.944 161.125V160.972C293.944 160.366 294.017 159.817 294.164 159.324C294.315 158.826 294.527 158.398 294.801 158.042C295.079 157.686 295.409 157.412 295.79 157.222C296.175 157.026 296.605 156.929 297.079 156.929C297.577 156.929 298.011 157.017 298.382 157.192C298.758 157.363 299.076 157.615 299.334 157.947C299.598 158.274 299.806 158.669 299.957 159.133C300.108 159.597 300.213 160.122 300.272 160.708V161.382C300.218 161.963 300.113 162.485 299.957 162.949C299.806 163.413 299.598 163.809 299.334 164.136C299.076 164.463 298.758 164.714 298.382 164.89C298.006 165.061 297.567 165.146 297.064 165.146C296.6 165.146 296.175 165.046 295.79 164.846C295.409 164.646 295.079 164.365 294.801 164.004C294.527 163.643 294.315 163.218 294.164 162.729C294.017 162.236 293.944 161.702 293.944 161.125ZM295.306 160.972V161.125C295.306 161.521 295.345 161.892 295.423 162.239C295.506 162.585 295.633 162.891 295.804 163.154C295.975 163.418 296.192 163.625 296.456 163.777C296.72 163.923 297.035 163.997 297.401 163.997C297.85 163.997 298.219 163.901 298.507 163.711C298.8 163.521 299.034 163.269 299.21 162.957C299.386 162.644 299.522 162.305 299.62 161.938V160.173C299.562 159.905 299.476 159.646 299.364 159.397C299.256 159.143 299.115 158.918 298.939 158.723C298.768 158.523 298.556 158.364 298.302 158.247C298.053 158.13 297.757 158.071 297.416 158.071C297.044 158.071 296.725 158.149 296.456 158.306C296.192 158.457 295.975 158.667 295.804 158.936C295.633 159.199 295.506 159.507 295.423 159.858C295.345 160.205 295.306 160.576 295.306 160.972ZM309.64 164.033C309.962 164.033 310.26 163.967 310.533 163.835C310.807 163.704 311.031 163.523 311.207 163.293C311.383 163.059 311.483 162.793 311.507 162.495H312.796C312.772 162.964 312.613 163.401 312.32 163.806C312.032 164.207 311.654 164.531 311.185 164.78C310.716 165.024 310.201 165.146 309.64 165.146C309.044 165.146 308.524 165.042 308.08 164.832C307.64 164.622 307.274 164.333 306.981 163.967C306.693 163.601 306.476 163.181 306.329 162.708C306.188 162.229 306.117 161.724 306.117 161.191V160.884C306.117 160.352 306.188 159.849 306.329 159.375C306.476 158.896 306.693 158.474 306.981 158.108C307.274 157.742 307.64 157.454 308.08 157.244C308.524 157.034 309.044 156.929 309.64 156.929C310.26 156.929 310.802 157.056 311.266 157.31C311.729 157.559 312.093 157.9 312.357 158.335C312.625 158.765 312.772 159.253 312.796 159.8H311.507C311.483 159.473 311.39 159.177 311.229 158.914C311.073 158.65 310.858 158.44 310.584 158.284C310.316 158.123 310.001 158.042 309.64 158.042C309.225 158.042 308.875 158.125 308.592 158.291C308.314 158.452 308.092 158.672 307.926 158.95C307.765 159.224 307.647 159.529 307.574 159.866C307.506 160.198 307.472 160.537 307.472 160.884V161.191C307.472 161.538 307.506 161.88 307.574 162.217C307.643 162.554 307.757 162.859 307.918 163.132C308.084 163.406 308.307 163.625 308.585 163.792C308.868 163.953 309.22 164.033 309.64 164.033ZM315.675 153.75V165H314.32V153.75H315.675ZM315.353 160.737L314.789 160.715C314.793 160.173 314.874 159.673 315.03 159.214C315.187 158.75 315.406 158.347 315.689 158.005C315.973 157.664 316.31 157.4 316.7 157.214C317.096 157.024 317.533 156.929 318.011 156.929C318.402 156.929 318.753 156.982 319.066 157.09C319.378 157.192 319.645 157.358 319.864 157.588C320.089 157.817 320.26 158.115 320.377 158.481C320.494 158.843 320.553 159.285 320.553 159.807V165H319.19V159.792C319.19 159.377 319.129 159.045 319.007 158.796C318.885 158.542 318.707 158.359 318.473 158.247C318.238 158.13 317.95 158.071 317.608 158.071C317.271 158.071 316.964 158.142 316.686 158.284C316.412 158.425 316.175 158.621 315.975 158.87C315.78 159.119 315.626 159.404 315.514 159.727C315.406 160.044 315.353 160.381 315.353 160.737ZM325.87 165.146C325.318 165.146 324.818 165.054 324.369 164.868C323.924 164.678 323.541 164.412 323.219 164.07C322.901 163.728 322.657 163.323 322.486 162.854C322.315 162.385 322.23 161.873 322.23 161.316V161.008C322.23 160.364 322.325 159.79 322.516 159.287C322.706 158.779 322.965 158.35 323.292 157.998C323.619 157.646 323.99 157.38 324.405 157.2C324.82 157.019 325.25 156.929 325.694 156.929C326.261 156.929 326.749 157.026 327.159 157.222C327.574 157.417 327.914 157.69 328.177 158.042C328.441 158.389 328.636 158.799 328.763 159.272C328.89 159.741 328.954 160.254 328.954 160.811V161.418H323.036V160.312H327.599V160.21C327.579 159.858 327.506 159.517 327.379 159.185C327.257 158.853 327.062 158.579 326.793 158.364C326.524 158.149 326.158 158.042 325.694 158.042C325.387 158.042 325.104 158.108 324.845 158.24C324.586 158.367 324.364 158.557 324.178 158.811C323.993 159.065 323.849 159.375 323.746 159.741C323.644 160.107 323.592 160.53 323.592 161.008V161.316C323.592 161.692 323.644 162.046 323.746 162.378C323.854 162.705 324.007 162.993 324.208 163.242C324.413 163.491 324.659 163.687 324.947 163.828C325.24 163.97 325.572 164.041 325.943 164.041C326.422 164.041 326.827 163.943 327.159 163.748C327.491 163.552 327.782 163.291 328.031 162.964L328.851 163.616C328.68 163.875 328.463 164.121 328.199 164.355C327.936 164.59 327.611 164.78 327.225 164.927C326.844 165.073 326.393 165.146 325.87 165.146ZM333.707 164.033C334.029 164.033 334.327 163.967 334.601 163.835C334.874 163.704 335.099 163.523 335.274 163.293C335.45 163.059 335.55 162.793 335.575 162.495H336.864C336.839 162.964 336.681 163.401 336.388 163.806C336.1 164.207 335.721 164.531 335.252 164.78C334.784 165.024 334.269 165.146 333.707 165.146C333.111 165.146 332.591 165.042 332.147 164.832C331.708 164.622 331.341 164.333 331.048 163.967C330.76 163.601 330.543 163.181 330.396 162.708C330.255 162.229 330.184 161.724 330.184 161.191V160.884C330.184 160.352 330.255 159.849 330.396 159.375C330.543 158.896 330.76 158.474 331.048 158.108C331.341 157.742 331.708 157.454 332.147 157.244C332.591 157.034 333.111 156.929 333.707 156.929C334.327 156.929 334.869 157.056 335.333 157.31C335.797 157.559 336.161 157.9 336.424 158.335C336.693 158.765 336.839 159.253 336.864 159.8H335.575C335.55 159.473 335.458 159.177 335.296 158.914C335.14 158.65 334.925 158.44 334.652 158.284C334.383 158.123 334.068 158.042 333.707 158.042C333.292 158.042 332.943 158.125 332.66 158.291C332.381 158.452 332.159 158.672 331.993 158.95C331.832 159.224 331.715 159.529 331.642 159.866C331.573 160.198 331.539 160.537 331.539 160.884V161.191C331.539 161.538 331.573 161.88 331.642 162.217C331.71 162.554 331.825 162.859 331.986 163.132C332.152 163.406 332.374 163.625 332.652 163.792C332.936 163.953 333.287 164.033 333.707 164.033ZM339.75 153.75V165H338.387V153.75H339.75ZM344.591 157.075L341.134 160.774L339.2 162.781L339.09 161.338L340.475 159.683L342.936 157.075H344.591ZM343.353 165L340.526 161.221L341.229 160.012L344.95 165H343.353ZM345.982 153.75H347.345V163.462L347.228 165H345.982V153.75ZM352.699 160.972V161.125C352.699 161.702 352.63 162.236 352.494 162.729C352.357 163.218 352.157 163.643 351.893 164.004C351.629 164.365 351.307 164.646 350.926 164.846C350.545 165.046 350.108 165.146 349.615 165.146C349.112 165.146 348.67 165.061 348.29 164.89C347.914 164.714 347.596 164.463 347.337 164.136C347.079 163.809 346.871 163.413 346.715 162.949C346.563 162.485 346.458 161.963 346.4 161.382V160.708C346.458 160.122 346.563 159.597 346.715 159.133C346.871 158.669 347.079 158.274 347.337 157.947C347.596 157.615 347.914 157.363 348.29 157.192C348.666 157.017 349.103 156.929 349.601 156.929C350.099 156.929 350.541 157.026 350.926 157.222C351.312 157.412 351.634 157.686 351.893 158.042C352.157 158.398 352.357 158.826 352.494 159.324C352.63 159.817 352.699 160.366 352.699 160.972ZM351.336 161.125V160.972C351.336 160.576 351.3 160.205 351.227 159.858C351.153 159.507 351.036 159.199 350.875 158.936C350.714 158.667 350.501 158.457 350.238 158.306C349.974 158.149 349.649 158.071 349.264 158.071C348.922 158.071 348.624 158.13 348.37 158.247C348.121 158.364 347.909 158.523 347.733 158.723C347.557 158.918 347.413 159.143 347.301 159.397C347.193 159.646 347.113 159.905 347.059 160.173V161.938C347.137 162.28 347.264 162.61 347.44 162.927C347.621 163.24 347.86 163.496 348.158 163.696C348.46 163.896 348.834 163.997 349.278 163.997C349.645 163.997 349.957 163.923 350.216 163.777C350.479 163.625 350.692 163.418 350.853 163.154C351.019 162.891 351.141 162.585 351.219 162.239C351.297 161.892 351.336 161.521 351.336 161.125ZM354.054 161.125V160.957C354.054 160.386 354.137 159.856 354.303 159.368C354.469 158.875 354.708 158.447 355.021 158.086C355.333 157.72 355.711 157.437 356.156 157.236C356.6 157.031 357.098 156.929 357.65 156.929C358.207 156.929 358.707 157.031 359.151 157.236C359.601 157.437 359.981 157.72 360.294 158.086C360.611 158.447 360.853 158.875 361.019 159.368C361.185 159.856 361.268 160.386 361.268 160.957V161.125C361.268 161.697 361.185 162.227 361.019 162.715C360.853 163.203 360.611 163.63 360.294 163.997C359.981 164.358 359.603 164.641 359.159 164.846C358.719 165.046 358.221 165.146 357.665 165.146C357.108 165.146 356.607 165.046 356.163 164.846C355.719 164.641 355.338 164.358 355.021 163.997C354.708 163.63 354.469 163.203 354.303 162.715C354.137 162.227 354.054 161.697 354.054 161.125ZM355.409 160.957V161.125C355.409 161.521 355.455 161.895 355.548 162.246C355.641 162.593 355.78 162.9 355.965 163.169C356.156 163.438 356.393 163.65 356.676 163.806C356.959 163.958 357.289 164.033 357.665 164.033C358.036 164.033 358.36 163.958 358.639 163.806C358.922 163.65 359.156 163.438 359.342 163.169C359.527 162.9 359.667 162.593 359.759 162.246C359.857 161.895 359.906 161.521 359.906 161.125V160.957C359.906 160.566 359.857 160.198 359.759 159.851C359.667 159.5 359.525 159.189 359.334 158.921C359.149 158.647 358.915 158.433 358.631 158.276C358.353 158.12 358.026 158.042 357.65 158.042C357.279 158.042 356.952 158.12 356.668 158.276C356.39 158.433 356.156 158.647 355.965 158.921C355.78 159.189 355.641 159.5 355.548 159.851C355.455 160.198 355.409 160.566 355.409 160.957ZM363.722 157.075L365.458 159.961L367.215 157.075H368.805L366.212 160.986L368.885 165H367.318L365.487 162.026L363.656 165H362.081L364.747 160.986L362.162 157.075H363.722Z" fill="#AAAAAA"/>
</svg>
