<svg width="620" height="320" viewBox="0 0 620 320" fill="none" xmlns="http://www.w3.org/2000/svg">
<rect width="620" height="320" rx="16" fill="#F8F8F8"/>
<rect x="225.5" y="128.5" width="19" height="19" rx="3.5" fill="white"/>
<rect x="225.5" y="128.5" width="19" height="19" rx="3.5" stroke="#AAAAAA"/>
<path d="M260.339 132.336H261.745V139.55C261.745 140.351 261.567 141.018 261.21 141.55C260.854 142.082 260.38 142.482 259.79 142.751C259.204 143.015 258.566 143.146 257.878 143.146C257.155 143.146 256.501 143.015 255.915 142.751C255.334 142.482 254.873 142.082 254.531 141.55C254.194 141.018 254.025 140.351 254.025 139.55V132.336H255.424V139.55C255.424 140.107 255.527 140.566 255.732 140.927C255.937 141.289 256.223 141.557 256.589 141.733C256.96 141.909 257.39 141.997 257.878 141.997C258.371 141.997 258.801 141.909 259.167 141.733C259.538 141.557 259.826 141.289 260.031 140.927C260.236 140.566 260.339 140.107 260.339 139.55V132.336ZM265.114 136.767V143H263.759V135.075H265.041L265.114 136.767ZM264.792 138.737L264.228 138.715C264.233 138.173 264.313 137.673 264.47 137.214C264.626 136.75 264.846 136.347 265.129 136.005C265.412 135.664 265.749 135.4 266.14 135.214C266.535 135.024 266.972 134.929 267.451 134.929C267.841 134.929 268.193 134.982 268.505 135.09C268.818 135.192 269.084 135.358 269.304 135.588C269.528 135.817 269.699 136.115 269.816 136.481C269.934 136.843 269.992 137.285 269.992 137.807V143H268.63V137.792C268.63 137.377 268.569 137.045 268.447 136.796C268.325 136.542 268.146 136.359 267.912 136.247C267.678 136.13 267.39 136.071 267.048 136.071C266.711 136.071 266.403 136.142 266.125 136.284C265.852 136.425 265.615 136.621 265.415 136.87C265.219 137.119 265.065 137.404 264.953 137.727C264.846 138.044 264.792 138.381 264.792 138.737ZM275.222 142.033C275.544 142.033 275.842 141.967 276.115 141.835C276.389 141.704 276.613 141.523 276.789 141.293C276.965 141.059 277.065 140.793 277.089 140.495H278.378C278.354 140.964 278.195 141.401 277.902 141.806C277.614 142.207 277.236 142.531 276.767 142.78C276.298 143.024 275.783 143.146 275.222 143.146C274.626 143.146 274.106 143.042 273.662 142.832C273.222 142.622 272.856 142.333 272.563 141.967C272.275 141.601 272.058 141.181 271.911 140.708C271.77 140.229 271.699 139.724 271.699 139.191V138.884C271.699 138.352 271.77 137.849 271.911 137.375C272.058 136.896 272.275 136.474 272.563 136.108C272.856 135.742 273.222 135.454 273.662 135.244C274.106 135.034 274.626 134.929 275.222 134.929C275.842 134.929 276.384 135.056 276.848 135.31C277.312 135.559 277.675 135.9 277.939 136.335C278.208 136.765 278.354 137.253 278.378 137.8H277.089C277.065 137.473 276.972 137.177 276.811 136.914C276.655 136.65 276.44 136.44 276.167 136.284C275.898 136.123 275.583 136.042 275.222 136.042C274.807 136.042 274.458 136.125 274.174 136.291C273.896 136.452 273.674 136.672 273.508 136.95C273.347 137.224 273.229 137.529 273.156 137.866C273.088 138.198 273.054 138.537 273.054 138.884V139.191C273.054 139.538 273.088 139.88 273.156 140.217C273.225 140.554 273.339 140.859 273.5 141.132C273.667 141.406 273.889 141.625 274.167 141.792C274.45 141.953 274.802 142.033 275.222 142.033ZM281.257 131.75V143H279.902V131.75H281.257ZM280.935 138.737L280.371 138.715C280.375 138.173 280.456 137.673 280.612 137.214C280.769 136.75 280.988 136.347 281.271 136.005C281.555 135.664 281.892 135.4 282.282 135.214C282.678 135.024 283.115 134.929 283.593 134.929C283.984 134.929 284.335 134.982 284.648 135.09C284.96 135.192 285.227 135.358 285.446 135.588C285.671 135.817 285.842 136.115 285.959 136.481C286.076 136.843 286.135 137.285 286.135 137.807V143H284.772V137.792C284.772 137.377 284.711 137.045 284.589 136.796C284.467 136.542 284.289 136.359 284.055 136.247C283.82 136.13 283.532 136.071 283.19 136.071C282.854 136.071 282.546 136.142 282.268 136.284C281.994 136.425 281.757 136.621 281.557 136.87C281.362 137.119 281.208 137.404 281.096 137.727C280.988 138.044 280.935 138.381 280.935 138.737ZM291.452 143.146C290.9 143.146 290.4 143.054 289.951 142.868C289.506 142.678 289.123 142.412 288.801 142.07C288.483 141.728 288.239 141.323 288.068 140.854C287.897 140.385 287.812 139.873 287.812 139.316V139.008C287.812 138.364 287.907 137.79 288.098 137.287C288.288 136.779 288.547 136.35 288.874 135.998C289.201 135.646 289.572 135.38 289.987 135.2C290.402 135.019 290.832 134.929 291.276 134.929C291.843 134.929 292.331 135.026 292.741 135.222C293.156 135.417 293.496 135.69 293.759 136.042C294.023 136.389 294.218 136.799 294.345 137.272C294.472 137.741 294.536 138.254 294.536 138.811V139.418H288.618V138.312H293.181V138.21C293.161 137.858 293.088 137.517 292.961 137.185C292.839 136.853 292.644 136.579 292.375 136.364C292.106 136.149 291.74 136.042 291.276 136.042C290.969 136.042 290.686 136.108 290.427 136.24C290.168 136.367 289.946 136.557 289.76 136.811C289.575 137.065 289.431 137.375 289.328 137.741C289.226 138.107 289.174 138.53 289.174 139.008V139.316C289.174 139.692 289.226 140.046 289.328 140.378C289.436 140.705 289.589 140.993 289.79 141.242C289.995 141.491 290.241 141.687 290.529 141.828C290.822 141.97 291.154 142.041 291.525 142.041C292.004 142.041 292.409 141.943 292.741 141.748C293.073 141.552 293.364 141.291 293.613 140.964L294.433 141.616C294.262 141.875 294.045 142.121 293.781 142.355C293.518 142.59 293.193 142.78 292.807 142.927C292.426 143.073 291.975 143.146 291.452 143.146ZM299.289 142.033C299.611 142.033 299.909 141.967 300.183 141.835C300.456 141.704 300.681 141.523 300.856 141.293C301.032 141.059 301.132 140.793 301.157 140.495H302.446C302.421 140.964 302.263 141.401 301.97 141.806C301.682 142.207 301.303 142.531 300.834 142.78C300.366 143.024 299.851 143.146 299.289 143.146C298.693 143.146 298.173 143.042 297.729 142.832C297.29 142.622 296.923 142.333 296.63 141.967C296.342 141.601 296.125 141.181 295.979 140.708C295.837 140.229 295.766 139.724 295.766 139.191V138.884C295.766 138.352 295.837 137.849 295.979 137.375C296.125 136.896 296.342 136.474 296.63 136.108C296.923 135.742 297.29 135.454 297.729 135.244C298.173 135.034 298.693 134.929 299.289 134.929C299.909 134.929 300.451 135.056 300.915 135.31C301.379 135.559 301.743 135.9 302.006 136.335C302.275 136.765 302.421 137.253 302.446 137.8H301.157C301.132 137.473 301.04 137.177 300.878 136.914C300.722 136.65 300.507 136.44 300.234 136.284C299.965 136.123 299.65 136.042 299.289 136.042C298.874 136.042 298.525 136.125 298.242 136.291C297.963 136.452 297.741 136.672 297.575 136.95C297.414 137.224 297.297 137.529 297.224 137.866C297.155 138.198 297.121 138.537 297.121 138.884V139.191C297.121 139.538 297.155 139.88 297.224 140.217C297.292 140.554 297.407 140.859 297.568 141.132C297.734 141.406 297.956 141.625 298.234 141.792C298.518 141.953 298.869 142.033 299.289 142.033ZM305.332 131.75V143H303.969V131.75H305.332ZM310.173 135.075L306.716 138.774L304.782 140.781L304.672 139.338L306.057 137.683L308.518 135.075H310.173ZM308.935 143L306.108 139.221L306.811 138.012L310.532 143H308.935ZM314.714 143.146C314.162 143.146 313.662 143.054 313.212 142.868C312.768 142.678 312.385 142.412 312.062 142.07C311.745 141.728 311.501 141.323 311.33 140.854C311.159 140.385 311.074 139.873 311.074 139.316V139.008C311.074 138.364 311.169 137.79 311.359 137.287C311.55 136.779 311.809 136.35 312.136 135.998C312.463 135.646 312.834 135.38 313.249 135.2C313.664 135.019 314.094 134.929 314.538 134.929C315.104 134.929 315.593 135.026 316.003 135.222C316.418 135.417 316.757 135.69 317.021 136.042C317.285 136.389 317.48 136.799 317.607 137.272C317.734 137.741 317.797 138.254 317.797 138.811V139.418H311.879V138.312H316.442V138.21C316.423 137.858 316.35 137.517 316.223 137.185C316.101 136.853 315.905 136.579 315.637 136.364C315.368 136.149 315.002 136.042 314.538 136.042C314.23 136.042 313.947 136.108 313.688 136.24C313.43 136.367 313.208 136.557 313.022 136.811C312.836 137.065 312.692 137.375 312.59 137.741C312.487 138.107 312.436 138.53 312.436 139.008V139.316C312.436 139.692 312.487 140.046 312.59 140.378C312.697 140.705 312.851 140.993 313.051 141.242C313.256 141.491 313.503 141.687 313.791 141.828C314.084 141.97 314.416 142.041 314.787 142.041C315.266 142.041 315.671 141.943 316.003 141.748C316.335 141.552 316.625 141.291 316.875 140.964L317.695 141.616C317.524 141.875 317.307 142.121 317.043 142.355C316.779 142.59 316.455 142.78 316.069 142.927C315.688 143.073 315.236 143.146 314.714 143.146ZM324.375 141.462V131.75H325.737V143H324.492L324.375 141.462ZM319.042 139.125V138.972C319.042 138.366 319.116 137.817 319.262 137.324C319.414 136.826 319.626 136.398 319.899 136.042C320.178 135.686 320.507 135.412 320.888 135.222C321.274 135.026 321.704 134.929 322.177 134.929C322.675 134.929 323.11 135.017 323.481 135.192C323.857 135.363 324.174 135.615 324.433 135.947C324.697 136.274 324.904 136.669 325.056 137.133C325.207 137.597 325.312 138.122 325.371 138.708V139.382C325.317 139.963 325.212 140.485 325.056 140.949C324.904 141.413 324.697 141.809 324.433 142.136C324.174 142.463 323.857 142.714 323.481 142.89C323.105 143.061 322.666 143.146 322.163 143.146C321.699 143.146 321.274 143.046 320.888 142.846C320.507 142.646 320.178 142.365 319.899 142.004C319.626 141.643 319.414 141.218 319.262 140.729C319.116 140.236 319.042 139.702 319.042 139.125ZM320.405 138.972V139.125C320.405 139.521 320.444 139.892 320.522 140.239C320.605 140.585 320.732 140.891 320.903 141.154C321.074 141.418 321.291 141.625 321.555 141.777C321.818 141.923 322.133 141.997 322.5 141.997C322.949 141.997 323.317 141.901 323.605 141.711C323.898 141.521 324.133 141.269 324.309 140.957C324.484 140.644 324.621 140.305 324.719 139.938V138.173C324.66 137.905 324.575 137.646 324.462 137.397C324.355 137.143 324.213 136.918 324.038 136.723C323.867 136.523 323.654 136.364 323.4 136.247C323.151 136.13 322.856 136.071 322.514 136.071C322.143 136.071 321.823 136.149 321.555 136.306C321.291 136.457 321.074 136.667 320.903 136.936C320.732 137.199 320.605 137.507 320.522 137.858C320.444 138.205 320.405 138.576 320.405 138.972ZM334.738 142.033C335.061 142.033 335.358 141.967 335.632 141.835C335.905 141.704 336.13 141.523 336.306 141.293C336.481 141.059 336.582 140.793 336.606 140.495H337.895C337.871 140.964 337.712 141.401 337.419 141.806C337.131 142.207 336.752 142.531 336.284 142.78C335.815 143.024 335.3 143.146 334.738 143.146C334.143 143.146 333.623 143.042 333.178 142.832C332.739 142.622 332.373 142.333 332.08 141.967C331.792 141.601 331.574 141.181 331.428 140.708C331.286 140.229 331.215 139.724 331.215 139.191V138.884C331.215 138.352 331.286 137.849 331.428 137.375C331.574 136.896 331.792 136.474 332.08 136.108C332.373 135.742 332.739 135.454 333.178 135.244C333.623 135.034 334.143 134.929 334.738 134.929C335.358 134.929 335.9 135.056 336.364 135.31C336.828 135.559 337.192 135.9 337.456 136.335C337.724 136.765 337.871 137.253 337.895 137.8H336.606C336.582 137.473 336.489 137.177 336.328 136.914C336.171 136.65 335.957 136.44 335.683 136.284C335.415 136.123 335.1 136.042 334.738 136.042C334.323 136.042 333.974 136.125 333.691 136.291C333.413 136.452 333.19 136.672 333.024 136.95C332.863 137.224 332.746 137.529 332.673 137.866C332.604 138.198 332.57 138.537 332.57 138.884V139.191C332.57 139.538 332.604 139.88 332.673 140.217C332.741 140.554 332.856 140.859 333.017 141.132C333.183 141.406 333.405 141.625 333.684 141.792C333.967 141.953 334.318 142.033 334.738 142.033ZM340.773 131.75V143H339.418V131.75H340.773ZM340.451 138.737L339.887 138.715C339.892 138.173 339.973 137.673 340.129 137.214C340.285 136.75 340.505 136.347 340.788 136.005C341.071 135.664 341.408 135.4 341.799 135.214C342.194 135.024 342.631 134.929 343.11 134.929C343.5 134.929 343.852 134.982 344.165 135.09C344.477 135.192 344.743 135.358 344.963 135.588C345.188 135.817 345.358 136.115 345.476 136.481C345.593 136.843 345.651 137.285 345.651 137.807V143H344.289V137.792C344.289 137.377 344.228 137.045 344.106 136.796C343.984 136.542 343.806 136.359 343.571 136.247C343.337 136.13 343.049 136.071 342.707 136.071C342.37 136.071 342.062 136.142 341.784 136.284C341.511 136.425 341.274 136.621 341.074 136.87C340.878 137.119 340.725 137.404 340.612 137.727C340.505 138.044 340.451 138.381 340.451 138.737ZM350.969 143.146C350.417 143.146 349.917 143.054 349.467 142.868C349.023 142.678 348.64 142.412 348.317 142.07C348 141.728 347.756 141.323 347.585 140.854C347.414 140.385 347.329 139.873 347.329 139.316V139.008C347.329 138.364 347.424 137.79 347.614 137.287C347.805 136.779 348.063 136.35 348.391 135.998C348.718 135.646 349.089 135.38 349.504 135.2C349.919 135.019 350.349 134.929 350.793 134.929C351.359 134.929 351.848 135.026 352.258 135.222C352.673 135.417 353.012 135.69 353.276 136.042C353.54 136.389 353.735 136.799 353.862 137.272C353.989 137.741 354.052 138.254 354.052 138.811V139.418H348.134V138.312H352.697V138.21C352.678 137.858 352.604 137.517 352.478 137.185C352.355 136.853 352.16 136.579 351.892 136.364C351.623 136.149 351.257 136.042 350.793 136.042C350.485 136.042 350.202 136.108 349.943 136.24C349.685 136.367 349.462 136.557 349.277 136.811C349.091 137.065 348.947 137.375 348.845 137.741C348.742 138.107 348.691 138.53 348.691 139.008V139.316C348.691 139.692 348.742 140.046 348.845 140.378C348.952 140.705 349.106 140.993 349.306 141.242C349.511 141.491 349.758 141.687 350.046 141.828C350.339 141.97 350.671 142.041 351.042 142.041C351.521 142.041 351.926 141.943 352.258 141.748C352.59 141.552 352.88 141.291 353.129 140.964L353.95 141.616C353.779 141.875 353.562 142.121 353.298 142.355C353.034 142.59 352.709 142.78 352.324 142.927C351.943 143.073 351.491 143.146 350.969 143.146ZM358.806 142.033C359.128 142.033 359.426 141.967 359.699 141.835C359.973 141.704 360.197 141.523 360.373 141.293C360.549 141.059 360.649 140.793 360.673 140.495H361.962C361.938 140.964 361.779 141.401 361.486 141.806C361.198 142.207 360.82 142.531 360.351 142.78C359.882 143.024 359.367 143.146 358.806 143.146C358.21 143.146 357.69 143.042 357.246 142.832C356.806 142.622 356.44 142.333 356.147 141.967C355.859 141.601 355.642 141.181 355.495 140.708C355.354 140.229 355.283 139.724 355.283 139.191V138.884C355.283 138.352 355.354 137.849 355.495 137.375C355.642 136.896 355.859 136.474 356.147 136.108C356.44 135.742 356.806 135.454 357.246 135.244C357.69 135.034 358.21 134.929 358.806 134.929C359.426 134.929 359.968 135.056 360.432 135.31C360.896 135.559 361.259 135.9 361.523 136.335C361.792 136.765 361.938 137.253 361.962 137.8H360.673C360.649 137.473 360.556 137.177 360.395 136.914C360.239 136.65 360.024 136.44 359.75 136.284C359.482 136.123 359.167 136.042 358.806 136.042C358.391 136.042 358.042 136.125 357.758 136.291C357.48 136.452 357.258 136.672 357.092 136.95C356.931 137.224 356.813 137.529 356.74 137.866C356.672 138.198 356.638 138.537 356.638 138.884V139.191C356.638 139.538 356.672 139.88 356.74 140.217C356.809 140.554 356.923 140.859 357.084 141.132C357.25 141.406 357.473 141.625 357.751 141.792C358.034 141.953 358.386 142.033 358.806 142.033ZM364.848 131.75V143H363.486V131.75H364.848ZM369.689 135.075L366.232 138.774L364.299 140.781L364.189 139.338L365.573 137.683L368.034 135.075H369.689ZM368.452 143L365.625 139.221L366.328 138.012L370.048 143H368.452ZM371.081 131.75H372.443V141.462L372.326 143H371.081V131.75ZM377.797 138.972V139.125C377.797 139.702 377.729 140.236 377.592 140.729C377.456 141.218 377.255 141.643 376.992 142.004C376.728 142.365 376.406 142.646 376.025 142.846C375.644 143.046 375.207 143.146 374.714 143.146C374.211 143.146 373.769 143.061 373.388 142.89C373.012 142.714 372.695 142.463 372.436 142.136C372.177 141.809 371.97 141.413 371.813 140.949C371.662 140.485 371.557 139.963 371.499 139.382V138.708C371.557 138.122 371.662 137.597 371.813 137.133C371.97 136.669 372.177 136.274 372.436 135.947C372.695 135.615 373.012 135.363 373.388 135.192C373.764 135.017 374.201 134.929 374.699 134.929C375.197 134.929 375.639 135.026 376.025 135.222C376.411 135.412 376.733 135.686 376.992 136.042C377.255 136.398 377.456 136.826 377.592 137.324C377.729 137.817 377.797 138.366 377.797 138.972ZM376.435 139.125V138.972C376.435 138.576 376.398 138.205 376.325 137.858C376.252 137.507 376.135 137.199 375.974 136.936C375.812 136.667 375.6 136.457 375.336 136.306C375.073 136.149 374.748 136.071 374.362 136.071C374.021 136.071 373.723 136.13 373.469 136.247C373.22 136.364 373.007 136.523 372.832 136.723C372.656 136.918 372.512 137.143 372.399 137.397C372.292 137.646 372.211 137.905 372.158 138.173V139.938C372.236 140.28 372.363 140.61 372.539 140.927C372.719 141.24 372.958 141.496 373.256 141.696C373.559 141.896 373.933 141.997 374.377 141.997C374.743 141.997 375.056 141.923 375.314 141.777C375.578 141.625 375.791 141.418 375.952 141.154C376.118 140.891 376.24 140.585 376.318 140.239C376.396 139.892 376.435 139.521 376.435 139.125ZM379.152 139.125V138.957C379.152 138.386 379.235 137.856 379.401 137.368C379.567 136.875 379.807 136.447 380.119 136.086C380.432 135.72 380.81 135.437 381.254 135.236C381.699 135.031 382.197 134.929 382.749 134.929C383.305 134.929 383.806 135.031 384.25 135.236C384.699 135.437 385.08 135.72 385.393 136.086C385.71 136.447 385.952 136.875 386.118 137.368C386.284 137.856 386.367 138.386 386.367 138.957V139.125C386.367 139.697 386.284 140.227 386.118 140.715C385.952 141.203 385.71 141.63 385.393 141.997C385.08 142.358 384.702 142.641 384.257 142.846C383.818 143.046 383.32 143.146 382.763 143.146C382.207 143.146 381.706 143.046 381.262 142.846C380.817 142.641 380.437 142.358 380.119 141.997C379.807 141.63 379.567 141.203 379.401 140.715C379.235 140.227 379.152 139.697 379.152 139.125ZM380.507 138.957V139.125C380.507 139.521 380.554 139.895 380.646 140.246C380.739 140.593 380.878 140.9 381.064 141.169C381.254 141.438 381.491 141.65 381.774 141.806C382.058 141.958 382.387 142.033 382.763 142.033C383.134 142.033 383.459 141.958 383.737 141.806C384.021 141.65 384.255 141.438 384.44 141.169C384.626 140.9 384.765 140.593 384.858 140.246C384.956 139.895 385.004 139.521 385.004 139.125V138.957C385.004 138.566 384.956 138.198 384.858 137.851C384.765 137.5 384.624 137.189 384.433 136.921C384.248 136.647 384.013 136.433 383.73 136.276C383.452 136.12 383.125 136.042 382.749 136.042C382.377 136.042 382.05 136.12 381.767 136.276C381.489 136.433 381.254 136.647 381.064 136.921C380.878 137.189 380.739 137.5 380.646 137.851C380.554 138.198 380.507 138.566 380.507 138.957ZM388.82 135.075L390.556 137.961L392.314 135.075H393.903L391.311 138.986L393.984 143H392.417L390.585 140.026L388.754 143H387.18L389.846 138.986L387.26 135.075H388.82Z" fill="#505050"/>
<rect x="225" y="172" width="20" height="20" rx="4" fill="#0059FF"/>
<path d="M233.238 186.088L229.338 182.166C229.104 181.93 229.104 181.548 229.338 181.313L230.186 180.459C230.421 180.223 230.801 180.223 231.035 180.459L233.662 183.101L238.965 177.912C239.199 177.676 239.579 177.676 239.814 177.912L240.662 178.765C240.896 179.001 240.896 179.383 240.662 179.619L234.086 186.088C233.852 186.324 233.472 186.324 233.238 186.088Z" fill="white"/>
<path d="M260.676 183.609H262.082C262.009 184.283 261.816 184.886 261.503 185.418C261.191 185.95 260.749 186.373 260.178 186.685C259.606 186.993 258.894 187.146 258.039 187.146C257.414 187.146 256.845 187.029 256.333 186.795C255.825 186.561 255.388 186.229 255.021 185.799C254.655 185.364 254.372 184.844 254.172 184.239C253.977 183.628 253.879 182.95 253.879 182.203V181.141C253.879 180.394 253.977 179.717 254.172 179.112C254.372 178.501 254.658 177.979 255.029 177.544C255.405 177.11 255.856 176.775 256.384 176.541C256.911 176.307 257.504 176.189 258.164 176.189C258.969 176.189 259.65 176.341 260.207 176.644C260.764 176.946 261.196 177.366 261.503 177.903C261.816 178.436 262.009 179.053 262.082 179.756H260.676C260.607 179.258 260.48 178.831 260.295 178.475C260.109 178.113 259.846 177.835 259.504 177.64C259.162 177.444 258.715 177.347 258.164 177.347C257.69 177.347 257.272 177.437 256.911 177.618C256.555 177.798 256.254 178.055 256.01 178.387C255.771 178.719 255.59 179.117 255.468 179.581C255.346 180.044 255.285 180.56 255.285 181.126V182.203C255.285 182.725 255.339 183.216 255.446 183.675C255.559 184.134 255.727 184.537 255.952 184.883C256.176 185.23 256.462 185.503 256.809 185.704C257.155 185.899 257.565 185.997 258.039 185.997C258.64 185.997 259.118 185.901 259.475 185.711C259.831 185.521 260.1 185.247 260.28 184.891C260.466 184.534 260.598 184.107 260.676 183.609ZM265.158 175.75V187H263.803V175.75H265.158ZM264.836 182.737L264.272 182.715C264.277 182.173 264.357 181.673 264.514 181.214C264.67 180.75 264.89 180.347 265.173 180.005C265.456 179.664 265.793 179.4 266.184 179.214C266.579 179.024 267.016 178.929 267.495 178.929C267.885 178.929 268.237 178.982 268.549 179.09C268.862 179.192 269.128 179.358 269.348 179.588C269.572 179.817 269.743 180.115 269.86 180.481C269.978 180.843 270.036 181.285 270.036 181.807V187H268.674V181.792C268.674 181.377 268.613 181.045 268.491 180.796C268.369 180.542 268.19 180.359 267.956 180.247C267.722 180.13 267.434 180.071 267.092 180.071C266.755 180.071 266.447 180.142 266.169 180.284C265.896 180.425 265.659 180.621 265.458 180.87C265.263 181.119 265.109 181.404 264.997 181.727C264.89 182.044 264.836 182.381 264.836 182.737ZM275.354 187.146C274.802 187.146 274.301 187.054 273.852 186.868C273.408 186.678 273.024 186.412 272.702 186.07C272.385 185.728 272.141 185.323 271.97 184.854C271.799 184.385 271.713 183.873 271.713 183.316V183.008C271.713 182.364 271.809 181.79 271.999 181.287C272.189 180.779 272.448 180.35 272.775 179.998C273.103 179.646 273.474 179.38 273.889 179.2C274.304 179.019 274.733 178.929 275.178 178.929C275.744 178.929 276.232 179.026 276.643 179.222C277.058 179.417 277.397 179.69 277.661 180.042C277.924 180.389 278.12 180.799 278.247 181.272C278.374 181.741 278.437 182.254 278.437 182.811V183.418H272.519V182.312H277.082V182.21C277.062 181.858 276.989 181.517 276.862 181.185C276.74 180.853 276.545 180.579 276.276 180.364C276.008 180.149 275.642 180.042 275.178 180.042C274.87 180.042 274.587 180.108 274.328 180.24C274.069 180.367 273.847 180.557 273.662 180.811C273.476 181.065 273.332 181.375 273.229 181.741C273.127 182.107 273.076 182.53 273.076 183.008V183.316C273.076 183.692 273.127 184.046 273.229 184.378C273.337 184.705 273.491 184.993 273.691 185.242C273.896 185.491 274.143 185.687 274.431 185.828C274.724 185.97 275.056 186.041 275.427 186.041C275.905 186.041 276.311 185.943 276.643 185.748C276.975 185.552 277.265 185.291 277.514 184.964L278.334 185.616C278.164 185.875 277.946 186.121 277.683 186.355C277.419 186.59 277.094 186.78 276.708 186.927C276.328 187.073 275.876 187.146 275.354 187.146ZM283.19 186.033C283.513 186.033 283.811 185.967 284.084 185.835C284.357 185.704 284.582 185.523 284.758 185.293C284.934 185.059 285.034 184.793 285.058 184.495H286.347C286.323 184.964 286.164 185.401 285.871 185.806C285.583 186.207 285.205 186.531 284.736 186.78C284.267 187.024 283.752 187.146 283.19 187.146C282.595 187.146 282.075 187.042 281.63 186.832C281.191 186.622 280.825 186.333 280.532 185.967C280.244 185.601 280.026 185.181 279.88 184.708C279.738 184.229 279.667 183.724 279.667 183.191V182.884C279.667 182.352 279.738 181.849 279.88 181.375C280.026 180.896 280.244 180.474 280.532 180.108C280.825 179.742 281.191 179.454 281.63 179.244C282.075 179.034 282.595 178.929 283.19 178.929C283.811 178.929 284.353 179.056 284.816 179.31C285.28 179.559 285.644 179.9 285.908 180.335C286.176 180.765 286.323 181.253 286.347 181.8H285.058C285.034 181.473 284.941 181.177 284.78 180.914C284.624 180.65 284.409 180.44 284.135 180.284C283.867 180.123 283.552 180.042 283.19 180.042C282.775 180.042 282.426 180.125 282.143 180.291C281.865 180.452 281.643 180.672 281.477 180.95C281.315 181.224 281.198 181.529 281.125 181.866C281.057 182.198 281.022 182.537 281.022 182.884V183.191C281.022 183.538 281.057 183.88 281.125 184.217C281.193 184.554 281.308 184.859 281.469 185.132C281.635 185.406 281.857 185.625 282.136 185.792C282.419 185.953 282.771 186.033 283.19 186.033ZM289.233 175.75V187H287.871V175.75H289.233ZM294.074 179.075L290.617 182.774L288.684 184.781L288.574 183.338L289.958 181.683L292.419 179.075H294.074ZM292.836 187L290.009 183.221L290.712 182.012L294.433 187H292.836ZM298.615 187.146C298.063 187.146 297.563 187.054 297.114 186.868C296.669 186.678 296.286 186.412 295.964 186.07C295.646 185.728 295.402 185.323 295.231 184.854C295.061 184.385 294.975 183.873 294.975 183.316V183.008C294.975 182.364 295.07 181.79 295.261 181.287C295.451 180.779 295.71 180.35 296.037 179.998C296.364 179.646 296.735 179.38 297.15 179.2C297.565 179.019 297.995 178.929 298.439 178.929C299.006 178.929 299.494 179.026 299.904 179.222C300.319 179.417 300.659 179.69 300.922 180.042C301.186 180.389 301.381 180.799 301.508 181.272C301.635 181.741 301.699 182.254 301.699 182.811V183.418H295.781V182.312H300.344V182.21C300.324 181.858 300.251 181.517 300.124 181.185C300.002 180.853 299.807 180.579 299.538 180.364C299.27 180.149 298.903 180.042 298.439 180.042C298.132 180.042 297.849 180.108 297.59 180.24C297.331 180.367 297.109 180.557 296.923 180.811C296.738 181.065 296.594 181.375 296.491 181.741C296.389 182.107 296.337 182.53 296.337 183.008V183.316C296.337 183.692 296.389 184.046 296.491 184.378C296.599 184.705 296.752 184.993 296.953 185.242C297.158 185.491 297.404 185.687 297.692 185.828C297.985 185.97 298.317 186.041 298.688 186.041C299.167 186.041 299.572 185.943 299.904 185.748C300.236 185.552 300.527 185.291 300.776 184.964L301.596 185.616C301.425 185.875 301.208 186.121 300.944 186.355C300.681 186.59 300.356 186.78 299.97 186.927C299.589 187.073 299.138 187.146 298.615 187.146ZM308.276 185.462V175.75H309.638V187H308.393L308.276 185.462ZM302.944 183.125V182.972C302.944 182.366 303.017 181.817 303.164 181.324C303.315 180.826 303.527 180.398 303.801 180.042C304.079 179.686 304.409 179.412 304.79 179.222C305.175 179.026 305.605 178.929 306.079 178.929C306.577 178.929 307.011 179.017 307.382 179.192C307.758 179.363 308.076 179.615 308.334 179.947C308.598 180.274 308.806 180.669 308.957 181.133C309.108 181.597 309.213 182.122 309.272 182.708V183.382C309.218 183.963 309.113 184.485 308.957 184.949C308.806 185.413 308.598 185.809 308.334 186.136C308.076 186.463 307.758 186.714 307.382 186.89C307.006 187.061 306.567 187.146 306.064 187.146C305.6 187.146 305.175 187.046 304.79 186.846C304.409 186.646 304.079 186.365 303.801 186.004C303.527 185.643 303.315 185.218 303.164 184.729C303.017 184.236 302.944 183.702 302.944 183.125ZM304.306 182.972V183.125C304.306 183.521 304.345 183.892 304.423 184.239C304.506 184.585 304.633 184.891 304.804 185.154C304.975 185.418 305.192 185.625 305.456 185.777C305.72 185.923 306.035 185.997 306.401 185.997C306.85 185.997 307.219 185.901 307.507 185.711C307.8 185.521 308.034 185.269 308.21 184.957C308.386 184.644 308.522 184.305 308.62 183.938V182.173C308.562 181.905 308.476 181.646 308.364 181.397C308.256 181.143 308.115 180.918 307.939 180.723C307.768 180.523 307.556 180.364 307.302 180.247C307.053 180.13 306.757 180.071 306.416 180.071C306.044 180.071 305.725 180.149 305.456 180.306C305.192 180.457 304.975 180.667 304.804 180.936C304.633 181.199 304.506 181.507 304.423 181.858C304.345 182.205 304.306 182.576 304.306 182.972ZM318.64 186.033C318.962 186.033 319.26 185.967 319.533 185.835C319.807 185.704 320.031 185.523 320.207 185.293C320.383 185.059 320.483 184.793 320.507 184.495H321.796C321.772 184.964 321.613 185.401 321.32 185.806C321.032 186.207 320.654 186.531 320.185 186.78C319.716 187.024 319.201 187.146 318.64 187.146C318.044 187.146 317.524 187.042 317.08 186.832C316.64 186.622 316.274 186.333 315.981 185.967C315.693 185.601 315.476 185.181 315.329 184.708C315.188 184.229 315.117 183.724 315.117 183.191V182.884C315.117 182.352 315.188 181.849 315.329 181.375C315.476 180.896 315.693 180.474 315.981 180.108C316.274 179.742 316.64 179.454 317.08 179.244C317.524 179.034 318.044 178.929 318.64 178.929C319.26 178.929 319.802 179.056 320.266 179.31C320.729 179.559 321.093 179.9 321.357 180.335C321.625 180.765 321.772 181.253 321.796 181.8H320.507C320.483 181.473 320.39 181.177 320.229 180.914C320.073 180.65 319.858 180.44 319.584 180.284C319.316 180.123 319.001 180.042 318.64 180.042C318.225 180.042 317.875 180.125 317.592 180.291C317.314 180.452 317.092 180.672 316.926 180.95C316.765 181.224 316.647 181.529 316.574 181.866C316.506 182.198 316.472 182.537 316.472 182.884V183.191C316.472 183.538 316.506 183.88 316.574 184.217C316.643 184.554 316.757 184.859 316.918 185.132C317.084 185.406 317.307 185.625 317.585 185.792C317.868 185.953 318.22 186.033 318.64 186.033ZM324.675 175.75V187H323.32V175.75H324.675ZM324.353 182.737L323.789 182.715C323.793 182.173 323.874 181.673 324.03 181.214C324.187 180.75 324.406 180.347 324.689 180.005C324.973 179.664 325.31 179.4 325.7 179.214C326.096 179.024 326.533 178.929 327.011 178.929C327.402 178.929 327.753 178.982 328.066 179.09C328.378 179.192 328.645 179.358 328.864 179.588C329.089 179.817 329.26 180.115 329.377 180.481C329.494 180.843 329.553 181.285 329.553 181.807V187H328.19V181.792C328.19 181.377 328.129 181.045 328.007 180.796C327.885 180.542 327.707 180.359 327.473 180.247C327.238 180.13 326.95 180.071 326.608 180.071C326.271 180.071 325.964 180.142 325.686 180.284C325.412 180.425 325.175 180.621 324.975 180.87C324.78 181.119 324.626 181.404 324.514 181.727C324.406 182.044 324.353 182.381 324.353 182.737ZM334.87 187.146C334.318 187.146 333.818 187.054 333.369 186.868C332.924 186.678 332.541 186.412 332.219 186.07C331.901 185.728 331.657 185.323 331.486 184.854C331.315 184.385 331.23 183.873 331.23 183.316V183.008C331.23 182.364 331.325 181.79 331.516 181.287C331.706 180.779 331.965 180.35 332.292 179.998C332.619 179.646 332.99 179.38 333.405 179.2C333.82 179.019 334.25 178.929 334.694 178.929C335.261 178.929 335.749 179.026 336.159 179.222C336.574 179.417 336.914 179.69 337.177 180.042C337.441 180.389 337.636 180.799 337.763 181.272C337.89 181.741 337.954 182.254 337.954 182.811V183.418H332.036V182.312H336.599V182.21C336.579 181.858 336.506 181.517 336.379 181.185C336.257 180.853 336.062 180.579 335.793 180.364C335.524 180.149 335.158 180.042 334.694 180.042C334.387 180.042 334.104 180.108 333.845 180.24C333.586 180.367 333.364 180.557 333.178 180.811C332.993 181.065 332.849 181.375 332.746 181.741C332.644 182.107 332.592 182.53 332.592 183.008V183.316C332.592 183.692 332.644 184.046 332.746 184.378C332.854 184.705 333.007 184.993 333.208 185.242C333.413 185.491 333.659 185.687 333.947 185.828C334.24 185.97 334.572 186.041 334.943 186.041C335.422 186.041 335.827 185.943 336.159 185.748C336.491 185.552 336.782 185.291 337.031 184.964L337.851 185.616C337.68 185.875 337.463 186.121 337.199 186.355C336.936 186.59 336.611 186.78 336.225 186.927C335.844 187.073 335.393 187.146 334.87 187.146ZM342.707 186.033C343.029 186.033 343.327 185.967 343.601 185.835C343.874 185.704 344.099 185.523 344.274 185.293C344.45 185.059 344.55 184.793 344.575 184.495H345.864C345.839 184.964 345.681 185.401 345.388 185.806C345.1 186.207 344.721 186.531 344.252 186.78C343.784 187.024 343.269 187.146 342.707 187.146C342.111 187.146 341.591 187.042 341.147 186.832C340.708 186.622 340.341 186.333 340.048 185.967C339.76 185.601 339.543 185.181 339.396 184.708C339.255 184.229 339.184 183.724 339.184 183.191V182.884C339.184 182.352 339.255 181.849 339.396 181.375C339.543 180.896 339.76 180.474 340.048 180.108C340.341 179.742 340.708 179.454 341.147 179.244C341.591 179.034 342.111 178.929 342.707 178.929C343.327 178.929 343.869 179.056 344.333 179.31C344.797 179.559 345.161 179.9 345.424 180.335C345.693 180.765 345.839 181.253 345.864 181.8H344.575C344.55 181.473 344.458 181.177 344.296 180.914C344.14 180.65 343.925 180.44 343.652 180.284C343.383 180.123 343.068 180.042 342.707 180.042C342.292 180.042 341.943 180.125 341.66 180.291C341.381 180.452 341.159 180.672 340.993 180.95C340.832 181.224 340.715 181.529 340.642 181.866C340.573 182.198 340.539 182.537 340.539 182.884V183.191C340.539 183.538 340.573 183.88 340.642 184.217C340.71 184.554 340.825 184.859 340.986 185.132C341.152 185.406 341.374 185.625 341.652 185.792C341.936 185.953 342.287 186.033 342.707 186.033ZM348.75 175.75V187H347.387V175.75H348.75ZM353.591 179.075L350.134 182.774L348.2 184.781L348.09 183.338L349.475 181.683L351.936 179.075H353.591ZM352.353 187L349.526 183.221L350.229 182.012L353.95 187H352.353ZM354.982 175.75H356.345V185.462L356.228 187H354.982V175.75ZM361.699 182.972V183.125C361.699 183.702 361.63 184.236 361.494 184.729C361.357 185.218 361.157 185.643 360.893 186.004C360.629 186.365 360.307 186.646 359.926 186.846C359.545 187.046 359.108 187.146 358.615 187.146C358.112 187.146 357.67 187.061 357.29 186.89C356.914 186.714 356.596 186.463 356.337 186.136C356.079 185.809 355.871 185.413 355.715 184.949C355.563 184.485 355.458 183.963 355.4 183.382V182.708C355.458 182.122 355.563 181.597 355.715 181.133C355.871 180.669 356.079 180.274 356.337 179.947C356.596 179.615 356.914 179.363 357.29 179.192C357.666 179.017 358.103 178.929 358.601 178.929C359.099 178.929 359.541 179.026 359.926 179.222C360.312 179.412 360.634 179.686 360.893 180.042C361.157 180.398 361.357 180.826 361.494 181.324C361.63 181.817 361.699 182.366 361.699 182.972ZM360.336 183.125V182.972C360.336 182.576 360.3 182.205 360.227 181.858C360.153 181.507 360.036 181.199 359.875 180.936C359.714 180.667 359.501 180.457 359.238 180.306C358.974 180.149 358.649 180.071 358.264 180.071C357.922 180.071 357.624 180.13 357.37 180.247C357.121 180.364 356.909 180.523 356.733 180.723C356.557 180.918 356.413 181.143 356.301 181.397C356.193 181.646 356.113 181.905 356.059 182.173V183.938C356.137 184.28 356.264 184.61 356.44 184.927C356.621 185.24 356.86 185.496 357.158 185.696C357.46 185.896 357.834 185.997 358.278 185.997C358.645 185.997 358.957 185.923 359.216 185.777C359.479 185.625 359.692 185.418 359.853 185.154C360.019 184.891 360.141 184.585 360.219 184.239C360.297 183.892 360.336 183.521 360.336 183.125ZM363.054 183.125V182.957C363.054 182.386 363.137 181.856 363.303 181.368C363.469 180.875 363.708 180.447 364.021 180.086C364.333 179.72 364.711 179.437 365.156 179.236C365.6 179.031 366.098 178.929 366.65 178.929C367.207 178.929 367.707 179.031 368.151 179.236C368.601 179.437 368.981 179.72 369.294 180.086C369.611 180.447 369.853 180.875 370.019 181.368C370.185 181.856 370.268 182.386 370.268 182.957V183.125C370.268 183.697 370.185 184.227 370.019 184.715C369.853 185.203 369.611 185.63 369.294 185.997C368.981 186.358 368.603 186.641 368.159 186.846C367.719 187.046 367.221 187.146 366.665 187.146C366.108 187.146 365.607 187.046 365.163 186.846C364.719 186.641 364.338 186.358 364.021 185.997C363.708 185.63 363.469 185.203 363.303 184.715C363.137 184.227 363.054 183.697 363.054 183.125ZM364.409 182.957V183.125C364.409 183.521 364.455 183.895 364.548 184.246C364.641 184.593 364.78 184.9 364.965 185.169C365.156 185.438 365.393 185.65 365.676 185.806C365.959 185.958 366.289 186.033 366.665 186.033C367.036 186.033 367.36 185.958 367.639 185.806C367.922 185.65 368.156 185.438 368.342 185.169C368.527 184.9 368.667 184.593 368.759 184.246C368.857 183.895 368.906 183.521 368.906 183.125V182.957C368.906 182.566 368.857 182.198 368.759 181.851C368.667 181.5 368.525 181.189 368.334 180.921C368.149 180.647 367.915 180.433 367.631 180.276C367.353 180.12 367.026 180.042 366.65 180.042C366.279 180.042 365.952 180.12 365.668 180.276C365.39 180.433 365.156 180.647 364.965 180.921C364.78 181.189 364.641 181.5 364.548 181.851C364.455 182.198 364.409 182.566 364.409 182.957ZM372.722 179.075L374.458 181.961L376.215 179.075H377.805L375.212 182.986L377.885 187H376.318L374.487 184.026L372.656 187H371.081L373.747 182.986L371.162 179.075H372.722Z" fill="#505050"/>
</svg>
