<svg width="592" height="232" viewBox="0 0 592 232" fill="none" xmlns="http://www.w3.org/2000/svg">
<rect width="592" height="232" rx="4" fill="#F8F8F8"/>
<mask id="path-2-inside-1_857_23752" fill="white">
<path d="M216 36H248V68H216V36Z"/>
</mask>
<path d="M216 36V35H215V36H216ZM216 37H248V35H216V37ZM217 68V36H215V68H217Z" fill="#0059FF" mask="url(#path-2-inside-1_857_23752)"/>
<mask id="path-4-inside-2_857_23752" fill="white">
<path d="M216 68H248V100H216V68Z"/>
</mask>
<path d="M216 68V67H215V68H216ZM216 69H248V67H216V69ZM217 100V68H215V100H217Z" fill="#0059FF" mask="url(#path-4-inside-2_857_23752)"/>
<mask id="path-6-inside-3_857_23752" fill="white">
<path d="M216 132H248V164H216V132Z"/>
</mask>
<path d="M216 132V131H215V132H216ZM216 133H248V131H216V133ZM217 164V132H215V164H217Z" fill="#0059FF" mask="url(#path-6-inside-3_857_23752)"/>
<mask id="path-8-inside-4_857_23752" fill="white">
<path d="M216 164H248V196H216V164Z"/>
</mask>
<path d="M216 164V163H215V164H216ZM216 196H215V197H216V196ZM216 165H248V163H216V165ZM248 195H216V197H248V195ZM217 196V164H215V196H217Z" fill="#0059FF" mask="url(#path-8-inside-4_857_23752)"/>
<mask id="path-10-inside-5_857_23752" fill="white">
<path d="M216 100H248V132H216V100Z"/>
</mask>
<path d="M216 100V99H215V100H216ZM216 101H248V99H216V101ZM217 132V100H215V132H217Z" fill="#0059FF" mask="url(#path-10-inside-5_857_23752)"/>
<mask id="path-12-inside-6_857_23752" fill="white">
<path d="M280 36H312V68H280V36Z"/>
</mask>
<path d="M280 36V35H279V36H280ZM280 37H312V35H280V37ZM281 68V36H279V68H281Z" fill="#0059FF" mask="url(#path-12-inside-6_857_23752)"/>
<mask id="path-14-inside-7_857_23752" fill="white">
<path d="M280 68H312V100H280V68Z"/>
</mask>
<path d="M280 68V67H279V68H280ZM280 69H312V67H280V69ZM281 100V68H279V100H281Z" fill="#0059FF" mask="url(#path-14-inside-7_857_23752)"/>
<mask id="path-16-inside-8_857_23752" fill="white">
<path d="M280 132H312V164H280V132Z"/>
</mask>
<path d="M280 132V131H279V132H280ZM280 133H312V131H280V133ZM281 164V132H279V164H281Z" fill="#0059FF" mask="url(#path-16-inside-8_857_23752)"/>
<mask id="path-18-inside-9_857_23752" fill="white">
<path d="M280 164H312V196H280V164Z"/>
</mask>
<path d="M280 164V163H279V164H280ZM280 196H279V197H280V196ZM280 165H312V163H280V165ZM312 195H280V197H312V195ZM281 196V164H279V196H281Z" fill="#0059FF" mask="url(#path-18-inside-9_857_23752)"/>
<mask id="path-20-inside-10_857_23752" fill="white">
<path d="M280 100H312V132H280V100Z"/>
</mask>
<path d="M280 100H312V132H280V100Z" fill="#0059FF"/>
<path d="M280 100V99H279V100H280ZM280 101H312V99H280V101ZM281 132V100H279V132H281Z" fill="#0059FF" mask="url(#path-20-inside-10_857_23752)"/>
<mask id="path-22-inside-11_857_23752" fill="white">
<path d="M248 36H280V68H248V36Z"/>
</mask>
<path d="M248 36V35H247V36H248ZM248 37H280V35H248V37ZM249 68V36H247V68H249Z" fill="#0059FF" mask="url(#path-22-inside-11_857_23752)"/>
<mask id="path-24-inside-12_857_23752" fill="white">
<path d="M248 68H280V100H248V68Z"/>
</mask>
<path d="M248 68V67H247V68H248ZM248 69H280V67H248V69ZM249 100V68H247V100H249Z" fill="#0059FF" mask="url(#path-24-inside-12_857_23752)"/>
<mask id="path-26-inside-13_857_23752" fill="white">
<path d="M248 132H280V164H248V132Z"/>
</mask>
<path d="M248 132V131H247V132H248ZM248 133H280V131H248V133ZM249 164V132H247V164H249Z" fill="#0059FF" mask="url(#path-26-inside-13_857_23752)"/>
<mask id="path-28-inside-14_857_23752" fill="white">
<path d="M248 164H280V196H248V164Z"/>
</mask>
<path d="M248 164V163H247V164H248ZM248 196H247V197H248V196ZM248 165H280V163H248V165ZM280 195H248V197H280V195ZM249 196V164H247V196H249Z" fill="#0059FF" mask="url(#path-28-inside-14_857_23752)"/>
<mask id="path-30-inside-15_857_23752" fill="white">
<path d="M248 100H280V132H248V100Z"/>
</mask>
<path d="M248 100V99H247V100H248ZM248 101H280V99H248V101ZM249 132V100H247V132H249Z" fill="#0059FF" mask="url(#path-30-inside-15_857_23752)"/>
<mask id="path-32-inside-16_857_23752" fill="white">
<path d="M312 36H344V68H312V36Z"/>
</mask>
<path d="M312 36V35H311V36H312ZM312 37H344V35H312V37ZM313 68V36H311V68H313Z" fill="#0059FF" mask="url(#path-32-inside-16_857_23752)"/>
<mask id="path-34-inside-17_857_23752" fill="white">
<path d="M312 68H344V100H312V68Z"/>
</mask>
<path d="M312 68V67H311V68H312ZM312 69H344V67H312V69ZM313 100V68H311V100H313Z" fill="#0059FF" mask="url(#path-34-inside-17_857_23752)"/>
<mask id="path-36-inside-18_857_23752" fill="white">
<path d="M312 132H344V164H312V132Z"/>
</mask>
<path d="M312 132V131H311V132H312ZM312 133H344V131H312V133ZM313 164V132H311V164H313Z" fill="#0059FF" mask="url(#path-36-inside-18_857_23752)"/>
<mask id="path-38-inside-19_857_23752" fill="white">
<path d="M312 164H344V196H312V164Z"/>
</mask>
<path d="M312 164V163H311V164H312ZM312 196H311V197H312V196ZM312 165H344V163H312V165ZM344 195H312V197H344V195ZM313 196V164H311V196H313Z" fill="#0059FF" mask="url(#path-38-inside-19_857_23752)"/>
<mask id="path-40-inside-20_857_23752" fill="white">
<path d="M312 100H344V132H312V100Z"/>
</mask>
<path d="M312 100V99H311V100H312ZM312 101H344V99H312V101ZM313 132V100H311V132H313Z" fill="#0059FF" mask="url(#path-40-inside-20_857_23752)"/>
<mask id="path-42-inside-21_857_23752" fill="white">
<path d="M344 36H376V68H344V36Z"/>
</mask>
<path d="M344 36V35H343V36H344ZM376 36H377V35H376V36ZM344 37H376V35H344V37ZM375 36V68H377V36H375ZM345 68V36H343V68H345Z" fill="#0059FF" mask="url(#path-42-inside-21_857_23752)"/>
<mask id="path-44-inside-22_857_23752" fill="white">
<path d="M344 68H376V100H344V68Z"/>
</mask>
<path d="M344 68V67H343V68H344ZM376 68H377V67H376V68ZM344 69H376V67H344V69ZM375 68V100H377V68H375ZM345 100V68H343V100H345Z" fill="#0059FF" mask="url(#path-44-inside-22_857_23752)"/>
<mask id="path-46-inside-23_857_23752" fill="white">
<path d="M344 132H376V164H344V132Z"/>
</mask>
<path d="M344 132V131H343V132H344ZM376 132H377V131H376V132ZM344 133H376V131H344V133ZM375 132V164H377V132H375ZM345 164V132H343V164H345Z" fill="#0059FF" mask="url(#path-46-inside-23_857_23752)"/>
<mask id="path-48-inside-24_857_23752" fill="white">
<path d="M344 164H376V196H344V164Z"/>
</mask>
<path d="M344 164V163H343V164H344ZM376 164H377V163H376V164ZM376 196V197H377V196H376ZM344 196H343V197H344V196ZM344 165H376V163H344V165ZM375 164V196H377V164H375ZM376 195H344V197H376V195ZM345 196V164H343V196H345Z" fill="#0059FF" mask="url(#path-48-inside-24_857_23752)"/>
<mask id="path-50-inside-25_857_23752" fill="white">
<path d="M344 100H376V132H344V100Z"/>
</mask>
<path d="M344 100V99H343V100H344ZM376 100H377V99H376V100ZM344 101H376V99H344V101ZM375 100V132H377V100H375ZM345 132V100H343V132H345Z" fill="#0059FF" mask="url(#path-50-inside-25_857_23752)"/>
<path d="M290.87 119.114C290.87 119.764 290.719 120.315 290.416 120.77C290.118 121.219 289.713 121.561 289.2 121.795C288.692 122.029 288.119 122.146 287.479 122.146C286.839 122.146 286.263 122.029 285.751 121.795C285.238 121.561 284.833 121.219 284.535 120.77C284.237 120.315 284.088 119.764 284.088 119.114C284.088 118.689 284.169 118.301 284.33 117.95C284.496 117.593 284.728 117.283 285.025 117.02C285.328 116.756 285.685 116.553 286.095 116.412C286.51 116.265 286.966 116.192 287.464 116.192C288.119 116.192 288.702 116.319 289.215 116.573C289.728 116.822 290.13 117.166 290.423 117.605C290.721 118.045 290.87 118.548 290.87 119.114ZM289.508 119.085C289.508 118.689 289.422 118.34 289.252 118.038C289.081 117.73 288.841 117.491 288.534 117.32C288.226 117.149 287.87 117.063 287.464 117.063C287.049 117.063 286.691 117.149 286.388 117.32C286.09 117.491 285.858 117.73 285.692 118.038C285.526 118.34 285.443 118.689 285.443 119.085C285.443 119.495 285.524 119.847 285.685 120.14C285.851 120.428 286.085 120.65 286.388 120.806C286.695 120.958 287.059 121.033 287.479 121.033C287.899 121.033 288.26 120.958 288.563 120.806C288.866 120.65 289.098 120.428 289.259 120.14C289.425 119.847 289.508 119.495 289.508 119.085ZM290.621 114.112C290.621 114.629 290.484 115.096 290.211 115.511C289.938 115.926 289.564 116.253 289.09 116.492C288.617 116.731 288.08 116.851 287.479 116.851C286.869 116.851 286.324 116.731 285.846 116.492C285.372 116.253 285.001 115.926 284.733 115.511C284.464 115.096 284.33 114.629 284.33 114.112C284.33 113.492 284.464 112.964 284.733 112.53C285.006 112.095 285.379 111.763 285.853 111.534C286.327 111.304 286.866 111.189 287.472 111.189C288.082 111.189 288.624 111.304 289.098 111.534C289.571 111.763 289.942 112.095 290.211 112.53C290.484 112.964 290.621 113.492 290.621 114.112ZM289.266 114.134C289.266 113.777 289.191 113.462 289.039 113.189C288.888 112.916 288.678 112.701 288.409 112.544C288.141 112.383 287.828 112.303 287.472 112.303C287.115 112.303 286.803 112.378 286.534 112.53C286.271 112.676 286.063 112.886 285.912 113.16C285.765 113.433 285.692 113.758 285.692 114.134C285.692 114.5 285.765 114.82 285.912 115.093C286.063 115.367 286.273 115.579 286.542 115.73C286.81 115.882 287.123 115.958 287.479 115.958C287.836 115.958 288.146 115.882 288.409 115.73C288.678 115.579 288.888 115.367 289.039 115.093C289.191 114.82 289.266 114.5 289.266 114.134ZM293.951 111.336L296.515 115.423L299.078 111.336H300.726L297.357 116.617L300.807 122H299.144L296.515 117.833L293.885 122H292.223L295.672 116.617L292.303 111.336H293.951ZM308.912 119.114C308.912 119.764 308.761 120.315 308.458 120.77C308.16 121.219 307.755 121.561 307.242 121.795C306.734 122.029 306.161 122.146 305.521 122.146C304.881 122.146 304.305 122.029 303.792 121.795C303.28 121.561 302.874 121.219 302.577 120.77C302.279 120.315 302.13 119.764 302.13 119.114C302.13 118.689 302.21 118.301 302.371 117.95C302.538 117.593 302.769 117.283 303.067 117.02C303.37 116.756 303.726 116.553 304.137 116.412C304.552 116.265 305.008 116.192 305.506 116.192C306.161 116.192 306.744 116.319 307.257 116.573C307.769 116.822 308.172 117.166 308.465 117.605C308.763 118.045 308.912 118.548 308.912 119.114ZM307.55 119.085C307.55 118.689 307.464 118.34 307.293 118.038C307.122 117.73 306.883 117.491 306.576 117.32C306.268 117.149 305.912 117.063 305.506 117.063C305.091 117.063 304.732 117.149 304.43 117.32C304.132 117.491 303.9 117.73 303.734 118.038C303.568 118.34 303.485 118.689 303.485 119.085C303.485 119.495 303.565 119.847 303.726 120.14C303.892 120.428 304.127 120.65 304.43 120.806C304.737 120.958 305.101 121.033 305.521 121.033C305.941 121.033 306.302 120.958 306.605 120.806C306.908 120.65 307.14 120.428 307.301 120.14C307.467 119.847 307.55 119.495 307.55 119.085ZM308.663 114.112C308.663 114.629 308.526 115.096 308.253 115.511C307.979 115.926 307.606 116.253 307.132 116.492C306.659 116.731 306.121 116.851 305.521 116.851C304.911 116.851 304.366 116.731 303.888 116.492C303.414 116.253 303.043 115.926 302.774 115.511C302.506 115.096 302.371 114.629 302.371 114.112C302.371 113.492 302.506 112.964 302.774 112.53C303.048 112.095 303.421 111.763 303.895 111.534C304.369 111.304 304.908 111.189 305.514 111.189C306.124 111.189 306.666 111.304 307.14 111.534C307.613 111.763 307.984 112.095 308.253 112.53C308.526 112.964 308.663 113.492 308.663 114.112ZM307.308 114.134C307.308 113.777 307.232 113.462 307.081 113.189C306.93 112.916 306.72 112.701 306.451 112.544C306.183 112.383 305.87 112.303 305.514 112.303C305.157 112.303 304.845 112.378 304.576 112.53C304.312 112.676 304.105 112.886 303.954 113.16C303.807 113.433 303.734 113.758 303.734 114.134C303.734 114.5 303.807 114.82 303.954 115.093C304.105 115.367 304.315 115.579 304.583 115.73C304.852 115.882 305.164 115.958 305.521 115.958C305.877 115.958 306.187 115.882 306.451 115.73C306.72 115.579 306.93 115.367 307.081 115.093C307.232 114.82 307.308 114.5 307.308 114.134Z" fill="white"/>
<path d="M290.416 120.77L289.584 120.215L289.583 120.217L290.416 120.77ZM289.2 121.795L288.785 120.885L288.781 120.887L289.2 121.795ZM284.535 120.77L283.699 121.318L283.701 121.322L284.535 120.77ZM284.33 117.95L283.423 117.527L283.421 117.533L284.33 117.95ZM285.025 117.02L284.369 116.265L284.363 116.271L285.025 117.02ZM286.095 116.412L286.421 117.357L286.428 117.355L286.095 116.412ZM289.215 116.573L288.771 117.469L288.778 117.472L289.215 116.573ZM290.423 117.605L289.591 118.16L289.596 118.167L290.423 117.605ZM289.252 118.038L288.377 118.523L288.381 118.529L289.252 118.038ZM286.388 117.32L285.896 116.449L285.89 116.452L286.388 117.32ZM285.692 118.038L286.569 118.518L286.572 118.513L285.692 118.038ZM285.685 120.14L284.808 120.622L284.813 120.63L284.818 120.639L285.685 120.14ZM286.388 120.806L285.929 121.695L285.938 121.699L285.946 121.703L286.388 120.806ZM288.563 120.806L289.01 121.701L289.022 121.695L288.563 120.806ZM289.259 120.14L288.389 119.647L288.386 119.651L289.259 120.14ZM285.846 116.492L285.395 117.385L285.399 117.387L285.846 116.492ZM284.733 112.53L283.886 111.997L283.882 112.004L284.733 112.53ZM290.211 112.53L289.36 113.055L289.365 113.062L290.211 112.53ZM288.409 112.544L287.895 113.402L287.906 113.409L288.409 112.544ZM286.534 112.53L287.02 113.404L287.025 113.401L286.534 112.53ZM285.912 113.16L285.037 112.675L285.03 112.687L285.912 113.16ZM285.912 115.093L285.03 115.566L285.037 115.578L285.912 115.093ZM288.409 115.73L287.918 114.859L287.911 114.863L288.409 115.73ZM289.87 119.114C289.87 119.604 289.758 119.954 289.584 120.215L291.248 121.324C291.68 120.677 291.87 119.923 291.87 119.114H289.87ZM289.583 120.217C289.393 120.503 289.136 120.725 288.785 120.885L289.616 122.704C290.29 122.396 290.844 121.934 291.25 121.322L289.583 120.217ZM288.781 120.887C288.422 121.053 287.995 121.146 287.479 121.146V123.146C288.243 123.146 288.963 123.006 289.619 122.703L288.781 120.887ZM287.479 121.146C286.964 121.146 286.532 121.053 286.166 120.885L285.335 122.704C285.995 123.006 286.715 123.146 287.479 123.146V121.146ZM286.166 120.885C285.815 120.725 285.558 120.503 285.368 120.217L283.701 121.322C284.107 121.934 284.66 122.396 285.335 122.704L286.166 120.885ZM285.371 120.221C285.199 119.96 285.088 119.608 285.088 119.114H283.088C283.088 119.92 283.274 120.671 283.699 121.318L285.371 120.221ZM285.088 119.114C285.088 118.819 285.143 118.575 285.239 118.366L283.421 117.533C283.194 118.028 283.088 118.56 283.088 119.114H285.088ZM285.236 118.372C285.344 118.141 285.492 117.942 285.688 117.768L284.363 116.271C283.963 116.624 283.648 117.045 283.423 117.528L285.236 118.372ZM285.682 117.774C285.881 117.601 286.123 117.46 286.421 117.357L285.768 115.466C285.247 115.646 284.776 115.911 284.369 116.265L285.682 117.774ZM286.428 117.355C286.723 117.25 287.065 117.192 287.464 117.192V115.192C286.868 115.192 286.297 115.28 285.762 115.469L286.428 117.355ZM287.464 117.192C287.987 117.192 288.415 117.293 288.771 117.469L289.659 115.677C288.989 115.345 288.251 115.192 287.464 115.192V117.192ZM288.778 117.472C289.144 117.65 289.405 117.88 289.591 118.16L291.255 117.051C290.856 116.452 290.311 115.994 289.652 115.673L288.778 117.472ZM289.596 118.167C289.774 118.429 289.87 118.734 289.87 119.114H291.87C291.87 118.362 291.669 117.661 291.251 117.044L289.596 118.167ZM290.508 119.085C290.508 118.541 290.389 118.018 290.122 117.546L288.381 118.529C288.456 118.662 288.508 118.838 288.508 119.085H290.508ZM290.126 117.552C289.864 117.081 289.49 116.707 289.019 116.446L288.048 118.194C288.193 118.274 288.297 118.379 288.377 118.523L290.126 117.552ZM289.019 116.446C288.542 116.18 288.014 116.063 287.464 116.063V118.063C287.726 118.063 287.91 118.117 288.048 118.194L289.019 116.446ZM287.464 116.063C286.911 116.063 286.376 116.178 285.896 116.449L286.879 118.191C287.005 118.119 287.188 118.063 287.464 118.063V116.063ZM285.89 116.452C285.428 116.718 285.065 117.094 284.812 117.563L286.572 118.513C286.651 118.366 286.752 118.264 286.885 118.187L285.89 116.452ZM284.815 117.557C284.557 118.027 284.443 118.546 284.443 119.085H286.443C286.443 118.833 286.495 118.654 286.569 118.518L284.815 117.557ZM284.443 119.085C284.443 119.626 284.55 120.151 284.808 120.622L286.561 119.658C286.497 119.542 286.443 119.364 286.443 119.085H284.443ZM284.818 120.639C285.082 121.098 285.46 121.453 285.929 121.695L286.846 119.918C286.71 119.847 286.619 119.758 286.551 119.64L284.818 120.639ZM285.946 121.703C286.419 121.936 286.94 122.033 287.479 122.033V120.033C287.178 120.033 286.972 119.979 286.829 119.909L285.946 121.703ZM287.479 122.033C288.018 122.033 288.539 121.936 289.01 121.701L288.116 119.912C287.981 119.979 287.78 120.033 287.479 120.033V122.033ZM289.022 121.695C289.493 121.452 289.872 121.093 290.132 120.628L288.386 119.651C288.324 119.763 288.239 119.848 288.104 119.918L289.022 121.695ZM290.129 120.633C290.397 120.16 290.508 119.63 290.508 119.085H288.508C288.508 119.36 288.453 119.534 288.389 119.647L290.129 120.633ZM289.621 114.112C289.621 114.442 289.537 114.716 289.376 114.961L291.046 116.061C291.432 115.476 291.621 114.816 291.621 114.112H289.621ZM289.376 114.961C289.205 115.22 288.968 115.434 288.64 115.6L289.541 117.385C290.16 117.072 290.67 116.632 291.046 116.061L289.376 114.961ZM288.64 115.6C288.323 115.759 287.944 115.851 287.479 115.851V117.851C288.216 117.851 288.91 117.703 289.541 117.385L288.64 115.6ZM287.479 115.851C287.002 115.851 286.614 115.758 286.293 115.598L285.399 117.387C286.034 117.705 286.735 117.851 287.479 117.851V115.851ZM286.297 115.6C285.969 115.434 285.737 115.223 285.572 114.967L283.893 116.054C284.265 116.629 284.775 117.072 285.395 117.385L286.297 115.6ZM285.572 114.967C285.413 114.722 285.33 114.446 285.33 114.112H283.33C283.33 114.813 283.515 115.469 283.893 116.054L285.572 114.967ZM285.33 114.112C285.33 113.638 285.431 113.301 285.583 113.055L283.882 112.004C283.497 112.627 283.33 113.346 283.33 114.112H285.33ZM285.579 113.062C285.75 112.79 285.98 112.584 286.289 112.434L285.417 110.634C284.779 110.943 284.262 111.4 283.886 111.997L285.579 113.062ZM286.289 112.434C286.608 112.279 286.995 112.189 287.472 112.189V110.189C286.738 110.189 286.046 110.329 285.417 110.634L286.289 112.434ZM287.472 112.189C287.955 112.189 288.344 112.28 288.662 112.434L289.534 110.634C288.904 110.329 288.209 110.189 287.472 110.189V112.189ZM288.662 112.434C288.97 112.583 289.195 112.788 289.36 113.055L291.062 112.004C290.69 111.403 290.173 110.943 289.534 110.634L288.662 112.434ZM289.365 113.062C289.519 113.307 289.621 113.641 289.621 114.112H291.621C291.621 113.343 291.45 112.622 291.057 111.997L289.365 113.062ZM290.266 114.134C290.266 113.632 290.158 113.146 289.914 112.705L288.164 113.673C288.223 113.779 288.266 113.923 288.266 114.134H290.266ZM289.914 112.705C289.676 112.274 289.338 111.928 288.912 111.68L287.906 113.409C288.018 113.474 288.1 113.557 288.164 113.673L289.914 112.705ZM288.924 111.687C288.479 111.42 287.984 111.303 287.472 111.303V113.303C287.673 113.303 287.802 113.346 287.895 113.402L288.924 111.687ZM287.472 111.303C286.97 111.303 286.484 111.41 286.043 111.659L287.025 113.401C287.122 113.346 287.26 113.303 287.472 113.303V111.303ZM286.049 111.656C285.615 111.896 285.275 112.244 285.037 112.675L286.787 113.644C286.851 113.528 286.926 113.456 287.02 113.404L286.049 111.656ZM285.03 112.687C284.791 113.134 284.692 113.628 284.692 114.134H286.692C286.692 113.888 286.739 113.732 286.793 113.632L285.03 112.687ZM284.692 114.134C284.692 114.635 284.793 115.123 285.03 115.565L286.793 114.621C286.737 114.517 286.692 114.365 286.692 114.134H284.692ZM285.037 115.578C285.277 116.011 285.618 116.358 286.051 116.602L287.033 114.859C286.928 114.8 286.85 114.723 286.787 114.609L285.037 115.578ZM286.051 116.602C286.491 116.85 286.978 116.958 287.479 116.958V114.958C287.268 114.958 287.129 114.914 287.033 114.859L286.051 116.602ZM287.479 116.958C287.98 116.958 288.468 116.85 288.907 116.598L287.911 114.863C287.824 114.914 287.691 114.958 287.479 114.958V116.958ZM288.9 116.602C289.332 116.358 289.674 116.011 289.914 115.578L288.164 114.609C288.101 114.723 288.023 114.8 287.918 114.859L288.9 116.602ZM289.914 115.578C290.161 115.132 290.266 114.64 290.266 114.134H288.266C288.266 114.36 288.22 114.507 288.164 114.609L289.914 115.578ZM293.951 111.336L294.798 110.805L294.504 110.336H293.951V111.336ZM296.515 115.423L295.668 115.954L296.515 117.305L297.362 115.954L296.515 115.423ZM299.078 111.336V110.336H298.525L298.231 110.805L299.078 111.336ZM300.726 111.336L301.569 111.874L302.55 110.336H300.726V111.336ZM297.357 116.617L296.514 116.079L296.17 116.618L296.515 117.156L297.357 116.617ZM300.807 122V123H302.635L301.649 121.46L300.807 122ZM299.144 122L298.298 122.534L298.593 123H299.144V122ZM296.515 117.833L297.36 117.299L296.515 115.958L295.669 117.299L296.515 117.833ZM293.885 122V123H294.437L294.731 122.534L293.885 122ZM292.223 122L291.381 121.46L290.394 123H292.223V122ZM295.672 116.617L296.514 117.156L296.859 116.618L296.515 116.079L295.672 116.617ZM292.303 111.336V110.336H290.479L291.46 111.874L292.303 111.336ZM293.104 111.867L295.668 115.954L297.362 114.891L294.798 110.805L293.104 111.867ZM297.362 115.954L299.925 111.867L298.231 110.805L295.668 114.891L297.362 115.954ZM299.078 112.336H300.726V110.336H299.078V112.336ZM299.883 110.798L296.514 116.079L298.2 117.155L301.569 111.874L299.883 110.798ZM296.515 117.156L299.965 122.54L301.649 121.46L298.199 116.077L296.515 117.156ZM300.807 121H299.144V123H300.807V121ZM299.99 121.466L297.36 117.299L295.669 118.366L298.298 122.534L299.99 121.466ZM295.669 117.299L293.04 121.466L294.731 122.534L297.36 118.366L295.669 117.299ZM293.885 121H292.223V123H293.885V121ZM293.065 122.54L296.514 117.156L294.83 116.077L291.381 121.46L293.065 122.54ZM296.515 116.079L293.146 110.798L291.46 111.874L294.829 117.155L296.515 116.079ZM292.303 112.336H293.951V110.336H292.303V112.336ZM308.458 120.77L307.626 120.215L307.624 120.217L308.458 120.77ZM307.242 121.795L306.826 120.885L306.823 120.887L307.242 121.795ZM302.577 120.77L301.74 121.318L301.743 121.322L302.577 120.77ZM302.371 117.95L301.465 117.527L301.462 117.533L302.371 117.95ZM303.067 117.02L302.41 116.265L302.404 116.271L303.067 117.02ZM304.137 116.412L304.463 117.357L304.469 117.355L304.137 116.412ZM307.257 116.573L306.813 117.469L306.82 117.472L307.257 116.573ZM308.465 117.605L307.633 118.16L307.637 118.167L308.465 117.605ZM307.293 118.038L306.419 118.523L306.423 118.529L307.293 118.038ZM304.43 117.32L303.938 116.449L303.932 116.452L304.43 117.32ZM303.734 118.038L304.611 118.518L304.614 118.513L303.734 118.038ZM303.726 120.14L302.85 120.622L302.855 120.63L302.86 120.639L303.726 120.14ZM304.43 120.806L303.971 121.695L303.979 121.699L303.988 121.703L304.43 120.806ZM306.605 120.806L307.052 121.701L307.064 121.695L306.605 120.806ZM307.301 120.14L306.431 119.647L306.428 119.651L307.301 120.14ZM303.888 116.492L303.437 117.385L303.44 117.387L303.888 116.492ZM302.774 112.53L301.928 111.997L301.924 112.004L302.774 112.53ZM308.253 112.53L307.402 113.055L307.406 113.062L308.253 112.53ZM306.451 112.544L305.937 113.402L305.948 113.409L306.451 112.544ZM304.576 112.53L305.062 113.404L305.067 113.401L304.576 112.53ZM303.954 113.16L303.079 112.675L303.072 112.687L303.954 113.16ZM303.954 115.093L303.072 115.566L303.079 115.578L303.954 115.093ZM306.451 115.73L305.96 114.859L305.953 114.863L306.451 115.73ZM307.912 119.114C307.912 119.604 307.8 119.954 307.626 120.215L309.29 121.324C309.722 120.677 309.912 119.923 309.912 119.114H307.912ZM307.624 120.217C307.435 120.503 307.177 120.725 306.826 120.885L307.658 122.704C308.332 122.396 308.885 121.934 309.291 121.322L307.624 120.217ZM306.823 120.887C306.464 121.053 306.037 121.146 305.521 121.146V123.146C306.284 123.146 307.004 123.006 307.661 122.703L306.823 120.887ZM305.521 121.146C305.005 121.146 304.574 121.053 304.208 120.885L303.377 122.704C304.036 123.006 304.757 123.146 305.521 123.146V121.146ZM304.208 120.885C303.857 120.725 303.6 120.503 303.41 120.217L301.743 121.322C302.149 121.934 302.702 122.396 303.377 122.704L304.208 120.885ZM303.413 120.221C303.241 119.96 303.13 119.608 303.13 119.114H301.13C301.13 119.92 301.316 120.671 301.74 121.318L303.413 120.221ZM303.13 119.114C303.13 118.819 303.185 118.575 303.281 118.366L301.462 117.533C301.236 118.028 301.13 118.56 301.13 119.114H303.13ZM303.278 118.372C303.385 118.141 303.534 117.942 303.73 117.768L302.404 116.271C302.005 116.624 301.69 117.045 301.465 117.528L303.278 118.372ZM303.724 117.774C303.922 117.601 304.164 117.46 304.463 117.357L303.81 115.466C303.289 115.646 302.818 115.911 302.411 116.265L303.724 117.774ZM304.469 117.355C304.765 117.25 305.107 117.192 305.506 117.192V115.192C304.91 115.192 304.339 115.28 303.804 115.469L304.469 117.355ZM305.506 117.192C306.029 117.192 306.457 117.293 306.813 117.469L307.701 115.677C307.031 115.345 306.292 115.192 305.506 115.192V117.192ZM306.82 117.472C307.186 117.65 307.447 117.88 307.633 118.16L309.297 117.051C308.898 116.452 308.353 115.994 307.694 115.673L306.82 117.472ZM307.637 118.167C307.815 118.429 307.912 118.734 307.912 119.114H309.912C309.912 118.362 309.711 117.661 309.293 117.044L307.637 118.167ZM308.55 119.085C308.55 118.541 308.431 118.018 308.164 117.546L306.423 118.529C306.498 118.662 306.55 118.838 306.55 119.085H308.55ZM308.168 117.552C307.906 117.081 307.532 116.707 307.061 116.446L306.09 118.194C306.234 118.274 306.339 118.379 306.419 118.523L308.168 117.552ZM307.061 116.446C306.584 116.18 306.055 116.063 305.506 116.063V118.063C305.768 118.063 305.952 118.117 306.09 118.194L307.061 116.446ZM305.506 116.063C304.952 116.063 304.417 116.178 303.938 116.449L304.921 118.191C305.047 118.119 305.23 118.063 305.506 118.063V116.063ZM303.932 116.452C303.47 116.718 303.107 117.094 302.854 117.563L304.614 118.513C304.693 118.366 304.794 118.264 304.927 118.187L303.932 116.452ZM302.857 117.557C302.599 118.027 302.485 118.546 302.485 119.085H304.485C304.485 118.833 304.537 118.654 304.611 118.518L302.857 117.557ZM302.485 119.085C302.485 119.626 302.591 120.151 302.85 120.622L304.603 119.658C304.539 119.542 304.485 119.364 304.485 119.085H302.485ZM302.86 120.639C303.124 121.098 303.502 121.453 303.971 121.695L304.888 119.918C304.752 119.847 304.661 119.758 304.593 119.64L302.86 120.639ZM303.988 121.703C304.46 121.936 304.982 122.033 305.521 122.033V120.033C305.22 120.033 305.014 119.979 304.871 119.909L303.988 121.703ZM305.521 122.033C306.059 122.033 306.581 121.936 307.052 121.701L306.158 119.912C306.023 119.979 305.822 120.033 305.521 120.033V122.033ZM307.064 121.695C307.535 121.452 307.913 121.093 308.173 120.628L306.428 119.651C306.366 119.763 306.281 119.848 306.146 119.918L307.064 121.695ZM308.171 120.633C308.439 120.16 308.55 119.63 308.55 119.085H306.55C306.55 119.36 306.495 119.534 306.431 119.647L308.171 120.633ZM307.663 114.112C307.663 114.442 307.579 114.716 307.418 114.961L309.088 116.061C309.474 115.476 309.663 114.816 309.663 114.112H307.663ZM307.418 114.961C307.247 115.22 307.01 115.434 306.681 115.6L307.583 117.385C308.202 117.072 308.712 116.632 309.088 116.061L307.418 114.961ZM306.681 115.6C306.365 115.759 305.986 115.851 305.521 115.851V117.851C306.257 117.851 306.952 117.703 307.583 117.385L306.681 115.6ZM305.521 115.851C305.044 115.851 304.656 115.758 304.335 115.598L303.44 117.387C304.076 117.705 304.777 117.851 305.521 117.851V115.851ZM304.338 115.6C304.011 115.434 303.779 115.223 303.614 114.967L301.935 116.054C302.307 116.629 302.817 117.072 303.437 117.385L304.338 115.6ZM303.614 114.967C303.455 114.722 303.371 114.446 303.371 114.112H301.371C301.371 114.813 301.556 115.469 301.935 116.054L303.614 114.967ZM303.371 114.112C303.371 113.638 303.473 113.301 303.625 113.055L301.924 112.004C301.538 112.627 301.371 113.346 301.371 114.112H303.371ZM303.621 113.062C303.792 112.79 304.021 112.584 304.331 112.434L303.459 110.634C302.821 110.943 302.304 111.4 301.928 111.997L303.621 113.062ZM304.331 112.434C304.65 112.279 305.036 112.189 305.514 112.189V110.189C304.78 110.189 304.088 110.329 303.459 110.634L304.331 112.434ZM305.514 112.189C305.997 112.189 306.386 112.28 306.704 112.434L307.576 110.634C306.946 110.329 306.251 110.189 305.514 110.189V112.189ZM306.704 112.434C307.012 112.583 307.237 112.788 307.402 113.055L309.104 112.004C308.732 111.403 308.215 110.943 307.576 110.634L306.704 112.434ZM307.406 113.062C307.56 113.307 307.663 113.641 307.663 114.112H309.663C309.663 113.343 309.492 112.622 309.099 111.997L307.406 113.062ZM308.308 114.134C308.308 113.632 308.2 113.146 307.956 112.705L306.206 113.673C306.264 113.779 306.308 113.923 306.308 114.134H308.308ZM307.956 112.705C307.718 112.274 307.38 111.928 306.954 111.68L305.948 113.409C306.06 113.474 306.142 113.557 306.206 113.673L307.956 112.705ZM306.966 111.687C306.521 111.42 306.026 111.303 305.514 111.303V113.303C305.714 113.303 305.844 113.346 305.937 113.402L306.966 111.687ZM305.514 111.303C305.012 111.303 304.525 111.41 304.085 111.659L305.067 113.401C305.164 113.346 305.302 113.303 305.514 113.303V111.303ZM304.09 111.656C303.657 111.896 303.317 112.244 303.079 112.675L304.828 113.644C304.893 113.528 304.968 113.456 305.062 113.404L304.09 111.656ZM303.072 112.687C302.833 113.134 302.734 113.628 302.734 114.134H304.734C304.734 113.888 304.781 113.732 304.835 113.632L303.072 112.687ZM302.734 114.134C302.734 114.635 302.835 115.123 303.072 115.565L304.835 114.621C304.779 114.517 304.734 114.365 304.734 114.134H302.734ZM303.079 115.578C303.318 116.011 303.66 116.358 304.092 116.602L305.074 114.859C304.97 114.8 304.891 114.723 304.828 114.609L303.079 115.578ZM304.092 116.602C304.533 116.85 305.02 116.958 305.521 116.958V114.958C305.309 114.958 305.171 114.914 305.074 114.859L304.092 116.602ZM305.521 116.958C306.022 116.958 306.509 116.85 306.949 116.598L305.953 114.863C305.865 114.914 305.733 114.958 305.521 114.958V116.958ZM306.942 116.602C307.374 116.358 307.716 116.011 307.956 115.578L306.206 114.609C306.143 114.723 306.065 114.8 305.96 114.859L306.942 116.602ZM307.956 115.578C308.202 115.132 308.308 114.64 308.308 114.134H306.308C306.308 114.36 306.262 114.507 306.206 114.609L307.956 115.578Z" fill="#0059FF"/>
</svg>
