<svg width="640" height="459" viewBox="0 0 640 459" fill="none" xmlns="http://www.w3.org/2000/svg">
<rect x="0.5" y="0.5" width="639" height="458" rx="15.5" fill="white"/>
<path d="M87.7637 110.542V112H82.4097V110.542H87.7637ZM82.9224 101.336V112H81.084V101.336H82.9224ZM93.4766 110.411V106.631C93.4766 106.348 93.4253 106.104 93.3228 105.899C93.2202 105.694 93.064 105.535 92.854 105.423C92.6489 105.311 92.3901 105.254 92.0776 105.254C91.7896 105.254 91.5405 105.303 91.3306 105.401C91.1206 105.499 90.957 105.63 90.8398 105.796C90.7227 105.962 90.6641 106.15 90.6641 106.36H88.9062C88.9062 106.048 88.9819 105.745 89.1333 105.452C89.2847 105.159 89.5044 104.898 89.7925 104.668C90.0806 104.439 90.4248 104.258 90.8252 104.126C91.2256 103.995 91.6748 103.929 92.1729 103.929C92.7686 103.929 93.2959 104.029 93.7549 104.229C94.2188 104.429 94.5825 104.732 94.8462 105.137C95.1147 105.538 95.249 106.041 95.249 106.646V110.169C95.249 110.53 95.2734 110.855 95.3223 111.143C95.376 111.426 95.4517 111.673 95.5493 111.883V112H93.7402C93.6572 111.81 93.5913 111.568 93.5425 111.275C93.4985 110.977 93.4766 110.689 93.4766 110.411ZM93.7329 107.181L93.7476 108.272H92.4805C92.1533 108.272 91.8652 108.304 91.6162 108.367C91.3672 108.426 91.1597 108.514 90.9937 108.631C90.8276 108.748 90.7031 108.89 90.6201 109.056C90.5371 109.222 90.4956 109.41 90.4956 109.62C90.4956 109.83 90.5444 110.022 90.6421 110.198C90.7397 110.369 90.8813 110.503 91.0669 110.601C91.2573 110.699 91.4868 110.748 91.7554 110.748C92.1167 110.748 92.4316 110.674 92.7002 110.528C92.9736 110.376 93.1885 110.193 93.3447 109.979C93.501 109.759 93.584 109.551 93.5938 109.356L94.165 110.14C94.1064 110.34 94.0063 110.555 93.8647 110.784C93.7231 111.014 93.5376 111.233 93.3081 111.443C93.0835 111.648 92.8125 111.817 92.4951 111.949C92.1826 112.081 91.8213 112.146 91.4111 112.146C90.8936 112.146 90.4321 112.044 90.0269 111.839C89.6216 111.629 89.3042 111.348 89.0747 110.997C88.8452 110.64 88.7305 110.237 88.7305 109.788C88.7305 109.368 88.8086 108.997 88.9648 108.675C89.126 108.348 89.3604 108.074 89.668 107.854C89.9805 107.635 90.3613 107.469 90.8105 107.356C91.2598 107.239 91.7725 107.181 92.3486 107.181H93.7329ZM97.1021 100.75H98.8672V110.308L98.6987 112H97.1021V100.75ZM104.038 107.964V108.118C104.038 108.704 103.972 109.244 103.84 109.737C103.713 110.225 103.518 110.65 103.254 111.011C102.996 111.373 102.673 111.653 102.288 111.854C101.907 112.049 101.465 112.146 100.962 112.146C100.469 112.146 100.039 112.054 99.6729 111.868C99.3066 111.683 98.999 111.419 98.75 111.077C98.5059 110.735 98.3081 110.328 98.1567 109.854C98.0054 109.38 97.8979 108.858 97.8345 108.287V107.796C97.8979 107.22 98.0054 106.697 98.1567 106.229C98.3081 105.755 98.5059 105.347 98.75 105.005C98.999 104.659 99.3042 104.393 99.6655 104.207C100.032 104.021 100.459 103.929 100.947 103.929C101.455 103.929 101.902 104.026 102.288 104.222C102.678 104.417 103.003 104.695 103.262 105.057C103.521 105.413 103.713 105.838 103.84 106.331C103.972 106.824 104.038 107.369 104.038 107.964ZM102.273 108.118V107.964C102.273 107.608 102.244 107.273 102.185 106.961C102.126 106.644 102.029 106.365 101.892 106.126C101.76 105.887 101.58 105.699 101.35 105.562C101.125 105.42 100.845 105.35 100.508 105.35C100.195 105.35 99.9268 105.403 99.7021 105.511C99.4775 105.618 99.2896 105.765 99.1382 105.95C98.9868 106.136 98.8672 106.351 98.7793 106.595C98.6963 106.839 98.6401 107.103 98.6108 107.386V108.711C98.6548 109.078 98.7476 109.415 98.8892 109.722C99.0356 110.025 99.2407 110.269 99.5044 110.455C99.7681 110.635 100.107 110.726 100.522 110.726C100.85 110.726 101.125 110.66 101.35 110.528C101.575 110.396 101.753 110.213 101.885 109.979C102.021 109.739 102.119 109.461 102.178 109.144C102.241 108.826 102.273 108.484 102.273 108.118ZM109.026 112.146C108.44 112.146 107.91 112.051 107.437 111.861C106.968 111.666 106.567 111.395 106.235 111.048C105.908 110.701 105.657 110.293 105.481 109.825C105.305 109.356 105.217 108.851 105.217 108.309V108.016C105.217 107.396 105.308 106.834 105.488 106.331C105.669 105.828 105.92 105.398 106.243 105.042C106.565 104.681 106.946 104.405 107.385 104.214C107.825 104.024 108.301 103.929 108.813 103.929C109.38 103.929 109.875 104.024 110.3 104.214C110.725 104.405 111.077 104.673 111.355 105.02C111.638 105.362 111.848 105.77 111.985 106.243C112.126 106.717 112.197 107.239 112.197 107.811V108.565H106.074V107.298H110.454V107.159C110.444 106.841 110.381 106.543 110.264 106.265C110.151 105.987 109.978 105.762 109.744 105.591C109.509 105.42 109.197 105.335 108.806 105.335C108.513 105.335 108.252 105.398 108.022 105.525C107.798 105.647 107.61 105.826 107.458 106.06C107.307 106.294 107.19 106.578 107.107 106.91C107.029 107.237 106.99 107.605 106.99 108.016V108.309C106.99 108.655 107.036 108.978 107.129 109.275C107.227 109.568 107.368 109.825 107.554 110.044C107.739 110.264 107.964 110.438 108.228 110.564C108.491 110.687 108.792 110.748 109.128 110.748C109.553 110.748 109.932 110.662 110.264 110.491C110.596 110.32 110.884 110.079 111.128 109.766L112.058 110.667C111.887 110.916 111.665 111.155 111.392 111.385C111.118 111.609 110.784 111.792 110.388 111.934C109.998 112.076 109.543 112.146 109.026 112.146ZM115.464 100.75V112H113.691V100.75H115.464Z" fill="#505050"/>
<path d="M80.5 131C80.5 129.067 82.067 127.5 84 127.5H147.5V166.5H84C82.067 166.5 80.5 164.933 80.5 163V131Z" fill="#EAF1FE"/>
<path d="M100.107 149.312L102.538 141.758H104.296L100.983 151H99.7959L100.107 149.312ZM97.8599 141.758L100.272 149.312L100.602 151H99.4087L96.1079 141.758H97.8599ZM106.816 144.132V151H105.28V144.132H106.816ZM105.179 142.329C105.179 142.096 105.255 141.904 105.407 141.751C105.564 141.595 105.78 141.517 106.055 141.517C106.326 141.517 106.539 141.595 106.696 141.751C106.852 141.904 106.931 142.096 106.931 142.329C106.931 142.558 106.852 142.748 106.696 142.9C106.539 143.053 106.326 143.129 106.055 143.129C105.78 143.129 105.564 143.053 105.407 142.9C105.255 142.748 105.179 142.558 105.179 142.329ZM112.345 149.14C112.345 148.988 112.307 148.85 112.231 148.728C112.155 148.601 112.009 148.486 111.793 148.385C111.581 148.283 111.268 148.19 110.854 148.105C110.49 148.025 110.155 147.93 109.851 147.82C109.55 147.706 109.292 147.568 109.076 147.407C108.86 147.246 108.693 147.056 108.575 146.836C108.456 146.616 108.397 146.362 108.397 146.074C108.397 145.795 108.458 145.53 108.581 145.281C108.704 145.031 108.879 144.811 109.108 144.621C109.336 144.43 109.614 144.28 109.939 144.17C110.27 144.06 110.638 144.005 111.044 144.005C111.619 144.005 112.112 144.102 112.523 144.297C112.938 144.487 113.255 144.748 113.475 145.078C113.695 145.403 113.805 145.772 113.805 146.182H112.275C112.275 146 112.229 145.831 112.136 145.674C112.047 145.514 111.911 145.384 111.729 145.287C111.548 145.186 111.319 145.135 111.044 145.135C110.782 145.135 110.564 145.177 110.39 145.262C110.221 145.342 110.094 145.448 110.009 145.579C109.929 145.71 109.889 145.854 109.889 146.011C109.889 146.125 109.91 146.229 109.952 146.322C109.999 146.411 110.075 146.493 110.181 146.569C110.286 146.641 110.43 146.709 110.612 146.772C110.799 146.836 111.031 146.897 111.311 146.957C111.835 147.067 112.286 147.208 112.663 147.382C113.043 147.551 113.335 147.771 113.539 148.042C113.742 148.309 113.843 148.647 113.843 149.058C113.843 149.362 113.778 149.642 113.646 149.896C113.52 150.145 113.333 150.363 113.088 150.549C112.842 150.731 112.548 150.873 112.206 150.975C111.867 151.076 111.486 151.127 111.063 151.127C110.441 151.127 109.914 151.017 109.482 150.797C109.051 150.573 108.723 150.287 108.499 149.94C108.278 149.589 108.168 149.225 108.168 148.848H109.647C109.664 149.132 109.743 149.358 109.882 149.527C110.026 149.692 110.204 149.813 110.416 149.889C110.631 149.961 110.854 149.997 111.082 149.997C111.357 149.997 111.588 149.961 111.774 149.889C111.96 149.813 112.102 149.711 112.199 149.584C112.297 149.453 112.345 149.305 112.345 149.14ZM119.315 149.381V144.132H120.851V151H119.404L119.315 149.381ZM119.531 147.953L120.045 147.94C120.045 148.402 119.994 148.827 119.893 149.216C119.791 149.601 119.634 149.938 119.423 150.226C119.211 150.509 118.94 150.731 118.61 150.892C118.28 151.049 117.885 151.127 117.423 151.127C117.089 151.127 116.782 151.078 116.503 150.981C116.224 150.884 115.982 150.733 115.779 150.53C115.58 150.327 115.426 150.063 115.316 149.737C115.206 149.411 115.151 149.022 115.151 148.569V144.132H116.681V148.582C116.681 148.831 116.71 149.041 116.77 149.21C116.829 149.375 116.909 149.508 117.011 149.61C117.112 149.711 117.231 149.783 117.366 149.826C117.502 149.868 117.646 149.889 117.798 149.889C118.234 149.889 118.576 149.805 118.826 149.635C119.08 149.462 119.26 149.229 119.366 148.937C119.476 148.645 119.531 148.317 119.531 147.953ZM126.291 149.623V146.347C126.291 146.102 126.247 145.89 126.158 145.712C126.069 145.535 125.933 145.397 125.751 145.3C125.574 145.202 125.349 145.154 125.079 145.154C124.829 145.154 124.613 145.196 124.431 145.281C124.249 145.365 124.107 145.48 124.006 145.624C123.904 145.767 123.854 145.93 123.854 146.112H122.33C122.33 145.841 122.396 145.579 122.527 145.325C122.658 145.071 122.848 144.845 123.098 144.646C123.348 144.447 123.646 144.291 123.993 144.176C124.34 144.062 124.729 144.005 125.161 144.005C125.677 144.005 126.134 144.092 126.532 144.265C126.934 144.439 127.25 144.701 127.478 145.052C127.711 145.399 127.827 145.835 127.827 146.36V149.413C127.827 149.726 127.848 150.008 127.891 150.257C127.937 150.503 128.003 150.716 128.087 150.898V151H126.52C126.448 150.835 126.39 150.625 126.348 150.372C126.31 150.113 126.291 149.864 126.291 149.623ZM126.513 146.823L126.526 147.769H125.428C125.144 147.769 124.895 147.797 124.679 147.852C124.463 147.902 124.283 147.979 124.139 148.08C123.995 148.182 123.887 148.304 123.815 148.448C123.743 148.592 123.708 148.755 123.708 148.937C123.708 149.119 123.75 149.286 123.834 149.438C123.919 149.587 124.042 149.703 124.203 149.788C124.368 149.872 124.567 149.915 124.799 149.915C125.112 149.915 125.385 149.851 125.618 149.724C125.855 149.593 126.041 149.434 126.177 149.248C126.312 149.058 126.384 148.878 126.393 148.708L126.888 149.388C126.837 149.561 126.75 149.747 126.627 149.946C126.505 150.145 126.344 150.336 126.145 150.518C125.95 150.695 125.715 150.841 125.44 150.956C125.17 151.07 124.856 151.127 124.501 151.127C124.052 151.127 123.653 151.038 123.301 150.86C122.95 150.678 122.675 150.435 122.476 150.13C122.277 149.821 122.178 149.472 122.178 149.083C122.178 148.719 122.245 148.397 122.381 148.118C122.521 147.835 122.724 147.598 122.99 147.407C123.261 147.217 123.591 147.073 123.98 146.976C124.37 146.874 124.814 146.823 125.313 146.823H126.513ZM131.064 141.25V151H129.528V141.25H131.064Z" fill="#286EF1"/>
<path d="M80.5 131C80.5 129.067 82.067 127.5 84 127.5H147.5V166.5H84C82.067 166.5 80.5 164.933 80.5 163V131Z" stroke="#D5E3FD"/>
<path d="M147.5 127.5H206C207.933 127.5 209.5 129.067 209.5 131V163C209.5 164.933 207.933 166.5 206 166.5H147.5V127.5Z" fill="white"/>
<path d="M169.398 147.991H170.985C170.935 148.596 170.765 149.136 170.478 149.61C170.19 150.08 169.786 150.45 169.265 150.721C168.745 150.992 168.112 151.127 167.367 151.127C166.796 151.127 166.282 151.025 165.825 150.822C165.368 150.615 164.976 150.323 164.65 149.946C164.325 149.565 164.075 149.106 163.901 148.569C163.732 148.031 163.647 147.431 163.647 146.766V145.998C163.647 145.334 163.734 144.733 163.908 144.195C164.085 143.658 164.339 143.199 164.669 142.818C165 142.433 165.395 142.139 165.856 141.936C166.322 141.732 166.845 141.631 167.424 141.631C168.161 141.631 168.783 141.766 169.291 142.037C169.798 142.308 170.192 142.682 170.471 143.161C170.755 143.639 170.928 144.187 170.992 144.805H169.405C169.362 144.407 169.269 144.066 169.125 143.783C168.986 143.499 168.778 143.283 168.503 143.135C168.228 142.983 167.869 142.907 167.424 142.907C167.06 142.907 166.743 142.974 166.472 143.11C166.201 143.245 165.975 143.444 165.793 143.707C165.611 143.969 165.473 144.293 165.38 144.678C165.292 145.059 165.247 145.494 165.247 145.985V146.766C165.247 147.232 165.287 147.655 165.368 148.036C165.452 148.412 165.579 148.736 165.749 149.007C165.922 149.278 166.142 149.487 166.409 149.635C166.675 149.783 166.995 149.857 167.367 149.857C167.82 149.857 168.186 149.785 168.465 149.642C168.749 149.498 168.963 149.288 169.106 149.013C169.255 148.734 169.352 148.393 169.398 147.991ZM171.988 147.642V147.496C171.988 147.001 172.06 146.542 172.204 146.119C172.348 145.691 172.555 145.321 172.826 145.008C173.101 144.69 173.436 144.445 173.829 144.271C174.227 144.094 174.675 144.005 175.175 144.005C175.678 144.005 176.127 144.094 176.521 144.271C176.918 144.445 177.255 144.69 177.53 145.008C177.805 145.321 178.014 145.691 178.158 146.119C178.302 146.542 178.374 147.001 178.374 147.496V147.642C178.374 148.137 178.302 148.596 178.158 149.02C178.014 149.443 177.805 149.813 177.53 150.13C177.255 150.444 176.92 150.689 176.527 150.867C176.133 151.04 175.687 151.127 175.188 151.127C174.684 151.127 174.233 151.04 173.835 150.867C173.442 150.689 173.108 150.444 172.833 150.13C172.557 149.813 172.348 149.443 172.204 149.02C172.06 148.596 171.988 148.137 171.988 147.642ZM173.518 147.496V147.642C173.518 147.951 173.55 148.243 173.613 148.518C173.677 148.793 173.776 149.034 173.912 149.242C174.047 149.449 174.221 149.612 174.432 149.73C174.644 149.849 174.896 149.908 175.188 149.908C175.471 149.908 175.716 149.849 175.924 149.73C176.135 149.612 176.309 149.449 176.444 149.242C176.58 149.034 176.679 148.793 176.743 148.518C176.81 148.243 176.844 147.951 176.844 147.642V147.496C176.844 147.191 176.81 146.904 176.743 146.633C176.679 146.358 176.578 146.114 176.438 145.903C176.303 145.691 176.129 145.526 175.917 145.408C175.71 145.285 175.463 145.224 175.175 145.224C174.887 145.224 174.637 145.285 174.426 145.408C174.218 145.526 174.047 145.691 173.912 145.903C173.776 146.114 173.677 146.358 173.613 146.633C173.55 146.904 173.518 147.191 173.518 147.496ZM183.846 149.578V141.25H185.382V151H183.992L183.846 149.578ZM179.377 147.642V147.509C179.377 146.988 179.438 146.514 179.561 146.087C179.684 145.655 179.861 145.285 180.094 144.976C180.327 144.663 180.611 144.424 180.945 144.259C181.279 144.09 181.656 144.005 182.075 144.005C182.489 144.005 182.853 144.085 183.167 144.246C183.48 144.407 183.746 144.638 183.966 144.938C184.186 145.234 184.362 145.59 184.493 146.004C184.624 146.415 184.717 146.872 184.772 147.375V147.801C184.717 148.292 184.624 148.74 184.493 149.146C184.362 149.553 184.186 149.904 183.966 150.2C183.746 150.496 183.478 150.725 183.16 150.886C182.847 151.047 182.481 151.127 182.062 151.127C181.647 151.127 181.273 151.04 180.938 150.867C180.608 150.693 180.327 150.45 180.094 150.137C179.861 149.824 179.684 149.455 179.561 149.032C179.438 148.605 179.377 148.141 179.377 147.642ZM180.907 147.509V147.642C180.907 147.955 180.934 148.247 180.989 148.518C181.049 148.789 181.139 149.028 181.262 149.235C181.385 149.438 181.544 149.599 181.738 149.718C181.937 149.832 182.174 149.889 182.449 149.889C182.796 149.889 183.082 149.813 183.306 149.661C183.53 149.508 183.706 149.303 183.833 149.045C183.964 148.783 184.053 148.491 184.1 148.169V147.02C184.074 146.77 184.021 146.538 183.941 146.322C183.865 146.106 183.761 145.918 183.63 145.757C183.499 145.592 183.336 145.465 183.141 145.376C182.951 145.283 182.724 145.236 182.462 145.236C182.183 145.236 181.946 145.296 181.751 145.414C181.556 145.533 181.396 145.695 181.269 145.903C181.146 146.11 181.055 146.351 180.996 146.626C180.936 146.902 180.907 147.196 180.907 147.509ZM190.009 151.127C189.501 151.127 189.042 151.044 188.632 150.879C188.226 150.71 187.879 150.475 187.591 150.175C187.307 149.874 187.089 149.521 186.937 149.115C186.785 148.708 186.708 148.271 186.708 147.801V147.547C186.708 147.009 186.787 146.523 186.943 146.087C187.1 145.651 187.318 145.279 187.597 144.97C187.876 144.657 188.207 144.417 188.587 144.252C188.968 144.087 189.381 144.005 189.825 144.005C190.316 144.005 190.746 144.087 191.114 144.252C191.482 144.417 191.787 144.65 192.028 144.951C192.273 145.247 192.455 145.6 192.574 146.011C192.696 146.421 192.758 146.874 192.758 147.369V148.023H187.451V146.925H191.247V146.804C191.239 146.529 191.184 146.271 191.082 146.03C190.985 145.789 190.834 145.594 190.631 145.446C190.428 145.298 190.157 145.224 189.819 145.224C189.565 145.224 189.339 145.279 189.14 145.389C188.945 145.494 188.782 145.649 188.651 145.852C188.52 146.055 188.418 146.301 188.346 146.588C188.278 146.872 188.245 147.191 188.245 147.547V147.801C188.245 148.101 188.285 148.381 188.365 148.639C188.45 148.893 188.573 149.115 188.733 149.305C188.894 149.496 189.089 149.646 189.317 149.756C189.546 149.862 189.806 149.915 190.098 149.915C190.466 149.915 190.794 149.84 191.082 149.692C191.37 149.544 191.619 149.335 191.831 149.064L192.637 149.845C192.489 150.061 192.297 150.268 192.06 150.467C191.823 150.661 191.533 150.82 191.19 150.943C190.851 151.066 190.458 151.127 190.009 151.127Z" fill="#505050"/>
<path d="M147.5 127.5H206C207.933 127.5 209.5 129.067 209.5 131V163C209.5 164.933 207.933 166.5 206 166.5H147.5V127.5Z" stroke="#E6E6E6"/>
<path d="M481 147C481 147.51 480.587 147.923 480.077 147.923H475.923V152.077C475.923 152.588 475.51 153 475 153C474.49 153 474.077 152.588 474.077 152.077V147.923H469.923C469.413 147.923 469 147.51 469 147C469 146.49 469.413 146.077 469.923 146.077H474.077V141.923C474.077 141.413 474.49 141 475 141C475.51 141 475.923 141.413 475.923 141.923V146.077H480.077C480.588 146.077 481 146.489 481 147Z" fill="#1A1A1A"/>
<path d="M495.539 142.989L492.777 151H491.108L494.586 141.758H495.653L495.539 142.989ZM497.849 151L495.082 142.989L494.961 141.758H496.034L499.525 151H497.849ZM497.716 147.572V148.835H492.688V147.572H497.716ZM504.597 149.578V141.25H506.133V151H504.743L504.597 149.578ZM500.128 147.642V147.509C500.128 146.988 500.189 146.514 500.312 146.087C500.435 145.655 500.612 145.285 500.845 144.976C501.078 144.663 501.361 144.424 501.696 144.259C502.03 144.09 502.407 144.005 502.826 144.005C503.24 144.005 503.604 144.085 503.917 144.246C504.231 144.407 504.497 144.638 504.717 144.938C504.937 145.234 505.113 145.59 505.244 146.004C505.375 146.415 505.468 146.872 505.523 147.375V147.801C505.468 148.292 505.375 148.74 505.244 149.146C505.113 149.553 504.937 149.904 504.717 150.2C504.497 150.496 504.229 150.725 503.911 150.886C503.598 151.047 503.232 151.127 502.813 151.127C502.398 151.127 502.024 151.04 501.689 150.867C501.359 150.693 501.078 150.45 500.845 150.137C500.612 149.824 500.435 149.455 500.312 149.032C500.189 148.605 500.128 148.141 500.128 147.642ZM501.658 147.509V147.642C501.658 147.955 501.685 148.247 501.74 148.518C501.799 148.789 501.89 149.028 502.013 149.235C502.136 149.438 502.295 149.599 502.489 149.718C502.688 149.832 502.925 149.889 503.2 149.889C503.547 149.889 503.833 149.813 504.057 149.661C504.281 149.508 504.457 149.303 504.584 149.045C504.715 148.783 504.804 148.491 504.851 148.169V147.02C504.825 146.77 504.772 146.538 504.692 146.322C504.616 146.106 504.512 145.918 504.381 145.757C504.25 145.592 504.087 145.465 503.892 145.376C503.702 145.283 503.475 145.236 503.213 145.236C502.934 145.236 502.697 145.296 502.502 145.414C502.307 145.533 502.146 145.695 502.02 145.903C501.897 146.11 501.806 146.351 501.747 146.626C501.687 146.902 501.658 147.196 501.658 147.509ZM511.922 149.578V141.25H513.458V151H512.068L511.922 149.578ZM507.453 147.642V147.509C507.453 146.988 507.514 146.514 507.637 146.087C507.76 145.655 507.938 145.285 508.17 144.976C508.403 144.663 508.687 144.424 509.021 144.259C509.355 144.09 509.732 144.005 510.151 144.005C510.566 144.005 510.93 144.085 511.243 144.246C511.556 144.407 511.822 144.638 512.042 144.938C512.263 145.234 512.438 145.59 512.569 146.004C512.701 146.415 512.794 146.872 512.849 147.375V147.801C512.794 148.292 512.701 148.74 512.569 149.146C512.438 149.553 512.263 149.904 512.042 150.2C511.822 150.496 511.554 150.725 511.236 150.886C510.923 151.047 510.557 151.127 510.138 151.127C509.723 151.127 509.349 151.04 509.015 150.867C508.685 150.693 508.403 150.45 508.17 150.137C507.938 149.824 507.76 149.455 507.637 149.032C507.514 148.605 507.453 148.141 507.453 147.642ZM508.983 147.509V147.642C508.983 147.955 509.01 148.247 509.065 148.518C509.125 148.789 509.216 149.028 509.338 149.235C509.461 149.438 509.62 149.599 509.814 149.718C510.013 149.832 510.25 149.889 510.525 149.889C510.872 149.889 511.158 149.813 511.382 149.661C511.607 149.508 511.782 149.303 511.909 149.045C512.04 148.783 512.129 148.491 512.176 148.169V147.02C512.15 146.77 512.097 146.538 512.017 146.322C511.941 146.106 511.837 145.918 511.706 145.757C511.575 145.592 511.412 145.465 511.217 145.376C511.027 145.283 510.8 145.236 510.538 145.236C510.259 145.236 510.022 145.296 509.827 145.414C509.632 145.533 509.472 145.695 509.345 145.903C509.222 146.11 509.131 146.351 509.072 146.626C509.013 146.902 508.983 147.196 508.983 147.509ZM520.364 151H518.834V143.472C518.834 142.96 518.93 142.53 519.12 142.183C519.315 141.832 519.592 141.567 519.952 141.39C520.311 141.208 520.737 141.117 521.228 141.117C521.38 141.117 521.53 141.127 521.678 141.148C521.826 141.165 521.97 141.193 522.11 141.231L522.072 142.412C521.987 142.39 521.894 142.376 521.792 142.367C521.695 142.359 521.589 142.354 521.475 142.354C521.242 142.354 521.041 142.399 520.872 142.488C520.707 142.572 520.58 142.697 520.491 142.862C520.407 143.027 520.364 143.23 520.364 143.472V151ZM521.78 144.132V145.249H517.781V144.132H521.78ZM524.528 144.132V151H522.992V144.132H524.528ZM522.891 142.329C522.891 142.096 522.967 141.904 523.119 141.751C523.276 141.595 523.492 141.517 523.767 141.517C524.037 141.517 524.251 141.595 524.408 141.751C524.564 141.904 524.643 142.096 524.643 142.329C524.643 142.558 524.564 142.748 524.408 142.9C524.251 143.053 524.037 143.129 523.767 143.129C523.492 143.129 523.276 143.053 523.119 142.9C522.967 142.748 522.891 142.558 522.891 142.329ZM529.232 151.127C528.724 151.127 528.265 151.044 527.854 150.879C527.448 150.71 527.101 150.475 526.813 150.175C526.53 149.874 526.312 149.521 526.16 149.115C526.007 148.708 525.931 148.271 525.931 147.801V147.547C525.931 147.009 526.009 146.523 526.166 146.087C526.323 145.651 526.541 145.279 526.82 144.97C527.099 144.657 527.429 144.417 527.81 144.252C528.191 144.087 528.604 144.005 529.048 144.005C529.539 144.005 529.968 144.087 530.336 144.252C530.705 144.417 531.009 144.65 531.25 144.951C531.496 145.247 531.678 145.6 531.796 146.011C531.919 146.421 531.98 146.874 531.98 147.369V148.023H526.674V146.925H530.47V146.804C530.461 146.529 530.406 146.271 530.305 146.03C530.207 145.789 530.057 145.594 529.854 145.446C529.651 145.298 529.38 145.224 529.042 145.224C528.788 145.224 528.561 145.279 528.362 145.389C528.168 145.494 528.005 145.649 527.874 145.852C527.742 146.055 527.641 146.301 527.569 146.588C527.501 146.872 527.467 147.191 527.467 147.547V147.801C527.467 148.101 527.507 148.381 527.588 148.639C527.673 148.893 527.795 149.115 527.956 149.305C528.117 149.496 528.312 149.646 528.54 149.756C528.769 149.862 529.029 149.915 529.321 149.915C529.689 149.915 530.017 149.84 530.305 149.692C530.592 149.544 530.842 149.335 531.054 149.064L531.86 149.845C531.712 150.061 531.519 150.268 531.282 150.467C531.045 150.661 530.755 150.82 530.413 150.943C530.074 151.066 529.681 151.127 529.232 151.127ZM534.812 141.25V151H533.275V141.25H534.812ZM540.677 149.578V141.25H542.213V151H540.823L540.677 149.578ZM536.208 147.642V147.509C536.208 146.988 536.269 146.514 536.392 146.087C536.515 145.655 536.693 145.285 536.925 144.976C537.158 144.663 537.442 144.424 537.776 144.259C538.11 144.09 538.487 144.005 538.906 144.005C539.32 144.005 539.684 144.085 539.998 144.246C540.311 144.407 540.577 144.638 540.797 144.938C541.017 145.234 541.193 145.59 541.324 146.004C541.455 146.415 541.549 146.872 541.604 147.375V147.801C541.549 148.292 541.455 148.74 541.324 149.146C541.193 149.553 541.017 149.904 540.797 150.2C540.577 150.496 540.309 150.725 539.991 150.886C539.678 151.047 539.312 151.127 538.893 151.127C538.478 151.127 538.104 151.04 537.77 150.867C537.439 150.693 537.158 150.45 536.925 150.137C536.693 149.824 536.515 149.455 536.392 149.032C536.269 148.605 536.208 148.141 536.208 147.642ZM537.738 147.509V147.642C537.738 147.955 537.765 148.247 537.82 148.518C537.88 148.789 537.971 149.028 538.093 149.235C538.216 149.438 538.375 149.599 538.569 149.718C538.768 149.832 539.005 149.889 539.28 149.889C539.627 149.889 539.913 149.813 540.137 149.661C540.361 149.508 540.537 149.303 540.664 149.045C540.795 148.783 540.884 148.491 540.931 148.169V147.02C540.905 146.77 540.852 146.538 540.772 146.322C540.696 146.106 540.592 145.918 540.461 145.757C540.33 145.592 540.167 145.465 539.972 145.376C539.782 145.283 539.555 145.236 539.293 145.236C539.014 145.236 538.777 145.296 538.582 145.414C538.387 145.533 538.227 145.695 538.1 145.903C537.977 146.11 537.886 146.351 537.827 146.626C537.767 146.902 537.738 147.196 537.738 147.509Z" fill="#1A1A1A"/>
<rect x="451.5" y="131.5" width="108" height="31" rx="3.5" stroke="#1A1A1A"/>
<path d="M80.5 179C80.5 177.067 82.067 175.5 84 175.5H556C557.933 175.5 559.5 177.067 559.5 179V214.5H80.5V179Z" fill="white"/>
<path d="M96.8 190.2V200.6H100.432C101.528 200.6 102.4 200.336 103.04 199.8C103.68 199.272 104 198.536 104 197.584C104 196.912 103.864 196.376 103.592 195.976C103.32 195.576 102.872 195.296 102.256 195.152V195.08C102.712 195 103.072 194.76 103.344 194.36C103.616 193.96 103.752 193.456 103.752 192.832C103.752 191.92 103.44 191.248 102.816 190.832C102.2 190.408 101.2 190.2 99.824 190.2H96.8ZM98.856 194.32V192.008H99.944C100.528 192.008 100.96 192.096 101.232 192.264C101.504 192.44 101.64 192.728 101.64 193.12C101.64 193.552 101.512 193.856 101.264 194.04C101.016 194.224 100.608 194.32 100.056 194.32H98.856ZM98.856 196.072H100.136C101.288 196.072 101.864 196.496 101.864 197.36C101.864 197.84 101.728 198.2 101.456 198.432C101.184 198.664 100.768 198.776 100.2 198.776H98.856V196.072Z" fill="black"/>
<path d="M139.824 191.8H138.12L135.88 199H137.576L137.08 200.6H131.68L132.176 199H133.888L136.128 191.8H134.424L134.92 190.2H140.32L139.824 191.8Z" fill="black"/>
<path d="M168.4 192.6C167.736 192.6 167.2 192.064 167.2 191.4C167.2 190.744 167.736 190.2 168.4 190.2C169.056 190.2 169.6 190.744 169.6 191.4C169.6 192.064 169.056 192.6 168.4 192.6ZM170.4 191H177.6V191.8H170.4V191ZM168.4 196.6C167.736 196.6 167.2 196.064 167.2 195.4C167.2 194.744 167.736 194.2 168.4 194.2C169.056 194.2 169.6 194.744 169.6 195.4C169.6 196.064 169.056 196.6 168.4 196.6ZM170.4 195H177.6V195.8H170.4V195ZM168.4 200.6C167.736 200.6 167.2 200.064 167.2 199.4C167.2 198.744 167.736 198.2 168.4 198.2C169.056 198.2 169.6 198.744 169.6 199.4C169.6 200.064 169.056 200.6 168.4 200.6ZM170.4 199H177.6V199.8H170.4V199Z" fill="black"/>
<path d="M204.8 192.6V189.4H204.248L203.216 190.224L203.536 190.632L203.904 190.336C203.952 190.296 204.032 190.224 204.144 190.112L204.128 190.448V192.6H204.8ZM206.4 191H213.6V191.8H206.4V191ZM205.416 196.56V196H204.04V195.968L204.448 195.584C204.712 195.336 204.904 195.152 205.008 195.016C205.12 194.88 205.2 194.752 205.248 194.624C205.304 194.496 205.328 194.36 205.328 194.216C205.328 194.048 205.288 193.896 205.2 193.768C205.12 193.64 205 193.544 204.848 193.472C204.696 193.4 204.52 193.36 204.328 193.36C204.176 193.36 204.04 193.376 203.92 193.408C203.8 193.432 203.688 193.48 203.584 193.528C203.488 193.584 203.352 193.68 203.2 193.808L203.56 194.24C203.688 194.136 203.808 194.056 203.92 194C204.04 193.944 204.16 193.92 204.28 193.92C204.392 193.92 204.488 193.944 204.56 194.008C204.632 194.072 204.664 194.168 204.664 194.296C204.664 194.376 204.648 194.456 204.616 194.536C204.584 194.616 204.536 194.704 204.464 194.8C204.392 194.888 204.232 195.056 204 195.296L203.208 196.096V196.56H205.416ZM206.4 195H213.6V195.8H206.4V195ZM205.368 198.16C205.368 197.92 205.272 197.728 205.072 197.592C204.88 197.456 204.608 197.384 204.272 197.384C203.856 197.384 203.504 197.488 203.208 197.704L203.528 198.184C203.664 198.096 203.784 198.032 203.896 198C204.008 197.96 204.112 197.944 204.224 197.944C204.528 197.944 204.688 198.064 204.688 198.312C204.688 198.472 204.632 198.592 204.512 198.656C204.392 198.72 204.208 198.752 203.952 198.752H203.704V199.28H203.952C204.224 199.28 204.424 199.312 204.552 199.376C204.672 199.44 204.736 199.552 204.736 199.704C204.736 199.88 204.68 200 204.576 200.08C204.464 200.16 204.296 200.2 204.072 200.2C203.92 200.2 203.768 200.176 203.616 200.136C203.464 200.096 203.328 200.04 203.2 199.976V200.568C203.472 200.688 203.792 200.744 204.144 200.744C204.568 200.744 204.896 200.656 205.12 200.48C205.352 200.304 205.464 200.064 205.464 199.744C205.464 199.528 205.392 199.36 205.256 199.232C205.12 199.104 204.92 199.024 204.664 198.992V198.976C204.88 198.928 205.056 198.824 205.184 198.68C205.304 198.536 205.368 198.368 205.368 198.16ZM206.4 199H213.6V199.8H206.4V199Z" fill="black"/>
<path d="M245.6 191V189.4H238.4V191H245.6ZM249.6 194.2V192.6H238.4V194.2H249.6ZM245.6 197.4V195.8H238.4V197.4H245.6ZM249.6 200.6V199H238.4V200.6H249.6Z" fill="black"/>
<path d="M283.2 191V189.4H276.8V191H283.2ZM285.6 194.2V192.6H274.4V194.2H285.6ZM283.2 197.4V195.8H276.8V197.4H283.2ZM285.6 200.6V199H274.4V200.6H285.6Z" fill="black"/>
<path d="M321.6 191V189.4H314.4V191H321.6ZM321.6 194.2V192.6H310.4V194.2H321.6ZM321.6 197.4V195.8H314.4V197.4H321.6ZM321.6 200.6V199H310.4V200.6H321.6Z" fill="black"/>
<path d="M358.192 189.208C358.838 189.856 359.2 190.733 359.2 191.648C359.2 192.563 358.838 193.44 358.192 194.088L356.968 195.304C356.072 196.2 354.808 196.48 353.656 196.176L355.752 194.088L356.36 193.472L356.968 192.864C357.64 192.192 357.64 191.104 356.968 190.432C356.809 190.27 356.62 190.142 356.411 190.054C356.203 189.967 355.978 189.922 355.752 189.922C355.526 189.922 355.301 189.967 355.093 190.054C354.884 190.142 354.695 190.27 354.536 190.432L353.92 191.04L351.216 193.744C350.92 192.592 351.2 191.328 352.096 190.432L353.312 189.208C353.96 188.562 354.837 188.2 355.752 188.2C356.667 188.2 357.544 188.562 358.192 189.208ZM350.872 197.744L355.144 193.472C355.48 193.136 355.48 192.592 355.144 192.256C354.792 191.912 354.24 191.944 353.92 192.256L349.656 196.528C349.32 196.864 349.32 197.408 349.656 197.744C350.008 198.088 350.56 198.056 350.872 197.744ZM350.264 199.576L353.576 196.256C353.88 197.408 353.6 198.672 352.704 199.568L351.488 200.792C350.84 201.438 349.963 201.8 349.048 201.8C348.133 201.8 347.256 201.438 346.608 200.792C345.962 200.144 345.6 199.267 345.6 198.352C345.6 197.437 345.962 196.56 346.608 195.912L347.832 194.696C348.728 193.8 349.992 193.52 351.144 193.816L347.832 197.136C347.152 197.808 347.152 198.896 347.832 199.576C348.504 200.248 349.592 200.248 350.264 199.576Z" fill="black"/>
<path d="M80.5 179C80.5 177.067 82.067 175.5 84 175.5H556C557.933 175.5 559.5 177.067 559.5 179V214.5H80.5V179Z" stroke="#E6E6E6"/>
<mask id="path-27-inside-1_7347_82091" fill="white">
<path d="M80 215H560V331C560 333.209 558.209 335 556 335H84C81.7909 335 80 333.209 80 331V215Z"/>
</mask>
<path d="M80 215H560V331C560 333.209 558.209 335 556 335H84C81.7909 335 80 333.209 80 331V215Z" fill="white"/>
<path d="M102.921 237.305C102.921 237.056 102.882 236.836 102.804 236.646C102.731 236.45 102.599 236.274 102.409 236.118C102.223 235.962 101.964 235.813 101.632 235.671C101.305 235.53 100.89 235.386 100.387 235.239C99.8599 235.083 99.3838 234.91 98.959 234.719C98.5342 234.524 98.1704 234.302 97.8677 234.053C97.5649 233.804 97.333 233.518 97.1719 233.196C97.0107 232.874 96.9302 232.505 96.9302 232.09C96.9302 231.675 97.0156 231.292 97.1865 230.94C97.3574 230.588 97.6016 230.283 97.9189 230.024C98.2412 229.761 98.6245 229.556 99.0688 229.409C99.5132 229.263 100.009 229.189 100.556 229.189C101.356 229.189 102.035 229.343 102.592 229.651C103.153 229.954 103.581 230.352 103.874 230.845C104.167 231.333 104.313 231.855 104.313 232.412H102.907C102.907 232.012 102.821 231.658 102.65 231.35C102.479 231.038 102.221 230.793 101.874 230.618C101.527 230.437 101.088 230.347 100.556 230.347C100.053 230.347 99.6377 230.422 99.3105 230.574C98.9834 230.725 98.7393 230.93 98.5781 231.189C98.4219 231.448 98.3438 231.743 98.3438 232.075C98.3438 232.3 98.3901 232.505 98.4829 232.69C98.5806 232.871 98.7295 233.04 98.9297 233.196C99.1348 233.352 99.3936 233.496 99.7061 233.628C100.023 233.76 100.402 233.887 100.841 234.009C101.447 234.18 101.969 234.37 102.409 234.58C102.848 234.79 103.209 235.027 103.493 235.291C103.781 235.549 103.993 235.845 104.13 236.177C104.271 236.504 104.342 236.875 104.342 237.29C104.342 237.725 104.254 238.118 104.079 238.469C103.903 238.821 103.651 239.121 103.324 239.37C102.997 239.619 102.604 239.812 102.145 239.949C101.691 240.081 101.183 240.146 100.622 240.146C100.128 240.146 99.6426 240.078 99.1641 239.941C98.6904 239.805 98.2583 239.6 97.8677 239.326C97.4819 239.053 97.1719 238.716 96.9375 238.315C96.708 237.91 96.5933 237.441 96.5933 236.909H97.9995C97.9995 237.275 98.0703 237.59 98.2119 237.854C98.3535 238.113 98.5464 238.328 98.7905 238.499C99.0396 238.669 99.3203 238.796 99.6328 238.879C99.9502 238.958 100.28 238.997 100.622 238.997C101.115 238.997 101.532 238.928 101.874 238.792C102.216 238.655 102.475 238.459 102.65 238.206C102.831 237.952 102.921 237.651 102.921 237.305ZM110.612 238.645V234.565C110.612 234.253 110.548 233.982 110.421 233.752C110.299 233.518 110.114 233.337 109.865 233.21C109.616 233.083 109.308 233.02 108.942 233.02C108.6 233.02 108.3 233.079 108.041 233.196C107.787 233.313 107.587 233.467 107.44 233.657C107.299 233.848 107.228 234.053 107.228 234.272H105.873C105.873 233.989 105.946 233.708 106.093 233.43C106.239 233.152 106.449 232.9 106.723 232.676C107.001 232.446 107.333 232.266 107.719 232.134C108.109 231.997 108.544 231.929 109.022 231.929C109.599 231.929 110.106 232.026 110.546 232.222C110.99 232.417 111.337 232.712 111.586 233.108C111.84 233.499 111.967 233.989 111.967 234.58V238.271C111.967 238.535 111.989 238.816 112.033 239.114C112.082 239.412 112.152 239.668 112.245 239.883V240H110.832C110.763 239.844 110.709 239.636 110.67 239.377C110.631 239.114 110.612 238.87 110.612 238.645ZM110.846 235.195L110.861 236.147H109.491C109.105 236.147 108.761 236.179 108.458 236.243C108.156 236.301 107.902 236.392 107.697 236.514C107.492 236.636 107.335 236.79 107.228 236.975C107.121 237.156 107.067 237.368 107.067 237.612C107.067 237.861 107.123 238.088 107.235 238.293C107.348 238.499 107.516 238.662 107.741 238.784C107.97 238.901 108.251 238.96 108.583 238.96C108.998 238.96 109.364 238.872 109.682 238.696C109.999 238.521 110.25 238.306 110.436 238.052C110.626 237.798 110.729 237.551 110.744 237.312L111.322 237.964C111.288 238.169 111.195 238.396 111.044 238.645C110.893 238.894 110.69 239.133 110.436 239.363C110.187 239.587 109.889 239.775 109.542 239.927C109.201 240.073 108.815 240.146 108.385 240.146C107.848 240.146 107.377 240.042 106.972 239.832C106.571 239.622 106.259 239.341 106.034 238.989C105.814 238.633 105.705 238.235 105.705 237.795C105.705 237.371 105.788 236.997 105.954 236.675C106.12 236.348 106.359 236.077 106.671 235.862C106.984 235.642 107.36 235.476 107.799 235.364C108.239 235.251 108.729 235.195 109.271 235.195H110.846ZM115.446 233.65V240H114.083V232.075H115.373L115.446 233.65ZM115.167 235.737L114.538 235.715C114.542 235.173 114.613 234.673 114.75 234.214C114.887 233.75 115.089 233.347 115.358 233.005C115.626 232.664 115.961 232.4 116.361 232.214C116.762 232.024 117.226 231.929 117.753 231.929C118.124 231.929 118.466 231.982 118.778 232.09C119.091 232.192 119.362 232.356 119.591 232.581C119.821 232.805 119.999 233.093 120.126 233.445C120.253 233.796 120.316 234.221 120.316 234.719V240H118.961V234.785C118.961 234.37 118.891 234.038 118.749 233.789C118.612 233.54 118.417 233.359 118.163 233.247C117.909 233.13 117.611 233.071 117.27 233.071C116.869 233.071 116.535 233.142 116.266 233.284C115.998 233.425 115.783 233.621 115.622 233.87C115.46 234.119 115.343 234.404 115.27 234.727C115.202 235.044 115.167 235.381 115.167 235.737ZM120.302 234.99L119.394 235.269C119.398 234.834 119.469 234.417 119.606 234.016C119.748 233.616 119.95 233.259 120.214 232.947C120.482 232.634 120.812 232.388 121.203 232.207C121.593 232.021 122.04 231.929 122.543 231.929C122.968 231.929 123.344 231.985 123.671 232.097C124.003 232.209 124.281 232.383 124.506 232.617C124.735 232.847 124.909 233.142 125.026 233.503C125.143 233.865 125.202 234.294 125.202 234.792V240H123.839V234.778C123.839 234.333 123.769 233.989 123.627 233.745C123.49 233.496 123.295 233.323 123.041 233.225C122.792 233.123 122.494 233.071 122.147 233.071C121.85 233.071 121.586 233.123 121.356 233.225C121.127 233.328 120.934 233.469 120.778 233.65C120.622 233.826 120.502 234.028 120.419 234.258C120.341 234.487 120.302 234.731 120.302 234.99ZM128.607 233.599V243.047H127.245V232.075H128.49L128.607 233.599ZM133.947 235.972V236.125C133.947 236.702 133.878 237.236 133.742 237.729C133.605 238.218 133.405 238.643 133.141 239.004C132.882 239.365 132.562 239.646 132.182 239.846C131.801 240.046 131.364 240.146 130.871 240.146C130.368 240.146 129.923 240.063 129.538 239.897C129.152 239.731 128.825 239.49 128.556 239.172C128.288 238.855 128.073 238.474 127.912 238.03C127.755 237.585 127.648 237.085 127.589 236.528V235.708C127.648 235.122 127.758 234.597 127.919 234.133C128.08 233.669 128.292 233.274 128.556 232.947C128.825 232.615 129.149 232.363 129.53 232.192C129.911 232.017 130.351 231.929 130.849 231.929C131.347 231.929 131.789 232.026 132.174 232.222C132.56 232.412 132.885 232.686 133.148 233.042C133.412 233.398 133.61 233.826 133.742 234.324C133.878 234.817 133.947 235.366 133.947 235.972ZM132.584 236.125V235.972C132.584 235.576 132.543 235.205 132.46 234.858C132.377 234.507 132.248 234.199 132.072 233.936C131.901 233.667 131.681 233.457 131.413 233.306C131.144 233.149 130.824 233.071 130.453 233.071C130.111 233.071 129.813 233.13 129.56 233.247C129.311 233.364 129.098 233.523 128.922 233.723C128.747 233.918 128.603 234.143 128.49 234.397C128.383 234.646 128.302 234.905 128.249 235.173V237.07C128.346 237.412 128.483 237.734 128.659 238.037C128.834 238.335 129.069 238.577 129.362 238.762C129.655 238.943 130.023 239.033 130.468 239.033C130.834 239.033 131.149 238.958 131.413 238.806C131.681 238.65 131.901 238.438 132.072 238.169C132.248 237.9 132.377 237.593 132.46 237.246C132.543 236.895 132.584 236.521 132.584 236.125ZM137.147 228.75V240H135.785V228.75H137.147ZM142.611 240.146C142.06 240.146 141.559 240.054 141.11 239.868C140.666 239.678 140.282 239.412 139.96 239.07C139.643 238.728 139.398 238.323 139.228 237.854C139.057 237.385 138.971 236.873 138.971 236.316V236.008C138.971 235.364 139.066 234.79 139.257 234.287C139.447 233.779 139.706 233.35 140.033 232.998C140.36 232.646 140.731 232.38 141.146 232.2C141.562 232.019 141.991 231.929 142.436 231.929C143.002 231.929 143.49 232.026 143.9 232.222C144.315 232.417 144.655 232.69 144.918 233.042C145.182 233.389 145.377 233.799 145.504 234.272C145.631 234.741 145.695 235.254 145.695 235.811V236.418H139.777V235.312H144.34V235.21C144.32 234.858 144.247 234.517 144.12 234.185C143.998 233.853 143.803 233.579 143.534 233.364C143.266 233.149 142.899 233.042 142.436 233.042C142.128 233.042 141.845 233.108 141.586 233.24C141.327 233.367 141.105 233.557 140.919 233.811C140.734 234.065 140.59 234.375 140.487 234.741C140.385 235.107 140.333 235.53 140.333 236.008V236.316C140.333 236.692 140.385 237.046 140.487 237.378C140.595 237.705 140.749 237.993 140.949 238.242C141.154 238.491 141.4 238.687 141.688 238.828C141.981 238.97 142.313 239.041 142.685 239.041C143.163 239.041 143.568 238.943 143.9 238.748C144.232 238.552 144.523 238.291 144.772 237.964L145.592 238.616C145.421 238.875 145.204 239.121 144.94 239.355C144.677 239.59 144.352 239.78 143.966 239.927C143.585 240.073 143.134 240.146 142.611 240.146ZM154.315 232.075V233.115H150.031V232.075H154.315ZM151.481 230.149H152.836V238.037C152.836 238.306 152.877 238.508 152.96 238.645C153.043 238.782 153.151 238.872 153.283 238.916C153.415 238.96 153.556 238.982 153.708 238.982C153.82 238.982 153.937 238.972 154.059 238.953C154.186 238.928 154.281 238.909 154.345 238.894L154.352 240C154.245 240.034 154.103 240.066 153.927 240.095C153.756 240.129 153.549 240.146 153.305 240.146C152.973 240.146 152.667 240.081 152.389 239.949C152.111 239.817 151.889 239.597 151.723 239.29C151.562 238.977 151.481 238.557 151.481 238.03V230.149ZM159.193 240.146C158.642 240.146 158.141 240.054 157.692 239.868C157.248 239.678 156.864 239.412 156.542 239.07C156.225 238.728 155.98 238.323 155.81 237.854C155.639 237.385 155.553 236.873 155.553 236.316V236.008C155.553 235.364 155.648 234.79 155.839 234.287C156.029 233.779 156.288 233.35 156.615 232.998C156.942 232.646 157.313 232.38 157.729 232.2C158.144 232.019 158.573 231.929 159.018 231.929C159.584 231.929 160.072 232.026 160.482 232.222C160.897 232.417 161.237 232.69 161.5 233.042C161.764 233.389 161.959 233.799 162.086 234.272C162.213 234.741 162.277 235.254 162.277 235.811V236.418H156.359V235.312H160.922V235.21C160.902 234.858 160.829 234.517 160.702 234.185C160.58 233.853 160.385 233.579 160.116 233.364C159.848 233.149 159.481 233.042 159.018 233.042C158.71 233.042 158.427 233.108 158.168 233.24C157.909 233.367 157.687 233.557 157.501 233.811C157.316 234.065 157.172 234.375 157.069 234.741C156.967 235.107 156.916 235.53 156.916 236.008V236.316C156.916 236.692 156.967 237.046 157.069 237.378C157.177 237.705 157.331 237.993 157.531 238.242C157.736 238.491 157.982 238.687 158.271 238.828C158.563 238.97 158.896 239.041 159.267 239.041C159.745 239.041 160.15 238.943 160.482 238.748C160.814 238.552 161.105 238.291 161.354 237.964L162.174 238.616C162.003 238.875 161.786 239.121 161.522 239.355C161.259 239.59 160.934 239.78 160.548 239.927C160.167 240.073 159.716 240.146 159.193 240.146ZM164.774 232.075L166.51 234.961L168.268 232.075H169.857L167.265 235.986L169.938 240H168.371L166.54 237.026L164.708 240H163.134L165.8 235.986L163.214 232.075H164.774ZM174.618 232.075V233.115H170.333V232.075H174.618ZM171.784 230.149H173.139V238.037C173.139 238.306 173.18 238.508 173.263 238.645C173.346 238.782 173.454 238.872 173.585 238.916C173.717 238.96 173.859 238.982 174.01 238.982C174.123 238.982 174.24 238.972 174.362 238.953C174.489 238.928 174.584 238.909 174.647 238.894L174.655 240C174.547 240.034 174.406 240.066 174.23 240.095C174.059 240.129 173.852 240.146 173.607 240.146C173.275 240.146 172.97 240.081 172.692 239.949C172.414 239.817 172.191 239.597 172.025 239.29C171.864 238.977 171.784 238.557 171.784 238.03V230.149Z" fill="#1A1A1A"/>
<path d="M80 215H560H80ZM561 331C561 333.761 558.761 336 556 336H84C81.2386 336 79 333.761 79 331H81C81 332.657 82.3431 334 84 334H556C557.657 334 559 332.657 559 331H561ZM84 336C81.2386 336 79 333.761 79 331V215H81V331C81 332.657 82.3431 334 84 334V336ZM561 215V331C561 333.761 558.761 336 556 336V334C557.657 334 559 332.657 559 331V215H561Z" fill="#E6E6E6" mask="url(#path-27-inside-1_7347_82091)"/>
<path d="M87.1094 351.731V352.728H82.1074V351.731H87.1094ZM82.2979 347.758V357H81.0728V347.758H82.2979ZM88.1758 347.758V357H86.957V347.758H88.1758ZM93.0254 357.127C92.5472 357.127 92.1134 357.047 91.7241 356.886C91.339 356.721 91.0068 356.49 90.7275 356.194C90.4525 355.898 90.2409 355.546 90.0928 355.14C89.9447 354.734 89.8706 354.29 89.8706 353.807V353.541C89.8706 352.982 89.9531 352.485 90.1182 352.049C90.2832 351.609 90.5075 351.236 90.791 350.932C91.0745 350.627 91.3962 350.396 91.7559 350.24C92.1156 350.083 92.488 350.005 92.873 350.005C93.3639 350.005 93.7871 350.09 94.1426 350.259C94.5023 350.428 94.7964 350.665 95.0249 350.97C95.2534 351.27 95.4227 351.626 95.5327 352.036C95.6427 352.442 95.6978 352.887 95.6978 353.369V353.896H90.5688V352.938H94.5234V352.849C94.5065 352.544 94.443 352.248 94.333 351.96C94.2272 351.672 94.0579 351.435 93.8252 351.249C93.5924 351.063 93.2751 350.97 92.873 350.97C92.6064 350.97 92.361 351.027 92.1367 351.141C91.9124 351.251 91.7199 351.416 91.5591 351.636C91.3983 351.856 91.2734 352.125 91.1846 352.442C91.0957 352.76 91.0513 353.126 91.0513 353.541V353.807C91.0513 354.133 91.0957 354.44 91.1846 354.728C91.2777 355.011 91.411 355.261 91.5845 355.477C91.7622 355.692 91.9759 355.862 92.2256 355.984C92.4795 356.107 92.7673 356.168 93.0889 356.168C93.5036 356.168 93.8548 356.084 94.1426 355.915C94.4303 355.745 94.6821 355.519 94.8979 355.235L95.6089 355.8C95.4608 356.025 95.2725 356.238 95.0439 356.441C94.8154 356.645 94.534 356.81 94.1997 356.937C93.8696 357.063 93.4782 357.127 93.0254 357.127ZM98.3447 347.25V357H97.1641V347.25H98.3447ZM101.404 351.452V359.641H100.224V350.132H101.303L101.404 351.452ZM106.032 353.509V353.642C106.032 354.141 105.972 354.605 105.854 355.032C105.736 355.455 105.562 355.824 105.333 356.137C105.109 356.45 104.832 356.693 104.502 356.867C104.172 357.04 103.793 357.127 103.366 357.127C102.93 357.127 102.545 357.055 102.21 356.911C101.876 356.767 101.593 356.558 101.36 356.283C101.127 356.008 100.941 355.678 100.801 355.292C100.666 354.907 100.573 354.474 100.522 353.991V353.28C100.573 352.772 100.668 352.318 100.808 351.916C100.947 351.514 101.131 351.171 101.36 350.887C101.593 350.599 101.874 350.382 102.204 350.233C102.534 350.081 102.915 350.005 103.347 350.005C103.778 350.005 104.161 350.09 104.496 350.259C104.83 350.424 105.111 350.661 105.34 350.97C105.568 351.279 105.74 351.649 105.854 352.081C105.972 352.508 106.032 352.984 106.032 353.509ZM104.851 353.642V353.509C104.851 353.166 104.815 352.844 104.743 352.544C104.671 352.239 104.559 351.973 104.407 351.744C104.259 351.511 104.068 351.329 103.835 351.198C103.603 351.063 103.326 350.995 103.004 350.995C102.708 350.995 102.45 351.046 102.229 351.147C102.014 351.249 101.83 351.387 101.677 351.56C101.525 351.729 101.4 351.924 101.303 352.144C101.21 352.36 101.14 352.584 101.093 352.817V354.461C101.178 354.757 101.296 355.036 101.449 355.299C101.601 355.557 101.804 355.766 102.058 355.927C102.312 356.084 102.632 356.162 103.017 356.162C103.334 356.162 103.607 356.097 103.835 355.965C104.068 355.83 104.259 355.646 104.407 355.413C104.559 355.18 104.671 354.914 104.743 354.613C104.815 354.309 104.851 353.985 104.851 353.642ZM110.38 357.127C109.902 357.127 109.468 357.047 109.079 356.886C108.694 356.721 108.361 356.49 108.082 356.194C107.807 355.898 107.595 355.546 107.447 355.14C107.299 354.734 107.225 354.29 107.225 353.807V353.541C107.225 352.982 107.308 352.485 107.473 352.049C107.638 351.609 107.862 351.236 108.146 350.932C108.429 350.627 108.751 350.396 109.11 350.24C109.47 350.083 109.842 350.005 110.228 350.005C110.718 350.005 111.142 350.09 111.497 350.259C111.857 350.428 112.151 350.665 112.379 350.97C112.608 351.27 112.777 351.626 112.887 352.036C112.997 352.442 113.052 352.887 113.052 353.369V353.896H107.923V352.938H111.878V352.849C111.861 352.544 111.798 352.248 111.688 351.96C111.582 351.672 111.412 351.435 111.18 351.249C110.947 351.063 110.63 350.97 110.228 350.97C109.961 350.97 109.715 351.027 109.491 351.141C109.267 351.251 109.074 351.416 108.914 351.636C108.753 351.856 108.628 352.125 108.539 352.442C108.45 352.76 108.406 353.126 108.406 353.541V353.807C108.406 354.133 108.45 354.44 108.539 354.728C108.632 355.011 108.765 355.261 108.939 355.477C109.117 355.692 109.33 355.862 109.58 355.984C109.834 356.107 110.122 356.168 110.443 356.168C110.858 356.168 111.209 356.084 111.497 355.915C111.785 355.745 112.037 355.519 112.252 355.235L112.963 355.8C112.815 356.025 112.627 356.238 112.398 356.441C112.17 356.645 111.889 356.81 111.554 356.937C111.224 357.063 110.833 357.127 110.38 357.127ZM115.598 351.211V357H114.423V350.132H115.566L115.598 351.211ZM117.743 350.094L117.737 351.186C117.639 351.164 117.546 351.152 117.458 351.147C117.373 351.139 117.276 351.135 117.166 351.135C116.895 351.135 116.656 351.177 116.448 351.262C116.241 351.346 116.065 351.465 115.921 351.617C115.778 351.77 115.663 351.951 115.579 352.163C115.498 352.37 115.445 352.599 115.42 352.849L115.09 353.039C115.09 352.624 115.13 352.235 115.21 351.871C115.295 351.507 115.424 351.186 115.598 350.906C115.771 350.623 115.991 350.403 116.258 350.246C116.529 350.085 116.85 350.005 117.223 350.005C117.307 350.005 117.405 350.015 117.515 350.037C117.625 350.054 117.701 350.073 117.743 350.094ZM124.929 350.132V351.033H121.215V350.132H124.929ZM122.472 348.462H123.646V355.299C123.646 355.532 123.682 355.707 123.754 355.826C123.826 355.944 123.919 356.022 124.034 356.061C124.148 356.099 124.271 356.118 124.402 356.118C124.499 356.118 124.601 356.109 124.707 356.092C124.817 356.071 124.899 356.054 124.954 356.042L124.96 357C124.867 357.03 124.745 357.057 124.592 357.083C124.444 357.112 124.264 357.127 124.053 357.127C123.765 357.127 123.5 357.07 123.259 356.956C123.018 356.841 122.826 356.651 122.682 356.384C122.542 356.113 122.472 355.75 122.472 355.292V348.462ZM129.156 357.127C128.678 357.127 128.244 357.047 127.855 356.886C127.47 356.721 127.138 356.49 126.858 356.194C126.583 355.898 126.372 355.546 126.224 355.14C126.076 354.734 126.001 354.29 126.001 353.807V353.541C126.001 352.982 126.084 352.485 126.249 352.049C126.414 351.609 126.638 351.236 126.922 350.932C127.205 350.627 127.527 350.396 127.887 350.24C128.246 350.083 128.619 350.005 129.004 350.005C129.495 350.005 129.918 350.09 130.273 350.259C130.633 350.428 130.927 350.665 131.156 350.97C131.384 351.27 131.554 351.626 131.664 352.036C131.774 352.442 131.829 352.887 131.829 353.369V353.896H126.7V352.938H130.654V352.849C130.637 352.544 130.574 352.248 130.464 351.96C130.358 351.672 130.189 351.435 129.956 351.249C129.723 351.063 129.406 350.97 129.004 350.97C128.737 350.97 128.492 351.027 128.268 351.141C128.043 351.251 127.851 351.416 127.69 351.636C127.529 351.856 127.404 352.125 127.315 352.442C127.227 352.76 127.182 353.126 127.182 353.541V353.807C127.182 354.133 127.227 354.44 127.315 354.728C127.409 355.011 127.542 355.261 127.715 355.477C127.893 355.692 128.107 355.862 128.356 355.984C128.61 356.107 128.898 356.168 129.22 356.168C129.634 356.168 129.986 356.084 130.273 355.915C130.561 355.745 130.813 355.519 131.029 355.235L131.74 355.8C131.592 356.025 131.403 356.238 131.175 356.441C130.946 356.645 130.665 356.81 130.331 356.937C130 357.063 129.609 357.127 129.156 357.127ZM133.993 350.132L135.498 352.633L137.021 350.132H138.398L136.151 353.521L138.468 357H137.11L135.523 354.423L133.936 357H132.571L134.882 353.521L132.641 350.132H133.993ZM142.524 350.132V351.033H138.811V350.132H142.524ZM140.068 348.462H141.242V355.299C141.242 355.532 141.278 355.707 141.35 355.826C141.422 355.944 141.515 356.022 141.629 356.061C141.744 356.099 141.866 356.118 141.998 356.118C142.095 356.118 142.196 356.109 142.302 356.092C142.412 356.071 142.495 356.054 142.55 356.042L142.556 357C142.463 357.03 142.34 357.057 142.188 357.083C142.04 357.112 141.86 357.127 141.648 357.127C141.361 357.127 141.096 357.07 140.855 356.956C140.614 356.841 140.421 356.651 140.277 356.384C140.138 356.113 140.068 355.75 140.068 355.292V348.462ZM148.878 357H147.704V349.408C147.704 348.913 147.793 348.496 147.971 348.158C148.153 347.815 148.413 347.557 148.751 347.383C149.09 347.206 149.492 347.117 149.958 347.117C150.093 347.117 150.228 347.125 150.364 347.142C150.503 347.159 150.639 347.184 150.77 347.218L150.707 348.177C150.618 348.156 150.516 348.141 150.402 348.132C150.292 348.124 150.182 348.12 150.072 348.12C149.822 348.12 149.606 348.17 149.424 348.272C149.247 348.369 149.111 348.513 149.018 348.704C148.925 348.894 148.878 349.129 148.878 349.408V357ZM150.338 350.132V351.033H146.619V350.132H150.338ZM151.335 353.642V353.496C151.335 353.001 151.407 352.542 151.551 352.119C151.695 351.691 151.902 351.321 152.173 351.008C152.444 350.69 152.772 350.445 153.157 350.271C153.542 350.094 153.973 350.005 154.452 350.005C154.934 350.005 155.368 350.094 155.753 350.271C156.142 350.445 156.472 350.69 156.743 351.008C157.018 351.321 157.228 351.691 157.372 352.119C157.515 352.542 157.587 353.001 157.587 353.496V353.642C157.587 354.137 157.515 354.596 157.372 355.02C157.228 355.443 157.018 355.813 156.743 356.13C156.472 356.444 156.144 356.689 155.759 356.867C155.378 357.04 154.947 357.127 154.464 357.127C153.982 357.127 153.548 357.04 153.163 356.867C152.778 356.689 152.448 356.444 152.173 356.13C151.902 355.813 151.695 355.443 151.551 355.02C151.407 354.596 151.335 354.137 151.335 353.642ZM152.509 353.496V353.642C152.509 353.985 152.549 354.309 152.63 354.613C152.71 354.914 152.831 355.18 152.992 355.413C153.157 355.646 153.362 355.83 153.607 355.965C153.853 356.097 154.139 356.162 154.464 356.162C154.786 356.162 155.067 356.097 155.309 355.965C155.554 355.83 155.757 355.646 155.918 355.413C156.079 355.18 156.199 354.914 156.28 354.613C156.364 354.309 156.407 353.985 156.407 353.642V353.496C156.407 353.158 156.364 352.838 156.28 352.538C156.199 352.233 156.077 351.964 155.912 351.731C155.751 351.494 155.548 351.308 155.302 351.173C155.061 351.037 154.778 350.97 154.452 350.97C154.13 350.97 153.847 351.037 153.601 351.173C153.36 351.308 153.157 351.494 152.992 351.731C152.831 351.964 152.71 352.233 152.63 352.538C152.549 352.838 152.509 353.158 152.509 353.496ZM160.234 351.211V357H159.06V350.132H160.203L160.234 351.211ZM162.38 350.094L162.374 351.186C162.276 351.164 162.183 351.152 162.094 351.147C162.01 351.139 161.912 351.135 161.802 351.135C161.531 351.135 161.292 351.177 161.085 351.262C160.878 351.346 160.702 351.465 160.558 351.617C160.414 351.77 160.3 351.951 160.215 352.163C160.135 352.37 160.082 352.599 160.057 352.849L159.727 353.039C159.727 352.624 159.767 352.235 159.847 351.871C159.932 351.507 160.061 351.186 160.234 350.906C160.408 350.623 160.628 350.403 160.895 350.246C161.165 350.085 161.487 350.005 161.859 350.005C161.944 350.005 162.041 350.015 162.151 350.037C162.261 350.054 162.338 350.073 162.38 350.094ZM167.864 351.211V357H166.69V350.132H167.833L167.864 351.211ZM170.01 350.094L170.003 351.186C169.906 351.164 169.813 351.152 169.724 351.147C169.639 351.139 169.542 351.135 169.432 351.135C169.161 351.135 168.922 351.177 168.715 351.262C168.507 351.346 168.332 351.465 168.188 351.617C168.044 351.77 167.93 351.951 167.845 352.163C167.765 352.37 167.712 352.599 167.687 352.849L167.356 353.039C167.356 352.624 167.397 352.235 167.477 351.871C167.562 351.507 167.691 351.186 167.864 350.906C168.038 350.623 168.258 350.403 168.524 350.246C168.795 350.085 169.117 350.005 169.489 350.005C169.574 350.005 169.671 350.015 169.781 350.037C169.891 350.054 169.967 350.073 170.01 350.094ZM172.371 350.132V357H171.19V350.132H172.371ZM171.102 348.31C171.102 348.12 171.159 347.959 171.273 347.828C171.391 347.696 171.565 347.631 171.793 347.631C172.018 347.631 172.189 347.696 172.308 347.828C172.43 347.959 172.492 348.12 172.492 348.31C172.492 348.492 172.43 348.649 172.308 348.78C172.189 348.907 172.018 348.97 171.793 348.97C171.565 348.97 171.391 348.907 171.273 348.78C171.159 348.649 171.102 348.492 171.102 348.31ZM177.005 356.162C177.284 356.162 177.542 356.105 177.779 355.991C178.016 355.876 178.211 355.72 178.363 355.521C178.516 355.318 178.602 355.087 178.624 354.829H179.741C179.72 355.235 179.582 355.614 179.328 355.965C179.078 356.312 178.75 356.594 178.344 356.81C177.938 357.021 177.492 357.127 177.005 357.127C176.489 357.127 176.038 357.036 175.653 356.854C175.272 356.672 174.955 356.422 174.701 356.105C174.451 355.788 174.263 355.424 174.136 355.013C174.013 354.598 173.952 354.16 173.952 353.699V353.433C173.952 352.971 174.013 352.535 174.136 352.125C174.263 351.71 174.451 351.344 174.701 351.027C174.955 350.709 175.272 350.46 175.653 350.278C176.038 350.096 176.489 350.005 177.005 350.005C177.542 350.005 178.012 350.115 178.414 350.335C178.816 350.551 179.131 350.847 179.36 351.224C179.593 351.596 179.72 352.019 179.741 352.493H178.624C178.602 352.21 178.522 351.954 178.382 351.725C178.247 351.497 178.061 351.315 177.824 351.179C177.591 351.04 177.318 350.97 177.005 350.97C176.645 350.97 176.343 351.042 176.097 351.186C175.856 351.325 175.663 351.516 175.52 351.757C175.38 351.994 175.278 352.258 175.215 352.55C175.156 352.838 175.126 353.132 175.126 353.433V353.699C175.126 354 175.156 354.296 175.215 354.588C175.274 354.88 175.374 355.144 175.513 355.381C175.657 355.618 175.85 355.809 176.091 355.953C176.336 356.092 176.641 356.162 177.005 356.162ZM182.235 347.25V357H181.061V347.25H182.235ZM181.956 353.306L181.467 353.287C181.472 352.817 181.541 352.383 181.677 351.985C181.812 351.583 182.003 351.234 182.248 350.938C182.493 350.642 182.785 350.413 183.124 350.252C183.467 350.087 183.846 350.005 184.26 350.005C184.599 350.005 184.903 350.051 185.174 350.145C185.445 350.233 185.676 350.377 185.866 350.576C186.061 350.775 186.209 351.033 186.311 351.351C186.412 351.664 186.463 352.047 186.463 352.5V357H185.282V352.487C185.282 352.127 185.229 351.839 185.124 351.624C185.018 351.403 184.863 351.245 184.66 351.147C184.457 351.046 184.207 350.995 183.911 350.995C183.619 350.995 183.353 351.056 183.111 351.179C182.874 351.302 182.669 351.471 182.496 351.687C182.326 351.903 182.193 352.15 182.096 352.43C182.003 352.705 181.956 352.997 181.956 353.306ZM194.321 350.132V351.033H190.608V350.132H194.321ZM191.865 348.462H193.039V355.299C193.039 355.532 193.075 355.707 193.147 355.826C193.219 355.944 193.312 356.022 193.426 356.061C193.541 356.099 193.663 356.118 193.794 356.118C193.892 356.118 193.993 356.109 194.099 356.092C194.209 356.071 194.292 356.054 194.347 356.042L194.353 357C194.26 357.03 194.137 357.057 193.985 357.083C193.837 357.112 193.657 357.127 193.445 357.127C193.158 357.127 192.893 357.07 192.652 356.956C192.411 356.841 192.218 356.651 192.074 356.384C191.935 356.113 191.865 355.75 191.865 355.292V348.462ZM198.549 357.127C198.071 357.127 197.637 357.047 197.248 356.886C196.862 356.721 196.53 356.49 196.251 356.194C195.976 355.898 195.764 355.546 195.616 355.14C195.468 354.734 195.394 354.29 195.394 353.807V353.541C195.394 352.982 195.477 352.485 195.642 352.049C195.807 351.609 196.031 351.236 196.314 350.932C196.598 350.627 196.92 350.396 197.279 350.24C197.639 350.083 198.011 350.005 198.396 350.005C198.887 350.005 199.311 350.09 199.666 350.259C200.026 350.428 200.32 350.665 200.548 350.97C200.777 351.27 200.946 351.626 201.056 352.036C201.166 352.442 201.221 352.887 201.221 353.369V353.896H196.092V352.938H200.047V352.849C200.03 352.544 199.966 352.248 199.856 351.96C199.751 351.672 199.581 351.435 199.349 351.249C199.116 351.063 198.799 350.97 198.396 350.97C198.13 350.97 197.884 351.027 197.66 351.141C197.436 351.251 197.243 351.416 197.083 351.636C196.922 351.856 196.797 352.125 196.708 352.442C196.619 352.76 196.575 353.126 196.575 353.541V353.807C196.575 354.133 196.619 354.44 196.708 354.728C196.801 355.011 196.934 355.261 197.108 355.477C197.286 355.692 197.499 355.862 197.749 355.984C198.003 356.107 198.291 356.168 198.612 356.168C199.027 356.168 199.378 356.084 199.666 355.915C199.954 355.745 200.206 355.519 200.421 355.235L201.132 355.8C200.984 356.025 200.796 356.238 200.567 356.441C200.339 356.645 200.057 356.81 199.723 356.937C199.393 357.063 199.002 357.127 198.549 357.127ZM203.386 350.132L204.89 352.633L206.414 350.132H207.791L205.544 353.521L207.861 357H206.502L204.916 354.423L203.329 357H201.964L204.274 353.521L202.034 350.132H203.386ZM211.917 350.132V351.033H208.204V350.132H211.917ZM209.46 348.462H210.635V355.299C210.635 355.532 210.671 355.707 210.743 355.826C210.815 355.944 210.908 356.022 211.022 356.061C211.136 356.099 211.259 356.118 211.39 356.118C211.487 356.118 211.589 356.109 211.695 356.092C211.805 356.071 211.887 356.054 211.942 356.042L211.949 357C211.856 357.03 211.733 357.057 211.581 357.083C211.432 357.112 211.253 357.127 211.041 357.127C210.753 357.127 210.489 357.07 210.248 356.956C210.006 356.841 209.814 356.651 209.67 356.384C209.53 356.113 209.46 355.75 209.46 355.292V348.462ZM219.369 357.127C218.891 357.127 218.457 357.047 218.068 356.886C217.683 356.721 217.351 356.49 217.071 356.194C216.796 355.898 216.585 355.546 216.437 355.14C216.288 354.734 216.214 354.29 216.214 353.807V353.541C216.214 352.982 216.297 352.485 216.462 352.049C216.627 351.609 216.851 351.236 217.135 350.932C217.418 350.627 217.74 350.396 218.1 350.24C218.459 350.083 218.832 350.005 219.217 350.005C219.708 350.005 220.131 350.09 220.486 350.259C220.846 350.428 221.14 350.665 221.369 350.97C221.597 351.27 221.766 351.626 221.876 352.036C221.986 352.442 222.042 352.887 222.042 353.369V353.896H216.913V352.938H220.867V352.849C220.85 352.544 220.787 352.248 220.677 351.96C220.571 351.672 220.402 351.435 220.169 351.249C219.936 351.063 219.619 350.97 219.217 350.97C218.95 350.97 218.705 351.027 218.48 351.141C218.256 351.251 218.064 351.416 217.903 351.636C217.742 351.856 217.617 352.125 217.528 352.442C217.439 352.76 217.395 353.126 217.395 353.541V353.807C217.395 354.133 217.439 354.44 217.528 354.728C217.621 355.011 217.755 355.261 217.928 355.477C218.106 355.692 218.32 355.862 218.569 355.984C218.823 356.107 219.111 356.168 219.433 356.168C219.847 356.168 220.199 356.084 220.486 355.915C220.774 355.745 221.026 355.519 221.242 355.235L221.953 355.8C221.805 356.025 221.616 356.238 221.388 356.441C221.159 356.645 220.878 356.81 220.543 356.937C220.213 357.063 219.822 357.127 219.369 357.127ZM227.742 355.667V347.25H228.922V357H227.843L227.742 355.667ZM223.121 353.642V353.509C223.121 352.984 223.184 352.508 223.311 352.081C223.442 351.649 223.626 351.279 223.863 350.97C224.104 350.661 224.39 350.424 224.72 350.259C225.055 350.09 225.427 350.005 225.837 350.005C226.269 350.005 226.646 350.081 226.967 350.233C227.293 350.382 227.568 350.599 227.792 350.887C228.021 351.171 228.201 351.514 228.332 351.916C228.463 352.318 228.554 352.772 228.605 353.28V353.864C228.558 354.368 228.467 354.821 228.332 355.223C228.201 355.625 228.021 355.967 227.792 356.251C227.568 356.535 227.293 356.752 226.967 356.905C226.641 357.053 226.261 357.127 225.825 357.127C225.423 357.127 225.055 357.04 224.72 356.867C224.39 356.693 224.104 356.45 223.863 356.137C223.626 355.824 223.442 355.455 223.311 355.032C223.184 354.605 223.121 354.141 223.121 353.642ZM224.301 353.509V353.642C224.301 353.985 224.335 354.306 224.403 354.607C224.475 354.907 224.585 355.172 224.733 355.4C224.881 355.629 225.069 355.809 225.298 355.94C225.526 356.067 225.799 356.13 226.117 356.13C226.506 356.13 226.826 356.048 227.075 355.883C227.329 355.718 227.532 355.5 227.685 355.229C227.837 354.958 227.955 354.664 228.04 354.347V352.817C227.989 352.584 227.915 352.36 227.818 352.144C227.725 351.924 227.602 351.729 227.45 351.56C227.302 351.387 227.118 351.249 226.897 351.147C226.682 351.046 226.426 350.995 226.129 350.995C225.808 350.995 225.531 351.063 225.298 351.198C225.069 351.329 224.881 351.511 224.733 351.744C224.585 351.973 224.475 352.239 224.403 352.544C224.335 352.844 224.301 353.166 224.301 353.509ZM232.026 350.132V357H230.846V350.132H232.026ZM230.757 348.31C230.757 348.12 230.814 347.959 230.928 347.828C231.047 347.696 231.22 347.631 231.449 347.631C231.673 347.631 231.844 347.696 231.963 347.828C232.086 347.959 232.147 348.12 232.147 348.31C232.147 348.492 232.086 348.649 231.963 348.78C231.844 348.907 231.673 348.97 231.449 348.97C231.22 348.97 231.047 348.907 230.928 348.78C230.814 348.649 230.757 348.492 230.757 348.31ZM236.787 350.132V351.033H233.074V350.132H236.787ZM234.331 348.462H235.505V355.299C235.505 355.532 235.541 355.707 235.613 355.826C235.685 355.944 235.778 356.022 235.892 356.061C236.006 356.099 236.129 356.118 236.26 356.118C236.358 356.118 236.459 356.109 236.565 356.092C236.675 356.071 236.757 356.054 236.812 356.042L236.819 357C236.726 357.03 236.603 357.057 236.451 357.083C236.303 357.112 236.123 357.127 235.911 357.127C235.623 357.127 235.359 357.07 235.118 356.956C234.876 356.841 234.684 356.651 234.54 356.384C234.4 356.113 234.331 355.75 234.331 355.292V348.462ZM237.727 353.642V353.496C237.727 353.001 237.799 352.542 237.942 352.119C238.086 351.691 238.294 351.321 238.564 351.008C238.835 350.69 239.163 350.445 239.548 350.271C239.933 350.094 240.365 350.005 240.843 350.005C241.326 350.005 241.759 350.094 242.145 350.271C242.534 350.445 242.864 350.69 243.135 351.008C243.41 351.321 243.619 351.691 243.763 352.119C243.907 352.542 243.979 353.001 243.979 353.496V353.642C243.979 354.137 243.907 354.596 243.763 355.02C243.619 355.443 243.41 355.813 243.135 356.13C242.864 356.444 242.536 356.689 242.151 356.867C241.77 357.04 241.338 357.127 240.856 357.127C240.374 357.127 239.94 357.04 239.555 356.867C239.17 356.689 238.84 356.444 238.564 356.13C238.294 355.813 238.086 355.443 237.942 355.02C237.799 354.596 237.727 354.137 237.727 353.642ZM238.901 353.496V353.642C238.901 353.985 238.941 354.309 239.021 354.613C239.102 354.914 239.222 355.18 239.383 355.413C239.548 355.646 239.754 355.83 239.999 355.965C240.244 356.097 240.53 356.162 240.856 356.162C241.178 356.162 241.459 356.097 241.7 355.965C241.946 355.83 242.149 355.646 242.31 355.413C242.47 355.18 242.591 354.914 242.671 354.613C242.756 354.309 242.798 353.985 242.798 353.642V353.496C242.798 353.158 242.756 352.838 242.671 352.538C242.591 352.233 242.468 351.964 242.303 351.731C242.142 351.494 241.939 351.308 241.694 351.173C241.453 351.037 241.169 350.97 240.843 350.97C240.522 350.97 240.238 351.037 239.993 351.173C239.751 351.308 239.548 351.494 239.383 351.731C239.222 351.964 239.102 352.233 239.021 352.538C238.941 352.838 238.901 353.158 238.901 353.496ZM246.626 351.211V357H245.452V350.132H246.594L246.626 351.211ZM248.771 350.094L248.765 351.186C248.668 351.164 248.575 351.152 248.486 351.147C248.401 351.139 248.304 351.135 248.194 351.135C247.923 351.135 247.684 351.177 247.477 351.262C247.269 351.346 247.094 351.465 246.95 351.617C246.806 351.77 246.692 351.951 246.607 352.163C246.527 352.37 246.474 352.599 246.448 352.849L246.118 353.039C246.118 352.624 246.158 352.235 246.239 351.871C246.323 351.507 246.452 351.186 246.626 350.906C246.799 350.623 247.02 350.403 247.286 350.246C247.557 350.085 247.879 350.005 248.251 350.005C248.336 350.005 248.433 350.015 248.543 350.037C248.653 350.054 248.729 350.073 248.771 350.094ZM249.089 356.378C249.089 356.179 249.15 356.012 249.273 355.876C249.4 355.737 249.582 355.667 249.819 355.667C250.056 355.667 250.236 355.737 250.358 355.876C250.485 356.012 250.549 356.179 250.549 356.378C250.549 356.573 250.485 356.738 250.358 356.873C250.236 357.008 250.056 357.076 249.819 357.076C249.582 357.076 249.4 357.008 249.273 356.873C249.15 356.738 249.089 356.573 249.089 356.378Z" fill="#505050"/>
<rect x="84" y="47" width="24" height="24" rx="12" fill="#286EF1"/>
<path d="M97.1807 53.7261V63H95.6509V55.5415L93.3848 56.3096V55.0464L96.9966 53.7261H97.1807Z" fill="white"/>
<line x1="96.5" y1="71" x2="96.5" y2="95" stroke="#0059FF"/>
<rect x="495" y="83" width="24" height="24" rx="12" fill="#286EF1"/>
<path d="M505.8 93.687H506.714C507.07 93.687 507.364 93.6257 507.597 93.5029C507.834 93.3802 508.009 93.2109 508.124 92.9951C508.238 92.7793 508.295 92.5317 508.295 92.2524C508.295 91.9604 508.242 91.7108 508.136 91.5034C508.035 91.2918 507.878 91.1289 507.667 91.0146C507.459 90.9004 507.195 90.8433 506.873 90.8433C506.602 90.8433 506.357 90.8983 506.137 91.0083C505.921 91.1141 505.75 91.2664 505.623 91.4653C505.496 91.66 505.432 91.8927 505.432 92.1636H503.896C503.896 91.6727 504.025 91.2368 504.283 90.856C504.541 90.4751 504.893 90.1768 505.337 89.9609C505.785 89.7409 506.289 89.6309 506.848 89.6309C507.444 89.6309 507.965 89.7303 508.409 89.9292C508.858 90.1239 509.207 90.4159 509.457 90.8052C509.706 91.1945 509.831 91.6769 509.831 92.2524C509.831 92.5148 509.77 92.7814 509.647 93.0522C509.524 93.3231 509.342 93.5706 509.101 93.7949C508.86 94.015 508.559 94.1948 508.2 94.3345C507.84 94.4699 507.423 94.5376 506.949 94.5376H505.8V93.687ZM505.8 94.8804V94.0425H506.949C507.491 94.0425 507.952 94.106 508.333 94.2329C508.718 94.3599 509.031 94.5355 509.272 94.7598C509.514 94.9798 509.689 95.2316 509.799 95.5151C509.914 95.7987 509.971 96.0991 509.971 96.4165C509.971 96.8481 509.892 97.2332 509.736 97.5718C509.583 97.9061 509.366 98.1896 509.082 98.4224C508.799 98.6551 508.466 98.8307 508.085 98.9492C507.709 99.0677 507.298 99.127 506.854 99.127C506.456 99.127 506.075 99.0719 505.711 98.9619C505.347 98.8519 505.022 98.689 504.734 98.4731C504.446 98.2531 504.218 97.9801 504.048 97.6543C503.883 97.3242 503.801 96.9434 503.801 96.5117H505.331C505.331 96.7868 505.394 97.0301 505.521 97.2417C505.652 97.4491 505.834 97.612 506.067 97.7305C506.304 97.849 506.575 97.9082 506.879 97.9082C507.201 97.9082 507.478 97.8511 507.711 97.7368C507.944 97.6226 508.121 97.4533 508.244 97.229C508.371 97.0047 508.435 96.7339 508.435 96.4165C508.435 96.0568 508.365 95.7648 508.225 95.5405C508.085 95.3162 507.887 95.1512 507.628 95.0454C507.37 94.9354 507.066 94.8804 506.714 94.8804H505.8Z" fill="white"/>
<line x1="507.5" y1="107" x2="507.5" y2="131" stroke="#0059FF"/>
<rect x="33" y="135" width="24" height="24" rx="12" fill="#286EF1"/>
<path d="M48.1992 149.781V151H42.0039V149.953L45.0127 146.671C45.3428 146.299 45.603 145.977 45.7935 145.706C45.9839 145.435 46.1172 145.192 46.1934 144.976C46.2738 144.756 46.314 144.542 46.314 144.335C46.314 144.043 46.259 143.787 46.1489 143.567C46.0431 143.343 45.8866 143.167 45.6792 143.04C45.4718 142.909 45.2201 142.843 44.9238 142.843C44.5811 142.843 44.2933 142.917 44.0605 143.065C43.8278 143.214 43.6522 143.419 43.5337 143.681C43.4152 143.939 43.356 144.236 43.356 144.57H41.8262C41.8262 144.032 41.9489 143.542 42.1943 143.097C42.4398 142.649 42.7952 142.293 43.2607 142.031C43.7262 141.764 44.2869 141.631 44.9429 141.631C45.5607 141.631 46.0854 141.735 46.5171 141.942C46.9487 142.149 47.2767 142.443 47.501 142.824C47.7295 143.205 47.8438 143.656 47.8438 144.176C47.8438 144.464 47.7972 144.75 47.7041 145.033C47.611 145.317 47.4777 145.6 47.3042 145.884C47.1349 146.163 46.9339 146.444 46.7012 146.728C46.4684 147.007 46.2124 147.291 45.9331 147.579L43.9336 149.781H48.1992Z" fill="white"/>
<line x1="57" y1="146.5" x2="81" y2="146.5" stroke="#0059FF"/>
<rect x="33" y="183" width="24" height="24" rx="12" fill="#286EF1"/>
<path d="M48.3706 195.706V196.924H41.7056L41.6548 196.004L45.6411 189.758H46.8662L45.5396 192.03L43.248 195.706H48.3706ZM47.2153 189.758V199H45.6855V189.758H47.2153Z" fill="white"/>
<line x1="57" y1="194.5" x2="81" y2="194.5" stroke="#0059FF"/>
<rect x="33" y="223" width="24" height="24" rx="12" fill="#286EF1"/>
<path d="M43.6099 234.703L42.3911 234.404L42.8926 229.758H47.8755V231.053H44.1621L43.9082 233.319C44.0521 233.234 44.251 233.152 44.5049 233.071C44.7588 232.987 45.0487 232.944 45.3745 232.944C45.8104 232.944 46.1997 233.016 46.5425 233.16C46.8895 233.3 47.1836 233.505 47.4248 233.776C47.666 234.042 47.8501 234.368 47.9771 234.753C48.104 235.134 48.1675 235.564 48.1675 236.042C48.1675 236.469 48.104 236.869 47.9771 237.242C47.8543 237.614 47.6681 237.942 47.4185 238.226C47.1688 238.509 46.8535 238.731 46.4727 238.892C46.096 239.049 45.6496 239.127 45.1333 239.127C44.7482 239.127 44.3779 239.072 44.0225 238.962C43.6712 238.848 43.356 238.681 43.0767 238.46C42.7974 238.236 42.5731 237.961 42.4038 237.635C42.2345 237.305 42.1372 236.926 42.1118 236.499H43.6099C43.6479 236.799 43.7305 237.056 43.8574 237.267C43.9886 237.474 44.1621 237.633 44.3779 237.743C44.5938 237.853 44.8434 237.908 45.127 237.908C45.3851 237.908 45.6073 237.864 45.7935 237.775C45.9797 237.682 46.1341 237.551 46.2568 237.381C46.3838 237.208 46.4769 237.005 46.5361 236.772C46.5996 236.539 46.6313 236.281 46.6313 235.998C46.6313 235.727 46.5954 235.479 46.5234 235.255C46.4557 235.031 46.3521 234.836 46.2124 234.671C46.077 234.506 45.9056 234.379 45.6982 234.29C45.4909 234.197 45.2518 234.15 44.981 234.15C44.617 234.15 44.3377 234.203 44.1431 234.309C43.9526 234.415 43.7749 234.546 43.6099 234.703Z" fill="white"/>
<line x1="57" y1="234.5" x2="81" y2="234.5" stroke="#0059FF"/>
<rect x="33" y="339" width="24" height="24" rx="12" fill="#286EF1"/>
<path d="M46.625 345.701H46.8154V346.951H46.7075C46.1616 346.951 45.6898 347.036 45.292 347.205C44.8984 347.374 44.5747 347.607 44.3208 347.903C44.0669 348.2 43.8765 348.547 43.7495 348.944C43.6268 349.338 43.5654 349.757 43.5654 350.201V351.655C43.5654 352.023 43.6056 352.349 43.686 352.632C43.7664 352.912 43.8786 353.146 44.0225 353.337C44.1706 353.523 44.3398 353.665 44.5303 353.762C44.7207 353.86 44.9259 353.908 45.146 353.908C45.3745 353.908 45.5819 353.862 45.7681 353.769C45.9543 353.671 46.113 353.538 46.2441 353.369C46.3753 353.199 46.4748 352.998 46.5425 352.766C46.6102 352.533 46.644 352.279 46.644 352.004C46.644 351.742 46.6102 351.496 46.5425 351.268C46.479 351.035 46.3838 350.832 46.2568 350.658C46.1299 350.48 45.9712 350.343 45.7808 350.246C45.5946 350.144 45.3787 350.093 45.1333 350.093C44.8286 350.093 44.5514 350.165 44.3018 350.309C44.0563 350.453 43.8574 350.641 43.7051 350.874C43.557 351.103 43.4766 351.346 43.4639 351.604L42.8799 351.414C42.9137 351.02 43.0005 350.667 43.1401 350.354C43.284 350.04 43.4723 349.774 43.7051 349.554C43.9378 349.334 44.2065 349.167 44.5112 349.052C44.8201 348.934 45.1587 348.875 45.5269 348.875C45.9754 348.875 46.3647 348.959 46.6948 349.128C47.0249 349.298 47.2979 349.528 47.5137 349.82C47.7337 350.108 47.8966 350.438 48.0024 350.811C48.1125 351.179 48.1675 351.564 48.1675 351.966C48.1675 352.41 48.0998 352.825 47.9644 353.21C47.8289 353.591 47.63 353.925 47.3677 354.213C47.1095 354.501 46.7943 354.725 46.4219 354.886C46.0537 355.047 45.6348 355.127 45.165 355.127C44.6699 355.127 44.2277 355.032 43.8384 354.841C43.4533 354.651 43.1253 354.389 42.8545 354.054C42.5879 353.72 42.3848 353.335 42.2451 352.899C42.1055 352.463 42.0356 352.002 42.0356 351.515V350.88C42.0356 350.178 42.1245 349.516 42.3022 348.894C42.48 348.267 42.7529 347.715 43.1211 347.237C43.4935 346.759 43.9696 346.384 44.5493 346.113C45.1291 345.838 45.821 345.701 46.625 345.701Z" fill="white"/>
<line x1="57" y1="350.5" x2="81" y2="350.5" stroke="#0059FF"/>
<rect x="0.5" y="0.5" width="639" height="458" rx="15.5" stroke="#E6E6E6"/>
</svg>
