<!-- Generated by IcoMoon.io -->
<svg version="1.1" xmlns="http://www.w3.org/2000/svg" width="24" height="24" viewBox="0 0 24 24">
<title>close-alt</title>
<path d="M22 12c0 5.523-4.477 10-10 10s-10-4.477-10-10c0-5.523 4.477-10 10-10s10 4.477 10 10zM8.913 7.587c-0.366-0.366-0.96-0.366-1.326 0s-0.366 0.96 0 1.326l3.087 3.087-3.087 3.087c-0.366 0.366-0.366 0.96 0 1.326s0.96 0.366 1.326 0l3.087-3.087 3.087 3.087c0.366 0.366 0.96 0.366 1.326 0s0.366-0.96 0-1.326l-3.087-3.087 3.087-3.087c0.366-0.366 0.366-0.96 0-1.326s-0.96-0.366-1.326 0l-3.087 3.087-3.087-3.087z"></path>
</svg>
