<!-- Generated by IcoMoon.io -->
<svg version="1.1" xmlns="http://www.w3.org/2000/svg" width="24" height="24" viewBox="0 0 24 24">
<title>config</title>
<path d="M7.357 7.357h1.429v-0.714c0-0.594 0.478-1.071 1.071-1.071s1.071 0.478 1.071 1.071v0.714h5.714c0.594 0 1.071 0.478 1.071 1.071s-0.478 1.071-1.071 1.071h-5.714v0.714c0 0.594-0.478 1.071-1.071 1.071s-1.071-0.478-1.071-1.071v-0.714h-1.429c-0.594 0-1.071-0.478-1.071-1.071s0.478-1.071 1.071-1.071zM7.357 16.643c-0.594 0-1.071-0.478-1.071-1.071s0.478-1.071 1.071-1.071h5.714v-0.714c0-0.594 0.478-1.071 1.071-1.071s1.071 0.478 1.071 1.071v0.714h1.429c0.594 0 1.071 0.478 1.071 1.071s-0.478 1.071-1.071 1.071h-1.429v0.714c0 0.594-0.478 1.071-1.071 1.071s-1.071-0.478-1.071-1.071v-0.714h-5.714zM2 4.857c0-1.578 1.279-2.857 2.857-2.857h14.286c1.576 0 2.857 1.279 2.857 2.857v14.286c0 1.576-1.281 2.857-2.857 2.857h-14.286c-1.578 0-2.857-1.281-2.857-2.857v-14.286zM4.857 19.857h14.286c0.393 0 0.714-0.321 0.714-0.714v-14.286c0-0.395-0.321-0.714-0.714-0.714h-14.286c-0.395 0-0.714 0.32-0.714 0.714v14.286c0 0.393 0.32 0.714 0.714 0.714z"></path>
</svg>
