<!-- Generated by IcoMoon.io -->
<svg version="1.1" xmlns="http://www.w3.org/2000/svg" width="24" height="24" viewBox="0 0 24 24">
<title>edit</title>
<path d="M19.119 5.043c0.417 0.446 0.625 0.974 0.625 1.585s-0.208 1.139-0.625 1.585l-1.701 1.726-4.513-4.579 1.701-1.726c0.44-0.423 0.96-0.634 1.562-0.634s1.122 0.211 1.562 0.634l1.389 1.409zM4.053 14.376l8.088-8.242 4.513 4.579-8.088 8.206c-0.37 0.376-0.81 0.646-1.319 0.81l-4.166 1.233c-0.324 0.094-0.602 0.012-0.833-0.246-0.231-0.211-0.301-0.481-0.208-0.81l1.215-4.226c0.162-0.517 0.428-0.951 0.798-1.303zM21.167 19.307c0.509 0.047 0.787 0.329 0.833 0.845-0.046 0.516-0.324 0.798-0.833 0.845h-10.553c-0.509-0.047-0.787-0.329-0.833-0.845 0.046-0.517 0.324-0.798 0.833-0.845h10.553z"></path>
</svg>
