<!-- Generated by IcoMoon.io -->
<svg version="1.1" xmlns="http://www.w3.org/2000/svg" width="24" height="24" viewBox="0 0 24 24">
<title>email</title>
<path d="M2 7c0-1.381 1.119-2.5 2.5-2.5h15c1.379 0 2.5 1.119 2.5 2.5v10c0 1.379-1.121 2.5-2.5 2.5h-15c-1.381 0-2.5-1.121-2.5-2.5v-10zM3.875 7v0.863l6.738 5.531c0.805 0.664 1.969 0.664 2.773 0l6.738-5.531v-0.898c0-0.309-0.281-0.625-0.625-0.625h-15c-0.345 0-0.625 0.316-0.625 0.625v0.035zM3.875 10.289v6.711c0 0.344 0.28 0.625 0.625 0.625h15c0.344 0 0.625-0.281 0.625-0.625v-6.711l-5.547 4.555c-1.5 1.23-3.656 1.23-5.191 0l-5.512-4.555z"></path>
</svg>
