<!-- Generated by IcoMoon.io -->
<svg version="1.1" xmlns="http://www.w3.org/2000/svg" width="24" height="24" viewBox="0 0 24 24">
<title>exit</title>
<path d="M9.503 20.036c0 0.534-0.418 0.964-0.938 0.964h-2.814c-2.072 0-3.751-1.727-3.751-3.857v-10.286c0-2.13 1.68-3.857 3.751-3.857h2.814c0.52 0 0.938 0.432 0.938 0.964s-0.418 0.964-0.938 0.964h-2.814c-1.032 0-1.876 0.868-1.876 1.929v10.286c0 1.061 0.844 1.929 1.876 1.929h2.814c0.52 0 0.938 0.43 0.938 0.964zM21.753 11.341l-4.967-5.464c-0.355-0.389-0.949-0.407-1.325-0.041-0.377 0.364-0.396 0.974-0.040 1.362l3.475 3.838h-9.742c-0.485 0-0.903 0.434-0.903 0.964s0.42 0.964 0.903 0.964h9.707l-3.514 3.84c-0.355 0.388-0.337 0.998 0.040 1.362 0.218 0.174 0.449 0.262 0.644 0.262 0.249 0 0.498-0.102 0.683-0.304l4.967-5.464c0.411-0.371 0.411-0.95 0.072-1.319z"></path>
</svg>
