<!-- Generated by IcoMoon.io -->
<svg version="1.1" xmlns="http://www.w3.org/2000/svg" width="24" height="24" viewBox="0 0 24 24">
<title>file-zip</title>
<path d="M19.221 5.648l-3.11-2.916c-0.503-0.469-1.182-0.732-1.886-0.732h-7.558c-1.473 0-2.667 1.119-2.667 2.5l0 15c0 1.38 1.194 2.5 2.667 2.5h10.666c1.467 0 2.667-1.125 2.667-2.5v-12.086c0-0.66-0.279-1.297-0.779-1.766zM18 19.5c0 0.345-0.299 0.625-0.667 0.625h-10.666c-0.368 0-0.667-0.28-0.667-0.625l-0.001-14.995c0-0.345 0.299-0.625 0.667-0.625h2v0.62h2.667v-0.62h2l-0 3.12c0 0.69 0.597 1.25 1.333 1.25h3.296v11.25h0.038zM11.333 5.75h-2.667v1.25h2.667v-1.25zM11.333 8.25h-2.667v1.25h2.667v-1.25zM11.333 10.75h-2.667l-1.273 4.551c-0.33 1.523 0.927 2.949 2.619 2.949 1.677 0 2.935-1.418 2.612-2.936l-1.291-4.565zM10.667 16.375h-1.333c-0.368 0-0.667-0.28-0.667-0.625s0.299-0.625 0.667-0.625h1.333c0.368 0 0.667 0.28 0.667 0.625s-0.3 0.625-0.667 0.625z"></path>
</svg>
