<!-- Generated by IcoMoon.io -->
<svg version="1.1" xmlns="http://www.w3.org/2000/svg" width="24" height="24" viewBox="0 0 24 24">
<title>lifesaver</title>
<path d="M20.129 18.836c0.398 0.367 0.398 0.961 0 1.293-0.332 0.398-0.926 0.398-1.293 0l-0.457-0.426c-1.734 1.434-3.953 2.297-6.379 2.297s-4.645-0.863-6.377-2.297l-0.46 0.426c-0.366 0.398-0.96 0.398-1.326 0-0.366-0.332-0.366-0.926 0-1.293l0.46-0.457c-1.434-1.734-2.297-3.953-2.297-6.379s0.862-4.645 2.297-6.377l-0.46-0.46c-0.366-0.366-0.366-0.96 0-1.326s0.96-0.366 1.326 0l0.46 0.46c1.733-1.434 3.952-2.297 6.377-2.297s4.644 0.862 6.379 2.297l0.457-0.46c0.367-0.366 0.961-0.366 1.293 0 0.398 0.366 0.398 0.96 0 1.326l-0.426 0.46c1.434 1.733 2.297 3.952 2.297 6.377s-0.863 4.644-2.297 6.379l0.426 0.457zM13.906 15.231c-0.558 0.332-1.211 0.519-1.906 0.519s-1.348-0.188-1.906-0.519l-3.137 3.141c1.383 1.098 3.137 1.754 5.043 1.754s3.66-0.656 5.043-1.754l-3.137-3.141zM20.125 12c0-1.906-0.656-3.66-1.754-5.043l-3.141 3.137c0.332 0.558 0.519 1.211 0.519 1.906s-0.188 1.348-0.519 1.906l3.141 3.137c1.098-1.383 1.754-3.137 1.754-5.043zM12 3.875c-1.906 0-3.66 0.656-5.043 1.755l3.137 3.139c0.558-0.332 1.211-0.52 1.906-0.52s1.348 0.188 1.906 0.52l3.137-3.139c-1.383-1.099-3.137-1.755-5.043-1.755zM8.77 13.906c-0.332-0.558-0.52-1.211-0.52-1.906s0.188-1.348 0.52-1.906l-3.139-3.137c-1.099 1.383-1.755 3.137-1.755 5.043s0.656 3.66 1.755 5.043l3.139-3.137zM12 10.125c-1.035 0-1.875 0.84-1.875 1.875s0.84 1.875 1.875 1.875c1.035 0 1.875-0.84 1.875-1.875s-0.84-1.875-1.875-1.875z"></path>
</svg>
