<!-- Generated by IcoMoon.io -->
<svg version="1.1" xmlns="http://www.w3.org/2000/svg" width="24" height="24" viewBox="0 0 24 24">
<title>like</title>
<path d="M5.75 9.461h-2.5c-0.69 0-1.25 0.561-1.25 1.216v8.727c0 0.691 0.56 1.216 1.25 1.216h2.5c0.69 0 1.25-0.561 1.25-1.216v-8.691c0-0.657-0.559-1.252-1.25-1.252zM22 10.865c0-1.443-1.174-2.618-2.616-2.618h-3.901c0.372-0.977 0.579-1.822 0.579-2.319 0-1.322-1.023-2.69-2.737-2.69-1.821 0-2.319 1.269-2.719 2.288-1.237 3.149-2.357 2.597-2.357 3.656 0 0.502 0.405 0.938 0.938 0.938 0.205 0 0.412-0.067 0.585-0.206 2.998-2.4 2.264-4.799 3.553-4.799 0.628 0 0.862 0.499 0.862 0.813 0 0.29-0.297 1.547-0.998 2.8-0.080 0.143-0.12 0.301-0.12 0.458 0 0.544 0.447 0.904 0.938 0.904h5.375c0.411 0.034 0.743 0.367 0.743 0.774 0 0.384-0.303 0.705-0.69 0.732-0.495 0.034-0.873 0.446-0.873 0.936 0 0.605 0.445 0.624 0.445 1.131 0 0.992-1.368 0.483-1.368 1.649 0 0.439 0.25 0.51 0.25 0.87 0 0.886-1.163 0.538-1.163 1.59 0 0.177 0.043 0.233 0.043 0.37 0 0.409-0.333 0.741-0.741 0.741h-2.052c-1.001 0-1.993-0.331-2.793-0.931l-1.432-1.076c-0.169-0.127-0.366-0.188-0.562-0.188-0.541 0-0.939 0.445-0.939 0.94 0 0.285 0.129 0.564 0.375 0.748l1.432 1.077c1.123 0.842 2.513 1.308 3.92 1.308h2.052c1.38 0 2.514-1.075 2.609-2.433 0.694-0.478 1.126-1.272 1.126-2.145 0-0.119-0.009-0.239-0.025-0.357 0.697-0.475 1.144-1.274 1.144-2.162 0-0.208-0.025-0.412-0.073-0.612 0.718-0.502 1.191-1.28 1.191-2.188z"></path>
</svg>
