<!-- Generated by IcoMoon.io -->
<svg version="1.1" xmlns="http://www.w3.org/2000/svg" width="24" height="24" viewBox="0 0 24 24">
<title>logo</title>
<path d="M3.5 12c0-4.695 3.806-8.5 8.5-8.5s8.5 3.806 8.5 8.5c0 4.695-3.806 8.5-8.5 8.5s-8.5-3.806-8.5-8.5zM12 2c-5.523 0-10 4.477-10 10s4.477 10 10 10c5.523 0 10-4.477 10-10s-4.477-10-10-10zM14.688 16.518c0.289 0.146 0.609 0.221 0.933 0.221s0.644-0.075 0.934-0.221c0.295-0.147 0.541-0.376 0.707-0.661 0.176-0.293 0.267-0.628 0.264-0.97v-7.626h-1.364v7.626c0 0.065-0.012 0.129-0.038 0.189s-0.064 0.113-0.111 0.157c-0.109 0.095-0.249 0.148-0.393 0.148s-0.284-0.053-0.393-0.148c-0.047-0.045-0.085-0.098-0.11-0.158s-0.038-0.124-0.038-0.189v-5.775c0.007-0.245-0.037-0.488-0.128-0.715s-0.227-0.433-0.401-0.606c-0.359-0.339-0.835-0.529-1.329-0.529s-0.97 0.189-1.329 0.529c-0.174 0.173-0.31 0.379-0.401 0.606s-0.134 0.471-0.128 0.715v5.775c0 0.065-0.013 0.129-0.039 0.189s-0.063 0.113-0.111 0.158c-0.109 0.095-0.248 0.148-0.393 0.148s-0.284-0.053-0.393-0.148c-0.048-0.044-0.085-0.098-0.111-0.157s-0.039-0.124-0.038-0.189v-5.775c0.005-0.245-0.039-0.489-0.131-0.716s-0.229-0.434-0.402-0.607c-0.174-0.173-0.381-0.309-0.609-0.399s-0.472-0.134-0.717-0.127c-0.51-0.009-1.003 0.181-1.376 0.529-0.186 0.165-0.334 0.369-0.433 0.597s-0.148 0.475-0.143 0.724v7.626h1.353v-7.626c-0-0.065 0.013-0.129 0.039-0.189s0.063-0.113 0.111-0.158c0.052-0.051 0.114-0.091 0.183-0.116s0.141-0.036 0.214-0.032c0.073-0.004 0.145 0.007 0.214 0.033s0.13 0.065 0.183 0.115c0.047 0.044 0.085 0.098 0.11 0.158s0.038 0.124 0.038 0.189v5.775c-0.005 0.245 0.039 0.489 0.131 0.717s0.229 0.434 0.403 0.607c0.174 0.173 0.381 0.309 0.609 0.399s0.472 0.134 0.717 0.127c0.51 0.008 1.003-0.181 1.376-0.529 0.186-0.166 0.333-0.37 0.432-0.598s0.149-0.475 0.144-0.724v-5.775c0.002-0.097 0.032-0.191 0.087-0.272s0.132-0.142 0.222-0.179c0.090-0.037 0.189-0.047 0.284-0.028s0.183 0.065 0.252 0.133c0.047 0.044 0.085 0.098 0.111 0.158s0.039 0.124 0.039 0.189v5.775c-0.004 0.342 0.088 0.678 0.264 0.97 0.166 0.285 0.412 0.514 0.707 0.661z"></path>
</svg>
