<!-- Generated by IcoMoon.io -->
<svg version="1.1" xmlns="http://www.w3.org/2000/svg" width="24" height="24" viewBox="0 0 24 24">
<title>plugin</title>
<path d="M8.25 2c0.52 0 0.938 0.42 0.938 0.938v3.438h-1.875v-3.438c0-0.518 0.42-0.938 0.938-0.938zM15.75 2c0.519 0 0.938 0.42 0.938 0.938v3.438h-1.875v-3.438c0-0.518 0.418-0.938 0.938-0.938zM18.563 7.625c0.519 0 0.938 0.418 0.938 0.938s-0.418 0.938-0.938 0.938h-0.312v2.5c0 3.133-2.34 5.727-5.313 6.18v3.82h-1.875v-3.82c-3.007-0.453-5.313-3.047-5.313-6.18v-2.5h-0.312c-0.518 0-0.938-0.418-0.938-0.938s0.42-0.937 0.938-0.937h13.125zM12 16.375c2.418 0 4.375-1.957 4.375-4.375v-2.5h-8.75v2.5c0 2.418 1.957 4.375 4.375 4.375z"></path>
</svg>
