<!-- Generated by IcoMoon.io -->
<svg version="1.1" xmlns="http://www.w3.org/2000/svg" width="24" height="24" viewBox="0 0 24 24">
<title>plugin-ivt</title>
<path d="M22 12c0 1.807-0.467 3.489-1.402 5.047-0.872 1.495-2.087 2.71-3.645 3.645-1.495 0.872-3.146 1.308-4.953 1.308s-3.489-0.436-5.047-1.308c-1.495-0.935-2.71-2.149-3.645-3.645-0.872-1.558-1.308-3.24-1.308-5.047s0.436-3.458 1.308-4.953c0.935-1.558 2.15-2.773 3.645-3.645 1.558-0.935 3.24-1.402 5.047-1.402s3.458 0.467 4.953 1.402c1.558 0.872 2.773 2.087 3.645 3.645 0.935 1.495 1.402 3.146 1.402 4.953zM19.944 12c0-1.495-0.405-2.866-1.215-4.112-0.748-1.308-1.807-2.305-3.178-2.991-1.308-0.685-2.71-0.966-4.206-0.841s-2.866 0.623-4.112 1.495l12.71 7.383v-0.935zM12 19.944c1.62 0 3.115-0.436 4.486-1.308 1.371-0.935 2.368-2.181 2.991-3.738l-2.804-1.589-9.159 5.234c1.308 0.934 2.804 1.402 4.486 1.402zM5.925 17.14l3.084-1.776v-6.449l-3.271-1.869c-1.122 1.433-1.682 3.084-1.682 4.953 0 0.935 0.156 1.869 0.467 2.804 0.312 0.872 0.779 1.651 1.402 2.337zM10.972 14.243l3.738-2.056-3.738-2.149v4.206z"></path>
</svg>
