<!-- Generated by IcoMoon.io -->
<svg version="1.1" xmlns="http://www.w3.org/2000/svg" width="24" height="24" viewBox="0 0 24 24">
<title>stop</title>
<path d="M14.531 8.625h-5.062c-0.464 0-0.844 0.38-0.844 0.844v5.062c0 0.464 0.38 0.844 0.844 0.844h5.062c0.464 0 0.844-0.38 0.844-0.844v-5.062c0-0.464-0.38-0.844-0.844-0.844zM12 3c-4.971 0-9 4.029-9 9s4.029 9 9 9c4.971 0 9-4.029 9-9s-4.029-9-9-9zM12 19.313c-4.032 0-7.313-3.28-7.313-7.313s3.28-7.313 7.313-7.313 7.313 3.28 7.313 7.313c0 4.032-3.28 7.313-7.313 7.313z"></path>
</svg>
