<!-- Generated by IcoMoon.io -->
<svg version="1.1" xmlns="http://www.w3.org/2000/svg" width="24" height="24" viewBox="0 0 24 24">
<title>user</title>
<path d="M13.714 13.688h-3.429c-3.471 0-6.286 2.77-6.286 6.188 0 0.621 0.512 1.125 1.143 1.125h13.714c0.631 0 1.143-0.504 1.143-1.125 0-3.417-2.814-6.188-6.286-6.188zM5.75 19.313c0.282-2.218 2.208-3.938 4.536-3.938h3.429c2.327 0 4.254 1.721 4.536 3.938h-12.5zM12 12c2.525 0 4.571-2.015 4.571-4.5s-2.047-4.5-4.571-4.5c-2.525 0-4.571 2.015-4.571 4.5s2.046 4.5 4.571 4.5zM12 4.688c1.575 0 2.857 1.262 2.857 2.813s-1.282 2.813-2.857 2.813c-1.575 0-2.857-1.262-2.857-2.813s1.282-2.813 2.857-2.813z"></path>
</svg>
