<svg width="1424" height="211" viewBox="0 0 1424 211" fill="none" xmlns="http://www.w3.org/2000/svg">
<rect width="1424" height="211" rx="4" fill="#F8F8F8"/>
<rect width="1376" height="163" transform="translate(24 24)" fill="white"/>
<path d="M631.023 60.7578H632.21L635.238 68.2925L638.259 60.7578H639.453L635.695 70H634.768L631.023 60.7578ZM630.636 60.7578H631.683L631.854 66.3945V70H630.636V60.7578ZM638.786 60.7578H639.833V70H638.615V66.3945L638.786 60.7578ZM645.857 68.8257V65.29C645.857 65.0192 645.802 64.7843 645.692 64.5854C645.587 64.3823 645.426 64.2257 645.21 64.1157C644.994 64.0057 644.728 63.9507 644.41 63.9507C644.114 63.9507 643.854 64.0015 643.629 64.103C643.409 64.2046 643.236 64.3379 643.109 64.5029C642.986 64.668 642.925 64.8457 642.925 65.0361H641.75C641.75 64.7907 641.814 64.5474 641.941 64.3062C642.068 64.0649 642.25 63.847 642.487 63.6523C642.728 63.4535 643.016 63.2969 643.35 63.1826C643.689 63.0641 644.065 63.0049 644.48 63.0049C644.979 63.0049 645.419 63.0895 645.8 63.2588C646.185 63.4281 646.486 63.6841 646.702 64.0269C646.922 64.3654 647.032 64.7907 647.032 65.3027V68.502C647.032 68.7305 647.051 68.9738 647.089 69.2319C647.131 69.4901 647.193 69.7122 647.273 69.8984V70H646.048C645.989 69.8646 645.942 69.6847 645.908 69.4604C645.874 69.2319 645.857 69.0203 645.857 68.8257ZM646.061 65.8359L646.073 66.6611H644.886C644.552 66.6611 644.254 66.6886 643.991 66.7437C643.729 66.7944 643.509 66.8727 643.331 66.9785C643.153 67.0843 643.018 67.2176 642.925 67.3784C642.832 67.535 642.785 67.7191 642.785 67.9307C642.785 68.1465 642.834 68.3433 642.931 68.521C643.028 68.6987 643.174 68.8405 643.369 68.9463C643.568 69.0479 643.811 69.0986 644.099 69.0986C644.459 69.0986 644.776 69.0225 645.051 68.8701C645.326 68.7178 645.544 68.5316 645.705 68.3115C645.87 68.0915 645.959 67.8778 645.972 67.6704L646.473 68.2354C646.444 68.4131 646.363 68.6099 646.232 68.8257C646.101 69.0415 645.925 69.2489 645.705 69.4478C645.489 69.6424 645.231 69.8053 644.931 69.9365C644.634 70.0635 644.3 70.127 643.928 70.127C643.462 70.127 643.054 70.036 642.703 69.854C642.356 69.672 642.085 69.4287 641.89 69.124C641.7 68.8151 641.604 68.4702 641.604 68.0894C641.604 67.7212 641.676 67.3975 641.82 67.1182C641.964 66.8346 642.172 66.5998 642.442 66.4136C642.713 66.2231 643.039 66.0793 643.42 65.9819C643.801 65.8846 644.226 65.8359 644.696 65.8359H646.061ZM653.208 68.667V60.25H654.389V70H653.31L653.208 68.667ZM648.587 66.6421V66.5088C648.587 65.984 648.65 65.508 648.777 65.0806C648.909 64.6489 649.093 64.2786 649.33 63.9697C649.571 63.6608 649.856 63.4238 650.187 63.2588C650.521 63.0895 650.893 63.0049 651.304 63.0049C651.735 63.0049 652.112 63.0811 652.434 63.2334C652.759 63.3815 653.035 63.5994 653.259 63.8872C653.487 64.1707 653.667 64.5135 653.798 64.9155C653.93 65.3175 654.021 65.7725 654.071 66.2803V66.8643C654.025 67.3678 653.934 67.8206 653.798 68.2227C653.667 68.6247 653.487 68.9674 653.259 69.251C653.035 69.5345 652.759 69.7524 652.434 69.9048C652.108 70.0529 651.727 70.127 651.291 70.127C650.889 70.127 650.521 70.0402 650.187 69.8667C649.856 69.6932 649.571 69.4499 649.33 69.1367C649.093 68.8236 648.909 68.4554 648.777 68.0322C648.65 67.6048 648.587 67.1414 648.587 66.6421ZM649.768 66.5088V66.6421C649.768 66.9849 649.801 67.3065 649.869 67.6069C649.941 67.9074 650.051 68.1719 650.199 68.4004C650.347 68.6289 650.536 68.8088 650.764 68.9399C650.993 69.0669 651.266 69.1304 651.583 69.1304C651.972 69.1304 652.292 69.0479 652.542 68.8828C652.795 68.7178 652.999 68.4998 653.151 68.229C653.303 67.9582 653.422 67.6641 653.506 67.3467V65.8169C653.456 65.5841 653.382 65.3599 653.284 65.144C653.191 64.924 653.068 64.7293 652.916 64.5601C652.768 64.3866 652.584 64.249 652.364 64.1475C652.148 64.0459 651.892 63.9951 651.596 63.9951C651.274 63.9951 650.997 64.0628 650.764 64.1982C650.536 64.3294 650.347 64.5114 650.199 64.7441C650.051 64.9727 649.941 65.2393 649.869 65.5439C649.801 65.8444 649.768 66.166 649.768 66.5088ZM659.067 70.127C658.589 70.127 658.155 70.0465 657.766 69.8857C657.381 69.7207 657.048 69.4901 656.769 69.1938C656.494 68.8976 656.282 68.5464 656.134 68.1401C655.986 67.7339 655.912 67.2896 655.912 66.8071V66.5405C655.912 65.9819 655.995 65.4847 656.16 65.0488C656.325 64.6087 656.549 64.2363 656.833 63.9316C657.116 63.627 657.438 63.3963 657.797 63.2397C658.157 63.0832 658.529 63.0049 658.915 63.0049C659.405 63.0049 659.829 63.0895 660.184 63.2588C660.544 63.4281 660.838 63.665 661.066 63.9697C661.295 64.2702 661.464 64.6257 661.574 65.0361C661.684 65.4424 661.739 65.8867 661.739 66.3691V66.896H656.61V65.9375H660.565V65.8486C660.548 65.5439 660.485 65.2477 660.375 64.96C660.269 64.6722 660.099 64.4352 659.867 64.249C659.634 64.0628 659.317 63.9697 658.915 63.9697C658.648 63.9697 658.403 64.0269 658.178 64.1411C657.954 64.2511 657.761 64.4162 657.601 64.6362C657.44 64.8563 657.315 65.125 657.226 65.4424C657.137 65.7598 657.093 66.1258 657.093 66.5405V66.8071C657.093 67.133 657.137 67.4398 657.226 67.7275C657.319 68.0111 657.452 68.2607 657.626 68.4766C657.804 68.6924 658.017 68.8617 658.267 68.9844C658.521 69.1071 658.809 69.1685 659.13 69.1685C659.545 69.1685 659.896 69.0838 660.184 68.9146C660.472 68.7453 660.724 68.5189 660.939 68.2354L661.65 68.8003C661.502 69.0246 661.314 69.2383 661.085 69.4414C660.857 69.6445 660.576 69.8096 660.241 69.9365C659.911 70.0635 659.52 70.127 659.067 70.127ZM668.074 68.7812L669.839 63.1318H670.613L670.461 64.2554L668.665 70H667.909L668.074 68.7812ZM666.887 63.1318L668.392 68.8447L668.5 70H667.706L665.713 63.1318H666.887ZM672.302 68.8003L673.736 63.1318H674.904L672.911 70H672.124L672.302 68.8003ZM670.785 63.1318L672.511 68.686L672.708 70H671.959L670.112 64.2427L669.959 63.1318H670.785ZM677.386 63.1318V70H676.206V63.1318H677.386ZM676.117 61.3101C676.117 61.1196 676.174 60.9588 676.288 60.8276C676.407 60.6965 676.58 60.6309 676.809 60.6309C677.033 60.6309 677.204 60.6965 677.323 60.8276C677.445 60.9588 677.507 61.1196 677.507 61.3101C677.507 61.492 677.445 61.6486 677.323 61.7798C677.204 61.9067 677.033 61.9702 676.809 61.9702C676.58 61.9702 676.407 61.9067 676.288 61.7798C676.174 61.6486 676.117 61.492 676.117 61.3101ZM682.147 63.1318V64.0332H678.434V63.1318H682.147ZM679.69 61.4624H680.865V68.2988C680.865 68.5316 680.901 68.7072 680.973 68.8257C681.045 68.9442 681.138 69.0225 681.252 69.0605C681.366 69.0986 681.489 69.1177 681.62 69.1177C681.717 69.1177 681.819 69.1092 681.925 69.0923C682.035 69.0711 682.117 69.0542 682.172 69.0415L682.179 70C682.086 70.0296 681.963 70.0571 681.811 70.0825C681.662 70.1121 681.483 70.127 681.271 70.127C680.983 70.127 680.719 70.0698 680.478 69.9556C680.236 69.8413 680.044 69.6509 679.9 69.3843C679.76 69.1134 679.69 68.7495 679.69 68.2925V61.4624ZM684.699 60.25V70H683.524V60.25H684.699ZM684.419 66.3057L683.931 66.2866C683.935 65.8169 684.005 65.3831 684.14 64.9854C684.276 64.5833 684.466 64.2342 684.711 63.938C684.957 63.6418 685.249 63.4132 685.587 63.2524C685.93 63.0874 686.309 63.0049 686.724 63.0049C687.062 63.0049 687.367 63.0514 687.638 63.1445C687.909 63.2334 688.139 63.3773 688.33 63.5762C688.524 63.7751 688.672 64.0332 688.774 64.3506C688.875 64.6637 688.926 65.0467 688.926 65.4995V70H687.746V65.4868C687.746 65.1271 687.693 64.8394 687.587 64.6235C687.481 64.4035 687.327 64.2448 687.124 64.1475C686.92 64.0459 686.671 63.9951 686.375 63.9951C686.083 63.9951 685.816 64.0565 685.575 64.1792C685.338 64.3019 685.132 64.4712 684.959 64.687C684.79 64.9028 684.656 65.1504 684.559 65.4297C684.466 65.7048 684.419 65.9967 684.419 66.3057ZM694.665 63.4746V63.3477C694.665 61.5703 695.934 60.0469 697.686 59.7676C698.829 59.5645 700.022 59.9453 700.86 60.7832L701.165 61.0625L701.444 60.7832C702.282 59.9453 703.475 59.5645 704.618 59.7676C706.37 60.0469 707.665 61.5703 707.665 63.3477V63.4746C707.665 64.541 707.208 65.5566 706.446 66.2676L701.85 70.5586C701.672 70.7363 701.418 70.8125 701.165 70.8125C700.885 70.8125 700.631 70.7363 700.454 70.5586L695.858 66.2676C695.096 65.5566 694.665 64.541 694.665 63.4746ZM711.778 60.25H712.958V68.667L712.857 70H711.778V60.25ZM717.599 66.5088V66.6421C717.599 67.1414 717.539 67.6048 717.421 68.0322C717.302 68.4554 717.129 68.8236 716.9 69.1367C716.672 69.4499 716.393 69.6932 716.062 69.8667C715.732 70.0402 715.354 70.127 714.926 70.127C714.49 70.127 714.107 70.0529 713.777 69.9048C713.451 69.7524 713.176 69.5345 712.952 69.251C712.728 68.9674 712.548 68.6247 712.413 68.2227C712.281 67.8206 712.19 67.3678 712.14 66.8643V66.2803C712.19 65.7725 712.281 65.3175 712.413 64.9155C712.548 64.5135 712.728 64.1707 712.952 63.8872C713.176 63.5994 713.451 63.3815 713.777 63.2334C714.103 63.0811 714.482 63.0049 714.914 63.0049C715.345 63.0049 715.728 63.0895 716.062 63.2588C716.397 63.4238 716.676 63.6608 716.9 63.9697C717.129 64.2786 717.302 64.6489 717.421 65.0806C717.539 65.508 717.599 65.984 717.599 66.5088ZM716.418 66.6421V66.5088C716.418 66.166 716.386 65.8444 716.323 65.5439C716.259 65.2393 716.158 64.9727 716.018 64.7441C715.878 64.5114 715.694 64.3294 715.466 64.1982C715.237 64.0628 714.956 63.9951 714.622 63.9951C714.325 63.9951 714.067 64.0459 713.847 64.1475C713.631 64.249 713.447 64.3866 713.295 64.5601C713.143 64.7293 713.018 64.924 712.92 65.144C712.827 65.3599 712.757 65.5841 712.711 65.8169V67.3467C712.779 67.6429 712.889 67.9285 713.041 68.2036C713.198 68.4744 713.405 68.6966 713.663 68.8701C713.925 69.0436 714.249 69.1304 714.634 69.1304C714.952 69.1304 715.222 69.0669 715.447 68.9399C715.675 68.8088 715.859 68.6289 715.999 68.4004C716.143 68.1719 716.249 67.9074 716.316 67.6069C716.384 67.3065 716.418 66.9849 716.418 66.6421ZM720.938 69.2891L722.848 63.1318H724.105L721.35 71.0601C721.287 71.2293 721.202 71.4113 721.096 71.606C720.995 71.8049 720.863 71.9932 720.703 72.1709C720.542 72.3486 720.347 72.4925 720.119 72.6025C719.894 72.7168 719.626 72.7739 719.312 72.7739C719.219 72.7739 719.101 72.7612 718.957 72.7358C718.813 72.7104 718.712 72.6893 718.652 72.6724L718.646 71.7202C718.68 71.7244 718.733 71.7287 718.805 71.7329C718.881 71.7414 718.934 71.7456 718.963 71.7456C719.23 71.7456 719.456 71.7096 719.643 71.6377C719.829 71.57 719.985 71.4536 720.112 71.2886C720.243 71.1278 720.356 70.9056 720.449 70.6221L720.938 69.2891ZM719.535 63.1318L721.318 68.4639L721.623 69.7017L720.779 70.1333L718.252 63.1318H719.535ZM730.999 67.207L732.833 60.7578H733.722L733.208 63.2651L731.233 70H730.351L730.999 67.207ZM729.101 60.7578L730.561 67.0801L730.999 70H730.123L727.882 60.7578H729.101ZM736.096 67.0737L737.524 60.7578H738.749L736.515 70H735.639L736.096 67.0737ZM733.855 60.7578L735.639 67.207L736.286 70H735.404L733.5 63.2651L732.979 60.7578H733.855ZM743.516 66.3755H741.047V65.3789H743.516C743.994 65.3789 744.382 65.3027 744.678 65.1504C744.974 64.998 745.19 64.7865 745.325 64.5156C745.465 64.2448 745.535 63.9359 745.535 63.5889C745.535 63.2715 745.465 62.9731 745.325 62.6938C745.19 62.4146 744.974 62.1903 744.678 62.021C744.382 61.8475 743.994 61.7607 743.516 61.7607H741.333V70H740.107V60.7578H743.516C744.214 60.7578 744.805 60.8784 745.287 61.1196C745.77 61.3608 746.136 61.6951 746.385 62.1226C746.635 62.5457 746.76 63.0303 746.76 63.5762C746.76 64.1686 746.635 64.6743 746.385 65.0933C746.136 65.5122 745.77 65.8317 745.287 66.0518C744.805 66.2676 744.214 66.3755 743.516 66.3755ZM748.696 60.7578H749.883L752.911 68.2925L755.932 60.7578H757.125L753.368 70H752.441L748.696 60.7578ZM748.309 60.7578H749.356L749.527 66.3945V70H748.309V60.7578ZM756.459 60.7578H757.506V70H756.288V66.3945L756.459 60.7578ZM764.946 60.7578H766.165V67.0103C766.165 67.7043 766.01 68.2819 765.701 68.7432C765.392 69.2044 764.982 69.5514 764.47 69.7842C763.962 70.0127 763.41 70.127 762.813 70.127C762.187 70.127 761.62 70.0127 761.112 69.7842C760.608 69.5514 760.208 69.2044 759.912 68.7432C759.62 68.2819 759.474 67.7043 759.474 67.0103V60.7578H760.687V67.0103C760.687 67.4927 760.775 67.8905 760.953 68.2036C761.131 68.5168 761.378 68.7495 761.696 68.9019C762.017 69.0542 762.39 69.1304 762.813 69.1304C763.24 69.1304 763.613 69.0542 763.93 68.9019C764.252 68.7495 764.501 68.5168 764.679 68.2036C764.857 67.8905 764.946 67.4927 764.946 67.0103V60.7578ZM773.813 70H771.884L771.896 69.0034H773.813C774.474 69.0034 775.024 68.8659 775.464 68.5908C775.904 68.3115 776.234 67.9222 776.454 67.4229C776.678 66.9193 776.791 66.3311 776.791 65.6582V65.0933C776.791 64.5643 776.727 64.0946 776.6 63.6841C776.473 63.2694 776.287 62.9202 776.042 62.6367C775.796 62.349 775.496 62.131 775.14 61.9829C774.789 61.8348 774.385 61.7607 773.928 61.7607H771.846V60.7578H773.928C774.533 60.7578 775.085 60.8594 775.584 61.0625C776.084 61.2614 776.513 61.5513 776.873 61.9321C777.237 62.3088 777.516 62.7658 777.711 63.3032C777.906 63.8364 778.003 64.4373 778.003 65.106V65.6582C778.003 66.3268 777.906 66.9299 777.711 67.4673C777.516 68.0005 777.235 68.4554 776.867 68.832C776.503 69.2087 776.063 69.4985 775.546 69.7017C775.034 69.9006 774.457 70 773.813 70ZM772.538 60.7578V70H771.312V60.7578H772.538ZM785.715 69.0034V70H780.821V69.0034H785.715ZM781.069 60.7578V70H779.844V60.7578H781.069ZM785.068 64.7314V65.728H780.821V64.7314H785.068ZM785.652 60.7578V61.7607H780.821V60.7578H785.652ZM790.216 68.5972L792.939 60.7578H794.266L790.844 70H789.898L790.216 68.5972ZM787.67 60.7578L790.368 68.5972L790.705 70H789.759L786.344 60.7578H787.67Z" fill="#737373"/>
<line x1="56" y1="99.5" x2="1368" y2="99.5" stroke="#E6E6E6"/>
<path d="M74.1298 143.206C73.8793 143.206 73.6321 143.147 73.4083 143.033C73.1802 142.918 72.9901 142.739 72.8616 142.516C72.725 142.288 72.6542 142.025 72.6572 141.758V137.242C72.6573 137.191 72.6471 137.141 72.6273 137.095C72.6074 137.048 72.5783 137.006 72.5417 136.971C72.488 136.918 72.4202 136.882 72.3465 136.868C72.2728 136.853 72.1965 136.861 72.1271 136.89C72.0576 136.918 71.998 136.967 71.9556 137.03C71.9133 137.092 71.89 137.166 71.8887 137.242V141.758C71.8923 141.952 71.8544 142.145 71.7775 142.324C71.7006 142.502 71.5865 142.662 71.4431 142.791C71.1545 143.063 70.7733 143.211 70.3792 143.205C70.1895 143.21 70.0008 143.176 69.8244 143.105C69.648 143.034 69.4877 142.928 69.3531 142.793C69.2186 142.658 69.1126 142.496 69.0416 142.318C68.9706 142.14 68.9362 141.95 68.9402 141.758V137.242C68.9406 137.192 68.9306 137.141 68.9109 137.095C68.8912 137.048 68.8622 137.006 68.8258 136.971C68.7853 136.932 68.7372 136.901 68.6844 136.881C68.6317 136.861 68.5754 136.853 68.5192 136.856C68.4629 136.852 68.4065 136.861 68.3537 136.881C68.3009 136.901 68.2528 136.932 68.2126 136.971C68.176 137.006 68.1469 137.048 68.127 137.095C68.1072 137.141 68.097 137.191 68.0971 137.242V143.206H67.0506V137.242C67.0464 137.048 67.0841 136.854 67.161 136.676C67.238 136.498 67.3523 136.338 67.4962 136.209C67.7845 135.937 68.1659 135.789 68.5601 135.796C68.7497 135.79 68.9383 135.824 69.1145 135.895C69.2908 135.966 69.451 136.072 69.5854 136.207C69.7199 136.343 69.8258 136.504 69.8967 136.682C69.9676 136.86 70.0021 137.05 69.998 137.242V141.758C69.9976 141.809 70.0077 141.859 70.0276 141.906C70.0474 141.952 70.0767 141.994 70.1135 142.029C70.1976 142.103 70.3056 142.144 70.4175 142.144C70.5294 142.144 70.6375 142.103 70.7216 142.029C70.7581 141.994 70.7873 141.952 70.8071 141.905C70.827 141.859 70.8372 141.809 70.837 141.758V137.242C70.8319 137.051 70.8655 136.861 70.9358 136.683C71.0061 136.505 71.1116 136.344 71.2458 136.209C71.5238 135.943 71.8916 135.796 72.2739 135.796C72.6563 135.796 73.0241 135.943 73.302 136.209C73.4363 136.344 73.5418 136.505 73.6121 136.683C73.6824 136.861 73.716 137.051 73.7108 137.242V141.758C73.7105 141.809 73.7205 141.859 73.7402 141.905C73.7599 141.952 73.7888 141.994 73.8253 142.029C73.9094 142.103 74.0175 142.144 74.1293 142.144C74.2412 142.144 74.3493 142.103 74.4334 142.029C74.4701 141.994 74.4994 141.952 74.5193 141.906C74.5392 141.859 74.5492 141.809 74.5489 141.758V135.794H75.6035V141.758C75.6059 142.025 75.5352 142.287 75.3991 142.516C75.2705 142.739 75.0805 142.918 74.8524 143.033C74.6281 143.147 74.3807 143.206 74.1298 143.206Z" fill="#1A1A1A"/>
<path d="M71.3296 146.733C75.2806 146.733 78.4835 143.495 78.4835 139.5C78.4835 135.505 75.2806 132.267 71.3296 132.267C67.3787 132.267 64.1758 135.505 64.1758 139.5C64.1758 143.495 67.3787 146.733 71.3296 146.733Z" stroke="#1A1A1A"/>
<path d="M90.4187 141.43L90.3676 141.779L90.3206 141.562L88.7519 135.784H87.6471L86.0528 141.544L85.9956 141.792L85.9476 141.441L84.668 135.784H83.4304L85.3487 143.379H86.5045L88.202 137.511L89.8505 143.379H91.0125L92.9358 135.784H91.6931L90.4187 141.43Z" fill="#1A1A1A"/>
<path d="M105.284 141.626L102.802 135.785H101.214V143.378H102.455L102.336 137.498L104.821 143.378H105.734L108.226 137.473L108.107 143.378H109.348V135.785H107.754L105.284 141.626Z" fill="#1A1A1A"/>
<path d="M99.2822 136.426C98.7631 135.995 98.0558 135.776 97.1831 135.776H94.1621V143.369H95.4089V140.534H97.1698C98.0896 140.534 98.805 140.327 99.3088 139.914C99.8126 139.5 100.069 138.914 100.069 138.175C100.069 137.437 99.8045 136.859 99.2822 136.426ZM98.8162 138.193C98.8162 138.606 98.6731 138.936 98.3921 139.157C98.111 139.378 97.7022 139.493 97.1831 139.493H95.4089V136.828H97.2148C97.7125 136.828 98.108 136.961 98.3911 137.211C98.5298 137.333 98.6397 137.484 98.7132 137.654C98.7868 137.823 98.8221 138.008 98.8162 138.193Z" fill="#1A1A1A"/>
<path d="M115.481 141.057C115.481 141.574 115.329 141.973 115.033 142.24C114.737 142.506 114.306 142.643 113.758 142.643C113.209 142.643 112.767 142.504 112.47 142.229C112.173 141.954 112.022 141.563 112.022 141.053V135.783H110.789V141.107C110.801 141.896 111.076 142.53 111.606 142.989C112.137 143.447 112.859 143.678 113.759 143.678C114.658 143.678 115.381 143.437 115.917 142.963C116.454 142.489 116.728 141.845 116.728 141.054V135.784H115.481V141.057Z" fill="#1A1A1A"/>
<path d="M124.908 136.22C124.335 135.924 123.698 135.775 123.054 135.786H120.712V143.379H122.939C124.063 143.379 124.973 143.053 125.639 142.407C126.305 141.761 126.644 140.883 126.644 139.793V139.294C126.642 138.65 126.48 138.018 126.173 137.455C125.878 136.929 125.439 136.5 124.908 136.22ZM121.958 136.84H123.052C123.821 136.84 124.411 137.059 124.806 137.492C125.202 137.925 125.403 138.557 125.403 139.373V139.786C125.403 140.602 125.193 141.238 124.778 141.677C124.363 142.117 123.756 142.34 122.976 142.34H121.954L121.958 136.84Z" fill="#1A1A1A"/>
<path d="M127.87 143.378H133.04V142.34H129.116V139.979H132.522V138.934H129.116V136.837H133.04V135.785H127.87V143.378Z" fill="#1A1A1A"/>
<path d="M139.674 135.785L137.482 141.974L135.301 135.785H133.96L136.909 143.378H138.059L141.009 135.785H139.674Z" fill="#1A1A1A"/>
<path d="M443.094 134.258V143.5H441.888V134.258H443.094ZM446.064 134.258V135.261H438.923V134.258H446.064ZM448.432 133.75V143.5H447.258V133.75H448.432ZM448.153 139.806L447.664 139.787C447.668 139.317 447.738 138.883 447.874 138.485C448.009 138.083 448.199 137.734 448.445 137.438C448.69 137.142 448.982 136.913 449.321 136.752C449.664 136.587 450.042 136.505 450.457 136.505C450.796 136.505 451.1 136.551 451.371 136.645C451.642 136.733 451.873 136.877 452.063 137.076C452.258 137.275 452.406 137.533 452.507 137.851C452.609 138.164 452.66 138.547 452.66 139V143.5H451.479V138.987C451.479 138.627 451.426 138.339 451.32 138.124C451.215 137.903 451.06 137.745 450.857 137.647C450.654 137.546 450.404 137.495 450.108 137.495C449.816 137.495 449.549 137.556 449.308 137.679C449.071 137.802 448.866 137.971 448.692 138.187C448.523 138.403 448.39 138.65 448.292 138.93C448.199 139.205 448.153 139.497 448.153 139.806ZM457.268 143.627C456.79 143.627 456.356 143.547 455.967 143.386C455.582 143.221 455.25 142.99 454.97 142.694C454.695 142.398 454.484 142.046 454.335 141.64C454.187 141.234 454.113 140.79 454.113 140.307V140.041C454.113 139.482 454.196 138.985 454.361 138.549C454.526 138.109 454.75 137.736 455.034 137.432C455.317 137.127 455.639 136.896 455.999 136.74C456.358 136.583 456.731 136.505 457.116 136.505C457.607 136.505 458.03 136.59 458.385 136.759C458.745 136.928 459.039 137.165 459.268 137.47C459.496 137.77 459.665 138.126 459.775 138.536C459.885 138.942 459.94 139.387 459.94 139.869V140.396H454.812V139.438H458.766V139.349C458.749 139.044 458.686 138.748 458.576 138.46C458.47 138.172 458.301 137.935 458.068 137.749C457.835 137.563 457.518 137.47 457.116 137.47C456.849 137.47 456.604 137.527 456.379 137.641C456.155 137.751 455.963 137.916 455.802 138.136C455.641 138.356 455.516 138.625 455.427 138.942C455.338 139.26 455.294 139.626 455.294 140.041V140.307C455.294 140.633 455.338 140.94 455.427 141.228C455.52 141.511 455.654 141.761 455.827 141.977C456.005 142.192 456.219 142.362 456.468 142.484C456.722 142.607 457.01 142.668 457.332 142.668C457.746 142.668 458.097 142.584 458.385 142.415C458.673 142.245 458.925 142.019 459.141 141.735L459.852 142.3C459.703 142.525 459.515 142.738 459.287 142.941C459.058 143.145 458.777 143.31 458.442 143.437C458.112 143.563 457.721 143.627 457.268 143.627ZM470.75 138.231V139.228H465.749V138.231H470.75ZM465.939 134.258V143.5H464.714V134.258H465.939ZM471.817 134.258V143.5H470.598V134.258H471.817ZM478.019 141.913V136.632H479.199V143.5H478.076L478.019 141.913ZM478.241 140.466L478.729 140.453C478.729 140.91 478.681 141.333 478.583 141.723C478.49 142.108 478.338 142.442 478.126 142.726C477.915 143.009 477.638 143.231 477.295 143.392C476.952 143.549 476.535 143.627 476.044 143.627C475.71 143.627 475.403 143.578 475.124 143.481C474.849 143.384 474.612 143.233 474.413 143.03C474.214 142.827 474.06 142.563 473.95 142.237C473.844 141.911 473.791 141.52 473.791 141.062V136.632H474.965V141.075C474.965 141.384 474.999 141.64 475.067 141.843C475.139 142.042 475.234 142.201 475.353 142.319C475.475 142.434 475.611 142.514 475.759 142.561C475.911 142.607 476.068 142.63 476.229 142.63C476.728 142.63 477.124 142.535 477.416 142.345C477.708 142.15 477.917 141.89 478.044 141.564C478.175 141.234 478.241 140.868 478.241 140.466ZM480.983 133.75H482.164V142.167L482.062 143.5H480.983V133.75ZM486.804 140.009V140.142C486.804 140.641 486.744 141.105 486.626 141.532C486.507 141.955 486.334 142.324 486.105 142.637C485.877 142.95 485.598 143.193 485.268 143.367C484.938 143.54 484.559 143.627 484.131 143.627C483.695 143.627 483.312 143.553 482.982 143.405C482.657 143.252 482.382 143.035 482.157 142.751C481.933 142.467 481.753 142.125 481.618 141.723C481.486 141.321 481.396 140.868 481.345 140.364V139.78C481.396 139.272 481.486 138.818 481.618 138.416C481.753 138.014 481.933 137.671 482.157 137.387C482.382 137.099 482.657 136.882 482.982 136.733C483.308 136.581 483.687 136.505 484.119 136.505C484.55 136.505 484.933 136.59 485.268 136.759C485.602 136.924 485.881 137.161 486.105 137.47C486.334 137.779 486.507 138.149 486.626 138.581C486.744 139.008 486.804 139.484 486.804 140.009ZM485.623 140.142V140.009C485.623 139.666 485.591 139.344 485.528 139.044C485.464 138.739 485.363 138.473 485.223 138.244C485.083 138.011 484.899 137.829 484.671 137.698C484.442 137.563 484.161 137.495 483.827 137.495C483.53 137.495 483.272 137.546 483.052 137.647C482.836 137.749 482.652 137.887 482.5 138.06C482.348 138.229 482.223 138.424 482.125 138.644C482.032 138.86 481.963 139.084 481.916 139.317V140.847C481.984 141.143 482.094 141.429 482.246 141.704C482.403 141.974 482.61 142.197 482.868 142.37C483.131 142.544 483.454 142.63 483.839 142.63C484.157 142.63 484.428 142.567 484.652 142.44C484.88 142.309 485.064 142.129 485.204 141.9C485.348 141.672 485.454 141.407 485.521 141.107C485.589 140.806 485.623 140.485 485.623 140.142Z" fill="#737373"/>
<path d="M497.976 134.258V145.214H497.03V134.258H497.976Z" fill="#737373"/>
<path d="M512.033 139.875H509.563V138.879H512.033C512.511 138.879 512.898 138.803 513.194 138.65C513.491 138.498 513.706 138.286 513.842 138.016C513.981 137.745 514.051 137.436 514.051 137.089C514.051 136.771 513.981 136.473 513.842 136.194C513.706 135.915 513.491 135.69 513.194 135.521C512.898 135.347 512.511 135.261 512.033 135.261H509.849V143.5H508.624V134.258H512.033C512.731 134.258 513.321 134.378 513.804 134.62C514.286 134.861 514.652 135.195 514.902 135.623C515.152 136.046 515.276 136.53 515.276 137.076C515.276 137.669 515.152 138.174 514.902 138.593C514.652 139.012 514.286 139.332 513.804 139.552C513.321 139.768 512.731 139.875 512.033 139.875ZM517.923 133.75V143.5H516.743V133.75H517.923ZM524.011 141.913V136.632H525.191V143.5H524.068L524.011 141.913ZM524.233 140.466L524.722 140.453C524.722 140.91 524.673 141.333 524.576 141.723C524.483 142.108 524.33 142.442 524.119 142.726C523.907 143.009 523.63 143.231 523.287 143.392C522.944 143.549 522.528 143.627 522.037 143.627C521.702 143.627 521.396 143.578 521.116 143.481C520.841 143.384 520.604 143.233 520.405 143.03C520.206 142.827 520.052 142.563 519.942 142.237C519.836 141.911 519.783 141.52 519.783 141.062V136.632H520.958V141.075C520.958 141.384 520.991 141.64 521.059 141.843C521.131 142.042 521.226 142.201 521.345 142.319C521.467 142.434 521.603 142.514 521.751 142.561C521.903 142.607 522.06 142.63 522.221 142.63C522.72 142.63 523.116 142.535 523.408 142.345C523.7 142.15 523.909 141.89 524.036 141.564C524.167 141.234 524.233 140.868 524.233 140.466ZM531.431 136.632H532.498V143.354C532.498 143.959 532.375 144.475 532.129 144.903C531.884 145.33 531.541 145.654 531.101 145.874C530.665 146.098 530.162 146.21 529.59 146.21C529.353 146.21 529.074 146.172 528.752 146.096C528.435 146.024 528.122 145.899 527.813 145.722C527.508 145.548 527.252 145.313 527.045 145.017L527.661 144.319C527.948 144.666 528.249 144.907 528.562 145.042C528.879 145.178 529.193 145.246 529.501 145.246C529.874 145.246 530.195 145.176 530.466 145.036C530.737 144.896 530.947 144.689 531.095 144.414C531.247 144.143 531.323 143.809 531.323 143.411V138.143L531.431 136.632ZM526.702 140.142V140.009C526.702 139.484 526.764 139.008 526.886 138.581C527.013 138.149 527.193 137.779 527.426 137.47C527.663 137.161 527.948 136.924 528.283 136.759C528.617 136.59 528.994 136.505 529.413 136.505C529.844 136.505 530.221 136.581 530.542 136.733C530.868 136.882 531.143 137.099 531.368 137.387C531.596 137.671 531.776 138.014 531.907 138.416C532.038 138.818 532.129 139.272 532.18 139.78V140.364C532.134 140.868 532.043 141.321 531.907 141.723C531.776 142.125 531.596 142.467 531.368 142.751C531.143 143.035 530.868 143.252 530.542 143.405C530.217 143.553 529.836 143.627 529.4 143.627C528.989 143.627 528.617 143.54 528.283 143.367C527.953 143.193 527.669 142.95 527.432 142.637C527.195 142.324 527.013 141.955 526.886 141.532C526.764 141.105 526.702 140.641 526.702 140.142ZM527.876 140.009V140.142C527.876 140.485 527.91 140.806 527.978 141.107C528.05 141.407 528.158 141.672 528.302 141.9C528.45 142.129 528.638 142.309 528.867 142.44C529.095 142.567 529.368 142.63 529.686 142.63C530.075 142.63 530.396 142.548 530.65 142.383C530.904 142.218 531.105 142 531.253 141.729C531.406 141.458 531.524 141.164 531.609 140.847V139.317C531.562 139.084 531.49 138.86 531.393 138.644C531.3 138.424 531.177 138.229 531.025 138.06C530.877 137.887 530.693 137.749 530.473 137.647C530.253 137.546 529.994 137.495 529.698 137.495C529.377 137.495 529.099 137.563 528.867 137.698C528.638 137.829 528.45 138.011 528.302 138.244C528.158 138.473 528.05 138.739 527.978 139.044C527.91 139.344 527.876 139.666 527.876 140.009ZM535.557 136.632V143.5H534.376V136.632H535.557ZM534.288 134.81C534.288 134.62 534.345 134.459 534.459 134.328C534.577 134.196 534.751 134.131 534.979 134.131C535.204 134.131 535.375 134.196 535.494 134.328C535.616 134.459 535.678 134.62 535.678 134.81C535.678 134.992 535.616 135.149 535.494 135.28C535.375 135.407 535.204 135.47 534.979 135.47C534.751 135.47 534.577 135.407 534.459 135.28C534.345 135.149 534.288 134.992 534.288 134.81ZM538.617 138.098V143.5H537.442V136.632H538.553L538.617 138.098ZM538.337 139.806L537.849 139.787C537.853 139.317 537.923 138.883 538.058 138.485C538.194 138.083 538.384 137.734 538.629 137.438C538.875 137.142 539.167 136.913 539.505 136.752C539.848 136.587 540.227 136.505 540.642 136.505C540.98 136.505 541.285 136.551 541.556 136.645C541.826 136.733 542.057 136.877 542.248 137.076C542.442 137.275 542.59 137.533 542.692 137.851C542.793 138.164 542.844 138.547 542.844 139V143.5H541.664V138.987C541.664 138.627 541.611 138.339 541.505 138.124C541.399 137.903 541.245 137.745 541.042 137.647C540.838 137.546 540.589 137.495 540.292 137.495C540 137.495 539.734 137.556 539.493 137.679C539.256 137.802 539.05 137.971 538.877 138.187C538.708 138.403 538.574 138.65 538.477 138.93C538.384 139.205 538.337 139.497 538.337 139.806ZM548.627 141.678C548.627 141.509 548.589 141.352 548.513 141.208C548.441 141.06 548.291 140.927 548.062 140.809C547.838 140.686 547.499 140.58 547.046 140.491C546.666 140.411 546.321 140.316 546.012 140.206C545.707 140.096 545.447 139.962 545.231 139.806C545.019 139.649 544.856 139.465 544.742 139.253C544.628 139.042 544.571 138.794 544.571 138.511C544.571 138.24 544.63 137.984 544.749 137.743C544.871 137.501 545.043 137.288 545.263 137.102C545.487 136.915 545.756 136.769 546.069 136.664C546.382 136.558 546.731 136.505 547.116 136.505C547.666 136.505 548.136 136.602 548.525 136.797C548.915 136.992 549.213 137.252 549.42 137.578C549.628 137.899 549.731 138.257 549.731 138.65H548.557C548.557 138.46 548.5 138.276 548.386 138.098C548.276 137.916 548.113 137.766 547.897 137.647C547.685 137.529 547.425 137.47 547.116 137.47C546.79 137.47 546.526 137.521 546.323 137.622C546.124 137.719 545.978 137.844 545.885 137.997C545.796 138.149 545.751 138.31 545.751 138.479C545.751 138.606 545.773 138.72 545.815 138.822C545.861 138.919 545.942 139.01 546.056 139.095C546.17 139.175 546.331 139.251 546.539 139.323C546.746 139.395 547.01 139.467 547.332 139.539C547.895 139.666 548.358 139.818 548.722 139.996C549.086 140.174 549.357 140.392 549.535 140.65C549.712 140.908 549.801 141.221 549.801 141.589C549.801 141.89 549.738 142.165 549.611 142.415C549.488 142.664 549.308 142.88 549.071 143.062C548.839 143.24 548.559 143.379 548.233 143.481C547.912 143.578 547.55 143.627 547.148 143.627C546.543 143.627 546.031 143.519 545.612 143.303C545.193 143.087 544.875 142.808 544.66 142.465C544.444 142.123 544.336 141.761 544.336 141.38H545.517C545.534 141.701 545.627 141.958 545.796 142.148C545.965 142.334 546.173 142.467 546.418 142.548C546.663 142.624 546.907 142.662 547.148 142.662C547.47 142.662 547.738 142.62 547.954 142.535C548.174 142.451 548.341 142.334 548.456 142.186C548.57 142.038 548.627 141.869 548.627 141.678Z" fill="#737373"/>
<path d="M560.976 134.258V145.214H560.03V134.258H560.976Z" fill="#737373"/>
<path d="M571.77 134.258H574.83C575.524 134.258 576.11 134.364 576.588 134.575C577.07 134.787 577.436 135.1 577.686 135.515C577.94 135.925 578.067 136.431 578.067 137.032C578.067 137.455 577.98 137.842 577.807 138.193C577.637 138.54 577.392 138.837 577.07 139.082C576.753 139.323 576.372 139.503 575.928 139.622L575.585 139.755H572.709L572.697 138.758H574.868C575.308 138.758 575.674 138.682 575.966 138.53C576.258 138.373 576.478 138.164 576.626 137.901C576.774 137.639 576.848 137.349 576.848 137.032C576.848 136.676 576.778 136.365 576.639 136.099C576.499 135.832 576.279 135.627 575.979 135.483C575.682 135.335 575.299 135.261 574.83 135.261H572.995V143.5H571.77V134.258ZM577.172 143.5L574.925 139.311L576.201 139.304L578.479 143.424V143.5H577.172ZM579.292 140.142V139.996C579.292 139.501 579.364 139.042 579.508 138.619C579.652 138.191 579.859 137.821 580.13 137.508C580.401 137.19 580.729 136.945 581.114 136.771C581.499 136.594 581.931 136.505 582.409 136.505C582.891 136.505 583.325 136.594 583.71 136.771C584.099 136.945 584.429 137.19 584.7 137.508C584.975 137.821 585.185 138.191 585.329 138.619C585.472 139.042 585.544 139.501 585.544 139.996V140.142C585.544 140.637 585.472 141.096 585.329 141.52C585.185 141.943 584.975 142.313 584.7 142.63C584.429 142.944 584.101 143.189 583.716 143.367C583.335 143.54 582.904 143.627 582.421 143.627C581.939 143.627 581.505 143.54 581.12 143.367C580.735 143.189 580.405 142.944 580.13 142.63C579.859 142.313 579.652 141.943 579.508 141.52C579.364 141.096 579.292 140.637 579.292 140.142ZM580.466 139.996V140.142C580.466 140.485 580.507 140.809 580.587 141.113C580.667 141.414 580.788 141.68 580.949 141.913C581.114 142.146 581.319 142.33 581.564 142.465C581.81 142.597 582.096 142.662 582.421 142.662C582.743 142.662 583.024 142.597 583.266 142.465C583.511 142.33 583.714 142.146 583.875 141.913C584.036 141.68 584.156 141.414 584.237 141.113C584.321 140.809 584.364 140.485 584.364 140.142V139.996C584.364 139.658 584.321 139.338 584.237 139.038C584.156 138.733 584.034 138.464 583.869 138.231C583.708 137.994 583.505 137.808 583.259 137.673C583.018 137.537 582.735 137.47 582.409 137.47C582.087 137.47 581.804 137.537 581.558 137.673C581.317 137.808 581.114 137.994 580.949 138.231C580.788 138.464 580.667 138.733 580.587 139.038C580.507 139.338 580.466 139.658 580.466 139.996ZM591.067 142.326V138.79C591.067 138.519 591.012 138.284 590.902 138.085C590.796 137.882 590.635 137.726 590.419 137.616C590.204 137.506 589.937 137.451 589.62 137.451C589.323 137.451 589.063 137.501 588.839 137.603C588.619 137.705 588.445 137.838 588.318 138.003C588.196 138.168 588.134 138.346 588.134 138.536H586.96C586.96 138.291 587.023 138.047 587.15 137.806C587.277 137.565 587.459 137.347 587.696 137.152C587.938 136.953 588.225 136.797 588.56 136.683C588.898 136.564 589.275 136.505 589.689 136.505C590.189 136.505 590.629 136.59 591.01 136.759C591.395 136.928 591.695 137.184 591.911 137.527C592.131 137.865 592.241 138.291 592.241 138.803V142.002C592.241 142.23 592.26 142.474 592.298 142.732C592.341 142.99 592.402 143.212 592.482 143.398V143.5H591.257C591.198 143.365 591.152 143.185 591.118 142.96C591.084 142.732 591.067 142.52 591.067 142.326ZM591.27 139.336L591.283 140.161H590.096C589.761 140.161 589.463 140.189 589.201 140.244C588.938 140.294 588.718 140.373 588.541 140.479C588.363 140.584 588.227 140.718 588.134 140.878C588.041 141.035 587.995 141.219 587.995 141.431C587.995 141.646 588.043 141.843 588.141 142.021C588.238 142.199 588.384 142.34 588.579 142.446C588.778 142.548 589.021 142.599 589.309 142.599C589.668 142.599 589.986 142.522 590.261 142.37C590.536 142.218 590.754 142.032 590.915 141.812C591.08 141.591 591.168 141.378 591.181 141.17L591.683 141.735C591.653 141.913 591.573 142.11 591.441 142.326C591.31 142.542 591.135 142.749 590.915 142.948C590.699 143.142 590.441 143.305 590.14 143.437C589.844 143.563 589.51 143.627 589.137 143.627C588.672 143.627 588.263 143.536 587.912 143.354C587.565 143.172 587.294 142.929 587.1 142.624C586.909 142.315 586.814 141.97 586.814 141.589C586.814 141.221 586.886 140.897 587.03 140.618C587.174 140.335 587.381 140.1 587.652 139.914C587.923 139.723 588.249 139.579 588.629 139.482C589.01 139.385 589.436 139.336 589.905 139.336H591.27ZM598.417 142.167V133.75H599.598V143.5H598.519L598.417 142.167ZM593.796 140.142V140.009C593.796 139.484 593.86 139.008 593.987 138.581C594.118 138.149 594.302 137.779 594.539 137.47C594.78 137.161 595.066 136.924 595.396 136.759C595.73 136.59 596.103 136.505 596.513 136.505C596.945 136.505 597.321 136.581 597.643 136.733C597.969 136.882 598.244 137.099 598.468 137.387C598.697 137.671 598.877 138.014 599.008 138.416C599.139 138.818 599.23 139.272 599.281 139.78V140.364C599.234 140.868 599.143 141.321 599.008 141.723C598.877 142.125 598.697 142.467 598.468 142.751C598.244 143.035 597.969 143.252 597.643 143.405C597.317 143.553 596.936 143.627 596.5 143.627C596.098 143.627 595.73 143.54 595.396 143.367C595.066 143.193 594.78 142.95 594.539 142.637C594.302 142.324 594.118 141.955 593.987 141.532C593.86 141.105 593.796 140.641 593.796 140.142ZM594.977 140.009V140.142C594.977 140.485 595.011 140.806 595.079 141.107C595.151 141.407 595.261 141.672 595.409 141.9C595.557 142.129 595.745 142.309 595.974 142.44C596.202 142.567 596.475 142.63 596.792 142.63C597.182 142.63 597.501 142.548 597.751 142.383C598.005 142.218 598.208 142 598.36 141.729C598.513 141.458 598.631 141.164 598.716 140.847V139.317C598.665 139.084 598.591 138.86 598.494 138.644C598.401 138.424 598.278 138.229 598.125 138.06C597.977 137.887 597.793 137.749 597.573 137.647C597.357 137.546 597.101 137.495 596.805 137.495C596.484 137.495 596.206 137.563 595.974 137.698C595.745 137.829 595.557 138.011 595.409 138.244C595.261 138.473 595.151 138.739 595.079 139.044C595.011 139.344 594.977 139.666 594.977 140.009ZM602.594 137.997V143.5H601.414V136.632H602.531L602.594 137.997ZM602.353 139.806L601.807 139.787C601.811 139.317 601.873 138.883 601.991 138.485C602.11 138.083 602.285 137.734 602.518 137.438C602.751 137.142 603.041 136.913 603.388 136.752C603.735 136.587 604.137 136.505 604.594 136.505C604.915 136.505 605.212 136.551 605.482 136.645C605.753 136.733 605.988 136.875 606.187 137.07C606.386 137.264 606.54 137.514 606.65 137.819C606.76 138.124 606.815 138.492 606.815 138.923V143.5H605.641V138.98C605.641 138.621 605.58 138.333 605.457 138.117C605.339 137.901 605.169 137.745 604.949 137.647C604.729 137.546 604.471 137.495 604.175 137.495C603.828 137.495 603.538 137.556 603.305 137.679C603.072 137.802 602.886 137.971 602.747 138.187C602.607 138.403 602.505 138.65 602.442 138.93C602.383 139.205 602.353 139.497 602.353 139.806ZM606.803 139.158L606.016 139.399C606.02 139.023 606.081 138.661 606.2 138.314C606.322 137.967 606.498 137.658 606.727 137.387C606.959 137.116 607.245 136.903 607.583 136.746C607.922 136.585 608.309 136.505 608.745 136.505C609.113 136.505 609.439 136.554 609.723 136.651C610.01 136.748 610.252 136.898 610.446 137.102C610.645 137.3 610.795 137.556 610.897 137.87C610.999 138.183 611.049 138.555 611.049 138.987V143.5H609.869V138.974C609.869 138.589 609.807 138.291 609.685 138.079C609.566 137.863 609.397 137.713 609.177 137.628C608.961 137.54 608.703 137.495 608.402 137.495C608.144 137.495 607.916 137.54 607.717 137.628C607.518 137.717 607.351 137.84 607.215 137.997C607.08 138.149 606.976 138.325 606.904 138.523C606.837 138.722 606.803 138.934 606.803 139.158ZM616.876 142.326V138.79C616.876 138.519 616.821 138.284 616.711 138.085C616.606 137.882 616.445 137.726 616.229 137.616C616.013 137.506 615.747 137.451 615.429 137.451C615.133 137.451 614.873 137.501 614.648 137.603C614.428 137.705 614.255 137.838 614.128 138.003C614.005 138.168 613.944 138.346 613.944 138.536H612.77C612.77 138.291 612.833 138.047 612.96 137.806C613.087 137.565 613.269 137.347 613.506 137.152C613.747 136.953 614.035 136.797 614.369 136.683C614.708 136.564 615.084 136.505 615.499 136.505C615.998 136.505 616.438 136.59 616.819 136.759C617.204 136.928 617.505 137.184 617.721 137.527C617.941 137.865 618.051 138.291 618.051 138.803V142.002C618.051 142.23 618.07 142.474 618.108 142.732C618.15 142.99 618.212 143.212 618.292 143.398V143.5H617.067C617.008 143.365 616.961 143.185 616.927 142.96C616.893 142.732 616.876 142.52 616.876 142.326ZM617.08 139.336L617.092 140.161H615.905C615.571 140.161 615.273 140.189 615.01 140.244C614.748 140.294 614.528 140.373 614.35 140.479C614.172 140.584 614.037 140.718 613.944 140.878C613.851 141.035 613.804 141.219 613.804 141.431C613.804 141.646 613.853 141.843 613.95 142.021C614.048 142.199 614.194 142.34 614.388 142.446C614.587 142.548 614.83 142.599 615.118 142.599C615.478 142.599 615.795 142.522 616.07 142.37C616.345 142.218 616.563 142.032 616.724 141.812C616.889 141.591 616.978 141.378 616.991 141.17L617.492 141.735C617.463 141.913 617.382 142.11 617.251 142.326C617.12 142.542 616.944 142.749 616.724 142.948C616.508 143.142 616.25 143.305 615.95 143.437C615.653 143.563 615.319 143.627 614.947 143.627C614.481 143.627 614.073 143.536 613.722 143.354C613.375 143.172 613.104 142.929 612.909 142.624C612.719 142.315 612.624 141.97 612.624 141.589C612.624 141.221 612.695 140.897 612.839 140.618C612.983 140.335 613.191 140.1 613.461 139.914C613.732 139.723 614.058 139.579 614.439 139.482C614.82 139.385 615.245 139.336 615.715 139.336H617.08ZM621.072 137.952V146.141H619.892V136.632H620.971L621.072 137.952ZM625.7 140.009V140.142C625.7 140.641 625.64 141.105 625.522 141.532C625.403 141.955 625.23 142.324 625.001 142.637C624.777 142.95 624.5 143.193 624.17 143.367C623.84 143.54 623.461 143.627 623.034 143.627C622.598 143.627 622.213 143.555 621.878 143.411C621.544 143.267 621.261 143.058 621.028 142.783C620.795 142.508 620.609 142.178 620.469 141.792C620.334 141.407 620.241 140.974 620.19 140.491V139.78C620.241 139.272 620.336 138.818 620.476 138.416C620.615 138.014 620.799 137.671 621.028 137.387C621.261 137.099 621.542 136.882 621.872 136.733C622.202 136.581 622.583 136.505 623.015 136.505C623.446 136.505 623.829 136.59 624.164 136.759C624.498 136.924 624.779 137.161 625.008 137.47C625.236 137.779 625.408 138.149 625.522 138.581C625.64 139.008 625.7 139.484 625.7 140.009ZM624.519 140.142V140.009C624.519 139.666 624.483 139.344 624.411 139.044C624.339 138.739 624.227 138.473 624.075 138.244C623.927 138.011 623.736 137.829 623.503 137.698C623.271 137.563 622.993 137.495 622.672 137.495C622.376 137.495 622.118 137.546 621.897 137.647C621.682 137.749 621.498 137.887 621.345 138.06C621.193 138.229 621.068 138.424 620.971 138.644C620.878 138.86 620.808 139.084 620.761 139.317V140.961C620.846 141.257 620.964 141.536 621.117 141.799C621.269 142.057 621.472 142.266 621.726 142.427C621.98 142.584 622.299 142.662 622.685 142.662C623.002 142.662 623.275 142.597 623.503 142.465C623.736 142.33 623.927 142.146 624.075 141.913C624.227 141.68 624.339 141.414 624.411 141.113C624.483 140.809 624.519 140.485 624.519 140.142Z" fill="#737373"/>
<path d="M636.976 134.258V145.214H636.03V134.258H636.976Z" fill="#737373"/>
<path d="M652.558 141.164C652.558 140.948 652.524 140.758 652.457 140.593C652.393 140.424 652.279 140.271 652.114 140.136C651.953 140 651.729 139.871 651.441 139.749C651.157 139.626 650.798 139.501 650.362 139.374C649.905 139.239 649.492 139.088 649.124 138.923C648.756 138.754 648.441 138.562 648.178 138.346C647.916 138.13 647.715 137.882 647.575 137.603C647.436 137.324 647.366 137.004 647.366 136.645C647.366 136.285 647.44 135.953 647.588 135.648C647.736 135.343 647.948 135.079 648.223 134.854C648.502 134.626 648.834 134.448 649.219 134.321C649.604 134.194 650.034 134.131 650.508 134.131C651.202 134.131 651.79 134.264 652.272 134.531C652.759 134.793 653.129 135.138 653.383 135.565C653.637 135.989 653.764 136.441 653.764 136.924H652.545C652.545 136.577 652.471 136.27 652.323 136.003C652.175 135.733 651.951 135.521 651.65 135.369C651.35 135.212 650.969 135.134 650.508 135.134C650.072 135.134 649.712 135.199 649.429 135.331C649.145 135.462 648.934 135.639 648.794 135.864C648.659 136.088 648.591 136.344 648.591 136.632C648.591 136.826 648.631 137.004 648.711 137.165C648.796 137.322 648.925 137.468 649.099 137.603C649.276 137.738 649.501 137.863 649.771 137.978C650.047 138.092 650.375 138.202 650.755 138.308C651.28 138.456 651.733 138.621 652.114 138.803C652.495 138.985 652.808 139.19 653.053 139.418C653.303 139.643 653.487 139.899 653.605 140.187C653.728 140.47 653.79 140.792 653.79 141.151C653.79 141.528 653.713 141.869 653.561 142.173C653.409 142.478 653.191 142.738 652.907 142.954C652.624 143.17 652.283 143.337 651.885 143.456C651.492 143.57 651.052 143.627 650.565 143.627C650.138 143.627 649.716 143.568 649.302 143.449C648.891 143.331 648.517 143.153 648.178 142.916C647.844 142.679 647.575 142.387 647.372 142.04C647.173 141.689 647.074 141.283 647.074 140.821H648.292C648.292 141.139 648.354 141.412 648.477 141.64C648.599 141.864 648.766 142.051 648.978 142.199C649.194 142.347 649.437 142.457 649.708 142.529C649.983 142.597 650.269 142.63 650.565 142.63C650.992 142.63 651.354 142.571 651.65 142.453C651.947 142.334 652.171 142.165 652.323 141.945C652.48 141.725 652.558 141.465 652.558 141.164ZM659.375 141.913V136.632H660.556V143.5H659.433L659.375 141.913ZM659.598 140.466L660.086 140.453C660.086 140.91 660.038 141.333 659.94 141.723C659.847 142.108 659.695 142.442 659.483 142.726C659.272 143.009 658.995 143.231 658.652 143.392C658.309 143.549 657.892 143.627 657.401 143.627C657.067 143.627 656.76 143.578 656.481 143.481C656.206 143.384 655.969 143.233 655.77 143.03C655.571 142.827 655.417 142.563 655.307 142.237C655.201 141.911 655.148 141.52 655.148 141.062V136.632H656.322V141.075C656.322 141.384 656.356 141.64 656.424 141.843C656.496 142.042 656.591 142.201 656.709 142.319C656.832 142.434 656.968 142.514 657.116 142.561C657.268 142.607 657.425 142.63 657.585 142.63C658.085 142.63 658.48 142.535 658.772 142.345C659.064 142.15 659.274 141.89 659.401 141.564C659.532 141.234 659.598 140.868 659.598 140.466ZM663.521 137.952V146.141H662.34V136.632H663.419L663.521 137.952ZM668.148 140.009V140.142C668.148 140.641 668.089 141.105 667.97 141.532C667.852 141.955 667.678 142.324 667.45 142.637C667.225 142.95 666.948 143.193 666.618 143.367C666.288 143.54 665.909 143.627 665.482 143.627C665.046 143.627 664.661 143.555 664.327 143.411C663.992 143.267 663.709 143.058 663.476 142.783C663.243 142.508 663.057 142.178 662.917 141.792C662.782 141.407 662.689 140.974 662.638 140.491V139.78C662.689 139.272 662.784 138.818 662.924 138.416C663.063 138.014 663.248 137.671 663.476 137.387C663.709 137.099 663.99 136.882 664.32 136.733C664.65 136.581 665.031 136.505 665.463 136.505C665.895 136.505 666.278 136.59 666.612 136.759C666.946 136.924 667.228 137.161 667.456 137.47C667.685 137.779 667.856 138.149 667.97 138.581C668.089 139.008 668.148 139.484 668.148 140.009ZM666.967 140.142V140.009C666.967 139.666 666.931 139.344 666.859 139.044C666.787 138.739 666.675 138.473 666.523 138.244C666.375 138.011 666.184 137.829 665.952 137.698C665.719 137.563 665.442 137.495 665.12 137.495C664.824 137.495 664.566 137.546 664.346 137.647C664.13 137.749 663.946 137.887 663.793 138.06C663.641 138.229 663.516 138.424 663.419 138.644C663.326 138.86 663.256 139.084 663.209 139.317V140.961C663.294 141.257 663.413 141.536 663.565 141.799C663.717 142.057 663.92 142.266 664.174 142.427C664.428 142.584 664.748 142.662 665.133 142.662C665.45 142.662 665.723 142.597 665.952 142.465C666.184 142.33 666.375 142.146 666.523 141.913C666.675 141.68 666.787 141.414 666.859 141.113C666.931 140.809 666.967 140.485 666.967 140.142ZM670.82 137.952V146.141H669.64V136.632H670.719L670.82 137.952ZM675.448 140.009V140.142C675.448 140.641 675.389 141.105 675.27 141.532C675.152 141.955 674.978 142.324 674.75 142.637C674.525 142.95 674.248 143.193 673.918 143.367C673.588 143.54 673.209 143.627 672.782 143.627C672.346 143.627 671.961 143.555 671.626 143.411C671.292 143.267 671.009 143.058 670.776 142.783C670.543 142.508 670.357 142.178 670.217 141.792C670.082 141.407 669.989 140.974 669.938 140.491V139.78C669.989 139.272 670.084 138.818 670.224 138.416C670.363 138.014 670.547 137.671 670.776 137.387C671.009 137.099 671.29 136.882 671.62 136.733C671.95 136.581 672.331 136.505 672.763 136.505C673.194 136.505 673.577 136.59 673.912 136.759C674.246 136.924 674.527 137.161 674.756 137.47C674.984 137.779 675.156 138.149 675.27 138.581C675.389 139.008 675.448 139.484 675.448 140.009ZM674.267 140.142V140.009C674.267 139.666 674.231 139.344 674.159 139.044C674.087 138.739 673.975 138.473 673.823 138.244C673.675 138.011 673.484 137.829 673.251 137.698C673.019 137.563 672.742 137.495 672.42 137.495C672.124 137.495 671.866 137.546 671.646 137.647C671.43 137.749 671.246 137.887 671.093 138.06C670.941 138.229 670.816 138.424 670.719 138.644C670.626 138.86 670.556 139.084 670.509 139.317V140.961C670.594 141.257 670.712 141.536 670.865 141.799C671.017 142.057 671.22 142.266 671.474 142.427C671.728 142.584 672.048 142.662 672.433 142.662C672.75 142.662 673.023 142.597 673.251 142.465C673.484 142.33 673.675 142.146 673.823 141.913C673.975 141.68 674.087 141.414 674.159 141.113C674.231 140.809 674.267 140.485 674.267 140.142ZM676.635 140.142V139.996C676.635 139.501 676.707 139.042 676.851 138.619C676.994 138.191 677.202 137.821 677.473 137.508C677.743 137.19 678.071 136.945 678.457 136.771C678.842 136.594 679.273 136.505 679.751 136.505C680.234 136.505 680.668 136.594 681.053 136.771C681.442 136.945 681.772 137.19 682.043 137.508C682.318 137.821 682.528 138.191 682.671 138.619C682.815 139.042 682.887 139.501 682.887 139.996V140.142C682.887 140.637 682.815 141.096 682.671 141.52C682.528 141.943 682.318 142.313 682.043 142.63C681.772 142.944 681.444 143.189 681.059 143.367C680.678 143.54 680.247 143.627 679.764 143.627C679.282 143.627 678.848 143.54 678.463 143.367C678.078 143.189 677.748 142.944 677.473 142.63C677.202 142.313 676.994 141.943 676.851 141.52C676.707 141.096 676.635 140.637 676.635 140.142ZM677.809 139.996V140.142C677.809 140.485 677.849 140.809 677.93 141.113C678.01 141.414 678.131 141.68 678.292 141.913C678.457 142.146 678.662 142.33 678.907 142.465C679.153 142.597 679.438 142.662 679.764 142.662C680.086 142.662 680.367 142.597 680.608 142.465C680.854 142.33 681.057 142.146 681.218 141.913C681.379 141.68 681.499 141.414 681.58 141.113C681.664 140.809 681.707 140.485 681.707 140.142V139.996C681.707 139.658 681.664 139.338 681.58 139.038C681.499 138.733 681.376 138.464 681.211 138.231C681.051 137.994 680.847 137.808 680.602 137.673C680.361 137.537 680.077 137.47 679.751 137.47C679.43 137.47 679.146 137.537 678.901 137.673C678.66 137.808 678.457 137.994 678.292 138.231C678.131 138.464 678.01 138.733 677.93 139.038C677.849 139.338 677.809 139.658 677.809 139.996ZM685.534 137.711V143.5H684.36V136.632H685.502L685.534 137.711ZM687.68 136.594L687.673 137.686C687.576 137.664 687.483 137.652 687.394 137.647C687.309 137.639 687.212 137.635 687.102 137.635C686.831 137.635 686.592 137.677 686.385 137.762C686.177 137.846 686.002 137.965 685.858 138.117C685.714 138.27 685.6 138.451 685.515 138.663C685.435 138.87 685.382 139.099 685.356 139.349L685.026 139.539C685.026 139.124 685.067 138.735 685.147 138.371C685.232 138.007 685.361 137.686 685.534 137.406C685.708 137.123 685.928 136.903 686.194 136.746C686.465 136.585 686.787 136.505 687.159 136.505C687.244 136.505 687.341 136.515 687.451 136.537C687.561 136.554 687.637 136.573 687.68 136.594ZM691.958 136.632V137.533H688.245V136.632H691.958ZM689.501 134.962H690.676V141.799C690.676 142.032 690.712 142.207 690.784 142.326C690.856 142.444 690.949 142.522 691.063 142.561C691.177 142.599 691.3 142.618 691.431 142.618C691.528 142.618 691.63 142.609 691.736 142.592C691.846 142.571 691.928 142.554 691.983 142.542L691.99 143.5C691.897 143.53 691.774 143.557 691.622 143.583C691.473 143.612 691.294 143.627 691.082 143.627C690.794 143.627 690.53 143.57 690.289 143.456C690.047 143.341 689.855 143.151 689.711 142.884C689.571 142.613 689.501 142.25 689.501 141.792V134.962Z" fill="#737373"/>
<path d="M702.976 134.258V145.214H702.03V134.258H702.976Z" fill="#737373"/>
<path d="M719.346 140.561H720.565C720.501 141.145 720.334 141.668 720.063 142.129C719.793 142.59 719.41 142.956 718.915 143.227C718.419 143.494 717.802 143.627 717.061 143.627C716.519 143.627 716.026 143.525 715.582 143.322C715.142 143.119 714.763 142.831 714.446 142.459C714.128 142.082 713.883 141.632 713.709 141.107C713.54 140.578 713.456 139.99 713.456 139.342V138.422C713.456 137.774 713.54 137.188 713.709 136.664C713.883 136.135 714.131 135.682 714.452 135.305C714.778 134.929 715.169 134.639 715.626 134.436C716.083 134.232 716.598 134.131 717.169 134.131C717.867 134.131 718.458 134.262 718.94 134.524C719.422 134.787 719.797 135.151 720.063 135.616C720.334 136.077 720.501 136.613 720.565 137.222H719.346C719.287 136.791 719.177 136.42 719.016 136.111C718.855 135.798 718.627 135.557 718.331 135.388C718.034 135.218 717.647 135.134 717.169 135.134C716.758 135.134 716.397 135.212 716.083 135.369C715.775 135.525 715.514 135.747 715.303 136.035C715.095 136.323 714.939 136.668 714.833 137.07C714.727 137.472 714.674 137.918 714.674 138.409V139.342C714.674 139.795 714.721 140.22 714.814 140.618C714.911 141.016 715.057 141.365 715.252 141.666C715.447 141.966 715.694 142.203 715.995 142.376C716.295 142.546 716.651 142.63 717.061 142.63C717.582 142.63 717.996 142.548 718.305 142.383C718.614 142.218 718.847 141.981 719.003 141.672C719.164 141.363 719.278 140.993 719.346 140.561ZM721.746 140.142V139.996C721.746 139.501 721.818 139.042 721.961 138.619C722.105 138.191 722.313 137.821 722.583 137.508C722.854 137.19 723.182 136.945 723.567 136.771C723.952 136.594 724.384 136.505 724.862 136.505C725.345 136.505 725.778 136.594 726.164 136.771C726.553 136.945 726.883 137.19 727.154 137.508C727.429 137.821 727.638 138.191 727.782 138.619C727.926 139.042 727.998 139.501 727.998 139.996V140.142C727.998 140.637 727.926 141.096 727.782 141.52C727.638 141.943 727.429 142.313 727.154 142.63C726.883 142.944 726.555 143.189 726.17 143.367C725.789 143.54 725.357 143.627 724.875 143.627C724.393 143.627 723.959 143.54 723.574 143.367C723.189 143.189 722.859 142.944 722.583 142.63C722.313 142.313 722.105 141.943 721.961 141.52C721.818 141.096 721.746 140.637 721.746 140.142ZM722.92 139.996V140.142C722.92 140.485 722.96 140.809 723.041 141.113C723.121 141.414 723.242 141.68 723.402 141.913C723.567 142.146 723.773 142.33 724.018 142.465C724.264 142.597 724.549 142.662 724.875 142.662C725.197 142.662 725.478 142.597 725.719 142.465C725.965 142.33 726.168 142.146 726.329 141.913C726.489 141.68 726.61 141.414 726.69 141.113C726.775 140.809 726.817 140.485 726.817 140.142V139.996C726.817 139.658 726.775 139.338 726.69 139.038C726.61 138.733 726.487 138.464 726.322 138.231C726.161 137.994 725.958 137.808 725.713 137.673C725.472 137.537 725.188 137.47 724.862 137.47C724.541 137.47 724.257 137.537 724.012 137.673C723.771 137.808 723.567 137.994 723.402 138.231C723.242 138.464 723.121 138.733 723.041 139.038C722.96 139.338 722.92 139.658 722.92 139.996ZM730.639 137.997V143.5H729.458V136.632H730.575L730.639 137.997ZM730.397 139.806L729.852 139.787C729.856 139.317 729.917 138.883 730.036 138.485C730.154 138.083 730.33 137.734 730.562 137.438C730.795 137.142 731.085 136.913 731.432 136.752C731.779 136.587 732.181 136.505 732.638 136.505C732.96 136.505 733.256 136.551 733.527 136.645C733.798 136.733 734.033 136.875 734.231 137.07C734.43 137.264 734.585 137.514 734.695 137.819C734.805 138.124 734.86 138.492 734.86 138.923V143.5H733.686V138.98C733.686 138.621 733.624 138.333 733.501 138.117C733.383 137.901 733.214 137.745 732.994 137.647C732.774 137.546 732.515 137.495 732.219 137.495C731.872 137.495 731.582 137.556 731.35 137.679C731.117 137.802 730.931 137.971 730.791 138.187C730.651 138.403 730.55 138.65 730.486 138.93C730.427 139.205 730.397 139.497 730.397 139.806ZM734.847 139.158L734.06 139.399C734.064 139.023 734.126 138.661 734.244 138.314C734.367 137.967 734.542 137.658 734.771 137.387C735.004 137.116 735.289 136.903 735.628 136.746C735.966 136.585 736.354 136.505 736.79 136.505C737.158 136.505 737.484 136.554 737.767 136.651C738.055 136.748 738.296 136.898 738.491 137.102C738.69 137.3 738.84 137.556 738.941 137.87C739.043 138.183 739.094 138.555 739.094 138.987V143.5H737.913V138.974C737.913 138.589 737.852 138.291 737.729 138.079C737.611 137.863 737.441 137.713 737.221 137.628C737.005 137.54 736.747 137.495 736.447 137.495C736.189 137.495 735.96 137.54 735.761 137.628C735.562 137.717 735.395 137.84 735.26 137.997C735.124 138.149 735.021 138.325 734.949 138.523C734.881 138.722 734.847 138.934 734.847 139.158ZM742.039 137.997V143.5H740.858V136.632H741.976L742.039 137.997ZM741.798 139.806L741.252 139.787C741.256 139.317 741.318 138.883 741.436 138.485C741.555 138.083 741.73 137.734 741.963 137.438C742.196 137.142 742.486 136.913 742.833 136.752C743.18 136.587 743.582 136.505 744.039 136.505C744.36 136.505 744.656 136.551 744.927 136.645C745.198 136.733 745.433 136.875 745.632 137.07C745.831 137.264 745.985 137.514 746.095 137.819C746.205 138.124 746.26 138.492 746.26 138.923V143.5H745.086V138.98C745.086 138.621 745.025 138.333 744.902 138.117C744.783 137.901 744.614 137.745 744.394 137.647C744.174 137.546 743.916 137.495 743.62 137.495C743.273 137.495 742.983 137.556 742.75 137.679C742.517 137.802 742.331 137.971 742.191 138.187C742.052 138.403 741.95 138.65 741.887 138.93C741.827 139.205 741.798 139.497 741.798 139.806ZM746.248 139.158L745.46 139.399C745.465 139.023 745.526 138.661 745.645 138.314C745.767 137.967 745.943 137.658 746.171 137.387C746.404 137.116 746.69 136.903 747.028 136.746C747.367 136.585 747.754 136.505 748.19 136.505C748.558 136.505 748.884 136.554 749.167 136.651C749.455 136.748 749.696 136.898 749.891 137.102C750.09 137.3 750.24 137.556 750.342 137.87C750.443 138.183 750.494 138.555 750.494 138.987V143.5H749.313V138.974C749.313 138.589 749.252 138.291 749.129 138.079C749.011 137.863 748.842 137.713 748.622 137.628C748.406 137.54 748.148 137.495 747.847 137.495C747.589 137.495 747.361 137.54 747.162 137.628C746.963 137.717 746.796 137.84 746.66 137.997C746.525 138.149 746.421 138.325 746.349 138.523C746.281 138.722 746.248 138.934 746.248 139.158ZM756.474 141.913V136.632H757.654V143.5H756.531L756.474 141.913ZM756.696 140.466L757.185 140.453C757.185 140.91 757.136 141.333 757.039 141.723C756.945 142.108 756.793 142.442 756.582 142.726C756.37 143.009 756.093 143.231 755.75 143.392C755.407 143.549 754.99 143.627 754.5 143.627C754.165 143.627 753.858 143.578 753.579 143.481C753.304 143.384 753.067 143.233 752.868 143.03C752.669 142.827 752.515 142.563 752.405 142.237C752.299 141.911 752.246 141.52 752.246 141.062V136.632H753.42V141.075C753.42 141.384 753.454 141.64 753.522 141.843C753.594 142.042 753.689 142.201 753.808 142.319C753.93 142.434 754.066 142.514 754.214 142.561C754.366 142.607 754.523 142.63 754.684 142.63C755.183 142.63 755.579 142.535 755.871 142.345C756.163 142.15 756.372 141.89 756.499 141.564C756.63 141.234 756.696 140.868 756.696 140.466ZM760.619 138.098V143.5H759.444V136.632H760.555L760.619 138.098ZM760.339 139.806L759.851 139.787C759.855 139.317 759.925 138.883 760.06 138.485C760.195 138.083 760.386 137.734 760.631 137.438C760.877 137.142 761.169 136.913 761.507 136.752C761.85 136.587 762.229 136.505 762.644 136.505C762.982 136.505 763.287 136.551 763.558 136.645C763.828 136.733 764.059 136.877 764.25 137.076C764.444 137.275 764.592 137.533 764.694 137.851C764.795 138.164 764.846 138.547 764.846 139V143.5H763.666V138.987C763.666 138.627 763.613 138.339 763.507 138.124C763.401 137.903 763.247 137.745 763.043 137.647C762.84 137.546 762.591 137.495 762.294 137.495C762.002 137.495 761.736 137.556 761.495 137.679C761.258 137.802 761.052 137.971 760.879 138.187C760.71 138.403 760.576 138.65 760.479 138.93C760.386 139.205 760.339 139.497 760.339 139.806ZM767.906 136.632V143.5H766.725V136.632H767.906ZM766.636 134.81C766.636 134.62 766.693 134.459 766.808 134.328C766.926 134.196 767.1 134.131 767.328 134.131C767.552 134.131 767.724 134.196 767.842 134.328C767.965 134.459 768.026 134.62 768.026 134.81C768.026 134.992 767.965 135.149 767.842 135.28C767.724 135.407 767.552 135.47 767.328 135.47C767.1 135.47 766.926 135.407 766.808 135.28C766.693 135.149 766.636 134.992 766.636 134.81ZM772.667 136.632V137.533H768.953V136.632H772.667ZM770.21 134.962H771.384V141.799C771.384 142.032 771.42 142.207 771.492 142.326C771.564 142.444 771.657 142.522 771.771 142.561C771.886 142.599 772.008 142.618 772.14 142.618C772.237 142.618 772.339 142.609 772.444 142.592C772.554 142.571 772.637 142.554 772.692 142.542L772.698 143.5C772.605 143.53 772.482 143.557 772.33 143.583C772.182 143.612 772.002 143.627 771.791 143.627C771.503 143.627 771.238 143.57 770.997 143.456C770.756 143.341 770.563 143.151 770.419 142.884C770.28 142.613 770.21 142.25 770.21 141.792V134.962ZM775.974 142.789L777.884 136.632H779.141L776.386 144.56C776.323 144.729 776.238 144.911 776.132 145.106C776.031 145.305 775.9 145.493 775.739 145.671C775.578 145.849 775.383 145.993 775.155 146.103C774.931 146.217 774.662 146.274 774.349 146.274C774.256 146.274 774.137 146.261 773.993 146.236C773.849 146.21 773.748 146.189 773.688 146.172L773.682 145.22C773.716 145.224 773.769 145.229 773.841 145.233C773.917 145.241 773.97 145.246 774 145.246C774.266 145.246 774.493 145.21 774.679 145.138C774.865 145.07 775.021 144.954 775.148 144.789C775.28 144.628 775.392 144.406 775.485 144.122L775.974 142.789ZM774.571 136.632L776.354 141.964L776.659 143.202L775.815 143.633L773.289 136.632H774.571Z" fill="#737373"/>
<path d="M789.976 134.258V145.214H789.03V134.258H789.976Z" fill="#737373"/>
<path d="M804.384 134.258V143.5H803.178V134.258H804.384ZM807.354 134.258V135.261H800.213V134.258H807.354ZM810.763 143.627C810.285 143.627 809.851 143.547 809.462 143.386C809.077 143.221 808.745 142.99 808.465 142.694C808.19 142.398 807.979 142.046 807.831 141.64C807.682 141.234 807.608 140.79 807.608 140.307V140.041C807.608 139.482 807.691 138.985 807.856 138.549C808.021 138.109 808.245 137.736 808.529 137.432C808.812 137.127 809.134 136.896 809.494 136.74C809.853 136.583 810.226 136.505 810.611 136.505C811.102 136.505 811.525 136.59 811.88 136.759C812.24 136.928 812.534 137.165 812.763 137.47C812.991 137.77 813.16 138.126 813.271 138.536C813.381 138.942 813.436 139.387 813.436 139.869V140.396H808.307V139.438H812.261V139.349C812.244 139.044 812.181 138.748 812.071 138.46C811.965 138.172 811.796 137.935 811.563 137.749C811.33 137.563 811.013 137.47 810.611 137.47C810.344 137.47 810.099 137.527 809.875 137.641C809.65 137.751 809.458 137.916 809.297 138.136C809.136 138.356 809.011 138.625 808.922 138.942C808.833 139.26 808.789 139.626 808.789 140.041V140.307C808.789 140.633 808.833 140.94 808.922 141.228C809.015 141.511 809.149 141.761 809.322 141.977C809.5 142.192 809.714 142.362 809.963 142.484C810.217 142.607 810.505 142.668 810.827 142.668C811.241 142.668 811.593 142.584 811.88 142.415C812.168 142.245 812.42 142.019 812.636 141.735L813.347 142.3C813.199 142.525 813.01 142.738 812.782 142.941C812.553 143.145 812.272 143.31 811.938 143.437C811.607 143.563 811.216 143.627 810.763 143.627ZM815.981 137.711V143.5H814.807V136.632H815.949L815.981 137.711ZM818.126 136.594L818.12 137.686C818.023 137.664 817.93 137.652 817.841 137.647C817.756 137.639 817.659 137.635 817.549 137.635C817.278 137.635 817.039 137.677 816.832 137.762C816.624 137.846 816.449 137.965 816.305 138.117C816.161 138.27 816.047 138.451 815.962 138.663C815.882 138.87 815.829 139.099 815.803 139.349L815.473 139.539C815.473 139.124 815.513 138.735 815.594 138.371C815.678 138.007 815.807 137.686 815.981 137.406C816.154 137.123 816.375 136.903 816.641 136.746C816.912 136.585 817.234 136.505 817.606 136.505C817.691 136.505 817.788 136.515 817.898 136.537C818.008 136.554 818.084 136.573 818.126 136.594ZM820.38 137.997V143.5H819.199V136.632H820.316L820.38 137.997ZM820.139 139.806L819.593 139.787C819.597 139.317 819.658 138.883 819.777 138.485C819.895 138.083 820.071 137.734 820.304 137.438C820.536 137.142 820.826 136.913 821.173 136.752C821.52 136.587 821.922 136.505 822.379 136.505C822.701 136.505 822.997 136.551 823.268 136.645C823.539 136.733 823.774 136.875 823.973 137.07C824.172 137.264 824.326 137.514 824.436 137.819C824.546 138.124 824.601 138.492 824.601 138.923V143.5H823.427V138.98C823.427 138.621 823.365 138.333 823.243 138.117C823.124 137.901 822.955 137.745 822.735 137.647C822.515 137.546 822.257 137.495 821.96 137.495C821.613 137.495 821.324 137.556 821.091 137.679C820.858 137.802 820.672 137.971 820.532 138.187C820.393 138.403 820.291 138.65 820.228 138.93C820.168 139.205 820.139 139.497 820.139 139.806ZM824.588 139.158L823.801 139.399C823.806 139.023 823.867 138.661 823.985 138.314C824.108 137.967 824.284 137.658 824.512 137.387C824.745 137.116 825.031 136.903 825.369 136.746C825.708 136.585 826.095 136.505 826.531 136.505C826.899 136.505 827.225 136.554 827.508 136.651C827.796 136.748 828.037 136.898 828.232 137.102C828.431 137.3 828.581 137.556 828.683 137.87C828.784 138.183 828.835 138.555 828.835 138.987V143.5H827.654V138.974C827.654 138.589 827.593 138.291 827.47 138.079C827.352 137.863 827.182 137.713 826.962 137.628C826.747 137.54 826.488 137.495 826.188 137.495C825.93 137.495 825.701 137.54 825.502 137.628C825.304 137.717 825.136 137.84 825.001 137.997C824.866 138.149 824.762 138.325 824.69 138.523C824.622 138.722 824.588 138.934 824.588 139.158ZM834.611 141.678C834.611 141.509 834.573 141.352 834.497 141.208C834.425 141.06 834.275 140.927 834.046 140.809C833.822 140.686 833.484 140.58 833.031 140.491C832.65 140.411 832.305 140.316 831.996 140.206C831.691 140.096 831.431 139.962 831.215 139.806C831.004 139.649 830.841 139.465 830.727 139.253C830.612 139.042 830.555 138.794 830.555 138.511C830.555 138.24 830.614 137.984 830.733 137.743C830.856 137.501 831.027 137.288 831.247 137.102C831.471 136.915 831.74 136.769 832.053 136.664C832.366 136.558 832.715 136.505 833.101 136.505C833.651 136.505 834.12 136.602 834.51 136.797C834.899 136.992 835.197 137.252 835.405 137.578C835.612 137.899 835.716 138.257 835.716 138.65H834.542C834.542 138.46 834.484 138.276 834.37 138.098C834.26 137.916 834.097 137.766 833.881 137.647C833.67 137.529 833.41 137.47 833.101 137.47C832.775 137.47 832.51 137.521 832.307 137.622C832.108 137.719 831.962 137.844 831.869 137.997C831.78 138.149 831.736 138.31 831.736 138.479C831.736 138.606 831.757 138.72 831.799 138.822C831.846 138.919 831.926 139.01 832.041 139.095C832.155 139.175 832.316 139.251 832.523 139.323C832.73 139.395 832.995 139.467 833.316 139.539C833.879 139.666 834.343 139.818 834.707 139.996C835.07 140.174 835.341 140.392 835.519 140.65C835.697 140.908 835.786 141.221 835.786 141.589C835.786 141.89 835.722 142.165 835.595 142.415C835.472 142.664 835.293 142.88 835.056 143.062C834.823 143.24 834.544 143.379 834.218 143.481C833.896 143.578 833.534 143.627 833.132 143.627C832.527 143.627 832.015 143.519 831.596 143.303C831.177 143.087 830.86 142.808 830.644 142.465C830.428 142.123 830.32 141.761 830.32 141.38H831.501C831.518 141.701 831.611 141.958 831.78 142.148C831.95 142.334 832.157 142.467 832.402 142.548C832.648 142.624 832.891 142.662 833.132 142.662C833.454 142.662 833.723 142.62 833.938 142.535C834.159 142.451 834.326 142.334 834.44 142.186C834.554 142.038 834.611 141.869 834.611 141.678ZM840.242 140.142V139.996C840.242 139.501 840.314 139.042 840.458 138.619C840.601 138.191 840.809 137.821 841.08 137.508C841.35 137.19 841.678 136.945 842.063 136.771C842.449 136.594 842.88 136.505 843.358 136.505C843.841 136.505 844.275 136.594 844.66 136.771C845.049 136.945 845.379 137.19 845.65 137.508C845.925 137.821 846.134 138.191 846.278 138.619C846.422 139.042 846.494 139.501 846.494 139.996V140.142C846.494 140.637 846.422 141.096 846.278 141.52C846.134 141.943 845.925 142.313 845.65 142.63C845.379 142.944 845.051 143.189 844.666 143.367C844.285 143.54 843.854 143.627 843.371 143.627C842.889 143.627 842.455 143.54 842.07 143.367C841.685 143.189 841.355 142.944 841.08 142.63C840.809 142.313 840.601 141.943 840.458 141.52C840.314 141.096 840.242 140.637 840.242 140.142ZM841.416 139.996V140.142C841.416 140.485 841.456 140.809 841.537 141.113C841.617 141.414 841.738 141.68 841.898 141.913C842.063 142.146 842.269 142.33 842.514 142.465C842.76 142.597 843.045 142.662 843.371 142.662C843.693 142.662 843.974 142.597 844.215 142.465C844.461 142.33 844.664 142.146 844.825 141.913C844.986 141.68 845.106 141.414 845.187 141.113C845.271 140.809 845.313 140.485 845.313 140.142V139.996C845.313 139.658 845.271 139.338 845.187 139.038C845.106 138.733 844.983 138.464 844.818 138.231C844.658 137.994 844.454 137.808 844.209 137.673C843.968 137.537 843.684 137.47 843.358 137.47C843.037 137.47 842.753 137.537 842.508 137.673C842.267 137.808 842.063 137.994 841.898 138.231C841.738 138.464 841.617 138.733 841.537 139.038C841.456 139.338 841.416 139.658 841.416 139.996ZM849.719 143.5H848.544V135.908C848.544 135.413 848.633 134.996 848.811 134.658C848.993 134.315 849.253 134.057 849.592 133.883C849.93 133.706 850.332 133.617 850.798 133.617C850.933 133.617 851.069 133.625 851.204 133.642C851.344 133.659 851.479 133.684 851.61 133.718L851.547 134.677C851.458 134.656 851.356 134.641 851.242 134.632C851.132 134.624 851.022 134.62 850.912 134.62C850.662 134.62 850.447 134.67 850.265 134.772C850.087 134.869 849.951 135.013 849.858 135.204C849.765 135.394 849.719 135.629 849.719 135.908V143.5ZM851.179 136.632V137.533H847.459V136.632H851.179ZM860.814 141.164C860.814 140.948 860.781 140.758 860.713 140.593C860.649 140.424 860.535 140.271 860.37 140.136C860.209 140 859.985 139.871 859.697 139.749C859.414 139.626 859.054 139.501 858.618 139.374C858.161 139.239 857.749 139.088 857.38 138.923C857.012 138.754 856.697 138.562 856.435 138.346C856.172 138.13 855.971 137.882 855.832 137.603C855.692 137.324 855.622 137.004 855.622 136.645C855.622 136.285 855.696 135.953 855.844 135.648C855.992 135.343 856.204 135.079 856.479 134.854C856.758 134.626 857.09 134.448 857.476 134.321C857.861 134.194 858.29 134.131 858.764 134.131C859.458 134.131 860.046 134.264 860.529 134.531C861.015 134.793 861.386 135.138 861.64 135.565C861.894 135.989 862.021 136.441 862.021 136.924H860.802C860.802 136.577 860.728 136.27 860.58 136.003C860.431 135.733 860.207 135.521 859.907 135.369C859.606 135.212 859.225 135.134 858.764 135.134C858.328 135.134 857.969 135.199 857.685 135.331C857.402 135.462 857.19 135.639 857.05 135.864C856.915 136.088 856.847 136.344 856.847 136.632C856.847 136.826 856.887 137.004 856.968 137.165C857.052 137.322 857.181 137.468 857.355 137.603C857.533 137.738 857.757 137.863 858.028 137.978C858.303 138.092 858.631 138.202 859.012 138.308C859.536 138.456 859.989 138.621 860.37 138.803C860.751 138.985 861.064 139.19 861.31 139.418C861.559 139.643 861.743 139.899 861.862 140.187C861.985 140.47 862.046 140.792 862.046 141.151C862.046 141.528 861.97 141.869 861.817 142.173C861.665 142.478 861.447 142.738 861.164 142.954C860.88 143.17 860.539 143.337 860.142 143.456C859.748 143.57 859.308 143.627 858.821 143.627C858.394 143.627 857.973 143.568 857.558 143.449C857.148 143.331 856.773 143.153 856.435 142.916C856.1 142.679 855.832 142.387 855.628 142.04C855.43 141.689 855.33 141.283 855.33 140.821H856.549C856.549 141.139 856.61 141.412 856.733 141.64C856.856 141.864 857.023 142.051 857.234 142.199C857.45 142.347 857.694 142.457 857.964 142.529C858.239 142.597 858.525 142.63 858.821 142.63C859.249 142.63 859.611 142.571 859.907 142.453C860.203 142.334 860.427 142.165 860.58 141.945C860.736 141.725 860.814 141.465 860.814 141.164ZM866.28 143.627C865.802 143.627 865.368 143.547 864.979 143.386C864.593 143.221 864.261 142.99 863.982 142.694C863.707 142.398 863.495 142.046 863.347 141.64C863.199 141.234 863.125 140.79 863.125 140.307V140.041C863.125 139.482 863.208 138.985 863.373 138.549C863.538 138.109 863.762 137.736 864.045 137.432C864.329 137.127 864.651 136.896 865.01 136.74C865.37 136.583 865.742 136.505 866.127 136.505C866.618 136.505 867.042 136.59 867.397 136.759C867.757 136.928 868.051 137.165 868.279 137.47C868.508 137.77 868.677 138.126 868.787 138.536C868.897 138.942 868.952 139.387 868.952 139.869V140.396H863.823V139.438H867.778V139.349C867.761 139.044 867.697 138.748 867.587 138.46C867.482 138.172 867.312 137.935 867.08 137.749C866.847 137.563 866.529 137.47 866.127 137.47C865.861 137.47 865.615 137.527 865.391 137.641C865.167 137.751 864.974 137.916 864.813 138.136C864.653 138.356 864.528 138.625 864.439 138.942C864.35 139.26 864.306 139.626 864.306 140.041V140.307C864.306 140.633 864.35 140.94 864.439 141.228C864.532 141.511 864.665 141.761 864.839 141.977C865.017 142.192 865.23 142.362 865.48 142.484C865.734 142.607 866.022 142.668 866.343 142.668C866.758 142.668 867.109 142.584 867.397 142.415C867.685 142.245 867.937 142.019 868.152 141.735L868.863 142.3C868.715 142.525 868.527 142.738 868.298 142.941C868.07 143.145 867.788 143.31 867.454 143.437C867.124 143.563 866.733 143.627 866.28 143.627ZM871.498 137.711V143.5H870.323V136.632H871.466L871.498 137.711ZM873.643 136.594L873.637 137.686C873.539 137.664 873.446 137.652 873.357 137.647C873.273 137.639 873.175 137.635 873.065 137.635C872.795 137.635 872.556 137.677 872.348 137.762C872.141 137.846 871.965 137.965 871.821 138.117C871.677 138.27 871.563 138.451 871.479 138.663C871.398 138.87 871.345 139.099 871.32 139.349L870.99 139.539C870.99 139.124 871.03 138.735 871.11 138.371C871.195 138.007 871.324 137.686 871.498 137.406C871.671 137.123 871.891 136.903 872.158 136.746C872.429 136.585 872.75 136.505 873.123 136.505C873.207 136.505 873.305 136.515 873.415 136.537C873.525 136.554 873.601 136.573 873.643 136.594ZM876.931 142.44L878.81 136.632H880.01L877.541 143.5H876.753L876.931 142.44ZM875.363 136.632L877.299 142.472L877.433 143.5H876.646L874.157 136.632H875.363ZM882.416 136.632V143.5H881.235V136.632H882.416ZM881.146 134.81C881.146 134.62 881.203 134.459 881.317 134.328C881.436 134.196 881.609 134.131 881.838 134.131C882.062 134.131 882.234 134.196 882.352 134.328C882.475 134.459 882.536 134.62 882.536 134.81C882.536 134.992 882.475 135.149 882.352 135.28C882.234 135.407 882.062 135.47 881.838 135.47C881.609 135.47 881.436 135.407 881.317 135.28C881.203 135.149 881.146 134.992 881.146 134.81ZM887.049 142.662C887.329 142.662 887.587 142.605 887.824 142.491C888.061 142.376 888.255 142.22 888.408 142.021C888.56 141.818 888.647 141.587 888.668 141.329H889.785C889.764 141.735 889.626 142.114 889.373 142.465C889.123 142.812 888.795 143.094 888.389 143.31C887.982 143.521 887.536 143.627 887.049 143.627C886.533 143.627 886.082 143.536 885.697 143.354C885.316 143.172 884.999 142.922 884.745 142.605C884.495 142.288 884.307 141.924 884.18 141.513C884.057 141.098 883.996 140.66 883.996 140.199V139.933C883.996 139.471 884.057 139.035 884.18 138.625C884.307 138.21 884.495 137.844 884.745 137.527C884.999 137.209 885.316 136.96 885.697 136.778C886.082 136.596 886.533 136.505 887.049 136.505C887.587 136.505 888.056 136.615 888.458 136.835C888.861 137.051 889.176 137.347 889.404 137.724C889.637 138.096 889.764 138.519 889.785 138.993H888.668C888.647 138.71 888.566 138.454 888.427 138.225C888.291 137.997 888.105 137.815 887.868 137.679C887.635 137.54 887.362 137.47 887.049 137.47C886.69 137.47 886.387 137.542 886.142 137.686C885.9 137.825 885.708 138.016 885.564 138.257C885.424 138.494 885.323 138.758 885.259 139.05C885.2 139.338 885.17 139.632 885.17 139.933V140.199C885.17 140.5 885.2 140.796 885.259 141.088C885.319 141.38 885.418 141.644 885.558 141.881C885.701 142.118 885.894 142.309 886.135 142.453C886.381 142.592 886.685 142.662 887.049 142.662ZM893.956 143.627C893.477 143.627 893.044 143.547 892.654 143.386C892.269 143.221 891.937 142.99 891.658 142.694C891.383 142.398 891.171 142.046 891.023 141.64C890.875 141.234 890.801 140.79 890.801 140.307V140.041C890.801 139.482 890.883 138.985 891.048 138.549C891.213 138.109 891.438 137.736 891.721 137.432C892.005 137.127 892.326 136.896 892.686 136.74C893.046 136.583 893.418 136.505 893.803 136.505C894.294 136.505 894.717 136.59 895.073 136.759C895.432 136.928 895.727 137.165 895.955 137.47C896.184 137.77 896.353 138.126 896.463 138.536C896.573 138.942 896.628 139.387 896.628 139.869V140.396H891.499V139.438H895.454V139.349C895.437 139.044 895.373 138.748 895.263 138.46C895.157 138.172 894.988 137.935 894.755 137.749C894.523 137.563 894.205 137.47 893.803 137.47C893.537 137.47 893.291 137.527 893.067 137.641C892.843 137.751 892.65 137.916 892.489 138.136C892.328 138.356 892.204 138.625 892.115 138.942C892.026 139.26 891.981 139.626 891.981 140.041V140.307C891.981 140.633 892.026 140.94 892.115 141.228C892.208 141.511 892.341 141.761 892.515 141.977C892.692 142.192 892.906 142.362 893.156 142.484C893.41 142.607 893.697 142.668 894.019 142.668C894.434 142.668 894.785 142.584 895.073 142.415C895.361 142.245 895.612 142.019 895.828 141.735L896.539 142.3C896.391 142.525 896.203 142.738 895.974 142.941C895.746 143.145 895.464 143.31 895.13 143.437C894.8 143.563 894.408 143.627 893.956 143.627Z" fill="#737373"/>
<path d="M907.976 134.258V145.214H907.03V134.258H907.976Z" fill="#737373"/>
<path d="M922.466 139.875H919.997V138.879H922.466C922.944 138.879 923.331 138.803 923.627 138.65C923.924 138.498 924.139 138.286 924.275 138.016C924.415 137.745 924.484 137.436 924.484 137.089C924.484 136.771 924.415 136.473 924.275 136.194C924.139 135.915 923.924 135.69 923.627 135.521C923.331 135.347 922.944 135.261 922.466 135.261H920.282V143.5H919.057V134.258H922.466C923.164 134.258 923.754 134.378 924.237 134.62C924.719 134.861 925.085 135.195 925.335 135.623C925.585 136.046 925.709 136.53 925.709 137.076C925.709 137.669 925.585 138.174 925.335 138.593C925.085 139.012 924.719 139.332 924.237 139.552C923.754 139.768 923.164 139.875 922.466 139.875ZM928.255 137.711V143.5H927.081V136.632H928.223L928.255 137.711ZM930.4 136.594L930.394 137.686C930.297 137.664 930.204 137.652 930.115 137.647C930.03 137.639 929.933 137.635 929.823 137.635C929.552 137.635 929.313 137.677 929.105 137.762C928.898 137.846 928.722 137.965 928.579 138.117C928.435 138.27 928.32 138.451 928.236 138.663C928.155 138.87 928.103 139.099 928.077 139.349L927.747 139.539C927.747 139.124 927.787 138.735 927.868 138.371C927.952 138.007 928.081 137.686 928.255 137.406C928.428 137.123 928.648 136.903 928.915 136.746C929.186 136.585 929.507 136.505 929.88 136.505C929.965 136.505 930.062 136.515 930.172 136.537C930.282 136.554 930.358 136.573 930.4 136.594ZM932.762 136.632V143.5H931.581V136.632H932.762ZM931.492 134.81C931.492 134.62 931.549 134.459 931.664 134.328C931.782 134.196 931.956 134.131 932.184 134.131C932.408 134.131 932.58 134.196 932.698 134.328C932.821 134.459 932.882 134.62 932.882 134.81C932.882 134.992 932.821 135.149 932.698 135.28C932.58 135.407 932.408 135.47 932.184 135.47C931.956 135.47 931.782 135.407 931.664 135.28C931.549 135.149 931.492 134.992 931.492 134.81ZM936.735 142.44L938.614 136.632H939.814L937.345 143.5H936.558L936.735 142.44ZM935.167 136.632L937.104 142.472L937.237 143.5H936.45L933.961 136.632H935.167ZM944.892 142.326V138.79C944.892 138.519 944.837 138.284 944.727 138.085C944.621 137.882 944.46 137.726 944.245 137.616C944.029 137.506 943.762 137.451 943.445 137.451C943.149 137.451 942.888 137.501 942.664 137.603C942.444 137.705 942.271 137.838 942.144 138.003C942.021 138.168 941.959 138.346 941.959 138.536H940.785C940.785 138.291 940.849 138.047 940.976 137.806C941.103 137.565 941.285 137.347 941.521 137.152C941.763 136.953 942.05 136.797 942.385 136.683C942.723 136.564 943.1 136.505 943.515 136.505C944.014 136.505 944.454 136.59 944.835 136.759C945.22 136.928 945.521 137.184 945.736 137.527C945.956 137.865 946.066 138.291 946.066 138.803V142.002C946.066 142.23 946.085 142.474 946.124 142.732C946.166 142.99 946.227 143.212 946.308 143.398V143.5H945.083C945.023 143.365 944.977 143.185 944.943 142.96C944.909 142.732 944.892 142.52 944.892 142.326ZM945.095 139.336L945.108 140.161H943.921C943.587 140.161 943.288 140.189 943.026 140.244C942.764 140.294 942.543 140.373 942.366 140.479C942.188 140.584 942.053 140.718 941.959 140.878C941.866 141.035 941.82 141.219 941.82 141.431C941.82 141.646 941.868 141.843 941.966 142.021C942.063 142.199 942.209 142.34 942.404 142.446C942.603 142.548 942.846 142.599 943.134 142.599C943.493 142.599 943.811 142.522 944.086 142.37C944.361 142.218 944.579 142.032 944.74 141.812C944.905 141.591 944.994 141.378 945.006 141.17L945.508 141.735C945.478 141.913 945.398 142.11 945.267 142.326C945.135 142.542 944.96 142.749 944.74 142.948C944.524 143.142 944.266 143.305 943.965 143.437C943.669 143.563 943.335 143.627 942.962 143.627C942.497 143.627 942.089 143.536 941.737 143.354C941.39 143.172 941.119 142.929 940.925 142.624C940.734 142.315 940.639 141.97 940.639 141.589C940.639 141.221 940.711 140.897 940.855 140.618C940.999 140.335 941.206 140.1 941.477 139.914C941.748 139.723 942.074 139.579 942.455 139.482C942.835 139.385 943.261 139.336 943.73 139.336H945.095ZM950.662 142.662C950.941 142.662 951.2 142.605 951.437 142.491C951.674 142.376 951.868 142.22 952.021 142.021C952.173 141.818 952.26 141.587 952.281 141.329H953.398C953.377 141.735 953.239 142.114 952.985 142.465C952.736 142.812 952.408 143.094 952.001 143.31C951.595 143.521 951.149 143.627 950.662 143.627C950.146 143.627 949.695 143.536 949.31 143.354C948.929 143.172 948.612 142.922 948.358 142.605C948.108 142.288 947.92 141.924 947.793 141.513C947.67 141.098 947.609 140.66 947.609 140.199V139.933C947.609 139.471 947.67 139.035 947.793 138.625C947.92 138.21 948.108 137.844 948.358 137.527C948.612 137.209 948.929 136.96 949.31 136.778C949.695 136.596 950.146 136.505 950.662 136.505C951.2 136.505 951.669 136.615 952.071 136.835C952.473 137.051 952.789 137.347 953.017 137.724C953.25 138.096 953.377 138.519 953.398 138.993H952.281C952.26 138.71 952.179 138.454 952.04 138.225C951.904 137.997 951.718 137.815 951.481 137.679C951.248 137.54 950.975 137.47 950.662 137.47C950.302 137.47 950 137.542 949.754 137.686C949.513 137.825 949.321 138.016 949.177 138.257C949.037 138.494 948.936 138.758 948.872 139.05C948.813 139.338 948.783 139.632 948.783 139.933V140.199C948.783 140.5 948.813 140.796 948.872 141.088C948.931 141.38 949.031 141.644 949.17 141.881C949.314 142.118 949.507 142.309 949.748 142.453C949.993 142.592 950.298 142.662 950.662 142.662ZM956.648 142.789L958.559 136.632H959.815L957.061 144.56C956.997 144.729 956.912 144.911 956.807 145.106C956.705 145.305 956.574 145.493 956.413 145.671C956.252 145.849 956.058 145.993 955.829 146.103C955.605 146.217 955.336 146.274 955.023 146.274C954.93 146.274 954.811 146.261 954.667 146.236C954.524 146.21 954.422 146.189 954.363 146.172L954.356 145.22C954.39 145.224 954.443 145.229 954.515 145.233C954.591 145.241 954.644 145.246 954.674 145.246C954.94 145.246 955.167 145.21 955.353 145.138C955.539 145.07 955.696 144.954 955.823 144.789C955.954 144.628 956.066 144.406 956.159 144.122L956.648 142.789ZM955.245 136.632L957.029 141.964L957.333 143.202L956.489 143.633L953.963 136.632H955.245ZM967.687 139.875H965.217V138.879H967.687C968.165 138.879 968.552 138.803 968.848 138.65C969.144 138.498 969.36 138.286 969.496 138.016C969.635 137.745 969.705 137.436 969.705 137.089C969.705 136.771 969.635 136.473 969.496 136.194C969.36 135.915 969.144 135.69 968.848 135.521C968.552 135.347 968.165 135.261 967.687 135.261H965.503V143.5H964.278V134.258H967.687C968.385 134.258 968.975 134.378 969.458 134.62C969.94 134.861 970.306 135.195 970.556 135.623C970.805 136.046 970.93 136.53 970.93 137.076C970.93 137.669 970.805 138.174 970.556 138.593C970.306 139.012 969.94 139.332 969.458 139.552C968.975 139.768 968.385 139.875 967.687 139.875ZM971.901 140.142V139.996C971.901 139.501 971.973 139.042 972.117 138.619C972.261 138.191 972.468 137.821 972.739 137.508C973.01 137.19 973.338 136.945 973.723 136.771C974.108 136.594 974.54 136.505 975.018 136.505C975.5 136.505 975.934 136.594 976.319 136.771C976.709 136.945 977.039 137.19 977.31 137.508C977.585 137.821 977.794 138.191 977.938 138.619C978.082 139.042 978.154 139.501 978.154 139.996V140.142C978.154 140.637 978.082 141.096 977.938 141.52C977.794 141.943 977.585 142.313 977.31 142.63C977.039 142.944 976.711 143.189 976.326 143.367C975.945 143.54 975.513 143.627 975.031 143.627C974.548 143.627 974.115 143.54 973.729 143.367C973.344 143.189 973.014 142.944 972.739 142.63C972.468 142.313 972.261 141.943 972.117 141.52C971.973 141.096 971.901 140.637 971.901 140.142ZM973.076 139.996V140.142C973.076 140.485 973.116 140.809 973.196 141.113C973.277 141.414 973.397 141.68 973.558 141.913C973.723 142.146 973.928 142.33 974.174 142.465C974.419 142.597 974.705 142.662 975.031 142.662C975.352 142.662 975.634 142.597 975.875 142.465C976.12 142.33 976.324 142.146 976.484 141.913C976.645 141.68 976.766 141.414 976.846 141.113C976.931 140.809 976.973 140.485 976.973 140.142V139.996C976.973 139.658 976.931 139.338 976.846 139.038C976.766 138.733 976.643 138.464 976.478 138.231C976.317 137.994 976.114 137.808 975.869 137.673C975.627 137.537 975.344 137.47 975.018 137.47C974.696 137.47 974.413 137.537 974.167 137.673C973.926 137.808 973.723 137.994 973.558 138.231C973.397 138.464 973.277 138.733 973.196 139.038C973.116 139.338 973.076 139.658 973.076 139.996ZM980.902 133.75V143.5H979.722V133.75H980.902ZM984.063 136.632V143.5H982.883V136.632H984.063ZM982.794 134.81C982.794 134.62 982.851 134.459 982.965 134.328C983.084 134.196 983.257 134.131 983.486 134.131C983.71 134.131 983.882 134.196 984 134.328C984.123 134.459 984.184 134.62 984.184 134.81C984.184 134.992 984.123 135.149 984 135.28C983.882 135.407 983.71 135.47 983.486 135.47C983.257 135.47 983.084 135.407 982.965 135.28C982.851 135.149 982.794 134.992 982.794 134.81ZM988.697 142.662C988.977 142.662 989.235 142.605 989.472 142.491C989.709 142.376 989.903 142.22 990.056 142.021C990.208 141.818 990.295 141.587 990.316 141.329H991.433C991.412 141.735 991.274 142.114 991.021 142.465C990.771 142.812 990.443 143.094 990.037 143.31C989.63 143.521 989.184 143.627 988.697 143.627C988.181 143.627 987.73 143.536 987.345 143.354C986.964 143.172 986.647 142.922 986.393 142.605C986.143 142.288 985.955 141.924 985.828 141.513C985.705 141.098 985.644 140.66 985.644 140.199V139.933C985.644 139.471 985.705 139.035 985.828 138.625C985.955 138.21 986.143 137.844 986.393 137.527C986.647 137.209 986.964 136.96 987.345 136.778C987.73 136.596 988.181 136.505 988.697 136.505C989.235 136.505 989.704 136.615 990.106 136.835C990.508 137.051 990.824 137.347 991.052 137.724C991.285 138.096 991.412 138.519 991.433 138.993H990.316C990.295 138.71 990.214 138.454 990.075 138.225C989.939 137.997 989.753 137.815 989.516 137.679C989.283 137.54 989.01 137.47 988.697 137.47C988.338 137.47 988.035 137.542 987.79 137.686C987.548 137.825 987.356 138.016 987.212 138.257C987.072 138.494 986.971 138.758 986.907 139.05C986.848 139.338 986.818 139.632 986.818 139.933V140.199C986.818 140.5 986.848 140.796 986.907 141.088C986.966 141.38 987.066 141.644 987.206 141.881C987.349 142.118 987.542 142.309 987.783 142.453C988.029 142.592 988.333 142.662 988.697 142.662ZM994.683 142.789L996.594 136.632H997.851L995.096 144.56C995.032 144.729 994.948 144.911 994.842 145.106C994.74 145.305 994.609 145.493 994.448 145.671C994.287 145.849 994.093 145.993 993.864 146.103C993.64 146.217 993.371 146.274 993.058 146.274C992.965 146.274 992.847 146.261 992.703 146.236C992.559 146.21 992.457 146.189 992.398 146.172L992.392 145.22C992.425 145.224 992.478 145.229 992.55 145.233C992.626 145.241 992.679 145.246 992.709 145.246C992.976 145.246 993.202 145.21 993.388 145.138C993.574 145.07 993.731 144.954 993.858 144.789C993.989 144.628 994.101 144.406 994.194 144.122L994.683 142.789ZM993.28 136.632L995.064 141.964L995.369 143.202L994.524 143.633L991.998 136.632H993.28Z" fill="#737373"/>
<path d="M1299.04 140.375L1299.4 137.841H1297.13V136.197C1297.13 135.504 1297.45 134.828 1298.47 134.828H1299.5V132.671C1299.5 132.671 1298.56 132.5 1297.67 132.5C1295.8 132.5 1294.58 133.714 1294.58 135.91V137.841H1292.5V140.375H1294.58V146.5H1297.13V140.375H1299.04Z" fill="#505050"/>
<path d="M1331.5 132.5H1324.5C1322.57 132.5 1321 134.067 1321 136V143C1321 144.933 1322.57 146.5 1324.5 146.5H1331.5C1333.43 146.5 1335 144.933 1335 143V136C1335 134.067 1333.43 132.5 1331.5 132.5Z" fill="#505050"/>
<path d="M1330.8 139.059C1330.89 139.642 1330.79 140.237 1330.52 140.759C1330.24 141.282 1329.82 141.706 1329.29 141.971C1328.76 142.236 1328.17 142.328 1327.59 142.234C1327 142.141 1326.47 141.866 1326.05 141.45C1325.63 141.033 1325.36 140.496 1325.27 139.915C1325.17 139.333 1325.26 138.737 1325.53 138.211C1325.79 137.685 1326.22 137.256 1326.74 136.984C1327.26 136.713 1327.86 136.614 1328.44 136.7C1329.04 136.788 1329.59 137.065 1330.01 137.49C1330.43 137.915 1330.71 138.465 1330.8 139.059Z" stroke="white" stroke-width="1.5" stroke-linecap="round" stroke-linejoin="round"/>
<path d="M1331.85 135.65H1331.86" stroke="white" stroke-width="1.5" stroke-linecap="round" stroke-linejoin="round"/>
<path d="M1365.56 136.491C1365.57 136.622 1365.57 136.753 1365.57 136.884C1365.57 140.887 1362.68 145.5 1357.41 145.5C1355.78 145.5 1354.27 145.003 1353 144.141C1353.23 144.169 1353.45 144.178 1353.69 144.178C1355.03 144.178 1356.27 143.7 1357.26 142.884C1355.99 142.856 1354.94 141.984 1354.57 140.784C1354.75 140.812 1354.93 140.831 1355.11 140.831C1355.37 140.831 1355.63 140.794 1355.87 140.728C1354.55 140.447 1353.57 139.228 1353.57 137.756V137.719C1353.95 137.944 1354.39 138.084 1354.87 138.103C1354.09 137.559 1353.59 136.631 1353.59 135.581C1353.59 135.019 1353.73 134.503 1353.98 134.053C1355.39 135.891 1357.51 137.091 1359.89 137.222C1359.85 136.997 1359.82 136.763 1359.82 136.528C1359.82 134.859 1361.1 133.5 1362.69 133.5C1363.52 133.5 1364.26 133.866 1364.79 134.456C1365.44 134.325 1366.06 134.072 1366.61 133.725C1366.4 134.428 1365.94 135.019 1365.35 135.394C1365.93 135.328 1366.48 135.159 1367 134.925C1366.61 135.525 1366.12 136.059 1365.56 136.491Z" fill="#505050"/>
</svg>
