<svg width="120" height="120" viewBox="0 0 120 120" fill="none" xmlns="http://www.w3.org/2000/svg">
<g clip-path="url(#clip0_2207_40871)">
<rect width="120" height="120" rx="4" fill="white"/>
<circle cx="60" cy="60" r="16" fill="#F2F2F2"/>
<path d="M60 54.375C59.0365 54.401 58.2292 54.7396 57.5781 55.3906C56.9271 56.0417 56.5885 56.849 56.5625 57.8125C56.5885 58.776 56.9271 59.5833 57.5781 60.2344C58.2292 60.8854 59.0365 61.224 60 61.25C60.9635 61.224 61.7708 60.8854 62.4219 60.2344C63.0729 59.5833 63.4115 58.776 63.4375 57.8125C63.4115 56.849 63.0729 56.0417 62.4219 55.3906C61.7708 54.7396 60.9635 54.401 60 54.375ZM60 59.375C59.5573 59.375 59.1927 59.2188 58.9062 58.9062C58.5938 58.6198 58.4375 58.2552 58.4375 57.8125C58.4375 57.3698 58.5938 57.0052 58.9062 56.7188C59.1927 56.4062 59.5573 56.25 60 56.25C60.4427 56.25 60.8073 56.4062 61.0938 56.7188C61.4062 57.0052 61.5625 57.3698 61.5625 57.8125C61.5625 58.2552 61.4062 58.6198 61.0938 58.9062C60.8073 59.2188 60.4427 59.375 60 59.375ZM60 50C58.125 50.026 56.4453 50.4818 54.9609 51.3672C53.4505 52.2526 52.2526 53.4505 51.3672 54.9609C50.4818 56.4453 50.026 58.125 50 60C50.026 61.875 50.4818 63.5547 51.3672 65.0391C52.2526 66.5495 53.4505 67.7474 54.9609 68.6328C56.4453 69.5182 58.125 69.974 60 70C61.875 69.974 63.5547 69.5182 65.0391 68.6328C66.5495 67.7474 67.7474 66.5495 68.6328 65.0391C69.5182 63.5547 69.974 61.875 70 60C69.974 58.125 69.5182 56.4453 68.6328 54.9609C67.7474 53.4505 66.5495 52.2526 65.0391 51.3672C63.5547 50.4818 61.875 50.026 60 50ZM60 68.125C58.151 68.099 56.5365 67.5521 55.1562 66.4844C55.4948 65.8333 55.9635 65.3255 56.5625 64.9609C57.1615 64.5703 57.8385 64.375 58.5938 64.375H61.4062C62.1615 64.375 62.8385 64.5703 63.4375 64.9609C64.0365 65.3255 64.5182 65.8333 64.8828 66.4844C63.4766 67.5521 61.849 68.099 60 68.125ZM66.25 65.1953C65.7292 64.362 65.0391 63.6979 64.1797 63.2031C63.3464 62.7344 62.4219 62.5 61.4062 62.5H58.5938C57.5781 62.5 56.6536 62.7344 55.8203 63.2031C54.987 63.6719 54.2969 64.3229 53.75 65.1562C52.5521 63.724 51.9271 62.0052 51.875 60C51.9271 57.7083 52.7214 55.7943 54.2578 54.2578C55.7943 52.7214 57.7083 51.9271 60 51.875C62.2917 51.9271 64.2057 52.7214 65.7422 54.2578C67.2786 55.7943 68.0729 57.7083 68.125 60C68.0729 62.0052 67.4479 63.737 66.25 65.1953Z" fill="#1A1A1A"/>
</g>
<rect x="0.5" y="0.5" width="119" height="119" rx="3.5" stroke="#F2F2F2"/>
<defs>
<clipPath id="clip0_2207_40871">
<rect width="120" height="120" rx="4" fill="white"/>
</clipPath>
</defs>
</svg>
